<svg width="150" height="150" viewBox="0 0 150 150" fill="none" xmlns="http://www.w3.org/2000/svg">
<path d="M55.0993 13.9399C55.46 13.1757 56.5473 13.1757 56.908 13.9399L85.3022 74.0971C85.4298 74.3674 85.4298 74.6805 85.3022 74.9508L56.908 135.108C56.5473 135.872 55.46 135.872 55.0993 135.108L26.7051 74.9508C26.5776 74.6805 26.5776 74.3673 26.7051 74.0971L55.0993 13.9399Z" fill="#4C2416"/>
<path d="M94.9871 13.974C95.363 13.2103 96.4604 13.2355 96.8009 14.0157L123.311 74.7645C123.428 75.0342 123.421 75.3421 123.291 75.6061L94.0204 135.074C93.6445 135.838 92.5471 135.812 92.2067 135.032L65.697 74.2833C65.5793 74.0136 65.5864 73.7058 65.7163 73.4417L94.9871 13.974Z" fill="#4C2416"/>
<path d="M72.8264 8.99562C73.1705 8.21932 74.2645 8.1981 74.6384 8.96047L106.292 73.494C106.423 73.7596 106.429 74.0692 106.309 74.3397L77.1811 140.052C76.837 140.828 75.743 140.85 75.3691 140.087L43.7152 75.5538C43.5849 75.2882 43.5789 74.9786 43.6988 74.7081L72.8264 8.99562Z" fill="#4C2416"/>
<path d="M28.9792 27.8285C28.7059 27.0246 29.4957 26.2673 30.2874 26.5742L97.3064 52.5553C97.5822 52.6622 97.7965 52.8857 97.8917 53.1658L121.028 121.219C121.301 122.023 120.511 122.78 119.72 122.473L52.7007 96.4924C52.4249 96.3855 52.2106 96.162 52.1154 95.8819L28.9792 27.8285Z" fill="#4C2416"/>
<path d="M120.719 27.5262C121.518 27.236 122.291 28.0097 122.001 28.8077L97.437 96.3589C97.3359 96.6369 97.1169 96.8558 96.8389 96.9569L29.2878 121.521C28.4897 121.811 27.716 121.037 28.0062 120.239L52.5703 52.6883C52.6714 52.4103 52.8903 52.1913 53.1683 52.0902L120.719 27.5262Z" fill="#4C2416"/>
<path d="M14.7583 96.3404C13.9847 96.0002 13.9557 94.9134 14.71 94.5324L74.0867 64.5403C74.3535 64.4055 74.6665 64.3972 74.9401 64.5175L135.835 91.2935C136.608 91.6337 136.637 92.7205 135.883 93.1015L76.5064 123.094C76.2396 123.228 75.9266 123.237 75.653 123.116L14.7583 96.3404Z" fill="#4C2416"/>
<path d="M14.7457 55.004C13.9809 54.6302 14.0031 53.5328 14.7822 53.1901L75.4563 26.5096C75.7256 26.3911 76.0335 26.3973 76.2979 26.5265L135.848 55.6299C136.612 56.0036 136.59 57.1011 135.811 57.4437L75.1372 84.1242C74.8678 84.2427 74.5599 84.2365 74.2955 84.1073L14.7457 55.004Z" fill="#4C2416"/>
<path d="M9.73845 75.7231C8.96897 75.364 8.96896 74.2698 9.73845 73.9107L74.8737 43.5142C75.1418 43.3891 75.4515 43.3891 75.7195 43.5142L140.855 73.9107C141.624 74.2698 141.624 75.364 140.855 75.7231L75.7195 106.12C75.4515 106.245 75.1418 106.245 74.8737 106.12L9.73845 75.7231Z" fill="#4C2416"/>
<path d="M86.8594 28.127L92.8008 28.5L97.4736 29.1133L101.367 29.9551L104.732 31.0254L107.658 32.3154L110.213 33.8193L112.469 35.5586L114.44 37.5303L116.18 39.7861L117.684 42.3408L118.974 45.2666L120.044 48.6318L120.886 52.5254L121.499 57.1982L121.872 63.1396L121.999 75L121.872 86.8594L121.499 92.8008L120.886 97.4736L120.044 101.367L118.974 104.732L117.684 107.658L116.18 110.213L114.44 112.469L112.469 114.44L110.213 116.18L107.658 117.684L104.732 118.974L101.367 120.044L97.4736 120.886L92.8008 121.499L86.8594 121.872L75 121.999L63.1396 121.872L57.1982 121.499L52.5254 120.886L48.6318 120.044L45.2666 118.974L42.3408 117.684L39.7861 116.18L37.5303 114.44L35.5586 112.469L33.8193 110.213L32.3154 107.658L31.0254 104.732L29.9551 101.367L29.1133 97.4736L28.5 92.8008L28.127 86.8594L28 75L28.127 63.1396L28.5 57.1982L29.1133 52.5254L29.9551 48.6318L31.0254 45.2666L32.3154 42.3408L33.8193 39.7861L35.5586 37.5303L37.5303 35.5586L39.7861 33.8193L42.3408 32.3154L45.2666 31.0254L48.6318 29.9551L52.5254 29.1133L57.1982 28.5L63.1396 28.127L75 28L86.8594 28.127Z" fill="#81361E" stroke="#4C2416" stroke-width="6"/>
</svg>
