<svg width="100" height="100" viewBox="0 0 100 100" fill="none" xmlns="http://www.w3.org/2000/svg">
<path d="M61.8594 3.12695L67.8008 3.5L72.4736 4.11328L76.3672 4.95508L79.7324 6.02539L82.6582 7.31543L85.2129 8.81934L87.4688 10.5586L89.4404 12.5303L91.1797 14.7861L92.6836 17.3408L93.9736 20.2666L95.0439 23.6318L95.8857 27.5254L96.499 32.1982L96.8721 38.1396L96.999 50L96.8721 61.8594L96.499 67.8008L95.8857 72.4736L95.0439 76.3672L93.9736 79.7324L92.6836 82.6582L91.1797 85.2129L89.4404 87.4688L87.4688 89.4404L85.2129 91.1797L82.6582 92.6836L79.7324 93.9736L76.3672 95.0439L72.4736 95.8857L67.8008 96.499L61.8594 96.8721L50 96.999L38.1396 96.8721L32.1982 96.499L27.5254 95.8857L23.6318 95.0439L20.2666 93.9736L17.3408 92.6836L14.7861 91.1797L12.5303 89.4404L10.5586 87.4688L8.81934 85.2129L7.31543 82.6582L6.02539 79.7324L4.95508 76.3672L4.11328 72.4736L3.5 67.8008L3.12695 61.8594L3 50L3.12695 38.1396L3.5 32.1982L4.11328 27.5254L4.95508 23.6318L6.02539 20.2666L7.31543 17.3408L8.81934 14.7861L10.5586 12.5303L12.5303 10.5586L14.7861 8.81934L17.3408 7.31543L20.2666 6.02539L23.6318 4.95508L27.5254 4.11328L32.1982 3.5L38.1396 3.12695L50 3L61.8594 3.12695Z" fill="#81361E" stroke="#4C2416" stroke-width="6"/>
</svg>
