<svg width="150" height="150" viewBox="0 0 150 150" fill="none" xmlns="http://www.w3.org/2000/svg">
<path d="M74.7761 27.2764L143.776 74.7764L74.7761 122.276L5.77612 74.7764L74.7761 27.2764Z" fill="#471E1E"/>
<path d="M61.4569 51.7066L137.233 38.7164L88.095 97.8452L12.3191 110.835L61.4569 51.7066Z" fill="#471E1E"/>
<path d="M88.0951 51.7065L137.233 110.835L61.457 97.845L12.3191 38.7163L88.0951 51.7065Z" fill="#471E1E"/>
<path d="M27.2766 74.7759L74.7766 5.77588L122.277 74.7759L74.7766 143.776L27.2766 74.7759Z" fill="#471E1E"/>
<path d="M51.7068 88.0949L38.7166 12.3189L97.8454 61.4567L110.836 137.233L51.7068 88.0949Z" fill="#471E1E"/>
<path d="M51.7067 61.4567L110.836 12.3188L97.8453 88.0948L38.7165 137.233L51.7067 61.4567Z" fill="#471E1E"/>
</svg>
