<svg width="150" height="150" viewBox="0 0 150 150" fill="none" xmlns="http://www.w3.org/2000/svg">
<path d="M74.7761 27.2764L143.776 74.7764L74.7761 122.276L5.77612 74.7764L74.7761 27.2764Z" fill="#471E1E"/>
<path d="M61.4569 51.7066L137.233 38.7164L88.095 97.8452L12.3191 110.835L61.4569 51.7066Z" fill="#471E1E"/>
<path d="M88.0951 51.7065L137.233 110.835L61.457 97.845L12.3191 38.7163L88.0951 51.7065Z" fill="#471E1E"/>
<path d="M27.2766 74.7759L74.7766 5.77588L122.277 74.7759L74.7766 143.776L27.2766 74.7759Z" fill="#471E1E"/>
<path d="M51.7068 88.0949L38.7166 12.3189L97.8454 61.4567L110.836 137.233L51.7068 88.0949Z" fill="#471E1E"/>
<path d="M51.7067 61.4567L110.836 12.3188L97.8453 88.0948L38.7165 137.233L51.7067 61.4567Z" fill="#471E1E"/>
<path d="M86.8594 28.127L92.8008 28.5L97.4736 29.1133L101.367 29.9551L104.732 31.0254L107.658 32.3154L110.213 33.8193L112.469 35.5586L114.44 37.5303L116.18 39.7861L117.684 42.3408L118.974 45.2666L120.044 48.6318L120.886 52.5254L121.499 57.1982L121.872 63.1396L121.999 75L121.872 86.8594L121.499 92.8008L120.886 97.4736L120.044 101.367L118.974 104.732L117.684 107.658L116.18 110.213L114.44 112.469L112.469 114.44L110.213 116.18L107.658 117.684L104.732 118.974L101.367 120.044L97.4736 120.886L92.8008 121.499L86.8594 121.872L75 121.999L63.1396 121.872L57.1982 121.499L52.5254 120.886L48.6318 120.044L45.2666 118.974L42.3408 117.684L39.7861 116.18L37.5303 114.44L35.5586 112.469L33.8193 110.213L32.3154 107.658L31.0254 104.732L29.9551 101.367L29.1133 97.4736L28.5 92.8008L28.127 86.8594L28 75L28.127 63.1396L28.5 57.1982L29.1133 52.5254L29.9551 48.6318L31.0254 45.2666L32.3154 42.3408L33.8193 39.7861L35.5586 37.5303L37.5303 35.5586L39.7861 33.8193L42.3408 32.3154L45.2666 31.0254L48.6318 29.9551L52.5254 29.1133L57.1982 28.5L63.1396 28.127L75 28L86.8594 28.127Z" fill="#632727" stroke="#471E1E" stroke-width="6"/>
<mask id="mask0_1190_2" style="mask-type:alpha" maskUnits="userSpaceOnUse" x="25" y="25" width="100" height="100">
<path d="M86.8594 28.127L92.8008 28.5L97.4736 29.1133L101.367 29.9551L104.732 31.0254L107.658 32.3154L110.213 33.8193L112.469 35.5586L114.44 37.5303L116.18 39.7861L117.684 42.3408L118.974 45.2666L120.044 48.6318L120.886 52.5254L121.499 57.1982L121.872 63.1396L121.999 75L121.872 86.8594L121.499 92.8008L120.886 97.4736L120.044 101.367L118.974 104.732L117.684 107.658L116.18 110.213L114.44 112.469L112.469 114.44L110.213 116.18L107.658 117.684L104.732 118.974L101.367 120.044L97.4736 120.886L92.8008 121.499L86.8594 121.872L75 121.999L63.1396 121.872L57.1982 121.499L52.5254 120.886L48.6318 120.044L45.2666 118.974L42.3408 117.684L39.7861 116.18L37.5303 114.44L35.5586 112.469L33.8193 110.213L32.3154 107.658L31.0254 104.732L29.9551 101.367L29.1133 97.4736L28.5 92.8008L28.127 86.8594L28 75L28.127 63.1396L28.5 57.1982L29.1133 52.5254L29.9551 48.6318L31.0254 45.2666L32.3154 42.3408L33.8193 39.7861L35.5586 37.5303L37.5303 35.5586L39.7861 33.8193L42.3408 32.3154L45.2666 31.0254L48.6318 29.9551L52.5254 29.1133L57.1982 28.5L63.1396 28.127L75 28L86.8594 28.127Z" fill="#632727" stroke="#471E1E" stroke-width="6"/>
</mask>
<g mask="url(#mask0_1190_2)">
</g>
</svg>
