<svg width="150" height="150" viewBox="0 0 150 150" fill="none" xmlns="http://www.w3.org/2000/svg">
<path d="M25.4464 25.4462L103.766 46.8733L125.193 125.193L46.8734 103.766L25.4464 25.4462Z" fill="#474E52"/>
<path d="M43.6364 20.4429L108.897 55.9337L107.002 130.196L41.7423 94.7052L43.6364 20.4429Z" fill="#474E52"/>
<path d="M20.4429 43.6363L94.7052 41.7421L130.196 107.002L55.9337 108.896L20.4429 43.6363Z" fill="#474E52"/>
<path d="M125.193 25.4464L103.766 103.766L25.4463 125.193L46.8734 46.8734L125.193 25.4464Z" fill="#474E52"/>
<path d="M130.197 43.6362L94.7057 108.896L20.4434 107.002L55.9342 41.7421L130.197 43.6362Z" fill="#474E52"/>
<path d="M107.003 20.4429L108.897 94.7052L43.6371 130.196L41.743 55.9337L107.003 20.4429Z" fill="#474E52"/>
<path d="M138.82 75.3198L76.3196 137.82L13.8196 75.3198L76.3196 12.8198L138.82 75.3198Z" fill="#474E52"/>
<path d="M87.8594 28.127L93.8008 28.5L98.4736 29.1133L102.367 29.9551L105.732 31.0254L108.658 32.3154L111.213 33.8193L113.469 35.5586L115.44 37.5303L117.18 39.7861L118.684 42.3408L119.974 45.2666L121.044 48.6318L121.886 52.5254L122.499 57.1982L122.872 63.1396L122.999 75L122.872 86.8594L122.499 92.8008L121.886 97.4736L121.044 101.367L119.974 104.732L118.684 107.658L117.18 110.213L115.44 112.469L113.469 114.44L111.213 116.18L108.658 117.684L105.732 118.974L102.367 120.044L98.4736 120.886L93.8008 121.499L87.8594 121.872L76 121.999L64.1396 121.872L58.1982 121.499L53.5254 120.886L49.6318 120.044L46.2666 118.974L43.3408 117.684L40.7861 116.18L38.5303 114.44L36.5586 112.469L34.8193 110.213L33.3154 107.658L32.0254 104.732L30.9551 101.367L30.1133 97.4736L29.5 92.8008L29.127 86.8594L29 75L29.127 63.1396L29.5 57.1982L30.1133 52.5254L30.9551 48.6318L32.0254 45.2666L33.3154 42.3408L34.8193 39.7861L36.5586 37.5303L38.5303 35.5586L40.7861 33.8193L43.3408 32.3154L46.2666 31.0254L49.6318 29.9551L53.5254 29.1133L58.1982 28.5L64.1396 28.127L76 28L87.8594 28.127Z" fill="#818B91" stroke="#474E52" stroke-width="6"/>
</svg>
