<svg width="150" height="150" viewBox="0 0 150 150" fill="none" xmlns="http://www.w3.org/2000/svg">
<path d="M56.0048 5.44666L109.767 65.0635L93.016 143.574L39.2541 83.9573L56.0048 5.44666Z" fill="#2B3333"/>
<path d="M125.069 23.9525L100.32 100.32L23.9524 125.069L48.7011 48.7012L125.069 23.9525Z" fill="#2B3333"/>
<path d="M143.574 56.0048L83.9575 109.767L5.44694 93.0159L65.0637 39.2541L143.574 56.0048Z" fill="#2B3333"/>
<path d="M125.069 125.069L48.701 100.32L23.9523 23.9524L100.32 48.7011L125.069 125.069Z" fill="#2B3333"/>
<path d="M86.8594 28.127L92.8008 28.5L97.4736 29.1133L101.367 29.9551L104.732 31.0254L107.658 32.3154L110.213 33.8193L112.469 35.5586L114.44 37.5303L116.18 39.7861L117.684 42.3408L118.974 45.2666L120.044 48.6318L120.886 52.5254L121.499 57.1982L121.872 63.1396L121.999 75L121.872 86.8594L121.499 92.8008L120.886 97.4736L120.044 101.367L118.974 104.732L117.684 107.658L116.18 110.213L114.44 112.469L112.469 114.44L110.213 116.18L107.658 117.684L104.732 118.974L101.367 120.044L97.4736 120.886L92.8008 121.499L86.8594 121.872L75 121.999L63.1396 121.872L57.1982 121.499L52.5254 120.886L48.6318 120.044L45.2666 118.974L42.3408 117.684L39.7861 116.18L37.5303 114.44L35.5586 112.469L33.8193 110.213L32.3154 107.658L31.0254 104.732L29.9551 101.367L29.1133 97.4736L28.5 92.8008L28.127 86.8594L28 75L28.127 63.1396L28.5 57.1982L29.1133 52.5254L29.9551 48.6318L31.0254 45.2666L32.3154 42.3408L33.8193 39.7861L35.5586 37.5303L37.5303 35.5586L39.7861 33.8193L42.3408 32.3154L45.2666 31.0254L48.6318 29.9551L52.5254 29.1133L57.1982 28.5L63.1396 28.127L75 28L86.8594 28.127Z" fill="#464A4A" stroke="#2B3333" stroke-width="6"/>
</svg>
