<svg width="150" height="150" viewBox="0 0 150 150" fill="none" xmlns="http://www.w3.org/2000/svg">
<path d="M55.0993 13.9404C55.46 13.1761 56.5473 13.1761 56.908 13.9404L85.3022 74.0976C85.4298 74.3678 85.4298 74.681 85.3022 74.9513L56.908 135.108C56.5473 135.873 55.46 135.873 55.0993 135.108L26.7051 74.9513C26.5776 74.681 26.5776 74.3678 26.7051 74.0976L55.0993 13.9404Z" fill="#4C2416"/>
<path d="M94.9871 13.9745C95.363 13.2108 96.4604 13.236 96.8009 14.0162L123.311 74.765C123.428 75.0347 123.421 75.3426 123.291 75.6066L94.0204 135.074C93.6445 135.838 92.5471 135.813 92.2067 135.033L65.697 74.2838C65.5793 74.0141 65.5864 73.7062 65.7163 73.4422L94.9871 13.9745Z" fill="#4C2416"/>
<path d="M72.8264 8.99562C73.1705 8.21932 74.2645 8.1981 74.6384 8.96047L106.292 73.494C106.423 73.7596 106.429 74.0692 106.309 74.3397L77.1811 140.052C76.837 140.828 75.743 140.85 75.3691 140.087L43.7152 75.5538C43.5849 75.2882 43.5789 74.9786 43.6988 74.7081L72.8264 8.99562Z" fill="#4C2416"/>
<path d="M28.9792 27.8285C28.7059 27.0246 29.4957 26.2673 30.2874 26.5742L97.3064 52.5553C97.5822 52.6622 97.7965 52.8857 97.8917 53.1658L121.028 121.219C121.301 122.023 120.511 122.78 119.72 122.473L52.7007 96.4924C52.4249 96.3855 52.2106 96.162 52.1154 95.8819L28.9792 27.8285Z" fill="#4C2416"/>
<path d="M120.719 27.5267C121.517 27.2365 122.291 28.0102 122.001 28.8082L97.4369 96.3594C97.3358 96.6374 97.1168 96.8563 96.8389 96.9574L29.2877 121.521C28.4897 121.812 27.716 121.038 28.0062 120.24L52.5702 52.6888C52.6713 52.4108 52.8903 52.1918 53.1683 52.0907L120.719 27.5267Z" fill="#4C2416"/>
<path d="M14.7583 96.3409C13.9847 96.0007 13.9557 94.9139 14.71 94.5329L74.0867 64.5408C74.3535 64.406 74.6665 64.3977 74.9401 64.518L135.835 91.294C136.608 91.6341 136.637 92.721 135.883 93.102L76.5064 123.094C76.2396 123.229 75.9266 123.237 75.653 123.117L14.7583 96.3409Z" fill="#4C2416"/>
<path d="M14.7457 55.004C13.9809 54.6302 14.0031 53.5328 14.7822 53.1901L75.4563 26.5096C75.7256 26.3911 76.0335 26.3973 76.2979 26.5265L135.848 55.6299C136.612 56.0036 136.59 57.1011 135.811 57.4437L75.1372 84.1242C74.8678 84.2427 74.5599 84.2365 74.2955 84.1073L14.7457 55.004Z" fill="#4C2416"/>
<path d="M9.73845 75.7236C8.96897 75.3645 8.96896 74.2703 9.73845 73.9112L74.8737 43.5147C75.1418 43.3896 75.4515 43.3896 75.7195 43.5147L140.855 73.9112C141.624 74.2703 141.624 75.3645 140.855 75.7236L75.7195 106.12C75.4515 106.245 75.1418 106.245 74.8737 106.12L9.73845 75.7236Z" fill="#4C2416"/>
</svg>
