<svg width="150" height="150" viewBox="0 0 150 150" fill="none" xmlns="http://www.w3.org/2000/svg">
<path d="M74.7761 27.2764L143.776 74.7764L74.7761 122.276L5.77612 74.7764L74.7761 27.2764Z" fill="#471E1E"/>
<path d="M61.4569 51.7071L137.233 38.7169L88.095 97.8457L12.3191 110.836L61.4569 51.7071Z" fill="#471E1E"/>
<path d="M88.0951 51.707L137.233 110.836L61.457 97.8455L12.3191 38.7167L88.0951 51.707Z" fill="#471E1E"/>
<path d="M27.2766 74.7764L74.7766 5.77637L122.277 74.7764L74.7766 143.776L27.2766 74.7764Z" fill="#471E1E"/>
<path d="M51.7068 88.0949L38.7166 12.3189L97.8454 61.4567L110.836 137.233L51.7068 88.0949Z" fill="#471E1E"/>
<path d="M51.7067 61.4572L110.836 12.3193L97.8453 88.0953L38.7165 137.233L51.7067 61.4572Z" fill="#471E1E"/>
</svg>
