<svg width="150" height="150" viewBox="0 0 150 150" fill="none" xmlns="http://www.w3.org/2000/svg">
<path d="M25.4464 25.4462L103.766 46.8733L125.193 125.193L46.8734 103.766L25.4464 25.4462Z" fill="#474E52"/>
<path d="M43.6364 20.4433L108.897 55.9342L107.002 130.196L41.7423 94.7057L43.6364 20.4433Z" fill="#474E52"/>
<path d="M20.4429 43.6367L94.7052 41.7426L130.196 107.003L55.9337 108.897L20.4429 43.6367Z" fill="#474E52"/>
<path d="M125.193 25.4464L103.766 103.766L25.4463 125.193L46.8734 46.8734L125.193 25.4464Z" fill="#474E52"/>
<path d="M130.197 43.6367L94.7057 108.897L20.4434 107.003L55.9342 41.7426L130.197 43.6367Z" fill="#474E52"/>
<path d="M107.003 20.4434L108.897 94.7057L43.6371 130.197L41.743 55.9342L107.003 20.4434Z" fill="#474E52"/>
<path d="M138.82 75.3203L76.3196 137.82L13.8196 75.3203L76.3196 12.8203L138.82 75.3203Z" fill="#474E52"/>
</svg>
