<svg width="300" height="300" viewBox="0 0 300 300" fill="none" xmlns="http://www.w3.org/2000/svg">
<mask id="path-1-inside-1_1168_72205" fill="white">
<path d="M261.656 202.9L262.14 205.088L262.067 209.537L261.584 213.959L260.829 216.07L259.685 217.526L258.097 218.478L255.908 218.963L251.46 218.89L225.847 217.281L226.19 217.785L227.169 220.482L227.2 222.893L226.349 225.213L224.485 227.614L219.814 231.477L214.826 234.922L212.009 236.064L209.545 236.253L207.232 235.568L204.903 233.891L201.267 229.551L193.93 219.855L190.07 234.124L189.104 236.905L188.133 238.118L186.855 238.817L185.203 239.089L183.016 238.923L178.691 237.894L174.437 236.601L172.464 235.643L171.173 234.575L170.423 233.327L170.195 231.79L170.764 228.901L178.668 199.685L164.401 180.832L161.212 176.152L160.232 173.454L160.202 171.043L161.053 168.723L162.916 166.322L167.588 162.458L172.575 159.013L175.393 157.873L177.857 157.684L180.169 158.368L182.498 160.044L186.135 164.386L210.256 196.261L252.714 198.929L257.136 199.413L259.247 200.169L260.703 201.312L261.656 202.9Z"/>
</mask>
<path d="M261.656 202.9L262.14 205.088L262.067 209.537L261.584 213.959L260.829 216.07L259.685 217.526L258.097 218.478L255.908 218.963L251.46 218.89L225.847 217.281L226.19 217.785L227.169 220.482L227.2 222.893L226.349 225.213L224.485 227.614L219.814 231.477L214.826 234.922L212.009 236.064L209.545 236.253L207.232 235.568L204.903 233.891L201.267 229.551L193.93 219.855L190.07 234.124L189.104 236.905L188.133 238.118L186.855 238.817L185.203 239.089L183.016 238.923L178.691 237.894L174.437 236.601L172.464 235.643L171.173 234.575L170.423 233.327L170.195 231.79L170.764 228.901L178.668 199.685L164.401 180.832L161.212 176.152L160.232 173.454L160.202 171.043L161.053 168.723L162.916 166.322L167.588 162.458L172.575 159.013L175.393 157.873L177.857 157.684L180.169 158.368L182.498 160.044L186.135 164.386L210.256 196.261L252.714 198.929L257.136 199.413L259.247 200.169L260.703 201.312L261.656 202.9Z" fill="#473225"/>
<path d="M261.656 202.9L267.514 201.602L267.303 200.65L266.801 199.813L261.656 202.9ZM262.14 205.088L268.14 205.187L268.151 204.48L267.998 203.791L262.14 205.088ZM262.067 209.537L268.032 210.189L268.062 209.913L268.066 209.635L262.067 209.537ZM261.584 213.959L267.233 215.98L267.471 215.314L267.548 214.611L261.584 213.959ZM260.829 216.07L265.547 219.776L266.149 219.009L266.478 218.091L260.829 216.07ZM259.685 217.526L262.772 222.671L263.72 222.102L264.403 221.232L259.685 217.526ZM258.097 218.478L259.393 224.337L260.346 224.126L261.184 223.623L258.097 218.478ZM255.908 218.963L255.81 224.962L256.515 224.973L257.204 224.821L255.908 218.963ZM251.46 218.89L251.084 224.878L251.223 224.887L251.363 224.889L251.46 218.89ZM225.847 217.281L226.223 211.293L213.985 210.524L220.887 220.658L225.847 217.281ZM226.19 217.785L231.83 215.737L231.573 215.03L231.149 214.408L226.19 217.785ZM227.169 220.482L233.169 220.405L233.156 219.389L232.809 218.434L227.169 220.482ZM227.2 222.893L232.833 224.958L233.213 223.921L233.199 222.816L227.2 222.893ZM226.349 225.213L231.089 228.892L231.661 228.154L231.983 227.278L226.349 225.213ZM224.485 227.614L228.309 232.238L228.819 231.816L229.224 231.294L224.485 227.614ZM219.814 231.477L223.224 236.414L223.438 236.267L223.638 236.101L219.814 231.477ZM214.826 234.922L217.08 240.483L217.692 240.235L218.236 239.859L214.826 234.922ZM212.009 236.064L212.466 242.047L213.397 241.976L214.263 241.625L212.009 236.064ZM209.545 236.253L207.842 242.006L208.901 242.319L210.002 242.235L209.545 236.253ZM207.232 235.568L203.727 240.438L204.553 241.032L205.529 241.321L207.232 235.568ZM204.903 233.891L200.304 237.745L200.787 238.322L201.398 238.761L204.903 233.891ZM201.267 229.551L196.482 233.171L196.572 233.29L196.668 233.404L201.267 229.551ZM193.93 219.855L198.715 216.234L191.333 206.478L188.138 218.288L193.93 219.855ZM190.07 234.124L195.738 236.092L195.807 235.893L195.862 235.69L190.07 234.124ZM189.104 236.905L193.786 240.657L194.433 239.85L194.772 238.874L189.104 236.905ZM188.133 238.118L191.014 243.381L192.065 242.805L192.815 241.87L188.133 238.118ZM186.855 238.817L187.831 244.737L188.84 244.571L189.737 244.08L186.855 238.817ZM185.203 239.089L184.747 245.072L185.466 245.127L186.178 245.01L185.203 239.089ZM183.016 238.923L181.627 244.76L182.088 244.869L182.56 244.905L183.016 238.923ZM178.691 237.894L176.947 243.635L177.123 243.688L177.302 243.731L178.691 237.894ZM174.437 236.601L171.814 241.998L172.24 242.205L172.693 242.342L174.437 236.601ZM172.464 235.643L168.639 240.266L169.194 240.725L169.842 241.04L172.464 235.643ZM171.173 234.575L166.03 237.665L166.558 238.544L167.348 239.198L171.173 234.575ZM170.423 233.327L164.488 234.207L164.664 235.391L165.28 236.417L170.423 233.327ZM170.195 231.79L164.308 230.632L164.109 231.647L164.26 232.671L170.195 231.79ZM170.764 228.901L164.972 227.334L164.918 227.536L164.877 227.742L170.764 228.901ZM178.668 199.685L184.46 201.252L185.228 198.411L183.452 196.064L178.668 199.685ZM164.401 180.832L159.442 184.21L159.526 184.334L159.616 184.452L164.401 180.832ZM161.212 176.152L155.572 178.2L155.83 178.908L156.253 179.53L161.212 176.152ZM160.232 173.454L154.232 173.529L154.245 174.547L154.593 175.503L160.232 173.454ZM160.202 171.043L154.569 168.975L154.188 170.013L154.202 171.118L160.202 171.043ZM161.053 168.723L156.312 165.046L155.741 165.782L155.42 166.656L161.053 168.723ZM162.916 166.322L159.092 161.698L158.581 162.12L158.175 162.644L162.916 166.322ZM167.588 162.458L164.178 157.521L163.964 157.669L163.763 157.834L167.588 162.458ZM172.575 159.013L170.324 153.451L169.711 153.7L169.166 154.076L172.575 159.013ZM175.393 157.873L174.935 151.89L174.006 151.961L173.142 152.311L175.393 157.873ZM177.857 157.684L179.559 151.931L178.5 151.617L177.399 151.702L177.857 157.684ZM180.169 158.368L183.672 153.497L182.846 152.903L181.871 152.615L180.169 158.368ZM182.498 160.044L187.098 156.191L186.614 155.613L186.002 155.173L182.498 160.044ZM186.135 164.386L190.92 160.765L190.83 160.647L190.735 160.533L186.135 164.386ZM210.256 196.261L205.471 199.881L207.132 202.076L209.88 202.249L210.256 196.261ZM252.714 198.929L253.368 192.965L253.229 192.95L253.091 192.941L252.714 198.929ZM257.136 199.413L259.157 193.764L258.492 193.526L257.789 193.449L257.136 199.413ZM259.247 200.169L262.953 195.45L262.186 194.848L261.268 194.519L259.247 200.169ZM260.703 201.312L265.848 198.225L265.279 197.277L264.409 196.594L260.703 201.312ZM261.656 202.9L255.798 204.198L256.282 206.386L262.14 205.088L267.998 203.791L267.514 201.602L261.656 202.9ZM262.14 205.088L256.141 204.99L256.068 209.438L262.067 209.537L268.066 209.635L268.14 205.187L262.14 205.088ZM262.067 209.537L256.103 208.885L255.619 213.307L261.584 213.959L267.548 214.611L268.032 210.189L262.067 209.537ZM261.584 213.959L255.934 211.938L255.179 214.049L260.829 216.07L266.478 218.091L267.233 215.98L261.584 213.959ZM260.829 216.07L256.11 212.364L254.967 213.819L259.685 217.526L264.403 221.232L265.547 219.776L260.829 216.07ZM259.685 217.526L256.598 212.381L255.01 213.333L258.097 218.478L261.184 223.623L262.772 222.671L259.685 217.526ZM258.097 218.478L256.801 212.62L254.612 213.104L255.908 218.963L257.204 224.821L259.393 224.337L258.097 218.478ZM255.908 218.963L256.006 212.963L251.558 212.891L251.46 218.89L251.363 224.889L255.81 224.962L255.908 218.963ZM251.46 218.89L251.837 212.902L226.223 211.293L225.847 217.281L225.47 223.269L251.084 224.878L251.46 218.89ZM225.847 217.281L220.887 220.658L221.231 221.162L226.19 217.785L231.149 214.408L230.806 213.903L225.847 217.281ZM226.19 217.785L220.55 219.833L221.529 222.529L227.169 220.482L232.809 218.434L231.83 215.737L226.19 217.785ZM227.169 220.482L221.17 220.558L221.2 222.969L227.2 222.893L233.199 222.816L233.169 220.405L227.169 220.482ZM227.2 222.893L221.566 220.828L220.716 223.148L226.349 225.213L231.983 227.278L232.833 224.958L227.2 222.893ZM226.349 225.213L221.61 221.533L219.745 223.935L224.485 227.614L229.224 231.294L231.089 228.892L226.349 225.213ZM224.485 227.614L220.661 222.991L215.99 226.854L219.814 231.477L223.638 236.101L228.309 232.238L224.485 227.614ZM219.814 231.477L216.404 226.54L211.416 229.985L214.826 234.922L218.236 239.859L223.224 236.414L219.814 231.477ZM214.826 234.922L212.573 229.362L209.755 230.503L212.009 236.064L214.263 241.625L217.08 240.483L214.826 234.922ZM212.009 236.064L211.551 230.082L209.087 230.27L209.545 236.253L210.002 242.235L212.466 242.047L212.009 236.064ZM209.545 236.253L211.248 230.499L208.936 229.815L207.232 235.568L205.529 241.321L207.842 242.006L209.545 236.253ZM207.232 235.568L210.738 230.698L208.409 229.022L204.903 233.891L201.398 238.761L203.727 240.438L207.232 235.568ZM204.903 233.891L209.503 230.038L205.866 225.698L201.267 229.551L196.668 233.404L200.304 237.745L204.903 233.891ZM201.267 229.551L206.051 225.931L198.715 216.234L193.93 219.855L189.146 223.475L196.482 233.171L201.267 229.551ZM193.93 219.855L188.138 218.288L184.278 232.557L190.07 234.124L195.862 235.69L199.722 221.421L193.93 219.855ZM190.07 234.124L184.402 232.155L183.436 234.937L189.104 236.905L194.772 238.874L195.738 236.092L190.07 234.124ZM189.104 236.905L184.422 233.153L183.45 234.366L188.133 238.118L192.815 241.87L193.786 240.657L189.104 236.905ZM188.133 238.118L185.251 232.855L183.974 233.554L186.855 238.817L189.737 244.08L191.014 243.381L188.133 238.118ZM186.855 238.817L185.88 232.897L184.227 233.169L185.203 239.089L186.178 245.01L187.831 244.737L186.855 238.817ZM185.203 239.089L185.659 233.107L183.472 232.94L183.016 238.923L182.56 244.905L184.747 245.072L185.203 239.089ZM183.016 238.923L184.404 233.086L180.079 232.057L178.691 237.894L177.302 243.731L181.627 244.76L183.016 238.923ZM178.691 237.894L180.435 232.153L176.181 230.86L174.437 236.601L172.693 242.342L176.947 243.635L178.691 237.894ZM174.437 236.601L177.059 231.205L175.087 230.246L172.464 235.643L169.842 241.04L171.814 241.998L174.437 236.601ZM172.464 235.643L176.289 231.02L174.998 229.952L171.173 234.575L167.348 239.198L168.639 240.266L172.464 235.643ZM171.173 234.575L176.316 231.485L175.566 230.237L170.423 233.327L165.28 236.417L166.03 237.665L171.173 234.575ZM170.423 233.327L176.358 232.446L176.131 230.91L170.195 231.79L164.26 232.671L164.488 234.207L170.423 233.327ZM170.195 231.79L176.082 232.949L176.651 230.06L170.764 228.901L164.877 227.742L164.308 230.632L170.195 231.79ZM170.764 228.901L176.556 230.468L184.46 201.252L178.668 199.685L172.876 198.118L164.972 227.334L170.764 228.901ZM178.668 199.685L183.452 196.064L169.185 177.211L164.401 180.832L159.616 184.452L173.884 203.306L178.668 199.685ZM164.401 180.832L169.359 177.453L166.17 172.773L161.212 176.152L156.253 179.53L159.442 184.21L164.401 180.832ZM161.212 176.152L166.851 174.103L165.871 171.406L160.232 173.454L154.593 175.503L155.572 178.2L161.212 176.152ZM160.232 173.454L166.232 173.379L166.201 170.968L160.202 171.043L154.202 171.118L154.232 173.529L160.232 173.454ZM160.202 171.043L165.834 173.11L166.686 170.791L161.053 168.723L155.42 166.656L154.569 168.975L160.202 171.043ZM161.053 168.723L165.794 172.401L167.657 169.999L162.916 166.322L158.175 162.644L156.312 165.046L161.053 168.723ZM162.916 166.322L166.74 170.945L171.412 167.081L167.588 162.458L163.763 157.834L159.092 161.698L162.916 166.322ZM167.588 162.458L170.997 167.395L175.985 163.95L172.575 159.013L169.166 154.076L164.178 157.521L167.588 162.458ZM172.575 159.013L174.827 164.575L177.644 163.434L175.393 157.873L173.142 152.311L170.324 153.451L172.575 159.013ZM175.393 157.873L175.85 163.855L178.314 163.667L177.857 157.684L177.399 151.702L174.935 151.89L175.393 157.873ZM177.857 157.684L176.154 163.438L178.466 164.122L180.169 158.368L181.871 152.615L179.559 151.931L177.857 157.684ZM180.169 158.368L176.665 163.239L178.995 164.915L182.498 160.044L186.002 155.173L183.672 153.497L180.169 158.368ZM182.498 160.044L177.899 163.897L181.535 168.239L186.135 164.386L190.735 160.533L187.098 156.191L182.498 160.044ZM186.135 164.386L181.351 168.006L205.471 199.881L210.256 196.261L215.04 192.64L190.92 160.765L186.135 164.386ZM210.256 196.261L209.88 202.249L252.338 204.917L252.714 198.929L253.091 192.941L210.632 190.273L210.256 196.261ZM252.714 198.929L252.061 204.893L256.483 205.378L257.136 199.413L257.789 193.449L253.368 192.965L252.714 198.929ZM257.136 199.413L255.115 205.063L257.226 205.818L259.247 200.169L261.268 194.519L259.157 193.764L257.136 199.413ZM259.247 200.169L255.541 204.887L256.996 206.03L260.703 201.312L264.409 196.594L262.953 195.45L259.247 200.169ZM260.703 201.312L255.558 204.399L256.511 205.987L261.656 202.9L266.801 199.813L265.848 198.225L260.703 201.312Z" fill="#271B13" mask="url(#path-1-inside-1_1168_72205)"/>
<mask id="path-3-inside-2_1168_72205" fill="white">
<path d="M151.355 166.639L146.836 164.456L144.95 162.65L143.971 160.495L143.765 157.859L144.374 154.502L146.755 148.034L174.787 79.1135L177.598 72.8203L179.505 69.9912L181.491 68.2469L183.697 67.3876L186.308 67.4106L191.068 69.0021L195.588 71.1851L197.474 72.9914L198.454 75.1461L198.659 77.7822L198.05 81.1383L195.669 87.6064L167.637 156.527L164.826 162.821L162.92 165.65L160.933 167.394L158.728 168.254L156.116 168.231L151.355 166.639ZM54.6844 124.976L52.8319 123.791L49.545 120.795L46.4631 117.591L45.2287 115.77L44.6588 114.171L44.6637 112.66L45.2908 111.126L47.3523 108.713L60.1888 95.5286L57.5817 93.9482L51.5156 89.9425L48.9434 87.3933L47.5541 84.8773L47.1636 82.2111L47.8177 79.1742L50.6684 73.8207L54.0959 68.8168L56.4859 66.8326L59.0305 65.9451L61.9036 66.0135L65.3531 67.115L71.7106 70.6412L138.803 111.311L144.869 115.317L147.441 117.866L148.83 120.382L149.221 123.048L148.567 126.085L145.716 131.439L142.289 136.443L139.899 138.427L137.354 139.314L134.481 139.246L131.031 138.145L124.674 134.619L77.7418 106.169L61.6825 122.664L59.3256 124.79L57.8098 125.457L56.2985 125.503L54.6844 124.976Z"/>
</mask>
<path d="M151.355 166.639L146.836 164.456L144.95 162.65L143.971 160.495L143.765 157.859L144.374 154.502L146.755 148.034L174.787 79.1135L177.598 72.8203L179.505 69.9912L181.491 68.2469L183.697 67.3876L186.308 67.4106L191.068 69.0021L195.588 71.1851L197.474 72.9914L198.454 75.1461L198.659 77.7822L198.05 81.1383L195.669 87.6064L167.637 156.527L164.826 162.821L162.92 165.65L160.933 167.394L158.728 168.254L156.116 168.231L151.355 166.639ZM54.6844 124.976L52.8319 123.791L49.545 120.795L46.4631 117.591L45.2287 115.77L44.6588 114.171L44.6637 112.66L45.2908 111.126L47.3523 108.713L60.1888 95.5286L57.5817 93.9482L51.5156 89.9425L48.9434 87.3933L47.5541 84.8773L47.1636 82.2111L47.8177 79.1742L50.6684 73.8207L54.0959 68.8168L56.4859 66.8326L59.0305 65.9451L61.9036 66.0135L65.3531 67.115L71.7106 70.6412L138.803 111.311L144.869 115.317L147.441 117.866L148.83 120.382L149.221 123.048L148.567 126.085L145.716 131.439L142.289 136.443L139.899 138.427L137.354 139.314L134.481 139.246L131.031 138.145L124.674 134.619L77.7418 106.169L61.6825 122.664L59.3256 124.79L57.8098 125.457L56.2985 125.503L54.6844 124.976Z" fill="#473225"/>
<path d="M151.355 166.639L148.746 172.042L149.09 172.208L149.453 172.33L151.355 166.639ZM146.836 164.456L142.687 168.79L143.372 169.446L144.226 169.859L146.836 164.456ZM144.95 162.65L139.486 165.13L139.964 166.184L140.8 166.984L144.95 162.65ZM143.971 160.495L137.989 160.963L138.072 162.014L138.508 162.975L143.971 160.495ZM143.765 157.859L137.861 156.787L137.722 157.552L137.783 158.328L143.765 157.859ZM144.374 154.502L138.744 152.43L138.564 152.918L138.471 153.43L144.374 154.502ZM146.755 148.034L141.197 145.774L141.159 145.867L141.124 145.962L146.755 148.034ZM174.787 79.1135L169.309 76.6667L169.268 76.7592L169.229 76.8529L174.787 79.1135ZM177.598 72.8203L172.622 69.467L172.332 69.8985L172.119 70.3736L177.598 72.8203ZM179.505 69.9912L175.545 65.483L174.963 65.9948L174.529 66.638L179.505 69.9912ZM181.491 68.2469L179.313 62.6561L178.327 63.0403L177.531 63.7387L181.491 68.2469ZM183.697 67.3876L183.75 61.3878L182.595 61.3777L181.519 61.7968L183.697 67.3876ZM186.308 67.4106L188.211 61.7202L187.311 61.4191L186.361 61.4108L186.308 67.4106ZM191.068 69.0021L193.678 63.5994L193.334 63.4331L192.971 63.3118L191.068 69.0021ZM195.588 71.1851L199.737 66.8513L199.052 66.1951L198.197 65.7824L195.588 71.1851ZM197.474 72.9914L202.936 70.5081L202.458 69.4565L201.624 68.6577L197.474 72.9914ZM198.454 75.1461L204.436 74.6805L204.354 73.6258L203.916 72.6628L198.454 75.1461ZM198.659 77.7822L204.562 78.8542L204.701 78.0905L204.641 77.3167L198.659 77.7822ZM198.05 81.1383L203.68 83.2108L203.86 82.7224L203.953 82.2103L198.05 81.1383ZM195.669 87.6064L201.227 89.8669L201.265 89.7735L201.3 89.6788L195.669 87.6064ZM167.637 156.527L173.115 158.974L173.157 158.881L173.195 158.788L167.637 156.527ZM164.826 162.821L169.802 166.173L170.092 165.742L170.304 165.268L164.826 162.821ZM162.92 165.65L166.877 170.161L167.462 169.648L167.897 169.002L162.92 165.65ZM160.933 167.394L163.114 172.983L164.097 172.6L164.89 171.904L160.933 167.394ZM158.728 168.254L158.675 174.254L159.832 174.264L160.909 173.844L158.728 168.254ZM156.116 168.231L154.213 173.921L155.114 174.223L156.063 174.231L156.116 168.231ZM54.6844 124.976L51.4518 130.03L52.0945 130.441L52.8196 130.679L54.6844 124.976ZM52.8319 123.791L48.7902 128.226L49.1684 128.57L49.5994 128.846L52.8319 123.791ZM49.545 120.795L45.2205 124.954L45.3574 125.097L45.5034 125.23L49.545 120.795ZM46.4631 117.591L41.4973 120.958L41.7842 121.381L42.1386 121.75L46.4631 117.591ZM45.2287 115.77L39.5768 117.784L39.8336 118.505L40.2629 119.138L45.2287 115.77ZM44.6588 114.171L38.6588 114.151L38.6554 115.199L39.0069 116.185L44.6588 114.171ZM44.6637 112.66L39.1099 110.389L38.6676 111.471L38.6638 112.64L44.6637 112.66ZM45.2908 111.126L40.7292 107.228L40.1022 107.962L39.7369 108.856L45.2908 111.126ZM47.3523 108.713L43.0533 104.528L42.9173 104.668L42.7907 104.816L47.3523 108.713ZM60.1888 95.5286L64.4878 99.7141L69.7506 94.3086L63.2991 90.3978L60.1888 95.5286ZM57.5817 93.9482L54.2754 98.9551L54.3722 99.019L54.4714 99.0791L57.5817 93.9482ZM51.5156 89.9425L47.292 94.2041L47.7138 94.6221L48.2093 94.9493L51.5156 89.9425ZM48.9434 87.3933L43.6911 90.2937L44.1077 91.0482L44.7198 91.6548L48.9434 87.3933ZM47.5541 84.8773L41.6174 85.7467L41.7752 86.8243L42.3017 87.7778L47.5541 84.8773ZM47.1636 82.2111L41.2981 80.9479L41.0699 82.0077L41.227 83.0804L47.1636 82.2111ZM47.8177 79.1742L42.5217 76.3541L42.1283 77.0928L41.9521 77.911L47.8177 79.1742ZM50.6684 73.8207L45.7183 70.4301L45.5295 70.7057L45.3725 71.0006L50.6684 73.8207ZM54.0959 68.8168L50.2633 64.2004L49.619 64.7353L49.1457 65.4262L54.0959 68.8168ZM56.4859 66.8326L54.5101 61.1672L53.487 61.524L52.6533 62.2162L56.4859 66.8326ZM59.0305 65.9451L59.1734 59.9468L58.0838 59.9209L57.0547 60.2798L59.0305 65.9451ZM61.9036 66.0135L63.7286 60.2978L62.9078 60.0358L62.0465 60.0152L61.9036 66.0135ZM65.3531 67.115L68.2634 61.868L67.744 61.5799L67.1781 61.3992L65.3531 67.115ZM71.7106 70.6412L74.8209 65.5103L74.722 65.4503L74.6209 65.3942L71.7106 70.6412ZM138.803 111.311L142.109 106.304L142.012 106.241L141.913 106.18L138.803 111.311ZM144.869 115.317L149.093 111.055L148.671 110.637L148.175 110.31L144.869 115.317ZM147.441 117.866L152.693 114.966L152.277 114.211L151.665 113.605L147.441 117.866ZM148.83 120.382L154.767 119.513L154.609 118.435L154.083 117.482L148.83 120.382ZM149.221 123.048L155.086 124.312L155.315 123.252L155.158 122.179L149.221 123.048ZM148.567 126.085L153.863 128.905L154.256 128.167L154.432 127.349L148.567 126.085ZM145.716 131.439L150.666 134.829L150.855 134.554L151.012 134.259L145.716 131.439ZM142.289 136.443L146.121 141.059L146.766 140.524L147.239 139.833L142.289 136.443ZM139.899 138.427L141.874 144.092L142.898 143.736L143.731 143.043L139.899 138.427ZM137.354 139.314L137.211 145.313L138.301 145.339L139.33 144.98L137.354 139.314ZM134.481 139.246L132.656 144.962L133.477 145.224L134.338 145.244L134.481 139.246ZM131.031 138.145L128.122 143.392L128.641 143.68L129.206 143.86L131.031 138.145ZM124.674 134.619L121.563 139.75L121.663 139.81L121.764 139.867L124.674 134.619ZM77.7418 106.169L80.8521 101.039L76.7716 98.5649L73.4428 101.984L77.7418 106.169ZM61.6825 122.664L65.7016 127.119L65.8459 126.989L65.9815 126.85L61.6825 122.664ZM59.3256 124.79L61.7415 130.283L62.6267 129.893L63.3447 129.245L59.3256 124.79ZM57.8098 125.457L57.9935 131.454L59.1587 131.419L60.2257 130.949L57.8098 125.457ZM56.2985 125.503L54.4338 131.206L55.4323 131.533L56.4822 131.501L56.2985 125.503ZM151.355 166.639L153.965 161.237L149.446 159.054L146.836 164.456L144.226 169.859L148.746 172.042L151.355 166.639ZM146.836 164.456L150.986 160.122L149.099 158.316L144.95 162.65L140.8 166.984L142.687 168.79L146.836 164.456ZM144.95 162.65L150.413 160.17L149.435 158.015L143.971 160.495L138.508 162.975L139.486 165.13L144.95 162.65ZM143.971 160.495L149.953 160.026L149.746 157.391L143.765 157.859L137.783 158.328L137.989 160.963L143.971 160.495ZM143.765 157.859L149.668 158.931L150.278 155.574L144.374 154.502L138.471 153.43L137.861 156.787L143.765 157.859ZM144.374 154.502L150.005 156.575L152.386 150.107L146.755 148.034L141.124 145.962L138.744 152.43L144.374 154.502ZM146.755 148.034L152.313 150.295L180.345 81.3741L174.787 79.1135L169.229 76.8529L141.197 145.774L146.755 148.034ZM174.787 79.1135L180.266 81.5603L183.076 75.2671L177.598 72.8203L172.119 70.3736L169.309 76.6667L174.787 79.1135ZM177.598 72.8203L182.573 76.1736L184.48 73.3445L179.505 69.9912L174.529 66.638L172.622 69.467L177.598 72.8203ZM179.505 69.9912L183.464 74.4995L185.45 72.7552L181.491 68.2469L177.531 63.7387L175.545 65.483L179.505 69.9912ZM181.491 68.2469L183.668 73.8378L185.875 72.9784L183.697 67.3876L181.519 61.7968L179.313 62.6561L181.491 68.2469ZM183.697 67.3876L183.644 73.3874L186.256 73.4103L186.308 67.4106L186.361 61.4108L183.75 61.3878L183.697 67.3876ZM186.308 67.4106L184.406 73.1009L189.166 74.6924L191.068 69.0021L192.971 63.3118L188.211 61.7202L186.308 67.4106ZM191.068 69.0021L188.459 74.4049L192.978 76.5879L195.588 71.1851L198.197 65.7824L193.678 63.5994L191.068 69.0021ZM195.588 71.1851L191.438 75.5189L193.325 77.3252L197.474 72.9914L201.624 68.6577L199.737 66.8513L195.588 71.1851ZM197.474 72.9914L192.012 75.4747L192.992 77.6294L198.454 75.1461L203.916 72.6628L202.936 70.5081L197.474 72.9914ZM198.454 75.1461L192.472 75.6117L192.677 78.2478L198.659 77.7822L204.641 77.3167L204.436 74.6805L198.454 75.1461ZM198.659 77.7822L192.756 76.7103L192.146 80.0664L198.05 81.1383L203.953 82.2103L204.562 78.8542L198.659 77.7822ZM198.05 81.1383L192.419 79.0658L190.038 85.5339L195.669 87.6064L201.3 89.6788L203.68 83.2108L198.05 81.1383ZM195.669 87.6064L190.111 85.3458L162.079 154.266L167.637 156.527L173.195 158.788L201.227 89.8669L195.669 87.6064ZM167.637 156.527L162.158 154.08L159.347 160.374L164.826 162.821L170.304 165.268L173.115 158.974L167.637 156.527ZM164.826 162.821L159.849 159.469L157.944 162.299L162.92 165.65L167.897 169.002L169.802 166.173L164.826 162.821ZM162.92 165.65L158.963 161.14L156.976 162.883L160.933 167.394L164.89 171.904L166.877 170.161L162.92 165.65ZM160.933 167.394L158.752 161.804L156.547 162.665L158.728 168.254L160.909 173.844L163.114 172.983L160.933 167.394ZM158.728 168.254L158.781 162.254L156.169 162.231L156.116 168.231L156.063 174.231L158.675 174.254L158.728 168.254ZM156.116 168.231L158.019 162.541L153.258 160.949L151.355 166.639L149.453 172.33L154.213 173.921L156.116 168.231ZM54.6844 124.976L57.9169 119.921L56.0645 118.736L52.8319 123.791L49.5994 128.846L51.4518 130.03L54.6844 124.976ZM52.8319 123.791L56.8736 119.357L53.5867 116.361L49.545 120.795L45.5034 125.23L48.7902 128.226L52.8319 123.791ZM49.545 120.795L53.8696 116.636L50.7877 113.432L46.4631 117.591L42.1386 121.75L45.2205 124.954L49.545 120.795ZM46.4631 117.591L51.429 114.223L50.1946 112.403L45.2287 115.77L40.2629 119.138L41.4973 120.958L46.4631 117.591ZM45.2287 115.77L50.8806 113.756L50.3106 112.157L44.6588 114.171L39.0069 116.185L39.5768 117.784L45.2287 115.77ZM44.6588 114.171L50.6587 114.191L50.6637 112.68L44.6637 112.66L38.6638 112.64L38.6588 114.151L44.6588 114.171ZM44.6637 112.66L50.2176 114.93L50.8446 113.396L45.2908 111.126L39.7369 108.856L39.1099 110.389L44.6637 112.66ZM45.2908 111.126L49.8524 115.024L51.9139 112.611L47.3523 108.713L42.7907 104.816L40.7292 107.228L45.2908 111.126ZM47.3523 108.713L51.6513 112.899L64.4878 99.7141L60.1888 95.5286L55.8898 91.3432L43.0533 104.528L47.3523 108.713ZM60.1888 95.5286L63.2991 90.3978L60.692 88.8173L57.5817 93.9482L54.4714 99.0791L57.0785 100.66L60.1888 95.5286ZM57.5817 93.9482L60.8879 88.9414L54.8219 84.9356L51.5156 89.9425L48.2093 94.9493L54.2754 98.9551L57.5817 93.9482ZM51.5156 89.9425L55.7392 85.6809L53.167 83.1317L48.9434 87.3933L44.7198 91.6548L47.292 94.2041L51.5156 89.9425ZM48.9434 87.3933L54.1958 84.4928L52.8064 81.9768L47.5541 84.8773L42.3017 87.7778L43.6911 90.2937L48.9434 87.3933ZM47.5541 84.8773L53.4908 84.008L53.1003 81.3417L47.1636 82.2111L41.227 83.0804L41.6174 85.7467L47.5541 84.8773ZM47.1636 82.2111L53.0292 83.4743L53.6832 80.4374L47.8177 79.1742L41.9521 77.911L41.2981 80.9479L47.1636 82.2111ZM47.8177 79.1742L53.1136 81.9943L55.9643 76.6409L50.6684 73.8207L45.3725 71.0006L42.5217 76.3541L47.8177 79.1742ZM50.6684 73.8207L55.6185 77.2113L59.046 72.2074L54.0959 68.8168L49.1457 65.4262L45.7183 70.4301L50.6684 73.8207ZM54.0959 68.8168L57.9285 73.4332L60.3185 71.449L56.4859 66.8326L52.6533 62.2162L50.2633 64.2004L54.0959 68.8168ZM56.4859 66.8326L58.4617 72.4979L61.0064 71.6104L59.0305 65.9451L57.0547 60.2798L54.5101 61.1672L56.4859 66.8326ZM59.0305 65.9451L58.8877 71.9434L61.7607 72.0118L61.9036 66.0135L62.0465 60.0152L59.1734 59.9468L59.0305 65.9451ZM61.9036 66.0135L60.0786 71.7292L63.5281 72.8307L65.3531 67.115L67.1781 61.3992L63.7286 60.2978L61.9036 66.0135ZM65.3531 67.115L62.4429 72.3619L68.8004 75.8881L71.7106 70.6412L74.6209 65.3942L68.2634 61.868L65.3531 67.115ZM71.7106 70.6412L68.6004 75.7721L135.693 116.442L138.803 111.311L141.913 106.18L74.8209 65.5103L71.7106 70.6412ZM138.803 111.311L135.497 116.318L141.563 120.324L144.869 115.317L148.175 110.31L142.109 106.304L138.803 111.311ZM144.869 115.317L140.645 119.579L143.217 122.128L147.441 117.866L151.665 113.605L149.093 111.055L144.869 115.317ZM147.441 117.866L142.189 120.767L143.578 123.283L148.83 120.382L154.083 117.482L152.693 114.966L147.441 117.866ZM148.83 120.382L142.894 121.252L143.284 123.918L149.221 123.048L155.158 122.179L154.767 119.513L148.83 120.382ZM149.221 123.048L143.355 121.785L142.701 124.822L148.567 126.085L154.432 127.349L155.086 124.312L149.221 123.048ZM148.567 126.085L143.271 123.265L140.42 128.619L145.716 131.439L151.012 134.259L153.863 128.905L148.567 126.085ZM145.716 131.439L140.766 128.048L137.339 133.052L142.289 136.443L147.239 139.833L150.666 134.829L145.716 131.439ZM142.289 136.443L138.456 131.826L136.066 133.811L139.899 138.427L143.731 143.043L146.121 141.059L142.289 136.443ZM139.899 138.427L137.923 132.762L135.378 133.649L137.354 139.314L139.33 144.98L141.874 144.092L139.899 138.427ZM137.354 139.314L137.497 133.316L134.624 133.248L134.481 139.246L134.338 145.244L137.211 145.313L137.354 139.314ZM134.481 139.246L136.306 133.53L132.856 132.429L131.031 138.145L129.206 143.86L132.656 144.962L134.481 139.246ZM131.031 138.145L133.941 132.897L127.583 129.372L124.674 134.619L121.764 139.867L128.122 143.392L131.031 138.145ZM124.674 134.619L127.784 129.488L80.8521 101.039L77.7418 106.169L74.6315 111.3L121.563 139.75L124.674 134.619ZM77.7418 106.169L73.4428 101.984L57.3835 118.479L61.6825 122.664L65.9815 126.85L82.0408 110.355L77.7418 106.169ZM61.6825 122.664L57.6634 118.209L55.3065 120.335L59.3256 124.79L63.3447 129.245L65.7016 127.119L61.6825 122.664ZM59.3256 124.79L56.9097 119.298L55.3939 119.965L57.8098 125.457L60.2257 130.949L61.7415 130.283L59.3256 124.79ZM57.8098 125.457L57.6261 119.46L56.1148 119.506L56.2985 125.503L56.4822 131.501L57.9935 131.454L57.8098 125.457ZM56.2985 125.503L58.1632 119.801L56.5491 119.273L54.6844 124.976L52.8196 130.679L54.4338 131.206L56.2985 125.503Z" fill="#271B13" mask="url(#path-3-inside-2_1168_72205)"/>
</svg>
