<svg width="300" height="300" viewBox="0 0 300 300" fill="none" xmlns="http://www.w3.org/2000/svg">
<path d="M159.667 228.937V228.937L165.284 223.568L168.427 221.169L171.195 219.646L173.817 218.779L176.386 218.496L178.954 218.779L181.576 219.646L184.345 221.169L187.488 223.568L193.105 228.937L194.278 230.111L199.647 235.728L202.047 238.871L203.569 241.639L204.436 244.261L204.719 246.83L204.436 249.398L203.569 252.02L202.047 254.788L199.647 257.932L194.278 263.549V263.549L188.661 268.918L185.518 271.317L182.75 272.84L180.127 273.707L177.559 273.989L174.991 273.707L172.368 272.84L169.6 271.317L166.457 268.918L160.84 263.549L159.667 262.375L154.297 256.758L151.898 253.615L150.376 250.847L149.509 248.225L149.226 245.656L149.509 243.088L150.376 240.466L151.898 237.697L154.297 234.554L159.667 228.937Z" fill="#496B41"/>
<path d="M43.3434 56.8105L45.0735 54.2066L46.6001 52.2148L48.0573 50.6068L49.4973 49.2923L50.9472 48.2283L52.4247 47.3898L53.942 46.7638L55.5064 46.3432L57.1322 46.1249L58.8294 46.1091L60.6156 46.3025L62.5179 46.7185L64.5813 47.381L66.8964 48.3398L69.6924 49.7275L74.9957 52.7138L80.2335 55.8134L82.8333 57.541L84.8204 59.066L86.4258 60.5218L87.7372 61.9612L88.7978 63.4113L89.6335 64.8895L90.2565 66.4062L90.6745 67.9713L90.891 69.5983L90.9036 71.2971L90.7079 73.0853L90.2895 74.9896L89.6256 77.0556L88.664 79.3736L87.2731 82.1733L84.2814 87.4859L83.777 88.3596L80.6725 93.6059L78.9428 96.2112L77.4167 98.2022L75.959 99.8109L74.519 101.125L73.0682 102.189L71.5907 103.027L70.0739 103.653L68.509 104.074L66.884 104.293L65.186 104.308L63.4003 104.114L61.4975 103.699L59.4341 103.036L57.1199 102.078L54.3239 100.69L49.0211 97.7031L43.7827 94.6043L41.183 92.8767L39.195 91.3512L37.5896 89.8955L36.2787 88.4552L35.2176 87.0059L34.3827 85.5282L33.7589 84.0111L33.3414 82.4451L33.1244 80.8189L33.1118 79.1202L33.3083 77.3324L33.7267 75.4281L34.3911 73.3613L35.3523 71.0442L36.7428 68.2431L39.7349 62.9318L40.2393 62.0582L43.3434 56.8105Z" fill="#496B41"/>
</svg>
