<svg width="300" height="300" viewBox="0 0 300 300" fill="none" xmlns="http://www.w3.org/2000/svg">
<g clip-path="url(#clip0_1265_61)">
<path d="M220.344 213.921V213.921L222.645 205.684L224.044 201.526L225.391 198.274L226.782 195.565L228.258 193.262L229.839 191.294L231.538 189.622L233.369 188.224L235.339 187.086L237.465 186.2L239.763 185.564L242.257 185.179L244.99 185.053L248.032 185.202L251.522 185.662L255.822 186.529L264.106 188.655L265.473 189.021L273.71 191.323L277.867 192.722L281.12 194.068L283.829 195.46L286.132 196.935L288.1 198.516L289.772 200.216L291.17 202.046L292.308 204.016L293.194 206.142L293.83 208.44L294.215 210.935L294.341 213.667L294.192 216.709L293.732 220.199L292.864 224.499L290.739 232.783V232.783L288.437 241.021L287.039 245.178L285.692 248.431L284.301 251.139L282.825 253.443L281.244 255.411L279.544 257.082L277.714 258.481L275.744 259.618L273.618 260.504L271.32 261.14L268.825 261.525L266.093 261.652L263.051 261.502L259.561 261.042L255.261 260.175L246.977 258.049L245.61 257.683L237.373 255.382L233.215 253.983L229.963 252.636L227.254 251.245L224.951 249.769L222.982 248.188L221.311 246.489L219.913 244.658L218.775 242.688L217.889 240.562L217.253 238.264L216.868 235.769L216.742 233.037L216.891 229.995L217.351 226.505L218.218 222.205L220.344 213.921Z" fill="#3F5D38"/>
<path d="M139.721 216.032V216.032L146.887 209.017L150.745 205.615L154.019 203.102L157.02 201.167L159.869 199.693L162.628 198.622L165.334 197.921L168.012 197.574L170.68 197.574L173.358 197.921L176.064 198.622L178.823 199.693L181.671 201.167L184.673 203.102L187.947 205.615L191.804 209.017L198.971 216.032L200.144 217.205L207.159 224.371L210.56 228.229L213.074 231.503L215.009 234.504L216.482 237.353L217.554 240.112L218.255 242.818L218.602 245.496L218.602 248.164L218.255 250.842L217.554 253.548L216.482 256.307L215.009 259.156L213.074 262.157L210.56 265.431L207.159 269.288L200.144 276.455V276.455L192.978 283.47L189.12 286.871L185.846 289.385L182.845 291.319L179.996 292.793L177.237 293.865L174.531 294.566L171.853 294.913L169.185 294.913L166.507 294.566L163.801 293.865L161.042 292.793L158.193 291.319L155.192 289.385L151.918 286.871L148.06 283.47L140.894 276.455L139.721 275.281L132.706 268.115L129.305 264.257L126.791 260.983L124.856 257.982L123.383 255.134L122.311 252.375L121.61 249.669L121.263 246.991L121.263 244.323L121.61 241.645L122.311 238.938L123.383 236.18L124.856 233.331L126.791 230.33L129.305 227.056L132.706 223.198L139.721 216.032Z" fill="#3F5D38"/>
<path d="M36.1779 44.8166L39.3428 40.0516L42.1357 36.4094L44.8026 33.4679L47.4386 31.0644L50.0938 29.1198L52.7986 27.5872L55.5764 26.444L58.4418 25.6762L61.4185 25.2782L64.5269 25.2517L67.7991 25.6096L71.2827 26.3726L75.0639 27.587L78.0389 28.8209L80.1461 26.4798L83.0651 23.5586L85.5616 21.3791L87.8693 19.677L90.079 18.3536L92.2381 17.3561L94.3734 16.6596L96.5052 16.2485L98.6473 16.1163L100.815 16.2618L103.025 16.6906L105.295 17.414L107.659 18.4563L110.17 19.8597L112.929 21.7154L116.204 24.2536L122.324 29.529L128.33 34.9328L131.263 37.8608L133.452 40.364L135.161 42.6769L136.494 44.8898L137.498 47.0515L138.203 49.1882L138.621 51.3208L138.761 53.4617L138.623 55.6283L138.201 57.8352L137.486 60.1023L136.451 62.4619L135.055 64.9664L133.209 67.7188L130.68 70.9835L125.423 77.0825L124.543 78.0827L120.873 82.1593L119.213 86.1649L116.669 91.2883L111.197 101.005L110.274 102.603L104.595 112.201L101.431 116.965L98.6376 120.608L95.9707 123.549L93.3353 125.952L90.6796 127.897L87.9747 129.43L85.1975 130.572L82.332 131.34L79.3557 131.739L76.2469 131.765L72.9743 131.408L69.4906 130.645L65.7103 129.431L61.4695 127.672L56.8658 125.386L55.9355 126.306L54.2561 127.731L52.6448 128.867L51.068 129.757L49.506 130.421L47.9454 130.872L46.3736 131.116L44.7813 131.155L43.1556 130.987L41.4833 130.602L39.7386 129.987L37.8835 129.112L35.842 127.918L33.4163 126.25L28.8792 122.738L24.4249 119.121L22.2478 117.14L20.6199 115.424L19.3447 113.818L18.3479 112.26L17.5925 110.718L17.0574 109.175L16.7323 107.615L16.6113 106.029L16.6947 104.406L16.9859 102.734L17.4918 100.996L18.2311 99.169L19.2348 97.2079L19.5375 96.7128L18.6606 94.5794L17.8928 91.7139L17.4935 88.7376L17.4683 85.6288L17.8253 82.3562L18.5883 78.8725L19.8022 75.0921L21.5605 70.8514L24.1042 65.7289L29.5767 56.012L30.499 54.4144L36.1779 44.8166Z" fill="#3F5D38"/>
</g>
<defs>
<clipPath id="clip0_1265_61">
<rect width="300" height="300" fill="white"/>
</clipPath>
</defs>
</svg>
