<svg width="300" height="300" viewBox="0 0 300 300" fill="none" xmlns="http://www.w3.org/2000/svg">
<g clip-path="url(#clip0_1265_48)">
<path d="M266.28 186.132L274.518 188.434L274.593 188.454L274.667 188.48L278.824 189.878L278.92 189.911L279.015 189.949L282.268 191.296L282.381 191.343L282.492 191.399L285.2 192.791L285.327 192.857L285.447 192.933L287.75 194.409L287.886 194.496L288.01 194.596L289.979 196.177L290.116 196.287L290.239 196.412L291.911 198.112L292.042 198.245L292.156 198.395L293.554 200.224L293.672 200.378L295.003 202.684L295.077 202.863L295.963 204.988L296.035 205.161L296.085 205.342L296.721 207.64L296.768 207.809L296.795 207.983L297.179 210.477L297.204 210.636L297.212 210.796L297.338 213.528L297.345 213.672L297.338 213.814L297.189 216.856L297.182 216.979L297.166 217.102L296.706 220.592L296.693 220.692L296.672 220.792L295.805 225.092L295.79 225.169L295.77 225.244L293.644 233.529L290.739 232.783L293.628 233.59L291.327 241.828L291.305 241.903L291.28 241.978L289.882 246.134L289.85 246.231L289.81 246.325L288.464 249.578L288.417 249.692L288.361 249.801L286.969 252.511L286.904 252.638L286.827 252.758L285.351 255.061L285.265 255.196L285.164 255.321L283.584 257.29L283.473 257.427L283.348 257.55L281.648 259.222L281.514 259.353L281.365 259.466L279.535 260.864L279.382 260.982L279.215 261.079L277.244 262.216L277.076 262.313L276.898 262.387L274.772 263.273L274.599 263.345L274.419 263.395L272.121 264.032L271.952 264.079L271.777 264.106L269.283 264.49L269.124 264.515L268.964 264.522L266.231 264.649L266.089 264.655L265.946 264.648L262.905 264.498L262.781 264.493L262.659 264.477L259.169 264.016L259.067 264.003L258.968 263.982L254.669 263.116L254.592 263.1L254.516 263.081L246.231 260.955L246.216 260.952L244.818 260.577L244.803 260.572L236.565 258.271L236.49 258.25L236.416 258.225L232.258 256.826L232.162 256.794L232.068 256.755L228.815 255.409L228.702 255.361L228.592 255.304L225.883 253.913L225.756 253.848L225.635 253.771L223.332 252.295L223.197 252.209L223.072 252.108L221.104 250.528L220.967 250.417L220.844 250.292L219.172 248.592L219.04 248.458L218.926 248.31L217.529 246.479L217.412 246.325L217.315 246.158L216.177 244.188L216.08 244.02L216.006 243.842L215.12 241.716L215.047 241.543L214.998 241.363L214.362 239.065L214.315 238.896L214.288 238.722L213.903 236.227L213.879 236.068L213.871 235.908L213.745 233.175L213.738 233.033L213.745 232.89L213.894 229.848L213.9 229.725L213.917 229.603L214.376 226.113L214.391 226.012L214.41 225.912L215.278 221.613L215.293 221.536L215.313 221.46L217.438 213.175L217.454 213.113L219.756 204.876L219.777 204.801L219.803 204.727L221.201 200.569L221.234 200.473L221.272 200.379L222.619 197.127L222.665 197.013L222.722 196.903L224.114 194.194L224.179 194.067L224.256 193.946L225.732 191.643L225.818 191.508L225.919 191.383L227.499 189.415L227.61 189.278L227.735 189.155L229.435 187.483L229.568 187.351L229.718 187.237L231.547 185.84L231.701 185.723L234.007 184.391L234.186 184.317L236.31 183.431L236.484 183.358L236.665 183.309L238.962 182.673L239.131 182.626L239.306 182.599L241.8 182.214L241.959 182.19L242.119 182.182L244.851 182.056L244.994 182.05L245.137 182.057L248.179 182.205L248.302 182.211L248.424 182.228L251.914 182.688L252.015 182.701L252.115 182.721L256.414 183.589L256.491 183.604L256.567 183.624L264.852 185.749L266.28 186.132Z" fill="#263523" stroke="#263523" stroke-width="6"/>
<path d="M202.288 215.106L209.303 222.273L209.357 222.329L209.409 222.388L212.811 226.245L212.878 226.322L212.94 226.402L215.453 229.676L215.529 229.774L215.595 229.877L217.53 232.878L217.607 232.998L217.673 233.126L219.147 235.975L219.22 236.117L219.279 236.267L220.35 239.025L220.414 239.189L220.458 239.36L221.159 242.065L221.206 242.247L221.23 242.433L221.577 245.111L221.601 245.302V248.357L221.577 248.549L221.23 251.227L221.206 251.412L221.159 251.595L220.458 254.3L220.414 254.471L220.35 254.634L219.279 257.393L219.22 257.543L219.147 257.685L217.673 260.534L217.608 260.661L217.53 260.781L215.595 263.782L215.529 263.886L215.453 263.983L212.94 267.258L212.878 267.338L212.811 267.415L209.409 271.272L209.357 271.331L209.303 271.387L202.288 278.554L200.144 276.454L202.243 278.599L195.076 285.614L195.02 285.668L194.961 285.72L191.104 289.122L191.027 289.189L190.947 289.251L187.672 291.764L187.575 291.84L187.472 291.906L184.47 293.841L184.35 293.918L184.223 293.984L181.374 295.458L181.232 295.531L181.083 295.589L178.323 296.661L178.16 296.725L177.989 296.769L175.284 297.47L175.102 297.516L174.916 297.541L172.238 297.887L172.046 297.912H168.991L168.8 297.888L166.122 297.541L165.937 297.517L165.754 297.47L163.049 296.769L162.878 296.725L162.715 296.661L159.956 295.59L159.806 295.531L159.664 295.458L156.815 293.984L156.688 293.918L156.567 293.841L153.566 291.906L153.463 291.84L153.365 291.764L150.091 289.251L150.011 289.189L149.934 289.122L146.077 285.72L146.018 285.668L145.962 285.614L138.795 278.599L137.577 277.38L130.562 270.213L130.507 270.157L130.456 270.099L127.054 266.241L126.987 266.165L126.925 266.085L124.411 262.81L124.336 262.713L124.27 262.609L122.335 259.608L122.257 259.487L122.191 259.361L120.718 256.512L120.644 256.37L120.586 256.22L119.515 253.461L119.45 253.297L119.407 253.127L118.705 250.421L118.658 250.239L118.635 250.054L118.288 247.375L118.263 247.184V244.129L118.288 243.937L118.635 241.259L118.659 241.074L118.705 240.892L119.407 238.186L119.45 238.016L119.515 237.852L120.586 235.093L120.644 234.944L120.718 234.801L122.191 231.952L122.258 231.825L122.335 231.705L124.27 228.704L124.336 228.6L124.411 228.503L126.925 225.229L126.987 225.148L127.054 225.072L130.456 221.214L130.507 221.156L130.562 221.1L137.577 213.933L137.622 213.888L144.789 206.873L144.845 206.818L144.904 206.766L148.761 203.365L148.838 203.298L148.918 203.236L152.192 200.722L152.29 200.647L152.393 200.581L155.394 198.646L155.515 198.568L155.641 198.502L158.491 197.029L158.633 196.955L158.783 196.897L161.541 195.826L161.705 195.761L161.876 195.718L164.581 195.016L164.763 194.969L164.948 194.946L167.627 194.599L167.818 194.574H170.873L171.064 194.599L173.743 194.946L173.928 194.969L174.11 195.016L176.816 195.718L176.986 195.761L177.15 195.826L179.909 196.897L180.059 196.955L180.201 197.029L183.05 198.502L183.176 198.568L183.297 198.646L186.298 200.581L186.402 200.647L186.499 200.722L189.774 203.236L189.854 203.298L189.931 203.365L193.788 206.766L193.847 206.818L193.902 206.873L201.07 213.888L202.288 215.106Z" fill="#263523" stroke="#263523" stroke-width="6"/>
<mask id="path-3-outside-1_1265_48" maskUnits="userSpaceOnUse" x="-8.69615" y="-14.4053" width="165.531" height="178.708" fill="black">
<rect fill="white" x="-8.69615" y="-14.4053" width="165.531" height="178.708"/>
<path d="M36.1779 44.8166L39.3428 40.0516L42.1357 36.4094L44.8026 33.4679L47.4386 31.0644L50.0938 29.1198L52.7986 27.5872L55.5764 26.444L58.4418 25.6762L61.4185 25.2782L64.5269 25.2517L67.7991 25.6096L71.2827 26.3726L75.0639 27.587L78.0389 28.8209L80.1461 26.4798L83.0651 23.5586L85.5616 21.3791L87.8693 19.677L90.079 18.3536L92.2381 17.3561L94.3734 16.6596L96.5052 16.2485L98.6473 16.1163L100.815 16.2618L103.025 16.6906L105.295 17.414L107.659 18.4563L110.17 19.8597L112.929 21.7154L116.204 24.2536L122.324 29.529L128.33 34.9328L131.263 37.8608L133.452 40.364L135.161 42.6769L136.494 44.8898L137.498 47.0515L138.203 49.1882L138.621 51.3208L138.761 53.4617L138.623 55.6283L138.201 57.8352L137.486 60.1023L136.451 62.4619L135.055 64.9664L133.209 67.7188L130.68 70.9835L125.423 77.0825L124.543 78.0827L120.873 82.1593L119.213 86.1649L116.669 91.2883L111.197 101.005L110.274 102.603L104.595 112.201L101.431 116.965L98.6376 120.608L95.9707 123.549L93.3353 125.952L90.6796 127.897L87.9747 129.43L85.1975 130.572L82.332 131.34L79.3557 131.739L76.2469 131.765L72.9743 131.408L69.4906 130.645L65.7103 129.431L61.4695 127.672L56.8658 125.386L55.9355 126.306L54.2561 127.731L52.6448 128.867L51.068 129.757L49.506 130.421L47.9454 130.872L46.3736 131.116L44.7813 131.155L43.1556 130.987L41.4833 130.602L39.7386 129.987L37.8835 129.112L35.842 127.918L33.4163 126.25L28.8792 122.738L24.4249 119.121L22.2478 117.14L20.6199 115.424L19.3447 113.818L18.3479 112.26L17.5925 110.718L17.0574 109.175L16.7323 107.615L16.6113 106.029L16.6947 104.406L16.9859 102.734L17.4918 100.996L18.2311 99.169L19.2348 97.2079L19.5375 96.7128L18.6606 94.5794L17.8928 91.7139L17.4935 88.7376L17.4683 85.6288L17.8253 82.3562L18.5883 78.8725L19.8022 75.0921L21.5605 70.8514L24.1042 65.7289L29.5767 56.012L30.499 54.4144L36.1779 44.8166Z"/>
</mask>
<path d="M36.1779 44.8166L39.3428 40.0516L42.1357 36.4094L44.8026 33.4679L47.4386 31.0644L50.0938 29.1198L52.7986 27.5872L55.5764 26.444L58.4418 25.6762L61.4185 25.2782L64.5269 25.2517L67.7991 25.6096L71.2827 26.3726L75.0639 27.587L78.0389 28.8209L80.1461 26.4798L83.0651 23.5586L85.5616 21.3791L87.8693 19.677L90.079 18.3536L92.2381 17.3561L94.3734 16.6596L96.5052 16.2485L98.6473 16.1163L100.815 16.2618L103.025 16.6906L105.295 17.414L107.659 18.4563L110.17 19.8597L112.929 21.7154L116.204 24.2536L122.324 29.529L128.33 34.9328L131.263 37.8608L133.452 40.364L135.161 42.6769L136.494 44.8898L137.498 47.0515L138.203 49.1882L138.621 51.3208L138.761 53.4617L138.623 55.6283L138.201 57.8352L137.486 60.1023L136.451 62.4619L135.055 64.9664L133.209 67.7188L130.68 70.9835L125.423 77.0825L124.543 78.0827L120.873 82.1593L119.213 86.1649L116.669 91.2883L111.197 101.005L110.274 102.603L104.595 112.201L101.431 116.965L98.6376 120.608L95.9707 123.549L93.3353 125.952L90.6796 127.897L87.9747 129.43L85.1975 130.572L82.332 131.34L79.3557 131.739L76.2469 131.765L72.9743 131.408L69.4906 130.645L65.7103 129.431L61.4695 127.672L56.8658 125.386L55.9355 126.306L54.2561 127.731L52.6448 128.867L51.068 129.757L49.506 130.421L47.9454 130.872L46.3736 131.116L44.7813 131.155L43.1556 130.987L41.4833 130.602L39.7386 129.987L37.8835 129.112L35.842 127.918L33.4163 126.25L28.8792 122.738L24.4249 119.121L22.2478 117.14L20.6199 115.424L19.3447 113.818L18.3479 112.26L17.5925 110.718L17.0574 109.175L16.7323 107.615L16.6113 106.029L16.6947 104.406L16.9859 102.734L17.4918 100.996L18.2311 99.169L19.2348 97.2079L19.5375 96.7128L18.6606 94.5794L17.8928 91.7139L17.4935 88.7376L17.4683 85.6288L17.8253 82.3562L18.5883 78.8725L19.8022 75.0921L21.5605 70.8514L24.1042 65.7289L29.5767 56.012L30.499 54.4144L36.1779 44.8166Z" fill="#263523"/>
<path d="M36.1779 44.8166L31.1799 41.4969L31.0936 41.6269L31.0141 41.7612L36.1779 44.8166ZM39.3428 40.0516L34.5815 36.4006L34.4575 36.5623L34.3448 36.732L39.3428 40.0516ZM42.1357 36.4094L37.6907 32.3793L37.5248 32.5623L37.3745 32.7583L42.1357 36.4094ZM44.8026 33.4679L40.76 29.0342L40.5492 29.2265L40.3576 29.4378L44.8026 33.4679ZM47.4386 31.0644L43.8934 26.2238L43.6337 26.414L43.396 26.6308L47.4386 31.0644ZM50.0938 29.1198L47.1359 23.8995L46.8312 24.0722L46.5486 24.2792L50.0938 29.1198ZM52.7986 27.5872L50.5151 22.0387L50.1677 22.1817L49.8408 22.3669L52.7986 27.5872ZM55.5764 26.444L54.0234 20.6484L53.6502 20.7485L53.2928 20.8955L55.5764 26.444ZM58.4418 25.6762L57.6467 19.7291L57.2629 19.7804L56.8889 19.8807L58.4418 25.6762ZM61.4185 25.2782L61.3674 19.2784L60.9937 19.2816L60.6234 19.3311L61.4185 25.2782ZM64.5269 25.2517L65.1792 19.2873L64.8285 19.2489L64.4758 19.2519L64.5269 25.2517ZM67.7991 25.6096L69.0828 19.7485L68.7698 19.68L68.4513 19.6451L67.7991 25.6096ZM71.2827 26.3726L73.1175 20.66L72.8455 20.5726L72.5664 20.5115L71.2827 26.3726ZM75.0639 27.587L77.3625 22.0448L77.1341 21.95L76.8987 21.8744L75.0639 27.587ZM78.0389 28.8209L75.7403 34.3631L79.6598 35.9887L82.4985 32.8348L78.0389 28.8209ZM80.1461 26.4798L75.9019 22.2386L75.7912 22.3494L75.6865 22.4658L80.1461 26.4798ZM83.0651 23.5586L79.1191 19.0388L78.9653 19.1731L78.8209 19.3175L83.0651 23.5586ZM85.5616 21.3791L82.0001 16.5505L81.8015 16.697L81.6156 16.8593L85.5616 21.3791ZM87.8693 19.677L84.7864 14.5296L84.5394 14.6775L84.3078 14.8484L87.8693 19.677ZM90.079 18.3536L87.5627 12.9068L87.2714 13.0413L86.9961 13.2062L90.079 18.3536ZM92.2381 17.3561L90.3774 11.652L90.042 11.7614L89.7217 11.9093L92.2381 17.3561ZM94.3734 16.6596L93.2374 10.7681L92.8692 10.8391L92.5127 10.9554L94.3734 16.6596ZM96.5052 16.2485L96.1356 10.2599L95.7492 10.2838L95.3691 10.3571L96.5052 16.2485ZM98.6473 16.1163L99.0489 10.1298L98.6634 10.1039L98.2778 10.1277L98.6473 16.1163ZM100.815 16.2618L101.958 10.3717L101.591 10.3003L101.217 10.2752L100.815 16.2618ZM103.025 16.6906L104.846 10.9737L104.512 10.8673L104.168 10.8005L103.025 16.6906ZM105.295 17.414L107.716 11.924L107.423 11.7946L107.117 11.6972L105.295 17.414ZM107.659 18.4563L110.587 13.2189L110.339 13.0807L110.08 12.9663L107.659 18.4563ZM110.17 19.8597L113.519 14.881L113.313 14.7429L113.097 14.6222L110.17 19.8597ZM112.929 21.7154L116.605 16.9729L116.445 16.8493L116.278 16.7367L112.929 21.7154ZM116.204 24.2536L120.122 19.7091L120.003 19.6069L119.88 19.511L116.204 24.2536ZM122.324 29.529L126.337 25.0686L126.29 25.026L126.242 24.9845L122.324 29.529ZM128.33 34.9328L132.569 30.6866L132.459 30.5766L132.343 30.4724L128.33 34.9328ZM131.263 37.8608L135.779 33.9109L135.646 33.7581L135.502 33.6147L131.263 37.8608ZM133.452 40.364L138.277 36.798L138.131 36.5997L137.969 36.4141L133.452 40.364ZM135.161 42.6769L140.301 39.5812L140.155 39.3387L139.987 39.111L135.161 42.6769ZM136.494 44.8898L141.936 42.3627L141.8 42.0703L141.634 41.7941L136.494 44.8898ZM137.498 47.0515L143.196 45.172L143.087 44.8407L142.94 44.5243L137.498 47.0515ZM138.203 49.1882L144.091 48.0329L144.018 47.6649L143.901 47.3087L138.203 49.1882ZM138.621 51.3208L144.609 50.9301L144.583 50.5446L144.509 50.1656L138.621 51.3208ZM138.761 53.4617L144.749 53.8428L144.773 53.4569L144.748 53.071L138.761 53.4617ZM138.623 55.6283L144.516 56.7543L144.587 56.3848L144.611 56.0095L138.623 55.6283ZM138.201 57.8352L143.923 59.6416L144.029 59.3065L144.095 58.9612L138.201 57.8352ZM137.486 60.1023L142.981 62.5108L143.11 62.2159L143.207 61.9088L137.486 60.1023ZM136.451 62.4619L141.692 65.3837L141.832 65.1332L141.947 64.8704L136.451 62.4619ZM135.055 64.9664L140.038 68.3088L140.175 68.1038L140.296 67.8883L135.055 64.9664ZM133.209 67.7188L137.952 71.3929L138.078 71.2311L138.192 71.0611L133.209 67.7188ZM130.68 70.9835L135.225 74.9007L135.327 74.7818L135.424 74.6577L130.68 70.9835ZM125.423 77.0825L129.926 81.0478L129.947 81.0238L129.968 80.9997L125.423 77.0825ZM124.543 78.0827L129.002 82.0969L129.024 82.0726L129.046 82.048L124.543 78.0827ZM120.873 82.1593L116.414 78.1451L115.724 78.9108L115.33 79.8626L120.873 82.1593ZM119.213 86.1649L124.587 88.8335L124.678 88.6505L124.756 88.4617L119.213 86.1649ZM116.669 91.2883L121.897 94.2326L121.974 94.0966L122.043 93.9568L116.669 91.2883ZM111.197 101.005L116.393 104.005L116.409 103.977L116.425 103.95L111.197 101.005ZM110.274 102.603L115.438 105.658L115.454 105.631L115.47 105.603L110.274 102.603ZM104.595 112.201L109.593 115.52L109.68 115.39L109.759 115.256L104.595 112.201ZM101.431 116.965L106.192 120.616L106.316 120.454L106.429 120.284L101.431 116.965ZM98.6376 120.608L103.083 124.638L103.249 124.455L103.399 124.259L98.6376 120.608ZM95.9707 123.549L100.013 127.983L100.224 127.791L100.416 127.579L95.9707 123.549ZM93.3353 125.952L96.8811 130.792L97.1402 130.602L97.3775 130.386L93.3353 125.952ZM90.6796 127.897L93.6374 133.118L93.9425 132.945L94.2254 132.738L90.6796 127.897ZM87.9747 129.43L90.2572 134.979L90.6052 134.836L90.9326 134.65L87.9747 129.43ZM85.1975 130.572L86.7504 136.368L87.1231 136.268L87.4799 136.121L85.1975 130.572ZM82.332 131.34L83.1299 137.287L83.5123 137.236L83.8849 137.136L82.332 131.34ZM79.3557 131.739L79.4043 137.739L79.7806 137.736L80.1535 137.686L79.3557 131.739ZM76.2469 131.765L75.5963 137.729L75.9449 137.767L76.2955 137.764L76.2469 131.765ZM72.9743 131.408L71.6906 137.269L72.0043 137.337L72.3236 137.372L72.9743 131.408ZM69.4906 130.645L67.6562 136.357L67.928 136.445L68.2069 136.506L69.4906 130.645ZM65.7103 129.431L63.4123 134.973L63.6405 135.068L63.8758 135.143L65.7103 129.431ZM61.4695 127.672L58.8012 133.046L58.9835 133.137L59.1715 133.215L61.4695 127.672ZM56.8658 125.386L59.5341 120.012L55.695 118.106L52.6471 121.12L56.8658 125.386ZM55.9355 126.306L59.8165 130.882L59.9913 130.734L60.1542 130.573L55.9355 126.306ZM54.2561 127.731L57.7147 132.634L57.9332 132.479L58.1372 132.306L54.2561 127.731ZM52.6448 128.867L55.5923 134.093L55.856 133.945L56.1033 133.77L52.6448 128.867ZM51.068 129.757L53.4166 135.278L53.7243 135.147L54.0155 134.983L51.068 129.757ZM49.506 130.421L51.1719 136.185L51.5206 136.084L51.8546 135.942L49.506 130.421ZM47.9454 130.872L48.8653 136.801L49.2436 136.743L49.6113 136.636L47.9454 130.872ZM46.3736 131.116L46.5212 137.114L46.9096 137.105L47.2935 137.045L46.3736 131.116ZM44.7813 131.155L44.1629 137.123L44.545 137.163L44.9289 137.153L44.7813 131.155ZM43.1556 130.987L41.8102 136.834L42.17 136.917L42.5372 136.955L43.1556 130.987ZM41.4833 130.602L39.4889 136.261L39.8081 136.373L40.1379 136.449L41.4833 130.602ZM39.7386 129.987L37.1794 135.414L37.4559 135.544L37.7443 135.646L39.7386 129.987ZM37.8835 129.112L34.8536 134.291L35.0834 134.426L35.3243 134.539L37.8835 129.112ZM35.842 127.918L32.4428 132.862L32.6231 132.986L32.812 133.097L35.842 127.918ZM33.4163 126.25L29.7433 130.994L29.8774 131.098L30.0171 131.194L33.4163 126.25ZM28.8792 122.738L25.097 127.395L25.1511 127.439L25.2062 127.482L28.8792 122.738ZM24.4249 119.121L20.387 123.558L20.5118 123.672L20.6427 123.778L24.4249 119.121ZM22.2478 117.14L17.8952 121.269L18.0469 121.429L18.2098 121.578L22.2478 117.14ZM20.6199 115.424L15.9215 119.156L16.0856 119.362L16.2673 119.554L20.6199 115.424ZM19.3447 113.818L14.2898 117.051L14.4552 117.309L14.6462 117.55L19.3447 113.818ZM18.3479 112.26L12.9603 114.9L13.1099 115.205L13.293 115.492L18.3479 112.26ZM17.5925 110.718L11.9235 112.684L12.0436 113.03L12.2049 113.359L17.5925 110.718ZM17.0574 109.175L11.1835 110.399L11.2621 110.776L11.3884 111.14L17.0574 109.175ZM16.7323 107.615L10.7497 108.071L10.7792 108.458L10.8585 108.838L16.7323 107.615ZM16.6113 106.029L10.6192 105.721L10.5996 106.104L10.6287 106.486L16.6113 106.029ZM16.6947 104.406L10.7836 103.377L10.7213 103.735L10.7026 104.098L16.6947 104.406ZM16.9859 102.734L11.2251 101.057L11.1319 101.377L11.0748 101.705L16.9859 102.734ZM17.4918 100.996L11.9297 98.7461L11.8159 99.0275L11.731 99.3189L17.4918 100.996ZM18.2311 99.169L12.89 96.4354L12.7688 96.6722L12.669 96.9187L18.2311 99.169ZM19.2348 97.2079L14.116 94.0776L13.9973 94.2717L13.8936 94.4743L19.2348 97.2079ZM19.5375 96.7128L24.6562 99.843L26.244 97.2467L25.087 94.4318L19.5375 96.7128ZM18.6606 94.5794L12.865 96.1323L12.9647 96.5042L13.1111 96.8604L18.6606 94.5794ZM17.8928 91.7139L11.946 92.5117L11.9973 92.8941L12.0972 93.2668L17.8928 91.7139ZM17.4935 88.7376L11.4936 88.7861L11.4967 89.1624L11.5467 89.5354L17.4935 88.7376ZM17.4683 85.6288L11.5037 84.9781L11.4656 85.3267L11.4685 85.6774L17.4683 85.6288ZM17.8253 82.3562L11.9642 81.0725L11.8955 81.3862L11.8607 81.7055L17.8253 82.3562ZM18.5883 78.8725L12.8756 77.038L12.7883 77.3099L12.7272 77.5888L18.5883 78.8725ZM19.8022 75.0921L14.2598 72.7941L14.1651 73.0224L14.0896 73.2577L19.8022 75.0921ZM21.5605 70.8514L16.1866 68.1829L16.096 68.3653L16.018 68.5534L21.5605 70.8514ZM24.1042 65.7289L18.8762 62.7846L18.7996 62.9206L18.7302 63.0604L24.1042 65.7289ZM29.5767 56.012L24.3805 53.012L24.3645 53.0397L24.3488 53.0676L29.5767 56.012ZM30.499 54.4144L25.3352 51.359L25.3189 51.3866L25.3029 51.4144L30.499 54.4144ZM36.1779 44.8166L41.1759 48.1362L44.3407 43.3713L39.3428 40.0516L34.3448 36.732L31.1799 41.4969L36.1779 44.8166ZM39.3428 40.0516L44.104 43.7027L46.897 40.0604L42.1357 36.4094L37.3745 32.7583L34.5815 36.4006L39.3428 40.0516ZM42.1357 36.4094L46.5808 40.4395L49.2477 37.498L44.8026 33.4679L40.3576 29.4378L37.6907 32.3793L42.1357 36.4094ZM44.8026 33.4679L48.8453 37.9015L51.4812 35.4981L47.4386 31.0644L43.396 26.6308L40.76 29.0342L44.8026 33.4679ZM47.4386 31.0644L50.9838 35.905L53.639 33.9604L50.0938 29.1198L46.5486 24.2792L43.8934 26.2238L47.4386 31.0644ZM50.0938 29.1198L53.0516 34.3401L55.7565 32.8075L52.7986 27.5872L49.8408 22.3669L47.1359 23.8995L50.0938 29.1198ZM52.7986 27.5872L55.0821 33.1357L57.8599 31.9925L55.5764 26.444L53.2928 20.8955L50.5151 22.0387L52.7986 27.5872ZM55.5764 26.444L57.1293 32.2396L59.9947 31.4718L58.4418 25.6762L56.8889 19.8807L54.0234 20.6484L55.5764 26.444ZM58.4418 25.6762L59.2369 31.6233L62.2136 31.2253L61.4185 25.2782L60.6234 19.3311L57.6467 19.7291L58.4418 25.6762ZM61.4185 25.2782L61.4696 31.278L64.578 31.2515L64.5269 25.2517L64.4758 19.2519L61.3674 19.2784L61.4185 25.2782ZM64.5269 25.2517L63.8746 31.2162L67.1468 31.574L67.7991 25.6096L68.4513 19.6451L65.1792 19.2873L64.5269 25.2517ZM67.7991 25.6096L66.5154 31.4706L69.999 32.2336L71.2827 26.3726L72.5664 20.5115L69.0828 19.7485L67.7991 25.6096ZM71.2827 26.3726L69.448 32.0852L73.2292 33.2996L75.0639 27.587L76.8987 21.8744L73.1175 20.66L71.2827 26.3726ZM75.0639 27.587L72.7653 33.1293L75.7403 34.3631L78.0389 28.8209L80.3375 23.2786L77.3625 22.0448L75.0639 27.587ZM78.0389 28.8209L82.4985 32.8348L84.6057 30.4937L80.1461 26.4798L75.6865 22.4658L73.5793 24.8069L78.0389 28.8209ZM80.1461 26.4798L84.3903 30.7209L87.3093 27.7998L83.0651 23.5586L78.8209 19.3175L75.9019 22.2386L80.1461 26.4798ZM83.0651 23.5586L87.0111 28.0785L89.5076 25.899L85.5616 21.3791L81.6156 16.8593L79.1191 19.0388L83.0651 23.5586ZM85.5616 21.3791L89.1231 26.2078L91.4308 24.5056L87.8693 19.677L84.3078 14.8484L82.0001 16.5505L85.5616 21.3791ZM87.8693 19.677L90.9521 24.8244L93.1619 23.501L90.079 18.3536L86.9961 13.2062L84.7864 14.5296L87.8693 19.677ZM90.079 18.3536L92.5953 23.8004L94.7544 22.803L92.2381 17.3561L89.7217 11.9093L87.5627 12.9068L90.079 18.3536ZM92.2381 17.3561L94.0988 23.0603L96.2341 22.3638L94.3734 16.6596L92.5127 10.9554L90.3774 11.652L92.2381 17.3561ZM94.3734 16.6596L95.5095 22.5511L97.6412 22.14L96.5052 16.2485L95.3691 10.3571L93.2374 10.7681L94.3734 16.6596ZM96.5052 16.2485L96.8747 22.2371L99.0168 22.105L98.6473 16.1163L98.2778 10.1277L96.1356 10.2599L96.5052 16.2485ZM98.6473 16.1163L98.2457 22.1029L100.414 22.2483L100.815 16.2618L101.217 10.2752L99.0489 10.1298L98.6473 16.1163ZM100.815 16.2618L99.6721 22.1519L101.882 22.5807L103.025 16.6906L104.168 10.8005L101.958 10.3717L100.815 16.2618ZM103.025 16.6906L101.203 22.4075L103.474 23.1309L105.295 17.414L107.117 11.6972L104.846 10.9737L103.025 16.6906ZM105.295 17.414L102.875 22.9041L105.239 23.9464L107.659 18.4563L110.08 12.9663L107.716 11.924L105.295 17.414ZM107.659 18.4563L104.732 23.6938L107.243 25.0971L110.17 19.8597L113.097 14.6222L110.587 13.2189L107.659 18.4563ZM110.17 19.8597L106.821 24.8383L109.581 26.6941L112.929 21.7154L116.278 16.7367L113.519 14.881L110.17 19.8597ZM112.929 21.7154L109.254 26.4579L112.529 28.9961L116.204 24.2536L119.88 19.511L116.605 16.9729L112.929 21.7154ZM116.204 24.2536L112.287 28.7981L118.406 34.0735L122.324 29.529L126.242 24.9845L120.122 19.7091L116.204 24.2536ZM122.324 29.529L118.311 33.9894L124.317 39.3932L128.33 34.9328L132.343 30.4724L126.337 25.0686L122.324 29.529ZM128.33 34.9328L124.091 39.1789L127.024 42.1069L131.263 37.8608L135.502 33.6147L132.569 30.6866L128.33 34.9328ZM131.263 37.8608L126.746 41.8107L128.936 44.3138L133.452 40.364L137.969 36.4141L135.779 33.9109L131.263 37.8608ZM133.452 40.364L128.627 43.9299L130.336 46.2428L135.161 42.6769L139.987 39.111L138.277 36.798L133.452 40.364ZM135.161 42.6769L130.022 45.7726L131.354 47.9855L136.494 44.8898L141.634 41.7941L140.301 39.5812L135.161 42.6769ZM136.494 44.8898L131.052 47.417L132.056 49.5786L137.498 47.0515L142.94 44.5243L141.936 42.3627L136.494 44.8898ZM137.498 47.0515L131.8 48.9309L132.505 51.0676L138.203 49.1882L143.901 47.3087L143.196 45.172L137.498 47.0515ZM138.203 49.1882L132.315 50.3434L132.734 52.4761L138.621 51.3208L144.509 50.1656L144.091 48.0329L138.203 49.1882ZM138.621 51.3208L132.634 51.7115L132.774 53.8523L138.761 53.4617L144.748 53.071L144.609 50.9301L138.621 51.3208ZM138.761 53.4617L132.773 53.0805L132.635 55.2471L138.623 55.6283L144.611 56.0095L144.749 53.8428L138.761 53.4617ZM138.623 55.6283L132.73 54.5023L132.308 56.7092L138.201 57.8352L144.095 58.9612L144.516 56.7543L138.623 55.6283ZM138.201 57.8352L132.48 56.0287L131.764 58.2959L137.486 60.1023L143.207 61.9088L143.923 59.6416L138.201 57.8352ZM137.486 60.1023L131.99 57.6938L130.956 60.0534L136.451 62.4619L141.947 64.8704L142.981 62.5108L137.486 60.1023ZM136.451 62.4619L131.211 59.5401L129.815 62.0446L135.055 64.9664L140.296 67.8883L141.692 65.3837L136.451 62.4619ZM135.055 64.9664L130.072 61.6241L128.226 64.3764L133.209 67.7188L138.192 71.0611L140.038 68.3088L135.055 64.9664ZM133.209 67.7188L128.465 64.0446L125.937 67.3094L130.68 70.9835L135.424 74.6577L137.952 71.3929L133.209 67.7188ZM130.68 70.9835L126.135 67.0664L120.879 73.1653L125.423 77.0825L129.968 80.9997L135.225 74.9007L130.68 70.9835ZM125.423 77.0825L120.921 73.1172L120.04 74.1174L124.543 78.0827L129.046 82.048L129.926 81.0478L125.423 77.0825ZM124.543 78.0827L120.083 74.0685L116.414 78.1451L120.873 82.1593L125.332 86.1735L129.002 82.0969L124.543 78.0827ZM120.873 82.1593L115.33 79.8626L113.67 83.8682L119.213 86.1649L124.756 88.4617L126.416 84.4561L120.873 82.1593ZM119.213 86.1649L113.839 83.4964L111.295 88.6197L116.669 91.2883L122.043 93.9568L124.587 88.8335L119.213 86.1649ZM116.669 91.2883L111.441 88.3439L105.969 98.0609L111.197 101.005L116.425 103.95L121.897 94.2326L116.669 91.2883ZM111.197 101.005L106.001 98.0052L105.078 99.6028L110.274 102.603L115.47 105.603L116.393 104.005L111.197 101.005ZM110.274 102.603L105.111 99.5474L99.4317 109.145L104.595 112.201L109.759 115.256L115.438 105.658L110.274 102.603ZM104.595 112.201L99.5975 108.881L96.4331 113.645L101.431 116.965L106.429 120.284L109.593 115.52L104.595 112.201ZM101.431 116.965L96.6697 113.314L93.8762 116.957L98.6376 120.608L103.399 124.259L106.192 120.616L101.431 116.965ZM98.6376 120.608L94.1926 116.578L91.5257 119.519L95.9707 123.549L100.416 127.579L103.083 124.638L98.6376 120.608ZM95.9707 123.549L91.9285 119.115L89.293 121.518L93.3353 125.952L97.3775 130.386L100.013 127.983L95.9707 123.549ZM93.3353 125.952L89.7895 121.112L87.1338 123.057L90.6796 127.897L94.2254 132.738L96.8811 130.792L93.3353 125.952ZM90.6796 127.897L87.7217 122.677L85.0169 124.21L87.9747 129.43L90.9326 134.65L93.6374 133.118L90.6796 127.897ZM87.9747 129.43L85.6923 123.881L82.9151 125.023L85.1975 130.572L87.4799 136.121L90.2572 134.979L87.9747 129.43ZM85.1975 130.572L83.6446 124.777L80.7791 125.545L82.332 131.34L83.8849 137.136L86.7504 136.368L85.1975 130.572ZM82.332 131.34L81.5342 125.393L78.5579 125.793L79.3557 131.739L80.1535 137.686L83.1299 137.287L82.332 131.34ZM79.3557 131.739L79.3071 125.74L76.1984 125.765L76.2469 131.765L76.2955 137.764L79.4043 137.739L79.3557 131.739ZM76.2469 131.765L76.8976 125.8L73.6249 125.443L72.9743 131.408L72.3236 137.372L75.5963 137.729L76.2469 131.765ZM72.9743 131.408L74.258 125.546L70.7743 124.783L69.4906 130.645L68.2069 136.506L71.6906 137.269L72.9743 131.408ZM69.4906 130.645L71.3251 124.932L67.5447 123.718L65.7103 129.431L63.8758 135.143L67.6562 136.357L69.4906 130.645ZM65.7103 129.431L68.0083 123.888L63.7675 122.13L61.4695 127.672L59.1715 133.215L63.4123 134.973L65.7103 129.431ZM61.4695 127.672L64.1378 122.298L59.5341 120.012L56.8658 125.386L54.1975 130.76L58.8012 133.046L61.4695 127.672ZM56.8658 125.386L52.6471 121.12L51.7168 122.04L55.9355 126.306L60.1542 130.573L61.0844 129.653L56.8658 125.386ZM55.9355 126.306L52.0545 121.731L50.3751 123.155L54.2561 127.731L58.1372 132.306L59.8165 130.882L55.9355 126.306ZM54.2561 127.731L50.7976 122.828L49.1863 123.964L52.6448 128.867L56.1033 133.77L57.7147 132.634L54.2561 127.731ZM52.6448 128.867L49.6973 123.641L48.1204 124.531L51.068 129.757L54.0155 134.983L55.5923 134.093L52.6448 128.867ZM51.068 129.757L48.7193 124.235L47.1573 124.9L49.506 130.421L51.8546 135.942L53.4166 135.278L51.068 129.757ZM49.506 130.421L47.84 124.657L46.2794 125.108L47.9454 130.872L49.6113 136.636L51.1719 136.185L49.506 130.421ZM47.9454 130.872L47.0255 124.943L45.4537 125.187L46.3736 131.116L47.2935 137.045L48.8653 136.801L47.9454 130.872ZM46.3736 131.116L46.226 125.118L44.6337 125.157L44.7813 131.155L44.9289 137.153L46.5212 137.114L46.3736 131.116ZM44.7813 131.155L45.3997 125.187L43.774 125.019L43.1556 130.987L42.5372 136.955L44.1629 137.123L44.7813 131.155ZM43.1556 130.987L44.5009 125.14L42.8286 124.755L41.4833 130.602L40.1379 136.449L41.8102 136.834L43.1556 130.987ZM41.4833 130.602L43.4776 124.943L41.7329 124.328L39.7386 129.987L37.7443 135.646L39.4889 136.261L41.4833 130.602ZM39.7386 129.987L42.2978 124.56L40.4427 123.685L37.8835 129.112L35.3243 134.539L37.1794 135.414L39.7386 129.987ZM37.8835 129.112L40.9135 123.934L38.872 122.739L35.842 127.918L32.812 133.097L34.8536 134.291L37.8835 129.112ZM35.842 127.918L39.2413 122.974L36.8156 121.306L33.4163 126.25L30.0171 131.194L32.4428 132.862L35.842 127.918ZM33.4163 126.25L37.0894 121.506L32.5523 117.993L28.8792 122.738L25.2062 127.482L29.7433 130.994L33.4163 126.25ZM28.8792 122.738L32.6615 118.08L28.2072 114.463L24.4249 119.121L20.6427 123.778L25.097 127.395L28.8792 122.738ZM24.4249 119.121L28.4629 114.683L26.2857 112.702L22.2478 117.14L18.2098 121.578L20.387 123.558L24.4249 119.121ZM22.2478 117.14L26.6003 113.01L24.9725 111.294L20.6199 115.424L16.2673 119.554L17.8952 121.269L22.2478 117.14ZM20.6199 115.424L25.3184 111.692L24.0431 110.087L19.3447 113.818L14.6462 117.55L15.9215 119.156L20.6199 115.424ZM19.3447 113.818L24.3996 110.586L23.4029 109.027L18.3479 112.26L13.293 115.492L14.2898 117.051L19.3447 113.818ZM18.3479 112.26L23.7356 109.619L22.9802 108.078L17.5925 110.718L12.2049 113.359L12.9603 114.9L18.3479 112.26ZM17.5925 110.718L23.2615 108.753L22.7264 107.209L17.0574 109.175L11.3884 111.14L11.9235 112.684L17.5925 110.718ZM17.0574 109.175L22.9312 107.951L22.6061 106.391L16.7323 107.615L10.8585 108.838L11.1835 110.399L17.0574 109.175ZM16.7323 107.615L22.7149 107.158L22.5939 105.573L16.6113 106.029L10.6287 106.486L10.7497 108.071L16.7323 107.615ZM16.6113 106.029L22.6034 106.337L22.6868 104.714L16.6947 104.406L10.7026 104.098L10.6192 105.721L16.6113 106.029ZM16.6947 104.406L22.6058 105.435L22.8969 103.763L16.9859 102.734L11.0748 101.705L10.7836 103.377L16.6947 104.406ZM16.9859 102.734L22.7466 104.411L23.2526 102.674L17.4918 100.996L11.731 99.3189L11.2251 101.057L16.9859 102.734ZM17.4918 100.996L23.0539 103.246L23.7931 101.419L18.2311 99.169L12.669 96.9187L11.9297 98.7461L17.4918 100.996ZM18.2311 99.169L23.5722 101.903L24.5759 99.9414L19.2348 97.2079L13.8936 94.4743L12.89 96.4354L18.2311 99.169ZM19.2348 97.2079L24.3535 100.338L24.6562 99.843L19.5375 96.7128L14.4187 93.5826L14.116 94.0776L19.2348 97.2079ZM19.5375 96.7128L25.087 94.4318L24.2101 92.2983L18.6606 94.5794L13.1111 96.8604L13.988 98.9938L19.5375 96.7128ZM18.6606 94.5794L24.4561 93.0264L23.6883 90.161L17.8928 91.7139L12.0972 93.2668L12.865 96.1323L18.6606 94.5794ZM17.8928 91.7139L23.8395 90.9161L23.4402 87.9397L17.4935 88.7376L11.5467 89.5354L11.946 92.5117L17.8928 91.7139ZM17.4935 88.7376L23.4933 88.689L23.4681 85.5802L17.4683 85.6288L11.4685 85.6774L11.4936 88.7861L17.4935 88.7376ZM17.4683 85.6288L23.4329 86.2795L23.7899 83.0068L17.8253 82.3562L11.8607 81.7055L11.5037 84.9781L17.4683 85.6288ZM17.8253 82.3562L23.6864 83.6399L24.4494 80.1562L18.5883 78.8725L12.7272 77.5888L11.9642 81.0725L17.8253 82.3562ZM18.5883 78.8725L24.301 80.707L25.5149 76.9266L19.8022 75.0921L14.0896 73.2577L12.8756 77.038L18.5883 78.8725ZM19.8022 75.0921L25.3447 77.3901L27.103 73.1494L21.5605 70.8514L16.018 68.5534L14.2598 72.7941L19.8022 75.0921ZM21.5605 70.8514L26.9345 73.5199L29.4781 68.3974L24.1042 65.7289L18.7302 63.0604L16.1866 68.1829L21.5605 70.8514ZM24.1042 65.7289L29.3321 68.6732L34.8046 58.9563L29.5767 56.012L24.3488 53.0676L18.8762 62.7846L24.1042 65.7289ZM29.5767 56.012L34.7728 59.012L35.6952 57.4144L30.499 54.4144L25.3029 51.4144L24.3805 53.012L29.5767 56.012ZM30.499 54.4144L35.6628 57.4697L41.3417 47.8719L36.1779 44.8166L31.0141 41.7612L25.3352 51.359L30.499 54.4144Z" fill="#263523" mask="url(#path-3-outside-1_1265_48)"/>
</g>
<defs>
<clipPath id="clip0_1265_48">
<rect width="300" height="300" fill="white"/>
</clipPath>
</defs>
</svg>
