<svg width="300" height="300" viewBox="0 0 300 300" fill="none" xmlns="http://www.w3.org/2000/svg">
<g clip-path="url(#clip0_1168_72277)">
<mask id="path-1-outside-1_1168_72277" maskUnits="userSpaceOnUse" x="8.93782" y="-23.3109" width="309.81" height="292.607" fill="black">
<rect fill="white" x="8.93782" y="-23.3109" width="309.81" height="292.607"/>
<path d="M129.376 36.3328L138.744 31.6827L146.499 28.4675L153.412 26.2464L159.784 24.8511L165.767 24.1988L171.452 24.2457L176.895 24.9743L182.136 26.3787L187.214 28.4693L192.161 31.2709L197.016 34.8274L201.837 39.2217L206.713 44.6019L211.822 51.2631L216.279 57.9727L219.294 56.8283L225.093 55.0658L230.219 53.96L234.898 53.4093L239.246 53.3662L243.331 53.8066L247.194 54.721L250.866 56.1072L254.372 57.9767L257.735 60.3483L260.979 63.2587L264.14 66.7686L267.273 70.9946L270.483 76.1585L274.041 82.8494L280.289 96.2387L286.253 109.757L288.946 116.839L290.72 122.656L291.836 127.797L292.397 132.487L292.452 136.845L292.023 140.938L291.121 144.808L289.747 148.483L287.891 151.993L285.533 155.358L282.638 158.601L279.143 161.761L274.936 164.89L269.792 168.095L263.126 171.643L249.782 177.871L247.565 178.878L234.091 184.819L227.032 187.5L221.233 189.262L216.107 190.369L211.428 190.918L207.08 190.962L202.996 190.522L202.67 190.445L196.808 193.914L193.886 195.601L176.117 205.61L166.749 210.26L158.994 213.475L152.08 215.695L145.709 217.091L139.726 217.744L134.04 217.697L128.598 216.968L125.452 216.125L124.388 216.748L120.717 218.502L117.282 219.753L114.003 220.56L110.834 220.954L107.745 220.948L104.714 220.55L101.719 219.756L98.7389 218.553L95.7495 216.922L92.712 214.82L89.5634 212.171L86.183 208.821L82.2593 204.375L75.0644 195.323L68.0622 186.121L64.7183 181.224L62.3047 177.123L60.5112 173.419L59.2219 169.958L58.3759 166.658L57.9451 163.474L57.9126 160.375L58.272 157.34L59.0281 154.345L60.1897 151.37L61.7793 148.391L63.8372 145.369L65.7283 143.098L62.8396 137.278L59.6252 129.523L57.4042 122.61L56.0089 116.238L55.3558 110.255L55.4035 104.57L56.1321 99.1272L57.5365 93.8859L59.6262 88.8082L62.4287 83.8614L65.9852 79.0059L70.3795 74.1854L75.7597 69.3088L82.4214 64.2008L91.1328 58.4124L108.685 48.0283L111.607 46.3413L129.376 36.3328Z"/>
</mask>
<path d="M129.376 36.3328L138.744 31.6827L146.499 28.4675L153.412 26.2464L159.784 24.8511L165.767 24.1988L171.452 24.2457L176.895 24.9743L182.136 26.3787L187.214 28.4693L192.161 31.2709L197.016 34.8274L201.837 39.2217L206.713 44.6019L211.822 51.2631L216.279 57.9727L219.294 56.8283L225.093 55.0658L230.219 53.96L234.898 53.4093L239.246 53.3662L243.331 53.8066L247.194 54.721L250.866 56.1072L254.372 57.9767L257.735 60.3483L260.979 63.2587L264.14 66.7686L267.273 70.9946L270.483 76.1585L274.041 82.8494L280.289 96.2387L286.253 109.757L288.946 116.839L290.72 122.656L291.836 127.797L292.397 132.487L292.452 136.845L292.023 140.938L291.121 144.808L289.747 148.483L287.891 151.993L285.533 155.358L282.638 158.601L279.143 161.761L274.936 164.89L269.792 168.095L263.126 171.643L249.782 177.871L247.565 178.878L234.091 184.819L227.032 187.5L221.233 189.262L216.107 190.369L211.428 190.918L207.08 190.962L202.996 190.522L202.67 190.445L196.808 193.914L193.886 195.601L176.117 205.61L166.749 210.26L158.994 213.475L152.08 215.695L145.709 217.091L139.726 217.744L134.04 217.697L128.598 216.968L125.452 216.125L124.388 216.748L120.717 218.502L117.282 219.753L114.003 220.56L110.834 220.954L107.745 220.948L104.714 220.55L101.719 219.756L98.7389 218.553L95.7495 216.922L92.712 214.82L89.5634 212.171L86.183 208.821L82.2593 204.375L75.0644 195.323L68.0622 186.121L64.7183 181.224L62.3047 177.123L60.5112 173.419L59.2219 169.958L58.3759 166.658L57.9451 163.474L57.9126 160.375L58.272 157.34L59.0281 154.345L60.1897 151.37L61.7793 148.391L63.8372 145.369L65.7283 143.098L62.8396 137.278L59.6252 129.523L57.4042 122.61L56.0089 116.238L55.3558 110.255L55.4035 104.57L56.1321 99.1272L57.5365 93.8859L59.6262 88.8082L62.4287 83.8614L65.9852 79.0059L70.3795 74.1854L75.7597 69.3088L82.4214 64.2008L91.1328 58.4124L108.685 48.0283L111.607 46.3413L129.376 36.3328Z" fill="#263523"/>
<path d="M129.376 36.3328L126.708 30.9584L126.568 31.0281L126.431 31.105L129.376 36.3328ZM138.744 31.6827L136.446 26.1402L136.259 26.218L136.077 26.3083L138.744 31.6827ZM146.499 28.4675L144.664 22.755L144.429 22.8305L144.201 22.925L146.499 28.4675ZM153.412 26.2464L152.129 20.3853L151.849 20.4465L151.577 20.534L153.412 26.2464ZM159.784 24.8511L159.134 18.8864L158.814 18.9213L158.501 18.99L159.784 24.8511ZM165.767 24.1988L165.817 18.199L165.466 18.1961L165.117 18.2342L165.767 24.1988ZM171.452 24.2457L172.248 18.2988L171.876 18.249L171.501 18.2459L171.452 24.2457ZM176.895 24.9743L178.448 19.1787L178.074 19.0786L177.691 19.0273L176.895 24.9743ZM182.136 26.3787L184.42 20.8305L184.063 20.6832L183.689 20.5831L182.136 26.3787ZM187.214 28.4693L190.171 23.2486L189.845 23.0638L189.499 22.9211L187.214 28.4693ZM192.161 31.2709L195.706 26.4305L195.423 26.2231L195.118 26.0502L192.161 31.2709ZM197.016 34.8274L201.058 30.3933L200.821 30.1769L200.562 29.987L197.016 34.8274ZM201.837 39.2217L206.282 35.1922L206.09 34.9803L205.879 34.7876L201.837 39.2217ZM206.713 44.6019L211.474 40.9505L211.324 40.7549L211.159 40.5724L206.713 44.6019ZM211.822 51.2631L216.82 47.9434L216.707 47.7735L216.583 47.6117L211.822 51.2631ZM216.279 57.9727L211.281 61.2925L213.931 65.2815L218.408 63.5823L216.279 57.9727ZM219.294 56.8283L217.55 51.0876L217.355 51.1467L217.165 51.2187L219.294 56.8283ZM225.093 55.0658L223.828 49.2007L223.586 49.253L223.348 49.3251L225.093 55.0658ZM230.219 53.96L229.518 48.0012L229.234 48.0346L228.954 48.0949L230.219 53.96ZM234.898 53.4093L234.839 47.4096L234.516 47.4128L234.196 47.4504L234.898 53.4093ZM239.246 53.3662L239.889 47.4007L239.539 47.363L239.187 47.3665L239.246 53.3662ZM243.331 53.8066L244.713 47.9679L244.347 47.8814L243.974 47.8412L243.331 53.8066ZM247.194 54.721L249.314 49.1078L248.952 48.9713L248.576 48.8823L247.194 54.721ZM250.866 56.1072L253.689 50.8128L253.347 50.6307L252.985 50.494L250.866 56.1072ZM254.372 57.9767L257.83 53.0734L257.524 52.8581L257.195 52.6824L254.372 57.9767ZM257.735 60.3483L261.741 55.882L261.48 55.6475L261.193 55.445L257.735 60.3483ZM260.979 63.2587L265.438 59.2435L265.224 59.0059L264.985 58.7924L260.979 63.2587ZM264.14 66.7686L268.96 63.195L268.789 62.9656L268.598 62.7534L264.14 66.7686ZM267.273 70.9946L272.369 67.8268L272.239 67.6183L272.093 67.4211L267.273 70.9946ZM270.483 76.1585L275.781 73.3418L275.686 73.1628L275.579 72.9907L270.483 76.1585ZM274.041 82.8494L279.478 80.312L279.412 80.1706L279.339 80.0327L274.041 82.8494ZM280.289 96.2387L285.779 93.8171L285.753 93.7589L285.727 93.7013L280.289 96.2387ZM286.253 109.757L291.861 107.624L291.805 107.478L291.742 107.335L286.253 109.757ZM288.946 116.839L294.685 115.089L294.626 114.896L294.554 114.707L288.946 116.839ZM290.72 122.656L296.583 121.382L296.531 121.141L296.459 120.905L290.72 122.656ZM291.836 127.797L297.794 127.085L297.76 126.802L297.7 126.523L291.836 127.797ZM292.397 132.487L298.396 132.411L298.392 132.092L298.354 131.774L292.397 132.487ZM292.452 136.845L298.419 137.47L298.455 137.121L298.451 136.77L292.452 136.845ZM292.023 140.938L297.866 142.3L297.951 141.935L297.99 141.563L292.023 140.938ZM291.121 144.808L296.741 146.908L296.876 146.546L296.964 146.169L291.121 144.808ZM289.747 148.483L295.051 151.288L295.232 150.946L295.367 150.584L289.747 148.483ZM287.891 151.993L292.805 155.436L293.02 155.129L293.195 154.798L287.891 151.993ZM285.533 155.358L290.009 159.353L290.244 159.09L290.447 158.801L285.533 155.358ZM282.638 158.601L286.662 163.052L286.9 162.836L287.114 162.597L282.638 158.601ZM279.143 161.761L282.724 166.575L282.954 166.404L283.167 166.211L279.143 161.761ZM274.936 164.89L278.109 169.983L278.319 169.852L278.517 169.705L274.936 164.89ZM269.792 168.095L272.61 173.392L272.791 173.296L272.964 173.188L269.792 168.095ZM263.126 171.643L265.663 177.079L265.806 177.013L265.944 176.939L263.126 171.643ZM249.782 177.871L252.262 183.335L252.291 183.322L252.32 183.308L249.782 177.871ZM247.565 178.878L249.985 184.368L250.015 184.355L250.044 184.342L247.565 178.878ZM234.091 184.819L236.222 190.427L236.369 190.372L236.512 190.309L234.091 184.819ZM227.032 187.5L228.776 193.241L228.972 193.182L229.163 193.109L227.032 187.5ZM221.233 189.262L222.499 195.127L222.74 195.075L222.977 195.003L221.233 189.262ZM216.107 190.369L216.808 196.328L217.093 196.294L217.373 196.233L216.107 190.369ZM211.428 190.918L211.488 196.918L211.809 196.915L212.128 196.877L211.428 190.918ZM207.08 190.962L206.438 196.927L206.788 196.965L207.14 196.961L207.08 190.962ZM202.996 190.522L201.611 196.36L201.978 196.447L202.354 196.488L202.996 190.522ZM202.67 190.445L204.055 184.607L201.699 184.048L199.615 185.281L202.67 190.445ZM196.808 193.914L199.808 199.11L199.836 199.094L199.864 199.078L196.808 193.914ZM193.886 195.601L196.831 200.829L196.858 200.813L196.886 200.797L193.886 195.601ZM176.117 205.61L178.785 210.984L178.925 210.914L179.062 210.837L176.117 205.61ZM166.749 210.26L169.047 215.802L169.234 215.724L169.416 215.634L166.749 210.26ZM158.994 213.475L160.828 219.188L161.064 219.112L161.292 219.017L158.994 213.475ZM152.08 215.695L153.364 221.556L153.643 221.495L153.915 221.408L152.08 215.695ZM145.709 217.091L146.359 223.056L146.679 223.021L146.993 222.952L145.709 217.091ZM139.726 217.744L139.677 223.743L140.027 223.746L140.376 223.708L139.726 217.744ZM134.04 217.697L133.244 223.644L133.616 223.694L133.991 223.697L134.04 217.697ZM128.598 216.968L127.045 222.764L127.418 222.864L127.801 222.915L128.598 216.968ZM125.452 216.125L127.005 210.33L124.586 209.681L122.424 210.946L125.452 216.125ZM124.388 216.748L126.974 222.162L127.2 222.054L127.416 221.927L124.388 216.748ZM120.717 218.502L122.771 224.139L123.043 224.04L123.304 223.915L120.717 218.502ZM117.282 219.753L118.716 225.579L119.031 225.502L119.336 225.391L117.282 219.753ZM114.003 220.56L114.744 226.514L115.094 226.471L115.437 226.386L114.003 220.56ZM110.834 220.954L110.822 226.954L111.2 226.955L111.575 226.908L110.834 220.954ZM107.745 220.948L106.964 226.897L107.347 226.947L107.733 226.948L107.745 220.948ZM104.714 220.55L103.177 226.35L103.55 226.448L103.933 226.499L104.714 220.55ZM101.719 219.756L99.4737 225.32L99.8202 225.46L100.181 225.555L101.719 219.756ZM98.7389 218.553L95.8653 223.82L96.1709 223.987L96.4938 224.117L98.7389 218.553ZM95.7495 216.922L92.3342 221.856L92.5961 222.037L92.8758 222.189L95.7495 216.922ZM92.712 214.82L88.8494 219.411L89.0651 219.592L89.2968 219.753L92.712 214.82ZM89.5634 212.171L85.3405 216.433L85.514 216.605L85.7009 216.762L89.5634 212.171ZM86.183 208.821L81.6841 212.791L81.8172 212.942L81.96 213.084L86.183 208.821ZM82.2593 204.375L77.5623 208.109L77.6584 208.229L77.7605 208.345L82.2593 204.375ZM75.0644 195.323L70.2895 198.957L70.328 199.007L70.3674 199.057L75.0644 195.323ZM68.0622 186.121L63.1071 189.504L63.194 189.631L63.2873 189.754L68.0622 186.121ZM64.7183 181.224L59.5475 184.267L59.6497 184.441L59.7632 184.607L64.7183 181.224ZM62.3047 177.123L56.9044 179.738L57.0105 179.957L57.134 180.167L62.3047 177.123ZM60.5112 173.419L54.8886 175.513L54.9875 175.779L55.111 176.034L60.5112 173.419ZM59.2219 169.958L53.4099 171.448L53.4886 171.755L53.5992 172.052L59.2219 169.958ZM58.3759 166.658L52.4301 167.463L52.477 167.81L52.5639 168.149L58.3759 166.658ZM57.9451 163.474L51.9454 163.537L51.9493 163.91L51.9993 164.279L57.9451 163.474ZM57.9126 160.375L51.9542 159.67L51.9089 160.053L51.9129 160.438L57.9126 160.375ZM58.272 157.34L52.4545 155.871L52.3594 156.248L52.3137 156.634L58.272 157.34ZM59.0281 154.345L53.4392 152.162L53.3025 152.512L53.2106 152.876L59.0281 154.345ZM60.1897 151.37L54.8962 148.545L54.7295 148.858L54.6008 149.187L60.1897 151.37ZM61.7793 148.391L56.8202 145.014L56.6381 145.281L56.4858 145.566L61.7793 148.391ZM63.8372 145.369L59.2262 141.53L59.041 141.753L58.878 141.992L63.8372 145.369ZM65.7283 143.098L70.3393 146.937L72.841 143.932L71.1027 140.43L65.7283 143.098ZM62.8396 137.278L57.2969 139.576L57.3748 139.764L57.4653 139.946L62.8396 137.278ZM59.6252 129.523L53.9128 131.358L53.9881 131.593L54.0825 131.821L59.6252 129.523ZM57.4042 122.61L51.5431 123.893L51.6043 124.173L51.6917 124.445L57.4042 122.61ZM56.0089 116.238L50.0443 116.889L50.0791 117.208L50.1478 117.522L56.0089 116.238ZM55.3558 110.255L49.356 110.205L49.353 110.557L49.3912 110.906L55.3558 110.255ZM55.4035 104.57L49.4565 103.774L49.4068 104.146L49.4037 104.52L55.4035 104.57ZM56.1321 99.1272L50.3365 97.5743L50.2364 97.9479L50.1851 98.3312L56.1321 99.1272ZM57.5365 93.8859L51.988 91.6024L51.8409 91.9598L51.7409 92.333L57.5365 93.8859ZM59.6262 88.8082L54.4058 85.8507L54.2207 86.1775L54.0778 86.5247L59.6262 88.8082ZM62.4287 83.8614L57.5883 80.316L57.3811 80.5989L57.2082 80.9039L62.4287 83.8614ZM65.9852 79.0059L61.5511 74.9638L61.3346 75.2012L61.1448 75.4604L65.9852 79.0059ZM70.3795 74.1854L66.35 69.7398L66.1381 69.9319L65.9454 70.1433L70.3795 74.1854ZM75.7597 69.3088L72.1088 64.5474L71.913 64.6975L71.7301 64.8632L75.7597 69.3088ZM82.4214 64.2008L79.1008 59.2034L78.9317 59.3158L78.7705 59.4394L82.4214 64.2008ZM91.1328 58.4124L88.0777 53.2484L87.9428 53.3282L87.8122 53.415L91.1328 58.4124ZM108.685 48.0283L105.685 42.8322L105.657 42.8481L105.63 42.8644L108.685 48.0283ZM111.607 46.3413L108.662 41.1136L108.634 41.1292L108.607 41.1452L111.607 46.3413ZM129.376 36.3328L132.043 41.7072L141.412 37.0571L138.744 31.6827L136.077 26.3083L126.708 30.9584L129.376 36.3328ZM138.744 31.6827L141.042 37.2252L148.797 34.0099L146.499 28.4675L144.201 22.925L136.446 26.1402L138.744 31.6827ZM146.499 28.4675L148.334 34.1799L155.247 31.9589L153.412 26.2464L151.577 20.534L144.664 22.755L146.499 28.4675ZM153.412 26.2464L154.696 32.1075L161.068 30.7122L159.784 24.8511L158.501 18.99L152.129 20.3853L153.412 26.2464ZM159.784 24.8511L160.434 30.8158L166.418 30.1635L165.767 24.1988L165.117 18.2342L159.134 18.8864L159.784 24.8511ZM165.767 24.1988L165.718 30.1986L171.402 30.2455L171.452 24.2457L171.501 18.2459L165.817 18.199L165.767 24.1988ZM171.452 24.2457L170.656 30.1927L176.099 30.9213L176.895 24.9743L177.691 19.0273L172.248 18.2988L171.452 24.2457ZM176.895 24.9743L175.342 30.7699L180.583 32.1743L182.136 26.3787L183.689 20.5831L178.448 19.1787L176.895 24.9743ZM182.136 26.3787L179.852 31.9269L184.93 34.0175L187.214 28.4693L189.499 22.9211L184.42 20.8305L182.136 26.3787ZM187.214 28.4693L184.257 33.69L189.204 36.4916L192.161 31.2709L195.118 26.0502L190.171 23.2486L187.214 28.4693ZM192.161 31.2709L188.615 36.1114L193.471 39.6679L197.016 34.8274L200.562 29.987L195.706 26.4305L192.161 31.2709ZM197.016 34.8274L192.974 39.2616L197.795 43.6559L201.837 39.2217L205.879 34.7876L201.058 30.3933L197.016 34.8274ZM201.837 39.2217L197.391 43.2512L202.268 48.6314L206.713 44.6019L211.159 40.5724L206.282 35.1922L201.837 39.2217ZM206.713 44.6019L201.952 48.2533L207.061 54.9146L211.822 51.2631L216.583 47.6117L211.474 40.9505L206.713 44.6019ZM211.822 51.2631L206.824 54.5829L211.281 61.2925L216.279 57.9727L221.277 54.6529L216.82 47.9434L211.822 51.2631ZM216.279 57.9727L218.408 63.5823L221.423 62.4379L219.294 56.8283L217.165 51.2187L214.15 52.3632L216.279 57.9727ZM219.294 56.8283L221.039 62.569L226.838 60.8065L225.093 55.0658L223.348 49.3251L217.55 51.0876L219.294 56.8283ZM225.093 55.0658L226.358 60.9309L231.485 59.8252L230.219 53.96L228.954 48.0949L223.828 49.2007L225.093 55.0658ZM230.219 53.96L230.921 59.9189L235.599 59.3681L234.898 53.4093L234.196 47.4504L229.518 48.0012L230.219 53.96ZM234.898 53.4093L234.957 59.409L239.306 59.3659L239.246 53.3662L239.187 47.3665L234.839 47.4096L234.898 53.4093ZM239.246 53.3662L238.603 59.3316L242.688 59.772L243.331 53.8066L243.974 47.8412L239.889 47.4007L239.246 53.3662ZM243.331 53.8066L241.949 59.6453L245.813 60.5597L247.194 54.721L248.576 48.8823L244.713 47.9679L243.331 53.8066ZM247.194 54.721L245.075 60.3342L248.746 61.7204L250.866 56.1072L252.985 50.494L249.314 49.1078L247.194 54.721ZM250.866 56.1072L248.043 61.4015L251.549 63.271L254.372 57.9767L257.195 52.6824L253.689 50.8128L250.866 56.1072ZM254.372 57.9767L250.914 62.88L254.277 65.2516L257.735 60.3483L261.193 55.445L257.83 53.0734L254.372 57.9767ZM257.735 60.3483L253.728 64.8146L256.972 67.725L260.979 63.2587L264.985 58.7924L261.741 55.882L257.735 60.3483ZM260.979 63.2587L256.52 67.2738L259.681 70.7837L264.14 66.7686L268.598 62.7534L265.438 59.2435L260.979 63.2587ZM264.14 66.7686L259.32 70.3422L262.454 74.5682L267.273 70.9946L272.093 67.4211L268.96 63.195L264.14 66.7686ZM267.273 70.9946L262.178 74.1624L265.388 79.3263L270.483 76.1585L275.579 72.9907L272.369 67.8268L267.273 70.9946ZM270.483 76.1585L265.186 78.9752L268.743 85.6661L274.041 82.8494L279.339 80.0327L275.781 73.3418L270.483 76.1585ZM274.041 82.8494L268.604 85.3868L274.852 98.7761L280.289 96.2387L285.727 93.7013L279.478 80.312L274.041 82.8494ZM280.289 96.2387L274.8 98.6603L280.763 112.178L286.253 109.757L291.742 107.335L285.779 93.8171L280.289 96.2387ZM286.253 109.757L280.644 111.889L283.338 118.972L288.946 116.839L294.554 114.707L291.861 107.624L286.253 109.757ZM288.946 116.839L283.207 118.59L284.98 124.406L290.72 122.656L296.459 120.905L294.685 115.089L288.946 116.839ZM290.72 122.656L284.856 123.929L285.973 129.07L291.836 127.797L297.7 126.523L296.583 121.382L290.72 122.656ZM291.836 127.797L285.879 128.509L286.439 133.199L292.397 132.487L298.354 131.774L297.794 127.085L291.836 127.797ZM292.397 132.487L286.397 132.562L286.452 136.92L292.452 136.845L298.451 136.77L298.396 132.411L292.397 132.487ZM292.452 136.845L286.484 136.22L286.055 140.312L292.023 140.938L297.99 141.563L298.419 137.47L292.452 136.845ZM292.023 140.938L286.179 139.576L285.277 143.446L291.121 144.808L296.964 146.169L297.866 142.3L292.023 140.938ZM291.121 144.808L285.501 142.707L284.127 146.382L289.747 148.483L295.367 150.584L296.741 146.908L291.121 144.808ZM289.747 148.483L284.443 145.678L282.587 149.187L287.891 151.993L293.195 154.798L295.051 151.288L289.747 148.483ZM287.891 151.993L282.977 148.55L280.619 151.915L285.533 155.358L290.447 158.801L292.805 155.436L287.891 151.993ZM285.533 155.358L281.057 151.362L278.162 154.606L282.638 158.601L287.114 162.597L290.009 159.353L285.533 155.358ZM282.638 158.601L278.614 154.151L275.119 157.311L279.143 161.761L283.167 166.211L286.662 163.052L282.638 158.601ZM279.143 161.761L275.562 156.947L271.355 160.076L274.936 164.89L278.517 169.705L282.724 166.575L279.143 161.761ZM274.936 164.89L271.764 159.798L266.619 163.002L269.792 168.095L272.964 173.188L278.109 169.983L274.936 164.89ZM269.792 168.095L266.973 162.798L260.307 166.346L263.126 171.643L265.944 176.939L272.61 173.392L269.792 168.095ZM263.126 171.643L260.588 166.206L247.244 172.435L249.782 177.871L252.32 183.308L265.663 177.079L263.126 171.643ZM249.782 177.871L247.303 172.408L245.085 173.414L247.565 178.878L250.044 184.342L252.262 183.335L249.782 177.871ZM247.565 178.878L245.144 173.388L231.67 179.329L234.091 184.819L236.512 190.309L249.985 184.368L247.565 178.878ZM234.091 184.819L231.96 179.21L224.901 181.891L227.032 187.5L229.163 193.109L236.222 190.427L234.091 184.819ZM227.032 187.5L225.288 181.759L219.489 183.521L221.233 189.262L222.977 195.003L228.776 193.241L227.032 187.5ZM221.233 189.262L219.967 183.397L214.841 184.504L216.107 190.369L217.373 196.233L222.499 195.127L221.233 189.262ZM216.107 190.369L215.407 184.41L210.728 184.96L211.428 190.918L212.128 196.877L216.808 196.328L216.107 190.369ZM211.428 190.918L211.369 184.919L207.021 184.962L207.08 190.962L207.14 196.961L211.488 196.918L211.428 190.918ZM207.08 190.962L207.722 184.996L203.638 184.556L202.996 190.522L202.354 196.488L206.438 196.927L207.08 190.962ZM202.996 190.522L204.38 184.684L204.055 184.607L202.67 190.445L201.286 196.283L201.611 196.36L202.996 190.522ZM202.67 190.445L199.615 185.281L193.752 188.75L196.808 193.914L199.864 199.078L205.726 195.608L202.67 190.445ZM196.808 193.914L193.808 188.718L190.886 190.405L193.886 195.601L196.886 200.797L199.808 199.11L196.808 193.914ZM193.886 195.601L190.941 190.373L173.173 200.382L176.117 205.61L179.062 210.837L196.831 200.829L193.886 195.601ZM176.117 205.61L173.45 200.235L164.081 204.885L166.749 210.26L169.416 215.634L178.785 210.984L176.117 205.61ZM166.749 210.26L164.45 204.717L156.696 207.932L158.994 213.475L161.292 219.017L169.047 215.802L166.749 210.26ZM158.994 213.475L157.16 207.762L150.246 209.982L152.08 215.695L153.915 221.408L160.828 219.188L158.994 213.475ZM152.08 215.695L150.796 209.834L144.425 211.23L145.709 217.091L146.993 222.952L153.364 221.556L152.08 215.695ZM145.709 217.091L145.059 211.127L139.075 211.779L139.726 217.744L140.376 223.708L146.359 223.056L145.709 217.091ZM139.726 217.744L139.775 211.744L134.089 211.697L134.04 217.697L133.991 223.697L139.677 223.743L139.726 217.744ZM134.04 217.697L134.837 211.75L129.395 211.021L128.598 216.968L127.801 222.915L133.244 223.644L134.04 217.697ZM128.598 216.968L130.151 211.173L127.005 210.33L125.452 216.125L123.899 221.921L127.045 222.764L128.598 216.968ZM125.452 216.125L122.424 210.946L121.359 211.568L124.388 216.748L127.416 221.927L128.481 221.305L125.452 216.125ZM124.388 216.748L121.801 211.334L118.13 213.088L120.717 218.502L123.304 223.915L126.974 222.162L124.388 216.748ZM120.717 218.502L118.663 212.864L115.228 214.116L117.282 219.753L119.336 225.391L122.771 224.139L120.717 218.502ZM117.282 219.753L115.848 213.927L112.569 214.734L114.003 220.56L115.437 226.386L118.716 225.579L117.282 219.753ZM114.003 220.56L113.263 214.606L110.094 215L110.834 220.954L111.575 226.908L114.744 226.514L114.003 220.56ZM110.834 220.954L110.846 214.954L107.758 214.948L107.745 220.948L107.733 226.948L110.822 226.954L110.834 220.954ZM107.745 220.948L108.527 214.999L105.496 214.601L104.714 220.55L103.933 226.499L106.964 226.897L107.745 220.948ZM104.714 220.55L106.252 214.75L103.256 213.956L101.719 219.756L100.181 225.555L103.177 226.35L104.714 220.55ZM101.719 219.756L103.964 214.192L100.984 212.989L98.7389 218.553L96.4938 224.117L99.4737 225.32L101.719 219.756ZM98.7389 218.553L101.613 213.286L98.6231 211.655L95.7495 216.922L92.8758 222.189L95.8653 223.82L98.7389 218.553ZM95.7495 216.922L99.1647 211.989L96.1272 209.886L92.712 214.82L89.2968 219.753L92.3342 221.856L95.7495 216.922ZM92.712 214.82L96.5745 210.228L93.426 207.579L89.5634 212.171L85.7009 216.762L88.8494 219.411L92.712 214.82ZM89.5634 212.171L93.7864 207.909L90.4059 204.559L86.183 208.821L81.96 213.084L85.3405 216.433L89.5634 212.171ZM86.183 208.821L90.6818 204.852L86.7581 200.405L82.2593 204.375L77.7605 208.345L81.6841 212.791L86.183 208.821ZM82.2593 204.375L86.9563 200.642L79.7614 191.59L75.0644 195.323L70.3674 199.057L77.5623 208.109L82.2593 204.375ZM75.0644 195.323L79.8393 191.69L72.837 182.488L68.0622 186.121L63.2873 189.754L70.2895 198.957L75.0644 195.323ZM68.0622 186.121L73.0172 182.737L69.6733 177.84L64.7183 181.224L59.7632 184.607L63.1071 189.504L68.0622 186.121ZM64.7183 181.224L69.889 178.18L67.4754 174.08L62.3047 177.123L57.134 180.167L59.5475 184.267L64.7183 181.224ZM62.3047 177.123L67.705 174.508L65.9115 170.804L60.5112 173.419L55.111 176.034L56.9044 179.738L62.3047 177.123ZM60.5112 173.419L66.1339 171.325L64.8446 167.863L59.2219 169.958L53.5992 172.052L54.8886 175.513L60.5112 173.419ZM59.2219 169.958L65.0339 168.467L64.1879 165.168L58.3759 166.658L52.5639 168.149L53.4099 171.448L59.2219 169.958ZM58.3759 166.658L64.3217 165.854L63.8908 162.67L57.9451 163.474L51.9993 164.279L52.4301 167.463L58.3759 166.658ZM57.9451 163.474L63.9447 163.412L63.9123 160.312L57.9126 160.375L51.9129 160.438L51.9454 163.537L57.9451 163.474ZM57.9126 160.375L63.871 161.081L64.2304 158.045L58.272 157.34L52.3137 156.634L51.9542 159.67L57.9126 160.375ZM58.272 157.34L64.0895 158.808L64.8456 155.813L59.0281 154.345L53.2106 152.876L52.4545 155.871L58.272 157.34ZM59.0281 154.345L64.617 156.527L65.7786 153.553L60.1897 151.37L54.6008 149.187L53.4392 152.162L59.0281 154.345ZM60.1897 151.37L65.4832 154.195L67.0729 151.216L61.7793 148.391L56.4858 145.566L54.8962 148.545L60.1897 151.37ZM61.7793 148.391L66.7385 151.768L68.7963 148.747L63.8372 145.369L58.878 141.992L56.8202 145.014L61.7793 148.391ZM63.8372 145.369L68.4482 149.208L70.3393 146.937L65.7283 143.098L61.1173 139.259L59.2262 141.53L63.8372 145.369ZM65.7283 143.098L71.1027 140.43L68.214 134.611L62.8396 137.278L57.4653 139.946L60.3539 145.766L65.7283 143.098ZM62.8396 137.278L68.3824 134.981L65.168 127.226L59.6252 129.523L54.0825 131.821L57.2969 139.576L62.8396 137.278ZM59.6252 129.523L65.3377 127.688L63.1166 120.775L57.4042 122.61L51.6917 124.445L53.9128 131.358L59.6252 129.523ZM57.4042 122.61L63.2653 121.326L61.87 114.955L56.0089 116.238L50.1478 117.522L51.5431 123.893L57.4042 122.61ZM56.0089 116.238L61.9734 115.587L61.3203 109.604L55.3558 110.255L49.3912 110.906L50.0443 116.889L56.0089 116.238ZM55.3558 110.255L61.3555 110.306L61.4033 104.621L55.4035 104.57L49.4037 104.52L49.356 110.205L55.3558 110.255ZM55.4035 104.57L61.3504 105.366L62.079 99.9233L56.1321 99.1272L50.1851 98.3312L49.4565 103.774L55.4035 104.57ZM56.1321 99.1272L61.9276 100.68L63.332 95.4388L57.5365 93.8859L51.7409 92.333L50.3365 97.5743L56.1321 99.1272ZM57.5365 93.8859L63.085 96.1694L65.1747 91.0917L59.6262 88.8082L54.0778 86.5247L51.988 91.6024L57.5365 93.8859ZM59.6262 88.8082L64.8467 91.7657L67.6491 86.8189L62.4287 83.8614L57.2082 80.9039L54.4058 85.8507L59.6262 88.8082ZM62.4287 83.8614L67.2691 87.4069L70.8256 82.5514L65.9852 79.0059L61.1448 75.4604L57.5883 80.316L62.4287 83.8614ZM65.9852 79.0059L70.4194 83.048L74.8136 78.2275L70.3795 74.1854L65.9454 70.1433L61.5511 74.9638L65.9852 79.0059ZM70.3795 74.1854L74.409 78.631L79.7892 73.7543L75.7597 69.3088L71.7301 64.8632L66.35 69.7398L70.3795 74.1854ZM75.7597 69.3088L79.4105 74.0702L86.0723 68.9622L82.4214 64.2008L78.7705 59.4394L72.1088 64.5474L75.7597 69.3088ZM82.4214 64.2008L85.742 69.1981L94.4534 63.4097L91.1328 58.4124L87.8122 53.415L79.1008 59.2034L82.4214 64.2008ZM91.1328 58.4124L94.1878 63.5763L111.74 53.1923L108.685 48.0283L105.63 42.8644L88.0777 53.2484L91.1328 58.4124ZM108.685 48.0283L111.685 53.2245L114.607 51.5375L111.607 46.3413L108.607 41.1452L105.685 42.8322L108.685 48.0283ZM111.607 46.3413L114.551 51.5691L132.32 41.5605L129.376 36.3328L126.431 31.105L108.662 41.1136L111.607 46.3413Z" fill="#263523" mask="url(#path-1-outside-1_1168_72277)"/>
</g>
<defs>
<clipPath id="clip0_1168_72277">
<rect width="300" height="300" fill="white"/>
</clipPath>
</defs>
</svg>
