<svg width="300" height="300" viewBox="0 0 300 300" fill="none" xmlns="http://www.w3.org/2000/svg">
<g clip-path="url(#clip0_1265_2)">
<path d="M129.376 36.3328L138.744 31.6827L146.499 28.4675L153.412 26.2464L159.784 24.8511L165.767 24.1988L171.452 24.2457L176.895 24.9743L182.136 26.3787L187.214 28.4693L192.161 31.2709L197.016 34.8274L201.837 39.2217L206.713 44.6019L211.822 51.2631L216.279 57.9727L219.294 56.8283L225.093 55.0658L230.219 53.96L234.898 53.4093L239.246 53.3662L243.331 53.8066L247.194 54.721L250.866 56.1072L254.372 57.9767L257.735 60.3483L260.979 63.2587L264.14 66.7686L267.273 70.9946L270.483 76.1585L274.041 82.8494L280.289 96.2387L286.253 109.757L288.946 116.839L290.72 122.656L291.836 127.797L292.397 132.487L292.452 136.845L292.023 140.938L291.121 144.808L289.747 148.483L287.891 151.993L285.533 155.358L282.638 158.601L279.143 161.761L274.936 164.89L269.792 168.095L263.126 171.643L249.782 177.871L247.565 178.878L234.091 184.819L227.032 187.5L221.233 189.262L216.107 190.369L211.428 190.918L207.08 190.962L202.996 190.522L202.67 190.445L196.808 193.914L193.886 195.601L176.117 205.609L166.749 210.26L158.994 213.475L152.08 215.695L145.709 217.091L139.726 217.744L134.04 217.697L128.598 216.968L125.452 216.125L124.388 216.748L120.717 218.502L117.282 219.753L114.003 220.56L110.834 220.954L107.745 220.948L104.714 220.55L101.719 219.756L98.7389 218.553L95.7495 216.922L92.712 214.82L89.5634 212.171L86.183 208.821L82.2593 204.375L75.0644 195.323L68.0622 186.121L64.7183 181.224L62.3047 177.123L60.5112 173.419L59.2219 169.958L58.3759 166.658L57.9451 163.474L57.9126 160.375L58.272 157.34L59.0281 154.345L60.1897 151.37L61.7793 148.391L63.8372 145.369L65.7283 143.098L62.8396 137.278L59.6252 129.523L57.4042 122.61L56.0089 116.238L55.3558 110.255L55.4035 104.57L56.1321 99.1272L57.5365 93.8859L59.6262 88.8082L62.4287 83.8614L65.9852 79.0059L70.3795 74.1854L75.7597 69.3088L82.4214 64.2008L91.1328 58.4124L108.685 48.0283L111.607 46.3413L129.376 36.3328Z" fill="#3F5D38"/>
</g>
<defs>
<clipPath id="clip0_1265_2">
<rect width="300" height="300" fill="white"/>
</clipPath>
</defs>
</svg>
