<svg width="300" height="300" viewBox="0 0 300 300" fill="none" xmlns="http://www.w3.org/2000/svg">
<path d="M160.201 49.6319L163.973 49.3535L167.54 49.5078L170.941 50.0844L174.199 51.0805L177.34 52.5034L180.382 54.37L183.349 56.7078L186.275 59.57L189.214 63.0524L192.269 67.3432L195.703 72.9353L201.823 84.1737L207.699 95.5402L210.405 101.518L212.247 106.454L213.483 110.839L214.213 114.867L214.486 118.635L214.326 122.2L213.744 125.598L212.743 128.855L211.315 131.994L209.443 135.035L207.098 138.004L204.229 140.93L200.739 143.871L196.44 146.93L190.838 150.369L179.581 156.497L177.708 157.491L166.322 163.379L160.334 166.09L155.393 167.936L151.001 169.177L146.968 169.913L143.197 170.191L139.628 170.036L136.228 169.46L132.97 168.464L129.83 167.041L126.788 165.175L123.82 162.836L120.894 159.974L117.956 156.493L114.9 152.201L111.466 146.61L105.347 135.371L99.4701 124.005L96.764 118.026L94.9234 113.091L93.687 108.705L92.956 104.677L92.6837 100.91L92.8427 97.3454L93.4247 93.9467L94.4262 90.6901L95.8545 87.5508L97.7271 84.5087L100.072 81.5413L102.941 78.6138L106.43 75.6728L110.729 72.6147L116.331 69.1756L127.588 63.0478L129.462 62.0527L140.847 56.1661L146.835 53.454L151.777 51.6076L156.168 50.3671L160.201 49.6319Z" fill="#496B41"/>
<path d="M213.854 83.3159L217.877 81.7522L221.184 80.7178L224.108 80.0608L226.779 79.7224L229.262 79.6751L231.596 79.9034L233.805 80.4036L235.906 81.1736L237.914 82.2187L239.842 83.5506L241.704 85.1898L243.521 87.1716L245.324 89.5601L247.173 92.4823L249.225 96.2726L252.836 103.86L256.283 111.523L257.844 115.541L258.875 118.842L259.529 121.762L259.864 124.43L259.909 126.91L259.676 129.242L259.173 131.449L258.4 133.549L257.352 135.557L256.015 137.484L254.372 139.346L252.386 141.163L249.992 142.967L247.064 144.819L243.268 146.873L235.667 150.489L234.403 151.074L226.727 154.528L222.704 156.092L219.397 157.126L216.473 157.783L213.803 158.121L211.32 158.169L208.986 157.94L206.776 157.44L204.675 156.67L202.667 155.625L200.739 154.293L198.877 152.654L197.06 150.672L195.258 148.284L193.408 145.361L191.356 141.571L187.746 133.984L184.298 126.32L182.737 122.303L181.706 119.002L181.052 116.082L180.717 113.414L180.672 110.934L180.905 108.602L181.408 106.395L182.181 104.295L183.23 102.287L184.566 100.36L186.209 98.4976L188.195 96.681L190.589 94.8771L193.518 93.0257L197.313 90.971L204.914 87.3543L206.178 86.7695L213.854 83.3159Z" fill="#496B41"/>
</svg>
