<svg width="150" height="150" viewBox="0 0 150 150" fill="none" xmlns="http://www.w3.org/2000/svg">
<mask id="path-1-inside-1_1212_70742" fill="white">
<path d="M74.0483 21.8389C80.2213 21.839 85.7762 24.4824 89.645 28.6982L93.2368 27.585L98.6421 25.9629C98.8386 25.904 99.0541 25.951 99.2114 26.084C101.09 27.6734 102.659 29.4845 103.921 31.4404C109.297 32.8725 113.258 37.7744 113.258 43.6016C113.258 48.937 109.938 53.4962 105.25 55.3271C103.837 58.1267 101.833 60.6917 99.231 62.8271C99.062 62.9657 98.8302 63.0004 98.6265 62.9189L93.2368 60.7637L88.9956 59.1318C87.6989 60.4255 86.2346 61.5506 84.6392 62.4746C84.3445 67.8972 79.856 72.2031 74.3599 72.2031C68.9864 72.2031 64.5766 68.0872 64.1069 62.8359C60.6695 61.0036 57.7971 58.2517 55.8188 54.9072C42.036 47.718 31.1441 50.8313 5.42236 57.2998C1.5923 58.2628 -1.4828 54.2522 0.759277 51.0039C6.23168 43.0762 11.6414 38.7723 18.3599 33.8584C31.2319 24.4437 44.6411 24.0296 59.9741 27.1963C63.7143 23.864 68.6449 21.8389 74.0483 21.8389Z"/>
</mask>
<path d="M74.0483 21.8389C80.2213 21.839 85.7762 24.4824 89.645 28.6982L93.2368 27.585L98.6421 25.9629C98.8386 25.904 99.0541 25.951 99.2114 26.084C101.09 27.6734 102.659 29.4845 103.921 31.4404C109.297 32.8725 113.258 37.7744 113.258 43.6016C113.258 48.937 109.938 53.4962 105.25 55.3271C103.837 58.1267 101.833 60.6917 99.231 62.8271C99.062 62.9657 98.8302 63.0004 98.6265 62.9189L93.2368 60.7637L88.9956 59.1318C87.6989 60.4255 86.2346 61.5506 84.6392 62.4746C84.3445 67.8972 79.856 72.2031 74.3599 72.2031C68.9864 72.2031 64.5766 68.0872 64.1069 62.8359C60.6695 61.0036 57.7971 58.2517 55.8188 54.9072C42.036 47.718 31.1441 50.8313 5.42236 57.2998C1.5923 58.2628 -1.4828 54.2522 0.759277 51.0039C6.23168 43.0762 11.6414 38.7723 18.3599 33.8584C31.2319 24.4437 44.6411 24.0296 59.9741 27.1963C63.7143 23.864 68.6449 21.8389 74.0483 21.8389Z" fill="#1B4054"/>
<path d="M74.0483 21.8389L74.0484 16.8389H74.0483V21.8389ZM89.645 28.6982L85.9611 32.0789L88.1016 34.4113L91.1253 33.4741L89.645 28.6982ZM93.2368 27.585L91.7997 22.7959L91.7781 22.8024L91.7565 22.8091L93.2368 27.585ZM98.6421 25.9629L97.207 21.1733L97.205 21.1739L98.6421 25.9629ZM99.2114 26.084L102.441 22.2671L102.439 22.2656L99.2114 26.084ZM103.921 31.4404L99.7205 34.152L100.768 35.7748L102.634 36.2719L103.921 31.4404ZM113.258 43.6016H118.258V43.6015L113.258 43.6016ZM105.25 55.3271L103.431 50.6699L101.649 51.3659L100.787 53.0734L105.25 55.3271ZM99.231 62.8271L102.402 66.6927L102.403 66.6925L99.231 62.8271ZM98.6265 62.9189L100.483 58.2766L100.483 58.2764L98.6265 62.9189ZM93.2368 60.7637L95.0933 56.1211L95.0629 56.1089L95.0323 56.0972L93.2368 60.7637ZM88.9956 59.1318L90.7911 54.4653L87.762 53.2999L85.4643 55.5921L88.9956 59.1318ZM84.6392 62.4746L82.1333 58.1479L79.7933 59.5031L79.6465 62.2033L84.6392 62.4746ZM74.3599 72.2031V77.2031H74.3599L74.3599 72.2031ZM64.1069 62.8359L69.0871 62.3905L68.8461 59.6962L66.4589 58.4237L64.1069 62.8359ZM55.8188 54.9072L60.1224 52.3617L59.3961 51.1338L58.1312 50.4741L55.8188 54.9072ZM5.42236 57.2998L6.64154 62.1489L6.6418 62.1488L5.42236 57.2998ZM0.759277 51.0039L-3.35557 48.1635L-3.35568 48.1636L0.759277 51.0039ZM18.3599 33.8584L15.4081 29.8227L15.4081 29.8227L18.3599 33.8584ZM59.9741 27.1963L58.9628 32.093L61.4239 32.6012L63.3002 30.9295L59.9741 27.1963ZM74.0483 21.8389L74.0483 26.8389C78.7623 26.8389 82.999 28.8511 85.9611 32.0789L89.645 28.6982L93.3289 25.3176C88.5533 20.1137 81.6804 16.839 74.0484 16.8389L74.0483 21.8389ZM89.645 28.6982L91.1253 33.4741L94.7171 32.3608L93.2368 27.585L91.7565 22.8091L88.1647 23.9224L89.645 28.6982ZM93.2368 27.585L94.674 32.374L100.079 30.7519L98.6421 25.9629L97.205 21.1739L91.7997 22.7959L93.2368 27.585ZM98.6421 25.9629L100.077 30.7525C98.6147 31.1907 97.084 30.8328 95.9834 29.9023L99.2114 26.084L102.439 22.2656C101.024 21.0692 99.0624 20.6173 97.207 21.1733L98.6421 25.9629ZM99.2114 26.084L95.9817 29.9009C97.4762 31.1655 98.7201 32.6021 99.7205 34.152L103.921 31.4404L108.122 28.7288C106.598 26.3668 104.703 24.1812 102.441 22.2671L99.2114 26.084ZM103.921 31.4404L102.634 36.2719C105.876 37.1355 108.258 40.0968 108.258 43.6017L113.258 43.6016L118.258 43.6015C118.258 35.4519 112.719 28.6095 105.208 26.6089L103.921 31.4404ZM113.258 43.6016H108.258C108.258 46.8087 106.265 49.5628 103.431 50.6699L105.25 55.3271L107.07 59.9844C113.61 57.4296 118.258 51.0654 118.258 43.6016H113.258ZM105.25 55.3271L100.787 53.0734C99.6791 55.268 98.1099 57.2793 96.0594 58.9618L99.231 62.8271L102.403 66.6925C105.557 64.1042 107.995 60.9853 109.714 57.5809L105.25 55.3271ZM99.231 62.8271L96.0596 58.9616C97.3188 57.9285 99.0176 57.6903 100.483 58.2766L98.6265 62.9189L96.7695 67.5613C98.6428 68.3106 100.805 68.003 102.402 66.6927L99.231 62.8271ZM98.6265 62.9189L100.483 58.2764L95.0933 56.1211L93.2368 60.7637L91.3803 65.4062L96.7699 67.5615L98.6265 62.9189ZM93.2368 60.7637L95.0323 56.0972L90.7911 54.4653L88.9956 59.1318L87.2001 63.7983L91.4413 65.4302L93.2368 60.7637ZM88.9956 59.1318L85.4643 55.5921C84.4735 56.5805 83.3538 57.441 82.1333 58.1479L84.6392 62.4746L87.145 66.8013C89.1154 65.6602 90.9242 64.2704 92.5269 62.6716L88.9956 59.1318ZM84.6392 62.4746L79.6465 62.2033C79.4951 64.9893 77.1845 67.2031 74.3598 67.2031L74.3599 72.2031L74.3599 77.2031C82.5275 77.2031 89.1938 70.8051 89.6318 62.7459L84.6392 62.4746ZM74.3599 72.2031V67.2031C71.5997 67.2031 69.3283 65.0877 69.0871 62.3905L64.1069 62.8359L59.1268 63.2814C59.825 71.0867 66.3731 77.2031 74.3599 77.2031V72.2031ZM64.1069 62.8359L66.4589 58.4237C63.8323 57.0235 61.6345 54.9181 60.1224 52.3617L55.8188 54.9072L51.5153 57.4527C53.9597 61.5854 57.5066 64.9836 61.7549 67.2482L64.1069 62.8359ZM55.8188 54.9072L58.1312 50.4741C42.3174 42.2255 29.3053 46.138 4.20293 52.4508L5.42236 57.2998L6.6418 62.1488C32.9828 55.5246 41.7545 53.2105 53.5065 59.3404L55.8188 54.9072ZM5.42236 57.2998L4.20319 52.4507C4.20291 52.4508 4.23671 52.4429 4.29722 52.4461C4.35644 52.4493 4.42251 52.4621 4.48904 52.4866C4.61688 52.5336 4.72708 52.6156 4.81222 52.729C4.8985 52.8439 4.98899 53.0341 4.99938 53.2928C5.01106 53.5837 4.91386 53.7868 4.87423 53.8442L0.759277 51.0039L-3.35568 48.1636C-5.79128 51.6923 -5.34211 55.8597 -3.18468 58.7331C-1.06833 61.5519 2.67942 63.1451 6.64154 62.1489L5.42236 57.2998ZM0.759277 51.0039L4.87413 53.8443C9.86828 46.6094 14.7408 42.7001 21.3116 37.8941L18.3599 33.8584L15.4081 29.8227C8.54205 34.8445 2.59508 39.5429 -3.35557 48.1635L0.759277 51.0039ZM18.3599 33.8584L21.3116 37.8941C32.5869 29.6474 44.34 29.073 58.9628 32.093L59.9741 27.1963L60.9854 22.2996C44.9422 18.9863 29.877 19.2401 15.4081 29.8227L18.3599 33.8584ZM59.9741 27.1963L63.3002 30.9295C66.1602 28.3814 69.9182 26.8389 74.0483 26.8389V21.8389V16.8389C67.3715 16.8389 61.2684 19.3465 56.648 23.4631L59.9741 27.1963Z" fill="#1A2A33" mask="url(#path-1-inside-1_1212_70742)"/>
<rect x="63.178" y="32.1357" width="21.7373" height="22.8814" rx="10.8686" fill="#1F5C7C"/>
<rect x="91.52" y="39.0249" width="9.15254" height="9.15254" rx="4.57627" fill="#1F5C7C"/>
<path d="M41.2372 35.0214C50.3897 33.8773 54.9667 36.1668 65.2628 37.31L86.7525 39.5724C86.9159 39.5896 87.0808 39.5714 87.2361 39.5191L91.6945 38.0166C91.9515 37.93 92.2312 37.9379 92.4838 38.0389L95.9147 39.4107C96.7456 39.7429 96.8971 40.856 96.1841 41.3907L94.4545 42.688C93.8455 43.1446 93.8487 44.0611 94.4607 44.5201L96.3974 45.9726C97.0622 46.4712 96.9967 47.4872 96.274 47.8889L93.1927 49.6012C92.862 49.785 92.4609 49.7923 92.1219 49.6206L88.5706 47.8229C88.2977 47.6848 87.9815 47.6613 87.6924 47.7576L83.2256 49.2466C83.0741 49.2971 82.914 49.3094 82.7551 49.3263C81.2248 49.4884 77.8865 52.1038 66.7179 51.0688C66.5176 51.0503 66.318 50.9757 66.1537 50.8588C54.855 42.8196 46.9984 39.4024 24.7274 43.9854C23.6375 44.2097 22.8997 42.9453 23.723 42.1985C27.8038 38.4968 32.8615 36.0683 41.2372 35.0214Z" fill="#1F5C7C"/>
<rect x="66.6104" y="35.5674" width="14.8729" height="16.017" rx="7.43644" fill="#4D8DBA"/>
<mask id="path-7-inside-2_1212_70742" fill="white">
<path d="M78.9905 15.2246L81.2083 15.9014L82.7786 17.0479L83.8606 18.7119L84.4993 21.0615L84.7112 25.9092V139.091L84.4993 143.938L83.8606 146.288L82.7786 147.952L81.2083 149.099L78.9905 149.775L74.4143 150L69.8391 149.775L67.6213 149.099L66.051 147.952L64.969 146.288L64.3303 143.938L64.1184 139.091V25.9092L64.3303 21.0615L64.969 18.7119L66.051 17.0479L67.6213 15.9014L69.8391 15.2246L74.4143 15L78.9905 15.2246Z"/>
</mask>
<path d="M78.9905 15.2246L81.2083 15.9014L82.7786 17.0479L83.8606 18.7119L84.4993 21.0615L84.7112 25.9092V139.091L84.4993 143.938L83.8606 146.288L82.7786 147.952L81.2083 149.099L78.9905 149.775L74.4143 150L69.8391 149.775L67.6213 149.099L66.051 147.952L64.969 146.288L64.3303 143.938L64.1184 139.091V25.9092L64.3303 21.0615L64.969 18.7119L66.051 17.0479L67.6213 15.9014L69.8391 15.2246L74.4143 15L78.9905 15.2246Z" fill="#515656"/>
<path d="M78.9905 15.2246L80.4498 10.4423L79.8558 10.2611L79.2356 10.2306L78.9905 15.2246ZM81.2083 15.9014L84.1566 11.8631L83.4749 11.3654L82.6676 11.1191L81.2083 15.9014ZM82.7786 17.0479L86.9703 14.3222L86.4693 13.5516L85.7269 13.0096L82.7786 17.0479ZM83.8606 18.7119L88.6855 17.4004L88.4798 16.6437L88.0524 15.9863L83.8606 18.7119ZM84.4993 21.0615L89.4945 20.8432L89.4702 20.2871L89.3242 19.75L84.4993 21.0615ZM84.7112 25.9092H89.7112V25.7999L89.7064 25.6908L84.7112 25.9092ZM84.7112 139.091L89.7064 139.309L89.7112 139.2V139.091H84.7112ZM84.4993 143.938L89.3242 145.25L89.4702 144.713L89.4945 144.157L84.4993 143.938ZM83.8606 146.288L88.0524 149.014L88.4798 148.356L88.6855 147.6L83.8606 146.288ZM82.7786 147.952L85.7269 151.99L86.4693 151.448L86.9703 150.678L82.7786 147.952ZM81.2083 149.099L82.6676 153.881L83.4749 153.635L84.1566 153.137L81.2083 149.099ZM78.9905 149.775L79.2356 154.769L79.8558 154.739L80.4498 154.558L78.9905 149.775ZM74.4143 150L74.1691 154.994L74.4143 155.006L74.6594 154.994L74.4143 150ZM69.8391 149.775L68.3798 154.558L68.9737 154.739L69.5939 154.769L69.8391 149.775ZM67.6213 149.099L64.673 153.137L65.3547 153.635L66.162 153.881L67.6213 149.099ZM66.051 147.952L61.8593 150.678L62.3603 151.448L63.1027 151.99L66.051 147.952ZM64.969 146.288L60.1441 147.6L60.3498 148.356L60.7772 149.014L64.969 146.288ZM64.3303 143.938L59.3351 144.157L59.3594 144.713L59.5054 145.25L64.3303 143.938ZM64.1184 139.091H59.1184V139.2L59.1232 139.309L64.1184 139.091ZM64.1184 25.9092L59.1232 25.6908L59.1184 25.7999V25.9092H64.1184ZM64.3303 21.0615L59.5054 19.75L59.3594 20.2871L59.3351 20.8432L64.3303 21.0615ZM64.969 18.7119L60.7772 15.9863L60.3498 16.6437L60.1441 17.4004L64.969 18.7119ZM66.051 17.0479L63.1027 13.0096L62.3603 13.5516L61.8593 14.3222L66.051 17.0479ZM67.6213 15.9014L66.162 11.1191L65.3547 11.3654L64.673 11.8631L67.6213 15.9014ZM69.8391 15.2246L69.5939 10.2306L68.9737 10.2611L68.3798 10.4423L69.8391 15.2246ZM74.4143 15L74.6594 10.006L74.4143 9.99398L74.1691 10.006L74.4143 15ZM78.9905 15.2246L77.5312 20.0069L79.7489 20.6837L81.2083 15.9014L82.6676 11.1191L80.4498 10.4423L78.9905 15.2246ZM81.2083 15.9014L78.2599 19.9396L79.8302 21.0861L82.7786 17.0479L85.7269 13.0096L84.1566 11.8631L81.2083 15.9014ZM82.7786 17.0479L78.5868 19.7735L79.6688 21.4375L83.8606 18.7119L88.0524 15.9863L86.9703 14.3222L82.7786 17.0479ZM83.8606 18.7119L79.0357 20.0234L79.6743 22.373L84.4993 21.0615L89.3242 19.75L88.6855 17.4004L83.8606 18.7119ZM84.4993 21.0615L79.504 21.2799L79.716 26.1275L84.7112 25.9092L89.7064 25.6908L89.4945 20.8432L84.4993 21.0615ZM84.7112 25.9092H79.7112V139.091H84.7112H89.7112V25.9092H84.7112ZM84.7112 139.091L79.716 138.872L79.504 143.72L84.4993 143.938L89.4945 144.157L89.7064 139.309L84.7112 139.091ZM84.4993 143.938L79.6743 142.627L79.0357 144.977L83.8606 146.288L88.6855 147.6L89.3242 145.25L84.4993 143.938ZM83.8606 146.288L79.6688 143.562L78.5868 145.227L82.7786 147.952L86.9703 150.678L88.0524 149.014L83.8606 146.288ZM82.7786 147.952L79.8302 143.914L78.2599 145.06L81.2083 149.099L84.1566 153.137L85.7269 151.99L82.7786 147.952ZM81.2083 149.099L79.7489 144.316L77.5312 144.993L78.9905 149.775L80.4498 154.558L82.6676 153.881L81.2083 149.099ZM78.9905 149.775L78.7454 144.781L74.1692 145.006L74.4143 150L74.6594 154.994L79.2356 154.769L78.9905 149.775ZM74.4143 150L74.6595 145.006L70.0843 144.781L69.8391 149.775L69.5939 154.769L74.1691 154.994L74.4143 150ZM69.8391 149.775L71.2984 144.993L69.0807 144.316L67.6213 149.099L66.162 153.881L68.3798 154.558L69.8391 149.775ZM67.6213 149.099L70.5697 145.06L68.9993 143.914L66.051 147.952L63.1027 151.99L64.673 153.137L67.6213 149.099ZM66.051 147.952L70.2428 145.227L69.1608 143.562L64.969 146.288L60.7772 149.014L61.8593 150.678L66.051 147.952ZM64.969 146.288L69.7939 144.977L69.1553 142.627L64.3303 143.938L59.5054 145.25L60.1441 147.6L64.969 146.288ZM64.3303 143.938L69.3256 143.72L69.1136 138.872L64.1184 139.091L59.1232 139.309L59.3351 144.157L64.3303 143.938ZM64.1184 139.091H69.1184V25.9092H64.1184H59.1184V139.091H64.1184ZM64.1184 25.9092L69.1136 26.1275L69.3256 21.2799L64.3303 21.0615L59.3351 20.8432L59.1232 25.6908L64.1184 25.9092ZM64.3303 21.0615L69.1553 22.373L69.7939 20.0234L64.969 18.7119L60.1441 17.4004L59.5054 19.75L64.3303 21.0615ZM64.969 18.7119L69.1608 21.4375L70.2428 19.7735L66.051 17.0479L61.8593 14.3222L60.7772 15.9863L64.969 18.7119ZM66.051 17.0479L68.9993 21.0861L70.5697 19.9396L67.6213 15.9014L64.673 11.8631L63.1027 13.0096L66.051 17.0479ZM67.6213 15.9014L69.0807 20.6837L71.2984 20.0069L69.8391 15.2246L68.3798 10.4423L66.162 11.1191L67.6213 15.9014ZM69.8391 15.2246L70.0843 20.2186L74.6595 19.994L74.4143 15L74.1691 10.006L69.5939 10.2306L69.8391 15.2246ZM74.4143 15L74.1692 19.994L78.7454 20.2186L78.9905 15.2246L79.2356 10.2306L74.6594 10.006L74.4143 15Z" fill="#2B3333" mask="url(#path-7-inside-2_1212_70742)"/>
<mask id="path-9-inside-3_1212_70742" fill="white">
<path d="M74.0479 21.8389C80.2208 21.839 85.7757 24.4824 89.6445 28.6982L93.2363 27.585L98.6416 25.9629C98.8381 25.904 99.0536 25.951 99.2109 26.084C101.089 27.6734 102.658 29.4844 103.921 31.4404C109.297 32.8723 113.259 37.7741 113.259 43.6016C113.259 48.9373 109.937 53.4964 105.25 55.3271C103.836 58.1267 101.833 60.6917 99.2305 62.8271C99.0615 62.9658 98.8297 63.0004 98.626 62.9189L93.2363 60.7637L88.9951 59.1318C85.1665 62.9513 79.8831 65.3134 74.0479 65.3135C66.2871 65.3135 59.5025 61.1357 55.8184 54.9072C42.0355 47.718 31.1436 50.8313 5.42188 57.2998C1.5918 58.2628 -1.4833 54.2522 0.758789 51.0039C6.23119 43.0762 11.6409 38.7723 18.3594 33.8584C31.2314 24.4437 44.6406 24.0296 59.9736 27.1963C63.7138 23.864 68.6444 21.8389 74.0479 21.8389Z"/>
</mask>
<path d="M74.0479 21.8389C80.2208 21.839 85.7757 24.4824 89.6445 28.6982L93.2363 27.585L98.6416 25.9629C98.8381 25.904 99.0536 25.951 99.2109 26.084C101.089 27.6734 102.658 29.4844 103.921 31.4404C109.297 32.8723 113.259 37.7741 113.259 43.6016C113.259 48.9373 109.937 53.4964 105.25 55.3271C103.836 58.1267 101.833 60.6917 99.2305 62.8271C99.0615 62.9658 98.8297 63.0004 98.626 62.9189L93.2363 60.7637L88.9951 59.1318C85.1665 62.9513 79.8831 65.3134 74.0479 65.3135C66.2871 65.3135 59.5025 61.1357 55.8184 54.9072C42.0355 47.718 31.1436 50.8313 5.42188 57.2998C1.5918 58.2628 -1.4833 54.2522 0.758789 51.0039C6.23119 43.0762 11.6409 38.7723 18.3594 33.8584C31.2314 24.4437 44.6406 24.0296 59.9736 27.1963C63.7138 23.864 68.6444 21.8389 74.0479 21.8389Z" fill="#1B4054"/>
<path d="M74.0479 21.8389L74.0479 16.8389H74.0479V21.8389ZM89.6445 28.6982L85.9607 32.0789L88.1011 34.4113L91.1248 33.4741L89.6445 28.6982ZM93.2363 27.585L91.7992 22.7959L91.7776 22.8024L91.7561 22.8091L93.2363 27.585ZM98.6416 25.9629L97.2066 21.1732L97.2045 21.1739L98.6416 25.9629ZM99.2109 26.084L102.441 22.2671L102.439 22.2657L99.2109 26.084ZM103.921 31.4404L99.72 34.152L100.768 35.7749L102.634 36.272L103.921 31.4404ZM113.259 43.6016H118.259V43.6015L113.259 43.6016ZM105.25 55.3271L103.431 50.6698L101.649 51.3658L100.787 53.0734L105.25 55.3271ZM99.2305 62.8271L102.402 66.6926L102.402 66.6925L99.2305 62.8271ZM98.626 62.9189L100.483 58.2766L100.482 58.2764L98.626 62.9189ZM93.2363 60.7637L95.0928 56.1211L95.0624 56.1089L95.0318 56.0972L93.2363 60.7637ZM88.9951 59.1318L90.7906 54.4653L87.7615 53.2999L85.4638 55.5921L88.9951 59.1318ZM74.0479 65.3135V70.3135H74.0479L74.0479 65.3135ZM55.8184 54.9072L60.1219 52.3617L59.3956 51.1338L58.1307 50.4741L55.8184 54.9072ZM5.42188 57.2998L6.64107 62.1489L6.64131 62.1488L5.42188 57.2998ZM0.758789 51.0039L-3.35606 48.1635L-3.35616 48.1636L0.758789 51.0039ZM18.3594 33.8584L15.4076 29.8227L15.4076 29.8227L18.3594 33.8584ZM59.9736 27.1963L58.9623 32.093L61.4234 32.6012L63.2997 30.9295L59.9736 27.1963ZM74.0479 21.8389L74.0478 26.8389C78.7618 26.839 82.9985 28.8511 85.9607 32.0789L89.6445 28.6982L93.3284 25.3176C88.5528 20.1137 81.6799 16.839 74.0479 16.8389L74.0479 21.8389ZM89.6445 28.6982L91.1248 33.4741L94.7166 32.3608L93.2363 27.585L91.7561 22.8091L88.1643 23.9224L89.6445 28.6982ZM93.2363 27.585L94.6735 32.374L100.079 30.7519L98.6416 25.9629L97.2045 21.1739L91.7992 22.7959L93.2363 27.585ZM98.6416 25.9629L100.077 30.7526C98.6143 31.1906 97.0836 30.8329 95.9828 29.9023L99.2109 26.084L102.439 22.2657C101.024 21.069 99.0618 20.6174 97.2066 21.1732L98.6416 25.9629ZM99.2109 26.084L95.9812 29.9009C97.4757 31.1655 98.7196 32.6021 99.72 34.152L103.921 31.4404L108.122 28.7288C106.597 26.3668 104.703 24.1812 102.441 22.2671L99.2109 26.084ZM103.921 31.4404L102.634 36.272C105.877 37.1355 108.259 40.097 108.259 43.6017L113.259 43.6016L118.259 43.6015C118.259 35.4513 112.718 28.609 105.208 26.6088L103.921 31.4404ZM113.259 43.6016H108.259C108.259 46.8085 106.266 49.5627 103.431 50.6698L105.25 55.3271L107.069 59.9845C113.609 57.4301 118.259 51.0661 118.259 43.6016H113.259ZM105.25 55.3271L100.787 53.0734C99.6786 55.268 98.1095 57.2793 96.0589 58.9618L99.2305 62.8271L102.402 66.6925C105.557 64.1042 107.994 60.9853 109.713 57.5809L105.25 55.3271ZM99.2305 62.8271L96.059 58.9617C97.3184 57.9284 99.0172 57.6903 100.483 58.2766L98.626 62.9189L96.7691 67.5613C98.6422 68.3106 100.805 68.0031 102.402 66.6926L99.2305 62.8271ZM98.626 62.9189L100.482 58.2764L95.0928 56.1211L93.2363 60.7637L91.3798 65.4062L96.7695 67.5615L98.626 62.9189ZM93.2363 60.7637L95.0318 56.0972L90.7906 54.4653L88.9951 59.1318L87.1996 63.7983L91.4409 65.4302L93.2363 60.7637ZM88.9951 59.1318L85.4638 55.5921C82.5339 58.5149 78.5055 60.3134 74.0478 60.3135L74.0479 65.3135L74.0479 70.3135C81.2607 70.3134 87.799 67.3876 92.5264 62.6716L88.9951 59.1318ZM74.0479 65.3135V60.3135C68.127 60.3135 62.9437 57.1323 60.1219 52.3617L55.8184 54.9072L51.5148 57.4527C56.0613 65.1391 64.4471 70.3135 74.0479 70.3135V65.3135ZM55.8184 54.9072L58.1307 50.4741C42.3169 42.2255 29.3048 46.138 4.20244 52.4508L5.42188 57.2998L6.64131 62.1488C32.9823 55.5246 41.754 53.2105 53.506 59.3404L55.8184 54.9072ZM5.42188 57.2998L4.20268 52.4507C4.2024 52.4508 4.2362 52.4429 4.29671 52.4461C4.35593 52.4493 4.422 52.4621 4.48854 52.4866C4.61638 52.5336 4.72658 52.6156 4.81172 52.729C4.89801 52.844 4.98849 53.0341 4.99888 53.2928C5.01057 53.5837 4.91336 53.7868 4.87374 53.8442L0.758789 51.0039L-3.35616 48.1636C-5.79177 51.6923 -5.34262 55.8597 -3.18518 58.7332C-1.06882 61.5519 2.67895 63.1451 6.64107 62.1489L5.42188 57.2998ZM0.758789 51.0039L4.87364 53.8443C9.86779 46.6094 14.7403 42.7001 21.3111 37.8941L18.3594 33.8584L15.4076 29.8227C8.54156 34.8445 2.59459 39.5429 -3.35606 48.1635L0.758789 51.0039ZM18.3594 33.8584L21.3111 37.8941C32.5864 29.6474 44.3395 29.073 58.9623 32.093L59.9736 27.1963L60.9849 22.2996C44.9417 18.9863 29.8765 19.2401 15.4076 29.8227L18.3594 33.8584ZM59.9736 27.1963L63.2997 30.9295C66.1597 28.3814 69.9178 26.8389 74.0479 26.8389V21.8389V16.8389C67.371 16.8389 61.268 19.3465 56.6475 23.4631L59.9736 27.1963Z" fill="#1A2A33" mask="url(#path-9-inside-3_1212_70742)"/>
<mask id="path-11-inside-4_1212_70742" fill="white">
<path d="M82.9395 66.4829C87.6782 66.4829 91.5203 70.3243 91.5205 75.063C91.5205 79.8019 87.6783 83.644 82.9395 83.644H65.7793C61.0404 83.644 57.1982 79.8019 57.1982 75.063C57.1985 70.3243 61.0406 66.4829 65.7793 66.4829H82.9395Z"/>
</mask>
<path d="M82.9395 66.4829C87.6782 66.4829 91.5203 70.3243 91.5205 75.063C91.5205 79.8019 87.6783 83.644 82.9395 83.644H65.7793C61.0404 83.644 57.1982 79.8019 57.1982 75.063C57.1985 70.3243 61.0406 66.4829 65.7793 66.4829H82.9395Z" fill="#1B4054"/>
<path d="M91.5205 75.063H96.5205V75.0627L91.5205 75.063ZM57.1982 75.063L52.1982 75.0627V75.063H57.1982ZM82.9395 66.4829V71.4829C84.9173 71.4829 86.5204 73.0863 86.5205 75.0632L91.5205 75.063L96.5205 75.0627C96.5201 67.5623 90.4391 61.4829 82.9395 61.4829V66.4829ZM91.5205 75.063H86.5205C86.5205 77.0404 84.9169 78.644 82.9395 78.644V83.644V88.644C90.4398 88.644 96.5205 82.5633 96.5205 75.063H91.5205ZM82.9395 83.644V78.644H65.7793V83.644V88.644H82.9395V83.644ZM65.7793 83.644V78.644C63.8018 78.644 62.1982 77.0404 62.1982 75.063H57.1982H52.1982C52.1982 82.5633 58.279 88.644 65.7793 88.644V83.644ZM57.1982 75.063L62.1982 75.0632C62.1983 73.0863 63.8015 71.4829 65.7793 71.4829V66.4829V61.4829C58.2796 61.4829 52.1986 67.5623 52.1982 75.0627L57.1982 75.063ZM65.7793 66.4829V71.4829H82.9395V66.4829V61.4829H65.7793V66.4829Z" fill="#1A2A33" mask="url(#path-11-inside-4_1212_70742)"/>
<rect x="63.178" y="32.1357" width="21.7373" height="22.8814" rx="10.8686" fill="#1F5C7C"/>
<rect x="91.52" y="39.0249" width="9.15254" height="9.15254" rx="4.57627" fill="#1F5C7C"/>
<path d="M41.2372 35.0214C50.3897 33.8773 54.9667 36.1668 65.2628 37.31L86.7525 39.5724C86.9159 39.5896 87.0808 39.5714 87.2361 39.5191L91.6945 38.0166C91.9515 37.93 92.2312 37.9379 92.4838 38.0389L95.9147 39.4107C96.7456 39.7429 96.8971 40.856 96.1841 41.3907L94.4545 42.688C93.8455 43.1446 93.8487 44.0611 94.4607 44.5201L96.3974 45.9726C97.0622 46.4712 96.9967 47.4872 96.274 47.8889L93.1927 49.6012C92.862 49.785 92.4609 49.7923 92.1219 49.6206L88.5706 47.8229C88.2977 47.6848 87.9815 47.6613 87.6924 47.7576L83.2256 49.2466C83.0741 49.2971 82.914 49.3094 82.7551 49.3263C81.2248 49.4884 77.8865 52.1038 66.7179 51.0688C66.5176 51.0503 66.318 50.9757 66.1537 50.8588C54.855 42.8196 46.9984 39.4024 24.7274 43.9854C23.6375 44.2097 22.8997 42.9453 23.723 42.1985C27.8038 38.4968 32.8615 36.0683 41.2372 35.0214Z" fill="#1F5C7C"/>
<rect x="66.6104" y="35.5674" width="14.8729" height="16.017" rx="7.43644" fill="#4D8DBA"/>
</svg>
