<svg width="150" height="150" viewBox="0 0 150 150" fill="none" xmlns="http://www.w3.org/2000/svg">
<g clip-path="url(#clip0_1205_462)">
<mask id="path-1-inside-1_1205_462" fill="white">
<path d="M76.7317 0.399414L79.0569 1.68652L82.9563 5.24023L86.51 9.13965L86.5618 9.23438L87.6155 10.4697L88.5022 12.9551L88.7961 18.0859V92.9902H100.107L103.016 93.2227L104.426 93.9258L104.545 94.0684C105.427 94.4168 106.254 94.9469 106.967 95.6602L113.514 102.207C116.303 104.996 116.303 109.518 113.514 112.307L108.115 117.706C105.326 120.495 100.804 120.495 98.0149 117.706L95.9143 115.605H84.0354V129.141L86.6526 132.011L87.9543 134.353L88.3635 136.522L87.9749 138.688L86.6956 141.018L83.1467 144.916L79.2493 148.465L76.9192 149.743L74.7542 150.132L72.5842 149.723L70.2424 148.421L66.3098 144.834L62.7229 140.901L61.4211 138.56L61.012 136.39L61.3997 134.224L62.679 131.895L64.9915 129.354V115.605H53.1223L51.0217 117.706C48.2328 120.495 43.711 120.495 40.9221 117.706L35.5237 112.307C32.7347 109.518 32.7347 104.996 35.5237 102.207L42.0706 95.6602C42.7807 94.95 43.6031 94.4208 44.4807 94.0723L44.6047 93.9258L46.0159 93.2227L48.925 92.9902H60.2297V18.0859L60.5237 12.9551L61.4114 10.4697L62.9114 8.70898L63.1477 8.57617L66.2102 5.21582L70.0989 1.67383L72.4202 0.393555L74.5754 0L76.7317 0.399414Z"/>
</mask>
<path d="M76.7317 0.399414L79.0569 1.68652L82.9563 5.24023L86.51 9.13965L86.5618 9.23438L87.6155 10.4697L88.5022 12.9551L88.7961 18.0859V92.9902H100.107L103.016 93.2227L104.426 93.9258L104.545 94.0684C105.427 94.4168 106.254 94.9469 106.967 95.6602L113.514 102.207C116.303 104.996 116.303 109.518 113.514 112.307L108.115 117.706C105.326 120.495 100.804 120.495 98.0149 117.706L95.9143 115.605H84.0354V129.141L86.6526 132.011L87.9543 134.353L88.3635 136.522L87.9749 138.688L86.6956 141.018L83.1467 144.916L79.2493 148.465L76.9192 149.743L74.7542 150.132L72.5842 149.723L70.2424 148.421L66.3098 144.834L62.7229 140.901L61.4211 138.56L61.012 136.39L61.3997 134.224L62.679 131.895L64.9915 129.354V115.605H53.1223L51.0217 117.706C48.2328 120.495 43.711 120.495 40.9221 117.706L35.5237 112.307C32.7347 109.518 32.7347 104.996 35.5237 102.207L42.0706 95.6602C42.7807 94.95 43.6031 94.4208 44.4807 94.0723L44.6047 93.9258L46.0159 93.2227L48.925 92.9902H60.2297V18.0859L60.5237 12.9551L61.4114 10.4697L62.9114 8.70898L63.1477 8.57617L66.2102 5.21582L70.0989 1.67383L72.4202 0.393555L74.5754 0L76.7317 0.399414Z" fill="#672F1C"/>
<path d="M76.7317 0.399414L79.1532 -3.97509L78.4418 -4.36886L77.6424 -4.51695L76.7317 0.399414ZM79.0569 1.68652L82.4248 -2.00903L81.9914 -2.404L81.4784 -2.68798L79.0569 1.68652ZM82.9563 5.24023L86.6519 1.87231L86.4956 1.7009L86.3242 1.54468L82.9563 5.24023ZM86.51 9.13965L90.8978 6.74222L90.6099 6.21542L90.2056 5.77173L86.51 9.13965ZM86.5618 9.23438L82.174 11.6318L82.422 12.0857L82.7576 12.4792L86.5618 9.23438ZM87.6155 10.4697L92.3247 8.78957L92.0159 7.92408L91.4196 7.22494L87.6155 10.4697ZM88.5022 12.9551L93.494 12.6691L93.4529 11.9517L93.2115 11.2749L88.5022 12.9551ZM88.7961 18.0859H93.7961V17.9428L93.788 17.8L88.7961 18.0859ZM88.7961 92.9902H83.7961V97.9902H88.7961V92.9902ZM100.107 92.9902L100.505 88.0061L100.306 87.9902H100.107V92.9902ZM103.016 93.2227L105.247 88.748L104.38 88.3157L103.414 88.2385L103.016 93.2227ZM104.426 93.9258L108.263 90.7197L107.593 89.9176L106.657 89.4512L104.426 93.9258ZM104.545 94.0684L100.708 97.2744L101.524 98.2509L102.708 98.7185L104.545 94.0684ZM113.514 112.307L109.978 108.771L109.978 108.771L113.514 112.307ZM108.115 117.706L111.651 121.242L111.651 121.241L108.115 117.706ZM95.9143 115.605L99.4498 112.07L97.9854 110.605H95.9143V115.605ZM84.0354 115.605V110.605H79.0354V115.605H84.0354ZM84.0354 129.141H79.0354V131.078L80.3408 132.51L84.0354 129.141ZM86.6526 132.011L91.0228 129.581L90.7397 129.072L90.3472 128.642L86.6526 132.011ZM87.9543 134.353L92.8678 133.426L92.7178 132.631L92.3245 131.923L87.9543 134.353ZM88.3635 136.522L93.2849 137.406L93.4474 136.5L93.2769 135.596L88.3635 136.522ZM87.9749 138.688L92.3573 141.096L92.7516 140.378L92.8962 139.572L87.9749 138.688ZM86.6956 141.018L90.393 144.383L90.7924 143.945L91.078 143.425L86.6956 141.018ZM83.1467 144.916L86.513 148.613L86.6864 148.455L86.8442 148.282L83.1467 144.916ZM79.2493 148.465L81.6542 152.848L82.1757 152.562L82.6156 152.162L79.2493 148.465ZM76.9192 149.743L77.8027 154.664L78.6074 154.52L79.3241 154.127L76.9192 149.743ZM74.7542 150.132L73.8276 155.045L74.7319 155.216L75.6376 155.053L74.7542 150.132ZM72.5842 149.723L70.1549 154.093L70.8624 154.486L71.6577 154.636L72.5842 149.723ZM70.2424 148.421L66.873 152.115L67.3037 152.508L67.8131 152.791L70.2424 148.421ZM66.3098 144.834L62.6156 148.203L62.7705 148.373L62.9404 148.528L66.3098 144.834ZM62.7229 140.901L58.3527 143.331L58.6359 143.84L59.0287 144.271L62.7229 140.901ZM61.4211 138.56L56.5077 139.486L56.6577 140.281L57.051 140.989L61.4211 138.56ZM61.012 136.39L56.0902 135.509L55.9283 136.413L56.0986 137.316L61.012 136.39ZM61.3997 134.224L57.0172 131.817L56.6224 132.535L56.4779 133.343L61.3997 134.224ZM62.679 131.895L58.9811 128.529L58.582 128.968L58.2965 129.487L62.679 131.895ZM64.9915 129.354L68.6894 132.719L69.9915 131.288V129.354H64.9915ZM64.9915 115.605H69.9915V110.605H64.9915V115.605ZM53.1223 115.605V110.605H51.0512L49.5868 112.07L53.1223 115.605ZM51.0217 117.706L54.557 121.242L54.5573 121.242L51.0217 117.706ZM40.9221 117.706L37.3863 121.241L37.3867 121.242L40.9221 117.706ZM35.5237 112.307L39.0595 108.771L39.0592 108.771L35.5237 112.307ZM42.0706 95.6602L38.5351 92.1246L38.535 92.1246L42.0706 95.6602ZM44.4807 94.0723L46.326 98.7193L47.4885 98.2577L48.2967 97.3031L44.4807 94.0723ZM44.6047 93.9258L42.3749 89.4506L41.4538 89.9095L40.7888 90.6949L44.6047 93.9258ZM46.0159 93.2227L45.6177 88.2385L44.6526 88.3156L43.786 88.7474L46.0159 93.2227ZM48.925 92.9902V87.9902H48.7256L48.5269 88.0061L48.925 92.9902ZM60.2297 92.9902V97.9902H65.2297V92.9902H60.2297ZM60.2297 18.0859L55.2379 17.8L55.2297 17.9428V18.0859H60.2297ZM60.5237 12.9551L55.815 11.2733L55.573 11.9508L55.5319 12.6691L60.5237 12.9551ZM61.4114 10.4697L57.6053 7.22726L57.011 7.92488L56.7027 8.78793L61.4114 10.4697ZM62.9114 8.70898L60.4618 4.35014L59.6839 4.78729L59.1053 5.46652L62.9114 8.70898ZM63.1477 8.57617L65.5973 12.935L66.3002 12.54L66.8432 11.9441L63.1477 8.57617ZM66.2102 5.21582L62.8433 1.51936L62.6713 1.67597L62.5147 1.84786L66.2102 5.21582ZM70.0989 1.67383L67.6841 -2.70441L67.1678 -2.41966L66.732 -2.02264L70.0989 1.67383ZM72.4202 0.393555L71.522 -4.52512L70.7196 -4.3786L70.0054 -3.98468L72.4202 0.393555ZM74.5754 0L75.4861 -4.91637L74.5819 -5.08386L73.6773 -4.91867L74.5754 0ZM76.7317 0.399414L74.3102 4.77392L76.6354 6.06103L79.0569 1.68652L81.4784 -2.68798L79.1532 -3.97509L76.7317 0.399414ZM79.0569 1.68652L75.689 5.38207L79.5884 8.93579L82.9563 5.24023L86.3242 1.54468L82.4248 -2.00903L79.0569 1.68652ZM82.9563 5.24023L79.2607 8.60816L82.8145 12.5076L86.51 9.13965L90.2056 5.77173L86.6519 1.87231L82.9563 5.24023ZM86.51 9.13965L82.1223 11.5371L82.174 11.6318L86.5618 9.23438L90.9495 6.83695L90.8978 6.74222L86.51 9.13965ZM86.5618 9.23438L82.7576 12.4792L83.8114 13.7145L87.6155 10.4697L91.4196 7.22494L90.3659 5.98959L86.5618 9.23438ZM87.6155 10.4697L82.9062 12.1499L83.7929 14.6352L88.5022 12.9551L93.2115 11.2749L92.3247 8.78957L87.6155 10.4697ZM88.5022 12.9551L83.5104 13.2411L83.8043 18.3719L88.7961 18.0859L93.788 17.8L93.494 12.6691L88.5022 12.9551ZM88.7961 18.0859H83.7961V92.9902H88.7961H93.7961V18.0859H88.7961ZM88.7961 92.9902V97.9902H100.107V92.9902V87.9902H88.7961V92.9902ZM100.107 92.9902L99.7085 97.9743L102.618 98.2068L103.016 93.2227L103.414 88.2385L100.505 88.0061L100.107 92.9902ZM103.016 93.2227L100.785 97.6973L102.195 98.4004L104.426 93.9258L106.657 89.4512L105.247 88.748L103.016 93.2227ZM104.426 93.9258L100.589 97.1319L100.708 97.2744L104.545 94.0684L108.382 90.8623L108.263 90.7197L104.426 93.9258ZM104.545 94.0684L102.708 98.7185C102.968 98.8212 103.213 98.977 103.432 99.1957L106.967 95.6602L110.503 92.1246C109.295 90.9169 107.887 90.0124 106.382 89.4182L104.545 94.0684ZM106.967 95.6602L103.432 99.1957L109.978 105.743L113.514 102.207L117.049 98.6715L110.503 92.1246L106.967 95.6602ZM113.514 102.207L109.978 105.743C110.815 106.579 110.815 107.935 109.978 108.771L113.514 112.307L117.049 115.842C121.791 111.101 121.791 103.413 117.049 98.6715L113.514 102.207ZM113.514 112.307L109.978 108.771L104.58 114.171L108.115 117.706L111.651 121.241L117.05 115.842L113.514 112.307ZM108.115 117.706L104.58 114.17C103.744 115.007 102.387 115.007 101.55 114.171L98.0149 117.706L94.4794 121.242C99.221 125.983 106.909 125.983 111.651 121.242L108.115 117.706ZM98.0149 117.706L101.55 114.171L99.4498 112.07L95.9143 115.605L92.3788 119.141L94.4794 121.242L98.0149 117.706ZM95.9143 115.605V110.605H84.0354V115.605V120.605H95.9143V115.605ZM84.0354 115.605H79.0354V129.141H84.0354H89.0354V115.605H84.0354ZM84.0354 129.141L80.3408 132.51L82.958 135.38L86.6526 132.011L90.3472 128.642L87.73 125.772L84.0354 129.141ZM86.6526 132.011L82.2824 134.44L83.5842 136.782L87.9543 134.353L92.3245 131.923L91.0228 129.581L86.6526 132.011ZM87.9543 134.353L83.0409 135.279L83.4501 137.449L88.3635 136.522L93.2769 135.596L92.8678 133.426L87.9543 134.353ZM88.3635 136.522L83.4421 135.639L83.0535 137.805L87.9749 138.688L92.8962 139.572L93.2849 137.406L88.3635 136.522ZM87.9749 138.688L83.5924 136.281L82.3131 138.61L86.6956 141.018L91.078 143.425L92.3573 141.096L87.9749 138.688ZM86.6956 141.018L82.9981 137.652L79.4493 141.55L83.1467 144.916L86.8442 148.282L90.393 144.383L86.6956 141.018ZM83.1467 144.916L79.7804 141.219L75.883 144.768L79.2493 148.465L82.6156 152.162L86.513 148.613L83.1467 144.916ZM79.2493 148.465L76.8443 144.081L74.5143 145.36L76.9192 149.743L79.3241 154.127L81.6542 152.848L79.2493 148.465ZM76.9192 149.743L76.0357 144.822L73.8707 145.211L74.7542 150.132L75.6376 155.053L77.8027 154.664L76.9192 149.743ZM74.7542 150.132L75.6807 145.218L73.5107 144.809L72.5842 149.723L71.6577 154.636L73.8276 155.045L74.7542 150.132ZM72.5842 149.723L75.0135 145.352L72.6717 144.051L70.2424 148.421L67.8131 152.791L70.1549 154.093L72.5842 149.723ZM70.2424 148.421L73.6119 144.727L69.6792 141.14L66.3098 144.834L62.9404 148.528L66.873 152.115L70.2424 148.421ZM66.3098 144.834L70.004 141.465L66.4171 137.532L62.7229 140.901L59.0287 144.271L62.6156 148.203L66.3098 144.834ZM62.7229 140.901L67.0931 138.472L65.7913 136.13L61.4211 138.56L57.051 140.989L58.3527 143.331L62.7229 140.901ZM61.4211 138.56L66.3345 137.633L65.9254 135.463L61.012 136.39L56.0986 137.316L56.5077 139.486L61.4211 138.56ZM61.012 136.39L65.9337 137.271L66.3214 135.105L61.3997 134.224L56.4779 133.343L56.0902 135.509L61.012 136.39ZM61.3997 134.224L65.7821 136.631L67.0614 134.302L62.679 131.895L58.2965 129.487L57.0172 131.817L61.3997 134.224ZM62.679 131.895L66.3769 135.26L68.6894 132.719L64.9915 129.354L61.2936 125.988L58.9811 128.529L62.679 131.895ZM64.9915 129.354H69.9915V115.605H64.9915H59.9915V129.354H64.9915ZM64.9915 115.605V110.605H53.1223V115.605V120.605H64.9915V115.605ZM53.1223 115.605L49.5868 112.07L47.4862 114.171L51.0217 117.706L54.5573 121.242L56.6578 119.141L53.1223 115.605ZM51.0217 117.706L47.4864 114.17C46.6499 115.007 45.2937 115.007 44.4575 114.17L40.9221 117.706L37.3867 121.242C42.1283 125.983 49.8156 125.983 54.557 121.242L51.0217 117.706ZM40.9221 117.706L44.458 114.171L39.0595 108.771L35.5237 112.307L31.9878 115.842L37.3863 121.241L40.9221 117.706ZM35.5237 112.307L39.0592 108.771C38.2228 107.935 38.2228 106.579 39.0592 105.743L35.5237 102.207L31.9881 98.6715C27.2465 103.413 27.2465 111.101 31.9881 115.842L35.5237 112.307ZM35.5237 102.207L39.0592 105.743L45.6061 99.1957L42.0706 95.6602L38.535 92.1246L31.9881 98.6715L35.5237 102.207ZM42.0706 95.6602L45.6061 99.1957C45.8256 98.9762 46.0699 98.821 46.326 98.7193L44.4807 94.0723L42.6354 89.4252C41.1363 90.0205 39.7358 90.9238 38.5351 92.1246L42.0706 95.6602ZM44.4807 94.0723L48.2967 97.3031L48.4207 97.1566L44.6047 93.9258L40.7888 90.6949L40.6647 90.8414L44.4807 94.0723ZM44.6047 93.9258L46.8346 98.401L48.2457 97.6979L46.0159 93.2227L43.786 88.7474L42.3749 89.4506L44.6047 93.9258ZM46.0159 93.2227L46.4141 98.2068L49.3232 97.9743L48.925 92.9902L48.5269 88.0061L45.6177 88.2385L46.0159 93.2227ZM48.925 92.9902V97.9902H60.2297V92.9902V87.9902H48.925V92.9902ZM60.2297 92.9902H65.2297V18.0859H60.2297H55.2297V92.9902H60.2297ZM60.2297 18.0859L65.2216 18.3719L65.5155 13.2411L60.5237 12.9551L55.5319 12.6691L55.2379 17.8L60.2297 18.0859ZM60.5237 12.9551L65.2323 14.6369L66.12 12.1515L61.4114 10.4697L56.7027 8.78793L55.815 11.2733L60.5237 12.9551ZM61.4114 10.4697L65.2175 13.7122L66.7175 11.9515L62.9114 8.70898L59.1053 5.46652L57.6053 7.22726L61.4114 10.4697ZM62.9114 8.70898L65.361 13.0678L65.5973 12.935L63.1477 8.57617L60.6981 4.21733L60.4618 4.35014L62.9114 8.70898ZM63.1477 8.57617L66.8432 11.9441L69.9057 8.58378L66.2102 5.21582L62.5147 1.84786L59.4522 5.20821L63.1477 8.57617ZM66.2102 5.21582L69.5771 8.91228L73.4658 5.37029L70.0989 1.67383L66.732 -2.02264L62.8433 1.51936L66.2102 5.21582ZM70.0989 1.67383L72.5136 6.05207L74.8349 4.77179L72.4202 0.393555L70.0054 -3.98468L67.6841 -2.70441L70.0989 1.67383ZM72.4202 0.393555L73.3183 5.31223L75.4736 4.91867L74.5754 0L73.6773 -4.91867L71.522 -4.52512L72.4202 0.393555ZM74.5754 0L73.6648 4.91637L75.821 5.31578L76.7317 0.399414L77.6424 -4.51695L75.4861 -4.91637L74.5754 0Z" fill="#4C2416" mask="url(#path-1-inside-1_1205_462)"/>
<path d="M71.1512 11.5785V11.5785L72.709 10.1604L73.6403 9.64955L74.5062 9.49483L75.3738 9.65904L76.3107 10.1801L77.8841 11.6153V11.6153L79.3193 13.1887L79.8404 14.1256L80.0046 14.9933L79.8499 15.8591L79.339 16.7904L77.921 18.3482V18.3482L76.3632 19.7663L75.4319 20.2771L74.566 20.4318L73.6984 20.2676L72.7615 19.7466L71.1881 18.3114V18.3114L69.7529 16.738L69.2318 15.8011L69.0676 14.9334L69.2223 14.0675L69.7332 13.1363L71.1512 11.5785Z" fill="#813B24"/>
<path d="M68.5615 20.6423L68.6841 16.4914L69.0537 14.4807L69.679 13.0568L70.5864 12.0756L71.8677 11.4955L74.5129 11.3032L77.1581 11.4955L78.4394 12.0756L79.3468 13.0568L79.9721 14.4807L80.3418 16.4914L80.4643 20.6423V87.6641L80.3418 91.815L79.9721 93.8257L79.3468 95.2496L78.4394 96.2308L77.1581 96.8109L74.5129 97.0032L71.8677 96.8109L70.5864 96.2308L69.679 95.2496L69.0537 93.8257L68.6841 91.815L68.5615 87.6641V20.6423Z" fill="#813B24"/>
<path d="M70.9421 23.5646L71.0157 19.7019L71.2375 17.8309L71.6126 16.5058L72.1571 15.5928L72.9258 15.0529L74.513 14.874L76.1001 15.0529L76.8689 15.5928L77.4133 16.5058L77.7885 17.8309L78.0103 19.7019L78.0838 23.5646V85.932L78.0103 89.7947L77.7885 91.6658L77.4133 92.9908L76.8689 93.9038L76.1001 94.4437L74.513 94.6226L72.9258 94.4437L72.1571 93.9038L71.6126 92.9908L71.2375 91.6658L71.0157 89.7947L70.9421 85.932V23.5646Z" fill="#AD563A"/>
<path d="M48.3269 104.298L48.439 102.976L48.7782 102.335L49.3515 101.881L50.1827 101.568L51.3581 101.383L53.7823 101.322H96.4339L98.8581 101.383L100.034 101.568L100.865 101.881L101.438 102.335L101.777 102.976L101.889 104.298L101.777 105.62L101.438 106.261L100.865 106.715L100.034 107.027L98.8581 107.213L96.4339 107.274H53.7823L51.3581 107.213L50.1827 107.027L49.3515 106.715L48.7782 106.261L48.439 105.62L48.3269 104.298Z" fill="#813B24"/>
<path d="M71.9133 134.127L73.1856 132.967L73.9426 132.546L74.6431 132.412L75.3417 132.536L76.0923 132.947L77.3471 134.09L78.4888 135.345L78.8995 136.096L79.0229 136.795L78.8888 137.495L78.4667 138.252L77.3057 139.523L76.0335 140.683L75.2764 141.105L74.5759 141.239L73.8774 141.115L73.1267 140.704L71.872 139.561L70.7302 138.306L70.3196 137.555L70.1962 136.856L70.3302 136.156L70.7523 135.399L71.9133 134.127Z" fill="#813B24"/>
<path d="M72.7193 15.0517V15.0517L73.5706 14.2746L74.0768 13.9917L74.5449 13.9014L75.0114 13.983L75.5124 14.2564L76.3492 15.0176V15.0176L77.1104 15.8545L77.3839 16.3555L77.4654 16.8219L77.3751 17.2901L77.0922 17.7963L76.3151 18.6475V18.6475L75.4638 19.4246L74.9576 19.7075L74.4895 19.7979L74.023 19.7163L73.522 19.4428L72.6852 18.6816V18.6816L71.924 17.8448L71.6505 17.3438L71.569 16.8773L71.6593 16.4092L71.9422 15.903L72.7193 15.0517Z" fill="#AD563A"/>
</g>
<defs>
<clipPath id="clip0_1205_462">
<rect width="150" height="150" fill="white"/>
</clipPath>
</defs>
</svg>
