<svg width="150" height="150" viewBox="0 0 150 150" fill="none" xmlns="http://www.w3.org/2000/svg">
<mask id="path-1-inside-1_1205_468" fill="white">
<path d="M72.9775 0.943359C73.8922 -0.314333 75.7679 -0.314333 76.6826 0.943359L87.5928 15.9453C87.9382 16.4202 88.0777 16.9944 88.0146 17.5508L88.2852 18.3086L88.5684 23.2451V91.3545L91.0361 93.4473H95.5322L98.9189 89.248C99.8357 88.1112 101.569 88.1112 102.485 89.248L102.709 89.5254L104.246 84.7119C104.924 82.5866 107.932 82.5866 108.61 84.7119L114.795 104.092C114.939 104.545 114.939 105.031 114.795 105.484L108.61 124.863C107.932 126.989 104.924 126.989 104.246 124.863L102.709 120.049L102.485 120.328C101.569 121.465 99.8357 121.465 98.9189 120.328L94.7891 115.207H85.6387L83.9883 116.606V125.822L86.4873 129.344C87.0506 130.138 87.0507 131.201 86.4873 131.995L84.0361 135.448L85.6924 137.029C86.6373 137.932 86.6374 139.441 85.6924 140.343L76.4121 149.201C75.5271 150.046 74.1341 150.046 73.249 149.201L63.9688 140.343C63.0235 139.44 63.0235 137.932 63.9688 137.029L65.624 135.448L63.1738 131.995C62.6104 131.201 62.6104 130.138 63.1738 129.344L65.6641 125.835V116.599L64.0215 115.207H55.7393L51.9814 119.867C51.0646 121.004 49.3328 121.004 48.416 119.867L48.1904 119.587L46.6543 124.402C45.976 126.528 42.9693 126.528 42.291 124.402L36.1055 105.023C35.9609 104.571 35.961 104.084 36.1055 103.631L42.291 84.251C42.9695 82.126 45.9758 82.1261 46.6543 84.251L48.1904 89.0654L48.416 88.7871C49.3328 87.6503 51.0647 87.6503 51.9814 88.7871L55.7402 93.4473H58.624L61.083 91.3623V23.2451L61.3662 18.3086L61.6426 17.5312C61.585 16.9811 61.7261 16.4146 62.0674 15.9453L72.9775 0.943359Z"/>
</mask>
<path d="M72.9775 0.943359C73.8922 -0.314333 75.7679 -0.314333 76.6826 0.943359L87.5928 15.9453C87.9382 16.4202 88.0777 16.9944 88.0146 17.5508L88.2852 18.3086L88.5684 23.2451V91.3545L91.0361 93.4473H95.5322L98.9189 89.248C99.8357 88.1112 101.569 88.1112 102.485 89.248L102.709 89.5254L104.246 84.7119C104.924 82.5866 107.932 82.5866 108.61 84.7119L114.795 104.092C114.939 104.545 114.939 105.031 114.795 105.484L108.61 124.863C107.932 126.989 104.924 126.989 104.246 124.863L102.709 120.049L102.485 120.328C101.569 121.465 99.8357 121.465 98.9189 120.328L94.7891 115.207H85.6387L83.9883 116.606V125.822L86.4873 129.344C87.0506 130.138 87.0507 131.201 86.4873 131.995L84.0361 135.448L85.6924 137.029C86.6373 137.932 86.6374 139.441 85.6924 140.343L76.4121 149.201C75.5271 150.046 74.1341 150.046 73.249 149.201L63.9688 140.343C63.0235 139.44 63.0235 137.932 63.9688 137.029L65.624 135.448L63.1738 131.995C62.6104 131.201 62.6104 130.138 63.1738 129.344L65.6641 125.835V116.599L64.0215 115.207H55.7393L51.9814 119.867C51.0646 121.004 49.3328 121.004 48.416 119.867L48.1904 119.587L46.6543 124.402C45.976 126.528 42.9693 126.528 42.291 124.402L36.1055 105.023C35.9609 104.571 35.961 104.084 36.1055 103.631L42.291 84.251C42.9695 82.126 45.9758 82.1261 46.6543 84.251L48.1904 89.0654L48.416 88.7871C49.3328 87.6503 51.0647 87.6503 51.9814 88.7871L55.7402 93.4473H58.624L61.083 91.3623V23.2451L61.3662 18.3086L61.6426 17.5312C61.585 16.9811 61.7261 16.4146 62.0674 15.9453L72.9775 0.943359Z" fill="#632727"/>
<path d="M72.9775 0.943359L68.9339 -1.9975L68.9338 -1.99744L72.9775 0.943359ZM76.6826 0.943359L80.7263 -1.99744L80.7263 -1.9975L76.6826 0.943359ZM87.5928 15.9453L83.549 18.8861L83.5491 18.8862L87.5928 15.9453ZM88.0146 17.5508L83.0465 16.9875L82.9158 18.1396L83.3057 19.2317L88.0146 17.5508ZM88.2852 18.3086L93.2769 18.0222L93.2358 17.3046L92.9941 16.6277L88.2852 18.3086ZM88.5684 23.2451H93.5684V23.1018L93.5602 22.9587L88.5684 23.2451ZM88.5684 91.3545H83.5684V93.6702L85.3345 95.1679L88.5684 91.3545ZM91.0361 93.4473L87.8022 97.2606L89.2015 98.4473H91.0361V93.4473ZM95.5322 93.4473V98.4473H97.9232L99.4242 96.5862L95.5322 93.4473ZM98.9189 89.248L102.811 92.3869L102.811 92.3868L98.9189 89.248ZM102.485 89.248L106.378 86.1096L106.377 86.1093L102.485 89.248ZM102.709 89.5254L98.8167 92.6639L104.647 99.8941L107.472 91.0464L102.709 89.5254ZM104.246 84.7119L109.009 86.2329L109.009 86.2323L104.246 84.7119ZM108.61 84.7119L113.374 83.1918L113.374 83.1916L108.61 84.7119ZM114.795 104.092L119.558 102.572L119.558 102.572L114.795 104.092ZM114.795 105.484L110.032 103.964L110.032 103.964L114.795 105.484ZM108.61 124.863L113.374 126.383L113.374 126.383L108.61 124.863ZM104.246 124.863L109.009 123.343L109.009 123.343L104.246 124.863ZM102.709 120.049L107.472 118.528L104.635 109.643L98.806 116.924L102.709 120.049ZM102.485 120.328L106.377 123.467L106.383 123.46L106.388 123.453L102.485 120.328ZM98.9189 120.328L95.0269 123.467L95.0269 123.467L98.9189 120.328ZM94.7891 115.207L98.6811 112.068L97.1801 110.207H94.7891V115.207ZM85.6387 115.207V110.207H83.8042L82.405 111.393L85.6387 115.207ZM83.9883 116.606L80.7546 112.793L78.9883 114.291V116.606H83.9883ZM83.9883 125.822H78.9883V127.416L79.9107 128.716L83.9883 125.822ZM86.4873 129.344L90.565 126.45L90.5649 126.45L86.4873 129.344ZM86.4873 131.995L90.5645 134.889L90.5648 134.889L86.4873 131.995ZM84.0361 135.448L79.9589 132.554L77.4563 136.08L80.5837 139.065L84.0361 135.448ZM85.6924 137.029L89.1453 133.413L89.1449 133.413L85.6924 137.029ZM85.6924 140.343L89.1448 143.96L89.145 143.959L85.6924 140.343ZM76.4121 149.201L72.9597 145.584L72.9597 145.584L76.4121 149.201ZM73.249 149.201L69.7967 152.818L69.7969 152.818L73.249 149.201ZM63.9688 140.343L60.5164 143.96L60.5164 143.96L63.9688 140.343ZM63.9688 137.029L67.4212 140.646L67.4223 140.645L63.9688 137.029ZM65.624 135.448L69.0776 139.064L72.2025 136.079L69.7018 132.555L65.624 135.448ZM63.1738 131.995L67.2516 129.102L67.2514 129.101L63.1738 131.995ZM63.1738 129.344L59.0964 126.45L59.0963 126.45L63.1738 129.344ZM65.6641 125.835L69.7415 128.729L70.6641 127.429V125.835H65.6641ZM65.6641 116.599H70.6641V114.282L68.8961 112.784L65.6641 116.599ZM64.0215 115.207L67.2535 111.392L65.8548 110.207H64.0215V115.207ZM55.7393 115.207V110.207H53.348L51.847 112.068L55.7393 115.207ZM51.9814 119.867L55.8732 123.006L55.8737 123.006L51.9814 119.867ZM48.416 119.867L44.521 123.002L44.5241 123.006L48.416 119.867ZM48.1904 119.587L52.0855 116.452L46.2536 109.206L43.4269 118.067L48.1904 119.587ZM46.6543 124.402L51.4176 125.923L51.4178 125.922L46.6543 124.402ZM42.291 124.402L47.0543 122.882L47.0543 122.882L42.291 124.402ZM36.1055 105.023L31.3421 106.544L31.3422 106.544L36.1055 105.023ZM36.1055 103.631L31.3422 102.111L31.3419 102.111L36.1055 103.631ZM42.291 84.251L37.5279 82.7301L37.5278 82.7307L42.291 84.251ZM46.6543 84.251L51.4177 82.7311L51.4173 82.73L46.6543 84.251ZM48.1904 89.0654L43.427 90.5853L46.2425 99.4094L52.0747 92.2138L48.1904 89.0654ZM48.416 88.7871L52.3003 91.9355L52.3081 91.9259L48.416 88.7871ZM51.9814 88.7871L48.0894 91.9259L48.0896 91.9262L51.9814 88.7871ZM55.7402 93.4473L51.8484 96.5863L53.3494 98.4473H55.7402V93.4473ZM58.624 93.4473V98.4473H60.4584L61.8576 97.2609L58.624 93.4473ZM61.083 91.3623L64.3166 95.176L66.083 93.6782V91.3623H61.083ZM61.083 23.2451L56.0912 22.9587L56.083 23.1018V23.2451H61.083ZM61.3662 18.3086L56.6551 16.6337L56.4154 17.3079L56.3744 18.0222L61.3662 18.3086ZM61.6426 17.5312L66.3537 19.2062L66.7334 18.1382L66.6154 17.0108L61.6426 17.5312ZM62.0674 15.9453L58.0237 13.0045L58.0236 13.0046L62.0674 15.9453ZM72.9775 0.943359L77.0212 3.88422C75.9392 5.37205 73.721 5.37205 72.6389 3.88422L76.6826 0.943359L80.7263 -1.9975C77.8149 -6.00071 71.8453 -6.00071 68.9339 -1.9975L72.9775 0.943359ZM76.6826 0.943359L72.6389 3.88416L83.549 18.8861L87.5928 15.9453L91.6365 13.0045L80.7263 -1.99744L76.6826 0.943359ZM87.5928 15.9453L83.5491 18.8862C83.1345 18.3162 82.9734 17.6318 83.0465 16.9875L88.0146 17.5508L92.9828 18.1141C93.182 16.3571 92.7418 14.5243 91.6365 13.0045L87.5928 15.9453ZM88.0146 17.5508L83.3057 19.2317L83.5762 19.9895L88.2852 18.3086L92.9941 16.6277L92.7236 15.8699L88.0146 17.5508ZM88.2852 18.3086L83.2934 18.595L83.5766 23.5315L88.5684 23.2451L93.5602 22.9587L93.2769 18.0222L88.2852 18.3086ZM88.5684 23.2451H83.5684V91.3545H88.5684H93.5684V23.2451H88.5684ZM88.5684 91.3545L85.3345 95.1679L87.8022 97.2606L91.0361 93.4473L94.27 89.6339L91.8023 87.5411L88.5684 91.3545ZM91.0361 93.4473V98.4473H95.5322V93.4473V88.4473H91.0361V93.4473ZM95.5322 93.4473L99.4242 96.5862L102.811 92.3869L98.9189 89.248L95.027 86.1091L91.6403 90.3084L95.5322 93.4473ZM98.9189 89.248L102.811 92.3868C101.726 93.7316 99.6778 93.7316 98.5933 92.3868L102.485 89.248L106.377 86.1093C103.459 82.4908 97.945 82.4908 95.0269 86.1093L98.9189 89.248ZM102.485 89.248L98.5931 92.3865L98.8167 92.6639L102.709 89.5254L106.601 86.3869L106.378 86.1096L102.485 89.248ZM102.709 89.5254L107.472 91.0464L109.009 86.2329L104.246 84.7119L99.4831 83.1909L97.9459 88.0044L102.709 89.5254ZM104.246 84.7119L109.009 86.2323C108.207 88.7465 104.65 88.7465 103.847 86.2323L108.61 84.7119L113.374 83.1916C111.214 76.4267 101.642 76.4267 99.4828 83.1916L104.246 84.7119ZM108.61 84.7119L103.847 86.232L110.032 105.612L114.795 104.092L119.558 102.572L113.374 83.1918L108.61 84.7119ZM114.795 104.092L110.031 105.611C109.861 105.076 109.86 104.501 110.032 103.964L114.795 105.484L119.558 107.005C120.019 105.562 120.018 104.013 119.558 102.572L114.795 104.092ZM114.795 105.484L110.032 103.964L103.847 123.343L108.61 124.863L113.374 126.383L119.558 107.005L114.795 105.484ZM108.61 124.863L103.847 123.343C104.649 120.829 108.207 120.829 109.009 123.343L104.246 124.863L99.4828 126.383C101.642 133.149 111.215 133.149 113.374 126.383L108.61 124.863ZM104.246 124.863L109.009 123.343L107.472 118.528L102.709 120.049L97.9459 121.57L99.483 126.384L104.246 124.863ZM102.709 120.049L98.806 116.924L98.5823 117.203L102.485 120.328L106.388 123.453L106.612 123.174L102.709 120.049ZM102.485 120.328L98.5933 117.189C99.6779 115.844 101.726 115.845 102.811 117.189L98.9189 120.328L95.0269 123.467C97.945 127.085 103.459 127.085 106.377 123.467L102.485 120.328ZM98.9189 120.328L102.811 117.189L98.6811 112.068L94.7891 115.207L90.897 118.346L95.0269 123.467L98.9189 120.328ZM94.7891 115.207V110.207H85.6387V115.207V120.207H94.7891V115.207ZM85.6387 115.207L82.405 111.393L80.7546 112.793L83.9883 116.606L87.2219 120.42L88.8723 119.021L85.6387 115.207ZM83.9883 116.606H78.9883V125.822H83.9883H88.9883V116.606H83.9883ZM83.9883 125.822L79.9107 128.716L82.4097 132.237L86.4873 129.344L90.5649 126.45L88.0659 122.929L83.9883 125.822ZM86.4873 129.344L82.4096 132.237C81.7434 131.298 81.743 130.041 82.4098 129.101L86.4873 131.995L90.5648 134.889C92.3584 132.362 92.3579 128.977 90.565 126.45L86.4873 129.344ZM86.4873 131.995L82.4101 129.101L79.9589 132.554L84.0361 135.448L88.1134 138.342L90.5645 134.889L86.4873 131.995ZM84.0361 135.448L80.5837 139.065L82.2399 140.646L85.6924 137.029L89.1449 133.413L87.4886 131.832L84.0361 135.448ZM85.6924 137.029L82.2394 140.646C81.122 139.579 81.1213 137.794 82.2398 136.726L85.6924 140.343L89.145 143.959C92.1536 141.087 92.1527 136.285 89.1453 133.413L85.6924 137.029ZM85.6924 140.343L82.24 136.726L72.9597 145.584L76.4121 149.201L79.8645 152.818L89.1448 143.96L85.6924 140.343ZM76.4121 149.201L72.9597 145.584C74.0071 144.585 75.6544 144.585 76.7011 145.584L73.249 149.201L69.7969 152.818C72.6138 155.507 77.0471 155.507 79.8645 152.818L76.4121 149.201ZM73.249 149.201L76.7014 145.584L67.4211 136.726L63.9688 140.343L60.5164 143.96L69.7967 152.818L73.249 149.201ZM63.9688 140.343L67.4211 136.726C68.5395 137.794 68.5393 139.579 67.4212 140.646L63.9688 137.029L60.5163 133.413C57.5078 136.285 57.5075 141.087 60.5164 143.96L63.9688 140.343ZM63.9688 137.029L67.4223 140.645L69.0776 139.064L65.624 135.448L62.1705 131.833L60.5152 133.414L63.9688 137.029ZM65.624 135.448L69.7018 132.555L67.2516 129.102L63.1738 131.995L59.0961 134.889L61.5463 138.342L65.624 135.448ZM63.1738 131.995L67.2514 129.101C67.9179 130.041 67.9179 131.298 67.2514 132.237L63.1738 129.344L59.0963 126.45C57.3029 128.977 57.3029 132.362 59.0963 134.889L63.1738 131.995ZM63.1738 129.344L67.2513 132.238L69.7415 128.729L65.6641 125.835L61.5866 122.941L59.0964 126.45L63.1738 129.344ZM65.6641 125.835H70.6641V116.599H65.6641H60.6641V125.835H65.6641ZM65.6641 116.599L68.8961 112.784L67.2535 111.392L64.0215 115.207L60.7894 119.022L62.432 120.414L65.6641 116.599ZM64.0215 115.207V110.207H55.7393V115.207V120.207H64.0215V115.207ZM55.7393 115.207L51.847 112.068L48.0892 116.729L51.9814 119.867L55.8737 123.006L59.6315 118.346L55.7393 115.207ZM51.9814 119.867L48.0897 116.728C49.174 115.384 51.2231 115.383 52.3079 116.728L48.416 119.867L44.5241 123.006C47.4424 126.625 52.9553 126.624 55.8732 123.006L51.9814 119.867ZM48.416 119.867L52.3111 116.732L52.0855 116.452L48.1904 119.587L44.2954 122.722L44.521 123.002L48.416 119.867ZM48.1904 119.587L43.4269 118.067L41.8908 122.883L46.6543 124.402L51.4178 125.922L52.9539 121.106L48.1904 119.587ZM46.6543 124.402L41.891 122.882C42.6934 120.368 46.2519 120.368 47.0543 122.882L42.291 124.402L37.5277 125.923C39.6868 132.688 49.2585 132.688 51.4176 125.923L46.6543 124.402ZM42.291 124.402L47.0543 122.882L40.8687 103.503L36.1055 105.023L31.3422 106.544L37.5278 125.923L42.291 124.402ZM36.1055 105.023L40.8688 103.503C41.04 104.04 41.0397 104.615 40.869 105.15L36.1055 103.631L31.3419 102.111C30.8823 103.552 30.8819 105.101 31.3421 106.544L36.1055 105.023ZM36.1055 103.631L40.8687 105.151L47.0543 85.7713L42.291 84.251L37.5278 82.7307L31.3422 102.111L36.1055 103.631ZM42.291 84.251L47.0541 85.7718C46.2513 88.2861 42.6939 88.2854 41.8912 85.7719L46.6543 84.251L51.4173 82.73C49.2577 75.9667 39.6877 75.966 37.5279 82.7301L42.291 84.251ZM46.6543 84.251L41.8909 85.7708L43.427 90.5853L48.1904 89.0654L52.9538 87.5456L51.4177 82.7311L46.6543 84.251ZM48.1904 89.0654L52.0747 92.2138L52.3003 91.9355L48.416 88.7871L44.5317 85.6388L44.3061 85.9171L48.1904 89.0654ZM48.416 88.7871L52.3081 91.9259C51.2235 93.2707 49.1739 93.2707 48.0894 91.9259L51.9814 88.7871L55.8735 85.6483C52.9554 82.0299 47.4421 82.0299 44.524 85.6483L48.416 88.7871ZM51.9814 88.7871L48.0896 91.9262L51.8484 96.5863L55.7402 93.4473L59.6321 90.3082L55.8733 85.648L51.9814 88.7871ZM55.7402 93.4473V98.4473H58.624V93.4473V88.4473H55.7402V93.4473ZM58.624 93.4473L61.8576 97.2609L64.3166 95.176L61.083 91.3623L57.8494 87.5487L55.3904 89.6336L58.624 93.4473ZM61.083 91.3623H66.083V23.2451H61.083H56.083V91.3623H61.083ZM61.083 23.2451L66.0748 23.5315L66.358 18.595L61.3662 18.3086L56.3744 18.0222L56.0912 22.9587L61.083 23.2451ZM61.3662 18.3086L66.0773 19.9835L66.3537 19.2062L61.6426 17.5312L56.9315 15.8563L56.6551 16.6337L61.3662 18.3086ZM61.6426 17.5312L66.6154 17.0108C66.6826 17.6528 66.518 18.3265 66.1112 18.886L62.0674 15.9453L58.0236 13.0046C56.9342 14.5027 56.4874 16.3094 56.6697 18.0517L61.6426 17.5312ZM62.0674 15.9453L66.1111 18.8861L77.0213 3.88416L72.9775 0.943359L68.9338 -1.99744L58.0237 13.0045L62.0674 15.9453Z" fill="#471E1E" mask="url(#path-1-inside-1_1205_468)"/>
<path d="M76.7361 13.8523C75.8294 12.4924 73.8311 12.4924 72.9245 13.8523L69.9512 18.3123C69.4383 19.0817 69.4383 20.084 69.9512 20.8533L72.9245 25.3133C73.8311 26.6732 75.8294 26.6732 76.7361 25.3133L79.7094 20.8533C80.2223 20.084 80.2223 19.0817 79.7094 18.3123L76.7361 13.8523Z" fill="#7D3131"/>
<path d="M76.3969 96.0633C75.5159 95.2374 74.1449 95.2374 73.2639 96.0633L67.451 101.513C66.4858 102.418 66.4858 103.95 67.451 104.855L73.2639 110.304C74.1449 111.13 75.5159 111.13 76.3969 110.304L82.2098 104.855C83.175 103.95 83.175 102.418 82.2098 101.513L76.3969 96.0633Z" fill="#7D3131"/>
<path d="M51.7335 100.605C51.2802 99.9251 50.2811 99.9251 49.8278 100.605L47.7685 103.694C47.512 104.079 47.512 104.58 47.7685 104.965L49.8278 108.053C50.2811 108.733 51.2802 108.733 51.7335 108.053L53.7928 104.965C54.0493 104.58 54.0493 104.079 53.7928 103.694L51.7335 100.605Z" fill="#7D3131"/>
<path d="M102.123 100.605C101.67 99.9251 100.671 99.9251 100.218 100.605L98.1584 103.694C97.9019 104.079 97.9019 104.58 98.1584 104.965L100.218 108.053C100.671 108.733 101.67 108.733 102.123 108.053L104.183 104.965C104.439 104.58 104.439 104.079 104.183 103.694L102.123 100.605Z" fill="#7D3131"/>
<rect x="50.5906" y="101.466" width="50.3897" height="5.72611" fill="#7D3131"/>
<path d="M69.1042 25.0813L69.2221 21.3648L69.5778 19.5646L70.1794 18.2897L71.0525 17.4113L72.2853 16.8919L74.8304 16.7197L77.3754 16.8919L78.6082 17.4113L79.4813 18.2897L80.0829 19.5646L80.4386 21.3648L80.5565 25.0813V85.088L80.4386 88.8045L80.0829 90.6047L79.4813 91.8796L78.6082 92.758L77.3754 93.2774L74.8304 93.4496L72.2853 93.2774L71.0525 92.758L70.1794 91.8796L69.5778 90.6047L69.2221 88.8045L69.1042 85.088V25.0813Z" fill="#7D3131"/>
<path d="M71.3948 27.7681L71.4655 24.3844L71.6789 22.7454L72.0399 21.5847L72.5637 20.7849L73.3034 20.312L74.8304 20.1553L76.3575 20.312L77.0972 20.7849L77.621 21.5847L77.982 22.7454L78.1954 24.3844L78.2661 27.7681V82.401L78.1954 85.7847L77.982 87.4237L77.621 88.5844L77.0972 89.3842L76.3575 89.8571L74.8304 90.0138L73.3034 89.8571L72.5637 89.3842L72.0399 88.5844L71.6789 87.4237L71.4655 85.7847L71.3948 82.401V27.7681Z" fill="#B24646"/>
<path d="M75.8125 18.3564C75.3677 17.6151 74.2932 17.6151 73.8484 18.3564L71.7483 21.8566C71.5307 22.2193 71.5307 22.6724 71.7483 23.035L73.8484 26.5352C74.2932 27.2766 75.3677 27.2766 75.8125 26.5352L77.9126 23.035C78.1302 22.6724 78.1302 22.2193 77.9126 21.8566L75.8125 18.3564Z" fill="#B24646"/>
<path d="M76.3625 99.4093C75.4914 98.6253 74.1691 98.6253 73.2981 99.4093L70.9958 101.481C69.9849 102.391 69.9849 103.976 70.9958 104.886L73.2981 106.958C74.1691 107.742 75.4914 107.742 76.3625 106.958L78.6648 104.886C79.6757 103.976 79.6757 102.391 78.6648 101.481L76.3625 99.4093Z" fill="#B24646"/>
</svg>
