<svg width="150" height="150" viewBox="0 0 150 150" fill="none" xmlns="http://www.w3.org/2000/svg">
<mask id="path-1-inside-1_1212_70728" fill="white">
<path d="M78.9951 15.2246L81.2129 15.9014L82.7832 17.0479L83.8652 18.7119L84.5039 21.0615L84.7158 25.9092V139.091L84.5039 143.938L83.8652 146.288L82.7832 147.952L81.2129 149.099L78.9951 149.775L74.4189 150L69.8438 149.775L67.626 149.099L66.0557 147.952L64.9736 146.288L64.335 143.938L64.123 139.091V25.9092L64.335 21.0615L64.9736 18.7119L66.0557 17.0479L67.626 15.9014L69.8438 15.2246L74.4189 15L78.9951 15.2246Z"/>
</mask>
<path d="M78.9951 15.2246L81.2129 15.9014L82.7832 17.0479L83.8652 18.7119L84.5039 21.0615L84.7158 25.9092V139.091L84.5039 143.938L83.8652 146.288L82.7832 147.952L81.2129 149.099L78.9951 149.775L74.4189 150L69.8438 149.775L67.626 149.099L66.0557 147.952L64.9736 146.288L64.335 143.938L64.123 139.091V25.9092L64.335 21.0615L64.9736 18.7119L66.0557 17.0479L67.626 15.9014L69.8438 15.2246L74.4189 15L78.9951 15.2246Z" fill="#4A301F"/>
<path d="M78.9951 15.2246L80.4544 10.4423L79.8605 10.2611L79.2402 10.2306L78.9951 15.2246ZM81.2129 15.9014L84.1612 11.8631L83.4795 11.3654L82.6722 11.1191L81.2129 15.9014ZM82.7832 17.0479L86.975 14.3222L86.4739 13.5516L85.7315 13.0096L82.7832 17.0479ZM83.8652 18.7119L88.6902 17.4004L88.4845 16.6437L88.057 15.9863L83.8652 18.7119ZM84.5039 21.0615L89.4991 20.8432L89.4748 20.2871L89.3288 19.75L84.5039 21.0615ZM84.7158 25.9092H89.7158V25.7999L89.7111 25.6908L84.7158 25.9092ZM84.7158 139.091L89.7111 139.309L89.7158 139.2V139.091H84.7158ZM84.5039 143.938L89.3288 145.25L89.4748 144.713L89.4991 144.157L84.5039 143.938ZM83.8652 146.288L88.057 149.014L88.4845 148.356L88.6902 147.6L83.8652 146.288ZM82.7832 147.952L85.7315 151.99L86.4739 151.448L86.975 150.678L82.7832 147.952ZM81.2129 149.099L82.6722 153.881L83.4795 153.635L84.1612 153.137L81.2129 149.099ZM78.9951 149.775L79.2402 154.769L79.8605 154.739L80.4544 154.558L78.9951 149.775ZM74.4189 150L74.1738 154.994L74.4189 155.006L74.6641 154.994L74.4189 150ZM69.8438 149.775L68.3844 154.558L68.9784 154.739L69.5986 154.769L69.8438 149.775ZM67.626 149.099L64.6777 153.137L65.3594 153.635L66.1666 153.881L67.626 149.099ZM66.0557 147.952L61.8639 150.678L62.365 151.448L63.1073 151.99L66.0557 147.952ZM64.9736 146.288L60.1487 147.6L60.3544 148.356L60.7819 149.014L64.9736 146.288ZM64.335 143.938L59.3397 144.157L59.364 144.713L59.51 145.25L64.335 143.938ZM64.123 139.091H59.123V139.2L59.1278 139.309L64.123 139.091ZM64.123 25.9092L59.1278 25.6908L59.123 25.7999V25.9092H64.123ZM64.335 21.0615L59.51 19.75L59.364 20.2871L59.3397 20.8432L64.335 21.0615ZM64.9736 18.7119L60.7819 15.9863L60.3544 16.6437L60.1487 17.4004L64.9736 18.7119ZM66.0557 17.0479L63.1073 13.0096L62.365 13.5516L61.8639 14.3222L66.0557 17.0479ZM67.626 15.9014L66.1666 11.1191L65.3594 11.3654L64.6777 11.8631L67.626 15.9014ZM69.8438 15.2246L69.5986 10.2306L68.9784 10.2611L68.3844 10.4423L69.8438 15.2246ZM74.4189 15L74.6641 10.006L74.4189 9.99398L74.1738 10.006L74.4189 15ZM78.9951 15.2246L77.5358 20.0069L79.7536 20.6837L81.2129 15.9014L82.6722 11.1191L80.4544 10.4423L78.9951 15.2246ZM81.2129 15.9014L78.2646 19.9396L79.8349 21.0861L82.7832 17.0479L85.7315 13.0096L84.1612 11.8631L81.2129 15.9014ZM82.7832 17.0479L78.5914 19.7735L79.6735 21.4375L83.8652 18.7119L88.057 15.9863L86.975 14.3222L82.7832 17.0479ZM83.8652 18.7119L79.0403 20.0234L79.679 22.373L84.5039 21.0615L89.3288 19.75L88.6902 17.4004L83.8652 18.7119ZM84.5039 21.0615L79.5087 21.2799L79.7206 26.1275L84.7158 25.9092L89.7111 25.6908L89.4991 20.8432L84.5039 21.0615ZM84.7158 25.9092H79.7158V139.091H84.7158H89.7158V25.9092H84.7158ZM84.7158 139.091L79.7206 138.872L79.5087 143.72L84.5039 143.938L89.4991 144.157L89.7111 139.309L84.7158 139.091ZM84.5039 143.938L79.679 142.627L79.0403 144.977L83.8652 146.288L88.6902 147.6L89.3288 145.25L84.5039 143.938ZM83.8652 146.288L79.6735 143.562L78.5914 145.227L82.7832 147.952L86.975 150.678L88.057 149.014L83.8652 146.288ZM82.7832 147.952L79.8349 143.914L78.2646 145.06L81.2129 149.099L84.1612 153.137L85.7315 151.99L82.7832 147.952ZM81.2129 149.099L79.7536 144.316L77.5358 144.993L78.9951 149.775L80.4544 154.558L82.6722 153.881L81.2129 149.099ZM78.9951 149.775L78.75 144.781L74.1738 145.006L74.4189 150L74.6641 154.994L79.2402 154.769L78.9951 149.775ZM74.4189 150L74.6641 145.006L70.0889 144.781L69.8438 149.775L69.5986 154.769L74.1738 154.994L74.4189 150ZM69.8438 149.775L71.3031 144.993L69.0853 144.316L67.626 149.099L66.1666 153.881L68.3844 154.558L69.8438 149.775ZM67.626 149.099L70.5743 145.06L69.004 143.914L66.0557 147.952L63.1073 151.99L64.6777 153.137L67.626 149.099ZM66.0557 147.952L70.2474 145.227L69.1654 143.562L64.9736 146.288L60.7819 149.014L61.8639 150.678L66.0557 147.952ZM64.9736 146.288L69.7986 144.977L69.1599 142.627L64.335 143.938L59.51 145.25L60.1487 147.6L64.9736 146.288ZM64.335 143.938L69.3302 143.72L69.1183 138.872L64.123 139.091L59.1278 139.309L59.3397 144.157L64.335 143.938ZM64.123 139.091H69.123V25.9092H64.123H59.123V139.091H64.123ZM64.123 25.9092L69.1183 26.1275L69.3302 21.2799L64.335 21.0615L59.3397 20.8432L59.1278 25.6908L64.123 25.9092ZM64.335 21.0615L69.1599 22.373L69.7986 20.0234L64.9736 18.7119L60.1487 17.4004L59.51 19.75L64.335 21.0615ZM64.9736 18.7119L69.1654 21.4375L70.2474 19.7735L66.0557 17.0479L61.8639 14.3222L60.7819 15.9863L64.9736 18.7119ZM66.0557 17.0479L69.004 21.0861L70.5743 19.9396L67.626 15.9014L64.6777 11.8631L63.1073 13.0096L66.0557 17.0479ZM67.626 15.9014L69.0853 20.6837L71.3031 20.0069L69.8438 15.2246L68.3844 10.4423L66.1666 11.1191L67.626 15.9014ZM69.8438 15.2246L70.0889 20.2186L74.6641 19.994L74.4189 15L74.1738 10.006L69.5986 10.2306L69.8438 15.2246ZM74.4189 15L74.1738 19.994L78.75 20.2186L78.9951 15.2246L79.2402 10.2306L74.6641 10.006L74.4189 15Z" fill="#322116" mask="url(#path-1-inside-1_1212_70728)"/>
<mask id="path-3-inside-2_1212_70728" fill="white">
<path d="M83.2041 24.1494C86.7274 24.1494 89.7837 26.1414 91.3135 29.0596L98.3789 27.25L112.817 25.6602C114.411 25.485 115.693 26.9646 115.294 28.5176L110.974 45.3174L115.102 61.8262C115.542 63.5878 113.861 65.1432 112.134 64.5859C107.389 63.0552 99.7076 60.7321 96.4902 60.6328C96.375 60.6292 96.2673 60.6122 96.1572 60.5771L90.8467 58.8848C89.8407 60.4087 88.3917 61.6124 86.6826 62.3154C87.5668 63.4709 88.0927 64.9151 88.0928 66.4824V71.0596C88.0925 74.8505 85.0195 77.9238 81.2285 77.9238H66.3555C62.5646 77.9238 59.4914 74.8504 59.4912 71.0596V66.4824C59.4913 64.8379 60.0698 63.3285 61.0342 62.1465C58.2135 60.8302 56.1755 58.12 55.8076 54.9004C42.0298 47.7183 31.1368 50.833 5.42188 57.2998C1.5917 58.263 -1.4833 54.2523 0.758789 51.0039C6.23119 43.0762 11.6399 38.7713 18.3584 33.8574C30.7827 24.7702 43.7077 24.0693 58.3799 26.8789C60.0398 25.1943 62.3475 24.1494 64.8994 24.1494H83.2041Z"/>
</mask>
<path d="M83.2041 24.1494C86.7274 24.1494 89.7837 26.1414 91.3135 29.0596L98.3789 27.25L112.817 25.6602C114.411 25.485 115.693 26.9646 115.294 28.5176L110.974 45.3174L115.102 61.8262C115.542 63.5878 113.861 65.1432 112.134 64.5859C107.389 63.0552 99.7076 60.7321 96.4902 60.6328C96.375 60.6292 96.2673 60.6122 96.1572 60.5771L90.8467 58.8848C89.8407 60.4087 88.3917 61.6124 86.6826 62.3154C87.5668 63.4709 88.0927 64.9151 88.0928 66.4824V71.0596C88.0925 74.8505 85.0195 77.9238 81.2285 77.9238H66.3555C62.5646 77.9238 59.4914 74.8504 59.4912 71.0596V66.4824C59.4913 64.8379 60.0698 63.3285 61.0342 62.1465C58.2135 60.8302 56.1755 58.12 55.8076 54.9004C42.0298 47.7183 31.1368 50.833 5.42188 57.2998C1.5917 58.263 -1.4833 54.2523 0.758789 51.0039C6.23119 43.0762 11.6399 38.7713 18.3584 33.8574C30.7827 24.7702 43.7077 24.0693 58.3799 26.8789C60.0398 25.1943 62.3475 24.1494 64.8994 24.1494H83.2041Z" fill="#818B91"/>
<path d="M91.3135 29.0596L86.8851 31.3811L88.7218 34.8847L92.554 33.9032L91.3135 29.0596ZM98.3789 27.25L97.8317 22.28L97.4806 22.3187L97.1384 22.4063L98.3789 27.25ZM112.817 25.6602L112.271 20.6901L112.27 20.6902L112.817 25.6602ZM115.294 28.5176L120.136 29.7629L120.136 29.7626L115.294 28.5176ZM110.974 45.3174L106.131 44.0721L105.815 45.3001L106.123 46.5303L110.974 45.3174ZM115.102 61.8262L119.952 60.6134L119.952 60.6133L115.102 61.8262ZM112.134 64.5859L113.669 59.8275L113.669 59.8275L112.134 64.5859ZM96.4902 60.6328L96.3353 65.6304L96.336 65.6304L96.4902 60.6328ZM96.1572 60.5771L94.639 65.3411L94.6401 65.3414L96.1572 60.5771ZM90.8467 58.8848L92.3649 54.1208L88.7589 52.9717L86.6739 56.1302L90.8467 58.8848ZM86.6826 62.3154L84.7805 57.6913L78.7472 60.1731L82.7119 65.354L86.6826 62.3154ZM88.0928 66.4824H93.0928V66.4821L88.0928 66.4824ZM88.0928 71.0596L93.0928 71.0599V71.0596H88.0928ZM81.2285 77.9238V82.9238H81.2286L81.2285 77.9238ZM66.3555 77.9238L66.3554 82.9238H66.3555V77.9238ZM59.4912 71.0596H54.4912V71.0599L59.4912 71.0596ZM59.4912 66.4824L54.4912 66.4821V66.4824H59.4912ZM61.0342 62.1465L64.9083 65.3073L68.9682 60.3313L63.1485 57.6155L61.0342 62.1465ZM55.8076 54.9004L60.7753 54.3327L60.4738 51.6942L58.1188 50.4666L55.8076 54.9004ZM5.42188 57.2998L4.20244 52.4508V52.4508L5.42188 57.2998ZM0.758789 51.0039L-3.35606 48.1635L-3.35618 48.1637L0.758789 51.0039ZM18.3584 33.8574L15.4067 29.8217L15.4067 29.8217L18.3584 33.8574ZM58.3799 26.8789L57.4395 31.7897L60.0651 32.2925L61.9414 30.3882L58.3799 26.8789ZM83.2041 24.1494V29.1494C84.7932 29.1494 86.1833 30.0423 86.8851 31.3811L91.3135 29.0596L95.7419 26.7381C93.3841 22.2405 88.6617 19.1494 83.2041 19.1494V24.1494ZM91.3135 29.0596L92.554 33.9032L99.6194 32.0937L98.3789 27.25L97.1384 22.4063L90.0729 24.2159L91.3135 29.0596ZM98.3789 27.25L98.9262 32.22L113.365 30.6301L112.817 25.6602L112.27 20.6902L97.8317 22.28L98.3789 27.25ZM112.817 25.6602L113.364 30.6302C111.48 30.8374 109.981 29.1031 110.451 27.2726L115.294 28.5176L120.136 29.7626C121.406 24.8261 117.342 20.1325 112.271 20.6901L112.817 25.6602ZM115.294 28.5176L110.452 27.2723L106.131 44.0721L110.974 45.3174L115.816 46.5627L120.136 29.7629L115.294 28.5176ZM110.974 45.3174L106.123 46.5303L110.251 63.0391L115.102 61.8262L119.952 60.6133L115.824 44.1045L110.974 45.3174ZM115.102 61.8262L110.251 63.039C109.727 60.9453 111.71 59.1954 113.669 59.8275L112.134 64.5859L110.599 69.3444C116.012 71.091 121.357 66.2304 119.952 60.6134L115.102 61.8262ZM112.134 64.5859L113.669 59.8275C111.262 59.0509 108.068 58.0594 105.039 57.2443C102.193 56.4788 98.9233 55.7055 96.6444 55.6352L96.4902 60.6328L96.336 65.6304C97.2746 65.6594 99.4539 66.0973 102.44 66.9008C105.242 67.6548 108.261 68.5902 110.599 69.3444L112.134 64.5859ZM96.4902 60.6328L96.6452 55.6352C96.9505 55.6447 97.3049 55.6952 97.6744 55.8129L96.1572 60.5771L94.6401 65.3414C95.2296 65.5292 95.7995 65.6138 96.3353 65.6304L96.4902 60.6328ZM96.1572 60.5771L97.6754 55.8132L92.3649 54.1208L90.8467 58.8848L89.3285 63.6487L94.639 65.3411L96.1572 60.5771ZM90.8467 58.8848L86.6739 56.1302C86.2149 56.8255 85.5534 57.3734 84.7805 57.6913L86.6826 62.3154L88.5847 66.9395C91.2299 65.8514 93.4666 63.9919 95.0195 61.6393L90.8467 58.8848ZM86.6826 62.3154L82.7119 65.354C82.9528 65.6689 83.0927 66.0529 83.0928 66.4827L88.0928 66.4824L93.0928 66.4821C93.0926 63.7773 92.1809 61.2729 90.6534 59.2768L86.6826 62.3154ZM88.0928 66.4824H83.0928V71.0596H88.0928H93.0928V66.4824H88.0928ZM88.0928 71.0596L83.0928 71.0593C83.0927 72.0892 82.2578 72.9238 81.2285 72.9238L81.2285 77.9238L81.2286 82.9238C87.7811 82.9238 93.0924 77.6117 93.0928 71.0599L88.0928 71.0596ZM81.2285 77.9238V72.9238H66.3555V77.9238V82.9238H81.2285V77.9238ZM66.3555 77.9238L66.3555 72.9238C65.3262 72.9238 64.4913 72.0892 64.4912 71.0593L59.4912 71.0596L54.4912 71.0599C54.4916 77.6117 59.8029 82.9237 66.3554 82.9238L66.3555 77.9238ZM59.4912 71.0596H64.4912V66.4824H59.4912H54.4912V71.0596H59.4912ZM59.4912 66.4824L64.4912 66.4827C64.4912 66.0316 64.6452 65.6298 64.9083 65.3073L61.0342 62.1465L57.16 58.9856C55.4943 61.0273 54.4914 63.6442 54.4912 66.4821L59.4912 66.4824ZM61.0342 62.1465L63.1485 57.6155C61.859 57.0138 60.9403 55.777 60.7753 54.3327L55.8076 54.9004L50.8399 55.4681C51.4107 60.4629 54.5679 64.6466 58.9198 66.6774L61.0342 62.1465ZM55.8076 54.9004L58.1188 50.4666C42.3103 42.226 29.2974 46.1399 4.20244 52.4508L5.42188 57.2998L6.64131 62.1488C32.9763 55.5261 41.7492 53.2106 53.4964 59.3341L55.8076 54.9004ZM5.42188 57.2998L4.20244 52.4508C4.20215 52.4509 4.23596 52.4429 4.29649 52.4462C4.35573 52.4493 4.42184 52.4622 4.48841 52.4867C4.61633 52.5337 4.72657 52.6158 4.81172 52.7292C4.89803 52.8441 4.98849 53.0343 4.99887 53.2929C5.01055 53.5838 4.91337 53.7868 4.87376 53.8442L0.758789 51.0039L-3.35618 48.1637C-5.79172 51.6923 -5.34268 55.8597 -3.18526 58.7332C-1.06886 61.5521 2.67906 63.1453 6.64131 62.1488L5.42188 57.2998ZM0.758789 51.0039L4.87364 53.8443C9.86803 46.6091 14.7399 42.6987 21.3101 37.8932L18.3584 33.8574L15.4067 29.8217C8.53997 34.844 2.59435 39.5433 -3.35606 48.1635L0.758789 51.0039ZM18.3584 33.8574L21.3101 37.8932C32.2027 29.9263 43.5311 29.1263 57.4395 31.7897L58.3799 26.8789L59.3203 21.9681C43.8843 19.0123 29.3627 19.6142 15.4067 29.8217L18.3584 33.8574ZM58.3799 26.8789L61.9414 30.3882C62.7009 29.6175 63.7413 29.1494 64.8994 29.1494V24.1494V19.1494C60.9538 19.1494 57.3788 20.7711 54.8183 23.3696L58.3799 26.8789ZM64.8994 24.1494V29.1494H83.2041V24.1494V19.1494H64.8994V24.1494Z" fill="#474E52" mask="url(#path-3-inside-2_1212_70728)"/>
<path d="M41.2414 35.0202C50.394 33.8761 54.9709 36.1656 65.267 37.3088L86.8063 39.5765C86.9375 39.5903 87.0701 39.5813 87.198 39.5499L96.3221 37.3088L102.139 36.0365C103.018 35.8441 103.769 36.6992 103.465 37.5467L100.837 44.8731C100.735 45.1578 100.75 45.4721 100.879 45.747L103.184 50.6605C103.586 51.5192 102.835 52.4631 101.91 52.2607L96.4245 51.0605C96.3564 51.0456 96.2898 51.0245 96.2254 50.9975L88.5454 47.7726C88.2895 47.6651 88.0038 47.6541 87.7414 47.7415L83.2299 49.2454C83.0784 49.2959 82.9182 49.3082 82.7593 49.3251C81.2291 49.4872 77.8907 52.1027 66.7221 51.0676C66.5219 51.0491 66.3223 50.9745 66.158 50.8576C54.8593 42.8184 47.0027 39.4012 24.7316 43.9842C23.6417 44.2085 22.904 42.9441 23.7272 42.1973C27.808 38.4956 32.8658 36.0671 41.2414 35.0202Z" fill="#A1AEB6"/>
<rect x="83.5723" y="34.4492" width="18.3051" height="18.3051" rx="2.28814" transform="rotate(90 83.5723 34.4492)" fill="#A1AEB6"/>
<rect x="80.1399" y="37.8813" width="11.4407" height="11.4407" rx="2.28814" transform="rotate(90 80.1399 37.8813)" fill="#C3CFD9"/>
</svg>
