<svg width="150" height="150" viewBox="0 0 150 150" fill="none" xmlns="http://www.w3.org/2000/svg">
<g clip-path="url(#clip0_1212_70692)">
<mask id="path-1-inside-1_1212_70692" fill="white">
<path d="M79.6516 16.2246L81.8684 16.9014L83.4387 18.0479L84.5217 19.7119L85.1604 22.0615L85.3723 26.9092V140.091L85.1604 144.938L84.5217 147.288L83.4387 148.952L81.8684 150.099L79.6516 150.775L75.0754 151L70.5002 150.775L68.2825 150.099L66.7122 148.952L65.6301 147.288L64.9915 144.938L64.7795 140.091V26.9092L64.9915 22.0615L65.6301 19.7119L66.7122 18.0479L68.2825 16.9014L70.5002 16.2246L75.0754 16L79.6516 16.2246Z"/>
</mask>
<path d="M79.6516 16.2246L81.8684 16.9014L83.4387 18.0479L84.5217 19.7119L85.1604 22.0615L85.3723 26.9092V140.091L85.1604 144.938L84.5217 147.288L83.4387 148.952L81.8684 150.099L79.6516 150.775L75.0754 151L70.5002 150.775L68.2825 150.099L66.7122 148.952L65.6301 147.288L64.9915 144.938L64.7795 140.091V26.9092L64.9915 22.0615L65.6301 19.7119L66.7122 18.0479L68.2825 16.9014L70.5002 16.2246L75.0754 16L79.6516 16.2246Z" fill="#4A301F"/>
<path d="M79.6516 16.2246L81.1115 11.4425L80.5173 11.2611L79.8967 11.2306L79.6516 16.2246ZM81.8684 16.9014L84.8167 12.8631L84.1353 12.3656L83.3283 12.1192L81.8684 16.9014ZM83.4387 18.0479L87.6294 15.3205L87.1286 14.551L86.387 14.0096L83.4387 18.0479ZM84.5217 19.7119L89.3467 18.4004L89.1407 17.6427L88.7124 16.9846L84.5217 19.7119ZM85.1604 22.0615L90.1556 21.8432L90.1313 21.2871L89.9853 20.75L85.1604 22.0615ZM85.3723 26.9092H90.3723V26.7999L90.3675 26.6908L85.3723 26.9092ZM85.3723 140.091L90.3675 140.309L90.3723 140.2V140.091H85.3723ZM85.1604 144.938L89.9853 146.25L90.1313 145.713L90.1556 145.157L85.1604 144.938ZM84.5217 147.288L88.7124 150.015L89.1407 149.357L89.3467 148.6L84.5217 147.288ZM83.4387 148.952L86.387 152.99L87.1286 152.449L87.6294 151.68L83.4387 148.952ZM81.8684 150.099L83.3283 154.881L84.1353 154.634L84.8167 154.137L81.8684 150.099ZM79.6516 150.775L79.8967 155.769L80.5173 155.739L81.1115 155.558L79.6516 150.775ZM75.0754 151L74.8303 155.994L75.0754 156.006L75.3206 155.994L75.0754 151ZM70.5002 150.775L69.0409 155.558L69.6349 155.739L70.2551 155.769L70.5002 150.775ZM68.2825 150.099L65.3342 154.137L66.0158 154.635L66.8231 154.881L68.2825 150.099ZM66.7122 148.952L62.5204 151.678L63.0215 152.448L63.7638 152.99L66.7122 148.952ZM65.6301 147.288L60.8052 148.6L61.0109 149.356L61.4384 150.014L65.6301 147.288ZM64.9915 144.938L59.9962 145.157L60.0205 145.713L60.1665 146.25L64.9915 144.938ZM64.7795 140.091H59.7795V140.2L59.7843 140.309L64.7795 140.091ZM64.7795 26.9092L59.7843 26.6908L59.7795 26.7999V26.9092H64.7795ZM64.9915 22.0615L60.1665 20.75L60.0205 21.2871L59.9962 21.8432L64.9915 22.0615ZM65.6301 19.7119L61.4384 16.9863L61.0109 17.6437L60.8052 18.4004L65.6301 19.7119ZM66.7122 18.0479L63.7638 14.0096L63.0215 14.5516L62.5204 15.3222L66.7122 18.0479ZM68.2825 16.9014L66.8231 12.1191L66.0158 12.3654L65.3342 12.8631L68.2825 16.9014ZM70.5002 16.2246L70.2551 11.2306L69.6349 11.2611L69.0409 11.4423L70.5002 16.2246ZM75.0754 16L75.3206 11.006L75.0754 10.994L74.8303 11.006L75.0754 16ZM79.6516 16.2246L78.1917 21.0067L80.4085 21.6835L81.8684 16.9014L83.3283 12.1192L81.1115 11.4425L79.6516 16.2246ZM81.8684 16.9014L78.9201 20.9396L80.4904 22.0861L83.4387 18.0479L86.387 14.0096L84.8167 12.8631L81.8684 16.9014ZM83.4387 18.0479L79.2481 20.7752L80.3311 22.4393L84.5217 19.7119L88.7124 16.9846L87.6294 15.3205L83.4387 18.0479ZM84.5217 19.7119L79.6968 21.0234L80.3355 23.373L85.1604 22.0615L89.9853 20.75L89.3467 18.4004L84.5217 19.7119ZM85.1604 22.0615L80.1652 22.2799L80.3771 27.1275L85.3723 26.9092L90.3675 26.6908L90.1556 21.8432L85.1604 22.0615ZM85.3723 26.9092H80.3723V140.091H85.3723H90.3723V26.9092H85.3723ZM85.3723 140.091L80.3771 139.872L80.1652 144.72L85.1604 144.938L90.1556 145.157L90.3675 140.309L85.3723 140.091ZM85.1604 144.938L80.3355 143.627L79.6968 145.977L84.5217 147.288L89.3467 148.6L89.9853 146.25L85.1604 144.938ZM84.5217 147.288L80.3311 144.561L79.2481 146.225L83.4387 148.952L87.6294 151.68L88.7124 150.015L84.5217 147.288ZM83.4387 148.952L80.4904 144.914L78.9201 146.06L81.8684 150.099L84.8167 154.137L86.387 152.99L83.4387 148.952ZM81.8684 150.099L80.4085 145.317L78.1917 145.993L79.6516 150.775L81.1115 155.558L83.3283 154.881L81.8684 150.099ZM79.6516 150.775L79.4065 145.781L74.8303 146.006L75.0754 151L75.3206 155.994L79.8967 155.769L79.6516 150.775ZM75.0754 151L75.3206 146.006L70.7454 145.781L70.5002 150.775L70.2551 155.769L74.8303 155.994L75.0754 151ZM70.5002 150.775L71.9596 145.993L69.7418 145.316L68.2825 150.099L66.8231 154.881L69.0409 155.558L70.5002 150.775ZM68.2825 150.099L71.2308 146.06L69.6605 144.914L66.7122 148.952L63.7638 152.99L65.3342 154.137L68.2825 150.099ZM66.7122 148.952L70.9039 146.227L69.8219 144.562L65.6301 147.288L61.4384 150.014L62.5204 151.678L66.7122 148.952ZM65.6301 147.288L70.4551 145.977L69.8164 143.627L64.9915 144.938L60.1665 146.25L60.8052 148.6L65.6301 147.288ZM64.9915 144.938L69.9867 144.72L69.7748 139.872L64.7795 140.091L59.7843 140.309L59.9962 145.157L64.9915 144.938ZM64.7795 140.091H69.7795V26.9092H64.7795H59.7795V140.091H64.7795ZM64.7795 26.9092L69.7748 27.1275L69.9867 22.2799L64.9915 22.0615L59.9962 21.8432L59.7843 26.6908L64.7795 26.9092ZM64.9915 22.0615L69.8164 23.373L70.4551 21.0234L65.6301 19.7119L60.8052 18.4004L60.1665 20.75L64.9915 22.0615ZM65.6301 19.7119L69.8219 22.4375L70.9039 20.7735L66.7122 18.0479L62.5204 15.3222L61.4384 16.9863L65.6301 19.7119ZM66.7122 18.0479L69.6605 22.0861L71.2308 20.9396L68.2825 16.9014L65.3342 12.8631L63.7638 14.0096L66.7122 18.0479ZM68.2825 16.9014L69.7418 21.6837L71.9596 21.0069L70.5002 16.2246L69.0409 11.4423L66.8231 12.1191L68.2825 16.9014ZM70.5002 16.2246L70.7454 21.2186L75.3206 20.994L75.0754 16L74.8303 11.006L70.2551 11.2306L70.5002 16.2246ZM75.0754 16L74.8303 20.994L79.4065 21.2186L79.6516 16.2246L79.8967 11.2306L75.3206 11.006L75.0754 16Z" fill="#322116" mask="url(#path-1-inside-1_1212_70692)"/>
<mask id="path-3-inside-2_1212_70692" fill="white">
<path d="M84.415 25.1528C87.889 25.1529 90.9106 27.0885 92.4609 29.9399L99.5898 28.1665L113.145 26.7026C113.821 26.6296 114.411 27.1599 114.411 27.8403V60.7603C114.411 61.444 113.82 61.9769 113.141 61.9019C109.934 61.5472 101.501 60.6508 97.6982 60.603C97.5859 60.6016 97.4794 60.5845 97.3721 60.5513L91.9932 58.8853C90.3472 61.3117 87.5679 62.9067 84.415 62.9067H66.1094C61.4324 62.9066 57.5776 59.3981 57.0273 54.8696C43.6159 47.5121 33.7584 49.0611 8.38672 55.0044C4.53164 55.9074 1.47986 51.8486 3.81348 48.6499C8.6556 42.0129 13.0294 39.2344 19.5693 34.5864C32.0113 25.7439 44.9553 25.074 59.6533 27.8179C61.3083 26.1708 63.59 25.1529 66.1094 25.1528H84.415Z"/>
</mask>
<path d="M84.415 25.1528C87.889 25.1529 90.9106 27.0885 92.4609 29.9399L99.5898 28.1665L113.145 26.7026C113.821 26.6296 114.411 27.1599 114.411 27.8403V60.7603C114.411 61.444 113.82 61.9769 113.141 61.9019C109.934 61.5472 101.501 60.6508 97.6982 60.603C97.5859 60.6016 97.4794 60.5845 97.3721 60.5513L91.9932 58.8853C90.3472 61.3117 87.5679 62.9067 84.415 62.9067H66.1094C61.4324 62.9066 57.5776 59.3981 57.0273 54.8696C43.6159 47.5121 33.7584 49.0611 8.38672 55.0044C4.53164 55.9074 1.47986 51.8486 3.81348 48.6499C8.6556 42.0129 13.0294 39.2344 19.5693 34.5864C32.0113 25.7439 44.9553 25.074 59.6533 27.8179C61.3083 26.1708 63.59 25.1529 66.1094 25.1528H84.415Z" fill="#4A301F"/>
<path d="M84.415 25.1528L84.4152 20.1528H84.415V25.1528ZM92.4609 29.9399L88.0682 32.3282L89.9153 35.7256L93.668 34.7921L92.4609 29.9399ZM99.5898 28.1665L99.053 23.1954L98.7138 23.232L98.3828 23.3144L99.5898 28.1665ZM113.145 26.7026L112.608 21.7315L112.608 21.7315L113.145 26.7026ZM114.411 27.8403L109.411 27.8403V27.8403H114.411ZM114.411 60.7603L119.411 60.7603V60.7603H114.411ZM113.141 61.9019L112.591 66.8715L112.592 66.8717L113.141 61.9019ZM97.6982 60.603L97.6354 65.6026L97.6355 65.6026L97.6982 60.603ZM97.3721 60.5513L95.8927 65.3274L95.8933 65.3276L97.3721 60.5513ZM91.9932 58.8853L93.4725 54.1091L89.9346 53.0133L87.8554 56.0783L91.9932 58.8853ZM84.415 62.9067V67.9067H84.4152L84.415 62.9067ZM66.1094 62.9067L66.1092 67.9067H66.1094V62.9067ZM57.0273 54.8696L61.9908 54.2665L61.6814 51.7199L59.4322 50.486L57.0273 54.8696ZM8.38672 55.0044L7.24634 50.1362L7.24634 50.1362L8.38672 55.0044ZM3.81348 48.6499L-0.225793 45.703L-0.2258 45.703L3.81348 48.6499ZM19.5693 34.5864L16.6728 30.5109L16.6728 30.5109L19.5693 34.5864ZM59.6533 27.8179L58.7358 32.733L61.3183 33.2151L63.1804 31.3618L59.6533 27.8179ZM66.1094 25.1528V20.1528H66.1092L66.1094 25.1528ZM84.415 25.1528L84.4149 30.1528C85.9841 30.1529 87.3578 31.0215 88.0682 32.3282L92.4609 29.9399L96.8537 27.5517C94.4635 23.1554 89.7939 20.153 84.4152 20.1528L84.415 25.1528ZM92.4609 29.9399L93.668 34.7921L100.797 33.0186L99.5898 28.1665L98.3828 23.3144L91.2539 25.0878L92.4609 29.9399ZM99.5898 28.1665L100.127 33.1376L113.681 31.6737L113.145 26.7026L112.608 21.7315L99.053 23.1954L99.5898 28.1665ZM113.145 26.7026L113.681 31.6738C111.399 31.92 109.411 30.1313 109.411 27.8403L114.411 27.8403L119.411 27.8404C119.411 24.1885 116.243 21.3393 112.608 21.7315L113.145 26.7026ZM114.411 27.8403H109.411V60.7603H114.411H119.411V27.8403H114.411ZM114.411 60.7603L109.411 60.7602C109.411 58.4867 111.387 56.6779 113.689 56.932L113.141 61.9019L112.592 66.8717C116.253 67.2758 119.411 64.4013 119.411 60.7603L114.411 60.7603ZM113.141 61.9019L113.69 56.9322C110.586 56.5888 101.866 55.655 97.761 55.6034L97.6982 60.603L97.6355 65.6026C101.136 65.6466 109.283 66.5056 112.591 66.8715L113.141 61.9019ZM97.6982 60.603L97.7611 55.6034C98.1387 55.6082 98.5087 55.669 98.8508 55.7749L97.3721 60.5513L95.8933 65.3276C96.4501 65.5 97.0331 65.5951 97.6354 65.6026L97.6982 60.603ZM97.3721 60.5513L98.8514 55.7751L93.4725 54.1091L91.9932 58.8853L90.5138 63.6614L95.8927 65.3274L97.3721 60.5513ZM91.9932 58.8853L87.8554 56.0783C87.0992 57.193 85.8393 57.9067 84.4149 57.9067L84.415 62.9067L84.4152 67.9067C89.2966 67.9066 93.5951 65.4303 96.1309 61.6922L91.9932 58.8853ZM84.415 62.9067V57.9067H66.1094V62.9067V67.9067H84.415V62.9067ZM66.1094 62.9067L66.1096 57.9067C63.9933 57.9067 62.2401 56.318 61.9908 54.2665L57.0273 54.8696L52.0639 55.4728C52.9152 62.4783 58.8714 67.9065 66.1092 67.9067L66.1094 62.9067ZM57.0273 54.8696L59.4322 50.486C51.9896 46.4029 45.2973 44.7138 37.0483 44.9513C29.1395 45.1789 19.8256 47.1895 7.24634 50.1362L8.38672 55.0044L9.5271 59.8726C22.3195 56.876 30.6202 55.1404 37.336 54.9471C43.7115 54.7636 48.6537 55.9788 54.6225 59.2533L57.0273 54.8696ZM8.38672 55.0044L7.24634 50.1362C7.24442 50.1366 7.27503 50.1298 7.33082 50.1336C7.38526 50.1374 7.44605 50.1501 7.5073 50.1736C7.62379 50.2182 7.72914 50.2962 7.81348 50.4114C7.89921 50.5284 7.994 50.73 8.00019 51.0079C8.00714 51.3201 7.89738 51.5356 7.85275 51.5968L3.81348 48.6499L-0.2258 45.703C-2.77805 49.2013 -2.38796 53.406 -0.254804 56.3192C1.8273 59.1627 5.55646 60.8027 9.5271 59.8726L8.38672 55.0044ZM3.81348 48.6499L7.85275 51.5968C12.1325 45.7307 15.7966 43.402 22.4659 38.662L19.5693 34.5864L16.6728 30.5109C10.2623 35.0669 5.17875 38.2951 -0.225793 45.703L3.81348 48.6499ZM19.5693 34.5864L22.4658 38.662C33.3886 30.8992 44.7705 30.1259 58.7358 32.733L59.6533 27.8179L60.5709 22.9028C45.14 20.0222 30.6341 20.5886 16.6728 30.5109L19.5693 34.5864ZM59.6533 27.8179L63.1804 31.3618C63.9364 30.6094 64.9647 30.1529 66.1096 30.1528L66.1094 25.1528L66.1092 20.1528C62.2153 20.153 58.6801 21.7321 56.1262 24.2739L59.6533 27.8179ZM66.1094 25.1528V30.1528H84.415V25.1528V20.1528H66.1094V25.1528Z" fill="#322116" mask="url(#path-3-inside-2_1212_70692)"/>
<rect x="65.9238" y="35.4492" width="18.3051" height="16.017" rx="2.28814" fill="#5C3D2A"/>
</g>
<defs>
<clipPath id="clip0_1212_70692">
<rect width="150" height="150" fill="white"/>
</clipPath>
</defs>
</svg>
