<svg width="100" height="100" viewBox="0 0 100 100" fill="none" xmlns="http://www.w3.org/2000/svg">
<g clip-path="url(#clip0_638_70671)">
<path d="M57.5068 11.9579C59.3062 11.1406 61.4383 11.77 62.5051 13.4336L62.6084 13.6029L64.9717 17.7211C65.268 18.2373 65.4445 18.8122 65.4894 19.4036L65.501 19.6584L65.5103 20.5102C79.0349 27.6381 85.864 44.2886 81.5164 60.514C77.2282 76.518 63.3207 87.4385 48.2831 87.1725C47.9458 87.6229 47.4943 88.0397 46.9025 88.3444L42.603 90.558C40.7091 91.533 38.3833 90.846 37.3228 88.9986L34.9592 84.8814C34.7262 84.4755 34.5694 84.0328 34.4904 83.5749C21.0984 76.3877 14.3577 59.8245 18.6841 43.6782C22.8739 28.0416 36.2393 17.2624 50.8747 17.0173C50.919 16.9052 50.9561 16.806 50.9844 16.7171L51.1044 16.3863C51.4243 15.6063 52.0278 14.7724 53.0287 14.2571L57.3279 12.0444L57.5068 11.9579Z" fill="#524A30" stroke="#645830" stroke-width="6"/>
<path d="M59.6219 8.31931C60.7347 7.87857 62.0103 8.25566 62.705 9.23035L62.8449 9.4478L67.4169 17.4123C67.6111 17.7506 67.727 18.1276 67.7563 18.5152L67.7632 18.6819L67.7691 19.1617C81.5215 27.1599 88.1766 44.4402 83.7123 61.1019C79.3228 77.4838 65.3321 89.0011 49.7444 89.438L40.5456 94.1756C39.3048 94.8145 37.7803 94.3648 37.0855 93.1545L32.4199 85.0264L32.4201 85.0255C32.4195 85.0243 32.4188 85.0231 32.4181 85.0219C18.6743 77.0194 12.0236 59.7467 16.4871 43.089C20.7426 27.208 34.0082 15.9114 49.0121 14.8252C49.1798 14.0708 49.6746 13.4268 50.3658 13.0709L59.3858 8.42691L59.6219 8.31931ZM55.3415 18.2682C55.1244 18.9032 54.7932 19.6152 54.513 20.2209L54.5137 20.2221L54.5122 20.2237C54.0895 21.1376 53.1643 21.6819 52.1926 21.6515C39.3534 21.249 26.983 30.5793 23.1523 44.8749C19.2237 59.5366 25.6834 74.1602 37.5639 79.9555C38.3831 80.3551 38.9611 81.161 39.0398 82.099L39.0487 82.2885L39.0528 82.7223L41.029 86.1645L44.5894 84.3322C44.6065 84.2821 44.6228 84.2317 44.6408 84.1821L44.7286 83.9711C45.204 82.9493 46.2618 82.4448 47.2446 82.505C60.3547 83.3085 73.1412 73.8967 77.048 59.3162C81.0016 44.5605 74.4335 29.846 62.4078 24.1268C61.5216 23.7054 60.9117 22.8104 60.8997 21.7826L60.8763 19.8776L58.901 16.4356L55.3415 18.2682ZM50.8235 88.2935C50.8267 88.2823 50.8315 88.2714 50.8344 88.2601L50.8641 88.1194C50.854 88.1786 50.8397 88.2364 50.8235 88.2935Z" fill="#635A3A" stroke="#645830" stroke-width="3.25118"/>
<path d="M57.4332 5.37866C57.8388 3.5696 59.8826 2.84018 61.3358 3.88774L61.474 3.99453L62.9101 5.18511C64.519 6.52639 66.5303 8.21983 67.8799 9.35971C68.1952 9.62604 68.4406 9.96179 68.5994 10.3381L68.6627 10.5016L70.0166 14.4252L74.1055 24.6644C74.2813 25.105 74.3334 25.5841 74.2579 26.0499L74.2176 26.2494L60.2029 83.907C60.0752 84.4325 59.7882 84.9058 59.3802 85.2607L51.6308 91.9993C51.4195 92.1831 51.1799 92.3324 50.9213 92.4401L44.1058 95.2787C43.8404 95.3892 43.5587 95.4551 43.272 95.4738L37.8489 95.8284C35.7733 95.964 34.4211 93.7684 35.3451 91.9819L36.0161 90.6624C37.5574 87.5836 39.1899 84.0359 39.695 82.9999C39.6999 82.984 39.7074 82.9622 39.7157 82.9337C39.7469 82.827 39.7898 82.6694 39.8453 82.4579C39.9557 82.0366 40.1059 81.4375 40.292 80.6738C40.6637 79.148 41.1732 76.9924 41.7898 74.3479C43.0228 69.0603 44.6793 61.8343 46.5041 53.8147C50.1537 37.7758 54.4758 18.5722 57.4332 5.37866Z" fill="#635A3A" stroke="#645830" stroke-width="3.25118"/>
<path d="M56.4949 9.12033C57.7142 8.40526 59.2625 8.79488 60.0098 9.95597L60.1481 10.1983L62.3048 14.4835C62.4705 14.8129 62.5643 15.1731 62.5808 15.5402L62.5831 15.6975L62.553 17.5982C75.4733 24.3325 81.6534 41.5407 77.0935 58.5591C72.5954 75.3461 58.9603 87.0622 44.6211 86.7813C44.4264 87.3181 44.0531 87.8699 43.4417 88.2285L39.2315 90.6975C37.9309 91.4601 36.2563 90.9654 35.5786 89.6186L33.4225 85.3346C33.2332 84.9583 33.1377 84.5417 33.1442 84.1206L33.1496 83.7874C20.3941 76.9641 14.3183 59.8664 18.8503 42.9528C23.2575 26.5056 36.4276 14.9356 50.4418 14.7281C50.712 14.1101 50.9301 13.5978 51.0508 13.1948L51.1272 12.9737C51.328 12.4567 51.6979 11.9344 52.2857 11.5896L56.4949 9.12033Z" fill="#C4B276" stroke="#645830" stroke-width="3.25118"/>
<path d="M58.254 3.87618C59.428 3.34511 60.8226 3.75679 61.52 4.84028L61.6592 5.08283L65.9663 13.6436C66.132 13.9728 66.2257 14.3332 66.2423 14.7002L66.2453 14.8587L66.235 15.501C79.6274 23.8523 85.2736 42.1308 80.6184 59.5043C76.0389 76.5948 62.4038 89.4408 46.9524 90.3811C46.9347 90.3893 46.9179 90.3998 46.8998 90.4075L37.9807 94.1919C36.9013 94.6497 35.6489 94.3311 34.9186 93.4138L31.6211 89.2728C31.5231 89.1497 31.4361 89.0176 31.3618 88.8788L29.8848 86.1203C16.3668 77.8176 10.6497 59.462 15.3259 42.0093C19.7111 25.6436 33.1225 12.9864 47.7485 11.049C47.8907 10.3126 48.3428 9.67218 48.9907 9.29211L58.0061 4.0049L58.254 3.87618ZM54.1153 14.2847C53.8914 14.979 53.538 15.7756 53.2342 16.4639C52.818 17.4065 51.8859 17.9781 50.8972 17.975C38.5328 17.9354 26.1633 28.2248 21.9912 43.7952C17.7077 59.782 23.6881 75.2503 34.9731 81.0759C35.7855 81.4952 36.3486 82.318 36.4026 83.2646L36.407 83.4558L36.3989 83.9764L38.2433 87.2842L41.6268 85.4894C41.6563 85.3994 41.6853 85.3088 41.7174 85.2195L41.7183 85.2197C42.1274 84.0792 43.2263 83.4819 44.2742 83.5216L44.8657 83.5365C57.2916 83.6745 69.7592 73.3698 73.9531 57.7184C78.2645 41.6282 72.1796 26.0676 60.7552 20.3273C59.8751 19.885 59.2804 18.9713 59.2964 17.9346L59.3294 15.8041L57.5506 12.2702L54.1153 14.2847ZM47.8723 89.3062C47.8758 89.2944 47.8805 89.2829 47.8838 89.2709L47.9133 89.1382C47.903 89.1952 47.888 89.2512 47.8723 89.3062Z" fill="#635A3A" stroke="#645830" stroke-width="3.25118"/>
<mask id="path-6-outside-1_638_70671" maskUnits="userSpaceOnUse" x="7.12267" y="1.89301" width="86.4578" height="98.4786" fill="black">
<rect fill="white" x="7.12267" y="1.89301" width="86.4578" height="98.4786"/>
<path fill-rule="evenodd" clip-rule="evenodd" d="M53.1588 19.1563C53.4762 18.4701 53.7883 17.7955 53.9645 17.2424C54.0586 16.9469 54.2477 16.6818 54.5235 16.5398L58.8224 14.3265C59.2906 14.0854 59.8656 14.2552 60.1278 14.7119L62.4915 18.8296C62.5753 18.9754 62.6203 19.1403 62.6222 19.3085L62.6465 21.3788C62.651 21.7631 62.8802 22.1086 63.2272 22.2737C76.0391 28.3665 82.8734 43.9254 78.7397 59.3527C74.6547 74.5979 61.2299 84.5991 47.2665 83.7432C46.8426 83.7172 46.4355 83.9511 46.291 84.3506C46.2613 84.4326 46.2339 84.5125 46.2092 84.59C46.1151 84.8856 45.9259 85.1508 45.6502 85.2928L41.3513 87.5061C40.883 87.7472 40.308 87.5774 40.0458 87.1207L37.6821 83.003C37.5983 82.8572 37.5533 82.6923 37.5514 82.5241L37.5443 81.9224C37.5399 81.5417 37.3149 81.1987 36.9728 81.0318C24.3176 74.8587 17.5958 59.3993 21.7033 44.0699C25.709 29.1205 38.6955 19.2137 52.3641 19.6418C52.702 19.6524 53.0169 19.463 53.1588 19.1563Z"/>
</mask>
<path fill-rule="evenodd" clip-rule="evenodd" d="M53.1588 19.1563C53.4762 18.4701 53.7883 17.7955 53.9645 17.2424C54.0586 16.9469 54.2477 16.6818 54.5235 16.5398L58.8224 14.3265C59.2906 14.0854 59.8656 14.2552 60.1278 14.7119L62.4915 18.8296C62.5753 18.9754 62.6203 19.1403 62.6222 19.3085L62.6465 21.3788C62.651 21.7631 62.8802 22.1086 63.2272 22.2737C76.0391 28.3665 82.8734 43.9254 78.7397 59.3527C74.6547 74.5979 61.2299 84.5991 47.2665 83.7432C46.8426 83.7172 46.4355 83.9511 46.291 84.3506C46.2613 84.4326 46.2339 84.5125 46.2092 84.59C46.1151 84.8856 45.9259 85.1508 45.6502 85.2928L41.3513 87.5061C40.883 87.7472 40.308 87.5774 40.0458 87.1207L37.6821 83.003C37.5983 82.8572 37.5533 82.6923 37.5514 82.5241L37.5443 81.9224C37.5399 81.5417 37.3149 81.1987 36.9728 81.0318C24.3176 74.8587 17.5958 59.3993 21.7033 44.0699C25.709 29.1205 38.6955 19.2137 52.3641 19.6418C52.702 19.6524 53.0169 19.463 53.1588 19.1563Z" fill="#574D2A"/>
<path d="M53.1588 19.1563L49.8474 17.6244L49.8474 17.6244L53.1588 19.1563ZM37.5443 81.9224L41.1927 81.8796L37.5443 81.9224ZM36.9728 81.0318L38.5724 77.7526L36.9728 81.0318ZM37.6821 83.003L34.5178 84.8195L37.6821 83.003ZM37.5514 82.5241L41.1997 82.4813L37.5514 82.5241ZM41.3513 87.5061L39.6811 84.2623L41.3513 87.5061ZM40.0458 87.1207L36.8816 88.9372L40.0458 87.1207ZM46.2092 84.59L42.7327 83.4826V83.4826L46.2092 84.59ZM45.6502 85.2928L47.3203 88.5366L45.6502 85.2928ZM47.2665 83.7432L47.4898 80.1014L47.2665 83.7432ZM46.291 84.3506L42.8602 83.1089L46.291 84.3506ZM62.6465 21.3788L66.2948 21.3361L62.6465 21.3788ZM63.2272 22.2737L61.6603 25.5687L63.2272 22.2737ZM62.4915 18.8296L65.6558 17.0131L62.4915 18.8296ZM62.6222 19.3085L58.9739 19.3512L62.6222 19.3085ZM58.8224 14.3265L60.4925 17.5703L58.8224 14.3265ZM60.1278 14.7119L63.292 12.8954L60.1278 14.7119ZM53.9645 17.2424L57.4409 18.3498L53.9645 17.2424ZM53.9645 17.2424L50.488 16.1351C50.3963 16.4227 50.1985 16.8654 49.8474 17.6244L53.1588 19.1563L56.4702 20.6881C56.754 20.0747 57.1802 19.1683 57.4409 18.3498L53.9645 17.2424ZM58.8224 14.3265L57.1522 11.0826L52.8533 13.296L54.5235 16.5398L56.1936 19.7837L60.4925 17.5703L58.8224 14.3265ZM62.4915 18.8296L65.6558 17.0131L63.292 12.8954L60.1278 14.7119L56.9635 16.5284L59.3273 20.646L62.4915 18.8296ZM62.6465 21.3788L66.2948 21.3361L66.2706 19.2658L62.6222 19.3085L58.9739 19.3512L58.9982 21.4215L62.6465 21.3788ZM78.7397 59.3527L82.264 60.297C86.8014 43.363 79.37 25.9104 64.7942 18.9787L63.2272 22.2737L61.6603 25.5687C72.7083 30.8227 78.9454 44.4878 75.2154 58.4084L78.7397 59.3527ZM47.2665 83.7432L47.0433 87.3849C62.9215 88.3582 77.7793 77.034 82.264 60.297L78.7397 59.3527L75.2154 58.4084C71.5302 72.1618 59.5382 80.84 47.4898 80.1014L47.2665 83.7432ZM46.2092 84.59L49.6857 85.6975C49.694 85.6712 49.7058 85.6364 49.7218 85.5922L46.291 84.3506L42.8602 83.1089C42.8168 83.2287 42.7738 83.3538 42.7327 83.4826L46.2092 84.59ZM41.3513 87.5061L43.0214 90.75L47.3203 88.5366L45.6502 85.2928L43.98 82.0489L39.6811 84.2623L41.3513 87.5061ZM37.6821 83.003L34.5178 84.8195L36.8816 88.9372L40.0458 87.1207L43.2101 85.3042L40.8464 81.1866L37.6821 83.003ZM37.5443 81.9224L33.896 81.9651L33.903 82.5668L37.5514 82.5241L41.1997 82.4813L41.1927 81.8796L37.5443 81.9224ZM21.7033 44.0699L18.1791 43.1255C13.67 59.9537 20.9794 77.2899 35.3732 84.3111L36.9728 81.0318L38.5724 77.7526C27.6559 72.4276 21.5217 58.8449 25.2276 45.0142L21.7033 44.0699ZM52.3641 19.6418L52.4783 15.995C36.9478 15.5085 22.5779 26.7089 18.1791 43.1255L21.7033 44.0699L25.2276 45.0142C28.8401 31.5321 40.4433 22.9188 52.2499 23.2886L52.3641 19.6418ZM52.3641 19.6418L52.2499 23.2886C54.0114 23.3438 55.6976 22.3582 56.4702 20.6881L53.1588 19.1563L49.8474 17.6244C50.3361 16.5679 51.3926 15.961 52.4783 15.995L52.3641 19.6418ZM37.5443 81.9224L41.1927 81.8796C41.1715 80.0686 40.1078 78.5015 38.5724 77.7526L36.9728 81.0318L35.3732 84.3111C34.522 83.8959 33.9083 83.0149 33.896 81.9651L37.5443 81.9224ZM37.6821 83.003L40.8464 81.1866C41.0727 81.5809 41.1944 82.0267 41.1997 82.4813L37.5514 82.5241L33.903 82.5668C33.9123 83.3579 34.124 84.1334 34.5178 84.8195L37.6821 83.003ZM41.3513 87.5061L39.6811 84.2623C40.9469 83.6106 42.5013 84.0695 43.2101 85.3042L40.0458 87.1207L36.8816 88.9372C38.1147 91.0853 40.8192 91.8838 43.0214 90.75L41.3513 87.5061ZM46.2092 84.59L42.7327 83.4826C42.8592 83.0857 43.1994 82.4508 43.98 82.0489L45.6502 85.2928L47.3203 88.5366C48.6524 87.8508 49.3709 86.6855 49.6857 85.6975L46.2092 84.59ZM47.2665 83.7432L47.4898 80.1014C45.6643 79.9895 43.6252 80.995 42.8602 83.1089L46.291 84.3506L49.7218 85.5922C49.2458 86.9073 48.0208 87.4448 47.0433 87.3849L47.2665 83.7432ZM62.6465 21.3788L58.9982 21.4215C59.0196 23.2502 60.1032 24.8282 61.6603 25.5687L63.2272 22.2737L64.7942 18.9787C65.6571 19.3891 66.2824 20.276 66.2948 21.3361L62.6465 21.3788ZM62.4915 18.8296L59.3273 20.646C59.1009 20.2517 58.9792 19.8059 58.9739 19.3512L62.6222 19.3085L66.2706 19.2658C66.2613 18.4747 66.0497 17.6992 65.6558 17.0131L62.4915 18.8296ZM58.8224 14.3265L60.4925 17.5703C59.2268 18.222 57.6723 17.7631 56.9635 16.5284L60.1278 14.7119L63.292 12.8954C62.0589 10.7473 59.3544 9.94874 57.1522 11.0826L58.8224 14.3265ZM53.9645 17.2424L57.4409 18.3498C57.3143 18.7472 56.9739 19.382 56.1936 19.7837L54.5235 16.5398L52.8533 13.296C51.5215 13.9816 50.8028 15.1466 50.488 16.1351L53.9645 17.2424Z" fill="#8C7E4E" mask="url(#path-6-outside-1_638_70671)"/>
<rect width="1.92175" height="1.92175" rx="0.131755" transform="matrix(0.386546 0.92227 -0.795894 0.605437 70.624 45.3844)" fill="#D9D9D9" stroke="#5C4664" stroke-width="2.67563"/>
<path d="M69.8423 48.2993L70.6181 45.4039L69.1096 46.5514L69.8423 48.2993Z" fill="#E9ACFF"/>
<path d="M69.8238 48.2942L70.5996 45.3988L71.3696 47.1568L69.8238 48.2942Z" fill="#EFC1FF"/>
<rect width="1.92175" height="1.92175" rx="0.131755" transform="matrix(0.386546 0.92227 -0.795894 0.605437 65.8555 63.2177)" fill="#D9D9D9" stroke="#5C4664" stroke-width="2.67563"/>
<path d="M65.0742 66.1324L65.85 63.237L64.3416 64.3845L65.0742 66.1324Z" fill="#E9ACFF"/>
<path d="M65.0552 66.1274L65.8311 63.2319L66.601 64.9899L65.0552 66.1274Z" fill="#EFC1FF"/>
<path d="M67.323 10.8527C64.9293 8.82982 60.0363 4.71431 59.6138 4.4353C53.7956 30.4027 42.0234 82.612 41.4806 83.7099C40.9377 84.8078 38.0155 91.1859 36.2216 94.4008L43.6152 93.9178L50.7296 90.9543L58.8353 83.9047L72.9979 25.6357L68.7814 15.0771L67.323 10.8527Z" fill="#645830"/>
<mask id="path-15-outside-2_638_70671" maskUnits="userSpaceOnUse" x="4.78503" y="-4.45571" width="87.1142" height="107.62" fill="black">
<rect fill="white" x="4.78503" y="-4.45571" width="87.1142" height="107.62"/>
<path fill-rule="evenodd" clip-rule="evenodd" d="M51.8732 15.4065C52.3035 14.4316 52.7244 13.4783 52.8425 12.8199L58.35 9.58971L61.0871 15.029L61.0377 18.1952C73.7047 24.1397 80.174 40.8525 75.6496 57.7376C71.1692 74.4586 57.4368 85.6427 43.6307 84.7075C43.3968 85.2728 43.2093 85.79 43.1366 86.1955L37.6291 89.4256L34.892 83.9863L34.9167 82.4001C22.4095 76.3573 16.0512 59.7501 20.5467 42.9728C24.9259 26.6293 38.1442 15.5755 51.6308 15.9581C51.7107 15.7747 51.7921 15.5902 51.8732 15.4065Z"/>
</mask>
<path fill-rule="evenodd" clip-rule="evenodd" d="M51.8732 15.4065C52.3035 14.4316 52.7244 13.4783 52.8425 12.8199L58.35 9.58971L61.0871 15.029L61.0377 18.1952C73.7047 24.1397 80.174 40.8525 75.6496 57.7376C71.1692 74.4586 57.4368 85.6427 43.6307 84.7075C43.3968 85.2728 43.2093 85.79 43.1366 86.1955L37.6291 89.4256L34.892 83.9863L34.9167 82.4001C22.4095 76.3573 16.0512 59.7501 20.5467 42.9728C24.9259 26.6293 38.1442 15.5755 51.6308 15.9581C51.7107 15.7747 51.7921 15.5902 51.8732 15.4065Z" fill="#C4B276"/>
<path d="M52.8425 12.8199L50.9967 9.67265L49.548 10.5223L49.2513 12.1753L52.8425 12.8199ZM51.8732 15.4065L48.5353 13.9331L48.5353 13.9331L51.8732 15.4065ZM58.35 9.58971L61.6092 7.94965L59.8603 4.4741L56.5042 6.44249L58.35 9.58971ZM61.0871 15.029L64.7352 15.0859L64.7492 14.1896L64.3463 13.3889L61.0871 15.029ZM61.0377 18.1952L57.3896 18.1383L57.3528 20.4962L59.4876 21.4981L61.0377 18.1952ZM43.6307 84.7075L43.8773 81.0673L41.2615 80.8901L40.2592 83.3127L43.6307 84.7075ZM43.1366 86.1955L44.9824 89.3427L46.4311 88.493L46.7278 86.84L43.1366 86.1955ZM37.6291 89.4256L34.3699 91.0657L36.1188 94.5412L39.4749 92.5728L37.6291 89.4256ZM34.892 83.9863L31.2438 83.9294L31.2299 84.8257L31.6328 85.6264L34.892 83.9863ZM34.9167 82.4001L38.5649 82.457L38.6012 80.1281L36.504 79.1149L34.9167 82.4001ZM51.6308 15.9581L51.5274 19.6052L53.9924 19.6751L54.9764 17.4139L51.6308 15.9581ZM52.8425 12.8199L49.2513 12.1753C49.2579 12.1388 49.2325 12.2695 49.0788 12.6608C48.938 13.0193 48.758 13.4286 48.5353 13.9331L51.8732 15.4065L55.211 16.88C55.5554 16.0997 56.219 14.6607 56.4337 13.4644L52.8425 12.8199ZM58.35 9.58971L56.5042 6.44249L50.9967 9.67265L52.8425 12.8199L54.6884 15.9671L60.1959 12.7369L58.35 9.58971ZM61.0871 15.029L64.3463 13.3889L61.6092 7.94965L58.35 9.58971L55.0908 11.2298L57.8279 16.669L61.0871 15.029ZM61.0377 18.1952L64.6859 18.2521L64.7352 15.0859L61.0871 15.029L57.439 14.9721L57.3896 18.1383L61.0377 18.1952ZM75.6496 57.7376L79.1739 58.6819C84.0243 40.5799 77.2737 21.7843 62.5878 14.8922L61.0377 18.1952L59.4876 21.4981C70.1356 26.4952 76.3236 41.1251 72.1253 56.7933L75.6496 57.7376ZM43.6307 84.7075L43.3841 88.3477C59.376 89.431 74.3689 76.6143 79.1739 58.6819L75.6496 57.7376L72.1253 56.7933C67.9696 72.3029 55.4976 81.8544 43.8773 81.0673L43.6307 84.7075ZM43.1366 86.1955L46.7278 86.84C46.7196 86.8854 46.7236 86.8448 46.7776 86.6857C46.828 86.5376 46.9012 86.3463 47.0022 86.1023L43.6307 84.7075L40.2592 83.3127C40.0213 83.8878 39.6939 84.7232 39.5453 85.5509L43.1366 86.1955ZM37.6291 89.4256L39.4749 92.5728L44.9824 89.3427L43.1366 86.1955L41.2907 83.0482L35.7832 86.2784L37.6291 89.4256ZM34.892 83.9863L31.6328 85.6264L34.3699 91.0657L37.6291 89.4256L40.8883 87.7856L38.1512 82.3463L34.892 83.9863ZM34.9167 82.4001L31.2686 82.3432L31.2438 83.9294L34.892 83.9863L38.5401 84.0432L38.5649 82.457L34.9167 82.4001ZM20.5467 42.9728L17.0224 42.0285C12.2018 60.0191 18.8375 78.6836 33.3295 85.6854L34.9167 82.4001L36.504 79.1149C25.9815 74.031 19.9006 59.4812 24.0709 43.9172L20.5467 42.9728ZM51.6308 15.9581L51.7343 12.311C36.1468 11.8688 21.7226 24.4871 17.0224 42.0285L20.5467 42.9728L24.0709 43.9172C28.1292 28.7715 40.1417 19.2822 51.5274 19.6052L51.6308 15.9581ZM51.8732 15.4065L48.5353 13.9331C48.4549 14.1153 48.3696 14.3086 48.2853 14.5023L51.6308 15.9581L54.9764 17.4139C55.0517 17.2408 55.1292 17.0652 55.211 16.8799L51.8732 15.4065Z" fill="#8C7E4E" mask="url(#path-15-outside-2_638_70671)"/>
<path d="M72.5908 60.2855C75.064 53.1101 75.5491 45.3991 73.9662 38.4226C72.3833 31.446 68.8268 25.62 63.8826 21.9041C58.9383 18.1882 52.9011 16.804 46.7654 17.9795C40.6297 19.1551 34.7613 22.8202 30.1269 28.3713L31.6248 30.2494C35.8677 25.1673 41.2402 21.8118 46.8576 20.7356C52.4749 19.6593 58.002 20.9266 62.5285 24.3285C67.0551 27.7305 70.3111 33.0643 71.7602 39.4514C73.2093 45.8386 72.7652 52.8981 70.501 59.4672L72.5908 60.2855Z" fill="#E0CE8E"/>
<path d="M24.3427 40.9165C21.882 48.0904 21.3657 55.7883 22.879 62.7422C24.3923 69.6961 27.8449 75.4913 32.668 79.1734C37.4912 82.8554 43.3973 84.2046 49.4136 82.9987C55.4299 81.7929 61.1975 78.104 65.7665 72.5395L64.3093 70.6733C60.1263 75.7676 54.846 79.1449 49.338 80.2488C43.83 81.3528 38.4229 80.1175 34.0072 76.7466C29.5916 73.3757 26.4307 68.0701 25.0453 61.7037C23.6599 55.3373 24.1325 48.2898 26.3853 41.722L24.3427 40.9165Z" fill="#A3966A"/>
<path d="M55.8741 24.62C61.346 26.0862 65.3575 30.4431 67.5081 36.063C69.6594 41.6848 70.003 48.6738 68.1153 55.719C66.2275 62.7643 62.4354 68.645 57.7614 72.4381C53.089 76.2298 47.4366 77.9972 41.9646 76.531C36.4928 75.0647 32.4822 70.7081 30.3316 65.0883C28.1803 59.4664 27.8357 52.4773 29.7235 45.432C31.6113 38.3867 35.4043 32.5062 40.0782 28.7132C44.7506 24.9217 50.4023 23.154 55.8741 24.62Z" fill="#948657" stroke="#948657" stroke-width="2.8571"/>
<ellipse cx="50.5584" cy="50.5968" rx="17.7337" ry="20.6401" transform="rotate(15 50.5584 50.5968)" fill="#A29361"/>
<ellipse cx="49.4635" cy="50.3455" rx="15.9111" ry="17.8815" transform="rotate(15 49.4635 50.3455)" fill="#95885A"/>
<ellipse cx="48.6875" cy="50.0625" rx="14.0885" ry="16.0096" transform="rotate(15 48.6875 50.0625)" fill="#887D54"/>
<ellipse cx="48.6692" cy="50.1912" rx="13.0047" ry="14.0392" transform="rotate(15 48.6692 50.1912)" fill="#766C4B"/>
<ellipse cx="48.6692" cy="50.1912" rx="8.70383" ry="9.39618" transform="rotate(15 48.6692 50.1912)" fill="#9E9162"/>
<ellipse cx="48.6692" cy="50.1912" rx="8.70383" ry="9.39618" transform="rotate(15 48.6692 50.1912)" fill="#9E9162"/>
<ellipse cx="48.669" cy="50.1912" rx="6.08412" ry="6.56808" transform="rotate(15 48.669 50.1912)" fill="#9E9162"/>
<ellipse cx="48.669" cy="50.1912" rx="6.08412" ry="6.56808" transform="rotate(15 48.669 50.1912)" fill="#C3B276"/>
<mask id="path-26-outside-3_638_70671" maskUnits="userSpaceOnUse" x="30.451" y="19.9505" width="31.1317" height="58.5453" fill="black">
<rect fill="white" x="30.451" y="19.9505" width="31.1317" height="58.5453"/>
<path d="M51.5022 21.9414C51.4997 21.9536 51.5005 21.9739 51.5077 21.9823L53.7672 24.6453C53.7966 24.6799 53.8134 24.7238 53.8158 24.7722L53.9119 26.6869L52.8265 48.9069C52.825 48.9362 52.8186 48.966 52.8073 48.9953L43.6682 72.769C43.6458 72.8274 43.6052 72.8813 43.5525 72.9226L39.9301 75.7619C39.9079 75.7793 39.8919 75.8033 39.8859 75.8283C39.8656 75.9129 39.7516 75.9532 39.7052 75.8922L37.6526 73.1928C37.637 73.1724 37.6256 73.1491 37.6185 73.1236L37.3158 72.0337C37.3087 72.0079 37.3062 71.9802 37.3084 71.9518L39.15 48.6422C39.1519 48.6176 39.1574 48.5927 39.1662 48.5681L47.4754 25.4329L47.594 24.9041C47.6111 24.8281 47.6598 24.7555 47.7285 24.7038L51.4277 21.9166C51.4637 21.8894 51.5105 21.9015 51.5022 21.9414Z"/>
</mask>
<path d="M51.5022 21.9414C51.4997 21.9536 51.5005 21.9739 51.5077 21.9823L53.7672 24.6453C53.7966 24.6799 53.8134 24.7238 53.8158 24.7722L53.9119 26.6869L52.8265 48.9069C52.825 48.9362 52.8186 48.966 52.8073 48.9953L43.6682 72.769C43.6458 72.8274 43.6052 72.8813 43.5525 72.9226L39.9301 75.7619C39.9079 75.7793 39.8919 75.8033 39.8859 75.8283C39.8656 75.9129 39.7516 75.9532 39.7052 75.8922L37.6526 73.1928C37.637 73.1724 37.6256 73.1491 37.6185 73.1236L37.3158 72.0337C37.3087 72.0079 37.3062 71.9802 37.3084 71.9518L39.15 48.6422C39.1519 48.6176 39.1574 48.5927 39.1662 48.5681L47.4754 25.4329L47.594 24.9041C47.6111 24.8281 47.6598 24.7555 47.7285 24.7038L51.4277 21.9166C51.4637 21.8894 51.5105 21.9015 51.5022 21.9414Z" fill="#E9ACFF"/>
<path d="M53.9119 26.6869L55.6531 26.4065L55.6568 26.331L55.653 26.257L53.9119 26.6869ZM47.4754 25.4329L49.1149 25.6496L49.1537 25.5417L49.1781 25.4329H47.4754ZM39.15 48.6422L37.4118 48.8754L39.15 48.6422ZM39.1662 48.5681L37.5267 48.3514L39.1662 48.5681ZM37.3158 72.0337L39.0089 71.3029L37.3158 72.0337ZM37.3084 71.9518L39.0465 71.7186L37.3084 71.9518ZM37.6526 73.1928L39.1385 72.0417L37.6526 73.1928ZM37.6185 73.1236L35.9255 73.8544L37.6185 73.1236ZM39.8859 75.8283L38.189 75.8035L39.8859 75.8283ZM39.7052 75.8922L41.1912 74.7411L39.7052 75.8922ZM43.6682 72.769L42.0435 72.5125L43.6682 72.769ZM43.5525 72.9226L44.474 74.1124L43.5525 72.9226ZM52.8265 48.9069L51.0853 49.1873L52.8265 48.9069ZM52.8073 48.9953L54.4321 49.2518L52.8073 48.9953ZM51.4277 21.9166L52.3137 23.1337L51.4277 21.9166ZM51.5022 21.9414L53.211 21.9131L51.5022 21.9414ZM53.7672 24.6453L55.2128 23.4439L53.7672 24.6453ZM53.8158 24.7722L52.0747 25.2021L53.8158 24.7722ZM39.9301 75.7619L39.0086 74.5721L39.9301 75.7619ZM47.7285 24.7038L48.6145 25.9208L47.7285 24.7038ZM51.5077 21.9823L52.9533 20.781L51.5077 21.9823ZM51.5077 21.9823L50.0621 23.1837L52.3216 25.8466L53.7672 24.6453L55.2128 23.4439L52.9533 20.781L51.5077 21.9823ZM53.8158 24.7722L52.0747 25.2021L52.1708 27.1167L53.9119 26.6869L55.653 26.257L55.5569 24.3424L53.8158 24.7722ZM53.9119 26.6869L52.1708 26.9672L51.0853 49.1873L52.8265 48.9069L54.5676 48.6266L55.6531 26.4065L53.9119 26.6869ZM52.8073 48.9953L51.1826 48.7388L42.0435 72.5125L43.6682 72.769L45.293 73.0254L54.4321 49.2518L52.8073 48.9953ZM43.5525 72.9226L42.631 71.7328L39.0086 74.5721L39.9301 75.7619L40.8517 76.9516L44.474 74.1124L43.5525 72.9226ZM39.7052 75.8922L41.1912 74.7411L39.1385 72.0417L37.6526 73.1928L36.1666 74.3439L38.2193 77.0433L39.7052 75.8922ZM37.6185 73.1236L39.3115 72.3928L39.0089 71.3029L37.3158 72.0337L35.6228 72.7645L35.9255 73.8544L37.6185 73.1236ZM37.3084 71.9518L39.0465 71.7186L40.8881 48.409L39.15 48.6422L37.4118 48.8754L35.5703 72.185L37.3084 71.9518ZM39.1662 48.5681L40.8057 48.7849L49.1149 25.6496L47.4754 25.4329L45.8359 25.2161L37.5267 48.3514L39.1662 48.5681ZM47.4754 25.4329H49.1781L49.2967 24.9041H47.594H45.8914L45.7728 25.4329H47.4754ZM47.7285 24.7038L48.6145 25.9208L52.3137 23.1337L51.4277 21.9166L50.5416 20.6995L46.8424 23.4867L47.7285 24.7038ZM39.15 48.6422L40.8881 48.409C40.8782 48.5336 40.8505 48.6601 40.8057 48.7849L39.1662 48.5681L37.5267 48.3514C37.4642 48.5254 37.4256 48.7016 37.4118 48.8754L39.15 48.6422ZM37.3158 72.0337L39.0089 71.3029C39.0452 71.4339 39.058 71.5742 39.0465 71.7186L37.3084 71.9518L35.5703 72.185C35.5544 72.3863 35.5721 72.5819 35.6228 72.7645L37.3158 72.0337ZM37.6526 73.1928L39.1385 72.0417C39.2173 72.1453 39.2757 72.2638 39.3115 72.3928L37.6185 73.1236L35.9255 73.8544C35.9754 74.0343 36.0568 74.1995 36.1666 74.3439L37.6526 73.1928ZM39.8859 75.8283L38.189 75.8035C38.5246 74.4028 40.4245 73.7329 41.1912 74.7411L39.7052 75.8922L38.2193 77.0433C39.0788 78.1736 41.2067 77.4231 41.5828 75.8531L39.8859 75.8283ZM43.6682 72.769L42.0435 72.5125C42.1575 72.2159 42.3636 71.9423 42.631 71.7328L43.5525 72.9226L44.474 74.1124C44.8467 73.8203 45.134 73.4389 45.293 73.0254L43.6682 72.769ZM52.8265 48.9069L51.0853 49.1873C51.0926 49.039 51.1254 48.8875 51.1826 48.7388L52.8073 48.9953L54.4321 49.2518C54.5117 49.0445 54.5575 48.8334 54.5676 48.6266L52.8265 48.9069ZM51.4277 21.9166L52.3137 23.1337C51.8073 23.5152 51.1745 23.6592 50.6469 23.4987C50.0565 23.3192 49.633 22.7455 49.7935 21.9698L51.5022 21.9414L53.211 21.9131C53.3797 21.0974 52.9369 20.4977 52.3162 20.309C51.7583 20.1393 51.0841 20.2908 50.5416 20.6995L51.4277 21.9166ZM53.7672 24.6453L52.3216 25.8466C52.1724 25.6708 52.087 25.4479 52.0747 25.2021L53.8158 24.7722L55.5569 24.3424C55.5397 23.9998 55.4207 23.689 55.2128 23.4439L53.7672 24.6453ZM39.9301 75.7619L39.0086 74.5721C38.5948 74.8964 38.3002 75.3394 38.189 75.8035L39.8859 75.8283L41.5828 75.8531C41.4836 76.2672 41.2209 76.6622 40.8517 76.9516L39.9301 75.7619ZM47.594 24.9041H49.2967C49.2102 25.2899 48.963 25.6582 48.6145 25.9208L47.7285 24.7038L46.8424 23.4867C46.3566 23.8528 46.012 24.3663 45.8914 24.9041H47.594ZM51.5077 21.9823L52.9533 20.781C53.0893 20.9413 53.1524 21.1019 53.1825 21.1962C53.2151 21.2986 53.2297 21.3901 53.2367 21.4585C53.2493 21.5812 53.248 21.7342 53.211 21.9131L51.5022 21.9414L49.7935 21.9698C49.7539 22.1609 49.7518 22.3301 49.7659 22.468C49.7758 22.564 49.8135 22.8906 50.0621 23.1837L51.5077 21.9823Z" fill="#B979D0" mask="url(#path-26-outside-3_638_70671)"/>
<path d="M53.8123 24.6981L51.4643 21.9313C48.1383 30.6066 41.3852 48.2684 40.981 49.5135C40.5767 50.7586 39.9312 67.671 39.736 75.9716L43.6347 72.8589L52.8251 48.9514L53.913 26.6868L53.8123 24.6981Z" fill="#EFC1FF"/>
<path d="M37.6295 73.1614L39.7334 75.9715L43.1895 45.5402L51.4737 21.8879L47.6211 24.7845L47.4757 25.433L39.1532 48.6055L37.3054 71.9942L37.6295 73.1614Z" fill="#E9ACFF"/>
<path d="M54.2732 17.8958L58.2972 9.53937L61.2745 15.0162L61.1463 20.715L54.2732 17.8958Z" fill="#E0CE8E"/>
<rect width="1.92175" height="1.92175" rx="0.131755" transform="matrix(0.386546 0.92227 -0.795894 0.605437 27.5786 33.8503)" fill="#D9D9D9" stroke="#B979D0" stroke-width="2.67563"/>
<path d="M26.7973 36.7653L27.5732 33.8698L26.0647 35.0173L26.7973 36.7653Z" fill="#E9ACFF"/>
<path d="M26.7789 36.7603L27.5547 33.8649L28.3247 35.6228L26.7789 36.7603Z" fill="#EFC1FF"/>
<rect width="1.92175" height="1.92175" rx="0.131755" transform="matrix(0.386546 0.92227 -0.795894 0.605437 22.8105 51.6837)" fill="#D9D9D9" stroke="#B979D0" stroke-width="2.67563"/>
<path d="M22.0293 54.5985L22.8051 51.7031L21.2967 52.8505L22.0293 54.5985Z" fill="#E9ACFF"/>
<path d="M22.0103 54.5934L22.7861 51.698L23.5561 53.456L22.0103 54.5934Z" fill="#EFC1FF"/>
<rect width="3.23598" height="3.23598" rx="0.131755" transform="matrix(0.386546 0.92227 -0.795894 0.605437 24.3359 41.5747)" fill="#D9D9D9" stroke="#B979D0" stroke-width="2.67563"/>
<path d="M23.0201 46.4855L24.3271 41.6078L21.786 43.5409L23.0201 46.4855Z" fill="#E9ACFF"/>
<path d="M22.9884 46.4771L24.2954 41.5994L25.5925 44.5609L22.9884 46.4771Z" fill="#EFC1FF"/>
<rect width="1.92175" height="1.92175" rx="0.131755" transform="matrix(0.386546 0.92227 -0.795894 0.605437 71.8892 45.1302)" fill="#D9D9D9" stroke="#B979D0" stroke-width="2.67563"/>
<path d="M71.1084 48.0453L71.8842 45.1499L70.3758 46.2973L71.1084 48.0453Z" fill="#E9ACFF"/>
<path d="M71.0894 48.0403L71.8652 45.1449L72.6352 46.9029L71.0894 48.0403Z" fill="#EFC1FF"/>
<rect width="1.92175" height="1.92175" rx="0.131755" transform="matrix(0.386546 0.92227 -0.795894 0.605437 67.1206 62.9634)" fill="#D9D9D9" stroke="#B979D0" stroke-width="2.67563"/>
<path d="M66.3398 65.8785L67.1156 62.9831L65.6072 64.1306L66.3398 65.8785Z" fill="#E9ACFF"/>
<path d="M66.3209 65.8736L67.0967 62.9781L67.8666 64.7361L66.3209 65.8736Z" fill="#EFC1FF"/>
<rect width="3.23598" height="3.23598" rx="0.131755" transform="matrix(0.386546 0.92227 -0.795894 0.605437 72.3447 53.7485)" fill="#D9D9D9" stroke="#B979D0" stroke-width="2.67563"/>
<path d="M71.0289 58.6592L72.3359 53.7816L69.7948 55.7146L71.0289 58.6592Z" fill="#E9ACFF"/>
<path d="M70.9977 58.6509L72.3047 53.7732L73.6018 56.7347L70.9977 58.6509Z" fill="#EFC1FF"/>
</g>
<defs>
<clipPath id="clip0_638_70671">
<rect width="100" height="100" fill="white"/>
</clipPath>
</defs>
</svg>
