<svg width="100" height="100" viewBox="0 0 100 100" fill="none" xmlns="http://www.w3.org/2000/svg">
<g clip-path="url(#clip0_670_70653)">
<path d="M11.083 5.07181L17.9467 9.99146L18.3061 10.2484L18.555 10.6139L24.1695 18.8362L28.8253 24.7144L29.02 24.9607L29.1481 25.2476L33.591 35.1995L33.6105 35.2417L33.6274 35.2847C37.2202 44.2024 43.7312 58.4606 61.1621 67.69C68.5877 71.0698 75.8726 74.2951 81.5879 76.8511C84.4498 78.131 86.9242 79.2458 88.815 80.1239C90.4029 80.8614 91.7192 81.4945 92.4815 81.9314L92.7737 82.1074L94.1015 82.9479L93.9185 84.5095L93.245 90.2717L93.0542 91.907L91.4753 92.3771C80.025 95.786 62.2785 97.8056 46.2345 92.6089C38.1723 89.9976 30.5006 85.5491 24.3227 78.5073C18.1406 71.4605 13.5624 61.9395 11.5033 49.3587L11.4706 49.1572L11.4707 48.9544C11.4714 39.1251 12.4924 33.1531 13.6823 29.3694C14.2815 27.4638 14.9182 26.1305 15.4715 25.1538C15.5768 24.968 15.6796 24.7977 15.7741 24.6423C15.6418 24.4313 15.4904 24.1968 15.3207 23.9413C14.7004 23.0077 13.8756 21.8527 12.9498 20.6452C11.0588 18.1789 8.90815 15.707 7.3037 14.4085C6.18011 13.4993 5.30437 12.4694 4.86904 11.2808C4.40162 10.0046 4.52137 8.75307 5.04435 7.69959C5.52811 6.7253 6.28771 6.04653 6.94903 5.60628C7.61971 5.15982 8.35347 4.8477 9.0121 4.68059L10.1379 4.3948L11.083 5.07181Z" fill="#C1A53F" stroke="#68581E" stroke-width="5"/>
<path d="M25.4344 48.5649C24.7755 47.636 23.4842 34.7739 22.9209 28.459C25.5907 28.6178 26.6 27.2618 26.7709 26.564L29.0421 31.2455C29.6376 32.2399 31.9854 36.7991 36.6125 47.0813C45.6173 63.0544 61.4758 71.4183 68.2795 73.6036L91.8265 84.3228C91.565 84.5287 90.8813 85.4459 90.2378 87.4674C40.634 81.1436 26.258 49.7259 25.4344 48.5649Z" fill="#D6B648"/>
<path d="M19.8522 30.3638L18.2344 26.3885C18.2853 24.2734 5.97092 49.7356 24.6425 74.6185C39.5797 94.5248 70.6855 94.7506 83.9985 91.9853C76.1595 90.2092 55.9715 84.6416 37.9314 76.5801C19.8913 68.5187 18.3619 42.4103 19.8522 30.3638Z" fill="#B09A49"/>
<path d="M10.4272 10.382C9.79035 10.6204 9.3989 12.5409 9.33559 12.7951C7.23095 11.837 6.59482 9.21374 7.14636 8.41663L8.90726 7.1179L9.81151 7.1179L16.4743 11.9384C15.7212 11.7738 13.6605 10.7533 13.0562 10.4782C12.3008 10.1344 11.2232 10.084 10.4272 10.382Z" fill="#593D24"/>
<path d="M90.7263 89.9853C88.0833 89.5054 89.7441 84.4755 91.8499 84.2706L91.1905 90.0709C91.1313 90.0858 90.9556 90.0897 90.7263 89.9853Z" fill="#593D24"/>
</g>
<defs>
<clipPath id="clip0_670_70653">
<rect width="100" height="100" fill="white"/>
</clipPath>
</defs>
</svg>
