<svg width="100" height="100" viewBox="0 0 100 100" fill="none" xmlns="http://www.w3.org/2000/svg">
<g clip-path="url(#clip0_471_56)">
<mask id="path-1-outside-1_471_56" maskUnits="userSpaceOnUse" x="-4.41146" y="5.54244" width="107.794" height="96.9694" fill="black">
<rect fill="white" x="-4.41146" y="5.54244" width="107.794" height="96.9694"/>
<path fill-rule="evenodd" clip-rule="evenodd" d="M54.8499 76.2561C55.8125 76.8474 57.729 79.7322 59.9221 83.0335L59.9223 83.0337C60.8928 84.4946 61.9175 86.0371 62.9377 87.4985C61.8025 87.4706 61.1294 87.6732 61.1294 87.6732L52.0736 79.7072C52.0736 79.7072 51.3047 77.8762 50.1945 75.4657C50.6283 75.5039 51.0493 75.5122 51.4616 75.5203L51.4617 75.5203C52.6278 75.5434 53.7251 75.5651 54.8499 76.2561ZM59.0276 92.3697C62.8758 94.1346 66.5085 95.0521 70.3253 94.366L77.4479 94.1089C77.5735 94.1044 77.6959 94.0774 77.8101 94.0248C83.4315 91.4334 89.027 82.3802 89.553 80.9636C89.6714 80.6445 89.8712 80.1813 90.1161 79.6131L90.1162 79.6128C91.2445 76.9959 93.3323 72.1533 92.8633 68.9129C92.3204 65.1622 89.9306 58.6399 88.7636 56.4061C87.8385 54.6352 73.8967 43.1142 69.3974 40.5292C69.313 40.4807 69.2283 40.4499 69.1333 40.4287L67.6142 40.0907L67.5694 39.7691L67.0719 39.3849L59.3063 33.384L59.0905 33.2176L58.8304 33.1353L55.9414 32.2178C53.4785 29.4108 50.8983 26.7874 49.0131 26.0875C46.3286 25.0909 40.5449 22.0125 36.0851 19.6389C33.2868 18.1495 31.0098 16.9376 30.3466 16.6914L17.3638 11.8713C17.2797 11.8401 17.1945 11.8213 17.1051 11.8136L9.79254 11.1771C9.08898 11.1159 8.52943 11.7879 8.75736 12.4563C9.26474 13.9442 10.1789 15.9041 12.5292 18.4186C13.4859 19.4422 15.1117 21.058 17.0131 22.9478L17.0131 22.9479C21.4035 27.3114 27.264 33.1362 29.7547 36.5064C29.7932 36.5584 29.8242 36.6115 29.8516 36.6701L38.3486 54.8126C38.9038 56.0234 40.0183 58.9397 40.0351 60.9187C40.0425 61.794 40.1029 62.8607 40.3479 64.0766C36.9608 67.2051 50.1133 88.2813 59.0276 92.3697Z"/>
</mask>
<path fill-rule="evenodd" clip-rule="evenodd" d="M54.8499 76.2561C55.8125 76.8474 57.729 79.7322 59.9221 83.0335L59.9223 83.0337C60.8928 84.4946 61.9175 86.0371 62.9377 87.4985C61.8025 87.4706 61.1294 87.6732 61.1294 87.6732L52.0736 79.7072C52.0736 79.7072 51.3047 77.8762 50.1945 75.4657C50.6283 75.5039 51.0493 75.5122 51.4616 75.5203L51.4617 75.5203C52.6278 75.5434 53.7251 75.5651 54.8499 76.2561ZM59.0276 92.3697C62.8758 94.1346 66.5085 95.0521 70.3253 94.366L77.4479 94.1089C77.5735 94.1044 77.6959 94.0774 77.8101 94.0248C83.4315 91.4334 89.027 82.3802 89.553 80.9636C89.6714 80.6445 89.8712 80.1813 90.1161 79.6131L90.1162 79.6128C91.2445 76.9959 93.3323 72.1533 92.8633 68.9129C92.3204 65.1622 89.9306 58.6399 88.7636 56.4061C87.8385 54.6352 73.8967 43.1142 69.3974 40.5292C69.313 40.4807 69.2283 40.4499 69.1333 40.4287L67.6142 40.0907L67.5694 39.7691L67.0719 39.3849L59.3063 33.384L59.0905 33.2176L58.8304 33.1353L55.9414 32.2178C53.4785 29.4108 50.8983 26.7874 49.0131 26.0875C46.3286 25.0909 40.5449 22.0125 36.0851 19.6389C33.2868 18.1495 31.0098 16.9376 30.3466 16.6914L17.3638 11.8713C17.2797 11.8401 17.1945 11.8213 17.1051 11.8136L9.79254 11.1771C9.08898 11.1159 8.52943 11.7879 8.75736 12.4563C9.26474 13.9442 10.1789 15.9041 12.5292 18.4186C13.4859 19.4422 15.1117 21.058 17.0131 22.9478L17.0131 22.9479C21.4035 27.3114 27.264 33.1362 29.7547 36.5064C29.7932 36.5584 29.8242 36.6115 29.8516 36.6701L38.3486 54.8126C38.9038 56.0234 40.0183 58.9397 40.0351 60.9187C40.0425 61.794 40.1029 62.8607 40.3479 64.0766C36.9608 67.2051 50.1133 88.2813 59.0276 92.3697Z" fill="#D2CBC5"/>
<path d="M59.9221 83.0335L64.1015 80.289L64.0942 80.2778L64.0868 80.2667L59.9221 83.0335ZM54.8499 76.2561L57.4671 71.9957L57.4671 71.9957L54.8499 76.2561ZM59.9223 83.0337L55.7428 85.7782L55.7502 85.7894L55.7575 85.8005L59.9223 83.0337ZM62.9377 87.4985L62.8152 92.497L72.6942 92.739L67.0375 84.6363L62.9377 87.4985ZM61.1294 87.6732L57.827 91.4274L59.9115 93.261L62.57 92.4611L61.1294 87.6732ZM52.0736 79.7072L47.4636 81.6432L47.9085 82.7025L48.7712 83.4614L52.0736 79.7072ZM50.1945 75.4657L50.6324 70.485L42.0482 69.7303L45.653 77.5574L50.1945 75.4657ZM51.4616 75.5203L51.9294 70.5423L51.7453 70.525L51.5604 70.5213L51.4616 75.5203ZM51.4617 75.5203L50.9939 80.4984L51.178 80.5157L51.3629 80.5194L51.4617 75.5203ZM70.3253 94.366L70.1449 89.3693L69.7901 89.3821L69.4407 89.4449L70.3253 94.366ZM59.0276 92.3697L61.112 87.8249L61.112 87.8249L59.0276 92.3697ZM77.4479 94.1089L77.6282 99.1057L77.6282 99.1057L77.4479 94.1089ZM77.8101 94.0248L79.9031 98.5656L79.9033 98.5655L77.8101 94.0248ZM89.553 80.9636L94.2404 82.7038L94.2404 82.7038L89.553 80.9636ZM90.1161 79.6131L85.5414 77.5951L85.5329 77.6143L85.5246 77.6336L90.1161 79.6131ZM90.1162 79.6128L94.6909 81.6308L94.6994 81.6116L94.7077 81.5923L90.1162 79.6128ZM92.8633 68.9129L87.9149 69.6291L87.9149 69.6291L92.8633 68.9129ZM88.7636 56.4061L93.1953 54.091L93.1953 54.0909L88.7636 56.4061ZM69.3974 40.5292L71.8882 36.1938L71.8881 36.1937L69.3974 40.5292ZM69.1333 40.4287L68.0473 45.3094V45.3094L69.1333 40.4287ZM67.6142 40.0907L62.6621 40.7809L63.1411 44.2176L66.5282 44.9713L67.6142 40.0907ZM67.5694 39.7691L72.5216 39.0789L72.24 37.0585L70.6254 35.8116L67.5694 39.7691ZM67.0719 39.3849L64.0146 43.3413L64.016 43.3423L67.0719 39.3849ZM59.3063 33.384L62.3636 29.4277L62.3594 29.4244L59.3063 33.384ZM59.0905 33.2176L62.1436 29.258L61.4428 28.7177L60.5992 28.4507L59.0905 33.2176ZM58.8304 33.1353L57.3169 37.9007L57.3216 37.9022L58.8304 33.1353ZM55.9414 32.2178L52.183 35.5154L53.1011 36.5618L54.4279 36.9832L55.9414 32.2178ZM49.0131 26.0875L50.7534 21.4002L50.7534 21.4002L49.0131 26.0875ZM36.0851 19.6389L33.7359 24.0526V24.0526L36.0851 19.6389ZM30.3466 16.6914L32.0869 12.004L32.0869 12.004L30.3466 16.6914ZM17.3638 11.8713L19.1041 7.18396L19.1041 7.18395L17.3638 11.8713ZM17.1051 11.8136L16.6716 16.7947L16.6717 16.7947L17.1051 11.8136ZM9.79254 11.1771L10.2261 6.19596L10.226 6.19596L9.79254 11.1771ZM8.75736 12.4563L4.02493 14.07L4.02494 14.0701L8.75736 12.4563ZM12.5292 18.4186L8.87638 21.8329L8.87639 21.8329L12.5292 18.4186ZM17.0131 22.9478L20.608 19.4726L20.5732 19.4367L20.5378 19.4015L17.0131 22.9478ZM17.0131 22.9479L13.4183 26.4231L13.453 26.459L13.4885 26.4942L17.0131 22.9479ZM29.7547 36.5064L33.7758 33.5347L33.7758 33.5346L29.7547 36.5064ZM29.8516 36.6701L34.3796 34.5494L34.3794 34.549L29.8516 36.6701ZM38.3486 54.8126L42.8936 52.7287L42.8852 52.7103L42.8766 52.6919L38.3486 54.8126ZM40.0351 60.9187L45.0349 60.8763L45.0349 60.8763L40.0351 60.9187ZM40.3479 64.0766L43.7404 67.7496L45.8045 65.8432L45.2494 63.0888L40.3479 64.0766ZM59.9221 83.0335L64.0868 80.2667C63.0091 78.6444 61.9205 77.0043 60.9759 75.6982C60.5031 75.0446 60.0102 74.3959 59.5272 73.8356C59.1361 73.382 58.4127 72.5766 57.4671 71.9957L54.8499 76.2561L52.2327 80.5164C51.7684 80.2312 51.6455 80.0082 51.9531 80.3649C52.1686 80.615 52.4724 81.0047 52.8732 81.5589C53.6757 82.6684 54.642 84.1213 55.7574 85.8002L59.9221 83.0335ZM59.9223 83.0337L64.1017 80.2892L64.1015 80.289L59.9221 83.0335L55.7427 85.778L55.7428 85.7782L59.9223 83.0337ZM62.9377 87.4985L67.0375 84.6363C66.056 83.2304 65.0633 81.7366 64.087 80.267L59.9223 83.0337L55.7575 85.8005C56.7222 87.2527 57.779 88.8438 58.838 90.3606L62.9377 87.4985ZM61.1294 87.6732C62.57 92.4611 62.5688 92.4615 62.5677 92.4618C62.5673 92.4619 62.5661 92.4623 62.5653 92.4625C62.5638 92.463 62.5622 92.4635 62.5607 92.4639C62.5576 92.4648 62.5546 92.4657 62.5516 92.4666C62.5456 92.4684 62.5397 92.4701 62.534 92.4718C62.5226 92.4752 62.5116 92.4783 62.5013 92.4812C62.4805 92.4871 62.4619 92.4922 62.4454 92.4966C62.4123 92.5054 62.3875 92.5114 62.3706 92.5153C62.337 92.523 62.3341 92.5224 62.3593 92.5186C62.4101 92.5109 62.5686 92.4909 62.8152 92.497L62.9377 87.4985L63.0602 82.5C62.1716 82.4782 61.4259 82.5456 60.8564 82.6322C60.5714 82.6755 60.3293 82.7238 60.1339 82.7686C60.0362 82.7911 59.95 82.8127 59.8757 82.8324C59.8385 82.8423 59.8043 82.8517 59.7732 82.8605C59.7576 82.865 59.7428 82.8692 59.7287 82.8734C59.7217 82.8754 59.7148 82.8774 59.7082 82.8794C59.7048 82.8804 59.7016 82.8814 59.6983 82.8823C59.6967 82.8828 59.6951 82.8833 59.6935 82.8838C59.6927 82.884 59.6915 82.8844 59.6911 82.8845C59.6899 82.8848 59.6888 82.8852 61.1294 87.6732ZM52.0736 79.7072L48.7712 83.4614L57.827 91.4274L61.1294 87.6732L64.4318 83.919L55.376 75.953L52.0736 79.7072ZM50.1945 75.4657L45.653 77.5574C46.1909 78.7253 46.6466 79.7538 46.9672 80.489C47.1273 80.8561 47.2532 81.1489 47.3382 81.3479C47.3807 81.4474 47.413 81.5234 47.4342 81.5735C47.4448 81.5985 47.4526 81.617 47.4576 81.6287C47.46 81.6346 47.4618 81.6387 47.4628 81.6412C47.4633 81.6424 47.4636 81.6432 47.4638 81.6435C47.4638 81.6437 47.4639 81.6437 47.4639 81.6437C47.4638 81.6436 47.4638 81.6436 47.4638 81.6435C47.4638 81.6435 47.4637 81.6434 47.4637 81.6434C47.4637 81.6433 47.4636 81.6432 52.0736 79.7072C56.6836 77.7712 56.6836 77.7711 56.6835 77.771C56.6835 77.771 56.6835 77.7708 56.6834 77.7707C56.6833 77.7706 56.6832 77.7703 56.6831 77.7701C56.6829 77.7696 56.6827 77.769 56.6824 77.7683C56.6818 77.7668 56.681 77.7649 56.68 77.7626C56.678 77.7579 56.6753 77.7515 56.6719 77.7434C56.665 77.7271 56.6553 77.704 56.6427 77.6742C56.6175 77.6147 56.581 77.5288 56.534 77.4189C56.4402 77.1993 56.3045 76.8837 56.1336 76.4918C55.7921 75.7088 55.3083 74.6166 54.736 73.3741L50.1945 75.4657ZM51.4616 75.5203L51.5604 70.5213C51.1248 70.5127 50.8705 70.5059 50.6324 70.485L50.1945 75.4657L49.7567 80.4465C50.3862 80.5019 50.9737 80.5117 51.3629 80.5194L51.4616 75.5203ZM51.4617 75.5203L51.9294 70.5423L51.9294 70.5423L51.4616 75.5203L50.9939 80.4984L50.9939 80.4984L51.4617 75.5203ZM54.8499 76.2561L57.4671 71.9957C55.0409 70.5053 52.6266 70.5424 51.5604 70.5213L51.4617 75.5203L51.3629 80.5194C51.6706 80.5255 51.8655 80.5299 52.0428 80.5399C52.2083 80.5492 52.2956 80.5606 52.3388 80.5679C52.3764 80.5743 52.367 80.5753 52.3309 80.5625C52.292 80.5486 52.2561 80.5307 52.2327 80.5164L54.8499 76.2561ZM70.3253 94.366L69.4407 89.4449C67.0382 89.8767 64.5001 89.3788 61.112 87.8249L59.0276 92.3697L56.9432 96.9145C61.2514 98.8904 65.9789 100.227 71.2098 99.2872L70.3253 94.366ZM77.4479 94.1089L77.2675 89.1122L70.1449 89.3693L70.3253 94.366L70.5056 99.3628L77.6282 99.1057L77.4479 94.1089ZM77.8101 94.0248L75.7171 89.484C76.2562 89.2355 76.7917 89.1294 77.2675 89.1122L77.4479 94.1089L77.6282 99.1057C78.3554 99.0794 79.1356 98.9194 79.9031 98.5656L77.8101 94.0248ZM89.553 80.9636L84.8656 79.2233C84.9371 79.0307 84.7572 79.4609 84.0575 80.5706C83.4537 81.528 82.6267 82.7325 81.6575 83.9686C79.5738 86.6263 77.383 88.716 75.7169 89.484L77.8101 94.0248L79.9033 98.5655C83.8586 96.7422 87.2762 93.0096 89.5271 90.1387C90.7252 88.6105 91.7471 87.1241 92.5161 85.9046C93.1891 84.8374 93.9059 83.6048 94.2404 82.7038L89.553 80.9636ZM90.1161 79.6131L85.5246 77.6336C85.3048 78.1436 85.0403 78.7527 84.8656 79.2233L89.553 80.9636L94.2404 82.7038C94.3026 82.5362 94.4376 82.2189 94.7076 81.5927L90.1161 79.6131ZM90.1162 79.6128L85.5416 77.5948L85.5414 77.5951L90.1161 79.6131L94.6908 81.6311L94.6909 81.6308L90.1162 79.6128ZM92.8633 68.9129L87.9149 69.6291C87.9815 70.0891 87.8745 71.2108 87.3144 73.0115C86.7993 74.6674 86.098 76.3037 85.5248 77.6332L90.1162 79.6128L94.7077 81.5923C95.2627 80.305 96.1695 78.2115 96.8631 75.9818C97.5117 73.8968 98.2142 70.977 97.8117 68.1966L92.8633 68.9129ZM88.7636 56.4061L84.3319 58.7212C84.7392 59.501 85.532 61.4082 86.3151 63.7046C87.0988 66.0026 87.711 68.2204 87.9149 69.6291L92.8633 68.9129L97.8117 68.1966C97.4728 65.8546 96.6185 62.936 95.7798 60.4768C94.9406 58.0158 93.9549 55.545 93.1953 54.091L88.7636 56.4061ZM69.3974 40.5292L66.9065 44.8646C68.7371 45.9163 73.0366 49.1732 77.2445 52.6344C79.2861 54.3137 81.1898 55.9451 82.6179 57.2425C83.3366 57.8955 83.8939 58.4268 84.2749 58.8166C84.467 59.0132 84.576 59.1347 84.6239 59.1914C84.7278 59.3144 84.5398 59.1192 84.3319 58.7212L88.7636 56.4061L93.1953 54.0909C92.8718 53.4716 92.4664 52.9789 92.2623 52.7373C92.0021 52.4294 91.7123 52.1193 91.4259 51.8264C90.8498 51.237 90.1309 50.5575 89.3422 49.841C87.7555 48.3994 85.719 46.6569 83.5971 44.9114C79.478 41.5232 74.5569 37.727 71.8882 36.1938L69.3974 40.5292ZM69.1333 40.4287L68.0473 45.3094C67.719 45.2363 67.3184 45.1012 66.9066 44.8646L69.3974 40.5292L71.8881 36.1937C71.3077 35.8603 70.7375 35.6634 70.2194 35.5481L69.1333 40.4287ZM67.6142 40.0907L66.5282 44.9713L68.0473 45.3094L69.1333 40.4287L70.2194 35.5481L68.7003 35.2101L67.6142 40.0907ZM67.5694 39.7691L62.6173 40.4592L62.6621 40.7809L67.6142 40.0907L72.5664 39.4006L72.5216 39.0789L67.5694 39.7691ZM67.0719 39.3849L64.016 43.3423L64.5135 43.7265L67.5694 39.7691L70.6254 35.8116L70.1279 35.4275L67.0719 39.3849ZM59.3063 33.384L56.249 37.3404L64.0146 43.3413L67.0719 39.3849L70.1292 35.4285L62.3636 29.4277L59.3063 33.384ZM59.0905 33.2176L56.0373 37.1772L56.2532 37.3437L59.3063 33.384L62.3594 29.4244L62.1436 29.258L59.0905 33.2176ZM58.8304 33.1353L57.3216 37.9022L57.5817 37.9845L59.0905 33.2176L60.5992 28.4507L60.3392 28.3684L58.8304 33.1353ZM55.9414 32.2178L54.4279 36.9832L57.3169 37.9007L58.8304 33.1353L60.3439 28.3699L57.4549 27.4523L55.9414 32.2178ZM49.0131 26.0875L47.2729 30.7749C47.2452 30.7647 47.7601 31.0155 48.8741 32.041C49.8695 32.9574 50.9946 34.161 52.183 35.5154L55.9414 32.2178L59.6997 28.9201C58.4252 27.4675 57.0287 25.9559 55.6471 24.6839C54.384 23.5211 52.6661 22.1103 50.7534 21.4002L49.0131 26.0875ZM36.0851 19.6389L33.7359 24.0526C38.0013 26.3229 44.1857 29.6288 47.2729 30.7749L49.0131 26.0875L50.7534 21.4002C48.4715 20.553 43.0884 17.7022 38.4343 15.2251L36.0851 19.6389ZM30.3466 16.6914L28.6064 21.3787C28.5121 21.3438 28.5765 21.3636 28.9316 21.5374C29.2306 21.6837 29.6251 21.8842 30.1122 22.137C31.0858 22.6422 32.3284 23.3035 33.7359 24.0526L36.0851 19.6389L38.4343 15.2251C37.0436 14.4849 35.7485 13.7955 34.7182 13.2609C33.8291 12.7995 32.7757 12.2597 32.0869 12.004L30.3466 16.6914ZM17.3638 11.8713L15.6236 16.5587L28.6064 21.3787L30.3466 16.6914L32.0869 12.004L19.1041 7.18396L17.3638 11.8713ZM17.1051 11.8136L16.6717 16.7947C16.3286 16.7649 15.9732 16.6885 15.6236 16.5587L17.3638 11.8713L19.1041 7.18395C18.5862 6.9917 18.0603 6.87778 17.5385 6.83238L17.1051 11.8136ZM9.79254 11.1771L9.35902 16.1583L16.6716 16.7947L17.1051 11.8136L17.5386 6.83239L10.2261 6.19596L9.79254 11.1771ZM8.75736 12.4563L13.4898 10.8426C14.5089 13.8311 12.0003 16.3882 9.35904 16.1583L9.79254 11.1771L10.226 6.19596C6.17769 5.84364 2.55 9.74465 4.02493 14.07L8.75736 12.4563ZM12.5292 18.4186L16.182 15.0043C14.3425 13.0364 13.7821 11.6999 13.4898 10.8425L8.75736 12.4563L4.02494 14.0701C4.74734 16.1885 6.01534 18.7719 8.87638 21.8329L12.5292 18.4186ZM17.0131 22.9478L20.5378 19.4015C18.601 17.4766 17.0593 15.943 16.182 15.0043L12.5292 18.4186L8.87639 21.8329C9.91256 22.9414 11.6223 24.6394 13.4884 26.4942L17.0131 22.9478ZM17.0131 22.9479L20.608 19.4727L20.608 19.4726L17.0131 22.9478L13.4183 26.4231L13.4183 26.4231L17.0131 22.9479ZM29.7547 36.5064L33.7758 33.5346C30.998 29.7759 24.7743 23.6121 20.5378 19.4015L17.0131 22.9479L13.4885 26.4942C18.0328 31.0108 23.5301 36.4964 25.7337 39.4781L29.7547 36.5064ZM29.8516 36.6701L34.3794 34.549C34.2243 34.2178 34.0278 33.8757 33.7758 33.5347L29.7547 36.5064L25.7336 39.478C25.5585 39.2411 25.4241 39.0052 25.3238 38.7911L29.8516 36.6701ZM38.3486 54.8126L42.8766 52.6919L34.3796 34.5494L29.8516 36.6701L25.3236 38.7907L33.8206 56.9333L38.3486 54.8126ZM40.0351 60.9187L45.0349 60.8763C45.0202 59.1416 44.5602 57.3557 44.1689 56.0951C43.7507 54.7481 43.2545 53.5156 42.8936 52.7287L38.3486 54.8126L33.8036 56.8965C33.9979 57.3203 34.3365 58.1514 34.6185 59.06C34.9274 60.0551 35.0332 60.7169 35.0352 60.9612L40.0351 60.9187ZM40.3479 64.0766L45.2494 63.0888C45.086 62.278 45.0406 61.5467 45.0349 60.8763L40.0351 60.9187L35.0352 60.9612C35.0444 62.0413 35.1198 63.4434 35.4465 65.0645L40.3479 64.0766ZM59.0276 92.3697L61.112 87.8249C59.7655 87.2073 57.8028 85.6833 55.522 83.247C53.3224 80.8973 51.1289 78.026 49.277 75.1537C47.4065 72.2528 46.0102 69.5459 45.2866 67.5431C44.9151 66.5151 44.8158 65.9292 44.8035 65.7241C44.7801 65.3327 44.9897 66.5957 43.7404 67.7496L40.3479 64.0766L36.9554 60.4036C34.8594 62.3396 34.7391 64.9457 34.8214 66.3216C34.9149 67.8839 35.3572 69.4898 35.8817 70.9415C36.95 73.8981 38.7639 77.3024 40.8725 80.5727C42.9996 83.8715 45.554 87.2314 48.2217 90.0811C50.8084 92.8442 53.8326 95.4879 56.9432 96.9145L59.0276 92.3697Z" fill="#696969" mask="url(#path-1-outside-1_471_56)"/>
<path d="M41.5386 49.9192L51.4246 46.9871L58.4046 43.2247L60.9215 45.2227L66.8376 45.3784C72.2607 51.3896 83.1639 63.5314 83.3922 64.0088C83.6776 64.6056 83.8074 71.0666 83.2884 72.6234C82.8733 73.8689 80.8493 78.1763 79.8893 80.1742L72.9093 87.1542C69.2334 87.4223 61.7051 87.8859 60.9993 87.5953C60.2936 87.3047 56.026 84.6286 53.6561 83.0025L47.0914 76.4378L45.4567 69.9249L45.4307 69.2243L45.9497 60.1945L44.0814 58.3263L41.5386 49.9192Z" fill="#CBC3BC"/>
<path d="M19.5352 18.73L27.553 19.5344L50.0237 29.7059C51.8141 32.3785 55.452 37.9884 55.6803 39.047C55.9087 40.1057 52.4715 41.8407 51.5546 43.7955L43.3552 46.027L38.3992 45.4821L19.5352 18.73Z" fill="#CBC3BC"/>
<path d="M60.303 61.7801L64.711 52.1323L73.6468 54.7042C76.6237 58.3257 82.5588 66.0017 82.4844 67.7344C82.3915 69.9003 81.1954 73.2156 81.0718 74.5308C80.9729 75.583 70.7884 82.5086 65.7085 85.8398L60.5942 83.0004L61.5108 73.2456L60.303 61.7801Z" fill="#BBB3AB"/>
<path d="M60.4579 63.7022L64.489 54.8793L72.6607 57.2313C75.3831 60.5432 80.8108 67.5629 80.7428 69.1474C80.6578 71.1281 79.5639 74.16 79.4509 75.3628C79.3605 76.325 70.0468 82.6584 65.4012 85.7048L60.7241 83.1082L61.5624 74.1874L60.4579 63.7022Z" fill="#ACA195"/>
<path d="M62.3878 65.6307L65.3613 59.1225L71.3892 60.8575C73.3974 63.3004 77.4011 68.4785 77.3509 69.6474C77.2882 71.1084 76.4814 73.3449 76.398 74.2321C76.3313 74.9419 69.4611 79.6137 66.0343 81.8609L62.5842 79.9455L63.2025 73.3651L62.3878 65.6307Z" fill="#90867B"/>
<path d="M64.7727 67.1217L66.8176 62.646L70.963 63.8392C72.344 65.5192 75.0973 69.0801 75.0628 69.8839C75.0197 70.8887 74.4648 72.4267 74.4075 73.0368C74.3616 73.525 69.637 76.7377 67.2804 78.2831L64.9078 76.9659L65.333 72.4406L64.7727 67.1217Z" fill="#7B756D"/>
<path d="M66.471 68.3571L67.8129 65.4201L70.5332 66.203C71.4394 67.3055 73.2462 69.6422 73.2235 70.1697C73.1952 70.829 72.8311 71.8383 72.7935 72.2387C72.7634 72.559 69.663 74.6673 68.1166 75.6814L66.5597 74.817L66.8387 71.8474L66.471 68.3571Z" fill="#696560"/>
<path d="M32.0177 22.7498L38.2971 24.9813C39.309 25.3706 40.6043 27.0645 41.3308 27.0852C42.0574 27.106 48.181 30.3027 51.0612 33.1829L52.1531 36.087L51.0093 39.618L47.688 42.9393L43.1233 40.031L35.365 33.0511L27.4769 25.163L27.399 21.7119L32.0177 22.7498Z" fill="#BBB3AB"/>
<path d="M35.2218 27.8981L39.7086 29.4966C40.4317 29.7753 41.3581 30.9862 41.877 31.0015C42.396 31.0169 46.7723 33.3047 48.8316 35.3641L49.6136 37.4392L48.7993 39.9603L46.4294 42.3302L43.1669 40.2496L37.6202 35.2583L31.9803 29.6183L31.9221 27.1533L35.2218 27.8981Z" fill="#ACA195"/>
<path d="M35.4208 29.8506L38.9909 31.8551C39.5702 32.1935 40.4721 33.2496 40.8533 33.3578C41.2345 33.4661 44.853 35.9525 46.7395 37.839L47.6977 39.4981L47.5755 41.184L46.4169 42.3426L43.3031 40.4225L37.8541 35.5443L33.1835 30.8737L32.8758 28.6905L35.4208 29.8506Z" fill="#91867B"/>
<path d="M51.8401 53.3702L51.5287 46.9352L41.5907 49.9711L44.0038 58.1965L46.0797 60.2723L51.8141 62.3741L50.2832 79.8369L52.9558 82.5095L54.4608 83.0284L55.4987 80.9007L57.4707 75.7112L56.3809 67.3041L54.2013 60.3501L51.8401 53.3702Z" fill="#C0B8B0"/>
<path d="M48.0774 54.1228L47.1952 48.3105L41.5905 49.9712L44.0036 58.1966L46.0794 60.2724L51.8139 62.3742L50.2829 79.837L52.9556 82.5096L54.3048 83.1843L53.8637 80.0446L54.2789 75.0626L54.0973 68.2903L52.4626 60.8433L48.0774 54.1228Z" fill="#B7ACA2"/>
<path d="M58.8459 52.6958L66.4745 45.0672L62.0115 43.7179C60.7747 45.3699 58.2387 48.7673 57.9896 49.1409C57.7405 49.5146 52.1773 55.7663 49.4269 58.8454L44.6784 61.0509L44.5487 68.2904L46.1834 76.879L50.2053 81.6794L51.8659 62.53L58.8459 52.6958Z" fill="#D2CBC5"/>
<path d="M25.0879 24.5943L22.571 19.1193L19.561 19.0674L38.5547 45.4822L43.2513 45.8714L46.0277 45.5341L40.2932 42.9133L28.7465 29.9135L25.0879 24.5943Z" fill="#C0B8B0"/>
</g>
<defs>
<clipPath id="clip0_471_56">
<rect width="100" height="100" fill="white"/>
</clipPath>
</defs>
</svg>
