<svg width="100" height="100" viewBox="0 0 100 100" fill="none" xmlns="http://www.w3.org/2000/svg">
<g clip-path="url(#clip0_638_70684)">
<path d="M43.9179 97.2108C42.7078 97.3783 41.5391 96.6728 41.1233 95.524L41.0461 95.2709L39.8519 90.523L39.8151 90.3563C39.7539 90.0215 39.7594 89.6778 39.8307 89.3448L39.8721 89.1793L41.0971 84.8663L41.1266 84.7604L41.1656 84.6578L46.0869 71.7607L45.7987 70.0979C45.4552 69.6715 45.0736 69.1983 44.667 68.6946C43.1146 67.814 40.9692 66.5729 39.1099 65.4468C38.097 64.8333 37.1438 64.2386 36.4114 63.7478C36.049 63.505 35.7064 63.2655 35.4274 63.0478C35.2898 62.9404 35.1347 62.8118 34.9879 62.6722C34.908 62.5962 34.6625 62.365 34.4522 62.0201L34.3648 61.8648L32.4988 58.3879C31.653 56.8174 30.693 55.0382 30.0008 53.7555C29.0424 52.8387 27.7208 51.5475 26.5525 50.3473C25.9113 49.6884 25.2962 49.0363 24.8074 48.4793C24.5642 48.2022 24.3323 47.9263 24.1375 47.6708C23.9806 47.465 23.7131 47.1029 23.5351 46.6927C23.5974 46.8362 23.6048 46.8089 23.3574 46.4615C23.1633 46.1891 22.8949 45.8318 22.5633 45.4032C21.9006 44.5463 21.054 43.4895 20.1838 42.3977C19.3244 41.3193 18.4427 40.2077 17.746 39.2841C17.3988 38.8237 17.0795 38.3856 16.8242 38.0077C16.6229 37.7095 16.2964 37.2145 16.1198 36.7259C15.757 35.722 15.7553 34.5397 15.8066 33.7136C15.6597 32.8122 15.4552 31.5926 15.2681 30.5565C15.1637 29.9784 15.0689 29.4783 14.9946 29.1278C14.9731 29.0263 14.9547 28.9485 14.9414 28.8918C14.8952 28.7795 14.8595 28.675 14.8349 28.5822C14.7297 28.1863 14.7452 27.8563 14.7582 27.7013C14.7852 27.3822 14.867 27.1289 14.8996 27.0308C14.9785 26.7928 15.0832 26.567 15.158 26.4132C15.3224 26.0753 15.5436 25.6765 15.7618 25.3049C16.149 24.6455 16.7558 23.6763 17.1821 23.2043C17.5001 22.8522 18.0728 22.3952 18.9132 22.2958C19.2663 22.254 19.5894 22.2874 19.8776 22.3598C19.6289 20.5544 19.4674 18.886 19.4304 17.8414C19.3369 15.2076 20.9427 13.1143 21.97 11.9171L24.4115 6.34663C24.5698 5.98538 24.8148 5.64829 25.1456 5.37784L25.1469 5.37748C25.5943 5.01207 26.299 4.47692 26.9996 4.03962C27.3426 3.82555 27.7608 3.58644 28.1899 3.40972C28.4037 3.32163 28.6901 3.21943 29.017 3.15879C29.3099 3.10447 29.8696 3.03778 30.5015 3.24571C31.3195 3.51503 31.8846 4.10809 32.1767 4.76207C32.4301 5.32947 32.4489 5.86267 32.4347 6.18637C32.4062 6.83421 32.204 7.43671 32.0379 7.8483C31.8066 8.4211 31.4304 9.13067 30.9611 9.72888C30.9527 9.98926 30.9583 10.342 30.9837 10.7737C31.0324 11.6009 31.1393 12.5354 31.2441 13.2954C31.5453 13.694 31.8234 14.0754 32.0587 14.4119C32.3176 14.7823 32.4731 15.2111 32.5152 15.6543L33.3619 24.5451L34.1429 25.3625C34.0974 25.0206 34.0531 24.6919 34.0121 24.3781L34.0112 24.3776C33.9532 23.9329 34.0124 23.4886 34.1724 23.0848L34.2469 22.9147L38.9945 13.0589L39.0569 12.9292L39.1338 12.8078C39.5316 12.1786 40.0751 11.2963 41.0978 10.6795C41.7744 10.2714 42.5675 10.0426 43.3793 9.85867C43.7446 9.48539 44.1612 9.05633 44.5375 8.66114C44.8255 8.3588 45.0789 8.08734 45.2656 7.88055C45.3598 7.77618 45.4246 7.70161 45.4633 7.65529C45.9236 6.98473 46.5635 6.71778 46.7193 6.65175C47.0107 6.52826 47.2954 6.45567 47.5012 6.4108C47.9263 6.31807 48.3995 6.26319 48.8089 6.22766C49.6457 6.15506 50.5521 6.13638 51.0537 6.14233C52.0774 6.15446 52.9046 6.60069 53.364 6.89659C53.7454 7.14224 54.0767 7.41786 54.3356 7.66499L54.5695 7.90042C55.3892 8.7737 55.4922 10.0727 54.8727 11.0569L54.7411 11.2595C54.4105 11.748 53.9253 12.3475 53.3202 12.9041C52.6459 13.5245 51.6524 14.2484 50.4021 14.5639C50.2418 14.6044 49.938 14.7595 49.5546 15.1042C49.3784 15.2626 49.2249 15.4267 49.1013 15.5709C48.7768 17.7797 48.5267 20.019 47.1501 22.6615C46.859 23.6277 46.5206 24.9754 46.3761 26.1016C46.3337 26.4321 46.3157 26.6974 46.3103 26.8992C46.3695 26.9533 46.4237 27.0038 46.4697 27.0509C46.7248 27.3125 46.9324 27.5952 47.0965 27.8481C47.4246 28.354 47.717 28.9538 47.9731 29.5563C48.4914 30.7756 48.9831 32.3034 49.377 33.8433C49.7715 35.3855 50.0906 37.0265 50.2351 38.4783C50.3071 39.2025 50.3413 39.9295 50.3054 40.6005C50.3044 40.6204 50.3021 40.6408 50.3009 40.6611C50.9353 41.2235 51.4994 41.8755 51.9905 42.5217C52.8928 43.7091 53.7326 45.1213 54.4817 46.5604C55.9803 49.4394 57.2324 52.6577 57.9633 54.9597C59.0949 58.523 61.8391 63.2867 62.8861 64.986C63.0518 65.0328 63.2625 65.0874 63.5226 65.1471C64.42 65.3532 65.6116 65.5658 66.914 65.7926C68.1823 66.0134 69.5508 66.2467 70.6948 66.4824C71.2681 66.6006 71.8251 66.7277 72.3104 66.8638C72.6537 66.9601 73.0893 67.0961 73.4989 67.2895C73.5434 67.2686 73.5977 67.2413 73.6627 67.207C73.8028 67.1332 73.943 67.0532 74.1393 66.9421C74.3189 66.8403 74.5486 66.7113 74.79 66.5904C75.2443 66.3629 75.9792 66.0382 76.8638 66.0004C77.1681 65.9874 77.4215 65.964 77.6586 65.9383C77.8562 65.9169 78.1802 65.8766 78.4435 65.8581C78.8458 65.8298 79.2715 65.8389 79.7289 65.9305C80.1094 65.8054 80.5516 65.6525 80.9152 65.5046C82.2839 64.9479 83.6257 65.3316 84.2977 65.5698C84.7989 65.7476 85.2946 65.9916 85.6401 66.1667C85.7796 66.1314 85.911 66.0922 86.1544 66.0239C86.3658 65.9646 86.7336 65.8622 87.1216 65.8155C87.2907 65.7951 87.5606 65.7758 87.8786 65.8207C88.1882 65.8644 88.7203 65.9947 89.2194 66.4222C90.4594 67.4846 90.0824 68.9151 89.9825 69.2196C89.8483 69.6283 89.6392 69.9365 89.5546 70.0584C89.443 70.2192 89.3248 70.3655 89.2343 70.4745C89.1408 70.5871 89.0423 70.7006 88.9632 70.7917C88.8773 70.8906 88.81 70.969 88.7487 71.0422C88.7029 71.0968 88.673 71.1337 88.6561 71.1556C88.2923 71.8229 87.7447 72.2037 87.5036 72.3609C87.1714 72.5775 86.8235 72.7426 86.5398 72.8622C85.966 73.104 85.3617 73.2826 84.9625 73.3814L84.7229 73.4291C84.6446 73.4408 84.5677 73.4485 84.4926 73.4529L82.3618 73.5792C82.0711 73.7617 81.791 73.9207 81.5744 74.0426C81.0775 74.3223 80.7597 74.4991 80.5288 74.6623C79.877 75.1231 79.1713 75.6964 78.1022 76.4785C77.6394 76.8171 77.1412 77.1679 76.6829 77.4486C76.4543 77.5886 76.1973 77.7349 75.9333 77.8582C75.711 77.962 75.297 78.1404 74.8002 78.1997L74.5352 78.2192C74.2657 78.2304 73.9964 78.2182 73.8483 78.2117C73.5709 78.1995 73.2158 78.1785 72.8583 78.1588C72.1141 78.1178 71.2376 78.0752 70.3697 78.0786C69.4802 78.082 68.7166 78.1341 68.1722 78.2442C68.0994 78.2589 68.0371 78.2745 67.9845 78.2881C67.901 78.4096 67.8278 78.4999 67.7821 78.5546C67.5639 78.8161 67.3216 79.0372 67.1214 79.2049C66.713 79.547 66.2172 79.8873 65.749 80.1875C64.7964 80.798 63.6908 81.4091 62.9522 81.7933L62.7721 81.8787C62.5904 81.9562 62.4059 82.0101 62.2236 82.0436L57.5001 82.9125L51.907 92.8225C51.7352 93.127 51.5038 93.3934 51.2269 93.606L51.2264 93.6069L48.1494 95.9676L47.9262 96.1218C47.6961 96.263 47.4448 96.3675 47.1814 96.4315L44.1777 97.1612L43.9179 97.2108Z" fill="#B1956B" stroke="#715A38" stroke-width="5"/>
<path d="M28.8974 8.3714C28.2937 9.13243 28.5757 12.2936 28.8284 14.0527C28.8421 14.1486 28.7198 14.2068 28.6511 14.1385C27.0197 12.5149 25.2522 12.505 24.363 12.7585C24.278 12.7827 24.1957 12.6956 24.2321 12.6151C25.0455 10.815 26.5469 7.51771 26.7649 7.14016C27.049 6.64803 28.9267 5.76358 29.7376 5.68496C30.5485 5.60634 29.7008 7.35882 28.8974 8.3714Z" fill="#E4C596"/>
<path d="M19.6523 26.9393C19.3825 28.8567 20.2895 31.103 20.9688 32.3362C21.0176 32.4247 20.8994 32.5606 20.799 32.5492C20.0388 32.4632 19.0866 33.2109 18.5642 33.7439C18.5086 33.8006 18.4108 33.7738 18.3939 33.6962L17.1264 27.8895C17.1216 27.8673 17.1246 27.8441 17.1351 27.8239L18.6455 24.8993C18.6527 24.8853 18.663 24.8733 18.6761 24.8647C19.0852 24.5945 19.9938 24.5123 19.6523 26.9393Z" fill="#E4C596"/>
<path d="M80.562 68.8026C81.0435 69.297 81.2965 70.3729 81.3821 71.0622C81.3889 71.1163 81.4378 71.1551 81.4919 71.1485C82.4882 71.0263 84.4134 70.8067 84.8723 70.8178C85.4655 70.8322 86.0967 70.2124 86.4265 70.02C86.7563 69.8276 87.6671 68.4396 87.585 68.3923L87.3071 68.2318C87.2762 68.2139 87.238 68.2145 87.2072 68.2325C86.6775 68.5423 85.5413 69.0098 84.8416 68.6128C84.8373 68.6104 84.8332 68.6075 84.8293 68.6044C84.052 67.9841 82.8643 67.727 82.3665 67.6759C82.247 67.6687 81.7322 67.7841 80.5808 68.2555C80.475 68.2987 80.4823 68.7207 80.562 68.8026Z" fill="#E4C596"/>
<path d="M40.2075 47.0642L48.2835 59.333C48.3424 59.4225 48.2351 59.5278 48.1467 59.4672L44.5325 56.9886C44.5258 56.9841 44.52 56.979 44.5146 56.9729C42.4858 54.6697 38.3414 49.8801 37.932 49.0757C37.4196 48.069 36.9052 43.5616 36.7319 42.9147C36.5936 42.3987 35.4453 37.856 34.8837 35.6302C34.8804 35.6173 34.8748 35.6058 34.8667 35.5953L32.1198 32.0058C32.1101 31.9932 32.1036 31.9783 32.101 31.9626L31.1273 26.1266C31.1115 26.0318 31.2276 25.9736 31.2941 26.043L37.5038 32.5241C37.517 32.5378 37.5258 32.5552 37.5293 32.5739L40.193 47.0282C40.1954 47.041 40.2003 47.0532 40.2075 47.0642Z" fill="#8F7B5B"/>
<path d="M38.1566 56.642L45.8369 66.2413C45.908 66.3301 45.7955 66.4481 45.7034 66.3813L41.0826 63.0339L36.3272 58.7068C36.319 58.6993 36.3122 58.6905 36.3069 58.6807L33.8915 54.1795L32.1358 49.5642C32.1335 49.558 32.1305 49.5521 32.127 49.5466L28.5277 43.8648L25.9541 39.9287C25.9469 39.9177 25.942 39.9054 25.9397 39.8925L25.3535 36.632C25.3375 36.5429 25.4408 36.4818 25.5111 36.5389L32.9901 42.6078C33.0062 42.6208 33.0177 42.6386 33.023 42.6586L35.6567 52.6167C35.6592 52.6261 35.6631 52.6351 35.6682 52.6433L38.1566 56.642Z" fill="#8F7B5B"/>
<path d="M46.7285 12.8092C46.8908 12.9518 46.6298 14.2063 46.7196 14.5541C46.7331 14.6064 46.7897 14.5973 46.8173 14.551C48.016 12.5383 49.488 12.3125 50.5088 12.0389C51.3076 11.8249 52.3325 10.4318 52.7917 9.69031C52.819 9.64623 52.8063 9.58895 52.7632 9.56016C52.3743 9.30042 51.5914 8.80933 51.0352 8.5699C50.4462 8.31633 48.5802 8.68746 47.6916 8.91159C47.672 8.91653 47.6551 8.92729 47.642 8.94264L44.894 12.1637C44.8458 12.2202 44.8756 12.3078 44.9483 12.3232C45.571 12.4547 46.5957 12.6925 46.7285 12.8092Z" fill="#E4C596"/>
<path d="M53.1886 79.1546L44.1943 93.3152C43.9339 92.8641 44.0357 90.6727 44.4991 89.2022C44.9624 87.7317 45.8291 84.4973 46.289 82.2632C46.749 80.0291 48.5133 76.5499 49.1834 75.3428C49.8535 74.1357 51.5899 72.313 51.5281 71.6378C51.4664 70.9625 48.0213 67.6475 47.4767 66.7042C46.9322 65.761 45.038 62.4801 42.0601 59.8795C39.6779 57.7991 40.3535 56.0712 40.9891 55.4673C42.5973 57.4004 45.9129 61.3625 46.3093 61.7461C46.8048 62.2255 49.6664 66.4243 50.8101 66.0374C51.9537 65.6505 50.276 63.5023 50.1272 61.7291C49.9783 59.9559 49.2485 56.987 48.6214 54.6697C47.9943 52.3523 47.106 52.045 46.1467 51.6146C45.3792 51.2703 45.342 48.1057 45.4194 46.5664C46.5304 47.6383 49.0734 50.1108 50.3573 51.4255C51.9623 53.0689 53.0148 58.5855 53.6541 59.6928C54.2934 60.8001 55.6178 68.0189 57.0033 69.1875C58.3888 70.3561 58.7821 71.6055 59.7084 72.547C60.6348 73.4886 61.8698 72.5021 63.4992 71.7254C64.8028 71.104 65.4678 72.3569 65.6373 73.061L63.835 75.906C63.0816 76.4322 61.4773 77.486 61.0873 77.4924C60.6973 77.4989 58.5721 77.6505 57.5582 77.7255L53.1886 79.1546Z" fill="#CBAF85"/>
</g>
<defs>
<clipPath id="clip0_638_70684">
<rect width="100" height="100" fill="white"/>
</clipPath>
</defs>
</svg>
