<svg width="100" height="100" viewBox="0 0 100 100" fill="none" xmlns="http://www.w3.org/2000/svg">
<path d="M66.6817 77.0184L87.9044 35.6296C87.9101 35.6186 87.9146 35.6069 87.9178 35.5949L88.9531 31.7309C88.9613 31.7006 88.9611 31.6686 88.9528 31.6383L87.872 27.7349C87.8363 27.606 87.6755 27.5623 87.5795 27.6555L82.0034 33.0676C81.954 33.1155 81.8813 33.1303 81.8171 33.1055L47.2556 19.7183C47.1787 19.6886 47.0916 19.716 47.0456 19.7844L11.9241 72.0726C11.8599 72.1681 11.9031 72.2986 12.0116 72.337L53.3791 86.9733L57.8836 88.1861C57.9322 88.1992 57.9842 88.1908 58.0263 88.1631L61.5374 85.8509C61.5602 85.8359 61.5792 85.8158 61.5929 85.7922L66.6817 77.0184Z" fill="#6D4949"/>
<path d="M12.4424 71.0232C12.3555 70.9926 12.3067 70.9003 12.3306 70.8113L13.698 65.708C13.7247 65.6084 13.8308 65.5529 13.9278 65.5879L56.3834 80.8656C56.408 80.8744 56.43 80.8889 56.45 80.9059C56.8064 81.2092 58.3943 81.8759 58.6089 82.9246C58.821 83.9609 57.8958 85.9448 57.295 86.6626C57.2503 86.716 57.1773 86.7329 57.1116 86.7098L12.4424 71.0232Z" fill="#AEAEAE"/>
<path d="M53.9958 80.7184L58.6014 82.9359C58.6863 82.9768 58.7882 82.9437 58.8329 82.8609L87.8892 29.0497C87.9048 29.0209 87.912 28.9883 87.91 28.9556L87.8241 27.5075C87.8191 27.4237 87.7558 27.3551 87.6726 27.3435L81.9426 26.5418C81.9292 26.5399 81.916 26.5365 81.9034 26.5316L47.2556 13.111C47.1788 13.0813 47.0916 13.1087 47.0457 13.1771L11.9237 65.4658C11.8597 65.5612 11.9026 65.6914 12.0108 65.73L53.9958 80.7184Z" fill="#8D6060"/>
<path d="M47.9379 10.7051C46.8287 10.3825 45.6247 10.8099 44.9708 11.7835L9.84831 64.0715C9.00772 65.3229 9.38023 66.9683 10.5564 67.7714L9.91518 70.1646C9.86664 70.3458 9.84014 70.5282 9.82999 70.7089C8.88393 72.1572 9.54089 74.1143 11.1776 74.6935L52.5449 89.3305L52.6366 89.3621L52.729 89.3869L57.2336 90.6C57.9727 90.799 58.7622 90.672 59.4017 90.2508L62.9126 87.9391C63.2589 87.7111 63.5472 87.4054 63.7553 87.0467L68.8441 78.2729L68.8763 78.2168L68.9059 78.159L90.1294 36.7701C90.2157 36.6018 90.2836 36.4248 90.3326 36.2422L91.3678 32.3785C91.4914 31.9175 91.489 31.4315 91.3617 30.9715L90.2898 27.0972C90.1194 26.0233 89.3133 25.1554 88.2522 24.9104L88.0191 24.8671L82.5552 24.1027L48.1586 10.7794L47.9379 10.7051Z" stroke="#473434" stroke-width="5"/>
<path d="M54.5286 77.1541C54.7777 77.5857 70.8517 45.1677 80.0101 28.3472C69.4372 24.2373 48.1382 15.9765 47.5255 15.8124C46.9128 15.6482 26.984 47.8845 17.0962 64.0232C30.2448 68.732 54.2794 76.7225 54.5286 77.1541Z" fill="#825757"/>
<path d="M52.6956 68.8393C52.8719 69.1554 64.5688 45.2288 71.2245 32.8098C63.6665 29.8437 48.4407 23.8823 48.0024 23.7648C47.564 23.6474 33.1044 47.461 25.9294 59.3824C35.3309 62.7752 52.5192 68.5233 52.6956 68.8393Z" fill="#7B5353"/>
<path d="M51.3757 61.3512C51.4947 61.5643 59.3822 45.4299 63.8704 37.0554C58.7737 35.0553 48.5066 31.0353 48.211 30.9561C47.9154 30.8769 38.1649 46.9351 33.3266 54.9741C39.6662 57.2619 51.2568 61.138 51.3757 61.3512Z" fill="#754D4D"/>
<path d="M12.5183 66.8098L11.9182 65.6457L53.9791 80.5641L58.9813 82.9989L58.7761 83.7648L12.5183 66.8098Z" fill="#6D4949"/>
</svg>
