<svg width="100" height="100" viewBox="0 0 100 100" fill="none" xmlns="http://www.w3.org/2000/svg">
<g clip-path="url(#clip0_638_70726)">
<mask id="path-1-outside-1_638_70726" maskUnits="userSpaceOnUse" x="9.99512" y="8.93433" width="80" height="91" fill="black">
<rect fill="white" x="9.99512" y="8.93433" width="80" height="91"/>
<path fill-rule="evenodd" clip-rule="evenodd" d="M39.0684 28.3016C38.8854 25.7146 38.8832 20.3544 38.9146 17.406C40.8407 15.0964 46.3701 11.6094 53.0783 16.138C53.765 20.643 54.1983 24.1951 54.4553 26.6934C58.8585 27.2423 63.2269 28.6624 67.3111 31.0204C83.672 40.4664 89.2777 61.387 79.8317 77.7479C70.3857 94.1088 49.4651 99.7145 33.1042 90.2685C16.7433 80.8225 11.1377 59.9019 20.5836 43.541C24.8768 36.1051 31.5401 30.8908 39.0684 28.3016Z"/>
</mask>
<path fill-rule="evenodd" clip-rule="evenodd" d="M39.0684 28.3016C38.8854 25.7146 38.8832 20.3544 38.9146 17.406C40.8407 15.0964 46.3701 11.6094 53.0783 16.138C53.765 20.643 54.1983 24.1951 54.4553 26.6934C58.8585 27.2423 63.2269 28.6624 67.3111 31.0204C83.672 40.4664 89.2777 61.387 79.8317 77.7479C70.3857 94.1088 49.4651 99.7145 33.1042 90.2685C16.7433 80.8225 11.1377 59.9019 20.5836 43.541C24.8768 36.1051 31.5401 30.8908 39.0684 28.3016Z" fill="#8EA9B5"/>
<path d="M38.9146 17.406L35.0747 14.2036L33.9338 15.5717L33.9148 17.3529L38.9146 17.406ZM39.0684 28.3016L40.6946 33.0297L44.327 31.7804L44.0559 27.9488L39.0684 28.3016ZM53.0783 16.138L58.0212 15.3846L57.6912 13.2194L55.8759 11.9939L53.0783 16.138ZM54.4553 26.6934L49.4816 27.2052L49.8889 31.1628L53.8368 31.655L54.4553 26.6934ZM67.3111 31.0204L69.8111 26.6903L67.3111 31.0204ZM79.8317 77.7479L75.5016 75.2479V75.2479L79.8317 77.7479ZM33.1042 90.2685L30.6042 94.5986L30.6042 94.5986L33.1042 90.2685ZM20.5836 43.541L16.2535 41.041H16.2535L20.5836 43.541ZM38.9146 17.406L33.9148 17.3529C33.8839 20.2664 33.8811 25.8306 34.0809 28.6543L39.0684 28.3016L44.0559 27.9488C43.8897 25.5986 43.8826 20.4423 43.9143 17.4592L38.9146 17.406ZM53.0783 16.138L55.8759 11.9939C51.3762 8.95626 46.8786 8.41799 43.0296 9.34738C39.3924 10.2256 36.6332 12.3349 35.0747 14.2036L38.9146 17.406L42.7544 20.6084C43.1221 20.1676 44.0907 19.3786 45.3767 19.068C46.451 18.8086 48.0722 18.7911 50.2807 20.2821L53.0783 16.138ZM54.4553 26.6934L59.4291 26.1816C59.1632 23.5978 58.7194 19.965 58.0212 15.3846L53.0783 16.138L48.1354 16.8914C48.8106 21.321 49.2333 24.7925 49.4816 27.2052L54.4553 26.6934ZM54.4553 26.6934L53.8368 31.655C57.5888 32.1227 61.3159 33.3326 64.8111 35.3506L67.3111 31.0204L69.8111 26.6903C65.1379 23.9922 60.1281 22.3619 55.0739 21.7318L54.4553 26.6934ZM67.3111 31.0204L64.8111 35.3506C78.7806 43.4158 83.5668 61.2785 75.5016 75.2479L79.8317 77.7479L84.1618 80.2479C94.9885 61.4955 88.5635 37.517 69.8111 26.6903L67.3111 31.0204ZM79.8317 77.7479L75.5016 75.2479C67.4363 89.2174 49.5737 94.0036 35.6042 85.9384L33.1042 90.2685L30.6042 94.5986C49.3566 105.425 73.3352 99.0003 84.1618 80.2479L79.8317 77.7479ZM33.1042 90.2685L35.6042 85.9384C21.6348 77.8731 16.8485 60.0105 24.9138 46.041L20.5836 43.541L16.2535 41.041C5.42682 59.7934 11.8519 83.7719 30.6042 94.5986L33.1042 90.2685ZM20.5836 43.541L24.9138 46.041C28.5812 39.6888 34.2633 35.2417 40.6946 33.0297L39.0684 28.3016L37.4422 23.5734C28.8169 26.54 21.1723 32.5214 16.2535 41.041L20.5836 43.541Z" fill="#3D5560" mask="url(#path-1-outside-1_638_70726)"/>
<path d="M53.1578 16.2684C46.503 11.4483 40.7967 15.1411 38.7754 17.59C39.0345 21.2439 39.1952 29.0882 39.1641 29.3681C39.1252 29.7179 39.5528 29.7568 39.9804 30.2232C46.4175 34.1726 52.4581 29.8734 54.6738 27.2301L53.1578 16.2684Z" fill="#8EA9B5"/>
<path d="M37.6704 6.17175C40.5135 4.65538 43.8229 4.3679 46.6743 4.54382C49.6028 4.72455 52.338 5.41074 54.1675 6.08484C54.5439 6.22352 54.8801 6.44675 55.1519 6.73523L55.2642 6.86316L55.8442 7.59167C56.0587 7.86993 56.2849 8.17355 56.4946 8.47253C56.7017 8.76764 56.9222 9.10003 57.103 9.42078C57.1928 9.58013 57.2952 9.77598 57.3833 9.98914C57.4476 10.1446 57.5761 10.4781 57.6187 10.8993C57.6156 10.8765 57.6175 10.9006 57.6372 10.994C57.661 11.1071 57.6983 11.2658 57.7485 11.4657C57.8485 11.8633 57.9857 12.3632 58.1313 12.868C58.2769 13.3727 58.4253 13.8627 58.5483 14.2411C58.6104 14.432 58.6613 14.5787 58.6978 14.6776C58.7069 14.7025 58.7139 14.7215 58.7192 14.7352C58.9647 15.2248 59.0278 15.6903 59.0513 15.9139C59.0834 16.2202 59.0825 16.5198 59.0747 16.7606C59.0596 17.23 59.0043 17.7824 58.9702 18.1688C58.8806 19.1832 58.2214 19.9768 57.3921 20.3231C57.6248 20.2267 56.6142 20.7778 55.561 20.8085C54.4102 20.8419 53.297 20.3991 52.1831 19.6366V19.6385C50.997 18.8586 48.7481 18.7286 45.7378 19.3954C42.8966 20.0248 40.0615 21.2097 38.3442 22.1034C37.6027 22.4893 36.7644 22.4748 36.0767 22.1581L34.9019 21.6171C34.4895 21.4271 34.1404 21.1333 33.8823 20.7714L33.7349 20.826V23.1893L35.4009 24.704C36.7171 25.9006 36.4539 28.0393 34.8872 28.8817L31.8745 30.5018L29.1724 32.036C27.395 33.0447 25.2067 31.6825 25.3267 29.6425L25.6226 24.6219L25.3179 17.3719C25.2786 16.4355 25.7512 15.5514 26.5513 15.0634L33.2437 10.9803C33.5102 10.2822 33.9007 9.57054 34.3472 8.94031C35.0564 7.93925 36.1579 6.79168 37.6704 6.17175Z" fill="#91847D" stroke="#3D5560" stroke-width="5"/>
<path d="M23.9426 38.7888C28.8108 33.9721 36.6247 28.1751 43.3869 27.0922C50.1491 26.0092 59.1016 26.6359 65.2306 29.6914C71.3595 32.747 76.5713 37.6853 79.7764 43.7373C82.9815 49.7894 86.3245 61.7821 82.6755 70.1796L77.9269 63.8815L72.5785 58.0831C68.4797 54.2842 67.33 52.4176 64.6308 50.4354C61.4317 48.0861 59.2928 46.9386 57.1829 45.8867C55.073 44.8348 50.185 43.7373 46.9859 42.7876C43.7868 41.8379 39.6381 41.438 37.0888 40.6382L28.2914 38.7888L23.9426 38.7888Z" fill="#99B6C4"/>
<path d="M67.4303 90.2236C61.984 93.368 53.7449 95.3857 47.4861 94.7723C41.2273 94.159 32.4391 90.8489 27.7069 86.7071C22.9748 82.5653 18.682 75.9519 17.2449 69.8296C15.8078 63.7072 15.4996 55.4502 17.8947 49.6355L27.9418 61.7319C30.0412 63.0815 34.14 67.2803 35.5396 69.0798C36.5893 70.4294 38.7169 71.9596 39.9383 73.0287C41.1597 74.0977 42.1867 75.3902 44.1371 77.2774C45.5318 78.627 47.3861 80.1266 50.4352 81.6761L67.4303 90.2236Z" fill="#7E99A5"/>
<path d="M53.793 13.895L52.7435 9.26927C51.357 9.12674 48.5142 8.82614 48.2344 8.76394C47.8845 8.6862 43.8419 8.29749 42.909 8.29749C42.1626 8.29749 40.3175 9.2304 39.4883 9.69686C40.1621 10.0985 41.6107 10.9019 42.0149 10.9019C42.4192 10.9019 45.8114 11.3165 47.4569 11.5238L53.793 13.895Z" fill="#AEA49E"/>
</g>
<defs>
<clipPath id="clip0_638_70726">
<rect width="100" height="100" fill="white"/>
</clipPath>
</defs>
</svg>
