<svg width="100" height="100" viewBox="0 0 100 100" fill="none" xmlns="http://www.w3.org/2000/svg">
<g clip-path="url(#clip0_692_70781)">
<path d="M88.6155 5.25602C90.953 4.59796 93.1147 6.66545 92.6303 8.98904L92.575 9.21554L77.9557 61.1458L76.9116 64.8539L74.6432 72.9104L74.2635 74.2597L72.9148 74.6388L63.8488 77.1917L20.6007 89.3658V89.3672L9.2193 92.5713C6.80633 93.2505 4.58063 91.0247 5.25977 88.6118L8.46385 77.2304C8.46414 77.2294 8.46425 77.2279 8.46454 77.2269L23.1916 24.9169L23.5714 23.5676L24.9207 23.1878L36.6853 19.8753L88.6155 5.25602ZM36.9532 36.9481L27.5764 70.2546L60.8823 60.8771L70.2597 27.5713L36.9532 36.9481Z" fill="#C7BD66" stroke="#5E571D" stroke-width="5"/>
<path d="M56.2067 40.3726C51.795 39.9047 42.8448 38.9622 42.3368 38.9355L39.0949 37.5652L39.2286 45.7869L40.3983 56.181L51.9622 58.5205L59.2815 57.7518L56.2067 40.3726Z" fill="#4D4820" stroke="black" stroke-width="0.10137"/>
<ellipse cx="47.7217" cy="46.714" rx="5.2448" ry="7.48273" transform="rotate(45 47.7217 46.714)" fill="#48CF45"/>
<path d="M31.6418 28.0401L82.1083 13.8693L67.9042 66.6419L12.9258 83.0519L31.6418 28.0401Z" fill="#629937" stroke="black" stroke-width="0.10137"/>
<rect width="23.6151" height="4.72302" transform="matrix(-0.120434 -0.992721 0.992721 0.120434 39.0405 59.1246)" fill="#CEC25E"/>
<rect width="18.9367" height="1.23614" transform="matrix(-0.120434 -0.992721 0.992721 0.120434 41.9385 54.9001)" fill="#746C24"/>
<rect width="23.6151" height="4.72302" transform="matrix(-0.992721 -0.120434 -0.120434 -0.992721 60.209 43.214)" fill="#CEC25E"/>
<rect width="15.4197" height="1.05078" transform="matrix(-0.992721 -0.120434 -0.120434 -0.992721 55.5547 42.6493)" fill="#746C24"/>
<circle cx="49.9683" cy="49.5195" r="10.7167" transform="rotate(45 49.9683 49.5195)" fill="#41A53F" stroke="#327A31" stroke-width="1.27542"/>
<ellipse cx="2.62046" cy="4.25478" rx="2.62046" ry="4.25478" transform="matrix(0.499736 0.866177 -0.764676 0.644415 48.2729 40.2915)" fill="#61EE5E"/>
<ellipse cx="1.58245" cy="2.56938" rx="1.58245" ry="2.56938" transform="matrix(0.499736 0.866177 -0.764676 0.644415 47.8057 42.629)" fill="#43C241"/>
<ellipse cx="51.8266" cy="46.5239" rx="1.32748" ry="2.12197" transform="rotate(25.2981 51.8266 46.5239)" fill="#61EE5E"/>
<rect width="23.6151" height="4.72302" transform="matrix(0.120434 0.992721 -0.992721 -0.120434 59.6401 38.5254)" fill="#CEC25E"/>
<rect width="23.6151" height="4.72302" transform="matrix(0.992721 0.120434 0.120434 0.992721 38.4722 54.436)" fill="#CEC25E"/>
<rect width="23.6151" height="1.14104" transform="matrix(0.992721 0.120434 0.120434 0.992721 38.9033 57.9919)" fill="#746C24"/>
<rect width="23.6151" height="1.07409" transform="matrix(0.120434 0.992721 -0.992721 -0.120434 59.6401 38.5254)" fill="#746C24"/>
<rect width="38.5768" height="7.71535" transform="matrix(-0.139867 0.99017 -0.99017 0.139867 71.1372 27.0284)" fill="#C2B756"/>
<rect width="38.5768" height="7.71535" transform="matrix(0.99017 -0.139867 -0.139867 0.99017 28.623 62.9819)" fill="#C2B756"/>
<rect width="38.5768" height="1.86395" transform="matrix(0.99017 -0.139867 -0.139867 0.99017 27.8047 68.776)" fill="#8D853B"/>
<rect width="38.5768" height="1.75459" transform="matrix(-0.139867 0.99017 -0.99017 0.139867 71.1372 27.0284)" fill="#8D853B"/>
<path d="M8.54178 90.1644C8.00828 90.3146 7.51626 89.8225 7.66645 89.2891L25.5983 25.5941L37.3626 22.2822C37.8961 22.132 38.3881 22.624 38.2379 23.1575L20.4139 86.4695C20.3469 86.7074 20.161 86.8933 19.9232 86.9602L8.54178 90.1644Z" fill="#C7BD66"/>
<path d="M86.9644 19.919C86.8974 20.1569 86.7115 20.3428 86.4736 20.4098L23.1616 38.2337C22.6281 38.3839 22.1361 37.8919 22.2863 37.3584L25.5983 25.5941L89.2932 7.6623C89.8267 7.51211 90.3187 8.00413 90.1685 8.53763L86.9644 19.919Z" fill="#C7BD66"/>
<path d="M89.2933 7.66221C89.8268 7.51202 90.3188 8.00405 90.1686 8.53754L72.2368 72.2325L60.4725 75.5444C59.939 75.6946 59.447 75.2026 59.5972 74.6691L77.4212 11.3571C77.4881 11.1192 77.674 10.9333 77.9119 10.8664L89.2933 7.66221Z" fill="#C7BD66"/>
<path d="M10.8707 77.9076C10.9377 77.6697 11.1236 77.4838 11.3615 77.4169L74.6735 59.5929C75.207 59.4427 75.699 59.9347 75.5488 60.4682L72.2368 72.2325L8.54191 90.1643C8.00842 90.3145 7.51638 89.8225 7.66658 89.289L10.8707 77.9076Z" fill="#C7BD66"/>
<rect width="43.3914" height="3.52997" transform="matrix(0.270992 -0.962582 0.962582 -0.270992 20.5845 74.7515)" fill="#887F34"/>
<rect width="43.9828" height="3.00066" transform="matrix(-0.962582 0.270992 0.270992 -0.962582 73.9209 23.9438)" fill="#887F34"/>
<path d="M9.94241 87.889L73.1203 69.0961L72.2373 72.2325L7.32403 90.5073L9.94241 87.889Z" fill="#887F34"/>
<path d="M90.5122 7.31909L72.2374 72.2323L69.285 73.0635L87.4136 10.4177L90.5122 7.31909Z" fill="#887F34"/>
<path d="M85.6847 11.2958L80.9388 16.9775L30.9068 30.7806L27.431 27.3048L85.6847 11.2958Z" fill="#DCCE5D"/>
<path d="M11.4482 85.7323L17.1298 80.9864L30.9329 30.9544L27.4572 27.4786L11.4482 85.7323Z" fill="#BAB059"/>
<path d="M85.4168 11.4296L79.3675 15.5024L65.5644 65.5344L69.0402 69.0102L85.4168 11.4296Z" fill="#DCCE5D"/>
<path d="M11.4554 85.7255L15.3592 79.3106L65.3913 65.5075L68.8671 68.9833L11.4554 85.7255Z" fill="#BAB059"/>
<rect width="36.6888" height="7.71535" transform="matrix(0.139867 -0.99017 0.99017 -0.139867 27.8081 68.7522)" fill="#C2B756"/>
<rect width="30.9343" height="2.0193" transform="matrix(0.139867 -0.99017 0.99017 -0.139867 34.2529 62.2577)" fill="#8D853B"/>
<rect width="36.7507" height="7.71535" transform="matrix(-0.99017 0.139867 0.139867 -0.99017 68.25 34.9233)" fill="#C2B756"/>
<rect width="31.7557" height="3.06831" transform="matrix(-0.99017 0.139867 0.139867 -0.99017 66.1978 32.2935)" fill="#DACD5E"/>
<rect width="25.1891" height="1.71651" transform="matrix(-0.99017 0.139867 0.139867 -0.99017 62.4746 35.7391)" fill="#8D853B"/>
</g>
<defs>
<clipPath id="clip0_692_70781">
<rect width="100" height="100" fill="white"/>
</clipPath>
</defs>
</svg>
