<svg width="100" height="100" viewBox="0 0 100 100" fill="none" xmlns="http://www.w3.org/2000/svg">
<mask id="path-1-outside-1_442_363" maskUnits="userSpaceOnUse" x="5.89404" y="0.934326" width="89" height="95" fill="black">
<rect fill="white" x="5.89404" y="0.934326" width="89" height="95"/>
<path fill-rule="evenodd" clip-rule="evenodd" d="M60.4552 20.0146C60.4426 20.0107 60.4308 20.0044 60.4206 19.9959L57.9182 17.9184C57.8461 17.8586 57.8884 17.7415 57.9821 17.7415H60.5254C60.5717 17.7415 60.612 17.7096 60.6227 17.6645L63.2709 6.4946C63.2962 6.38795 63.4499 6.3938 63.467 6.50205L65.2205 17.5963C65.2315 17.666 65.3093 17.7027 65.3701 17.6668L68.966 15.5468C69.0444 15.5005 69.1389 15.5747 69.1125 15.6619L68.062 19.1364C68.0438 19.1966 68.085 19.2585 68.1476 19.2648L75.6269 20.0253C75.7308 20.0359 75.751 20.1785 75.6542 20.2176L69.2274 22.8114C69.2014 22.8219 69.1722 22.821 69.1469 22.8089L68.3863 22.4462L71.8884 24.3253L81.9016 28.48C81.9154 28.4858 81.9299 28.4897 81.9447 28.4918L87.6726 29.2932C87.7557 29.3048 87.8191 29.3735 87.8241 29.4572L87.8313 29.5787C87.8326 29.6013 87.8425 29.6223 87.854 29.6419C87.8616 29.6548 87.8677 29.6691 87.872 29.6847L88.9527 33.5881C88.9611 33.6183 88.9613 33.6503 88.9531 33.6807L87.9178 37.5446C87.9158 37.552 87.9133 37.5592 87.9104 37.5663C87.9086 37.5707 87.9066 37.5751 87.9044 37.5794L66.6816 78.9681L61.5929 87.7419C61.5792 87.7655 61.5602 87.7856 61.5373 87.8006L58.0262 90.1128C57.9842 90.1405 57.9322 90.1489 57.8835 90.1358L53.379 88.923L12.0115 74.2867C11.903 74.2483 11.8599 74.1179 11.9241 74.0223L12.5213 73.1332C12.5577 73.0789 12.5331 73.0048 12.4714 72.9831L12.4424 72.9729C12.3554 72.9424 12.3067 72.85 12.3305 72.761L13.5214 68.3166C13.5349 68.2663 13.5075 68.2141 13.4585 68.1966L12.014 67.6809C11.9048 67.6419 11.8624 67.5099 11.9285 67.4146L20.7838 54.6427C20.7859 54.6397 20.7879 54.6367 20.7898 54.6335L20.7937 54.6268C20.7954 54.6236 20.797 54.6204 20.7986 54.6172L21.5561 53.0024C21.5653 52.9829 21.5679 52.9609 21.5635 52.9397L21.0614 50.5128C21.0583 50.4979 21.0518 50.4839 21.0425 50.4718L18.989 47.8194C18.9614 47.7838 18.9611 47.7342 18.9881 47.6982L20.5133 45.6645C20.523 45.6516 20.5294 45.6365 20.532 45.6205L21.0456 42.4533C21.0523 42.4123 21.0835 42.3797 21.1242 42.3713L26.8538 41.1917C26.934 41.1752 26.999 41.2569 26.9648 41.3314L23.8685 48.0734L27.4798 40.3756C27.485 40.3645 27.4913 40.354 27.4987 40.3442L33.7425 32.0778L37.3089 26.8497C37.3256 26.8252 37.3306 26.7946 37.3225 26.7661L36.0378 22.2268C36.0348 22.2163 36.0302 22.2064 36.024 22.1974L31.9272 16.2229C31.8789 16.1525 31.9353 16.0579 32.0201 16.0669L38.3687 16.7351C38.4346 16.7421 38.4889 16.6842 38.4777 16.6188L36.8799 7.28388C36.8633 7.18742 36.9809 7.12711 37.0496 7.19679L43.1024 13.3336C43.1398 13.3715 43.2003 13.3735 43.2401 13.3381L47.8129 9.26414C47.8822 9.20241 47.9909 9.26014 47.9785 9.35212L47.2228 14.9782C47.222 14.9839 47.2194 14.9893 47.2155 14.9935C47.1988 15.0111 47.2114 15.043 47.2341 15.0516L59.8191 19.8324L62.9192 20.7689L60.4552 20.0146ZM65.2983 21.4876L68.0154 22.3084C68.0364 22.3147 68.048 22.2848 68.0282 22.2754C68.0273 22.275 68.0264 22.2746 68.0255 22.2744L65.2983 21.4876ZM75.0758 25.1712C74.9878 25.1342 74.9969 25.0067 75.0892 24.9824L76.4788 24.6167L78.2177 24.0081C78.2328 24.0028 78.249 24.0012 78.2648 24.0035L80.6943 24.3505C80.703 24.3518 80.7115 24.3541 80.7196 24.3576L81.8802 24.855C81.9169 24.8708 81.9408 24.9069 81.9408 24.9469V26.102C81.9408 26.1102 81.9398 26.1183 81.9378 26.1263L81.5286 27.7631C81.5137 27.8226 81.4493 27.8548 81.3928 27.831L75.0758 25.1712Z"/>
</mask>
<path fill-rule="evenodd" clip-rule="evenodd" d="M60.4552 20.0146C60.4426 20.0107 60.4308 20.0044 60.4206 19.9959L57.9182 17.9184C57.8461 17.8586 57.8884 17.7415 57.9821 17.7415H60.5254C60.5717 17.7415 60.612 17.7096 60.6227 17.6645L63.2709 6.4946C63.2962 6.38795 63.4499 6.3938 63.467 6.50205L65.2205 17.5963C65.2315 17.666 65.3093 17.7027 65.3701 17.6668L68.966 15.5468C69.0444 15.5005 69.1389 15.5747 69.1125 15.6619L68.062 19.1364C68.0438 19.1966 68.085 19.2585 68.1476 19.2648L75.6269 20.0253C75.7308 20.0359 75.751 20.1785 75.6542 20.2176L69.2274 22.8114C69.2014 22.8219 69.1722 22.821 69.1469 22.8089L68.3863 22.4462L71.8884 24.3253L81.9016 28.48C81.9154 28.4858 81.9299 28.4897 81.9447 28.4918L87.6726 29.2932C87.7557 29.3048 87.8191 29.3735 87.8241 29.4572L87.8313 29.5787C87.8326 29.6013 87.8425 29.6223 87.854 29.6419C87.8616 29.6548 87.8677 29.6691 87.872 29.6847L88.9527 33.5881C88.9611 33.6183 88.9613 33.6503 88.9531 33.6807L87.9178 37.5446C87.9158 37.552 87.9133 37.5592 87.9104 37.5663C87.9086 37.5707 87.9066 37.5751 87.9044 37.5794L66.6816 78.9681L61.5929 87.7419C61.5792 87.7655 61.5602 87.7856 61.5373 87.8006L58.0262 90.1128C57.9842 90.1405 57.9322 90.1489 57.8835 90.1358L53.379 88.923L12.0115 74.2867C11.903 74.2483 11.8599 74.1179 11.9241 74.0223L12.5213 73.1332C12.5577 73.0789 12.5331 73.0048 12.4714 72.9831L12.4424 72.9729C12.3554 72.9424 12.3067 72.85 12.3305 72.761L13.5214 68.3166C13.5349 68.2663 13.5075 68.2141 13.4585 68.1966L12.014 67.6809C11.9048 67.6419 11.8624 67.5099 11.9285 67.4146L20.7838 54.6427C20.7859 54.6397 20.7879 54.6367 20.7898 54.6335L20.7937 54.6268C20.7954 54.6236 20.797 54.6204 20.7986 54.6172L21.5561 53.0024C21.5653 52.9829 21.5679 52.9609 21.5635 52.9397L21.0614 50.5128C21.0583 50.4979 21.0518 50.4839 21.0425 50.4718L18.989 47.8194C18.9614 47.7838 18.9611 47.7342 18.9881 47.6982L20.5133 45.6645C20.523 45.6516 20.5294 45.6365 20.532 45.6205L21.0456 42.4533C21.0523 42.4123 21.0835 42.3797 21.1242 42.3713L26.8538 41.1917C26.934 41.1752 26.999 41.2569 26.9648 41.3314L23.8685 48.0734L27.4798 40.3756C27.485 40.3645 27.4913 40.354 27.4987 40.3442L33.7425 32.0778L37.3089 26.8497C37.3256 26.8252 37.3306 26.7946 37.3225 26.7661L36.0378 22.2268C36.0348 22.2163 36.0302 22.2064 36.024 22.1974L31.9272 16.2229C31.8789 16.1525 31.9353 16.0579 32.0201 16.0669L38.3687 16.7351C38.4346 16.7421 38.4889 16.6842 38.4777 16.6188L36.8799 7.28388C36.8633 7.18742 36.9809 7.12711 37.0496 7.19679L43.1024 13.3336C43.1398 13.3715 43.2003 13.3735 43.2401 13.3381L47.8129 9.26414C47.8822 9.20241 47.9909 9.26014 47.9785 9.35212L47.2228 14.9782C47.222 14.9839 47.2194 14.9893 47.2155 14.9935C47.1988 15.0111 47.2114 15.043 47.2341 15.0516L59.8191 19.8324L62.9192 20.7689L60.4552 20.0146ZM65.2983 21.4876L68.0154 22.3084C68.0364 22.3147 68.048 22.2848 68.0282 22.2754C68.0273 22.275 68.0264 22.2746 68.0255 22.2744L65.2983 21.4876ZM75.0758 25.1712C74.9878 25.1342 74.9969 25.0067 75.0892 24.9824L76.4788 24.6167L78.2177 24.0081C78.2328 24.0028 78.249 24.0012 78.2648 24.0035L80.6943 24.3505C80.703 24.3518 80.7115 24.3541 80.7196 24.3576L81.8802 24.855C81.9169 24.8708 81.9408 24.9069 81.9408 24.9469V26.102C81.9408 26.1102 81.9398 26.1183 81.9378 26.1263L81.5286 27.7631C81.5137 27.8226 81.4493 27.8548 81.3928 27.831L75.0758 25.1712Z" fill="#443D3D"/>
<path d="M68.3863 22.4462L70.5385 17.9331L66.0223 26.852L68.3863 22.4462ZM71.8884 24.3253L69.5243 28.7311L69.7429 28.8485L69.9722 28.9436L71.8884 24.3253ZM81.9016 28.48L79.9854 33.0983L79.9858 33.0984L81.9016 28.48ZM81.9447 28.4918L82.6375 23.54L82.637 23.5399L81.9447 28.4918ZM87.6726 29.2932L86.9798 34.2449L86.9798 34.245L87.6726 29.2932ZM87.8241 29.4572L92.8153 29.1612L92.8153 29.1609L87.8241 29.4572ZM87.872 29.6847L83.0533 31.0187L83.0533 31.0188L87.872 29.6847ZM88.9527 33.5881L93.7715 32.2539L93.7714 32.2539L88.9527 33.5881ZM88.9531 33.6807L93.7827 34.9748L93.7828 34.9747L88.9531 33.6807ZM87.9178 37.5446L83.0882 36.2505L83.088 36.251L87.9178 37.5446ZM87.9104 37.5663L83.2909 35.6532L83.29 35.6553L87.9104 37.5663ZM87.9044 37.5794L83.4555 35.2973L83.4552 35.298L87.9044 37.5794ZM66.6816 78.9681L71.0068 81.4767L71.0717 81.3647L71.1308 81.2495L66.6816 78.9681ZM61.5929 87.7419L65.9178 90.2508L65.918 90.2505L61.5929 87.7419ZM61.5373 87.8006L58.7878 83.6245L58.7874 83.6248L61.5373 87.8006ZM58.0262 90.1128L60.7761 94.2887L60.7762 94.2887L58.0262 90.1128ZM57.8835 90.1358L56.5837 94.9639L56.584 94.964L57.8835 90.1358ZM53.379 88.923L51.7113 93.6367L51.893 93.701L52.0792 93.7511L53.379 88.923ZM12.0115 74.2867L13.6793 69.573L13.6791 69.5729L12.0115 74.2867ZM11.9241 74.0223L7.77345 71.2344L7.77344 71.2344L11.9241 74.0223ZM12.4424 72.9729L14.0991 68.2554L14.0991 68.2553L12.4424 72.9729ZM12.3305 72.761L7.50091 71.467L7.5009 71.467L12.3305 72.761ZM12.014 67.6809L10.3329 72.3898L10.333 72.3898L12.014 67.6809ZM11.9285 67.4146L16.0374 70.2635L16.0374 70.2635L11.9285 67.4146ZM20.7838 54.6427L16.6754 51.7931L16.6749 51.7938L20.7838 54.6427ZM20.7898 54.6335L25.0683 57.2209L25.0969 57.1735L25.1246 57.1255L20.7898 54.6335ZM20.7937 54.6268L25.1284 57.1188L25.1558 57.0711L25.1821 57.0229L20.7937 54.6268ZM20.7986 54.6172L25.3246 56.7421L25.3252 56.7408L20.7986 54.6172ZM23.8685 48.0734L19.3247 45.9867L28.3951 50.197L23.8685 48.0734ZM27.4798 40.3756L32.0064 42.4992L32.0065 42.4991L27.4798 40.3756ZM27.4987 40.3442L31.4883 43.3581L31.4885 43.3578L27.4987 40.3442ZM33.7425 32.0778L37.7323 35.0914L37.805 34.9951L37.873 34.8955L33.7425 32.0778ZM47.2341 15.0516L45.4583 19.7256L45.4585 19.7257L47.2341 15.0516ZM59.8191 19.8324L58.0435 24.5065L58.2064 24.5684L58.3732 24.6188L59.8191 19.8324ZM62.9192 20.7689L61.4733 25.5553L64.3828 15.9879L62.9192 20.7689ZM65.2983 21.4876L66.6843 16.6835L63.8524 26.274L65.2983 21.4876ZM76.4788 24.6167L77.7512 29.4521L77.9432 29.4015L78.1305 29.336L76.4788 24.6167ZM81.5286 27.7631L76.6779 26.5504L81.5286 27.7631ZM81.3928 27.831L83.333 23.2228L81.3928 27.831ZM81.9378 26.1263L77.0871 24.9136L81.9378 26.1263ZM81.8802 24.855L79.9106 29.4507L81.8802 24.855ZM80.6943 24.3505L79.9872 29.3003L80.6943 24.3505ZM80.7196 24.3576L78.75 28.9533L80.7196 24.3576ZM78.2177 24.0081L76.5659 19.2888L78.2177 24.0081ZM78.2648 24.0035L78.972 19.0537L78.2648 24.0035ZM75.0892 24.9824L73.8167 20.147L75.0892 24.9824ZM75.0758 25.1712L77.0161 20.563L75.0758 25.1712ZM68.0282 22.2754L70.1803 17.7623L68.0282 22.2754ZM68.0255 22.2744L66.6395 27.0784L68.0255 22.2744ZM47.2155 14.9935L43.5869 11.5535L47.2155 14.9935ZM47.2228 14.9782L52.1783 15.6439L47.2228 14.9782ZM47.8129 9.26414L51.1389 12.9974L47.8129 9.26414ZM47.9785 9.35212L43.023 8.68645L47.9785 9.35212ZM26.8538 41.1917L27.862 46.089L26.8538 41.1917ZM26.9648 41.3314L31.5085 43.4181L26.9648 41.3314ZM21.0456 42.4533L25.9812 43.2536L21.0456 42.4533ZM21.1242 42.3713L22.1325 47.2686L21.1242 42.3713ZM20.5133 45.6645L16.5133 42.6645L20.5133 45.6645ZM20.532 45.6205L25.4676 46.4209L20.532 45.6205ZM18.989 47.8194L22.9426 44.7585L18.989 47.8194ZM18.9881 47.6982L14.9881 44.6982L18.9881 47.6982ZM21.0614 50.5128L16.1651 51.5258L21.0614 50.5128ZM21.0425 50.4718L17.0889 53.5327L21.0425 50.4718ZM21.5561 53.0024L17.0295 50.8788L21.5561 53.0024ZM21.5635 52.9397L26.4598 51.9267L21.5635 52.9397ZM13.5214 68.3166L8.69179 67.0225L13.5214 68.3166ZM13.4585 68.1966L11.7774 72.9055L13.4585 68.1966ZM68.062 19.1364L72.848 20.5835L68.062 19.1364ZM68.1476 19.2648L68.6534 14.2905L68.1476 19.2648ZM38.3687 16.7351L37.8453 21.7077L38.3687 16.7351ZM38.4777 16.6188L43.4061 15.7752L38.4777 16.6188ZM36.8799 7.28388L31.9515 8.12747L36.8799 7.28388ZM37.0496 7.19679L40.6095 3.68572L37.0496 7.19679ZM75.6269 20.0253L75.1211 24.9997L75.6269 20.0253ZM75.6542 20.2176L73.7829 15.5809L75.6542 20.2176ZM12.5213 73.1332L8.37068 70.3453L12.5213 73.1332ZM12.4714 72.9831L14.1282 68.2656L12.4714 72.9831ZM43.1024 13.3336L46.6622 9.82255L43.1024 13.3336ZM43.2401 13.3381L46.5661 17.0714L43.2401 13.3381ZM69.2274 22.8114L71.0987 27.448L69.2274 22.8114ZM69.1469 22.8089L71.2991 18.2958L69.1469 22.8089ZM68.966 15.5468L66.4266 11.2396L68.966 15.5468ZM69.1125 15.6619L64.3265 14.2148L69.1125 15.6619ZM31.9272 16.2229L27.8035 19.0505V19.0505L31.9272 16.2229ZM32.0201 16.0669L32.5436 11.0943L32.0201 16.0669ZM65.2205 17.5963L60.2818 18.3769L65.2205 17.5963ZM65.3701 17.6668L62.8307 13.3597L65.3701 17.6668ZM36.0378 22.2268L40.8488 20.8651L36.0378 22.2268ZM36.024 22.1974L31.9004 25.0251L36.024 22.1974ZM68.0154 22.3084L69.4613 17.522L68.0154 22.3084ZM87.8313 29.5787L92.8225 29.2827L87.8313 29.5787ZM87.854 29.6419L83.54 32.1696L87.854 29.6419ZM37.3089 26.8497L33.1784 24.0321L37.3089 26.8497ZM37.3225 26.7661L32.5115 28.1277L37.3225 26.7661ZM63.2709 6.4946L58.4058 5.34114L63.2709 6.4946ZM63.467 6.50205L68.4057 5.72146L63.467 6.50205ZM60.6227 17.6645L65.4878 18.818L60.6227 17.6645ZM60.4206 19.9959L57.2268 23.843L60.4206 19.9959ZM60.4552 20.0146L58.9917 24.7956L60.4552 20.0146ZM57.9182 17.9184L54.7244 21.7654L57.9182 17.9184ZM57.9182 17.9184L54.7244 21.7654L57.2268 23.843L60.4206 19.9959L63.6144 16.1489L61.112 14.0714L57.9182 17.9184ZM60.5254 17.7415V12.7415H57.9821V17.7415V22.7415H60.5254V17.7415ZM63.2709 6.4946L58.4058 5.34114L55.7575 16.5111L60.6227 17.6645L65.4878 18.818L68.136 7.64805L63.2709 6.4946ZM65.2205 17.5963L70.1592 16.8157L68.4057 5.72146L63.467 6.50205L58.5283 7.28265L60.2818 18.3769L65.2205 17.5963ZM68.966 15.5468L66.4266 11.2396L62.8307 13.3597L65.3701 17.6668L67.9094 21.974L71.5054 19.8539L68.966 15.5468ZM68.062 19.1364L72.848 20.5835L73.8985 17.1089L69.1125 15.6619L64.3265 14.2148L63.2759 17.6894L68.062 19.1364ZM75.6269 20.0253L76.1327 15.051L68.6534 14.2905L68.1476 19.2648L67.6418 24.2392L75.1211 24.9997L75.6269 20.0253ZM69.2274 22.8114L71.0987 27.448L77.5255 24.8542L75.6542 20.2176L73.7829 15.5809L67.3561 18.1748L69.2274 22.8114ZM68.3863 22.4462L66.2342 26.9593L66.9948 27.322L69.1469 22.8089L71.2991 18.2958L70.5385 17.9331L68.3863 22.4462ZM71.8884 24.3253L74.2524 19.9195L70.7504 18.0404L68.3863 22.4462L66.0223 26.852L69.5243 28.7311L71.8884 24.3253ZM81.9016 28.48L83.8178 23.8618L73.8046 19.7071L71.8884 24.3253L69.9722 28.9436L79.9854 33.0983L81.9016 28.48ZM81.9447 28.4918L82.637 23.5399C83.0433 23.5967 83.4399 23.705 83.8174 23.8616L81.9016 28.48L79.9858 33.0984C80.3909 33.2665 80.8165 33.3827 81.2524 33.4436L81.9447 28.4918ZM87.6726 29.2932L88.3654 24.3414L82.6375 23.54L81.9447 28.4918L81.2519 33.4435L86.9798 34.2449L87.6726 29.2932ZM87.8241 29.4572L92.8153 29.1609C92.6692 26.6997 90.8074 24.683 88.3654 24.3414L87.6726 29.2932L86.9798 34.245C84.7041 33.9266 82.9691 32.0472 82.8329 29.7536L87.8241 29.4572ZM87.8313 29.5787L92.8225 29.2827L92.8153 29.1612L87.8241 29.4572L82.8329 29.7533L82.8401 29.8747L87.8313 29.5787ZM87.872 29.6847L92.6908 28.3507C92.571 27.918 92.3955 27.5024 92.168 27.1142L87.854 29.6419L83.54 32.1696C83.3277 31.8073 83.1644 31.4203 83.0533 31.0187L87.872 29.6847ZM88.9527 33.5881L93.7714 32.2539L92.6907 28.3505L87.872 29.6847L83.0533 31.0188L84.134 34.9222L88.9527 33.5881ZM88.9531 33.6807L93.7828 34.9747C94.0218 34.0825 94.0176 33.1431 93.7715 32.2539L88.9527 33.5881L84.134 34.9222C83.9046 34.0935 83.9007 33.2181 84.1235 32.3866L88.9531 33.6807ZM87.9178 37.5446L92.7474 38.8387L93.7827 34.9748L88.9531 33.6807L84.1235 32.3866L83.0882 36.2505L87.9178 37.5446ZM87.9104 37.5663L92.53 39.4794C92.6177 39.2674 92.69 39.053 92.7476 38.8382L87.9178 37.5446L83.088 36.251C83.1416 36.0509 83.2089 35.8511 83.2909 35.6532L87.9104 37.5663ZM87.9044 37.5794L92.3532 39.8614C92.4171 39.737 92.4764 39.6089 92.5308 39.4774L87.9104 37.5663L83.29 35.6553C83.3408 35.5326 83.3961 35.4132 83.4555 35.2973L87.9044 37.5794ZM66.6816 78.9681L71.1308 81.2495L92.3536 39.8608L87.9044 37.5794L83.4552 35.298L62.2324 76.6867L66.6816 78.9681ZM61.5929 87.7419L65.918 90.2505L71.0068 81.4767L66.6816 78.9681L62.3565 76.4595L57.2677 85.2333L61.5929 87.7419ZM61.5373 87.8006L64.2869 91.9767C64.9572 91.5354 65.5154 90.9445 65.9178 90.2508L61.5929 87.7419L57.2679 85.233C57.6429 84.5866 58.1631 84.0358 58.7878 83.6245L61.5373 87.8006ZM58.0262 90.1128L60.7762 94.2887L64.2873 91.9765L61.5373 87.8006L58.7874 83.6248L55.2763 85.937L58.0262 90.1128ZM57.8835 90.1358L56.584 94.964C58.0132 95.3487 59.5392 95.1032 60.7761 94.2887L58.0262 90.1128L55.2764 85.9369C56.4291 85.1779 57.8512 84.9492 59.1831 85.3076L57.8835 90.1358ZM53.379 88.923L52.0792 93.7511L56.5837 94.9639L57.8835 90.1358L59.1834 85.3077L54.6789 84.095L53.379 88.923ZM12.0115 74.2867L10.3438 79.0003L51.7113 93.6367L53.379 88.923L55.0468 84.2094L13.6793 69.573L12.0115 74.2867ZM11.9241 74.0223L7.77344 71.2344C5.88825 74.0411 7.15601 77.8726 10.344 79.0004L12.0115 74.2867L13.6791 69.5729C16.6501 70.6239 17.8315 74.1947 16.0747 76.8102L11.9241 74.0223ZM12.5213 73.1332L8.37068 70.3453L7.77345 71.2344L11.9241 74.0223L16.0746 76.8103L16.6719 75.9211L12.5213 73.1332ZM12.4424 72.9729L10.7856 77.6904L10.8146 77.7006L12.4714 72.9831L14.1282 68.2656L14.0991 68.2554L12.4424 72.9729ZM12.3305 72.761L7.5009 71.467C6.80046 74.0812 8.23209 76.7937 10.7856 77.6904L12.4424 72.9729L14.0991 68.2553C16.4788 69.0911 17.8129 71.6189 17.1602 74.0551L12.3305 72.761ZM13.5214 68.3166L8.69179 67.0225L7.50091 71.467L12.3305 72.761L17.1602 74.0551L18.3511 69.6107L13.5214 68.3166ZM12.014 67.6809L10.333 72.3898L11.7774 72.9055L13.4585 68.1966L15.1395 63.4876L13.6951 62.972L12.014 67.6809ZM11.9285 67.4146L7.81953 64.5656C5.87829 67.3654 7.12452 71.2444 10.3329 72.3898L12.014 67.6809L13.6951 62.972C16.6851 64.0394 17.8465 67.6544 16.0374 70.2635L11.9285 67.4146ZM20.7838 54.6427L16.6749 51.7938L7.81952 64.5656L11.9285 67.4146L16.0374 70.2635L24.8928 57.4917L20.7838 54.6427ZM20.7898 54.6335L16.5113 52.0461C16.563 51.9607 16.6177 51.8763 16.6754 51.7931L20.7838 54.6427L24.8923 57.4924C24.9542 57.4032 25.0128 57.3126 25.0683 57.2209L20.7898 54.6335ZM20.7937 54.6268L16.4589 52.1348L16.4551 52.1415L20.7898 54.6335L25.1246 57.1255L25.1284 57.1188L20.7937 54.6268ZM20.7986 54.6172L16.2725 52.4923C16.3137 52.4045 16.358 52.3172 16.4052 52.2307L20.7937 54.6268L25.1821 57.0229C25.2328 56.93 25.2803 56.8364 25.3246 56.7421L20.7986 54.6172ZM21.5561 53.0024L17.0295 50.8788L16.2719 52.4936L20.7986 54.6172L25.3252 56.7408L26.0827 55.126L21.5561 53.0024ZM21.0614 50.5128L16.1651 51.5258L16.6672 53.9527L21.5635 52.9397L26.4598 51.9267L25.9577 49.4998L21.0614 50.5128ZM18.989 47.8194L15.0354 50.8802L17.0889 53.5327L21.0425 50.4718L24.9961 47.411L22.9426 44.7585L18.989 47.8194ZM20.5133 45.6645L16.5133 42.6645L14.9881 44.6982L18.9881 47.6982L22.9881 50.6982L24.5133 48.6645L20.5133 45.6645ZM21.0456 42.4533L16.1101 41.6529L15.5965 44.8201L20.532 45.6205L25.4676 46.4209L25.9812 43.2536L21.0456 42.4533ZM26.8538 41.1917L25.8455 36.2944L20.1159 37.474L21.1242 42.3713L22.1325 47.2686L27.862 46.089L26.8538 41.1917ZM23.8685 48.0734L28.4122 50.1602L31.5085 43.4181L26.9648 41.3314L22.4211 39.2446L19.3247 45.9867L23.8685 48.0734ZM27.4798 40.3756L22.9532 38.252L19.3418 45.9498L23.8685 48.0734L28.3951 50.197L32.0064 42.4992L27.4798 40.3756ZM27.4987 40.3442L23.5091 37.3304C23.2921 37.6177 23.1058 37.9266 22.9531 38.2521L27.4798 40.3756L32.0065 42.4991C31.8642 42.8025 31.6905 43.0903 31.4883 43.3581L27.4987 40.3442ZM33.7425 32.0778L29.7527 29.0643L23.5089 37.3307L27.4987 40.3442L31.4885 43.3578L37.7323 35.0914L33.7425 32.0778ZM37.3089 26.8497L33.1784 24.0321L29.612 29.2602L33.7425 32.0778L37.873 34.8955L41.4394 29.6674L37.3089 26.8497ZM36.0378 22.2268L31.2267 23.5884L32.5115 28.1277L37.3225 26.7661L42.1335 25.4045L40.8488 20.8651L36.0378 22.2268ZM31.9272 16.2229L27.8035 19.0505L31.9004 25.0251L36.024 22.1974L40.1477 19.3698L36.0508 13.3952L31.9272 16.2229ZM38.3687 16.7351L38.8921 11.7626L32.5436 11.0943L32.0201 16.0669L31.4967 21.0394L37.8453 21.7077L38.3687 16.7351ZM36.8799 7.28388L31.9515 8.12747L33.5494 17.4624L38.4777 16.6188L43.4061 15.7752L41.8082 6.4403L36.8799 7.28388ZM43.1024 13.3336L46.6622 9.82255L40.6095 3.68572L37.0496 7.19679L33.4898 10.7079L39.5426 16.8447L43.1024 13.3336ZM47.8129 9.26414L44.4868 5.53084L39.9141 9.60477L43.2401 13.3381L46.5661 17.0714L51.1389 12.9974L47.8129 9.26414ZM47.2228 14.9782L52.1783 15.6439L52.934 10.0178L47.9785 9.35212L43.023 8.68645L42.2673 14.3125L47.2228 14.9782ZM59.8191 19.8324L61.5947 15.1583L49.0097 10.3775L47.2341 15.0516L45.4585 19.7257L58.0435 24.5065L59.8191 19.8324ZM62.9192 20.7689L64.3651 15.9825L61.265 15.046L59.8191 19.8324L58.3732 24.6188L61.4733 25.5553L62.9192 20.7689ZM60.4552 20.0146L58.9917 24.7956L61.4556 25.5499L62.9192 20.7689L64.3828 15.9879L61.9188 15.2336L60.4552 20.0146ZM68.0154 22.3084L69.4613 17.522L66.7442 16.7012L65.2983 21.4876L63.8524 26.274L66.5695 27.0947L68.0154 22.3084ZM65.2983 21.4876L63.9123 26.2916L66.6395 27.0784L68.0255 22.2744L69.4115 17.4703L66.6843 16.6835L65.2983 21.4876ZM76.4788 24.6167L75.2063 19.7813L73.8167 20.147L75.0892 24.9824L76.3617 29.8177L77.7512 29.4521L76.4788 24.6167ZM78.2177 24.0081L76.5659 19.2888L74.827 19.8974L76.4788 24.6167L78.1305 29.336L79.8694 28.7274L78.2177 24.0081ZM80.6943 24.3505L81.4014 19.4008L78.972 19.0537L78.2648 24.0035L77.5577 28.9532L79.9872 29.3003L80.6943 24.3505ZM81.8802 24.855L83.8498 20.2593L82.6892 19.7619L80.7196 24.3576L78.75 28.9533L79.9106 29.4507L81.8802 24.855ZM81.9408 26.102H86.9408V24.9469H81.9408H76.9408V26.102H81.9408ZM81.5286 27.7631L86.3793 28.9757L86.7885 27.3389L81.9378 26.1263L77.0871 24.9136L76.6779 26.5504L81.5286 27.7631ZM75.0758 25.1712L73.1356 29.7794L79.4525 32.4392L81.3928 27.831L83.333 23.2228L77.0161 20.563L75.0758 25.1712ZM81.5286 27.7631L76.6779 26.5504C77.4067 23.6352 80.5636 22.0567 83.333 23.2228L81.3928 27.831L79.4525 32.4392C82.3349 33.6528 85.6208 32.0099 86.3793 28.9757L81.5286 27.7631ZM81.9408 26.102H76.9408C76.9408 25.7014 76.9899 25.3023 77.0871 24.9136L81.9378 26.1263L86.7885 27.3389C86.8896 26.9344 86.9408 26.519 86.9408 26.102H81.9408ZM81.8802 24.855L79.9106 29.4507C78.1089 28.6786 76.9408 26.907 76.9408 24.9469H81.9408H86.9408C86.9408 22.9068 85.7249 21.0629 83.8498 20.2593L81.8802 24.855ZM80.6943 24.3505L79.9872 29.3003C79.5614 29.2394 79.1454 29.1228 78.75 28.9533L80.7196 24.3576L82.6892 19.7619C82.2776 19.5855 81.8447 19.4641 81.4014 19.4008L80.6943 24.3505ZM78.2177 24.0081L79.8694 28.7274C79.1281 28.9868 78.3353 29.0643 77.5577 28.9532L78.2648 24.0035L78.972 19.0537C78.1627 18.9381 77.3375 19.0187 76.5659 19.2888L78.2177 24.0081ZM75.0892 24.9824L73.8167 20.147C69.1077 21.3862 68.6478 27.8898 73.1356 29.7794L75.0758 25.1712L77.0161 20.563C81.3279 22.3785 80.886 28.6271 76.3617 29.8177L75.0892 24.9824ZM68.0282 22.2754L70.1803 17.7623C69.9325 17.6441 69.6753 17.5464 69.4115 17.4703L68.0255 22.2744L66.6395 27.0784C66.3775 27.0029 66.1221 26.9059 65.876 26.7885L68.0282 22.2754ZM47.2155 14.9935L43.5869 11.5535C41.94 13.2906 42.0587 15.434 42.4869 16.6667C42.9051 17.8704 43.8736 19.1236 45.4583 19.7256L47.2341 15.0516L49.0098 10.3776C50.5719 10.971 51.5228 12.2039 51.9332 13.3851C52.3536 14.5953 52.4742 16.7139 50.844 18.4335L47.2155 14.9935ZM47.2228 14.9782L42.2673 14.3125C42.4064 13.2767 42.8684 12.3114 43.5869 11.5535L47.2155 14.9935L50.844 18.4335C51.5705 17.6672 52.0376 16.6912 52.1783 15.6439L47.2228 14.9782ZM47.8129 9.26414L51.1389 12.9974C47.7438 16.0222 42.4177 13.1931 43.023 8.68645L47.9785 9.35212L52.934 10.0178C53.5641 5.32723 48.0205 2.38264 44.4868 5.53084L47.8129 9.26414ZM26.8538 41.1917L27.862 46.089C23.9291 46.8987 20.7452 42.8937 22.4211 39.2446L26.9648 41.3314L31.5085 43.4181C33.2528 39.6202 29.939 35.4516 25.8455 36.2944L26.8538 41.1917ZM21.0456 42.4533L25.9812 43.2536C25.6557 45.2609 24.1242 46.8585 22.1325 47.2686L21.1242 42.3713L20.1159 37.474C18.0429 37.9008 16.4489 39.5637 16.1101 41.6529L21.0456 42.4533ZM20.5133 45.6645L24.5133 48.6645C25.0081 48.0048 25.3356 47.2349 25.4676 46.4209L20.532 45.6205L15.5965 44.8201C15.7233 44.038 16.0379 43.2984 16.5133 42.6645L20.5133 45.6645ZM18.989 47.8194L22.9426 44.7585C24.2928 46.5025 24.3114 48.9337 22.9881 50.6982L18.9881 47.6982L14.9881 44.6982C13.6107 46.5347 13.6301 49.0651 15.0354 50.8802L18.989 47.8194ZM21.0614 50.5128L25.9577 49.4998C25.8003 48.7394 25.4715 48.0249 24.9961 47.411L21.0425 50.4718L17.0889 53.5327C16.6322 52.9428 16.3162 52.2564 16.1651 51.5258L21.0614 50.5128ZM21.5561 53.0024L26.0827 55.126C26.5508 54.1283 26.6831 53.0059 26.4598 51.9267L21.5635 52.9397L16.6672 53.9527C16.4527 52.9159 16.5798 51.8374 17.0295 50.8788L21.5561 53.0024ZM13.5214 68.3166L18.3511 69.6107C19.0386 67.0448 17.6413 64.3808 15.1395 63.4876L13.4585 68.1966L11.7774 72.9055C9.37368 72.0474 8.03121 69.4878 8.69179 67.0225L13.5214 68.3166ZM68.062 19.1364L63.2759 17.6894C62.3476 20.7598 64.4505 23.9147 67.6418 24.2392L68.1476 19.2648L68.6534 14.2905C71.7195 14.6023 73.7399 17.6335 72.848 20.5835L68.062 19.1364ZM38.3687 16.7351L37.8453 21.7077C41.2067 22.0615 43.9763 19.1069 43.4061 15.7752L38.4777 16.6188L33.5494 17.4624C33.0015 14.2614 35.6625 11.4227 38.8921 11.7626L38.3687 16.7351ZM36.8799 7.28388L41.8082 6.4403C42.6172 11.1668 36.857 14.1218 33.4898 10.7079L37.0496 7.19679L40.6095 3.68572C37.1048 0.132397 31.1095 3.20805 31.9515 8.12747L36.8799 7.28388ZM75.6269 20.0253L75.1211 24.9997C70.0331 24.4823 69.0403 17.495 73.7829 15.5809L75.6542 20.2176L77.5255 24.8542C82.4618 22.862 81.4284 15.5895 76.1327 15.051L75.6269 20.0253ZM12.5213 73.1332L16.6719 75.9211C18.5322 73.1515 17.276 69.3711 14.1282 68.2656L12.4714 72.9831L10.8146 77.7006C7.7902 76.6385 6.58331 73.0062 8.37068 70.3453L12.5213 73.1332ZM43.1024 13.3336L39.5426 16.8447C41.4499 18.7785 44.5381 18.8781 46.5661 17.0714L43.2401 13.3381L39.9141 9.60477C41.8626 7.86884 44.8297 7.96458 46.6622 9.82255L43.1024 13.3336ZM69.2274 22.8114L67.3561 18.1748C68.6293 17.6609 70.0598 17.7048 71.2991 18.2958L69.1469 22.8089L66.9948 27.322C68.2847 27.9371 69.7735 27.9828 71.0987 27.448L69.2274 22.8114ZM68.966 15.5468L71.5054 19.8539C67.661 22.1205 63.0349 18.4867 64.3265 14.2148L69.1125 15.6619L73.8985 17.1089C75.2428 12.6627 70.4279 8.88058 66.4266 11.2396L68.966 15.5468ZM31.9272 16.2229L36.0508 13.3952C38.4148 16.8427 35.6539 21.477 31.4967 21.0394L32.0201 16.0669L32.5436 11.0943C28.2167 10.6389 25.3431 15.4623 27.8035 19.0505L31.9272 16.2229ZM65.2205 17.5963L60.2818 18.3769C60.8436 21.9309 64.8099 23.8014 67.9094 21.974L65.3701 17.6668L62.8307 13.3597C65.8087 11.6039 69.6195 13.401 70.1592 16.8157L65.2205 17.5963ZM36.0378 22.2268L40.8488 20.8651C40.6979 20.3319 40.4611 19.8268 40.1477 19.3698L36.024 22.1974L31.9004 25.0251C31.5993 24.5859 31.3717 24.1007 31.2267 23.5884L36.0378 22.2268ZM68.0154 22.3084L66.5695 27.0947C72.5062 28.8881 75.7778 20.4315 70.1803 17.7623L68.0282 22.2754L65.876 26.7885C60.3181 24.1382 63.5666 15.7413 69.4613 17.522L68.0154 22.3084ZM87.8313 29.5787L82.8401 29.8747C82.9137 31.117 83.4305 31.9827 83.54 32.1696L87.854 29.6419L92.168 27.1142C92.2546 27.2619 92.7515 28.0857 92.8225 29.2827L87.8313 29.5787ZM37.3089 26.8497L41.4394 29.6674C42.2907 28.4194 42.5449 26.8581 42.1335 25.4045L37.3225 26.7661L32.5115 28.1277C32.1162 26.7311 32.3605 25.2311 33.1784 24.0321L37.3089 26.8497ZM63.2709 6.4946L68.136 7.64805C66.8972 12.8734 59.3667 12.5874 58.5283 7.28265L63.467 6.50205L68.4057 5.72146C67.533 0.200211 59.6952 -0.0974817 58.4058 5.34114L63.2709 6.4946ZM60.5254 17.7415V22.7415C62.8888 22.7415 64.9426 21.1177 65.4878 18.818L60.6227 17.6645L55.7575 16.5111C56.2814 14.3016 58.2546 12.7415 60.5254 12.7415V17.7415ZM60.4206 19.9959L57.2268 23.843C57.7462 24.2742 58.3461 24.598 58.9917 24.7956L60.4552 20.0146L61.9188 15.2336C62.539 15.4235 63.1154 15.7346 63.6144 16.1489L60.4206 19.9959ZM57.9182 17.9184L61.112 14.0714C64.6416 17.0017 62.5695 22.7415 57.9821 22.7415V17.7415V12.7415C53.2073 12.7415 51.0507 18.7155 54.7244 21.7654L57.9182 17.9184Z" fill="#443D3D" mask="url(#path-1-outside-1_442_363)"/>
<path d="M66.6817 78.9681L87.9044 37.5794C87.9101 37.5683 87.9146 37.5566 87.9178 37.5446L88.9531 33.6806C88.9613 33.6503 88.9611 33.6183 88.9528 33.588L87.872 29.6846C87.8363 29.5557 87.6755 29.512 87.5795 29.6052L82.0034 35.0173C81.954 35.0652 81.8813 35.08 81.8171 35.0552L47.2556 21.668C47.1787 21.6383 47.0916 21.6657 47.0456 21.7341L11.9241 74.0223C11.8599 74.1179 11.9031 74.2483 12.0116 74.2867L53.3791 88.923L57.8836 90.1358C57.9322 90.1489 57.9842 90.1405 58.0263 90.1128L61.5374 87.8006C61.5602 87.7856 61.5792 87.7655 61.5929 87.7419L66.6817 78.9681Z" fill="#4A4A4A"/>
<path d="M12.4424 72.9729C12.3555 72.9423 12.3067 72.85 12.3306 72.761L13.698 67.6577C13.7247 67.5581 13.8308 67.5026 13.9278 67.5376L56.3834 82.8153C56.408 82.8241 56.43 82.8386 56.45 82.8556C56.8064 83.1589 58.3943 83.8256 58.6089 84.8743C58.821 85.9106 57.8958 87.8945 57.295 88.6123C57.2503 88.6657 57.1773 88.6826 57.1116 88.6595L12.4424 72.9729Z" fill="#C0C0C0"/>
<path d="M53.9958 82.6681L58.6014 84.8856C58.6863 84.9265 58.7882 84.8934 58.8329 84.8106L87.8892 30.9994C87.9048 30.9706 87.912 30.938 87.91 30.9053L87.8241 29.4572C87.8191 29.3734 87.7558 29.3048 87.6726 29.2932L81.9447 28.4918C81.9299 28.4897 81.9154 28.4857 81.9016 28.48L71.8884 24.3253L68.2919 22.3955C68.2816 22.39 68.2708 22.3855 68.2596 22.3821L59.8191 19.8324L47.2341 15.0516C47.1676 15.0263 47.0924 15.0435 47.0435 15.0952L40.888 21.607C40.8816 21.6138 40.8757 21.621 40.8705 21.6287L33.7425 32.0778L27.4987 40.3442C27.4914 40.354 27.485 40.3645 27.4798 40.3756L20.7986 54.6172C20.7944 54.6261 20.7895 54.6346 20.7839 54.6427L11.9285 67.4146C11.8624 67.5099 11.9048 67.6419 12.0141 67.6809L53.9958 82.6681Z" fill="#747373"/>
<path d="M47.7212 13.3581C47.0719 13.1658 46.3683 13.3267 45.8675 13.7824L45.7632 13.8849L39.6074 20.3963C39.5372 20.4706 39.4729 20.5508 39.4148 20.6359L32.3069 31.0556L26.0929 39.2823L25.9795 39.449C25.9447 39.5066 25.9138 39.5662 25.8853 39.627L19.2618 53.7474L10.4809 66.4111C9.75417 67.4594 10.2205 68.9115 11.4218 69.3404L11.4227 69.3406L10.6283 72.3054C10.5764 72.4994 10.5579 72.6948 10.5657 72.8861L10.4617 73.0402C9.75596 74.0911 10.2302 75.5254 11.4236 75.9478L52.7912 90.5839L52.8557 90.6072L52.9208 90.6247L57.4256 91.8368C57.9609 91.9809 58.5325 91.8892 58.9956 91.5842L62.5066 89.2725C62.7573 89.1074 62.9658 88.8857 63.1165 88.6261L68.2053 79.8522L68.2289 79.8131L68.249 79.7719L89.4725 38.383C89.535 38.2612 89.584 38.133 89.6194 38.0008L90.6547 34.1371C90.7442 33.8032 90.743 33.4511 90.6508 33.1179L89.5704 29.2151L89.5679 29.2053C89.4595 28.4081 88.868 27.7605 88.0856 27.5798L87.917 27.5487L82.39 26.7745L72.6462 22.7321L69.1245 20.8431L68.9506 20.7601C68.8913 20.7355 68.8304 20.7138 68.7688 20.6952L60.392 18.1656L47.8594 13.4042L47.7212 13.3581Z" stroke="#3C3C3C" stroke-width="3.52387"/>
<path d="M54.5286 79.1039C54.7777 79.5355 70.8517 47.1175 80.0101 30.297C69.4372 26.1871 48.1382 17.9264 47.5255 17.7622C46.9128 17.598 26.984 49.8343 17.0962 65.973C30.2448 70.6818 54.2794 78.6723 54.5286 79.1039Z" fill="#5F5F5F"/>
<path d="M53.7242 74.8258C53.9394 75.1985 67.8169 47.2101 75.724 32.6879C66.5958 29.1396 48.207 22.0076 47.6781 21.8659C47.1491 21.7241 29.9434 49.5557 21.4066 63.4891C32.7586 67.5545 53.5091 74.4532 53.7242 74.8258Z" fill="#555555"/>
<path d="M53.7242 74.8258C53.9394 75.1985 67.8169 47.2101 75.724 32.6879C66.5958 29.1396 48.207 22.0076 47.6781 21.8659C47.1491 21.7241 29.9434 49.5557 21.4066 63.4891C32.7586 67.5545 53.5091 74.4532 53.7242 74.8258Z" fill="#555555"/>
<path d="M52.5049 68.3387C52.6684 68.6219 63.2153 47.3508 69.2247 36.3139C62.2872 33.6173 48.3118 28.1969 47.9098 28.0892C47.5078 27.9815 34.4315 49.1334 27.9436 59.7228C36.5711 62.8125 52.3414 68.0555 52.5049 68.3387Z" fill="#555555"/>
<path d="M52.5049 68.3387C52.6684 68.6219 63.2153 47.3508 69.2247 36.3139C62.2872 33.6173 48.3118 28.1969 47.9098 28.0892C47.5078 27.9815 34.4315 49.1334 27.9436 59.7228C36.5711 62.8125 52.3414 68.0555 52.5049 68.3387Z" fill="#4A4A4A"/>
<path d="M12.5183 68.7596L11.9182 67.5956L53.9791 82.5139L58.9813 84.9487L58.7761 85.7146L12.5183 68.7596Z" fill="#4A4A4A"/>
<path d="M38.5 16.7491L31.8047 16.0443L36.0333 22.2111L37.3548 26.8802L40.7906 21.7706L47.2216 14.9871L48.0145 9.08466L43.1692 13.4014L36.8262 6.97034L38.5 16.7491Z" fill="#E9ACFF"/>
<path d="M41.9359 17.6301C41.7949 17.4187 38.5882 10.553 37.0025 7.14661L38.412 16.661C39.6454 17.0722 42.0768 17.8415 41.9359 17.6301Z" fill="#EFC1FF"/>
<path d="M44.8431 15.0753C45.8709 13.1959 47.9265 9.38426 47.9265 9.17283L43.2573 13.3134L44.8431 15.0753Z" fill="#EFC1FF"/>
<path d="M39.7335 20.8897C37.2374 19.304 32.1924 16.1149 31.981 16.0444L35.9453 22.123L39.7335 20.8897Z" fill="#EFC1FF"/>
<path d="M57.7051 17.7415L60.4361 20.0087L64.7528 21.3302L68.0269 22.2748L69.1866 22.8278L76.0292 20.0662L68.0269 19.2526L69.1866 15.4167L65.2435 17.7415L63.3879 6.00134L60.6045 17.7415H57.7051Z" fill="#9FD1FF"/>
<path d="M62.9907 18.2226L63.4501 6.17737L65.2875 17.7593L62.9907 18.2226Z" fill="#C3E2FF"/>
<path d="M66.0914 19.0333L69.1921 15.4429L68.0437 19.265L66.0914 19.0333Z" fill="#C3E2FF"/>
<path d="M66.3211 21.4655L75.8528 20.0757L69.1921 22.7395L66.3211 21.813V21.4655Z" fill="#C3E2FF"/>
<path d="M21.0567 42.3852L27.0473 41.1519L21.5853 53.0449L21.0567 50.4901L18.9424 47.7591L20.5281 45.6448L21.0567 42.3852Z" fill="#D6D045"/>
<path d="M21.2327 45.5567L21.4089 42.7376L23.1708 42.5614L26.1661 42.0328C25.5788 42.6495 24.369 43.9181 24.228 44.0591C24.087 44.2 23.2296 45.1162 22.8185 45.5567L21.6732 47.3186L21.2327 49.6972L19.647 47.7591L21.2327 45.5567Z" fill="#E9E46E"/>
<path d="M76.5576 25.1181L74.8838 25.5586L81.5791 28.3777L82.0196 26.6158V25.3824L80.7863 24.8539L78.3196 24.5015L76.5576 25.1181Z" fill="#D6D045"/>
<path d="M81.0506 26.5277L77.1743 25.8229L80.0815 25.2943L81.5792 25.8229L81.0506 26.5277Z" fill="#E5E066"/>
<path d="M37.0904 68.2856L36.0332 66.1713L52.5954 37.0994L48.8072 36.2184L45.9881 34.9851H39.3809L44.4024 31.9898L49.8644 31.1969L55.0621 31.9898L56.2954 28.3778L62.286 30.404L60.5241 33.3112C61.9043 34.016 64.8584 35.5841 65.6337 36.2184C66.4089 36.8527 68.3647 39.3605 69.2457 40.5352L70.1266 45.2043L68.1885 43.0019L64.1361 39.478L57.9693 38.3327L40.3499 68.9904L37.0904 68.2856Z" fill="#8F8F8F"/>
<path d="M44.1379 69.519L40.0854 68.8142L57.881 38.3327L63.6072 39.3018L65.8978 40.5352C66.5438 41.2399 67.9064 42.7376 68.1883 43.09C68.4702 43.4424 69.4804 44.4114 69.9502 44.8519L66.5144 46.2614L58.85 41.4161L44.1379 69.519Z" fill="#686868"/>
<path d="M43.0807 37.7161L39.4688 35.0732H46.1641C46.446 35.0732 48.0435 35.8367 48.807 36.2184L52.6833 37.0994L51.1856 39.3018L43.0807 37.7161Z" fill="#686868"/>
<path d="M62.6382 34.4565C62.4914 33.3406 62.1801 31.0207 62.1096 30.6683L60.5239 33.2231L62.6382 34.4565Z" fill="#686868"/>
</svg>
