<svg width="100" height="100" viewBox="0 0 100 100" fill="none" xmlns="http://www.w3.org/2000/svg">
<g clip-path="url(#clip0_676_70753)">
<path d="M73.2231 67.4549C61.5969 87.5921 42.1875 98.1519 29.8709 91.0409C17.5543 83.9299 16.9947 61.841 28.6209 41.7038C40.2471 21.5667 59.6565 11.0069 71.9731 18.1179C84.2896 25.2288 84.8493 47.3178 73.2231 67.4549Z" fill="#908355"/>
<path d="M68.8073 64.9055C56.8739 85.5747 44.7368 99.9708 26.1804 90.1947C14.5716 83.4924 14.8347 61.3034 26.7681 40.6342C38.7015 19.965 57.7862 8.64257 69.395 15.3449C81.0038 22.0473 80.7407 44.2363 68.8073 64.9055ZM31.8386 43.5616C22.7839 59.2449 22.5842 76.0813 31.3927 81.1669C40.2011 86.2524 54.6821 77.6613 63.7368 61.978C72.7915 46.2948 72.9912 29.4584 64.1827 24.3728C55.3743 19.2872 40.8933 27.8784 31.8386 43.5616Z" fill="#918355"/>
<path d="M73.4921 26.1599C68.1828 35.3558 59.2801 40.2521 54.8445 37.6912C50.409 35.1303 53.2784 26.6355 58.5877 17.4396C63.8969 8.24376 68.4561 4.14216 72.8916 6.70301C77.3271 9.26387 78.8013 16.964 73.4921 26.1599ZM61.6421 18.9319C58.1576 24.9674 55.2372 30.288 58.1484 31.9688C61.0595 33.6495 63.2958 28.1497 66.7803 22.1142C70.2649 16.0787 72.5912 13.4548 69.68 11.774C66.7689 10.0933 65.1267 12.8964 61.6421 18.9319Z" fill="#918355"/>
<path d="M69.1655 3.5343C70.907 3.2762 72.5887 3.64197 74.1411 4.53821C77.2462 6.33094 79.0331 9.75624 79.3384 13.7531C79.4993 15.8597 79.259 18.1645 78.5815 20.5939C82.145 25.0714 83.907 31.1813 84.0757 37.838C84.3154 47.2975 81.3931 58.3043 75.3882 68.7052C69.3832 79.106 61.3124 87.1401 53.0005 91.6622C48.5971 94.0579 44.0102 95.5174 39.5972 95.7316C39.4586 95.7448 39.3196 95.7562 39.1802 95.7667C34.6902 96.1067 29.9851 95.0247 25.0151 92.4064L24.9722 92.3839L24.9302 92.3595C17.9948 88.3551 15.0348 80.0034 15.146 70.6222C15.2584 61.1502 18.4627 50.0193 24.603 39.3839C30.7433 28.7487 38.7805 20.4086 46.9272 15.5753C51.1245 13.0852 55.4967 11.4568 59.7017 11.0284C61.2931 8.79516 62.8913 6.98012 64.522 5.69739C65.9245 4.59422 67.473 3.78515 69.1655 3.5343Z" stroke="#62531E" stroke-width="5"/>
<ellipse cx="51.1592" cy="54.585" rx="25.7511" ry="42.1021" transform="rotate(30 51.1592 54.585)" fill="#908355"/>
<path d="M69.0447 64.9112C57.1113 85.5804 45.1366 99.8209 26.4178 90.2005C14.809 83.4981 15.0721 61.3091 27.0055 40.6399C38.9389 19.9707 58.0236 8.64829 69.6324 15.3506C81.2412 22.053 80.9781 44.242 69.0447 64.9112ZM32.076 43.5673C23.0213 59.2506 22.8216 76.087 31.6301 81.1726C40.4385 86.2581 54.9195 77.667 63.9742 61.9838C73.0289 46.3005 73.2286 29.4641 64.4201 24.3785C55.6117 19.293 41.1307 27.8841 32.076 43.5673Z" fill="#918355"/>
<path d="M73.7291 26.1656C68.4199 35.3615 59.5171 40.2578 55.0816 37.6969C50.6461 35.1361 53.5155 26.6412 58.8247 17.4453C64.134 8.24947 68.6931 4.14787 73.1287 6.70872C77.5642 9.26958 79.0383 16.9698 73.7291 26.1656ZM61.8792 18.9376C58.3946 24.9731 55.4743 30.2938 58.3854 31.9745C61.2966 33.6553 63.5328 28.1554 67.0174 22.1199C70.502 16.0844 72.8282 13.4605 69.9171 11.7798C67.006 10.099 65.3638 12.9022 61.8792 18.9376Z" fill="#918355"/>
<ellipse cx="48.0251" cy="52.7754" rx="22.132" ry="39.4055" transform="rotate(30 48.0251 52.7754)" fill="#C3B276"/>
<path d="M67.192 63.8414C56.3105 82.6887 38.908 93.0131 28.3224 86.9015C17.7368 80.79 17.9768 60.5568 28.8583 41.7094C39.7398 22.8621 57.1423 12.5377 67.7279 18.6492C78.3134 24.7608 78.0735 44.994 67.192 63.8414ZM30.0214 42.3809C19.8002 60.0846 19.5748 79.0899 29.518 84.8306C39.4612 90.5713 55.8077 80.8735 66.0289 63.1699C76.2501 45.4662 76.4754 26.4608 66.5323 20.7201C56.5891 14.9794 40.2426 24.6773 30.0214 42.3809Z" fill="#DFCD8D"/>
<ellipse cx="48.025" cy="52.7754" rx="19.1315" ry="34.0632" transform="rotate(30 48.025 52.7754)" fill="#D8C585"/>
<ellipse cx="48.025" cy="52.7754" rx="17.1182" ry="30.4785" transform="rotate(30 48.025 52.7754)" fill="#F1DE9C"/>
<ellipse cx="48.025" cy="52.7755" rx="14.7956" ry="26.3433" transform="rotate(30 48.025 52.7755)" fill="#FFEBA6"/>
<path d="M58.4824 29.9126C61.4405 30.1816 64.3729 31.2144 66.2222 33.5101C68.1037 35.8459 68.6687 39.2401 67.3987 43.7818C65.3699 51.0369 59.9163 57.6162 54.0504 62.8548C48.1669 68.1091 41.7525 72.1175 37.6183 74.2125L36.7383 74.6592L36.2467 73.8036L36.2295 73.7737C36.2185 73.7544 36.2024 73.7259 36.1814 73.689C36.1394 73.6152 36.0784 73.5065 35.9999 73.3664C35.8428 73.0862 35.6163 72.6795 35.3397 72.1704C34.7865 71.152 34.0288 69.7216 33.2117 68.0758C31.5858 64.8011 29.6917 60.6077 28.7193 57.0825C27.7844 53.6925 26.8135 50.4116 26.7714 46.694C26.729 42.9411 27.6277 38.8044 30.2898 33.6009C31.9294 30.3961 33.5929 28.8587 35.4059 28.2981C36.2924 28.024 37.1376 28.0098 37.9004 28.0707C38.2792 28.101 38.6487 28.1506 38.9912 28.1992C39.3428 28.2491 39.6584 28.2965 39.9739 28.3311L40.1832 28.3538L40.3669 28.4566C40.9196 28.7653 41.5399 29.056 42.3047 29.4541C43.0271 29.8301 43.8134 30.271 44.5085 30.8018C45.201 31.3307 45.861 31.9922 46.2671 32.83C46.2723 32.8406 46.2767 32.8516 46.2817 32.8622C46.3388 32.8179 46.3962 32.7735 46.4545 32.7306C47.3652 32.0604 48.5206 31.4859 49.7952 31.0315C52.3418 30.1235 55.5085 29.6422 58.4824 29.9126Z" fill="#FF3939" stroke="#BE0D0D" stroke-width="2.07973"/>
<path d="M40.2952 40.4375L34.2528 33.3552L33.2129 31.1068L35.3769 29.0552H38.0469L42.1501 30.1794L45.4383 33.3552C45.5133 33.936 45.6182 35.2044 45.4383 35.6316C45.2585 36.0588 41.9347 39.0135 40.2952 40.4375Z" fill="#CA1F1F"/>
<path d="M41.026 45.0746L40.2953 40.1282C40.848 40.1282 42.6111 39.2289 45.2417 35.6315C47.8723 32.0341 53.7386 31.1161 56.343 31.1067L55.1064 32.54L51.8182 36.3341V40.9714C49.7665 43.1635 45.579 47.6096 45.2417 47.857C44.9045 48.1043 42.2907 46.1051 41.026 45.0746Z" fill="#D62727"/>
<path d="M37.9345 37.8799L33.213 31.1067C26.5578 39.0884 27.4984 48.4097 28.8006 52.0726L30.1215 47.857L33.213 45.8053L35.6862 40.1282L37.9345 37.8799Z" fill="#D62727"/>
<path d="M32.8193 64.3825L37.0069 73.2354L45.0448 68.5139H39.5925L40.4076 65.31L38.7775 61.825L37.0069 63.5675H34.4494L32.8193 64.3825Z" fill="#FF6767"/>
<path d="M56.5395 42.7983L51.9304 41.1682V36.1375L56.5395 31.5002L58.282 33.1584L61.4859 35.3225L62.6101 38.9198L60.3336 41.1682L56.5395 42.7983Z" fill="#FF6767"/>
<path d="M37.0069 47.5479L33.6344 46.0865L35.8827 40.044L38.0468 37.88L40.4076 40.044L41.2226 44.2597L39.5925 46.8172L37.0069 47.5479Z" fill="#FF6767"/>
<path d="M48.3329 55.2484L45.9722 48.1661L51.5088 41.1681L56.3427 42.7138L60.446 41.1681L62.7224 39.1165L61.1767 43.6413V49.6837C61.1767 50.2739 56.7362 54.0118 56.3427 54.7426C56.028 55.3271 50.8717 55.3234 48.3329 55.2484Z" fill="#FF5B5B"/>
<path d="M61.5703 35.3224C60.24 34.1889 57.4108 31.8993 56.7363 31.8094C56.3616 31.8094 55.837 31.5845 56.7363 30.6852C65.7747 31.4271 67.3598 36.1281 67.0226 38.3858L63.0317 39.3133L61.5703 35.3224Z" fill="#FF3E3E"/>
<path d="M29.8403 57.4126L32.9037 65.0008L35.3769 63.455H37.1194L39.171 61.3191L41.2227 62.64L41.9534 61.3191C41.6442 60.4947 40.8179 58.9077 39.9861 59.155C39.1542 59.4024 38.4778 56.5788 38.2436 55.1361L35.3769 54.4335L32.9037 55.7544L29.8403 57.4126Z" fill="#FF3E3E"/>
<path d="M39.9862 54.5178L37.2319 47.7446L39.9862 46.9296L41.026 44.8779L45.045 47.7446C46.1411 50.0023 48.3501 54.6639 48.4175 55.2485C48.485 55.8331 46.1973 56.7287 45.045 57.1034L39.9862 54.5178Z" fill="#E73A3A"/>
<path d="M43.8084 62.8367L41.026 62.1341L38.5528 61.3191V62.1341L41.026 65.4223L39.9862 68.823H45.045L54.7972 60.7851L49.5698 60.1668L43.8084 62.8367Z" fill="#E73A3A"/>
<path d="M39.986 54.3211C40.1434 54.8157 38.8899 55.0143 38.2435 55.0518L35.4893 54.3211L30.2337 57.1877L28.688 51.9603L30.2337 47.9414L33.2128 45.8054L37.3161 47.2387C38.1405 49.3934 39.8286 53.8264 39.986 54.3211Z" fill="#E92E2E"/>
<path d="M50.5815 60.3916L48.4175 55.0518H56.5397L61.4861 49.5995L63.2285 50.7237L54.7972 61.0099L50.5815 60.3916Z" fill="#FF5151"/>
<path d="M73.5994 54.602C78.4558 46.8227 76.8033 29.589 74.7798 22.1694C85.3471 43.8886 75.7822 63.6142 69.4118 69.8628L67.5288 67.0242C67.9504 66.2748 69.6929 62.2745 73.5994 54.602Z" fill="#AA9D6F"/>
<path d="M75.2011 20.5957L72.5312 17.729L73.5149 13.1761L72.0815 9.41008V6.82446C72.9247 7.78002 74.6728 9.7923 74.9201 10.197C75.2292 10.7029 76.0443 12.4735 76.1286 13.5976C76.196 14.497 75.5384 18.6377 75.2011 20.5957Z" fill="#AA9D6E"/>
</g>
<defs>
<clipPath id="clip0_676_70753">
<rect width="100" height="100" fill="white"/>
</clipPath>
</defs>
</svg>
