<svg width="100" height="100" viewBox="0 0 100 100" fill="none" xmlns="http://www.w3.org/2000/svg">
<path d="M63.6562 75.5044C63.6487 75.4642 63.6554 75.4227 63.6751 75.3869L76.5665 51.9718C76.5849 51.9385 76.6135 51.912 76.6482 51.8963L84.6317 48.2807C84.7089 48.2458 84.7503 48.1607 84.7301 48.0784L82.6881 39.735C82.6786 39.6962 82.6826 39.6553 82.6994 39.619L84.8192 35.0445C84.8233 35.0357 84.8266 35.0266 84.8292 35.0173L85.8939 31.157C85.9022 31.1267 85.9023 31.0948 85.8942 31.0644L84.8421 27.1532C84.8073 27.024 84.6468 26.9792 84.5501 27.0717L78.9346 32.4428C78.8848 32.4903 78.8119 32.5046 78.7479 32.4793L44.2854 18.8394C44.2088 18.8091 44.1214 18.8359 44.075 18.9039L8.57147 70.9335C8.5066 71.0286 8.54881 71.1593 8.65703 71.1985L49.901 86.1319C49.9111 86.1356 49.9209 86.1402 49.9302 86.1456L54.5189 88.8399C54.591 88.8823 54.6831 88.868 54.739 88.8058L58.0999 85.0717C58.1115 85.0588 58.1249 85.0476 58.1398 85.0387L64.597 81.1436C64.66 81.1057 64.6928 81.0326 64.6792 80.9603L63.6562 75.5044Z" fill="#8F7D62"/>
<path d="M9.09745 69.8879C9.01075 69.8568 8.9627 69.7641 8.98719 69.6753L10.3919 64.5821C10.4194 64.4827 10.5259 64.428 10.6227 64.4636L52.9652 80.0518C52.9898 80.0609 53.0117 80.0755 53.0315 80.0926C53.3857 80.3986 54.9686 81.0769 55.1756 82.1271C55.38 83.165 54.4404 85.142 53.8343 85.8554C53.7893 85.9085 53.7161 85.9248 53.6506 85.9013L9.09745 69.8879Z" fill="#AEAEAE"/>
<path d="M50.5787 79.8872L55.168 82.1384C55.2525 82.1798 55.3547 82.1476 55.4001 82.0651L84.8496 28.4681C84.8654 28.4394 84.8728 28.4068 84.8711 28.3741L84.7958 26.9254C84.7915 26.8416 84.7286 26.7725 84.6456 26.7603L78.922 25.9167C78.9083 25.9147 78.8949 25.9111 78.882 25.9059L62.1027 19.1661C62.074 19.1545 62.0488 19.1356 62.0297 19.1113L59.5881 15.9962C59.5386 15.933 59.4526 15.9113 59.379 15.9434L56.1389 17.3558C56.0939 17.3754 56.0427 17.3753 55.9977 17.3556L44.327 12.2349C44.2538 12.2028 44.1682 12.2239 44.1184 12.2864L36.3457 22.0418C36.3383 22.051 36.3301 22.0595 36.321 22.0671L33.1149 24.7533C33.0889 24.7751 33.0697 24.8039 33.0597 24.8364L30.9119 31.7997C30.9048 31.8226 30.8932 31.8438 30.8776 31.8621L21.8868 42.406L17.2847 46.7743C17.2596 46.7981 17.2421 46.8289 17.2343 46.8626L16.0787 51.8931C16.0745 51.9112 16.0675 51.9286 16.0579 51.9445L8.60204 64.331C8.54492 64.4259 8.5885 64.5493 8.69255 64.5873L50.5787 79.8872Z" fill="#B3AB83"/>
<path d="M61.5559 14.4541C60.8037 13.4944 59.4981 13.165 58.3804 13.6522L56.0726 14.6588L45.3317 9.9458C44.2896 9.48856 43.0812 9.74246 42.3111 10.5583L42.163 10.7281L34.539 20.2994L31.5091 22.8371C31.1633 23.1269 30.897 23.4986 30.7341 23.917L30.6707 24.0991L28.6649 30.6036L20.0698 40.6841L15.5634 44.9612C15.1817 45.3235 14.916 45.7907 14.7982 46.3031L13.7252 50.972L6.46045 63.0422C5.71291 64.2845 6.10167 65.8471 7.2349 66.6252L6.57694 69.0107C6.52705 69.1916 6.49924 69.3738 6.48775 69.5544C5.53076 70.9959 6.17345 72.9586 7.80593 73.5497L48.8498 88.4097L53.2533 90.9958C54.2809 91.599 55.5731 91.4464 56.4313 90.6466L56.5972 90.4786L59.7272 87.0011L65.8883 83.2848C66.8445 82.7079 67.3423 81.5975 67.1366 80.4998L66.267 75.8624L78.3848 53.8547L85.663 50.5579C86.8361 50.0266 87.464 48.7354 87.158 47.4844L87.1583 47.4835L85.3107 39.9314L87.0879 36.0959C87.1497 35.9624 87.2004 35.8237 87.2395 35.6819L88.3041 31.8221C88.431 31.362 88.4322 30.876 88.3082 30.4151L87.2657 26.5333C87.1034 25.4582 86.3022 24.5853 85.243 24.3323L85.0102 24.2874L79.5601 23.4831L63.6139 17.0782L61.5559 14.4541Z" stroke="#473434" stroke-width="5"/>
<path d="M51.1374 76.3269C51.3834 76.7603 67.6943 44.4609 76.9757 27.7079C66.4331 23.5207 45.1952 15.1042 44.5837 14.9355C43.9722 14.7669 23.8079 46.8564 13.8022 62.9222C26.9159 67.7272 50.8914 75.8935 51.1374 76.3269Z" fill="#A09B7A"/>
<path d="M49.9175 69.5657C50.1105 69.9056 62.9037 44.572 70.1835 31.432C61.9146 28.1479 45.2569 21.5465 44.7773 21.4142C44.2977 21.2819 28.4821 46.4509 20.6342 59.0519C30.9198 62.8206 49.7246 69.2257 49.9175 69.5657Z" fill="#989375"/>
<path d="M49.0616 64.8198C49.2173 65.0941 59.5412 44.6502 65.4159 34.0465C58.743 31.3962 45.3005 26.069 44.9135 25.9622C44.5264 25.8555 31.7635 46.1665 25.4304 56.3353C33.7307 59.3766 48.9059 64.5454 49.0616 64.8198Z" fill="#878265"/>
<path d="M48.1835 59.9528C48.301 60.1599 56.0928 44.7303 60.5266 36.7272C55.4904 34.727 45.3449 30.7064 45.0528 30.6258C44.7607 30.5452 35.128 45.8746 30.3482 53.5493C36.6128 55.8447 48.066 59.7458 48.1835 59.9528Z" fill="#6C6851"/>
<path d="M9.28923 65.8722L8.70344 64.5128L51.635 80.266L56.386 82.7665L56.3859 84.0168L9.28923 65.8722Z" fill="#8F7D62"/>
<path d="M34.9249 47.3392L31.1368 48.3964C28.4586 49.8059 27.0843 53.2711 26.7319 54.8275L34.9249 53.7703C38.1845 56.9124 45.2675 63.179 47.5228 63.1085C50.3418 63.0204 49.9895 54.7394 49.9895 54.4751C49.9895 54.2636 48.8148 53.9171 48.2275 53.7703L46.4656 52.2726L44.2632 51.656L42.0608 50.9512C41.6496 50.0996 40.7745 48.3612 40.5631 48.2202C40.3517 48.0792 39.7702 47.8091 39.506 47.6916H37.0392L34.9249 47.3392Z" fill="#AEAF68"/>
<path d="M67.0805 36.0629L42.061 27.1651V23.2008L56.8613 18.3555L66.4638 30.7771L67.0805 36.0629Z" fill="#504235"/>
<path d="M44.6158 21.2627L42.061 23.2008L56.9494 18.4436L66.3757 30.689L67.0805 36.151L69.4591 32.2748V28.4866L59.5923 15.8888L44.6158 21.2627Z" fill="#7A614A"/>
<path d="M45.1443 31.6581C44.8623 31.5171 43.8522 30.0723 43.3823 29.3676C43.8228 35.6224 44.2633 35.3581 45.1443 37.032C45.849 38.371 45.7903 39.763 45.6728 40.2915L45.1443 42.9344V43.8154L47.5229 42.5821C47.6991 41.8186 48.6329 40.0625 50.9586 39.1463C54.2711 40.4149 58.9167 38.8526 60.8255 37.9129L60.2969 36.5915L58.8873 35.6224L54.3063 33.3319L52.6325 32.9795L50.0777 32.3628C49.4904 32.1279 48.21 31.6581 47.7872 31.6581C47.2586 31.6581 45.4966 31.8343 45.1443 31.6581Z" fill="#AEAF68"/>
<path d="M31.225 48.2203C27.9555 50.6096 27.1432 53.4768 26.0273 55.7967C31.9886 59.1443 44.7038 66.7735 47.5229 64.1658C51.0468 60.9062 50.4301 51.7442 48.4039 47.3393C46.5878 43.3913 47.4348 40.7321 50.8706 39.1463C52.2214 39.44 59.7684 41.014 64.7018 34.3892C64.0851 24.1699 51.3111 17.2984 43.3824 26.3724C43.3824 26.3724 43.1922 33.4502 44.7038 36.3272C47.4348 41.5249 44.0872 42.3178 41.3562 43.5512C37.1275 45.4609 35.8061 44.8726 31.225 48.2203Z" fill="#D9D9D9" fill-opacity="0.4"/>
<path d="M47.2586 69.8919L21.8867 60.9941L22.2391 57.7346L35.2774 51.6559L46.6419 65.4871L47.2586 69.8919Z" fill="#504235"/>
<path d="M25.0584 55.268L22.2393 57.7347L35.2776 51.7441L46.642 65.4872L47.2587 69.892L49.0207 66.1919L48.4921 62.1395L37.5681 48.2202L25.0584 55.268Z" fill="#7A614A"/>
<circle cx="44.8802" cy="44.6966" r="0.440704" fill="#BFC095"/>
<circle cx="44.8802" cy="44.6966" r="0.440704" fill="#BFC095"/>
<circle cx="43.6468" cy="45.4013" r="0.440704" fill="#BFC095"/>
<circle cx="43.6468" cy="45.4013" r="0.440704" fill="#BFC095"/>
<circle cx="43.823" cy="46.6348" r="0.440704" fill="#BFC095"/>
<circle cx="43.823" cy="46.6348" r="0.440704" fill="#BFC095"/>
<circle cx="44.5284" cy="44.3446" r="0.264774" fill="#BFC095"/>
<circle cx="44.5284" cy="44.3446" r="0.264774" fill="#BFC095"/>
<circle cx="44.7042" cy="43.6397" r="0.264774" fill="#BFC095"/>
<circle cx="44.7042" cy="43.6397" r="0.264774" fill="#BFC095"/>
<circle cx="44.3517" cy="46.2827" r="0.264774" fill="#BFC095"/>
<circle cx="44.3517" cy="46.2827" r="0.264774" fill="#BFC095"/>
<circle cx="46.2897" cy="43.2872" r="0.264774" fill="#BFC095"/>
<circle cx="46.2897" cy="43.2872" r="0.264774" fill="#BFC095"/>
<circle cx="45.0568" cy="42.5825" r="0.264774" fill="#BFC095"/>
<circle cx="45.0568" cy="42.5825" r="0.264774" fill="#BFC095"/>
<circle cx="42.0616" cy="48.2208" r="0.264774" fill="#BFC095"/>
<circle cx="42.0616" cy="48.2208" r="0.264774" fill="#BFC095"/>
<ellipse cx="41.2681" cy="49.3659" rx="0.528845" ry="0.705127" fill="#BFC095"/>
<ellipse cx="41.2681" cy="49.3659" rx="0.528845" ry="0.705127" fill="#BFC095"/>
<ellipse cx="41.2681" cy="49.3659" rx="0.528845" ry="0.705127" fill="#BFC095"/>
<ellipse cx="41.2681" cy="49.3659" rx="0.528845" ry="0.705127" fill="#BFC095"/>
<ellipse cx="41.9732" cy="50.2468" rx="0.528845" ry="0.705127" fill="#BFC095"/>
<ellipse cx="41.9732" cy="50.2468" rx="0.528845" ry="0.705127" fill="#BFC095"/>
<ellipse cx="41.7969" cy="49.3659" rx="0.528845" ry="0.705127" fill="#BFC095"/>
<ellipse cx="41.7969" cy="49.3659" rx="0.528845" ry="0.705127" fill="#BFC095"/>
<ellipse cx="41.7969" cy="48.4848" rx="0.528845" ry="0.705127" fill="#BFC095"/>
<ellipse cx="41.7969" cy="48.4848" rx="0.528845" ry="0.705127" fill="#BFC095"/>
<circle cx="50.2539" cy="35.9748" r="1.23335" fill="#BABB91"/>
<circle cx="50.2539" cy="35.9748" r="1.23335" fill="#BABB91"/>
<circle cx="53.4258" cy="37.2085" r="0.881357" fill="#BABB91"/>
<circle cx="53.4258" cy="37.2085" r="0.881357" fill="#BABB91"/>
<circle cx="47.6113" cy="37.9132" r="0.881357" fill="#BABB91"/>
<circle cx="47.6113" cy="37.9132" r="0.881357" fill="#BABB91"/>
<circle cx="46.3779" cy="35.0941" r="0.881357" fill="#BABB91"/>
<circle cx="46.3779" cy="35.0941" r="0.881357" fill="#BABB91"/>
<circle cx="47.2593" cy="57.1184" r="0.881357" fill="#BABB91"/>
<circle cx="47.2593" cy="57.1184" r="0.881357" fill="#BABB91"/>
<circle cx="45.4971" cy="54.2993" r="0.881357" fill="#BABB91"/>
<circle cx="45.4971" cy="54.2993" r="0.881357" fill="#BABB91"/>
<circle cx="31.0493" cy="49.8944" r="0.881357" fill="#BABB91"/>
<circle cx="31.0493" cy="49.8944" r="0.881357" fill="#BABB91"/>
<ellipse cx="41.7969" cy="48.4848" rx="0.528845" ry="0.705127" fill="#BFC095"/>
<ellipse cx="41.7969" cy="48.4848" rx="0.528845" ry="0.705127" fill="#BFC095"/>
<ellipse cx="42.3257" cy="48.4848" rx="0.528845" ry="0.705127" fill="#BFC095"/>
<ellipse cx="42.3257" cy="48.4848" rx="0.528845" ry="0.705127" fill="#BFC095"/>
<ellipse cx="42.2376" cy="50.6873" rx="0.616986" ry="0.793267" fill="#BFC095"/>
<ellipse cx="42.2376" cy="50.6873" rx="0.616986" ry="0.793267" fill="#BFC095"/>
<ellipse cx="42.9422" cy="51.0397" rx="0.616986" ry="0.793267" fill="#BFC095"/>
<ellipse cx="42.9422" cy="51.0397" rx="0.616986" ry="0.793267" fill="#BFC095"/>
<ellipse cx="42.5895" cy="49.9826" rx="0.419809" ry="0.539755" transform="rotate(15 42.5895 49.9826)" fill="#BFC095"/>
<ellipse cx="42.5895" cy="49.9826" rx="0.419809" ry="0.539755" transform="rotate(15 42.5895 49.9826)" fill="#BFC095"/>
<ellipse cx="42.5182" cy="49.2908" rx="0.419809" ry="0.539755" transform="rotate(15 42.5182 49.2908)" fill="#BFC095"/>
<ellipse cx="42.5182" cy="49.2908" rx="0.419809" ry="0.539755" transform="rotate(15 42.5182 49.2908)" fill="#BFC095"/>
<ellipse cx="41.1081" cy="48.5861" rx="0.419809" ry="0.539755" transform="rotate(15 41.1081 48.5861)" fill="#BFC095"/>
<ellipse cx="41.1081" cy="48.5861" rx="0.419809" ry="0.539755" transform="rotate(15 41.1081 48.5861)" fill="#BFC095"/>
<ellipse cx="42.8703" cy="48.4097" rx="0.419809" ry="0.539755" transform="rotate(15 42.8703 48.4097)" fill="#BFC095"/>
<ellipse cx="42.8703" cy="48.4097" rx="0.419809" ry="0.539755" transform="rotate(15 42.8703 48.4097)" fill="#BFC095"/>
<ellipse cx="42.2376" cy="50.6873" rx="0.616986" ry="0.793267" fill="#BFC095"/>
<ellipse cx="42.2376" cy="50.6873" rx="0.616986" ry="0.793267" fill="#BFC095"/>
<path d="M63.6562 75.5044C63.6487 75.4642 63.6554 75.4227 63.6751 75.3869L76.5665 51.9718C76.5849 51.9385 76.6135 51.912 76.6482 51.8963L84.6317 48.2807C84.7089 48.2458 84.7503 48.1607 84.7301 48.0784L82.6881 39.735C82.6786 39.6962 82.6826 39.6553 82.6994 39.619L84.8192 35.0445C84.8233 35.0357 84.8266 35.0266 84.8292 35.0173L85.8939 31.157C85.9022 31.1267 85.9023 31.0948 85.8942 31.0644L84.8421 27.1532C84.8073 27.024 84.6468 26.9792 84.5501 27.0717L78.9346 32.4428C78.8848 32.4903 78.8119 32.5046 78.7479 32.4793L44.2854 18.8394C44.2088 18.8091 44.1214 18.8359 44.075 18.9039L8.57147 70.9335C8.5066 71.0286 8.54881 71.1593 8.65703 71.1985L49.901 86.1319C49.9111 86.1356 49.9209 86.1402 49.9302 86.1456L54.5189 88.8399C54.591 88.8823 54.6831 88.868 54.739 88.8058L58.0999 85.0717C58.1115 85.0588 58.1249 85.0476 58.1398 85.0387L64.597 81.1436C64.66 81.1057 64.6928 81.0326 64.6792 80.9603L63.6562 75.5044Z" fill="#8F7D62"/>
<path d="M9.09745 69.8879C9.01075 69.8568 8.9627 69.7641 8.98719 69.6753L10.3919 64.5821C10.4194 64.4827 10.5259 64.428 10.6227 64.4636L52.9652 80.0518C52.9898 80.0609 53.0117 80.0755 53.0315 80.0926C53.3857 80.3986 54.9686 81.0769 55.1756 82.1271C55.38 83.165 54.4404 85.142 53.8343 85.8554C53.7893 85.9085 53.7161 85.9248 53.6506 85.9013L9.09745 69.8879Z" fill="#AEAEAE"/>
<path d="M50.5787 79.8872L55.168 82.1384C55.2525 82.1798 55.3547 82.1476 55.4001 82.0651L84.8496 28.4681C84.8654 28.4394 84.8728 28.4068 84.8711 28.3741L84.7958 26.9254C84.7915 26.8416 84.7286 26.7725 84.6456 26.7603L78.922 25.9167C78.9083 25.9147 78.8949 25.9111 78.882 25.9059L62.1027 19.1661C62.074 19.1545 62.0488 19.1356 62.0297 19.1113L59.5881 15.9962C59.5386 15.933 59.4526 15.9113 59.379 15.9434L56.1389 17.3558C56.0939 17.3754 56.0427 17.3753 55.9977 17.3556L44.327 12.2349C44.2538 12.2028 44.1682 12.2239 44.1184 12.2864L36.3457 22.0418C36.3383 22.051 36.3301 22.0595 36.321 22.0671L33.1149 24.7533C33.0889 24.7751 33.0697 24.8039 33.0597 24.8364L30.9119 31.7997C30.9048 31.8226 30.8932 31.8438 30.8776 31.8621L21.8868 42.406L17.2847 46.7743C17.2596 46.7981 17.2421 46.8289 17.2343 46.8626L16.0787 51.8931C16.0745 51.9112 16.0675 51.9286 16.0579 51.9445L8.60204 64.331C8.54492 64.4259 8.5885 64.5493 8.69255 64.5873L50.5787 79.8872Z" fill="#B3AB83"/>
<path d="M60.8682 14.7841C60.3495 14.2264 59.5495 14.0245 58.8282 14.269L58.6751 14.3281L56.0717 15.4629L45.0349 10.6217C44.2802 10.2905 43.4048 10.4739 42.8471 11.0647L42.7401 11.1882L35.067 20.8199L31.9832 23.4025C31.6969 23.6424 31.4865 23.9602 31.3764 24.3171L29.3255 30.9672L20.6104 41.1888L16.0722 45.4966C15.8302 45.7262 15.6523 46.0134 15.5545 46.3303L15.5175 46.468L14.4176 51.2531L7.09215 63.4221C6.46387 64.466 6.94346 65.8245 8.08805 66.2425L8.10473 66.2481L7.28864 69.207C7.23545 69.3999 7.2152 69.5944 7.22137 69.7851L7.11575 69.9404C6.40221 70.9862 6.867 72.4242 8.05725 72.8552L49.1627 87.7382L53.6265 90.3592C54.4202 90.8253 55.4327 90.6689 56.0485 89.9849L59.2504 86.4269L65.5074 82.6529L65.5077 82.652C66.1997 82.2342 66.56 81.4307 66.4112 80.6361L65.4939 75.7383L77.8556 53.2833L85.3582 49.8853C86.2079 49.5005 86.6629 48.5655 86.4412 47.6595L84.5324 39.8555L86.4178 35.7855C86.4626 35.6888 86.4995 35.5883 86.5278 35.4856L87.5924 31.6258C87.6843 31.2926 87.6857 30.9404 87.5959 30.6066L86.5432 26.6957L86.5426 26.6905C86.4416 25.8907 85.8536 25.2367 85.0714 25.0498L84.9021 25.0173L79.3653 24.2003L63.1544 17.6899L60.9744 14.9096L60.8682 14.7841Z" stroke="#473434" stroke-width="3.52387"/>
<path d="M51.1374 76.3269C51.3834 76.7603 67.6943 44.4609 76.9757 27.7079C66.4331 23.5207 45.1952 15.1042 44.5837 14.9355C43.9722 14.7669 23.8079 46.8564 13.8022 62.9222C26.9159 67.7272 50.8914 75.8935 51.1374 76.3269Z" fill="#A09B7A"/>
<path d="M49.9175 69.5657C50.1105 69.9056 62.9037 44.572 70.1835 31.432C61.9146 28.1479 45.2569 21.5465 44.7773 21.4142C44.2977 21.2819 28.4821 46.4509 20.6342 59.0519C30.9198 62.8206 49.7246 69.2257 49.9175 69.5657Z" fill="#989375"/>
<path d="M49.0616 64.8198C49.2173 65.0941 59.5412 44.6502 65.4159 34.0465C58.743 31.3962 45.3005 26.069 44.9135 25.9622C44.5264 25.8555 31.7635 46.1665 25.4304 56.3353C33.7307 59.3766 48.9059 64.5454 49.0616 64.8198Z" fill="#878265"/>
<path d="M48.1835 59.9528C48.301 60.1599 56.0928 44.7303 60.5266 36.7272C55.4904 34.727 45.3449 30.7064 45.0528 30.6258C44.7607 30.5452 35.128 45.8746 30.3482 53.5493C36.6128 55.8447 48.066 59.7458 48.1835 59.9528Z" fill="#6C6851"/>
<path d="M9.28923 65.8722L8.70344 64.5128L51.635 80.266L56.386 82.7665L56.3859 84.0168L9.28923 65.8722Z" fill="#8F7D62"/>
<path d="M34.9249 47.3392L31.1368 48.3964C28.4586 49.8059 27.0843 53.2711 26.7319 54.8275L34.9249 53.7703C38.1845 56.9124 45.2675 63.179 47.5228 63.1085C50.3418 63.0204 49.9895 54.7394 49.9895 54.4751C49.9895 54.2636 48.8148 53.9171 48.2275 53.7703L46.4656 52.2726L44.2632 51.656L42.0608 50.9512C41.6496 50.0996 40.7745 48.3612 40.5631 48.2202C40.3517 48.0792 39.7702 47.8091 39.506 47.6916H37.0392L34.9249 47.3392Z" fill="#AEAF68"/>
<path d="M67.0805 36.0629L42.061 27.1651V23.2008L56.8613 18.3555L66.4638 30.7771L67.0805 36.0629Z" fill="#504235"/>
<path d="M44.6158 21.2627L42.061 23.2008L56.9494 18.4436L66.3757 30.689L67.0805 36.151L69.4591 32.2748V28.4866L59.5923 15.8888L44.6158 21.2627Z" fill="#7A614A"/>
<path d="M45.1443 31.6581C44.8623 31.5171 43.8522 30.0723 43.3823 29.3676C43.8228 35.6224 44.2633 35.3581 45.1443 37.032C45.849 38.371 45.7903 39.763 45.6728 40.2915L45.1443 42.9344V43.8154L47.5229 42.5821C47.6991 41.8186 48.6329 40.0625 50.9586 39.1463C54.2711 40.4149 58.9167 38.8526 60.8255 37.9129L60.2969 36.5915L58.8873 35.6224L54.3063 33.3319L52.6325 32.9795L50.0777 32.3628C49.4904 32.1279 48.21 31.6581 47.7872 31.6581C47.2586 31.6581 45.4966 31.8343 45.1443 31.6581Z" fill="#AEAF68"/>
<path d="M31.225 48.2203C27.9555 50.6096 27.1432 53.4768 26.0273 55.7967C31.9886 59.1443 44.7038 66.7735 47.5229 64.1658C51.0468 60.9062 50.4301 51.7442 48.4039 47.3393C46.5878 43.3913 47.4348 40.7321 50.8706 39.1463C52.2214 39.44 59.7684 41.014 64.7018 34.3892C64.0851 24.1699 51.3111 17.2984 43.3824 26.3724C43.3824 26.3724 43.1922 33.4502 44.7038 36.3272C47.4348 41.5249 44.0872 42.3178 41.3562 43.5512C37.1275 45.4609 35.8061 44.8726 31.225 48.2203Z" fill="#D9D9D9" fill-opacity="0.4"/>
<path d="M47.2586 69.8919L21.8867 60.9941L22.2391 57.7346L35.2774 51.6559L46.6419 65.4871L47.2586 69.8919Z" fill="#504235"/>
<path d="M25.0584 55.268L22.2393 57.7347L35.2776 51.7441L46.642 65.4872L47.2587 69.892L49.0207 66.1919L48.4921 62.1395L37.5681 48.2202L25.0584 55.268Z" fill="#7A614A"/>
<circle cx="44.8802" cy="44.6966" r="0.440704" fill="#BFC095"/>
<circle cx="44.8802" cy="44.6966" r="0.440704" fill="#BFC095"/>
<circle cx="43.6468" cy="45.4013" r="0.440704" fill="#BFC095"/>
<circle cx="43.6468" cy="45.4013" r="0.440704" fill="#BFC095"/>
<circle cx="43.823" cy="46.6348" r="0.440704" fill="#BFC095"/>
<circle cx="43.823" cy="46.6348" r="0.440704" fill="#BFC095"/>
<circle cx="44.5284" cy="44.3446" r="0.264774" fill="#BFC095"/>
<circle cx="44.5284" cy="44.3446" r="0.264774" fill="#BFC095"/>
<circle cx="44.7042" cy="43.6397" r="0.264774" fill="#BFC095"/>
<circle cx="44.7042" cy="43.6397" r="0.264774" fill="#BFC095"/>
<circle cx="44.3517" cy="46.2827" r="0.264774" fill="#BFC095"/>
<circle cx="44.3517" cy="46.2827" r="0.264774" fill="#BFC095"/>
<circle cx="46.2897" cy="43.2872" r="0.264774" fill="#BFC095"/>
<circle cx="46.2897" cy="43.2872" r="0.264774" fill="#BFC095"/>
<circle cx="45.0568" cy="42.5825" r="0.264774" fill="#BFC095"/>
<circle cx="45.0568" cy="42.5825" r="0.264774" fill="#BFC095"/>
<circle cx="42.0616" cy="48.2208" r="0.264774" fill="#BFC095"/>
<circle cx="42.0616" cy="48.2208" r="0.264774" fill="#BFC095"/>
<ellipse cx="41.2681" cy="49.3659" rx="0.528845" ry="0.705127" fill="#BFC095"/>
<ellipse cx="41.2681" cy="49.3659" rx="0.528845" ry="0.705127" fill="#BFC095"/>
<ellipse cx="41.2681" cy="49.3659" rx="0.528845" ry="0.705127" fill="#BFC095"/>
<ellipse cx="41.2681" cy="49.3659" rx="0.528845" ry="0.705127" fill="#BFC095"/>
<ellipse cx="41.9732" cy="50.2468" rx="0.528845" ry="0.705127" fill="#BFC095"/>
<ellipse cx="41.9732" cy="50.2468" rx="0.528845" ry="0.705127" fill="#BFC095"/>
<ellipse cx="41.7969" cy="49.3659" rx="0.528845" ry="0.705127" fill="#BFC095"/>
<ellipse cx="41.7969" cy="49.3659" rx="0.528845" ry="0.705127" fill="#BFC095"/>
<ellipse cx="41.7969" cy="48.4848" rx="0.528845" ry="0.705127" fill="#BFC095"/>
<ellipse cx="41.7969" cy="48.4848" rx="0.528845" ry="0.705127" fill="#BFC095"/>
<circle cx="50.2539" cy="35.9748" r="1.23335" fill="#BABB91"/>
<circle cx="50.2539" cy="35.9748" r="1.23335" fill="#BABB91"/>
<circle cx="53.4258" cy="37.2085" r="0.881357" fill="#BABB91"/>
<circle cx="53.4258" cy="37.2085" r="0.881357" fill="#BABB91"/>
<circle cx="47.6113" cy="37.9132" r="0.881357" fill="#BABB91"/>
<circle cx="47.6113" cy="37.9132" r="0.881357" fill="#BABB91"/>
<circle cx="46.3779" cy="35.0941" r="0.881357" fill="#BABB91"/>
<circle cx="46.3779" cy="35.0941" r="0.881357" fill="#BABB91"/>
<circle cx="47.2593" cy="57.1184" r="0.881357" fill="#BABB91"/>
<circle cx="47.2593" cy="57.1184" r="0.881357" fill="#BABB91"/>
<circle cx="45.4971" cy="54.2993" r="0.881357" fill="#BABB91"/>
<circle cx="45.4971" cy="54.2993" r="0.881357" fill="#BABB91"/>
<circle cx="31.0493" cy="49.8944" r="0.881357" fill="#BABB91"/>
<circle cx="31.0493" cy="49.8944" r="0.881357" fill="#BABB91"/>
<ellipse cx="41.7969" cy="48.4848" rx="0.528845" ry="0.705127" fill="#BFC095"/>
<ellipse cx="41.7969" cy="48.4848" rx="0.528845" ry="0.705127" fill="#BFC095"/>
<ellipse cx="42.3257" cy="48.4848" rx="0.528845" ry="0.705127" fill="#BFC095"/>
<ellipse cx="42.3257" cy="48.4848" rx="0.528845" ry="0.705127" fill="#BFC095"/>
<ellipse cx="42.2376" cy="50.6873" rx="0.616986" ry="0.793267" fill="#BFC095"/>
<ellipse cx="42.2376" cy="50.6873" rx="0.616986" ry="0.793267" fill="#BFC095"/>
<ellipse cx="42.9422" cy="51.0397" rx="0.616986" ry="0.793267" fill="#BFC095"/>
<ellipse cx="42.9422" cy="51.0397" rx="0.616986" ry="0.793267" fill="#BFC095"/>
<ellipse cx="42.5895" cy="49.9826" rx="0.419809" ry="0.539755" transform="rotate(15 42.5895 49.9826)" fill="#BFC095"/>
<ellipse cx="42.5895" cy="49.9826" rx="0.419809" ry="0.539755" transform="rotate(15 42.5895 49.9826)" fill="#BFC095"/>
<ellipse cx="42.5182" cy="49.2908" rx="0.419809" ry="0.539755" transform="rotate(15 42.5182 49.2908)" fill="#BFC095"/>
<ellipse cx="42.5182" cy="49.2908" rx="0.419809" ry="0.539755" transform="rotate(15 42.5182 49.2908)" fill="#BFC095"/>
<ellipse cx="41.1081" cy="48.5861" rx="0.419809" ry="0.539755" transform="rotate(15 41.1081 48.5861)" fill="#BFC095"/>
<ellipse cx="41.1081" cy="48.5861" rx="0.419809" ry="0.539755" transform="rotate(15 41.1081 48.5861)" fill="#BFC095"/>
<ellipse cx="42.8703" cy="48.4097" rx="0.419809" ry="0.539755" transform="rotate(15 42.8703 48.4097)" fill="#BFC095"/>
<ellipse cx="42.8703" cy="48.4097" rx="0.419809" ry="0.539755" transform="rotate(15 42.8703 48.4097)" fill="#BFC095"/>
<ellipse cx="42.2376" cy="50.6873" rx="0.616986" ry="0.793267" fill="#BFC095"/>
<ellipse cx="42.2376" cy="50.6873" rx="0.616986" ry="0.793267" fill="#BFC095"/>
</svg>
