<svg width="200" height="200" viewBox="0 0 200 200" fill="none" xmlns="http://www.w3.org/2000/svg">
<mask id="path-1-inside-1_1207_2" fill="white">
<path d="M123.036 63.1638L126.722 63.5027C133.081 63.0668 142.694 66.7884 151.764 73.7429C164.544 83.5422 171.407 96.048 167.093 101.675C164.344 105.259 157.723 105.186 149.975 102.128L149.836 111.037L149.342 116.401L148.518 120.632L147.36 124.177L145.863 127.21L144.017 129.808L141.808 132.017L139.21 133.863L136.178 135.36L132.632 136.518L128.401 137.342L123.036 137.836L112.5 138H87.5002L76.9631 137.836L71.5988 137.342L67.3674 136.518L63.8215 135.36L60.7903 133.863L58.1916 132.017L55.9826 129.808L54.1369 127.21L52.6399 124.177L51.4817 120.632L50.6574 116.401L50.1643 111.037L50.1154 107.901C43.821 111.211 38.2353 111.89 35.2561 109.117C30.0664 104.286 34.7547 90.814 45.7278 79.0261C50.3289 74.0833 55.3038 70.2207 59.9133 67.7585L60.7903 67.1365L63.8215 65.6404L67.3674 64.4822L71.5988 63.658L76.9631 63.1638L87.5002 62.9998H112.5L123.036 63.1638Z"/>
</mask>
<path d="M123.036 63.1638L126.722 63.5027C133.081 63.0668 142.694 66.7884 151.764 73.7429C164.544 83.5422 171.407 96.048 167.093 101.675C164.344 105.259 157.723 105.186 149.975 102.128L149.836 111.037L149.342 116.401L148.518 120.632L147.36 124.177L145.863 127.21L144.017 129.808L141.808 132.017L139.21 133.863L136.178 135.36L132.632 136.518L128.401 137.342L123.036 137.836L112.5 138H87.5002L76.9631 137.836L71.5988 137.342L67.3674 136.518L63.8215 135.36L60.7903 133.863L58.1916 132.017L55.9826 129.808L54.1369 127.21L52.6399 124.177L51.4817 120.632L50.6574 116.401L50.1643 111.037L50.1154 107.901C43.821 111.211 38.2353 111.89 35.2561 109.117C30.0664 104.286 34.7547 90.814 45.7278 79.0261C50.3289 74.0833 55.3038 70.2207 59.9133 67.7585L60.7903 67.1365L63.8215 65.6404L67.3674 64.4822L71.5988 63.658L76.9631 63.1638L87.5002 62.9998H112.5L123.036 63.1638Z" fill="#F5EED5"/>
<path d="M123.036 63.1638L123.586 57.189L123.358 57.1681L123.13 57.1645L123.036 63.1638ZM126.722 63.5027L126.173 69.4775L126.652 69.5216L127.132 69.4886L126.722 63.5027ZM151.764 73.7429L155.415 68.9815V68.9815L151.764 73.7429ZM167.093 101.675L171.854 105.326L171.854 105.325L167.093 101.675ZM149.975 102.128L152.177 96.5466L144.111 93.3631L143.976 102.034L149.975 102.128ZM149.836 111.037L155.811 111.587L155.832 111.359L155.835 111.13L149.836 111.037ZM149.342 116.401L155.231 117.549L155.289 117.252L155.317 116.951L149.342 116.401ZM148.518 120.632L154.221 122.495L154.336 122.142L154.407 121.779L148.518 120.632ZM147.36 124.177L152.74 126.834L152.93 126.449L153.063 126.04L147.36 124.177ZM145.863 127.21L150.754 130.684L151.031 130.294L151.243 129.866L145.863 127.21ZM144.017 129.808L148.259 134.051L148.616 133.694L148.909 133.283L144.017 129.808ZM141.808 132.017L145.283 136.908L145.694 136.616L146.05 136.26L141.808 132.017ZM139.21 133.863L141.866 139.243L142.295 139.031L142.685 138.754L139.21 133.863ZM136.178 135.36L138.041 141.064L138.449 140.93L138.834 140.74L136.178 135.36ZM132.632 136.518L133.778 142.408L134.142 142.337L134.495 142.222L132.632 136.518ZM128.401 137.342L128.951 143.316L129.251 143.289L129.546 143.231L128.401 137.342ZM123.036 137.836L123.13 143.835L123.359 143.831L123.587 143.81L123.036 137.836ZM112.5 138V144H112.547L112.594 143.999L112.5 138ZM87.5002 138L87.4068 143.999L87.4535 144H87.5002V138ZM76.9631 137.836L76.4127 143.81L76.6407 143.831L76.8697 143.835L76.9631 137.836ZM71.5988 137.342L70.453 143.231L70.7486 143.289L71.0485 143.316L71.5988 137.342ZM67.3674 136.518L65.5045 142.222L65.8573 142.337L66.2216 142.408L67.3674 136.518ZM63.8215 135.36L61.1646 140.74L61.55 140.93L61.9586 141.064L63.8215 135.36ZM60.7903 133.863L57.3159 138.755L57.7052 139.031L58.1333 139.243L60.7903 133.863ZM58.1916 132.017L53.949 136.26L54.3058 136.617L54.7172 136.909L58.1916 132.017ZM55.9826 129.808L51.0909 133.283L51.3832 133.694L51.74 134.051L55.9826 129.808ZM54.1369 127.21L48.7569 129.866L48.9685 130.294L49.2452 130.684L54.1369 127.21ZM52.6399 124.177L46.9364 126.04L47.0697 126.449L47.2599 126.834L52.6399 124.177ZM51.4817 120.632L45.5924 121.779L45.6632 122.142L45.7782 122.495L51.4817 120.632ZM50.6574 116.401L44.6826 116.95L44.7103 117.252L44.7682 117.549L50.6574 116.401ZM50.1643 111.037L44.165 111.13L44.1686 111.359L44.1895 111.586L50.1643 111.037ZM50.1154 107.901L56.1147 107.808L55.9627 98.0472L47.3228 102.591L50.1154 107.901ZM35.2561 109.117L31.1679 113.509L31.1682 113.509L35.2561 109.117ZM45.7278 79.0261L41.336 74.938V74.938L45.7278 79.0261ZM59.9133 67.7585L62.7402 73.0509L63.0751 72.872L63.3847 72.6523L59.9133 67.7585ZM60.7903 67.1365L58.1347 61.7561L57.7075 61.967L57.3188 62.2427L60.7903 67.1365ZM63.8215 65.6404L61.9586 59.9369L61.5507 60.0701L61.166 60.26L63.8215 65.6404ZM67.3674 64.4822L66.2203 58.5929L65.8566 58.6637L65.5045 58.7787L67.3674 64.4822ZM71.5988 63.658L71.0485 57.6833L70.7479 57.7109L70.4517 57.7686L71.5988 63.658ZM76.9631 63.1638L76.8697 57.1645L76.6407 57.1681L76.4127 57.1891L76.9631 63.1638ZM87.5002 62.9998V56.9998H87.4535L87.4068 57.0005L87.5002 62.9998ZM112.5 62.9998L112.594 57.0005L112.547 56.9998H112.5V62.9998ZM123.036 63.1638L122.487 69.1386L126.173 69.4775L126.722 63.5027L127.271 57.5279L123.586 57.189L123.036 63.1638ZM126.722 63.5027L127.132 69.4886C129.078 69.3553 132.122 69.8606 135.984 71.4167C139.761 72.9384 143.963 75.3223 148.113 78.5044L151.764 73.7429L155.415 68.9815C150.495 65.2091 145.355 62.2549 140.468 60.2861C135.667 58.3517 130.725 57.2142 126.312 57.5167L126.722 63.5027ZM151.764 73.7429L148.113 78.5044C154.002 83.0195 158.292 87.9927 160.579 92.1602C161.727 94.2519 162.23 95.8847 162.352 96.9805C162.47 98.0354 162.21 98.182 162.332 98.0237L167.093 101.675L171.854 105.325C174.133 102.354 174.633 98.8272 174.278 95.6486C173.928 92.5109 172.725 89.3498 171.099 86.3869C167.838 80.445 162.306 74.2656 155.415 68.9815L151.764 73.7429ZM167.093 101.675L162.332 98.0234C162.501 97.8024 162.293 98.361 160.313 98.3926C158.385 98.4235 155.6 97.8972 152.177 96.5466L149.975 102.128L147.772 107.709C152.098 109.416 156.498 110.455 160.505 110.391C164.46 110.328 168.936 109.131 171.854 105.326L167.093 101.675ZM149.975 102.128L143.976 102.034L143.837 110.943L149.836 111.037L155.835 111.13L155.974 102.221L149.975 102.128ZM149.836 111.037L143.861 110.486L143.367 115.851L149.342 116.401L155.317 116.951L155.811 111.587L149.836 111.037ZM149.342 116.401L143.453 115.254L142.629 119.484L148.518 120.632L154.407 121.779L155.231 117.549L149.342 116.401ZM148.518 120.632L142.814 118.769L141.656 122.315L147.36 124.177L153.063 126.04L154.221 122.495L148.518 120.632ZM147.36 124.177L141.98 121.521L140.483 124.554L145.863 127.21L151.243 129.866L152.74 126.834L147.36 124.177ZM145.863 127.21L140.971 123.735L139.125 126.334L144.017 129.808L148.909 133.283L150.754 130.684L145.863 127.21ZM144.017 129.808L139.774 125.566L137.565 127.775L141.808 132.017L146.05 136.26L148.259 134.051L144.017 129.808ZM141.808 132.017L138.333 127.126L135.735 128.972L139.21 133.863L142.685 138.754L145.283 136.908L141.808 132.017ZM139.21 133.863L136.554 128.483L133.522 129.98L136.178 135.36L138.834 140.74L141.866 139.243L139.21 133.863ZM136.178 135.36L134.315 129.657L130.769 130.815L132.632 136.518L134.495 142.222L138.041 141.064L136.178 135.36ZM132.632 136.518L131.486 130.629L127.255 131.452L128.401 137.342L129.546 143.231L133.778 142.408L132.632 136.518ZM128.401 137.342L127.85 131.367L122.486 131.861L123.036 137.836L123.587 143.81L128.951 143.316L128.401 137.342ZM123.036 137.836L122.943 131.836L112.407 132L112.5 138L112.594 143.999L123.13 143.835L123.036 137.836ZM112.5 138V132H87.5002V138V144H112.5V138ZM87.5002 138L87.5936 132L77.0565 131.836L76.9631 137.836L76.8697 143.835L87.4068 143.999L87.5002 138ZM76.9631 137.836L77.5135 131.861L72.1492 131.367L71.5988 137.342L71.0485 143.316L76.4127 143.81L76.9631 137.836ZM71.5988 137.342L72.7447 131.452L68.5132 130.629L67.3674 136.518L66.2216 142.408L70.453 143.231L71.5988 137.342ZM67.3674 136.518L69.2303 130.815L65.6844 129.657L63.8215 135.36L61.9586 141.064L65.5045 142.222L67.3674 136.518ZM63.8215 135.36L66.4784 129.98L63.4472 128.483L60.7903 133.863L58.1333 139.243L61.1646 140.74L63.8215 135.36ZM60.7903 133.863L64.2646 128.971L61.666 127.126L58.1916 132.017L54.7172 136.909L57.3159 138.755L60.7903 133.863ZM58.1916 132.017L62.4343 127.775L60.2253 125.566L55.9826 129.808L51.74 134.051L53.949 136.26L58.1916 132.017ZM55.9826 129.808L60.8743 126.334L59.0286 123.735L54.1369 127.21L49.2452 130.684L51.0909 133.283L55.9826 129.808ZM54.1369 127.21L59.5169 124.554L58.0199 121.521L52.6399 124.177L47.2599 126.834L48.7569 129.866L54.1369 127.21ZM52.6399 124.177L58.3433 122.315L57.1851 118.769L51.4817 120.632L45.7782 122.495L46.9364 126.04L52.6399 124.177ZM51.4817 120.632L57.3709 119.484L56.5467 115.254L50.6574 116.401L44.7682 117.549L45.5924 121.779L51.4817 120.632ZM50.6574 116.401L56.6322 115.852L56.1391 110.488L50.1643 111.037L44.1895 111.586L44.6826 116.95L50.6574 116.401ZM50.1643 111.037L56.1635 110.943L56.1147 107.808L50.1154 107.901L44.1162 107.995L44.165 111.13L50.1643 111.037ZM50.1154 107.901L47.3228 102.591C44.6057 104.019 42.4103 104.675 40.8889 104.816C39.3704 104.956 39.1652 104.559 39.3439 104.725L35.2561 109.117L31.1682 113.509C34.3262 116.448 38.4034 117.097 41.9962 116.765C45.5861 116.432 49.3307 115.093 52.9081 113.212L50.1154 107.901ZM35.2561 109.117L39.3442 104.725C39.4902 104.861 39.2097 104.76 39.1505 103.7C39.089 102.599 39.3134 100.906 40.0976 98.6524C41.6599 94.1629 45.0634 88.5458 50.1195 83.1143L45.7278 79.0261L41.336 74.938C35.419 81.2944 30.9918 88.3072 28.7642 94.7084C27.6534 97.9003 26.993 101.217 27.1691 104.37C27.3476 107.563 28.4271 110.957 31.1679 113.509L35.2561 109.117ZM45.7278 79.0261L50.1195 83.1143C54.3408 78.5795 58.8013 75.1548 62.7402 73.0509L59.9133 67.7585L57.0864 62.4662C51.8062 65.2867 46.3169 69.5872 41.336 74.938L45.7278 79.0261ZM59.9133 67.7585L63.3847 72.6523L64.2617 72.0303L60.7903 67.1365L57.3188 62.2427L56.4419 62.8648L59.9133 67.7585ZM60.7903 67.1365L63.4458 72.5168L66.477 71.0207L63.8215 65.6404L61.166 60.26L58.1347 61.7561L60.7903 67.1365ZM63.8215 65.6404L65.6844 71.3438L69.2303 70.1856L67.3674 64.4822L65.5045 58.7787L61.9586 59.9369L63.8215 65.6404ZM67.3674 64.4822L68.5145 70.3715L72.746 69.5473L71.5988 63.658L70.4517 57.7686L66.2203 58.5929L67.3674 64.4822ZM71.5988 63.658L72.1492 69.6327L77.5135 69.1385L76.9631 63.1638L76.4127 57.1891L71.0485 57.6833L71.5988 63.658ZM76.9631 63.1638L77.0565 69.1631L87.5936 68.999L87.5002 62.9998L87.4068 57.0005L76.8697 57.1645L76.9631 63.1638ZM87.5002 62.9998V68.9998H112.5V62.9998V56.9998H87.5002V62.9998ZM112.5 62.9998L112.407 68.999L122.943 69.1631L123.036 63.1638L123.13 57.1645L112.594 57.0005L112.5 62.9998Z" fill="#9A9988" mask="url(#path-1-inside-1_1207_2)"/>
<circle cx="80" cy="114" r="11" fill="#4D3B3B"/>
<circle cx="120" cy="114" r="11" fill="#4D3B3B"/>
</svg>
