<svg width="500" height="500" viewBox="0 0 500 500" fill="none" xmlns="http://www.w3.org/2000/svg">
<g clip-path="url(#clip0_331_54)">
<path d="M385 150.511H115.279C66.2698 150.511 22.7014 183.346 17.718 232.101C13.2862 275.459 13.7053 327.157 32.2991 363.52C108.39 512.327 391.889 512.327 467.979 363.52C486.573 327.157 486.992 275.459 482.56 232.1C477.577 183.346 434.008 150.511 385 150.511Z" fill="#F5EED5" stroke="#9A9988" stroke-width="22.0077"/>
<path d="M166.599 41.5916C171.151 44.2003 175.048 49.164 177.49 57.5029C179.955 65.9146 180.697 77.0759 179.272 90.5034C176.426 117.325 165.157 151.063 145.712 184.988C126.267 218.914 102.852 245.689 81.1472 261.702C70.2814 269.719 60.2754 274.72 51.7718 276.845C43.3416 278.952 37.0886 278.099 32.5372 275.49C27.9858 272.882 24.0886 267.917 21.6457 259.578C19.1817 251.166 18.4398 240.005 19.8649 226.578C22.7116 199.756 33.9802 166.018 53.425 132.093C72.8699 98.1673 96.285 71.3918 117.99 55.3787C128.856 47.3623 138.861 42.3611 147.364 40.2358C155.795 38.1287 162.048 38.9829 166.599 41.5916Z" fill="#F5EED5" stroke="#9A9988" stroke-width="22.0077"/>
<path d="M333.308 41.5916C328.757 44.2003 324.86 49.164 322.417 57.5029C319.953 65.9146 319.21 77.0759 320.635 90.5034C323.482 117.325 334.75 151.063 354.195 184.988C373.64 218.914 397.055 245.689 418.76 261.702C429.626 269.719 439.632 274.72 448.135 276.845C456.566 278.952 462.819 278.099 467.37 275.49C471.921 272.882 475.819 267.917 478.261 259.578C480.726 251.166 481.467 240.005 480.042 226.578C477.196 199.756 465.927 166.018 446.482 132.093C427.037 98.1673 403.622 71.3918 381.917 55.3787C371.052 47.3623 361.046 42.3611 352.543 40.2358C344.113 38.1287 337.859 38.9829 333.308 41.5916Z" fill="#F5EED5" stroke="#9A9988" stroke-width="22.0077"/>
<path d="M30.357 222.036C24.851 270.636 26.6884 286.225 26.6884 286.225C61.2283 294.478 132.146 308.966 143.15 308.233C154.154 307.499 470.216 344.912 472.967 299.98C475.718 255.047 464.715 205.53 464.715 205.53L372.099 161.515H143.769C137.961 161.209 125.361 159.681 123.893 159.681C122.426 159.681 35.863 173.435 30.357 222.036Z" fill="#F5EED5"/>
<circle cx="148.353" cy="360.502" r="48.6004" fill="black"/>
<circle cx="129.097" cy="343.079" r="20.1737" fill="white"/>
<circle cx="351.925" cy="360.501" r="48.6004" fill="black"/>
<circle cx="332.668" cy="343.079" r="20.1737" fill="white"/>
</g>
<defs>
<clipPath id="clip0_331_54">
<rect width="500" height="500" fill="white"/>
</clipPath>
</defs>
</svg>
