<svg width="200" height="200" viewBox="0 0 200 200" fill="none" xmlns="http://www.w3.org/2000/svg">
<mask id="path-1-inside-1_1204_5" fill="white">
<path d="M116.138 43.3834C122.289 39.8577 133.768 48.327 141.776 62.2994C145.521 68.8336 147.844 75.4141 148.627 80.9293L149.342 84.5992L149.836 89.9625L150 100.5L149.836 111.037L149.342 116.401L148.518 120.631L147.36 124.178L145.863 127.21L144.017 129.808L141.808 132.017L139.21 133.863L136.178 135.36L132.632 136.518L128.401 137.342L123.037 137.836L112.5 138H87.5L76.9629 137.836L71.5986 137.342L67.3682 136.518L63.8223 135.36L60.79 133.863L58.1924 132.017L55.9834 129.808L54.1367 127.21L52.6396 124.178L51.4824 120.631L50.6582 116.401L50.1641 111.037L50 100.5L50.1641 89.9625L50.6582 84.5992L51.4824 80.3678L52.0586 78.5992C53.0969 73.6071 55.2703 67.9361 58.501 62.2994C66.5094 48.3271 77.9883 39.8587 84.1396 43.3844C88.4909 45.879 89.0092 53.7071 86.1055 63.0211L87.5 62.9996H112.5L114.172 63.025C111.267 53.7091 111.785 45.8781 116.138 43.3834Z"/>
</mask>
<path d="M116.138 43.3834C122.289 39.8577 133.768 48.327 141.776 62.2994C145.521 68.8336 147.844 75.4141 148.627 80.9293L149.342 84.5992L149.836 89.9625L150 100.5L149.836 111.037L149.342 116.401L148.518 120.631L147.36 124.178L145.863 127.21L144.017 129.808L141.808 132.017L139.21 133.863L136.178 135.36L132.632 136.518L128.401 137.342L123.037 137.836L112.5 138H87.5L76.9629 137.836L71.5986 137.342L67.3682 136.518L63.8223 135.36L60.79 133.863L58.1924 132.017L55.9834 129.808L54.1367 127.21L52.6396 124.178L51.4824 120.631L50.6582 116.401L50.1641 111.037L50 100.5L50.1641 89.9625L50.6582 84.5992L51.4824 80.3678L52.0586 78.5992C53.0969 73.6071 55.2703 67.9361 58.501 62.2994C66.5094 48.3271 77.9883 39.8587 84.1396 43.3844C88.4909 45.879 89.0092 53.7071 86.1055 63.0211L87.5 62.9996H112.5L114.172 63.025C111.267 53.7091 111.785 45.8781 116.138 43.3834Z" fill="#F5EED5"/>
<path d="M116.138 43.3834L113.154 38.1778L113.154 38.1779L116.138 43.3834ZM141.776 62.2994L146.982 59.3158L146.982 59.3158L141.776 62.2994ZM148.627 80.9293L142.686 81.7725L142.708 81.9251L142.738 82.0765L148.627 80.9293ZM149.342 84.5992L155.316 84.0488L155.289 83.7483L155.231 83.4521L149.342 84.5992ZM149.836 89.9625L155.835 89.8691L155.832 89.6401L155.811 89.412L149.836 89.9625ZM150 100.5L155.999 100.593L156.001 100.5L155.999 100.406L150 100.5ZM149.836 111.037L155.811 111.587L155.832 111.359L155.835 111.13L149.836 111.037ZM149.342 116.401L155.231 117.548L155.289 117.252L155.316 116.951L149.342 116.401ZM148.518 120.631L154.222 122.493L154.336 122.141L154.407 121.779L148.518 120.631ZM147.36 124.178L152.74 126.835L152.931 126.449L153.064 126.039L147.36 124.178ZM145.863 127.21L150.754 130.685L151.031 130.295L151.243 129.866L145.863 127.21ZM144.017 129.808L148.259 134.051L148.616 133.695L148.907 133.284L144.017 129.808ZM141.808 132.017L145.283 136.908L145.694 136.616L146.05 136.26L141.808 132.017ZM139.21 133.863L141.866 139.243L142.295 139.031L142.685 138.754L139.21 133.863ZM136.178 135.36L138.041 141.063L138.449 140.93L138.834 140.74L136.178 135.36ZM132.632 136.518L133.779 142.407L134.143 142.337L134.495 142.222L132.632 136.518ZM128.401 137.342L128.951 143.317L129.252 143.29L129.549 143.232L128.401 137.342ZM123.037 137.836L123.131 143.835L123.359 143.831L123.586 143.81L123.037 137.836ZM112.5 138V144H112.547L112.593 143.999L112.5 138ZM87.5 138L87.4066 143.999L87.4533 144H87.5V138ZM76.9629 137.836L76.4136 143.81L76.6411 143.831L76.8695 143.835L76.9629 137.836ZM71.5986 137.342L70.4512 143.232L70.7481 143.29L71.0493 143.317L71.5986 137.342ZM67.3682 136.518L65.5052 142.222L65.8573 142.337L66.2208 142.407L67.3682 136.518ZM63.8223 135.36L61.166 140.74L61.5511 140.93L61.9593 141.063L63.8223 135.36ZM60.79 133.863L57.3148 138.754L57.7048 139.031L58.1338 139.243L60.79 133.863ZM58.1924 132.017L53.9497 136.26L54.3062 136.616L54.7171 136.908L58.1924 132.017ZM55.9834 129.808L51.0926 133.284L51.3845 133.695L51.7408 134.051L55.9834 129.808ZM54.1367 127.21L48.757 129.866L48.9688 130.295L49.2459 130.685L54.1367 127.21ZM52.6396 124.178L46.9356 126.039L47.0692 126.449L47.26 126.835L52.6396 124.178ZM51.4824 120.631L45.5932 121.779L45.6638 122.141L45.7783 122.493L51.4824 120.631ZM50.6582 116.401L44.6835 116.951L44.7112 117.252L44.7689 117.548L50.6582 116.401ZM50.1641 111.037L44.1648 111.13L44.1684 111.359L44.1894 111.587L50.1641 111.037ZM50 100.5L44.0007 100.406L43.9993 100.5L44.0007 100.593L50 100.5ZM50.1641 89.9625L44.1894 89.412L44.1684 89.6401L44.1648 89.8691L50.1641 89.9625ZM50.6582 84.5992L44.7689 83.4521L44.7112 83.7483L44.6835 84.0488L50.6582 84.5992ZM51.4824 80.3678L45.7775 78.5092L45.6635 78.8593L45.5931 79.2206L51.4824 80.3678ZM52.0586 78.5992L57.7635 80.4578L57.8657 80.1441L57.9329 79.8211L52.0586 78.5992ZM58.501 62.2994L53.2954 59.3158L53.2954 59.3158L58.501 62.2994ZM84.1396 43.3844L87.1238 38.1791L87.1233 38.1788L84.1396 43.3844ZM86.1055 63.0211L80.3774 61.2353L77.9105 69.1481L86.1979 69.0204L86.1055 63.0211ZM87.5 62.9996V56.9996H87.4538L87.4076 57.0003L87.5 62.9996ZM112.5 62.9996L112.591 57.0003L112.546 56.9996H112.5V62.9996ZM114.172 63.025L114.081 69.0243L122.367 69.1502L119.9 61.2388L114.172 63.025ZM116.138 43.3834L119.121 48.589C118.948 48.6882 119.128 48.4503 120.158 48.7077C121.227 48.975 122.778 49.6911 124.698 51.1077C128.524 53.9301 132.881 58.845 136.571 65.2831L141.776 62.2994L146.982 59.3158C142.664 51.7815 137.277 45.4755 131.823 41.4515C129.103 39.445 126.131 37.8315 123.068 37.0659C119.965 36.2902 116.403 36.3157 113.154 38.1778L116.138 43.3834ZM141.776 62.2994L136.571 65.2831C140.015 71.2919 142.031 77.1511 142.686 81.7725L148.627 80.9293L154.567 80.0862C153.658 73.677 151.028 66.3752 146.982 59.3158L141.776 62.2994ZM148.627 80.9293L142.738 82.0765L143.452 85.7464L149.342 84.5992L155.231 83.4521L154.516 79.7822L148.627 80.9293ZM149.342 84.5992L143.367 85.1497L143.861 90.513L149.836 89.9625L155.811 89.412L155.316 84.0488L149.342 84.5992ZM149.836 89.9625L143.837 90.0559L144.001 100.593L150 100.5L155.999 100.406L155.835 89.8691L149.836 89.9625ZM150 100.5L144.001 100.406L143.837 110.943L149.836 111.037L155.835 111.13L155.999 100.593L150 100.5ZM149.836 111.037L143.861 110.486L143.367 115.851L149.342 116.401L155.316 116.951L155.811 111.587L149.836 111.037ZM149.342 116.401L143.453 115.254L142.628 119.484L148.518 120.631L154.407 121.779L155.231 117.548L149.342 116.401ZM148.518 120.631L142.813 118.77L141.656 122.317L147.36 124.178L153.064 126.039L154.222 122.493L148.518 120.631ZM147.36 124.178L141.981 121.521L140.484 124.553L145.863 127.21L151.243 129.866L152.74 126.835L147.36 124.178ZM145.863 127.21L140.972 123.734L139.126 126.333L144.017 129.808L148.907 133.284L150.754 130.685L145.863 127.21ZM144.017 129.808L139.774 125.566L137.565 127.775L141.808 132.017L146.05 136.26L148.259 134.051L144.017 129.808ZM141.808 132.017L138.332 127.126L135.735 128.972L139.21 133.863L142.685 138.754L145.283 136.908L141.808 132.017ZM139.21 133.863L136.554 128.483L133.522 129.98L136.178 135.36L138.834 140.74L141.866 139.243L139.21 133.863ZM136.178 135.36L134.315 129.657L130.769 130.815L132.632 136.518L134.495 142.222L138.041 141.063L136.178 135.36ZM132.632 136.518L131.484 130.629L127.254 131.453L128.401 137.342L129.549 143.232L133.779 142.407L132.632 136.518ZM128.401 137.342L127.852 131.368L122.488 131.861L123.037 137.836L123.586 143.81L128.951 143.317L128.401 137.342ZM123.037 137.836L122.944 131.836L112.407 132L112.5 138L112.593 143.999L123.131 143.835L123.037 137.836ZM112.5 138V132H87.5V138V144H112.5V138ZM87.5 138L87.5934 132L77.0563 131.836L76.9629 137.836L76.8695 143.835L87.4066 143.999L87.5 138ZM76.9629 137.836L77.5122 131.861L72.1479 131.368L71.5986 137.342L71.0493 143.317L76.4136 143.81L76.9629 137.836ZM71.5986 137.342L72.746 131.453L68.5156 130.629L67.3682 136.518L66.2208 142.407L70.4512 143.232L71.5986 137.342ZM67.3682 136.518L69.2311 130.815L65.6852 129.657L63.8223 135.36L61.9593 141.063L65.5052 142.222L67.3682 136.518ZM63.8223 135.36L66.4785 129.98L63.4463 128.483L60.79 133.863L58.1338 139.243L61.166 140.74L63.8223 135.36ZM60.79 133.863L64.2653 128.972L61.6676 127.126L58.1924 132.017L54.7171 136.908L57.3148 138.754L60.79 133.863ZM58.1924 132.017L62.435 127.775L60.226 125.566L55.9834 129.808L51.7408 134.051L53.9497 136.26L58.1924 132.017ZM55.9834 129.808L60.8742 126.333L59.0275 123.734L54.1367 127.21L49.2459 130.685L51.0926 133.284L55.9834 129.808ZM54.1367 127.21L59.5164 124.553L58.0193 121.521L52.6396 124.178L47.26 126.835L48.757 129.866L54.1367 127.21ZM52.6396 124.178L58.3437 122.317L57.1865 118.77L51.4824 120.631L45.7783 122.493L46.9356 126.039L52.6396 124.178ZM51.4824 120.631L57.3717 119.484L56.5475 115.254L50.6582 116.401L44.7689 117.548L45.5932 121.779L51.4824 120.631ZM50.6582 116.401L56.6329 115.851L56.1388 110.486L50.1641 111.037L44.1894 111.587L44.6835 116.951L50.6582 116.401ZM50.1641 111.037L56.1633 110.943L55.9993 100.406L50 100.5L44.0007 100.593L44.1648 111.13L50.1641 111.037ZM50 100.5L55.9993 100.593L56.1633 90.0559L50.1641 89.9625L44.1648 89.8691L44.0007 100.406L50 100.5ZM50.1641 89.9625L56.1388 90.513L56.6329 85.1497L50.6582 84.5992L44.6835 84.0488L44.1894 89.412L50.1641 89.9625ZM50.6582 84.5992L56.5475 85.7464L57.3717 81.5149L51.4824 80.3678L45.5931 79.2206L44.7689 83.4521L50.6582 84.5992ZM51.4824 80.3678L57.1873 82.2264L57.7635 80.4578L52.0586 78.5992L46.3537 76.7407L45.7775 78.5092L51.4824 80.3678ZM52.0586 78.5992L57.9329 79.8211C58.8251 75.5317 60.7445 70.451 63.7065 65.2831L58.501 62.2994L53.2954 59.3158C49.796 65.4212 47.3688 71.6826 46.1843 77.3774L52.0586 78.5992ZM58.501 62.2994L63.7065 65.2831C67.3966 58.8451 71.7535 53.9305 75.5788 51.1084C77.4988 49.6919 79.0499 48.9759 80.1195 48.7085C81.1492 48.4512 81.3291 48.6891 81.156 48.59L84.1396 43.3844L87.1233 38.1788C83.8745 36.3168 80.3128 36.2911 77.2099 37.0666C74.1469 37.8322 71.1744 39.4455 68.4547 41.4519C63.0006 45.4756 57.6138 51.7814 53.2954 59.3158L58.501 62.2994ZM84.1396 43.3844L81.1555 48.5896C80.8856 48.4349 81.6381 48.6493 81.8676 51.1859C82.0848 53.5879 81.6822 57.0501 80.3774 61.2353L86.1055 63.0211L91.8336 64.8069C93.4325 59.6781 94.2225 54.5692 93.8188 50.105C93.4272 45.7754 91.745 40.8284 87.1238 38.1791L84.1396 43.3844ZM86.1055 63.0211L86.1979 69.0204L87.5924 68.9989L87.5 62.9996L87.4076 57.0003L86.013 57.0218L86.1055 63.0211ZM87.5 62.9996V68.9996H112.5V62.9996V56.9996H87.5V62.9996ZM112.5 62.9996L112.409 68.9989L114.081 69.0243L114.172 63.025L114.263 57.0257L112.591 57.0003L112.5 62.9996ZM114.172 63.025L119.9 61.2388C118.594 57.0528 118.192 53.5895 118.409 51.1866C118.638 48.6489 119.391 48.4342 119.121 48.5889L116.138 43.3834L113.154 38.1779C108.532 40.8273 106.849 45.7754 106.458 50.1058C106.054 54.5711 106.844 59.6812 108.444 64.8112L114.172 63.025Z" fill="#9A9988" mask="url(#path-1-inside-1_1204_5)"/>
<circle cx="80" cy="114" r="11" fill="#4D3B3B"/>
<ellipse cx="75.7901" cy="109.79" rx="4.52671" ry="4.52671" fill="white"/>
<circle cx="120" cy="114" r="11" fill="#4D3B3B"/>
<ellipse cx="115.79" cy="109.79" rx="4.52671" ry="4.52671" fill="white"/>
</svg>
