<svg width="2001" height="2127" viewBox="0 0 2001 2127" fill="none" xmlns="http://www.w3.org/2000/svg">
<g filter="url(#filter0_d_365_35)">
<g filter="url(#filter1_d_365_35)">
<path d="M1033.4 596.498L1033.72 976.979C1033.73 990.794 1022.53 1002 1008.72 1002H977.002C963.195 1002 952.002 990.807 952.002 977L952 589.105L987.632 199.001C988.888 185.256 1001.04 175.129 1014.79 176.378L1046.39 179.248C1060.15 180.497 1070.28 192.664 1069.03 206.419L1066.5 234.133C1064.75 253.222 1084.26 267.091 1101.71 259.177L1356.46 143.706C1369.36 137.858 1384.54 143.887 1389.91 156.995L1401.63 185.571C1406.82 198.245 1400.85 212.739 1388.23 218.076L1068.88 353.187C1060.39 356.78 1054.57 364.755 1053.73 373.937L1033.4 596.498Z" fill="#6D472B"/>
<path d="M1026.43 595.861L1026.4 596.182L1026.4 596.504L1026.72 976.985C1026.72 986.932 1018.66 995 1008.72 995H977.002C967.061 995 959.002 986.941 959.002 977L959 589.424L994.603 199.638C995.507 189.742 1004.26 182.45 1014.16 183.349L1045.76 186.219C1055.66 187.119 1062.96 195.879 1062.06 205.783L1059.53 233.497C1057.29 257.93 1082.26 275.682 1104.6 265.553L1359.35 150.082C1368.64 145.871 1379.57 150.212 1383.44 159.65L1395.15 188.225C1398.89 197.35 1394.59 207.786 1385.51 211.629L1066.15 346.74C1055.28 351.339 1047.83 361.547 1046.76 373.3L1026.43 595.861Z" stroke="#5F3E25" stroke-width="14"/>
</g>
<g filter="url(#filter2_d_365_35)">
<path d="M868.773 1483.74L580.232 1705.12C569.271 1713.53 567.209 1729.24 575.628 1740.19L592.892 1762.66C601.306 1773.6 617.001 1775.66 627.948 1767.24L921.94 1541.29L1196.86 1287.04C1206.99 1277.67 1207.61 1261.86 1198.25 1251.72L1179.01 1230.9C1169.63 1220.75 1153.81 1220.13 1143.67 1229.51L1126.15 1245.71C1112.08 1258.72 1089.2 1251.71 1084.83 1233.05L1024.43 974.752C1021.21 960.959 1007.18 952.598 993.512 956.326L966.977 963.564C953.762 967.169 945.909 980.736 949.364 993.99L1032.81 1314.05C1035.14 1322.97 1032.36 1332.45 1025.6 1338.71L868.773 1483.74Z" fill="#6D472B"/>
<path d="M873.526 1488.88L873.289 1489.1L873.034 1489.3L584.493 1710.68C576.601 1716.73 575.116 1728.04 581.178 1735.93L598.442 1758.39C604.5 1766.27 615.8 1767.75 623.683 1761.69L917.422 1535.94L1192.1 1281.9C1199.4 1275.15 1199.85 1263.77 1193.1 1256.47L1173.87 1235.65C1167.12 1228.34 1155.72 1227.9 1148.42 1234.65L1130.91 1250.85C1112.89 1267.51 1083.61 1258.53 1078.02 1234.64L1017.62 976.346C1015.3 966.415 1005.19 960.395 995.354 963.079L968.819 970.317C959.304 972.913 953.65 982.681 956.138 992.224L1039.59 1312.28C1042.56 1323.7 1039.01 1335.84 1030.35 1343.85L873.526 1488.88Z" stroke="#5F3E25" stroke-width="14"/>
</g>
<g filter="url(#filter3_d_365_35)">
<path d="M861.668 935.745C873.127 943.448 876.171 958.982 868.468 970.441L858.656 985.038C850.953 996.496 835.419 999.541 823.96 991.838L698.596 907.563C695.288 905.339 691.496 903.938 687.537 903.478L425.289 872.967C411.61 871.375 401.794 859.021 403.335 845.337L405.33 827.617C406.845 814.167 418.788 804.366 432.274 805.503L562.859 816.517L409.29 537.349C402.618 525.22 407.072 509.978 419.226 503.351L434.194 495.189C446.285 488.596 461.43 493.022 468.067 505.088L610.097 763.28C612.019 766.772 614.747 769.755 618.055 771.978L861.668 935.745Z" fill="#6D472B"/>
<path d="M562.874 816.545L562.854 816.575L559.071 822.203C558.107 821.555 557.372 820.732 556.863 819.815L562.859 816.517L562.874 816.545ZM569.72 814.467C569.44 813.487 568.944 812.556 568.228 811.754L415.423 533.976C410.619 525.243 413.826 514.268 422.577 509.497L437.545 501.335C446.25 496.588 457.155 499.775 461.934 508.462L603.964 766.654C606.423 771.124 609.915 774.942 614.149 777.788L857.763 941.555C866.013 947.101 868.205 958.285 862.659 966.535L852.846 981.132C847.3 989.383 836.116 991.575 827.866 986.029L702.501 901.753C698.267 898.907 693.414 897.114 688.346 896.525L426.098 866.014C416.249 864.868 409.182 855.973 410.291 846.12L412.286 828.4C413.377 818.717 421.976 811.659 431.686 812.478L562.27 823.492L575.289 824.59L569.72 814.467Z" stroke="#5F3E25" stroke-width="14"/>
</g>
<g opacity="0.2" filter="url(#filter4_d_365_35)">
<path d="M1127.39 1015.88C1115.54 1022.95 1100.19 1019.08 1093.11 1007.22L1084.1 992.12C1077.02 980.264 1080.89 964.917 1092.75 957.84L1222.46 880.419C1225.88 878.377 1228.77 875.545 1230.87 872.161L1370.36 648.002C1377.64 636.31 1393 632.703 1404.72 639.936L1419.89 649.301C1431.41 656.41 1435.18 671.393 1428.4 683.105L1362.72 796.506L1680.72 776.735C1694.54 775.876 1706.42 786.408 1707.23 800.228L1708.23 817.248C1709.03 830.995 1698.57 842.804 1684.82 843.659L1390.71 861.944C1386.73 862.192 1382.87 863.387 1379.45 865.429L1127.39 1015.88Z" fill="#6D472B"/>
<path d="M1362.69 796.508L1362.67 796.477L1359.19 790.654C1360.19 790.059 1361.25 789.746 1362.29 789.676L1362.72 796.506L1362.69 796.508ZM1361.64 803.587C1362.65 803.752 1363.7 803.7 1364.74 803.394L1681.16 783.722C1691.11 783.103 1699.66 790.686 1700.24 800.636L1701.24 817.656C1701.82 827.554 1694.28 836.057 1684.39 836.672L1390.28 854.958C1385.18 855.275 1380.24 856.804 1375.86 859.419L1123.8 1009.87C1115.27 1014.96 1104.22 1012.17 1099.12 1003.64L1090.11 988.533C1085.01 979.996 1087.8 968.946 1096.34 963.851L1226.05 886.43C1230.43 883.815 1234.12 880.191 1236.82 875.859L1376.31 651.7C1381.55 643.282 1392.61 640.685 1401.04 645.893L1416.22 655.258C1424.51 660.376 1427.22 671.164 1422.34 679.597L1356.66 792.998L1350.11 804.304L1361.64 803.587Z" stroke="#5F3E25" stroke-width="14"/>
</g>
<g filter="url(#filter5_d_365_35)">
<path d="M964.35 833.622C972.834 828.885 983.166 828.885 991.65 833.622L1021.57 850.329C1024.76 852.11 1028.27 853.25 1031.9 853.684L1065.93 857.756C1075.57 858.91 1083.93 864.984 1088.01 873.802L1102.4 904.908C1103.94 908.224 1106.1 911.207 1108.78 913.69L1133.92 936.986C1141.05 943.591 1144.24 953.418 1142.36 962.95L1135.71 996.573C1135 1000.16 1135 1003.84 1135.71 1007.43L1142.36 1041.05C1144.24 1050.58 1141.05 1060.41 1133.92 1067.01L1108.78 1090.31C1106.1 1092.79 1103.94 1095.78 1102.4 1099.09L1088.01 1130.2C1083.93 1139.02 1075.57 1145.09 1065.93 1146.24L1031.9 1150.32C1028.27 1150.75 1024.76 1151.89 1021.57 1153.67L991.65 1170.38C983.166 1175.12 972.834 1175.12 964.35 1170.38L934.426 1153.67C931.237 1151.89 927.729 1150.75 924.102 1150.32L890.073 1146.24C880.425 1145.09 872.066 1139.02 867.986 1130.2L853.598 1099.09C852.065 1095.78 849.897 1092.79 847.218 1090.31L822.081 1067.01C814.954 1060.41 811.761 1050.58 813.644 1041.05L820.288 1007.43C820.996 1003.84 820.996 1000.16 820.288 996.573L813.644 962.95C811.761 953.418 814.954 943.591 822.081 936.986L847.218 913.69C849.897 911.207 852.065 908.224 853.598 904.908L867.986 873.802C872.066 864.984 880.425 858.91 890.073 857.756L924.102 853.684C927.729 853.25 931.237 852.11 934.426 850.329L964.35 833.622Z" fill="#6D472B"/>
<path d="M967.762 839.733C974.125 836.181 981.875 836.181 988.238 839.733L1018.16 856.441C1022.15 858.667 1026.53 860.092 1031.07 860.634L1065.1 864.706C1072.33 865.572 1078.6 870.127 1081.66 876.741L1096.05 907.847C1097.97 911.991 1100.67 915.72 1104.02 918.824L1129.16 942.12C1134.51 947.074 1136.9 954.444 1135.49 961.593L1128.85 995.216C1127.96 999.695 1127.96 1004.3 1128.85 1008.78L1135.49 1042.41C1136.9 1049.56 1134.51 1056.93 1129.16 1061.88L1104.02 1085.18C1100.67 1088.28 1097.97 1092.01 1096.05 1096.15L1081.66 1127.26C1078.6 1133.87 1072.33 1138.43 1065.1 1139.29L1031.07 1143.37C1026.53 1143.91 1022.15 1145.33 1018.16 1147.56L988.238 1164.27C981.875 1167.82 974.125 1167.82 967.762 1164.27L937.838 1147.56C933.852 1145.33 929.468 1143.91 924.934 1143.37L890.904 1139.29C883.669 1138.43 877.399 1133.87 874.34 1127.26L859.951 1096.15C858.034 1092.01 855.325 1088.28 851.976 1085.18L826.839 1061.88C821.494 1056.93 819.099 1049.56 820.512 1042.41L827.155 1008.78C828.04 1004.3 828.04 999.695 827.155 995.216L820.512 961.593C819.099 954.444 821.494 947.074 826.839 942.12L851.976 918.824C855.325 915.72 858.034 911.991 859.951 907.847L874.34 876.741C877.399 870.127 883.669 865.572 890.904 864.706L924.934 860.634C929.468 860.092 933.852 858.667 937.839 856.441L967.762 839.733Z" stroke="#5F3E25" stroke-width="14"/>
</g>
<g filter="url(#filter6_d_365_35)">
<path d="M603.708 1527.98C615.668 1521.17 630.332 1521.17 642.292 1527.98L672.854 1545.38C677.343 1547.93 682.296 1549.57 687.424 1550.2L722.341 1554.45C735.844 1556.1 747.514 1564.67 753.134 1577.05L768.161 1610.17C770.25 1614.77 773.216 1618.93 776.892 1622.4L803.334 1647.38C813.038 1656.55 817.379 1670.05 814.838 1683.15L807.778 1719.58C806.828 1724.48 806.828 1729.52 807.778 1734.42L814.838 1770.85C817.379 1783.95 813.038 1797.45 803.334 1806.62L776.892 1831.6C773.216 1835.07 770.25 1839.23 768.161 1843.83L753.134 1876.95C747.514 1889.33 735.844 1897.9 722.341 1899.55L687.424 1903.8C682.296 1904.43 677.343 1906.07 672.854 1908.62L642.292 1926.02C630.332 1932.83 615.668 1932.83 603.708 1926.02L573.146 1908.62C568.657 1906.07 563.704 1904.43 558.576 1903.8L523.659 1899.55C510.156 1897.9 498.486 1889.33 492.866 1876.95L477.839 1843.83C475.75 1839.23 472.784 1835.07 469.108 1831.6L442.666 1806.62C432.962 1797.45 428.621 1783.95 431.162 1770.85L438.222 1734.42C439.172 1729.52 439.172 1724.48 438.222 1719.58L431.162 1683.15C428.621 1670.05 432.962 1656.55 442.666 1647.38L469.108 1622.4C472.784 1618.93 475.75 1614.77 477.839 1610.17L492.866 1577.05C498.487 1564.67 510.156 1556.1 523.659 1554.45L558.576 1550.2C563.704 1549.57 568.657 1547.93 573.146 1545.38L603.708 1527.98Z" fill="#637947" fill-opacity="0.8" shape-rendering="crispEdges"/>
</g>
<g filter="url(#filter7_d_365_35)">
<path d="M697.708 1349.98C709.668 1343.17 724.332 1343.17 736.292 1349.98L766.854 1367.38C771.343 1369.93 776.296 1371.57 781.424 1372.2L816.341 1376.45C829.844 1378.1 841.514 1386.67 847.134 1399.05L862.161 1432.17C864.25 1436.77 867.216 1440.93 870.892 1444.4L897.334 1469.38C907.038 1478.55 911.379 1492.05 908.838 1505.15L901.778 1541.58C900.828 1546.48 900.828 1551.52 901.778 1556.42L908.838 1592.85C911.379 1605.95 907.038 1619.45 897.334 1628.62L870.892 1653.6C867.216 1657.07 864.25 1661.23 862.161 1665.83L847.134 1698.95C841.514 1711.33 829.844 1719.9 816.341 1721.55L781.424 1725.8C776.296 1726.43 771.343 1728.07 766.854 1730.62L736.292 1748.02C724.332 1754.83 709.668 1754.83 697.708 1748.02L667.146 1730.62C662.657 1728.07 657.704 1726.43 652.576 1725.8L617.659 1721.55C604.156 1719.9 592.486 1711.33 586.866 1698.95L571.839 1665.83C569.75 1661.23 566.784 1657.07 563.108 1653.6L536.666 1628.62C526.962 1619.45 522.621 1605.95 525.162 1592.85L532.222 1556.42C533.172 1551.52 533.172 1546.48 532.222 1541.58L525.162 1505.15C522.621 1492.05 526.962 1478.55 536.666 1469.38L563.108 1444.4C566.784 1440.93 569.75 1436.77 571.839 1432.17L586.866 1399.05C592.487 1386.67 604.156 1378.1 617.659 1376.45L652.576 1372.2C657.704 1371.57 662.657 1369.93 667.146 1367.38L697.708 1349.98Z" fill="#637947" fill-opacity="0.8" shape-rendering="crispEdges"/>
</g>
<g filter="url(#filter8_d_365_35)">
<path d="M786.708 1527.98C798.668 1521.17 813.332 1521.17 825.292 1527.98L855.854 1545.38C860.343 1547.93 865.296 1549.57 870.424 1550.2L905.341 1554.45C918.844 1556.1 930.514 1564.67 936.134 1577.05L951.161 1610.17C953.25 1614.77 956.216 1618.93 959.892 1622.4L986.334 1647.38C996.038 1656.55 1000.38 1670.05 997.838 1683.15L990.778 1719.58C989.828 1724.48 989.828 1729.52 990.778 1734.42L997.838 1770.85C1000.38 1783.95 996.038 1797.45 986.334 1806.62L959.892 1831.6C956.216 1835.07 953.25 1839.23 951.161 1843.83L936.134 1876.95C930.514 1889.33 918.844 1897.9 905.341 1899.55L870.424 1903.8C865.296 1904.43 860.343 1906.07 855.854 1908.62L825.292 1926.02C813.332 1932.83 798.668 1932.83 786.708 1926.02L756.146 1908.62C751.657 1906.07 746.704 1904.43 741.576 1903.8L706.659 1899.55C693.156 1897.9 681.486 1889.33 675.866 1876.95L660.839 1843.83C658.75 1839.23 655.784 1835.07 652.108 1831.6L625.666 1806.62C615.962 1797.45 611.621 1783.95 614.162 1770.85L621.222 1734.42C622.172 1729.52 622.172 1724.48 621.222 1719.58L614.162 1683.15C611.621 1670.05 615.962 1656.55 625.666 1647.38L652.108 1622.4C655.784 1618.93 658.75 1614.77 660.839 1610.17L675.866 1577.05C681.487 1564.67 693.156 1556.1 706.659 1554.45L741.576 1550.2C746.704 1549.57 751.657 1547.93 756.146 1545.38L786.708 1527.98Z" fill="#637947" fill-opacity="0.8" shape-rendering="crispEdges"/>
</g>
<g filter="url(#filter9_d_365_35)">
<path d="M1134.71 1107.98C1146.67 1101.17 1161.33 1101.17 1173.29 1107.98L1203.85 1125.38C1208.34 1127.93 1213.3 1129.57 1218.42 1130.2L1253.34 1134.45C1266.84 1136.1 1278.51 1144.67 1284.13 1157.05L1299.16 1190.17C1301.25 1194.77 1304.22 1198.93 1307.89 1202.4L1334.33 1227.38C1344.04 1236.55 1348.38 1250.05 1345.84 1263.15L1338.78 1299.58C1337.83 1304.48 1337.83 1309.52 1338.78 1314.42L1345.84 1350.85C1348.38 1363.95 1344.04 1377.45 1334.33 1386.62L1307.89 1411.6C1304.22 1415.07 1301.25 1419.23 1299.16 1423.83L1284.13 1456.95C1278.51 1469.33 1266.84 1477.9 1253.34 1479.55L1218.42 1483.8C1213.3 1484.43 1208.34 1486.07 1203.85 1488.62L1173.29 1506.02C1161.33 1512.83 1146.67 1512.83 1134.71 1506.02L1104.15 1488.62C1099.66 1486.07 1094.7 1484.43 1089.58 1483.8L1054.66 1479.55C1041.16 1477.9 1029.49 1469.33 1023.87 1456.95L1008.84 1423.83C1006.75 1419.23 1003.78 1415.07 1000.11 1411.6L973.666 1386.62C963.962 1377.45 959.621 1363.95 962.162 1350.85L969.222 1314.42C970.172 1309.52 970.172 1304.48 969.222 1299.58L962.162 1263.15C959.621 1250.05 963.962 1236.55 973.666 1227.38L1000.11 1202.4C1003.78 1198.93 1006.75 1194.77 1008.84 1190.17L1023.87 1157.05C1029.49 1144.67 1041.16 1136.1 1054.66 1134.45L1089.58 1130.2C1094.7 1129.57 1099.66 1127.93 1104.15 1125.38L1134.71 1107.98Z" fill="#637947" fill-opacity="0.8" shape-rendering="crispEdges"/>
</g>
<g filter="url(#filter10_d_365_35)">
<path d="M1455.71 534.981C1467.67 528.173 1482.33 528.173 1494.29 534.981L1524.85 552.376C1529.34 554.932 1534.3 556.57 1539.42 557.195L1574.34 561.454C1587.84 563.101 1599.51 571.665 1605.13 584.053L1620.16 617.168C1622.25 621.774 1625.22 625.929 1628.89 629.403L1655.33 654.384C1665.04 663.552 1669.38 677.047 1666.84 690.153L1659.78 726.579C1658.83 731.481 1658.83 736.519 1659.78 741.421L1666.84 777.847C1669.38 790.953 1665.04 804.448 1655.33 813.616L1628.89 838.597C1625.22 842.071 1622.25 846.226 1620.16 850.832L1605.13 883.947C1599.51 896.335 1587.84 904.899 1574.34 906.546L1539.42 910.805C1534.3 911.43 1529.34 913.068 1524.85 915.624L1494.29 933.019C1482.33 939.827 1467.67 939.827 1455.71 933.019L1425.15 915.624C1420.66 913.068 1415.7 911.43 1410.58 910.805L1375.66 906.546C1362.16 904.899 1350.49 896.335 1344.87 883.947L1329.84 850.832C1327.75 846.226 1324.78 842.071 1321.11 838.597L1294.67 813.616C1284.96 804.448 1280.62 790.953 1283.16 777.847L1290.22 741.421C1291.17 736.519 1291.17 731.481 1290.22 726.579L1283.16 690.153C1280.62 677.047 1284.96 663.552 1294.67 654.384L1321.11 629.403C1324.78 625.929 1327.75 621.774 1329.84 617.168L1344.87 584.053C1350.49 571.665 1362.16 563.101 1375.66 561.454L1410.58 557.195C1415.7 556.57 1420.66 554.932 1425.15 552.376L1455.71 534.981Z" fill="#637947" fill-opacity="0.8" shape-rendering="crispEdges"/>
</g>
<g filter="url(#filter11_d_365_35)">
<path d="M1622.71 640.981C1634.67 634.173 1649.33 634.173 1661.29 640.981L1691.85 658.376C1696.34 660.932 1701.3 662.57 1706.42 663.195L1741.34 667.454C1754.84 669.101 1766.51 677.665 1772.13 690.053L1787.16 723.168C1789.25 727.774 1792.22 731.929 1795.89 735.403L1822.33 760.384C1832.04 769.552 1836.38 783.047 1833.84 796.153L1826.78 832.579C1825.83 837.481 1825.83 842.519 1826.78 847.421L1833.84 883.847C1836.38 896.953 1832.04 910.448 1822.33 919.616L1795.89 944.597C1792.22 948.071 1789.25 952.226 1787.16 956.832L1772.13 989.947C1766.51 1002.33 1754.84 1010.9 1741.34 1012.55L1706.42 1016.8C1701.3 1017.43 1696.34 1019.07 1691.85 1021.62L1661.29 1039.02C1649.33 1045.83 1634.67 1045.83 1622.71 1039.02L1592.15 1021.62C1587.66 1019.07 1582.7 1017.43 1577.58 1016.8L1542.66 1012.55C1529.16 1010.9 1517.49 1002.33 1511.87 989.947L1496.84 956.832C1494.75 952.226 1491.78 948.071 1488.11 944.597L1461.67 919.616C1451.96 910.448 1447.62 896.953 1450.16 883.847L1457.22 847.421C1458.17 842.519 1458.17 837.481 1457.22 832.579L1450.16 796.153C1447.62 783.047 1451.96 769.552 1461.67 760.384L1488.11 735.403C1491.78 731.929 1494.75 727.774 1496.84 723.168L1511.87 690.053C1517.49 677.665 1529.16 669.101 1542.66 667.454L1577.58 663.195C1582.7 662.57 1587.66 660.932 1592.15 658.376L1622.71 640.981Z" fill="#637947" fill-opacity="0.8" shape-rendering="crispEdges"/>
</g>
<g filter="url(#filter12_d_365_35)">
<path d="M320.708 578.981C332.668 572.173 347.332 572.173 359.292 578.981L389.854 596.376C394.343 598.932 399.296 600.57 404.424 601.195L439.341 605.454C452.844 607.101 464.514 615.665 470.134 628.053L485.161 661.168C487.25 665.774 490.216 669.929 493.892 673.403L520.334 698.384C530.038 707.552 534.379 721.047 531.838 734.153L524.778 770.579C523.828 775.481 523.828 780.519 524.778 785.421L531.838 821.847C534.379 834.953 530.038 848.448 520.334 857.616L493.892 882.597C490.216 886.071 487.25 890.226 485.161 894.832L470.134 927.947C464.514 940.335 452.844 948.899 439.341 950.546L404.424 954.805C399.296 955.43 394.343 957.068 389.854 959.624L359.292 977.019C347.332 983.827 332.668 983.827 320.708 977.019L290.146 959.624C285.657 957.068 280.704 955.43 275.576 954.805L240.659 950.546C227.156 948.899 215.486 940.335 209.866 927.947L194.839 894.832C192.75 890.226 189.784 886.071 186.108 882.597L159.666 857.616C149.962 848.448 145.621 834.953 148.162 821.847L155.222 785.421C156.172 780.519 156.172 775.481 155.222 770.579L148.162 734.153C145.621 721.047 149.962 707.552 159.666 698.384L186.108 673.403C189.784 669.929 192.75 665.774 194.839 661.168L209.866 628.053C215.487 615.665 227.156 607.101 240.659 605.454L275.576 601.195C280.704 600.57 285.657 598.932 290.146 596.376L320.708 578.981Z" fill="#637947" fill-opacity="0.8" shape-rendering="crispEdges"/>
</g>
<g filter="url(#filter13_d_365_35)">
<path d="M397.708 430.981C409.668 424.173 424.332 424.173 436.292 430.981L466.854 448.376C471.343 450.932 476.296 452.57 481.424 453.195L516.341 457.454C529.844 459.101 541.514 467.665 547.134 480.053L562.161 513.168C564.25 517.774 567.216 521.929 570.892 525.403L597.334 550.384C607.038 559.552 611.379 573.047 608.838 586.153L601.778 622.579C600.828 627.481 600.828 632.519 601.778 637.421L608.838 673.847C611.379 686.953 607.038 700.448 597.334 709.616L570.892 734.597C567.216 738.071 564.25 742.226 562.161 746.832L547.134 779.947C541.514 792.335 529.844 800.899 516.341 802.546L481.424 806.805C476.296 807.43 471.343 809.068 466.854 811.624L436.292 829.019C424.332 835.827 409.668 835.827 397.708 829.019L367.146 811.624C362.657 809.068 357.704 807.43 352.576 806.805L317.659 802.546C304.156 800.899 292.486 792.335 286.866 779.947L271.839 746.832C269.75 742.226 266.784 738.071 263.108 734.597L236.666 709.616C226.962 700.448 222.621 686.953 225.162 673.847L232.222 637.421C233.172 632.519 233.172 627.481 232.222 622.579L225.162 586.153C222.621 573.047 226.962 559.552 236.666 550.384L263.108 525.403C266.784 521.929 269.75 517.774 271.839 513.168L286.866 480.053C292.487 467.665 304.156 459.101 317.659 457.454L352.576 453.195C357.704 452.57 362.657 450.932 367.146 448.376L397.708 430.981Z" fill="#637947" fill-opacity="0.8" shape-rendering="crispEdges"/>
</g>
<g filter="url(#filter14_d_365_35)">
<path d="M578.708 592.981C590.668 586.173 605.332 586.173 617.292 592.981L647.854 610.376C652.343 612.932 657.296 614.57 662.424 615.195L697.341 619.454C710.844 621.101 722.514 629.665 728.134 642.053L743.161 675.168C745.25 679.774 748.216 683.929 751.892 687.403L778.334 712.384C788.038 721.552 792.379 735.047 789.838 748.153L782.778 784.579C781.828 789.481 781.828 794.519 782.778 799.421L789.838 835.847C792.379 848.953 788.038 862.448 778.334 871.616L751.892 896.597C748.216 900.071 745.25 904.226 743.161 908.832L728.134 941.947C722.514 954.335 710.844 962.899 697.341 964.546L662.424 968.805C657.296 969.43 652.343 971.068 647.854 973.624L617.292 991.019C605.332 997.827 590.668 997.827 578.708 991.019L548.146 973.624C543.657 971.068 538.704 969.43 533.576 968.805L498.659 964.546C485.156 962.899 473.486 954.335 467.866 941.947L452.839 908.832C450.75 904.226 447.784 900.071 444.108 896.597L417.666 871.616C407.962 862.448 403.621 848.953 406.162 835.847L413.222 799.421C414.172 794.519 414.172 789.481 413.222 784.579L406.162 748.153C403.621 735.047 407.962 721.552 417.666 712.384L444.108 687.403C447.784 683.929 450.75 679.774 452.839 675.168L467.866 642.053C473.487 629.665 485.156 621.101 498.659 619.454L533.576 615.195C538.704 614.57 543.657 612.932 548.146 610.376L578.708 592.981Z" fill="#637947" fill-opacity="0.8" shape-rendering="crispEdges"/>
</g>
<g filter="url(#filter15_d_365_35)">
<path d="M990.708 56.9809C1002.67 50.1731 1017.33 50.1731 1029.29 56.9809L1059.85 74.3762C1064.34 76.9316 1069.3 78.5696 1074.42 79.1951L1109.34 83.4543C1122.84 85.1014 1134.51 93.6651 1140.13 106.053L1155.16 139.168C1157.25 143.774 1160.22 147.929 1163.89 151.403L1190.33 176.384C1200.04 185.552 1204.38 199.047 1201.84 212.153L1194.78 248.579C1193.83 253.481 1193.83 258.519 1194.78 263.421L1201.84 299.847C1204.38 312.953 1200.04 326.448 1190.33 335.616L1163.89 360.597C1160.22 364.071 1157.25 368.226 1155.16 372.832L1140.13 405.947C1134.51 418.335 1122.84 426.899 1109.34 428.546L1074.42 432.805C1069.3 433.43 1064.34 435.068 1059.85 437.624L1029.29 455.019C1017.33 461.827 1002.67 461.827 990.708 455.019L960.146 437.624C955.657 435.068 950.704 433.43 945.576 432.805L910.659 428.546C897.156 426.899 885.486 418.335 879.866 405.947L864.839 372.832C862.75 368.226 859.784 364.071 856.108 360.597L829.666 335.616C819.962 326.448 815.621 312.953 818.162 299.847L825.222 263.421C826.172 258.519 826.172 253.481 825.222 248.579L818.162 212.153C815.621 199.047 819.962 185.552 829.666 176.384L856.108 151.403C859.784 147.929 862.75 143.774 864.839 139.168L879.866 106.053C885.487 93.6651 897.156 85.1014 910.659 83.4543L945.576 79.1951C950.704 78.5696 955.657 76.9316 960.146 74.3762L990.708 56.9809Z" fill="#637947" fill-opacity="0.8" shape-rendering="crispEdges"/>
</g>
<g filter="url(#filter16_d_365_35)">
<path d="M1249.71 10.9809C1261.67 4.17308 1276.33 4.17308 1288.29 10.9809L1318.85 28.3762C1323.34 30.9316 1328.3 32.5696 1333.42 33.1951L1368.34 37.4543C1381.84 39.1014 1393.51 47.6651 1399.13 60.0526L1414.16 93.1684C1416.25 97.7741 1419.22 101.929 1422.89 105.403L1449.33 130.384C1459.04 139.552 1463.38 153.047 1460.84 166.153L1453.78 202.579C1452.83 207.481 1452.83 212.519 1453.78 217.421L1460.84 253.847C1463.38 266.953 1459.04 280.448 1449.33 289.616L1422.89 314.597C1419.22 318.071 1416.25 322.226 1414.16 326.832L1399.13 359.947C1393.51 372.335 1381.84 380.899 1368.34 382.546L1333.42 386.805C1328.3 387.43 1323.34 389.068 1318.85 391.624L1288.29 409.019C1276.33 415.827 1261.67 415.827 1249.71 409.019L1219.15 391.624C1214.66 389.068 1209.7 387.43 1204.58 386.805L1169.66 382.546C1156.16 380.899 1144.49 372.335 1138.87 359.947L1123.84 326.832C1121.75 322.226 1118.78 318.071 1115.11 314.597L1088.67 289.616C1078.96 280.448 1074.62 266.953 1077.16 253.847L1084.22 217.421C1085.17 212.519 1085.17 207.481 1084.22 202.579L1077.16 166.153C1074.62 153.047 1078.96 139.552 1088.67 130.384L1115.11 105.403C1118.78 101.929 1121.75 97.7741 1123.84 93.1684L1138.87 60.0526C1144.49 47.6651 1156.16 39.1014 1169.66 37.4543L1204.58 33.1951C1209.7 32.5696 1214.66 30.9316 1219.15 28.3762L1249.71 10.9809Z" fill="#637947" fill-opacity="0.8" shape-rendering="crispEdges"/>
</g>
<g filter="url(#filter17_d_365_35)">
<path d="M1134.71 185.981C1146.67 179.173 1161.33 179.173 1173.29 185.981L1203.85 203.376C1208.34 205.932 1213.3 207.57 1218.42 208.195L1253.34 212.454C1266.84 214.101 1278.51 222.665 1284.13 235.053L1299.16 268.168C1301.25 272.774 1304.22 276.929 1307.89 280.403L1334.33 305.384C1344.04 314.552 1348.38 328.047 1345.84 341.153L1338.78 377.579C1337.83 382.481 1337.83 387.519 1338.78 392.421L1345.84 428.847C1348.38 441.953 1344.04 455.448 1334.33 464.616L1307.89 489.597C1304.22 493.071 1301.25 497.226 1299.16 501.832L1284.13 534.947C1278.51 547.335 1266.84 555.899 1253.34 557.546L1218.42 561.805C1213.3 562.43 1208.34 564.068 1203.85 566.624L1173.29 584.019C1161.33 590.827 1146.67 590.827 1134.71 584.019L1104.15 566.624C1099.66 564.068 1094.7 562.43 1089.58 561.805L1054.66 557.546C1041.16 555.899 1029.49 547.335 1023.87 534.947L1008.84 501.832C1006.75 497.226 1003.78 493.071 1000.11 489.597L973.666 464.616C963.962 455.448 959.621 441.953 962.162 428.847L969.222 392.421C970.172 387.519 970.172 382.481 969.222 377.579L962.162 341.153C959.621 328.047 963.962 314.552 973.666 305.384L1000.11 280.403C1003.78 276.929 1006.75 272.774 1008.84 268.168L1023.87 235.053C1029.49 222.665 1041.16 214.101 1054.66 212.454L1089.58 208.195C1094.7 207.57 1099.66 205.932 1104.15 203.376L1134.71 185.981Z" fill="#637947" fill-opacity="0.8" shape-rendering="crispEdges"/>
</g>
<g filter="url(#filter18_d_365_35)">
<path d="M1164.71 687.981C1176.67 681.173 1191.33 681.173 1203.29 687.981L1233.85 705.376C1238.34 707.932 1243.3 709.57 1248.42 710.195L1283.34 714.454C1296.84 716.101 1308.51 724.665 1314.13 737.053L1329.16 770.168C1331.25 774.774 1334.22 778.929 1337.89 782.403L1364.33 807.384C1374.04 816.552 1378.38 830.047 1375.84 843.153L1368.78 879.579C1367.83 884.481 1367.83 889.519 1368.78 894.421L1375.84 930.847C1378.38 943.953 1374.04 957.448 1364.33 966.616L1337.89 991.597C1334.22 995.071 1331.25 999.226 1329.16 1003.83L1314.13 1036.95C1308.51 1049.33 1296.84 1057.9 1283.34 1059.55L1248.42 1063.8C1243.3 1064.43 1238.34 1066.07 1233.85 1068.62L1203.29 1086.02C1191.33 1092.83 1176.67 1092.83 1164.71 1086.02L1134.15 1068.62C1129.66 1066.07 1124.7 1064.43 1119.58 1063.8L1084.66 1059.55C1071.16 1057.9 1059.49 1049.33 1053.87 1036.95L1038.84 1003.83C1036.75 999.226 1033.78 995.071 1030.11 991.597L1003.67 966.616C993.962 957.448 989.621 943.953 992.162 930.847L999.222 894.421C1000.17 889.519 1000.17 884.481 999.222 879.579L992.162 843.153C989.621 830.047 993.962 816.552 1003.67 807.384L1030.11 782.403C1033.78 778.929 1036.75 774.774 1038.84 770.168L1053.87 737.053C1059.49 724.665 1071.16 716.101 1084.66 714.454L1119.58 710.195C1124.7 709.57 1129.66 707.932 1134.15 705.376L1164.71 687.981Z" fill="#637947" fill-opacity="0.8" shape-rendering="crispEdges"/>
</g>
<g filter="url(#filter19_d_365_35)">
<path d="M904.487 1044.62C916.304 1038.02 930.696 1038.02 942.513 1044.62L1040.95 1099.58C1045.39 1102.06 1050.27 1103.64 1055.32 1104.25L1167.26 1117.64C1180.7 1119.25 1192.35 1127.71 1198.03 1139.99L1245.36 1242.31C1247.49 1246.93 1250.51 1251.09 1254.24 1254.55L1336.93 1331.18C1346.86 1340.38 1351.3 1354.06 1348.68 1367.34L1326.83 1477.94C1325.84 1482.93 1325.84 1488.07 1326.83 1493.06L1348.68 1603.66C1351.3 1616.94 1346.86 1630.62 1336.93 1639.82L1254.24 1716.45C1250.51 1719.91 1247.49 1724.07 1245.36 1728.69L1198.03 1831.01C1192.35 1843.29 1180.7 1851.75 1167.26 1853.36L1055.33 1866.75C1050.27 1867.36 1045.39 1868.94 1040.95 1871.42L942.513 1926.38C930.696 1932.98 916.304 1932.98 904.487 1926.38L806.054 1871.42C801.612 1868.94 796.727 1867.36 791.675 1866.75L679.736 1853.36C666.298 1851.75 654.655 1843.29 648.973 1831.01L601.644 1728.69C599.508 1724.07 596.489 1719.91 592.757 1716.45L510.069 1639.82C500.143 1630.62 495.696 1616.94 498.319 1603.66L520.171 1493.06C521.158 1488.07 521.158 1482.93 520.171 1477.94L498.319 1367.34C495.696 1354.06 500.143 1340.38 510.069 1331.18L592.757 1254.55C596.489 1251.09 599.508 1246.93 601.644 1242.31L648.973 1139.99C654.655 1127.71 666.298 1119.25 679.736 1117.64L791.675 1104.25C796.727 1103.64 801.612 1102.06 806.054 1099.58L904.487 1044.62Z" fill="#839D62" fill-opacity="0.55" shape-rendering="crispEdges"/>
<path d="M939.1 1050.73L1037.53 1105.69C1042.77 1108.61 1048.53 1110.49 1054.49 1111.2L1166.43 1124.59C1177.46 1125.91 1187.01 1132.85 1191.67 1142.93L1239 1245.25C1241.52 1250.7 1245.08 1255.6 1249.48 1259.68L1332.17 1336.31C1340.32 1343.86 1343.97 1355.09 1341.81 1365.98L1319.96 1476.58C1318.8 1482.47 1318.8 1488.53 1319.96 1494.42L1341.81 1605.02C1343.97 1615.91 1340.32 1627.14 1332.17 1634.69L1249.48 1711.32C1245.08 1715.4 1241.52 1720.3 1239 1725.75L1191.67 1828.07C1187.01 1838.15 1177.46 1845.09 1166.43 1846.41L1054.49 1859.8C1048.53 1860.51 1042.77 1862.39 1037.53 1865.31L939.1 1920.27C929.405 1925.69 917.595 1925.69 907.9 1920.27L809.467 1865.31C804.227 1862.39 798.465 1860.51 792.507 1859.8L680.568 1846.41C669.542 1845.09 659.988 1838.15 655.326 1828.07L607.997 1725.75C605.478 1720.3 601.917 1715.4 597.515 1711.32L514.828 1634.69C506.683 1627.14 503.034 1615.91 505.186 1605.02L527.039 1494.42C528.202 1488.53 528.202 1482.47 527.039 1476.58L505.186 1365.98C503.034 1355.09 506.683 1343.86 514.828 1336.31L597.515 1259.68C601.917 1255.6 605.478 1250.7 607.997 1245.25L655.326 1142.93C659.988 1132.85 669.542 1125.91 680.568 1124.59L792.507 1111.2C798.465 1110.49 804.227 1108.61 809.467 1105.69L907.9 1050.73C917.595 1045.31 929.405 1045.31 939.1 1050.73Z" stroke="#6B854A" stroke-opacity="0.8" stroke-width="14" shape-rendering="crispEdges"/>
</g>
<g filter="url(#filter20_d_365_35)">
<path d="M1416.49 292.616C1428.3 286.018 1442.7 286.018 1454.51 292.616L1552.95 347.576C1557.39 350.056 1562.27 351.643 1567.32 352.248L1679.26 365.642C1692.7 367.25 1704.35 375.709 1710.03 387.992L1757.36 490.314C1759.49 494.931 1762.51 499.087 1766.24 502.545L1848.93 579.177C1858.86 588.376 1863.3 602.064 1860.68 615.341L1838.83 725.94C1837.84 730.932 1837.84 736.068 1838.83 741.06L1860.68 851.659C1863.3 864.936 1858.86 878.623 1848.93 887.823L1766.24 964.455C1762.51 967.913 1759.49 972.069 1757.36 976.686L1710.03 1079.01C1704.35 1091.29 1692.7 1099.75 1679.26 1101.36L1567.33 1114.75C1562.27 1115.36 1557.39 1116.94 1552.95 1119.42L1454.51 1174.38C1442.7 1180.98 1428.3 1180.98 1416.49 1174.38L1318.05 1119.42C1313.61 1116.94 1308.73 1115.36 1303.68 1114.75L1191.74 1101.36C1178.3 1099.75 1166.65 1091.29 1160.97 1079.01L1113.64 976.686C1111.51 972.069 1108.49 967.913 1104.76 964.455L1022.07 887.823C1012.14 878.624 1007.7 864.936 1010.32 851.659L1032.17 741.06C1033.16 736.068 1033.16 730.932 1032.17 725.94L1010.32 615.341C1007.7 602.064 1012.14 588.377 1022.07 579.177L1104.76 502.545C1108.49 499.087 1111.51 494.931 1113.64 490.314L1160.97 387.993C1166.65 375.709 1178.3 367.25 1191.74 365.642L1303.67 352.248C1308.73 351.643 1313.61 350.056 1318.05 347.576L1416.49 292.616Z" fill="#839D62" fill-opacity="0.55" shape-rendering="crispEdges"/>
<path d="M1451.1 298.728L1549.53 353.687C1554.77 356.613 1560.53 358.485 1566.49 359.198L1678.43 372.592C1689.46 373.911 1699.01 380.853 1703.67 390.931L1751 493.252C1753.52 498.699 1757.08 503.6 1761.48 507.679L1844.17 584.311C1852.32 591.859 1855.97 603.091 1853.81 613.985L1831.96 724.584C1830.8 730.471 1830.8 736.529 1831.96 742.416L1853.81 853.015C1855.97 863.909 1852.32 875.141 1844.17 882.689L1761.48 959.321C1757.08 963.4 1753.52 968.301 1751 973.748L1703.67 1076.07C1699.01 1086.15 1689.46 1093.09 1678.43 1094.41L1566.49 1107.8C1560.53 1108.51 1554.77 1110.39 1549.53 1113.31L1451.1 1168.27C1441.4 1173.69 1429.6 1173.69 1419.9 1168.27L1321.47 1113.31C1316.23 1110.39 1310.47 1108.51 1304.51 1107.8L1192.57 1094.41C1181.54 1093.09 1171.99 1086.15 1167.33 1076.07L1120 973.748C1117.48 968.301 1113.92 963.4 1109.52 959.321L1026.83 882.689C1018.68 875.141 1015.03 863.909 1017.19 853.015L1039.04 742.416C1040.2 736.529 1040.2 730.471 1039.04 724.584L1017.19 613.985C1015.03 603.091 1018.68 591.859 1026.83 584.311L1109.52 507.679C1113.92 503.6 1117.48 498.699 1120 493.252L1167.33 390.931C1171.99 380.853 1181.54 373.911 1192.57 372.592L1304.51 359.198C1310.47 358.485 1316.23 356.613 1321.47 353.687L1419.9 298.728C1429.6 293.314 1441.4 293.314 1451.1 298.728Z" stroke="#6B854A" stroke-opacity="0.8" stroke-width="14" shape-rendering="crispEdges"/>
</g>
<g filter="url(#filter21_d_365_35)">
<path d="M452.487 292.616C464.304 286.018 478.696 286.018 490.513 292.616L588.946 347.576C593.388 350.056 598.273 351.643 603.325 352.248L715.264 365.642C728.701 367.25 740.345 375.709 746.027 387.992L793.356 490.314C795.492 494.931 798.511 499.087 802.243 502.545L884.931 579.177C894.857 588.376 899.304 602.064 896.681 615.341L874.829 725.94C873.842 730.932 873.842 736.068 874.829 741.06L896.681 851.659C899.304 864.936 894.857 878.623 884.931 887.823L802.243 964.455C798.511 967.913 795.492 972.069 793.356 976.686L746.027 1079.01C740.345 1091.29 728.702 1099.75 715.264 1101.36L603.325 1114.75C598.273 1115.36 593.388 1116.94 588.946 1119.42L490.513 1174.38C478.696 1180.98 464.304 1180.98 452.487 1174.38L354.054 1119.42C349.612 1116.94 344.727 1115.36 339.675 1114.75L227.736 1101.36C214.298 1099.75 202.655 1091.29 196.973 1079.01L149.644 976.686C147.508 972.069 144.489 967.913 140.757 964.455L58.0694 887.823C48.143 878.624 43.6956 864.936 46.3189 851.659L68.1714 741.06C69.1576 736.068 69.1576 730.932 68.1714 725.94L46.3189 615.341C43.6956 602.064 48.143 588.377 58.0694 579.177L140.757 502.545C144.489 499.087 147.508 494.931 149.644 490.314L196.973 387.993C202.655 375.709 214.298 367.25 227.736 365.642L339.675 352.248C344.727 351.643 349.612 350.056 354.054 347.576L452.487 292.616Z" fill="#839D62" fill-opacity="0.55" shape-rendering="crispEdges"/>
<path d="M487.1 298.728L585.533 353.687C590.773 356.613 596.535 358.485 602.493 359.198L714.432 372.592C725.458 373.911 735.012 380.853 739.674 390.931L787.003 493.252C789.522 498.699 793.083 503.6 797.485 507.679L880.172 584.311C888.317 591.859 891.966 603.091 889.814 613.985L867.961 724.584C866.798 730.471 866.798 736.529 867.961 742.416L889.814 853.015C891.966 863.909 888.317 875.141 880.172 882.689L797.485 959.321C793.083 963.4 789.522 968.301 787.003 973.748L739.674 1076.07C735.012 1086.15 725.458 1093.09 714.432 1094.41L602.493 1107.8C596.535 1108.51 590.773 1110.39 585.533 1113.31L487.1 1168.27C477.405 1173.69 465.595 1173.69 455.9 1168.27L357.467 1113.31C352.227 1110.39 346.465 1108.51 340.507 1107.8L228.568 1094.41C217.542 1093.09 207.988 1086.15 203.326 1076.07L155.997 973.748C153.478 968.301 149.917 963.4 145.515 959.321L62.8275 882.689C54.6829 875.141 51.0336 863.909 53.1861 853.015L75.0386 742.416C76.2018 736.529 76.2018 730.471 75.0386 724.584L53.1861 613.985C51.0337 603.091 54.6828 591.859 62.8275 584.311L145.515 507.679C149.917 503.6 153.478 498.699 155.997 493.252L203.326 390.931C207.988 380.853 217.542 373.911 228.568 372.592L340.507 359.198C346.465 358.485 352.227 356.613 357.467 353.687L455.9 298.728C465.595 293.314 477.405 293.314 487.1 298.728Z" stroke="#6B854A" stroke-opacity="0.8" stroke-width="14" shape-rendering="crispEdges"/>
</g>
</g>
<defs>
<filter id="filter0_d_365_35" x="16" y="0" width="1989" height="2119" filterUnits="userSpaceOnUse" color-interpolation-filters="sRGB">
<feFlood flood-opacity="0" result="BackgroundImageFix"/>
<feColorMatrix in="SourceAlpha" type="matrix" values="0 0 0 0 0 0 0 0 0 0 0 0 0 0 0 0 0 0 127 0" result="hardAlpha"/>
<feOffset dy="4"/>
<feGaussianBlur stdDeviation="2"/>
<feComposite in2="hardAlpha" operator="out"/>
<feColorMatrix type="matrix" values="0 0 0 0 0 0 0 0 0 0 0 0 0 0 0 0 0 0 0.25 0"/>
<feBlend mode="normal" in2="BackgroundImageFix" result="effect1_dropShadow_365_35"/>
<feBlend mode="normal" in="SourceGraphic" in2="effect1_dropShadow_365_35" result="shape"/>
</filter>
<filter id="filter1_d_365_35" x="927" y="141.469" width="501.499" height="935.531" filterUnits="userSpaceOnUse" color-interpolation-filters="sRGB">
<feFlood flood-opacity="0" result="BackgroundImageFix"/>
<feColorMatrix in="SourceAlpha" type="matrix" values="0 0 0 0 0 0 0 0 0 0 0 0 0 0 0 0 0 0 127 0" result="hardAlpha"/>
<feOffset dy="50"/>
<feGaussianBlur stdDeviation="12.5"/>
<feComposite in2="hardAlpha" operator="out"/>
<feColorMatrix type="matrix" values="0 0 0 0 0 0 0 0 0 0 0 0 0 0 0 0 0 0 0.25 0"/>
<feBlend mode="normal" in2="BackgroundImageFix" result="effect1_dropShadow_365_35"/>
<feBlend mode="normal" in="SourceGraphic" in2="effect1_dropShadow_365_35" result="shape"/>
</filter>
<filter id="filter2_d_365_35" x="545.448" y="955.438" width="684.434" height="891.986" filterUnits="userSpaceOnUse" color-interpolation-filters="sRGB">
<feFlood flood-opacity="0" result="BackgroundImageFix"/>
<feColorMatrix in="SourceAlpha" type="matrix" values="0 0 0 0 0 0 0 0 0 0 0 0 0 0 0 0 0 0 127 0" result="hardAlpha"/>
<feOffset dy="50"/>
<feGaussianBlur stdDeviation="12.5"/>
<feComposite in2="hardAlpha" operator="out"/>
<feColorMatrix type="matrix" values="0 0 0 0 0 0 0 0 0 0 0 0 0 0 0 0 0 0 0.25 0"/>
<feBlend mode="normal" in2="BackgroundImageFix" result="effect1_dropShadow_365_35"/>
<feBlend mode="normal" in="SourceGraphic" in2="effect1_dropShadow_365_35" result="shape"/>
</filter>
<filter id="filter3_d_365_35" x="378.176" y="492.133" width="519.547" height="578.959" filterUnits="userSpaceOnUse" color-interpolation-filters="sRGB">
<feFlood flood-opacity="0" result="BackgroundImageFix"/>
<feColorMatrix in="SourceAlpha" type="matrix" values="0 0 0 0 0 0 0 0 0 0 0 0 0 0 0 0 0 0 127 0" result="hardAlpha"/>
<feOffset dy="50"/>
<feGaussianBlur stdDeviation="12.5"/>
<feComposite in2="hardAlpha" operator="out"/>
<feColorMatrix type="matrix" values="0 0 0 0 0 0 0 0 0 0 0 0 0 0 0 0 0 0 0.25 0"/>
<feBlend mode="normal" in2="BackgroundImageFix" result="effect1_dropShadow_365_35"/>
<feBlend mode="normal" in="SourceGraphic" in2="effect1_dropShadow_365_35" result="shape"/>
</filter>
<filter id="filter4_d_365_35" x="1055.56" y="636.207" width="677.711" height="458.207" filterUnits="userSpaceOnUse" color-interpolation-filters="sRGB">
<feFlood flood-opacity="0" result="BackgroundImageFix"/>
<feColorMatrix in="SourceAlpha" type="matrix" values="0 0 0 0 0 0 0 0 0 0 0 0 0 0 0 0 0 0 127 0" result="hardAlpha"/>
<feOffset dy="50"/>
<feGaussianBlur stdDeviation="12.5"/>
<feComposite in2="hardAlpha" operator="out"/>
<feColorMatrix type="matrix" values="0 0 0 0 0 0 0 0 0 0 0 0 0 0 0 0 0 0 0.25 0"/>
<feBlend mode="normal" in2="BackgroundImageFix" result="effect1_dropShadow_365_35"/>
<feBlend mode="normal" in="SourceGraphic" in2="effect1_dropShadow_365_35" result="shape"/>
</filter>
<filter id="filter5_d_365_35" x="788.113" y="830.069" width="379.774" height="418.862" filterUnits="userSpaceOnUse" color-interpolation-filters="sRGB">
<feFlood flood-opacity="0" result="BackgroundImageFix"/>
<feColorMatrix in="SourceAlpha" type="matrix" values="0 0 0 0 0 0 0 0 0 0 0 0 0 0 0 0 0 0 127 0" result="hardAlpha"/>
<feOffset dy="50"/>
<feGaussianBlur stdDeviation="12.5"/>
<feComposite in2="hardAlpha" operator="out"/>
<feColorMatrix type="matrix" values="0 0 0 0 0 0 0 0 0 0 0 0 0 0 0 0 0 0 0.25 0"/>
<feBlend mode="normal" in2="BackgroundImageFix" result="effect1_dropShadow_365_35"/>
<feBlend mode="normal" in="SourceGraphic" in2="effect1_dropShadow_365_35" result="shape"/>
</filter>
<filter id="filter6_d_365_35" x="390.448" y="1522.88" width="465.103" height="548.25" filterUnits="userSpaceOnUse" color-interpolation-filters="sRGB">
<feFlood flood-opacity="0" result="BackgroundImageFix"/>
<feColorMatrix in="SourceAlpha" type="matrix" values="0 0 0 0 0 0 0 0 0 0 0 0 0 0 0 0 0 0 127 0" result="hardAlpha"/>
<feOffset dy="100"/>
<feGaussianBlur stdDeviation="20"/>
<feComposite in2="hardAlpha" operator="out"/>
<feColorMatrix type="matrix" values="0 0 0 0 0 0 0 0 0 0 0 0 0 0 0 0 0 0 0.25 0"/>
<feBlend mode="normal" in2="BackgroundImageFix" result="effect1_dropShadow_365_35"/>
<feBlend mode="normal" in="SourceGraphic" in2="effect1_dropShadow_365_35" result="shape"/>
</filter>
<filter id="filter7_d_365_35" x="484.448" y="1344.88" width="465.103" height="548.25" filterUnits="userSpaceOnUse" color-interpolation-filters="sRGB">
<feFlood flood-opacity="0" result="BackgroundImageFix"/>
<feColorMatrix in="SourceAlpha" type="matrix" values="0 0 0 0 0 0 0 0 0 0 0 0 0 0 0 0 0 0 127 0" result="hardAlpha"/>
<feOffset dy="100"/>
<feGaussianBlur stdDeviation="20"/>
<feComposite in2="hardAlpha" operator="out"/>
<feColorMatrix type="matrix" values="0 0 0 0 0 0 0 0 0 0 0 0 0 0 0 0 0 0 0.25 0"/>
<feBlend mode="normal" in2="BackgroundImageFix" result="effect1_dropShadow_365_35"/>
<feBlend mode="normal" in="SourceGraphic" in2="effect1_dropShadow_365_35" result="shape"/>
</filter>
<filter id="filter8_d_365_35" x="573.448" y="1522.88" width="465.103" height="548.25" filterUnits="userSpaceOnUse" color-interpolation-filters="sRGB">
<feFlood flood-opacity="0" result="BackgroundImageFix"/>
<feColorMatrix in="SourceAlpha" type="matrix" values="0 0 0 0 0 0 0 0 0 0 0 0 0 0 0 0 0 0 127 0" result="hardAlpha"/>
<feOffset dy="100"/>
<feGaussianBlur stdDeviation="20"/>
<feComposite in2="hardAlpha" operator="out"/>
<feColorMatrix type="matrix" values="0 0 0 0 0 0 0 0 0 0 0 0 0 0 0 0 0 0 0.25 0"/>
<feBlend mode="normal" in2="BackgroundImageFix" result="effect1_dropShadow_365_35"/>
<feBlend mode="normal" in="SourceGraphic" in2="effect1_dropShadow_365_35" result="shape"/>
</filter>
<filter id="filter9_d_365_35" x="921.448" y="1102.88" width="465.103" height="548.25" filterUnits="userSpaceOnUse" color-interpolation-filters="sRGB">
<feFlood flood-opacity="0" result="BackgroundImageFix"/>
<feColorMatrix in="SourceAlpha" type="matrix" values="0 0 0 0 0 0 0 0 0 0 0 0 0 0 0 0 0 0 127 0" result="hardAlpha"/>
<feOffset dy="100"/>
<feGaussianBlur stdDeviation="20"/>
<feComposite in2="hardAlpha" operator="out"/>
<feColorMatrix type="matrix" values="0 0 0 0 0 0 0 0 0 0 0 0 0 0 0 0 0 0 0.25 0"/>
<feBlend mode="normal" in2="BackgroundImageFix" result="effect1_dropShadow_365_35"/>
<feBlend mode="normal" in="SourceGraphic" in2="effect1_dropShadow_365_35" result="shape"/>
</filter>
<filter id="filter10_d_365_35" x="1242.45" y="529.875" width="465.103" height="548.25" filterUnits="userSpaceOnUse" color-interpolation-filters="sRGB">
<feFlood flood-opacity="0" result="BackgroundImageFix"/>
<feColorMatrix in="SourceAlpha" type="matrix" values="0 0 0 0 0 0 0 0 0 0 0 0 0 0 0 0 0 0 127 0" result="hardAlpha"/>
<feOffset dy="100"/>
<feGaussianBlur stdDeviation="20"/>
<feComposite in2="hardAlpha" operator="out"/>
<feColorMatrix type="matrix" values="0 0 0 0 0 0 0 0 0 0 0 0 0 0 0 0 0 0 0.25 0"/>
<feBlend mode="normal" in2="BackgroundImageFix" result="effect1_dropShadow_365_35"/>
<feBlend mode="normal" in="SourceGraphic" in2="effect1_dropShadow_365_35" result="shape"/>
</filter>
<filter id="filter11_d_365_35" x="1409.45" y="635.875" width="465.104" height="548.25" filterUnits="userSpaceOnUse" color-interpolation-filters="sRGB">
<feFlood flood-opacity="0" result="BackgroundImageFix"/>
<feColorMatrix in="SourceAlpha" type="matrix" values="0 0 0 0 0 0 0 0 0 0 0 0 0 0 0 0 0 0 127 0" result="hardAlpha"/>
<feOffset dy="100"/>
<feGaussianBlur stdDeviation="20"/>
<feComposite in2="hardAlpha" operator="out"/>
<feColorMatrix type="matrix" values="0 0 0 0 0 0 0 0 0 0 0 0 0 0 0 0 0 0 0.25 0"/>
<feBlend mode="normal" in2="BackgroundImageFix" result="effect1_dropShadow_365_35"/>
<feBlend mode="normal" in="SourceGraphic" in2="effect1_dropShadow_365_35" result="shape"/>
</filter>
<filter id="filter12_d_365_35" x="107.448" y="573.875" width="465.103" height="548.25" filterUnits="userSpaceOnUse" color-interpolation-filters="sRGB">
<feFlood flood-opacity="0" result="BackgroundImageFix"/>
<feColorMatrix in="SourceAlpha" type="matrix" values="0 0 0 0 0 0 0 0 0 0 0 0 0 0 0 0 0 0 127 0" result="hardAlpha"/>
<feOffset dy="100"/>
<feGaussianBlur stdDeviation="20"/>
<feComposite in2="hardAlpha" operator="out"/>
<feColorMatrix type="matrix" values="0 0 0 0 0 0 0 0 0 0 0 0 0 0 0 0 0 0 0.25 0"/>
<feBlend mode="normal" in2="BackgroundImageFix" result="effect1_dropShadow_365_35"/>
<feBlend mode="normal" in="SourceGraphic" in2="effect1_dropShadow_365_35" result="shape"/>
</filter>
<filter id="filter13_d_365_35" x="184.448" y="425.875" width="465.103" height="548.25" filterUnits="userSpaceOnUse" color-interpolation-filters="sRGB">
<feFlood flood-opacity="0" result="BackgroundImageFix"/>
<feColorMatrix in="SourceAlpha" type="matrix" values="0 0 0 0 0 0 0 0 0 0 0 0 0 0 0 0 0 0 127 0" result="hardAlpha"/>
<feOffset dy="100"/>
<feGaussianBlur stdDeviation="20"/>
<feComposite in2="hardAlpha" operator="out"/>
<feColorMatrix type="matrix" values="0 0 0 0 0 0 0 0 0 0 0 0 0 0 0 0 0 0 0.25 0"/>
<feBlend mode="normal" in2="BackgroundImageFix" result="effect1_dropShadow_365_35"/>
<feBlend mode="normal" in="SourceGraphic" in2="effect1_dropShadow_365_35" result="shape"/>
</filter>
<filter id="filter14_d_365_35" x="365.448" y="587.875" width="465.103" height="548.25" filterUnits="userSpaceOnUse" color-interpolation-filters="sRGB">
<feFlood flood-opacity="0" result="BackgroundImageFix"/>
<feColorMatrix in="SourceAlpha" type="matrix" values="0 0 0 0 0 0 0 0 0 0 0 0 0 0 0 0 0 0 127 0" result="hardAlpha"/>
<feOffset dy="100"/>
<feGaussianBlur stdDeviation="20"/>
<feComposite in2="hardAlpha" operator="out"/>
<feColorMatrix type="matrix" values="0 0 0 0 0 0 0 0 0 0 0 0 0 0 0 0 0 0 0.25 0"/>
<feBlend mode="normal" in2="BackgroundImageFix" result="effect1_dropShadow_365_35"/>
<feBlend mode="normal" in="SourceGraphic" in2="effect1_dropShadow_365_35" result="shape"/>
</filter>
<filter id="filter15_d_365_35" x="777.448" y="51.875" width="465.103" height="548.25" filterUnits="userSpaceOnUse" color-interpolation-filters="sRGB">
<feFlood flood-opacity="0" result="BackgroundImageFix"/>
<feColorMatrix in="SourceAlpha" type="matrix" values="0 0 0 0 0 0 0 0 0 0 0 0 0 0 0 0 0 0 127 0" result="hardAlpha"/>
<feOffset dy="100"/>
<feGaussianBlur stdDeviation="20"/>
<feComposite in2="hardAlpha" operator="out"/>
<feColorMatrix type="matrix" values="0 0 0 0 0 0 0 0 0 0 0 0 0 0 0 0 0 0 0.25 0"/>
<feBlend mode="normal" in2="BackgroundImageFix" result="effect1_dropShadow_365_35"/>
<feBlend mode="normal" in="SourceGraphic" in2="effect1_dropShadow_365_35" result="shape"/>
</filter>
<filter id="filter16_d_365_35" x="1036.45" y="5.875" width="465.103" height="548.25" filterUnits="userSpaceOnUse" color-interpolation-filters="sRGB">
<feFlood flood-opacity="0" result="BackgroundImageFix"/>
<feColorMatrix in="SourceAlpha" type="matrix" values="0 0 0 0 0 0 0 0 0 0 0 0 0 0 0 0 0 0 127 0" result="hardAlpha"/>
<feOffset dy="100"/>
<feGaussianBlur stdDeviation="20"/>
<feComposite in2="hardAlpha" operator="out"/>
<feColorMatrix type="matrix" values="0 0 0 0 0 0 0 0 0 0 0 0 0 0 0 0 0 0 0.25 0"/>
<feBlend mode="normal" in2="BackgroundImageFix" result="effect1_dropShadow_365_35"/>
<feBlend mode="normal" in="SourceGraphic" in2="effect1_dropShadow_365_35" result="shape"/>
</filter>
<filter id="filter17_d_365_35" x="921.448" y="180.875" width="465.103" height="548.25" filterUnits="userSpaceOnUse" color-interpolation-filters="sRGB">
<feFlood flood-opacity="0" result="BackgroundImageFix"/>
<feColorMatrix in="SourceAlpha" type="matrix" values="0 0 0 0 0 0 0 0 0 0 0 0 0 0 0 0 0 0 127 0" result="hardAlpha"/>
<feOffset dy="100"/>
<feGaussianBlur stdDeviation="20"/>
<feComposite in2="hardAlpha" operator="out"/>
<feColorMatrix type="matrix" values="0 0 0 0 0 0 0 0 0 0 0 0 0 0 0 0 0 0 0.25 0"/>
<feBlend mode="normal" in2="BackgroundImageFix" result="effect1_dropShadow_365_35"/>
<feBlend mode="normal" in="SourceGraphic" in2="effect1_dropShadow_365_35" result="shape"/>
</filter>
<filter id="filter18_d_365_35" x="951.448" y="682.875" width="465.103" height="548.25" filterUnits="userSpaceOnUse" color-interpolation-filters="sRGB">
<feFlood flood-opacity="0" result="BackgroundImageFix"/>
<feColorMatrix in="SourceAlpha" type="matrix" values="0 0 0 0 0 0 0 0 0 0 0 0 0 0 0 0 0 0 127 0" result="hardAlpha"/>
<feOffset dy="100"/>
<feGaussianBlur stdDeviation="20"/>
<feComposite in2="hardAlpha" operator="out"/>
<feColorMatrix type="matrix" values="0 0 0 0 0 0 0 0 0 0 0 0 0 0 0 0 0 0 0.25 0"/>
<feBlend mode="normal" in2="BackgroundImageFix" result="effect1_dropShadow_365_35"/>
<feBlend mode="normal" in="SourceGraphic" in2="effect1_dropShadow_365_35" result="shape"/>
</filter>
<filter id="filter19_d_365_35" x="452.578" y="1039.67" width="941.843" height="1086.67" filterUnits="userSpaceOnUse" color-interpolation-filters="sRGB">
<feFlood flood-opacity="0" result="BackgroundImageFix"/>
<feColorMatrix in="SourceAlpha" type="matrix" values="0 0 0 0 0 0 0 0 0 0 0 0 0 0 0 0 0 0 127 0" result="hardAlpha"/>
<feOffset dy="150"/>
<feGaussianBlur stdDeviation="22.5"/>
<feComposite in2="hardAlpha" operator="out"/>
<feColorMatrix type="matrix" values="0 0 0 0 0 0 0 0 0 0 0 0 0 0 0 0 0 0 0.25 0"/>
<feBlend mode="normal" in2="BackgroundImageFix" result="effect1_dropShadow_365_35"/>
<feBlend mode="normal" in="SourceGraphic" in2="effect1_dropShadow_365_35" result="shape"/>
</filter>
<filter id="filter20_d_365_35" x="964.578" y="287.667" width="941.843" height="1086.67" filterUnits="userSpaceOnUse" color-interpolation-filters="sRGB">
<feFlood flood-opacity="0" result="BackgroundImageFix"/>
<feColorMatrix in="SourceAlpha" type="matrix" values="0 0 0 0 0 0 0 0 0 0 0 0 0 0 0 0 0 0 127 0" result="hardAlpha"/>
<feOffset dy="150"/>
<feGaussianBlur stdDeviation="22.5"/>
<feComposite in2="hardAlpha" operator="out"/>
<feColorMatrix type="matrix" values="0 0 0 0 0 0 0 0 0 0 0 0 0 0 0 0 0 0 0.25 0"/>
<feBlend mode="normal" in2="BackgroundImageFix" result="effect1_dropShadow_365_35"/>
<feBlend mode="normal" in="SourceGraphic" in2="effect1_dropShadow_365_35" result="shape"/>
</filter>
<filter id="filter21_d_365_35" x="0.578369" y="287.667" width="941.843" height="1086.67" filterUnits="userSpaceOnUse" color-interpolation-filters="sRGB">
<feFlood flood-opacity="0" result="BackgroundImageFix"/>
<feColorMatrix in="SourceAlpha" type="matrix" values="0 0 0 0 0 0 0 0 0 0 0 0 0 0 0 0 0 0 127 0" result="hardAlpha"/>
<feOffset dy="150"/>
<feGaussianBlur stdDeviation="22.5"/>
<feComposite in2="hardAlpha" operator="out"/>
<feColorMatrix type="matrix" values="0 0 0 0 0 0 0 0 0 0 0 0 0 0 0 0 0 0 0.25 0"/>
<feBlend mode="normal" in2="BackgroundImageFix" result="effect1_dropShadow_365_35"/>
<feBlend mode="normal" in="SourceGraphic" in2="effect1_dropShadow_365_35" result="shape"/>
</filter>
</defs>
</svg>
