<svg width="501" height="501" viewBox="0 0 501 501" fill="none" xmlns="http://www.w3.org/2000/svg">
<path d="M102.082 151.718C95.2104 87.0592 157.004 44.1834 188.76 30.8279C265.287 13.5578 248.765 63.2167 308.737 73.7169C383.702 86.8421 394.897 154.698 384.646 183.277C358.877 255.12 426.573 266.392 412.094 323.728C394.894 391.834 419.122 395.572 337.91 455.672C272.94 503.752 236.692 448.255 214.046 428.222C189.318 416.017 133.317 434.837 102.082 358.573C63.0377 263.242 110.672 232.542 102.082 151.718Z" fill="#465717" stroke="#A80000" stroke-width="15.0074"/>
<path d="M399.516 282.332C338.162 386.257 196.569 399.717 133.441 393.457C166.309 423.977 197.612 410.673 217.959 423.194C262.566 473.279 287.608 467.801 297.781 467.801C368.526 435.872 391.951 398.674 394.82 384.066L401.863 333.199C406.82 324.59 413.289 302.365 399.516 282.332Z" fill="#404E18"/>
<path d="M228.132 153.99C230.01 193.432 124.05 228.595 99.0078 247.116C105.79 238.769 117.163 204.857 108.399 135.991C113.094 71.0375 183.525 33.474 203.872 34.2566C207.785 33.474 230.48 30.3437 246.131 42.8649C254.739 48.3429 274.304 72.6026 296.998 77.298C243.001 78.6023 226.254 114.548 228.132 153.99Z" fill="#4F621B"/>
<path d="M156.135 102.34C166.778 74.1676 195.525 65.5594 208.568 64.7768L242.218 90.6016C245.609 99.9925 253.487 124.096 257.87 145.382C263.348 171.989 181.178 180.597 167.091 179.032C153.005 177.467 142.832 137.556 156.135 102.34Z" fill="#3B4717"/>
<path d="M278.217 154.772C282.129 136.773 285.26 131.295 304.824 110.948C308.737 114.079 322.197 121.748 344.735 127.382C372.908 134.426 359.604 163.381 359.604 179.032C359.604 194.684 350.213 228.334 344.735 233.812C339.257 239.29 304.824 222.856 278.217 207.987C251.609 193.118 274.304 172.772 278.217 154.772Z" fill="#3B4717"/>
<path d="M124.833 243.986C106.834 243.986 121.702 214.248 131.093 186.075C139.441 186.075 158.327 189.049 167.091 200.944C178.047 215.813 175.7 219.726 173.352 233.812C171.005 247.898 142.832 243.986 124.833 243.986Z" fill="#3B4717"/>
<path d="M194.482 207.987C198.394 182.162 195.264 193.901 219.524 186.075C222.654 188.423 231.575 194.684 242.218 200.944C255.522 208.77 260.218 239.29 257.87 252.594C255.522 265.898 242.218 276.854 208.568 272.158C174.917 267.463 190.569 233.812 194.482 207.987Z" fill="#3B4717"/>
<path d="M194.482 289.375C180.396 261.985 181.178 272.158 138.919 264.332V305.809C138.919 315.982 151.44 348.068 167.091 352.763C182.743 357.458 194.482 348.85 199.96 344.155C205.438 339.459 208.568 316.765 194.482 289.375Z" fill="#3B4717"/>
<path d="M286.042 264.332C293.868 256.507 298.564 252.594 331.432 252.594C335.866 259.115 344.109 274.662 341.605 284.679C338.475 297.2 338.475 305.809 331.432 319.112C324.388 332.416 298.564 312.852 278.217 305.809C257.87 298.766 278.217 272.158 286.042 264.332Z" fill="#3B4717"/>
<path d="M344.735 319.112C337.692 301.113 359.604 289.375 376.821 277.636C380.212 285.201 387.464 301.426 389.342 305.809C391.69 311.287 385.429 352.763 376.821 352.763C368.212 352.763 351.778 337.112 344.735 319.112Z" fill="#3B4717"/>
<path d="M352.561 352.763C345.518 338.677 325.954 338.677 298.564 337.112C298.564 344.416 297.311 361.058 292.303 369.197C286.042 379.37 298.564 391.109 298.564 404.413C298.564 417.716 344.735 406.76 359.604 397.37C374.473 387.979 359.604 366.849 352.561 352.763Z" fill="#3B4717"/>
<path d="M219.524 337.112C196.829 314.417 219.524 312.069 228.132 289.375C240.392 298.244 265.852 316.608 269.608 319.112C274.304 322.243 278.217 352.763 269.608 362.936C261 373.11 242.218 359.806 219.524 337.112Z" fill="#3B4717"/>
<path d="M180.395 391.109C171.787 377.805 189.786 362.936 208.568 359.024C219.785 367.893 242.218 386.727 242.218 391.109C242.218 396.587 233.61 409.891 228.132 413.021C222.654 416.151 189.004 404.413 180.395 391.109Z" fill="#3B4717"/>
<path d="M124.833 362.936C118.572 356.676 113.094 337.112 113.094 328.503H117.007C123.007 331.373 136.571 338.52 142.832 344.155C150.658 351.198 158.483 369.197 160.831 374.675C163.179 380.153 156.918 385.631 148.31 391.109C139.702 396.587 131.093 369.197 124.833 362.936Z" fill="#3B4717"/>
<path d="M271.956 409.891L271.956 409.891L286.042 413.021C293.086 417.716 307.328 430.081 307.954 441.976C308.737 456.845 298.564 457.628 278.217 455.28C257.87 452.932 257.87 437.281 257.87 427.107C257.87 416.934 265.695 413.021 271.956 409.891Z" fill="#3B4717"/>
</svg>
