<svg width="501" height="501" viewBox="0 0 501 501" fill="none" xmlns="http://www.w3.org/2000/svg">
<path d="M166.764 378.927C148.903 341.499 89.9113 160.822 89.9113 160.822L117.228 66.812C148.083 49.6332 189.618 14.6296 195.911 14.8311L327.788 19.0524C350.822 36.2572 397.503 71.7058 399.954 75.862C402.406 80.0181 414.31 147.942 416.134 171.264L334.97 383.366L339.399 424.385L281.082 461.788C271.381 456.511 250.781 445.762 245.991 444.981C241.2 444.2 206.105 456.3 188.642 461.23L155.516 409.714L166.764 378.927Z" fill="#A80000"/>
<path d="M122.948 312.871C124.1 281.398 159.121 267.076 175.522 259.708C209.599 270.146 185.222 292.557 176.312 294.699C167.401 296.841 164.848 293.163 122.948 312.871Z" fill="#A80000"/>
<path d="M141.11 335.758C140.766 314.242 157.711 311.409 166.288 308.197C185.47 314.368 173.328 324.861 168.57 325.678C163.812 326.495 161.907 323.555 141.11 335.758Z" fill="#A80000"/>
<path d="M154.045 368.247C154.883 342.987 178.257 338.246 188.105 333.682C208.268 339.794 193.499 353.518 188.171 354.87C182.842 356.222 178.539 351.79 154.045 368.247Z" fill="#A80000"/>
<path d="M182.055 463.606C162.093 448.107 171.967 426.398 174.05 415.745C190.83 403.004 193.278 423.015 191.246 428.124C189.215 433.233 183.101 434.117 182.055 463.606Z" fill="#A80000"/>
<path d="M199.011 475.075C179.048 459.576 188.923 437.867 191.006 427.214C207.786 414.473 210.233 434.484 208.202 439.593C206.17 444.701 200.056 445.586 199.011 475.075Z" fill="#A80000"/>
<path d="M289.395 470.048C310.925 452.932 299.475 431.906 297.053 421.326C279.875 409.127 278.068 429.207 280.262 434.248C282.456 439.289 286.398 439.907 289.395 470.048Z" fill="#A80000"/>
<path d="M308.04 462.203C329.57 445.087 318.12 424.061 315.698 413.481C298.52 401.282 296.713 421.362 298.907 426.403C301.101 431.444 305.043 432.062 308.04 462.203Z" fill="#A80000"/>
<path d="M379.218 300.116C385.903 266.884 367.259 267.35 359.731 260.789C337.768 261.815 351.097 278.012 355.644 280.517C360.191 283.022 355.672 282.266 379.218 300.116Z" fill="#A80000"/>
<path d="M363.178 327.007C368.198 301.79 352.619 297.972 346.019 292.151C326.833 293.024 334.204 307.45 338.186 309.675C342.167 311.901 342.249 309.61 363.178 327.007Z" fill="#A80000"/>
<path d="M182.239 390.983C166.446 354.223 108.256 166.213 108.256 166.213L132.891 73.6634C160.434 56.6745 197.548 22.1214 203.154 22.3008L320.627 26.0611C341.093 42.9154 382.568 77.6441 384.738 81.7249C386.909 85.8056 397.297 152.58 398.848 175.515L322.994 389.704L326.466 432.77L277.607 461.676C268.981 456.515 250.663 446.003 246.398 445.25C242.132 444.496 209.919 454.11 194.345 459.011L172.107 421.658L182.239 390.983Z" fill="#A80000"/>
<path d="M235.656 395.192C234.188 394.783 214.223 389.831 204.424 387.407L205.432 358.035L224.59 353.219L252.181 372.65L282.894 355.086L298.903 361.027L295.289 385.339C286.054 388.964 266.921 396.645 264.268 398.37C260.951 400.525 237.492 395.703 235.656 395.192Z" fill="#A80000"/>
<path d="M157.73 263.319C148.871 238.004 130.806 186.73 129.412 184.152L153.492 170.899L194.915 205.701L183.953 255.111L205.966 315.529L182.401 300.298L157.73 263.319Z" fill="#A80000"/>
<path d="M339.087 270.029C349.663 245.336 371.207 195.329 372.775 192.846L349.657 178.083L305.937 210.159L313.485 260.162L287.375 319.039L311.933 305.349L339.087 270.029Z" fill="#A80000"/>
<path d="M130.98 154.798L146.566 119.107L187.898 143.049L171.424 218.068C158.367 207.094 131.797 184.952 129.971 184.17C128.145 183.388 129.883 164.263 130.98 154.798Z" fill="#A80000"/>
<path d="M376.128 162.645L363.025 126.036L320.141 147.282L331.431 223.189C345.212 213.075 373.244 192.681 375.119 192.017C376.995 191.353 376.573 172.159 376.128 162.645Z" fill="#A80000"/>
<ellipse cx="21.8606" cy="21.3496" rx="21.8606" ry="21.3496" transform="matrix(0.999488 0.0319931 -0.0343238 0.999411 324.613 151.948)" fill="#A80000"/>
<ellipse cx="13.1164" cy="12.8098" rx="13.1164" ry="12.8098" transform="matrix(0.999488 0.0319931 -0.0343238 0.999411 326.361 152.004)" fill="#A80000"/>
<ellipse cx="21.8606" cy="21.3496" rx="21.8606" ry="21.3496" transform="matrix(0.999488 0.0319931 -0.0343238 0.999411 139.523 146.023)" fill="#A80000"/>
<ellipse cx="8.84216" cy="8.63548" rx="8.84216" ry="8.63548" transform="matrix(0.999488 0.0319931 -0.0343238 0.999411 140.273 148.768)" fill="#A80000"/>
<path d="M209.622 168.624C199.688 147.648 179.388 104.777 177.661 101.103L165.527 76.7384L206.548 42.314C239.417 42.9137 305.146 44.3843 305.109 45.4688C305.062 46.8245 332.572 82.0854 332.386 87.5079C332.199 92.9304 314.628 105.487 310.231 112.132C306.713 117.447 302.464 153.954 300.779 171.542L333.838 220.552L326.535 257.865L307.784 304.764L275.096 361.084L282.892 414.315L206.496 415.537L230.191 361.801L204.795 309.158L179.85 253.17L169.816 221.635L209.622 168.624Z" fill="#465717"/>
<path d="M198.887 257.397L182.526 218.772L187.264 196.54L186.628 156.758L142.47 117.221C143.625 102.582 166.726 99.3794 166.68 96.4862C166.634 93.593 201.175 101.21 214.521 105.669L225.573 130.814L237.167 189.864L198.887 257.397Z" fill="#A80000"/>
<path d="M309.101 257.896L324.219 218.768L298.912 199.857L314.015 159.825L361.587 123.214C359.965 108.619 330.132 109.265 328.45 106.884C325.607 102.86 326.378 102.826 313.182 107.709L274.262 135.138L264.561 194.528L309.101 257.896Z" fill="#A80000"/>
<path d="M176.168 158.054L153.022 130.623L140.547 116.2C159.457 118.615 198.439 124.658 203.09 129.511C207.741 134.365 214.844 151.451 217.814 159.387L202.998 199.626L168.828 223.413L169.682 198.56L176.168 158.054Z" fill="#A80000"/>
<path d="M176.694 157.822L219.562 160.324L204.754 199.715L167.792 223.982L176.694 157.822Z" fill="#A80000"/>
<path d="M330.812 160.29L355.789 134.399L369.227 120.806C350.193 122.006 310.881 125.543 305.908 130.088C300.934 134.634 292.674 151.228 289.166 158.957L301.189 200.055L333.651 225.975L334.505 201.121L330.812 160.29Z" fill="#A80000"/>
<path d="M329.154 160.18L289.027 160.821L299.39 200.98L335.323 226.625L329.154 160.18Z" fill="#A80000"/>
<path d="M150.445 138.231L141.457 116.681L177.078 158.535L168.474 220.235L166.492 183.529L167.128 165.002L150.445 138.231Z" fill="#A80000"/>
<path d="M356.929 141.673L368.958 120.835L328.961 160.23L333.313 222.345L337.809 185.846L338.446 167.319L356.929 141.673Z" fill="#A80000"/>
<path d="M182.701 412.949C187.35 407.971 197.768 397.779 202.247 396.837L217.517 397.326L240.343 407.104L268.569 408.007L290.289 396.036L309.724 396.658L315.597 414.489L281.091 421.075C274.119 421.756 258.602 423.069 252.309 422.867C246.016 422.666 241.42 420.709 239.908 419.756L214.828 421.668C207.244 422.179 191.238 423.355 187.881 423.972C184.525 424.588 183.029 416.88 182.701 412.949Z" fill="#A80000"/>
<path d="M73.8069 167.802L133.341 234.765L395.502 214.449L433.359 167.802L437.736 107.772C426.109 93.1411 390.057 69.0347 387.086 65.2515C384.116 61.4682 210.795 64.8292 117.579 66.5021C98.3134 83.9375 67.8171 111.449 66.9285 116.527C66.0399 121.605 70.1354 143.48 73.8069 167.802Z" fill="#A80000"/>
<path d="M86.9384 161.549L128.834 212.824L380.833 212.824L419.602 161.549L422.58 113.342C412.178 100.253 383.187 85.0531 380.53 81.6686C377.872 78.2841 212.227 76.261 128.834 77.7577C111.599 93.3556 82.6493 118.032 81.8543 122.575C81.0593 127.118 86.9384 161.549 86.9384 161.549Z" fill="#344110"/>
<path d="M179.821 377.236C163.634 342.525 103.803 165.076 103.803 165.076L128.505 77.9133C156.438 61.9946 194.036 29.5514 199.734 29.7404L319.15 33.7006C340.014 49.662 383.614 82.6572 385.836 86.5119C388.057 90.3666 397.541 153.246 399.201 174.872L322.882 376.528L326.569 417.14L274.531 439.811C265.745 434.915 249.57 429.347 245.231 428.622C240.893 427.896 214.68 435.246 198.868 439.811L169.635 406.119L179.821 377.236Z" fill="#344110"/>
<path d="M195.712 464.224C186.831 451.766 191.077 432.957 194.311 425.11C212.562 419.185 212.891 435.467 210.301 438.981C207.711 442.494 199.91 441.356 195.712 464.224Z" fill="#D9D9D9"/>
<path d="M179.208 454.513C171.531 441.78 174.072 423.361 176.301 415.744C190.64 410.713 191.646 426.841 189.733 430.199C187.82 433.557 181.525 432.076 179.208 454.513Z" fill="#D9D9D9"/>
<path d="M128.953 304.68C132.646 290.292 151.377 278.509 160.28 274.416C178.784 280.226 165.554 292.682 160.716 293.871C155.878 295.06 151.007 289.811 128.953 304.68Z" fill="#D9D9D9"/>
<path d="M143.609 330.048C146.949 317.329 163.447 306.85 171.279 303.2C187.452 308.256 175.768 319.307 171.521 320.376C167.273 321.446 163.042 316.831 143.609 330.048Z" fill="#D9D9D9"/>
<path d="M157.756 362.152C161.692 347.58 180.508 335.481 189.423 331.253C207.684 336.927 194.315 349.647 189.491 350.9C184.666 352.152 179.928 346.901 157.756 362.152Z" fill="#D9D9D9"/>
<path d="M173.118 382.356C175.555 372.554 188.379 364.593 194.486 361.837C207.287 365.881 198.26 374.325 194.934 375.116C191.608 375.906 188.21 372.304 173.118 382.356Z" fill="#D9D9D9"/>
<path d="M377.394 291.464C379.632 276.892 366.554 261.077 359.735 254.991C339.847 255.935 347.435 271.029 351.553 273.354C355.672 275.678 362.392 271.898 377.394 291.464Z" fill="#D9D9D9"/>
<path d="M360.699 319.58C362.607 306.68 351.128 292.654 345.15 287.254C327.777 288.057 334.457 301.436 338.062 303.501C341.668 305.566 347.527 302.23 360.699 319.58Z" fill="#D9D9D9"/>
<path d="M345.118 353.245C346.577 338.546 334.442 322.318 328.193 316.042C310.634 316.645 317.886 332.047 321.612 334.471C325.338 336.894 331.148 333.19 345.118 353.245Z" fill="#D9D9D9"/>
<path d="M328.634 373.362C330.234 363.453 321.238 352.727 316.54 348.602C302.772 349.278 307.97 359.524 310.813 361.097C313.655 362.67 318.319 360.089 328.634 373.362Z" fill="#D9D9D9"/>
<path d="M291.773 461.228C301.8 449.488 298.327 430.295 295.337 422.166C276.413 414.714 275.197 430.996 277.74 434.73C280.283 438.465 288.567 437.974 291.773 461.228Z" fill="#D9D9D9"/>
<path d="M311.011 453.616C319.514 441.42 318.2 422.874 316.48 415.125C302.506 409.155 300.434 425.181 302.12 428.659C303.806 432.136 310.186 431.075 311.011 453.616Z" fill="#D9D9D9"/>
<path d="M187.486 378.529C173.172 344.437 120.08 178.808 120.08 178.808L102.571 154.671L98.8195 124.031L151.345 84.6361C176.279 68.8925 201.22 36.5012 206.296 36.6695L312.67 40.1972L359.573 84.6361L403.97 114.026L403.97 154.671L383.55 178.808L314.939 377.392L318.098 417.327L273.866 444.114C266.054 439.325 249.463 429.571 245.601 428.871C241.738 428.171 212.572 437.074 198.471 441.614L178.322 406.97L187.486 378.529Z" fill="#404E18"/>
<path d="M235.856 382.45C234.526 382.07 216.446 377.472 207.572 375.22L208.475 347.985L225.821 343.527L250.811 361.553L278.616 345.277L293.114 350.792L289.85 373.335C281.489 376.693 264.167 383.808 261.765 385.407C258.762 387.404 237.518 382.925 235.856 382.45Z" fill="#3B4717"/>
<path d="M165.248 260.142C157.218 236.665 140.842 189.114 139.579 186.723L161.379 174.442L198.899 206.727L188.99 252.54L208.944 308.571L187.601 294.44L165.248 260.142Z" fill="#344110"/>
<path d="M329.469 266.427C339.037 243.534 358.528 197.172 359.947 194.87L339.008 181.172L299.432 210.9L306.283 257.268L282.661 311.855L304.894 299.169L329.469 266.427Z" fill="#344110"/>
<path d="M140.988 159.504L155.089 126.415L192.524 148.629L177.633 218.186C165.806 208.007 141.739 187.466 140.085 186.74C138.431 186.014 139.998 168.28 140.988 159.504Z" fill="#394711"/>
<path d="M362.973 166.866L351.095 132.915L312.271 152.601L322.521 222.991C334.996 213.617 360.371 194.716 362.07 194.101C363.768 193.486 363.379 175.688 362.973 166.866Z" fill="#394711"/>
<circle cx="340.001" cy="177.024" r="19.7958" transform="rotate(1.8994 340.001 177.024)" fill="black"/>
<circle cx="333.933" cy="168.9" r="11.8775" transform="rotate(1.8994 333.933 168.9)" fill="#FDFDFD"/>
<circle cx="166.146" cy="171.465" r="19.7958" transform="rotate(1.8994 166.146 171.465)" fill="black"/>
<circle cx="155.436" cy="161.838" r="8.00698" transform="rotate(1.8994 155.436 161.838)" fill="#FDFDFD"/>
<path d="M212.203 172.353C203.201 152.899 184.804 113.138 183.239 109.731L172.244 87.1345L209.376 55.2282C239.139 55.7957 298.657 57.1823 298.624 58.1879C298.582 59.4449 323.504 92.1508 323.338 97.1788C323.171 102.207 307.265 113.844 303.285 120.004C300.102 124.932 296.267 158.781 294.747 175.09L324.699 220.547L318.099 255.144L301.137 298.625L271.557 350.837L278.635 400.199L209.459 401.305L230.896 351.487L207.882 302.663L185.275 250.739L176.177 221.494L212.203 172.353Z" fill="#465717"/>
<path d="M202.514 254.665L187.685 218.843L191.968 198.23L191.378 161.342L151.379 124.665C152.42 111.091 173.337 108.129 173.294 105.446C173.251 102.764 204.531 109.838 216.617 113.978L226.633 137.298L237.152 192.057L202.514 254.665Z" fill="#4F621B"/>
<path d="M302.312 255.166L315.988 218.889L293.066 201.345L306.729 164.229L349.792 130.298C348.318 116.765 321.304 117.353 319.78 115.145C317.205 111.412 317.903 111.381 305.956 115.904L270.723 141.325L261.96 196.392L302.312 255.166Z" fill="#4F621B"/>
<path d="M181.907 162.539L160.939 137.095L149.638 123.717C166.761 125.963 202.062 131.58 206.275 136.082C210.488 140.584 216.926 156.43 219.618 163.79L206.216 201.097L175.284 223.142L176.048 200.097L181.907 162.539Z" fill="#4F621B"/>
<path d="M182.384 162.324L221.201 164.659L207.806 201.181L174.346 223.669L182.384 162.324Z" fill="#3B4717"/>
<path d="M321.938 164.666L344.546 140.667L356.709 128.067C339.474 129.174 303.879 132.44 299.377 136.653C294.875 140.866 287.402 156.25 284.228 163.416L295.128 201.529L324.532 225.575L325.297 202.529L321.938 164.666Z" fill="#4F621B"/>
<path d="M320.437 164.564L284.102 165.145L293.5 202.386L326.046 226.178L320.437 164.564Z" fill="#3B4717"/>
<path d="M158.608 144.149L150.462 124.164L182.732 162.986L174.962 220.195L173.154 186.158L173.724 168.979L158.608 144.149Z" fill="#3B4717"/>
<path d="M345.581 147.413L356.466 128.095L320.262 164.611L324.225 222.209L328.283 188.367L328.853 171.188L345.581 147.413Z" fill="#3B4717"/>
<path d="M187.912 398.897C192.12 394.283 201.549 384.836 205.605 383.964L219.432 384.422L240.105 393.497L265.664 394.345L285.327 383.252L302.925 383.836L308.25 400.371L277.007 406.466C270.694 407.096 256.644 408.308 250.945 408.119C245.247 407.93 241.084 406.114 239.716 405.229L217.006 406.993C210.139 407.464 195.645 408.55 192.606 409.12C189.567 409.691 188.21 402.543 187.912 398.897Z" fill="#4F621B"/>
<path d="M198.282 440.349C193.914 432.933 185.018 417.845 184.381 416.817C187.924 415.396 195.512 412.572 197.523 412.639C200.037 412.722 225.555 414.827 230.583 414.993L267.874 416.23C276.31 414.832 294.195 411.818 298.251 410.946C303.321 409.855 316.087 416.99 317.317 417.87C318.3 418.574 288.092 434.798 272.865 442.822C264.358 437.926 246.926 428.119 245.25 428.064C243.574 428.008 213.24 436.23 198.282 440.349Z" fill="#3B4717"/>
</svg>
