<svg width="501" height="500" viewBox="0 0 501 500" fill="none" xmlns="http://www.w3.org/2000/svg">
<mask id="path-1-outside-1_571_22214" maskUnits="userSpaceOnUse" x="19.6084" y="68.2874" width="462" height="361" fill="black">
<rect fill="white" x="19.6084" y="68.2874" width="462" height="361"/>
<path d="M173.476 262.379C173.85 262.306 174.236 262.42 174.509 262.685L235.264 321.459C235.916 322.089 237.006 321.767 237.211 320.884L247.525 276.407C247.601 276.077 247.53 275.73 247.33 275.456L198.217 208.178C198.025 207.914 197.744 207.745 197.42 207.708C167.271 204.287 106.601 197.824 101.181 198.908C95.7815 199.988 62.2953 233.702 45.7769 250.888C45.4881 251.188 45.3919 251.61 45.5081 252.01L83.3755 382.518C83.4367 382.728 83.5561 382.918 83.72 383.064L124.501 419.384C125.333 420.125 126.632 419.389 126.422 418.294L118.262 375.609C118.229 375.436 118.157 375.273 118.052 375.132L96.685 346.42C96.5098 346.185 96.4298 345.892 96.4609 345.6L103.814 276.744C103.869 276.235 104.249 275.821 104.752 275.723L173.476 262.379Z"/>
<path d="M325.221 262.5C324.847 262.427 324.461 262.541 324.187 262.806L263.433 321.58C262.781 322.21 261.69 321.888 261.485 321.005L251.172 276.528C251.095 276.198 251.166 275.851 251.366 275.577L300.479 208.299C300.671 208.035 300.953 207.866 301.277 207.829C331.426 204.408 392.095 197.946 397.515 199.03C402.915 200.109 436.401 233.823 452.919 251.009C453.208 251.309 453.305 251.731 453.188 252.131L415.313 382.667C415.257 382.86 415.152 383.035 415.009 383.175L377.391 420.042C376.605 420.812 375.289 420.167 375.416 419.075L380.449 375.778C380.472 375.575 380.549 375.381 380.671 375.217L402.011 346.541C402.187 346.306 402.267 346.013 402.235 345.721L394.882 276.865C394.828 276.356 394.447 275.942 393.944 275.844L325.221 262.5Z"/>
<path d="M320.35 370.695C319.377 370.259 318.371 371.214 318.859 372.161C330.322 394.447 363.637 408.666 379.835 413.235C380.112 413.313 380.412 413.274 380.668 413.145C411.064 397.812 384.876 379.99 376.116 379.29C367.511 378.602 360.401 388.663 320.35 370.695Z"/>
<path d="M179.221 107.624C178.974 107.624 178.742 107.696 178.542 107.841C160.131 121.238 124.582 146.048 110.969 151.972C109.862 152.454 109.569 154.876 110.628 155.456L184.71 196.04C184.882 196.134 185.075 196.184 185.271 196.184H349.493C349.713 196.184 349.928 196.121 350.114 196.004L416.218 154.359C416.984 153.876 416.933 152.745 416.128 152.333L328.962 107.752C328.797 107.668 328.615 107.624 328.43 107.624H179.221Z"/>
<path d="M361.448 211.138C361.031 210.762 360.405 210.736 359.959 211.077L294.963 260.661C294.76 260.816 294.511 260.9 294.256 260.9H250.186C249.537 260.9 249.013 260.371 249.02 259.722L250.37 128.061L287.343 133.439C287.659 133.485 287.98 133.399 288.231 133.202L360.172 76.7248C360.514 76.456 360.978 76.4002 361.374 76.58L433.825 109.451C434.128 109.589 434.358 109.85 434.457 110.168L473.747 236.845C473.791 236.985 473.807 237.132 473.796 237.279L463.641 372C463.612 372.389 463.391 372.737 463.052 372.928L377.145 421.456C376.197 421.991 375.097 421.05 375.479 420.03L388.547 385.183C388.621 384.987 388.745 384.815 388.908 384.684L416.218 362.703C416.456 362.511 416.61 362.233 416.645 361.929L423.384 303.977C423.396 303.871 423.394 303.764 423.377 303.659L416.654 261.307C416.613 261.044 416.482 260.803 416.284 260.624L361.448 211.138Z"/>
<path d="M139.973 211.138C140.39 210.762 141.016 210.736 141.462 211.077L206.458 260.661C206.661 260.816 206.91 260.9 207.166 260.9H249.204C249.848 260.9 250.37 260.378 250.37 259.734V128.061L220.849 132.086C220.558 132.126 220.262 132.054 220.022 131.886L141.237 76.6694C140.9 76.4326 140.462 76.3919 140.086 76.5624L67.5966 109.451C67.2932 109.589 67.0632 109.85 66.9645 110.168L27.6741 236.845C27.6307 236.985 27.6141 237.132 27.6251 237.279L37.78 372C37.8093 372.389 38.0304 372.737 38.3694 372.928L124.276 421.456C125.224 421.991 126.324 421.05 125.942 420.03L112.874 385.183C112.801 384.987 112.676 384.815 112.513 384.684L85.2037 362.703C84.9652 362.511 84.8118 362.233 84.7764 361.929L78.0378 303.977C78.0255 303.871 78.0277 303.764 78.0444 303.659L84.767 261.307C84.8088 261.044 84.9396 260.803 85.1375 260.624L139.973 211.138Z"/>
<path d="M74.2703 146.777C74.2829 146.664 74.3115 146.559 74.3558 146.454L89.1283 111.789C89.4049 111.14 90.1899 110.883 90.7967 111.243L129.712 134.336C130.143 134.592 130.362 135.094 130.258 135.584L114.622 208.619C114.437 209.485 113.397 209.841 112.725 209.264C99.4166 197.822 75.0399 177.044 73.305 176.282C71.5136 175.496 73.1908 156.393 74.2703 146.777Z"/>
<path d="M123.252 160.357C122.857 172.261 112.887 181.591 100.983 181.197C89.0787 180.802 79.7486 170.832 80.1434 158.928C80.5381 147.024 90.5083 137.693 102.412 138.088C114.316 138.483 123.647 148.453 123.252 160.357Z"/>
<path d="M98.7471 149.443C98.5875 154.258 94.5547 158.032 89.7398 157.872C84.9248 157.713 81.151 153.68 81.3107 148.865C81.4704 144.05 85.5031 140.276 90.318 140.436C95.133 140.595 98.9068 144.628 98.7471 149.443Z"/>
<path d="M118.787 150.435C118.838 150.106 118.747 149.771 118.535 149.514L96.0243 122.198L85.656 109.925C84.9684 109.111 85.6299 107.878 86.6856 108.022C106.168 110.686 141.057 116.438 145.414 121.095C149.931 125.921 156.795 142.715 159.807 150.89C159.902 151.146 159.9 151.421 159.808 151.678L145.474 191.58C145.393 191.804 145.247 191.998 145.053 192.136L113.573 214.571C112.786 215.132 111.698 214.548 111.73 213.582L112.484 190.834L118.787 150.435Z"/>
<path d="M119.245 150.762C119.324 150.154 119.86 149.712 120.472 149.749L160.11 152.133C160.89 152.18 161.404 152.965 161.135 153.699L147.212 191.659C147.128 191.89 146.972 192.089 146.768 192.226L112.772 215.074C111.939 215.634 110.834 214.95 110.965 213.954L119.245 150.762Z"/>
<path d="M93.5331 129.963C93.5008 129.91 93.4728 129.854 93.4493 129.796L87.4611 115.105C86.9577 113.87 88.5859 112.894 89.4383 113.919L119.438 150.01C119.647 150.261 119.741 150.589 119.697 150.913L112.966 200.472C112.775 201.875 110.72 201.791 110.645 200.377L109.332 175.649L109.941 157.282C109.949 157.055 109.89 156.83 109.772 156.636L93.5331 129.963Z"/>
<path d="M423.943 146.777C423.93 146.664 423.902 146.559 423.857 146.454L409.085 111.789C408.808 111.14 408.023 110.883 407.416 111.243L368.501 134.336C368.07 134.592 367.851 135.094 367.955 135.584L383.591 208.619C383.776 209.485 384.816 209.841 385.488 209.264C398.796 197.822 423.173 177.044 424.908 176.282C426.699 175.496 425.022 156.393 423.943 146.777Z"/>
<path d="M374.961 160.357C375.356 172.261 385.326 181.591 397.23 181.197C409.134 180.802 418.465 170.832 418.07 158.928C417.675 147.024 407.705 137.693 395.801 138.088C383.897 138.483 374.567 148.453 374.961 160.357Z"/>
<path d="M399.466 149.443C399.626 154.258 403.658 158.032 408.473 157.872C413.288 157.713 417.062 153.68 416.902 148.865C416.743 144.05 412.71 140.276 407.895 140.436C403.08 140.595 399.306 144.628 399.466 149.443Z"/>
<path d="M379.426 150.435C379.375 150.106 379.466 149.771 379.678 149.514L402.189 122.198L412.557 109.925C413.245 109.111 412.583 107.878 411.527 108.022C392.045 110.686 357.156 116.438 352.799 121.095C348.282 125.921 341.418 142.715 338.406 150.89C338.311 151.146 338.313 151.421 338.405 151.678L352.739 191.58C352.82 191.804 352.966 191.998 353.16 192.136L384.64 214.571C385.427 215.132 386.515 214.548 386.483 213.582L385.729 190.834L379.426 150.435Z"/>
<path d="M378.968 150.762C378.888 150.154 378.353 149.712 377.741 149.749L338.103 152.133C337.323 152.18 336.809 152.965 337.078 153.699L351 191.659C351.085 191.89 351.241 192.089 351.445 192.226L385.441 215.074C386.274 215.634 387.379 214.95 387.248 213.954L378.968 150.762Z"/>
<path d="M404.68 129.963C404.712 129.91 404.74 129.854 404.764 129.796L410.752 115.105C411.255 113.87 409.627 112.894 408.775 113.919L378.775 150.01C378.566 150.261 378.472 150.589 378.516 150.913L385.247 200.472C385.438 201.875 387.493 201.791 387.568 200.377L388.881 175.649L388.272 157.282C388.265 157.055 388.323 156.83 388.442 156.636L404.68 129.963Z"/>
<path d="M249.546 212.817C249.209 212.639 248.806 212.637 248.467 212.812L186.723 244.68C186.138 244.982 185.919 245.708 186.239 246.284L215.506 298.831C215.586 298.975 215.635 299.134 215.649 299.298L218.327 330.187C218.344 330.378 218.407 330.563 218.513 330.724L248.093 375.991C248.537 376.67 249.521 376.7 250.006 376.049L282.205 332.775C282.325 332.614 282.401 332.425 282.426 332.226L287.133 295.149C287.148 295.025 287.184 294.904 287.238 294.791L310.514 246.244C310.785 245.679 310.561 245.001 310.006 244.708L249.546 212.817Z"/>
<path d="M230.699 263.987C230.644 263.752 230.517 263.539 230.335 263.379L184.529 222.961C184.373 222.824 184.257 222.647 184.192 222.45L170.666 181.197L160.03 152.611C159.87 152.18 159.472 151.884 159.014 151.854L119.403 149.213C119.078 149.191 118.777 149.035 118.572 148.781L86.6912 109.249C86.0263 108.424 86.7157 107.212 87.7641 107.362L170.368 119.162C170.564 119.19 170.749 119.267 170.907 119.386L226.215 161.205C226.417 161.358 226.664 161.441 226.918 161.441H275.209C275.448 161.441 275.68 161.368 275.876 161.232L335.972 119.367C336.125 119.26 336.301 119.192 336.486 119.167L410.184 109.385C411.242 109.244 411.917 110.481 411.227 111.295L379.449 148.793C379.241 149.039 378.949 149.187 378.627 149.204C364.839 149.892 337.82 151.222 336.205 151.222C334.57 151.222 325.986 171.205 321.899 181.197L308.369 222.463C308.307 222.652 308.198 222.822 308.052 222.957L264.309 263.335C264.106 263.522 263.976 263.776 263.942 264.049L257.229 318.427C257.199 318.673 257.247 318.921 257.367 319.137L263.625 330.402C263.85 330.806 263.814 331.305 263.535 331.673L249.928 349.609C249.464 350.22 248.546 350.225 248.076 349.617L237.818 336.342C237.574 336.026 237.508 335.608 237.643 335.233L243.441 319.13C243.517 318.918 243.53 318.688 243.479 318.468L230.699 263.987Z"/>
<path d="M178.43 369.332C179.402 368.896 180.408 369.851 179.921 370.799C168.457 393.085 135.142 407.303 118.944 411.873C118.668 411.951 118.368 411.912 118.112 411.783C87.7153 396.45 113.903 378.628 122.663 377.927C131.269 377.239 138.379 387.301 178.43 369.332Z"/>
<path d="M151.181 332.546C152.153 332.11 153.159 333.065 152.672 334.013C141.208 356.298 107.893 370.517 91.6952 375.087C91.4189 375.165 91.119 375.125 90.8627 374.996C60.4661 359.663 86.6542 341.842 95.4142 341.141C104.019 340.453 111.13 350.515 151.181 332.546Z"/>
<path d="M344.057 332.546C343.084 332.11 342.078 333.065 342.566 334.013C354.029 356.298 387.344 370.517 403.542 375.087C403.819 375.165 404.119 375.125 404.375 374.996C434.771 359.663 408.583 341.842 399.823 341.141C391.218 340.453 384.108 350.515 344.057 332.546Z"/>
</mask>
<path d="M173.476 262.379C173.85 262.306 174.236 262.42 174.509 262.685L235.264 321.459C235.916 322.089 237.006 321.767 237.211 320.884L247.525 276.407C247.601 276.077 247.53 275.73 247.33 275.456L198.217 208.178C198.025 207.914 197.744 207.745 197.42 207.708C167.271 204.287 106.601 197.824 101.181 198.908C95.7815 199.988 62.2953 233.702 45.7769 250.888C45.4881 251.188 45.3919 251.61 45.5081 252.01L83.3755 382.518C83.4367 382.728 83.5561 382.918 83.72 383.064L124.501 419.384C125.333 420.125 126.632 419.389 126.422 418.294L118.262 375.609C118.229 375.436 118.157 375.273 118.052 375.132L96.685 346.42C96.5098 346.185 96.4298 345.892 96.4609 345.6L103.814 276.744C103.869 276.235 104.249 275.821 104.752 275.723L173.476 262.379Z" fill="#3B4717"/>
<path d="M325.221 262.5C324.847 262.427 324.461 262.541 324.187 262.806L263.433 321.58C262.781 322.21 261.69 321.888 261.485 321.005L251.172 276.528C251.095 276.198 251.166 275.851 251.366 275.577L300.479 208.299C300.671 208.035 300.953 207.866 301.277 207.829C331.426 204.408 392.095 197.946 397.515 199.03C402.915 200.109 436.401 233.823 452.919 251.009C453.208 251.309 453.305 251.731 453.188 252.131L415.313 382.667C415.257 382.86 415.152 383.035 415.009 383.175L377.391 420.042C376.605 420.812 375.289 420.167 375.416 419.075L380.449 375.778C380.472 375.575 380.549 375.381 380.671 375.217L402.011 346.541C402.187 346.306 402.267 346.013 402.235 345.721L394.882 276.865C394.828 276.356 394.447 275.942 393.944 275.844L325.221 262.5Z" fill="#3B4717"/>
<path d="M320.35 370.695C319.377 370.259 318.371 371.214 318.859 372.161C330.322 394.447 363.637 408.666 379.835 413.235C380.112 413.313 380.412 413.274 380.668 413.145C411.064 397.812 384.876 379.99 376.116 379.29C367.511 378.602 360.401 388.663 320.35 370.695Z" fill="#D9D9D9"/>
<path d="M179.221 107.624C178.974 107.624 178.742 107.696 178.542 107.841C160.131 121.238 124.582 146.048 110.969 151.972C109.862 152.454 109.569 154.876 110.628 155.456L184.71 196.04C184.882 196.134 185.075 196.184 185.271 196.184H349.493C349.713 196.184 349.928 196.121 350.114 196.004L416.218 154.359C416.984 153.876 416.933 152.745 416.128 152.333L328.962 107.752C328.797 107.668 328.615 107.624 328.43 107.624H179.221Z" fill="#27310B"/>
<path d="M361.448 211.138C361.031 210.762 360.405 210.736 359.959 211.077L294.963 260.661C294.76 260.816 294.511 260.9 294.256 260.9H250.186C249.537 260.9 249.013 260.371 249.02 259.722L250.37 128.061L287.343 133.439C287.659 133.485 287.98 133.399 288.231 133.202L360.172 76.7248C360.514 76.456 360.978 76.4002 361.374 76.58L433.825 109.451C434.128 109.589 434.358 109.85 434.457 110.168L473.747 236.845C473.791 236.985 473.807 237.132 473.796 237.279L463.641 372C463.612 372.389 463.391 372.737 463.052 372.928L377.145 421.456C376.197 421.991 375.097 421.05 375.479 420.03L388.547 385.183C388.621 384.987 388.745 384.815 388.908 384.684L416.218 362.703C416.456 362.511 416.61 362.233 416.645 361.929L423.384 303.977C423.396 303.871 423.394 303.764 423.377 303.659L416.654 261.307C416.613 261.044 416.482 260.803 416.284 260.624L361.448 211.138Z" fill="#404E18"/>
<path d="M139.973 211.138C140.39 210.762 141.016 210.736 141.462 211.077L206.458 260.661C206.661 260.816 206.91 260.9 207.166 260.9H249.204C249.848 260.9 250.37 260.378 250.37 259.734V128.061L220.849 132.086C220.558 132.126 220.262 132.054 220.022 131.886L141.237 76.6694C140.9 76.4326 140.462 76.3919 140.086 76.5624L67.5966 109.451C67.2932 109.589 67.0632 109.85 66.9645 110.168L27.6741 236.845C27.6307 236.985 27.6141 237.132 27.6251 237.279L37.78 372C37.8093 372.389 38.0304 372.737 38.3694 372.928L124.276 421.456C125.224 421.991 126.324 421.05 125.942 420.03L112.874 385.183C112.801 384.987 112.676 384.815 112.513 384.684L85.2037 362.703C84.9652 362.511 84.8118 362.233 84.7764 361.929L78.0378 303.977C78.0255 303.871 78.0277 303.764 78.0444 303.659L84.767 261.307C84.8088 261.044 84.9396 260.803 85.1375 260.624L139.973 211.138Z" fill="#404E18"/>
<path d="M74.2703 146.777C74.2829 146.664 74.3115 146.559 74.3558 146.454L89.1283 111.789C89.4049 111.14 90.1899 110.883 90.7967 111.243L129.712 134.336C130.143 134.592 130.362 135.094 130.258 135.584L114.622 208.619C114.437 209.485 113.397 209.841 112.725 209.264C99.4166 197.822 75.0399 177.044 73.305 176.282C71.5136 175.496 73.1908 156.393 74.2703 146.777Z" fill="#394711"/>
<path d="M123.252 160.357C122.857 172.261 112.887 181.591 100.983 181.197C89.0787 180.802 79.7486 170.832 80.1434 158.928C80.5381 147.024 90.5083 137.693 102.412 138.088C114.316 138.483 123.647 148.453 123.252 160.357Z" fill="black"/>
<path d="M98.7471 149.443C98.5875 154.258 94.5547 158.032 89.7398 157.872C84.9248 157.713 81.151 153.68 81.3107 148.865C81.4704 144.05 85.5031 140.276 90.318 140.436C95.133 140.595 98.9068 144.628 98.7471 149.443Z" fill="#FDFDFD"/>
<path d="M118.787 150.435C118.838 150.106 118.747 149.771 118.535 149.514L96.0243 122.198L85.656 109.925C84.9684 109.111 85.6299 107.878 86.6856 108.022C106.168 110.686 141.057 116.438 145.414 121.095C149.931 125.921 156.795 142.715 159.807 150.89C159.902 151.146 159.9 151.421 159.808 151.678L145.474 191.58C145.393 191.804 145.247 191.998 145.053 192.136L113.573 214.571C112.786 215.132 111.698 214.548 111.73 213.582L112.484 190.834L118.787 150.435Z" fill="#4F621B"/>
<path d="M119.245 150.762C119.324 150.154 119.86 149.712 120.472 149.749L160.11 152.133C160.89 152.18 161.404 152.965 161.135 153.699L147.212 191.659C147.128 191.89 146.972 192.089 146.768 192.226L112.772 215.074C111.939 215.634 110.834 214.95 110.965 213.954L119.245 150.762Z" fill="#3B4717"/>
<path d="M93.5331 129.963C93.5008 129.91 93.4728 129.854 93.4493 129.796L87.4611 115.105C86.9577 113.87 88.5859 112.894 89.4383 113.919L119.438 150.01C119.647 150.261 119.741 150.589 119.697 150.913L112.966 200.472C112.775 201.875 110.72 201.791 110.645 200.377L109.332 175.649L109.941 157.282C109.949 157.055 109.89 156.83 109.772 156.636L93.5331 129.963Z" fill="#3B4717"/>
<path d="M423.943 146.777C423.93 146.664 423.902 146.559 423.857 146.454L409.085 111.789C408.808 111.14 408.023 110.883 407.416 111.243L368.501 134.336C368.07 134.592 367.851 135.094 367.955 135.584L383.591 208.619C383.776 209.485 384.816 209.841 385.488 209.264C398.796 197.822 423.173 177.044 424.908 176.282C426.699 175.496 425.022 156.393 423.943 146.777Z" fill="#394711"/>
<path d="M374.961 160.357C375.356 172.261 385.326 181.591 397.23 181.197C409.134 180.802 418.465 170.832 418.07 158.928C417.675 147.024 407.705 137.693 395.801 138.088C383.897 138.483 374.567 148.453 374.961 160.357Z" fill="black"/>
<path d="M399.466 149.443C399.626 154.258 403.658 158.032 408.473 157.872C413.288 157.713 417.062 153.68 416.902 148.865C416.743 144.05 412.71 140.276 407.895 140.436C403.08 140.595 399.306 144.628 399.466 149.443Z" fill="#FDFDFD"/>
<path d="M379.426 150.435C379.375 150.106 379.466 149.771 379.678 149.514L402.189 122.198L412.557 109.925C413.245 109.111 412.583 107.878 411.527 108.022C392.045 110.686 357.156 116.438 352.799 121.095C348.282 125.921 341.418 142.715 338.406 150.89C338.311 151.146 338.313 151.421 338.405 151.678L352.739 191.58C352.82 191.804 352.966 191.998 353.16 192.136L384.64 214.571C385.427 215.132 386.515 214.548 386.483 213.582L385.729 190.834L379.426 150.435Z" fill="#4F621B"/>
<path d="M378.968 150.762C378.888 150.154 378.353 149.712 377.741 149.749L338.103 152.133C337.323 152.18 336.809 152.965 337.078 153.699L351 191.659C351.085 191.89 351.241 192.089 351.445 192.226L385.441 215.074C386.274 215.634 387.379 214.95 387.248 213.954L378.968 150.762Z" fill="#3B4717"/>
<path d="M404.68 129.963C404.712 129.91 404.74 129.854 404.764 129.796L410.752 115.105C411.255 113.87 409.627 112.894 408.775 113.919L378.775 150.01C378.566 150.261 378.472 150.589 378.516 150.913L385.247 200.472C385.438 201.875 387.493 201.791 387.568 200.377L388.881 175.649L388.272 157.282C388.265 157.055 388.323 156.83 388.442 156.636L404.68 129.963Z" fill="#3B4717"/>
<path d="M249.546 212.817C249.209 212.639 248.806 212.637 248.467 212.812L186.723 244.68C186.138 244.982 185.919 245.708 186.239 246.284L215.506 298.831C215.586 298.975 215.635 299.134 215.649 299.298L218.327 330.187C218.344 330.378 218.407 330.563 218.513 330.724L248.093 375.991C248.537 376.67 249.521 376.7 250.006 376.049L282.205 332.775C282.325 332.614 282.401 332.425 282.426 332.226L287.133 295.149C287.148 295.025 287.184 294.904 287.238 294.791L310.514 246.244C310.785 245.679 310.561 245.001 310.006 244.708L249.546 212.817Z" fill="#404E18"/>
<path d="M230.699 263.987C230.644 263.752 230.517 263.539 230.335 263.379L184.529 222.961C184.373 222.824 184.257 222.647 184.192 222.45L170.666 181.197L160.03 152.611C159.87 152.18 159.472 151.884 159.014 151.854L119.403 149.213C119.078 149.191 118.777 149.035 118.572 148.781L86.6912 109.249C86.0263 108.424 86.7157 107.212 87.7641 107.362L170.368 119.162C170.564 119.19 170.749 119.267 170.907 119.386L226.215 161.205C226.417 161.358 226.664 161.441 226.918 161.441H275.209C275.448 161.441 275.68 161.368 275.876 161.232L335.972 119.367C336.125 119.26 336.301 119.192 336.486 119.167L410.184 109.385C411.242 109.244 411.917 110.481 411.227 111.295L379.449 148.793C379.241 149.039 378.949 149.187 378.627 149.204C364.839 149.892 337.82 151.222 336.205 151.222C334.57 151.222 325.986 171.205 321.899 181.197L308.369 222.463C308.307 222.652 308.198 222.822 308.052 222.957L264.309 263.335C264.106 263.522 263.976 263.776 263.942 264.049L257.229 318.427C257.199 318.673 257.247 318.921 257.367 319.137L263.625 330.402C263.85 330.806 263.814 331.305 263.535 331.673L249.928 349.609C249.464 350.22 248.546 350.225 248.076 349.617L237.818 336.342C237.574 336.026 237.508 335.608 237.643 335.233L243.441 319.13C243.517 318.918 243.53 318.688 243.479 318.468L230.699 263.987Z" fill="#4F621B"/>
<path d="M178.43 369.332C179.402 368.896 180.408 369.851 179.921 370.799C168.457 393.085 135.142 407.303 118.944 411.873C118.668 411.951 118.368 411.912 118.112 411.783C87.7153 396.45 113.903 378.628 122.663 377.927C131.269 377.239 138.379 387.301 178.43 369.332Z" fill="#D9D9D9"/>
<path d="M151.181 332.546C152.153 332.11 153.159 333.065 152.672 334.013C141.208 356.298 107.893 370.517 91.6952 375.087C91.4189 375.165 91.119 375.125 90.8627 374.996C60.4661 359.663 86.6542 341.842 95.4142 341.141C104.019 340.453 111.13 350.515 151.181 332.546Z" fill="#D9D9D9"/>
<path d="M344.057 332.546C343.084 332.11 342.078 333.065 342.566 334.013C354.029 356.298 387.344 370.517 403.542 375.087C403.819 375.165 404.119 375.125 404.375 374.996C434.771 359.663 408.583 341.842 399.823 341.141C391.218 340.453 384.108 350.515 344.057 332.546Z" fill="#D9D9D9"/>
<path d="M101.181 198.908L99.7095 191.55L99.7095 191.55L101.181 198.908ZM397.515 199.03L398.987 191.672L398.987 191.672L397.515 199.03ZM376.116 379.29L375.518 386.77L375.518 386.77L376.116 379.29ZM250.37 128.061L251.45 120.635L250.404 120.483L249.356 120.626L250.37 128.061ZM73.305 176.282L70.2888 183.153L70.2888 183.153L73.305 176.282ZM90.318 140.436L90.0693 147.935L90.318 140.436ZM96.0243 122.198L101.815 117.426L101.786 117.391L101.756 117.356L96.0243 122.198ZM112.484 190.834L105.07 189.677L105 190.129L104.985 190.585L112.484 190.834ZM145.414 121.095L139.936 126.222L139.936 126.222L145.414 121.095ZM109.332 175.649L101.832 175.4L101.822 175.724L101.839 176.047L109.332 175.649ZM424.908 176.282L427.924 183.153L427.924 183.153L424.908 176.282ZM407.895 140.436L408.144 147.935L407.895 140.436ZM402.189 122.198L396.457 117.356L396.427 117.391L396.398 117.426L402.189 122.198ZM385.729 190.834L393.228 190.585L393.213 190.129L393.143 189.677L385.729 190.834ZM352.799 121.095L358.277 126.222L358.277 126.222L352.799 121.095ZM388.881 175.649L396.374 176.047L396.391 175.724L396.381 175.4L388.881 175.649ZM321.899 181.197L314.954 178.355L314.852 178.604L314.769 178.859L321.899 181.197ZM170.666 181.197L177.797 178.859L177.75 178.718L177.699 178.58L170.666 181.197ZM122.663 377.927L123.262 385.407L123.262 385.407L122.663 377.927ZM95.4142 341.141L94.816 333.661L95.4142 341.141ZM399.823 341.141L399.225 348.621L399.225 348.621L399.823 341.141ZM342.566 334.013L335.893 337.445L342.566 334.013ZM344.057 332.546L347.128 325.7L344.057 332.546ZM403.542 375.087L405.58 367.865L403.542 375.087ZM404.375 374.996L407.754 381.696L404.375 374.996ZM152.672 334.013L145.999 330.58L152.672 334.013ZM151.181 332.546L148.109 325.7L151.181 332.546ZM91.6952 375.087L89.6578 367.865L91.6952 375.087ZM90.8627 374.996L87.4832 381.696L90.8627 374.996ZM179.921 370.799L173.248 367.367L179.921 370.799ZM178.43 369.332L175.359 362.486L178.43 369.332ZM118.944 411.873L116.907 404.651L118.944 411.873ZM118.112 411.783L114.732 418.482L118.112 411.783ZM159.014 151.854L158.515 159.341L159.014 151.854ZM160.03 152.611L152.997 155.227L160.03 152.611ZM118.572 148.781L112.731 153.492L118.572 148.781ZM119.403 149.213L118.904 156.7L119.403 149.213ZM86.6912 109.249L92.5321 104.538L86.6912 109.249ZM170.907 119.386L175.432 113.401L170.907 119.386ZM170.368 119.162L171.429 111.734L170.368 119.162ZM226.215 161.205L221.689 167.19L226.215 161.205ZM275.876 161.232L271.587 155.075L275.876 161.232ZM335.972 119.367L340.262 125.524L335.972 119.367ZM411.227 111.295L405.503 106.444L411.227 111.295ZM410.184 109.385L409.196 101.946L410.184 109.385ZM378.627 149.204L379.001 156.698L378.627 149.204ZM379.449 148.793L373.724 143.942L379.449 148.793ZM308.052 222.957L302.962 217.443L308.052 222.957ZM308.369 222.463L301.239 220.126L308.369 222.463ZM263.942 264.049L271.389 264.969L263.942 264.049ZM264.309 263.335L269.398 268.849L264.309 263.335ZM257.367 319.137L263.926 315.493L257.367 319.137ZM257.229 318.427L264.676 319.347L257.229 318.427ZM263.535 331.673L269.513 336.208L269.513 336.208L263.535 331.673ZM263.625 330.402L270.184 326.757L263.625 330.402ZM248.076 349.617L254.014 345.029L248.076 349.617ZM249.928 349.609L255.906 354.144L249.928 349.609ZM237.643 335.233L230.583 332.692L230.583 332.692L237.643 335.233ZM237.818 336.342L231.88 340.93L237.818 336.342ZM243.479 318.468L236.173 320.182L243.479 318.468ZM243.441 319.13L236.381 316.588L243.441 319.13ZM230.335 263.379L235.3 257.753L230.335 263.379ZM230.699 263.987L223.394 265.701L230.699 263.987ZM184.529 222.961L189.493 217.335L184.529 222.961ZM184.192 222.45L191.322 220.112L184.192 222.45ZM287.133 295.149L294.577 296.094L287.133 295.149ZM287.238 294.791L280.472 291.547L287.238 294.791ZM248.467 212.812L245.025 206.144L248.467 212.812ZM249.546 212.817L253.047 206.18L249.546 212.817ZM351.445 192.226L355.631 185.998L351.445 192.226ZM351 191.659L343.956 194.243L351 191.659ZM367.955 135.584L360.618 137.154L367.955 135.584ZM368.501 134.336L364.671 127.883L368.501 134.336ZM385.488 209.264L390.379 214.954L385.488 209.264ZM383.591 208.619L390.928 207.048L383.591 208.619ZM423.857 146.454L430.76 143.513L423.857 146.454ZM423.943 146.777L416.486 147.614L423.943 146.777ZM409.085 111.789L402.182 114.73L409.085 111.789ZM407.416 111.243L411.246 117.696L407.416 111.243ZM119.697 150.913L127.132 151.922L119.697 150.913ZM119.438 150.01L113.667 154.807L119.438 150.01ZM110.645 200.377L103.152 200.775L110.645 200.377ZM112.966 200.472L120.401 201.482L112.966 200.472ZM109.772 156.636L116.181 152.734L109.772 156.636ZM109.941 157.282L102.442 157.033L109.941 157.282ZM93.4493 129.796L100.398 126.964L93.4493 129.796ZM93.5331 129.963L87.1237 133.865L93.5331 129.963ZM87.4611 115.105L80.5125 117.937L87.4611 115.105ZM89.4383 113.919L83.6678 118.716L89.4383 113.919ZM146.768 192.226L142.582 185.998L146.768 192.226ZM147.212 191.659L140.168 189.076L147.212 191.659ZM110.965 213.954L103.525 212.979L110.965 213.954ZM112.772 215.074L116.958 221.302L112.772 215.074ZM120.472 149.749L120.021 157.239L120.472 149.749ZM119.245 150.762L111.805 149.787L119.245 150.762ZM160.11 152.133L159.66 159.623L160.11 152.133ZM161.135 153.699L168.18 156.283L161.135 153.699ZM86.6856 108.022L85.6692 115.457L86.6856 108.022ZM85.656 109.925L79.9239 114.767L85.656 109.925ZM159.808 151.678L166.87 154.215L159.808 151.678ZM159.807 150.89L152.766 153.484L159.807 150.89ZM145.053 192.136L140.698 186.025L145.053 192.136ZM145.474 191.58L152.536 194.117L145.474 191.58ZM111.73 213.582L119.229 213.831L111.73 213.582ZM113.573 214.571L109.218 208.46L113.573 214.571ZM118.535 149.514L124.325 144.741L118.535 149.514ZM118.787 150.435L126.201 151.592L118.787 150.435ZM130.258 135.584L137.595 137.154L130.258 135.584ZM129.712 134.336L125.883 140.789L129.712 134.336ZM112.725 209.264L117.617 203.574L112.725 209.264ZM114.622 208.619L107.285 207.048L114.622 208.619ZM74.3558 146.454L67.4528 143.513L74.3558 146.454ZM74.2703 146.777L66.8134 145.94L74.2703 146.777ZM89.1283 111.789L82.2252 108.847L89.1283 111.789ZM90.7967 111.243L94.6261 104.79L90.7967 111.243ZM220.022 131.886L215.715 138.031L220.022 131.886ZM220.849 132.086L221.863 139.521L220.849 132.086ZM140.086 76.5624L136.986 69.7291L140.086 76.5624ZM141.237 76.6694L145.544 70.5246L141.237 76.6694ZM66.9645 110.168L74.1314 112.391L66.9645 110.168ZM67.5966 109.451L64.4964 102.618L67.5966 109.451ZM27.6251 237.279L20.1426 237.843L27.6251 237.279ZM27.6741 236.845L20.5072 234.622L27.6741 236.845ZM38.3694 372.928L34.6788 379.462L38.3694 372.928ZM37.78 372L30.2975 372.564L37.78 372ZM125.942 420.03L132.968 417.396L125.942 420.03ZM124.276 421.456L120.585 427.989L124.276 421.456ZM141.462 211.077L146.014 205.111L141.462 211.077ZM139.973 211.138L134.946 205.567L139.973 211.138ZM206.458 260.661L211.009 254.695L206.458 260.661ZM249.02 259.722L241.516 259.645L249.02 259.722ZM288.231 133.202L292.864 139.104L288.231 133.202ZM287.343 133.439L286.263 140.864L287.343 133.439ZM361.374 76.58L358.274 83.4133L361.374 76.58ZM360.172 76.7248L364.805 82.627L360.172 76.7248ZM434.457 110.168L441.624 107.945L434.457 110.168ZM473.796 237.279L481.279 237.843L473.796 237.279ZM473.747 236.845L466.58 239.068L473.747 236.845ZM463.052 372.928L466.743 379.462L463.052 372.928ZM463.641 372L471.124 372.564L463.641 372ZM375.479 420.03L382.505 422.665L375.479 420.03ZM377.145 421.456L373.455 414.922L377.145 421.456ZM388.908 384.684L384.203 378.838L388.908 384.684ZM388.547 385.183L395.573 387.817L388.547 385.183ZM416.645 361.929L409.191 361.062L416.645 361.929ZM416.218 362.703L420.923 368.548L416.218 362.703ZM423.377 303.659L415.966 304.836L415.966 304.836L423.377 303.659ZM423.384 303.977L430.837 304.844L423.384 303.977ZM416.284 260.624L421.311 255.053L416.284 260.624ZM416.654 261.307L409.243 262.484L416.654 261.307ZM359.959 211.077L355.408 205.111L359.959 211.077ZM361.448 211.138L356.421 216.709L361.448 211.138ZM294.963 260.661L299.515 266.627L294.963 260.661ZM184.71 196.04L181.105 202.621L184.71 196.04ZM215.506 298.831L208.95 302.482L215.506 298.831ZM215.649 299.298L223.125 298.65L215.649 299.298ZM350.114 196.004L346.115 189.655L350.114 196.004ZM282.205 332.775L276.185 328.296L282.205 332.775ZM282.426 332.226L289.87 333.171L282.426 332.226ZM416.128 152.333L419.545 145.652L416.128 152.333ZM416.218 154.359L420.218 160.707L416.218 154.359ZM248.093 375.991L254.375 371.886L248.093 375.991ZM250.006 376.049L243.986 371.57L250.006 376.049ZM328.962 107.752L332.378 101.071L328.962 107.752ZM218.513 330.724L212.231 334.829L218.513 330.724ZM218.327 330.187L210.851 330.835L218.327 330.187ZM178.542 107.841L182.957 113.909L178.542 107.841ZM378.516 150.913L371.081 151.922L378.516 150.913ZM378.775 150.01L373.005 145.213L378.775 150.01ZM379.835 413.235L381.873 406.014L379.835 413.235ZM380.668 413.145L384.047 419.845L380.668 413.145ZM387.568 200.377L380.075 199.979L387.568 200.377ZM385.247 200.472L392.683 199.462L385.247 200.472ZM402.235 345.721L394.774 346.518L402.235 345.721ZM402.011 346.541L408.031 351.021L402.011 346.541ZM380.449 375.778L387.902 376.645L380.449 375.778ZM380.671 375.217L386.691 379.696L380.671 375.217ZM388.442 156.636L382.032 152.734L388.442 156.636ZM388.272 157.282L380.772 157.53L388.272 157.282ZM377.391 420.042L372.139 414.683L377.391 420.042ZM375.416 419.075L367.962 418.208L375.416 419.075ZM404.764 129.796L397.815 126.964L404.764 129.796ZM404.68 129.963L411.089 133.865L404.68 129.963ZM251.172 276.528L258.482 274.833L251.172 276.528ZM410.752 115.105L417.701 117.937L410.752 115.105ZM408.775 113.919L403.004 109.123L408.775 113.919ZM301.277 207.829L300.431 200.373L301.277 207.829ZM300.479 208.299L306.54 212.723L300.479 208.299ZM387.248 213.954L394.688 212.979L387.248 213.954ZM385.441 215.074L381.255 221.302L385.441 215.074ZM453.188 252.131L460.395 254.222L453.188 252.131ZM452.919 251.009L458.329 245.809L452.919 251.009ZM377.741 149.749L378.192 157.239L377.741 149.749ZM378.968 150.762L386.408 149.787L378.968 150.762ZM415.313 382.667L422.519 384.758L415.313 382.667ZM415.009 383.175L420.261 388.534L415.009 383.175ZM338.103 152.133L337.652 144.643L338.103 152.133ZM337.078 153.699L344.123 151.115L337.078 153.699ZM393.944 275.844L395.375 268.478L393.944 275.844ZM394.882 276.865L402.343 276.068L394.882 276.865ZM411.527 108.022L410.511 100.588L411.527 108.022ZM412.557 109.925L406.825 105.083L412.557 109.925ZM324.187 262.806L318.97 257.413L324.187 262.806ZM325.221 262.5L326.651 255.133L325.221 262.5ZM338.405 151.678L331.343 154.215L338.405 151.678ZM338.406 150.89L345.447 153.484L338.406 150.89ZM96.4609 345.6L103.922 346.397L96.4609 345.6ZM96.685 346.42L90.6653 350.9L96.685 346.42ZM353.16 192.136L357.515 186.025L353.16 192.136ZM352.739 191.58L345.677 194.117L352.739 191.58ZM118.262 375.609L110.892 377.018L118.262 375.609ZM118.052 375.132L124.072 370.652L118.052 375.132ZM386.483 213.582L378.984 213.831L386.483 213.582ZM384.64 214.571L380.285 220.682L384.64 214.571ZM124.501 419.384L129.491 413.78L124.501 419.384ZM126.422 418.294L119.052 419.703L126.422 418.294ZM247.33 275.456L253.391 271.032L247.33 275.456ZM247.525 276.407L254.834 278.102L247.525 276.407ZM379.678 149.514L385.469 154.286L379.678 149.514ZM379.426 150.435L386.84 149.278L379.426 150.435ZM197.42 207.708L198.266 200.252L197.42 207.708ZM198.217 208.178L204.278 203.754L198.217 208.178ZM45.5081 252.01L38.3016 254.101L45.5081 252.01ZM45.7769 250.888L40.3671 245.688L45.7769 250.888ZM112.513 384.684L117.218 378.838L112.513 384.684ZM112.874 385.183L119.9 382.548L112.874 385.183ZM83.3755 382.518L76.1691 384.609L83.3755 382.518ZM83.72 383.064L88.7106 377.46L83.72 383.064ZM310.006 244.708L306.506 251.345L310.006 244.708ZM310.514 246.244L317.28 249.488L310.514 246.244ZM110.969 151.972L107.975 145.091L110.969 151.972ZM110.628 155.456L114.233 148.875L110.628 155.456ZM84.7764 361.929L92.2299 361.062L84.7764 361.929ZM85.2037 362.703L80.4988 368.548L85.2037 362.703ZM104.752 275.723L103.322 268.357L104.752 275.723ZM103.814 276.744L111.276 277.541L103.814 276.744ZM78.0444 303.659L85.4553 304.836L78.0444 303.659ZM78.0378 303.977L85.4913 303.11L78.0378 303.977ZM174.509 262.685L179.727 257.292L174.509 262.685ZM173.476 262.379L174.906 269.745L173.476 262.379ZM263.433 321.58L258.215 316.187L263.433 321.58ZM261.485 321.005L268.795 319.31L261.485 321.005ZM186.723 244.68L190.165 251.348L186.723 244.68ZM186.239 246.284L192.795 242.633L186.239 246.284ZM318.859 372.161L325.532 368.729L318.859 372.161ZM320.35 370.695L317.278 377.541L320.35 370.695ZM85.1375 260.624L80.1103 255.053L85.1375 260.624ZM84.767 261.307L92.1779 262.484L84.767 261.307ZM235.264 321.459L240.481 316.066L235.264 321.459ZM237.211 320.884L229.901 319.189L237.211 320.884ZM240.481 316.066L179.727 257.292L169.292 268.078L230.047 326.852L240.481 316.066ZM172.046 255.012L103.322 268.357L106.182 283.089L174.906 269.745L172.046 255.012ZM90.582 380.427L52.7145 249.919L38.3016 254.101L76.1691 384.609L90.582 380.427ZM51.1868 256.088C59.4068 247.536 71.8369 234.884 82.8564 224.261C88.3768 218.939 93.4678 214.199 97.4667 210.754C99.4769 209.022 101.109 207.706 102.324 206.828C102.935 206.387 103.338 206.131 103.56 206.004C103.924 205.797 103.524 206.092 102.653 206.266L99.7095 191.55C98.1632 191.86 96.8692 192.545 96.1411 192.959C95.2717 193.453 94.3854 194.049 93.5317 194.666C91.8171 195.905 89.8181 197.535 87.6715 199.384C83.357 203.101 78.0316 208.066 72.4407 213.456C61.2377 224.256 48.6655 237.054 40.3671 245.688L51.1868 256.088ZM102.653 206.266C102.262 206.345 102.218 206.305 102.938 206.294C103.51 206.285 104.315 206.296 105.369 206.334C107.468 206.409 110.294 206.578 113.717 206.829C120.549 207.329 129.514 208.135 139.301 209.087C158.861 210.99 181.523 213.456 196.574 215.164L198.266 200.252C183.168 198.539 160.42 196.063 140.753 194.15C130.927 193.195 121.823 192.375 114.813 191.861C111.316 191.605 108.276 191.421 105.903 191.336C104.72 191.294 103.636 191.274 102.71 191.288C101.931 191.3 100.778 191.337 99.7095 191.55L102.653 206.266ZM192.157 212.602L241.27 279.88L253.391 271.032L204.278 203.754L192.157 212.602ZM240.215 274.712L229.901 319.189L244.521 322.579L254.834 278.102L240.215 274.712ZM129.491 413.78L88.7106 377.46L78.7294 388.667L119.51 424.987L129.491 413.78ZM110.892 377.018L119.052 419.703L133.792 416.885L125.632 374.2L110.892 377.018ZM96.3532 275.947L88.9997 344.803L103.922 346.397L111.276 277.541L96.3532 275.947ZM90.6653 350.9L112.032 379.612L124.072 370.652L102.705 341.94L90.6653 350.9ZM268.65 326.973L329.404 268.199L318.97 257.413L258.215 316.187L268.65 326.973ZM323.79 269.866L392.514 283.21L395.375 268.478L326.651 255.133L323.79 269.866ZM422.519 384.758L460.395 254.222L445.982 250.04L408.106 380.576L422.519 384.758ZM458.329 245.809C450.031 237.175 437.459 224.377 426.256 213.577C420.665 208.188 415.339 203.222 411.025 199.505C408.878 197.656 406.879 196.026 405.165 194.787C404.311 194.17 403.425 193.574 402.555 193.08C401.827 192.666 400.533 191.981 398.987 191.672L396.044 206.387C395.172 206.213 394.773 205.918 395.137 206.125C395.359 206.252 395.762 206.508 396.373 206.949C397.587 207.827 399.22 209.143 401.23 210.875C405.229 214.32 410.32 219.06 415.84 224.382C426.86 235.005 439.29 247.657 447.51 256.209L458.329 245.809ZM398.987 191.672C397.919 191.458 396.765 191.421 395.986 191.409C395.06 191.395 393.976 191.415 392.793 191.457C390.42 191.542 387.381 191.726 383.883 191.982C376.873 192.496 367.77 193.316 357.943 194.271C338.276 196.184 315.529 198.66 300.431 200.373L302.123 215.285C317.174 213.577 339.836 211.111 359.396 209.208C369.183 208.256 378.147 207.45 384.979 206.95C388.403 206.699 391.228 206.53 393.328 206.455C394.381 206.417 395.186 206.406 395.759 206.415C396.479 206.426 396.434 206.466 396.044 206.387L398.987 191.672ZM294.418 203.875L245.305 271.153L257.427 280.001L306.54 212.723L294.418 203.875ZM243.862 278.223L254.175 322.7L268.795 319.31L258.482 274.833L243.862 278.223ZM382.643 425.401L420.261 388.534L409.757 377.816L372.139 414.683L382.643 425.401ZM372.995 374.912L367.962 418.208L382.869 419.941L387.902 376.645L372.995 374.912ZM387.421 277.662L394.774 346.518L409.697 344.924L402.343 276.068L387.421 277.662ZM395.992 342.061L374.652 370.737L386.691 379.696L408.031 351.021L395.992 342.061ZM381.873 406.014C374.309 403.88 362.534 399.417 351.367 392.869C340.05 386.233 330.302 378.002 325.532 368.729L312.186 375.594C318.88 388.606 331.52 398.628 343.776 405.815C356.182 413.09 369.164 418.021 377.798 420.457L381.873 406.014ZM317.278 377.541C337.875 386.782 350.818 389.193 360.2 388.974C364.896 388.865 368.432 388.096 371.059 387.502C373.915 386.857 374.744 386.708 375.518 386.77L376.715 371.81C373.186 371.528 369.899 372.379 367.75 372.864C365.373 373.402 363.014 373.897 359.85 373.971C353.513 374.119 342.876 372.577 323.421 363.849L317.278 377.541ZM375.518 386.77C375.518 386.77 375.565 386.774 375.663 386.791C375.76 386.809 375.892 386.837 376.06 386.88C376.399 386.968 376.83 387.106 377.342 387.306C378.373 387.709 379.58 388.306 380.819 389.081C383.395 390.692 385.509 392.687 386.627 394.566C387.617 396.232 387.632 397.35 387.14 398.472C386.461 400.02 384.175 402.972 377.288 406.445L384.047 419.845C392.359 415.652 398.198 410.626 400.884 404.498C403.758 397.944 402.377 391.688 399.525 386.894C396.8 382.314 392.624 378.764 388.776 376.357C385.059 374.032 380.591 372.12 376.715 371.81L375.518 386.77ZM113.964 158.852C121.499 155.573 134.358 147.484 147.127 138.947C160.119 130.262 173.692 120.65 182.957 113.909L174.127 101.774C164.981 108.429 151.574 117.922 138.786 126.471C125.775 135.169 114.053 142.447 107.975 145.091L113.964 158.852ZM179.221 115.128H328.43V100.12H179.221V115.128ZM325.545 114.432L412.711 159.014L419.545 145.652L332.378 101.071L325.545 114.432ZM412.219 148.01L346.115 189.655L354.114 202.353L420.218 160.707L412.219 148.01ZM349.493 188.68H185.271V203.687H349.493V188.68ZM188.315 189.459L114.233 148.875L107.022 162.037L181.105 202.621L188.315 189.459ZM299.515 266.627L364.51 217.043L355.408 205.111L290.412 254.695L299.515 266.627ZM356.421 216.709L411.257 266.195L421.311 255.053L366.475 205.567L356.421 216.709ZM409.243 262.484L415.966 304.836L430.788 302.483L424.065 260.131L409.243 262.484ZM415.93 303.11L409.191 361.062L424.098 362.795L430.837 304.844L415.93 303.11ZM411.513 356.857L384.203 378.838L393.613 390.529L420.923 368.548L411.513 356.857ZM381.521 382.548L368.454 417.396L382.505 422.665L395.573 387.817L381.521 382.548ZM380.836 427.989L466.743 379.462L459.361 366.395L373.455 414.922L380.836 427.989ZM471.124 372.564L481.279 237.843L466.314 236.715L456.159 371.436L471.124 372.564ZM480.914 234.622L441.624 107.945L427.29 112.391L466.58 239.068L480.914 234.622ZM436.925 102.618L364.474 69.7467L358.274 83.4133L430.724 116.284L436.925 102.618ZM355.538 70.8226L283.597 127.3L292.864 139.104L364.805 82.627L355.538 70.8226ZM288.423 126.013L251.45 120.635L249.29 135.486L286.263 140.864L288.423 126.013ZM250.186 268.404H294.256V253.397H250.186V268.404ZM242.867 127.984L241.516 259.645L256.523 259.799L257.873 128.138L242.867 127.984ZM211.009 254.695L146.014 205.111L136.911 217.043L201.907 266.627L211.009 254.695ZM134.946 205.567L80.1103 255.053L90.1647 266.195L145.001 216.709L134.946 205.567ZM77.3561 260.131L70.6335 302.483L85.4553 304.836L92.1779 262.484L77.3561 260.131ZM70.5843 304.844L77.3229 362.795L92.2299 361.062L85.4913 303.11L70.5843 304.844ZM80.4988 368.548L107.808 390.529L117.218 378.838L89.9086 356.857L80.4988 368.548ZM105.848 387.817L118.916 422.665L132.968 417.396L119.9 382.548L105.848 387.817ZM127.967 414.922L42.0601 366.395L34.6788 379.462L120.585 427.989L127.967 414.922ZM45.2625 371.436L35.1075 236.715L20.1426 237.843L30.2975 372.564L45.2625 371.436ZM34.841 239.068L74.1314 112.391L59.7976 107.945L20.5072 234.622L34.841 239.068ZM70.6969 116.284L143.186 83.3957L136.986 69.7291L64.4964 102.618L70.6969 116.284ZM136.931 82.8142L215.715 138.031L224.328 125.741L145.544 70.5246L136.931 82.8142ZM221.863 139.521L251.384 135.496L249.356 120.626L219.835 124.651L221.863 139.521ZM249.204 253.397H207.166V268.404H249.204V253.397ZM242.866 128.061V259.734H257.874V128.061H242.866ZM82.2252 108.847L67.4528 143.513L81.2589 149.396L96.0313 114.73L82.2252 108.847ZM66.8134 145.94C66.2647 150.827 65.5594 158.162 65.2184 164.434C65.0497 167.537 64.9588 170.574 65.0499 172.977C65.0939 174.136 65.1892 175.453 65.4303 176.657C65.5463 177.236 65.7611 178.133 66.1993 179.079C66.5281 179.79 67.6304 181.986 70.2888 183.153L76.3212 169.412C78.7556 170.48 79.6611 172.435 79.8182 172.775C79.9661 173.094 80.0466 173.344 80.0845 173.472C80.1248 173.608 80.1422 173.693 80.1454 173.709C80.15 173.732 80.1306 173.637 80.1065 173.383C80.0835 173.14 80.0621 172.818 80.0466 172.408C79.9821 170.708 80.0421 168.22 80.2037 165.248C80.5234 159.368 81.1963 152.343 81.7272 147.614L66.8134 145.94ZM70.2888 183.153C69.5764 182.84 69.1568 182.496 69.5421 182.77C69.7009 182.883 69.9683 183.082 70.3632 183.387C71.1432 183.989 72.2296 184.859 73.5804 185.962C76.2715 188.158 79.8615 191.154 83.8397 194.506C91.7882 201.204 101.189 209.242 107.834 214.954L117.617 203.574C110.953 197.844 101.511 189.772 93.5103 183.03C89.5138 179.662 85.8525 176.606 83.0691 174.335C81.6827 173.203 80.4761 172.235 79.5389 171.511C79.0752 171.153 78.628 170.816 78.2326 170.535C78.0637 170.415 77.2504 169.819 76.3211 169.412L70.2888 183.153ZM121.96 210.19L137.595 137.154L122.92 134.013L107.285 207.048L121.96 210.19ZM133.542 127.883L94.6261 104.79L86.9673 117.696L125.883 140.789L133.542 127.883ZM115.752 160.108C115.495 167.871 108.994 173.954 101.231 173.697L100.734 188.696C116.78 189.228 130.219 176.652 130.751 160.606L115.752 160.108ZM101.231 173.697C93.4693 173.44 87.3855 166.938 87.6429 159.176L72.6438 158.679C72.1117 174.725 84.6881 188.164 100.734 188.696L101.231 173.697ZM87.6429 159.176C87.9004 151.414 94.4015 145.33 102.164 145.588L102.661 130.589C86.6151 130.056 73.1759 142.633 72.6438 158.679L87.6429 159.176ZM102.164 145.588C109.926 145.845 116.01 152.346 115.752 160.108L130.751 160.606C131.283 144.56 118.707 131.121 102.661 130.589L102.164 145.588ZM91.2476 149.194C91.2252 149.867 90.6615 150.395 89.9885 150.373L89.4911 165.372C98.4479 165.669 105.95 158.649 106.247 149.692L91.2476 149.194ZM89.9885 150.373C89.3154 150.35 88.7879 149.787 88.8102 149.114L73.8111 148.616C73.5141 157.573 80.5342 165.075 89.4911 165.372L89.9885 150.373ZM88.8102 149.114C88.8326 148.441 89.3963 147.913 90.0693 147.935L90.5667 132.936C81.6099 132.639 74.1081 139.659 73.8111 148.616L88.8102 149.114ZM90.0693 147.935C90.7424 147.958 91.2699 148.521 91.2476 149.194L106.247 149.692C106.544 140.735 99.5236 133.233 90.5667 132.936L90.0693 147.935ZM90.2336 126.971L112.744 154.286L124.325 144.741L101.815 117.426L90.2336 126.971ZM111.373 149.278L105.07 189.677L119.898 191.991L126.201 151.592L111.373 149.278ZM104.985 190.585L104.23 213.334L119.229 213.831L119.984 191.083L104.985 190.585ZM117.927 220.682L149.408 198.246L140.698 186.025L109.218 208.46L117.927 220.682ZM152.536 194.117L166.87 154.215L152.746 149.141L138.412 189.043L152.536 194.117ZM166.848 148.295C165.294 144.077 162.754 137.655 160.002 131.622C158.626 128.608 157.159 125.605 155.701 122.986C154.315 120.496 152.677 117.873 150.893 115.967L139.936 126.222C140.41 126.729 141.324 128.015 142.589 130.287C143.783 132.43 145.066 135.042 146.348 137.851C148.91 143.465 151.308 149.528 152.766 153.484L166.848 148.295ZM150.893 115.967C149.217 114.176 146.947 113.078 145.412 112.416C143.616 111.641 141.502 110.926 139.263 110.265C134.765 108.938 129.139 107.648 123.201 106.454C111.29 104.06 97.5301 101.931 87.7021 100.588L85.6692 115.457C95.3236 116.777 108.749 118.856 120.243 121.167C126.007 122.327 131.138 123.515 135.016 124.659C136.964 125.234 138.443 125.753 139.465 126.194C140.749 126.748 140.522 126.849 139.936 126.222L150.893 115.967ZM79.9239 114.767L90.2921 127.041L101.756 117.356L91.3882 105.083L79.9239 114.767ZM160.561 144.643L120.922 142.259L120.021 157.239L159.66 159.623L160.561 144.643ZM111.805 149.787L103.525 212.979L118.405 214.929L126.685 151.737L111.805 149.787ZM116.958 221.302L150.954 198.454L142.582 185.998L108.586 208.846L116.958 221.302ZM154.257 194.243L168.18 156.283L154.09 151.115L140.168 189.076L154.257 194.243ZM80.5125 117.937L86.5007 132.629L100.398 126.964L94.4097 112.273L80.5125 117.937ZM87.1237 133.865L103.362 160.538L116.181 152.734L99.9425 126.061L87.1237 133.865ZM102.442 157.033L101.832 175.4L116.832 175.898L117.441 157.53L102.442 157.033ZM101.839 176.047L103.152 200.775L118.138 199.979L116.825 175.251L101.839 176.047ZM120.401 201.482L127.132 151.922L112.261 149.903L105.53 199.462L120.401 201.482ZM125.208 145.213L95.2088 109.123L83.6678 118.716L113.667 154.807L125.208 145.213ZM402.182 114.73L416.954 149.396L430.76 143.513L415.988 108.847L402.182 114.73ZM416.486 147.614C417.017 152.343 417.69 159.368 418.009 165.248C418.171 168.22 418.231 170.708 418.166 172.408C418.151 172.818 418.13 173.14 418.107 173.383C418.082 173.637 418.063 173.732 418.068 173.709C418.071 173.693 418.088 173.608 418.129 173.472C418.166 173.344 418.247 173.094 418.395 172.775C418.552 172.435 419.457 170.48 421.892 169.412L427.924 183.153C430.583 181.986 431.685 179.79 432.014 179.079C432.452 178.133 432.667 177.236 432.783 176.657C433.024 175.453 433.119 174.136 433.163 172.977C433.254 170.574 433.163 167.538 432.995 164.434C432.654 158.162 431.948 150.828 431.4 145.94L416.486 147.614ZM421.892 169.412C420.963 169.819 420.149 170.415 419.98 170.535C419.585 170.816 419.138 171.153 418.674 171.511C417.737 172.235 416.53 173.203 415.144 174.335C412.36 176.606 408.699 179.662 404.703 183.03C396.702 189.772 387.26 197.844 380.596 203.574L390.379 214.954C397.024 209.242 406.425 201.204 414.373 194.506C418.351 191.154 421.941 188.158 424.633 185.962C425.983 184.859 427.07 183.989 427.85 183.387C428.245 183.082 428.512 182.883 428.671 182.77C429.056 182.496 428.637 182.84 427.924 183.153L421.892 169.412ZM390.928 207.048L375.293 134.013L360.618 137.154L376.253 210.19L390.928 207.048ZM372.33 140.789L411.246 117.696L403.587 104.79L364.671 127.883L372.33 140.789ZM367.462 160.606C367.994 176.652 381.433 189.228 397.479 188.696L396.982 173.697C389.22 173.954 382.718 167.871 382.461 160.108L367.462 160.606ZM397.479 188.696C413.525 188.164 426.101 174.725 425.569 158.679L410.57 159.176C410.828 166.938 404.744 173.44 396.982 173.697L397.479 188.696ZM425.569 158.679C425.037 142.633 411.598 130.056 395.552 130.589L396.049 145.588C403.812 145.33 410.313 151.414 410.57 159.176L425.569 158.679ZM395.552 130.589C379.506 131.121 366.93 144.56 367.462 160.606L382.461 160.108C382.204 152.346 388.287 145.845 396.049 145.588L395.552 130.589ZM391.966 149.692C392.263 158.649 399.765 165.669 408.722 165.372L408.225 150.373C407.552 150.395 406.988 149.867 406.966 149.194L391.966 149.692ZM408.722 165.372C417.679 165.075 424.699 157.573 424.402 148.616L409.403 149.114C409.425 149.787 408.898 150.35 408.225 150.373L408.722 165.372ZM424.402 148.616C424.105 139.659 416.603 132.639 407.646 132.936L408.144 147.935C408.817 147.913 409.381 148.441 409.403 149.114L424.402 148.616ZM407.646 132.936C398.69 133.233 391.669 140.735 391.966 149.692L406.966 149.194C406.943 148.521 407.471 147.958 408.144 147.935L407.646 132.936ZM396.398 117.426L373.888 144.741L385.469 154.286L407.979 126.971L396.398 117.426ZM372.012 151.592L378.315 191.991L393.143 189.677L386.84 149.278L372.012 151.592ZM378.229 191.083L378.984 213.831L393.983 213.334L393.228 190.585L378.229 191.083ZM388.995 208.46L357.515 186.025L348.805 198.246L380.285 220.682L388.995 208.46ZM359.801 189.043L345.467 149.141L331.343 154.215L345.677 194.117L359.801 189.043ZM345.447 153.484C346.905 149.528 349.303 143.465 351.865 137.851C353.146 135.042 354.43 132.43 355.624 130.287C356.889 128.015 357.803 126.729 358.277 126.222L347.32 115.967C345.536 117.873 343.898 120.496 342.512 122.986C341.054 125.605 339.587 128.608 338.211 131.622C335.459 137.655 332.919 144.077 331.365 148.295L345.447 153.484ZM358.277 126.222C357.691 126.849 357.464 126.748 358.748 126.194C359.77 125.753 361.249 125.234 363.197 124.659C367.075 123.515 372.206 122.327 377.97 121.167C389.464 118.856 402.889 116.777 412.544 115.457L410.511 100.588C400.683 101.931 386.923 104.06 375.012 106.454C369.074 107.648 363.448 108.938 358.95 110.265C356.711 110.926 354.597 111.641 352.801 112.416C351.266 113.078 348.996 114.176 347.32 115.967L358.277 126.222ZM406.825 105.083L396.457 117.356L407.921 127.041L418.289 114.767L406.825 105.083ZM338.553 159.623L378.192 157.239L377.291 142.259L337.652 144.643L338.553 159.623ZM371.528 151.737L379.808 214.929L394.688 212.979L386.408 149.787L371.528 151.737ZM389.627 208.846L355.631 185.998L347.259 198.454L381.255 221.302L389.627 208.846ZM358.045 189.076L344.123 151.115L330.033 156.283L343.956 194.243L358.045 189.076ZM403.803 112.273L397.815 126.964L411.712 132.629L417.701 117.937L403.803 112.273ZM398.271 126.061L382.032 152.734L394.851 160.538L411.089 133.865L398.271 126.061ZM380.772 157.53L381.382 175.898L396.381 175.4L395.772 157.033L380.772 157.53ZM381.388 175.251L380.075 199.979L395.061 200.775L396.374 176.047L381.388 175.251ZM392.683 199.462L385.952 149.903L371.081 151.922L377.812 201.482L392.683 199.462ZM384.546 154.807L414.545 118.716L403.004 109.123L373.005 145.213L384.546 154.807ZM190.165 251.348L251.908 219.48L245.025 206.144L183.282 238.012L190.165 251.348ZM246.045 219.454L306.506 251.345L313.507 238.071L253.047 206.18L246.045 219.454ZM212.231 334.829L241.812 380.096L254.375 371.886L224.794 326.619L212.231 334.829ZM256.026 380.529L288.225 337.255L276.185 328.296L243.986 371.57L256.026 380.529ZM179.684 249.935L208.95 302.482L222.061 295.18L192.795 242.633L179.684 249.935ZM208.173 299.946L210.851 330.835L225.803 329.538L223.125 298.65L208.173 299.946ZM289.87 333.171L294.577 296.094L279.689 294.204L274.982 331.281L289.87 333.171ZM294.004 298.036L317.28 249.488L303.748 243L280.472 291.547L294.004 298.036ZM179.564 228.588L225.371 269.006L235.3 257.753L189.493 217.335L179.564 228.588ZM223.394 265.701L236.173 320.182L250.784 316.755L238.005 262.274L223.394 265.701ZM236.381 316.588L230.583 332.692L244.704 337.775L250.501 321.671L236.381 316.588ZM231.88 340.93L242.138 354.205L254.014 345.029L243.755 331.754L231.88 340.93ZM255.906 354.144L269.513 336.208L257.557 327.138L243.95 345.073L255.906 354.144ZM270.184 326.757L263.926 315.493L250.807 322.781L257.066 334.046L270.184 326.757ZM264.676 319.347L271.389 264.969L256.495 263.13L249.782 317.508L264.676 319.347ZM269.398 268.849L313.141 228.471L302.962 217.443L259.219 257.821L269.398 268.849ZM315.499 224.801L329.029 183.534L314.769 178.859L301.239 220.126L315.499 224.801ZM328.844 184.038C330.866 179.096 333.991 171.705 336.793 165.588C338.205 162.508 339.476 159.879 340.454 158.073C340.959 157.139 341.278 156.627 341.42 156.426C341.509 156.299 341.375 156.515 341.039 156.84C340.871 157.003 340.472 157.371 339.857 157.735C339.299 158.066 338.01 158.726 336.205 158.726V143.719C334.298 143.719 332.893 144.418 332.206 144.825C331.463 145.265 330.922 145.746 330.6 146.059C329.956 146.682 329.467 147.336 329.156 147.776C328.5 148.706 327.848 149.834 327.256 150.929C326.036 153.182 324.6 156.173 323.15 159.337C320.23 165.709 317.02 173.306 314.954 178.355L328.844 184.038ZM336.205 158.726C338.069 158.726 365.429 157.376 379.001 156.698L378.252 141.709C371.361 142.054 361.164 142.558 352.49 142.976C348.152 143.186 344.2 143.373 341.235 143.508C339.751 143.576 338.522 143.63 337.619 143.667C337.166 143.685 336.805 143.699 336.54 143.708C336.228 143.719 336.156 143.719 336.205 143.719V158.726ZM385.174 153.644L416.952 116.146L405.503 106.444L373.724 143.942L385.174 153.644ZM409.196 101.946L335.498 111.729L337.473 126.606L411.171 116.823L409.196 101.946ZM331.683 113.21L271.587 155.075L280.165 167.389L340.262 125.524L331.683 113.21ZM275.209 153.937H226.918V168.945H275.209V153.937ZM230.74 155.219L175.432 113.401L166.381 125.372L221.689 167.19L230.74 155.219ZM171.429 111.734L88.8253 99.9333L86.7029 114.79L169.307 126.59L171.429 111.734ZM80.8502 113.959L112.731 153.492L124.413 144.071L92.5321 104.538L80.8502 113.959ZM118.904 156.7L158.515 159.341L159.513 144.366L119.902 141.726L118.904 156.7ZM152.997 155.227L163.634 183.813L177.699 178.58L167.062 149.994L152.997 155.227ZM163.536 183.534L177.062 224.788L191.322 220.112L177.797 178.859L163.536 183.534ZM120.982 419.095C129.616 416.659 142.598 411.727 155.004 404.452C167.26 397.265 179.9 387.243 186.593 374.231L173.248 367.367C168.478 376.64 158.729 384.87 147.412 391.506C136.246 398.055 124.471 402.517 116.907 404.651L120.982 419.095ZM175.359 362.486C155.904 371.214 145.267 372.756 138.929 372.608C135.766 372.535 133.407 372.039 131.03 371.502C128.881 371.016 125.594 370.165 122.065 370.448L123.262 385.407C124.035 385.345 124.864 385.494 127.72 386.14C130.348 386.734 133.883 387.502 138.579 387.612C147.961 387.831 160.905 385.419 181.502 376.179L175.359 362.486ZM122.065 370.448C118.188 370.758 113.721 372.669 110.003 374.995C106.156 377.401 101.979 380.951 99.2549 385.532C96.4031 390.326 95.0221 396.581 97.8953 403.135C100.582 409.264 106.421 414.289 114.732 418.482L121.491 405.083C114.605 401.609 112.318 398.657 111.64 397.11C111.148 395.988 111.162 394.869 112.153 393.204C113.271 391.325 115.384 389.33 117.961 387.719C119.2 386.944 120.407 386.346 121.437 385.943C121.949 385.743 122.381 385.606 122.72 385.518C122.887 385.474 123.019 385.446 123.117 385.429C123.215 385.411 123.262 385.407 123.262 385.407L122.065 370.448ZM93.7326 382.308C102.366 379.873 115.348 374.941 127.755 367.666C140.01 360.479 152.651 350.457 159.344 337.445L145.999 330.58C141.229 339.854 131.48 348.084 120.163 354.72C108.997 361.268 97.222 365.731 89.6578 367.865L93.7326 382.308ZM148.109 325.7C128.655 334.428 118.017 335.97 111.68 335.822C108.517 335.748 106.158 335.253 103.781 334.716C101.632 334.23 98.345 333.379 94.816 333.661L96.0125 348.621C96.7861 348.559 97.6152 348.708 100.471 349.354C103.099 349.948 106.634 350.716 111.33 350.825C120.712 351.044 133.656 348.633 154.252 339.392L148.109 325.7ZM94.816 333.661C90.9392 333.971 86.4719 335.883 82.7541 338.208C78.9063 340.615 74.7303 344.165 72.0057 348.745C69.1539 353.54 67.7729 359.795 70.6461 366.349C73.3327 372.477 79.1715 377.503 87.4832 381.696L94.2422 368.297C87.3557 364.823 85.0692 361.871 84.3908 360.323C83.8989 359.202 83.9131 358.083 84.9037 356.418C86.0216 354.538 88.1353 352.544 90.7117 350.932C91.9505 350.158 93.1574 349.56 94.1882 349.157C94.7001 348.957 95.1318 348.819 95.4707 348.731C95.6381 348.688 95.7702 348.66 95.8674 348.642C95.9659 348.625 96.013 348.621 96.0125 348.621L94.816 333.661ZM405.58 367.865C398.016 365.731 386.241 361.268 375.074 354.72C363.757 348.084 354.009 339.854 349.239 330.58L335.893 337.445C342.586 350.457 355.227 360.479 367.483 367.666C379.889 374.941 392.871 379.873 401.505 382.308L405.58 367.865ZM340.985 339.392C361.582 348.633 374.525 351.044 383.907 350.825C388.603 350.716 392.139 349.948 394.766 349.354C397.622 348.708 398.451 348.559 399.225 348.621L400.421 333.661C396.893 333.379 393.606 334.23 391.457 334.716C389.08 335.253 386.721 335.748 383.557 335.822C377.22 335.97 366.583 334.428 347.128 325.7L340.985 339.392ZM399.225 348.621C399.225 348.621 399.272 348.625 399.37 348.642C399.467 348.66 399.599 348.688 399.767 348.731C400.106 348.819 400.537 348.957 401.049 349.157C402.08 349.56 403.287 350.158 404.526 350.932C407.102 352.544 409.216 354.538 410.334 356.418C411.324 358.083 411.339 359.202 410.847 360.323C410.168 361.871 407.882 364.823 400.995 368.297L407.754 381.696C416.066 377.503 421.905 372.477 424.591 366.349C427.465 359.795 426.084 353.54 423.232 348.745C420.507 344.165 416.331 340.615 412.483 338.208C408.766 335.883 404.298 333.971 400.421 333.661L399.225 348.621ZM349.239 330.58C350.644 333.312 349.824 336.366 347.988 338.147C346.235 339.847 343.476 340.51 340.985 339.392L347.128 325.7C343.664 324.146 339.917 325.068 337.539 327.374C335.079 329.761 334.001 333.766 335.893 337.445L349.239 330.58ZM401.505 382.308C403.768 382.947 405.995 382.583 407.754 381.696L400.995 368.297C402.242 367.668 403.869 367.382 405.58 367.865L401.505 382.308ZM159.344 337.445C161.237 333.766 160.158 329.761 157.698 327.374C155.321 325.068 151.573 324.146 148.109 325.7L154.252 339.392C151.761 340.51 149.002 339.847 147.249 338.147C145.413 336.366 144.594 333.312 145.999 330.58L159.344 337.445ZM89.6578 367.865C91.3682 367.382 92.996 367.668 94.2422 368.297L87.4832 381.696C89.242 382.583 91.4696 382.947 93.7326 382.308L89.6578 367.865ZM186.593 374.231C188.486 370.552 187.407 366.547 184.947 364.161C182.57 361.855 178.822 360.932 175.359 362.486L181.502 376.179C179.01 377.296 176.252 376.634 174.498 374.933C172.663 373.152 171.843 370.098 173.248 367.367L186.593 374.231ZM116.907 404.651C118.617 404.169 120.245 404.454 121.491 405.083L114.732 418.482C116.491 419.369 118.719 419.733 120.982 419.095L116.907 404.651ZM158.515 159.341C156.027 159.175 153.867 157.565 152.997 155.227L167.062 149.994C165.872 146.796 162.918 144.593 159.513 144.366L158.515 159.341ZM112.731 153.492C114.251 155.376 116.488 156.539 118.904 156.7L119.902 141.726C121.667 141.843 123.303 142.694 124.413 144.071L112.731 153.492ZM88.8253 99.9333C81.0322 98.82 75.9085 107.831 80.8502 113.959L92.5321 104.538C96.1442 109.017 92.3991 115.604 86.7029 114.79L88.8253 99.9333ZM175.432 113.401C174.261 112.515 172.883 111.942 171.429 111.734L169.307 126.59C168.244 126.439 167.237 126.019 166.381 125.372L175.432 113.401ZM226.918 153.937C228.298 153.937 229.64 154.387 230.74 155.219L221.689 167.19C223.195 168.329 225.031 168.945 226.918 168.945V153.937ZM271.587 155.075C272.65 154.334 273.914 153.937 275.209 153.937V168.945C276.981 168.945 278.711 168.402 280.165 167.389L271.587 155.075ZM335.498 111.729C334.127 111.911 332.819 112.419 331.683 113.21L340.262 125.524C339.432 126.102 338.476 126.473 337.473 126.606L335.498 111.729ZM416.952 116.146C422.081 110.094 417.061 100.902 409.196 101.946L411.171 116.823C405.423 117.586 401.754 110.868 405.503 106.444L416.952 116.146ZM379.001 156.698C381.46 156.575 383.666 155.423 385.174 153.644L373.724 143.942C374.815 142.655 376.438 141.8 378.252 141.709L379.001 156.698ZM313.141 228.471C314.227 227.469 315.039 226.205 315.499 224.801L301.239 220.126C301.575 219.099 302.168 218.176 302.962 217.443L313.141 228.471ZM271.389 264.969C271.206 266.457 270.5 267.832 269.398 268.849L259.219 257.821C257.712 259.213 256.746 261.094 256.495 263.13L271.389 264.969ZM263.926 315.493C264.578 316.666 264.84 318.015 264.676 319.347L249.782 317.508C249.557 319.33 249.916 321.176 250.807 322.781L263.926 315.493ZM269.513 336.208C271.59 333.47 271.854 329.762 270.184 326.757L257.066 334.046C255.845 331.849 256.038 329.14 257.557 327.138L269.513 336.208ZM242.138 354.205C245.629 358.722 252.456 358.692 255.906 354.144L243.95 345.073C246.472 341.749 251.462 341.727 254.014 345.029L242.138 354.205ZM230.583 332.692C229.58 335.479 230.069 338.586 231.88 340.93L243.755 331.754C245.079 333.467 245.437 335.738 244.704 337.775L230.583 332.692ZM236.173 320.182C235.894 318.989 235.966 317.741 236.381 316.588L250.501 321.671C251.069 320.094 251.167 318.387 250.784 316.755L236.173 320.182ZM225.371 269.006C224.385 268.136 223.694 266.981 223.394 265.701L238.005 262.274C237.594 260.523 236.649 258.943 235.3 257.753L225.371 269.006ZM189.493 217.335C190.339 218.081 190.971 219.04 191.322 220.112L177.062 224.788C177.543 226.255 178.407 227.567 179.564 228.588L189.493 217.335ZM294.577 296.094C294.491 296.768 294.298 297.423 294.004 298.036L280.472 291.547C280.07 292.385 279.806 293.282 279.689 294.204L294.577 296.094ZM251.908 219.48C250.067 220.43 247.878 220.421 246.045 219.454L253.047 206.18C250.54 204.858 247.544 204.844 245.025 206.144L251.908 219.48ZM355.631 185.998C356.74 186.744 357.585 187.821 358.045 189.076L343.956 194.243C344.585 195.96 345.742 197.434 347.259 198.454L355.631 185.998ZM375.293 134.013C375.862 136.673 374.67 139.401 372.33 140.789L364.671 127.883C361.47 129.783 359.839 133.514 360.618 137.154L375.293 134.013ZM380.596 203.574C384.296 200.393 389.936 202.413 390.928 207.048L376.253 210.19C377.616 216.556 385.336 219.289 390.379 214.954L380.596 203.574ZM416.954 149.396C416.724 148.857 416.558 148.255 416.486 147.614L431.4 145.94C431.302 145.074 431.079 144.26 430.76 143.513L416.954 149.396ZM415.988 108.847C413.932 104.022 408.097 102.113 403.587 104.79L411.246 117.696C407.949 119.652 403.684 118.257 402.182 114.73L415.988 108.847ZM127.132 151.922C127.459 149.515 126.761 147.082 125.208 145.213L113.667 154.807C112.532 153.441 112.022 151.662 112.261 149.903L127.132 151.922ZM103.152 200.775C103.71 211.281 118.985 211.908 120.401 201.482L105.53 199.462C106.565 191.842 117.73 192.3 118.138 199.979L103.152 200.775ZM103.362 160.538C102.721 159.484 102.401 158.266 102.442 157.033L117.441 157.53C117.497 155.843 117.059 154.176 116.181 152.734L103.362 160.538ZM86.5007 132.629C86.6751 133.057 86.8835 133.47 87.1237 133.865L99.9425 126.061C100.118 126.349 100.27 126.651 100.398 126.964L86.5007 132.629ZM94.4097 112.273C97.1444 118.982 88.2988 124.287 83.6678 118.716L95.2088 109.123C88.8729 101.5 76.7711 108.758 80.5125 117.937L94.4097 112.273ZM150.954 198.454C152.471 197.434 153.628 195.96 154.257 194.243L140.168 189.076C140.628 187.821 141.473 186.744 142.582 185.998L150.954 198.454ZM103.525 212.979C102.555 220.378 110.764 225.464 116.958 221.302L108.586 208.846C113.113 205.804 119.113 209.521 118.405 214.929L103.525 212.979ZM120.922 142.259C116.378 141.985 112.396 145.273 111.805 149.787L126.685 151.737C126.253 155.036 123.342 157.439 120.021 157.239L120.922 142.259ZM159.66 159.623C155.422 159.368 152.629 155.101 154.09 151.115L168.18 156.283C170.18 150.83 166.358 144.991 160.561 144.643L159.66 159.623ZM87.7021 100.588C79.6152 99.4822 74.9436 108.872 79.9239 114.767L91.3882 105.083C94.9932 109.35 91.6446 116.274 85.6692 115.457L87.7021 100.588ZM166.87 154.215C167.538 152.353 167.572 150.261 166.848 148.295L152.766 153.484C152.231 152.032 152.262 150.489 152.746 149.141L166.87 154.215ZM149.408 198.246C150.847 197.221 151.938 195.78 152.536 194.117L138.412 189.043C138.849 187.828 139.646 186.775 140.698 186.025L149.408 198.246ZM104.23 213.334C103.992 220.51 112.08 224.849 117.927 220.682L109.218 208.46C113.491 205.415 119.403 208.586 119.229 213.831L104.23 213.334ZM112.744 154.286C111.593 152.889 111.094 151.067 111.373 149.278L126.201 151.592C126.583 149.145 125.9 146.652 124.325 144.741L112.744 154.286ZM137.595 137.154C138.374 133.514 136.743 129.783 133.542 127.883L125.883 140.789C123.543 139.401 122.351 136.673 122.92 134.013L137.595 137.154ZM107.834 214.954C112.877 219.289 120.597 216.556 121.96 210.19L107.285 207.048C108.277 202.413 113.917 200.393 117.617 203.574L107.834 214.954ZM67.4528 143.513C67.1342 144.26 66.9107 145.074 66.8134 145.94L81.7272 147.614C81.6552 148.255 81.4887 148.857 81.2589 149.396L67.4528 143.513ZM96.0313 114.73C94.5286 118.257 90.2637 119.652 86.9673 117.696L94.6261 104.79C90.1161 102.113 84.2812 104.022 82.2252 108.847L96.0313 114.73ZM249.204 268.404C253.992 268.404 257.874 264.522 257.874 259.734H242.866C242.866 256.234 245.704 253.397 249.204 253.397V268.404ZM215.715 138.031C217.504 139.284 219.699 139.816 221.863 139.521L219.835 124.651C221.417 124.436 223.021 124.825 224.328 125.741L215.715 138.031ZM143.186 83.3957C141.145 84.3218 138.766 84.1007 136.931 82.8142L145.544 70.5246C143.033 68.7646 139.778 68.4621 136.986 69.7291L143.186 83.3957ZM74.1314 112.391C73.5951 114.12 72.3452 115.537 70.6969 116.284L64.4964 102.618C62.2412 103.641 60.5312 105.58 59.7976 107.945L74.1314 112.391ZM35.1075 236.715C35.1674 237.509 35.077 238.307 34.841 239.068L20.5072 234.622C20.1844 235.663 20.0607 236.756 20.1426 237.843L35.1075 236.715ZM42.0601 366.395C43.9021 367.435 45.1034 369.327 45.2625 371.436L30.2975 372.564C30.5151 375.451 32.1587 378.038 34.6788 379.462L42.0601 366.395ZM118.916 422.665C116.838 417.124 122.814 412.012 127.967 414.922L120.585 427.989C127.634 431.971 135.81 424.976 132.968 417.396L118.916 422.665ZM146.014 205.111C142.695 202.579 138.045 202.771 134.946 205.567L145.001 216.709C142.736 218.753 139.336 218.893 136.911 217.043L146.014 205.111ZM201.907 266.627C203.418 267.78 205.265 268.404 207.166 268.404V253.397C208.555 253.397 209.905 253.853 211.009 254.695L201.907 266.627ZM250.186 253.397C253.711 253.397 256.559 256.274 256.523 259.799L241.516 259.645C241.467 264.468 245.363 268.404 250.186 268.404V253.397ZM283.597 127.3C284.962 126.228 286.706 125.763 288.423 126.013L286.263 140.864C288.611 141.206 290.998 140.57 292.864 139.104L283.597 127.3ZM364.474 69.7467C361.528 68.4101 358.083 68.8249 355.538 70.8226L364.805 82.627C362.945 84.0871 360.427 84.3903 358.274 83.4133L364.474 69.7467ZM441.624 107.945C440.89 105.58 439.18 103.641 436.925 102.618L430.724 116.284C429.076 115.537 427.826 114.12 427.29 112.391L441.624 107.945ZM481.279 237.843C481.361 236.756 481.237 235.663 480.914 234.622L466.58 239.068C466.344 238.307 466.254 237.509 466.314 236.715L481.279 237.843ZM466.743 379.462C469.263 378.038 470.906 375.451 471.124 372.564L456.159 371.436C456.318 369.327 457.519 367.435 459.361 366.395L466.743 379.462ZM368.454 417.396C365.611 424.976 373.787 431.971 380.836 427.989L373.455 414.922C378.607 412.012 384.583 417.124 382.505 422.665L368.454 417.396ZM384.203 378.838C382.993 379.812 382.067 381.093 381.521 382.548L395.573 387.817C395.175 388.881 394.498 389.817 393.613 390.529L384.203 378.838ZM409.191 361.062C409.384 359.41 410.217 357.9 411.513 356.857L420.923 368.548C422.695 367.122 423.836 365.055 424.098 362.795L409.191 361.062ZM415.966 304.836C415.875 304.265 415.863 303.684 415.93 303.11L430.837 304.844C430.928 304.058 430.912 303.264 430.788 302.483L415.966 304.836ZM411.257 266.195C410.181 265.224 409.471 263.914 409.243 262.484L424.065 260.131C423.755 258.173 422.783 256.381 421.311 255.053L411.257 266.195ZM364.51 217.043C362.085 218.893 358.686 218.753 356.421 216.709L366.475 205.567C363.377 202.771 358.726 202.579 355.408 205.111L364.51 217.043ZM290.412 254.695C291.516 253.853 292.867 253.397 294.256 253.397V268.404C296.156 268.404 298.004 267.78 299.515 266.627L290.412 254.695ZM185.271 188.68C186.335 188.68 187.382 188.948 188.315 189.459L181.105 202.621C182.382 203.321 183.815 203.687 185.271 203.687V188.68ZM208.95 302.482C208.515 301.701 208.251 300.837 208.173 299.946L223.125 298.65C223.019 297.431 222.657 296.248 222.061 295.18L208.95 302.482ZM346.115 189.655C347.126 189.018 348.297 188.68 349.493 188.68V203.687C351.128 203.687 352.73 203.225 354.114 202.353L346.115 189.655ZM288.225 337.255C289.116 336.058 289.682 334.651 289.87 333.171L274.982 331.281C275.12 330.199 275.534 329.171 276.185 328.296L288.225 337.255ZM412.711 159.014C408.337 156.777 408.062 150.628 412.219 148.01L420.218 160.707C425.905 157.125 425.529 148.713 419.545 145.652L412.711 159.014ZM241.812 380.096C245.11 385.143 252.426 385.366 256.026 380.529L243.986 371.57C246.616 368.034 251.964 368.197 254.375 371.886L241.812 380.096ZM328.43 115.128C327.427 115.128 326.438 114.889 325.545 114.432L332.378 101.071C331.156 100.446 329.803 100.12 328.43 100.12V115.128ZM224.794 326.619C225.366 327.494 225.712 328.497 225.803 329.538L210.851 330.835C210.975 332.259 211.449 333.631 212.231 334.829L224.794 326.619ZM182.957 113.909C181.821 114.736 180.493 115.128 179.221 115.128V100.12C177.455 100.12 175.663 100.657 174.127 101.774L182.957 113.909ZM385.952 149.903C386.191 151.662 385.681 153.441 384.546 154.807L373.005 145.213C371.452 147.082 370.754 149.515 371.081 151.922L385.952 149.903ZM377.798 420.457C380.061 421.096 382.288 420.732 384.047 419.845L377.288 406.445C378.535 405.817 380.162 405.531 381.873 406.014L377.798 420.457ZM380.075 199.979C380.483 192.3 391.648 191.842 392.683 199.462L377.812 201.482C379.228 211.908 394.503 211.281 395.061 200.775L380.075 199.979ZM394.774 346.518C394.605 344.932 395.04 343.341 395.992 342.061L408.031 351.021C409.334 349.271 409.928 347.093 409.697 344.924L394.774 346.518ZM387.902 376.645C387.773 377.751 387.356 378.803 386.691 379.696L374.652 370.737C373.742 371.959 373.171 373.399 372.995 374.912L387.902 376.645ZM382.032 152.734C381.154 154.176 380.717 155.843 380.772 157.53L395.772 157.033C395.813 158.266 395.493 159.484 394.851 160.538L382.032 152.734ZM372.139 414.683C376.406 410.501 383.559 414.006 382.869 419.941L367.962 418.208C367.018 426.327 376.805 431.123 382.643 425.401L372.139 414.683ZM397.815 126.964C397.943 126.651 398.095 126.349 398.271 126.061L411.089 133.865C411.33 133.47 411.538 133.057 411.712 132.629L397.815 126.964ZM245.305 271.153C243.82 273.188 243.293 275.769 243.862 278.223L258.482 274.833C258.898 276.627 258.513 278.514 257.427 280.001L245.305 271.153ZM417.701 117.937C421.442 108.758 409.34 101.5 403.004 109.123L414.545 118.716C409.914 124.287 401.069 118.982 403.803 112.273L417.701 117.937ZM300.431 200.373C297.931 200.657 295.794 201.99 294.418 203.875L306.54 212.723C305.549 214.081 303.974 215.075 302.123 215.285L300.431 200.373ZM379.808 214.929C379.099 209.521 385.1 205.804 389.627 208.846L381.255 221.302C387.449 225.464 395.658 220.378 394.688 212.979L379.808 214.929ZM460.395 254.222C461.228 251.35 460.552 248.121 458.329 245.809L447.51 256.209C445.865 254.497 445.381 252.112 445.982 250.04L460.395 254.222ZM378.192 157.239C374.871 157.439 371.96 155.036 371.528 151.737L386.408 149.787C385.817 145.273 381.835 141.985 377.291 142.259L378.192 157.239ZM408.106 380.576C408.41 379.53 408.978 378.579 409.757 377.816L420.261 388.534C421.326 387.491 422.104 386.19 422.519 384.758L408.106 380.576ZM337.652 144.643C331.855 144.991 328.033 150.83 330.033 156.283L344.123 151.115C345.584 155.101 342.791 159.368 338.553 159.623L337.652 144.643ZM392.514 283.21C389.782 282.68 387.716 280.429 387.421 277.662L402.343 276.068C401.939 272.283 399.112 269.204 395.375 268.478L392.514 283.21ZM412.544 115.457C406.568 116.274 403.22 109.35 406.825 105.083L418.289 114.767C423.269 108.872 418.598 99.4822 410.511 100.588L412.544 115.457ZM329.404 268.199C327.917 269.638 325.821 270.26 323.79 269.866L326.651 255.133C323.872 254.594 321.004 255.445 318.97 257.413L329.404 268.199ZM345.467 149.141C345.951 150.489 345.982 152.032 345.447 153.484L331.365 148.295C330.641 150.261 330.675 152.353 331.343 154.215L345.467 149.141ZM88.9997 344.803C88.768 346.972 89.3628 349.15 90.6653 350.9L102.705 341.94C103.657 343.22 104.092 344.811 103.922 346.397L88.9997 344.803ZM357.515 186.025C358.567 186.775 359.364 187.828 359.801 189.043L345.677 194.117C346.275 195.78 347.366 197.221 348.805 198.246L357.515 186.025ZM125.632 374.2C125.387 372.915 124.853 371.702 124.072 370.652L112.032 379.612C111.461 378.844 111.071 377.958 110.892 377.018L125.632 374.2ZM378.984 213.831C378.81 208.586 384.722 205.415 388.995 208.46L380.285 220.682C386.132 224.849 394.221 220.51 393.983 213.334L378.984 213.831ZM119.51 424.987C125.697 430.497 135.348 425.022 133.792 416.885L119.052 419.703C117.915 413.755 124.969 409.753 129.491 413.78L119.51 424.987ZM241.27 279.88C240.184 278.393 239.799 276.506 240.215 274.712L254.834 278.102C255.403 275.648 254.877 273.067 253.391 271.032L241.27 279.88ZM373.888 144.741C372.313 146.652 371.63 149.145 372.012 151.592L386.84 149.278C387.119 151.067 386.62 152.889 385.469 154.286L373.888 144.741ZM196.574 215.164C194.723 214.954 193.148 213.96 192.157 212.602L204.278 203.754C202.902 201.869 200.765 200.536 198.266 200.252L196.574 215.164ZM52.7145 249.919C53.3156 251.99 52.8317 254.376 51.1868 256.088L40.3671 245.688C38.1445 248 37.4682 251.229 38.3016 254.101L52.7145 249.919ZM107.808 390.529C106.924 389.817 106.247 388.881 105.848 387.817L119.9 382.548C119.355 381.093 118.428 379.812 117.218 378.838L107.808 390.529ZM76.1691 384.609C76.6237 386.175 77.5111 387.582 78.7294 388.667L88.7106 377.46C89.6011 378.253 90.2497 379.281 90.582 380.427L76.1691 384.609ZM306.506 251.345C303.493 249.756 302.276 246.071 303.748 243L317.28 249.488C319.295 245.287 317.628 240.245 313.507 238.071L306.506 251.345ZM107.975 145.091C105.704 146.08 104.4 147.792 103.721 149.029C103.016 150.315 102.656 151.659 102.526 152.874C102.396 154.075 102.448 155.552 102.951 157.08C103.453 158.605 104.608 160.714 107.022 162.037L114.233 148.875C116.118 149.907 116.913 151.496 117.206 152.388C117.501 153.284 117.497 154.017 117.447 154.48C117.396 154.957 117.251 155.568 116.879 156.246C116.534 156.876 115.681 158.105 113.964 158.852L107.975 145.091ZM77.3229 362.795C77.5857 365.055 78.7264 367.122 80.4988 368.548L89.9086 356.857C91.2041 357.9 92.0378 359.41 92.2299 361.062L77.3229 362.795ZM103.322 268.357C99.5842 269.083 96.7575 272.162 96.3532 275.947L111.276 277.541C110.98 280.308 108.914 282.559 106.182 283.089L103.322 268.357ZM70.6335 302.483C70.5095 303.264 70.493 304.058 70.5843 304.844L85.4913 303.11C85.558 303.684 85.546 304.265 85.4553 304.836L70.6335 302.483ZM179.727 257.292C177.692 255.324 174.825 254.473 172.046 255.012L174.906 269.745C172.875 270.139 170.779 269.517 169.292 268.078L179.727 257.292ZM258.215 316.187C261.757 312.761 267.682 314.51 268.795 319.31L254.175 322.7C255.698 329.267 263.805 331.66 268.65 326.973L258.215 316.187ZM183.282 238.012C178.931 240.257 177.301 245.658 179.684 249.935L192.795 242.633C194.536 245.759 193.345 249.706 190.165 251.348L183.282 238.012ZM325.532 368.729C326.937 371.461 326.117 374.515 324.281 376.295C322.528 377.996 319.769 378.659 317.278 377.541L323.421 363.849C319.957 362.295 316.21 363.217 313.832 365.523C311.372 367.909 310.294 371.914 312.186 375.594L325.532 368.729ZM80.1103 255.053C78.6388 256.381 77.6668 258.173 77.3561 260.131L92.1779 262.484C91.9508 263.914 91.2403 265.224 90.1647 266.195L80.1103 255.053ZM230.047 326.852C234.892 331.539 242.998 329.146 244.521 322.579L229.901 319.189C231.014 314.389 236.94 312.64 240.481 316.066L230.047 326.852Z" fill="#171C09" mask="url(#path-1-outside-1_571_22214)"/>
</svg>
