<svg width="1001" height="1001" viewBox="0 0 1001 1001" fill="none" xmlns="http://www.w3.org/2000/svg">
<path d="M332.457 756.249C296.734 681.394 178.751 320.039 178.751 320.039L233.385 132.02C295.094 97.6618 378.164 27.6547 390.75 28.0576L654.504 36.5003C700.572 70.9099 793.934 141.807 798.837 150.119C803.74 158.432 827.548 294.279 831.196 340.923L668.869 765.127L677.727 847.165L561.093 921.971C541.691 911.417 500.491 889.919 490.909 888.358C481.328 886.796 411.139 910.994 376.212 920.855L309.961 817.824L332.457 756.249Z" fill="#A80000"/>
<path d="M244.823 624.137C247.128 561.191 317.17 532.547 349.973 517.812C418.125 538.687 369.373 583.509 351.551 587.793C333.73 592.077 328.623 584.721 244.823 624.137Z" fill="#A80000"/>
<path d="M281.148 669.911C280.46 626.879 314.351 621.213 331.505 614.788C369.868 627.132 345.585 648.118 336.068 649.752C326.552 651.386 322.742 645.506 281.148 669.911Z" fill="#A80000"/>
<path d="M307.019 734.889C308.695 684.37 355.441 674.887 375.137 665.76C415.464 677.983 385.927 705.431 375.269 708.135C364.611 710.84 356.005 701.976 307.019 734.889Z" fill="#A80000"/>
<path d="M363.039 925.608C323.114 894.608 342.864 851.19 347.03 829.886C380.589 804.402 385.484 844.426 381.421 854.643C377.358 864.86 365.13 866.628 363.039 925.608Z" fill="#A80000"/>
<path d="M396.95 948.546C357.024 917.546 376.774 874.128 380.94 852.824C414.5 827.34 419.395 867.364 415.331 877.581C411.268 887.798 399.04 889.566 396.95 948.546Z" fill="#A80000"/>
<path d="M577.719 938.492C620.778 904.26 597.88 862.208 593.035 841.047C558.678 816.65 555.065 856.809 559.452 866.891C563.84 876.973 571.724 878.21 577.719 938.492Z" fill="#A80000"/>
<path d="M615.009 922.802C658.068 888.57 635.17 846.518 630.325 825.357C595.968 800.959 592.355 841.119 596.742 851.201C601.13 861.283 609.014 862.52 615.009 922.802Z" fill="#A80000"/>
<path d="M757.363 598.628C770.734 532.163 733.447 533.095 718.391 519.974C674.464 522.026 701.122 554.419 710.216 559.429C719.309 564.439 710.272 562.928 757.363 598.628Z" fill="#A80000"/>
<path d="M725.285 652.408C735.324 601.975 704.166 594.34 690.967 582.697C652.594 584.444 667.337 613.295 675.3 617.746C683.262 622.197 683.426 617.616 725.285 652.408Z" fill="#A80000"/>
<path d="M363.406 780.362C331.82 706.84 215.439 330.821 215.439 330.821L264.711 145.722C319.796 111.744 394.024 42.6383 405.236 42.9972L640.183 50.5177C681.115 84.2263 764.063 153.684 768.405 161.845C772.746 170.007 793.523 303.556 796.624 349.425L644.915 777.803L651.861 863.936L554.142 921.748C536.891 911.425 500.255 890.402 491.724 888.895C483.193 887.387 418.766 906.616 387.618 916.418L343.143 841.712L363.406 780.362Z" fill="#A80000"/>
<path d="M470.241 788.779C467.304 787.962 427.374 778.058 407.776 773.209L409.793 714.465L448.109 704.834L503.289 743.695L564.717 708.567L596.735 720.449L589.506 769.074C571.037 776.324 532.771 791.686 527.464 795.135C520.831 799.446 473.912 789.802 470.241 788.779Z" fill="#A80000"/>
<path d="M314.388 525.033C296.671 474.403 260.54 371.855 257.752 366.699L305.912 340.194L388.757 409.797L366.834 508.617L410.86 629.453L363.73 598.992L314.388 525.033Z" fill="#A80000"/>
<path d="M677.103 538.453C698.255 489.067 741.343 389.054 744.478 384.088L698.242 354.561L610.803 418.713L625.898 518.719L573.678 636.474L622.794 609.094L677.103 538.453Z" fill="#A80000"/>
<path d="M260.887 307.991L292.059 236.609L374.724 284.493L341.777 434.531C315.663 412.584 262.522 368.3 258.87 366.735C255.218 365.171 258.693 326.921 260.887 307.991Z" fill="#A80000"/>
<path d="M751.185 323.685L724.979 250.467L639.211 292.959L661.791 444.774C689.353 424.546 745.416 383.757 749.167 382.429C752.919 381.102 752.075 342.713 751.185 323.685Z" fill="#A80000"/>
<ellipse cx="43.7212" cy="42.6992" rx="43.7212" ry="42.6992" transform="matrix(0.999488 0.0319931 -0.0343238 0.999411 648.155 302.292)" fill="#A80000"/>
<ellipse cx="26.2327" cy="25.6195" rx="26.2327" ry="25.6195" transform="matrix(0.999488 0.0319931 -0.0343238 0.999411 651.651 302.404)" fill="#A80000"/>
<ellipse cx="43.7212" cy="42.6992" rx="43.7212" ry="42.6992" transform="matrix(0.999488 0.0319931 -0.0343238 0.999411 277.974 290.443)" fill="#A80000"/>
<ellipse cx="17.6843" cy="17.271" rx="17.6843" ry="17.271" transform="matrix(0.999488 0.0319931 -0.0343238 0.999411 279.475 295.933)" fill="#A80000"/>
<path d="M418.171 335.644C398.303 293.692 357.704 207.949 354.25 200.601L329.983 151.872L412.024 83.0235C477.762 84.223 609.22 87.1642 609.145 89.3332C609.052 92.0445 664.071 162.566 663.699 173.411C663.327 184.256 628.185 209.369 619.39 222.659C612.354 233.291 603.856 306.303 600.486 341.48L666.605 439.5L651.998 514.126L614.497 607.924L549.119 720.563L564.713 827.026L411.919 829.469L459.311 721.998L408.518 616.711L358.629 504.735L338.559 441.666L418.171 335.644Z" fill="#465717"/>
<path d="M396.703 513.19L363.98 435.94L373.456 391.475L372.185 311.912L283.867 232.837C286.178 203.56 332.38 197.154 332.288 191.368C332.195 185.581 401.278 200.815 427.969 209.734L450.073 260.024L473.262 378.123L396.703 513.19Z" fill="#A80000"/>
<path d="M617.13 514.188L647.366 435.931L596.752 398.11L626.959 318.045L722.103 244.823C718.858 215.634 659.192 216.926 655.828 212.164C650.143 204.116 651.685 204.047 625.293 213.814L547.452 268.672L528.05 387.452L617.13 514.188Z" fill="#A80000"/>
<path d="M351.265 314.503L304.972 259.641L280.022 230.795C317.841 235.625 395.806 247.711 405.108 257.418C414.41 267.125 428.615 301.297 434.556 317.169L404.924 397.648L336.584 445.221L338.291 395.515L351.265 314.503Z" fill="#A80000"/>
<path d="M352.316 314.039L438.052 319.043L408.435 397.826L334.512 446.359L352.316 314.039Z" fill="#A80000"/>
<path d="M660.552 318.975L710.507 267.194L737.382 240.007C699.314 242.407 620.692 249.481 610.744 258.572C600.797 267.663 584.277 300.851 577.261 316.309L601.306 398.505L666.231 450.345L667.939 400.638L660.552 318.975Z" fill="#A80000"/>
<path d="M657.236 318.755L576.982 320.038L597.708 400.355L669.574 451.645L657.236 318.755Z" fill="#A80000"/>
<path d="M299.818 274.857L281.842 231.758L353.085 315.466L335.876 438.865L331.912 365.454L333.185 328.4L299.818 274.857Z" fill="#A80000"/>
<path d="M712.787 281.742L736.845 240.066L656.851 318.856L665.555 443.085L674.547 370.088L675.82 333.034L712.787 281.742Z" fill="#A80000"/>
<path d="M364.33 824.293C373.628 814.337 394.463 793.954 403.422 792.069L433.962 793.047L479.614 812.603L536.067 814.41L579.507 790.467L618.376 791.712L630.122 827.373L561.11 840.544C547.166 841.908 516.132 844.533 503.546 844.13C490.96 843.727 481.768 839.814 478.745 837.908L428.584 841.731C413.417 842.753 381.404 845.106 374.691 846.339C367.978 847.572 364.987 832.156 364.33 824.293Z" fill="#A80000"/>
<path d="M146.543 334L265.611 467.927L789.934 427.293L865.647 334L874.402 213.94C851.147 184.678 779.043 136.465 773.102 128.898C767.16 121.332 420.519 128.054 234.086 131.4C195.556 166.271 134.563 221.293 132.786 231.449C131.009 241.605 139.2 285.355 146.543 334Z" fill="#A80000"/>
<path d="M172.806 321.494L256.597 424.044L760.595 424.044L838.134 321.494L844.088 225.08C823.285 198.901 765.304 168.502 759.988 161.733C754.673 154.964 423.382 150.918 256.597 153.911C222.128 185.107 164.227 234.46 162.638 243.546C161.048 252.632 172.806 321.494 172.806 321.494Z" fill="#344110"/>
<path d="M358.571 752.868C326.197 683.445 206.534 328.547 206.534 328.547L255.94 154.222C311.806 122.385 387 57.4983 398.397 57.8763L637.23 65.7966C678.957 97.7196 766.158 163.71 770.6 171.419C775.043 179.129 794.011 304.887 797.331 348.14L644.693 751.45L652.067 832.676L547.991 878.018C530.418 868.225 498.068 857.09 489.392 855.639C480.715 854.188 428.289 868.887 396.666 878.018L338.199 810.633L358.571 752.868Z" fill="#344110"/>
<path d="M390.353 926.843C372.591 901.927 381.084 864.31 387.551 848.616C424.054 836.765 424.712 869.33 419.532 876.357C414.351 883.383 398.749 881.108 390.353 926.843Z" fill="#D9D9D9"/>
<path d="M357.345 907.421C341.992 881.955 347.073 845.118 351.532 829.882C380.208 819.821 382.221 852.077 378.395 858.793C374.57 865.51 361.978 862.546 357.345 907.421Z" fill="#D9D9D9"/>
<path d="M256.835 607.756C264.221 578.98 301.683 555.414 319.49 547.228C356.499 558.849 330.037 583.76 320.362 586.138C310.686 588.517 300.943 578.018 256.835 607.756Z" fill="#D9D9D9"/>
<path d="M286.148 658.492C292.827 633.055 325.824 612.096 341.487 604.796C373.833 614.907 350.466 637.009 341.971 639.148C333.475 641.287 325.013 632.057 286.148 658.492Z" fill="#D9D9D9"/>
<path d="M314.441 722.7C322.314 693.557 359.945 669.358 377.776 660.902C414.297 672.249 387.56 697.69 377.911 700.195C368.261 702.699 358.786 692.198 314.441 722.7Z" fill="#D9D9D9"/>
<path d="M345.165 763.108C350.039 743.503 375.687 727.581 387.901 722.07C413.504 730.158 395.45 747.045 388.798 748.627C382.145 750.209 375.349 743.003 345.165 763.108Z" fill="#D9D9D9"/>
<path d="M753.716 581.324C758.193 552.18 732.037 520.549 718.399 508.377C678.624 510.265 693.8 540.454 702.036 545.103C710.273 549.752 723.714 542.192 753.716 581.324Z" fill="#D9D9D9"/>
<path d="M720.328 637.557C724.143 611.756 701.184 583.704 689.229 572.904C654.483 574.51 667.842 601.267 675.054 605.398C682.265 609.528 693.984 602.856 720.328 637.557Z" fill="#D9D9D9"/>
<path d="M689.165 704.886C692.083 675.487 667.814 643.032 655.314 630.48C620.197 631.686 634.701 662.489 642.153 667.337C649.605 672.184 661.225 664.776 689.165 704.886Z" fill="#D9D9D9"/>
<path d="M656.196 745.12C659.397 725.303 641.405 703.849 632.008 695.599C604.472 696.951 614.87 717.444 620.554 720.59C626.238 723.736 635.568 718.574 656.196 745.12Z" fill="#D9D9D9"/>
<path d="M582.474 920.852C602.528 897.372 595.583 858.986 589.603 842.728C551.754 827.823 549.323 860.387 554.409 867.856C559.495 875.325 576.064 874.343 582.474 920.852Z" fill="#D9D9D9"/>
<path d="M620.951 905.629C637.957 881.235 635.328 844.143 631.888 828.646C603.941 816.707 599.796 848.758 603.168 855.713C606.54 862.668 619.3 860.546 620.951 905.629Z" fill="#D9D9D9"/>
<path d="M373.9 755.454C345.273 687.269 239.088 356.011 239.088 356.011L204.071 307.737L196.567 246.457L301.619 167.668C351.487 136.18 401.368 71.3979 411.52 71.7346L624.267 78.7899L718.075 167.668L806.868 226.447L806.868 307.737L766.029 356.011L628.806 753.179L635.125 833.05L546.661 886.623C531.036 877.045 497.855 857.538 490.13 856.137C482.404 854.737 424.072 872.544 395.871 881.623L355.573 812.335L373.9 755.454Z" fill="#404E18"/>
<path d="M470.641 763.296C467.982 762.536 431.821 753.339 414.073 748.836L415.88 694.365L450.572 685.449L500.551 721.502L556.161 688.95L585.158 699.979L578.629 745.065C561.907 751.781 527.263 766.012 522.459 769.209C516.454 773.204 473.965 764.245 470.641 763.296Z" fill="#3B4717"/>
<path d="M329.425 518.679C313.364 471.725 280.612 376.623 278.086 371.841L321.686 347.28L396.726 411.85L376.909 503.475L416.817 615.537L374.13 587.276L329.425 518.679Z" fill="#344110"/>
<path d="M657.868 531.249C677.004 485.463 715.985 392.739 718.823 388.135L676.946 360.74L597.792 420.196L611.495 512.932L564.251 622.105L608.716 596.733L657.868 531.249Z" fill="#344110"/>
<path d="M280.905 317.404L309.106 251.225L383.976 295.654L354.194 434.768C330.54 414.409 282.406 373.327 279.098 371.875C275.791 370.423 278.924 334.956 280.905 317.404Z" fill="#394711"/>
<path d="M724.875 332.128L701.12 264.225L623.471 303.597L643.97 444.378C668.921 425.63 719.672 387.828 723.068 386.598C726.465 385.368 725.688 349.772 724.875 332.128Z" fill="#394711"/>
<circle cx="678.932" cy="352.443" r="39.5915" transform="rotate(1.8994 678.932 352.443)" fill="black"/>
<circle cx="666.794" cy="336.195" r="23.7549" transform="rotate(1.8994 666.794 336.195)" fill="#FDFDFD"/>
<circle cx="331.222" cy="341.326" r="39.5915" transform="rotate(1.8994 331.222 341.326)" fill="black"/>
<circle cx="309.801" cy="322.071" r="16.014" transform="rotate(1.8994 309.801 322.071)" fill="#FDFDFD"/>
<path d="M423.335 343.101C405.33 304.193 368.537 224.672 365.407 217.857L343.416 172.665L417.68 108.852C477.207 109.987 596.243 112.76 596.176 114.771C596.093 117.285 645.937 182.697 645.604 192.753C645.27 202.809 613.458 226.083 605.499 238.403C599.132 248.259 591.462 315.958 588.423 348.576L648.328 439.489L635.127 508.683L601.202 595.645L542.042 700.069L556.199 798.794L417.846 801.006L460.721 701.369L414.692 603.722L369.478 499.873L351.283 441.383L423.335 343.101Z" fill="#465717"/>
<path d="M403.957 507.726L374.3 436.082L382.865 394.855L381.686 321.079L301.687 247.725C303.768 220.577 345.603 214.654 345.517 209.288C345.431 203.923 407.991 218.072 432.163 226.351L452.196 272.991L473.234 382.509L403.957 507.726Z" fill="#4F621B"/>
<path d="M603.554 508.728L630.906 436.173L585.061 401.086L612.386 326.854L698.514 258.991C695.565 231.925 641.538 233.102 638.49 228.685C633.339 221.22 634.736 221.157 610.841 230.204L540.375 281.045L522.848 391.179L603.554 508.728Z" fill="#4F621B"/>
<path d="M362.744 323.474L320.807 272.586L298.204 245.83C332.452 250.321 403.053 261.555 411.479 270.559C419.905 279.564 432.78 311.255 438.165 325.975L411.361 400.59L349.496 444.679L351.025 398.589L362.744 323.474Z" fill="#4F621B"/>
<path d="M363.696 323.044L441.331 327.713L414.541 400.757L347.62 445.733L363.696 323.044Z" fill="#3B4717"/>
<path d="M642.805 327.728L688.021 279.73L712.347 254.53C677.878 256.743 606.687 263.275 597.683 271.701C588.679 280.127 573.732 310.896 567.384 325.227L589.186 401.453L647.994 449.545L649.522 403.454L642.805 327.728Z" fill="#4F621B"/>
<path d="M639.803 327.523L567.133 328.685L585.928 403.167L651.02 450.752L639.803 327.523Z" fill="#3B4717"/>
<path d="M316.145 286.694L299.853 246.723L364.392 324.368L348.853 438.786L345.238 370.712L346.377 336.354L316.145 286.694Z" fill="#3B4717"/>
<path d="M690.091 293.222L711.86 254.585L639.453 327.617L647.378 442.813L655.495 375.129L656.635 340.771L690.091 293.222Z" fill="#3B4717"/>
<path d="M374.752 796.19C383.168 786.961 402.027 768.068 410.139 766.323L437.793 767.24L479.138 785.39L530.256 787.085L569.583 764.899L604.779 766.067L615.427 799.138L552.942 811.328C540.317 812.587 512.216 815.011 500.819 814.633C489.422 814.255 481.097 810.623 478.36 808.854L432.94 812.382C419.206 813.324 390.219 815.495 384.141 816.636C378.063 817.777 375.349 803.481 374.752 796.19Z" fill="#4F621B"/>
<path d="M395.492 879.093C386.756 864.262 368.965 834.085 367.69 832.03C374.776 829.188 389.952 823.54 393.974 823.673C399.002 823.84 450.038 828.049 460.094 828.383L534.677 830.856C551.548 828.06 587.319 822.031 595.43 820.287C605.57 818.106 631.103 832.376 633.562 834.135C635.528 835.543 575.112 867.991 544.658 884.04C527.645 874.247 492.78 854.634 489.428 854.523C486.076 854.412 425.408 870.857 395.492 879.093Z" fill="#3B4717"/>
</svg>
