<svg width="400" height="400" viewBox="0 0 400 400" fill="none" xmlns="http://www.w3.org/2000/svg">
<path d="M81.4702 120.555C75.9754 68.853 125.386 34.5693 150.779 23.8902C211.97 10.0809 198.759 49.7884 246.713 58.1844C306.655 68.6795 315.607 122.938 307.41 145.789C286.805 203.236 340.935 212.248 329.357 258.095C315.604 312.553 334.977 315.541 270.039 363.598C218.089 402.043 189.105 357.667 170.997 341.648C151.224 331.89 106.446 346.938 81.47 285.957C50.25 209.73 88.3386 185.182 81.4702 120.555Z" fill="#465717" stroke="#A80000" stroke-width="8"/>
<path d="M319.299 224.994C270.241 308.093 157.022 318.856 106.545 313.85C132.826 338.254 157.856 327.617 174.126 337.629C209.793 377.677 229.817 373.296 237.952 373.296C294.52 347.766 313.25 318.022 315.545 306.341L321.177 265.668C325.14 258.784 330.312 241.013 319.299 224.994Z" fill="#404E18"/>
<path d="M182.26 122.371C183.762 153.909 99.0359 182.026 79.012 196.835C84.4351 190.161 93.5293 163.045 86.5209 107.979C90.2754 56.0419 146.593 26.006 162.862 26.6317C165.991 26.006 184.138 23.503 196.653 33.5149C203.536 37.8952 219.18 57.2934 237.326 61.0479C194.15 62.0908 180.759 90.8335 182.26 122.371Z" fill="#4F621B"/>
<path d="M124.691 81.0718C133.202 58.5449 156.187 51.6617 166.617 51.0359L193.524 71.6856C196.235 79.1946 202.535 98.4676 206.039 115.488C210.419 136.763 144.715 143.647 133.452 142.395C122.188 141.144 114.054 109.231 124.691 81.0718Z" fill="#3B4717"/>
<path d="M222.308 122.997C225.437 108.605 227.94 104.225 243.584 87.9551C246.712 90.4581 257.475 96.5904 275.497 101.096C298.024 106.728 287.386 129.88 287.386 142.395C287.386 154.91 279.877 181.817 275.497 186.198C271.117 190.578 243.584 177.437 222.308 165.548C201.033 153.659 219.179 137.389 222.308 122.997Z" fill="#3B4717"/>
<path d="M99.6615 194.332C85.2693 194.332 97.1585 170.554 104.667 148.027C111.342 148.027 126.443 150.405 133.452 159.916C142.212 171.805 140.335 174.934 138.458 186.198C136.581 197.461 114.054 194.332 99.6615 194.332Z" fill="#3B4717"/>
<path d="M155.353 165.548C158.482 144.898 155.979 154.284 175.377 148.027C177.88 149.904 185.014 154.91 193.524 159.916C204.161 166.174 207.916 190.578 206.039 201.215C204.161 211.853 193.524 220.614 166.617 216.859C139.709 213.105 152.224 186.198 155.353 165.548Z" fill="#3B4717"/>
<path d="M155.353 230.626C144.09 208.724 144.715 216.859 110.925 210.602V243.766C110.925 251.901 120.937 277.557 133.452 281.311C145.967 285.066 155.353 278.183 159.733 274.428C164.114 270.674 166.617 252.527 155.353 230.626Z" fill="#3B4717"/>
<path d="M228.566 210.602C234.823 204.344 238.578 201.215 264.859 201.215C268.405 206.43 274.996 218.862 272.994 226.871C270.491 236.883 270.491 243.766 264.859 254.404C259.227 265.042 238.578 249.398 222.308 243.766C206.039 238.135 222.308 216.859 228.566 210.602Z" fill="#3B4717"/>
<path d="M275.497 254.404C269.865 240.012 287.386 230.626 301.153 221.239C303.864 227.288 309.663 240.262 311.165 243.766C313.042 248.147 308.036 281.311 301.153 281.311C294.269 281.311 281.129 268.796 275.497 254.404Z" fill="#3B4717"/>
<path d="M281.754 281.311C276.123 270.048 260.479 270.048 238.578 268.796C238.578 274.637 237.577 287.944 233.572 294.452C228.566 302.587 238.578 311.973 238.578 322.611C238.578 333.248 275.497 324.488 287.386 316.979C299.275 309.47 287.386 292.575 281.754 281.311Z" fill="#3B4717"/>
<path d="M175.377 268.796C157.231 250.65 175.377 248.772 182.26 230.626C192.064 237.717 212.421 252.402 215.425 254.404C219.18 256.907 222.308 281.311 215.425 289.446C208.542 297.581 193.524 286.943 175.377 268.796Z" fill="#3B4717"/>
<path d="M144.09 311.973C137.207 301.335 151.599 289.446 166.617 286.317C175.586 293.409 193.524 308.469 193.524 311.973C193.524 316.353 186.641 326.991 182.26 329.494C177.88 331.997 150.973 322.611 144.09 311.973Z" fill="#3B4717"/>
<path d="M99.6615 289.446C94.6555 284.44 90.2754 268.796 90.2754 261.913H93.4041C98.2015 264.207 109.048 269.923 114.054 274.428C120.311 280.06 126.569 294.452 128.446 298.832C130.323 303.212 125.317 307.593 118.434 311.973C111.551 316.353 104.667 294.452 99.6615 289.446Z" fill="#3B4717"/>
<path d="M206.039 340.757C206.039 332.623 212.296 329.494 217.302 326.991L228.566 329.494C234.197 333.248 245.586 343.135 246.087 352.647C246.712 364.536 238.578 365.162 222.308 363.284C206.039 361.407 206.039 348.892 206.039 340.757Z" fill="#3B4717"/>
</svg>
