<svg width="1001" height="1001" viewBox="0 0 1001 1001" fill="none" xmlns="http://www.w3.org/2000/svg">
<mask id="path-1-outside-1_571_22214" maskUnits="userSpaceOnUse" x="40.217" y="137.864" width="923" height="721" fill="black">
<rect fill="white" x="40.217" y="137.864" width="923" height="721"/>
<path d="M346.952 525.047C347.7 524.901 348.471 525.13 349.019 525.66L470.528 643.207C471.832 644.468 474.013 643.824 474.423 642.057L495.049 553.104C495.203 552.444 495.061 551.749 494.661 551.202L396.435 416.645C396.05 416.118 395.488 415.779 394.84 415.706C334.542 408.863 213.202 395.938 202.362 398.106C191.563 400.266 124.591 467.694 91.5541 502.065C90.9764 502.666 90.784 503.509 91.0163 504.309L166.751 765.325C166.874 765.746 167.112 766.125 167.44 766.417L249.002 839.057C250.666 840.54 253.263 839.067 252.845 836.877L236.524 751.508C236.458 751.162 236.315 750.836 236.104 750.554L193.37 693.13C193.02 692.659 192.86 692.073 192.922 691.489L207.629 553.778C207.738 552.759 208.499 551.931 209.504 551.736L346.952 525.047Z"/>
<path d="M650.441 525.289C649.693 525.144 648.922 525.373 648.374 525.902L526.865 643.449C525.562 644.71 523.38 644.066 522.971 642.299L502.344 553.346C502.191 552.686 502.333 551.991 502.732 551.444L600.958 416.887C601.343 416.36 601.905 416.021 602.554 415.948C662.851 409.105 784.191 396.181 795.031 398.349C805.83 400.508 872.802 467.936 905.839 502.307C906.417 502.908 906.609 503.751 906.377 504.552L830.625 765.624C830.514 766.009 830.304 766.359 830.018 766.64L754.782 840.374C753.211 841.914 750.578 840.623 750.832 838.439L760.897 751.846C760.945 751.439 761.098 751.052 761.343 750.723L804.023 693.372C804.373 692.901 804.533 692.315 804.471 691.731L789.764 554.02C789.655 553.001 788.895 552.173 787.889 551.978L650.441 525.289Z"/>
<path d="M640.699 741.679C638.755 740.807 636.743 742.717 637.718 744.612C660.645 789.183 727.275 817.621 759.671 826.76C760.223 826.916 760.823 826.838 761.336 826.579C822.129 795.913 769.753 760.27 752.233 758.869C735.022 757.493 720.802 777.616 640.699 741.679Z"/>
<path d="M358.442 215.537C357.948 215.537 357.484 215.682 357.085 215.973C320.261 242.766 249.165 292.386 221.939 304.233C219.725 305.197 219.138 310.041 221.255 311.201L369.421 392.37C369.764 392.558 370.15 392.657 370.542 392.657H698.985C699.426 392.657 699.857 392.532 700.229 392.298L832.437 309.007C833.967 308.043 833.866 305.779 832.256 304.956L657.923 215.793C657.594 215.625 657.23 215.537 656.861 215.537H358.442Z"/>
<path d="M722.896 422.566C722.063 421.814 720.811 421.762 719.918 422.443L589.927 521.612C589.52 521.922 589.023 522.09 588.512 522.09H500.372C499.075 522.09 498.026 521.031 498.04 519.733L500.74 256.411L574.686 267.167C575.318 267.259 575.96 267.087 576.462 266.693L720.344 153.739C721.029 153.202 721.956 153.09 722.748 153.45L867.65 219.192C868.256 219.467 868.717 219.989 868.914 220.625L947.495 473.98C947.581 474.26 947.615 474.554 947.593 474.847L927.283 744.29C927.224 745.067 926.782 745.763 926.104 746.146L754.291 843.201C752.394 844.272 750.194 842.39 750.959 840.35L777.095 770.655C777.242 770.264 777.491 769.919 777.816 769.657L832.436 725.695C832.912 725.311 833.219 724.755 833.29 724.147L846.767 608.243C846.792 608.032 846.787 607.818 846.754 607.608L833.309 522.904C833.225 522.377 832.964 521.895 832.568 521.538L722.896 422.566Z"/>
<path d="M279.947 422.566C280.781 421.814 282.032 421.762 282.925 422.443L412.916 521.612C413.323 521.922 413.82 522.09 414.331 522.09H498.407C499.696 522.09 500.74 521.046 500.74 519.757V256.411L441.698 264.462C441.116 264.542 440.525 264.398 440.044 264.061L282.475 153.628C281.799 153.155 280.924 153.073 280.172 153.414L135.194 219.192C134.587 219.467 134.127 219.989 133.929 220.625L55.3485 473.98C55.2616 474.26 55.2284 474.554 55.2504 474.847L75.5602 744.29C75.6187 745.067 76.061 745.763 76.7391 746.146L248.552 843.201C250.449 844.272 252.649 842.39 251.884 840.35L225.748 770.655C225.602 770.264 225.352 769.919 225.027 769.657L170.408 725.695C169.931 725.311 169.624 724.755 169.553 724.147L156.076 608.243C156.051 608.032 156.056 607.818 156.089 607.608L169.534 522.904C169.618 522.377 169.879 521.895 170.275 521.538L279.947 422.566Z"/>
<path d="M148.541 293.843C148.566 293.618 148.623 293.407 148.712 293.199L178.257 223.867C178.81 222.569 180.38 222.055 181.594 222.775L259.425 268.962C260.286 269.473 260.725 270.477 260.515 271.457L229.245 417.527C228.874 419.259 226.794 419.971 225.451 418.817C198.833 395.934 150.08 354.377 146.61 352.854C143.027 351.281 146.382 313.076 148.541 293.843Z"/>
<path d="M246.504 321.004C245.714 344.812 225.774 363.472 201.966 362.683C178.158 361.893 159.497 341.953 160.287 318.145C161.077 294.337 181.017 275.676 204.825 276.466C228.633 277.255 247.293 297.196 246.504 321.004Z"/>
<path d="M197.495 299.176C197.175 308.806 189.11 316.353 179.48 316.034C169.85 315.715 162.302 307.649 162.622 298.019C162.941 288.389 171.006 280.842 180.636 281.161C190.266 281.48 197.814 289.546 197.495 299.176Z"/>
<path d="M237.574 301.16C237.677 300.502 237.493 299.831 237.07 299.317L192.049 244.687L171.312 220.139C169.937 218.511 171.26 216.046 173.372 216.334C212.336 221.661 282.113 233.165 290.829 242.479C299.863 252.132 313.59 285.719 319.615 302.069C319.804 302.582 319.8 303.131 319.616 303.646L290.948 383.45C290.787 383.898 290.494 384.285 290.106 384.561L227.145 429.432C225.572 430.553 223.396 429.385 223.46 427.454L224.969 381.957L237.574 301.16Z"/>
<path d="M238.49 301.813C238.649 300.598 239.721 299.714 240.943 299.787L320.221 304.555C321.781 304.649 322.809 306.22 322.271 307.687L294.425 383.608C294.256 384.07 293.945 384.467 293.536 384.741L225.544 430.438C223.878 431.558 221.669 430.189 221.93 428.198L238.49 301.813Z"/>
<path d="M187.067 260.215C187.002 260.109 186.946 259.997 186.899 259.882L174.922 230.5C173.916 228.03 177.172 226.077 178.877 228.128L238.876 300.31C239.294 300.812 239.482 301.467 239.394 302.115L225.932 401.234C225.551 404.039 221.441 403.871 221.291 401.044L218.664 351.588L219.882 314.853C219.897 314.399 219.78 313.95 219.543 313.562L187.067 260.215Z"/>
<path d="M847.886 293.843C847.86 293.618 847.803 293.407 847.715 293.199L818.17 223.867C817.616 222.569 816.046 222.055 814.833 222.775L737.002 268.962C736.14 269.473 735.701 270.477 735.911 271.457L767.182 417.527C767.552 419.259 769.632 419.972 770.975 418.817C797.593 395.934 846.346 354.377 849.816 352.854C853.399 351.281 850.045 313.076 847.886 293.843Z"/>
<path d="M749.923 321.004C750.713 344.812 770.653 363.472 794.461 362.683C818.269 361.893 836.929 341.953 836.14 318.145C835.35 294.337 815.41 275.676 791.602 276.466C767.794 277.255 749.133 297.196 749.923 321.004Z"/>
<path d="M798.932 299.176C799.252 308.806 807.317 316.353 816.947 316.034C826.577 315.715 834.125 307.649 833.805 298.019C833.486 288.389 825.42 280.842 815.791 281.161C806.161 281.48 798.613 289.546 798.932 299.176Z"/>
<path d="M758.852 301.16C758.749 300.502 758.933 299.831 759.357 299.317L804.378 244.687L825.114 220.139C826.489 218.511 825.166 216.046 823.055 216.334C784.09 221.661 714.313 233.165 705.597 242.479C696.564 252.132 682.837 285.719 676.812 302.069C676.623 302.582 676.626 303.131 676.811 303.646L705.479 383.45C705.639 383.898 705.933 384.285 706.32 384.561L769.281 429.432C770.854 430.553 773.031 429.385 772.967 427.455L771.458 381.957L758.852 301.16Z"/>
<path d="M757.936 301.813C757.777 300.598 756.706 299.714 755.483 299.787L676.206 304.555C674.646 304.649 673.618 306.22 674.156 307.687L702.001 383.608C702.171 384.07 702.482 384.467 702.89 384.741L770.882 430.438C772.549 431.558 774.757 430.189 774.497 428.198L757.936 301.813Z"/>
<path d="M809.36 260.215C809.425 260.109 809.481 259.997 809.528 259.882L821.504 230.5C822.511 228.03 819.255 226.077 817.55 228.128L757.551 300.31C757.133 300.812 756.945 301.467 757.033 302.115L770.495 401.234C770.876 404.039 774.986 403.871 775.136 401.044L777.763 351.588L776.544 314.853C776.529 314.399 776.647 313.95 776.883 313.562L809.36 260.215Z"/>
<path d="M499.092 425.924C498.418 425.568 497.612 425.564 496.934 425.914L373.447 489.649C372.276 490.253 371.838 491.706 372.479 492.857L431.012 597.951C431.172 598.239 431.27 598.557 431.298 598.885L436.654 660.663C436.688 661.046 436.815 661.415 437.026 661.737L496.187 752.271C497.074 753.63 499.043 753.69 500.011 752.388L564.41 665.84C564.65 665.518 564.802 665.14 564.853 664.742L574.266 590.587C574.297 590.339 574.368 590.098 574.476 589.873L621.028 492.778C621.57 491.648 621.122 490.291 620.013 489.706L499.092 425.924Z"/>
<path d="M461.399 528.264C461.288 527.793 461.034 527.368 460.671 527.048L369.058 446.212C368.746 445.937 368.514 445.584 368.384 445.19L341.333 362.683L320.06 305.511C319.739 304.65 318.944 304.058 318.028 303.997L238.806 298.715C238.156 298.672 237.554 298.359 237.145 297.852L173.383 218.787C172.053 217.138 173.432 214.713 175.528 215.013L340.736 238.614C341.128 238.67 341.498 238.824 341.813 239.062L452.43 322.699C452.835 323.006 453.329 323.171 453.837 323.171H550.419C550.896 323.171 551.361 323.025 551.752 322.753L671.945 239.023C672.25 238.81 672.602 238.673 672.972 238.625L820.368 219.059C822.484 218.778 823.835 221.251 822.454 222.88L758.898 297.876C758.481 298.368 757.898 298.665 757.254 298.697C729.678 300.075 675.641 302.735 672.41 302.735C669.14 302.735 651.973 342.7 643.798 362.683L616.738 445.216C616.614 445.594 616.396 445.934 616.104 446.204L528.618 526.96C528.212 527.334 527.952 527.841 527.885 528.388L514.458 637.144C514.397 637.635 514.494 638.132 514.734 638.563L527.25 661.093C527.699 661.901 527.629 662.899 527.07 663.636L499.857 699.507C498.929 700.731 497.091 700.739 496.152 699.523L475.636 672.973C475.149 672.342 475.017 671.506 475.287 670.756L486.882 638.549C487.034 638.125 487.061 637.665 486.958 637.226L461.399 528.264Z"/>
<path d="M356.861 738.954C358.805 738.082 360.817 739.992 359.842 741.888C336.915 786.459 270.285 814.896 237.889 824.035C237.336 824.191 236.737 824.113 236.224 823.855C175.431 793.189 227.807 757.546 245.327 756.144C262.537 754.768 276.758 774.891 356.861 738.954Z"/>
<path d="M302.362 665.382C304.307 664.509 306.318 666.42 305.344 668.315C282.417 712.886 215.787 741.323 183.391 750.463C182.838 750.619 182.238 750.541 181.726 750.282C120.932 719.616 173.309 683.973 190.829 682.572C208.039 681.195 222.259 701.319 302.362 665.382Z"/>
<path d="M688.113 665.382C686.169 664.509 684.157 666.42 685.132 668.315C708.059 712.886 774.689 741.323 807.085 750.463C807.637 750.619 808.237 750.541 808.75 750.282C869.543 719.616 817.167 683.973 799.647 682.572C782.436 681.195 768.216 701.319 688.113 665.382Z"/>
</mask>
<path d="M346.952 525.047C347.7 524.901 348.471 525.13 349.019 525.66L470.528 643.207C471.832 644.468 474.013 643.824 474.423 642.057L495.049 553.104C495.203 552.444 495.061 551.749 494.661 551.202L396.435 416.645C396.05 416.118 395.488 415.779 394.84 415.706C334.542 408.863 213.202 395.938 202.362 398.106C191.563 400.266 124.591 467.694 91.5541 502.065C90.9764 502.666 90.784 503.509 91.0163 504.309L166.751 765.325C166.874 765.746 167.112 766.125 167.44 766.417L249.002 839.057C250.666 840.54 253.263 839.067 252.845 836.877L236.524 751.508C236.458 751.162 236.315 750.836 236.104 750.554L193.37 693.13C193.02 692.659 192.86 692.073 192.922 691.489L207.629 553.778C207.738 552.759 208.499 551.931 209.504 551.736L346.952 525.047Z" fill="#3B4717"/>
<path d="M650.441 525.289C649.693 525.144 648.922 525.373 648.374 525.902L526.865 643.449C525.562 644.71 523.38 644.066 522.971 642.299L502.344 553.346C502.191 552.686 502.333 551.991 502.732 551.444L600.958 416.887C601.343 416.36 601.905 416.021 602.554 415.948C662.851 409.105 784.191 396.181 795.031 398.349C805.83 400.508 872.802 467.936 905.839 502.307C906.417 502.908 906.609 503.751 906.377 504.552L830.625 765.624C830.514 766.009 830.304 766.359 830.018 766.64L754.782 840.374C753.211 841.914 750.578 840.623 750.832 838.439L760.897 751.846C760.945 751.439 761.098 751.052 761.343 750.723L804.023 693.372C804.373 692.901 804.533 692.315 804.471 691.731L789.764 554.02C789.655 553.001 788.895 552.173 787.889 551.978L650.441 525.289Z" fill="#3B4717"/>
<path d="M640.699 741.679C638.755 740.807 636.743 742.717 637.718 744.612C660.645 789.183 727.275 817.621 759.671 826.76C760.223 826.916 760.823 826.838 761.336 826.579C822.129 795.913 769.753 760.27 752.233 758.869C735.022 757.493 720.802 777.616 640.699 741.679Z" fill="#D9D9D9"/>
<path d="M358.442 215.537C357.948 215.537 357.484 215.682 357.085 215.973C320.261 242.766 249.165 292.386 221.939 304.233C219.725 305.197 219.138 310.041 221.255 311.201L369.421 392.37C369.764 392.558 370.15 392.657 370.542 392.657H698.985C699.426 392.657 699.857 392.532 700.229 392.298L832.437 309.007C833.967 308.043 833.866 305.779 832.256 304.956L657.923 215.793C657.594 215.625 657.23 215.537 656.861 215.537H358.442Z" fill="#27310B"/>
<path d="M722.896 422.566C722.063 421.814 720.811 421.762 719.918 422.443L589.927 521.612C589.52 521.922 589.023 522.09 588.512 522.09H500.372C499.075 522.09 498.026 521.031 498.04 519.733L500.74 256.411L574.686 267.167C575.318 267.259 575.96 267.087 576.462 266.693L720.344 153.739C721.029 153.202 721.956 153.09 722.748 153.45L867.65 219.192C868.256 219.467 868.717 219.989 868.914 220.625L947.495 473.98C947.581 474.26 947.615 474.554 947.593 474.847L927.283 744.29C927.224 745.067 926.782 745.763 926.104 746.146L754.291 843.201C752.394 844.272 750.194 842.39 750.959 840.35L777.095 770.655C777.242 770.264 777.491 769.919 777.816 769.657L832.436 725.695C832.912 725.311 833.219 724.755 833.29 724.147L846.767 608.243C846.792 608.032 846.787 607.818 846.754 607.608L833.309 522.904C833.225 522.377 832.964 521.895 832.568 521.538L722.896 422.566Z" fill="#404E18"/>
<path d="M279.947 422.566C280.781 421.814 282.032 421.762 282.925 422.443L412.916 521.612C413.323 521.922 413.82 522.09 414.331 522.09H498.407C499.696 522.09 500.74 521.046 500.74 519.757V256.411L441.698 264.462C441.116 264.542 440.525 264.398 440.044 264.061L282.475 153.628C281.799 153.155 280.924 153.073 280.172 153.414L135.194 219.192C134.587 219.467 134.127 219.989 133.929 220.625L55.3485 473.98C55.2616 474.26 55.2284 474.554 55.2504 474.847L75.5602 744.29C75.6187 745.067 76.061 745.763 76.7391 746.146L248.552 843.201C250.449 844.272 252.649 842.39 251.884 840.35L225.748 770.655C225.602 770.264 225.352 769.919 225.027 769.657L170.408 725.695C169.931 725.311 169.624 724.755 169.553 724.147L156.076 608.243C156.051 608.032 156.056 607.818 156.089 607.608L169.534 522.904C169.618 522.377 169.879 521.895 170.275 521.538L279.947 422.566Z" fill="#404E18"/>
<path d="M148.541 293.843C148.566 293.618 148.623 293.407 148.712 293.199L178.257 223.867C178.81 222.569 180.38 222.055 181.594 222.775L259.425 268.962C260.286 269.473 260.725 270.477 260.515 271.457L229.245 417.527C228.874 419.259 226.794 419.971 225.451 418.817C198.833 395.934 150.08 354.377 146.61 352.854C143.027 351.281 146.382 313.076 148.541 293.843Z" fill="#394711"/>
<path d="M246.504 321.004C245.714 344.812 225.774 363.472 201.966 362.683C178.158 361.893 159.497 341.953 160.287 318.145C161.077 294.337 181.017 275.676 204.825 276.466C228.633 277.255 247.293 297.196 246.504 321.004Z" fill="black"/>
<path d="M197.495 299.176C197.175 308.806 189.11 316.353 179.48 316.034C169.85 315.715 162.302 307.649 162.622 298.019C162.941 288.389 171.006 280.842 180.636 281.161C190.266 281.48 197.814 289.546 197.495 299.176Z" fill="#FDFDFD"/>
<path d="M237.574 301.16C237.677 300.502 237.493 299.831 237.07 299.317L192.049 244.687L171.312 220.139C169.937 218.511 171.26 216.046 173.372 216.334C212.336 221.661 282.113 233.165 290.829 242.479C299.863 252.132 313.59 285.719 319.615 302.069C319.804 302.582 319.8 303.131 319.616 303.646L290.948 383.45C290.787 383.898 290.494 384.285 290.106 384.561L227.145 429.432C225.572 430.553 223.396 429.385 223.46 427.454L224.969 381.957L237.574 301.16Z" fill="#4F621B"/>
<path d="M238.49 301.813C238.649 300.598 239.721 299.714 240.943 299.787L320.221 304.555C321.781 304.649 322.809 306.22 322.271 307.687L294.425 383.608C294.256 384.07 293.945 384.467 293.536 384.741L225.544 430.438C223.878 431.558 221.669 430.189 221.93 428.198L238.49 301.813Z" fill="#3B4717"/>
<path d="M187.067 260.215C187.002 260.109 186.946 259.997 186.899 259.882L174.922 230.5C173.916 228.03 177.172 226.077 178.877 228.128L238.876 300.31C239.294 300.812 239.482 301.467 239.394 302.115L225.932 401.234C225.551 404.039 221.441 403.871 221.291 401.044L218.664 351.588L219.882 314.853C219.897 314.399 219.78 313.95 219.543 313.562L187.067 260.215Z" fill="#3B4717"/>
<path d="M847.886 293.843C847.86 293.618 847.803 293.407 847.715 293.199L818.17 223.867C817.616 222.569 816.046 222.055 814.833 222.775L737.002 268.962C736.14 269.473 735.701 270.477 735.911 271.457L767.182 417.527C767.552 419.259 769.632 419.972 770.975 418.817C797.593 395.934 846.346 354.377 849.816 352.854C853.399 351.281 850.045 313.076 847.886 293.843Z" fill="#394711"/>
<path d="M749.923 321.004C750.713 344.812 770.653 363.472 794.461 362.683C818.269 361.893 836.929 341.953 836.14 318.145C835.35 294.337 815.41 275.676 791.602 276.466C767.794 277.255 749.133 297.196 749.923 321.004Z" fill="black"/>
<path d="M798.932 299.176C799.252 308.806 807.317 316.353 816.947 316.034C826.577 315.715 834.125 307.649 833.805 298.019C833.486 288.389 825.42 280.842 815.791 281.161C806.161 281.48 798.613 289.546 798.932 299.176Z" fill="#FDFDFD"/>
<path d="M758.852 301.16C758.749 300.502 758.933 299.831 759.357 299.317L804.378 244.687L825.114 220.139C826.489 218.511 825.166 216.046 823.055 216.334C784.09 221.661 714.313 233.165 705.597 242.479C696.564 252.132 682.837 285.719 676.812 302.069C676.623 302.582 676.626 303.131 676.811 303.646L705.479 383.45C705.639 383.898 705.933 384.285 706.32 384.561L769.281 429.432C770.854 430.553 773.031 429.385 772.967 427.455L771.458 381.957L758.852 301.16Z" fill="#4F621B"/>
<path d="M757.936 301.813C757.777 300.598 756.706 299.714 755.483 299.787L676.206 304.555C674.646 304.649 673.618 306.22 674.156 307.687L702.001 383.608C702.171 384.07 702.482 384.467 702.89 384.741L770.882 430.438C772.549 431.558 774.757 430.189 774.497 428.198L757.936 301.813Z" fill="#3B4717"/>
<path d="M809.36 260.215C809.425 260.109 809.481 259.997 809.528 259.882L821.504 230.5C822.511 228.03 819.255 226.077 817.55 228.128L757.551 300.31C757.133 300.812 756.945 301.467 757.033 302.115L770.495 401.234C770.876 404.039 774.986 403.871 775.136 401.044L777.763 351.588L776.544 314.853C776.529 314.399 776.647 313.95 776.883 313.562L809.36 260.215Z" fill="#3B4717"/>
<path d="M499.092 425.924C498.418 425.568 497.612 425.564 496.934 425.914L373.447 489.649C372.276 490.253 371.838 491.706 372.479 492.857L431.012 597.951C431.172 598.239 431.27 598.557 431.298 598.885L436.654 660.663C436.688 661.046 436.815 661.415 437.026 661.737L496.187 752.271C497.074 753.63 499.043 753.69 500.011 752.388L564.41 665.84C564.65 665.518 564.802 665.14 564.853 664.742L574.266 590.587C574.297 590.339 574.368 590.098 574.476 589.873L621.028 492.778C621.57 491.648 621.122 490.291 620.013 489.706L499.092 425.924Z" fill="#404E18"/>
<path d="M461.399 528.264C461.288 527.793 461.034 527.368 460.671 527.048L369.058 446.212C368.746 445.937 368.514 445.584 368.384 445.19L341.333 362.683L320.06 305.511C319.739 304.65 318.944 304.058 318.028 303.997L238.806 298.715C238.156 298.672 237.554 298.359 237.145 297.852L173.383 218.787C172.053 217.138 173.432 214.713 175.528 215.013L340.736 238.614C341.128 238.67 341.498 238.824 341.813 239.062L452.43 322.699C452.835 323.006 453.329 323.171 453.837 323.171H550.419C550.896 323.171 551.361 323.025 551.752 322.753L671.945 239.023C672.25 238.81 672.602 238.673 672.972 238.625L820.368 219.059C822.484 218.778 823.835 221.251 822.454 222.88L758.898 297.876C758.481 298.368 757.898 298.665 757.254 298.697C729.678 300.075 675.641 302.735 672.41 302.735C669.14 302.735 651.973 342.7 643.798 362.683L616.738 445.216C616.614 445.594 616.396 445.934 616.104 446.204L528.618 526.96C528.212 527.334 527.952 527.841 527.885 528.388L514.458 637.144C514.397 637.635 514.494 638.132 514.734 638.563L527.25 661.093C527.699 661.901 527.629 662.899 527.07 663.636L499.857 699.507C498.929 700.731 497.091 700.739 496.152 699.523L475.636 672.973C475.149 672.342 475.017 671.506 475.287 670.756L486.882 638.549C487.034 638.125 487.061 637.665 486.958 637.226L461.399 528.264Z" fill="#4F621B"/>
<path d="M356.861 738.954C358.805 738.082 360.817 739.992 359.842 741.888C336.915 786.459 270.285 814.896 237.889 824.035C237.336 824.191 236.737 824.113 236.224 823.855C175.431 793.189 227.807 757.546 245.327 756.144C262.537 754.768 276.758 774.891 356.861 738.954Z" fill="#D9D9D9"/>
<path d="M302.362 665.382C304.307 664.509 306.318 666.42 305.344 668.315C282.417 712.886 215.787 741.323 183.391 750.463C182.838 750.619 182.238 750.541 181.726 750.282C120.932 719.616 173.309 683.973 190.829 682.572C208.039 681.195 222.259 701.319 302.362 665.382Z" fill="#D9D9D9"/>
<path d="M688.113 665.382C686.169 664.509 684.157 666.42 685.132 668.315C708.059 712.886 774.689 741.323 807.085 750.463C807.637 750.619 808.237 750.541 808.75 750.282C869.543 719.616 817.167 683.973 799.647 682.572C782.436 681.195 768.216 701.319 688.113 665.382Z" fill="#D9D9D9"/>
<path d="M202.362 398.106L199.419 383.391L199.419 383.391L202.362 398.106ZM795.031 398.349L797.974 383.633L797.974 383.633L795.031 398.349ZM752.233 758.869L751.036 773.829L751.036 773.829L752.233 758.869ZM500.74 256.411L502.901 241.56L500.808 241.255L498.713 241.541L500.74 256.411ZM146.61 352.854L140.578 366.596L140.578 366.596L146.61 352.854ZM180.636 281.161L180.139 296.16L180.636 281.161ZM192.049 244.687L203.63 235.142L203.572 235.072L203.513 235.002L192.049 244.687ZM224.969 381.957L210.141 379.644L210 380.547L209.969 381.46L224.969 381.957ZM290.829 242.479L279.871 252.733L279.871 252.733L290.829 242.479ZM218.664 351.588L203.665 351.09L203.644 351.737L203.678 352.384L218.664 351.588ZM849.816 352.854L855.849 366.596L855.849 366.596L849.816 352.854ZM815.791 281.161L816.288 296.16L815.791 281.161ZM804.378 244.687L792.913 235.002L792.854 235.072L792.796 235.142L804.378 244.687ZM771.458 381.957L786.457 381.46L786.427 380.547L786.286 379.644L771.458 381.957ZM705.597 242.479L716.555 252.733L716.555 252.733L705.597 242.479ZM777.763 351.588L792.749 352.384L792.783 351.737L792.762 351.09L777.763 351.588ZM643.798 362.683L629.908 357L629.705 357.497L629.538 358.007L643.798 362.683ZM341.333 362.683L355.593 358.007L355.501 357.726L355.398 357.449L341.333 362.683ZM245.327 756.144L246.524 771.104L246.524 771.104L245.327 756.144ZM190.829 682.572L189.632 667.612L189.632 667.612L190.829 682.572ZM799.647 682.572L798.45 697.531L798.45 697.531L799.647 682.572ZM685.132 668.315L698.477 661.45L685.132 668.315ZM688.113 665.382L681.97 679.074L688.113 665.382ZM807.085 750.463L803.01 764.906L807.085 750.463ZM808.75 750.282L801.991 736.883L808.75 750.282ZM305.344 668.315L318.689 675.18L305.344 668.315ZM302.362 665.382L296.219 651.689L302.362 665.382ZM183.391 750.463L187.465 764.906L183.391 750.463ZM181.726 750.282L174.967 763.681L181.726 750.282ZM359.842 741.888L346.497 735.023L359.842 741.888ZM356.861 738.954L350.718 725.262L356.861 738.954ZM237.889 824.035L241.964 838.479L237.889 824.035ZM236.224 823.855L242.983 810.455L236.224 823.855ZM318.028 303.997L317.03 318.971L318.028 303.997ZM320.06 305.511L334.125 300.277L320.06 305.511ZM237.145 297.852L248.827 288.431L237.145 297.852ZM238.806 298.715L239.804 283.741L238.806 298.715ZM175.528 215.013L173.406 229.869L175.528 215.013ZM173.383 218.787L161.701 228.208L173.383 218.787ZM341.813 239.062L332.762 251.033L341.813 239.062ZM340.736 238.614L338.614 253.47L340.736 238.614ZM452.43 322.699L461.481 310.729L452.43 322.699ZM551.752 322.753L543.174 310.439L551.752 322.753ZM672.972 238.625L670.997 223.748L672.972 238.625ZM671.945 239.023L663.367 226.709L671.945 239.023ZM822.454 222.88L833.904 232.582L822.454 222.88ZM757.254 298.697L758.003 313.685L757.254 298.697ZM758.898 297.876L770.347 307.579L758.898 297.876ZM616.104 446.204L626.283 457.231L616.104 446.204ZM616.738 445.216L602.478 440.541L616.738 445.216ZM527.885 528.388L512.99 526.55L527.885 528.388ZM528.618 526.96L538.797 537.987L528.618 526.96ZM514.734 638.563L501.615 645.852L514.734 638.563ZM514.458 637.144L499.564 635.306L514.458 637.144ZM527.07 663.636L515.113 654.565L527.07 663.636ZM527.25 661.093L514.131 668.381L527.25 661.093ZM496.152 699.523L484.277 708.699L496.152 699.523ZM499.857 699.507L511.813 708.577L499.857 699.507ZM475.287 670.756L489.407 675.839L475.287 670.756ZM475.636 672.973L487.511 663.797L475.636 672.973ZM486.958 637.226L472.347 640.653L486.958 637.226ZM486.882 638.549L472.761 633.466L486.882 638.549ZM460.671 527.048L470.6 515.795L460.671 527.048ZM461.399 528.264L446.788 531.691L461.399 528.264ZM369.058 446.212L359.128 457.465L369.058 446.212ZM368.384 445.19L382.645 440.514L368.384 445.19ZM574.266 590.587L589.153 592.477L574.266 590.587ZM574.476 589.873L588.009 596.361L574.476 589.873ZM496.934 425.914L503.817 439.25L496.934 425.914ZM499.092 425.924L492.091 439.198L492.091 439.198L499.092 425.924ZM702.89 384.741L711.261 372.286L702.89 384.741ZM702.001 383.608L687.912 388.776L702.001 383.608ZM735.911 271.457L721.236 274.598L735.911 271.457ZM737.002 268.962L729.343 256.056L729.343 256.056L737.002 268.962ZM770.975 418.817L761.192 407.437L770.975 418.817ZM767.182 417.527L781.857 414.386L767.182 417.527ZM847.715 293.199L833.909 299.082L847.715 293.199ZM847.886 293.843L832.972 295.518L847.886 293.843ZM818.17 223.867L804.364 229.75L818.17 223.867ZM814.833 222.775L807.174 209.869L814.833 222.775ZM239.394 302.115L224.523 300.095L224.523 300.095L239.394 302.115ZM238.876 300.31L250.417 290.716L238.876 300.31ZM221.291 401.044L236.277 400.248L221.291 401.044ZM225.932 401.234L211.061 399.214L225.932 401.234ZM219.543 313.562L206.725 321.366L219.543 313.562ZM219.882 314.853L204.883 314.355L219.882 314.853ZM186.899 259.882L173.002 265.547L186.899 259.882ZM187.067 260.215L174.248 268.019L187.067 260.215ZM178.877 228.128L190.418 218.535L178.877 228.128ZM293.536 384.741L285.165 372.286L293.536 384.741ZM294.425 383.608L308.515 388.776L294.425 383.608ZM221.93 428.198L207.05 426.249L221.93 428.198ZM225.544 430.438L217.173 417.982L225.544 430.438ZM240.943 299.787L241.844 284.807L240.943 299.787ZM238.49 301.813L223.61 299.863L238.49 301.813ZM320.221 304.555L319.32 319.536L320.221 304.555ZM322.271 307.687L308.181 302.52L322.271 307.687ZM171.312 220.139L182.777 210.455L171.312 220.139ZM319.615 302.069L305.533 307.259L319.615 302.069ZM290.106 384.561L281.397 372.34L290.106 384.561ZM290.948 383.45L305.072 388.524L290.948 383.45ZM223.46 427.454L208.461 426.957L223.46 427.454ZM227.145 429.432L218.436 417.21L227.145 429.432ZM237.07 299.317L225.488 308.861L237.07 299.317ZM237.574 301.16L252.402 303.473L237.574 301.16ZM260.515 271.457L275.19 274.598L260.515 271.457ZM259.425 268.962L267.084 256.056L259.425 268.962ZM225.451 418.817L235.234 407.437L225.451 418.817ZM229.245 417.527L214.57 414.386L229.245 417.527ZM148.712 293.199L134.906 287.315L148.712 293.199ZM148.541 293.843L133.627 292.169L148.541 293.843ZM178.257 223.867L164.451 217.983L178.257 223.867ZM181.594 222.775L173.935 235.681L181.594 222.775ZM440.044 264.061L448.657 251.772L440.044 264.061ZM441.698 264.462L439.67 249.592L441.698 264.462ZM280.172 153.414L286.373 167.081L280.172 153.414ZM282.475 153.628L273.862 165.918L282.475 153.628ZM133.929 220.625L119.595 216.179L133.929 220.625ZM135.194 219.192L141.394 232.858L135.194 219.192ZM55.2504 474.847L70.2153 473.719L55.2504 474.847ZM55.3485 473.98L69.6823 478.426L55.3485 473.98ZM76.7391 746.146L84.1203 733.079L76.7391 746.146ZM75.5602 744.29L60.5953 745.418L75.5602 744.29ZM251.884 840.35L237.832 845.62L251.884 840.35ZM248.552 843.201L241.171 856.267L248.552 843.201ZM282.925 422.443L273.822 434.375L282.925 422.443ZM279.947 422.566L269.892 411.425L279.947 422.566ZM412.916 521.612L422.019 509.68L412.916 521.612ZM498.04 519.733L513.046 519.887L498.04 519.733ZM576.462 266.693L567.195 254.889L576.462 266.693ZM574.686 267.167L576.846 252.316L574.686 267.167ZM722.748 153.45L728.949 139.783L722.748 153.45ZM720.344 153.739L711.077 141.935L720.344 153.739ZM868.914 220.625L883.248 216.179L868.914 220.625ZM867.65 219.192L873.85 205.525L867.65 219.192ZM947.593 474.847L962.558 475.975L947.593 474.847ZM947.495 473.98L961.828 469.534L947.495 473.98ZM926.104 746.146L918.723 733.079L926.104 746.146ZM927.283 744.29L942.248 745.418L927.283 744.29ZM750.959 840.35L736.907 835.081L750.959 840.35ZM754.291 843.201L761.672 856.267L754.291 843.201ZM777.816 769.657L787.226 781.348L777.816 769.657ZM777.095 770.655L791.147 775.924L777.095 770.655ZM833.29 724.147L848.197 725.88L833.29 724.147ZM832.436 725.695L823.026 714.004L832.436 725.695ZM846.754 607.608L861.576 605.255L846.754 607.608ZM846.767 608.243L861.674 609.977L846.767 608.243ZM832.568 521.538L822.513 532.679L832.568 521.538ZM833.309 522.904L848.131 520.551L833.309 522.904ZM719.918 422.443L729.021 434.375L719.918 422.443ZM722.896 422.566L712.842 433.707L722.896 422.566ZM589.927 521.612L580.824 509.68L589.927 521.612ZM369.421 392.37L362.21 405.532L369.421 392.37ZM431.012 597.951L417.901 605.254L431.012 597.951ZM431.298 598.885L416.347 600.181L431.298 598.885ZM700.229 392.298L692.229 379.6L700.229 392.298ZM564.41 665.84L552.37 656.882L564.41 665.84ZM564.853 664.742L579.741 666.631L564.853 664.742ZM832.256 304.956L825.422 318.317L832.256 304.956ZM832.437 309.007L824.438 296.309L824.438 296.309L832.437 309.007ZM496.187 752.271L508.75 744.062L496.187 752.271ZM500.011 752.388L487.971 743.429L500.011 752.388ZM657.923 215.793L651.09 229.154L657.923 215.793ZM437.026 661.737L424.463 669.947L437.026 661.737ZM436.654 660.663L421.703 661.959L436.654 660.663ZM757.033 302.115L742.162 304.134L757.033 302.115ZM757.551 300.31L769.092 309.903L757.551 300.31ZM759.671 826.76L763.746 812.317L759.671 826.76ZM761.336 826.579L754.577 813.18L761.336 826.579ZM775.136 401.044L760.15 400.248L775.136 401.044ZM770.495 401.234L785.366 399.214L770.495 401.234ZM804.471 691.731L789.549 693.325L804.471 691.731ZM804.023 693.372L791.984 684.412L804.023 693.372ZM760.897 751.846L745.99 750.113L760.897 751.846ZM761.343 750.723L749.304 741.763L761.343 750.723ZM776.883 313.562L789.702 321.366L776.883 313.562ZM776.544 314.853L791.544 314.355L776.544 314.853ZM754.782 840.374L744.278 829.656L754.782 840.374ZM750.832 838.439L765.739 840.171L750.832 838.439ZM809.528 259.882L823.425 265.547L809.528 259.882ZM809.36 260.215L796.541 252.411L809.36 260.215ZM502.732 551.444L514.854 560.292L502.732 551.444ZM502.344 553.346L487.724 556.736L502.344 553.346ZM821.504 230.5L835.402 236.164L821.504 230.5ZM817.55 228.128L829.091 237.721L817.55 228.128ZM602.554 415.948L604.246 430.86L602.554 415.948ZM600.958 416.887L588.837 408.039L600.958 416.887ZM774.497 428.198L789.377 426.249L774.497 428.198ZM770.882 430.438L762.511 442.893L770.882 430.438ZM906.377 504.552L920.79 508.734L906.377 504.552ZM905.839 502.307L895.019 512.707L905.839 502.307ZM755.483 299.787L754.582 284.807L755.483 299.787ZM757.936 301.813L772.817 299.863L757.936 301.813ZM830.625 765.624L845.038 769.806L830.625 765.624ZM830.018 766.64L840.522 777.358L830.018 766.64ZM676.206 304.555L675.305 289.575L676.206 304.555ZM674.156 307.687L660.066 312.855L674.156 307.687ZM787.889 551.978L790.75 537.245L787.889 551.978ZM789.764 554.02L804.687 552.426L789.764 554.02ZM823.055 216.334L825.088 231.203L823.055 216.334ZM825.114 220.139L813.65 210.455L825.114 220.139ZM648.374 525.902L637.94 515.116L648.374 525.902ZM650.441 525.289L647.581 540.021L650.441 525.289ZM676.811 303.646L690.935 298.572L676.811 303.646ZM676.812 302.069L690.893 307.259L676.812 302.069ZM192.922 691.489L207.845 693.083L192.922 691.489ZM193.37 693.13L205.41 684.17L193.37 693.13ZM706.32 384.561L715.03 372.34L706.32 384.561ZM705.479 383.45L719.602 378.376L705.479 383.45ZM236.524 751.508L251.265 748.69L236.524 751.508ZM236.104 750.554L248.144 741.594L248.144 741.594L236.104 750.554ZM772.967 427.455L757.967 427.952L772.967 427.455ZM769.281 429.432L760.571 441.653L769.281 429.432ZM249.002 839.057L258.983 827.85L249.002 839.057ZM252.845 836.877L267.585 834.059L252.845 836.877ZM494.661 551.202L482.54 560.05L494.661 551.202ZM495.049 553.104L509.669 556.494L495.049 553.104ZM759.357 299.317L747.775 289.772L759.357 299.317ZM758.852 301.16L773.68 298.846L758.852 301.16ZM394.84 415.706L393.147 430.617L394.84 415.706ZM396.435 416.645L384.314 425.494L396.435 416.645ZM91.0163 504.309L76.6034 508.491L91.0163 504.309ZM91.5541 502.065L102.374 512.465L91.5541 502.065ZM225.027 769.657L215.617 781.348L225.027 769.657ZM225.748 770.655L211.696 775.924L225.748 770.655ZM166.751 765.325L152.338 769.507L166.751 765.325ZM167.44 766.417L177.421 755.21L167.44 766.417ZM621.028 492.778L607.496 486.29L621.028 492.778ZM221.939 304.233L227.927 317.994L221.939 304.233ZM221.255 311.201L228.466 298.039L221.255 311.201ZM169.553 724.147L154.646 725.88L169.553 724.147ZM170.408 725.695L179.817 714.004L170.408 725.695ZM209.504 551.736L206.644 537.003L209.504 551.736ZM207.629 553.778L192.707 552.184L207.629 553.778ZM156.089 607.608L170.911 609.961L156.089 607.608ZM156.076 608.243L170.983 606.51L156.076 608.243ZM349.019 525.66L359.453 514.874L349.019 525.66ZM346.952 525.047L344.091 510.314L346.952 525.047ZM526.865 643.449L516.431 632.663L516.431 632.663L526.865 643.449ZM522.971 642.299L537.59 638.909L522.971 642.299ZM373.447 489.649L380.33 502.985L373.447 489.649ZM372.479 492.857L385.59 485.555L372.479 492.857ZM637.718 744.612L624.373 751.477L637.718 744.612ZM640.699 741.679L634.556 755.372L640.699 741.679ZM170.275 521.538L180.33 532.679L170.275 521.538ZM169.534 522.904L184.356 525.257L169.534 522.904ZM470.528 643.207L460.093 653.993L470.528 643.207ZM474.423 642.057L459.803 638.667L474.423 642.057ZM480.962 632.421L359.453 514.874L338.584 536.446L460.093 653.993L480.962 632.421ZM344.091 510.314L206.644 537.003L212.365 566.468L349.813 539.779L344.091 510.314ZM181.164 761.143L105.429 500.128L76.6034 508.491L152.338 769.507L181.164 761.143ZM102.374 512.465C118.814 495.361 143.674 470.057 165.713 448.811C176.754 438.167 186.936 428.688 194.934 421.798C198.954 418.334 202.218 415.702 204.648 413.946C205.869 413.063 206.675 412.551 207.12 412.298C207.847 411.884 207.048 412.474 205.306 412.822L199.419 383.391C196.327 384.009 193.739 385.379 192.283 386.207C190.544 387.196 188.771 388.387 187.064 389.621C183.634 392.1 179.636 395.359 175.343 399.058C166.714 406.492 156.063 416.423 144.882 427.202C122.476 448.802 97.3312 474.398 80.7344 491.665L102.374 512.465ZM205.306 412.822C204.524 412.979 204.436 412.899 205.876 412.877C207.021 412.86 208.63 412.882 210.738 412.957C214.937 413.107 220.588 413.445 227.435 413.947C241.099 414.948 259.028 416.56 278.601 418.464C317.722 422.269 363.046 427.202 393.147 430.617L396.532 400.794C366.336 397.367 320.841 392.416 281.507 388.59C261.853 386.679 243.647 385.039 229.627 384.012C222.631 383.5 216.553 383.131 211.806 382.962C209.441 382.877 207.273 382.838 205.42 382.866C203.862 382.89 201.555 382.963 199.419 383.391L205.306 412.822ZM384.314 425.494L482.54 560.05L506.782 542.353L408.556 407.797L384.314 425.494ZM480.43 549.714L459.803 638.667L489.042 645.447L509.669 556.494L480.43 549.714ZM258.983 827.85L177.421 755.21L157.459 777.624L239.02 850.264L258.983 827.85ZM221.784 754.326L238.104 839.695L267.585 834.059L251.265 748.69L221.784 754.326ZM192.707 552.184L178 689.895L207.845 693.083L222.552 555.372L192.707 552.184ZM181.331 702.089L224.065 759.513L248.144 741.594L205.41 684.17L181.331 702.089ZM537.3 654.235L658.809 536.688L637.94 515.116L516.431 632.663L537.3 654.235ZM647.581 540.021L785.028 566.71L790.75 537.245L653.302 510.556L647.581 540.021ZM845.038 769.806L920.79 508.734L891.964 500.37L816.212 761.442L845.038 769.806ZM916.659 491.907C900.062 474.64 874.918 449.044 852.512 427.444C841.33 416.665 830.679 406.734 822.05 399.3C817.757 395.601 813.759 392.342 810.33 389.864C808.622 388.629 806.85 387.438 805.111 386.449C803.655 385.621 801.067 384.251 797.974 383.633L792.088 413.065C790.345 412.716 789.546 412.126 790.273 412.54C790.718 412.793 791.524 413.305 792.746 414.188C795.175 415.944 798.439 418.576 802.46 422.04C810.457 428.93 820.639 438.409 831.68 449.053C853.719 470.299 878.58 495.603 895.019 512.707L916.659 491.907ZM797.974 383.633C795.838 383.205 793.531 383.132 791.973 383.108C790.12 383.08 787.953 383.12 785.587 383.204C780.84 383.373 774.762 383.742 767.767 384.254C753.746 385.281 735.54 386.921 715.886 388.832C676.552 392.658 631.058 397.61 600.862 401.036L604.246 430.86C634.347 427.444 679.672 422.511 718.792 418.706C738.365 416.802 756.295 415.19 769.959 414.189C776.805 413.688 782.456 413.349 786.655 413.2C788.763 413.125 790.373 413.102 791.518 413.119C792.958 413.141 792.869 413.221 792.088 413.065L797.974 383.633ZM588.837 408.039L490.611 542.595L514.854 560.292L613.08 425.736L588.837 408.039ZM487.724 556.736L508.351 645.689L537.59 638.909L516.963 549.956L487.724 556.736ZM765.286 851.092L840.522 777.358L819.513 755.922L744.278 829.656L765.286 851.092ZM745.99 750.113L735.925 836.706L765.739 840.171L775.804 753.579L745.99 750.113ZM774.842 555.614L789.549 693.325L819.394 690.138L804.687 552.426L774.842 555.614ZM791.984 684.412L749.304 741.763L773.383 759.682L816.062 702.331L791.984 684.412ZM763.746 812.317C748.617 808.049 725.068 799.124 702.735 786.027C680.101 772.755 660.604 756.295 651.063 737.748L624.373 751.477C637.759 777.501 663.041 797.545 687.552 811.919C712.365 826.469 738.328 836.332 755.596 841.204L763.746 812.317ZM634.556 755.372C675.75 773.853 701.637 778.675 720.401 778.238C729.793 778.019 736.864 776.482 742.119 775.294C747.831 774.003 749.489 773.705 751.036 773.829L753.429 743.91C746.371 743.345 739.798 745.047 735.5 746.018C730.745 747.093 726.028 748.083 719.701 748.231C707.026 748.527 685.751 745.443 646.842 727.987L634.556 755.372ZM751.036 773.829C751.035 773.829 751.13 773.837 751.327 773.872C751.521 773.907 751.785 773.963 752.12 774.05C752.798 774.226 753.661 774.501 754.685 774.901C756.746 775.707 759.16 776.902 761.638 778.452C766.791 781.674 771.018 785.664 773.254 789.422C775.235 792.753 775.263 794.99 774.28 797.234C772.923 800.329 768.35 806.233 754.577 813.18L768.095 839.979C784.718 831.593 796.396 821.541 801.769 809.285C807.515 796.177 804.753 783.666 799.05 774.078C793.601 764.917 785.249 757.817 777.553 753.004C770.117 748.353 761.183 744.53 753.429 743.91L751.036 773.829ZM227.927 317.994C242.998 311.436 268.715 295.257 294.254 278.184C320.238 260.813 347.384 241.59 365.914 228.107L348.255 203.838C329.961 217.148 303.149 236.133 277.572 253.232C251.55 270.628 228.106 285.183 215.951 290.472L227.927 317.994ZM358.442 230.545H656.861V200.53H358.442V230.545ZM651.09 229.154L825.422 318.317L839.089 291.594L664.757 202.432L651.09 229.154ZM824.438 296.309L692.229 379.6L708.228 404.995L840.437 321.704L824.438 296.309ZM698.985 377.649H370.542V407.664H698.985V377.649ZM376.631 379.208L228.466 298.039L214.045 324.363L362.21 405.532L376.631 379.208ZM599.029 533.544L729.021 434.375L710.816 410.511L580.824 509.68L599.029 533.544ZM712.842 433.707L822.513 532.679L842.622 510.396L732.951 411.425L712.842 433.707ZM818.487 525.257L831.932 609.961L861.576 605.255L848.131 520.551L818.487 525.257ZM831.86 606.51L818.383 722.414L848.197 725.88L861.674 609.977L831.86 606.51ZM823.026 714.004L768.407 757.966L787.226 781.348L841.845 737.386L823.026 714.004ZM763.043 765.386L736.907 835.081L765.011 845.62L791.147 775.924L763.043 765.386ZM761.672 856.267L933.485 759.213L918.723 733.079L746.91 830.134L761.672 856.267ZM942.248 745.418L962.558 475.975L932.628 473.719L912.318 743.162L942.248 745.418ZM961.828 469.534L883.248 216.179L854.58 225.071L933.161 478.426L961.828 469.534ZM873.85 205.525L728.949 139.783L716.548 167.116L861.449 232.858L873.85 205.525ZM711.077 141.935L567.195 254.889L585.729 278.497L729.611 165.543L711.077 141.935ZM576.846 252.316L502.901 241.56L498.58 271.262L572.526 282.018L576.846 252.316ZM500.372 537.097H588.512V507.083H500.372V537.097ZM485.734 256.257L483.033 519.579L513.046 519.887L515.747 256.565L485.734 256.257ZM422.019 509.68L292.027 410.511L273.822 434.375L403.814 533.544L422.019 509.68ZM269.892 411.425L160.221 510.396L180.33 532.679L290.001 433.707L269.892 411.425ZM154.712 520.551L141.267 605.255L170.911 609.961L184.356 525.257L154.712 520.551ZM141.169 609.977L154.646 725.88L184.46 722.414L170.983 606.51L141.169 609.977ZM160.998 737.386L215.617 781.348L234.436 757.966L179.817 714.004L160.998 737.386ZM211.696 775.924L237.832 845.62L265.936 835.081L239.8 765.386L211.696 775.924ZM255.933 830.134L84.1203 733.079L69.3579 759.213L241.171 856.267L255.933 830.134ZM90.5252 743.162L70.2153 473.719L40.2855 475.975L60.5953 745.418L90.5252 743.162ZM69.6823 478.426L148.263 225.071L119.595 216.179L41.0147 469.534L69.6823 478.426ZM141.394 232.858L286.373 167.081L273.972 139.748L128.993 205.525L141.394 232.858ZM273.862 165.918L431.431 276.351L448.657 251.772L291.088 141.339L273.862 165.918ZM443.726 279.332L502.768 271.281L498.713 241.541L439.67 249.592L443.726 279.332ZM498.407 507.083H414.331V537.097H498.407V507.083ZM485.733 256.411V519.757H515.748V256.411H485.733ZM164.451 217.983L134.906 287.315L162.518 299.082L192.063 229.75L164.451 217.983ZM133.627 292.169C132.53 301.945 131.119 316.613 130.437 329.157C130.1 335.365 129.918 341.438 130.1 346.244C130.188 348.562 130.379 351.196 130.861 353.604C131.093 354.762 131.523 356.555 132.399 358.448C133.056 359.869 135.261 364.262 140.578 366.596L152.643 339.113C157.511 341.25 159.322 345.16 159.637 345.839C159.932 346.478 160.093 346.977 160.169 347.233C160.25 347.505 160.285 347.676 160.291 347.708C160.3 347.754 160.262 347.564 160.213 347.055C160.167 346.57 160.124 345.926 160.093 345.106C159.964 341.705 160.084 336.73 160.408 330.786C161.047 319.025 162.393 304.975 163.455 295.518L133.627 292.169ZM140.578 366.596C139.153 365.97 138.314 365.282 139.084 365.83C139.402 366.055 139.937 366.453 140.727 367.063C142.287 368.268 144.459 370.008 147.161 372.213C152.543 376.605 159.723 382.597 167.68 389.302C183.577 402.698 202.379 418.773 215.668 430.197L235.234 407.437C221.906 395.979 203.022 379.834 187.021 366.35C179.028 359.614 171.705 353.502 166.138 348.959C163.366 346.696 160.952 344.76 159.078 343.312C158.151 342.595 157.256 341.921 156.465 341.36C156.128 341.12 154.501 339.928 152.643 339.113L140.578 366.596ZM243.92 420.669L275.19 274.598L245.841 268.315L214.57 414.386L243.92 420.669ZM267.084 256.056L189.252 209.869L173.935 235.681L251.766 281.868L267.084 256.056ZM231.505 320.506C230.99 336.031 217.987 348.198 202.463 347.684L201.468 377.682C233.56 378.746 260.439 353.593 261.503 321.501L231.505 320.506ZM202.463 347.684C186.939 347.169 174.771 334.166 175.286 318.642L145.288 317.647C144.224 349.739 169.376 376.618 201.468 377.682L202.463 347.684ZM175.286 318.642C175.801 303.118 188.803 290.95 204.328 291.465L205.322 261.467C173.23 260.402 146.352 285.555 145.288 317.647L175.286 318.642ZM204.328 291.465C219.852 291.98 232.019 304.982 231.505 320.506L261.503 321.501C262.567 289.409 237.414 262.531 205.322 261.467L204.328 291.465ZM182.495 298.678C182.451 300.024 181.323 301.079 179.977 301.035L178.982 331.033C196.896 331.627 211.9 317.587 212.494 299.673L182.495 298.678ZM179.977 301.035C178.631 300.99 177.576 299.863 177.621 298.517L147.622 297.522C147.028 315.436 161.069 330.439 178.982 331.033L179.977 301.035ZM177.621 298.517C177.665 297.171 178.793 296.116 180.139 296.16L181.134 266.162C163.22 265.568 148.217 279.608 147.622 297.522L177.621 298.517ZM180.139 296.16C181.485 296.205 182.54 297.332 182.495 298.678L212.494 299.673C213.088 281.759 199.047 266.756 181.134 266.162L180.139 296.16ZM180.467 254.231L225.488 308.861L248.651 289.772L203.63 235.142L180.467 254.231ZM222.746 298.846L210.141 379.644L239.797 384.271L252.402 303.473L222.746 298.846ZM209.969 381.46L208.461 426.957L238.459 427.952L239.968 382.455L209.969 381.46ZM235.855 441.653L298.816 396.783L281.397 372.34L218.436 417.21L235.855 441.653ZM305.072 388.524L333.739 308.719L305.492 298.572L276.824 378.376L305.072 388.524ZM333.697 296.88C330.588 288.444 325.509 275.6 320.004 263.533C317.253 257.505 314.318 251.499 311.402 246.262C308.63 241.282 305.354 236.037 301.787 232.224L279.871 252.733C280.821 253.747 282.649 256.32 285.179 260.864C287.566 265.151 290.133 270.374 292.697 275.992C297.82 287.22 302.617 299.345 305.533 307.259L333.697 296.88ZM301.787 232.224C298.435 228.642 293.895 226.446 290.825 225.121C287.233 223.571 283.005 222.141 278.526 220.82C269.53 218.165 258.277 215.586 246.402 213.199C222.58 208.409 195.06 204.152 175.404 201.465L171.339 231.203C190.648 233.843 217.498 238.002 240.485 242.624C252.014 244.943 262.276 247.319 270.032 249.607C273.929 250.757 276.886 251.796 278.931 252.679C281.498 253.786 281.045 253.987 279.871 252.733L301.787 232.224ZM159.848 229.824L180.584 254.371L203.513 235.002L182.777 210.455L159.848 229.824ZM321.122 289.575L241.844 284.807L240.042 314.768L319.32 319.536L321.122 289.575ZM223.61 299.863L207.05 426.249L236.81 430.148L253.37 303.763L223.61 299.863ZM233.916 442.893L301.908 397.197L285.165 372.286L217.173 417.982L233.916 442.893ZM308.515 388.776L336.36 312.855L308.181 302.52L280.336 378.441L308.515 388.776ZM161.025 236.164L173.002 265.547L200.796 254.218L188.82 224.835L161.025 236.164ZM174.248 268.019L206.725 321.366L232.362 305.758L199.885 252.411L174.248 268.019ZM204.883 314.355L203.665 351.09L233.663 352.085L234.882 315.35L204.883 314.355ZM203.678 352.384L206.304 401.84L236.277 400.248L233.65 350.792L203.678 352.384ZM240.803 403.254L254.264 304.134L224.523 300.095L211.061 399.214L240.803 403.254ZM250.417 290.716L190.418 218.535L167.336 237.721L227.335 309.903L250.417 290.716ZM804.364 229.75L833.909 299.082L861.521 287.315L831.976 217.983L804.364 229.75ZM832.972 295.518C834.034 304.975 835.38 319.025 836.019 330.786C836.342 336.73 836.462 341.705 836.333 345.106C836.302 345.926 836.259 346.57 836.213 347.055C836.165 347.564 836.126 347.754 836.135 347.708C836.142 347.676 836.177 347.505 836.257 347.233C836.333 346.977 836.494 346.478 836.79 345.839C837.104 345.16 838.915 341.25 843.784 339.113L855.849 366.596C861.165 364.262 863.37 359.869 864.028 358.448C864.904 356.555 865.334 354.762 865.566 353.604C866.048 351.196 866.238 348.562 866.326 346.244C866.509 341.438 866.327 335.365 865.989 329.157C865.308 316.613 863.897 301.945 862.799 292.169L832.972 295.518ZM843.784 339.113C841.926 339.928 840.299 341.12 839.961 341.36C839.17 341.921 838.276 342.595 837.348 343.312C835.474 344.76 833.061 346.696 830.288 348.959C824.721 353.502 817.399 359.614 809.406 366.35C793.404 379.834 774.52 395.979 761.192 407.437L780.759 430.197C794.048 418.773 812.85 402.698 828.747 389.302C836.703 382.597 843.883 376.605 849.265 372.213C851.967 370.008 854.14 368.268 855.7 367.063C856.49 366.453 857.024 366.055 857.342 365.83C858.113 365.282 857.273 365.97 855.849 366.596L843.784 339.113ZM781.857 414.386L750.586 268.315L721.236 274.598L752.507 420.669L781.857 414.386ZM744.661 281.868L822.492 235.681L807.174 209.869L729.343 256.056L744.661 281.868ZM734.924 321.501C735.988 353.593 762.867 378.746 794.958 377.682L793.964 347.684C778.439 348.198 765.437 336.031 764.922 320.506L734.924 321.501ZM794.958 377.682C827.05 376.618 852.203 349.739 851.139 317.647L821.141 318.642C821.656 334.166 809.488 347.169 793.964 347.684L794.958 377.682ZM851.139 317.647C850.075 285.555 823.196 260.402 791.104 261.467L792.099 291.465C807.624 290.95 820.626 303.118 821.141 318.642L851.139 317.647ZM791.104 261.467C759.012 262.531 733.86 289.409 734.924 321.501L764.922 320.506C764.407 304.982 776.575 291.98 792.099 291.465L791.104 261.467ZM783.933 299.673C784.527 317.587 799.531 331.627 817.444 331.033L816.45 301.035C815.104 301.079 813.976 300.024 813.931 298.678L783.933 299.673ZM817.444 331.033C835.358 330.439 849.398 315.436 848.804 297.522L818.806 298.517C818.851 299.863 817.796 300.99 816.45 301.035L817.444 331.033ZM848.804 297.522C848.21 279.608 833.207 265.568 815.293 266.162L816.288 296.16C817.634 296.116 818.761 297.171 818.806 298.517L848.804 297.522ZM815.293 266.162C797.379 266.756 783.339 281.759 783.933 299.673L813.931 298.678C813.887 297.332 814.942 296.205 816.288 296.16L815.293 266.162ZM792.796 235.142L747.775 289.772L770.938 308.861L815.959 254.231L792.796 235.142ZM744.024 303.473L756.63 384.271L786.286 379.644L773.68 298.846L744.024 303.473ZM756.459 382.455L757.967 427.952L787.966 426.957L786.457 381.46L756.459 382.455ZM777.991 417.21L715.03 372.34L697.61 396.783L760.571 441.653L777.991 417.21ZM719.602 378.376L690.935 298.572L662.687 308.719L691.355 388.524L719.602 378.376ZM690.893 307.259C693.81 299.345 698.607 287.22 703.73 275.992C706.293 270.374 708.861 265.151 711.248 260.864C713.778 256.32 715.606 253.747 716.555 252.733L694.64 232.224C691.072 236.037 687.797 241.282 685.024 246.262C682.108 251.499 679.173 257.505 676.423 263.533C670.918 275.6 665.839 288.444 662.73 296.88L690.893 307.259ZM716.555 252.733C715.382 253.987 714.929 253.786 717.495 252.679C719.54 251.796 722.498 250.757 726.395 249.607C734.151 247.319 744.412 244.943 755.941 242.624C778.928 238.002 805.779 233.843 825.088 231.203L821.022 201.465C801.366 204.152 773.846 208.409 750.024 213.199C738.149 215.586 726.897 218.165 717.901 220.82C713.421 222.141 709.194 223.571 705.602 225.121C702.532 226.446 697.992 228.642 694.64 232.224L716.555 252.733ZM813.65 210.455L792.913 235.002L815.842 254.371L836.579 229.824L813.65 210.455ZM677.107 319.536L756.384 314.768L754.582 284.807L675.305 289.575L677.107 319.536ZM743.056 303.763L759.616 430.148L789.377 426.249L772.817 299.863L743.056 303.763ZM779.253 417.982L711.261 372.286L694.519 397.197L762.511 442.893L779.253 417.982ZM716.091 378.441L688.245 302.52L660.066 312.855L687.912 388.776L716.091 378.441ZM807.607 224.835L795.631 254.218L823.425 265.547L835.402 236.164L807.607 224.835ZM796.541 252.411L764.064 305.758L789.702 321.366L822.179 268.019L796.541 252.411ZM761.545 315.35L762.763 352.085L792.762 351.09L791.544 314.355L761.545 315.35ZM762.776 350.792L760.15 400.248L790.123 401.84L792.749 352.384L762.776 350.792ZM785.366 399.214L771.904 300.095L742.162 304.134L755.624 403.254L785.366 399.214ZM769.092 309.903L829.091 237.721L806.009 218.535L746.01 290.716L769.092 309.903ZM380.33 502.985L503.817 439.25L490.051 412.578L366.564 476.313L380.33 502.985ZM492.091 439.198L613.012 502.98L627.015 476.432L506.094 412.65L492.091 439.198ZM424.463 669.947L483.624 760.481L508.75 744.062L449.589 653.528L424.463 669.947ZM512.051 761.347L576.45 674.799L552.37 656.882L487.971 743.429L512.051 761.347ZM359.368 500.16L417.901 605.254L444.123 590.649L385.59 485.555L359.368 500.16ZM416.347 600.181L421.703 661.959L451.606 659.366L446.25 597.589L416.347 600.181ZM579.741 666.631L589.153 592.477L559.378 588.698L549.965 662.852L579.741 666.631ZM588.009 596.361L634.561 499.266L607.496 486.29L560.944 583.384L588.009 596.361ZM359.128 457.465L450.742 538.301L470.6 515.795L378.987 434.959L359.128 457.465ZM446.788 531.691L472.347 640.653L501.569 633.799L476.01 524.837L446.788 531.691ZM472.761 633.466L461.167 665.673L489.407 675.839L501.002 643.632L472.761 633.466ZM463.761 682.149L484.277 708.699L508.027 690.347L487.511 663.797L463.761 682.149ZM511.813 708.577L539.026 672.706L515.113 654.565L487.901 690.437L511.813 708.577ZM540.369 653.804L527.853 631.275L501.615 645.852L514.131 668.381L540.369 653.804ZM529.352 638.983L542.779 530.227L512.99 526.55L499.564 635.306L529.352 638.983ZM538.797 537.987L626.283 457.231L605.924 435.176L518.438 515.933L538.797 537.987ZM630.998 449.892L658.059 367.358L629.538 358.007L602.478 440.541L630.998 449.892ZM657.688 368.365C661.731 358.482 667.981 343.701 673.587 331.466C676.409 325.306 678.952 320.048 680.908 316.435C681.919 314.567 682.557 313.543 682.841 313.141C683.019 312.888 682.751 313.319 682.079 313.97C681.742 314.296 680.944 315.032 679.714 315.76C678.598 316.422 676.02 317.742 672.41 317.742V287.727C668.596 287.727 665.786 289.125 664.412 289.939C662.925 290.82 661.845 291.782 661.2 292.407C659.913 293.653 658.934 294.961 658.313 295.841C657 297.703 655.697 299.957 654.511 302.148C652.073 306.653 649.2 312.635 646.3 318.964C640.461 331.708 634.04 346.901 629.908 357L657.688 368.365ZM672.41 317.742C676.139 317.742 730.858 315.042 758.003 313.685L756.505 283.708C742.722 284.397 722.328 285.406 704.979 286.242C696.304 286.661 688.4 287.036 682.469 287.305C679.502 287.441 677.044 287.549 675.238 287.623C674.332 287.66 673.611 287.688 673.08 287.706C672.456 287.727 672.312 287.727 672.41 287.727V317.742ZM770.347 307.579L833.904 232.582L811.005 213.177L747.449 288.173L770.347 307.579ZM818.393 204.182L670.997 223.748L674.946 253.501L822.342 233.936L818.393 204.182ZM663.367 226.709L543.174 310.439L560.331 335.067L680.523 251.337L663.367 226.709ZM550.419 308.164H453.837V338.179H550.419V308.164ZM461.481 310.729L350.865 227.092L332.762 251.033L443.379 334.67L461.481 310.729ZM342.859 223.757L177.651 200.156L173.406 229.869L338.614 253.47L342.859 223.757ZM161.701 228.208L225.463 307.273L248.827 288.431L185.065 209.366L161.701 228.208ZM237.807 313.689L317.03 318.971L319.027 289.022L239.804 283.741L237.807 313.689ZM305.994 310.744L327.268 367.916L355.398 357.449L334.125 300.277L305.994 310.744ZM327.072 367.358L354.124 449.865L382.645 440.514L355.593 358.007L327.072 367.358ZM241.964 838.479C259.231 833.607 285.195 823.744 310.008 809.194C334.519 794.82 359.801 774.776 373.187 748.752L346.497 735.023C336.956 753.57 317.459 770.03 294.825 783.303C272.492 796.399 248.943 805.324 233.814 809.592L241.964 838.479ZM350.718 725.262C311.809 742.718 290.534 745.802 277.859 745.506C271.532 745.359 266.814 744.368 262.06 743.293C257.762 742.322 251.189 740.62 244.131 741.185L246.524 771.104C248.071 770.98 249.729 771.278 255.441 772.569C260.696 773.757 267.767 775.294 277.159 775.513C295.923 775.951 321.81 771.128 363.003 752.647L350.718 725.262ZM244.131 741.185C236.377 741.805 227.442 745.628 220.007 750.279C212.311 755.092 203.959 762.192 198.51 771.353C192.806 780.941 190.044 793.452 195.791 806.56C201.164 818.817 212.842 828.868 229.465 837.254L242.983 810.455C229.21 803.508 224.637 797.604 223.28 794.509C222.296 792.265 222.325 790.028 224.306 786.697C226.542 782.939 230.769 778.949 235.922 775.727C238.4 774.177 240.813 772.982 242.875 772.176C243.899 771.776 244.762 771.501 245.44 771.325C245.775 771.238 246.039 771.182 246.233 771.147C246.43 771.112 246.525 771.104 246.524 771.104L244.131 741.185ZM187.465 764.906C204.733 760.035 230.697 750.171 255.509 735.621C280.021 721.248 305.302 701.204 318.689 675.18L291.998 661.45C282.458 679.997 262.961 696.457 240.327 709.73C217.993 722.826 194.444 731.751 179.316 736.019L187.465 764.906ZM296.219 651.689C257.31 669.145 236.035 672.229 223.361 671.934C217.034 671.786 212.316 670.796 207.561 669.721C203.264 668.749 196.69 667.048 189.632 667.612L192.025 697.531C193.572 697.408 195.231 697.705 200.943 698.997C206.198 700.185 213.268 701.721 222.661 701.94C241.425 702.378 267.311 697.555 308.505 679.074L296.219 651.689ZM189.632 667.612C181.879 668.232 172.944 672.056 165.508 676.706C157.813 681.519 149.461 688.62 144.012 697.78C138.308 707.369 135.546 719.88 141.293 732.988C146.666 745.244 158.343 755.296 174.967 763.681L188.485 736.883C174.712 729.935 170.139 724.032 168.782 720.936C167.798 718.693 167.826 716.456 169.808 713.125C172.043 709.366 176.271 705.377 181.424 702.154C183.901 700.605 186.315 699.409 188.377 698.603C189.4 698.203 190.264 697.928 190.942 697.752C191.276 697.665 191.541 697.609 191.735 697.574C191.932 697.539 192.026 697.531 192.025 697.531L189.632 667.612ZM811.16 736.019C796.031 731.751 772.482 722.826 750.149 709.73C727.515 696.457 708.018 679.997 698.477 661.45L671.787 675.18C685.173 701.204 710.455 721.248 734.966 735.621C759.779 750.171 785.742 760.035 803.01 764.906L811.16 736.019ZM681.97 679.074C723.164 697.555 749.051 702.378 767.815 701.94C777.207 701.721 784.278 700.185 789.533 698.997C795.245 697.705 796.903 697.408 798.45 697.531L800.843 667.612C793.785 667.048 787.212 668.749 782.914 669.721C778.159 670.796 773.442 671.786 767.115 671.934C754.44 672.229 733.165 669.145 694.256 651.689L681.97 679.074ZM798.45 697.531C798.449 697.531 798.543 697.539 798.74 697.574C798.935 697.609 799.199 697.665 799.534 697.752C800.212 697.928 801.075 698.203 802.099 698.603C804.16 699.409 806.574 700.605 809.052 702.154C814.205 705.377 818.432 709.366 820.668 713.125C822.649 716.456 822.677 718.693 821.694 720.937C820.337 724.032 815.764 729.935 801.991 736.883L815.509 763.681C832.132 755.296 843.81 745.244 849.183 732.988C854.929 719.88 852.167 707.369 846.464 697.78C841.015 688.62 832.663 681.519 824.967 676.706C817.531 672.056 808.597 668.232 800.843 667.612L798.45 697.531ZM698.477 661.45C701.288 666.914 699.649 673.021 695.977 676.583C692.47 679.984 686.953 681.31 681.97 679.074L694.256 651.689C687.329 648.581 679.834 650.426 675.079 655.038C670.159 659.811 668.001 667.821 671.787 675.18L698.477 661.45ZM803.01 764.906C807.536 766.183 811.991 765.456 815.509 763.681L801.991 736.883C804.483 735.625 807.739 735.054 811.16 736.019L803.01 764.906ZM318.689 675.18C322.474 667.821 320.317 659.811 315.397 655.038C310.642 650.426 303.146 648.581 296.219 651.689L308.505 679.074C303.522 681.31 298.005 679.984 294.499 676.583C290.827 673.021 289.188 666.914 291.998 661.45L318.689 675.18ZM179.316 736.019C182.737 735.054 185.992 735.625 188.485 736.883L174.967 763.681C178.484 765.456 182.939 766.183 187.465 764.906L179.316 736.019ZM373.187 748.752C376.972 741.394 374.815 733.383 369.895 728.611C365.14 723.999 357.645 722.154 350.718 725.262L363.003 752.647C358.021 754.882 352.504 753.557 348.997 750.155C345.325 746.594 343.686 740.486 346.497 735.023L373.187 748.752ZM233.814 809.592C237.235 808.627 240.491 809.198 242.983 810.455L229.465 837.254C232.983 839.028 237.438 839.756 241.964 838.479L233.814 809.592ZM317.03 318.971C312.053 318.639 307.734 315.419 305.994 310.744L334.125 300.277C331.745 293.882 325.836 289.476 319.027 289.022L317.03 318.971ZM225.463 307.273C228.502 311.041 232.977 313.367 237.807 313.689L239.804 283.741C243.334 283.976 246.606 285.677 248.827 288.431L225.463 307.273ZM177.651 200.156C162.065 197.93 151.817 215.952 161.701 228.208L185.065 209.366C192.289 218.324 184.798 231.497 173.406 229.869L177.651 200.156ZM350.865 227.092C348.522 225.32 345.767 224.173 342.859 223.757L338.614 253.47C336.488 253.167 334.475 252.328 332.762 251.033L350.865 227.092ZM453.837 308.164C456.596 308.164 459.28 309.064 461.481 310.729L443.379 334.67C446.39 336.947 450.062 338.179 453.837 338.179V308.164ZM543.174 310.439C545.3 308.958 547.828 308.164 550.419 308.164V338.179C553.963 338.179 557.422 337.093 560.331 335.067L543.174 310.439ZM670.997 223.748C668.254 224.112 665.637 225.127 663.367 226.709L680.523 251.337C678.864 252.493 676.951 253.235 674.946 253.501L670.997 223.748ZM833.904 232.582C844.162 220.478 834.122 202.094 818.393 204.182L822.342 233.936C810.846 235.462 803.507 222.025 811.005 213.177L833.904 232.582ZM758.003 313.685C762.92 313.44 767.332 311.136 770.347 307.579L747.449 288.173C749.63 285.6 752.876 283.889 756.505 283.708L758.003 313.685ZM626.283 457.231C628.454 455.227 630.078 452.7 630.998 449.892L602.478 440.541C603.151 438.488 604.337 436.641 605.924 435.176L626.283 457.231ZM542.779 530.227C542.412 533.204 541.001 535.953 538.797 537.987L518.438 515.933C515.423 518.716 513.493 522.477 512.99 526.55L542.779 530.227ZM527.853 631.275C529.156 633.621 529.681 636.32 529.352 638.983L499.564 635.306C499.114 638.95 499.832 642.642 501.615 645.852L527.853 631.275ZM539.026 672.706C543.181 667.229 543.708 659.814 540.369 653.804L514.131 668.381C511.691 663.988 512.076 658.569 515.113 654.565L539.026 672.706ZM484.277 708.699C491.258 717.734 504.913 717.673 511.813 708.577L487.901 690.437C492.944 683.788 502.925 683.744 508.027 690.347L484.277 708.699ZM461.167 665.673C459.16 671.247 460.138 677.461 463.761 682.149L487.511 663.797C490.159 667.223 490.874 671.765 489.407 675.839L461.167 665.673ZM472.347 640.653C471.788 638.268 471.931 635.771 472.761 633.466L501.002 643.632C502.137 640.478 502.334 637.063 501.569 633.799L472.347 640.653ZM450.742 538.301C448.77 536.561 447.389 534.251 446.788 531.691L476.01 524.837C475.188 521.335 473.298 518.175 470.6 515.795L450.742 538.301ZM378.987 434.959C380.679 436.452 381.942 438.37 382.645 440.514L354.124 449.865C355.086 452.799 356.813 455.423 359.128 457.465L378.987 434.959ZM589.153 592.477C588.982 593.825 588.596 595.136 588.009 596.361L560.944 583.384C560.14 585.06 559.612 586.854 559.378 588.698L589.153 592.477ZM503.817 439.25C500.134 441.15 495.756 441.131 492.091 439.198L506.094 412.65C501.079 410.005 495.089 409.978 490.051 412.578L503.817 439.25ZM711.261 372.286C713.48 373.777 715.17 375.931 716.091 378.441L687.912 388.776C689.171 392.21 691.484 395.157 694.519 397.197L711.261 372.286ZM750.586 268.315C751.725 273.636 749.34 279.091 744.661 281.868L729.343 256.056C722.94 259.856 719.678 267.318 721.236 274.598L750.586 268.315ZM761.192 407.437C768.592 401.075 779.872 405.116 781.857 414.386L752.507 420.669C755.233 433.402 770.672 438.868 780.759 430.197L761.192 407.437ZM833.909 299.082C833.449 298.003 833.116 296.8 832.972 295.518L862.799 292.169C862.605 290.437 862.158 288.81 861.521 287.315L833.909 299.082ZM831.976 217.983C827.864 208.334 816.194 204.516 807.174 209.869L822.492 235.681C815.899 239.593 807.369 236.803 804.364 229.75L831.976 217.983ZM254.264 304.134C254.918 299.32 253.522 294.453 250.417 290.716L227.335 309.903C225.065 307.172 224.045 303.614 224.523 300.095L254.264 304.134ZM206.304 401.84C207.42 422.852 237.971 424.106 240.803 403.254L211.061 399.214C213.131 383.973 235.461 384.89 236.277 400.248L206.304 401.84ZM206.725 321.366C205.441 319.258 204.801 316.822 204.883 314.355L234.882 315.35C234.993 311.976 234.118 308.642 232.362 305.758L206.725 321.366ZM173.002 265.547C173.35 266.403 173.767 267.229 174.248 268.019L199.885 252.411C200.237 252.988 200.541 253.592 200.796 254.218L173.002 265.547ZM188.82 224.835C194.289 238.254 176.598 248.864 167.336 237.721L190.418 218.535C177.746 203.29 153.542 217.807 161.025 236.164L188.82 224.835ZM301.908 397.197C304.943 395.157 307.256 392.209 308.515 388.776L280.336 378.441C281.256 375.931 282.946 373.777 285.165 372.286L301.908 397.197ZM207.05 426.249C205.111 441.046 221.529 451.218 233.916 442.893L217.173 417.982C226.227 411.897 238.227 419.332 236.81 430.148L207.05 426.249ZM241.844 284.807C232.756 284.26 224.793 290.836 223.61 299.863L253.37 303.763C252.506 310.361 246.685 315.167 240.042 314.768L241.844 284.807ZM319.32 319.536C310.845 319.026 305.258 310.491 308.181 302.52L336.36 312.855C340.36 301.95 332.716 290.272 321.122 289.575L319.32 319.536ZM175.404 201.465C159.231 199.254 149.887 218.033 159.848 229.824L182.777 210.455C189.987 218.99 183.29 232.837 171.339 231.203L175.404 201.465ZM333.739 308.719C335.077 304.996 335.145 300.811 333.697 296.88L305.533 307.259C304.463 304.353 304.524 301.267 305.492 298.572L333.739 308.719ZM298.816 396.783C301.694 394.731 303.877 391.85 305.072 388.524L276.824 378.376C277.698 375.945 279.293 373.839 281.397 372.34L298.816 396.783ZM208.461 426.957C207.985 441.309 224.161 449.987 235.855 441.653L218.436 417.21C226.983 411.119 238.807 417.462 238.459 427.952L208.461 426.957ZM225.488 308.861C223.186 306.067 222.188 302.423 222.746 298.846L252.402 303.473C253.166 298.58 251.801 293.594 248.651 289.772L225.488 308.861ZM275.19 274.598C276.749 267.318 273.486 259.856 267.084 256.056L251.766 281.868C247.086 279.091 244.701 273.636 245.841 268.315L275.19 274.598ZM215.668 430.197C225.754 438.868 241.194 433.402 243.92 420.669L214.57 414.386C216.554 405.116 227.834 401.075 235.234 407.437L215.668 430.197ZM134.906 287.315C134.269 288.81 133.822 290.437 133.627 292.169L163.455 295.518C163.311 296.8 162.978 298.003 162.518 299.082L134.906 287.315ZM192.063 229.75C189.058 236.803 180.528 239.593 173.935 235.681L189.252 209.869C180.232 204.516 168.563 208.334 164.451 217.983L192.063 229.75ZM498.407 537.097C507.984 537.097 515.748 529.334 515.748 519.757H485.733C485.733 512.757 491.408 507.083 498.407 507.083V537.097ZM431.431 276.351C435.007 278.857 439.398 279.922 443.726 279.332L439.67 249.592C442.833 249.161 446.043 249.939 448.657 251.772L431.431 276.351ZM286.373 167.081C282.29 168.933 277.533 168.491 273.862 165.918L291.088 141.339C286.066 137.819 279.557 137.214 273.972 139.748L286.373 167.081ZM148.263 225.071C147.191 228.529 144.691 231.363 141.394 232.858L128.993 205.525C124.483 207.572 121.063 211.449 119.595 216.179L148.263 225.071ZM70.2153 473.719C70.3351 475.307 70.1542 476.904 69.6823 478.426L41.0147 469.534C40.3691 471.616 40.1216 473.801 40.2855 475.975L70.2153 473.719ZM84.1203 733.079C87.8044 735.16 90.2071 738.943 90.5252 743.162L60.5953 745.418C61.0304 751.191 64.3176 756.365 69.3579 759.213L84.1203 733.079ZM237.832 845.62C233.677 834.538 245.629 824.313 255.933 830.134L241.171 856.267C255.269 864.231 271.621 850.242 265.936 835.081L237.832 845.62ZM292.027 410.511C285.391 405.449 276.089 405.832 269.892 411.425L290.001 433.707C285.472 437.795 278.673 438.075 273.822 434.375L292.027 410.511ZM403.814 533.544C406.835 535.849 410.531 537.097 414.331 537.097V507.083C417.109 507.083 419.81 507.995 422.019 509.68L403.814 533.544ZM500.372 507.083C507.423 507.083 513.119 512.837 513.046 519.887L483.033 519.579C482.934 529.225 490.726 537.097 500.372 537.097V507.083ZM567.195 254.889C569.924 252.746 573.412 251.816 576.846 252.316L572.526 282.018C577.223 282.701 581.995 281.429 585.729 278.497L567.195 254.889ZM728.949 139.783C723.057 137.11 716.166 137.939 711.077 141.935L729.611 165.543C725.891 168.464 720.855 169.07 716.548 167.116L728.949 139.783ZM883.248 216.179C881.781 211.449 878.361 207.572 873.85 205.525L861.449 232.858C858.152 231.363 855.653 228.529 854.58 225.071L883.248 216.179ZM962.558 475.975C962.721 473.801 962.474 471.616 961.828 469.534L933.161 478.426C932.689 476.904 932.508 475.307 932.628 473.719L962.558 475.975ZM933.485 759.213C938.526 756.365 941.813 751.191 942.248 745.418L912.318 743.162C912.636 738.943 915.039 735.16 918.723 733.079L933.485 759.213ZM736.907 835.081C731.222 850.242 747.574 864.231 761.672 856.267L746.91 830.134C757.214 824.313 769.167 834.538 765.011 845.62L736.907 835.081ZM768.407 757.966C765.986 759.914 764.134 762.476 763.043 765.386L791.147 775.924C790.349 778.051 788.995 779.924 787.226 781.348L768.407 757.966ZM818.383 722.414C818.767 719.11 820.435 716.09 823.026 714.004L841.845 737.386C845.39 734.533 847.671 730.4 848.197 725.88L818.383 722.414ZM831.932 609.961C831.751 608.819 831.727 607.658 831.86 606.51L861.674 609.977C861.857 608.406 861.824 606.817 861.576 605.255L831.932 609.961ZM822.513 532.679C820.362 530.738 818.941 528.118 818.487 525.257L848.131 520.551C847.509 516.636 845.565 513.052 842.622 510.396L822.513 532.679ZM729.021 434.375C724.17 438.075 717.371 437.795 712.842 433.707L732.951 411.425C726.754 405.832 717.452 405.449 710.816 410.511L729.021 434.375ZM580.824 509.68C583.033 507.995 585.734 507.083 588.512 507.083V537.097C592.312 537.097 596.008 535.849 599.029 533.544L580.824 509.68ZM370.542 377.649C372.67 377.649 374.764 378.185 376.631 379.208L362.21 405.532C364.764 406.931 367.63 407.664 370.542 407.664V377.649ZM417.901 605.254C417.031 603.692 416.501 601.963 416.347 600.181L446.25 597.589C446.038 595.151 445.314 592.786 444.123 590.649L417.901 605.254ZM692.229 379.6C694.252 378.326 696.595 377.649 698.985 377.649V407.664C702.257 407.664 705.461 406.739 708.228 404.995L692.229 379.6ZM576.45 674.799C578.232 672.405 579.365 669.592 579.741 666.631L549.965 662.852C550.24 660.688 551.068 658.632 552.37 656.882L576.45 674.799ZM825.422 318.317C816.674 313.843 816.124 301.546 824.438 296.309L840.437 321.704C851.811 314.539 851.058 297.716 839.089 291.594L825.422 318.317ZM483.624 760.481C490.221 770.576 504.852 771.022 512.051 761.347L487.971 743.429C493.233 736.358 503.928 736.683 508.75 744.062L483.624 760.481ZM656.861 230.545C654.854 230.545 652.876 230.068 651.09 229.154L664.757 202.432C662.313 201.182 659.606 200.53 656.861 200.53V230.545ZM449.589 653.528C450.732 655.278 451.425 657.284 451.606 659.366L421.703 661.959C421.95 664.808 422.898 667.553 424.463 669.947L449.589 653.528ZM365.914 228.107C363.641 229.761 360.987 230.545 358.442 230.545V200.53C354.91 200.53 351.326 201.603 348.255 203.838L365.914 228.107ZM771.904 300.095C772.382 303.614 771.362 307.172 769.092 309.903L746.01 290.716C742.904 294.453 741.508 299.32 742.162 304.134L771.904 300.095ZM755.596 841.204C760.122 842.481 764.577 841.753 768.095 839.979L754.577 813.18C757.069 811.923 760.325 811.352 763.746 812.317L755.596 841.204ZM760.15 400.248C760.966 384.89 783.296 383.973 785.366 399.214L755.624 403.254C758.456 424.106 789.007 422.852 790.123 401.84L760.15 400.248ZM789.549 693.325C789.21 690.153 790.079 686.971 791.984 684.412L816.062 702.331C818.668 698.831 819.857 694.476 819.394 690.138L789.549 693.325ZM775.804 753.579C775.547 755.791 774.712 757.896 773.383 759.682L749.304 741.763C747.485 744.207 746.342 747.087 745.99 750.113L775.804 753.579ZM764.064 305.758C762.309 308.642 761.433 311.976 761.545 315.35L791.544 314.355C791.625 316.822 790.985 319.258 789.702 321.366L764.064 305.758ZM744.278 829.656C752.812 821.292 767.118 828.302 765.739 840.171L735.925 836.706C734.037 852.944 753.611 862.535 765.286 851.092L744.278 829.656ZM795.631 254.218C795.886 253.592 796.19 252.988 796.541 252.411L822.179 268.019C822.66 267.229 823.076 266.403 823.425 265.547L795.631 254.218ZM490.611 542.595C487.64 546.665 486.586 551.827 487.724 556.736L516.963 549.956C517.795 553.545 517.025 557.317 514.854 560.292L490.611 542.595ZM835.402 236.164C842.884 217.806 818.681 203.29 806.009 218.535L829.091 237.721C819.829 248.864 802.138 238.254 807.607 224.835L835.402 236.164ZM600.862 401.036C595.863 401.603 591.589 404.269 588.837 408.039L613.08 425.736C611.097 428.452 607.948 430.439 604.246 430.86L600.862 401.036ZM759.616 430.148C758.199 419.332 770.2 411.897 779.253 417.982L762.511 442.893C774.897 451.218 791.316 441.046 789.377 426.249L759.616 430.148ZM920.79 508.734C922.457 502.989 921.104 496.532 916.659 491.907L895.019 512.707C891.73 509.284 890.762 504.513 891.964 500.37L920.79 508.734ZM756.384 314.768C749.741 315.167 743.921 310.361 743.056 303.763L772.817 299.863C771.634 290.836 763.67 284.26 754.582 284.807L756.384 314.768ZM816.212 761.442C816.82 759.349 817.957 757.448 819.513 755.922L840.522 777.358C842.652 775.271 844.207 772.67 845.038 769.806L816.212 761.442ZM675.305 289.575C663.71 290.272 656.066 301.95 660.066 312.855L688.245 302.52C691.169 310.491 685.582 319.026 677.107 319.536L675.305 289.575ZM785.028 566.71C779.565 565.649 775.433 561.148 774.842 555.614L804.687 552.426C803.878 544.855 798.225 538.697 790.75 537.245L785.028 566.71ZM825.088 231.203C813.137 232.837 806.44 218.99 813.65 210.455L836.579 229.824C846.539 218.033 837.196 199.254 821.022 201.465L825.088 231.203ZM658.809 536.688C655.835 539.566 651.643 540.81 647.581 540.021L653.302 510.556C647.744 509.477 642.009 511.179 637.94 515.116L658.809 536.688ZM690.935 298.572C691.903 301.267 691.964 304.353 690.893 307.259L662.73 296.88C661.281 300.811 661.35 304.996 662.687 308.719L690.935 298.572ZM178 689.895C177.536 694.234 178.726 698.589 181.331 702.089L205.41 684.17C207.314 686.729 208.183 689.911 207.845 693.083L178 689.895ZM715.03 372.34C717.134 373.839 718.729 375.945 719.602 378.376L691.355 388.524C692.55 391.85 694.732 394.731 697.61 396.783L715.03 372.34ZM251.265 748.69C250.773 746.12 249.706 743.694 248.144 741.594L224.065 759.513C222.923 757.978 222.143 756.205 221.784 754.326L251.265 748.69ZM757.967 427.952C757.62 417.462 769.443 411.119 777.991 417.21L760.571 441.653C772.265 449.987 788.442 441.309 787.966 426.957L757.967 427.952ZM239.02 850.264C251.394 861.284 270.697 850.334 267.585 834.059L238.104 839.695C235.83 827.799 249.939 819.795 258.983 827.85L239.02 850.264ZM482.54 560.05C480.368 557.075 479.598 553.302 480.43 549.714L509.669 556.494C510.807 551.585 509.754 546.423 506.782 542.353L482.54 560.05ZM747.775 289.772C744.626 293.594 743.261 298.58 744.024 303.473L773.68 298.846C774.238 302.423 773.24 306.067 770.938 308.861L747.775 289.772ZM393.147 430.617C389.445 430.197 386.296 428.209 384.314 425.494L408.556 407.797C405.804 404.027 401.53 401.361 396.532 400.794L393.147 430.617ZM105.429 500.128C106.631 504.271 105.664 509.042 102.374 512.465L80.7344 491.665C76.2893 496.29 74.9367 502.747 76.6034 508.491L105.429 500.128ZM215.617 781.348C213.848 779.924 212.494 778.051 211.696 775.924L239.8 765.386C238.709 762.476 236.857 759.914 234.436 757.966L215.617 781.348ZM152.338 769.507C153.248 772.64 155.022 775.454 157.459 777.624L177.421 755.21C179.202 756.796 180.5 758.852 181.164 761.143L152.338 769.507ZM613.012 502.98C606.987 499.802 604.551 492.432 607.496 486.29L634.561 499.266C638.589 490.864 635.257 480.78 627.015 476.432L613.012 502.98ZM215.951 290.472C211.409 292.449 208.8 295.873 207.442 298.348C206.032 300.92 205.313 303.607 205.052 306.037C204.793 308.44 204.896 311.393 205.902 314.45C206.906 317.499 209.216 321.717 214.045 324.363L228.466 298.039C232.236 300.104 233.825 303.283 234.412 305.066C235.002 306.858 234.994 308.323 234.894 309.249C234.791 310.203 234.502 311.426 233.759 312.782C233.068 314.042 231.362 316.499 227.927 317.994L215.951 290.472ZM154.646 725.88C155.172 730.4 157.453 734.533 160.998 737.386L179.817 714.004C182.408 716.09 184.076 719.11 184.46 722.414L154.646 725.88ZM206.644 537.003C199.169 538.455 193.515 544.613 192.707 552.184L222.552 555.372C221.961 560.906 217.828 565.407 212.365 566.468L206.644 537.003ZM141.267 605.255C141.019 606.817 140.986 608.406 141.169 609.977L170.983 606.51C171.116 607.658 171.092 608.819 170.911 609.961L141.267 605.255ZM359.453 514.874C355.384 510.937 349.649 509.235 344.091 510.314L349.813 539.779C345.75 540.568 341.559 539.324 338.584 536.446L359.453 514.874ZM516.431 632.663C523.514 625.811 535.364 629.309 537.59 638.909L508.351 645.689C511.397 658.823 527.609 663.61 537.3 654.235L516.431 632.663ZM366.564 476.313C357.862 480.804 354.603 491.605 359.368 500.16L385.59 485.555C389.072 491.808 386.69 499.702 380.33 502.985L366.564 476.313ZM651.063 737.748C653.874 743.211 652.235 749.319 648.563 752.88C645.056 756.282 639.539 757.607 634.556 755.372L646.842 727.987C639.915 724.879 632.42 726.724 627.665 731.336C622.745 736.108 620.588 744.118 624.373 751.477L651.063 737.748ZM160.221 510.396C157.278 513.052 155.334 516.636 154.712 520.551L184.356 525.257C183.902 528.118 182.481 530.738 180.33 532.679L160.221 510.396ZM460.093 653.993C469.784 663.368 485.996 658.581 489.042 645.447L459.803 638.667C462.029 629.067 473.879 625.569 480.962 632.421L460.093 653.993Z" fill="#171C09" mask="url(#path-1-outside-1_571_22214)"/>
</svg>
