<svg width="1001" height="1001" viewBox="0 0 1001 1001" fill="none" xmlns="http://www.w3.org/2000/svg">
<path d="M333.579 755.738C297.856 680.883 179.873 319.529 179.873 319.529L234.507 131.509C296.217 97.1513 379.286 27.1442 391.872 27.5471L655.626 35.9897C701.694 70.3993 795.057 141.297 799.959 149.609C804.862 157.921 828.67 293.769 832.318 340.413L669.991 764.616L678.849 846.655L562.215 921.46C542.813 910.906 501.613 889.408 492.032 887.847C482.45 886.286 412.261 910.484 377.334 920.344L311.084 817.314L333.579 755.738Z" fill="#8D8D8D"/>
<path d="M245.945 623.627C248.25 560.681 318.292 532.037 351.095 517.302C419.247 538.177 370.495 582.998 352.673 587.282C334.852 591.567 329.746 584.21 245.945 623.627Z" fill="#8D8D8D"/>
<path d="M282.27 669.4C281.582 626.368 315.473 620.703 332.627 614.278C370.99 626.621 346.707 647.608 337.19 649.242C327.674 650.876 323.864 644.995 282.27 669.4Z" fill="#8D8D8D"/>
<path d="M364.162 925.097C324.236 894.098 343.986 850.68 348.152 829.376C381.711 803.892 386.606 843.915 382.543 854.133C378.48 864.35 366.252 866.118 364.162 925.097Z" fill="#8D8D8D"/>
<path d="M398.072 948.035C358.146 917.036 377.896 873.618 382.062 852.314C415.621 826.83 420.516 866.853 416.453 877.071C412.39 887.288 400.162 889.056 398.072 948.035Z" fill="#8D8D8D"/>
<path d="M616.131 922.291C659.19 888.06 636.292 846.007 631.447 824.847C597.09 800.449 593.477 840.608 597.865 850.691C602.252 860.773 610.136 862.009 616.131 922.291Z" fill="#8D8D8D"/>
<path d="M758.486 598.118C771.856 531.652 734.569 532.585 719.513 519.463C675.586 521.516 702.244 553.908 711.338 558.918C720.431 563.928 711.394 562.418 758.486 598.118Z" fill="#8D8D8D"/>
<path d="M364.529 779.852C332.942 706.33 216.562 330.311 216.562 330.311L265.833 145.212C320.919 111.234 395.147 42.1279 406.358 42.4867L641.305 50.0073C682.237 83.7158 765.186 153.173 769.527 161.335C773.868 169.496 794.645 303.046 797.747 348.914L646.038 777.293L652.983 863.426L555.265 921.238C538.013 910.915 501.377 889.892 492.846 888.384C484.315 886.877 419.888 906.105 388.741 915.907L344.265 841.202L364.529 779.852Z" fill="#8D8D8D"/>
<path d="M471.363 788.269C468.426 787.451 428.496 777.548 408.898 772.698L410.915 713.954L449.231 704.324L504.411 743.185L565.838 708.057L597.857 719.938L590.628 768.563C572.158 775.813 533.893 791.175 528.586 794.624C521.952 798.936 475.034 789.291 471.363 788.269Z" fill="#8D8D8D"/>
<path d="M315.51 524.523C297.793 473.893 261.662 371.344 258.874 366.189L307.034 339.683L389.879 409.286L367.956 508.106L411.982 628.942L364.852 598.482L315.51 524.523Z" fill="#8D8D8D"/>
<path d="M678.225 537.942C699.377 488.557 742.465 388.544 745.6 383.578L699.364 354.051L611.926 418.203L627.021 518.208L574.8 635.963L623.917 608.583L678.225 537.942Z" fill="#8D8D8D"/>
<path d="M262.009 307.481L293.182 236.099L375.846 283.982L342.899 434.02C316.785 412.073 263.644 367.789 259.992 366.225C256.34 364.66 259.815 326.41 262.009 307.481Z" fill="#8D8D8D"/>
<path d="M752.307 323.175L726.101 249.956L640.333 292.448L662.913 444.264C690.475 424.035 746.538 383.246 750.289 381.919C754.041 380.591 753.198 342.203 752.307 323.175Z" fill="#8D8D8D"/>
<ellipse cx="43.7212" cy="42.6992" rx="43.7212" ry="42.6992" transform="matrix(0.999488 0.0319931 -0.0343238 0.999411 649.277 301.782)" fill="#8D8D8D"/>
<ellipse cx="26.2327" cy="25.6195" rx="26.2327" ry="25.6195" transform="matrix(0.999488 0.0319931 -0.0343238 0.999411 652.773 301.894)" fill="#8D8D8D"/>
<ellipse cx="43.7212" cy="42.6992" rx="43.7212" ry="42.6992" transform="matrix(0.999488 0.0319931 -0.0343238 0.999411 279.095 289.932)" fill="#8D8D8D"/>
<ellipse cx="17.6843" cy="17.271" rx="17.6843" ry="17.271" transform="matrix(0.999488 0.0319931 -0.0343238 0.999411 280.597 295.423)" fill="#8D8D8D"/>
<path d="M419.294 335.134C399.426 293.181 358.826 207.439 355.373 200.09L331.105 151.362L413.146 82.5131C478.884 83.7126 610.342 86.6538 610.268 88.8228C610.175 91.5341 665.194 162.056 664.821 172.901C664.449 183.746 629.307 208.859 620.512 222.148C613.477 232.78 604.978 305.793 601.608 340.97L667.727 438.989L653.12 513.616L615.619 607.414L550.242 720.052L565.835 826.516L413.042 828.959L460.433 721.488L409.641 616.201L359.751 504.225L339.682 441.155L419.294 335.134Z" fill="#4F563A"/>
<path d="M397.825 512.68L365.102 435.429L374.579 390.964L373.307 311.402L284.989 232.327C287.3 203.049 333.502 196.644 333.41 190.857C333.317 185.071 402.401 200.305 429.091 209.223L451.195 259.513L474.384 377.612L397.825 512.68Z" fill="#8D8D8D"/>
<path d="M618.251 513.678L648.488 435.42L597.874 397.6L628.081 317.534L723.225 244.313C719.98 215.124 660.314 216.416 656.95 211.654C651.264 203.606 652.807 203.537 626.415 213.304L548.574 268.162L529.172 386.941L618.251 513.678Z" fill="#8D8D8D"/>
<path d="M352.387 313.992L306.095 259.131L281.144 230.285C318.963 235.114 396.928 247.2 406.23 256.907C415.532 266.614 429.738 300.786 435.678 316.658L406.046 397.137L337.706 444.711L339.413 395.004L352.387 313.992Z" fill="#8D8D8D"/>
<path d="M353.438 313.529L439.174 318.532L409.557 397.316L335.634 445.848L353.438 313.529Z" fill="#8D8D8D"/>
<path d="M661.675 318.464L711.629 266.683L738.504 239.496C700.437 241.897 621.814 248.971 611.867 258.062C601.919 267.152 585.4 300.341 578.384 315.798L602.428 397.995L667.354 449.834L669.061 400.128L661.675 318.464Z" fill="#8D8D8D"/>
<path d="M658.358 318.245L578.104 319.528L598.83 399.845L670.695 451.134L658.358 318.245Z" fill="#8D8D8D"/>
<path d="M300.94 274.346L282.964 231.248L354.207 314.955L336.998 438.355L333.034 364.943L334.307 327.89L300.94 274.346Z" fill="#8D8D8D"/>
<path d="M713.909 281.232L737.966 239.555L657.973 318.345L666.677 442.574L675.669 369.578L676.941 332.524L713.909 281.232Z" fill="#8D8D8D"/>
<path d="M365.452 823.783C374.75 813.827 395.585 793.443 404.544 791.559L435.084 792.536L480.736 812.092L537.188 813.899L580.628 789.957L619.497 791.201L631.243 826.862L562.232 840.034C548.288 841.397 517.254 844.023 504.668 843.62C492.082 843.217 482.889 839.304 479.867 837.397L429.706 841.22C414.539 842.243 382.525 844.596 375.812 845.828C369.099 847.061 366.108 831.645 365.452 823.783Z" fill="#8D8D8D"/>
<path d="M178.885 332.069L288.206 466.439L767.135 427.87L835.951 334.89L843.479 214.887C822.116 185.538 756.044 137.051 750.585 129.463C745.126 121.874 428.417 127.235 258.081 129.849C223.011 164.563 167.496 219.335 165.912 229.483C164.328 239.631 171.984 283.404 178.885 332.069Z" fill="#8D8D8D"/>
<path d="M233.434 318.277L303.143 421.468L717.448 425.546L780.357 323.661L784.472 227.331C767.158 200.993 719.25 170.136 714.826 163.326C710.402 156.517 438.036 149.791 300.957 151.434C272.874 182.339 225.678 231.206 224.444 240.276C223.211 249.345 233.434 318.277 233.434 318.277Z" fill="#414731"/>
<path d="M359.693 752.357C327.319 682.934 207.656 328.036 207.656 328.036L257.062 153.711C312.928 121.874 388.122 56.9872 399.519 57.3651L638.352 65.2855C680.079 97.2084 767.28 163.199 771.722 170.908C776.165 178.618 795.133 304.376 798.452 347.629L645.815 750.939L653.189 832.165L549.113 877.507C531.54 867.714 499.19 856.579 490.513 855.128C481.837 853.677 429.411 868.376 397.788 877.507L339.321 810.122L359.693 752.357Z" fill="#414731"/>
<path d="M391.475 926.333C373.713 901.417 382.206 863.8 388.672 848.106C425.176 836.255 425.834 868.82 420.653 875.847C415.473 882.873 399.871 880.598 391.475 926.333Z" fill="#A1A1A1"/>
<path d="M358.467 906.91C343.113 881.444 348.194 844.607 352.654 829.372C381.33 819.311 383.343 851.566 379.517 858.283C375.692 864.999 363.1 862.036 358.467 906.91Z" fill="#A1A1A1"/>
<path d="M257.957 607.246C265.343 578.47 302.805 554.903 320.612 546.717C357.62 558.338 331.159 583.249 321.483 585.628C311.808 588.006 302.065 577.508 257.957 607.246Z" fill="#A1A1A1"/>
<path d="M287.269 657.981C293.949 632.544 326.945 611.585 342.608 604.285C374.954 614.396 351.587 636.498 343.092 638.637C334.596 640.776 326.135 631.546 287.269 657.981Z" fill="#A1A1A1"/>
<path d="M346.287 762.597C351.161 742.992 376.808 727.07 389.023 721.56C414.625 729.648 396.572 746.534 389.919 748.116C383.267 749.698 376.47 742.492 346.287 762.597Z" fill="#A1A1A1"/>
<path d="M754.838 580.814C759.315 551.669 733.159 520.038 719.521 507.866C679.746 509.754 694.922 539.943 703.158 544.592C711.394 549.241 724.836 541.681 754.838 580.814Z" fill="#A1A1A1"/>
<path d="M690.287 704.376C693.205 674.976 668.935 642.522 656.436 629.969C621.318 631.176 635.823 661.979 643.275 666.826C650.727 671.674 662.347 664.265 690.287 704.376Z" fill="#A1A1A1"/>
<path d="M657.318 744.609C660.519 724.792 642.526 703.338 633.13 695.089C605.594 696.441 615.992 716.934 621.676 720.079C627.36 723.225 636.69 718.063 657.318 744.609Z" fill="#A1A1A1"/>
<path d="M622.073 905.118C639.08 880.725 636.45 843.632 633.01 828.135C605.063 816.196 600.918 848.247 604.29 855.202C607.663 862.158 620.423 860.035 622.073 905.118Z" fill="#A1A1A1"/>
<path d="M375.022 754.943C346.395 686.758 240.21 355.5 240.21 355.5L205.193 307.226L197.69 245.945L302.741 167.157C352.609 135.669 402.49 70.8868 412.642 71.2234L625.39 78.2787L719.197 167.157L807.99 225.936L807.99 307.226L767.151 355.5L629.928 752.668L636.247 832.539L547.783 886.112C532.158 876.534 498.977 857.027 491.252 855.626C483.526 854.226 425.194 872.033 396.994 881.111L356.695 811.824L375.022 754.943Z" fill="#484E3A"/>
<path d="M471.763 762.786C469.104 762.027 432.943 752.83 415.196 748.326L417.002 693.855L451.694 684.939L501.673 720.992L557.283 688.44L586.28 699.469L579.751 744.555C563.029 751.271 528.385 765.503 523.581 768.699C517.576 772.694 475.088 763.735 471.763 762.786Z" fill="#4A5038"/>
<path d="M330.547 518.168C314.486 471.215 281.734 376.112 279.208 371.331L322.808 346.77L397.848 411.339L378.031 502.964L417.939 615.027L375.252 586.765L330.547 518.168Z" fill="#414731"/>
<path d="M658.99 530.738C678.126 484.952 717.107 392.229 719.944 387.625L678.067 360.229L598.914 419.685L612.617 512.422L565.372 621.594L609.838 596.223L658.99 530.738Z" fill="#414731"/>
<path d="M282.026 316.893L310.228 250.714L385.097 295.144L355.316 434.257C331.662 413.898 283.528 372.816 280.22 371.364C276.913 369.912 280.046 334.445 282.026 316.893Z" fill="#454D30"/>
<path d="M307.125 314.511L335.326 248.331L410.196 292.761L380.414 431.875C356.761 411.515 308.626 370.433 305.318 368.981C302.011 367.529 305.145 332.062 307.125 314.511Z" fill="#393E2C"/>
<path d="M725.997 331.617L702.242 263.715L624.593 303.086L645.093 443.867C670.043 425.12 720.794 387.317 724.19 386.087C727.587 384.858 726.81 349.261 725.997 331.617Z" fill="#454D30"/>
<path d="M693.569 312.009L665.367 245.83L590.498 290.26L620.279 429.374C643.933 409.014 692.068 367.932 695.375 366.48C698.683 365.028 695.549 329.561 693.569 312.009Z" fill="#393E2C"/>
<path d="M424.457 342.59C406.452 303.682 369.659 224.162 366.53 217.346L344.538 172.154L418.802 108.341C478.329 109.476 597.365 112.249 597.298 114.26C597.215 116.774 647.059 182.186 646.726 192.242C646.393 202.298 614.58 225.572 606.621 237.892C600.254 247.748 592.584 315.447 589.545 348.065L649.45 438.978L636.249 508.172L602.325 595.134L543.164 699.558L557.321 798.283L418.968 800.495L461.843 700.858L415.814 603.211L370.6 499.362L352.405 440.872L424.457 342.59Z" fill="#4F563A"/>
<path d="M405.079 507.215L375.422 435.572L383.987 394.344L382.808 320.568L302.809 247.214C304.891 220.067 346.725 214.143 346.639 208.778C346.553 203.412 409.114 217.562 433.285 225.841L453.318 272.481L474.356 381.998L405.079 507.215Z" fill="#566233"/>
<path d="M604.676 508.218L632.027 435.663L586.183 400.575L613.508 326.344L699.635 258.481C696.687 231.414 642.659 232.591 639.612 228.174C634.461 220.71 635.858 220.646 611.963 229.694L541.497 280.535L523.97 390.668L604.676 508.218Z" fill="#566233"/>
<path d="M363.866 322.964L321.929 272.076L299.326 245.32C333.573 249.811 404.174 261.045 412.601 270.049C421.027 279.054 433.902 310.745 439.287 325.465L412.483 400.08L350.618 444.169L352.146 398.079L363.866 322.964Z" fill="#566233"/>
<path d="M364.817 322.533L442.452 327.203L415.662 400.246L348.741 445.223L364.817 322.533Z" fill="#4A5038"/>
<path d="M643.927 327.218L689.143 279.22L713.469 254.02C679 256.233 607.81 262.765 598.805 271.191C589.801 279.617 574.854 310.386 568.507 324.716L590.308 400.943L649.116 449.035L650.644 402.944L643.927 327.218Z" fill="#566233"/>
<path d="M640.924 327.013L568.254 328.175L587.049 402.657L652.142 450.242L640.924 327.013Z" fill="#4A5038"/>
<path d="M317.266 286.183L300.974 246.213L365.514 323.857L349.974 438.275L346.359 370.202L347.499 335.844L317.266 286.183Z" fill="#4A5038"/>
<path d="M691.213 292.712L712.982 254.074L640.575 327.106L648.5 442.303L656.617 374.618L657.757 340.26L691.213 292.712Z" fill="#4A5038"/>
<path d="M375.874 795.68C384.29 786.451 403.149 767.557 411.261 765.813L438.915 766.73L480.26 784.879L531.378 786.575L570.705 764.389L605.901 765.556L616.549 798.627L554.064 810.817C541.438 812.076 513.338 814.5 501.941 814.122C490.544 813.744 482.219 810.112 479.481 808.344L434.062 811.871C420.328 812.814 391.341 814.985 385.263 816.125C379.185 817.266 376.471 802.97 375.874 795.68Z" fill="#566233"/>
<path d="M396.614 878.582C387.878 863.751 370.086 833.574 368.812 831.519C375.898 828.677 391.074 823.029 395.096 823.162C400.124 823.329 451.159 827.538 461.216 827.871L535.798 830.345C552.67 827.549 588.44 821.52 596.552 819.776C606.691 817.595 632.225 831.865 634.683 833.624C636.65 835.032 576.234 867.48 545.78 883.528C528.767 873.736 493.902 854.123 490.55 854.012C487.198 853.901 426.529 870.346 396.614 878.582Z" fill="#4A5038"/>
</svg>
