<svg width="1001" height="1001" viewBox="0 0 1001 1001" fill="none" xmlns="http://www.w3.org/2000/svg">
<path d="M204.092 301.832C190.349 172.514 313.937 86.7624 377.449 60.0514C530.502 25.5113 497.458 124.829 617.402 145.829C767.332 172.08 789.722 307.793 769.221 364.949C717.682 508.636 853.074 531.179 824.115 645.852C789.716 782.064 838.171 789.539 675.747 909.739C545.807 1005.9 473.311 894.906 428.02 854.839C378.563 830.431 266.563 868.071 204.092 715.541C126.003 524.88 221.272 463.48 204.092 301.832Z" fill="#465717" stroke="#A80000" stroke-width="30.0148"/>
<path d="M798.958 563.059C676.251 770.91 393.065 797.83 266.81 785.309C332.546 846.35 395.152 819.742 435.845 844.784C525.059 944.954 575.143 933.998 595.49 933.998C736.979 870.14 783.829 795.743 789.568 766.527L803.654 664.793C813.566 647.576 826.505 603.126 798.958 563.059Z" fill="#404E18"/>
<path d="M456.192 306.376C459.949 385.259 248.028 455.586 197.944 492.628C211.508 475.933 234.255 408.11 216.726 270.377C226.116 140.471 366.979 65.3437 407.673 66.9088C415.499 65.3437 460.888 59.0831 492.191 84.1254C509.407 95.0814 548.536 143.601 593.925 152.992C485.93 155.6 452.436 227.492 456.192 306.376Z" fill="#4F621B"/>
<path d="M312.199 203.076C333.485 146.731 390.977 129.514 417.063 127.949L484.364 179.599C491.147 198.381 506.902 246.587 515.667 289.159C526.623 342.374 362.283 359.59 334.111 356.46C305.938 353.33 285.591 273.507 312.199 203.076Z" fill="#3B4717"/>
<path d="M556.361 307.941C564.187 271.942 570.447 260.986 609.576 220.293C617.401 226.553 644.322 241.892 689.398 253.161C745.743 267.247 719.136 325.157 719.136 356.46C719.136 387.763 700.354 455.064 689.398 466.02C678.442 476.976 609.576 444.108 556.361 414.37C503.146 384.633 548.535 343.939 556.361 307.941Z" fill="#3B4717"/>
<path d="M249.593 486.367C213.595 486.367 243.332 426.891 262.114 370.546C278.809 370.546 316.581 376.494 334.111 400.284C356.023 430.022 351.328 437.847 346.632 466.02C341.937 494.193 285.591 486.367 249.593 486.367Z" fill="#3B4717"/>
<path d="M388.891 414.37C396.717 362.721 390.456 386.198 438.976 370.546C445.236 375.242 463.079 387.763 484.364 400.284C510.972 415.935 520.363 476.976 515.667 503.583C510.972 530.191 484.364 552.103 417.063 542.712C349.762 533.321 381.065 466.02 388.891 414.37Z" fill="#3B4717"/>
<path d="M388.891 577.145C360.719 522.365 362.284 542.712 277.766 527.06V610.013C277.766 630.36 302.808 694.531 334.111 703.922C365.413 713.312 388.891 696.096 399.847 686.705C410.803 677.314 417.063 631.925 388.891 577.145Z" fill="#3B4717"/>
<path d="M572.013 527.06C587.664 511.409 597.055 503.583 662.791 503.583C671.66 516.626 688.146 547.72 683.138 567.754C676.877 592.796 676.877 610.013 662.791 636.62C648.705 663.228 597.055 624.099 556.361 610.013C515.667 595.927 556.361 542.712 572.013 527.06Z" fill="#3B4717"/>
<path d="M689.398 636.62C675.311 600.622 719.136 577.145 753.569 553.668C760.351 568.798 774.855 601.248 778.611 610.013C783.307 620.969 770.786 703.922 753.569 703.922C736.353 703.922 703.485 672.619 689.398 636.62Z" fill="#3B4717"/>
<path d="M705.05 703.922C690.964 675.749 651.835 675.749 597.055 672.619C597.055 687.227 594.551 720.512 584.534 736.79C572.013 757.136 597.055 780.614 597.055 807.221C597.055 833.828 689.398 811.916 719.136 793.135C748.873 774.353 719.136 732.094 705.05 703.922Z" fill="#3B4717"/>
<path d="M438.976 672.619C393.587 627.23 438.976 622.534 456.192 577.145C480.713 594.883 531.632 631.612 539.145 636.62C548.536 642.881 556.361 703.922 539.145 724.268C521.928 744.615 484.364 718.008 438.976 672.619Z" fill="#3B4717"/>
<path d="M360.718 780.614C343.502 754.006 379.5 724.268 417.063 716.443C439.497 734.181 484.364 771.849 484.364 780.614C484.364 791.57 467.148 818.177 456.192 824.438C445.236 830.698 377.935 807.221 360.718 780.614Z" fill="#3B4717"/>
<path d="M249.593 724.268C237.072 711.747 226.116 672.619 226.116 655.402H233.942C245.941 661.141 273.07 675.436 285.592 686.705C301.243 700.791 316.894 736.79 321.59 747.746C326.285 758.702 313.764 769.658 296.548 780.614C279.331 791.57 262.114 736.79 249.593 724.268Z" fill="#3B4717"/>
<path d="M543.84 818.177L543.84 818.177L572.013 824.438C586.099 833.828 614.585 858.558 615.837 882.348C617.402 912.086 597.055 913.651 556.361 908.955C515.667 904.26 515.667 872.957 515.667 852.61C515.667 832.263 531.319 824.438 543.84 818.177Z" fill="#3B4717"/>
</svg>
