<svg width="400" height="400" viewBox="0 0 400 400" fill="none" xmlns="http://www.w3.org/2000/svg">
<path d="M132.839 302.232C118.556 272.305 71.3866 127.834 71.3866 127.834L93.2293 52.6633C117.901 38.927 151.112 10.938 156.144 11.099L261.594 14.4744C280.012 28.2315 317.339 56.5764 319.299 59.8997C321.259 63.223 330.777 117.535 332.236 136.184L267.337 305.781L270.879 338.581L224.248 368.488C216.491 364.269 200.019 355.674 196.188 355.049C192.358 354.425 164.296 364.1 150.332 368.042L123.845 326.85L132.839 302.232Z" fill="#A80000"/>
<path d="M97.8022 249.413C98.7236 224.247 126.727 212.796 139.841 206.904C167.089 215.25 147.597 233.17 140.472 234.883C133.347 236.596 131.306 233.655 97.8022 249.413Z" fill="#A80000"/>
<path d="M112.325 267.714C112.05 250.509 125.6 248.244 132.458 245.676C147.796 250.611 138.087 259.001 134.282 259.654C130.478 260.307 128.955 257.956 112.325 267.714Z" fill="#A80000"/>
<path d="M122.668 293.692C123.338 273.495 142.028 269.703 149.902 266.054C166.025 270.941 154.216 281.915 149.955 282.996C145.694 284.077 142.253 280.533 122.668 293.692Z" fill="#A80000"/>
<path d="M145.066 369.942C129.103 357.548 136.999 340.19 138.665 331.672C152.082 321.484 154.039 337.485 152.415 341.57C150.79 345.655 145.902 346.362 145.066 369.942Z" fill="#A80000"/>
<path d="M158.623 379.113C142.661 366.719 150.557 349.361 152.222 340.843C165.639 330.655 167.596 346.656 165.972 350.741C164.347 354.826 159.459 355.533 158.623 379.113Z" fill="#A80000"/>
<path d="M230.895 375.093C248.11 361.407 238.955 344.595 237.019 336.135C223.282 326.38 221.838 342.436 223.592 346.467C225.346 350.498 228.498 350.992 230.895 375.093Z" fill="#A80000"/>
<path d="M245.804 368.82C263.019 355.134 253.864 338.322 251.927 329.862C238.191 320.107 236.746 336.163 238.501 340.194C240.255 344.225 243.407 344.719 245.804 368.82Z" fill="#A80000"/>
<path d="M302.717 239.215C308.063 212.642 293.155 213.014 287.136 207.769C269.574 208.589 280.232 221.54 283.868 223.543C287.503 225.546 283.89 224.942 302.717 239.215Z" fill="#A80000"/>
<path d="M289.892 260.716C293.906 240.553 281.449 237.501 276.172 232.846C260.83 233.544 266.725 245.079 269.908 246.858C273.091 248.638 273.157 246.806 289.892 260.716Z" fill="#A80000"/>
<path d="M145.212 311.873C132.584 282.478 86.0548 132.145 86.0548 132.145L105.754 58.1418C127.777 44.5574 157.454 16.9286 161.936 17.072L255.868 20.0788C272.233 33.5555 305.396 61.3249 307.132 64.5878C308.868 67.8508 317.174 121.244 318.414 139.583L257.76 310.85L260.537 345.286L221.469 368.399C214.572 364.272 199.925 355.867 196.514 355.264C193.103 354.662 167.345 362.349 154.892 366.268L137.111 336.401L145.212 311.873Z" fill="#A80000"/>
<path d="M187.925 315.238C186.751 314.911 170.787 310.951 162.951 309.012L163.758 285.526L179.077 281.676L201.138 297.213L225.697 283.168L238.498 287.919L235.608 307.359C228.223 310.258 212.925 316.4 210.803 317.779C208.151 319.502 189.393 315.646 187.925 315.238Z" fill="#A80000"/>
<path d="M125.614 209.791C118.531 189.549 104.086 148.55 102.971 146.489L122.226 135.892L155.347 163.719L146.582 203.228L164.184 251.538L145.341 239.36L125.614 209.791Z" fill="#A80000"/>
<path d="M270.629 215.156C279.086 195.412 296.312 155.427 297.566 153.441L279.08 141.636L244.122 167.284L250.157 207.267L229.279 254.346L248.916 243.399L270.629 215.156Z" fill="#A80000"/>
<path d="M104.225 123.017L116.688 94.4786L149.737 113.622L136.565 173.608C126.124 164.834 104.878 147.129 103.418 146.503C101.958 145.878 103.348 130.585 104.225 123.017Z" fill="#A80000"/>
<path d="M300.247 129.292L289.77 100.019L255.48 117.007L264.507 177.703C275.527 169.616 297.941 153.308 299.441 152.778C300.94 152.247 300.603 136.899 300.247 129.292Z" fill="#A80000"/>
<ellipse cx="17.4799" cy="17.0713" rx="17.4799" ry="17.0713" transform="matrix(0.999488 0.0319931 -0.0343238 0.999411 259.056 120.739)" fill="#A80000"/>
<ellipse cx="10.4879" cy="10.2428" rx="10.4879" ry="10.2428" transform="matrix(0.999488 0.0319931 -0.0343238 0.999411 260.453 120.784)" fill="#A80000"/>
<ellipse cx="17.4799" cy="17.0713" rx="17.4799" ry="17.0713" transform="matrix(0.999488 0.0319931 -0.0343238 0.999411 111.056 116.001)" fill="#A80000"/>
<ellipse cx="7.07024" cy="6.90498" rx="7.07024" ry="6.90498" transform="matrix(0.999488 0.0319931 -0.0343238 0.999411 111.656 118.196)" fill="#A80000"/>
<path d="M167.107 134.073C159.164 117.3 142.932 83.0202 141.552 80.0822L131.849 60.6005L164.65 33.0745C190.932 33.5541 243.489 34.73 243.459 35.5972C243.422 36.6811 265.419 64.876 265.27 69.2118C265.121 73.5477 251.071 83.5879 247.555 88.9011C244.742 93.1517 241.344 122.342 239.997 136.406L266.432 175.595L260.592 205.431L245.599 242.931L219.461 287.964L225.695 330.529L164.608 331.506L183.555 288.538L163.248 246.444L143.302 201.676L135.278 176.461L167.107 134.073Z" fill="#465717"/>
<path d="M158.524 205.056L145.442 174.171L149.23 156.394L148.722 124.585L113.412 92.9705C114.336 81.2652 132.808 78.7042 132.771 76.3908C132.734 74.0774 160.354 80.168 171.025 83.7335L179.862 103.84L189.133 151.056L158.524 205.056Z" fill="#A80000"/>
<path d="M246.651 205.455L258.74 174.168L238.504 159.047L250.581 127.037L288.62 97.7626C287.323 86.0928 263.468 86.6093 262.123 84.7055C259.85 81.4878 260.467 81.4603 249.915 85.3651L218.794 107.298L211.037 154.786L246.651 205.455Z" fill="#A80000"/>
<path d="M140.358 125.621L121.85 103.687L111.875 92.1542C126.995 94.085 158.166 98.917 161.885 102.798C165.603 106.679 171.283 120.341 173.658 126.687L161.811 158.862L134.489 177.882L135.171 158.009L140.358 125.621Z" fill="#A80000"/>
<path d="M140.778 125.435L175.055 127.436L163.215 158.934L133.66 178.337L140.778 125.435Z" fill="#A80000"/>
<path d="M264.012 127.408L283.984 106.706L294.729 95.8369C279.509 96.7966 248.076 99.6247 244.099 103.259C240.122 106.894 233.517 120.163 230.712 126.343L240.325 159.205L266.283 179.931L266.965 160.058L264.012 127.408Z" fill="#A80000"/>
<path d="M262.686 127.321L230.6 127.834L238.887 159.945L267.619 180.45L262.686 127.321Z" fill="#A80000"/>
<path d="M119.789 109.77L112.603 92.5392L141.086 126.006L134.206 175.341L132.621 145.991L133.13 131.177L119.789 109.77Z" fill="#A80000"/>
<path d="M284.896 112.523L294.514 95.8605L262.532 127.361L266.012 177.028L269.607 147.844L270.116 133.03L284.896 112.523Z" fill="#A80000"/>
<path d="M145.582 329.436C149.299 325.456 157.629 317.306 161.211 316.553L173.421 316.944L191.672 324.762L214.242 325.485L231.61 315.913L247.15 316.41L251.846 330.667L224.255 335.933C218.68 336.478 206.272 337.528 201.24 337.367C196.208 337.206 192.533 335.642 191.325 334.879L171.271 336.408C165.207 336.817 152.408 337.757 149.724 338.25C147.04 338.743 145.844 332.58 145.582 329.436Z" fill="#A80000"/>
<path d="M58.5095 133.415L106.113 186.96L315.739 170.714L346.01 133.415L349.51 85.4153C340.212 73.716 311.385 54.4404 309.01 51.4153C306.634 48.3902 168.046 51.0776 93.5096 52.4153C78.105 66.3568 53.7201 88.3547 53.0095 92.4153C52.299 96.4759 55.5738 113.967 58.5095 133.415Z" fill="#A80000"/>
<path d="M69.0095 128.415L102.51 169.415L304.009 169.415L335.01 128.415L337.39 89.8689C329.073 79.4025 305.892 67.2488 303.767 64.5425C301.642 61.8363 169.191 60.2186 102.51 61.4153C88.7285 73.8875 65.5799 93.619 64.9442 97.2516C64.3086 100.884 69.0095 128.415 69.0095 128.415Z" fill="#344110"/>
<path d="M143.279 300.88C130.336 273.125 82.4943 131.235 82.4943 131.235L102.247 61.5398C124.582 48.8111 154.645 22.8694 159.202 23.0205L254.688 26.1871C271.37 38.9499 306.233 65.3331 308.01 68.4153C309.786 71.4975 317.369 121.776 318.696 139.069L257.671 300.313L260.619 332.788L219.01 350.915C211.984 347 199.05 342.548 195.581 341.968C192.112 341.388 171.152 347.265 158.51 350.915L135.134 323.975L143.279 300.88Z" fill="#344110"/>
<path d="M155.985 370.436C148.884 360.474 152.28 345.435 154.865 339.161C169.459 334.423 169.722 347.442 167.651 350.251C165.58 353.06 159.342 352.151 155.985 370.436Z" fill="#D9D9D9"/>
<path d="M142.789 362.671C136.651 352.489 138.682 337.762 140.465 331.671C151.93 327.648 152.734 340.544 151.205 343.229C149.675 345.915 144.641 344.73 142.789 362.671Z" fill="#D9D9D9"/>
<path d="M102.605 242.864C105.558 231.359 120.535 221.937 127.654 218.665C142.45 223.311 131.871 233.27 128.003 234.221C124.134 235.172 120.239 230.975 102.605 242.864Z" fill="#D9D9D9"/>
<path d="M114.324 263.148C116.994 252.978 130.186 244.599 136.449 241.681C149.381 245.723 140.038 254.559 136.642 255.415C133.245 256.27 129.862 252.58 114.324 263.148Z" fill="#D9D9D9"/>
<path d="M125.636 288.819C128.783 277.167 143.828 267.493 150.957 264.112C165.558 268.649 154.869 278.82 151.011 279.821C147.153 280.822 143.365 276.624 125.636 288.819Z" fill="#D9D9D9"/>
<path d="M137.919 304.974C139.868 297.136 150.122 290.77 155.005 288.567C165.241 291.801 158.023 298.552 155.364 299.184C152.704 299.817 149.987 296.936 137.919 304.974Z" fill="#D9D9D9"/>
<path d="M301.259 232.296C303.049 220.644 292.592 207.998 287.14 203.132C271.237 203.887 277.305 215.956 280.598 217.815C283.89 219.674 289.264 216.651 301.259 232.296Z" fill="#D9D9D9"/>
<path d="M287.91 254.778C289.436 244.463 280.257 233.248 275.477 228.93C261.585 229.572 266.927 240.27 269.81 241.921C272.693 243.572 277.378 240.905 287.91 254.778Z" fill="#D9D9D9"/>
<path d="M275.452 281.697C276.618 269.943 266.915 256.968 261.918 251.949C247.878 252.431 253.677 264.746 256.656 266.684C259.635 268.623 264.281 265.661 275.452 281.697Z" fill="#D9D9D9"/>
<path d="M262.27 297.782C263.55 289.859 256.356 281.282 252.6 277.984C241.591 278.524 245.748 286.718 248.02 287.975C250.293 289.233 254.023 287.169 262.27 297.782Z" fill="#D9D9D9"/>
<path d="M232.796 368.041C240.814 358.653 238.037 343.306 235.646 336.806C220.514 330.847 219.542 343.867 221.575 346.853C223.609 349.839 230.233 349.446 232.796 368.041Z" fill="#D9D9D9"/>
<path d="M248.179 361.954C254.978 352.202 253.927 337.372 252.552 331.176C241.378 326.403 239.721 339.217 241.069 341.998C242.418 344.779 247.519 343.93 248.179 361.954Z" fill="#D9D9D9"/>
<path d="M149.408 301.914C137.962 274.653 95.5095 142.215 95.5095 142.215L81.5095 122.915L78.5095 98.4153L120.51 66.9153C140.447 54.3266 160.389 28.4263 164.448 28.561L249.505 31.3817L287.01 66.9153L322.51 90.4153L322.51 122.915L306.182 142.215L251.32 301.004L253.846 332.937L218.478 354.356C212.231 350.526 198.965 342.727 195.876 342.167C192.788 341.607 169.466 348.727 158.192 352.356L142.08 324.655L149.408 301.914Z" fill="#404E18"/>
<path d="M188.085 305.049C187.022 304.746 172.565 301.069 165.469 299.268L166.191 277.491L180.061 273.926L200.043 288.34L222.276 275.326L233.869 279.735L231.259 297.76C224.574 300.446 210.723 306.135 208.802 307.413C206.401 309.011 189.414 305.429 188.085 305.049Z" fill="#3B4717"/>
<path d="M131.626 207.251C125.205 188.478 112.111 150.456 111.101 148.544L128.532 138.725L158.533 164.54L150.61 201.172L166.566 245.975L149.499 234.676L131.626 207.251Z" fill="#344110"/>
<path d="M262.939 212.276C270.589 193.971 286.174 156.9 287.309 155.059L270.566 144.106L238.92 167.877L244.399 204.953L225.51 248.6L243.288 238.457L262.939 212.276Z" fill="#344110"/>
<path d="M112.228 126.78L123.503 100.322L153.436 118.085L141.529 173.703C132.072 165.563 112.828 149.138 111.506 148.558C110.183 147.977 111.436 133.798 112.228 126.78Z" fill="#394711"/>
<path d="M289.728 132.667L280.231 105.519L249.187 121.26L257.382 177.545C267.358 170.05 287.648 154.936 289.006 154.444C290.364 153.953 290.053 139.721 289.728 132.667Z" fill="#394711"/>
<circle cx="271.36" cy="140.789" r="15.8288" transform="rotate(1.8994 271.36 140.789)" fill="black"/>
<circle cx="266.507" cy="134.293" r="9.49728" transform="rotate(1.8994 266.507 134.293)" fill="#FDFDFD"/>
<circle cx="132.345" cy="136.345" r="15.8288" transform="rotate(1.8994 132.345 136.345)" fill="black"/>
<circle cx="123.78" cy="128.647" r="6.40242" transform="rotate(1.8994 123.78 128.647)" fill="#FDFDFD"/>
<path d="M169.172 137.054C161.973 121.498 147.263 89.7059 146.012 86.9812L137.22 68.913L166.911 43.4005C190.71 43.8544 238.301 44.963 238.274 45.7671C238.241 46.7723 258.169 72.924 258.035 76.9445C257.902 80.965 245.184 90.27 242.002 95.1956C239.456 99.136 236.389 126.202 235.174 139.243L259.124 175.59L253.847 203.254L240.284 238.022L216.631 279.771L222.291 319.241L166.977 320.126L184.119 280.29L165.716 241.251L147.64 199.732L140.365 176.348L169.172 137.054Z" fill="#465717"/>
<path d="M161.424 202.872L149.567 174.228L152.992 157.745L152.52 128.25L120.536 98.9224C121.369 88.0688 138.094 85.7005 138.06 83.5554C138.025 81.4102 163.037 87.0674 172.701 90.3773L180.71 109.024L189.121 152.809L161.424 202.872Z" fill="#4F621B"/>
<path d="M241.224 203.272L252.159 174.265L233.83 160.237L244.755 130.559L279.189 103.427C278.01 92.6054 256.41 93.076 255.191 91.3102C253.132 88.3257 253.69 88.3004 244.137 91.9175L215.965 112.244L208.958 156.276L241.224 203.272Z" fill="#4F621B"/>
<path d="M144.947 129.207L128.181 108.862L119.144 98.1648C132.836 99.9605 161.063 104.452 164.432 108.052C167.8 111.652 172.948 124.322 175.101 130.207L164.385 160.038L139.651 177.665L140.262 159.238L144.947 129.207Z" fill="#4F621B"/>
<path d="M145.328 129.035L176.366 130.902L165.656 160.105L138.9 178.087L145.328 129.035Z" fill="#3B4717"/>
<path d="M256.917 130.908L274.994 111.718L284.72 101.643C270.939 102.528 242.477 105.139 238.877 108.508C235.277 111.877 229.301 124.178 226.763 129.908L235.479 160.384L258.991 179.611L259.602 161.184L256.917 130.908Z" fill="#4F621B"/>
<path d="M255.716 130.826L226.662 131.291L234.177 161.069L260.201 180.093L255.716 130.826Z" fill="#3B4717"/>
<path d="M126.317 114.502L119.803 98.5221L145.606 129.564L139.393 175.309L137.948 148.093L138.404 134.357L126.317 114.502Z" fill="#3B4717"/>
<path d="M275.822 117.112L284.525 101.665L255.577 130.863L258.745 176.919L261.99 149.859L262.446 136.122L275.822 117.112Z" fill="#3B4717"/>
<path d="M149.748 318.2C153.113 314.511 160.653 306.957 163.896 306.26L174.952 306.626L191.482 313.883L211.919 314.56L227.642 305.69L241.714 306.157L245.971 319.379L220.989 324.252C215.941 324.756 204.706 325.725 200.15 325.574C195.593 325.423 192.265 323.971 191.171 323.264L173.012 324.674C167.521 325.051 155.932 325.919 153.502 326.375C151.072 326.831 149.987 321.115 149.748 318.2Z" fill="#4F621B"/>
<path d="M158.04 351.345C154.547 345.416 147.434 333.351 146.925 332.529C149.758 331.393 155.825 329.135 157.433 329.188C159.444 329.255 179.848 330.938 183.868 331.071L213.687 332.06C220.432 330.942 234.733 328.532 237.976 327.834C242.03 326.963 252.238 332.668 253.221 333.371C254.007 333.934 229.853 346.907 217.677 353.323C210.875 349.408 196.936 341.567 195.596 341.522C194.256 341.478 170 348.052 158.04 351.345Z" fill="#3B4717"/>
</svg>
