<svg width="400" height="400" viewBox="0 0 400 400" fill="none" xmlns="http://www.w3.org/2000/svg">
<g clip-path="url(#clip0_102_48)">
<path d="M187.807 50.7622C192.174 38.9022 208.948 38.9022 213.314 50.7622L228.23 91.2769C229.601 94.9991 232.529 97.9369 236.246 99.3195L276.75 114.383C288.554 118.773 288.554 135.469 276.75 139.859L236.246 154.923C232.529 156.306 229.601 159.243 228.23 162.966L213.314 203.48C208.948 215.34 192.174 215.34 187.807 203.48L172.891 162.966C171.521 159.243 168.593 156.306 164.875 154.923L124.371 139.859C112.567 135.469 112.567 118.773 124.371 114.383L164.875 99.3195C168.593 97.9369 171.521 94.9991 172.891 91.2769L187.807 50.7622Z" fill="#6C2A8B"/>
<path d="M261.838 125.105C266.252 113.358 282.869 113.358 287.283 125.105L302.495 165.595C303.889 169.307 306.837 172.226 310.563 173.584L351.086 188.352C363.001 192.695 363.001 209.547 351.086 213.89L310.563 228.659C306.837 230.017 303.889 232.935 302.495 236.648L287.283 277.137C282.869 288.885 266.252 288.885 261.838 277.137L246.627 236.648C245.232 232.935 242.285 230.017 238.558 228.659L198.036 213.89C186.12 209.547 186.12 192.695 198.036 188.352L238.558 173.584C242.285 172.226 245.232 169.307 246.627 165.595L261.838 125.105Z" fill="#6C2A8B"/>
<path d="M112.717 125.105C117.131 113.358 133.748 113.358 138.162 125.105L153.373 165.595C154.768 169.307 157.715 172.226 161.442 173.584L201.965 188.352C213.88 192.695 213.88 209.547 201.965 213.89L161.442 228.659C157.715 230.017 154.768 232.935 153.373 236.648L138.162 277.137C133.748 288.885 117.131 288.885 112.717 277.137L97.5056 236.648C96.1107 232.935 93.1635 230.017 89.437 228.659L48.9143 213.89C36.9986 209.547 36.9986 192.695 48.9143 188.352L89.437 173.584C93.1635 172.226 96.1107 169.307 97.5056 165.595L112.717 125.105Z" fill="#6C2A8B"/>
<path d="M187.254 197.445C191.633 185.613 208.368 185.613 212.746 197.445L227.811 238.159C229.188 241.879 232.121 244.812 235.841 246.189L276.555 261.254C288.387 265.632 288.387 282.368 276.555 286.746L235.841 301.811C232.121 303.188 229.188 306.121 227.811 309.841L212.746 350.555C208.368 362.387 191.632 362.387 187.254 350.555L172.189 309.841C170.812 306.121 167.879 303.188 164.159 301.811L123.445 286.746C111.613 282.368 111.613 265.632 123.445 261.254L164.159 246.189C167.879 244.812 170.812 241.879 172.189 238.159L187.254 197.445Z" fill="#6C2A8B"/>
<path d="M181.243 21.6901C187.686 4.27777 212.314 4.27776 218.757 21.6901L258.659 129.524C260.685 134.999 265.001 139.315 270.476 141.341L378.31 181.243C395.722 187.686 395.722 212.314 378.31 218.757L270.476 258.659C265.001 260.685 260.685 265.001 258.659 270.476L218.757 378.31C212.314 395.722 187.686 395.722 181.243 378.31L141.341 270.476C139.315 265.001 134.999 260.685 129.524 258.659L21.6901 218.757C4.27777 212.314 4.27776 187.686 21.6901 181.243L129.524 141.341C134.999 139.315 139.315 134.999 141.341 129.524L181.243 21.6901Z" fill="#6C2A8B"/>
<path d="M173.418 103.688C179.275 87.8584 201.664 87.8585 207.522 103.688L227.996 159.019C229.838 163.996 233.762 167.92 238.738 169.761L294.07 190.236C309.899 196.093 309.899 218.482 294.07 224.34L238.738 244.814C233.762 246.656 229.838 250.579 227.996 255.556L207.522 310.888C201.664 326.717 179.275 326.717 173.418 310.888L152.944 255.556C151.102 250.579 147.178 246.656 142.201 244.814L86.87 224.34C71.0405 218.482 71.0406 196.093 86.87 190.236L142.201 169.761C147.178 167.92 151.102 163.996 152.944 159.019L173.418 103.688Z" fill="#580850"/>
<path d="M174.562 152.451C180.454 136.704 202.728 136.704 208.62 152.451L216.067 172.355C217.927 177.325 221.865 181.234 226.848 183.058L246.402 190.213C262.313 196.036 262.313 218.54 246.402 224.362L226.848 231.518C221.865 233.342 217.927 237.251 216.067 242.221L208.62 262.125C202.728 277.872 180.454 277.872 174.562 262.125L167.114 242.221C165.255 237.251 161.317 233.342 156.334 231.518L136.78 224.362C120.868 218.54 120.868 196.036 136.78 190.213L156.334 183.058C161.317 181.234 165.255 177.325 167.114 172.355L174.562 152.451Z" fill="#580850"/>
<path d="M187.254 68.8797C191.633 57.0476 208.368 57.0476 212.746 68.8797L225.361 102.972C226.738 106.692 229.671 109.625 233.391 111.002L267.484 123.617C279.316 127.995 279.316 144.731 267.484 149.109L233.391 161.724C229.671 163.101 226.738 166.034 225.361 169.754L212.746 203.846C208.368 215.678 191.633 215.678 187.254 203.846L174.639 169.754C173.262 166.034 170.33 163.101 166.61 161.724L132.517 149.109C120.685 144.731 120.685 127.995 132.517 123.617L166.61 111.002C170.33 109.625 173.262 106.692 174.639 102.972L187.254 68.8797Z" fill="#8D0FC9"/>
<path d="M251.13 132.755C255.508 120.923 272.243 120.923 276.621 132.755L289.237 166.847C290.613 170.567 293.546 173.5 297.266 174.877L331.359 187.492C343.191 191.871 343.191 208.606 331.359 212.984L297.266 225.599C293.546 226.976 290.613 229.909 289.237 233.629L276.621 267.721C272.243 279.553 255.508 279.553 251.13 267.721L238.514 233.629C237.138 229.909 234.205 226.976 230.485 225.599L196.392 212.984C184.56 208.606 184.56 191.871 196.392 187.492L230.485 174.877C234.205 173.5 237.138 170.567 238.514 166.847L251.13 132.755Z" fill="#8D0FC9"/>
<path d="M122.02 132.755C126.398 120.923 143.134 120.923 147.512 132.755L160.127 166.847C161.504 170.567 164.437 173.5 168.157 174.877L202.249 187.492C214.081 191.871 214.081 208.606 202.249 212.984L168.157 225.599C164.437 226.976 161.504 229.909 160.127 233.629L147.512 267.721C143.134 279.553 126.398 279.553 122.02 267.721L109.405 233.629C108.028 229.909 105.095 226.976 101.375 225.599L67.2828 212.984C55.4507 208.606 55.4507 191.871 67.2828 187.492L101.375 174.877C105.095 173.5 108.028 170.567 109.405 166.847L122.02 132.755Z" fill="#8D0FC9"/>
<path d="M187.254 199.348C191.633 187.516 208.368 187.516 212.746 199.348L225.361 233.441C226.738 237.161 229.671 240.094 233.391 241.47L267.484 254.085C279.316 258.464 279.316 275.199 267.484 279.577L233.391 292.193C229.671 293.569 226.738 296.502 225.361 300.222L212.746 334.315C208.368 346.147 191.633 346.147 187.254 334.315L174.639 300.222C173.262 296.502 170.33 293.569 166.61 292.193L132.517 279.577C120.685 275.199 120.685 258.464 132.517 254.085L166.61 241.47C170.33 240.094 173.262 237.161 174.639 233.441L187.254 199.348Z" fill="#8D0FC9"/>
<path d="M187.254 29.4673C191.633 17.6352 208.368 17.6352 212.746 29.4673L252.891 137.958C254.268 141.678 257.201 144.611 260.921 145.988L369.412 186.133C381.244 190.511 381.244 207.247 369.412 211.625L260.921 251.77C257.201 253.147 254.268 256.08 252.891 259.8L212.746 368.291C208.368 380.123 191.633 380.123 187.254 368.291L147.109 259.8C145.732 256.08 142.799 253.147 139.079 251.77L30.5884 211.625C18.7563 207.247 18.7563 190.511 30.5884 186.133L139.079 145.988C142.799 144.611 145.732 141.678 147.109 137.958L187.254 29.4673Z" fill="#B10DFF"/>
<path d="M200 54.2428L239.065 159.814L344.636 198.879L239.065 237.944L200 343.516L160.935 237.944L55.3637 198.879L160.935 159.814L200 54.2428Z" fill="#DC93FF"/>
<path d="M199.44 196.636L54.8032 198.879L160.758 159.636L199.44 196.636L200 53.6819L239.243 159.636L199.44 196.636L345.197 198.879L239.243 238.121L199.44 196.636L200 344.076L160.758 238.121L199.44 196.636Z" fill="#BF67E9"/>
</g>
<defs>
<clipPath id="clip0_102_48">
<rect width="400" height="400" fill="white"/>
</clipPath>
</defs>
</svg>
