<svg width="1001" height="1001" viewBox="0 0 1001 1001" fill="none" xmlns="http://www.w3.org/2000/svg">
<g clip-path="url(#clip0_349_21)">
<path d="M470.267 127.656C481.183 98.0054 523.119 98.0054 534.035 127.656L571.325 228.942C574.751 238.248 582.071 245.592 591.366 249.049L692.624 286.708C722.134 297.683 722.134 339.423 692.624 350.398L591.366 388.058C582.071 391.514 574.751 398.859 571.325 408.164L534.035 509.451C523.119 539.101 481.183 539.101 470.267 509.451L432.977 408.164C429.551 398.859 422.231 391.514 412.937 388.058L311.678 350.398C282.168 339.423 282.168 297.683 311.678 286.708L412.937 249.049C422.231 245.592 429.551 238.248 432.977 228.942L470.267 127.656Z" fill="#6C2A8B"/>
<path d="M655.346 313.514C666.379 284.144 707.923 284.144 718.957 313.514L756.986 414.736C760.473 424.018 767.841 431.314 777.157 434.709L878.464 471.631C908.253 482.488 908.253 524.618 878.464 535.475L777.157 572.397C767.841 575.792 760.473 583.088 756.986 592.37L718.957 693.593C707.923 722.962 666.38 722.962 655.346 693.593L617.316 592.37C613.829 583.088 606.461 575.792 597.145 572.397L495.838 535.475C466.049 524.618 466.049 482.488 495.838 471.631L597.145 434.709C606.461 431.314 613.829 424.018 617.316 414.736L655.346 313.514Z" fill="#6C2A8B"/>
<path d="M282.543 313.514C293.576 284.144 335.12 284.144 346.154 313.514L384.183 414.736C387.67 424.018 395.038 431.314 404.354 434.709L505.661 471.631C535.45 482.488 535.45 524.618 505.661 535.475L404.354 572.397C395.038 575.792 387.67 583.088 384.183 592.37L346.154 693.593C335.12 722.962 293.576 722.962 282.543 693.593L244.513 592.37C241.026 583.088 233.658 575.792 224.342 572.397L123.035 535.475C93.246 524.618 93.246 482.488 123.035 471.631L224.342 434.709C233.658 431.314 241.026 424.018 244.513 414.736L282.543 313.514Z" fill="#6C2A8B"/>
<path d="M468.885 494.363C479.831 464.783 521.669 464.783 532.614 494.363L570.278 596.148C573.719 605.448 581.052 612.78 590.352 616.222L692.137 653.886C721.717 664.831 721.717 706.669 692.137 717.615L590.352 755.279C581.052 758.72 573.719 766.052 570.278 775.352L532.614 877.138C521.668 906.718 479.831 906.718 468.885 877.137L431.221 775.352C427.78 766.052 420.447 758.72 411.148 755.279L309.362 717.615C279.782 706.669 279.782 664.831 309.362 653.886L411.148 616.222C420.447 612.78 427.78 605.448 431.221 596.148L468.885 494.363Z" fill="#6C2A8B"/>
<path d="M453.857 54.9752C469.965 11.4443 531.535 11.4444 547.643 54.9753L647.398 324.561C652.463 338.247 663.253 349.037 676.939 354.102L946.525 453.857C990.056 469.965 990.056 531.535 946.525 547.643L676.939 647.398C663.253 652.463 652.463 663.253 647.398 676.939L547.643 946.525C531.535 990.056 469.965 990.056 453.857 946.525L354.102 676.939C349.037 663.253 338.247 652.463 324.561 647.398L54.9752 547.643C11.4443 531.535 11.4444 469.965 54.9753 453.857L324.561 354.102C338.247 349.037 349.037 338.247 354.102 324.561L453.857 54.9752Z" fill="#6C2A8B"/>
<path d="M434.295 259.97C448.938 220.396 504.91 220.396 519.554 259.97L570.74 398.299C575.344 410.74 585.154 420.55 597.595 425.154L735.924 476.34C775.498 490.984 775.498 546.956 735.924 561.599L597.595 612.786C585.154 617.389 575.344 627.199 570.74 639.641L519.554 777.97C504.91 817.543 448.938 817.543 434.295 777.969L383.108 639.641C378.505 627.199 368.695 617.389 356.253 612.786L217.924 561.599C178.351 546.956 178.351 490.984 217.925 476.34L356.253 425.154C368.695 420.55 378.505 410.74 383.108 398.299L434.295 259.97Z" fill="#580850"/>
<path d="M437.155 381.876C451.885 342.509 507.569 342.509 522.299 381.876L540.918 431.637C545.567 444.061 555.411 453.835 567.869 458.394L616.755 476.283C656.533 490.84 656.533 547.099 616.755 561.655L567.869 579.545C555.411 584.104 545.567 593.877 540.918 606.302L522.299 656.063C507.569 695.43 451.885 695.43 437.155 656.063L418.536 606.302C413.887 593.877 404.043 584.104 391.585 579.545L342.699 561.655C302.921 547.099 302.921 490.84 342.699 476.283L391.585 458.394C404.043 453.835 413.887 444.061 418.536 431.637L437.155 381.876Z" fill="#580850"/>
<path d="M468.886 172.949C479.831 143.369 521.669 143.369 532.615 172.949L564.153 258.18C567.595 267.48 574.927 274.813 584.227 278.254L669.459 309.793C699.039 320.738 699.039 362.576 669.459 373.522L584.227 405.06C574.927 408.501 567.595 415.834 564.153 425.134L532.615 510.365C521.669 539.946 479.831 539.946 468.886 510.365L437.347 425.134C433.906 415.834 426.574 408.501 417.274 405.06L332.042 373.522C302.462 362.576 302.462 320.738 332.042 309.793L417.274 278.254C426.574 274.813 433.906 267.48 437.347 258.18L468.886 172.949Z" fill="#8D0FC9"/>
<path d="M628.573 332.637C639.519 303.056 681.357 303.056 692.303 332.637L723.841 417.868C727.282 427.168 734.615 434.501 743.915 437.942L829.146 469.48C858.727 480.426 858.727 522.264 829.146 533.209L743.915 564.748C734.615 568.189 727.282 575.522 723.841 584.822L692.303 670.053C681.357 699.633 639.519 699.633 628.574 670.053L597.035 584.822C593.594 575.522 586.261 568.189 576.961 564.748L491.73 533.209C462.15 522.264 462.15 480.426 491.73 469.48L576.961 437.942C586.261 434.501 593.594 427.168 597.035 417.868L628.573 332.637Z" fill="#8D0FC9"/>
<path d="M305.8 332.637C316.746 303.056 358.584 303.056 369.529 332.637L401.068 417.868C404.509 427.168 411.842 434.501 421.142 437.942L506.373 469.48C535.953 480.426 535.953 522.264 506.373 533.209L421.142 564.748C411.842 568.189 404.509 575.522 401.068 584.822L369.529 670.053C358.584 699.633 316.746 699.633 305.8 670.053L274.262 584.822C270.821 575.522 263.488 568.189 254.188 564.748L168.957 533.209C139.376 522.264 139.376 480.426 168.957 469.48L254.188 437.942C263.488 434.501 270.821 427.168 274.262 417.868L305.8 332.637Z" fill="#8D0FC9"/>
<path d="M468.886 499.12C479.831 469.539 521.669 469.539 532.615 499.12L564.153 584.351C567.595 593.651 574.927 600.984 584.227 604.425L669.459 635.963C699.039 646.909 699.039 688.747 669.459 699.692L584.227 731.231C574.927 734.672 567.595 742.005 564.153 751.305L532.615 836.536C521.669 866.116 479.831 866.116 468.886 836.536L437.347 751.305C433.906 742.005 426.574 734.672 417.274 731.231L332.042 699.692C302.462 688.747 302.462 646.909 332.042 635.963L417.274 604.425C426.574 600.984 433.906 593.651 437.347 584.351L468.886 499.12Z" fill="#8D0FC9"/>
<path d="M468.886 74.4181C479.832 44.8379 521.669 44.8378 532.615 74.4181L632.978 345.646C636.42 354.946 643.752 362.278 653.052 365.719L924.28 466.083C953.86 477.028 953.86 518.866 924.28 529.812L653.052 630.175C643.752 633.616 636.42 640.949 632.978 650.249L532.615 921.476C521.669 951.057 479.832 951.057 468.886 921.476L368.523 650.249C365.081 640.949 357.749 633.616 348.449 630.175L77.2213 529.812C47.6411 518.866 47.6411 477.028 77.2213 466.083L348.449 365.719C357.749 362.278 365.081 354.946 368.523 345.646L468.886 74.4181Z" fill="#B10DFF"/>
<path d="M500.75 136.357L598.413 400.285L862.341 497.948L598.413 595.61L500.75 859.539L403.088 595.61L139.159 497.948L403.088 400.285L500.75 136.357Z" fill="#DC93FF"/>
<path d="M499.349 492.341L137.758 497.947L402.644 399.841L499.349 492.341L500.75 134.955L598.856 399.841L499.349 492.341L863.743 497.947L598.856 596.053L499.349 492.341L500.75 860.939L402.644 596.053L499.349 492.341Z" fill="#BF67E9"/>
<path d="M98.2504 578.25C79.2504 576.25 32.8337 534.083 12.0004 513.25C-9.99963 492.645 21.167 447.998 39.5004 428.25C100.75 409.917 224.25 370.25 228.25 358.25C232.25 346.25 239.917 301.583 243.25 280.75L329.5 234.5L448.25 -3L549.5 10.75L595.75 83.25L629.5 214.5C653.667 229.917 711.25 266.75 748.25 290.75C785.25 314.75 771.167 355.75 759.5 373.25C742.834 365.75 708 350.75 702 350.75C696 350.75 662 381.583 645.75 397H595.75L577 440.75L503.25 483.25C487.834 489.5 455.25 504.25 448.25 513.25C441.25 522.25 392.834 549.5 369.5 562C347.834 571.167 298.25 589.75 273.25 590.75C248.25 591.75 252.834 582.833 258.25 578.25L203.25 562C176.167 568.25 117.25 580.25 98.2504 578.25Z" fill="#DFE9F8" stroke="#CFD1FF" stroke-width="45"/>
</g>
<defs>
<clipPath id="clip0_349_21">
<rect width="1000" height="1000" fill="white" transform="translate(0.75 0.75)"/>
</clipPath>
</defs>
</svg>
