<svg width="400" height="400" viewBox="0 0 400 400" fill="none" xmlns="http://www.w3.org/2000/svg">
<g clip-path="url(#clip0_135_499)">
<path d="M235.524 57.1362L283.486 26.6386L289.546 83.1517L289.977 87.172L293.993 86.6977L350.437 80.0302L331.377 133.576L330.021 137.385L333.845 138.7L387.592 157.183L347.187 197.156L344.312 200L347.187 202.844L387.592 242.817L333.845 261.3L330.021 262.615L331.377 266.424L350.437 319.97L293.993 313.302L289.977 312.828L289.546 316.848L283.486 373.361L235.524 342.864L232.113 340.694L229.98 344.129L200 392.417L170.02 344.129L167.887 340.694L164.476 342.864L116.514 373.361L110.454 316.848L110.023 312.828L106.007 313.302L49.5626 319.97L68.623 266.424L69.979 262.615L66.1555 261.3L12.4077 242.817L52.8132 202.844L55.6875 200L52.8132 197.156L12.4077 157.183L66.1555 138.7L69.979 137.385L68.623 133.576L49.5626 80.0302L106.007 86.6977L110.023 87.172L110.454 83.1517L116.514 26.6386L164.476 57.1362L167.887 59.3058L170.02 55.8707L200 7.58338L229.98 55.8707L232.113 59.3058L235.524 57.1362Z" fill="#B10DFF" stroke="#4A4242" stroke-width="8"/>
</g>
<defs>
<clipPath id="clip0_135_499">
<rect width="400" height="400" fill="white"/>
</clipPath>
</defs>
</svg>
