<svg width="400" height="400" viewBox="0 0 400 400" fill="none" xmlns="http://www.w3.org/2000/svg">
<path d="M199.578 44.1964C199.846 44.0719 200.154 44.0719 200.422 44.1964L248.474 66.5646C248.527 66.589 248.581 66.6088 248.637 66.6238L299.825 80.3763C300.11 80.4529 300.347 80.6514 300.472 80.9188L322.904 128.941C322.929 128.994 322.958 129.044 322.991 129.091L353.363 172.529C353.532 172.771 353.586 173.075 353.51 173.361L339.826 224.567C339.811 224.623 339.801 224.68 339.796 224.738L335.141 277.536C335.115 277.83 334.96 278.098 334.719 278.267L291.321 308.698C291.274 308.731 291.23 308.768 291.189 308.809L253.685 346.263C253.476 346.472 253.185 346.577 252.891 346.552L200.086 341.968C200.029 341.963 199.971 341.963 199.914 341.968L147.109 346.552C146.815 346.577 146.524 346.472 146.315 346.263L108.811 308.809C108.77 308.768 108.726 308.731 108.679 308.698L65.2812 278.267C65.0395 278.098 64.8851 277.83 64.8592 277.536L60.2043 224.738C60.1993 224.68 60.1892 224.623 60.1743 224.567L46.4902 173.361C46.414 173.075 46.4676 172.771 46.6367 172.529L77.0093 129.091C77.0424 129.044 77.0713 128.994 77.0958 128.941L99.5281 80.9188C99.653 80.6514 99.8897 80.4529 100.175 80.3763L151.363 66.6238C151.419 66.6088 151.473 66.589 151.526 66.5646L199.578 44.1964Z" fill="#411C39"/>
<path d="M199.578 50.1964C199.846 50.0719 200.154 50.0719 200.422 50.1964L246.607 71.6953C246.659 71.7197 246.714 71.7395 246.77 71.7545L295.969 84.9726C296.254 85.0491 296.49 85.2477 296.615 85.5151L318.176 131.671C318.2 131.724 318.229 131.774 318.262 131.821L347.454 173.571C347.624 173.813 347.677 174.117 347.601 174.402L334.449 223.619C334.434 223.675 334.424 223.732 334.419 223.789L329.945 274.536C329.919 274.83 329.764 275.098 329.523 275.267L287.812 304.515C287.764 304.548 287.72 304.586 287.679 304.626L251.632 340.625C251.424 340.833 251.133 340.939 250.839 340.914L200.086 336.508C200.029 336.503 199.971 336.503 199.914 336.508L149.161 340.914C148.867 340.939 148.576 340.833 148.368 340.625L112.321 304.626C112.28 304.586 112.236 304.548 112.188 304.515L70.4773 275.267C70.2357 275.098 70.0812 274.83 70.0553 274.536L65.5814 223.789C65.5763 223.732 65.5662 223.675 65.5513 223.619L52.399 174.402C52.3228 174.117 52.3765 173.813 52.5456 173.571L81.7378 131.821C81.7709 131.774 81.7998 131.724 81.8243 131.671L103.385 85.5151C103.51 85.2477 103.746 85.0491 104.031 84.9726L153.23 71.7545C153.286 71.7395 153.341 71.7197 153.393 71.6953L199.578 50.1964Z" fill="#8D0FC9"/>
<path d="M199.578 76.4464C199.846 76.3219 200.154 76.3219 200.422 76.4464L238.437 94.1422C238.489 94.1666 238.544 94.1864 238.6 94.2014L279.095 105.081C279.38 105.158 279.617 105.356 279.742 105.624L297.489 143.615C297.513 143.667 297.542 143.718 297.575 143.765L321.603 178.13C321.772 178.371 321.826 178.676 321.75 178.961L310.924 219.471C310.909 219.527 310.899 219.584 310.894 219.641L307.212 261.411C307.186 261.705 307.031 261.973 306.79 262.142L272.457 286.216C272.41 286.249 272.365 286.287 272.324 286.328L242.654 315.958C242.446 316.167 242.155 316.272 241.861 316.247L200.086 312.62C200.029 312.615 199.971 312.615 199.914 312.62L158.139 316.247C157.845 316.272 157.554 316.167 157.346 315.958L127.676 286.328C127.635 286.287 127.59 286.249 127.543 286.216L93.2105 262.142C92.9688 261.973 92.8144 261.705 92.7885 261.411L89.106 219.641C89.1009 219.584 89.0908 219.527 89.0759 219.471L78.2502 178.961C78.174 178.676 78.2277 178.371 78.3968 178.13L102.425 143.765C102.458 143.718 102.487 143.667 102.511 143.615L120.258 105.624C120.383 105.356 120.62 105.158 120.905 105.081L161.4 94.2014C161.456 94.1864 161.511 94.1666 161.563 94.1422L199.578 76.4464Z" fill="#B10DFF"/>
<path d="M199.578 119.196C199.846 119.072 200.154 119.072 200.422 119.196L225.132 130.699C225.184 130.723 225.238 130.743 225.294 130.758L251.616 137.83C251.901 137.906 252.138 138.105 252.263 138.372L263.798 163.066C263.822 163.119 263.851 163.169 263.884 163.216L279.503 185.553C279.672 185.795 279.725 186.099 279.649 186.384L272.613 212.716C272.598 212.772 272.588 212.829 272.583 212.886L270.189 240.036C270.163 240.33 270.009 240.598 269.767 240.767L247.451 256.415C247.404 256.448 247.359 256.486 247.318 256.526L228.033 275.786C227.824 275.995 227.534 276.1 227.24 276.075L200.086 273.718C200.029 273.713 199.971 273.713 199.914 273.718L172.76 276.075C172.466 276.1 172.176 275.995 171.967 275.786L152.682 256.526C152.641 256.486 152.596 256.448 152.549 256.415L130.233 240.767C129.991 240.598 129.837 240.33 129.811 240.036L127.417 212.886C127.412 212.829 127.402 212.772 127.387 212.716L120.351 186.384C120.275 186.099 120.328 185.795 120.497 185.553L136.116 163.216C136.149 163.169 136.178 163.119 136.202 163.066L147.737 138.372C147.862 138.105 148.099 137.906 148.384 137.83L174.706 130.758C174.762 130.743 174.816 130.723 174.868 130.699L199.578 119.196Z" fill="#DC93FF"/>
<path fill-rule="evenodd" clip-rule="evenodd" d="M139.758 259.833C147.081 267.155 158.952 267.155 166.275 259.833L199.045 227.062L231.816 259.833C239.138 267.155 251.01 267.155 258.333 259.833C265.655 252.51 265.655 240.638 258.333 233.316L225.562 200.545L259.083 167.025C266.405 159.702 266.405 147.831 259.083 140.508C251.76 133.186 239.888 133.186 232.566 140.508L199.045 174.029L165.525 140.508C158.202 133.186 146.331 133.186 139.008 140.508C131.686 147.831 131.686 159.702 139.008 167.025L172.529 200.545L139.758 233.316C132.436 240.638 132.436 252.51 139.758 259.833Z" fill="#8D0FC9"/>
<path fill-rule="evenodd" clip-rule="evenodd" d="M153.177 153.177C148.029 158.325 148.029 166.672 153.177 171.819L181.141 199.783L153.177 227.747C148.029 232.895 148.029 241.241 153.177 246.389C158.325 251.537 166.671 251.537 171.819 246.389L199.783 218.425L227.747 246.389C232.895 251.537 241.241 251.537 246.389 246.389C251.537 241.241 251.537 232.895 246.389 227.747L218.425 199.783L246.389 171.819C251.537 166.672 251.537 158.325 246.389 153.177C241.241 148.029 232.894 148.029 227.747 153.177L199.783 181.141L171.819 153.177C166.672 148.029 158.325 148.029 153.177 153.177Z" fill="#B10DFF"/>
</svg>
