<svg width="501" height="501" viewBox="0 0 501 501" fill="none" xmlns="http://www.w3.org/2000/svg">
<path d="M249.834 50.6269C250.177 50.4672 250.573 50.4672 250.916 50.6269L312.522 79.304C312.589 79.3352 312.659 79.3606 312.73 79.3798L378.356 97.0113C378.722 97.1094 379.025 97.364 379.185 97.7068L407.945 159.274C407.976 159.341 408.013 159.406 408.055 159.466L446.995 215.156C447.211 215.466 447.28 215.856 447.182 216.222L429.639 281.871C429.62 281.943 429.607 282.016 429.6 282.09L423.632 349.781C423.599 350.157 423.401 350.5 423.091 350.718L367.453 389.731C367.393 389.774 367.336 389.821 367.284 389.874L319.201 437.892C318.934 438.159 318.561 438.295 318.184 438.262L250.486 432.385C250.412 432.378 250.338 432.378 250.264 432.385L182.566 438.262C182.189 438.295 181.816 438.159 181.549 437.892L133.466 389.874C133.414 389.821 133.357 389.774 133.297 389.731L77.6586 350.718C77.3488 350.5 77.1507 350.157 77.1175 349.781L71.1498 282.09C71.1433 282.016 71.1304 281.943 71.1113 281.871L53.5675 216.222C53.4698 215.856 53.5386 215.466 53.7554 215.156L92.6946 159.466C92.737 159.406 92.7741 159.341 92.8055 159.274L121.565 97.7068C121.725 97.364 122.028 97.1094 122.394 97.0113L188.02 79.3798C188.091 79.3606 188.161 79.3352 188.228 79.304L249.834 50.6269Z" fill="#411C39"/>
<path d="M249.847 63.1206C250.182 62.9649 250.568 62.9649 250.903 63.1206L308.634 89.9941C308.699 90.0246 308.767 90.0494 308.837 90.0681L370.336 106.591C370.692 106.686 370.988 106.935 371.144 107.269L398.095 164.964C398.125 165.03 398.161 165.092 398.203 165.151L434.693 217.339C434.904 217.641 434.971 218.022 434.876 218.378L418.436 279.899C418.417 279.969 418.405 280.04 418.398 280.112L412.806 343.545C412.773 343.913 412.58 344.247 412.278 344.459L360.139 381.019C360.08 381.06 360.025 381.107 359.974 381.158L314.916 426.156C314.654 426.417 314.292 426.549 313.924 426.517L250.483 421.009C250.411 421.003 250.339 421.003 250.267 421.009L186.826 426.517C186.458 426.549 186.096 426.417 185.835 426.156L140.776 381.158C140.725 381.107 140.67 381.06 140.611 381.019L88.4717 344.459C88.1696 344.247 87.9765 343.913 87.9441 343.545L82.3517 280.112C82.3454 280.04 82.3328 279.969 82.3142 279.899L65.8738 218.378C65.7785 218.022 65.8456 217.641 66.057 217.339L102.547 165.151C102.589 165.092 102.625 165.03 102.655 164.964L129.606 107.269C129.762 106.935 130.058 106.686 130.414 106.591L191.913 90.0681C191.983 90.0494 192.051 90.0246 192.116 89.9942L249.847 63.1206Z" fill="#8D0FC9"/>
<path d="M249.847 95.9331C250.182 95.7774 250.568 95.7774 250.903 95.9331L298.421 118.053C298.487 118.083 298.555 118.108 298.624 118.127L349.244 131.727C349.601 131.822 349.896 132.07 350.052 132.405L372.236 179.894C372.266 179.959 372.302 180.022 372.344 180.081L402.379 223.037C402.59 223.339 402.657 223.72 402.562 224.076L389.03 274.714C389.011 274.784 388.999 274.855 388.993 274.927L384.389 327.139C384.357 327.507 384.164 327.841 383.862 328.053L340.946 358.145C340.887 358.187 340.832 358.233 340.781 358.284L303.693 395.323C303.432 395.583 303.069 395.715 302.702 395.683L250.483 391.15C250.411 391.144 250.339 391.144 250.267 391.15L198.048 395.683C197.681 395.715 197.318 395.583 197.057 395.323L159.969 358.284C159.918 358.233 159.863 358.187 159.804 358.145L116.888 328.053C116.586 327.841 116.393 327.507 116.361 327.139L111.757 274.927C111.751 274.855 111.739 274.784 111.72 274.714L98.1878 224.076C98.0925 223.72 98.1596 223.339 98.371 223.037L128.406 180.081C128.448 180.022 128.484 179.959 128.514 179.894L150.698 132.405C150.854 132.07 151.149 131.822 151.506 131.727L202.126 118.127C202.195 118.108 202.263 118.083 202.329 118.053L249.847 95.9331Z" fill="#B10DFF"/>
<path d="M249.847 149.371C250.182 149.215 250.568 149.215 250.903 149.371L281.789 163.748C281.855 163.779 281.923 163.803 281.993 163.822L314.895 172.662C315.252 172.758 315.547 173.006 315.704 173.34L330.122 204.208C330.153 204.273 330.189 204.336 330.231 204.395L349.753 232.316C349.965 232.619 350.032 232.999 349.937 233.355L341.141 266.27C341.122 266.339 341.11 266.411 341.103 266.483L338.111 300.42C338.079 300.788 337.886 301.122 337.584 301.334L309.689 320.894C309.63 320.936 309.574 320.982 309.523 321.033L285.416 345.108C285.155 345.368 284.792 345.5 284.425 345.469L250.483 342.522C250.411 342.516 250.339 342.516 250.267 342.522L216.325 345.469C215.958 345.5 215.595 345.368 215.334 345.108L191.227 321.033C191.176 320.982 191.12 320.936 191.061 320.894L163.166 301.334C162.864 301.122 162.671 300.788 162.639 300.42L159.647 266.483C159.64 266.411 159.628 266.339 159.609 266.27L150.813 233.355C150.718 232.999 150.785 232.619 150.997 232.316L170.519 204.395C170.561 204.336 170.597 204.273 170.628 204.208L185.046 173.34C185.203 173.006 185.498 172.758 185.855 172.662L218.757 163.822C218.827 163.803 218.895 163.779 218.961 163.748L249.847 149.371Z" fill="#DC93FF"/>
<path fill-rule="evenodd" clip-rule="evenodd" d="M175.073 325.166C184.226 334.319 199.065 334.319 208.218 325.166L249.182 284.202L290.145 325.166C299.298 334.319 314.138 334.319 323.291 325.166C332.443 316.013 332.443 301.173 323.291 292.02L282.327 251.057L324.228 209.156C333.381 200.003 333.381 185.163 324.228 176.01C315.075 166.857 300.235 166.857 291.082 176.01L249.182 217.911L207.281 176.01C198.128 166.857 183.288 166.857 174.135 176.01C164.982 185.163 164.982 200.003 174.135 209.156L216.036 251.057L175.073 292.02C165.92 301.173 165.92 316.013 175.073 325.166Z" fill="#8D0FC9"/>
<path fill-rule="evenodd" clip-rule="evenodd" d="M191.846 191.846C185.411 198.281 185.411 208.714 191.846 215.149L226.801 250.104L191.846 285.058C185.411 291.493 185.411 301.926 191.846 308.361C198.281 314.796 208.714 314.796 215.149 308.361L250.104 273.407L285.058 308.361C291.493 314.796 301.926 314.796 308.361 308.361C314.796 301.926 314.796 291.493 308.361 285.058L273.407 250.104L308.361 215.149C314.796 208.714 314.796 198.281 308.361 191.846C301.926 185.411 291.493 185.411 285.058 191.846L250.104 226.801L215.149 191.846C208.714 185.411 198.281 185.411 191.846 191.846Z" fill="#B10DFF"/>
</svg>
