<svg width="1001" height="1001" viewBox="0 0 1001 1001" fill="none" xmlns="http://www.w3.org/2000/svg">
<g clip-path="url(#clip0_135_499)">
<path d="M589.061 143.091L708.966 66.8465L724.116 208.129L725.193 218.18L735.232 216.994L876.344 200.325L828.692 334.19L825.303 343.713L834.861 347L969.231 393.208L868.217 493.141L861.031 500.25L868.217 507.359L969.231 607.292L834.861 653.5L825.303 656.787L828.692 666.31L876.344 800.174L735.232 783.506L725.193 782.32L724.116 792.371L708.966 933.654L589.061 857.409L580.531 851.986L575.2 860.573L500.25 981.292L425.3 860.573L419.969 851.986L411.439 857.409L291.534 933.654L276.384 792.371L275.307 782.32L265.268 783.506L124.157 800.174L171.808 666.31L175.197 656.787L165.639 653.5L31.2692 607.292L132.283 507.359L139.469 500.25L132.283 493.141L31.2691 393.208L165.639 347L175.197 343.713L171.808 334.19L124.157 200.325L265.268 216.994L275.307 218.18L276.384 208.129L291.534 66.8465L411.439 143.091L419.969 148.514L425.3 139.927L500.25 19.2084L575.2 139.927L580.531 148.514L589.061 143.091Z" fill="#B10DFF" stroke="#4A4242" stroke-width="20"/>
</g>
<defs>
<clipPath id="clip0_135_499">
<rect width="1000" height="1000" fill="white" transform="translate(0.25 0.25)"/>
</clipPath>
</defs>
</svg>
