<svg width="500" height="501" viewBox="0 0 500 501" fill="none" xmlns="http://www.w3.org/2000/svg">
<g clip-path="url(#clip0_638_70671)">
<path d="M261.548 86.0501C261.013 87.7292 260.112 89.8153 258.964 92.3332C187.424 91.3682 120.75 143.477 100.088 220.589C78.8295 299.927 112.996 380.733 179.064 414.03L179.076 415.116C179.102 417.345 179.699 419.531 180.809 421.464L192.631 442.058C196.106 448.112 203.727 450.362 209.933 447.167L231.434 436.097C234.541 434.497 236.535 431.92 237.671 429.359C310.898 432.641 379.966 379.957 401.06 301.234C422.452 221.396 387.716 140.062 320.825 107.166L320.726 98.7558C320.7 96.5266 320.104 94.3412 318.994 92.4078L307.171 71.8135C303.696 65.7601 296.075 63.5099 289.87 66.705L268.369 77.7751C264.637 79.6968 262.511 83.0277 261.548 86.0501Z" fill="#524A30" stroke="#645830" stroke-width="16.2607"/>
<path d="M265.264 98.0915L265.937 98.4004L272.644 101.503L272.654 101.483L272.655 101.481L272.78 101.209C274.153 98.2421 275.745 94.8027 276.797 91.725L294.593 82.5626L304.476 99.78L304.588 109.3C304.648 114.441 307.698 118.916 312.13 121.023C372.278 149.627 405.128 223.224 385.353 297.025C365.813 369.949 301.863 417.021 236.293 413.003C231.05 412.681 225.378 415.57 223.272 421.389C223.181 421.64 223.092 421.893 223.005 422.147L205.21 431.309L195.326 414.092L195.301 411.916C195.241 406.825 192.247 402.382 187.877 400.25C128.456 371.266 96.1459 298.128 115.795 224.797C134.953 153.297 196.824 106.631 261.039 108.644C265.899 108.796 270.529 106.076 272.643 101.505L265.264 98.0915ZM223.99 421.64L223.98 421.645C223.983 421.643 223.987 421.641 223.99 421.64ZM418.686 305.957C441.016 222.622 407.731 136.185 338.945 96.183L338.917 93.7912C338.891 91.562 338.295 89.3767 337.185 87.4433L314.318 47.609C310.843 41.5556 303.222 39.3054 297.016 42.5005L251.902 65.7286C248.446 67.5078 245.973 70.7273 245.133 74.4988C170.091 79.9306 103.745 136.436 82.4617 215.866C60.1368 299.183 93.3979 385.584 162.145 425.605C162.146 425.608 162.148 425.611 162.149 425.613L185.484 466.263C188.959 472.316 196.581 474.566 202.786 471.371L248.778 447.691C326.746 445.515 396.73 387.897 418.686 305.957Z" fill="#635A3A" stroke="#645830" stroke-width="16.2607"/>
<path d="M339.501 47.1692C330.501 39.5673 315.614 27.0428 307.463 20.3346C300.169 14.3314 289.347 17.9178 287.254 27.2576C272.462 93.2448 250.844 189.289 232.59 269.507C223.463 309.618 215.18 345.76 209.014 372.205C205.93 385.432 203.38 396.212 201.521 403.843C200.59 407.664 199.84 410.66 199.288 412.768C199.01 413.827 198.795 414.613 198.639 415.147C198.602 415.272 198.573 415.371 198.549 415.447C197.789 417.005 196.508 419.723 194.876 423.185C190.332 432.827 183.071 448.234 176.779 460.397C172.156 469.333 178.919 480.315 189.301 479.637L216.425 477.865C217.859 477.772 219.268 477.442 220.595 476.889L254.685 462.689C255.978 462.151 257.176 461.407 258.233 460.488L296.987 426.783C299.028 425.008 300.467 422.643 301.106 420.014L371.197 131.638C371.838 129.002 371.642 126.231 370.636 123.712L350.202 72.5445L343.414 52.8799C342.649 50.6654 341.303 48.6916 339.501 47.1692Z" fill="#635A3A" stroke="#645830" stroke-width="16.2607"/>
<path d="M255.33 66.3485C254.727 68.3609 253.657 70.9267 252.308 74.0114C182.207 75.0358 116.326 132.914 94.2814 215.185C71.6143 299.78 101.998 385.303 165.798 419.427L165.772 421.079C165.74 423.186 166.217 425.27 167.164 427.152L177.948 448.581C181.338 455.318 189.713 457.791 196.218 453.975L217.275 441.626C220.329 439.834 222.207 437.084 223.182 434.402C294.895 435.802 363.087 377.195 385.583 293.239C408.391 208.119 377.482 122.038 312.858 88.3584L313.006 78.8671C313.039 76.76 312.561 74.6763 311.614 72.7939L300.83 51.3647C297.441 44.6281 289.065 42.1555 282.56 45.9708L261.504 58.3204C258.143 60.2913 256.206 63.4224 255.33 66.3485Z" fill="#C4B276" stroke="#645830" stroke-width="16.2607"/>
<path d="M247.691 55.1352C247.813 54.9719 247.946 54.8161 248.088 54.6688L247.691 55.1352ZM247.691 55.1352C247.277 55.1382 246.855 55.1413 246.422 55.1442M403.209 297.962C426.492 211.067 398.257 119.639 331.271 77.8719L331.321 74.6692C331.354 72.5621 330.876 70.4784 329.929 68.596L308.384 25.7793C304.994 19.0427 296.618 16.5701 290.113 20.3853L245.026 46.8293C241.785 48.7298 239.523 51.9322 238.811 55.6152C165.66 65.3052 98.5866 128.61 76.6545 210.462C53.2641 297.756 81.8564 389.572 149.474 431.095L156.856 444.879C157.227 445.573 157.661 446.232 158.151 446.847L174.644 467.562C178.296 472.15 184.56 473.74 189.958 471.45L234.569 452.526C234.662 452.487 234.754 452.446 234.845 452.403C312.119 447.694 380.306 383.435 403.209 297.962ZM253.968 63.2067L254.082 62.5698C254.713 62.5705 255.378 62.5743 256.053 62.5808C256.046 62.776 256.047 62.9755 256.055 63.1793C255.405 63.1887 254.71 63.1978 253.968 63.2067ZM257.062 62.5924C260.573 62.6393 264.038 62.7526 264.176 62.8779C264.179 62.8804 264.18 62.8828 264.18 62.8852C264.187 62.9819 262.192 63.0849 256.707 63.1695C256.82 62.9757 256.938 62.7832 257.062 62.5924ZM262.387 70.8653C262.623 70.8773 262.775 70.8869 262.859 70.8921C262.952 70.898 262.958 70.8984 262.898 70.8904C262.847 70.8835 262.738 70.8681 262.593 70.8412C262.553 70.8338 262.49 70.8219 262.409 70.8045C262.677 70.0649 262.916 69.3547 263.118 68.6812C263.531 67.3022 264.375 66.0619 265.616 65.3336L272.189 61.4788L262.387 70.8653Z" fill="#635A3A" stroke="#645830" stroke-width="16.2607"/>
<mask id="path-6-outside-1_638_70671" maskUnits="userSpaceOnUse" x="37.4026" y="11.055" width="429.322" height="488.012" fill="black">
<rect fill="white" x="37.4026" y="11.055" width="429.322" height="488.012"/>
<path fill-rule="evenodd" clip-rule="evenodd" d="M265.873 96.1647C267.46 92.7328 269.021 89.3589 269.902 86.5927C270.373 85.1146 271.319 83.7888 272.698 83.0787L294.199 72.0087C296.541 70.803 299.416 71.6521 300.728 73.9364L312.55 94.5307C312.969 95.2603 313.194 96.0849 313.204 96.9261L313.325 107.28C313.348 109.202 314.494 110.931 316.23 111.756C380.307 142.229 414.489 220.046 393.814 297.205C373.383 373.453 306.24 423.473 236.404 419.193C234.283 419.063 232.247 420.233 231.524 422.231C231.376 422.641 231.239 423.041 231.115 423.429C230.644 424.907 229.698 426.233 228.319 426.943L206.819 438.014C204.477 439.219 201.601 438.37 200.29 436.086L188.467 415.492C188.048 414.762 187.823 413.937 187.814 413.096L187.778 410.087C187.756 408.183 186.631 406.467 184.92 405.633C121.625 374.759 88.0053 297.439 108.549 220.769C128.583 146 193.536 96.4508 261.899 98.5926C263.588 98.6456 265.163 97.6988 265.873 96.1647V96.1647Z"/>
</mask>
<path fill-rule="evenodd" clip-rule="evenodd" d="M265.873 96.1647C267.46 92.7328 269.021 89.3589 269.902 86.5927C270.373 85.1146 271.319 83.7888 272.698 83.0787L294.199 72.0087C296.541 70.803 299.416 71.6521 300.728 73.9364L312.55 94.5307C312.969 95.2603 313.194 96.0849 313.204 96.9261L313.325 107.28C313.348 109.202 314.494 110.931 316.23 111.756C380.307 142.229 414.489 220.046 393.814 297.205C373.383 373.453 306.24 423.473 236.404 419.193C234.283 419.063 232.247 420.233 231.524 422.231C231.376 422.641 231.239 423.041 231.115 423.429C230.644 424.907 229.698 426.233 228.319 426.943L206.819 438.014C204.477 439.219 201.601 438.37 200.29 436.086L188.467 415.492C188.048 414.762 187.823 413.937 187.814 413.096L187.778 410.087C187.756 408.183 186.631 406.467 184.92 405.633C121.625 374.759 88.0053 297.439 108.549 220.769C128.583 146 193.536 96.4508 261.899 98.5926C263.588 98.6456 265.163 97.6988 265.873 96.1647V96.1647Z" fill="#574D2A"/>
<path d="M261.899 98.5926L262.47 80.3533L261.899 98.5926ZM187.778 410.087L169.531 410.301L169.531 410.301L187.778 410.087ZM184.92 405.633L176.92 422.034L184.92 405.633ZM188.467 415.492L204.293 406.407L188.467 415.492ZM187.814 413.096L206.061 412.882L187.814 413.096ZM206.819 438.014L215.172 454.238L206.819 438.014ZM200.29 436.086L216.116 427.001L200.29 436.086ZM231.115 423.429L213.728 417.89L231.115 423.429ZM228.319 426.943L236.673 443.168L228.319 426.943ZM236.404 419.193L235.287 437.407L236.404 419.193ZM231.524 422.231L248.683 428.441L231.524 422.231ZM313.325 107.28L331.572 107.067L313.325 107.28ZM316.23 111.756L308.392 128.236L316.23 111.756ZM312.55 94.5307L296.724 103.616L312.55 94.5307ZM313.204 96.9261L294.957 97.1399L313.204 96.9261ZM294.199 72.0087L285.845 55.7846L294.199 72.0087ZM300.728 73.9364L284.902 83.0214L300.728 73.9364ZM269.902 86.5927L252.515 81.0544L269.902 86.5927ZM272.698 83.0787L281.051 99.3028L272.698 83.0787ZM252.515 81.0544C252.056 82.4931 251.067 84.7073 249.311 88.5031L282.435 103.826C283.854 100.758 285.986 96.2248 287.29 92.1311L252.515 81.0544ZM285.845 55.7846L264.345 66.8546L281.051 99.3028L302.552 88.2327L285.845 55.7846ZM328.376 85.4457L316.554 64.8514L284.902 83.0214L296.724 103.616L328.376 85.4457ZM331.572 107.067L331.451 96.7124L294.957 97.1399L295.078 107.494L331.572 107.067ZM411.44 301.928C434.134 217.233 396.966 129.945 324.067 95.2766L308.392 128.236C363.648 154.514 394.843 222.859 376.187 292.482L411.44 301.928ZM235.287 437.407C314.701 442.274 389.011 385.637 411.44 301.928L376.187 292.482C357.756 361.269 297.779 404.672 237.52 400.979L235.287 437.407ZM248.503 428.968C248.545 428.836 248.603 428.662 248.683 428.441L214.365 416.02C214.148 416.62 213.933 417.246 213.728 417.89L248.503 428.968ZM215.172 454.238L236.673 443.168L219.966 410.719L198.465 421.789L215.172 454.238ZM172.641 424.576L184.464 445.171L216.116 427.001L204.293 406.407L172.641 424.576ZM169.531 410.301L169.567 413.31L206.061 412.882L206.025 409.873L169.531 410.301ZM90.9226 216.046C68.3703 300.212 104.929 386.918 176.92 422.034L192.92 389.232C138.321 362.599 107.64 294.666 126.175 225.492L90.9226 216.046ZM262.47 80.3533C184.794 77.9198 112.923 133.938 90.9226 216.046L126.175 225.492C144.243 158.061 202.277 114.982 261.327 116.832L262.47 80.3533ZM261.327 116.832C270.137 117.108 278.571 112.179 282.435 103.826L249.311 88.5031C251.755 83.2187 257.039 80.1832 262.47 80.3533L261.327 116.832ZM206.025 409.873C205.919 400.815 200.599 392.978 192.92 389.232L176.92 422.034C172.662 419.957 169.593 415.551 169.531 410.301L206.025 409.873ZM204.293 406.407C205.425 408.379 206.034 410.608 206.061 412.882L169.567 413.31C169.613 417.266 170.671 421.145 172.641 424.576L204.293 406.407ZM198.465 421.789C204.796 418.53 212.571 420.825 216.116 427.001L184.464 445.171C190.631 455.915 204.158 459.908 215.172 454.238L198.465 421.789ZM213.728 417.89C214.36 415.905 216.062 412.729 219.966 410.719L236.673 443.168C243.335 439.737 246.929 433.909 248.503 428.968L213.728 417.89ZM237.52 400.979C228.39 400.419 218.192 405.448 214.365 416.02L248.683 428.441C246.303 435.018 240.176 437.707 235.287 437.407L237.52 400.979ZM295.078 107.494C295.185 116.64 300.605 124.532 308.392 128.236L324.067 95.2766C328.383 97.3291 331.51 101.765 331.572 107.067L295.078 107.494ZM296.724 103.616C295.592 101.643 294.983 99.4139 294.957 97.1399L331.451 96.7124C331.404 92.756 330.346 88.8772 328.376 85.4457L296.724 103.616ZM302.552 88.2327C296.221 91.4922 288.447 89.1967 284.902 83.0214L316.554 64.8514C310.386 54.1075 296.86 50.1137 285.845 55.7846L302.552 88.2327ZM287.29 92.1311C286.657 94.1189 284.954 97.2937 281.051 99.3028L264.345 66.8546C257.684 70.284 254.089 76.1103 252.515 81.0544L287.29 92.1311Z" fill="#8C7E4E" mask="url(#path-6-outside-1_638_70671)"/>
<rect width="9.60731" height="9.60731" rx="0.658965" transform="matrix(0.386546 0.92227 -0.795894 0.605437 353.225 227.343)" fill="#D9D9D9" stroke="#5C4664" stroke-width="13.382"/>
<path d="M349.317 241.922L353.197 227.441L345.653 233.18L349.317 241.922Z" fill="#E9ACFF"/>
<path d="M349.224 241.897L353.104 227.416L356.955 236.208L349.224 241.897Z" fill="#EFC1FF"/>
<rect width="9.60731" height="9.60731" rx="0.658965" transform="matrix(0.386546 0.92227 -0.795894 0.605437 329.375 316.536)" fill="#D9D9D9" stroke="#5C4664" stroke-width="13.382"/>
<path d="M325.469 331.114L329.349 316.633L321.804 322.372L325.469 331.114Z" fill="#E9ACFF"/>
<path d="M325.375 331.089L329.255 316.607L333.106 325.4L325.375 331.089Z" fill="#EFC1FF"/>
<path d="M336.714 54.6344C324.743 44.5171 300.271 23.9335 298.157 22.5381C269.058 152.413 210.18 413.535 207.465 419.027C204.75 424.518 190.134 456.418 181.162 472.496L218.141 470.081L253.723 455.259L294.264 420.001L365.097 128.571L344.008 75.7628L336.714 54.6344Z" fill="#645830"/>
<mask id="path-15-outside-2_638_70671" maskUnits="userSpaceOnUse" x="24.9374" y="-18.7627" width="432.863" height="534.686" fill="black">
<rect fill="white" x="24.9374" y="-18.7627" width="432.863" height="534.686"/>
<path fill-rule="evenodd" clip-rule="evenodd" d="M259.441 77.4107C261.594 72.5347 263.699 67.7667 264.29 64.4736L291.835 48.3181L305.524 75.5225L305.277 91.3571C368.631 121.088 400.987 204.677 378.359 289.127C355.951 372.756 287.269 428.693 218.218 424.016C217.049 426.843 216.111 429.43 215.747 431.458L188.202 447.614L174.512 420.409L174.636 412.476C112.081 382.253 80.2802 299.193 102.764 215.282C124.667 133.541 190.777 78.2556 258.23 80.1688C258.629 79.2517 259.036 78.3293 259.441 77.4107Z"/>
</mask>
<path fill-rule="evenodd" clip-rule="evenodd" d="M259.441 77.4107C261.594 72.5347 263.699 67.7667 264.29 64.4736L291.835 48.3181L305.524 75.5225L305.277 91.3571C368.631 121.088 400.987 204.677 378.359 289.127C355.951 372.756 287.269 428.693 218.218 424.016C217.049 426.843 216.111 429.43 215.747 431.458L188.202 447.614L174.512 420.409L174.636 412.476C112.081 382.253 80.2802 299.193 102.764 215.282C124.667 133.541 190.777 78.2556 258.23 80.1688C258.629 79.2517 259.036 78.3293 259.441 77.4107Z" fill="#C4B276"/>
<path d="M264.29 64.4736L255.058 48.7329L247.812 52.9824L246.328 61.25L264.29 64.4736ZM259.441 77.4107L242.747 70.0413L242.747 70.0414L259.441 77.4107ZM291.835 48.3181L308.136 40.1155L299.389 22.7327L282.603 32.5775L291.835 48.3181ZM305.524 75.5225L323.771 75.8071L323.84 71.3245L321.825 67.3198L305.524 75.5225ZM305.277 91.3571L287.031 91.0725L286.848 102.866L297.525 107.877L305.277 91.3571ZM218.218 424.016L219.452 405.81L206.369 404.923L201.356 417.04L218.218 424.016ZM215.747 431.458L224.979 447.199L232.224 442.949L233.708 434.682L215.747 431.458ZM188.202 447.614L171.901 455.816L180.648 473.199L197.433 463.354L188.202 447.614ZM174.512 420.409L156.266 420.125L156.196 424.607L158.211 428.612L174.512 420.409ZM174.636 412.476L192.882 412.761L193.064 401.113L182.574 396.045L174.636 412.476ZM258.23 80.1688L257.712 98.4097L270.041 98.7594L274.962 87.4499L258.23 80.1688ZM246.328 61.25C246.361 61.0671 246.234 61.7213 245.466 63.6782C244.761 65.4713 243.861 67.5182 242.747 70.0413L276.135 84.78C277.858 80.8777 281.177 73.6803 282.251 67.6972L246.328 61.25ZM282.603 32.5775L255.058 48.7329L273.522 80.2143L301.067 64.0588L282.603 32.5775ZM321.825 67.3198L308.136 40.1155L275.534 56.5208L289.224 83.7251L321.825 67.3198ZM323.524 91.6417L323.771 75.8071L287.278 75.2379L287.031 91.0725L323.524 91.6417ZM395.985 293.85C420.245 203.314 386.482 109.308 313.03 74.8375L297.525 107.877C350.781 132.869 381.73 206.04 360.733 284.404L395.985 293.85ZM216.985 442.223C296.967 447.64 371.954 383.538 395.985 293.85L360.733 284.404C339.948 361.975 277.57 409.746 219.452 405.81L216.985 442.223ZM233.708 434.682C233.667 434.909 233.687 434.706 233.958 433.91C234.21 433.169 234.576 432.212 235.081 430.992L201.356 417.04C200.166 419.916 198.529 424.095 197.786 428.235L233.708 434.682ZM197.433 463.354L224.979 447.199L206.515 415.717L178.97 431.873L197.433 463.354ZM158.211 428.612L171.901 455.816L204.502 439.411L190.813 412.207L158.211 428.612ZM156.39 412.191L156.266 420.125L192.758 420.694L192.882 412.761L156.39 412.191ZM85.1377 210.559C61.0277 300.538 94.2157 393.888 166.697 428.907L182.574 396.045C129.946 370.618 99.5326 297.848 120.391 220.005L85.1377 210.559ZM258.747 61.9279C180.787 59.7166 108.645 122.827 85.1377 210.559L120.391 220.005C140.688 144.255 200.767 96.7945 257.712 98.4097L258.747 61.9279ZM242.747 70.0414C242.345 70.9523 241.918 71.9189 241.497 72.8877L274.962 87.4499C275.339 86.5844 275.727 85.7062 276.135 84.78L242.747 70.0414Z" fill="#8C7E4E" mask="url(#path-15-outside-2_638_70671)"/>
<path d="M363.06 301.87C375.43 265.983 377.856 227.417 369.939 192.524C362.022 157.631 344.235 128.492 319.506 109.907C294.778 91.3221 264.583 84.3992 233.895 90.2786C203.208 96.158 173.858 114.489 150.679 142.253L158.171 151.646C179.391 126.228 206.262 109.446 234.356 104.063C262.451 98.6802 290.095 105.018 312.734 122.033C335.373 139.048 351.658 165.725 358.906 197.669C366.154 229.614 363.933 264.922 352.608 297.777L363.06 301.87Z" fill="#E0CE8E"/>
<path d="M121.749 204.997C109.442 240.877 106.86 279.378 114.429 314.157C121.997 348.937 139.265 377.922 163.388 396.337C187.511 414.753 217.05 421.501 247.14 415.47C277.23 409.439 306.077 390.989 328.929 363.158L321.64 353.824C300.719 379.303 274.31 396.195 246.762 401.716C219.214 407.237 192.171 401.059 170.086 384.2C148.001 367.34 132.192 340.805 125.263 308.963C118.334 277.122 120.698 241.875 131.965 209.026L121.749 204.997Z" fill="#A3966A"/>
<path d="M209.887 383.124C237.254 390.457 265.523 381.617 288.892 362.652C312.269 343.682 331.237 314.27 340.679 279.033C350.12 243.796 348.399 208.842 337.64 180.724C326.884 152.616 306.822 130.826 279.454 123.493C252.087 116.16 223.818 125 200.449 143.964C177.072 162.935 158.104 192.346 148.662 227.583C139.221 262.82 140.942 297.775 151.701 325.892C162.457 354 182.519 375.79 209.887 383.124Z" fill="#948657" stroke="#948657" stroke-width="14.2897"/>
<ellipse cx="252.867" cy="253.413" rx="88.6945" ry="103.231" transform="rotate(15 252.867 253.413)" fill="#A29361"/>
<ellipse cx="247.39" cy="252.157" rx="79.5787" ry="89.4336" transform="rotate(15 247.39 252.157)" fill="#95885A"/>
<ellipse cx="243.508" cy="250.741" rx="70.4629" ry="80.0714" transform="rotate(15 243.508 250.741)" fill="#887D54"/>
<ellipse cx="243.418" cy="251.385" rx="65.0426" ry="70.2165" transform="rotate(15 243.418 251.385)" fill="#766C4B"/>
<ellipse cx="243.418" cy="251.385" rx="43.5318" ry="46.9946" transform="rotate(15 243.418 251.385)" fill="#9E9162"/>
<ellipse cx="243.418" cy="251.385" rx="43.5318" ry="46.9946" transform="rotate(15 243.418 251.385)" fill="#9E9162"/>
<ellipse cx="243.418" cy="251.385" rx="30.4294" ry="32.85" transform="rotate(15 243.418 251.385)" fill="#9E9162"/>
<ellipse cx="243.418" cy="251.385" rx="30.4294" ry="32.85" transform="rotate(15 243.418 251.385)" fill="#C3B276"/>
<mask id="path-26-outside-3_638_70671" maskUnits="userSpaceOnUse" x="154.199" y="101.115" width="151.564" height="287.848" fill="black">
<rect fill="white" x="154.199" y="101.115" width="151.564" height="287.848"/>
<path fill-rule="evenodd" clip-rule="evenodd" d="M199.716 379.273C199.604 379.36 199.524 379.48 199.494 379.606V379.606C199.391 380.03 198.815 380.233 198.583 379.926L188.32 366.425C188.242 366.322 188.185 366.206 188.149 366.079L186.636 360.627C186.6 360.498 186.588 360.36 186.599 360.218L195.809 243.64C195.819 243.517 195.846 243.393 195.89 243.27L237.448 127.559L238.042 124.912C238.127 124.531 238.371 124.168 238.714 123.91L257.213 109.97C257.394 109.834 257.627 109.894 257.586 110.095V110.095C257.573 110.156 257.577 110.258 257.613 110.3L268.915 123.619C269.062 123.792 269.146 124.011 269.158 124.253L269.643 133.83L264.213 244.965C264.206 245.111 264.173 245.26 264.117 245.407L218.41 364.307C218.298 364.599 218.095 364.869 217.831 365.076L199.716 379.273Z"/>
</mask>
<path fill-rule="evenodd" clip-rule="evenodd" d="M199.716 379.273C199.604 379.36 199.524 379.48 199.494 379.606V379.606C199.391 380.03 198.815 380.233 198.583 379.926L188.32 366.425C188.242 366.322 188.185 366.206 188.149 366.079L186.636 360.627C186.6 360.498 186.588 360.36 186.599 360.218L195.809 243.64C195.819 243.517 195.846 243.393 195.89 243.27L237.448 127.559L238.042 124.912C238.127 124.531 238.371 124.168 238.714 123.91L257.213 109.97C257.394 109.834 257.627 109.894 257.586 110.095V110.095C257.573 110.156 257.577 110.258 257.613 110.3L268.915 123.619C269.062 123.792 269.146 124.011 269.158 124.253L269.643 133.83L264.213 244.965C264.206 245.111 264.173 245.26 264.117 245.407L218.41 364.307C218.298 364.599 218.095 364.869 217.831 365.076L199.716 379.273Z" fill="#E9ACFF"/>
<path d="M237.448 127.559L245.648 128.643L245.842 128.103L245.964 127.559H237.448ZM269.643 133.83L278.352 132.428L278.37 132.048L278.351 131.676L269.643 133.83ZM268.915 123.619L276.145 117.61L268.915 123.619ZM269.158 124.253L260.45 126.407L269.158 124.253ZM257.613 110.3L250.383 116.309L257.613 110.3ZM257.213 109.97L261.645 116.057L257.213 109.97ZM195.809 243.64L204.502 242.474L195.809 243.64ZM195.89 243.27L187.69 242.186L195.89 243.27ZM186.636 360.627L178.168 364.282L186.636 360.627ZM186.599 360.218L177.906 361.384L186.599 360.218ZM188.32 366.425L180.887 372.181L188.32 366.425ZM188.149 366.079L179.682 369.734L188.149 366.079ZM218.41 364.307L226.536 365.59L218.41 364.307ZM217.831 365.076L213.223 359.125L217.831 365.076ZM199.716 379.273L204.325 385.224L199.716 379.273ZM264.213 244.965L272.921 243.563L264.213 244.965ZM264.117 245.407L272.243 246.689L264.117 245.407ZM198.583 379.926L206.015 374.17L198.583 379.926ZM180.887 372.181L191.15 385.683L206.015 374.17L195.753 360.668L180.887 372.181ZM178.168 364.282L179.682 369.734L196.617 362.424L195.104 356.972L178.168 364.282ZM187.116 244.806L177.906 361.384L195.292 359.051L204.502 242.474L187.116 244.806ZM229.248 126.475L187.69 242.186L204.09 244.354L245.648 128.643L229.248 126.475ZM229.526 124.912L228.932 127.559H245.964L246.558 124.912H229.526ZM252.781 103.884L234.282 117.823L243.146 129.996L261.645 116.057L252.781 103.884ZM276.145 117.61L264.843 104.292L250.383 116.309L261.685 129.628L276.145 117.61ZM278.351 131.676L277.866 122.1L260.45 126.407L260.936 135.983L278.351 131.676ZM272.921 243.563L278.352 132.428L260.935 135.232L255.505 246.367L272.921 243.563ZM226.536 365.59L272.243 246.689L255.991 244.124L210.284 363.025L226.536 365.59ZM204.325 385.224L222.44 371.027L213.223 359.125L195.108 373.322L204.325 385.224ZM261.685 129.628C260.94 128.749 260.513 127.635 260.45 126.407L277.866 122.1C277.779 120.388 277.184 118.835 276.145 117.61L261.685 129.628ZM249.042 110.224C248.842 111.183 248.831 112.031 248.901 112.719C248.949 113.194 249.134 114.837 250.383 116.309L264.843 104.292C265.527 105.098 265.842 105.906 265.992 106.378C266.155 106.891 266.227 107.348 266.262 107.69C266.323 108.301 266.317 109.067 266.13 109.965L249.042 110.224ZM261.645 116.057C259.128 117.953 255.964 118.69 253.309 117.883C250.331 116.978 248.237 114.088 249.042 110.224L266.13 109.965C266.976 105.901 264.786 102.881 261.656 101.929C258.85 101.076 255.478 101.851 252.781 103.884L261.645 116.057ZM246.558 124.912C246.125 126.841 244.889 128.683 243.146 129.996L234.282 117.823C231.852 119.654 230.129 122.222 229.526 124.912H246.558ZM204.502 242.474C204.453 243.097 204.314 243.73 204.09 244.354L187.69 242.186C187.378 243.056 187.185 243.938 187.116 244.806L204.502 242.474ZM195.104 356.972C195.285 357.627 195.349 358.329 195.292 359.051L177.906 361.384C177.826 362.391 177.915 363.369 178.168 364.282L195.104 356.972ZM195.753 360.668C196.146 361.186 196.438 361.779 196.617 362.424L179.682 369.734C179.932 370.633 180.338 371.459 180.887 372.181L195.753 360.668ZM210.284 363.025C210.854 361.541 211.885 360.173 213.223 359.125L222.44 371.027C224.304 369.566 225.741 367.658 226.536 365.59L210.284 363.025ZM207.975 379.753C207.478 381.804 206.175 383.774 204.325 385.224L195.108 373.322C193.034 374.947 191.571 377.157 191.013 379.459L207.975 379.753ZM255.505 246.367C255.541 245.625 255.705 244.867 255.991 244.124L272.243 246.689C272.642 245.653 272.871 244.597 272.921 243.563L255.505 246.367ZM191.013 379.459C192.714 372.441 202.202 369.153 206.015 374.17L191.15 385.683C195.429 391.312 206.068 387.62 207.975 379.753L191.013 379.459Z" fill="#B979D0" mask="url(#path-26-outside-3_638_70671)"/>
<path d="M269.14 123.882L257.397 110.044C240.762 153.433 206.987 241.768 204.965 247.995C202.943 254.222 199.715 338.809 198.738 380.324L218.237 364.756L264.203 245.184L269.644 133.829L269.14 123.882Z" fill="#EFC1FF"/>
<path d="M188.202 366.27L198.724 380.324L216.01 228.123L257.443 109.828L238.175 124.315L237.447 127.558L195.823 243.454L186.581 360.432L188.202 366.27Z" fill="#E9ACFF"/>
<path d="M271.446 89.86L291.572 48.0658L306.463 75.4578L305.822 103.96L271.446 89.86Z" fill="#E0CE8E"/>
<rect width="9.60731" height="9.60731" rx="0.658965" transform="matrix(0.386546 0.92227 -0.795894 0.605437 137.934 169.656)" fill="#D9D9D9" stroke="#B979D0" stroke-width="13.382"/>
<path d="M134.028 184.235L137.908 169.754L130.364 175.493L134.028 184.235Z" fill="#E9ACFF"/>
<path d="M133.934 184.21L137.814 169.729L141.665 178.521L133.934 184.21Z" fill="#EFC1FF"/>
<rect width="9.60731" height="9.60731" rx="0.658965" transform="matrix(0.386546 0.92227 -0.795894 0.605437 114.085 258.849)" fill="#D9D9D9" stroke="#B979D0" stroke-width="13.382"/>
<path d="M110.179 273.427L114.059 258.946L106.515 264.685L110.179 273.427Z" fill="#E9ACFF"/>
<path d="M110.085 273.402L113.965 258.92L117.816 267.713L110.085 273.402Z" fill="#EFC1FF"/>
<rect width="16.1846" height="16.1846" rx="0.658965" transform="matrix(0.386546 0.92227 -0.795894 0.605437 121.717 208.29)" fill="#D9D9D9" stroke="#B979D0" stroke-width="13.382"/>
<path d="M115.136 232.851L121.672 208.455L108.963 218.123L115.136 232.851Z" fill="#E9ACFF"/>
<path d="M114.978 232.809L121.515 208.413L128.002 223.225L114.978 232.809Z" fill="#EFC1FF"/>
<rect width="9.60731" height="9.60731" rx="0.658965" transform="matrix(0.386546 0.92227 -0.795894 0.605437 359.554 226.073)" fill="#D9D9D9" stroke="#B979D0" stroke-width="13.382"/>
<path d="M355.648 240.652L359.529 226.171L351.984 231.91L355.648 240.652Z" fill="#E9ACFF"/>
<path d="M355.555 240.627L359.435 226.146L363.286 234.938L355.555 240.627Z" fill="#EFC1FF"/>
<rect width="9.60731" height="9.60731" rx="0.658965" transform="matrix(0.386546 0.92227 -0.795894 0.605437 335.705 315.265)" fill="#D9D9D9" stroke="#B979D0" stroke-width="13.382"/>
<path d="M331.798 329.844L335.678 315.362L328.134 321.102L331.798 329.844Z" fill="#E9ACFF"/>
<path d="M331.705 329.819L335.585 315.337L339.436 324.13L331.705 329.819Z" fill="#EFC1FF"/>
<rect width="16.1846" height="16.1846" rx="0.658965" transform="matrix(0.386546 0.92227 -0.795894 0.605437 361.831 269.177)" fill="#D9D9D9" stroke="#B979D0" stroke-width="13.382"/>
<path d="M355.25 293.737L361.787 269.342L349.077 279.01L355.25 293.737Z" fill="#E9ACFF"/>
<path d="M355.093 293.695L361.629 269.3L368.117 284.112L355.093 293.695Z" fill="#EFC1FF"/>
</g>
<defs>
<clipPath id="clip0_638_70671">
<rect width="500" height="500" fill="white" transform="translate(0 0.355469)"/>
</clipPath>
</defs>
</svg>
