<svg width="400" height="400" viewBox="0 0 400 400" fill="none" xmlns="http://www.w3.org/2000/svg">
<path d="M199.567 40.2015C199.842 40.0737 200.158 40.0737 200.433 40.2015L249.717 63.1432C249.771 63.1682 249.827 63.1885 249.884 63.2039L302.385 77.309C302.677 77.3876 302.92 77.5912 303.048 77.8655L326.056 127.119C326.081 127.173 326.11 127.224 326.144 127.273L357.296 171.825C357.469 172.073 357.524 172.385 357.446 172.678L343.411 225.197C343.396 225.254 343.385 225.313 343.38 225.372L338.606 279.524C338.579 279.826 338.421 280.1 338.173 280.274L293.663 311.485C293.614 311.519 293.569 311.557 293.527 311.599L255.061 350.013C254.847 350.227 254.549 350.336 254.248 350.31L200.089 345.608C200.03 345.603 199.97 345.603 199.911 345.608L145.752 350.31C145.451 350.336 145.153 350.227 144.939 350.013L106.473 311.599C106.431 311.557 106.386 311.519 106.337 311.485L61.8268 280.274C61.579 280.1 61.4206 279.826 61.394 279.524L56.6198 225.372C56.6146 225.313 56.6043 225.254 56.589 225.197L42.554 172.678C42.4759 172.385 42.5309 172.073 42.7043 171.825L73.8557 127.273C73.8896 127.224 73.9193 127.173 73.9444 127.119L96.9519 77.8655C97.08 77.5912 97.3227 77.3876 97.6151 77.309L150.116 63.2039C150.173 63.1885 150.229 63.1682 150.283 63.1432L199.567 40.2015Z" fill="#411C39"/>
<path d="M199.578 50.1964C199.846 50.0719 200.154 50.0719 200.422 50.1964L246.607 71.6953C246.659 71.7197 246.714 71.7395 246.77 71.7545L295.969 84.9725C296.254 85.0491 296.49 85.2477 296.615 85.5151L318.176 131.671C318.2 131.724 318.229 131.774 318.262 131.821L347.454 173.571C347.624 173.813 347.677 174.117 347.601 174.402L334.449 223.619C334.434 223.675 334.424 223.732 334.419 223.789L329.945 274.536C329.919 274.83 329.764 275.098 329.523 275.267L287.812 304.515C287.764 304.548 287.72 304.586 287.679 304.626L251.632 340.625C251.424 340.833 251.133 340.939 250.839 340.914L200.086 336.508C200.029 336.503 199.971 336.503 199.914 336.508L149.161 340.914C148.867 340.939 148.576 340.833 148.368 340.625L112.321 304.626C112.28 304.586 112.236 304.548 112.188 304.515L70.4773 275.267C70.2357 275.098 70.0812 274.83 70.0553 274.536L65.5814 223.789C65.5763 223.732 65.5662 223.675 65.5513 223.619L52.399 174.402C52.3228 174.117 52.3765 173.813 52.5456 173.571L81.7378 131.821C81.7709 131.774 81.7998 131.724 81.8243 131.671L103.385 85.5151C103.51 85.2477 103.746 85.0491 104.031 84.9725L153.23 71.7545C153.286 71.7395 153.341 71.7197 153.393 71.6953L199.578 50.1964Z" fill="#8D0FC9"/>
<path d="M199.578 76.4464C199.846 76.3219 200.154 76.3219 200.422 76.4464L238.437 94.1422C238.489 94.1666 238.544 94.1864 238.6 94.2014L279.095 105.081C279.38 105.158 279.617 105.356 279.742 105.624L297.489 143.615C297.513 143.667 297.542 143.718 297.575 143.765L321.603 178.13C321.772 178.371 321.826 178.676 321.75 178.961L310.924 219.471C310.909 219.527 310.899 219.584 310.894 219.641L307.212 261.411C307.186 261.705 307.031 261.973 306.79 262.142L272.457 286.216C272.41 286.249 272.365 286.287 272.324 286.328L242.654 315.958C242.446 316.167 242.155 316.272 241.861 316.247L200.086 312.62C200.029 312.615 199.971 312.615 199.914 312.62L158.139 316.247C157.845 316.272 157.554 316.167 157.346 315.958L127.676 286.328C127.635 286.287 127.59 286.249 127.543 286.216L93.2105 262.142C92.9688 261.973 92.8144 261.705 92.7885 261.411L89.106 219.641C89.1009 219.584 89.0908 219.527 89.0759 219.471L78.2502 178.961C78.174 178.676 78.2277 178.371 78.3968 178.13L102.425 143.765C102.458 143.718 102.487 143.667 102.511 143.615L120.258 105.624C120.383 105.356 120.62 105.158 120.905 105.081L161.4 94.2014C161.456 94.1864 161.511 94.1666 161.563 94.1422L199.578 76.4464Z" fill="#B10DFF"/>
<path d="M199.578 119.196C199.846 119.072 200.154 119.072 200.422 119.196L225.132 130.699C225.184 130.723 225.238 130.743 225.294 130.758L251.616 137.83C251.901 137.906 252.138 138.105 252.263 138.372L263.798 163.066C263.822 163.119 263.851 163.169 263.884 163.216L279.503 185.553C279.672 185.795 279.725 186.099 279.649 186.384L272.613 212.716C272.598 212.772 272.588 212.829 272.583 212.886L270.189 240.036C270.163 240.33 270.009 240.598 269.767 240.767L247.451 256.415C247.404 256.448 247.359 256.486 247.318 256.526L228.033 275.786C227.824 275.995 227.534 276.1 227.24 276.075L200.086 273.717C200.029 273.713 199.971 273.713 199.914 273.717L172.76 276.075C172.466 276.1 172.176 275.995 171.967 275.786L152.682 256.526C152.641 256.486 152.596 256.448 152.549 256.415L130.233 240.767C129.991 240.598 129.837 240.33 129.811 240.036L127.417 212.886C127.412 212.829 127.402 212.772 127.387 212.716L120.351 186.384C120.275 186.099 120.328 185.795 120.497 185.553L136.116 163.216C136.149 163.169 136.178 163.119 136.202 163.066L147.737 138.372C147.862 138.105 148.099 137.906 148.384 137.83L174.706 130.758C174.762 130.743 174.816 130.723 174.868 130.699L199.578 119.196Z" fill="#DC93FF"/>
</svg>
