<svg width="501" height="501" viewBox="0 0 501 501" fill="none" xmlns="http://www.w3.org/2000/svg">
<g clip-path="url(#clip0_170_409)">
<mask id="path-1-outside-1_170_409" maskUnits="userSpaceOnUse" x="83.4939" y="83.1988" width="408.708" height="408.708" fill="black">
<rect fill="white" x="83.4939" y="83.1988" width="408.708" height="408.708"/>
<path d="M111.485 96.1316C107.994 92.6413 102.336 92.6414 98.8453 96.1316L96.8846 98.0923C93.3943 101.583 93.3943 107.241 96.8846 110.732L464.853 478.7C468.343 482.19 474.002 482.19 477.492 478.7L479.453 476.739C482.943 473.249 482.943 467.59 479.453 464.1L111.485 96.1316Z"/>
</mask>
<path d="M111.485 96.1316C107.994 92.6413 102.336 92.6414 98.8453 96.1316L96.8846 98.0923C93.3943 101.583 93.3943 107.241 96.8846 110.732L464.853 478.7C468.343 482.19 474.002 482.19 477.492 478.7L479.453 476.739C482.943 473.249 482.943 467.59 479.453 464.1L111.485 96.1316Z" fill="#411C39"/>
<path d="M479.453 464.1L476.432 467.121L479.453 464.1ZM464.853 478.7L461.832 481.721L464.853 478.7ZM96.8846 110.732L99.9053 107.711L96.8846 110.732ZM111.485 96.1316L114.505 93.1109L111.485 96.1316ZM95.8246 93.1109L93.8639 95.0717L99.9053 101.113L101.866 99.1523L95.8246 93.1109ZM93.8639 113.752L461.832 481.721L467.874 475.679L99.9053 107.711L93.8639 113.752ZM480.513 481.721L482.474 479.76L476.432 473.719L474.472 475.679L480.513 481.721ZM482.474 461.079L114.505 93.1109L108.464 99.1523L476.432 467.121L482.474 461.079ZM482.474 479.76C487.632 474.601 487.632 466.238 482.474 461.079L476.432 467.121C478.254 468.943 478.254 471.897 476.432 473.719L482.474 479.76ZM461.832 481.721C466.991 486.879 475.354 486.879 480.513 481.721L474.472 475.679C472.65 477.501 469.696 477.501 467.874 475.679L461.832 481.721ZM93.8639 95.0717C88.7054 100.23 88.7054 108.594 93.8639 113.752L99.9053 107.711C98.0833 105.889 98.0833 102.935 99.9053 101.113L93.8639 95.0717ZM101.866 99.1523C103.688 97.3303 106.642 97.3303 108.464 99.1523L114.505 93.1109C109.347 87.9524 100.983 87.9524 95.8246 93.1109L101.866 99.1523Z" fill="#200707" mask="url(#path-1-outside-1_170_409)"/>
<mask id="path-3-outside-2_170_409" maskUnits="userSpaceOnUse" x="-6.44607" y="-6.91748" width="170.413" height="170.413" fill="black">
<rect fill="white" x="-6.44607" y="-6.91748" width="170.413" height="170.413"/>
<path fill-rule="evenodd" clip-rule="evenodd" d="M112.469 86.4067L103.613 66.1078L20.4355 18.9752C19.4499 18.4167 18.3567 19.5147 18.9195 20.4979L66.3578 103.363L87.192 112.597L93.767 123.1L101.572 124.008L113.472 126.312L115.8 125.278L132.695 132.766L125.743 116.831L127.569 113.726L124.623 100.957L123.534 93.3335L112.469 86.4067Z"/>
</mask>
<path fill-rule="evenodd" clip-rule="evenodd" d="M112.469 86.4067L103.613 66.1078L20.4355 18.9752C19.4499 18.4167 18.3567 19.5147 18.9195 20.4979L66.3578 103.363L87.192 112.597L93.767 123.1L101.572 124.008L113.472 126.312L115.8 125.278L132.695 132.766L125.743 116.831L127.569 113.726L124.623 100.957L123.534 93.3335L112.469 86.4067Z" fill="#B10DFF"/>
<path d="M103.613 66.1078L107.529 64.3995L106.959 63.0935L105.719 62.3911L103.613 66.1078ZM112.469 86.4067L108.554 88.115L109.082 89.3263L110.202 90.0276L112.469 86.4067ZM20.4355 18.9752L18.3295 22.6918L18.3295 22.6918L20.4355 18.9752ZM18.9195 20.4979L22.6269 18.3755L22.6269 18.3755L18.9195 20.4979ZM66.3578 103.363L62.6504 105.485L63.3462 106.701L64.6267 107.268L66.3578 103.363ZM87.192 112.597L90.8129 110.331L90.1188 109.222L88.923 108.692L87.192 112.597ZM93.767 123.1L90.1461 125.367L91.2351 127.107L93.2736 127.344L93.767 123.1ZM101.572 124.008L102.384 119.814L102.225 119.783L102.065 119.765L101.572 124.008ZM113.472 126.312L112.66 130.506L113.98 130.761L115.207 130.216L113.472 126.312ZM115.8 125.278L117.531 121.372L115.798 120.604L114.065 121.374L115.8 125.278ZM132.695 132.766L130.964 136.671L141 141.12L136.61 131.058L132.695 132.766ZM125.743 116.831L122.06 114.665L120.956 116.542L121.827 118.539L125.743 116.831ZM127.569 113.726L131.251 115.892L132.114 114.424L131.732 112.765L127.569 113.726ZM124.623 100.957L120.394 101.561L120.42 101.74L120.46 101.917L124.623 100.957ZM123.534 93.3335L127.763 92.7294L127.482 90.7653L125.801 89.7126L123.534 93.3335ZM99.6975 67.816L108.554 88.115L116.385 84.6985L107.529 64.3995L99.6975 67.816ZM18.3295 22.6918L101.507 69.8244L105.719 62.3911L22.5416 15.2585L18.3295 22.6918ZM22.6269 18.3755C24.2224 21.1625 21.1233 24.275 18.3295 22.6918L22.5416 15.2585C17.7765 12.5583 12.491 17.867 15.2121 22.6202L22.6269 18.3755ZM70.0651 101.241L22.6269 18.3755L15.2121 22.6202L62.6504 105.485L70.0651 101.241ZM88.923 108.692L68.0888 99.4575L64.6267 107.268L85.4609 116.503L88.923 108.692ZM83.571 114.864L90.1461 125.367L97.3879 120.834L90.8129 110.331L83.571 114.864ZM93.2736 127.344L101.078 128.251L102.065 119.765L94.2604 118.857L93.2736 127.344ZM100.76 128.202L112.66 130.506L114.284 122.118L102.384 119.814L100.76 128.202ZM115.207 130.216L117.535 129.181L114.065 121.374L111.737 122.408L115.207 130.216ZM134.426 128.86L117.531 121.372L114.069 129.183L130.964 136.671L134.426 128.86ZM121.827 118.539L128.779 134.474L136.61 131.058L129.658 115.123L121.827 118.539ZM129.425 118.997L131.251 115.892L123.887 111.56L122.06 114.665L129.425 118.997ZM131.732 112.765L128.786 99.9964L120.46 101.917L123.406 114.686L131.732 112.765ZM128.852 100.353L127.763 92.7294L119.305 93.9377L120.394 101.561L128.852 100.353ZM125.801 89.7126L114.736 82.7858L110.202 90.0276L121.267 96.9544L125.801 89.7126Z" fill="#200707" mask="url(#path-3-outside-2_170_409)"/>
<mask id="path-5-outside-3_170_409" maskUnits="userSpaceOnUse" x="85.8083" y="83.1078" width="176.777" height="176.777" fill="black">
<rect fill="white" x="85.8083" y="83.1078" width="176.777" height="176.777"/>
<path d="M194.472 162.001L226.6 225.612L195.176 210.029L163.258 193.215L118.454 157.473L136.83 151.683L113.407 114.002C112.781 112.994 113.955 111.836 114.954 112.476L152.185 136.328L160.24 115.687L194.472 162.001Z"/>
</mask>
<path d="M194.472 162.001L226.6 225.612L195.176 210.029L163.258 193.215L118.454 157.473L136.83 151.683L113.407 114.002C112.781 112.994 113.955 111.836 114.954 112.476L152.185 136.328L160.24 115.687L194.472 162.001Z" fill="#B10DFF"/>
<path d="M226.6 225.612L224.702 229.439L236.198 235.14L230.413 223.686L226.6 225.612ZM194.472 162.001L198.285 160.075L198.122 159.752L197.907 159.462L194.472 162.001ZM118.454 157.473L117.17 153.398L109.518 155.809L115.79 160.812L118.454 157.473ZM163.258 193.215L160.594 196.554L160.91 196.806L161.267 196.994L163.258 193.215ZM113.407 114.002L109.779 116.257L109.779 116.257L113.407 114.002ZM136.83 151.683L138.114 155.758L143.364 154.103L140.458 149.428L136.83 151.683ZM152.185 136.328L149.881 139.925L154.27 142.737L156.165 137.881L152.185 136.328ZM114.954 112.476L117.259 108.879L117.259 108.879L114.954 112.476ZM160.24 115.687L163.676 113.147L159.075 106.923L156.261 114.134L160.24 115.687ZM195.176 210.029L193.185 213.808L193.231 213.833L193.278 213.856L195.176 210.029ZM230.413 223.686L198.285 160.075L190.659 163.927L222.787 227.538L230.413 223.686ZM115.79 160.812L160.594 196.554L165.922 189.875L121.118 154.133L115.79 160.812ZM109.779 116.257L133.202 153.938L140.458 149.428L117.035 111.747L109.779 116.257ZM135.546 147.609L117.17 153.398L119.738 161.547L138.114 155.758L135.546 147.609ZM154.49 132.731L117.259 108.879L112.65 116.073L149.881 139.925L154.49 132.731ZM197.907 159.462L163.676 113.147L156.805 118.226L191.036 164.54L197.907 159.462ZM156.261 114.134L148.206 134.775L156.165 137.881L164.22 117.24L156.261 114.134ZM161.267 196.994L193.185 213.808L197.167 206.249L165.249 189.435L161.267 196.994ZM193.278 213.856L224.702 229.439L228.498 221.785L197.074 206.202L193.278 213.856ZM117.035 111.747C118.811 114.604 115.483 117.888 112.65 116.073L117.259 108.879C112.427 105.783 106.75 111.384 109.779 116.257L117.035 111.747Z" fill="#200707" mask="url(#path-5-outside-3_170_409)"/>
<mask id="path-7-outside-4_170_409" maskUnits="userSpaceOnUse" x="170.592" y="170.765" width="156.978" height="156.978" fill="black">
<rect fill="white" x="170.592" y="170.765" width="156.978" height="156.978"/>
<path d="M265.804 240.381L299.913 299.879L240.631 265.553L190.015 191.517C189.321 190.501 190.543 189.275 191.561 189.966L265.804 240.381Z"/>
</mask>
<path d="M265.804 240.381L299.913 299.879L240.631 265.553L190.015 191.517C189.321 190.501 190.543 189.275 191.561 189.966L265.804 240.381Z" fill="#B10DFF"/>
<path d="M299.913 299.879L297.772 303.576L311.52 311.537L303.619 297.755L299.913 299.879ZM265.804 240.381L269.51 238.256L269.019 237.4L268.203 236.846L265.804 240.381ZM191.561 189.966L189.161 193.5L189.161 193.5L191.561 189.966ZM190.015 191.517L193.542 189.106L193.542 189.106L190.015 191.517ZM240.631 265.553L237.105 267.964L237.652 268.764L238.49 269.25L240.631 265.553ZM303.619 297.755L269.51 238.256L262.097 242.505L296.207 302.004L303.619 297.755ZM268.203 236.846L193.96 186.432L189.161 193.5L263.404 243.915L268.203 236.846ZM186.489 193.928L237.105 267.964L244.158 263.142L193.542 189.106L186.489 193.928ZM238.49 269.25L297.772 303.576L302.054 296.183L242.772 261.856L238.49 269.25ZM193.96 186.432C189.04 183.091 183.132 189.017 186.489 193.928L193.542 189.106C195.51 191.985 192.046 195.46 189.161 193.5L193.96 186.432Z" fill="#200707" mask="url(#path-7-outside-4_170_409)"/>
<mask id="path-9-outside-5_170_409" maskUnits="userSpaceOnUse" x="365.979" y="364.845" width="143.543" height="143.543" fill="black">
<rect fill="white" x="365.979" y="364.845" width="143.543" height="143.543"/>
<path fill-rule="evenodd" clip-rule="evenodd" d="M468.278 447.593L464.66 439.74L386.462 383.862C385.439 383.13 384.177 384.391 384.908 385.415L440.746 463.654L448.3 467.32L463.194 481.126L480.639 487.871L490.053 487.789L490.09 480.015L482.503 461.817L468.278 447.593Z"/>
</mask>
<path fill-rule="evenodd" clip-rule="evenodd" d="M468.278 447.593L464.66 439.74L386.462 383.862C385.439 383.13 384.177 384.391 384.908 385.415L440.746 463.654L448.3 467.32L463.194 481.126L480.639 487.871L490.053 487.789L490.09 480.015L482.503 461.817L468.278 447.593Z" fill="#B10DFF"/>
<path d="M464.66 439.74L468.54 437.952L468.066 436.923L467.144 436.264L464.66 439.74ZM468.278 447.593L464.398 449.38L464.718 450.074L465.257 450.614L468.278 447.593ZM386.462 383.862L383.979 387.337L386.462 383.862ZM384.908 385.415L388.385 382.934L388.385 382.934L384.908 385.415ZM440.746 463.654L437.269 466.136L437.901 467.022L438.881 467.497L440.746 463.654ZM448.3 467.32L451.204 464.187L450.738 463.754L450.165 463.476L448.3 467.32ZM463.194 481.126L460.29 484.259L460.89 484.815L461.653 485.11L463.194 481.126ZM480.639 487.871L479.098 491.856L479.86 492.15L480.676 492.143L480.639 487.871ZM490.053 487.789L490.09 492.06L494.305 492.024L494.325 487.809L490.053 487.789ZM490.09 480.015L494.362 480.035L494.366 479.169L494.033 478.371L490.09 480.015ZM482.503 461.817L486.445 460.173L486.12 459.394L485.523 458.797L482.503 461.817ZM460.78 441.528L464.398 449.38L472.158 445.805L468.54 437.952L460.78 441.528ZM383.979 387.337L462.176 443.216L467.144 436.264L388.946 380.386L383.979 387.337ZM388.385 382.934C390.457 385.837 386.881 389.411 383.979 387.337L388.946 380.386C383.997 376.85 377.897 382.946 381.431 387.897L388.385 382.934ZM444.223 461.172L388.385 382.934L381.431 387.897L437.269 466.136L444.223 461.172ZM450.165 463.476L442.611 459.811L438.881 467.497L446.435 471.163L450.165 463.476ZM445.396 470.453L460.29 484.259L466.098 477.993L451.204 464.187L445.396 470.453ZM461.653 485.11L479.098 491.856L482.179 483.887L464.735 477.141L461.653 485.11ZM480.676 492.143L490.09 492.06L490.015 483.517L480.601 483.6L480.676 492.143ZM494.325 487.809L494.362 480.035L485.818 479.994L485.781 487.768L494.325 487.809ZM494.033 478.371L486.445 460.173L478.56 463.461L486.147 481.659L494.033 478.371ZM485.523 458.797L471.299 444.572L465.257 450.614L479.482 464.838L485.523 458.797Z" fill="#200707" mask="url(#path-9-outside-5_170_409)"/>
<path d="M73.4154 98.484L30.4528 29.0444L93.9278 77.9716L102.124 101.373L99.3064 105.863L98.579 110.494L73.4154 98.484Z" fill="#C54AFF"/>
<path d="M102.174 100.766L30.2271 28.8194L99.1649 72.7351L112.951 96.1231L107.868 97.8601L102.174 100.766Z" fill="#DC93FF"/>
<rect width="20.6476" height="528.293" rx="10.3238" transform="matrix(-0.707107 0.707107 0.707107 0.707107 112.214 96.8604)" fill="#411C39"/>
<rect width="12.1037" height="516.901" rx="6.05187" transform="matrix(-0.707107 0.707107 0.707107 0.707107 112.717 103.405)" fill="#502546"/>
<path d="M149.721 170.616L118.759 157.778L136.883 151.736L149.721 170.616Z" fill="#C54AFF"/>
<path d="M171.369 148.967L152.49 136.129L160.545 115.991L171.369 148.967Z" fill="#C54AFF"/>
</g>
<defs>
<clipPath id="clip0_170_409">
<rect width="500" height="500" fill="white" transform="translate(0.625 0.375)"/>
</clipPath>
</defs>
</svg>
