<svg width="501" height="501" viewBox="0 0 501 501" fill="none" xmlns="http://www.w3.org/2000/svg">
<path d="M413.356 444.185L203.309 220.844L180.71 223.503L168.745 218.185L142.157 230.15L108.922 259.397L31.816 387.02L17.1925 396.326C17.1925 392.781 14.5337 383.298 14.5337 379.044C14.5337 373.726 21.1807 299.279 27.8278 288.644C31.609 282.594 58.8473 217.299 73.0276 187.609L95.6275 165.009L112.91 149.056C108.922 131.774 114.239 130.001 114.239 125.127C116.898 125.57 108.124 114.492 104.933 109.174C104.047 106.515 99.6157 102.527 104.933 79.9271C132.851 59.986 124.874 63.9742 128.863 63.9742C136.839 63.9742 140.827 61.3154 144.816 63.9742C148.006 66.1013 154.565 68.4056 155.451 70.6212L163.427 74.6095C166.529 74.6095 174.063 67.9624 184.698 70.6212C186.761 71.1371 227.239 32.5116 247.18 13.4567C249.839 11.6842 257.018 9.20266 259.145 8.13913C261.272 7.07561 301.242 55.9978 321.627 81.2565L293.709 119.809L254.07 137.711C254.349 138.613 254.704 139.724 255.156 141.08C259.41 153.842 256.043 165.009 252.498 168.997L485.144 420.255L486.473 441.526L470.52 464.126C463.873 466.341 455.195 466.785 449.25 466.785C445.262 466.785 437.728 458.365 430.638 456.149L413.356 444.185Z" fill="#200707"/>
<rect x="96.4521" y="94.9294" width="53.1763" height="514.687" rx="26.5881" transform="rotate(-43.347 96.4521 94.9294)" fill="#411C39"/>
<path d="M314.979 82.5861L260.474 13.4569C233.886 21.4334 158.551 119.368 155.451 122.468C150.133 127.786 127.533 143.739 120.886 147.727C113.587 152.107 84.3336 184.112 78.345 191.597C73.0274 198.245 23.8395 304.597 23.8394 325.868C23.8394 347.138 15.8632 364.42 23.8394 388.35L42.451 357.773L66.3804 313.903L102.274 256.738L138.168 222.174L178.051 207.55L204.639 166.339L255.156 130.445L291.05 114.492L314.979 82.5861Z" fill="#B10DFF"/>
<path d="M285.733 81.2565L259.145 41.3743C237.786 46.6353 166.27 122.329 163.772 124.402C159.488 127.957 160.321 131.306 140.828 142.409C140.828 142.409 111.092 169.304 106.263 174.315C101.975 178.764 57.5854 246.361 57.5166 260.664C57.4478 274.967 50.9922 286.557 57.3145 302.678L72.3464 282.19L91.6879 252.783L120.672 214.483L149.583 191.379L181.63 181.7L203.096 154.091L243.745 130.15L271.11 109.174L285.733 81.2565Z" fill="#DC93FF"/>
<path d="M109.912 149.692C104.226 143.668 104.499 134.175 110.524 128.488L167.982 74.2535C174.006 68.567 183.5 68.841 189.186 74.8654L251.694 141.088C257.38 147.113 257.106 156.606 251.082 162.292L193.624 216.527C187.6 222.214 178.106 221.94 172.42 215.915L109.912 149.692Z" fill="#C54AFF"/>
<path d="M205.769 113.777C208.044 114.083 209.817 115.898 210.071 118.179L216.203 173.257C216.563 176.489 213.79 179.199 210.566 178.765L155.644 171.369C153.37 171.063 151.596 169.248 151.342 166.967L145.21 111.889C144.85 108.657 147.624 105.947 150.847 106.381L205.769 113.777Z" fill="#E09DFF"/>
<path d="M186.028 212.851C179.459 190.557 181.464 170.547 192.29 160.329C203.115 150.111 225.302 150.502 247.18 158.345L268.133 240.68L186.028 212.851Z" fill="#8D0FC9"/>
<path d="M186.028 212.851C179.459 190.557 181.464 170.547 192.29 160.329C203.115 150.111 225.302 150.502 247.18 158.345L268.133 240.68L186.028 212.851Z" fill="#8D0FC9"/>
<path d="M193.855 216.468C186.732 194.394 188.492 176.554 198.748 166.873C209.004 157.192 226.916 156.464 248.543 164.848L275.4 248.081L193.855 216.468Z" fill="#411C39"/>
<path d="M193.855 216.468C186.732 194.394 188.492 176.554 198.748 166.873C209.004 157.192 226.916 156.464 248.543 164.848L275.4 248.081L193.855 216.468Z" fill="#411C39"/>
<rect x="221.003" y="205.051" width="27.3714" height="328.712" rx="13.6857" transform="rotate(-43.347 221.003 205.051)" fill="#502546"/>
</svg>
