<svg width="1001" height="1001" viewBox="0 0 1001 1001" fill="none" xmlns="http://www.w3.org/2000/svg">
<circle cx="481.96" cy="366.056" r="67.8629" fill="#510774"/>
<path d="M137.001 181.5C137.001 181.5 92.5905 321.211 78.7744 346.097H890.468L845.751 177.75L743.251 212.75L580.751 215.25L544.501 204L492.001 155.25L433.251 210.25L394.501 215.25L242.001 206.5L137.001 181.5Z" fill="#510774"/>
<path d="M293.25 572.75C293.25 572.75 183.895 574.435 146.637 582.952C132.443 579.847 102.193 573.637 94.7418 573.637C87.2902 573.637 147.524 453.879 178.572 394L733.452 374.04L905.105 504.443L867.847 598.919C827.04 576.298 694.081 550.944 684.5 547.75L548.25 634L532 684L509.5 711.5H478.25L453.25 676.5L438.25 634L293.25 572.75Z" fill="#510774"/>
<path d="M309.5 579L448.694 425.935L496.597 413.959V236.984L267.726 292.871L138.25 181.5L23.25 347.75L41.5162 529.726L56.1533 597.588L28.2097 688.072L334.258 946.5L459.5 806.5L453.25 704L345.75 761.5L260.75 690.25L214.5 589L309.5 579Z" fill="#510774"/>
<path d="M647 565.25L539.177 425.935L491.274 413.959V236.984L720.145 292.871L844.5 177.75L977 342.75L946.355 529.726L931.718 597.588L959.661 688.072L660.75 942.75L535.75 807.75L539.5 699L639.5 759L742 674L783.25 594L647 565.25Z" fill="#510774"/>
<path d="M472.06 178.508C478.66 160.67 503.891 160.67 510.492 178.508L571.016 342.073C573.092 347.682 577.513 352.103 583.122 354.179L746.687 414.703C764.526 421.304 764.526 446.535 746.687 453.136L583.122 513.66C577.513 515.735 573.092 520.157 571.016 525.766L510.492 689.331C503.891 707.169 478.66 707.169 472.06 689.331L411.535 525.766C409.46 520.157 405.038 515.735 399.429 513.66L235.864 453.136C218.026 446.535 218.026 421.304 235.864 414.703L399.429 354.179C405.038 352.103 409.46 347.682 411.535 342.073L472.06 178.508Z" fill="#510774"/>
<path d="M491.276 215.861L550.171 375.024L709.335 433.92L550.171 492.816L491.276 651.979L432.38 492.816L273.216 433.92L432.38 375.024L491.276 215.861Z" fill="#510774"/>
<path d="M490.296 430.405L272.236 433.786L431.977 374.622L490.296 430.405L491.141 214.881L550.304 374.622L490.296 430.405L710.045 433.786L550.304 492.949L490.296 430.405L491.141 652.69L431.977 492.949L490.296 430.405Z" fill="#510774"/>
<circle cx="484.501" cy="377.75" r="63.75" fill="#D9D9D9"/>
<path d="M154.501 207.75C154.501 207.75 118.73 335.623 105.751 359H868.251L840.751 207.75L752.001 236.5H587.001L482.001 227.75L408.251 236.5H253.251L154.501 207.75Z" fill="#8D0FC9"/>
<path d="M318.252 552.75C318.252 552.75 204.502 573.5 169.502 581.5C156.169 578.583 127.752 572.75 120.752 572.75C113.752 572.75 170.336 460.25 199.502 404L720.752 385.25L882.002 507.75L847.002 596.5C808.669 575.25 666.002 548.25 657.002 545.25L492.002 642.75L318.252 552.75Z" fill="#8D0FC9"/>
<path d="M264.501 490.25L453.251 434L498.251 422.75V256.5L242.001 315.25L154.465 205.25L44.4648 352.75L70.7515 531.5L84.5015 595.25L58.2515 680.25L328.251 907.75L437.001 801.5V726.5L345.751 786.5L250.751 702.75L175.751 577.75L264.501 490.25Z" fill="#B10DFF"/>
<path d="M732.001 489L543.251 432.75L498.251 421.5V255.25L753.251 309L842.038 204L952.038 351.5L925.751 530.25L912.001 594L938.251 679L668.251 906.5L559.501 800.25V725.25L650.751 785.25L745.751 701.5L820.751 576.5L732.001 489Z" fill="#B10DFF"/>
<path d="M264.501 416.5L94.501 506.5L67.001 354L160.751 241.5L204.501 332.75L774.501 344L838.251 241.5L922.001 344L885.751 506.5L739.501 424L264.501 416.5Z" fill="#C54AFF"/>
<path d="M475.2 201.568C481.4 184.811 505.102 184.811 511.302 201.568L568.159 355.22C570.108 360.489 574.262 364.643 579.531 366.592L733.183 423.449C749.94 429.649 749.94 453.351 733.183 459.552L579.531 516.408C574.262 518.357 570.108 522.511 568.159 527.78L511.302 681.432C505.102 698.189 481.4 698.189 475.2 681.432L418.343 527.78C416.394 522.511 412.24 518.357 406.971 516.408L253.319 459.552C236.562 453.351 236.562 429.649 253.319 423.449L406.971 366.592C412.24 364.643 416.394 360.489 418.343 355.22L475.2 201.568Z" fill="#B10DFF"/>
<path d="M493.251 236.657L548.577 386.174L698.094 441.5L548.577 496.827L493.251 646.344L437.925 496.827L288.407 441.5L437.925 386.174L493.251 236.657Z" fill="#DC93FF"/>
<path d="M492.331 438.199L287.487 441.375L437.547 385.797L492.331 438.199L493.125 235.737L548.703 385.797L492.331 438.199L698.762 441.375L548.703 496.953L492.331 438.199L493.125 647.012L437.547 496.953L492.331 438.199Z" fill="#BF67E9"/>
<path d="M388.25 812.75L438.25 726.5V800.25L328.25 907.75L58.25 681.5L84.5 595.25L68.25 519L114.5 581.5C123.25 611.917 141.75 673.5 145.75 676.5C149.75 679.5 254.083 783.583 305.75 835.25L388.25 812.75Z" fill="#8D0FC9"/>
<path d="M608.25 812.75L559.5 725.25L558.25 800.25L668.25 906.5L938.25 681.5L912 595.25L927 524L882 581.5C873.25 611.917 854.75 673.5 850.75 676.5C846.75 679.5 742.417 783.583 690.75 835.25L608.25 812.75Z" fill="#8D0FC9"/>
<circle cx="481.96" cy="366.056" r="67.8629" fill="#510774"/>
<path d="M137.001 181.5C137.001 181.5 92.5905 321.211 78.7744 346.097H890.468L845.751 177.75L743.251 212.75L580.751 215.25L544.501 204L492.001 155.25L433.251 210.25L394.501 215.25L242.001 206.5L137.001 181.5Z" fill="#510774"/>
<path d="M293.25 572.75C293.25 572.75 183.895 574.435 146.637 582.952C132.443 579.847 102.193 573.637 94.7418 573.637C87.2902 573.637 147.524 453.879 178.572 394L733.452 374.04L905.105 504.443L867.847 598.919C827.04 576.298 694.081 550.944 684.5 547.75L548.25 634L532 684L509.5 711.5H478.25L453.25 676.5L438.25 634L293.25 572.75Z" fill="#510774"/>
<path d="M309.5 579L448.694 425.935L496.597 413.959V236.984L267.726 292.871L138.25 181.5L23.25 347.75L41.5162 529.726L56.1533 597.588L28.2097 688.072L334.258 946.5L459.5 806.5L453.25 704L345.75 761.5L260.75 690.25L214.5 589L309.5 579Z" fill="#510774"/>
<path d="M647 565.25L539.177 425.935L491.274 413.959V236.984L720.145 292.871L844.5 177.75L977 342.75L946.355 529.726L931.718 597.588L959.661 688.072L660.75 942.75L535.75 807.75L539.5 699L639.5 759L742 674L783.25 594L647 565.25Z" fill="#510774"/>
<path d="M472.06 178.508C478.66 160.67 503.891 160.67 510.492 178.508L571.016 342.073C573.092 347.682 577.513 352.103 583.122 354.179L746.687 414.703C764.526 421.304 764.526 446.535 746.687 453.136L583.122 513.66C577.513 515.735 573.092 520.157 571.016 525.766L510.492 689.331C503.891 707.169 478.66 707.169 472.06 689.331L411.535 525.766C409.46 520.157 405.038 515.735 399.429 513.66L235.864 453.136C218.026 446.535 218.026 421.304 235.864 414.703L399.429 354.179C405.038 352.103 409.46 347.682 411.535 342.073L472.06 178.508Z" fill="#510774"/>
<path d="M491.276 215.861L550.171 375.024L709.335 433.92L550.171 492.816L491.276 651.979L432.38 492.816L273.216 433.92L432.38 375.024L491.276 215.861Z" fill="#510774"/>
<path d="M490.296 430.405L272.236 433.786L431.977 374.622L490.296 430.405L491.141 214.881L550.304 374.622L490.296 430.405L710.045 433.786L550.304 492.949L490.296 430.405L491.141 652.69L431.977 492.949L490.296 430.405Z" fill="#510774"/>
<circle cx="484.501" cy="377.75" r="63.75" fill="#D9D9D9"/>
<path d="M154.501 207.75C154.501 207.75 118.73 335.623 105.751 359H868.251L840.751 207.75L752.001 236.5H587.001L482.001 227.75L408.251 236.5H253.251L154.501 207.75Z" fill="#8D0FC9"/>
<path d="M318.252 552.75C318.252 552.75 204.502 573.5 169.502 581.5C156.169 578.583 127.752 572.75 120.752 572.75C113.752 572.75 170.336 460.25 199.502 404L720.752 385.25L882.002 507.75L847.002 596.5C808.669 575.25 666.002 548.25 657.002 545.25L492.002 642.75L318.252 552.75Z" fill="#8D0FC9"/>
<path d="M264.501 490.25L453.251 434L498.251 422.75V256.5L242.001 315.25L154.465 205.25L44.4648 352.75L70.7515 531.5L84.5015 595.25L58.2515 680.25L328.251 907.75L437.001 801.5V726.5L345.751 786.5L250.751 702.75L175.751 577.75L264.501 490.25Z" fill="#B10DFF"/>
<path d="M732.001 489L543.251 432.75L498.251 421.5V255.25L753.251 309L842.038 204L952.038 351.5L925.751 530.25L912.001 594L938.251 679L668.251 906.5L559.501 800.25V725.25L650.751 785.25L745.751 701.5L820.751 576.5L732.001 489Z" fill="#B10DFF"/>
<path d="M264.501 416.5L94.501 506.5L67.001 354L160.751 241.5L204.501 332.75L774.501 344L838.251 241.5L922.001 344L885.751 506.5L739.501 424L264.501 416.5Z" fill="#C54AFF"/>
<path d="M475.2 201.568C481.4 184.811 505.102 184.811 511.302 201.568L568.159 355.22C570.108 360.489 574.262 364.643 579.531 366.592L733.183 423.449C749.94 429.649 749.94 453.351 733.183 459.552L579.531 516.408C574.262 518.357 570.108 522.511 568.159 527.78L511.302 681.432C505.102 698.189 481.4 698.189 475.2 681.432L418.343 527.78C416.394 522.511 412.24 518.357 406.971 516.408L253.319 459.552C236.562 453.351 236.562 429.649 253.319 423.449L406.971 366.592C412.24 364.643 416.394 360.489 418.343 355.22L475.2 201.568Z" fill="#B10DFF"/>
<path d="M493.251 236.657L548.577 386.174L698.094 441.5L548.577 496.827L493.251 646.344L437.925 496.827L288.407 441.5L437.925 386.174L493.251 236.657Z" fill="#DC93FF"/>
<path d="M492.331 438.199L287.487 441.375L437.547 385.797L492.331 438.199L493.125 235.737L548.703 385.797L492.331 438.199L698.762 441.375L548.703 496.953L492.331 438.199L493.125 647.012L437.547 496.953L492.331 438.199Z" fill="#BF67E9"/>
<path d="M388.25 812.75L438.25 726.5V800.25L328.25 907.75L58.25 681.5L84.5 595.25L68.25 519L114.5 581.5C123.25 611.917 141.75 673.5 145.75 676.5C149.75 679.5 254.083 783.583 305.75 835.25L388.25 812.75Z" fill="#8D0FC9"/>
<path d="M608.25 812.75L559.5 725.25L558.25 800.25L668.25 906.5L938.25 681.5L912 595.25L927 524L882 581.5C873.25 611.917 854.75 673.5 850.75 676.5C846.75 679.5 742.417 783.583 690.75 835.25L608.25 812.75Z" fill="#8D0FC9"/>
</svg>
