<svg width="501" height="501" viewBox="0 0 501 501" fill="none" xmlns="http://www.w3.org/2000/svg">
<g clip-path="url(#clip0_349_21)">
<path d="M235.384 63.5778C240.842 48.7527 261.809 48.7527 267.268 63.5778L285.913 114.221C287.626 118.874 291.286 122.546 295.933 124.274L346.562 143.104C361.317 148.592 361.317 169.462 346.562 174.949L295.933 193.779C291.286 195.507 287.626 199.179 285.913 203.832L267.268 254.475C261.809 269.3 240.842 269.3 235.384 254.475L216.739 203.832C215.026 199.179 211.365 195.507 206.718 193.779L156.089 174.949C141.334 169.462 141.334 148.592 156.089 143.104L206.718 124.274C211.365 122.546 215.026 118.874 216.739 114.221L235.384 63.5778Z" fill="#6C2A8B"/>
<path d="M327.923 156.507C333.44 141.822 354.211 141.822 359.728 156.507L378.743 207.118C380.487 211.759 384.171 215.407 388.829 217.105L439.482 235.566C454.377 240.994 454.377 262.059 439.482 267.488L388.829 285.949C384.171 287.646 380.487 291.294 378.743 295.935L359.728 346.546C354.211 361.231 333.44 361.231 327.923 346.546L308.908 295.935C307.165 291.294 303.481 287.646 298.823 285.949L248.169 267.488C233.275 262.059 233.275 240.994 248.169 235.566L298.823 217.105C303.481 215.407 307.165 211.759 308.908 207.118L327.923 156.507Z" fill="#6C2A8B"/>
<path d="M141.521 156.507C147.038 141.822 167.81 141.822 173.327 156.507L192.341 207.118C194.085 211.759 197.769 215.407 202.427 217.105L253.08 235.566C267.975 240.994 267.975 262.059 253.08 267.488L202.427 285.949C197.769 287.646 194.085 291.294 192.341 295.935L173.327 346.546C167.81 361.231 147.038 361.231 141.521 346.546L122.507 295.935C120.763 291.294 117.079 287.646 112.421 285.949L61.7676 267.488C46.873 262.059 46.873 240.994 61.7677 235.566L112.421 217.105C117.079 215.407 120.763 211.759 122.507 207.118L141.521 156.507Z" fill="#6C2A8B"/>
<path d="M234.693 246.931C240.165 232.141 261.084 232.141 266.557 246.931L285.389 297.824C287.11 302.474 290.776 306.14 295.426 307.861L346.318 326.693C361.109 332.166 361.109 353.085 346.318 358.557L295.426 377.389C290.776 379.11 287.11 382.776 285.389 387.426L266.557 438.319C261.084 453.109 240.165 453.109 234.693 438.319L215.861 387.426C214.14 382.776 210.474 379.11 205.824 377.389L154.931 358.557C140.141 353.085 140.141 332.166 154.931 326.693L205.824 307.861C210.474 306.14 214.14 302.474 215.861 297.824L234.693 246.931Z" fill="#6C2A8B"/>
<path d="M227.179 27.2376C235.233 5.47214 266.017 5.47219 274.071 27.2376L323.949 162.03C326.481 168.873 331.877 174.269 338.72 176.801L473.512 226.679C495.278 234.733 495.278 265.517 473.512 273.571L338.72 323.449C331.877 325.981 326.481 331.377 323.949 338.22L274.071 473.012C266.017 494.778 235.233 494.778 227.179 473.012L177.301 338.22C174.769 331.377 169.373 325.981 162.53 323.449L27.7376 273.571C5.97214 265.517 5.97219 234.733 27.7376 226.679L162.53 176.801C169.373 174.269 174.769 168.873 177.301 162.03L227.179 27.2376Z" fill="#6C2A8B"/>
<path d="M217.397 129.735C224.719 109.948 252.705 109.948 260.027 129.735L285.62 198.899C287.922 205.12 292.827 210.025 299.048 212.327L368.212 237.92C387.999 245.242 387.999 273.228 368.212 280.55L299.048 306.143C292.827 308.445 287.922 313.35 285.62 319.57L260.027 388.735C252.705 408.522 224.719 408.522 217.397 388.735L191.804 319.57C189.502 313.35 184.597 308.445 178.377 306.143L109.212 280.55C89.4254 273.228 89.4255 245.242 109.212 237.92L178.377 212.327C184.597 210.025 189.502 205.12 191.804 198.899L217.397 129.735Z" fill="#580850"/>
<path d="M218.827 190.688C226.192 171.005 254.035 171.005 261.4 190.688L270.709 215.569C273.033 221.781 277.956 226.668 284.185 228.947L308.627 237.892C328.517 245.17 328.517 273.3 308.627 280.578L284.185 289.523C277.956 291.802 273.033 296.689 270.709 302.901L261.4 327.782C254.035 347.465 226.192 347.465 218.827 327.782L209.518 302.901C207.194 296.689 202.271 291.802 196.042 289.523L171.6 280.578C151.71 273.3 151.71 245.17 171.6 237.892L196.042 228.947C202.271 226.668 207.194 221.781 209.518 215.569L218.827 190.688Z" fill="#580850"/>
<path d="M234.693 86.2244C240.166 71.4343 261.085 71.4343 266.557 86.2244L282.327 128.84C284.047 133.49 287.714 137.156 292.363 138.877L334.979 154.646C349.769 160.119 349.769 181.038 334.979 186.511L292.364 202.28C287.714 204.001 284.047 207.667 282.327 212.317L266.557 254.933C261.085 269.723 240.166 269.723 234.693 254.933L218.924 212.317C217.203 207.667 213.537 204.001 208.887 202.28L166.271 186.511C151.481 181.038 151.481 160.119 166.271 154.646L208.887 138.877C213.537 137.156 217.203 133.49 218.924 128.84L234.693 86.2244Z" fill="#8D0FC9"/>
<path d="M314.537 166.068C320.01 151.278 340.928 151.278 346.401 166.068L362.171 208.684C363.891 213.334 367.557 217 372.207 218.721L414.823 234.49C429.613 239.963 429.613 260.882 414.823 266.355L372.207 282.124C367.557 283.845 363.891 287.511 362.171 292.161L346.401 334.777C340.928 349.567 320.01 349.567 314.537 334.777L298.767 292.161C297.047 287.511 293.381 283.845 288.731 282.124L246.115 266.355C231.325 260.882 231.325 239.963 246.115 234.49L288.731 218.721C293.381 217 297.047 213.334 298.767 208.684L314.537 166.068Z" fill="#8D0FC9"/>
<path d="M153.15 166.068C158.623 151.278 179.542 151.278 185.015 166.068L200.784 208.684C202.505 213.334 206.171 217 210.821 218.721L253.437 234.49C268.227 239.963 268.227 260.882 253.437 266.355L210.821 282.124C206.171 283.845 202.505 287.511 200.784 292.161L185.015 334.777C179.542 349.567 158.623 349.567 153.15 334.777L137.381 292.161C135.66 287.511 131.994 283.845 127.344 282.124L84.7283 266.355C69.9382 260.882 69.9382 239.963 84.7283 234.49L127.344 218.721C131.994 217 135.66 213.334 137.381 208.684L153.15 166.068Z" fill="#8D0FC9"/>
<path d="M234.693 249.31C240.166 234.52 261.085 234.52 266.557 249.31L282.327 291.926C284.047 296.576 287.714 300.242 292.363 301.962L334.979 317.732C349.769 323.205 349.769 344.123 334.979 349.596L292.364 365.365C287.714 367.086 284.047 370.752 282.327 375.402L266.557 418.018C261.085 432.808 240.166 432.808 234.693 418.018L218.924 375.402C217.203 370.752 213.537 367.086 208.887 365.365L166.271 349.596C151.481 344.123 151.481 323.205 166.271 317.732L208.887 301.962C213.537 300.242 217.203 296.576 218.924 291.926L234.693 249.31Z" fill="#8D0FC9"/>
<path d="M234.693 36.959C240.166 22.1689 261.085 22.1689 266.558 36.959L316.739 172.573C318.46 177.223 322.126 180.889 326.776 182.61L462.39 232.791C477.18 238.264 477.18 259.183 462.39 264.656L326.776 314.838C322.126 316.558 318.46 320.224 316.739 324.874L266.558 460.488C261.085 475.278 240.166 475.278 234.693 460.488L184.511 324.874C182.791 320.224 179.124 316.558 174.474 314.838L38.8607 264.656C24.0705 259.183 24.0705 238.264 38.8606 232.791L174.474 182.61C179.124 180.889 182.791 177.223 184.511 172.573L234.693 36.959Z" fill="#B10DFF"/>
<path d="M250.625 67.9284L299.456 199.893L431.421 248.724L299.456 297.555L250.625 429.519L201.794 297.555L69.8297 248.724L201.794 199.893L250.625 67.9284Z" fill="#DC93FF"/>
<path d="M249.924 245.92L69.1289 248.724L201.572 199.67L249.924 245.92L250.625 67.2273L299.678 199.67L249.924 245.92L432.121 248.724L299.678 297.777L249.924 245.92L250.625 430.22L201.572 297.777L249.924 245.92Z" fill="#BF67E9"/>
<path d="M49.3752 288.875C39.8752 287.875 16.6669 266.792 6.25019 256.375C-4.74981 246.072 10.8335 223.749 20.0002 213.875C50.6252 204.708 112.375 184.875 114.375 178.875C116.375 172.875 120.209 150.542 121.875 140.125L165 117L224.375 -1.75L275 5.125L298.125 41.375L315 107C327.084 114.708 355.875 133.125 374.375 145.125C392.875 157.125 385.833 177.625 380 186.375C371.667 182.625 354.25 175.125 351.25 175.125C348.25 175.125 331.25 190.542 323.125 198.25H298.125L288.75 220.125L251.875 241.375C244.167 244.5 227.875 251.875 224.375 256.375C220.875 260.875 196.667 274.5 185 280.75C174.167 285.333 149.375 294.625 136.875 295.125C124.375 295.625 126.667 291.167 129.375 288.875L101.875 280.75C88.3335 283.875 58.8752 289.875 49.3752 288.875Z" fill="#DFE9F8" stroke="#CFD1FF" stroke-width="22.5"/>
</g>
<defs>
<clipPath id="clip0_349_21">
<rect width="500" height="500" fill="white" transform="translate(0.625 0.125)"/>
</clipPath>
</defs>
</svg>
