<svg width="1000" height="1000" viewBox="0 0 1000 1000" fill="none" xmlns="http://www.w3.org/2000/svg">
<g clip-path="url(#clip0_638_70671)">
<path d="M523.096 171.39C522.026 174.748 520.225 178.92 517.929 183.956C374.849 182.026 241.501 286.244 200.177 440.467C157.659 599.144 225.993 760.756 358.128 827.349L358.153 829.522C358.205 833.98 359.398 838.351 361.618 842.217L385.262 883.406C392.212 895.513 407.455 900.013 419.866 893.623L462.867 871.483C469.082 868.283 473.069 863.129 475.341 858.007C621.797 864.571 759.932 759.203 802.12 601.758C844.905 442.081 775.432 279.414 641.649 213.622L641.452 196.801C641.4 192.343 640.207 187.972 637.988 184.105L614.343 142.917C607.393 130.81 592.151 126.309 579.739 132.7L536.738 154.84C529.273 158.683 525.021 165.345 523.096 171.39Z" fill="#524A30" stroke="#645830" stroke-width="32.5213"/>
<path d="M837.373 611.203C882.032 444.533 815.461 271.66 677.891 191.655L677.835 186.871C677.783 182.413 676.59 178.042 674.37 174.176L628.636 94.5071C621.686 82.4003 606.444 77.8998 594.032 84.2901L503.803 130.746C496.892 134.305 491.947 140.744 490.267 148.287C340.183 159.15 207.49 272.162 164.924 431.021C120.274 597.656 186.796 770.456 324.289 850.499C324.293 850.505 324.296 850.51 324.299 850.516L370.969 931.814C377.919 943.921 393.161 948.422 405.573 942.031L497.556 894.672C653.493 890.318 793.461 775.082 837.373 611.203ZM390.652 827.472L390.601 823.122C390.482 812.939 384.494 804.053 375.753 799.789C256.912 741.821 192.292 595.545 231.59 448.884C269.907 305.884 393.648 212.55 522.078 216.576C531.799 216.881 541.058 211.441 545.287 202.299L530.53 195.473L531.875 196.09L545.289 202.295L545.307 202.255L545.309 202.25L545.561 201.707C548.307 195.773 551.49 188.894 553.594 182.739L589.185 164.414L608.953 198.849L609.176 217.89C609.296 228.171 615.397 237.12 624.261 241.336C744.555 298.544 810.256 445.738 770.706 593.34C731.627 739.187 603.726 833.331 472.587 825.294C462.1 824.651 450.755 830.43 446.544 842.066C446.362 842.569 446.184 843.075 446.01 843.583L410.42 861.907L390.652 827.472ZM447.98 842.568L447.96 842.579C447.967 842.575 447.974 842.572 447.98 842.568Z" fill="#635A3A" stroke="#645830" stroke-width="32.5213"/>
<path d="M679.002 93.6274C661.002 78.4237 631.229 53.3746 614.927 39.9582C600.339 27.9519 578.695 35.1247 574.508 53.8043C544.925 185.779 501.688 377.866 465.181 538.302C446.927 618.524 430.361 690.808 418.028 743.7C411.86 770.153 406.76 791.712 403.042 806.975C401.18 814.617 399.682 820.61 398.577 824.824C398.021 826.943 397.59 828.515 397.279 829.583C397.206 829.833 397.146 830.031 397.099 830.183C395.578 833.299 393.016 838.736 389.754 845.659C380.666 864.943 366.143 895.758 353.559 920.084C344.313 937.955 357.839 959.919 378.603 958.563L432.851 955.019C435.72 954.832 438.537 954.172 441.191 953.067L509.37 924.667C511.956 923.59 514.352 922.104 516.466 920.265L593.975 852.855C598.057 849.305 600.936 844.575 602.213 839.318L742.396 262.566C743.677 257.293 743.285 251.752 741.272 246.712L700.406 144.378L686.828 105.049C685.299 100.62 682.607 96.6723 679.002 93.6274Z" fill="#635A3A" stroke="#645830" stroke-width="32.5213"/>
<path d="M510.66 131.986C509.454 136.011 507.313 141.142 504.616 147.312C364.414 149.361 232.651 265.117 188.563 429.659C143.228 598.849 203.996 769.895 331.596 838.144L331.545 841.447C331.479 845.661 332.434 849.829 334.329 853.594L355.895 896.452C362.675 909.925 379.426 914.87 392.436 907.24L434.549 882.541C440.658 878.958 444.413 873.458 446.363 868.094C589.789 870.892 726.174 753.679 771.166 585.767C816.781 415.528 754.965 243.364 625.715 176.006L626.011 157.023C626.077 152.809 625.122 148.642 623.227 144.877L601.661 102.018C594.881 88.5454 578.13 83.6001 565.12 91.2306L523.007 115.93C516.286 119.872 512.412 126.134 510.66 131.986Z" fill="#C4B276" stroke="#645830" stroke-width="32.5213"/>
<path d="M806.418 595.213C852.985 421.423 796.514 238.568 662.543 155.033L662.643 148.627C662.709 144.413 661.753 140.246 659.859 136.481L616.768 50.8476C609.988 37.3745 593.237 32.4292 580.227 40.0597L490.052 92.9477C483.571 96.7487 479.046 103.154 477.623 110.519C331.32 129.899 197.174 256.509 153.309 420.213C106.529 594.801 163.713 778.433 298.948 861.479L313.712 889.046C314.455 890.434 315.322 891.752 316.303 892.984L349.288 934.414C356.593 943.589 369.12 946.769 379.917 942.189L469.139 904.341C469.325 904.263 469.509 904.181 469.69 904.096C624.239 894.676 760.613 766.159 806.418 595.213ZM512.11 125.648C510.81 125.666 509.421 125.685 507.937 125.702L508.165 124.429C509.427 124.43 510.757 124.438 512.106 124.451C512.093 124.841 512.094 125.24 512.11 125.648ZM491.551 125.83L491.644 125.846L491.551 125.83ZM219.975 438.076C261.709 282.326 385.44 179.411 509.121 179.807C519.01 179.839 528.337 174.121 532.5 164.692L519.027 158.745L532.5 164.692L532.777 164.065C535.753 157.324 539.152 149.626 541.324 142.889L575.68 122.739L593.469 158.09L593.137 179.396C592.975 189.768 598.926 198.91 607.731 203.334C722.008 260.754 782.878 416.401 739.752 577.35C697.136 736.396 569.105 840.244 442.871 835.461C432.389 835.063 421.393 841.035 417.301 852.443C416.976 853.348 416.662 854.259 416.364 855.17L382.555 873.1L364.092 840.011L364.173 834.8C364.333 824.538 358.506 815.467 349.838 810.993C236.953 752.72 177.126 597.993 219.975 438.076Z" fill="#635A3A" stroke="#645830" stroke-width="32.5213"/>
<mask id="path-6-outside-1_638_70671" maskUnits="userSpaceOnUse" x="75.7721" y="22.6239" width="857.419" height="974.799" fill="black">
<rect fill="white" x="75.7721" y="22.6239" width="857.419" height="974.799"/>
<path fill-rule="evenodd" clip-rule="evenodd" d="M531.746 191.618C534.922 184.755 538.043 178.007 539.805 172.475C540.747 169.518 542.639 166.867 545.397 165.447L588.399 143.306C593.082 140.895 598.834 142.593 601.457 147.162L625.101 188.35C625.939 189.81 626.389 191.459 626.409 193.141L626.651 213.85C626.696 217.694 628.989 221.151 632.46 222.802C760.616 283.748 828.978 439.382 787.629 593.699C746.768 746.195 612.481 846.235 472.808 837.675C468.567 837.415 464.496 839.755 463.05 843.751C462.753 844.571 462.479 845.371 462.232 846.147C461.29 849.103 459.398 851.756 456.64 853.176L413.638 875.316C408.954 877.727 403.203 876.029 400.58 871.46L376.936 830.272C376.098 828.813 375.648 827.163 375.628 825.481L375.558 819.463C375.513 815.655 373.263 812.224 369.84 810.555C243.251 748.806 176.012 594.166 217.099 440.826C257.167 291.288 387.072 192.191 523.799 196.474C527.178 196.58 530.327 194.687 531.746 191.618V191.618Z"/>
</mask>
<path fill-rule="evenodd" clip-rule="evenodd" d="M531.746 191.618C534.922 184.755 538.043 178.007 539.805 172.475C540.747 169.518 542.639 166.867 545.397 165.447L588.399 143.306C593.082 140.895 598.834 142.593 601.457 147.162L625.101 188.35C625.939 189.81 626.389 191.459 626.409 193.141L626.651 213.85C626.696 217.694 628.989 221.151 632.46 222.802C760.616 283.748 828.978 439.382 787.629 593.699C746.768 746.195 612.481 846.235 472.808 837.675C468.567 837.415 464.496 839.755 463.05 843.751C462.753 844.571 462.479 845.371 462.232 846.147C461.29 849.103 459.398 851.756 456.64 853.176L413.638 875.316C408.954 877.727 403.203 876.029 400.58 871.46L376.936 830.272C376.098 828.813 375.648 827.163 375.628 825.481L375.558 819.463C375.513 815.655 373.263 812.224 369.84 810.555C243.251 748.806 176.012 594.166 217.099 440.826C257.167 291.288 387.072 192.191 523.799 196.474C527.178 196.58 530.327 194.687 531.746 191.618V191.618Z" fill="#574D2A"/>
<path d="M523.799 196.474L524.941 159.996L523.799 196.474ZM375.558 819.463L339.064 819.89L375.558 819.463ZM376.936 830.272L408.587 812.102L376.936 830.272ZM375.628 825.481L412.122 825.054L375.628 825.481ZM413.638 875.316L430.345 907.764L413.638 875.316ZM400.58 871.46L432.232 853.29L400.58 871.46ZM462.232 846.147L497.006 857.224L462.232 846.147ZM456.64 853.176L439.933 820.728L456.64 853.176ZM472.808 837.675L470.575 874.103L472.808 837.675ZM463.05 843.751L428.732 831.33L463.05 843.751ZM626.651 213.85L663.145 213.423L626.651 213.85ZM632.46 222.802L648.134 189.842L632.46 222.802ZM625.101 188.35L593.449 206.52L625.101 188.35ZM626.409 193.141L589.915 193.569L626.409 193.141ZM588.399 143.306L605.105 175.755L588.399 143.306ZM601.457 147.162L569.805 165.332L601.457 147.162ZM539.805 172.475L574.58 183.551L539.805 172.475ZM545.397 165.447L562.104 197.895L545.397 165.447ZM505.03 161.398C504.114 164.275 502.134 168.704 498.623 176.295L564.87 206.942C567.709 200.806 571.973 191.739 574.58 183.551L505.03 161.398ZM571.692 110.858L528.69 132.998L562.104 197.895L605.105 175.755L571.692 110.858ZM656.753 170.18L633.108 128.992L569.805 165.332L593.449 206.52L656.753 170.18ZM663.145 213.423L662.903 192.714L589.915 193.569L590.157 214.277L663.145 213.423ZM822.882 603.145C868.27 433.756 793.934 259.18 648.134 189.842L616.786 255.761C727.298 308.316 789.687 445.008 752.376 584.253L822.882 603.145ZM470.575 874.103C629.402 883.837 778.022 770.563 822.882 603.145L752.376 584.253C715.513 721.827 595.56 808.633 475.041 801.247L470.575 874.103ZM497.006 857.224C497.09 856.961 497.208 856.613 497.368 856.171L428.732 831.33C428.298 832.529 427.867 833.781 427.457 835.069L497.006 857.224ZM430.345 907.764L473.346 885.624L439.933 820.728L396.931 842.868L430.345 907.764ZM345.284 848.442L368.928 889.63L432.232 853.29L408.587 812.102L345.284 848.442ZM339.064 819.89L339.134 825.908L412.122 825.054L412.052 819.035L339.064 819.89ZM181.846 431.38C136.742 599.712 209.859 773.125 353.84 843.357L385.841 777.752C276.643 724.488 215.282 588.621 252.352 450.272L181.846 431.38ZM524.941 159.996C369.59 155.129 225.847 267.166 181.846 431.38L252.352 450.272C288.488 315.411 404.554 229.253 522.656 232.953L524.941 159.996ZM522.656 232.953C540.275 233.505 557.142 223.647 564.87 206.942L498.623 176.295C503.512 165.726 514.08 159.655 524.941 159.996L522.656 232.953ZM412.052 819.035C411.839 800.919 401.2 785.244 385.841 777.752L353.84 843.357C345.326 839.204 339.187 830.391 339.064 819.89L412.052 819.035ZM408.587 812.102C410.852 816.047 412.069 820.505 412.122 825.054L339.134 825.908C339.227 833.821 341.344 841.579 345.284 848.442L408.587 812.102ZM396.931 842.868C409.593 836.349 425.142 840.94 432.232 853.29L368.928 889.63C381.263 911.118 408.316 919.106 430.345 907.764L396.931 842.868ZM427.457 835.069C428.722 831.098 432.125 824.748 439.933 820.728L473.346 885.624C486.671 878.764 493.858 867.107 497.006 857.224L427.457 835.069ZM475.041 801.247C456.78 800.128 436.384 810.185 428.732 831.33L497.368 856.171C492.607 869.325 480.354 874.702 470.575 874.103L475.041 801.247ZM590.157 214.277C590.371 232.569 601.211 248.354 616.786 255.761L648.134 189.842C656.766 193.947 663.021 202.818 663.145 213.423L590.157 214.277ZM593.449 206.52C591.185 202.576 589.968 198.117 589.915 193.569L662.903 192.714C662.81 184.801 660.693 177.044 656.753 170.18L593.449 206.52ZM605.105 175.755C592.444 182.274 576.894 177.682 569.805 165.332L633.108 128.992C620.773 107.504 593.72 99.5165 571.692 110.858L605.105 175.755ZM574.58 183.551C573.314 187.527 569.908 193.876 562.104 197.895L528.69 132.998C515.369 139.857 508.18 151.51 505.03 161.398L574.58 183.551Z" fill="#8C7E4E" mask="url(#path-6-outside-1_638_70671)"/>
<rect width="19.2146" height="19.2146" rx="1.31793" transform="matrix(0.386546 0.92227 -0.795894 0.605437 706.45 453.976)" fill="#D9D9D9" stroke="#5C4664" stroke-width="26.7641"/>
<path d="M698.634 483.135L706.394 454.172L691.305 465.65L698.634 483.135Z" fill="#E9ACFF"/>
<path d="M698.447 483.084L706.208 454.122L713.91 471.706L698.447 483.084Z" fill="#EFC1FF"/>
<rect width="19.2146" height="19.2146" rx="1.31793" transform="matrix(0.386546 0.92227 -0.795894 0.605437 658.751 632.36)" fill="#D9D9D9" stroke="#5C4664" stroke-width="26.7641"/>
<path d="M650.937 661.517L658.698 632.555L643.609 644.033L650.937 661.517Z" fill="#E9ACFF"/>
<path d="M650.75 661.467L658.51 632.504L666.212 650.089L650.75 661.467Z" fill="#EFC1FF"/>
<path d="M673.429 108.558C649.485 88.3237 600.541 47.1566 596.314 44.3657C538.115 304.115 420.36 826.361 414.93 837.343C409.5 848.325 380.269 912.125 362.324 944.283L436.282 939.452L507.447 909.808L588.527 839.292L730.194 256.431L688.017 150.815L673.429 108.558Z" fill="#645830"/>
<mask id="path-15-outside-2_638_70671" maskUnits="userSpaceOnUse" x="51.1004" y="-37.978" width="864.5" height="1068.15" fill="black">
<rect fill="white" x="51.1004" y="-37.978" width="864.5" height="1068.15"/>
<path fill-rule="evenodd" clip-rule="evenodd" d="M518.884 154.11C523.188 144.358 527.398 134.822 528.58 128.236L583.671 95.9249L611.05 150.334L610.556 182.003C737.263 241.465 801.976 408.642 756.719 577.543C711.902 744.801 574.538 856.675 436.438 847.321C434.098 852.975 432.223 858.149 431.495 862.204L376.404 894.515L349.025 840.107L349.273 824.241C224.163 763.795 160.561 597.675 205.529 429.852C249.334 266.37 381.555 155.8 516.46 159.626C517.258 157.792 518.073 155.947 518.884 154.11Z"/>
</mask>
<path fill-rule="evenodd" clip-rule="evenodd" d="M518.884 154.11C523.188 144.358 527.398 134.822 528.58 128.236L583.671 95.9249L611.05 150.334L610.556 182.003C737.263 241.465 801.976 408.642 756.719 577.543C711.902 744.801 574.538 856.675 436.438 847.321C434.098 852.975 432.223 858.149 431.495 862.204L376.404 894.515L349.025 840.107L349.273 824.241C224.163 763.795 160.561 597.675 205.529 429.852C249.334 266.37 381.555 155.8 516.46 159.626C517.258 157.792 518.073 155.947 518.884 154.11Z" fill="#C4B276"/>
<path d="M528.58 128.236L510.116 96.7544L495.625 105.253L492.657 121.789L528.58 128.236ZM518.884 154.11L552.272 168.849L552.272 168.849L518.884 154.11ZM583.671 95.9249L616.272 79.5195L598.778 44.7539L565.207 64.4435L583.671 95.9249ZM611.05 150.334L647.542 150.903L647.682 141.938L643.651 133.928L611.05 150.334ZM610.556 182.003L574.064 181.434L573.696 205.02L595.051 215.042L610.556 182.003ZM436.438 847.321L438.904 810.908L412.738 809.135L402.713 833.369L436.438 847.321ZM431.495 862.204L449.959 893.686L464.45 885.187L467.417 868.652L431.495 862.204ZM376.404 894.515L343.802 910.921L361.297 945.686L394.868 925.997L376.404 894.515ZM349.025 840.107L312.533 839.537L312.393 848.503L316.424 856.512L349.025 840.107ZM349.273 824.241L385.765 824.81L386.128 801.514L365.149 791.379L349.273 824.241ZM516.46 159.626L515.425 196.108L540.083 196.807L549.926 174.188L516.46 159.626ZM492.657 121.789C492.723 121.423 492.469 122.731 490.932 126.645C489.524 130.231 487.723 134.325 485.495 139.371L552.272 168.849C555.717 161.044 562.355 146.649 564.503 134.683L492.657 121.789ZM565.207 64.4435L510.116 96.7544L547.044 159.717L602.135 127.406L565.207 64.4435ZM643.651 133.928L616.272 79.5195L551.069 112.33L578.448 166.739L643.651 133.928ZM647.048 182.572L647.542 150.903L574.558 149.764L574.064 181.434L647.048 182.572ZM791.972 586.989C840.49 405.916 772.964 217.904 626.061 148.964L595.051 215.042C701.562 265.027 763.461 411.369 721.466 568.097L791.972 586.989ZM433.971 883.734C593.936 894.569 743.908 766.365 791.972 586.989L721.466 568.097C679.896 723.238 555.141 818.781 438.904 810.908L433.971 883.734ZM467.417 868.652C467.336 869.106 467.376 868.7 467.916 867.109C468.42 865.626 469.152 863.713 470.162 861.272L402.713 833.369C400.333 839.121 397.058 847.478 395.572 855.757L467.417 868.652ZM394.868 925.997L449.959 893.686L413.031 830.723L357.94 863.034L394.868 925.997ZM316.424 856.512L343.802 910.921L409.005 878.11L381.627 823.701L316.424 856.512ZM312.78 823.671L312.533 839.537L385.517 840.676L385.765 824.81L312.78 823.671ZM170.276 420.406C122.056 600.365 188.432 787.066 333.396 857.103L365.149 791.379C259.893 740.525 199.066 594.984 240.782 439.298L170.276 420.406ZM517.495 123.144C361.574 118.722 217.292 244.942 170.276 420.406L240.782 439.298C281.376 287.798 401.536 192.878 515.425 196.108L517.495 123.144ZM485.495 139.371C484.691 141.193 483.838 143.126 482.995 145.064L549.926 174.188C550.679 172.457 551.454 170.701 552.272 168.849L485.495 139.371Z" fill="#8C7E4E" mask="url(#path-15-outside-2_638_70671)"/>
<path d="M726.12 603.029C750.859 531.255 755.712 454.122 739.878 384.336C724.045 314.551 688.47 256.273 639.013 219.103C589.556 181.933 529.166 168.087 467.791 179.846C406.416 191.605 347.715 228.267 301.358 283.794L316.341 302.58C358.782 251.745 412.523 218.18 468.713 207.415C524.903 196.649 580.19 209.325 625.468 243.355C670.747 277.385 703.316 330.738 717.812 394.628C732.308 458.518 727.865 529.133 705.216 594.844L726.12 603.029Z" fill="#E0CE8E"/>
<path d="M243.499 409.284C218.884 481.044 213.72 558.045 228.857 627.605C243.995 697.164 278.53 755.133 326.776 791.964C375.022 828.795 434.1 842.291 494.281 830.229C554.461 818.167 612.154 781.267 657.857 725.606L643.281 706.938C601.439 757.896 548.62 791.679 493.524 802.722C438.429 813.764 384.342 801.408 340.172 767.689C296.003 733.97 264.385 680.899 250.526 617.216C236.668 553.534 241.396 483.039 263.931 417.341L243.499 409.284Z" fill="#A3966A"/>
<path d="M419.773 765.536C474.509 780.203 531.046 762.522 577.785 724.594C624.539 686.652 662.474 627.83 681.357 557.356C700.241 486.882 696.799 416.973 675.28 360.737C653.767 304.521 613.645 260.941 558.909 246.275C504.173 231.608 447.636 249.288 400.898 287.217C354.144 325.158 316.209 383.981 297.325 454.455C278.442 524.929 281.883 594.838 303.403 651.073C324.915 707.29 365.038 750.87 419.773 765.536Z" fill="#948657" stroke="#948657" stroke-width="28.5793"/>
<ellipse cx="505.734" cy="506.117" rx="177.389" ry="206.461" transform="rotate(15 505.734 506.117)" fill="#A29361"/>
<ellipse cx="494.78" cy="503.602" rx="159.157" ry="178.867" transform="rotate(15 494.78 503.602)" fill="#95885A"/>
<ellipse cx="487.016" cy="500.772" rx="140.926" ry="160.143" transform="rotate(15 487.016 500.772)" fill="#887D54"/>
<ellipse cx="486.837" cy="502.059" rx="130.085" ry="140.433" transform="rotate(15 486.837 502.059)" fill="#766C4B"/>
<ellipse cx="486.837" cy="502.059" rx="87.0637" ry="93.9892" transform="rotate(15 486.837 502.059)" fill="#9E9162"/>
<ellipse cx="486.837" cy="502.059" rx="87.0637" ry="93.9892" transform="rotate(15 486.837 502.059)" fill="#9E9162"/>
<ellipse cx="486.836" cy="502.059" rx="60.8589" ry="65.6999" transform="rotate(15 486.836 502.059)" fill="#9E9162"/>
<ellipse cx="486.836" cy="502.059" rx="60.8589" ry="65.6999" transform="rotate(15 486.836 502.059)" fill="#C3B276"/>
<mask id="path-26-outside-3_638_70671" maskUnits="userSpaceOnUse" x="308.618" y="201.519" width="301.91" height="574.72" fill="black">
<rect fill="white" x="308.618" y="201.519" width="301.91" height="574.72"/>
<path fill-rule="evenodd" clip-rule="evenodd" d="M399.433 757.834C399.209 758.009 399.049 758.249 398.988 758.5V758.5C398.782 759.349 397.631 759.754 397.166 759.141L376.64 732.138C376.485 731.933 376.37 731.7 376.299 731.446L373.272 720.543C373.2 720.285 373.175 720.008 373.198 719.724L391.619 486.569C391.638 486.323 391.693 486.074 391.781 485.828L474.896 254.406L476.084 249.112C476.254 248.351 476.741 247.625 477.428 247.108L514.426 219.229C514.788 218.957 515.255 219.077 515.172 219.478V219.478C515.146 219.6 515.154 219.805 515.226 219.89L537.83 246.526C538.124 246.872 538.292 247.312 538.317 247.795L539.287 266.948L528.426 489.218C528.412 489.51 528.347 489.809 528.234 490.102L436.821 727.903C436.596 728.487 436.19 729.027 435.663 729.44L399.433 757.834Z"/>
</mask>
<path fill-rule="evenodd" clip-rule="evenodd" d="M399.433 757.834C399.209 758.009 399.049 758.249 398.988 758.5V758.5C398.782 759.349 397.631 759.754 397.166 759.141L376.64 732.138C376.485 731.933 376.37 731.7 376.299 731.446L373.272 720.543C373.2 720.285 373.175 720.008 373.198 719.724L391.619 486.569C391.638 486.323 391.693 486.074 391.781 485.828L474.896 254.406L476.084 249.112C476.254 248.351 476.741 247.625 477.428 247.108L514.426 219.229C514.788 218.957 515.255 219.077 515.172 219.478V219.478C515.146 219.6 515.154 219.805 515.226 219.89L537.83 246.526C538.124 246.872 538.292 247.312 538.317 247.795L539.287 266.948L528.426 489.218C528.412 489.51 528.347 489.809 528.234 490.102L436.821 727.903C436.596 728.487 436.19 729.027 435.663 729.44L399.433 757.834Z" fill="#E9ACFF"/>
<path d="M474.896 254.406L491.296 256.574L491.684 255.495L491.928 254.406H474.896ZM539.287 266.948L556.704 264.144L556.741 263.385L556.703 262.642L539.287 266.948ZM537.83 246.526L523.37 258.544L537.83 246.526ZM538.317 247.795L555.733 243.489L538.317 247.795ZM515.226 219.89L500.766 231.907L515.226 219.89ZM514.426 219.229L523.289 231.403L514.426 219.229ZM477.428 247.108L486.292 259.281L477.428 247.108ZM391.619 486.569L409.005 484.236L391.619 486.569ZM391.781 485.828L408.181 487.996L391.781 485.828ZM373.272 720.543L356.337 727.853L373.272 720.543ZM373.198 719.724L355.812 722.057L373.198 719.724ZM376.64 732.138L391.505 720.625L376.64 732.138ZM376.299 731.446L393.234 724.136L376.299 731.446ZM436.821 727.903L453.073 730.468L436.821 727.903ZM435.663 729.44L426.446 717.538L435.663 729.44ZM399.433 757.834L390.216 745.932L399.433 757.834ZM528.426 489.218L511.01 492.022L528.426 489.218ZM528.234 490.102L544.487 492.667L528.234 490.102ZM397.166 759.141L412.031 747.629L397.166 759.141ZM361.775 743.65L382.3 770.654L412.031 747.629L391.505 720.625L361.775 743.65ZM356.337 727.853L359.364 738.756L393.234 724.136L390.207 713.233L356.337 727.853ZM374.232 488.902L355.812 722.057L390.584 717.391L409.005 484.236L374.232 488.902ZM458.496 252.238L375.381 483.66L408.181 487.996L491.296 256.574L458.496 252.238ZM459.052 249.112L457.865 254.406H491.928L493.116 249.112H459.052ZM505.562 207.056L468.565 234.934L486.292 259.281L523.289 231.403L505.562 207.056ZM552.29 234.509L529.686 207.872L500.766 231.907L523.37 258.544L552.29 234.509ZM556.703 262.642L555.733 243.489L520.901 252.102L521.871 271.255L556.703 262.642ZM545.843 486.414L556.704 264.144L521.871 269.752L511.01 492.022L545.843 486.414ZM453.073 730.468L544.487 492.667L511.982 487.536L420.568 725.338L453.073 730.468ZM408.65 769.736L444.88 741.342L426.446 717.538L390.216 745.932L408.65 769.736ZM523.37 258.544C521.88 256.787 521.025 254.559 520.901 252.102L555.733 243.489C555.559 240.064 554.368 236.958 552.29 234.509L523.37 258.544ZM498.084 219.736C497.684 221.655 497.662 223.351 497.801 224.727C497.897 225.678 498.268 228.963 500.766 231.907L529.686 207.872C531.054 209.485 531.685 211.101 531.984 212.044C532.31 213.07 532.454 213.984 532.523 214.668C532.647 215.891 532.634 217.423 532.259 219.219L498.084 219.736ZM523.289 231.403C518.257 235.195 511.928 236.669 506.619 235.055C500.663 233.245 496.474 227.465 498.084 219.736L532.259 219.219C533.953 211.09 529.572 205.05 523.313 203.147C517.7 201.441 510.957 202.991 505.562 207.056L523.289 231.403ZM493.116 249.112C492.25 252.97 489.778 256.655 486.292 259.281L468.565 234.934C463.705 238.596 460.259 243.732 459.052 249.112H493.116ZM409.005 484.236C408.906 485.483 408.629 486.748 408.181 487.996L375.381 483.66C374.756 485.4 374.37 487.164 374.232 488.902L409.005 484.236ZM390.207 713.233C390.571 714.543 390.698 715.947 390.584 717.391L355.812 722.057C355.653 724.07 355.83 726.026 356.337 727.853L390.207 713.233ZM391.505 720.625C392.293 721.661 392.876 722.846 393.234 724.136L359.364 738.756C359.863 740.554 360.677 742.206 361.775 743.65L391.505 720.625ZM420.568 725.338C421.709 722.37 423.771 719.634 426.446 717.538L444.88 741.342C448.608 738.42 451.483 734.605 453.073 730.468L420.568 725.338ZM415.951 758.795C414.957 762.897 412.349 766.836 408.65 769.736L390.216 745.932C386.069 749.182 383.142 753.601 382.025 758.206L415.951 758.795ZM511.01 492.022C511.082 490.538 511.411 489.024 511.982 487.536L544.487 492.667C545.283 490.594 545.741 488.482 545.843 486.414L511.01 492.022ZM382.025 758.206C385.429 744.17 404.404 737.594 412.031 747.629L382.3 770.654C390.859 781.913 412.136 774.528 415.951 758.795L382.025 758.206Z" fill="#B979D0" mask="url(#path-26-outside-3_638_70671)"/>
<path d="M538.28 247.053L514.793 219.376C481.524 306.155 413.973 482.824 409.929 495.279C405.886 507.733 399.429 676.907 397.476 759.937L436.475 728.801L528.405 489.657L539.288 266.946L538.28 247.053Z" fill="#EFC1FF"/>
<path d="M376.404 731.829L397.449 759.938L432.02 455.536L514.887 218.944L476.35 247.918L474.895 254.405L391.646 486.198L373.162 720.153L376.404 731.829Z" fill="#E9ACFF"/>
<path d="M542.892 179.009L583.144 95.4207L612.926 150.205L611.644 207.21L542.892 179.009Z" fill="#E0CE8E"/>
<rect width="19.2146" height="19.2146" rx="1.31793" transform="matrix(0.386546 0.92227 -0.795894 0.605437 275.868 338.601)" fill="#D9D9D9" stroke="#B979D0" stroke-width="26.7641"/>
<path d="M268.056 367.76L275.816 338.797L260.728 350.275L268.056 367.76Z" fill="#E9ACFF"/>
<path d="M267.869 367.71L275.629 338.747L283.331 356.332L267.869 367.71Z" fill="#EFC1FF"/>
<rect width="19.2146" height="19.2146" rx="1.31793" transform="matrix(0.386546 0.92227 -0.795894 0.605437 228.17 516.986)" fill="#D9D9D9" stroke="#B979D0" stroke-width="26.7641"/>
<path d="M220.358 546.143L228.119 517.181L213.03 528.659L220.358 546.143Z" fill="#E9ACFF"/>
<path d="M220.171 546.093L227.931 517.13L235.633 534.715L220.171 546.093Z" fill="#EFC1FF"/>
<rect width="32.3692" height="32.3692" rx="1.31793" transform="matrix(0.386546 0.92227 -0.795894 0.605437 243.434 415.869)" fill="#D9D9D9" stroke="#B979D0" stroke-width="26.7641"/>
<path d="M230.272 464.991L243.345 416.2L217.927 435.536L230.272 464.991Z" fill="#E9ACFF"/>
<path d="M229.958 464.906L243.031 416.115L256.006 445.739L229.958 464.906Z" fill="#EFC1FF"/>
<rect width="19.2146" height="19.2146" rx="1.31793" transform="matrix(0.386546 0.92227 -0.795894 0.605437 719.109 451.435)" fill="#D9D9D9" stroke="#B979D0" stroke-width="26.7641"/>
<path d="M711.297 480.593L719.057 451.63L703.968 463.108L711.297 480.593Z" fill="#E9ACFF"/>
<path d="M711.11 480.543L718.87 451.58L726.572 469.165L711.11 480.543Z" fill="#EFC1FF"/>
<rect width="19.2146" height="19.2146" rx="1.31793" transform="matrix(0.386546 0.92227 -0.795894 0.605437 671.409 629.819)" fill="#D9D9D9" stroke="#B979D0" stroke-width="26.7641"/>
<path d="M663.597 658.977L671.358 630.015L656.269 641.493L663.597 658.977Z" fill="#E9ACFF"/>
<path d="M663.41 658.927L671.171 629.964L678.873 647.549L663.41 658.927Z" fill="#EFC1FF"/>
<rect width="32.3692" height="32.3692" rx="1.31793" transform="matrix(0.386546 0.92227 -0.795894 0.605437 723.663 537.642)" fill="#D9D9D9" stroke="#B979D0" stroke-width="26.7641"/>
<path d="M710.5 586.763L723.574 537.972L698.155 557.308L710.5 586.763Z" fill="#E9ACFF"/>
<path d="M710.186 586.679L723.26 537.888L736.234 567.512L710.186 586.679Z" fill="#EFC1FF"/>
</g>
<defs>
<clipPath id="clip0_638_70671">
<rect width="1000" height="1000" fill="white"/>
</clipPath>
</defs>
</svg>
