<svg width="501" height="501" viewBox="0 0 501 501" fill="none" xmlns="http://www.w3.org/2000/svg">
<path d="M49.9263 87.6242C47.5124 62.1058 46.8228 11.4829 46.8228 9L131.654 40.0359L323.042 274.874L340.629 258.321L345.802 263.494L340.629 288.323C349.595 288.668 368.147 293.289 370.63 292.461C373.113 291.633 377.872 286.254 379.941 284.185L378.907 270.736L377.872 262.46L364.138 246.048L360 240.875L372.414 237.771L398.563 247.976L417.184 279.012L416.15 306.944L380.976 328.669L385.114 356.602L399.597 381.43L421.322 403.156L444.082 407.294L450.289 432.122L455.462 464.193L440.978 476.607L385.114 446.606C382.7 444.537 388.01 429.846 387.183 429.019C386.355 428.191 379.596 414.535 375.803 407.294L345.802 387.638L318.904 380.396C300.282 405.225 274.419 410.604 270.281 411.432C265.108 412.466 236.142 407.294 234.072 405.225C232.417 403.569 222.693 391.086 218.555 383.5L216.336 356.372L220.474 343.957L228.75 337.75C232.888 349.13 238.624 360.74 240.28 364.878C241.935 369.016 248.556 371.775 250.625 373.154L270.281 371.085L281.661 358.671V339.015H256.832V335.911L273.385 321.428L49.9263 87.6242Z" fill="#1B0D0D"/>
<path d="M311.569 336.75L313.508 372.907L346.197 383.586L376.285 403.73L394.31 430.736L419.253 435.226L423.392 410.397L398.563 387.637L381.135 358.921L372.7 318.302L327.157 318.302L311.569 336.75Z" fill="#411C39"/>
<path d="M387.323 443.749L392.411 419.936L415.115 404.338L441 410.453L452.358 462.124L438.909 472.469L387.323 443.749Z" fill="#411C39"/>
<path d="M221.659 382.465L219.634 353.936C220.593 351.15 226.92 346.28 226.875 344.625C226.83 342.97 228.75 349.36 235.108 362.809C236.869 364.141 240.86 374.337 244.418 376.258C246.721 377.501 262.754 376.944 268.213 374.725C275.06 372.814 280.857 366.762 281.662 365.912C282.467 365.063 283.731 360.74 284.765 356.602L284.765 349.36L284.765 335.911C274.29 335.911 262.933 335.866 261.278 335.911C259.624 335.956 311.154 291.084 340.134 265.802L337.763 292.775L355.456 296.433L372.003 295.983L384.187 287.372L383.709 269.791L378.908 258.321L364.722 242.944L374.376 240.875L396.494 251.08L412.013 280.047L412.012 305.91L364.424 331.819L348.14 331.819L327.991 352.03L326.146 362.809L300.283 394.879L268.213 408.328L237.177 401.086L221.659 382.465Z" fill="#411C39"/>
<path d="M316.835 321.428H279.592L55.0991 85.5552V19.3453L126.482 44.174L323.042 283.15L316.835 321.428Z" fill="#B10DFF"/>
<path d="M70.6166 78.3133L66.4785 31.7595L111.998 49.3465L297.178 281.081V297.633L283.73 293.495L70.6166 78.3133Z" fill="#DC93FF"/>
<path d="M335.456 340.049L364.423 330.739L372.699 359.705L389.252 383.5L412.011 407.294L425.46 414.535L419.253 432.122H399.597L395.459 417.639L375.803 391.776L353.043 375.223L323.042 367.982L335.456 340.049Z" fill="#502546"/>
</svg>
