<svg width="1001" height="1001" viewBox="0 0 1001 1001" fill="none" xmlns="http://www.w3.org/2000/svg">
<g clip-path="url(#clip0_170_409)">
<mask id="path-1-outside-1_170_409" maskUnits="userSpaceOnUse" x="167.902" y="166.605" width="816.001" height="816.001" fill="black">
<rect fill="white" x="167.902" y="166.605" width="816.001" height="816.001"/>
<path d="M222.469 191.763C215.489 184.783 204.171 184.783 197.191 191.763L193.269 195.685C186.289 202.665 186.289 213.983 193.269 220.963L929.206 956.9C936.187 963.881 947.504 963.881 954.485 956.9L958.406 952.979C965.387 945.998 965.387 934.681 958.406 927.7L222.469 191.763Z"/>
</mask>
<path d="M222.469 191.763C215.489 184.783 204.171 184.783 197.191 191.763L193.269 195.685C186.289 202.665 186.289 213.983 193.269 220.963L929.206 956.9C936.187 963.881 947.504 963.881 954.485 956.9L958.406 952.979C965.387 945.998 965.387 934.681 958.406 927.7L222.469 191.763Z" fill="#411C39"/>
<path d="M958.406 927.7L964.448 921.659L958.406 927.7ZM929.206 956.9L935.247 950.859L929.206 956.9ZM193.269 195.685L199.311 201.726L193.269 195.685ZM193.269 220.963L187.228 227.005L193.269 220.963ZM197.191 191.763L191.149 185.722L197.191 191.763ZM222.469 191.763L216.428 197.805L222.469 191.763ZM191.149 185.722L187.228 189.643L199.311 201.726L203.232 197.805L191.149 185.722ZM187.228 227.005L923.165 962.942L935.247 950.859L199.311 214.922L187.228 227.005ZM960.526 962.942L964.448 959.02L952.365 946.937L948.443 950.859L960.526 962.942ZM964.448 921.659L228.511 185.722L216.428 197.805L952.365 933.741L964.448 921.659ZM964.448 959.02C974.765 948.703 974.765 931.976 964.448 921.659L952.365 933.741C956.009 937.385 956.009 943.293 952.365 946.937L964.448 959.02ZM923.165 962.942C933.482 973.259 950.209 973.259 960.526 962.942L948.443 950.859C944.799 954.503 938.891 954.503 935.247 950.859L923.165 962.942ZM187.228 189.643C176.911 199.96 176.911 216.688 187.228 227.005L199.311 214.922C195.667 211.278 195.667 205.37 199.311 201.726L187.228 189.643ZM203.232 197.805C206.876 194.161 212.784 194.161 216.428 197.805L228.511 185.722C218.194 175.405 201.466 175.405 191.149 185.722L203.232 197.805Z" fill="#200707" mask="url(#path-1-outside-1_170_409)"/>
<mask id="path-3-outside-2_170_409" maskUnits="userSpaceOnUse" x="-11.9779" y="-12.9207" width="337.997" height="337.997" fill="black">
<rect fill="white" x="-11.9779" y="-12.9207" width="337.997" height="337.997"/>
<path fill-rule="evenodd" clip-rule="evenodd" d="M224.438 172.314L206.726 131.716L40.3711 37.4503C38.3999 36.3333 36.2134 38.5294 37.339 40.4957L132.216 206.226L173.884 224.695L187.034 245.701L202.643 247.516L226.445 252.124L231.1 250.055L264.889 265.032L250.985 233.161L254.638 226.951L248.746 201.414L246.568 186.167L224.438 172.314Z"/>
</mask>
<path fill-rule="evenodd" clip-rule="evenodd" d="M224.438 172.314L206.726 131.716L40.3711 37.4503C38.3999 36.3333 36.2134 38.5294 37.339 40.4957L132.216 206.226L173.884 224.695L187.034 245.701L202.643 247.516L226.445 252.124L231.1 250.055L264.889 265.032L250.985 233.161L254.638 226.951L248.746 201.414L246.568 186.167L224.438 172.314Z" fill="#B10DFF"/>
<path d="M206.726 131.716L214.557 128.299L213.417 125.687L210.938 124.282L206.726 131.716ZM224.438 172.314L216.607 175.73L217.664 178.153L219.905 179.555L224.438 172.314ZM40.3711 37.4503L36.159 44.8837L36.159 44.8837L40.3711 37.4503ZM37.339 40.4957L44.7538 36.251L44.7538 36.251L37.339 40.4957ZM132.216 206.226L124.801 210.471L126.192 212.902L128.753 214.037L132.216 206.226ZM173.884 224.695L181.126 220.161L179.737 217.944L177.346 216.884L173.884 224.695ZM187.034 245.701L179.792 250.234L181.97 253.713L186.047 254.188L187.034 245.701ZM202.643 247.516L204.267 239.128L203.951 239.067L203.63 239.029L202.643 247.516ZM226.445 252.124L224.821 260.512L227.459 261.023L229.915 259.931L226.445 252.124ZM231.1 250.055L234.562 242.244L231.095 240.707L227.63 242.248L231.1 250.055ZM264.889 265.032L261.427 272.843L281.5 281.74L272.72 261.615L264.889 265.032ZM250.985 233.161L243.621 228.829L241.412 232.585L243.154 236.578L250.985 233.161ZM254.638 226.951L262.002 231.283L263.728 228.349L262.963 225.031L254.638 226.951ZM248.746 201.414L240.288 202.622L240.339 202.981L240.421 203.334L248.746 201.414ZM246.568 186.167L255.026 184.959L254.465 181.031L251.101 178.925L246.568 186.167ZM198.895 135.132L216.607 175.73L232.269 168.897L214.557 128.299L198.895 135.132ZM36.159 44.8837L202.514 139.149L210.938 124.282L44.5832 30.017L36.159 44.8837ZM44.7538 36.251C47.9448 41.8249 41.7466 48.0499 36.159 44.8837L44.5832 30.017C35.0531 24.6167 24.482 35.2339 29.9243 44.7405L44.7538 36.251ZM139.63 201.981L44.7538 36.251L29.9243 44.7405L124.801 210.471L139.63 201.981ZM177.346 216.884L135.678 198.415L128.753 214.037L170.422 232.506L177.346 216.884ZM166.642 229.228L179.792 250.234L194.276 241.167L181.126 220.161L166.642 229.228ZM186.047 254.188L201.657 256.003L203.63 239.029L188.021 237.214L186.047 254.188ZM201.019 255.904L224.821 260.512L228.069 243.736L204.267 239.128L201.019 255.904ZM229.915 259.931L234.57 257.862L227.63 242.248L222.975 244.317L229.915 259.931ZM268.351 257.221L234.562 242.244L227.638 257.866L261.427 272.843L268.351 257.221ZM243.154 236.578L257.058 268.448L272.72 261.615L258.816 229.745L243.154 236.578ZM258.349 237.493L262.002 231.283L247.274 222.62L243.621 228.829L258.349 237.493ZM262.963 225.031L257.071 199.493L240.421 203.334L246.313 228.872L262.963 225.031ZM257.204 200.205L255.026 184.959L238.11 187.375L240.288 202.622L257.204 200.205ZM251.101 178.925L228.972 165.072L219.905 179.555L242.034 193.409L251.101 178.925Z" fill="#200707" mask="url(#path-3-outside-2_170_409)"/>
<mask id="path-5-outside-3_170_409" maskUnits="userSpaceOnUse" x="172.531" y="167.13" width="350.725" height="350.725" fill="black">
<rect fill="white" x="172.531" y="167.13" width="350.725" height="350.725"/>
<path d="M388.444 323.502L452.7 450.724L389.851 419.558L326.016 385.929L236.408 314.446L273.16 302.866L226.314 227.504C225.061 225.488 227.41 223.171 229.408 224.452L303.87 272.156L319.981 230.873L388.444 323.502Z"/>
</mask>
<path d="M388.444 323.502L452.7 450.724L389.851 419.558L326.016 385.929L236.408 314.446L273.16 302.866L226.314 227.504C225.061 225.488 227.41 223.171 229.408 224.452L303.87 272.156L319.981 230.873L388.444 323.502Z" fill="#B10DFF"/>
<path d="M452.7 450.724L448.905 458.379L471.897 469.78L460.327 446.872L452.7 450.724ZM388.444 323.502L396.07 319.65L395.744 319.005L395.314 318.423L388.444 323.502ZM236.408 314.446L233.841 306.297L218.537 311.119L231.08 321.125L236.408 314.446ZM326.016 385.929L320.688 392.608L321.319 393.112L322.034 393.488L326.016 385.929ZM226.314 227.504L219.058 232.014L219.058 232.014L226.314 227.504ZM273.16 302.866L275.727 311.015L286.229 307.707L280.416 298.356L273.16 302.866ZM303.87 272.156L299.262 279.35L308.04 284.974L311.83 275.262L303.87 272.156ZM229.408 224.452L234.017 217.258L234.017 217.258L229.408 224.452ZM319.981 230.873L326.852 225.795L317.65 213.345L312.022 227.767L319.981 230.873ZM389.851 419.558L385.869 427.117L385.962 427.166L386.056 427.212L389.851 419.558ZM460.327 446.872L396.07 319.65L380.817 327.353L445.074 454.576L460.327 446.872ZM231.08 321.125L320.688 392.608L331.344 379.25L241.736 307.767L231.08 321.125ZM219.058 232.014L265.904 307.377L280.416 298.356L233.57 222.993L219.058 232.014ZM270.593 294.718L233.841 306.297L238.976 322.595L275.727 311.015L270.593 294.718ZM308.479 264.962L234.017 217.258L224.8 231.646L299.262 279.35L308.479 264.962ZM395.314 318.423L326.852 225.795L313.11 235.952L381.573 328.58L395.314 318.423ZM312.022 227.767L295.911 269.05L311.83 275.262L327.94 233.979L312.022 227.767ZM322.034 393.488L385.869 427.117L393.834 411.999L329.998 378.37L322.034 393.488ZM386.056 427.212L448.905 458.379L456.496 443.07L393.647 411.903L386.056 427.212ZM233.57 222.993C237.123 228.708 230.466 235.276 224.8 231.646L234.017 217.258C224.354 211.066 212.999 222.267 219.058 232.014L233.57 222.993Z" fill="#200707" mask="url(#path-5-outside-3_170_409)"/>
<mask id="path-7-outside-4_170_409" maskUnits="userSpaceOnUse" x="342.097" y="341.737" width="312.541" height="312.541" fill="black">
<rect fill="white" x="342.097" y="341.737" width="312.541" height="312.541"/>
<path d="M531.107 480.261L599.326 599.259L480.762 530.606L379.53 382.533C378.141 380.502 380.585 378.05 382.621 379.433L531.107 480.261Z"/>
</mask>
<path d="M531.107 480.261L599.326 599.259L480.762 530.606L379.53 382.533C378.141 380.502 380.585 378.05 382.621 379.433L531.107 480.261Z" fill="#B10DFF"/>
<path d="M599.326 599.259L595.045 606.653L622.54 622.574L606.738 595.01L599.326 599.259ZM531.107 480.261L538.519 476.012L537.538 474.301L535.907 473.193L531.107 480.261ZM382.621 379.433L377.821 386.501L377.821 386.501L382.621 379.433ZM379.53 382.533L386.583 377.712L386.583 377.712L379.53 382.533ZM480.762 530.606L473.709 535.428L474.803 537.029L476.481 538L480.762 530.606ZM606.738 595.01L538.519 476.012L523.695 484.511L591.914 603.508L606.738 595.01ZM535.907 473.193L387.421 372.364L377.821 386.501L526.307 487.33L535.907 473.193ZM372.477 387.355L473.709 535.428L487.815 525.784L386.583 377.712L372.477 387.355ZM476.481 538L595.045 606.653L603.607 591.865L485.043 523.213L476.481 538ZM387.421 372.364C377.579 365.682 365.763 377.535 372.477 387.355L386.583 377.712C390.52 383.469 383.592 390.419 377.821 386.501L387.421 372.364Z" fill="#200707" mask="url(#path-7-outside-4_170_409)"/>
<mask id="path-9-outside-5_170_409" maskUnits="userSpaceOnUse" x="732.872" y="730.604" width="284.964" height="284.964" fill="black">
<rect fill="white" x="732.872" y="730.604" width="284.964" height="284.964"/>
<path fill-rule="evenodd" clip-rule="evenodd" d="M936.056 894.686L928.82 878.98L772.425 767.224C770.378 765.761 767.854 768.282 769.316 770.331L880.992 926.808L896.1 934.139L925.888 961.751L960.777 975.243L979.606 975.077L979.679 959.529L964.505 923.135L936.056 894.686Z"/>
</mask>
<path fill-rule="evenodd" clip-rule="evenodd" d="M936.056 894.686L928.82 878.98L772.425 767.224C770.378 765.761 767.854 768.282 769.316 770.331L880.992 926.808L896.1 934.139L925.888 961.751L960.777 975.243L979.606 975.077L979.679 959.529L964.505 923.135L936.056 894.686Z" fill="#B10DFF"/>
<path d="M928.82 878.98L936.58 875.405L935.631 873.346L933.787 872.029L928.82 878.98ZM936.056 894.686L928.296 898.261L928.935 899.648L930.015 900.727L936.056 894.686ZM772.425 767.224L767.458 774.175L772.425 767.224ZM769.316 770.331L776.27 765.367L776.27 765.367L769.316 770.331ZM880.992 926.808L874.038 931.771L875.303 933.544L877.262 934.494L880.992 926.808ZM896.1 934.139L901.908 927.873L900.975 927.008L899.83 926.453L896.1 934.139ZM925.888 961.751L920.08 968.017L921.281 969.13L922.807 969.72L925.888 961.751ZM960.777 975.243L957.696 983.211L959.219 983.8L960.852 983.786L960.777 975.243ZM979.606 975.077L979.681 983.621L988.109 983.547L988.149 975.118L979.606 975.077ZM979.679 959.529L988.223 959.57L988.231 957.839L987.565 956.241L979.679 959.529ZM964.505 923.135L972.391 919.847L971.741 918.288L970.546 917.093L964.505 923.135ZM921.06 882.555L928.296 898.261L943.816 891.11L936.58 875.405L921.06 882.555ZM767.458 774.175L923.853 885.932L933.787 872.029L777.392 760.272L767.458 774.175ZM776.27 765.367C780.414 771.173 773.261 778.322 767.458 774.175L777.392 760.272C767.494 753.199 755.294 765.392 762.362 775.294L776.27 765.367ZM887.947 921.845L776.27 765.367L762.362 775.294L874.038 931.771L887.947 921.845ZM899.83 926.453L884.722 919.121L877.262 934.494L892.37 941.826L899.83 926.453ZM890.292 940.405L920.08 968.017L931.697 955.485L901.908 927.873L890.292 940.405ZM922.807 969.72L957.696 983.211L963.859 967.274L928.97 953.782L922.807 969.72ZM960.852 983.786L979.681 983.621L979.531 966.534L960.702 966.699L960.852 983.786ZM988.149 975.118L988.223 959.57L971.136 959.489L971.062 975.037L988.149 975.118ZM987.565 956.241L972.391 919.847L956.619 926.423L971.794 962.817L987.565 956.241ZM970.546 917.093L942.098 888.644L930.015 900.727L958.464 929.176L970.546 917.093Z" fill="#200707" mask="url(#path-9-outside-5_170_409)"/>
<path d="M146.331 196.468L60.4057 57.5889L187.356 155.443L203.747 202.245L198.113 211.226L196.658 220.489L146.331 196.468Z" fill="#C54AFF"/>
<path d="M203.847 201.032L59.9541 57.1388L197.83 144.97L225.403 191.746L215.236 195.22L203.847 201.032Z" fill="#DC93FF"/>
<rect width="41.2951" height="1056.59" rx="20.6476" transform="matrix(-0.707107 0.707107 0.707107 0.707107 223.928 193.221)" fill="#411C39"/>
<rect width="24.2075" height="1033.8" rx="12.1037" transform="matrix(-0.707107 0.707107 0.707107 0.707107 224.935 206.31)" fill="#502546"/>
<path d="M298.942 340.731L237.018 315.055L273.266 302.973L298.942 340.731Z" fill="#C54AFF"/>
<path d="M342.238 297.435L304.48 271.759L320.59 231.483L342.238 297.435Z" fill="#C54AFF"/>
</g>
<defs>
<clipPath id="clip0_170_409">
<rect width="1000" height="1000" fill="white" transform="translate(0.75 0.25)"/>
</clipPath>
</defs>
</svg>
