<svg width="501" height="501" viewBox="0 0 501 501" fill="none" xmlns="http://www.w3.org/2000/svg">
<g clip-path="url(#clip0_135_499)">
<path d="M294.781 72.2953L354.733 34.1733L362.308 104.815L362.847 109.84L367.866 109.247L438.422 100.913L414.596 167.845L412.901 172.606L417.681 174.25L484.865 197.354L434.359 247.32L430.766 250.875L434.359 254.43L484.865 304.396L417.681 327.5L412.901 329.144L414.596 333.905L438.422 400.837L367.866 392.503L362.847 391.91L362.308 396.935L354.733 467.577L294.781 429.455L290.516 426.743L287.85 431.037L250.375 491.396L212.9 431.037L210.234 426.743L205.969 429.455L146.017 467.577L138.442 396.935L137.903 391.91L132.884 392.503L62.3283 400.837L86.1538 333.905L87.8487 329.144L83.0693 327.5L15.8846 304.396L66.3915 254.43L69.9844 250.875L66.3915 247.32L15.8846 197.354L83.0693 174.25L87.8487 172.606L86.1538 167.845L62.3283 100.913L132.884 109.247L137.903 109.84L138.442 104.815L146.017 34.1733L205.969 72.2953L210.234 75.0072L212.9 70.7134L250.375 10.3542L287.85 70.7134L290.516 75.0072L294.781 72.2953Z" fill="#B10DFF" stroke="#4A4242" stroke-width="10"/>
</g>
<defs>
<clipPath id="clip0_135_499">
<rect width="500" height="500" fill="white" transform="translate(0.375 0.875)"/>
</clipPath>
</defs>
</svg>
