<svg width="501" height="501" viewBox="0 0 501 501" fill="none" xmlns="http://www.w3.org/2000/svg">
<g clip-path="url(#clip0_102_48)">
<path d="M235.384 64.3278C240.842 49.5027 261.809 49.5027 267.268 64.3278L285.913 114.971C287.626 119.624 291.286 123.296 295.933 125.024L346.562 143.854C361.317 149.342 361.317 170.212 346.562 175.699L295.933 194.529C291.286 196.257 287.626 199.929 285.913 204.582L267.268 255.225C261.809 270.05 240.842 270.05 235.384 255.225L216.739 204.582C215.026 199.929 211.365 196.257 206.718 194.529L156.089 175.699C141.334 170.212 141.334 149.342 156.089 143.854L206.718 125.024C211.365 123.296 215.026 119.624 216.739 114.971L235.384 64.3278Z" fill="#6C2A8B"/>
<path d="M327.923 157.257C333.44 142.572 354.211 142.572 359.728 157.257L378.743 207.868C380.487 212.509 384.171 216.157 388.829 217.855L439.482 236.316C454.377 241.744 454.377 262.809 439.482 268.238L388.829 286.699C384.171 288.396 380.487 292.044 378.743 296.685L359.728 347.296C354.211 361.981 333.44 361.981 327.923 347.296L308.908 296.685C307.165 292.044 303.481 288.396 298.823 286.699L248.169 268.238C233.275 262.809 233.275 241.744 248.169 236.316L298.823 217.855C303.481 216.157 307.165 212.509 308.908 207.868L327.923 157.257Z" fill="#6C2A8B"/>
<path d="M141.521 157.257C147.038 142.572 167.81 142.572 173.327 157.257L192.341 207.868C194.085 212.509 197.769 216.157 202.427 217.855L253.08 236.316C267.975 241.744 267.975 262.809 253.08 268.238L202.427 286.699C197.769 288.396 194.085 292.044 192.341 296.685L173.327 347.296C167.81 361.981 147.038 361.981 141.521 347.296L122.507 296.685C120.763 292.044 117.079 288.396 112.421 286.699L61.7676 268.238C46.873 262.809 46.873 241.744 61.7677 236.316L112.421 217.855C117.079 216.157 120.763 212.509 122.507 207.868L141.521 157.257Z" fill="#6C2A8B"/>
<path d="M234.693 247.681C240.165 232.891 261.084 232.891 266.557 247.681L285.389 298.574C287.11 303.224 290.776 306.89 295.426 308.611L346.318 327.443C361.109 332.916 361.109 353.835 346.318 359.307L295.426 378.139C290.776 379.86 287.11 383.526 285.389 388.176L266.557 439.069C261.084 453.859 240.165 453.859 234.693 439.069L215.861 388.176C214.14 383.526 210.474 379.86 205.824 378.139L154.931 359.307C140.141 353.835 140.141 332.916 154.931 327.443L205.824 308.611C210.474 306.89 214.14 303.224 215.861 298.574L234.693 247.681Z" fill="#6C2A8B"/>
<path d="M227.179 27.9876C235.233 6.22214 266.017 6.22219 274.071 27.9876L323.949 162.78C326.481 169.623 331.877 175.019 338.72 177.551L473.512 227.429C495.278 235.483 495.278 266.267 473.512 274.321L338.72 324.199C331.877 326.731 326.481 332.127 323.949 338.97L274.071 473.762C266.017 495.528 235.233 495.528 227.179 473.762L177.301 338.97C174.769 332.127 169.373 326.731 162.53 324.199L27.7376 274.321C5.97214 266.267 5.97219 235.483 27.7376 227.429L162.53 177.551C169.373 175.019 174.769 169.623 177.301 162.78L227.179 27.9876Z" fill="#6C2A8B"/>
<path d="M217.397 130.485C224.719 110.698 252.705 110.698 260.027 130.485L285.62 199.649C287.922 205.87 292.827 210.775 299.048 213.077L368.212 238.67C387.999 245.992 387.999 273.978 368.212 281.3L299.048 306.893C292.827 309.195 287.922 314.1 285.62 320.32L260.027 389.485C252.705 409.272 224.719 409.272 217.397 389.485L191.804 320.32C189.502 314.1 184.597 309.195 178.377 306.893L109.212 281.3C89.4254 273.978 89.4255 245.992 109.212 238.67L178.377 213.077C184.597 210.775 189.502 205.87 191.804 199.649L217.397 130.485Z" fill="#580850"/>
<path d="M218.827 191.438C226.192 171.755 254.035 171.755 261.4 191.438L270.709 216.319C273.033 222.531 277.956 227.418 284.185 229.697L308.627 238.642C328.517 245.92 328.517 274.05 308.627 281.328L284.185 290.273C277.956 292.552 273.033 297.439 270.709 303.651L261.4 328.532C254.035 348.215 226.192 348.215 218.827 328.532L209.518 303.651C207.194 297.439 202.271 292.552 196.042 290.273L171.6 281.328C151.71 274.05 151.71 245.92 171.6 238.642L196.042 229.697C202.271 227.418 207.194 222.531 209.518 216.319L218.827 191.438Z" fill="#580850"/>
<path d="M234.693 86.9749C240.166 72.1848 261.085 72.1848 266.557 86.9749L282.327 129.591C284.047 134.241 287.714 137.907 292.363 139.627L334.979 155.397C349.769 160.87 349.769 181.788 334.979 187.261L292.364 203.031C287.714 204.751 284.047 208.417 282.327 213.067L266.557 255.683C261.085 270.473 240.166 270.473 234.693 255.683L218.924 213.067C217.203 208.417 213.537 204.751 208.887 203.031L166.271 187.261C151.481 181.788 151.481 160.87 166.271 155.397L208.887 139.627C213.537 137.907 217.203 134.241 218.924 129.591L234.693 86.9749Z" fill="#8D0FC9"/>
<path d="M314.537 166.819C320.01 152.029 340.928 152.029 346.401 166.819L362.171 209.435C363.891 214.085 367.557 217.751 372.207 219.471L414.823 235.241C429.613 240.713 429.613 261.632 414.823 267.105L372.207 282.874C367.557 284.595 363.891 288.261 362.171 292.911L346.401 335.527C340.928 350.317 320.01 350.317 314.537 335.527L298.767 292.911C297.047 288.261 293.381 284.595 288.731 282.874L246.115 267.105C231.325 261.632 231.325 240.713 246.115 235.241L288.731 219.471C293.381 217.751 297.047 214.085 298.767 209.435L314.537 166.819Z" fill="#8D0FC9"/>
<path d="M153.15 166.819C158.623 152.029 179.542 152.029 185.015 166.819L200.784 209.435C202.505 214.085 206.171 217.751 210.821 219.471L253.437 235.241C268.227 240.713 268.227 261.632 253.437 267.105L210.821 282.874C206.171 284.595 202.505 288.261 200.784 292.911L185.015 335.527C179.542 350.317 158.623 350.317 153.15 335.527L137.381 292.911C135.66 288.261 131.994 284.595 127.344 282.874L84.7283 267.105C69.9382 261.632 69.9382 240.713 84.7283 235.241L127.344 219.471C131.994 217.751 135.66 214.085 137.381 209.435L153.15 166.819Z" fill="#8D0FC9"/>
<path d="M234.693 250.06C240.166 235.27 261.085 235.27 266.557 250.06L282.327 292.676C284.047 297.326 287.714 300.992 292.363 302.713L334.979 318.482C349.769 323.955 349.769 344.874 334.979 350.347L292.364 366.116C287.714 367.837 284.047 371.503 282.327 376.153L266.557 418.769C261.085 433.559 240.166 433.559 234.693 418.769L218.924 376.153C217.203 371.503 213.537 367.837 208.887 366.116L166.271 350.347C151.481 344.874 151.481 323.955 166.271 318.482L208.887 302.713C213.537 300.992 217.203 297.326 218.924 292.676L234.693 250.06Z" fill="#8D0FC9"/>
<path d="M234.693 37.7093C240.166 22.9192 261.085 22.9192 266.558 37.7093L316.739 173.323C318.46 177.973 322.126 181.639 326.776 183.36L462.39 233.542C477.18 239.014 477.18 259.933 462.39 265.406L326.776 315.588C322.126 317.308 318.46 320.975 316.739 325.625L266.558 461.238C261.085 476.029 240.166 476.029 234.693 461.238L184.511 325.625C182.791 320.975 179.124 317.308 174.474 315.588L38.8607 265.406C24.0705 259.933 24.0705 239.014 38.8606 233.542L174.474 183.36C179.124 181.639 182.791 177.973 184.511 173.323L234.693 37.7093Z" fill="#B10DFF"/>
<path d="M250.625 68.6787L299.456 200.643L431.421 249.474L299.456 298.305L250.625 430.27L201.794 298.305L69.8297 249.474L201.794 200.643L250.625 68.6787Z" fill="#DC93FF"/>
<path d="M249.924 246.67L69.1289 249.474L201.572 200.42L249.924 246.67L250.625 67.9773L299.678 200.42L249.924 246.67L432.121 249.474L299.678 298.527L249.924 246.67L250.625 430.97L201.572 298.527L249.924 246.67Z" fill="#BF67E9"/>
</g>
<defs>
<clipPath id="clip0_102_48">
<rect width="500" height="500" fill="white" transform="translate(0.625 0.875)"/>
</clipPath>
</defs>
</svg>
