<svg width="1001" height="1001" viewBox="0 0 1001 1001" fill="none" xmlns="http://www.w3.org/2000/svg">
<path d="M499.168 100.754C499.854 100.434 500.646 100.434 501.332 100.754L624.544 158.108C624.678 158.17 624.817 158.221 624.96 158.26L756.212 193.523C756.943 193.719 757.55 194.228 757.87 194.914L815.389 318.048C815.452 318.183 815.526 318.311 815.611 318.432L893.489 429.813C893.923 430.433 894.06 431.213 893.865 431.944L858.777 563.243C858.739 563.386 858.713 563.532 858.7 563.68L846.765 699.061C846.699 699.815 846.302 700.501 845.683 700.935L734.407 778.962C734.286 779.047 734.172 779.143 734.067 779.248L637.903 875.284C637.367 875.818 636.623 876.089 635.869 876.024L500.472 864.269C500.324 864.256 500.176 864.256 500.028 864.269L364.631 876.024C363.877 876.089 363.133 875.818 362.597 875.284L266.433 779.248C266.328 779.143 266.214 779.047 266.093 778.962L154.817 700.935C154.198 700.501 153.801 699.815 153.735 699.061L141.8 563.68C141.787 563.532 141.761 563.386 141.723 563.243L106.635 431.944C106.44 431.213 106.577 430.433 107.011 429.813L184.889 318.432C184.974 318.311 185.048 318.183 185.111 318.048L242.63 194.914C242.95 194.228 243.557 193.719 244.288 193.523L375.54 158.26C375.683 158.221 375.822 158.17 375.956 158.108L499.168 100.754Z" fill="#411C39"/>
<path d="M499.195 125.741C499.864 125.43 500.636 125.43 501.305 125.741L616.768 179.488C616.899 179.549 617.034 179.599 617.174 179.636L740.171 212.681C740.884 212.873 741.476 213.369 741.788 214.038L795.689 329.428C795.75 329.559 795.823 329.685 795.905 329.803L868.886 434.178C869.309 434.783 869.443 435.543 869.252 436.256L836.372 559.298C836.334 559.437 836.309 559.58 836.297 559.724L825.112 686.591C825.047 687.326 824.661 687.995 824.057 688.418L719.779 761.538C719.661 761.621 719.55 761.714 719.448 761.816L629.331 851.812C628.809 852.334 628.083 852.598 627.348 852.534L500.466 841.519C500.322 841.506 500.178 841.506 500.034 841.519L373.152 852.534C372.417 852.598 371.691 852.334 371.169 851.812L281.052 761.816C280.95 761.714 280.839 761.621 280.721 761.538L176.443 688.418C175.839 687.995 175.453 687.326 175.388 686.591L164.203 559.724C164.191 559.58 164.166 559.437 164.128 559.298L131.248 436.256C131.057 435.543 131.191 434.783 131.614 434.178L204.594 329.803C204.677 329.685 204.75 329.559 204.811 329.428L258.712 214.038C259.024 213.369 259.616 212.873 260.329 212.681L383.326 179.636C383.466 179.599 383.601 179.549 383.732 179.488L499.195 125.741Z" fill="#8D0FC9"/>
<path d="M499.195 191.366C499.864 191.055 500.636 191.055 501.305 191.366L596.343 235.606C596.474 235.667 596.609 235.716 596.749 235.753L697.989 262.953C698.701 263.144 699.293 263.641 699.605 264.309L743.971 359.288C744.032 359.419 744.105 359.544 744.188 359.662L804.258 445.574C804.681 446.179 804.815 446.939 804.624 447.652L777.56 548.928C777.523 549.067 777.498 549.21 777.485 549.354L768.279 653.778C768.214 654.513 767.828 655.182 767.224 655.606L681.392 715.791C681.274 715.874 681.163 715.967 681.061 716.069L606.886 790.145C606.364 790.666 605.638 790.931 604.903 790.867L500.466 781.8C500.322 781.788 500.178 781.788 500.034 781.8L395.597 790.867C394.862 790.931 394.136 790.666 393.614 790.145L319.439 716.069C319.337 715.967 319.226 715.874 319.107 715.791L233.276 655.606C232.672 655.182 232.286 654.513 232.221 653.778L223.015 549.354C223.002 549.21 222.977 549.067 222.94 548.928L195.876 447.652C195.685 446.939 195.819 446.179 196.242 445.574L256.312 359.662C256.395 359.544 256.468 359.419 256.529 359.288L300.895 264.309C301.207 263.641 301.799 263.144 302.511 262.953L403.751 235.753C403.891 235.716 404.026 235.667 404.157 235.606L499.195 191.366Z" fill="#B10DFF"/>
<path d="M499.195 298.241C499.864 297.93 500.636 297.93 501.305 298.241L563.079 326.997C563.21 327.058 563.346 327.107 563.485 327.144L629.291 344.824C630.003 345.015 630.595 345.512 630.907 346.18L659.745 407.916C659.806 408.047 659.878 408.172 659.961 408.29L699.007 464.133C699.43 464.737 699.564 465.498 699.373 466.211L681.781 532.039C681.744 532.179 681.719 532.321 681.706 532.465L675.722 600.341C675.658 601.076 675.271 601.745 674.667 602.168L618.877 641.288C618.759 641.371 618.648 641.464 618.546 641.566L570.333 689.715C569.81 690.237 569.085 690.501 568.35 690.437L500.466 684.544C500.322 684.531 500.178 684.531 500.034 684.544L432.15 690.437C431.415 690.501 430.69 690.237 430.167 689.715L381.954 641.566C381.852 641.464 381.741 641.371 381.623 641.288L325.833 602.168C325.229 601.745 324.842 601.076 324.778 600.341L318.794 532.465C318.781 532.321 318.756 532.179 318.719 532.039L301.127 466.211C300.936 465.498 301.07 464.737 301.493 464.133L340.539 408.29C340.622 408.172 340.694 408.047 340.755 407.916L369.593 346.18C369.905 345.512 370.497 345.015 371.209 344.824L437.015 327.144C437.154 327.107 437.29 327.058 437.421 326.997L499.195 298.241Z" fill="#DC93FF"/>
<path fill-rule="evenodd" clip-rule="evenodd" d="M349.646 649.831C367.951 668.137 397.631 668.137 415.937 649.831L497.863 567.905L579.79 649.831C598.096 668.137 627.775 668.137 646.081 649.831C664.387 631.526 664.387 601.846 646.081 583.54L564.155 501.613L647.956 417.812C666.262 399.506 666.262 369.826 647.956 351.521C629.65 333.215 599.971 333.215 581.665 351.521L497.863 435.322L414.062 351.521C395.756 333.215 366.076 333.215 347.771 351.521C329.465 369.827 329.465 399.506 347.771 417.812L431.572 501.613L349.646 583.54C331.34 601.846 331.34 631.526 349.646 649.831Z" fill="#8D0FC9"/>
<path fill-rule="evenodd" clip-rule="evenodd" d="M383.193 383.193C370.323 396.063 370.323 416.929 383.193 429.799L453.102 499.708L383.192 569.617C370.323 582.487 370.323 603.353 383.192 616.223C396.062 629.093 416.929 629.093 429.798 616.223L499.708 546.314L569.617 616.223C582.486 629.092 603.353 629.092 616.222 616.223C629.092 603.353 629.092 582.486 616.222 569.617L546.313 499.708L616.222 429.799C629.092 416.929 629.092 396.063 616.222 383.193C603.352 370.323 582.486 370.323 569.616 383.193L499.708 453.102L429.799 383.193C416.929 370.323 396.063 370.323 383.193 383.193Z" fill="#B10DFF"/>
</svg>
