<svg width="1001" height="1001" viewBox="0 0 1001 1001" fill="none" xmlns="http://www.w3.org/2000/svg">
<g clip-path="url(#clip0_102_48)">
<path d="M470.267 127.156C481.183 97.5054 523.119 97.5054 534.035 127.156L571.325 228.442C574.751 237.748 582.071 245.092 591.366 248.549L692.624 286.208C722.134 297.183 722.134 338.923 692.624 349.898L591.366 387.558C582.071 391.014 574.751 398.359 571.325 407.664L534.035 508.951C523.119 538.601 481.183 538.601 470.267 508.951L432.977 407.664C429.551 398.359 422.231 391.014 412.937 387.558L311.678 349.898C282.168 338.923 282.168 297.183 311.678 286.208L412.937 248.549C422.231 245.092 429.551 237.748 432.977 228.442L470.267 127.156Z" fill="#6C2A8B"/>
<path d="M655.346 313.014C666.379 283.644 707.923 283.644 718.957 313.014L756.986 414.236C760.473 423.518 767.841 430.814 777.157 434.209L878.464 471.131C908.253 481.988 908.253 524.118 878.464 534.975L777.157 571.897C767.841 575.292 760.473 582.588 756.986 591.87L718.957 693.093C707.923 722.462 666.38 722.462 655.346 693.093L617.316 591.87C613.829 582.588 606.461 575.292 597.145 571.897L495.838 534.975C466.049 524.118 466.049 481.988 495.838 471.131L597.145 434.209C606.461 430.814 613.829 423.518 617.316 414.236L655.346 313.014Z" fill="#6C2A8B"/>
<path d="M282.543 313.014C293.576 283.644 335.12 283.644 346.154 313.014L384.183 414.236C387.67 423.518 395.038 430.814 404.354 434.209L505.661 471.131C535.45 481.988 535.45 524.118 505.661 534.975L404.354 571.897C395.038 575.292 387.67 582.588 384.183 591.87L346.154 693.093C335.12 722.462 293.576 722.462 282.543 693.093L244.513 591.87C241.026 582.588 233.658 575.292 224.342 571.897L123.035 534.975C93.246 524.118 93.246 481.988 123.035 471.131L224.342 434.209C233.658 430.814 241.026 423.518 244.513 414.236L282.543 313.014Z" fill="#6C2A8B"/>
<path d="M468.885 493.863C479.831 464.283 521.669 464.283 532.614 493.863L570.278 595.648C573.719 604.948 581.052 612.28 590.352 615.722L692.137 653.386C721.717 664.331 721.717 706.169 692.137 717.115L590.352 754.779C581.052 758.22 573.719 765.552 570.278 774.852L532.614 876.638C521.668 906.218 479.831 906.218 468.885 876.637L431.221 774.852C427.78 765.552 420.447 758.22 411.148 754.779L309.362 717.115C279.782 706.169 279.782 664.331 309.362 653.386L411.148 615.722C420.447 612.28 427.78 604.948 431.221 595.648L468.885 493.863Z" fill="#6C2A8B"/>
<path d="M453.857 54.4752C469.965 10.9443 531.535 10.9444 547.643 54.4753L647.398 324.061C652.463 337.747 663.253 348.537 676.939 353.602L946.525 453.357C990.056 469.465 990.056 531.035 946.525 547.143L676.939 646.898C663.253 651.963 652.463 662.753 647.398 676.439L547.643 946.025C531.535 989.556 469.965 989.556 453.857 946.025L354.102 676.439C349.037 662.753 338.247 651.963 324.561 646.898L54.9752 547.143C11.4443 531.035 11.4444 469.465 54.9753 453.357L324.561 353.602C338.247 348.537 349.037 337.747 354.102 324.061L453.857 54.4752Z" fill="#6C2A8B"/>
<path d="M434.295 259.47C448.938 219.896 504.91 219.896 519.554 259.47L570.74 397.799C575.344 410.24 585.154 420.05 597.595 424.654L735.924 475.84C775.498 490.484 775.498 546.456 735.924 561.099L597.595 612.286C585.154 616.889 575.344 626.699 570.74 639.141L519.554 777.47C504.91 817.043 448.938 817.043 434.295 777.469L383.108 639.141C378.505 626.699 368.695 616.889 356.253 612.286L217.924 561.099C178.351 546.456 178.351 490.484 217.925 475.84L356.253 424.654C368.695 420.05 378.505 410.24 383.108 397.799L434.295 259.47Z" fill="#580850"/>
<path d="M437.155 381.376C451.885 342.009 507.569 342.009 522.299 381.376L540.918 431.137C545.567 443.562 555.411 453.335 567.869 457.894L616.755 475.783C656.533 490.34 656.533 546.599 616.755 561.156L567.869 579.045C555.411 583.604 545.567 593.378 540.918 605.802L522.299 655.563C507.569 694.93 451.885 694.93 437.155 655.563L418.536 605.802C413.887 593.378 404.043 583.604 391.585 579.045L342.699 561.156C302.921 546.599 302.921 490.34 342.699 475.783L391.585 457.894C404.043 453.335 413.887 443.561 418.536 431.137L437.155 381.376Z" fill="#580850"/>
<path d="M468.886 172.449C479.831 142.869 521.669 142.869 532.615 172.449L564.153 257.681C567.595 266.981 574.927 274.313 584.227 277.754L669.459 309.293C699.039 320.239 699.039 362.076 669.459 373.022L584.227 404.561C574.927 408.002 567.595 415.334 564.153 424.634L532.615 509.866C521.669 539.446 479.831 539.446 468.886 509.866L437.347 424.634C433.906 415.334 426.574 408.002 417.274 404.561L332.042 373.022C302.462 362.076 302.462 320.239 332.042 309.293L417.274 277.755C426.574 274.313 433.906 266.981 437.347 257.681L468.886 172.449Z" fill="#8D0FC9"/>
<path d="M628.573 332.137C639.519 302.557 681.357 302.557 692.303 332.137L723.841 417.369C727.282 426.669 734.615 434.001 743.915 437.442L829.146 468.981C858.727 479.926 858.727 521.764 829.146 532.71L743.915 564.248C734.615 567.69 727.282 575.022 723.841 584.322L692.303 669.554C681.357 699.134 639.519 699.134 628.574 669.554L597.035 584.322C593.594 575.022 586.261 567.69 576.961 564.248L491.73 532.71C462.15 521.764 462.15 479.926 491.73 468.981L576.961 437.442C586.261 434.001 593.594 426.669 597.035 417.369L628.573 332.137Z" fill="#8D0FC9"/>
<path d="M305.8 332.137C316.746 302.557 358.584 302.557 369.529 332.137L401.068 417.369C404.509 426.669 411.842 434.001 421.142 437.442L506.373 468.981C535.953 479.926 535.953 521.764 506.373 532.71L421.142 564.248C411.842 567.69 404.509 575.022 401.068 584.322L369.529 669.554C358.584 699.134 316.746 699.134 305.8 669.554L274.262 584.322C270.821 575.022 263.488 567.69 254.188 564.248L168.957 532.71C139.376 521.764 139.376 479.926 168.957 468.981L254.188 437.442C263.488 434.001 270.821 426.669 274.262 417.369L305.8 332.137Z" fill="#8D0FC9"/>
<path d="M468.886 498.62C479.831 469.04 521.669 469.04 532.615 498.62L564.153 583.852C567.595 593.152 574.927 600.484 584.227 603.925L669.459 635.464C699.039 646.41 699.039 688.247 669.459 699.193L584.227 730.731C574.927 734.173 567.595 741.505 564.153 750.805L532.615 836.037C521.669 865.617 479.831 865.617 468.886 836.037L437.347 750.805C433.906 741.505 426.574 734.173 417.274 730.731L332.042 699.193C302.462 688.247 302.462 646.41 332.042 635.464L417.274 603.925C426.574 600.484 433.906 593.152 437.347 583.852L468.886 498.62Z" fill="#8D0FC9"/>
<path d="M468.886 73.9183C479.832 44.3381 521.669 44.3381 532.615 73.9183L632.978 345.146C636.42 354.446 643.752 361.778 653.052 365.22L924.28 465.583C953.86 476.529 953.86 518.366 924.28 529.312L653.052 629.675C643.752 633.117 636.42 640.449 632.978 649.749L532.615 920.977C521.669 950.557 479.832 950.557 468.886 920.977L368.523 649.749C365.081 640.449 357.749 633.117 348.449 629.675L77.2213 529.312C47.6411 518.366 47.6411 476.529 77.2213 465.583L348.449 365.22C357.749 361.778 365.081 354.446 368.523 345.146L468.886 73.9183Z" fill="#B10DFF"/>
<path d="M500.75 135.857L598.413 399.786L862.341 497.448L598.413 595.11L500.75 859.039L403.088 595.11L139.159 497.448L403.088 399.786L500.75 135.857Z" fill="#DC93FF"/>
<path d="M499.349 491.841L137.758 497.447L402.644 399.341L499.349 491.841L500.75 134.455L598.856 399.341L499.349 491.841L863.743 497.447L598.856 595.553L499.349 491.841L500.75 860.439L402.644 595.553L499.349 491.841Z" fill="#BF67E9"/>
</g>
<defs>
<clipPath id="clip0_102_48">
<rect width="1000" height="1000" fill="white" transform="translate(0.75 0.25)"/>
</clipPath>
</defs>
</svg>
