<svg width="400" height="400" viewBox="0 0 400 400" fill="none" xmlns="http://www.w3.org/2000/svg">
<g clip-path="url(#clip0_147_175)">
<mask id="path-1-outside-1_147_175" maskUnits="userSpaceOnUse" x="49.4625" y="50.0039" width="360.624" height="360.624" fill="black">
<rect fill="white" x="49.4625" y="50.0039" width="360.624" height="360.624"/>
<path d="M73.0882 73.7543C81.45 65.3925 95.0072 65.3925 103.369 73.7543L385.99 356.376C394.352 364.738 394.352 378.295 385.99 386.657V386.657C377.629 395.018 364.071 395.018 355.71 386.657L73.0882 104.035C64.7263 95.6733 64.7264 82.1161 73.0882 73.7543V73.7543Z"/>
</mask>
<path d="M73.0882 73.7543C81.45 65.3925 95.0072 65.3925 103.369 73.7543L385.99 356.376C394.352 364.738 394.352 378.295 385.99 386.657V386.657C377.629 395.018 364.071 395.018 355.71 386.657L73.0882 104.035C64.7263 95.6733 64.7264 82.1161 73.0882 73.7543V73.7543Z" fill="#411C39"/>
<path d="M73.0882 104.035L68.959 108.164L73.0882 104.035ZM103.369 73.7543L99.2398 77.8835L103.369 73.7543ZM99.2398 77.8835L381.861 360.505L390.12 352.246L107.498 69.6251L99.2398 77.8835ZM359.839 382.527L77.2174 99.9059L68.959 108.164L351.58 390.786L359.839 382.527ZM77.2174 99.9059C71.1361 93.8246 71.1361 83.9649 77.2174 77.8835L68.959 69.6251C58.3167 80.2674 58.3166 97.522 68.959 108.164L77.2174 99.9059ZM381.861 382.527C375.78 388.609 365.92 388.609 359.839 382.527L351.58 390.786C362.223 401.428 379.477 401.428 390.12 390.786L381.861 382.527ZM381.861 360.505C387.942 366.586 387.942 376.446 381.861 382.527L390.12 390.786C400.762 380.143 400.762 362.889 390.12 352.246L381.861 360.505ZM107.498 69.6251C96.8559 58.9828 79.6013 58.9828 68.959 69.6251L77.2174 77.8835C83.2987 71.8022 93.1585 71.8022 99.2398 77.8835L107.498 69.6251Z" fill="#200707" mask="url(#path-1-outside-1_147_175)"/>
<mask id="path-3-outside-2_147_175" maskUnits="userSpaceOnUse" x="-22.2687" y="-20.2232" width="340.118" height="340.118" fill="black">
<rect fill="white" x="-22.2687" y="-20.2232" width="340.118" height="340.118"/>
<path fill-rule="evenodd" clip-rule="evenodd" d="M82.7593 84.7595L71.8116 116.543L80.2614 125.872L25.5554 145.41L38.1788 160.394L7.88907 174.792L8.09521 185.154L43.0756 202.385L44.5842 235.427L74.6852 236.802L89.1919 266.251L100.243 267.146L126.098 232.421L159.419 213.268L164.511 218.891L212.33 214.331L216.891 166.511L211.282 161.395L230.381 128.168L264.989 102.4L264.94 90.5029L234.753 75.633L233.427 46.5844L201.438 45.1239L183.843 9.40617L172.635 10.0464L158.335 40.129L143.41 27.5553L124.033 81.81L114.887 73.4673L82.7593 84.7595Z"/>
</mask>
<path fill-rule="evenodd" clip-rule="evenodd" d="M82.7593 84.7595L71.8116 116.543L80.2614 125.872L25.5554 145.41L38.1788 160.394L7.88907 174.792L8.09521 185.154L43.0756 202.385L44.5842 235.427L74.6852 236.802L89.1919 266.251L100.243 267.146L126.098 232.421L159.419 213.268L164.511 218.891L212.33 214.331L216.891 166.511L211.282 161.395L230.381 128.168L264.989 102.4L264.94 90.5029L234.753 75.633L233.427 46.5844L201.438 45.1239L183.843 9.40617L172.635 10.0464L158.335 40.129L143.41 27.5553L124.033 81.81L114.887 73.4673L82.7593 84.7595Z" fill="#B10DFF"/>
<path d="M71.8116 116.543L66.2904 114.641L65.1663 117.904L67.4835 120.463L71.8116 116.543ZM82.7593 84.7595L80.8229 79.2503L78.158 80.187L77.2381 82.8577L82.7593 84.7595ZM80.2614 125.872L82.2254 131.371L90.458 128.431L84.5895 121.952L80.2614 125.872ZM25.5554 145.41L23.5914 139.91L15.6701 142.739L21.0895 149.172L25.5554 145.41ZM38.1788 160.394L40.6859 165.668L47.5205 162.419L42.6448 156.631L38.1788 160.394ZM7.88907 174.792L5.38197 169.518L1.97563 171.138L2.05064 174.908L7.88907 174.792ZM8.09521 185.154L2.25678 185.27L2.32745 188.822L5.51472 190.393L8.09521 185.154ZM43.0756 202.385L48.9091 202.119L48.7517 198.672L45.6561 197.147L43.0756 202.385ZM44.5842 235.427L38.7507 235.694L38.9938 241.018L44.3179 241.261L44.5842 235.427ZM74.6852 236.802L79.9237 234.221L78.3988 231.125L74.9516 230.968L74.6852 236.802ZM89.1919 266.251L83.9535 268.831L85.4177 271.804L88.7204 272.071L89.1919 266.251ZM100.243 267.146L99.7713 272.967L102.995 273.228L104.927 270.634L100.243 267.146ZM126.098 232.421L123.187 227.359L122.137 227.962L121.414 228.934L126.098 232.421ZM159.419 213.268L163.747 209.348L160.588 205.861L156.509 208.206L159.419 213.268ZM164.511 218.891L160.183 222.811L162.15 224.982L165.066 224.704L164.511 218.891ZM212.33 214.331L212.885 220.144L217.686 219.686L218.144 214.885L212.33 214.331ZM216.891 166.511L222.704 167.066L222.981 164.163L220.826 162.197L216.891 166.511ZM211.282 161.395L206.219 158.485L203.883 162.55L207.347 165.709L211.282 161.395ZM230.381 128.168L226.893 123.484L225.922 124.208L225.318 125.258L230.381 128.168ZM264.989 102.4L268.476 107.084L270.841 105.324L270.828 102.376L264.989 102.4ZM264.94 90.5029L270.779 90.4788L270.764 86.8625L267.52 85.2644L264.94 90.5029ZM234.753 75.633L228.92 75.8993L229.077 79.3466L232.173 80.8715L234.753 75.633ZM233.427 46.5844L239.261 46.3181L239.017 40.994L233.693 40.7509L233.427 46.5844ZM201.438 45.1239L196.199 47.7044L197.724 50.8L201.171 50.9574L201.438 45.1239ZM183.843 9.40617L189.082 6.82569L187.372 3.3555L183.51 3.5761L183.843 9.40617ZM172.635 10.0464L172.302 4.21627L168.847 4.41363L167.361 7.53926L172.635 10.0464ZM158.335 40.129L154.572 44.5949L160.36 49.4707L163.609 42.6361L158.335 40.129ZM143.41 27.5553L147.172 23.0893L140.74 17.6699L137.911 25.5912L143.41 27.5553ZM124.033 81.81L120.098 86.1243L126.581 92.0382L129.533 83.7741L124.033 81.81ZM114.887 73.4673L118.822 69.1529L116.244 66.8006L112.951 67.9581L114.887 73.4673ZM77.3329 118.444L88.2805 86.6613L77.2381 82.8577L66.2904 114.641L77.3329 118.444ZM84.5895 121.952L76.1398 112.623L67.4835 120.463L75.9332 129.792L84.5895 121.952ZM78.2973 120.373L23.5914 139.91L27.5195 150.909L82.2254 131.371L78.2973 120.373ZM21.0895 149.172L33.7128 164.156L42.6448 156.631L30.0214 141.647L21.0895 149.172ZM35.6717 155.12L5.38197 169.518L10.3962 180.066L40.6859 165.668L35.6717 155.12ZM2.05064 174.908L2.25678 185.27L13.9336 185.038L13.7275 174.676L2.05064 174.908ZM5.51472 190.393L40.4951 207.624L45.6561 197.147L10.6757 179.916L5.51472 190.393ZM37.2421 202.652L38.7507 235.694L50.4177 235.161L48.9091 202.119L37.2421 202.652ZM44.3179 241.261L74.4189 242.635L74.9516 230.968L44.8505 229.594L44.3179 241.261ZM69.4467 239.382L83.9535 268.831L94.4304 263.67L79.9237 234.221L69.4467 239.382ZM88.7204 272.071L99.7713 272.967L100.714 261.326L89.6635 260.43L88.7204 272.071ZM104.927 270.634L130.781 235.909L121.414 228.934L95.559 263.659L104.927 270.634ZM129.008 237.484L162.329 218.331L156.509 208.206L123.187 227.359L129.008 237.484ZM168.839 214.971L163.747 209.348L155.09 217.189L160.183 222.811L168.839 214.971ZM211.776 208.517L163.957 213.078L165.066 224.704L212.885 220.144L211.776 208.517ZM211.078 165.957L206.517 213.776L218.144 214.885L222.704 167.066L211.078 165.957ZM207.347 165.709L212.956 170.826L220.826 162.197L215.217 157.081L207.347 165.709ZM216.345 164.305L235.444 131.078L225.318 125.258L206.219 158.485L216.345 164.305ZM233.868 132.852L268.476 107.084L261.501 97.7163L226.893 123.484L233.868 132.852ZM270.828 102.376L270.779 90.4788L259.1 90.527L259.149 102.424L270.828 102.376ZM267.52 85.2644L237.334 70.3945L232.173 80.8715L262.359 95.7414L267.52 85.2644ZM240.587 75.3667L239.261 46.3181L227.594 46.8508L228.92 75.8993L240.587 75.3667ZM233.693 40.7509L201.704 39.2904L201.171 50.9574L233.161 52.4179L233.693 40.7509ZM206.676 42.5434L189.082 6.82569L178.605 11.9867L196.199 47.7044L206.676 42.5434ZM183.51 3.5761L172.302 4.21627L172.968 15.8764L184.176 15.2363L183.51 3.5761ZM167.361 7.53926L153.061 37.6219L163.609 42.6361L177.909 12.5534L167.361 7.53926ZM162.097 35.663L147.172 23.0893L139.647 32.0213L154.572 44.5949L162.097 35.663ZM137.911 25.5912L118.534 79.8459L129.533 83.7741L148.909 29.5194L137.911 25.5912ZM110.952 77.7816L120.098 86.1243L127.969 77.4957L118.822 69.1529L110.952 77.7816ZM84.6957 90.2687L116.823 78.9764L112.951 67.9581L80.8229 79.2503L84.6957 90.2687Z" fill="#200707" mask="url(#path-3-outside-2_147_175)"/>
<rect x="199.925" y="170.221" width="262.191" height="42.8862" rx="21.4431" transform="rotate(45 199.925 170.221)" fill="#411C39"/>
<rect x="202.681" y="184.005" width="263.165" height="27.2912" rx="13.6456" transform="rotate(45 202.681 184.005)" fill="#502546"/>
<path d="M51.7451 227.425L50.7113 197.445L17.2847 177.113L52.7789 163.674L40.0286 150.923L93.4422 129.213L79.3134 115.085L86.8947 88.2056L113.085 81.3135L128.936 95.0976L147.2 43.7517L158.572 52.3668L176.836 28.5891L194.756 55.4682L225.77 53.4006L51.7451 227.425Z" fill="#DC93FF"/>
<path d="M98.7393 106.012C96.996 102.221 100.91 98.3071 104.701 100.05L139.464 116.035C140.656 116.583 142.028 116.583 143.22 116.035L177.982 100.05C181.774 98.3071 185.688 102.221 183.944 106.012L167.96 140.775C167.412 141.967 167.412 143.339 167.96 144.531L183.944 179.294C185.688 183.085 181.774 186.999 177.982 185.256L143.22 169.271C142.028 168.723 140.656 168.723 139.464 169.271L104.701 185.256C100.91 186.999 96.996 183.085 98.7393 179.294L114.724 144.531C115.272 143.339 115.272 141.967 114.724 140.775L98.7393 106.012Z" fill="#B10DFF"/>
<path d="M107.515 108.826L141.342 124.38L175.169 108.826L159.615 142.653L175.169 176.48L141.342 160.926L107.515 176.48L123.069 142.653L107.515 108.826Z" fill="#DC93FF"/>
<path d="M140.645 142.26L107.342 176.611L122.945 142.653L140.645 142.26L107.342 108.695L141.3 124.297L140.645 142.26L175.259 108.695L159.656 142.653L140.645 142.26L175.259 176.611L141.3 161.009L140.645 142.26Z" fill="#BF67E9"/>
</g>
<defs>
<clipPath id="clip0_147_175">
<rect width="400" height="400" fill="white"/>
</clipPath>
</defs>
</svg>
