<svg width="400" height="400" viewBox="0 0 400 400" fill="none" xmlns="http://www.w3.org/2000/svg">
<path d="M39.4414 69.3994C37.5102 48.9847 36.9585 8.4863 36.9585 6.5L104.824 31.3287L257.934 219.199L272.003 205.957L276.142 210.095L272.003 229.958C279.176 230.234 294.018 233.931 296.005 233.269C297.991 232.607 301.798 228.303 303.453 226.648L302.626 215.889L301.798 209.268L290.811 196.138L287.5 192L297.432 189.517L318.35 197.681L333.248 222.51L332.42 244.855L304.281 262.236L307.591 284.581L319.178 304.444L336.558 321.824L354.766 325.135L359.732 344.998L363.87 370.654L352.283 380.586L307.591 356.585C305.66 354.929 309.909 343.177 309.247 342.515C308.584 341.853 303.177 330.928 300.143 325.135L276.142 309.41L254.623 303.617C239.726 323.48 219.036 327.783 215.725 328.445C211.587 329.273 188.414 325.135 186.758 323.48C185.434 322.155 177.654 312.169 174.344 306.1L172.569 284.397L175.879 274.466L182.5 269.5C185.811 278.604 190.4 287.892 191.724 291.202C193.048 294.513 198.345 296.72 200 297.823L215.725 296.168L224.829 286.237V270.512H204.966V268.029L218.208 256.442L39.4414 69.3994Z" fill="#1B0D0D"/>
<path d="M248.756 268.7L250.306 297.625L276.458 306.169L300.528 322.284L314.948 343.888L334.903 347.481L338.213 327.618L318.35 309.41L304.408 286.437L297.66 253.942L261.225 253.942L248.756 268.7Z" fill="#411C39"/>
<path d="M309.359 354.299L313.429 335.249L331.592 322.77L352.3 327.662L361.387 368.999L350.628 377.275L309.359 354.299Z" fill="#411C39"/>
<path d="M176.827 305.272L175.207 282.449C175.974 280.22 181.036 276.324 181 275C180.964 273.676 182.5 278.788 187.586 289.547C188.995 290.613 192.188 298.769 195.035 300.306C196.877 301.301 209.703 300.855 214.07 299.08C219.548 297.551 224.186 292.71 224.829 292.03C225.473 291.35 226.485 287.892 227.312 284.581L227.312 278.788L227.312 268.029C218.932 268.029 209.846 267.993 208.523 268.029C207.199 268.065 248.424 232.167 271.607 211.942L269.711 233.52L283.865 236.446L297.102 236.086L306.85 229.198L306.467 215.133L302.626 205.957L291.277 193.655L299 192L316.695 200.164L329.11 223.337L329.11 244.028L291.039 264.755L278.012 264.755L261.893 280.924L260.417 289.547L239.727 315.203L214.07 325.962L189.242 320.169L176.827 305.272Z" fill="#411C39"/>
<path d="M252.968 256.442H223.174L43.5796 67.7441V14.7762L100.686 34.6392L257.934 225.82L252.968 256.442Z" fill="#B10DFF"/>
<path d="M55.9936 61.9507L52.6831 24.7076L89.0985 38.7772L237.243 224.165V237.407L226.484 234.096L55.9936 61.9507Z" fill="#DC93FF"/>
<path d="M267.865 271.339L291.039 263.891L297.66 287.064L310.901 306.1L329.109 325.135L339.868 330.928L334.903 344.998H319.178L315.867 333.411L300.142 312.721L281.935 299.479L257.934 293.685L267.865 271.339Z" fill="#502546"/>
</svg>
