<svg width="400" height="400" viewBox="0 0 400 400" fill="none" xmlns="http://www.w3.org/2000/svg">
<g clip-path="url(#clip0_113_153)">
<path d="M205.723 13.3328L231.566 50.0185C235.183 55.1533 241.954 56.9676 247.654 54.3293L288.378 35.4802C292.772 33.4464 297.854 36.3807 298.29 41.2028L302.327 85.895C302.893 92.1505 307.849 97.1073 314.105 97.6725L358.797 101.71C363.619 102.146 366.554 107.228 364.52 111.622L345.671 152.346C343.032 158.046 344.847 164.817 349.982 168.434L386.667 194.277C390.625 197.066 390.625 202.934 386.667 205.723L349.982 231.566C344.847 235.183 343.032 241.954 345.671 247.654L364.52 288.378C366.554 292.772 363.619 297.854 358.797 298.29L314.105 302.327C307.849 302.893 302.893 307.849 302.327 314.105L298.29 358.797C297.854 363.619 292.772 366.554 288.378 364.52L247.654 345.671C241.954 343.032 235.183 344.847 231.566 349.982L205.723 386.667C202.934 390.625 197.066 390.625 194.277 386.667L168.434 349.982C164.817 344.847 158.046 343.032 152.346 345.671L111.622 364.52C107.228 366.554 102.146 363.619 101.71 358.797L97.6725 314.105C97.1073 307.849 92.1505 302.893 85.895 302.327L41.2028 298.29C36.3807 297.854 33.4464 292.772 35.4802 288.378L54.3293 247.654C56.9676 241.954 55.1533 235.183 50.0185 231.566L13.3328 205.723C9.37457 202.934 9.37457 197.066 13.3328 194.277L50.0185 168.434C55.1533 164.817 56.9676 158.046 54.3293 152.346L35.4802 111.622C33.4464 107.228 36.3807 102.146 41.2028 101.71L85.895 97.6725C92.1505 97.1073 97.1073 92.1505 97.6725 85.895L101.71 41.2028C102.146 36.3807 107.228 33.4464 111.622 35.4802L152.346 54.3293C158.046 56.9676 164.817 55.1533 168.434 50.0185L194.277 13.3328C197.066 9.37457 202.934 9.37457 205.723 13.3328Z" fill="#978888" stroke="#4A4242" stroke-width="6"/>
<path d="M199.578 44.3912C199.846 44.2667 200.154 44.2667 200.422 44.3912L248.414 66.7312C248.466 66.7555 248.521 66.7753 248.576 66.7903L299.7 80.5255C299.985 80.6021 300.222 80.8006 300.347 81.068L322.751 129.03C322.775 129.082 322.804 129.132 322.837 129.18L353.171 172.563C353.341 172.805 353.394 173.109 353.318 173.394L339.651 224.536C339.636 224.592 339.626 224.649 339.621 224.707L334.972 277.439C334.946 277.733 334.792 278 334.55 278.17L291.207 308.562C291.16 308.595 291.116 308.632 291.075 308.673L253.618 346.08C253.409 346.289 253.119 346.394 252.825 346.369L200.086 341.79C200.029 341.785 199.971 341.785 199.914 341.79L147.175 346.369C146.881 346.394 146.591 346.289 146.382 346.08L108.925 308.673C108.884 308.632 108.84 308.595 108.793 308.562L65.4498 278.17C65.2082 278 65.0537 277.733 65.0278 277.439L60.3789 224.707C60.3738 224.649 60.3637 224.592 60.3488 224.536L46.682 173.394C46.6058 173.109 46.6594 172.805 46.8285 172.563L77.1628 129.18C77.1959 129.132 77.2248 129.082 77.2493 129.03L99.6533 81.068C99.7782 80.8006 100.015 80.6021 100.3 80.5255L151.424 66.7903C151.479 66.7753 151.534 66.7555 151.586 66.7312L199.578 44.3912Z" fill="#411C39"/>
<path d="M199.578 50.3837C199.846 50.2592 200.154 50.2592 200.422 50.3837L246.549 71.8555C246.601 71.8798 246.656 71.8996 246.711 71.9146L295.848 85.116C296.133 85.1926 296.37 85.3912 296.495 85.6585L318.028 131.757C318.053 131.809 318.082 131.859 318.115 131.906L347.27 173.604C347.439 173.846 347.493 174.15 347.417 174.435L334.281 223.59C334.266 223.645 334.256 223.702 334.251 223.76L329.783 274.443C329.757 274.737 329.602 275.004 329.36 275.174L287.702 304.385C287.655 304.418 287.61 304.455 287.57 304.496L251.568 340.449C251.36 340.658 251.069 340.763 250.775 340.738L200.086 336.337C200.029 336.332 199.971 336.332 199.914 336.337L149.225 340.738C148.931 340.763 148.64 340.658 148.432 340.449L112.43 304.496C112.39 304.455 112.345 304.418 112.298 304.385L70.6395 275.174C70.3979 275.004 70.2434 274.737 70.2175 274.443L65.7492 223.76C65.7441 223.702 65.7341 223.645 65.7192 223.59L52.5834 174.435C52.5072 174.15 52.5609 173.846 52.73 173.604L81.8854 131.906C81.9185 131.859 81.9474 131.809 81.9719 131.757L103.505 85.6585C103.63 85.3912 103.867 85.1926 104.152 85.116L153.289 71.9146C153.344 71.8996 153.399 71.8798 153.451 71.8555L199.578 50.3837Z" fill="#8D0FC9"/>
<path d="M199.578 76.6009C199.846 76.4764 200.154 76.4764 200.422 76.6009L238.389 94.2743C238.441 94.2987 238.496 94.3185 238.552 94.3335L278.996 105.2C279.281 105.276 279.518 105.475 279.643 105.742L297.367 143.685C297.391 143.738 297.42 143.788 297.453 143.835L321.451 178.156C321.62 178.398 321.674 178.702 321.598 178.988L310.786 219.447C310.771 219.502 310.761 219.559 310.756 219.617L307.078 261.334C307.052 261.628 306.897 261.896 306.656 262.065L272.367 286.109C272.319 286.142 272.275 286.179 272.234 286.22L242.602 315.813C242.393 316.021 242.102 316.127 241.808 316.102L200.086 312.479C200.029 312.474 199.971 312.474 199.914 312.479L158.192 316.102C157.898 316.127 157.607 316.021 157.398 315.813L127.766 286.22C127.725 286.179 127.681 286.142 127.633 286.109L93.3443 262.065C93.1026 261.896 92.9482 261.628 92.9223 261.334L89.2444 219.617C89.2393 219.559 89.2293 219.502 89.2144 219.447L78.4024 178.988C78.3262 178.702 78.3798 178.398 78.5489 178.156L102.547 143.835C102.58 143.788 102.609 143.738 102.633 143.685L120.357 105.742C120.482 105.475 120.719 105.276 121.004 105.2L161.449 94.3335C161.504 94.3185 161.559 94.2987 161.611 94.2743L199.578 76.6009Z" fill="#B10DFF"/>
<path d="M199.578 119.298C199.846 119.173 200.154 119.173 200.422 119.298L225.1 130.785C225.152 130.809 225.207 130.829 225.263 130.844L251.551 137.907C251.836 137.984 252.073 138.182 252.198 138.45L263.718 163.112C263.743 163.165 263.772 163.215 263.805 163.262L279.403 185.571C279.572 185.812 279.626 186.117 279.55 186.402L272.522 212.7C272.507 212.756 272.497 212.813 272.492 212.87L270.101 239.986C270.075 240.28 269.921 240.547 269.679 240.717L247.392 256.345C247.344 256.378 247.3 256.415 247.259 256.456L227.998 275.691C227.79 275.9 227.499 276.005 227.205 275.98L200.086 273.625C200.029 273.62 199.971 273.62 199.914 273.625L172.795 275.98C172.501 276.005 172.21 275.9 172.002 275.691L152.741 256.456C152.7 256.415 152.655 256.378 152.608 256.345L130.321 240.717C130.079 240.547 129.925 240.28 129.899 239.986L127.508 212.87C127.503 212.813 127.493 212.756 127.478 212.7L120.45 186.402C120.374 186.117 120.428 185.812 120.597 185.571L136.195 163.262C136.228 163.215 136.257 163.165 136.282 163.112L147.802 138.45C147.927 138.182 148.164 137.984 148.449 137.907L174.737 130.844C174.793 130.829 174.848 130.809 174.9 130.785L199.578 119.298Z" fill="#DC93FF"/>
<path fill-rule="evenodd" clip-rule="evenodd" d="M141.065 259.492C148.379 266.805 160.236 266.805 167.549 259.492L200.279 226.762L233.008 259.492C240.321 266.805 252.178 266.805 259.492 259.492C266.805 252.179 266.805 240.322 259.492 233.008L226.762 200.279L260.241 166.8C267.554 159.487 267.554 147.63 260.241 140.316C252.928 133.003 241.071 133.003 233.757 140.316L200.279 173.795L166.8 140.316C159.487 133.003 147.63 133.003 140.316 140.316C133.003 147.63 133.003 159.487 140.316 166.8L173.795 200.279L141.065 233.008C133.752 240.322 133.752 252.179 141.065 259.492Z" fill="#8D0FC9"/>
<path fill-rule="evenodd" clip-rule="evenodd" d="M154.467 152.969C149.326 158.111 149.326 166.447 154.467 171.589L182.396 199.517L154.467 227.446C149.326 232.587 149.326 240.924 154.467 246.065C159.609 251.207 167.945 251.207 173.087 246.065L201.015 218.136L228.944 246.065C234.085 251.207 242.421 251.207 247.563 246.065C252.705 240.923 252.705 232.587 247.563 227.446L219.634 199.517L247.563 171.589C252.704 166.447 252.704 158.111 247.563 152.969C242.421 147.828 234.085 147.828 228.944 152.969L201.015 180.898L173.087 152.969C167.945 147.828 159.609 147.828 154.467 152.969Z" fill="#B10DFF"/>
</g>
<defs>
<clipPath id="clip0_113_153">
<rect width="400" height="400" fill="white"/>
</clipPath>
</defs>
</svg>
