<svg width="400" height="400" viewBox="0 0 400 400" fill="none" xmlns="http://www.w3.org/2000/svg">
<circle cx="192.484" cy="146.323" r="27.1452" fill="#510774"/>
<path d="M54.5 72.5C54.5 72.5 36.7359 128.384 31.2095 138.339H355.887L338 71L297 85L232 86L217.5 81.5L196.5 62L173 84L157.5 86L96.5 82.5L54.5 72.5Z" fill="#510774"/>
<path d="M117 229C117 229 73.258 229.674 58.3548 233.081C52.6774 231.839 40.5774 229.355 37.5967 229.355C34.6161 229.355 58.7096 181.452 71.129 157.5L293.081 149.516L361.742 201.677L346.839 239.468C330.516 230.419 277.332 220.277 273.5 219L219 253.5L212.5 273.5L203.5 284.5H191L181 270.5L175 253.5L117 229Z" fill="#510774"/>
<path d="M123.5 231.5L179.177 170.274L198.339 165.484V94.6934L106.79 117.048L55 72.4999L9 139L16.3065 211.79L22.1613 238.935L10.9839 275.129L133.403 378.5L183.5 322.5L181 281.5L138 304.5L104 276L85.5 235.5L123.5 231.5Z" fill="#510774"/>
<path d="M258.5 226L215.371 170.274L196.21 165.484V94.6934L287.758 117.048L337.5 70.9999L390.5 137L378.242 211.79L372.387 238.935L383.564 275.129L264 377L214 323L215.5 279.5L255.5 303.5L296.5 269.5L313 237.5L258.5 226Z" fill="#510774"/>
<path d="M188.524 71.3032C191.164 64.1678 201.256 64.1678 203.896 71.3032L228.106 136.729C228.936 138.973 230.705 140.741 232.948 141.572L298.375 165.781C305.51 168.422 305.51 178.514 298.375 181.154L232.948 205.364C230.705 206.194 228.936 207.963 228.106 210.206L203.896 275.632C201.256 282.768 191.164 282.768 188.524 275.632L164.314 210.206C163.484 207.963 161.715 206.194 159.472 205.364L94.0454 181.154C86.91 178.514 86.91 168.422 94.0454 165.781L159.472 141.572C161.715 140.741 163.484 138.973 164.314 136.729L188.524 71.3032Z" fill="#510774"/>
<path d="M196.21 86.2442L219.768 149.91L283.434 173.468L219.768 197.026L196.21 260.692L172.652 197.026L108.986 173.468L172.652 149.91L196.21 86.2442Z" fill="#510774"/>
<path d="M195.818 172.062L108.595 173.414L172.491 149.749L195.818 172.062L196.157 85.8525L219.822 149.749L195.818 172.062L283.718 173.414L219.822 197.08L195.818 172.062L196.157 260.976L172.491 197.08L195.818 172.062Z" fill="#510774"/>
<circle cx="193.5" cy="151" r="25.5" fill="#D9D9D9"/>
<path d="M61.5 83C61.5 83 47.1915 134.149 42 143.5H347L336 83L300.5 94.5H234.5L192.5 91L163 94.5H101L61.5 83Z" fill="#8D0FC9"/>
<path d="M127 221C127 221 81.5004 229.3 67.5003 232.5C62.167 231.333 50.8003 229 48.0003 229C45.2003 229 67.8337 184 79.5003 161.5L288 154L352.5 203L338.5 238.5C323.167 230 266.1 219.2 262.5 218L196.5 257L127 221Z" fill="#8D0FC9"/>
<path d="M105.5 196L181 173.5L199 169V102.5L96.5 126L61.4854 82L17.4854 141L28 212.5L33.5 238L23 272L131 363L174.5 320.5V290.5L138 314.5L100 281L70 231L105.5 196Z" fill="#B10DFF"/>
<path d="M292.5 195.5L217 173L199 168.5V102L301 123.5L336.515 81.5L380.515 140.5L370 212L364.5 237.5L375 271.5L267 362.5L223.5 320V290L260 314L298 280.5L328 230.5L292.5 195.5Z" fill="#B10DFF"/>
<path d="M105.5 166.5L37.5 202.5L26.5 141.5L64 96.5L81.5 133L309.5 137.5L335 96.5L368.5 137.5L354 202.5L295.5 169.5L105.5 166.5Z" fill="#C54AFF"/>
<path d="M189.779 80.5272C192.26 73.8243 201.74 73.8243 204.221 80.5272L226.963 141.988C227.743 144.095 229.405 145.757 231.512 146.537L292.973 169.279C299.676 171.76 299.676 181.24 292.973 183.721L231.512 206.463C229.405 207.243 227.743 208.905 226.963 211.012L204.221 272.473C201.74 279.176 192.26 279.176 189.779 272.473L167.037 211.012C166.257 208.905 164.595 207.243 162.488 206.463L101.027 183.721C94.3243 181.24 94.3243 171.76 101.027 169.279L162.488 146.537C164.595 145.757 166.257 144.095 167.037 141.988L189.779 80.5272Z" fill="#B10DFF"/>
<path d="M197 94.5627L219.131 154.37L278.937 176.5L219.131 198.631L197 258.438L174.869 198.631L115.063 176.5L174.869 154.37L197 94.5627Z" fill="#DC93FF"/>
<path d="M196.632 175.18L114.695 176.45L174.719 154.219L196.632 175.18L196.95 94.1949L219.181 154.219L196.632 175.18L279.205 176.45L219.181 198.681L196.632 175.18L196.95 258.705L174.719 198.681L196.632 175.18Z" fill="#BF67E9"/>
<path d="M155 325L175 290.5V320L131 363L23 272.5L33.5 238L27 207.5L45.5 232.5C49 244.667 56.4 269.3 58 270.5C59.6 271.7 101.333 313.333 122 334L155 325Z" fill="#8D0FC9"/>
<path d="M243 325L223.5 290L223 320L267 362.5L375 272.5L364.5 238L370.5 209.5L352.5 232.5C349 244.667 341.6 269.3 340 270.5C338.4 271.7 296.667 313.333 276 334L243 325Z" fill="#8D0FC9"/>
<circle cx="192.484" cy="146.323" r="27.1452" fill="#510774"/>
<path d="M54.5 72.5C54.5 72.5 36.7359 128.384 31.2095 138.339H355.887L338 71L297 85L232 86L217.5 81.5L196.5 62L173 84L157.5 86L96.5 82.5L54.5 72.5Z" fill="#510774"/>
<path d="M117 229C117 229 73.258 229.674 58.3548 233.081C52.6774 231.839 40.5774 229.355 37.5967 229.355C34.6161 229.355 58.7096 181.452 71.129 157.5L293.081 149.516L361.742 201.677L346.839 239.468C330.516 230.419 277.332 220.277 273.5 219L219 253.5L212.5 273.5L203.5 284.5H191L181 270.5L175 253.5L117 229Z" fill="#510774"/>
<path d="M123.5 231.5L179.177 170.274L198.339 165.484V94.6934L106.79 117.048L55 72.4999L9 139L16.3065 211.79L22.1613 238.935L10.9839 275.129L133.403 378.5L183.5 322.5L181 281.5L138 304.5L104 276L85.5 235.5L123.5 231.5Z" fill="#510774"/>
<path d="M258.5 226L215.371 170.274L196.21 165.484V94.6934L287.758 117.048L337.5 70.9999L390.5 137L378.242 211.79L372.387 238.935L383.564 275.129L264 377L214 323L215.5 279.5L255.5 303.5L296.5 269.5L313 237.5L258.5 226Z" fill="#510774"/>
<path d="M188.524 71.3032C191.164 64.1678 201.256 64.1678 203.896 71.3032L228.106 136.729C228.936 138.973 230.705 140.741 232.948 141.572L298.375 165.781C305.51 168.422 305.51 178.514 298.375 181.154L232.948 205.364C230.705 206.194 228.936 207.963 228.106 210.206L203.896 275.632C201.256 282.768 191.164 282.768 188.524 275.632L164.314 210.206C163.484 207.963 161.715 206.194 159.472 205.364L94.0454 181.154C86.91 178.514 86.91 168.422 94.0454 165.781L159.472 141.572C161.715 140.741 163.484 138.973 164.314 136.729L188.524 71.3032Z" fill="#510774"/>
<path d="M196.21 86.2442L219.768 149.91L283.434 173.468L219.768 197.026L196.21 260.692L172.652 197.026L108.986 173.468L172.652 149.91L196.21 86.2442Z" fill="#510774"/>
<path d="M195.818 172.062L108.595 173.414L172.491 149.749L195.818 172.062L196.157 85.8525L219.822 149.749L195.818 172.062L283.718 173.414L219.822 197.08L195.818 172.062L196.157 260.976L172.491 197.08L195.818 172.062Z" fill="#510774"/>
<circle cx="193.5" cy="151" r="25.5" fill="#D9D9D9"/>
<path d="M61.5 83C61.5 83 47.1915 134.149 42 143.5H347L336 83L300.5 94.5H234.5L192.5 91L163 94.5H101L61.5 83Z" fill="#8D0FC9"/>
<path d="M127 221C127 221 81.5004 229.3 67.5003 232.5C62.167 231.333 50.8003 229 48.0003 229C45.2003 229 67.8337 184 79.5003 161.5L288 154L352.5 203L338.5 238.5C323.167 230 266.1 219.2 262.5 218L196.5 257L127 221Z" fill="#8D0FC9"/>
<path d="M105.5 196L181 173.5L199 169V102.5L96.5 126L61.4854 82L17.4854 141L28 212.5L33.5 238L23 272L131 363L174.5 320.5V290.5L138 314.5L100 281L70 231L105.5 196Z" fill="#B10DFF"/>
<path d="M292.5 195.5L217 173L199 168.5V102L301 123.5L336.515 81.5L380.515 140.5L370 212L364.5 237.5L375 271.5L267 362.5L223.5 320V290L260 314L298 280.5L328 230.5L292.5 195.5Z" fill="#B10DFF"/>
<path d="M105.5 166.5L37.5 202.5L26.5 141.5L64 96.5L81.5 133L309.5 137.5L335 96.5L368.5 137.5L354 202.5L295.5 169.5L105.5 166.5Z" fill="#C54AFF"/>
<path d="M189.779 80.5272C192.26 73.8243 201.74 73.8243 204.221 80.5272L226.963 141.988C227.743 144.095 229.405 145.757 231.512 146.537L292.973 169.279C299.676 171.76 299.676 181.24 292.973 183.721L231.512 206.463C229.405 207.243 227.743 208.905 226.963 211.012L204.221 272.473C201.74 279.176 192.26 279.176 189.779 272.473L167.037 211.012C166.257 208.905 164.595 207.243 162.488 206.463L101.027 183.721C94.3243 181.24 94.3243 171.76 101.027 169.279L162.488 146.537C164.595 145.757 166.257 144.095 167.037 141.988L189.779 80.5272Z" fill="#B10DFF"/>
<path d="M197 94.5627L219.131 154.37L278.937 176.5L219.131 198.631L197 258.438L174.869 198.631L115.063 176.5L174.869 154.37L197 94.5627Z" fill="#DC93FF"/>
<path d="M196.632 175.18L114.695 176.45L174.719 154.219L196.632 175.18L196.95 94.1949L219.181 154.219L196.632 175.18L279.205 176.45L219.181 198.681L196.632 175.18L196.95 258.705L174.719 198.681L196.632 175.18Z" fill="#BF67E9"/>
<path d="M155 325L175 290.5V320L131 363L23 272.5L33.5 238L27 207.5L45.5 232.5C49 244.667 56.4 269.3 58 270.5C59.6 271.7 101.333 313.333 122 334L155 325Z" fill="#8D0FC9"/>
<path d="M243 325L223.5 290L223 320L267 362.5L375 272.5L364.5 238L370.5 209.5L352.5 232.5C349 244.667 341.6 269.3 340 270.5C338.4 271.7 296.667 313.333 276 334L243 325Z" fill="#8D0FC9"/>
</svg>
