<svg width="400" height="400" viewBox="0 0 400 400" fill="none" xmlns="http://www.w3.org/2000/svg">
<path d="M38.4717 81.8137C36.5406 61.399 39.2994 17.5902 39.2994 15.6039L103.854 43.7431L253.654 232.441L271.034 218.372L275.172 222.51L271.034 242.373C278.207 242.649 293.049 246.345 295.035 245.683C297.021 245.021 300.828 240.717 302.484 239.062L301.656 228.303L300.828 221.682L294.207 201.621L290.897 197.483L300.828 195L317.381 210.095L332.278 234.924L331.45 257.27L303.311 274.65L306.622 296.996L318.208 316.859L335.588 334.239L353.796 337.549L358.762 357.412L362.9 383.069L351.313 393L306.622 368.999C304.691 367.344 308.939 355.591 308.277 354.929C307.615 354.267 302.208 343.343 299.173 337.549L275.172 321.824L253.654 316.031C238.757 335.894 218.066 340.198 214.755 340.86C210.617 341.687 187.444 337.549 185.789 335.894C184.464 334.57 176.685 324.583 173.374 318.514L170.064 290.375L173.374 280.443L179.995 275.478C183.306 284.581 189.43 300.306 190.754 303.617C192.079 306.927 197.375 309.134 199.031 310.238L214.755 308.582L223.859 298.651V282.926H203.996V280.443L218.894 266.374L38.4717 81.8137Z" fill="black" fill-opacity="0.5"/>
<path d="M246.273 276.149L247.823 305.074L273.975 313.618L298.045 329.732L312.465 351.337L332.42 354.929L335.73 335.066L315.867 316.859L301.925 293.885L295.177 261.39L258.742 261.39L246.273 276.149Z" fill="black" fill-opacity="0.5"/>
<path d="M306.875 361.748L310.946 342.698L329.109 330.219L349.817 335.111L358.904 376.448L348.145 384.724L306.875 361.748Z" fill="black" fill-opacity="0.5"/>
<path d="M174.344 312.72L176 286.236C176.767 284.008 181.829 280.112 181.793 278.788C181.757 277.464 183.624 283.237 185.103 296.996C186.511 298.061 189.704 306.218 192.551 307.755C194.394 308.749 207.219 308.303 211.587 306.529C217.065 305 221.702 300.158 222.346 299.478C222.99 298.799 224.001 295.34 224.829 292.03L224.829 286.236L224.829 275.477C216.448 275.477 207.363 275.441 206.039 275.477C204.715 275.513 245.94 239.615 269.124 219.39L267.227 240.968L281.381 243.895L294.618 243.535L304.366 236.646L303.984 222.582L300.142 213.406L286.895 194.655L294.618 193L314.212 207.612L326.626 230.786L326.626 251.476L288.555 272.204L275.528 272.204L259.409 288.373L257.933 296.996L237.243 322.652L211.587 333.411L186.758 327.618L174.344 312.72Z" fill="black" fill-opacity="0.5"/>
<path d="M250.485 265.546L223.173 263.063L41.0964 76.8479L36.1306 17.259L98.2024 43.743L252.14 236.579L250.485 265.546Z" fill="black" fill-opacity="0.5"/>
<path d="M53.5107 69.3993L50.2002 32.1562L86.6156 46.2258L234.76 231.613V244.855L224.001 241.545L53.5107 69.3993Z" fill="black" fill-opacity="0.5"/>
<path d="M265.382 278.788L288.556 271.339L295.177 294.513L308.419 313.548L326.626 332.584L337.385 338.377L332.42 352.447H316.695L313.384 340.86L297.659 320.169L279.452 306.927L255.451 301.134L265.382 278.788Z" fill="black" fill-opacity="0.5"/>
<path d="M39.4411 69.3994C37.51 48.9847 36.9583 8.4863 36.9583 6.5L104.823 31.3287L257.934 219.199L272.003 205.957L276.141 210.095L272.003 229.958C279.176 230.234 294.018 233.931 296.004 233.269C297.991 232.607 301.798 228.303 303.453 226.648L302.625 215.889L301.798 209.268L290.81 196.138L287.5 192L297.431 189.517L318.35 197.681L333.247 222.51L332.42 244.855L304.281 262.236L307.591 284.581L319.178 304.444L336.558 321.824L354.766 325.135L359.731 344.998L363.869 370.654L352.283 380.586L307.591 356.585C305.66 354.929 309.908 343.177 309.246 342.515C308.584 341.853 303.177 330.928 300.142 325.135L276.141 309.41L254.623 303.617C239.726 323.48 219.035 327.783 215.725 328.445C211.587 329.273 188.413 325.135 186.758 323.48C185.434 322.155 177.654 312.169 174.344 306.1L172.569 284.397L175.879 274.466L182.5 269.5C185.81 278.604 190.4 287.892 191.724 291.202C193.048 294.513 198.345 296.72 200 297.823L215.725 296.168L224.829 286.237V270.512H204.966V268.029L218.208 256.442L39.4411 69.3994Z" fill="#1B0D0D"/>
<path d="M248.755 268.7L250.306 297.625L276.457 306.169L300.528 322.284L314.947 343.888L334.903 347.481L338.213 327.618L318.35 309.41L304.408 286.437L297.66 253.942L261.225 253.942L248.755 268.7Z" fill="#411C39"/>
<path d="M309.358 354.299L313.428 335.249L331.592 322.77L352.3 327.662L361.386 368.999L350.627 377.275L309.358 354.299Z" fill="#411C39"/>
<path d="M176.827 305.272L175.207 282.449C175.974 280.22 181.036 276.324 181 275C180.964 273.676 182.5 278.788 187.586 289.547C188.995 290.613 192.187 298.769 195.034 300.306C196.877 301.301 209.703 300.855 214.07 299.08C219.548 297.551 224.185 292.71 224.829 292.03C225.473 291.35 226.484 287.892 227.312 284.581L227.312 278.788L227.312 268.029C218.932 268.029 209.846 267.993 208.522 268.029C207.199 268.065 248.423 232.167 271.607 211.942L269.71 233.52L283.865 236.446L297.102 236.086L306.85 229.198L306.467 215.133L302.626 205.957L291.277 193.655L299 192L316.695 200.164L329.11 223.337L329.11 244.028L291.039 264.755L278.011 264.755L261.893 280.924L260.417 289.547L239.726 315.203L214.07 325.962L189.241 320.169L176.827 305.272Z" fill="#411C39"/>
<path d="M252.968 256.442H223.174L43.5793 67.7441V14.7762L100.685 34.6392L257.934 225.82L252.968 256.442Z" fill="#B10DFF"/>
<path d="M55.9936 61.9507L52.6831 24.7076L89.0985 38.7772L237.243 224.165V237.407L226.484 234.096L55.9936 61.9507Z" fill="#DC93FF"/>
<path d="M267.865 271.339L291.039 263.891L297.66 287.064L310.901 306.1L329.109 325.135L339.868 330.928L334.903 344.998H319.178L315.867 333.411L300.142 312.721L281.935 299.479L257.934 293.685L267.865 271.339Z" fill="#502546"/>
</svg>
