<svg width="400" height="400" viewBox="0 0 400 400" fill="none" xmlns="http://www.w3.org/2000/svg">
<g clip-path="url(#clip0_147_62)">
<path d="M45.2175 106.117L8.84328 25.2583C7.59639 22.4865 10.4663 19.6572 13.22 20.9434L92.3062 57.8826C95.3822 59.3193 95.4769 63.659 92.4665 65.2285L82.8727 70.2304L93.0136 80.3714C93.0136 80.3714 97.157 86.3691 96.9252 86.6009C96.6934 86.8327 279.173 269.042 370.442 360.118L376.237 368.231C376.14 371.128 375.831 377.097 375.368 377.792C374.904 378.487 371.118 382.911 369.283 385.036L359.866 390.396L352.623 387.788L74.1804 109.346L68.0958 105.579L58.2446 95.7278L51.7382 106.51C50.2016 109.056 46.4377 108.83 45.2175 106.117Z" fill="black" fill-opacity="0.5"/>
<rect x="62.4458" y="93.265" width="25.8147" height="418.772" rx="12.9074" transform="rotate(-45 62.4458 93.265)" fill="black" fill-opacity="0.5"/>
<rect x="78.0913" y="99.6392" width="13.1122" height="345.016" rx="6.55612" transform="rotate(-45 78.0913 99.6392)" fill="black" fill-opacity="0.5"/>
<path d="M59.5483 91.5267L79.3957 71.6793L90.4059 83.8485L94.0277 95.8728L92.4341 105.579L83.4521 106.448L71.5727 102.682L59.5483 91.5267Z" fill="black" fill-opacity="0.5"/>
<path d="M12.8443 27.0554L47.3927 103.651C47.8072 104.57 49.091 104.627 49.5849 103.748L56.9404 90.6573L88.8121 100.798L78.9609 68.6369L90.5099 62.68C91.4154 62.213 91.3923 60.9103 90.4708 60.4757L15.0376 24.899C13.6596 24.2492 12.2179 25.6666 12.8443 27.0554Z" fill="black" fill-opacity="0.5"/>
<path d="M48.1279 93.697C43.94 84.1516 22.3811 34.9943 22.1718 34.1573L81.3974 60.3857C82.0361 60.6686 82.0508 61.5697 81.4216 61.8732L70.7037 67.043L74.76 76.6045L85.9151 87.7596L85.7703 98.0455L75.3395 98.3352C75.3395 98.3352 64.8798 87.4119 64.1844 87.1801L55.0576 82.6891L49.6069 93.7173C49.2984 94.3414 48.4075 94.3345 48.1279 93.697Z" fill="black" fill-opacity="0.5"/>
<path d="M49.2175 97.1173L12.8433 16.2583C11.5964 13.4865 14.4663 10.6572 17.22 11.9434L96.3062 48.8826C99.3822 50.3193 99.4769 54.659 96.4665 56.2285L86.8727 61.2304L97.0136 71.3714C97.0136 71.3714 101.157 77.3691 100.925 77.6009C100.693 77.8327 283.173 260.042 374.442 351.118L380.237 359.231C380.14 362.128 379.831 368.097 379.368 368.792C378.904 369.487 375.118 373.911 373.283 376.036L363.866 381.396L356.623 378.788L78.1804 100.346L72.0958 96.579L62.2446 86.7278L55.7382 97.5097C54.2016 100.056 50.4377 99.8296 49.2175 97.1173Z" fill="#200707"/>
<rect x="66.4458" y="84.265" width="25.8147" height="418.772" rx="12.9074" transform="rotate(-45 66.4458 84.265)" fill="#411C39"/>
<rect x="82.0913" y="90.6392" width="13.1122" height="345.016" rx="6.55612" transform="rotate(-45 82.0913 90.6392)" fill="#502546"/>
<path d="M63.5483 82.5267L83.3957 62.6793L94.4059 74.8485L98.0277 86.8728L96.4341 96.5792L87.4521 97.4484L75.5727 93.6818L63.5483 82.5267Z" fill="#B10DFF"/>
<path d="M16.8443 18.0554L51.3927 94.6509C51.8072 95.57 53.091 95.6267 53.5849 94.7477L60.9404 81.6573L92.8121 91.7983L82.9609 59.6369L94.5099 53.68C95.4154 53.213 95.3923 51.9103 94.4708 51.4757L19.0376 15.899C17.6596 15.2492 16.2179 16.6666 16.8443 18.0554Z" fill="#B10DFF"/>
<path d="M52.1279 84.697C47.94 75.1516 26.3811 25.9943 26.1718 25.1572L85.3974 51.3857C86.0361 51.6686 86.0508 52.5697 85.4216 52.8732L74.7037 58.043L78.76 67.6045L89.9151 78.7596L89.7703 89.0454L79.3395 89.3352C79.3395 89.3352 68.8798 78.4119 68.1844 78.1801L59.0576 73.6891L53.6069 84.7172C53.2984 85.3413 52.4075 85.3345 52.1279 84.697Z" fill="#DC93FF"/>
</g>
<defs>
<clipPath id="clip0_147_62">
<rect width="400" height="400" fill="white"/>
</clipPath>
</defs>
</svg>
