<svg width="1001" height="1001" viewBox="0 0 1001 1001" fill="none" xmlns="http://www.w3.org/2000/svg">
<path d="M826.212 887.869L406.119 441.188L360.919 446.506L336.99 435.871L283.814 459.8L217.343 518.294L63.132 773.54L33.885 792.152C33.885 785.062 28.5674 766.096 28.5674 757.587C28.5674 746.952 41.8615 598.059 55.1555 576.788C62.7179 564.688 117.195 434.098 145.555 374.718L190.755 329.518L225.32 297.613C217.343 263.048 227.978 259.503 227.978 249.754C233.296 250.64 215.748 228.483 209.367 217.848C207.594 212.531 198.731 204.554 209.367 159.354C265.202 119.472 249.249 127.448 257.225 127.448C273.178 127.448 281.155 122.131 289.131 127.448C295.512 131.703 308.629 136.311 310.402 140.742L326.355 148.719C332.558 148.719 347.625 135.425 368.896 140.742C373.023 141.774 453.978 64.5231 493.86 26.4134C499.177 22.8684 513.535 17.9053 517.789 15.7783C522.043 13.6512 601.985 111.496 642.753 162.013L586.918 239.119L507.64 274.922C508.197 276.726 508.909 278.948 509.813 281.66C518.321 307.184 511.585 329.518 504.495 337.495L969.788 840.011L972.446 882.552L940.541 927.752C927.247 932.183 909.89 933.069 898 933.069C890.023 933.069 874.957 916.23 860.776 911.799L826.212 887.869Z" fill="#200707"/>
<rect x="192.404" y="189.359" width="106.353" height="1029.37" rx="53.1763" transform="rotate(-43.347 192.404 189.359)" fill="#411C39"/>
<path d="M629.459 164.672L520.447 26.4138C467.271 42.3667 316.603 238.235 310.401 244.437C299.766 255.072 254.566 286.978 241.272 294.954C226.674 303.713 168.167 367.723 156.19 382.695C145.555 395.989 47.1789 608.694 47.1789 651.235C47.1788 693.776 31.2264 728.341 47.1789 776.199L84.402 715.047L132.261 627.306L204.049 512.977L275.837 443.848L355.601 414.601L408.777 332.177L509.812 260.389L581.601 228.484L629.459 164.672Z" fill="#B10DFF"/>
<path d="M570.966 162.013L517.79 82.2486C475.072 92.7705 332.04 244.158 327.044 248.304C318.477 255.414 320.142 262.113 281.155 284.318C281.155 284.318 221.684 338.109 212.026 348.13C203.45 357.028 114.671 492.223 114.533 520.828C114.396 549.434 101.484 572.614 114.129 604.857L144.193 563.88L182.876 505.066L240.844 428.466L298.667 382.259L362.76 362.9L405.692 307.682L486.99 259.8L541.719 217.848L570.966 162.013Z" fill="#DC93FF"/>
<path d="M219.324 298.885C207.951 286.836 208.499 267.849 220.548 256.476L335.464 148.007C347.512 136.634 366.499 137.182 377.872 149.231L502.888 281.676C514.261 293.725 513.713 312.712 501.664 324.085L386.748 432.554C374.699 443.927 355.712 443.379 344.339 431.33L219.324 298.885Z" fill="#C54AFF"/>
<path d="M411.039 227.053C415.587 227.666 419.135 231.296 419.643 235.857L431.906 346.013C432.625 352.478 427.079 357.898 420.633 357.03L310.788 342.238C306.239 341.626 302.692 337.995 302.184 333.434L289.921 223.278C289.201 216.814 294.747 211.393 301.194 212.261L411.039 227.053Z" fill="#E09DFF"/>
<path d="M371.555 425.201C358.418 380.614 362.429 340.595 384.08 320.159C405.731 299.723 450.105 300.503 493.861 316.19L535.766 480.86L371.555 425.201Z" fill="#8D0FC9"/>
<path d="M371.555 425.201C358.418 380.614 362.429 340.595 384.08 320.159C405.731 299.723 450.105 300.503 493.861 316.19L535.766 480.86L371.555 425.201Z" fill="#8D0FC9"/>
<path d="M387.21 432.436C372.964 388.287 376.485 352.607 396.997 333.246C417.509 313.885 453.332 312.428 496.587 329.196L550.301 495.661L387.21 432.436Z" fill="#411C39"/>
<path d="M387.21 432.436C372.964 388.287 376.485 352.607 396.997 333.246C417.509 313.885 453.332 312.428 496.587 329.196L550.301 495.661L387.21 432.436Z" fill="#411C39"/>
<rect x="441.506" y="409.602" width="54.7429" height="657.424" rx="27.3714" transform="rotate(-43.347 441.506 409.602)" fill="#502546"/>
</svg>
