<svg width="501" height="501" viewBox="0 0 501 501" fill="none" xmlns="http://www.w3.org/2000/svg">
<g clip-path="url(#clip0_147_175)">
<mask id="path-1-outside-1_147_175" maskUnits="userSpaceOnUse" x="61.4968" y="62.9532" width="451.134" height="451.134" fill="black">
<rect fill="white" x="61.4968" y="62.9532" width="451.134" height="451.134"/>
<path d="M91.7361 92.818C102.188 82.3657 119.135 82.3657 129.587 92.818L482.864 446.095C493.316 456.547 493.316 473.493 482.864 483.946V483.946C472.412 494.398 455.465 494.398 445.013 483.946L91.7361 130.669C81.2838 120.217 81.2838 103.27 91.7361 92.818V92.818Z"/>
</mask>
<path d="M91.7361 92.818C102.188 82.3657 119.135 82.3657 129.587 92.818L482.864 446.095C493.316 456.547 493.316 473.493 482.864 483.946V483.946C472.412 494.398 455.465 494.398 445.013 483.946L91.7361 130.669C81.2838 120.217 81.2838 103.27 91.7361 92.818V92.818Z" fill="#411C39"/>
<path d="M91.7361 130.669L86.5746 135.831L91.7361 130.669ZM482.864 446.095L477.702 451.256L482.864 446.095ZM124.426 97.9795L477.702 451.256L488.025 440.933L134.749 87.6565L124.426 97.9795ZM450.174 478.784L96.8976 125.507L86.5746 135.831L439.851 489.107L450.174 478.784ZM96.8976 125.507C89.2959 117.906 89.2959 105.581 96.8976 97.9795L86.5746 87.6565C73.2717 100.959 73.2716 122.528 86.5746 135.831L96.8976 125.507ZM477.702 478.784C470.101 486.386 457.776 486.386 450.174 478.784L439.851 489.107C453.154 502.41 474.722 502.41 488.025 489.107L477.702 478.784ZM477.702 451.256C485.304 458.858 485.304 471.183 477.702 478.784L488.025 489.107C501.328 475.804 501.328 454.236 488.025 440.933L477.702 451.256ZM134.749 87.6565C121.446 74.3536 99.8775 74.3536 86.5746 87.6565L96.8976 97.9795C104.499 90.3778 116.824 90.3778 124.426 97.9795L134.749 87.6565Z" fill="#200707" mask="url(#path-1-outside-1_147_175)"/>
<mask id="path-3-outside-2_147_175" maskUnits="userSpaceOnUse" x="-27.6382" y="-25.0075" width="425.678" height="425.678" fill="black">
<rect fill="white" x="-27.6382" y="-25.0075" width="425.678" height="425.678"/>
<path fill-rule="evenodd" clip-rule="evenodd" d="M103.824 106.574L90.1392 146.303L100.701 157.965L32.3185 182.387L48.0977 201.117L10.2354 219.115L10.4931 232.068L54.2189 253.607L56.1046 294.909L93.7306 296.627L111.864 333.438L125.678 334.558L157.996 291.152L199.648 267.21L206.014 274.239L265.788 268.538L271.488 208.764L264.477 202.369L288.35 160.835L331.61 128.625L331.549 113.754L293.816 95.1664L292.158 58.8554L252.171 57.0297L230.178 12.3827L216.168 13.1829L198.293 50.786L179.637 35.069L155.416 102.887L143.984 92.459L103.824 106.574Z"/>
</mask>
<path fill-rule="evenodd" clip-rule="evenodd" d="M103.824 106.574L90.1392 146.303L100.701 157.965L32.3185 182.387L48.0977 201.117L10.2354 219.115L10.4931 232.068L54.2189 253.607L56.1046 294.909L93.7306 296.627L111.864 333.438L125.678 334.558L157.996 291.152L199.648 267.21L206.014 274.239L265.788 268.538L271.488 208.764L264.477 202.369L288.35 160.835L331.61 128.625L331.549 113.754L293.816 95.1664L292.158 58.8554L252.171 57.0297L230.178 12.3827L216.168 13.1829L198.293 50.786L179.637 35.069L155.416 102.887L143.984 92.459L103.824 106.574Z" fill="#B10DFF"/>
<path d="M90.1392 146.303L83.2377 143.926L81.8325 148.006L84.729 151.203L90.1392 146.303ZM103.824 106.574L101.403 99.6878L98.0722 100.859L96.9222 104.197L103.824 106.574ZM100.701 157.965L103.156 164.839L113.447 161.164L106.111 153.064L100.701 157.965ZM32.3185 182.387L29.8634 175.513L19.9618 179.049L26.736 187.09L32.3185 182.387ZM48.0977 201.117L51.2316 207.709L59.7748 203.648L53.6802 196.414L48.0977 201.117ZM10.2354 219.115L7.10155 212.523L2.84361 214.547L2.93739 219.261L10.2354 219.115ZM10.4931 232.068L3.19506 232.213L3.28339 236.653L7.26748 238.616L10.4931 232.068ZM54.2189 253.607L61.5107 253.274L61.314 248.965L57.4445 247.059L54.2189 253.607ZM56.1046 294.909L48.8127 295.242L49.1165 301.897L55.7717 302.201L56.1046 294.909ZM93.7306 296.627L100.279 293.401L98.3725 289.532L94.0635 289.335L93.7306 296.627ZM111.864 333.438L105.316 336.664L107.146 340.38L111.275 340.714L111.864 333.438ZM125.678 334.558L125.088 341.833L129.118 342.16L131.532 338.917L125.678 334.558ZM157.996 291.152L154.358 284.823L153.046 285.578L152.141 286.792L157.996 291.152ZM199.648 267.21L205.058 262.31L201.11 257.951L196.01 260.882L199.648 267.21ZM206.014 274.239L200.603 279.139L203.062 281.853L206.707 281.505L206.014 274.239ZM265.788 268.538L266.481 275.805L272.482 275.232L273.054 269.231L265.788 268.538ZM271.488 208.764L278.755 209.457L279.101 205.828L276.408 203.371L271.488 208.764ZM264.477 202.369L258.148 198.731L255.228 203.812L259.558 207.761L264.477 202.369ZM288.35 160.835L283.991 154.98L282.777 155.884L282.022 157.197L288.35 160.835ZM331.61 128.625L335.969 134.48L338.925 132.28L338.91 128.595L331.61 128.625ZM331.549 113.754L338.848 113.724L338.83 109.203L334.774 107.206L331.549 113.754ZM293.816 95.1664L286.524 95.4993L286.721 99.8083L290.59 101.714L293.816 95.1664ZM292.158 58.8554L299.45 58.5224L299.146 51.8673L292.491 51.5635L292.158 58.8554ZM252.171 57.0297L245.623 60.2553L247.529 64.1248L251.838 64.3216L252.171 57.0297ZM230.178 12.3827L236.726 9.15709L234.589 4.81936L229.762 5.0951L230.178 12.3827ZM216.168 13.1829L215.752 5.89531L211.433 6.14199L209.575 10.049L216.168 13.1829ZM198.293 50.786L193.59 56.3685L200.824 62.4632L204.885 53.9199L198.293 50.786ZM179.637 35.069L184.34 29.4865L176.299 22.7123L172.762 32.6139L179.637 35.069ZM155.416 102.887L150.497 108.28L158.601 115.672L162.29 105.342L155.416 102.887ZM143.984 92.459L148.903 87.066L145.679 84.1257L141.563 85.5725L143.984 92.459ZM97.0407 148.681L110.725 108.952L96.9222 104.197L83.2377 143.926L97.0407 148.681ZM106.111 153.064L95.5494 141.403L84.729 151.203L95.291 162.865L106.111 153.064ZM98.2461 151.09L29.8634 175.513L34.7736 189.261L103.156 164.839L98.2461 151.09ZM26.736 187.09L42.5152 205.82L53.6802 196.414L37.9009 177.684L26.736 187.09ZM44.9638 194.524L7.10155 212.523L13.3693 225.708L51.2316 207.709L44.9638 194.524ZM2.93739 219.261L3.19506 232.213L17.7911 231.922L17.5335 218.97L2.93739 219.261ZM7.26748 238.616L50.9933 260.155L57.4445 247.059L13.7187 225.519L7.26748 238.616ZM46.927 253.94L48.8127 295.242L63.3965 294.576L61.5107 253.274L46.927 253.94ZM55.7717 302.201L93.3976 303.919L94.0635 289.335L56.4375 287.617L55.7717 302.201ZM87.1824 299.852L105.316 336.664L118.412 330.213L100.279 293.401L87.1824 299.852ZM111.275 340.714L125.088 341.833L126.267 327.282L112.453 326.163L111.275 340.714ZM131.532 338.917L163.851 295.511L152.141 286.792L119.823 330.198L131.532 338.917ZM161.634 297.48L203.285 273.539L196.01 260.882L154.358 284.823L161.634 297.48ZM211.424 269.339L205.058 262.31L194.238 272.111L200.603 279.139L211.424 269.339ZM265.094 261.272L205.321 266.972L206.707 281.505L266.481 275.805L265.094 261.272ZM264.222 208.071L258.521 267.845L273.054 269.231L278.755 209.457L264.222 208.071ZM259.558 207.761L266.569 214.157L276.408 203.371L269.396 196.976L259.558 207.761ZM270.805 206.006L294.679 164.472L282.022 157.197L258.148 198.731L270.805 206.006ZM292.71 166.689L335.969 134.48L327.251 122.77L283.991 154.98L292.71 166.689ZM338.91 128.595L338.848 113.724L324.249 113.784L324.311 128.655L338.91 128.595ZM334.774 107.206L297.042 88.6182L290.59 101.714L328.323 120.302L334.774 107.206ZM301.108 94.8334L299.45 58.5224L284.866 59.1883L286.524 95.4993L301.108 94.8334ZM292.491 51.5635L252.504 49.7378L251.838 64.3216L291.825 66.1472L292.491 51.5635ZM258.719 53.8041L236.726 9.15709L223.63 15.6083L245.623 60.2553L258.719 53.8041ZM229.762 5.0951L215.752 5.89531L216.584 20.4705L230.594 19.6703L229.762 5.0951ZM209.575 10.049L191.7 47.6522L204.885 53.9199L222.76 16.3168L209.575 10.049ZM202.996 45.2036L184.34 29.4865L174.934 40.6515L193.59 56.3685L202.996 45.2036ZM172.762 32.6139L148.542 100.432L162.29 105.342L186.511 37.5241L172.762 32.6139ZM139.064 97.8519L150.497 108.28L160.335 97.4942L148.903 87.066L139.064 97.8519ZM106.244 113.461L146.404 99.3454L141.563 85.5725L101.403 99.6878L106.244 113.461Z" fill="#200707" mask="url(#path-3-outside-2_147_175)"/>
<rect x="250.281" y="213.401" width="327.738" height="53.6077" rx="26.8039" transform="rotate(45 250.281 213.401)" fill="#411C39"/>
<rect x="253.727" y="230.632" width="328.957" height="34.114" rx="17.057" transform="rotate(45 253.727 230.632)" fill="#502546"/>
<path d="M65.0566 284.907L63.7644 247.431L21.9812 222.017L66.3489 205.217L50.411 189.279L117.178 162.142L99.517 144.481L108.994 110.882L141.731 102.267L161.546 119.497L184.376 55.3145L198.591 66.0834L221.421 36.3613L243.82 69.9602L282.588 67.3757L65.0566 284.907Z" fill="#DC93FF"/>
<path d="M123.799 133.14C121.62 128.401 126.513 123.509 131.252 125.688L174.705 145.669C176.195 146.354 177.91 146.354 179.4 145.669L222.853 125.688C227.593 123.509 232.485 128.401 230.306 133.14L210.325 176.594C209.64 178.084 209.64 179.799 210.325 181.289L230.306 224.742C232.485 229.481 227.593 234.373 222.853 232.194L179.4 212.214C177.91 211.529 176.195 211.529 174.705 212.214L131.252 232.194C126.513 234.373 121.62 229.481 123.799 224.742L143.78 181.289C144.465 179.799 144.465 178.084 143.78 176.594L123.799 133.14Z" fill="#B10DFF"/>
<path d="M134.769 136.657L177.053 156.1L219.337 136.657L199.894 178.941L219.337 221.225L177.053 201.782L134.769 221.225L154.212 178.941L134.769 136.657Z" fill="#DC93FF"/>
<path d="M176.181 178.449L134.553 221.389L154.056 178.941L176.181 178.449L134.553 136.493L177.001 155.996L176.181 178.449L219.449 136.493L199.946 178.941L176.181 178.449L219.449 221.389L177.001 201.886L176.181 178.449Z" fill="#BF67E9"/>
</g>
<defs>
<clipPath id="clip0_147_175">
<rect width="500" height="500" fill="white" transform="translate(0.375 0.625)"/>
</clipPath>
</defs>
</svg>
