<svg width="400" height="400" viewBox="0 0 400 400" fill="none" xmlns="http://www.w3.org/2000/svg">
<path d="M328.058 374.205L160.021 195.533L141.941 197.66L132.369 193.406L111.098 202.977L84.5103 226.375L22.8258 328.473L11.1271 335.918C11.1271 333.082 9 325.495 9 322.092C9 317.838 14.3176 258.281 19.6353 249.772C22.6602 244.933 44.4509 192.697 55.7951 168.944L73.8751 150.865L87.7009 138.102C84.5103 124.276 88.7644 122.858 88.7644 118.959C90.8915 119.313 83.8722 110.451 81.3197 106.196C80.6107 104.069 77.0656 100.879 81.3197 82.7989C103.654 66.846 97.2726 70.0366 100.463 70.0366C106.844 70.0366 110.035 67.9095 113.226 70.0366C115.778 71.7382 121.025 73.5816 121.734 75.3542L128.115 78.5448C130.596 78.5448 136.623 73.2272 145.131 75.3542C146.782 75.7669 179.164 44.8664 195.117 29.6226C197.244 28.2045 202.987 26.2193 204.689 25.3685C206.39 24.5177 238.367 63.6554 254.674 83.8624L232.34 114.705L200.629 129.026C200.852 129.747 201.137 130.636 201.498 131.721C204.901 141.931 202.207 150.865 199.371 154.055L385.488 355.061L386.552 372.078L373.789 390.158C368.472 391.93 361.529 392.285 356.773 392.285C353.582 392.285 347.556 385.549 341.884 383.777L328.058 374.205Z" fill="black" fill-opacity="0.5"/>
<rect x="74.5342" y="94.8005" width="42.541" height="411.75" rx="21.2705" transform="rotate(-43.347 74.5342 94.8005)" fill="black" fill-opacity="0.5"/>
<rect x="76.5803" y="96.4756" width="41.9318" height="405.854" rx="20.9659" transform="rotate(-43.347 76.5803 96.4756)" fill="black" fill-opacity="0.5"/>
<path d="M249.357 84.9258L205.752 29.6224C184.481 36.0036 124.214 114.351 121.733 116.832C117.479 121.086 99.3994 133.848 94.0818 137.039C88.2424 140.542 64.8399 166.146 60.049 172.135C55.7949 177.452 16.4445 262.535 16.4445 279.551C16.4445 296.567 10.0635 310.393 16.4445 329.537L31.3338 305.076L50.4773 269.979L79.1925 224.248L107.908 196.596L139.813 184.897L161.084 151.928L201.498 123.213L230.213 110.45L249.357 84.9258Z" fill="black" fill-opacity="0.5"/>
<path d="M225.959 83.8622L204.689 51.9565C187.602 56.1653 130.389 116.72 128.391 118.379C124.964 121.223 125.63 123.902 110.035 132.784C110.035 132.784 86.2466 154.301 82.3833 158.309C78.9528 161.868 43.4411 215.946 43.3861 227.388C43.3311 238.831 38.1666 248.103 43.2245 261L55.2499 244.609L70.7231 221.083L93.9105 190.443L117.04 171.961L142.677 164.217L159.85 142.13L192.369 122.977L214.26 106.196L225.959 83.8622Z" fill="black" fill-opacity="0.5"/>
<rect x="79.5719" y="131.126" width="87.2091" height="96.8512" rx="12" transform="rotate(-43.347 79.5719 131.126)" fill="black" fill-opacity="0.5"/>
<rect x="183.418" y="178.516" width="12.103" height="262.969" rx="6.05151" transform="rotate(-43.347 183.418 178.516)" fill="black" fill-opacity="0.5"/>
<path d="M146.793 184.19C141.095 166.53 142.503 152.258 150.708 144.513C158.912 136.769 173.242 136.186 190.543 142.893L212.029 209.479L146.793 184.19Z" fill="black" fill-opacity="0.5"/>
<path d="M330.185 355.048L162.148 176.375L144.068 178.502L134.496 174.248L113.226 183.82L86.6374 207.218L24.9529 309.316L13.2541 316.761C13.2541 313.925 11.1271 306.338 11.1271 302.935C11.1271 298.681 16.4447 239.123 21.7623 230.615C24.7873 225.775 46.5779 173.539 57.9222 149.787L76.0021 131.707L89.8279 118.945C86.6374 105.119 90.8915 103.701 90.8915 99.8015C93.0185 100.156 85.9993 91.2933 83.4468 87.0392C82.7378 84.9122 79.1927 81.7216 83.4468 63.6417C105.781 47.6888 99.3997 50.8794 102.59 50.8794C108.971 50.8794 112.162 48.7523 115.353 50.8794C117.905 52.581 123.152 54.4244 123.861 56.197L130.242 59.3876C132.723 59.3876 138.75 54.0699 147.258 56.197C148.909 56.6097 181.291 25.7092 197.244 10.4654C199.371 9.04732 205.114 7.0621 206.816 6.21128C208.517 5.36046 240.494 44.4982 256.801 64.7052L234.467 95.5474L202.756 109.869C202.979 110.59 203.264 111.479 203.625 112.564C207.028 122.774 204.334 131.707 201.498 134.898L387.615 335.904L388.679 352.921L375.916 371.001C370.599 372.773 363.656 373.128 358.9 373.128C355.709 373.128 349.683 366.392 344.011 364.619L330.185 355.048Z" fill="#200707"/>
<rect x="76.6613" y="75.6434" width="42.541" height="411.75" rx="21.2705" transform="rotate(-43.347 76.6613 75.6434)" fill="#411C39"/>
<path d="M251.484 65.7688L207.879 10.4655C186.609 16.8466 126.341 95.194 123.861 97.6746C119.606 101.929 101.526 114.691 96.2089 117.882C90.3694 121.385 66.9669 146.989 62.176 152.978C57.9219 158.296 18.5716 243.378 18.5716 260.394C18.5716 277.41 12.1906 291.236 18.5716 310.38L33.4608 285.919L52.6043 250.822L81.3195 205.091L110.035 177.439L141.94 165.74L163.211 132.771L203.625 104.056L232.34 91.2934L251.484 65.7688Z" fill="#B10DFF"/>
<path d="M228.086 64.7051L206.816 32.7994C189.729 37.0082 132.516 97.5631 130.518 99.2215C127.091 102.066 127.757 104.745 112.162 113.627C112.162 113.627 88.3737 135.144 84.5103 139.152C81.0799 142.711 45.5682 196.789 45.5131 208.231C45.4581 219.673 40.2936 228.946 45.3515 241.843L57.377 225.452L72.8502 201.926L96.0376 171.286L119.167 152.803L144.804 145.06L161.977 122.973L194.496 103.82L216.388 87.0392L228.086 64.7051Z" fill="#DC93FF"/>
<path d="M87.4297 119.454C82.8805 114.634 83.0997 107.04 87.9192 102.49L133.886 59.1028C138.705 54.5536 146.3 54.7728 150.849 59.5923L200.855 112.57C205.404 117.39 205.185 124.985 200.366 129.534L154.399 172.922C149.58 177.471 141.985 177.252 137.436 172.432L87.4297 119.454Z" fill="#C54AFF"/>
<path d="M164.115 90.7212C165.934 90.9662 167.353 92.4183 167.557 94.2429L172.462 138.305C172.75 140.891 170.531 143.059 167.953 142.712L124.015 136.795C122.195 136.55 120.776 135.098 120.573 133.274L115.668 89.2112C115.38 86.6253 117.598 84.4572 120.177 84.8045L164.115 90.7212Z" fill="#E09DFF"/>
<path d="M148.322 169.98C143.067 152.145 144.671 136.138 153.332 127.963C161.992 119.789 179.742 120.101 197.244 126.376L214.006 192.244L148.322 169.98Z" fill="#8D0FC9"/>
<path d="M148.322 169.98C143.067 152.145 144.671 136.138 153.332 127.963C161.992 119.789 179.742 120.101 197.244 126.376L214.006 192.244L148.322 169.98Z" fill="#8D0FC9"/>
<path d="M154.584 172.875C148.885 155.215 150.294 140.943 158.498 133.198C166.703 125.454 181.033 124.871 198.334 131.578L219.82 198.165L154.584 172.875Z" fill="#411C39"/>
<path d="M154.584 172.875C148.885 155.215 150.294 140.943 158.498 133.198C166.703 125.454 181.033 124.871 198.334 131.578L219.82 198.165L154.584 172.875Z" fill="#411C39"/>
<rect x="176.303" y="163.741" width="21.8972" height="262.969" rx="10.9486" transform="rotate(-43.347 176.303 163.741)" fill="#502546"/>
</svg>
