<svg width="1001" height="1001" viewBox="0 0 1001 1001" fill="none" xmlns="http://www.w3.org/2000/svg">
<path d="M99.3527 173.748C94.5248 122.712 93.1455 21.4657 93.1455 16.5L262.808 78.5717L645.584 548.248L680.758 515.143L691.103 525.488L680.758 575.146C698.69 575.835 735.795 585.077 740.761 583.422C745.726 581.767 755.244 571.008 759.382 566.869L757.313 539.972L755.244 523.419L727.776 490.595L719.5 480.25L744.328 474.043L796.625 494.452L833.868 556.524L831.799 612.389L761.451 655.839L769.727 711.703L798.694 761.361L842.145 804.811L887.664 813.087L900.078 862.745L910.423 926.885L881.457 951.714L769.727 891.711C764.9 887.573 775.521 858.193 773.866 856.538C772.21 854.882 758.693 827.571 751.106 813.087L691.103 773.775L637.308 759.292C600.065 808.949 548.338 819.708 540.062 821.364C529.717 823.433 471.783 813.087 467.645 808.949C464.335 805.639 444.885 780.672 436.609 765.499L432.171 711.243L440.447 686.414L457 674C465.276 696.76 476.749 719.98 480.059 728.256C483.37 736.532 496.612 742.05 500.75 744.808L540.062 740.67L562.822 715.842V676.53H513.164V670.322L546.269 641.355L99.3527 173.748Z" fill="#1B0D0D"/>
<path d="M622.639 672L626.516 744.314L691.894 765.673L752.071 805.959L788.119 859.971L838.007 868.952L846.283 819.294L796.626 773.775L761.77 716.342L744.899 635.105L653.813 635.105L622.639 672Z" fill="#411C39"/>
<path d="M774.145 885.998L784.321 838.373L829.729 807.175L881.5 819.405L904.216 922.747L877.318 943.438L774.145 885.998Z" fill="#411C39"/>
<path d="M442.818 763.43L438.768 706.371C440.686 700.8 453.341 691.059 453.251 687.75C453.16 684.441 457.001 697.22 469.715 724.118C473.237 726.782 481.219 747.173 488.337 751.016C492.943 753.502 525.008 752.387 535.926 747.951C549.621 744.128 561.214 732.024 562.824 730.325C564.433 728.625 566.962 719.98 569.031 711.703L569.031 697.22L569.031 670.322C548.08 670.322 525.366 670.232 522.056 670.322C518.747 670.412 621.809 580.667 679.768 530.105L675.026 584.049L710.412 591.366L743.505 590.465L767.875 573.244L766.918 538.083L757.315 515.143L728.943 484.388L748.251 480.25L792.488 500.66L823.525 558.593L823.525 610.319L728.348 662.138L695.779 662.138L655.483 702.561L651.792 724.118L600.067 788.258L535.926 815.156L473.854 800.673L442.818 763.43Z" fill="#411C39"/>
<path d="M633.17 641.356H558.684L109.698 169.61V37.1907L252.463 86.8481L645.584 564.8L633.17 641.356Z" fill="#B10DFF"/>
<path d="M140.733 155.127L132.457 62.0192L223.496 97.1932L593.857 560.662V593.767L566.959 585.491L140.733 155.127Z" fill="#DC93FF"/>
<path d="M670.413 678.598L728.346 659.977L744.899 717.911L778.004 765.499L823.523 813.087L850.421 827.571L838.006 862.745H798.694L790.418 833.778L751.106 782.051L705.587 748.946L645.584 734.463L670.413 678.598Z" fill="#502546"/>
</svg>
