<svg width="400" height="400" viewBox="0 0 400 400" fill="none" xmlns="http://www.w3.org/2000/svg">
<g clip-path="url(#clip0_341_28)">
<path d="M374.909 234.823L259.048 254.461C250.842 255.852 243.357 249.529 243.357 241.206L243.357 201.93C243.357 193.607 250.842 187.284 259.048 188.675L374.909 208.313C389.839 210.843 389.839 232.292 374.909 234.823Z" fill="#464646" stroke="#313131" stroke-width="17.0108"/>
<mask id="path-2-inside-1_341_28" fill="white">
<rect x="118.245" y="151.878" width="96.578" height="139.38" rx="15.9133"/>
</mask>
<rect x="118.245" y="151.878" width="96.578" height="139.38" rx="15.9133" fill="#313131" stroke="#313131" stroke-width="34.0216" mask="url(#path-2-inside-1_341_28)"/>
<mask id="path-3-inside-2_341_28" fill="white">
<rect x="204.396" y="168.889" width="76.8234" height="102.065" rx="15.9133"/>
</mask>
<rect x="204.396" y="168.889" width="76.8234" height="102.065" rx="15.9133" fill="#464646" stroke="#313131" stroke-width="34.0216" mask="url(#path-3-inside-2_341_28)"/>
<mask id="path-4-inside-3_341_28" fill="white">
<rect x="86.4185" y="163.401" width="160.232" height="116.333" rx="8.77977"/>
</mask>
<rect x="86.4185" y="163.401" width="160.232" height="116.333" rx="8.77977" fill="#464646" stroke="#313131" stroke-width="34.0216" mask="url(#path-4-inside-3_341_28)"/>
<path d="M12.4765 216.102L87.3796 172.857C91.5866 170.428 96.8453 173.464 96.8453 178.322L96.8453 264.812C96.8453 269.67 91.5866 272.706 87.3796 270.278L12.4765 227.032C8.26951 224.603 8.26952 218.531 12.4765 216.102Z" fill="#464646" stroke="#313131" stroke-width="17.0108"/>
<path d="M106.173 262.723V180.413H91.3572L88.3391 182.059L86.9673 186.449L88.0648 260.803L91.0828 262.723H106.173Z" fill="#464646"/>
<rect x="80.3823" y="196.326" width="137.733" height="50.484" rx="18.1083" fill="#4D4D4D"/>
<path d="M287.256 218.275V208.144C287.256 207.127 288.168 206.354 289.171 206.52L350.363 216.651C352.357 216.981 352.116 219.921 350.094 219.921H288.902C287.993 219.921 287.256 219.184 287.256 218.275Z" fill="#4D4D4D"/>
</g>
<defs>
<clipPath id="clip0_341_28">
<rect width="400" height="400" fill="white"/>
</clipPath>
</defs>
</svg>
