<svg width="1001" height="1001" viewBox="0 0 1001 1001" fill="none" xmlns="http://www.w3.org/2000/svg">
<path d="M121.79 570.703C159.159 554.986 251.178 499.329 336.132 460.9L373.76 619.774L153.633 672.816C150.322 676.292 137.228 692.678 107.285 723.806C70.1841 730.89 49.3617 705.966 49.3673 668.929L72.542 640.039C64.5574 637.221 41.5279 629.262 17.5157 619.826C-12.4996 608.031 41.011 556.967 46.4889 550.493C50.8712 545.313 101.561 559.158 121.79 570.703Z" fill="#470817"/>
<path d="M233.281 570.254C206.115 316.409 578.725 187.128 609.772 180.75L753.208 613.213C586.762 683.371 255.013 773.33 233.281 570.254Z" fill="#470817"/>
<path d="M606.639 180.75C511.426 247.508 603.546 603.972 751.93 614.049C811.283 540.992 793.354 208.461 606.639 180.75Z" fill="#470817"/>
<ellipse cx="34.644" cy="66.1741" rx="34.644" ry="66.1741" transform="matrix(0.977189 -0.212374 0.217837 0.975985 649.661 336.321)" fill="#470817"/>
<ellipse cx="19.9937" cy="38.1902" rx="19.9937" ry="38.1902" transform="matrix(0.977189 -0.212374 0.217837 0.975985 663.596 360.512)" fill="#470817"/>
<path d="M121.013 593.938C158.108 579.003 275.802 525.938 360.141 489.443L377.298 583.503L144.444 656.325C141.15 659.61 128.769 674.406 105.595 707.304C68.7973 714.105 64.7814 685.357 67.3732 670.133L94.363 634.924C86.4589 632.297 64.7091 624.842 40.9424 616.037C11.2341 605.031 50.0801 573.762 55.5324 567.645C59.8943 562.751 101.004 583.134 121.013 593.938Z" fill="#D9D9D9"/>
<path d="M256.384 561.728C232.014 331.413 570.864 208.732 598.714 202.946L728.684 601.078C579.374 664.733 275.879 745.98 256.384 561.728Z" fill="#985F5F"/>
<path d="M599.875 201.789C510.521 263.129 592.912 590.662 732.165 599.921C787.867 532.794 775.102 227.251 599.875 201.789Z" fill="#EA7FB2"/>
<ellipse cx="31.1225" cy="60.0252" rx="31.1225" ry="60.0252" transform="matrix(0.976714 -0.214545 0.215635 0.976474 632.367 349.396)" fill="#D9D9D9"/>
<ellipse cx="18.6384" cy="35.9474" rx="18.6384" ry="35.9474" transform="matrix(0.976714 -0.214545 0.215635 0.976474 650.245 368.704)" fill="#AF537F"/>
<path d="M732.166 599.921C771.621 545.525 767.134 443.713 753.209 385.844C744.1 441.348 733.326 602.236 597.554 470.296C616.121 515.433 664.86 599.921 732.166 599.921Z" fill="#AF537F"/>
<path d="M263.346 588.347C446.232 630.938 562.74 528.164 597.553 472.611C624.243 531.637 664.859 587.19 732.164 599.921C538.371 683.251 303.961 721.444 263.346 588.347Z" fill="#794444"/>
<path d="M122.934 633.485C125.719 630.707 216.543 602.236 261.026 588.347L273.791 616.124C231.242 630.012 146.839 656.632 144.982 656.632C142.661 656.632 129.896 675.15 105.527 707.556C84.6391 711.028 69.5533 705.241 67.2324 682.094C88.1204 708.713 119.452 636.957 122.934 633.485Z" fill="#B8B8B8"/>
<path d="M121.013 593.938C158.108 579.003 275.802 525.938 360.141 489.443L377.298 583.503L144.444 656.325C141.15 659.61 128.769 674.406 105.595 707.304C68.7973 714.105 64.7814 685.357 67.3732 670.133L94.363 634.924C86.4589 632.297 64.7091 624.842 40.9424 616.037C11.2341 605.031 50.0801 573.762 55.5324 567.645C59.8943 562.751 101.004 583.134 121.013 593.938Z" fill="#D9D9D9"/>
<path d="M256.384 561.728C232.014 331.413 570.864 208.732 598.714 202.946L728.684 601.078C579.374 664.733 275.879 745.98 256.384 561.728Z" fill="#985F5F"/>
<path d="M599.875 201.789C510.521 263.129 592.912 590.662 732.165 599.921C787.867 532.794 775.102 227.251 599.875 201.789Z" fill="#EA7FB2"/>
<ellipse cx="31.1225" cy="60.0252" rx="31.1225" ry="60.0252" transform="matrix(0.976714 -0.214545 0.215635 0.976474 632.367 349.396)" fill="#D9D9D9"/>
<ellipse cx="18.6384" cy="35.9474" rx="18.6384" ry="35.9474" transform="matrix(0.976714 -0.214545 0.215635 0.976474 650.245 368.704)" fill="#AF537F"/>
<path d="M732.166 599.921C771.621 545.525 767.134 443.713 753.209 385.844C744.1 441.348 733.326 602.236 597.554 470.296C616.121 515.433 664.86 599.921 732.166 599.921Z" fill="#AF537F"/>
<path d="M263.346 588.347C446.232 630.938 562.74 528.164 597.553 472.611C624.243 531.637 664.859 587.19 732.164 599.921C538.371 683.251 303.961 721.444 263.346 588.347Z" fill="#794444"/>
<path d="M122.934 633.485C125.719 630.707 216.543 602.236 261.026 588.347L273.791 616.124C231.242 630.012 146.839 656.632 144.982 656.632C142.661 656.632 129.896 675.15 105.527 707.556C84.6391 711.028 69.5533 705.241 67.2324 682.094C88.1204 708.713 119.452 636.957 122.934 633.485Z" fill="#B8B8B8"/>
<path d="M467.408 279.15C494.725 264.48 552.301 233.883 564.069 228.853C542.215 264.061 531.848 318.969 536.751 339.926C528.346 342.022 503.971 347.471 456.901 369.266C435.047 352.5 458.302 302.203 467.408 279.15Z" fill="#794444"/>
<path d="M349.734 360.883C372.848 331.543 423.28 304.299 431.685 298.012C414.875 338.25 414.174 369.266 421.179 379.745C397.364 386.032 334.171 433.94 332.923 425.851C328.72 398.606 324.517 381.841 349.734 360.883Z" fill="#794444"/>
<path d="M574.572 465.67C564.065 442.617 545.154 365.075 545.154 360.883C531.145 367.869 497.244 378.068 456.899 404.894C446.812 426.689 472.308 485.23 486.317 511.776C496.824 502.694 532.545 495.848 574.572 465.67Z" fill="#794444"/>
<path d="M456.899 520.158C441.769 503.393 433.785 444.712 431.683 417.468C402.265 434.932 346.372 455.61 332.923 465.67C319.475 475.729 332.222 528.541 343.429 545.307C361.64 543.211 409.829 535.248 456.899 520.158Z" fill="#794444"/>
<path d="M322.416 438.426C316.813 432.837 315.272 406.571 311.91 404.894C304.205 423.756 277.449 477.406 274.087 482.436C270.724 487.466 304.906 455.191 322.416 438.426Z" fill="#794444"/>
<path d="M326.619 545.308C318.214 541.954 309.809 503.393 307.707 484.532C253.073 515.967 267.783 541.116 269.884 549.499C271.985 557.882 278.289 549.499 326.619 545.308Z" fill="#794444"/>
<path d="M572.889 740.798H592.248C597.472 752.325 604.134 763.299 612.136 773.481C633.861 801.125 664.319 821.494 698.996 831.915C733.667 842.334 770.98 842.342 805.656 831.939C838.532 822.075 867.615 803.274 889.072 777.809C895.513 770.165 896.598 759.817 892.875 751.26L881.863 725.951C877.781 716.57 868.525 710.503 858.295 710.503H831.086C823.063 710.503 816.009 714.217 811.328 719.633C802.323 730.051 790.04 737.992 775.869 742.244C760.592 746.827 744.102 746.824 728.827 742.234C722.578 740.355 716.697 737.76 711.304 734.552C720.264 726.731 723.439 712.963 716.267 701.481L655.477 604.162C645.412 588.048 621.946 588.048 611.881 604.162L551.091 701.481C540.398 718.6 552.706 740.798 572.889 740.798Z" fill="#46D713" stroke="#2C8C0A" stroke-width="34.954"/>
<path d="M925.759 537.729L906.942 537.729C901.793 526.238 895.231 515.294 887.348 505.133C865.896 477.482 835.794 457.076 801.482 446.631C767.177 436.188 730.252 436.179 695.942 446.607C663 456.619 633.937 475.809 612.673 501.777C607.693 507.86 606.004 515.673 607.45 522.905L612.343 547.364C614.745 559.377 625.294 568.025 637.545 568.025L670.879 568.025C678.96 568.025 686.055 564.258 690.736 558.779C699.614 548.387 711.693 540.491 725.595 536.266C740.597 531.707 756.786 531.71 771.785 536.276C777.952 538.154 783.76 540.753 789.087 543.972C780.16 551.76 776.967 565.45 784.041 576.921L843.961 674.094C854.001 690.376 877.674 690.376 887.714 674.094L947.635 576.921C958.194 559.797 945.876 537.729 925.759 537.729Z" fill="#46D713" stroke="#2C8C0A" stroke-width="34.954"/>
</svg>
