<svg width="501" height="501" viewBox="0 0 501 501" fill="none" xmlns="http://www.w3.org/2000/svg">
<g clip-path="url(#clip0_485_65)">
<path d="M61.3945 285.707C80.0791 277.849 126.089 250.02 168.566 230.806L187.38 310.242L77.3164 336.764C75.6609 338.501 69.114 346.695 54.1422 362.259C35.5918 365.801 25.1806 353.339 25.1834 334.82L36.7708 320.375C32.7785 318.966 21.2637 314.987 9.25761 310.269C-5.75002 304.371 21.0053 278.839 23.7442 275.602C25.9354 273.012 51.28 279.935 61.3945 285.707Z" fill="#470817"/>
<path d="M117.14 285.483C103.557 158.56 289.862 93.9195 305.386 90.7305L377.104 306.962C293.881 342.041 128.007 387.02 117.14 285.483Z" fill="#470817"/>
<path d="M303.819 90.7305C256.213 124.11 302.273 302.341 376.465 307.38C406.142 270.852 397.177 104.586 303.819 90.7305Z" fill="#470817"/>
<ellipse cx="17.322" cy="33.087" rx="17.322" ry="33.087" transform="matrix(0.977189 -0.212374 0.217837 0.975985 325.33 168.516)" fill="#470817"/>
<ellipse cx="9.99685" cy="19.0951" rx="9.99685" ry="19.0951" transform="matrix(0.977189 -0.212374 0.217837 0.975985 332.298 180.612)" fill="#470817"/>
<path d="M61.0062 297.325C79.5534 289.857 138.401 263.325 180.57 245.077L189.149 292.107L72.7218 328.518C71.0748 330.161 64.884 337.559 53.2973 354.008C34.8983 357.408 32.8904 343.034 34.1863 335.422L47.6812 317.818C43.7291 316.504 32.8542 312.777 20.9709 308.374C6.11672 302.872 25.5397 287.237 28.2659 284.178C30.4468 281.731 51.0015 291.923 61.0062 297.325Z" fill="#D9D9D9"/>
<path d="M128.691 281.22C116.507 166.062 285.931 104.722 299.857 101.829L364.842 300.895C290.186 332.722 138.439 373.346 128.691 281.22Z" fill="#985F5F"/>
<path d="M300.437 101.25C255.76 131.92 296.956 295.687 366.582 300.316C394.433 266.753 388.051 113.981 300.437 101.25Z" fill="#EA7FB2"/>
<ellipse cx="15.5612" cy="30.0126" rx="15.5612" ry="30.0126" transform="matrix(0.976714 -0.214545 0.215635 0.976474 316.683 175.054)" fill="#D9D9D9"/>
<ellipse cx="9.31918" cy="17.9737" rx="9.31918" ry="17.9737" transform="matrix(0.976714 -0.214545 0.215635 0.976474 325.622 184.708)" fill="#AF537F"/>
<path d="M366.582 300.316C386.31 273.118 384.066 222.212 377.104 193.278C372.549 221.03 367.162 301.473 299.276 235.504C308.56 258.072 332.929 300.316 366.582 300.316Z" fill="#AF537F"/>
<path d="M132.172 294.529C223.615 315.825 281.869 264.438 299.276 236.661C312.621 266.174 332.929 293.951 366.582 300.316C269.685 341.981 152.48 361.078 132.172 294.529Z" fill="#794444"/>
<path d="M61.9663 317.098C63.3589 315.709 108.771 301.473 131.013 294.529L137.395 308.418C116.12 315.362 73.9189 328.671 72.9905 328.671C71.8301 328.671 65.4477 337.93 53.263 354.133C42.819 355.869 35.2762 352.976 34.1157 341.402C44.5597 354.712 60.2257 318.834 61.9663 317.098Z" fill="#B8B8B8"/>
<path d="M61.0062 297.325C79.5534 289.857 138.401 263.325 180.57 245.077L189.149 292.107L72.7218 328.518C71.0748 330.161 64.884 337.559 53.2973 354.008C34.8983 357.408 32.8904 343.034 34.1863 335.422L47.6812 317.818C43.7291 316.504 32.8542 312.777 20.9709 308.374C6.11672 302.872 25.5397 287.237 28.2659 284.178C30.4468 281.731 51.0015 291.923 61.0062 297.325Z" fill="#D9D9D9"/>
<path d="M128.691 281.22C116.507 166.062 285.931 104.722 299.857 101.829L364.842 300.895C290.186 332.722 138.439 373.346 128.691 281.22Z" fill="#985F5F"/>
<path d="M300.437 101.25C255.76 131.92 296.956 295.687 366.582 300.316C394.433 266.753 388.051 113.981 300.437 101.25Z" fill="#EA7FB2"/>
<ellipse cx="15.5612" cy="30.0126" rx="15.5612" ry="30.0126" transform="matrix(0.976714 -0.214545 0.215635 0.976474 316.683 175.054)" fill="#D9D9D9"/>
<ellipse cx="9.31918" cy="17.9737" rx="9.31918" ry="17.9737" transform="matrix(0.976714 -0.214545 0.215635 0.976474 325.622 184.708)" fill="#AF537F"/>
<path d="M366.582 300.316C386.31 273.118 384.066 222.212 377.104 193.278C372.549 221.03 367.162 301.473 299.276 235.504C308.56 258.072 332.929 300.316 366.582 300.316Z" fill="#AF537F"/>
<path d="M132.172 294.529C223.615 315.825 281.869 264.438 299.276 236.661C312.621 266.174 332.929 293.951 366.582 300.316C269.685 341.981 152.48 361.078 132.172 294.529Z" fill="#794444"/>
<path d="M61.9663 317.098C63.3589 315.709 108.771 301.473 131.013 294.529L137.395 308.418C116.12 315.362 73.9189 328.671 72.9905 328.671C71.8301 328.671 65.4477 337.93 53.263 354.133C42.819 355.869 35.2762 352.976 34.1157 341.402C44.5597 354.712 60.2257 318.834 61.9663 317.098Z" fill="#B8B8B8"/>
<path d="M234.204 139.93C247.862 132.595 276.65 117.297 282.534 114.782C271.607 132.386 266.424 159.84 268.875 170.318C264.673 171.366 252.485 174.091 228.95 184.988C218.023 176.606 229.651 151.457 234.204 139.93Z" fill="#794444"/>
<path d="M175.367 180.797C186.924 166.127 212.14 152.505 216.342 149.361C207.937 169.48 207.587 184.988 211.089 190.228C199.181 193.371 167.585 217.325 166.961 213.281C164.86 199.659 162.758 191.276 175.367 180.797Z" fill="#794444"/>
<path d="M287.786 233.19C282.532 221.664 273.076 182.893 273.076 180.797C266.072 184.29 249.122 189.39 228.949 202.802C223.906 213.7 236.654 242.97 243.658 256.243C248.911 251.702 266.772 248.279 287.786 233.19Z" fill="#794444"/>
<path d="M228.949 260.435C221.384 252.052 217.392 222.712 216.341 209.089C201.632 217.821 173.686 228.16 166.961 233.19C160.237 238.22 166.61 264.626 172.214 273.009C181.32 271.961 205.414 267.979 228.949 260.435Z" fill="#794444"/>
<path d="M161.708 219.569C158.906 216.774 158.135 203.641 156.454 202.803C152.602 212.233 139.224 239.059 137.543 241.574C135.862 244.088 152.952 227.951 161.708 219.569Z" fill="#794444"/>
<path d="M163.809 273.009C159.606 271.333 155.404 252.052 154.353 242.621C127.036 258.339 134.391 270.914 135.441 275.105C136.492 279.297 139.644 275.105 163.809 273.009Z" fill="#794444"/>
<path d="M286.945 370.755H296.624C299.236 376.518 302.567 382.005 306.568 387.096C317.431 400.918 332.66 411.103 349.998 416.313C367.333 421.523 385.99 421.527 403.328 416.325C419.766 411.393 434.307 401.992 445.036 389.26C448.257 385.438 448.799 380.264 446.937 375.986L441.431 363.331C439.391 358.64 434.763 355.607 429.648 355.607H416.043C412.031 355.607 408.504 357.464 406.164 360.172C401.661 365.381 395.52 369.352 388.434 371.477C380.796 373.769 372.551 373.767 364.914 371.472C361.789 370.533 358.849 369.236 356.152 367.632C360.632 363.721 362.219 356.837 358.633 351.096L328.239 302.436C323.206 294.38 311.473 294.38 306.44 302.436L276.045 351.096C270.699 359.655 276.853 370.755 286.945 370.755Z" fill="#46D713" stroke="#2C8C0A" stroke-width="17.477"/>
<path d="M463.379 269.22L453.971 269.22C451.397 263.475 448.116 258.003 444.174 252.922C433.448 239.097 418.397 228.894 401.241 223.671C384.088 218.45 365.626 218.445 348.471 223.659C332 228.665 317.468 238.26 306.836 251.244C304.346 254.286 303.502 258.192 304.225 261.808L306.671 274.038C307.873 280.044 313.147 284.368 319.272 284.368L335.939 284.368C339.98 284.368 343.527 282.485 345.868 279.745C350.307 274.549 356.347 270.601 363.298 268.489C370.798 266.209 378.893 266.211 386.392 268.494C389.476 269.433 392.38 270.732 395.043 272.342C390.58 276.236 388.983 283.081 392.52 288.816L422.48 337.403C427.501 345.544 439.337 345.544 444.357 337.403L474.317 288.816C479.597 280.254 473.438 269.22 463.379 269.22Z" fill="#46D713" stroke="#2C8C0A" stroke-width="17.477"/>
</g>
<defs>
<clipPath id="clip0_485_65">
<rect width="500" height="500" fill="white" transform="translate(0.92334 0.686035)"/>
</clipPath>
</defs>
</svg>
