<svg width="501" height="501" viewBox="0 0 501 501" fill="none" xmlns="http://www.w3.org/2000/svg">
<rect x="395.66" y="240.399" width="63.3472" height="114.876" rx="15.9909" fill="#6F4F4F" stroke="#473434" stroke-width="12.8261"/>
<rect x="64.0825" y="90.2924" width="130.559" height="121.597" rx="15.9909" fill="#6F4F4F" stroke="#473434" stroke-width="12.8261"/>
<rect x="335.17" y="97.0139" width="72.3087" height="114.876" rx="15.9909" fill="#664747" stroke="#473434" stroke-width="12.8261"/>
<rect x="39.4384" y="240.399" width="63.3472" height="114.876" rx="15.9909" fill="#6F4F4F" stroke="#473434" stroke-width="12.8261"/>
<rect x="73.3525" y="251.909" width="353.982" height="163.548" rx="26.8847" fill="#473434"/>
<rect x="61.8422" y="186.629" width="374.761" height="204.492" rx="40.6351" fill="#754E4E" stroke="#473434" stroke-width="12.8261"/>
<rect x="73.3525" y="202.62" width="103.058" height="154.587" rx="29.1251" fill="#6B4343"/>
<rect x="198.814" y="202.62" width="103.058" height="154.587" rx="40.327" fill="#6B4343"/>
<rect x="324.276" y="202.62" width="103.058" height="154.587" rx="40.327" fill="#6B4343"/>
<rect x="79.7651" y="119.418" width="342.649" height="145.371" fill="#805555" stroke="#473434" stroke-width="12.8261"/>
<path d="M123.696 192.103C123.696 212.738 117.606 231.159 108.079 244.263C98.5477 257.374 85.9261 264.789 72.6054 264.789C59.2847 264.789 46.6631 257.374 37.1316 244.263C27.6047 231.159 21.5151 212.738 21.5151 192.103C21.5151 171.469 27.6047 153.048 37.1316 139.943C46.6631 126.832 59.2847 119.418 72.6054 119.418C85.9261 119.418 98.5477 126.832 108.079 139.943C117.606 153.048 123.696 171.469 123.696 192.103Z" fill="#805555" stroke="#473434" stroke-width="12.8261"/>
<path d="M479.171 192.103C479.171 212.738 473.082 231.159 463.555 244.263C454.023 257.374 441.402 264.789 428.081 264.789C414.76 264.789 402.139 257.374 392.607 244.263C383.08 231.159 376.991 212.738 376.991 192.103C376.991 171.469 383.08 153.048 392.607 139.943C402.139 126.832 414.76 119.418 428.081 119.418C441.402 119.418 454.023 126.832 463.555 139.943C473.082 153.048 479.171 171.469 479.171 192.103Z" fill="#805555" stroke="#473434" stroke-width="12.8261"/>
<rect x="73.7358" y="126.022" width="356.453" height="132.292" fill="#805555"/>
<rect x="110.437" y="137.649" width="280.995" height="84.3717" fill="#8D6060"/>
<ellipse cx="109.846" cy="179.835" rx="45.455" ry="42.1859" fill="#8D6060"/>
<ellipse cx="390.84" cy="179.835" rx="45.455" ry="42.1859" fill="#8D6060"/>
<rect x="110.437" y="142.428" width="281.585" height="75.2771" fill="#8D6060"/>
<rect x="117.71" y="126.022" width="31.1491" height="271.18" fill="#574242"/>
<rect x="128.704" y="126.022" width="14.6584" height="273.012" fill="#694F4F"/>
<rect x="350.413" y="126.022" width="32.9814" height="271.18" fill="#574242"/>
<rect x="363.239" y="126.022" width="12.8261" height="271.18" fill="#694F4F"/>
<rect x="113.306" y="213.449" width="41.0738" height="19.1678" rx="4.10738" fill="#5E5E5E" stroke="#555555" stroke-width="8.21476"/>
<rect x="348.547" y="213.449" width="41.0738" height="19.1678" rx="4.10738" fill="#5E5E5E" stroke="#555555" stroke-width="8.21476"/>
</svg>
