<svg width="1001" height="1001" viewBox="0 0 1001 1001" fill="none" xmlns="http://www.w3.org/2000/svg">
<rect x="791.321" y="481.087" width="126.694" height="229.752" rx="31.9817" fill="#6F4F4F" stroke="#473434" stroke-width="25.6522"/>
<rect x="128.165" y="180.874" width="261.118" height="243.195" rx="31.9817" fill="#6F4F4F" stroke="#473434" stroke-width="25.6522"/>
<rect x="670.341" y="194.317" width="144.617" height="229.752" rx="31.9817" fill="#664747" stroke="#473434" stroke-width="25.6522"/>
<rect x="78.8776" y="481.087" width="126.694" height="229.752" rx="31.9817" fill="#6F4F4F" stroke="#473434" stroke-width="25.6522"/>
<rect x="146.705" y="504.107" width="707.963" height="327.097" rx="53.7694" fill="#473434"/>
<rect x="123.684" y="373.548" width="749.523" height="408.983" rx="81.2703" fill="#754E4E" stroke="#473434" stroke-width="25.6522"/>
<rect x="146.705" y="405.53" width="206.116" height="309.174" rx="58.2501" fill="#6B4343"/>
<rect x="397.628" y="405.53" width="206.116" height="309.174" rx="80.654" fill="#6B4343"/>
<rect x="648.553" y="405.53" width="206.116" height="309.174" rx="80.654" fill="#6B4343"/>
<rect x="159.531" y="239.125" width="685.298" height="290.742" fill="#805555" stroke="#473434" stroke-width="25.6522"/>
<path d="M247.392 384.496C247.392 425.765 235.213 462.607 216.159 488.816C197.096 515.038 171.853 529.867 145.211 529.867C118.57 529.867 93.3266 515.038 74.2636 488.816C55.2099 462.607 43.0307 425.765 43.0307 384.496C43.0307 343.226 55.2099 306.385 74.2636 280.176C93.3266 253.954 118.57 239.125 145.211 239.125C171.853 239.125 197.096 253.954 216.159 280.176C235.213 306.385 247.392 343.226 247.392 384.496Z" fill="#805555" stroke="#473434" stroke-width="25.6522"/>
<path d="M958.343 384.496C958.343 425.765 946.164 462.607 927.11 488.816C908.047 515.038 882.804 529.867 856.162 529.867C829.521 529.867 804.278 515.038 785.215 488.816C766.161 462.607 753.982 425.765 753.982 384.496C753.982 343.226 766.161 306.385 785.215 280.176C804.278 253.954 829.521 239.125 856.162 239.125C882.804 239.125 908.047 253.954 927.11 280.176C946.164 306.385 958.343 343.226 958.343 384.496Z" fill="#805555" stroke="#473434" stroke-width="25.6522"/>
<rect x="147.472" y="252.333" width="712.906" height="264.584" fill="#805555"/>
<rect x="220.874" y="275.587" width="561.989" height="168.743" fill="#8D6060"/>
<ellipse cx="219.693" cy="359.959" rx="90.91" ry="84.3717" fill="#8D6060"/>
<ellipse cx="781.681" cy="359.959" rx="90.91" ry="84.3717" fill="#8D6060"/>
<rect x="220.874" y="285.146" width="563.17" height="150.554" fill="#8D6060"/>
<rect x="235.422" y="252.333" width="62.2981" height="542.36" fill="#574242"/>
<rect x="257.409" y="252.333" width="29.3168" height="546.025" fill="#694F4F"/>
<rect x="700.826" y="252.333" width="65.9627" height="542.36" fill="#574242"/>
<rect x="726.478" y="252.333" width="25.6522" height="542.36" fill="#694F4F"/>
<rect x="226.611" y="427.187" width="82.1476" height="38.3356" rx="8.21476" fill="#5E5E5E" stroke="#555555" stroke-width="16.4295"/>
<rect x="697.094" y="427.187" width="82.1476" height="38.3356" rx="8.21476" fill="#5E5E5E" stroke="#555555" stroke-width="16.4295"/>
</svg>
