<svg width="760" height="380" viewBox="0 0 760 380" fill="none" xmlns="http://www.w3.org/2000/svg">
<g clip-path="url(#clip0_1_4)">
<path d="M-0.5 380V233L7.5 224C5.5 226.333 2.7 233.8 7.5 245C12.3 256.2 18.5 235 21 223C22.1939 230.909 24.0559 246.222 22.9965 250.487C26.1209 246.047 38.0622 229.664 31.5 219C39.5 228.6 42.1667 250.833 39.5 257.5C46.1667 255.5 56.9 252.6 54.5 243C60.5 246.6 60.3333 256.667 58.5 263C65.1667 255.833 78 239.9 76 233.5C82.8 241.1 80.8333 250.667 79 254.5C82.5 250.167 88.7 239.5 85.5 231.5C95.1 233.1 94.1667 243.833 92.5 249C95.8333 244.333 101.6 233.3 98 226.5C105.708 230.354 106.608 237.303 106.067 240.637C106.994 235.817 110.151 225.899 116 222C113.2 231.2 117.5 242.5 120 247C119.5 242 120.2 230.7 127 225.5C125.8 231.9 128.833 241.5 130.5 245.5C130.833 242.167 132 234.3 134 229.5C134 239.9 136.667 247.833 138 250.5C140.5 247.5 144.9 239.9 142.5 233.5C148.9 239.5 149.167 244 148.5 245.5C150.5 243.167 153.7 236.7 150.5 229.5C156.1 229.5 158.5 238.833 159 243.5C162.5 240.167 168.9 232 166.5 226C170.9 226 171.667 235.667 171.5 240.5C173.667 235 179.1 224.4 183.5 226C179.5 228.8 179.5 237.5 180 241.5C184.167 239.167 192.2 233.1 191 227.5C192.6 231.5 195.667 240.167 195 243.5C196.667 239.5 207.7 229.9 210.5 227.5C207.7 230.3 206.333 245.167 207 250.5C214.667 249.833 229.6 246.2 228 237C235.6 247.8 231.167 257.167 228 260.5C233.833 260.833 245.1 259.3 243.5 250.5C248.363 254.553 248.786 259.899 247.88 264.071C251.288 256.347 257.515 247.246 265 250.5C256.6 258.5 255.5 271.167 256 276.5C259 274.833 265 269.9 265 263.5C268.6 269.5 264.833 279 262.5 283C268.333 282.5 279.7 279.4 278.5 271C287.3 280.6 286.5 286 285 287.5C291.5 282 303.9 267.6 301.5 254C309.5 272 307.833 287.167 306 292.5C308.333 287.333 313 276.2 313 273C313 269 322 290 317.5 296C329.1 291.6 328.333 274.167 326.5 266C333.833 270.5 347.1 282.4 341.5 294C347.5 282.8 354 274 356.5 271C354.333 278.667 352.4 295.1 362 299.5C371.6 303.9 374 282.333 374 271C380.5 274.833 393.3 284.5 392.5 292.5C404.5 276.5 395 263.5 397 263.5C399 263.5 413 275 410.5 285.5C417.625 270.063 415.545 258.575 413.563 254.623C413.542 254.581 413.521 254.541 413.5 254.5C413.521 254.54 413.542 254.581 413.563 254.623C416.436 260.248 421.441 271.164 422.746 277.792C423.121 270.549 424.567 257.107 427.5 254.5C427.5 260.5 430 277.5 433.5 281.5C437 285.5 441.5 264.5 441 260C443.5 263.5 453 274.5 447 289C465 273.5 459.5 260 461 260C462.438 260 476.274 271.021 473.463 282.502C478.448 267.206 488.478 261.13 493 260C490.333 264.667 485.8 275 489 279C493 284 501 277.5 502 274.5C503 271.5 504.5 265.5 504.5 256C504.5 254.197 514 267.5 510 279C530 273 530 271.5 524.5 250C529.5 257.5 542.5 263.5 540 279C547.2 266.6 552.333 261.167 554 260C550.5 266.333 545.2 279 552 279C560.5 279 563 263 562.5 260C562.1 257.6 556.667 251.333 554 248.5C559.833 250 571.4 256.7 571 271.5C575.4 259.9 573.5 250.333 572 247C576.167 251 584.1 260.8 582.5 268C589.3 268 592 254 592.5 247C593 251 594.5 259.9 596.5 263.5C599 268 602.5 251 607 254C604.5 257 602.5 267.5 607 269L610.609 262.503C610.614 261.597 610.569 260.729 610.5 260L609 256C610.136 256.544 611.548 257.362 612.899 258.381L617 251L618 244L613 239.5L610.5 233.5L615 223L600.5 196.5L604.5 173.5L615 155L610.5 187.5L623 214.5H632L646.5 187.5L640.5 155L652 172.5L656 193.5L640.5 223L643 237L639 242L643 248.5L656 260L656.418 265.577C659.749 270.729 659.574 278.398 657.784 279.831C663.006 276.612 663.002 269.857 663 267.138V267C664.167 269.833 665.8 276.4 663 280C667.8 276 667.667 266 667 261.5C669.333 265.5 673.3 274.8 670.5 280C667 286.5 689 288.5 685.5 268C695.1 283.2 689.5 290.667 685.5 292.5C691.667 293.5 703.1 291.8 699.5 277C703.5 279.4 705.5 286.667 706 290C711 286.667 718.5 277.4 708.5 267C721.3 273.4 724.5 281.333 724.5 284.5C725.5 280.333 729.5 271.6 737.5 270C732.7 274 735.5 285 737.5 290C743.167 287.167 752.8 279.5 746 271.5C752.5 277 754.5 279 755.5 284.5C756.3 288.9 758 277.667 760 271.5V380H-0.5Z" fill="#172130"/>
</g>
<defs>
<clipPath id="clip0_1_4">
<rect width="760" height="380" fill="white"/>
</clipPath>
</defs>
</svg>
