<svg width="760" height="380" viewBox="0 0 760 380" fill="none" xmlns="http://www.w3.org/2000/svg">
<g clip-path="url(#clip0_1_4)">
<path d="M320 220.5C132.378 151.621 65.5 196 -0.5 198L0 380H760.5C760.5 371.667 760 322 760 198C639 206 581.5 316.5 320 220.5Z" fill="#1D293D"/>
<path d="M157 168C153 176 138.8 190.8 138 194L145.5 202H160.5L171.5 157L178.5 145.5L185 128.5L196 123L223 112L235.5 107L250.5 101.5L264 95.5L283 89L296 75.5L283 81L260.5 89C258.333 86.3333 253.3 80.4 250.5 78C247.7 75.6 243 77 241 78L254 85L250.5 95.5L233.5 98V92.5L226.5 86H213L226.5 92.5L229 103.5C221.5 105.667 206.1 110.4 204.5 112C202.9 113.6 192.167 116.333 187 117.5L185 112L189.5 98L196 86L206.5 81C210.167 77.3333 217.9 70 219.5 70H245L248.5 62.5L245 64.5C237.667 63.8333 222.3 62.5 219.5 62.5C217.507 62.5 211.297 60.0675 205.951 57.9732C201.909 56.39 198.361 55 197.5 55H182.5L213 64.5L206.5 73L192.5 78L174 59.5L167.5 55L176 70C180.333 73.6667 189.1 81.8 189.5 85C189.9 88.2 183.333 95 180 98C177.5 94.1667 172.3 86.2 171.5 85C170.974 84.2116 166.443 77.2073 162.117 70.3035C160.697 70.5204 158.945 70.8413 157.014 71.2248L160.5 77.5L178.5 101.5L180 117.5L174 125.5L165 141L159 125.5L155 107L146 92.5L142.969 74.3116C141.108 74.748 139.406 75.1562 138 75.5L136.512 77.6152L138 92.5L152.5 112V125.5L135 112C131.333 109.833 123.7 105.1 122.5 103.5C121.3 101.9 126 93.1667 128.5 89L136.512 77.6152L135.682 69.3194C132.101 67.8661 125.853 64.4346 122.5 62.5C117.667 62.1667 107.6 61.7 106 62.5C104.4 63.3 121.667 67.8333 130.5 70L122.5 89C116.833 82.6667 105.1 69.3 103.5 66.5C101.9 63.7 98.8333 65.3333 97.5 66.5L118 92.5L114 103.5L79 70C77.5 69.8333 73.8 69.6 71 70C68.2 70.4 80.5 80.1667 87 85C76.1667 82.6667 54.1 78 52.5 78C50.9 78 49.1667 80 48.5 81C60.6667 83 85.4 87.4 87 89C88.6 90.6 101.667 101.667 108 107L79 98L71 95.5C61 95.1667 46.2 95.5 45 95.5C43.8 95.5 43 87.5 43.5 85L40.5 74.3116H36.5C38.3333 81.041 41 96.2 39 97C37 97.8 27.3333 93.1667 22.5 91.5L14.5 88L14 91.5L35 100.5H71L108 112L128.5 123L150.5 138.5L157 155.5V168Z" fill="#1D293D"/>
<path d="M122.5 55L135 62.5L135.682 69.3194C136.729 69.7442 137.548 70 138 70C138.539 70 140.057 69.7339 142.135 69.3093L140.5 59.5L130.5 55H122.5Z" fill="#1D293D"/>
<path d="M136.512 77.6152L138 75.5C139.406 75.1562 141.108 74.748 142.969 74.3116L142.135 69.3093C140.057 69.7339 138.539 70 138 70C137.548 70 136.729 69.7442 135.682 69.3194L136.512 77.6152Z" fill="#1D293D"/>
<path d="M154.42 66.5555C150.03 67.5869 145.394 68.6432 142.135 69.3093L142.969 74.3116C147.363 73.2807 152.645 72.0924 157.014 71.2248L154.42 66.5555Z" fill="#1D293D"/>
<path d="M162.117 70.3035C161.08 68.6489 160.055 67.0001 159.1 65.4441C157.628 65.7973 156.04 66.1747 154.42 66.5555L157.014 71.2248C158.945 70.8413 160.697 70.5204 162.117 70.3035Z" fill="#1D293D"/>
<path d="M165 70C168.6 70 165.167 66.3333 163 64.5C161.86 64.7788 160.534 65.0999 159.1 65.4441C160.055 67.0001 161.08 68.6489 162.117 70.3035C163.377 70.1108 164.374 70 165 70Z" fill="#1D293D"/>
<path d="M154 56.5C153.2 54.1 151.333 57.5 150.5 59.5L154.42 66.5555C156.04 66.1747 157.628 65.7973 159.1 65.4441C156.457 61.14 154.348 57.5453 154 56.5Z" fill="#1D293D"/>
<path d="M24.5 78C26.1 76.8 31.1667 73.5 33.5 72L41 67.5L60 63L73.8709 65.6008C79.2226 63.7037 83.3375 62.5031 84 63C84.3213 63.2409 84.9392 63.4045 85.7627 63.5093C85.9747 61.9053 86.5313 59.9061 87 58.5C88.5 58.1667 93.2 57.2 100 56C103.167 55.5 110.2 54.5 113 54.5C114.414 54.5 118.928 55.1527 124.434 56.0627C123.53 55.4916 122.701 54.9587 122 54.5C128.667 53.1667 142.8 50.5 146 50.5H165.5C169.09 50.9709 173.999 51.608 178.917 52.2353L198 45.5C201.333 46.6667 209.1 49.3 213.5 50.5C217.9 51.7 223 53.6667 225 54.5L247 56L242.235 60.5H257.5L279 63C274.833 64.5 266 68.4 264 72C263.692 72.5548 263.254 72.9727 262.718 73.2792C264.458 73.1104 266.238 73 268 73H283C287 73 299.5 75 306.5 75C312.1 75 314.833 76 315.5 78C310.333 79.6667 299.3 83 296.5 83C293 83 262.5 88 251 88C239.5 88 247 85.5 242.5 85.5C238.9 85.5 236.667 80.5 236 78L249 75C250.936 75 254.033 74.4426 257.629 73.9163C253.654 73.5373 249.046 72 247 72C243.5 72 231.5 67.5 227.5 67.5C225.765 67.5 226.303 66.1281 227.585 64.5H210.5C209.17 64.5 201.224 62.4518 192.418 60.0583C188.832 60.0597 185.796 60.1759 184.5 60.5C180.5 61.5 169 63 165.5 63H153.141C153.844 64.6256 152.056 66.4629 150.5 67.5C147.5 69 140.7 72 137.5 72C133.5 72 122 69.5 116.5 67.5C114.44 66.751 110.206 66.1422 105.558 65.7525L107.5 67.5L78.0467 73.3907C79.7561 74.2188 80.1122 74.7756 80 75C77.6667 76 72.4 78 70 78H52.5C50.1 78 46.5 82 45 84H19C13.5 84 22.5 79.5 24.5 78Z" fill="#1D293D"/>
<path d="M3.00001 89.5C6.50001 87.6667 14.1 84 16.5 84L24.5 89.5C19.6667 91.5 9.10001 95.5 5.50001 95.5C1.90001 95.5 2.33334 91.5 3.00001 89.5Z" fill="#1D293D"/>
<path d="M84 78C90.1667 77 103.5 74.4 107.5 72L118.5 75C116 76 110.3 78 107.5 78C104 78 95.5 84 93.5 84C91.5 84 78.5 86 74.5 84C71.3 82.4 79.5 79.3333 84 78Z" fill="#1D293D"/>
<path d="M204 84C210 82.5 216 84 223 84L227.5 85.5C231.833 87.8333 240.9 92.9 242.5 94.5C244.1 96.1 233.167 95.1667 227.5 94.5C224.167 93 216.4 90 212 90H194.5C195.667 88.5 199.2 85.2 204 84Z" fill="#1D293D"/>
<path d="M176.5 64.5C178.5 63.7 191.667 63.1667 198 63L208 67.5C204.667 68.1667 197.3 69.5 194.5 69.5H167C169.333 68.1667 174.5 65.3 176.5 64.5Z" fill="#1D293D"/>
<path d="M131 79C135.5 78.6667 144.8 78 146 78C153 78.3333 167.3 79 168.5 79C169.7 79 165.333 82.3333 163 84H148.5C146.646 84 125.032 83.1409 120.688 83.8116C119.995 84.1068 119.691 84.2062 120 84C120.11 83.9269 120.345 83.8645 120.688 83.8116C122.684 82.9611 127.907 80.4846 131 79Z" fill="#1D293D"/>
</g>
<defs>
<clipPath id="clip0_1_4">
<rect width="760" height="380" fill="white"/>
</clipPath>
</defs>
</svg>
