<svg width="760" height="380" viewBox="0 0 760 380" fill="none" xmlns="http://www.w3.org/2000/svg">
<g clip-path="url(#clip0_1_4)">
<path d="M18.5416 274.113C39.0405 302.232 38.5405 310.266 31.0409 329.011C42.0403 324.548 55.4241 255.814 36.5406 231.712C70.0387 244.655 65.039 297.322 65.039 309.819C69.2466 285.718 80.0024 241.531 123.5 245.102C74.0506 277.5 86.0378 304.017 97.5372 319.192C103.204 310.861 111.736 291.431 100.537 280.362C121.736 289.645 121.036 317.853 118.036 330.797L138.035 346.864H144.5H153C155.8 344.973 198.167 341.712 219 341.5L225.5 335L235.5 339.5L247 332.5C253.833 334 270.5 341.5 272.5 341.5C274.5 341.5 272.333 334.167 271.5 332L294 341.5L291 332.5L313 341.5L310.5 331L329.5 341.5C332.667 340.167 340.2 337 345 335C349.8 333 357 330.5 360 329.5L368 324.5H377.5L391 335L434.5 337.5L443.5 329.5C447.167 329.833 455.1 331.9 457.5 337.5C459.9 343.1 454.5 346.076 451.5 346.864H628.007C640.507 344.484 666.605 339.009 671.005 336.153C675.405 333.296 678.833 331.773 682 328.5C682 310 678 295.076 646 289.288C689 270.288 703 317.342 711 328.5C702.5 308.713 672.496 247 695.5 225C687.9 241.068 722.501 302.04 741.5 319C744.167 307.544 750.5 270.5 714 236C728.333 240.025 757.8 256.319 761 289.288V379H0.0426179V324.548V271.881V253.683C-0.0135257 253.691 -0.0148821 253.659 0.0426179 253.582V253.683C0.962815 253.553 16.6007 242.746 29.041 245.102C-1.45732 258.492 -1.45729 300.893 10.0421 310.266C19.2416 317.764 19.5415 289.288 18.5416 274.113Z" fill="#141B25"/>
</g>
<defs>
<clipPath id="clip0_1_4">
<rect width="760" height="380" fill="white"/>
</clipPath>
</defs>
</svg>
