<svg width="760" height="380" viewBox="0 0 760 380" fill="none" xmlns="http://www.w3.org/2000/svg">
<path d="M49 120.5C43.5 123 4.5 107.5 0 104.5V380H760V130.5L747.5 125L720.5 113.5C712 119.167 691.5 125 691.5 125L683.5 118L659 109.5L643.5 113.5L602 130.5C595.833 127.167 582.7 120.5 579.5 120.5C575.5 120.5 557.5 109.5 552.5 109.5C548.5 109.5 529.5 116.833 520.5 120.5L496.5 109.5L466.5 95.5L424.5 120.5L377.5 130.5L345.5 120.5L317 105L280 88C271.167 92.1667 250.2 101.4 237 105C223.8 108.6 214.5 112.167 211.5 113.5L184 120.5C172.333 116.833 148.2 108.6 145 105C141 100.5 119 96.5 110.5 95.5C102 94.5 79.5 106.5 74.5 109.5C69.5 112.5 54.5 118 49 120.5Z" fill="#3D4D65"/>
</svg>
