<svg width="400" height="400" viewBox="0 0 400 400" fill="none" xmlns="http://www.w3.org/2000/svg">
<rect x="316.296" y="192.154" width="50.6528" height="91.8556" rx="12.7864" fill="#6F4F4F" stroke="#473434" stroke-width="10.2558"/>
<rect x="51.165" y="72.1279" width="104.396" height="97.2299" rx="12.7864" fill="#6F4F4F" stroke="#473434" stroke-width="10.2558"/>
<rect x="267.928" y="77.5024" width="57.8185" height="91.8556" rx="12.7864" fill="#664747" stroke="#473434" stroke-width="10.2558"/>
<rect x="31.4594" y="192.154" width="50.6528" height="91.8556" rx="12.7864" fill="#6F4F4F" stroke="#473434" stroke-width="10.2558"/>
<rect x="58.5771" y="201.357" width="283.046" height="130.774" rx="21.4971" fill="#473434"/>
<rect x="49.3735" y="149.159" width="299.661" height="163.513" rx="32.4921" fill="#754E4E" stroke="#473434" stroke-width="10.2558"/>
<rect x="58.5771" y="161.946" width="82.4057" height="123.609" rx="23.2886" fill="#6B4343"/>
<rect x="158.897" y="161.946" width="82.4057" height="123.609" rx="32.2457" fill="#6B4343"/>
<rect x="259.217" y="161.946" width="82.4057" height="123.609" rx="32.2457" fill="#6B4343"/>
<rect x="63.7051" y="95.4167" width="273.984" height="116.239" fill="#805555" stroke="#473434" stroke-width="10.2558"/>
<path d="M98.8321 153.536C98.8321 170.036 93.9628 184.765 86.3451 195.244C78.7236 205.728 68.6313 211.656 57.98 211.656C47.3287 211.656 37.2364 205.728 29.6149 195.244C21.9972 184.765 17.1279 170.036 17.1279 153.536C17.1279 137.037 21.9972 122.307 29.6149 111.829C37.2364 101.345 47.3287 95.4167 57.98 95.4167C68.6313 95.4167 78.7236 101.345 86.3451 111.829C93.9628 122.307 98.8321 137.037 98.8321 153.536Z" fill="#805555" stroke="#473434" stroke-width="10.2558"/>
<path d="M383.072 153.536C383.072 170.036 378.203 184.765 370.585 195.244C362.964 205.728 352.872 211.656 342.22 211.656C331.569 211.656 321.477 205.728 313.855 195.244C306.237 184.765 301.368 170.036 301.368 153.536C301.368 137.037 306.237 122.307 313.855 111.829C321.477 101.345 331.569 95.4167 342.22 95.4167C352.872 95.4167 362.964 101.345 370.585 111.829C378.203 122.307 383.072 137.037 383.072 153.536Z" fill="#805555" stroke="#473434" stroke-width="10.2558"/>
<rect x="58.8838" y="100.698" width="285.022" height="105.781" fill="#805555"/>
<rect x="88.23" y="109.994" width="224.685" height="67.4641" fill="#8D6060"/>
<ellipse cx="87.7577" cy="143.726" rx="36.3461" ry="33.732" fill="#8D6060"/>
<ellipse cx="312.442" cy="143.726" rx="36.3461" ry="33.732" fill="#8D6060"/>
<rect x="88.23" y="113.816" width="225.157" height="60.192" fill="#8D6060"/>
<rect x="94.0464" y="100.698" width="24.907" height="216.837" fill="#574242"/>
<rect x="102.837" y="100.698" width="11.7209" height="218.302" fill="#694F4F"/>
<rect x="280.116" y="100.698" width="26.3721" height="216.837" fill="#574242"/>
<rect x="290.372" y="100.698" width="10.2558" height="216.837" fill="#694F4F"/>
<rect x="90.524" y="170.604" width="32.8429" height="15.3267" rx="3.28429" fill="#5E5E5E" stroke="#555555" stroke-width="6.56857"/>
<rect x="278.624" y="170.604" width="32.8429" height="15.3267" rx="3.28429" fill="#5E5E5E" stroke="#555555" stroke-width="6.56857"/>
</svg>
