<svg width="1000" height="1000" viewBox="0 0 1000 1000" fill="none" xmlns="http://www.w3.org/2000/svg">
<g clip-path="url(#clip0_670_70653)">
<path d="M323.932 344.72L323.798 344.386L323.651 344.058L276.975 239.498L275.976 237.26L274.455 235.34L225.383 173.381L166.272 86.8119L164.329 83.9658L161.528 81.9582L89.4114 30.2736L82.0432 24.9929L73.2565 27.2223C67.069 28.7922 60.0746 31.7591 53.6748 36.0193C47.3478 40.2311 40.3605 46.5423 35.9706 55.3834C31.274 64.8423 30.1656 76.0683 34.4187 87.6805C38.4208 98.6075 46.6383 108.489 57.9022 117.605C75.4169 131.778 98.4204 158.286 118.341 184.268C128.148 197.059 136.901 209.318 143.513 219.27C146.331 223.511 148.704 227.25 150.58 230.376C149.059 232.785 147.271 235.69 145.347 239.085C139.759 248.95 133.262 262.523 127.114 282.074C114.886 320.958 104.198 382.963 104.19 485.805L104.19 487.391L104.446 488.956C125.903 620.059 173.53 718.865 237.536 791.824C301.509 864.745 380.997 910.884 464.743 938.01C631.605 992.057 816.585 971.089 936.036 935.527L948.348 931.861L949.84 919.102L956.916 858.562L958.34 846.385L947.983 839.825C941.258 835.565 926.391 828.345 907.165 819.416C887.348 810.213 861.392 798.518 831.323 785.071C816.313 778.358 800.266 771.203 783.419 763.692C732.826 741.133 675.018 715.358 616.395 688.674C431.045 590.565 361.859 438.858 323.932 344.72Z" fill="#C1A53F" stroke="#68581E" stroke-width="39"/>
<path d="M244.133 481.714C237.211 471.955 223.644 336.825 217.726 270.48C245.775 272.148 256.378 257.902 258.174 250.571L282.035 299.756C288.292 310.202 312.959 358.102 361.571 466.128C456.176 633.942 622.787 721.814 694.267 744.773L941.654 857.39C938.907 859.553 931.723 869.19 924.963 890.427C403.822 823.989 252.786 493.912 244.133 481.714Z" fill="#D6B648"/>
<path d="M185.489 290.494L168.492 248.728C169.027 226.507 39.6511 494.015 235.816 755.437C392.748 964.575 719.548 966.946 859.415 937.894C777.058 919.234 564.962 860.74 375.431 776.046C185.899 691.351 169.832 417.055 185.489 290.494Z" fill="#B09A49"/>
<path d="M86.4679 80.5623C79.7775 83.0668 75.6649 103.244 74.9999 105.914C52.8883 95.8484 46.205 68.2883 51.9995 59.9138L70.4997 46.2692L79.9999 46.2692L150 96.9141C142.088 95.1843 120.438 84.4635 114.089 81.5733C106.153 77.9606 94.8308 77.4316 86.4679 80.5623Z" fill="#593D24"/>
<path d="M930.098 916.881C902.33 911.839 919.779 858.994 941.902 856.842L934.975 917.78C934.353 917.937 932.506 917.978 930.098 916.881Z" fill="#593D24"/>
</g>
<defs>
<clipPath id="clip0_670_70653">
<rect width="1000" height="1000" fill="white"/>
</clipPath>
</defs>
</svg>
