<svg width="500" height="501" viewBox="0 0 500 501" fill="none" xmlns="http://www.w3.org/2000/svg">
<g clip-path="url(#clip0_670_70653)">
<path d="M161.966 172.715L161.899 172.549L161.826 172.384L138.487 120.104L137.988 118.986L137.227 118.025L112.692 87.0458L83.1362 43.7614L82.1645 42.3384L80.7638 41.3346L44.7057 15.4923L41.0216 12.8519L36.6283 13.9666C33.5345 14.7516 30.0373 16.235 26.8374 18.3651C23.6739 20.471 20.1803 23.6266 17.9853 28.0472C15.637 32.7766 15.0828 38.3896 17.2093 44.1957C19.2104 49.6592 23.3192 54.6002 28.9511 59.1578C37.7084 66.2446 49.2102 79.4985 59.1706 92.4894C64.0741 98.8847 68.4506 105.015 71.7566 109.991C73.1653 112.111 74.3521 113.981 75.29 115.543C74.5295 116.748 73.6353 118.2 72.6737 119.898C69.8793 124.83 66.6312 131.617 63.557 141.393C57.443 160.834 52.099 191.837 52.095 243.258L52.095 244.051L52.223 244.833C62.9513 310.385 86.765 359.788 118.768 396.268C150.754 432.728 190.499 455.797 232.371 469.36C315.803 496.384 408.293 485.9 468.018 468.119L474.174 466.286L474.92 459.906L478.458 429.636L479.17 423.548L473.992 420.268C470.629 418.138 463.195 414.528 453.582 410.063C443.674 405.462 430.696 399.615 415.662 392.891C408.156 389.535 400.133 385.957 391.71 382.201C366.413 370.922 337.509 358.034 308.197 344.693C215.523 295.638 180.93 219.784 161.966 172.715Z" fill="#C1A53F" stroke="#68581E" stroke-width="19.5"/>
<path d="M122.067 241.212C118.605 236.333 111.822 168.768 108.863 135.595C122.887 136.429 128.189 129.306 129.087 125.641L141.018 150.233C144.146 155.456 156.479 179.406 180.786 233.419C228.088 317.326 311.394 361.262 347.134 372.742L470.827 429.05C469.453 430.132 465.862 434.95 462.481 445.569C201.911 412.35 126.393 247.311 122.067 241.212Z" fill="#D6B648"/>
<path d="M92.7446 145.602L84.246 124.719C84.5135 113.609 19.8255 247.363 117.908 378.074C196.374 482.643 359.774 483.829 429.708 469.302C388.529 459.972 282.481 430.725 187.715 388.378C92.9497 346.031 84.9158 208.883 92.7446 145.602Z" fill="#B09A49"/>
<path d="M43.2339 40.6366C39.8888 41.8889 37.8325 51.9773 37.4999 53.3126C26.4441 48.2796 23.1025 34.4996 25.9998 30.3124L35.2499 23.4901L39.9999 23.4901L75 48.8125C71.0439 47.9476 60.2189 42.5872 57.0445 41.1421C53.0765 39.3357 47.4154 39.0713 43.2339 40.6366Z" fill="#593D24"/>
<path d="M465.049 458.796C451.165 456.275 459.889 429.853 470.951 428.776L467.487 459.245C467.176 459.324 466.253 459.344 465.049 458.796Z" fill="#593D24"/>
</g>
<defs>
<clipPath id="clip0_670_70653">
<rect width="500" height="500" fill="white" transform="translate(0 0.355469)"/>
</clipPath>
</defs>
</svg>
