<svg width="1001" height="1001" viewBox="0 0 1001 1001" fill="none" xmlns="http://www.w3.org/2000/svg">
<g clip-path="url(#clip0_323_596)">
<mask id="path-1-outside-1_323_596" maskUnits="userSpaceOnUse" x="-60.2648" y="-45.1914" width="1098.28" height="1098.28" fill="black">
<rect fill="white" x="-60.2648" y="-45.1914" width="1098.28" height="1098.28"/>
<path fill-rule="evenodd" clip-rule="evenodd" d="M77.709 496.208C48.4826 504.039 31.1383 534.081 38.9695 563.307L69.5677 677.501C77.3989 706.727 107.44 724.071 136.666 716.24L370.239 653.655C376.917 663.63 389.429 668.74 401.669 665.46L643.878 600.56C656.118 597.28 664.399 586.599 665.194 574.622L898.769 512.035C927.996 504.204 945.34 474.163 937.509 444.937L906.91 330.743C899.079 301.516 869.038 284.172 839.812 292.003L606.236 354.59C599.558 344.616 587.047 339.506 574.808 342.786L332.598 407.686C320.359 410.965 312.078 421.646 311.282 433.622L77.709 496.208Z"/>
</mask>
<path fill-rule="evenodd" clip-rule="evenodd" d="M77.709 496.208C48.4826 504.039 31.1383 534.081 38.9695 563.307L69.5677 677.501C77.3989 706.727 107.44 724.071 136.666 716.24L370.239 653.655C376.917 663.63 389.429 668.74 401.669 665.46L643.878 600.56C656.118 597.28 664.399 586.599 665.194 574.622L898.769 512.035C927.996 504.204 945.34 474.163 937.509 444.937L906.91 330.743C899.079 301.516 869.038 284.172 839.812 292.003L606.236 354.59C599.558 344.616 587.047 339.506 574.808 342.786L332.598 407.686C320.359 410.965 312.078 421.646 311.282 433.622L77.709 496.208Z" fill="#A08C83"/>
<path d="M38.9695 563.307L64.0365 556.59L64.0365 556.59L38.9695 563.307ZM77.709 496.208L70.9923 471.141L70.9923 471.141L77.709 496.208ZM69.5677 677.501L44.5007 684.217L44.5007 684.217L69.5677 677.501ZM136.666 716.24L143.383 741.307L143.383 741.307L136.666 716.24ZM370.239 653.655L391.804 639.218L381.469 623.779L363.523 628.588L370.239 653.655ZM665.194 574.622L658.477 549.555L640.531 554.363L639.3 572.902L665.194 574.622ZM898.769 512.035L905.486 537.102L905.486 537.102L898.769 512.035ZM937.509 444.937L912.442 451.653L912.442 451.653L937.509 444.937ZM839.812 292.003L846.528 317.07L846.528 317.07L839.812 292.003ZM606.236 354.59L584.672 369.027L595.008 384.465L612.953 379.657L606.236 354.59ZM574.808 342.786L581.524 367.853L581.524 367.853L574.808 342.786ZM332.598 407.686L339.315 432.753L339.315 432.753L332.598 407.686ZM311.282 433.622L317.999 458.689L335.944 453.881L337.176 435.344L311.282 433.622ZM64.0365 556.59C59.9148 541.208 69.0433 525.397 84.4257 521.275L70.9923 471.141C27.9218 482.682 2.36186 526.953 13.9026 570.024L64.0365 556.59ZM94.6346 670.784L64.0365 556.59L13.9026 570.024L44.5007 684.217L94.6346 670.784ZM129.95 691.173C114.567 695.295 98.7563 686.166 94.6346 670.784L44.5007 684.217C56.0414 727.288 100.313 752.848 143.383 741.307L129.95 691.173ZM363.523 628.588L129.95 691.173L143.383 741.307L376.956 678.722L363.523 628.588ZM394.952 640.393C393.767 640.711 392.491 640.243 391.804 639.218L348.674 668.091C361.343 687.016 385.09 696.769 408.385 690.527L394.952 640.393ZM637.161 575.493L394.952 640.393L408.385 690.527L650.595 625.627L637.161 575.493ZM639.3 572.902C639.218 574.133 638.347 575.176 637.161 575.493L650.595 625.627C673.89 619.385 689.579 599.065 691.088 576.341L639.3 572.902ZM892.052 486.969L658.477 549.555L671.911 599.689L905.486 537.102L892.052 486.969ZM912.442 451.653C916.563 467.036 907.435 482.847 892.052 486.969L905.486 537.102C948.556 525.562 974.116 481.29 962.576 438.22L912.442 451.653ZM881.843 337.459L912.442 451.653L962.576 438.22L931.977 324.026L881.843 337.459ZM846.528 317.07C861.911 312.949 877.722 322.077 881.843 337.459L931.977 324.026C920.437 280.956 876.166 255.396 833.095 266.936L846.528 317.07ZM612.953 379.657L846.528 317.07L833.095 266.936L599.52 329.523L612.953 379.657ZM581.524 367.853C582.709 367.535 583.986 368.002 584.672 369.027L627.8 340.152C615.131 321.229 591.385 311.477 568.091 317.719L581.524 367.853ZM339.315 432.753L581.524 367.853L568.091 317.719L325.882 382.619L339.315 432.753ZM337.176 435.344C337.258 434.113 338.13 433.07 339.315 432.753L325.882 382.619C302.587 388.86 286.899 409.179 285.388 431.901L337.176 435.344ZM84.4257 521.275L317.999 458.689L304.566 408.555L70.9923 471.141L84.4257 521.275Z" fill="#615550" mask="url(#path-1-outside-1_323_596)"/>
<mask id="path-3-outside-2_323_596" maskUnits="userSpaceOnUse" x="54.7345" y="53.6929" width="876.196" height="876.196" fill="black">
<rect fill="white" x="54.7345" y="53.6929" width="876.196" height="876.196"/>
<path fill-rule="evenodd" clip-rule="evenodd" d="M259.927 149.822C237.893 131.487 205.167 134.486 186.832 156.521L107.526 251.83C89.1916 273.864 92.1908 306.59 114.225 324.925L302.321 481.438C298.026 492.647 301.071 505.815 310.812 513.92L503.564 674.308C513.305 682.413 526.807 683.014 537.048 676.753L725.144 833.266C747.179 851.601 779.905 848.602 798.239 826.567L877.545 731.258C895.88 709.224 892.881 676.498 870.846 658.163L682.75 501.649C687.043 490.441 683.998 477.274 674.258 469.169L481.506 308.782C471.766 300.677 458.265 300.076 448.024 306.336L259.927 149.822Z"/>
</mask>
<path fill-rule="evenodd" clip-rule="evenodd" d="M259.927 149.822C237.893 131.487 205.167 134.486 186.832 156.521L107.526 251.83C89.1916 273.864 92.1908 306.59 114.225 324.925L302.321 481.438C298.026 492.647 301.071 505.815 310.812 513.92L503.564 674.308C513.305 682.413 526.807 683.014 537.048 676.753L725.144 833.266C747.179 851.601 779.905 848.602 798.239 826.567L877.545 731.258C895.88 709.224 892.881 676.498 870.846 658.163L682.75 501.649C687.043 490.441 683.998 477.274 674.258 469.169L481.506 308.782C471.766 300.677 458.265 300.076 448.024 306.336L259.927 149.822Z" fill="#C0ACA3"/>
<path d="M186.832 156.521L206.781 173.12L206.781 173.12L186.832 156.521ZM259.927 149.822L276.526 129.873L276.526 129.873L259.927 149.822ZM107.526 251.83L87.5778 235.231L87.5778 235.231L107.526 251.83ZM114.225 324.925L97.6263 344.873L97.6263 344.873L114.225 324.925ZM302.321 481.438L326.554 490.723L333.202 473.374L318.92 461.49L302.321 481.438ZM310.812 513.92L327.411 493.972L327.411 493.972L310.812 513.92ZM503.564 674.308L520.163 654.359L520.163 654.359L503.564 674.308ZM537.048 676.753L553.647 656.804L539.365 644.921L523.513 654.611L537.048 676.753ZM725.144 833.266L741.743 813.318L741.743 813.318L725.144 833.266ZM798.239 826.567L778.291 809.968L798.239 826.567ZM877.545 731.258L897.494 747.857L877.545 731.258ZM682.75 501.649L658.516 492.366L651.87 509.715L666.151 521.598L682.75 501.649ZM674.258 469.169L690.857 449.221L690.857 449.221L674.258 469.169ZM481.506 308.782L464.907 328.73L464.907 328.73L481.506 308.782ZM448.024 306.336L431.425 326.284L445.706 338.167L461.557 328.478L448.024 306.336ZM206.781 173.12C215.948 162.102 232.311 160.603 243.328 169.77L276.526 129.873C243.474 102.371 194.386 106.87 166.884 139.922L206.781 173.12ZM127.475 268.429L206.781 173.12L166.884 139.922L87.5778 235.231L127.475 268.429ZM130.824 304.976C119.807 295.809 118.307 279.446 127.475 268.429L87.5778 235.231C60.0758 268.283 64.5746 317.371 97.6263 344.873L130.824 304.976ZM318.92 461.49L130.824 304.976L97.6263 344.873L285.722 501.387L318.92 461.49ZM327.411 493.972C326.468 493.187 326.113 491.875 326.554 490.723L278.088 472.153C269.94 493.419 275.674 518.443 294.213 533.869L327.411 493.972ZM520.163 654.359L327.411 493.972L294.213 533.869L486.965 694.256L520.163 654.359ZM523.513 654.611C522.461 655.254 521.106 655.144 520.163 654.359L486.965 694.256C505.504 709.682 531.153 710.773 550.584 698.895L523.513 654.611ZM741.743 813.318L553.647 656.804L520.449 696.701L708.546 853.215L741.743 813.318ZM778.291 809.968C769.123 820.986 752.761 822.485 741.743 813.318L708.546 853.215C741.597 880.717 790.686 876.218 818.188 843.166L778.291 809.968ZM857.597 714.659L778.291 809.968L818.188 843.166L897.494 747.857L857.597 714.659ZM854.247 678.112C865.265 687.279 866.764 703.642 857.597 714.659L897.494 747.857C924.996 714.805 920.497 665.717 887.445 638.215L854.247 678.112ZM666.151 521.598L854.247 678.112L887.445 638.215L699.349 481.701L666.151 521.598ZM657.659 489.118C658.602 489.903 658.957 491.214 658.516 492.366L706.984 510.933C715.13 489.667 709.395 464.646 690.857 449.221L657.659 489.118ZM464.907 328.73L657.659 489.118L690.857 449.221L498.105 288.833L464.907 328.73ZM461.557 328.478C462.61 327.835 463.964 327.946 464.907 328.73L498.105 288.833C479.568 273.409 453.921 272.317 434.49 284.193L461.557 328.478ZM243.328 169.77L431.425 326.284L464.623 286.387L276.526 129.873L243.328 169.77Z" fill="#615550" mask="url(#path-3-outside-2_323_596)"/>
<rect x="478.069" y="349.536" width="230.93" height="199.815" rx="28.8347" transform="rotate(39.7636 478.069 349.536)" fill="#CFB9AE"/>
<rect x="258.799" y="237.94" width="710.788" height="90.8832" rx="28.8347" transform="rotate(39.7636 258.799 237.94)" fill="#CFB9AE"/>
</g>
<defs>
<clipPath id="clip0_323_596">
<rect width="1000" height="1000" fill="white" transform="translate(0.732422 0.465454)"/>
</clipPath>
</defs>
</svg>
