<svg width="501" height="501" viewBox="0 0 501 501" fill="none" xmlns="http://www.w3.org/2000/svg">
<g clip-path="url(#clip0_323_596)">
<mask id="path-1-outside-1_323_596" maskUnits="userSpaceOnUse" x="-29.9986" y="-22.473" width="549.142" height="549.142" fill="black">
<rect fill="white" x="-29.9986" y="-22.473" width="549.142" height="549.142"/>
<path fill-rule="evenodd" clip-rule="evenodd" d="M38.9883 248.227C24.3751 252.142 15.703 267.163 19.6186 281.776L34.9177 338.873C38.8333 353.486 53.8538 362.159 68.4671 358.243L185.254 326.95C188.592 331.938 194.848 334.493 200.968 332.853L322.073 300.403C328.193 298.763 332.333 293.422 332.731 287.434L449.518 256.141C464.132 252.225 472.804 237.204 468.888 222.591L453.589 165.494C449.673 150.881 434.653 142.209 420.04 146.124L303.252 177.418C299.913 172.431 293.658 169.876 287.538 171.516L166.433 203.966C160.313 205.605 156.173 210.946 155.775 216.934L38.9883 248.227Z"/>
</mask>
<path fill-rule="evenodd" clip-rule="evenodd" d="M38.9883 248.227C24.3751 252.142 15.703 267.163 19.6186 281.776L34.9177 338.873C38.8333 353.486 53.8538 362.159 68.4671 358.243L185.254 326.95C188.592 331.938 194.848 334.493 200.968 332.853L322.073 300.403C328.193 298.763 332.333 293.422 332.731 287.434L449.518 256.141C464.132 252.225 472.804 237.204 468.888 222.591L453.589 165.494C449.673 150.881 434.653 142.209 420.04 146.124L303.252 177.418C299.913 172.431 293.658 169.876 287.538 171.516L166.433 203.966C160.313 205.605 156.173 210.946 155.775 216.934L38.9883 248.227Z" fill="#A08C83"/>
<path d="M19.6186 281.776L32.1521 278.418L32.1521 278.418L19.6186 281.776ZM38.9883 248.227L35.63 235.693L35.63 235.693L38.9883 248.227ZM34.9177 338.873L22.3842 342.232L22.3842 342.232L34.9177 338.873ZM68.4671 358.243L65.1087 345.709L65.1087 345.709L68.4671 358.243ZM185.254 326.95L196.036 319.732L190.868 312.012L181.895 314.417L185.254 326.95ZM200.968 332.853L197.61 320.319L197.61 320.319L200.968 332.853ZM322.073 300.403L325.431 312.936L325.431 312.936L322.073 300.403ZM332.731 287.434L329.373 274.9L320.399 277.305L319.784 286.574L332.731 287.434ZM449.518 256.141L452.877 268.674L449.518 256.141ZM468.888 222.591L456.355 225.949L468.888 222.591ZM453.589 165.494L466.123 162.136L453.589 165.494ZM420.04 146.124L416.681 133.591L416.681 133.591L420.04 146.124ZM303.252 177.418L292.47 184.636L297.638 192.355L306.61 189.951L303.252 177.418ZM287.538 171.516L284.179 158.982L284.179 158.982L287.538 171.516ZM166.433 203.966L169.791 216.499L169.791 216.499L166.433 203.966ZM155.775 216.934L159.133 229.467L168.106 227.063L168.722 217.795L155.775 216.934ZM32.1521 278.418C30.0912 270.727 34.6555 262.821 42.3467 260.76L35.63 235.693C14.0948 241.464 1.31478 263.599 7.08514 285.135L32.1521 278.418ZM47.4512 335.515L32.1521 278.418L7.08514 285.135L22.3842 342.232L47.4512 335.515ZM65.1087 345.709C57.4176 347.77 49.512 343.206 47.4512 335.515L22.3842 342.232C28.1546 363.767 50.2901 376.547 71.8254 370.776L65.1087 345.709ZM181.895 314.417L65.1087 345.709L71.8254 370.776L188.612 339.484L181.895 314.417ZM197.61 320.319C197.017 320.478 196.379 320.244 196.036 319.732L174.471 334.168C180.805 343.631 192.679 348.507 204.327 345.386L197.61 320.319ZM318.715 287.869L197.61 320.319L204.327 345.386L325.431 312.936L318.715 287.869ZM319.784 286.574C319.743 287.189 319.307 287.711 318.715 287.869L325.431 312.936C337.079 309.815 344.923 299.655 345.678 288.293L319.784 286.574ZM446.16 243.607L329.373 274.9L336.089 299.967L452.877 268.674L446.16 243.607ZM456.355 225.949C458.416 233.641 453.851 241.546 446.16 243.607L452.877 268.674C474.412 262.904 487.192 240.768 481.422 219.233L456.355 225.949ZM441.056 168.853L456.355 225.949L481.422 219.233L466.123 162.136L441.056 168.853ZM423.398 158.658C431.089 156.597 438.995 161.161 441.056 168.853L466.123 162.136C460.352 140.601 438.217 127.821 416.681 133.591L423.398 158.658ZM306.61 189.951L423.398 158.658L416.681 133.591L299.894 164.884L306.61 189.951ZM290.896 184.049C291.489 183.89 292.127 184.124 292.47 184.636L314.034 170.199C307.699 160.737 295.826 155.861 284.179 158.982L290.896 184.049ZM169.791 216.499L290.896 184.049L284.179 158.982L163.075 191.432L169.791 216.499ZM168.722 217.795C168.763 217.179 169.199 216.658 169.791 216.499L163.075 191.432C151.428 194.553 143.583 204.712 142.828 216.073L168.722 217.795ZM42.3467 260.76L159.133 229.467L152.417 204.4L35.63 235.693L42.3467 260.76Z" fill="#615550" mask="url(#path-1-outside-1_323_596)"/>
<mask id="path-3-outside-2_323_596" maskUnits="userSpaceOnUse" x="27.5011" y="26.9692" width="438.098" height="438.098" fill="black">
<rect fill="white" x="27.5011" y="26.9692" width="438.098" height="438.098"/>
<path fill-rule="evenodd" clip-rule="evenodd" d="M130.098 75.0336C119.08 65.8662 102.717 67.3658 93.5501 78.3831L53.8971 126.038C44.7297 137.055 46.2293 153.418 57.2465 162.585L151.295 240.842C149.147 246.446 150.669 253.03 155.54 257.083L251.916 337.277C256.786 341.329 263.537 341.63 268.658 338.499L362.706 416.756C373.723 425.923 390.086 424.424 399.254 413.406L438.907 365.752C448.074 354.735 446.574 338.372 435.557 329.204L341.509 250.947C343.656 245.343 342.133 238.76 337.263 234.707L240.887 154.514C236.017 150.461 229.267 150.161 224.146 153.29L130.098 75.0336Z"/>
</mask>
<path fill-rule="evenodd" clip-rule="evenodd" d="M130.098 75.0336C119.08 65.8662 102.717 67.3658 93.5501 78.3831L53.8971 126.038C44.7297 137.055 46.2293 153.418 57.2465 162.585L151.295 240.842C149.147 246.446 150.669 253.03 155.54 257.083L251.916 337.277C256.786 341.329 263.537 341.63 268.658 338.499L362.706 416.756C373.723 425.923 390.086 424.424 399.254 413.406L438.907 365.752C448.074 354.735 446.574 338.372 435.557 329.204L341.509 250.947C343.656 245.343 342.133 238.76 337.263 234.707L240.887 154.514C236.017 150.461 229.267 150.161 224.146 153.29L130.098 75.0336Z" fill="#C0ACA3"/>
<path d="M93.5501 78.3831L103.524 86.6825L103.524 86.6825L93.5501 78.3831ZM130.098 75.0336L138.397 65.0593L138.397 65.0593L130.098 75.0336ZM53.8971 126.038L63.8713 134.337L63.8713 134.337L53.8971 126.038ZM57.2465 162.585L48.9471 172.559L48.9471 172.559L57.2465 162.585ZM151.295 240.842L163.411 245.484L166.735 236.809L159.594 230.868L151.295 240.842ZM155.54 257.083L147.24 267.057L147.24 267.057L155.54 257.083ZM251.916 337.277L243.616 347.251L243.616 347.251L251.916 337.277ZM268.658 338.499L276.958 328.525L269.817 322.583L261.89 327.428L268.658 338.499ZM362.706 416.756L354.407 426.73L362.706 416.756ZM399.254 413.406L389.279 405.107L399.254 413.406ZM438.907 365.752L448.881 374.051L438.907 365.752ZM341.509 250.947L329.392 246.306L326.069 254.98L333.209 260.922L341.509 250.947ZM337.263 234.707L345.562 224.733L345.562 224.733L337.263 234.707ZM240.887 154.514L232.588 164.488L232.588 164.488L240.887 154.514ZM224.146 153.29L215.846 163.265L222.987 169.206L230.913 164.362L224.146 153.29ZM103.524 86.6825C108.108 81.1739 116.289 80.4241 121.798 85.0078L138.397 65.0593C121.871 51.3083 97.3269 53.5578 83.5759 70.0836L103.524 86.6825ZM63.8713 134.337L103.524 86.6825L83.5759 70.0836L43.9228 117.738L63.8713 134.337ZM65.546 152.611C60.0374 148.027 59.2876 139.846 63.8713 134.337L43.9228 117.738C30.1718 134.264 32.4212 158.808 48.9471 172.559L65.546 152.611ZM159.594 230.868L65.546 152.611L48.9471 172.559L142.995 250.816L159.594 230.868ZM163.839 247.109C163.368 246.716 163.19 246.06 163.411 245.484L139.178 236.199C135.104 246.832 137.971 259.344 147.24 267.057L163.839 247.109ZM260.215 327.302L163.839 247.109L147.24 267.057L243.616 347.251L260.215 327.302ZM261.89 327.428C261.364 327.75 260.687 327.695 260.215 327.302L243.616 347.251C252.886 354.964 265.71 355.509 275.426 349.57L261.89 327.428ZM371.006 406.782L276.958 328.525L260.359 348.473L354.407 426.73L371.006 406.782ZM389.279 405.107C384.696 410.616 376.514 411.365 371.006 406.782L354.407 426.73C370.933 440.481 395.477 438.232 409.228 421.706L389.279 405.107ZM428.932 357.452L389.279 405.107L409.228 421.706L448.881 374.051L428.932 357.452ZM427.258 339.179C432.766 343.762 433.516 351.944 428.932 357.452L448.881 374.051C462.632 357.525 460.382 332.981 443.857 319.23L427.258 339.179ZM333.209 260.922L427.258 339.179L443.857 319.23L349.808 240.973L333.209 260.922ZM328.963 244.682C329.435 245.074 329.612 245.73 329.392 246.306L353.626 255.589C357.699 244.956 354.831 232.446 345.562 224.733L328.963 244.682ZM232.588 164.488L328.963 244.682L345.562 224.733L249.186 144.539L232.588 164.488ZM230.913 164.362C231.439 164.04 232.116 164.096 232.588 164.488L249.187 144.539C239.918 136.827 227.094 136.281 217.379 142.219L230.913 164.362ZM121.798 85.0078L215.846 163.265L232.445 143.316L138.397 65.0593L121.798 85.0078Z" fill="#615550" mask="url(#path-3-outside-2_323_596)"/>
<rect x="239.168" y="174.891" width="115.465" height="99.9076" rx="14.4173" transform="rotate(39.7636 239.168 174.891)" fill="#CFB9AE"/>
<rect x="129.534" y="119.093" width="355.394" height="45.4416" rx="14.4173" transform="rotate(39.7636 129.534 119.093)" fill="#CFB9AE"/>
</g>
<defs>
<clipPath id="clip0_323_596">
<rect width="500" height="500" fill="white" transform="translate(0.5 0.355469)"/>
</clipPath>
</defs>
</svg>
