<svg width="1001" height="1001" viewBox="0 0 1001 1001" fill="none" xmlns="http://www.w3.org/2000/svg">
<g clip-path="url(#clip0_473_4)">
<mask id="path-1-outside-1_473_4" maskUnits="userSpaceOnUse" x="-60.0487" y="-45.1914" width="1098.28" height="1098.28" fill="black">
<rect fill="white" x="-60.0487" y="-45.1914" width="1098.28" height="1098.28"/>
<path fill-rule="evenodd" clip-rule="evenodd" d="M77.9251 496.208C48.6987 504.039 31.3544 534.081 39.1856 563.307L69.7838 677.501C77.615 706.727 107.656 724.071 136.882 716.24L370.455 653.655C377.133 663.63 389.644 668.74 401.885 665.46L644.094 600.56C656.334 597.28 664.615 586.599 665.41 574.622L898.985 512.035C928.212 504.204 945.556 474.163 937.725 444.937L907.127 330.743C899.295 301.516 869.254 284.172 840.028 292.003L606.452 354.59C599.775 344.616 587.263 339.506 575.024 342.786L332.814 407.686C320.575 410.965 312.294 421.646 311.498 433.622L77.9251 496.208Z"/>
</mask>
<path fill-rule="evenodd" clip-rule="evenodd" d="M77.9251 496.208C48.6987 504.039 31.3544 534.081 39.1856 563.307L69.7838 677.501C77.615 706.727 107.656 724.071 136.882 716.24L370.455 653.655C377.133 663.63 389.644 668.74 401.885 665.46L644.094 600.56C656.334 597.28 664.615 586.599 665.41 574.622L898.985 512.035C928.212 504.204 945.556 474.163 937.725 444.937L907.127 330.743C899.295 301.516 869.254 284.172 840.028 292.003L606.452 354.59C599.775 344.616 587.263 339.506 575.024 342.786L332.814 407.686C320.575 410.965 312.294 421.646 311.498 433.622L77.9251 496.208Z" fill="#A08C83"/>
<path d="M39.1856 563.307L14.1187 570.024L39.1856 563.307ZM77.9251 496.208L71.2084 471.141L71.2084 471.141L77.9251 496.208ZM69.7838 677.501L44.7168 684.217L69.7838 677.501ZM136.882 716.24L130.166 691.173L130.166 691.173L136.882 716.24ZM370.455 653.655L392.02 639.218L381.685 623.779L363.739 628.588L370.455 653.655ZM665.41 574.622L658.693 549.555L640.747 554.363L639.516 572.902L665.41 574.622ZM907.127 330.743L932.193 324.026L932.193 324.026L907.127 330.743ZM840.028 292.003L846.744 317.07L846.745 317.07L840.028 292.003ZM606.452 354.59L584.888 369.027L595.224 384.465L613.169 379.657L606.452 354.59ZM575.024 342.786L581.74 367.853L581.74 367.853L575.024 342.786ZM332.814 407.686L339.531 432.753L339.531 432.753L332.814 407.686ZM311.498 433.622L318.215 458.689L336.16 453.881L337.392 435.344L311.498 433.622ZM64.2526 556.59C60.1309 541.208 69.2594 525.397 84.6418 521.275L71.2084 471.141C28.1379 482.682 2.57794 526.953 14.1187 570.024L64.2526 556.59ZM94.8507 670.784L64.2526 556.59L14.1187 570.024L44.7168 684.217L94.8507 670.784ZM130.166 691.173C114.784 695.295 98.9724 686.166 94.8507 670.784L44.7168 684.217C56.2575 727.288 100.529 752.848 143.599 741.307L130.166 691.173ZM363.739 628.588L130.166 691.173L143.599 741.307L377.172 678.722L363.739 628.588ZM395.168 640.393C393.983 640.711 392.707 640.243 392.02 639.218L348.89 668.091C361.559 687.016 385.306 696.769 408.601 690.527L395.168 640.393ZM637.377 575.493L395.168 640.393L408.601 690.527L650.811 625.627L637.377 575.493ZM639.516 572.902C639.434 574.133 638.563 575.176 637.377 575.493L650.811 625.627C674.106 619.385 689.795 599.065 691.304 576.341L639.516 572.902ZM892.269 486.969L658.693 549.555L672.127 599.689L905.702 537.102L892.269 486.969ZM912.658 451.653C916.779 467.036 907.651 482.847 892.269 486.969L905.702 537.102C948.772 525.562 974.332 481.29 962.792 438.22L912.658 451.653ZM882.06 337.459L912.658 451.653L962.792 438.22L932.193 324.026L882.06 337.459ZM846.745 317.07C862.127 312.949 877.938 322.077 882.06 337.46L932.193 324.026C920.653 280.956 876.382 255.396 833.311 266.936L846.745 317.07ZM613.169 379.657L846.744 317.07L833.311 266.936L599.736 329.523L613.169 379.657ZM581.74 367.853C582.926 367.535 584.202 368.002 584.888 369.027L628.017 340.152C615.347 321.229 591.601 311.477 568.307 317.719L581.74 367.853ZM339.531 432.753L581.74 367.853L568.307 317.719L326.098 382.619L339.531 432.753ZM337.392 435.344C337.474 434.113 338.346 433.07 339.531 432.753L326.098 382.619C302.803 388.86 287.115 409.179 285.604 431.901L337.392 435.344ZM84.6417 521.275L318.215 458.689L304.782 408.555L71.2084 471.141L84.6417 521.275Z" fill="#615550" mask="url(#path-1-outside-1_473_4)"/>
<mask id="path-3-outside-2_473_4" maskUnits="userSpaceOnUse" x="54.9508" y="53.6926" width="876.196" height="876.196" fill="black">
<rect fill="white" x="54.9508" y="53.6926" width="876.196" height="876.196"/>
<path fill-rule="evenodd" clip-rule="evenodd" d="M260.143 149.821C238.109 131.487 205.383 134.486 187.049 156.52L107.743 251.83C89.4078 273.864 92.407 306.59 114.441 324.924L302.537 481.437C298.242 492.647 301.286 505.815 311.027 513.92L503.779 674.308C513.52 682.413 527.023 683.014 537.264 676.752L725.361 833.266C747.395 851.601 780.121 848.601 798.456 826.567L877.762 731.258C896.096 709.223 893.097 676.498 871.063 658.163L682.966 501.649C687.259 490.44 684.214 477.274 674.474 469.169L481.722 308.782C471.982 300.677 458.481 300.076 448.24 306.335L260.143 149.821Z"/>
</mask>
<path fill-rule="evenodd" clip-rule="evenodd" d="M260.143 149.821C238.109 131.487 205.383 134.486 187.049 156.52L107.743 251.83C89.4078 273.864 92.407 306.59 114.441 324.924L302.537 481.437C298.242 492.647 301.286 505.815 311.027 513.92L503.779 674.308C513.52 682.413 527.023 683.014 537.264 676.752L725.361 833.266C747.395 851.601 780.121 848.601 798.456 826.567L877.762 731.258C896.096 709.223 893.097 676.498 871.063 658.163L682.966 501.649C687.259 490.44 684.214 477.274 674.474 469.169L481.722 308.782C471.982 300.677 458.481 300.076 448.24 306.335L260.143 149.821Z" fill="#C0ACA3"/>
<path d="M187.049 156.52L206.997 173.119L206.997 173.119L187.049 156.52ZM260.143 149.821L276.742 129.873L276.742 129.873L260.143 149.821ZM107.743 251.83L127.691 268.429L127.691 268.429L107.743 251.83ZM114.441 324.924L97.8425 344.873L97.8425 344.873L114.441 324.924ZM302.537 481.437L326.77 490.723L333.418 473.373L319.136 461.489L302.537 481.437ZM311.027 513.92L327.626 493.972L327.626 493.972L311.027 513.92ZM503.779 674.308L487.18 694.256L487.18 694.256L503.779 674.308ZM537.264 676.752L553.863 656.804L539.581 644.92L523.729 654.611L537.264 676.752ZM725.361 833.266L708.762 853.214L708.762 853.214L725.361 833.266ZM798.456 826.567L818.404 843.166L818.404 843.166L798.456 826.567ZM877.762 731.258L897.71 747.857L877.762 731.258ZM682.966 501.649L658.731 492.366L652.086 509.715L666.367 521.597L682.966 501.649ZM674.474 469.169L657.875 489.118L657.875 489.118L674.474 469.169ZM481.722 308.782L465.123 328.73L465.123 328.73L481.722 308.782ZM448.24 306.335L431.641 326.284L445.921 338.166L461.773 328.478L448.24 306.335ZM206.997 173.119C216.164 162.102 232.527 160.602 243.545 169.77L276.742 129.873C243.691 102.371 194.602 106.87 167.1 139.921L206.997 173.119ZM127.691 268.429L206.997 173.119L167.1 139.921L87.7941 235.231L127.691 268.429ZM131.04 304.976C120.023 295.809 118.524 279.446 127.691 268.429L87.7941 235.231C60.292 268.282 64.7909 317.371 97.8425 344.873L131.04 304.976ZM319.136 461.489L131.04 304.976L97.8425 344.873L285.938 501.386L319.136 461.489ZM327.626 493.972C326.683 493.187 326.329 491.875 326.77 490.723L278.304 472.151C270.155 493.418 275.889 518.443 294.429 533.869L327.626 493.972ZM520.378 654.359L327.626 493.972L294.429 533.869L487.18 694.256L520.378 654.359ZM523.729 654.611C522.676 655.254 521.321 655.144 520.378 654.359L487.18 694.256C505.719 709.682 531.369 710.773 550.8 698.894L523.729 654.611ZM741.96 813.318L553.863 656.804L520.666 696.701L708.762 853.214L741.96 813.318ZM778.507 809.968C769.34 820.985 752.977 822.485 741.96 813.318L708.762 853.214C741.813 880.717 790.902 876.218 818.404 843.166L778.507 809.968ZM857.813 714.659L778.507 809.968L818.404 843.166L897.71 747.857L857.813 714.659ZM854.464 678.111C865.481 687.279 866.981 703.642 857.813 714.659L897.71 747.857C925.212 714.805 920.713 665.717 887.662 638.215L854.464 678.111ZM666.367 521.597L854.464 678.111L887.662 638.215L699.564 481.7L666.367 521.597ZM657.875 489.118C658.818 489.903 659.172 491.214 658.731 492.366L707.2 510.931C715.345 489.666 709.61 464.645 691.072 449.221L657.875 489.118ZM465.123 328.73L657.875 489.118L691.072 449.221L498.321 288.833L465.123 328.73ZM461.773 328.478C462.825 327.835 464.18 327.946 465.123 328.73L498.321 288.833C479.784 273.409 454.137 272.317 434.707 284.192L461.773 328.478ZM243.545 169.77L431.641 326.284L464.839 286.387L276.742 129.873L243.545 169.77Z" fill="#615550" mask="url(#path-3-outside-2_473_4)"/>
<rect x="478.285" y="349.536" width="230.93" height="199.815" rx="28.8347" transform="rotate(39.7636 478.285 349.536)" fill="#CFB9AE"/>
<rect x="259.015" y="237.94" width="710.788" height="90.8832" rx="28.8347" transform="rotate(39.7636 259.015 237.94)" fill="#CFB9AE"/>
</g>
<defs>
<clipPath id="clip0_473_4">
<rect width="1000" height="1000" fill="white" transform="translate(0.948906 0.465454)"/>
</clipPath>
</defs>
</svg>
