<svg width="400" height="400" viewBox="0 0 400 400" fill="none" xmlns="http://www.w3.org/2000/svg">
<g clip-path="url(#clip0_323_596)">
<mask id="path-1-outside-1_323_596" maskUnits="userSpaceOnUse" x="-25.2138" y="-18.516" width="439.86" height="439.86" fill="black">
<rect fill="white" x="-25.2138" y="-18.516" width="439.86" height="439.86"/>
<path fill-rule="evenodd" clip-rule="evenodd" d="M30.7752 198.199C19.0904 201.33 12.1561 213.341 15.287 225.026L27.5202 270.681C30.6512 282.365 42.6617 289.3 54.3465 286.169L147.73 261.147C150.4 265.135 155.402 267.178 160.295 265.867L257.131 239.919C262.025 238.608 265.336 234.338 265.654 229.549L359.037 204.527C370.722 201.396 377.656 189.386 374.525 177.701L362.292 132.046C359.161 120.361 347.151 113.427 335.466 116.558L242.082 141.58C239.412 137.592 234.41 135.549 229.517 136.861L132.681 162.808C127.787 164.119 124.477 168.389 124.159 173.177L30.7752 198.199Z"/>
</mask>
<path fill-rule="evenodd" clip-rule="evenodd" d="M30.7752 198.199C19.0904 201.33 12.1561 213.341 15.287 225.026L27.5202 270.681C30.6512 282.365 42.6617 289.3 54.3465 286.169L147.73 261.147C150.4 265.135 155.402 267.178 160.295 265.867L257.131 239.919C262.025 238.608 265.336 234.338 265.654 229.549L359.037 204.527C370.722 201.396 377.656 189.386 374.525 177.701L362.292 132.046C359.161 120.361 347.151 113.427 335.466 116.558L242.082 141.58C239.412 137.592 234.41 135.549 229.517 136.861L132.681 162.808C127.787 164.119 124.477 168.389 124.159 173.177L30.7752 198.199Z" fill="#A08C83"/>
<path d="M15.287 225.026L25.3088 222.34L15.287 225.026ZM30.7752 198.199L33.4605 208.221L33.4605 208.221L30.7752 198.199ZM27.5202 270.681L17.4984 273.366L27.5202 270.681ZM54.3465 286.169L57.0319 296.191L57.0319 296.191L54.3465 286.169ZM147.73 261.147L156.352 255.375L152.22 249.202L145.045 251.125L147.73 261.147ZM160.295 265.867L157.61 255.845L157.61 255.845L160.295 265.867ZM257.131 239.919L254.446 229.898L254.446 229.898L257.131 239.919ZM265.654 229.549L262.968 219.527L255.793 221.45L255.301 228.862L265.654 229.549ZM359.037 204.527L356.352 194.505L356.352 194.505L359.037 204.527ZM374.525 177.701L384.547 175.015L374.525 177.701ZM362.292 132.046L352.27 134.731L352.27 134.731L362.292 132.046ZM335.466 116.558L332.781 106.536L335.466 116.558ZM242.082 141.58L233.461 147.352L237.593 153.524L244.767 151.602L242.082 141.58ZM229.517 136.861L232.202 146.882L229.517 136.861ZM132.681 162.808L129.996 152.786L132.681 162.808ZM124.159 173.177L126.844 183.199L134.019 181.277L134.511 173.865L124.159 173.177ZM25.3088 222.34C23.661 216.19 27.3106 209.869 33.4605 208.221L28.0898 188.177C10.8701 192.791 0.651157 210.491 5.26517 227.711L25.3088 222.34ZM37.5421 267.995L25.3088 222.34L5.26517 227.711L17.4984 273.366L37.5421 267.995ZM51.6612 276.147C45.5113 277.795 39.1899 274.145 37.5421 267.995L17.4984 273.366C22.1124 290.586 39.8122 300.805 57.0319 296.191L51.6612 276.147ZM145.045 251.125L51.6612 276.147L57.0319 296.191L150.415 271.169L145.045 251.125ZM157.61 255.845C157.136 255.972 156.626 255.785 156.352 255.375L139.108 266.918C144.173 274.485 153.667 278.384 162.981 275.888L157.61 255.845ZM254.446 229.898L157.61 255.845L162.981 275.888L259.817 249.941L254.446 229.898ZM255.301 228.862C255.268 229.354 254.92 229.771 254.446 229.898L259.817 249.941C269.13 247.446 275.403 239.322 276.006 230.237L255.301 228.862ZM356.352 194.505L262.968 219.527L268.339 239.571L361.723 214.549L356.352 194.505ZM364.504 180.386C366.151 186.536 362.502 192.857 356.352 194.505L361.723 214.549C378.942 209.935 389.161 192.235 384.547 175.015L364.504 180.386ZM352.27 134.731L364.504 180.386L384.547 175.015L372.314 129.36L352.27 134.731ZM338.151 126.579C344.301 124.932 350.623 128.581 352.27 134.731L372.314 129.36C367.7 112.141 350 101.922 332.781 106.536L338.151 126.579ZM244.767 151.602L338.151 126.579L332.781 106.536L239.397 131.558L244.767 151.602ZM232.202 146.882C232.676 146.755 233.186 146.942 233.461 147.352L250.704 135.807C245.638 128.242 236.145 124.343 226.832 126.839L232.202 146.882ZM135.366 172.83L232.202 146.882L226.832 126.839L129.996 152.786L135.366 172.83ZM134.511 173.865C134.544 173.373 134.892 172.956 135.366 172.83L129.996 152.786C120.683 155.281 114.41 163.405 113.806 172.489L134.511 173.865ZM33.4605 208.221L126.844 183.199L121.473 163.155L28.0898 188.177L33.4605 208.221Z" fill="#615550" mask="url(#path-1-outside-1_323_596)"/>
<mask id="path-3-outside-2_323_596" maskUnits="userSpaceOnUse" x="20.9321" y="20.664" width="351.131" height="351.131" fill="black">
<rect fill="white" x="20.9321" y="20.664" width="351.131" height="351.131"/>
<path fill-rule="evenodd" clip-rule="evenodd" d="M103.627 59.7132C94.8171 52.3829 81.7333 53.582 74.4031 62.3914L42.6962 100.496C35.366 109.306 36.5651 122.39 45.3745 129.72L120.576 192.294C118.859 196.776 120.076 202.04 123.97 205.281L201.033 269.404C204.928 272.645 210.326 272.885 214.42 270.382L289.622 332.956C298.431 340.286 311.515 339.087 318.845 330.278L350.552 292.173C357.882 283.364 356.683 270.28 347.874 262.95L272.672 200.375C274.389 195.894 273.171 190.629 269.277 187.389L192.214 123.266C188.32 120.025 182.923 119.785 178.828 122.288L103.627 59.7132Z"/>
</mask>
<path fill-rule="evenodd" clip-rule="evenodd" d="M103.627 59.7132C94.8171 52.3829 81.7333 53.582 74.4031 62.3914L42.6962 100.496C35.366 109.306 36.5651 122.39 45.3745 129.72L120.576 192.294C118.859 196.776 120.076 202.04 123.97 205.281L201.033 269.404C204.928 272.645 210.326 272.885 214.42 270.382L289.622 332.956C298.431 340.286 311.515 339.087 318.845 330.278L350.552 292.173C357.882 283.364 356.683 270.28 347.874 262.95L272.672 200.375C274.389 195.894 273.171 190.629 269.277 187.389L192.214 123.266C188.32 120.025 182.923 119.785 178.828 122.288L103.627 59.7132Z" fill="#C0ACA3"/>
<path d="M74.4031 62.3914L66.4276 55.7551L66.4276 55.7551L74.4031 62.3914ZM103.627 59.7132L110.263 51.7377L103.627 59.7132ZM42.6962 100.496L34.7208 93.86L34.7208 93.86L42.6962 100.496ZM45.3745 129.72L52.0108 121.744L52.0108 121.744L45.3745 129.72ZM120.576 192.294L130.264 196.006L132.922 189.07L127.212 184.319L120.576 192.294ZM123.97 205.281L117.334 213.256L117.334 213.256L123.97 205.281ZM201.033 269.404L194.397 277.379L194.397 277.379L201.033 269.404ZM214.42 270.382L221.057 262.406L215.347 257.655L209.009 261.529L214.42 270.382ZM350.552 292.173L358.527 298.809L358.527 298.809L350.552 292.173ZM272.672 200.375L262.983 196.663L260.326 203.599L266.036 208.35L272.672 200.375ZM192.214 123.266L185.578 131.241L185.578 131.241L192.214 123.266ZM178.828 122.288L172.192 130.263L177.901 135.014L184.239 131.14L178.828 122.288ZM82.3785 69.0277C86.0436 64.623 92.5855 64.0235 96.9903 67.6886L110.263 51.7377C97.0487 40.7423 77.423 42.541 66.4276 55.7551L82.3785 69.0277ZM50.6717 107.133L82.3785 69.0277L66.4276 55.7551L34.7208 93.86L50.6717 107.133ZM52.0108 121.744C47.6061 118.079 47.0066 111.537 50.6717 107.133L34.7208 93.86C23.7254 107.074 25.5241 126.7 38.7382 137.695L52.0108 121.744ZM127.212 184.319L52.0108 121.744L38.7382 137.695L113.939 200.27L127.212 184.319ZM130.607 197.305C130.23 196.991 130.088 196.467 130.264 196.006L110.887 188.582C107.629 197.084 109.922 207.089 117.334 213.256L130.607 197.305ZM207.669 261.429L130.607 197.305L117.334 213.256L194.397 277.379L207.669 261.429ZM209.009 261.529C208.588 261.786 208.047 261.742 207.669 261.429L194.397 277.379C201.809 283.547 212.063 283.983 219.832 279.234L209.009 261.529ZM296.258 324.981L221.057 262.406L207.784 278.357L282.985 340.932L296.258 324.981ZM310.87 323.642C307.205 328.046 300.663 328.646 296.258 324.981L282.985 340.932C296.2 351.927 315.825 350.128 326.821 336.914L310.87 323.642ZM342.577 285.537L310.87 323.642L326.821 336.914L358.527 298.809L342.577 285.537ZM341.237 270.925C345.642 274.59 346.242 281.132 342.577 285.537L358.527 298.809C369.523 285.595 367.724 265.97 354.51 254.974L341.237 270.925ZM266.036 208.35L341.237 270.925L354.51 254.974L279.308 192.399L266.036 208.35ZM262.641 195.365C263.018 195.678 263.16 196.203 262.983 196.663L282.361 204.086C285.618 195.584 283.325 185.581 275.913 179.414L262.641 195.365ZM185.578 131.241L262.641 195.365L275.913 179.414L198.851 115.29L185.578 131.241ZM184.239 131.14C184.66 130.883 185.201 130.927 185.578 131.241L198.851 115.29C191.439 109.123 181.186 108.687 173.417 113.435L184.239 131.14ZM96.9903 67.6886L172.192 130.263L185.464 114.312L110.263 51.7377L96.9903 67.6886Z" fill="#615550" mask="url(#path-3-outside-2_323_596)"/>
<rect x="190.84" y="139.559" width="92.3263" height="79.8867" rx="11.5282" transform="rotate(39.7636 190.84 139.559)" fill="#CFB9AE"/>
<rect x="103.176" y="94.9429" width="284.175" height="36.3354" rx="11.5282" transform="rotate(39.7636 103.176 94.9429)" fill="#CFB9AE"/>
</g>
<defs>
<clipPath id="clip0_323_596">
<rect width="400" height="400" fill="white"/>
</clipPath>
</defs>
</svg>
