<svg width="1000" height="1001" viewBox="0 0 1000 1001" fill="none" xmlns="http://www.w3.org/2000/svg">
<g clip-path="url(#clip0_524_1211)">
<path d="M270.304 889.226C270.311 889.22 270.318 889.214 270.325 889.208L270.304 889.226ZM300.654 907.462L300.661 907.434C300.658 907.443 300.656 907.453 300.654 907.462ZM502.702 106.64C486.53 67.4655 429.523 72.453 420.399 113.841L361.01 383.237L85.9703 404.555C43.7157 407.831 30.843 463.588 67.3855 485.055L305.245 624.785L240.528 892.952C230.585 934.15 279.635 963.623 311.344 935.502L517.738 752.464L752.781 896.882C788.89 919.068 832.078 881.527 815.132 842.68L704.832 589.826L914.813 410.914C947.073 383.428 924.714 330.753 882.532 334.865L607.969 361.631L502.702 106.64Z" fill="#A25942" stroke="#784535" stroke-width="61.8526"/>
<path d="M467.954 315.131C471.182 304.442 485.801 303.164 490.836 313.129L554.159 438.436C556.305 442.684 560.698 445.323 565.457 445.224L705.824 442.307C716.987 442.075 722.721 455.582 714.799 463.451L615.193 562.396C611.816 565.75 610.664 570.744 612.228 575.239L658.379 707.835C662.049 718.379 650.975 728.006 641.043 722.904L516.161 658.749C511.927 656.574 506.822 657.021 503.03 659.897L391.185 744.764C382.291 751.513 369.713 743.956 371.496 732.934L393.921 594.338C394.681 589.64 392.679 584.922 388.771 582.205L273.496 502.06C264.329 495.686 267.63 481.388 278.663 479.678L417.405 458.177C422.108 457.448 425.976 454.086 427.353 449.53L467.954 315.131Z" fill="#B66349"/>
</g>
<defs>
<clipPath id="clip0_524_1211">
<rect width="1000" height="1000" fill="white" transform="translate(0 0.0273438)"/>
</clipPath>
</defs>
</svg>
