<svg width="500" height="501" viewBox="0 0 500 501" fill="none" xmlns="http://www.w3.org/2000/svg">
<g clip-path="url(#clip0_524_1219)">
<path d="M345.496 107.079L272.474 36.2618C251.087 15.5212 216.281 18.5663 198.821 42.7055L139.206 125.127C137.741 127.152 135.83 128.813 133.621 129.982L43.705 177.546C17.3708 191.477 9.51125 225.52 27.0736 249.585L87.0389 331.752C88.5121 333.771 89.5014 336.101 89.9301 338.564L107.381 438.777C112.492 468.127 142.44 486.122 170.754 476.856L267.431 445.217C269.806 444.439 272.328 444.219 274.802 444.572L375.504 458.943C404.996 463.152 431.365 440.23 431.302 410.438L431.086 308.716C431.081 306.217 431.65 303.75 432.75 301.506L477.536 210.174C490.653 183.426 477.001 151.264 448.648 142.118L351.839 110.89C349.46 110.123 347.29 108.819 345.496 107.079Z" fill="#527244" stroke="#3C4F34" stroke-width="32.5942"/>
<path d="M172.414 161.977L89.6797 202.112C77.171 208.18 72.9511 223.929 80.7499 235.438L132.332 311.563L144.936 402.65C146.842 416.422 160.517 425.302 173.873 421.441L262.211 395.907L352.735 412.068C366.422 414.511 379.093 404.25 379.549 390.355L382.562 298.449L425.905 217.349C432.458 205.088 426.615 189.866 413.541 185.139L327.065 153.872L263.328 87.5895C253.691 77.5682 237.409 78.4215 228.873 89.3952L172.414 161.977Z" fill="#8F846F" stroke="#746A57" stroke-width="32.5942"/>
<path d="M238.166 156.039L166.223 150.855C152.356 149.856 140.826 161.385 141.826 175.252L147.01 247.195L119.848 314.016C114.612 326.895 122.014 341.423 135.511 344.758L205.536 362.059L260.692 408.54C271.323 417.499 287.427 414.949 294.77 403.143L332.863 341.892L394.114 303.799C405.92 296.457 408.47 280.353 399.511 269.721L353.029 214.565L335.728 144.541C332.394 131.044 317.866 123.641 304.986 128.877L238.166 156.039Z" fill="#8F846F" stroke="#746A57" stroke-width="32.5942"/>
<circle cx="257.556" cy="266.593" r="68.4478" transform="rotate(-30 257.556 266.593)" fill="#9E937C"/>
</g>
<defs>
<clipPath id="clip0_524_1219">
<rect width="500" height="500" fill="white" transform="translate(0 0.520508)"/>
</clipPath>
</defs>
</svg>
