<svg width="500" height="501" viewBox="0 0 500 501" fill="none" xmlns="http://www.w3.org/2000/svg">
<g clip-path="url(#clip0_524_1211)">
<path d="M303.984 180.822L251.351 53.3268C243.265 33.7396 214.762 36.2333 210.2 56.9271L180.505 191.625L42.9851 202.285C21.8578 203.922 15.4216 231.801 33.6928 242.534L152.622 312.399L120.264 446.483C115.292 467.082 139.818 481.818 155.672 467.758L258.869 376.239L376.39 448.448C394.445 459.541 416.039 440.77 407.566 421.347L352.416 294.92L457.407 205.464C473.536 191.721 462.357 165.383 441.266 167.439L303.984 180.822Z" fill="#A25942" stroke="#784535" stroke-width="30.9263"/>
<path d="M233.977 157.572C235.591 152.228 242.9 151.589 245.418 156.571L277.079 219.225C278.153 221.349 280.349 222.669 282.728 222.619L352.912 221.16C358.494 221.044 361.36 227.798 357.4 231.732L307.596 281.205C305.908 282.882 305.332 285.379 306.114 287.626L329.189 353.924C331.025 359.197 325.487 364.01 320.522 361.459L258.08 329.381C255.964 328.294 253.411 328.517 251.515 329.956L195.593 372.389C191.145 375.763 184.856 371.985 185.748 366.474L196.96 297.176C197.341 294.827 196.339 292.468 194.385 291.109L136.748 251.037C132.164 247.85 133.815 240.701 139.332 239.846L208.703 229.095C211.054 228.731 212.988 227.05 213.676 224.772L233.977 157.572Z" fill="#B66349"/>
</g>
<defs>
<clipPath id="clip0_524_1211">
<rect width="500" height="500" fill="white" transform="translate(0 0.0205078)"/>
</clipPath>
</defs>
</svg>
