<svg width="1000" height="1001" viewBox="0 0 1000 1001" fill="none" xmlns="http://www.w3.org/2000/svg">
<g clip-path="url(#clip0_524_1218)">
<path d="M49.9733 428.734L73.8078 411.34L49.9733 428.734L196.331 629.281L238.923 873.873C243.289 898.942 268.869 914.312 293.053 906.397L529.011 829.175L774.794 864.25C799.985 867.845 822.508 848.267 822.454 822.821L821.926 574.548L931.236 351.634C942.439 328.786 930.779 301.316 906.561 293.504L670.277 217.285L492.051 44.4414C473.785 26.726 444.055 29.327 429.142 49.9452L283.638 251.112L64.1789 367.203C41.6858 379.101 34.9726 408.179 49.9733 428.734ZM281.193 254.492C281.196 254.488 281.2 254.483 281.203 254.478L281.193 254.492L281.193 254.492Z" fill="#527244" stroke="#3C4F34" stroke-width="59.6571"/>
<path d="M235.739 191.112C210.358 189.283 189.256 210.385 191.085 235.766L206.796 453.782L124.483 656.273C114.901 679.846 128.449 706.437 153.153 712.54L365.353 764.969L532.498 905.826C551.956 922.224 581.431 917.556 594.87 895.947L710.306 710.334L895.92 594.897C917.528 581.459 922.197 551.983 905.799 532.525L764.942 365.381L712.513 153.18C706.409 128.477 679.819 114.928 656.246 124.511L453.755 206.823L235.739 191.112Z" fill="#895C9E" stroke="#614270" stroke-width="59.6571"/>
<circle cx="494.62" cy="494.657" r="304.251" fill="#895C9E" stroke="#614270" stroke-width="59.6571"/>
<circle cx="494.63" cy="494.668" r="178.971" fill="#A670BF"/>
</g>
<defs>
<clipPath id="clip0_524_1218">
<rect width="1000" height="1000" fill="white" transform="translate(0 0.0273438)"/>
</clipPath>
</defs>
</svg>
