<svg width="1000" height="1001" viewBox="0 0 1000 1001" fill="none" xmlns="http://www.w3.org/2000/svg">
<path d="M219.148 120.859L182.09 139.625L195.076 179.081L244.633 329.658L142.765 507.345L139.545 512.962L137.916 519.228C120.62 585.796 114.418 688.526 161.23 773.944C185.284 817.835 222.877 856.065 277.414 880.908C331.354 905.479 399.176 915.762 482.587 908.949C684.801 892.432 800.227 825.171 856.763 739.281C912.303 654.904 904.215 562.09 878.493 509.988C868.735 490.221 852.012 466.478 834.305 443.316C816.03 419.411 794.487 393.294 773.282 368.149C759.408 351.698 745.955 335.965 733.558 321.469C717.808 303.05 703.764 286.626 692.733 273.261L739.931 187.215L764.217 142.941L718.92 120.622C634.207 78.8825 417.904 20.2076 219.148 120.859Z" fill="#B591AC" stroke="#9C6891" stroke-width="96.6549"/>
<path d="M366.597 316.655L340.462 234.458C424.094 190.62 516.631 216.192 552.445 234.458L523.406 289.256C538.894 311.581 611.701 408.43 625.64 437.655C643.063 474.187 640.159 580.738 460.119 595.959C316.087 608.137 309.117 495.497 323.637 437.655L366.597 316.655Z" fill="#BB96B2"/>
<path d="M200.472 716.729C179.983 691.985 157.787 685.799 149.25 685.799L168.458 755.391C183.398 778.588 217.119 828.075 232.486 840.447C251.694 855.912 309.319 886.842 328.528 886.842H437.375C469.389 886.842 539.819 879.109 552.625 871.377C565.43 863.644 629.458 848.18 642.264 840.447C655.069 832.715 712.694 809.518 725.5 801.785C738.305 794.053 795.93 747.659 808.736 739.926C821.541 732.194 847.152 670.335 847.152 654.87C847.152 642.498 853.555 604.609 847.152 596.877C838.615 604.609 797.211 642.498 776.722 654.87C751.111 670.335 744.708 732.194 731.902 732.194H667.875C655.069 732.194 603.847 809.518 584.639 809.518C565.43 809.518 527.014 778.588 501.403 778.588C475.791 778.588 450.18 824.983 405.361 824.983C360.542 824.983 373.347 801.785 347.736 778.588C322.125 755.391 302.917 786.321 258.097 786.321C213.278 786.321 226.083 747.659 200.472 716.729Z" fill="#A8849F"/>
<path d="M219.148 120.86L182.09 139.626L195.076 179.082L244.633 329.659L142.765 507.346L139.545 512.963L137.916 519.229C120.62 585.797 114.418 688.527 161.23 773.945C185.284 817.836 222.877 856.066 277.414 880.909C331.354 905.48 399.176 915.763 482.587 908.95C684.801 892.433 800.227 825.172 856.763 739.282C912.303 654.905 904.215 562.091 878.493 509.989C868.735 490.222 852.012 466.479 834.305 443.317C816.03 419.412 794.487 393.295 773.282 368.15C759.408 351.699 745.955 335.966 733.558 321.47C717.808 303.051 703.764 286.627 692.733 273.262L739.931 187.216L764.217 142.942L718.92 120.623C634.207 78.8835 417.904 20.2086 219.148 120.86Z" stroke="#A6829E" stroke-width="96.6549"/>
</svg>
