<svg width="1000" height="1001" viewBox="0 0 1000 1001" fill="none" xmlns="http://www.w3.org/2000/svg">
<g clip-path="url(#clip0_524_1219)">
<path d="M174.078 662.491L200.406 643.276L174.078 662.491C177.024 666.528 179.003 671.189 179.86 676.113L214.762 876.541C224.984 935.241 284.881 971.231 341.509 952.698L534.861 889.42C539.612 887.865 544.656 887.424 549.604 888.13L751.007 916.872C809.993 925.289 862.731 879.446 862.604 819.862L862.172 616.419C862.161 611.421 863.3 606.487 865.501 601.999L955.073 419.335C981.306 365.838 954.003 301.515 897.297 283.223L703.677 220.766C698.92 219.232 694.58 216.624 690.992 213.144L544.947 71.5099C502.175 30.0288 432.563 36.119 397.643 84.3973L278.412 249.24C275.482 253.29 271.661 256.612 267.243 258.949L87.4101 354.079C34.7417 381.939 19.0225 450.026 54.1471 498.156L174.078 662.491Z" fill="#527244" stroke="#3C4F34" stroke-width="65.1884"/>
<path d="M289.873 804.287L322.16 799.819L289.873 804.287C293.684 831.83 321.033 849.59 347.745 841.869L524.423 790.801L705.47 823.122C732.843 828.008 758.186 807.486 759.097 779.695L765.125 595.884L851.81 433.685C864.916 409.162 853.23 378.718 827.081 369.264L654.129 306.73L526.656 174.165C507.383 154.123 474.818 155.829 457.746 177.777L344.828 322.94L179.359 403.21C154.342 415.346 145.902 446.844 161.5 469.863L264.665 622.112L289.873 804.287ZM528.802 789.535C528.795 789.538 528.787 789.54 528.779 789.542L528.802 789.535L523.372 770.748L528.802 789.535ZM649.841 305.18C649.847 305.182 649.853 305.184 649.859 305.186L649.842 305.18L649.841 305.18Z" fill="#8F846F" stroke="#746A57" stroke-width="65.1884"/>
<path d="M239.695 627.018L269.89 639.292L239.695 627.018C229.224 652.776 244.029 681.832 271.023 688.501L411.072 723.104L521.384 816.067C542.647 833.985 574.855 828.884 589.539 805.272L665.726 682.77L788.227 606.584C811.839 591.9 816.94 559.691 799.022 538.429L774.098 559.433L799.022 538.429L706.059 428.117L671.457 288.068C664.787 261.074 635.732 246.269 609.973 256.74L476.332 311.065L332.445 300.696C304.711 298.698 281.653 321.756 283.651 349.49L294.02 493.377L239.695 627.018ZM294.348 497.924C294.347 497.917 294.347 497.91 294.346 497.903L294.348 497.924L313.854 496.518L294.348 497.924Z" fill="#8F846F" stroke="#746A57" stroke-width="65.1884"/>
<circle cx="515.112" cy="532.173" r="136.896" transform="rotate(-30 515.112 532.173)" fill="#9E937C"/>
</g>
<defs>
<clipPath id="clip0_524_1219">
<rect width="1000" height="1000" fill="white" transform="translate(0 0.0273438)"/>
</clipPath>
</defs>
</svg>
