<svg width="400" height="400" viewBox="0 0 400 400" fill="none" xmlns="http://www.w3.org/2000/svg">
<path d="M122.106 123.614L123.196 127.137H126.883H283.283C317.319 127.137 344.911 154.729 344.911 188.764V211.335C344.911 213.082 344.838 214.811 344.696 216.519L344.661 216.935L344.696 217.351C344.838 219.051 344.911 220.764 344.911 222.489C344.911 247.955 329.07 271.671 302.088 289.259C275.151 306.817 237.642 317.84 195.955 317.84C154.269 317.84 116.759 306.817 89.8228 289.259C62.8402 271.671 47 247.955 47 222.489C47 220.764 47.0721 219.051 47.2145 217.351L47.2493 216.935L47.2147 216.519C47.0726 214.811 47 213.082 47 211.335V188.764C47 187.038 47.0708 185.33 47.2096 183.642L47.2221 183.489L47.2253 183.336C47.6386 163.415 53.5039 138.218 63.9652 119.916C73.528 103.185 82.8152 93.4941 90.0871 90.171C93.5441 88.5912 96.1291 88.6239 98.1225 89.4688C100.214 90.355 102.599 92.5344 104.754 97.1137L105.426 98.5422L106.796 99.3256C112.668 102.682 114.238 103.658 115.645 105.818C116.422 107.01 117.218 108.716 118.257 111.625C119.295 114.53 120.472 118.329 122.106 123.614Z" fill="#F1ECBC" stroke="#8E8C75" stroke-width="10"/>
<mask id="mask0_129_16" style="mask-type:alpha" maskUnits="userSpaceOnUse" x="52" y="73" width="312" height="235">
<path d="M98.5697 82.2174C117.515 82.2176 113.808 67.3906 160.759 93.337C201.945 100.751 180.434 95.5873 228.303 120.519C278.137 90.0423 287.198 86.3356 303.672 82.2171L343.986 107.167C370.788 159.108 352.72 229.994 350.249 239.467C345.693 256.93 297.075 298.861 250.183 302.271C181.62 307.257 60.076 266.119 57.5828 187.584C54.9727 105.366 87.1275 82.2172 98.5697 82.2174Z" fill="#D9D9D9" stroke="#8E8C75" stroke-width="10"/>
</mask>
<g mask="url(#mask0_129_16)">
<path d="M47.6958 171.609L47.7405 171.305L47.7476 170.998C48.0654 157.352 53.5253 139.018 64.0707 120.569C73.6276 103.849 82.76 94.0808 89.8126 90.6633C93.1682 89.0373 95.5406 89.079 97.2677 89.8086C99.0968 90.5814 101.288 92.5813 103.258 97.0588L104.278 99.3767L106.75 99.926C110.59 100.779 113.04 101.338 114.875 102.046C116.517 102.679 117.269 103.289 117.828 104.057C118.499 104.979 119.216 106.584 119.912 109.804C120.603 113.001 121.182 117.31 121.866 123.343L122.369 127.78H126.834H266.125H270.282L271.041 123.693C272.299 116.921 273.261 111.983 274.209 108.284C275.173 104.526 276.007 102.543 276.783 101.399C277.859 99.8138 278.981 99.2421 286.347 98.3624L288.703 98.0811L289.975 96.0788C292.194 92.5852 294.425 90.9216 296.4 90.2861C298.304 89.6736 300.724 89.7722 303.905 91.3474C310.607 94.666 319.193 103.841 328.735 120.574C340.735 141.616 345.347 166.389 344.355 188.089L344.35 188.203V188.317V221.87C344.35 222.022 344.349 222.173 344.348 222.323L344.347 222.365L344.348 222.407C344.348 222.492 344.349 222.578 344.349 222.664C344.35 222.743 344.35 222.822 344.35 222.901C344.35 248.303 328.549 271.962 301.63 289.508C274.758 307.024 237.337 318.022 195.748 318.022C154.159 318.022 116.738 307.024 89.8652 289.508C62.9466 271.962 47.146 248.303 47.146 222.901C47.146 222.736 47.1466 222.571 47.1479 222.407L47.1483 222.365L47.1479 222.323C47.1466 222.173 47.146 222.021 47.146 221.87V179.157C47.146 176.59 47.3338 174.07 47.6958 171.609Z" fill="#FFFCDD" stroke="#8E8C75" stroke-width="10"/>
</g>
<rect x="98.9999" y="225" width="63.4103" height="63.4103" rx="31.7051" fill="black"/>
<ellipse cx="120.137" cy="241.44" rx="11.7426" ry="10.9598" fill="white"/>
<rect width="63.4103" height="63.4103" rx="31.7051" transform="matrix(-1 0 0 1 292.41 225)" fill="black"/>
<ellipse cx="11.7426" cy="10.9598" rx="11.7426" ry="10.9598" transform="matrix(-1 0 0 1 261.88 230.48)" fill="white"/>
<path d="M19.08 182.5C20.4358 170.667 24.1641 146 28.2314 142L31.7903 134.5L41.4502 119.5L50.0932 117.5L57.211 110C60.4309 112.167 52.5336 122 54.1605 124C56.1941 126.5 56.7026 118 57.7194 117.5C58.7362 117 67.8876 123.5 70.9381 124C73.9886 124.5 82.6316 115 84.6653 115C86.2922 115 113.814 104.333 127.372 99L175.163 92L219.395 96C230.41 98.1667 252.747 102.6 253.967 103C255.492 103.5 301.249 126 302.774 127C304.3 128 311.418 133 312.943 132.5C314.468 132 316.502 121.5 317.518 120C318.332 118.8 325.484 120.5 329.72 122.5L335.821 115L344.464 124L353.107 128C355.819 132.167 361.344 140.7 361.75 141.5C362.259 142.5 369.377 165.5 370.902 171.5C372.427 177.5 371.919 200 371.919 202.5C371.919 205 366.326 237.5 365.818 239.5C365.818 239.5 360.734 252 348.532 263.5C345.651 267.833 344.261 275.5 343.448 275.5C342.634 275.5 338.702 271.833 336.838 270C332.94 270 329.212 267 324.128 270C323.43 270.412 317.18 261 312.434 258H299.724L308.875 237V231.5L299.724 229.5L304.808 221L299.724 219L301.758 210V205V197C299.724 194.167 295.352 188.3 294.131 187.5C292.911 186.7 299.724 181.833 303.283 179.5L297.182 174L260.068 153.5L213.294 139C201.77 137.167 178.01 133.6 175.163 134C171.604 134.5 128.389 145 118.221 147C108.052 149 87.7158 167.5 85.6821 169C84.0552 170.2 81.2759 176.5 80.0896 179.5V193V201.5L77.0391 213L80.0896 224.5L72.9718 228.5V240C74.836 244.667 78.8694 254.7 80.0896 257.5C81.3097 260.3 73.1412 256.333 68.9045 254L64.8372 267.5H51.6184C49.178 267.5 43.8228 271.167 41.4502 273L36.8744 264.5C35.3492 261.5 31.4853 255.2 28.2314 254C24.9776 252.8 23.4862 236.5 23.1473 228.5L19.08 182.5Z" fill="#262626"/>
<path d="M40.2034 268.544C42.3177 264.981 40.6446 256.925 39.4165 253L36.366 137L37.3829 132L41.9586 133.5V128L44.5006 120.5C49.5848 123 49.8898 128.4 49.0764 130C48.2629 131.6 47.8901 131.5 49.0764 133.5C50.9405 132.667 54.8723 130.8 55.6857 130C56.4992 129.2 59.0751 125.333 60.2614 123.5C61.4477 126.5 63.617 132.9 62.8035 134.5C61.99 136.1 63.1425 141.833 63.8203 144.5L66.8708 137C67.7182 139.833 69.4129 145.7 69.4129 146.5C69.4129 147.3 68.3961 154.167 67.8876 157.5H77.0391L72.9718 161.5V167.5L77.0391 164L75.5138 171L69.4129 184L78.5643 187.5L69.4129 198L77.0391 203H71.4465L77.0391 216L69.4129 208C69.4129 209.833 70.6331 215.6 75.5138 224C69.9213 220 64.3287 224 64.3287 230.5C64.3287 235.7 71.7855 247.667 75.5138 253L58.2278 241.5L64.3287 260C60.5276 257.725 50.5056 256.368 40.2034 268.544C39.9836 268.914 39.7229 269.236 39.4165 269.5C39.6789 269.172 39.9412 268.854 40.2034 268.544Z" fill="#3D3333"/>
<path d="M341.644 269.044C339.53 265.481 341.203 257.425 342.431 253.5L345.481 137.5L348.532 128.5L339.889 134V128.5L337.347 121C332.262 123.5 331.957 128.9 332.771 130.5C333.584 132.1 333.957 132 332.771 134C330.907 133.167 326.975 131.3 326.162 130.5C325.348 129.7 322.772 125.833 321.586 124C320.399 127 318.23 133.4 319.044 135C319.857 136.6 318.705 142.333 318.027 145L314.976 137.5C314.129 140.333 312.434 146.2 312.434 147C312.434 147.8 313.451 154.667 313.96 158H304.808L308.875 162V168L304.808 164.5L306.333 171.5L312.434 184.5L303.283 188L312.434 198.5L304.808 203.5H310.401L304.808 216.5L312.434 208.5C312.434 210.333 311.214 216.1 306.333 224.5C311.926 220.5 317.518 224.5 317.518 231C317.518 236.2 310.062 248.167 306.333 253.5L323.619 242L317.518 260.5C321.32 258.225 331.342 256.868 341.644 269.044C341.864 269.414 342.124 269.736 342.431 270C342.168 269.672 341.906 269.354 341.644 269.044Z" fill="#3D3333"/>
<ellipse cx="340.397" cy="193.5" rx="24.9122" ry="65.5" fill="#3D3333"/>
<ellipse cx="47.5511" cy="193.5" rx="24.9122" ry="65.5" fill="#3D3333"/>
<path d="M28.7398 173C28.7398 172 35.3492 151 36.366 146.5L45.0091 142C45.6869 143.5 47.2461 147.1 48.0595 149.5C48.873 151.9 50.0932 163.833 50.6016 169.5C51.6184 175.667 53.6521 188.2 53.6521 189C53.6521 189.8 51.6184 209 50.6016 218.5C46.7038 225 38.7047 238.1 37.8913 238.5C37.0778 238.9 33.485 231.667 31.7903 228L28.7398 201V173Z" fill="#504444"/>
<path d="M358.7 171C358.7 170 352.091 149 351.074 144.5L342.431 140C341.753 141.5 340.194 145.1 339.38 147.5C338.567 149.9 337.347 161.833 336.838 167.5C335.821 173.667 333.788 186.2 333.788 187C333.788 187.8 335.821 207 336.838 216.5C340.736 223 348.735 236.1 349.549 236.5C350.362 236.9 353.955 229.667 355.649 226L358.7 199V171Z" fill="#504444"/>
<path d="M53.6521 184C53.2453 184.8 59.2446 185.833 63.3119 186C135.71 78.4001 290.573 150.991 320.569 185.491H328.704L334.296 175.5L335.821 157C210.243 55.5087 90.9357 105.333 49.0764 154V169L53.6521 184Z" fill="#9D9D9D"/>
<path d="M57.211 172.5C55.1773 173 50.6016 159.5 52.1268 157.5C67.0403 147.833 97.579 128.1 100.426 126.5C103.985 124.5 132.456 111.5 134.998 111.5C137.032 111.5 176.519 106.833 196.008 104.5C212.616 108.667 246.341 117 248.374 117C250.408 117 285.488 131.333 302.775 138.5L331.754 159.5L329.72 170L302.775 153.5L208.21 117C180.416 119.833 124.22 125.7 121.779 126.5C118.729 127.5 59.2446 172 57.211 172.5Z" fill="#ADADAD"/>
<path d="M111.438 44.8838C72.8802 51.7981 54.905 115.111 52.3354 119.535C61.5861 133.359 81.2184 162.778 85.741 169.856C91.3942 178.703 179.791 187.551 183.902 188.657C188.014 189.763 312.899 171.515 318.039 169.856C323.178 168.197 335.535 145.021 327.803 108.476C313.413 40.46 238.379 43.7778 222.447 40.46C206.515 37.1421 151.524 37.6951 111.438 44.8838Z" fill="#262626"/>
<path fill-rule="evenodd" clip-rule="evenodd" d="M99.1768 103.35C99.9326 100.743 80.3927 87.7001 70.323 81.38C65.355 93.1767 54.905 117.213 52.8493 118.982C50.7936 120.752 71.5222 140.364 82.1435 149.949C87.1115 135.387 97.4587 105.711 99.1033 103.499L136.106 126.171C136.106 128.383 126.17 160.639 121.202 176.491L179.791 185.339L186.472 133.912C189.013 133.912 234.792 130.667 235.295 128.456C235.305 136.944 237.011 163.993 237.865 176.491C252.94 172.805 283.297 164.989 284.119 163.22C286.003 167.644 290.183 176.491 291.828 176.491C292.397 176.491 295.408 175.432 299.421 173.818C309.045 169.947 324.436 162.884 325.748 159.586C325.81 159.429 325.84 159.281 325.837 159.142C325.834 159.02 325.805 158.904 325.748 158.796C324.103 155.7 315.469 144.603 311.357 139.442L332.943 121.194C329.688 112.346 322.87 94.6513 321.636 94.6513C320.403 94.6513 307.417 100.55 301.079 103.499C288.402 91.7732 262.534 68.3219 260.478 68.3219L274.868 53.7313C262.534 51.8881 237.351 48.2016 235.295 48.2016C233.24 48.2016 229.642 52.994 228.1 55.3902C237.522 58.1551 257.189 64.6122 260.478 68.3219C258.422 68.3219 247.972 75.9213 243.004 79.7211L220.905 58.7081L200.862 63.6848L216.794 84.1448L189.041 86.9097L191.611 63.6848L173.623 60.92L183.388 50.9665L176.707 41.5659L140.218 48.2016L129.255 42.5584C120.176 45.5076 98.5893 50.5241 96.5336 50.9665C95.1811 51.2575 100.947 56.1439 106.713 61.0303C109.88 63.7148 113.048 66.3993 115.035 68.3219L140.218 48.2016L173.623 60.92L154.094 84.1448C152.861 84.1448 128.911 75.2973 117.091 70.8735C113.003 76.1518 103.495 94.624 99.1768 103.35ZM269.215 117.323L235.295 128.383C234.886 126.621 222.893 98.3959 216.871 84.325C218.134 85.6086 234.606 81.8473 243.004 79.7211L269.215 117.323ZM269.215 117.323C274.526 131.885 284.941 161.45 284.119 163.22L311.357 139.442C307.931 128.751 301.079 106.596 301.079 103.499L269.215 117.323ZM189.041 86.9097C189.041 88.6792 187.328 118.982 186.472 133.912L136.106 126.171C142.594 112.209 155.242 84.3328 154.106 84.1458L189.041 86.9097Z" fill="#262626"/>
<path d="M274.868 53.7313C280.213 57.7127 308.274 82.6702 321.636 94.6513L316.497 84.1448C308.274 75.6659 291.417 58.7081 289.772 58.7081C288.128 58.7081 279.151 55.3902 274.868 53.7313Z" fill="#262626"/>
<path d="M87.5911 208.011C71.1105 203.065 46.7329 184.058 40.5149 174.924C36.9174 132.061 35.8688 132.026 50.7729 113.971C53.3358 110.866 75.1628 90.4686 76.4492 94.6847C77.7357 98.9007 83.0884 155.249 87.5911 158.762C92.0939 162.275 157.062 174.924 165.424 174.924H270.273C287.64 174.924 308.652 159.982 314.441 146.631C320.23 133.28 305.277 86.5479 308.99 84.2593C317.064 79.2826 342.193 116.77 347.333 128.936C352.472 141.101 348.876 145.913 347.333 156.031C345.403 168.68 338.297 186.59 330.738 191.788C266.131 236.212 161.289 230.13 87.5911 208.011Z" fill="#262626"/>
<path d="M166.428 69.7676L178.763 60.367L188.014 67.0027L198.806 62.5789L215.252 60.367C210.969 59.4454 203.843 56.6068 209.599 52.6254C215.355 48.644 225.702 59.0768 230.156 64.7908L227.586 49.3076L215.252 44.6435L226.632 38.9096L215.252 27.7416L196.236 29.9535L178.763 20C168.313 22.0276 150.839 29.1641 146.211 27.7416C142.614 26.6357 158.424 34.7459 165.105 42.6719C160.137 41.5659 162.111 42.2295 155.122 42.6719C148.132 43.1143 142.274 57.6022 140.218 64.7908L157.692 54.8373L170.54 57.6021L166.428 69.7676Z" fill="#262626"/>
<path d="M116.175 49.3348C79.8287 55.8526 62.8844 115.535 60.4621 119.705C69.1824 132.737 87.6887 160.468 91.952 167.14C97.281 175.48 180.608 183.82 184.484 184.863C188.36 185.905 306.083 168.704 310.928 167.14C315.773 165.576 327.421 143.729 320.133 109.28C306.568 45.1647 235.837 48.2923 220.818 45.1647C205.8 42.0371 153.963 42.5584 116.175 49.3348Z" fill="#433431"/>
<path fill-rule="evenodd" clip-rule="evenodd" d="M104.617 104.448C105.33 101.99 86.9104 89.6958 77.4182 83.7381C72.7351 94.8584 62.8844 117.516 60.9465 119.184C59.0087 120.852 78.5486 139.339 88.5608 148.375C93.2439 134.648 102.998 106.674 104.548 104.589L139.429 125.96C139.429 128.045 130.063 158.452 125.38 173.395L180.608 181.735L186.906 133.258C189.302 133.258 232.456 130.198 232.93 128.114C232.939 136.115 234.547 161.614 235.352 173.395C249.563 169.92 278.178 162.553 278.954 160.885C280.73 165.055 284.67 173.395 286.221 173.395C286.757 173.395 289.595 172.397 293.378 170.875C302.45 167.226 316.958 160.568 318.195 157.459C318.254 157.312 318.282 157.172 318.279 157.041C318.277 156.925 318.249 156.816 318.195 156.715C316.645 153.796 308.506 143.336 304.63 138.471L324.977 121.269C321.909 112.929 315.482 96.2484 314.319 96.2484C313.156 96.2484 300.916 101.809 294.941 104.589C282.991 93.5353 258.606 71.4289 256.668 71.4289L270.233 57.675C258.606 55.9375 234.868 52.4624 232.93 52.4624C230.992 52.4624 227.601 56.98 226.147 59.2388C235.029 61.8451 253.568 67.932 256.668 71.4289C254.731 71.4289 244.88 78.5925 240.197 82.1743L219.365 62.3664L200.471 67.0577L215.489 86.3444L189.328 88.9507L191.751 67.0577L174.795 64.4514L183.999 55.0687L177.701 46.2073L143.305 52.4624L130.224 46.2073C121.666 48.9873 104.063 54.6517 102.126 55.0687C100.851 55.3431 106.286 59.9492 111.721 64.5554C114.707 67.086 117.693 69.6166 119.566 71.4289L143.305 52.4624L174.795 64.4514L156.385 86.3444C155.222 86.3444 132.647 78.0042 121.504 73.8341C117.65 78.8098 108.688 96.2226 104.617 104.448ZM264.904 117.62L232.93 128.045C232.544 126.384 221.238 99.7782 215.562 86.5142C226.147 90.8916 232.28 84.1786 240.197 82.1743L264.904 117.62ZM264.904 117.62C269.91 131.347 279.729 159.217 278.954 160.885L304.63 138.471C301.4 128.393 294.941 107.508 294.941 104.589L264.904 117.62ZM189.328 88.9507C191.751 98.1893 187.714 119.184 186.906 133.258L139.429 125.96C145.545 112.799 154.516 90.8916 156.396 86.3453L189.328 88.9507Z" fill="#978D8D"/>
<path d="M270.233 57.675C275.272 61.4281 301.723 84.9544 314.319 96.2484L309.475 86.3444C301.723 78.3517 285.833 62.3664 284.283 62.3664C282.732 62.3664 274.27 59.2388 270.233 57.675Z" fill="#978D8D"/>
<path d="M93.6961 203.107C78.1606 198.444 55.1809 180.528 49.3195 171.917C45.9283 131.512 44.4749 131.512 58.5242 114.492C60.9402 111.566 71.2609 127.538 72.4736 131.512C73.6863 135.486 89.4516 153.371 93.6961 156.683C97.9406 159.994 159.183 171.917 167.065 171.917H265.901C282.273 171.917 302.08 157.832 307.537 145.247C312.994 132.662 311.788 103.618 315.288 101.461C322.899 96.7697 333.698 117.099 338.542 128.567C343.387 140.034 339.997 144.57 338.542 154.108C336.723 166.031 330.025 182.914 322.899 187.814C261.998 229.691 163.168 223.957 93.6961 203.107Z" fill="#3D3333"/>
<path d="M168.012 72.7916L179.639 63.9301L188.36 70.1853L206.285 76.9617V63.9301C202.247 63.0614 203.281 60.3856 208.707 56.6325C214.133 52.8794 223.887 62.7139 228.085 68.1002L225.663 53.5049L208.707 43.0797L221.787 38.9096L214.036 33.1757L196.111 35.2608L179.639 25.8781C169.789 27.7893 159.778 30.8678 155.416 29.5269C152.025 28.4844 168.012 38.2146 174.31 45.686C169.627 44.6435 163.943 46.8328 157.354 47.2498C150.765 47.6668 145.243 61.3238 143.305 68.1002L159.776 58.7175L171.888 61.3238L168.012 72.7916Z" fill="#827C7C"/>
<path d="M52.7107 164.534C54.3256 152.371 57.9429 127.733 59.4932 126.482V154.63V177.565C59.4932 179.65 54.9715 169.746 52.7107 164.534Z" fill="#332A2A"/>
<path d="M72.0891 184.863C71.9276 174.09 71.7016 152.023 72.0891 149.938C74.3499 152.371 78.8716 157.653 78.8716 159.321V187.469L72.0891 184.863Z" fill="#332A2A"/>
<path d="M93.4054 196.331V164.534L99.2189 172.353C99.3804 179.303 99.994 194.141 101.157 197.894C102.319 201.647 96.4736 198.416 93.4054 196.331Z" fill="#332A2A"/>
<path d="M125.38 177.565L115.691 173.916C115.691 181.909 115.109 198.624 112.784 201.543C110.458 204.462 120.212 204.845 125.38 204.671V177.565Z" fill="#332A2A"/>
<path d="M323.138 112.645C323.097 112.554 323.064 112.474 323.04 112.407C323.072 112.486 323.105 112.566 323.138 112.645C324.361 115.41 332.54 129.137 336.604 135.864V147.332C336.604 145.676 327.691 123.674 323.138 112.645Z" fill="#332A2A"/>
<path d="M332.729 156.193C329.499 146.463 322.749 126.69 321.586 125.439C320.94 126.829 319.551 130.235 319.164 132.737C318.776 135.239 324.493 160.19 327.4 172.353L332.729 156.193Z" fill="#332A2A"/>
<path d="M310.444 166.097C311.251 160.711 313.157 149.417 314.319 147.332C316.742 157.757 321.586 179.337 321.586 182.257C321.586 185.176 316.742 186.253 314.319 186.427L310.444 166.097Z" fill="#332A2A"/>
<path d="M299.785 197.894C298.978 191.813 297.363 178.816 297.363 175.48L292.519 172.353L303.661 166.097L308.506 191.639L299.785 197.894Z" fill="#332A2A"/>
<path d="M275.078 179.65C276.854 178.781 281.376 176.731 285.252 175.48V202.586C285.252 204.254 279.761 205.018 277.016 205.192L275.078 179.65Z" fill="#332A2A"/>
<path d="M138.46 208.32L139.914 179.65L148.634 183.82C147.665 191.987 145.63 208.945 145.243 211.447C144.855 213.949 140.56 210.405 138.46 208.32Z" fill="#332A2A"/>
<path d="M157.839 213.532L160.261 185.905C163.652 185.21 170.822 183.82 172.372 183.82C174.31 183.82 171.403 211.447 170.435 213.532C169.659 215.2 161.714 214.227 157.839 213.532Z" fill="#332A2A"/>
<path d="M248.917 181.214H265.873C264.581 190.249 261.804 208.32 261.029 208.32C260.06 208.32 253.277 211.447 251.824 211.447C250.661 211.447 249.402 191.292 248.917 181.214Z" fill="#332A2A"/>
<path d="M230.508 181.214H216.458C218.235 190.249 221.69 208.945 221.303 211.447C220.915 213.949 229.539 212.49 233.899 211.447L230.508 181.214Z" fill="#332A2A"/>
<path d="M205.8 183.82C207.254 181.735 191.751 183.82 187.391 183.82C189.329 191.987 193.204 209.362 193.204 213.532C193.204 217.702 202.247 214.575 206.769 212.49C205.962 203.628 204.637 185.488 205.8 183.82Z" fill="#332A2A"/>
</svg>
