<svg width="1001" height="1001" viewBox="0 0 1001 1001" fill="none" xmlns="http://www.w3.org/2000/svg">
<mask id="path-1-outside-1_323_219" maskUnits="userSpaceOnUse" x="45.3115" y="12.0278" width="936" height="955" fill="black">
<rect fill="white" x="45.3115" y="12.0278" width="936" height="955"/>
<path d="M641.198 513.828C818.399 753.378 615.793 930.469 465.057 930.469C333.885 930.469 195.012 789.204 190.847 654.402C180.521 639.159 102.613 630.69 82.289 556.169C66.0299 496.552 75.5144 461.324 82.289 451.162C84.295 482.63 100.331 539.146 145.843 569.175C128.8 550.997 98.9487 482.138 87.641 417.512C83.0183 415.889 78.4042 414.665 73.8207 413.902C78.2411 413.359 82.5716 412.916 86.8109 412.567C81.1364 377.238 81.2888 343.606 92.451 320.75C97.733 353.661 106.16 384.102 116.179 411.56C169.314 412.391 203.845 427.918 216.088 437.378C197.135 383.6 167.596 322.243 126.324 281.796C209.986 259.778 266.898 400.352 277.075 405.433C277.763 394.263 279.07 382.113 280.939 369.322C243.474 324.089 203.757 256.308 239.8 200.5C253.347 244.836 274.248 276.159 295.74 297.617C301.222 276.733 307.733 255.753 315.084 235.805C292.162 184.322 239.8 141.433 218.73 107.349C271.974 129.475 312.767 152.269 343.154 173.39C355.655 151.01 369.359 133.076 383.761 122.592C381.074 142.534 375.674 166.835 369.157 193.044C407.213 224.532 420.637 249.908 417.634 259.778C440.418 195.169 417.371 162.64 417.634 131.06C526.029 361.398 458.282 266.553 641.198 513.828Z"/>
<path d="M273.653 559.626C145.05 828.412 377.54 963.907 525.546 935.347C654.341 910.493 776.125 775.696 754.673 642.546C761.924 625.623 776.717 628.371 802.096 559.626C817.766 517.179 852.906 520.602 893.553 500.278C793.091 460.646 807.422 485.942 769.441 521.22C777.871 507.334 785.689 464.931 785.471 410.305C831.8 370.465 917.409 335.841 927.414 320.75C888.847 323.393 823.039 329.897 780.342 335.841C773.694 286.29 769.441 223.031 735.237 185.257C736.808 235.145 735.651 291.362 732.788 343.731C713.163 347.747 699.318 352.017 695.529 356.317C703.949 299.922 702.376 281.777 735.237 234.243C701.057 247.919 662.155 273.261 627.543 298.864C622.391 256.124 626.045 208.024 608.413 175.921C604.231 215.262 592.994 246.313 579.2 270.197C570.501 243.689 560.653 218.747 549.69 198.083C567.237 149.245 579.2 126.734 585.337 101.028C561.689 124.741 542.895 146.146 528.064 165.276C509.056 143.181 487.448 135.239 463.363 151.384C484.125 160.706 496.398 177.721 504.14 199.36C475.61 245.171 474.153 272.991 479.729 283.548C445.115 224.426 426.885 172.392 420.643 141.433C357.855 388.137 406.404 282.173 273.653 559.626Z"/>
</mask>
<path d="M641.198 513.828C818.399 753.378 615.793 930.469 465.057 930.469C333.885 930.469 195.012 789.204 190.847 654.402C180.521 639.159 102.613 630.69 82.289 556.169C66.0299 496.552 75.5144 461.324 82.289 451.162C84.295 482.63 100.331 539.146 145.843 569.175C128.8 550.997 98.9487 482.138 87.641 417.512C83.0183 415.889 78.4042 414.665 73.8207 413.902C78.2411 413.359 82.5716 412.916 86.8109 412.567C81.1364 377.238 81.2888 343.606 92.451 320.75C97.733 353.661 106.16 384.102 116.179 411.56C169.314 412.391 203.845 427.918 216.088 437.378C197.135 383.6 167.596 322.243 126.324 281.796C209.986 259.778 266.898 400.352 277.075 405.433C277.763 394.263 279.07 382.113 280.939 369.322C243.474 324.089 203.757 256.308 239.8 200.5C253.347 244.836 274.248 276.159 295.74 297.617C301.222 276.733 307.733 255.753 315.084 235.805C292.162 184.322 239.8 141.433 218.73 107.349C271.974 129.475 312.767 152.269 343.154 173.39C355.655 151.01 369.359 133.076 383.761 122.592C381.074 142.534 375.674 166.835 369.157 193.044C407.213 224.532 420.637 249.908 417.634 259.778C440.418 195.169 417.371 162.64 417.634 131.06C526.029 361.398 458.282 266.553 641.198 513.828Z" fill="#504444"/>
<path d="M273.653 559.626C145.05 828.412 377.54 963.907 525.546 935.347C654.341 910.493 776.125 775.696 754.673 642.546C761.924 625.623 776.717 628.371 802.096 559.626C817.766 517.179 852.906 520.602 893.553 500.278C793.091 460.646 807.422 485.942 769.441 521.22C777.871 507.334 785.689 464.931 785.471 410.305C831.8 370.465 917.409 335.841 927.414 320.75C888.847 323.393 823.039 329.897 780.342 335.841C773.694 286.29 769.441 223.031 735.237 185.257C736.808 235.145 735.651 291.362 732.788 343.731C713.163 347.747 699.318 352.017 695.529 356.317C703.949 299.922 702.376 281.777 735.237 234.243C701.057 247.919 662.155 273.261 627.543 298.864C622.391 256.124 626.045 208.024 608.413 175.921C604.231 215.262 592.994 246.313 579.2 270.197C570.501 243.689 560.653 218.747 549.69 198.083C567.237 149.245 579.2 126.734 585.337 101.028C561.689 124.741 542.895 146.146 528.064 165.276C509.056 143.181 487.448 135.239 463.363 151.384C484.125 160.706 496.398 177.721 504.14 199.36C475.61 245.171 474.153 272.991 479.729 283.548C445.115 224.426 426.885 172.392 420.643 141.433C357.855 388.137 406.404 282.173 273.653 559.626Z" fill="#504444"/>
<path d="M363.999 337.687L376.519 343.388L376.519 343.388L363.999 337.687ZM295.74 297.617L305.46 287.881L288.514 270.963L282.434 294.124L295.74 297.617ZM323.43 413.902L335.152 421.102L335.152 421.102L323.43 413.902ZM280.939 369.322L267.327 367.333L266.442 373.386L270.344 378.097L280.939 369.322ZM369.157 193.044L382.507 196.364L384.596 187.963L377.926 182.445L369.157 193.044ZM276.095 481.648L286.888 490.179L286.888 490.179L276.095 481.648ZM315.084 235.805L302.175 231.048L300.242 236.294L302.516 241.401L315.084 235.805ZM343.154 173.39L351.005 162.094L338.544 153.433L331.144 166.681L343.154 173.39ZM116.179 411.56L129.102 406.844L125.858 397.953L116.394 397.805L116.179 411.56ZM86.8109 412.567L85.6808 398.857L70.8717 400.077L73.2282 414.749L86.8109 412.567ZM87.641 417.512L74.0901 419.884L75.4789 427.821L83.0817 430.492L87.641 417.512ZM216.088 542.62L229.221 538.524L228.718 536.911L227.839 535.467L216.088 542.62ZM218.73 551.088L230.313 558.509L230.313 558.509L218.73 551.088ZM200.606 588.349L213.603 592.857L213.603 592.857L200.606 588.349ZM145.843 569.175L153.419 557.693L135.807 578.584L145.843 569.175ZM579.2 270.197L592.271 265.907L582.676 236.671L567.287 263.317L579.2 270.197ZM626.045 481.648L615.9 490.939L615.9 490.939L626.045 481.648ZM627.543 298.864L641.201 297.218L638.371 273.743L619.362 287.804L627.543 298.864ZM549.69 198.083L562.987 201.608L564.369 196.397L561.843 191.635L549.69 198.083ZM528.064 165.276L538.493 156.304L527.51 143.537L517.192 156.847L528.064 165.276ZM531.651 377.023L518.329 380.455L518.329 380.455L531.651 377.023ZM504.14 199.36L492.463 192.088L488.947 197.733L491.187 203.994L504.14 199.36ZM732.788 343.731L730.03 330.254L719.631 332.382L719.052 342.98L732.788 343.731ZM780.342 335.841L793.977 334.012L792.138 320.31L778.445 322.216L780.342 335.841ZM785.471 410.305L794.44 420.735L799.253 416.597L799.227 410.25L785.471 410.305ZM696.518 507.351L683.624 502.554L683.035 504.138L682.846 505.817L696.518 507.351ZM695.529 516.166L685.561 525.647L685.561 525.647L695.529 516.166ZM769.441 521.22L781.201 528.359L760.079 511.14L769.441 521.22ZM366.374 324.137C362.689 323.49 357.847 322.15 352.146 319.855L341.872 345.379C349.049 348.268 355.749 350.207 361.623 351.237L366.374 324.137ZM352.146 319.855C348.814 318.514 345.229 316.863 341.456 314.866L328.587 339.185C333.181 341.615 337.631 343.671 341.872 345.379L352.146 319.855ZM341.456 314.866C330.418 309.025 317.888 300.289 305.46 287.881L286.02 307.352C300.414 321.723 315.167 332.083 328.587 339.185L341.456 314.866ZM351.479 331.986C347.806 340.052 343.902 348.208 339.755 356.434L364.322 368.82C368.636 360.264 372.697 351.78 376.519 343.388L351.479 331.986ZM339.755 356.434C331.418 372.97 322.1 389.783 311.708 406.701L335.152 421.102C345.96 403.507 355.651 386.02 364.322 368.82L339.755 356.434ZM270.344 378.097C287.992 399.405 305.125 415.832 314.164 424.069L332.696 403.734C324.255 396.041 308.106 380.557 291.533 360.547L270.344 378.097ZM337.154 412.948C335.843 394.088 340.515 364.973 348.437 330.071L321.606 323.98C313.731 358.672 308.08 391.456 309.706 414.855L337.154 412.948ZM348.437 330.071C350.035 323.033 351.749 315.82 353.549 308.479L326.827 301.927C324.998 309.389 323.245 316.759 321.606 323.98L348.437 330.071ZM353.549 308.479C358.024 290.228 363.005 271.275 368.007 252.308C372.998 233.384 378.014 214.431 382.507 196.364L355.806 189.724C351.371 207.562 346.41 226.305 341.403 245.292C336.407 264.236 331.367 283.41 326.827 301.927L353.549 308.479ZM311.708 406.701C298.139 428.791 282.74 451.057 265.303 473.117L286.888 490.179C305.024 467.235 321.04 444.076 335.152 421.102L311.708 406.701ZM265.303 473.117C254.275 487.069 242.431 500.938 229.719 514.629L249.88 533.35C263.1 519.114 275.418 504.69 286.888 490.179L265.303 473.117ZM367.031 383.538C367.092 376.733 366.629 369.17 365.707 361.071L338.37 364.183C339.197 371.447 339.567 377.859 339.519 383.293L367.031 383.538ZM365.707 361.071C364.611 351.439 362.847 340.894 360.462 329.74L333.556 335.494C335.786 345.917 337.39 355.572 338.37 364.183L365.707 361.071ZM360.462 329.74C358.528 320.699 356.179 311.224 353.429 301.47L326.948 308.936C329.547 318.155 331.753 327.059 333.556 335.494L360.462 329.74ZM353.429 301.47C347.007 278.692 338.367 254.278 327.651 230.21L302.516 241.401C312.672 264.21 320.869 287.376 326.948 308.936L353.429 301.47ZM404.66 255.203C403.76 257.756 401.16 262.324 396.537 268.941C392.126 275.255 386.649 282.366 380.862 289.813C375.169 297.14 369.161 304.813 364.054 311.84C359.077 318.688 354.292 325.808 351.479 331.986L376.519 343.388C378.082 339.954 381.398 334.774 386.31 328.015C391.091 321.437 396.758 314.199 402.589 306.694C408.326 299.311 414.221 291.67 419.092 284.698C423.752 278.028 428.344 270.774 430.608 264.353L404.66 255.203ZM335.302 184.686C344.714 191.229 353.051 197.574 360.387 203.643L377.926 182.445C369.962 175.855 361.008 169.047 351.005 162.094L335.302 184.686ZM331.144 166.681C320.45 185.825 310.717 207.87 302.175 231.048L327.992 240.562C336.175 218.356 345.34 197.685 355.164 180.099L331.144 166.681ZM282.434 294.124C275.844 319.229 270.699 344.252 267.327 367.333L294.551 371.311C297.763 349.329 302.693 325.312 309.046 301.109L282.434 294.124ZM263.345 404.588C261.526 434.134 261.44 461.122 262.351 482.241L289.839 481.055C288.971 460.936 289.044 434.909 290.806 406.279L263.345 404.588ZM203.114 441.951C215.041 475.792 222.649 506.459 226.262 526.438L253.337 521.541C249.449 500.043 241.452 467.956 229.063 432.805L203.114 441.951ZM116.394 397.805C106.71 397.653 96.4656 397.968 85.6808 398.857L87.941 426.277C97.8327 425.462 107.179 425.178 115.964 425.315L116.394 397.805ZM83.0817 430.492C94.7302 434.584 106.984 441.834 119.335 451.375L136.155 429.601C122.364 418.947 107.513 409.912 92.2003 404.533L83.0817 430.492ZM119.335 451.375C155.579 479.371 188.555 523.845 204.337 549.773L227.839 535.467C211.157 508.06 176.109 460.464 136.155 429.601L119.335 451.375ZM229.719 514.629C221.082 523.93 213.575 533.632 207.146 543.668L230.313 558.509C235.835 549.889 242.331 541.481 249.88 533.35L229.719 514.629ZM202.956 546.716L205.597 555.184L231.862 546.992L229.221 538.524L202.956 546.716ZM187.609 583.841C179.597 606.942 176.357 630.872 177.097 654.827L204.597 653.977C203.952 633.086 206.781 612.527 213.603 592.857L187.609 583.841ZM138.266 580.658C140.997 582.459 143.823 584.176 146.747 585.799L160.099 561.743C157.797 560.465 155.571 559.113 153.419 557.693L138.266 580.658ZM146.747 585.799C161.728 594.114 179.124 599.876 199.136 602.027L202.076 574.671C185.66 572.907 171.812 568.244 160.099 561.743L146.747 585.799ZM152.051 560.083C153.67 559.921 154.967 560.169 155.789 560.418C156.589 560.66 157.059 560.937 157.173 561.007C157.337 561.107 156.9 560.856 155.879 559.767L135.807 578.584C137.757 580.665 140.097 582.813 142.802 584.469C145.375 586.045 149.597 587.98 154.795 587.459L152.051 560.083ZM101.192 415.141C100.914 413.552 100.647 411.966 100.394 410.385L73.2282 414.749C73.5028 416.458 73.7903 418.17 74.0901 419.884L101.192 415.141ZM207.146 543.668C203.696 549.053 200.56 554.529 197.729 560.085L222.242 572.578C224.663 567.829 227.349 563.136 230.313 558.509L207.146 543.668ZM197.729 560.085C193.763 567.866 190.399 575.796 187.609 583.841L213.603 592.857C215.983 585.995 218.854 579.227 222.242 572.578L197.729 560.085ZM103.256 416.275C107.022 426.598 111.007 436.508 115.133 445.981L140.358 434.995C136.447 426.015 132.671 416.624 129.102 406.844L103.256 416.275ZM115.133 445.981C130.916 482.221 148.781 512.122 164.407 534.269C179.734 555.994 193.613 571.26 201.742 577.344L218.23 555.318C213.682 551.914 201.822 539.575 186.888 518.408C172.253 497.664 155.336 469.388 140.358 434.995L115.133 445.981ZM517.357 347.009C521.266 345.519 525.47 343.52 529.845 341.034L516.251 317.113C512.921 319.006 509.985 320.375 507.557 321.3L517.357 347.009ZM529.845 341.034C531.993 339.813 534.197 338.466 536.441 336.994L521.346 313.991C519.576 315.152 517.873 316.191 516.251 317.113L529.845 341.034ZM536.441 336.994C553.894 325.54 574.361 306.081 591.112 277.077L567.287 263.317C552.705 288.566 535.242 304.872 521.346 313.991L536.441 336.994ZM501.244 342.124C504.223 346.316 509.262 353.203 515.581 361.731L537.687 345.35C531.382 336.841 526.481 330.139 523.67 326.185L501.244 342.124ZM515.581 361.731C516.384 362.814 517.208 363.924 518.052 365.06L540.138 348.653C539.3 347.526 538.483 346.424 537.687 345.35L515.581 361.731ZM518.052 365.06C521.207 369.307 524.641 373.911 528.277 378.765L550.299 362.272C546.683 357.444 543.27 352.869 540.138 348.653L518.052 365.06ZM528.277 378.765C538.953 393.022 551.38 409.457 563.585 425.388L585.425 408.655C573.288 392.813 560.923 376.458 550.299 362.272L528.277 378.765ZM563.585 425.388C584.946 453.27 606.162 480.305 615.9 490.939L636.19 472.357C627.454 462.818 607.068 436.903 585.425 408.655L563.585 425.388ZM613.885 300.511C617.918 333.961 620.847 366.739 621.928 395.107C623.021 423.775 622.176 446.914 619.115 461.613L646.051 467.222C649.833 449.06 650.529 423.109 649.422 394.059C648.303 364.709 645.291 331.142 641.201 297.218L613.885 300.511ZM619.115 461.613C618.095 466.512 616.948 469.856 615.9 471.939L640.478 484.305C643.001 479.289 644.764 473.4 646.051 467.222L619.115 461.613ZM615.9 471.939C615.526 472.681 615.221 473.151 615.02 473.42L637.07 489.876C638.393 488.103 639.516 486.217 640.477 484.305L615.9 471.939ZM639.701 479.984C639.311 476.782 638.799 472.928 638.171 468.512L610.932 472.391C611.54 476.665 612.026 480.33 612.389 483.312L639.701 479.984ZM638.171 468.512C637.554 464.18 636.821 459.29 635.974 453.921L608.797 458.208C609.624 463.452 610.336 468.205 610.932 472.391L638.171 468.512ZM635.974 453.921C635.7 452.185 635.415 450.399 635.117 448.565L607.959 452.975C608.25 454.768 608.529 456.513 608.797 458.208L635.974 453.921ZM635.117 448.565C629.866 416.226 620.85 368.732 608.224 320.475L581.606 327.439C593.954 374.632 602.806 421.235 607.959 452.975L635.117 448.565ZM608.224 320.475C603.436 302.177 598.117 283.722 592.271 265.907L566.129 274.486C571.767 291.667 576.931 309.571 581.606 327.44L608.224 320.475ZM561.843 191.635C554.753 178.271 546.994 166.185 538.493 156.304L517.636 174.247C524.395 182.104 531.059 192.318 537.538 204.53L561.843 191.635ZM615.9 490.939C617.569 492.762 619.584 494.852 621.631 496.319C622.218 496.739 623.115 497.335 624.252 497.874C625.235 498.339 627.397 499.252 630.273 499.299C633.694 499.354 637.917 498.121 641.074 494.511C643.753 491.447 644.336 488.146 644.495 486.625C644.801 483.717 644.138 481.289 643.959 480.618C643.664 479.515 643.292 478.476 642.974 477.649C642.329 475.973 641.485 474.092 640.667 472.33L615.71 483.914C616.482 485.577 617 486.761 617.295 487.527C617.446 487.921 617.439 487.948 617.378 487.723C617.346 487.603 617.255 487.249 617.18 486.73C617.117 486.294 616.98 485.197 617.132 483.752C617.267 482.466 617.787 479.344 620.361 476.4C623.413 472.909 627.49 471.736 630.72 471.789C633.406 471.832 635.333 472.678 636.032 473.01C636.887 473.415 637.453 473.809 637.659 473.956C638.18 474.33 637.861 474.181 636.19 472.357L615.9 490.939ZM640.667 472.331C639.58 469.988 638.141 467.015 636.992 464.579L612.111 476.324C613.482 479.228 614.632 481.59 615.71 483.913L640.667 472.331ZM636.992 464.579C634.711 459.746 633.331 456.496 632.969 455.086C632.899 454.817 633.071 455.345 633.092 456.352C633.102 456.849 633.23 460.773 630.056 464.47C625.927 469.279 620.444 469.229 618.088 468.792C616.959 468.583 616.164 468.26 615.801 468.099C615.409 467.925 615.196 467.793 615.192 467.791L629.578 444.338C628.32 443.566 626.026 442.282 623.107 441.74C619.841 441.135 613.718 441.263 609.181 446.546C605.6 450.718 605.553 455.413 605.584 456.929C605.627 458.955 606.016 460.749 606.323 461.943C607.467 466.388 610.143 472.155 612.111 476.324L636.992 464.579ZM615.192 467.791C615.18 467.783 615.335 467.879 615.684 468.144C616.023 468.402 616.478 468.769 617.064 469.274L635.025 448.432C633.27 446.919 631.43 445.474 629.578 444.338L615.192 467.791ZM617.064 469.274C619.266 471.172 621.488 473.063 623.731 474.948L641.435 453.887C639.279 452.075 637.142 450.256 635.025 448.432L617.064 469.274ZM623.731 474.948C635.757 485.058 648.367 494.981 661.581 504.652L677.83 482.449C665.123 473.149 652.998 463.608 641.435 453.887L623.731 474.948ZM545.135 374.296C544.061 368.988 543.283 362.845 542.821 355.939L515.369 357.774C515.892 365.601 516.8 372.99 518.167 379.75L545.135 374.296ZM542.821 355.939C542.224 347.003 542.17 336.969 542.637 326.083L515.149 324.902C514.648 336.563 514.691 347.628 515.369 357.774L542.821 355.939ZM542.637 326.083C544.214 289.398 551.658 244.342 562.987 201.608L536.393 194.557C524.669 238.78 516.828 285.833 515.149 324.902L542.637 326.083ZM467.857 290.499C477.669 307.258 488.766 324.568 501.244 342.124L523.67 326.185C511.676 309.309 501.017 292.682 491.601 276.598L467.857 290.499ZM517.192 156.847C507.4 169.478 499.23 181.222 492.463 192.088L515.817 206.633C522.038 196.645 529.659 185.672 538.937 173.704L517.192 156.847ZM491.187 203.994C496.943 220.081 500.112 239.511 502.521 261.475C504.811 282.344 506.587 307.808 509.393 330.744L536.703 327.403C533.8 303.674 532.447 281.957 529.871 258.475C527.415 236.086 523.985 213.991 517.093 194.726L491.187 203.994ZM509.393 330.744C510.419 339.13 511.616 347.554 513.085 355.919L540.184 351.161C538.817 343.377 537.686 335.441 536.703 327.403L509.393 330.744ZM513.085 355.919C514.531 364.158 516.246 372.367 518.329 380.455L544.973 373.592C543.1 366.32 541.53 358.827 540.184 351.161L513.085 355.919ZM518.329 380.455C521.11 391.251 529.672 400.303 537.701 407.269C546.23 414.668 556.799 421.887 566.982 428.539L582.028 405.504C571.934 398.91 562.732 392.56 555.731 386.487C548.231 379.98 545.505 375.656 544.973 373.592L518.329 380.455ZM566.982 428.539C576.724 434.902 585.839 440.577 594.049 446.174C602.362 451.843 608.142 456.388 611.231 459.882L631.844 441.658C626.259 435.341 617.896 429.134 609.548 423.442C601.096 417.679 591.032 411.385 582.028 405.504L566.982 428.539ZM611.231 459.882C612.059 460.818 612.465 461.429 612.63 461.722C612.8 462.021 612.562 461.712 612.437 460.875L639.652 456.831C638.695 450.386 635.001 445.229 631.844 441.658L611.231 459.882ZM540.017 387.944C541.549 386.77 544.625 384.1 548.303 380.91L530.273 360.127C526.129 363.722 523.956 365.588 523.285 366.102L540.017 387.944ZM548.303 380.91C558.927 371.693 578.862 354.337 603.487 334.717L586.343 313.198C561.223 333.212 540.904 350.905 530.273 360.127L548.303 380.91ZM603.487 334.717C613.57 326.683 624.424 318.283 635.724 309.924L619.362 287.804C607.753 296.392 596.637 304.996 586.343 313.198L603.487 334.717ZM681.923 354.285C679.305 371.813 672.94 400.184 667.047 427.718C664.139 441.303 661.369 454.598 659.338 465.865C657.379 476.738 655.871 486.937 655.95 493.712L683.462 493.389C683.418 489.627 684.401 481.926 686.416 470.744C688.36 459.957 691.047 447.043 693.951 433.476C699.681 406.705 706.35 376.996 709.134 358.349L681.923 354.285ZM735.546 357.208C748.717 354.513 764.726 351.905 782.239 349.467L778.445 322.216C760.616 324.698 743.982 327.399 730.03 330.254L735.546 357.208ZM776.501 399.874C751.49 421.382 727.992 443.73 710.833 463.076L731.416 481.333C747.467 463.238 769.97 441.778 794.44 420.735L776.501 399.874ZM710.833 463.076C698.344 477.156 687.894 491.076 683.624 502.554L709.411 512.147C711.726 505.925 718.992 495.34 731.416 481.333L710.833 463.076ZM661.581 504.652C670.535 511.205 678.506 518.23 685.561 525.647L705.496 506.685C697.283 498.05 688.073 489.945 677.83 482.449L661.581 504.652ZM682.846 505.817L681.858 514.632L709.2 517.7L710.189 508.884L682.846 505.817ZM708.476 556.207C713.542 564.963 720.898 581.843 727.543 599.758C734.217 617.753 739.537 635.085 741.091 644.734L768.255 640.358C766.241 627.859 760.083 608.373 753.339 590.19C746.565 571.925 738.561 553.266 732.291 542.429L708.476 556.207ZM760.079 511.14C758.527 512.582 756.878 514.042 755.116 515.519L772.784 536.609C774.918 534.822 776.919 533.05 778.804 531.3L760.079 511.14ZM755.116 515.519C744.847 524.121 732.133 531.323 716.349 536.166L724.419 562.47C743.661 556.566 759.65 547.612 772.784 536.609L755.116 515.519ZM765.197 539.764C769.954 539.331 773.521 537.036 775.815 535.002C778.115 532.963 779.865 530.559 781.201 528.359L757.682 514.081C757.19 514.891 757.099 514.826 757.562 514.415C758.02 514.01 759.755 512.632 762.703 512.364L765.197 539.764ZM799.227 410.25C799.133 386.642 797.574 360.819 793.977 334.012L766.708 337.671C770.137 363.227 771.624 387.862 771.714 410.36L799.227 410.25ZM685.561 525.647C689.348 529.629 692.875 533.728 696.151 537.932L717.854 521.02C714.021 516.102 709.904 511.319 705.496 506.685L685.561 525.647ZM696.151 537.932C700.739 543.819 704.839 549.92 708.476 556.207L732.291 542.429C728.028 535.059 723.222 527.91 717.854 521.02L696.151 537.932ZM719.052 342.98C716.39 391.687 712.252 436.865 707.505 470.269L734.744 474.141C739.638 439.711 743.834 393.696 746.525 344.482L719.052 342.98ZM707.505 470.269C705.345 485.459 703.095 497.958 700.865 507.149C699.746 511.759 698.693 515.277 697.755 517.772C696.673 520.649 696.196 520.912 696.821 520.225L717.184 538.728C720.223 535.383 722.172 531.007 723.507 527.458C724.985 523.528 726.341 518.834 727.602 513.639C730.13 503.221 732.527 489.742 734.744 474.141L707.505 470.269ZM641.198 513.828L663.317 497.465L641.198 513.828ZM417.634 131.06L442.529 119.345L390.122 130.831L417.634 131.06ZM295.74 297.617L276.301 317.088L310.193 350.924L322.352 304.602L295.74 297.617ZM239.8 200.5L266.112 192.46L248.81 135.835L216.687 185.573L239.8 200.5ZM280.939 369.322L308.163 373.301L309.932 361.195L302.128 351.772L280.939 369.322ZM369.157 193.044L342.456 186.405L338.278 203.206L351.617 214.242L369.157 193.044ZM383.761 122.592L411.028 126.265L419.625 62.4501L367.568 100.348L383.761 122.592ZM315.084 235.805L340.9 245.319L344.766 234.828L340.218 224.614L315.084 235.805ZM218.73 107.349L229.288 81.9416L150.416 49.1647L195.327 121.816L218.73 107.349ZM417.634 259.778L391.312 251.771L443.582 268.928L417.634 259.778ZM343.154 173.39L327.45 195.983L352.372 213.305L367.174 186.808L343.154 173.39ZM277.075 405.433L264.786 430.049L301.983 448.62L304.537 407.124L277.075 405.433ZM126.324 281.796L119.322 255.188L72.4515 267.523L107.067 301.446L126.324 281.796ZM216.088 437.378L199.267 459.15L273.017 516.132L242.037 428.232L216.088 437.378ZM116.179 411.56L90.3323 420.991L96.8211 438.774L115.748 439.07L116.179 411.56ZM86.8109 412.567L89.071 439.987L118.689 437.546L113.976 408.204L86.8109 412.567ZM73.8207 413.902L70.467 386.593L69.2975 441.041L73.8207 413.902ZM87.641 417.512L114.743 412.77L111.965 396.895L96.7595 391.554L87.641 417.512ZM190.847 654.402L218.348 653.552L218.101 645.577L213.626 638.971L190.847 654.402ZM82.289 556.169L108.833 548.93L108.833 548.93L82.289 556.169ZM82.289 451.162L109.747 449.412L104.566 368.145L59.3964 435.9L82.289 451.162ZM145.843 569.175L130.69 592.14L165.915 550.358L145.843 569.175ZM92.451 320.75L119.617 316.39L105.851 230.616L67.7282 308.676L92.451 320.75ZM525.546 935.347L530.759 962.362L530.759 962.362L525.546 935.347ZM273.653 559.626L298.472 571.501L298.472 571.501L273.653 559.626ZM420.643 141.433L447.614 135.995L393.98 134.647L420.643 141.433ZM579.2 270.197L553.058 278.776L572.247 337.249L603.025 283.957L579.2 270.197ZM608.413 175.921L632.529 162.676L590.323 85.8279L581.054 173.012L608.413 175.921ZM627.543 298.864L600.227 302.157L605.887 349.107L643.906 320.984L627.543 298.864ZM549.69 198.083L523.797 188.78L519.683 200.229L525.385 210.977L549.69 198.083ZM528.064 165.276L507.207 183.219L529.173 208.752L549.809 182.133L528.064 165.276ZM463.363 151.384L448.044 128.53L406.827 156.158L452.093 176.483L463.363 151.384ZM585.337 101.028L612.098 107.417L634.758 12.5078L565.855 81.5995L585.337 101.028ZM479.729 283.548L455.985 297.449L504.057 270.698L479.729 283.548ZM504.14 199.36L527.495 213.905L534.526 202.615L530.046 190.092L504.14 199.36ZM735.237 234.243L757.869 249.889L809.795 174.776L725.016 208.699L735.237 234.243ZM695.529 356.317L668.317 352.254L654.553 444.432L716.171 374.507L695.529 356.317ZM732.788 343.731L738.304 370.686L759.102 366.43L760.261 345.233L732.788 343.731ZM780.342 335.841L753.073 339.5L756.75 366.905L784.136 363.092L780.342 335.841ZM927.414 320.75L950.346 335.953L981.15 289.489L925.533 293.301L927.414 320.75ZM785.471 410.305L767.532 389.444L757.907 397.721L757.957 410.415L785.471 410.305ZM754.673 642.546L729.383 631.711L726.241 639.045L727.51 646.922L754.673 642.546ZM802.096 559.626L776.285 550.098L776.285 550.098L802.096 559.626ZM893.553 500.278L905.858 524.887L961.008 497.312L903.65 474.684L893.553 500.278ZM769.441 521.22L745.922 506.942L788.166 541.379L769.441 521.22ZM735.237 185.257L755.631 166.79L705.38 111.294L707.737 186.123L735.237 185.257ZM465.057 957.982C549.673 957.982 646.824 909.038 699.3 826.776C725.908 785.064 741.093 734.653 737.074 678.04C733.065 621.551 710.08 560.681 663.317 497.465L619.078 530.19C660.916 586.749 679.056 637.847 682.185 681.936C685.306 725.901 673.643 764.678 652.908 797.183C610.697 863.354 531.176 902.955 465.057 902.955V957.982ZM663.317 497.465C570.997 372.663 543.947 336.774 525.668 302.997C516.649 286.332 509.764 270.149 497.854 242.412C486.039 214.898 469.813 177.323 442.529 119.345L392.739 142.775C419.653 199.966 435.606 236.912 447.291 264.124C458.88 291.114 466.815 309.863 477.273 329.188C497.948 367.391 528.482 407.718 619.078 530.19L663.317 497.465ZM315.179 278.146C296.94 259.937 278.365 232.561 266.112 192.46L213.487 208.54C228.328 257.111 251.555 292.382 276.301 317.088L315.179 278.146ZM216.687 185.573C192.639 222.809 194.944 263.173 206.769 297.774C218.427 331.888 240.084 363.13 259.749 386.873L302.128 351.772C284.328 330.281 267.395 305.015 258.839 279.979C250.45 255.43 250.917 233.999 262.912 215.427L216.687 185.573ZM395.857 199.684C402.417 173.304 408.129 147.784 411.028 126.265L356.494 118.918C354.02 137.284 348.931 160.366 342.456 186.405L395.857 199.684ZM340.218 224.614C326.971 194.859 305.762 168.646 286.991 147.018C266.791 123.745 251.116 107.414 242.133 92.8816L195.327 121.816C207.413 141.368 228.454 163.524 245.434 183.087C263.841 204.296 280.275 225.269 289.949 246.996L340.218 224.614ZM390.122 130.831C390.03 141.874 391.976 152.287 393.79 161.011C395.744 170.408 397.565 177.987 398.843 186.926C401.184 203.303 401.413 223.047 391.687 250.628L443.582 268.928C456.64 231.899 456.737 203.075 453.316 179.14C451.713 167.923 449.246 157.411 447.664 149.808C445.943 141.532 445.107 136.036 445.147 131.289L390.122 130.831ZM208.171 132.756C259.862 154.237 298.887 176.129 327.45 195.983L358.857 150.798C326.647 128.41 284.085 104.714 229.288 81.9416L208.171 132.756ZM351.617 214.242C369.23 228.815 380.085 241.128 385.957 249.864C388.916 254.268 390.175 257.12 390.597 258.377C391.245 260.307 389.646 257.246 391.312 251.771L443.957 267.786C447.124 257.375 444.972 247.441 442.759 240.853C440.32 233.592 436.407 226.281 431.628 219.171C422.025 204.881 407.14 188.761 386.696 171.846L351.617 214.242ZM367.568 100.348C348.45 114.266 332.402 136.22 319.134 159.973L367.174 186.808C378.909 165.801 390.268 151.887 399.954 144.835L367.568 100.348ZM289.267 226.292C281.583 247.143 274.813 268.972 269.128 290.631L322.352 304.602C327.63 284.494 333.882 264.364 340.9 245.319L289.267 226.292ZM253.714 365.344C251.753 378.764 250.356 391.687 249.614 403.743L304.537 407.124C305.17 396.84 306.386 385.462 308.163 373.301L253.714 365.344ZM289.365 380.817C293.018 382.641 295.149 384.818 295.572 385.247C296.268 385.953 296.59 386.396 296.483 386.256C296.265 385.971 295.623 385.062 294.404 383.121C291.94 379.199 288.923 374 284.627 366.791C276.434 353.042 265.012 334.42 250.888 316.451C224.66 283.08 179.143 239.445 119.322 255.188L133.327 308.403C157.167 302.129 181.937 317.772 207.625 350.455C219.459 365.511 229.402 381.61 237.357 394.959C241.135 401.3 244.888 407.744 247.811 412.396C249.285 414.743 250.991 417.353 252.766 419.675C253.655 420.838 254.884 422.357 256.398 423.891C257.639 425.149 260.497 427.908 264.786 430.049L289.365 380.817ZM107.067 301.446C143.844 337.488 171.667 394.111 190.139 446.523L242.037 428.232C222.603 373.089 191.349 306.997 145.582 262.145L107.067 301.446ZM232.91 415.606C214.86 401.66 174.115 384.949 116.609 384.05L115.748 439.07C164.512 439.833 192.831 454.177 199.267 459.15L232.91 415.606ZM84.5507 385.146C79.9454 385.526 75.2503 386.006 70.467 386.593L77.1745 441.21C81.2319 440.712 85.1978 440.307 89.071 439.987L84.5507 385.146ZM69.2975 441.041C72.1424 441.515 75.2168 442.31 78.5224 443.471L96.7595 391.554C90.8198 389.467 84.6659 387.816 78.3439 386.762L69.2975 441.041ZM163.347 655.251C165.698 731.342 205.621 806.625 260.77 862.341C315.846 917.984 389.988 957.982 465.057 957.982V902.955C408.954 902.955 348.074 872.321 299.879 823.631C251.757 775.014 220.161 712.264 218.348 653.552L163.347 655.251ZM213.626 638.971C208.703 631.704 201.795 627.351 197.879 625.074C193.373 622.455 188.24 620.074 183.721 618.031C173.967 613.622 164.193 609.478 153.982 603.635C134.293 592.368 116.387 576.629 108.833 548.93L55.745 563.409C68.5148 610.231 99.7257 635.987 126.653 651.395C139.75 658.89 152.659 664.378 161.053 668.173C165.607 670.231 168.413 671.595 170.224 672.647C172.624 674.043 170.41 673.289 168.068 669.832L213.626 638.971ZM108.833 548.93C101.418 521.741 100.146 501.111 101.102 486.977C102.117 471.966 105.485 465.968 105.182 466.424L59.3964 435.9C52.318 446.518 47.5565 463.215 46.2005 483.264C44.7854 504.188 46.9009 530.981 55.745 563.409L108.833 548.93ZM54.8312 452.912C57.1066 488.606 74.9672 555.374 130.69 592.14L160.995 546.21C125.695 522.919 111.483 476.654 109.747 449.412L54.8312 452.912ZM165.915 550.358C164.155 548.48 160.446 543.315 155.399 533.899C150.608 524.961 145.348 513.593 140.143 500.559C129.704 474.416 120.012 442.885 114.743 412.77L60.5391 422.255C66.5775 456.765 77.4649 491.977 89.0395 520.964C94.8418 535.496 100.947 548.79 106.9 559.895C112.596 570.522 119.01 580.781 125.77 587.993L165.915 550.358ZM113.976 408.204C108.485 374.013 109.936 347.645 117.174 332.824L67.7282 308.676C52.6417 339.568 53.7881 380.462 59.6455 416.93L113.976 408.204ZM65.2851 325.11C70.8714 359.917 79.7741 392.056 90.3323 420.991L142.026 402.129C132.545 376.148 124.595 347.405 119.617 316.39L65.2851 325.11ZM520.332 908.331C455.41 920.859 369.827 897.042 315.843 840.067C289.325 812.08 270.526 776.216 265.26 732.456C259.979 688.572 268.108 634.963 298.472 571.501L248.834 547.751C214.896 618.683 203.861 682.805 210.627 739.03C217.408 795.379 241.869 842 275.899 877.915C343.01 948.744 447.675 978.394 530.759 962.362L520.332 908.331ZM298.472 571.501C364.222 434.082 386.562 388.701 399.624 347.272C406.232 326.315 410.47 306.403 416.736 277.706C423.053 248.772 431.717 209.473 447.307 148.219L393.98 134.647C378.175 196.744 369.362 236.714 362.975 265.968C356.536 295.459 352.842 312.653 347.144 330.725C335.595 367.354 315.835 407.718 248.834 547.751L298.472 571.501ZM603.025 283.957C618.792 256.658 631.194 221.897 635.773 178.829L581.054 173.012C577.267 208.627 567.196 235.968 555.374 256.437L603.025 283.957ZM584.298 189.165C590.222 199.952 593.382 215.165 595.256 235.883C596.175 246.031 596.72 256.458 597.395 267.776C598.055 278.837 598.832 290.578 600.227 302.157L654.859 295.571C653.679 285.781 652.98 275.481 652.325 264.499C651.685 253.775 651.076 242.157 650.06 230.924C648.065 208.881 644.237 183.992 632.529 162.676L584.298 189.165ZM605.342 261.618C596.371 234.283 585.958 207.739 573.995 185.188L525.385 210.977C535.347 229.755 544.63 253.094 553.058 278.776L605.342 261.618ZM548.922 147.332C537.457 134.005 522.752 121.968 504.365 117.317C484.792 112.365 465.443 116.866 448.044 128.53L478.683 174.238C485.368 169.757 488.865 170.156 490.87 170.663C494.06 171.47 499.664 174.451 507.207 183.219L548.922 147.332ZM575.583 207.386C584.153 183.532 591.288 166.292 597.354 151.059C603.335 136.039 608.527 122.376 612.098 107.417L558.576 94.6386C556.01 105.386 552.152 115.831 546.23 130.702C540.393 145.361 532.774 163.795 523.797 188.78L575.583 207.386ZM393.672 146.871C400.618 181.321 420.124 236.195 455.985 297.449L503.472 269.647C470.107 212.657 453.152 163.462 447.614 135.995L393.672 146.871ZM565.855 81.5995C541.52 106.002 521.947 128.261 506.32 148.418L549.809 182.133C563.842 164.031 581.858 143.48 604.819 120.456L565.855 81.5995ZM480.785 184.815C465.403 209.515 456.433 230.746 452.337 248.483C448.477 265.195 448.115 282.606 455.4 296.398L504.057 270.698C505.766 273.934 503.345 272.155 505.952 260.866C508.323 250.601 514.347 235.017 527.495 213.905L480.785 184.815ZM452.093 176.483C463.949 181.807 472.128 191.56 478.234 208.628L530.046 190.092C520.669 163.882 504.301 139.605 474.633 126.284L452.093 176.483ZM643.906 320.984C678.064 295.715 714.662 272.11 745.458 259.788L725.016 208.699C687.452 223.729 646.247 250.806 611.181 276.745L643.906 320.984ZM712.605 218.598C694.992 244.074 685.488 263.337 679.668 284.737C674.336 304.343 672.21 326.18 668.317 352.254L722.74 360.38C727.268 330.059 728.565 314.626 732.767 299.178C736.48 285.523 742.62 271.946 757.869 249.889L712.605 218.598ZM716.171 374.507C713.637 377.383 711.488 378.212 712.485 377.714C713.015 377.45 714.363 376.863 716.838 376.046C721.764 374.422 728.951 372.6 738.304 370.686L727.272 316.776C717 318.878 707.452 321.199 699.602 323.788C695.689 325.079 691.639 326.617 687.894 328.488C684.616 330.125 679.315 333.101 674.886 338.127L716.171 374.507ZM784.136 363.092C826.118 357.248 891.282 350.805 929.296 348.199L925.533 293.301C886.413 295.982 819.961 302.547 776.549 308.591L784.136 363.092ZM904.482 305.547C906.122 303.074 907.156 302.863 904.142 305.059C901.804 306.762 898.332 308.989 893.552 311.809C883.918 317.491 871.511 324.114 856.885 332.095C828.805 347.419 793.249 367.329 767.532 389.444L803.41 431.166C824.022 413.441 854.436 396.119 883.244 380.398C897.062 372.857 910.828 365.505 921.508 359.206C926.884 356.035 932.104 352.769 936.544 349.535C940.307 346.793 946.205 342.199 950.346 335.953L904.482 305.547ZM727.51 646.922C736.661 703.725 715.482 762.998 675.184 812.103C634.866 861.232 577.658 897.269 520.332 908.331L530.759 962.362C602.228 948.57 670.31 904.783 717.721 847.012C765.15 789.217 794.137 714.517 781.836 638.17L727.51 646.922ZM779.963 653.381C780.152 652.94 780.341 652.445 782.259 650.258C783.971 648.306 788.779 643.243 793.323 637.387C803.332 624.489 814.577 605.261 827.906 569.155L776.285 550.098C764.236 582.736 755.395 596.506 749.85 603.651C746.617 607.817 744.781 609.536 740.887 613.977C737.199 618.182 732.819 623.69 729.383 631.711L779.963 653.381ZM827.906 569.155C832.575 556.51 838.838 551.567 849.576 546.823C856.128 543.929 863.214 541.65 873.31 538.159C882.852 534.86 894.043 530.795 905.858 524.887L881.249 475.67C872.74 479.924 864.296 483.052 855.327 486.154C846.912 489.063 836.613 492.393 827.34 496.489C806.429 505.726 787.287 520.296 776.285 550.098L827.906 569.155ZM903.65 474.684C878.177 464.635 858.36 458.03 842.467 454.881C826.463 451.71 811.395 451.402 797.387 457.302C783.783 463.031 775.198 473.119 769.551 479.929C763.285 487.485 758.538 493.796 750.717 501.061L788.166 541.379C799.335 531.005 807.039 520.926 811.908 515.055C817.395 508.438 818.627 508.064 818.746 508.014C818.782 507.999 818.917 507.943 819.228 507.879C819.552 507.811 820.153 507.717 821.121 507.683C823.134 507.611 826.475 507.809 831.772 508.859C842.633 511.011 858.698 516.105 883.457 525.872L903.65 474.684ZM792.96 535.498C800.219 523.541 804.862 504.711 807.886 485.269C811.118 464.491 813.098 438.769 812.984 410.195L757.957 410.415C758.062 436.467 756.243 459.259 753.512 476.811C752.146 485.597 750.596 492.779 749.055 498.236C748.287 500.955 747.57 503.072 746.953 504.642C746.648 505.418 746.392 505.997 746.197 506.405C745.998 506.821 745.899 506.981 745.922 506.942L792.96 535.498ZM807.611 332.183C804.475 308.806 801.486 278.34 794.932 249.945C788.33 221.344 777.332 190.754 755.631 166.79L714.842 203.725C727.346 217.534 735.576 237.461 741.314 262.321C747.1 287.386 749.561 313.325 753.073 339.5L807.611 332.183ZM707.737 186.123C709.278 235.042 708.146 290.446 705.316 342.229L760.261 345.233C763.155 292.279 764.338 235.249 762.737 184.391L707.737 186.123Z" fill="#A80000" mask="url(#path-1-outside-1_323_219)"/>
<path d="M587.558 628.84C694.95 774.017 572.162 881.342 480.81 881.342C401.314 881.342 317.151 795.73 314.627 714.033C308.369 704.796 261.153 699.663 248.836 654.5V654.5C243.307 634.227 259.027 634.349 273.057 649.994C277.176 654.587 281.917 658.797 287.352 662.383C277.024 651.366 258.932 609.634 252.079 570.468C251.842 570.385 251.604 570.303 251.367 570.223C250.115 569.802 250.259 567.58 251.576 567.471V567.471V567.471C248.803 550.206 263.38 550.434 269.374 566.861V566.861C301.577 567.365 322.504 576.775 329.924 582.508V582.508C313.847 536.893 332.973 507.599 357.68 549.176C362.276 556.91 365.4 562.407 366.885 563.148C367.301 556.378 368.093 549.015 369.226 541.263C360.42 530.631 351.409 517.944 344.951 504.422C333.263 479.951 359.004 478.645 378.196 497.806V497.806C381.518 485.15 385.464 472.435 389.919 460.346C388.292 456.69 386.419 453.106 384.361 449.593C370.831 426.505 384.957 407.247 406.931 422.52V422.52V422.52C414.213 409.484 427.175 416.114 423.63 430.619C423.321 431.881 423.008 433.152 422.69 434.431C445.754 453.514 453.889 468.893 452.069 474.875V474.875C458.458 456.759 477.029 451.531 484.613 469.18C506.792 520.793 503.455 515.144 587.558 628.84Z" fill="#675A5A"/>
<path d="M364.811 656.596C286.871 819.491 427.771 901.607 517.468 884.298C595.524 869.236 669.33 787.543 656.33 706.848C660.724 696.592 669.689 698.258 685.07 656.596V656.596C694.256 631.712 694.484 599.1 677.642 619.592C674.402 623.534 670.73 628.257 665.28 633.32C670.388 624.904 675.127 599.206 674.994 566.1C677.996 563.519 681.27 560.974 684.731 558.475C714.452 537.019 708.193 515.918 671.886 520.972V520.972V520.972C667.517 488.407 644.86 492.946 643.066 525.754V525.754C631.173 528.188 622.782 530.775 620.485 533.381C620.617 532.503 620.744 531.639 620.867 530.79C624.152 508.248 597.597 485.015 579.283 498.562V498.562C578.667 493.451 578.259 488.213 577.918 482.949C576.723 464.476 559.243 465.158 549.985 481.189V481.189C544.713 465.124 538.745 450.008 532.101 437.484C533.359 433.983 534.57 430.704 535.733 427.62C540.974 413.72 528.096 405.862 518.995 417.602V417.602C517.762 416.168 516.51 414.833 515.241 413.604C502.953 401.7 498.733 422.15 504.496 438.259V438.259C487.205 466.022 486.322 482.882 489.701 489.28V489.28C478.232 469.689 437.489 472.17 432.571 494.332C423.499 535.222 420.115 541.007 364.811 656.596Z" fill="#675A5A"/>
</svg>
