<svg width="400" height="400" viewBox="0 0 400 400" fill="none" xmlns="http://www.w3.org/2000/svg">
<path d="M270.096 309.567C270.096 353.693 236.835 389.465 195.805 389.465C154.775 389.465 121.514 353.693 121.514 309.567C121.514 265.44 154.775 229.669 195.805 229.669C236.835 229.669 270.096 265.44 270.096 309.567Z" fill="#A80000"/>
<path d="M177.583 138.557C177.583 182.683 144.321 218.455 103.291 218.455C62.2613 218.455 29 182.683 29 138.557C29 94.4302 62.2613 58.6586 103.291 58.6586C144.321 58.6586 177.583 94.4302 177.583 138.557Z" fill="#A80000"/>
<path d="M371.02 138.557C371.02 182.683 337.759 218.455 296.729 218.455C255.699 218.455 222.438 182.683 222.438 138.557C222.438 94.4302 255.699 58.6586 296.729 58.6586C337.759 58.6586 371.02 94.4302 371.02 138.557Z" fill="#A80000"/>
<path d="M337.379 186.215C337.379 282.984 274.622 361.431 197.207 361.431C119.792 361.431 57.0344 282.984 57.0344 186.215C57.0344 89.4466 119.792 11 197.207 11C274.622 11 337.379 89.4466 337.379 186.215Z" fill="#A80000"/>
<path d="M328.969 186.215C328.969 276.791 269.977 350.217 197.207 350.217C124.437 350.217 65.4448 276.791 65.4448 186.215C65.4448 95.6398 124.437 22.2138 197.207 22.2138C269.977 22.2138 328.969 95.6398 328.969 186.215Z" fill="#655555"/>
<path d="M261.686 67.0689C261.686 91.8417 232.818 111.924 197.207 111.924C161.596 111.924 132.727 91.8417 132.727 67.0689C132.727 42.2961 161.596 22.2138 197.207 22.2138C232.818 22.2138 261.686 42.2961 261.686 67.0689Z" fill="#D9D9D9"/>
<ellipse cx="195.805" cy="309.567" rx="64.4792" ry="70.0861" fill="#A78585"/>
<ellipse cx="194.403" cy="294.148" rx="64.4792" ry="70.0861" fill="#A78585"/>
<ellipse cx="101.89" cy="137.155" rx="64.4792" ry="70.0861" fill="#655555"/>
<path d="M328.969 186.215C328.969 153.779 321.241 122.071 306.763 95.1009C292.284 68.131 271.706 47.1105 247.63 34.6976C223.553 22.2848 197.061 19.037 171.501 25.365C145.942 31.6931 122.464 47.3127 104.037 70.2487L141.362 116.706C152.407 102.958 166.479 93.596 181.799 89.803C197.119 86.01 212.999 87.9567 227.43 95.3969C241.861 102.837 254.196 115.437 262.874 131.602C271.552 147.768 276.184 166.773 276.184 186.215H328.969Z" fill="#D9D9D9"/>
<path d="M135.124 77.0958C127.052 71.8184 118.014 68.5275 108.646 67.4547C99.2779 66.3818 89.8075 67.5531 80.9007 70.8859C71.994 74.2188 63.8672 79.6325 57.0921 86.746C50.317 93.8596 45.0581 102.5 41.6853 112.06L59.5918 119.524C61.9614 112.808 65.6561 106.737 70.4161 101.739C75.1761 96.7413 80.8858 92.9379 87.1434 90.5963C93.401 88.2547 100.055 87.4318 106.636 88.1856C113.218 88.9393 119.568 91.2514 125.239 94.9591L135.124 77.0958Z" fill="#D9D9D9"/>
<ellipse cx="295.327" cy="137.155" rx="64.4792" ry="70.0861" fill="#655555"/>
<path d="M354.942 110.448C349.73 96.7042 340.633 85.1174 328.966 77.3622C317.298 69.607 303.664 66.0851 290.034 67.3054C276.404 68.5258 263.484 74.4252 253.141 84.1511C242.798 93.877 235.568 106.926 232.496 121.411L252.201 126.349C254.31 116.406 259.272 107.45 266.371 100.774C273.471 94.0986 282.339 90.0493 291.694 89.2117C301.049 88.3741 310.407 90.7914 318.416 96.1145C326.424 101.437 332.668 109.39 336.245 118.824L354.942 110.448Z" fill="#D9D9D9"/>
<path d="M87.8723 103.514L50.0259 127.343L43.0172 120.334L42.7369 113.326L45.8207 106.317L50.0259 99.3085C61.2396 91.3654 85.0689 80.2451 90.6758 76.8809C96.2827 73.5168 133.195 75.4792 150.95 76.8809L239.258 71.274L299.532 76.8809L328.969 86.693L348.593 100.71L351.396 106.317L353.471 110.522L352.798 116.129L351.396 121.736L348.593 127.343L344.387 132.95L342.986 114.727L321.96 93.7016C315.419 97.4395 300.373 101.271 292.524 86.693C284.674 72.1151 278.039 80.6189 275.703 86.693C279.908 89.0292 280.749 94.5426 284.113 103.514C287.478 112.485 286.45 121.736 281.31 124.54C279.441 117.064 272.9 104.635 261.686 114.727C247.669 127.343 272.9 139.958 264.489 159.583C240.66 148.369 223.839 158.181 222.438 189.019C223.839 218.455 256.079 219.857 258.882 232.472C239.258 246.489 215.429 228.267 195.805 287.139C173.377 232.472 153.753 243.686 138.334 232.472C143.941 221.258 171.415 217.614 169.172 191.822C166.369 159.583 148.146 156.779 129.924 159.583C129.924 148.369 138.334 145.565 145.343 127.343C146.745 110.522 129.924 110.522 121.514 118.933C117.471 122.976 118.71 128.745 111.702 130.146L114.505 107.719C121.514 90.8981 127.22 85.2913 117.309 85.2913C104.693 85.2913 99.0861 104.915 87.8723 103.514Z" fill="#D9D9D9" stroke="#D9D9D9"/>
<path d="M101.89 137.155C101.89 161.928 90.5933 182.01 76.6586 182.01C62.7239 182.01 51.4276 161.928 51.4276 137.155C51.4276 112.382 62.7239 92.2999 76.6586 92.2999C90.5933 92.2999 101.89 112.382 101.89 137.155Z" fill="#3D3333"/>
<path d="M345.789 137.155C345.789 161.928 334.493 182.01 320.558 182.01C306.624 182.01 295.327 161.928 295.327 137.155C295.327 112.382 306.624 92.2999 320.558 92.2999C334.493 92.2999 345.789 112.382 345.789 137.155Z" fill="#3D3333"/>
<path d="M107.496 139.958C107.496 156.99 103.103 170.796 97.6844 170.796C92.2653 170.796 87.8723 156.99 87.8723 139.958C87.8723 122.927 92.2653 109.121 97.6844 109.121C103.103 109.121 107.496 122.927 107.496 139.958Z" fill="#655555"/>
<path d="M306.541 142.762C306.541 159.793 302.148 173.6 296.729 173.6C291.31 173.6 286.917 159.793 286.917 142.762C286.917 125.731 291.31 111.924 296.729 111.924C302.148 111.924 306.541 125.731 306.541 142.762Z" fill="#655555"/>
<circle cx="123.26" cy="269.169" r="21.0258" fill="#FF0000"/>
<circle cx="113.448" cy="259.357" r="11.2138" fill="white"/>
<circle cx="271.842" cy="269.169" r="21.0258" fill="#FF0000"/>
<circle cx="262.03" cy="259.357" r="11.2138" fill="white"/>
<path d="M217.929 344.61H173.186C168.98 346.179 164.467 352.61 180.07 365.788C199.573 382.26 211.526 364.119 213.34 362.258C215.634 359.905 229.401 349.316 217.929 344.61Z" fill="#383030" stroke="#554949"/>
</svg>
