<svg width="501" height="501" viewBox="0 0 501 501" fill="none" xmlns="http://www.w3.org/2000/svg">
<mask id="path-1-outside-1_323_219" maskUnits="userSpaceOnUse" x="23.1919" y="5.31592" width="468" height="478" fill="black">
<rect fill="white" x="23.1919" y="5.31592" width="468" height="478"/>
<path d="M321.135 256.716C409.736 376.491 308.433 465.036 233.065 465.036C167.479 465.036 98.0421 394.404 95.9597 327.003C90.7969 319.381 51.8426 315.147 41.6807 277.887C33.5511 248.078 38.2933 230.464 41.6807 225.383C42.6836 241.117 50.7017 269.375 73.4575 284.39C64.9363 275.3 50.0105 240.871 44.3566 208.558C42.0453 207.746 39.7382 207.135 37.4465 206.753C39.6567 206.481 41.8219 206.26 43.9416 206.085C41.1043 188.421 41.1805 171.605 46.7616 160.177C49.4026 176.632 53.616 191.853 58.6256 205.582C85.193 205.998 102.459 213.761 108.58 218.491C99.1035 191.602 84.3343 160.923 63.6983 140.7C105.529 129.691 133.985 199.978 139.074 202.519C139.418 196.934 140.071 190.859 141.006 184.463C122.273 161.846 102.415 127.956 120.436 100.052C127.21 122.22 137.66 137.882 148.406 148.61C151.147 138.169 154.402 127.679 158.078 117.705C146.617 91.9632 120.436 70.5185 109.901 53.4763C136.523 64.5396 156.92 75.9366 172.113 86.4972C178.364 75.3072 185.216 66.3402 192.417 61.0978C191.073 71.0691 188.373 83.2195 185.114 96.3241C204.143 112.068 210.855 124.756 209.353 129.691C220.745 97.3863 209.222 81.1222 209.353 65.332C263.55 180.501 229.677 133.078 321.135 256.716Z"/>
<path d="M137.363 279.615C73.061 414.008 189.306 481.755 263.309 467.475C327.707 455.049 388.599 387.65 377.873 321.075C381.498 312.613 388.895 313.987 401.584 279.615C409.419 258.392 426.989 260.103 447.313 249.941C397.082 230.125 404.247 242.773 385.257 260.412C389.472 253.469 393.381 232.268 393.272 204.954C416.436 185.034 459.241 167.723 464.243 160.177C444.96 161.499 412.056 164.751 390.707 167.723C387.383 142.947 385.257 111.318 368.154 92.4306C368.94 117.375 368.362 145.483 366.93 171.668C357.118 173.676 350.195 175.81 348.3 177.961C352.511 149.763 351.724 140.691 368.154 116.924C351.065 123.762 331.614 136.432 314.308 149.234C311.732 127.864 313.559 103.814 304.743 87.7623C302.651 107.433 297.033 122.958 290.136 134.9C285.786 121.646 280.863 109.175 275.381 98.8433C284.154 74.4244 290.136 63.1689 293.205 50.3159C281.381 62.1723 271.983 72.8749 264.568 82.4398C255.064 71.3924 244.26 67.4217 232.218 75.4939C242.599 80.1551 248.735 88.6624 252.606 99.4821C238.341 122.388 237.612 136.298 240.4 141.576C223.094 112.015 213.979 85.9978 210.858 70.5185C179.464 193.87 203.738 140.889 137.363 279.615Z"/>
</mask>
<path d="M321.135 256.716C409.736 376.491 308.433 465.036 233.065 465.036C167.479 465.036 98.0421 394.404 95.9597 327.003C90.7969 319.381 51.8426 315.147 41.6807 277.887C33.5511 248.078 38.2933 230.464 41.6807 225.383C42.6836 241.117 50.7017 269.375 73.4575 284.39C64.9363 275.3 50.0105 240.871 44.3566 208.558C42.0453 207.746 39.7382 207.135 37.4465 206.753C39.6567 206.481 41.8219 206.26 43.9416 206.085C41.1043 188.421 41.1805 171.605 46.7616 160.177C49.4026 176.632 53.616 191.853 58.6256 205.582C85.193 205.998 102.459 213.761 108.58 218.491C99.1035 191.602 84.3343 160.923 63.6983 140.7C105.529 129.691 133.985 199.978 139.074 202.519C139.418 196.934 140.071 190.859 141.006 184.463C122.273 161.846 102.415 127.956 120.436 100.052C127.21 122.22 137.66 137.882 148.406 148.61C151.147 138.169 154.402 127.679 158.078 117.705C146.617 91.9632 120.436 70.5185 109.901 53.4763C136.523 64.5396 156.92 75.9366 172.113 86.4972C178.364 75.3072 185.216 66.3402 192.417 61.0978C191.073 71.0691 188.373 83.2195 185.114 96.3241C204.143 112.068 210.855 124.756 209.353 129.691C220.745 97.3863 209.222 81.1222 209.353 65.332C263.55 180.501 229.677 133.078 321.135 256.716Z" fill="#504444"/>
<path d="M137.363 279.615C73.061 414.008 189.306 481.755 263.309 467.475C327.707 455.049 388.599 387.65 377.873 321.075C381.498 312.613 388.895 313.987 401.584 279.615C409.419 258.392 426.989 260.103 447.313 249.941C397.082 230.125 404.247 242.773 385.257 260.412C389.472 253.469 393.381 232.268 393.272 204.954C416.436 185.034 459.241 167.723 464.243 160.177C444.96 161.499 412.056 164.751 390.707 167.723C387.383 142.947 385.257 111.318 368.154 92.4306C368.94 117.375 368.362 145.483 366.93 171.668C357.118 173.676 350.195 175.81 348.3 177.961C352.511 149.763 351.724 140.691 368.154 116.924C351.065 123.762 331.614 136.432 314.308 149.234C311.732 127.864 313.559 103.814 304.743 87.7623C302.651 107.433 297.033 122.958 290.136 134.9C285.786 121.646 280.863 109.175 275.381 98.8433C284.154 74.4244 290.136 63.1689 293.205 50.3159C281.381 62.1723 271.983 72.8749 264.568 82.4398C255.064 71.3924 244.26 67.4217 232.218 75.4939C242.599 80.1551 248.735 88.6624 252.606 99.4821C238.341 122.388 237.612 136.298 240.4 141.576C223.094 112.015 213.979 85.9978 210.858 70.5185C179.464 193.87 203.738 140.889 137.363 279.615Z" fill="#504444"/>
<path d="M182.535 168.645L188.795 171.496L188.795 171.496L182.535 168.645ZM148.406 148.61L153.266 143.743L144.793 135.283L141.753 146.864L148.406 148.61ZM162.251 206.753L168.112 210.353L168.112 210.353L162.251 206.753ZM141.006 184.463L134.199 183.469L133.757 186.495L135.708 188.851L141.006 184.463ZM185.114 96.3241L191.79 97.984L192.834 93.7837L189.499 91.0245L185.114 96.3241ZM138.584 240.626L143.98 244.891L143.98 244.891L138.584 240.626ZM158.078 117.705L151.624 115.326L150.657 117.949L151.794 120.502L158.078 117.705ZM172.113 86.4972L176.039 80.8492L169.808 76.5185L166.108 83.1427L172.113 86.4972ZM58.6256 205.582L65.0872 203.224L63.465 198.778L58.7332 198.704L58.6256 205.582ZM43.9416 206.085L43.3765 199.23L35.972 199.841L37.1502 207.176L43.9416 206.085ZM44.3566 208.558L37.5812 209.744L38.2756 213.713L42.077 215.048L44.3566 208.558ZM108.58 271.112L115.147 269.064L114.895 268.257L114.456 267.536L108.58 271.112ZM109.901 275.346L115.693 279.056L115.693 279.056L109.901 275.346ZM100.839 293.976L107.338 296.23L107.338 296.23L100.839 293.976ZM73.4575 284.39L77.2457 278.649L68.4394 289.094L73.4575 284.39ZM290.136 134.9L296.671 132.756L291.874 118.137L284.18 131.46L290.136 134.9ZM313.559 240.626L308.486 245.271L308.486 245.271L313.559 240.626ZM314.308 149.234L321.137 148.411L319.722 136.673L310.217 143.704L314.308 149.234ZM275.381 98.8433L282.03 100.606L282.721 98.0007L281.457 95.6198L275.381 98.8433ZM264.568 82.4398L269.783 77.954L264.291 71.5707L259.132 78.2255L264.568 82.4398ZM266.362 188.314L259.701 190.029L259.701 190.029L266.362 188.314ZM252.606 99.4821L246.767 95.8459L245.01 98.6683L246.13 101.799L252.606 99.4821ZM366.93 171.668L365.551 164.929L360.352 165.993L360.062 171.292L366.93 171.668ZM390.707 167.723L397.525 166.808L396.605 159.957L389.759 160.91L390.707 167.723ZM393.272 204.954L397.756 210.17L400.163 208.101L400.15 204.927L393.272 204.954ZM348.795 253.477L342.348 251.079L342.054 251.871L341.959 252.71L348.795 253.477ZM348.3 257.885L343.316 262.626L343.316 262.626L348.3 257.885ZM385.257 260.412L391.137 263.981L380.576 255.372L385.257 260.412ZM183.723 161.87C181.881 161.547 179.459 160.877 176.609 159.73L171.472 172.491C175.061 173.936 178.411 174.905 181.348 175.42L183.723 161.87ZM176.609 159.73C174.943 159.059 173.151 158.233 171.264 157.235L164.83 169.394C167.126 170.61 169.352 171.638 171.472 172.491L176.609 159.73ZM171.264 157.235C165.745 154.315 159.48 149.947 153.266 143.743L143.546 153.478C150.743 160.663 158.12 165.843 164.83 169.394L171.264 157.235ZM176.275 165.795C174.439 169.828 172.487 173.906 170.414 178.019L182.697 184.212C184.854 179.934 186.885 175.692 188.795 171.496L176.275 165.795ZM170.414 178.019C166.245 186.287 161.586 194.694 156.39 203.153L168.112 210.353C173.516 201.555 178.362 192.812 182.697 184.212L170.414 178.019ZM135.708 188.851C144.532 199.505 153.099 207.718 157.618 211.837L166.884 201.669C162.664 197.823 154.589 190.08 146.303 180.076L135.708 188.851ZM169.113 206.276C168.457 196.846 170.793 182.288 174.755 164.837L161.339 161.792C157.402 179.138 154.576 195.53 155.389 207.23L169.113 206.276ZM174.755 164.837C175.553 161.318 176.411 157.712 177.311 154.042L163.95 150.766C163.035 154.496 162.159 158.181 161.339 161.792L174.755 164.837ZM177.311 154.042C179.548 144.916 182.039 135.439 184.54 125.956C187.035 116.494 189.543 107.018 191.79 97.984L178.439 94.6642C176.221 103.583 173.741 112.954 171.238 122.448C168.74 131.92 166.22 141.507 163.95 150.766L177.311 154.042ZM156.39 203.153C149.606 214.197 141.906 225.331 133.188 236.361L143.98 244.891C153.048 233.419 161.056 221.84 168.112 210.353L156.39 203.153ZM133.188 236.361C127.674 243.336 121.752 250.271 115.395 257.116L125.476 266.477C132.086 259.359 138.245 252.147 143.98 244.891L133.188 236.361ZM184.052 191.571C184.082 188.169 183.851 184.387 183.39 180.337L169.721 181.894C170.135 185.526 170.32 188.732 170.296 191.448L184.052 191.571ZM183.39 180.338C182.841 175.522 181.96 170.249 180.767 164.672L167.314 167.549C168.429 172.761 169.231 177.588 169.721 181.894L183.39 180.338ZM180.767 164.672C179.8 160.151 178.625 155.414 177.251 150.537L164.01 154.27C165.31 158.88 166.412 163.332 167.314 167.549L180.767 164.672ZM177.251 150.537C174.039 139.148 169.719 126.941 164.362 114.907L151.794 120.502C156.872 131.907 160.971 143.49 164.01 154.27L177.251 150.537ZM202.866 127.404C202.416 128.68 201.116 130.964 198.805 134.272C196.599 137.43 193.861 140.985 190.967 144.709C188.121 148.372 185.117 152.208 182.563 155.722C180.075 159.146 177.682 162.706 176.275 165.795L188.795 171.496C189.577 169.779 191.235 167.189 193.691 163.81C196.082 160.521 198.915 156.901 201.83 153.149C204.699 149.457 207.647 145.637 210.082 142.151C212.412 138.816 214.708 135.189 215.84 131.979L202.866 127.404ZM168.187 92.1452C172.893 95.4163 177.062 98.5889 180.73 101.624L189.499 91.0245C185.517 87.7295 181.04 84.3255 176.039 80.8492L168.187 92.1452ZM166.108 83.1427C160.761 92.7144 155.895 103.737 151.624 115.326L164.532 120.083C168.624 108.98 173.206 98.6443 178.118 89.8517L166.108 83.1427ZM141.753 146.864C138.458 159.416 135.886 171.928 134.199 183.469L147.812 185.458C149.418 174.467 151.883 162.458 155.059 150.357L141.753 146.864ZM132.208 202.096C131.299 216.869 131.256 230.363 131.712 240.923L145.456 240.329C145.022 230.27 145.058 217.257 145.939 202.941L132.208 202.096ZM102.093 220.777C108.057 237.698 111.861 253.032 113.667 263.021L127.205 260.573C125.261 249.824 121.262 233.78 115.068 216.205L102.093 220.777ZM58.7332 198.704C53.8913 198.629 48.7689 198.786 43.3765 199.23L44.5066 212.941C49.4525 212.533 54.1259 212.391 58.518 212.459L58.7332 198.704ZM42.077 215.048C47.9012 217.094 54.0281 220.719 60.2038 225.489L68.6136 214.602C61.718 209.276 54.2925 204.758 46.6363 202.069L42.077 215.048ZM60.2039 225.489C78.3254 239.488 94.8137 261.724 102.705 274.688L114.456 267.536C106.115 253.832 88.5908 230.034 68.6136 214.602L60.2039 225.489ZM115.395 257.116C111.077 261.767 107.323 266.618 104.109 271.636L115.693 279.056C118.454 274.747 121.701 270.543 125.476 266.477L115.395 257.116ZM102.014 273.16L103.335 277.394L116.467 273.298L115.147 269.064L102.014 273.16ZM94.3405 291.723C90.3344 303.273 88.7145 315.238 89.0846 327.215L102.835 326.79C102.512 316.345 103.927 306.065 107.338 296.23L94.3405 291.723ZM69.6693 290.131C71.0344 291.032 72.4474 291.89 73.9095 292.702L80.5856 280.673C79.4346 280.035 78.3217 279.358 77.2457 278.649L69.6693 290.131ZM73.9096 292.702C81.4002 296.859 90.0981 299.74 100.104 300.815L101.574 287.137C93.3661 286.255 86.4422 283.924 80.5856 280.673L73.9096 292.702ZM76.5617 279.843C77.3713 279.762 78.0199 279.887 78.4306 280.011C78.8306 280.132 79.0654 280.271 79.1224 280.305C79.2044 280.356 78.9859 280.23 78.4755 279.685L68.4394 289.094C69.4148 290.135 70.5848 291.208 71.9371 292.037C73.2237 292.825 75.3345 293.792 77.9334 293.532L76.5617 279.843ZM51.1321 207.373C50.993 206.578 50.8598 205.785 50.7329 204.995L37.1502 207.176C37.2875 208.031 37.4313 208.887 37.5812 209.744L51.1321 207.373ZM104.109 271.636C102.384 274.328 100.816 277.066 99.4005 279.844L111.657 286.091C112.867 283.717 114.211 281.37 115.693 279.056L104.109 271.636ZM99.4005 279.844C97.4176 283.735 95.7356 287.7 94.3405 291.723L107.338 296.23C108.528 292.8 109.963 289.416 111.657 286.091L99.4005 279.844ZM52.1639 207.94C54.0472 213.101 56.0397 218.056 58.1025 222.792L70.715 217.299C68.7597 212.81 66.8714 208.114 65.0872 203.224L52.1639 207.94ZM58.1025 222.792C65.994 240.913 74.9267 255.863 82.7396 266.937C90.4032 277.799 97.3428 285.432 101.407 288.474L109.651 277.461C107.377 275.759 101.447 269.589 93.9803 259.006C86.6627 248.634 78.2042 234.496 70.715 217.299L58.1025 222.792ZM259.215 173.307C261.169 172.561 263.271 171.562 265.459 170.319L258.661 158.359C256.997 159.305 255.529 159.989 254.315 160.452L259.215 173.307ZM265.459 170.319C266.533 169.708 267.634 169.035 268.757 168.299L261.209 156.797C260.324 157.378 259.473 157.898 258.661 158.359L265.459 170.319ZM268.757 168.299C277.483 162.572 287.717 152.843 296.092 138.34L284.18 131.46C276.889 144.085 268.157 152.238 261.209 156.797L268.757 168.299ZM251.158 170.864C252.648 172.96 255.167 176.403 258.327 180.667L269.38 172.477C266.227 168.223 263.777 164.872 262.371 162.894L251.158 170.864ZM258.327 180.667C258.728 181.209 259.14 181.764 259.562 182.332L270.605 174.128C270.186 173.565 269.778 173.014 269.38 172.477L258.327 180.667ZM259.562 182.332C261.14 184.456 262.857 186.758 264.674 189.185L275.686 180.938C273.878 178.524 272.171 176.236 270.605 174.128L259.562 182.332ZM264.674 189.185C270.013 196.313 276.226 204.531 282.329 212.496L293.249 204.129C287.18 196.209 280.998 188.031 275.686 180.938L264.674 189.185ZM282.329 212.496C293.009 226.437 303.617 239.955 308.486 245.271L318.631 235.981C314.263 231.211 304.07 218.254 293.249 204.129L282.329 212.496ZM307.479 150.057C309.495 166.783 310.96 183.172 311.5 197.356C312.047 211.69 311.624 223.259 310.094 230.608L323.561 233.413C325.453 224.332 325.801 211.357 325.247 196.832C324.688 182.157 323.182 165.373 321.137 148.411L307.479 150.057ZM310.094 230.608C309.583 233.058 309.01 234.73 308.486 235.771L320.775 241.955C322.037 239.447 322.918 236.502 323.561 233.413L310.094 230.608ZM308.486 235.771C308.299 236.143 308.146 236.378 308.046 236.512L319.071 244.74C319.733 243.853 320.294 242.911 320.775 241.955L308.486 235.771ZM320.387 239.794C320.191 238.193 319.936 236.266 319.621 234.058L306.002 235.998C306.306 238.134 306.549 239.967 306.731 241.458L320.387 239.794ZM319.621 234.058C319.313 231.892 318.947 229.447 318.523 226.762L304.934 228.906C305.348 231.528 305.704 233.905 306.002 235.998L319.621 234.058ZM318.523 226.762C318.386 225.895 318.243 225.002 318.095 224.085L304.516 226.289C304.661 227.186 304.801 228.059 304.934 228.906L318.523 226.762ZM318.095 224.085C315.469 207.915 310.961 184.168 304.648 160.039L291.339 163.522C297.513 187.118 301.939 210.419 304.516 226.289L318.095 224.085ZM304.648 160.039C302.254 150.891 299.595 141.663 296.671 132.756L283.601 137.045C286.42 145.635 289.002 154.588 291.339 163.522L304.648 160.039ZM281.457 95.6198C277.912 88.9376 274.033 82.8947 269.783 77.954L259.354 86.9257C262.734 90.8542 266.066 95.9611 269.305 102.067L281.457 95.6198ZM308.486 245.271C309.321 246.183 310.328 247.228 311.352 247.961C311.645 248.172 312.093 248.469 312.662 248.739C313.154 248.972 314.234 249.428 315.673 249.451C317.383 249.479 319.495 248.862 321.073 247.057C322.412 245.525 322.704 243.875 322.784 243.115C322.936 241.66 322.605 240.447 322.516 240.111C322.368 239.56 322.182 239.04 322.023 238.627C321.701 237.788 321.278 236.848 320.87 235.967L308.391 241.759C308.777 242.59 309.036 243.182 309.183 243.566C309.259 243.763 309.255 243.776 309.225 243.664C309.209 243.604 309.164 243.427 309.126 243.167C309.094 242.949 309.026 242.4 309.102 241.678C309.17 241.035 309.43 239.474 310.717 238.002C312.243 236.257 314.281 235.67 315.896 235.696C317.239 235.718 318.202 236.141 318.552 236.307C318.98 236.509 319.263 236.706 319.365 236.78C319.626 236.967 319.467 236.893 318.631 235.981L308.486 245.271ZM320.87 235.967C320.326 234.796 319.607 233.309 319.032 232.092L306.591 237.964C307.277 239.416 307.852 240.597 308.391 241.759L320.87 235.967ZM319.032 232.092C317.891 229.675 317.202 228.05 317.02 227.345C316.986 227.21 317.072 227.475 317.082 227.978C317.087 228.227 317.151 230.189 315.564 232.037C313.5 234.441 310.758 234.417 309.58 234.198C309.015 234.093 308.618 233.932 308.437 233.852C308.241 233.765 308.134 233.698 308.132 233.697L315.325 221.971C314.696 221.585 313.549 220.943 312.09 220.672C310.457 220.369 307.395 220.433 305.127 223.075C303.336 225.161 303.312 227.509 303.328 228.266C303.35 229.279 303.544 230.177 303.698 230.774C304.27 232.996 305.608 235.879 306.591 237.964L319.032 232.092ZM308.132 233.697C308.126 233.694 308.204 233.741 308.378 233.874C308.548 234.003 308.775 234.187 309.068 234.439L318.049 224.018C317.171 223.262 316.251 222.539 315.325 221.971L308.132 233.697ZM309.068 234.439C310.169 235.388 311.28 236.334 312.401 237.276L321.254 226.746C320.176 225.839 319.107 224.93 318.049 224.018L309.068 234.439ZM312.401 237.276C318.415 242.331 324.72 247.293 331.327 252.128L339.451 241.027C333.098 236.377 327.035 231.606 321.254 226.746L312.401 237.276ZM273.104 186.95C272.567 184.296 272.177 181.224 271.947 177.772L258.221 178.689C258.482 182.603 258.936 186.297 259.62 189.677L273.104 186.95ZM271.947 177.772C271.648 173.303 271.621 168.286 271.855 162.843L258.111 162.253C257.86 168.084 257.882 173.616 258.221 178.689L271.947 177.772ZM271.855 162.843C272.643 144.501 276.365 121.973 282.03 100.606L268.732 97.0807C262.871 119.192 258.95 142.719 258.111 162.253L271.855 162.843ZM234.465 145.051C239.371 153.431 244.919 162.086 251.158 170.864L262.371 162.894C256.374 154.457 251.045 146.143 246.336 138.101L234.465 145.051ZM259.132 78.2255C254.236 84.5411 250.151 90.413 246.767 95.8459L258.445 103.118C261.555 98.1245 265.366 92.6378 270.005 86.6541L259.132 78.2255ZM246.13 101.799C249.007 109.843 250.592 119.558 251.797 130.539C252.941 140.974 253.83 153.706 255.233 165.174L268.888 163.504C267.436 151.639 266.759 140.781 265.472 129.039C264.244 117.845 262.529 106.798 259.083 97.1652L246.13 101.799ZM255.233 165.174C255.745 169.367 256.344 173.579 257.078 177.762L270.628 175.383C269.945 171.49 269.379 167.522 268.888 163.504L255.233 165.174ZM257.078 177.762C257.802 181.881 258.659 185.986 259.701 190.029L273.023 186.598C272.086 182.962 271.301 179.216 270.628 175.383L257.078 177.762ZM259.701 190.029C261.091 195.427 265.372 199.954 269.387 203.437C273.651 207.136 278.935 210.745 284.027 214.071L291.55 202.554C286.503 199.257 281.902 196.082 278.402 193.045C274.652 189.792 273.288 187.63 273.023 186.598L259.701 190.029ZM284.027 214.071C288.898 217.253 293.456 220.091 297.56 222.889C301.717 225.723 304.607 227.996 306.152 229.743L316.458 220.631C313.666 217.472 309.484 214.369 305.31 211.523C301.084 208.642 296.052 205.495 291.55 202.554L284.027 214.071ZM306.152 229.743C306.565 230.211 306.768 230.517 306.851 230.663C306.936 230.813 306.817 230.658 306.755 230.239L320.362 228.218C319.884 224.995 318.037 222.416 316.458 220.631L306.152 229.743ZM270.544 193.774C271.311 193.187 272.849 191.852 274.687 190.257L265.673 179.866C263.601 181.663 262.514 182.596 262.179 182.853L270.544 193.774ZM274.687 190.257C280 185.649 289.967 176.97 302.28 167.16L293.707 156.401C281.147 166.408 270.988 175.254 265.673 179.866L274.687 190.257ZM302.28 167.16C307.321 163.144 312.748 158.944 318.398 154.764L310.217 143.704C304.413 147.998 298.854 152.3 293.707 156.401L302.28 167.16ZM341.497 176.945C340.189 185.708 337.006 199.894 334.06 213.661C332.606 220.453 331.22 227.101 330.205 232.734C329.225 238.171 328.471 243.27 328.511 246.658L342.267 246.497C342.245 244.616 342.736 240.765 343.744 235.174C344.716 229.78 346.06 223.324 347.512 216.54C350.377 203.155 353.711 188.3 355.103 178.976L341.497 176.945ZM368.309 178.406C374.895 177.059 382.899 175.754 391.656 174.535L389.759 160.91C380.844 162.151 372.527 163.501 365.551 164.929L368.309 178.406ZM388.787 199.739C376.281 210.493 364.532 221.667 355.953 231.34L366.244 240.469C374.27 231.421 385.521 220.691 397.756 210.17L388.787 199.739ZM355.953 231.34C349.708 238.38 344.483 245.34 342.348 251.079L355.242 255.876C356.399 252.764 360.032 247.472 366.244 240.469L355.953 231.34ZM331.327 252.128C335.804 255.404 339.789 258.917 343.316 262.626L353.284 253.145C349.178 248.827 344.573 244.775 339.451 241.027L331.327 252.128ZM341.959 252.71L341.465 257.118L355.136 258.652L355.63 254.244L341.959 252.71ZM354.774 277.905C357.307 282.283 360.985 290.724 364.307 299.681C367.645 308.679 370.305 317.345 371.082 322.169L384.664 319.981C383.657 313.731 380.578 303.989 377.206 294.897C373.818 285.764 369.816 276.435 366.682 271.016L354.774 277.905ZM380.576 255.372C379.8 256.093 378.975 256.823 378.094 257.561L386.928 268.107C387.995 267.213 388.996 266.327 389.938 265.452L380.576 255.372ZM378.094 257.561C372.959 261.863 366.603 265.464 358.711 267.885L362.745 281.037C372.367 278.085 380.361 273.608 386.928 268.107L378.094 257.561ZM383.135 269.684C385.513 269.468 387.297 268.32 388.444 267.303C389.594 266.284 390.469 265.081 391.137 263.981L379.377 256.843C379.131 257.247 379.086 257.215 379.317 257.01C379.546 256.807 380.414 256.118 381.888 255.984L383.135 269.684ZM400.15 204.927C400.103 193.123 399.323 180.211 397.525 166.808L383.89 168.637C385.604 181.416 386.348 193.733 386.393 204.982L400.15 204.927ZM343.316 262.626C345.21 264.616 346.974 266.666 348.612 268.768L359.463 260.312C357.547 257.853 355.488 255.461 353.284 253.145L343.316 262.626ZM348.612 268.768C350.905 271.711 352.956 274.762 354.774 277.905L366.682 271.016C364.55 267.331 362.147 263.757 359.463 260.312L348.612 268.768ZM360.062 171.292C358.731 195.646 356.662 218.235 354.288 234.936L367.908 236.872C370.355 219.657 372.453 196.65 373.798 172.043L360.062 171.292ZM354.288 234.936C353.209 242.531 352.084 248.781 350.968 253.377C350.409 255.681 349.883 257.44 349.414 258.688C348.873 260.127 348.634 260.258 348.947 259.914L359.128 269.166C360.648 267.493 361.622 265.306 362.29 263.531C363.029 261.566 363.707 259.219 364.337 256.622C365.601 251.413 366.799 244.673 367.908 236.872L354.288 234.936ZM321.135 256.716L332.195 248.535L321.135 256.716ZM209.353 65.332L221.801 59.4744L195.597 65.2173L209.353 65.332ZM148.406 148.61L138.687 158.346L155.633 175.264L161.712 152.103L148.406 148.61ZM120.436 100.052L133.592 96.0321L124.941 67.7193L108.88 92.5887L120.436 100.052ZM141.006 184.463L154.618 186.452L155.502 180.399L151.6 175.688L141.006 184.463ZM185.114 96.3241L171.764 93.0043L169.675 101.405L176.345 106.923L185.114 96.3241ZM192.417 61.0978L206.05 62.9345L210.349 31.027L184.32 49.9761L192.417 61.0978ZM158.078 117.705L170.986 122.461L172.919 117.216L170.645 112.109L158.078 117.705ZM109.901 53.4763L115.18 40.7728L75.7441 24.3843L98.1995 60.7099L109.901 53.4763ZM209.353 129.691L196.192 125.687L222.327 134.266L209.353 129.691ZM172.113 86.4972L164.261 97.7933L176.722 106.455L184.123 93.2061L172.113 86.4972ZM139.074 202.519L132.929 214.827L151.527 224.112L152.805 203.364L139.074 202.519ZM63.6983 140.7L60.197 127.396L36.7619 133.564L54.0695 150.525L63.6983 140.7ZM108.58 218.491L100.169 229.377L137.045 257.868L121.555 213.918L108.58 218.491ZM58.6256 205.582L45.7023 210.298L48.9467 219.189L58.4104 219.337L58.6256 205.582ZM43.9416 206.085L45.0717 219.796L59.8807 218.575L57.5243 203.904L43.9416 206.085ZM37.4465 206.753L35.7696 193.099L35.1849 220.322L37.4465 206.753ZM44.3566 208.558L57.9075 206.187L56.5187 198.25L48.9159 195.579L44.3566 208.558ZM95.9597 327.003L109.71 326.578L109.587 322.59L107.349 319.288L95.9597 327.003ZM41.6807 277.887L54.9527 274.267L54.9527 274.267L41.6807 277.887ZM41.6807 225.383L55.4096 224.508L52.8193 183.875L30.2343 217.752L41.6807 225.383ZM73.4575 284.39L65.8811 295.872L83.4936 274.981L73.4575 284.39ZM46.7616 160.177L60.3446 157.997L53.4615 115.11L34.4003 154.14L46.7616 160.177ZM263.309 467.475L265.915 480.983L265.915 480.983L263.309 467.475ZM137.363 279.615L149.772 285.553L149.772 285.553L137.363 279.615ZM210.858 70.5185L224.343 67.7995L197.526 67.1255L210.858 70.5185ZM290.136 134.9L277.065 139.19L286.66 168.427L302.049 141.78L290.136 134.9ZM304.743 87.7623L316.801 81.1399L295.698 42.7159L291.063 86.3079L304.743 87.7623ZM314.308 149.234L300.65 150.881L303.48 174.355L322.489 160.294L314.308 149.234ZM275.381 98.8433L262.435 94.1918L260.378 99.9167L263.229 105.29L275.381 98.8433ZM264.568 82.4398L254.14 91.4116L265.123 104.178L275.441 90.8685L264.568 82.4398ZM232.218 75.4939L224.558 64.0669L203.949 77.8811L226.583 88.0437L232.218 75.4939ZM293.205 50.3159L306.585 53.5105L317.915 6.05588L283.464 40.6017L293.205 50.3159ZM240.4 141.576L228.529 148.526L252.565 135.151L240.4 141.576ZM252.606 99.4821L264.284 106.755L267.799 101.11L265.559 94.8482L252.606 99.4821ZM368.154 116.924L379.47 124.747L405.434 87.1902L363.044 104.151L368.154 116.924ZM348.3 177.961L334.694 175.929L327.812 222.018L358.622 187.056L348.3 177.961ZM366.93 171.668L369.688 185.145L380.087 183.017L380.667 172.418L366.93 171.668ZM390.707 167.723L377.073 169.552L378.911 183.254L392.604 181.348L390.707 167.723ZM464.243 160.177L475.709 167.779L491.111 144.547L463.303 146.453L464.243 160.177ZM393.272 204.954L384.302 194.524L379.489 198.662L379.515 205.009L393.272 204.954ZM377.873 321.075L365.228 315.657L363.656 319.325L364.291 323.263L377.873 321.075ZM401.584 279.615L388.679 274.851L388.679 274.851L401.584 279.615ZM447.313 249.941L453.465 262.246L481.04 248.458L452.361 237.144L447.313 249.941ZM385.257 260.412L373.497 253.273L394.619 270.492L385.257 260.412ZM368.154 92.4306L378.352 83.1968L353.226 55.449L354.404 92.8637L368.154 92.4306ZM233.065 478.793C275.373 478.793 323.948 454.321 350.186 413.19C363.49 392.334 371.082 367.129 369.073 338.822C367.069 310.578 355.576 280.143 332.195 248.535L310.075 264.897C330.994 293.177 340.064 318.725 341.629 340.77C343.189 362.753 337.358 382.141 326.99 398.393C305.885 431.479 266.124 451.28 233.065 451.28V478.793ZM332.195 248.535C286.035 186.133 272.51 168.189 263.37 151.301C258.861 142.968 255.418 134.877 249.463 121.008C243.556 107.251 235.443 88.4634 221.801 59.4744L196.906 71.1896C210.363 99.785 218.339 118.258 224.182 131.864C229.976 145.359 233.944 154.733 239.173 164.396C249.51 183.498 264.777 203.661 310.075 264.897L332.195 248.535ZM158.126 138.875C149.006 129.77 139.719 116.083 133.592 96.0321L107.28 104.072C114.7 128.358 126.314 145.993 138.687 158.346L158.126 138.875ZM108.88 92.5887C96.8557 111.206 98.0082 131.388 103.92 148.689C109.75 165.746 120.578 181.367 130.411 193.238L151.6 175.688C142.7 164.943 134.234 152.31 129.956 139.792C125.761 127.517 125.995 116.802 131.992 107.515L108.88 92.5887ZM198.465 99.6439C201.745 86.4538 204.601 73.694 206.05 62.9345L178.783 59.2612C177.546 68.4441 175.002 79.9852 171.764 93.0043L198.465 99.6439ZM170.645 112.109C164.021 97.2315 153.417 84.1248 144.032 73.311C133.932 61.6743 126.094 53.5089 121.602 46.2428L98.1995 60.7099C104.243 70.4859 114.763 81.564 123.253 91.3455C132.457 101.95 140.674 112.436 145.51 123.3L170.645 112.109ZM195.597 65.2173C195.551 70.7392 196.524 75.9455 197.431 80.3077C198.408 85.006 199.319 88.7956 199.958 93.2651C201.128 101.453 201.243 111.326 196.379 125.116L222.327 134.266C228.856 115.752 228.905 101.34 227.194 89.3721C226.393 83.7636 225.159 78.5074 224.368 74.7058C223.508 70.5679 223.09 67.8198 223.11 65.4466L195.597 65.2173ZM104.622 66.1798C130.467 76.9204 149.979 87.8663 164.261 97.7933L179.965 75.2011C163.86 64.0069 142.579 52.1589 115.18 40.7728L104.622 66.1798ZM176.345 106.923C185.151 114.209 190.579 120.366 193.515 124.734C194.994 126.936 195.624 128.362 195.835 128.991C196.159 129.955 195.359 128.425 196.192 125.687L222.514 133.695C224.098 128.49 223.022 123.522 221.916 120.228C220.696 116.598 218.739 112.943 216.35 109.388C211.548 102.242 204.106 94.1827 193.884 85.725L176.345 106.923ZM184.32 49.9761C174.761 56.935 166.737 67.9119 160.103 79.7883L184.123 93.2061C189.99 82.7024 195.67 75.7453 200.513 72.2195L184.32 49.9761ZM145.17 112.948C141.328 123.374 137.943 134.288 135.1 145.118L161.712 152.103C164.351 142.049 167.477 131.984 170.986 122.461L145.17 112.948ZM127.393 182.474C126.413 189.184 125.714 195.645 125.343 201.673L152.805 203.364C153.121 198.222 153.729 192.533 154.618 186.452L127.393 182.474ZM145.219 190.211C147.045 191.122 148.111 192.211 148.322 192.426C148.67 192.778 148.831 193 148.778 192.93C148.669 192.788 148.348 192.333 147.738 191.363C146.506 189.402 144.998 186.802 142.85 183.198C138.753 176.323 133.042 167.012 125.98 158.027C112.866 141.342 90.1074 119.525 60.197 127.396L67.1995 154.004C79.1198 150.867 91.5047 158.688 104.349 175.029C110.266 182.558 115.237 190.607 119.214 197.282C121.104 200.452 122.98 203.674 124.441 206C125.179 207.173 126.032 208.479 126.919 209.64C127.364 210.221 127.978 210.98 128.735 211.748C129.355 212.376 130.785 213.756 132.929 214.827L145.219 190.211ZM54.0695 150.525C72.4581 168.546 86.3695 196.857 95.6058 223.064L121.555 213.918C111.837 186.347 96.2106 153.301 73.327 130.875L54.0695 150.525ZM116.991 207.605C107.966 200.632 87.5937 192.277 58.8408 191.827L58.4104 219.337C82.7923 219.719 96.9516 226.891 100.169 229.377L116.991 207.605ZM42.8115 192.375C40.5088 192.565 38.1613 192.805 35.7696 193.099L39.1234 220.407C41.1521 220.158 43.135 219.955 45.0717 219.796L42.8115 192.375ZM35.1849 220.322C36.6074 220.559 38.1445 220.957 39.7973 221.538L48.9159 195.579C45.9461 194.536 42.8691 193.71 39.7081 193.183L35.1849 220.322ZM82.2095 327.428C83.3849 365.473 103.347 403.115 130.921 430.973C158.459 458.794 195.53 478.793 233.065 478.793V451.28C205.013 451.28 174.573 435.963 150.476 411.617C126.415 387.309 110.617 355.934 109.71 326.578L82.2095 327.428ZM107.349 319.288C104.888 315.654 101.434 313.478 99.4756 312.339C97.2229 311.03 94.6561 309.839 92.3964 308.818C87.5198 306.613 82.6329 304.541 77.5273 301.619C67.6824 295.986 58.7298 288.116 54.9527 274.267L28.4086 281.506C34.7935 304.918 50.399 317.795 63.8624 325.5C70.411 329.247 76.8658 331.991 81.0627 333.888C83.3398 334.918 84.7427 335.599 85.6482 336.126C86.8482 336.823 85.7409 336.447 84.5701 334.718L107.349 319.288ZM54.9527 274.267C51.2451 260.673 50.6093 250.358 51.0872 243.29C51.5948 235.785 53.2788 232.786 53.127 233.014L30.2343 217.752C26.6952 223.061 24.3144 231.41 23.6364 241.434C22.9288 251.896 23.9866 265.292 28.4086 281.506L54.9527 274.267ZM27.9517 226.258C29.0894 244.105 38.0197 277.489 65.8811 295.872L81.0339 272.907C63.3836 261.261 56.2779 238.129 55.4096 224.508L27.9517 226.258ZM83.4936 274.981C82.6134 274.042 80.7592 271.46 78.2355 266.751C75.84 262.282 73.2099 256.598 70.6078 250.081C65.3884 237.01 60.5422 221.245 57.9075 206.187L30.8057 210.929C33.8249 228.184 39.2686 245.79 45.0559 260.284C47.957 267.55 51.0095 274.197 53.9859 279.75C56.834 285.063 60.041 290.193 63.4213 293.799L83.4936 274.981ZM57.5243 203.904C54.7785 186.809 55.5041 173.624 59.123 166.214L34.4003 154.14C26.857 169.586 27.4302 190.033 30.3589 208.267L57.5243 203.904ZM33.1787 162.357C35.9718 179.76 40.4232 195.83 45.7023 210.298L71.5489 200.866C66.8089 187.876 62.8334 173.504 60.3446 157.997L33.1787 162.357ZM260.702 453.968C228.241 460.232 185.45 448.323 158.458 419.836C145.199 405.842 135.799 387.91 133.166 366.03C130.526 344.088 134.59 317.284 149.772 285.553L124.953 273.678C107.984 309.143 102.467 341.205 105.85 369.317C109.24 397.492 121.471 420.802 138.486 438.76C172.041 474.174 224.374 488.999 265.915 480.983L260.702 453.968ZM149.772 285.553C182.647 216.843 193.817 194.152 200.348 173.438C203.652 162.96 205.771 153.003 208.904 138.655C212.063 124.188 216.395 104.539 224.189 73.9116L197.526 67.1255C189.624 98.1742 185.217 118.159 182.024 132.786C178.804 147.532 176.957 156.129 174.108 165.165C168.334 183.479 158.454 203.661 124.953 273.678L149.772 285.553ZM302.049 141.78C309.932 128.131 316.133 110.75 318.423 89.2167L291.063 86.3079C289.17 104.116 284.134 117.786 278.223 128.02L302.049 141.78ZM292.685 94.3847C295.647 99.778 297.227 107.385 298.164 117.743C298.623 122.817 298.896 128.031 299.234 133.69C299.564 139.22 299.952 145.091 300.65 150.881L327.966 147.588C327.376 142.692 327.026 137.543 326.698 132.052C326.379 126.69 326.074 120.88 325.566 115.264C324.569 104.242 322.654 91.7982 316.801 81.1399L292.685 94.3847ZM303.207 130.611C298.722 116.943 293.515 103.671 287.534 92.3962L263.229 105.29C268.21 114.679 272.851 126.349 277.065 139.19L303.207 130.611ZM274.997 73.4681C269.264 66.8046 261.912 60.786 252.719 58.4603C242.932 55.9847 233.258 58.2352 224.558 64.0669L239.877 86.921C243.22 84.6804 244.969 84.8801 245.971 85.1337C247.566 85.5372 250.368 87.0277 254.14 91.4116L274.997 73.4681ZM288.328 103.495C292.613 91.5682 296.18 82.9478 299.213 75.3316C302.203 67.8215 304.8 60.9899 306.585 53.5105L279.824 47.1213C278.541 52.4948 276.612 57.7175 273.651 65.1532C270.733 72.4827 266.923 81.6995 262.435 94.1918L288.328 103.495ZM197.372 73.2375C200.845 90.4624 210.598 117.899 228.529 148.526L252.272 134.626C235.59 106.13 227.112 81.5331 224.343 67.7995L197.372 73.2375ZM283.464 40.6017C271.296 52.8028 261.51 63.9324 253.696 74.0112L275.441 90.8685C282.457 81.8175 291.465 71.5419 302.945 60.0301L283.464 40.6017ZM240.929 92.2097C233.238 104.559 228.753 115.175 226.704 124.043C224.775 132.4 224.594 141.105 228.236 148.001L252.565 135.151C253.419 136.769 252.209 135.88 253.512 130.235C254.698 125.102 257.71 117.31 264.284 106.755L240.929 92.2097ZM226.583 88.0437C232.511 90.7054 236.6 95.5818 239.653 104.116L265.559 94.8482C260.871 81.7429 252.687 69.6047 237.853 62.9442L226.583 88.0437ZM322.489 160.294C339.568 147.66 357.867 135.857 373.265 129.696L363.044 104.151C344.262 111.666 323.659 125.205 306.127 138.174L322.489 160.294ZM356.838 109.101C348.032 121.839 343.28 131.47 340.37 142.171C337.704 151.974 336.641 162.892 334.694 175.929L361.906 179.992C364.17 164.832 364.819 157.115 366.92 149.391C368.776 142.564 371.846 135.775 379.47 124.747L356.838 109.101ZM358.622 187.056C357.355 188.493 356.28 188.908 356.778 188.659C357.044 188.527 357.718 188.233 358.955 187.825C361.418 187.013 365.012 186.102 369.688 185.145L364.172 158.19C359.036 159.241 354.262 160.402 350.337 161.696C348.381 162.342 346.355 163.11 344.483 164.046C342.844 164.865 340.194 166.353 337.979 168.865L358.622 187.056ZM392.604 181.348C413.595 178.426 446.177 175.204 465.184 173.902L463.303 146.453C443.742 147.793 410.516 151.076 388.81 154.097L392.604 181.348ZM452.777 152.576C453.597 151.339 454.114 151.233 452.607 152.331C451.438 153.183 449.702 154.297 447.312 155.706C442.495 158.548 436.291 161.859 428.978 165.85C414.939 173.511 397.161 183.466 384.302 194.524L402.241 215.385C412.547 206.522 427.754 197.862 442.158 190.001C449.067 186.231 455.95 182.554 461.29 179.405C463.978 177.819 466.588 176.187 468.808 174.57C470.69 173.199 473.639 170.902 475.709 167.779L452.777 152.576ZM364.291 323.263C368.867 351.664 358.277 381.301 338.128 405.854C317.969 430.418 289.365 448.437 260.702 453.968L265.915 480.983C301.65 474.087 335.691 452.193 359.396 423.308C383.111 394.411 397.605 357.061 391.454 318.887L364.291 323.263ZM390.518 326.493C390.612 326.272 390.707 326.025 391.666 324.931C392.522 323.955 394.925 321.423 397.197 318.496C402.202 312.047 407.825 302.433 414.489 284.38L388.679 274.851C382.654 291.17 378.234 298.055 375.461 301.628C373.845 303.711 372.927 304.57 370.979 306.79C369.135 308.893 366.946 311.647 365.228 315.657L390.518 326.493ZM414.489 284.38C416.824 278.057 419.955 275.586 425.324 273.214C428.6 271.767 432.143 270.627 437.191 268.882C441.962 267.232 447.558 265.199 453.465 262.246L441.161 237.637C436.906 239.764 432.684 241.328 428.2 242.879C423.992 244.334 418.843 245.998 414.206 248.046C403.751 252.665 394.18 259.95 388.679 274.851L414.489 284.38ZM452.361 237.144C439.625 232.12 429.716 228.817 421.77 227.242C413.768 225.657 406.233 225.503 399.23 228.453C392.428 231.318 388.135 236.362 385.312 239.766C382.179 243.544 379.805 246.7 375.895 250.332L394.619 270.492C400.203 265.305 404.056 260.265 406.49 257.33C409.234 254.021 409.85 253.834 409.909 253.809C409.927 253.802 409.995 253.774 410.15 253.741C410.312 253.708 410.613 253.66 411.096 253.643C412.103 253.608 413.774 253.707 416.422 254.231C421.853 255.307 429.885 257.855 442.264 262.738L452.361 237.144ZM397.016 267.551C400.646 261.572 402.967 252.158 404.479 242.436C406.095 232.048 407.085 219.187 407.028 204.899L379.515 205.009C379.567 218.035 378.657 229.432 377.292 238.208C376.609 242.601 375.834 246.191 375.063 248.92C374.68 250.28 374.321 251.338 374.013 252.123C373.86 252.511 373.732 252.801 373.635 253.005C373.535 253.212 373.486 253.292 373.497 253.273L397.016 267.551ZM404.342 165.893C402.774 154.205 401.279 138.972 398.002 124.775C394.701 110.474 389.202 95.1792 378.352 83.1968L357.957 101.664C364.209 108.569 368.324 118.532 371.193 130.962C374.086 143.495 375.317 156.465 377.073 169.552L404.342 165.893ZM354.404 92.8637C355.175 117.323 354.609 145.025 353.194 170.917L380.667 172.418C382.114 145.941 382.705 117.426 381.904 91.9975L354.404 92.8637Z" fill="#A80000" mask="url(#path-1-outside-1_323_219)"/>
<path d="M294.315 314.222C348.011 386.811 286.617 440.473 240.941 440.473C201.193 440.473 159.111 397.667 157.849 356.819C154.72 352.2 131.112 349.634 124.954 327.052V327.052C122.189 316.915 130.049 316.977 137.064 324.799C139.124 327.096 141.495 329.2 144.212 330.993C139.048 325.485 130.002 304.619 126.576 285.036C126.457 284.994 126.338 284.954 126.219 284.914C125.593 284.703 125.665 283.592 126.324 283.538V283.538V283.538C124.937 274.905 132.226 275.019 135.223 283.232V283.232C151.324 283.484 161.788 288.189 165.498 291.056V291.056C157.46 268.249 167.022 253.601 179.376 274.39C181.674 278.257 183.236 281.005 183.978 281.376C184.187 277.991 184.583 274.309 185.149 270.434C180.746 265.118 176.24 258.774 173.011 252.013C167.167 239.777 180.038 239.125 189.634 248.705V248.705C191.295 242.377 193.268 236.02 195.496 229.975C194.682 228.147 193.745 226.355 192.716 224.599C185.951 213.054 193.015 203.425 204.001 211.062V211.062V211.062C207.642 204.544 214.124 207.859 212.351 215.111C212.197 215.743 212.04 216.378 211.881 217.017C223.413 226.559 227.48 234.248 226.571 237.239V237.239C229.765 228.182 239.05 225.568 242.842 234.392C253.932 260.198 252.263 257.374 294.315 314.222Z" fill="#675A5A"/>
<path d="M182.941 328.1C143.972 409.548 214.421 450.605 259.27 441.951C298.298 434.42 335.201 393.573 328.701 353.226C330.898 348.098 335.38 348.931 343.071 328.1V328.1C347.664 315.658 347.778 299.352 339.357 309.598C337.737 311.569 335.901 313.931 333.176 316.462C335.73 312.254 338.099 299.405 338.033 282.852C339.534 281.561 341.171 280.289 342.901 279.04C357.762 268.311 354.633 257.761 336.479 260.288V260.288V260.288C334.294 244.006 322.966 246.275 322.069 262.679V262.679C316.122 263.896 311.927 265.19 310.779 266.493C310.844 266.053 310.908 265.622 310.97 265.197C312.612 253.926 299.334 242.31 290.178 249.083V249.083C289.869 246.528 289.665 243.909 289.495 241.276C288.897 232.04 280.157 232.381 275.528 240.396V240.396C272.892 232.364 269.908 224.806 266.586 218.544C267.215 216.793 267.821 215.154 268.402 213.612C271.023 206.662 264.584 202.733 260.033 208.603V208.603C259.417 207.886 258.791 207.219 258.156 206.604C252.012 200.652 249.902 210.877 252.784 218.931V218.931C244.138 232.813 243.697 241.243 245.387 244.442V244.442C239.652 234.647 219.28 235.887 216.822 246.968C212.285 267.413 210.594 270.305 182.941 328.1Z" fill="#675A5A"/>
</svg>
