<svg width="400" height="400" viewBox="0 0 400 400" fill="none" xmlns="http://www.w3.org/2000/svg">
<g clip-path="url(#clip0_105_106)">
<path d="M273.243 198.527C355.385 309.276 261.467 391.15 191.593 391.15C130.789 391.15 66.4141 325.84 64.4835 263.517C59.6971 256.47 23.5827 252.555 14.1615 218.102C6.6246 190.54 11.0211 174.253 14.1615 169.555C15.0914 184.103 22.5249 210.232 43.6218 224.115C35.7218 215.711 21.8841 183.876 16.6424 153.998C14.4996 153.247 12.3607 152.682 10.236 152.328C12.2851 152.077 14.2925 151.873 16.2576 151.711C13.6272 135.378 13.6979 119.829 18.8721 109.262C21.3205 124.478 25.2268 138.551 29.8711 151.246C54.5017 151.63 70.5089 158.809 76.1841 163.182C67.3981 138.319 53.7056 109.952 34.574 91.2529C73.3551 81.0736 99.737 146.064 104.455 148.413C104.773 143.249 105.379 137.632 106.245 131.718C88.8785 110.806 70.4678 79.4693 87.1754 53.6679C93.4552 74.1656 103.144 88.6469 113.107 98.5672C115.648 88.9122 118.666 79.2129 122.073 69.9903C111.448 46.1886 96.312 23.1709 77.4084 10.6018C102.09 20.8315 120.999 31.3697 135.085 41.1345C140.88 30.7876 147.233 22.4964 153.909 17.649C152.663 26.8689 150.16 38.1038 147.139 50.2209C164.78 64.7786 171.002 76.5102 169.61 81.0736C180.172 51.203 169.488 36.1645 169.61 21.5641C219.857 128.055 188.453 84.2057 273.243 198.527Z" fill="#A80000"/>
<path d="M103.005 220.398C43.5636 344.632 151.022 407.258 219.431 394.058C278.961 382.57 335.25 320.266 325.335 258.724C328.686 250.902 335.524 252.172 347.254 220.398C354.497 200.778 370.738 202.361 389.526 192.967C343.092 174.649 349.716 186.341 332.161 202.646C336.057 196.228 339.671 176.629 339.57 151.381C360.983 132.966 385.217 115.572 398.137 110.771C380.311 111.993 356.934 114.216 337.199 116.963C334.126 94.0606 327.76 69.5813 316.351 47.3624C317.077 70.421 316.543 96.4048 315.219 120.61C306.149 122.466 299.749 124.44 297.998 126.427C301.89 100.361 301.163 91.9745 316.351 70.0041C300.553 76.3253 282.573 88.0381 266.575 99.8722C264.193 80.1175 261 59.9802 257.733 43.047C255.8 61.2309 250.606 75.5826 244.23 86.622C240.209 74.3697 235.658 62.8416 230.591 53.2904C235.027 36.5549 240.709 20.645 247.067 8.43121C236.137 19.3914 227.45 29.285 220.595 38.1269C211.809 27.9146 201.822 24.244 190.69 31.706C200.286 36.0148 205.959 43.8791 209.537 53.881C196.35 75.055 195.677 87.9135 198.254 92.7931C182.256 65.4664 173.829 41.4159 170.944 27.1067C141.923 141.134 164.363 92.1576 103.005 220.398Z" fill="#A80000"/>
<path d="M262.57 204.261C333.415 300.034 252.413 370.836 192.148 370.836C139.706 370.836 84.1835 314.358 82.5184 260.463C78.3902 254.369 47.2422 250.983 39.1166 221.19C32.6162 197.355 36.4081 183.27 39.1166 179.207C39.9186 191.788 46.3299 214.384 64.5255 226.389C57.712 219.122 45.7772 191.592 41.2563 165.754C39.4082 165.105 37.5634 164.616 35.731 164.311C37.4982 164.094 39.2296 163.917 40.9245 163.777C38.6558 149.652 38.7167 136.206 43.1794 127.068C45.2911 140.226 48.6602 152.397 52.6659 163.374C73.9093 163.707 87.7152 169.915 92.61 173.696C85.0322 152.196 73.2227 127.665 56.722 111.494C90.17 102.692 112.924 158.894 116.993 160.925C117.268 156.459 117.79 151.601 118.537 146.488C103.559 128.403 87.6798 101.304 102.09 78.992C107.506 96.7178 115.862 109.241 124.455 117.819C126.647 109.47 129.25 101.083 132.189 93.1071C123.024 72.5242 109.97 52.6191 93.666 41.7498C114.953 50.5961 131.262 59.7092 143.411 68.1535C148.409 59.2059 153.888 52.0358 159.646 47.844C158.572 55.8171 156.413 65.5326 153.807 76.0111C169.022 88.6002 174.389 98.7453 173.189 102.692C182.298 76.8605 173.083 63.8556 173.189 51.2297C216.525 143.319 189.44 105.4 262.57 204.261Z" fill="#504444"/>
<path d="M115.625 222.572C64.2085 330.033 157.159 384.204 216.332 372.786C267.825 362.849 316.514 308.957 307.938 255.723C310.836 248.957 316.751 250.056 326.897 222.572C333.162 205.601 347.211 206.97 363.462 198.844C323.297 182.999 329.027 193.113 313.842 207.217C317.212 201.665 320.338 184.712 320.251 162.873C338.773 146.944 359.735 131.898 370.911 127.745C355.492 128.802 335.271 130.725 318.2 133.102C315.542 113.291 310.035 92.117 300.167 72.8979C300.795 92.8433 300.332 115.319 299.188 136.256C291.342 137.862 285.807 139.569 284.291 141.288C287.658 118.741 287.029 111.487 300.167 92.4827C286.502 97.9504 270.949 108.082 257.111 118.318C255.051 101.231 252.289 83.8121 249.463 69.1651C247.79 84.8939 243.298 97.308 237.783 106.857C234.305 96.2589 230.368 86.2871 225.985 78.0255C229.823 63.5495 234.737 49.7876 240.237 39.2227C230.782 48.7032 223.268 57.2611 217.339 64.9092C209.739 56.0757 201.1 52.9006 191.471 59.3552C199.772 63.0823 204.679 69.8848 207.774 78.5363C196.367 96.8516 195.785 107.974 198.014 112.195C184.176 88.5576 176.887 67.7541 174.392 55.3768C149.289 154.01 168.699 111.645 115.625 222.572Z" fill="#504444"/>
<path d="M100.058 193.427L69.5875 181.239C71.1675 187.107 74.192 199.521 73.6503 202.23C73.1086 204.938 112.698 242.181 121.727 248.275L100.058 193.427Z" fill="#3D3333"/>
<path d="M133.915 137.225C135.044 130.454 145.562 111.494 146.103 103.369C149.489 116.009 156.396 158.081 156.937 165.665C157.479 173.249 139.106 146.028 133.915 137.225Z" fill="#3D3333"/>
<path d="M168.449 95.2432C168.738 95.629 168.979 96.2752 169.182 97.1424L183.346 133.84L197.565 165.665L180.637 198.844L172.511 150.768C169.222 138.02 171.251 106.016 169.182 97.1424L168.449 95.2432Z" fill="#3D3333"/>
<path d="M204.337 130.454C205.691 127.068 214.9 108.786 216.525 103.369L224.651 133.84L218.556 188.01L204.337 130.454Z" fill="#3D3333"/>
<path d="M254.444 174.468H243.61L239.547 160.248L254.444 130.454C257.604 135.42 254.444 170.676 254.444 174.468Z" fill="#3D3333"/>
<path d="M239.547 210.355C241.127 209.001 301.031 172.707 308.615 165.665L295.072 188.01L280.852 221.19L239.547 210.355Z" fill="#3D3333"/>
<path d="M127.821 202.23C129.175 196.587 132.29 184.489 133.915 181.239L131.884 155.508C140.686 165.213 171.97 224.846 172.511 228.638C173.053 232.43 139.106 203.81 127.821 202.23Z" fill="#3D3333"/>
<path d="M194.5 373.5C176.333 373.167 135.3 364.2 116.5 331C97.7 297.8 106 282.833 112.5 279.5C111.333 290.667 114.8 314.5 138 320.5C161.2 326.5 147.667 287.333 138 267C152.667 279.333 180.1 308.4 172.5 326C185.3 336 190.5 293.833 191.5 271.5C198.623 285.598 210.821 314.709 208.89 329.673C215.76 306.539 225.983 281.624 230.5 271.5C226 297.667 223.6 344.7 250 323.5C276.4 302.3 258 282 247 274.5C260.167 275 285.5 292 279.5 312C292.5 301 294.667 283.667 294 279.5C299.333 284.333 305.8 286.4 303 298C299.5 312.5 267.5 372 194.5 373.5Z" fill="#3D3333"/>
</g>
<defs>
<clipPath id="clip0_105_106">
<rect width="400" height="400" fill="white"/>
</clipPath>
</defs>
</svg>
