<svg width="1001" height="1001" viewBox="0 0 1001 1001" fill="none" xmlns="http://www.w3.org/2000/svg">
<path d="M698.086 771.266C698.086 893.044 606.343 991.764 493.171 991.764C380 991.764 288.256 893.044 288.256 771.266C288.256 649.488 380 550.768 493.171 550.768C606.343 550.768 698.086 649.488 698.086 771.266Z" fill="#8D8D8D"/>
<path d="M462.786 344.294C462.786 463.49 372.786 560.118 261.766 560.118C150.746 560.118 60.7468 463.49 60.7468 344.294C60.7468 225.099 150.746 128.471 261.766 128.471C372.786 128.471 462.786 225.099 462.786 344.294Z" fill="#8D8D8D"/>
<path d="M941.18 344.295C941.18 460.909 853.274 555.443 744.836 555.443C636.398 555.443 548.491 460.909 548.491 344.295C548.491 227.681 636.398 133.146 744.836 133.146C853.274 133.146 941.18 227.681 941.18 344.295Z" fill="#8D8D8D"/>
<path d="M860.15 463.504C860.15 714.805 697.244 918.524 496.289 918.524C295.335 918.524 132.429 714.805 132.429 463.504C132.429 212.203 295.335 8.48291 496.289 8.48291C697.244 8.48291 860.15 212.203 860.15 463.504Z" fill="#8D8D8D"/>
<path d="M825.279 463.095C825.279 689.24 677.991 872.568 496.301 872.568C314.612 872.568 167.323 689.24 167.323 463.095C167.323 236.949 314.612 53.6221 496.301 53.6221C677.991 53.6221 825.279 236.949 825.279 463.095Z" fill="#695D5D"/>
<path d="M327.253 719.725L340.985 824.589C331.997 826.586 251.102 743.444 236.121 712.234L227.383 653.561V609.867L271.076 578.658C293.963 585.316 341.735 599.131 349.724 601.129C357.714 603.126 358.047 617.774 357.214 624.848L327.253 719.725Z" fill="#615959"/>
<path d="M655.89 730.96L642.158 835.824C651.146 837.821 732.041 754.679 747.022 723.469L755.76 664.795V621.102L712.067 589.893C689.18 596.551 641.409 610.366 633.419 612.363C625.429 614.361 625.096 629.009 625.929 636.083L655.89 730.96Z" fill="#615959"/>
<ellipse cx="741.284" cy="340.603" rx="160.989" ry="174.988" fill="#695D5D"/>
<path d="M419.307 340.603C419.307 307.718 410.782 275.498 394.709 247.638C378.636 219.777 355.665 197.404 328.431 183.082C301.196 168.76 270.8 163.069 240.727 166.662C210.654 170.256 182.121 182.987 158.399 203.397C134.677 223.808 116.726 251.071 106.605 282.061C96.4833 313.051 94.6005 346.514 101.172 378.614C107.744 410.714 122.505 440.152 143.762 463.552C165.019 486.952 191.912 503.368 221.358 510.918L258.318 340.603H419.307Z" fill="#695D5D"/>
<path d="M769.283 354.602C769.283 397.125 758.315 431.597 744.785 431.597C731.254 431.597 720.286 397.125 720.286 354.602C720.286 312.079 731.254 277.607 744.785 277.607C758.315 277.607 769.283 312.079 769.283 354.602Z" fill="#695D5D"/>
<ellipse cx="493.229" cy="770.268" rx="153.198" ry="174.546" fill="#726767"/>
<path d="M340.986 828.333C402.157 867.449 548.717 922.211 645.591 828.333C591.911 979.387 394.666 991.871 340.986 828.333Z" fill="#7D7070"/>
<ellipse cx="489.461" cy="732.596" rx="149.431" ry="174.546" fill="#8C7777"/>
<path d="M313.524 497.511L284.811 538.708C298.543 551.608 328.005 578.407 335.995 582.401C343.984 586.396 385.93 601.543 405.904 608.617L500.781 628.591L594.409 599.879L678.051 558.682L735.477 538.708L690.535 497.511L649.338 462.557V396.392L624.371 366.431L581.926 351.451L528.245 315.248C507.439 314.832 464.578 314.249 459.584 315.248C454.591 316.246 421.717 339.799 405.904 351.451L355.969 366.431L342.237 396.392C343.069 415.534 344.234 455.566 342.237 462.557C340.239 469.548 322.262 488.773 313.524 497.511Z" fill="#817373"/>
<path d="M258.317 340.603C258.317 402.455 230.112 452.595 195.321 452.595C160.529 452.595 132.325 402.455 132.325 340.603C132.325 278.751 160.529 228.61 195.321 228.61C230.112 228.61 258.317 278.751 258.317 340.603Z" fill="#544B4B"/>
<path d="M867.277 340.603C867.277 402.455 839.073 452.595 804.281 452.595C769.49 452.595 741.286 402.455 741.286 340.603C741.286 278.751 769.49 228.61 804.281 228.61C839.073 228.61 867.277 278.751 867.277 340.603Z" fill="#544B4B"/>
<path d="M272.317 347.603C272.317 390.126 261.348 424.598 247.818 424.598C234.288 424.598 223.32 390.126 223.32 347.603C223.32 305.08 234.288 270.608 247.818 270.608C261.348 270.608 272.317 305.08 272.317 347.603Z" fill="#695D5D"/>
<path d="M330.803 297.672C345.916 312.785 321.86 361.345 277.072 406.133C232.284 450.921 183.725 474.977 168.611 459.863C153.498 444.75 177.554 396.191 222.342 351.403C267.13 306.615 315.69 282.559 330.803 297.672Z" fill="#695D5D"/>
<path d="M670.458 297.672C655.345 312.785 679.401 361.345 724.189 406.133C768.977 450.921 817.537 474.977 832.65 459.863C847.763 444.75 823.707 396.191 778.919 351.403C734.131 306.615 685.572 282.559 670.458 297.672Z" fill="#695D5D"/>
<path d="M784.471 347.302C784.471 389.825 773.503 424.296 759.973 424.296C746.443 424.296 735.475 389.825 735.475 347.302C735.475 304.778 746.443 270.307 759.973 270.307C773.503 270.307 784.471 304.778 784.471 347.302Z" fill="#695D5D"/>
<path d="M548.039 858.569H436.327C425.824 862.486 414.557 878.545 453.513 911.446C502.208 952.572 532.052 907.278 536.581 902.633C542.31 896.758 576.683 870.32 548.039 858.569Z" fill="#524A4A"/>
<path d="M213.65 626.095V543.702L273.573 522.479L368.45 533.715L415.888 577.408C383.43 592.389 354.717 634.834 354.717 634.834L339.737 612.363L291.05 606.121L256.095 612.363L228.631 658.553L213.65 626.095Z" fill="#8D7A7A"/>
<path d="M765.437 626.095V543.702L705.514 522.479L610.637 533.715L563.199 577.408C595.657 592.389 624.369 634.834 624.369 634.834L639.35 612.363L688.037 606.121L722.992 612.363L750.456 658.553L765.437 626.095Z" fill="#8D7A7A"/>
<path d="M489.543 815.849L415.888 829.582L422.13 775.901L445.849 619.854C445.849 619.854 481.22 576.16 489.543 568.67C506.188 580.738 532.986 610.865 536.981 619.854C540.976 628.842 560.284 727.63 569.439 775.901L576.929 829.582L489.543 815.849Z" fill="#988686"/>
<path d="M108.624 290.23L107.882 284.291C107.655 282.47 107.694 280.622 108.136 278.841C115.265 250.173 158.712 165.271 262.539 166.408C267.914 166.467 273.235 164.22 276.869 160.259C450.702 -29.2419 644.682 75.4755 714.041 158.551C718.149 163.471 724.452 166.048 730.844 165.576C811.152 159.652 863.114 219.901 882.907 257.841C885.339 262.504 885.165 268.039 882.813 272.744L880.03 278.309C878.657 281.056 875.85 282.791 872.779 282.791H871.096C869.798 282.791 868.565 283.358 867.72 284.343C865.27 287.202 860.413 285.951 859.29 282.358C854.224 266.141 841.718 242.299 817.867 231.607C792.649 220.302 770.332 246.353 760.314 264.265C757.792 268.775 753.851 272.439 748.915 273.97L729.185 280.093C723.91 281.731 718.166 280.075 714.571 275.881C713.534 274.671 712.713 273.29 712.146 271.8L704.168 250.859C703.407 248.861 703.016 246.74 703.016 244.601V232.676C703.016 224.689 697.633 217.707 689.91 215.674L684.993 214.38C681.297 213.408 678.018 211.257 675.654 208.253L635.752 157.568C634.014 155.36 631.772 153.601 629.214 152.438L605.643 141.724L573.096 124.848C572.324 124.447 571.582 123.99 570.878 123.48L540.347 101.371C537.348 99.1996 533.74 98.0303 530.036 98.0303H452.795C449.092 98.0303 445.483 99.1996 442.484 101.371L410.895 124.246L378.437 141.724L359.509 151.686C356.387 153.329 353.832 155.873 352.176 158.987L326.384 207.474C324.53 210.961 321.479 213.662 317.792 215.08C311.459 217.516 307.28 223.601 307.28 230.387V244.601C307.28 246.74 306.889 248.861 306.128 250.859L299.215 269.005C297.962 272.294 295.751 275.131 292.868 277.149L291.887 277.836C287.423 280.961 281.763 281.839 276.562 280.213L253.247 272.928C247.967 271.278 243.875 267.182 241.231 262.323C234.099 249.214 219.075 231.717 195.296 228.212C193.403 227.933 191.471 228.061 189.633 228.59C165.399 235.57 151.53 257.217 145.846 271.572C144.284 275.518 141.839 279.167 138.167 281.296C136.69 282.153 135.44 282.791 135.003 282.791C134.004 282.791 126.264 286.952 122.519 289.033L116.478 293.564C114.299 295.198 111.207 294.756 109.573 292.577C109.058 291.89 108.731 291.081 108.624 290.23Z" fill="#5B4F4F"/>
<path d="M265.944 674.833L229.528 658.509L255.898 613.303L292.314 605.769L340.032 613.303L355.1 634.65L350.078 645.952L336.265 666.043L294.826 678.601L265.944 674.833Z" fill="#544D4D"/>
<path d="M712.981 674.833L749.397 658.509L723.027 613.303L686.611 605.769L638.893 613.303L623.825 634.65L628.847 645.952L642.66 666.043L684.099 678.601L712.981 674.833Z" fill="#544D4D"/>
</svg>
