<svg width="501" height="501" viewBox="0 0 501 501" fill="none" xmlns="http://www.w3.org/2000/svg">
<path d="M349.079 385.435C349.079 446.324 303.207 495.684 246.622 495.684C190.036 495.684 144.164 446.324 144.164 385.435C144.164 324.546 190.036 275.186 246.622 275.186C303.207 275.186 349.079 324.546 349.079 385.435Z" fill="#8D8D8D"/>
<path d="M231.429 171.949C231.429 231.547 186.429 279.861 130.919 279.861C75.4089 279.861 30.4092 231.547 30.4092 171.949C30.4092 112.351 75.4089 64.0376 130.919 64.0376C186.429 64.0376 231.429 112.351 231.429 171.949Z" fill="#8D8D8D"/>
<path d="M470.626 171.949C470.626 230.256 426.673 277.524 372.454 277.524C318.234 277.524 274.281 230.256 274.281 171.949C274.281 113.642 318.234 66.3752 372.454 66.3752C426.673 66.3752 470.626 113.642 470.626 171.949Z" fill="#8D8D8D"/>
<path d="M430.111 231.554C430.111 357.204 348.658 459.064 248.18 459.064C147.703 459.064 66.25 357.204 66.25 231.554C66.25 105.903 147.703 4.04346 248.18 4.04346C348.658 4.04346 430.111 105.903 430.111 231.554Z" fill="#8D8D8D"/>
<path d="M412.675 231.349C412.675 344.422 339.031 436.086 248.186 436.086C157.342 436.086 83.6973 344.422 83.6973 231.349C83.6973 118.277 157.342 26.613 248.186 26.613C339.031 26.613 412.675 118.277 412.675 231.349Z" fill="#695D5D"/>
<path d="M163.662 359.664L170.528 412.096C166.034 413.095 125.587 371.524 118.096 355.919L113.727 326.582V304.736L135.574 289.131C147.017 292.46 170.903 299.368 174.898 300.366C178.893 301.365 179.059 308.689 178.643 312.226L163.662 359.664Z" fill="#615959"/>
<path d="M327.981 365.282L321.115 417.714C325.609 418.713 366.056 377.142 373.547 361.537L377.916 332.2V310.353L356.069 294.749C344.626 298.078 320.74 304.985 316.745 305.984C312.751 306.983 312.584 314.307 313 317.844L327.981 365.282Z" fill="#615959"/>
<ellipse cx="370.678" cy="170.104" rx="80.4947" ry="87.4942" fill="#695D5D"/>
<path d="M209.689 170.104C209.689 153.661 205.427 137.551 197.39 123.621C189.354 109.691 177.869 98.5039 164.251 91.3429C150.634 84.1819 135.436 81.3366 120.4 83.1332C105.363 84.9298 91.0965 91.2956 79.2355 101.501C67.3745 111.706 58.3992 125.337 53.3384 140.833C48.2776 156.328 47.3363 173.059 50.6222 189.109C53.9082 205.159 61.2884 219.878 71.917 231.578C82.5455 243.278 95.9921 251.486 110.715 255.261L129.195 170.104H209.689Z" fill="#695D5D"/>
<path d="M384.677 177.103C384.677 198.365 379.193 215.601 372.428 215.601C365.663 215.601 360.179 198.365 360.179 177.103C360.179 155.842 365.663 138.606 372.428 138.606C379.193 138.606 384.677 155.842 384.677 177.103Z" fill="#695D5D"/>
<ellipse cx="246.65" cy="384.936" rx="76.5992" ry="87.2728" fill="#726767"/>
<path d="M170.529 413.969C201.114 433.526 274.394 460.908 322.831 413.969C295.991 489.496 197.369 495.737 170.529 413.969Z" fill="#7D7070"/>
<ellipse cx="244.766" cy="366.1" rx="74.7156" ry="87.2728" fill="#8C7777"/>
<path d="M156.798 248.558L142.441 269.156C149.308 275.606 164.038 289.005 168.033 291.003C172.028 293 193.001 300.574 202.988 304.111L250.426 314.098L297.241 299.741L339.061 279.143L367.774 269.156L345.303 248.558L324.705 231.08V197.998L312.221 183.018L290.999 175.527L264.159 157.426C253.755 157.218 232.325 156.927 229.828 157.426C227.331 157.925 210.894 169.702 202.988 175.527L178.02 183.018L171.154 197.998C171.57 207.569 172.153 227.585 171.154 231.08C170.155 234.576 161.167 244.188 156.798 248.558Z" fill="#817373"/>
<path d="M129.194 170.103C129.194 201.029 115.092 226.1 97.6961 226.1C80.3003 226.1 66.1982 201.029 66.1982 170.103C66.1982 139.178 80.3003 114.107 97.6961 114.107C115.092 114.107 129.194 139.178 129.194 170.103Z" fill="#544B4B"/>
<path d="M433.675 170.103C433.675 201.029 419.572 226.1 402.177 226.1C384.781 226.1 370.679 201.029 370.679 170.103C370.679 139.178 384.781 114.107 402.177 114.107C419.572 114.107 433.675 139.178 433.675 170.103Z" fill="#544B4B"/>
<path d="M136.194 173.603C136.194 194.865 130.71 212.101 123.945 212.101C117.18 212.101 111.696 194.865 111.696 173.603C111.696 152.342 117.18 135.106 123.945 135.106C130.71 135.106 136.194 152.342 136.194 173.603Z" fill="#695D5D"/>
<path d="M165.437 148.638C172.994 156.195 160.966 180.475 138.572 202.869C116.178 225.263 91.8982 237.291 84.3416 229.734C76.785 222.177 88.8131 197.898 111.207 175.504C133.601 153.11 157.881 141.082 165.437 148.638Z" fill="#695D5D"/>
<path d="M335.265 148.638C327.708 156.195 339.736 180.475 362.13 202.869C384.524 225.263 408.804 237.291 416.361 229.734C423.917 222.177 411.889 197.898 389.495 175.504C367.101 153.11 342.821 141.082 335.265 148.638Z" fill="#695D5D"/>
<path d="M392.271 173.453C392.271 194.714 386.787 211.95 380.022 211.95C373.257 211.95 367.773 194.714 367.773 173.453C367.773 152.191 373.257 134.955 380.022 134.955C386.787 134.955 392.271 152.191 392.271 173.453Z" fill="#695D5D"/>
<path d="M274.055 429.087H218.199C212.948 431.045 207.315 439.074 226.793 455.525C251.14 476.088 266.062 453.441 268.326 451.119C271.191 448.181 288.377 434.962 274.055 429.087Z" fill="#524A4A"/>
<path d="M106.861 312.85V271.653L136.822 261.042L184.26 266.66L207.98 288.506C191.751 295.997 177.394 317.219 177.394 317.219L169.904 305.984L145.561 302.863L128.083 305.984L114.351 329.079L106.861 312.85Z" fill="#8D7A7A"/>
<path d="M382.754 312.85V271.653L352.793 261.042L305.354 266.66L281.635 288.506C297.864 295.997 312.22 317.219 312.22 317.219L319.711 305.984L344.054 302.863L361.531 305.984L375.264 329.079L382.754 312.85Z" fill="#8D7A7A"/>
<path d="M244.807 407.727L207.98 414.593L211.101 387.753L222.961 309.729C222.961 309.729 240.646 287.882 244.807 284.137C253.13 290.171 266.529 305.235 268.526 309.729C270.524 314.223 280.178 363.617 284.755 387.753L288.501 414.593L244.807 407.727Z" fill="#988686"/>
<path d="M54.3481 144.917L53.977 141.948C53.8631 141.037 53.8827 140.113 54.1041 139.222C57.6684 124.888 79.3919 82.4373 131.305 83.0062C133.993 83.0356 136.653 81.912 138.47 79.9314C225.387 -14.8189 322.377 37.5397 357.056 79.0773C359.11 81.5374 362.262 82.826 365.458 82.5902C405.612 79.6278 431.593 109.752 441.489 128.723C442.706 131.054 442.618 133.822 441.442 136.174L440.051 138.957C439.364 140.33 437.961 141.197 436.426 141.197H435.584C434.935 141.197 434.318 141.481 433.896 141.974C432.671 143.403 430.242 142.778 429.681 140.981C427.148 132.872 420.895 120.951 408.97 115.606C396.36 109.953 385.202 122.978 380.193 131.934C378.932 134.19 376.961 136.021 374.493 136.787L364.628 139.849C361.991 140.667 359.119 139.84 357.322 137.743C356.803 137.137 356.392 136.447 356.109 135.702L352.12 125.232C351.739 124.232 351.544 123.172 351.544 122.102V116.14C351.544 112.147 348.853 108.655 344.991 107.639L342.532 106.992C340.684 106.506 339.045 105.43 337.863 103.929L317.912 78.5859C317.043 77.4819 315.922 76.6023 314.643 76.0209L302.857 70.6638L286.584 62.2259C286.198 62.0257 285.827 61.797 285.475 61.5419L270.21 50.4878C268.71 49.4018 266.906 48.8171 265.054 48.8171H226.433C224.582 48.8171 222.778 49.4018 221.278 50.4877L205.483 61.9251L189.255 70.6638L179.79 75.645C178.23 76.4664 176.952 77.7384 176.124 79.2956L163.228 103.539C162.301 105.283 160.775 106.633 158.932 107.342C155.765 108.56 153.676 111.602 153.676 114.995V122.102C153.676 123.172 153.48 124.232 153.1 125.232L149.643 134.305C149.017 135.949 147.911 137.367 146.47 138.376L145.979 138.72C143.747 140.282 140.917 140.721 138.317 139.909L126.659 136.266C124.019 135.441 121.973 133.393 120.652 130.963C117.086 124.409 109.574 115.661 97.6838 113.908C96.7376 113.768 95.7714 113.832 94.8524 114.097C82.7353 117.587 75.8011 128.411 72.959 135.588C72.1777 137.561 70.9553 139.385 69.1195 140.45C68.381 140.878 67.7559 141.197 67.5374 141.197C67.038 141.197 63.168 143.278 61.2955 144.318L58.2748 146.584C57.1852 147.401 55.6395 147.18 54.8223 146.091C54.5648 145.747 54.4014 145.343 54.3481 144.917Z" fill="#5B4F4F"/>
<path d="M133.008 337.219L114.8 329.056L127.985 306.453L146.193 302.686L170.052 306.453L177.586 317.127L175.075 322.778L168.168 332.824L147.449 339.102L133.008 337.219Z" fill="#544D4D"/>
<path d="M356.526 337.219L374.734 329.056L361.549 306.453L343.341 302.686L319.483 306.453L311.948 317.127L314.46 322.778L321.366 332.824L342.086 339.102L356.526 337.219Z" fill="#544D4D"/>
</svg>
