<svg width="400" height="400" viewBox="0 0 400 400" fill="none" xmlns="http://www.w3.org/2000/svg">
<path d="M279 308C279 356.049 242.735 395 198 395C153.265 395 117 356.049 117 308C117 259.951 153.265 221 198 221C242.735 221 279 259.951 279 308Z" fill="#A80000"/>
<path d="M188 138C188 186.601 151.287 226 106 226C60.7127 226 24 186.601 24 138C24 89.3989 60.7127 50 106 50C151.287 50 188 89.3989 188 138Z" fill="#A80000"/>
<path d="M376 138C376 184.392 341.078 222 298 222C254.922 222 220 184.392 220 138C220 91.6081 254.922 54 298 54C341.078 54 376 91.6081 376 138Z" fill="#A80000"/>
<path d="M344 185C344 284.964 279.081 366 199 366C118.919 366 54 284.964 54 185C54 85.0365 118.919 4 199 4C279.081 4 344 85.0365 344 185Z" fill="#A80000"/>
<path d="M330.215 185.191C330.215 275.237 271.568 348.233 199.223 348.233C126.879 348.233 68.2317 275.237 68.2317 185.191C68.2317 95.1448 126.879 22.1482 199.223 22.1482C271.568 22.1482 330.215 95.1448 330.215 185.191Z" fill="#655555"/>
<path d="M131.912 287.374L137.38 329.129C133.801 329.924 101.591 296.819 95.6258 284.392L92.1462 261.029V243.632L109.544 231.205C118.657 233.856 137.678 239.357 140.86 240.152C144.041 240.948 144.174 246.78 143.842 249.597L131.912 287.374Z" fill="#544949"/>
<path d="M262.767 291.848L257.299 333.602C260.878 334.398 293.089 301.293 299.054 288.866L302.533 265.503V248.105L285.136 235.678C276.022 238.33 257.001 243.831 253.82 244.626C250.638 245.421 250.506 251.254 250.837 254.07L262.767 291.848Z" fill="#544949"/>
<ellipse cx="296.77" cy="136.417" rx="64.1022" ry="69.6763" fill="#655555"/>
<path d="M168.565 136.417C168.565 123.323 165.171 110.494 158.771 99.4007C152.371 88.3073 143.225 79.3986 132.381 73.6959C121.537 67.9933 109.434 65.7274 97.4591 67.1581C85.4847 68.5889 74.1235 73.6583 64.678 81.7852C55.2324 89.9121 48.0849 100.768 44.0547 113.107C40.0246 125.447 39.2749 138.771 41.8917 151.552C44.5085 164.334 50.3858 176.055 58.8498 185.373C67.3139 194.69 78.0221 201.226 89.7469 204.233L104.463 136.417H168.565Z" fill="#655555"/>
<path d="M307.918 141.991C307.918 158.923 303.551 172.649 298.164 172.649C292.776 172.649 288.409 158.923 288.409 141.991C288.409 125.06 292.776 111.334 298.164 111.334C303.551 111.334 307.918 125.06 307.918 141.991Z" fill="#655555"/>
<ellipse cx="197.829" cy="307.821" rx="64.1022" ry="69.6763" fill="#A78585"/>
<path d="M137.38 330.62C161.737 346.195 220.094 368 258.667 330.62C237.292 390.766 158.754 395.737 137.38 330.62Z" fill="#8A7171"/>
<ellipse cx="196.436" cy="292.492" rx="64.1022" ry="69.6763" fill="#A78585"/>
<path d="M126.444 198.895L115.012 215.298C120.48 220.435 132.211 231.105 135.392 232.696C138.573 234.287 155.275 240.318 163.228 243.135L201.006 251.088L238.287 239.655L271.591 223.252L294.456 215.298L276.562 198.895L260.158 184.977V158.632L250.216 146.702L233.316 140.737L211.942 126.322C203.657 126.156 186.591 125.924 184.602 126.322C182.614 126.719 169.524 136.097 163.228 140.737L143.345 146.702L137.877 158.632C138.209 166.253 138.673 182.193 137.877 184.977C137.082 187.76 129.924 195.415 126.444 198.895Z" fill="#776464"/>
<path d="M104.463 136.417C104.463 161.045 93.2331 181.01 79.3798 181.01C65.5266 181.01 54.2964 161.045 54.2964 136.417C54.2964 111.789 65.5266 91.8245 79.3798 91.8245C93.2331 91.8245 104.463 111.789 104.463 136.417Z" fill="#3D3333"/>
<path d="M346.937 136.417C346.937 161.045 335.706 181.01 321.853 181.01C308 181.01 296.77 161.045 296.77 136.417C296.77 111.789 308 91.8245 321.853 91.8245C335.706 91.8245 346.937 111.789 346.937 136.417Z" fill="#3D3333"/>
<path d="M110.037 139.204C110.037 156.136 105.67 169.862 100.283 169.862C94.8954 169.862 90.5281 156.136 90.5281 139.204C90.5281 122.273 94.8954 108.547 100.283 108.547C105.67 108.547 110.037 122.273 110.037 139.204Z" fill="#655555"/>
<path d="M133.325 119.323C139.343 125.341 129.764 144.676 111.93 162.51C94.0969 180.343 74.7617 189.922 68.744 183.904C62.7262 177.886 72.3048 158.551 90.1383 140.717C107.972 122.884 127.307 113.305 133.325 119.323Z" fill="#655555"/>
<path d="M268.569 119.323C262.551 125.341 272.129 144.676 289.963 162.51C307.796 180.343 327.132 189.922 333.149 183.904C339.167 177.886 329.588 158.551 311.755 140.717C293.921 122.884 274.586 113.305 268.569 119.323Z" fill="#655555"/>
<path d="M313.966 139.084C313.966 156.016 309.598 169.742 304.211 169.742C298.824 169.742 294.456 156.016 294.456 139.084C294.456 122.153 298.824 108.427 304.211 108.427C309.598 108.427 313.966 122.153 313.966 139.084Z" fill="#655555"/>
<circle cx="125.709" cy="267.659" r="20.9029" fill="black"/>
<circle cx="115.954" cy="257.904" r="11.1482" fill="white"/>
<circle cx="273.422" cy="267.659" r="20.9029" fill="black"/>
<circle cx="263.668" cy="257.904" r="11.1482" fill="white"/>
<path d="M219.824 342.659H175.343C171.161 344.219 166.675 350.613 182.186 363.713C201.575 380.089 213.459 362.054 215.262 360.204C217.543 357.865 231.229 347.338 219.824 342.659Z" fill="#383030" stroke="#554949"/>
<path d="M86.6782 250.094V217.287L110.538 208.836L148.316 213.31L167.205 230.708C154.281 236.673 142.848 253.573 142.848 253.573L136.883 244.626L117.497 242.14L103.579 244.626L92.6431 263.018L86.6782 250.094Z" fill="#846F6F"/>
<path d="M306.386 250.094V217.287L282.527 208.836L244.749 213.31L225.86 230.708C238.784 236.673 250.217 253.573 250.217 253.573L256.182 244.626L275.568 242.14L289.486 244.626L300.421 263.018L306.386 250.094Z" fill="#846F6F"/>
<path d="M196.532 325.649L167.205 331.117L169.69 309.743L179.134 247.608C179.134 247.608 193.218 230.211 196.532 227.228C203.16 232.033 213.83 244.029 215.421 247.608C217.012 251.187 224.7 290.523 228.345 309.743L231.327 331.117L196.532 325.649Z" fill="#B79191"/>
<path d="M44.8594 116.36L44.5638 113.995C44.4732 113.27 44.4887 112.534 44.6651 111.825C47.5035 100.41 64.8031 66.6039 106.145 67.057C108.285 67.0804 110.404 66.1856 111.85 64.6083C181.067 -10.8464 258.305 30.8496 285.922 63.9282C287.558 65.8873 290.068 66.9134 292.613 66.7257C324.589 64.3666 345.28 88.3565 353.161 103.463C354.129 105.32 354.06 107.524 353.123 109.397L352.015 111.613C351.468 112.707 350.351 113.398 349.128 113.398H348.458C347.941 113.398 347.45 113.624 347.114 114.016C346.138 115.154 344.204 114.656 343.757 113.225C341.74 106.768 336.76 97.2747 327.263 93.0175C317.222 88.5162 308.336 98.8889 304.347 106.021C303.343 107.817 301.773 109.276 299.808 109.886L291.952 112.324C289.852 112.976 287.565 112.316 286.133 110.647C285.72 110.165 285.393 109.615 285.167 109.022L281.991 100.683C281.688 99.8875 281.532 99.043 281.532 98.1914V93.443C281.532 90.2631 279.389 87.4827 276.314 86.6735L274.356 86.1583C272.884 85.7709 271.579 84.9145 270.637 83.7186L254.749 63.5368C254.057 62.6576 253.165 61.9572 252.146 61.4942L242.76 57.2281L229.801 50.5085C229.494 50.349 229.199 50.167 228.918 49.9638L216.761 41.1608C215.567 40.296 214.13 39.8304 212.656 39.8304H181.9C180.426 39.8304 178.989 40.296 177.795 41.1608L165.217 50.269L152.293 57.2281L144.756 61.1948C143.513 61.849 142.495 62.8619 141.836 64.102L131.566 83.4085C130.828 84.7969 129.613 85.8722 128.145 86.4368C125.623 87.4067 123.959 89.8297 123.959 92.5317V98.1914C123.959 99.043 123.804 99.8875 123.501 100.683L120.748 107.909C120.249 109.218 119.369 110.348 118.221 111.151L117.83 111.425C116.053 112.669 113.799 113.019 111.728 112.372L102.445 109.47C100.342 108.813 98.7129 107.183 97.6603 105.248C94.8206 100.028 88.8384 93.0615 79.3699 91.6655C78.6164 91.5544 77.847 91.6054 77.1151 91.8162C67.4656 94.5954 61.9435 103.215 59.6802 108.931C59.058 110.502 58.0846 111.955 56.6226 112.803C56.0345 113.144 55.5367 113.398 55.3627 113.398C54.965 113.398 51.8831 115.055 50.3919 115.883L47.9864 117.687C47.1187 118.338 45.8878 118.162 45.237 117.294C45.0319 117.021 44.9018 116.699 44.8594 116.36Z" fill="#4D3F3F"/>
</svg>
