<svg width="1001" height="1001" viewBox="0 0 1001 1001" fill="none" xmlns="http://www.w3.org/2000/svg">
<mask id="path-1-outside-1_428_1241" maskUnits="userSpaceOnUse" x="307.406" y="91.4924" width="387" height="806" fill="black">
<rect fill="white" x="307.406" y="91.4924" width="387" height="806"/>
<path d="M433.935 619.723L428.724 627.104C435.672 633.391 450.609 646.294 454.777 647.606C458.945 648.918 487.281 654.713 500.928 657.447L542.613 643.506L574.621 627.104L569.411 619.723V613.162L576.854 598.401L584.298 580.359L590.997 554.936V528.694L584.298 486.869L569.411 469.648L559.821 445.865L569.411 425.363L593.317 367.137L605.972 312.191L602.994 264.626L593.317 223.622L547.824 166.216L510.605 143.254L499.439 128.492L489.018 143.254L455.521 166.216L421.28 223.622L403.415 264.626C402.919 277.748 402.224 305.139 403.415 309.731C404.904 315.472 416.07 360.576 416.07 364.677C416.07 367.957 432.942 406.501 441.378 425.363L449.566 445.865L441.378 469.648L428.724 486.869C426.243 497.531 420.238 520.821 416.07 528.694C410.859 538.535 417.559 544.275 416.07 554.936C414.879 563.465 419.047 575.439 421.28 580.359L428.724 598.401L433.935 613.162V619.723Z"/>
<path d="M472.239 183.36L500.629 157.155C504.365 159.066 513.031 163.87 517.813 167.801C523.79 172.714 542.467 192.369 547.697 203.015C552.927 213.661 560.398 236.591 564.881 248.056C569.363 259.521 560.398 302.105 555.915 312.751C551.433 323.397 545.456 338.957 542.467 357.792C539.479 376.627 534.996 391.368 534.996 404.471C534.996 417.573 542.467 441.322 542.467 451.149C542.467 460.977 547.697 486.363 547.697 494.553C547.697 502.742 548.444 521.577 547.697 525.672C546.95 529.766 544.709 553.515 542.467 558.429C540.674 562.36 525.284 573.169 517.813 578.083L487.181 571.532L465.515 558.429L456.55 534.68V508.474L478.216 486.363L487.181 463.433L491.664 430.676L478.216 388.092L465.515 369.257L449.826 340.594L434.136 306.199L440.86 261.158L453.561 214.48L472.239 183.36Z"/>
<path d="M428.159 527.31L425.171 547.783L438.271 588.729L434.883 614.116L463.274 615.754L492.411 608.383L505.859 603.47V359.43L499.534 362.705L495.798 369.257L489.821 375.808L495.798 380.722L502.123 384.816L495.798 388.911L479.362 380.722L460.684 383.997C455.205 391.368 443.052 406.108 438.271 406.108C433.489 406.108 436.278 413.752 438.271 417.573L444.248 429.857L460.684 406.108L470.396 396.281C478.864 397.373 487.181 400.376 489.821 404.471C490.511 405.541 491.166 414.571 492.411 420.849C492.909 433.133 492.685 436.382 489.821 434.771C476.722 427.401 458.409 445.342 458.791 448.693C461.032 468.347 479.362 493.734 479.362 497.009V505.199L465.515 509.293L440.86 505.199L428.159 527.31Z"/>
<path d="M479.362 344.689L505.112 341.413H505.859V309.475C504.614 310.294 501.227 311.932 500.629 311.932C499.882 311.932 478.615 316.027 477.469 316.027C476.323 316.027 462.527 321.759 461.032 322.578C459.538 323.397 449.079 330.767 447.584 332.405C446.09 334.043 440.113 341.413 439.366 343.051C438.619 344.689 431.148 352.878 431.148 353.697C431.148 354.352 420.688 364.889 417.7 367.619L428.159 393.006L431.895 388.911L446.837 369.257L467.756 352.878L479.362 344.689Z"/>
<path d="M487.928 268.529L505.859 257.883V221.85L493.158 226.764L479.362 240.685L467.756 254.607C459.787 259.521 448.331 267.874 448.331 268.529C448.331 269.184 435.381 285.726 428.907 291.459L419.194 302.924L407.24 320.94C408.236 324.216 410.229 330.931 410.229 331.586C410.229 332.241 413.217 346.054 414.711 352.878H416.206L424.424 327.492L440.113 309.475L461.779 282.451L487.928 268.529Z"/>
<path d="M583.558 527.31L586.547 547.783L573.447 588.729L568.616 618.21L548.444 615.754L519.307 608.383L505.859 603.47V359.43L512.184 362.705L515.92 369.257L521.897 375.808L515.92 380.722L510.342 384.816L515.92 388.911L532.356 380.722L551.034 383.997C556.513 391.368 568.666 406.108 573.447 406.108C578.229 406.108 575.44 413.752 573.447 417.573L567.47 429.857L551.034 406.108L541.321 396.281C532.854 397.373 524.537 400.376 521.897 404.471C521.207 405.541 520.552 414.571 519.307 420.849C518.809 433.133 519.033 436.382 521.897 434.771C534.996 427.401 553.28 445.338 552.927 448.693C550.686 469.985 532.356 493.734 532.356 497.009V505.199L546.203 509.293L570.858 505.199L583.558 527.31Z"/>
<path d="M532.356 344.689L506.606 341.413H505.859V309.475C507.104 310.294 510.491 311.932 511.089 311.932C511.836 311.932 533.103 316.027 534.249 316.027C535.395 316.027 549.191 321.759 550.686 322.578C552.18 323.397 562.639 330.767 564.134 332.405C565.628 334.043 571.605 341.413 572.352 343.051C573.099 344.689 580.57 352.878 580.57 353.697C580.57 354.352 591.03 364.889 594.018 367.619L583.558 393.006L579.823 388.911L564.881 369.257L543.962 352.878L532.356 344.689Z"/>
<path d="M523.79 268.529L505.859 257.883V221.85L518.56 226.764L532.356 240.685L543.962 254.607C551.931 259.521 563.386 267.874 563.386 268.529C563.386 269.184 576.336 285.726 582.811 291.459L592.524 302.924L604.478 320.94C603.481 324.216 601.489 330.931 601.489 331.586C601.489 332.241 598.501 346.054 597.006 352.878H595.512L587.294 327.492L571.605 309.475L549.938 282.451L523.79 268.529Z"/>
<path d="M461.779 583.483L470.745 603.655C476.722 610.379 490.02 624.724 495.399 628.31C500.779 631.896 518.56 626.816 526.778 623.827L540.973 614.862L544.709 595.437L551.433 570.782V552.104C546.95 549.116 537.536 543.139 535.743 543.139C533.95 543.139 527.525 537.162 524.537 534.174L520.801 519.232L523.042 502.048L529.766 485.612L532.755 471.416L513.33 460.957L503.618 463.198L477.469 473.658L492.411 493.83L495.399 514.749L485.687 543.139L470.745 549.863L461.779 566.3V583.483Z"/>
<path d="M399.769 729.17L388.563 667.159L410.976 624.574L475.227 602.161H521.548L585.053 624.574L619.42 667.159L606.719 729.17L585.053 749.342L521.548 801.64H475.227C458.044 785.95 422.78 753.526 419.194 749.342C415.608 745.158 404.75 734.15 399.769 729.17Z"/>
<path d="M417.7 655.206L419.194 632.792L448.331 622.333L485.687 614.115H521.548C535.245 617.601 563.088 624.873 564.881 626.068C566.674 627.264 578.08 638.52 583.558 643.999V661.183L564.881 672.389L523.042 679.86L478.216 682.849L454.308 672.389L431.148 664.171L417.7 655.206Z"/>
<path d="M443.278 789.809L444.075 769.017L450.438 763.084L462.957 776.941L459.901 799.037L439.68 817.489C423.781 831.688 389.807 861.795 381.102 868.628C372.396 875.462 366.424 872.334 365.83 872.174C360.267 870.366 348.382 866.736 345.341 866.684C342.299 866.633 339.45 857.786 338.406 853.369L360.613 863.138L399.797 834.491L422.818 809.151L443.278 789.809Z"/>
<path d="M556.691 790.691L555.879 769.522L549.4 763.482L536.655 777.59L539.766 800.086L560.354 818.872C576.54 833.329 611.13 863.981 619.993 870.939C628.856 877.896 634.937 874.711 635.542 874.549C641.205 872.707 653.306 869.011 656.402 868.959C659.499 868.907 662.4 859.9 663.463 855.402L640.854 865.349L600.959 836.183L577.521 810.384L556.691 790.691Z"/>
</mask>
<path d="M433.935 619.723L428.724 627.104C435.672 633.391 450.609 646.294 454.777 647.606C458.945 648.918 487.281 654.713 500.928 657.447L542.613 643.506L574.621 627.104L569.411 619.723V613.162L576.854 598.401L584.298 580.359L590.997 554.936V528.694L584.298 486.869L569.411 469.648L559.821 445.865L569.411 425.363L593.317 367.137L605.972 312.191L602.994 264.626L593.317 223.622L547.824 166.216L510.605 143.254L499.439 128.492L489.018 143.254L455.521 166.216L421.28 223.622L403.415 264.626C402.919 277.748 402.224 305.139 403.415 309.731C404.904 315.472 416.07 360.576 416.07 364.677C416.07 367.957 432.942 406.501 441.378 425.363L449.566 445.865L441.378 469.648L428.724 486.869C426.243 497.531 420.238 520.821 416.07 528.694C410.859 538.535 417.559 544.275 416.07 554.936C414.879 563.465 419.047 575.439 421.28 580.359L428.724 598.401L433.935 613.162V619.723Z" fill="#B5B194"/>
<path d="M472.239 183.36L500.629 157.155C504.365 159.066 513.031 163.87 517.813 167.801C523.79 172.714 542.467 192.369 547.697 203.015C552.927 213.661 560.398 236.591 564.881 248.056C569.363 259.521 560.398 302.105 555.915 312.751C551.433 323.397 545.456 338.957 542.467 357.792C539.479 376.627 534.996 391.368 534.996 404.471C534.996 417.573 542.467 441.322 542.467 451.149C542.467 460.977 547.697 486.363 547.697 494.553C547.697 502.742 548.444 521.577 547.697 525.672C546.95 529.766 544.709 553.515 542.467 558.429C540.674 562.36 525.284 573.169 517.813 578.083L487.181 571.532L465.515 558.429L456.55 534.68V508.474L478.216 486.363L487.181 463.433L491.664 430.676L478.216 388.092L465.515 369.257L449.826 340.594L434.136 306.199L440.86 261.158L453.561 214.48L472.239 183.36Z" fill="#C5C1A3"/>
<path d="M428.159 527.31L425.171 547.783L438.271 588.729L434.883 614.116L463.274 615.754L492.411 608.383L505.859 603.47V359.43L499.534 362.705L495.798 369.257L489.821 375.808L495.798 380.722L502.123 384.816L495.798 388.911L479.362 380.722L460.684 383.997C455.205 391.368 443.052 406.108 438.271 406.108C433.489 406.108 436.278 413.752 438.271 417.573L444.248 429.857L460.684 406.108L470.396 396.281C478.864 397.373 487.181 400.376 489.821 404.471C490.511 405.541 491.166 414.571 492.411 420.849C492.909 433.133 492.685 436.382 489.821 434.771C476.722 427.401 458.409 445.342 458.791 448.693C461.032 468.347 479.362 493.734 479.362 497.009V505.199L465.515 509.293L440.86 505.199L428.159 527.31Z" fill="#4E4D4D"/>
<path d="M428.159 527.31L425.171 547.783L438.271 588.729L434.883 614.116L463.274 615.754L492.411 608.383L505.859 603.47V359.43L499.534 362.705L495.798 369.257L489.821 375.808L495.798 380.722L502.123 384.816L495.798 388.911L479.362 380.722L460.684 383.997C455.205 391.368 443.052 406.108 438.271 406.108C433.489 406.108 436.278 413.752 438.271 417.573L444.248 429.857L460.684 406.108L470.396 396.281C478.864 397.373 487.181 400.376 489.821 404.471C490.511 405.541 491.166 414.571 492.411 420.849C492.909 433.133 492.685 436.382 489.821 434.771C476.722 427.401 458.409 445.342 458.791 448.693C461.032 468.347 479.362 493.734 479.362 497.009V505.199L465.515 509.293L440.86 505.199L428.159 527.31Z" fill="#4E4D4D"/>
<path d="M479.362 344.689L505.112 341.413H505.859V309.475C504.614 310.294 501.227 311.932 500.629 311.932C499.882 311.932 478.615 316.027 477.469 316.027C476.323 316.027 462.527 321.759 461.032 322.578C459.538 323.397 449.079 330.767 447.584 332.405C446.09 334.043 440.113 341.413 439.366 343.051C438.619 344.689 431.148 352.878 431.148 353.697C431.148 354.352 420.688 364.889 417.7 367.619L428.159 393.006L431.895 388.911L446.837 369.257L467.756 352.878L479.362 344.689Z" fill="#4E4D4D"/>
<path d="M479.362 344.689L505.112 341.413H505.859V309.475C504.614 310.294 501.227 311.932 500.629 311.932C499.882 311.932 478.615 316.027 477.469 316.027C476.323 316.027 462.527 321.759 461.032 322.578C459.538 323.397 449.079 330.767 447.584 332.405C446.09 334.043 440.113 341.413 439.366 343.051C438.619 344.689 431.148 352.878 431.148 353.697C431.148 354.352 420.688 364.889 417.7 367.619L428.159 393.006L431.895 388.911L446.837 369.257L467.756 352.878L479.362 344.689Z" fill="#4E4D4D"/>
<path d="M487.928 268.529L505.859 257.883V221.85L493.158 226.764L479.362 240.685L467.756 254.607C459.787 259.521 448.331 267.874 448.331 268.529C448.331 269.184 435.381 285.726 428.907 291.459L419.194 302.924L407.24 320.94C408.236 324.216 410.229 330.931 410.229 331.586C410.229 332.241 413.217 346.054 414.711 352.878H416.206L424.424 327.492L440.113 309.475L461.779 282.451L487.928 268.529Z" fill="#4E4D4D"/>
<path d="M487.928 268.529L505.859 257.883V221.85L493.158 226.764L479.362 240.685L467.756 254.607C459.787 259.521 448.331 267.874 448.331 268.529C448.331 269.184 435.381 285.726 428.907 291.459L419.194 302.924L407.24 320.94C408.236 324.216 410.229 330.931 410.229 331.586C410.229 332.241 413.217 346.054 414.711 352.878H416.206L424.424 327.492L440.113 309.475L461.779 282.451L487.928 268.529Z" fill="#4E4D4D"/>
<path d="M583.558 527.31L586.547 547.783L573.447 588.729L568.616 618.21L548.444 615.754L519.307 608.383L505.859 603.47V359.43L512.184 362.705L515.92 369.257L521.897 375.808L515.92 380.722L510.342 384.816L515.92 388.911L532.356 380.722L551.034 383.997C556.513 391.368 568.666 406.108 573.447 406.108C578.229 406.108 575.44 413.752 573.447 417.573L567.47 429.857L551.034 406.108L541.321 396.281C532.854 397.373 524.537 400.376 521.897 404.471C521.207 405.541 520.552 414.571 519.307 420.849C518.809 433.133 519.033 436.382 521.897 434.771C534.996 427.401 553.28 445.338 552.927 448.693C550.686 469.985 532.356 493.734 532.356 497.009V505.199L546.203 509.293L570.858 505.199L583.558 527.31Z" fill="#4E4D4D"/>
<path d="M583.558 527.31L586.547 547.783L573.447 588.729L568.616 618.21L548.444 615.754L519.307 608.383L505.859 603.47V359.43L512.184 362.705L515.92 369.257L521.897 375.808L515.92 380.722L510.342 384.816L515.92 388.911L532.356 380.722L551.034 383.997C556.513 391.368 568.666 406.108 573.447 406.108C578.229 406.108 575.44 413.752 573.447 417.573L567.47 429.857L551.034 406.108L541.321 396.281C532.854 397.373 524.537 400.376 521.897 404.471C521.207 405.541 520.552 414.571 519.307 420.849C518.809 433.133 519.033 436.382 521.897 434.771C534.996 427.401 553.28 445.338 552.927 448.693C550.686 469.985 532.356 493.734 532.356 497.009V505.199L546.203 509.293L570.858 505.199L583.558 527.31Z" fill="#4E4D4D"/>
<path d="M532.356 344.689L506.606 341.413H505.859V309.475C507.104 310.294 510.491 311.932 511.089 311.932C511.836 311.932 533.103 316.027 534.249 316.027C535.395 316.027 549.191 321.759 550.686 322.578C552.18 323.397 562.639 330.767 564.134 332.405C565.628 334.043 571.605 341.413 572.352 343.051C573.099 344.689 580.57 352.878 580.57 353.697C580.57 354.352 591.03 364.889 594.018 367.619L583.558 393.006L579.823 388.911L564.881 369.257L543.962 352.878L532.356 344.689Z" fill="#4E4D4D"/>
<path d="M532.356 344.689L506.606 341.413H505.859V309.475C507.104 310.294 510.491 311.932 511.089 311.932C511.836 311.932 533.103 316.027 534.249 316.027C535.395 316.027 549.191 321.759 550.686 322.578C552.18 323.397 562.639 330.767 564.134 332.405C565.628 334.043 571.605 341.413 572.352 343.051C573.099 344.689 580.57 352.878 580.57 353.697C580.57 354.352 591.03 364.889 594.018 367.619L583.558 393.006L579.823 388.911L564.881 369.257L543.962 352.878L532.356 344.689Z" fill="#4E4D4D"/>
<path d="M523.79 268.529L505.859 257.883V221.85L518.56 226.764L532.356 240.685L543.962 254.607C551.931 259.521 563.386 267.874 563.386 268.529C563.386 269.184 576.336 285.726 582.811 291.459L592.524 302.924L604.478 320.94C603.481 324.216 601.489 330.931 601.489 331.586C601.489 332.241 598.501 346.054 597.006 352.878H595.512L587.294 327.492L571.605 309.475L549.938 282.451L523.79 268.529Z" fill="#4E4D4D"/>
<path d="M523.79 268.529L505.859 257.883V221.85L518.56 226.764L532.356 240.685L543.962 254.607C551.931 259.521 563.386 267.874 563.386 268.529C563.386 269.184 576.336 285.726 582.811 291.459L592.524 302.924L604.478 320.94C603.481 324.216 601.489 330.931 601.489 331.586C601.489 332.241 598.501 346.054 597.006 352.878H595.512L587.294 327.492L571.605 309.475L549.938 282.451L523.79 268.529Z" fill="#4E4D4D"/>
<path d="M461.779 583.483L470.745 603.655C476.722 610.379 490.02 624.724 495.399 628.31C500.779 631.896 518.56 626.816 526.778 623.827L540.973 614.862L544.709 595.437L551.433 570.782V552.104C546.95 549.116 537.536 543.139 535.743 543.139C533.95 543.139 527.525 537.162 524.537 534.174L520.801 519.232L523.042 502.048L529.766 485.612L532.755 471.416L513.33 460.957L503.618 463.198L477.469 473.658L492.411 493.83L495.399 514.749L485.687 543.139L470.745 549.863L461.779 566.3V583.483Z" fill="#555555"/>
<path d="M399.769 729.17L388.563 667.159L410.976 624.574L475.227 602.161H521.548L585.053 624.574L619.42 667.159L606.719 729.17L585.053 749.342L521.548 801.64H475.227C458.044 785.95 422.78 753.526 419.194 749.342C415.608 745.158 404.75 734.15 399.769 729.17Z" fill="#403D3A"/>
<path d="M417.7 655.206L419.194 632.792L448.331 622.333L485.687 614.115H521.548C535.245 617.601 563.088 624.873 564.881 626.068C566.674 627.264 578.08 638.52 583.558 643.999V661.183L564.881 672.389L523.042 679.86L478.216 682.849L454.308 672.389L431.148 664.171L417.7 655.206Z" fill="#494949"/>
<path d="M443.278 789.809L444.075 769.017L450.438 763.084L462.957 776.941L459.901 799.037L439.68 817.489C423.781 831.688 389.807 861.795 381.102 868.628C372.396 875.462 366.424 872.334 365.83 872.174C360.267 870.366 348.382 866.736 345.341 866.684C342.299 866.633 339.45 857.786 338.406 853.369L360.613 863.138L399.797 834.491L422.818 809.151L443.278 789.809Z" fill="#3E3A37"/>
<path d="M556.691 790.691L555.879 769.522L549.4 763.482L536.655 777.59L539.766 800.086L560.354 818.872C576.54 833.329 611.13 863.981 619.993 870.939C628.856 877.896 634.937 874.711 635.542 874.549C641.205 872.707 653.306 869.011 656.402 868.959C659.499 868.907 662.4 859.9 663.463 855.402L640.854 865.349L600.959 836.183L577.521 810.384L556.691 790.691Z" fill="#3E3A37"/>
<path d="M592.662 544.633L595.808 534.408L585.374 531.198L582.375 541.694L592.662 544.633ZM588.179 560.323L598.39 563.514L598.429 563.388L598.465 563.262L588.179 560.323ZM584.443 572.276L574.232 569.085L573.417 571.694L573.953 574.374L584.443 572.276ZM586.685 583.483L597.197 581.5L597.187 581.443L597.175 581.385L586.685 583.483ZM570.465 493.004L568.077 482.576L557.436 485.012L560.087 495.602L570.465 493.004ZM574.427 508.833L584.866 506.491L584.837 506.362L584.805 506.235L574.427 508.833ZM577.169 521.053L566.731 523.395L567.329 526.062L569.133 528.115L577.169 521.053ZM584.714 529.637L576.678 536.7L576.812 536.852L576.951 536.999L584.714 529.637ZM558.787 466.893L548.154 468.066L549.35 478.917L560.174 477.501L558.787 466.893ZM556.999 450.674L567.633 449.502L567.619 449.371L567.601 449.241L556.999 450.674ZM555.321 438.264L545.331 434.436L544.353 436.988L544.72 439.697L555.321 438.264ZM559.41 427.591L557.777 417.019L551.642 417.966L549.42 423.764L559.41 427.591ZM418.447 560.323L408.16 563.262L408.196 563.388L408.236 563.514L418.447 560.323ZM422.182 572.276L432.673 574.374L433.209 571.694L432.394 569.085L422.182 572.276ZM432.198 508.833L421.82 506.235L421.788 506.362L421.76 506.491L432.198 508.833ZM429.456 521.053L437.492 528.115L439.297 526.062L439.895 523.395L429.456 521.053ZM421.912 529.637L428.419 538.129L429.254 537.489L429.948 536.7L421.912 529.637ZM449.626 450.674L439.025 449.241L439.007 449.371L438.993 449.502L449.626 450.674ZM451.304 438.264L461.906 439.697L462.272 436.988L461.294 434.436L451.304 438.264ZM447.215 427.591L457.205 423.764L454.984 417.966L448.849 417.019L447.215 427.591ZM582.375 541.694L577.892 557.384L598.465 563.262L602.948 547.572L582.375 541.694ZM577.968 557.132L574.232 569.085L594.654 575.467L598.39 563.514L577.968 557.132ZM573.953 574.374L576.194 585.581L597.175 581.385L594.934 570.178L573.953 574.374ZM576.172 585.466L578.985 600.384L600.011 596.418L597.197 581.5L576.172 585.466ZM608.207 537.878C605.863 537.41 599.212 535.456 595.808 534.408L589.515 554.858C592.586 555.803 600.379 558.133 604.011 558.859L608.207 537.878ZM560.087 495.602L564.05 511.431L584.805 506.235L580.843 490.406L560.087 495.602ZM563.989 511.175L566.731 523.395L587.608 518.711L584.866 506.491L563.989 511.175ZM569.133 528.115L576.678 536.7L592.75 522.575L585.205 513.991L569.133 528.115ZM576.951 536.999L584.899 545.38L600.424 530.656L592.476 522.276L576.951 536.999ZM580.551 479.381C578.286 480.147 571.548 481.781 568.077 482.576L572.853 503.432C575.985 502.715 583.898 500.836 587.407 499.649L580.551 479.381ZM569.421 465.721L567.633 449.502L546.366 451.847L548.154 468.066L569.421 465.721ZM567.601 449.241L565.923 436.83L544.72 439.697L546.398 452.108L567.601 449.241ZM565.311 442.091L569.4 431.419L549.42 423.764L545.331 434.436L565.311 442.091ZM561.043 438.164L572.718 436.361L569.451 415.215L557.777 417.019L561.043 438.164ZM572.362 454.772C568.659 454.879 560.587 455.869 557.4 456.286L560.174 477.501C563.705 477.04 570.59 476.229 572.98 476.16L572.362 454.772ZM403.678 547.572L408.16 563.262L428.733 557.384L424.251 541.694L403.678 547.572ZM408.236 563.514L411.971 575.467L432.394 569.085L428.658 557.132L408.236 563.514ZM411.692 570.178L409.451 581.385L430.431 585.581L432.673 574.374L411.692 570.178ZM425.783 490.406L421.82 506.235L442.576 511.431L446.539 495.602L425.783 490.406ZM421.76 506.491L419.018 518.711L439.895 523.395L442.637 511.175L421.76 506.491ZM421.42 513.991L413.876 522.575L429.948 536.7L437.492 528.115L421.42 513.991ZM415.405 521.146L404.469 529.527L417.483 546.51L428.419 538.129L415.405 521.146ZM458.472 468.066L460.26 451.847L438.993 449.502L437.205 465.721L458.472 468.066ZM460.228 452.108L461.906 439.697L440.703 436.83L439.025 449.241L460.228 452.108ZM461.294 434.436L457.205 423.764L437.225 431.419L441.314 442.091L461.294 434.436ZM448.849 417.019L437.174 415.215L433.908 436.361L445.582 438.164L448.849 417.019ZM495.161 309.475V341.413H516.557V309.475H495.161ZM495.161 221.85V257.883H516.557V221.85H495.161ZM442.863 720.204C442.863 729.975 434.942 737.896 425.171 737.896V759.293C446.759 759.293 464.259 741.792 464.259 720.204H442.863ZM425.171 737.896C415.4 737.896 407.479 729.975 407.479 720.204H386.083C386.083 741.792 403.583 759.293 425.171 759.293V737.896ZM407.479 720.204C407.479 710.433 415.4 702.512 425.171 702.512V681.116C403.583 681.116 386.083 698.616 386.083 720.204H407.479ZM425.171 702.512C434.942 702.512 442.863 710.433 442.863 720.204H464.259C464.259 698.616 446.759 681.116 425.171 681.116V702.512ZM415.967 706.756C415.967 709.1 414.067 711 411.723 711V732.397C425.884 732.397 437.363 720.917 437.363 706.756H415.967ZM411.723 711C409.379 711 407.479 709.1 407.479 706.756H386.083C386.083 720.917 397.562 732.397 411.723 732.397V711ZM407.479 706.756C407.479 704.412 409.379 702.512 411.723 702.512V681.116C397.562 681.116 386.083 692.596 386.083 706.756H407.479ZM411.723 702.512C414.067 702.512 415.967 704.412 415.967 706.756H437.363C437.363 692.596 425.884 681.116 411.723 681.116V702.512ZM599.756 720.204C599.756 729.975 591.835 737.896 582.064 737.896V759.293C603.652 759.293 621.153 741.792 621.153 720.204H599.756ZM582.064 737.896C572.293 737.896 564.372 729.975 564.372 720.204H542.976C542.976 741.792 560.476 759.293 582.064 759.293V737.896ZM564.372 720.204C564.372 710.433 572.293 702.512 582.064 702.512V681.116C560.476 681.116 542.976 698.616 542.976 720.204H564.372ZM582.064 702.512C591.835 702.512 599.756 710.433 599.756 720.204H621.153C621.153 698.616 603.652 681.116 582.064 681.116V702.512ZM572.86 706.756C572.86 709.1 570.96 711 568.616 711V732.397C582.777 732.397 594.257 720.917 594.257 706.756H572.86ZM568.616 711C566.272 711 564.372 709.1 564.372 706.756H542.976C542.976 720.917 554.456 732.397 568.616 732.397V711ZM564.372 706.756C564.372 704.412 566.272 702.512 568.616 702.512V681.116C554.455 681.116 542.976 692.596 542.976 706.756H564.372ZM568.616 702.512C570.96 702.512 572.86 704.412 572.86 706.756H594.257C594.257 692.596 582.777 681.116 568.616 681.116V702.512ZM495.161 359.43V603.47H516.557V359.43H495.161ZM428.724 627.104L411.245 614.764L400.313 630.249L414.367 642.968L428.724 627.104ZM433.935 619.723L451.414 632.063L455.331 626.515V619.723H433.935ZM433.935 613.162H455.331V609.497L454.111 606.041L433.935 613.162ZM428.724 598.401L448.9 591.279L448.715 590.755L448.503 590.24L428.724 598.401ZM421.28 580.359L441.059 572.199L440.918 571.855L440.764 571.517L421.28 580.359ZM416.07 554.936L394.879 551.977L394.879 551.977L416.07 554.936ZM416.07 528.694L434.979 538.706L434.979 538.706L416.07 528.694ZM428.724 486.869L411.482 474.2L408.881 477.74L407.885 482.019L428.724 486.869ZM441.378 469.648L458.621 482.317L460.549 479.692L461.609 476.613L441.378 469.648ZM449.566 445.865L469.797 452.831L472.386 445.313L469.437 437.929L449.566 445.865ZM441.378 425.363L461.249 417.427L461.087 417.024L460.91 416.627L441.378 425.363ZM403.415 309.731L424.126 304.36L424.126 304.36L403.415 309.731ZM403.415 264.626L383.8 256.08L382.187 259.782L382.034 263.818L403.415 264.626ZM421.28 223.622L402.905 212.662L402.208 213.829L401.665 215.076L421.28 223.622ZM455.521 166.216L443.424 148.568L439.551 151.223L437.146 155.256L455.521 166.216ZM489.018 143.254L501.116 160.902L504.283 158.731L506.498 155.594L489.018 143.254ZM499.439 128.492L516.504 115.585L498.844 92.2371L481.96 116.152L499.439 128.492ZM510.605 143.254L493.541 156.162L495.959 159.359L499.37 161.464L510.605 143.254ZM547.824 166.216L564.593 152.927L562.258 149.981L559.058 148.007L547.824 166.216ZM593.317 223.622L614.142 218.708L613.047 214.069L610.086 210.333L593.317 223.622ZM602.994 264.626L624.349 263.29L624.235 261.478L623.819 259.712L602.994 264.626ZM605.972 312.191L626.822 316.993L627.521 313.961L627.326 310.855L605.972 312.191ZM593.317 367.137L613.11 375.264L613.775 373.645L614.168 371.939L593.317 367.137ZM569.411 425.363L588.791 434.429L589.009 433.964L589.203 433.49L569.411 425.363ZM559.821 445.865L540.44 436.8L536.495 445.233L539.977 453.867L559.821 445.865ZM569.411 469.648L549.567 477.649L550.897 480.949L553.224 483.64L569.411 469.648ZM584.298 486.869L605.425 483.485L604.463 477.479L600.485 472.877L584.298 486.869ZM590.997 528.694H612.394V526.991L612.124 525.31L590.997 528.694ZM590.997 554.936L611.687 560.389L612.394 557.708V554.936H590.997ZM584.298 580.359L604.077 588.52L604.623 587.196L604.988 585.811L584.298 580.359ZM576.854 598.401L595.959 608.035L596.324 607.311L596.633 606.561L576.854 598.401ZM569.411 613.162L550.306 603.529L548.014 608.073V613.162H569.411ZM569.411 619.723H548.014V626.515L551.931 632.063L569.411 619.723ZM574.621 627.104L584.379 646.146L606.319 634.903L592.101 614.764L574.621 627.104ZM542.613 643.506L549.4 663.797L550.932 663.284L552.371 662.547L542.613 643.506ZM500.928 657.447L496.726 678.427L502.312 679.546L507.715 677.739L500.928 657.447ZM500.629 157.155L510.373 138.106L497.085 131.309L486.117 141.433L500.629 157.155ZM472.239 183.36L457.726 167.638L455.472 169.719L453.893 172.349L472.239 183.36ZM453.561 214.48L435.216 203.469L433.692 206.006L432.915 208.862L453.561 214.48ZM440.86 261.158L420.215 255.541L419.884 256.755L419.698 257.999L440.86 261.158ZM434.136 306.199L412.974 303.04L412.038 309.311L414.67 315.079L434.136 306.199ZM449.826 340.594L430.359 349.474L430.683 350.184L431.057 350.868L449.826 340.594ZM465.515 369.257L446.746 379.53L447.222 380.398L447.775 381.219L465.515 369.257ZM478.216 388.092L498.619 381.649L497.687 378.697L495.956 376.13L478.216 388.092ZM491.664 430.676L512.863 433.577L513.514 428.816L512.067 424.233L491.664 430.676ZM487.181 463.433L507.108 471.225L508.035 468.855L508.38 466.334L487.181 463.433ZM478.216 486.363L493.498 501.338L496.553 498.22L498.143 494.155L478.216 486.363ZM456.55 508.474L441.267 493.499L435.153 499.739V508.474H456.55ZM456.55 534.68H435.153V538.584L436.532 542.237L456.55 534.68ZM465.515 558.429L445.498 565.985L448.111 572.908L454.443 576.737L465.515 558.429ZM487.181 571.532L476.109 589.84L479.188 591.702L482.706 592.455L487.181 571.532ZM517.813 578.083L513.338 599.006L522.091 600.878L529.57 595.96L517.813 578.083ZM542.467 558.429L523.001 549.549L523.001 549.549L542.467 558.429ZM542.467 357.792L521.335 354.439L521.335 354.439L542.467 357.792ZM555.915 312.751L536.196 304.448L536.196 304.448L555.915 312.751ZM547.697 203.015L566.901 193.581L566.901 193.581L547.697 203.015ZM517.813 167.801L531.4 151.273L531.4 151.273L517.813 167.801ZM425.171 547.783L403.999 544.692L403.284 549.589L404.792 554.302L425.171 547.783ZM428.159 527.31L409.606 516.652L407.576 520.186L406.987 524.219L428.159 527.31ZM440.86 505.199L444.366 484.091L429.708 481.657L422.307 494.541L440.86 505.199ZM465.515 509.293L462.009 530.4L466.864 531.207L471.582 529.811L465.515 509.293ZM479.362 505.199L485.429 525.717L500.758 521.184V505.199H479.362ZM458.791 448.693L437.532 451.117L437.532 451.117L458.791 448.693ZM489.821 434.771L500.313 416.123L500.313 416.123L489.821 434.771ZM492.411 420.849L513.79 419.982L513.722 418.319L513.398 416.687L492.411 420.849ZM489.821 404.471L471.839 416.065L471.839 416.065L489.821 404.471ZM470.396 396.281L473.133 375.061L462.626 373.706L455.178 381.241L470.396 396.281ZM460.684 406.108L445.466 391.068L444.153 392.396L443.09 393.932L460.684 406.108ZM444.248 429.857L425.008 439.219L441.017 472.122L461.841 442.034L444.248 429.857ZM438.271 417.573L457.51 408.212L457.381 407.945L457.244 407.683L438.271 417.573ZM460.684 383.997L456.988 362.923L448.596 364.395L443.512 371.233L460.684 383.997ZM479.362 380.722L488.903 361.571L482.601 358.431L475.666 359.647L479.362 380.722ZM495.798 388.911L486.256 408.062L497.18 413.505L507.425 406.872L495.798 388.911ZM495.798 380.722L482.21 397.25L483.15 398.022L484.171 398.683L495.798 380.722ZM489.821 375.808L474.015 361.388L458.832 378.03L476.234 392.336L489.821 375.808ZM495.798 369.257L511.605 383.677L513.207 381.921L514.385 379.855L495.798 369.257ZM499.534 362.705L489.694 343.706L484.079 346.614L480.947 352.107L499.534 362.705ZM505.859 359.43L515.698 340.43L505.859 335.334L496.019 340.43L505.859 359.43ZM505.859 603.47L513.202 583.373L505.859 580.69L498.516 583.373L505.859 603.47ZM492.411 608.383L497.658 629.126L498.722 628.857L499.754 628.48L492.411 608.383ZM463.274 615.754L462.041 637.114L465.328 637.304L468.521 636.497L463.274 615.754ZM434.883 614.116L413.675 611.286L410.625 634.148L433.651 635.477L434.883 614.116ZM505.112 341.413V320.017H503.756L502.412 320.188L505.112 341.413ZM479.362 344.689L476.662 323.464L471.378 324.136L467.026 327.207L479.362 344.689ZM467.756 352.878L455.42 335.396L454.985 335.703L454.566 336.031L467.756 352.878ZM446.837 369.257L433.647 352.41L431.474 354.111L429.804 356.307L446.837 369.257ZM431.895 388.911L447.702 403.332L448.348 402.623L448.928 401.86L431.895 388.911ZM428.159 393.006L408.376 401.156L421.228 432.349L443.966 407.426L428.159 393.006ZM417.7 367.619L403.27 351.821L392.211 361.922L397.917 375.77L417.7 367.619ZM505.859 309.475L517.616 291.599L505.859 283.866L494.102 291.599L505.859 309.475ZM505.859 257.883L516.782 239.485L505.859 232.999L494.935 239.485L505.859 257.883ZM487.928 268.529L497.983 287.415L498.423 287.181L498.852 286.927L487.928 268.529ZM461.779 282.451L451.724 263.564L447.839 265.633L445.086 269.067L461.779 282.451ZM440.113 309.475L456.249 323.527L456.535 323.198L456.807 322.859L440.113 309.475ZM424.424 327.492L408.288 313.44L405.415 316.739L404.068 320.902L424.424 327.492ZM416.206 352.878V374.275H431.769L436.562 359.468L416.206 352.878ZM414.711 352.878L393.81 357.455L397.493 374.275H414.711V352.878ZM407.24 320.94L389.411 309.111L383.835 317.515L386.77 327.165L407.24 320.94ZM419.194 302.924L402.868 289.094L402.058 290.05L401.365 291.094L419.194 302.924ZM428.907 291.459L414.723 275.439L413.574 276.457L412.581 277.629L428.907 291.459ZM467.756 254.607L478.986 272.82L481.956 270.988L484.191 268.307L467.756 254.607ZM479.362 240.685L464.164 225.624L463.516 226.278L462.927 226.985L479.362 240.685ZM493.158 226.764L485.438 206.809L481.177 208.457L477.96 211.703L493.158 226.764ZM505.859 221.85L513.579 201.895L505.859 198.908L498.139 201.895L505.859 221.85ZM438.271 588.729L459.479 591.559L460.115 586.791L458.649 582.209L438.271 588.729ZM502.123 384.816L513.751 402.778L541.497 384.816L513.751 366.855L502.123 384.816ZM586.547 547.783L606.926 554.302L608.434 549.589L607.719 544.692L586.547 547.783ZM583.558 527.31L604.73 524.219L604.142 520.186L602.112 516.652L583.558 527.31ZM570.858 505.199L589.411 494.541L582.01 481.657L567.352 484.091L570.858 505.199ZM546.203 509.293L540.136 529.811L544.854 531.207L549.708 530.4L546.203 509.293ZM532.356 505.199H510.96V521.184L526.289 525.717L532.356 505.199ZM552.927 448.693L531.648 446.453L531.648 446.453L552.927 448.693ZM521.897 434.771L511.405 416.123L511.405 416.123L521.897 434.771ZM519.307 420.849L498.319 416.687L497.996 418.319L497.928 419.982L519.307 420.849ZM521.897 404.471L539.879 416.065L539.879 416.065L521.897 404.471ZM541.321 396.281L556.539 381.241L549.092 373.706L538.585 375.061L541.321 396.281ZM551.034 406.108L568.628 393.932L567.565 392.396L566.252 391.068L551.034 406.108ZM567.47 429.857L549.877 442.034L570.701 472.122L586.71 439.219L567.47 429.857ZM573.447 417.573L554.474 407.683L554.337 407.945L554.208 408.212L573.447 417.573ZM551.034 383.997L568.206 371.233L563.122 364.395L554.73 362.923L551.034 383.997ZM532.356 380.722L536.052 359.647L529.117 358.431L522.814 361.571L532.356 380.722ZM515.92 388.911L503.259 406.159L513.78 413.882L525.461 408.062L515.92 388.911ZM515.92 380.722L528.581 397.97L529.054 397.623L529.507 397.25L515.92 380.722ZM521.897 375.808L535.484 392.336L552.886 378.03L537.703 361.388L521.897 375.808ZM515.92 369.257L497.333 379.855L498.51 381.921L500.113 383.677L515.92 369.257ZM512.184 362.705L530.771 352.107L527.639 346.614L522.024 343.706L512.184 362.705ZM519.307 608.383L511.964 628.48L512.995 628.857L514.06 629.126L519.307 608.383ZM548.444 615.754L543.197 636.497L544.512 636.829L545.857 636.993L548.444 615.754ZM568.616 618.21L566.029 639.45L586.411 641.932L589.731 621.67L568.616 618.21ZM506.606 341.413L509.306 320.188L507.961 320.017H506.606V341.413ZM532.356 344.689L544.692 327.207L540.34 324.136L535.056 323.464L532.356 344.689ZM543.962 352.878L557.152 336.031L556.733 335.703L556.298 335.396L543.962 352.878ZM564.881 369.257L581.914 356.307L580.244 354.111L578.071 352.41L564.881 369.257ZM579.823 388.911L562.79 401.86L563.37 402.623L564.016 403.332L579.823 388.911ZM583.558 393.006L567.752 407.426L590.49 432.35L603.341 401.156L583.558 393.006ZM594.018 367.619L613.801 375.77L619.506 361.922L608.448 351.821L594.018 367.619ZM523.79 268.529L512.866 286.927L513.295 287.181L513.734 287.415L523.79 268.529ZM549.938 282.451L566.632 269.067L563.879 265.633L559.994 263.564L549.938 282.451ZM571.605 309.475L554.911 322.859L555.183 323.198L555.469 323.527L571.605 309.475ZM587.294 327.492L607.65 320.902L606.303 316.739L603.43 313.44L587.294 327.492ZM595.512 352.878L575.156 359.468L579.949 374.275H595.512V352.878ZM597.006 352.878V374.275H614.225L617.908 357.455L597.006 352.878ZM604.478 320.94L624.948 327.165L627.883 317.515L622.306 309.111L604.478 320.94ZM592.524 302.924L610.353 291.094L609.66 290.05L608.85 289.094L592.524 302.924ZM582.811 291.459L599.137 277.629L598.144 276.457L596.994 275.439L582.811 291.459ZM543.962 254.607L527.527 268.307L529.761 270.988L532.732 272.82L543.962 254.607ZM532.356 240.685L548.791 226.985L548.202 226.278L547.554 225.624L532.356 240.685ZM518.56 226.764L533.758 211.703L530.541 208.457L526.28 206.808L518.56 226.764ZM573.447 588.729L553.068 582.209L552.588 583.712L552.333 585.269L573.447 588.729ZM510.342 384.816L497.681 367.568L474.183 384.816L497.68 402.064L510.342 384.816ZM470.745 603.655L451.193 612.345L452.543 615.384L454.753 617.87L470.745 603.655ZM461.779 583.483H440.383V588.024L442.227 592.173L461.779 583.483ZM461.779 566.3L442.996 556.054L440.383 560.844V566.3H461.779ZM470.745 549.863L461.964 530.351L455.405 533.303L451.961 539.617L470.745 549.863ZM485.687 543.139L494.467 562.651L502.928 558.843L505.931 550.065L485.687 543.139ZM495.399 514.749L515.644 521.675L517.308 516.811L516.581 511.723L495.399 514.749ZM492.411 493.83L513.592 490.804L512.827 485.444L509.604 481.094L492.411 493.83ZM477.469 473.658L469.522 453.792L443.76 464.097L460.276 486.393L477.469 473.658ZM503.618 463.198L498.806 442.35L497.201 442.72L495.671 443.332L503.618 463.198ZM513.33 460.957L523.474 442.118L516.375 438.296L508.519 440.108L513.33 460.957ZM532.755 471.416L553.692 475.824L556.989 460.165L542.899 452.578L532.755 471.416ZM529.766 485.612L549.57 493.713L550.304 491.918L550.704 490.019L529.766 485.612ZM523.042 502.048L503.239 493.947L502.186 496.522L501.826 499.281L523.042 502.048ZM520.801 519.232L499.585 516.464L499.06 520.486L500.044 524.421L520.801 519.232ZM524.537 534.174L503.779 539.363L505.217 545.113L509.407 549.303L524.537 534.174ZM551.433 552.104H572.829V540.653L563.301 534.302L551.433 552.104ZM551.433 570.782L572.075 576.412L572.829 573.648V570.782H551.433ZM544.709 595.437L524.066 589.807L523.852 590.595L523.697 591.396L544.709 595.437ZM540.973 614.862L552.399 632.952L560.234 628.003L561.984 618.902L540.973 614.862ZM526.778 623.827L534.09 643.935L536.255 643.148L538.204 641.917L526.778 623.827ZM388.563 667.159L369.629 657.194L366.197 663.714L367.507 670.965L388.563 667.159ZM399.769 729.17L378.714 732.975L379.905 739.564L384.64 744.299L399.769 729.17ZM475.227 801.64L460.801 817.44L466.929 823.036H475.227V801.64ZM521.548 801.64V823.036H529.225L535.15 818.156L521.548 801.64ZM585.053 749.342L598.654 765.858L599.157 765.445L599.633 765.002L585.053 749.342ZM606.719 729.17L621.299 744.83L626.307 740.167L627.68 733.463L606.719 729.17ZM619.42 667.159L640.381 671.453L642.405 661.571L636.07 653.722L619.42 667.159ZM585.053 624.574L601.703 611.137L597.894 606.416L592.174 604.398L585.053 624.574ZM521.548 602.161L528.669 581.984L525.213 580.765H521.548V602.161ZM475.227 602.161V580.765H471.603L468.18 581.958L475.227 602.161ZM410.976 624.574L403.929 604.372L395.968 607.149L392.042 614.609L410.976 624.574ZM419.194 632.792L411.965 612.654L398.777 617.388L397.845 631.369L419.194 632.792ZM417.7 655.206L396.351 653.782L395.527 666.139L405.831 673.009L417.7 655.206ZM431.148 664.171L419.279 681.974L421.489 683.447L423.993 684.335L431.148 664.171ZM454.308 672.389L462.884 652.787L462.184 652.48L461.463 652.225L454.308 672.389ZM478.216 682.849L469.64 702.451L474.426 704.545L479.639 704.198L478.216 682.849ZM523.042 679.86L524.466 701.209L525.643 701.131L526.804 700.923L523.042 679.86ZM564.881 672.389L568.642 693.452L572.515 692.761L575.889 690.736L564.881 672.389ZM583.558 661.183L594.567 679.53L604.955 673.297V661.183H583.558ZM583.558 643.999H604.955V635.136L598.688 628.87L583.558 643.999ZM521.548 614.115L526.826 593.379L524.229 592.718H521.548V614.115ZM485.687 614.115V592.718H483.361L481.09 593.218L485.687 614.115ZM448.331 622.333L443.734 601.436L442.394 601.731L441.102 602.195L448.331 622.333ZM444.075 769.017L429.484 753.367L423.032 759.383L422.694 768.197L444.075 769.017ZM443.278 789.809L457.977 805.357L464.324 799.356L464.658 790.629L443.278 789.809ZM422.818 809.151L408.119 793.603L407.528 794.162L406.981 794.764L422.818 809.151ZM360.613 863.138L351.997 882.723L363.285 887.689L373.24 880.411L360.613 863.138ZM338.406 853.369L347.022 833.784L307.7 816.485L317.583 858.291L338.406 853.369ZM345.341 866.684L344.981 888.078L344.981 888.078L345.341 866.684ZM365.83 872.174L359.213 892.522L359.748 892.696L360.292 892.842L365.83 872.174ZM439.68 817.489L453.932 833.447L454.018 833.371L454.102 833.294L439.68 817.489ZM459.901 799.037L474.323 814.842L480.036 809.629L481.095 801.968L459.901 799.037ZM462.957 776.941L484.152 779.872L485.518 769.996L478.834 762.598L462.957 776.941ZM450.438 763.084L466.315 748.741L451.745 732.612L435.848 747.434L450.438 763.084ZM399.797 834.491L412.425 851.764L414.175 850.484L415.633 848.879L399.797 834.491ZM555.879 769.522L577.26 768.703L576.922 759.888L570.47 753.873L555.879 769.522ZM556.691 790.691L535.31 791.511L535.645 800.239L541.992 806.239L556.691 790.691ZM577.521 810.384L593.358 795.996L592.811 795.395L592.22 794.836L577.521 810.384ZM640.854 865.349L628.226 882.621L638.181 889.9L649.47 884.934L640.854 865.349ZM663.463 855.402L684.285 860.325L694.168 818.519L654.847 835.818L663.463 855.402ZM656.402 868.959L656.762 890.353L656.762 890.353L656.402 868.959ZM635.542 874.549L641.08 895.216L641.623 895.071L642.158 894.897L635.542 874.549ZM619.993 870.939L606.782 887.769L606.782 887.769L619.993 870.939ZM560.354 818.872L545.931 834.677L546.016 834.754L546.101 834.831L560.354 818.872ZM539.766 800.086L518.572 803.018L519.632 810.679L525.344 815.891L539.766 800.086ZM536.655 777.59L520.778 763.247L514.094 770.645L515.46 780.521L536.655 777.59ZM549.4 763.482L563.991 747.832L548.093 733.01L533.523 749.138L549.4 763.482ZM600.959 836.183L585.123 850.57L586.581 852.175L588.332 853.455L600.959 836.183ZM446.204 639.444L451.414 632.063L416.455 607.383L411.245 614.764L446.204 639.444ZM455.331 619.723V613.162H412.538V619.723H455.331ZM454.111 606.041L448.9 591.279L408.548 605.523L413.759 620.284L454.111 606.041ZM448.503 590.24L441.059 572.199L401.501 588.52L408.945 606.561L448.503 590.24ZM440.764 571.517C440.145 570.153 438.984 567.144 438.145 563.796C437.736 562.168 437.469 560.715 437.341 559.525C437.206 558.27 437.277 557.776 437.261 557.896L394.879 551.977C393.717 560.298 395.228 568.587 396.638 574.206C398.143 580.207 400.183 585.645 401.797 589.202L440.764 571.517ZM437.261 557.896C438.659 547.88 436.015 539.026 435.616 537.121C435.331 535.759 435.484 535.99 435.437 536.755C435.411 537.18 435.337 537.635 435.215 538.062C435.158 538.263 435.1 538.424 435.053 538.54C435.007 538.654 434.977 538.711 434.979 538.706L397.161 518.682C394.473 523.758 393.044 528.921 392.725 534.138C392.422 539.08 393.18 543.258 393.732 545.894C395.008 551.985 394.969 551.332 394.879 551.977L437.261 557.896ZM434.979 538.706C438.282 532.468 441.371 522.495 443.598 514.721C446.049 506.169 448.259 497.325 449.564 491.72L407.885 482.019C406.708 487.075 404.675 495.207 402.461 502.933C401.354 506.799 400.247 510.399 399.222 513.384C398.71 514.872 398.253 516.107 397.86 517.084C397.665 517.568 397.502 517.948 397.372 518.236C397.308 518.378 397.257 518.486 397.219 518.564C397.2 518.603 397.186 518.632 397.176 518.652C397.165 518.672 397.16 518.682 397.161 518.682L434.979 538.706ZM445.966 499.539L458.621 482.317L424.136 456.978L411.482 474.2L445.966 499.539ZM461.609 476.613L469.797 452.831L429.336 438.9L421.147 462.682L461.609 476.613ZM469.437 437.929L461.249 417.427L421.508 433.299L429.696 453.801L469.437 437.929ZM460.91 416.627C456.724 407.268 450.455 393.047 445.252 380.807C442.641 374.664 440.36 369.167 438.757 365.079C437.945 363.008 437.39 361.51 437.068 360.562C436.9 360.069 436.878 359.967 436.923 360.134C436.946 360.218 437.04 360.57 437.14 361.1C437.206 361.446 437.466 362.821 437.466 364.677H394.673C394.673 368.028 395.494 370.856 395.599 371.249C395.896 372.351 396.245 373.431 396.555 374.343C397.188 376.205 398.017 378.404 398.919 380.702C400.743 385.353 403.208 391.286 405.869 397.547C411.211 410.114 417.596 424.596 421.847 434.099L460.91 416.627ZM437.466 364.677C437.466 361.745 436.804 358.426 436.614 357.415C436.25 355.479 435.757 353.127 435.205 350.599C434.092 345.512 432.615 339.161 431.115 332.863C428.121 320.287 424.921 307.423 424.126 304.36L382.704 315.102C383.398 317.78 386.525 330.338 389.486 342.775C390.965 348.984 392.371 355.036 393.399 359.738C393.917 362.106 394.308 363.995 394.56 365.333C394.986 367.596 394.673 366.584 394.673 364.677H437.466ZM424.126 304.36C424.492 305.771 424.473 306.486 424.385 305.361C424.329 304.638 424.273 303.528 424.231 301.999C424.147 298.966 424.136 295.002 424.178 290.582C424.262 281.78 424.553 271.863 424.796 265.435L382.034 263.818C381.781 270.511 381.477 280.85 381.387 290.172C381.343 294.814 381.35 299.379 381.455 303.183C381.53 305.888 381.672 311.122 382.704 315.102L424.126 304.36ZM423.031 273.173L440.896 232.169L401.665 215.076L383.8 256.08L423.031 273.173ZM439.656 234.583L473.897 177.177L437.146 155.256L402.905 212.662L439.656 234.583ZM467.619 183.864L501.116 160.902L476.92 125.606L443.424 148.568L467.619 183.864ZM506.498 155.594L516.919 140.832L481.96 116.152L471.539 130.914L506.498 155.594ZM482.375 141.4L493.541 156.162L527.67 130.346L516.504 115.585L482.375 141.4ZM499.37 161.464L536.589 184.426L559.058 148.007L521.84 125.044L499.37 161.464ZM531.055 179.506L576.548 236.912L610.086 210.333L564.593 152.927L531.055 179.506ZM572.493 228.537L582.17 269.541L623.819 259.712L614.142 218.708L572.493 228.537ZM581.64 265.963L584.617 313.528L627.326 310.855L624.349 263.29L581.64 265.963ZM585.121 307.389L572.467 362.335L614.168 371.939L626.822 316.993L585.121 307.389ZM573.525 359.01L549.618 417.236L589.203 433.49L613.11 375.264L573.525 359.01ZM550.03 416.298L540.44 436.8L579.202 454.931L588.791 434.429L550.03 416.298ZM539.977 453.867L549.567 477.649L589.254 461.646L579.664 437.863L539.977 453.867ZM553.224 483.64L568.111 500.862L600.485 472.877L585.597 455.655L553.224 483.64ZM563.171 490.253L569.87 532.078L612.124 525.31L605.425 483.485L563.171 490.253ZM569.601 528.694V554.936H612.394V528.694H569.601ZM570.307 549.484L563.608 574.907L604.988 585.811L611.687 560.389L570.307 549.484ZM564.519 572.199L557.075 590.24L596.633 606.561L604.077 588.52L564.519 572.199ZM557.75 588.767L550.306 603.529L588.515 622.796L595.959 608.035L557.75 588.767ZM548.014 613.162V619.723H590.807V613.162H548.014ZM551.931 632.063L557.142 639.444L592.101 614.764L586.89 607.383L551.931 632.063ZM564.864 608.062L532.856 624.464L552.371 662.547L584.379 646.146L564.864 608.062ZM535.827 623.214L494.142 637.155L507.715 677.739L549.4 663.797L535.827 623.214ZM505.131 636.467C498.349 635.109 487.921 632.991 478.694 631.054C474.073 630.084 469.813 629.172 466.484 628.429C462.697 627.585 461.172 627.188 461.201 627.197L448.353 668.015C451.729 669.078 461.31 671.13 469.902 672.933C479.297 674.905 489.861 677.051 496.726 678.427L505.131 636.467ZM461.201 627.197C463.131 627.804 464.176 628.511 463.723 628.24C463.569 628.149 463.124 627.866 462.338 627.306C460.781 626.197 458.709 624.59 456.31 622.635C451.55 618.756 446.368 614.214 443.081 611.24L414.367 642.968C418.028 646.281 423.788 651.334 429.276 655.807C432 658.027 434.878 660.285 437.511 662.16C439.192 663.358 443.57 666.509 448.353 668.015L461.201 627.197ZM486.117 141.433L457.726 167.638L486.751 199.083L515.142 172.877L486.117 141.433ZM453.893 172.349L435.216 203.469L471.907 225.491L490.585 194.372L453.893 172.349ZM432.915 208.862L420.215 255.541L461.506 266.776L474.207 220.097L432.915 208.862ZM419.698 257.999L412.974 303.04L455.298 309.359L462.022 264.318L419.698 257.999ZM414.67 315.079L430.359 349.474L469.292 331.715L453.603 297.32L414.67 315.079ZM431.057 350.868L446.746 379.53L484.283 358.983L468.594 330.321L431.057 350.868ZM447.775 381.219L460.476 400.054L495.956 376.13L483.255 357.295L447.775 381.219ZM457.813 394.535L471.261 437.12L512.067 424.233L498.619 381.649L457.813 394.535ZM470.465 427.775L465.982 460.532L508.38 466.334L512.863 433.577L470.465 427.775ZM467.254 455.642L458.289 478.572L498.143 494.155L507.108 471.225L467.254 455.642ZM462.933 471.388L441.267 493.499L471.832 523.449L493.498 501.338L462.933 471.388ZM435.153 508.474V534.68H477.946V508.474H435.153ZM436.532 542.237L445.498 565.985L485.532 550.872L476.567 527.123L436.532 542.237ZM454.443 576.737L476.109 589.84L498.254 553.223L476.587 540.12L454.443 576.737ZM482.706 592.455L513.338 599.006L522.288 557.16L491.656 550.609L482.706 592.455ZM529.57 595.96C533.583 593.32 539.721 589.102 545.224 584.916C547.948 582.844 550.82 580.55 553.282 578.317C554.507 577.207 555.883 575.883 557.176 574.433C558.203 573.28 560.358 570.763 561.934 567.308L523.001 549.549C523.651 548.122 524.312 547.161 524.605 546.753C524.937 546.291 525.176 546.021 525.224 545.968C525.302 545.88 525.124 546.085 524.536 546.617C523.375 547.67 521.596 549.123 519.315 550.859C514.806 554.288 509.514 557.932 506.056 560.206L529.57 595.96ZM561.934 567.309C563.791 563.237 564.723 558.157 565.182 555.606C565.808 552.132 566.373 548.187 566.854 544.548C567.339 540.878 567.776 537.236 568.12 534.41C568.296 532.965 568.443 531.769 568.566 530.823C568.707 529.745 568.762 529.424 568.746 529.512L526.648 521.831C526.316 523.653 525.944 526.746 525.64 529.243C525.284 532.175 524.88 535.545 524.431 538.939C523.978 542.362 523.516 545.532 523.068 548.021C522.843 549.27 522.658 550.138 522.527 550.67C522.329 551.478 522.426 550.809 523.001 549.549L561.934 567.309ZM568.746 529.512C569.307 526.436 569.376 522.686 569.406 520.537C569.446 517.748 569.419 514.504 569.371 511.328C569.27 504.566 569.093 498.475 569.093 494.553H526.301C526.301 498.82 526.498 506.241 526.583 511.968C526.629 515.036 526.649 517.78 526.618 519.93C526.579 522.72 526.461 522.86 526.648 521.831L568.746 529.512ZM569.093 494.553C569.093 488.367 567.369 477.702 566.235 470.249C564.804 460.836 563.864 454.03 563.864 451.149H521.071C521.071 458.096 522.745 468.896 523.929 476.682C524.597 481.077 525.213 485.082 525.671 488.52C525.897 490.221 526.065 491.638 526.173 492.774C526.227 493.336 526.261 493.775 526.281 494.105C526.301 494.448 526.301 494.582 526.301 494.553H569.093ZM563.864 451.149C563.864 446.587 563.063 441.602 562.344 437.687C561.576 433.504 560.556 428.81 559.662 424.598C557.647 415.097 556.393 408.303 556.393 404.471H513.6C513.6 413.741 516.082 425.373 517.801 433.479C518.775 438.07 519.623 441.975 520.256 445.418C520.565 447.099 520.782 448.462 520.919 449.544C521.063 450.685 521.071 451.158 521.071 451.149H563.864ZM556.393 404.471C556.393 400.127 557.149 394.894 558.613 387.368C559.97 380.396 562.029 371.043 563.599 361.145L521.335 354.439C519.917 363.376 518.24 370.811 516.609 379.193C515.085 387.023 513.6 395.712 513.6 404.471H556.393ZM563.599 361.145C566.192 344.804 571.413 331.081 575.635 321.054L536.196 304.448C531.452 315.713 524.72 333.109 521.335 354.439L563.599 361.145ZM575.635 321.054C578.89 313.324 582.569 297.969 584.864 284.238C586.064 277.055 587.038 269.436 587.373 262.541C587.654 256.746 587.753 247.795 584.808 240.264L544.953 255.847C544.25 254.048 544.909 254.72 544.63 260.466C544.405 265.114 543.697 270.956 542.656 277.183C540.469 290.272 537.424 301.532 536.196 304.448L575.635 321.054ZM584.808 240.264C582.692 234.852 579.943 226.918 576.683 217.932C573.67 209.625 570.116 200.124 566.901 193.581L528.493 212.449C530.508 216.552 533.305 223.839 536.455 232.524C539.359 240.53 542.587 249.794 544.953 255.847L584.808 240.264ZM566.901 193.581C562.878 185.392 555.1 175.905 549.057 169.077C542.742 161.943 535.698 154.806 531.4 151.273L504.225 184.329C505.904 185.709 511.187 190.857 517.013 197.439C523.111 204.328 527.286 209.992 528.493 212.449L566.901 193.581ZM531.4 151.273C524.686 145.753 514.205 140.066 510.373 138.106L490.885 176.204C492.359 176.957 495.047 178.41 497.852 180.086C500.836 181.87 503.095 183.4 504.225 184.329L531.4 151.273ZM446.343 550.873L449.331 530.4L406.987 524.219L403.999 544.692L446.343 550.873ZM446.713 537.967L459.414 515.856L422.307 494.541L409.606 516.652L446.713 537.967ZM437.355 526.306L462.009 530.4L469.02 488.186L444.366 484.091L437.355 526.306ZM471.582 529.811L485.429 525.717L473.294 484.681L459.448 488.775L471.582 529.811ZM500.758 505.199V497.009H457.965V505.199H500.758ZM500.758 497.009C500.758 492.845 499.539 489.587 499.263 488.831C498.776 487.49 498.231 486.309 497.834 485.488C497.031 483.826 496.033 482.006 495.155 480.43C493.209 476.937 491.121 473.329 488.839 469.006C484.029 459.892 480.674 451.747 480.049 446.268L437.532 451.117C439.149 465.293 446.079 479.668 450.994 488.98C453.575 493.87 456.21 498.451 457.771 501.254C458.646 502.825 459.098 503.68 459.305 504.11C459.414 504.335 459.265 504.054 459.047 503.455C459.042 503.44 457.965 500.764 457.965 497.009H500.758ZM480.049 446.268C480.332 448.749 480.108 450.794 479.865 452.141C479.615 453.522 479.264 454.614 478.993 455.344C478.47 456.754 477.919 457.686 477.706 458.034C477.262 458.755 477.06 458.906 477.41 458.524C478.051 457.824 479.315 456.682 480.857 455.686C481.586 455.215 482.235 454.87 482.76 454.639C483.294 454.404 483.547 454.355 483.517 454.361C483.367 454.39 481.52 454.651 479.33 453.418L500.313 416.123C482.757 406.246 465.307 414.789 457.643 419.737C453.018 422.724 448.957 426.234 445.862 429.611C444.345 431.267 442.672 433.311 441.249 435.627C440.545 436.771 439.628 438.425 438.872 440.462C438.249 442.14 436.959 446.089 437.532 451.117L480.049 446.268ZM479.329 453.418C481.052 454.388 491.827 460.302 503.153 452.95C508.053 449.769 510.475 445.521 511.614 442.932C512.762 440.322 513.251 437.949 513.491 436.481C514.279 431.674 514.001 425.206 513.79 419.982L471.032 421.716C471.155 424.756 471.219 426.912 471.223 428.479C471.227 430.28 471.138 430.318 471.262 429.56C471.327 429.166 471.587 427.648 472.447 425.693C473.298 423.76 475.371 419.966 479.855 417.056C490.349 410.244 500.022 415.96 500.313 416.123L479.329 453.418ZM513.398 416.687C512.952 414.434 512.573 411.45 512.132 407.997C511.94 406.491 511.709 404.69 511.462 403.169C511.341 402.424 511.156 401.365 510.891 400.254C510.758 399.699 510.54 398.85 510.208 397.874C509.959 397.144 509.251 395.12 507.804 392.876L471.839 416.065C471.081 414.889 470.594 413.873 470.316 413.245C470.022 412.58 469.82 412.024 469.693 411.65C469.447 410.927 469.315 410.388 469.269 410.194C469.176 409.806 469.165 409.677 469.222 410.028C469.331 410.697 469.471 411.746 469.684 413.417C470.054 416.316 470.625 420.985 471.423 425.012L513.398 416.687ZM507.804 392.876C502.807 385.127 494.92 381.272 490.299 379.407C484.819 377.197 478.794 375.791 473.133 375.061L467.66 417.502C468.999 417.675 470.299 417.919 471.481 418.213C472.677 418.509 473.621 418.823 474.289 419.092C475.002 419.38 475.111 419.501 474.816 419.299C474.647 419.185 474.266 418.909 473.769 418.433C473.276 417.96 472.562 417.187 471.839 416.065L507.804 392.876ZM455.178 381.241L445.466 391.068L475.902 421.149L485.614 411.322L455.178 381.241ZM443.09 393.932L426.654 417.681L461.841 442.034L478.278 418.285L443.09 393.932ZM463.487 420.496L457.51 408.212L419.031 426.935L425.008 439.219L463.487 420.496ZM457.244 407.683C456.697 406.633 456.745 406.242 456.902 407.317C456.923 407.455 457.689 411.664 455.193 416.765C453.709 419.797 451.179 422.873 447.46 425.005C443.893 427.051 440.501 427.505 438.271 427.505V384.712C434.845 384.712 430.494 385.405 426.172 387.884C421.699 390.449 418.617 394.151 416.754 397.96C413.498 404.614 414.19 410.972 414.559 413.498C415.413 419.351 417.852 424.692 419.298 427.464L457.244 407.683ZM438.271 427.505C443.884 427.505 448.209 425.509 450.274 424.433C452.684 423.176 454.731 421.704 456.273 420.487C459.377 418.038 462.346 415.093 464.821 412.455C469.864 407.079 474.799 400.874 477.856 396.762L443.512 371.233C441.09 374.491 437.209 379.342 433.61 383.179C431.764 385.147 430.457 386.348 429.766 386.893C429.411 387.173 429.681 386.91 430.489 386.489C430.953 386.247 433.853 384.712 438.271 384.712V427.505ZM464.38 405.072L483.058 401.796L475.666 359.647L456.988 362.923L464.38 405.072ZM469.82 399.873L486.256 408.062L505.34 369.76L488.903 361.571L469.82 399.873ZM509.386 364.194L503.409 359.28L476.234 392.336L482.21 397.25L509.386 364.194ZM505.628 390.229L511.605 383.677L479.991 354.836L474.015 361.388L505.628 390.229ZM514.385 379.855L518.121 373.304L480.947 352.107L477.211 358.659L514.385 379.855ZM509.373 381.705L515.699 378.429L496.019 340.43L489.694 343.706L509.373 381.705ZM498.516 583.373L485.068 588.286L499.754 628.48L513.202 623.567L498.516 583.373ZM487.164 587.64L458.027 595.011L468.521 636.497L497.658 629.126L487.164 587.64ZM464.506 594.393L436.116 592.755L433.651 635.477L462.041 637.114L464.506 594.393ZM502.412 320.188L476.662 323.464L482.062 365.914L507.812 362.639L502.412 320.188ZM467.026 327.207L455.42 335.396L480.092 370.36L491.698 362.171L467.026 327.207ZM454.566 336.031L433.647 352.41L460.027 386.104L480.947 369.725L454.566 336.031ZM429.804 356.307L414.862 375.962L448.928 401.86L463.87 382.206L429.804 356.307ZM416.088 374.49L412.353 378.585L443.966 407.426L447.702 403.332L416.088 374.49ZM447.942 384.855L437.483 359.468L397.917 375.77L408.376 401.156L447.942 384.855ZM432.13 383.417C434.097 381.62 437.813 377.939 440.845 374.836C442.404 373.241 443.993 371.585 445.252 370.209C445.848 369.557 446.578 368.743 447.242 367.933C447.537 367.573 448.119 366.852 448.728 365.956C449.011 365.538 449.601 364.647 450.203 363.459C450.332 363.205 452.544 359.212 452.544 353.697H409.752C409.752 351.972 409.961 350.534 410.168 349.502C410.38 348.45 410.638 347.574 410.859 346.919C411.285 345.649 411.748 344.677 412.032 344.115C412.594 343.006 413.125 342.211 413.332 341.907C413.786 341.238 414.14 340.814 414.143 340.81C414.223 340.712 414.113 340.85 413.682 341.321C412.887 342.19 411.673 343.461 410.244 344.924C408.841 346.359 407.345 347.86 406.035 349.152C404.662 350.507 403.694 351.433 403.27 351.821L432.13 383.417ZM452.544 353.697C452.544 355.638 452.278 357.215 452.05 358.249C451.814 359.321 451.534 360.194 451.314 360.809C450.888 362 450.445 362.891 450.207 363.348C449.729 364.265 449.309 364.887 449.217 365.024C448.985 365.368 448.901 365.456 449.167 365.118C449.643 364.51 450.379 363.622 451.417 362.375C452.337 361.27 453.516 359.859 454.5 358.624C454.992 358.007 455.585 357.247 456.15 356.464C456.434 356.07 456.804 355.543 457.19 354.937C457.508 354.439 458.185 353.351 458.833 351.931L419.899 334.171C420.454 332.956 420.985 332.124 421.111 331.926C421.306 331.62 421.439 331.438 421.446 331.427C421.46 331.408 421.347 331.563 421.033 331.957C420.406 332.743 419.577 333.738 418.537 334.987C417.614 336.095 416.435 337.51 415.487 338.719C415.04 339.289 414.367 340.165 413.724 341.12C413.426 341.562 412.845 342.445 412.257 343.573C411.964 344.135 411.479 345.119 411.024 346.389C410.673 347.37 409.752 350.089 409.752 353.697H452.544ZM458.833 351.931C458.445 352.782 458.099 353.372 457.992 353.553C457.85 353.795 457.755 353.938 457.746 353.952C457.732 353.973 457.821 353.839 458.058 353.513C458.523 352.874 459.201 351.985 460.001 350.97C460.784 349.977 461.591 348.979 462.271 348.155C463.035 347.23 463.401 346.815 463.391 346.826L431.778 317.985C430.477 319.41 428.21 322.175 426.389 324.486C425.414 325.723 424.365 327.086 423.452 328.341C423.063 328.877 421.149 331.432 419.899 334.171L458.833 351.931ZM463.391 346.826C462.833 347.437 462.403 347.825 462.334 347.888C462.207 348.003 462.158 348.041 462.226 347.984C462.365 347.869 462.663 347.629 463.153 347.252C464.119 346.509 465.411 345.555 466.803 344.554C468.18 343.563 469.539 342.609 470.603 341.88C471.14 341.512 471.548 341.239 471.816 341.063C472.293 340.751 471.965 340.985 471.316 341.341L450.749 303.815C448.579 305.004 444.349 307.992 441.814 309.815C440.217 310.964 438.521 312.211 437.058 313.336C436.268 313.944 433.676 315.904 431.778 317.985L463.391 346.826ZM471.316 341.341C471.03 341.498 470.819 341.603 470.751 341.637C470.704 341.661 470.67 341.677 470.65 341.687C470.63 341.697 470.619 341.702 470.618 341.702C470.618 341.702 470.642 341.691 470.694 341.667C470.745 341.643 470.814 341.612 470.901 341.573C471.267 341.408 471.808 341.171 472.504 340.873C473.886 340.28 475.659 339.54 477.435 338.818C479.235 338.086 480.896 337.432 482.092 336.987C482.381 336.879 482.616 336.794 482.798 336.73C482.888 336.698 482.957 336.674 483.008 336.657C483.059 336.639 483.081 336.632 483.076 336.633C483.074 336.634 483.024 336.65 482.934 336.677C482.852 336.702 482.676 336.753 482.431 336.816C482.214 336.871 481.759 336.984 481.155 337.094C480.736 337.17 479.324 337.423 477.469 337.423V294.63C474.377 294.63 471.856 295.35 471.792 295.367C471.028 295.563 470.357 295.772 469.913 295.916C468.989 296.214 468.015 296.566 467.162 296.883C465.403 297.538 463.306 298.368 461.327 299.173C458.142 300.467 452.861 302.657 450.749 303.815L471.316 341.341ZM477.469 337.423C478.694 337.423 479.688 337.313 479.866 337.294C480.249 337.254 480.586 337.21 480.814 337.179C481.28 337.115 481.761 337.04 482.176 336.973C483.031 336.835 484.084 336.652 485.199 336.455C487.449 336.056 490.308 335.532 493.077 335.021C495.886 334.503 498.598 334.001 500.674 333.625C501.718 333.435 502.527 333.291 503.07 333.199C503.201 333.176 503.302 333.159 503.378 333.147C503.458 333.134 503.487 333.129 503.477 333.131C503.471 333.132 503.442 333.136 503.395 333.143C503.352 333.149 503.264 333.161 503.145 333.176C503.042 333.189 502.819 333.216 502.526 333.242C502.358 333.258 501.605 333.328 500.629 333.328V290.536C499.63 290.536 498.843 290.608 498.632 290.627C498.297 290.658 498.021 290.691 497.855 290.712C497.519 290.753 497.224 290.797 497.04 290.825C496.651 290.884 496.234 290.954 495.863 291.017C495.096 291.148 494.111 291.324 493.038 291.519C490.881 291.91 488.065 292.431 485.32 292.937C482.536 293.451 479.816 293.949 477.733 294.319C476.681 294.505 475.879 294.643 475.348 294.728C475.071 294.773 474.976 294.786 475.005 294.782C475.014 294.781 475.166 294.76 475.402 294.735C475.432 294.732 476.315 294.63 477.469 294.63V337.423ZM500.629 333.328C504.191 333.328 507.009 332.389 507.21 332.327C508.123 332.049 508.895 331.756 509.386 331.563C510.409 331.158 511.396 330.711 512.185 330.336C513.521 329.701 515.741 328.585 517.616 327.352L494.102 291.599C494.581 291.283 494.788 291.188 494.502 291.341C494.32 291.439 494.067 291.567 493.818 291.685C493.53 291.822 493.48 291.835 493.661 291.764C493.73 291.737 494.13 291.578 494.738 291.393C495.044 291.3 495.616 291.134 496.366 290.976C496.751 290.895 497.285 290.794 497.929 290.71C498.546 290.63 499.482 290.536 500.629 290.536V333.328ZM505.859 320.017H505.112V362.81H505.859V320.017ZM494.935 239.485L477.005 250.131L498.852 286.927L516.782 276.281L494.935 239.485ZM477.873 249.642L451.724 263.564L471.835 301.337L497.983 287.415L477.873 249.642ZM445.086 269.067L423.419 296.091L456.807 322.859L478.473 295.834L445.086 269.067ZM423.978 295.424L408.288 313.44L440.559 341.543L456.249 323.527L423.978 295.424ZM404.068 320.902L395.849 346.288L436.562 359.468L444.78 334.081L404.068 320.902ZM416.206 331.482H414.711V374.275H416.206V331.482ZM435.613 348.302C434.871 344.913 433.76 339.798 432.837 335.465C432.374 333.29 431.97 331.365 431.687 329.969C431.542 329.259 431.447 328.77 431.394 328.486C431.364 328.33 431.37 328.348 431.389 328.472C431.398 328.526 431.431 328.735 431.468 329.029C431.469 329.033 431.625 330.156 431.625 331.586H388.832C388.832 333.057 388.995 334.247 389.007 334.342C389.055 334.728 389.105 335.052 389.136 335.245C389.2 335.646 389.271 336.035 389.327 336.333C389.443 336.956 389.592 337.707 389.751 338.49C390.075 340.082 390.511 342.16 390.982 344.373C391.928 348.816 393.058 354.019 393.81 357.455L435.613 348.302ZM431.625 331.586C431.625 329.569 431.324 327.946 431.291 327.756C431.194 327.194 431.091 326.714 431.023 326.413C430.884 325.791 430.728 325.175 430.601 324.688C430.335 323.675 430.002 322.485 429.675 321.345C429.011 319.031 428.229 316.418 427.711 314.715L386.77 327.165C387.248 328.738 387.96 331.12 388.541 333.146C388.837 334.177 389.064 334.993 389.203 335.526C389.278 335.811 389.285 335.854 389.259 335.737C389.248 335.689 389.189 335.424 389.121 335.033C389.087 334.835 389.03 334.482 388.976 334.029C388.932 333.664 388.832 332.758 388.832 331.586H431.625ZM425.069 332.769L437.023 314.753L401.365 291.094L389.411 309.111L425.069 332.769ZM435.52 316.754L445.232 305.289L412.581 277.629L402.868 289.094L435.52 316.754ZM443.09 307.479C447.764 303.34 453.6 296.524 457.591 291.659C459.754 289.021 461.745 286.5 463.249 284.519C463.982 283.554 464.71 282.57 465.316 281.701C465.592 281.304 466.027 280.669 466.465 279.95C466.662 279.627 467.085 278.919 467.528 278.009C467.745 277.564 468.139 276.722 468.522 275.626C468.755 274.959 469.728 272.204 469.728 268.529H426.935C426.935 266.467 427.236 264.831 427.446 263.889C427.672 262.875 427.932 262.06 428.122 261.516C428.492 260.456 428.868 259.657 429.06 259.263C429.454 258.454 429.804 257.878 429.904 257.713C430.148 257.311 430.299 257.104 430.209 257.233C430.081 257.416 429.747 257.877 429.165 258.645C428.038 260.129 426.387 262.224 424.504 264.521C422.62 266.817 420.607 269.189 418.75 271.258C416.78 273.453 415.408 274.833 414.723 275.439L443.09 307.479ZM469.728 268.529C469.728 272.193 468.783 274.984 468.228 276.384C467.617 277.923 466.947 279.082 466.523 279.762C465.69 281.098 464.899 282.024 464.582 282.387C463.888 283.183 463.332 283.685 463.279 283.733C463.061 283.932 463.087 283.893 463.554 283.522C464.392 282.857 465.779 281.812 467.572 280.518C471.163 277.928 475.573 274.924 478.986 272.82L456.527 236.394C451.97 239.204 446.668 242.833 442.538 245.812C440.472 247.303 438.497 248.775 436.938 250.014C436.206 250.595 435.275 251.354 434.4 252.155C434.018 252.504 433.207 253.257 432.342 254.25C431.939 254.711 431.082 255.722 430.206 257.128C429.89 257.636 426.935 262.081 426.935 268.529H469.728ZM484.191 268.307L495.796 254.386L462.927 226.985L451.321 240.907L484.191 268.307ZM494.559 255.746L508.356 241.824L477.96 211.703L464.164 225.624L494.559 255.746ZM500.878 246.719L513.579 241.805L498.139 201.895L485.438 206.809L500.878 246.719ZM456.092 616.945L459.479 591.559L417.062 585.899L413.675 611.286L456.092 616.945ZM458.649 582.209L445.55 541.263L404.792 554.302L417.892 595.249L458.649 582.209ZM507.425 406.872L513.751 402.778L490.496 366.855L484.171 370.95L507.425 406.872ZM513.751 366.855L507.425 362.76L484.171 398.683L490.496 402.778L513.751 366.855ZM607.719 544.692L604.73 524.219L562.387 530.4L565.375 550.873L607.719 544.692ZM602.112 516.652L589.411 494.541L552.304 515.856L565.005 537.967L602.112 516.652ZM567.352 484.091L542.697 488.186L549.708 530.4L574.363 526.306L567.352 484.091ZM552.27 488.775L538.424 484.681L526.289 525.717L540.136 529.811L552.27 488.775ZM553.752 505.199V497.009H510.96V505.199H553.752ZM553.752 497.009C553.752 500.843 552.636 503.568 552.594 503.68C552.346 504.342 552.164 504.676 552.26 504.486C552.444 504.12 552.871 503.344 553.759 501.816C555.341 499.091 557.989 494.662 560.629 489.77C565.713 480.352 572.621 465.985 574.206 450.933L531.648 446.453C530.991 452.692 527.614 460.846 522.973 469.444C520.751 473.56 518.676 477.014 516.752 480.328C515.886 481.82 514.863 483.603 514.036 485.246C513.626 486.061 513.049 487.261 512.531 488.641C512.219 489.471 510.96 492.766 510.96 497.009H553.752ZM574.206 450.933C574.73 445.949 573.436 442.046 572.814 440.388C572.058 438.372 571.144 436.733 570.442 435.595C569.023 433.294 567.355 431.258 565.839 429.605C562.748 426.234 558.691 422.725 554.067 419.738C546.405 414.788 528.961 406.246 511.405 416.123L532.388 453.418C530.201 454.649 528.352 454.391 528.196 454.36C528.163 454.354 528.415 454.403 528.947 454.637C529.47 454.867 530.117 455.211 530.846 455.682C532.387 456.677 533.653 457.821 534.3 458.527C534.653 458.912 534.459 458.77 534.022 458.063C533.812 457.722 533.268 456.806 532.747 455.417C532.478 454.698 532.127 453.623 531.873 452.26C531.625 450.933 531.389 448.912 531.648 446.453L574.206 450.933ZM511.405 416.123C511.696 415.96 521.369 410.244 531.863 417.056C536.347 419.966 538.42 423.76 539.271 425.693C540.131 427.648 540.391 429.166 540.456 429.56C540.58 430.318 540.491 430.28 540.495 428.479C540.498 426.912 540.562 424.756 540.686 421.716L497.928 419.982C497.716 425.206 497.439 431.674 498.227 436.481C498.467 437.949 498.955 440.322 500.104 442.932C501.243 445.521 503.665 449.769 508.565 452.95C519.891 460.302 530.666 454.388 532.388 453.418L511.405 416.123ZM540.294 425.012C541.093 420.985 541.664 416.316 542.034 413.417C542.247 411.746 542.387 410.697 542.496 410.028C542.553 409.677 542.542 409.806 542.449 410.194C542.403 410.388 542.271 410.927 542.025 411.65C541.898 412.024 541.695 412.58 541.401 413.245C541.124 413.873 540.637 414.889 539.879 416.065L503.914 392.876C502.467 395.12 501.758 397.144 501.51 397.874C501.178 398.85 500.96 399.699 500.827 400.254C500.562 401.365 500.377 402.424 500.256 403.169C500.009 404.69 499.778 406.491 499.586 407.997C499.145 411.45 498.766 414.434 498.319 416.687L540.294 425.012ZM539.879 416.065C539.156 417.187 538.442 417.96 537.949 418.433C537.452 418.909 537.07 419.185 536.902 419.299C536.606 419.501 536.715 419.38 537.429 419.092C538.097 418.823 539.041 418.509 540.237 418.213C541.419 417.919 542.719 417.675 544.058 417.502L538.585 375.061C532.924 375.791 526.899 377.197 521.419 379.407C516.798 381.272 508.911 385.127 503.914 392.876L539.879 416.065ZM526.103 411.322L535.816 421.149L566.252 391.068L556.539 381.241L526.103 411.322ZM533.44 418.285L549.877 442.034L585.064 417.681L568.628 393.932L533.44 418.285ZM586.71 439.219L592.687 426.935L554.208 408.212L548.231 420.496L586.71 439.219ZM592.42 427.464C593.866 424.692 596.305 419.351 597.159 413.498C597.528 410.972 598.22 404.614 594.964 397.96C593.101 394.151 590.019 390.449 585.546 387.884C581.224 385.405 576.873 384.712 573.447 384.712V427.505C571.217 427.505 567.825 427.051 564.257 425.005C560.539 422.873 558.009 419.797 556.525 416.765C554.029 411.664 554.795 407.455 554.815 407.317C554.972 406.242 555.021 406.633 554.474 407.683L592.42 427.464ZM573.447 384.712C577.865 384.712 580.765 386.247 581.229 386.489C582.037 386.91 582.307 387.173 581.952 386.893C581.261 386.348 579.954 385.147 578.108 383.179C574.509 379.342 570.628 374.491 568.206 371.233L533.862 396.762C536.919 400.874 541.854 407.079 546.896 412.455C549.371 415.093 552.341 418.038 555.445 420.487C556.987 421.704 559.034 423.176 561.444 424.433C563.508 425.509 567.834 427.505 573.447 427.505V384.712ZM554.73 362.923L536.052 359.647L528.66 401.796L547.338 405.072L554.73 362.923ZM522.814 361.571L506.378 369.76L525.461 408.062L541.898 399.873L522.814 361.571ZM529.507 397.25L535.484 392.336L508.309 359.28L502.332 364.194L529.507 397.25ZM537.703 361.388L531.726 354.836L500.113 383.677L506.09 390.229L537.703 361.388ZM534.507 358.659L530.771 352.107L493.597 373.304L497.333 379.855L534.507 358.659ZM522.024 343.706L515.698 340.43L496.019 378.429L502.345 381.705L522.024 343.706ZM498.516 623.567L511.964 628.48L526.65 588.286L513.202 583.373L498.516 623.567ZM514.06 629.126L543.197 636.497L553.691 595.011L524.554 587.64L514.06 629.126ZM545.857 636.993L566.029 639.45L571.203 596.971L551.031 594.514L545.857 636.993ZM503.906 362.639L529.656 365.914L535.056 323.464L509.306 320.188L503.906 362.639ZM520.02 362.171L531.625 370.36L556.298 335.396L544.692 327.207L520.02 362.171ZM530.771 369.725L551.69 386.104L578.071 352.41L557.152 336.031L530.771 369.725ZM547.848 382.206L562.79 401.86L596.856 375.962L581.914 356.307L547.848 382.206ZM564.016 403.332L567.752 407.426L599.365 378.585L595.63 374.49L564.016 403.332ZM603.341 401.156L613.801 375.77L574.235 359.468L563.775 384.855L603.341 401.156ZM608.448 351.821C608.024 351.433 607.056 350.507 605.682 349.152C604.373 347.86 602.877 346.359 601.474 344.924C600.045 343.461 598.831 342.19 598.036 341.321C597.605 340.85 597.495 340.712 597.575 340.81C597.578 340.814 597.932 341.238 598.386 341.907C598.592 342.211 599.124 343.006 599.686 344.115C599.97 344.677 600.433 345.649 600.859 346.919C601.079 347.574 601.338 348.45 601.55 349.502C601.757 350.534 601.966 351.972 601.966 353.697H559.174C559.174 359.212 561.386 363.205 561.514 363.459C562.116 364.647 562.707 365.538 562.99 365.956C563.599 366.852 564.181 367.573 564.476 367.933C565.14 368.743 565.87 369.557 566.466 370.209C567.725 371.585 569.314 373.241 570.873 374.836C573.905 377.939 577.62 381.62 579.588 383.417L608.448 351.821ZM601.966 353.697C601.966 350.088 601.044 347.37 600.694 346.389C600.239 345.119 599.754 344.135 599.461 343.573C598.873 342.445 598.292 341.562 597.994 341.12C597.351 340.165 596.678 339.289 596.231 338.719C595.283 337.51 594.104 336.095 593.181 334.987C592.14 333.738 591.311 332.743 590.685 331.957C590.371 331.563 590.258 331.408 590.271 331.427C590.279 331.438 590.412 331.62 590.607 331.926C590.733 332.124 591.264 332.956 591.818 334.171L552.885 351.931C553.533 353.351 554.21 354.439 554.527 354.937C554.914 355.543 555.284 356.07 555.568 356.464C556.133 357.247 556.726 358.007 557.218 358.624C558.202 359.859 559.381 361.27 560.301 362.375C561.339 363.622 562.075 364.51 562.551 365.118C562.817 365.456 562.733 365.368 562.501 365.024C562.409 364.887 561.989 364.265 561.511 363.348C561.273 362.891 560.83 362 560.404 360.809C560.184 360.194 559.904 359.321 559.668 358.249C559.44 357.215 559.174 355.638 559.174 353.697H601.966ZM591.818 334.171C590.569 331.432 588.655 328.877 588.266 328.341C587.353 327.086 586.304 325.723 585.329 324.486C583.508 322.175 581.24 319.41 579.94 317.985L548.327 346.826C548.317 346.815 548.682 347.23 549.447 348.155C550.127 348.979 550.934 349.977 551.716 350.97C552.516 351.985 553.195 352.874 553.66 353.513C553.897 353.839 553.986 353.973 553.971 353.952C553.963 353.938 553.868 353.795 553.726 353.553C553.619 353.372 553.273 352.782 552.885 351.931L591.818 334.171ZM579.94 317.985C578.042 315.904 575.449 313.944 574.659 313.336C573.197 312.211 571.501 310.964 569.904 309.815C567.369 307.992 563.139 305.004 560.969 303.815L540.402 341.341C539.753 340.985 539.425 340.751 539.902 341.063C540.17 341.239 540.578 341.512 541.114 341.88C542.179 342.609 543.538 343.563 544.915 344.554C546.307 345.555 547.599 346.509 548.565 347.252C549.055 347.629 549.353 347.869 549.492 347.984C549.56 348.041 549.511 348.003 549.384 347.888C549.315 347.825 548.885 347.437 548.327 346.826L579.94 317.985ZM560.969 303.815C558.857 302.657 553.576 300.467 550.391 299.173C548.412 298.368 546.315 297.538 544.556 296.883C543.703 296.566 542.729 296.214 541.805 295.916C541.361 295.772 540.69 295.563 539.925 295.367C539.861 295.35 537.341 294.63 534.249 294.63V337.423C532.394 337.423 530.982 337.17 530.563 337.094C529.959 336.984 529.504 336.871 529.287 336.816C529.042 336.753 528.866 336.702 528.784 336.677C528.694 336.65 528.644 336.634 528.642 336.633C528.637 336.632 528.659 336.639 528.71 336.657C528.761 336.674 528.83 336.698 528.92 336.73C529.102 336.794 529.337 336.879 529.625 336.987C530.822 337.432 532.483 338.086 534.283 338.818C536.059 339.54 537.832 340.28 539.214 340.873C539.91 341.171 540.451 341.408 540.817 341.573C540.904 341.612 540.973 341.643 541.024 341.667C541.076 341.691 541.1 341.702 541.1 341.702C541.099 341.702 541.088 341.697 541.068 341.687C541.048 341.677 541.014 341.661 540.967 341.637C540.898 341.603 540.688 341.498 540.402 341.341L560.969 303.815ZM534.249 294.63C535.403 294.63 536.286 294.732 536.316 294.735C536.552 294.76 536.703 294.781 536.713 294.782C536.742 294.786 536.647 294.773 536.37 294.728C535.839 294.643 535.037 294.505 533.985 294.319C531.902 293.949 529.182 293.451 526.398 292.937C523.653 292.431 520.836 291.91 518.679 291.519C517.607 291.324 516.622 291.148 515.855 291.017C515.484 290.954 515.067 290.884 514.678 290.825C514.494 290.797 514.199 290.753 513.863 290.712C513.697 290.691 513.421 290.658 513.086 290.627C512.874 290.608 512.088 290.536 511.089 290.536V333.328C510.113 333.328 509.36 333.258 509.192 333.242C508.899 333.216 508.676 333.189 508.572 333.176C508.453 333.161 508.366 333.149 508.322 333.143C508.276 333.136 508.247 333.132 508.241 333.131C508.231 333.129 508.26 333.134 508.34 333.147C508.416 333.159 508.517 333.176 508.648 333.199C509.191 333.291 510 333.435 511.044 333.625C513.12 334.001 515.832 334.503 518.641 335.021C521.41 335.532 524.269 336.056 526.519 336.455C527.634 336.652 528.687 336.835 529.541 336.973C529.957 337.04 530.437 337.115 530.904 337.179C531.132 337.21 531.469 337.254 531.852 337.294C532.029 337.313 533.024 337.423 534.249 337.423V294.63ZM511.089 290.536C512.236 290.536 513.172 290.63 513.789 290.71C514.433 290.794 514.967 290.895 515.352 290.976C516.101 291.134 516.674 291.3 516.979 291.393C517.588 291.578 517.988 291.736 518.057 291.764C518.238 291.835 518.188 291.822 517.9 291.685C517.651 291.567 517.398 291.439 517.215 291.341C516.93 291.188 517.136 291.283 517.616 291.599L494.102 327.352C495.977 328.585 498.197 329.701 499.533 330.336C500.322 330.711 501.309 331.158 502.332 331.563C502.822 331.756 503.595 332.049 504.508 332.327C504.709 332.389 507.527 333.328 511.089 333.328V290.536ZM505.859 362.81H506.606V320.017H505.859V362.81ZM494.935 276.281L512.866 286.927L534.713 250.131L516.782 239.485L494.935 276.281ZM513.734 287.415L539.883 301.337L559.994 263.564L533.845 249.642L513.734 287.415ZM533.245 295.834L554.911 322.859L588.298 296.091L566.632 269.067L533.245 295.834ZM555.469 323.527L571.158 341.543L603.43 313.44L587.74 295.424L555.469 323.527ZM566.938 334.081L575.156 359.468L615.868 346.288L607.65 320.902L566.938 334.081ZM595.512 374.275H597.006V331.482H595.512V374.275ZM617.908 357.455C618.66 354.019 619.79 348.816 620.736 344.373C621.207 342.16 621.643 340.082 621.967 338.49C622.126 337.707 622.275 336.956 622.391 336.333C622.447 336.035 622.518 335.646 622.582 335.245C622.613 335.052 622.663 334.728 622.711 334.342C622.723 334.247 622.885 333.057 622.885 331.586H580.093C580.093 330.156 580.249 329.033 580.25 329.029C580.287 328.735 580.32 328.526 580.329 328.472C580.348 328.348 580.353 328.33 580.324 328.486C580.271 328.77 580.175 329.258 580.031 329.969C579.747 331.365 579.343 333.29 578.881 335.465C577.958 339.798 576.847 344.913 576.105 348.302L617.908 357.455ZM622.885 331.586C622.885 332.758 622.785 333.664 622.742 334.029C622.688 334.482 622.631 334.835 622.596 335.033C622.529 335.424 622.47 335.689 622.459 335.737C622.433 335.854 622.44 335.811 622.515 335.526C622.654 334.993 622.881 334.177 623.176 333.146C623.758 331.12 624.47 328.738 624.948 327.165L584.007 314.715C583.489 316.418 582.707 319.031 582.043 321.346C581.716 322.485 581.383 323.675 581.117 324.688C580.99 325.175 580.833 325.791 580.694 326.413C580.627 326.714 580.524 327.194 580.427 327.756C580.394 327.946 580.093 329.569 580.093 331.586H622.885ZM622.306 309.111L610.353 291.094L574.695 314.753L586.649 332.769L622.306 309.111ZM608.85 289.094L599.137 277.629L566.486 305.289L576.198 316.754L608.85 289.094ZM596.994 275.439C596.31 274.833 594.938 273.453 592.968 271.258C591.111 269.189 589.097 266.817 587.214 264.521C585.331 262.224 583.68 260.129 582.553 258.645C581.971 257.877 581.637 257.416 581.509 257.233C581.419 257.104 581.569 257.311 581.814 257.713C581.914 257.878 582.264 258.454 582.658 259.263C582.85 259.657 583.225 260.456 583.596 261.516C583.786 262.06 584.046 262.875 584.272 263.889C584.482 264.831 584.783 266.467 584.783 268.529H541.99C541.99 272.204 542.963 274.959 543.196 275.626C543.579 276.722 543.973 277.564 544.19 278.009C544.633 278.919 545.056 279.627 545.253 279.95C545.69 280.669 546.125 281.304 546.402 281.701C547.008 282.57 547.736 283.554 548.469 284.519C549.973 286.5 551.964 289.021 554.127 291.659C558.118 296.524 563.954 303.34 568.628 307.479L596.994 275.439ZM584.783 268.529C584.783 262.081 581.828 257.636 581.512 257.128C580.635 255.722 579.779 254.711 579.376 254.249C578.51 253.257 577.7 252.504 577.318 252.155C576.443 251.354 575.512 250.595 574.78 250.014C573.221 248.775 571.246 247.303 569.18 245.812C565.05 242.833 559.748 239.204 555.191 236.394L532.732 272.82C536.144 274.924 540.555 277.928 544.145 280.518C545.939 281.812 547.326 282.857 548.164 283.522C548.631 283.893 548.657 283.932 548.439 283.733C548.386 283.685 547.83 283.183 547.136 282.387C546.819 282.024 546.027 281.098 545.195 279.762C544.771 279.082 544.101 277.924 543.49 276.384C542.935 274.984 541.99 272.193 541.99 268.529H584.783ZM560.396 240.907L548.791 226.985L515.921 254.386L527.527 268.307L560.396 240.907ZM547.554 225.624L533.758 211.703L503.362 241.824L517.158 255.746L547.554 225.624ZM526.28 206.808L513.579 201.895L498.139 241.805L510.84 246.719L526.28 206.808ZM589.731 621.67L594.562 592.189L552.333 585.269L547.502 614.75L589.731 621.67ZM593.826 595.249L606.926 554.302L566.168 541.263L553.068 582.209L593.826 595.249ZM528.581 371.663L523.003 367.568L497.68 402.064L503.259 406.159L528.581 371.663ZM523.003 402.065L528.581 397.97L503.259 363.474L497.681 367.568L523.003 402.065ZM490.297 594.965L481.332 574.793L442.227 592.173L451.193 612.345L490.297 594.965ZM483.176 583.483V566.3H440.383V583.483H483.176ZM480.563 576.545L489.528 560.109L451.961 539.617L442.996 556.054L480.563 576.545ZM479.525 569.375L494.467 562.651L476.907 523.627L461.964 530.351L479.525 569.375ZM505.931 550.065L515.644 521.675L475.155 507.823L465.443 536.213L505.931 550.065ZM516.581 511.723L513.592 490.804L471.23 496.856L474.218 517.775L516.581 511.723ZM509.604 481.094L494.662 460.922L460.276 486.393L475.218 506.565L509.604 481.094ZM485.415 493.524L511.564 483.064L495.671 443.332L469.522 453.792L485.415 493.524ZM508.429 484.047L518.141 481.805L508.519 440.108L498.806 442.35L508.429 484.047ZM503.186 479.796L522.611 490.255L542.899 452.578L523.474 442.118L503.186 479.796ZM511.818 467.009L508.829 481.204L550.704 490.019L553.692 475.824L511.818 467.009ZM509.963 477.51L503.239 493.947L542.846 510.149L549.57 493.713L509.963 477.51ZM501.826 499.281L499.585 516.464L542.018 521.999L544.259 504.815L501.826 499.281ZM500.044 524.421L503.779 539.363L545.294 528.984L541.559 514.042L500.044 524.421ZM509.407 549.303C511.17 551.066 513.968 553.739 516.755 556.1C518.104 557.244 519.854 558.659 521.703 559.904C522.606 560.513 523.97 561.379 525.621 562.171C526.668 562.672 530.55 564.535 535.743 564.535V521.743C538.435 521.743 540.503 522.273 541.583 522.601C542.756 522.958 543.629 523.348 544.118 523.582C545.063 524.035 545.607 524.411 545.609 524.412C545.656 524.444 545.276 524.178 544.422 523.454C542.8 522.08 540.892 520.27 539.666 519.044L509.407 549.303ZM535.743 564.535C534.372 564.535 533.257 564.398 532.52 564.279C531.756 564.155 531.136 564.008 530.703 563.894C529.867 563.673 529.274 563.452 529.032 563.358C528.553 563.173 528.393 563.076 528.693 563.227C529.243 563.505 530.235 564.053 531.636 564.887C534.364 566.511 537.516 568.542 539.564 569.907L563.301 534.302C560.867 532.679 557.07 530.227 553.523 528.115C551.786 527.081 549.808 525.949 547.949 525.012C547.044 524.556 545.819 523.969 544.465 523.445C543.953 523.247 540.321 521.743 535.743 521.743V564.535ZM530.036 552.104V570.782H572.829V552.104H530.036ZM530.79 565.152L524.066 589.807L565.351 601.067L572.075 576.412L530.79 565.152ZM523.697 591.396L519.962 610.821L561.984 618.902L565.72 599.477L523.697 591.396ZM529.548 596.771L515.353 605.737L538.204 641.917L552.399 632.952L529.548 596.771ZM519.466 603.719C516.09 604.947 510.698 606.605 505.938 607.531C503.519 608.002 501.969 608.141 501.259 608.147C500.927 608.149 501.262 608.115 502.053 608.269C502.747 608.405 504.827 608.88 507.268 610.507L483.531 646.113C490.47 650.738 498.116 650.963 501.573 650.938C505.967 650.906 510.384 650.261 514.11 649.536C521.64 648.072 529.248 645.696 534.09 643.935L519.466 603.719ZM507.268 610.507C507.471 610.642 506.703 610.099 504.707 608.238C502.958 606.609 500.87 604.538 498.63 602.237C494.159 597.642 489.562 592.619 486.737 589.44L454.753 617.87C457.904 621.415 462.945 626.926 467.962 632.082C472.318 636.557 478.597 642.823 483.531 646.113L507.268 610.507ZM367.507 670.965L378.714 732.975L420.824 725.365L409.618 663.354L367.507 670.965ZM384.64 744.299C389.863 749.522 400.024 759.854 402.949 763.266L435.439 735.417C431.192 730.462 419.637 718.779 414.899 714.04L384.64 744.299ZM402.949 763.266C404.746 765.363 408.649 769.108 412.312 772.587C416.479 776.544 421.829 781.544 427.557 786.86C439.025 797.502 452.182 809.571 460.801 817.44L489.654 785.839C481.089 778.018 468.022 766.031 456.666 755.492C450.982 750.218 445.77 745.347 441.779 741.557C437.285 737.289 435.435 735.412 435.439 735.417L402.949 763.266ZM475.227 823.036H521.548V780.243H475.227V823.036ZM535.15 818.156L598.654 765.858L571.451 732.825L507.946 785.123L535.15 818.156ZM599.633 765.002L621.299 744.83L592.139 713.51L570.473 733.682L599.633 765.002ZM627.68 733.463L640.381 671.453L598.459 662.866L585.758 724.876L627.68 733.463ZM636.07 653.722L601.703 611.137L568.402 638.011L602.769 680.597L636.07 653.722ZM592.174 604.398L528.669 581.984L514.427 622.337L577.932 644.751L592.174 604.398ZM521.548 580.765H475.227V623.557H521.548V580.765ZM468.18 581.958L403.929 604.372L418.023 644.777L482.275 622.363L468.18 581.958ZM392.042 614.609L369.629 657.194L407.497 677.125L429.91 634.539L392.042 614.609ZM397.845 631.369L396.351 653.782L439.049 656.629L440.543 634.216L397.845 631.369ZM405.831 673.009L419.279 681.974L443.016 646.368L429.568 637.403L405.831 673.009ZM423.993 684.335L447.153 692.554L461.463 652.225L438.303 644.007L423.993 684.335ZM445.732 691.992L469.64 702.451L486.792 663.246L462.884 652.787L445.732 691.992ZM479.639 704.198L524.466 701.209L521.619 658.511L476.793 661.5L479.639 704.198ZM526.804 700.923L568.642 693.452L561.119 651.326L519.281 658.797L526.804 700.923ZM575.889 690.736L594.567 679.53L572.55 642.835L553.872 654.042L575.889 690.736ZM604.955 661.183V643.999H562.162V661.183H604.955ZM598.688 628.87C595.9 626.082 591.598 621.818 587.736 618.071C585.815 616.207 583.927 614.397 582.359 612.938C581.505 612.144 578.984 609.755 576.749 608.266L553.012 643.871C551.904 643.132 551.29 642.539 551.875 643.052C552.141 643.285 552.58 643.682 553.211 644.269C554.458 645.429 556.099 647 557.938 648.784C561.598 652.334 565.738 656.438 568.429 659.129L598.688 628.87ZM576.749 608.266C574.483 606.755 572.251 605.931 572.053 605.853C571.263 605.544 570.479 605.272 569.835 605.057C568.516 604.617 566.943 604.138 565.314 603.659C562.01 602.688 557.755 601.509 553.258 600.295C544.227 597.855 533.735 595.138 526.826 593.379L516.27 634.85C523.059 636.578 533.336 639.24 542.099 641.607C546.498 642.795 550.396 643.877 553.245 644.714C554.692 645.14 555.696 645.452 556.297 645.652C556.612 645.757 556.623 645.768 556.445 645.698C556.357 645.663 556.062 645.547 555.649 645.356C555.391 645.236 554.314 644.739 553.012 643.871L576.749 608.266ZM521.548 592.718H485.687V635.511H521.548V592.718ZM481.09 593.218L443.734 601.436L452.929 643.229L490.284 635.011L481.09 593.218ZM441.102 602.195L411.965 612.654L426.423 652.93L455.56 642.471L441.102 602.195ZM422.694 768.197L421.897 788.989L464.658 790.629L465.455 769.837L422.694 768.197ZM428.578 774.261L408.119 793.603L437.517 824.699L457.977 805.357L428.578 774.261ZM369.229 843.553L347.022 833.784L329.79 872.954L351.997 882.723L369.229 843.553ZM317.583 858.291C318.292 861.287 319.628 865.951 321.55 870.305C322.464 872.375 323.984 875.477 326.292 878.417C327.809 880.348 333.978 887.893 344.981 888.078L345.7 845.291C350.644 845.374 354.297 847.245 356.345 848.655C358.329 850.021 359.485 851.399 359.949 851.989C360.835 853.118 361.007 853.723 360.698 853.023C360.174 851.836 359.564 849.868 359.228 848.446L317.583 858.291ZM344.981 888.078C343.712 888.056 342.956 887.899 343.244 887.948C343.337 887.964 343.65 888.024 344.233 888.158C345.392 888.425 346.972 888.839 348.838 889.365C352.541 890.408 356.622 891.679 359.213 892.522L372.446 851.827C369.475 850.861 364.832 849.412 360.442 848.176C358.261 847.561 355.952 846.945 353.853 846.461C352.424 846.131 349.027 845.347 345.7 845.291L344.981 888.078ZM360.292 892.842C359.444 892.614 358.806 892.384 358.689 892.342C358.575 892.301 358.489 892.269 358.445 892.253C358.4 892.236 358.37 892.224 358.369 892.224C358.321 892.206 358.625 892.323 358.9 892.424C359.558 892.667 360.517 892.997 361.705 893.316C364.093 893.956 367.189 894.488 370.845 894.416C378.518 894.265 386.609 891.506 394.313 885.459L367.891 851.798C367.288 852.271 367.206 852.205 367.686 852.027C368.187 851.841 368.982 851.651 370.003 851.631C371.003 851.612 371.95 851.759 372.78 851.981C373.189 852.091 373.515 852.204 373.699 852.272C373.737 852.286 373.843 852.326 373.638 852.248C373.584 852.228 373.37 852.145 373.113 852.053C372.975 852.004 372.764 851.93 372.507 851.846C372.263 851.766 371.864 851.64 371.367 851.507L360.292 892.842ZM394.313 885.459C403.705 878.086 438.37 847.346 453.932 833.447L425.427 801.53C409.192 816.03 375.909 845.503 367.891 851.798L394.313 885.459ZM454.102 833.294L474.323 814.842L445.478 783.232L425.258 801.684L454.102 833.294ZM481.095 801.968L484.152 779.872L441.762 774.009L438.706 796.105L481.095 801.968ZM478.834 762.598L466.315 748.741L434.562 777.427L447.08 791.284L478.834 762.598ZM435.848 747.434L429.484 753.367L458.666 784.667L465.029 778.733L435.848 747.434ZM406.981 794.764L383.96 820.103L415.633 848.879L438.655 823.539L406.981 794.764ZM387.169 817.218L347.985 845.866L373.24 880.411L412.425 851.764L387.169 817.218ZM534.499 770.342L535.31 791.511L578.071 789.871L577.26 768.703L534.499 770.342ZM541.992 806.239L562.822 825.932L592.22 794.836L571.39 775.143L541.992 806.239ZM649.47 884.934L672.079 874.987L654.847 835.818L632.238 845.764L649.47 884.934ZM642.64 850.48C642.295 851.942 641.667 853.97 641.121 855.207C640.801 855.932 640.961 855.35 641.834 854.238C642.292 853.655 643.442 852.284 645.418 850.923C647.46 849.517 651.105 847.649 656.042 847.566L656.762 890.353C667.779 890.167 673.962 882.613 675.491 880.666C677.812 877.709 679.344 874.585 680.269 872.489C682.213 868.085 683.568 863.361 684.285 860.325L642.64 850.48ZM656.043 847.566C652.702 847.622 649.281 848.411 647.823 848.747C645.695 849.238 643.35 849.864 641.133 850.488C636.669 851.746 631.947 853.219 628.926 854.201L642.158 894.897C644.8 894.038 648.96 892.742 652.736 891.678C654.639 891.142 656.254 890.719 657.443 890.444C658.04 890.307 658.367 890.244 658.471 890.226C658.77 890.175 658.024 890.331 656.762 890.353L656.043 847.566ZM630.004 853.882C629.508 854.015 629.109 854.141 628.864 854.221C628.607 854.305 628.396 854.379 628.257 854.428C628 854.521 627.785 854.603 627.73 854.624C627.524 854.703 627.628 854.663 627.664 854.65C627.844 854.583 628.164 854.472 628.566 854.364C629.382 854.146 630.309 854.002 631.285 854.021C632.282 854.041 633.049 854.226 633.518 854.4C633.965 854.566 633.846 854.612 633.204 854.108L606.782 887.769C614.565 893.878 622.723 896.654 630.444 896.806C634.124 896.878 637.239 896.343 639.642 895.699C640.837 895.378 641.801 895.046 642.464 894.802C642.741 894.699 643.046 894.582 643 894.599C643 894.599 642.97 894.611 642.925 894.628C642.881 894.644 642.795 894.676 642.682 894.717C642.565 894.758 641.928 894.989 641.08 895.216L630.004 853.882ZM633.204 854.108C625.028 847.69 591.129 817.671 574.606 802.914L546.101 834.831C561.952 848.987 597.232 880.273 606.782 887.769L633.204 854.108ZM574.776 803.067L554.189 784.281L525.344 815.891L545.931 834.677L574.776 803.067ZM560.961 797.155L557.849 774.658L515.46 780.521L518.572 803.018L560.961 797.155ZM552.532 791.933L565.277 777.825L533.523 749.138L520.778 763.247L552.532 791.933ZM534.809 779.131L541.289 785.172L570.47 753.873L563.991 747.832L534.809 779.131ZM561.684 824.772L585.123 850.57L616.796 821.795L593.358 795.996L561.684 824.772ZM588.332 853.455L628.226 882.621L653.481 848.076L613.587 818.91L588.332 853.455Z" fill="#8D8D8D" mask="url(#path-1-outside-1_428_1241)"/>
<path d="M438.498 705.374L413.222 701.275L408.44 717.67L410.831 727.917L429.959 744.654L460.7 762.416L464.799 744.654L462.749 724.843L438.498 705.374Z" fill="#373533"/>
<path d="M564.804 705.374L590.08 701.275L594.862 717.67L592.471 727.917L573.344 744.654L542.603 762.416L538.504 744.654L540.553 724.843L564.804 705.374Z" fill="#373533"/>
<path d="M336.089 621.703L333.211 603.513C332.179 588.488 324.965 556.724 324.984 552.328C325.009 546.833 316.741 522.383 309.45 490.627C302.158 458.871 309.703 419.79 306.585 402.345C298.584 357.586 301.824 247.142 301.483 238.055C300.425 209.897 298.335 137.123 292.664 119.681C284.909 95.83 281.026 94.4216 259.608 100.596C235.059 107.673 234.919 120.185 211.298 167.151C193.554 202.432 174.633 254.594 174.662 304.982C174.684 342.883 222.795 469.717 227.152 478.529C231.509 487.341 266.097 541.941 269.024 549.14C271.951 556.339 295.816 590.581 299.424 596.6C302.311 601.414 304.923 608.432 305.869 611.339C309.175 615.609 316.614 624.626 319.92 626.535C323.225 628.443 330.032 627.65 333.022 627.016L336.089 621.703Z" fill="#B5AD9D" fill-opacity="0.4"/>
<path d="M262.605 528.906L289.112 575.692L321.306 624.134L317.299 625.021C308.468 619.923 251.614 528.857 224.857 481.14C215.961 466.559 180.295 374.295 172.41 317.062C167.193 279.195 189.702 212.136 214.288 158.645C233.87 116.042 240.828 103.134 257.405 101.686C253.817 103.812 245.977 108.94 243.323 112.445C240.007 116.826 208.952 177.118 187.51 248.649C161.164 336.541 230.061 470.764 229.629 472.876C229.283 474.565 250.152 509.124 262.605 528.906Z" fill="#4F4E4B"/>
<path d="M191.729 183.888C186.673 195.684 181.802 208.618 177.59 222.265C175.541 228.483 173.629 234.67 171.886 240.775C163.756 269.246 158.885 297.276 161.812 318.522C165.9 348.194 177.065 386.36 188.137 418.573C193.703 434.766 199.311 449.641 204.109 461.432C208.724 472.775 212.87 481.967 215.614 486.528C229.114 510.593 250.073 545.375 268.771 574.8C278.139 589.543 287.005 603.044 294.124 613.228C294.825 614.231 295.512 615.207 296.184 616.152L296.27 616.417L297.41 617.889C297.485 617.985 297.561 618.084 297.64 618.185C299.8 621.179 301.781 623.819 303.528 626.007C304.851 627.664 306.136 629.184 307.332 630.446C308.321 631.491 309.958 633.137 311.95 634.286L314.571 635.799L315.552 636.366L315.614 636.352C319.697 638.328 324.201 638.466 326.756 638.426C330.039 638.374 333.182 637.918 335.244 637.48L339.904 636.491L342.287 632.365L345.354 627.052L347.248 623.772L346.656 620.031L343.849 602.291C343.231 594.048 341.084 581.988 339.221 571.977C338.851 569.993 338.493 568.087 338.152 566.28C337.587 563.276 337.072 560.543 336.645 558.172C336.306 556.287 336.044 554.75 335.87 553.59C335.72 552.585 335.689 552.197 335.684 552.197C335.683 552.197 335.682 552.205 335.682 552.22C335.664 549.272 334.763 545.422 333.975 542.253C333.048 538.528 331.747 533.813 330.272 528.477L330.197 528.205C327.23 517.466 323.433 503.724 319.877 488.233C316.573 473.844 316.561 457.368 317.143 441.512C317.252 438.546 317.386 435.527 317.517 432.555C317.722 427.895 317.923 423.347 318.018 419.284C318.174 412.618 318.1 405.969 317.116 400.463C313.303 379.131 312.093 341.248 311.859 306.751C311.744 289.67 311.866 273.685 311.997 261.378C312.027 258.465 312.06 255.723 312.089 253.202C312.181 245.338 312.248 239.634 312.174 237.653C312.077 235.089 311.972 232.14 311.856 228.886C311.338 214.399 310.604 193.863 309.484 174.24C308.798 162.223 307.961 150.424 306.927 140.47C305.927 130.852 304.654 121.957 302.838 116.373C300.878 110.347 298.949 105.035 296.7 100.775C294.424 96.4632 291.307 92.2193 286.45 89.5242C281.511 86.7841 276.307 86.4903 271.612 86.9785C267.071 87.4506 261.996 88.7741 256.644 90.3168C255.352 90.6895 254.094 91.0827 252.869 91.5012C248.632 92.2547 244.584 93.7151 240.712 96.1628C235.88 99.2176 231.901 103.446 228.278 108.5C221.288 118.253 214.203 133.215 204.568 154.177C200.182 163.719 195.854 173.701 191.729 183.888Z" stroke="#8D8D8D" stroke-width="21.3963"/>
<path d="M319.594 622.411C320.553 620.749 309.182 595.441 296.121 567.643M220.945 231.748L197.539 308.612C197.391 309.099 197.501 309.629 197.832 310.017L211.569 326.122C211.753 326.338 211.872 326.602 211.912 326.883L217.102 363.706M220.945 231.748L234.194 188.239L258.161 136.655C258.775 135.333 260.725 135.583 260.986 137.017L270.551 189.572C270.647 190.102 270.45 190.644 270.035 190.989L251.138 206.679M220.945 231.748L251.138 206.679M251.138 206.679L260.492 287.965C260.528 288.284 260.461 288.606 260.301 288.883L257.14 294.359M217.102 363.706L227.873 440.115C227.9 440.306 227.964 440.489 228.06 440.656L255.505 488.038M217.102 363.706L243.508 317.97M243.508 317.97L264.249 390.702C264.299 390.879 264.317 391.064 264.3 391.247L261.232 425.01M243.508 317.97L257.14 294.359M255.505 488.038L269.695 512.536C276.856 527.195 286.909 548.038 296.121 567.643M255.505 488.038L261.232 425.01M261.232 425.01L296.231 505.604C296.314 505.793 296.356 505.998 296.355 506.205L296.121 567.643M257.14 294.359L273.313 347.34C273.416 347.677 273.396 348.041 273.257 348.365L262.11 374.359" stroke="#726962" stroke-opacity="0.5" stroke-width="4.48266"/>
<path d="M576.023 602.344L588.419 587.409C597.412 574.37 621.087 549.431 623.42 545.448C626.337 540.47 647.075 522.69 670.817 497.798C694.559 472.906 708.473 433.655 720.694 419.518C752.049 383.247 808.123 281.755 813.3 273.722C829.342 248.83 870.205 184.158 884.789 171.357C904.733 153.85 909.083 154.603 925.624 171.357C944.582 190.559 938.02 201.938 934.782 256.701C932.35 297.839 921.978 354.846 894.998 400.363C874.704 434.6 762.286 524.112 753.536 529.802C744.786 535.491 683.534 566.784 676.971 571.762C670.409 576.741 629.983 595.232 623.42 598.788C618.17 601.633 611.996 606.611 609.565 608.745C604.218 610.878 592.502 615.146 588.419 615.146C584.336 615.146 578.453 610.878 576.023 608.745L576.023 602.344Z" fill="#B5AD9D" fill-opacity="0.4"/>
<path d="M693.743 556.827L644.158 585.275L588.419 612.253L591.657 615.146C602.566 615.146 703.951 562.517 754.265 533.358C770.307 524.823 852.703 460.058 890.623 412.453C915.711 380.958 930.728 308.618 936.561 247.455C941.208 198.741 941.666 183.447 927.082 173.49C929.27 177.283 933.79 186.007 934.374 190.559C935.103 196.249 931.624 266.932 913.227 342.756C890.623 435.923 754.994 521.267 754.265 523.401C753.682 525.108 715.861 545.448 693.743 556.827Z" fill="#4F4E4B"/>
<path d="M943.215 282.01C941.589 295.303 939.185 309.525 935.789 324.045C934.362 330.731 932.825 337.317 931.175 343.741C923.477 373.715 913.007 401.523 898.991 419.119C879.365 443.757 848.641 472.39 821.163 495.713C807.352 507.435 794.211 517.942 783.469 526.085C773.109 533.94 764.39 540.051 759.475 542.703C734.111 557.397 696.096 577.888 663.038 594.72C646.477 603.152 631.054 610.72 619.028 616.201C617.804 616.759 616.61 617.298 615.448 617.816L615.24 617.999L613.53 618.681C613.405 618.731 613.277 618.782 613.145 618.834C609.545 620.411 606.307 621.759 603.531 622.82C601.431 623.623 599.455 624.316 597.707 624.822C596.239 625.248 593.96 625.844 591.657 625.844L588.419 625.844L587.574 625.844L587.548 625.821C582.829 625.573 578.605 623.384 576.209 621.985C573.246 620.256 570.616 618.233 568.965 616.785L565.325 613.589L565.325 608.745L565.325 602.344L565.325 598.483L567.791 595.511L579.894 580.93C584.855 573.828 593.283 564.063 600.374 555.978C601.775 554.381 603.125 552.848 604.406 551.394C606.539 548.971 608.481 546.767 610.147 544.845C611.47 543.318 612.539 542.061 613.326 541.096C614.022 540.243 614.263 539.9 614.268 539.904C614.269 539.904 614.262 539.917 614.248 539.941C615.803 537.334 618.666 534.353 621.111 531.88C623.955 529.004 627.676 525.429 631.899 521.374L632.117 521.165C640.61 513.009 651.486 502.565 663.076 490.414C673.886 479.08 682.734 464.149 690.673 449.521C692.162 446.778 693.655 443.979 695.124 441.223C697.424 436.909 699.666 432.702 701.751 428.983C705.172 422.877 708.779 416.942 712.6 412.521C727.576 395.197 748.98 361.561 767.645 330.518C776.89 315.141 785.329 300.63 791.791 289.44C793.325 286.785 794.765 284.285 796.088 281.989C800.205 274.841 803.185 269.668 804.308 267.926C805.769 265.658 807.445 263.048 809.293 260.168C817.522 247.346 829.184 229.178 840.715 212.034C847.776 201.535 854.859 191.317 861.136 182.87C867.212 174.694 873.118 167.367 877.732 163.317C882.77 158.894 887.36 155.136 891.663 152.496C896.021 149.822 900.995 147.718 906.661 147.812C912.418 147.908 917.215 150.241 921.246 153.091C925.144 155.847 929.102 159.652 933.237 163.84C934.24 164.856 935.199 165.873 936.113 166.894C939.592 169.743 942.53 173.131 944.789 177.327C947.605 182.557 949.025 188.418 949.677 194.863C950.934 207.3 949.498 224.496 947.211 248.471C946.171 259.38 944.841 270.655 943.215 282.01Z" stroke="#8D8D8D" stroke-width="21.3963"/>
<path d="M590.927 611.59C590.927 609.588 615 592.651 641.97 574.346M891.291 310.041L871.854 391.742C871.735 392.239 871.371 392.641 870.889 392.808L849.466 400.222C849.2 400.314 848.966 400.48 848.789 400.699L824.267 431.287M891.291 310.041L902.265 263.917C902.281 263.847 902.293 263.777 902.299 263.706L907.703 204.41C907.835 202.966 906.04 202.2 905.088 203.294L867.875 246.069C867.514 246.485 867.41 247.065 867.606 247.58L876.728 271.636M891.291 310.041L876.728 271.636M876.728 271.636L824.572 340.221C824.374 340.481 824.267 340.799 824.267 341.126L824.267 347.734M824.267 431.287L773.405 494.726C773.285 494.876 773.138 495.001 772.971 495.095L722.181 523.602M824.267 431.287L824.267 376.182M824.267 376.182L766.136 431.094C766.001 431.221 765.891 431.373 765.812 431.54L750.589 463.66M824.267 376.182L824.267 347.734M722.181 523.602L695.93 538.336C681.454 547.846 660.992 561.436 641.97 574.346M722.181 523.602L750.589 463.66M750.589 463.66L675.038 518.238C674.871 518.36 674.73 518.515 674.625 518.693L641.97 574.346M824.267 347.734L780.926 387.188C780.661 387.429 780.492 387.757 780.448 388.112L776.87 417.432" stroke="#726962" stroke-opacity="0.5" stroke-width="4.48266"/>
</svg>
