<svg width="1001" height="1001" viewBox="0 0 1001 1001" fill="none" xmlns="http://www.w3.org/2000/svg">
<g clip-path="url(#clip0_388_2)">
<path d="M696.627 107.004L741.611 161.676C752.37 174.752 765.741 185.437 780.868 193.047L844.116 224.864C863.457 234.593 876.619 253.385 879.152 274.886L887.437 345.2C889.418 362.017 894.89 378.234 903.502 392.814L939.508 453.775C950.518 472.416 951.431 495.341 941.938 514.798L910.893 578.429C903.468 593.648 899.303 610.249 898.665 627.17L895.997 697.92C895.181 719.555 883.556 739.333 865.05 750.57L804.532 787.315C790.058 796.104 777.579 807.818 767.894 821.708L727.399 879.784C715.017 897.543 694.543 907.897 672.9 907.345L602.123 905.539C585.195 905.107 568.364 908.215 552.707 914.664L487.242 941.627C467.224 949.873 444.403 947.514 426.495 935.348L367.93 895.564C353.923 886.049 338.083 879.563 321.425 876.524L251.775 863.814C230.477 859.928 212.554 845.606 204.065 825.689L176.306 760.558C169.667 744.98 159.848 730.961 147.478 719.398L95.7556 671.051C79.9396 656.266 72.6052 634.528 76.2319 613.184L88.0922 543.384C90.9289 526.69 90.2479 509.588 86.0928 493.172L68.72 424.537C63.4076 403.549 68.9902 381.296 83.5807 365.301L131.295 312.994C142.706 300.484 151.38 285.728 156.759 269.672L179.251 202.54C186.129 182.012 202.857 166.309 223.778 160.742L292.197 142.535C308.561 138.18 323.835 130.456 337.041 119.857L392.257 75.5419C409.142 61.9909 431.703 57.8249 452.313 64.4523L519.714 86.1253C535.835 91.3089 552.86 93.0688 569.7 91.2922L640.109 83.864C661.64 81.5926 682.871 90.2854 696.627 107.004Z" fill="#318644" stroke="#0D6948" stroke-width="57.1737"/>
<path d="M617.422 204.54C629.812 201.795 642.603 207.032 649.51 217.678L689.839 279.836C693.09 284.846 697.743 288.788 703.22 291.17L771.167 320.723C782.803 325.784 790.074 337.54 789.404 350.212L785.495 424.204C785.18 430.168 786.628 436.092 789.659 441.238L827.258 505.085C833.697 516.02 832.669 529.803 824.679 539.662L778.025 597.225C774.265 601.865 771.954 607.509 771.381 613.453L764.272 687.207C763.054 699.838 754.12 710.385 741.862 713.664L670.283 732.811C664.514 734.355 659.327 737.563 655.369 742.035L606.266 797.524C597.856 807.027 584.43 810.309 572.585 805.756L503.422 779.174C497.847 777.031 491.765 776.578 485.935 777.87L413.594 793.899C401.205 796.644 388.413 791.407 381.506 780.762L341.177 718.603C337.927 713.593 333.273 709.651 327.796 707.269L259.85 677.716C248.213 672.655 240.943 660.9 241.612 648.228L245.521 574.236C245.836 568.272 244.388 562.347 241.358 557.201L203.758 493.354C197.319 482.42 198.347 468.636 206.337 458.778L252.991 401.214C256.751 396.575 259.062 390.931 259.635 384.986L266.745 311.233C267.962 298.601 276.896 288.054 289.155 284.775L360.733 265.628C366.503 264.085 371.69 260.877 375.648 256.404L424.75 200.915C433.16 191.412 446.587 188.131 458.432 192.683L527.594 219.266C533.169 221.408 539.251 221.862 545.082 220.57L617.422 204.54Z" fill="#357C45"/>
<path d="M619.438 166.239C631.827 163.493 644.619 168.73 651.526 179.376L691.855 241.534C695.105 246.544 699.759 250.486 705.236 252.868L773.182 282.421C784.819 287.482 792.089 299.238 791.42 311.91L787.511 385.902C787.196 391.866 788.644 397.79 791.674 402.937L829.274 466.783C835.713 477.718 834.685 491.501 826.695 501.36L780.041 558.923C776.281 563.563 773.97 569.207 773.397 575.152L766.287 648.905C765.07 661.536 756.136 672.083 743.877 675.362L672.299 694.51C666.529 696.053 661.342 699.261 657.384 703.733L608.282 759.222C599.872 768.725 586.445 772.007 574.6 767.454L505.438 740.872C499.863 738.729 493.781 738.276 487.95 739.568L415.61 755.597C403.22 758.342 390.429 753.105 383.522 742.46L343.193 680.301C339.942 675.291 335.289 671.349 329.812 668.967L261.865 639.415C250.229 634.353 242.958 622.598 243.628 609.926L247.537 535.934C247.852 529.97 246.404 524.045 243.373 518.899L205.774 455.053C199.335 444.118 200.363 430.334 208.353 420.476L255.007 362.913C258.767 358.273 261.078 352.629 261.651 346.684L268.76 272.931C269.978 260.3 278.912 249.753 291.17 246.473L362.749 227.326C368.518 225.783 373.705 222.575 377.663 218.102L426.766 162.614C435.176 153.111 448.602 149.829 460.447 154.381L529.61 180.964C535.185 183.106 541.267 183.56 547.097 182.268L619.438 166.239Z" fill="#3D9C52"/>
<path d="M579.368 279.767C591.757 277.022 604.549 282.259 611.456 292.904L628.829 319.682C632.08 324.692 636.734 328.634 642.21 331.016L671.482 343.748C683.119 348.809 690.389 360.564 689.719 373.236L688.035 405.112C687.72 411.076 689.168 417.001 692.199 422.147L708.397 449.652C714.836 460.587 713.808 474.37 705.818 484.229L685.719 509.027C681.959 513.667 679.648 519.311 679.075 525.255L676.012 557.028C674.795 569.66 665.861 580.207 653.603 583.486L622.766 591.734C616.997 593.278 611.81 596.486 607.852 600.958L586.699 624.863C578.289 634.366 564.862 637.648 553.017 633.095L523.222 621.643C517.648 619.501 511.565 619.047 505.735 620.339L474.57 627.245C462.181 629.99 449.39 624.753 442.483 614.107L425.109 587.329C421.859 582.319 417.205 578.377 411.728 575.995L382.457 563.264C370.82 558.203 363.55 546.447 364.219 533.775L365.903 501.9C366.218 495.936 364.77 490.011 361.74 484.865L345.542 457.36C339.102 446.425 340.13 432.642 348.121 422.783L368.219 397.985C371.979 393.345 374.29 387.701 374.863 381.756L377.926 349.983C379.144 337.352 388.077 326.805 400.336 323.526L431.172 315.277C436.941 313.734 442.129 310.526 446.086 306.054L467.24 282.149C475.649 272.646 489.076 269.364 500.921 273.917L530.716 285.368C536.291 287.511 542.373 287.965 548.204 286.673L579.368 279.767Z" fill="#338946"/>
<path d="M584.565 253.779C596.954 251.034 609.746 256.271 616.652 266.916L634.026 293.694C637.277 298.704 641.931 302.646 647.407 305.028L676.679 317.759C688.315 322.821 695.586 334.576 694.916 347.248L693.232 379.124C692.917 385.088 694.365 391.012 697.396 396.159L713.593 423.664C720.033 434.598 719.005 448.382 711.015 458.24L690.916 483.039C687.156 487.678 684.845 493.322 684.272 499.267L681.209 531.04C679.992 543.671 671.058 554.218 658.799 557.497L627.963 565.746C622.194 567.289 617.007 570.497 613.049 574.97L591.895 598.874C583.486 608.378 570.059 611.659 558.214 607.107L528.419 595.655C522.844 593.512 516.762 593.059 510.931 594.351L479.767 601.256C467.378 604.001 454.586 598.764 447.68 588.119L430.306 561.341C427.055 556.331 422.401 552.389 416.925 550.007L387.653 537.276C376.017 532.215 368.746 520.459 369.416 507.787L371.1 475.911C371.415 469.947 369.967 464.023 366.936 458.877L350.739 431.371C344.299 420.437 345.327 406.653 353.317 396.795L373.416 371.997C377.176 367.357 379.487 361.713 380.06 355.768L383.123 323.995C384.341 311.364 393.274 300.817 405.533 297.538L436.369 289.289C442.138 287.746 447.325 284.538 451.283 280.065L472.437 256.161C480.846 246.658 494.273 243.376 506.118 247.928L535.913 259.38C541.488 261.523 547.57 261.976 553.401 260.684L584.565 253.779Z" fill="#46AD5D"/>
</g>
<defs>
<clipPath id="clip0_388_2">
<rect width="1000" height="1000" fill="white" transform="translate(0.814941 0.558594)"/>
</clipPath>
</defs>
</svg>
