<svg width="1001" height="1001" viewBox="0 0 1001 1001" fill="none" xmlns="http://www.w3.org/2000/svg">
<g clip-path="url(#clip0_388_3)">
<path d="M778.152 144.257C788.822 141.893 799.838 146.403 805.786 155.571L840.517 209.102C843.317 213.417 847.325 216.811 852.041 218.863L910.557 244.314C920.579 248.673 926.84 258.796 926.264 269.71L922.897 333.432C922.626 338.568 923.873 343.671 926.483 348.102L958.864 403.088C964.409 412.505 963.524 424.375 956.643 432.865L916.464 482.439C913.226 486.435 911.236 491.296 910.742 496.415L904.619 559.932C903.571 570.81 895.877 579.893 885.32 582.717L823.676 599.207C818.707 600.536 814.24 603.299 810.832 607.15L768.544 654.938C761.302 663.122 749.738 665.948 739.537 662.027L679.974 639.134C675.173 637.289 669.935 636.899 664.914 638.011L602.614 651.816C591.944 654.18 580.928 649.67 574.98 640.502L540.248 586.971C537.449 582.656 533.441 579.261 528.724 577.21L470.208 551.759C460.186 547.4 453.925 537.276 454.502 526.363L457.868 462.64C458.14 457.504 456.893 452.402 454.283 447.97L421.902 392.985C416.356 383.568 417.242 371.698 424.123 363.207L464.301 313.634C467.54 309.638 469.53 304.777 470.023 299.658L476.146 236.141C477.195 225.263 484.888 216.179 495.446 213.355L557.09 196.866C562.058 195.537 566.525 192.774 569.934 188.922L612.222 141.135C619.464 132.951 631.027 130.124 641.228 134.045L700.791 156.938C705.592 158.783 710.83 159.174 715.852 158.061L778.152 144.257Z" fill="#3D9C52" fill-opacity="0.2"/>
<path d="M743.643 242.029C754.313 239.665 765.329 244.175 771.277 253.343L786.239 276.404C789.039 280.719 793.047 284.114 797.763 286.165L822.972 297.129C832.994 301.488 839.255 311.612 838.678 322.525L837.228 349.977C836.957 355.113 838.204 360.215 840.814 364.647L854.763 388.335C860.309 397.752 859.424 409.622 852.543 418.112L835.234 439.469C831.995 443.464 830.005 448.325 829.512 453.445L826.874 480.808C825.825 491.686 818.132 500.769 807.574 503.593L781.018 510.697C776.05 512.026 771.582 514.789 768.174 518.64L749.956 539.227C742.714 547.411 731.151 550.238 720.95 546.317L695.29 536.455C690.489 534.609 685.251 534.219 680.23 535.331L653.391 541.278C642.721 543.643 631.705 539.132 625.757 529.965L610.794 506.903C607.995 502.589 603.987 499.194 599.271 497.142L574.062 486.178C564.04 481.819 557.779 471.695 558.356 460.782L559.806 433.331C560.077 428.194 558.83 423.092 556.22 418.66L542.271 394.973C536.725 385.556 537.61 373.685 544.491 365.195L561.8 343.839C565.039 339.843 567.029 334.982 567.522 329.862L570.16 302.499C571.209 291.621 578.902 282.538 589.46 279.714L616.016 272.61C620.984 271.281 625.452 268.519 628.86 264.667L647.078 244.08C654.32 235.896 665.883 233.07 676.084 236.99L701.744 246.853C706.545 248.698 711.783 249.089 716.804 247.976L743.643 242.029Z" fill="#338946" fill-opacity="0.2"/>
<path d="M748.12 219.648C758.789 217.284 769.805 221.794 775.754 230.962L790.716 254.023C793.515 258.338 797.523 261.733 802.24 263.784L827.449 274.748C837.47 279.107 843.731 289.231 843.155 300.144L841.705 327.596C841.433 332.732 842.68 337.834 845.29 342.266L859.24 365.954C864.786 375.371 863.9 387.241 857.019 395.731L839.71 417.088C836.472 421.083 834.482 425.944 833.988 431.064L831.35 458.427C830.302 469.305 822.608 478.388 812.051 481.212L785.495 488.316C780.526 489.645 776.059 492.408 772.65 496.26L754.433 516.846C747.191 525.03 735.627 527.857 725.426 523.936L699.767 514.074C694.966 512.228 689.728 511.838 684.706 512.951L657.867 518.898C647.198 521.262 636.182 516.752 630.233 507.584L615.271 484.522C612.472 480.208 608.464 476.813 603.747 474.761L578.538 463.797C568.517 459.438 562.256 449.315 562.832 438.401L564.282 410.95C564.554 405.814 563.307 400.711 560.697 396.279L546.747 372.592C541.201 363.175 542.087 351.304 548.968 342.814L566.277 321.458C569.515 317.462 571.505 312.601 571.999 307.482L574.637 280.119C575.685 269.24 583.379 260.157 593.936 257.333L620.492 250.23C625.461 248.9 629.928 246.138 633.337 242.286L651.554 221.699C658.796 213.515 670.36 210.689 680.561 214.61L706.22 224.472C711.021 226.317 716.259 226.708 721.281 225.595L748.12 219.648Z" fill="#46AD5D" fill-opacity="0.2"/>
<path d="M590.152 457.591C600.822 455.227 611.838 459.737 617.786 468.905L652.517 522.436C655.317 526.751 659.325 530.146 664.041 532.197L722.557 557.648C732.579 562.007 738.84 572.131 738.264 583.044L734.897 646.767C734.626 651.903 735.873 657.005 738.483 661.437L770.864 716.422C776.409 725.839 775.524 737.71 768.643 746.2L728.464 795.773C725.226 799.769 723.236 804.63 722.742 809.75L716.619 873.266C715.571 884.145 707.877 893.228 697.32 896.052L635.676 912.541C630.707 913.87 626.24 916.633 622.832 920.485L580.544 968.272C573.302 976.456 561.738 979.283 551.537 975.362L491.974 952.469C487.173 950.624 481.935 950.233 476.914 951.346L414.614 965.15C403.944 967.515 392.928 963.004 386.98 953.836L352.248 900.305C349.449 895.991 345.441 892.596 340.724 890.544L282.208 865.093C272.186 860.735 265.925 850.611 266.502 839.697L269.868 775.975C270.14 770.839 268.893 765.737 266.283 761.305L233.902 706.32C228.356 696.903 229.242 685.032 236.123 676.542L276.301 626.968C279.54 622.972 281.53 618.112 282.023 612.992L288.146 549.475C289.195 538.597 296.888 529.514 307.446 526.69L369.09 510.2C374.058 508.871 378.525 506.108 381.934 502.257L424.222 454.469C431.464 446.285 443.027 443.459 453.228 447.38L512.791 470.273C517.592 472.118 522.83 472.509 527.852 471.396L590.152 457.591Z" fill="#3D9C52" fill-opacity="0.2"/>
<path d="M555.643 555.363C566.312 552.999 577.328 557.509 583.277 566.677L598.239 589.738C601.038 594.053 605.046 597.448 609.763 599.499L634.972 610.464C644.993 614.822 651.254 624.946 650.678 635.86L649.228 663.311C648.956 668.447 650.203 673.55 652.813 677.982L666.763 701.669C672.308 711.086 671.423 722.957 664.542 731.447L647.233 752.803C643.995 756.799 642.005 761.66 641.511 766.779L638.873 794.142C637.825 805.02 630.131 814.104 619.574 816.928L593.018 824.031C588.049 825.36 583.582 828.123 580.173 831.975L561.956 852.562C554.713 860.746 543.15 863.572 532.949 859.651L507.289 849.789C502.489 847.944 497.251 847.553 492.229 848.666L465.39 854.613C454.721 856.977 443.704 852.467 437.756 843.299L422.794 820.238C419.995 815.923 415.987 812.528 411.27 810.477L386.061 799.513C376.04 795.154 369.779 785.03 370.355 774.117L371.805 746.665C372.077 741.529 370.83 736.427 368.22 731.995L354.27 708.307C348.724 698.89 349.61 687.02 356.491 678.529L373.8 657.173C377.038 653.177 379.028 648.317 379.522 643.197L382.16 615.834C383.208 604.956 390.902 595.873 401.459 593.049L428.015 585.945C432.984 584.616 437.451 581.853 440.86 578.001L459.077 557.415C466.319 549.23 477.883 546.404 488.084 550.325L513.743 560.187C518.544 562.032 523.782 562.423 528.804 561.31L555.643 555.363Z" fill="#338946" fill-opacity="0.2"/>
<path d="M560.12 532.982C570.789 530.618 581.805 535.128 587.754 544.296L602.716 567.358C605.515 571.672 609.523 575.067 614.24 577.119L639.449 588.083C649.47 592.442 655.731 602.565 655.155 613.479L653.705 640.93C653.433 646.066 654.68 651.169 657.29 655.601L671.24 679.288C676.786 688.705 675.9 700.576 669.019 709.066L651.71 730.422C648.472 734.418 646.482 739.279 645.988 744.398L643.35 771.761C642.302 782.64 634.608 791.723 624.051 794.547L597.495 801.65C592.526 802.98 588.059 805.742 584.65 809.594L566.433 830.181C559.191 838.365 547.627 841.191 537.426 837.27L511.767 827.408C506.966 825.563 501.728 825.172 496.706 826.285L469.867 832.232C459.198 834.596 448.182 830.086 442.233 820.918L427.271 797.857C424.472 793.542 420.464 790.147 415.747 788.096L390.538 777.132C380.517 772.773 374.256 762.649 374.832 751.736L376.282 724.284C376.554 719.148 375.307 714.046 372.697 709.614L358.747 685.926C353.201 676.509 354.087 664.639 360.968 656.149L378.277 634.792C381.515 630.797 383.505 625.936 383.999 620.816L386.637 593.453C387.685 582.575 395.379 573.492 405.936 570.668L432.492 563.564C437.461 562.235 441.928 559.472 445.337 555.62L463.554 535.034C470.796 526.85 482.36 524.023 492.561 527.944L518.22 537.806C523.021 539.652 528.259 540.042 533.281 538.929L560.12 532.982Z" fill="#46AD5D" fill-opacity="0.2"/>
<path d="M397.675 36.8271C408.345 34.4629 419.361 38.9731 425.309 48.141L460.041 101.672C462.84 105.987 466.848 109.382 471.565 111.433L530.081 136.884C540.102 141.243 546.364 151.367 545.787 162.28L542.421 226.002C542.149 231.139 543.396 236.241 546.006 240.673L578.387 295.658C583.933 305.075 583.047 316.945 576.166 325.436L535.988 375.009C532.749 379.005 530.759 383.866 530.266 388.985L524.143 452.502C523.094 463.38 515.401 472.464 504.843 475.288L443.199 491.777C438.231 493.106 433.763 495.869 430.355 499.721L388.067 547.508C380.825 555.692 369.262 558.519 359.061 554.598L299.497 531.705C294.697 529.86 289.459 529.469 284.437 530.582L222.137 544.386C211.467 546.75 200.451 542.24 194.503 533.072L159.771 479.541C156.972 475.226 152.964 471.832 148.248 469.78L89.7315 444.329C79.7099 439.97 73.4488 429.847 74.0253 418.933L77.3918 355.211C77.6632 350.075 76.4161 344.972 73.8061 340.541L41.4253 285.555C35.8797 276.138 36.765 264.268 43.6461 255.778L83.8247 206.204C87.0632 202.208 89.0533 197.347 89.5468 192.228L95.6697 128.711C96.7183 117.833 104.412 108.75 114.969 105.926L176.613 89.4361C181.582 88.107 186.049 85.3443 189.457 81.4925L231.745 33.7052C238.987 25.521 250.551 22.6948 260.752 26.6155L320.315 49.5085C325.116 51.3538 330.354 51.7444 335.375 50.6317L397.675 36.8271Z" fill="#3D9C52" fill-opacity="0.2"/>
<path d="M363.166 134.598C373.836 132.234 384.852 136.744 390.8 145.912L405.762 168.973C408.562 173.288 412.57 176.683 417.286 178.734L442.495 189.699C452.517 194.057 458.778 204.181 458.201 215.094L456.751 242.546C456.48 247.682 457.727 252.784 460.337 257.216L474.286 280.904C479.832 290.321 478.947 302.191 472.066 310.682L454.757 332.038C451.518 336.034 449.528 340.895 449.034 346.014L446.397 373.377C445.348 384.255 437.655 393.338 427.097 396.162L400.541 403.266C395.572 404.595 391.105 407.358 387.697 411.21L369.479 431.796C362.237 439.981 350.674 442.807 340.473 438.886L314.813 429.024C310.012 427.179 304.774 426.788 299.753 427.901L272.914 433.848C262.244 436.212 251.228 431.702 245.28 422.534L230.317 399.473C227.518 395.158 223.51 391.763 218.793 389.712L193.585 378.747C183.563 374.389 177.302 364.265 177.879 353.351L179.329 325.9C179.6 320.764 178.353 315.661 175.743 311.23L161.793 287.542C156.248 278.125 157.133 266.254 164.014 257.764L181.323 236.408C184.562 232.412 186.552 227.551 187.045 222.432L189.683 195.069C190.732 184.191 198.425 175.108 208.983 172.283L235.539 165.18C240.507 163.851 244.975 161.088 248.383 157.236L266.601 136.649C273.843 128.465 285.406 125.639 295.607 129.56L321.267 139.422C326.068 141.267 331.306 141.658 336.327 140.545L363.166 134.598Z" fill="#338946" fill-opacity="0.2"/>
<path d="M367.643 112.218C378.312 109.854 389.328 114.364 395.277 123.532L410.239 146.593C413.038 150.908 417.046 154.303 421.763 156.354L446.972 167.319C456.993 171.677 463.254 181.801 462.678 192.715L461.228 220.166C460.956 225.302 462.203 230.405 464.813 234.836L478.763 258.524C484.308 267.941 483.423 279.812 476.542 288.302L459.233 309.658C455.995 313.654 454.005 318.515 453.511 323.634L450.873 350.997C449.825 361.875 442.131 370.958 431.574 373.783L405.018 380.886C400.049 382.215 395.582 384.978 392.173 388.83L373.956 409.417C366.713 417.601 355.15 420.427 344.949 416.506L319.289 406.644C314.489 404.799 309.251 404.408 304.229 405.521L277.39 411.468C266.721 413.832 255.704 409.322 249.756 400.154L234.794 377.093C231.995 372.778 227.987 369.383 223.27 367.332L198.061 356.368C188.04 352.009 181.779 341.885 182.355 330.972L183.805 303.52C184.077 298.384 182.83 293.282 180.22 288.85L166.27 265.162C160.724 255.745 161.61 243.875 168.491 235.384L185.8 214.028C189.038 210.032 191.028 205.171 191.522 200.052L194.16 172.689C195.208 161.811 202.902 152.728 213.459 149.904L240.015 142.8C244.984 141.471 249.451 138.708 252.86 134.856L271.077 114.27C278.319 106.085 289.883 103.259 300.084 107.18L325.743 117.042C330.544 118.887 335.782 119.278 340.804 118.165L367.643 112.218Z" fill="#46AD5D" fill-opacity="0.2"/>
</g>
<defs>
<clipPath id="clip0_388_3">
<rect width="1000" height="1000" fill="white" transform="translate(0.962891 0.558594)"/>
</clipPath>
</defs>
</svg>
