<svg width="400" height="400" viewBox="0 0 400 400" fill="none" xmlns="http://www.w3.org/2000/svg">
<g clip-path="url(#clip0_388_2)">
<path d="M255.683 33.3175C264.294 32.409 272.786 35.8857 278.287 42.572L296.279 64.438C300.582 69.6677 305.929 73.9412 311.979 76.9847L337.275 89.7098C345.01 93.601 350.274 101.117 351.288 109.716L354.601 137.838C355.394 144.564 357.582 151.05 361.026 156.881L375.427 181.262C379.83 188.717 380.195 197.886 376.398 205.668L363.982 231.117C361.013 237.203 359.347 243.843 359.092 250.611L358.025 278.907C357.699 287.559 353.049 295.47 345.648 299.964L321.444 314.66C315.655 318.175 310.664 322.86 306.79 328.415L290.595 351.643C285.642 358.745 277.454 362.886 268.798 362.665L240.491 361.943C233.721 361.77 226.989 363.013 220.727 365.592L194.545 376.376C186.539 379.674 177.412 378.731 170.249 373.865L146.826 357.954C141.224 354.148 134.889 351.554 128.227 350.339L100.371 345.256C91.8524 343.701 84.6842 337.973 81.2893 330.008L70.1873 303.958C67.532 297.728 63.6048 292.121 58.6573 287.497L37.9713 268.16C31.6458 262.248 28.7124 253.553 30.1629 245.017L34.9064 217.101C36.0409 210.424 35.7685 203.584 34.1067 197.019L27.1585 169.568C25.0338 161.174 27.2666 152.274 33.102 145.877L52.185 124.957C56.7491 119.954 60.218 114.052 62.3695 107.631L71.3651 80.7814C74.1159 72.5712 80.8059 66.2912 89.1735 64.0644L116.537 56.7825C123.082 55.0409 129.191 51.9517 134.472 47.7127L156.556 29.9891C163.309 24.5694 172.332 22.9032 180.575 25.5538L207.532 34.2219C213.979 36.295 220.788 36.9989 227.523 36.2883L255.683 33.3175Z" fill="#318644" stroke="#0D6948" stroke-width="22.8664"/>
<path d="M246.61 81.5816C251.565 80.4836 256.681 82.5782 259.443 86.8358L275.572 111.696C276.873 113.7 278.734 115.276 280.924 116.229L308.099 128.048C312.753 130.073 315.661 134.774 315.393 139.842L313.83 169.435C313.704 171.82 314.283 174.19 315.495 176.248L330.533 201.783C333.108 206.156 332.697 211.669 329.501 215.612L310.842 238.634C309.338 240.49 308.414 242.747 308.185 245.125L305.342 274.622C304.855 279.674 301.282 283.892 296.379 285.204L267.751 292.861C265.444 293.479 263.369 294.762 261.786 296.55L242.148 318.743C238.784 322.544 233.414 323.856 228.677 322.035L201.016 311.404C198.786 310.547 196.354 310.366 194.022 310.882L165.089 317.293C160.134 318.391 155.018 316.297 152.256 312.039L136.127 287.179C134.827 285.175 132.965 283.599 130.775 282.646L103.6 270.826C98.9459 268.802 96.0383 264.101 96.306 259.033L97.8694 229.44C97.9954 227.054 97.4163 224.685 96.2042 222.627L81.1665 197.092C78.5911 192.718 79.0022 187.206 82.1978 183.263L100.857 160.241C102.361 158.385 103.285 156.128 103.514 153.75L106.358 124.253C106.845 119.201 110.418 114.983 115.32 113.671L143.948 106.013C146.255 105.396 148.33 104.113 149.913 102.324L169.551 80.1318C172.915 76.331 178.285 75.0185 183.022 76.8393L210.683 87.4709C212.913 88.3278 215.345 88.5092 217.677 87.9925L246.61 81.5816Z" fill="#357C45"/>
<path d="M247.416 66.263C252.371 65.165 257.487 67.2596 260.249 71.5172L276.379 96.3772C277.679 98.381 279.54 99.9575 281.73 100.91L308.905 112.73C313.559 114.754 316.467 119.455 316.199 124.524L314.636 154.116C314.51 156.502 315.089 158.871 316.301 160.929L331.339 186.465C333.914 190.838 333.503 196.351 330.308 200.293L311.648 223.316C310.145 225.171 309.22 227.429 308.991 229.806L306.148 259.303C305.661 264.355 302.088 268.574 297.185 269.885L268.557 277.543C266.25 278.16 264.175 279.443 262.592 281.232L242.954 303.424C239.591 307.225 234.221 308.538 229.483 306.717L201.822 296.085C199.592 295.228 197.16 295.047 194.828 295.564L165.896 301.975C160.941 303.072 155.825 300.978 153.062 296.72L136.933 271.86C135.633 269.857 133.771 268.28 131.581 267.327L104.406 255.508C99.7521 253.484 96.8444 248.782 97.1122 243.714L98.6755 214.121C98.8016 211.736 98.2224 209.366 97.0103 207.308L81.9726 181.773C79.3972 177.4 79.8084 171.887 83.004 167.944L101.663 144.922C103.167 143.066 104.091 140.809 104.32 138.431L107.164 108.934C107.651 103.882 111.224 99.664 116.127 98.3525L144.754 90.6947C147.062 90.0775 149.136 88.7944 150.719 87.0057L170.358 64.8132C173.721 61.0124 179.091 59.6999 183.828 61.5207L211.49 72.1523C213.719 73.0092 216.152 73.1906 218.484 72.6739L247.416 66.263Z" fill="#3D9C52"/>
<path d="M231.39 111.668C236.345 110.57 241.461 112.665 244.223 116.922L251.172 127.632C252.472 129.636 254.333 131.212 256.524 132.165L268.231 137.257C272.885 139.281 275.792 143.983 275.525 149.051L274.851 161.799C274.725 164.185 275.304 166.554 276.516 168.612L282.994 179.613C285.57 183.986 285.159 189.499 281.963 193.442L273.925 203.36C272.421 205.215 271.497 207.473 271.267 209.85L270.042 222.558C269.556 227.61 265.983 231.828 261.08 233.139L248.747 236.438C246.44 237.055 244.365 238.338 242.782 240.127L234.322 249.688C230.958 253.489 225.589 254.801 220.851 252.98L208.935 248.4C206.705 247.543 204.273 247.362 201.941 247.879L189.477 250.64C184.522 251.738 179.406 249.644 176.643 245.386L169.695 234.676C168.395 232.673 166.533 231.096 164.343 230.144L152.636 225.052C147.982 223.027 145.074 218.326 145.342 213.258L146.016 200.509C146.142 198.124 145.562 195.754 144.35 193.696L137.872 182.696C135.297 178.322 135.708 172.81 138.903 168.867L146.942 158.949C148.446 157.093 149.37 154.836 149.599 152.458L150.824 139.751C151.311 134.699 154.884 130.481 159.787 129.169L172.12 125.87C174.427 125.253 176.502 123.97 178.084 122.181L186.545 112.621C189.908 108.82 195.278 107.508 200.015 109.328L211.932 113.908C214.161 114.765 216.594 114.947 218.926 114.43L231.39 111.668Z" fill="#338946"/>
<path d="M233.469 101.274C238.424 100.176 243.54 102.271 246.302 106.529L253.25 117.238C254.55 119.242 256.412 120.819 258.602 121.771L270.309 126.863C274.963 128.887 277.871 133.589 277.603 138.657L276.93 151.406C276.804 153.791 277.383 156.16 278.595 158.219L285.073 169.219C287.648 173.592 287.237 179.105 284.042 183.048L276.003 192.966C274.499 194.822 273.575 197.079 273.346 199.456L272.121 212.164C271.634 217.216 268.061 221.434 263.158 222.745L250.826 226.044C248.518 226.662 246.444 227.945 244.861 229.733L236.4 239.294C233.037 243.095 227.667 244.407 222.93 242.586L211.013 238.006C208.784 237.149 206.351 236.968 204.019 237.485L191.555 240.247C186.6 241.345 181.484 239.25 178.722 234.992L171.773 224.283C170.473 222.279 168.612 220.702 166.422 219.75L154.715 214.658C150.061 212.634 147.153 207.932 147.421 202.864L148.094 190.115C148.22 187.73 147.641 185.361 146.429 183.302L139.951 172.302C137.375 167.929 137.786 162.416 140.982 158.473L149.02 148.555C150.524 146.7 151.449 144.442 151.678 142.065L152.903 129.357C153.39 124.305 156.963 120.087 161.865 118.776L174.198 115.477C176.506 114.859 178.58 113.576 180.163 111.788L188.623 102.227C191.987 98.4263 197.357 97.1138 202.094 98.9346L214.011 103.515C216.24 104.372 218.673 104.553 221.005 104.036L233.469 101.274Z" fill="#46AD5D"/>
</g>
<defs>
<clipPath id="clip0_388_2">
<rect width="400" height="400" fill="white"/>
</clipPath>
</defs>
</svg>
