<svg width="501" height="501" viewBox="0 0 501 501" fill="none" xmlns="http://www.w3.org/2000/svg">
<g clip-path="url(#clip0_388_2)">
<path d="M348.813 54.0086L371.305 81.3448C376.685 87.8828 383.37 93.2254 390.934 97.0302L422.558 112.939C432.228 117.803 438.809 127.199 440.076 137.95L444.218 173.107C445.209 181.515 447.945 189.624 452.25 196.914L470.253 227.394C475.758 236.715 476.215 248.177 471.468 257.906L455.946 289.721C452.234 297.331 450.151 305.631 449.832 314.092L448.498 349.467C448.09 360.284 442.277 370.174 433.024 375.792L402.766 394.164C395.529 398.559 389.289 404.416 384.446 411.361L364.199 440.399C358.008 449.279 347.771 454.455 336.95 454.179L301.561 453.276C293.097 453.06 284.682 454.614 276.853 457.839L244.121 471.321C234.112 475.443 222.701 474.264 213.747 468.181L184.464 448.289C177.461 443.531 169.541 440.289 161.212 438.769L126.387 432.414C115.738 430.471 106.776 423.31 102.532 413.351L88.6527 380.786C85.3331 372.997 80.4235 365.987 74.2383 360.206L48.3773 336.032C40.4693 328.64 36.8021 317.771 38.6155 307.099L44.5456 272.199C45.9639 263.852 45.6234 255.301 43.5459 247.093L34.8595 212.775C32.2033 202.281 34.9946 191.155 42.2898 183.157L66.1468 157.004C71.8527 150.749 76.1894 143.371 78.8791 135.343L90.1253 101.777C93.5642 91.5126 101.928 83.6615 112.389 80.8778L146.598 71.7741C154.78 69.5968 162.417 65.7348 169.02 60.4353L196.628 38.2778C205.07 31.5023 216.351 29.4193 226.656 32.733L260.357 43.5695C268.417 46.1613 276.93 47.0412 285.349 46.1529L320.554 42.4389C331.319 41.3031 341.935 45.6495 348.813 54.0086Z" fill="#318644" stroke="#0D6948" stroke-width="28.5868"/>
<path d="M309.211 102.777C315.405 101.404 321.801 104.023 325.255 109.346L345.419 140.425C347.044 142.93 349.371 144.901 352.11 146.092L386.083 160.868C391.901 163.399 395.536 169.277 395.202 175.613L393.247 212.609C393.09 215.591 393.814 218.553 395.329 221.126L414.129 253.049C417.348 258.517 416.834 265.408 412.839 270.338L389.512 299.119C387.632 301.439 386.477 304.261 386.19 307.234L382.635 344.11C382.026 350.426 377.56 355.699 371.43 357.339L335.641 366.912C332.756 367.684 330.163 369.288 328.184 371.524L303.632 399.269C299.428 404.02 292.714 405.661 286.792 403.385L252.211 390.094C249.423 389.022 246.382 388.796 243.467 389.442L207.296 397.456C201.102 398.829 194.706 396.21 191.253 390.888L171.088 359.808C169.463 357.303 167.136 355.332 164.398 354.141L130.424 339.365C124.606 336.834 120.971 330.957 121.306 324.621L123.26 287.625C123.418 284.643 122.694 281.68 121.178 279.107L102.379 247.184C99.159 241.717 99.673 234.825 103.668 229.896L126.995 201.114C128.875 198.794 130.031 195.972 130.317 193L133.872 156.123C134.481 149.807 138.947 144.534 145.077 142.894L180.866 133.321C183.751 132.549 186.344 130.945 188.323 128.709L212.875 100.965C217.079 96.213 223.793 94.5721 229.715 96.8484L264.297 110.14C267.084 111.211 270.125 111.438 273.04 110.792L309.211 102.777Z" fill="#357C45"/>
<path d="M310.219 83.6262C316.413 82.2536 322.809 84.8721 326.262 90.1948L346.427 121.274C348.052 123.779 350.379 125.75 353.117 126.941L387.091 141.717C392.909 144.248 396.544 150.126 396.209 156.462L394.255 193.458C394.097 196.44 394.821 199.402 396.337 201.975L415.136 233.898C418.356 239.366 417.842 246.258 413.847 251.187L390.52 279.968C388.64 282.288 387.484 285.11 387.198 288.083L383.643 324.959C383.034 331.275 378.568 336.548 372.438 338.188L336.649 347.762C333.764 348.533 331.171 350.137 329.192 352.373L304.64 380.118C300.436 384.869 293.722 386.51 287.8 384.234L253.218 370.943C250.431 369.872 247.39 369.645 244.475 370.291L208.304 378.305C202.11 379.678 195.714 377.06 192.261 371.737L172.096 340.658C170.471 338.153 168.144 336.182 165.405 334.991L131.432 320.214C125.614 317.684 121.979 311.806 122.313 305.47L124.268 268.474C124.425 265.492 123.701 262.53 122.186 259.956L103.386 228.033C100.167 222.566 100.681 215.674 104.676 210.745L128.003 181.963C129.883 179.643 131.038 176.821 131.325 173.849L134.88 136.972C135.489 130.657 139.955 125.383 146.085 123.744L181.874 114.17C184.759 113.398 187.352 111.794 189.331 109.558L213.883 81.8137C218.087 77.0621 224.801 75.4212 230.723 77.6975L265.305 90.9888C268.092 92.0601 271.133 92.2869 274.048 91.6409L310.219 83.6262Z" fill="#3D9C52"/>
<path d="M290.184 140.39C296.378 139.018 302.774 141.636 306.228 146.959L314.914 160.348C316.54 162.853 318.867 164.824 321.605 166.015L336.241 172.381C342.059 174.911 345.694 180.789 345.359 187.125L344.517 203.063C344.36 206.045 345.084 209.007 346.599 211.58L354.698 225.333C357.918 230.8 357.404 237.692 353.409 242.621L343.359 255.02C341.479 257.34 340.324 260.162 340.037 263.135L338.506 279.021C337.897 285.337 333.43 290.61 327.301 292.25L311.883 296.374C308.998 297.146 306.405 298.75 304.426 300.986L293.849 312.938C289.644 317.69 282.931 319.331 277.008 317.054L262.111 311.328C259.324 310.257 256.282 310.03 253.367 310.676L237.785 314.129C231.59 315.502 225.195 312.883 221.741 307.56L213.054 294.172C211.429 291.667 209.102 289.696 206.364 288.505L191.728 282.139C185.91 279.608 182.275 273.731 182.609 267.394L183.451 251.457C183.609 248.475 182.885 245.512 181.37 242.939L173.271 229.187C170.051 223.719 170.565 216.828 174.56 211.898L184.609 199.499C186.489 197.179 187.645 194.357 187.931 191.385L189.463 175.499C190.072 169.183 194.538 163.909 200.668 162.27L216.086 158.146C218.97 157.374 221.564 155.77 223.543 153.534L234.12 141.581C238.324 136.83 245.038 135.189 250.96 137.465L265.858 143.191C268.645 144.262 271.686 144.489 274.602 143.843L290.184 140.39Z" fill="#338946"/>
<path d="M292.782 127.396C298.977 126.024 305.373 128.642 308.826 133.965L317.513 147.354C319.138 149.859 321.465 151.83 324.204 153.021L338.839 159.387C344.658 161.917 348.293 167.795 347.958 174.131L347.116 190.069C346.958 193.051 347.683 196.013 349.198 198.586L357.297 212.339C360.516 217.806 360.002 224.698 356.007 229.627L345.958 242.026C344.078 244.346 342.923 247.168 342.636 250.14L341.105 266.027C340.496 272.342 336.029 277.616 329.9 279.256L314.482 283.38C311.597 284.151 309.003 285.755 307.024 287.992L296.448 299.944C292.243 304.696 285.53 306.336 279.607 304.06L264.709 298.334C261.922 297.263 258.881 297.036 255.966 297.682L240.384 301.135C234.189 302.508 227.793 299.889 224.34 294.566L215.653 281.177C214.028 278.672 211.701 276.701 208.962 275.51L194.327 269.145C188.508 266.614 184.873 260.736 185.208 254.4L186.05 238.462C186.208 235.481 185.483 232.518 183.968 229.945L175.869 216.193C172.65 210.725 173.164 203.833 177.159 198.904L187.208 186.505C189.088 184.185 190.244 181.363 190.53 178.391L192.061 162.504C192.67 156.189 197.137 150.915 203.266 149.276L218.684 145.151C221.569 144.38 224.163 142.776 226.142 140.54L236.718 128.587C240.923 123.836 247.636 122.195 253.559 124.471L268.457 130.197C271.244 131.268 274.285 131.495 277.2 130.849L292.782 127.396Z" fill="#46AD5D"/>
</g>
<defs>
<clipPath id="clip0_388_2">
<rect width="500" height="500" fill="white" transform="translate(0.907227 0.786133)"/>
</clipPath>
</defs>
</svg>
