<svg width="1000" height="1000" viewBox="0 0 1000 1000" fill="none" xmlns="http://www.w3.org/2000/svg">
<g clip-path="url(#clip0_638_70684)">
<path d="M624.94 820.82L624.94 820.82L571.995 830.549L512.206 936.501C511.043 938.562 509.476 940.367 507.599 941.807L507.599 941.808L475.859 966.171L475.858 966.171C473.916 967.662 471.683 968.731 469.303 969.309L438.299 976.84L438.299 976.84C428.918 979.119 419.454 973.407 417.099 964.045L417.099 964.045L404.774 915.045C404.774 915.045 404.774 915.045 404.774 915.045C404.021 912.054 404.069 908.919 404.911 905.953L404.911 905.953L417.547 861.459L417.746 860.758L418.006 860.077L469.65 724.694L465.841 702.719C461.634 697.497 456.807 691.51 451.611 685.074C435.552 675.979 412.684 662.773 392.982 650.84C382.575 644.537 372.884 638.487 365.504 633.542C361.84 631.086 358.522 628.754 355.899 626.707C354.6 625.693 353.25 624.578 352.037 623.424C351.192 622.62 348.993 620.507 347.427 617.504C344.228 611.368 316.43 559.811 301.69 532.501C291.792 523.054 277.69 509.296 265.301 496.567C258.733 489.819 252.514 483.225 247.623 477.652C245.185 474.875 242.947 472.203 241.115 469.801C239.535 467.729 237.387 464.752 236.03 461.625C236.1 461.788 236.078 461.753 235.904 461.479C235.599 460.995 234.823 459.769 233.255 457.568C231.149 454.613 228.291 450.819 224.846 446.364C218.997 438.802 211.776 429.748 204.254 420.317C202.918 418.642 201.572 416.954 200.222 415.261C191.35 404.127 182.335 392.76 175.236 383.348C171.692 378.65 168.505 374.279 166.003 370.574C163.859 367.399 161.142 363.185 159.763 359.37C156.52 350.395 156.563 339.178 157.135 330.944C155.605 321.533 153.4 308.376 151.388 297.236C150.307 291.248 149.307 285.982 148.512 282.23C148.208 280.791 147.961 279.71 147.776 278.959C147.298 277.933 146.971 276.969 146.753 276.149C146.047 273.491 146.15 271.267 146.24 270.194C146.426 267.985 146.996 266.184 147.259 265.392C147.878 263.524 148.744 261.635 149.467 260.148C151.011 256.973 153.159 253.103 155.357 249.361C159.425 242.432 165.237 233.256 168.903 229.198C171.224 226.629 175.232 223.478 181.017 222.793C186.969 222.089 191.743 224.35 194.725 226.638C199.83 230.555 202.054 236.143 203.019 239.134C203.038 239.193 203.057 239.252 203.076 239.311C203.021 239.002 202.966 238.692 202.911 238.383C198.126 211.273 194.984 182.508 194.448 167.414C193.59 143.238 208.885 123.628 219.344 111.536L245.051 52.8699L245.053 52.8655C246.122 50.4276 247.781 48.1495 250.026 46.3156C250.026 46.3152 250.027 46.3148 250.027 46.3143L260.531 59.1747C264.484 55.9455 270.588 51.3208 276.445 47.6173L624.94 820.82ZM624.94 820.82C626.585 820.518 628.254 819.969 629.872 819.128C637.341 815.242 648.484 809.074 658.005 802.972C662.712 799.954 667.449 796.683 671.223 793.52C673.083 791.961 675.132 790.079 676.892 787.966C677.584 787.135 678.816 785.602 679.922 783.481C681.17 782.924 683.177 782.269 686.113 781.674C692.602 780.36 701.179 779.815 710.564 779.778C719.804 779.742 729.068 780.195 736.768 780.619C737.688 780.67 738.596 780.72 739.484 780.77C742.222 780.924 744.772 781.067 746.881 781.159C749.143 781.259 752.581 781.403 755.211 781.089L753.242 764.602L755.211 781.089C758.871 780.652 762.08 779.309 764.098 778.367C766.394 777.295 768.721 775.977 770.919 774.632C775.321 771.936 780.215 768.5 784.928 765.052C789.939 761.386 794.435 757.96 798.488 754.872C802.828 751.564 806.66 748.644 810.07 746.233L800.485 732.675L810.07 746.233C812.732 744.351 816.194 742.404 820.623 739.913C820.961 739.723 821.304 739.531 821.652 739.334C824.529 737.715 828.041 735.734 831.369 733.528L855.707 732.091M624.94 820.82L855.707 732.091M349.883 272.092L320.106 240.892L311.078 146.045L311.078 146.045C310.792 143.044 309.737 140.145 307.985 137.64C307.986 137.64 307.986 137.64 307.986 137.64L349.883 272.092ZM349.883 272.092C347.945 258.059 346.204 245.089 344.748 233.954L361.213 231.801L344.748 233.953C344.299 230.516 344.882 227.08 346.342 224.047L395.301 122.403L395.716 121.542L396.227 120.734C400.429 114.089 405.017 106.834 413.465 101.739C419.875 97.8731 427.731 95.7562 436.917 93.7707C441.113 89.4983 446.257 84.2109 450.843 79.3953C453.835 76.253 456.518 73.3874 458.525 71.1653C459.535 70.0462 460.291 69.1823 460.797 68.5768C460.912 68.4389 461.002 68.3296 461.069 68.2466C464.244 63.3717 468.911 61.3731 470.281 60.7928C472.541 59.8351 474.856 59.2309 476.719 58.8245C480.536 57.9918 484.964 57.465 489.044 57.111C497.322 56.3926 506.365 56.2076 511.295 56.2661C519.318 56.3613 526.098 59.9035 530.278 62.5981C534.785 65.504 538.546 68.9209 540.991 71.5288C546.516 77.4235 547.23 86.1974 543.039 92.863C540.068 97.5879 535.06 104.081 528.579 110.048C522.211 115.91 513.29 122.308 502.439 125.046C498.762 125.974 494.321 128.631 489.806 132.69C486.78 135.411 484.271 138.265 482.525 140.513C482.135 143.1 481.763 145.665 481.394 148.214C478.288 169.653 475.333 190.048 462.493 214.254C459.365 224.549 455.665 239.267 454.062 251.762C453.276 257.886 453.122 262.558 453.414 265.595C455.131 266.779 456.51 268.049 457.559 269.124C459.633 271.25 461.401 273.643 462.892 275.942C465.874 280.539 468.656 286.184 471.194 292.155C476.311 304.195 481.243 319.498 485.228 335.082C489.217 350.68 492.404 367.135 493.832 381.528C494.545 388.713 494.854 395.717 494.513 402.021C494.426 403.637 494.291 405.316 494.085 407.023C501.316 412.751 507.879 420.092 513.727 427.783C522.613 439.471 531.013 453.546 538.602 468.123C553.783 497.282 566.508 529.982 573.914 553.308C586.621 593.326 618.085 646.86 627.455 661.696C629.77 662.508 633.257 663.468 637.938 664.543C647.473 666.732 660.006 668.968 673.389 671.298C674.806 671.545 676.232 671.792 677.663 672.041C689.52 674.1 701.732 676.222 712.103 678.359C717.923 679.558 723.426 680.815 728.135 682.135C732.478 683.353 737.469 684.974 741.43 687.261C741.435 687.264 741.442 687.272 741.451 687.282C741.6 687.446 742.418 688.345 748.839 684.964C750.259 684.216 751.675 683.413 753.348 682.464C753.563 682.342 753.783 682.218 754.008 682.091C755.863 681.04 758.042 679.815 760.3 678.684C764.627 676.518 770.799 673.869 777.963 673.564C781.375 673.418 784.203 673.153 786.761 672.875C787.318 672.815 787.915 672.747 788.536 672.677C790.471 672.458 792.632 672.213 794.514 672.081C798.71 671.786 802.982 671.91 807.613 673.174C812.117 671.734 818.03 669.727 822.815 667.781C833.639 663.378 844.68 666.307 851.171 668.608C857.014 670.68 862.746 673.636 866.175 675.405C866.384 675.512 866.584 675.616 866.775 675.714C867.356 675.658 868.27 675.511 869.64 675.184C871.013 674.855 872.277 674.494 873.847 674.045C874.466 673.868 875.132 673.677 875.871 673.47C878.057 672.857 881.232 671.992 884.457 671.604C885.741 671.449 887.665 671.317 889.884 671.63C892.045 671.935 895.658 672.832 899.027 675.719C907.373 682.87 904.874 692.523 904.147 694.735C903.192 697.645 901.665 699.93 900.914 701.011C899.984 702.352 898.961 703.628 898.092 704.676C897.203 705.747 896.251 706.843 895.425 707.794L895.367 707.862C894.52 708.837 893.783 709.685 893.104 710.496C891.884 711.952 891.484 712.559 891.469 712.55C891.468 712.549 891.469 712.544 891.474 712.533C888.868 717.74 884.537 720.84 882.291 722.305C879.499 724.125 876.456 725.58 873.794 726.702C868.43 728.962 862.68 730.671 858.892 731.608M349.883 272.092L858.892 731.608M858.892 731.608C857.797 731.879 856.73 732.031 855.707 732.091M858.892 731.608L855.707 732.091M873.631 682.078C873.626 682.085 873.62 682.094 873.614 682.102C873.718 681.934 873.742 681.918 873.631 682.078ZM269.932 356.703L250.011 340.339L223.728 310.089L223.727 310.089C220.957 306.901 217.133 304.818 212.956 304.218C210.112 297.394 206.336 287.998 203.821 281.654C203.163 278.404 202.419 273.829 202.088 269.598C201.9 267.197 201.88 265.316 201.972 264.048C201.978 263.964 201.984 263.886 201.991 263.814C204.208 259.251 204.773 254.579 204.815 251.086C204.826 250.131 204.799 249.172 204.736 248.217C206.731 258.433 208.993 268.349 211.495 277.061C214.539 287.664 218.673 299.301 224.738 306.609C230.222 313.217 240.207 324.117 250.782 335.66C254.682 339.918 258.663 344.264 262.528 348.514C265.044 351.281 267.526 354.024 269.932 356.703ZM202.08 263.147C202.082 263.149 202.074 263.199 202.052 263.291C202.068 263.191 202.079 263.146 202.08 263.147ZM203.335 280.427C203.338 280.434 203.341 280.442 203.344 280.45C203.341 280.442 203.338 280.434 203.335 280.427ZM204.067 282.829C204.069 282.838 204.071 282.846 204.073 282.855L204.071 282.844C204.07 282.839 204.069 282.834 204.067 282.829ZM298.341 124.476C297.134 116.095 295.835 105.108 295.264 95.3982C294.924 89.6202 294.875 84.8214 295.131 81.4683C295.157 81.1343 295.184 80.83 295.213 80.5543L298.341 124.476ZM316.366 236.973C316.371 236.978 316.376 236.983 316.381 236.988L316.368 236.974L316.366 236.973ZM320.618 246.262C320.618 246.269 320.619 246.276 320.62 246.283L320.618 246.262ZM682.106 776.489C682.104 776.513 682.101 776.539 682.097 776.566C682.1 776.54 682.103 776.515 682.106 776.489ZM678.914 784.009C678.89 784.027 678.877 784.036 678.876 784.036C678.875 784.036 678.887 784.027 678.914 784.009ZM866.18 675.742C866.18 675.742 866.187 675.742 866.2 675.743C866.187 675.743 866.18 675.742 866.18 675.742ZM453.864 268.073C453.854 268.091 453.794 267.947 453.713 267.587C453.833 267.875 453.874 268.056 453.864 268.073ZM303.501 534.225C303.498 534.223 303.496 534.221 303.494 534.219C303.496 534.221 303.498 534.223 303.501 534.225ZM300.521 530.335C300.518 530.33 300.515 530.324 300.513 530.319C300.515 530.324 300.518 530.33 300.521 530.335ZM468.376 705.867C468.373 705.864 468.371 705.862 468.369 705.859C468.371 705.862 468.373 705.864 468.376 705.867ZM465.153 698.752C465.152 698.747 465.151 698.741 465.15 698.735L465.15 698.736L465.153 698.752ZM434.382 960.714L434.515 961.261L434.382 960.714Z" fill="#B1956B" stroke="#715A38" stroke-width="33.2089"/>
<path d="M282.908 70.0788C276.67 77.942 279.601 110.65 282.21 128.771C282.348 129.731 281.126 130.31 280.44 129.625C263.55 112.765 245.23 112.704 236.071 115.343C235.222 115.587 234.4 114.717 234.764 113.912C243.145 95.3628 258.664 61.2797 260.915 57.3813C263.845 52.3061 283.209 43.1849 291.572 42.3741C299.935 41.5633 291.193 59.6363 282.908 70.0788Z" fill="#E4C596"/>
<path d="M187.564 261.566C184.775 281.394 194.187 304.633 201.199 317.328C201.688 318.213 200.51 319.559 199.507 319.434C191.628 318.454 181.707 326.256 176.302 331.782C175.747 332.35 174.768 332.082 174.599 331.306L161.513 271.355C161.465 271.133 161.495 270.901 161.6 270.699L177.185 240.522C177.257 240.382 177.359 240.262 177.491 240.175C181.707 237.386 191.088 236.525 187.564 261.566Z" fill="#E4C596"/>
<path d="M815.553 693.131C820.631 698.16 823.288 709.443 824.177 716.627C824.244 717.169 824.734 717.558 825.275 717.491C835.541 716.232 855.429 713.962 860.167 714.077C866.284 714.226 872.794 707.834 876.195 705.85C879.596 703.866 888.988 689.551 888.142 689.063L885.261 687.399C884.951 687.221 884.57 687.226 884.261 687.407C878.805 690.602 867.07 695.437 859.848 691.336C859.805 691.312 859.764 691.284 859.725 691.253C851.708 684.854 839.458 682.202 834.324 681.676C833.085 681.601 827.721 682.806 815.698 687.739C814.641 688.172 814.741 692.327 815.553 693.131Z" fill="#E4C596"/>
<path d="M399.544 469.104L482.919 595.765C483.508 596.66 482.434 597.713 481.551 597.107L444.147 571.457C444.08 571.411 444.022 571.36 443.969 571.3C423.047 547.548 380.303 498.15 376.081 489.854C370.797 479.473 365.492 432.988 363.704 426.317C362.278 420.994 350.434 374.139 344.643 351.187C344.61 351.058 344.553 350.943 344.473 350.838L316.136 313.81C316.039 313.683 315.974 313.534 315.948 313.377L305.889 253.087C305.731 252.139 306.893 251.557 307.558 252.251L371.671 319.167C371.803 319.304 371.892 319.478 371.926 319.665L399.399 468.744C399.423 468.873 399.472 468.995 399.544 469.104Z" fill="#8F7B5B"/>
<path d="M378.399 567.885L457.745 667.055C458.455 667.944 457.33 669.124 456.409 668.456L408.575 633.804L359.53 589.175C359.448 589.101 359.379 589.013 359.326 588.915L334.414 542.49L316.307 494.89C316.284 494.829 316.254 494.77 316.219 494.714L279.098 436.117L252.553 395.519C252.482 395.409 252.433 395.286 252.41 395.157L246.349 361.445C246.189 360.554 247.222 359.944 247.926 360.514L325.126 423.159C325.287 423.289 325.402 423.468 325.455 423.668L352.62 526.377C352.645 526.471 352.684 526.561 352.735 526.644L378.399 567.885Z" fill="#8F7B5B"/>
<path d="M466.797 115.844C468.475 117.319 465.764 130.321 466.713 133.868C466.852 134.39 467.421 134.297 467.697 133.833C480.062 113.052 495.25 110.723 505.782 107.901C514.029 105.691 524.612 91.2966 529.34 83.6562C529.613 83.2153 529.486 82.6414 529.055 82.3533C525.052 79.6787 516.959 74.5994 511.211 72.1254C505.135 69.5095 485.88 73.3404 476.719 75.6516C476.524 75.701 476.355 75.8086 476.224 75.9621L447.845 109.226C447.362 109.792 447.66 110.668 448.387 110.822C454.804 112.176 465.424 114.638 466.797 115.844Z" fill="#E4C596"/>
<path d="M533.422 800.053L440.666 946.088C437.98 941.436 439.03 918.836 443.808 903.671C448.587 888.506 457.524 855.15 462.268 832.111C467.011 809.071 485.206 773.19 492.116 760.742C499.027 748.293 516.934 729.496 516.297 722.532C515.661 715.569 480.133 681.381 474.516 671.654C468.9 661.926 449.366 628.091 418.656 601.272C394.088 579.817 401.056 561.997 407.61 555.769C424.196 575.705 458.388 616.566 462.477 620.522C467.587 625.466 497.098 668.767 508.892 664.777C520.687 660.787 503.385 638.633 501.85 620.346C500.314 602.06 492.788 571.442 486.321 547.544C479.854 523.646 470.693 520.476 460.8 516.037C452.885 512.487 452.502 479.85 453.299 463.976C464.757 475.031 490.982 500.529 504.223 514.087C520.775 531.035 531.629 587.927 538.222 599.347C544.815 610.766 558.473 685.212 572.762 697.264C587.051 709.315 591.106 722.199 600.659 731.909C610.213 741.619 622.949 731.447 639.753 723.437C653.196 717.028 660.055 729.949 661.803 737.21L643.216 766.55C635.446 771.976 618.901 782.844 614.879 782.911C610.857 782.977 588.94 784.541 578.485 785.314L533.422 800.053Z" fill="#CBAF85"/>
</g>
<defs>
<clipPath id="clip0_638_70684">
<rect width="1000" height="1000" fill="white"/>
</clipPath>
</defs>
</svg>
