<svg width="500" height="501" viewBox="0 0 500 501" fill="none" xmlns="http://www.w3.org/2000/svg">
<g clip-path="url(#clip0_471_56)">
<mask id="path-1-outside-1_471_56" maskUnits="userSpaceOnUse" x="-24.3756" y="33.7768" width="533.772" height="471.53" fill="black">
<rect fill="white" x="-24.3756" y="33.7768" width="533.772" height="471.53"/>
<path fill-rule="evenodd" clip-rule="evenodd" d="M274.332 381.747C279.146 384.705 288.731 399.133 299.7 415.644L299.701 415.645C304.555 422.952 309.68 430.666 314.782 437.975C309.104 437.836 305.737 438.849 305.737 438.849L260.445 399.008C260.445 399.008 256.599 389.85 251.047 377.795C253.216 377.985 255.321 378.027 257.383 378.068L257.385 378.068C263.218 378.183 268.706 378.291 274.332 381.747ZM295.225 462.338C314.47 471.165 332.638 475.754 351.725 472.324L388.306 471.003C416.707 458.584 445.24 412.449 447.897 405.292C448.49 403.695 449.489 401.378 450.715 398.536L450.715 398.536C456.358 385.447 466.8 361.227 464.454 345.021C461.739 326.262 449.786 293.641 443.949 282.469C439.28 273.531 368.314 214.933 346.485 202.718L338.172 200.868L337.947 199.258L335.46 197.336L296.619 167.325L295.539 166.491L294.239 166.078L279.788 161.489C267.471 147.451 254.567 134.332 245.139 130.832C231.713 125.847 202.786 110.451 180.481 98.5791L180.48 98.579C166.485 91.13 155.096 85.0685 151.779 83.8371L86.226 59.4996L41.6426 55.6194C41.794 56.1252 41.9469 56.6477 42.1049 57.1872C44.4085 65.0562 47.7702 76.539 62.6663 92.4758C67.4515 97.5954 75.5825 105.677 85.0926 115.129L85.0926 115.129L85.0927 115.129C107.216 137.117 136.804 166.524 149.097 183.319L191.801 274.499C194.578 280.554 200.152 295.14 200.236 305.038C200.273 309.416 200.575 314.75 201.8 320.831C184.857 336.475 250.64 441.89 295.225 462.338Z"/>
</mask>
<path fill-rule="evenodd" clip-rule="evenodd" d="M274.332 381.747C279.146 384.705 288.731 399.133 299.7 415.644L299.701 415.645C304.555 422.952 309.68 430.666 314.782 437.975C309.104 437.836 305.737 438.849 305.737 438.849L260.445 399.008C260.445 399.008 256.599 389.85 251.047 377.795C253.216 377.985 255.321 378.027 257.383 378.068L257.385 378.068C263.218 378.183 268.706 378.291 274.332 381.747ZM295.225 462.338C314.47 471.165 332.638 475.754 351.725 472.324L388.306 471.003C416.707 458.584 445.24 412.449 447.897 405.292C448.49 403.695 449.489 401.378 450.715 398.536L450.715 398.536C456.358 385.447 466.8 361.227 464.454 345.021C461.739 326.262 449.786 293.641 443.949 282.469C439.28 273.531 368.314 214.933 346.485 202.718L338.172 200.868L337.947 199.258L335.46 197.336L296.619 167.325L295.539 166.491L294.239 166.078L279.788 161.489C267.471 147.451 254.567 134.332 245.139 130.832C231.713 125.847 202.786 110.451 180.481 98.5791L180.48 98.579C166.485 91.13 155.096 85.0685 151.779 83.8371L86.226 59.4996L41.6426 55.6194C41.794 56.1252 41.9469 56.6477 42.1049 57.1872C44.4085 65.0562 47.7702 76.539 62.6663 92.4758C67.4515 97.5954 75.5825 105.677 85.0926 115.129L85.0926 115.129L85.0927 115.129C107.216 137.117 136.804 166.524 149.097 183.319L191.801 274.499C194.578 280.554 200.152 295.14 200.236 305.038C200.273 309.416 200.575 314.75 201.8 320.831C184.857 336.475 250.64 441.89 295.225 462.338Z" fill="#D2CBC5"/>
<path d="M299.7 415.644L284.074 426.025L284.104 426.069L284.133 426.113L299.7 415.644ZM274.332 381.747L264.512 397.731L264.512 397.731L274.332 381.747ZM299.701 415.645L315.326 405.265L315.297 405.221L315.267 405.177L299.701 415.645ZM314.782 437.975L314.322 456.729L351.387 457.637L330.164 427.237L314.782 437.975ZM305.737 438.849L293.347 452.934L301.168 459.814L311.142 456.813L305.737 438.849ZM260.445 399.008L243.149 406.271L244.818 410.246L248.055 413.093L260.445 399.008ZM251.047 377.795L252.69 359.107L220.483 356.275L234.008 385.642L251.047 377.795ZM257.383 378.068L257.012 396.823L257.083 396.825L257.153 396.825L257.383 378.068ZM257.385 378.068L257.756 359.312L257.685 359.311L257.615 359.31L257.385 378.068ZM351.725 472.324L351.049 453.577L349.718 453.625L348.408 453.86L351.725 472.324ZM295.225 462.338L303.045 445.287L303.045 445.287L295.225 462.338ZM388.306 471.003L388.982 489.75L392.55 489.622L395.821 488.191L388.306 471.003ZM447.897 405.292L430.311 398.763L430.311 398.763L447.897 405.292ZM450.715 398.536L433.551 390.965L433.519 391.037L433.488 391.109L450.715 398.536ZM450.715 398.536L467.878 406.107L467.91 406.035L467.941 405.963L450.715 398.536ZM464.454 345.021L483.02 342.334L483.02 342.333L464.454 345.021ZM443.949 282.469L460.576 273.783L460.576 273.782L443.949 282.469ZM346.485 202.718L355.646 186.348L353.246 185.004L350.56 184.406L346.485 202.718ZM338.172 200.868L319.592 203.458L321.39 216.352L334.097 219.179L338.172 200.868ZM337.947 199.258L356.527 196.667L355.47 189.09L349.417 184.413L337.947 199.258ZM335.46 197.336L323.99 212.18L323.99 212.18L335.46 197.336ZM296.619 167.325L308.088 152.481L308.088 152.481L296.619 167.325ZM295.539 166.491L307.009 151.647L304.382 149.617L301.217 148.612L295.539 166.491ZM294.239 166.078L288.561 183.957L288.561 183.958L294.239 166.078ZM279.788 161.489L265.687 173.861L269.132 177.787L274.11 179.368L279.788 161.489ZM245.139 130.832L251.668 113.245L251.668 113.245L245.139 130.832ZM180.481 98.5791L189.294 82.0194L189.171 81.9536L189.047 81.8898L180.481 98.5791ZM180.48 98.579L171.667 115.139L171.79 115.204L171.914 115.268L180.48 98.579ZM151.779 83.8371L158.309 66.2508L158.309 66.2508L151.779 83.8371ZM86.226 59.4996L92.7552 41.9132L90.3783 41.0308L87.8525 40.811L86.226 59.4996ZM41.6426 55.6194L43.2691 36.9309L15.7516 34.536L23.6709 60.9978L41.6426 55.6194ZM42.1049 57.1872L24.1013 62.4578L24.1013 62.4578L42.1049 57.1872ZM62.6663 92.4758L48.9616 105.286L48.9616 105.286L62.6663 92.4758ZM85.0926 115.129L99.5401 103.163L98.9608 102.464L98.3167 101.823L85.0926 115.129ZM85.0926 115.129L70.645 127.094L71.2418 127.815L71.9073 128.473L85.0926 115.129ZM85.0927 115.129L98.3168 101.823L98.2974 101.804L98.278 101.785L85.0927 115.129ZM149.097 183.319L166.086 175.363L165.312 173.711L164.235 172.239L149.097 183.319ZM191.801 274.499L208.853 266.68L208.822 266.611L208.789 266.542L191.801 274.499ZM200.236 305.038L218.994 304.879L218.994 304.879L200.236 305.038ZM201.8 320.831L214.526 334.614L222.273 327.461L220.19 317.125L201.8 320.831ZM315.325 405.264C309.912 397.115 304.544 389.029 299.908 382.619C297.588 379.412 295.241 376.329 292.992 373.721C291.089 371.513 287.999 368.127 284.151 365.763L264.512 397.731C263.071 396.846 262.985 396.373 264.575 398.218C265.821 399.663 267.458 401.774 269.508 404.607C273.61 410.279 278.519 417.663 284.074 426.025L315.325 405.264ZM315.267 405.177L315.266 405.176L284.133 426.113L284.134 426.114L315.267 405.177ZM330.164 427.237C325.207 420.136 320.202 412.604 315.326 405.265L284.075 426.026C288.907 433.3 294.153 441.197 299.4 448.713L330.164 427.237ZM305.737 438.849C311.142 456.813 311.138 456.814 311.133 456.815C311.132 456.816 311.127 456.817 311.124 456.818C311.119 456.82 311.113 456.821 311.107 456.823C311.096 456.826 311.084 456.83 311.073 456.833C311.051 456.84 311.03 456.846 311.009 456.852C310.968 456.864 310.929 456.875 310.894 456.885C310.822 456.905 310.762 456.922 310.713 456.935C310.615 456.961 310.56 456.974 310.548 456.977C310.522 456.983 310.661 456.95 310.949 456.906C311.528 456.818 312.687 456.689 314.322 456.729L315.242 419.222C311.198 419.122 307.835 419.43 305.311 419.814C304.048 420.006 302.99 420.217 302.156 420.409C301.739 420.505 301.377 420.595 301.072 420.676C300.92 420.717 300.782 420.755 300.659 420.79C300.597 420.807 300.539 420.824 300.484 420.84C300.457 420.848 300.431 420.856 300.405 420.863C300.393 420.867 300.38 420.871 300.368 420.874C300.362 420.876 300.356 420.878 300.35 420.88C300.347 420.881 300.342 420.882 300.341 420.882C300.336 420.884 300.332 420.885 305.737 438.849ZM248.055 413.093L293.347 452.934L318.127 424.764L272.835 384.922L248.055 413.093ZM234.008 385.642C236.72 391.53 239.016 396.714 240.633 400.42C241.44 402.272 242.076 403.75 242.507 404.759C242.722 405.263 242.886 405.649 242.995 405.905C243.049 406.033 243.089 406.129 243.115 406.19C243.128 406.221 243.137 406.243 243.143 406.257C243.146 406.264 243.148 406.268 243.149 406.27C243.149 406.272 243.15 406.272 243.15 406.272C243.15 406.272 243.15 406.272 243.149 406.272C243.149 406.272 243.149 406.272 243.149 406.272C243.149 406.271 243.149 406.271 260.445 399.008C277.741 391.744 277.741 391.744 277.741 391.743C277.741 391.743 277.74 391.742 277.74 391.742C277.74 391.741 277.739 391.74 277.739 391.739C277.738 391.737 277.737 391.734 277.736 391.731C277.733 391.725 277.729 391.716 277.725 391.705C277.715 391.683 277.702 391.652 277.686 391.613C277.653 391.535 277.605 391.422 277.543 391.276C277.42 390.984 277.24 390.561 277.008 390.018C276.544 388.932 275.872 387.368 275.023 385.423C273.329 381.537 270.927 376.115 268.086 369.947L234.008 385.642ZM257.754 359.312C255.605 359.27 254.125 359.234 252.69 359.107L249.404 396.482C252.307 396.737 255.037 396.784 257.012 396.823L257.754 359.312ZM257.615 359.31L257.613 359.31L257.153 396.825L257.156 396.825L257.615 359.31ZM284.151 365.763C273.643 359.308 263.213 359.42 257.756 359.312L257.015 396.823C263.222 396.946 263.769 397.275 264.512 397.731L284.151 365.763ZM348.408 453.86C334.625 456.337 320.564 453.322 303.045 445.287L287.405 479.39C308.376 489.008 330.65 495.17 355.043 490.787L348.408 453.86ZM387.629 452.256L351.049 453.577L352.402 491.071L388.982 489.75L387.629 452.256ZM430.311 398.763C430.412 398.49 429.145 401.204 425.602 406.81C422.422 411.841 418.09 418.131 413.021 424.564C402.295 438.178 390.47 449.583 380.79 453.816L395.821 488.191C414.543 480.005 431.185 462.133 442.491 447.784C448.437 440.237 453.512 432.875 457.317 426.855C460.758 421.41 464.054 415.672 465.484 411.821L430.311 398.763ZM433.488 391.109C432.357 393.733 431.115 396.598 430.311 398.763L465.484 411.821C465.865 410.793 466.622 409.023 467.941 405.963L433.488 391.109ZM433.551 390.965L433.551 390.965L467.878 406.107L467.878 406.107L433.551 390.965ZM445.888 347.708C446.431 351.458 445.524 358.192 442.667 367.375C439.98 376.016 436.344 384.485 433.488 391.109L467.941 405.963C470.728 399.497 475.135 389.313 478.493 378.52C481.681 368.269 484.823 354.79 483.02 342.334L445.888 347.708ZM427.322 291.155C429.58 295.476 433.665 305.367 437.617 316.955C441.571 328.549 444.784 340.079 445.888 347.708L483.02 342.333C481.409 331.203 477.288 317.044 473.127 304.845C468.965 292.639 464.156 280.634 460.576 273.783L427.322 291.155ZM337.325 219.088C346.535 224.242 368.46 240.835 389.745 258.318C400.12 266.84 409.862 275.176 417.216 281.848C420.91 285.2 423.848 287.993 425.913 290.101C426.952 291.162 427.625 291.903 428.008 292.356C428.606 293.062 428.034 292.516 427.322 291.155L460.576 273.782C459.281 271.303 457.608 269.253 456.642 268.113C455.462 266.719 454.111 265.272 452.719 263.852C449.924 260.997 446.382 257.651 442.425 254.061C434.478 246.851 424.238 238.098 413.559 229.326C392.737 212.223 368.265 193.409 355.646 186.348L337.325 219.088ZM334.097 219.179L342.411 221.029L350.56 184.406L342.246 182.556L334.097 219.179ZM319.368 201.848L319.592 203.458L356.751 198.277L356.527 196.667L319.368 201.848ZM323.99 212.18L326.477 214.102L349.417 184.413L346.929 182.491L323.99 212.18ZM285.149 182.17L323.99 212.18L346.929 182.491L308.088 152.481L285.149 182.17ZM284.07 181.336L285.149 182.17L308.088 152.481L307.009 151.647L284.07 181.336ZM288.561 183.958L289.861 184.37L301.217 148.612L299.917 148.199L288.561 183.958ZM274.11 179.368L288.561 183.957L299.917 148.199L285.466 143.61L274.11 179.368ZM238.61 148.418C239.684 148.817 243.01 150.796 248.675 156.01C253.894 160.815 259.69 167.027 265.687 173.861L293.889 149.116C287.568 141.913 280.754 134.546 274.085 128.407C267.861 122.678 260.022 116.347 251.668 113.245L238.61 148.418ZM171.667 115.139C193.243 126.623 223.673 142.872 238.61 148.418L251.668 113.245C239.753 108.822 212.329 94.2792 189.294 82.0194L171.667 115.139ZM171.914 115.268L171.915 115.268L189.047 81.8898L189.046 81.8897L171.914 115.268ZM145.25 101.423C145.104 101.369 145.679 101.596 147.449 102.462C149.009 103.225 151.031 104.254 153.485 105.527C158.39 108.073 164.637 111.397 171.667 115.139L189.294 82.0192C182.328 78.3115 175.883 74.8812 170.766 72.2256C166.178 69.8449 161.307 67.3641 158.309 66.2508L145.25 101.423ZM79.6969 77.0859L145.25 101.423L158.309 66.2508L92.7552 41.9132L79.6969 77.0859ZM40.0161 74.308L84.5995 78.1882L87.8525 40.811L43.2691 36.9309L40.0161 74.308ZM60.1085 51.9166C59.9537 51.3878 59.7846 50.8102 59.6143 50.241L23.6709 60.9978C23.8033 61.4403 23.9402 61.9077 24.1013 62.4578L60.1085 51.9166ZM76.3709 79.666C64.1986 66.6432 61.9476 58.1987 60.1085 51.9166L24.1013 62.4578C26.8695 71.9137 31.3418 86.4348 48.9616 105.286L76.3709 79.666ZM98.3167 101.823C88.6741 92.2396 80.8583 84.4669 76.3709 79.666L48.9616 105.286C54.0447 110.724 62.4908 119.114 71.8685 128.434L98.3167 101.823ZM99.5402 103.163L99.5401 103.163L70.645 127.094L70.645 127.094L99.5402 103.163ZM98.278 101.785L98.2778 101.785L71.9073 128.473L71.9075 128.473L98.278 101.785ZM164.235 172.239C150.836 153.935 119.835 123.211 98.3168 101.823L71.8686 128.434C94.5971 151.024 122.771 179.113 133.96 194.399L164.235 172.239ZM208.789 266.542L166.086 175.363L132.109 191.276L174.813 282.455L208.789 266.542ZM218.994 304.879C218.929 297.134 216.85 288.904 214.944 282.766C212.937 276.303 210.554 270.389 208.853 266.68L174.749 282.317C175.825 284.664 177.617 289.071 179.112 293.89C180.709 299.032 181.459 303.044 181.477 305.198L218.994 304.879ZM220.19 317.125C219.271 312.564 219.025 308.488 218.994 304.879L181.477 305.198C181.521 310.343 181.879 316.936 183.411 324.537L220.19 317.125ZM303.045 445.287C295.209 441.693 284.728 433.37 273.13 420.981C261.836 408.916 250.64 394.25 241.206 379.618C231.702 364.878 224.457 350.904 220.623 340.291C218.67 334.885 217.959 331.318 217.847 329.445C217.693 326.872 218.686 330.773 214.526 334.614L189.075 307.048C180.679 314.8 180.021 325.417 180.396 331.684C180.812 338.65 182.809 346.045 185.337 353.041C190.465 367.232 199.276 383.823 209.673 399.949C220.14 416.181 232.69 432.681 245.74 446.621C258.487 460.237 272.949 472.76 287.405 479.39L303.045 445.287Z" fill="#696969" mask="url(#path-1-outside-1_471_56)"/>
<path d="M207.757 250.025L257.202 235.36L292.112 216.542L304.7 226.535L334.289 227.314C361.412 257.379 415.944 318.105 417.086 320.493C418.514 323.478 419.163 355.792 416.567 363.579C414.491 369.808 404.368 391.351 399.566 401.344L364.657 436.254C346.272 437.595 308.619 439.913 305.089 438.46C301.559 437.006 280.215 423.622 268.363 415.49L235.529 382.656L227.353 350.082L227.223 346.578L229.819 301.416L220.475 292.072L207.757 250.025Z" fill="#CBC3BC"/>
<path d="M97.7061 94.0327L137.807 98.0558L250.193 148.928C259.148 162.295 277.342 190.353 278.484 195.648C279.627 200.942 262.435 209.62 257.85 219.397L216.841 230.557L192.053 227.832L97.7061 94.0327Z" fill="#CBC3BC"/>
<path d="M301.606 309.346L323.652 261.093L368.344 273.956C383.233 292.069 412.917 330.46 412.545 339.126C412.08 349.958 406.098 366.54 405.48 373.118C404.985 378.38 354.048 413.018 328.641 429.679L303.062 415.478L307.646 366.69L301.606 309.346Z" fill="#BBB3AB"/>
<path d="M302.38 318.96L322.541 274.832L363.412 286.596C377.028 303.16 404.174 338.269 403.834 346.193C403.409 356.1 397.938 371.263 397.373 377.279C396.921 382.092 350.338 413.768 327.104 429.005L303.712 416.017L307.904 371.401L302.38 318.96Z" fill="#ACA195"/>
<path d="M312.033 328.605L326.905 296.054L357.053 304.731C367.097 316.95 387.121 342.848 386.87 348.694C386.557 356.001 382.521 367.187 382.104 371.624C381.771 375.174 347.409 398.54 330.27 409.779L313.015 400.199L316.108 367.288L312.033 328.605Z" fill="#90867B"/>
<path d="M323.961 336.062L334.189 313.678L354.921 319.645C361.828 328.047 375.599 345.857 375.427 349.878C375.211 354.903 372.436 362.595 372.149 365.647C371.92 368.088 348.289 384.157 336.503 391.886L324.637 385.298L326.764 362.665L323.961 336.062Z" fill="#7B756D"/>
<path d="M332.454 342.241L339.166 327.551L352.771 331.467C357.303 336.981 366.34 348.668 366.227 351.306C366.085 354.604 364.264 359.652 364.076 361.654C363.925 363.256 348.419 373.801 340.685 378.873L332.898 374.549L334.293 359.697L332.454 342.241Z" fill="#696560"/>
<path d="M160.139 114.138L191.545 125.299C196.606 127.245 203.085 135.717 206.718 135.821C210.352 135.925 240.979 151.913 255.384 166.319L260.845 180.843L255.125 198.503L238.514 215.114L215.683 200.569L176.88 165.659L137.428 126.207L137.039 108.947L160.139 114.138Z" fill="#BBB3AB"/>
<path d="M176.162 139.886L198.603 147.881C202.219 149.275 206.853 155.331 209.448 155.408C212.044 155.485 233.931 166.927 244.231 177.227L248.142 187.606L244.069 200.215L232.217 212.068L215.899 201.662L188.158 176.698L159.95 148.49L159.659 136.161L176.162 139.886Z" fill="#ACA195"/>
<path d="M177.158 149.652L195.014 159.677C197.911 161.37 202.422 166.652 204.328 167.193C206.235 167.734 224.333 180.17 233.768 189.605L238.561 197.904L237.949 206.335L232.154 212.13L216.581 202.527L189.328 178.129L165.968 154.769L164.429 143.85L177.158 149.652Z" fill="#91867B"/>
<path d="M259.278 267.285L257.72 235.1L208.016 250.284L220.085 291.423L230.467 301.805L259.148 312.317L251.491 399.657L264.858 413.023L272.385 415.619L277.576 404.977L287.439 379.022L281.988 336.975L271.087 302.194L259.278 267.285Z" fill="#C0B8B0"/>
<path d="M240.46 271.048L236.048 241.978L208.016 250.284L220.085 291.423L230.467 301.805L259.148 312.317L251.491 399.657L264.858 413.023L271.606 416.398L269.4 400.695L271.477 375.778L270.568 341.906L262.392 304.66L240.46 271.048Z" fill="#B7ACA2"/>
<path d="M294.318 263.911L332.472 225.757L310.151 219.008C303.965 227.271 291.281 244.263 290.036 246.132C288.79 248 260.966 279.268 247.209 294.668L223.46 305.699L222.811 341.906L230.987 384.862L251.103 408.871L259.408 313.096L294.318 263.911Z" fill="#D2CBC5"/>
<path d="M125.479 123.363L112.89 95.98L97.8361 95.7205L192.832 227.833L216.322 229.779L230.208 228.092L201.527 214.985L143.777 149.967L125.479 123.363Z" fill="#C0B8B0"/>
</g>
<defs>
<clipPath id="clip0_471_56">
<rect width="500" height="500" fill="white" transform="translate(0 0.355469)"/>
</clipPath>
</defs>
</svg>
