<svg width="400" height="400" viewBox="0 0 400 400" fill="none" xmlns="http://www.w3.org/2000/svg">
<g clip-path="url(#clip0_471_56)">
<mask id="path-1-outside-1_471_56" maskUnits="userSpaceOnUse" x="-20.0767" y="25.8625" width="428.25" height="377.734" fill="black">
<rect fill="white" x="-20.0767" y="25.8625" width="428.25" height="377.734"/>
<path fill-rule="evenodd" clip-rule="evenodd" d="M219.357 304.963C223.207 307.328 230.871 318.865 239.642 332.067L239.643 332.068C243.524 337.911 247.622 344.079 251.702 349.923C247.161 349.812 244.469 350.622 244.469 350.622L208.253 318.764C208.253 318.764 205.178 311.442 200.739 301.802C202.474 301.955 204.157 301.988 205.807 302.021L205.807 302.021C210.471 302.113 214.859 302.199 219.357 304.963ZM236.064 369.404C251.452 376.462 265.979 380.131 281.242 377.388L310.491 376.332C333.202 366.402 356.017 329.512 358.141 323.789C358.615 322.513 359.414 320.66 360.394 318.388L360.394 318.387C364.906 307.922 373.256 288.555 371.38 275.596C369.209 260.596 359.651 234.512 354.985 225.579C351.251 218.432 294.506 171.577 277.052 161.81L270.404 160.331L270.224 159.043L268.235 157.506L237.178 133.51L236.315 132.843L235.275 132.513L223.72 128.843C213.871 117.618 203.553 107.128 196.015 104.329C185.279 100.343 162.149 88.0326 144.313 78.5399L144.313 78.5398L144.313 78.5397C133.122 72.5835 124.016 67.7368 121.364 66.7522L68.9469 47.2917L33.2978 44.1891C33.4188 44.5935 33.5411 45.0113 33.6674 45.4427L33.6674 45.4427L33.6674 45.4427C35.5095 51.7348 38.1974 60.9165 50.1084 73.6597C53.9348 77.7533 60.4364 84.2152 68.0408 91.7731L68.0409 91.7732C85.731 109.355 109.389 132.869 119.219 146.299L153.365 219.206C155.585 224.048 160.043 235.711 160.11 243.626C160.139 247.126 160.381 251.392 161.361 256.254C147.812 268.763 200.413 353.053 236.064 369.404Z"/>
</mask>
<path fill-rule="evenodd" clip-rule="evenodd" d="M219.357 304.963C223.207 307.328 230.871 318.865 239.642 332.067L239.643 332.068C243.524 337.911 247.622 344.079 251.702 349.923C247.161 349.812 244.469 350.622 244.469 350.622L208.253 318.764C208.253 318.764 205.178 311.442 200.739 301.802C202.474 301.955 204.157 301.988 205.807 302.021L205.807 302.021C210.471 302.113 214.859 302.199 219.357 304.963ZM236.064 369.404C251.452 376.462 265.979 380.131 281.242 377.388L310.491 376.332C333.202 366.402 356.017 329.512 358.141 323.789C358.615 322.513 359.414 320.66 360.394 318.388L360.394 318.387C364.906 307.922 373.256 288.555 371.38 275.596C369.209 260.596 359.651 234.512 354.985 225.579C351.251 218.432 294.506 171.577 277.052 161.81L270.404 160.331L270.224 159.043L268.235 157.506L237.178 133.51L236.315 132.843L235.275 132.513L223.72 128.843C213.871 117.618 203.553 107.128 196.015 104.329C185.279 100.343 162.149 88.0326 144.313 78.5399L144.313 78.5398L144.313 78.5397C133.122 72.5835 124.016 67.7368 121.364 66.7522L68.9469 47.2917L33.2978 44.1891C33.4188 44.5935 33.5411 45.0113 33.6674 45.4427L33.6674 45.4427L33.6674 45.4427C35.5095 51.7348 38.1974 60.9165 50.1084 73.6597C53.9348 77.7533 60.4364 84.2152 68.0408 91.7731L68.0409 91.7732C85.731 109.355 109.389 132.869 119.219 146.299L153.365 219.206C155.585 224.048 160.043 235.711 160.11 243.626C160.139 247.126 160.381 251.392 161.361 256.254C147.812 268.763 200.413 353.053 236.064 369.404Z" fill="#D2CBC5"/>
<path d="M239.642 332.067L252.222 323.898L252.179 323.832L252.136 323.767L239.642 332.067ZM219.357 304.963L211.506 317.744L211.506 317.744L219.357 304.963ZM239.643 332.068L227.063 340.238L227.105 340.303L227.148 340.369L239.643 332.068ZM251.702 349.923L251.334 364.918L280.971 365.645L264.001 341.336L251.702 349.923ZM244.469 350.622L234.562 361.884L240.815 367.385L248.791 364.985L244.469 350.622ZM208.253 318.764L194.423 324.572L195.758 327.75L198.346 330.027L208.253 318.764ZM200.739 301.802L202.053 286.86L176.299 284.595L187.114 308.077L200.739 301.802ZM205.807 302.021L207.21 287.086L206.658 287.034L206.103 287.023L205.807 302.021ZM205.807 302.021L204.404 316.955L204.956 317.007L205.511 317.018L205.807 302.021ZM281.242 377.388L280.7 362.398L279.637 362.436L278.589 362.625L281.242 377.388ZM236.064 369.404L242.317 355.77L236.064 369.404ZM310.491 376.332L311.032 391.323L313.885 391.22L316.501 390.076L310.491 376.332ZM358.141 323.789L372.204 329.01L358.141 323.789ZM360.394 318.388L346.838 311.965L346.725 312.205L346.619 312.449L360.394 318.388ZM360.394 318.387L373.949 324.81L374.063 324.57L374.168 324.326L360.394 318.387ZM371.38 275.596L356.535 277.745L356.535 277.745L371.38 275.596ZM354.985 225.579L368.28 218.634L354.985 225.579ZM277.052 161.81L284.377 148.72L282.457 147.646L280.31 147.168L277.052 161.81ZM270.404 160.331L255.548 162.402L256.985 172.711L267.146 174.972L270.404 160.331ZM270.224 159.043L285.081 156.972L284.236 150.913L279.396 147.173L270.224 159.043ZM268.235 157.506L277.407 145.637L277.407 145.636L268.235 157.506ZM237.178 133.51L246.349 121.64L246.349 121.64L237.178 133.51ZM236.315 132.843L245.486 120.973L243.385 119.35L240.855 118.547L236.315 132.843ZM235.275 132.513L230.735 146.809L230.735 146.809L235.275 132.513ZM223.72 128.843L212.445 138.736L215.2 141.875L219.18 143.139L223.72 128.843ZM196.015 104.329L201.236 90.2671L201.236 90.2671L196.015 104.329ZM144.313 78.5399L137.042 91.6595L137.153 91.7213L137.266 91.7812L144.313 78.5399ZM144.313 78.5398L151.585 65.4202L151.312 65.2692L151.034 65.1297L144.313 78.5398ZM144.313 78.5397L137.265 91.781L137.428 91.8674L137.592 91.9499L144.313 78.5397ZM121.364 66.7522L126.585 52.69L126.585 52.69L121.364 66.7522ZM68.9469 47.2917L74.1677 33.2296L72.2671 32.524L70.2475 32.3482L68.9469 47.2917ZM33.2978 44.1891L34.5984 29.2456L12.5953 27.3306L18.9275 48.4897L33.2978 44.1891ZM33.6674 45.4427L19.2716 49.6571L19.2953 49.7378L19.3198 49.8184L33.6674 45.4427ZM33.6674 45.4427L48.5523 43.588L48.3924 42.3043L48.015 41.067L33.6674 45.4427ZM33.6674 45.4427L18.7825 47.2973L18.932 48.4969L19.2716 49.6571L33.6674 45.4427ZM50.1084 73.6597L39.1501 83.9024L39.1501 83.9024L50.1084 73.6597ZM68.0408 91.7731L78.9311 81.4581L78.7754 81.2937L78.6148 81.1341L68.0408 91.7731ZM68.0409 91.7732L57.1505 102.088L57.3062 102.253L57.4668 102.412L68.0409 91.7732ZM119.219 146.299L132.803 139.937L132.185 138.616L131.323 137.439L119.219 146.299ZM153.365 219.206L167 212.954L166.975 212.899L166.949 212.844L153.365 219.206ZM160.11 243.626L175.109 243.499L175.109 243.499L160.11 243.626ZM161.361 256.254L171.536 267.275L177.731 261.556L176.065 253.291L161.361 256.254ZM252.136 323.767C247.807 317.251 243.515 310.785 239.808 305.66C237.953 303.096 236.077 300.631 234.278 298.545C232.756 296.779 230.286 294.072 227.209 292.182L211.506 317.744C210.353 317.036 210.284 316.658 211.556 318.133C212.552 319.288 213.861 320.976 215.5 323.242C218.78 327.777 222.706 333.681 227.148 340.367L252.136 323.767ZM252.223 323.899L252.222 323.898L227.062 340.237L227.063 340.238L252.223 323.899ZM264.001 341.336C260.037 335.659 256.036 329.636 252.137 323.768L227.148 340.369C231.012 346.185 235.206 352.499 239.402 358.509L264.001 341.336ZM244.469 350.622C248.791 364.985 248.788 364.986 248.784 364.988C248.783 364.988 248.779 364.989 248.777 364.99C248.772 364.991 248.768 364.992 248.763 364.994C248.754 364.996 248.745 364.999 248.736 365.002C248.719 365.007 248.702 365.012 248.685 365.017C248.652 365.027 248.621 365.035 248.593 365.043C248.536 365.06 248.487 365.073 248.448 365.083C248.37 365.104 248.326 365.114 248.316 365.117C248.295 365.121 248.406 365.095 248.637 365.06C249.099 364.99 250.027 364.886 251.334 364.918L252.069 334.927C248.836 334.848 246.147 335.094 244.128 335.401C243.118 335.554 242.272 335.724 241.606 335.877C241.272 335.953 240.982 336.026 240.739 336.091C240.617 336.123 240.507 336.153 240.408 336.181C240.359 336.195 240.312 336.209 240.269 336.222C240.247 336.228 240.226 336.234 240.206 336.24C240.196 336.243 240.186 336.246 240.176 336.249C240.171 336.25 240.166 336.252 240.161 336.253C240.159 336.254 240.155 336.255 240.154 336.256C240.151 336.257 240.147 336.258 244.469 350.622ZM198.346 330.027L234.562 361.884L254.376 339.359L218.161 307.502L198.346 330.027ZM187.114 308.077C189.282 312.785 191.119 316.93 192.411 319.894C193.057 321.374 193.565 322.557 193.91 323.363C194.082 323.766 194.213 324.075 194.3 324.28C194.343 324.382 194.375 324.458 194.396 324.508C194.407 324.532 194.414 324.55 194.419 324.561C194.421 324.566 194.422 324.57 194.423 324.572C194.424 324.573 194.424 324.573 194.424 324.573C194.424 324.573 194.424 324.573 194.424 324.573C194.424 324.573 194.424 324.573 194.424 324.573C194.424 324.572 194.423 324.572 208.253 318.764C222.083 312.956 222.083 312.956 222.083 312.956C222.083 312.955 222.083 312.955 222.083 312.955C222.082 312.954 222.082 312.953 222.082 312.952C222.081 312.951 222.08 312.949 222.079 312.946C222.077 312.941 222.074 312.934 222.07 312.925C222.063 312.908 222.053 312.883 222.039 312.852C222.013 312.789 221.975 312.698 221.925 312.582C221.826 312.349 221.683 312.01 221.497 311.576C221.126 310.708 220.588 309.457 219.91 307.902C218.555 304.795 216.634 300.459 214.363 295.527L187.114 308.077ZM206.103 287.023C204.384 286.989 203.2 286.961 202.053 286.86L199.425 316.744C201.747 316.949 203.931 316.986 205.51 317.018L206.103 287.023ZM207.21 287.086L207.21 287.086L204.403 316.955L204.404 316.955L207.21 287.086ZM227.209 292.182C218.806 287.02 210.467 287.11 206.103 287.023L205.511 317.018C210.474 317.116 210.911 317.379 211.506 317.744L227.209 292.182ZM278.589 362.625C267.568 364.605 256.325 362.194 242.317 355.77L229.81 383.038C246.579 390.729 264.39 395.656 283.894 392.152L278.589 362.625ZM309.95 361.342L280.7 362.398L281.783 392.378L311.032 391.323L309.95 361.342ZM344.079 318.568C344.16 318.35 343.147 320.52 340.314 325.003C337.771 329.026 334.307 334.055 330.254 339.2C321.677 350.085 312.222 359.204 304.482 362.589L316.501 390.076C331.471 383.53 344.778 369.239 353.818 357.766C358.573 351.731 362.631 345.845 365.673 341.031C368.425 336.677 371.06 332.089 372.204 329.01L344.079 318.568ZM346.619 312.449C345.715 314.547 344.722 316.837 344.079 318.568L372.204 329.01C372.509 328.188 373.113 326.773 374.168 324.326L346.619 312.449ZM346.838 311.965L346.838 311.965L373.949 324.81L373.949 324.81L346.838 311.965ZM356.535 277.745C356.969 280.744 356.244 286.128 353.959 293.471C351.81 300.38 348.903 307.153 346.62 312.448L374.168 324.326C376.397 319.156 379.921 311.012 382.605 302.382C385.155 294.186 387.667 283.407 386.225 273.447L356.535 277.745ZM341.689 232.524C343.494 235.98 346.761 243.889 349.921 253.154C353.083 262.425 355.652 271.645 356.535 277.745L386.225 273.447C384.937 264.547 381.642 253.225 378.315 243.471C374.987 233.711 371.142 224.112 368.28 218.634L341.689 232.524ZM269.727 174.9C277.092 179.021 294.623 192.288 311.643 206.268C319.938 213.082 327.728 219.748 333.608 225.083C336.562 227.763 338.912 229.996 340.563 231.682C341.393 232.531 341.931 233.123 342.238 233.485C342.716 234.049 342.258 233.613 341.689 232.524L368.28 218.634C367.244 216.651 365.906 215.012 365.134 214.1C364.19 212.985 363.11 211.829 361.997 210.693C359.762 208.41 356.929 205.734 353.766 202.864C347.411 197.099 339.224 190.1 330.684 183.086C314.035 169.41 294.467 154.366 284.377 148.72L269.727 174.9ZM267.146 174.972L273.794 176.452L280.31 147.168L273.662 145.689L267.146 174.972ZM255.368 161.114L255.548 162.402L285.26 158.259L285.081 156.972L255.368 161.114ZM259.064 169.376L261.053 170.913L279.396 147.173L277.407 145.637L259.064 169.376ZM228.007 145.38L259.064 169.376L277.407 145.636L246.349 121.64L228.007 145.38ZM227.144 144.713L228.007 145.38L246.349 121.64L245.486 120.973L227.144 144.713ZM230.735 146.809L231.774 147.139L240.855 118.547L239.816 118.216L230.735 146.809ZM219.18 143.139L230.735 146.809L239.816 118.216L228.261 114.547L219.18 143.139ZM190.794 118.391C191.653 118.71 194.313 120.293 198.842 124.462C203.015 128.304 207.65 133.271 212.445 138.736L234.995 118.95C229.942 113.19 224.493 107.299 219.16 102.391C214.184 97.8092 207.915 92.7471 201.236 90.2671L190.794 118.391ZM137.266 91.7812C154.518 100.964 178.85 113.957 190.794 118.391L201.236 90.2671C191.708 86.7298 169.779 75.1017 151.361 65.2986L137.266 91.7812ZM137.042 91.6594L137.042 91.6595L151.585 65.4202L151.585 65.4202L137.042 91.6594ZM137.592 91.9499L137.593 91.9499L151.034 65.1297L151.034 65.1296L137.592 91.9499ZM116.143 80.8143C116.026 80.7708 116.486 80.9521 117.901 81.6448C119.148 82.2552 120.766 83.0777 122.727 84.0957C126.649 86.1308 131.645 88.7895 137.265 91.781L151.361 65.2984C145.79 62.3337 140.637 59.5909 136.545 57.4675C132.877 55.5639 128.982 53.5802 126.585 52.69L116.143 80.8143ZM63.7262 61.3538L116.143 80.8143L126.585 52.69L74.1677 33.2296L63.7262 61.3538ZM31.9973 59.1326L67.6464 62.2352L70.2475 32.3482L34.5984 29.2456L31.9973 59.1326ZM48.0632 41.2283C47.9394 40.8054 47.8043 40.3436 47.6681 39.8885L18.9275 48.4897C19.0334 48.8435 19.1429 49.2172 19.2716 49.6571L48.0632 41.2283ZM48.015 41.067L48.015 41.067L19.3198 49.8184L19.3198 49.8184L48.015 41.067ZM48.5523 43.588L48.5523 43.588L18.7825 47.2973L18.7825 47.2973L48.5523 43.588ZM61.0668 63.4169C51.3337 53.0038 49.5338 46.2515 48.0632 41.2283L19.2716 49.6571C21.4851 57.218 25.0612 68.8292 39.1501 83.9024L61.0668 63.4169ZM78.6148 81.1341C70.9045 73.4709 64.6549 67.2557 61.0668 63.4169L39.1501 83.9024C43.2146 88.2509 49.9682 94.9595 57.4667 102.412L78.6148 81.1341ZM78.9312 81.4582L78.9311 81.4581L57.1504 102.088L57.1505 102.088L78.9312 81.4582ZM131.323 137.439C120.61 122.803 95.8214 98.2356 78.6149 81.1342L57.4668 102.412C75.6406 120.475 98.1684 142.935 107.115 155.158L131.323 137.439ZM166.949 212.844L132.803 139.937L105.635 152.661L139.781 225.568L166.949 212.844ZM175.109 243.499C175.057 237.306 173.394 230.725 171.87 225.817C170.266 220.649 168.36 215.92 167 212.954L139.73 225.458C140.591 227.334 142.023 230.859 143.219 234.711C144.496 238.823 145.096 242.032 145.11 243.753L175.109 243.499ZM176.065 253.291C175.33 249.643 175.134 246.384 175.109 243.499L145.11 243.753C145.145 247.868 145.432 253.14 146.656 259.217L176.065 253.291ZM242.317 355.77C236.05 352.895 227.671 346.241 218.396 336.334C209.366 326.687 200.413 314.96 192.869 303.26C185.27 291.474 179.477 280.3 176.411 271.814C174.849 267.491 174.281 264.639 174.192 263.141C174.069 261.084 174.862 264.204 171.536 267.275L151.185 245.233C144.472 251.431 143.946 259.921 144.245 264.932C144.578 270.502 146.175 276.415 148.197 282.009C152.297 293.356 159.342 306.622 167.656 319.517C176.025 332.496 186.06 345.689 196.495 356.836C206.687 367.724 218.252 377.737 229.81 383.038L242.317 355.77Z" fill="#696969" mask="url(#path-1-outside-1_471_56)"/>
<path d="M166.123 199.637L205.66 187.911L233.574 172.864L243.639 180.855L267.299 181.477C288.987 205.517 332.591 254.075 333.504 255.984C334.646 258.371 335.164 284.209 333.089 290.436C331.429 295.417 323.335 312.642 319.495 320.633L291.581 348.547C276.88 349.619 246.773 351.473 243.951 350.311C241.128 349.149 224.062 338.446 214.584 331.944L188.33 305.69L181.793 279.644L181.689 276.842L183.764 240.73L176.293 233.258L166.123 199.637Z" fill="#CBC3BC"/>
<path d="M78.1261 74.9052L110.191 78.122L200.056 118.8C207.216 129.488 221.764 151.923 222.678 156.157C223.591 160.391 209.845 167.33 206.178 175.147L173.387 184.071L153.567 181.892L78.1261 74.9052Z" fill="#CBC3BC"/>
<path d="M241.165 247.071L258.793 208.487L294.529 218.773C306.434 233.256 330.17 263.954 329.873 270.883C329.501 279.545 324.718 292.803 324.223 298.063C323.828 302.271 283.098 329.968 262.783 343.29L242.329 331.935L245.995 292.923L241.165 247.071Z" fill="#BBB3AB"/>
<path d="M241.784 254.758L257.906 219.473L290.586 228.879C301.473 242.124 323.179 270.197 322.908 276.534C322.568 284.455 318.193 296.58 317.741 301.39C317.38 305.239 280.132 330.567 261.554 342.75L242.849 332.366L246.201 296.69L241.784 254.758Z" fill="#ACA195"/>
<path d="M249.503 262.47L261.395 236.442L285.501 243.381C293.532 253.151 309.544 273.859 309.343 278.533C309.093 284.376 305.866 293.32 305.532 296.869C305.266 299.707 277.79 318.391 264.086 327.378L250.288 319.718L252.761 293.401L249.503 262.47Z" fill="#90867B"/>
<path d="M259.041 268.433L267.219 250.534L283.797 255.306C289.32 262.025 300.331 276.265 300.193 279.48C300.021 283.498 297.801 289.649 297.572 292.089C297.389 294.041 278.494 306.89 269.07 313.07L259.581 307.802L261.282 289.705L259.041 268.433Z" fill="#7B756D"/>
<path d="M265.832 273.373L271.199 261.628L282.077 264.759C285.702 269.168 292.927 278.513 292.837 280.622C292.724 283.259 291.267 287.295 291.117 288.897C290.997 290.178 278.598 298.609 272.413 302.665L266.187 299.208L267.303 287.332L265.832 273.373Z" fill="#696560"/>
<path d="M128.048 90.9812L153.16 99.9054C157.207 101.462 162.387 108.236 165.293 108.319C168.198 108.402 192.688 121.187 204.206 132.705L208.573 144.319L203.999 158.44L190.716 171.723L172.461 160.092L141.434 132.178L109.888 100.632L109.577 86.8304L128.048 90.9812Z" fill="#BBB3AB"/>
<path d="M140.86 111.57L158.804 117.962C161.696 119.077 165.4 123.92 167.476 123.981C169.551 124.042 187.053 133.192 195.288 141.428L198.416 149.726L195.159 159.809L185.682 169.286L172.634 160.966L150.452 141.005L127.897 118.449L127.664 108.591L140.86 111.57Z" fill="#ACA195"/>
<path d="M141.656 119.378L155.934 127.395C158.251 128.748 161.857 132.971 163.382 133.404C164.906 133.837 179.377 143.781 186.922 151.326L190.754 157.961L190.265 164.703L185.632 169.336L173.179 161.657L151.387 142.149L132.709 123.47L131.478 114.739L141.656 119.378Z" fill="#91867B"/>
<path d="M207.32 213.438L206.074 187.703L166.33 199.844L175.981 232.739L184.283 241.041L207.216 249.446L201.093 319.283L211.782 329.972L217.8 332.047L221.951 323.538L229.838 302.784L225.479 269.163L216.763 241.352L207.32 213.438Z" fill="#C0B8B0"/>
<path d="M192.273 216.448L188.744 193.203L166.33 199.844L175.981 232.739L184.282 241.041L207.215 249.446L201.093 319.284L211.781 329.972L217.177 332.67L215.413 320.114L217.074 300.19L216.347 273.106L209.81 243.324L192.273 216.448Z" fill="#B7ACA2"/>
<path d="M235.338 210.74L265.846 180.232L247.998 174.836C243.052 181.443 232.91 195.03 231.914 196.524C230.917 198.018 208.669 223.02 197.67 235.334L178.68 244.154L178.161 273.106L184.698 307.454L200.783 326.651L207.424 250.069L235.338 210.74Z" fill="#D2CBC5"/>
<path d="M100.333 98.3572L90.2674 76.4618L78.2301 76.2542L154.19 181.892L172.972 183.449L184.075 182.1L161.142 171.619L114.965 119.63L100.333 98.3572Z" fill="#C0B8B0"/>
</g>
<defs>
<clipPath id="clip0_471_56">
<rect width="400" height="400" fill="white"/>
</clipPath>
</defs>
</svg>
