<svg width="1514" height="1514" viewBox="0 0 1514 1514" fill="none" xmlns="http://www.w3.org/2000/svg">
<path d="M589.177 166.138C618.884 75.0694 693.037 26.6207 693.037 26.6207C693.037 26.6207 747.343 -15.7725 823.647 13.5314C899.95 42.8352 1057.61 155.017 1008.59 263.16C959.578 371.304 893.886 603.949 982.823 1023.16C1071.76 1442.38 739.821 1560.66 618.991 1470.37C546.832 1416.45 538.566 1296.33 589.177 1171.17C625.301 1081.83 663.663 943.779 614.704 802.343C565.745 660.907 737.96 671.334 622.529 513.294C578.566 453.104 578.566 298.533 578.566 298.533C578.566 298.533 570.097 224.63 589.177 166.138Z" fill="#C3B47A"/>
</svg>
