<svg width="3027" height="3027" viewBox="0 0 3027 3027" fill="none" xmlns="http://www.w3.org/2000/svg">
<path d="M1178.35 331.263C1237.77 149.125 1386.07 52.2277 1386.07 52.2277C1386.07 52.2277 1494.69 -32.5587 1647.29 26.049C1799.9 84.6567 2115.22 309.02 2017.19 525.307C1919.16 741.594 1787.77 1206.88 1965.65 2045.31C2143.52 2883.74 1479.64 3120.31 1237.98 2939.73C1093.66 2831.89 1077.13 2591.64 1178.35 2341.32C1250.6 2162.65 1327.33 1886.55 1229.41 1603.67C1131.49 1320.8 1475.92 1341.65 1245.06 1025.58C1157.13 905.194 1157.13 596.052 1157.13 596.052C1157.13 596.052 1140.19 448.246 1178.35 331.263Z" fill="#C3B47A"/>
</svg>
