<svg width="501" height="501" viewBox="0 0 501 501" fill="none" xmlns="http://www.w3.org/2000/svg">
<g clip-path="url(#clip0_388_4)">
<mask id="path-1-outside-1_388_4" maskUnits="userSpaceOnUse" x="-46.8619" y="-30.4472" width="588.843" height="588.136" fill="black">
<rect fill="white" x="-46.8619" y="-30.4472" width="588.843" height="588.136"/>
<path fill-rule="evenodd" clip-rule="evenodd" d="M238.894 91.6497C238.505 91.7548 238.086 91.686 237.754 91.4571C233.173 88.3009 227.649 84.2963 223.966 81.5787C223.593 81.3033 223.386 80.8587 223.413 80.3956L224.502 61.8757C224.582 60.5187 222.853 59.8828 222.035 60.9683L203.973 84.9266C203.867 85.0675 203.789 85.2275 203.744 85.3979L200.171 98.729C199.896 99.7574 198.606 100.095 197.862 99.3327L182.665 83.7596C182.132 83.2137 181.258 83.2051 180.713 83.7388C175.931 88.4244 167.595 96.2334 165.978 96.3304C164.379 96.4264 152.179 90.4975 144.894 86.8273C144.047 86.4008 143.035 86.9379 142.911 87.8778L139.728 112.047L135.912 126.287C135.85 126.518 135.729 126.729 135.561 126.899L124.686 137.87C124.339 138.221 123.832 138.358 123.355 138.23L112.73 135.383C112.381 135.29 112.01 135.337 111.696 135.515L80.3129 153.341C79.5503 153.774 79.3835 154.801 79.9699 155.453L99.0006 176.621C99.453 177.124 99.468 177.885 99.0441 178.413C56.4589 231.39 49.8553 299.149 92.6446 373.262C138.817 453.234 241.345 474.153 337.91 418.401C434.475 362.65 470.71 246.571 424.538 166.599C380.129 89.6795 311.28 72.11 238.894 91.6497Z"/>
</mask>
<path fill-rule="evenodd" clip-rule="evenodd" d="M238.894 91.6497C238.505 91.7548 238.086 91.686 237.754 91.4571C233.173 88.3009 227.649 84.2963 223.966 81.5787C223.593 81.3033 223.386 80.8587 223.413 80.3956L224.502 61.8757C224.582 60.5187 222.853 59.8828 222.035 60.9683L203.973 84.9266C203.867 85.0675 203.789 85.2275 203.744 85.3979L200.171 98.729C199.896 99.7574 198.606 100.095 197.862 99.3327L182.665 83.7596C182.132 83.2137 181.258 83.2051 180.713 83.7388C175.931 88.4244 167.595 96.2334 165.978 96.3304C164.379 96.4264 152.179 90.4975 144.894 86.8273C144.047 86.4008 143.035 86.9379 142.911 87.8778L139.728 112.047L135.912 126.287C135.85 126.518 135.729 126.729 135.561 126.899L124.686 137.87C124.339 138.221 123.832 138.358 123.355 138.23L112.73 135.383C112.381 135.29 112.01 135.337 111.696 135.515L80.3129 153.341C79.5503 153.774 79.3835 154.801 79.9699 155.453L99.0006 176.621C99.453 177.124 99.468 177.885 99.0441 178.413C56.4589 231.39 49.8553 299.149 92.6446 373.262C138.817 453.234 241.345 474.153 337.91 418.401C434.475 362.65 470.71 246.571 424.538 166.599C380.129 89.6795 311.28 72.11 238.894 91.6497Z" fill="url(#paint0_linear_388_4)"/>
<path d="M139.728 112.047L188.332 118.449L187.913 121.633L187.081 124.735L139.728 112.047ZM92.6446 373.262L50.1885 397.774L50.1885 397.774L92.6446 373.262ZM337.91 418.401L313.398 375.945L313.398 375.945L337.91 418.401ZM424.538 166.599L382.082 191.111L382.082 191.111L424.538 166.599ZM99.0006 176.621L62.5439 209.397L99.0006 176.621ZM99.0441 178.413L60.8343 147.698L99.0441 178.413ZM124.686 137.87L89.8671 103.36L124.686 137.87ZM123.355 138.23L136.044 90.8767L123.355 138.23ZM135.561 126.899L170.38 161.409L135.561 126.899ZM144.894 86.8273L122.838 130.61L144.894 86.8273ZM142.911 87.8778L94.3072 81.4753L142.911 87.8778ZM182.665 83.7596L217.751 49.5202L182.665 83.7596ZM180.713 83.7388L215.021 118.758L180.713 83.7388ZM197.862 99.3327L232.948 65.0934L197.862 99.3327ZM203.973 84.9266L164.827 55.4155L203.973 84.9266ZM224.502 61.8757L273.442 64.7545L224.502 61.8757ZM222.035 60.9683L261.181 90.4795L222.035 60.9683ZM80.3129 153.341L56.1009 110.713L80.3129 153.341ZM79.9699 155.453L43.5131 188.229L79.9699 155.453ZM237.754 91.4571L265.57 51.0882L237.754 91.4571ZM238.894 91.6497L226.118 44.3197L238.894 91.6497ZM112.73 135.383L125.418 88.0295L112.73 135.383ZM111.696 135.515L135.908 178.143L111.696 135.515ZM223.966 81.5787L253.072 42.1297L223.966 81.5787ZM223.413 80.3956L174.474 77.5169L223.413 80.3956ZM253.072 42.1297C256.553 44.6985 261.604 48.356 265.57 51.0882L209.938 131.826C204.742 128.246 198.746 123.894 194.861 121.028L253.072 42.1297ZM273.442 64.7545L272.353 83.2743L174.474 77.5169L175.563 58.997L273.442 64.7545ZM164.827 55.4155L182.888 31.4572L261.181 90.4795L243.12 114.438L164.827 55.4155ZM152.818 86.0406L156.39 72.7096L251.097 98.0863L247.525 111.417L152.818 86.0406ZM217.751 49.5202L232.948 65.0934L162.776 133.572L147.579 117.999L217.751 49.5202ZM163.041 47.3944C158.682 47.656 155.183 48.4589 152.908 49.097C150.547 49.7593 148.642 50.4903 147.312 51.051C144.736 52.1374 142.846 53.2111 141.912 53.7636C140.035 54.8746 138.852 55.7786 138.73 55.8708C138.33 56.1733 138.583 56.003 139.684 55.0295C141.699 53.2482 144.321 50.7617 146.406 48.7196L215.021 118.758C212.323 121.401 208.386 125.162 204.633 128.481C202.85 130.058 200.417 132.151 197.849 134.091C196.644 135.002 194.508 136.569 191.846 138.144C190.521 138.928 188.281 140.184 185.403 141.398C183.169 142.34 177.099 144.775 168.915 145.266L163.041 47.3944ZM166.95 43.045C170.356 44.7609 174.704 46.899 178.19 48.5152C180.01 49.3591 181.056 49.8093 181.418 49.9558C181.465 49.9746 181.372 49.9365 181.166 49.8598C180.984 49.792 180.516 49.6202 179.838 49.4037C179.268 49.2214 177.885 48.7921 176.007 48.3824C175.043 48.1721 173.554 47.8794 171.7 47.6545C170.749 47.5393 169.562 47.4245 168.189 47.3602C166.835 47.2967 165.083 47.2718 163.041 47.3944L168.915 145.266C161.924 145.686 156.456 144.471 155.108 144.177C152.872 143.689 151.056 143.139 149.985 142.797C147.8 142.098 145.879 141.346 144.649 140.849C142.046 139.796 139.287 138.552 136.947 137.467C132.112 135.225 126.717 132.564 122.838 130.61L166.95 43.045ZM91.1236 105.644L94.3072 81.4753L191.516 94.2802L188.332 118.449L91.1236 105.644ZM88.5584 113.599L92.3741 99.3584L187.081 124.735L183.266 138.976L88.5584 113.599ZM89.8671 103.36L100.742 92.3882L170.38 161.409L159.506 172.381L89.8671 103.36ZM125.418 88.0295L136.044 90.8767L110.667 185.584L100.041 182.737L125.418 88.0295ZM56.1009 110.713L87.4839 92.8876L135.908 178.143L104.525 195.968L56.1009 110.713ZM62.5439 209.397L43.5131 188.229L116.427 122.677L135.457 143.845L62.5439 209.397ZM137.254 209.127C121.796 228.357 113.858 248.82 112.793 270.336C111.716 292.078 117.511 318.283 135.101 348.75L50.1885 397.774C24.9891 354.127 12.6906 309.397 14.8648 265.487C17.0503 221.351 33.7071 181.446 60.8343 147.698L137.254 209.127ZM135.101 348.75C164.44 399.567 234.135 421.708 313.398 375.945L362.422 460.858C248.556 526.598 113.193 506.901 50.1885 397.774L135.101 348.75ZM313.398 375.945C391.504 330.851 412.005 242.939 382.082 191.111L466.994 142.087C529.415 250.203 477.445 394.449 362.422 460.858L313.398 375.945ZM382.082 191.111C364.811 161.196 344.962 146.117 325.458 139.026C305.35 131.716 280.694 131.145 251.671 138.98L226.118 44.3197C269.48 32.6146 315.442 31.0586 358.957 46.8783C403.076 62.9171 439.856 95.0826 466.994 142.087L382.082 191.111ZM135.457 143.845C152.247 162.52 152.482 190.183 137.254 209.127L60.8343 147.698C46.4545 165.587 46.6588 191.728 62.5439 209.397L135.457 143.845ZM159.506 172.381C146.774 185.226 128.136 190.265 110.667 185.584L136.044 90.8767C119.527 86.4509 101.904 91.2149 89.8671 103.36L159.506 172.381ZM183.266 138.976C180.996 147.447 176.554 155.18 170.38 161.409L100.742 92.3882C94.904 98.278 90.7046 105.589 88.5584 113.599L183.266 138.976ZM122.838 130.61C152.224 145.414 187.245 126.699 191.516 94.2802L94.3072 81.4753C98.8252 47.1773 135.87 27.388 166.95 43.045L122.838 130.61ZM147.579 117.999C166.034 136.911 196.252 137.145 215.021 118.758L146.406 48.7196C166.264 29.2648 198.229 29.5165 217.751 49.5202L147.579 117.999ZM247.525 111.417C237.413 149.156 190.063 161.534 162.776 133.572L232.948 65.0934C207.148 38.6556 162.379 50.3586 152.818 86.0406L247.525 111.417ZM243.12 114.438C246.805 109.55 249.513 103.998 251.097 98.0863L156.39 72.7096C158.065 66.4565 160.93 60.5848 164.827 55.4155L243.12 114.438ZM175.563 58.997C172.793 106.081 232.789 128.142 261.181 90.4795L182.888 31.4572C212.917 -8.37639 276.371 14.9566 273.442 64.7545L175.563 58.997ZM104.525 195.968C130.982 180.941 136.769 145.304 116.427 122.677L43.5131 188.229C21.9978 164.297 28.1185 126.606 56.1009 110.713L104.525 195.968ZM265.57 51.0882C253.828 42.9976 239.363 40.7443 226.118 44.3197L251.671 138.98C237.647 142.765 222.345 140.374 209.938 131.826L265.57 51.0882ZM100.041 182.737C112.136 185.977 125.02 184.327 135.908 178.143L87.4839 92.8876C98.9992 86.3471 112.626 84.6019 125.418 88.0295L100.041 182.737ZM194.861 121.028C181.053 110.841 173.479 94.4251 174.474 77.5169L272.353 83.2743C273.293 67.2923 266.133 51.7661 253.072 42.1297L194.861 121.028Z" fill="#374B64" mask="url(#path-1-outside-1_388_4)"/>
<path d="M327.936 422.741C415.814 377.921 457.449 285.434 425.134 222.075C383.69 140.817 295.383 143.686 207.505 188.506C119.628 233.326 79.8693 306.013 121.728 388.085C154.043 451.444 240.058 467.561 327.936 422.741Z" fill="#6A9BD6"/>
<path d="M335.122 418.881C411.068 375.033 450.842 303.269 427.164 262.256C396.796 209.658 322.723 223.542 246.777 267.389C170.83 311.237 133.681 368.58 164.352 421.706C188.031 462.718 259.175 462.728 335.122 418.881Z" fill="#6392C9"/>
<path d="M335.187 419.067C377.927 394.391 402.288 357.428 391.177 338.184C376.928 313.503 336.412 323.343 293.671 348.019C250.931 372.695 228.571 402.448 242.963 427.376C254.073 446.62 292.447 443.743 335.187 419.067Z" fill="#5E88BA"/>
<path d="M334.716 417.697C355.698 405.583 367.658 387.437 362.203 377.989C355.208 365.873 335.317 370.703 314.334 382.818C293.352 394.932 282.374 409.538 289.44 421.776C294.895 431.224 313.733 429.812 334.716 417.697Z" fill="#5A82B0"/>
<path d="M334.716 417.697C355.698 405.583 367.658 387.437 362.203 377.989C355.208 365.873 335.317 370.703 314.334 382.818C293.352 394.932 282.374 409.538 289.44 421.776C294.895 431.224 313.733 429.812 334.716 417.697Z" fill="#5A82B0"/>
</g>
<defs>
<linearGradient id="paint0_linear_388_4" x1="183.73" y1="137.261" x2="397.665" y2="421.376" gradientUnits="userSpaceOnUse">
<stop offset="0.0572891" stop-color="#8CBBF3"/>
<stop offset="0.289813" stop-color="#6A9BD6"/>
</linearGradient>
<clipPath id="clip0_388_4">
<rect width="500" height="500" fill="white" transform="translate(0.0556641 0.786133)"/>
</clipPath>
</defs>
</svg>
