<svg width="400" height="400" viewBox="0 0 400 400" fill="none" xmlns="http://www.w3.org/2000/svg">
<path d="M266.674 308.011L351.548 142.49C351.57 142.445 351.588 142.399 351.601 142.351L355.742 126.898C355.774 126.777 355.774 126.649 355.74 126.528L351.418 110.917C351.275 110.402 350.632 110.227 350.248 110.6L327.949 132.244C327.751 132.435 327.46 132.495 327.203 132.395L188.985 78.8574C188.678 78.7384 188.329 78.8481 188.146 79.1216L47.6877 288.232C47.4311 288.614 47.6037 289.136 48.0376 289.289L213.474 347.823L231.489 352.673C231.683 352.726 231.891 352.692 232.059 352.581L246.101 343.334C246.192 343.274 246.268 343.194 246.323 343.099L266.674 308.011Z" fill="#6D4949"/>
<path d="M49.7605 284.035C49.4129 283.913 49.218 283.544 49.3134 283.188L54.7819 262.779C54.8887 262.381 55.3131 262.159 55.7011 262.299L225.489 323.397C225.588 323.432 225.676 323.49 225.755 323.558C227.181 324.771 233.531 327.438 234.389 331.631C235.237 335.776 231.537 343.71 229.135 346.58C228.956 346.794 228.664 346.862 228.401 346.769L49.7605 284.035Z" fill="#AEAEAE"/>
<path d="M215.941 322.808L234.36 331.677C234.699 331.84 235.106 331.708 235.285 331.377L351.487 116.175C351.549 116.06 351.578 115.93 351.57 115.799L351.227 110.008C351.207 109.673 350.953 109.398 350.621 109.352L327.705 106.146C327.652 106.138 327.599 106.124 327.549 106.105L188.985 52.4334C188.678 52.3145 188.33 52.4242 188.146 52.6976L47.6864 261.81C47.4302 262.192 47.6017 262.713 48.0344 262.867L215.941 322.808Z" fill="#8D6060"/>
<path d="M272.944 311.227L272.861 311.389L272.769 311.547L252.418 346.635C251.815 347.674 250.979 348.559 249.976 349.219L235.935 358.466C234.083 359.686 231.798 360.054 229.657 359.477L211.642 354.627L211.38 354.557L211.124 354.466L45.6873 295.932C40.9141 294.243 39.0153 288.506 41.8385 284.303L42.2482 283.693C42.2163 282.926 42.2987 282.142 42.5071 281.364L45.6836 269.51L45.6654 269.503C40.9056 267.804 39.019 262.077 41.8371 257.882L182.297 48.7687C184.317 45.7608 188.152 44.5541 191.53 45.8628L329.409 99.269L351.597 102.373C355.066 102.859 357.754 105.602 358.207 109.029C358.208 109.032 358.208 109.035 358.209 109.037L362.531 124.648C362.9 125.98 362.906 127.387 362.548 128.722L358.408 144.174C358.266 144.704 358.068 145.217 357.818 145.705L272.944 311.227Z" stroke="#473434" stroke-width="14.0926"/>
<path d="M218.07 308.555C219.066 310.281 283.349 180.635 319.975 113.366C277.692 96.9301 192.513 63.8937 190.063 63.2371C187.613 62.5806 107.914 191.5 68.3704 256.042C120.954 274.873 217.073 306.829 218.07 308.555Z" fill="#825757"/>
<path d="M210.74 275.302C211.445 276.566 258.223 180.879 284.841 131.212C254.614 119.351 193.724 95.5098 191.971 95.0401C190.218 94.5703 132.391 189.805 103.697 237.482C141.295 251.05 210.035 274.038 210.74 275.302Z" fill="#7B5353"/>
<path d="M205.463 245.355C205.938 246.207 237.482 181.683 255.431 148.192C235.049 140.193 193.988 124.116 192.806 123.799C191.624 123.483 152.63 187.702 133.281 219.852C158.634 229.001 204.987 244.503 205.463 245.355Z" fill="#754D4D"/>
<path d="M50.0649 267.186L47.6649 262.53L215.874 322.192L235.879 331.929L235.059 334.992L50.0649 267.186Z" fill="#6D4949"/>
</svg>
