<svg width="500" height="501" viewBox="0 0 500 501" fill="none" xmlns="http://www.w3.org/2000/svg">
<path d="M333.507 385.56L439.652 178.556C439.68 178.5 439.703 178.442 439.719 178.382L444.897 159.056C444.937 158.905 444.937 158.745 444.895 158.593L439.49 139.071C439.311 138.426 438.507 138.207 438.027 138.673L410.138 165.742C409.891 165.981 409.527 166.055 409.206 165.931L236.348 98.9759C235.964 98.8272 235.528 98.9644 235.298 99.3063L59.6392 360.824C59.3183 361.301 59.5342 361.954 60.0768 362.146L266.975 435.349L289.504 441.414C289.747 441.48 290.007 441.438 290.217 441.299L307.778 429.735C307.892 429.66 307.987 429.559 308.056 429.441L333.507 385.56Z" fill="#6D4949"/>
<path d="M62.2315 355.575C61.7968 355.422 61.553 354.96 61.6723 354.515L68.5114 328.991C68.6449 328.493 69.1757 328.216 69.661 328.39L282 404.801C282.124 404.846 282.234 404.918 282.334 405.003C284.116 406.52 292.058 409.855 293.131 415.099C294.192 420.282 289.565 430.205 286.56 433.795C286.336 434.062 285.971 434.146 285.643 434.031L62.2315 355.575Z" fill="#AEAEAE"/>
<path d="M270.059 404.065L293.094 415.156C293.518 415.36 294.028 415.195 294.252 414.781L439.575 145.647C439.653 145.502 439.689 145.339 439.68 145.176L439.25 137.933C439.225 137.514 438.908 137.171 438.492 137.113L409.834 133.103C409.767 133.094 409.701 133.076 409.638 133.052L236.348 65.9297C235.964 65.7809 235.528 65.9181 235.298 66.26L59.6376 327.78C59.3172 328.257 59.5317 328.908 60.0728 329.101L270.059 404.065Z" fill="#8D6060"/>
<path d="M341.348 389.581L341.244 389.784L341.13 389.981L315.678 433.863C314.925 435.162 313.879 436.269 312.625 437.095L295.064 448.659C292.748 450.184 289.89 450.645 287.213 449.924L264.684 443.858L264.356 443.77L264.035 443.656L57.1375 370.453C51.1681 368.341 48.7934 361.166 52.324 355.91L52.8365 355.147C52.7966 354.188 52.8996 353.208 53.1603 352.235L57.1329 337.409L57.1101 337.401C51.1574 335.276 48.798 328.114 52.3224 322.866L227.983 61.3465C230.51 57.5848 235.306 56.0756 239.531 57.7123L411.964 124.503L439.713 128.385C444.052 128.992 447.413 132.423 447.98 136.71C447.981 136.713 447.982 136.716 447.982 136.719L453.388 156.242C453.849 157.908 453.856 159.667 453.409 161.337L448.231 180.662C448.053 181.325 447.806 181.966 447.493 182.576L341.348 389.581Z" stroke="#473434" stroke-width="17.6245"/>
<path d="M272.722 386.239C273.968 388.398 354.361 226.261 400.167 142.133C347.287 121.578 240.761 80.2622 237.696 79.4411C234.632 78.62 134.959 239.849 85.5056 320.565C151.268 344.116 271.476 384.081 272.722 386.239Z" fill="#825757"/>
<path d="M263.555 344.652C264.437 346.233 322.938 226.565 356.227 164.452C318.425 149.618 242.274 119.802 240.082 119.214C237.889 118.627 165.571 237.729 129.685 297.354C176.706 314.323 262.673 343.072 263.555 344.652Z" fill="#7B5353"/>
<path d="M256.956 307.201C257.55 308.267 296.999 227.571 319.447 185.686C293.956 175.683 242.606 155.577 241.127 155.181C239.649 154.785 190.882 235.099 166.683 275.306C198.391 286.749 256.361 306.135 256.956 307.201Z" fill="#754D4D"/>
<path d="M62.6121 334.502L59.6106 328.68L269.976 403.294L294.995 415.471L293.968 419.302L62.6121 334.502Z" fill="#6D4949"/>
</svg>
