<svg width="1001" height="1001" viewBox="0 0 1001 1001" fill="none" xmlns="http://www.w3.org/2000/svg">
<path d="M443.323 367.019C421.32 371.019 388.316 359.518 374.564 353.267C298.304 427.444 144.533 577.047 139.532 582.048C134.531 587.049 105.778 623.304 92.0257 640.806L53.2705 687.062V732.068C72.023 800.828 169.457 863.928 189.539 880.838C213.292 900.841 273.3 912.926 300.804 927.095L363.312 953.348L432.072 927.095L645.85 687.062L793.37 465.782L807.122 405.774L768.367 374.52C750.031 372.02 711.359 367.019 703.358 367.019C693.357 367.019 619.597 377.02 599.594 374.52C579.592 372.02 530.835 353.267 523.334 353.267C515.833 353.267 470.827 362.018 443.323 367.019Z" fill="#4D809D"/>
<mask id="path-2-outside-1_508_138" maskUnits="userSpaceOnUse" x="18.2051" y="49.9873" width="947" height="947" fill="black">
<rect fill="white" x="18.2051" y="49.9873" width="947" height="947"/>
<path fill-rule="evenodd" clip-rule="evenodd" d="M758.386 158.89C769.322 143.014 782.993 123.17 789.608 116.555C800.632 105.531 837.381 122.68 847.18 132.48L893.296 178.595C893.586 178.885 893.791 179.233 893.911 179.626L901.854 205.726C902.129 206.63 901.882 207.603 901.194 208.252C884.443 224.05 850.244 253.357 836.053 254.91C833.829 258.846 831.375 263.034 828.777 267.465C808.547 301.98 779.642 351.295 783.233 411.955C788.078 493.784 726.384 562.372 694.932 586.437L348.113 933.256C347.449 933.92 346.439 934.16 345.547 933.87C151.277 870.647 88.5581 732.205 81.2215 669.569C81.1334 668.818 81.4031 668.107 81.9382 667.572L429.002 320.507C508.207 241.302 584.892 235.204 613.334 242.055C628.882 246.483 665.28 229.26 743.839 180.255C743.867 179.674 744.075 179.098 744.451 178.621C747.183 175.152 752.371 167.621 758.386 158.89Z"/>
</mask>
<path fill-rule="evenodd" clip-rule="evenodd" d="M758.386 158.89C769.322 143.014 782.993 123.17 789.608 116.555C800.632 105.531 837.381 122.68 847.18 132.48L893.296 178.595C893.586 178.885 893.791 179.233 893.911 179.626L901.854 205.726C902.129 206.63 901.882 207.603 901.194 208.252C884.443 224.05 850.244 253.357 836.053 254.91C833.829 258.846 831.375 263.034 828.777 267.465C808.547 301.98 779.642 351.295 783.233 411.955C788.078 493.784 726.384 562.372 694.932 586.437L348.113 933.256C347.449 933.92 346.439 934.16 345.547 933.87C151.277 870.647 88.5581 732.205 81.2215 669.569C81.1334 668.818 81.4031 668.107 81.9382 667.572L429.002 320.507C508.207 241.302 584.892 235.204 613.334 242.055C628.882 246.483 665.28 229.26 743.839 180.255C743.867 179.674 744.075 179.098 744.451 178.621C747.183 175.152 752.371 167.621 758.386 158.89Z" fill="#799DA9" fill-opacity="0.3"/>
<path d="M789.608 116.555L833.808 160.756L833.808 160.755L789.608 116.555ZM758.386 158.89L809.862 194.351L809.862 194.351L758.386 158.89ZM847.18 132.48L891.381 88.2796L891.381 88.2796L847.18 132.48ZM893.296 178.595L937.5 134.399L937.496 134.395L893.296 178.595ZM893.911 179.626L834.108 197.819L834.11 197.826L893.911 179.626ZM901.854 205.726L961.654 187.526L961.654 187.525L901.854 205.726ZM901.194 208.252L944.08 253.728L944.081 253.727L901.194 208.252ZM836.053 254.91L829.25 192.773L797.397 196.261L781.632 224.158L836.053 254.91ZM828.777 267.465L774.85 235.856L774.849 235.856L828.777 267.465ZM783.233 411.955L720.834 415.649L720.834 415.649L783.233 411.955ZM694.932 586.437L656.948 536.793L653.659 539.309L650.732 542.237L694.932 586.437ZM348.113 933.256L303.913 889.056L303.911 889.057L348.113 933.256ZM345.547 933.87L364.893 874.43L364.891 874.43L345.547 933.87ZM81.2215 669.569L143.306 662.297L143.305 662.294L81.2215 669.569ZM81.9382 667.572L126.137 711.773L126.138 711.772L81.9382 667.572ZM429.002 320.507L384.802 276.307L384.802 276.307L429.002 320.507ZM613.334 242.055L630.453 181.937L629.22 181.586L627.973 181.285L613.334 242.055ZM743.839 180.255L776.922 233.291L804.698 215.965L806.275 183.267L743.839 180.255ZM744.451 178.621L695.344 139.945L695.343 139.947L744.451 178.621ZM745.408 72.3553C737.955 79.808 730.029 90.607 724.938 97.6596C718.846 106.097 712.288 115.622 706.91 123.429L809.862 194.351C815.421 186.283 821.166 177.948 826.297 170.84C828.854 167.299 830.992 164.434 832.666 162.299C834.666 159.749 834.893 159.671 833.808 160.756L745.408 72.3553ZM891.381 88.2796C877.237 74.136 855.86 63.4448 839.537 57.7214C830.467 54.541 818.059 51.1156 804.43 50.5583C792.617 50.0752 766.498 51.2645 745.408 72.3553L833.808 160.755C825.919 168.644 817.327 172.332 811.292 173.978C805.511 175.555 801.153 175.546 799.322 175.471C795.99 175.335 795.449 174.742 798.17 175.696C800.37 176.467 802.894 177.627 804.926 178.771C805.891 179.315 806.346 179.631 806.32 179.613C806.29 179.592 806.004 179.39 805.516 178.992C805.057 178.617 804.15 177.85 802.98 176.68L891.381 88.2796ZM937.496 134.395L891.381 88.2796L802.98 176.68L849.096 222.795L937.496 134.395ZM953.713 161.433C950.706 151.548 945.281 142.181 937.5 134.399L849.092 222.792C841.891 215.59 836.877 206.919 834.108 197.819L953.713 161.433ZM961.654 187.525L953.711 161.426L834.11 197.826L842.054 223.926L961.654 187.525ZM944.081 253.727C962.468 236.387 968.671 210.581 961.654 187.526L842.054 223.925C835.588 202.68 841.296 178.82 858.307 162.777L944.081 253.727ZM842.856 317.048C860.631 315.102 875.311 306.736 881.548 303.069C890.043 298.073 898.397 292.111 905.634 286.577C920.235 275.411 934.644 262.627 944.08 253.728L858.308 162.776C850.993 169.675 839.926 179.443 829.693 187.269C824.512 191.23 820.609 193.874 818.177 195.304C816.979 196.008 816.963 195.927 817.95 195.511C818.474 195.29 822.639 193.497 829.25 192.773L842.856 317.048ZM781.632 224.158C779.697 227.583 777.505 231.325 774.85 235.856L882.705 299.073C885.244 294.742 887.961 290.11 890.473 285.663L781.632 224.158ZM774.849 235.856C755.378 269.077 715.984 333.728 720.834 415.649L845.632 408.261C843.3 368.862 861.717 334.882 882.705 299.073L774.849 235.856ZM720.834 415.649C722.261 439.749 713.952 464.61 699.498 488.031C684.964 511.585 666.95 529.14 656.948 536.793L732.916 636.081C754.366 619.668 782.925 590.897 805.889 553.683C828.935 516.338 849.05 465.99 845.632 408.261L720.834 415.649ZM650.732 542.237L303.913 889.056L392.313 977.457L739.132 630.637L650.732 542.237ZM303.911 889.057C319.955 873.013 343.527 867.476 364.893 874.43L326.201 993.309C349.351 1000.84 374.944 994.826 392.314 977.456L303.911 889.057ZM364.891 874.43C194.238 818.893 147.853 701.119 143.306 662.297L19.1375 676.841C29.2635 763.292 108.315 922.4 326.202 993.31L364.891 874.43ZM143.305 662.294C145.6 681.874 138.139 699.772 126.137 711.773L37.7398 623.37C24.6671 636.441 16.6673 655.761 19.1379 676.844L143.305 662.294ZM126.138 711.772L473.202 364.708L384.802 276.307L37.738 623.371L126.138 711.772ZM473.202 364.708C506.079 331.831 536.59 315.887 559.467 308.477C571.034 304.73 580.722 303.139 587.916 302.649C595.523 302.131 599.085 302.92 598.694 302.826L627.973 181.285C574.896 168.499 476.69 184.42 384.802 276.307L473.202 364.708ZM596.215 302.174C615.637 307.705 633.528 304.601 644.824 301.692C657.088 298.534 669.576 293.432 681.706 287.688C706.041 276.166 737.356 257.972 776.922 233.291L710.756 127.219C671.763 151.543 645.599 166.462 628.208 174.696C619.476 178.831 615.039 180.267 613.649 180.624C611.293 181.231 618.804 178.62 630.453 181.937L596.215 302.174ZM695.343 139.947C686.803 150.791 682.048 163.876 681.403 177.244L806.275 183.267C805.686 195.472 801.348 207.405 793.56 217.295L695.343 139.947ZM706.91 123.428C703.856 127.861 701.22 131.687 699.014 134.833C697.921 136.391 697.032 137.641 696.33 138.609C695.572 139.654 695.287 140.018 695.344 139.945L793.558 217.297C797.88 211.809 804.611 201.975 809.862 194.351L706.91 123.428Z" fill="#5B5B5B" mask="url(#path-2-outside-1_508_138)"/>
<path d="M530.835 294.509C545.048 279.111 623.228 292.891 635.659 294.382C636.573 294.491 637.371 295.014 637.807 295.824L653.596 325.147C654.176 326.224 653.892 327.562 652.924 328.31L627.773 347.745C627.335 348.083 626.811 348.267 626.258 348.267H558.339C533.335 348.267 498.331 367.019 492.08 372.02C487.656 375.559 456.823 389.14 436.784 397.708C434.543 398.666 432.419 396.174 433.701 394.102L461.804 348.706C461.983 348.416 462.209 348.174 462.488 347.979C480.584 335.336 518.925 307.412 530.835 294.509Z" fill="white" fill-opacity="0.3"/>
<path d="M328.307 873.337L273.3 832.082L563.339 610.802H589.592L328.307 873.337Z" fill="white" fill-opacity="0.3"/>
</svg>
