<svg width="501" height="501" viewBox="0 0 501 501" fill="none" xmlns="http://www.w3.org/2000/svg">
<mask id="path-1-outside-1_508_133" maskUnits="userSpaceOnUse" x="8.42578" y="25.0007" width="474" height="474" fill="black">
<rect fill="white" x="8.42578" y="25.0007" width="474" height="474"/>
<path fill-rule="evenodd" clip-rule="evenodd" d="M379.016 79.952C384.485 72.0143 391.32 62.0922 394.627 58.7848C400.14 53.2725 418.514 61.8472 423.414 66.747L446.471 89.8047C446.616 89.9498 446.719 90.1237 446.779 90.32L450.75 103.37C450.888 103.822 450.764 104.309 450.42 104.633C442.045 112.532 424.945 127.186 417.849 127.962C416.737 129.93 415.51 132.024 414.212 134.239C404.097 151.497 389.644 176.154 391.44 206.484C393.862 247.399 363.015 281.693 347.289 293.725L173.88 467.135C173.548 467.467 173.043 467.587 172.597 467.442C75.4616 435.83 44.1023 366.61 40.434 335.291C40.39 334.916 40.5248 334.56 40.7924 334.293L214.324 160.76C253.927 121.158 292.269 118.109 306.49 121.534C314.264 123.748 332.463 115.137 371.743 90.6343C371.757 90.344 371.861 90.056 372.049 89.8175C373.415 88.083 376.009 84.3176 379.016 79.952Z"/>
</mask>
<path fill-rule="evenodd" clip-rule="evenodd" d="M379.016 79.952C384.485 72.0143 391.32 62.0922 394.627 58.7848C400.14 53.2725 418.514 61.8472 423.414 66.747L446.471 89.8047C446.616 89.9498 446.719 90.1237 446.779 90.32L450.75 103.37C450.888 103.822 450.764 104.309 450.42 104.633C442.045 112.532 424.945 127.186 417.849 127.962C416.737 129.93 415.51 132.024 414.212 134.239C404.097 151.497 389.644 176.154 391.44 206.484C393.862 247.399 363.015 281.693 347.289 293.725L173.88 467.135C173.548 467.467 173.043 467.587 172.597 467.442C75.4616 435.83 44.1023 366.61 40.434 335.291C40.39 334.916 40.5248 334.56 40.7924 334.293L214.324 160.76C253.927 121.158 292.269 118.109 306.49 121.534C314.264 123.748 332.463 115.137 371.743 90.6343C371.757 90.344 371.861 90.056 372.049 89.8175C373.415 88.083 376.009 84.3176 379.016 79.952Z" fill="#799DA9" fill-opacity="0.3"/>
<path d="M394.627 58.7848L416.727 80.8848L416.727 80.8848L394.627 58.7848ZM379.016 79.952L404.755 97.6827L404.755 97.6826L379.016 79.952ZM423.414 66.747L445.514 44.6469L445.514 44.6469L423.414 66.747ZM446.471 89.8047L468.573 67.7061L468.571 67.7047L446.471 89.8047ZM446.779 90.32L416.878 99.4167L416.879 99.4201L446.779 90.32ZM450.75 103.37L480.651 94.2702L480.65 94.2698L450.75 103.37ZM450.42 104.633L471.864 127.371L471.864 127.371L450.42 104.633ZM417.849 127.962L414.45 96.8936L398.522 98.6365L390.639 112.586L417.849 127.962ZM414.212 134.239L387.248 118.435L387.248 118.435L414.212 134.239ZM391.44 206.484L360.24 208.331L360.24 208.331L391.44 206.484ZM347.289 293.725L328.297 268.903L326.653 270.161L325.189 271.625L347.289 293.725ZM173.88 467.135L151.78 445.035L151.78 445.035L173.88 467.135ZM172.597 467.442L162.924 497.162L162.926 497.162L172.597 467.442ZM40.434 335.291L9.39196 338.927L9.39201 338.927L40.434 335.291ZM40.7924 334.293L18.6923 312.192L18.6916 312.193L40.7924 334.293ZM214.324 160.76L236.424 182.861L214.324 160.76ZM306.49 121.534L315.05 91.4752L314.433 91.2996L313.81 91.1495L306.49 121.534ZM371.743 90.6343L388.285 117.152L402.167 108.493L402.96 92.1505L371.743 90.6343ZM372.049 89.8175L347.496 70.4796L347.495 70.4807L372.049 89.8175ZM372.527 36.6847C368.801 40.4111 364.838 45.8106 362.292 49.3369C359.246 53.5554 355.967 58.3179 353.278 62.2213L404.755 97.6826C407.534 93.6484 410.406 89.4809 412.972 85.9271C414.25 84.1566 415.319 82.7242 416.156 81.6566C417.156 80.3815 417.27 80.3423 416.727 80.8848L372.527 36.6847ZM445.514 44.6469C438.442 37.5751 427.753 32.2295 419.592 29.3678C415.057 27.7776 408.853 26.0649 402.039 25.7862C396.132 25.5447 383.073 26.1393 372.527 36.6847L416.727 80.8848C412.783 84.829 408.487 86.6732 405.469 87.4962C402.579 88.2846 400.4 88.2799 399.485 88.2425C397.819 88.1743 397.548 87.878 398.908 88.3549C400.009 88.7408 401.271 89.3206 402.286 89.8926C402.769 90.1644 402.996 90.3228 402.983 90.3134C402.969 90.3031 402.825 90.2019 402.581 90.0028C402.352 89.8158 401.899 89.4321 401.314 88.847L445.514 44.6469ZM468.571 67.7047L445.514 44.6469L401.314 88.847L424.371 111.905L468.571 67.7047ZM476.68 81.2234C475.176 76.281 472.464 71.5975 468.573 67.7061L424.37 111.903C420.769 108.302 418.262 103.966 416.878 99.4167L476.68 81.2234ZM480.65 94.2698L476.679 81.22L416.879 99.4201L420.85 112.47L480.65 94.2698ZM471.864 127.371C481.057 118.701 484.159 105.797 480.651 94.2702L420.85 112.47C417.617 101.847 420.472 89.9169 428.977 81.8957L471.864 127.371ZM421.249 159.031C430.138 158.059 437.478 153.876 440.597 152.042C444.845 149.544 449.022 146.563 452.64 143.796C459.941 138.213 467.145 131.821 471.864 127.371L428.977 81.8952C425.32 85.3445 419.786 90.2287 414.67 94.1416C412.079 96.1225 410.128 97.444 408.912 98.1591C408.313 98.5111 408.305 98.4707 408.799 98.2626C409.061 98.1521 411.144 97.2554 414.45 96.8936L421.249 159.031ZM390.639 112.586C389.672 114.299 388.576 116.169 387.248 118.435L441.176 150.043C442.445 147.878 443.803 145.562 445.06 143.338L390.639 112.586ZM387.248 118.435C377.512 135.045 357.815 167.371 360.24 208.331L422.639 204.637C421.473 184.938 430.682 167.948 441.176 150.043L387.248 118.435ZM360.24 208.331C360.954 220.381 356.799 232.812 349.572 244.522C342.305 256.299 333.298 265.077 328.297 268.903L366.281 318.547C377.006 310.341 391.286 295.955 402.768 277.348C414.291 258.676 424.348 233.502 422.639 204.637L360.24 208.331ZM325.189 271.625L151.78 445.035L195.98 489.235L369.389 315.825L325.189 271.625ZM151.78 445.035C159.801 437.013 171.586 434.246 182.267 437.721L162.926 497.162C174.5 500.928 187.295 497.92 195.98 489.235L151.78 445.035ZM182.269 437.722C96.9423 409.953 73.7496 351.066 71.476 331.655L9.39201 338.927C14.455 382.153 53.981 461.707 162.924 497.162L182.269 437.722ZM71.4761 331.656C72.6225 341.445 68.8925 350.392 62.8932 356.392L18.6916 312.193C12.1571 318.728 8.15748 328.386 9.39196 338.927L71.4761 331.656ZM62.8924 356.393L236.424 182.861L192.224 138.66L18.6923 312.192L62.8924 356.393ZM236.424 182.861C252.863 166.422 268.118 158.45 279.557 154.745C285.34 152.872 290.184 152.076 293.781 151.831C297.585 151.572 299.366 151.967 299.171 151.919L313.81 91.1495C287.271 84.7565 238.168 92.7167 192.224 138.66L236.424 182.861ZM297.931 151.594C307.642 154.359 316.587 152.807 322.236 151.353C328.367 149.774 334.611 147.223 340.676 144.351C352.844 138.59 368.501 129.493 388.285 117.152L355.201 64.1163C335.705 76.2781 322.623 83.738 313.927 87.8549C309.561 89.9222 307.343 90.6401 306.648 90.819C305.47 91.1223 309.225 89.8166 315.05 91.4752L297.931 151.594ZM347.495 70.4807C343.227 75.8994 340.85 82.4378 340.526 89.118L402.96 92.1505C402.664 98.2502 400.495 104.213 396.603 109.154L347.495 70.4807ZM353.278 62.2213C351.751 64.4377 350.433 66.3506 349.33 67.9234C348.784 68.7024 348.339 69.3274 347.988 69.8116C347.609 70.3341 347.467 70.5162 347.496 70.4796L396.602 109.155C398.764 106.411 402.129 101.494 404.755 97.6827L353.278 62.2213Z" fill="#5B5B5B" mask="url(#path-1-outside-1_508_133)"/>
<path d="M265.241 147.762C272.348 140.063 311.438 146.952 317.653 147.698C318.11 147.752 318.509 148.014 318.727 148.419L326.622 163.08C326.912 163.619 326.77 164.288 326.286 164.662L313.71 174.379C313.491 174.548 313.229 174.64 312.953 174.64H278.993C266.491 174.64 248.989 184.016 245.864 186.517C243.652 188.286 228.235 195.077 218.216 199.361C217.095 199.84 216.033 198.594 216.674 197.558L230.726 174.86C230.815 174.715 230.928 174.594 231.068 174.496C240.116 168.175 259.286 154.213 265.241 147.762Z" fill="white" fill-opacity="0.3"/>
</svg>
