<svg width="1000" height="1000" viewBox="0 0 1000 1000" fill="none" xmlns="http://www.w3.org/2000/svg">
<rect width="1000" height="1000" fill="white"/>
<rect x="20.1067" y="19.9997" width="940" height="110" rx="30" transform="matrix(1 0 0.00533658 0.999986 9.89327 22.0003)" fill="#614747" stroke="#423030" stroke-width="40"/>
<rect x="20.1067" y="19.9997" width="940" height="110" rx="30" transform="matrix(1 0 0.00533658 0.999986 9.89327 193)" fill="#614747" stroke="#423030" stroke-width="40"/>
<rect x="20.1067" y="19.9997" width="940" height="110" rx="30" transform="matrix(1 0 0.00533658 0.999986 8.89327 358)" fill="#614747" stroke="#423030" stroke-width="40"/>
<rect x="20.1067" y="19.9997" width="940" height="110" rx="30" transform="matrix(1 0 0.00533658 0.999986 5.89327 516)" fill="#614747" stroke="#423030" stroke-width="40"/>
<rect x="20.1067" y="19.9997" width="940" height="110" rx="30" transform="matrix(1 0 0.00533658 0.999986 6.89327 674)" fill="#614747" stroke="#423030" stroke-width="40"/>
<rect x="20.1067" y="19.9997" width="940" height="110" rx="30" transform="matrix(1 0 0.00533658 0.999986 7.89327 830)" fill="#614747" stroke="#423030" stroke-width="40"/>
</svg>
