<svg width="400" height="400" viewBox="0 0 400 400" fill="none" xmlns="http://www.w3.org/2000/svg">
<path d="M82.906 296.359C99.3528 303.861 133.112 319.038 136.574 319.73L141.768 324.924H177.259L217.943 327.521L269.015 305.015L292.386 301.552L319.221 286.837L327.011 271.256V232.303L333.071 227.109L343.458 196.812L333.071 167.381L326.146 141.412L321.818 114.578L312.296 98.1312H291.521V88.6094L257.762 57.447C257.473 61.7751 255.338 74.067 249.105 88.6094L230.062 70.4313L217.077 57.447H171.199L127.053 70.4313L99.3528 98.1312L58.6685 137.084L52.6092 191.618C62.7081 204.891 82.906 232.822 82.906 238.362C82.906 243.902 78.2893 259.137 75.981 266.062L82.906 296.359Z" fill="#594242" stroke="black"/>
<path d="M29.2374 90.3406L56.0717 57.447H78.5778C88.9653 61.198 111.471 70.9507 118.396 79.9532C127.053 91.2063 133.978 98.1312 133.978 105.056V121.503L99.3528 141.412L56.0717 150.069L44.8186 126.697L29.2374 90.3406Z" fill="#5B5656"/>
<path d="M86.3684 162.187C80.136 166.342 49.1467 155.839 34.4311 150.069L15.3875 156.994L5 178.634L21.4468 227.974L70.7872 217.587L118.396 209.796L127.918 178.634L118.396 162.187C110.317 160.456 92.6009 158.032 86.3684 162.187Z" fill="#5B5656"/>
<path d="M70.7872 227.974C55.2061 227.974 44.8186 233.168 34.4311 234.899C28.0832 239.228 15.3875 248.923 15.3875 253.078V280.777L29.2374 299.821H52.6092L114.068 288.568L127.918 273.852L140.037 253.078L127.918 234.899L114.068 217.587C104.835 221.05 83.2522 227.974 70.7872 227.974Z" fill="#5B5656"/>
<path d="M29.2374 90.3406L56.0717 57.447H78.5778C88.9653 61.198 111.471 70.9507 118.396 79.9532C127.053 91.2063 133.978 98.1312 133.978 105.056V121.503L99.3528 141.412L56.0717 150.069L44.8186 126.697L29.2374 90.3406Z" stroke="black"/>
<path d="M86.3684 162.187C80.136 166.342 49.1467 155.839 34.4311 150.069L15.3875 156.994L5 178.634L21.4468 227.974L70.7872 217.587L118.396 209.796L127.918 178.634L118.396 162.187C110.317 160.456 92.6009 158.032 86.3684 162.187Z" stroke="black"/>
<path d="M70.7872 227.974C55.2061 227.974 44.8186 233.168 34.4311 234.899C28.0832 239.228 15.3875 248.923 15.3875 253.078V280.777L29.2374 299.821H52.6092L114.068 288.568L127.918 273.852L140.037 253.078L127.918 234.899L114.068 217.587C104.835 221.05 83.2522 227.974 70.7872 227.974Z" stroke="black"/>
<path d="M67.3248 352.624L60.3998 305.88L106.278 302.418L129.65 288.568L146.962 259.137L179.856 263.465L193.706 288.568L168.603 318.865L198.034 331.849L208.421 357.818L179.856 376.861L121.859 387.249L67.3248 352.624Z" fill="#5B5656"/>
<path d="M198.034 302.418L208.421 271.256H235.255C240.449 271.256 259.493 284.24 268.149 288.568C275.074 292.031 292.963 299.244 301.043 302.418V325.79C301.043 331.33 295.272 339.063 292.386 342.237L268.149 352.624L230.062 364.743L222.271 352.624L214.48 325.79L190.243 310.209L198.034 302.418Z" fill="#5B5656"/>
<path d="M306.236 294.627C277.671 287.702 264.86 265.542 262.09 263.465C264.109 258.848 269.188 248.923 273.343 246.153C277.498 243.383 282.576 244.998 284.596 246.153C290.078 249.038 300.775 258.191 309.699 260.868C318.355 263.465 320.086 264.331 326.146 262.599L345.189 259.137L362.502 254.809L372.889 271.256V288.568C370.292 294.339 364.579 306.746 362.502 310.209C359.905 314.537 346.055 318.865 341.727 318.865C337.399 318.865 312.296 332.715 307.968 326.655C304.505 321.808 309.699 304.149 306.236 294.627Z" fill="#5B5656"/>
<path d="M313.161 254.809C303.466 254.809 301.043 249.038 301.043 246.153L284.596 225.378L292.386 204.603L309.699 182.962L339.996 189.887L372.889 195.081V213.259L384.142 230.571C376.929 235.765 360.944 247.018 354.711 250.481C346.921 254.809 325.28 254.809 313.161 254.809Z" fill="#5B5656"/>
<path d="M301.043 163.919L292.386 144.875L284.596 132.756L301.043 111.981H333.071H362.502C368.734 111.981 372.024 122.946 372.889 128.428L395.395 148.337C394.241 153.531 391.76 163.919 391.067 163.919C390.375 163.919 388.47 174.883 387.605 180.365C383.565 181.519 374.967 184.174 372.889 185.559C370.812 186.944 348.94 182.674 338.264 180.365L313.161 174.306L301.043 163.919Z" fill="#5B5656"/>
<path d="M104.546 52.2533L117.531 30.6128C122.436 26.2847 134.151 16.7628 141.768 13.3003C151.29 8.97222 171.199 16.7628 179.856 17.6284C188.512 18.4941 196.302 26.2847 200.631 30.6128C204.959 34.9409 197.168 46.194 196.302 48.7908C195.61 50.8683 193.706 69.8543 192.84 79.0876V98.1313H165.14L141.768 104.191L132.246 84.2813L125.321 73.0282L110.606 64.372L104.546 52.2533Z" fill="#5B5656"/>
<path d="M211.884 48.7908L217.943 30.6128L226.599 21.9566C235.832 20.5138 255.684 17.6284 261.224 17.6284C268.149 17.6284 284.596 30.6128 288.058 38.4034C291.521 46.194 292.386 55.7158 292.386 60.9095C292.386 65.0645 280.268 74.7595 274.208 79.0876L249.105 87.7438L236.121 104.191L219.674 94.6688L200.631 92.0719V68.7001L211.884 48.7908Z" fill="#5B5656"/>
<path d="M252.568 119.772C253.145 114.578 254.645 102.979 256.03 98.1313L294.118 76.4907L304.505 55.7158L296.715 38.4034L301.043 21.9566L329.608 34.9409L346.055 48.7908L362.502 68.7001V98.1313L346.055 104.191H311.43H296.715L273.343 128.428L252.568 119.772Z" fill="#5B5656"/>
<path d="M67.3248 352.624L60.3998 305.88L106.278 302.418L129.65 288.568L146.962 259.137L179.856 263.465L193.706 288.568L168.603 318.865L198.034 331.849L208.421 357.818L179.856 376.861L121.859 387.249L67.3248 352.624Z" stroke="black"/>
<path d="M198.034 302.418L208.421 271.256H235.255C240.449 271.256 259.493 284.24 268.149 288.568C275.074 292.031 292.963 299.244 301.043 302.418V325.79C301.043 331.33 295.272 339.063 292.386 342.237L268.149 352.624L230.062 364.743L222.271 352.624L214.48 325.79L190.243 310.209L198.034 302.418Z" stroke="black"/>
<path d="M306.236 294.627C277.671 287.702 264.86 265.542 262.09 263.465C264.109 258.848 269.188 248.923 273.343 246.153C277.498 243.383 282.576 244.998 284.596 246.153C290.078 249.038 300.775 258.191 309.699 260.868C318.355 263.465 320.086 264.331 326.146 262.599L345.189 259.137L362.502 254.809L372.889 271.256V288.568C370.292 294.339 364.579 306.746 362.502 310.209C359.905 314.537 346.055 318.865 341.727 318.865C337.399 318.865 312.296 332.715 307.968 326.655C304.505 321.808 309.699 304.149 306.236 294.627Z" stroke="black"/>
<path d="M313.161 254.809C303.466 254.809 301.043 249.038 301.043 246.153L284.596 225.378L292.386 204.603L309.699 182.962L339.996 189.887L372.889 195.081V213.259L384.142 230.571C376.929 235.765 360.944 247.018 354.711 250.481C346.921 254.809 325.28 254.809 313.161 254.809Z" stroke="black"/>
<path d="M301.043 163.919L292.386 144.875L284.596 132.756L301.043 111.981H333.071H362.502C368.734 111.981 372.024 122.946 372.889 128.428L395.395 148.337C394.241 153.531 391.76 163.919 391.067 163.919C390.375 163.919 388.47 174.883 387.605 180.365C383.565 181.519 374.967 184.174 372.889 185.559C370.812 186.944 348.94 182.674 338.264 180.365L313.161 174.306L301.043 163.919Z" stroke="black"/>
<path d="M104.546 52.2533L117.531 30.6128C122.436 26.2847 134.151 16.7628 141.768 13.3003C151.29 8.97222 171.199 16.7628 179.856 17.6284C188.512 18.4941 196.302 26.2847 200.631 30.6128C204.959 34.9409 197.168 46.194 196.302 48.7908C195.61 50.8683 193.706 69.8543 192.84 79.0876V98.1313H165.14L141.768 104.191L132.246 84.2813L125.321 73.0282L110.606 64.372L104.546 52.2533Z" stroke="black"/>
<path d="M211.884 48.7908L217.943 30.6128L226.599 21.9566C235.832 20.5138 255.684 17.6284 261.224 17.6284C268.149 17.6284 284.596 30.6128 288.058 38.4034C291.521 46.194 292.386 55.7158 292.386 60.9095C292.386 65.0645 280.268 74.7595 274.208 79.0876L249.105 87.7438L236.121 104.191L219.674 94.6688L200.631 92.0719V68.7001L211.884 48.7908Z" stroke="black"/>
<path d="M252.568 119.772C253.145 114.578 254.645 102.979 256.03 98.1313L294.118 76.4907L304.505 55.7158L296.715 38.4034L301.043 21.9566L329.608 34.9409L346.055 48.7908L362.502 68.7001V98.1313L346.055 104.191H311.43H296.715L273.343 128.428L252.568 119.772Z" stroke="black"/>
<rect x="0.451427" y="0.544255" width="147.715" height="26.5591" rx="6.5" transform="matrix(-0.0928278 0.995682 0.995682 0.0928278 209.193 114.622)" fill="#4D2B2B" stroke="black"/>
<rect x="150.576" y="122.21" width="164.564" height="35.3561" rx="6.5" transform="rotate(45.9541 150.576 122.21)" fill="#4D2B2B" stroke="black"/>
<rect x="116.488" y="206.826" width="164.564" height="35.3561" rx="6.5" transform="rotate(-31.6563 116.488 206.826)" fill="#4D2B2B" stroke="black"/>
<ellipse cx="198.034" cy="190.753" rx="99.5465" ry="100.412" fill="#FB9804" fill-opacity="0.25"/>
<ellipse cx="198.034" cy="190.753" rx="44.1467" ry="45.0123" fill="#CAAF22" fill-opacity="0.45"/>
<ellipse cx="198.034" cy="190.753" rx="12.9843" ry="13.8499" fill="#FFD4A2" fill-opacity="0.75"/>
<ellipse cx="198.034" cy="190.753" rx="19.9093" ry="20.7749" fill="#F3901A" fill-opacity="0.65"/>
</svg>
