<svg width="400" height="400" viewBox="0 0 400 400" fill="none" xmlns="http://www.w3.org/2000/svg">
<path d="M173.097 224.88L190.058 198.738C187.266 197.473 181.219 194.944 179.369 194.952C177.057 194.962 142.121 218.883 139.809 218.893C137.959 218.902 131.997 235.795 129.248 244.241L142.259 250.317L140.002 262.849C134.879 257.335 124.346 245.898 123.2 244.267C122.055 242.637 113.836 244.99 109.869 246.37L102.116 263.016L91.3886 250.541L105.714 231.822L134.581 203.072L166.504 181.719L154.029 176.407L134.464 176.494L101.759 182.005L91.1983 207.352L73.3123 225.32L68.6291 212.051L80.4462 189.254L75.4107 176.754L51.1854 168.938L60.9154 156.884L94.7636 168.746L128.862 156.584L153.956 159.796L172.828 163.802L166.345 145.686L161.049 114.53C153.62 110.389 137.832 101.19 134.116 97.5265C129.471 92.9468 150.832 96.6862 156.883 97.4262C161.724 98.0182 172.125 111.756 176.72 118.55L191.78 145.574L220.28 114.27L233.21 101.69L224.094 132.142L208.014 156.236L196.452 156.287L202.944 176.192C210.04 171.986 225.158 163.572 228.857 163.555L249.135 163.466C259.286 152.943 279.584 130.569 279.561 125.253C279.537 119.937 296.152 122.965 304.462 125.143L336.835 125.001C329.431 126.822 313.701 130.725 310.006 131.764C306.31 132.802 291.904 141.129 285.162 145.162L258.384 163.425L275.993 163.348L314.824 175.699L300.95 175.76L270.534 175.894C267.688 175.907 255.135 179.54 249.213 181.355L220.635 194.77L242.904 202.594C251.388 203.92 271.776 207.476 285.453 211.096C302.549 215.621 304.287 206.413 310.334 206.386C315.172 206.365 332.022 203.565 339.843 202.167L349.664 210.813C341.018 213.236 322.736 219.314 318.773 224.238C313.82 230.394 287.824 224.375 285.511 224.385L249.404 224.544C241.084 220.151 223.123 210.451 217.842 206.794C212.561 203.137 201.518 202.606 196.657 202.798L196.727 218.643L196.809 237.298C202.81 240.168 215.456 246.723 218.032 249.983C220.608 253.243 235.842 255.186 243.138 255.75L258.838 266.415L224.669 262.476L192.223 246.008L181.868 237.364L173.153 237.403L157.529 244.116L173.097 224.88Z" fill="#543838" stroke="#442424" stroke-width="4.13601"/>
<path d="M191.171 260.049C198.849 262.835 214.524 268.933 215.801 271.029C217.146 273.237 234.185 286.758 241.02 291.22L260.447 304.611L238.122 321.311L218.551 314.05L200.932 312.186C190.158 319.631 168.2 333.7 166.562 330.419C164.924 327.137 138.836 313.845 125.998 307.609L143.497 299.222L171.418 269.492L191.171 260.049Z" fill="#66853E"/>
<path d="M243.611 292.639C243.213 292.569 242.294 292.052 241.02 291.22M241.02 291.22C234.185 286.758 217.146 273.237 215.801 271.029C214.524 268.933 198.849 262.835 191.171 260.049L171.418 269.492L143.497 299.222L125.998 307.609C138.836 313.845 164.924 327.137 166.562 330.419C168.2 333.7 190.158 319.631 200.932 312.186L218.551 314.05L238.122 321.311L260.447 304.611L241.02 291.22Z" stroke="#4B6529" stroke-width="4.96321"/>
<path d="M210.914 283.969L239.401 307.803L219.686 301.074C213.516 298.608 200.186 293.804 196.218 294.309C191.258 294.94 180.811 301.916 177.269 302.366C173.726 302.817 165.257 304.409 162.036 304.305C159.459 304.223 166.742 294.125 170.706 289.087L185.545 275.393L197.994 277.401L210.914 283.969Z" fill="#759F40"/>
<path d="M221.635 245.51L261.296 244.814C269.977 247.047 287.773 252.119 289.507 254.542C291.24 256.965 287.492 265.653 285.401 269.694L256.018 283.245C243.85 282.095 218.977 279.499 216.829 278.31C214.682 277.121 192.168 273.29 181.179 271.524L154.872 256.906L157.656 234.621L183.568 229.054C191.169 230.114 206.944 232.529 209.233 233.716C211.523 234.902 218.455 242.073 221.635 245.51Z" fill="#66853E" stroke="#4B6529" stroke-width="4.96321"/>
<path d="M147.975 145.079L111.606 154.152L67.7205 159.012L45.5814 151.478L8.54525 164.652L25.3196 186.082L50.0336 234.466L91.8289 233.732L112.193 208.582L148.25 170.633L147.975 145.079Z" fill="#66853E" stroke="#4B6529" stroke-width="4.96321"/>
<path d="M173.367 190.384L156.419 185.826L136.353 205.603L117.323 205.937C111.711 213.447 100.497 229.286 100.532 232.557C100.568 235.828 85.5228 248.326 77.9959 254.167C73.3143 254.419 62.287 255.669 55.6306 258.649C48.9742 261.628 50.5794 268.62 52.214 271.744C53.5908 278.45 56.8123 292.366 58.684 294.377C60.5557 296.389 78.2399 298.805 86.848 299.761L124.347 296.547L146.572 279.032L152.446 262.827L165.584 243.939C174.583 237.22 193.432 223.36 196.829 221.665C200.226 219.97 195.305 212.32 192.42 208.707L173.367 190.384Z" fill="#66853E"/>
<path d="M241.115 220.887L263.265 196.473C270.6 194.811 285.626 191.582 287.053 191.966C288.48 192.35 298.845 196.7 303.848 198.828L334.439 198.29L361.305 182.228C369.318 188.562 385.782 202.041 387.524 205.281C389.267 208.522 390.481 226.529 390.87 235.126L361.933 240.491L317.292 241.275L265.892 242.177L241.115 220.887Z" fill="#66853E"/>
<path d="M173.367 190.384L156.419 185.826L136.353 205.603L117.323 205.937C111.711 213.447 100.497 229.286 100.532 232.557C100.568 235.828 85.5228 248.326 77.9959 254.167C73.3143 254.419 62.287 255.669 55.6306 258.649C48.9742 261.628 50.5794 268.62 52.214 271.744C53.5908 278.45 56.8123 292.366 58.684 294.377C60.5557 296.389 78.2399 298.805 86.848 299.761L124.347 296.547L146.572 279.032L152.446 262.827L165.584 243.939C174.583 237.22 193.432 223.36 196.829 221.665C200.226 219.97 195.305 212.32 192.42 208.707L173.367 190.384Z" stroke="#4B6529" stroke-width="4.96321"/>
<path d="M241.115 220.887L263.265 196.473C270.6 194.811 285.626 191.582 287.053 191.966C288.48 192.35 298.845 196.7 303.848 198.828L334.439 198.29L361.305 182.228C369.318 188.562 385.782 202.041 387.524 205.281C389.267 208.522 390.481 226.529 390.87 235.126L361.933 240.491L317.292 241.275L265.892 242.177L241.115 220.887Z" stroke="#4B6529" stroke-width="4.96321"/>
<path d="M299.934 182.282L258.495 183.01L258.462 179.944L244.183 158.98L249.941 132.043L310.98 101.323L362.202 100.423L384.01 110.264L374.164 137.529L351.082 141.513L315.117 138.566L303.32 149.763L315.324 157.731L328.891 178.707L299.934 182.282Z" fill="#66853E" stroke="#4B6529" stroke-width="4.96321"/>
<path d="M253.497 115.367L242.356 88.4708L219.681 97.3033L189.114 116.498L178.705 140.962L192.995 162.947C201.991 161.426 220.406 157.967 222.096 156.302C223.786 154.636 234.127 139.222 239.086 131.722L253.497 115.367Z" fill="#66853E" stroke="#4B6529" stroke-width="4.96321"/>
<path d="M224.856 65.7756L183.836 72.3745L158.639 78.1843L107.639 83.1692L96.1265 104.33L113.288 112.207C121.819 122.451 139.309 143.136 141.025 143.924C142.741 144.712 160.797 129.945 169.611 122.464C180.907 119.71 204.958 114.278 210.796 114.584C218.093 114.967 243.114 125.774 245.984 128.024C248.28 129.824 275.466 123.672 288.772 120.371L304.59 86.1005L293.926 70.4413L269.198 86.722L256.501 80.5552L224.856 65.7756Z" fill="#66853E" stroke="#4B6529" stroke-width="4.96321"/>
<path d="M376.95 214.412C372.814 210.31 363.862 201.658 361.139 199.865C348.031 205.037 320.642 215.401 315.946 215.483C311.251 215.566 289.103 206.072 278.615 201.315C273.274 206.35 262.306 216.425 261.168 216.445C260.029 216.465 269.589 227.543 274.511 233.079C282.978 231.994 300.8 229.551 304.346 228.466C308.778 227.11 365.806 220.231 368.104 218.912C369.942 217.858 374.767 215.473 376.95 214.412Z" fill="#759F40"/>
<path d="M323.557 112.859C333.337 112.517 353.752 111.92 357.171 112.269L363.777 131.066C353.501 129.372 331.096 125.762 323.686 124.869C316.276 123.977 310.214 129.28 308.109 132.044L284.702 138.844L307.906 113.134L323.557 112.859Z" fill="#759F40"/>
<path d="M245.383 105.286L264.292 93.7082L266.782 93.6645L222.649 75.5259L116.319 96.3065L137.96 107.172L222.784 88.0474L245.383 105.286Z" fill="#759F40"/>
<path d="M97.5616 204.494L138.503 157.514L84.4615 177.376L45.3686 164.772L25.8572 169.971C35.7083 181.725 55.8096 205.943 57.4055 208.777C59.0014 211.612 84.8412 207.103 97.5616 204.494Z" fill="#759F40"/>
<path d="M166.785 206.857L159.454 203.407C149.607 208.521 128.462 219.491 122.659 222.455C116.857 225.42 106.684 242.161 102.323 250.16L61.134 274.142L92.8964 283.297L123.205 273.052L166.785 206.857Z" fill="#759F40"/>
<path d="M224.599 256.448C220.33 256.523 199.222 245.647 189.202 240.2L180.4 248.789C182.565 251.563 187.392 257.101 189.384 257.066C191.376 257.031 228.705 263.362 247.121 266.531L266.038 255.72L224.599 256.448Z" fill="#759F40"/>
<path d="M197.233 127.09L225.07 126.601L219.717 133.596L203.892 150.742L188.128 140.54L197.233 127.09Z" fill="#759F40"/>
<path d="M173.097 224.88L190.058 198.738C187.266 197.473 181.219 194.944 179.369 194.952C177.057 194.962 142.121 218.883 139.809 218.893C137.959 218.902 131.997 235.795 129.248 244.241L142.259 250.317L140.002 262.849C134.879 257.335 124.346 245.898 123.2 244.267C122.055 242.637 113.836 244.99 109.869 246.37L102.116 263.016L91.3886 250.541L105.714 231.822L134.581 203.072L166.504 181.719L154.029 176.407L134.464 176.494L101.759 182.005L91.1983 207.352L73.3123 225.32L68.6291 212.051L80.4462 189.254L75.4107 176.754L51.1854 168.938L60.9154 156.884L94.7636 168.746L128.862 156.584L153.956 159.796L172.828 163.802L166.345 145.686L161.049 114.53C153.62 110.389 137.832 101.19 134.116 97.5265C129.471 92.9468 150.832 96.6862 156.883 97.4262C161.724 98.0182 172.125 111.756 176.72 118.55L191.78 145.574L220.28 114.27L233.21 101.69L224.094 132.142L208.014 156.236L196.452 156.287L202.944 176.192C210.04 171.986 225.158 163.572 228.857 163.555L249.135 163.466C259.286 152.943 279.584 130.569 279.561 125.253C279.537 119.937 296.152 122.965 304.462 125.143L336.835 125.001C329.431 126.822 313.701 130.725 310.006 131.764C306.31 132.802 291.904 141.129 285.162 145.162L258.384 163.425L275.993 163.348L314.824 175.699L300.95 175.76L270.534 175.894C267.688 175.907 255.135 179.54 249.213 181.355L220.635 194.77L242.904 202.594C251.388 203.92 271.776 207.476 285.453 211.096C302.549 215.621 304.287 206.413 310.334 206.386C315.172 206.365 332.022 203.565 339.843 202.167L349.664 210.813C341.018 213.236 322.736 219.314 318.773 224.238C313.82 230.394 287.824 224.375 285.511 224.385L249.404 224.544C241.084 220.151 223.123 210.451 217.842 206.794C212.561 203.137 201.518 202.606 196.657 202.798L196.727 218.643L196.809 237.298C202.81 240.168 215.456 246.723 218.032 249.983C220.608 253.243 235.842 255.186 243.138 255.75L258.838 266.415L224.669 262.476L192.223 246.008L181.868 237.364L173.153 237.403L157.529 244.116L173.097 224.88Z" fill="#543838" stroke="#442424" stroke-width="4.13601"/>
<path d="M191.171 260.049C198.849 262.835 214.524 268.933 215.801 271.029C217.146 273.237 234.185 286.758 241.02 291.22L260.447 304.611L238.122 321.311L218.551 314.05L200.932 312.186C190.158 319.631 168.2 333.7 166.562 330.419C164.924 327.137 138.836 313.845 125.998 307.609L143.497 299.222L171.418 269.492L191.171 260.049Z" fill="#66853E"/>
<path d="M243.611 292.639C243.213 292.569 242.294 292.052 241.02 291.22M241.02 291.22C234.185 286.758 217.146 273.237 215.801 271.029C214.524 268.933 198.849 262.835 191.171 260.049L171.418 269.492L143.497 299.222L125.998 307.609C138.836 313.845 164.924 327.137 166.562 330.419C168.2 333.7 190.158 319.631 200.932 312.186L218.551 314.05L238.122 321.311L260.447 304.611L241.02 291.22Z" stroke="#4B6529" stroke-width="4.96321"/>
<path d="M210.914 283.969L239.401 307.803L219.686 301.074C213.516 298.608 200.186 293.804 196.218 294.309C191.258 294.94 180.811 301.916 177.269 302.366C173.726 302.817 165.257 304.409 162.036 304.305C159.459 304.223 166.742 294.125 170.706 289.087L185.545 275.393L197.994 277.401L210.914 283.969Z" fill="#759F40"/>
<path d="M221.635 245.51L261.296 244.814C269.977 247.047 287.773 252.119 289.507 254.542C291.24 256.965 287.492 265.653 285.401 269.694L256.018 283.245C243.85 282.095 218.977 279.499 216.829 278.31C214.682 277.121 192.168 273.29 181.179 271.524L154.872 256.906L157.656 234.621L183.568 229.054C191.169 230.114 206.944 232.529 209.233 233.716C211.523 234.902 218.455 242.073 221.635 245.51Z" fill="#66853E" stroke="#4B6529" stroke-width="4.96321"/>
<path d="M147.975 145.079L111.606 154.152L67.7205 159.012L45.5814 151.478L8.54525 164.652L25.3196 186.082L50.0336 234.466L91.8289 233.732L112.193 208.582L148.25 170.633L147.975 145.079Z" fill="#66853E" stroke="#4B6529" stroke-width="4.96321"/>
<path d="M173.367 190.384L156.419 185.826L136.353 205.603L117.323 205.937C111.711 213.447 100.497 229.286 100.532 232.557C100.568 235.828 85.5228 248.326 77.9959 254.167C73.3143 254.419 62.287 255.669 55.6306 258.649C48.9742 261.628 50.5794 268.62 52.214 271.744C53.5908 278.45 56.8123 292.366 58.684 294.377C60.5557 296.389 78.2399 298.805 86.848 299.761L124.347 296.547L146.572 279.032L152.446 262.827L165.584 243.939C174.583 237.22 193.432 223.36 196.829 221.665C200.226 219.97 195.305 212.32 192.42 208.707L173.367 190.384Z" fill="#66853E"/>
<path d="M241.115 220.887L263.265 196.473C270.6 194.811 285.626 191.582 287.053 191.966C288.48 192.35 298.845 196.7 303.848 198.828L334.439 198.29L361.305 182.228C369.318 188.562 385.782 202.041 387.524 205.281C389.267 208.522 390.481 226.529 390.87 235.126L361.933 240.491L317.292 241.275L265.892 242.177L241.115 220.887Z" fill="#66853E"/>
<path d="M173.367 190.384L156.419 185.826L136.353 205.603L117.323 205.937C111.711 213.447 100.497 229.286 100.532 232.557C100.568 235.828 85.5228 248.326 77.9959 254.167C73.3143 254.419 62.287 255.669 55.6306 258.649C48.9742 261.628 50.5794 268.62 52.214 271.744C53.5908 278.45 56.8123 292.366 58.684 294.377C60.5557 296.389 78.2399 298.805 86.848 299.761L124.347 296.547L146.572 279.032L152.446 262.827L165.584 243.939C174.583 237.22 193.432 223.36 196.829 221.665C200.226 219.97 195.305 212.32 192.42 208.707L173.367 190.384Z" stroke="#4B6529" stroke-width="4.96321"/>
<path d="M241.115 220.887L263.265 196.473C270.6 194.811 285.626 191.582 287.053 191.966C288.48 192.35 298.845 196.7 303.848 198.828L334.439 198.29L361.305 182.228C369.318 188.562 385.782 202.041 387.524 205.281C389.267 208.522 390.481 226.529 390.87 235.126L361.933 240.491L317.292 241.275L265.892 242.177L241.115 220.887Z" stroke="#4B6529" stroke-width="4.96321"/>
<path d="M299.934 182.282L258.495 183.01L258.462 179.944L244.183 158.98L249.941 132.043L310.98 101.323L362.202 100.423L384.01 110.264L374.164 137.529L351.082 141.513L315.117 138.566L303.32 149.763L315.324 157.731L328.891 178.707L299.934 182.282Z" fill="#66853E" stroke="#4B6529" stroke-width="4.96321"/>
<path d="M253.497 115.367L242.356 88.4708L219.681 97.3033L189.114 116.498L178.705 140.962L192.995 162.947C201.991 161.426 220.406 157.967 222.096 156.302C223.786 154.636 234.127 139.222 239.086 131.722L253.497 115.367Z" fill="#66853E" stroke="#4B6529" stroke-width="4.96321"/>
<path d="M224.856 65.7756L183.836 72.3745L158.639 78.1843L107.639 83.1692L96.1265 104.33L113.288 112.207C121.819 122.451 139.309 143.136 141.025 143.924C142.741 144.712 160.797 129.945 169.611 122.464C180.907 119.71 204.958 114.278 210.796 114.584C218.093 114.967 243.114 125.774 245.984 128.024C248.28 129.824 275.466 123.672 288.772 120.371L304.59 86.1005L293.926 70.4413L269.198 86.722L256.501 80.5552L224.856 65.7756Z" fill="#66853E" stroke="#4B6529" stroke-width="4.96321"/>
<path d="M376.95 214.412C372.814 210.31 363.862 201.658 361.139 199.865C348.031 205.037 320.642 215.401 315.946 215.483C311.251 215.566 289.103 206.072 278.615 201.315C273.274 206.35 262.306 216.425 261.168 216.445C260.029 216.465 269.589 227.543 274.511 233.079C282.978 231.994 300.8 229.551 304.346 228.466C308.778 227.11 365.806 220.231 368.104 218.912C369.942 217.858 374.767 215.473 376.95 214.412Z" fill="#759F40"/>
<path d="M323.557 112.859C333.337 112.517 353.752 111.92 357.171 112.269L363.777 131.066C353.501 129.372 331.096 125.762 323.686 124.869C316.276 123.977 310.214 129.28 308.109 132.044L284.702 138.844L307.906 113.134L323.557 112.859Z" fill="#759F40"/>
<path d="M245.383 105.286L264.292 93.7082L266.782 93.6645L222.649 75.5259L116.319 96.3065L137.96 107.172L222.784 88.0474L245.383 105.286Z" fill="#759F40"/>
<path d="M97.5616 204.494L138.503 157.514L84.4615 177.376L45.3686 164.772L25.8572 169.971C35.7083 181.725 55.8096 205.943 57.4055 208.777C59.0014 211.612 84.8412 207.103 97.5616 204.494Z" fill="#759F40"/>
<path d="M166.785 206.857L159.454 203.407C149.607 208.521 128.462 219.491 122.659 222.455C116.857 225.42 106.684 242.161 102.323 250.16L61.134 274.142L92.8964 283.297L123.205 273.052L166.785 206.857Z" fill="#759F40"/>
<path d="M224.599 256.448C220.33 256.523 199.222 245.647 189.202 240.2L180.4 248.789C182.565 251.563 187.392 257.101 189.384 257.066C191.376 257.031 228.705 263.362 247.121 266.531L266.038 255.72L224.599 256.448Z" fill="#759F40"/>
<path d="M197.233 127.09L225.07 126.601L219.717 133.596L203.892 150.742L188.128 140.54L197.233 127.09Z" fill="#759F40"/>
<path d="M173.097 224.88L190.058 198.738C187.266 197.473 181.219 194.944 179.369 194.952C177.057 194.962 142.121 218.883 139.809 218.893C137.959 218.902 131.997 235.795 129.248 244.241L142.259 250.317L140.002 262.849C134.879 257.335 124.346 245.898 123.2 244.267C122.055 242.637 113.836 244.99 109.869 246.37L102.116 263.016L91.3886 250.541L105.714 231.822L134.581 203.072L166.504 181.719L154.029 176.407L134.464 176.494L101.759 182.005L91.1983 207.352L73.3123 225.32L68.6291 212.051L80.4462 189.254L75.4107 176.754L51.1854 168.938L60.9154 156.884L94.7636 168.746L128.862 156.584L153.956 159.796L172.828 163.802L166.345 145.686L161.049 114.53C153.62 110.389 137.832 101.19 134.116 97.5265C129.471 92.9468 150.832 96.6862 156.883 97.4262C161.724 98.0182 172.125 111.756 176.72 118.55L191.78 145.574L220.28 114.27L233.21 101.69L224.094 132.142L208.014 156.236L196.452 156.287L202.944 176.192C210.04 171.986 225.158 163.572 228.857 163.555L249.135 163.466C259.286 152.943 279.584 130.569 279.561 125.253C279.537 119.937 296.152 122.965 304.462 125.143L336.835 125.001C329.431 126.822 313.701 130.725 310.006 131.764C306.31 132.802 291.904 141.129 285.162 145.162L258.384 163.425L275.993 163.348L314.824 175.699L300.95 175.76L270.534 175.894C267.688 175.907 255.135 179.54 249.213 181.355L220.635 194.77L242.904 202.594C251.388 203.92 271.776 207.476 285.453 211.096C302.549 215.621 304.287 206.413 310.334 206.386C315.172 206.365 332.022 203.565 339.843 202.167L349.664 210.813C341.018 213.236 322.736 219.314 318.773 224.238C313.82 230.394 287.824 224.375 285.511 224.385L249.404 224.544C241.084 220.151 223.123 210.451 217.842 206.794C212.561 203.137 201.518 202.606 196.657 202.798L196.727 218.643L196.809 237.298C202.81 240.168 215.456 246.723 218.032 249.983C220.608 253.243 235.842 255.186 243.138 255.75L258.838 266.415L224.669 262.476L192.223 246.008L181.868 237.364L173.153 237.403L157.529 244.116L173.097 224.88Z" fill="#543838" stroke="#442424" stroke-width="4.13601"/>
<path d="M191.171 260.049C198.849 262.835 214.524 268.933 215.801 271.029C217.146 273.237 234.185 286.758 241.02 291.22L260.447 304.611L238.122 321.311L218.551 314.05L200.932 312.186C190.158 319.631 168.2 333.7 166.562 330.419C164.924 327.137 138.836 313.845 125.998 307.609L143.497 299.222L171.418 269.492L191.171 260.049Z" fill="#66853E"/>
<path d="M243.611 292.639C243.213 292.569 242.294 292.052 241.02 291.22M241.02 291.22C234.185 286.758 217.146 273.237 215.801 271.029C214.524 268.933 198.849 262.835 191.171 260.049L171.418 269.492L143.497 299.222L125.998 307.609C138.836 313.845 164.924 327.137 166.562 330.419C168.2 333.7 190.158 319.631 200.932 312.186L218.551 314.05L238.122 321.311L260.447 304.611L241.02 291.22Z" stroke="#4B6529" stroke-width="4.96321"/>
<path d="M210.914 283.969L239.401 307.803L219.686 301.074C213.516 298.608 200.186 293.804 196.218 294.309C191.258 294.94 180.811 301.916 177.269 302.366C173.726 302.817 165.257 304.409 162.036 304.305C159.459 304.223 166.742 294.125 170.706 289.087L185.545 275.393L197.994 277.401L210.914 283.969Z" fill="#759F40"/>
<path d="M221.635 245.51L261.296 244.814C269.977 247.047 287.773 252.119 289.507 254.542C291.24 256.965 287.492 265.653 285.401 269.694L256.018 283.245C243.85 282.095 218.977 279.499 216.829 278.31C214.682 277.121 192.168 273.29 181.179 271.524L154.872 256.906L157.656 234.621L183.568 229.054C191.169 230.114 206.944 232.529 209.233 233.716C211.523 234.902 218.455 242.073 221.635 245.51Z" fill="#66853E" stroke="#4B6529" stroke-width="4.96321"/>
<path d="M147.975 145.079L111.606 154.152L67.7205 159.012L45.5814 151.478L8.54525 164.652L25.3196 186.082L50.0336 234.466L91.8289 233.732L112.193 208.582L148.25 170.633L147.975 145.079Z" fill="#66853E" stroke="#4B6529" stroke-width="4.96321"/>
<path d="M173.367 190.384L156.419 185.826L136.353 205.603L117.323 205.937C111.711 213.447 100.497 229.286 100.532 232.557C100.568 235.828 85.5228 248.326 77.9959 254.167C73.3143 254.419 62.287 255.669 55.6306 258.649C48.9742 261.628 50.5794 268.62 52.214 271.744C53.5908 278.45 56.8123 292.366 58.684 294.377C60.5557 296.389 78.2399 298.805 86.848 299.761L124.347 296.547L146.572 279.032L152.446 262.827L165.584 243.939C174.583 237.22 193.432 223.36 196.829 221.665C200.226 219.97 195.305 212.32 192.42 208.707L173.367 190.384Z" fill="#66853E"/>
<path d="M241.115 220.887L263.265 196.473C270.6 194.811 285.626 191.582 287.053 191.966C288.48 192.35 298.845 196.7 303.848 198.828L334.439 198.29L361.305 182.228C369.318 188.562 385.782 202.041 387.524 205.281C389.267 208.522 390.481 226.529 390.87 235.126L361.933 240.491L317.292 241.275L265.892 242.177L241.115 220.887Z" fill="#66853E"/>
<path d="M173.367 190.384L156.419 185.826L136.353 205.603L117.323 205.937C111.711 213.447 100.497 229.286 100.532 232.557C100.568 235.828 85.5228 248.326 77.9959 254.167C73.3143 254.419 62.287 255.669 55.6306 258.649C48.9742 261.628 50.5794 268.62 52.214 271.744C53.5908 278.45 56.8123 292.366 58.684 294.377C60.5557 296.389 78.2399 298.805 86.848 299.761L124.347 296.547L146.572 279.032L152.446 262.827L165.584 243.939C174.583 237.22 193.432 223.36 196.829 221.665C200.226 219.97 195.305 212.32 192.42 208.707L173.367 190.384Z" stroke="#4B6529" stroke-width="4.96321"/>
<path d="M241.115 220.887L263.265 196.473C270.6 194.811 285.626 191.582 287.053 191.966C288.48 192.35 298.845 196.7 303.848 198.828L334.439 198.29L361.305 182.228C369.318 188.562 385.782 202.041 387.524 205.281C389.267 208.522 390.481 226.529 390.87 235.126L361.933 240.491L317.292 241.275L265.892 242.177L241.115 220.887Z" stroke="#4B6529" stroke-width="4.96321"/>
<path d="M299.934 182.282L258.495 183.01L258.462 179.944L244.183 158.98L249.941 132.043L310.98 101.323L362.202 100.423L384.01 110.264L374.164 137.529L351.082 141.513L315.117 138.566L303.32 149.763L315.324 157.731L328.891 178.707L299.934 182.282Z" fill="#66853E" stroke="#4B6529" stroke-width="4.96321"/>
<path d="M253.497 115.367L242.356 88.4708L219.681 97.3033L189.114 116.498L178.705 140.962L192.995 162.947C201.991 161.426 220.406 157.967 222.096 156.302C223.786 154.636 234.127 139.222 239.086 131.722L253.497 115.367Z" fill="#66853E" stroke="#4B6529" stroke-width="4.96321"/>
<path d="M224.856 65.7756L183.836 72.3745L158.639 78.1843L107.639 83.1692L96.1265 104.33L113.288 112.207C121.819 122.451 139.309 143.136 141.025 143.924C142.741 144.712 160.797 129.945 169.611 122.464C180.907 119.71 204.958 114.278 210.796 114.584C218.093 114.967 243.114 125.774 245.984 128.024C248.28 129.824 275.466 123.672 288.772 120.371L304.59 86.1005L293.926 70.4413L269.198 86.722L256.501 80.5552L224.856 65.7756Z" fill="#66853E" stroke="#4B6529" stroke-width="4.96321"/>
<path d="M376.95 214.412C372.814 210.31 363.862 201.658 361.139 199.865C348.031 205.037 320.642 215.401 315.946 215.483C311.251 215.566 289.103 206.072 278.615 201.315C273.274 206.35 262.306 216.425 261.168 216.445C260.029 216.465 269.589 227.543 274.511 233.079C282.978 231.994 300.8 229.551 304.346 228.466C308.778 227.11 365.806 220.231 368.104 218.912C369.942 217.858 374.767 215.473 376.95 214.412Z" fill="#759F40"/>
<path d="M323.557 112.859C333.337 112.517 353.752 111.92 357.171 112.269L363.777 131.066C353.501 129.372 331.096 125.762 323.686 124.869C316.276 123.977 310.214 129.28 308.109 132.044L284.702 138.844L307.906 113.134L323.557 112.859Z" fill="#759F40"/>
<path d="M245.383 105.286L264.292 93.7082L266.782 93.6645L222.649 75.5259L116.319 96.3065L137.96 107.172L222.784 88.0474L245.383 105.286Z" fill="#759F40"/>
<path d="M97.5616 204.494L138.503 157.514L84.4615 177.376L45.3686 164.772L25.8572 169.971C35.7083 181.725 55.8096 205.943 57.4055 208.777C59.0014 211.612 84.8412 207.103 97.5616 204.494Z" fill="#759F40"/>
<path d="M166.785 206.857L159.454 203.407C149.607 208.521 128.462 219.491 122.659 222.455C116.857 225.42 106.684 242.161 102.323 250.16L61.134 274.142L92.8964 283.297L123.205 273.052L166.785 206.857Z" fill="#759F40"/>
<path d="M224.599 256.448C220.33 256.523 199.222 245.647 189.202 240.2L180.4 248.789C182.565 251.563 187.392 257.101 189.384 257.066C191.376 257.031 228.705 263.362 247.121 266.531L266.038 255.72L224.599 256.448Z" fill="#759F40"/>
<path d="M197.233 127.09L225.07 126.601L219.717 133.596L203.892 150.742L188.128 140.54L197.233 127.09Z" fill="#759F40"/>
</svg>
