<svg width="400" height="400" viewBox="0 0 400 400" fill="none" xmlns="http://www.w3.org/2000/svg">
<path d="M189.492 181.888L183.045 202.214L166.359 201.475L152.328 185.029L123.38 172.464H77.7464L119.082 181.888L129.827 202.214L139.434 217.92L123.38 228.268L106.188 234.55L70.6675 228.268L93.2947 247.854L119.082 255.8L139.434 243.235L150.179 217.92H179.759L174.449 252.659L158.775 268.365C153.044 272.553 140.521 280.93 136.274 280.93C130.965 280.93 108.843 294.973 106.188 295.712C103.534 296.452 128.184 295.712 132.987 295.712C136.83 295.712 161.134 285.858 172.806 280.93L183.045 295.712L206.684 301.995L198.594 280.93L192.652 255.8V217.92L206.684 234.55L238.918 262.083V290.354C238.918 295.158 230.828 320.843 230.828 324.908C230.828 328.973 217.934 327.125 210.476 329.527C204.51 331.449 194.001 338.212 189.492 341.353L206.684 350.038L238.918 333.408L256.616 313.821L262.557 290.354V268.365C265.253 266.271 271.709 262.083 275.956 262.083C280.203 262.083 303.85 257.894 315.143 255.8L338.276 234.55C329.132 237.445 309.025 243.235 301.744 243.235C292.642 243.235 267.36 244.713 262.557 243.235C258.714 242.052 239.803 236.952 230.828 234.55L226.53 217.92V207.018L215.28 201.475L211.487 189.649V172.464L217.934 153.617L230.828 123.682H262.557L294.285 87.6501L251.306 104.835H226.53L203.397 69.5416C202.512 62.212 200.313 47.0724 198.594 45.1507C196.875 43.229 187.512 44.35 183.045 45.1507V78.9654C188.228 83.9545 198.594 94.8565 198.594 98.5521C198.594 102.248 201.796 116.845 203.397 123.682L198.594 153.617H175.966L147.019 135.508L119.082 104.835L106.188 93.9326L97.5927 104.835C104.04 114.258 117.363 133.586 119.082 135.508C120.801 137.43 140.53 151.461 150.179 158.236L189.492 166.182V181.888Z" fill="#543838" stroke="#442424" stroke-width="3.88542"/>
<path d="M155.362 74.9009L79.137 86.7268L67.0017 96.7049V127.563H96.8343L164.21 144.378L217.176 127.563L174.323 102.618L155.362 74.9009Z" fill="#66853E" stroke="#4B6529" stroke-width="4.6625"/>
<path d="M196.192 147.334C191.338 148.073 151.106 160.207 131.597 166.182V179.116C131.597 184.105 159.407 199.996 164.842 201.105C170.278 202.214 185.953 198.149 196.192 192.051C206.431 185.953 247.135 192.051 252.57 192.051C256.919 192.051 289.271 187.493 304.904 185.214V166.182L274.313 147.334L236.896 158.236C225.35 154.294 201.046 146.595 196.192 147.334Z" fill="#66853E" stroke="#4B6529" stroke-width="4.6625"/>
<path d="M171.669 103.726L211.108 82.8461C228.342 79.1505 263.897 71.7593 268.245 71.7593C273.681 71.7593 302.249 70.8354 308.317 71.7593C313.171 72.4984 328.458 85.9873 335.495 92.6394V112.596L291.378 103.726C282.53 109.331 276.437 128.265 268.245 136.248C260.054 144.23 241.657 149.121 240.309 153.432C227.019 154.413 208.966 138.772 206.095 136.285L206.052 136.248C203.322 133.882 173.017 137.171 162.82 130.519L171.669 103.726Z" fill="#66853E" stroke="#4B6529" stroke-width="4.6625"/>
<path d="M284.552 219.029C271.195 223.957 243.52 234.033 239.677 234.92L209.718 240.833V258.757C214.943 262.699 226.075 270.583 228.806 270.583H271.658C278.484 270.583 284.552 275.572 289.356 275.572C294.159 275.572 308.317 276.681 319.188 275.572C327.885 274.685 338.234 260.666 342.321 253.768L367.477 270.583L392 258.757L384.542 240.833L367.477 225.866C354.33 223.587 326.267 219.029 319.188 219.029H284.552Z" fill="#66853E" stroke="#4B6529" stroke-width="4.6625"/>
<path d="M170.278 73.7917C164.312 73.7917 160.123 55.9296 158.775 46.9986L174.323 34.064C184.984 29.7525 207.67 21.1294 213.131 21.1294C218.592 21.1294 229.901 29.7525 234.873 34.064L260.787 46.9986L244.48 59.9332C237.654 60.6107 222.915 62.5571 218.566 64.9223C213.131 67.8787 207.063 73.7917 200.869 73.7917H170.278Z" fill="#66853E" stroke="#4B6529" stroke-width="4.6625"/>
<path d="M183.172 263.746C196.782 270.337 224.811 283.739 228.047 284.626L239.045 276.681L265.464 300.517L245.744 319.365L218.566 328.234C210.181 329.22 192.046 330.6 186.585 328.234C181.124 325.869 172.09 312.097 168.256 305.506H133.619C130.889 305.506 112.088 314.745 103.028 319.365L79.8955 305.506L94.1798 291.463L113.141 276.681L147.904 263.746H183.172Z" fill="#66853E" stroke="#4B6529" stroke-width="4.6625"/>
<path d="M182.54 312.343H232.851C245.997 312.343 273.934 311.16 280.507 306.43C287.08 301.699 298.668 295.836 303.64 293.495L314.511 322.321V348.19H280.507H251.18C245.07 351.146 231.764 358.464 227.415 364.081C223.067 369.698 210.181 375.661 204.282 377.94L142.468 364.081L148.536 348.19L162.82 340.244L182.54 312.343Z" fill="#66853E" stroke="#4B6529" stroke-width="4.6625"/>
<path d="M71.6788 214.04C91.3987 219.953 131.395 232.407 133.619 234.92L141.71 226.974L167.623 234.92L158.016 252.659C153.508 257.648 143.403 267.626 139.055 267.626C133.619 267.626 121.358 280.56 115.922 282.593C110.486 284.626 87.3535 272.615 79.8954 267.626C73.9289 263.635 63.3358 255.985 58.7851 252.659H21.3679C15.2581 246.746 3.9993 234.92 7.84214 234.92C11.685 234.92 18.4605 227.528 21.3679 223.833C27.7305 220.568 42.3519 214.04 49.9364 214.04H71.6788Z" fill="#66853E" stroke="#4B6529" stroke-width="4.6625"/>
<path d="M60.6814 151.4L100.374 155.834H139.94L151.949 178.562L135.136 201.475L112.383 193.53L78.758 201.475C67.5497 197.04 44.1724 187.838 40.3295 186.508C36.4867 185.177 41.9307 174.251 45.1331 168.954L60.6814 151.4Z" fill="#66853E" stroke="#4B6529" stroke-width="4.6625"/>
<path d="M178.874 338.582C182.413 334.825 189.947 326.645 191.768 323.984H250.042H301.744C291.547 328.85 268.928 338.582 260.029 338.582H208.833C203.524 338.582 187.091 353.18 178.874 352.256C172.301 351.517 176.135 342.832 178.874 338.582Z" fill="#759F40"/>
<path d="M174.702 278.344C170.531 276.681 155.994 273.17 150.685 272.431L133.619 292.202L167.118 285.18C175.334 290.046 192.956 299.778 197.709 299.778H238.918V292.202H224.761C220.715 292.202 201.754 287.028 197.709 285.18C193.664 283.333 178.874 280.007 174.702 278.344Z" fill="#759F40"/>
<path d="M297.067 225.127C280.001 231.102 242.711 243.42 230.07 244.898C232.219 246.869 236.997 251.329 238.918 253.398C241.32 255.985 284.678 254.322 293.022 253.398C299.696 252.659 313.837 247.424 320.073 244.898H371.142C362.125 240.033 343.383 229.266 340.551 225.127C337.72 220.988 310.382 223.402 297.067 225.127Z" fill="#759F40"/>
<path d="M197.709 160.084C194.802 159.53 171.669 161.378 159.913 165.073V178.008C171.711 177.269 196.293 176.234 200.237 178.008C205.167 180.225 266.476 178.008 270.9 178.008C274.439 178.008 284.51 169.385 289.103 165.073H277.726H253.203C246.376 165.073 200.616 160.639 197.709 160.084Z" fill="#759F40"/>
<path d="M139.308 178.008L133.619 165.073H117.692C107.326 165.073 72.943 160.084 62.7038 160.084C54.5125 160.084 61.9032 169.077 66.6225 173.573L106.947 178.008H139.308Z" fill="#759F40"/>
<path d="M150.685 85.4333C141.962 87.7739 121.004 92.455 106.947 92.455L89.2498 96.8897C98.7305 102.864 118.88 115.811 123.633 119.802C128.386 123.794 146.513 121.465 154.983 119.802L159.913 96.8897L150.685 85.4333Z" fill="#759F40"/>
<path d="M187.47 114.074C190.883 110.748 198.215 102.655 200.237 96.8897L238.918 85.4333H289.103L270.9 96.8897C268.456 101.879 263.669 112.3 264.074 114.074C264.579 116.292 238.918 119.802 230.07 119.802C222.991 119.802 222.232 114.505 222.738 111.857L187.47 114.074Z" fill="#759F40"/>
<path d="M211.488 31.4775C199.226 34.8652 173.818 42.1948 170.278 44.4121V48.6621L200.237 52.3577L230.07 48.6621L211.488 31.4775Z" fill="#759F40"/>
<path d="M86.7216 225.127H50.4421L83.8142 244.898L89.2498 253.398H111.245L133.619 244.898L111.245 235.29L86.7216 225.127Z" fill="#759F40"/>
</svg>
