<svg width="500" height="501" viewBox="0 0 500 501" fill="none" xmlns="http://www.w3.org/2000/svg">
<g clip-path="url(#clip0_638_70726)">
<mask id="path-1-outside-1_638_70726" maskUnits="userSpaceOnUse" x="61" y="51.0474" width="380" height="443" fill="black">
<rect fill="white" x="61" y="51.0474" width="380" height="443"/>
<path fill-rule="evenodd" clip-rule="evenodd" d="M195.4 141.905C194.485 128.967 194.474 102.157 194.63 87.4112C204.264 75.8599 231.919 58.4197 265.47 81.0691C268.904 103.601 271.071 121.367 272.357 133.862C294.379 136.607 316.228 143.71 336.655 155.503C418.483 202.747 446.52 307.381 399.276 389.209C352.033 471.037 247.399 499.074 165.571 451.83C83.7424 404.586 55.706 299.953 102.95 218.125C124.421 180.934 157.748 154.856 195.4 141.905Z"/>
</mask>
<path fill-rule="evenodd" clip-rule="evenodd" d="M195.4 141.905C194.485 128.967 194.474 102.157 194.63 87.4112C204.264 75.8599 231.919 58.4197 265.47 81.0691C268.904 103.601 271.071 121.367 272.357 133.862C294.379 136.607 316.228 143.71 336.655 155.503C418.483 202.747 446.52 307.381 399.276 389.209C352.033 471.037 247.399 499.074 165.571 451.83C83.7424 404.586 55.706 299.953 102.95 218.125C124.421 180.934 157.748 154.856 195.4 141.905Z" fill="#8EA9B5"/>
<path d="M194.63 87.4112L180.596 75.7064L176.426 80.7066L176.356 87.217L194.63 87.4112ZM195.4 141.905L201.344 159.187L214.62 154.62L213.629 140.616L195.4 141.905ZM265.47 81.0691L283.536 78.3153L282.33 70.4015L275.695 65.9225L265.47 81.0691ZM272.357 133.862L254.178 135.733L255.666 150.198L270.096 151.996L272.357 133.862ZM336.655 155.503L327.518 171.33L327.518 171.33L336.655 155.503ZM399.276 389.209L383.45 380.071L383.45 380.071L399.276 389.209ZM165.571 451.83L156.433 467.657L156.433 467.657L165.571 451.83ZM102.95 218.125L118.776 227.262L118.776 227.262L102.95 218.125ZM176.356 87.217C176.201 101.836 176.194 129.391 177.17 143.195L213.629 140.616C212.775 128.543 212.746 102.479 212.904 87.6053L176.356 87.217ZM275.695 65.9225C254.732 51.7712 234.174 49.4532 216.792 53.6505C200.183 57.6607 187.589 67.3213 180.596 75.7064L208.665 99.1159C211.305 95.9498 217.355 91.1146 225.37 89.1793C232.611 87.4309 242.656 87.7175 255.244 96.2156L275.695 65.9225ZM290.536 131.991C289.218 119.184 287.012 101.123 283.536 78.3153L247.403 83.8228C250.796 106.079 252.924 123.55 254.178 135.733L290.536 131.991ZM270.096 151.996C289.739 154.445 309.243 160.779 327.518 171.33L345.793 139.677C323.212 126.64 299.02 118.769 274.618 115.727L270.096 151.996ZM327.518 171.33C400.605 213.527 425.647 306.984 383.45 380.071L415.103 398.346C467.393 307.777 436.362 191.967 345.793 139.677L327.518 171.33ZM383.45 380.071C341.253 453.159 247.796 478.201 174.708 436.004L156.433 467.657C247.002 519.947 362.813 488.916 415.103 398.346L383.45 380.071ZM174.708 436.004C101.621 393.806 76.579 300.35 118.776 227.262L87.123 208.987C34.8329 299.556 65.8642 415.367 156.433 467.657L174.708 436.004ZM118.776 227.262C137.961 194.033 167.701 170.758 201.344 159.187L189.456 124.624C147.794 138.953 110.882 167.836 87.123 208.987L118.776 227.262Z" fill="#3D5560" mask="url(#path-1-outside-1_638_70726)"/>
<path d="M265.869 81.7213C232.585 57.6139 204.045 76.0833 193.936 88.3313C195.232 106.606 196.035 145.839 195.88 147.239C195.685 148.989 197.824 149.183 199.962 151.516C232.157 171.268 262.369 149.766 273.451 136.546L265.869 81.7213Z" fill="#8EA9B5"/>
<path d="M139.75 139.19L140.666 123.619L139.12 86.7153C139.115 86.574 139.186 86.4407 139.306 86.367L176.788 63.5073C176.89 63.4453 176.956 63.3451 176.973 63.2272C177.713 58.0306 184.03 46.1688 193.696 42.5668M139.75 139.19L282.48 90.1271C282.513 89.7576 282.546 89.3869 282.58 89.0169C282.945 84.9711 283.303 81.0049 282.459 79.553C281.284 77.535 275.917 59.0369 275.749 56.1781C275.616 53.9077 269.74 46.2565 266.756 42.6355C266.712 42.5826 266.66 42.5452 266.595 42.5215C250.349 36.5351 216.65 29.9404 193.749 42.5427M139.75 139.19L135.223 141.76C136.666 140.941 138.19 140.582 139.667 140.606L139.188 148.747L139.188 148.747L139.153 149.346C139.135 149.653 139.465 149.859 139.733 149.707L140.255 149.41L147.347 145.385M139.75 139.19L147.347 145.385M193.696 42.5668C193.714 42.5601 193.732 42.552 193.749 42.5427M193.696 42.5668L193.558 42.1968L193.749 42.5427M193.696 42.5668L193.558 42.1968L189.343 34.5373C189.344 34.5373 189.344 34.5372 189.344 34.5372M193.749 42.5427L193.558 42.1967L190.506 34.0045C190.506 34.0045 190.506 34.0045 190.506 34.0045M189.344 34.5372L193.558 42.1967L190.506 34.0045M189.344 34.5372C189.345 34.5364 189.347 34.5356 189.348 34.5347C189.347 34.5356 189.345 34.5364 189.344 34.5372ZM190.506 34.0045C190.505 34.0049 190.504 34.0053 190.503 34.0056C190.504 34.0053 190.505 34.0049 190.506 34.0045ZM189.876 34.248C203.348 27.0234 219.241 25.5781 233.231 26.4412C247.521 27.3229 260.881 30.6777 269.755 33.9476L269.755 33.9477C271.344 34.5334 272.738 35.5268 273.807 36.824L189.876 34.248ZM189.876 34.248C183.014 36.9996 177.901 42.2598 174.531 47.0169C172.174 50.3441 170.219 54.067 169.028 57.5374L134.549 78.566L134.549 78.5661C131.591 80.3698 129.846 83.6366 129.991 87.0977L131.517 123.542L130.031 148.809C129.588 156.348 137.675 161.381 144.243 157.653C144.243 157.653 144.243 157.653 144.243 157.653L157.916 149.893L172.892 141.843L168.566 133.795L172.892 141.843C178.683 138.731 179.655 130.826 174.79 126.404L174.79 126.403L165.357 117.828V102.175L171.023 100.073C171.896 102.431 173.671 104.356 175.969 105.415L181.843 108.12C181.843 108.12 181.843 108.12 181.843 108.12C184.387 109.292 187.483 109.347 190.222 107.921C199.009 103.348 213.466 97.2984 228.026 94.0731C243.15 90.7229 255.591 91.0503 262.766 95.7128C268.043 99.3491 272.959 101.206 277.791 101.065C282.244 100.935 286.318 98.6595 285.743 98.8991L285.742 98.8992L189.876 34.248ZM179.499 96.8996L179.583 96.8743L179.499 96.8996ZM179.499 96.8996L179.484 96.9041L179.499 96.8996ZM147.347 145.385C148.021 146.7 148.372 148.225 148.275 149.882L148.58 144.685L153.497 141.894L147.347 145.385Z" fill="#91847D" stroke="#3D5560" stroke-width="18.2749"/>
<path d="M119.75 194.355C144.098 170.265 183.179 141.272 217 135.855C250.821 130.439 295.596 133.573 326.25 148.855C356.903 164.137 382.97 188.836 399 219.105C415.03 249.374 431.75 309.355 413.5 351.355L389.75 319.855L363 290.855C342.5 271.855 336.75 262.519 323.25 252.605C307.25 240.855 296.553 235.116 286 229.855C275.447 224.594 251 219.105 235 214.355C219 209.605 198.25 207.605 185.5 203.605L141.5 194.355L119.75 194.355Z" fill="#99B6C4"/>
<path d="M337.25 451.605C310.011 467.332 268.803 477.423 237.5 474.355C206.197 471.288 162.243 454.733 138.575 434.018C114.907 413.303 93.4371 380.226 86.2497 349.605C79.0623 318.985 77.5207 277.688 89.4999 248.605L139.75 309.105C150.25 315.855 170.75 336.855 177.75 345.855C183 352.605 193.641 360.259 199.75 365.605C205.858 370.952 210.995 377.416 220.75 386.855C227.725 393.605 237 401.105 252.25 408.855L337.25 451.605Z" fill="#7E99A5"/>
<path d="M269.044 69.8511L263.795 46.7158C256.861 46.003 242.643 44.4995 241.243 44.1884C239.493 43.7996 219.274 41.8555 214.608 41.8555C210.876 41.8555 201.647 46.5214 197.5 48.8544C200.87 50.8633 208.115 54.8812 210.137 54.8812C212.159 54.8812 229.125 56.955 237.355 57.9918L269.044 69.8511Z" fill="#AEA49E"/>
</g>
<defs>
<clipPath id="clip0_638_70726">
<rect width="500" height="500" fill="white" transform="translate(0 0.355469)"/>
</clipPath>
</defs>
</svg>
