<svg width="501" height="500" viewBox="0 0 501 500" fill="none" xmlns="http://www.w3.org/2000/svg">
<mask id="path-1-outside-1_621_70775" maskUnits="userSpaceOnUse" x="88.209" y="97.0068" width="132" height="79" fill="black">
<rect fill="white" x="88.209" y="97.0068" width="132" height="79"/>
<path fill-rule="evenodd" clip-rule="evenodd" d="M167.403 115.527C174.342 117.459 180.765 122.735 187.968 122.735V122.735C195.826 122.735 202.197 129.106 202.197 136.964V143.268C202.197 151.126 195.826 157.497 187.968 157.497H120.438C112.579 157.497 106.209 151.126 106.209 143.268V136.964C106.209 129.106 112.579 122.735 120.438 122.735V122.735C127.64 122.735 134.063 117.46 141.002 115.527C142.219 115.188 143.502 115.007 144.828 115.007H163.577C164.903 115.007 166.186 115.188 167.403 115.527Z"/>
</mask>
<path fill-rule="evenodd" clip-rule="evenodd" d="M167.403 115.527C174.342 117.459 180.765 122.735 187.968 122.735V122.735C195.826 122.735 202.197 129.106 202.197 136.964V143.268C202.197 151.126 195.826 157.497 187.968 157.497H120.438C112.579 157.497 106.209 151.126 106.209 143.268V136.964C106.209 129.106 112.579 122.735 120.438 122.735V122.735C127.64 122.735 134.063 117.46 141.002 115.527C142.219 115.188 143.502 115.007 144.828 115.007H163.577C164.903 115.007 166.186 115.188 167.403 115.527Z" fill="#616161"/>
<path d="M187.968 140.622C185.948 140.622 184.311 138.984 184.311 136.964H220.083C220.083 119.228 205.705 104.849 187.968 104.849V140.622ZM184.311 136.964V143.268H220.083V136.964H184.311ZM184.311 143.268C184.311 141.248 185.948 139.611 187.968 139.611V175.383C205.705 175.383 220.083 161.005 220.083 143.268H184.311ZM187.968 139.611H120.438V175.383H187.968V139.611ZM120.438 139.611C122.458 139.611 124.095 141.248 124.095 143.268H88.3228C88.3228 161.005 102.701 175.383 120.438 175.383V139.611ZM124.095 143.268V136.964H88.3228V143.268H124.095ZM124.095 136.964C124.095 138.984 122.458 140.622 120.438 140.622V104.849C102.701 104.849 88.3228 119.228 88.3228 136.964H124.095ZM145.801 132.758C145.471 132.849 145.14 132.893 144.828 132.893V97.1207C141.865 97.1207 138.968 97.5268 136.202 98.297L145.801 132.758ZM144.828 132.893H163.577V97.1207H144.828V132.893ZM163.577 132.893C163.265 132.893 162.935 132.849 162.605 132.758L172.202 98.2967C169.437 97.5267 166.54 97.1207 163.577 97.1207V132.893ZM120.438 140.622C128.213 140.622 134.663 137.785 138.328 136.089C143.132 133.867 144.184 133.208 145.801 132.758L136.202 98.297C133.192 99.1354 130.54 100.249 128.489 101.179C127.452 101.649 126.456 102.125 125.614 102.528C124.721 102.956 124.014 103.297 123.309 103.623C120.228 105.048 119.865 104.849 120.438 104.849V140.622ZM187.968 104.849C188.54 104.849 188.177 105.048 185.096 103.622C184.391 103.296 183.684 102.956 182.791 102.528C181.949 102.124 180.953 101.648 179.916 101.178C177.864 100.248 175.212 99.1351 172.202 98.2967L162.605 132.758C164.221 133.208 165.274 133.867 170.077 136.089C173.743 137.785 180.193 140.622 187.968 140.622V104.849Z" fill="#402D2D" mask="url(#path-1-outside-1_621_70775)"/>
<mask id="path-3-outside-2_621_70775" maskUnits="userSpaceOnUse" x="289.965" y="97.0068" width="132" height="79" fill="black">
<rect fill="white" x="289.965" y="97.0068" width="132" height="79"/>
<path fill-rule="evenodd" clip-rule="evenodd" d="M369.159 115.527C376.098 117.459 382.521 122.735 389.724 122.735V122.735C397.582 122.735 403.953 129.106 403.953 136.964V143.268C403.953 151.126 397.582 157.497 389.724 157.497H322.194C314.335 157.497 307.965 151.126 307.965 143.268V136.964C307.965 129.106 314.335 122.735 322.194 122.735V122.735C329.396 122.735 335.819 117.46 342.757 115.527C343.975 115.188 345.258 115.007 346.584 115.007H365.333C366.659 115.007 367.942 115.188 369.159 115.527Z"/>
</mask>
<path fill-rule="evenodd" clip-rule="evenodd" d="M369.159 115.527C376.098 117.459 382.521 122.735 389.724 122.735V122.735C397.582 122.735 403.953 129.106 403.953 136.964V143.268C403.953 151.126 397.582 157.497 389.724 157.497H322.194C314.335 157.497 307.965 151.126 307.965 143.268V136.964C307.965 129.106 314.335 122.735 322.194 122.735V122.735C329.396 122.735 335.819 117.46 342.757 115.527C343.975 115.188 345.258 115.007 346.584 115.007H365.333C366.659 115.007 367.942 115.188 369.159 115.527Z" fill="#616161"/>
<path d="M389.724 140.622C387.704 140.622 386.067 138.984 386.067 136.964H421.839C421.839 119.228 407.46 104.849 389.724 104.849V140.622ZM386.067 136.964V143.268H421.839V136.964H386.067ZM386.067 143.268C386.067 141.248 387.704 139.611 389.724 139.611V175.383C407.46 175.383 421.839 161.005 421.839 143.268H386.067ZM389.724 139.611H322.194V175.383H389.724V139.611ZM322.194 139.611C324.214 139.611 325.851 141.248 325.851 143.268H290.079C290.079 161.005 304.457 175.383 322.194 175.383V139.611ZM325.851 143.268V136.964H290.079V143.268H325.851ZM325.851 136.964C325.851 138.984 324.214 140.622 322.194 140.622V104.849C304.457 104.849 290.079 119.228 290.079 136.964H325.851ZM347.557 132.758C347.227 132.849 346.896 132.893 346.584 132.893V97.1207C343.621 97.1207 340.723 97.5268 337.958 98.297L347.557 132.758ZM346.584 132.893H365.333V97.1207H346.584V132.893ZM365.333 132.893C365.021 132.893 364.691 132.849 364.361 132.758L373.958 98.2967C371.193 97.5267 368.296 97.1207 365.333 97.1207V132.893ZM322.194 140.622C329.968 140.622 336.418 137.785 340.084 136.089C344.888 133.867 345.94 133.208 347.557 132.758L337.958 98.297C334.948 99.1354 332.296 100.249 330.245 101.179C329.208 101.649 328.212 102.125 327.37 102.528C326.477 102.956 325.77 103.297 325.065 103.623C321.984 105.048 321.621 104.849 322.194 104.849V140.622ZM389.724 104.849C390.296 104.849 389.933 105.048 386.852 103.622C386.147 103.296 385.44 102.956 384.547 102.528C383.705 102.124 382.709 101.648 381.672 101.178C379.62 100.248 376.968 99.1351 373.958 98.2967L364.361 132.758C365.977 133.208 367.029 133.867 371.833 136.089C375.499 137.785 381.949 140.622 389.724 140.622V104.849Z" fill="#402D2D" mask="url(#path-3-outside-2_621_70775)"/>
<rect x="198.858" y="329.286" width="112.989" height="64.6035" rx="23.172" fill="#616161" stroke="#402D2D" stroke-width="17.8862"/>
<rect x="13.5569" y="205.341" width="474.341" height="86.785" rx="43.3925" fill="#5A4848" stroke="#402D2D" stroke-width="17.8862"/>
<rect x="47.053" y="141.496" width="408.132" height="220.09" rx="45.5317" fill="#5A4848" stroke="#402D2D" stroke-width="17.8862"/>
<rect x="81.1758" y="174.831" width="339.891" height="148.702" rx="36.5886" fill="#685050"/>
<rect x="128.093" y="134.417" width="52.5047" height="238.186" rx="23.172" fill="#616161" stroke="#402D2D" stroke-width="17.8862"/>
<rect x="329.508" y="134.417" width="52.5047" height="238.186" rx="23.172" fill="#616161" stroke="#402D2D" stroke-width="17.8862"/>
</svg>
