<svg width="1000" height="1000" viewBox="0 0 1000 1000" fill="none" xmlns="http://www.w3.org/2000/svg">
<mask id="path-1-outside-1_621_70803" maskUnits="userSpaceOnUse" x="176.598" y="263.85" width="261" height="155" fill="black">
<rect fill="white" x="176.598" y="263.85" width="261" height="155"/>
<path fill-rule="evenodd" clip-rule="evenodd" d="M333.624 299.635C347.905 303.133 361.053 314.272 375.755 314.272V314.272C390.868 314.272 403.12 326.523 403.12 341.636V356.266C403.12 371.379 390.868 383.631 375.755 383.631H238.962C223.849 383.631 211.598 371.379 211.598 356.266V341.636C211.598 326.523 223.849 314.272 238.962 314.272V314.272C253.667 314.272 266.817 303.13 281.1 299.634C283.193 299.122 285.379 298.85 287.629 298.85H327.092C329.343 298.85 331.531 299.122 333.624 299.635Z"/>
</mask>
<path fill-rule="evenodd" clip-rule="evenodd" d="M333.624 299.635C347.905 303.133 361.053 314.272 375.755 314.272V314.272C390.868 314.272 403.12 326.523 403.12 341.636V356.266C403.12 371.379 390.868 383.631 375.755 383.631H238.962C223.849 383.631 211.598 371.379 211.598 356.266V341.636C211.598 326.523 223.849 314.272 238.962 314.272V314.272C253.667 314.272 266.817 303.13 281.1 299.634C283.193 299.122 285.379 298.85 287.629 298.85H327.092C329.343 298.85 331.531 299.122 333.624 299.635Z" fill="#616161"/>
<path d="M375.755 348.67C371.871 348.67 368.722 345.521 368.722 341.636H437.518C437.518 307.526 409.866 279.874 375.755 279.874V348.67ZM368.722 341.636V356.266H437.518V341.636H368.722ZM368.722 356.266C368.722 352.382 371.871 349.233 375.755 349.233V418.029C409.866 418.029 437.518 390.377 437.518 356.266H368.722ZM375.755 349.233H238.962L238.962 418.029H375.755V349.233ZM238.962 349.233C242.847 349.233 245.996 352.382 245.996 356.266H177.2C177.2 390.377 204.852 418.029 238.962 418.029L238.962 349.233ZM245.996 356.266V341.636H177.2V356.266H245.996ZM245.996 341.636C245.996 345.521 242.847 348.67 238.962 348.67V279.874C204.852 279.874 177.2 307.526 177.2 341.636H245.996ZM289.279 333.045C288.715 333.183 288.157 333.248 287.629 333.248V264.452C282.602 264.452 277.67 265.06 272.921 266.222L289.279 333.045ZM287.629 333.248H327.092V264.452H287.629V333.248ZM327.092 333.248C326.564 333.248 326.005 333.183 325.441 333.045L341.808 266.224C337.057 265.061 332.122 264.452 327.092 264.452V333.248ZM238.962 348.67C254.537 348.67 267.524 342.798 274.726 339.44C284.175 335.033 286.434 333.742 289.279 333.045L272.921 266.222C266.558 267.78 260.977 270.02 256.638 271.941C252.92 273.586 247.805 276.085 245.653 277.088C239.033 280.175 238.092 279.874 238.962 279.874V348.67ZM375.755 279.874C376.626 279.874 375.686 280.175 369.068 277.09C366.918 276.087 361.803 273.588 358.087 271.943C353.749 270.023 348.169 267.783 341.808 266.224L325.441 333.045C328.287 333.742 330.545 335.034 339.995 339.44C347.197 342.798 360.182 348.67 375.755 348.67V279.874Z" fill="#402D2D" mask="url(#path-1-outside-1_621_70803)"/>
<mask id="path-3-outside-2_621_70803" maskUnits="userSpaceOnUse" x="581.995" y="258.301" width="261" height="155" fill="black">
<rect fill="white" x="581.995" y="258.301" width="261" height="155"/>
<path fill-rule="evenodd" clip-rule="evenodd" d="M739.02 294.086C753.301 297.583 766.45 308.722 781.153 308.722V308.722C796.266 308.722 808.517 320.973 808.517 336.086V350.716C808.517 365.829 796.266 378.081 781.153 378.081H644.36C629.247 378.081 616.995 365.829 616.995 350.716V336.086C616.995 320.973 629.247 308.722 644.36 308.722V308.722C659.065 308.722 672.216 297.58 686.499 294.085C688.591 293.573 690.777 293.301 693.027 293.301H732.489C734.74 293.301 736.927 293.573 739.02 294.086Z"/>
</mask>
<path fill-rule="evenodd" clip-rule="evenodd" d="M739.02 294.086C753.301 297.583 766.45 308.722 781.153 308.722V308.722C796.266 308.722 808.517 320.973 808.517 336.086V350.716C808.517 365.829 796.266 378.081 781.153 378.081H644.36C629.247 378.081 616.995 365.829 616.995 350.716V336.086C616.995 320.973 629.247 308.722 644.36 308.722V308.722C659.065 308.722 672.216 297.58 686.499 294.085C688.591 293.573 690.777 293.301 693.027 293.301H732.489C734.74 293.301 736.927 293.573 739.02 294.086Z" fill="#616161"/>
<path d="M739.02 294.086L730.839 327.496L739.02 294.086ZM781.153 343.12C777.268 343.12 774.119 339.971 774.119 336.086H842.915C842.915 301.976 815.263 274.324 781.153 274.324V343.12ZM774.119 336.086V350.716H842.915V336.086H774.119ZM774.119 350.716C774.119 346.832 777.268 343.683 781.153 343.683V412.479C815.263 412.479 842.915 384.827 842.915 350.716H774.119ZM781.153 343.683H644.36V412.479H781.153V343.683ZM644.36 343.683C648.244 343.683 651.393 346.832 651.393 350.716H582.597C582.597 384.827 610.249 412.479 644.36 412.479V343.683ZM651.393 350.716V336.086H582.597V350.716H651.393ZM651.393 336.086C651.393 339.971 648.244 343.12 644.36 343.12V274.324C610.249 274.324 582.597 301.976 582.597 336.086H651.393ZM694.676 327.497C694.112 327.635 693.554 327.699 693.027 327.699V258.903C688.001 258.903 683.07 259.511 678.322 260.673L694.676 327.497ZM693.027 327.699H732.489V258.903H693.027V327.699ZM732.489 327.699C731.962 327.699 731.403 327.634 730.839 327.496L747.202 260.675C742.452 259.512 737.518 258.903 732.489 258.903V327.699ZM644.36 343.12C659.935 343.12 672.921 337.248 680.123 333.89C689.573 329.484 691.832 328.193 694.676 327.497L678.322 260.673C671.958 262.23 666.377 264.47 662.037 266.391C658.318 268.036 653.205 270.534 651.052 271.538C644.431 274.625 643.49 274.324 644.36 274.324V343.12ZM781.153 274.324C782.023 274.324 781.083 274.625 774.464 271.539C772.314 270.537 767.199 268.038 763.482 266.393C759.144 264.473 753.564 262.233 747.202 260.675L730.839 327.496C733.684 328.193 735.943 329.485 745.392 333.891C752.594 337.249 765.579 343.12 781.153 343.12V274.324Z" fill="#402D2D" mask="url(#path-3-outside-2_621_70803)"/>
<rect x="233.277" y="648.178" width="112.145" height="123.252" rx="44.5634" fill="#616161" stroke="#402D2D" stroke-width="34.398"/>
<rect x="660.886" y="648.178" width="112.145" height="123.252" rx="44.5634" fill="#616161" stroke="#402D2D" stroke-width="34.398"/>
<rect x="399.877" y="692.603" width="212.106" height="95.485" rx="44.5634" fill="#616161" stroke="#402D2D" stroke-width="34.398"/>
<rect x="27.801" y="407.539" width="945.151" height="171.87" rx="85.935" fill="#5A4848" stroke="#402D2D" stroke-width="34.398"/>
<rect x="94.6379" y="280.149" width="813.045" height="437.85" rx="87.5647" fill="#5A4848" stroke="#402D2D" stroke-width="34.398"/>
<rect x="161.622" y="359.941" width="677.511" height="305.435" rx="47.8299" fill="#372D2D"/>
<rect x="94.4387" y="203.907" width="811.87" height="284.3" rx="87.5647" fill="#5A4848" stroke="#402D2D" stroke-width="34.398"/>
<rect x="161.622" y="243.32" width="677.511" height="105.514" rx="52.757" fill="#685050"/>
<rect x="438.75" y="453.809" width="145.465" height="95.485" rx="44.5634" fill="#616161" stroke="#402D2D" stroke-width="34.398"/>
<rect x="255.491" y="192.801" width="106.592" height="312.066" rx="44.5634" fill="#616161" stroke="#402D2D" stroke-width="34.398"/>
<rect x="655.329" y="192.801" width="106.592" height="312.066" rx="44.5634" fill="#616161" stroke="#402D2D" stroke-width="34.398"/>
</svg>
