<svg width="501" height="500" viewBox="0 0 501 500" fill="none" xmlns="http://www.w3.org/2000/svg">
<mask id="path-1-outside-1_621_70803" maskUnits="userSpaceOnUse" x="88.2988" y="131.432" width="131" height="78" fill="black">
<rect fill="white" x="88.2988" y="131.432" width="131" height="78"/>
<path fill-rule="evenodd" clip-rule="evenodd" d="M167.312 149.824C174.452 151.573 181.026 157.143 188.378 157.143V157.143C195.934 157.143 202.06 163.269 202.06 170.825V178.14C202.06 185.697 195.934 191.822 188.378 191.822H119.981C112.425 191.822 106.299 185.697 106.299 178.14V170.825C106.299 163.269 112.425 157.143 119.981 157.143V157.143C127.333 157.143 133.908 151.572 141.05 149.824C142.096 149.568 143.189 149.432 144.315 149.432H164.046C165.171 149.432 166.265 149.568 167.312 149.824Z"/>
</mask>
<path fill-rule="evenodd" clip-rule="evenodd" d="M167.312 149.824C174.452 151.573 181.026 157.143 188.378 157.143V157.143C195.934 157.143 202.06 163.269 202.06 170.825V178.14C202.06 185.697 195.934 191.822 188.378 191.822H119.981C112.425 191.822 106.299 185.697 106.299 178.14V170.825C106.299 163.269 112.425 157.143 119.981 157.143V157.143C127.333 157.143 133.908 151.572 141.05 149.824C142.096 149.568 143.189 149.432 144.315 149.432H164.046C165.171 149.432 166.265 149.568 167.312 149.824Z" fill="#616161"/>
<path d="M188.378 174.342C186.435 174.342 184.861 172.767 184.861 170.825H219.259C219.259 153.77 205.433 139.944 188.378 139.944V174.342ZM184.861 170.825V178.14H219.259V170.825H184.861ZM184.861 178.14C184.861 176.198 186.435 174.623 188.378 174.623V209.021C205.433 209.021 219.259 195.195 219.259 178.14H184.861ZM188.378 174.623H119.981L119.981 209.021H188.378V174.623ZM119.981 174.623C121.923 174.623 123.498 176.198 123.498 178.14H89.0998C89.0998 195.195 102.926 209.021 119.981 209.021L119.981 174.623ZM123.498 178.14V170.825H89.0998V178.14H123.498ZM123.498 170.825C123.498 172.767 121.923 174.342 119.981 174.342V139.944C102.926 139.944 89.0998 153.77 89.0998 170.825H123.498ZM145.139 166.53C144.858 166.599 144.578 166.631 144.315 166.631V132.233C141.801 132.233 139.335 132.537 136.961 133.118L145.139 166.53ZM144.315 166.631H164.046V132.233H144.315V166.631ZM164.046 166.631C163.782 166.631 163.502 166.599 163.22 166.53L171.403 133.119C169.028 132.537 166.561 132.233 164.046 132.233V166.631ZM119.981 174.342C127.769 174.342 134.262 171.406 137.863 169.727C142.587 167.524 143.717 166.878 145.139 166.53L136.961 133.118C133.779 133.897 130.988 135.017 128.819 135.977C126.96 136.8 124.403 138.049 123.327 138.551C120.017 140.095 119.546 139.944 119.981 139.944V174.342ZM188.378 139.944C188.813 139.944 188.343 140.095 185.034 138.552C183.959 138.05 181.401 136.801 179.543 135.978C177.374 135.018 174.584 133.898 171.403 133.119L163.22 166.53C164.643 166.878 165.773 167.524 170.497 169.727C174.098 171.406 180.591 174.342 188.378 174.342V139.944Z" fill="#402D2D" mask="url(#path-1-outside-1_621_70803)"/>
<mask id="path-3-outside-2_621_70803" maskUnits="userSpaceOnUse" x="290.997" y="128.658" width="131" height="78" fill="black">
<rect fill="white" x="290.997" y="128.658" width="131" height="78"/>
<path fill-rule="evenodd" clip-rule="evenodd" d="M370.009 147.05C377.15 148.798 383.724 154.368 391.076 154.368V154.368C398.632 154.368 404.758 160.494 404.758 168.05V175.365C404.758 182.922 398.632 189.047 391.076 189.047H322.679C315.123 189.047 308.997 182.922 308.997 175.365V168.05C308.997 160.494 315.123 154.368 322.679 154.368V154.368C330.032 154.368 336.607 148.797 343.749 147.049C344.795 146.793 345.888 146.658 347.013 146.658H366.744C367.869 146.658 368.963 146.794 370.009 147.05Z"/>
</mask>
<path fill-rule="evenodd" clip-rule="evenodd" d="M370.009 147.05C377.15 148.798 383.724 154.368 391.076 154.368V154.368C398.632 154.368 404.758 160.494 404.758 168.05V175.365C404.758 182.922 398.632 189.047 391.076 189.047H322.679C315.123 189.047 308.997 182.922 308.997 175.365V168.05C308.997 160.494 315.123 154.368 322.679 154.368V154.368C330.032 154.368 336.607 148.797 343.749 147.049C344.795 146.793 345.888 146.658 347.013 146.658H366.744C367.869 146.658 368.963 146.794 370.009 147.05Z" fill="#616161"/>
<path d="M391.076 171.567C389.134 171.567 387.559 169.992 387.559 168.05H421.957C421.957 150.995 408.131 137.169 391.076 137.169V171.567ZM387.559 168.05V175.365H421.957V168.05H387.559ZM387.559 175.365C387.559 173.423 389.134 171.848 391.076 171.848V206.246C408.131 206.246 421.957 192.42 421.957 175.365H387.559ZM391.076 171.848H322.679V206.246H391.076V171.848ZM322.679 171.848C324.622 171.848 326.196 173.423 326.196 175.365H291.798C291.798 192.42 305.624 206.246 322.679 206.246V171.848ZM326.196 175.365V168.05H291.798V175.365H326.196ZM326.196 168.05C326.196 169.992 324.622 171.567 322.679 171.567V137.169C305.624 137.169 291.798 150.995 291.798 168.05H326.196ZM347.838 163.755C347.556 163.824 347.276 163.857 347.013 163.857V129.459C344.5 129.459 342.034 129.763 339.66 130.343L347.838 163.755ZM347.013 163.857H366.744V129.459H347.013V163.857ZM366.744 163.857C366.48 163.857 366.201 163.824 365.919 163.755L374.1 130.344C371.725 129.763 369.258 129.459 366.744 129.459V163.857ZM322.679 171.567C330.467 171.567 336.96 168.631 340.561 166.952C345.286 164.749 346.415 164.103 347.838 163.755L339.66 130.343C336.479 131.122 333.688 132.242 331.518 133.202C329.659 134.025 327.102 135.274 326.025 135.776C322.715 137.32 322.244 137.169 322.679 137.169V171.567ZM391.076 137.169C391.511 137.169 391.041 137.32 387.731 135.777C386.656 135.275 384.099 134.026 382.24 133.203C380.071 132.243 377.281 131.123 374.1 130.344L365.919 163.755C367.342 164.104 368.471 164.749 373.195 166.952C376.796 168.631 383.289 171.567 391.076 171.567V137.169Z" fill="#402D2D" mask="url(#path-3-outside-2_621_70803)"/>
<rect x="117.139" y="324.096" width="56.0726" height="61.6259" rx="22.2817" fill="#616161" stroke="#402D2D" stroke-width="17.199"/>
<rect x="330.943" y="324.096" width="56.0726" height="61.6259" rx="22.2817" fill="#616161" stroke="#402D2D" stroke-width="17.199"/>
<rect x="200.439" y="346.309" width="106.053" height="47.7425" rx="22.2817" fill="#616161" stroke="#402D2D" stroke-width="17.199"/>
<rect x="14.4005" y="203.776" width="472.575" height="85.935" rx="42.9675" fill="#5A4848" stroke="#402D2D" stroke-width="17.199"/>
<rect x="47.8185" y="140.081" width="406.523" height="218.925" rx="43.7824" fill="#5A4848" stroke="#402D2D" stroke-width="17.199"/>
<rect x="81.3105" y="179.978" width="338.756" height="152.718" rx="23.915" fill="#372D2D"/>
<rect x="47.7189" y="101.961" width="405.935" height="142.15" rx="43.7824" fill="#5A4848" stroke="#402D2D" stroke-width="17.199"/>
<rect x="81.3105" y="121.667" width="338.756" height="52.757" rx="26.3785" fill="#685050"/>
<rect x="219.875" y="226.911" width="72.7327" height="47.7425" rx="22.2817" fill="#616161" stroke="#402D2D" stroke-width="17.199"/>
<rect x="128.246" y="96.4073" width="53.2959" height="156.033" rx="22.2817" fill="#616161" stroke="#402D2D" stroke-width="17.199"/>
<rect x="328.164" y="96.4073" width="53.2959" height="156.033" rx="22.2817" fill="#616161" stroke="#402D2D" stroke-width="17.199"/>
</svg>
