<svg width="400" height="400" viewBox="0 0 400 400" fill="none" xmlns="http://www.w3.org/2000/svg">
<path d="M118.224 94.2452C121.268 91.636 159.355 85.1855 178.018 82.2864L245.966 87.7222L300.324 115.988L342.723 174.151L355.225 242.642L342.723 306.785C315.906 332.152 261.838 383.538 260.099 386.147C257.924 389.409 191.064 389.952 126.378 374.189C115.816 371.615 62.7793 322.005 37.7747 295.913V180.131C68.2151 127.404 115.18 96.8543 118.224 94.2452Z" fill="black"/>
<circle cx="216.069" cy="241.012" r="113.608" fill="black"/>
<path d="M232.869 50.6927L236.32 68.4163L239 95L192.881 107.876L147.884 108.895L122.479 101.845L121.934 62.2232C133.083 57.2996 156.048 47.147 158.718 45.925C161.388 44.703 193.415 44.8902 209.096 45.1366L232.869 50.6927Z" fill="black"/>
<path d="M124.5 103.5C127.3 101.1 162.333 95.1667 179.5 92.5L242 97.5L292 123.5L331 177L342.5 240L331 299C306.333 322.333 256.6 369.6 255 372C253 375 191.5 375.5 132 361C122.284 358.632 73.5 313 50.5 289V182.5C78.5 134 121.7 105.9 124.5 103.5Z" fill="#26926B"/>
<circle cx="214.5" cy="238.5" r="104.5" fill="#E8E8E8"/>
<path d="M225.5 61L228.779 78.3908L227.732 105.338L192.438 116.147L154.042 116.296L132.22 108.926L131.009 70.1826C140.434 65.5795 159.849 56.0872 162.105 54.9429C164.361 53.7986 191.708 54.5847 205.099 55.1209L225.5 61Z" fill="#26926B"/>
<path d="M223.887 182.685L217.755 229.87L262.094 287.037L272 277.056V307L244.17 301.556L253.132 292.028L200.774 234.407L204.547 224.426L209.736 179.509L197 173.611L223.887 160L234.736 187.676L223.887 182.685Z" fill="#5F5F5F"/>
<path d="M200.87 336.185L214.515 309.264L221.5 311.064C217.883 320.278 209.951 338.526 207.157 337.806L200.87 336.185Z" fill="#9C9C9C"/>
<path d="M146 297.5C151.686 292.779 163.866 283.1 167.09 282.149L174.497 299.65C171.145 303.983 163.879 313.097 161.628 314.893C159.377 316.688 150.272 304.046 146 297.5Z" fill="#9C9C9C"/>
<path d="M120.684 257.631C115.416 260.727 118.045 233.193 120 228.5L140.954 233.902C144.447 234.803 140.857 248.726 139.96 252.207C139.062 255.687 125.951 254.534 120.684 257.631Z" fill="#9C9C9C"/>
<path d="M158.609 195.867C150.74 195.57 134.267 194.936 131.329 194.773L127.837 193.873L136.5 206.5L154.66 211.182L158.609 195.867Z" fill="#9C9C9C"/>
<path d="M212.5 72H173.5L169.5 102.5C157.333 107.667 130.8 118.1 122 118.5C113.2 118.9 99.3333 137.333 93.5 146.5C86.3333 160 71.7 187.5 70.5 189.5C69.3 191.5 67.6667 231 67 250.5L78 277.5L96 244.5L104 195.5L124.5 147.5L209.5 118L248.5 113L215.5 102.5L212.5 72Z" fill="#46AC87"/>
</svg>
