<svg width="400" height="400" viewBox="0 0 400 400" fill="none" xmlns="http://www.w3.org/2000/svg">
<path d="M53.4441 117.312C53.3544 117.197 53.2907 117.065 53.2574 116.923L33.3296 32.2406C33.181 31.6092 33.6635 31.0057 34.3121 31.0116L148.034 32.0434C148.138 32.0444 148.241 32.0616 148.34 32.0944L228.263 58.6601C228.43 58.7155 228.579 58.8139 228.696 58.9452L247.101 79.6819C247.17 79.7594 247.224 79.8405 247.265 79.9352C254.237 95.7115 273.782 138.319 273.253 143.604C272.723 148.886 286.084 186.394 292.898 204.671C292.944 204.796 293.013 204.905 293.104 205.002L335.267 249.823C335.327 249.887 335.379 249.958 335.42 250.035L368.958 312.508C369.047 312.675 369.088 312.863 369.074 313.052L365.604 362.235C365.56 362.862 364.955 363.294 364.348 363.131L318.42 350.825C318.36 350.809 318.3 350.798 318.238 350.793L258.171 346.122L187.854 342.702C187.733 342.696 187.62 342.67 187.509 342.622C172.015 335.883 139.917 321.916 134.169 319.39C128.402 316.855 117.175 290.511 112.283 277.656L81.3269 152.979C81.2929 152.842 81.2302 152.713 81.143 152.602L53.4441 117.312Z" fill="#CDBCB3"/>
<path d="M155.839 154.186C154.021 153.699 156.048 141.712 157.499 134.728C157.632 134.092 158.326 133.755 158.909 134.042C170.075 139.547 190.784 150.044 192.623 152.137C195.003 154.845 235.576 215.927 242.871 229.27C250.167 242.613 264.221 286.755 264.057 289.299C263.893 291.843 229.618 296.118 221.408 293.918L189.623 285.401C189.269 285.306 188.996 285.026 188.91 284.671L181.678 254.802L162.781 202.382C162.711 202.19 162.703 201.982 162.755 201.785L171.458 169.307C171.548 168.969 171.457 168.61 171.214 168.358C166.629 163.594 157.716 154.689 155.839 154.186Z" fill="#C5B2A8"/>
<path d="M83.9709 97.438C83.8892 97.3335 83.8292 97.2137 83.7942 97.0857L73.4222 59.1058C73.2882 58.6152 73.5439 58.1021 74.0163 57.9136L96.5922 48.9072C96.751 48.8438 96.9165 48.8213 97.086 48.8436C121.333 52.0319 170.175 58.6923 173.566 60.0939C177.819 61.852 212.262 78.5023 215.323 80.5595C218.384 82.6166 231.604 100.692 233.042 108.808C234.192 115.301 242.008 135.845 245.772 145.305L260.986 196.384C262.888 202.768 276.917 225.081 278.659 228.949C280.402 232.817 290.137 243.156 294.544 244.337C298.952 245.518 320.66 272.362 322.43 277.165C323.79 280.857 332.694 308.147 337.487 322.899C337.732 323.653 337.04 324.371 336.274 324.166L314.459 318.32C307.977 316.584 281.772 314.819 277.915 317.805C274.058 320.792 268.203 305.308 269.285 301.269C270.141 298.078 254.431 282.525 246.174 274.869C245.975 274.684 245.864 274.432 245.859 274.159L245.031 231.506C245.026 231.227 244.904 230.963 244.695 230.777L227.24 215.281C227.124 215.178 226.986 215.103 226.835 215.063L211.073 210.839C210.704 210.741 210.424 210.44 210.35 210.065L204.776 181.577C204.741 181.401 204.66 181.237 204.54 181.103L177.333 150.623C177.214 150.49 177.068 150.393 176.898 150.338C168.942 147.795 152.192 142.753 146.817 142.291C141.475 141.833 122.312 139.146 112.94 137.794C112.638 137.751 112.38 137.573 112.227 137.309L103.713 122.702L83.9709 97.438Z" fill="#D7C4BB"/>
<path d="M128.187 97.2468C128.105 97.1422 128.045 97.0225 128.01 96.8945L121.174 71.8648C121.04 71.3741 121.296 70.861 121.769 70.6726L136.499 64.7959C136.658 64.7325 136.824 64.7101 136.993 64.7324C153.225 66.8673 185.754 71.3043 188.016 72.2393C190.858 73.4141 213.875 84.5406 215.921 85.9153C217.966 87.2899 226.8 99.3688 227.761 104.792C228.53 109.131 233.752 122.859 236.267 129.181L246.434 163.314C247.705 167.58 257.08 182.491 258.245 185.076C259.409 187.661 265.914 194.569 268.859 195.359C271.805 196.148 286.311 214.086 287.494 217.296C288.385 219.715 294.124 237.298 297.366 247.274C297.611 248.028 296.921 248.751 296.155 248.545L282.167 244.797C277.836 243.637 260.325 242.457 257.747 244.453C255.17 246.449 251.257 236.102 251.98 233.403C252.548 231.283 242.184 221.006 236.64 215.858C236.441 215.672 236.329 215.418 236.323 215.146L235.776 186.929C235.77 186.65 235.648 186.386 235.44 186.201L223.943 175.994C223.827 175.891 223.688 175.816 223.538 175.776L213.28 173.027C212.911 172.929 212.631 172.628 212.558 172.254L208.89 153.509C208.855 153.333 208.774 153.169 208.654 153.035L190.594 132.802C190.476 132.669 190.328 132.571 190.158 132.517C184.807 130.809 173.714 127.474 170.142 127.167C166.602 126.863 153.983 125.096 147.664 124.185C147.362 124.142 147.1 123.963 146.947 123.7L141.338 114.077L128.187 97.2468Z" fill="#D5BEB2"/>
<path d="M30.0531 44.6494C30.0182 44.4923 30.0217 44.3291 30.0634 44.1737L33.1777 32.5509C33.3598 31.8715 34.1654 31.5858 34.7318 32.0027C41.4581 36.9542 53.1856 45.7467 54.2624 47.2007C55.3965 48.7321 58.5589 79.9431 60.032 95.7085C60.0541 95.9449 60.1516 96.1499 60.3203 96.3169C78.2158 114.029 102.572 164.764 103.713 168.763C104.859 172.781 118.712 206.299 119.725 230.175L132.718 301.29C132.767 301.555 132.909 301.782 133.133 301.933C151.122 314.058 191.555 342.798 194.954 342.48C203.499 341.679 261.067 342.28 315.209 347.509C315.282 347.516 315.354 347.532 315.424 347.555L364.53 363.7C365.254 363.938 365.456 364.866 364.897 365.383L361.371 368.652C361.119 368.886 360.764 368.974 360.432 368.885L309.629 355.272C306.518 354.438 279.48 355.439 266.349 356.044L176.72 350.225C176.567 350.215 176.418 350.17 176.285 350.093L127.594 322.022C127.455 321.942 127.338 321.83 127.251 321.695L115.515 303.367C115.46 303.281 115.419 303.187 115.392 303.089L76.3628 159.062C76.3269 158.93 76.2643 158.806 76.1788 158.699L47.526 122.843C47.4308 122.724 47.3641 122.585 47.331 122.436L30.0531 44.6494Z" fill="#B09C91"/>
<path d="M369.996 370.884C371.846 369.169 372.714 366.926 372.721 364.707C372.913 364.091 373.038 363.44 373.085 362.763L376.556 313.579C376.669 311.977 376.326 310.376 375.566 308.961L342.028 246.488C341.676 245.832 341.24 245.226 340.73 244.684L299.467 200.819C296.095 191.74 291.343 178.56 287.433 166.883C285.385 160.764 283.595 155.14 282.358 150.764C281.737 148.567 281.284 146.784 281.006 145.458C280.794 144.445 280.756 144.016 280.745 143.981C280.823 142.678 280.626 141.491 280.491 140.784C280.314 139.856 280.058 138.869 279.773 137.894C279.2 135.934 278.379 133.577 277.419 131.014C275.49 125.864 272.824 119.423 269.966 112.75C265.904 103.271 261.345 93.0758 257.815 85.1813C256.382 81.9756 255.118 79.1491 254.126 76.9039C253.748 76.0495 253.257 75.3191 252.711 74.7032L234.305 53.9666C233.314 52.8499 232.046 52.014 230.629 51.543L150.706 24.9773C149.866 24.6981 148.987 24.5518 148.102 24.5437L34.3802 23.5119C29.9783 23.4719 26.4764 26.7348 25.8867 30.7835L22.8189 42.2326C22.465 43.5536 22.435 44.9405 22.7315 46.2756L40.0095 124.062C40.2906 125.328 40.8576 126.512 41.667 127.525L69.477 162.327L108.153 305.051C108.38 305.886 108.732 306.682 109.199 307.411L120.935 325.739C121.669 326.886 122.668 327.84 123.848 328.52L172.539 356.591C173.669 357.242 174.933 357.624 176.234 357.709L265.863 363.528L266.279 363.555L266.694 363.536C273.227 363.235 283.214 362.836 291.935 362.616C296.303 362.506 300.3 362.442 303.368 362.456C304.908 362.463 306.148 362.489 307.054 362.532C307.592 362.558 307.878 362.586 307.981 362.595L358.491 376.129C361.313 376.885 364.326 376.139 366.469 374.153L369.996 370.884Z" stroke="#6D6561" stroke-width="15"/>
</svg>
