<svg width="501" height="501" viewBox="0 0 501 501" fill="none" xmlns="http://www.w3.org/2000/svg">
<path d="M66.9578 146.866C66.8456 146.723 66.7659 146.557 66.7242 146.38L41.8023 40.4748C41.6165 39.6853 42.2199 38.9304 43.031 38.9378L185.253 40.2283C185.383 40.2295 185.513 40.251 185.636 40.2921L285.589 73.5155C285.798 73.5848 285.984 73.7078 286.13 73.8721L309.149 99.8057C309.235 99.9026 309.302 100.004 309.354 100.123C318.072 119.853 342.516 173.138 341.854 179.748C341.192 186.354 357.901 233.261 366.422 256.12C366.48 256.275 366.567 256.412 366.681 256.533L419.411 312.587C419.486 312.666 419.55 312.756 419.602 312.852L461.545 390.982C461.656 391.19 461.707 391.426 461.69 391.662L457.35 453.172C457.295 453.956 456.538 454.495 455.779 454.292L398.341 438.901C398.267 438.881 398.191 438.868 398.114 438.862L322.992 433.02L235.053 428.743C234.902 428.735 234.76 428.703 234.621 428.643C215.244 420.215 175.102 402.747 167.914 399.588C160.701 396.418 146.661 363.472 140.543 347.395L101.828 191.472C101.786 191.301 101.708 191.14 101.598 191.001L66.9578 146.866Z" fill="#CDBCB3"/>
<path d="M195.015 192.982C192.741 192.373 195.277 177.382 197.091 168.647C197.256 167.852 198.125 167.43 198.854 167.79C212.818 174.673 238.717 187.802 241.017 190.419C243.994 193.806 294.735 270.197 303.859 286.883C312.982 303.57 330.559 358.774 330.354 361.956C330.148 365.138 287.284 370.484 277.016 367.733L237.265 357.082C236.823 356.963 236.481 356.613 236.374 356.168L227.329 318.814L203.696 253.257C203.609 253.017 203.598 252.756 203.664 252.509L214.548 211.892C214.661 211.47 214.547 211.021 214.243 210.705C208.509 204.748 197.362 193.611 195.015 192.982Z" fill="#C5B2A8"/>
<path d="M105.135 122.012C105.033 121.881 104.958 121.731 104.914 121.571L91.9427 74.073C91.7751 73.4593 92.0949 72.8176 92.6858 72.5819L120.919 61.3183C121.118 61.2391 121.325 61.2109 121.537 61.2388C151.861 65.2262 212.943 73.5558 217.184 75.3087C222.503 77.5073 265.578 98.3305 269.406 100.903C273.235 103.476 289.767 126.081 291.566 136.231C293.004 144.351 302.778 170.044 307.486 181.876L326.513 245.755C328.891 253.74 346.437 281.644 348.616 286.482C350.795 291.32 362.969 304.25 368.482 305.727C373.994 307.204 401.142 340.775 403.355 346.782C405.056 351.399 416.193 385.528 422.186 403.977C422.492 404.92 421.628 405.818 420.67 405.561L393.387 398.251C385.281 396.079 352.509 393.872 347.685 397.607C342.862 401.342 335.539 381.977 336.893 376.926C337.962 372.935 318.315 353.485 307.989 343.911C307.74 343.679 307.602 343.363 307.595 343.023L306.56 289.679C306.553 289.33 306.401 289 306.14 288.768L284.31 269.388C284.165 269.259 283.992 269.166 283.804 269.115L264.091 263.833C263.63 263.71 263.279 263.334 263.187 262.866L256.216 227.238C256.173 227.017 256.071 226.813 255.921 226.645L221.896 188.526C221.747 188.359 221.564 188.238 221.351 188.17C211.402 184.99 190.453 178.683 183.731 178.106C177.05 177.533 153.085 174.173 141.365 172.482C140.987 172.428 140.664 172.205 140.472 171.876L129.825 153.607L105.135 122.012Z" fill="#D7C4BB"/>
<path d="M160.432 121.773C160.33 121.642 160.255 121.492 160.211 121.332L151.662 90.0296C151.495 89.4159 151.815 88.7742 152.405 88.5385L170.828 81.1891C171.026 81.1098 171.234 81.0818 171.446 81.1096C191.745 83.7796 232.427 89.3286 235.256 90.4979C238.81 91.9671 267.595 105.882 270.154 107.601C272.712 109.32 283.76 124.426 284.961 131.209C285.923 136.635 292.454 153.804 295.6 161.71L308.314 204.397C309.904 209.733 321.628 228.38 323.085 231.613C324.541 234.846 332.676 243.486 336.36 244.473C340.043 245.46 358.185 267.894 359.664 271.908C360.779 274.933 367.956 296.923 372.011 309.399C372.317 310.342 371.455 311.246 370.496 310.989L353.003 306.302C347.586 304.85 325.686 303.375 322.463 305.871C319.239 308.367 314.346 295.427 315.251 292.051C315.961 289.401 302.999 276.549 296.066 270.109C295.816 269.878 295.676 269.559 295.669 269.219L294.985 233.931C294.978 233.582 294.825 233.252 294.564 233.02L280.186 220.255C280.041 220.126 279.868 220.033 279.68 219.982L266.852 216.545C266.39 216.422 266.04 216.046 265.948 215.577L261.361 192.135C261.318 191.915 261.216 191.71 261.066 191.542L238.48 166.239C238.332 166.072 238.147 165.95 237.934 165.882C231.243 163.747 217.37 159.575 212.902 159.192C208.475 158.812 192.693 156.601 184.791 155.462C184.414 155.408 184.086 155.185 183.893 154.855L176.879 142.82L160.432 121.773Z" fill="#D5BEB2"/>
<path d="M37.7046 55.9934C37.661 55.797 37.6654 55.593 37.7175 55.3986L41.6123 40.8629C41.8399 40.0133 42.8475 39.6559 43.5558 40.1774C51.9679 46.3698 66.6345 57.3658 67.9812 59.1842C69.3994 61.0994 73.3544 100.132 75.1967 119.849C75.2243 120.144 75.3463 120.401 75.5573 120.61C97.9377 142.761 128.397 206.211 129.825 211.212C131.258 216.237 148.583 258.155 149.85 288.014L166.1 376.953C166.16 377.284 166.338 377.568 166.618 377.757C189.115 392.921 239.681 428.863 243.932 428.465C254.619 427.464 326.614 428.215 394.325 434.755C394.417 434.764 394.507 434.783 394.595 434.812L456.007 455.004C456.912 455.301 457.165 456.461 456.466 457.109L452.056 461.197C451.741 461.489 451.297 461.599 450.882 461.487L387.347 444.463C383.456 443.421 349.642 444.673 333.221 445.429L221.128 438.151C220.937 438.138 220.751 438.082 220.585 437.986L159.691 402.88C159.517 402.78 159.37 402.64 159.262 402.471L144.585 379.549C144.516 379.442 144.464 379.325 144.431 379.202L95.6202 199.08C95.5754 198.914 95.4971 198.76 95.3902 198.626L59.5565 153.784C59.4375 153.635 59.354 153.461 59.3127 153.274L37.7046 55.9934Z" fill="#B09C91"/>
<path d="M462.842 463.988C465.156 461.843 466.242 459.038 466.251 456.263C466.491 455.492 466.647 454.679 466.706 453.832L471.047 392.322C471.188 390.318 470.759 388.315 469.809 386.546L427.866 308.416C427.426 307.596 426.88 306.838 426.243 306.16L374.638 251.302C370.422 239.948 364.478 223.464 359.589 208.861C357.027 201.209 354.788 194.174 353.241 188.702C352.465 185.955 351.898 183.724 351.551 182.066C351.285 180.799 351.238 180.262 351.224 180.219C351.321 178.589 351.076 177.105 350.907 176.221C350.685 175.06 350.365 173.827 350.008 172.606C349.292 170.155 348.266 167.208 347.065 164.002C344.653 157.562 341.318 149.506 337.743 141.162C332.664 129.306 326.963 116.557 322.548 106.685C320.755 102.675 319.174 99.1397 317.933 96.3315C317.461 95.263 316.847 94.3495 316.164 93.5793L293.145 67.6457C291.906 66.2491 290.32 65.2037 288.548 64.6147L188.595 31.3913C187.544 31.042 186.445 30.8591 185.338 30.849L43.1161 29.5586C37.611 29.5086 33.2315 33.5892 32.494 38.6526L28.6574 52.971C28.2148 54.6231 28.1773 56.3576 28.5481 58.0273L50.1562 155.308C50.5078 156.891 51.2169 158.373 52.2291 159.639L87.0087 203.162L135.378 381.655C135.661 382.7 136.102 383.696 136.686 384.607L151.363 407.529C152.282 408.963 153.531 410.156 155.006 411.006L215.9 446.112C217.312 446.927 218.893 447.405 220.52 447.511L332.613 454.789L333.132 454.822L333.652 454.799C341.822 454.422 354.312 453.923 365.219 453.648C370.681 453.51 375.679 453.431 379.516 453.448C381.443 453.456 382.993 453.489 384.126 453.543C384.8 453.576 385.157 453.61 385.286 453.622L448.454 470.547C451.984 471.493 455.752 470.56 458.432 468.076L462.842 463.988Z" stroke="#726B68" stroke-width="18.7592"/>
</svg>
