<svg width="1001" height="1001" viewBox="0 0 1001 1001" fill="none" xmlns="http://www.w3.org/2000/svg">
<path d="M133.915 294.021C133.691 293.735 133.532 293.404 133.448 293.05L83.6043 81.2387C83.2327 79.6595 84.4395 78.1499 86.0617 78.1646L370.506 80.7456C370.767 80.7479 371.025 80.791 371.272 80.8731L571.179 147.32C571.596 147.459 571.969 147.705 572.26 148.033L618.298 199.9C618.469 200.094 618.603 200.297 618.708 200.534C636.144 239.994 685.032 346.566 683.708 359.784C682.384 372.996 715.801 466.812 732.844 512.528C732.961 512.84 733.133 513.112 733.361 513.355L838.821 625.462C838.971 625.622 839.099 625.8 839.203 625.993L923.089 782.253C923.312 782.67 923.413 783.141 923.38 783.612L914.7 906.632C914.589 908.201 913.076 909.279 911.557 908.872L796.681 878.091C796.533 878.052 796.381 878.026 796.228 878.014L645.984 866.329L470.106 857.774C469.804 857.76 469.519 857.696 469.242 857.575C430.488 840.719 350.204 805.784 335.828 799.465C321.401 793.125 293.322 727.232 281.085 695.079L203.657 383.233C203.572 382.89 203.415 382.569 203.197 382.292L133.915 294.021Z" fill="#CDBCB3"/>
<path d="M390.029 386.253C385.482 385.035 390.553 355.053 394.182 337.584C394.513 335.992 396.25 335.149 397.708 335.868C425.637 349.636 477.434 375.892 482.034 381.127C487.987 387.901 589.47 540.682 607.717 574.056C625.964 607.429 661.117 717.838 660.707 724.201C660.296 730.565 574.568 741.257 554.032 735.755L474.53 714.452C473.646 714.215 472.962 713.514 472.747 712.625L454.659 637.917L407.391 506.803C407.218 506.323 407.196 505.801 407.328 505.308L429.095 424.074C429.321 423.229 429.093 422.33 428.486 421.7C417.017 409.785 394.724 387.511 390.029 386.253Z" fill="#C5B2A8"/>
<path d="M210.27 244.313C210.066 244.051 209.915 243.752 209.828 243.432L183.885 148.435C183.55 147.208 184.19 145.924 185.371 145.453L241.839 122.926C242.236 122.767 242.65 122.711 243.074 122.767C303.722 130.741 425.886 147.401 434.367 150.906C445.005 155.304 531.155 196.95 538.812 202.095C546.47 207.241 579.535 252.452 583.131 272.752C586.009 288.991 605.557 340.377 614.971 364.04L653.025 491.799C657.782 507.768 692.873 563.577 697.231 573.253C701.589 582.928 725.938 608.788 736.963 611.742C747.988 614.696 802.284 681.838 806.711 693.852C810.113 703.086 832.385 771.346 844.372 808.243C844.985 810.129 843.256 811.925 841.34 811.412L786.774 796.791C770.561 792.447 705.018 788.033 695.37 795.503C685.723 802.972 671.078 764.244 673.785 754.141C675.924 746.159 636.629 707.259 615.978 688.11C615.479 687.647 615.203 687.015 615.19 686.334L613.119 579.648C613.106 578.95 612.801 578.289 612.279 577.826L568.621 539.065C568.33 538.807 567.983 538.621 567.607 538.52L528.182 527.956C527.259 527.709 526.558 526.958 526.374 526.02L512.431 454.765C512.345 454.324 512.141 453.914 511.842 453.579L443.791 377.34C443.494 377.008 443.128 376.765 442.703 376.629C422.803 370.268 380.906 357.655 367.462 356.501C354.101 355.355 306.17 348.634 282.729 345.253C281.974 345.144 281.329 344.699 280.944 344.04L259.649 307.504L210.27 244.313Z" fill="#D7C4BB"/>
<path d="M320.863 243.834C320.659 243.573 320.509 243.273 320.421 242.953L303.325 180.348C302.989 179.121 303.629 177.837 304.811 177.366L341.655 162.667C342.053 162.509 342.468 162.453 342.892 162.508C383.491 167.848 464.854 178.946 470.512 181.285C477.621 184.223 535.19 212.053 540.307 215.492C545.424 218.93 567.519 249.142 569.923 262.707C571.845 273.559 584.908 307.897 591.199 323.71L616.629 409.084C619.807 419.755 643.257 457.049 646.169 463.515C649.081 469.98 665.352 487.261 672.719 489.235C680.086 491.209 716.37 536.076 719.328 544.105C721.557 550.155 735.912 594.135 744.021 619.087C744.634 620.974 742.909 622.781 740.993 622.267L706.005 612.892C695.171 609.99 651.372 607.04 644.925 612.031C638.479 617.023 628.692 591.143 630.501 584.392C631.921 579.091 605.998 553.386 592.131 540.508C591.633 540.044 591.352 539.408 591.339 538.727L589.969 468.151C589.955 467.453 589.651 466.793 589.129 466.329L560.373 440.799C560.082 440.541 559.735 440.355 559.359 440.254L533.703 433.379C532.78 433.132 532.079 432.381 531.896 431.444L522.721 384.559C522.635 384.118 522.432 383.709 522.133 383.374L476.96 332.766C476.663 332.433 476.293 332.189 475.868 332.054C462.486 327.782 434.739 319.439 425.803 318.672C416.95 317.912 385.386 313.491 369.582 311.214C368.827 311.105 368.171 310.658 367.787 309.999L353.758 285.93L320.863 243.834Z" fill="#D5BEB2"/>
<path d="M75.409 112.276C75.3217 111.883 75.3305 111.475 75.4347 111.086L83.2243 82.0147C83.6796 80.3155 85.6947 79.6009 87.1114 80.6438C103.936 93.0285 133.269 115.021 135.962 118.657C138.799 122.488 146.709 200.554 150.393 239.987C150.448 240.578 150.692 241.091 151.114 241.508C195.875 285.811 256.795 412.711 259.649 422.713C262.517 432.763 297.166 516.6 299.7 576.318L332.199 754.194C332.32 754.858 332.677 755.425 333.236 755.802C378.23 786.13 479.362 858.015 487.864 857.219C509.238 855.217 653.227 856.719 788.649 869.799C788.833 869.817 789.014 869.855 789.189 869.913L912.013 910.296C913.823 910.891 914.33 913.211 912.932 914.507L904.112 922.682C903.481 923.267 902.595 923.486 901.764 923.264L774.694 889.216C766.912 887.13 699.283 889.634 666.441 891.147L442.256 876.591C441.873 876.566 441.501 876.453 441.169 876.262L319.382 806.05C319.034 805.85 318.74 805.569 318.524 805.232L289.169 759.388C289.032 759.173 288.928 758.939 288.862 758.693L191.24 398.448C191.151 398.117 190.994 397.809 190.78 397.541L119.113 307.857C118.875 307.559 118.708 307.21 118.625 306.838L75.409 112.276Z" fill="#B09C91"/>
<path d="M925.685 928.265C930.312 923.976 932.484 918.365 932.501 912.815C932.981 911.273 933.293 909.646 933.413 907.953L942.093 784.933C942.376 780.925 941.517 776.92 939.617 773.38L855.731 617.12C854.851 615.481 853.76 613.964 852.485 612.609L749.275 502.894C740.843 480.184 728.956 447.217 719.177 418.011C714.053 402.707 709.576 388.638 706.482 377.693C704.929 372.198 703.795 367.737 703.101 364.422C702.57 361.887 702.476 360.813 702.447 360.726C702.642 357.468 702.151 354.499 701.814 352.732C701.37 350.41 700.729 347.942 700.016 345.501C698.583 340.6 696.531 334.705 694.129 328.294C689.305 315.413 682.637 299.302 675.486 282.612C665.328 258.902 653.926 233.404 645.096 213.658C641.51 205.639 638.348 198.568 635.866 192.952C634.922 190.815 633.695 188.988 632.327 187.448L586.29 135.58C583.811 132.787 580.64 130.696 577.096 129.518L377.19 63.0715C375.088 62.3731 372.891 62.0072 370.676 61.9871L86.2319 59.4061C75.2218 59.3062 66.4628 67.4674 64.9878 77.5942L57.3146 106.231C56.4293 109.535 56.3543 113.004 57.096 116.344L100.312 310.906C101.015 314.071 102.433 317.034 104.458 319.568L174.017 406.614L270.755 763.6C271.322 765.69 272.204 767.68 273.371 769.504L302.726 815.347C304.563 818.216 307.062 820.6 310.012 822.302L431.799 892.514C434.625 894.142 437.787 895.099 441.041 895.311L665.226 909.867L666.264 909.934L667.304 909.886C683.644 909.133 708.624 908.135 730.438 907.585C741.363 907.31 751.359 907.15 759.033 907.184C762.886 907.201 765.986 907.266 768.252 907.375C769.599 907.44 770.314 907.509 770.572 907.532L896.909 941.384C903.968 943.275 911.504 941.409 916.864 936.44L925.685 928.265Z" stroke="#726B68" stroke-width="37.5185"/>
</svg>
