<svg width="400" height="400" viewBox="0 0 400 400" fill="none" xmlns="http://www.w3.org/2000/svg">
<path d="M44.5 175.5C45.5 175.5 76.5 208 82 211.5L76.5 259.5L44.5 221.5L33.5 196.5C36.8333 189.5 43.7 175.5 44.5 175.5Z" fill="#D9D9D9"/>
<path d="M314 255C313.833 245.167 313.6 224.7 314 221.5L352.5 187.5C353.667 192.667 356 205.7 356 216.5C356 227.3 328 246.667 314 255Z" fill="#D9D9D9"/>
<path d="M44.5 175.5C45.5 175.5 76.5 208 82 211.5L76.5 259.5L44.5 221.5L33.5 196.5C36.8333 189.5 43.7 175.5 44.5 175.5Z" stroke="black" stroke-width="2"/>
<path d="M314 255C313.833 245.167 313.6 224.7 314 221.5L352.5 187.5C353.667 192.667 356 205.7 356 216.5C356 227.3 328 246.667 314 255Z" stroke="black" stroke-width="2"/>
<path d="M343.821 249C332.621 293.8 302.154 312.667 288.321 316.5C204.821 328.167 42.2211 331 59.8211 249C64.3636 254.148 102.104 286.075 170.821 290.458L197.821 266.5L227.321 287.855C261.23 282.793 300.112 271.038 343.821 249Z" fill="#3F3C3C"/>
<path d="M85.0836 198.778C75.5836 207.278 81.0835 265.778 81.0835 265.778C90 293.5 127.384 314.078 172.584 297.278C186.984 272.078 195.084 267.278 201.584 270.278L231.084 297.278C247.084 300.278 295 310.5 317.584 273.278C315.084 215.278 319.084 198.778 297.084 198.778C279.484 198.778 94.5836 190.278 85.0836 198.778Z" fill="#C5C3C3" fill-opacity="0.8" stroke="#646464" stroke-width="13"/>
<path d="M25 188.5C26.3333 176.667 33.5 151 37.5 147L38.5 140L50 137L48 128L53 122.5C56.1667 124.667 61.4 127 63 129C65 131.5 65.5 123 66.5 122.5C67.5 122 76.5 128.5 79.5 129C82.5 129.5 91 120 93 120C94.6 120 121.667 109.333 135 104L182 97L225.5 101C236.333 103.167 258.3 107.6 259.5 108C261 108.5 306 131 307.5 132C309 133 316 138 317.5 137.5C319 137 321 126.5 322 125C322.8 123.8 329.833 125.5 334 127.5L340 120L348.5 129L357 133C359.667 137.167 365.1 145.7 365.5 146.5C366 147.5 373 170.5 374.5 176.5C376 182.5 375.5 205 375.5 207.5C375.5 210 370 242.5 369.5 244.5C369.5 244.5 364.5 257 352.5 268.5C349.667 272.833 348.3 280.5 347.5 280.5C346.7 280.5 342.833 276.833 341 275C337.167 275 333.5 272 328.5 275C327.814 275.412 321.667 266 317 263H304.5L313.5 242V236.5L304.5 234.5L309.5 226L304.5 224L306.5 215V210V202C304.5 199.167 300.2 193.3 299 192.5C297.8 191.7 304.5 186.833 308 184.5L302 179L265.5 158.5L219.5 144C208.167 142.167 184.8 138.6 182 139C178.5 139.5 136 150 126 152C116 154 96 172.5 94 174C92.4 175.2 89.6667 181.5 88.5 184.5V198V206.5L85.5 218L88.5 229.5L81.5 233.5V245C83.3333 249.667 87.3 259.7 88.5 262.5C89.7 265.3 81.6667 261.333 77.5 259L73.5 272.5H60.5C58.1 272.5 52.8333 276.167 50.5 278L46 269.5C44.5 266.5 40.7 260.2 37.5 259C34.3 257.8 28.8333 229.5 28.5 221.5L25 188.5Z" fill="#262626"/>
<path d="M49.2738 273.544C51.3532 269.981 49.7078 261.925 48.5 258L45.5 142L42.5 133L51 138.5V133L53.5 125.5C58.5 128 58.8 133.4 58 135C57.2 136.6 56.8333 136.5 58 138.5C59.8333 137.667 63.7 135.8 64.5 135C65.3 134.2 67.8333 130.333 69 128.5C70.1667 131.5 72.3 137.9 71.5 139.5C70.7 141.1 71.8333 146.833 72.5 149.5L75.5 142C76.3333 144.833 78 150.7 78 151.5C78 152.3 77 159.167 76.5 162.5H85.5L81.5 166.5V172.5L85.5 169L84 176L78 189L87 192.5L78 203L85.5 208H80L85.5 221L78 213C78 214.833 79.2 220.6 84 229C78.5 225 73 229 73 235.5C73 240.7 80.3333 252.667 84 258L67 246.5L73 265C69.2618 262.725 59.4056 261.368 49.2738 273.544C49.0577 273.914 48.8013 274.236 48.5 274.5C48.7581 274.172 49.016 273.854 49.2738 273.544Z" fill="#C6B8B8"/>
<path d="M345.726 274.044C343.647 270.481 345.292 262.425 346.5 258.5L349.5 142.5L352.5 133.5L344 139V133.5L341.5 126C336.5 128.5 336.2 133.9 337 135.5C337.8 137.1 338.167 137 337 139C335.167 138.167 331.3 136.3 330.5 135.5C329.7 134.7 327.167 130.833 326 129C324.833 132 322.7 138.4 323.5 140C324.3 141.6 323.167 147.333 322.5 150L319.5 142.5C318.667 145.333 317 151.2 317 152C317 152.8 318 159.667 318.5 163H309.5L313.5 167V173L309.5 169.5L311 176.5L317 189.5L308 193L317 203.5L309.5 208.5H315L309.5 221.5L317 213.5C317 215.333 315.8 221.1 311 229.5C316.5 225.5 322 229.5 322 236C322 241.2 314.667 253.167 311 258.5L328 247L322 265.5C325.738 263.225 335.594 261.868 345.726 274.044C345.942 274.414 346.199 274.736 346.5 275C346.242 274.672 345.984 274.354 345.726 274.044Z" fill="#C6B8B8"/>
<ellipse cx="344.5" cy="198.5" rx="24.5" ry="65.5" fill="#C6B8B8"/>
<ellipse cx="56.5" cy="198.5" rx="24.5" ry="65.5" fill="#C6B8B8"/>
<path d="M38 178C38 177 44.5 156 45.5 151.5L54 147C54.6667 148.5 56.2 152.1 57 154.5C57.8 156.9 59 168.833 59.5 174.5C60.5 180.667 62.5 193.2 62.5 194C62.5 194.8 60.5 214 59.5 223.5C55.6667 230 47.8 243.1 47 243.5C46.2 243.9 42.6667 236.667 41 233L38 206V178Z" fill="#AE9797"/>
<path d="M362.5 176C362.5 175 356 154 355 149.5L346.5 145C345.833 146.5 344.3 150.1 343.5 152.5C342.7 154.9 341.5 166.833 341 172.5C340 178.667 338 191.2 338 192C338 192.8 340 212 341 221.5C344.833 228 352.7 241.1 353.5 241.5C354.3 241.9 357.833 234.667 359.5 231L362.5 204V176Z" fill="#AE9797"/>
<path d="M62.5 189C62.1 189.8 68 190.833 72 191C143.2 83.4001 295.5 155.991 325 190.491H333L338.5 180.5L340 162C216.5 60.5087 99.1667 110.333 58 159V174L62.5 189Z" fill="#9D9D9D"/>
<path d="M65.9998 177.5C63.9998 178 59.4998 164.5 60.9998 162.5C75.6664 152.833 105.7 133.1 108.5 131.5C112 129.5 140 116.5 142.5 116.5C144.5 116.5 183.333 111.833 202.5 109.5C218.833 113.667 252 122 254 122C256 122 290.5 136.333 307.5 143.5L336 164.5L334 175L307.5 158.5L214.5 122C187.166 124.833 131.9 130.7 129.5 131.5C126.5 132.5 67.9998 177 65.9998 177.5Z" fill="#ADADAD"/>
<path d="M114.04 53.8687C74.2453 60.5011 55.6936 121.232 53.0415 125.475C62.589 138.736 82.851 166.954 87.5187 173.743C93.3533 182.23 184.585 190.717 188.828 191.777C193.072 192.838 321.963 175.334 327.268 173.743C332.572 172.152 345.325 149.921 337.345 114.867C322.494 49.6254 245.053 52.8079 228.61 49.6254C212.167 46.4429 155.412 46.9733 114.04 53.8687Z" fill="#262626"/>
<path fill-rule="evenodd" clip-rule="evenodd" d="M101.385 109.95C102.165 107.449 81.9985 94.9387 71.6059 88.8764C66.4785 100.192 55.6933 123.247 53.5717 124.945C51.45 126.642 72.8435 145.454 83.8055 154.648C88.9328 140.681 99.6119 112.215 101.309 110.093L139.499 131.84C139.499 133.962 129.245 164.903 124.117 180.108L184.585 188.595L191.48 139.266C194.103 139.266 241.351 136.153 241.87 134.032C241.88 142.174 243.641 168.12 244.522 180.108C260.081 176.572 291.411 169.076 292.26 167.378C294.205 171.622 298.519 180.108 300.216 180.108C300.803 180.108 303.91 179.092 308.053 177.544C317.986 173.83 333.87 167.056 335.224 163.892C335.288 163.742 335.319 163.6 335.316 163.467C335.313 163.349 335.283 163.238 335.224 163.135C333.526 160.165 324.615 149.521 320.372 144.57L342.649 127.066C339.29 118.58 332.253 101.606 330.98 101.606C329.707 101.606 316.305 107.264 309.763 110.093C296.68 98.8457 269.982 76.3509 267.86 76.3509L282.712 62.3555C269.982 60.5874 243.992 57.0513 241.87 57.0513C239.748 57.0513 236.035 61.6482 234.444 63.9467C244.168 66.5988 264.466 72.7926 267.86 76.3509C265.739 76.3509 254.954 83.6404 249.826 87.2851L227.018 67.1292L206.332 71.903L222.775 91.5285L194.132 94.1805L196.784 71.903L178.22 69.2509L188.298 59.7034L181.402 50.6863L143.743 57.0513L132.429 51.6383C123.058 54.4672 100.779 59.279 98.6572 59.7034C97.2613 59.9825 103.212 64.6696 109.163 69.3567C112.432 71.9317 115.701 74.5068 117.752 76.3509L143.743 57.0513L178.22 69.2509L158.064 91.5285C156.791 91.5285 132.073 83.0418 119.874 78.7984C115.655 83.8615 105.842 101.58 101.385 109.95ZM276.878 123.354L241.87 133.962C241.447 132.272 229.069 105.198 222.855 91.7012C224.158 92.9325 241.158 89.3246 249.826 87.2851L276.878 123.354ZM276.878 123.354C282.359 137.321 293.108 165.681 292.26 167.378L320.372 144.57C316.836 134.315 309.763 113.063 309.763 110.093L276.878 123.354ZM194.132 94.1805C194.132 95.8779 192.364 124.945 191.48 139.266L139.499 131.84C146.195 118.448 159.249 91.7087 158.076 91.5294L194.132 94.1805Z" fill="#262626"/>
<path d="M282.712 62.3555C288.229 66.1745 317.189 90.114 330.98 101.606L325.676 91.5285C317.189 83.3954 299.792 67.1292 298.094 67.1292C296.397 67.1292 287.132 63.9467 282.712 62.3555Z" fill="#262626"/>
<path d="M89.4281 210.342C72.4188 205.598 47.2593 187.367 40.8418 178.604C37.1289 137.49 36.0466 137.457 51.4288 120.138C54.0739 117.16 76.601 97.5943 77.9288 101.638C79.2565 105.682 84.7809 159.732 89.4281 163.102C94.0752 166.472 161.127 178.604 169.757 178.604H277.969C295.894 178.604 317.58 164.272 323.554 151.466C329.529 138.66 314.097 93.8336 317.929 91.6383C326.261 86.8645 352.197 122.823 357.501 134.492C362.805 146.162 359.094 150.777 357.501 160.483C355.51 172.615 348.176 189.795 340.374 194.781C273.695 237.393 165.49 231.559 89.4281 210.342Z" fill="#262626"/>
<path d="M170.794 77.7376L183.524 68.7205L193.072 75.0855L204.21 70.8422L221.184 68.7205C216.764 67.8365 209.408 65.1137 215.349 61.2947C221.29 57.4757 231.969 67.4829 236.566 72.9638L233.914 58.1121L221.184 53.6383L232.929 48.1383L221.184 37.4258L201.558 39.5475L183.524 30C172.739 31.9449 154.704 38.7903 149.929 37.4258C146.216 36.365 162.533 44.1445 169.429 51.7471C164.301 50.6863 166.338 51.3228 159.125 51.7471C151.911 52.1715 145.864 66.0684 143.743 72.9638L161.777 63.4163L175.037 66.0684L170.794 77.7376Z" fill="#262626"/>
<path d="M118.929 58.1383C81.4165 64.3903 63.9287 121.638 61.4287 125.638C70.4287 138.138 89.5287 164.738 93.9287 171.138C99.4287 179.138 185.429 187.138 189.429 188.138C193.429 189.138 314.929 172.638 319.929 171.138C324.929 169.638 336.951 148.682 329.429 115.638C315.429 54.1383 242.429 57.1383 226.929 54.1383C211.429 51.1383 157.929 51.6383 118.929 58.1383Z" fill="#6C6766"/>
<path fill-rule="evenodd" clip-rule="evenodd" d="M107.001 111.004C107.736 108.646 88.7256 96.853 78.929 91.1383C74.0956 101.805 63.929 123.538 61.929 125.138C59.929 126.738 80.0956 144.472 90.429 153.138C95.2623 139.972 105.329 113.138 106.929 111.138L142.929 131.638C142.929 133.638 133.262 162.805 128.429 177.138L185.429 185.138L191.929 138.638C194.402 138.638 238.939 135.704 239.429 133.704C239.439 141.379 241.098 165.837 241.929 177.138C256.596 173.805 286.129 166.738 286.929 165.138C288.762 169.138 292.829 177.138 294.429 177.138C294.983 177.138 297.912 176.18 301.816 174.721C311.18 171.221 326.153 164.835 327.429 161.852C327.49 161.711 327.519 161.577 327.516 161.451C327.513 161.34 327.485 161.236 327.429 161.138C325.829 158.338 317.429 148.305 313.429 143.638L334.429 127.138C331.262 119.138 324.629 103.138 323.429 103.138C322.229 103.138 309.596 108.472 303.429 111.138C291.096 100.536 265.929 79.3311 263.929 79.3311L277.929 66.1383C265.929 64.4716 241.429 61.1383 239.429 61.1383C237.429 61.1383 233.929 65.4716 232.429 67.6383C241.596 70.1383 260.729 75.9769 263.929 79.3311C261.929 79.3311 251.762 86.2026 246.929 89.6383L225.429 70.6383L205.929 75.1383L221.429 93.6383L194.429 96.1383L196.929 75.1383L179.429 72.6383L188.929 63.6383L182.429 55.1383L146.929 61.1383L133.429 55.1383C124.596 57.805 106.429 63.2383 104.429 63.6383C103.113 63.9015 108.723 68.3198 114.332 72.738C117.414 75.1654 120.496 77.5928 122.429 79.3311L146.929 61.1383L179.429 72.6383L160.429 93.6383C159.229 93.6383 135.929 85.6383 124.429 81.6383C120.452 86.411 111.202 103.114 107.001 111.004ZM272.429 123.638L239.429 133.638C239.031 132.045 227.363 106.524 221.504 93.8012C232.429 98 238.758 91.5609 246.929 89.6383L272.429 123.638ZM272.429 123.638C277.596 136.805 287.729 163.538 286.929 165.138L313.429 143.638C310.096 133.972 303.429 113.938 303.429 111.138L272.429 123.638ZM194.429 96.1383C196.929 105 192.762 125.138 191.929 138.638L142.929 131.638C149.241 119.014 158.5 98 160.441 93.6392L194.429 96.1383Z" fill="#978D8D"/>
<path d="M277.929 66.1383C283.129 69.7383 310.429 92.305 323.429 103.138L318.429 93.6383C310.429 85.9716 294.029 70.6383 292.429 70.6383C290.829 70.6383 282.096 67.6383 277.929 66.1383Z" fill="#978D8D"/>
<path d="M95.7288 205.638C79.695 201.166 55.9783 183.98 49.9288 175.721C46.4288 136.964 44.9288 136.964 59.4288 120.638C61.9223 117.831 72.574 133.152 73.8256 136.964C75.0772 140.776 91.3482 157.931 95.7288 161.107C100.109 164.284 163.316 175.721 171.451 175.721H273.458C290.355 175.721 310.797 162.21 316.429 150.138C322.061 138.066 320.817 110.208 324.429 108.138C332.284 103.638 343.429 123.138 348.429 134.138C353.429 145.138 349.931 149.489 348.429 158.638C346.551 170.075 339.638 186.269 332.284 190.969C269.429 231.138 167.429 225.638 95.7288 205.638Z" fill="#C6B8B8"/>
<path d="M172.429 80.6383L184.429 72.1383L193.429 78.1383L211.929 84.6383V72.1383C207.762 71.305 208.829 68.7383 214.429 65.1383C220.029 61.5383 230.095 70.9716 234.429 76.1383L231.929 62.1383L214.429 52.1383L227.929 48.1383L219.929 42.6383L201.429 44.6383L184.429 35.6383C174.262 37.4716 163.93 40.4245 159.429 39.1383C155.929 38.1383 172.429 47.4716 178.929 54.6383C174.095 53.6383 168.229 55.7383 161.429 56.1383C154.629 56.5383 148.929 69.6383 146.929 76.1383L163.929 67.1383L176.429 69.6383L172.429 80.6383Z" fill="#B5B2B2"/>
<path d="M53.4287 168.638C55.0954 156.972 58.8287 133.338 60.4287 132.138V159.138V181.138C60.4287 183.138 55.762 173.638 53.4287 168.638Z" fill="#928888"/>
<path d="M73.4287 188.138C73.262 177.805 73.0287 156.638 73.4287 154.638C75.762 156.972 80.4287 162.038 80.4287 163.638V190.638L73.4287 188.138Z" fill="#928888"/>
<path d="M95.4287 199.138V168.638L101.429 176.138C101.595 182.805 102.229 197.038 103.429 200.638C104.629 204.238 98.5954 201.138 95.4287 199.138Z" fill="#928888"/>
<path d="M128.429 181.138L118.429 177.638C118.429 185.305 117.829 201.338 115.429 204.138C113.029 206.938 123.095 207.305 128.429 207.138V181.138Z" fill="#928888"/>
<path d="M332.53 118.867C332.488 118.779 332.454 118.702 332.429 118.638C332.462 118.714 332.496 118.79 332.53 118.867C333.793 121.518 342.234 134.685 346.429 141.138V152.138C346.429 150.55 337.229 129.445 332.53 118.867Z" fill="#928888"/>
<path d="M342.429 160.638C339.095 151.305 332.129 132.338 330.929 131.138C330.262 132.472 328.829 135.738 328.429 138.138C328.029 140.538 333.929 164.472 336.929 176.138L342.429 160.638Z" fill="#928888"/>
<path d="M319.429 170.138C320.262 164.972 322.229 154.138 323.429 152.138C325.929 162.138 330.929 182.838 330.929 185.638C330.929 188.438 325.929 189.472 323.429 189.638L319.429 170.138Z" fill="#928888"/>
<path d="M308.429 200.638C307.595 194.805 305.929 182.338 305.929 179.138L300.929 176.138L312.429 170.138L317.429 194.638L308.429 200.638Z" fill="#928888"/>
<path d="M282.929 183.138C284.762 182.305 289.429 180.338 293.429 179.138V205.138C293.429 206.738 287.762 207.472 284.929 207.638L282.929 183.138Z" fill="#928888"/>
<path d="M141.929 210.638L143.429 183.138L152.429 187.138C151.429 194.972 149.329 211.238 148.929 213.638C148.529 216.038 144.095 212.638 141.929 210.638Z" fill="#928888"/>
<path d="M161.929 215.638L164.429 189.138C167.929 188.472 175.329 187.138 176.929 187.138C178.929 187.138 175.929 213.638 174.929 215.638C174.129 217.238 165.929 216.305 161.929 215.638Z" fill="#928888"/>
<path d="M255.929 184.638H273.429C272.095 193.305 269.229 210.638 268.429 210.638C267.429 210.638 260.429 213.638 258.929 213.638C257.729 213.638 256.429 194.305 255.929 184.638Z" fill="#928888"/>
<path d="M236.929 184.638H222.429C224.262 193.305 227.829 211.238 227.429 213.638C227.029 216.038 235.929 214.638 240.429 213.638L236.929 184.638Z" fill="#928888"/>
<path d="M211.429 187.138C212.929 185.138 196.929 187.138 192.429 187.138C194.429 194.972 198.429 211.638 198.429 215.638C198.429 219.638 207.762 216.638 212.429 214.638C211.595 206.138 210.229 188.738 211.429 187.138Z" fill="#928888"/>
</svg>
