<svg width="400" height="400" viewBox="0 0 400 400" fill="none" xmlns="http://www.w3.org/2000/svg">
<rect x="8.5" y="99.3359" width="81.468" height="209.751" rx="4.5" fill="#705050" stroke="black"/>
<rect x="15.3304" y="115.33" width="67.807" height="177.764" rx="5" fill="#644A4A"/>
<rect x="10.5" y="101.336" width="77.468" height="205.751" rx="2.5" fill="#705050" stroke="#413B3B" stroke-width="5"/>
<rect x="20" y="112" width="67.807" height="177.764" rx="5" fill="#876666"/>
<rect x="49.0657" y="347.744" width="61.1794" height="43.204" rx="5.64433" fill="#3C0C0C"/>
<rect x="49.0657" y="10" width="61.1794" height="43.204" rx="5.64433" fill="#3C0C0C"/>
<rect x="315.573" y="10" width="61.1794" height="43.204" rx="5.64433" fill="#3C0C0C"/>
<rect x="315.573" y="347.744" width="61.1794" height="43.204" rx="5.64433" fill="#3C0C0C"/>
<rect x="34.8184" y="22.5712" width="356.182" height="356.182" rx="17" fill="#3C0C0C"/>
<rect x="49.0657" y="36.8184" width="327.687" height="327.687" rx="17" fill="#541414"/>
<rect x="72.5317" y="60.2844" width="280.755" height="280.755" rx="17" fill="#6A2323"/>
<path d="M112.201 252.723L121.512 242.389L135.485 234.65L310.486 72.6492L335.931 103.327L320.441 105.311L323.559 118.731L306.548 115.661L310.199 134.611L297.38 130.13L301.361 151.661L282.864 141.084L285.601 163.825L268.021 157.679L279.086 173.055L255.464 168.908C259.476 174.283 267.423 185.254 267.116 186.133C266.732 187.232 248.167 189.784 248.039 190.15C247.936 190.443 255.849 201.512 259.818 207.009L235.592 202.24L245.999 220.674L224.593 216.068L240.238 237.155L219.728 229.985L227.426 249.117L207.594 245.883L215.875 258.642L199.945 257.183L210.498 274.025L190.557 269.931L192.391 278.792L178.546 292.051L165.038 298.936L159.147 309.51L162.251 321.538L151.775 324.642L118.758 304.839L93.5193 285.33L100.049 266.651L112.201 252.723Z" fill="#541414"/>
<path d="M192.391 278.792L178.546 292.051L165.038 298.936L159.147 309.51L162.251 321.538L151.775 324.642L118.758 304.839L93.5193 285.33L100.049 266.651L112.201 252.723L121.512 242.389L135.485 234.65M192.391 278.792L190.557 269.931L210.498 274.025L199.945 257.183L215.875 258.642L207.594 245.883L227.426 249.117L219.728 229.985L240.238 237.155L224.593 216.068L245.999 220.674L235.592 202.24L259.818 207.009C255.849 201.512 247.936 190.443 248.039 190.15C248.167 189.784 266.732 187.232 267.116 186.133C267.423 185.254 259.476 174.283 255.464 168.908L279.086 173.055L268.021 157.679L285.601 163.825L282.864 141.084L301.361 151.661L297.38 130.13L310.199 134.611L306.548 115.661L323.559 118.731L320.441 105.311L335.931 103.327L310.486 72.6492L135.485 234.65M192.391 278.792L180.132 252.723L165.038 235.939L135.485 234.65" stroke="#310606" stroke-width="2"/>
<path d="M310.486 73.8732L135.485 235.874L144 242.724C146.167 245.224 152 250.624 158 252.224C165.5 254.224 175.5 262.724 177 264.224C178.5 265.724 190.557 281.724 190.557 280.224L190.557 271.155L210.498 275.249L199.945 258.407L215.875 259.866L207.594 247.107L227.426 250.34L219.728 231.209L240.238 238.379L224.593 217.292L245.999 221.898L235.592 203.464L259.818 208.233C255.849 202.736 247.936 191.667 248.039 191.374C248.167 191.008 266.732 188.456 267.116 187.357C267.423 186.478 259.476 175.507 255.464 170.132L279.086 174.279L268.021 158.903L285.601 165.048L282.864 142.308L301.361 152.885L297.38 131.353L310.199 135.835L306.548 116.885L323.559 119.955L320.441 106.535L335.931 104.551L310.486 73.8732Z" fill="#594242" stroke="#310606" stroke-width="2"/>
<path d="M113 276.526C115.514 267.639 118.9 264.582 121.381 261.441L122.544 258.3L136.718 256.186L143 258.3L159.226 265.114L168.732 276.526V281.63L160.979 288.697L151.97 296.817L144.009 291.554H130.181L113 276.526Z" fill="#6A2323" stroke="#310606" stroke-width="2"/>
<path d="M295.04 318.411L284.146 297.04C283.307 292.152 281.212 281.955 279.536 280.279C277.86 278.603 195.03 192.082 162.625 158.699L146.701 156.604C143.07 158.001 135.806 161.129 135.806 162.47C135.806 163.811 131.337 168.616 129.102 170.851L122.816 185.098L114.016 188.451H105.636L87.6171 166.242V158.699L94.7407 151.156H105.636L122.816 139.423L129.102 128.528L122.816 123.5C125.749 120.567 132.454 114.197 135.806 112.186C139.159 110.175 144.466 108.834 146.701 108.415L162.625 103.805C166.256 100.453 174.274 92.8264 177.291 89.1389C180.308 85.4513 196.986 87.6024 204.947 89.1389L239.309 103.805H227.995H204.947C202.014 104.643 194.555 106.738 188.186 108.415C181.817 110.091 178.269 122.522 177.291 128.528C208.579 160.934 289.09 245.583 290.431 247.594C292.107 250.108 309.707 264.356 317.249 271.06C324.792 277.765 327.306 286.564 327.306 291.174V307.097L295.04 318.411Z" fill="#541414"/>
<path d="M177.291 128.528C178.269 122.522 181.817 110.091 188.186 108.415C194.555 106.738 202.014 104.643 204.947 103.805H227.995H239.309L204.947 89.1389C196.986 87.6024 180.308 85.4513 177.291 89.1389C174.274 92.8264 166.256 100.453 162.625 103.805L146.701 108.415C144.466 108.834 139.159 110.175 135.806 112.186C132.454 114.197 125.749 120.567 122.816 123.5L129.102 128.528L122.816 139.423L105.636 151.156H94.7407L87.6171 158.699V166.242L105.636 188.451H114.016L122.816 185.098L129.102 170.851C131.337 168.616 135.806 163.811 135.806 162.47C135.806 161.129 143.07 158.001 146.701 156.604L162.625 158.699M177.291 128.528C178.269 122.522 181.817 110.091 188.186 108.415C194.555 106.738 202.014 104.643 204.947 103.805H227.995H239.309L204.947 89.1389C196.986 87.6024 180.308 85.4513 177.291 89.1389C174.274 92.8264 166.256 100.453 162.625 103.805L146.701 108.415C144.466 108.834 139.159 110.175 135.806 112.186C132.454 114.197 125.749 120.567 122.816 123.5L129.102 128.528L122.816 139.423L105.636 151.156H94.7407L87.6171 158.699V166.242L105.636 188.451H114.016L122.816 185.098L129.102 170.851C131.337 168.616 135.806 163.811 135.806 162.47C135.806 161.129 143.07 158.001 146.701 156.604L162.625 158.699M177.291 128.528C178.269 122.522 181.817 110.091 188.186 108.415C194.555 106.738 202.014 104.643 204.947 103.805H227.995H239.309L204.947 89.1389C196.986 87.6024 180.308 85.4513 177.291 89.1389C174.274 92.8264 166.256 100.453 162.625 103.805L146.701 108.415C144.466 108.834 139.159 110.175 135.806 112.186C132.454 114.197 125.749 120.567 122.816 123.5L129.102 128.528L122.816 139.423L105.636 151.156H94.7407L87.6171 158.699V166.242L105.636 188.451H114.016L122.816 185.098L129.102 170.851C131.337 168.616 135.806 163.811 135.806 162.47C135.806 161.129 143.07 158.001 146.701 156.604L162.625 158.699M177.291 128.528C178.269 122.522 181.817 110.091 188.186 108.415C194.555 106.738 202.014 104.643 204.947 103.805H227.995H239.309L204.947 89.1389C196.986 87.6024 180.308 85.4513 177.291 89.1389C174.274 92.8264 166.256 100.453 162.625 103.805L146.701 108.415C144.466 108.834 139.159 110.175 135.806 112.186C132.454 114.197 125.749 120.567 122.816 123.5L129.102 128.528L122.816 139.423L105.636 151.156H94.7407L87.6171 158.699V166.242L105.636 188.451H114.016L122.816 185.098L129.102 170.851C131.337 168.616 135.806 163.811 135.806 162.47C135.806 161.129 143.07 158.001 146.701 156.604L162.625 158.699M177.291 128.528C178.269 122.522 181.817 110.091 188.186 108.415C194.555 106.738 202.014 104.643 204.947 103.805H227.995H239.309L204.947 89.1389C196.986 87.6024 180.308 85.4513 177.291 89.1389C174.274 92.8264 166.256 100.453 162.625 103.805L146.701 108.415C144.466 108.834 139.159 110.175 135.806 112.186C132.454 114.197 125.749 120.567 122.816 123.5L129.102 128.528L122.816 139.423L105.636 151.156H94.7407L87.6171 158.699V166.242L105.636 188.451H114.016L122.816 185.098L129.102 170.851C131.337 168.616 135.806 163.811 135.806 162.47C135.806 161.129 143.07 158.001 146.701 156.604L162.625 158.699M284.146 297.04L295.04 318.411L327.306 307.097C327.306 303.326 327.306 294.861 327.306 291.174C327.306 286.564 324.792 277.765 317.249 271.06C309.707 264.356 292.107 250.108 290.431 247.594C289.09 245.583 208.579 160.934 177.291 128.528C178.269 122.522 181.817 110.091 188.186 108.415C194.555 106.738 202.014 104.643 204.947 103.805H227.995H239.309L204.947 89.1389C196.986 87.6024 180.308 85.4513 177.291 89.1389C174.274 92.8264 166.256 100.453 162.625 103.805L146.701 108.415C144.466 108.834 139.159 110.175 135.806 112.186C132.454 114.197 125.749 120.567 122.816 123.5L129.102 128.528L122.816 139.423L105.636 151.156H94.7407L87.6171 158.699V166.242L105.636 188.451H114.016L122.816 185.098L129.102 170.851C131.337 168.616 135.806 163.811 135.806 162.47C135.806 161.129 143.07 158.001 146.701 156.604L162.625 158.699C195.03 192.082 277.86 278.603 279.536 280.279C281.212 281.955 283.307 292.152 284.146 297.04Z" stroke="#310606" stroke-width="3"/>
<path d="M188.186 108.415C181.817 110.091 178.269 122.522 177.291 128.528C179.058 130.506 185.5 136.5 186.5 137.5L170.5 144.5L164 158.699L146.701 156.604C143.07 158.001 135.806 161.129 135.806 162.47C135.806 163.811 131.337 168.616 129.102 170.851L122.816 185.098L114.016 188.451H105.636L87.6171 166.242V158.699L94.7407 151.156H105.636L122.816 139.423L129.102 128.528L122.816 123.5C125.749 120.567 132.454 114.197 135.806 112.186C139.159 110.175 144.466 108.834 146.701 108.415L162.625 103.805C166.256 100.453 174.274 92.8264 177.291 89.1389C180.308 85.4513 196.986 87.6024 204.947 89.1389L239.309 103.805H227.995H204.947C202.014 104.643 194.555 106.738 188.186 108.415Z" fill="#594242" stroke="#310606" stroke-width="3"/>
</svg>
