<svg width="500" height="500" viewBox="0 0 500 500" fill="none" xmlns="http://www.w3.org/2000/svg">
<g clip-path="url(#clip0_692_70781)">
<mask id="path-1-outside-1_692_70781" maskUnits="userSpaceOnUse" x="-128.614" y="-128.656" width="745.291" height="745.291" fill="black">
<rect fill="white" x="-128.614" y="-128.656" width="745.291" height="745.291"/>
<path d="M27.3166 465.609C24.6483 466.361 22.1875 463.9 22.9387 461.231L119.237 119.175L182.773 101.288C185.441 100.537 187.902 102.997 187.151 105.666L91.3923 445.807C91.0574 446.997 90.1276 447.926 88.9379 448.261L27.3166 465.609Z"/>
<path d="M448.323 88.8761C447.988 90.0658 447.058 90.9956 445.869 91.3306L105.727 187.089C103.059 187.84 100.598 185.38 101.35 182.711L119.237 119.175L461.293 22.8768C463.961 22.1257 466.422 24.5865 465.671 27.2548L448.323 88.8761Z"/>
<path d="M461.294 22.8764C463.962 22.1252 466.423 24.5861 465.672 27.2543L369.374 369.311L305.837 387.198C303.169 387.949 300.708 385.488 301.459 382.82L397.218 42.6789C397.553 41.4891 398.483 40.5594 399.672 40.2244L461.294 22.8764Z"/>
<path d="M40.2874 399.61C40.6224 398.42 41.5521 397.49 42.7418 397.155L382.883 301.397C385.551 300.645 388.012 303.106 387.261 305.775L369.374 369.311L27.3173 465.609C24.6491 466.36 22.1882 463.899 22.9394 461.231L40.2874 399.61Z"/>
</mask>
<path d="M27.3166 465.609C24.6483 466.361 22.1875 463.9 22.9387 461.231L119.237 119.175L182.773 101.288C185.441 100.537 187.902 102.997 187.151 105.666L91.3923 445.807C91.0574 446.997 90.1276 447.926 88.9379 448.261L27.3166 465.609Z" fill="#C7BD66"/>
<path d="M448.323 88.8761C447.988 90.0658 447.058 90.9956 445.869 91.3306L105.727 187.089C103.059 187.84 100.598 185.38 101.35 182.711L119.237 119.175L461.293 22.8768C463.961 22.1257 466.422 24.5865 465.671 27.2548L448.323 88.8761Z" fill="#C7BD66"/>
<path d="M461.294 22.8764C463.962 22.1252 466.423 24.5861 465.672 27.2543L369.374 369.311L305.837 387.198C303.169 387.949 300.708 385.488 301.459 382.82L397.218 42.6789C397.553 41.4891 398.483 40.5594 399.672 40.2244L461.294 22.8764Z" fill="#C7BD66"/>
<path d="M40.2874 399.61C40.6224 398.42 41.5521 397.49 42.7418 397.155L382.883 301.397C385.551 300.645 388.012 303.106 387.261 305.775L369.374 369.311L27.3173 465.609C24.6491 466.36 22.1882 463.899 22.9394 461.231L40.2874 399.61Z" fill="#C7BD66"/>
<path d="M119.237 119.175L114.483 102.289L105.016 104.954L102.351 114.421L119.237 119.175ZM369.374 369.311L374.128 386.197L383.594 383.531L386.259 374.065L369.374 369.311ZM27.3173 465.609L22.5635 448.723L27.3173 465.609ZM22.9394 461.231L6.05365 456.477L22.9394 461.231ZM382.883 301.397L378.129 284.511L382.883 301.397ZM387.261 305.775L404.147 310.528L387.261 305.775ZM397.218 42.6789L380.332 37.9251L397.218 42.6789ZM399.672 40.2244L404.426 57.1102L399.672 40.2244ZM305.837 387.198L310.591 404.084L305.837 387.198ZM301.459 382.82L318.345 387.574L301.459 382.82ZM465.672 27.2543L482.557 32.0081L465.672 27.2543ZM461.294 22.8764L456.54 5.99066L461.294 22.8764ZM461.293 22.8768L466.047 39.7626L461.293 22.8768ZM465.671 27.2548L482.557 32.0085L465.671 27.2548ZM445.869 91.3306L441.115 74.4448L445.869 91.3306ZM448.323 88.8761L465.209 93.6299L448.323 88.8761ZM91.3923 445.807L74.5066 441.053L91.3923 445.807ZM88.9379 448.261L93.6917 465.147L88.9379 448.261ZM182.773 101.288L187.527 118.173L182.773 101.288ZM105.727 187.089L110.481 203.975L105.727 187.089ZM101.35 182.711L118.235 187.465L101.35 182.711ZM42.7418 397.155L47.4956 414.041L42.7418 397.155ZM40.2874 399.61L57.1732 404.364L40.2874 399.61ZM22.9387 461.231L6.05294 456.478L22.9387 461.231ZM27.3166 465.609L22.5628 448.724L27.3166 465.609ZM39.8244 465.985L136.122 123.929L102.351 114.421L6.05294 456.478L39.8244 465.985ZM123.99 136.061L187.527 118.173L178.019 84.402L114.483 102.289L123.99 136.061ZM170.265 100.912L74.5066 441.053L108.278 450.561L204.037 110.419L170.265 100.912ZM84.1841 431.376L22.5628 448.724L32.0704 482.495L93.6917 465.147L84.1841 431.376ZM441.115 74.4448L100.974 170.204L110.481 203.975L450.622 108.216L441.115 74.4448ZM118.235 187.465L136.122 123.929L102.351 114.421L84.4638 177.958L118.235 187.465ZM123.99 136.061L466.047 39.7626L456.539 5.99111L114.483 102.289L123.99 136.061ZM448.785 22.501L431.437 84.1223L465.209 93.6299L482.557 32.0085L448.785 22.501ZM448.786 22.5005L352.488 364.557L386.259 374.065L482.557 32.0081L448.786 22.5005ZM364.62 352.425L301.083 370.312L310.591 404.084L374.128 386.197L364.62 352.425ZM318.345 387.574L414.104 47.4326L380.332 37.9251L284.573 378.066L318.345 387.574ZM404.426 57.1102L466.048 39.7621L456.54 5.99066L394.919 23.3387L404.426 57.1102ZM47.4956 414.041L387.637 318.282L378.129 284.511L37.9881 380.27L47.4956 414.041ZM370.375 301.021L352.488 364.557L386.259 374.065L404.147 310.528L370.375 301.021ZM364.62 352.425L22.5635 448.723L32.0711 482.495L374.128 386.197L364.62 352.425ZM39.8251 465.985L57.1732 404.364L23.4017 394.856L6.05365 456.477L39.8251 465.985ZM22.5635 448.723C33.0841 445.762 42.7869 455.464 39.8251 465.985L6.05365 456.477C1.58947 472.334 16.214 486.959 32.0711 482.495L22.5635 448.723ZM387.637 318.282C377.116 321.244 367.413 311.541 370.375 301.021L404.147 310.528C408.611 294.671 393.986 280.047 378.129 284.511L387.637 318.282ZM414.104 47.4326C412.783 52.1236 409.117 55.7896 404.426 57.1102L394.919 23.3387C387.848 25.3292 382.323 30.8546 380.332 37.9251L414.104 47.4326ZM301.083 370.312C311.604 367.35 321.307 377.053 318.345 387.574L284.573 378.066C280.109 393.923 294.734 408.548 310.591 404.084L301.083 370.312ZM482.557 32.0081C487.022 16.151 472.397 1.52648 456.54 5.99066L466.048 39.7621C455.527 42.7239 445.824 33.0211 448.786 22.5005L482.557 32.0081ZM466.047 39.7626C455.526 42.7244 445.824 33.0216 448.785 22.501L482.557 32.0085C487.021 16.1514 472.396 1.52694 456.539 5.99111L466.047 39.7626ZM450.622 108.216C457.693 106.226 463.218 100.7 465.209 93.6299L431.437 84.1223C432.758 79.4314 436.424 75.7654 441.115 74.4448L450.622 108.216ZM74.5066 441.053C75.8272 436.362 79.4933 432.696 84.1841 431.376L93.6917 465.147C100.762 463.157 106.288 457.631 108.278 450.561L74.5066 441.053ZM187.527 118.173C177.006 121.135 167.304 111.432 170.265 100.912L204.037 110.419C208.501 94.5623 193.877 79.9378 178.019 84.402L187.527 118.173ZM100.974 170.204C111.494 167.242 121.197 176.944 118.235 187.465L84.4638 177.958C79.9996 193.815 94.6242 208.439 110.481 203.975L100.974 170.204ZM37.9881 380.27C30.9177 382.26 25.3922 387.786 23.4017 394.856L57.1732 404.364C55.8525 409.054 52.1866 412.72 47.4956 414.041L37.9881 380.27ZM6.05294 456.478C1.58876 472.335 16.2133 486.959 32.0704 482.495L22.5628 448.724C33.0834 445.762 42.7862 455.465 39.8244 465.985L6.05294 456.478Z" fill="#5E571D" mask="url(#path-1-outside-1_692_70781)"/>
<path d="M283.397 198.437C259.736 195.927 211.733 190.872 209.008 190.729L191.621 183.38L192.338 227.475L198.612 283.222L260.632 295.769L299.888 291.647L283.397 198.437Z" fill="#4D4820" stroke="black" stroke-width="0.506996"/>
<path d="M151.648 132.294L422.316 56.2915L346.134 339.327L51.2681 427.339L151.648 132.294Z" fill="#629937" stroke="black" stroke-width="0.506996"/>
<rect width="126.655" height="25.331" transform="matrix(-0.120434 -0.992721 0.992721 0.120434 191.331 299.009)" fill="#CEC25E"/>
<rect width="101.563" height="6.62978" transform="matrix(-0.120434 -0.992721 0.992721 0.120434 206.874 276.353)" fill="#746C24"/>
<rect width="126.655" height="25.331" transform="matrix(-0.992721 -0.120434 -0.120434 -0.992721 304.862 213.676)" fill="#CEC25E"/>
<rect width="82.7007" height="5.63564" transform="matrix(-0.992721 -0.120434 -0.120434 -0.992721 279.9 210.648)" fill="#746C24"/>
<circle cx="249.938" cy="247.494" r="57.2463" transform="rotate(45 249.938 247.494)" fill="#41A53F" stroke="#327A31" stroke-width="6.37896"/>
<ellipse cx="237.889" cy="232.448" rx="28.1295" ry="40.1322" transform="rotate(45 237.889 232.448)" fill="#48CF45"/>
<ellipse cx="14.0544" cy="22.8197" rx="14.0544" ry="22.8197" transform="matrix(0.499736 0.866177 -0.764676 0.644415 240.845 198.001)" fill="#61EE5E"/>
<ellipse cx="8.48716" cy="13.7804" rx="8.48716" ry="13.7804" transform="matrix(0.499736 0.866177 -0.764676 0.644415 238.341 210.539)" fill="#43C241"/>
<ellipse cx="259.906" cy="231.428" rx="7.1197" ry="11.3808" transform="rotate(25.2981 259.906 231.428)" fill="#61EE5E"/>
<rect width="126.655" height="25.331" transform="matrix(0.120434 0.992721 -0.992721 -0.120434 301.812 188.529)" fill="#CEC25E"/>
<rect width="126.655" height="25.331" transform="matrix(0.992721 0.120434 0.120434 0.992721 188.281 273.863)" fill="#CEC25E"/>
<rect width="126.655" height="6.11973" transform="matrix(0.992721 0.120434 0.120434 0.992721 190.594 292.934)" fill="#746C24"/>
<rect width="126.655" height="5.76067" transform="matrix(0.120434 0.992721 -0.992721 -0.120434 301.812 188.529)" fill="#746C24"/>
<rect width="206.899" height="41.3798" transform="matrix(-0.139867 0.99017 -0.99017 0.139867 363.474 126.867)" fill="#C2B756"/>
<rect width="206.899" height="41.3798" transform="matrix(0.99017 -0.139867 -0.139867 0.99017 135.458 319.698)" fill="#C2B756"/>
<rect width="206.899" height="9.99696" transform="matrix(0.99017 -0.139867 -0.139867 0.99017 131.068 350.773)" fill="#8D853B"/>
<rect width="206.899" height="9.41042" transform="matrix(-0.139867 0.99017 -0.99017 0.139867 363.474 126.867)" fill="#8D853B"/>
<path d="M27.3166 465.609C24.6483 466.361 22.1875 463.9 22.9387 461.231L119.237 119.175L182.773 101.288C185.441 100.537 187.902 102.997 187.151 105.666L91.3923 445.807C91.0574 446.997 90.1276 447.926 88.9379 448.261L27.3166 465.609Z" fill="#C7BD66"/>
<path d="M448.323 88.8761C447.988 90.0658 447.058 90.9956 445.869 91.3306L105.727 187.089C103.059 187.84 100.598 185.38 101.35 182.711L119.237 119.175L461.293 22.8768C463.961 22.1257 466.422 24.5865 465.671 27.2548L448.323 88.8761Z" fill="#C7BD66"/>
<path d="M461.294 22.8764C463.962 22.1252 466.423 24.5861 465.672 27.2543L369.374 369.311L305.837 387.198C303.169 387.949 300.708 385.488 301.459 382.82L397.218 42.6789C397.553 41.4891 398.483 40.5594 399.672 40.2244L461.294 22.8764Z" fill="#C7BD66"/>
<path d="M40.2874 399.61C40.6224 398.42 41.5521 397.49 42.7418 397.155L382.883 301.397C385.551 300.645 388.012 303.106 387.261 305.775L369.374 369.311L27.3173 465.609C24.6491 466.36 22.1882 463.899 22.9394 461.231L40.2874 399.61Z" fill="#C7BD66"/>
<rect width="232.721" height="18.9323" transform="matrix(0.270992 -0.962582 0.962582 -0.270992 92.3452 382.82)" fill="#887F34"/>
<rect width="235.893" height="16.0935" transform="matrix(-0.962582 0.270992 0.270992 -0.962582 378.404 110.324)" fill="#887F34"/>
<path d="M35.2663 453.282L374.109 352.49L369.373 369.312L21.2232 467.325L35.2663 453.282Z" fill="#887F34"/>
<path d="M467.387 21.1609L369.374 369.311L353.539 373.769L450.768 37.7796L467.387 21.1609Z" fill="#887F34"/>
<path d="M441.495 42.4887L416.042 72.9612L147.704 146.991L129.063 128.35L441.495 42.4887Z" fill="#DCCE5D"/>
<path d="M43.3443 441.715L73.8167 416.261L147.847 147.924L129.205 129.282L43.3443 441.715Z" fill="#BAB059"/>
<path d="M440.061 43.206L407.618 65.0495L333.587 333.387L352.229 352.029L440.061 43.206Z" fill="#DCCE5D"/>
<path d="M43.3815 441.678L64.3187 407.273L332.656 333.243L351.298 351.885L43.3815 441.678Z" fill="#BAB059"/>
<rect width="196.773" height="41.3798" transform="matrix(0.139867 -0.99017 0.99017 -0.139867 131.086 350.645)" fill="#C2B756"/>
<rect width="165.91" height="10.8301" transform="matrix(0.139867 -0.99017 0.99017 -0.139867 165.652 315.813)" fill="#8D853B"/>
<rect width="197.105" height="41.3798" transform="matrix(-0.99017 0.139867 0.139867 -0.99017 347.988 169.211)" fill="#C2B756"/>
<rect width="170.316" height="16.4563" transform="matrix(-0.99017 0.139867 0.139867 -0.99017 336.982 155.106)" fill="#DACD5E"/>
<rect width="135.097" height="9.20618" transform="matrix(-0.99017 0.139867 0.139867 -0.99017 317.014 173.586)" fill="#8D853B"/>
</g>
<defs>
<clipPath id="clip0_692_70781">
<rect width="500" height="500" fill="white"/>
</clipPath>
</defs>
</svg>
