<svg width="501" height="501" viewBox="0 0 501 501" fill="none" xmlns="http://www.w3.org/2000/svg">
<mask id="path-1-outside-1_428_892" maskUnits="userSpaceOnUse" x="8.65771" y="71.6169" width="485" height="359" fill="black">
<rect fill="white" x="8.65771" y="71.6169" width="485" height="359"/>
<path d="M157.654 122.615C157.72 122.353 157.868 122.12 158.077 121.949L197.396 89.8982C197.619 89.7163 197.898 89.6169 198.186 89.6169H295.925C296.218 89.6169 296.501 89.7193 296.725 89.9061L335.248 121.951C335.452 122.12 335.597 122.351 335.661 122.608L350.83 183.089C350.878 183.281 350.88 183.482 350.835 183.675L335.602 249.423C335.575 249.539 335.532 249.651 335.473 249.755L320.976 275.45C320.915 275.558 320.87 275.675 320.843 275.796L314.17 306.139C314.153 306.216 314.129 306.292 314.098 306.364L293.049 355.353L280.11 398.605C280.007 398.952 279.757 399.237 279.428 399.386L252.1 411.746C251.784 411.889 251.423 411.894 251.103 411.761L221.372 399.366C221.044 399.229 220.79 398.959 220.673 398.623L205.616 355.353L184.263 306.255L173.276 275.726C173.249 275.651 173.215 275.579 173.174 275.51L157.859 249.773C157.79 249.657 157.74 249.531 157.712 249.4L142.971 181.829C142.93 181.641 142.933 181.445 142.98 181.259L157.654 122.615Z"/>
<path d="M203.34 196.075C203.172 195.096 201.984 194.695 201.256 195.371L177.431 217.501C177.29 217.632 177.121 217.729 176.937 217.783L167.692 220.533C166.834 220.788 166.514 221.836 167.084 222.527L180.28 238.537L195.421 256.105C195.537 256.239 195.621 256.39 195.671 256.56C200.29 272.173 209.381 303.51 209.381 305.949C209.381 308.378 215.6 328.868 218.792 339.077C218.849 339.259 218.946 339.42 219.078 339.559L228.524 349.481C229.355 350.353 230.818 349.662 230.672 348.467L218.901 252.21C218.885 252.083 218.85 251.96 218.797 251.843L209.448 231.33C209.404 231.232 209.372 231.129 209.354 231.023L203.34 196.075Z"/>
<path d="M290.438 198.229C290.489 197.241 291.612 196.701 292.416 197.278L320.712 217.577C320.826 217.659 320.951 217.72 321.085 217.76L330.408 220.533C331.267 220.788 331.586 221.836 331.017 222.527L317.82 238.537L302.679 256.105C302.564 256.239 302.48 256.39 302.429 256.56C297.811 272.173 288.719 303.51 288.719 305.949C288.719 308.378 282.5 328.868 279.308 339.077C279.251 339.259 279.154 339.42 279.022 339.559L269.576 349.481C268.745 350.353 267.283 349.662 267.429 348.467L279.2 252.21C279.215 252.083 279.25 251.96 279.303 251.843L288.621 231.399C288.686 231.256 288.723 231.102 288.732 230.945L290.438 198.229Z"/>
<path d="M175.194 133.021C175.114 133.092 175.043 133.174 174.983 133.263L146.59 175.597C145.81 176.761 143.999 175.956 144.338 174.597L157.206 123.11C157.271 122.85 157.418 122.618 157.624 122.448L196.782 90.2085C197.006 90.0241 197.287 89.9234 197.577 89.9234H295.622C295.913 89.9234 296.194 90.0241 296.417 90.2085L335.572 122.445C335.781 122.617 335.928 122.852 335.992 123.115L348.664 175.114C349.01 176.534 347.056 177.293 346.353 176.012L321.968 131.591C321.86 131.394 321.7 131.23 321.506 131.115L285.63 110.006C285.446 109.897 285.238 109.838 285.024 109.833L204.05 108.013C203.736 108.006 203.43 108.118 203.194 108.325L175.194 133.021Z"/>
<path d="M157.461 221.006C157.381 220.827 157.347 220.634 157.357 220.437L158.362 201.466C158.373 201.27 158.429 201.078 158.528 200.907L163.963 191.491C164.115 191.228 164.357 191.029 164.645 190.932L176.559 186.9C176.81 186.815 177.078 186.811 177.331 186.891C183.735 188.913 195.909 192.92 196.293 193.696C196.678 194.475 201.362 203.705 203.776 208.459C203.859 208.623 203.904 208.801 203.909 208.985L204.393 225.529C204.395 225.59 204.392 225.651 204.385 225.711L202.144 244.842L201.466 254.318C201.394 255.332 200.208 255.84 199.424 255.195L195.619 252.062C195.566 252.018 195.509 251.978 195.45 251.944L180.418 243.263C176.313 240.774 167.595 235.574 165.562 234.683C163.571 233.811 159.411 225.373 157.461 221.006Z"/>
<path d="M336.869 221.006C336.949 220.827 336.984 220.634 336.974 220.437L335.968 201.466C335.958 201.27 335.901 201.078 335.803 200.907L330.368 191.491C330.216 191.228 329.974 191.029 329.686 190.932L317.772 186.9C317.52 186.815 317.252 186.811 316.999 186.891C310.596 188.913 298.422 192.92 298.038 193.696C297.653 194.475 292.969 203.705 290.555 208.459C290.471 208.623 290.427 208.801 290.421 208.985L289.938 225.529C289.936 225.59 289.939 225.651 289.946 225.711L292.186 244.842L292.864 254.318C292.937 255.332 294.123 255.84 294.907 255.195L298.711 252.062C298.765 252.018 298.821 251.978 298.881 251.944L313.913 243.263C318.018 240.774 326.736 235.574 328.769 234.683C330.759 233.811 334.92 225.373 336.869 221.006Z"/>
<path d="M164.325 219.336C164.143 219.069 164.075 218.748 164.128 218.431L166.695 203.022C166.762 202.619 167.022 202.274 167.391 202.099L173.235 199.315L193.375 213.147C193.623 213.317 193.801 213.57 193.877 213.86L198.66 232.102L195.618 244.829C195.443 245.557 194.676 245.971 193.973 245.713C188.69 243.773 180.037 240.6 179.362 240.375C178.64 240.135 169.213 226.507 164.325 219.336Z"/>
<path d="M170.386 215.258C170.246 215.05 170.172 214.808 170.172 214.557V202.897C170.172 202.565 170.304 202.247 170.538 202.013L173.235 199.315L193.375 213.147C193.623 213.317 193.801 213.57 193.877 213.86L198.66 232.102L196.661 237.101C196.41 237.73 195.705 238.044 195.066 237.821C190.067 236.079 183.106 234.167 182.425 233.94C181.701 233.699 175.169 222.334 170.386 215.258Z"/>
<path d="M331.326 219.336C331.507 219.069 331.575 218.748 331.523 218.431L328.955 203.022C328.888 202.619 328.628 202.274 328.259 202.099L322.415 199.315L302.275 213.147C302.028 213.317 301.85 213.57 301.773 213.86L296.99 232.102L300.033 244.829C300.207 245.557 300.975 245.971 301.678 245.713C306.96 243.773 315.613 240.6 316.289 240.375C317.01 240.135 326.437 226.507 331.326 219.336Z"/>
<path d="M221.22 399.013C220.898 398.873 220.651 398.605 220.537 398.274L214.441 380.563C214.339 380.267 214.352 379.943 214.478 379.655L220.569 365.73C220.665 365.511 220.821 365.323 221.021 365.191L231.461 358.228C231.646 358.105 231.794 357.935 231.892 357.735L237.143 346.937C237.218 346.782 237.261 346.614 237.268 346.442L238.789 309.626L241.824 266.517C241.842 266.255 241.942 266.006 242.11 265.804L245.615 261.597C246.069 261.052 246.885 260.993 247.413 261.468L252.22 265.796C252.448 266.001 252.591 266.273 252.625 266.577C254.173 280.419 257.168 307.686 257.168 309.626C257.168 311.569 259.575 334.737 260.811 346.387C260.833 346.599 260.908 346.794 261.03 346.967L268.656 357.823C268.757 357.966 268.886 358.086 269.036 358.176L280.801 365.237C280.972 365.34 281.116 365.483 281.221 365.653L287.192 375.322C287.384 375.633 287.43 376.012 287.319 376.36L280.308 398.276C280.202 398.606 279.965 398.878 279.652 399.026L252.168 412.033C251.842 412.187 251.464 412.193 251.133 412.049L221.22 399.013Z"/>
<path d="M215.3 211.446C215.493 211.861 215.444 212.349 215.172 212.717L207.211 223.492C206.52 224.426 205.04 223.997 204.957 222.838L203.99 209.293C203.979 209.136 203.938 208.983 203.87 208.841L196.835 194.179C196.698 193.894 196.457 193.671 196.162 193.555L177.464 186.249C177.176 186.137 176.856 186.135 176.567 186.244L166.12 190.192C165.069 190.589 164.068 189.507 164.546 188.49L165.424 186.625C165.587 186.277 165.901 186.024 166.275 185.938L187.898 180.969C188.19 180.902 188.496 180.942 188.762 181.082L204.826 189.555C205.068 189.682 205.261 189.885 205.376 190.133L215.3 211.446Z"/>
<path d="M279.537 211.511C279.344 211.926 279.393 212.414 279.665 212.782L287.626 223.557C288.317 224.491 289.797 224.061 289.88 222.903L290.847 209.358C290.858 209.201 290.899 209.048 290.967 208.906L298.002 194.244C298.139 193.958 298.38 193.735 298.675 193.62L317.373 186.314C317.661 186.201 317.981 186.199 318.27 186.309L328.717 190.257C329.768 190.654 330.769 189.571 330.291 188.554L329.413 186.689C329.25 186.342 328.936 186.089 328.562 186.003L306.939 181.034C306.647 180.967 306.341 181.007 306.075 181.146L290.011 189.619C289.769 189.747 289.576 189.95 289.461 190.198L279.537 211.511Z"/>
<path d="M162.75 102.607C162.987 102.576 163.221 102.615 163.437 102.717L188.636 114.597C188.866 114.705 189.058 114.882 189.186 115.103L208.867 149.203C209.166 149.721 209.057 150.378 208.605 150.771L189.633 167.292C183.309 171.568 170.721 180.554 170.967 182.285C171.211 184.007 152.579 185.975 143.087 186.757C142.985 186.765 142.887 186.761 142.787 186.744L75.3293 175.724L48.6123 173.075C48.439 173.058 48.2711 173.004 48.1195 172.918L27.731 161.373C27.1358 161.036 26.9218 160.283 27.2505 159.683L34.701 146.091C34.8408 145.835 35.0652 145.637 35.3354 145.53L47.9418 140.515C69.7479 130.418 113.825 110.049 115.682 109.351C117.526 108.658 147.596 104.597 162.75 102.607Z"/>
<path d="M185.018 141.52C185.616 141.175 185.821 140.41 185.476 139.812L181.143 132.305C181.05 132.145 180.924 132.008 180.772 131.903L174.094 127.272C174.005 127.21 173.908 127.16 173.806 127.123L146.771 117.381C146.517 117.29 146.241 117.283 145.983 117.362L108.272 128.842L52.5266 148.385C52.4532 148.411 52.3823 148.444 52.315 148.483L47.7099 151.142C46.5866 151.791 47.072 153.51 48.3688 153.475L56.1918 153.266L116.007 145.298C116.258 145.264 116.493 145.156 116.68 144.986L123.603 138.73C123.995 138.376 124.566 138.306 125.032 138.555L136.627 144.76C137.008 144.964 137.472 144.962 137.826 144.714C141.194 142.357 142.829 137.648 153.101 135.759C153.371 135.709 153.656 135.753 153.899 135.88L161.692 139.958C162.355 140.305 162.567 141.154 162.144 141.772L157.252 148.929C157.142 149.089 157.072 149.273 157.045 149.465L156.173 155.85C156.032 156.88 157.137 157.622 158.038 157.102L185.018 141.52Z"/>
<path d="M359.222 132.836C359 132.744 358.765 132.721 358.529 132.764L331.116 137.715C330.865 137.76 330.634 137.881 330.454 138.061L302.62 165.904C302.197 166.327 302.133 166.99 302.467 167.486L316.518 188.356C321.521 194.124 331.354 206.063 330.669 207.671C329.988 209.271 347.475 215.996 356.442 219.209C356.538 219.243 356.634 219.264 356.735 219.274L424.745 226.094L451.237 230.452C451.409 230.48 451.585 230.472 451.754 230.429L474.435 224.555C475.097 224.384 475.499 223.712 475.336 223.048L471.657 207.989C471.588 207.706 471.422 207.457 471.189 207.283L460.31 199.175C441.859 183.777 404.554 152.691 402.941 151.535C401.339 150.389 373.345 138.681 359.222 132.836Z"/>
<path d="M324.089 170.062C323.601 169.574 323.601 168.782 324.089 168.294L330.217 162.164C330.347 162.033 330.505 161.933 330.679 161.871L338.327 159.127C338.429 159.091 338.536 159.068 338.644 159.058L367.278 156.648C367.547 156.625 367.816 156.69 368.045 156.833L401.5 177.685L450.29 210.995C450.354 211.039 450.414 211.089 450.469 211.144L454.229 214.905C455.146 215.822 454.232 217.357 452.989 216.988L445.487 214.761L389.771 191.577C389.538 191.48 389.339 191.315 389.202 191.102L384.133 183.267C383.847 182.824 383.313 182.608 382.799 182.728L369.993 185.719C369.572 185.818 369.125 185.696 368.847 185.364C366.203 182.216 365.842 177.244 356.409 172.76C356.161 172.642 355.875 172.61 355.607 172.67L347.025 174.592C346.294 174.756 345.87 175.521 346.118 176.227L348.992 184.407C349.056 184.59 349.077 184.786 349.053 184.978L348.243 191.371C348.113 192.403 346.853 192.833 346.118 192.098L324.089 170.062Z"/>
<path d="M187.169 167.766C186.577 167.42 186.374 166.662 186.714 166.066L193.452 154.271L201.335 140.625C201.389 140.53 201.456 140.443 201.533 140.366L214.156 127.739C214.24 127.655 214.335 127.584 214.439 127.527L229.624 119.188C229.808 119.086 230.015 119.033 230.226 119.033H259.094C259.238 119.033 259.381 119.058 259.517 119.107L282.778 127.46C283.054 127.559 283.287 127.751 283.435 128.004L298.828 154.271L306.461 166.149C306.819 166.706 306.681 167.446 306.146 167.836L292.395 177.866L279.105 189.649C278.981 189.759 278.88 189.893 278.808 190.042L267.005 214.541C266.796 214.974 266.359 215.249 265.878 215.249H233.141C232.661 215.249 232.223 214.974 232.015 214.541L220.232 190.085C220.147 189.908 220.021 189.754 219.865 189.634L204.48 177.866C202.871 176.946 192.868 171.1 187.169 167.766Z"/>
<path d="M219.229 390.795C217.172 388.259 217.952 380.753 218.6 377.317L219.597 374.368C219.807 373.748 220.458 373.395 221.092 373.557L222.576 373.936C222.982 374.04 223.309 374.34 223.447 374.735L225.61 380.919C225.868 381.656 226.73 381.979 227.408 381.594L235.397 377.053C235.784 376.833 236.259 376.835 236.644 377.059L245.424 382.17C245.61 382.278 245.82 382.336 246.034 382.341C249.576 382.42 252.369 382.858 253.282 382.277C254.181 381.707 261.616 379.099 265.718 376.997C266.078 376.812 266.5 376.805 266.873 376.959C269.674 378.118 274.837 379.156 277.065 379.954C279.008 380.651 279.325 376.306 279.195 372.77C279.159 371.786 280.192 371.085 281.071 371.526C281.922 371.952 282.824 372.403 283.479 372.728C284.725 373.346 281.793 383.679 280.059 389.131C279.978 389.384 279.819 389.602 279.603 389.758L254.509 407.943C254.296 408.097 254.039 408.181 253.775 408.181H246.841C246.663 408.181 246.497 408.147 246.335 408.073C239.427 404.876 221.263 393.302 219.229 390.795Z"/>
<path d="M325.264 215.258C325.405 215.05 325.478 214.808 325.478 214.557V202.897C325.478 202.565 325.347 202.247 325.112 202.013L322.415 199.315L302.275 213.147C302.028 213.317 301.85 213.57 301.773 213.86L296.99 232.102L298.989 237.101C299.241 237.73 299.945 238.044 300.584 237.821C305.583 236.079 312.544 234.167 313.225 233.94C313.95 233.699 320.482 222.334 325.264 215.258Z"/>
</mask>
<path d="M157.654 122.615C157.72 122.353 157.868 122.12 158.077 121.949L197.396 89.8982C197.619 89.7163 197.898 89.6169 198.186 89.6169H295.925C296.218 89.6169 296.501 89.7193 296.725 89.9061L335.248 121.951C335.452 122.12 335.597 122.351 335.661 122.608L350.83 183.089C350.878 183.281 350.88 183.482 350.835 183.675L335.602 249.423C335.575 249.539 335.532 249.651 335.473 249.755L320.976 275.45C320.915 275.558 320.87 275.675 320.843 275.796L314.17 306.139C314.153 306.216 314.129 306.292 314.098 306.364L293.049 355.353L280.11 398.605C280.007 398.952 279.757 399.237 279.428 399.386L252.1 411.746C251.784 411.889 251.423 411.894 251.103 411.761L221.372 399.366C221.044 399.229 220.79 398.959 220.673 398.623L205.616 355.353L184.263 306.255L173.276 275.726C173.249 275.651 173.215 275.579 173.174 275.51L157.859 249.773C157.79 249.657 157.74 249.531 157.712 249.4L142.971 181.829C142.93 181.641 142.933 181.445 142.98 181.259L157.654 122.615Z" fill="#A6968D"/>
<path d="M203.34 196.075C203.172 195.096 201.984 194.695 201.256 195.371L177.431 217.501C177.29 217.632 177.121 217.729 176.937 217.783L167.692 220.533C166.834 220.788 166.514 221.836 167.084 222.527L180.28 238.537L195.421 256.105C195.537 256.239 195.621 256.39 195.671 256.56C200.29 272.173 209.381 303.51 209.381 305.949C209.381 308.378 215.6 328.868 218.792 339.077C218.849 339.259 218.946 339.42 219.078 339.559L228.524 349.481C229.355 350.353 230.818 349.662 230.672 348.467L218.901 252.21C218.885 252.083 218.85 251.96 218.797 251.843L209.448 231.33C209.404 231.232 209.372 231.129 209.354 231.023L203.34 196.075Z" fill="#9A8C84"/>
<path d="M290.438 198.229C290.489 197.241 291.612 196.701 292.416 197.278L320.712 217.577C320.826 217.659 320.951 217.72 321.085 217.76L330.408 220.533C331.267 220.788 331.586 221.836 331.017 222.527L317.82 238.537L302.679 256.105C302.564 256.239 302.48 256.39 302.429 256.56C297.811 272.173 288.719 303.51 288.719 305.949C288.719 308.378 282.5 328.868 279.308 339.077C279.251 339.259 279.154 339.42 279.022 339.559L269.576 349.481C268.745 350.353 267.283 349.662 267.429 348.467L279.2 252.21C279.215 252.083 279.25 251.96 279.303 251.843L288.621 231.399C288.686 231.256 288.723 231.102 288.732 230.945L290.438 198.229Z" fill="#9A8C84"/>
<path d="M175.194 133.021C175.114 133.092 175.043 133.174 174.983 133.263L146.59 175.597C145.81 176.761 143.999 175.956 144.338 174.597L157.206 123.11C157.271 122.85 157.418 122.618 157.624 122.448L196.782 90.2085C197.006 90.0241 197.287 89.9234 197.577 89.9234H295.622C295.913 89.9234 296.194 90.0241 296.417 90.2085L335.572 122.445C335.781 122.617 335.928 122.852 335.992 123.115L348.664 175.114C349.01 176.534 347.056 177.293 346.353 176.012L321.968 131.591C321.86 131.394 321.7 131.23 321.506 131.115L285.63 110.006C285.446 109.897 285.238 109.838 285.024 109.833L204.05 108.013C203.736 108.006 203.43 108.118 203.194 108.325L175.194 133.021Z" fill="#9D8B81"/>
<path d="M157.461 221.006C157.381 220.827 157.347 220.634 157.357 220.437L158.362 201.466C158.373 201.27 158.429 201.078 158.528 200.907L163.963 191.491C164.115 191.228 164.357 191.029 164.645 190.932L176.559 186.9C176.81 186.815 177.078 186.811 177.331 186.891C183.735 188.913 195.909 192.92 196.293 193.696C196.678 194.475 201.362 203.705 203.776 208.459C203.859 208.623 203.904 208.801 203.909 208.985L204.393 225.529C204.395 225.59 204.392 225.651 204.385 225.711L202.144 244.842L201.466 254.318C201.394 255.332 200.208 255.84 199.424 255.195L195.619 252.062C195.566 252.018 195.509 251.978 195.45 251.944L180.418 243.263C176.313 240.774 167.595 235.574 165.562 234.683C163.571 233.811 159.411 225.373 157.461 221.006Z" fill="#D5B9A9"/>
<path d="M336.869 221.006C336.949 220.827 336.984 220.634 336.974 220.437L335.968 201.466C335.958 201.27 335.901 201.078 335.803 200.907L330.368 191.491C330.216 191.228 329.974 191.029 329.686 190.932L317.772 186.9C317.52 186.815 317.252 186.811 316.999 186.891C310.596 188.913 298.422 192.92 298.038 193.696C297.653 194.475 292.969 203.705 290.555 208.459C290.471 208.623 290.427 208.801 290.421 208.985L289.938 225.529C289.936 225.59 289.939 225.651 289.946 225.711L292.186 244.842L292.864 254.318C292.937 255.332 294.123 255.84 294.907 255.195L298.711 252.062C298.765 252.018 298.821 251.978 298.881 251.944L313.913 243.263C318.018 240.774 326.736 235.574 328.769 234.683C330.759 233.811 334.92 225.373 336.869 221.006Z" fill="#D5B9A9"/>
<path d="M164.325 219.336C164.143 219.069 164.075 218.748 164.128 218.431L166.695 203.022C166.762 202.619 167.022 202.274 167.391 202.099L173.235 199.315L193.375 213.147C193.623 213.317 193.801 213.57 193.877 213.86L198.66 232.102L195.618 244.829C195.443 245.557 194.676 245.971 193.973 245.713C188.69 243.773 180.037 240.6 179.362 240.375C178.64 240.135 169.213 226.507 164.325 219.336Z" fill="#BAA091"/>
<path d="M170.386 215.258C170.246 215.05 170.172 214.808 170.172 214.557V202.897C170.172 202.565 170.304 202.247 170.538 202.013L173.235 199.315L193.375 213.147C193.623 213.317 193.801 213.57 193.877 213.86L198.66 232.102L196.661 237.101C196.41 237.73 195.705 238.044 195.066 237.821C190.067 236.079 183.106 234.167 182.425 233.94C181.701 233.699 175.169 222.334 170.386 215.258Z" fill="#756F6C"/>
<path d="M331.326 219.336C331.507 219.069 331.575 218.748 331.523 218.431L328.955 203.022C328.888 202.619 328.628 202.274 328.259 202.099L322.415 199.315L302.275 213.147C302.028 213.317 301.85 213.57 301.773 213.86L296.99 232.102L300.033 244.829C300.207 245.557 300.975 245.971 301.678 245.713C306.96 243.773 315.613 240.6 316.289 240.375C317.01 240.135 326.437 226.507 331.326 219.336Z" fill="#BAA091"/>
<path d="M221.22 399.013C220.898 398.873 220.651 398.605 220.537 398.274L214.441 380.563C214.339 380.267 214.352 379.943 214.478 379.655L220.569 365.73C220.665 365.511 220.821 365.323 221.021 365.191L231.461 358.228C231.646 358.105 231.794 357.935 231.892 357.735L237.143 346.937C237.218 346.782 237.261 346.614 237.268 346.442L238.789 309.626L241.824 266.517C241.842 266.255 241.942 266.006 242.11 265.804L245.615 261.597C246.069 261.052 246.885 260.993 247.413 261.468L252.22 265.796C252.448 266.001 252.591 266.273 252.625 266.577C254.173 280.419 257.168 307.686 257.168 309.626C257.168 311.569 259.575 334.737 260.811 346.387C260.833 346.599 260.908 346.794 261.03 346.967L268.656 357.823C268.757 357.966 268.886 358.086 269.036 358.176L280.801 365.237C280.972 365.34 281.116 365.483 281.221 365.653L287.192 375.322C287.384 375.633 287.43 376.012 287.319 376.36L280.308 398.276C280.202 398.606 279.965 398.878 279.652 399.026L252.168 412.033C251.842 412.187 251.464 412.193 251.133 412.049L221.22 399.013Z" fill="#C7B5AB"/>
<path d="M215.3 211.446C215.493 211.861 215.444 212.349 215.172 212.717L207.211 223.492C206.52 224.426 205.04 223.997 204.957 222.838L203.99 209.293C203.979 209.136 203.938 208.983 203.87 208.841L196.835 194.179C196.698 193.894 196.457 193.671 196.162 193.555L177.464 186.249C177.176 186.137 176.856 186.135 176.567 186.244L166.12 190.192C165.069 190.589 164.068 189.507 164.546 188.49L165.424 186.625C165.587 186.277 165.901 186.024 166.275 185.938L187.898 180.969C188.19 180.902 188.496 180.942 188.762 181.082L204.826 189.555C205.068 189.682 205.261 189.885 205.376 190.133L215.3 211.446Z" fill="#9A8B82"/>
<path d="M279.537 211.511C279.344 211.926 279.393 212.414 279.665 212.782L287.626 223.557C288.317 224.491 289.797 224.061 289.88 222.903L290.847 209.358C290.858 209.201 290.899 209.048 290.967 208.906L298.002 194.244C298.139 193.958 298.38 193.735 298.675 193.62L317.373 186.314C317.661 186.201 317.981 186.199 318.27 186.309L328.717 190.257C329.768 190.654 330.769 189.571 330.291 188.554L329.413 186.689C329.25 186.342 328.936 186.089 328.562 186.003L306.939 181.034C306.647 180.967 306.341 181.007 306.075 181.146L290.011 189.619C289.769 189.747 289.576 189.95 289.461 190.198L279.537 211.511Z" fill="#9A8B82"/>
<path d="M162.75 102.607C162.987 102.576 163.221 102.615 163.437 102.717L188.636 114.597C188.866 114.705 189.058 114.882 189.186 115.103L208.867 149.203C209.166 149.721 209.057 150.378 208.605 150.771L189.633 167.292C183.309 171.568 170.721 180.554 170.967 182.285C171.211 184.007 152.579 185.975 143.087 186.757C142.985 186.765 142.887 186.761 142.787 186.744L75.3293 175.724L48.6123 173.075C48.439 173.058 48.2711 173.004 48.1195 172.918L27.731 161.373C27.1358 161.036 26.9218 160.283 27.2505 159.683L34.701 146.091C34.8408 145.835 35.0652 145.637 35.3354 145.53L47.9418 140.515C69.7479 130.418 113.825 110.049 115.682 109.351C117.526 108.658 147.596 104.597 162.75 102.607Z" fill="#B4A096"/>
<path d="M185.018 141.52C185.616 141.175 185.821 140.41 185.476 139.812L181.143 132.305C181.05 132.145 180.924 132.008 180.772 131.903L174.094 127.272C174.005 127.21 173.908 127.16 173.806 127.123L146.771 117.381C146.517 117.29 146.241 117.283 145.983 117.362L108.272 128.842L52.5266 148.385C52.4532 148.411 52.3823 148.444 52.315 148.483L47.7099 151.142C46.5866 151.791 47.072 153.51 48.3688 153.475L56.1918 153.266L116.007 145.298C116.258 145.264 116.493 145.156 116.68 144.986L123.603 138.73C123.995 138.376 124.566 138.306 125.032 138.555L136.627 144.76C137.008 144.964 137.472 144.962 137.826 144.714C141.194 142.357 142.829 137.648 153.101 135.759C153.371 135.709 153.656 135.753 153.899 135.88L161.692 139.958C162.355 140.305 162.567 141.154 162.144 141.772L157.252 148.929C157.142 149.089 157.072 149.273 157.045 149.465L156.173 155.85C156.032 156.88 157.137 157.622 158.038 157.102L185.018 141.52Z" fill="#938781"/>
<path d="M359.222 132.836C359 132.744 358.765 132.721 358.529 132.764L331.116 137.715C330.865 137.76 330.634 137.881 330.454 138.061L302.62 165.904C302.197 166.327 302.133 166.99 302.467 167.486L316.518 188.356C321.521 194.124 331.354 206.063 330.669 207.671C329.988 209.271 347.475 215.996 356.442 219.209C356.538 219.243 356.634 219.264 356.735 219.274L424.745 226.094L451.237 230.452C451.409 230.48 451.585 230.472 451.754 230.429L474.435 224.555C475.097 224.384 475.499 223.712 475.336 223.048L471.657 207.989C471.588 207.706 471.422 207.457 471.189 207.283L460.31 199.175C441.859 183.777 404.554 152.691 402.941 151.535C401.339 150.389 373.345 138.681 359.222 132.836Z" fill="#B4A096"/>
<path d="M324.089 170.062C323.601 169.574 323.601 168.782 324.089 168.294L330.217 162.164C330.347 162.033 330.505 161.933 330.679 161.871L338.327 159.127C338.429 159.091 338.536 159.068 338.644 159.058L367.278 156.648C367.547 156.625 367.816 156.69 368.045 156.833L401.5 177.685L450.29 210.995C450.354 211.039 450.414 211.089 450.469 211.144L454.229 214.905C455.146 215.822 454.232 217.357 452.989 216.988L445.487 214.761L389.771 191.577C389.538 191.48 389.339 191.315 389.202 191.102L384.133 183.267C383.847 182.824 383.313 182.608 382.799 182.728L369.993 185.719C369.572 185.818 369.125 185.696 368.847 185.364C366.203 182.216 365.842 177.244 356.409 172.76C356.161 172.642 355.875 172.61 355.607 172.67L347.025 174.592C346.294 174.756 345.87 175.521 346.118 176.227L348.992 184.407C349.056 184.59 349.077 184.786 349.053 184.978L348.243 191.371C348.113 192.403 346.853 192.833 346.118 192.098L324.089 170.062Z" fill="#938781"/>
<path d="M187.169 167.766C186.577 167.42 186.374 166.662 186.714 166.066L193.452 154.271L201.335 140.625C201.389 140.53 201.456 140.443 201.533 140.366L214.156 127.739C214.24 127.655 214.335 127.584 214.439 127.527L229.624 119.188C229.808 119.086 230.015 119.033 230.226 119.033H259.094C259.238 119.033 259.381 119.058 259.517 119.107L282.778 127.46C283.054 127.559 283.287 127.751 283.435 128.004L298.828 154.271L306.461 166.149C306.819 166.706 306.681 167.446 306.146 167.836L292.395 177.866L279.105 189.649C278.981 189.759 278.88 189.893 278.808 190.042L267.005 214.541C266.796 214.974 266.359 215.249 265.878 215.249H233.141C232.661 215.249 232.223 214.974 232.015 214.541L220.232 190.085C220.147 189.908 220.021 189.754 219.865 189.634L204.48 177.866C202.871 176.946 192.868 171.1 187.169 167.766Z" fill="#B19E92"/>
<path d="M219.229 390.795C217.172 388.259 217.952 380.753 218.6 377.317L219.597 374.368C219.807 373.748 220.458 373.395 221.092 373.557L222.576 373.936C222.982 374.04 223.309 374.34 223.447 374.735L225.61 380.919C225.868 381.656 226.73 381.979 227.408 381.594L235.397 377.053C235.784 376.833 236.259 376.835 236.644 377.059L245.424 382.17C245.61 382.278 245.82 382.336 246.034 382.341C249.576 382.42 252.369 382.858 253.282 382.277C254.181 381.707 261.616 379.099 265.718 376.997C266.078 376.812 266.5 376.805 266.873 376.959C269.674 378.118 274.837 379.156 277.065 379.954C279.008 380.651 279.325 376.306 279.195 372.77C279.159 371.786 280.192 371.085 281.071 371.526C281.922 371.952 282.824 372.403 283.479 372.728C284.725 373.346 281.793 383.679 280.059 389.131C279.978 389.384 279.819 389.602 279.603 389.758L254.509 407.943C254.296 408.097 254.039 408.181 253.775 408.181H246.841C246.663 408.181 246.497 408.147 246.335 408.073C239.427 404.876 221.263 393.302 219.229 390.795Z" fill="#817272"/>
<path d="M325.264 215.258C325.405 215.05 325.478 214.808 325.478 214.557V202.897C325.478 202.565 325.347 202.247 325.112 202.013L322.415 199.315L302.275 213.147C302.028 213.317 301.85 213.57 301.773 213.86L296.99 232.102L298.989 237.101C299.241 237.73 299.945 238.044 300.584 237.821C305.583 236.079 312.544 234.167 313.225 233.94C313.95 233.699 320.482 222.334 325.264 215.258Z" fill="#756F6C"/>
<path d="M301.773 213.86L310.241 216.081L301.773 213.86ZM302.275 213.147L307.231 220.363L302.275 213.147ZM193.877 213.86L202.345 211.64L193.877 213.86ZM193.375 213.147L198.331 205.93L193.375 213.147ZM207.128 229.881L202.345 211.64L185.409 216.081L190.192 234.322L207.128 229.881ZM198.331 205.93L178.191 192.099L168.279 206.531L188.419 220.363L198.331 205.93ZM305.458 234.322L310.241 216.081L293.305 211.64L288.522 229.881L305.458 234.322ZM307.231 220.363L327.371 206.531L317.459 192.099L297.319 205.93L307.231 220.363ZM310.241 216.081C309.785 217.823 308.716 219.343 307.231 220.363L297.319 205.93C295.339 207.29 293.915 209.317 293.305 211.64L310.241 216.081ZM202.345 211.64C201.736 209.317 200.311 207.29 198.331 205.93L188.419 220.363C186.934 219.343 185.866 217.823 185.409 216.081L202.345 211.64ZM184.263 306.255L167.789 312.184L167.981 312.718L168.207 313.238L184.263 306.255ZM205.616 355.353L222.152 349.599L221.935 348.976L221.672 348.371L205.616 355.353ZM293.049 355.353L276.962 348.441L276.564 349.369L276.274 350.336L293.049 355.353ZM180.28 238.537L166.77 249.673L166.892 249.821L167.017 249.967L180.28 238.537ZM317.82 238.537L331.083 249.967L331.208 249.821L331.33 249.673L317.82 238.537ZM165.562 234.683L172.59 218.647L172.59 218.647L165.562 234.683ZM180.418 243.263L171.341 258.235L171.5 258.331L171.662 258.425L180.418 243.263ZM202.144 244.842L184.755 242.805L184.709 243.198L184.68 243.592L202.144 244.842ZM196.293 193.696L180.597 201.455L180.597 201.455L196.293 193.696ZM328.769 234.683L321.74 218.647L321.74 218.647L328.769 234.683ZM313.913 243.263L322.669 258.425L322.83 258.331L322.99 258.235L313.913 243.263ZM292.186 244.842L309.65 243.592L309.622 243.198L309.576 242.805L292.186 244.842ZM298.038 193.696L313.734 201.455L313.734 201.455L298.038 193.696ZM179.362 240.375L184.9 223.765L184.9 223.765L179.362 240.375ZM198.66 232.102L215.689 236.173L182.403 225.601L198.66 232.102ZM173.235 199.315L185.618 211.693L165.706 183.508L173.235 199.315ZM182.425 233.94L176.887 250.55L182.425 233.94ZM316.289 240.375L310.75 223.765L310.75 223.765L316.289 240.375ZM296.99 232.102L313.247 225.601L279.961 236.173L296.99 232.102ZM322.415 199.315L329.945 183.508L310.033 211.693L322.415 199.315ZM238.789 309.626L221.323 308.396L221.305 308.649L221.295 308.903L238.789 309.626ZM115.682 109.351L121.844 125.74L121.844 125.74L115.682 109.351ZM47.9418 140.515L54.4137 156.783L54.8613 156.605L55.2985 156.403L47.9418 140.515ZM75.3293 175.724L78.1522 158.445L77.6069 158.356L77.0572 158.301L75.3293 175.724ZM170.967 182.285L153.631 184.742L153.631 184.742L170.967 182.285ZM189.633 167.292L199.441 181.795L200.325 181.197L201.13 180.496L189.633 167.292ZM56.1918 153.266L56.6592 170.769L57.5855 170.744L58.5039 170.622L56.1918 153.266ZM108.272 128.842L103.173 112.092L102.824 112.198L102.48 112.319L108.272 128.842ZM402.941 151.535L392.747 165.77L392.747 165.77L402.941 151.535ZM460.31 199.175L449.091 212.617L449.461 212.926L449.847 213.214L460.31 199.175ZM424.745 226.094L427.587 208.818L427.042 208.728L426.492 208.673L424.745 226.094ZM330.669 207.671L346.778 214.53L346.778 214.53L330.669 207.671ZM316.518 188.356L301.995 198.135L302.591 199.02L303.291 199.827L316.518 188.356ZM445.487 214.761L438.76 230.926L439.616 231.282L440.504 231.545L445.487 214.761ZM401.5 177.685L411.373 163.225L411.071 163.019L410.761 162.826L401.5 177.685ZM193.452 154.271L178.291 145.514L178.27 145.55L178.249 145.587L193.452 154.271ZM204.48 177.866L215.118 163.959L214.187 163.247L213.169 162.665L204.48 177.866ZM292.395 177.866L282.078 163.72L281.404 164.211L280.78 164.765L292.395 177.866ZM298.828 154.271L283.722 163.124L283.904 163.434L284.099 163.737L298.828 154.271ZM218.6 377.317L202.015 371.705L201.621 372.868L201.394 374.074L218.6 377.317ZM219.229 390.795L205.632 401.825L219.229 390.795ZM283.479 372.728L275.697 388.412L275.697 388.412L283.479 372.728ZM277.065 379.954L271.159 396.437L271.159 396.437L277.065 379.954ZM253.282 382.277L262.671 397.056L262.671 397.056L253.282 382.277ZM313.225 233.94L307.687 217.331L313.225 233.94ZM254.509 407.943L244.235 393.765L254.509 407.943ZM236.644 377.059L227.836 392.191L236.644 377.059ZM235.397 377.053L244.049 392.274L235.397 377.053ZM246.034 382.341L246.428 364.837L246.034 382.341ZM245.424 382.17L236.616 397.302L245.424 382.17ZM280.059 389.131L296.744 394.437L280.059 389.131ZM279.603 389.758L269.33 375.581L279.603 389.758ZM246.335 408.073L253.688 392.182L246.335 408.073ZM278.808 190.042L263.034 182.443L278.808 190.042ZM279.105 189.649L290.72 202.75L279.105 189.649ZM219.865 189.634L230.503 175.728L219.865 189.634ZM220.232 190.085L204.459 197.684L220.232 190.085ZM201.533 140.366L189.151 127.988L201.533 140.366ZM201.335 140.625L216.496 149.382L201.335 140.625ZM214.156 127.739L226.539 140.118L214.156 127.739ZM229.624 119.188L221.196 103.841L229.624 119.188ZM259.517 119.107L253.6 135.585L259.517 119.107ZM283.435 128.004L268.329 136.857L283.435 128.004ZM282.778 127.46L288.696 110.981L282.778 127.46ZM306.146 167.836L316.464 181.981L306.146 167.836ZM306.461 166.149L291.732 175.615L306.461 166.149ZM267.005 214.541L282.778 222.14L267.005 214.541ZM232.015 214.541L216.241 222.14L232.015 214.541ZM186.714 166.066L201.917 174.751L186.714 166.066ZM187.169 167.766L178.328 182.879L187.169 167.766ZM389.202 191.102L403.903 181.593L389.202 191.102ZM389.771 191.577L396.497 175.412L389.771 191.577ZM382.799 182.728L378.816 165.679L382.799 182.728ZM384.133 183.267L398.834 173.757L384.133 183.267ZM338.644 159.058L340.113 176.505L338.644 159.058ZM338.327 159.127L332.415 142.647L338.327 159.127ZM368.045 156.833L377.306 141.974L368.045 156.833ZM367.278 156.648L368.747 174.095L367.278 156.648ZM450.469 211.144L438.087 223.522L450.469 211.144ZM450.29 210.995L440.417 225.455L450.29 210.995ZM452.989 216.988L448.006 233.772L452.989 216.988ZM454.229 214.905L441.847 227.283L454.229 214.905ZM368.847 185.364L355.437 196.622L368.847 185.364ZM369.993 185.719L373.976 202.769L369.993 185.719ZM355.607 172.67L351.782 155.585L355.607 172.67ZM356.409 172.76L363.927 156.948L356.409 172.76ZM346.118 176.227L329.599 182.031L346.118 176.227ZM347.025 174.592L343.199 157.506L347.025 174.592ZM349.053 184.978L366.423 187.178L349.053 184.978ZM348.992 184.407L332.473 190.21L348.992 184.407ZM348.243 191.371L330.874 189.171L348.243 191.371ZM346.118 192.098L333.736 204.477L346.118 192.098ZM324.089 168.294L311.707 155.915L324.089 168.294ZM324.089 170.062L311.707 182.441L324.089 170.062ZM330.217 162.164L317.834 149.786L330.217 162.164ZM330.679 161.871L324.767 145.391L330.679 161.871ZM451.754 230.429L447.365 213.479L451.754 230.429ZM451.237 230.452L448.396 247.729L451.237 230.452ZM475.336 223.048L458.328 227.204L475.336 223.048ZM474.435 224.555L478.824 241.505L474.435 224.555ZM471.189 207.283L481.652 193.244L471.189 207.283ZM471.657 207.989L488.665 203.833L471.657 207.989ZM302.467 167.486L287.943 177.265L302.467 167.486ZM302.62 165.904L315.002 178.282L302.62 165.904ZM356.735 219.274L354.988 236.695L356.735 219.274ZM356.442 219.209L362.348 202.726L356.442 219.209ZM358.529 132.764L361.641 149.994L358.529 132.764ZM359.222 132.836L352.526 149.013L359.222 132.836ZM331.116 137.715L334.228 154.945L331.116 137.715ZM330.454 138.061L342.836 150.44L330.454 138.061ZM116.68 144.986L104.941 131.996L116.68 144.986ZM116.007 145.298L118.319 162.653L116.007 145.298ZM125.032 138.555L133.292 123.118L125.032 138.555ZM123.603 138.73L135.342 151.72L123.603 138.73ZM173.806 127.123L167.87 143.595L173.806 127.123ZM174.094 127.272L184.071 112.884L174.094 127.272ZM145.983 117.362L140.884 100.612L145.983 117.362ZM146.771 117.381L152.707 100.91L146.771 117.381ZM52.315 148.483L61.0713 163.644L52.315 148.483ZM52.5266 148.385L58.3193 164.908L52.5266 148.385ZM47.7099 151.142L38.9536 135.98L47.7099 151.142ZM137.826 144.714L127.787 130.369L137.826 144.714ZM136.627 144.76L128.366 160.197L136.627 144.76ZM153.899 135.88L162.017 120.367L153.899 135.88ZM153.101 135.759L156.268 152.979L153.101 135.759ZM161.692 139.958L153.573 155.471L161.692 139.958ZM157.045 149.465L174.393 151.835L157.045 149.465ZM157.252 148.929L171.706 158.81L157.252 148.929ZM156.173 155.85L173.521 158.22L156.173 155.85ZM158.038 157.102L166.794 172.264L158.038 157.102ZM185.476 139.812L200.64 131.06L185.476 139.812ZM185.018 141.52L176.262 126.359L185.018 141.52ZM181.143 132.305L196.307 123.553L181.143 132.305ZM180.772 131.903L190.749 117.514L180.772 131.903ZM48.1195 172.918L56.747 157.683L48.1195 172.918ZM48.6123 173.075L46.8845 190.498L48.6123 173.075ZM27.2505 159.683L11.897 151.268L27.2505 159.683ZM27.731 161.373L36.3585 146.137L27.731 161.373ZM35.3354 145.53L41.8073 161.798L35.3354 145.53ZM34.701 146.091L50.0546 154.506L34.701 146.091ZM208.605 150.771L220.103 163.976L208.605 150.771ZM208.867 149.203L193.703 157.955L208.867 149.203ZM142.787 186.744L145.61 169.465L142.787 186.744ZM143.087 186.757L144.524 204.206L143.087 186.757ZM163.437 102.717L170.904 86.8802L163.437 102.717ZM162.75 102.607L165.029 119.967L162.75 102.607ZM188.636 114.597L196.102 98.7597L188.636 114.597ZM189.186 115.103L174.021 123.855L189.186 115.103ZM290.967 208.906L306.752 216.48L290.967 208.906ZM290.847 209.358L308.311 210.605L290.847 209.358ZM298.675 193.62L305.047 209.928L298.675 193.62ZM298.002 194.244L282.217 186.669L298.002 194.244ZM318.27 186.309L312.081 202.687L318.27 186.309ZM317.373 186.314L311 170.006L317.373 186.314ZM215.172 212.717L229.254 223.122L215.172 212.717ZM215.3 211.446L231.172 204.056L215.3 211.446ZM237.268 346.442L219.774 345.719L219.774 345.719L237.268 346.442ZM237.143 346.937L221.398 339.279L237.143 346.937ZM261.03 346.967L246.703 357.032L261.03 346.967ZM260.811 346.387L278.222 344.54L260.811 346.387ZM269.036 358.176L278.046 343.164L269.036 358.176ZM268.656 357.823L282.983 347.758L268.656 357.823ZM281.221 365.653L296.119 356.454L281.221 365.653ZM280.801 365.237L271.791 380.25L280.801 365.237ZM287.319 376.36L303.995 381.695L287.319 376.36ZM287.192 375.322L272.294 384.521L287.192 375.322ZM279.652 399.026L272.162 383.2L279.652 399.026ZM280.308 398.276L296.984 403.611L280.308 398.276ZM251.133 412.049L258.128 395.998L251.133 412.049ZM252.168 412.033L259.658 427.859L252.168 412.033ZM220.537 398.274L203.981 403.971L220.537 398.274ZM221.22 399.013L228.214 382.962L221.22 399.013ZM214.441 380.563L197.886 386.261L214.441 380.563ZM214.478 379.655L198.437 372.639L214.478 379.655ZM301.678 245.713L295.642 229.278L301.678 245.713ZM300.033 244.829L283.004 248.899L300.033 244.829ZM331.523 218.431L314.252 221.308L331.523 218.431ZM331.326 219.336L345.793 229.198L331.326 219.336ZM328.955 203.022L346.226 200.145L328.955 203.022ZM328.259 202.099L335.789 186.292L328.259 202.099ZM195.066 237.821L189.303 254.354L195.066 237.821ZM196.661 237.101L180.404 230.601L196.661 237.101ZM170.386 215.258L155.88 225.063L170.386 215.258ZM170.538 202.013L158.156 189.634L170.538 202.013ZM193.973 245.713L200.009 229.278L193.973 245.713ZM195.618 244.829L178.589 240.758L195.618 244.829ZM164.128 218.431L146.857 215.553L164.128 218.431ZM164.325 219.336L178.791 209.473L164.325 219.336ZM166.695 203.022L149.425 200.145L166.695 203.022ZM167.391 202.099L174.92 217.906L167.391 202.099ZM329.686 190.932L335.298 174.347L329.686 190.932ZM330.368 191.491L345.532 182.739L330.368 191.491ZM316.999 186.891L322.273 203.586L316.999 186.891ZM317.772 186.9L312.159 203.485L317.772 186.9ZM290.421 208.985L307.923 209.497L290.421 208.985ZM290.555 208.459L274.944 200.531L290.555 208.459ZM289.946 225.711L272.556 227.748L289.946 225.711ZM289.938 225.529L272.437 225.017L289.938 225.529ZM294.907 255.195L306.037 268.71L294.907 255.195ZM292.864 254.318L275.4 255.568L292.864 254.318ZM298.881 251.944L290.125 236.782L298.881 251.944ZM298.711 252.062L287.581 238.546L298.711 252.062ZM336.974 220.437L319.49 221.364L336.974 220.437ZM336.869 221.006L320.882 213.868L336.869 221.006ZM335.968 201.466L353.452 200.54L335.968 201.466ZM335.803 200.907L350.967 192.155L335.803 200.907ZM164.645 190.932L159.032 174.347L164.645 190.932ZM163.963 191.491L179.127 200.244L179.127 200.244L163.963 191.491ZM199.424 255.195L188.294 268.71L199.424 255.195ZM201.466 254.318L218.93 255.568L201.466 254.318ZM195.45 251.944L204.206 236.782L195.45 251.944ZM195.619 252.062L184.489 265.577L195.619 252.062ZM157.624 122.448L168.753 135.965L157.624 122.448ZM157.206 123.11L140.22 118.865L157.206 123.11ZM196.782 90.2085L185.653 76.6917L185.653 76.6917L196.782 90.2085ZM296.417 90.2085L307.546 76.6917L296.417 90.2085ZM335.992 123.115L318.981 127.26L335.992 123.115ZM335.572 122.445L324.443 135.962L335.572 122.445ZM346.353 176.012L331.005 184.437L346.353 176.012ZM321.506 131.115L330.385 116.025L321.506 131.115ZM321.968 131.591L337.316 123.166L321.968 131.591ZM285.024 109.833L284.631 127.337L285.024 109.833ZM285.63 110.006L276.751 125.096L285.63 110.006ZM203.194 108.325L191.613 95.1944L203.194 108.325ZM204.05 108.013L203.656 125.517L204.05 108.013ZM174.983 133.263L160.442 123.51L174.983 133.263ZM175.194 133.021L186.776 146.152L175.194 133.021ZM146.59 175.597L161.131 185.349L146.59 175.597ZM144.338 174.597L127.352 170.352L144.338 174.597ZM331.017 222.527L317.507 211.39L331.017 222.527ZM330.408 220.533L335.399 203.75L330.408 220.533ZM302.429 256.56L285.64 251.593L302.429 256.56ZM302.679 256.105L315.942 267.535L302.679 256.105ZM279.022 339.559L291.703 351.632L279.022 339.559ZM279.308 339.077L296.019 344.302L279.308 339.077ZM267.429 348.467L284.808 350.592L267.429 348.467ZM269.576 349.481L282.256 361.554L269.576 349.481ZM279.303 251.843L295.235 259.104L279.303 251.843ZM279.2 252.21L296.579 254.336L279.2 252.21ZM288.732 230.945L271.247 230.033L288.732 230.945ZM288.621 231.399L304.553 238.66L288.621 231.399ZM292.416 197.278L302.622 183.051L292.416 197.278ZM290.438 198.229L272.953 197.317L290.438 198.229ZM320.712 217.577L310.506 231.804L320.712 217.577ZM321.085 217.76L316.094 234.542L321.085 217.76ZM330.291 188.554L346.134 181.101L330.291 188.554ZM328.717 190.257L322.528 206.635L328.717 190.257ZM219.078 339.559L231.759 327.486L219.078 339.559ZM218.792 339.077L202.082 344.302L218.792 339.077ZM328.562 186.003L332.483 168.939L328.562 186.003ZM329.413 186.689L313.57 194.142L329.413 186.689ZM230.672 348.467L248.051 346.342L230.672 348.467ZM228.524 349.481L215.844 361.554L228.524 349.481ZM306.075 181.146L297.907 165.66L306.075 181.146ZM306.939 181.034L303.018 198.098L306.939 181.034ZM218.797 251.843L202.865 259.104L218.797 251.843ZM218.901 252.21L236.28 250.085L218.901 252.21ZM289.461 190.198L273.588 182.807L289.461 190.198ZM290.011 189.619L281.843 174.133L290.011 189.619ZM209.354 231.023L192.099 233.992L209.354 231.023ZM209.448 231.33L225.38 224.069L209.448 231.33ZM279.665 212.782L293.747 202.377L279.665 212.782ZM279.537 211.511L295.41 218.901L279.537 211.511ZM203.34 196.075L186.085 199.044L203.34 196.075ZM287.626 223.557L301.708 213.152L287.626 223.557ZM289.88 222.903L307.344 224.15L289.88 222.903ZM177.431 217.501L165.516 204.673L177.431 217.501ZM176.937 217.783L181.928 234.566L181.928 234.566L176.937 217.783ZM203.87 208.841L219.656 201.266L203.87 208.841ZM203.99 209.293L186.526 210.54L186.526 210.54L203.99 209.293ZM320.843 275.796L303.743 272.035L320.843 275.796ZM320.976 275.45L305.727 266.846L320.976 275.45ZM196.162 193.555L202.535 177.247L196.162 193.555ZM196.835 194.179L181.049 201.754L196.835 194.179ZM173.174 275.51L188.22 266.557L173.174 275.51ZM173.276 275.726L156.802 281.655L173.276 275.726ZM176.567 186.244L182.756 202.622L176.567 186.244ZM177.464 186.249L183.837 169.941L177.464 186.249ZM296.725 89.9061L285.528 103.366L296.725 89.9061ZM177.331 186.891L182.605 170.195L177.331 186.891ZM176.559 186.9L170.947 170.315L176.559 186.9ZM205.376 190.133L189.504 197.523L205.376 190.133ZM204.826 189.555L212.994 174.068L204.826 189.555ZM325.112 202.013L337.495 189.634L325.112 202.013ZM314.098 306.364L298.011 299.452L314.098 306.364ZM314.17 306.139L297.07 302.378L314.17 306.139ZM203.909 208.985L221.41 208.473L203.909 208.985ZM203.776 208.459L188.165 216.386L203.776 208.459ZM207.211 223.492L221.292 233.897L207.211 223.492ZM204.957 222.838L222.422 221.591L204.957 222.838ZM223.447 374.735L239.974 368.955L223.447 374.735ZM222.576 373.936L218.239 390.899L222.576 373.936ZM279.428 399.386L286.643 415.339L279.428 399.386ZM280.11 398.605L263.336 393.587L280.11 398.605ZM204.385 225.711L221.775 227.748L221.775 227.748L204.385 225.711ZM204.393 225.529L221.894 225.017L204.393 225.529ZM221.021 365.191L211.306 350.624L221.021 365.191ZM220.569 365.73L236.61 372.746L220.569 365.73ZM219.597 374.368L203.012 368.756L203.012 368.756L219.597 374.368ZM221.092 373.557L216.755 390.52L221.092 373.557ZM251.103 411.761L257.84 395.6L251.103 411.761ZM252.1 411.746L244.885 395.793L252.1 411.746ZM167.084 222.527L153.573 233.664L167.084 222.527ZM167.692 220.533L162.701 203.75L167.692 220.533ZM242.11 265.804L228.658 254.597L242.11 265.804ZM241.824 266.517L224.358 265.287L241.824 266.517ZM157.712 249.4L174.818 245.668L157.712 249.4ZM157.859 249.773L142.813 258.726L157.859 249.773ZM164.546 188.49L148.703 181.037L164.546 188.49ZM166.12 190.192L172.309 206.57L166.12 190.192ZM300.584 237.821L294.822 221.288L300.584 237.821ZM298.989 237.101L282.732 243.602L298.989 237.101ZM335.661 122.608L352.644 118.349L335.661 122.608ZM335.248 121.951L346.445 108.49L335.248 121.951ZM247.413 261.468L235.698 274.48L247.413 261.468ZM245.615 261.597L259.067 272.804L245.615 261.597ZM266.873 376.959L273.566 360.781L266.873 376.959ZM265.718 376.997L273.704 392.578L265.718 376.997ZM142.98 181.259L125.995 177.009L142.98 181.259ZM142.971 181.829L160.078 178.097L142.971 181.829ZM231.892 357.735L216.146 350.077L231.892 357.735ZM231.461 358.228L241.175 372.795L231.461 358.228ZM227.408 381.594L236.061 396.815L227.408 381.594ZM225.61 380.919L209.083 386.7L225.61 380.919ZM220.673 398.623L204.137 404.377L220.673 398.623ZM221.372 399.366L214.635 415.527L221.372 399.366ZM166.275 185.938L162.354 168.874L166.275 185.938ZM165.424 186.625L149.581 179.171L165.424 186.625ZM350.835 183.675L333.779 179.723L350.835 183.675ZM350.83 183.089L367.813 178.829L350.83 183.089ZM195.671 256.56L212.46 251.593L195.671 256.56ZM195.421 256.105L182.158 267.535L195.421 256.105ZM157.357 220.437L139.873 219.511L157.357 220.437ZM157.461 221.006L141.474 228.144L157.461 221.006ZM252.625 266.577L270.025 264.632L252.625 266.577ZM252.22 265.796L240.505 278.808L252.22 265.796ZM158.077 121.949L147.015 108.378L158.077 121.949ZM157.654 122.615L174.639 126.865L157.654 122.615ZM188.762 181.082L196.93 165.595L188.762 181.082ZM187.898 180.969L183.977 163.905L187.898 180.969ZM325.264 215.258L310.758 205.454L325.264 215.258ZM335.602 249.423L352.659 253.375L335.602 249.423ZM335.473 249.755L320.224 241.152L335.473 249.755ZM158.362 201.466L175.846 202.393L158.362 201.466ZM158.528 200.907L173.692 209.66L158.528 200.907ZM281.071 371.526L288.913 355.871L281.071 371.526ZM279.195 372.77L261.698 373.411L279.195 372.77ZM197.396 89.8982L186.334 76.3272L197.396 89.8982ZM186.334 76.3272L147.015 108.378L169.14 135.52L208.459 103.469L186.334 76.3272ZM140.669 118.365L125.995 177.009L159.965 185.509L174.639 126.865L140.669 118.365ZM125.865 185.56L140.605 253.132L174.818 245.668L160.078 178.097L125.865 185.56ZM168.207 313.238L189.56 362.336L221.672 348.371L200.319 299.272L168.207 313.238ZM189.08 361.108L204.137 404.377L237.209 392.868L222.152 349.599L189.08 361.108ZM214.635 415.527L244.366 427.921L257.84 395.6L228.11 383.205L214.635 415.527ZM259.315 427.699L286.643 415.339L272.212 383.433L244.885 395.793L259.315 427.699ZM296.885 403.623L309.823 360.371L276.274 350.336L263.336 393.587L296.885 403.623ZM309.135 362.265L330.184 313.276L298.011 299.452L276.962 348.441L309.135 362.265ZM352.659 253.375L367.892 187.627L333.779 179.723L318.546 245.471L352.659 253.375ZM367.813 178.829L352.644 118.349L318.678 126.867L333.847 187.348L367.813 178.829ZM346.445 108.49L307.922 76.4457L285.528 103.366L324.051 135.411L346.445 108.49ZM295.925 72.1083H198.186V107.126H295.925V72.1083ZM142.813 258.726L158.128 284.463L188.22 266.557L172.905 240.82L142.813 258.726ZM156.802 281.655L167.789 312.184L200.737 300.326L189.75 269.797L156.802 281.655ZM331.27 309.9L337.943 279.557L303.743 272.035L297.07 302.378L331.27 309.9ZM336.224 284.054L350.722 258.359L320.224 241.152L305.727 266.846L336.224 284.054ZM189.347 230.329L213.172 208.199L189.341 182.543L165.516 204.673L189.347 230.329ZM186.085 199.044L192.099 233.992L226.609 228.054L220.595 193.106L186.085 199.044ZM193.516 238.591L202.865 259.104L234.729 244.583L225.38 224.069L193.516 238.591ZM201.522 254.336L213.292 350.592L248.051 346.342L236.28 250.085L201.522 254.336ZM241.205 337.408L231.759 327.486L206.398 351.632L215.844 361.554L241.205 337.408ZM235.503 333.851C233.927 328.812 231.61 321.253 229.699 314.696C228.738 311.401 227.914 308.475 227.343 306.288C227.053 305.179 226.867 304.407 226.765 303.94C226.519 302.804 226.89 304.059 226.89 305.949H191.873C191.873 308.446 192.438 310.873 192.544 311.362C192.795 312.52 193.12 313.827 193.463 315.141C194.157 317.798 195.087 321.088 196.081 324.495C198.077 331.342 200.465 339.133 202.082 344.302L235.503 333.851ZM226.89 305.949C226.89 303.997 226.549 302.274 226.496 301.989C226.363 301.267 226.201 300.522 226.045 299.845C225.729 298.467 225.303 296.783 224.824 294.957C223.858 291.273 222.542 286.515 221.108 281.436C218.231 271.252 214.782 259.44 212.46 251.593L178.882 261.527C181.179 269.293 184.585 280.957 187.409 290.954C188.824 295.966 190.07 300.475 190.953 303.841C191.398 305.539 191.719 306.825 191.918 307.689C191.965 307.896 192.001 308.056 192.026 308.175C192.052 308.299 192.061 308.348 192.06 308.338C192.058 308.331 192.052 308.295 192.042 308.235C192.032 308.177 192.016 308.072 191.997 307.93C191.979 307.789 191.873 307.01 191.873 305.949H226.89ZM208.684 244.675L193.543 227.106L167.017 249.967L182.158 267.535L208.684 244.675ZM193.791 227.4L180.594 211.39L153.573 233.664L166.77 249.673L193.791 227.4ZM172.683 237.315L181.928 234.566L171.946 201.001L162.701 203.75L172.683 237.315ZM330.918 203.351L302.622 183.051L282.21 211.504L310.506 231.804L330.918 203.351ZM272.953 197.317L271.247 230.033L306.216 231.857L307.923 199.141L272.953 197.317ZM272.689 224.138L263.371 244.583L295.235 259.104L304.553 238.66L272.689 224.138ZM261.821 250.085L250.05 346.342L284.808 350.592L296.579 254.336L261.821 250.085ZM282.256 361.554L291.703 351.632L266.342 327.486L256.895 337.408L282.256 361.554ZM296.019 344.302C297.635 339.133 300.024 331.342 302.02 324.495C303.013 321.088 303.943 317.798 304.638 315.141C304.981 313.827 305.305 312.52 305.557 311.362C305.663 310.873 306.228 308.446 306.228 305.949H271.211C271.211 304.059 271.581 302.804 271.335 303.94C271.234 304.407 271.047 305.179 270.758 306.288C270.186 308.475 269.362 311.401 268.402 314.696C266.49 321.253 264.173 328.812 262.598 333.851L296.019 344.302ZM306.228 305.949C306.228 307.01 306.122 307.789 306.103 307.93C306.085 308.072 306.068 308.177 306.059 308.235C306.049 308.295 306.042 308.331 306.041 308.338C306.039 308.348 306.048 308.299 306.074 308.175C306.1 308.056 306.135 307.896 306.183 307.689C306.381 306.825 306.702 305.539 307.148 303.841C308.03 300.475 309.276 295.966 310.692 290.954C313.516 280.957 316.921 269.293 319.219 261.527L285.64 251.593C283.319 259.44 279.869 271.252 276.993 281.436C275.558 286.515 274.242 291.273 273.276 294.957C272.797 296.783 272.372 298.467 272.055 299.845C271.9 300.522 271.737 301.267 271.604 301.989C271.552 302.274 271.211 303.997 271.211 305.949H306.228ZM315.942 267.535L331.083 249.967L304.557 227.106L289.416 244.675L315.942 267.535ZM331.33 249.673L344.527 233.664L317.507 211.39L304.31 227.4L331.33 249.673ZM335.399 203.75L326.076 200.978L316.094 234.542L325.418 237.315L335.399 203.75ZM161.131 185.349L189.524 143.015L160.442 123.51L132.049 165.844L161.131 185.349ZM186.776 146.152L214.776 121.456L191.613 95.1944L163.613 119.89L186.776 146.152ZM203.656 125.517L284.631 127.337L285.418 92.3291L204.443 90.5088L203.656 125.517ZM276.751 125.096L312.627 146.206L330.385 116.025L294.51 94.9156L276.751 125.096ZM306.62 140.017L331.005 184.437L361.701 167.586L337.316 123.166L306.62 140.017ZM365.675 170.968L353.003 118.969L318.981 127.26L331.654 179.259L365.675 170.968ZM346.701 108.929L307.546 76.6917L285.289 103.725L324.443 135.962L346.701 108.929ZM295.622 72.4147H197.577V107.432H295.622V72.4147ZM185.653 76.6917L146.496 108.931L168.753 135.965L207.911 103.725L185.653 76.6917ZM140.22 118.865L127.352 170.352L161.325 178.842L174.192 127.356L140.22 118.865ZM140.878 200.54L139.873 219.511L174.841 221.364L175.846 202.393L140.878 200.54ZM141.474 228.144C142.578 230.616 144.33 234.302 146.184 237.645C147.09 239.28 148.224 241.203 149.477 242.96C150.097 243.829 150.967 244.971 152.058 246.113C152.883 246.978 155.089 249.209 158.534 250.719L172.59 218.647C174.238 219.369 175.392 220.201 176.015 220.693C176.679 221.217 177.139 221.674 177.387 221.935C177.862 222.432 178.065 222.737 177.985 222.625C177.837 222.417 177.435 221.794 176.809 220.665C175.597 218.48 174.295 215.763 173.449 213.868L141.474 228.144ZM158.534 250.719C158.145 250.549 158.346 250.621 159.629 251.337C160.653 251.909 161.95 252.655 163.377 253.489C166.222 255.152 169.344 257.024 171.341 258.235L189.495 228.291C187.387 227.013 184.098 225.04 181.048 223.258C178.541 221.792 174.775 219.604 172.59 218.647L158.534 250.719ZM171.662 258.425L186.693 267.106L204.206 236.782L189.174 228.101L171.662 258.425ZM184.489 265.577L188.294 268.71L210.554 241.679L206.749 238.546L184.489 265.577ZM218.93 255.568L219.608 246.091L184.68 243.592L184.002 253.069L218.93 255.568ZM219.534 246.879L221.775 227.748L186.995 223.674L184.755 242.805L219.534 246.879ZM221.894 225.017L221.41 208.473L186.408 209.497L186.892 226.041L221.894 225.017ZM219.387 200.531C218.181 198.156 216.408 194.663 214.889 191.668C214.129 190.17 213.434 188.799 212.906 187.756C212.642 187.234 212.422 186.799 212.257 186.472C212.175 186.308 212.108 186.177 212.058 186.078C212.002 185.966 211.985 185.93 211.989 185.938L180.597 201.455C181.037 202.346 185.797 211.724 188.165 216.386L219.387 200.531ZM211.989 185.938C210.483 182.893 208.472 181.072 207.804 180.483C206.895 179.681 206.08 179.127 205.611 178.823C204.663 178.208 203.81 177.775 203.353 177.551C202.364 177.064 201.341 176.64 200.552 176.326C198.886 175.662 196.833 174.923 194.813 174.221C190.707 172.795 185.892 171.233 182.605 170.195L172.057 203.586C175.174 204.57 179.647 206.023 183.326 207.3C185.198 207.951 186.66 208.485 187.585 208.854C188.092 209.056 188.133 209.088 187.907 208.977C187.833 208.941 187.287 208.676 186.562 208.206C186.206 207.974 185.482 207.486 184.642 206.746C184.209 206.364 183.603 205.791 182.95 205.026C182.323 204.291 181.409 203.098 180.597 201.455L211.989 185.938ZM170.947 170.315L159.032 174.347L170.257 207.517L182.172 203.485L170.947 170.315ZM148.799 182.739L143.364 192.155L173.692 209.66L179.127 200.244L148.799 182.739ZM318.484 202.393L319.49 221.364L354.458 219.511L353.452 200.54L318.484 202.393ZM320.882 213.868C320.036 215.763 318.734 218.48 317.522 220.665C316.896 221.794 316.494 222.417 316.346 222.625C316.266 222.737 316.469 222.432 316.943 221.935C317.192 221.674 317.651 221.217 318.315 220.693C318.938 220.201 320.092 219.369 321.74 218.647L335.797 250.719C339.242 249.209 341.448 246.978 342.273 246.113C343.364 244.971 344.234 243.829 344.854 242.96C346.107 241.203 347.24 239.28 348.147 237.645C350 234.302 351.753 230.616 352.857 228.144L320.882 213.868ZM321.74 218.647C319.556 219.604 315.79 221.792 313.282 223.258C310.233 225.04 306.944 227.013 304.836 228.291L322.99 258.235C324.987 257.024 328.109 255.152 330.953 253.489C332.381 252.655 333.678 251.909 334.702 251.337C335.985 250.621 336.186 250.549 335.797 250.719L321.74 218.647ZM305.156 228.101L290.125 236.782L307.637 267.106L322.669 258.425L305.156 228.101ZM287.581 238.546L283.777 241.679L306.037 268.71L309.841 265.577L287.581 238.546ZM310.328 253.069L309.65 243.592L274.722 246.091L275.4 255.568L310.328 253.069ZM309.576 242.805L307.335 223.674L272.556 227.748L274.797 246.879L309.576 242.805ZM307.439 226.041L307.923 209.497L272.92 208.473L272.437 225.017L307.439 226.041ZM306.166 216.386C308.533 211.724 313.293 202.346 313.734 201.455L282.342 185.938C282.346 185.93 282.328 185.966 282.272 186.078C282.222 186.177 282.156 186.308 282.073 186.472C281.909 186.799 281.688 187.234 281.424 187.756C280.896 188.799 280.202 190.17 279.442 191.668C277.923 194.663 276.15 198.156 274.944 200.531L306.166 216.386ZM313.734 201.455C312.922 203.098 312.008 204.291 311.38 205.026C310.728 205.791 310.122 206.364 309.689 206.746C308.849 207.486 308.125 207.974 307.768 208.206C307.043 208.676 306.498 208.941 306.423 208.977C306.198 209.088 306.239 209.056 306.746 208.854C307.67 208.485 309.133 207.951 311.005 207.3C314.683 206.023 319.157 204.57 322.273 203.586L311.725 170.195C308.438 171.233 303.623 172.795 299.518 174.221C297.498 174.923 295.445 175.662 293.778 176.326C292.99 176.64 291.967 177.064 290.977 177.551C290.52 177.775 289.668 178.208 288.719 178.823C288.251 179.127 287.436 179.681 286.527 180.483C285.859 181.072 283.847 182.893 282.342 185.938L313.734 201.455ZM312.159 203.485L324.073 207.517L335.298 174.347L323.384 170.315L312.159 203.485ZM315.204 200.244L320.639 209.66L350.967 192.155L345.532 182.739L315.204 200.244ZM149.425 200.145L146.857 215.553L181.398 221.308L183.966 205.9L149.425 200.145ZM149.858 229.198C152.331 232.825 155.968 238.11 159.101 242.549C160.655 244.752 162.159 246.851 163.36 248.462C163.941 249.241 164.58 250.079 165.177 250.806C165.452 251.141 165.917 251.697 166.479 252.285C166.745 252.562 167.269 253.097 167.971 253.69C168.152 253.843 170.373 255.834 173.823 256.985L184.9 223.765C186.927 224.441 188.356 225.338 188.972 225.745C189.704 226.229 190.251 226.671 190.567 226.938C191.19 227.465 191.62 227.908 191.776 228.071C192.118 228.429 192.302 228.661 192.241 228.586C192.166 228.494 191.911 228.172 191.431 227.527C190.509 226.291 189.215 224.491 187.711 222.359C184.728 218.132 181.207 213.017 178.791 209.473L149.858 229.198ZM173.823 256.985C173.704 256.945 174.058 257.07 175.205 257.486C176.177 257.84 177.474 258.313 178.924 258.844C181.822 259.904 185.298 261.179 187.936 262.148L200.009 229.278C195.001 227.439 185.908 224.101 184.9 223.765L173.823 256.985ZM212.646 248.899L215.689 236.173L181.631 228.031L178.589 240.758L212.646 248.899ZM165.706 183.508L159.861 186.292L174.92 217.906L180.765 215.122L165.706 183.508ZM152.663 202.897V214.557H187.68V202.897H152.663ZM155.88 225.063C158.021 228.23 160.622 232.465 163.034 236.367C164.171 238.207 165.319 240.058 166.244 241.477C166.687 242.157 167.248 242.998 167.821 243.773C168.084 244.128 168.584 244.79 169.234 245.509C169.55 245.859 170.15 246.5 170.974 247.203C171.457 247.616 173.576 249.446 176.887 250.55L187.963 217.331C189.808 217.946 191.157 218.741 191.903 219.224C192.708 219.745 193.318 220.236 193.706 220.568C194.463 221.213 194.985 221.776 195.211 222.027C195.684 222.55 195.965 222.937 195.97 222.944C196.029 223.024 195.923 222.882 195.577 222.351C194.925 221.351 194.005 219.873 192.821 217.957C190.59 214.348 187.534 209.362 184.892 205.454L155.88 225.063ZM176.887 250.55C177.506 250.756 178.632 251.076 179.132 251.22C179.956 251.458 180.999 251.759 182.164 252.103C184.552 252.809 187.215 253.626 189.303 254.354L200.829 221.288C197.919 220.274 194.601 219.264 192.088 218.522C190.804 218.142 189.666 217.814 188.837 217.575C187.684 217.242 187.684 217.238 187.963 217.331L176.887 250.55ZM212.918 243.602L214.917 238.602L182.403 225.601L180.404 230.601L212.918 243.602ZM160.853 186.936L158.156 189.634L182.92 214.391L185.618 211.693L160.853 186.936ZM311.685 205.9L314.252 221.308L348.793 215.553L346.226 200.145L311.685 205.9ZM316.859 209.473C314.443 213.017 310.922 218.132 307.939 222.359C306.435 224.491 305.142 226.291 304.22 227.527C303.739 228.172 303.485 228.494 303.409 228.586C303.348 228.661 303.532 228.429 303.874 228.071C304.03 227.908 304.46 227.465 305.084 226.938C305.4 226.671 305.946 226.229 306.679 225.745C307.295 225.338 308.723 224.441 310.75 223.765L321.827 256.985C325.278 255.834 327.498 253.843 327.679 253.69C328.381 253.097 328.905 252.562 329.171 252.285C329.733 251.697 330.199 251.141 330.473 250.806C331.071 250.079 331.709 249.241 332.29 248.462C333.492 246.851 334.996 244.752 336.55 242.549C339.683 238.11 343.32 232.825 345.793 229.198L316.859 209.473ZM310.75 223.765C309.743 224.101 300.649 227.439 295.642 229.278L307.714 262.148C310.352 261.179 313.828 259.904 316.726 258.844C318.176 258.313 319.473 257.84 320.445 257.486C321.592 257.07 321.946 256.945 321.827 256.985L310.75 223.765ZM317.062 240.758L314.019 228.031L279.961 236.173L283.004 248.899L317.062 240.758ZM314.886 215.122L320.73 217.906L335.789 186.292L329.945 183.508L314.886 215.122ZM197.886 386.261L203.981 403.971L237.092 392.576L230.997 374.865L197.886 386.261ZM214.225 415.064L244.139 428.1L258.128 395.998L228.214 382.962L214.225 415.064ZM259.658 427.859L287.141 414.852L272.162 383.2L244.678 396.207L259.658 427.859ZM296.984 403.611L303.995 381.695L270.643 371.026L263.632 392.942L296.984 403.611ZM302.089 366.124L296.119 356.454L266.324 374.851L272.294 384.521L302.089 366.124ZM289.811 350.225L278.046 343.164L260.026 373.189L271.791 380.25L289.811 350.225ZM282.983 347.758L275.357 336.903L246.703 357.032L254.329 367.887L282.983 347.758ZM278.222 344.54C277.605 338.733 276.698 330.06 275.946 322.608C275.569 318.877 275.235 315.487 274.997 312.926C274.7 309.745 274.677 309.063 274.677 309.626H239.659C239.659 311.16 239.937 314.103 240.13 316.176C240.382 318.87 240.726 322.364 241.106 326.125C241.866 333.656 242.78 342.392 243.4 348.234L278.222 344.54ZM274.677 309.626C274.677 308.005 274.336 304.668 274.097 302.283C273.786 299.177 273.358 295.106 272.886 290.699C271.94 281.873 270.801 271.568 270.025 264.632L235.225 268.523C235.997 275.429 237.13 285.678 238.068 294.431C238.538 298.813 238.956 302.788 239.254 305.773C239.626 309.478 239.659 310.276 239.659 309.626H274.677ZM263.935 252.784L259.127 248.456L235.698 274.48L240.505 278.808L263.935 252.784ZM232.163 250.39L228.658 254.597L255.562 277.011L259.067 272.804L232.163 250.39ZM224.358 265.287L221.323 308.396L256.254 310.855L259.289 267.746L224.358 265.287ZM221.295 308.903L219.774 345.719L254.761 347.164L256.282 310.348L221.295 308.903ZM221.398 339.279L216.146 350.077L247.637 365.392L252.888 354.595L221.398 339.279ZM221.747 343.662L211.306 350.624L230.735 379.757L241.175 372.795L221.747 343.662ZM204.527 358.714L198.437 372.639L230.52 386.671L236.61 372.746L204.527 358.714ZM221.292 233.897L229.254 223.122L201.091 202.312L193.129 213.087L221.292 233.897ZM231.172 204.056L221.249 182.743L189.504 197.523L199.428 218.837L231.172 204.056ZM212.994 174.068L196.93 165.595L180.593 196.568L196.658 205.041L212.994 174.068ZM183.977 163.905L162.354 168.874L170.197 203.002L191.819 198.033L183.977 163.905ZM149.581 179.171L148.703 181.037L180.389 195.943L181.267 194.078L149.581 179.171ZM172.309 206.57L182.756 202.622L170.378 169.866L159.931 173.814L172.309 206.57ZM171.092 202.557L189.79 209.863L202.535 177.247L183.837 169.941L171.092 202.557ZM181.049 201.754L188.085 216.416L219.656 201.266L212.62 186.604L181.049 201.754ZM186.526 210.54L187.493 224.085L222.422 221.591L221.454 208.046L186.526 210.54ZM301.708 213.152L293.747 202.377L265.583 223.187L273.545 233.962L301.708 213.152ZM295.41 218.901L305.333 197.588L273.588 182.807L263.665 204.121L295.41 218.901ZM298.179 205.106L314.244 196.633L297.907 165.66L281.843 174.133L298.179 205.106ZM303.018 198.098L324.64 203.067L332.483 168.939L310.86 163.97L303.018 198.098ZM313.57 194.142L314.448 196.008L346.134 181.101L345.256 179.236L313.57 194.142ZM334.906 173.878L324.459 169.931L312.081 202.687L322.528 206.635L334.906 173.878ZM311 170.006L292.302 177.312L305.047 209.928L323.745 202.622L311 170.006ZM282.217 186.669L275.181 201.331L306.752 216.48L313.788 201.818L282.217 186.669ZM273.383 208.111L272.415 221.655L307.344 224.15L308.311 210.605L273.383 208.111ZM196.102 98.7597L170.904 86.8802L155.971 118.554L181.17 130.434L196.102 98.7597ZM160.47 85.2478C152.865 86.2465 141.505 87.7662 131.796 89.1261C126.951 89.8047 122.455 90.4521 119.025 90.979C117.322 91.2406 115.79 91.4865 114.573 91.7009C113.975 91.8063 113.341 91.9238 112.75 92.0479C112.589 92.0817 111.079 92.3763 109.521 92.9621L121.844 125.74C120.516 126.239 119.457 126.421 119.947 126.318C120.006 126.305 120.221 126.262 120.652 126.187C121.492 126.039 122.729 125.838 124.342 125.59C127.541 125.099 131.856 124.477 136.653 123.805C146.228 122.464 157.481 120.958 165.029 119.967L160.47 85.2478ZM109.521 92.9621C107.805 93.6073 95.2933 99.3643 81.9644 105.507C67.9745 111.955 51.4936 119.576 40.5851 124.627L55.2985 156.403C66.1961 151.357 82.6566 143.745 96.6209 137.31C103.605 134.091 109.952 131.172 114.664 129.017C119.93 126.608 122.13 125.632 121.844 125.74L109.521 92.9621ZM72.5065 193.004L139.964 204.024L145.61 169.465L78.1522 158.445L72.5065 193.004ZM144.524 204.206C149.442 203.801 156.824 203.083 163.079 202.216C166.119 201.796 169.382 201.275 172.068 200.641C173.263 200.359 175.245 199.853 177.229 198.988C178.097 198.609 180.186 197.652 182.297 195.814C184.101 194.243 189.562 188.715 188.302 179.828L153.631 184.742C152.402 176.07 157.747 170.759 159.299 169.407C161.159 167.787 162.864 167.05 163.228 166.891C164.202 166.466 164.694 166.402 164.029 166.559C162.994 166.803 161.051 167.146 158.277 167.53C152.904 168.274 146.224 168.93 141.649 169.307L144.524 204.206ZM188.302 179.828C188.691 182.571 188.34 184.842 187.976 186.311C187.608 187.798 187.108 188.938 186.754 189.653C186.074 191.026 185.379 191.919 185.154 192.202C184.667 192.816 184.409 193.01 184.789 192.658C185.433 192.061 186.673 191.031 188.494 189.634C192.028 186.923 196.446 183.82 199.441 181.795L179.825 152.788C176.495 155.04 171.458 158.568 167.178 161.852C165.092 163.452 162.837 165.26 160.992 166.969C160.128 167.769 158.877 168.983 157.724 170.436C157.166 171.139 156.22 172.407 155.379 174.103C154.751 175.37 152.874 179.396 153.631 184.742L188.302 179.828ZM201.13 180.496L220.103 163.976L197.108 137.567L178.135 154.087L201.13 180.496ZM41.4699 124.246L28.8635 129.261L41.8073 161.798L54.4137 156.783L41.4699 124.246ZM19.3475 137.675L11.897 151.268L42.6041 168.099L50.0546 154.506L19.3475 137.675ZM19.1034 176.608L39.492 188.154L56.747 157.683L36.3585 146.137L19.1034 176.608ZM46.8845 190.498L73.6014 193.147L77.0572 158.301L50.3402 155.652L46.8845 190.498ZM165.979 141.057L170.311 148.565L200.64 131.06L196.307 123.553L165.979 141.057ZM173.521 158.22L174.393 151.835L139.698 147.096L138.826 153.48L173.521 158.22ZM171.706 158.81L176.598 151.653L147.69 131.891L142.798 139.048L171.706 158.81ZM169.81 124.445L162.017 120.367L145.781 151.393L153.573 155.471L169.81 124.445ZM149.933 118.539C142.101 119.98 136.39 122.791 131.871 126.442C129.896 128.038 128.358 129.645 127.693 130.323C126.772 131.26 127.107 130.845 127.787 130.369L147.866 159.058C150.229 157.404 152.031 155.516 152.686 154.849C153.595 153.922 153.739 153.792 153.878 153.68C153.887 153.672 153.894 153.656 154.05 153.586C154.251 153.495 154.902 153.23 156.268 152.979L149.933 118.539ZM55.7243 135.764L47.9013 135.973L48.8362 170.978L56.6592 170.769L55.7243 135.764ZM56.4662 166.304L61.0713 163.644L43.5586 133.321L38.9536 135.98L56.4662 166.304ZM58.3193 164.908L114.065 145.364L102.48 112.319L46.734 131.863L58.3193 164.908ZM113.371 145.591L151.082 134.111L140.884 100.612L103.173 112.092L113.371 145.591ZM140.835 133.853L167.87 143.595L179.741 110.652L152.707 100.91L140.835 133.853ZM164.118 141.66L170.795 146.291L190.749 117.514L184.071 112.884L164.118 141.66ZM144.888 129.322L133.292 123.118L116.771 153.993L128.366 160.197L144.888 129.322ZM111.864 125.74L104.941 131.996L128.419 157.976L135.342 151.72L111.864 125.74ZM113.695 127.942L53.8797 135.911L58.5039 170.622L118.319 162.653L113.695 127.942ZM334.228 154.945L361.641 149.994L355.417 115.534L328.004 120.485L334.228 154.945ZM352.526 149.013C359.561 151.925 370.04 156.293 378.942 160.067C383.402 161.958 387.409 163.676 390.372 164.979C391.865 165.636 393.009 166.15 393.782 166.51C394.178 166.695 394.375 166.792 394.429 166.82C394.876 167.046 393.9 166.596 392.747 165.77L413.134 137.3C411.781 136.331 410.399 135.655 410.253 135.581C409.714 135.308 409.131 135.031 408.581 134.774C407.462 134.252 406.045 133.618 404.468 132.924C401.291 131.527 397.116 129.738 392.611 127.828C383.585 124.001 373.006 119.592 365.918 116.658L352.526 149.013ZM392.747 165.77C392.498 165.592 394.371 167.105 398.834 170.795C402.828 174.096 408.203 178.559 414.117 183.476C425.94 193.308 439.87 204.922 449.091 212.617L471.528 185.733C462.298 178.03 448.351 166.401 436.506 156.552C425.22 147.167 414.625 138.367 413.134 137.3L392.747 165.77ZM426.492 208.673L358.482 201.853L354.988 236.695L422.998 243.516L426.492 208.673ZM362.348 202.726C358.027 201.178 351.744 198.814 346.747 196.705C344.167 195.615 342.379 194.781 341.441 194.277C340.84 193.954 341.298 194.143 342.129 194.805C342.439 195.052 343.895 196.206 345.272 198.252C346.421 199.959 350.21 206.471 346.778 214.53L314.56 200.812C311.043 209.071 314.889 215.823 316.223 217.806C317.786 220.128 319.557 221.593 320.297 222.184C321.989 223.533 323.772 224.535 324.854 225.117C327.284 226.424 330.301 227.772 333.128 228.965C338.946 231.421 345.89 234.026 350.536 235.691L362.348 202.726ZM346.778 214.53C348.894 209.562 348.122 205.187 347.843 203.802C347.47 201.945 346.884 200.476 346.527 199.653C345.79 197.951 344.895 196.455 344.267 195.458C342.928 193.331 341.217 191 339.616 188.914C336.332 184.634 332.38 179.922 329.746 176.885L303.291 199.827C305.659 202.558 309.125 206.699 311.836 210.233C313.234 212.053 314.165 213.37 314.633 214.114C314.909 214.552 314.71 214.297 314.398 213.579C314.254 213.247 313.815 212.205 313.513 210.703C313.356 209.921 313.168 208.69 313.197 207.159C313.226 205.646 313.475 203.361 314.56 200.812L346.778 214.53ZM331.042 178.577L316.99 157.708L287.943 177.265L301.995 198.135L331.042 178.577ZM449.847 213.214L460.727 221.322L481.652 193.244L470.772 185.136L449.847 213.214ZM454.648 212.145L458.328 227.204L492.344 218.892L488.665 203.833L454.648 212.145ZM470.046 207.606L447.365 213.479L456.143 247.378L478.824 241.505L470.046 207.606ZM454.079 213.176L427.587 208.818L421.903 243.371L448.396 247.729L454.079 213.176ZM317.834 149.786L311.707 155.915L336.471 180.672L342.599 174.543L317.834 149.786ZM365.613 193.57L366.423 187.178L331.683 182.779L330.874 189.171L365.613 193.57ZM365.511 178.603L362.637 170.423L329.599 182.031L332.473 190.21L365.511 178.603ZM350.85 191.678L359.433 189.756L351.782 155.585L343.199 157.506L350.85 191.678ZM348.892 188.573C350.147 189.169 350.708 189.594 350.879 189.734C351.011 189.843 351.013 189.86 351.02 189.87C351.126 190.015 351.231 190.178 351.87 191.309C352.33 192.122 353.582 194.412 355.437 196.622L382.257 174.107C382.79 174.742 383.005 175.23 382.359 174.086C381.892 173.259 380.822 171.309 379.328 169.257C375.908 164.56 371.119 160.367 363.927 156.948L348.892 188.573ZM440.504 231.545L448.006 233.772L457.971 200.203L450.469 197.976L440.504 231.545ZM466.611 202.526L462.851 198.765L438.087 223.522L441.847 227.283L466.611 202.526ZM460.162 196.535L411.373 163.225L391.628 192.144L440.417 225.455L460.162 196.535ZM410.761 162.826L377.306 141.974L358.784 171.691L392.239 192.543L410.761 162.826ZM365.81 139.201L337.175 141.612L340.113 176.505L368.747 174.095L365.81 139.201ZM332.415 142.647L324.767 145.391L336.591 178.351L344.239 175.608L332.415 142.647ZM373.976 202.769L386.781 199.778L378.816 165.679L366.01 168.67L373.976 202.769ZM369.432 192.776L374.5 200.612L403.903 181.593L398.834 173.757L369.432 192.776ZM383.045 207.743L438.76 230.926L452.213 198.596L396.497 175.412L383.045 207.743ZM178.249 145.587L171.512 157.382L201.917 174.751L208.655 162.956L178.249 145.587ZM178.328 182.879C183.961 186.173 194.082 192.089 195.791 193.066L213.169 162.665C211.659 161.802 201.776 156.026 196.009 152.653L178.328 182.879ZM233.141 232.757H265.878V197.74H233.141V232.757ZM302.713 192.011L316.464 181.981L295.829 153.69L282.078 163.72L302.713 192.011ZM321.191 156.683L313.557 144.805L284.099 163.737L291.732 175.615L321.191 156.683ZM313.934 145.419L298.541 119.152L268.329 136.857L283.722 163.124L313.934 145.419ZM288.696 110.981L265.434 102.628L253.6 135.585L276.861 143.938L288.696 110.981ZM259.094 101.525H230.226V136.542H259.094V101.525ZM221.196 103.841L206.011 112.18L222.867 142.874L238.052 134.534L221.196 103.841ZM201.774 115.36L189.151 127.988L213.915 152.745L226.539 140.118L201.774 115.36ZM186.173 131.868L178.291 145.514L208.614 163.028L216.496 149.382L186.173 131.868ZM193.842 191.772L209.228 203.541L230.503 175.728L215.118 163.959L193.842 191.772ZM204.459 197.684L216.241 222.14L247.788 206.942L236.006 182.486L204.459 197.684ZM282.778 222.14L294.581 197.642L263.034 182.443L251.231 206.942L282.778 222.14ZM290.72 202.75L304.011 190.966L280.78 164.765L267.489 176.548L290.72 202.75ZM201.394 374.074C200.925 376.563 200.42 380.366 200.392 384.267C200.378 386.213 200.476 388.695 200.955 391.286C201.366 393.507 202.401 397.843 205.632 401.825L232.826 379.765C234.032 381.251 234.643 382.605 234.933 383.362C235.235 384.148 235.35 384.713 235.388 384.918C235.43 385.146 235.429 385.222 235.422 385.109C235.414 385.005 235.406 384.811 235.408 384.52C235.412 383.921 235.459 383.179 235.544 382.39C235.628 381.606 235.732 380.949 235.806 380.559L201.394 374.074ZM205.632 401.825C207.209 403.77 209.089 405.265 209.771 405.809C210.832 406.657 212.029 407.538 213.22 408.383C215.626 410.09 218.56 412.038 221.544 413.94C227.241 417.571 234.369 421.828 238.983 423.963L253.688 392.182C251.393 391.121 245.985 387.993 240.364 384.41C237.69 382.706 235.269 381.091 233.482 379.823C232.576 379.18 231.966 378.721 231.618 378.443C230.89 377.862 231.757 378.446 232.826 379.765L205.632 401.825ZM296.744 394.437C297.68 391.495 298.987 387.094 299.921 383.164C300.364 381.298 300.868 378.945 301.116 376.719C301.226 375.728 301.402 373.812 301.181 371.623C301.072 370.554 300.788 368.512 299.811 366.183C298.857 363.906 296.492 359.639 291.261 357.043L275.697 388.412C270.622 385.894 268.38 381.78 267.519 379.725C266.635 377.618 266.414 375.866 266.341 375.149C266.255 374.296 266.267 373.664 266.277 373.388C266.288 373.077 266.309 372.885 266.313 372.85C266.319 372.798 266.3 372.97 266.211 373.427C266.128 373.857 266.01 374.405 265.852 375.069C265.197 377.824 264.172 381.315 263.373 383.824L296.744 394.437ZM291.261 357.043C290.637 356.734 289.76 356.296 288.913 355.871L273.23 387.18C274.084 387.608 275.01 388.071 275.697 388.412L291.261 357.043ZM261.698 373.411C261.75 374.819 261.626 375.04 261.78 374.313C261.782 374.305 262.268 371.464 264.732 368.479C266.191 366.71 268.75 364.417 272.628 363.239C276.63 362.022 280.308 362.518 282.97 363.472L271.159 396.437C274.307 397.565 278.42 398.077 282.811 396.743C287.078 395.446 289.979 392.9 291.74 390.767C294.805 387.052 295.727 383.034 296.034 381.585C296.8 377.975 296.77 374.256 296.692 372.128L261.698 373.411ZM282.97 363.472C281.707 363.019 280.387 362.652 279.501 362.412C278.583 362.164 277.426 361.866 276.632 361.658C275.716 361.417 274.969 361.214 274.347 361.028C273.673 360.827 273.47 360.741 273.566 360.781L260.18 393.138C262.864 394.248 266.021 395.076 267.736 395.526C268.861 395.822 269.587 396.006 270.352 396.213C271.148 396.429 271.309 396.491 271.159 396.437L282.97 363.472ZM257.732 361.416C256.54 362.027 254.417 362.915 251.839 363.938C250.766 364.364 249.408 364.895 248.485 365.267C247.997 365.464 247.427 365.697 246.891 365.931C246.623 366.048 246.263 366.21 245.869 366.401C245.584 366.54 244.796 366.926 243.894 367.499L262.671 397.056C261.881 397.558 261.257 397.856 261.181 397.893C260.997 397.983 260.892 398.027 260.922 398.015C260.98 397.989 261.171 397.908 261.57 397.747C262.422 397.404 263.348 397.045 264.759 396.485C267.149 395.536 270.794 394.07 273.704 392.578L257.732 361.416ZM243.894 367.499C245.826 366.271 247.566 365.729 248.537 365.482C249.555 365.223 250.345 365.136 250.721 365.103C251.127 365.067 251.391 365.065 251.436 365.065C251.492 365.065 251.461 365.066 251.295 365.06C250.881 365.045 250.452 365.017 249.506 364.965C248.677 364.918 247.608 364.863 246.428 364.837L245.64 399.845C246.231 399.858 246.839 399.888 247.558 399.928C248.161 399.961 249.151 400.022 249.992 400.053C250.791 400.083 252.228 400.123 253.803 399.984C254.626 399.911 255.811 399.764 257.171 399.418C258.484 399.084 260.51 398.429 262.671 397.056L243.894 367.499ZM254.233 367.038L245.453 361.928L227.836 392.191L236.616 397.302L254.233 367.038ZM226.745 361.831L218.756 366.372L236.061 396.815L244.049 392.274L226.745 361.831ZM203.012 368.756L202.015 371.705L235.185 382.928L236.183 379.979L203.012 368.756ZM242.137 375.139L239.974 368.955L206.92 380.515L209.083 386.7L242.137 375.139ZM226.913 356.973L225.429 356.594L216.755 390.52L218.239 390.899L226.913 356.973ZM246.841 425.689H253.775V390.672H246.841V425.689ZM264.783 422.12L289.877 403.936L269.33 375.581L244.235 393.765L264.783 422.12ZM307.97 202.897V214.557H342.987V202.897H307.97ZM310.758 205.454C308.117 209.362 305.06 214.348 302.829 217.957C301.645 219.873 300.725 221.351 300.073 222.351C299.727 222.882 299.621 223.024 299.68 222.944C299.685 222.937 299.967 222.55 300.439 222.027C300.666 221.776 301.187 221.213 301.944 220.568C302.333 220.236 302.943 219.745 303.747 219.224C304.493 218.741 305.842 217.946 307.687 217.331L318.764 250.55C322.074 249.446 324.193 247.616 324.676 247.203C325.5 246.5 326.1 245.859 326.416 245.509C327.066 244.79 327.567 244.128 327.829 243.773C328.403 242.998 328.963 242.157 329.406 241.477C330.332 240.058 331.479 238.207 332.617 236.367C335.029 232.464 337.629 228.23 339.77 225.063L310.758 205.454ZM307.687 217.331C307.966 217.238 307.966 217.242 306.814 217.575C305.984 217.814 304.846 218.142 303.562 218.522C301.049 219.264 297.731 220.274 294.822 221.288L306.347 254.354C308.436 253.626 311.098 252.809 313.486 252.103C314.652 251.759 315.694 251.458 316.518 251.22C317.018 251.076 318.144 250.756 318.764 250.55L307.687 217.331ZM315.247 230.601L313.247 225.601L280.733 238.602L282.732 243.602L315.247 230.601ZM310.033 211.693L312.73 214.391L337.495 189.634L334.798 186.936L310.033 211.693ZM224.031 140.451L204.35 106.35L174.021 123.855L193.703 157.955L224.031 140.451ZM176.262 126.359L149.281 141.94L166.794 172.264L193.774 156.682L176.262 126.359ZM315.002 178.282L342.836 150.44L318.071 125.683L290.237 153.525L315.002 178.282ZM311.707 182.441L333.736 204.477L358.501 179.719L336.471 157.683L311.707 182.441ZM253.775 425.689C257.729 425.689 261.581 424.44 264.783 422.12L244.235 393.765C247.01 391.755 250.349 390.672 253.775 390.672V425.689ZM245.453 361.928C239.679 358.566 232.553 358.53 226.745 361.831L244.049 392.274C239.016 395.135 232.84 395.104 227.836 392.191L245.453 361.928ZM246.428 364.837C249.112 364.897 251.806 365.626 254.233 367.038L236.616 397.302C239.413 398.93 242.527 399.775 245.64 399.845L246.428 364.837ZM263.373 383.824C264.448 380.447 266.57 377.58 269.33 375.581L289.877 403.936C293.067 401.624 295.508 398.322 296.744 394.437L263.373 383.824ZM238.983 423.963C241.646 425.195 244.351 425.689 246.841 425.689V390.672C248.976 390.672 251.347 391.1 253.688 392.182L238.983 423.963ZM294.581 197.642C293.646 199.583 292.333 201.32 290.72 202.75L267.489 176.548C265.628 178.199 264.114 180.202 263.034 182.443L294.581 197.642ZM209.228 203.541C207.2 201.99 205.567 199.984 204.459 197.684L236.006 182.486C234.727 179.832 232.842 177.517 230.503 175.728L209.228 203.541ZM189.151 127.988C187.993 129.146 186.992 130.45 186.173 131.868L216.496 149.382C215.786 150.611 214.919 151.741 213.915 152.745L189.151 127.988ZM206.011 112.18C204.455 113.035 203.029 114.105 201.774 115.36L226.539 140.118C225.451 141.205 224.215 142.133 222.867 142.874L206.011 112.18ZM230.226 101.525C227.069 101.525 223.963 102.321 221.196 103.841L238.052 134.534C235.654 135.851 232.962 136.542 230.226 136.542V101.525ZM265.434 102.628C263.4 101.898 261.255 101.525 259.094 101.525V136.542C257.221 136.542 255.363 136.218 253.6 135.585L265.434 102.628ZM298.541 119.152C296.318 115.359 292.833 112.467 288.696 110.981L276.861 143.938C273.275 142.65 270.255 140.144 268.329 136.857L298.541 119.152ZM316.464 181.981C324.487 176.129 326.56 165.038 321.191 156.683L291.732 175.615C287.079 168.374 288.875 158.762 295.829 153.69L316.464 181.981ZM265.878 232.757C273.083 232.757 279.651 228.631 282.778 222.14L251.231 206.942C253.942 201.316 259.634 197.74 265.878 197.74V232.757ZM233.141 197.74C239.385 197.74 245.078 201.316 247.788 206.942L216.241 222.14C219.368 228.631 225.936 232.757 233.141 232.757V197.74ZM171.512 157.382C166.413 166.306 169.444 177.682 178.328 182.879L196.009 152.653C203.709 157.157 206.335 167.017 201.917 174.751L171.512 157.382ZM374.5 200.612C376.562 203.798 379.541 206.285 383.045 207.743L396.497 175.412C399.534 176.676 402.116 178.831 403.903 181.593L374.5 200.612ZM386.781 199.778C380.1 201.338 373.159 198.537 369.432 192.776L398.834 173.757C394.535 167.11 386.525 163.878 378.816 165.679L386.781 199.778ZM337.175 141.612C335.55 141.748 333.95 142.096 332.415 142.647L344.239 175.608C342.909 176.085 341.522 176.387 340.113 176.505L337.175 141.612ZM377.306 141.974C373.873 139.834 369.84 138.861 365.81 139.201L368.747 174.095C365.254 174.389 361.759 173.546 358.784 171.691L377.306 141.974ZM462.851 198.765C462.026 197.94 461.126 197.193 460.162 196.535L440.417 225.455C439.582 224.885 438.802 224.238 438.087 223.522L462.851 198.765ZM448.006 233.772C466.66 239.31 480.368 216.287 466.611 202.526L441.847 227.283C429.924 215.357 441.804 195.404 457.971 200.203L448.006 233.772ZM355.437 196.622C360.483 202.634 367.966 204.173 373.976 202.769L366.01 168.67C371.178 167.463 377.766 168.758 382.257 174.107L355.437 196.622ZM359.433 189.756C355.892 190.549 352.184 190.138 348.892 188.573L363.927 156.948C360.139 155.147 355.858 154.672 351.782 155.585L359.433 189.756ZM362.637 170.423C365.864 179.608 360.35 189.551 350.85 191.678L343.199 157.506C332.238 159.961 325.876 171.433 329.599 182.031L362.637 170.423ZM366.423 187.178C366.789 184.288 366.477 181.352 365.511 178.603L332.473 190.21C331.636 187.828 331.366 185.284 331.683 182.779L366.423 187.178ZM330.874 189.171C332.572 175.76 348.943 170.159 358.501 179.719L333.736 204.477C344.764 215.508 363.654 209.045 365.613 193.57L330.874 189.171ZM311.707 155.915C304.383 163.241 304.383 175.115 311.707 182.441L336.471 157.683C342.818 164.032 342.818 174.323 336.471 180.672L311.707 155.915ZM342.599 174.543C340.902 176.24 338.85 177.541 336.591 178.351L324.767 145.391C322.16 146.326 319.792 147.827 317.834 149.786L342.599 174.543ZM447.365 213.479C449.557 212.911 451.844 212.808 454.079 213.176L448.396 247.729C450.974 248.153 453.613 248.033 456.143 247.378L447.365 213.479ZM458.328 227.204C456.217 218.566 461.438 209.835 470.046 207.606L478.824 241.505C488.757 238.932 494.78 228.858 492.344 218.892L458.328 227.204ZM460.727 221.322C457.695 219.062 455.546 215.817 454.648 212.145L488.665 203.833C487.629 199.595 485.149 195.851 481.652 193.244L460.727 221.322ZM316.99 157.708C321.334 164.159 320.5 172.782 315.002 178.282L290.237 153.525C283.893 159.871 282.932 169.822 287.943 177.265L316.99 157.708ZM358.482 201.853C359.742 201.979 361.047 202.26 362.348 202.726L350.536 235.691C352.028 236.226 353.525 236.549 354.988 236.695L358.482 201.853ZM361.641 149.994C358.696 150.526 355.518 150.252 352.526 149.013L365.918 116.658C362.483 115.236 358.834 114.917 355.417 115.534L361.641 149.994ZM328.004 120.485C324.241 121.164 320.775 122.978 318.071 125.683L342.836 150.44C340.493 152.784 337.489 154.355 334.228 154.945L328.004 120.485ZM104.941 131.996C107.382 129.79 110.434 128.377 113.695 127.942L118.319 162.653C122.081 162.152 125.603 160.521 128.419 157.976L104.941 131.996ZM133.292 123.118C126.312 119.382 117.738 120.432 111.864 125.74L135.342 151.72C130.251 156.321 122.821 157.23 116.771 153.993L133.292 123.118ZM167.87 143.595C166.541 143.116 165.279 142.466 164.118 141.66L184.071 112.884C182.731 111.955 181.275 111.204 179.741 110.652L167.87 143.595ZM151.082 134.111C147.728 135.132 144.134 135.042 140.835 133.853L152.707 100.91C148.901 99.5383 144.754 99.4338 140.884 100.612L151.082 134.111ZM61.0713 163.644C60.1953 164.15 59.274 164.573 58.3193 164.908L46.734 131.863C45.6325 132.249 44.5694 132.737 43.5586 133.321L61.0713 163.644ZM47.9013 135.973C64.7589 135.523 71.0693 157.87 56.4662 166.304L38.9536 135.98C22.1039 145.712 29.3851 171.497 48.8362 170.978L47.9013 135.973ZM127.787 130.369C133.509 126.364 140.209 126.819 144.888 129.322L128.366 160.197C133.808 163.109 141.434 163.559 147.866 159.058L127.787 130.369ZM162.017 120.367C158.316 118.43 154.059 117.781 149.933 118.539L156.268 152.979C152.683 153.638 148.996 153.075 145.781 151.393L162.017 120.367ZM176.598 151.653C182.937 142.38 179.762 129.653 169.81 124.445L153.573 155.471C144.949 150.957 142.197 139.928 147.69 131.891L176.598 151.653ZM174.393 151.835C174.051 154.337 173.131 156.725 171.706 158.81L142.798 139.048C141.153 141.454 140.092 144.209 139.698 147.096L174.393 151.835ZM138.826 153.48C136.715 168.934 153.288 180.064 166.794 172.264L149.281 141.94C160.987 135.18 175.35 144.827 173.521 158.22L138.826 153.48ZM170.311 148.565C165.824 140.789 168.487 130.848 176.262 126.359L193.774 156.682C202.744 151.502 205.818 140.031 200.64 131.06L170.311 148.565ZM196.307 123.553C194.922 121.154 193.024 119.092 190.749 117.514L170.795 146.291C168.823 144.923 167.178 143.136 165.979 141.057L196.307 123.553ZM39.492 188.154C41.766 189.442 44.2839 190.24 46.8845 190.498L50.3402 155.652C52.594 155.875 54.7762 156.567 56.747 157.683L39.492 188.154ZM11.897 151.268C6.96602 160.264 10.1764 171.553 19.1034 176.608L36.3585 146.137C44.0953 150.519 46.8776 160.302 42.6041 168.099L11.897 151.268ZM28.8635 129.261C24.8096 130.874 21.4445 133.849 19.3475 137.675L50.0546 154.506C48.2371 157.822 45.3207 160.4 41.8073 161.798L28.8635 129.261ZM220.103 163.976C226.871 158.083 228.517 148.222 224.031 140.451L193.703 157.955C189.816 151.219 191.243 142.674 197.108 137.567L220.103 163.976ZM139.964 204.024C141.415 204.261 142.944 204.336 144.524 204.206L141.649 169.307C143.026 169.194 144.359 169.261 145.61 169.465L139.964 204.024ZM170.904 86.8802C167.763 85.3998 164.156 84.7638 160.47 85.2478L165.029 119.967C161.819 120.389 158.678 119.83 155.971 118.554L170.904 86.8802ZM181.17 130.434C178.172 129.02 175.678 126.725 174.021 123.855L204.35 106.35C202.438 103.039 199.56 100.39 196.102 98.7597L181.17 130.434ZM275.181 201.331C274.161 203.458 273.551 205.758 273.383 208.111L308.311 210.605C308.165 212.644 307.637 214.637 306.752 216.48L275.181 201.331ZM292.302 177.312C287.877 179.041 284.273 182.385 282.217 186.669L313.788 201.818C312.006 205.531 308.882 208.429 305.047 209.928L292.302 177.312ZM324.459 169.931C320.118 168.29 315.323 168.317 311 170.006L323.745 202.622C319.999 204.085 315.843 204.109 312.081 202.687L324.459 169.931ZM229.254 223.122C233.336 217.598 234.072 210.283 231.172 204.056L199.428 218.837C196.915 213.44 197.553 207.101 201.091 202.312L229.254 223.122ZM219.774 345.719C219.866 343.484 220.419 341.291 221.398 339.279L252.888 354.595C254.017 352.273 254.655 349.744 254.761 347.164L219.774 345.719ZM275.357 336.903C276.884 339.077 277.92 341.694 278.222 344.54L243.4 348.234C243.746 351.503 244.932 354.51 246.703 357.032L275.357 336.903ZM278.046 343.164C279.995 344.334 281.676 345.899 282.983 347.758L254.329 367.887C255.837 370.033 257.777 371.839 260.026 373.189L278.046 343.164ZM296.119 356.454C294.544 353.904 292.381 351.768 289.811 350.225L271.791 380.25C269.563 378.913 267.688 377.062 266.324 374.851L296.119 356.454ZM303.995 381.695C305.665 376.475 304.969 370.787 302.089 366.124L272.294 384.521C269.799 380.48 269.196 375.549 270.643 371.026L303.995 381.695ZM287.141 414.852C291.837 412.629 295.401 408.559 296.984 403.611L263.632 392.942C265.004 388.653 268.092 385.126 272.162 383.2L287.141 414.852ZM244.139 428.1C249.104 430.264 254.762 430.176 259.658 427.859L244.678 396.207C248.921 394.199 253.825 394.123 258.128 395.998L244.139 428.1ZM203.981 403.971C205.691 408.941 209.407 412.965 214.225 415.064L228.214 382.962C232.389 384.782 235.61 388.269 237.092 392.576L203.981 403.971ZM230.997 374.865C232.324 378.721 232.154 382.935 230.52 386.671L198.437 372.639C196.551 376.95 196.355 381.812 197.886 386.261L230.997 374.865ZM295.642 229.278C304.83 225.903 314.811 231.345 317.062 240.758L283.004 248.899C285.602 259.769 297.119 266.039 307.714 262.148L295.642 229.278ZM314.252 221.308C313.579 217.267 314.449 213.009 316.859 209.473L345.793 229.198C348.566 225.13 349.572 220.23 348.793 215.553L314.252 221.308ZM346.226 200.145C345.218 194.099 341.322 188.927 335.789 186.292L320.73 217.906C315.935 215.621 312.558 211.139 311.685 205.9L346.226 200.145ZM189.303 254.354C198.642 257.609 209.134 253.064 212.918 243.602L180.404 230.601C183.685 222.395 192.769 218.479 200.829 221.288L189.303 254.354ZM152.663 214.557C152.663 218.284 153.772 221.944 155.88 225.063L184.892 205.454C186.719 208.156 187.68 211.332 187.68 214.557H152.663ZM187.68 202.897C187.68 207.208 185.968 211.342 182.92 214.391L158.156 189.634C154.639 193.152 152.663 197.923 152.663 202.897H187.68ZM187.936 262.148C198.531 266.039 210.048 259.768 212.646 248.899L178.589 240.758C180.839 231.345 190.82 225.903 200.009 229.278L187.936 262.148ZM146.857 215.553C146.078 220.23 147.085 225.13 149.858 229.198L178.791 209.473C181.202 213.009 182.072 217.267 181.398 221.308L146.857 215.553ZM183.966 205.9C183.093 211.139 179.716 215.621 174.92 217.906L159.861 186.292C154.328 188.927 150.432 194.099 149.425 200.145L183.966 205.9ZM324.073 207.517C320.331 206.25 317.179 203.665 315.204 200.244L345.532 182.739C343.254 178.791 339.616 175.808 335.298 174.347L324.073 207.517ZM322.273 203.586C318.91 204.649 315.364 204.569 312.159 203.485L323.384 170.315C319.676 169.06 315.595 168.973 311.725 170.195L322.273 203.586ZM307.923 209.497C307.854 211.839 307.276 214.2 306.166 216.386L274.944 200.531C273.667 203.046 273 205.762 272.92 208.473L307.923 209.497ZM307.335 223.674C307.427 224.46 307.462 225.251 307.439 226.041L272.437 225.017C272.41 225.929 272.45 226.842 272.556 227.748L307.335 223.674ZM283.777 241.679C293.969 233.286 309.386 239.9 310.328 253.069L275.4 255.568C276.487 270.764 294.277 278.395 306.037 268.71L283.777 241.679ZM290.125 236.782C289.23 237.299 288.379 237.889 287.581 238.546L309.841 265.577C309.15 266.147 308.413 266.658 307.637 267.106L290.125 236.782ZM319.49 221.364C319.357 218.866 319.801 216.288 320.882 213.868L352.857 228.144C354.098 225.365 354.611 222.401 354.458 219.511L319.49 221.364ZM353.452 200.54C353.296 197.588 352.444 194.715 350.967 192.155L320.639 209.66C319.358 207.441 318.62 204.951 318.484 202.393L353.452 200.54ZM159.032 174.347C154.715 175.808 151.077 178.791 148.799 182.739L179.127 200.244C177.152 203.665 173.999 206.25 170.257 207.517L159.032 174.347ZM188.294 268.71C200.054 278.395 217.843 270.764 218.93 255.568L184.002 253.069C184.945 239.899 200.362 233.286 210.554 241.679L188.294 268.71ZM186.693 267.106C185.918 266.658 185.181 266.147 184.489 265.577L206.749 238.546C205.951 237.889 205.101 237.299 204.206 236.782L186.693 267.106ZM146.496 108.931C143.394 111.485 141.194 114.967 140.22 118.865L174.192 127.356C173.348 130.734 171.441 133.752 168.753 135.965L146.496 108.931ZM197.577 72.4147C193.227 72.4147 189.012 73.9266 185.653 76.6917L207.911 103.725C205 106.122 201.347 107.432 197.577 107.432V72.4147ZM307.546 76.6917C304.188 73.9266 299.973 72.4147 295.622 72.4147V107.432C291.852 107.432 288.199 106.122 285.289 103.725L307.546 76.6917ZM353.003 118.969C352.042 115.029 349.831 111.506 346.701 108.929L324.443 135.962C321.73 133.728 319.813 130.675 318.981 127.26L353.003 118.969ZM331.005 184.437C341.555 203.654 370.866 192.266 365.675 170.968L331.654 179.259C327.155 160.801 352.558 150.931 361.701 167.586L331.005 184.437ZM312.627 146.206C310.104 144.721 308.029 142.583 306.62 140.017L337.316 123.166C335.691 120.205 333.296 117.738 330.385 116.025L312.627 146.206ZM284.631 127.337C281.856 127.275 279.143 126.503 276.751 125.096L294.51 94.9156C291.749 93.2915 288.619 92.401 285.418 92.3291L284.631 127.337ZM214.776 121.456C211.711 124.159 207.741 125.609 203.656 125.517L204.443 90.5088C199.73 90.4029 195.149 92.0757 191.613 95.1944L214.776 121.456ZM189.524 143.015C188.746 144.175 187.823 145.229 186.776 146.152L163.613 119.89C162.405 120.956 161.339 122.173 160.442 123.51L189.524 143.015ZM132.049 165.844C142.197 150.713 165.742 161.167 161.325 178.842L127.352 170.352C122.255 190.746 149.422 202.808 161.131 185.349L132.049 165.844ZM344.527 233.664C353.07 223.3 348.273 207.579 335.399 203.75L325.418 237.315C314.26 233.997 310.103 220.372 317.507 211.39L344.527 233.664ZM319.219 261.527C318.537 263.831 317.382 265.865 315.942 267.535L289.416 244.675C287.746 246.614 286.422 248.949 285.64 251.593L319.219 261.527ZM291.703 351.632C293.619 349.62 295.132 347.137 296.019 344.302L262.598 333.851C263.37 331.382 264.69 329.221 266.342 327.486L291.703 351.632ZM250.05 346.342C247.856 364.277 269.797 374.64 282.256 361.554L256.895 337.408C267.694 326.066 286.709 335.048 284.808 350.592L250.05 346.342ZM263.371 244.583C262.576 246.327 262.053 248.182 261.821 250.085L296.579 254.336C296.377 255.984 295.924 257.593 295.235 259.104L263.371 244.583ZM271.247 230.033C271.353 227.995 271.842 225.995 272.689 224.138L304.553 238.66C305.529 236.517 306.094 234.209 306.216 231.857L271.247 230.033ZM302.622 183.051C290.57 174.406 273.726 182.505 272.953 197.317L307.923 199.141C307.253 211.978 292.655 218.997 282.21 211.504L302.622 183.051ZM310.506 231.804C312.204 233.021 314.092 233.947 316.094 234.542L326.076 200.978C327.811 201.494 329.448 202.296 330.918 203.351L310.506 231.804ZM314.448 196.008C308.23 182.79 321.242 168.715 334.906 173.878L322.528 206.635C338.294 212.593 353.309 196.352 346.134 181.101L314.448 196.008ZM231.759 327.486C233.41 329.221 234.731 331.382 235.503 333.851L202.082 344.302C202.968 347.137 204.482 349.62 206.398 351.632L231.759 327.486ZM324.64 203.067C319.776 201.949 315.695 198.659 313.57 194.142L345.256 179.236C342.805 174.025 338.096 170.229 332.483 168.939L324.64 203.067ZM213.292 350.592C211.392 335.048 230.407 326.066 241.205 337.408L215.844 361.554C228.303 374.64 250.244 364.277 248.051 346.342L213.292 350.592ZM314.244 196.633C310.798 198.45 306.814 198.97 303.018 198.098L310.86 163.97C306.48 162.963 301.883 163.563 297.907 165.66L314.244 196.633ZM202.865 259.104C202.176 257.593 201.723 255.984 201.522 254.336L236.28 250.085C236.047 248.182 235.524 246.327 234.729 244.583L202.865 259.104ZM305.333 197.588C303.834 200.808 301.321 203.449 298.179 205.106L281.843 174.133C278.218 176.045 275.318 179.092 273.588 182.807L305.333 197.588ZM192.099 233.992C192.372 235.58 192.848 237.125 193.516 238.591L225.38 224.069C225.959 225.339 226.372 226.678 226.609 228.054L192.099 233.992ZM293.747 202.377C297.284 207.165 297.922 213.504 295.41 218.901L263.665 204.121C260.765 210.348 261.501 217.662 265.583 223.187L293.747 202.377ZM213.172 208.199C203.711 216.987 188.275 211.77 186.085 199.044L220.595 193.106C218.068 178.423 200.257 172.403 189.341 182.543L213.172 208.199ZM273.545 233.962C283.9 247.976 306.103 241.531 307.344 224.15L272.415 221.655C273.491 206.592 292.733 201.006 301.708 213.152L273.545 233.962ZM165.516 204.673C167.348 202.97 169.549 201.714 171.946 201.001L181.928 234.566C184.694 233.743 187.233 232.293 189.347 230.329L165.516 204.673ZM188.085 216.416C187.2 214.573 186.672 212.579 186.526 210.54L221.454 208.046C221.286 205.693 220.676 203.393 219.656 201.266L188.085 216.416ZM337.943 279.557C337.597 281.133 337.017 282.649 336.224 284.054L305.727 266.846C304.812 268.468 304.143 270.217 303.743 272.035L337.943 279.557ZM189.79 209.863C185.955 208.365 182.831 205.466 181.049 201.754L212.62 186.604C210.564 182.321 206.96 178.977 202.535 177.247L189.79 209.863ZM158.128 284.463C157.597 283.572 157.153 282.631 156.802 281.655L189.75 269.797C189.345 268.671 188.832 267.586 188.22 266.557L158.128 284.463ZM182.756 202.622C178.994 204.044 174.838 204.021 171.092 202.557L183.837 169.941C179.514 168.252 174.719 168.225 170.378 169.866L182.756 202.622ZM307.922 76.4457C304.553 73.6429 300.308 72.1083 295.925 72.1083V107.126C292.127 107.126 288.448 105.796 285.528 103.366L307.922 76.4457ZM182.605 170.195C178.736 168.973 174.654 169.06 170.947 170.315L182.172 203.485C178.967 204.569 175.421 204.649 172.057 203.586L182.605 170.195ZM221.249 182.743C219.519 179.027 216.619 175.98 212.994 174.068L196.658 205.041C193.516 203.384 191.003 200.744 189.504 197.523L221.249 182.743ZM342.987 202.897C342.987 197.923 341.011 193.152 337.495 189.634L312.73 214.391C309.682 211.342 307.97 207.208 307.97 202.897H342.987ZM330.184 313.276C330.652 312.188 331.015 311.057 331.27 309.9L297.07 302.378C297.291 301.375 297.606 300.396 298.011 299.452L330.184 313.276ZM221.41 208.473C221.331 205.762 220.664 203.046 219.387 200.531L188.165 216.386C187.055 214.2 186.476 211.839 186.408 209.497L221.41 208.473ZM193.129 213.087C202.104 200.941 221.346 206.527 222.422 221.591L187.493 224.085C188.734 241.466 210.937 247.911 221.292 233.897L193.129 213.087ZM239.974 368.955C237.901 363.026 232.998 358.529 226.913 356.973L218.239 390.899C212.966 389.551 208.717 385.653 206.92 380.515L239.974 368.955ZM286.643 415.339C291.592 413.1 295.328 408.826 296.885 403.623L263.336 393.587C264.685 389.077 267.923 385.373 272.212 383.433L286.643 415.339ZM221.775 227.748C221.881 226.842 221.921 225.929 221.894 225.017L186.892 226.041C186.869 225.25 186.903 224.46 186.995 223.674L221.775 227.748ZM211.306 350.624C208.319 352.616 205.966 355.424 204.527 358.714L236.61 372.746C235.363 375.597 233.324 378.031 230.735 379.757L211.306 350.624ZM236.183 379.979C233.458 388.031 224.991 392.625 216.755 390.52L225.429 356.594C215.926 354.164 206.156 359.465 203.012 368.756L236.183 379.979ZM244.366 427.921C249.165 429.922 254.578 429.841 259.315 427.699L244.885 395.793C248.99 393.936 253.682 393.866 257.84 395.6L244.366 427.921ZM180.594 211.39C187.998 220.372 183.84 233.997 172.683 237.315L162.701 203.75C149.828 207.579 145.03 223.3 153.573 233.664L180.594 211.39ZM228.658 254.597C226.139 257.621 224.635 261.361 224.358 265.287L259.289 267.746C259.049 271.149 257.746 274.39 255.562 277.011L228.658 254.597ZM140.605 253.132C141.035 255.103 141.781 256.992 142.813 258.726L172.905 240.82C173.799 242.323 174.445 243.96 174.818 245.668L140.605 253.132ZM148.703 181.037C141.528 196.288 156.543 212.528 172.309 206.57L159.931 173.814C173.595 168.65 186.607 182.725 180.389 195.943L148.703 181.037ZM294.822 221.288C302.881 218.479 311.966 222.395 315.247 230.601L282.732 243.602C286.516 253.064 297.009 257.609 306.347 254.354L294.822 221.288ZM352.644 118.349C351.675 114.488 349.505 111.036 346.445 108.49L324.051 135.411C321.399 133.205 319.518 130.213 318.678 126.867L352.644 118.349ZM259.127 248.456C251.218 241.335 238.975 242.213 232.163 250.39L259.067 272.804C253.163 279.891 242.553 280.652 235.698 274.48L259.127 248.456ZM273.566 360.781C268.744 358.786 262.938 358.747 257.732 361.416L273.704 392.578C269.218 394.877 264.255 394.824 260.18 393.138L273.566 360.781ZM125.995 177.009C125.294 179.811 125.249 182.738 125.865 185.56L160.078 178.097C160.611 180.543 160.573 183.08 159.965 185.509L125.995 177.009ZM216.146 350.077C217.41 347.479 219.343 345.264 221.747 343.662L241.175 372.795C243.948 370.945 246.179 368.39 247.637 365.392L216.146 350.077ZM218.756 366.372C227.578 361.358 238.787 365.561 242.137 375.139L209.083 386.7C212.948 397.751 225.882 402.601 236.061 396.815L218.756 366.372ZM204.137 404.377C205.891 409.418 209.709 413.473 214.635 415.527L228.11 383.205C232.379 384.985 235.688 388.5 237.209 392.868L204.137 404.377ZM162.354 168.874C156.741 170.164 152.032 173.96 149.581 179.171L181.267 194.078C179.142 198.594 175.061 201.884 170.197 203.002L162.354 168.874ZM367.892 187.627C368.563 184.729 368.536 181.714 367.813 178.829L333.847 187.348C333.22 184.848 333.197 182.234 333.779 179.723L367.892 187.627ZM212.46 251.593C211.678 248.949 210.355 246.614 208.684 244.675L182.158 267.535C180.719 265.865 179.563 263.831 178.882 261.527L212.46 251.593ZM139.873 219.511C139.72 222.401 140.233 225.365 141.474 228.144L173.449 213.868C174.529 216.288 174.973 218.866 174.841 221.364L139.873 219.511ZM270.025 264.632C269.5 259.93 267.245 255.764 263.935 252.784L240.505 278.808C237.65 276.238 235.682 272.616 235.225 268.523L270.025 264.632ZM147.015 108.378C143.877 110.936 141.651 114.439 140.669 118.365L174.639 126.865C173.788 130.268 171.858 133.304 169.14 135.52L147.015 108.378ZM196.93 165.595C192.954 163.498 188.357 162.899 183.977 163.905L191.819 198.033C188.023 198.905 184.039 198.386 180.593 196.568L196.93 165.595ZM307.97 214.557C307.97 211.332 308.931 208.156 310.758 205.454L339.77 225.063C341.878 221.944 342.987 218.284 342.987 214.557H307.97ZM318.546 245.471C318.896 243.959 319.461 242.504 320.224 241.152L350.722 258.359C351.602 256.799 352.255 255.12 352.659 253.375L318.546 245.471ZM175.846 202.393C175.711 204.951 174.973 207.441 173.692 209.66L143.364 192.155C141.886 194.715 141.035 197.588 140.878 200.54L175.846 202.393ZM288.913 355.871C275.411 349.108 261.205 359.956 261.698 373.411L296.692 372.128C297.113 383.617 284.972 393.062 273.23 387.18L288.913 355.871ZM208.459 103.469C205.557 105.834 201.929 107.126 198.186 107.126V72.1083C193.868 72.1083 189.681 73.5985 186.334 76.3272L208.459 103.469Z" fill="#8D8D8D" mask="url(#path-1-outside-1_428_892)"/>
</svg>
