<svg width="501" height="501" viewBox="0 0 501 501" fill="none" xmlns="http://www.w3.org/2000/svg">
<path d="M78.4409 258.256C98.2618 99.6825 51.6227 81.6627 65.6154 74.0309C97.6802 56.5411 103.963 81.8636 125.664 74.0309C230.02 60.0392 190.942 30.8895 239.93 30.8895C271.522 28.3954 258.586 58.4364 358.86 54.7922C396.927 53.4088 397.337 15.1489 426.486 30.8895C435.231 85.1076 400.252 155.65 413.66 221.527C428.73 295.567 367.022 336.377 426.486 410.999C452.751 443.959 438.145 439.565 346.033 430.238C253.922 420.91 314.638 469.953 245.76 474.545C209.125 469.835 219.82 434.505 188.045 423.825C149.028 410.711 69.5708 429.801 74.943 410.999C106.426 300.814 73.2464 299.814 78.4409 258.256Z" fill="#B28D78" stroke="#E6E6E6" stroke-width="18.7795"/>
<path d="M109.454 256.916C125.703 126.917 87.4682 112.145 98.9395 105.888C125.226 91.5501 130.377 112.31 148.167 105.888C233.718 94.4178 201.682 70.5209 241.843 70.5209C267.742 68.4762 257.137 93.1039 339.342 90.1163C370.55 88.9822 370.886 57.6166 394.782 70.5208C401.951 114.969 373.275 172.799 384.268 226.806C396.622 287.504 346.033 320.96 394.782 382.135C416.314 409.156 404.34 405.554 328.827 397.907C253.313 390.261 303.089 430.466 246.622 434.231C216.589 430.369 225.357 401.405 199.307 392.65C167.321 381.9 102.182 397.549 106.586 382.135C132.396 291.806 105.195 290.986 109.454 256.916Z" fill="#A37F6B"/>
<path d="M126.569 256.177C140.847 141.948 107.251 128.967 117.33 123.47C140.428 110.871 144.954 129.112 160.586 123.47C235.759 113.391 207.61 92.3925 242.898 92.3925C265.656 90.5959 256.338 112.236 328.57 109.611C355.992 108.614 356.287 81.0537 377.285 92.3925C383.585 131.449 358.387 182.264 368.046 229.719C378.902 283.054 334.45 312.451 377.285 366.206C396.205 389.949 385.684 386.784 319.331 380.065C252.977 373.345 296.715 408.674 247.098 411.982C220.708 408.589 228.412 383.138 205.523 375.445C177.416 365.999 120.179 379.75 124.049 366.206C146.728 286.834 122.827 286.113 126.569 256.177Z" fill="#9C7762"/>
<path d="M231.158 261.571C233.362 120.522 228.174 104.493 229.731 97.7051C233.298 82.1482 221.191 82.164 223.605 75.1968C235.213 62.7514 233.313 59.3314 238.763 59.3314C242.277 57.113 239.698 48.7757 249.256 55.3752C254.503 58.9978 266.63 45.3304 269.873 59.3314C270.845 107.558 266.954 170.304 268.446 228.901C270.122 294.759 263.258 331.058 269.873 397.434C272.794 426.751 272.596 430.956 262.35 422.659C252.104 414.362 256.335 429.068 248.673 433.153C244.598 428.963 241.714 432.159 238.18 422.659C233.839 410.995 230.171 414.158 230.768 397.434C234.27 299.426 230.58 298.536 231.158 261.571Z" fill="#A37F6B"/>
</svg>
