<svg width="1001" height="1001" viewBox="0 0 1001 1001" fill="none" xmlns="http://www.w3.org/2000/svg">
<path d="M156.811 514.907C196.452 197.761 103.174 161.721 131.16 146.458C195.289 111.478 207.855 162.123 251.257 146.458C459.968 118.474 381.812 60.1748 479.789 60.1748C542.973 55.1866 517.101 115.269 717.648 107.98C793.783 105.213 794.603 28.6936 852.902 60.1748C870.391 168.611 800.432 309.695 827.25 441.451C857.39 589.53 733.972 671.149 852.902 820.394C905.431 886.314 876.219 877.527 691.996 858.871C507.772 840.216 629.205 938.302 491.448 947.486C418.18 938.066 439.568 867.405 376.018 846.046C297.984 819.818 139.07 857.997 149.815 820.394C212.78 600.024 146.421 598.024 156.811 514.907Z" fill="#B28D78" stroke="#E6E6E6" stroke-width="37.5589"/>
<path d="M218.836 512.228C251.334 252.231 174.865 222.685 197.807 210.172C250.381 181.496 260.682 223.015 296.263 210.172C467.365 187.231 403.293 139.437 483.614 139.437C535.412 135.348 514.203 184.604 678.612 178.628C741.027 176.36 741.7 113.629 789.493 139.437C803.831 228.334 746.478 343.995 768.463 452.008C793.172 573.404 691.994 640.315 789.493 762.667C832.557 816.708 808.609 809.504 657.582 794.211C506.555 778.917 606.106 859.328 493.173 866.857C433.107 859.134 450.641 801.207 398.543 783.696C334.57 762.195 204.292 793.494 213.101 762.667C264.72 582.007 210.319 580.367 218.836 512.228Z" fill="#A37F6B"/>
<path d="M253.066 510.749C281.622 282.291 214.429 256.33 234.588 245.335C280.784 220.137 289.836 256.62 321.1 245.335C471.447 225.177 415.147 183.181 485.725 183.181C531.239 179.587 512.603 222.868 657.068 217.618C711.912 215.624 712.503 160.503 754.498 183.181C767.097 261.293 716.701 362.924 736.02 457.834C757.731 564.504 668.827 623.298 754.498 730.808C792.338 778.293 771.295 771.964 638.589 758.525C505.883 745.087 593.357 815.744 494.124 822.359C441.344 815.573 456.752 764.673 410.973 749.286C354.761 730.393 240.287 757.896 248.026 730.808C293.384 572.063 245.582 570.623 253.066 510.749Z" fill="#9C7762"/>
<path d="M462.244 521.537C466.653 239.439 456.277 207.382 459.39 193.806C466.524 162.692 442.31 162.723 447.138 148.789C470.354 123.898 466.555 117.058 477.454 117.058C484.482 112.621 479.324 95.9468 498.441 109.146C508.935 116.391 533.189 89.0562 539.674 117.058C541.619 213.511 533.837 339.003 536.82 456.198C540.173 587.913 526.445 660.511 539.674 793.263C545.517 851.898 545.121 860.307 524.629 843.714C504.137 827.12 512.599 856.532 497.275 864.701C489.125 856.322 483.357 862.713 476.288 843.714C467.608 820.385 460.27 826.711 461.466 793.263C468.47 597.247 461.088 595.468 462.244 521.537Z" fill="#A37F6B"/>
</svg>
