<svg width="400" height="400" viewBox="0 0 400 400" fill="none" xmlns="http://www.w3.org/2000/svg">
<path d="M62.3861 205.836C78.2349 79.0396 40.9421 64.6309 52.1308 58.5285C77.7699 44.5436 82.7939 64.7916 100.146 58.5285C183.589 47.3406 152.342 24.0324 191.514 24.0324C216.775 22.0381 206.431 46.0591 286.611 43.1451C317.049 42.0389 317.377 11.4461 340.685 24.0324C347.678 67.3855 319.708 123.791 330.43 176.468C342.48 235.67 293.137 268.301 340.685 327.97C361.687 354.325 350.008 350.812 276.355 343.353C202.702 335.895 251.251 375.11 196.175 378.782C166.882 375.016 175.433 346.765 150.026 338.226C118.828 327.74 55.2935 343.004 59.5891 327.97C84.763 239.866 58.2325 239.066 62.3861 205.836Z" fill="#B28D78" stroke="#E6E6E6" stroke-width="15.0162"/>
<path d="M87.1839 204.765C100.177 100.817 69.6041 89.0046 78.7766 84.0018C99.7956 72.5369 103.914 89.1363 118.139 84.0018C186.547 74.8299 160.93 55.7218 193.043 55.7218C213.752 54.0869 205.273 73.7793 271.004 71.3905C295.958 70.4836 296.226 45.4035 315.334 55.7218C321.067 91.2628 298.137 137.504 306.926 180.688C316.805 229.223 276.354 255.974 315.334 304.891C332.551 326.496 322.977 323.616 262.596 317.502C202.215 311.387 242.016 343.536 196.865 346.546C172.85 343.459 179.86 320.299 159.031 313.298C133.455 304.702 81.3694 317.215 84.8909 304.891C105.529 232.662 83.7788 232.007 87.1839 204.765Z" fill="#A37F6B"/>
<path d="M100.869 204.173C112.286 112.835 85.4221 102.456 93.4819 98.0599C111.951 87.9858 115.57 102.572 128.07 98.0599C188.179 90.0007 165.67 73.2105 193.887 73.2105C212.084 71.7739 204.633 89.0775 262.39 86.9785C284.317 86.1816 284.553 64.1439 301.343 73.2105C306.38 104.44 286.232 145.072 293.956 183.018C302.636 225.665 267.092 249.171 301.343 292.153C316.472 311.138 308.059 308.608 255.002 303.235C201.946 297.862 236.919 326.111 197.245 328.756C176.144 326.043 182.304 305.693 164.001 299.541C141.527 291.988 95.7602 302.983 98.8546 292.153C116.989 228.687 97.8773 228.111 100.869 204.173Z" fill="#9C7762"/>
<path d="M184.499 208.486C186.262 95.7028 182.114 82.8865 183.359 77.4585C186.211 65.0191 176.53 65.0317 178.46 59.4608C187.742 49.5093 186.223 46.7747 190.58 46.7747C193.39 45.0008 191.328 38.3342 198.971 43.6112C203.167 46.5079 212.863 35.5793 215.456 46.7747C216.234 85.3367 213.123 135.509 214.315 182.364C215.656 235.024 210.167 264.049 215.456 317.123C217.792 340.566 217.634 343.928 209.441 337.294C201.248 330.659 204.631 342.418 198.505 345.684C195.247 342.334 192.94 344.889 190.114 337.294C186.644 327.967 183.71 330.496 184.188 317.123C186.988 238.755 184.037 238.044 184.499 208.486Z" fill="#A37F6B"/>
</svg>
