<svg width="400" height="400" viewBox="0 0 400 400" fill="none" xmlns="http://www.w3.org/2000/svg">
<mask id="path-1-outside-1_428_892" maskUnits="userSpaceOnUse" x="7" y="57" width="387" height="286" fill="black">
<rect fill="white" x="7" y="57" width="387" height="286"/>
<path d="M125.745 97.3855C125.798 97.1762 125.916 96.9895 126.084 96.8532L157.523 71.2249C157.702 71.0794 157.925 71 158.155 71H236.308C236.542 71 236.768 71.0818 236.948 71.2312L267.75 96.8543C267.913 96.99 268.029 97.1741 268.081 97.3798L280.21 145.74C280.249 145.894 280.25 146.055 280.214 146.209L268.034 198.782C268.012 198.875 267.978 198.964 267.931 199.048L256.338 219.593C256.289 219.68 256.254 219.773 256.233 219.87L250.896 244.132C250.883 244.194 250.863 244.254 250.839 244.312L234.008 283.484L223.662 318.068C223.579 318.346 223.38 318.574 223.116 318.693L201.265 328.576C201.012 328.69 200.724 328.694 200.468 328.588L176.695 318.677C176.432 318.568 176.229 318.351 176.135 318.083L164.096 283.484L147.022 244.225L138.237 219.814C138.215 219.754 138.188 219.696 138.155 219.641L125.909 199.062C125.854 198.969 125.814 198.869 125.791 198.763L114.005 144.733C113.972 144.583 113.975 144.427 114.012 144.277L125.745 97.3855Z"/>
<path d="M162.276 156.125C162.141 155.342 161.192 155.021 160.61 155.562L141.56 173.257C141.447 173.361 141.311 173.439 141.164 173.483L133.772 175.681C133.086 175.885 132.83 176.723 133.285 177.276L143.838 190.077L155.944 204.125C156.037 204.232 156.104 204.353 156.144 204.489C159.837 216.973 167.107 242.03 167.107 243.98C167.107 245.923 172.079 262.307 174.632 270.469C174.678 270.615 174.755 270.744 174.86 270.855L182.414 278.789C183.078 279.486 184.247 278.934 184.131 277.978L174.719 201.011C174.706 200.909 174.678 200.81 174.636 200.717L167.16 184.314C167.125 184.236 167.099 184.154 167.085 184.069L162.276 156.125Z"/>
<path d="M231.92 157.847C231.961 157.057 232.859 156.625 233.502 157.086L256.128 173.318C256.218 173.383 256.319 173.432 256.426 173.464L263.881 175.681C264.567 175.885 264.823 176.723 264.367 177.276L253.815 190.077L241.708 204.125C241.616 204.232 241.549 204.353 241.509 204.489C237.815 216.973 230.546 242.03 230.546 243.98C230.546 245.923 225.573 262.307 223.021 270.469C222.975 270.615 222.898 270.744 222.792 270.855L215.239 278.789C214.575 279.486 213.405 278.934 213.522 277.978L222.934 201.011C222.946 200.909 222.974 200.81 223.017 200.717L230.467 184.369C230.519 184.255 230.549 184.132 230.556 184.007L231.92 157.847Z"/>
<path d="M139.771 105.706C139.706 105.763 139.649 105.828 139.602 105.899L116.899 139.75C116.275 140.68 114.826 140.038 115.098 138.95L125.387 97.7815C125.439 97.5737 125.556 97.3881 125.722 97.2519L157.032 71.473C157.211 71.3256 157.436 71.245 157.668 71.245H236.066C236.298 71.245 236.522 71.3256 236.701 71.473L268.009 97.2499C268.176 97.3873 268.294 97.5751 268.345 97.7851L278.478 139.364C278.755 140.499 277.193 141.106 276.63 140.082L257.132 104.563C257.045 104.405 256.917 104.274 256.762 104.182L228.076 87.303C227.929 87.2164 227.762 87.1689 227.591 87.1651L162.844 85.7096C162.592 85.704 162.348 85.7932 162.16 85.9594L139.771 105.706Z"/>
<path d="M125.591 176.06C125.527 175.916 125.5 175.762 125.508 175.605L126.312 160.435C126.32 160.278 126.365 160.125 126.444 159.988L130.79 152.459C130.911 152.249 131.105 152.09 131.335 152.012L140.862 148.788C141.063 148.72 141.277 148.717 141.479 148.781C146.599 150.398 156.334 153.602 156.641 154.223C156.949 154.845 160.695 162.226 162.625 166.027C162.691 166.158 162.727 166.3 162.731 166.447L163.118 179.676C163.119 179.725 163.117 179.773 163.112 179.822L161.32 195.119L160.778 202.696C160.72 203.506 159.772 203.913 159.145 203.397L156.103 200.892C156.06 200.857 156.015 200.825 155.967 200.798L143.948 193.856C140.665 191.866 133.694 187.708 132.069 186.996C130.477 186.298 127.15 179.551 125.591 176.06Z"/>
<path d="M269.047 176.06C269.111 175.916 269.139 175.762 269.13 175.605L268.327 160.435C268.318 160.278 268.273 160.125 268.194 159.988L263.848 152.459C263.727 152.249 263.533 152.09 263.303 152.012L253.776 148.788C253.575 148.72 253.361 148.717 253.159 148.781C248.039 150.398 238.304 153.602 237.997 154.223C237.689 154.845 233.944 162.226 232.014 166.027C231.947 166.158 231.911 166.3 231.907 166.447L231.52 179.676C231.519 179.725 231.521 179.773 231.527 179.822L233.318 195.119L233.86 202.696C233.918 203.506 234.867 203.913 235.493 203.397L238.536 200.892C238.578 200.857 238.624 200.825 238.671 200.798L250.691 193.856C253.973 191.866 260.944 187.708 262.57 186.996C264.161 186.298 267.488 179.551 269.047 176.06Z"/>
<path d="M131.079 174.724C130.934 174.511 130.88 174.254 130.922 174L132.975 161.679C133.028 161.357 133.236 161.082 133.531 160.941L138.204 158.715L154.308 169.775C154.506 169.911 154.648 170.114 154.709 170.346L158.534 184.932L156.101 195.108C155.962 195.69 155.348 196.022 154.786 195.815C150.562 194.264 143.643 191.727 143.103 191.547C142.526 191.355 134.988 180.458 131.079 174.724Z"/>
<path d="M135.926 171.464C135.814 171.297 135.755 171.103 135.755 170.903V161.579C135.755 161.314 135.86 161.06 136.047 160.872L138.204 158.715L154.308 169.775C154.506 169.911 154.648 170.114 154.709 170.346L158.534 184.932L156.935 188.929C156.734 189.432 156.171 189.683 155.66 189.505C151.663 188.112 146.097 186.583 145.552 186.402C144.973 186.209 139.75 177.121 135.926 171.464Z"/>
<path d="M264.614 174.724C264.759 174.511 264.814 174.254 264.772 174L262.719 161.679C262.665 161.357 262.457 161.082 262.162 160.941L257.489 158.715L241.385 169.775C241.187 169.911 241.045 170.114 240.984 170.346L237.159 184.932L239.592 195.108C239.731 195.69 240.345 196.022 240.907 195.815C245.132 194.264 252.051 191.727 252.591 191.547C253.167 191.355 260.705 180.458 264.614 174.724Z"/>
<path d="M176.573 318.395C176.316 318.283 176.118 318.069 176.027 317.804L171.153 303.642C171.071 303.405 171.082 303.146 171.182 302.916L176.052 291.781C176.129 291.606 176.254 291.456 176.414 291.35L184.762 285.783C184.91 285.684 185.028 285.548 185.106 285.388L189.305 276.755C189.365 276.631 189.399 276.496 189.405 276.358L190.621 246.92L193.048 212.45C193.063 212.241 193.143 212.041 193.277 211.88L196.079 208.516C196.443 208.08 197.095 208.034 197.517 208.413L201.361 211.874C201.543 212.038 201.658 212.255 201.685 212.499C202.922 223.567 205.317 245.37 205.317 246.92C205.317 248.474 207.242 267 208.23 276.315C208.248 276.484 208.308 276.64 208.405 276.779L214.503 285.459C214.584 285.573 214.687 285.67 214.807 285.742L224.214 291.388C224.351 291.47 224.466 291.584 224.55 291.72L229.325 299.452C229.478 299.7 229.515 300.003 229.426 300.282L223.82 317.806C223.736 318.07 223.546 318.287 223.295 318.405L201.319 328.806C201.058 328.929 200.757 328.934 200.492 328.818L176.573 318.395Z"/>
<path d="M171.839 168.415C171.994 168.747 171.955 169.137 171.737 169.432L165.371 178.047C164.819 178.794 163.636 178.451 163.569 177.524L162.796 166.694C162.787 166.568 162.755 166.446 162.7 166.332L157.074 154.609C156.965 154.38 156.773 154.202 156.537 154.11L141.586 148.268C141.355 148.178 141.1 148.176 140.868 148.264L132.515 151.42C131.674 151.738 130.874 150.872 131.256 150.059L131.958 148.568C132.089 148.29 132.34 148.088 132.639 148.019L149.929 144.046C150.162 143.992 150.407 144.024 150.619 144.136L163.464 150.911C163.658 151.013 163.812 151.175 163.904 151.373L171.839 168.415Z"/>
<path d="M223.204 168.467C223.049 168.799 223.088 169.189 223.306 169.484L229.672 178.099C230.224 178.846 231.408 178.502 231.474 177.576L232.247 166.745C232.256 166.62 232.289 166.497 232.343 166.384L237.969 154.66C238.078 154.432 238.27 154.254 238.506 154.161L253.457 148.319C253.688 148.229 253.943 148.228 254.175 148.315L262.528 151.472C263.369 151.79 264.169 150.924 263.787 150.111L263.085 148.619C262.954 148.342 262.703 148.139 262.404 148.071L245.115 144.097C244.881 144.044 244.636 144.076 244.424 144.188L231.579 150.963C231.386 151.064 231.231 151.227 231.139 151.425L223.204 168.467Z"/>
<path d="M129.82 81.3872C130.01 81.3622 130.197 81.3933 130.37 81.475L150.519 90.9739C150.703 91.0608 150.856 91.202 150.958 91.3785L166.696 118.645C166.935 119.06 166.847 119.585 166.486 119.899L151.316 133.109C146.259 136.529 136.194 143.714 136.39 145.098C136.585 146.475 121.688 148.048 114.097 148.674C114.016 148.68 113.938 148.677 113.857 148.664L59.9181 139.852L38.555 137.733C38.4164 137.72 38.2822 137.677 38.161 137.608L21.8582 128.376C21.3823 128.107 21.2112 127.505 21.474 127.026L27.4315 116.157C27.5433 115.953 27.7226 115.794 27.9387 115.708L38.0189 111.698C55.4551 103.625 90.6991 87.3378 92.1846 86.7794C93.6585 86.2252 117.703 82.9784 129.82 81.3872Z"/>
<path d="M147.626 112.502C148.104 112.226 148.268 111.615 147.992 111.136L144.527 105.134C144.453 105.006 144.352 104.896 144.231 104.812L138.891 101.109C138.82 101.06 138.742 101.02 138.66 100.99L117.043 93.2007C116.84 93.1276 116.619 93.122 116.413 93.1848L86.2594 102.364L41.6849 117.992C41.6262 118.012 41.5696 118.038 41.5157 118.069L37.8335 120.196C36.9352 120.715 37.3234 122.089 38.3603 122.062L44.6156 121.894L92.4441 115.523C92.6447 115.496 92.8324 115.409 92.9825 115.273L98.518 110.271C98.8312 109.988 99.2882 109.932 99.6603 110.131L108.932 115.093C109.237 115.256 109.608 115.254 109.891 115.056C112.584 113.171 113.892 109.406 122.104 107.895C122.32 107.856 122.548 107.89 122.743 107.992L128.974 111.253C129.504 111.531 129.674 112.209 129.336 112.703L125.424 118.426C125.336 118.554 125.28 118.701 125.259 118.855L124.561 123.96C124.449 124.784 125.332 125.377 126.052 124.962L147.626 112.502Z"/>
<path d="M286.92 105.558C286.743 105.485 286.555 105.466 286.366 105.5L264.446 109.459C264.246 109.495 264.061 109.592 263.917 109.736L241.661 131.999C241.322 132.338 241.271 132.868 241.538 133.265L252.774 149.952C256.774 154.565 264.637 164.111 264.089 165.397C263.544 166.676 277.527 172.053 284.697 174.622C284.774 174.65 284.851 174.667 284.932 174.675L339.313 180.128L360.496 183.613C360.634 183.635 360.775 183.629 360.909 183.594L379.045 178.897C379.575 178.76 379.896 178.223 379.766 177.692L376.824 165.651C376.768 165.425 376.636 165.225 376.45 165.086L367.751 158.603C352.997 146.291 323.168 121.434 321.878 120.51C320.598 119.593 298.213 110.232 286.92 105.558Z"/>
<path d="M258.828 135.324C258.437 134.934 258.437 134.301 258.828 133.91L263.727 129.009C263.832 128.905 263.958 128.825 264.097 128.775L270.212 126.581C270.294 126.552 270.38 126.533 270.466 126.526L293.362 124.598C293.577 124.58 293.792 124.632 293.975 124.746L320.726 141.419L359.739 168.055C359.79 168.09 359.838 168.129 359.882 168.173L362.888 171.181C363.622 171.914 362.891 173.142 361.897 172.846L355.898 171.066L311.348 152.528C311.161 152.45 311.002 152.318 310.892 152.148L306.839 145.883C306.61 145.529 306.183 145.356 305.772 145.452L295.533 147.844C295.196 147.923 294.838 147.825 294.616 147.56C292.503 145.043 292.214 141.067 284.671 137.482C284.473 137.388 284.244 137.362 284.03 137.41L277.167 138.947C276.583 139.077 276.244 139.689 276.442 140.254L278.74 146.794C278.792 146.941 278.809 147.097 278.789 147.252L278.142 152.363C278.037 153.188 277.03 153.532 276.442 152.944L258.828 135.324Z"/>
<path d="M149.345 133.488C148.872 133.211 148.71 132.605 148.982 132.129L154.37 122.698L160.673 111.786C160.716 111.711 160.77 111.641 160.831 111.579L170.925 101.483C170.992 101.416 171.068 101.359 171.151 101.313L183.293 94.6448C183.44 94.5638 183.606 94.5214 183.774 94.5214H206.858C206.973 94.5214 207.087 94.5413 207.196 94.5802L225.796 101.259C226.016 101.338 226.202 101.493 226.32 101.695L238.629 122.698L244.733 132.196C245.019 132.641 244.908 133.232 244.481 133.544L233.485 141.564L222.858 150.986C222.759 151.074 222.678 151.181 222.621 151.301L213.183 170.89C213.016 171.236 212.666 171.456 212.282 171.456H186.105C185.721 171.456 185.371 171.236 185.204 170.89L175.783 151.335C175.715 151.193 175.615 151.07 175.49 150.975L163.188 141.564C161.901 140.829 153.903 136.154 149.345 133.488Z"/>
<path d="M174.981 311.824C173.336 309.796 173.96 303.794 174.478 301.046L175.276 298.688C175.443 298.193 175.964 297.91 176.471 298.04L177.658 298.343C177.982 298.426 178.243 298.666 178.354 298.982L180.083 303.927C180.289 304.516 180.979 304.775 181.521 304.466L187.909 300.835C188.219 300.659 188.599 300.661 188.907 300.84L195.927 304.927C196.075 305.013 196.243 305.06 196.414 305.064C199.246 305.127 201.48 305.477 202.21 305.013C202.929 304.557 208.874 302.472 212.154 300.791C212.442 300.643 212.779 300.637 213.078 300.761C215.317 301.687 219.446 302.517 221.227 303.155C222.781 303.712 223.034 300.238 222.93 297.41C222.902 296.624 223.727 296.064 224.431 296.416C225.111 296.757 225.832 297.117 226.356 297.377C227.352 297.871 225.007 306.134 223.621 310.493C223.556 310.696 223.429 310.87 223.257 310.995L203.191 325.535C203.021 325.659 202.815 325.725 202.604 325.725H197.06C196.918 325.725 196.784 325.699 196.656 325.639C191.132 323.083 176.607 313.828 174.981 311.824Z"/>
<path d="M259.767 171.464C259.88 171.297 259.939 171.103 259.939 170.903V161.579C259.939 161.314 259.833 161.06 259.646 160.872L257.489 158.715L241.385 169.775C241.187 169.911 241.045 170.114 240.984 170.346L237.159 184.932L238.758 188.929C238.959 189.432 239.522 189.683 240.033 189.505C244.03 188.112 249.596 186.583 250.141 186.402C250.72 186.209 255.943 177.121 259.767 171.464Z"/>
</mask>
<path d="M125.745 97.3855C125.798 97.1762 125.916 96.9895 126.084 96.8532L157.523 71.2249C157.702 71.0794 157.925 71 158.155 71H236.308C236.542 71 236.768 71.0818 236.948 71.2312L267.75 96.8543C267.913 96.99 268.029 97.1741 268.081 97.3798L280.21 145.74C280.249 145.894 280.25 146.055 280.214 146.209L268.034 198.782C268.012 198.875 267.978 198.964 267.931 199.048L256.338 219.593C256.289 219.68 256.254 219.773 256.233 219.87L250.896 244.132C250.883 244.194 250.863 244.254 250.839 244.312L234.008 283.484L223.662 318.068C223.579 318.346 223.38 318.574 223.116 318.693L201.265 328.576C201.012 328.69 200.724 328.694 200.468 328.588L176.695 318.677C176.432 318.568 176.229 318.351 176.135 318.083L164.096 283.484L147.022 244.225L138.237 219.814C138.215 219.754 138.188 219.696 138.155 219.641L125.909 199.062C125.854 198.969 125.814 198.869 125.791 198.763L114.005 144.733C113.972 144.583 113.975 144.427 114.012 144.277L125.745 97.3855Z" fill="#A6968D"/>
<path d="M162.276 156.125C162.141 155.342 161.192 155.021 160.61 155.562L141.56 173.257C141.447 173.361 141.311 173.439 141.164 173.483L133.772 175.681C133.086 175.885 132.83 176.723 133.285 177.276L143.838 190.077L155.944 204.125C156.037 204.232 156.104 204.353 156.144 204.489C159.837 216.973 167.107 242.03 167.107 243.98C167.107 245.923 172.079 262.307 174.632 270.469C174.678 270.615 174.755 270.744 174.86 270.855L182.414 278.789C183.078 279.486 184.247 278.934 184.131 277.978L174.719 201.011C174.706 200.909 174.678 200.81 174.636 200.717L167.16 184.314C167.125 184.236 167.099 184.154 167.085 184.069L162.276 156.125Z" fill="#9A8C84"/>
<path d="M231.92 157.847C231.961 157.057 232.859 156.625 233.502 157.086L256.128 173.318C256.218 173.383 256.319 173.432 256.426 173.464L263.881 175.681C264.567 175.885 264.823 176.723 264.367 177.276L253.815 190.077L241.708 204.125C241.616 204.232 241.549 204.353 241.509 204.489C237.815 216.973 230.546 242.03 230.546 243.98C230.546 245.923 225.573 262.307 223.021 270.469C222.975 270.615 222.898 270.744 222.792 270.855L215.239 278.789C214.575 279.486 213.405 278.934 213.522 277.978L222.934 201.011C222.946 200.909 222.974 200.81 223.017 200.717L230.467 184.369C230.519 184.255 230.549 184.132 230.556 184.007L231.92 157.847Z" fill="#9A8C84"/>
<path d="M139.771 105.706C139.706 105.763 139.649 105.828 139.602 105.899L116.899 139.75C116.275 140.68 114.826 140.038 115.098 138.95L125.387 97.7815C125.439 97.5737 125.556 97.3881 125.722 97.2519L157.032 71.473C157.211 71.3256 157.436 71.245 157.668 71.245H236.066C236.298 71.245 236.522 71.3256 236.701 71.473L268.009 97.2499C268.176 97.3873 268.294 97.5751 268.345 97.7851L278.478 139.364C278.755 140.499 277.193 141.106 276.63 140.082L257.132 104.563C257.045 104.405 256.917 104.274 256.762 104.182L228.076 87.303C227.929 87.2164 227.762 87.1689 227.591 87.1651L162.844 85.7096C162.592 85.704 162.348 85.7932 162.16 85.9594L139.771 105.706Z" fill="#9D8B81"/>
<path d="M125.591 176.06C125.527 175.916 125.5 175.762 125.508 175.605L126.312 160.435C126.32 160.278 126.365 160.125 126.444 159.988L130.79 152.459C130.911 152.249 131.105 152.09 131.335 152.012L140.862 148.788C141.063 148.72 141.277 148.717 141.479 148.781C146.599 150.398 156.334 153.602 156.641 154.223C156.949 154.845 160.695 162.226 162.625 166.027C162.691 166.158 162.727 166.3 162.731 166.447L163.118 179.676C163.119 179.725 163.117 179.773 163.112 179.822L161.32 195.119L160.778 202.696C160.72 203.506 159.772 203.913 159.145 203.397L156.103 200.892C156.06 200.857 156.015 200.825 155.967 200.798L143.948 193.856C140.665 191.866 133.694 187.708 132.069 186.996C130.477 186.298 127.15 179.551 125.591 176.06Z" fill="#D5B9A9"/>
<path d="M269.047 176.06C269.111 175.916 269.139 175.762 269.13 175.605L268.327 160.435C268.318 160.278 268.273 160.125 268.194 159.988L263.848 152.459C263.727 152.249 263.533 152.09 263.303 152.012L253.776 148.788C253.575 148.72 253.361 148.717 253.159 148.781C248.039 150.398 238.304 153.602 237.997 154.223C237.689 154.845 233.944 162.226 232.014 166.027C231.947 166.158 231.911 166.3 231.907 166.447L231.52 179.676C231.519 179.725 231.521 179.773 231.527 179.822L233.318 195.119L233.86 202.696C233.918 203.506 234.867 203.913 235.493 203.397L238.536 200.892C238.578 200.857 238.624 200.825 238.671 200.798L250.691 193.856C253.973 191.866 260.944 187.708 262.57 186.996C264.161 186.298 267.488 179.551 269.047 176.06Z" fill="#D5B9A9"/>
<path d="M131.079 174.724C130.934 174.511 130.88 174.254 130.922 174L132.975 161.679C133.028 161.357 133.236 161.082 133.531 160.941L138.204 158.715L154.308 169.775C154.506 169.911 154.648 170.114 154.709 170.346L158.534 184.932L156.101 195.108C155.962 195.69 155.348 196.022 154.786 195.815C150.562 194.264 143.643 191.727 143.103 191.547C142.526 191.355 134.988 180.458 131.079 174.724Z" fill="#BAA091"/>
<path d="M135.926 171.464C135.814 171.297 135.755 171.103 135.755 170.903V161.579C135.755 161.314 135.86 161.06 136.047 160.872L138.204 158.715L154.308 169.775C154.506 169.911 154.648 170.114 154.709 170.346L158.534 184.932L156.935 188.929C156.734 189.432 156.171 189.683 155.66 189.505C151.663 188.112 146.097 186.583 145.552 186.402C144.973 186.209 139.75 177.121 135.926 171.464Z" fill="#756F6C"/>
<path d="M264.614 174.724C264.759 174.511 264.814 174.254 264.772 174L262.719 161.679C262.665 161.357 262.457 161.082 262.162 160.941L257.489 158.715L241.385 169.775C241.187 169.911 241.045 170.114 240.984 170.346L237.159 184.932L239.592 195.108C239.731 195.69 240.345 196.022 240.907 195.815C245.132 194.264 252.051 191.727 252.591 191.547C253.167 191.355 260.705 180.458 264.614 174.724Z" fill="#BAA091"/>
<path d="M176.573 318.395C176.316 318.283 176.118 318.069 176.027 317.804L171.153 303.642C171.071 303.405 171.082 303.146 171.182 302.916L176.052 291.781C176.129 291.606 176.254 291.456 176.414 291.35L184.762 285.783C184.91 285.684 185.028 285.548 185.106 285.388L189.305 276.755C189.365 276.631 189.399 276.496 189.405 276.358L190.621 246.92L193.048 212.45C193.063 212.241 193.143 212.041 193.277 211.88L196.079 208.516C196.443 208.08 197.095 208.034 197.517 208.413L201.361 211.874C201.543 212.038 201.658 212.255 201.685 212.499C202.922 223.567 205.317 245.37 205.317 246.92C205.317 248.474 207.242 267 208.23 276.315C208.248 276.484 208.308 276.64 208.405 276.779L214.503 285.459C214.584 285.573 214.687 285.67 214.807 285.742L224.214 291.388C224.351 291.47 224.466 291.584 224.55 291.72L229.325 299.452C229.478 299.7 229.515 300.003 229.426 300.282L223.82 317.806C223.736 318.07 223.546 318.287 223.295 318.405L201.319 328.806C201.058 328.929 200.757 328.934 200.492 328.818L176.573 318.395Z" fill="#C7B5AB"/>
<path d="M171.839 168.415C171.994 168.747 171.955 169.137 171.737 169.432L165.371 178.047C164.819 178.794 163.636 178.451 163.569 177.524L162.796 166.694C162.787 166.568 162.755 166.446 162.7 166.332L157.074 154.609C156.965 154.38 156.773 154.202 156.537 154.11L141.586 148.268C141.355 148.178 141.1 148.176 140.868 148.264L132.515 151.42C131.674 151.738 130.874 150.872 131.256 150.059L131.958 148.568C132.089 148.29 132.34 148.088 132.639 148.019L149.929 144.046C150.162 143.992 150.407 144.024 150.619 144.136L163.464 150.911C163.658 151.013 163.812 151.175 163.904 151.373L171.839 168.415Z" fill="#9A8B82"/>
<path d="M223.204 168.467C223.049 168.799 223.088 169.189 223.306 169.484L229.672 178.099C230.224 178.846 231.408 178.502 231.474 177.576L232.247 166.745C232.256 166.62 232.289 166.497 232.343 166.384L237.969 154.66C238.078 154.432 238.27 154.254 238.506 154.161L253.457 148.319C253.688 148.229 253.943 148.228 254.175 148.315L262.528 151.472C263.369 151.79 264.169 150.924 263.787 150.111L263.085 148.619C262.954 148.342 262.703 148.139 262.404 148.071L245.115 144.097C244.881 144.044 244.636 144.076 244.424 144.188L231.579 150.963C231.386 151.064 231.231 151.227 231.139 151.425L223.204 168.467Z" fill="#9A8B82"/>
<path d="M129.82 81.3872C130.01 81.3622 130.197 81.3933 130.37 81.475L150.519 90.9739C150.703 91.0608 150.856 91.202 150.958 91.3785L166.696 118.645C166.935 119.06 166.847 119.585 166.486 119.899L151.316 133.109C146.259 136.529 136.194 143.714 136.39 145.098C136.585 146.475 121.688 148.048 114.097 148.674C114.016 148.68 113.938 148.677 113.857 148.664L59.9181 139.852L38.555 137.733C38.4164 137.72 38.2822 137.677 38.161 137.608L21.8582 128.376C21.3823 128.107 21.2112 127.505 21.474 127.026L27.4315 116.157C27.5433 115.953 27.7226 115.794 27.9387 115.708L38.0189 111.698C55.4551 103.625 90.6991 87.3378 92.1846 86.7794C93.6585 86.2252 117.703 82.9784 129.82 81.3872Z" fill="#B4A096"/>
<path d="M147.626 112.502C148.104 112.226 148.268 111.615 147.992 111.136L144.527 105.134C144.453 105.006 144.352 104.896 144.231 104.812L138.891 101.109C138.82 101.06 138.742 101.02 138.66 100.99L117.043 93.2007C116.84 93.1276 116.619 93.122 116.413 93.1848L86.2594 102.364L41.6849 117.992C41.6262 118.012 41.5696 118.038 41.5157 118.069L37.8335 120.196C36.9352 120.715 37.3234 122.089 38.3603 122.062L44.6156 121.894L92.4441 115.523C92.6447 115.496 92.8324 115.409 92.9825 115.273L98.518 110.271C98.8312 109.988 99.2882 109.932 99.6603 110.131L108.932 115.093C109.237 115.256 109.608 115.254 109.891 115.056C112.584 113.171 113.892 109.406 122.104 107.895C122.32 107.856 122.548 107.89 122.743 107.992L128.974 111.253C129.504 111.531 129.674 112.209 129.336 112.703L125.424 118.426C125.336 118.554 125.28 118.701 125.259 118.855L124.561 123.96C124.449 124.784 125.332 125.377 126.052 124.962L147.626 112.502Z" fill="#938781"/>
<path d="M286.92 105.558C286.743 105.485 286.555 105.466 286.366 105.5L264.446 109.459C264.246 109.495 264.061 109.592 263.917 109.736L241.661 131.999C241.322 132.338 241.271 132.868 241.538 133.265L252.774 149.952C256.774 154.565 264.637 164.111 264.089 165.397C263.544 166.676 277.527 172.053 284.697 174.622C284.774 174.65 284.851 174.667 284.932 174.675L339.313 180.128L360.496 183.613C360.634 183.635 360.775 183.629 360.909 183.594L379.045 178.897C379.575 178.76 379.896 178.223 379.766 177.692L376.824 165.651C376.768 165.425 376.636 165.225 376.45 165.086L367.751 158.603C352.997 146.291 323.168 121.434 321.878 120.51C320.598 119.593 298.213 110.232 286.92 105.558Z" fill="#B4A096"/>
<path d="M258.828 135.324C258.437 134.934 258.437 134.301 258.828 133.91L263.727 129.009C263.832 128.905 263.958 128.825 264.097 128.775L270.212 126.581C270.294 126.552 270.38 126.533 270.466 126.526L293.362 124.598C293.577 124.58 293.792 124.632 293.975 124.746L320.726 141.419L359.739 168.055C359.79 168.09 359.838 168.129 359.882 168.173L362.888 171.181C363.622 171.914 362.891 173.142 361.897 172.846L355.898 171.066L311.348 152.528C311.161 152.45 311.002 152.318 310.892 152.148L306.839 145.883C306.61 145.529 306.183 145.356 305.772 145.452L295.533 147.844C295.196 147.923 294.838 147.825 294.616 147.56C292.503 145.043 292.214 141.067 284.671 137.482C284.473 137.388 284.244 137.362 284.03 137.41L277.167 138.947C276.583 139.077 276.244 139.689 276.442 140.254L278.74 146.794C278.792 146.941 278.809 147.097 278.789 147.252L278.142 152.363C278.037 153.188 277.03 153.532 276.442 152.944L258.828 135.324Z" fill="#938781"/>
<path d="M149.345 133.488C148.872 133.211 148.71 132.605 148.982 132.129L154.37 122.698L160.673 111.786C160.716 111.711 160.77 111.641 160.831 111.579L170.925 101.483C170.992 101.416 171.068 101.359 171.151 101.313L183.293 94.6448C183.44 94.5638 183.606 94.5214 183.774 94.5214H206.858C206.973 94.5214 207.087 94.5413 207.196 94.5802L225.796 101.259C226.016 101.338 226.202 101.493 226.32 101.695L238.629 122.698L244.733 132.196C245.019 132.641 244.908 133.232 244.481 133.544L233.485 141.564L222.858 150.986C222.759 151.074 222.678 151.181 222.621 151.301L213.183 170.89C213.016 171.236 212.666 171.456 212.282 171.456H186.105C185.721 171.456 185.371 171.236 185.204 170.89L175.783 151.335C175.715 151.193 175.615 151.07 175.49 150.975L163.188 141.564C161.901 140.829 153.903 136.154 149.345 133.488Z" fill="#B19E92"/>
<path d="M174.981 311.824C173.336 309.796 173.96 303.794 174.478 301.046L175.276 298.688C175.443 298.193 175.964 297.91 176.471 298.04L177.658 298.343C177.982 298.426 178.243 298.666 178.354 298.982L180.083 303.927C180.289 304.516 180.979 304.775 181.521 304.466L187.909 300.835C188.219 300.659 188.599 300.661 188.907 300.84L195.927 304.927C196.075 305.013 196.243 305.06 196.414 305.064C199.246 305.127 201.48 305.477 202.21 305.013C202.929 304.557 208.874 302.472 212.154 300.791C212.442 300.643 212.779 300.637 213.078 300.761C215.317 301.687 219.446 302.517 221.227 303.155C222.781 303.712 223.034 300.238 222.93 297.41C222.902 296.624 223.727 296.064 224.431 296.416C225.111 296.757 225.832 297.117 226.356 297.377C227.352 297.871 225.007 306.134 223.621 310.493C223.556 310.696 223.429 310.87 223.257 310.995L203.191 325.535C203.021 325.659 202.815 325.725 202.604 325.725H197.06C196.918 325.725 196.784 325.699 196.656 325.639C191.132 323.083 176.607 313.828 174.981 311.824Z" fill="#817272"/>
<path d="M259.767 171.464C259.88 171.297 259.939 171.103 259.939 170.903V161.579C259.939 161.314 259.833 161.06 259.646 160.872L257.489 158.715L241.385 169.775C241.187 169.911 241.045 170.114 240.984 170.346L237.159 184.932L238.758 188.929C238.959 189.432 239.522 189.683 240.033 189.505C244.03 188.112 249.596 186.583 250.141 186.402C250.72 186.209 255.943 177.121 259.767 171.464Z" fill="#756F6C"/>
<path d="M240.984 170.346L247.755 172.121L240.984 170.346ZM241.385 169.775L237.422 164.005L241.385 169.775ZM154.709 170.346L147.938 172.121L154.709 170.346ZM154.308 169.775L158.271 164.005L154.308 169.775ZM165.305 183.156L161.48 168.57L147.938 172.121L151.763 186.707L165.305 183.156ZM158.271 164.005L142.167 152.945L134.241 164.485L150.345 175.545L158.271 164.005ZM243.931 186.707L247.755 172.121L234.213 168.57L230.388 183.156L243.931 186.707ZM245.348 175.545L261.452 164.485L253.526 152.945L237.422 164.005L245.348 175.545ZM247.755 172.121C247.39 173.515 246.535 174.73 245.348 175.545L237.422 164.005C235.839 165.092 234.7 166.713 234.213 168.57L247.755 172.121ZM161.48 168.57C160.993 166.713 159.854 165.092 158.271 164.005L150.345 175.545C149.158 174.73 148.304 173.515 147.938 172.121L161.48 168.57ZM147.022 244.225L133.849 248.966L134.003 249.393L134.184 249.809L147.022 244.225ZM164.096 283.484L177.318 278.883L177.145 278.385L176.934 277.901L164.096 283.484ZM234.008 283.484L221.145 277.958L220.826 278.699L220.595 279.472L234.008 283.484ZM143.838 190.077L133.035 198.982L133.132 199.1L133.232 199.216L143.838 190.077ZM253.815 190.077L264.42 199.216L264.52 199.1L264.618 198.982L253.815 190.077ZM132.069 186.996L137.688 174.173L137.688 174.173L132.069 186.996ZM143.948 193.856L136.69 205.828L136.817 205.905L136.946 205.98L143.948 193.856ZM161.32 195.119L147.415 193.49L147.378 193.804L147.356 194.12L161.32 195.119ZM156.641 154.223L144.091 160.426L144.091 160.426L156.641 154.223ZM262.57 186.996L256.95 174.173L256.95 174.173L262.57 186.996ZM250.691 193.856L257.692 205.979L257.821 205.905L257.949 205.828L250.691 193.856ZM233.318 195.119L247.282 194.12L247.26 193.804L247.223 193.49L233.318 195.119ZM237.997 154.223L250.548 160.426V160.426L237.997 154.223ZM143.103 191.547L147.531 178.266L147.531 178.266L143.103 191.547ZM158.534 184.932L172.15 188.187L145.535 179.734L158.534 184.932ZM138.204 158.715L148.105 168.613L132.183 146.076L138.204 158.715ZM145.552 186.402L141.124 199.683H141.124L145.552 186.402ZM252.591 191.547L248.162 178.266L248.162 178.266L252.591 191.547ZM237.159 184.932L250.159 179.734L223.543 188.187L237.159 184.932ZM257.489 158.715L263.51 146.076L247.588 168.613L257.489 158.715ZM190.621 246.92L176.656 245.937L176.641 246.14L176.633 246.342L190.621 246.92ZM92.1846 86.7794L97.1112 99.8839L97.1112 99.8839L92.1846 86.7794ZM38.0189 111.698L43.1938 124.707L43.5517 124.564L43.9013 124.402L38.0189 111.698ZM59.9181 139.852L62.1752 126.035L61.7393 125.964L61.2997 125.92L59.9181 139.852ZM136.39 145.098L122.529 147.063V147.063L136.39 145.098ZM151.316 133.109L159.158 144.706L159.865 144.228L160.509 143.667L151.316 133.109ZM44.6156 121.894L44.9894 135.89L45.73 135.87L46.4644 135.772L44.6156 121.894ZM86.2594 102.364L82.1823 88.9711L81.903 89.0561L81.6276 89.1527L86.2594 102.364ZM321.878 120.51L313.727 131.893V131.893L321.878 120.51ZM367.751 158.603L358.78 169.352L359.076 169.599L359.385 169.829L367.751 158.603ZM339.313 180.128L341.585 166.314L341.15 166.242L340.71 166.198L339.313 180.128ZM264.089 165.397L276.97 170.881L276.97 170.881L264.089 165.397ZM252.774 149.952L241.161 157.771L241.638 158.48L242.197 159.125L252.774 149.952ZM355.898 171.066L350.519 183.991L351.203 184.276L351.914 184.487L355.898 171.066ZM320.726 141.419L328.62 129.857L328.379 129.693L328.131 129.538L320.726 141.419ZM154.37 122.698L142.247 115.696L142.23 115.725L142.214 115.754L154.37 122.698ZM163.188 141.564L171.694 130.444L170.949 129.875L170.135 129.41L163.188 141.564ZM233.485 141.564L225.235 130.253L224.696 130.646L224.197 131.089L233.485 141.564ZM238.629 122.698L226.55 129.776L226.696 130.025L226.851 130.267L238.629 122.698ZM174.478 301.046L161.216 296.56L160.902 297.489L160.72 298.454L174.478 301.046ZM174.981 311.824L185.853 303.004L174.981 311.824ZM226.356 297.377L220.134 309.918H220.134L226.356 297.377ZM221.227 303.155L216.505 316.335H216.505L221.227 303.155ZM202.21 305.013L209.717 316.83H209.717L202.21 305.013ZM250.141 186.402L254.57 199.683L250.141 186.402ZM203.191 325.535L211.406 336.872L203.191 325.535ZM188.907 300.84L181.863 312.94L188.907 300.84ZM187.909 300.835L194.828 313.006L187.909 300.835ZM196.414 305.064L196.099 319.06L196.414 305.064ZM195.927 304.927L202.97 292.828L195.927 304.927ZM223.621 310.493L236.962 314.736L223.621 310.493ZM223.257 310.995L231.472 322.331L223.257 310.995ZM196.656 325.639L202.534 312.933L196.656 325.639ZM222.621 151.301L210.008 145.224L222.621 151.301ZM222.858 150.986L232.146 161.462L222.858 150.986ZM175.49 150.975L166.984 162.094L175.49 150.975ZM175.783 151.335L163.171 157.411L175.783 151.335ZM160.831 111.579L170.732 121.477L160.831 111.579ZM160.673 111.786L172.796 118.788L160.673 111.786ZM171.151 101.313L177.89 113.584L171.151 101.313ZM170.925 101.483L161.024 91.5847L170.925 101.483ZM183.293 94.6448L190.032 106.916L183.293 94.6448ZM207.196 94.5802L202.464 107.756L207.196 94.5802ZM226.32 101.695L238.399 94.6163L226.32 101.695ZM225.796 101.259L230.527 88.0829L225.796 101.259ZM244.481 133.544L236.231 122.233L244.481 133.544ZM244.733 132.196L256.51 124.627L244.733 132.196ZM213.183 170.89L200.57 164.813L213.183 170.89ZM185.204 170.89L172.592 176.966L185.204 170.89ZM148.982 132.129L136.826 125.185L148.982 132.129ZM149.345 133.488L142.277 145.573L149.345 133.488ZM310.892 152.148L299.137 159.752L310.892 152.148ZM311.348 152.528L305.969 165.454L311.348 152.528ZM305.772 145.452L302.588 131.819L305.772 145.452ZM306.839 145.883L295.084 153.487L306.839 145.883ZM270.466 126.526L271.641 140.476L270.466 126.526ZM270.212 126.581L265.485 113.403L270.212 126.581ZM293.975 124.746L301.38 112.865L293.975 124.746ZM293.362 124.598L294.537 138.549L293.362 124.598ZM359.882 168.173L349.981 178.071L359.882 168.173ZM359.739 168.055L367.633 156.492L359.739 168.055ZM361.897 172.846L357.912 186.268L361.897 172.846ZM362.888 171.181L372.789 161.283L362.888 171.181ZM294.616 147.56L283.893 156.562L294.616 147.56ZM295.533 147.844L292.348 134.211L295.533 147.844ZM284.03 137.41L280.971 123.748L284.03 137.41ZM284.671 137.482L278.661 150.126L284.671 137.482ZM276.442 140.254L263.234 144.895L276.442 140.254ZM277.167 138.947L274.108 125.285L277.167 138.947ZM278.789 147.252L264.9 145.493L278.789 147.252ZM278.74 146.794L265.532 151.435L278.74 146.794ZM278.142 152.363L292.031 154.122L278.142 152.363ZM276.442 152.944L266.541 162.842L276.442 152.944ZM258.828 133.91L268.729 143.808L258.828 133.91ZM258.828 135.324L248.927 145.222L258.828 135.324ZM263.727 129.009L273.628 138.907L263.727 129.009ZM264.097 128.775L259.37 115.597L264.097 128.775ZM360.909 183.594L357.4 170.041L360.909 183.594ZM360.496 183.613L358.224 197.427L360.496 183.613ZM379.766 177.692L366.166 181.015L379.766 177.692ZM379.045 178.897L382.555 192.45L379.045 178.897ZM376.45 165.086L384.816 153.861L376.45 165.086ZM376.824 165.651L363.224 168.974L376.824 165.651ZM241.538 133.265L229.925 141.084L241.538 133.265ZM241.661 131.999L251.562 141.897L241.661 131.999ZM284.932 174.675L286.329 160.745L284.932 174.675ZM284.697 174.622L289.42 161.443L284.697 174.622ZM286.366 105.5L283.878 91.7233L286.366 105.5ZM286.92 105.558L292.274 92.6223L286.92 105.558ZM264.446 109.459L266.935 123.236L264.446 109.459ZM263.917 109.736L254.016 99.8383L263.917 109.736ZM92.9825 115.273L83.5959 104.886L92.9825 115.273ZM92.4441 115.523L94.2929 129.4L92.4441 115.523ZM99.6603 110.131L93.0551 122.475L99.6603 110.131ZM98.518 110.271L89.1314 99.8839L98.518 110.271ZM138.66 100.99L143.407 87.8194L138.66 100.99ZM138.891 101.109L146.869 89.6046L138.891 101.109ZM116.413 93.1848L112.336 79.7917L116.413 93.1848ZM117.043 93.2007L112.297 106.372L117.043 93.2007ZM41.5157 118.069L48.5173 130.193L41.5157 118.069ZM41.6849 117.992L37.0531 104.78L41.6849 117.992ZM38.3603 122.062L37.9865 108.067L38.3603 122.062ZM109.891 115.056L101.863 103.586L109.891 115.056ZM108.932 115.093L102.327 127.436L108.932 115.093ZM122.743 107.992L116.251 120.396L122.743 107.992ZM122.104 107.895L119.572 94.1265L122.104 107.895ZM129.336 112.703L117.778 104.803L129.336 112.703ZM128.974 111.253L122.483 123.657L128.974 111.253ZM125.259 118.855L111.387 116.96L125.259 118.855ZM125.424 118.426L136.982 126.327L125.424 118.426ZM124.561 123.96L110.69 122.066L124.561 123.96ZM147.992 111.136L135.866 118.135L147.992 111.136ZM147.626 112.502L140.624 100.379L147.626 112.502ZM144.527 105.134L132.402 112.132L144.527 105.134ZM144.231 104.812L152.208 93.307L144.231 104.812ZM38.161 137.608L45.0596 125.426L38.161 137.608ZM38.555 137.733L37.1734 151.665L38.555 137.733ZM21.474 127.026L33.7508 133.755L21.474 127.026ZM21.8582 128.376L14.9596 140.559L21.8582 128.376ZM27.9387 115.708L22.7638 102.7L27.9387 115.708ZM166.486 119.899L175.68 130.458L166.486 119.899ZM166.696 118.645L178.821 111.647L166.696 118.645ZM113.857 148.664L111.6 162.48L113.857 148.664ZM114.097 148.674L112.948 134.721L114.097 148.674ZM130.37 81.475L124.4 94.1383L130.37 81.475ZM129.82 81.3872L127.997 67.5064L129.82 81.3872ZM150.519 90.9739L156.488 78.3106L150.519 90.9739ZM150.958 91.3785L163.083 84.3801L150.958 91.3785ZM232.343 166.384L219.721 160.327L232.343 166.384ZM232.247 166.745L218.283 165.748L232.247 166.745ZM238.506 154.161L243.602 167.201L238.506 154.161ZM237.969 154.66L250.591 160.717L237.969 154.66ZM254.175 148.315L259.124 135.219L254.175 148.315ZM253.457 148.319L248.362 135.279L253.457 148.319ZM171.737 169.432L160.477 161.112L171.737 169.432ZM171.839 168.415L184.531 162.506L171.839 168.415ZM189.405 276.358L203.393 276.936L189.405 276.358ZM189.305 276.755L201.895 282.878L189.305 276.755ZM208.405 276.779L196.95 284.826L208.405 276.779ZM208.23 276.315L222.152 274.838L208.23 276.315ZM214.807 285.742L207.602 297.745L214.807 285.742ZM214.503 285.459L203.047 293.507L214.503 285.459ZM224.55 291.72L236.463 284.364L224.55 291.72ZM224.214 291.388L231.419 279.384L224.214 291.388ZM229.426 300.282L242.76 304.547L229.426 300.282ZM229.325 299.452L217.412 306.807L229.325 299.452ZM223.295 318.405L229.284 331.059L223.295 318.405ZM223.82 317.806L210.486 313.54L223.82 317.806ZM200.492 328.818L206.085 315.984L200.492 328.818ZM201.319 328.806L207.308 341.46L201.319 328.806ZM176.027 317.804L189.265 313.248L176.027 317.804ZM176.573 318.395L170.98 331.229L176.573 318.395ZM171.153 303.642L157.915 308.198L171.153 303.642ZM171.182 302.916L158.355 297.306L171.182 302.916ZM240.907 195.815L236.081 182.673L240.907 195.815ZM239.592 195.108L225.976 198.363L239.592 195.108ZM264.772 174L278.581 171.699L264.772 174ZM264.614 174.724L276.182 182.609L264.614 174.724ZM262.719 161.679L276.528 159.379L262.719 161.679ZM262.162 160.941L268.183 148.302L262.162 160.941ZM155.66 189.505L151.052 202.725L155.66 189.505ZM156.935 188.929L143.936 183.731L156.935 188.929ZM135.926 171.464L124.327 179.303L135.926 171.464ZM136.047 160.872L126.146 150.974L136.047 160.872ZM154.786 195.815L159.612 182.673L154.786 195.815ZM156.101 195.108L142.485 191.853L156.101 195.108ZM130.922 174L144.731 176.301L130.922 174ZM131.079 174.724L142.647 166.838L131.079 174.724ZM132.975 161.679L119.165 159.379L132.975 161.679ZM133.531 160.941L127.51 148.302L133.531 160.941ZM263.303 152.012L267.791 138.751L263.303 152.012ZM263.848 152.459L275.974 145.461L263.848 152.459ZM253.159 148.781L257.376 162.13L253.159 148.781ZM253.776 148.788L258.264 135.527L253.776 148.788ZM231.907 166.447L217.913 166.038L231.907 166.447ZM232.014 166.027L219.531 159.688L232.014 166.027ZM231.527 179.822L217.622 181.45L231.527 179.822ZM231.52 179.676L217.526 179.267L231.52 179.676ZM235.493 203.397L244.393 214.204L235.493 203.397ZM233.86 202.696L247.825 201.697L233.86 202.696ZM238.671 200.798L231.67 188.674L238.671 200.798ZM238.536 200.892L229.636 190.084L238.536 200.892ZM269.13 175.605L255.15 176.345L269.13 175.605ZM269.047 176.06L256.263 170.352L269.047 176.06ZM268.327 160.435L282.307 159.695L268.327 160.435ZM268.194 159.988L256.069 166.987L268.194 159.988ZM131.335 152.012L126.848 138.751L131.335 152.012ZM130.79 152.459L118.665 145.461L130.79 152.459ZM159.145 203.397L150.245 214.204L159.145 203.397ZM160.778 202.696L146.814 201.697L160.778 202.696ZM155.967 200.798L148.965 212.921L155.967 200.798ZM156.103 200.892L165.002 190.084L156.103 200.892ZM125.722 97.2519L134.62 108.06L125.722 97.2519ZM125.387 97.7815L111.805 94.3869L125.387 97.7815ZM157.032 71.473L148.134 60.6649L157.032 71.473ZM236.701 71.473L245.6 60.6649L236.701 71.473ZM268.345 97.7851L281.947 94.4702L268.345 97.7851ZM268.009 97.2499L276.908 86.4418L268.009 97.2499ZM276.63 140.082L288.903 133.345L276.63 140.082ZM278.478 139.364L292.08 136.049L278.478 139.364ZM256.762 104.182L249.662 116.249L256.762 104.182ZM257.132 104.563L244.859 111.3L257.132 104.563ZM227.591 87.1651L227.906 73.1686L227.591 87.1651ZM228.076 87.303L235.176 75.2368L228.076 87.303ZM162.16 85.9594L171.42 96.459L162.16 85.9594ZM139.602 105.899L151.229 113.698L139.602 105.899ZM139.771 105.706L130.51 95.2069L139.771 105.706ZM116.899 139.75L128.526 147.548L116.899 139.75ZM115.098 138.95L101.516 135.556L115.098 138.95ZM264.367 177.276L253.564 168.371L264.367 177.276ZM263.881 175.681L259.89 189.1L263.881 175.681ZM241.509 204.489L254.933 208.46L241.509 204.489ZM241.708 204.125L252.314 213.264L241.708 204.125ZM222.792 270.855L232.932 280.509L222.792 270.855ZM223.021 270.469L236.383 274.648L223.021 270.469ZM213.522 277.978L227.418 279.677L213.522 277.978ZM215.239 278.789L225.378 288.442L215.239 278.789ZM223.017 200.717L235.756 206.523L223.017 200.717ZM222.934 201.011L209.038 199.311L222.934 201.011ZM230.556 184.007L216.575 183.278L230.556 184.007ZM230.467 184.369L243.206 190.175L230.467 184.369ZM233.502 157.086L241.662 145.711L233.502 157.086ZM231.92 157.847L245.901 158.576L231.92 157.847ZM256.128 173.318L264.288 161.942L256.128 173.318ZM256.426 173.464L252.435 186.883L256.426 173.464ZM263.787 150.111L276.455 144.151L263.787 150.111ZM262.528 151.472L257.579 164.568L262.528 151.472ZM174.86 270.855L185 261.202L174.86 270.855ZM174.632 270.469L187.994 266.291L174.632 270.469ZM262.404 148.071L265.54 134.426L262.404 148.071ZM263.085 148.619L250.417 154.579L263.085 148.619ZM184.131 277.978L198.027 276.278L184.131 277.978ZM182.414 278.789L172.274 288.442L182.414 278.789ZM244.424 144.188L250.955 156.571L244.424 144.188ZM245.115 144.097L241.979 157.742L245.115 144.097ZM174.636 200.717L187.375 194.911L174.636 200.717ZM174.719 201.011L188.615 199.311L174.719 201.011ZM231.139 151.425L243.83 157.334L231.139 151.425ZM231.579 150.963L238.11 163.346L231.579 150.963ZM167.085 184.069L153.288 186.443L167.085 184.069ZM167.16 184.314L179.9 178.508L167.16 184.314ZM223.306 169.484L212.046 177.803L223.306 169.484ZM223.204 168.467L210.512 162.558L223.204 168.467ZM160.61 155.562L170.138 165.819L160.61 155.562ZM162.276 156.125L148.479 158.499L162.276 156.125ZM229.672 178.099L240.932 169.779L229.672 178.099ZM231.474 177.576L245.438 178.573L231.474 177.576ZM141.56 173.257L132.032 162.999L141.56 173.257ZM141.164 173.483L145.155 186.902L141.164 173.483ZM162.7 166.332L175.322 160.276L162.7 166.332ZM162.796 166.694L176.76 165.697L162.796 166.694ZM256.233 219.87L242.559 216.863L256.233 219.87ZM256.338 219.593L268.531 226.473L256.338 219.593ZM156.537 154.11L161.632 141.07L156.537 154.11ZM157.074 154.609L144.452 160.665L157.074 154.609ZM138.155 219.641L126.124 226.8L138.155 219.641ZM138.237 219.814L125.064 224.555L138.237 219.814ZM140.868 148.264L145.817 161.36L140.868 148.264ZM141.586 148.268L146.681 135.228L141.586 148.268ZM236.948 71.2312L245.901 60.4682L236.948 71.2312ZM141.479 148.781L145.697 135.431L141.479 148.781ZM140.862 148.788L145.35 162.049L140.862 148.788ZM163.904 151.373L151.213 157.283L163.904 151.373ZM163.464 150.911L169.996 138.528L163.464 150.911ZM259.646 160.872L249.745 170.77L259.646 160.872ZM250.839 244.312L237.976 238.786L250.839 244.312ZM250.896 244.132L264.57 247.14L250.896 244.132ZM162.731 166.447L148.737 166.857L162.731 166.447ZM162.625 166.027L175.107 159.688L162.625 166.027ZM165.371 178.047L154.111 169.727L165.371 178.047ZM163.569 177.524L149.605 178.521L163.569 177.524ZM178.354 298.982L191.569 294.36L178.354 298.982ZM177.658 298.343L174.19 311.907L177.658 298.343ZM223.116 318.693L228.886 331.449L223.116 318.693ZM223.662 318.068L210.249 314.056L223.662 318.068ZM163.112 179.822L177.017 181.45L163.112 179.822ZM163.118 179.676L149.124 180.085L163.118 179.676ZM176.414 291.35L168.646 279.703L176.414 291.35ZM176.052 291.781L163.225 286.171L176.052 291.781ZM175.276 298.688L162.014 294.202L175.276 298.688ZM176.471 298.04L179.938 284.476L176.471 298.04ZM200.468 328.588L195.081 341.51L200.468 328.588ZM201.265 328.576L207.034 341.332L201.265 328.576ZM133.285 177.276L122.482 186.18L133.285 177.276ZM133.772 175.681L129.781 162.262L133.772 175.681ZM193.277 211.88L204.033 220.841L193.277 211.88ZM193.048 212.45L179.082 211.467L193.048 212.45ZM125.791 198.763L112.113 201.747L125.791 198.763ZM125.909 199.062L137.94 191.903L125.909 199.062ZM131.256 150.059L143.925 156.019L131.256 150.059ZM132.515 151.42L137.464 164.517L132.515 151.42ZM240.033 189.505L235.425 176.285L240.033 189.505ZM238.758 188.929L251.757 183.731L238.758 188.929ZM268.081 97.3798L281.66 93.974L268.081 97.3798ZM267.75 96.8543L276.703 86.0913L267.75 96.8543ZM197.517 208.413L188.15 218.818L197.517 208.413ZM196.079 208.516L206.836 217.477L196.079 208.516ZM213.078 300.761L207.726 313.697L213.078 300.761ZM212.154 300.791L218.54 313.249L212.154 300.791ZM114.012 144.277L127.593 147.675L114.012 144.277ZM114.005 144.733L127.683 141.749L114.005 144.733ZM185.106 285.388L197.696 291.511L185.106 285.388ZM184.762 285.783L192.529 297.431L184.762 285.783ZM181.521 304.466L174.603 292.295L181.521 304.466ZM180.083 303.927L166.868 308.549L180.083 303.927ZM176.135 318.083L189.358 313.482L176.135 318.083ZM176.695 318.677L182.082 305.755L176.695 318.677ZM132.639 148.019L129.504 134.375L132.639 148.019ZM131.958 148.568L144.626 154.527L131.958 148.568ZM280.214 146.209L293.853 149.369L280.214 146.209ZM280.21 145.74L266.631 149.146L280.21 145.74ZM156.144 204.489L169.569 200.517L156.144 204.489ZM155.944 204.125L166.549 194.985L155.944 204.125ZM125.508 175.605L111.527 174.864L125.508 175.605ZM125.591 176.06L112.808 181.767L125.591 176.06ZM201.685 212.499L215.598 210.943L201.685 212.499ZM126.084 96.8532L134.929 107.705L126.084 96.8532ZM125.745 97.3855L139.327 100.784L125.745 97.3855ZM150.619 144.136L157.15 131.753L150.619 144.136ZM149.929 144.046L153.064 157.69L149.929 144.046ZM259.767 171.464L271.366 179.303L259.767 171.464ZM268.034 198.782L281.673 201.942L268.034 198.782ZM267.931 199.048L255.738 192.168L267.931 199.048ZM126.312 160.435L112.331 159.695L126.312 160.435ZM126.444 159.988L138.569 166.987L126.444 159.988ZM224.431 296.416L230.701 283.899L224.431 296.416ZM222.93 297.41L208.94 297.923L222.93 297.41ZM157.523 71.2249L166.369 82.0764L157.523 71.2249ZM148.678 60.3734L117.238 86.0017L134.929 107.705L166.369 82.0764L148.678 60.3734ZM112.164 93.9872L100.431 140.879L127.593 147.675L139.327 100.784L112.164 93.9872ZM100.327 147.717L112.113 201.747L139.47 195.78L127.683 141.749L100.327 147.717ZM134.184 249.809L151.257 289.068L176.934 277.901L159.86 238.642L134.184 249.809ZM150.873 288.085L162.913 322.684L189.358 313.482L177.318 278.883L150.873 288.085ZM171.308 331.599L195.081 341.51L205.855 315.666L182.082 305.755L171.308 331.599ZM207.034 341.332L228.886 331.449L217.347 305.937L195.495 315.82L207.034 341.332ZM237.075 322.081L247.42 287.497L220.595 279.472L210.249 314.056L237.075 322.081ZM246.87 289.011L263.701 249.839L237.976 238.786L221.145 277.958L246.87 289.011ZM281.673 201.942L293.853 149.369L266.576 143.049L254.395 195.622L281.673 201.942ZM293.789 142.335L281.66 93.974L254.501 100.786L266.631 149.146L293.789 142.335ZM276.703 86.0913L245.901 60.4682L227.994 81.9942L258.797 107.617L276.703 86.0913ZM236.308 57H158.155V85H236.308V57ZM113.878 206.221L126.124 226.8L150.186 212.482L137.94 191.903L113.878 206.221ZM125.064 224.555L133.849 248.966L160.195 239.484L151.41 215.073L125.064 224.555ZM264.57 247.14L269.906 222.877L242.559 216.863L237.223 241.125L264.57 247.14ZM268.531 226.473L280.124 205.927L255.738 192.168L244.145 212.714L268.531 226.473ZM151.087 183.514L170.138 165.819L151.082 145.304L132.032 162.999L151.087 183.514ZM148.479 158.499L153.288 186.443L180.882 181.695L176.073 153.75L148.479 158.499ZM154.421 190.12L161.897 206.523L187.375 194.911L179.9 178.508L154.421 190.12ZM160.822 202.71L170.234 279.677L198.027 276.278L188.615 199.311L160.822 202.71ZM192.553 269.135L185 261.202L164.721 280.509L172.274 288.442L192.553 269.135ZM187.994 266.291C186.734 262.262 184.881 256.217 183.353 250.974C182.585 248.34 181.926 246 181.469 244.251C181.237 243.365 181.088 242.748 181.007 242.374C180.81 241.465 181.107 242.469 181.107 243.98H153.107C153.107 245.977 153.559 247.918 153.644 248.309C153.844 249.235 154.104 250.28 154.378 251.33C154.934 253.455 155.677 256.085 156.472 258.81C158.068 264.285 159.977 270.514 161.27 274.648L187.994 266.291ZM181.107 243.98C181.107 242.419 180.834 241.042 180.792 240.814C180.686 240.237 180.556 239.641 180.431 239.099C180.178 237.998 179.838 236.651 179.455 235.191C178.682 232.245 177.63 228.441 176.483 224.379C174.183 216.236 171.425 206.792 169.569 200.517L142.719 208.46C144.556 214.67 147.279 223.996 149.537 231.99C150.669 235.997 151.665 239.604 152.371 242.295C152.727 243.652 152.984 244.681 153.143 245.372C153.181 245.537 153.209 245.665 153.23 245.76C153.25 245.859 153.258 245.899 153.256 245.891C153.255 245.885 153.25 245.856 153.242 245.808C153.234 245.761 153.221 245.678 153.206 245.564C153.191 245.451 153.107 244.829 153.107 243.98H181.107ZM166.549 194.985L154.443 180.937L133.232 199.216L145.339 213.264L166.549 194.985ZM154.64 181.172L144.088 168.371L122.482 186.18L133.035 198.982L154.64 181.172ZM137.763 189.1L145.155 186.902L137.173 160.063L129.781 162.262L137.763 189.1ZM264.288 161.942L241.662 145.711L225.341 168.462L247.967 184.693L264.288 161.942ZM217.939 157.117L216.575 183.278L244.537 184.736L245.901 158.576L217.939 157.117ZM217.728 178.564L210.277 194.911L235.756 206.523L243.206 190.175L217.728 178.564ZM209.038 199.311L199.625 276.278L227.418 279.677L236.831 202.71L209.038 199.311ZM225.378 288.442L232.932 280.509L212.653 261.202L205.099 269.135L225.378 288.442ZM236.383 274.648C237.675 270.514 239.585 264.285 241.181 258.81C241.975 256.085 242.719 253.455 243.274 251.33C243.549 250.28 243.808 249.235 244.009 248.309C244.094 247.918 244.546 245.977 244.546 243.98H216.546C216.546 242.469 216.842 241.465 216.645 242.374C216.564 242.748 216.415 243.365 216.184 244.251C215.727 246 215.068 248.34 214.3 250.974C212.771 256.217 210.919 262.262 209.659 266.291L236.383 274.648ZM244.546 243.98C244.546 244.829 244.461 245.451 244.446 245.564C244.431 245.678 244.418 245.761 244.411 245.808C244.403 245.856 244.397 245.885 244.396 245.891C244.395 245.899 244.402 245.859 244.423 245.76C244.443 245.665 244.472 245.537 244.51 245.372C244.668 244.681 244.925 243.652 245.281 242.295C245.987 239.604 246.983 235.997 248.115 231.99C250.373 223.996 253.096 214.67 254.933 208.46L228.084 200.517C226.228 206.792 223.469 216.236 221.169 224.379C220.022 228.441 218.97 232.245 218.197 235.191C217.814 236.651 217.474 237.998 217.221 239.099C217.097 239.641 216.967 240.237 216.86 240.814C216.818 241.042 216.546 242.419 216.546 243.98H244.546ZM252.314 213.264L264.42 199.216L243.21 180.937L231.103 194.985L252.314 213.264ZM264.618 198.982L275.17 186.18L253.564 168.371L243.012 181.172L264.618 198.982ZM267.871 162.262L260.416 160.045L252.435 186.883L259.89 189.1L267.871 162.262ZM128.526 147.548L151.229 113.698L127.974 98.1014L105.272 131.952L128.526 147.548ZM149.031 116.206L171.42 96.459L152.899 75.4598L130.51 95.2069L149.031 116.206ZM162.529 99.7061L227.277 101.162L227.906 73.1686L163.158 71.7132L162.529 99.7061ZM220.976 99.3691L249.662 116.249L263.862 92.1163L235.176 75.2368L220.976 99.3691ZM244.859 111.3L264.358 146.819L288.903 133.345L269.404 97.826L244.859 111.3ZM292.08 136.049L281.947 94.4702L254.743 101.1L264.876 142.679L292.08 136.049ZM276.908 86.4418L245.6 60.6649L227.803 82.2811L259.111 108.058L276.908 86.4418ZM236.066 57.245H157.668V85.245H236.066V57.245ZM148.134 60.6649L116.823 86.4438L134.62 108.06L165.931 82.2811L148.134 60.6649ZM111.805 94.3869L101.516 135.556L128.68 142.345L138.969 101.176L111.805 94.3869ZM112.331 159.695L111.527 174.864L139.488 176.345L140.292 161.176L112.331 159.695ZM112.808 181.767C113.69 183.744 115.092 186.691 116.574 189.364C117.299 190.671 118.205 192.209 119.207 193.614C119.702 194.309 120.398 195.222 121.27 196.135C121.931 196.827 123.694 198.611 126.449 199.818L137.688 174.173C139.006 174.751 139.929 175.416 140.427 175.809C140.958 176.228 141.325 176.594 141.524 176.802C141.904 177.199 142.066 177.444 142.002 177.354C141.884 177.188 141.562 176.69 141.062 175.787C140.093 174.039 139.051 171.867 138.375 170.352L112.808 181.767ZM126.449 199.818C126.138 199.682 126.299 199.74 127.325 200.312C128.143 200.769 129.18 201.366 130.322 202.033C132.596 203.363 135.093 204.86 136.69 205.828L151.206 181.884C149.52 180.863 146.89 179.285 144.452 177.86C142.447 176.688 139.435 174.939 137.688 174.173L126.449 199.818ZM136.946 205.98L148.965 212.921L162.969 188.674L150.949 181.733L136.946 205.98ZM147.203 211.699L150.245 214.204L168.044 192.59L165.002 190.084L147.203 211.699ZM174.742 203.695L175.284 196.118L147.356 194.12L146.814 201.697L174.742 203.695ZM175.225 196.747L177.017 181.45L149.207 178.193L147.415 193.49L175.225 196.747ZM177.112 179.267L176.725 166.038L148.737 166.857L149.124 180.085L177.112 179.267ZM175.107 159.688C174.143 157.789 172.725 154.996 171.511 152.6C170.903 151.402 170.348 150.307 169.926 149.473C169.714 149.055 169.538 148.707 169.406 148.446C169.34 148.315 169.287 148.21 169.247 148.13C169.203 148.041 169.188 148.013 169.192 148.019L144.091 160.426C144.443 161.139 148.249 168.637 150.142 172.365L175.107 159.688ZM169.192 148.019C167.988 145.584 166.379 144.128 165.845 143.657C165.119 143.016 164.467 142.572 164.092 142.33C163.334 141.838 162.652 141.492 162.287 141.312C161.496 140.923 160.677 140.584 160.047 140.333C158.715 139.802 157.073 139.211 155.458 138.65C152.175 137.51 148.325 136.261 145.697 135.431L137.262 162.13C139.754 162.917 143.331 164.079 146.272 165.1C147.77 165.62 148.939 166.048 149.678 166.342C150.084 166.504 150.116 166.53 149.936 166.441C149.877 166.412 149.44 166.2 148.861 165.824C148.575 165.639 147.996 165.249 147.325 164.657C146.979 164.351 146.494 163.893 145.972 163.282C145.471 162.694 144.74 161.74 144.091 160.426L169.192 148.019ZM136.374 135.527L126.848 138.751L135.823 165.273L145.35 162.049L136.374 135.527ZM118.665 145.461L114.319 152.99L138.569 166.987L142.915 159.458L118.665 145.461ZM254.346 161.176L255.15 176.345L283.111 174.864L282.307 159.695L254.346 161.176ZM256.263 170.352C255.587 171.867 254.545 174.039 253.577 175.787C253.076 176.69 252.755 177.188 252.636 177.354C252.572 177.444 252.735 177.199 253.114 176.802C253.313 176.594 253.68 176.228 254.211 175.809C254.709 175.416 255.632 174.751 256.95 174.173L268.189 199.818C270.944 198.611 272.708 196.827 273.368 196.135C274.24 195.222 274.936 194.309 275.431 193.614C276.433 192.209 277.34 190.671 278.065 189.364C279.547 186.691 280.948 183.744 281.831 181.767L256.263 170.352ZM256.95 174.173C255.203 174.939 252.192 176.688 250.187 177.86C247.748 179.285 245.118 180.863 243.433 181.884L257.949 205.828C259.546 204.86 262.042 203.363 264.316 202.033C265.458 201.366 266.495 200.769 267.314 200.312C268.339 199.74 268.5 199.682 268.189 199.818L256.95 174.173ZM243.689 181.733L231.67 188.674L245.673 212.921L257.692 205.979L243.689 181.733ZM229.636 190.084L226.594 192.59L244.393 214.204L247.435 211.699L229.636 190.084ZM247.825 201.697L247.282 194.12L219.354 196.118L219.896 203.695L247.825 201.697ZM247.223 193.49L245.431 178.193L217.622 181.45L219.413 196.747L247.223 193.49ZM245.514 180.085L245.901 166.857L217.913 166.038L217.526 179.267L245.514 180.085ZM244.496 172.365C246.389 168.637 250.195 161.139 250.548 160.426L225.447 148.019C225.45 148.013 225.435 148.041 225.391 148.13C225.351 148.21 225.298 148.315 225.232 148.446C225.1 148.707 224.924 149.055 224.713 149.473C224.291 150.307 223.735 151.403 223.128 152.6C221.913 154.996 220.495 157.789 219.531 159.688L244.496 172.365ZM250.548 160.426C249.898 161.74 249.167 162.694 248.666 163.282C248.144 163.893 247.66 164.351 247.313 164.657C246.642 165.249 246.063 165.639 245.778 165.824C245.198 166.2 244.762 166.412 244.702 166.441C244.522 166.53 244.555 166.504 244.96 166.342C245.699 166.048 246.869 165.62 248.366 165.1C251.307 164.079 254.884 162.917 257.376 162.13L248.942 135.431C246.313 136.261 242.463 137.51 239.18 138.65C237.565 139.211 235.924 139.802 234.591 140.333C233.961 140.584 233.143 140.923 232.351 141.312C231.986 141.492 231.304 141.838 230.546 142.33C230.171 142.572 229.52 143.016 228.793 143.657C228.259 144.128 226.65 145.584 225.447 148.019L250.548 160.426ZM249.288 162.049L258.815 165.273L267.791 138.751L258.264 135.527L249.288 162.049ZM251.723 159.458L256.069 166.987L280.319 152.99L275.974 145.461L251.723 159.458ZM119.165 159.379L117.112 171.699L144.731 176.301L146.784 163.98L119.165 159.379ZM119.511 182.609C121.489 185.51 124.397 189.736 126.902 193.286C128.145 195.047 129.347 196.725 130.308 198.013C130.772 198.636 131.283 199.306 131.761 199.888C131.98 200.156 132.353 200.6 132.802 201.07C133.014 201.292 133.434 201.719 133.995 202.194C134.14 202.316 135.915 203.908 138.674 204.828L147.531 178.266C149.152 178.806 150.295 179.523 150.787 179.849C151.373 180.235 151.81 180.589 152.062 180.803C152.561 181.224 152.905 181.579 153.029 181.709C153.303 181.995 153.45 182.18 153.401 182.12C153.341 182.047 153.138 181.789 152.753 181.274C152.016 180.286 150.982 178.846 149.779 177.142C147.394 173.761 144.579 169.672 142.647 166.838L119.511 182.609ZM138.674 204.828C138.579 204.796 138.862 204.896 139.779 205.229C140.556 205.512 141.593 205.89 142.753 206.315C145.071 207.162 147.85 208.182 149.959 208.957L159.612 182.673C155.608 181.203 148.337 178.535 147.531 178.266L138.674 204.828ZM169.718 198.363L172.15 188.187L144.918 181.677L142.485 191.853L169.718 198.363ZM132.183 146.076L127.51 148.302L139.552 173.58L144.225 171.354L132.183 146.076ZM121.755 161.579V170.903H149.755V161.579H121.755ZM124.327 179.303C126.039 181.836 128.118 185.222 130.047 188.342C130.956 189.813 131.874 191.293 132.614 192.428C132.968 192.972 133.416 193.644 133.875 194.264C134.085 194.548 134.485 195.077 135.005 195.652C135.257 195.932 135.737 196.445 136.396 197.007C136.783 197.337 138.477 198.8 141.124 199.683L149.981 173.121C151.456 173.612 152.535 174.248 153.131 174.635C153.774 175.051 154.262 175.444 154.573 175.709C155.178 176.225 155.595 176.675 155.776 176.876C156.154 177.294 156.379 177.603 156.383 177.609C156.431 177.673 156.346 177.56 156.069 177.135C155.547 176.335 154.812 175.154 153.865 173.621C152.081 170.736 149.637 166.749 147.525 163.624L124.327 179.303ZM141.124 199.683C141.619 199.848 142.519 200.104 142.92 200.219C143.578 200.409 144.412 200.65 145.344 200.925C147.253 201.489 149.382 202.143 151.052 202.725L160.268 176.285C157.941 175.474 155.289 174.667 153.279 174.073C152.252 173.77 151.342 173.507 150.679 173.316C149.758 173.05 149.758 173.046 149.981 173.121L141.124 199.683ZM169.935 194.127L171.533 190.13L145.535 179.734L143.936 183.731L169.935 194.127ZM128.303 148.817L126.146 150.974L145.949 170.77L148.105 168.613L128.303 148.817ZM248.909 163.98L250.962 176.301L278.581 171.699L276.528 159.379L248.909 163.98ZM253.046 166.838C251.115 169.672 248.299 173.761 245.914 177.142C244.712 178.846 243.677 180.286 242.94 181.274C242.556 181.789 242.352 182.047 242.292 182.12C242.243 182.18 242.39 181.995 242.664 181.709C242.789 181.579 243.132 181.224 243.631 180.803C243.884 180.589 244.321 180.235 244.906 179.849C245.399 179.523 246.541 178.806 248.162 178.266L257.019 204.828C259.778 203.908 261.554 202.316 261.698 202.194C262.26 201.719 262.679 201.292 262.891 201.07C263.341 200.6 263.713 200.156 263.933 199.888C264.41 199.306 264.921 198.636 265.386 198.013C266.346 196.725 267.549 195.047 268.791 193.286C271.296 189.736 274.205 185.51 276.182 182.609L253.046 166.838ZM248.162 178.266C247.356 178.535 240.085 181.203 236.081 182.673L245.734 208.957C247.843 208.182 250.623 207.162 252.94 206.315C254.1 205.89 255.137 205.512 255.914 205.229C256.831 204.896 257.114 204.796 257.019 204.828L248.162 178.266ZM253.209 191.853L250.776 181.677L223.543 188.187L225.976 198.363L253.209 191.853ZM251.469 171.354L256.142 173.58L268.183 148.302L263.51 146.076L251.469 171.354ZM157.915 308.198L162.789 322.36L189.265 313.248L184.391 299.086L157.915 308.198ZM170.98 331.229L194.899 341.653L206.085 315.984L182.166 305.561L170.98 331.229ZM207.308 341.46L229.284 331.059L217.307 305.751L195.33 316.151L207.308 341.46ZM237.154 322.072L242.76 304.547L216.092 296.016L210.486 313.54L237.154 322.072ZM241.237 292.096L236.463 284.364L212.638 299.075L217.412 306.807L241.237 292.096ZM231.419 279.384L222.011 273.738L207.602 297.745L217.01 303.392L231.419 279.384ZM225.959 277.411L219.861 268.731L196.95 284.826L203.047 293.507L225.959 277.411ZM222.152 274.838C221.659 270.194 220.934 263.259 220.332 257.301C220.031 254.318 219.764 251.607 219.573 249.559C219.336 247.016 219.317 246.47 219.317 246.92H191.317C191.317 248.147 191.539 250.5 191.694 252.158C191.895 254.312 192.17 257.106 192.474 260.113C193.082 266.135 193.812 273.12 194.308 277.792L222.152 274.838ZM219.317 246.92C219.317 245.625 219.045 242.956 218.854 241.049C218.605 238.565 218.263 235.31 217.885 231.786C217.129 224.729 216.218 216.489 215.598 210.943L187.771 214.054C188.389 219.576 189.295 227.771 190.045 234.771C190.421 238.274 190.755 241.453 190.994 243.839C191.29 246.802 191.317 247.441 191.317 246.92H219.317ZM210.728 201.469L206.884 198.009L188.15 218.818L191.994 222.279L210.728 201.469ZM185.323 199.555L182.521 202.919L204.033 220.841L206.836 217.477L185.323 199.555ZM179.082 211.467L176.656 245.937L204.586 247.903L207.013 213.433L179.082 211.467ZM176.633 246.342L175.417 275.781L203.393 276.936L204.609 247.498L176.633 246.342ZM176.715 270.632L172.516 279.265L197.696 291.511L201.895 282.878L176.715 270.632ZM176.994 274.135L168.646 279.703L184.181 302.998L192.529 297.431L176.994 274.135ZM163.225 286.171L158.355 297.306L184.009 308.526L188.879 297.391L163.225 286.171ZM176.631 186.367L182.997 177.752L160.477 161.112L154.111 169.727L176.631 186.367ZM184.531 162.506L176.596 145.464L151.213 157.283L159.148 174.325L184.531 162.506ZM169.996 138.528L157.15 131.753L144.088 156.519L156.933 163.294L169.996 138.528ZM146.793 130.401L129.504 134.375L135.774 161.663L153.064 157.69L146.793 130.401ZM119.29 142.608L118.588 144.1L143.925 156.019L144.626 154.527L119.29 142.608ZM137.464 164.517L145.817 161.36L135.919 135.168L127.566 138.324L137.464 164.517ZM136.491 161.308L151.442 167.15L161.632 141.07L146.681 135.228L136.491 161.308ZM144.452 160.665L150.078 172.389L175.322 160.276L169.696 148.552L144.452 160.665ZM148.832 167.691L149.605 178.521L177.534 176.527L176.76 165.697L148.832 167.691ZM240.932 169.779L234.566 161.164L212.046 177.803L218.412 186.419L240.932 169.779ZM235.895 174.377L243.83 157.334L218.447 145.516L210.512 162.558L235.895 174.377ZM238.11 163.346L250.955 156.571L237.893 131.804L225.047 138.579L238.11 163.346ZM241.979 157.742L259.269 161.715L265.54 134.426L248.25 130.453L241.979 157.742ZM250.417 154.579L251.118 156.071L276.455 144.151L275.753 142.66L250.417 154.579ZM267.477 138.376L259.124 135.219L249.226 161.411L257.579 164.568L267.477 138.376ZM248.362 135.279L233.411 141.122L243.602 167.201L258.553 161.359L248.362 135.279ZM225.347 148.603L219.721 160.327L244.965 172.441L250.591 160.717L225.347 148.603ZM218.283 165.748L217.509 176.579L245.438 178.573L246.212 167.743L218.283 165.748ZM156.488 78.3106L136.34 68.8117L124.4 94.1383L144.549 103.637L156.488 78.3106ZM127.997 67.5064C121.916 68.3049 112.833 69.5201 105.069 70.6075C101.195 71.1501 97.6004 71.6678 94.8574 72.0891C93.4957 72.2983 92.2704 72.4949 91.2977 72.6664C90.8196 72.7506 90.3123 72.8446 89.8397 72.9438C89.7113 72.9708 88.5041 73.2064 87.258 73.6748L97.1112 99.8839C96.0494 100.283 95.2027 100.428 95.5943 100.346C95.6418 100.336 95.8141 100.302 96.1581 100.241C96.8298 100.123 97.8194 99.9625 99.1085 99.7645C101.667 99.3715 105.117 98.8741 108.953 98.3368C116.609 97.2645 125.607 96.0606 131.643 95.268L127.997 67.5064ZM87.258 73.6748C85.8857 74.1907 75.8814 78.7941 65.2236 83.7058C54.0371 88.8612 40.8589 94.9551 32.1364 98.9938L43.9013 124.402C52.6151 120.367 65.777 114.281 76.943 109.135C82.5276 106.562 87.6029 104.228 91.3701 102.504C95.5813 100.578 97.3401 99.7978 97.1112 99.8839L87.258 73.6748ZM57.6609 153.669L111.6 162.48L116.115 134.847L62.1752 126.035L57.6609 153.669ZM115.247 162.626C119.179 162.302 125.082 161.728 130.083 161.035C132.514 160.699 135.123 160.282 137.271 159.776C138.227 159.55 139.811 159.145 141.397 158.453C142.091 158.151 143.762 157.385 145.45 155.915C146.892 154.66 151.259 150.24 150.252 143.133L122.529 147.063C121.546 140.128 125.819 135.882 127.061 134.801C128.548 133.505 129.912 132.916 130.202 132.789C130.981 132.449 131.375 132.398 130.843 132.523C130.015 132.719 128.461 132.993 126.243 133.3C121.947 133.895 116.606 134.419 112.948 134.721L115.247 162.626ZM150.252 143.133C150.563 145.326 150.282 147.143 149.991 148.317C149.697 149.506 149.297 150.418 149.014 150.99C148.47 152.087 147.915 152.801 147.735 153.028C147.345 153.518 147.138 153.674 147.442 153.392C147.958 152.915 148.949 152.091 150.405 150.974C153.231 148.806 156.764 146.325 159.158 144.706L143.473 121.512C140.811 123.312 136.783 126.134 133.361 128.759C131.693 130.039 129.889 131.485 128.415 132.851C127.724 133.491 126.723 134.462 125.801 135.623C125.355 136.186 124.598 137.199 123.926 138.556C123.424 139.569 121.923 142.788 122.529 147.063L150.252 143.133ZM160.509 143.667L175.68 130.458L157.293 109.341L142.122 122.551L160.509 143.667ZM32.8439 98.6896L22.7638 102.7L33.1137 128.717L43.1938 124.707L32.8439 98.6896ZM15.1547 109.428L9.19724 120.297L33.7508 133.755L39.7083 122.886L15.1547 109.428ZM14.9596 140.559L31.2623 149.791L45.0596 125.426L28.7568 116.194L14.9596 140.559ZM37.1734 151.665L58.5365 153.784L61.2997 125.92L39.9367 123.802L37.1734 151.665ZM132.402 112.132L135.866 118.135L160.117 104.138L156.652 98.1353L132.402 112.132ZM138.432 125.855L139.13 120.75L111.387 116.96L110.69 122.066L138.432 125.855ZM136.982 126.327L140.893 120.604L117.778 104.803L113.866 110.526L136.982 126.327ZM135.465 98.849L129.234 95.5881L116.251 120.396L122.483 123.657L135.465 98.849ZM119.572 94.1265C113.309 95.2784 108.742 97.5262 105.129 100.446C103.55 101.721 102.32 103.006 101.788 103.549C101.052 104.298 101.32 103.966 101.863 103.586L117.919 126.526C119.808 125.203 121.249 123.693 121.773 123.16C122.5 122.419 122.615 122.315 122.726 122.225C122.734 122.219 122.738 122.206 122.863 122.15C123.024 122.077 123.545 121.865 124.637 121.665L119.572 94.1265ZM44.2418 107.899L37.9865 108.067L38.7341 136.057L44.9894 135.89L44.2418 107.899ZM44.8351 132.319L48.5173 130.193L34.5141 105.946L30.8319 108.073L44.8351 132.319ZM46.3168 131.203L90.8913 115.576L81.6276 89.1527L37.0531 104.78L46.3168 131.203ZM90.3366 115.757L120.49 106.578L112.336 79.7917L82.1823 88.9711L90.3366 115.757ZM112.297 106.372L133.914 114.161L143.407 87.8194L121.789 80.0297L112.297 106.372ZM130.914 112.614L136.253 116.317L152.208 93.307L146.869 89.6046L130.914 112.614ZM115.537 102.749L106.266 97.7874L93.0551 122.475L102.327 127.436L115.537 102.749ZM89.1314 99.8839L83.5959 104.886L102.369 125.66L107.905 120.658L89.1314 99.8839ZM90.5954 101.645L42.7668 108.017L46.4644 135.772L94.2929 129.4L90.5954 101.645ZM266.935 123.236L288.854 119.278L283.878 91.7233L261.958 95.6821L266.935 123.236ZM281.566 118.494C287.191 120.822 295.571 124.314 302.689 127.332C306.255 128.844 309.459 130.218 311.828 131.26C313.022 131.785 313.936 132.196 314.555 132.484C314.871 132.632 315.029 132.71 315.072 132.732C315.429 132.912 314.649 132.553 313.727 131.893L330.029 109.128C328.947 108.353 327.842 107.813 327.725 107.753C327.294 107.535 326.828 107.313 326.388 107.108C325.493 106.69 324.36 106.183 323.099 105.629C320.559 104.512 317.22 103.081 313.619 101.554C306.401 98.4935 297.942 94.9681 292.274 92.6223L281.566 118.494ZM313.727 131.893C313.528 131.75 315.025 132.96 318.595 135.91C321.788 138.55 326.086 142.119 330.814 146.051C340.269 153.912 351.407 163.198 358.78 169.352L376.721 147.855C369.341 141.695 358.188 132.397 348.717 124.521C339.693 117.018 331.221 109.981 330.029 109.128L313.727 131.893ZM340.71 166.198L286.329 160.745L283.535 188.605L337.916 194.058L340.71 166.198ZM289.42 161.443C285.965 160.205 280.941 158.315 276.945 156.628C274.882 155.757 273.452 155.09 272.703 154.687C272.222 154.428 272.588 154.579 273.253 155.109C273.501 155.307 274.665 156.229 275.766 157.865C276.685 159.23 279.714 164.437 276.97 170.881L251.208 159.912C248.396 166.516 251.471 171.915 252.538 173.501C253.788 175.357 255.204 176.529 255.796 177.001C257.149 178.08 258.574 178.881 259.439 179.346C261.383 180.392 263.795 181.469 266.055 182.424C270.707 184.387 276.26 186.471 279.975 187.802L289.42 161.443ZM276.97 170.881C278.662 166.909 278.044 163.411 277.822 162.303C277.523 160.818 277.055 159.644 276.769 158.985C276.18 157.625 275.464 156.428 274.962 155.631C273.892 153.93 272.523 152.067 271.244 150.399C268.617 146.977 265.457 143.209 263.351 140.78L242.197 159.125C244.091 161.308 246.862 164.619 249.03 167.445C250.148 168.901 250.893 169.953 251.267 170.548C251.488 170.899 251.328 170.695 251.079 170.121C250.964 169.855 250.612 169.022 250.371 167.821C250.245 167.196 250.096 166.212 250.119 164.987C250.142 163.778 250.34 161.95 251.208 159.912L276.97 170.881ZM264.387 142.133L253.151 125.446L229.925 141.084L241.161 157.771L264.387 142.133ZM359.385 169.829L368.084 176.312L384.816 153.861L376.117 147.378L359.385 169.829ZM363.224 168.974L366.166 181.015L393.366 174.369L390.423 162.328L363.224 168.974ZM375.535 165.344L357.4 170.041L364.419 197.147L382.555 192.45L375.535 165.344ZM362.769 169.798L341.585 166.314L337.041 193.942L358.224 197.427L362.769 169.798ZM253.826 119.111L248.927 124.012L268.729 143.808L273.628 138.907L253.826 119.111ZM292.031 154.122L292.678 149.01L264.9 145.493L264.253 150.604L292.031 154.122ZM291.949 142.154L289.651 135.613L263.234 144.895L265.532 151.435L291.949 142.154ZM280.226 152.608L287.089 151.072L280.971 123.748L274.108 125.285L280.226 152.608ZM278.661 150.126C279.664 150.603 280.112 150.942 280.249 151.054C280.355 151.141 280.357 151.155 280.362 151.163C280.447 151.279 280.531 151.409 281.042 152.313C281.409 152.964 282.41 154.795 283.893 156.562L305.339 138.559C305.765 139.067 305.938 139.457 305.421 138.542C305.047 137.881 304.192 136.321 302.997 134.68C300.262 130.925 296.434 127.572 290.682 124.838L278.661 150.126ZM351.914 184.487L357.912 186.268L365.881 159.425L359.882 157.645L351.914 184.487ZM372.789 161.283L369.783 158.275L349.981 178.071L352.987 181.079L372.789 161.283ZM367.633 156.492L328.62 129.857L312.832 152.982L351.845 179.617L367.633 156.492ZM328.131 129.538L301.38 112.865L286.57 136.627L313.321 153.301L328.131 129.538ZM292.188 110.648L269.292 112.575L271.641 140.476L294.537 138.549L292.188 110.648ZM265.485 113.403L259.37 115.597L268.824 141.953L274.94 139.759L265.485 113.403ZM298.717 161.477L308.957 159.085L302.588 131.819L292.348 134.211L298.717 161.477ZM295.084 153.487L299.137 159.752L322.647 144.544L318.594 138.279L295.084 153.487ZM305.969 165.454L350.519 183.991L361.276 158.14L316.726 139.603L305.969 165.454ZM142.214 115.754L136.826 125.185L161.139 139.074L166.526 129.642L142.214 115.754ZM142.277 145.573C146.78 148.207 154.874 152.937 156.24 153.719L170.135 129.41C168.928 128.72 161.026 124.101 156.414 121.404L142.277 145.573ZM186.105 185.456H212.282V157.456H186.105V185.456ZM241.735 152.875L252.731 144.855L236.231 122.233L225.235 130.253L241.735 152.875ZM256.51 124.627L250.406 115.129L226.851 130.267L232.955 139.765L256.51 124.627ZM250.708 115.62L238.399 94.6163L214.242 108.773L226.55 129.776L250.708 115.62ZM230.527 88.0829L211.927 81.4039L202.464 107.756L221.064 114.435L230.527 88.0829ZM206.858 80.5214H183.774V108.521H206.858V80.5214ZM176.554 82.3736L164.412 89.0419L177.89 113.584L190.032 106.916L176.554 82.3736ZM161.024 91.5847L150.93 101.681L170.732 121.477L180.826 111.381L161.024 91.5847ZM148.55 104.784L142.247 115.696L166.493 129.7L172.796 118.788L148.55 104.784ZM154.682 152.684L166.984 162.094L183.996 139.855L171.694 130.444L154.682 152.684ZM163.171 157.411L172.592 176.966L197.817 164.813L188.396 145.258L163.171 157.411ZM225.796 176.966L235.233 157.377L210.008 145.224L200.57 164.813L225.796 176.966ZM232.146 161.462L242.773 152.04L224.197 131.089L213.57 140.511L232.146 161.462ZM160.72 298.454C160.345 300.443 159.941 303.484 159.919 306.604C159.908 308.16 159.986 310.145 160.369 312.216C160.697 313.992 161.526 317.459 164.109 320.643L185.853 303.004C186.818 304.193 187.306 305.275 187.538 305.88C187.779 306.508 187.872 306.96 187.902 307.125C187.936 307.307 187.935 307.368 187.929 307.277C187.923 307.194 187.916 307.038 187.918 306.806C187.921 306.327 187.958 305.734 188.026 305.103C188.094 304.476 188.177 303.951 188.236 303.639L160.72 298.454ZM164.109 320.643C165.37 322.199 166.873 323.394 167.418 323.829C168.267 324.507 169.224 325.211 170.176 325.887C172.1 327.252 174.446 328.81 176.832 330.331C181.388 333.234 187.087 336.638 190.777 338.345L202.534 312.933C200.7 312.084 196.375 309.583 191.881 306.718C189.742 305.356 187.807 304.064 186.378 303.05C185.654 302.537 185.165 302.169 184.887 301.947C184.305 301.482 184.998 301.95 185.853 303.004L164.109 320.643ZM236.962 314.736C237.711 312.383 238.756 308.864 239.503 305.722C239.857 304.23 240.26 302.349 240.458 300.569C240.546 299.776 240.687 298.244 240.51 296.494C240.424 295.639 240.196 294.006 239.415 292.144C238.652 290.323 236.761 286.911 232.578 284.836L220.134 309.918C216.075 307.905 214.283 304.615 213.594 302.972C212.887 301.287 212.71 299.886 212.652 299.313C212.583 298.631 212.593 298.126 212.601 297.905C212.61 297.656 212.626 297.503 212.629 297.475C212.634 297.433 212.619 297.57 212.549 297.936C212.482 298.28 212.387 298.718 212.261 299.249C211.738 301.452 210.917 304.243 210.279 306.25L236.962 314.736ZM232.578 284.836C232.079 284.588 231.378 284.238 230.701 283.899L218.161 308.933C218.843 309.275 219.584 309.646 220.134 309.918L232.578 284.836ZM208.94 297.923C208.981 299.049 208.882 299.226 209.005 298.645C209.007 298.638 209.395 296.367 211.365 293.979C212.532 292.565 214.578 290.732 217.679 289.789C220.88 288.817 223.821 289.213 225.949 289.976L216.505 316.335C219.022 317.237 222.31 317.647 225.822 316.579C229.233 315.542 231.553 313.507 232.961 311.801C235.412 308.831 236.149 305.618 236.395 304.459C237.008 301.573 236.983 298.599 236.921 296.898L208.94 297.923ZM225.949 289.976C224.938 289.614 223.883 289.32 223.175 289.129C222.441 288.93 221.516 288.692 220.881 288.525C220.148 288.333 219.551 288.171 219.053 288.022C218.515 287.861 218.353 287.792 218.429 287.824L207.726 313.697C209.872 314.585 212.396 315.247 213.768 315.607C214.667 315.843 215.248 315.99 215.859 316.156C216.496 316.328 216.625 316.378 216.505 316.335L225.949 289.976ZM205.768 288.332C204.815 288.82 203.117 289.531 201.056 290.349C200.198 290.689 199.112 291.114 198.374 291.411C197.984 291.569 197.528 291.755 197.1 291.942C196.886 292.036 196.597 292.165 196.283 292.318C196.054 292.429 195.425 292.738 194.703 293.196L209.717 316.83C209.086 317.231 208.587 317.47 208.526 317.499C208.379 317.571 208.295 317.607 208.319 317.596C208.366 317.576 208.518 317.511 208.837 317.383C209.519 317.108 210.259 316.821 211.387 316.373C213.298 315.615 216.213 314.442 218.54 313.249L205.768 288.332ZM194.703 293.196C196.248 292.214 197.639 291.781 198.416 291.583C199.23 291.376 199.862 291.307 200.163 291.28C200.487 291.251 200.698 291.25 200.734 291.25C200.779 291.25 200.754 291.251 200.621 291.246C200.29 291.234 199.947 291.212 199.191 291.17C198.528 291.133 197.673 291.088 196.729 291.067L196.099 319.06C196.572 319.071 197.058 319.094 197.633 319.126C198.115 319.153 198.907 319.201 199.58 319.227C200.218 319.25 201.367 319.283 202.627 319.171C203.284 319.113 204.232 318.995 205.319 318.719C206.369 318.452 207.99 317.928 209.717 316.83L194.703 293.196ZM202.97 292.828L195.95 288.741L181.863 312.94L188.884 317.026L202.97 292.828ZM180.991 288.664L174.603 292.295L188.44 316.637L194.828 313.006L180.991 288.664ZM162.014 294.202L161.216 296.56L187.739 305.533L188.537 303.175L162.014 294.202ZM193.298 299.305L191.569 294.36L165.139 303.604L166.868 308.549L193.298 299.305ZM181.125 284.78L179.938 284.476L173.003 311.604L174.19 311.907L181.125 284.78ZM197.06 339.725H202.604V311.725H197.06V339.725ZM211.406 336.872L231.472 322.331L215.042 299.658L194.976 314.199L211.406 336.872ZM245.939 161.579V170.903H273.939V161.579H245.939ZM248.168 163.624C246.056 166.749 243.612 170.736 241.828 173.621C240.882 175.154 240.146 176.335 239.625 177.135C239.348 177.56 239.263 177.673 239.31 177.609C239.314 177.603 239.539 177.294 239.917 176.876C240.098 176.675 240.516 176.225 241.12 175.709C241.431 175.444 241.919 175.051 242.562 174.635C243.159 174.248 244.238 173.612 245.713 173.121L254.57 199.683C257.217 198.8 258.911 197.337 259.297 197.007C259.956 196.445 260.436 195.932 260.688 195.652C261.208 195.077 261.608 194.548 261.818 194.264C262.277 193.644 262.725 192.972 263.079 192.428C263.819 191.293 264.737 189.813 265.646 188.342C267.575 185.222 269.655 181.836 271.366 179.303L248.168 163.624ZM245.713 173.121C245.936 173.046 245.936 173.05 245.014 173.316C244.351 173.507 243.441 173.77 242.414 174.073C240.405 174.667 237.752 175.474 235.425 176.285L244.641 202.725C246.311 202.143 248.44 201.489 250.349 200.925C251.281 200.65 252.115 200.409 252.774 200.219C253.174 200.104 254.074 199.848 254.57 199.683L245.713 173.121ZM251.757 183.731L250.159 179.734L224.16 190.13L225.759 194.127L251.757 183.731ZM247.588 168.613L249.745 170.77L269.547 150.974L267.39 148.817L247.588 168.613ZM178.821 111.647L163.083 84.3801L138.833 98.3769L154.57 125.644L178.821 111.647ZM140.624 100.379L119.051 112.838L133.054 137.085L154.627 124.626L140.624 100.379ZM251.562 141.897L273.818 119.634L254.016 99.8383L231.76 122.101L251.562 141.897ZM248.927 145.222L266.541 162.842L286.343 143.046L268.729 125.426L248.927 145.222ZM202.604 339.725C205.766 339.725 208.846 338.727 211.406 336.872L194.976 314.199C197.195 312.591 199.865 311.725 202.604 311.725V339.725ZM195.95 288.741C191.333 286.054 185.635 286.024 180.991 288.664L194.828 313.006C190.803 315.294 185.865 315.269 181.863 312.94L195.95 288.741ZM196.729 291.067C198.876 291.115 201.03 291.698 202.97 292.828L188.884 317.026C191.12 318.328 193.61 319.004 196.099 319.06L196.729 291.067ZM210.279 306.25C211.138 303.549 212.836 301.257 215.042 299.658L231.472 322.331C234.022 320.483 235.975 317.842 236.962 314.736L210.279 306.25ZM190.777 338.345C192.906 339.33 195.069 339.725 197.06 339.725V311.725C198.767 311.725 200.663 312.067 202.534 312.933L190.777 338.345ZM235.233 157.377C234.485 158.93 233.436 160.318 232.146 161.462L213.57 140.511C212.082 141.83 210.871 143.432 210.008 145.224L235.233 157.377ZM166.984 162.094C165.363 160.854 164.057 159.25 163.171 157.411L188.396 145.258C187.374 143.137 185.866 141.286 183.996 139.855L166.984 162.094ZM150.93 101.681C150.005 102.607 149.204 103.65 148.55 104.784L172.796 118.788C172.228 119.771 171.534 120.675 170.732 121.477L150.93 101.681ZM164.412 89.0419C163.168 89.725 162.027 90.5811 161.024 91.5847L180.826 111.381C179.956 112.25 178.968 112.992 177.89 113.584L164.412 89.0419ZM183.774 80.5214C181.25 80.5214 178.766 81.1585 176.554 82.3736L190.032 106.916C188.114 107.969 185.962 108.521 183.774 108.521V80.5214ZM211.927 81.4039C210.301 80.82 208.586 80.5214 206.858 80.5214V108.521C205.36 108.521 203.874 108.263 202.464 107.756L211.927 81.4039ZM238.399 94.6163C236.622 91.5833 233.836 89.271 230.527 88.0829L221.064 114.435C218.197 113.406 215.782 111.402 214.242 108.773L238.399 94.6163ZM252.731 144.855C259.146 140.176 260.803 131.307 256.51 124.627L232.955 139.765C229.234 133.975 230.67 126.289 236.231 122.233L252.731 144.855ZM212.282 185.456C218.043 185.456 223.295 182.156 225.796 176.966L200.57 164.813C202.737 160.315 207.289 157.456 212.282 157.456V185.456ZM186.105 157.456C191.098 157.456 195.65 160.315 197.817 164.813L172.592 176.966C175.092 182.156 180.344 185.456 186.105 185.456V157.456ZM136.826 125.185C132.749 132.321 135.173 141.417 142.277 145.573L156.414 121.404C162.571 125.006 164.671 132.89 161.139 139.074L136.826 125.185ZM299.137 159.752C300.785 162.3 303.167 164.288 305.969 165.454L316.726 139.603C319.154 140.613 321.219 142.336 322.647 144.544L299.137 159.752ZM308.957 159.085C303.615 160.333 298.064 158.093 295.084 153.487L318.594 138.279C315.156 132.964 308.752 130.379 302.588 131.819L308.957 159.085ZM269.292 112.575C267.992 112.685 266.713 112.963 265.485 113.403L274.94 139.759C273.876 140.14 272.767 140.382 271.641 140.476L269.292 112.575ZM301.38 112.865C298.635 111.154 295.411 110.376 292.188 110.648L294.537 138.549C291.743 138.784 288.949 138.11 286.57 136.627L301.38 112.865ZM369.783 158.275C369.123 157.616 368.403 157.019 367.633 156.492L351.845 179.617C351.177 179.161 350.553 178.643 349.981 178.071L369.783 158.275ZM357.912 186.268C372.828 190.696 383.79 172.286 372.789 161.283L352.987 181.079C343.454 171.542 352.954 155.588 365.881 159.425L357.912 186.268ZM283.893 156.562C287.929 161.369 293.912 162.6 298.717 161.477L292.348 134.211C296.48 133.246 301.748 134.281 305.339 138.559L283.893 156.562ZM287.089 151.072C284.257 151.706 281.293 151.377 278.661 150.126L290.682 124.838C287.653 123.398 284.231 123.018 280.971 123.748L287.089 151.072ZM289.651 135.613C292.231 142.957 287.822 150.908 280.226 152.608L274.108 125.285C265.344 127.247 260.257 136.421 263.234 144.895L289.651 135.613ZM292.678 149.01C292.971 146.699 292.721 144.352 291.949 142.154L265.532 151.435C264.863 149.53 264.646 147.496 264.9 145.493L292.678 149.01ZM264.253 150.604C265.611 139.881 278.701 135.402 286.343 143.046L266.541 162.842C275.359 171.663 290.464 166.495 292.031 154.122L264.253 150.604ZM248.927 124.012C243.071 129.87 243.071 139.365 248.927 145.222L268.729 125.426C273.804 130.503 273.804 138.732 268.729 143.808L248.927 124.012ZM273.628 138.907C272.272 140.264 270.631 141.304 268.824 141.953L259.37 115.597C257.285 116.345 255.392 117.545 253.826 119.111L273.628 138.907ZM357.4 170.041C359.153 169.587 360.982 169.504 362.769 169.798L358.224 197.427C360.286 197.766 362.396 197.671 364.419 197.147L357.4 170.041ZM366.166 181.015C364.478 174.108 368.652 167.127 375.535 165.344L382.555 192.45C390.497 190.393 395.313 182.338 393.366 174.369L366.166 181.015ZM368.084 176.312C365.66 174.505 363.941 171.911 363.224 168.974L390.423 162.328C389.596 158.939 387.613 155.945 384.816 153.861L368.084 176.312ZM253.151 125.446C256.624 130.604 255.958 137.499 251.562 141.897L231.76 122.101C226.687 127.176 225.918 135.132 229.925 141.084L253.151 125.446ZM286.329 160.745C287.336 160.846 288.38 161.07 289.42 161.443L279.975 187.802C281.168 188.229 282.365 188.488 283.535 188.605L286.329 160.745ZM288.854 119.278C286.5 119.703 283.958 119.484 281.566 118.494L292.274 92.6223C289.528 91.4855 286.61 91.23 283.878 91.7233L288.854 119.278ZM261.958 95.6821C258.949 96.2255 256.178 97.6757 254.016 99.8383L273.818 119.634C271.944 121.508 269.543 122.765 266.935 123.236L261.958 95.6821ZM83.5959 104.886C85.5475 103.123 87.9881 101.993 90.5954 101.645L94.2929 129.4C97.3013 128.999 100.117 127.695 102.369 125.66L83.5959 104.886ZM106.266 97.7874C100.684 94.8007 93.8282 95.6396 89.1314 99.8839L107.905 120.658C103.834 124.337 97.8924 125.064 93.0551 122.475L106.266 97.7874ZM133.914 114.161C132.851 113.778 131.842 113.258 130.914 112.614L146.869 89.6046C145.797 88.8616 144.633 88.2615 143.407 87.8194L133.914 114.161ZM120.49 106.578C117.808 107.394 114.934 107.322 112.297 106.372L121.789 80.0297C118.746 78.9332 115.43 78.8496 112.336 79.7917L120.49 106.578ZM48.5173 130.193C47.8168 130.597 47.0801 130.936 46.3168 131.203L37.0531 104.78C36.1723 105.089 35.3223 105.479 34.5141 105.946L48.5173 130.193ZM37.9865 108.067C51.4658 107.707 56.5119 125.576 44.8351 132.319L30.8319 108.073C17.3586 115.854 23.181 136.472 38.7341 136.057L37.9865 108.067ZM101.863 103.586C106.439 100.383 111.796 100.747 115.537 102.749L102.327 127.436C106.678 129.765 112.776 130.125 117.919 126.526L101.863 103.586ZM129.234 95.5881C126.274 94.0392 122.87 93.5198 119.572 94.1265L124.637 121.665C121.77 122.192 118.822 121.742 116.251 120.396L129.234 95.5881ZM140.893 120.604C145.962 113.19 143.423 103.013 135.465 98.849L122.483 123.657C115.586 120.048 113.386 111.229 117.778 104.803L140.893 120.604ZM139.13 120.75C138.857 122.751 138.121 124.66 136.982 126.327L113.866 110.526C112.551 112.449 111.703 114.652 111.387 116.96L139.13 120.75ZM110.69 122.066C109.002 134.422 122.254 143.322 133.054 137.085L119.051 112.838C128.41 107.433 139.895 115.146 138.432 125.855L110.69 122.066ZM135.866 118.135C132.278 111.918 134.408 103.969 140.624 100.379L154.627 124.626C161.8 120.483 164.257 111.312 160.117 104.138L135.866 118.135ZM156.652 98.1353C155.545 96.2176 154.028 94.5687 152.208 93.307L136.253 116.317C134.676 115.223 133.361 113.794 132.402 112.132L156.652 98.1353ZM31.2623 149.791C33.0807 150.82 35.094 151.459 37.1734 151.665L39.9367 123.802C41.7388 123.98 43.4837 124.534 45.0596 125.426L31.2623 149.791ZM9.19724 120.297C5.25441 127.49 7.82143 136.517 14.9596 140.559L28.7568 116.194C34.9432 119.697 37.1679 127.52 33.7508 133.755L9.19724 120.297ZM22.7638 102.7C19.5222 103.989 16.8315 106.368 15.1547 109.428L39.7083 122.886C38.255 125.537 35.9231 127.599 33.1137 128.717L22.7638 102.7ZM175.68 130.458C181.091 125.746 182.408 117.861 178.821 111.647L154.57 125.644C151.462 120.258 152.603 113.425 157.293 109.341L175.68 130.458ZM111.6 162.48C112.76 162.67 113.983 162.73 115.247 162.626L112.948 134.721C114.049 134.63 115.115 134.683 116.115 134.847L111.6 162.48ZM136.34 68.8117C133.829 67.6279 130.944 67.1194 127.997 67.5064L131.643 95.268C129.076 95.6051 126.564 95.1587 124.4 94.1383L136.34 68.8117ZM144.549 103.637C142.152 102.507 140.157 100.672 138.833 98.3769L163.083 84.3801C161.555 81.7321 159.254 79.6143 156.488 78.3106L144.549 103.637ZM219.721 160.327C218.905 162.028 218.417 163.867 218.283 165.748L246.212 167.743C246.095 169.373 245.672 170.967 244.965 172.441L219.721 160.327ZM233.411 141.122C229.872 142.504 226.99 145.178 225.347 148.603L250.591 160.717C249.166 163.685 246.668 166.003 243.602 167.201L233.411 141.122ZM259.124 135.219C255.653 133.908 251.818 133.929 248.362 135.279L258.553 161.359C255.557 162.53 252.234 162.548 249.226 161.411L259.124 135.219ZM182.997 177.752C186.261 173.334 186.85 167.486 184.531 162.506L159.148 174.325C157.138 170.009 157.648 164.941 160.477 161.112L182.997 177.752ZM175.417 275.781C175.491 273.993 175.933 272.24 176.715 270.632L201.895 282.878C202.798 281.021 203.308 278.999 203.393 276.936L175.417 275.781ZM219.861 268.731C221.083 270.47 221.91 272.562 222.152 274.838L194.308 277.792C194.585 280.406 195.533 282.81 196.95 284.826L219.861 268.731ZM222.011 273.738C223.57 274.673 224.914 275.924 225.959 277.411L203.047 293.507C204.253 295.222 205.804 296.666 207.602 297.745L222.011 273.738ZM236.463 284.364C235.203 282.325 233.474 280.617 231.419 279.384L217.01 303.392C215.229 302.323 213.73 300.842 212.638 299.075L236.463 284.364ZM242.76 304.547C244.096 300.374 243.539 295.825 241.237 292.096L217.412 306.807C215.417 303.576 214.935 299.633 216.092 296.016L242.76 304.547ZM229.284 331.059C233.039 329.283 235.889 326.028 237.154 322.072L210.486 313.54C211.583 310.111 214.052 307.291 217.307 305.751L229.284 331.059ZM194.899 341.653C198.869 343.383 203.393 343.313 207.308 341.46L195.33 316.151C198.723 314.546 202.644 314.485 206.085 315.984L194.899 341.653ZM162.789 322.36C164.156 326.333 167.128 329.551 170.98 331.229L182.166 305.561C185.504 307.016 188.079 309.804 189.265 313.248L162.789 322.36ZM184.391 299.086C185.452 302.169 185.316 305.539 184.009 308.526L158.355 297.306C156.848 300.753 156.691 304.641 157.915 308.198L184.391 299.086ZM236.081 182.673C243.428 179.975 251.409 184.327 253.209 191.853L225.976 198.363C228.053 207.054 237.263 212.068 245.734 208.957L236.081 182.673ZM250.962 176.301C250.424 173.07 251.119 169.665 253.046 166.838L276.182 182.609C278.399 179.357 279.204 175.439 278.581 171.699L250.962 176.301ZM276.528 159.379C275.723 154.545 272.607 150.409 268.183 148.302L256.142 173.58C252.308 171.754 249.607 168.17 248.909 163.98L276.528 159.379ZM151.052 202.725C158.519 205.328 166.909 201.693 169.935 194.127L143.936 183.731C146.56 177.17 153.823 174.039 160.268 176.285L151.052 202.725ZM121.755 170.903C121.755 173.883 122.642 176.81 124.327 179.303L147.525 163.624C148.986 165.785 149.755 168.324 149.755 170.903H121.755ZM149.755 161.579C149.755 165.026 148.386 168.332 145.949 170.77L126.146 150.974C123.334 153.787 121.755 157.602 121.755 161.579H149.755ZM149.959 208.957C158.431 212.068 167.64 207.054 169.718 198.363L142.485 191.853C144.284 184.327 152.265 179.975 159.612 182.673L149.959 208.957ZM117.112 171.699C116.489 175.439 117.294 179.357 119.511 182.609L142.647 166.838C144.574 169.665 145.27 173.07 144.731 176.301L117.112 171.699ZM146.784 163.98C146.086 168.17 143.386 171.754 139.552 173.58L127.51 148.302C123.086 150.409 119.97 154.545 119.165 159.379L146.784 163.98ZM258.815 165.273C255.823 164.261 253.302 162.193 251.723 159.458L275.974 145.461C274.152 142.304 271.243 139.919 267.791 138.751L258.815 165.273ZM257.376 162.13C254.686 162.98 251.851 162.916 249.288 162.049L258.264 135.527C255.299 134.523 252.036 134.453 248.942 135.431L257.376 162.13ZM245.901 166.857C245.846 168.729 245.384 170.617 244.496 172.365L219.531 159.688C218.51 161.699 217.976 163.871 217.913 166.038L245.901 166.857ZM245.431 178.193C245.505 178.821 245.533 179.453 245.514 180.085L217.526 179.267C217.505 179.996 217.537 180.726 217.622 181.45L245.431 178.193ZM226.594 192.59C234.744 185.878 247.071 191.167 247.825 201.697L219.896 203.695C220.765 215.846 234.99 221.948 244.393 214.204L226.594 192.59ZM231.67 188.674C230.954 189.087 230.274 189.559 229.636 190.084L247.435 211.699C246.882 212.154 246.293 212.563 245.673 212.921L231.67 188.674ZM255.15 176.345C255.044 174.349 255.399 172.287 256.263 170.352L281.831 181.767C282.823 179.545 283.233 177.175 283.111 174.864L255.15 176.345ZM282.307 159.695C282.182 157.334 281.501 155.037 280.319 152.99L256.069 166.987C255.045 165.213 254.455 163.222 254.346 161.176L282.307 159.695ZM126.848 138.751C123.395 139.919 120.486 142.304 118.665 145.461L142.915 159.458C141.336 162.193 138.815 164.261 135.823 165.273L126.848 138.751ZM150.245 214.204C159.649 221.948 173.873 215.846 174.742 203.695L146.814 201.697C147.567 191.167 159.895 185.878 168.044 192.59L150.245 214.204ZM148.965 212.921C148.345 212.563 147.756 212.154 147.203 211.699L165.002 190.084C164.364 189.559 163.684 189.087 162.969 188.674L148.965 212.921ZM116.823 86.4438C114.343 88.4858 112.584 91.2702 111.805 94.3869L138.969 101.176C138.294 103.877 136.77 106.29 134.62 108.06L116.823 86.4438ZM157.668 57.245C154.189 57.245 150.819 58.454 148.134 60.6649L165.931 82.2811C163.604 84.1972 160.683 85.245 157.668 85.245V57.245ZM245.6 60.6649C242.915 58.454 239.544 57.245 236.066 57.245V85.245C233.051 85.245 230.13 84.1972 227.803 82.2811L245.6 60.6649ZM281.947 94.4702C281.179 91.3197 279.411 88.5029 276.908 86.4418L259.111 108.058C256.941 106.272 255.409 103.83 254.743 101.1L281.947 94.4702ZM264.358 146.819C272.793 162.185 296.231 153.079 292.08 136.049L264.876 142.679C261.28 127.92 281.592 120.027 288.903 133.345L264.358 146.819ZM249.662 116.249C247.645 115.062 245.986 113.352 244.859 111.3L269.404 97.826C268.104 95.4586 266.19 93.4859 263.862 92.1163L249.662 116.249ZM227.277 101.162C225.058 101.112 222.889 100.495 220.976 99.3691L235.176 75.2368C232.969 73.9382 230.466 73.2262 227.906 73.1686L227.277 101.162ZM171.42 96.459C168.97 98.6203 165.796 99.7795 162.529 99.7061L163.158 71.7132C159.389 71.6284 155.727 72.9661 152.899 75.4598L171.42 96.459ZM151.229 113.698C150.607 114.625 149.868 115.468 149.031 116.206L130.51 95.2069C129.544 96.0588 128.692 97.0317 127.974 98.1014L151.229 113.698ZM105.272 131.952C113.386 119.853 132.213 128.212 128.68 142.345L101.516 135.556C97.4403 151.863 119.163 161.508 128.526 147.548L105.272 131.952ZM275.17 186.18C282.001 177.894 278.165 165.323 267.871 162.262L259.89 189.1C250.969 186.447 247.644 175.553 253.564 168.371L275.17 186.18ZM254.933 208.46C254.388 210.303 253.464 211.929 252.314 213.264L231.103 194.985C229.767 196.536 228.709 198.403 228.084 200.517L254.933 208.46ZM232.932 280.509C234.463 278.9 235.674 276.914 236.383 274.648L209.659 266.291C210.276 264.317 211.332 262.589 212.653 261.202L232.932 280.509ZM199.625 276.278C197.872 290.62 215.416 298.906 225.378 288.442L205.099 269.135C213.734 260.066 228.938 267.248 227.418 279.677L199.625 276.278ZM210.277 194.911C209.642 196.306 209.224 197.79 209.038 199.311L236.831 202.71C236.669 204.028 236.307 205.314 235.756 206.523L210.277 194.911ZM216.575 183.278C216.66 181.648 217.051 180.049 217.728 178.564L243.206 190.175C243.987 188.462 244.439 186.617 244.537 184.736L216.575 183.278ZM241.662 145.711C232.026 138.798 218.557 145.274 217.939 157.117L245.901 158.576C245.366 168.84 233.693 174.453 225.341 168.462L241.662 145.711ZM247.967 184.693C249.324 185.667 250.834 186.407 252.435 186.883L260.416 160.045C261.804 160.457 263.112 161.099 264.288 161.942L247.967 184.693ZM251.118 156.071C246.146 145.502 256.551 134.247 267.477 138.376L257.579 164.568C270.186 169.332 282.192 156.346 276.455 144.151L251.118 156.071ZM185 261.202C186.32 262.589 187.376 264.317 187.994 266.291L161.27 274.648C161.979 276.914 163.189 278.9 164.721 280.509L185 261.202ZM259.269 161.715C255.379 160.821 252.116 158.19 250.417 154.579L275.753 142.66C273.793 138.493 270.027 135.458 265.54 134.426L259.269 161.715ZM170.234 279.677C168.714 267.248 183.919 260.066 192.553 269.135L172.274 288.442C182.237 298.906 199.781 290.62 198.027 276.278L170.234 279.677ZM250.955 156.571C248.2 158.024 245.015 158.439 241.979 157.742L248.25 130.453C244.747 129.648 241.072 130.128 237.893 131.804L250.955 156.571ZM161.897 206.523C161.346 205.314 160.983 204.028 160.822 202.71L188.615 199.311C188.429 197.79 188.011 196.306 187.375 194.911L161.897 206.523ZM243.83 157.334C242.632 159.909 240.622 162.021 238.11 163.346L225.047 138.579C222.149 140.108 219.83 142.545 218.447 145.516L243.83 157.334ZM153.288 186.443C153.506 187.712 153.887 188.948 154.421 190.12L179.9 178.508C180.363 179.524 180.693 180.595 180.882 181.695L153.288 186.443ZM234.566 161.164C237.395 164.992 237.905 170.061 235.895 174.377L210.512 162.558C208.194 167.537 208.782 173.386 212.046 177.803L234.566 161.164ZM170.138 165.819C162.573 172.846 150.23 168.674 148.479 158.499L176.073 153.75C174.053 142.01 159.811 137.196 151.082 145.304L170.138 165.819ZM218.412 186.419C226.692 197.625 244.446 192.471 245.438 178.573L217.509 176.579C218.369 164.534 233.756 160.067 240.932 169.779L218.412 186.419ZM132.032 162.999C133.497 161.638 135.256 160.633 137.173 160.063L145.155 186.902C147.367 186.244 149.397 185.085 151.087 183.514L132.032 162.999ZM150.078 172.389C149.371 170.915 148.948 169.321 148.832 167.691L176.76 165.697C176.626 163.815 176.138 161.976 175.322 160.276L150.078 172.389ZM269.906 222.877C269.629 224.137 269.165 225.349 268.531 226.473L244.145 212.714C243.414 214.01 242.879 215.409 242.559 216.863L269.906 222.877ZM151.442 167.15C148.375 165.951 145.877 163.634 144.452 160.665L169.696 148.552C168.053 145.127 165.171 142.453 161.632 141.07L151.442 167.15ZM126.124 226.8C125.7 226.087 125.345 225.335 125.064 224.555L151.41 215.073C151.085 214.172 150.676 213.305 150.186 212.482L126.124 226.8ZM145.817 161.36C142.809 162.497 139.486 162.478 136.491 161.308L146.681 135.228C143.225 133.877 139.391 133.856 135.919 135.168L145.817 161.36ZM245.901 60.4682C243.206 58.2271 239.813 57 236.308 57V85C233.271 85 230.329 83.9365 227.994 81.9942L245.901 60.4682ZM145.697 135.431C142.602 134.453 139.339 134.523 136.374 135.527L145.35 162.049C142.787 162.916 139.952 162.98 137.262 162.13L145.697 135.431ZM176.596 145.464C175.213 142.493 172.894 140.057 169.996 138.528L156.933 163.294C154.421 161.969 152.412 159.858 151.213 157.283L176.596 145.464ZM273.939 161.579C273.939 157.602 272.359 153.787 269.547 150.974L249.745 170.77C247.308 168.332 245.939 165.026 245.939 161.579H273.939ZM263.701 249.839C264.075 248.969 264.366 248.065 264.57 247.14L237.223 241.125C237.4 240.323 237.651 239.54 237.976 238.786L263.701 249.839ZM176.725 166.038C176.662 163.871 176.129 161.699 175.107 159.688L150.142 172.365C149.254 170.617 148.792 168.729 148.737 166.857L176.725 166.038ZM154.111 169.727C161.288 160.016 176.674 164.482 177.534 176.527L149.605 178.521C150.597 192.419 168.351 197.573 176.631 186.367L154.111 169.727ZM191.569 294.36C189.911 289.62 185.991 286.024 181.125 284.78L174.19 311.907C169.973 310.829 166.576 307.712 165.139 303.604L191.569 294.36ZM228.886 331.449C232.843 329.659 235.83 326.242 237.075 322.081L210.249 314.056C211.328 310.45 213.917 307.488 217.347 305.937L228.886 331.449ZM177.017 181.45C177.101 180.726 177.133 179.996 177.112 179.267L149.124 180.085C149.106 179.453 149.133 178.821 149.207 178.193L177.017 181.45ZM168.646 279.703C166.257 281.296 164.376 283.541 163.225 286.171L188.879 297.391C187.882 299.671 186.251 301.617 184.181 302.998L168.646 279.703ZM188.537 303.175C186.359 309.614 179.588 313.287 173.003 311.604L179.938 284.476C172.34 282.534 164.528 286.772 162.014 294.202L188.537 303.175ZM195.081 341.51C198.918 343.109 203.247 343.045 207.034 341.332L195.495 315.82C198.778 314.335 202.53 314.279 205.855 315.666L195.081 341.51ZM144.088 168.371C150.008 175.553 146.684 186.447 137.763 189.1L129.781 162.262C119.487 165.323 115.651 177.894 122.482 186.18L144.088 168.371ZM182.521 202.919C180.506 205.337 179.303 208.328 179.082 211.467L207.013 213.433C206.822 216.154 205.779 218.746 204.033 220.841L182.521 202.919ZM112.113 201.747C112.457 203.324 113.053 204.834 113.878 206.221L137.94 191.903C138.655 193.104 139.172 194.413 139.47 195.78L112.113 201.747ZM118.588 144.1C112.851 156.295 124.857 169.281 137.464 164.517L127.566 138.324C138.492 134.195 148.897 145.45 143.925 156.019L118.588 144.1ZM235.425 176.285C241.87 174.039 249.134 177.17 251.757 183.731L225.759 194.127C228.784 201.693 237.174 205.328 244.641 202.725L235.425 176.285ZM281.66 93.974C280.886 90.8871 279.15 88.1265 276.703 86.0913L258.797 107.617C256.677 105.853 255.172 103.461 254.501 100.786L281.66 93.974ZM206.884 198.009C200.559 192.315 190.77 193.017 185.323 199.555L206.836 217.477C202.115 223.144 193.631 223.753 188.15 218.818L206.884 198.009ZM218.429 287.824C214.573 286.229 209.931 286.198 205.768 288.332L218.54 313.249C214.953 315.088 210.984 315.045 207.726 313.697L218.429 287.824ZM100.431 140.879C99.87 143.12 99.8344 145.46 100.327 147.717L127.683 141.749C128.11 143.705 128.079 145.733 127.593 147.675L100.431 140.879ZM172.516 279.265C173.526 277.188 175.072 275.417 176.994 274.135L192.529 297.431C194.747 295.952 196.53 293.909 197.696 291.511L172.516 279.265ZM174.603 292.295C181.657 288.286 190.62 291.646 193.298 299.305L166.868 308.549C169.959 317.386 180.301 321.264 188.44 316.637L174.603 292.295ZM162.913 322.684C164.316 326.715 167.369 329.957 171.308 331.599L182.082 305.755C185.496 307.178 188.142 309.988 189.358 313.482L162.913 322.684ZM129.504 134.375C125.016 135.406 121.25 138.441 119.29 142.608L144.626 154.527C142.927 158.139 139.664 160.769 135.774 161.663L129.504 134.375ZM293.853 149.369C294.39 147.052 294.368 144.641 293.789 142.335L266.631 149.146C266.129 147.147 266.11 145.057 266.576 143.049L293.853 149.369ZM169.569 200.517C168.943 198.403 167.885 196.535 166.549 194.985L145.339 213.264C144.188 211.929 143.264 210.303 142.719 208.46L169.569 200.517ZM111.527 174.864C111.405 177.175 111.815 179.545 112.808 181.767L138.375 170.352C139.239 172.287 139.594 174.349 139.488 176.345L111.527 174.864ZM215.598 210.943C215.178 207.184 213.375 203.852 210.728 201.469L191.994 222.279C189.711 220.223 188.137 217.327 187.771 214.054L215.598 210.943ZM117.238 86.0017C114.73 88.0465 112.95 90.8477 112.164 93.9872L139.327 100.784C138.646 103.505 137.103 105.932 134.929 107.705L117.238 86.0017ZM157.15 131.753C153.971 130.076 150.296 129.596 146.793 130.401L153.064 157.69C150.028 158.388 146.843 157.972 144.088 156.519L157.15 131.753ZM245.939 170.903C245.939 168.324 246.708 165.785 248.168 163.624L271.366 179.303C273.052 176.81 273.939 173.883 273.939 170.903H245.939ZM254.395 195.622C254.675 194.412 255.127 193.249 255.738 192.168L280.124 205.927C280.828 204.68 281.349 203.337 281.673 201.942L254.395 195.622ZM140.292 161.176C140.184 163.222 139.593 165.213 138.569 166.987L114.319 152.99C113.137 155.037 112.456 157.334 112.331 159.695L140.292 161.176ZM230.701 283.899C219.905 278.491 208.546 287.164 208.94 297.923L236.921 296.898C237.258 306.084 227.55 313.637 218.161 308.933L230.701 283.899ZM166.369 82.0764C164.049 83.9674 161.148 85 158.155 85V57C154.702 57 151.354 58.1915 148.678 60.3734L166.369 82.0764Z" fill="#8D8D8D" mask="url(#path-1-outside-1_428_892)"/>
</svg>
