<svg width="1001" height="1001" viewBox="0 0 1001 1001" fill="none" xmlns="http://www.w3.org/2000/svg">
<path d="M228.333 202.618C219.117 201.3 126.95 250.097 117.733 255.368C139.239 304.568 183.303 404.023 187.517 408.24C191.73 412.458 385.894 472.377 482.45 501.809L810.3 438.551L877.45 255.368L750.75 201.5L498.539 265.25C418.223 243.285 235.707 203.672 228.333 202.618Z" fill="#0D5767"/>
<path d="M423.25 636.879L380.75 549L361.183 458.466L722.547 530.629L520.75 612.312L590.75 604.326L580.75 636.879L498.25 717.75L423.25 636.879Z" fill="#0D5767"/>
<path d="M273.25 589L415.75 604L444.5 599L496.933 451.701L408.717 356.815L37 199L45.75 340.25L84.5 434L80.75 514L8.25 655.25L273.1 895.821L380.75 910.539L482 845.25L474.5 707.75L347 747.75L230.967 624L273.25 589Z" fill="#0D5767"/>
<path d="M520.75 612.312L564.35 482.233L494.567 575.802V453.24L582.783 358.354L954.5 201.5V335.25L918.25 427.98L920.75 510.25L992 652.75L718.4 897.36L622.283 910.539L520.75 845.25L524.5 707.75L649.5 747.75L767 626.5L747 586.5L520.75 612.312Z" fill="#0D5767"/>
<path d="M498.59 190.25L493.25 590.25L404.767 431.933L186.2 351.544L132 287.842L60.75 145.25L264.5 190.25L300.75 295.25L388.25 348.799L498.59 190.25Z" fill="#0D5767"/>
<path d="M498.59 190.25L493.25 590.25L586.733 440.013L805.3 359.624L871.078 272.75L938.25 142.75L744.5 190.25L697 297.75L615.75 358.354L498.59 190.25Z" fill="#0D5767"/>
<path d="M439 379.815L498.511 281.5L560.133 379.815L498.59 493.873L439 379.815Z" fill="#0D5767"/>
<path d="M94.0333 637.52C112.467 616.434 138.273 538.417 146.7 532.091L153.283 637.52C153.283 642.792 291.972 785.999 329.717 810.16L436.367 756.128L365.267 851.014L317.867 869.464L230.967 823.339L94.0333 637.52Z" fill="#0D5767"/>
<path d="M902.467 636.202C884.033 615.116 858.227 537.099 849.8 530.773L843.217 636.202C843.217 641.474 704.528 784.681 666.783 808.842L560.133 754.81L631.233 849.696L678.633 868.146L765.533 822.021L902.467 636.202Z" fill="#0D5767"/>
<path d="M258.617 429.298L45.75 340.25L84.5 434L273.25 589L449.5 612.312L365.267 451.701L258.617 429.298Z" fill="#0D5767"/>
<path d="M735.25 427.98L954.5 335.25L918.25 427.98L520.75 612.312L715.75 520.25L628.6 450.383L735.25 427.98Z" fill="#0D5767"/>
<path d="M245.75 224.027C237 222.777 145.75 265.277 137 270.277C157.417 316.944 199.25 411.277 203.25 415.277C207.25 419.277 391.583 476.11 483.25 504.027L794.5 444.027L858.25 270.277L748.25 224.027L495.75 289C419.5 268.167 252.75 225.027 245.75 224.027Z" fill="#51A1B3"/>
<path d="M469.5 601.5L495.75 569L518.25 601.5L750.75 561.5L814.5 649L852 569L759.5 447.75L557 437.75C420.75 456.083 147.25 493.5 143.25 496.5C139.25 499.5 158.25 595.25 168.25 642.75L260.75 561.5L469.5 601.5Z" fill="#51A1B3"/>
<path d="M443.25 626.5L365.75 459H624.5L554.5 626.5L498.25 689L443.25 626.5Z" fill="#74D8EE"/>
<path d="M204.5 515.25L430.75 484L497 572.75V456.5L413.25 366.5L57 229L63.25 336.5L100.75 430.25V515.25L29.5 650.25L284.5 877.75L375.75 890.25L458.25 832.75L453.25 734L340.75 775.25L188.25 610.25L204.5 515.25Z" fill="#74D8EE"/>
<path d="M792 514L565.75 482.75L499.5 571.5V455.25L583.25 365.25L933.25 231.5V335.25L895.75 429V514L967 649L712 876.5L620.75 889L539.5 834L544.5 731.5L655.75 774L808.25 609L792 514Z" fill="#74D8EE"/>
<path d="M498.25 232.75V580.25L409.5 437.75L202 361.5L162 284L104.5 179L235.75 210.25L259.5 295.25L415.75 349L498.25 232.75Z" fill="#89EAFF"/>
<path d="M498.25 231.5V579L587 436.5L794.5 360.25L834.5 282.75L899.5 171.5L767 206.5L729.5 297.75L577 345.25L498.25 231.5Z" fill="#89EAFF"/>
<g filter="url(#filter0_d_131_41)">
<path d="M442 388.315L498.573 294L557 388.315L498.573 496.5L442 388.315Z" fill="#CEF6FF"/>
</g>
<path d="M114.5 632.75C132 612.75 156.5 538.75 164.5 532.75L170.75 632.75C170.75 637.75 302.417 773.583 338.25 796.5L440.75 756.5L372 835.25L327 852.75L244.5 809L114.5 632.75Z" fill="#89EAFF"/>
<path d="M882 631.5C864.5 611.5 840 537.5 832 531.5L825.75 631.5C825.75 636.5 694.083 772.333 658.25 795.25L549.5 756.5L624.5 834L669.5 851.5L752 807.75L882 631.5Z" fill="#89EAFF"/>
<path d="M270.75 435.25L63.25 336.5L100.75 430.25L204.5 515.25H392L372 456.5L270.75 435.25Z" fill="#69CBE0"/>
<path d="M723.25 434L933.25 335.25L895.75 429L792 514L598.25 521.5L622 455.25L723.25 434Z" fill="#69CBE0"/>
<defs>
<filter id="filter0_d_131_41" x="402" y="254" width="195" height="282.5" filterUnits="userSpaceOnUse" color-interpolation-filters="sRGB">
<feFlood flood-opacity="0" result="BackgroundImageFix"/>
<feColorMatrix in="SourceAlpha" type="matrix" values="0 0 0 0 0 0 0 0 0 0 0 0 0 0 0 0 0 0 127 0" result="hardAlpha"/>
<feOffset/>
<feGaussianBlur stdDeviation="20"/>
<feComposite in2="hardAlpha" operator="out"/>
<feColorMatrix type="matrix" values="0 0 0 0 0.808333 0 0 0 0 0.9655 0 0 0 0 1 0 0 0 1 0"/>
<feBlend mode="normal" in2="BackgroundImageFix" result="effect1_dropShadow_131_41"/>
<feBlend mode="normal" in="SourceGraphic" in2="effect1_dropShadow_131_41" result="shape"/>
</filter>
</defs>
</svg>
