<svg width="501" height="501" viewBox="0 0 501 501" fill="none" xmlns="http://www.w3.org/2000/svg">
<g clip-path="url(#clip0_147_62)">
<mask id="path-1-outside-1_147_62" maskUnits="userSpaceOnUse" x="84.6145" y="83.8287" width="400.222" height="400.222" fill="black">
<rect fill="white" x="84.6145" y="83.8287" width="400.222" height="400.222"/>
<path d="M112.139 96.9461C108.726 93.5337 103.194 93.5337 99.7813 96.9461L97.8643 98.8632C94.4518 102.276 94.4518 107.808 97.8643 111.221L457.627 470.983C461.039 474.395 466.572 474.395 469.984 470.983L471.901 469.066C475.313 465.653 475.313 460.121 471.901 456.708L112.139 96.9461Z"/>
</mask>
<path d="M112.139 96.9461C108.726 93.5337 103.194 93.5337 99.7813 96.9461L97.8643 98.8632C94.4518 102.276 94.4518 107.808 97.8643 111.221L457.627 470.983C461.039 474.395 466.572 474.395 469.984 470.983L471.901 469.066C475.313 465.653 475.313 460.121 471.901 456.708L112.139 96.9461Z" fill="#2F0A0A"/>
<path d="M471.901 456.708L468.948 459.662L471.901 456.708ZM97.8643 98.8632L100.818 101.816L97.8643 98.8632ZM97.8643 111.221L94.9109 114.174L97.8643 111.221ZM99.7813 96.9461L96.8279 93.9928L99.7813 96.9461ZM96.8279 93.9928L94.9109 95.9098L100.818 101.816L102.735 99.8995L96.8279 93.9928ZM94.9109 114.174L454.673 473.936L460.58 468.03L100.818 108.267L94.9109 114.174ZM472.937 473.936L474.854 472.019L468.948 466.113L467.031 468.03L472.937 473.936ZM474.854 453.755L115.092 93.9928L109.185 99.8995L468.948 459.662L474.854 453.755ZM474.854 472.019C479.898 466.976 479.898 458.799 474.854 453.755L468.948 459.662C470.729 461.443 470.729 464.331 468.948 466.113L474.854 472.019ZM454.673 473.936C459.717 478.98 467.894 478.98 472.937 473.936L467.031 468.03C465.249 469.811 462.361 469.811 460.58 468.03L454.673 473.936ZM94.9109 95.9098C89.8674 100.953 89.8674 109.13 94.9109 114.174L100.818 108.267C99.0363 106.486 99.0363 103.598 100.818 101.816L94.9109 95.9098ZM102.735 99.8995C104.516 98.1181 107.404 98.1181 109.185 99.8995L115.092 93.9928C110.049 88.9493 101.871 88.9493 96.8279 93.9928L102.735 99.8995Z" fill="#200707" mask="url(#path-1-outside-1_147_62)"/>
<mask id="path-3-outside-2_147_62" maskUnits="userSpaceOnUse" x="85.604" y="83.9663" width="113.137" height="113.137" fill="black">
<rect fill="white" x="85.604" y="83.9663" width="113.137" height="113.137"/>
<path fill-rule="evenodd" clip-rule="evenodd" d="M124.572 162.764L102.18 154.282L122.852 142.96L120.368 121.914C120.289 121.245 120.83 120.666 121.502 120.698L144.018 121.795L155.094 101.368L161.892 124.724L169.667 135.631L167.645 141.064L164.91 149.361L161.836 161.27L149.6 164.671L141.344 167.365L135.704 169.595L124.572 162.764Z"/>
</mask>
<path fill-rule="evenodd" clip-rule="evenodd" d="M124.572 162.764L102.18 154.282L122.852 142.96L120.368 121.914C120.289 121.245 120.83 120.666 121.502 120.698L144.018 121.795L155.094 101.368L161.892 124.724L169.667 135.631L167.645 141.064L164.91 149.361L161.836 161.27L149.6 164.671L141.344 167.365L135.704 169.595L124.572 162.764Z" fill="#51A1B2"/>
<path d="M102.18 154.282L100.173 150.619L92.2189 154.975L100.7 158.188L102.18 154.282ZM124.572 162.764L126.756 159.204L126.42 158.998L126.051 158.858L124.572 162.764ZM122.852 142.96L124.859 146.624L127.331 145.27L127 142.471L122.852 142.96ZM120.368 121.914L124.515 121.424L124.515 121.424L120.368 121.914ZM121.502 120.698L121.705 116.527L121.705 116.527L121.502 120.698ZM144.018 121.795L143.815 125.967L146.438 126.094L147.69 123.786L144.018 121.795ZM155.094 101.368L159.104 100.201L156.264 90.4467L151.422 99.3775L155.094 101.368ZM161.892 124.724L157.882 125.891L158.08 126.572L158.491 127.148L161.892 124.724ZM169.667 135.631L173.582 137.088L174.355 135.011L173.068 133.207L169.667 135.631ZM167.645 141.064L163.731 139.607L163.703 139.681L163.679 139.757L167.645 141.064ZM164.91 149.361L160.943 148.053L160.9 148.183L160.866 148.317L164.91 149.361ZM161.836 161.27L162.954 165.295L165.277 164.649L165.88 162.314L161.836 161.27ZM149.6 164.671L148.481 160.647L148.392 160.672L148.304 160.7L149.6 164.671ZM141.344 167.365L140.049 163.395L139.928 163.434L139.809 163.481L141.344 167.365ZM135.704 169.595L133.52 173.154L135.299 174.246L137.239 173.479L135.704 169.595ZM100.7 158.188L123.092 166.67L126.051 158.858L103.659 150.376L100.7 158.188ZM120.846 139.297L100.173 150.619L104.186 157.945L124.859 146.624L120.846 139.297ZM116.22 122.404L118.705 143.45L127 142.471L124.515 121.424L116.22 122.404ZM121.705 116.527C118.453 116.368 115.838 119.17 116.22 122.404L124.515 121.424C124.739 123.32 123.206 124.963 121.299 124.87L121.705 116.527ZM144.221 117.623L121.705 116.527L121.299 124.87L143.815 125.967L144.221 117.623ZM151.422 99.3775L140.346 119.804L147.69 123.786L158.765 103.359L151.422 99.3775ZM165.902 123.557L159.104 100.201L151.083 102.536L157.882 125.891L165.902 123.557ZM173.068 133.207L165.293 122.3L158.491 127.148L166.267 138.056L173.068 133.207ZM171.56 142.521L173.582 137.088L165.753 134.174L163.731 139.607L171.56 142.521ZM168.877 150.668L171.612 142.372L163.679 139.757L160.943 148.053L168.877 150.668ZM165.88 162.314L168.954 150.404L160.866 148.317L157.792 160.227L165.88 162.314ZM150.718 168.695L162.954 165.295L160.717 157.246L148.481 160.647L150.718 168.695ZM142.64 171.336L150.896 168.641L148.304 160.7L140.049 163.395L142.64 171.336ZM137.239 173.479L142.88 171.249L139.809 163.481L134.169 165.71L137.239 173.479ZM122.388 166.324L133.52 173.154L137.888 166.035L126.756 159.204L122.388 166.324Z" fill="#200707" mask="url(#path-3-outside-2_147_62)"/>
<mask id="path-5-outside-3_147_62" maskUnits="userSpaceOnUse" x="411.115" y="409.74" width="99.7021" height="99.7021" fill="black">
<rect fill="white" x="411.115" y="409.74" width="99.7021" height="99.7021"/>
<path fill-rule="evenodd" clip-rule="evenodd" d="M438.54 465.297L445.728 471.296L443.29 473.734L457.452 483.799L462.737 482.535L470.571 481.256L486.112 484.194L483.313 468.514L484.626 460.646L485.718 455.533L475.038 441.986L471.906 445.118L466.192 437.645L455.814 438.738L435.237 432.401C434.411 432.146 433.632 432.909 433.868 433.74L439.837 454.714L438.54 465.297Z"/>
</mask>
<path fill-rule="evenodd" clip-rule="evenodd" d="M438.54 465.297L445.728 471.296L443.29 473.734L457.452 483.799L462.737 482.535L470.571 481.256L486.112 484.194L483.313 468.514L484.626 460.646L485.718 455.533L475.038 441.986L471.906 445.118L466.192 437.645L455.814 438.738L435.237 432.401C434.411 432.146 433.632 432.909 433.868 433.74L439.837 454.714L438.54 465.297Z" fill="#51A1B2"/>
<path d="M445.728 471.296L448.681 474.249L451.913 471.018L448.404 468.089L445.728 471.296ZM438.54 465.297L434.394 464.789L434.118 467.046L435.864 468.504L438.54 465.297ZM443.29 473.734L440.336 470.781L436.842 474.275L440.87 477.138L443.29 473.734ZM457.452 483.799L455.032 487.204L456.579 488.303L458.424 487.861L457.452 483.799ZM462.737 482.535L462.064 478.413L461.914 478.438L461.765 478.473L462.737 482.535ZM470.571 481.256L471.347 477.152L470.624 477.016L469.898 477.134L470.571 481.256ZM486.112 484.194L485.337 488.297L491.288 489.422L490.224 483.46L486.112 484.194ZM483.313 468.514L479.193 467.827L479.075 468.538L479.202 469.248L483.313 468.514ZM484.626 460.646L480.542 459.773L480.522 459.866L480.506 459.959L484.626 460.646ZM485.718 455.533L489.803 456.406L490.212 454.488L488.998 452.948L485.718 455.533ZM475.038 441.986L478.318 439.4L475.408 435.709L472.085 439.032L475.038 441.986ZM471.906 445.118L468.588 447.655L471.485 451.445L474.859 448.071L471.906 445.118ZM466.192 437.645L469.51 435.108L468.086 433.246L465.754 433.492L466.192 437.645ZM455.814 438.738L454.585 442.73L455.401 442.981L456.251 442.892L455.814 438.738ZM435.237 432.401L436.466 428.409L436.466 428.409L435.237 432.401ZM433.868 433.74L429.851 434.883L429.851 434.883L433.868 433.74ZM439.837 454.714L443.983 455.223L444.086 454.384L443.855 453.571L439.837 454.714ZM448.404 468.089L441.216 462.09L435.864 468.504L443.051 474.503L448.404 468.089ZM446.243 476.687L448.681 474.249L442.774 468.343L440.336 470.781L446.243 476.687ZM459.872 480.395L445.709 470.33L440.87 477.138L455.032 487.204L459.872 480.395ZM461.765 478.473L456.48 479.737L458.424 487.861L463.709 486.597L461.765 478.473ZM469.898 477.134L462.064 478.413L463.41 486.657L471.244 485.378L469.898 477.134ZM486.888 480.09L471.347 477.152L469.795 485.36L485.337 488.297L486.888 480.09ZM479.202 469.248L482.001 484.927L490.224 483.46L487.425 467.78L479.202 469.248ZM480.506 459.959L479.193 467.827L487.433 469.202L488.746 461.333L480.506 459.959ZM481.634 454.661L480.542 459.773L488.711 461.518L489.803 456.406L481.634 454.661ZM471.758 444.571L482.438 458.119L488.998 452.948L478.318 439.4L471.758 444.571ZM474.859 448.071L477.991 444.939L472.085 439.032L468.952 442.165L474.859 448.071ZM462.874 440.182L468.588 447.655L475.223 442.581L469.51 435.108L462.874 440.182ZM456.251 442.892L466.629 441.799L465.754 433.492L455.377 434.584L456.251 442.892ZM434.007 436.392L454.585 442.73L457.043 434.746L436.466 428.409L434.007 436.392ZM437.886 432.596C438.556 434.952 436.348 437.113 434.007 436.392L436.466 428.409C432.474 427.179 428.708 430.865 429.851 434.883L437.886 432.596ZM443.855 453.571L437.886 432.596L429.851 434.883L435.82 455.858L443.855 453.571ZM442.685 465.805L443.983 455.223L435.692 454.206L434.394 464.789L442.685 465.805Z" fill="#200707" mask="url(#path-5-outside-3_147_62)"/>
<mask id="path-7-outside-4_147_62" maskUnits="userSpaceOnUse" x="-6.44656" y="-6.53797" width="156.978" height="156.978" fill="black">
<rect fill="white" x="-6.44656" y="-6.53797" width="156.978" height="156.978"/>
<path fill-rule="evenodd" clip-rule="evenodd" d="M104.713 82.1872L96.2355 54.8158L22.2624 20.9114C21.3417 20.4894 20.3939 21.4426 20.821 22.3609L55.0652 95.986L83.326 104.959L94.8163 123.314L102.447 124.201L114.082 126.454L122.942 122.516L127.864 114.148L124.984 101.664L123.919 94.2105L104.713 82.1872Z"/>
</mask>
<path fill-rule="evenodd" clip-rule="evenodd" d="M104.713 82.1872L96.2355 54.8158L22.2624 20.9114C21.3417 20.4894 20.3939 21.4426 20.821 22.3609L55.0652 95.986L83.326 104.959L94.8163 123.314L102.447 124.201L114.082 126.454L122.942 122.516L127.864 114.148L124.984 101.664L123.919 94.2105L104.713 82.1872Z" fill="#51A1B2"/>
<path d="M96.2355 54.8158L100.225 53.58L99.6728 51.7968L97.9757 51.0189L96.2355 54.8158ZM104.713 82.1872L100.724 83.4229L101.183 84.9044L102.497 85.7274L104.713 82.1872ZM22.2624 20.9114L20.5222 24.7083L20.5222 24.7083L22.2624 20.9114ZM20.821 22.3609L24.608 20.5995L24.608 20.5995L20.821 22.3609ZM55.0652 95.986L51.2782 97.7474L52.0522 99.4114L53.8013 99.9668L55.0652 95.986ZM83.326 104.959L86.8662 102.743L86.0522 101.442L84.59 100.978L83.326 104.959ZM94.8163 123.314L91.2761 125.53L92.3408 127.231L94.3339 127.462L94.8163 123.314ZM102.447 124.201L103.241 120.1L103.086 120.07L102.929 120.052L102.447 124.201ZM114.082 126.454L113.288 130.554L114.578 130.804L115.779 130.27L114.082 126.454ZM122.942 122.516L124.639 126.332L125.863 125.788L126.542 124.633L122.942 122.516ZM127.864 114.148L131.464 116.266L132.308 114.831L131.934 113.209L127.864 114.148ZM124.984 101.664L120.85 102.254L120.875 102.43L120.914 102.603L124.984 101.664ZM123.919 94.2105L128.054 93.6198L127.78 91.6996L126.136 90.6703L123.919 94.2105ZM92.2458 56.0515L100.724 83.4229L108.703 80.9515L100.225 53.58L92.2458 56.0515ZM20.5222 24.7083L94.4953 58.6126L97.9757 51.0189L24.0026 17.1146L20.5222 24.7083ZM24.608 20.5995C25.8188 23.2026 23.132 25.9044 20.5222 24.7083L24.0026 17.1146C19.5514 15.0744 14.9689 19.6826 17.0339 24.1223L24.608 20.5995ZM58.8523 94.2246L24.608 20.5995L17.0339 24.1223L51.2782 97.7474L58.8523 94.2246ZM84.59 100.978L56.3292 92.0052L53.8013 99.9668L82.0621 108.94L84.59 100.978ZM98.3565 121.097L86.8662 102.743L79.7859 107.175L91.2761 125.53L98.3565 121.097ZM102.929 120.052L95.2987 119.165L94.3339 127.462L101.965 128.35L102.929 120.052ZM114.876 122.353L103.241 120.1L101.653 128.301L113.288 130.554L114.876 122.353ZM121.246 118.699L112.386 122.637L115.779 130.27L124.639 126.332L121.246 118.699ZM124.264 112.03L119.342 120.398L126.542 124.633L131.464 116.266L124.264 112.03ZM120.914 102.603L123.795 115.087L131.934 113.209L129.054 100.725L120.914 102.603ZM119.785 94.8012L120.85 102.254L129.119 101.073L128.054 93.6198L119.785 94.8012ZM102.497 85.7274L121.703 97.7507L126.136 90.6703L106.93 78.647L102.497 85.7274Z" fill="#200707" mask="url(#path-7-outside-4_147_62)"/>
<path fill-rule="evenodd" clip-rule="evenodd" d="M95.9971 94.9668L96.1028 95.2204L94.8672 105.223L96.7281 116.918L86.1921 96.5481L58.7987 89.8753L31.0544 30.1725L30.8777 29.9958L89.879 58.794L98.1321 84.6071L118.326 96.3722L106.355 94.2218L95.9971 94.9668Z" fill="#74D8EE"/>
<path d="M95.8579 94.9772L30.877 29.9963L89.8782 58.7945L98.1314 84.6076L118.325 96.3727L106.354 94.2223L95.8579 94.9772Z" fill="#89EAFF"/>
<rect width="20.1871" height="517.903" rx="10.0935" transform="matrix(-0.707107 0.707107 0.707107 0.707107 112.517 97.6765)" fill="#2F0A0A"/>
<rect width="11.8338" height="505.374" rx="5.91691" transform="matrix(-0.707107 0.707107 0.707107 0.707107 113.344 104.057)" fill="#451212"/>
<path d="M129.252 153.298L102.426 154.528L122.853 142.961L129.252 153.298Z" fill="#74D8EE"/>
<path d="M152.879 127.702L144.019 121.795L155.34 101.614L152.879 127.702Z" fill="#74D8EE"/>
</g>
<defs>
<clipPath id="clip0_147_62">
<rect width="500" height="500" fill="white" transform="translate(0.625 0.375)"/>
</clipPath>
</defs>
</svg>
