<svg width="1001" height="1001" viewBox="0 0 1001 1001" fill="none" xmlns="http://www.w3.org/2000/svg">
<path d="M500.25 100.25L783.093 217.407L900.25 500.25L783.093 783.093L500.25 900.25L217.407 783.093L100.25 500.25L217.407 217.407L500.25 100.25Z" fill="#3A3921"/>
<path d="M500.25 125.25L765.415 235.085L875.25 500.25L765.415 765.415L500.25 875.25L235.085 765.415L125.25 500.25L235.085 235.085L500.25 125.25Z" fill="#51A1B3"/>
<path d="M500.25 196.5L678.79 254.511L789.134 406.386V594.114L678.79 745.989L500.25 804L321.71 745.989L211.367 594.114V406.386L321.71 254.511L500.25 196.5Z" fill="#74D8EE"/>
<path d="M500.25 299.625L618.174 337.941L691.056 438.253V562.247L618.174 662.559L500.25 700.875L382.326 662.559L309.444 562.247V438.253L382.326 337.941L500.25 299.625Z" fill="#89EAFF"/>
<path fill-rule="evenodd" clip-rule="evenodd" d="M353.396 649.831C371.701 668.137 401.381 668.137 419.687 649.831L501.613 567.905L583.54 649.831C601.846 668.137 631.525 668.137 649.831 649.831C668.137 631.526 668.137 601.846 649.831 583.54L567.905 501.613L651.706 417.812C670.012 399.506 670.012 369.826 651.706 351.521C633.4 333.215 603.721 333.215 585.415 351.521L501.613 435.322L417.812 351.521C399.506 333.215 369.826 333.215 351.521 351.521C333.215 369.827 333.215 399.506 351.521 417.812L435.322 501.613L353.396 583.54C335.09 601.846 335.09 631.526 353.396 649.831Z" fill="#51A1B3"/>
<path fill-rule="evenodd" clip-rule="evenodd" d="M383.192 616.223C396.062 629.092 416.929 629.092 429.798 616.223L499.708 546.313L569.617 616.223C582.487 629.092 603.353 629.092 616.223 616.223C629.092 603.353 629.092 582.486 616.223 569.617L546.313 499.707L616.222 429.799C629.092 416.929 629.092 396.063 616.222 383.193C603.352 370.323 582.486 370.323 569.616 383.193L499.708 453.101L429.799 383.193C416.929 370.323 396.063 370.323 383.193 383.193C370.323 396.063 370.323 416.929 383.193 429.799L453.102 499.707L383.192 569.617C370.323 582.486 370.323 603.353 383.192 616.223Z" fill="#74D8EE"/>
</svg>
