<svg width="1001" height="1001" viewBox="0 0 1001 1001" fill="none" xmlns="http://www.w3.org/2000/svg">
<g clip-path="url(#clip0_102_49)">
<path d="M735.053 378.285C734.846 383.879 765.584 365.757 735.053 378.276L710.149 0.70917L684.44 -0.097168L388.851 156.891L376.41 214.946L500.471 493.166L10.4209 284.292L152.484 595.067H270.668L500.471 493.166L318.913 992.056L343.817 987.236L601.393 839.398L620.547 753.336L500.471 493.166L984.094 694.006L986.504 659.462L831.174 385.655L766.207 376.67L500.471 493.166C647.994 417.451 710.821 388.213 735.053 378.276L735.053 378.285Z" fill="#1F778A"/>
<path d="M500.063 493.056C559.779 347.112 703.722 8.42143 710.149 0.70917L721.79 19.0733L812.513 315.851L768.972 378.58L500.063 493.056L984.094 694.006L957.175 739.687L683.03 799.227L611.76 759.057L500.063 493.056L320.11 992.056L301.239 967.152L205.701 684.914L270.668 585.391L500.063 493.056L10.4216 285.098L326.649 193.521L383.322 214.946L500.063 493.056Z" fill="#1F778A"/>
<path d="M713.088 389.212C712.901 394.286 740.784 377.847 713.088 389.204L690.496 46.6895L667.174 45.958L405.37 182.012L393.882 240.542L500.284 493.428L55.7295 303.945L179.593 580.676L296.955 580.676L500.284 493.428L335.582 946.001L358.174 941.629L583.366 814.821L609.213 729.444L500.284 493.428L939.009 675.622L941.195 644.285L802.729 402.698L740.052 389.214L500.284 493.428C634.112 424.742 691.106 398.218 713.088 389.204L713.088 389.212Z" fill="#51A1B3"/>
<path d="M499.914 493.328C554.087 360.933 684.666 53.6858 690.496 46.6895L701.057 63.3487L779.765 322.794L740.052 389.214L499.914 493.328L939.009 675.622L914.589 717.063L681.38 770.263L607.773 736.011L499.914 493.328L336.668 946.002L319.548 923.41L235.01 675.624L295.498 579.86L499.914 493.328L55.7301 304.676L336.668 221.494L394.612 242.001L499.914 493.328Z" fill="#51A1B3"/>
<path d="M698.631 397.944C701.711 396.265 702.916 394.829 695.848 397.409L689.906 396.267L669.984 94.2247L649.188 93.5725L415.735 214.892L382.752 336.004L383.807 337.408L344.002 329.754L500.371 492.584L103.959 323.621L214.409 570.384L317.752 570.384L469.719 576.809L353.505 896.146L373.65 892.247L574.455 779.172L640.252 550.674L891.584 655.048L893.533 627.104L770.063 411.68L698.631 397.944Z" fill="#74D8EE"/>
<path d="M500.041 492.494C548.347 374.437 664.785 100.462 669.984 94.2231L679.401 109.079L749.586 340.428L714.174 399.655L500.041 492.494L891.585 655.048L869.809 691.999L661.855 739.439L596.22 708.896L500.041 492.494L354.474 896.146L339.208 876L263.825 655.048L317.762 569.655L500.041 492.494L103.96 324.272L354.474 250.098L406.143 268.384L500.041 492.494Z" fill="#89EAFF"/>
</g>
<defs>
<clipPath id="clip0_102_49">
<rect width="1000" height="1000" fill="white" transform="translate(0.75 0.25)"/>
</clipPath>
</defs>
</svg>
