<svg width="1001" height="1001" viewBox="0 0 1001 1001" fill="none" xmlns="http://www.w3.org/2000/svg">
<path d="M500.25 100.25L783.093 217.407L900.25 500.25L783.093 783.093L500.25 900.25L217.407 783.093L100.25 500.25L217.407 217.407L500.25 100.25Z" fill="#3A3921"/>
<path d="M500.25 120.383L768.856 231.643L880.117 500.25L768.856 768.857L500.25 880.117L231.643 768.857L120.383 500.25L231.643 231.643L500.25 120.383Z" fill="#51A1B3"/>
<path d="M500.25 192.557L681.107 251.321L792.882 405.168V595.332L681.107 749.178L500.25 807.942L319.393 749.178L207.617 595.332V405.168L319.393 251.321L500.25 192.557Z" fill="#74D8EE"/>
<path d="M500.25 297.021L619.705 335.835L693.532 437.449V563.051L619.705 664.666L500.25 703.479L380.795 664.666L306.968 563.051V437.449L380.795 335.835L500.25 297.021Z" fill="#89EAFF"/>
</svg>
