<svg width="501" height="501" viewBox="0 0 501 501" fill="none" xmlns="http://www.w3.org/2000/svg">
<g clip-path="url(#clip0_349_46)">
<path d="M367.777 189.143C367.674 191.939 383.042 182.879 367.777 189.138L355.325 0.354585L342.471 -0.048584L194.676 78.4456L188.456 107.473L250.486 246.583L5.46094 142.146L76.4927 297.534H135.584L250.486 246.583L159.707 496.028L172.159 493.618L300.947 419.699L310.524 376.668L250.486 246.583L492.297 347.003L493.502 329.731L415.837 192.828L383.354 188.335L250.486 246.583C324.248 208.725 355.661 194.106 367.777 189.138L367.777 189.143Z" fill="#1F778A"/>
<path d="M250.282 246.528C280.14 173.556 352.112 4.21071 355.325 0.354585L361.146 9.53665L406.507 157.925L384.737 189.29L250.282 246.528L492.297 347.003L478.838 369.844L341.766 399.614L306.131 379.528L250.282 246.528L160.306 496.028L150.87 483.576L103.101 342.457L135.584 292.696L250.282 246.528L5.46128 142.549L163.575 96.7605L191.911 107.473L250.282 246.528Z" fill="#1F778A"/>
<path d="M356.795 194.606C356.701 197.143 370.643 188.923 356.794 194.602L345.499 23.3445L333.838 22.9788L202.935 91.0056L197.192 120.271L250.392 246.714L28.1152 151.972L90.047 290.338L148.728 290.338L250.392 246.714L168.041 473.001L179.337 470.814L291.933 407.41L304.857 364.722L250.392 246.714L469.755 337.811L470.848 322.142L401.615 201.349L370.277 194.607L250.392 246.714C317.306 212.371 345.803 199.109 356.794 194.602L356.795 194.606Z" fill="#51A1B3"/>
<path d="M250.208 246.664C277.294 180.466 342.583 26.8426 345.499 23.3445L350.779 31.6741L390.133 161.397L370.277 194.607L250.208 246.664L469.755 337.811L457.545 358.531L340.94 385.131L304.137 368.005L250.208 246.664L168.584 473.001L160.025 461.705L117.755 337.812L147.999 289.93L250.208 246.664L28.1155 152.338L168.584 110.747L197.556 121L250.208 246.664Z" fill="#51A1B3"/>
<path d="M349.566 198.972C351.106 198.132 351.708 197.415 348.174 198.705L345.203 198.133L335.242 47.1122L324.844 46.7861L208.118 107.446L191.626 168.002L192.154 168.704L172.251 164.877L250.435 246.292L52.2295 161.811L107.454 285.192L159.126 285.192L235.11 288.404L177.002 448.073L187.075 446.124L287.478 389.586L320.376 275.337L446.042 327.524L447.017 313.552L385.281 205.84L349.566 198.972Z" fill="#74D8EE"/>
<path d="M250.271 246.247C274.424 187.218 332.643 50.2309 335.242 47.1116L339.951 54.5395L375.043 170.214L357.338 199.828L250.271 246.247L446.043 327.524L435.155 346L331.178 369.719L298.36 354.448L250.271 246.247L177.487 448.073L169.855 438L132.163 327.524L159.132 284.827L250.271 246.247L52.2305 162.136L177.487 125.049L203.322 134.192L250.271 246.247Z" fill="#89EAFF"/>
<path d="M17.5 194.5L11.25 147.625C11.25 147.625 33.625 118.375 38.125 116.375C42.625 114.375 56.6667 109.292 63.125 107L102.5 90.75H140.625L168.125 82L176.25 75.125C190.417 70.5417 219.875 60.375 224.375 56.375C230 51.375 262.5 28.875 262.5 19.5C262.5 12 280 0.541667 288.75 -4.25L362.5 -14.875L391.25 28.875L401.25 90.75C401.25 90.75 405.625 122.208 414.375 137L401.25 164.5L347.5 137L323.125 183.25L296.875 220.75L224.375 254.5L202.5 263.25L168.125 232.625C151.875 239.5 118 255.25 112.5 263.25C105.625 273.25 90.625 268.25 86.25 263.25C81.875 258.25 61.875 227 55 220.75C49.5 215.75 15.2083 204.917 17.5 194.5Z" fill="#DFE9F8" stroke="#CFD1FF" stroke-width="22.5"/>
</g>
<defs>
<clipPath id="clip0_349_46">
<rect width="500" height="500" fill="white" transform="translate(0.625 0.125)"/>
</clipPath>
</defs>
</svg>
