<svg width="1001" height="1001" viewBox="0 0 1001 1001" fill="none" xmlns="http://www.w3.org/2000/svg">
<path d="M821.497 882.278L407.472 442.049L362.925 447.29L339.342 436.809L286.933 460.392L221.423 518.041L69.4394 769.601L40.6148 787.944C40.6148 780.956 35.374 762.264 35.374 753.878C35.374 743.397 48.4761 596.654 61.5781 575.69C69.0313 563.765 122.721 435.062 150.672 376.539L195.219 331.992L229.284 300.547C221.423 266.482 231.905 262.988 231.905 253.38C237.146 254.253 219.851 232.416 213.562 221.935C211.815 216.694 203.08 208.833 213.562 164.286C268.591 124.98 252.868 132.841 260.729 132.841C276.452 132.841 284.313 127.6 292.174 132.841C298.463 137.034 311.391 141.576 313.138 145.943L328.86 153.804C334.974 153.804 349.823 140.702 370.787 145.943C374.854 146.96 454.64 70.8244 493.946 33.2652C499.187 29.7713 513.337 24.88 517.53 22.7836C521.722 20.6873 600.509 117.118 640.689 166.906L585.66 242.898L507.527 278.184C508.076 279.962 508.778 282.152 509.668 284.825C518.054 309.981 511.415 331.992 504.427 339.853L962.999 835.111L965.62 877.038L934.175 921.585C921.073 925.952 903.967 926.825 892.248 926.825C884.387 926.825 869.538 910.229 855.562 905.862L821.497 882.278Z" fill="#200707"/>
<rect x="196.844" y="193.857" width="104.816" height="1014.51" rx="52.4082" transform="rotate(-43.347 196.844 193.857)" fill="#2F0A0A"/>
<path d="M627.587 169.527L520.15 33.2656C467.742 48.9881 319.249 242.027 313.138 248.139C302.656 258.621 258.109 290.066 245.007 297.927C230.619 306.56 172.958 369.645 161.154 384.401C150.672 397.503 53.7171 607.135 53.7171 649.062C53.7171 690.989 37.995 725.054 53.7171 772.221L90.4026 711.952L137.57 625.478L208.321 512.801L279.072 444.67L357.684 415.846L410.093 334.613L509.668 263.862L580.42 232.417L627.587 169.527Z" fill="#74D8EE"/>
<path d="M569.939 166.907L517.531 88.2943C475.431 98.6642 334.464 247.865 329.54 251.951C321.097 258.959 322.738 265.56 284.314 287.446C284.314 287.446 225.702 340.459 216.184 350.335C207.731 359.105 120.234 492.347 120.099 520.539C119.963 548.732 107.239 571.577 119.701 603.354L149.33 562.969L187.454 505.005L244.586 429.511L301.573 383.971L364.74 364.892L407.053 310.472L487.175 263.281L541.115 221.935L569.939 166.907Z" fill="#89EAFF"/>
<path d="M346.748 415.812C340.89 415.812 335.777 411.748 334.768 405.976C326.587 359.168 335.083 316.133 360.59 292.056C386.318 267.771 426.303 260.581 472.554 271.69C477.659 272.916 481.272 277.389 481.66 282.624L484.766 324.615C485.407 333.274 477.014 339.036 468.437 340.389C451.128 343.12 455.874 365.742 438.917 381.747C421.505 398.183 407.336 384.09 407.709 400.404C407.892 408.399 402.507 415.812 394.51 415.812L346.748 415.812Z" fill="#74D8EE"/>
<path d="M374.882 414.102C360.842 370.59 364.312 335.426 384.527 316.344C404.743 297.262 440.049 295.827 482.679 312.353L535.617 476.414L374.882 414.102Z" fill="#2F0A0A"/>
<path d="M434.5 389.082L447.556 342.44L605.178 481.95L861.722 791.958L836.622 824.324L704.449 711.356L434.5 389.082Z" fill="#451212"/>
</svg>
