<svg width="1001" height="1001" viewBox="0 0 1001 1001" fill="none" xmlns="http://www.w3.org/2000/svg">
<g clip-path="url(#clip0_147_161)">
<mask id="path-1-outside-1_147_161" maskUnits="userSpaceOnUse" x="125.521" y="124.296" width="899.44" height="899.44" fill="black">
<rect fill="white" x="125.521" y="124.296" width="899.44" height="899.44"/>
<path d="M184.532 183.373C205.407 162.498 239.251 162.498 260.126 183.373L965.675 888.921C986.55 909.796 986.55 943.641 965.675 964.516V964.516C944.8 985.391 910.955 985.391 890.08 964.516L184.532 258.967C163.657 238.092 163.657 204.247 184.532 183.373V183.373Z"/>
</mask>
<path d="M184.532 183.373C205.407 162.498 239.251 162.498 260.126 183.373L965.675 888.921C986.55 909.796 986.55 943.641 965.675 964.516V964.516C944.8 985.391 910.955 985.391 890.08 964.516L184.532 258.967C163.657 238.092 163.657 204.247 184.532 183.373V183.373Z" fill="#2F0A0A"/>
<path d="M184.532 258.967L174.223 269.275L184.532 258.967ZM965.675 888.921L955.366 899.23L965.675 888.921ZM249.818 193.681L955.366 899.23L975.983 878.613L270.434 173.064L249.818 193.681ZM900.389 954.207L194.84 248.659L174.223 269.275L879.772 974.824L900.389 954.207ZM194.84 248.659C179.658 233.477 179.658 208.863 194.84 193.681L174.223 173.064C147.655 199.632 147.655 242.707 174.223 269.275L194.84 248.659ZM955.366 954.207C940.185 969.389 915.57 969.389 900.389 954.207L879.772 974.824C906.34 1001.39 949.415 1001.39 975.983 974.824L955.366 954.207ZM955.366 899.23C970.548 914.411 970.548 939.026 955.366 954.207L975.983 974.824C1002.55 948.256 1002.55 905.181 975.983 878.613L955.366 899.23ZM270.434 173.064C243.867 146.496 200.791 146.496 174.223 173.064L194.84 193.681C210.022 178.499 234.636 178.499 249.818 193.681L270.434 173.064Z" fill="#200707" mask="url(#path-1-outside-1_147_161)"/>
<mask id="path-3-outside-2_147_161" maskUnits="userSpaceOnUse" x="-74.4987" y="-71.6638" width="839.336" height="839.336" fill="black">
<rect fill="white" x="-74.4987" y="-71.6638" width="839.336" height="839.336"/>
<path fill-rule="evenodd" clip-rule="evenodd" d="M270.56 183.941L270.555 183.937C268.025 181.406 263.923 181.406 261.392 183.937L181.086 264.243C178.556 266.773 178.556 270.876 181.086 273.406L181.428 273.749L76.7119 296.354L84.2852 371.245L45.742 392.706L68.109 415.073L43.0253 440.156C42.5449 440.637 42.4153 441.366 42.7008 441.983L101.335 568.599C101.497 568.947 101.776 569.227 102.125 569.388L228.741 628.023C229.358 628.308 230.087 628.179 230.567 627.698L255.651 602.615L278.019 624.983L339.929 563.072L353.621 573.263L378.963 585.978L417.384 547.557L429.912 560.085L451.223 573.939L572.187 452.974L558.955 431.042L546.427 418.514L583.796 381.145L572.133 354.75L561.986 341.015L622.132 280.869L599.765 258.501L624.699 233.567C625.179 233.087 625.308 232.358 625.023 231.741L566.388 105.124C566.227 104.776 565.948 104.497 565.599 104.335L438.983 45.7007C438.366 45.4152 437.637 45.5448 437.157 46.0252L412.223 70.9591L389.856 48.5922L369.918 84.4008L292.643 75.2608L270.56 183.941Z"/>
</mask>
<path fill-rule="evenodd" clip-rule="evenodd" d="M270.56 183.941L270.555 183.937C268.025 181.406 263.923 181.406 261.392 183.937L181.086 264.243C178.556 266.773 178.556 270.876 181.086 273.406L181.428 273.749L76.7119 296.354L84.2852 371.245L45.742 392.706L68.109 415.073L43.0253 440.156C42.5449 440.637 42.4153 441.366 42.7008 441.983L101.335 568.599C101.497 568.947 101.776 569.227 102.125 569.388L228.741 628.023C229.358 628.308 230.087 628.179 230.567 627.698L255.651 602.615L278.019 624.983L339.929 563.072L353.621 573.263L378.963 585.978L417.384 547.557L429.912 560.085L451.223 573.939L572.187 452.974L558.955 431.042L546.427 418.514L583.796 381.145L572.133 354.75L561.986 341.015L622.132 280.869L599.765 258.501L624.699 233.567C625.179 233.087 625.308 232.358 625.023 231.741L566.388 105.124C566.227 104.776 565.948 104.497 565.599 104.335L438.983 45.7007C438.366 45.4152 437.637 45.5448 437.157 46.0252L412.223 70.9591L389.856 48.5922L369.918 84.4008L292.643 75.2608L270.56 183.941Z" fill="#51A1B2"/>
<path d="M270.56 183.941L260.252 194.249L279.442 213.44L284.846 186.844L270.56 183.941ZM181.086 273.406L170.777 283.714L181.086 273.406ZM181.428 273.749L184.505 287.999L210.651 282.354L191.737 263.44L181.428 273.749ZM76.7119 296.354L73.6358 282.104L60.8964 284.854L62.2077 297.821L76.7119 296.354ZM84.2852 371.245L91.377 383.982L99.7541 379.318L98.7894 369.779L84.2852 371.245ZM45.742 392.706L38.6502 379.969L21.781 389.362L35.4337 403.014L45.742 392.706ZM68.109 415.073L78.4173 425.381L88.7257 415.073L78.4173 404.764L68.109 415.073ZM42.7008 441.983L29.4722 448.108L29.4722 448.109L42.7008 441.983ZM101.335 568.599L114.564 562.473L114.564 562.473L101.335 568.599ZM102.125 569.388L108.251 556.16L108.251 556.16L102.125 569.388ZM228.741 628.023L234.867 614.794L234.867 614.794L228.741 628.023ZM255.651 602.615L265.959 592.306L255.651 581.998L245.343 592.306L255.651 602.615ZM278.019 624.983L267.71 635.291L278.019 645.599L288.327 635.291L278.019 624.983ZM339.929 563.072L348.634 551.378L338.528 543.856L329.621 552.764L339.929 563.072ZM353.621 573.263L344.916 584.957L345.941 585.72L347.083 586.293L353.621 573.263ZM378.963 585.978L372.425 599.008L381.831 603.727L389.271 596.287L378.963 585.978ZM417.384 547.557L427.693 537.249L417.384 526.94L407.076 537.249L417.384 547.557ZM429.912 560.085L419.604 570.393L420.684 571.474L421.966 572.307L429.912 560.085ZM451.223 573.939L443.277 586.161L453.179 592.599L461.531 584.247L451.223 573.939ZM572.187 452.974L582.495 463.282L590.564 455.213L584.669 445.443L572.187 452.974ZM558.955 431.042L571.437 423.511L570.519 421.99L569.263 420.734L558.955 431.042ZM546.427 418.514L536.119 408.206L525.81 418.514L536.119 428.823L546.427 418.514ZM583.796 381.145L594.105 391.453L601.168 384.39L597.131 375.253L583.796 381.145ZM572.133 354.75L585.467 348.858L584.816 347.384L583.858 346.088L572.133 354.75ZM561.986 341.015L551.678 330.707L542.802 339.582L550.26 349.678L561.986 341.015ZM622.132 280.869L632.441 291.177L642.749 280.869L632.441 270.561L622.132 280.869ZM599.765 258.501L589.456 248.193L579.148 258.501L589.456 268.809L599.765 258.501ZM625.023 231.741L638.252 225.615L638.252 225.615L625.023 231.741ZM566.388 105.124L579.617 98.9985L579.617 98.9982L566.388 105.124ZM565.599 104.335L571.726 91.1068L571.725 91.1067L565.599 104.335ZM438.983 45.7007L445.109 32.4721L445.108 32.472L438.983 45.7007ZM412.223 70.9591L401.914 81.2675L412.223 91.5758L422.531 81.2675L412.223 70.9591ZM389.856 48.5922L400.164 38.2838L386.511 24.6312L377.119 41.5004L389.856 48.5922ZM369.918 84.4008L368.205 98.8781L377.904 100.025L382.655 91.4926L369.918 84.4008ZM292.643 75.2608L294.356 60.7835L281.029 59.2073L278.357 72.3579L292.643 75.2608ZM260.247 194.245L260.252 194.249L280.868 173.633L280.864 173.628L260.247 194.245ZM271.701 194.245C268.538 197.408 263.41 197.408 260.247 194.245L280.864 173.628C272.64 165.405 259.307 165.405 251.084 173.628L271.701 194.245ZM191.394 274.551L271.701 194.245L251.084 173.628L170.777 253.935L191.394 274.551ZM191.394 263.098C194.557 266.261 194.557 271.389 191.394 274.551L170.777 253.935C162.554 262.158 162.554 275.491 170.777 283.714L191.394 263.098ZM191.737 263.44L191.394 263.098L170.777 283.714L171.12 284.057L191.737 263.44ZM178.352 259.499L73.6358 282.104L79.788 310.604L184.505 287.999L178.352 259.499ZM62.2077 297.821L69.781 372.712L98.7894 369.779L91.2161 294.887L62.2077 297.821ZM77.1934 358.508L38.6502 379.969L52.8338 405.443L91.377 383.982L77.1934 358.508ZM35.4337 403.014L57.8006 425.381L78.4173 404.764L56.0504 382.398L35.4337 403.014ZM57.8006 404.764L32.7169 429.848L53.3336 450.465L78.4173 425.381L57.8006 404.764ZM32.7169 429.848C27.9129 434.652 26.6173 441.944 29.4722 448.108L55.9294 435.857C58.2133 440.788 57.1768 446.622 53.3336 450.465L32.7169 429.848ZM29.4722 448.109L88.1068 574.725L114.564 562.473L55.9294 435.857L29.4722 448.109ZM88.1068 574.725C89.7194 578.208 92.5162 581.004 95.9986 582.617L108.251 556.16C111.036 557.45 113.274 559.687 114.564 562.473L88.1068 574.725ZM95.9986 582.617L222.615 641.252L234.867 614.794L108.251 556.16L95.9986 582.617ZM222.615 641.251C228.78 644.107 236.072 642.811 240.876 638.007L220.259 617.39C224.102 613.547 229.935 612.51 234.867 614.794L222.615 641.251ZM240.876 638.007L265.959 612.923L245.343 592.306L220.259 617.39L240.876 638.007ZM245.343 612.923L267.71 635.291L288.327 614.674L265.959 592.306L245.343 612.923ZM288.327 635.291L350.238 573.38L329.621 552.764L267.71 614.674L288.327 635.291ZM331.225 574.766L344.916 584.957L362.325 561.568L348.634 551.378L331.225 574.766ZM347.083 586.293L372.425 599.008L385.501 572.948L360.159 560.233L347.083 586.293ZM389.271 596.287L427.693 557.865L407.076 537.249L368.655 575.67L389.271 596.287ZM407.076 557.865L419.604 570.393L440.22 549.776L427.693 537.249L407.076 557.865ZM421.966 572.307L443.277 586.161L459.168 561.716L437.858 547.862L421.966 572.307ZM461.531 584.247L582.495 463.282L561.879 442.666L440.914 563.63L461.531 584.247ZM584.669 445.443L571.437 423.511L546.472 438.573L559.705 460.505L584.669 445.443ZM569.263 420.734L556.735 408.206L536.119 428.823L548.646 441.35L569.263 420.734ZM556.735 428.823L594.105 391.453L573.488 370.837L536.119 408.206L556.735 428.823ZM597.131 375.253L585.467 348.858L558.799 360.643L570.462 387.037L597.131 375.253ZM583.858 346.088L573.712 332.353L550.26 349.678L560.407 363.413L583.858 346.088ZM572.294 351.324L632.441 291.177L611.824 270.561L551.678 330.707L572.294 351.324ZM632.441 270.561L610.073 248.193L589.456 268.809L611.824 291.177L632.441 270.561ZM610.073 268.809L635.007 243.875L614.39 223.259L589.456 248.193L610.073 268.809ZM635.007 243.875C639.811 239.071 641.106 231.78 638.252 225.615L611.794 237.867C609.511 232.935 610.547 227.102 614.39 223.259L635.007 243.875ZM638.252 225.615L579.617 98.9985L553.16 111.25L611.794 237.867L638.252 225.615ZM579.617 98.9982C578.004 95.516 575.208 92.7195 571.726 91.1068L559.473 117.564C556.687 116.274 554.45 114.036 553.16 111.251L579.617 98.9982ZM571.725 91.1067L445.109 32.4721L432.857 58.9293L559.473 117.564L571.725 91.1067ZM445.108 32.472C438.944 29.6174 431.652 30.9126 426.848 35.7168L447.465 56.3335C443.622 60.1769 437.788 61.2131 432.857 58.9294L445.108 32.472ZM426.848 35.7168L401.914 60.6508L422.531 81.2675L447.465 56.3335L426.848 35.7168ZM422.531 60.6508L400.164 38.2838L379.547 58.9005L401.914 81.2675L422.531 60.6508ZM377.119 41.5004L357.181 77.309L382.655 91.4926L402.593 55.684L377.119 41.5004ZM371.63 69.9235L294.356 60.7835L290.931 89.7381L368.205 98.8781L371.63 69.9235ZM278.357 72.3579L256.274 181.038L284.846 186.844L306.93 78.1637L278.357 72.3579Z" fill="#200707" mask="url(#path-3-outside-2_147_161)"/>
<path fill-rule="evenodd" clip-rule="evenodd" d="M309.621 203.001L201.12 311.502L201.64 312.392L78.8133 435.218C78.3457 435.686 78.2093 436.391 78.4688 436.999L123.703 543.044C123.867 543.429 124.173 543.735 124.557 543.899L230.602 589.133C231.211 589.392 231.916 589.256 232.383 588.788L254.639 566.533L272.548 584.443L326.346 530.646L343.864 541.952L361.142 547.899L395.985 513.056L405.985 523.055L423.726 534.108L532.228 425.607L521.732 407.308L511.732 397.308L544.951 364.09L539.948 345.868L528.72 328.272L581.584 275.408L563.674 257.498L585.794 235.378C586.261 234.911 586.398 234.206 586.138 233.597L540.904 127.552C540.74 127.168 540.434 126.862 540.05 126.698L434.004 81.4636C433.396 81.2041 432.691 81.3405 432.224 81.8081L310.542 203.49L309.621 203.001Z" fill="#74D8EE"/>
<rect x="483.627" y="407.331" width="734.842" height="107.063" rx="53.5315" transform="rotate(45 483.627 407.331)" fill="#2F0A0A"/>
<rect x="493.949" y="452.065" width="664.278" height="58.398" rx="29.199" transform="rotate(45 493.949 452.065)" fill="#451212"/>
<path d="M124.026 539.814L78.5649 440.48L106.377 404.624L81.3568 391.032L121.223 368.863L111.109 311.406L197.915 296.997L304.028 190.884L307.873 108.206L362.893 119.148L390.682 86.5334L407.574 103.426L435.268 83.777L538.683 125.157L124.026 539.814Z" fill="#89EAFF"/>
</g>
<defs>
<clipPath id="clip0_147_161">
<rect width="1000" height="1000" fill="white" transform="translate(0.25 0.75)"/>
</clipPath>
</defs>
</svg>
