<svg width="1001" height="1001" viewBox="0 0 1001 1001" fill="none" xmlns="http://www.w3.org/2000/svg">
<path d="M808.7 932.426L804.145 898.267L674.338 754.796L653.842 757.073L626.514 782.123C606.778 788.196 615.444 785.375 599.187 782.123C587.8 779.846 567.304 810.268 544.531 816.283H489.875L423.833 750.241L442.052 693.308L517.203 738.854C534.663 736.577 535.422 736.577 544.531 736.577C553.64 736.577 558.195 713.804 565.027 697.863L528.59 675.09L560.472 652.316L64.0176 167.248L111.841 21.5H257.589L685.725 558.947L717.607 531.619L731.271 568.056L749.489 563.501L760.876 538.451L726.716 463.299H795.036L849.691 520.232L838.305 568.056C836.027 597.661 834.499 596.801 831.473 603.676C820.086 629.543 797.313 660.609 767.708 671.996L758.599 686.476L883.851 822.299L906.624 839.056L927.12 848.166L936.229 868.661L908.902 934.704L892.96 950.645L808.7 932.426Z" fill="#200707"/>
<path d="M687.048 758.063C670.029 740.032 670.849 711.619 688.88 694.599C706.911 677.58 735.324 678.4 752.343 696.431L890.874 843.195C907.894 861.226 907.074 889.639 889.043 906.659C871.012 923.678 842.599 922.858 825.579 904.827L687.048 758.063Z" fill="#2F0A0A"/>
<path d="M813.254 920.223V888.341L881.573 840.517L922.565 854.181V874.677C922.565 883.786 915.733 895.173 911.178 906.559C906.624 917.946 897.515 927.055 895.237 936.164C893.415 943.452 877.778 939.201 870.187 936.164L822.363 927.055L813.254 920.223Z" fill="#2F0A0A"/>
<path d="M716.816 763.96L712.945 711.527L765.111 728.15L861.69 831.898L861.066 879.718L817.888 869.492L716.816 763.96Z" fill="#451212"/>
<path d="M679.994 743.694L650.438 745.398L632.905 757.815L618.039 776.921L585.817 771.935L561.987 793.839L540.17 811.065C526.349 814.364 501.047 809.663 490.827 807.639C491.076 808.04 491.09 808.22 490.838 808.147C484.28 806.257 485.518 806.587 490.827 807.639C487.63 802.474 445.622 760.625 432.943 747.724L446.607 702.418L510.165 747.724L558.841 739.274L581.228 692.361L546.809 675.971L715.33 545.283L722.978 579.258L752.534 577.553L771.161 544.544L735.826 470.131L788.205 470.132L838.449 524.697L827.561 573.227C826.526 581.651 823.651 600.37 820.433 607.855C817.215 615.34 803.687 633.913 784.405 655.554L757.122 657.127L746.803 675.971L747.852 694.159L679.994 743.694Z" fill="#2F0A0A"/>
<path d="M75.4037 164.971L597.202 668.704L663.315 677.065L700.656 643.626L688.503 574.774L255.312 35.164L123.227 35.164L75.4037 164.971Z" fill="#51A1B3"/>
<path d="M671.004 645.349C661.949 642.865 614.5 645.887 607.256 643.9L95.8998 160.416L137.837 50.0871L253.122 89.1538L676.748 593.087L671.004 645.349Z" fill="#74D8EE"/>
<path d="M246.202 51.1049L139.168 51.105L168.533 81.1164L666.11 647.453L672.61 597.567L246.202 51.1049Z" fill="#89EAFF"/>
<path d="M808.7 932.426L804.145 898.267L674.338 754.796L653.842 757.073L626.514 782.123C606.778 788.196 615.444 785.375 599.187 782.123C587.8 779.846 567.304 810.268 544.531 816.283H489.875L423.833 750.241L442.052 693.308L517.203 738.854C534.663 736.577 535.422 736.577 544.531 736.577C553.64 736.577 558.195 713.804 565.027 697.863L528.59 675.09L560.472 652.317L64.0176 167.248L111.841 21.5H257.589L685.725 558.947L717.607 531.619L731.271 568.056L749.489 563.501L760.876 538.451L726.716 463.299H795.036L849.691 520.232L838.305 568.056C836.027 597.661 834.499 596.801 831.473 603.676C820.086 629.543 797.313 660.609 767.708 671.996L758.599 686.476L883.851 822.299L906.624 839.056L927.12 848.166L936.229 868.661L908.902 934.704L892.96 950.645L808.7 932.426Z" fill="#1C0D0D"/>
<path d="M687.048 758.063C670.029 740.032 670.849 711.619 688.88 694.599C706.911 677.58 735.324 678.4 752.343 696.431L890.874 843.195C907.894 861.226 907.074 889.639 889.043 906.659C871.012 923.678 842.599 922.858 825.579 904.827L687.048 758.063Z" fill="#2F0A0A"/>
<path d="M813.254 920.223V888.341L881.573 840.517L922.565 854.181V874.677C922.565 883.786 915.733 895.173 911.178 906.559C906.624 917.946 897.515 927.055 895.237 936.164C893.415 943.452 877.778 939.201 870.187 936.164L822.363 927.055L813.254 920.223Z" fill="#2F0A0A"/>
<path d="M716.816 763.96L712.945 711.527L765.111 728.15L861.69 831.898L861.066 879.718L817.888 869.492L716.816 763.96Z" fill="#451212"/>
<path d="M679.994 743.694L650.438 745.398L632.905 757.815L618.039 776.921L585.817 771.935L561.987 793.839L540.17 811.065C526.349 814.364 501.047 809.663 490.827 807.639C491.076 808.04 491.09 808.22 490.838 808.147C484.28 806.257 485.518 806.587 490.827 807.639C487.63 802.474 445.622 760.625 432.943 747.724L446.607 702.418L510.165 747.724L558.841 739.274L581.228 692.361L546.809 675.971L715.33 545.283L722.978 579.258L752.534 577.553L771.161 544.544L735.826 470.131L788.205 470.131L838.449 524.696L827.561 573.227C826.526 581.651 823.651 600.37 820.433 607.855C817.215 615.34 803.687 633.913 784.405 655.554L757.122 657.127L746.803 675.971L747.852 694.159L679.994 743.694Z" fill="#2F0A0A"/>
<path d="M75.4037 164.971L597.202 668.704L663.315 677.065L700.656 643.626L688.503 574.774L255.312 35.164L123.227 35.164L75.4037 164.971Z" fill="#51A1B3"/>
<path d="M671.005 645.349C661.949 642.865 614.5 645.887 607.256 643.9L95.8998 160.416L137.837 50.0871L253.122 89.1538L676.748 593.087L671.005 645.349Z" fill="#74D8EE"/>
<path d="M246.202 51.1049L139.168 51.105L168.533 81.1164L666.11 647.453L672.61 597.567L246.202 51.1049Z" fill="#89EAFF"/>
</svg>
