<svg width="501" height="501" viewBox="0 0 501 501" fill="none" xmlns="http://www.w3.org/2000/svg">
<g clip-path="url(#clip0_135_513)">
<path d="M251.397 11.0077L291.813 68.3807C294.943 72.8243 300.803 74.3944 305.736 72.1112L369.424 42.6329C370.208 42.2697 371.116 42.7937 371.194 43.6548L377.509 113.549C377.998 118.963 382.287 123.252 387.701 123.741L457.595 130.056C458.456 130.134 458.98 131.042 458.617 131.826L429.139 195.514C426.856 200.447 428.426 206.307 432.869 209.437L490.242 249.853C490.949 250.351 490.949 251.399 490.242 251.897L432.869 292.313C428.426 295.443 426.856 301.303 429.139 306.236L458.617 369.924C458.98 370.708 458.456 371.616 457.595 371.694L387.701 378.009C382.287 378.498 377.998 382.787 377.509 388.201L371.194 458.095C371.116 458.956 370.208 459.48 369.424 459.117L305.736 429.639C300.803 427.356 294.943 428.926 291.813 433.369L251.397 490.742C250.899 491.449 249.851 491.449 249.353 490.742L208.937 433.369C205.807 428.926 199.947 427.356 195.014 429.639L131.326 459.117C130.542 459.48 129.634 458.956 129.556 458.095L123.241 388.201C122.752 382.787 118.463 378.498 113.049 378.009L43.1548 371.694C42.2937 371.616 41.7697 370.708 42.1329 369.924L71.6112 306.236C73.8943 301.303 72.3243 295.443 67.8807 292.313L10.5077 251.897C9.80088 251.399 9.80088 250.351 10.5077 249.853L67.8807 209.437C72.3243 206.307 73.8944 200.447 71.6112 195.514L42.1329 131.826C41.7697 131.042 42.2937 130.134 43.1548 130.056L113.049 123.741C118.463 123.252 122.752 118.963 123.241 113.549L129.556 43.6548C129.634 42.7937 130.542 42.2697 131.326 42.6329L195.014 72.1112C199.947 74.3943 205.807 72.8243 208.937 68.3807L249.353 11.0077C249.851 10.3009 250.899 10.3009 251.397 11.0077Z" fill="#74D8EE" stroke="#4A4242" stroke-width="10"/>
</g>
<defs>
<clipPath id="clip0_135_513">
<rect width="500" height="500" fill="white" transform="translate(0.375 0.875)"/>
</clipPath>
</defs>
</svg>
