<svg width="400" height="400" viewBox="0 0 400 400" fill="none" xmlns="http://www.w3.org/2000/svg">
<g clip-path="url(#clip0_102_49)">
<path d="M293.721 151.214C293.638 153.452 305.933 146.203 293.721 151.211L283.759 0.183863L273.476 -0.138672L155.24 62.6567L150.264 85.8786L199.888 197.167L3.86816 113.617L60.6936 237.927H107.967L199.888 197.167L127.265 396.723L137.227 394.794L240.257 335.659L247.919 301.235L199.888 197.167L393.337 277.503L394.301 263.685L332.169 154.162L306.183 150.568L199.888 197.167C258.898 166.881 284.028 155.185 293.721 151.211L293.721 151.214Z" fill="#1F778A"/>
<path d="M199.725 197.123C223.612 138.745 281.189 3.26877 283.759 0.183863L288.416 7.52952L324.705 126.241L307.289 151.332L199.725 197.123L393.337 277.503L382.57 295.775L272.912 319.591L244.404 303.523L199.725 197.123L127.744 396.723L120.195 386.761L81.9804 273.866L107.967 234.057L199.725 197.123L3.86844 113.939L130.359 77.3086L153.029 85.8786L199.725 197.123Z" fill="#1F778A"/>
<path d="M284.935 155.585C284.86 157.614 296.014 151.039 284.935 155.582L275.898 18.5758L266.57 18.2832L161.848 72.7047L157.253 96.1168L199.813 197.271L21.9917 121.478L71.5371 232.17L118.482 232.17L199.813 197.271L133.933 378.301L142.969 376.552L233.046 325.829L243.385 291.678L199.813 197.271L375.303 270.149L376.178 257.614L320.791 160.979L295.721 155.586L199.813 197.271C253.345 169.797 276.142 159.187 284.935 155.582L284.935 155.585Z" fill="#51A1B3"/>
<path d="M199.666 197.231C221.335 144.273 273.566 21.3743 275.898 18.5758L280.123 25.2395L311.606 129.017L295.721 155.586L199.666 197.231L375.303 270.149L365.535 286.725L272.252 308.005L242.809 294.304L199.666 197.231L134.367 378.301L127.519 369.264L93.7038 270.15L117.899 231.844L199.666 197.231L21.9919 121.77L134.367 88.4974L157.545 96.7004L199.666 197.231Z" fill="#51A1B3"/>
<path d="M279.153 159.078C280.385 158.406 280.867 157.832 278.04 158.864L275.663 158.406L267.694 37.5897L259.376 37.3288L165.995 85.8568L152.801 134.301L153.223 134.863L137.301 131.801L199.849 196.933L41.2841 129.348L85.464 228.053L126.801 228.053L187.588 230.623L141.102 358.358L149.161 356.799L229.483 311.569L255.801 220.169L356.334 261.919L357.114 250.741L307.726 164.572L279.153 159.078Z" fill="#74D8EE"/>
<path d="M199.717 196.898C219.039 149.675 265.614 40.0848 267.694 37.5894L271.461 43.5317L299.535 136.071L285.37 159.762L199.717 196.898L356.334 261.919L347.624 276.7L264.442 295.676L238.188 283.458L199.717 196.898L141.49 358.358L135.383 350.3L105.23 261.919L126.805 227.762L199.717 196.898L41.2842 129.609L141.49 99.9392L162.157 107.254L199.717 196.898Z" fill="#89EAFF"/>
</g>
<defs>
<clipPath id="clip0_102_49">
<rect width="400" height="400" fill="white"/>
</clipPath>
</defs>
</svg>
