<svg width="400" height="400" viewBox="0 0 400 400" fill="none" xmlns="http://www.w3.org/2000/svg">
<path d="M326.203 371.692L160.593 195.6L142.774 197.697L133.34 193.504L112.377 202.937L86.1729 225.997L25.3794 326.621L13.8496 333.958C13.8496 331.163 11.7532 323.686 11.7532 320.332C11.7532 316.139 16.9941 257.442 22.2349 249.057C25.2161 244.287 46.692 192.805 57.8725 169.396L75.6913 151.577L89.3174 138.999C86.1729 125.373 90.3656 123.976 90.3656 120.132C92.4619 120.482 85.544 111.747 83.0284 107.554C82.3296 105.458 78.8357 102.314 83.0284 84.4948C105.04 68.7724 98.7509 71.9168 101.895 71.9168C108.184 71.9168 111.329 69.8205 114.473 71.9168C116.989 73.5939 122.16 75.4107 122.859 77.1576L129.148 80.3022C131.593 80.3022 137.533 75.0613 145.918 77.1576C147.545 77.5644 179.46 47.1103 195.182 32.0866C197.278 30.689 202.938 28.7325 204.615 27.8939C206.293 27.0554 237.807 65.6278 253.879 85.543L231.868 115.94L200.615 130.054C200.834 130.765 201.115 131.641 201.471 132.71C204.825 142.773 202.17 151.577 199.375 154.722L382.803 352.825L383.852 369.596L371.274 387.414C366.033 389.161 359.19 389.511 354.503 389.511C351.358 389.511 345.419 382.872 339.829 381.125L326.203 371.692Z" fill="black" fill-opacity="0.5"/>
<rect x="76.3408" y="96.3231" width="41.9266" height="405.803" rx="20.9633" transform="rotate(-43.347 76.3408 96.3231)" fill="black" fill-opacity="0.5"/>
<rect x="78.3574" y="97.974" width="41.3262" height="399.991" rx="20.6631" transform="rotate(-43.347 78.3574 97.974)" fill="black" fill-opacity="0.5"/>
<path d="M248.638 86.591L205.663 32.0864C184.7 38.3754 125.303 115.591 122.858 118.036C118.666 122.229 100.847 134.807 95.6061 137.951C89.851 141.404 66.7866 166.638 62.0648 172.54C57.8722 177.781 19.0902 261.634 19.0902 278.405C19.0902 295.176 12.8014 308.802 19.0902 327.669L33.7644 303.561L52.6314 268.972L80.9318 223.9L109.232 196.648L140.677 185.118L161.64 152.625L201.471 124.325L229.771 111.747L248.638 86.591Z" fill="black" fill-opacity="0.5"/>
<path d="M225.579 85.5428L204.616 54.0979C187.775 58.2459 131.389 117.926 129.419 119.561C126.042 122.364 126.698 125.004 111.329 133.758C111.329 133.758 87.8841 154.964 84.0766 158.914C80.6957 162.422 45.6969 215.719 45.6427 226.996C45.5884 238.273 40.4986 247.411 45.4834 260.122L57.3351 243.968L72.5848 220.782L95.4373 190.584L118.232 172.369L143.499 164.737L160.424 142.969L192.473 124.093L214.049 107.554L225.579 85.5428Z" fill="black" fill-opacity="0.5"/>
<rect x="183.652" y="178.829" width="11.9282" height="259.171" rx="5.9641" transform="rotate(-43.347 183.652 178.829)" fill="black" fill-opacity="0.5"/>
<path d="M147.556 184.421C141.94 167.016 143.328 152.951 151.414 145.318C159.5 137.685 173.623 137.111 190.675 143.721L211.85 209.346L147.556 184.421Z" fill="black" fill-opacity="0.5"/>
<path d="M328.299 352.811L162.689 176.72L144.87 178.816L135.437 174.623L114.473 184.057L88.2692 207.117L27.4757 307.74L15.9459 315.077C15.9459 312.282 13.8495 304.805 13.8495 301.451C13.8495 297.259 19.0904 238.561 24.3312 230.176C27.3125 225.406 48.7884 173.925 59.9688 150.516L77.7876 132.697L91.4137 120.119C88.2692 106.493 92.4619 105.095 92.4619 101.252C94.5582 101.601 87.6403 92.8666 85.1247 88.6739C84.4259 86.5776 80.9321 83.4331 85.1247 65.6143C107.136 49.8919 100.847 53.0364 103.992 53.0364C110.281 53.0364 113.425 50.94 116.57 53.0364C119.085 54.7134 124.256 56.5302 124.955 58.2771L131.244 61.4217C133.69 61.4217 139.629 56.1808 148.015 58.2771C149.642 58.6839 181.556 28.2298 197.278 13.2061C199.375 11.8085 205.035 9.85198 206.712 9.01345C208.389 8.17492 239.904 46.7473 255.975 66.6625L233.964 97.0592L202.711 111.174C202.93 111.885 203.211 112.761 203.567 113.83C206.921 123.892 204.266 132.697 201.471 135.841L384.9 333.944L385.948 350.715L373.37 368.534C368.129 370.281 361.287 370.63 356.599 370.63C353.455 370.63 347.515 363.992 341.925 362.245L328.299 352.811Z" fill="#200707"/>
<rect x="78.4372" y="77.4429" width="41.9266" height="405.803" rx="20.9633" transform="rotate(-43.347 78.4372 77.4429)" fill="#2F0A0A"/>
<path d="M250.734 67.7107L207.76 13.2062C186.796 19.4952 127.399 96.7109 124.955 99.1556C120.762 103.348 102.943 115.926 97.7025 119.071C91.9474 122.524 68.8829 147.758 64.1612 153.66C59.9686 158.901 21.1866 242.754 21.1866 259.525C21.1866 276.295 14.8978 289.922 21.1866 308.788L35.8608 284.681L54.7277 250.091L83.0282 205.02L111.329 177.768L142.774 166.238L163.737 133.745L203.567 105.445L231.868 92.8667L250.734 67.7107Z" fill="#51A1B3"/>
<path d="M227.675 66.6626L206.712 35.2177C189.872 39.3656 133.485 99.0459 131.516 100.68C128.138 103.483 128.795 106.124 113.425 114.878C113.425 114.878 89.9805 136.084 86.1729 140.034C82.792 143.542 47.7933 196.839 47.739 208.116C47.6848 219.393 42.5949 228.531 47.5797 241.242L59.4315 225.088L74.6812 201.902L97.5337 171.704L120.329 153.488L145.596 145.857L162.521 124.089L194.57 105.212L216.145 88.674L227.675 66.6626Z" fill="#74D8EE"/>
<path d="M138.399 166.225C136.056 166.225 134.011 164.599 133.607 162.291C130.335 143.567 133.733 126.353 143.936 116.723C154.227 107.009 170.221 104.132 188.722 108.576C190.763 109.066 192.209 110.856 192.364 112.95L193.606 129.746C193.863 133.21 190.505 135.514 187.075 136.056C180.151 137.148 182.05 146.197 175.267 152.599C168.302 159.173 162.634 153.536 162.784 160.062C162.857 163.259 160.703 166.225 157.504 166.225L138.399 166.225Z" fill="#51A1B3"/>
<path d="M149.652 165.541C144.036 148.136 145.424 134.07 153.51 126.438C161.597 118.805 175.719 118.231 192.771 124.841L213.946 190.465L149.652 165.541Z" fill="#2F0A0A"/>
<path d="M173.5 155.533L178.722 136.876L241.771 192.68L344.388 316.683L334.349 329.629L281.479 284.442L173.5 155.533Z" fill="#451212"/>
</svg>
