<svg width="501" height="501" viewBox="0 0 501 501" fill="none" xmlns="http://www.w3.org/2000/svg">
<g clip-path="url(#clip0_147_161)">
<mask id="path-1-outside-1_147_161" maskUnits="userSpaceOnUse" x="62.3035" y="62.0446" width="450.427" height="450.427" fill="black">
<rect fill="white" x="62.3035" y="62.0446" width="450.427" height="450.427"/>
<path d="M92.5158 91.9363C102.953 81.4989 119.876 81.4989 130.313 91.9363L483.087 444.711C493.525 455.148 493.525 472.071 483.087 482.508V482.508C472.65 492.945 455.728 492.945 445.29 482.508L92.5158 129.734C82.0784 119.296 82.0784 102.374 92.5158 91.9363V91.9363Z"/>
</mask>
<path d="M92.5158 91.9363C102.953 81.4989 119.876 81.4989 130.313 91.9363L483.087 444.711C493.525 455.148 493.525 472.071 483.087 482.508V482.508C472.65 492.945 455.728 492.945 445.29 482.508L92.5158 129.734C82.0784 119.296 82.0784 102.374 92.5158 91.9363V91.9363Z" fill="#2F0A0A"/>
<path d="M445.29 482.508L440.136 487.662L445.29 482.508ZM130.313 91.9363L125.159 97.0905L130.313 91.9363ZM125.159 97.0905L477.933 449.865L488.242 439.557L135.467 86.7822L125.159 97.0905ZM450.444 477.354L97.67 124.579L87.3617 134.888L440.136 487.662L450.444 477.354ZM97.67 124.579C90.0792 116.989 90.0792 104.681 97.67 97.0905L87.3617 86.7821C74.0777 100.066 74.0777 121.604 87.3617 134.888L97.67 124.579ZM477.933 477.354C470.342 484.945 458.035 484.945 450.444 477.354L440.136 487.662C453.42 500.946 474.958 500.946 488.242 487.662L477.933 477.354ZM477.933 449.865C485.524 457.456 485.524 469.763 477.933 477.354L488.242 487.662C501.526 474.378 501.526 452.84 488.242 439.557L477.933 449.865ZM135.467 86.7822C122.183 73.4982 100.646 73.4982 87.3617 86.7821L97.67 97.0905C105.261 89.4996 117.568 89.4996 125.159 97.0905L135.467 86.7822Z" fill="#200707" mask="url(#path-1-outside-1_147_161)"/>
<mask id="path-3-outside-2_147_161" maskUnits="userSpaceOnUse" x="-37.3529" y="-35.5819" width="420.021" height="420.021" fill="black">
<rect fill="white" x="-37.3529" y="-35.5819" width="420.021" height="420.021"/>
<path fill-rule="evenodd" clip-rule="evenodd" d="M135.53 92.2208L135.527 92.2184C134.262 90.9532 132.211 90.9532 130.946 92.2184L90.7926 132.372C89.5275 133.637 89.5275 135.688 90.7926 136.953L90.9639 137.124L38.6059 148.427L42.3926 185.873L23.121 196.603L34.3046 207.786L21.7627 220.328C21.5225 220.569 21.4577 220.933 21.6005 221.241L50.9178 284.55C50.9984 284.724 51.1382 284.864 51.3124 284.944L114.621 314.262C114.929 314.404 115.294 314.34 115.534 314.099L128.076 301.557L139.259 312.741L170.215 281.786L177.06 286.881L189.731 293.239L208.942 274.029L215.206 280.292L225.861 287.219L286.344 226.737L279.727 215.771L273.463 209.507L292.148 190.823L286.316 177.625L281.243 170.758L311.316 140.684L300.132 129.501L312.599 117.034C312.84 116.793 312.904 116.429 312.762 116.121L283.444 52.8123C283.364 52.6382 283.224 52.4984 283.05 52.4177L219.741 23.1005C219.433 22.9577 219.069 23.0225 218.828 23.2627L206.361 35.7296L195.178 24.5461L185.209 42.4504L146.572 37.8804L135.53 92.2208Z"/>
</mask>
<path fill-rule="evenodd" clip-rule="evenodd" d="M135.53 92.2208L135.527 92.2184C134.262 90.9532 132.211 90.9532 130.946 92.2184L90.7926 132.372C89.5275 133.637 89.5275 135.688 90.7926 136.953L90.9639 137.124L38.6059 148.427L42.3926 185.873L23.121 196.603L34.3046 207.786L21.7627 220.328C21.5225 220.569 21.4577 220.933 21.6005 221.241L50.9178 284.55C50.9984 284.724 51.1382 284.864 51.3124 284.944L114.621 314.262C114.929 314.404 115.294 314.34 115.534 314.099L128.076 301.557L139.259 312.741L170.215 281.786L177.06 286.881L189.731 293.239L208.942 274.029L215.206 280.292L225.861 287.219L286.344 226.737L279.727 215.771L273.463 209.507L292.148 190.823L286.316 177.625L281.243 170.758L311.316 140.684L300.132 129.501L312.599 117.034C312.84 116.793 312.904 116.429 312.762 116.121L283.444 52.8123C283.364 52.6382 283.224 52.4984 283.05 52.4177L219.741 23.1005C219.433 22.9577 219.069 23.0225 218.828 23.2627L206.361 35.7296L195.178 24.5461L185.209 42.4504L146.572 37.8804L135.53 92.2208Z" fill="#51A1B2"/>
<path d="M135.527 92.2184L130.373 97.3725L135.527 92.2184ZM135.53 92.2208L130.376 97.375L139.971 106.97L142.673 93.6723L135.53 92.2208ZM90.9639 137.124L92.502 144.249L105.575 141.427L96.1181 131.97L90.9639 137.124ZM38.6059 148.427L37.0679 141.302L30.6982 142.677L31.3538 149.16L38.6059 148.427ZM42.3926 185.873L45.9385 192.241L50.127 189.909L49.6447 185.139L42.3926 185.873ZM23.121 196.603L19.5751 190.234L11.1405 194.931L17.9669 201.757L23.121 196.603ZM34.3046 207.786L39.4587 212.941L44.6129 207.786L39.4587 202.632L34.3046 207.786ZM21.6005 221.241L14.9862 224.304L14.9862 224.304L21.6005 221.241ZM50.9178 284.55L57.5321 281.487L57.5321 281.487L50.9178 284.55ZM51.3124 284.944L54.3754 278.33L54.3754 278.33L51.3124 284.944ZM114.621 314.262L111.558 320.876L111.558 320.876L114.621 314.262ZM128.076 301.557L133.23 296.403L128.076 291.249L122.921 296.403L128.076 301.557ZM139.259 312.741L134.105 317.895L139.259 323.05L144.414 317.895L139.259 312.741ZM170.215 281.786L174.567 275.939L169.514 272.178L165.06 276.632L170.215 281.786ZM177.06 286.881L172.708 292.729L173.221 293.11L173.791 293.396L177.06 286.881ZM189.731 293.239L186.463 299.754L191.165 302.114L194.886 298.393L189.731 293.239ZM208.942 274.029L214.096 268.874L208.942 263.72L203.788 268.874L208.942 274.029ZM215.206 280.292L210.052 285.447L210.592 285.987L211.233 286.404L215.206 280.292ZM225.861 287.219L221.888 293.331L226.84 296.549L231.015 292.374L225.861 287.219ZM286.344 226.737L291.498 231.891L295.532 227.857L292.585 222.972L286.344 226.737ZM279.727 215.771L285.968 212.006L285.51 211.245L284.881 210.617L279.727 215.771ZM273.463 209.507L268.309 204.353L263.155 209.507L268.309 214.661L273.463 209.507ZM292.148 190.823L297.302 195.977L300.834 192.445L298.815 187.876L292.148 190.823ZM286.316 177.625L292.984 174.679L292.658 173.942L292.179 173.294L286.316 177.625ZM281.243 170.758L276.089 165.604L271.651 170.041L275.38 175.089L281.243 170.758ZM311.316 140.684L316.47 145.839L321.625 140.684L316.47 135.53L311.316 140.684ZM300.132 129.501L294.978 124.346L289.824 129.501L294.978 134.655L300.132 129.501ZM312.762 116.121L306.147 119.184L306.148 119.184L312.762 116.121ZM283.444 52.8123L290.059 49.7493L290.059 49.7492L283.444 52.8123ZM283.05 52.4177L286.113 45.8035L286.113 45.8034L283.05 52.4177ZM219.741 23.1005L216.678 29.7146L216.678 29.7148L219.741 23.1005ZM206.361 35.7296L201.207 40.8838L206.361 46.038L211.516 40.8838L206.361 35.7296ZM195.178 24.5461L200.332 19.3919L193.506 12.5656L188.809 21.0002L195.178 24.5461ZM185.209 42.4504L184.353 49.6891L189.202 50.2626L191.577 45.9963L185.209 42.4504ZM146.572 37.8804L147.428 30.6418L140.765 29.8537L139.428 36.429L146.572 37.8804ZM130.373 97.3725L130.376 97.375L140.684 87.0667L140.682 87.0642L130.373 97.3725ZM136.1 97.3725C134.519 98.954 131.955 98.954 130.373 97.3725L140.682 87.0642C136.57 82.9525 129.903 82.9525 125.792 87.0642L136.1 97.3725ZM95.9468 137.526L136.1 97.3725L125.792 87.0642L85.6385 127.217L95.9468 137.526ZM95.9468 131.799C97.5282 133.38 97.5282 135.944 95.9468 137.526L85.6385 127.217C81.5268 131.329 81.5267 137.996 85.6385 142.107L95.9468 131.799ZM96.1181 131.97L95.9468 131.799L85.6385 142.107L85.8098 142.279L96.1181 131.97ZM89.4259 129.999L37.0679 141.302L40.144 155.552L92.502 144.249L89.4259 129.999ZM31.3538 149.16L35.1405 186.606L49.6447 185.139L45.858 147.694L31.3538 149.16ZM38.8467 179.504L19.5751 190.234L26.667 202.971L45.9385 192.241L38.8467 179.504ZM17.9669 201.757L29.1504 212.941L39.4587 202.632L28.2752 191.449L17.9669 201.757ZM29.1504 202.632L16.6086 215.174L26.9169 225.483L39.4587 212.941L29.1504 202.632ZM16.6086 215.174C14.2066 217.576 13.5587 221.222 14.9862 224.304L28.2148 218.178C29.3568 220.644 28.8385 223.561 26.9169 225.483L16.6086 215.174ZM14.9862 224.304L44.3035 287.613L57.5321 281.487L28.2148 218.178L14.9862 224.304ZM44.3035 287.613C45.1098 289.354 46.5082 290.752 48.2494 291.559L54.3754 278.33C55.7683 278.975 56.887 280.094 57.5321 281.487L44.3035 287.613ZM48.2494 291.559L111.558 320.876L117.684 307.647L54.3754 278.33L48.2494 291.559ZM111.558 320.876C114.64 322.303 118.286 321.656 120.688 319.253L110.38 308.945C112.301 307.023 115.218 306.505 117.684 307.647L111.558 320.876ZM120.688 319.253L133.23 306.712L122.921 296.403L110.38 308.945L120.688 319.253ZM122.921 306.712L134.105 317.895L144.414 307.587L133.23 296.403L122.921 306.712ZM144.414 317.895L175.369 286.94L165.06 276.632L134.105 307.587L144.414 317.895ZM165.863 287.633L172.708 292.729L181.412 281.034L174.567 275.939L165.863 287.633ZM173.791 293.396L186.463 299.754L193 286.724L180.329 280.366L173.791 293.396ZM194.886 298.393L214.096 279.183L203.788 268.874L184.577 288.085L194.886 298.393ZM203.788 279.183L210.052 285.447L220.36 275.138L214.096 268.874L203.788 279.183ZM211.233 286.404L221.888 293.331L229.834 281.108L219.179 274.181L211.233 286.404ZM231.015 292.374L291.498 231.891L281.189 221.583L220.707 282.065L231.015 292.374ZM292.585 222.972L285.968 212.006L273.486 219.537L280.102 230.503L292.585 222.972ZM284.881 210.617L278.618 204.353L268.309 214.661L274.573 220.925L284.881 210.617ZM278.618 214.661L297.302 195.977L286.994 185.668L268.309 204.353L278.618 214.661ZM298.815 187.876L292.984 174.679L279.649 180.571L285.481 193.769L298.815 187.876ZM292.179 173.294L287.106 166.427L275.38 175.089L280.454 181.956L292.179 173.294ZM286.397 175.912L316.47 145.839L306.162 135.53L276.089 165.604L286.397 175.912ZM316.47 135.53L305.287 124.346L294.978 134.655L306.162 145.839L316.47 135.53ZM305.287 134.655L317.754 122.188L307.445 111.88L294.978 124.346L305.287 134.655ZM317.754 122.188C320.155 119.786 320.804 116.14 319.376 113.057L306.148 119.184C305.005 116.718 305.524 113.801 307.445 111.88L317.754 122.188ZM319.376 113.058L290.059 49.7493L276.83 55.8753L306.147 119.184L319.376 113.058ZM290.059 49.7492C289.252 48.0081 287.854 46.6098 286.113 45.8035L279.987 59.032C278.594 58.3869 277.475 57.2683 276.83 55.8755L290.059 49.7492ZM286.113 45.8034L222.804 16.4862L216.678 29.7148L279.987 59.032L286.113 45.8034ZM222.805 16.4864C219.722 15.0584 216.076 15.7067 213.674 18.1085L223.983 28.4169C222.061 30.3383 219.144 30.857 216.678 29.7146L222.805 16.4864ZM213.674 18.1085L201.207 30.5755L211.516 40.8838L223.983 28.4169L213.674 18.1085ZM211.516 30.5755L200.332 19.3919L190.024 29.7003L201.207 40.8838L211.516 30.5755ZM188.809 21.0002L178.84 38.9045L191.577 45.9963L201.546 28.092L188.809 21.0002ZM186.065 35.2118L147.428 30.6418L145.715 45.1191L184.353 49.6891L186.065 35.2118ZM139.428 36.429L128.387 90.7694L142.673 93.6723L153.715 39.3319L139.428 36.429Z" fill="#200707" mask="url(#path-3-outside-2_147_161)"/>
<path fill-rule="evenodd" clip-rule="evenodd" d="M155.061 101.75L100.81 156.001L101.07 156.446L39.6569 217.859C39.4231 218.093 39.3549 218.445 39.4846 218.75L62.1017 271.772C62.1837 271.964 62.3367 272.117 62.5289 272.199L115.551 294.816C115.856 294.946 116.208 294.878 116.442 294.644L127.569 283.517L136.524 292.472L163.423 265.573L172.182 271.226L180.821 274.199L198.242 256.778L203.242 261.777L212.113 267.304L266.364 213.053L261.116 203.904L256.116 198.904L272.725 182.295L270.224 173.184L264.61 164.386L291.042 137.954L282.087 128.999L293.147 117.939C293.381 117.705 293.449 117.353 293.319 117.049L270.702 64.0261C270.62 63.8339 270.467 63.6808 270.275 63.5989L217.252 40.9818C216.948 40.8521 216.596 40.9203 216.362 41.1541L155.521 101.995L155.061 101.75Z" fill="#74D8EE"/>
<rect x="242.063" y="203.915" width="367.421" height="53.5315" rx="26.7658" transform="rotate(45 242.063 203.915)" fill="#2F0A0A"/>
<rect x="247.225" y="226.283" width="332.139" height="29.199" rx="14.5995" transform="rotate(45 247.225 226.283)" fill="#451212"/>
<path d="M62.2632 270.157L39.5324 220.49L53.4383 202.562L40.9284 195.766L60.8615 184.681L55.8044 155.953L99.2077 148.748L152.264 95.6919L154.187 54.3528L181.697 59.824L195.591 43.5167L204.037 51.9631L217.884 42.1385L269.592 62.8286L62.2632 270.157Z" fill="#89EAFF"/>
</g>
<defs>
<clipPath id="clip0_147_161">
<rect width="500" height="500" fill="white" transform="translate(0.375 0.625)"/>
</clipPath>
</defs>
</svg>
