<svg width="400" height="400" viewBox="0 0 400 400" fill="none" xmlns="http://www.w3.org/2000/svg">
<path d="M91.0333 80.9471C87.3467 80.42 50.48 99.9387 46.7933 102.047C55.3956 121.727 73.0213 161.509 74.7067 163.196C76.392 164.883 154.058 188.851 192.68 200.624L323.82 175.321L350.68 102.047L300 80.5L199.116 106C166.989 97.2142 93.9827 81.3688 91.0333 80.9471Z" fill="#0D5767"/>
<path d="M169 254.652L152 219.5L144.173 183.286L288.719 212.152L208 244.825L236 241.63L232 254.652L199 287L169 254.652Z" fill="#0D5767"/>
<path d="M109 235.5L166 241.5L177.5 239.5L198.473 180.581L163.187 142.626L14.5 79.5L18 136L33.5 173.5L32 205.5L3 262L108.94 358.229L152 364.116L192.5 338L189.5 283L138.5 299L92.0867 249.5L109 235.5Z" fill="#0D5767"/>
<path d="M208 244.825L225.44 192.793L197.527 230.221V181.196L232.813 143.242L381.5 80.5V134L367 171.092L368 204L396.5 261L287.06 358.844L248.613 364.116L208 338L209.5 283L259.5 299L306.5 250.5L298.5 234.5L208 244.825Z" fill="#0D5767"/>
<path d="M199.136 76L197 236L161.607 172.673L74.18 140.517L52.5 115.037L24 58L105.5 76L120 118L155 139.42L199.136 76Z" fill="#0D5767"/>
<path d="M199.136 76L197 236L234.393 175.905L321.82 143.75L348.131 109L375 57L297.5 76L278.5 119L246 143.242L199.136 76Z" fill="#0D5767"/>
<path d="M175.3 151.826L199.104 112.5L223.753 151.826L199.136 197.449L175.3 151.826Z" fill="#0D5767"/>
<path d="M37.3133 254.908C44.6867 246.474 55.0093 215.267 58.38 212.736L61.0133 254.908C61.0133 257.017 116.489 314.3 131.587 323.964L174.247 302.351L145.807 340.306L126.847 347.686L92.0867 329.236L37.3133 254.908Z" fill="#0D5767"/>
<path d="M360.687 254.381C353.313 245.947 342.991 214.74 339.62 212.209L336.987 254.381C336.987 256.489 281.511 313.773 266.413 323.437L223.753 301.824L252.193 339.778L271.153 347.158L305.913 328.708L360.687 254.381Z" fill="#0D5767"/>
<path d="M103.147 171.619L18 136L33.5 173.5L109 235.5L179.5 244.825L145.807 180.581L103.147 171.619Z" fill="#0D5767"/>
<path d="M293.8 171.092L381.5 134L367 171.092L208 244.825L286 208L251.14 180.053L293.8 171.092Z" fill="#0D5767"/>
<path d="M98 89.5108C94.5 89.0108 58 106.011 54.5 108.011C62.6667 126.677 79.4 164.411 81 166.011C82.6 167.611 156.333 190.344 193 201.511L317.5 177.511L343 108.011L299 89.5108L198 115.5C167.5 107.167 100.8 89.9108 98 89.5108Z" fill="#51A1B3"/>
<path d="M187.5 240.5L198 227.5L207 240.5L300 224.5L325.5 259.5L340.5 227.5L303.5 179L222.5 175C168 182.333 58.6002 197.3 57.0002 198.5C55.4002 199.7 63.0002 238 67.0002 257L104 224.5L187.5 240.5Z" fill="#51A1B3"/>
<path d="M177 250.5L146 183.5H249.5L221.5 250.5L199 275.5L177 250.5Z" fill="#74D8EE"/>
<path d="M81.5 206L172 193.5L198.5 229V182.5L165 146.5L22.5 91.5L25 134.5L40 172V206L11.5 260L113.5 351L150 356L183 333L181 293.5L136 310L75 244L81.5 206Z" fill="#74D8EE"/>
<path d="M316.5 205.5L226 193L199.5 228.5V182L233 146L373 92.5V134L358 171.5V205.5L386.5 259.5L284.5 350.5L248 355.5L215.5 333.5L217.5 292.5L262 309.5L323 243.5L316.5 205.5Z" fill="#74D8EE"/>
<path d="M199 93V232L163.5 175L80.5 144.5L64.5 113.5L41.5 71.5L94 84L103.5 118L166 139.5L199 93Z" fill="#89EAFF"/>
<path d="M199 92.5V231.5L234.5 174.5L317.5 144L333.5 113L359.5 68.5L306.5 82.5L291.5 119L230.5 138L199 92.5Z" fill="#89EAFF"/>
<g filter="url(#filter0_d_131_41)">
<path d="M176.5 155.226L199.129 117.5L222.5 155.226L199.129 198.5L176.5 155.226Z" fill="#CEF6FF"/>
</g>
<path d="M45.5 253C52.5 245 62.3 215.4 65.5 213L68 253C68 255 120.667 309.333 135 318.5L176 302.5L148.5 334L130.5 341L97.5 323.5L45.5 253Z" fill="#89EAFF"/>
<path d="M352.5 252.5C345.5 244.5 335.7 214.9 332.5 212.5L330 252.5C330 254.5 277.333 308.833 263 318L219.5 302.5L249.5 333.5L267.5 340.5L300.5 323L352.5 252.5Z" fill="#89EAFF"/>
<path d="M108 174L25 134.5L40 172L81.5 206H156.5L148.5 182.5L108 174Z" fill="#69CBE0"/>
<path d="M289 173.5L373 134L358 171.5L316.5 205.5L239 208.5L248.5 182L289 173.5Z" fill="#69CBE0"/>
<defs>
<filter id="filter0_d_131_41" x="160.5" y="101.5" width="78" height="113" filterUnits="userSpaceOnUse" color-interpolation-filters="sRGB">
<feFlood flood-opacity="0" result="BackgroundImageFix"/>
<feColorMatrix in="SourceAlpha" type="matrix" values="0 0 0 0 0 0 0 0 0 0 0 0 0 0 0 0 0 0 127 0" result="hardAlpha"/>
<feOffset/>
<feGaussianBlur stdDeviation="8"/>
<feComposite in2="hardAlpha" operator="out"/>
<feColorMatrix type="matrix" values="0 0 0 0 0.808333 0 0 0 0 0.9655 0 0 0 0 1 0 0 0 1 0"/>
<feBlend mode="normal" in2="BackgroundImageFix" result="effect1_dropShadow_131_41"/>
<feBlend mode="normal" in="SourceGraphic" in2="effect1_dropShadow_131_41" result="shape"/>
</filter>
</defs>
</svg>
