<svg width="400" height="400" viewBox="0 0 400 400" fill="none" xmlns="http://www.w3.org/2000/svg">
<path d="M200 44L310.309 89.6913L356 200L310.309 310.309L200 356L89.6913 310.309L44 200L89.6913 89.6913L200 44Z" fill="#3A3921"/>
<path d="M200 50L306.066 93.934L350 200L306.066 306.066L200 350L93.934 306.066L50 200L93.934 93.934L200 50Z" fill="#51A1B3"/>
<path d="M200 78.5L271.416 101.704L315.553 162.454V237.546L271.416 298.296L200 321.5L128.584 298.296L84.4466 237.546V162.454L128.584 101.704L200 78.5Z" fill="#74D8EE"/>
<path d="M200 119.75L247.17 135.076L276.322 175.201V224.799L247.17 264.924L200 280.25L152.83 264.924L123.678 224.799V175.201L152.83 135.076L200 119.75Z" fill="#89EAFF"/>
<path fill-rule="evenodd" clip-rule="evenodd" d="M141.258 259.833C148.581 267.155 160.452 267.155 167.775 259.832L200.545 227.062L233.316 259.833C240.638 267.155 252.51 267.155 259.833 259.833C267.155 252.51 267.155 240.638 259.833 233.316L227.062 200.545L260.583 167.025C267.905 159.702 267.905 147.831 260.583 140.508C253.26 133.186 241.388 133.186 234.066 140.508L200.545 174.029L167.025 140.508C159.702 133.186 147.831 133.186 140.508 140.508C133.186 147.831 133.186 159.702 140.508 167.025L174.029 200.545L141.258 233.316C133.936 240.638 133.936 252.51 141.258 259.833Z" fill="#51A1B3"/>
<path fill-rule="evenodd" clip-rule="evenodd" d="M153.177 153.177C148.029 158.325 148.029 166.672 153.177 171.819L181.141 199.783L153.177 227.747C148.029 232.895 148.029 241.241 153.177 246.389C158.325 251.537 166.671 251.537 171.819 246.389L199.783 218.425L227.747 246.389C232.895 251.537 241.241 251.537 246.389 246.389C251.537 241.241 251.537 232.895 246.389 227.747L218.425 199.783L246.389 171.819C251.537 166.672 251.537 158.325 246.389 153.177C241.241 148.029 232.895 148.029 227.747 153.177L199.783 181.141L171.819 153.177C166.672 148.029 158.325 148.029 153.177 153.177Z" fill="#74D8EE"/>
</svg>
