<svg width="400" height="400" viewBox="0 0 400 400" fill="none" xmlns="http://www.w3.org/2000/svg">
<path d="M200 40L313.137 86.8629L360 200L313.137 313.137L200 360L86.8629 313.137L40 200L86.8629 86.8629L200 40Z" fill="#3A3921"/>
<path d="M200 48.0532L307.443 92.5574L351.947 200L307.443 307.443L200 351.947L92.5574 307.443L48.0532 200L92.5574 92.5574L200 48.0532Z" fill="#51A1B3"/>
<path d="M200 76.923L272.343 100.429L317.053 161.967V238.033L272.343 299.571L200 323.077L127.657 299.571L82.9469 238.033V161.967L127.657 100.429L200 76.923Z" fill="#74D8EE"/>
<path d="M200 118.708L247.782 134.234L277.313 174.88V225.121L247.782 265.766L200 281.292L152.218 265.766L122.687 225.121V174.88L152.218 134.234L200 118.708Z" fill="#89EAFF"/>
</svg>
