<svg width="400" height="400" viewBox="0 0 400 400" fill="none" xmlns="http://www.w3.org/2000/svg">
<path d="M328.299 352.811L162.689 176.72L144.87 178.816L135.437 174.623L114.473 184.057L88.2693 207.117L27.4757 307.74L15.9459 315.077C15.9459 312.282 13.8496 304.805 13.8496 301.451C13.8496 297.259 19.0904 238.561 24.3313 230.176C27.3125 225.406 48.7884 173.925 59.9688 150.516L77.7876 132.697L91.4138 120.119C88.2693 106.493 92.4619 105.095 92.4619 101.252C94.5583 101.601 87.6404 92.8666 85.1248 88.6739C84.426 86.5776 80.9321 83.4331 85.1248 65.6143C107.136 49.8919 100.847 53.0364 103.992 53.0364C110.281 53.0364 113.425 50.94 116.57 53.0364C119.085 54.7134 124.256 56.5302 124.955 58.2771L131.244 61.4217C133.69 61.4217 139.629 56.1808 148.015 58.2771C149.642 58.6839 181.556 28.2298 197.278 13.2061C199.375 11.8085 205.035 9.85198 206.712 9.01345C208.389 8.17492 239.904 46.7473 255.976 66.6625L233.964 97.0592L202.711 111.174C202.93 111.885 203.211 112.761 203.567 113.83C206.921 123.892 204.266 132.697 201.471 135.841L384.9 333.944L385.948 350.715L373.37 368.534C368.129 370.281 361.287 370.63 356.599 370.63C353.455 370.63 347.515 363.992 341.925 362.245L328.299 352.811Z" fill="#200707"/>
<rect x="78.4375" y="77.4429" width="41.9266" height="405.803" rx="20.9633" transform="rotate(-43.347 78.4375 77.4429)" fill="#2F0A0A"/>
<path d="M250.734 67.7108L207.76 13.2062C186.796 19.4952 127.4 96.711 124.955 99.1557C120.762 103.348 102.943 115.926 97.7025 119.071C91.9475 122.524 68.883 147.758 64.1613 153.66C59.9686 158.901 21.1867 242.754 21.1866 259.525C21.1866 276.295 14.8978 289.922 21.1866 308.789L35.8609 284.681L54.7278 250.091L83.0282 205.02L111.329 177.768L142.774 166.238L163.737 133.745L203.567 105.445L231.868 92.8667L250.734 67.7108Z" fill="#74D8EE"/>
<path d="M227.675 66.6626L206.712 35.2177C189.872 39.3657 133.485 99.0459 131.516 100.68C128.138 103.483 128.795 106.124 113.425 114.878C113.425 114.878 89.9805 136.084 86.1729 140.034C82.792 143.542 47.7933 196.839 47.739 208.116C47.6848 219.393 42.5949 228.531 47.5797 241.242L59.4315 225.088L74.6812 201.902L97.5337 171.704L120.329 153.488L145.596 145.857L162.521 124.089L194.57 105.213L216.145 88.6741L227.675 66.6626Z" fill="#89EAFF"/>
<path d="M138.399 166.225C136.056 166.225 134.011 164.599 133.607 162.291C130.335 143.567 133.733 126.353 143.936 116.723C154.227 107.009 170.221 104.132 188.722 108.576C190.763 109.066 192.209 110.856 192.364 112.95L193.606 129.746C193.862 133.21 190.505 135.514 187.075 136.056C180.151 137.148 182.049 146.197 175.267 152.599C168.302 159.173 162.634 153.536 162.783 160.062C162.857 163.26 160.702 166.225 157.504 166.225L138.399 166.225Z" fill="#74D8EE"/>
<path d="M149.652 165.541C144.036 148.136 145.424 134.07 153.51 126.438C161.597 118.805 175.719 118.231 192.771 124.841L213.946 190.465L149.652 165.541Z" fill="#2F0A0A"/>
<path d="M173.5 155.533L178.722 136.876L241.771 192.68L344.389 316.683L334.349 329.63L281.48 284.442L173.5 155.533Z" fill="#451212"/>
</svg>
