<svg width="1001" height="1001" viewBox="0 0 1001 1001" fill="none" xmlns="http://www.w3.org/2000/svg">
<g clip-path="url(#clip0_147_62)">
<mask id="path-1-outside-1_147_62" maskUnits="userSpaceOnUse" x="170.143" y="168.572" width="797.616" height="797.616" fill="black">
<rect fill="white" x="170.143" y="168.572" width="797.616" height="797.616"/>
<path d="M223.777 193.392C216.953 186.567 205.887 186.567 199.063 193.392L195.229 197.226C188.404 204.051 188.404 215.116 195.229 221.941L914.753 941.466C921.578 948.291 932.643 948.291 939.468 941.466L943.302 937.632C950.127 930.807 950.127 919.742 943.302 912.917L223.777 193.392Z"/>
</mask>
<path d="M223.777 193.392C216.953 186.567 205.887 186.567 199.063 193.392L195.229 197.226C188.404 204.051 188.404 215.116 195.229 221.941L914.753 941.466C921.578 948.291 932.643 948.291 939.468 941.466L943.302 937.632C950.127 930.807 950.127 919.742 943.302 912.917L223.777 193.392Z" fill="#2F0A0A"/>
<path d="M943.302 912.917L949.209 907.01L943.302 912.917ZM195.229 197.226L189.322 191.32L195.229 197.226ZM199.063 193.392L204.969 199.299L199.063 193.392ZM223.777 193.392L217.871 199.299L223.777 193.392ZM193.156 187.486L189.322 191.32L201.135 203.133L204.969 199.299L193.156 187.486ZM189.322 227.848L908.846 947.372L920.66 935.559L201.135 216.034L189.322 227.848ZM945.375 947.372L949.209 943.538L937.395 931.725L933.561 935.559L945.375 947.372ZM949.209 907.01L229.684 187.486L217.871 199.299L937.395 918.824L949.209 907.01ZM949.209 943.538C959.296 933.451 959.296 917.097 949.209 907.01L937.395 918.824C940.958 922.386 940.958 928.162 937.395 931.725L949.209 943.538ZM908.846 947.372C918.933 957.459 935.288 957.459 945.375 947.372L933.561 935.559C929.999 939.122 924.222 939.122 920.66 935.559L908.846 947.372ZM189.322 191.32C179.235 201.407 179.235 217.761 189.322 227.848L201.135 216.034C197.573 212.472 197.573 206.696 201.135 203.133L189.322 191.32ZM204.969 199.299C208.532 195.736 214.308 195.736 217.871 199.299L229.684 187.486C219.597 177.399 203.243 177.399 193.156 187.486L204.969 199.299Z" fill="#200707" mask="url(#path-1-outside-1_147_62)"/>
<mask id="path-3-outside-2_147_62" maskUnits="userSpaceOnUse" x="171.415" y="168.847" width="224.153" height="224.153" fill="black">
<rect fill="white" x="171.415" y="168.847" width="224.153" height="224.153"/>
<path fill-rule="evenodd" clip-rule="evenodd" d="M248.644 325.028L203.859 308.064L245.205 285.421L240.235 243.328C240.077 241.99 241.159 240.831 242.504 240.897L287.536 243.09L309.687 202.236L323.285 248.948L338.835 270.762L334.79 281.628L329.32 298.221L323.171 322.041L298.699 328.842L282.189 334.23L270.908 338.689L248.644 325.028Z"/>
</mask>
<path fill-rule="evenodd" clip-rule="evenodd" d="M248.644 325.028L203.859 308.064L245.205 285.421L240.235 243.328C240.077 241.99 241.159 240.831 242.504 240.897L287.536 243.09L309.687 202.236L323.285 248.948L338.835 270.762L334.79 281.628L329.32 298.221L323.171 322.041L298.699 328.842L282.189 334.23L270.908 338.689L248.644 325.028Z" fill="#51A1B2"/>
<path d="M203.859 308.064L199.847 300.738L183.938 309.451L200.9 315.876L203.859 308.064ZM248.644 325.028L253.013 317.908L252.34 317.496L251.603 317.216L248.644 325.028ZM245.205 285.421L249.217 292.747L254.161 290.039L253.5 284.441L245.205 285.421ZM240.235 243.328L248.531 242.348L248.531 242.348L240.235 243.328ZM242.504 240.897L242.911 232.553L242.911 232.553L242.504 240.897ZM287.536 243.09L287.13 251.433L292.376 251.688L294.879 247.071L287.536 243.09ZM309.687 202.236L317.707 199.902L312.029 180.393L302.344 198.255L309.687 202.236ZM323.285 248.948L315.264 251.283L315.66 252.643L316.483 253.797L323.285 248.948ZM338.835 270.762L346.663 273.676L348.21 269.522L345.637 265.913L338.835 270.762ZM334.79 281.628L326.962 278.714L326.907 278.863L326.857 279.013L334.79 281.628ZM329.32 298.221L321.387 295.605L321.301 295.867L321.232 296.133L329.32 298.221ZM323.171 322.041L325.408 330.089L330.054 328.798L331.259 324.129L323.171 322.041ZM298.699 328.842L296.463 320.793L296.284 320.843L296.108 320.9L298.699 328.842ZM282.189 334.23L279.597 326.289L279.355 326.368L279.118 326.462L282.189 334.23ZM270.908 338.689L266.54 345.809L270.097 347.991L273.979 346.457L270.908 338.689ZM200.9 315.876L245.685 332.84L251.603 317.216L206.818 300.252L200.9 315.876ZM241.192 278.094L199.847 300.738L207.872 315.391L249.217 292.747L241.192 278.094ZM231.939 244.307L236.909 286.4L253.5 284.441L248.531 242.348L231.939 244.307ZM242.911 232.553C236.406 232.237 231.176 237.84 231.939 244.307L248.531 242.348C248.979 246.14 245.912 249.426 242.098 249.24L242.911 232.553ZM287.942 234.746L242.911 232.553L242.098 249.24L287.13 251.433L287.942 234.746ZM302.344 198.255L280.193 239.108L294.879 247.071L317.03 206.218L302.344 198.255ZM331.305 246.613L317.707 199.902L301.667 204.571L315.264 251.283L331.305 246.613ZM345.637 265.913L330.086 244.099L316.483 253.797L332.033 275.611L345.637 265.913ZM342.619 284.542L346.663 273.676L331.006 267.848L326.962 278.714L342.619 284.542ZM337.253 300.836L342.724 284.244L326.857 279.013L321.387 295.605L337.253 300.836ZM331.259 324.129L337.408 300.309L321.232 296.133L315.083 319.953L331.259 324.129ZM300.936 336.89L325.408 330.089L320.935 313.992L296.463 320.793L300.936 336.89ZM284.78 342.171L301.291 336.783L296.108 320.9L279.597 326.289L284.78 342.171ZM273.979 346.457L285.259 341.998L279.118 326.462L267.838 330.92L273.979 346.457ZM244.275 332.148L266.54 345.809L275.277 331.569L253.013 317.908L244.275 332.148Z" fill="#200707" mask="url(#path-3-outside-2_147_62)"/>
<mask id="path-5-outside-3_147_62" maskUnits="userSpaceOnUse" x="822.438" y="819.687" width="198.697" height="198.697" fill="black">
<rect fill="white" x="822.438" y="819.687" width="198.697" height="198.697"/>
<path fill-rule="evenodd" clip-rule="evenodd" d="M876.58 930.094L890.955 942.092L886.08 946.968L914.404 967.099L924.974 964.57L940.642 962.012L971.724 967.887L966.126 936.528L968.752 920.792L970.936 910.567L949.576 883.471L943.311 889.736L931.883 874.791L911.128 876.976L869.973 864.301C868.321 863.793 866.764 865.317 867.237 866.979L879.175 908.929L876.58 930.094Z"/>
</mask>
<path fill-rule="evenodd" clip-rule="evenodd" d="M876.58 930.094L890.955 942.092L886.08 946.968L914.404 967.099L924.974 964.57L940.642 962.012L971.724 967.887L966.126 936.528L968.752 920.792L970.936 910.567L949.576 883.471L943.311 889.736L931.883 874.791L911.128 876.976L869.973 864.301C868.321 863.793 866.764 865.317 867.237 866.979L879.175 908.929L876.58 930.094Z" fill="#51A1B2"/>
<path d="M890.955 942.092L896.862 947.999L903.325 941.536L896.308 935.679L890.955 942.092ZM876.58 930.094L868.288 929.077L867.735 933.592L871.227 936.507L876.58 930.094ZM886.08 946.968L880.173 941.061L873.184 948.05L881.24 953.777L886.08 946.968ZM914.404 967.099L909.565 973.908L912.657 976.106L916.348 975.223L914.404 967.099ZM924.974 964.57L923.628 956.326L923.327 956.375L923.03 956.446L924.974 964.57ZM940.642 962.012L942.193 953.804L940.748 953.531L939.296 953.768L940.642 962.012ZM971.724 967.887L970.173 976.095L982.077 978.345L979.948 966.419L971.724 967.887ZM966.126 936.528L957.887 935.153L957.65 936.576L957.903 937.996L966.126 936.528ZM968.752 920.792L960.583 919.047L960.544 919.231L960.513 919.417L968.752 920.792ZM970.936 910.567L979.105 912.311L979.925 908.475L977.496 905.395L970.936 910.567ZM949.576 883.471L956.136 878.3L950.317 870.918L943.67 877.565L949.576 883.471ZM943.311 889.736L936.675 894.81L942.471 902.39L949.218 895.643L943.311 889.736ZM931.883 874.791L938.519 869.717L935.671 865.992L931.008 866.483L931.883 874.791ZM911.128 876.976L908.669 884.959L910.303 885.462L912.002 885.283L911.128 876.976ZM869.973 864.301L872.432 856.318L872.432 856.318L869.973 864.301ZM867.237 866.979L859.202 869.266L859.202 869.266L867.237 866.979ZM879.175 908.929L887.466 909.946L887.672 908.268L887.209 906.643L879.175 908.929ZM896.308 935.679L881.932 923.681L871.227 936.507L885.603 948.505L896.308 935.679ZM891.986 952.874L896.862 947.999L885.049 936.185L880.173 941.061L891.986 952.874ZM919.243 960.29L890.919 940.159L881.24 953.777L909.565 973.908L919.243 960.29ZM923.03 956.446L912.46 958.975L916.348 975.223L926.918 972.694L923.03 956.446ZM939.296 953.768L923.628 956.326L926.32 972.814L941.988 970.257L939.296 953.768ZM973.276 959.679L942.193 953.804L939.091 970.22L970.173 976.095L973.276 959.679ZM957.903 937.996L963.501 969.355L979.948 966.419L974.35 935.06L957.903 937.996ZM960.513 919.417L957.887 935.153L974.366 937.903L976.992 922.167L960.513 919.417ZM962.767 908.822L960.583 919.047L976.921 922.537L979.105 912.311L962.767 908.822ZM943.016 888.643L964.376 915.738L977.496 905.395L956.136 878.3L943.016 888.643ZM949.218 895.643L955.483 889.378L943.67 877.565L937.404 883.83L949.218 895.643ZM925.247 879.864L936.675 894.81L949.947 884.662L938.519 869.717L925.247 879.864ZM912.002 885.283L932.758 883.098L931.008 866.483L910.253 868.669L912.002 885.283ZM867.514 872.285L908.669 884.959L913.586 868.993L872.432 856.318L867.514 872.285ZM875.271 864.693C876.612 869.404 872.196 873.726 867.514 872.285L872.432 856.318C864.447 853.859 856.916 861.23 859.202 869.266L875.271 864.693ZM887.209 906.643L875.271 864.693L859.202 869.266L871.14 911.215L887.209 906.643ZM884.871 931.111L887.466 909.946L870.883 907.912L868.288 929.077L884.871 931.111Z" fill="#200707" mask="url(#path-5-outside-3_147_62)"/>
<mask id="path-7-outside-4_147_62" maskUnits="userSpaceOnUse" x="-12.685" y="-12.8688" width="312.541" height="312.541" fill="black">
<rect fill="white" x="-12.685" y="-12.8688" width="312.541" height="312.541"/>
<path fill-rule="evenodd" clip-rule="evenodd" d="M208.928 163.875L191.972 109.132L44.0258 41.3228C42.1844 40.4789 40.2887 42.3852 41.143 44.2218L109.631 191.472L166.152 209.418L189.133 246.127L204.394 247.902L227.665 252.407L245.385 244.531L255.229 227.796L249.469 202.827L247.339 187.921L208.928 163.875Z"/>
</mask>
<path fill-rule="evenodd" clip-rule="evenodd" d="M208.928 163.875L191.972 109.132L44.0258 41.3228C42.1844 40.4789 40.2887 42.3852 41.143 44.2218L109.631 191.472L166.152 209.418L189.133 246.127L204.394 247.902L227.665 252.407L245.385 244.531L255.229 227.796L249.469 202.827L247.339 187.921L208.928 163.875Z" fill="#51A1B2"/>
<path d="M191.972 109.132L199.951 106.66L198.847 103.094L195.452 101.538L191.972 109.132ZM208.928 163.875L200.949 166.346L201.866 169.309L204.495 170.955L208.928 163.875ZM44.0258 41.3228L40.5453 48.9165L40.5453 48.9165L44.0258 41.3228ZM41.143 44.2218L48.7171 40.699L48.7171 40.699L41.143 44.2218ZM109.631 191.472L102.057 194.995L103.605 198.323L107.104 199.434L109.631 191.472ZM166.152 209.418L173.233 204.985L171.605 202.385L168.68 201.456L166.152 209.418ZM189.133 246.127L182.053 250.56L184.182 253.961L188.168 254.425L189.133 246.127ZM204.394 247.902L205.982 239.701L205.672 239.641L205.359 239.604L204.394 247.902ZM227.665 252.407L226.077 260.608L228.657 261.107L231.058 260.04L227.665 252.407ZM245.385 244.531L248.777 252.165L251.226 251.076L252.585 248.767L245.385 244.531ZM255.229 227.796L262.429 232.031L264.117 229.162L263.369 225.918L255.229 227.796ZM249.469 202.827L241.199 204.009L241.25 204.36L241.329 204.705L249.469 202.827ZM247.339 187.921L255.609 186.74L255.06 182.899L251.772 180.841L247.339 187.921ZM183.993 111.603L200.949 166.346L216.907 161.403L199.951 106.66L183.993 111.603ZM40.5453 48.9165L188.492 116.725L195.452 101.538L47.5062 33.7292L40.5453 48.9165ZM48.7171 40.699C51.1386 45.9052 45.765 51.3089 40.5453 48.9165L47.5062 33.7292C38.6037 29.6489 29.4389 38.8651 33.5689 47.7446L48.7171 40.699ZM117.206 187.949L48.7171 40.699L33.5689 47.7446L102.057 194.995L117.206 187.949ZM168.68 201.456L112.159 183.51L107.104 199.434L163.624 217.379L168.68 201.456ZM196.213 241.695L173.233 204.985L159.072 213.85L182.053 250.56L196.213 241.695ZM205.359 239.604L190.098 237.83L188.168 254.425L203.43 256.199L205.359 239.604ZM229.253 244.206L205.982 239.701L202.807 256.103L226.077 260.608L229.253 244.206ZM241.992 236.898L224.272 244.774L231.058 260.04L248.777 252.165L241.992 236.898ZM248.029 223.561L238.185 240.296L252.585 248.767L262.429 232.031L248.029 223.561ZM241.329 204.705L247.09 229.674L263.369 225.918L257.608 200.95L241.329 204.705ZM239.07 189.102L241.199 204.009L257.738 201.646L255.609 186.74L239.07 189.102ZM204.495 170.955L242.907 195.001L251.772 180.841L213.36 156.795L204.495 170.955Z" fill="#200707" mask="url(#path-7-outside-4_147_62)"/>
<path fill-rule="evenodd" clip-rule="evenodd" d="M191.495 189.433L191.706 189.94L189.235 209.946L192.957 233.335L171.885 192.596L117.098 179.25L61.6088 59.8433L61.2568 59.4913L179.259 117.088L195.766 168.714L236.153 192.244L212.211 187.943L191.495 189.433Z" fill="#74D8EE"/>
<path d="M191.217 189.454L61.2549 59.4924L179.257 117.089L195.764 168.715L236.151 192.245L212.209 187.944L191.217 189.454Z" fill="#89EAFF"/>
<rect width="40.3742" height="1035.81" rx="20.1871" transform="matrix(-0.707107 0.707107 0.707107 0.707107 224.533 194.853)" fill="#2F0A0A"/>
<rect width="23.6676" height="1010.75" rx="11.8338" transform="matrix(-0.707107 0.707107 0.707107 0.707107 226.188 207.615)" fill="#451212"/>
<path d="M258.005 306.095L204.353 308.556L245.207 285.422L258.005 306.095Z" fill="#74D8EE"/>
<path d="M305.258 254.904L287.538 243.091L310.18 202.728L305.258 254.904Z" fill="#74D8EE"/>
</g>
<defs>
<clipPath id="clip0_147_62">
<rect width="1000" height="1000" fill="white" transform="translate(0.75 0.25)"/>
</clipPath>
</defs>
</svg>
