<svg width="501" height="501" viewBox="0 0 501 501" fill="none" xmlns="http://www.w3.org/2000/svg">
<path d="M410.999 441.389L203.986 221.275L181.713 223.895L169.921 218.654L143.717 230.446L110.962 259.271L34.9697 385.05L20.5574 394.222C20.5574 390.728 17.937 381.382 17.937 377.189C17.937 371.948 24.488 298.577 31.0391 288.095C34.7656 282.133 61.6105 217.781 75.586 188.52L97.8595 166.246L114.892 150.524C110.962 133.491 116.202 131.744 116.202 126.94C118.823 127.377 110.175 116.458 107.031 111.217C106.158 108.597 101.79 104.666 107.031 82.3929C134.545 62.7398 126.684 66.6704 130.615 66.6704C138.476 66.6704 142.407 64.05 146.337 66.6704C149.482 68.7668 155.945 71.0378 156.819 73.2214L164.68 77.1521C167.737 77.1521 175.162 70.6011 185.643 73.2214C187.677 73.7299 227.57 35.6622 247.223 16.8826C249.843 15.1357 256.918 12.69 259.015 11.6418C261.111 10.5937 300.505 58.8092 320.594 83.7031L293.08 121.699L254.014 139.342C254.288 140.231 254.639 141.326 255.084 142.662C259.277 155.24 255.958 166.246 252.464 170.177L481.75 417.805L483.06 438.769L467.337 461.042C460.786 463.226 452.234 463.663 446.374 463.663C442.444 463.663 435.019 455.365 428.031 453.181L410.999 441.389Z" fill="#200707"/>
<rect x="98.6719" y="97.1786" width="52.4082" height="507.253" rx="26.2041" transform="rotate(-43.347 98.6719 97.1786)" fill="#2F0A0A"/>
<path d="M314.043 85.0135L260.325 16.8828C234.121 24.744 159.875 121.264 156.819 124.32C151.578 129.56 129.304 145.283 122.753 149.214C115.56 153.53 86.729 185.073 80.8268 192.45C75.586 199.001 27.1086 303.818 27.1085 324.781C27.1085 345.744 19.2475 362.777 27.1085 386.361L45.4513 356.226L69.035 312.989L104.411 256.65L139.786 222.585L179.092 208.173L205.296 167.556L255.084 132.181L290.46 116.458L314.043 85.0135Z" fill="#74D8EE"/>
<path d="M285.22 83.7033L259.015 44.3972C237.965 49.5821 167.482 124.182 165.02 126.226C160.798 129.729 161.619 133.03 142.407 143.973C142.407 143.973 113.101 170.48 108.342 175.418C104.116 179.803 60.3672 246.423 60.2994 260.52C60.2316 274.616 53.8693 286.039 60.1003 301.927L74.915 281.735L93.9771 252.752L122.543 215.005L151.036 192.236L182.62 182.696L203.776 155.486L243.838 131.891L270.807 111.218L285.22 83.7033Z" fill="#89EAFF"/>
<path d="M173.624 208.156C170.695 208.156 168.138 206.124 167.634 203.238C163.543 179.834 167.791 158.316 180.545 146.278C193.409 134.136 213.401 130.541 236.527 136.095C239.079 136.708 240.886 138.945 241.08 141.562L242.633 162.558C242.953 166.887 238.757 169.768 234.469 170.445C225.814 171.81 228.187 183.121 219.709 191.123C211.002 199.341 203.918 192.295 204.105 200.452C204.196 204.449 201.503 208.156 197.505 208.156L173.624 208.156Z" fill="#74D8EE"/>
<path d="M187.691 207.301C180.671 185.545 182.406 167.963 192.514 158.422C202.622 148.881 220.275 148.163 241.589 156.426L268.059 238.457L187.691 207.301Z" fill="#2F0A0A"/>
<path d="M217.5 194.791L224.028 171.47L302.839 241.225L431.111 396.229L418.561 412.412L352.475 355.928L217.5 194.791Z" fill="#451212"/>
</svg>
