<svg width="501" height="501" viewBox="0 0 501 501" fill="none" xmlns="http://www.w3.org/2000/svg">
<path d="M404.6 466.963L402.323 449.883L337.419 378.148L327.171 379.286L313.507 391.812C303.639 394.848 307.972 393.437 299.843 391.812C294.15 390.673 283.902 405.884 272.516 408.892H245.188L212.167 375.871L221.276 347.404L258.852 370.177C267.581 369.039 267.961 369.039 272.516 369.039C277.07 369.039 279.347 357.652 282.763 349.681L264.545 338.295L280.486 326.908L32.2588 84.3741L56.1706 11.5H129.045L343.112 280.223L359.053 266.559L365.885 284.778L374.995 282.501L380.688 269.975L363.608 232.4H397.768L425.096 260.866L419.402 284.778C418.264 299.58 417.5 299.151 415.986 302.588C410.293 315.522 398.907 331.055 384.104 336.748L379.549 343.988L442.176 411.899L453.562 420.278L463.81 424.833L468.365 435.081L454.701 468.102L446.73 476.072L404.6 466.963Z" fill="#200707"/>
<path d="M343.774 379.781C335.265 370.766 335.675 356.559 344.69 348.05V348.05C353.705 339.54 367.912 339.95 376.422 348.965L445.687 422.348C454.197 431.363 453.787 445.57 444.771 454.079V454.079C435.756 462.589 421.549 462.179 413.04 453.164L343.774 379.781Z" fill="#2F0A0A"/>
<path d="M406.877 460.862V444.92L441.037 421.009L461.533 427.84V438.088C461.533 442.643 458.117 448.336 455.839 454.03C453.562 459.723 449.007 464.278 447.869 468.832C446.958 472.476 439.139 470.35 435.343 468.832L411.432 464.278L406.877 460.862Z" fill="#2F0A0A"/>
<path d="M358.658 382.73L356.723 356.513L382.806 364.825L431.095 416.699L430.783 440.609L409.194 435.496L358.658 382.73Z" fill="#451212"/>
<path d="M340.247 372.597L325.469 373.449L316.703 379.657L309.27 389.21L293.158 386.718L281.244 397.67L270.335 406.282C263.424 407.932 250.773 405.582 245.664 404.569C245.788 404.77 245.795 404.86 245.669 404.823C242.39 403.879 243.009 404.043 245.664 404.569C244.065 401.987 223.061 381.062 216.722 374.612L223.554 351.959L255.332 374.612L279.671 370.387L290.864 346.931L273.654 338.735L357.915 273.391L361.739 290.379L376.517 289.527L385.83 273.022L368.163 235.816L394.352 235.816L419.475 263.098L414.03 287.364C413.513 291.575 412.076 300.935 410.467 304.677C408.858 308.42 402.093 317.706 392.452 328.527L378.811 329.314L373.652 338.735L374.176 347.83L340.247 372.597Z" fill="#2F0A0A"/>
<path d="M37.9518 83.2355L298.851 335.102L331.908 339.282L350.578 322.563L344.502 288.137L127.906 18.332L61.8636 18.332L37.9518 83.2355Z" fill="#51A1B3"/>
<path d="M335.752 323.424C331.225 322.182 307.5 323.693 303.878 322.7L48.1999 80.9581L69.1684 25.7936L126.811 45.3269L338.624 297.294L335.752 323.424Z" fill="#74D8EE"/>
<path d="M123.351 26.3025L69.8341 26.3025L84.5163 41.3083L333.305 324.477L336.555 299.534L123.351 26.3025Z" fill="#89EAFF"/>
<path d="M404.6 466.963L402.323 449.883L337.419 378.148L327.171 379.287L313.507 391.812C303.639 394.848 307.972 393.437 299.843 391.812C294.15 390.673 283.902 405.884 272.516 408.892H245.188L212.167 375.871L221.276 347.404L258.852 370.177C267.581 369.039 267.961 369.039 272.516 369.039C277.07 369.039 279.347 357.652 282.763 349.681L264.545 338.295L280.486 326.908L32.2588 84.3741L56.1706 11.5H129.045L343.112 280.223L359.054 266.559L365.885 284.778L374.995 282.501L380.688 269.975L363.608 232.4H397.768L425.096 260.866L419.402 284.778C418.264 299.58 417.5 299.151 415.986 302.588C410.293 315.522 398.907 331.055 384.104 336.748L379.549 343.988L442.176 411.899L453.562 420.278L463.81 424.833L468.365 435.081L454.701 468.102L446.73 476.072L404.6 466.963Z" fill="#1C0D0D"/>
<path d="M343.774 379.781C335.265 370.766 335.675 356.559 344.69 348.05V348.05C353.705 339.54 367.912 339.95 376.422 348.965L445.687 422.348C454.197 431.363 453.787 445.57 444.771 454.079V454.079C435.756 462.589 421.549 462.179 413.04 453.164L343.774 379.781Z" fill="#2F0A0A"/>
<path d="M406.877 460.862V444.92L441.037 421.009L461.533 427.84V438.088C461.533 442.643 458.117 448.336 455.839 454.03C453.562 459.723 449.007 464.278 447.869 468.832C446.958 472.476 439.139 470.35 435.343 468.832L411.432 464.278L406.877 460.862Z" fill="#2F0A0A"/>
<path d="M358.658 382.73L356.723 356.513L382.806 364.825L431.095 416.699L430.783 440.609L409.194 435.496L358.658 382.73Z" fill="#451212"/>
<path d="M340.247 372.597L325.469 373.449L316.703 379.657L309.27 389.21L293.158 386.718L281.244 397.67L270.335 406.282C263.424 407.932 250.773 405.582 245.664 404.569C245.788 404.77 245.795 404.86 245.669 404.823C242.39 403.879 243.009 404.043 245.664 404.569C244.065 401.987 223.061 381.062 216.722 374.612L223.554 351.959L255.332 374.612L279.671 370.387L290.864 346.931L273.654 338.735L357.915 273.391L361.739 290.379L376.517 289.527L385.83 273.022L368.163 235.816L394.352 235.816L419.475 263.098L414.03 287.364C413.513 291.575 412.076 300.935 410.467 304.677C408.858 308.42 402.093 317.706 392.452 328.527L378.811 329.314L373.652 338.735L374.176 347.83L340.247 372.597Z" fill="#2F0A0A"/>
<path d="M37.9518 83.2355L298.851 335.102L331.908 339.282L350.578 322.563L344.502 288.137L127.906 18.332L61.8636 18.332L37.9518 83.2355Z" fill="#51A1B3"/>
<path d="M335.752 323.424C331.225 322.182 307.5 323.693 303.878 322.7L48.1999 80.9581L69.1684 25.7936L126.811 45.3269L338.624 297.294L335.752 323.424Z" fill="#74D8EE"/>
<path d="M123.351 26.3025L69.8341 26.3025L84.5163 41.3083L333.305 324.477L336.555 299.534L123.351 26.3025Z" fill="#89EAFF"/>
</svg>
