<svg width="501" height="501" viewBox="0 0 501 501" fill="none" xmlns="http://www.w3.org/2000/svg">
<mask id="path-1-outside-1_400_252" maskUnits="userSpaceOnUse" x="9.64551" y="154.632" width="482" height="249" fill="black">
<rect fill="white" x="9.64551" y="154.632" width="482" height="249"/>
<path fill-rule="evenodd" clip-rule="evenodd" d="M75.4841 220.202C74.4946 221.033 72.9914 220.46 72.8548 219.175C72.6194 216.96 72.61 215.014 73.0754 214.083C73.9497 212.335 72.2812 206.425 70.7514 201.992C70.3092 200.711 68.6002 200.535 67.8555 201.667C66.1947 204.193 64.2115 207.101 63.4296 207.882C63.3258 207.986 63.1845 208.103 63.0115 208.231C62.4544 208.641 61.6929 208.571 61.1293 208.169C59.7986 207.22 58.4355 206.483 57.0454 205.972C56.1653 205.649 55.6279 204.726 55.7242 203.793C55.9625 201.484 55.3615 198.799 52.2979 196.772C51.6089 196.316 50.6999 196.561 50.2327 197.242L45.1171 204.704C44.9282 204.979 44.8271 205.305 44.8271 205.639V206.484C44.8271 207.059 44.5252 207.589 44.0495 207.913C42.913 208.687 41.7996 209.614 40.7124 210.688C40.2787 211.116 39.6529 211.295 39.0649 211.134L38.0818 210.866C36.8561 210.532 35.7267 211.647 36.045 212.877L36.5183 214.707C36.6406 215.179 36.5507 215.675 36.2744 216.077C25.7721 231.378 18.6457 261.156 18.6457 295.383C18.6457 336.885 29.1231 371.845 43.3922 382.387C43.6047 382.544 43.7773 382.741 43.8927 382.979C44.3846 383.992 44.8688 385.279 45.385 387.59C45.6985 388.994 47.5382 389.474 48.5115 388.415C49.3151 387.541 50.1021 386.758 50.8729 386.059C51.201 385.761 51.6394 385.625 52.0822 385.636C52.1899 385.638 52.2978 385.64 52.4058 385.64C55.9477 385.64 59.3623 384.182 62.5701 381.477C62.922 381.181 63.377 381.023 63.8319 381.092C67.5432 381.661 70.5888 383.835 73.0096 385.563V385.563C73.7326 386.079 74.6198 385.406 74.3458 384.561L70.4995 372.702C70.3521 372.248 70.4094 371.752 70.6495 371.339C71.3171 370.191 71.9686 368.981 72.6029 367.713C73.0576 366.804 74.2079 366.486 75.0498 367.056L83.0525 372.469C84.5665 373.493 86.5038 371.585 85.5492 370.026C82.8404 365.603 79.9542 360.47 77.9101 355.869C77.745 355.498 77.7282 355.079 77.8544 354.692C79.4461 349.815 80.8449 344.475 82.0189 338.759C82.1728 338.009 82.8158 337.452 83.5803 337.481C84.8467 337.53 86.2677 337.709 87.8509 338.008C89.2886 338.28 90.4634 336.736 89.7739 335.445C87.1759 330.583 85.5639 326.772 84.6116 323.713C84.5436 323.494 84.5245 323.264 84.5518 323.036C84.6545 322.183 84.7525 321.324 84.8458 320.459C84.9763 319.25 86.3165 318.574 87.3595 319.2L94.1924 323.3C94.3522 323.396 94.527 323.464 94.7095 323.502L99.7688 324.545C101.469 324.895 102.493 322.724 101.14 321.635L85.986 309.438C85.8499 309.328 85.7751 309.16 85.785 308.986V308.986C85.8012 308.699 86.0384 308.474 86.3257 308.474H87.2738C88.7995 308.474 89.3987 306.495 88.1292 305.649L86.7749 304.746C86.2968 304.427 86.0188 303.883 86.0375 303.309C86.1013 301.347 86.1417 299.368 86.1578 297.372C86.161 296.981 86.3019 296.602 86.5568 296.305L92.9145 288.888C93.6567 288.022 93.3209 286.682 92.258 286.269L86.8915 284.182C86.2824 283.945 85.8704 283.372 85.8361 282.72C85.7101 280.319 85.5487 277.949 85.3534 275.613C85.3295 275.327 85.3798 275.039 85.5001 274.778L90.2229 264.546C90.2741 264.435 90.3128 264.319 90.3384 264.199L90.4614 263.625C90.5216 263.344 90.6586 263.078 90.8506 262.864C182.806 160.455 342.698 221.488 404.194 267.895C404.411 268.059 404.573 268.266 404.687 268.512L410.627 281.384C411.027 282.25 410.614 283.274 409.725 283.619L401.139 286.958C400.076 287.372 399.74 288.711 400.482 289.577L409.47 300.063C410.305 301.037 409.761 302.551 408.496 302.769L403.98 303.551C402.4 303.824 402.093 305.958 403.531 306.666L406.211 307.984C407.314 308.526 407.462 310.038 406.485 310.784L391.616 322.13C390.357 323.09 391.036 325.099 392.619 325.099H400.408C400.809 325.099 401.196 324.954 401.498 324.69L408.621 318.455C409.69 317.518 411.204 318.269 410.973 319.671C410.26 324.019 408.449 331.277 404.586 338.881C404.015 340.005 404.947 341.338 406.19 341.124V341.124C414.397 339.711 418.255 339.047 418.255 347.057C418.255 352.341 412.759 362.697 407.847 370.717C406.892 372.276 408.83 374.183 410.344 373.158L422.537 364.91C423.841 364.028 425.524 365.294 425.038 366.791L418.268 387.666C418.263 387.68 418.278 387.692 418.291 387.685V387.685C423.181 384.708 430.194 380.439 442.556 394.226C443.604 395.395 445.987 394.712 446.414 393.201C447.08 390.84 448.087 388.269 449.105 385.743C449.13 385.68 449.191 385.64 449.259 385.64V385.64C467.904 385.64 483.019 345.231 483.019 295.383C483.019 255.274 473.233 221.276 459.696 209.523C459.391 209.257 459.274 208.841 459.402 208.457V208.457C459.694 207.581 458.72 206.827 457.945 207.328L457.882 207.369C457.548 207.585 457.12 207.581 456.78 207.375C454.362 205.904 451.844 205.127 449.259 205.127V205.127C448.724 205.127 448.232 204.804 448.063 204.296L445.728 197.291C445.41 196.336 444.309 195.878 443.484 196.455C438.175 200.17 437.917 206.557 438.924 208.572V208.572C439.1 208.923 439.018 209.35 438.723 209.609C438.162 210.101 437.608 210.631 437.06 211.199C436.546 211.731 435.75 211.894 435.088 211.563C432.872 210.457 430.638 209.242 429.967 208.572C429.185 207.79 427.202 204.882 425.541 202.356C424.797 201.224 423.088 201.4 422.645 202.681C421.116 207.114 419.447 213.024 420.321 214.772C421.164 216.458 420.45 221.475 419.656 225.385C419.512 226.095 418.685 226.411 418.094 225.992V225.992C417.935 225.879 417.812 225.723 417.74 225.543L415.998 221.188C415.607 220.211 414.249 220.137 413.96 221.147V221.147C413.751 221.877 412.829 222.319 412.202 221.891C271.215 125.562 140.239 165.811 75.4841 220.202Z"/>
</mask>
<path fill-rule="evenodd" clip-rule="evenodd" d="M75.4841 220.202C74.4946 221.033 72.9914 220.46 72.8548 219.175C72.6194 216.96 72.61 215.014 73.0754 214.083C73.9497 212.335 72.2812 206.425 70.7514 201.992C70.3092 200.711 68.6002 200.535 67.8555 201.667C66.1947 204.193 64.2115 207.101 63.4296 207.882C63.3258 207.986 63.1845 208.103 63.0115 208.231C62.4544 208.641 61.6929 208.571 61.1293 208.169C59.7986 207.22 58.4355 206.483 57.0454 205.972C56.1653 205.649 55.6279 204.726 55.7242 203.793C55.9625 201.484 55.3615 198.799 52.2979 196.772C51.6089 196.316 50.6999 196.561 50.2327 197.242L45.1171 204.704C44.9282 204.979 44.8271 205.305 44.8271 205.639V206.484C44.8271 207.059 44.5252 207.589 44.0495 207.913C42.913 208.687 41.7996 209.614 40.7124 210.688C40.2787 211.116 39.6529 211.295 39.0649 211.134L38.0818 210.866C36.8561 210.532 35.7267 211.647 36.045 212.877L36.5183 214.707C36.6406 215.179 36.5507 215.675 36.2744 216.077C25.7721 231.378 18.6457 261.156 18.6457 295.383C18.6457 336.885 29.1231 371.845 43.3922 382.387C43.6047 382.544 43.7773 382.741 43.8927 382.979C44.3846 383.992 44.8688 385.279 45.385 387.59C45.6985 388.994 47.5382 389.474 48.5115 388.415C49.3151 387.541 50.1021 386.758 50.8729 386.059C51.201 385.761 51.6394 385.625 52.0822 385.636C52.1899 385.638 52.2978 385.64 52.4058 385.64C55.9477 385.64 59.3623 384.182 62.5701 381.477C62.922 381.181 63.377 381.023 63.8319 381.092C67.5432 381.661 70.5888 383.835 73.0096 385.563V385.563C73.7326 386.079 74.6198 385.406 74.3458 384.561L70.4995 372.702C70.3521 372.248 70.4094 371.752 70.6495 371.339C71.3171 370.191 71.9686 368.981 72.6029 367.713C73.0576 366.804 74.2079 366.486 75.0498 367.056L83.0525 372.469C84.5665 373.493 86.5038 371.585 85.5492 370.026C82.8404 365.603 79.9542 360.47 77.9101 355.869C77.745 355.498 77.7282 355.079 77.8544 354.692C79.4461 349.815 80.8449 344.475 82.0189 338.759C82.1728 338.009 82.8158 337.452 83.5803 337.481C84.8467 337.53 86.2677 337.709 87.8509 338.008C89.2886 338.28 90.4634 336.736 89.7739 335.445C87.1759 330.583 85.5639 326.772 84.6116 323.713C84.5436 323.494 84.5245 323.264 84.5518 323.036C84.6545 322.183 84.7525 321.324 84.8458 320.459C84.9763 319.25 86.3165 318.574 87.3595 319.2L94.1924 323.3C94.3522 323.396 94.527 323.464 94.7095 323.502L99.7688 324.545C101.469 324.895 102.493 322.724 101.14 321.635L85.986 309.438C85.8499 309.328 85.7751 309.16 85.785 308.986V308.986C85.8012 308.699 86.0384 308.474 86.3257 308.474H87.2738C88.7995 308.474 89.3987 306.495 88.1292 305.649L86.7749 304.746C86.2968 304.427 86.0188 303.883 86.0375 303.309C86.1013 301.347 86.1417 299.368 86.1578 297.372C86.161 296.981 86.3019 296.602 86.5568 296.305L92.9145 288.888C93.6567 288.022 93.3209 286.682 92.258 286.269L86.8915 284.182C86.2824 283.945 85.8704 283.372 85.8361 282.72C85.7101 280.319 85.5487 277.949 85.3534 275.613C85.3295 275.327 85.3798 275.039 85.5001 274.778L90.2229 264.546C90.2741 264.435 90.3128 264.319 90.3384 264.199L90.4614 263.625C90.5216 263.344 90.6586 263.078 90.8506 262.864C182.806 160.455 342.698 221.488 404.194 267.895C404.411 268.059 404.573 268.266 404.687 268.512L410.627 281.384C411.027 282.25 410.614 283.274 409.725 283.619L401.139 286.958C400.076 287.372 399.74 288.711 400.482 289.577L409.47 300.063C410.305 301.037 409.761 302.551 408.496 302.769L403.98 303.551C402.4 303.824 402.093 305.958 403.531 306.666L406.211 307.984C407.314 308.526 407.462 310.038 406.485 310.784L391.616 322.13C390.357 323.09 391.036 325.099 392.619 325.099H400.408C400.809 325.099 401.196 324.954 401.498 324.69L408.621 318.455C409.69 317.518 411.204 318.269 410.973 319.671C410.26 324.019 408.449 331.277 404.586 338.881C404.015 340.005 404.947 341.338 406.19 341.124V341.124C414.397 339.711 418.255 339.047 418.255 347.057C418.255 352.341 412.759 362.697 407.847 370.717C406.892 372.276 408.83 374.183 410.344 373.158L422.537 364.91C423.841 364.028 425.524 365.294 425.038 366.791L418.268 387.666C418.263 387.68 418.278 387.692 418.291 387.685V387.685C423.181 384.708 430.194 380.439 442.556 394.226C443.604 395.395 445.987 394.712 446.414 393.201C447.08 390.84 448.087 388.269 449.105 385.743C449.13 385.68 449.191 385.64 449.259 385.64V385.64C467.904 385.64 483.019 345.231 483.019 295.383C483.019 255.274 473.233 221.276 459.696 209.523C459.391 209.257 459.274 208.841 459.402 208.457V208.457C459.694 207.581 458.72 206.827 457.945 207.328L457.882 207.369C457.548 207.585 457.12 207.581 456.78 207.375C454.362 205.904 451.844 205.127 449.259 205.127V205.127C448.724 205.127 448.232 204.804 448.063 204.296L445.728 197.291C445.41 196.336 444.309 195.878 443.484 196.455C438.175 200.17 437.917 206.557 438.924 208.572V208.572C439.1 208.923 439.018 209.35 438.723 209.609C438.162 210.101 437.608 210.631 437.06 211.199C436.546 211.731 435.75 211.894 435.088 211.563C432.872 210.457 430.638 209.242 429.967 208.572C429.185 207.79 427.202 204.882 425.541 202.356C424.797 201.224 423.088 201.4 422.645 202.681C421.116 207.114 419.447 213.024 420.321 214.772C421.164 216.458 420.45 221.475 419.656 225.385C419.512 226.095 418.685 226.411 418.094 225.992V225.992C417.935 225.879 417.812 225.723 417.74 225.543L415.998 221.188C415.607 220.211 414.249 220.137 413.96 221.147V221.147C413.751 221.877 412.829 222.319 412.202 221.891C271.215 125.562 140.239 165.811 75.4841 220.202Z" fill="#3D3333"/>
<path d="M73.0754 214.083L65.6765 210.384L65.6765 210.384L73.0754 214.083ZM429.967 208.572L435.817 202.722L435.816 202.722L429.967 208.572ZM420.321 214.772L412.923 218.472L412.923 218.472L420.321 214.772ZM412.202 221.891L416.869 215.061L412.202 221.891ZM415.998 221.188L423.678 218.116L415.998 221.188ZM417.74 225.543L425.42 222.47L417.74 225.543ZM419.656 225.385L411.549 223.739L411.549 223.739L419.656 225.385ZM425.541 202.356L418.629 206.901L425.541 202.356ZM422.645 202.681L414.826 199.983L422.645 202.681ZM437.06 211.199L443.013 216.943L437.06 211.199ZM435.088 211.563L438.784 204.163L435.088 211.563ZM438.723 209.609L433.267 203.391L438.723 209.609ZM445.728 197.291L437.88 199.907L445.728 197.291ZM443.484 196.455L438.742 189.677L443.484 196.455ZM448.063 204.296L440.216 206.912L448.063 204.296ZM457.882 207.369L453.388 200.424L457.882 207.369ZM456.78 207.375L461.079 200.308L456.78 207.375ZM457.945 207.328L462.438 214.273L457.945 207.328ZM459.696 209.523L465.119 203.276L459.696 209.523ZM449.105 385.743L456.778 388.834L449.105 385.743ZM442.556 394.226L448.715 388.703L442.556 394.226ZM446.414 393.201L438.453 390.955L446.414 393.201ZM418.268 387.666L426.136 390.218L418.268 387.666ZM408.621 318.455L403.172 312.231L408.621 318.455ZM410.973 319.671L402.811 318.331L410.973 319.671ZM391.616 322.13L396.634 328.706L391.616 322.13ZM406.211 307.984L409.862 300.561L406.211 307.984ZM406.485 310.784L411.503 317.36L406.485 310.784ZM403.98 303.551L405.39 311.702L403.98 303.551ZM403.531 306.666L407.182 299.243L403.531 306.666ZM409.47 300.063L415.751 294.679L409.47 300.063ZM408.496 302.769L407.086 294.618L408.496 302.769ZM401.139 286.958L398.141 279.249L401.139 286.958ZM400.482 289.577L394.202 294.96L400.482 289.577ZM410.627 281.384L403.117 284.851L410.627 281.384ZM409.725 283.619L406.727 275.91L409.725 283.619ZM404.194 267.895L399.211 274.498L404.194 267.895ZM404.687 268.512L397.176 271.979L404.687 268.512ZM90.4614 263.625L82.3729 261.892L90.4614 263.625ZM90.8506 262.864L84.6956 257.338L90.8506 262.864ZM90.2229 264.546L97.7336 268.012L90.2229 264.546ZM90.3384 264.199L98.4269 265.932L90.3384 264.199ZM85.3534 275.613L77.11 276.302L85.3534 275.613ZM85.5001 274.778L77.9893 271.312L85.5001 274.778ZM85.8361 282.72L77.5754 283.153L85.8361 282.72ZM92.9145 288.888L86.6338 283.504L92.9145 288.888ZM92.258 286.269L89.2598 293.979L92.258 286.269ZM86.1578 297.372L77.8859 297.306L86.1578 297.372ZM86.5568 296.305L92.8375 301.689L86.5568 296.305ZM86.7749 304.746L91.3634 297.863L86.7749 304.746ZM86.0375 303.309L77.7697 303.04L86.0375 303.309ZM88.1292 305.649L92.7178 298.766L88.1292 305.649ZM85.986 309.438L91.1728 302.994L85.986 309.438ZM99.7688 324.545L98.0986 332.646L99.7688 324.545ZM101.14 321.635L95.9534 328.08L101.14 321.635ZM94.1924 323.3L89.9364 330.393L94.1924 323.3ZM94.7095 323.502L96.3798 315.4L94.7095 323.502ZM84.6116 323.713L92.51 321.254L84.6116 323.713ZM84.5518 323.036L92.7648 324.024L84.5518 323.036ZM82.0189 338.759L73.9158 337.095L82.0189 338.759ZM83.0525 372.469L87.6875 365.617L83.0525 372.469ZM72.6029 367.713L80.001 371.414L72.6029 367.713ZM75.0498 367.056L79.6848 360.204L75.0498 367.056ZM70.4995 372.702L78.3681 370.15L70.4995 372.702ZM70.6495 371.339L63.4979 367.182L70.6495 371.339ZM74.3458 384.561L66.4771 387.113L74.3458 384.561ZM62.5701 381.477L57.2383 375.153L62.5701 381.477ZM63.8319 381.092L62.5788 389.269L63.8319 381.092ZM50.8729 386.059L56.4296 392.187L50.8729 386.059ZM52.0822 385.636L52.2898 377.366L52.0822 385.636ZM45.385 387.59L37.3118 389.393L45.385 387.59ZM48.5115 388.415L54.6017 394.013L48.5115 388.415ZM38.0818 210.866L40.2577 202.885L38.0818 210.866ZM36.045 212.877L44.0534 210.805L36.045 212.877ZM40.7124 210.688L34.9011 204.8L40.7124 210.688ZM39.0649 211.134L41.2408 203.153L39.0649 211.134ZM44.0495 207.913L39.3945 201.075L44.0495 207.913ZM45.1171 204.704L38.2945 200.026L45.1171 204.704ZM422.537 364.91L417.902 358.058L422.537 364.91ZM425.038 366.791L432.907 369.343L425.038 366.791ZM50.2327 197.242L43.4102 192.565L50.2327 197.242ZM84.8458 320.459L93.0702 321.347L84.8458 320.459ZM87.3595 319.2L83.1035 326.294L87.3595 319.2ZM63.0115 208.231L58.1029 201.572L63.0115 208.231ZM61.1293 208.169L65.9321 201.434L61.1293 208.169ZM43.3922 382.387L38.4765 389.04L43.3922 382.387ZM43.8927 382.979L36.4506 386.59L43.8927 382.979ZM87.8509 338.008L89.3871 329.88L87.8509 338.008ZM89.7739 335.445L82.478 339.344L89.7739 335.445ZM404.586 338.881L411.961 342.627L404.586 338.881ZM70.7514 201.992L78.5709 199.293L70.7514 201.992ZM67.8555 201.667L60.9435 197.123L67.8555 201.667ZM407.847 370.717L414.901 375.037L414.901 375.037L407.847 370.717ZM410.344 373.158L414.979 380.01L410.344 373.158ZM57.0454 205.972L59.8986 198.208L57.0454 205.972ZM36.5183 214.707L28.5099 216.778L36.5183 214.707ZM36.2744 216.077L43.0946 220.759L36.2744 216.077ZM77.9101 355.869L70.3505 359.228L77.9101 355.869ZM77.8544 354.692L69.9904 352.126L77.8544 354.692ZM401.498 324.69L406.946 330.914L401.498 324.69ZM72.8548 219.175L81.0806 218.3L72.8548 219.175ZM75.4841 220.202L70.1637 213.868L75.4841 220.202ZM81.0806 218.3C81.0342 217.863 81.0028 217.476 80.9853 217.142C80.9674 216.802 80.9659 216.557 80.9707 216.396C80.976 216.22 80.9863 216.234 80.9598 216.386C80.9453 216.469 80.9134 216.63 80.8483 216.847C80.7845 217.061 80.671 217.389 80.4742 217.783L65.6765 210.384C64.5977 212.542 64.4672 214.789 64.4338 215.899C64.3919 217.297 64.4905 218.746 64.629 220.049L81.0806 218.3ZM80.4742 217.783C81.7507 215.23 81.6203 212.593 81.5504 211.535C81.4542 210.076 81.185 208.579 80.8908 207.253C80.2952 204.567 79.3842 201.65 78.5709 199.293L62.9318 204.691C63.6484 206.767 64.3365 209.021 64.739 210.835C64.944 211.759 65.0236 212.345 65.042 212.624C65.051 212.759 65.0335 212.657 65.0614 212.389C65.0829 212.182 65.1763 211.384 65.6765 210.384L80.4742 217.783ZM60.9435 197.123C60.1354 198.352 59.2764 199.631 58.5443 200.674C58.1764 201.197 57.8714 201.617 57.6399 201.92C57.3405 202.313 57.3544 202.259 57.5803 202.033L69.2789 213.732C70.2767 212.734 71.3899 211.169 72.0817 210.184C72.9518 208.946 73.9148 207.509 74.7675 206.212L60.9435 197.123ZM57.5803 202.033C57.7493 201.864 57.8849 201.748 57.9582 201.687C58.0358 201.622 58.0876 201.584 58.1029 201.572L67.9201 214.889C68.2605 214.638 68.7657 214.245 69.2789 213.732L57.5803 202.033ZM65.9321 201.434C64.0775 200.111 62.0652 199.004 59.8986 198.208L54.1922 213.737C54.8058 213.962 55.5197 214.329 56.3265 214.904L65.9321 201.434ZM63.9526 204.643C64.1766 202.473 64.0413 199.782 62.8899 197.007C61.7069 194.155 59.6587 191.723 56.8619 189.873L47.734 203.671C47.8972 203.779 47.9031 203.812 47.8374 203.734C47.7683 203.653 47.6801 203.519 47.6086 203.347C47.4641 202.998 47.5102 202.804 47.4958 202.944L63.9526 204.643ZM43.4102 192.565L38.2945 200.026L51.9396 209.381L57.0553 201.92L43.4102 192.565ZM36.555 205.639V206.484H53.0993V205.639H36.555ZM39.3945 201.075C37.7951 202.164 36.2988 203.421 34.9011 204.8L46.5238 216.575C47.3004 215.808 48.031 215.209 48.7046 214.751L39.3945 201.075ZM41.2408 203.153L40.2577 202.885L35.9059 218.847L36.889 219.115L41.2408 203.153ZM28.0365 214.949L28.5099 216.778L44.5268 212.635L44.0534 210.805L28.0365 214.949ZM29.4543 211.396C17.5629 228.721 10.3735 260.492 10.3735 295.383H26.9178C26.9178 261.82 33.9812 234.036 43.0946 220.759L29.4543 211.396ZM10.3735 295.383C10.3735 316.779 13.0684 336.682 17.7207 352.79C22.2454 368.457 29.0638 382.086 38.4765 389.04L48.3078 375.734C43.4514 372.146 37.8966 363.024 33.6154 348.2C29.4617 333.817 26.9178 315.49 26.9178 295.383H10.3735ZM36.4506 386.59C36.6058 386.91 36.9035 387.565 37.3118 389.393L53.4582 385.787C52.8341 382.992 52.1635 381.075 51.3348 379.367L36.4506 386.59ZM54.6017 394.013C55.2499 393.308 55.8597 392.704 56.4296 392.187L45.3161 379.931C44.3446 380.812 43.3803 381.774 42.4213 382.817L54.6017 394.013ZM51.8747 393.905C52.0515 393.91 52.2286 393.912 52.4058 393.912V377.368C52.367 377.368 52.3283 377.367 52.2898 377.366L51.8747 393.905ZM52.4058 393.912C58.3663 393.912 63.6033 391.426 67.9019 387.802L57.2383 375.153C55.1214 376.937 53.5292 377.368 52.4058 377.368V393.912ZM62.5788 389.269C63.2104 389.366 63.9757 389.629 64.9538 390.161C65.9723 390.714 66.9468 391.399 68.2034 392.296L77.8157 378.83C75.6132 377.258 71.0349 373.827 65.085 372.916L62.5788 389.269ZM82.2144 382.009L78.3681 370.15L62.6308 375.254L66.4771 387.113L82.2144 382.009ZM77.8011 375.497C78.5617 374.188 79.2949 372.826 80.001 371.414L65.2047 364.012C64.6423 365.137 64.0726 366.193 63.4979 367.182L77.8011 375.497ZM70.4149 373.907L78.4176 379.321L87.6875 365.617L79.6848 360.204L70.4149 373.907ZM92.6036 365.706C89.9827 361.427 87.3047 356.641 85.4698 352.511L70.3505 359.228C72.6038 364.3 75.6981 369.78 78.4948 374.347L92.6036 365.706ZM85.7184 357.259C87.4174 352.052 88.8927 346.409 90.1219 340.423L73.9158 337.095C72.7972 342.542 71.4749 347.577 69.9904 352.126L85.7184 357.259ZM83.2634 345.747C84.0088 345.776 85.0066 345.889 86.3148 346.136L89.3871 329.88C87.5287 329.529 85.6847 329.284 83.8972 329.215L83.2634 345.747ZM97.0699 331.547C94.6345 326.989 93.2625 323.672 92.51 321.254L76.7132 326.171C77.8653 329.872 79.7173 334.177 82.478 339.344L97.0699 331.547ZM92.7648 324.024C92.8715 323.137 92.9733 322.245 93.0702 321.347L76.6214 319.572C76.5317 320.403 76.4375 321.229 76.3388 322.049L92.7648 324.024ZM83.1035 326.294L89.9364 330.393L98.4483 316.207L91.6154 312.107L83.1035 326.294ZM93.0392 331.603L98.0986 332.646L101.439 316.443L96.3798 315.4L93.0392 331.603ZM106.327 315.191L91.1728 302.994L80.7992 315.882L95.9534 328.08L106.327 315.191ZM86.3257 316.746H87.2738V300.202H86.3257V316.746ZM92.7178 298.766L91.3634 297.863L82.1863 311.629L83.5406 312.531L92.7178 298.766ZM94.3052 303.578C94.3713 301.549 94.413 299.502 94.4297 297.439L77.8859 297.306C77.8703 299.234 77.8313 301.146 77.7697 303.04L94.3052 303.578ZM92.8375 301.689L99.1952 294.271L86.6338 283.504L80.2761 290.922L92.8375 301.689ZM95.2562 278.559L89.8897 276.472L83.8933 291.892L89.2598 293.979L95.2562 278.559ZM94.0969 282.286C93.9664 279.801 93.7992 277.346 93.5968 274.924L77.11 276.302C77.2981 278.552 77.4537 280.837 77.5754 283.153L94.0969 282.286ZM93.0109 278.245L97.7336 268.012L82.7121 261.079L77.9893 271.312L93.0109 278.245ZM98.4269 265.932L98.55 265.358L82.3729 261.892L82.2499 262.466L98.4269 265.932ZM97.0056 268.391C140.518 219.932 200.287 209.737 257.801 217.766C315.462 225.816 369.504 252.08 399.211 274.498L409.177 261.292C377.389 237.303 320.737 209.847 260.088 201.381C199.293 192.894 133.139 203.387 84.6956 257.338L97.0056 268.391ZM397.176 271.979L403.117 284.851L418.138 277.918L412.197 265.046L397.176 271.979ZM406.727 275.91L398.141 279.249L404.137 294.668L412.723 291.329L406.727 275.91ZM394.202 294.96L403.189 305.446L415.751 294.679L406.763 284.194L394.202 294.96ZM407.086 294.618L402.569 295.4L405.39 311.702L409.906 310.921L407.086 294.618ZM399.881 314.089L402.561 315.407L409.862 300.561L407.182 299.243L399.881 314.089ZM401.467 304.207L386.598 315.553L396.634 328.706L411.503 317.36L401.467 304.207ZM392.619 333.372H400.408V316.827H392.619V333.372ZM406.946 330.914L414.069 324.679L403.172 312.231L396.049 318.465L406.946 330.914ZM402.811 318.331C402.204 322.026 400.613 328.438 397.211 335.135L411.961 342.627C416.285 334.115 418.315 326.012 419.136 321.011L402.811 318.331ZM407.594 349.276C409.754 348.904 411.167 348.667 412.276 348.568C412.793 348.521 413.07 348.523 413.181 348.529C413.293 348.535 413.088 348.538 412.701 348.41C412.275 348.269 411.693 347.989 411.122 347.485C410.552 346.98 410.214 346.447 410.037 346.071C409.878 345.731 409.877 345.581 409.908 345.775C409.939 345.966 409.982 346.368 409.982 347.057H426.527C426.527 344.581 426.26 341.693 425.01 339.033C423.547 335.92 421.031 333.74 417.899 332.703C415.261 331.831 412.633 331.925 410.799 332.089C408.877 332.262 406.73 332.637 404.787 332.972L407.594 349.276ZM409.982 347.057C409.982 347.031 409.982 347.212 409.895 347.649C409.811 348.072 409.668 348.627 409.445 349.321C408.994 350.721 408.304 352.423 407.399 354.357C405.591 358.225 403.161 362.53 400.792 366.397L414.901 375.037C417.445 370.884 420.218 366.001 422.386 361.364C424.351 357.161 426.527 351.737 426.527 347.057H409.982ZM414.979 380.01L427.172 371.762L417.902 358.058L405.709 366.307L414.979 380.01ZM417.169 364.239L410.399 385.114L426.136 390.218L432.907 369.343L417.169 364.239ZM422.592 394.751C425.202 393.162 426.066 392.85 427.022 392.919C427.877 392.981 430.883 393.599 436.397 399.748L448.715 388.703C441.867 381.065 435.185 376.924 428.221 376.418C421.357 375.92 416.269 379.231 413.99 380.619L422.592 394.751ZM454.375 395.448C454.904 393.574 455.749 391.389 456.778 388.834L441.432 382.652C440.426 385.149 439.256 388.107 438.453 390.955L454.375 395.448ZM449.259 393.912C457.144 393.912 463.659 389.61 468.597 384.027C473.544 378.433 477.622 370.81 480.879 362.102C487.416 344.625 491.291 321.034 491.291 295.383H474.747C474.747 319.58 471.064 341.117 465.383 356.306C462.531 363.932 459.334 369.527 456.203 373.067C453.063 376.618 450.697 377.368 449.259 377.368V393.912ZM491.291 295.383C491.291 274.701 488.773 255.421 484.408 239.617C480.137 224.159 473.76 210.778 465.119 203.276L454.273 215.769C459.169 220.02 464.453 229.516 468.46 244.022C472.372 258.183 474.747 275.956 474.747 295.383H491.291ZM453.451 200.383L453.388 200.424L462.375 214.314L462.438 214.273L453.451 200.383ZM461.079 200.308C457.562 198.168 453.576 196.855 449.259 196.855V213.399C450.113 213.399 451.161 213.639 452.481 214.442L461.079 200.308ZM455.911 201.681L453.576 194.675L437.88 199.907L440.216 206.912L455.911 201.681ZM438.742 189.677C434.221 192.84 431.843 197.176 430.83 201.066C430.328 202.994 430.134 204.902 430.198 206.654C430.257 208.25 430.552 210.324 431.525 212.271L446.323 204.872C446.594 205.415 446.684 205.806 446.707 205.919C446.738 206.063 446.734 206.108 446.732 206.048C446.727 205.92 446.74 205.621 446.841 205.236C447.032 204.5 447.438 203.784 448.227 203.233L438.742 189.677ZM433.267 203.391C432.523 204.044 431.804 204.733 431.107 205.455L443.013 216.943C443.412 216.529 443.801 216.159 444.179 215.827L433.267 203.391ZM438.784 204.163C437.743 203.643 436.784 203.14 436.055 202.723C435.688 202.513 435.452 202.366 435.325 202.282C435.264 202.242 435.272 202.244 435.328 202.287C435.366 202.317 435.559 202.465 435.817 202.722L424.118 214.421C425.358 215.661 427.061 216.638 427.841 217.085C428.951 217.719 430.217 218.377 431.391 218.964L438.784 204.163ZM435.816 202.722C436.042 202.948 436.056 203.002 435.757 202.61C435.525 202.306 435.22 201.886 434.853 201.363C434.12 200.321 433.261 199.041 432.453 197.812L418.629 206.901C419.482 208.198 420.445 209.635 421.315 210.873C422.007 211.858 423.12 213.423 424.118 214.421L435.816 202.722ZM414.826 199.983C414.013 202.339 413.102 205.257 412.506 207.942C412.212 209.268 411.943 210.765 411.846 212.224C411.777 213.282 411.646 215.919 412.923 218.472L427.72 211.073C428.221 212.073 428.314 212.871 428.335 213.078C428.363 213.346 428.346 213.449 428.355 213.314C428.373 213.034 428.453 212.448 428.658 211.525C429.06 209.71 429.748 207.456 430.465 205.38L414.826 199.983ZM412.923 218.472C412.584 217.795 412.476 217.277 412.448 217.132C412.413 216.953 412.417 216.898 412.423 217.013C412.436 217.256 412.43 217.747 412.362 218.517C412.228 220.039 411.915 221.935 411.549 223.739L427.763 227.031C428.19 224.924 428.632 222.357 428.843 219.972C428.947 218.788 429.012 217.465 428.946 216.171C428.892 215.107 428.719 213.07 427.72 211.073L412.923 218.472ZM425.42 222.47L423.678 218.116L408.317 224.26L410.059 228.615L425.42 222.47ZM416.869 215.061C272.454 116.39 137.407 157.388 70.1637 213.868L80.8045 226.536C143.072 174.235 269.977 134.735 407.536 228.721L416.869 215.061ZM406.007 218.872C406.657 216.601 408.259 215.11 409.892 214.388C411.572 213.645 414.321 213.32 416.869 215.061L407.536 228.721C410.71 230.89 414.234 230.558 416.584 229.519C418.887 228.5 421.055 226.423 421.913 223.423L406.007 218.872ZM423.678 218.116C422.22 214.469 418.801 212.277 415.222 212.155C411.373 212.024 407.295 214.372 406.007 218.872L421.913 223.423C420.915 226.912 417.66 228.792 414.66 228.69C411.93 228.597 409.386 226.931 408.317 224.26L423.678 218.116ZM422.878 219.244C424.019 220.053 424.901 221.173 425.42 222.47L410.059 228.615C410.723 230.274 411.851 231.706 413.309 232.74L422.878 219.244ZM411.549 223.739C412.627 218.427 418.726 216.3 422.878 219.244L413.309 232.74C418.643 236.522 426.396 233.763 427.763 227.031L411.549 223.739ZM432.453 197.812C428.161 191.283 417.641 191.826 414.826 199.983L430.465 205.38C428.534 210.974 421.433 211.165 418.629 206.901L432.453 197.812ZM431.107 205.455C432.928 203.568 435.993 202.769 438.784 204.163L431.391 218.964C435.506 221.019 440.165 219.894 443.013 216.943L431.107 205.455ZM431.525 212.271C430.037 209.294 430.707 205.638 433.267 203.391L444.179 215.827C447.329 213.062 448.163 208.552 446.323 204.872L431.525 212.271ZM453.576 194.675C451.804 189.359 444.838 185.412 438.742 189.677L448.227 203.233C443.781 206.344 439.016 203.312 437.88 199.907L453.576 194.675ZM449.259 196.855C451.939 196.855 454.849 198.493 455.911 201.681L440.216 206.912C441.616 211.115 445.509 213.399 449.259 213.399V196.855ZM453.388 200.424C455.854 198.828 458.848 198.95 461.079 200.308L452.481 214.442C455.392 216.213 459.242 216.342 462.375 214.314L453.388 200.424ZM467.249 211.073C470.014 202.779 460.791 195.634 453.451 200.383L462.438 214.273C456.649 218.02 449.373 212.384 451.554 205.841L467.249 211.073ZM465.119 203.276C467.303 205.172 468.194 208.239 467.249 211.073L451.554 205.841C450.354 209.443 451.478 213.343 454.273 215.769L465.119 203.276ZM456.778 388.834C455.525 391.945 452.52 393.912 449.259 393.912V377.368C445.863 377.368 442.736 379.416 441.432 382.652L456.778 388.834ZM436.397 399.748C439.701 403.434 444.244 403.424 446.9 402.698C449.566 401.969 453.147 399.799 454.375 395.448L438.453 390.955C439.254 388.114 441.431 387.041 442.536 386.739C443.631 386.44 446.458 386.186 448.715 388.703L436.397 399.748ZM410.399 385.114C408.027 392.426 416.025 398.748 422.592 394.751L413.989 380.619C420.531 376.636 428.499 382.934 426.136 390.218L410.399 385.114ZM414.069 324.679C412.177 326.336 409.199 326.915 406.534 325.559C403.734 324.135 402.355 321.105 402.811 318.331L419.136 321.011C419.822 316.835 417.802 312.728 414.035 310.813C410.403 308.966 406.134 309.638 403.172 312.231L414.069 324.679ZM386.598 315.553C379.047 321.315 383.122 333.372 392.619 333.372V316.827C398.951 316.827 401.668 324.865 396.634 328.706L386.598 315.553ZM402.561 315.407C398.151 313.238 397.56 307.189 401.467 304.207L411.503 317.36C417.363 312.888 416.477 303.814 409.862 300.561L402.561 315.407ZM402.569 295.4C393.094 297.039 391.252 309.845 399.881 314.089L407.182 299.243C412.935 302.072 411.706 310.609 405.39 311.702L402.569 295.4ZM403.189 305.446C399.848 301.547 402.026 295.494 407.086 294.618L409.906 310.921C417.496 309.607 420.763 300.527 415.751 294.679L403.189 305.446ZM398.141 279.249C391.764 281.729 389.749 289.765 394.202 294.96L406.763 284.194C409.732 287.657 408.388 293.015 404.137 294.668L398.141 279.249ZM403.117 284.851C401.518 281.387 403.171 277.292 406.727 275.91L412.723 291.329C418.056 289.255 420.536 283.113 418.138 277.918L403.117 284.851ZM399.211 274.498C398.278 273.794 397.6 272.898 397.176 271.979L412.197 265.046C411.546 263.633 410.543 262.324 409.177 261.292L399.211 274.498ZM98.55 265.358C98.3023 266.514 97.7607 267.55 97.0056 268.391L84.6956 257.338C83.5566 258.606 82.741 260.174 82.3729 261.892L98.55 265.358ZM97.7336 268.012C98.0408 267.347 98.2733 266.649 98.4269 265.932L82.2499 262.466C82.3523 261.988 82.5073 261.523 82.7121 261.079L97.7336 268.012ZM93.5968 274.924C93.6913 276.055 93.4933 277.2 93.0109 278.245L77.9893 271.312C77.2662 272.879 76.9676 274.599 77.11 276.302L93.5968 274.924ZM89.8897 276.472C92.3331 277.423 93.9617 279.711 94.0969 282.286L77.5754 283.153C77.7792 287.034 80.2317 290.468 83.8933 291.892L89.8897 276.472ZM99.1952 294.271C103.648 289.076 101.633 281.039 95.2562 278.559L89.2598 293.979C85.0084 292.325 83.6652 286.968 86.6338 283.504L99.1952 294.271ZM94.4297 297.439C94.4171 298.988 93.8597 300.496 92.8375 301.689L80.2761 290.922C78.744 292.709 77.9048 294.973 77.8859 297.306L94.4297 297.439ZM91.3634 297.863C93.2808 299.141 94.379 301.31 94.3052 303.578L77.7697 303.04C77.6585 306.456 79.3128 309.713 82.1863 311.629L91.3634 297.863ZM87.2738 316.746C96.9841 316.746 100.797 304.152 92.7178 298.766L83.5406 312.531C78.0001 308.838 80.615 300.202 87.2738 300.202V316.746ZM94.0439 309.452C93.8134 313.53 90.4416 316.746 86.3257 316.746V300.202C81.6352 300.202 77.789 303.867 77.526 308.519L94.0439 309.452ZM91.1728 302.994C93.1167 304.558 94.1846 306.964 94.0439 309.452L77.526 308.519C77.3656 311.356 78.5831 314.098 80.7992 315.882L91.1728 302.994ZM98.0986 332.646C108.301 334.75 114.442 321.723 106.327 315.191L95.9534 328.08C90.5435 323.725 94.6374 315.041 101.439 316.443L98.0986 332.646ZM89.9364 330.393C90.8951 330.968 91.9442 331.378 93.0392 331.603L96.3798 315.4C97.1098 315.55 97.8092 315.823 98.4483 316.207L89.9364 330.393ZM92.51 321.254C92.8026 322.194 92.871 323.141 92.7648 324.024L76.3388 322.049C76.178 323.386 76.2846 324.794 76.7132 326.171L92.51 321.254ZM90.1219 340.423C89.5486 343.215 86.959 345.889 83.2634 345.747L83.8972 329.215C78.6725 329.015 74.797 332.804 73.9158 337.095L90.1219 340.423ZM78.4176 379.321C83.1607 382.529 88.3353 380.755 91.0204 378.121C93.6865 375.504 95.5257 370.477 92.6036 365.706L78.4948 374.347C76.5274 371.134 77.8752 367.841 79.4328 366.312C81.0094 364.765 84.4584 363.433 87.6875 365.617L78.4176 379.321ZM80.001 371.414C78.286 374.842 73.8337 376.22 70.4149 373.907L79.6848 360.204C74.5821 356.752 67.8292 358.766 65.2047 364.012L80.001 371.414ZM78.3681 370.15C78.9635 371.986 78.7142 373.926 77.8011 375.497L63.4979 367.182C62.1046 369.579 61.7406 372.509 62.6308 375.254L78.3681 370.15ZM68.2035 392.296C75.7977 397.717 84.8046 389.996 82.2144 382.009L66.4771 387.113C65.5024 384.108 66.5929 380.834 69.075 378.965C71.5963 377.066 75.1528 376.93 77.8156 378.83L68.2035 392.296ZM67.9019 387.802C66.7374 388.784 64.8548 389.618 62.5788 389.269L65.085 372.916C61.8991 372.427 59.1066 373.578 57.2383 375.153L67.9019 387.802ZM56.4296 392.187C54.9447 393.533 53.2123 393.939 51.8747 393.905L52.2898 377.366C50.0665 377.31 47.4574 377.99 45.3161 379.931L56.4296 392.187ZM37.3118 389.393C39.1061 397.427 49.183 399.908 54.6017 394.013L42.4213 382.817C45.8933 379.04 52.291 380.561 53.4582 385.787L37.3118 389.393ZM40.2577 202.885C32.9035 200.88 26.1272 207.569 28.0365 214.949L44.0534 210.805C45.3263 215.725 40.8088 220.184 35.9059 218.847L40.2577 202.885ZM34.9011 204.8C36.4546 203.267 38.8354 202.498 41.2408 203.153L36.889 219.115C40.4704 220.092 44.1028 218.964 46.5238 216.575L34.9011 204.8ZM36.555 206.484C36.555 204.112 37.7861 202.17 39.3945 201.075L48.7046 214.751C51.2644 213.008 53.0993 210.006 53.0993 206.484H36.555ZM38.2945 200.026C37.1614 201.679 36.555 203.635 36.555 205.639H53.0993C53.0993 206.975 52.695 208.28 51.9396 209.381L38.2945 200.026ZM427.172 371.762C421.957 375.29 415.227 370.228 417.169 364.239L432.907 369.343C435.82 360.359 425.725 352.766 417.902 358.058L427.172 371.762ZM56.8619 189.873C51.8603 186.564 46.043 188.725 43.4102 192.565L57.0553 201.92C55.3568 204.397 51.3575 206.068 47.734 203.671L56.8619 189.873ZM93.0702 321.347C92.5612 326.062 87.3073 328.816 83.1035 326.294L91.6154 312.107C85.3256 308.333 77.3915 312.438 76.6214 319.572L93.0702 321.347ZM58.1029 201.572C61.0352 199.411 64.2505 200.235 65.9321 201.434L56.3265 214.904C59.1353 216.907 63.8735 217.872 67.9201 214.889L58.1029 201.572ZM38.4765 389.04C37.7425 388.498 36.9854 387.692 36.4506 386.59L51.3348 379.367C50.5693 377.79 49.4669 376.59 48.3078 375.734L38.4765 389.04ZM86.3148 346.136C94.2563 347.637 101.187 339.252 97.0699 331.547L82.478 339.344C79.74 334.219 84.3209 328.922 89.3871 329.88L86.3148 346.136ZM397.211 335.135C393.767 341.915 399.194 350.723 407.594 349.276L404.787 332.972C410.701 331.954 414.263 338.096 411.961 342.627L397.211 335.135ZM78.5709 199.293C75.7558 191.136 65.2363 190.594 60.9435 197.123L74.7675 206.212C71.964 210.476 64.8625 210.285 62.9318 204.691L78.5709 199.293ZM400.792 366.397C397.869 371.17 399.711 376.198 402.379 378.814C405.066 381.448 410.239 383.217 414.979 380.01L405.709 366.307C408.935 364.124 412.382 365.452 413.96 366.999C415.52 368.527 416.87 371.823 414.901 375.037L400.792 366.397ZM59.8986 198.208C62.8027 199.275 64.2186 202.066 63.9526 204.643L47.4958 202.944C47.0373 207.385 49.5278 212.023 54.1922 213.737L59.8986 198.208ZM28.5099 216.778C28.0243 214.902 28.3954 212.939 29.4543 211.396L43.0946 220.759C44.7061 218.411 45.257 215.457 44.5268 212.635L28.5099 216.778ZM85.4698 352.511C86.163 354.071 86.2053 355.767 85.7184 357.259L69.9904 352.126C69.2511 354.391 69.3271 356.924 70.3505 359.228L85.4698 352.511ZM400.408 333.372C402.813 333.372 405.137 332.498 406.946 330.914L396.049 318.465C397.256 317.409 398.805 316.827 400.408 316.827V333.372ZM64.629 220.049C65.4994 228.237 74.9871 231.422 80.8045 226.536L70.1637 213.868C74.0021 210.644 80.4834 212.682 81.0806 218.3L64.629 220.049Z" fill="#2E2020" mask="url(#path-1-outside-1_400_252)"/>
<path d="M27.0576 267.295C27.0576 266.112 33.6595 244.616 36.3994 234.634C37.0698 232.191 38.682 230.097 40.9207 228.911C45.347 226.568 50.8808 228.449 52.6153 233.147C52.8443 233.768 53.0556 234.363 53.2389 234.913C54.3413 238.22 55.9948 254.664 56.6838 262.473C58.0618 270.97 60.8177 288.24 60.8177 289.343C60.8177 290.183 59.2163 305.756 57.8446 318.911C57.0829 326.216 54.7664 333.273 50.9782 339.565C45.8736 348.044 40.2378 357.163 39.4593 357.552C38.7937 357.885 36.7551 354.383 34.7386 350.444C32.272 345.626 30.887 340.343 30.2892 334.963L27.0576 305.878V267.295Z" fill="#504444"/>
<path d="M474.207 264.54C474.207 263.357 467.605 241.86 464.865 231.878C464.195 229.435 462.583 227.341 460.344 226.156C455.918 223.812 450.384 225.693 448.649 230.391C448.42 231.012 448.209 231.608 448.026 232.157C446.923 235.465 445.27 251.908 444.581 259.717C443.203 268.214 440.447 285.485 440.447 286.587C440.447 287.588 442.718 309.483 444.168 323.305C444.44 325.897 445.262 328.395 446.594 330.636C452.22 340.102 460.829 354.308 461.805 354.796C462.738 355.262 466.366 348.202 468.852 342.956C469.674 341.221 470.181 339.355 470.393 337.446L474.207 303.123V264.54Z" fill="#504444"/>
<path d="M60.8185 282.453C60.2673 283.555 68.3973 284.979 73.9091 285.209C172.02 136.94 381.884 236.968 422.534 284.508H433.557L441.136 270.74L443.203 245.248C273.025 105.397 111.344 174.053 54.6177 241.114V261.784L60.8185 282.453Z" fill="#9D9D9D"/>
<path d="M151.141 210.116C146.895 211.096 68.3978 265.918 65.6419 266.607C51.0326 270.259 65.1744 241.699 77.7597 233.43C97.9309 220.176 121.349 204.852 124.205 203.22C129.028 200.465 167.611 182.551 171.056 182.551C172.34 182.551 184.652 181.154 200.106 179.337C235.556 175.168 271.449 177.608 306.144 185.995C316.187 188.422 323.636 190.13 324.699 190.13C327.198 190.13 366.519 206.369 391.295 216.76C396.03 218.747 400.509 221.295 404.643 224.342L434.116 246.058C436.301 247.669 437.368 250.39 436.861 253.057C435.933 257.924 430.409 260.343 426.203 257.725L400.58 241.771C399.143 240.876 397.627 240.114 396.051 239.496L335.462 215.716C292.625 198.904 246.319 192.386 200.998 200.364C180.065 204.049 161.308 207.77 151.141 210.116Z" fill="#ADADAD"/>
</svg>
