<svg width="1001" height="1001" viewBox="0 0 1001 1001" fill="none" xmlns="http://www.w3.org/2000/svg">
<mask id="path-1-outside-1_400_252" maskUnits="userSpaceOnUse" x="20.2915" y="309.552" width="963" height="496" fill="black">
<rect fill="white" x="20.2915" y="309.552" width="963" height="496"/>
<path fill-rule="evenodd" clip-rule="evenodd" d="M150.968 439.693C148.989 441.355 145.983 440.208 145.71 437.638C145.239 433.209 145.22 429.317 146.151 427.456C147.9 423.958 144.563 412.139 141.503 403.273C140.619 400.711 137.2 400.359 135.711 402.624C132.39 407.676 128.423 413.49 126.859 415.054C126.652 415.262 126.369 415.496 126.023 415.751C124.909 416.572 123.386 416.431 122.259 415.627C119.597 413.729 116.871 412.255 114.091 411.234C112.331 410.587 111.256 408.741 111.449 406.876C111.925 402.258 110.723 396.886 104.596 392.833C103.218 391.922 101.4 392.411 100.466 393.774L90.2343 408.697C89.8566 409.247 89.6544 409.9 89.6544 410.568V412.257C89.6544 413.408 89.0506 414.467 88.0993 415.115C85.8263 416.662 83.5993 418.518 81.4251 420.664C80.5576 421.521 79.3059 421.878 78.1299 421.558L76.1638 421.022C73.7124 420.353 71.4537 422.583 72.0901 425.043L73.0368 428.702C73.2814 429.648 73.1017 430.639 72.5491 431.444C51.5443 462.046 37.2915 521.601 37.2915 590.056C37.2915 673.06 58.2464 742.978 86.7845 764.064C87.2095 764.378 87.5548 764.771 87.7856 765.247C88.7694 767.274 89.7378 769.847 90.7702 774.469C91.3972 777.277 95.0765 778.237 97.0232 776.12C98.6303 774.371 100.204 772.805 101.746 771.407C102.402 770.812 103.279 770.539 104.165 770.561C104.38 770.566 104.596 770.569 104.812 770.569C111.896 770.569 118.725 767.652 125.14 762.244C125.844 761.651 126.754 761.334 127.664 761.474C135.087 762.611 141.178 766.96 146.019 770.416V770.416C147.465 771.448 149.24 770.102 148.692 768.412L140.999 744.693C140.704 743.784 140.819 742.794 141.299 741.968C142.634 739.671 143.937 737.252 145.206 734.716C146.115 732.898 148.416 732.261 150.1 733.4L166.105 744.228C169.133 746.276 173.008 742.459 171.099 739.342C165.681 730.496 159.909 720.23 155.82 711.028C155.49 710.285 155.457 709.447 155.709 708.674C158.892 698.919 161.69 688.24 164.038 676.807C164.346 675.308 165.632 674.193 167.161 674.251C169.694 674.349 172.535 674.707 175.702 675.305C178.577 675.849 180.927 672.761 179.548 670.18C174.352 660.455 171.128 652.833 169.223 646.715C169.087 646.277 169.049 645.816 169.104 645.362C169.309 643.655 169.505 641.937 169.692 640.208C169.953 637.79 172.633 636.438 174.719 637.69L188.385 645.889C188.705 646.081 189.054 646.217 189.419 646.293L199.538 648.379C202.939 649.08 204.986 644.737 202.281 642.56L171.972 618.165C171.7 617.946 171.55 617.609 171.57 617.26V617.26C171.603 616.686 172.077 616.237 172.652 616.237H174.548C177.599 616.237 178.797 612.279 176.259 610.586L173.55 608.781C172.594 608.143 172.038 607.056 172.075 605.907C172.203 601.984 172.283 598.025 172.316 594.034C172.322 593.251 172.604 592.494 173.114 591.899L185.829 577.065C187.313 575.333 186.642 572.654 184.516 571.828L173.783 567.654C172.565 567.18 171.741 566.034 171.672 564.728C171.42 559.927 171.098 555.187 170.707 550.515C170.659 549.943 170.76 549.368 171 548.846L180.446 528.381C180.548 528.159 180.626 527.927 180.677 527.688L180.923 526.539C181.043 525.977 181.317 525.445 181.701 525.018C365.612 320.199 685.397 442.265 808.388 535.08C808.822 535.407 809.146 535.82 809.373 536.313L821.255 562.057C822.054 563.789 821.228 565.837 819.45 566.528L802.278 573.206C800.152 574.033 799.481 576.712 800.965 578.443L818.94 599.414C820.611 601.364 819.522 604.391 816.992 604.828L807.959 606.391C804.801 606.938 804.187 611.206 807.063 612.621L812.423 615.257C814.628 616.341 814.923 619.366 812.97 620.857L783.232 643.549C780.715 645.469 782.073 649.488 785.239 649.488H800.817C801.618 649.488 802.393 649.197 802.996 648.669L817.241 636.199C819.381 634.326 822.408 635.826 821.947 638.632C820.52 647.327 816.898 661.843 809.173 677.051C808.03 679.3 809.895 681.966 812.381 681.538V681.538C828.795 678.711 836.509 677.383 836.509 693.403C836.509 703.972 825.518 724.682 815.694 740.724C813.784 743.841 817.661 747.654 820.689 745.606L845.075 729.11C847.683 727.346 851.048 729.876 850.076 732.871L836.536 774.622C836.527 774.65 836.557 774.674 836.582 774.659V774.659C846.362 768.705 860.389 760.167 885.112 787.741C887.208 790.079 891.975 788.714 892.828 785.692C894.16 780.97 896.175 775.828 898.211 770.775C898.261 770.65 898.383 770.569 898.518 770.569V770.569C935.808 770.569 966.038 689.751 966.038 590.056C966.038 509.838 946.466 441.841 919.392 418.335C918.781 417.804 918.548 416.972 918.804 416.204V416.204C919.388 414.452 917.44 412.943 915.889 413.946L915.763 414.028C915.096 414.459 914.24 414.452 913.561 414.039C908.724 411.097 903.689 409.543 898.518 409.543V409.543C897.448 409.543 896.465 408.897 896.127 407.882L891.456 393.871C890.82 391.96 888.619 391.045 886.969 392.199C876.35 399.629 875.834 412.403 877.848 416.433V416.433C878.2 417.135 878.036 417.989 877.446 418.507C876.324 419.492 875.216 420.552 874.121 421.687C873.093 422.752 871.5 423.078 870.175 422.416C865.744 420.202 861.276 417.774 859.935 416.433C858.371 414.869 854.405 409.054 851.083 404.002C849.594 401.737 846.176 402.089 845.291 404.652C842.232 413.517 838.895 425.337 840.643 428.834C842.329 432.206 840.9 442.238 839.312 450.059C839.024 451.478 837.369 452.111 836.188 451.273V451.273C835.87 451.048 835.624 450.736 835.48 450.374L831.996 441.665C831.215 439.712 828.499 439.562 827.921 441.584V441.584C827.503 443.044 825.659 443.927 824.405 443.071C542.431 250.413 280.479 330.912 150.968 439.693Z"/>
</mask>
<path fill-rule="evenodd" clip-rule="evenodd" d="M150.968 439.693C148.989 441.355 145.983 440.208 145.71 437.638C145.239 433.209 145.22 429.317 146.151 427.456C147.9 423.958 144.563 412.139 141.503 403.273C140.619 400.711 137.2 400.359 135.711 402.624C132.39 407.676 128.423 413.49 126.859 415.054C126.652 415.262 126.369 415.496 126.023 415.751C124.909 416.572 123.386 416.431 122.259 415.627C119.597 413.729 116.871 412.255 114.091 411.234C112.331 410.587 111.256 408.741 111.449 406.876C111.925 402.258 110.723 396.886 104.596 392.833C103.218 391.922 101.4 392.411 100.466 393.774L90.2343 408.697C89.8566 409.247 89.6544 409.9 89.6544 410.568V412.257C89.6544 413.408 89.0506 414.467 88.0993 415.115C85.8263 416.662 83.5993 418.518 81.4251 420.664C80.5576 421.521 79.3059 421.878 78.1299 421.558L76.1638 421.022C73.7124 420.353 71.4537 422.583 72.0901 425.043L73.0368 428.702C73.2814 429.648 73.1017 430.639 72.5491 431.444C51.5443 462.046 37.2915 521.601 37.2915 590.056C37.2915 673.06 58.2464 742.978 86.7845 764.064C87.2095 764.378 87.5548 764.771 87.7856 765.247C88.7694 767.274 89.7378 769.847 90.7702 774.469C91.3972 777.277 95.0765 778.237 97.0232 776.12C98.6303 774.371 100.204 772.805 101.746 771.407C102.402 770.812 103.279 770.539 104.165 770.561C104.38 770.566 104.596 770.569 104.812 770.569C111.896 770.569 118.725 767.652 125.14 762.244C125.844 761.651 126.754 761.334 127.664 761.474C135.087 762.611 141.178 766.96 146.019 770.416V770.416C147.465 771.448 149.24 770.102 148.692 768.412L140.999 744.693C140.704 743.784 140.819 742.794 141.299 741.968C142.634 739.671 143.937 737.252 145.206 734.716C146.115 732.898 148.416 732.261 150.1 733.4L166.105 744.228C169.133 746.276 173.008 742.459 171.099 739.342C165.681 730.496 159.909 720.23 155.82 711.028C155.49 710.285 155.457 709.447 155.709 708.674C158.892 698.919 161.69 688.24 164.038 676.807C164.346 675.308 165.632 674.193 167.161 674.251C169.694 674.349 172.535 674.707 175.702 675.305C178.577 675.849 180.927 672.761 179.548 670.18C174.352 660.455 171.128 652.833 169.223 646.715C169.087 646.277 169.049 645.816 169.104 645.362C169.309 643.655 169.505 641.937 169.692 640.208C169.953 637.79 172.633 636.438 174.719 637.69L188.385 645.889C188.705 646.081 189.054 646.217 189.419 646.293L199.538 648.379C202.939 649.08 204.986 644.737 202.281 642.56L171.972 618.165C171.7 617.946 171.55 617.609 171.57 617.26V617.26C171.603 616.686 172.077 616.237 172.652 616.237H174.548C177.599 616.237 178.797 612.279 176.259 610.586L173.55 608.781C172.594 608.143 172.038 607.056 172.075 605.907C172.203 601.984 172.283 598.025 172.316 594.034C172.322 593.251 172.604 592.494 173.114 591.899L185.829 577.065C187.313 575.333 186.642 572.654 184.516 571.828L173.783 567.654C172.565 567.18 171.741 566.034 171.672 564.728C171.42 559.927 171.098 555.187 170.707 550.515C170.659 549.943 170.76 549.368 171 548.846L180.446 528.381C180.548 528.159 180.626 527.927 180.677 527.688L180.923 526.539C181.043 525.977 181.317 525.445 181.701 525.018C365.612 320.199 685.397 442.265 808.388 535.08C808.822 535.407 809.146 535.82 809.373 536.313L821.255 562.057C822.054 563.789 821.228 565.837 819.45 566.528L802.278 573.206C800.152 574.033 799.481 576.712 800.965 578.443L818.94 599.414C820.611 601.364 819.522 604.391 816.992 604.828L807.959 606.391C804.801 606.938 804.187 611.206 807.063 612.621L812.423 615.257C814.628 616.341 814.923 619.366 812.97 620.857L783.232 643.549C780.715 645.469 782.073 649.488 785.239 649.488H800.817C801.618 649.488 802.393 649.197 802.996 648.669L817.241 636.199C819.381 634.326 822.408 635.826 821.947 638.632C820.52 647.327 816.898 661.843 809.173 677.051C808.03 679.3 809.895 681.966 812.381 681.538V681.538C828.795 678.711 836.509 677.383 836.509 693.403C836.509 703.972 825.518 724.682 815.694 740.724C813.784 743.841 817.661 747.654 820.689 745.606L845.075 729.11C847.683 727.346 851.048 729.876 850.076 732.871L836.536 774.622C836.527 774.65 836.557 774.674 836.582 774.659V774.659C846.362 768.705 860.389 760.167 885.112 787.741C887.208 790.079 891.975 788.714 892.828 785.692C894.16 780.97 896.175 775.828 898.211 770.775C898.261 770.65 898.383 770.569 898.518 770.569V770.569C935.808 770.569 966.038 689.751 966.038 590.056C966.038 509.838 946.466 441.841 919.392 418.335C918.781 417.804 918.548 416.972 918.804 416.204V416.204C919.388 414.452 917.44 412.943 915.889 413.946L915.763 414.028C915.096 414.459 914.24 414.452 913.561 414.039C908.724 411.097 903.689 409.543 898.518 409.543V409.543C897.448 409.543 896.465 408.897 896.127 407.882L891.456 393.871C890.82 391.96 888.619 391.045 886.969 392.199C876.35 399.629 875.834 412.403 877.848 416.433V416.433C878.2 417.135 878.036 417.989 877.446 418.507C876.324 419.492 875.216 420.552 874.121 421.687C873.093 422.752 871.5 423.078 870.175 422.416C865.744 420.202 861.276 417.774 859.935 416.433C858.371 414.869 854.405 409.054 851.083 404.002C849.594 401.737 846.176 402.089 845.291 404.652C842.232 413.517 838.895 425.337 840.643 428.834C842.329 432.206 840.9 442.238 839.312 450.059C839.024 451.478 837.369 452.111 836.188 451.273V451.273C835.87 451.048 835.624 450.736 835.48 450.374L831.996 441.665C831.215 439.712 828.499 439.562 827.921 441.584V441.584C827.503 443.044 825.659 443.927 824.405 443.071C542.431 250.413 280.479 330.912 150.968 439.693Z" fill="#3D3333"/>
<path d="M146.151 427.456L160.949 434.855L160.949 434.855L146.151 427.456ZM859.935 416.433L871.633 404.734L871.633 404.734L859.935 416.433ZM840.643 428.834L825.846 436.233L825.846 436.233L840.643 428.834ZM824.405 443.071L815.072 456.731L824.405 443.071ZM831.996 441.665L847.357 435.52L831.996 441.665ZM835.48 450.374L850.841 444.23L835.48 450.374ZM839.312 450.059L823.098 446.768L839.312 450.059ZM851.083 404.002L837.259 413.091L851.083 404.002ZM845.291 404.652L860.93 410.049L845.291 404.652ZM874.121 421.687L886.027 433.174L874.121 421.687ZM870.175 422.416L877.569 407.616L870.175 422.416ZM877.446 418.507L888.358 430.943L877.446 418.507ZM891.456 393.871L907.152 388.639L891.456 393.871ZM886.969 392.199L896.454 405.755L886.969 392.199ZM896.127 407.882L880.432 413.114L896.127 407.882ZM915.763 414.028L924.751 427.918L915.763 414.028ZM913.561 414.039L922.159 399.904L913.561 414.039ZM915.889 413.946L906.902 400.056L915.889 413.946ZM919.392 418.335L930.239 405.842L919.392 418.335ZM898.211 770.775L882.865 764.593L898.211 770.775ZM885.112 787.741L897.43 776.696L885.112 787.741ZM892.828 785.692L876.905 781.199L892.828 785.692ZM836.536 774.622L852.273 779.726L836.536 774.622ZM817.241 636.199L828.139 648.648L817.241 636.199ZM821.947 638.632L838.273 641.312L821.947 638.632ZM783.232 643.549L773.196 630.396L783.232 643.549ZM812.423 615.257L819.725 600.411L812.423 615.257ZM812.97 620.857L823.006 634.009L812.97 620.857ZM807.959 606.391L805.139 590.089L807.959 606.391ZM807.063 612.621L799.762 627.467L807.063 612.621ZM818.94 599.414L806.379 610.181L818.94 599.414ZM816.992 604.828L819.813 621.13L816.992 604.828ZM800.965 578.443L788.404 589.21L800.965 578.443ZM821.255 562.057L836.277 555.124L821.255 562.057ZM819.45 566.528L813.454 551.109L819.45 566.528ZM808.388 535.08L818.354 521.874L808.388 535.08ZM809.373 536.313L794.352 543.246L809.373 536.313ZM180.923 526.539L197.1 530.006L180.923 526.539ZM181.701 525.018L169.391 513.964L181.701 525.018ZM180.446 528.381L165.424 521.448L180.446 528.381ZM180.677 527.688L164.5 524.221L180.677 527.688ZM170.707 550.515L154.22 551.893L170.707 550.515ZM171 548.846L186.022 555.779L171 548.846ZM173.783 567.654L179.78 552.234L173.783 567.654ZM185.829 577.065L173.268 566.298L185.829 577.065ZM184.516 571.828L190.513 556.408L184.516 571.828ZM172.316 594.034L188.86 594.168L172.316 594.034ZM173.114 591.899L160.552 581.133L173.114 591.899ZM173.55 608.781L182.727 595.015L173.55 608.781ZM172.075 605.907L155.54 605.369L172.075 605.907ZM176.259 610.586L167.081 624.352L176.259 610.586ZM171.972 618.165L161.599 631.053L171.972 618.165ZM199.538 648.379L202.878 632.175L199.538 648.379ZM202.281 642.56L212.654 629.672L202.281 642.56ZM188.385 645.889L179.873 660.076L188.385 645.889ZM189.419 646.293L192.76 630.089L189.419 646.293ZM169.223 646.715L185.02 641.798L169.223 646.715ZM169.104 645.362L152.678 643.386L169.104 645.362ZM164.038 676.807L180.244 680.135L164.038 676.807ZM167.161 674.251L166.527 690.784L167.161 674.251ZM166.105 744.228L156.835 757.931L166.105 744.228ZM171.099 739.342L156.99 747.982L171.099 739.342ZM145.206 734.716L160.002 742.117L145.206 734.716ZM150.1 733.4L140.83 747.104L150.1 733.4ZM140.999 744.693L125.262 749.797L140.999 744.693ZM141.299 741.968L155.602 750.282L141.299 741.968ZM148.692 768.412L132.954 773.516L148.692 768.412ZM125.14 762.244L114.477 749.595L125.14 762.244ZM127.664 761.474L125.158 777.827L127.664 761.474ZM101.746 771.407L112.859 783.663L101.746 771.407ZM104.165 770.561L103.75 787.1L104.165 770.561ZM90.7702 774.469L106.917 770.863L90.7702 774.469ZM97.0232 776.12L109.204 787.316L97.0232 776.12ZM72.0901 425.043L88.107 420.899L72.0901 425.043ZM81.4251 420.664L93.0477 432.438L81.4251 420.664ZM78.1299 421.558L82.4817 405.596L78.1299 421.558ZM88.0993 415.115L97.4093 428.791L88.0993 415.115ZM90.2343 408.697L76.5892 399.341L90.2343 408.697ZM850.076 732.871L865.814 737.975L850.076 732.871ZM104.596 392.833L95.4681 406.632L104.596 392.833ZM100.466 393.774L114.111 403.13L100.466 393.774ZM174.719 637.69L166.207 651.876L174.719 637.69ZM126.023 415.751L135.84 429.067L126.023 415.751ZM122.259 415.627L112.653 429.097L122.259 415.627ZM86.7845 764.064L96.6158 750.757L86.7845 764.064ZM87.7856 765.247L72.9014 772.47L87.7856 765.247ZM175.702 675.305L178.774 659.049L175.702 675.305ZM179.548 670.18L164.956 677.977L179.548 670.18ZM809.173 677.051L823.923 684.544L809.173 677.051ZM141.503 403.273L157.142 397.876L141.503 403.273ZM135.711 402.624L149.535 411.713L135.711 402.624ZM815.694 740.724L801.585 732.083L815.694 740.724ZM114.091 411.234L108.385 426.763L114.091 411.234ZM111.449 406.876L94.9917 405.177L111.449 406.876ZM73.0368 428.702L89.0538 424.558L73.0368 428.702ZM72.5491 431.444L86.1894 440.806L72.5491 431.444ZM155.82 711.028L170.94 704.311L155.82 711.028ZM155.709 708.674L139.981 703.541L155.709 708.674ZM802.996 648.669L813.893 661.117L802.996 648.669ZM145.71 437.638L129.258 439.387L129.258 439.387L145.71 437.638ZM150.968 439.693L140.328 427.024L150.968 439.693ZM162.161 435.89C162.069 435.016 162.006 434.241 161.971 433.572C161.935 432.894 161.932 432.402 161.942 432.08C161.952 431.73 161.973 431.758 161.92 432.061C161.891 432.227 161.827 432.548 161.697 432.984C161.569 433.411 161.342 434.068 160.949 434.855L131.353 420.057C129.196 424.372 128.935 428.866 128.868 431.088C128.784 433.884 128.981 436.781 129.258 439.387L162.161 435.89ZM160.949 434.855C163.502 429.749 163.241 424.475 163.101 422.359C162.908 419.441 162.37 416.447 161.782 413.795C160.591 408.424 158.768 402.589 157.142 397.876L125.864 408.671C127.297 412.823 128.673 417.33 129.478 420.96C129.888 422.808 130.047 423.979 130.084 424.538C130.102 424.808 130.067 424.604 130.123 424.067C130.166 423.654 130.353 422.058 131.353 420.057L160.949 434.855ZM121.887 393.535C120.271 395.993 118.553 398.552 117.089 400.636C116.353 401.683 115.743 402.523 115.28 403.13C114.681 403.915 114.709 403.807 115.161 403.356L138.558 426.753C140.554 424.757 142.78 421.627 144.163 419.658C145.904 417.181 147.83 414.306 149.535 411.713L121.887 393.535ZM115.161 403.356C115.499 403.018 115.77 402.784 115.917 402.662C116.072 402.534 116.175 402.456 116.206 402.434L135.84 429.067C136.521 428.565 137.532 427.779 138.558 426.753L115.161 403.356ZM131.864 402.157C128.155 399.512 124.131 397.297 119.797 395.704L108.385 426.763C109.612 427.214 111.04 427.947 112.653 429.097L131.864 402.157ZM127.905 408.575C128.353 404.236 128.083 398.853 125.78 393.303C123.414 387.6 119.318 382.735 113.724 379.035L95.4681 406.632C95.7945 406.847 95.8064 406.914 95.675 406.758C95.5368 406.594 95.3604 406.327 95.2174 405.983C94.9283 405.286 95.0205 404.898 94.9917 405.177L127.905 408.575ZM86.8205 384.419L76.5892 399.341L103.879 418.052L114.111 403.13L86.8205 384.419ZM73.1101 410.568V412.257H106.199V410.568H73.1101ZM78.7892 401.439C75.5903 403.617 72.5977 406.131 69.8024 408.89L93.0477 432.438C94.601 430.905 96.0623 429.708 97.4093 428.791L78.7892 401.439ZM82.4817 405.596L80.5157 405.06L71.812 436.984L73.7781 437.52L82.4817 405.596ZM56.0731 429.187L57.0199 432.846L89.0538 424.558L88.107 420.899L56.0731 429.187ZM58.9087 422.081C35.126 456.731 20.7472 520.273 20.7472 590.056H53.8358C53.8358 522.929 67.9626 467.361 86.1894 440.806L58.9087 422.081ZM20.7472 590.056C20.7472 632.846 26.1369 672.652 35.4415 704.87C44.491 736.204 58.1278 763.461 76.9532 777.37L96.6158 750.757C86.9031 743.581 75.7935 725.337 67.2309 695.689C58.9235 666.924 53.8358 630.269 53.8358 590.056H20.7472ZM72.9014 772.47C73.2118 773.109 73.8073 774.42 74.6237 778.076L106.917 770.863C105.668 765.274 104.327 761.438 102.67 758.023L72.9014 772.47ZM109.204 787.316C110.5 785.905 111.72 784.697 112.859 783.663L90.6324 759.152C88.6894 760.914 86.7607 762.837 84.8427 764.924L109.204 787.316ZM103.75 787.1C104.103 787.109 104.457 787.113 104.812 787.113V754.025C104.734 754.025 104.657 754.024 104.58 754.022L103.75 787.1ZM104.812 787.113C116.733 787.113 127.207 782.141 135.804 774.893L114.477 749.595C110.243 753.164 107.058 754.025 104.812 754.025V787.113ZM125.158 777.827C126.421 778.021 127.952 778.547 129.908 779.611C131.945 780.718 133.894 782.087 136.407 783.881L155.632 756.95C151.226 753.806 142.07 746.944 130.17 745.121L125.158 777.827ZM164.429 763.308L156.736 739.589L125.262 749.797L132.954 773.516L164.429 763.308ZM155.602 750.282C157.123 747.666 158.59 744.941 160.002 742.117L130.41 727.314C129.285 729.563 128.145 731.676 126.996 733.653L155.602 750.282ZM140.83 747.104L156.835 757.931L175.375 730.524L159.37 719.697L140.83 747.104ZM185.207 730.701C179.966 722.142 174.61 712.571 170.94 704.311L140.701 717.745C145.208 727.889 151.396 738.849 156.99 747.982L185.207 730.701ZM171.437 713.807C174.835 703.394 177.785 692.106 180.244 680.135L147.832 673.479C145.595 684.373 142.95 694.444 139.981 703.541L171.437 713.807ZM166.527 690.784C168.018 690.841 170.013 691.068 172.63 691.562L178.774 659.049C175.058 658.347 171.369 657.856 167.794 657.719L166.527 690.784ZM194.14 662.383C189.269 653.267 186.525 646.633 185.02 641.798L153.427 651.631C155.731 659.034 159.435 667.643 164.956 677.977L194.14 662.383ZM185.53 647.337C185.743 645.563 185.947 643.779 186.14 641.984L153.243 638.432C153.064 640.095 152.875 641.746 152.678 643.386L185.53 647.337ZM166.207 651.876L179.873 660.076L196.897 631.702L183.231 623.503L166.207 651.876ZM186.079 662.496L196.197 664.582L202.878 632.175L192.76 630.089L186.079 662.496ZM212.654 629.672L182.346 605.277L161.599 631.053L191.907 655.448L212.654 629.672ZM172.652 632.781H174.548V599.692H172.652V632.781ZM185.436 596.821L182.727 595.015L164.373 622.546L167.081 624.352L185.436 596.821ZM188.611 606.445C188.743 602.387 188.826 598.293 188.86 594.168L155.772 593.9C155.741 597.757 155.663 601.581 155.54 605.369L188.611 606.445ZM185.675 602.666L198.391 587.832L173.268 566.298L160.552 581.133L185.675 602.666ZM190.513 556.408L179.78 552.234L167.787 583.073L178.52 587.247L190.513 556.408ZM188.194 563.861C187.933 558.891 187.599 553.98 187.194 549.137L154.22 551.893C154.596 556.394 154.908 560.964 155.151 565.596L188.194 563.861ZM186.022 555.779L195.467 535.314L165.424 521.448L155.979 541.913L186.022 555.779ZM196.854 531.154L197.1 530.006L164.746 523.073L164.5 524.221L196.854 531.154ZM194.011 536.071C281.036 439.153 400.575 418.764 515.602 434.822C630.923 450.92 739.008 503.449 798.422 548.286L818.354 521.874C754.777 473.896 641.473 418.984 520.177 402.051C398.586 385.077 266.277 406.064 169.391 513.964L194.011 536.071ZM794.352 543.246L806.234 568.99L836.277 555.124L824.395 529.38L794.352 543.246ZM813.454 551.109L796.282 557.787L808.274 588.625L825.446 581.947L813.454 551.109ZM788.404 589.21L806.379 610.181L831.502 588.648L813.526 567.676L788.404 589.21ZM814.171 588.526L805.139 590.089L810.78 622.693L819.813 621.13L814.171 588.526ZM799.762 627.467L805.121 630.103L819.725 600.411L814.365 597.775L799.762 627.467ZM802.934 607.704L773.196 630.396L793.268 656.701L823.006 634.009L802.934 607.704ZM785.239 666.032H800.817V632.944H785.239V666.032ZM813.893 661.117L828.139 648.648L806.344 623.75L792.099 636.22L813.893 661.117ZM805.622 635.952C804.408 643.342 801.225 656.166 794.422 669.559L823.923 684.544C832.571 667.52 836.631 651.313 838.273 641.312L805.622 635.952ZM815.188 697.842C819.509 697.098 822.334 696.624 824.552 696.425C825.586 696.332 826.14 696.336 826.362 696.347C826.586 696.359 826.176 696.366 825.403 696.11C824.55 695.827 823.386 695.267 822.245 694.258C821.104 693.249 820.429 692.184 820.075 691.431C819.756 690.752 819.754 690.451 819.817 690.838C819.879 691.221 819.965 692.024 819.965 693.403H853.054C853.054 688.451 852.521 682.676 850.02 677.355C847.094 671.13 842.063 666.769 835.798 664.696C830.522 662.95 825.267 663.14 821.599 663.468C817.755 663.813 813.46 664.564 809.573 665.233L815.188 697.842ZM819.965 693.403C819.965 693.352 819.965 693.713 819.791 694.588C819.623 695.434 819.336 696.543 818.89 697.931C817.988 700.731 816.608 704.134 814.798 708.004C811.182 715.739 806.322 724.348 801.585 732.083L829.802 749.364C834.889 741.058 840.437 731.291 844.773 722.018C848.703 713.612 853.054 702.764 853.054 693.403H819.965ZM829.959 759.309L854.345 742.813L835.805 715.406L811.419 731.903L829.959 759.309ZM834.339 727.767L820.798 769.518L852.273 779.726L865.814 737.975L834.339 727.767ZM845.184 788.791C850.405 785.613 852.133 784.989 854.045 785.128C855.755 785.252 861.767 786.487 872.793 798.785L897.43 776.696C883.733 761.42 870.37 753.138 856.442 752.126C842.714 751.129 832.538 757.751 827.979 760.527L845.184 788.791ZM908.751 790.185C909.808 786.437 911.498 782.068 913.556 776.958L882.865 764.593C880.853 769.587 878.513 775.503 876.905 781.199L908.751 790.185ZM898.518 787.113C914.288 787.113 927.318 778.51 937.193 767.343C947.088 756.154 955.243 740.91 961.758 723.494C974.833 688.539 982.583 641.358 982.583 590.056H949.494C949.494 638.449 942.129 681.524 930.766 711.902C925.062 727.152 918.668 738.343 912.407 745.423C906.126 752.525 901.393 754.025 898.518 754.025V787.113ZM982.583 590.056C982.583 548.692 977.546 510.132 968.815 478.524C960.275 447.607 947.52 420.846 930.239 405.842L908.546 430.827C918.339 439.33 928.907 458.321 936.921 487.334C944.744 515.655 949.494 551.202 949.494 590.056H982.583ZM906.902 400.056L906.776 400.138L924.751 427.918L924.877 427.836L906.902 400.056ZM922.159 399.904C915.124 395.625 907.151 392.999 898.518 392.999V426.087C900.226 426.087 902.323 426.568 904.963 428.174L922.159 399.904ZM911.822 402.651L907.152 388.639L875.761 399.102L880.432 413.114L911.822 402.651ZM877.484 378.643C868.442 384.97 863.687 393.642 861.661 401.422C860.657 405.277 860.268 409.092 860.397 412.597C860.514 415.789 861.103 419.937 863.051 423.832L892.646 409.034C893.189 410.12 893.367 410.902 893.415 411.127C893.476 411.415 893.468 411.505 893.463 411.385C893.454 411.129 893.481 410.531 893.681 409.76C894.065 408.288 894.877 406.858 896.454 405.755L877.484 378.643ZM866.534 406.071C865.047 407.377 863.607 408.756 862.215 410.199L886.027 433.174C886.824 432.348 887.602 431.606 888.358 430.943L866.534 406.071ZM877.569 407.616C875.485 406.575 873.568 405.57 872.11 404.736C871.376 404.316 870.903 404.022 870.651 403.854C870.529 403.773 870.545 403.778 870.656 403.864C870.733 403.922 871.119 404.22 871.633 404.734L848.236 428.131C850.717 430.612 854.121 432.566 855.682 433.458C857.901 434.728 860.434 436.043 862.782 437.217L877.569 407.616ZM871.633 404.734C872.085 405.186 872.113 405.293 871.514 404.508C871.051 403.901 870.441 403.062 869.705 402.015C868.241 399.931 866.523 397.371 864.907 394.913L837.259 413.091C838.964 415.685 840.89 418.559 842.631 421.036C844.014 423.005 846.241 426.136 848.236 428.131L871.633 404.734ZM829.652 399.254C828.026 403.967 826.204 409.803 825.012 415.174C824.424 417.826 823.886 420.82 823.693 423.737C823.553 425.853 823.293 431.127 825.846 436.233L855.441 421.435C856.441 423.436 856.628 425.032 856.671 425.445C856.727 425.982 856.692 426.187 856.71 425.917C856.747 425.357 856.906 424.186 857.316 422.338C858.121 418.709 859.497 414.202 860.93 410.049L829.652 399.254ZM825.846 436.233C825.168 434.879 824.952 433.844 824.896 433.554C824.826 433.196 824.835 433.084 824.847 433.315C824.872 433.801 824.861 434.784 824.725 436.323C824.456 439.367 823.831 443.159 823.098 446.768L855.526 453.35C856.381 449.138 857.264 444.004 857.685 439.234C857.895 436.865 858.024 434.219 857.893 431.632C857.784 429.504 857.437 425.428 855.441 421.435L825.846 436.233ZM850.841 444.23L847.357 435.52L816.635 447.809L820.119 456.518L850.841 444.23ZM833.738 429.411C544.907 232.068 274.814 314.064 140.328 427.024L161.609 452.361C286.145 347.759 539.955 268.759 815.072 456.731L833.738 429.411ZM812.015 437.033C813.314 432.492 816.519 429.51 819.784 428.066C823.145 426.579 828.643 425.929 833.738 429.411L815.072 456.731C821.421 461.069 828.467 460.406 833.169 458.326C837.774 456.29 842.11 452.136 843.827 446.135L812.015 437.033ZM847.357 435.52C844.439 428.227 837.603 423.842 830.444 423.599C822.746 423.338 814.589 428.034 812.015 437.033L843.827 446.135C841.831 453.112 835.321 456.872 829.321 456.669C823.859 456.483 818.771 453.15 816.635 447.809L847.357 435.52ZM845.757 437.777C848.038 439.394 849.803 441.636 850.841 444.23L820.119 456.518C821.446 459.836 823.702 462.701 826.619 464.769L845.757 437.777ZM823.098 446.768C825.255 436.142 837.453 431.889 845.757 437.777L826.619 464.769C837.286 472.332 852.792 466.814 855.526 453.35L823.098 446.768ZM864.907 394.913C856.321 381.855 835.282 382.941 829.652 399.254L860.93 410.049C857.069 421.238 842.866 421.619 837.259 413.091L864.907 394.913ZM862.215 410.199C865.856 406.426 871.987 404.827 877.569 407.616L862.782 437.217C871.013 441.328 880.331 439.078 886.027 433.174L862.215 410.199ZM863.051 423.832C860.073 417.877 861.414 410.564 866.534 406.071L888.358 430.943C894.659 425.415 896.326 416.393 892.646 409.033L863.051 423.832ZM907.152 388.639C903.608 378.007 889.676 370.113 877.484 378.643L896.454 405.755C887.561 411.976 878.031 405.914 875.761 399.102L907.152 388.639ZM898.518 392.999C903.878 392.999 909.697 396.276 911.822 402.651L880.432 413.114C883.233 421.518 891.019 426.087 898.518 426.087V392.999ZM906.776 400.138C911.709 396.945 917.696 397.189 922.159 399.904L904.963 428.174C910.784 431.715 918.484 431.973 924.751 427.918L906.776 400.138ZM934.499 421.436C940.029 404.848 921.582 390.557 906.902 400.056L924.877 427.836C913.297 435.329 898.747 424.057 903.109 410.972L934.499 421.436ZM930.239 405.842C934.606 409.634 936.389 415.768 934.499 421.436L903.109 410.972C900.708 418.176 902.957 425.975 908.546 430.827L930.239 405.842ZM913.556 776.958C911.05 783.179 905.04 787.113 898.518 787.113V754.025C891.726 754.025 885.473 758.121 882.865 764.593L913.556 776.958ZM872.793 798.785C879.403 806.157 888.488 806.137 893.8 804.685C899.131 803.227 906.295 798.888 908.751 790.185L876.905 781.199C878.509 775.517 882.862 773.372 885.072 772.768C887.263 772.169 892.916 771.662 897.43 776.696L872.793 798.785ZM820.798 769.518C816.055 784.142 832.051 796.786 845.185 788.79L827.979 760.527C841.063 752.562 856.998 765.158 852.273 779.726L820.798 769.518ZM828.139 648.648C824.354 651.961 818.399 653.118 813.069 650.408C807.469 647.559 804.711 641.499 805.622 635.952L838.273 641.312C839.644 632.959 835.603 624.746 828.069 620.914C820.806 617.22 812.269 618.564 806.344 623.75L828.139 648.648ZM773.196 630.396C758.094 641.919 766.244 666.032 785.239 666.032V632.944C797.903 632.944 803.336 649.019 793.268 656.701L773.196 630.396ZM805.121 630.103C796.302 625.765 795.12 613.667 802.934 607.704L823.006 634.009C834.727 625.065 832.954 606.918 819.725 600.411L805.121 630.103ZM805.139 590.089C786.189 593.368 782.504 618.979 799.762 627.467L814.365 597.775C825.87 603.433 823.413 620.507 810.78 622.693L805.139 590.089ZM806.379 610.181C799.696 602.384 804.052 590.277 814.171 588.526L819.813 621.13C834.991 618.504 841.526 600.343 831.502 588.648L806.379 610.181ZM796.282 557.787C783.527 562.747 779.498 578.82 788.404 589.21L813.526 567.676C819.464 574.603 816.777 585.319 808.274 588.625L796.282 557.787ZM806.234 568.99C803.036 562.063 806.343 553.874 813.454 551.109L825.446 581.947C836.113 577.799 841.073 565.516 836.277 555.124L806.234 568.99ZM798.422 548.286C796.556 546.877 795.2 545.085 794.352 543.246L824.395 529.38C823.091 526.556 821.087 523.936 818.354 521.874L798.422 548.286ZM197.1 530.006C196.605 532.317 195.522 534.389 194.011 536.071L169.391 513.964C167.113 516.501 165.482 519.637 164.746 523.073L197.1 530.006ZM195.467 535.314C196.082 533.983 196.547 532.588 196.854 531.154L164.5 524.221C164.705 523.265 165.015 522.335 165.424 521.448L195.467 535.314ZM187.194 549.137C187.383 551.399 186.987 553.689 186.022 555.779L155.979 541.913C154.533 545.046 153.935 548.486 154.22 551.893L187.194 549.137ZM179.78 552.234C184.666 554.135 187.923 558.711 188.194 563.861L155.151 565.596C155.558 573.356 160.464 580.225 167.787 583.073L179.78 552.234ZM198.391 587.832C207.296 577.442 203.267 561.368 190.513 556.408L178.52 587.247C170.017 583.94 167.331 573.225 173.268 566.298L198.391 587.832ZM188.86 594.168C188.834 597.266 187.72 600.281 185.675 602.666L160.552 581.133C157.488 584.707 155.81 589.235 155.772 593.9L188.86 594.168ZM182.727 595.015C186.562 597.572 188.758 601.909 188.611 606.445L155.54 605.369C155.317 612.202 158.626 618.715 164.373 622.546L182.727 595.015ZM174.548 632.781C193.968 632.781 201.595 607.593 185.436 596.821L167.081 624.352C156 616.965 161.23 599.692 174.548 599.692V632.781ZM188.088 618.194C187.627 626.349 180.883 632.781 172.652 632.781V599.692C163.27 599.692 155.578 607.024 155.052 616.326L188.088 618.194ZM182.346 605.277C186.234 608.406 188.369 613.217 188.088 618.194L155.052 616.326C154.731 622.001 157.166 627.486 161.599 631.053L182.346 605.277ZM196.197 664.582C216.602 668.789 228.884 642.735 212.654 629.672L191.907 655.448C181.087 646.74 189.275 629.371 202.878 632.175L196.197 664.582ZM179.873 660.076C181.79 661.226 183.889 662.045 186.079 662.496L192.76 630.089C194.22 630.39 195.619 630.935 196.897 631.702L179.873 660.076ZM185.02 641.798C185.605 643.678 185.742 645.571 185.53 647.337L152.678 643.386C152.356 646.062 152.569 648.877 153.427 651.631L185.02 641.798ZM180.244 680.135C179.097 685.719 173.918 691.067 166.527 690.784L167.794 657.719C157.345 657.319 149.594 664.897 147.832 673.479L180.244 680.135ZM156.835 757.931C166.322 764.348 176.671 760.8 182.041 755.53C187.373 750.298 191.052 740.244 185.207 730.701L156.99 747.982C153.055 741.557 155.751 734.97 158.866 731.913C162.019 728.819 168.917 726.155 175.375 730.524L156.835 757.931ZM160.002 742.117C156.572 748.974 147.667 751.729 140.83 747.104L159.37 719.697C149.164 712.793 135.659 716.821 130.41 727.314L160.002 742.117ZM156.736 739.589C157.927 743.261 157.428 747.141 155.602 750.282L126.996 733.653C124.209 738.447 123.481 744.308 125.262 749.797L156.736 739.589ZM136.407 783.881C151.596 794.723 169.609 779.281 164.429 763.308L132.954 773.516C131.005 767.505 133.186 760.958 138.15 757.219C143.193 753.421 150.306 753.148 155.631 756.95L136.407 783.881ZM135.804 774.893C133.475 776.857 129.71 778.525 125.158 777.827L130.17 745.121C123.798 744.144 118.213 746.445 114.477 749.595L135.804 774.893ZM112.859 783.663C109.89 786.356 106.425 787.167 103.75 787.1L104.58 754.022C100.133 753.91 94.9149 755.268 90.6324 759.152L112.859 783.663ZM74.6237 778.076C78.2123 794.142 98.3663 799.106 109.204 787.316L84.8427 764.924C91.7868 757.369 104.582 760.411 106.917 770.863L74.6237 778.076ZM80.5157 405.06C65.8071 401.05 52.2546 414.427 56.0731 429.187L88.107 420.899C90.6527 430.739 81.6177 439.657 71.812 436.984L80.5157 405.06ZM69.8024 408.89C72.9094 405.823 77.671 404.285 82.4817 405.596L73.7781 437.52C80.9409 439.472 88.2057 437.218 93.0477 432.438L69.8024 408.89ZM73.1101 412.257C73.1101 407.514 75.5724 403.629 78.7892 401.439L97.4093 428.791C102.529 425.306 106.199 419.301 106.199 412.257H73.1101ZM76.5892 399.341C74.323 402.646 73.1101 406.56 73.1101 410.568H106.199C106.199 413.239 105.39 415.849 103.879 418.052L76.5892 399.341ZM854.345 742.813C843.914 749.869 830.454 739.746 834.339 727.767L865.814 737.975C871.641 720.007 851.451 704.822 835.805 715.406L854.345 742.813ZM113.724 379.035C103.721 372.417 92.0863 376.738 86.8205 384.419L114.111 403.13C110.714 408.084 102.715 411.426 95.4681 406.632L113.724 379.035ZM186.14 641.984C185.123 651.413 174.615 656.921 166.207 651.876L183.231 623.503C170.651 615.955 154.783 624.166 153.243 638.432L186.14 641.984ZM116.206 402.434C122.071 398.11 128.501 399.759 131.864 402.157L112.653 429.097C118.271 433.103 127.747 435.034 135.84 429.067L116.206 402.434ZM76.9532 777.37C75.4851 776.285 73.971 774.674 72.9014 772.47L102.67 758.023C101.139 754.868 98.934 752.47 96.6158 750.757L76.9532 777.37ZM172.63 691.562C188.513 694.564 202.374 677.793 194.14 662.383L164.956 677.977C159.48 667.728 168.642 657.134 178.774 659.049L172.63 691.562ZM794.422 669.559C787.534 683.118 798.387 700.735 815.188 697.842L809.573 665.233C821.403 663.196 828.526 675.482 823.923 684.544L794.422 669.559ZM157.142 397.876C151.512 381.562 130.473 380.476 121.887 393.535L149.535 411.713C143.928 420.241 129.725 419.859 125.864 408.671L157.142 397.876ZM801.585 732.083C795.738 741.629 799.422 751.686 804.759 756.917C810.133 762.184 820.479 765.722 829.959 759.309L811.419 731.903C817.871 727.538 824.765 730.194 827.92 733.287C831.04 736.344 833.74 742.935 829.802 749.364L801.585 732.083ZM119.797 395.704C125.606 397.839 128.437 403.422 127.905 408.575L94.9917 405.177C94.0748 414.06 99.0558 423.335 108.385 426.763L119.797 395.704ZM57.0199 432.846C56.0487 429.092 56.791 425.167 58.9087 422.081L86.1894 440.806C89.4123 436.111 90.5141 430.203 89.0538 424.558L57.0199 432.846ZM170.94 704.311C172.326 707.431 172.411 710.823 171.437 713.807L139.981 703.541C138.502 708.072 138.654 713.138 140.701 717.745L170.94 704.311ZM800.817 666.032C805.627 666.032 810.274 664.286 813.893 661.117L792.099 636.22C794.512 634.108 797.61 632.944 800.817 632.944V666.032ZM129.258 439.387C130.999 455.764 149.975 462.134 161.609 452.361L140.328 427.024C148.004 420.577 160.967 424.653 162.161 435.89L129.258 439.387Z" fill="#181414" mask="url(#path-1-outside-1_400_252)"/>
<path d="M54.1162 533.88C54.1162 531.514 67.32 488.521 72.7997 468.556C74.1406 463.671 77.3651 459.483 81.8424 457.112C90.6949 452.426 101.763 456.187 105.232 465.584C105.69 466.825 106.112 468.016 106.479 469.116C108.684 475.73 111.991 508.618 113.369 524.234C116.125 541.229 121.636 575.77 121.636 577.975C121.636 579.656 118.434 610.802 115.69 637.111C114.167 651.721 109.534 665.836 101.957 678.42C91.7482 695.378 80.4767 713.615 78.9195 714.393C77.5884 715.059 73.5112 708.056 69.4782 700.177C64.5451 690.54 61.7749 679.974 60.5794 669.215L54.1162 611.046V533.88Z" fill="#504444"/>
<path d="M948.415 528.368C948.415 526.002 935.211 483.009 929.732 463.045C928.391 458.159 925.166 453.971 920.689 451.601C911.836 446.914 900.769 450.675 897.3 460.072C896.842 461.313 896.419 462.504 896.052 463.604C893.848 470.218 890.541 503.106 889.163 518.723C886.407 535.718 880.895 570.259 880.895 572.463C880.895 574.465 885.437 618.255 888.336 645.9C888.88 651.083 890.525 656.08 893.188 660.561C904.442 679.494 921.66 707.906 923.612 708.882C925.477 709.814 932.732 695.692 937.704 685.202C939.35 681.73 940.363 677.999 940.788 674.181L948.415 605.534V528.368Z" fill="#504444"/>
<path d="M121.638 564.195C120.535 566.4 136.795 569.248 147.819 569.707C344.041 273.17 763.768 473.226 845.068 568.305H867.115L882.273 540.77L886.407 489.785C546.05 210.083 222.688 347.396 109.236 481.517V522.856L121.638 564.195Z" fill="#9D9D9D"/>
<path d="M302.282 419.522C293.791 421.481 136.796 531.124 131.284 532.502C102.065 539.807 130.349 482.687 155.519 466.148C195.862 439.641 242.698 408.994 248.41 405.73C258.056 400.218 335.222 364.391 342.112 364.391C344.681 364.391 369.303 361.597 400.211 357.962C471.112 349.625 542.898 354.506 612.288 371.278C632.374 376.133 647.272 379.548 649.398 379.548C654.396 379.548 733.038 412.027 782.589 432.809C792.061 436.782 801.017 441.879 809.286 447.972L868.231 491.405C872.602 494.626 874.737 500.069 873.721 505.402C871.867 515.136 860.818 519.976 852.406 514.738L801.16 482.83C798.286 481.04 795.254 479.517 792.102 478.28L670.923 430.721C585.25 397.096 492.638 384.061 401.995 400.017C360.13 407.386 322.615 414.83 302.282 419.522Z" fill="#ADADAD"/>
</svg>
