<svg width="1001" height="1001" viewBox="0 0 1001 1001" fill="none" xmlns="http://www.w3.org/2000/svg">
<ellipse cx="493.99" cy="468.855" rx="213.604" ry="270.736" fill="#E6E6E6"/>
<path d="M434.17 245.334C464.449 305.74 393.214 372.502 357.959 395.681L350.763 582.57C331.191 630.349 290.492 718.942 275.777 723.72C257.384 729.692 178.147 679.372 176.732 669.987C175.6 662.478 67.1985 519.075 10.7202 443.425C32.4154 360.665 75.4706 190.867 81.6962 184.382C89.4782 176.277 291.3 123.832 299.436 123.832C307.572 123.832 396.321 169.826 434.17 245.334Z" fill="#E6E6E6"/>
<path d="M129.482 293.863C197.856 315.363 335.472 358.348 338.95 358.29C342.241 366.738 342.646 382.797 298.718 456.917C297.194 462.115 291.3 465.785 290.618 487.615C289.765 514.902 299.998 548.157 302.982 555.405C305.37 561.204 307.103 597.757 300.424 600.173L270.579 650.909L270.579 560.522L270.579 499.126L281.755 435.173C251.597 377.431 172.85 319.626 129.482 293.863Z" fill="#E6E6E6"/>
<path d="M557.676 244.531C526.921 304.938 599.67 369.944 635.48 393.122L643.088 580.565C662.969 628.344 703.528 721.749 718.475 726.526C737.159 732.499 826.509 671.352 827.947 661.966C829.096 654.458 931.779 510.253 989.146 434.603C979.121 410.543 922.922 194.006 913.358 180.372C903.794 166.738 694.659 120.223 686.396 120.223C678.132 120.223 596.121 169.023 557.676 244.531Z" fill="#E6E6E6"/>
<path d="M317.052 617.228L328.563 533.662L374.61 569.902L430.036 655.173L576.702 652.189L615.501 563.507L667.09 529.398C668.369 553.132 670.16 608.104 667.09 626.181C664.02 644.259 612.09 690.277 586.509 711.026C559.222 720.122 489.726 735.072 430.036 722.111C370.346 709.15 329.416 646.93 317.052 617.228Z" fill="#E6E6E6"/>
<path d="M863.231 290.879C794.858 312.379 657.241 355.364 653.764 355.306C650.473 363.754 645.804 372.564 689.732 446.685C691.256 451.883 697.625 453.933 699.493 485.057C701.128 512.308 692.716 545.173 689.732 552.421C687.344 558.22 685.61 594.772 692.29 597.189L722.135 647.925L722.135 557.537L722.135 496.142L710.959 432.189C741.117 374.446 819.864 316.642 863.231 290.879Z" fill="#E6E6E6"/>
<path d="M604.842 504.361L622.749 508.933L657.711 505.966L676.47 520.871L652.929 437.744L577.628 451.978C568.232 469.402 549.024 504.593 547.36 505.966C545.696 507.339 570.138 505.468 582.567 504.361L604.842 504.361Z" fill="#E6E6E6"/>
<path d="M389.592 512.035L371.685 516.607L336.724 513.64L317.964 528.545L341.505 445.418L416.807 459.652C426.203 477.076 445.411 512.267 447.075 513.64C448.739 515.013 424.297 513.142 411.868 512.035L389.592 512.035Z" fill="#E6E6E6"/>
<circle cx="381.431" cy="496.142" r="27.7132" fill="#E6E6E6"/>
<circle cx="372.904" cy="485.057" r="16.6279" fill="#E6E6E6"/>
<circle cx="619.338" cy="496.142" r="27.7132" fill="#E6E6E6"/>
<circle cx="610.811" cy="485.057" r="16.6279" fill="#E6E6E6"/>
<path d="M477.377 872.777C445.08 856.604 438.441 797.461 428.931 768.128L391.251 656.345V602.118L428.931 582.516C482.329 522.391 584.316 602.276 608.718 627.329C612.845 685.678 575.883 758.615 575.883 780.496C575.883 800.754 557.043 852.798 528.514 877.533C500.523 878.96 494.069 881.135 477.377 872.777Z" fill="#E6E6E6"/>
<path d="M428.757 535.367C419.803 538.778 381.005 562.654 327.71 532.809C365.912 574.08 417.956 654.178 416.393 676.491L435.579 624.049C430.747 607.989 433.946 533.39 428.757 535.367Z" fill="#E6E6E6"/>
<path d="M589.067 537.925C592.819 533.832 610.385 549.437 670.501 528.545C632.299 569.816 580.256 654.178 581.819 676.491L562.633 624.049C567.465 607.99 585.315 542.018 589.067 537.925Z" fill="#E6E6E6"/>
<path d="M427.755 646.328C431.457 616.775 375.426 594.605 364.799 595.802C323.661 654.634 289.813 811.136 382.041 854.043C369.611 698.457 423.127 683.269 427.755 646.328Z" fill="#E6E6E6"/>
<path d="M581.837 639.225C578.135 609.672 603.99 588.189 614.617 589.386C647.01 609.789 738.925 789.482 614.617 860.859C633.129 697.19 586.465 676.166 581.837 639.225Z" fill="#E6E6E6"/>
<path d="M440.792 732.109C466.049 692.345 524.219 639.079 562.633 733.623C526.647 668.041 466.412 705.288 440.792 732.109Z" fill="#E6E6E6"/>
<path d="M432.357 690.179C460.07 646.567 523.895 588.146 566.044 691.84C526.559 619.911 460.467 660.762 432.357 690.179Z" fill="#E6E6E6"/>
<path d="M457.636 767.435C477.28 737.292 522.523 696.913 552.401 768.583C524.412 718.868 477.562 747.103 457.636 767.435Z" fill="#E6E6E6"/>
<path d="M467.21 802.935C483.562 777.296 520.331 743.477 541.586 806.568C521.138 762.602 483.482 785.827 467.21 802.935Z" fill="#E6E6E6"/>
<path d="M466.547 831.691C482.487 808.297 518.709 777.279 540.968 834.191C519.821 794.591 482.543 816.024 466.547 831.691Z" fill="#E6E6E6"/>
<path d="M466.857 847.595C482.292 862.346 517.84 882.106 541.315 847.033C519.324 871.362 482.513 857.545 466.857 847.595Z" fill="#E6E6E6"/>
<path d="M478.61 863.601C489.134 873.221 513.371 886.108 529.377 863.235C514.383 879.101 489.285 870.09 478.61 863.601Z" fill="#E6E6E6"/>
<path d="M472.245 843.241C478.641 843.241 507.207 830.669 536.199 843.241C520.168 850.109 486.884 846.102 472.245 843.241Z" fill="#E6E6E6"/>
<path d="M69.3386 376.336C69.3386 372.243 42.9045 416.129 29.6875 438.584C29.6875 447.395 33.0983 462.033 46.7417 450.095C63.796 435.173 69.3386 381.452 69.3386 376.336Z" fill="#E6E6E6"/>
<path d="M103.873 376.336L69.3386 477.809C66.6384 481.504 65.9278 493.498 84.6875 511.917C103.447 530.336 105.295 429.204 103.873 376.336Z" fill="#E6E6E6"/>
<path d="M155.463 600.599C149.636 594.914 137.982 582.351 137.982 577.576C146.367 573.17 165.354 553.87 174.222 511.917C181.385 551.824 164.7 587.666 155.463 600.599Z" fill="#E6E6E6"/>
<path d="M926.775 356.138C926.775 352.045 953.209 395.932 966.426 418.387C966.426 427.198 963.015 441.836 949.372 429.898C932.317 414.976 926.775 361.255 926.775 356.138Z" fill="#E6E6E6"/>
<path d="M892.24 356.138L926.775 457.611C929.475 461.306 930.186 473.301 911.426 491.72C892.666 510.138 890.819 409.007 892.24 356.138Z" fill="#E6E6E6"/>
<path d="M840.651 580.402C846.478 574.717 858.131 562.154 858.131 557.379C849.746 552.973 830.759 533.673 821.891 491.72C814.728 531.627 831.413 567.469 840.651 580.402Z" fill="#E6E6E6"/>
<path d="M315.772 446.258C315.061 469.708 314.749 518.313 319.183 525.134L342.206 446.258L419.377 459.902L436.004 421.53L416.392 407.886L363.95 392.538L315.772 446.258Z" fill="#E6E6E6"/>
<path d="M679.028 437.731C679.739 461.181 680.052 509.786 675.617 516.607L652.594 437.731L575.424 451.375L543.873 437.731L557.091 396.801L630.85 384.01L679.028 437.731Z" fill="#E6E6E6"/>
<ellipse cx="494.319" cy="470.692" rx="200.898" ry="254.631" fill="#858585"/>
<path d="M430.256 265.455C458.734 322.268 399.538 380.07 366.38 401.87L344.423 565.97C326.015 610.907 285.738 701.904 271.898 706.398C254.599 712.015 192.387 666.677 191.056 657.85C189.991 650.788 83.4878 506.723 30.3691 435.573C50.7738 357.736 93.0469 200.537 98.9022 194.438C106.221 186.815 298.846 139.07 306.497 139.07C314.149 139.07 394.659 194.438 430.256 265.455Z" fill="#858585"/>
<path d="M158.687 513.599C162.029 448.905 166.707 317.512 158.687 309.492L303.446 388.889C299.436 450.91 291.416 576.956 291.416 584.976C291.416 592.995 284.198 630.555 284.198 640.313L158.687 513.599Z" fill="#7C7C7C"/>
<path d="M151.494 306.109C215.801 326.33 345.231 366.758 348.502 366.704C351.596 374.649 351.978 389.753 310.663 459.464C309.23 464.353 303.686 467.804 303.044 488.335C302.242 513.999 311.866 545.277 314.673 552.093C316.919 557.547 318.55 591.926 312.267 594.198L284.198 641.916L284.198 556.905L284.198 499.162L294.709 439.013C266.345 384.706 192.282 330.34 151.494 306.109Z" fill="#767676"/>
<path d="M562.512 263.049C533.586 319.862 593.713 377.664 627.393 399.464L649.696 563.564C668.395 608.501 709.306 699.498 723.363 703.991C740.936 709.609 804.127 664.27 805.479 655.444C806.56 648.382 914.741 504.317 968.696 433.167C947.97 355.33 905.031 198.131 899.084 192.032C891.649 184.409 695.992 136.664 688.219 136.664C680.447 136.664 598.67 192.032 562.512 263.049Z" fill="#858585"/>
<path d="M834.362 508.385C831.021 443.692 826.342 312.299 834.362 304.279L689.603 383.676C693.613 445.697 701.633 571.742 701.633 579.762C701.633 587.782 708.45 625.743 708.45 635.501L834.362 508.385Z" fill="#7C7C7C"/>
<path d="M327.907 610.238L338.734 531.643L382.041 565.727L434.171 645.926L572.113 643.119L608.603 559.712L657.123 527.633C658.326 549.955 660.011 601.656 657.123 618.659C654.236 635.661 605.395 678.941 581.336 698.456C555.672 707.011 490.31 721.073 434.171 708.882C378.032 696.692 339.536 638.174 327.907 610.238Z" fill="#767676"/>
<path d="M841.597 303.303C777.291 323.524 647.861 363.952 644.59 363.897C641.495 371.842 637.104 380.129 678.418 449.84C679.852 454.729 685.842 456.657 687.599 485.93C689.137 511.56 681.225 542.47 678.418 549.287C676.173 554.74 674.542 589.119 680.824 591.391L708.894 639.11L708.894 554.099L708.894 496.356L698.383 436.206C726.747 381.899 800.81 327.533 841.597 303.303Z" fill="#767676"/>
<path d="M598.578 504.085L615.42 508.385L648.302 505.595L665.945 519.613L643.805 441.431L572.982 454.819C564.145 471.206 546.08 504.304 544.515 505.595C542.95 506.886 565.938 505.126 577.627 504.085L598.578 504.085Z" fill="#6D6D6D"/>
<path d="M396.132 511.303L379.29 515.603L346.408 512.813L328.765 526.831L350.905 448.649L421.727 462.037C430.565 478.424 448.63 511.522 450.195 512.813C451.76 514.104 428.772 512.344 417.083 511.303L396.132 511.303Z" fill="#6D6D6D"/>
<circle cx="388.456" cy="496.355" r="26.0646" fill="black"/>
<circle cx="380.437" cy="485.93" r="15.6388" fill="#FDFDFD"/>
<circle cx="612.212" cy="496.355" r="26.0646" fill="black"/>
<circle cx="604.192" cy="485.93" r="15.6388" fill="#FDFDFD"/>
<path d="M432.967 533.247C424.546 536.455 388.056 558.911 337.932 530.841C373.861 569.657 422.809 644.991 421.338 665.976L439.383 616.654C434.839 601.55 437.847 531.388 432.967 533.247Z" fill="#7C7C7C"/>
<path d="M583.741 535.653C587.27 531.803 603.791 546.48 660.331 526.831C624.402 565.647 575.454 644.991 576.924 665.976L558.88 616.654C563.424 601.55 580.212 539.502 583.741 535.653Z" fill="#7C7C7C"/>
<path d="M422.925 630.927C426.407 603.132 394.442 587.459 384.447 588.584C345.757 643.917 299.309 778.685 371.66 831.186C354.25 677.252 418.573 665.671 422.925 630.927Z" fill="#B7B2B2"/>
<path d="M576.941 630.928C573.459 603.133 598.206 586.657 608.201 587.783C646.892 643.115 700.557 778.685 628.206 831.186C645.617 677.252 581.294 665.671 576.941 630.928Z" fill="#B7B2B2"/>
<path d="M480.806 857.651C453.505 844.018 447.894 794.161 439.855 769.433L408.004 675.199V629.486L439.855 612.961C484.992 562.276 571.203 629.619 591.83 650.738C595.319 699.927 564.074 761.413 564.074 779.858C564.074 796.936 548.149 840.81 524.033 861.661C500.372 862.864 494.916 864.698 480.806 857.651Z" fill="#858585"/>
<path d="M436.774 718.285C463.728 680.886 525.808 630.789 566.804 719.709C528.399 658.028 464.115 693.059 436.774 718.285Z" fill="#7E7E7E"/>
<path d="M427.773 678.85C457.348 637.832 525.463 582.887 570.445 680.412C528.306 612.762 457.772 651.183 427.773 678.85Z" fill="#7E7E7E"/>
<path d="M454.749 751.511C475.714 723.161 523.998 685.184 555.884 752.591C526.013 705.833 476.015 732.389 454.749 751.511Z" fill="#7E7E7E"/>
<path d="M464.967 784.899C482.419 760.785 521.659 728.978 544.343 788.316C522.52 746.965 482.333 768.809 464.967 784.899Z" fill="#7E7E7E"/>
<path d="M464.259 811.943C481.271 789.942 519.928 760.769 543.684 814.295C521.115 777.051 481.331 797.209 464.259 811.943Z" fill="#7E7E7E"/>
<path d="M464.59 826.902C481.062 840.776 519 859.361 544.053 826.374C520.583 849.256 481.298 836.26 464.59 826.902Z" fill="#7E7E7E"/>
<path d="M477.133 841.956C488.364 851.004 514.231 863.124 531.313 841.612C515.311 856.534 488.526 848.059 477.133 841.956Z" fill="#7E7E7E"/>
<path d="M470.341 822.807C477.166 822.807 507.652 810.983 538.593 822.807C521.484 829.267 485.963 825.498 470.341 822.807Z" fill="#7E7E7E"/>
<path d="M94.9292 383.676C94.9292 379.827 70.0675 421.102 57.6367 442.222C57.6367 450.509 60.8447 464.276 73.6765 453.048C89.7163 439.014 94.9292 388.488 94.9292 383.676Z" fill="#888888"/>
<path d="M127.41 383.676L94.9292 479.113C92.3896 482.588 91.7212 493.87 109.365 511.193C127.009 528.515 128.746 433.4 127.41 383.676Z" fill="#888888"/>
<path d="M175.93 594.599C170.45 589.253 159.489 577.437 159.489 572.946C167.375 568.802 185.233 550.65 193.574 511.193C200.31 548.726 184.618 582.436 175.93 594.599Z" fill="#888888"/>
<path d="M901.36 364.68C901.36 360.831 926.222 402.106 938.653 423.225C938.653 431.513 935.445 445.28 922.613 434.052C906.573 420.017 901.36 369.492 901.36 364.68Z" fill="#888888"/>
<path d="M868.88 364.68L901.36 460.117C903.9 463.592 904.568 474.873 886.924 492.196C869.281 509.519 867.543 414.404 868.88 364.68Z" fill="#888888"/>
<path d="M820.359 575.603C825.84 570.257 836.8 558.441 836.8 553.95C828.914 549.806 811.056 531.654 802.716 492.196C795.979 529.729 811.671 563.44 820.359 575.603Z" fill="#888888"/>
<path d="M326.704 449.439C326.035 471.494 325.741 517.207 329.912 523.623L351.565 449.439L424.145 462.271L439.784 426.182L421.338 413.35L372.016 398.914L326.704 449.439Z" fill="#8F8F8F"/>
<path d="M668.351 441.42C669.019 463.474 669.313 509.188 665.143 515.603L643.489 441.42L570.909 454.251L541.236 441.42L553.666 402.924L623.038 390.894L668.351 441.42Z" fill="#8F8F8F"/>
<path d="M121.795 214.858L281.391 169.144C301.975 179.971 366.723 211.971 419.333 253.353C476.755 218.707 553.399 238.917 582.538 253.353C624.241 225.284 697.623 169.144 715.267 169.144C732.911 169.144 823.134 199.62 866.041 214.858H771.005C739.193 238.383 673.403 286.154 664.742 289.042C653.915 292.651 620.231 296.661 606.597 296.661C531.211 260.972 460.636 253.353 375.625 307.888C371.407 310.594 320.288 287.839 305.05 296.661L224.45 231.298L121.795 214.858Z" fill="#959595"/>
</svg>
