<svg width="400" height="400" viewBox="0 0 400 400" fill="none" xmlns="http://www.w3.org/2000/svg">
<ellipse cx="197.212" cy="187.384" rx="85.3997" ry="108.241" fill="#E6E6E6"/>
<path d="M173.296 98.0194C185.402 122.17 156.922 148.862 142.827 158.129L139.95 232.847C132.125 251.95 115.854 287.369 109.971 289.28C102.617 291.667 70.9376 271.549 70.3719 267.797C69.9194 264.795 26.5802 207.462 4 177.217C12.6738 144.129 29.8874 76.2434 32.3764 73.651C35.4877 70.4104 116.177 49.4429 119.429 49.4429C122.682 49.4429 158.164 67.8312 173.296 98.0194Z" fill="#E6E6E6"/>
<path d="M51.4816 117.422C78.8175 126.018 133.837 143.203 135.227 143.18C136.543 146.557 136.705 152.978 119.143 182.611C118.533 184.69 116.177 186.157 115.904 194.884C115.563 205.794 119.654 219.089 120.847 221.987C121.802 224.305 122.495 238.919 119.824 239.885L107.892 260.17L107.892 224.033L107.892 199.487L112.36 173.918C100.303 150.832 68.8199 127.722 51.4816 117.422Z" fill="#E6E6E6"/>
<path d="M222.675 97.6988C210.378 121.849 239.464 147.839 253.781 157.106L256.823 232.046C264.771 251.148 280.987 288.492 286.962 290.402C294.432 292.79 330.155 268.343 330.729 264.59C331.189 261.589 372.242 203.935 395.177 173.69C391.17 164.071 368.701 77.4986 364.877 72.0478C361.054 66.597 277.441 48 274.137 48C270.833 48 238.045 67.5105 222.675 97.6988Z" fill="#E6E6E6"/>
<path d="M126.472 246.704L131.074 213.294L149.484 227.783L171.644 261.874L230.281 260.681L245.793 225.226L266.418 211.589C266.93 221.078 267.646 243.056 266.418 250.283C265.191 257.511 244.429 275.909 234.202 284.205C223.292 287.841 195.508 293.818 171.644 288.636C147.779 283.455 131.415 258.579 126.472 246.704Z" fill="#E6E6E6"/>
<path d="M344.837 116.229C317.501 124.824 262.481 142.01 261.091 141.987C259.775 145.364 257.908 148.887 275.471 178.52C276.08 180.599 278.626 181.418 279.373 193.861C280.027 204.757 276.664 217.896 275.471 220.794C274.516 223.112 273.823 237.726 276.494 238.692L288.426 258.977L288.426 222.839L288.426 198.293L283.958 172.725C296.015 149.639 327.498 126.529 344.837 116.229Z" fill="#E6E6E6"/>
<path d="M241.532 201.579L248.691 203.407L262.669 202.221L270.169 208.18L260.757 174.946L230.651 180.637C226.895 187.603 219.215 201.672 218.55 202.221C217.885 202.77 227.657 202.022 232.626 201.579L241.532 201.579Z" fill="#E6E6E6"/>
<path d="M155.474 204.647L148.315 206.475L134.337 205.289L126.837 211.248L136.249 178.014L166.354 183.705C170.111 190.671 177.79 204.74 178.456 205.289C179.121 205.838 169.349 205.09 164.38 204.647L155.474 204.647Z" fill="#E6E6E6"/>
<circle cx="152.211" cy="198.293" r="11.0798" fill="#E6E6E6"/>
<circle cx="148.802" cy="193.862" r="6.64788" fill="#E6E6E6"/>
<circle cx="247.327" cy="198.293" r="11.0798" fill="#E6E6E6"/>
<circle cx="243.918" cy="193.862" r="6.64788" fill="#E6E6E6"/>
<path d="M190.571 348.873C177.658 342.407 175.004 318.762 171.202 307.034L156.137 262.343V240.663L171.202 232.826C192.551 208.788 233.325 240.726 243.081 250.742C244.731 274.07 229.954 303.231 229.954 311.979C229.954 320.078 222.421 340.886 211.015 350.775C199.825 351.345 197.244 352.215 190.571 348.873Z" fill="#E6E6E6"/>
<path d="M171.132 213.976C167.553 215.339 152.041 224.885 130.734 212.953C146.007 229.453 166.814 261.477 166.189 270.397L173.86 249.431C171.928 243.01 173.207 213.185 171.132 213.976Z" fill="#E6E6E6"/>
<path d="M235.225 214.998C236.725 213.362 243.747 219.601 267.782 211.248C252.509 227.749 231.702 261.477 232.327 270.397L224.656 249.431C226.588 243.01 233.725 216.635 235.225 214.998Z" fill="#E6E6E6"/>
<path d="M170.731 258.338C172.212 246.523 149.81 237.659 145.561 238.138C129.115 261.659 115.582 324.229 152.455 341.383C147.485 279.179 168.881 273.107 170.731 258.338Z" fill="#E6E6E6"/>
<path d="M232.334 255.498C230.854 243.683 241.191 235.094 245.44 235.573C258.391 243.73 295.139 315.572 245.44 344.108C252.841 278.673 234.185 270.267 232.334 255.498Z" fill="#E6E6E6"/>
<path d="M175.944 292.633C186.042 276.736 209.298 255.44 224.656 293.239C210.269 267.019 186.187 281.91 175.944 292.633Z" fill="#E6E6E6"/>
<path d="M172.572 275.87C183.651 258.434 209.169 235.077 226.02 276.534C210.234 247.777 183.81 264.109 172.572 275.87Z" fill="#E6E6E6"/>
<path d="M182.678 306.757C190.532 294.706 208.62 278.562 220.565 307.216C209.375 287.34 190.645 298.629 182.678 306.757Z" fill="#E6E6E6"/>
<path d="M186.506 320.95C193.044 310.7 207.744 297.179 216.242 322.403C208.066 304.825 193.011 314.11 186.506 320.95Z" fill="#E6E6E6"/>
<path d="M186.241 332.447C192.614 323.094 207.095 310.693 215.995 333.446C207.54 317.614 192.636 326.183 186.241 332.447Z" fill="#E6E6E6"/>
<path d="M186.365 338.805C192.536 344.703 206.748 352.603 216.133 338.581C207.341 348.307 192.624 342.783 186.365 338.805Z" fill="#E6E6E6"/>
<path d="M191.064 345.205C195.271 349.051 204.961 354.203 211.361 345.058C205.366 351.402 195.332 347.799 191.064 345.205Z" fill="#E6E6E6"/>
<path d="M188.519 337.064C191.076 337.064 202.497 332.038 214.088 337.064C207.679 339.811 194.371 338.209 188.519 337.064Z" fill="#E6E6E6"/>
<path d="M27.4358 150.395C27.4358 148.758 16.8673 166.304 11.5831 175.281C11.5831 178.804 12.9468 184.657 18.4015 179.884C25.2198 173.918 27.4358 152.44 27.4358 150.395Z" fill="#E6E6E6"/>
<path d="M41.2429 150.395L27.4358 190.964C26.3562 192.441 26.0721 197.237 33.5723 204.6C41.0724 211.964 41.8111 171.531 41.2429 150.395Z" fill="#E6E6E6"/>
<path d="M61.8684 240.056C59.5388 237.783 54.8796 232.76 54.8796 230.851C58.2319 229.09 65.823 221.373 69.3685 204.6C72.2322 220.555 65.5616 234.885 61.8684 240.056Z" fill="#E6E6E6"/>
<path d="M370.241 142.32C370.241 140.683 380.81 158.229 386.094 167.206C386.094 170.729 384.73 176.582 379.275 171.809C372.457 165.843 370.241 144.365 370.241 142.32Z" fill="#E6E6E6"/>
<path d="M356.434 142.32L370.241 182.889C371.321 184.366 371.605 189.161 364.105 196.525C356.604 203.889 355.866 163.456 356.434 142.32Z" fill="#E6E6E6"/>
<path d="M335.809 231.981C338.138 229.708 342.797 224.685 342.797 222.776C339.445 221.014 331.854 213.298 328.308 196.525C325.445 212.48 332.115 226.81 335.809 231.981Z" fill="#E6E6E6"/>
<path d="M125.961 178.35C125.677 187.725 125.552 207.157 127.324 209.885L136.529 178.35L167.382 183.804L174.03 168.463L166.189 163.009L145.223 156.872L125.961 178.35Z" fill="#E6E6E6"/>
<path d="M271.191 174.941C271.476 184.316 271.601 203.748 269.828 206.475L260.623 174.941L229.77 180.395L217.156 174.941L222.44 158.577L251.93 153.463L271.191 174.941Z" fill="#E6E6E6"/>
<ellipse cx="197.344" cy="188.118" rx="80.3196" ry="101.802" fill="#858585"/>
<path d="M171.732 106.064C183.117 128.778 159.45 151.888 146.194 160.603L137.415 226.211C130.056 244.177 113.953 280.557 108.42 282.354C101.503 284.6 76.6307 266.474 76.0987 262.945C75.6731 260.121 33.0927 202.524 11.8557 174.078C20.0135 142.958 36.9145 80.1097 39.2554 77.6714C42.1816 74.6237 119.193 55.5349 122.253 55.5349C125.312 55.5349 157.5 77.6714 171.732 106.064Z" fill="#858585"/>
<path d="M63.1575 205.273C64.4935 179.408 66.3638 126.877 63.1575 123.67L121.032 155.413C119.429 180.209 116.223 230.603 116.223 233.809C116.223 237.016 113.337 252.032 113.337 255.933L63.1575 205.273Z" fill="#7C7C7C"/>
<path d="M60.2821 122.318C85.9919 130.402 137.739 146.566 139.046 146.544C140.283 149.72 140.436 155.759 123.918 183.629C123.345 185.584 121.129 186.964 120.872 195.172C120.552 205.433 124.399 217.938 125.521 220.663C126.419 222.843 127.071 236.588 124.56 237.497L113.337 256.574L113.337 222.587L113.337 199.501L117.54 175.453C106.2 153.741 76.5891 132.005 60.2821 122.318Z" fill="#767676"/>
<path d="M224.608 105.102C213.043 127.816 237.082 150.926 250.548 159.641L259.464 225.249C266.94 243.215 283.297 279.596 288.917 281.392C295.942 283.638 321.206 265.512 321.747 261.983C322.179 259.159 365.43 201.562 387.001 173.116C378.715 141.996 361.548 79.1477 359.17 76.7095C356.198 73.6617 277.973 54.5729 274.866 54.5729C271.759 54.5729 239.064 76.7095 224.608 105.102Z" fill="#858585"/>
<path d="M333.295 203.188C331.959 177.324 330.088 124.793 333.295 121.586L275.42 153.329C277.023 178.125 280.229 228.519 280.229 231.725C280.229 234.931 282.955 250.108 282.955 254.009L333.295 203.188Z" fill="#7C7C7C"/>
<path d="M130.812 243.909L135.141 212.487L152.455 226.114L173.297 258.178L228.446 257.055L243.035 223.709L262.434 210.884C262.915 219.808 263.588 240.478 262.434 247.276C261.28 254.074 241.753 271.377 232.134 279.179C221.873 282.6 195.741 288.221 173.297 283.348C150.852 278.474 135.461 255.078 130.812 243.909Z" fill="#767676"/>
<path d="M336.187 121.196C310.477 129.28 258.731 145.443 257.423 145.422C256.186 148.598 254.43 151.911 270.948 179.782C271.521 181.737 273.916 182.507 274.618 194.211C275.233 204.458 272.07 216.815 270.948 219.541C270.05 221.721 269.398 235.466 271.91 236.374L283.132 255.452L283.132 221.465L283.132 198.379L278.93 174.331C290.27 152.619 319.88 130.883 336.187 121.196Z" fill="#767676"/>
<path d="M239.027 201.469L245.761 203.188L258.907 202.073L265.961 207.677L257.109 176.42L228.794 181.772C225.261 188.324 218.038 201.557 217.413 202.073C216.787 202.589 225.978 201.885 230.651 201.469L239.027 201.469Z" fill="#6D6D6D"/>
<path d="M158.089 204.355L151.355 206.074L138.209 204.958L131.155 210.563L140.007 179.306L168.322 184.658C171.855 191.21 179.078 204.442 179.703 204.958C180.329 205.475 171.138 204.771 166.465 204.355L158.089 204.355Z" fill="#6D6D6D"/>
<circle cx="155.02" cy="198.379" r="10.4207" fill="black"/>
<circle cx="151.814" cy="194.21" r="6.25243" fill="#FDFDFD"/>
<circle cx="244.478" cy="198.379" r="10.4207" fill="black"/>
<circle cx="241.272" cy="194.21" r="6.25243" fill="#FDFDFD"/>
<path d="M172.816 213.128C169.449 214.411 154.86 223.389 134.82 212.166C149.185 227.685 168.754 257.804 168.166 266.194L175.381 246.474C173.564 240.436 174.767 212.385 172.816 213.128Z" fill="#7C7C7C"/>
<path d="M233.095 214.09C234.506 212.551 241.111 218.419 263.716 210.563C249.352 226.082 229.782 257.804 230.37 266.194L223.156 246.474C224.973 240.436 231.685 215.629 233.095 214.09Z" fill="#7C7C7C"/>
<path d="M168.801 252.181C170.193 241.068 157.413 234.802 153.417 235.252C137.948 257.374 119.379 311.255 148.305 332.245C141.344 270.702 167.06 266.072 168.801 252.181Z" fill="#B7B2B2"/>
<path d="M230.377 252.181C228.985 241.068 238.879 234.481 242.875 234.932C258.343 257.054 279.799 311.255 250.873 332.245C257.834 270.702 232.117 266.072 230.377 252.181Z" fill="#B7B2B2"/>
<path d="M191.942 342.826C181.027 337.375 178.783 317.442 175.569 307.556L162.835 269.881V251.605L175.569 244.998C193.615 224.734 228.083 251.658 236.329 260.102C237.724 279.767 225.233 304.349 225.233 311.724C225.233 318.552 218.865 336.093 209.224 344.429C199.764 344.91 197.583 345.643 191.942 342.826Z" fill="#858585"/>
<path d="M174.338 287.107C185.114 272.155 209.934 252.126 226.324 287.676C210.97 263.016 185.269 277.022 174.338 287.107Z" fill="#7E7E7E"/>
<path d="M170.739 271.341C182.563 254.942 209.795 232.974 227.779 271.965C210.932 244.918 182.732 260.279 170.739 271.341Z" fill="#7E7E7E"/>
<path d="M181.524 300.391C189.906 289.056 209.21 273.873 221.958 300.822C210.016 282.128 190.026 292.745 181.524 300.391Z" fill="#7E7E7E"/>
<path d="M185.609 313.74C192.586 304.099 208.275 291.382 217.344 315.106C208.619 298.573 192.552 307.307 185.609 313.74Z" fill="#7E7E7E"/>
<path d="M185.326 324.552C192.127 315.755 207.582 304.092 217.08 325.492C208.057 310.602 192.151 318.661 185.326 324.552Z" fill="#7E7E7E"/>
<path d="M185.459 330.532C192.044 336.079 207.212 343.509 217.228 330.321C207.845 339.469 192.139 334.274 185.459 330.532Z" fill="#7E7E7E"/>
<path d="M190.473 336.551C194.964 340.168 205.305 345.014 212.134 336.413C205.737 342.379 195.028 338.991 190.473 336.551Z" fill="#7E7E7E"/>
<path d="M187.758 328.895C190.486 328.895 202.675 324.168 215.045 328.895C208.205 331.478 194.003 329.971 187.758 328.895Z" fill="#7E7E7E"/>
<path d="M37.667 153.329C37.667 151.79 27.7272 168.292 22.7573 176.736C22.7573 180.049 24.0399 185.553 29.1701 181.064C35.5828 175.453 37.667 155.253 37.667 153.329Z" fill="#888888"/>
<path d="M50.6528 153.329L37.667 191.485C36.6516 192.875 36.3844 197.385 43.4384 204.311C50.4924 211.236 51.1872 173.209 50.6528 153.329Z" fill="#888888"/>
<path d="M70.0513 237.657C67.8603 235.519 63.4783 230.795 63.4783 229C66.6312 227.343 73.7707 220.086 77.1053 204.311C79.7987 219.316 73.5249 232.794 70.0513 237.657Z" fill="#888888"/>
<path d="M360.08 145.735C360.08 144.195 370.02 160.698 374.99 169.141C374.99 172.454 373.707 177.959 368.577 173.47C362.165 167.859 360.08 147.658 360.08 145.735Z" fill="#888888"/>
<path d="M347.095 145.735L360.08 183.89C361.096 185.28 361.363 189.79 354.309 196.716C347.255 203.642 346.56 165.614 347.095 145.735Z" fill="#888888"/>
<path d="M327.696 230.062C329.887 227.925 334.269 223.2 334.269 221.405C331.116 219.748 323.977 212.491 320.642 196.716C317.949 211.722 324.222 225.199 327.696 230.062Z" fill="#888888"/>
<path d="M130.331 179.622C130.064 188.439 129.946 206.715 131.614 209.28L140.271 179.622L169.288 184.752L175.541 170.323L168.166 165.193L148.447 159.421L130.331 179.622Z" fill="#8F8F8F"/>
<path d="M266.923 176.415C267.19 185.233 267.307 203.509 265.64 206.074L256.983 176.415L227.965 181.545L216.102 176.415L221.072 161.025L248.807 156.215L266.923 176.415Z" fill="#8F8F8F"/>
<path d="M48.4082 85.8351L112.215 67.5588C120.445 71.8874 146.331 84.6808 167.365 101.226C190.322 87.3742 220.964 95.4542 232.614 101.226C249.287 90.0034 278.626 67.5588 285.68 67.5588C292.734 67.5588 328.805 79.743 345.96 85.8351H307.964C295.245 95.2405 268.943 114.34 265.48 115.494C261.151 116.937 247.684 118.54 242.233 118.54C212.094 104.272 183.877 101.226 149.89 123.029C148.204 124.111 127.766 115.013 121.674 118.54L89.4498 92.4082L48.4082 85.8351Z" fill="#959595"/>
</svg>
