<svg width="400" height="400" viewBox="0 0 400 400" fill="none" xmlns="http://www.w3.org/2000/svg">
<g clip-path="url(#clip0_323_84)">
<path d="M354.35 276.635C387.991 318.98 347.286 385.186 327.913 392.113C202.899 335.667 -31.6342 146.215 78.723 3.83214C196.037 265.476 312.299 223.703 354.35 276.635Z" fill="#E6E6E6"/>
<path d="M335.884 280.398C365.809 318.066 339.958 361.311 322.726 367.473C211.522 317.263 5.93078 162.157 77.7244 29.4299C183.795 266.669 298.478 233.314 335.884 280.398Z" fill="#B7B2B2"/>
<path d="M102 191.5C208 292.3 299.167 289.167 331 275.5C374 319.5 331.116 370.599 322 366.5C247.5 333 141.5 256.5 102 191.5Z" fill="#A7A1A1"/>
</g>
<defs>
<clipPath id="clip0_323_84">
<rect width="400" height="400" fill="white"/>
</clipPath>
</defs>
</svg>
