<svg width="1001" height="1001" viewBox="0 0 1001 1001" fill="none" xmlns="http://www.w3.org/2000/svg">
<g clip-path="url(#clip0_323_84)">
<path d="M887.112 692.109C971.256 798.025 869.442 963.62 820.988 980.946C508.299 839.763 -78.3243 365.898 197.705 9.76632C491.134 664.199 781.932 559.714 887.112 692.109Z" fill="#E6E6E6"/>
<path d="M840.924 701.522C915.773 795.738 851.115 903.905 808.013 919.317C529.867 793.73 15.6346 405.773 195.207 73.7921C460.515 667.182 747.364 583.753 840.924 701.522Z" fill="#B7B2B2"/>
<path d="M255.926 479.167C521.057 731.292 749.086 723.454 828.709 689.271C936.262 799.325 829 927.136 806.198 916.883C619.856 833.092 354.725 641.747 255.926 479.167Z" fill="#A7A1A1"/>
</g>
<defs>
<clipPath id="clip0_323_84">
<rect width="1000" height="1000" fill="white" transform="translate(0.800293 0.181152)"/>
</clipPath>
</defs>
</svg>
