<svg width="1001" height="1001" viewBox="0 0 1001 1001" fill="none" xmlns="http://www.w3.org/2000/svg">
<mask id="path-1-outside-1_428_920" maskUnits="userSpaceOnUse" x="7.27246" y="197.272" width="986" height="723" fill="black">
<rect fill="white" x="7.27246" y="197.272" width="986" height="723"/>
<path d="M688.926 489.866C688.926 638.758 593.696 759.459 476.223 759.459C358.751 759.459 263.521 638.758 263.521 489.866C263.521 340.974 358.751 220.272 476.223 220.272C593.696 220.272 688.926 340.974 688.926 489.866Z"/>
<path d="M388.378 328.144C435.42 376.252 394.367 453.634 367.961 486.312L398.744 658.879C394.673 710.132 383.404 814.887 370.897 823.882C355.263 835.126 277.904 809.47 273.715 800.998C270.364 794.22 116.497 683.289 39.9829 628.67C35.4557 543.595 27.3858 371.436 31.3235 363.397C36.2457 353.349 215.097 243.075 222.813 240.607C230.53 238.14 329.576 268.009 388.378 328.144Z"/>
<path d="M222.629 654.789C205.133 588.471 167.474 454.461 156.8 448.96L328.388 482.339C344.347 546.176 376.912 675.873 379.499 683.96C382.085 692.048 386.92 732.252 390.067 742.092L222.629 654.789Z"/>
<path d="M648.831 286.989C586.797 313.595 210.193 259.424 222.813 299.982L238.062 646.527C222.815 695.752 472.429 741.487 480.818 754.67C491.304 771.148 573.432 777.099 580.514 770.835C586.18 765.824 771.815 721.961 863.924 700.656C899.82 623.296 971.435 466.328 970.731 457.337C969.851 446.097 843.062 274.653 836.74 269.386C830.418 264.118 726.374 253.73 648.831 286.989Z"/>
<path d="M703.677 670.794C744.806 615.907 830.052 505.862 842.011 504.774L670.452 471.244C631.68 524.41 552.775 632.371 547.339 638.895C541.904 645.418 521.721 680.915 515.108 688.852L703.677 670.794Z"/>
<path d="M300.033 637.611L311.496 554.398L357.348 590.486L412.54 675.397L558.587 672.425L597.222 584.117L648.594 550.153C649.867 573.786 651.65 628.526 648.594 646.527C645.537 664.528 593.826 710.352 568.352 731.014C541.181 740.071 471.978 754.959 412.54 742.052C353.102 729.146 312.345 667.189 300.033 637.611Z"/>
<path d="M586.608 525.221L604.44 529.774L639.253 526.82L657.934 541.662L634.492 458.886L559.509 473.06C550.152 490.41 531.025 525.453 529.368 526.82C527.711 528.187 552.05 526.324 564.427 525.221H586.608Z"/>
<path d="M372.267 532.863L354.436 537.416L319.622 534.462L300.942 549.304L324.383 466.528L399.367 480.702C408.723 498.052 427.85 533.095 429.507 534.462C431.164 535.829 406.825 533.966 394.449 532.863H372.267Z"/>
<path d="M411.266 556.097C402.35 559.493 363.716 583.268 310.646 553.549C348.686 594.646 400.511 674.406 398.954 696.625L418.059 644.404C413.247 628.413 416.433 554.128 411.266 556.097Z"/>
<path d="M570.899 558.644C574.635 554.568 592.127 570.107 651.989 549.304C613.949 590.401 562.125 674.406 563.681 696.625L544.576 644.404C549.388 628.413 567.163 562.72 570.899 558.644Z"/>
<path d="M400.634 659.516C404.321 630.088 370.477 613.493 359.895 614.685C318.931 673.269 269.754 815.956 346.357 871.542C327.923 708.563 396.026 696.302 400.634 659.516Z"/>
<path d="M563.7 659.517C560.013 630.088 586.215 612.644 596.797 613.836C637.761 672.42 694.58 815.956 617.977 871.542C636.411 708.563 568.309 696.302 563.7 659.517Z"/>
<path d="M461.917 854.901C433.011 842.78 427.07 798.454 418.559 776.47L384.836 692.69V652.049L418.559 637.358C466.349 592.295 557.625 652.167 579.464 670.944C583.157 714.675 550.077 769.339 550.077 785.739C550.077 800.922 533.216 839.928 507.683 858.466C482.632 859.536 476.856 861.166 461.917 854.901Z"/>
<path d="M415.297 730.997C443.836 697.747 509.563 653.208 552.968 732.263C512.307 677.425 444.245 708.57 415.297 730.997Z"/>
<path d="M405.765 695.936C437.078 659.469 509.196 610.62 556.821 697.325C512.206 637.18 437.528 671.339 405.765 695.936Z"/>
<path d="M434.328 760.536C456.525 735.331 507.646 701.567 541.406 761.496C509.78 719.926 456.843 743.535 434.328 760.536Z"/>
<path d="M445.146 790.221C463.624 768.782 505.169 740.503 529.186 793.258C506.081 756.495 463.533 775.915 445.146 790.221Z"/>
<path d="M444.397 814.264C462.408 794.703 503.336 768.767 528.488 816.355C504.594 783.243 462.471 801.164 444.397 814.264Z"/>
<path d="M444.747 827.563C462.187 839.898 502.354 856.421 528.879 827.094C504.031 847.437 462.437 835.883 444.747 827.563Z"/>
<path d="M458.027 840.947C469.918 848.991 497.305 859.767 515.39 840.641C498.448 853.908 470.089 846.373 458.027 840.947Z"/>
<path d="M88.3502 555.514C87.1087 551.632 75.3495 601.274 69.625 626.581C72.2978 634.938 79.9732 647.787 89.2921 632.326C100.941 612.999 89.9022 560.366 88.3502 555.514Z"/>
<path d="M121.105 545.038L119.131 651.756C117.69 656.079 120.655 667.671 144.035 679.45C167.414 691.229 138.49 594.75 121.105 545.038Z"/>
<path d="M238.062 742.092C230.811 738.468 215.947 730.087 214.499 725.558C221.115 718.836 233.269 694.772 228.954 652.291C247.853 687.968 242.9 727.024 238.062 742.092Z"/>
<path d="M855.57 599.311C858.179 596.18 850.427 646.604 846.225 672.207C840.608 678.948 828.668 687.972 825.84 670.143C822.305 647.856 852.309 603.225 855.57 599.311Z"/>
<path d="M829.15 577.297L790.887 676.94C790.598 681.488 783.495 691.117 757.403 693.249C731.311 695.382 794.363 616.837 829.15 577.297Z"/>
<path d="M646.73 715.978C654.811 715.343 671.735 713.16 674.779 709.507C671.172 700.792 668.949 673.924 688.908 636.176C657.99 662.14 647.907 700.195 646.73 715.978Z"/>
<path d="M298.758 467.364C298.051 490.715 297.739 539.114 302.155 545.907L325.081 467.364L401.925 480.95L418.483 442.74L398.954 429.154L346.733 413.87L298.758 467.364Z"/>
<path d="M660.48 458.873C661.188 482.224 661.499 530.623 657.084 537.416L634.158 458.873L557.313 472.459L525.896 458.873L539.057 418.116L612.505 405.379L660.48 458.873Z"/>
</mask>
<path d="M688.926 489.866C688.926 638.758 593.696 759.459 476.223 759.459C358.751 759.459 263.521 638.758 263.521 489.866C263.521 340.974 358.751 220.272 476.223 220.272C593.696 220.272 688.926 340.974 688.926 489.866Z" fill="#858585"/>
<path d="M388.378 328.144C435.42 376.252 394.367 453.634 367.961 486.312L398.744 658.879C394.673 710.132 383.404 814.887 370.897 823.882C355.263 835.126 277.904 809.47 273.715 800.998C270.364 794.22 116.497 683.289 39.9829 628.67C35.4557 543.595 27.3858 371.436 31.3235 363.397C36.2457 353.349 215.097 243.075 222.813 240.607C230.53 238.14 329.576 268.009 388.378 328.144Z" fill="#858585"/>
<path d="M222.629 654.789C205.133 588.471 167.474 454.461 156.8 448.96L328.388 482.339C344.347 546.176 376.912 675.873 379.499 683.96C382.085 692.048 386.92 732.252 390.067 742.092L222.629 654.789Z" fill="#7C7C7C"/>
<path d="M648.831 286.989C586.797 313.595 210.193 259.424 222.813 299.982L238.062 646.527C222.815 695.752 472.429 741.487 480.818 754.67C491.304 771.148 573.432 777.099 580.514 770.835C586.18 765.824 771.815 721.961 863.924 700.656C899.82 623.296 971.435 466.328 970.731 457.337C969.851 446.097 843.062 274.653 836.74 269.386C830.418 264.118 726.374 253.73 648.831 286.989Z" fill="#858585"/>
<path d="M703.677 670.794C744.806 615.907 830.052 505.862 842.011 504.774L670.452 471.244C631.68 524.41 552.775 632.371 547.339 638.895C541.904 645.418 521.721 680.915 515.108 688.852L703.677 670.794Z" fill="#7C7C7C"/>
<path d="M300.033 637.611L311.496 554.398L357.348 590.486L412.54 675.397L558.587 672.425L597.222 584.117L648.594 550.153C649.867 573.786 651.65 628.526 648.594 646.527C645.537 664.528 593.826 710.352 568.352 731.014C541.181 740.071 471.978 754.959 412.54 742.052C353.102 729.146 312.345 667.189 300.033 637.611Z" fill="#767676"/>
<path d="M586.608 525.221L604.44 529.774L639.253 526.82L657.934 541.662L634.492 458.886L559.509 473.06C550.152 490.41 531.025 525.453 529.368 526.82C527.711 528.187 552.05 526.324 564.427 525.221H586.608Z" fill="#6D6D6D"/>
<path d="M372.267 532.863L354.436 537.416L319.622 534.462L300.942 549.304L324.383 466.528L399.367 480.702C408.723 498.052 427.85 533.095 429.507 534.462C431.164 535.829 406.825 533.966 394.449 532.863H372.267Z" fill="#6D6D6D"/>
<path d="M411.266 556.097C402.35 559.493 363.716 583.268 310.646 553.549C348.686 594.646 400.511 674.406 398.954 696.625L418.059 644.404C413.247 628.413 416.433 554.128 411.266 556.097Z" fill="#7C7C7C"/>
<path d="M570.899 558.644C574.635 554.568 592.127 570.107 651.989 549.304C613.949 590.401 562.125 674.406 563.681 696.625L544.576 644.404C549.388 628.413 567.163 562.72 570.899 558.644Z" fill="#7C7C7C"/>
<path d="M400.634 659.516C404.321 630.088 370.477 613.493 359.895 614.685C318.931 673.269 269.754 815.956 346.357 871.542C327.923 708.563 396.026 696.302 400.634 659.516Z" fill="#B7B2B2"/>
<path d="M563.7 659.517C560.013 630.088 586.215 612.644 596.797 613.836C637.761 672.42 694.58 815.956 617.977 871.542C636.411 708.563 568.309 696.302 563.7 659.517Z" fill="#B7B2B2"/>
<path d="M461.917 854.901C433.011 842.78 427.07 798.454 418.559 776.47L384.836 692.69V652.049L418.559 637.358C466.349 592.295 557.625 652.167 579.464 670.944C583.157 714.675 550.077 769.339 550.077 785.739C550.077 800.922 533.216 839.928 507.683 858.466C482.632 859.536 476.856 861.166 461.917 854.901Z" fill="#858585"/>
<path d="M415.297 730.997C443.836 697.747 509.563 653.208 552.968 732.263C512.307 677.425 444.245 708.57 415.297 730.997Z" fill="#7E7E7E"/>
<path d="M405.765 695.936C437.078 659.469 509.196 610.62 556.821 697.325C512.206 637.18 437.528 671.339 405.765 695.936Z" fill="#7E7E7E"/>
<path d="M434.328 760.536C456.525 735.331 507.646 701.567 541.406 761.496C509.78 719.926 456.843 743.535 434.328 760.536Z" fill="#7E7E7E"/>
<path d="M445.146 790.221C463.624 768.782 505.169 740.503 529.186 793.258C506.081 756.495 463.533 775.915 445.146 790.221Z" fill="#7E7E7E"/>
<path d="M444.397 814.264C462.408 794.703 503.336 768.767 528.488 816.355C504.594 783.243 462.471 801.164 444.397 814.264Z" fill="#7E7E7E"/>
<path d="M444.747 827.563C462.187 839.898 502.354 856.421 528.879 827.094C504.031 847.437 462.437 835.883 444.747 827.563Z" fill="#7E7E7E"/>
<path d="M458.027 840.947C469.918 848.991 497.305 859.767 515.39 840.641C498.448 853.908 470.089 846.373 458.027 840.947Z" fill="#7E7E7E"/>
<path d="M88.3502 555.514C87.1087 551.632 75.3495 601.274 69.625 626.581C72.2978 634.938 79.9732 647.787 89.2921 632.326C100.941 612.999 89.9022 560.366 88.3502 555.514Z" fill="#888888"/>
<path d="M121.105 545.038L119.131 651.756C117.69 656.079 120.655 667.671 144.035 679.45C167.414 691.229 138.49 594.75 121.105 545.038Z" fill="#888888"/>
<path d="M238.062 742.092C230.811 738.468 215.947 730.087 214.499 725.558C221.115 718.836 233.269 694.772 228.954 652.291C247.853 687.968 242.9 727.024 238.062 742.092Z" fill="#888888"/>
<path d="M855.57 599.311C858.179 596.18 850.427 646.604 846.225 672.207C840.608 678.948 828.668 687.972 825.84 670.143C822.305 647.856 852.309 603.225 855.57 599.311Z" fill="#888888"/>
<path d="M829.15 577.297L790.887 676.94C790.598 681.488 783.495 691.117 757.403 693.249C731.311 695.382 794.363 616.837 829.15 577.297Z" fill="#888888"/>
<path d="M646.73 715.978C654.811 715.343 671.735 713.16 674.779 709.507C671.172 700.792 668.949 673.924 688.908 636.176C657.99 662.14 647.907 700.195 646.73 715.978Z" fill="#888888"/>
<path d="M298.758 467.364C298.051 490.715 297.739 539.114 302.155 545.907L325.081 467.364L401.925 480.95L418.483 442.74L398.954 429.154L346.733 413.87L298.758 467.364Z" fill="#8F8F8F"/>
<path d="M660.48 458.873C661.188 482.224 661.499 530.623 657.084 537.416L634.158 458.873L557.313 472.459L525.896 458.873L539.057 418.116L612.505 405.379L660.48 458.873Z" fill="#8F8F8F"/>
<path d="M422.837 739.475C423.159 739.09 423.488 738.703 423.822 738.313L406.773 723.68C406.379 724.138 405.992 724.595 405.61 725.05L422.837 739.475ZM413.2 704.539C413.556 704.113 413.919 703.685 414.289 703.255L397.242 688.618C396.813 689.117 396.391 689.615 395.976 690.111L413.2 704.539ZM442.015 768.817C442.258 768.534 442.506 768.248 442.759 767.961L425.897 753.112C425.584 753.467 425.275 753.822 424.972 754.175L442.015 768.817ZM453.047 798.271C453.247 798.033 453.45 797.794 453.656 797.555L436.637 782.886C436.372 783.194 436.111 783.5 435.855 783.804L453.047 798.271ZM452.075 822.518C452.267 822.305 452.462 822.09 452.661 821.874L436.132 806.655C435.872 806.937 435.616 807.219 435.363 807.5L452.075 822.518ZM437.497 836.189C437.748 836.371 438.003 836.554 438.26 836.736L451.234 818.391C451.047 818.259 450.864 818.128 450.685 817.998L437.497 836.189ZM451.178 849.873C451.362 850 451.547 850.127 451.733 850.252L464.322 831.642C464.205 831.562 464.091 831.485 463.982 831.409L451.178 849.873ZM367.961 486.312L350.485 472.19L344.041 480.165L345.841 490.258L367.961 486.312ZM388.378 328.144L404.443 312.436L404.443 312.436L388.378 328.144ZM31.3235 363.397L51.5012 373.281L51.5012 373.281L31.3235 363.397ZM39.9829 628.67L17.5461 629.864L18.1211 640.67L26.9288 646.957L39.9829 628.67ZM273.715 800.998L253.574 810.956L253.574 810.956L273.715 800.998ZM370.897 823.882L357.778 805.642L357.778 805.642L370.897 823.882ZM398.744 658.879L421.142 660.658L421.371 657.777L420.863 654.933L398.744 658.879ZM156.8 448.96L161.091 426.905L146.507 468.932L156.8 448.96ZM222.629 654.789L200.903 660.52L203.436 670.121L212.241 674.712L222.629 654.789ZM390.067 742.092L379.679 762.015L428.104 787.264L411.468 735.248L390.067 742.092ZM328.388 482.339L350.186 476.89L346.717 463.015L332.678 460.284L328.388 482.339ZM222.813 299.982L245.26 298.995L245.132 296.086L244.267 293.307L222.813 299.982ZM648.831 286.989L657.688 307.638L657.688 307.638L648.831 286.989ZM970.731 457.337L993.131 455.582L993.131 455.582L970.731 457.337ZM863.924 700.656L868.988 722.546L879.684 720.072L884.305 710.113L863.924 700.656ZM580.514 770.835L595.4 787.665L595.4 787.665L580.514 770.835ZM480.818 754.67L499.774 742.607L499.774 742.607L480.818 754.67ZM238.062 646.527L259.524 653.175L260.68 649.443L260.509 645.539L238.062 646.527ZM842.011 504.774L844.047 527.15L846.321 482.722L842.011 504.774ZM703.677 670.794L705.819 693.16L715.704 692.214L721.658 684.267L703.677 670.794ZM515.108 688.852L497.846 674.469L462.887 716.424L517.249 711.219L515.108 688.852ZM547.339 638.895L564.601 653.278L547.339 638.895ZM670.452 471.244L674.762 449.193L660.726 446.45L652.299 458.005L670.452 471.244ZM311.496 554.398L325.392 536.742L294.587 512.498L289.237 551.332L311.496 554.398ZM300.033 637.611L277.774 634.545L276.94 640.602L279.289 646.246L300.033 637.611ZM568.352 731.014L575.457 752.329L579.333 751.037L582.506 748.464L568.352 731.014ZM648.594 646.527L670.745 650.289L670.745 650.289L648.594 646.527ZM648.594 550.153L671.03 548.944L668.919 509.779L636.202 531.41L648.594 550.153ZM357.348 590.486L376.186 578.241L374.162 575.127L371.244 572.83L357.348 590.486ZM558.587 672.425L559.045 694.889L573.412 694.597L579.172 681.431L558.587 672.425ZM412.54 675.397L393.701 687.642L400.509 698.115L412.997 697.861L412.54 675.397ZM597.222 584.117L584.83 565.375L579.296 569.034L576.637 575.111L597.222 584.117ZM604.44 529.774L598.881 551.544L602.558 552.483L606.34 552.162L604.44 529.774ZM586.608 525.221L592.167 503.451L589.431 502.753H586.608V525.221ZM564.427 525.221V502.753H563.428L562.433 502.841L564.427 525.221ZM529.368 526.82L515.069 509.488L515.069 509.488L529.368 526.82ZM559.509 473.06L555.335 450.982L544.814 452.971L539.732 462.395L559.509 473.06ZM634.492 458.886L656.111 452.763L650.511 432.991L630.319 436.808L634.492 458.886ZM657.934 541.662L643.956 559.253L698.552 602.631L679.552 535.539L657.934 541.662ZM639.253 526.82L653.231 509.228L646.245 503.677L637.354 504.431L639.253 526.82ZM354.436 537.416L352.536 559.804L356.317 560.125L359.994 559.186L354.436 537.416ZM372.267 532.863V510.395H369.444L366.709 511.093L372.267 532.863ZM394.449 532.863L396.442 510.483L395.448 510.395H394.449V532.863ZM429.507 534.462L443.806 517.13L443.806 517.13L429.507 534.462ZM399.367 480.702L419.143 470.037L414.061 460.613L403.54 458.624L399.367 480.702ZM324.383 466.528L328.557 444.45L308.364 440.633L302.765 460.405L324.383 466.528ZM300.942 549.304L279.323 543.182L260.324 610.273L314.919 566.896L300.942 549.304ZM319.622 534.462L321.522 512.074L312.631 511.319L305.645 516.87L319.622 534.462ZM310.646 553.549L321.624 533.945L294.157 568.812L310.646 553.549ZM411.266 556.097L419.265 577.093L419.265 577.093L411.266 556.097ZM418.059 644.404L439.16 652.124L441.731 645.096L439.575 637.931L418.059 644.404ZM398.954 696.625L376.54 695.054L420.055 704.345L398.954 696.625ZM651.989 549.304L668.478 564.566L644.614 528.08L651.989 549.304ZM570.899 558.644L554.336 543.461L554.336 543.461L570.899 558.644ZM544.576 644.404L523.061 637.93L520.904 645.096L523.476 652.124L544.576 644.404ZM563.681 696.625L542.581 704.344L586.095 695.054L563.681 696.625ZM359.895 614.685L357.38 592.358L347.296 593.494L341.481 601.81L359.895 614.685ZM400.634 659.516L378.34 656.723L378.34 656.723L400.634 659.516ZM346.357 871.542L333.161 889.727L374.411 919.661L368.683 869.017L346.357 871.542ZM596.797 613.836L615.211 600.961L609.396 592.645L599.313 591.509L596.797 613.836ZM563.7 659.517L585.994 656.724L585.994 656.724L563.7 659.517ZM617.977 871.542L595.651 869.017L589.923 919.661L631.173 889.727L617.977 871.542ZM418.559 776.47L439.512 768.358L439.458 768.218L439.402 768.08L418.559 776.47ZM461.917 854.901L470.606 834.181L470.606 834.181L461.917 854.901ZM507.683 858.466L508.641 880.914L515.405 880.626L520.884 876.648L507.683 858.466ZM579.464 670.944L601.853 669.053L601.08 659.896L594.112 653.906L579.464 670.944ZM418.559 637.358L427.533 657.956L431.123 656.392L433.973 653.705L418.559 637.358ZM384.836 692.69H362.368V697.043L363.993 701.08L384.836 692.69ZM384.836 652.049L375.863 631.45L362.368 637.329V652.049H384.836ZM415.297 730.997L398.248 716.363L429.058 748.758L415.297 730.997ZM552.968 732.263L534.92 745.645L572.664 721.449L552.968 732.263ZM405.765 695.936L388.719 681.299L419.523 713.701L405.765 695.936ZM556.821 697.325L538.776 710.711L576.515 686.508L556.821 697.325ZM434.328 760.536L417.466 745.687L447.868 778.467L434.328 760.536ZM541.406 761.496L523.524 775.1L560.982 750.468L541.406 761.496ZM445.146 790.221L428.127 775.552L458.944 807.954L445.146 790.221ZM529.186 793.258L510.163 805.214L549.635 783.949L529.186 793.258ZM444.397 814.264L427.868 799.045L457.583 832.457L444.397 814.264ZM528.488 816.355L510.268 829.503L548.353 805.856L528.488 816.355ZM444.747 827.563L454.309 807.231L431.773 845.908L444.747 827.563ZM528.879 827.094L545.543 842.166L514.646 809.708L528.879 827.094ZM458.027 840.947L467.245 820.456L445.438 859.557L458.027 840.947ZM515.39 840.641L531.716 856.078L501.538 822.951L515.39 840.641ZM69.625 626.581L47.7101 621.623L46.3595 627.594L48.2243 633.425L69.625 626.581ZM88.3502 555.514L109.751 548.669L88.3502 555.514ZM89.2921 632.326L108.536 643.924L108.536 643.924L89.2921 632.326ZM119.131 651.756L140.448 658.856L141.532 655.601L141.595 652.171L119.131 651.756ZM121.105 545.038L142.314 537.621L98.6402 544.622L121.105 545.038ZM144.035 679.45L154.144 659.384L154.144 659.384L144.035 679.45ZM214.499 725.558L198.485 709.797L188.962 719.472L193.098 732.403L214.499 725.558ZM238.062 742.092L228.016 762.19L251.446 773.901L259.455 748.962L238.062 742.092ZM228.954 652.291L248.809 641.774L206.6 654.562L228.954 652.291ZM846.225 672.207L863.486 686.59L867.405 681.887L868.396 675.846L846.225 672.207ZM855.57 599.311L838.308 584.928L855.57 599.311ZM825.84 670.143L803.649 673.662L803.649 673.662L825.84 670.143ZM790.887 676.94L769.912 668.885L768.682 672.088L768.464 675.512L790.887 676.94ZM829.15 577.297L850.125 585.352L812.281 562.456L829.15 577.297ZM757.403 693.249L755.573 670.855L755.573 670.855L757.403 693.249ZM674.779 709.507L692.04 723.89L700.731 713.461L695.54 700.917L674.779 709.507ZM646.73 715.978L624.324 714.307L622.376 740.428L648.489 738.377L646.73 715.978ZM688.908 636.176L708.771 646.679L674.459 618.97L688.908 636.176ZM302.155 545.907L283.316 558.152L310.003 599.209L323.723 552.203L302.155 545.907ZM298.758 467.364L282.031 452.363L276.549 458.476L276.3 466.684L298.758 467.364ZM346.733 413.87L353.045 392.306L339.458 388.33L330.006 398.869L346.733 413.87ZM398.954 429.154L411.785 410.71L408.779 408.619L405.265 407.59L398.954 429.154ZM418.483 442.74L439.099 451.674L446.412 434.798L431.314 424.295L418.483 442.74ZM401.925 480.95L398.014 503.076L415.487 506.165L422.542 489.884L401.925 480.95ZM325.081 467.364L328.992 445.239L309.156 441.732L303.512 461.069L325.081 467.364ZM657.084 537.416L635.515 543.712L649.236 590.717L675.923 549.661L657.084 537.416ZM660.48 458.873L682.939 458.192L682.69 449.985L677.207 443.872L660.48 458.873ZM612.505 405.379L629.233 390.378L620.926 381.115L608.666 383.241L612.505 405.379ZM539.057 418.116L535.218 395.977L521.846 398.296L517.676 411.211L539.057 418.116ZM525.896 458.873L504.515 451.969L498.242 471.394L516.978 479.496L525.896 458.873ZM557.313 472.459L548.395 493.082L554.584 495.758L561.225 494.584L557.313 472.459ZM634.158 458.873L655.726 452.577L650.082 433.241L630.246 436.748L634.158 458.873ZM666.458 489.866C666.458 631.604 576.615 736.991 476.223 736.991V781.928C610.776 781.928 711.395 645.912 711.395 489.866H666.458ZM476.223 736.991C375.831 736.991 285.989 631.604 285.989 489.866H241.052C241.052 645.912 341.67 781.928 476.223 781.928V736.991ZM285.989 489.866C285.989 348.128 375.831 242.741 476.223 242.741V197.804C341.67 197.804 241.052 333.819 241.052 489.866H285.989ZM476.223 242.741C576.615 242.741 666.458 348.128 666.458 489.866H711.395C711.395 333.819 610.776 197.804 476.223 197.804V242.741ZM385.436 500.434C400.048 482.353 418.754 452.022 427.453 418.688C436.195 385.189 435.644 344.344 404.443 312.436L372.314 343.853C388.155 360.053 390.598 381.953 383.972 407.341C377.303 432.895 362.28 457.594 350.485 472.19L385.436 500.434ZM404.443 312.436C372.261 279.524 329.946 255.623 295.551 240.362C278.201 232.664 262.377 226.948 250.136 223.27C244.052 221.441 238.568 220.03 234.052 219.145C231.828 218.709 229.464 218.326 227.182 218.134C225.954 218.03 221.109 217.563 215.969 219.207L229.658 262.008C227.065 262.837 225.05 262.91 224.558 262.926C224.161 262.94 223.867 262.934 223.702 262.928C223.531 262.922 223.431 262.914 223.415 262.913C223.394 262.911 223.553 262.924 223.928 262.981C224.291 263.036 224.782 263.12 225.41 263.243C228.018 263.754 231.996 264.741 237.202 266.305C247.541 269.412 261.6 274.46 277.326 281.438C309.085 295.529 345.693 316.629 372.314 343.853L404.443 312.436ZM215.969 219.207C212.982 220.162 209.684 222.014 208.692 222.554C206.702 223.639 204.186 225.069 201.297 226.745C195.489 230.114 187.72 234.742 178.703 240.195C160.648 251.113 137.3 265.514 114.053 280.143C90.8315 294.757 67.5635 309.693 49.7208 321.658C40.8322 327.619 33.0729 332.988 27.2764 337.281C24.4102 339.404 21.736 341.475 19.553 343.351C18.4748 344.278 17.2421 345.392 16.071 346.612C15.3066 347.409 12.9143 349.903 11.1459 353.513L51.5012 373.281C50.6367 375.046 49.7415 376.232 49.3757 376.699C48.9398 377.257 48.6062 377.61 48.4971 377.723C48.292 377.937 48.3439 377.861 48.8479 377.427C49.8293 376.584 51.5099 375.253 54.0203 373.394C58.9769 369.723 66.0583 364.809 74.7498 358.98C92.0672 347.366 114.917 332.695 137.988 318.176C161.034 303.673 184.153 289.414 201.957 278.648C210.869 273.258 218.377 268.788 223.847 265.615C226.596 264.02 228.719 262.817 230.198 262.011C232.677 260.66 231.681 261.361 229.658 262.008L215.969 219.207ZM11.1459 353.513C9.5531 356.764 9.02282 359.815 8.86598 360.699C8.61151 362.133 8.45338 363.545 8.34517 364.739C8.12581 367.161 7.9972 370.012 7.91845 373.028C7.75911 379.129 7.77431 387.205 7.91254 396.604C8.19002 415.471 8.97914 440.612 10.0267 468.004C12.1236 522.833 15.2791 587.262 17.5461 629.864L62.4197 627.476C60.1596 585.003 57.0164 520.814 54.931 466.286C53.8874 438.998 53.1145 414.275 52.8448 395.943C52.7095 386.743 52.7049 379.385 52.8403 374.201C52.9089 371.573 53.0063 369.818 53.0991 368.793C53.147 368.265 53.1665 368.243 53.1122 368.549C53.0837 368.71 53.0001 369.16 52.8279 369.793C52.6857 370.315 52.3036 371.643 51.5012 373.281L11.1459 353.513ZM26.9288 646.957C65.1472 674.239 122.669 715.574 171.028 750.915C195.222 768.597 217.032 784.711 232.961 796.794C240.95 802.854 247.309 807.786 251.706 811.347C253.932 813.151 255.441 814.43 256.338 815.238C256.805 815.659 256.874 815.744 256.715 815.578C256.636 815.495 256.323 815.166 255.907 814.645C255.627 814.296 254.568 812.969 253.574 810.956L293.856 791.04C292.062 787.412 289.552 784.897 289.218 784.547C288.276 783.56 287.281 782.631 286.419 781.854C284.656 780.266 282.441 778.414 279.99 776.428C275.032 772.412 268.223 767.139 260.119 760.992C243.865 748.663 221.798 732.36 197.542 714.634C149.001 679.16 91.3329 637.72 53.0371 610.383L26.9288 646.957ZM253.574 810.956C256.007 815.879 259.596 818.945 261.154 820.212C263.161 821.842 265.269 823.194 267.103 824.267C270.81 826.436 275.209 828.516 279.713 830.422C288.83 834.279 300.313 838.233 311.994 841.481C323.6 844.709 336.211 847.467 347.459 848.598C353.057 849.16 358.986 849.391 364.616 848.834C369.74 848.328 377.325 846.936 384.016 842.123L357.778 805.642C360.561 803.64 362.309 803.906 360.193 804.115C358.584 804.275 355.871 804.28 351.953 803.886C344.168 803.103 334.246 801.027 324.034 798.187C313.897 795.368 304.278 792.021 297.223 789.036C293.642 787.521 291.187 786.295 289.801 785.483C289.088 785.066 289.09 785.009 289.495 785.338C289.713 785.516 290.26 785.975 290.943 786.727C291.573 787.42 292.778 788.859 293.856 791.04L253.574 810.956ZM384.016 842.123C388.318 839.029 390.97 835.189 392.451 832.739C394.09 830.031 395.38 827.183 396.411 824.576C398.474 819.362 400.241 813.195 401.789 806.802C404.913 793.904 407.739 777.56 410.22 760.452C415.202 726.096 419.083 686.58 421.142 660.658L376.346 657.1C374.334 682.431 370.545 720.919 365.748 754.003C363.339 770.615 360.749 785.349 358.115 796.224C356.784 801.718 355.588 805.611 354.624 808.048C354.142 809.267 353.904 809.642 354.001 809.481C354.064 809.377 354.331 808.946 354.84 808.337C355.332 807.749 356.285 806.715 357.778 805.642L384.016 842.123ZM420.863 654.933L390.08 482.366L345.841 490.258L376.624 662.824L420.863 654.933ZM146.507 468.932C143.592 467.43 141.896 465.658 141.368 465.086C141.01 464.698 140.766 464.391 140.631 464.216C140.493 464.035 140.42 463.925 140.41 463.911C140.401 463.898 140.527 464.088 140.784 464.556C141.034 465.011 141.353 465.627 141.741 466.431C143.363 469.79 145.488 474.953 148.05 481.895C153.128 495.654 159.234 514.503 165.662 535.613C178.488 577.731 192.198 627.521 200.903 660.52L244.354 649.057C235.564 615.739 221.697 565.365 208.65 522.523C202.143 501.153 195.739 481.324 190.207 466.336C187.465 458.905 184.76 452.178 182.21 446.896C180.955 444.295 179.482 441.507 177.802 438.987C176.769 437.438 173.302 432.187 167.093 428.987L146.507 468.932ZM212.241 674.712L379.679 762.015L400.455 722.169L233.017 634.866L212.241 674.712ZM411.468 735.248C411.472 735.263 411.454 735.205 411.414 735.06C411.374 734.919 411.322 734.723 411.258 734.465C411.128 733.944 410.971 733.266 410.79 732.417C410.426 730.709 410.02 728.578 409.575 726.072C408.685 721.05 407.738 715.068 406.771 708.892C405.821 702.829 404.845 696.539 403.945 691.281C403.15 686.634 402.12 680.934 400.899 677.116L358.098 690.805C358.029 690.589 358.191 691.101 358.551 692.865C358.869 694.427 359.237 696.438 359.652 698.862C360.484 703.725 361.399 709.617 362.375 715.846C363.333 721.963 364.347 728.382 365.328 733.919C366.228 738.993 367.348 744.816 368.666 748.937L411.468 735.248ZM400.899 677.116C400.909 677.146 400.753 676.627 400.35 675.152C399.992 673.836 399.521 672.071 398.944 669.878C397.792 665.499 396.259 659.571 394.43 652.44C390.774 638.187 385.97 619.253 380.743 598.554C370.289 557.163 358.163 508.798 350.186 476.89L306.59 487.788C322.349 550.824 355.217 681.798 358.098 690.805L400.899 677.116ZM332.678 460.284L161.091 426.905L152.51 471.015L324.098 504.394L332.678 460.284ZM244.267 293.307C245.053 295.831 245.387 299.388 244.17 303.233C243.008 306.904 240.955 309.186 239.712 310.284C237.812 311.963 237.12 311.545 240.732 310.583C247.268 308.843 258.971 307.555 276.008 307.042C309.424 306.034 356.301 308.108 406.676 310.693C456.569 313.252 509.618 316.294 553.96 317.006C576.145 317.362 596.631 317.146 613.78 315.935C630.141 314.78 646.157 312.584 657.688 307.638L639.975 266.339C635.997 268.045 626.674 269.976 610.615 271.11C595.344 272.188 576.329 272.422 554.681 272.074C511.358 271.379 459.413 268.402 408.978 265.815C359.026 263.252 310.241 261.051 274.654 262.125C257.189 262.652 241.056 263.994 229.171 267.158C223.571 268.649 216.022 271.252 209.961 276.606C206.637 279.542 203.179 283.825 201.328 289.671C199.422 295.692 199.785 301.599 201.359 306.658L244.267 293.307ZM657.688 307.638C692.778 292.587 734.982 287.068 770.048 286.201C787.409 285.772 802.491 286.496 813.363 287.592C818.837 288.144 822.951 288.761 825.607 289.294C826.248 289.423 826.746 289.535 827.116 289.626C827.496 289.72 827.662 289.772 827.656 289.77C827.647 289.767 827.559 289.739 827.407 289.683C827.26 289.628 826.995 289.526 826.642 289.367C826.208 289.172 824.41 288.358 822.357 286.647L851.123 252.124C847.027 248.711 842.422 247.309 841.223 246.93C839.037 246.237 836.695 245.687 834.455 245.237C829.908 244.324 824.251 243.525 817.87 242.882C805.032 241.587 788.071 240.805 768.938 241.278C731.016 242.215 682.427 248.131 639.975 266.339L657.688 307.638ZM822.357 286.647C820.762 285.319 820.135 284.344 821.941 286.534C823.034 287.861 824.583 289.802 826.571 292.346C830.526 297.408 835.91 304.461 842.268 312.908C854.97 329.781 871.36 351.95 887.59 374.317C903.838 396.708 919.823 419.16 931.756 436.638C937.745 445.409 942.567 452.715 945.86 458.05C947.527 460.751 948.617 462.65 949.233 463.83C949.549 464.435 949.577 464.542 949.472 464.284C949.416 464.147 949.24 463.704 949.043 463.034C948.878 462.475 948.484 461.047 948.331 459.091L993.131 455.582C992.818 451.581 991.515 448.38 991.102 447.363C990.465 445.796 989.731 444.302 989.068 443.033C987.727 440.464 985.997 437.522 984.1 434.449C980.266 428.236 974.989 420.264 968.869 411.299C956.584 393.306 940.312 370.459 923.961 347.926C907.594 325.369 891.047 302.987 878.17 285.882C871.739 277.339 866.174 270.046 861.982 264.68C859.896 262.011 858.071 259.717 856.613 257.948C855.867 257.043 853.507 254.111 851.123 252.124L822.357 286.647ZM948.331 459.091C948.188 457.27 948.323 455.892 948.384 455.348C948.458 454.691 948.548 454.238 948.582 454.075C948.646 453.764 948.657 453.787 948.506 454.294C948.214 455.277 947.654 456.941 946.742 459.408C944.942 464.276 942.202 471.112 938.653 479.614C931.582 496.553 921.66 519.241 910.53 544.21C888.29 594.107 861.463 652.578 843.543 691.198L884.305 710.113C902.281 671.373 929.21 612.681 951.575 562.505C962.748 537.44 972.842 514.365 980.122 496.926C983.748 488.238 986.768 480.732 988.89 474.992C989.939 472.156 990.881 469.45 991.578 467.108C991.921 465.952 992.299 464.574 992.595 463.138C992.779 462.245 993.415 459.205 993.131 455.582L948.331 459.091ZM858.861 678.765C812.76 689.428 743.235 705.741 684.494 720.023C655.142 727.16 628.373 733.816 608.535 739.018C598.645 741.611 590.295 743.891 584.149 745.714C581.11 746.616 578.341 747.485 576.095 748.284C574.996 748.674 573.714 749.156 572.459 749.712C572.023 749.905 568.7 751.289 565.628 754.005L595.4 787.665C593.693 789.175 592.185 790.012 591.789 790.231C591.198 790.558 590.777 790.746 590.67 790.794C590.454 790.89 590.548 790.838 591.142 790.627C592.283 790.221 594.173 789.614 596.933 788.795C602.383 787.178 610.184 785.042 619.933 782.485C639.374 777.388 665.832 770.807 695.111 763.688C753.631 749.46 822.979 733.188 868.988 722.546L858.861 678.765ZM565.628 754.005C567.481 752.366 569.17 751.481 570.026 751.076C570.955 750.636 571.644 750.418 571.915 750.337C572.419 750.187 572.397 750.241 571.568 750.355C569.956 750.577 567.188 750.772 563.257 750.801C555.514 750.858 545.23 750.263 534.655 748.977C524.006 747.681 513.896 745.786 506.262 743.502C502.421 742.353 499.837 741.29 498.335 740.495C496.387 739.464 497.999 739.818 499.774 742.607L461.862 766.732C466.258 773.641 472.73 777.786 477.309 780.21C482.333 782.87 487.941 784.926 493.384 786.555C504.32 789.826 517.15 792.116 529.23 793.585C541.383 795.063 553.615 795.811 563.59 795.737C568.518 795.7 573.41 795.462 577.686 794.874C579.801 794.583 582.28 794.14 584.77 793.396C586.691 792.823 591.236 791.348 595.4 787.665L565.628 754.005ZM499.774 742.607C496.942 738.157 493.257 735.605 491.733 734.597C489.758 733.292 487.748 732.262 486.077 731.479C482.707 729.899 478.718 728.403 474.648 727.006C466.408 724.177 455.495 720.969 443.34 717.519C418.606 710.497 387.676 702.168 357.279 692.669C326.676 683.104 298.363 672.872 278.96 662.515C269.087 657.245 263.262 652.839 260.48 649.745C257.898 646.872 260.883 648.79 259.524 653.175L216.599 639.879C211.429 656.57 218.879 670.685 227.062 679.788C235.046 688.668 246.286 696.013 257.801 702.159C281.174 714.635 312.931 725.889 343.874 735.56C375.023 745.295 407.117 753.948 431.068 760.748C443.256 764.208 453.101 767.12 460.058 769.509C463.587 770.72 465.805 771.606 467.006 772.168C467.621 772.457 467.486 772.438 466.948 772.081C466.859 772.023 464.169 770.359 461.862 766.733L499.774 742.607ZM260.509 645.539L245.26 298.995L200.367 300.97L215.615 647.515L260.509 645.539ZM839.976 482.398C833.019 483.03 827.834 486.593 826.294 487.642C823.79 489.346 821.379 491.376 819.238 493.315C814.891 497.252 809.856 502.47 804.523 508.326C793.766 520.138 780.381 536.109 766.322 553.468C738.136 588.271 706.36 629.745 685.697 657.321L721.658 684.267C742.123 656.956 773.534 615.964 801.243 581.75C815.132 564.601 827.872 549.427 837.747 538.584C842.73 533.112 846.639 529.126 849.403 526.622C850.064 526.023 850.592 525.572 850.994 525.245C851.409 524.907 851.597 524.778 851.583 524.787C851.569 524.797 851.46 524.871 851.264 524.986C851.073 525.099 850.731 525.291 850.254 525.516C849.55 525.848 847.313 526.853 844.047 527.15L839.976 482.398ZM701.536 648.428L512.966 666.486L517.249 711.219L705.819 693.16L701.536 648.428ZM532.369 703.235C537.017 697.657 544.85 684.821 550.818 675.091C554.135 669.683 557.276 664.547 559.936 660.335C561.263 658.236 562.39 656.492 563.299 655.143C564.318 653.63 564.697 653.162 564.601 653.278L530.078 624.512C527.585 627.503 524.49 632.306 521.944 636.337C519.084 640.864 515.747 646.322 512.512 651.596C509.222 656.961 506.016 662.17 503.24 666.51C501.855 668.677 500.646 670.518 499.639 671.986C499.138 672.716 498.724 673.301 498.392 673.753C498.228 673.976 498.097 674.149 497.998 674.277C497.95 674.339 497.912 674.387 497.885 674.421C497.858 674.454 497.845 674.47 497.846 674.469L532.369 703.235ZM564.601 653.278C570.654 646.013 650.32 536.982 688.606 484.484L652.299 458.005C632.919 484.579 603.511 524.845 578.273 559.277C565.652 576.496 554.087 592.238 545.344 604.074C540.97 609.995 537.322 614.913 534.609 618.538C533.251 620.354 532.151 621.813 531.324 622.898C530.397 624.114 530.057 624.536 530.078 624.512L564.601 653.278ZM666.143 493.296L837.701 526.825L846.321 482.722L674.762 449.193L666.143 493.296ZM289.237 551.332L277.774 634.545L322.291 640.678L333.754 557.465L289.237 551.332ZM279.289 646.246C286.432 663.404 301.109 688.529 322.088 711.306C343.014 734.025 371.899 756.22 407.772 764.009L417.308 720.095C393.743 714.978 372.531 699.742 355.141 680.861C337.803 662.038 325.946 641.396 320.776 628.977L279.289 646.246ZM407.772 764.009C472.793 778.128 546.445 762 575.457 752.329L561.247 709.698C535.916 718.142 471.163 731.79 417.308 720.095L407.772 764.009ZM582.506 748.464C595.632 737.818 615.511 720.703 632.667 703.76C641.214 695.319 649.472 686.543 655.947 678.386C659.181 674.311 662.249 670.045 664.729 665.785C667.042 661.813 669.705 656.411 670.745 650.289L626.442 642.766C626.717 641.144 627.096 641.112 625.896 643.172C624.864 644.944 623.191 647.372 620.75 650.448C615.873 656.592 609.038 663.938 601.091 671.786C585.26 687.421 566.546 703.548 554.198 713.564L582.506 748.464ZM670.745 650.289C672.677 638.914 672.902 618.599 672.684 600.187C672.457 580.944 671.681 561.034 671.03 548.944L626.157 551.362C626.78 562.906 627.532 582.182 627.75 600.717C627.979 620.084 627.567 636.139 626.442 642.766L670.745 650.289ZM371.244 572.83L325.392 536.742L297.6 572.054L343.452 608.142L371.244 572.83ZM558.13 649.961L412.083 652.933L412.997 697.861L559.045 694.889L558.13 649.961ZM431.379 663.152L376.186 578.241L338.509 602.731L393.701 687.642L431.379 663.152ZM636.202 531.41L584.83 565.375L609.614 602.86L660.985 568.895L636.202 531.41ZM576.637 575.111L538.003 663.419L579.172 681.431L617.807 593.123L576.637 575.111ZM609.998 508.004L592.167 503.451L581.05 546.991L598.881 551.544L609.998 508.004ZM586.608 502.753H564.427V547.69H586.608V502.753ZM562.433 502.841C556.358 503.382 547.431 504.102 540.328 504.516C536.682 504.728 533.957 504.833 532.41 504.833C531.334 504.833 531.911 504.776 533.145 504.957C533.547 505.016 534.421 505.156 535.539 505.465C536.305 505.676 538.999 506.433 541.959 508.44C544.768 510.344 552.399 516.766 551.717 528.268C551.146 537.897 544.905 543.13 543.667 544.151L515.069 509.488C513.728 510.595 507.434 515.907 506.859 525.609C506.173 537.184 513.848 543.673 516.747 545.638C519.798 547.706 522.627 548.518 523.574 548.78C524.872 549.138 525.97 549.323 526.637 549.42C528.934 549.756 531.237 549.77 532.403 549.77C535.34 549.771 539.164 549.597 542.942 549.377C550.688 548.926 560.119 548.163 566.42 547.601L562.433 502.841ZM543.667 544.151C545.633 542.53 546.909 540.895 547.157 540.583C547.659 539.952 548.065 539.381 548.33 539C548.872 538.219 549.392 537.406 549.824 536.713C550.714 535.284 551.775 533.492 552.901 531.549C555.18 527.616 558.099 522.421 561.199 516.834C567.416 505.628 574.582 492.445 579.285 483.724L539.732 462.395C535.079 471.025 528.004 484.038 521.904 495.033C518.845 500.547 516.087 505.452 514.021 509.017C512.975 510.822 512.196 512.127 511.687 512.944C511.419 513.375 511.348 513.471 511.424 513.363C511.455 513.317 511.659 513.023 511.991 512.605C512.069 512.508 513.208 511.024 515.069 509.488L543.667 544.151ZM563.682 495.137L638.666 480.963L630.319 436.808L555.335 450.982L563.682 495.137ZM612.874 465.008L636.315 547.784L679.552 535.539L656.111 452.763L612.874 465.008ZM671.911 524.07L653.231 509.228L625.276 544.411L643.956 559.253L671.911 524.07ZM637.354 504.431L602.54 507.386L606.34 552.162L641.153 549.208L637.354 504.431ZM359.994 559.186L377.826 554.634L366.709 511.093L348.877 515.646L359.994 559.186ZM372.267 555.332H394.449V510.395H372.267V555.332ZM392.456 555.243C398.757 555.805 408.188 556.568 415.933 557.019C419.712 557.239 423.535 557.413 426.472 557.412C427.638 557.412 429.942 557.399 432.238 557.062C432.905 556.965 434.004 556.78 435.301 556.422C436.248 556.16 439.078 555.348 442.129 553.28C445.028 551.315 452.703 544.826 452.017 533.251C451.442 523.549 445.147 518.237 443.806 517.13L415.208 551.793C413.971 550.772 407.729 545.539 407.158 535.91C406.477 524.408 414.107 517.986 416.916 516.082C419.877 514.076 422.57 513.319 423.337 513.107C424.454 512.798 425.329 512.658 425.73 512.599C426.964 512.418 427.541 512.475 426.465 512.475C424.918 512.475 422.194 512.371 418.548 512.158C411.444 511.744 402.518 511.025 396.442 510.483L392.456 555.243ZM443.806 517.13C445.668 518.666 446.806 520.15 446.884 520.248C447.216 520.665 447.42 520.959 447.452 521.005C447.527 521.113 447.457 521.017 447.188 520.586C446.679 519.769 445.901 518.464 444.855 516.659C442.789 513.094 440.031 508.189 436.972 502.675C430.872 491.68 423.797 478.667 419.143 470.037L379.591 491.367C384.293 500.087 391.46 513.27 397.677 524.476C400.776 530.063 403.696 535.258 405.974 539.191C407.101 541.134 408.161 542.927 409.052 544.355C409.483 545.048 410.003 545.861 410.545 546.642C410.81 547.023 411.217 547.594 411.719 548.225C411.967 548.537 413.243 550.172 415.208 551.793L443.806 517.13ZM403.54 458.624L328.557 444.45L320.21 488.605L395.193 502.78L403.54 458.624ZM302.765 460.405L279.323 543.182L322.56 555.426L346.002 472.65L302.765 460.405ZM314.919 566.896L333.599 552.054L305.645 516.87L286.964 531.712L314.919 566.896ZM317.722 556.85L352.536 559.804L356.336 515.028L321.522 512.074L317.722 556.85ZM299.668 573.153C330.897 590.642 358.936 592.801 380.9 589.453C391.678 587.81 400.655 584.899 407.465 582.222C410.859 580.888 413.721 579.609 415.874 578.628C417.055 578.09 417.729 577.777 418.468 577.445C419.192 577.119 419.361 577.057 419.265 577.093L403.267 535.1C395.219 538.166 388.389 542.855 374.128 545.029C361.278 546.988 343.465 546.176 321.624 533.945L299.668 573.153ZM419.265 577.093C413.146 579.424 406.27 578.895 400.57 575.635C395.956 572.995 393.653 569.458 392.831 568.076C391.858 566.441 391.385 565.109 391.214 564.598C391.01 563.991 390.923 563.6 390.911 563.548C390.893 563.467 390.971 563.82 391.089 564.804C391.198 565.725 391.311 566.929 391.421 568.441C391.875 574.699 392.103 583.682 392.333 594.014C392.555 604.038 392.776 615.135 393.254 624.704C393.682 633.28 394.408 643.781 396.543 650.878L439.575 637.931C439.597 638.004 439.289 636.796 438.937 633.53C438.618 630.576 438.354 626.847 438.135 622.462C437.696 613.667 437.487 603.317 437.259 593.017C437.037 583.025 436.793 572.807 436.24 565.19C435.979 561.585 435.575 557.384 434.777 553.793C434.463 552.381 433.625 548.755 431.451 545.101C430.367 543.279 427.789 539.435 422.883 536.628C416.892 533.201 409.709 532.646 403.267 535.1L419.265 577.093ZM396.958 636.685L377.853 688.905L420.055 704.345L439.16 652.124L396.958 636.685ZM421.368 698.195C421.85 691.308 420.271 684.5 418.652 679.21C416.903 673.494 414.41 667.377 411.532 661.193C405.763 648.8 397.719 634.597 388.669 620.205C370.608 591.485 347.32 560.093 327.135 538.287L294.157 568.812C312.013 588.103 333.657 617.139 350.629 644.128C359.095 657.591 366.093 670.062 370.792 680.157C373.148 685.218 374.745 689.298 375.681 692.357C376.747 695.842 376.447 696.387 376.54 695.054L421.368 698.195ZM644.614 528.08C617.068 537.652 600.724 538.383 591.807 537.822C587.192 537.532 584.136 536.895 580.711 536.278C579.489 536.058 576.233 535.437 572.864 535.457C569.213 535.48 560.942 536.254 554.336 543.461L587.462 573.826C581.789 580.014 574.883 580.383 573.137 580.394C571.674 580.403 570.865 580.164 572.744 580.503C575.519 581.003 581.278 582.186 588.987 582.671C604.715 583.66 627.047 581.758 659.365 570.527L644.614 528.08ZM554.336 543.461C551.581 546.467 550.07 549.778 549.743 550.466C549.061 551.903 548.446 553.414 547.922 554.777C546.857 557.546 545.694 560.948 544.516 564.576C542.139 571.897 539.338 581.261 536.568 590.774C530.852 610.405 525.476 629.901 523.061 637.93L566.092 650.878C568.488 642.916 574.405 621.569 579.714 603.337C582.456 593.919 585.1 585.095 587.257 578.453C588.346 575.099 589.222 572.575 589.863 570.909C590.192 570.054 590.346 569.721 590.338 569.74C590.333 569.75 590.181 570.072 589.887 570.573C589.695 570.902 588.896 572.261 587.462 573.826L554.336 543.461ZM523.476 652.124L542.581 704.344L584.782 688.905L565.677 636.684L523.476 652.124ZM586.095 695.054C586.186 696.346 585.902 695.707 587.001 692.019C587.964 688.79 589.592 684.506 591.966 679.225C596.702 668.692 603.733 655.668 612.204 641.685C629.221 613.593 650.804 583.66 668.478 564.566L635.5 534.041C615.134 556.044 591.785 588.662 573.769 618.402C564.723 633.334 556.713 648.047 550.98 660.799C548.121 667.159 545.659 673.404 543.936 679.183C542.351 684.503 540.788 691.349 541.268 698.195L586.095 695.054ZM362.41 637.013C360.543 637.223 359.687 636.943 360.308 637.07C360.719 637.155 361.602 637.39 362.873 637.9C365.448 638.934 368.539 640.663 371.331 642.962C377.048 647.67 378.902 652.237 378.34 656.723L422.928 662.309C426.053 637.367 412.828 618.923 399.9 608.275C393.369 602.896 386.246 598.86 379.614 596.198C373.773 593.853 365.526 591.44 357.38 592.358L362.41 637.013ZM378.34 656.723C378.017 659.301 376.569 662.655 369.732 671.644C363.557 679.765 353.808 691.542 345.131 707.445C327.085 740.519 314.436 789.24 324.031 874.067L368.683 869.017C359.844 790.866 372.03 751.966 384.578 728.969C391.199 716.835 398.187 708.464 405.501 698.846C412.154 690.098 420.947 678.125 422.928 662.309L378.34 656.723ZM359.553 853.357C331.789 833.21 323.798 795.101 331.235 747.722C338.523 701.29 359.706 654.164 378.308 627.561L341.481 601.81C319.119 633.79 295.232 687.299 286.842 740.754C278.6 793.26 284.322 854.287 333.161 889.727L359.553 853.357ZM599.313 591.509C590.575 590.525 582.386 593.364 576.661 596.203C570.322 599.347 564.017 603.96 558.522 609.81C547.367 621.685 538.59 639.832 541.406 662.31L585.994 656.724C585.124 649.773 587.604 644.484 591.274 640.578C593.191 638.537 595.19 637.174 596.625 636.462C597.33 636.113 597.647 636.045 597.514 636.078C597.498 636.081 596.313 636.393 594.282 636.164L599.313 591.509ZM541.406 662.31C543.387 678.125 552.18 690.098 558.833 698.846C566.147 708.464 573.136 716.836 579.756 728.969C592.305 751.967 604.491 790.866 595.651 869.017L640.304 874.067C649.898 789.24 637.25 740.519 619.203 707.445C610.526 691.542 600.777 679.765 594.602 671.645C587.765 662.655 586.317 659.301 585.994 656.724L541.406 662.31ZM631.173 889.727C680.599 853.862 683.713 791.905 673.531 739.526C663.113 685.934 637.278 632.519 615.211 600.961L578.384 626.712C597.281 653.737 620.337 701.382 629.419 748.101C638.737 796.032 631.959 833.636 604.781 853.357L631.173 889.727ZM397.606 784.581C399.313 788.993 400.953 794.71 403.318 802.683C405.532 810.149 408.231 819.019 411.74 827.757C418.425 844.404 430.083 865.916 453.228 875.622L470.606 834.181C464.845 831.765 459.08 825.054 453.44 811.011C450.787 804.404 448.597 797.313 446.4 789.906C444.354 783.006 442.06 774.939 439.512 768.358L397.606 784.581ZM453.227 875.622C462.808 879.639 470.641 881.529 480.165 881.887C487.799 882.173 497.63 881.384 508.641 880.914L506.725 836.018C492.685 836.617 487.102 837.178 481.851 836.981C478.489 836.855 475.965 836.428 470.606 834.181L453.227 875.622ZM520.884 876.648C537.396 864.659 549.975 847.079 558.305 831.371C562.562 823.344 565.994 815.273 568.409 807.856C570.697 800.825 572.546 792.955 572.546 785.739H527.609C527.609 785.709 527.595 786.434 527.27 788.058C526.962 789.6 526.448 791.581 525.679 793.946C524.134 798.692 521.755 804.378 518.605 810.317C512.121 822.543 503.503 833.735 494.482 840.285L520.884 876.648ZM572.546 785.739C572.546 786.875 572.36 786.645 573.1 784.048C573.746 781.781 574.771 778.801 576.226 774.924C578.491 768.885 583.726 755.888 587.237 746.362C595.098 725.038 604.155 696.311 601.853 669.053L557.075 672.834C558.466 689.308 552.83 709.778 545.074 730.819C540.777 742.476 537.973 748.953 534.151 759.142C532.561 763.38 531.031 767.703 529.883 771.735C528.828 775.437 527.609 780.503 527.609 785.739H572.546ZM594.112 653.906C581.537 643.095 550.992 621.907 516.551 609.143C483.506 596.896 437.053 589.037 403.144 621.01L433.973 653.705C447.855 640.616 470.935 640.161 500.935 651.279C529.539 661.88 555.552 680.016 564.816 687.981L594.112 653.906ZM363.993 701.08L397.715 784.859L439.402 768.08L405.68 684.301L363.993 701.08ZM409.585 616.759L375.863 631.45L393.81 672.647L427.533 657.956L409.585 616.759ZM362.368 652.049V692.69H407.305V652.049H362.368ZM432.347 745.63C445.156 730.707 464.719 715.431 483.233 711.492C491.791 709.671 499.612 710.346 507.027 714.092C514.654 717.945 523.968 726.129 533.273 743.076L572.664 721.449C560.266 698.869 545.087 682.974 527.291 673.983C509.282 664.885 490.749 663.95 473.882 667.539C441.547 674.418 413.977 698.036 398.248 716.363L432.347 745.63ZM571.017 718.88C544.688 683.372 508.454 675.781 476.511 680.42C445.873 684.87 418.075 700.422 401.537 713.235L429.058 748.758C441.467 739.145 462.174 727.911 482.969 724.891C502.459 722.06 520.587 726.316 534.92 745.645L571.017 718.88ZM422.812 710.574C437.007 694.042 458.861 676.882 479.85 672.418C489.646 670.335 498.75 671.088 507.402 675.457C516.265 679.933 526.769 689.283 537.128 708.142L576.515 686.508C563.061 662.014 546.691 644.956 527.659 635.345C508.416 625.627 488.603 624.614 470.503 628.464C435.698 635.866 405.837 661.363 388.719 681.299L422.812 710.574ZM574.867 683.939C546.56 645.779 507.685 637.617 473.246 642.617C440.109 647.427 409.955 664.274 392.008 678.172L419.523 713.701C433.339 703.001 456.404 690.47 479.702 687.088C501.696 683.895 522.468 688.727 538.776 710.711L574.867 683.939ZM451.19 775.386C460.766 764.512 475.099 753.786 488.093 751.092C493.937 749.88 498.957 750.377 503.628 752.677C508.464 755.058 515.003 760.406 521.829 772.524L560.982 750.468C550.928 732.622 538.417 719.717 523.479 712.362C508.377 704.925 492.899 704.202 478.969 707.09C452.413 712.597 430.086 731.356 417.466 745.687L451.19 775.386ZM559.287 747.892C537.392 719.112 507.277 713.128 481.301 716.805C456.492 720.317 434.128 732.533 420.788 742.605L447.868 778.467C457.043 771.539 472.405 763.449 487.599 761.299C501.627 759.313 513.793 762.31 523.524 775.1L559.287 747.892ZM462.166 804.889C470.118 795.662 481.029 787.651 489.516 785.945C492.899 785.265 495.127 785.705 497.158 786.896C499.541 788.293 503.991 792.142 508.737 802.568L549.635 783.949C542.373 767.997 532.624 755.598 519.884 748.129C506.793 740.455 492.977 739.413 480.662 741.889C457.752 746.493 438.652 763.34 428.127 775.552L462.166 804.889ZM548.21 781.302C540.181 768.527 529.702 759.576 517.512 754.513C505.542 749.541 493.353 748.903 482.513 750.306C461.46 753.03 442.538 763.782 431.349 772.487L458.944 807.954C466.141 802.354 477.686 796.243 488.281 794.871C493.264 794.227 497.194 794.733 500.275 796.012C503.135 797.201 506.639 799.608 510.163 805.214L548.21 781.302ZM460.926 829.484C468.405 821.362 479.099 813.892 487.974 812.2C491.756 811.478 494.528 811.908 496.958 813.164C499.543 814.499 503.888 817.895 508.623 826.854L548.353 805.856C540.512 791.022 530.309 779.814 517.584 773.239C504.703 766.585 491.401 765.799 479.555 768.058C457.176 772.327 438.401 787.606 427.868 799.045L460.926 829.484ZM546.708 803.207C528.786 778.371 503.198 772.96 481.464 775.686C460.889 778.267 442.327 788.015 431.211 796.072L457.583 832.457C464.541 827.414 476.078 821.651 487.056 820.274C496.875 819.042 504.295 821.226 510.268 829.503L546.708 803.207ZM431.773 845.908C442.666 853.611 460.473 862.645 480.528 865.235C501.392 867.93 526.141 863.617 545.543 842.166L512.216 812.022C505.093 819.897 496.496 821.987 486.284 820.668C475.264 819.245 464.269 813.85 457.721 809.219L431.773 845.908ZM514.646 809.708C508.716 814.564 499.087 816.84 486.102 815.695C473.437 814.579 461.179 810.462 454.309 807.231L435.185 847.896C446.005 852.985 463.389 858.804 482.156 860.459C500.602 862.085 524.194 859.967 543.112 844.479L514.646 809.708ZM445.438 859.557C453.566 865.056 466.706 871.438 481.631 873.282C497.202 875.205 516.467 872.205 531.716 856.078L499.065 825.204C496.228 828.203 492.757 829.378 487.141 828.684C480.879 827.91 474.38 824.882 470.617 822.337L445.438 859.557ZM501.538 822.951C499.499 824.547 494.943 826.104 486.767 825.415C478.971 824.757 471.34 822.298 467.245 820.456L448.81 861.438C456.777 865.022 469.356 869.043 482.991 870.193C496.244 871.311 514.339 870.002 529.243 858.331L501.538 822.951ZM91.5399 631.538C94.3817 618.975 98.7068 600.438 102.453 585.603C104.345 578.112 106.003 571.911 107.206 567.945C107.878 565.731 108.14 565.12 108.019 565.397C107.959 565.534 107.732 566.051 107.333 566.761C107.105 567.169 106.009 569.148 103.927 571.241C103.061 572.111 94.3132 580.921 81.2496 576.669C75.2494 574.717 71.6821 570.823 69.9019 568.29C68.1544 565.804 67.3244 563.53 66.9495 562.358L109.751 548.669C109.337 547.376 108.463 545.007 106.667 542.451C104.838 539.848 101.217 535.911 95.1575 533.939C81.9762 529.648 73.0915 538.52 72.07 539.547C69.8316 541.797 68.5616 544.027 68.1414 544.776C67.5513 545.828 67.1144 546.778 66.8289 547.432C65.805 549.78 64.8998 552.608 64.205 554.898C62.6754 559.939 60.8028 567.002 58.8841 574.6C55.0095 589.942 50.5928 608.88 47.7101 621.623L91.5399 631.538ZM66.9495 562.358C66.8412 562.019 67.606 564.907 68.6808 570.846C69.6636 576.277 70.7222 583.256 71.3984 590.563C72.0832 597.961 72.3231 605.149 71.8716 611.174C71.6478 614.161 71.2768 616.536 70.8394 618.317C70.3865 620.161 69.9976 620.812 70.0487 620.727L108.536 643.924C114.188 634.547 116.019 623.391 116.683 614.531C117.39 605.101 116.957 595.203 116.144 586.421C114.564 569.341 111.204 553.212 109.751 548.669L66.9495 562.358ZM70.0487 620.727C68.7475 622.886 69.7121 620.13 74.2295 618.3C76.808 617.256 79.8858 616.81 83.0592 617.293C86.0758 617.752 88.2821 618.908 89.6012 619.805C91.865 621.345 92.4099 622.696 91.9478 621.899C91.6681 621.418 91.2981 620.588 91.0258 619.736L48.2243 633.425C49.2884 636.752 50.8801 640.662 53.0825 644.457C55.1024 647.937 58.6497 653.101 64.3314 656.964C70.9359 661.456 80.7169 664.155 91.0976 659.951C99.7586 656.444 105.177 649.496 108.536 643.924L70.0487 620.727ZM141.595 652.171L143.57 545.454L98.6402 544.622L96.6658 651.34L141.595 652.171ZM99.8959 552.455C108.469 576.969 119.727 612.588 125.934 640.226C129.159 654.585 130.493 664.586 130.307 669.571C130.267 670.631 130.174 670.687 130.33 670.083C130.441 669.65 131.118 667.086 133.595 664.266C136.588 660.86 141.13 658.358 146.315 658.01C150.686 657.716 153.553 659.086 154.144 659.384L133.925 699.516C137.439 701.286 142.819 703.283 149.327 702.846C156.648 702.354 162.949 698.939 167.354 693.925C171.245 689.497 172.988 684.631 173.85 681.276C174.757 677.752 175.1 674.268 175.213 671.245C175.636 659.9 173.036 644.882 169.779 630.38C163.022 600.295 151.126 562.819 142.314 537.621L99.8959 552.455ZM154.144 659.384C144.549 654.55 141.312 650.81 140.601 649.808C140.272 649.344 140.681 649.753 141.001 651.12C141.279 652.306 141.689 655.129 140.448 658.856L97.8135 644.655C94.0252 656.028 98.0581 667.503 103.949 675.807C110.205 684.626 120.14 692.571 133.925 699.516L154.144 659.384ZM193.098 732.403C194.541 736.916 196.974 740.134 198.383 741.822C199.978 743.732 201.665 745.319 203.075 746.538C205.893 748.975 209.073 751.197 211.881 753.017C217.578 756.712 223.879 760.123 228.016 762.19L248.107 721.994C244.993 720.438 240.237 717.847 236.328 715.312C234.332 714.018 233.072 713.069 232.469 712.548C232.168 712.287 232.399 712.448 232.876 713.019C233.167 713.367 234.818 715.333 235.899 718.714L193.098 732.403ZM259.455 748.962C265.552 729.974 271.337 684.303 248.809 641.774L209.099 662.809C224.368 691.634 220.249 724.074 216.669 735.223L259.455 748.962ZM206.6 654.562C208.499 673.257 206.697 687.102 204.152 696.409C201.449 706.297 198.219 710.068 198.485 709.797L230.512 741.32C243.348 728.278 256.042 696.634 251.308 650.021L206.6 654.562ZM868.396 675.846C870.513 662.953 873.534 643.743 875.707 628.069C876.783 620.307 877.702 613.058 878.178 607.811C878.394 605.428 878.618 602.468 878.551 599.907C878.532 599.194 878.484 598.149 878.332 596.953C878.224 596.101 877.885 593.556 876.656 590.63C876.095 589.295 871.194 577.735 857.367 576.759C851.011 576.311 846.175 578.599 843.503 580.324C840.877 582.018 839.178 583.885 838.308 584.928L872.832 613.694C872.044 614.64 870.42 616.435 867.867 618.083C865.265 619.761 860.497 622.029 854.202 621.585C840.498 620.618 835.702 609.166 835.226 608.035C834.082 605.312 833.81 603.067 833.752 602.603C833.649 601.796 833.633 601.231 833.629 601.081C833.621 600.779 833.634 601.444 833.425 603.748C833.05 607.876 832.257 614.245 831.196 621.898C829.094 637.054 826.139 655.858 824.053 668.568L868.396 675.846ZM838.308 584.928C835.255 588.592 826.082 602.278 818.2 617.513C814.148 625.346 810.028 634.356 807.14 643.361C804.427 651.822 801.934 662.848 803.649 673.662L848.031 666.623C848.047 666.721 847.931 665.972 848.204 664.093C848.467 662.278 849.016 659.938 849.931 657.085C851.776 651.332 854.699 644.76 858.113 638.161C861.484 631.644 865.087 625.574 868.038 620.91C871.266 615.81 873.059 613.421 872.832 613.694L838.308 584.928ZM803.649 673.662C804.668 680.087 807.079 688.562 813.788 695.066C821.829 702.862 831.908 704.035 839.716 702.354C846.433 700.908 851.66 697.455 854.839 694.989C858.306 692.299 861.25 689.274 863.486 686.59L828.963 657.824C828.391 658.511 827.736 659.141 827.296 659.482C826.568 660.047 827.581 659 830.257 658.424C831.816 658.088 834.296 657.845 837.264 658.553C840.386 659.297 843.071 660.867 845.068 662.804C848.567 666.196 848.426 669.113 848.031 666.623L803.649 673.662ZM811.863 684.994L850.125 585.352L808.175 569.243L769.912 668.885L811.863 684.994ZM812.281 562.456C794.648 582.497 769.544 612.759 751.98 638.101C743.513 650.318 735.462 663.259 731.591 673.932C730.56 676.776 729.57 680.133 729.085 683.74C728.625 687.173 728.412 692.338 730.354 697.903C732.552 704.204 737.109 709.737 743.709 712.943C749.576 715.793 755.312 715.964 759.234 715.643L755.573 670.855C756.233 670.801 759.404 670.608 763.345 672.523C768.019 674.793 771.289 678.818 772.782 683.099C774.019 686.643 773.683 689.273 773.623 689.717C773.54 690.335 773.475 690.248 773.837 689.251C775.537 684.561 780.531 675.794 788.914 663.699C805.05 640.417 828.865 611.637 846.019 592.139L812.281 562.456ZM759.233 715.643C774.618 714.386 786.81 710.755 795.921 704.933C804.5 699.45 812.549 690.33 813.311 678.368L768.464 675.512C768.714 671.591 770.154 669.128 770.858 668.134C771.668 666.987 772.201 666.762 771.722 667.068C770.686 667.73 766.281 669.98 755.573 670.855L759.233 715.643ZM657.517 695.124C659.789 692.397 662.058 691.196 662.459 690.982C663.115 690.633 663.39 690.57 663.013 690.699C662.258 690.955 660.733 691.361 658.398 691.811C653.823 692.691 648.441 693.306 644.971 693.578L648.489 738.377C653.1 738.015 660.221 737.221 666.889 735.938C670.175 735.306 673.957 734.442 677.484 733.242C679.248 732.642 681.408 731.805 683.603 730.634C685.544 729.599 689.007 727.531 692.04 723.89L657.517 695.124ZM669.136 717.649C670.007 705.971 678.377 674.36 703.357 653.383L674.459 618.97C637.603 649.92 625.807 694.42 624.324 714.307L669.136 717.649ZM669.045 625.674C647.145 667.094 647.021 701.19 654.017 718.098L695.54 700.917C695.686 701.268 694.109 696.559 695.318 686.38C696.457 676.799 699.987 663.291 708.771 646.679L669.045 625.674ZM320.993 533.662C322.95 536.672 323.102 538.883 322.726 537.041C322.529 536.081 322.274 534.388 322.021 531.836C321.521 526.791 321.185 520.012 320.997 512.299C320.625 496.964 320.871 479.458 321.216 468.045L276.3 466.684C275.938 478.621 275.675 496.99 276.073 513.391C276.272 521.546 276.642 529.6 277.303 536.269C277.63 539.575 278.069 542.96 278.698 546.039C279.147 548.234 280.255 553.444 283.316 558.152L320.993 533.662ZM315.485 482.366L363.46 428.871L330.006 398.869L282.031 452.363L315.485 482.366ZM340.422 435.434L392.642 450.718L405.265 407.59L353.045 392.306L340.422 435.434ZM386.123 447.599L405.652 461.185L431.314 424.295L411.785 410.71L386.123 447.599ZM397.867 433.806L381.309 472.016L422.542 489.884L439.099 451.674L397.867 433.806ZM405.837 458.825L328.992 445.239L321.169 489.49L398.014 503.076L405.837 458.825ZM303.512 461.069L280.586 539.612L323.723 552.203L346.649 473.66L303.512 461.069ZM675.923 549.661C678.983 544.953 680.091 539.743 680.54 537.548C681.169 534.469 681.608 531.084 681.936 527.778C682.597 521.109 682.967 513.055 683.165 504.9C683.564 488.498 683.3 470.129 682.939 458.192L638.022 459.554C638.368 470.967 638.614 488.473 638.241 503.808C638.054 511.521 637.718 518.299 637.218 523.345C636.965 525.897 636.709 527.59 636.513 528.549C636.136 530.392 636.289 528.181 638.245 525.171L675.923 549.661ZM677.207 443.872L629.233 390.378L595.778 420.38L643.753 473.874L677.207 443.872ZM608.666 383.241L535.218 395.977L542.896 440.254L616.344 427.517L608.666 383.241ZM517.676 411.211L504.515 451.969L547.277 465.777L560.439 425.02L517.676 411.211ZM516.978 479.496L548.395 493.082L566.231 451.836L534.814 438.25L516.978 479.496ZM561.225 494.584L638.07 480.998L630.246 436.748L553.401 450.333L561.225 494.584ZM612.589 465.169L635.515 543.712L678.652 531.12L655.726 452.577L612.589 465.169Z" fill="#8D8D8D" mask="url(#path-1-outside-1_428_920)"/>
</svg>
