<svg width="1001" height="1001" viewBox="0 0 1001 1001" fill="none" xmlns="http://www.w3.org/2000/svg">
<ellipse cx="493.889" cy="470.644" rx="214.701" ry="272.125" fill="#AE2328"/>
<path d="M433.763 245.976C464.198 306.692 392.596 373.797 357.161 397.094L349.929 584.942C330.255 632.967 289.348 722.014 274.558 726.817C256.07 732.82 176.426 682.241 175.004 672.808C173.866 665.261 64.9087 521.122 8.14062 445.083C29.9471 361.899 73.2233 191.23 79.4808 184.712C87.3027 176.565 290.16 123.851 298.338 123.851C306.515 123.851 395.72 170.081 433.763 245.976Z" fill="#AE2328"/>
<path d="M127.512 294.754C196.237 316.364 334.559 359.57 338.055 359.512C341.362 368.003 341.77 384.144 297.617 458.645C296.085 463.87 290.16 467.558 289.474 489.5C288.617 516.927 298.902 550.353 301.902 557.638C304.302 563.466 306.045 600.207 299.331 602.635L269.333 653.632L269.333 562.781L269.333 501.07L280.566 436.789C250.253 378.75 171.102 320.65 127.512 294.754Z" fill="#AE2328"/>
<path d="M557.903 245.169C526.99 305.885 600.112 371.225 636.106 394.523L643.753 582.927C663.736 630.951 704.504 724.835 719.527 729.638C738.306 735.641 828.116 674.18 829.56 664.746C830.716 657.2 933.925 512.254 991.587 436.216C981.511 412.033 925.023 194.385 915.41 180.681C905.797 166.977 695.589 120.223 687.283 120.223C678.977 120.223 596.545 169.274 557.903 245.169Z" fill="#AE2328"/>
<path d="M316.044 619.778L327.615 535.783L373.897 572.209L429.608 657.918L577.027 654.918L616.025 565.781L667.878 531.498C669.164 555.353 670.964 610.607 667.878 628.777C664.793 646.947 612.596 693.202 586.884 714.057C559.457 723.2 489.604 738.227 429.608 725.2C369.612 712.172 328.472 649.633 316.044 619.778Z" fill="#AE2328"/>
<path d="M865.027 291.754C796.302 313.364 657.98 356.57 654.484 356.512C651.177 365.003 646.484 373.859 690.637 448.359C692.169 453.584 698.57 455.645 700.448 486.928C702.092 514.319 693.637 547.353 690.637 554.638C688.237 560.466 686.494 597.207 693.208 599.635L723.206 650.632L723.206 559.781L723.206 498.07L711.973 433.789C742.286 375.75 821.437 317.649 865.027 291.754Z" fill="#AE2328"/>
<path d="M605.31 506.331L623.309 510.927L658.45 507.945L677.306 522.926L653.644 439.373L577.956 453.68C568.512 471.193 549.205 506.565 547.533 507.945C545.86 509.325 570.428 507.444 582.92 506.331L605.31 506.331Z" fill="#AE2328"/>
<path d="M388.956 514.046L370.957 518.641L335.816 515.659L316.961 530.64L340.622 447.087L416.31 461.394C425.754 478.908 445.061 514.279 446.734 515.659C448.406 517.039 423.839 515.158 411.346 514.046L388.956 514.046Z" fill="#AE2328"/>
<circle cx="380.755" cy="498.071" r="27.8554" fill="#AE2328"/>
<circle cx="372.183" cy="486.929" r="16.7132" fill="#AE2328"/>
<circle cx="619.882" cy="498.071" r="27.8554" fill="#AE2328"/>
<circle cx="611.311" cy="486.929" r="16.7132" fill="#AE2328"/>
<path d="M477.192 876.638C444.729 860.382 438.056 800.936 428.498 771.452L390.625 659.095V604.59L428.498 584.888C482.17 524.454 584.68 604.75 609.207 629.93C613.355 688.579 576.203 761.89 576.203 783.883C576.203 804.245 557.267 856.557 528.591 881.419C500.457 882.853 493.97 885.039 477.192 876.638Z" fill="#AE2328"/>
<path d="M428.321 537.497C419.322 540.926 380.324 564.924 326.756 534.926C365.154 576.409 417.465 656.918 415.894 679.345L435.178 626.634C430.321 610.492 433.537 535.51 428.321 537.497Z" fill="#AE2328"/>
<path d="M589.455 540.068C593.226 535.954 610.882 551.639 671.307 530.64C632.909 572.123 580.598 656.918 582.17 679.345L562.885 626.634C567.742 610.492 585.684 544.182 589.455 540.068Z" fill="#AE2328"/>
<path d="M427.315 649.027C431.036 619.323 374.717 597.039 364.035 598.243C322.687 657.377 288.665 814.681 381.367 857.808C368.872 701.424 422.663 686.158 427.315 649.027Z" fill="#AE2328"/>
<path d="M582.188 641.888C578.466 612.184 604.454 590.59 615.136 591.794C647.696 612.301 740.082 792.917 615.136 864.66C633.743 700.15 586.84 679.019 582.188 641.888Z" fill="#AE2328"/>
<path d="M440.419 735.248C465.805 695.28 524.273 641.741 562.885 736.77C526.714 670.852 466.17 708.29 440.419 735.248Z" fill="#AE2328"/>
<path d="M431.942 693.104C459.797 649.268 523.949 590.548 566.314 694.773C526.627 622.475 460.196 663.536 431.942 693.104Z" fill="#AE2328"/>
<path d="M457.35 770.756C477.095 740.458 522.57 699.872 552.601 771.91C524.468 721.94 477.378 750.32 457.35 770.756Z" fill="#AE2328"/>
<path d="M466.972 806.439C483.409 780.668 520.366 746.675 541.73 810.09C521.177 765.898 483.328 789.243 466.972 806.439Z" fill="#AE2328"/>
<path d="M466.307 835.341C482.329 811.827 518.736 780.65 541.11 837.854C519.855 798.051 482.385 819.594 466.307 835.341Z" fill="#AE2328"/>
<path d="M466.618 851.327C482.132 866.154 517.862 886.015 541.458 850.762C519.354 875.216 482.354 861.328 466.618 851.327Z" fill="#AE2328"/>
<path d="M478.431 867.416C489.009 877.085 513.37 890.038 529.458 867.047C514.387 882.995 489.16 873.938 478.431 867.416Z" fill="#AE2328"/>
<path d="M472.034 846.95C478.462 846.95 507.174 834.314 536.315 846.95C520.202 853.854 486.747 849.827 472.034 846.95Z" fill="#AE2328"/>
<path d="M67.0592 377.65C67.0592 373.536 40.4895 417.647 27.2046 440.217C27.2046 449.074 30.6329 463.787 44.3463 451.788C61.4881 436.789 67.0592 382.793 67.0592 377.65Z" fill="#AE2328"/>
<path d="M101.771 377.65L67.0592 479.644C64.3451 483.358 63.6308 495.414 82.4868 513.927C101.343 532.44 103.2 430.79 101.771 377.65Z" fill="#AE2328"/>
<path d="M153.625 603.064C147.768 597.35 136.055 584.722 136.055 579.923C144.483 575.494 163.567 556.096 172.481 513.927C179.681 554.039 162.91 590.065 153.625 603.064Z" fill="#AE2328"/>
<path d="M928.896 357.348C928.896 353.234 955.465 397.346 968.75 419.916C968.75 428.772 965.322 443.486 951.608 431.486C934.467 416.487 928.896 362.491 928.896 357.348Z" fill="#AE2328"/>
<path d="M894.184 357.348L928.896 459.342C931.61 463.056 932.324 475.112 913.468 493.625C894.612 512.138 892.755 410.488 894.184 357.348Z" fill="#AE2328"/>
<path d="M842.33 582.762C848.187 577.048 859.9 564.421 859.9 559.621C851.472 555.193 832.388 535.794 823.474 493.625C816.274 533.737 833.045 569.763 842.33 582.762Z" fill="#AE2328"/>
<path d="M314.759 447.931C314.045 471.501 313.731 520.355 318.188 527.212L341.329 447.931L418.895 461.645L435.609 423.076L415.896 409.362L363.185 393.935L314.759 447.931Z" fill="#AE2328"/>
<path d="M679.878 439.361C680.592 462.931 680.906 511.785 676.45 518.641L653.308 439.361L575.742 453.074L544.03 439.361L557.314 398.221L631.452 385.364L679.878 439.361Z" fill="#AE2328"/>
<ellipse cx="494.221" cy="472.491" rx="201.929" ry="255.938" fill="#858585"/>
<path d="M429.829 266.2C458.453 323.305 398.954 381.404 365.626 403.316L343.556 568.257C325.053 613.425 284.569 704.889 270.659 709.406C253.27 715.051 190.739 669.481 189.402 660.609C188.331 653.511 81.2816 508.706 27.8904 437.191C48.3997 358.955 90.8898 200.95 96.775 194.82C104.132 187.157 297.744 139.167 305.435 139.167C313.126 139.167 394.049 194.82 429.829 266.2Z" fill="#858585"/>
<path d="M156.866 515.617C160.224 450.592 164.927 318.525 156.866 310.464L302.367 390.268C298.337 452.607 290.276 579.3 290.276 587.361C290.276 595.422 283.021 633.174 283.021 642.982L156.866 515.617Z" fill="#7C7C7C"/>
<path d="M149.637 307.063C214.273 327.388 344.367 368.023 347.655 367.969C350.766 375.954 351.149 391.136 309.622 461.204C308.181 466.119 302.609 469.588 301.964 490.224C301.158 516.02 310.831 547.458 313.653 554.309C315.91 559.791 317.549 594.346 311.235 596.63L283.021 644.593L283.021 559.146L283.021 501.107L293.586 440.649C265.076 386.063 190.634 331.418 149.637 307.063Z" fill="#767676"/>
<path d="M562.763 263.782C533.689 320.886 594.125 378.986 627.978 400.897L650.395 565.839C669.189 611.006 710.311 702.47 724.44 706.987C742.103 712.633 805.618 667.062 806.977 658.19C808.064 651.093 916.8 506.288 971.032 434.773C950.199 356.536 907.04 198.531 901.062 192.401C893.59 184.739 696.928 136.749 689.116 136.749C681.304 136.749 599.107 192.401 562.763 263.782Z" fill="#858585"/>
<path d="M836.01 510.377C832.651 445.352 827.949 313.285 836.01 305.224L690.508 385.028C694.539 447.367 702.6 574.06 702.6 582.121C702.6 590.182 709.451 628.337 709.451 638.145L836.01 510.377Z" fill="#7C7C7C"/>
<path d="M326.954 612.753L337.836 533.755L381.366 568.014L433.763 648.625L572.412 645.803L609.09 561.969L657.859 529.724C659.069 552.161 660.761 604.128 657.859 621.217C654.957 638.307 605.866 681.809 581.683 701.424C555.887 710.023 490.19 724.157 433.763 711.904C377.335 699.651 338.642 640.832 326.954 612.753Z" fill="#767676"/>
<path d="M843.282 304.243C778.646 324.567 648.551 365.203 645.263 365.148C642.153 373.134 637.739 381.463 679.266 451.532C680.706 456.446 686.727 458.384 688.493 487.807C690.039 513.568 682.087 544.637 679.266 551.489C677.009 556.97 675.369 591.525 681.684 593.809L709.898 641.772L709.898 556.325L709.898 498.286L699.333 437.828C727.842 383.242 802.285 328.597 843.282 304.243Z" fill="#767676"/>
<path d="M599.014 506.055L615.942 510.377L648.993 507.573L666.727 521.663L644.473 443.08L573.287 456.536C564.405 473.007 546.247 506.275 544.674 507.573C543.101 508.87 566.207 507.102 577.956 506.055L599.014 506.055Z" fill="#6D6D6D"/>
<path d="M395.531 513.31L378.602 517.633L345.552 514.828L327.818 528.918L350.072 450.335L421.257 463.791C430.14 480.263 448.298 513.53 449.871 514.828C451.444 516.126 428.338 514.357 416.589 513.31L395.531 513.31Z" fill="#6D6D6D"/>
<circle cx="387.815" cy="498.286" r="26.1984" fill="#AE2328"/>
<circle cx="379.755" cy="487.806" r="15.719" fill="#FDFDFD"/>
<circle cx="612.719" cy="498.286" r="26.1984" fill="#AE2328"/>
<circle cx="604.657" cy="487.806" r="15.719" fill="#FDFDFD"/>
<path d="M432.554 535.367C424.09 538.591 387.412 561.162 337.031 532.948C373.144 571.964 422.343 647.684 420.866 668.777L439.003 619.201C434.435 604.02 437.459 533.498 432.554 535.367Z" fill="#7C7C7C"/>
<path d="M584.101 537.785C587.647 533.915 604.253 548.667 661.083 528.918C624.97 567.933 575.771 647.684 577.249 668.777L559.111 619.201C563.679 604.02 580.554 541.654 584.101 537.785Z" fill="#7C7C7C"/>
<path d="M422.46 633.548C425.96 605.61 393.831 589.856 383.785 590.988C344.896 646.604 298.21 782.063 370.932 834.834C353.432 680.111 418.085 668.47 422.46 633.548Z" fill="#B7B2B2"/>
<path d="M577.267 633.548C573.767 605.61 598.642 589.05 608.688 590.182C647.577 645.798 701.518 782.063 628.795 834.834C646.295 680.11 581.642 668.47 577.267 633.548Z" fill="#B7B2B2"/>
<path d="M480.638 861.435C453.197 847.731 447.557 797.619 439.477 772.764L407.462 678.047V632.099L439.477 615.49C484.846 564.544 571.498 632.233 592.232 653.46C595.738 702.901 564.333 764.703 564.333 783.243C564.333 800.408 548.326 844.507 524.086 865.466C500.304 866.675 494.821 868.518 480.638 861.435Z" fill="#858585"/>
<path d="M436.381 721.355C463.474 683.764 525.872 633.41 567.079 722.786C528.476 660.789 463.862 696 436.381 721.355Z" fill="#7E7E7E"/>
<path d="M427.331 681.717C457.058 640.489 525.523 585.261 570.735 683.287C528.38 615.29 457.485 653.908 427.331 681.717Z" fill="#7E7E7E"/>
<path d="M454.447 754.75C475.519 726.254 524.051 688.082 556.101 755.835C526.077 708.837 475.822 735.529 454.447 754.75Z" fill="#7E7E7E"/>
<path d="M464.718 788.311C482.26 764.073 521.701 732.102 544.501 791.745C522.567 750.182 482.173 772.138 464.718 788.311Z" fill="#7E7E7E"/>
<path d="M464.007 815.493C481.106 793.378 519.961 764.055 543.838 817.857C521.154 780.421 481.165 800.682 464.007 815.493Z" fill="#7E7E7E"/>
<path d="M464.338 830.529C480.895 844.473 519.027 863.153 544.209 829.998C520.619 852.997 481.133 839.935 464.338 830.529Z" fill="#7E7E7E"/>
<path d="M476.946 845.66C488.235 854.754 514.234 866.936 531.404 845.313C515.319 860.313 488.397 851.794 476.946 845.66Z" fill="#7E7E7E"/>
<path d="M470.119 826.412C476.979 826.412 507.622 814.527 538.721 826.412C521.525 832.905 485.821 829.117 470.119 826.412Z" fill="#7E7E7E"/>
<path d="M92.7814 385.028C92.7814 381.159 67.7922 422.647 55.2976 443.874C55.2976 452.204 58.522 466.042 71.4197 454.756C87.5418 440.65 92.7814 389.865 92.7814 385.028Z" fill="#888888"/>
<path d="M125.429 385.028L92.7814 480.955C90.2288 484.448 89.557 495.787 107.291 513.199C125.026 530.611 126.772 435.007 125.429 385.028Z" fill="#888888"/>
<path d="M174.198 597.034C168.69 591.66 157.673 579.783 157.673 575.269C165.599 571.104 183.549 552.859 191.932 513.199C198.703 550.925 182.931 584.808 174.198 597.034Z" fill="#888888"/>
<path d="M903.35 365.935C903.35 362.065 928.339 403.553 940.833 424.78C940.833 433.11 937.609 446.948 924.711 435.662C908.589 421.556 903.35 370.771 903.35 365.935Z" fill="#888888"/>
<path d="M870.702 365.935L903.35 461.861C905.902 465.354 906.574 476.693 888.84 494.105C871.106 511.517 869.359 415.913 870.702 365.935Z" fill="#888888"/>
<path d="M821.933 577.94C827.442 572.566 838.458 560.689 838.458 556.175C830.532 552.01 812.582 533.765 804.199 494.105C797.428 531.831 813.2 565.714 821.933 577.94Z" fill="#888888"/>
<path d="M325.745 451.129C325.073 473.297 324.778 519.244 328.969 525.693L350.734 451.129L423.686 464.026L439.405 427.752L420.865 414.854L371.29 400.344L325.745 451.129Z" fill="#8F8F8F"/>
<path d="M669.144 443.067C669.816 465.235 670.111 511.183 665.919 517.632L644.155 443.067L571.202 455.965L541.376 443.067L553.871 404.374L623.599 392.283L669.144 443.067Z" fill="#8F8F8F"/>
<path d="M119.785 215.343L280.2 169.395C300.889 180.278 365.969 212.441 418.849 254.036C476.566 219.213 553.603 239.526 582.891 254.036C624.809 225.823 698.567 169.395 716.301 169.395C734.036 169.395 824.722 200.027 867.849 215.343H772.326C740.35 238.989 674.223 287.006 665.517 289.908C654.635 293.535 620.778 297.566 607.074 297.566C531.301 261.694 460.364 254.036 374.917 308.851C370.677 311.571 319.296 288.699 303.98 297.566L222.966 231.868L119.785 215.343Z" fill="#959595"/>
</svg>
