<svg width="400" height="400" viewBox="0 0 400 400" fill="none" xmlns="http://www.w3.org/2000/svg">
<ellipse cx="197.204" cy="188.099" rx="85.8379" ry="108.797" fill="#AE2328"/>
<path d="M173.165 98.2762C185.333 122.551 156.707 149.379 142.539 158.694L139.648 233.796C131.782 252.996 115.428 288.598 109.514 290.518C102.123 292.918 70.2811 272.696 69.7125 268.925C69.2576 265.908 25.696 208.28 3 177.88C11.7183 144.623 29.0202 76.3885 31.522 73.7828C34.6492 70.5256 115.752 49.4504 119.022 49.4504C122.291 49.4504 157.955 67.9331 173.165 98.2762Z" fill="#AE2328"/>
<path d="M50.7251 117.778C78.2013 126.418 133.503 143.692 134.901 143.668C136.223 147.063 136.386 153.516 118.733 183.302C118.121 185.391 115.752 186.866 115.478 195.638C115.135 206.603 119.247 219.967 120.447 222.88C121.406 225.21 122.103 239.899 119.419 240.87L107.425 261.258L107.425 224.936L107.425 200.264L111.916 174.564C99.7972 151.36 68.1524 128.131 50.7251 117.778Z" fill="#AE2328"/>
<path d="M222.797 97.9538C210.437 122.228 239.672 148.351 254.062 157.666L257.12 232.99C265.109 252.19 281.408 289.726 287.414 291.646C294.922 294.046 330.828 269.473 331.406 265.702C331.868 262.685 373.131 204.735 396.185 174.335C392.156 164.666 369.572 77.65 365.729 72.1712C361.886 66.6924 277.844 48 274.523 48C271.202 48 238.246 67.6106 222.797 97.9538Z" fill="#AE2328"/>
<path d="M126.101 247.723L130.727 214.142L149.231 228.705L171.504 262.972L230.442 261.773L246.034 226.135L266.765 212.429C267.279 221.966 267.999 244.057 266.765 251.321C265.531 258.586 244.663 277.078 234.383 285.417C223.418 289.072 195.49 295.08 171.504 289.871C147.517 284.663 131.069 259.66 126.101 247.723Z" fill="#AE2328"/>
<path d="M345.585 116.579C318.109 125.218 262.808 142.492 261.41 142.469C260.088 145.864 258.211 149.404 275.864 179.19C276.476 181.279 279.036 182.102 279.786 194.61C280.444 205.561 277.063 218.768 275.864 221.68C274.904 224.01 274.208 238.699 276.892 239.67L288.885 260.059L288.885 223.736L288.885 199.064L284.394 173.364C296.513 150.16 328.158 126.932 345.585 116.579Z" fill="#AE2328"/>
<path d="M241.75 202.367L248.946 204.204L262.996 203.012L270.534 209.002L261.074 175.597L230.814 181.317C227.038 188.319 219.319 202.46 218.651 203.012C217.982 203.564 227.804 202.812 232.799 202.367L241.75 202.367Z" fill="#AE2328"/>
<path d="M155.251 205.451L148.055 207.289L134.006 206.096L126.467 212.086L135.927 178.681L166.187 184.401C169.963 191.403 177.682 205.545 178.351 206.096C179.019 206.648 169.197 205.896 164.203 205.451L155.251 205.451Z" fill="#AE2328"/>
<circle cx="151.972" cy="199.065" r="11.1367" fill="#AE2328"/>
<circle cx="148.545" cy="194.61" r="6.68199" fill="#AE2328"/>
<circle cx="247.576" cy="199.065" r="11.1367" fill="#AE2328"/>
<circle cx="244.149" cy="194.61" r="6.68199" fill="#AE2328"/>
<path d="M190.528 350.417C177.549 343.918 174.882 320.151 171.06 308.363L155.918 263.443V241.651L171.06 233.774C192.518 209.613 233.502 241.715 243.308 251.782C244.967 275.23 230.113 304.54 230.113 313.333C230.113 321.474 222.542 342.388 211.078 352.328C199.829 352.902 197.236 353.776 190.528 350.417Z" fill="#AE2328"/>
<path d="M170.989 214.827C167.391 216.198 151.8 225.793 130.384 213.799C145.735 230.384 166.649 262.572 166.021 271.539L173.731 250.465C171.789 244.011 173.075 214.033 170.989 214.827Z" fill="#AE2328"/>
<path d="M235.411 215.855C236.919 214.21 243.978 220.481 268.136 212.086C252.784 228.671 231.87 262.572 232.498 271.539L224.788 250.465C226.73 244.011 233.903 217.5 235.411 215.855Z" fill="#AE2328"/>
<path d="M170.587 259.417C172.075 247.541 149.558 238.632 145.288 239.114C128.756 262.756 115.154 325.646 152.217 342.889C147.221 280.366 168.727 274.262 170.587 259.417Z" fill="#AE2328"/>
<path d="M232.506 256.563C231.018 244.687 241.408 236.054 245.679 236.535C258.696 244.734 295.632 316.945 245.679 345.628C253.118 279.857 234.365 271.408 232.506 256.563Z" fill="#AE2328"/>
<path d="M175.826 293.889C185.976 277.91 209.351 256.504 224.788 294.497C210.327 268.143 186.121 283.111 175.826 293.889Z" fill="#AE2328"/>
<path d="M172.437 277.039C183.573 259.514 209.222 236.037 226.159 277.707C210.292 248.802 183.733 265.218 172.437 277.039Z" fill="#AE2328"/>
<path d="M182.595 308.085C190.489 295.972 208.67 279.745 220.677 308.546C209.429 288.568 190.602 299.914 182.595 308.085Z" fill="#AE2328"/>
<path d="M186.442 322.351C193.014 312.048 207.789 298.457 216.331 323.811C208.113 306.143 192.981 315.476 186.442 322.351Z" fill="#AE2328"/>
<path d="M186.176 333.906C192.582 324.505 207.138 312.041 216.083 334.911C207.585 318.997 192.604 327.61 186.176 333.906Z" fill="#AE2328"/>
<path d="M186.3 340.297C192.503 346.225 206.788 354.166 216.222 340.072C207.384 349.848 192.592 344.296 186.3 340.297Z" fill="#AE2328"/>
<path d="M191.023 346.73C195.252 350.596 204.992 355.774 211.424 346.582C205.399 352.958 195.313 349.337 191.023 346.73Z" fill="#AE2328"/>
<path d="M188.466 338.548C191.036 338.548 202.515 333.496 214.166 338.548C207.724 341.308 194.348 339.698 188.466 338.548Z" fill="#AE2328"/>
<path d="M26.5558 150.92C26.5558 149.275 15.9332 166.911 10.6218 175.935C10.6218 179.476 11.9925 185.358 17.4751 180.561C24.3285 174.564 26.5558 152.976 26.5558 150.92Z" fill="#AE2328"/>
<path d="M40.4338 150.92L26.5558 191.697C25.4707 193.182 25.1851 198.002 32.7238 205.404C40.2624 212.805 41.0049 172.165 40.4338 150.92Z" fill="#AE2328"/>
<path d="M61.1651 241.041C58.8235 238.757 54.1404 233.708 54.1404 231.789C57.51 230.019 65.14 222.263 68.7037 205.404C71.5821 221.441 64.8773 235.844 61.1651 241.041Z" fill="#AE2328"/>
<path d="M371.12 142.803C371.12 141.159 381.743 158.794 387.054 167.818C387.054 171.359 385.684 177.241 380.201 172.444C373.348 166.447 371.12 144.859 371.12 142.803Z" fill="#AE2328"/>
<path d="M357.242 142.803L371.12 183.581C372.206 185.065 372.491 189.886 364.952 197.287C357.414 204.689 356.671 164.049 357.242 142.803Z" fill="#AE2328"/>
<path d="M336.511 232.924C338.853 230.64 343.536 225.591 343.536 223.673C340.166 221.902 332.536 214.146 328.973 197.287C326.094 213.324 332.799 227.727 336.511 232.924Z" fill="#AE2328"/>
<path d="M125.587 179.019C125.301 188.442 125.176 207.974 126.958 210.715L136.21 179.019L167.221 184.501L173.903 169.081L166.022 163.599L144.948 157.431L125.587 179.019Z" fill="#AE2328"/>
<path d="M271.562 175.592C271.848 185.015 271.974 204.547 270.192 207.289L260.94 175.592L229.929 181.075L217.25 175.592L222.561 159.144L252.202 154.004L271.562 175.592Z" fill="#AE2328"/>
<ellipse cx="197.336" cy="188.838" rx="80.7318" ry="102.325" fill="#858585"/>
<path d="M171.592 106.362C183.036 129.193 159.248 152.421 145.924 161.181L137.1 227.125C129.702 245.183 113.517 281.751 107.955 283.557C101.004 285.814 76.0034 267.595 75.4686 264.048C75.0408 261.21 32.2419 203.317 10.896 174.725C19.0957 143.446 36.0833 80.2746 38.4363 77.8238C41.3775 74.7604 118.784 55.5737 121.859 55.5737C124.934 55.5737 157.287 77.8238 171.592 106.362Z" fill="#858585"/>
<path d="M62.4607 206.08C63.8035 180.082 65.6835 127.282 62.4607 124.059L120.633 155.965C119.021 180.888 115.798 231.54 115.798 234.763C115.798 237.986 112.898 253.079 112.898 257L62.4607 206.08Z" fill="#7C7C7C"/>
<path d="M59.5706 122.699C85.4123 130.825 137.424 147.071 138.739 147.049C139.982 150.242 140.136 156.312 123.533 184.325C122.957 186.29 120.729 187.677 120.472 195.927C120.149 206.24 124.017 218.81 125.145 221.549C126.047 223.74 126.702 237.556 124.178 238.469L112.898 257.645L112.898 223.483L112.898 200.278L117.122 176.107C105.724 154.283 75.9612 132.436 59.5706 122.699Z" fill="#767676"/>
<path d="M224.74 105.395C213.116 128.226 237.278 151.454 250.813 160.214L259.775 226.158C267.289 244.217 283.729 280.784 289.379 282.59C296.44 284.847 321.834 266.628 322.377 263.081C322.812 260.243 366.284 202.35 387.967 173.758C379.638 142.479 362.383 79.3078 359.993 76.857C357.005 73.7936 278.379 54.6069 275.256 54.6069C272.133 54.6069 239.27 76.857 224.74 105.395Z" fill="#858585"/>
<path d="M333.984 203.985C332.642 177.987 330.762 125.187 333.984 121.964L275.812 153.87C277.424 178.793 280.647 229.445 280.647 232.668C280.647 235.891 283.386 251.145 283.386 255.067L333.984 203.985Z" fill="#7C7C7C"/>
<path d="M130.462 244.915L134.813 213.331L152.216 227.028L173.165 259.256L228.597 258.128L243.261 224.611L262.759 211.72C263.243 220.69 263.92 241.466 262.759 248.299C261.599 255.131 241.972 272.524 232.304 280.366C221.991 283.804 195.725 289.454 173.165 284.556C150.605 279.657 135.135 256.141 130.462 244.915Z" fill="#767676"/>
<path d="M336.892 121.572C311.05 129.697 259.038 145.944 257.724 145.922C256.48 149.114 254.715 152.444 271.318 180.458C271.894 182.423 274.301 183.198 275.007 194.961C275.625 205.26 272.446 217.682 271.318 220.421C270.415 222.613 269.76 236.428 272.285 237.341L283.564 256.517L283.564 222.355L283.564 199.151L279.341 174.979C290.739 153.156 320.501 131.309 336.892 121.572Z" fill="#767676"/>
<path d="M239.233 202.257L246.001 203.985L259.215 202.863L266.305 208.497L257.407 177.079L228.947 182.459C225.396 189.044 218.136 202.345 217.507 202.863C216.879 203.382 226.116 202.675 230.814 202.257L239.233 202.257Z" fill="#6D6D6D"/>
<path d="M157.88 205.157L151.112 206.885L137.898 205.764L130.808 211.397L139.705 179.98L168.165 185.359C171.716 191.945 178.976 205.245 179.605 205.764C180.234 206.283 170.996 205.576 166.299 205.157L157.88 205.157Z" fill="#6D6D6D"/>
<circle cx="154.795" cy="199.15" r="10.4742" fill="#AE2328"/>
<circle cx="151.573" cy="194.961" r="6.28451" fill="#FDFDFD"/>
<circle cx="244.712" cy="199.15" r="10.4742" fill="#AE2328"/>
<circle cx="241.489" cy="194.961" r="6.28451" fill="#FDFDFD"/>
<path d="M172.682 213.976C169.298 215.265 154.634 224.289 134.491 213.009C148.929 228.607 168.599 258.88 168.009 267.313L175.26 247.493C173.434 241.423 174.643 213.229 172.682 213.976Z" fill="#7C7C7C"/>
<path d="M233.27 214.942C234.688 213.395 241.327 219.293 264.048 211.397C249.61 226.996 229.94 258.88 230.531 267.313L223.28 247.493C225.106 241.423 231.852 216.489 233.27 214.942Z" fill="#7C7C7C"/>
<path d="M168.646 253.229C170.045 242.059 157.2 235.761 153.184 236.213C137.636 258.449 118.971 312.605 148.045 333.703C141.049 271.845 166.897 267.191 168.646 253.229Z" fill="#B7B2B2"/>
<path d="M230.538 253.229C229.139 242.059 239.084 235.438 243.1 235.891C258.648 258.126 280.214 312.605 251.139 333.703C258.136 271.845 232.287 267.191 230.538 253.229Z" fill="#B7B2B2"/>
<path d="M191.906 344.339C180.935 338.86 178.68 318.825 175.449 308.888L162.65 271.019V252.649L175.449 246.009C193.588 225.641 228.232 252.703 236.521 261.19C237.923 280.956 225.367 305.665 225.367 313.077C225.367 319.94 218.968 337.571 209.277 345.95C199.768 346.433 197.576 347.17 191.906 344.339Z" fill="#858585"/>
<path d="M174.212 288.334C185.043 273.305 209.99 253.173 226.465 288.906C211.032 264.12 185.199 278.197 174.212 288.334Z" fill="#7E7E7E"/>
<path d="M170.594 272.487C182.478 256.004 209.851 233.924 227.927 273.114C210.993 245.929 182.649 261.369 170.594 272.487Z" fill="#7E7E7E"/>
<path d="M181.435 301.686C189.859 290.293 209.263 275.032 222.076 302.119C210.072 283.33 189.98 294.001 181.435 301.686Z" fill="#7E7E7E"/>
<path d="M185.541 315.103C192.554 305.413 208.323 292.631 217.438 316.476C208.669 299.859 192.52 308.637 185.541 315.103Z" fill="#7E7E7E"/>
<path d="M185.257 325.971C192.093 317.129 207.627 305.406 217.173 326.916C208.104 311.949 192.117 320.05 185.257 325.971Z" fill="#7E7E7E"/>
<path d="M185.389 331.982C192.009 337.557 207.254 345.026 217.322 331.77C207.89 340.965 192.104 335.743 185.389 331.982Z" fill="#7E7E7E"/>
<path d="M190.43 338.032C194.943 341.667 205.338 346.538 212.202 337.893C205.771 343.89 195.008 340.484 190.43 338.032Z" fill="#7E7E7E"/>
<path d="M187.7 330.336C190.443 330.336 202.694 325.585 215.128 330.336C208.253 332.932 193.978 331.418 187.7 330.336Z" fill="#7E7E7E"/>
<path d="M36.8397 153.87C36.8397 152.323 26.8489 168.91 21.8535 177.397C21.8535 180.727 23.1426 186.259 28.2992 181.747C34.7448 176.107 36.8397 155.804 36.8397 153.87Z" fill="#888888"/>
<path d="M49.8921 153.87L36.8397 192.222C35.8191 193.618 35.5505 198.152 42.6407 205.113C49.731 212.074 50.4292 173.851 49.8921 153.87Z" fill="#888888"/>
<path d="M69.3902 238.63C67.1879 236.482 62.7834 231.733 62.7834 229.929C65.9525 228.263 73.1287 220.969 76.4804 205.113C79.1876 220.196 72.8816 233.742 69.3902 238.63Z" fill="#888888"/>
<path d="M360.907 146.236C360.907 144.689 370.898 161.276 375.893 169.763C375.893 173.093 374.604 178.625 369.448 174.114C363.002 168.474 360.907 148.17 360.907 146.236Z" fill="#888888"/>
<path d="M347.855 146.236L360.907 184.588C361.928 185.984 362.196 190.518 355.106 197.479C348.016 204.44 347.318 166.218 347.855 146.236Z" fill="#888888"/>
<path d="M328.357 230.996C330.559 228.848 334.963 224.1 334.963 222.295C331.794 220.63 324.618 213.335 321.266 197.479C318.559 212.562 324.865 226.108 328.357 230.996Z" fill="#888888"/>
<path d="M129.979 180.297C129.711 189.16 129.592 207.53 131.268 210.108L139.97 180.297L169.136 185.453L175.421 170.951L168.008 165.794L148.188 159.993L129.979 180.297Z" fill="#8F8F8F"/>
<path d="M267.271 177.074C267.54 185.937 267.658 204.307 265.982 206.885L257.28 177.074L228.114 182.231L216.189 177.074L221.185 161.605L249.062 156.77L267.271 177.074Z" fill="#8F8F8F"/>
<path d="M47.636 86.0293L111.77 67.6592C120.042 72.01 146.061 84.8691 167.203 101.499C190.278 87.5762 221.078 95.6978 232.787 101.499C249.546 90.219 279.035 67.6592 286.125 67.6592C293.215 67.6592 329.472 79.9059 346.714 86.0293H308.524C295.74 95.4829 269.302 114.68 265.821 115.84C261.47 117.291 247.935 118.902 242.456 118.902C212.161 104.561 183.8 101.499 149.638 123.414C147.943 124.501 127.401 115.357 121.278 118.902L88.8881 92.6361L47.636 86.0293Z" fill="#959595"/>
</svg>
