<svg width="501" height="501" viewBox="0 0 501 501" fill="none" xmlns="http://www.w3.org/2000/svg">
<g clip-path="url(#clip0_323_84)">
<path d="M444.092 346.857C486.164 399.815 435.257 482.612 411.03 491.275C254.685 420.684 -38.626 183.751 99.3886 5.68534C246.103 332.902 391.502 280.659 444.092 346.857Z" fill="#E6E6E6"/>
<path d="M420.998 351.563C458.422 398.671 426.093 452.755 404.542 460.461C265.469 397.667 8.35319 203.689 98.1395 37.6982C230.794 334.393 374.218 292.679 420.998 351.563Z" fill="#B7B2B2"/>
<path d="M128.499 240.386C261.064 366.448 375.079 362.529 414.89 345.438C468.667 400.465 415.036 464.37 403.635 459.244C310.464 417.348 177.898 321.676 128.499 240.386Z" fill="#A7A1A1"/>
</g>
<defs>
<clipPath id="clip0_323_84">
<rect width="500" height="500" fill="white" transform="translate(0.936035 0.8927)"/>
</clipPath>
</defs>
</svg>
