<svg width="400" height="400" viewBox="0 0 400 400" fill="none" xmlns="http://www.w3.org/2000/svg">
<g clip-path="url(#clip0_105_110)">
<path d="M73.3131 124.285C67.447 69.0879 120.198 32.4866 147.307 21.0855C212.635 6.34279 198.53 48.7345 249.726 57.6981C313.721 68.9026 323.277 126.829 314.527 151.225C292.529 212.555 350.318 222.177 337.957 271.123C323.275 329.262 343.957 332.453 274.629 383.757C219.167 424.801 188.224 377.426 168.892 360.324C147.783 349.906 99.9774 365.972 73.313 300.868C39.9825 219.488 80.6459 193.281 73.3131 124.285Z" fill="#858585" stroke="white" stroke-width="8"/>
<path d="M327.22 235.784C274.845 324.501 153.972 335.991 100.083 330.647C128.141 356.701 154.863 345.344 172.232 356.033C210.311 398.788 231.689 394.112 240.373 394.112C300.765 366.855 320.762 335.101 323.211 322.63L329.224 279.207C333.455 271.859 338.977 252.886 327.22 235.784Z" fill="#817E7E"/>
<path d="M180.917 126.224C182.52 159.894 92.0663 189.911 70.6887 205.722C76.4785 198.596 86.1875 169.647 78.7053 110.859C82.7136 55.4108 142.838 23.3444 160.207 24.0124C163.548 23.3444 182.921 20.6722 196.282 31.361C203.631 36.0373 220.332 56.7468 239.705 60.7551C193.61 61.8685 179.314 92.5543 180.917 126.224Z" fill="#8F8F8F"/>
<path d="M119.456 82.1327C128.542 58.083 153.081 50.7344 164.215 50.0664L192.942 72.112C195.837 80.1286 202.562 100.705 206.303 118.875C210.979 141.589 140.834 148.938 128.809 147.602C116.784 146.265 108.099 112.195 119.456 82.1327Z" fill="#767676"/>
<path d="M223.672 126.892C227.012 111.527 229.684 106.851 246.386 89.4813C249.726 92.1535 261.216 98.7004 280.456 103.51C304.506 109.523 293.149 134.241 293.149 147.602C293.149 160.963 285.132 189.689 280.456 194.365C275.78 199.041 246.386 185.012 223.672 172.319C200.958 159.626 220.332 142.257 223.672 126.892Z" fill="#767676"/>
<path d="M92.7342 203.05C77.3691 203.05 90.062 177.664 98.0786 153.614C105.204 153.614 121.327 156.153 128.809 166.307C138.162 179 136.158 182.34 134.153 194.365C132.149 206.39 108.099 203.05 92.7342 203.05Z" fill="#767676"/>
<path d="M152.191 172.319C155.531 150.274 152.859 160.295 173.568 153.614C176.241 155.618 183.856 160.963 192.942 166.307C204.298 172.987 208.307 199.041 206.303 210.398C204.298 221.755 192.942 231.108 164.215 227.099C135.489 223.091 148.851 194.365 152.191 172.319Z" fill="#767676"/>
<path d="M152.191 241.797C140.166 218.415 140.834 227.099 104.759 220.419V255.826C104.759 264.51 115.448 291.9 128.809 295.909C142.17 299.917 152.191 292.568 156.867 288.56C161.543 284.552 164.215 265.178 152.191 241.797Z" fill="#767676"/>
<path d="M230.353 220.419C237.033 213.738 241.041 210.398 269.099 210.398C272.885 215.965 279.922 229.237 277.784 237.788C275.112 248.477 275.112 255.826 269.099 267.182C263.087 278.539 241.041 261.838 223.672 255.826C206.302 249.813 223.672 227.099 230.353 220.419Z" fill="#767676"/>
<path d="M280.456 267.182C274.444 251.817 293.149 241.797 307.846 231.776C310.741 238.234 316.932 252.084 318.535 255.826C320.539 260.502 315.195 295.909 307.846 295.909C300.498 295.909 286.469 282.548 280.456 267.182Z" fill="#767676"/>
<path d="M287.137 295.909C281.124 283.884 264.423 283.884 241.041 282.548C241.041 288.783 239.972 302.99 235.697 309.938C230.353 318.622 241.041 328.643 241.041 340C241.041 351.357 280.456 342.004 293.149 333.987C305.842 325.971 293.149 307.933 287.137 295.909Z" fill="#767676"/>
<path d="M173.568 282.548C154.195 263.174 173.568 261.17 180.917 241.797C191.383 249.368 213.117 265.045 216.323 267.182C220.332 269.855 223.672 295.909 216.323 304.593C208.975 313.278 192.942 301.921 173.568 282.548Z" fill="#767676"/>
<path d="M140.166 328.643C132.817 317.286 148.182 304.593 164.215 301.253C173.791 308.824 192.942 324.902 192.942 328.643C192.942 333.319 185.593 344.676 180.917 347.348C176.241 350.021 147.514 340 140.166 328.643Z" fill="#767676"/>
<path d="M92.7342 304.593C87.3898 299.249 82.7136 282.548 82.7136 275.199H86.0539C91.1756 277.648 102.755 283.75 108.099 288.56C114.78 294.572 121.46 309.938 123.465 314.614C125.469 319.29 120.124 323.967 112.776 328.643C105.427 333.319 98.0786 309.938 92.7342 304.593Z" fill="#767676"/>
<path d="M206.303 359.373C206.303 350.689 212.983 347.348 218.328 344.676L230.353 347.348C236.365 351.357 248.523 361.912 249.058 372.066C249.726 384.759 241.041 385.427 223.672 383.423C206.302 381.419 206.303 368.058 206.303 359.373Z" fill="#767676"/>
</g>
<defs>
<clipPath id="clip0_105_110">
<rect width="400" height="400" fill="white"/>
</clipPath>
</defs>
</svg>
