<svg width="400" height="400" viewBox="0 0 400 400" fill="none" xmlns="http://www.w3.org/2000/svg">
<g clip-path="url(#clip0_105_109)">
<ellipse cx="201.928" cy="186.671" rx="89.2519" ry="113.124" fill="white"/>
<path d="M176.933 93.2757C189.585 118.516 159.82 146.411 145.089 156.096L142.083 234.185C133.904 254.149 116.899 291.167 110.751 293.163C103.065 295.659 69.957 274.633 69.3658 270.711C68.8928 267.574 23.5987 207.655 0 176.046C9.06506 141.465 27.0551 70.5174 29.6564 67.8081C32.908 64.4213 117.237 42.508 120.636 42.508C124.036 42.508 161.118 61.7257 176.933 93.2757Z" fill="white"/>
<path d="M49.6233 113.553C78.1923 122.537 135.694 140.498 137.147 140.473C138.522 144.003 138.691 150.713 120.336 181.683C119.699 183.855 117.237 185.389 116.952 194.51C116.595 205.911 120.871 219.807 122.118 222.835C123.115 225.258 123.84 240.531 121.049 241.541L108.579 262.74L108.579 224.973L108.579 199.32L113.248 172.598C100.647 148.471 67.7437 124.318 49.6233 113.553Z" fill="white"/>
<path d="M228.538 92.9406C215.688 118.181 246.085 145.343 261.047 155.027L264.227 233.348C272.534 253.312 289.481 292.34 295.726 294.336C303.533 296.831 340.867 271.282 341.467 267.36C341.948 264.223 384.852 203.969 408.823 172.359C404.634 162.306 381.152 71.8292 377.156 66.1325C373.159 60.4358 285.775 41 282.322 41C278.869 41 244.602 61.3906 228.538 92.9406Z" fill="white"/>
<path d="M127.996 248.667L132.806 213.75L152.046 228.892L175.206 264.522L236.488 263.275L252.7 226.22L274.255 211.968C274.79 221.885 275.538 244.854 274.255 252.408C272.973 259.961 251.274 279.189 240.586 287.859C229.184 291.66 200.146 297.907 175.206 292.491C150.265 287.075 133.163 261.078 127.996 248.667Z" fill="white"/>
<path d="M356.211 112.306C327.642 121.29 270.141 139.25 268.687 139.226C267.313 142.756 265.362 146.437 283.716 177.408C284.353 179.58 287.014 180.436 287.795 193.441C288.478 204.827 284.963 218.56 283.716 221.588C282.719 224.011 281.994 239.284 284.785 240.294L297.255 261.493L297.255 223.726L297.255 198.073L292.586 171.351C305.187 147.224 338.09 123.071 356.211 112.306Z" fill="white"/>
<path d="M248.246 201.507L255.728 203.417L270.336 202.178L278.175 208.405L268.339 173.672L236.875 179.62C232.949 186.9 224.923 201.604 224.228 202.178C223.532 202.751 233.745 201.969 238.938 201.507L248.246 201.507Z" fill="white"/>
<path d="M158.307 204.713L150.824 206.624L136.216 205.384L128.378 211.612L138.214 176.878L169.678 182.826C173.604 190.106 181.63 204.81 182.325 205.384C183.02 205.958 172.808 205.176 167.614 204.713L158.307 204.713Z" fill="white"/>
<circle cx="154.897" cy="198.073" r="11.5796" fill="white"/>
<circle cx="151.334" cy="193.441" r="6.94775" fill="white"/>
<circle cx="254.303" cy="198.073" r="11.5796" fill="white"/>
<circle cx="250.74" cy="193.441" r="6.94775" fill="white"/>
<path d="M194.986 355.445C181.491 348.687 178.718 323.975 174.744 311.719L159 265.011V242.353L174.744 234.163C197.056 209.041 239.67 242.42 249.866 252.887C251.59 277.268 236.146 307.744 236.146 316.886C236.146 325.351 228.274 347.097 216.353 357.432C204.658 358.029 201.961 358.937 194.986 355.445Z" fill="white"/>
<path d="M174.671 214.462C170.93 215.888 154.719 225.864 132.45 213.394C148.412 230.638 170.158 264.106 169.505 273.429L177.521 251.517C175.502 244.807 176.839 213.637 174.671 214.462Z" fill="white"/>
<path d="M241.655 215.531C243.222 213.821 250.562 220.341 275.681 211.612C259.719 228.857 237.973 264.106 238.626 273.429L230.609 251.517C232.628 244.807 240.087 217.242 241.655 215.531Z" fill="white"/>
<path d="M174.252 260.826C175.799 248.478 152.387 239.214 147.947 239.715C130.758 264.297 116.615 329.689 155.152 347.617C149.958 282.607 172.319 276.261 174.252 260.826Z" fill="white"/>
<path d="M238.634 257.858C237.087 245.51 247.89 236.533 252.331 237.034C265.866 245.559 304.271 320.641 252.331 350.465C260.066 282.078 240.568 273.293 238.634 257.858Z" fill="white"/>
<path d="M179.7 296.668C190.253 280.054 214.559 257.797 230.609 297.301C215.573 269.898 190.405 285.461 179.7 296.668Z" fill="white"/>
<path d="M176.176 279.149C187.755 260.926 214.423 236.516 232.035 279.843C215.536 249.788 187.921 266.857 176.176 279.149Z" fill="white"/>
<path d="M186.738 311.429C194.946 298.834 213.85 281.962 226.334 311.909C214.639 291.136 195.064 302.934 186.738 311.429Z" fill="white"/>
<path d="M190.738 326.263C197.571 315.549 212.934 301.419 221.815 327.78C213.271 309.41 197.537 319.114 190.738 326.263Z" fill="white"/>
<path d="M190.461 338.277C197.121 328.503 212.256 315.542 221.557 339.322C212.721 322.776 197.145 331.731 190.461 338.277Z" fill="white"/>
<path d="M190.591 344.923C197.04 351.086 211.893 359.343 221.702 344.688C212.513 354.854 197.133 349.08 190.591 344.923Z" fill="white"/>
<path d="M195.502 351.611C199.899 355.631 210.026 361.015 216.714 351.458C210.449 358.087 199.962 354.322 195.502 351.611Z" fill="white"/>
<path d="M192.842 343.104C195.514 343.104 207.45 337.851 219.564 343.104C212.866 345.973 198.959 344.299 192.842 343.104Z" fill="white"/>
<path d="M24.4929 148.013C24.4929 146.303 13.4477 164.64 7.92517 174.023C7.92517 177.705 9.35035 183.821 15.0511 178.833C22.177 172.598 24.4929 150.151 24.4929 148.013Z" fill="white"/>
<path d="M38.9228 148.013L24.4929 190.412C23.3646 191.956 23.0677 196.968 30.9062 204.664C38.7447 212.36 39.5166 170.104 38.9228 148.013Z" fill="white"/>
<path d="M60.4787 241.719C58.044 239.344 53.1746 234.094 53.1746 232.099C56.6782 230.258 64.6117 222.194 68.3171 204.664C71.31 221.339 64.3385 236.315 60.4787 241.719Z" fill="white"/>
<path d="M382.761 139.574C382.761 137.864 393.807 156.201 399.329 165.584C399.329 169.265 397.904 175.382 392.203 170.394C385.077 164.158 382.761 141.712 382.761 139.574Z" fill="white"/>
<path d="M368.331 139.574L382.761 181.973C383.89 183.517 384.187 188.529 376.348 196.225C368.51 203.921 367.738 161.664 368.331 139.574Z" fill="white"/>
<path d="M346.776 233.28C349.21 230.904 354.08 225.655 354.08 223.66C350.576 221.819 342.643 213.755 338.937 196.225C335.944 212.9 342.916 227.876 346.776 233.28Z" fill="white"/>
<path d="M127.462 177.23C127.165 187.028 127.034 207.337 128.887 210.187L138.507 177.23L170.752 182.93L177.7 166.897L169.505 161.196L147.593 154.783L127.462 177.23Z" fill="white"/>
<path d="M279.244 173.667C279.541 183.465 279.671 203.774 277.819 206.624L268.199 173.667L235.954 179.367L222.771 173.667L228.294 156.564L259.113 151.22L279.244 173.667Z" fill="white"/>
<ellipse cx="202.066" cy="187.439" rx="83.9427" ry="106.394" fill="#858585"/>
<path d="M175.298 101.683C187.197 125.422 162.463 149.574 148.608 158.682L139.434 227.249C131.742 246.026 114.913 284.048 109.13 285.925C101.901 288.272 75.9069 269.328 75.3509 265.64C74.9061 262.69 30.405 202.494 8.21008 172.765C16.7359 140.241 34.3992 74.5581 36.8457 72.0098C39.9039 68.8246 120.389 48.8748 123.587 48.8748C126.784 48.8748 160.424 72.0098 175.298 101.683Z" fill="#858585"/>
<path d="M61.826 205.367C63.2223 178.335 65.1771 123.435 61.826 120.084L122.312 153.259C120.636 179.173 117.285 231.84 117.285 235.191C117.285 238.542 114.269 254.236 114.269 258.313L61.826 205.367Z" fill="#7C7C7C"/>
<path d="M58.8209 118.67C85.6905 127.119 139.771 144.012 141.138 143.989C142.431 147.309 142.59 153.619 125.328 182.747C124.729 184.79 122.412 186.232 122.144 194.811C121.809 205.534 125.83 218.603 127.003 221.452C127.941 223.73 128.623 238.095 125.998 239.044L114.269 258.983L114.269 223.462L114.269 199.335L118.661 174.202C106.81 151.511 75.8635 128.795 58.8209 118.67Z" fill="#767676"/>
<path d="M230.559 100.678C218.473 124.416 243.596 148.568 257.669 157.677L266.988 226.244C274.801 245.02 291.895 283.042 297.769 284.92C305.111 287.267 331.515 268.323 332.08 264.635C332.532 261.684 377.733 201.488 400.278 171.759C391.618 139.236 373.676 73.5527 371.191 71.0045C368.085 67.8192 286.332 47.8694 283.084 47.8694C279.837 47.8694 245.667 71.0045 230.559 100.678Z" fill="#858585"/>
<path d="M344.148 203.189C342.752 176.157 340.797 121.256 344.148 117.905L283.663 151.08C285.338 176.995 288.689 229.661 288.689 233.012C288.689 236.363 291.538 252.225 291.538 256.302L344.148 203.189Z" fill="#7C7C7C"/>
<path d="M132.532 245.746L137.056 212.906L155.152 227.148L176.933 260.658L234.571 259.485L249.818 224.635L270.091 211.231C270.594 220.558 271.298 242.161 270.091 249.265C268.885 256.369 248.477 274.453 238.424 282.607C227.701 286.182 200.39 292.057 176.933 286.964C153.476 281.87 137.391 257.419 132.532 245.746Z" fill="#797575"/>
<path d="M347.171 117.497C320.302 125.946 266.221 142.839 264.854 142.816C263.561 146.136 261.726 149.598 278.989 178.726C279.588 180.769 282.091 181.575 282.825 193.806C283.468 204.515 280.162 217.43 278.989 220.279C278.051 222.557 277.37 236.922 279.995 237.871L291.723 257.81L291.723 222.289L291.723 198.162L287.331 173.03C299.183 150.338 330.129 127.622 347.171 117.497Z" fill="#767676"/>
<path d="M245.629 201.392L252.666 203.189L266.405 202.023L273.777 207.88L264.526 175.213L234.934 180.806C231.242 187.654 223.693 201.483 223.039 202.023C222.385 202.562 231.991 201.827 236.875 201.392L245.629 201.392Z" fill="#6D6D6D"/>
<path d="M161.039 204.408L154.002 206.204L140.263 205.039L132.891 210.896L142.142 178.229L171.734 183.822C175.427 190.67 182.975 204.499 183.629 205.039C184.283 205.578 174.678 204.843 169.793 204.408L161.039 204.408Z" fill="#6D6D6D"/>
<circle cx="157.832" cy="198.162" r="10.8908" fill="black"/>
<circle cx="154.482" cy="193.806" r="6.53446" fill="#FDFDFD"/>
<circle cx="251.325" cy="198.162" r="10.8908" fill="black"/>
<circle cx="247.974" cy="193.806" r="6.53446" fill="#FDFDFD"/>
<path d="M176.43 213.577C172.912 214.917 157.665 224.3 136.721 212.571C151.734 228.79 172.186 260.267 171.572 269.036L179.111 248.427C177.212 242.116 178.47 212.8 176.43 213.577Z" fill="#817E7E"/>
<path d="M239.429 214.582C240.904 212.973 247.807 219.106 271.432 210.896C256.419 227.115 235.967 260.267 236.581 269.036L229.041 248.427C230.94 242.116 237.955 216.19 239.429 214.582Z" fill="#817E7E"/>
<path d="M172.235 254.391C173.689 242.777 160.333 236.228 156.157 236.699C139.991 259.819 120.583 316.129 150.814 338.067C143.539 273.747 170.416 268.908 172.235 254.391Z" fill="#B7B2B2"/>
<path d="M236.588 254.391C235.133 242.777 245.474 235.893 249.65 236.364C265.816 259.484 288.24 316.13 258.009 338.067C265.284 273.747 238.407 268.908 236.588 254.391Z" fill="#B7B2B2"/>
<path d="M196.42 349.125C185.012 343.428 182.667 322.596 179.309 312.264L166 272.889V253.789L179.309 246.884C198.169 225.706 234.191 253.845 242.809 262.669C244.267 283.222 231.212 308.913 231.212 316.62C231.212 323.756 224.558 342.088 214.481 350.8C204.595 351.303 202.315 352.069 196.42 349.125Z" fill="#858585"/>
<path d="M178.021 290.892C189.284 275.266 215.223 254.334 232.353 291.488C216.306 265.715 189.445 280.352 178.021 290.892Z" fill="#7E7E7E"/>
<path d="M174.26 274.415C186.617 257.276 215.079 234.318 233.874 275.068C216.266 246.801 186.795 262.855 174.26 274.415Z" fill="#7E7E7E"/>
<path d="M185.532 304.776C194.292 292.93 214.467 277.061 227.79 305.227C215.309 285.689 194.417 296.785 185.532 304.776Z" fill="#7E7E7E"/>
<path d="M189.801 318.727C197.093 308.651 213.489 295.36 222.967 320.154C213.849 302.876 197.057 312.003 189.801 318.727Z" fill="#7E7E7E"/>
<path d="M189.505 330.026C196.614 320.833 212.766 308.644 222.692 331.009C213.262 315.447 196.638 323.87 189.505 330.026Z" fill="#7E7E7E"/>
<path d="M189.644 336.277C196.526 342.074 212.378 349.839 222.846 336.056C213.04 345.617 196.625 340.187 189.644 336.277Z" fill="#7E7E7E"/>
<path d="M194.885 342.567C199.578 346.347 210.386 351.412 217.523 342.423C210.837 348.658 199.645 345.117 194.885 342.567Z" fill="#7E7E7E"/>
<path d="M192.047 334.566C194.898 334.566 207.637 329.625 220.565 334.566C213.416 337.265 198.574 335.69 192.047 334.566Z" fill="#7E7E7E"/>
<path d="M35.1857 151.08C35.1857 149.472 24.7976 166.718 19.6035 175.543C19.6035 179.005 20.9439 184.758 26.3055 180.067C33.0075 174.202 35.1857 153.091 35.1857 151.08Z" fill="#888888"/>
<path d="M48.7573 151.08L35.1857 190.957C34.1245 192.41 33.8453 197.123 41.2175 204.361C48.5897 211.6 49.3158 171.857 48.7573 151.08Z" fill="#888888"/>
<path d="M69.0308 239.212C66.741 236.978 62.1613 232.041 62.1613 230.164C65.4564 228.433 72.918 220.848 76.403 204.361C79.2179 220.044 72.6611 234.13 69.0308 239.212Z" fill="#888888"/>
<path d="M372.142 143.143C372.142 141.535 382.531 158.781 387.725 167.605C387.725 171.068 386.384 176.821 381.023 172.129C374.321 166.265 372.142 145.154 372.142 143.143Z" fill="#888888"/>
<path d="M358.571 143.143L372.142 183.02C373.204 184.472 373.483 189.186 366.111 196.424C358.738 203.662 358.012 163.919 358.571 143.143Z" fill="#888888"/>
<path d="M338.297 231.275C340.587 229.041 345.167 224.103 345.167 222.227C341.872 220.495 334.41 212.911 330.925 196.424C328.11 212.107 334.667 226.192 338.297 231.275Z" fill="#888888"/>
<path d="M132.03 178.559C131.75 187.774 131.628 206.875 133.37 209.555L142.418 178.559L172.744 183.92L179.279 168.841L171.572 163.479L150.963 157.447L132.03 178.559Z" fill="#8F8F8F"/>
<path d="M274.782 175.208C275.062 184.423 275.185 203.524 273.442 206.204L264.394 175.208L234.068 180.569L221.669 175.208L226.863 159.123L255.849 154.096L274.782 175.208Z" fill="#8F8F8F"/>
<path d="M46.4114 80.5418L113.096 61.4411C121.697 65.9649 148.751 79.3354 170.734 96.6266C194.727 82.1503 226.751 90.5948 238.927 96.6266C256.352 84.8981 287.014 61.4411 294.386 61.4411C301.758 61.4411 339.457 74.1749 357.385 80.5418H317.675C304.383 90.3714 276.893 110.332 273.274 111.539C268.751 113.047 254.676 114.722 248.98 114.722C217.48 99.8101 187.991 96.6266 152.471 119.413C150.708 120.544 129.349 111.036 122.982 114.722L89.3042 87.4114L46.4114 80.5418Z" fill="#959595"/>
</g>
<defs>
<clipPath id="clip0_105_109">
<rect width="400" height="400" fill="white"/>
</clipPath>
</defs>
</svg>
