<svg width="501" height="501" viewBox="0 0 501 501" fill="none" xmlns="http://www.w3.org/2000/svg">
<ellipse cx="247.48" cy="235.624" rx="107.35" ry="136.063" fill="#AE2328"/>
<path d="M217.418 123.29C232.635 153.648 196.834 187.201 179.116 198.849L175.5 292.773C165.664 316.785 145.21 361.309 137.815 363.711C128.571 366.712 88.749 341.423 88.0379 336.706C87.469 332.933 32.9902 260.863 4.6062 222.844C15.5095 181.252 37.1475 95.917 40.2763 92.6582C44.1872 88.5847 145.616 62.2278 149.705 62.2278C153.794 62.2278 198.396 85.3425 217.418 123.29Z" fill="#AE2328"/>
<path d="M64.292 147.679C98.6542 158.484 167.815 180.087 169.563 180.058C171.217 184.304 171.421 192.374 149.344 229.624C148.578 232.237 145.616 234.081 145.273 245.052C144.844 258.765 149.987 275.479 151.487 279.121C152.687 282.035 153.558 300.406 150.201 301.62L135.202 327.118L135.202 281.693L135.202 250.837L140.819 218.697C125.662 189.677 86.0869 160.627 64.292 147.679Z" fill="#AE2328"/>
<path d="M279.488 122.887C264.031 153.245 300.592 185.915 318.589 197.563L322.413 291.765C332.404 315.778 352.788 362.72 360.299 365.121C369.689 368.122 414.594 337.392 415.316 332.675C415.894 328.902 467.498 256.429 496.329 218.41C491.291 206.318 463.048 97.4945 458.241 90.6426C453.434 83.7907 348.33 60.4137 344.177 60.4137C340.024 60.4137 298.809 84.9391 279.488 122.887Z" fill="#AE2328"/>
<path d="M158.558 310.191L164.343 268.194L187.485 286.407L215.34 329.261L289.049 327.761L308.548 283.193L334.475 266.051C335.118 277.979 336.018 305.606 334.475 314.691C332.932 323.776 306.834 346.903 293.978 357.331C280.264 361.902 245.338 369.416 215.34 362.902C185.342 356.388 164.772 325.119 158.558 310.191Z" fill="#AE2328"/>
<path d="M433.049 146.179C398.687 156.984 329.526 178.587 327.778 178.558C326.124 182.804 323.778 187.232 345.854 224.482C346.62 227.094 349.821 228.124 350.76 243.766C351.582 257.462 347.354 273.979 345.854 277.621C344.654 280.535 343.783 298.906 347.14 300.12L362.139 325.618L362.139 280.193L362.139 249.337L356.523 217.197C371.679 188.177 411.254 159.127 433.049 146.179Z" fill="#AE2328"/>
<path d="M303.191 253.468L312.191 255.766L329.761 254.274L339.189 261.765L327.358 219.988L289.514 227.142C284.792 235.899 275.139 253.585 274.302 254.274C273.466 254.964 285.75 254.024 291.996 253.468L303.191 253.468Z" fill="#AE2328"/>
<path d="M195.014 257.325L186.014 259.623L168.444 258.132L159.016 265.622L170.847 223.846L208.691 230.999C213.413 239.756 223.066 257.442 223.903 258.132C224.739 258.822 212.455 257.881 206.209 257.325L195.014 257.325Z" fill="#AE2328"/>
<ellipse cx="190.914" cy="249.338" rx="13.9277" ry="13.9277" fill="#AE2328"/>
<circle cx="186.627" cy="243.767" r="8.35661" fill="#AE2328"/>
<ellipse cx="310.477" cy="249.338" rx="13.9277" ry="13.9277" fill="#AE2328"/>
<circle cx="306.191" cy="243.767" r="8.35661" fill="#AE2328"/>
<path d="M239.132 438.621C222.901 430.493 219.564 400.77 214.785 386.028L195.848 329.85V302.597L214.785 292.746C241.621 262.529 292.876 302.677 305.14 315.267C307.214 344.592 288.638 381.247 288.638 392.244C288.638 402.425 279.169 428.581 264.832 441.012C250.765 441.729 247.521 442.822 239.132 438.621Z" fill="#AE2328"/>
<path d="M214.697 269.051C210.197 270.765 190.698 282.764 163.914 267.765C183.113 288.507 209.268 328.761 208.483 339.975L218.125 313.619C215.696 305.548 217.304 268.057 214.697 269.051Z" fill="#AE2328"/>
<path d="M295.264 270.336C297.149 268.279 305.977 276.122 336.189 265.622C316.991 286.364 290.835 328.761 291.621 339.975L281.979 313.619C284.407 305.548 293.378 272.393 295.264 270.336Z" fill="#AE2328"/>
<path d="M214.193 324.816C216.054 309.964 187.894 298.822 182.554 299.424C161.879 328.991 144.868 407.643 191.219 429.206C184.972 351.014 211.867 343.381 214.193 324.816Z" fill="#AE2328"/>
<path d="M291.63 321.246C289.769 306.394 302.763 295.597 308.104 296.199C324.384 306.453 370.577 396.76 308.104 432.632C317.407 350.377 293.956 339.812 291.63 321.246Z" fill="#AE2328"/>
<path d="M220.745 367.926C233.439 347.942 262.673 321.173 281.978 368.687C263.893 335.728 233.621 354.447 220.745 367.926Z" fill="#AE2328"/>
<path d="M216.507 346.854C230.434 324.936 262.511 295.576 283.693 347.689C263.849 311.54 230.634 332.07 216.507 346.854Z" fill="#AE2328"/>
<path d="M229.211 385.68C239.083 370.531 261.821 350.238 276.836 386.257C262.77 361.272 239.225 375.462 229.211 385.68Z" fill="#AE2328"/>
<path d="M234.022 403.522C242.24 390.636 260.719 373.64 271.401 405.347C261.125 383.251 242.2 394.924 234.022 403.522Z" fill="#AE2328"/>
<path d="M233.689 417.973C241.7 406.216 259.904 390.627 271.091 419.229C260.463 399.328 241.728 410.099 233.689 417.973Z" fill="#AE2328"/>
<path d="M233.845 425.966C241.602 433.379 259.467 443.31 271.265 425.683C260.213 437.91 241.713 430.966 233.845 425.966Z" fill="#AE2328"/>
<path d="M239.751 434.01C245.04 438.845 257.221 445.321 265.265 433.826C257.73 441.8 245.116 437.271 239.751 434.01Z" fill="#AE2328"/>
<path d="M236.553 423.777C239.767 423.777 254.123 417.459 268.694 423.777C260.637 427.229 243.909 425.216 236.553 423.777Z" fill="#AE2328"/>
<path d="M34.0655 189.127C34.0655 187.07 20.7806 209.126 14.1382 220.411C14.1382 224.839 15.8524 232.196 22.7091 226.196C31.2799 218.697 34.0655 191.698 34.0655 189.127Z" fill="#AE2328"/>
<path d="M51.4215 189.127L34.0655 240.124C32.7084 241.981 32.3513 248.009 41.7793 257.266C51.2072 266.522 52.1357 215.697 51.4215 189.127Z" fill="#AE2328"/>
<path d="M77.3484 301.834C74.42 298.977 68.5633 292.663 68.5633 290.263C72.7773 288.049 82.3195 278.35 86.7764 257.266C90.3761 277.321 81.991 295.335 77.3484 301.834Z" fill="#AE2328"/>
<path d="M464.984 178.976C464.984 176.919 478.269 198.975 484.911 210.26C484.911 214.688 483.197 222.045 476.34 216.045C467.769 208.546 464.984 181.548 464.984 178.976Z" fill="#AE2328"/>
<path d="M447.628 178.976L464.984 229.973C466.341 231.83 466.698 237.858 457.27 247.115C447.842 256.371 446.914 205.546 447.628 178.976Z" fill="#AE2328"/>
<path d="M421.701 291.683C424.629 288.826 430.486 282.512 430.486 280.113C426.272 277.898 416.73 268.199 412.273 247.115C408.673 267.171 417.058 285.184 421.701 291.683Z" fill="#AE2328"/>
<path d="M157.915 224.268C157.558 236.053 157.401 260.48 159.63 263.908L171.2 224.268L209.983 231.125L218.34 211.84L208.484 204.983L182.128 197.27L157.915 224.268Z" fill="#AE2328"/>
<path d="M340.475 219.983C340.832 231.767 340.989 256.194 338.761 259.623L327.19 219.983L288.407 226.839L272.551 219.983L279.193 199.412L316.262 192.984L340.475 219.983Z" fill="#AE2328"/>
<ellipse cx="247.646" cy="236.548" rx="100.964" ry="127.969" fill="#858585"/>
<path d="M215.45 133.402C229.762 161.955 200.013 191.004 183.349 201.96L172.314 284.431C163.062 307.015 142.82 352.747 135.865 355.005C127.171 357.828 95.9053 335.043 95.2365 330.606C94.7015 327.058 41.1766 254.655 14.481 218.898C24.7356 179.78 45.9806 100.777 48.9233 97.712C52.6016 93.8808 149.408 69.8856 153.253 69.8856C157.099 69.8856 197.56 97.712 215.45 133.402Z" fill="#858585"/>
<path d="M78.9685 258.111C80.6479 225.598 82.999 159.565 78.9685 155.534L151.719 195.436C149.704 226.606 145.674 289.952 145.674 293.982C145.674 298.013 142.046 316.889 142.046 321.793L78.9685 258.111Z" fill="#7C7C7C"/>
<path d="M75.354 153.834C107.672 163.996 172.719 184.314 174.363 184.286C175.918 188.279 176.11 195.87 155.347 230.904C154.626 233.361 151.84 235.096 151.518 245.414C151.115 258.312 155.951 274.031 157.362 277.457C158.491 280.198 159.31 297.475 156.153 298.617L142.046 322.599L142.046 279.875L142.046 250.855L147.329 220.627C133.074 193.333 95.8524 166.011 75.354 153.834Z" fill="#767676"/>
<path d="M281.918 132.193C267.38 160.745 297.598 189.795 314.525 200.751L325.733 283.222C335.131 305.805 355.691 351.537 362.756 353.796C371.587 356.619 403.345 333.833 404.024 329.397C404.568 325.848 458.936 253.446 486.052 217.689C475.636 178.57 454.056 99.5677 451.067 96.5027C447.331 92.6716 349 68.6764 345.094 68.6764C341.188 68.6764 300.089 96.5027 281.918 132.193Z" fill="#858585"/>
<path d="M418.541 255.491C416.861 222.978 414.51 156.945 418.541 152.914L345.79 192.816C347.805 223.986 351.836 287.332 351.836 291.362C351.836 295.393 355.262 314.471 355.262 319.374L418.541 255.491Z" fill="#7C7C7C"/>
<path d="M164.013 306.679L169.454 267.18L191.219 284.309L217.417 324.614L286.742 323.204L305.081 281.286L329.465 265.164C330.07 276.383 330.916 302.366 329.465 310.911C328.014 319.455 303.469 341.207 291.377 351.014C278.479 355.314 245.631 362.38 217.417 356.254C189.203 350.128 169.857 320.718 164.013 306.679Z" fill="#767676"/>
<path d="M422.177 152.423C389.859 162.586 324.811 182.903 323.168 182.876C321.612 186.869 319.405 191.034 340.169 226.068C340.889 228.525 343.899 229.494 344.782 244.205C345.555 257.086 341.579 272.621 340.169 276.047C339.04 278.787 338.221 296.065 341.378 297.207L355.485 321.188L355.485 278.465L355.485 249.445L350.202 219.216C364.457 191.923 401.678 164.601 422.177 152.423Z" fill="#767676"/>
<path d="M300.043 253.33L308.507 255.491L325.032 254.088L333.899 261.134L322.772 221.842L287.179 228.57C282.738 236.806 273.659 253.44 272.873 254.088C272.086 254.737 283.639 253.853 289.514 253.33L300.043 253.33Z" fill="#6D6D6D"/>
<path d="M198.301 256.957L189.837 259.118L173.312 257.716L164.445 264.761L175.572 225.469L211.165 232.198C215.606 240.433 224.685 257.067 225.471 257.716C226.258 258.365 214.705 257.481 208.83 256.957L198.301 256.957Z" fill="#6D6D6D"/>
<ellipse cx="194.443" cy="249.445" rx="13.0992" ry="13.0992" fill="#AE2328"/>
<ellipse cx="190.413" cy="244.205" rx="7.85951" ry="7.85951" fill="#FDFDFD"/>
<ellipse cx="306.895" cy="249.445" rx="13.0992" ry="13.0992" fill="#AE2328"/>
<ellipse cx="302.865" cy="244.205" rx="7.85951" ry="7.85951" fill="#FDFDFD"/>
<path d="M216.813 267.986C212.581 269.598 194.242 280.883 169.051 266.776C187.108 286.284 211.708 324.144 210.969 334.691L220.037 309.903C217.753 302.312 219.265 267.051 216.813 267.986Z" fill="#7C7C7C"/>
<path d="M292.586 269.194C294.36 267.26 302.662 274.636 331.078 264.761C313.021 284.269 288.421 324.144 289.16 334.69L280.092 309.903C282.376 302.312 290.813 271.129 292.586 269.194Z" fill="#7C7C7C"/>
<path d="M211.766 317.076C213.516 303.107 197.451 295.23 192.428 295.796C172.984 323.604 149.641 391.334 186.002 417.719C177.252 340.357 209.579 334.537 211.766 317.076Z" fill="#B7B2B2"/>
<path d="M289.17 317.076C287.42 303.107 299.857 294.827 304.88 295.393C324.325 323.201 351.295 391.334 314.934 417.719C323.684 340.357 291.357 334.537 289.17 317.076Z" fill="#B7B2B2"/>
<path d="M240.855 431.02C227.134 424.168 224.314 399.111 220.274 386.684L204.267 339.325V316.351L220.274 308.047C242.959 282.574 286.285 316.419 296.652 327.032C298.405 351.753 282.702 382.653 282.702 391.924C282.702 400.506 274.699 422.556 262.579 433.035C250.688 433.64 247.946 434.561 240.855 431.02Z" fill="#858585"/>
<path d="M218.726 360.979C232.273 342.184 263.472 317.007 284.075 361.695C264.774 330.697 232.467 348.302 218.726 360.979Z" fill="#7E7E7E"/>
<path d="M214.201 341.161C229.065 320.547 263.297 292.933 285.904 341.946C264.726 307.947 229.278 327.256 214.201 341.161Z" fill="#7E7E7E"/>
<path d="M227.759 377.677C238.295 363.429 262.561 344.343 278.586 378.22C263.574 354.721 238.447 368.067 227.759 377.677Z" fill="#7E7E7E"/>
<path d="M232.895 394.458C241.666 382.339 261.386 366.353 272.786 396.175C261.819 375.393 241.623 386.371 232.895 394.458Z" fill="#7E7E7E"/>
<path d="M232.539 408.048C241.089 396.991 260.516 382.33 272.455 409.23C261.113 390.513 241.118 400.643 232.539 408.048Z" fill="#7E7E7E"/>
<path d="M232.705 415.566C240.983 422.539 260.049 431.879 272.64 415.301C260.845 426.8 241.102 420.269 232.705 415.566Z" fill="#7E7E7E"/>
<path d="M239.009 423.132C244.653 427.679 257.653 433.77 266.238 422.959C258.196 430.458 244.734 426.199 239.009 423.132Z" fill="#7E7E7E"/>
<path d="M235.595 413.508C239.025 413.508 254.347 407.566 269.896 413.508C261.298 416.754 243.446 414.861 235.595 413.508Z" fill="#7E7E7E"/>
<path d="M46.9265 192.816C46.9265 190.882 34.4319 211.625 28.1846 222.239C28.1846 226.404 29.7968 233.323 36.2456 227.68C44.3066 220.627 46.9265 195.235 46.9265 192.816Z" fill="#888888"/>
<path d="M63.2501 192.816L46.9265 240.779C45.6501 242.526 45.3143 248.196 54.1814 256.901C63.0485 265.607 63.9218 217.805 63.2501 192.816Z" fill="#888888"/>
<path d="M87.6347 298.819C84.8805 296.132 79.3721 290.194 79.3721 287.936C83.3355 285.854 92.3101 276.732 96.5018 256.901C99.8875 275.764 92.0011 292.706 87.6347 298.819Z" fill="#888888"/>
<path d="M452.211 183.269C452.211 181.335 464.705 202.078 470.953 212.692C470.953 216.857 469.34 223.776 462.892 218.133C454.831 211.08 452.211 185.688 452.211 183.269Z" fill="#888888"/>
<path d="M435.887 183.269L452.211 231.233C453.487 232.979 453.823 238.649 444.956 247.355C436.089 256.061 435.215 208.259 435.887 183.269Z" fill="#888888"/>
<path d="M411.502 289.272C414.257 286.585 419.765 280.647 419.765 278.39C415.802 276.307 406.827 267.185 402.635 247.355C399.25 266.217 407.136 283.159 411.502 289.272Z" fill="#888888"/>
<path d="M163.408 225.867C163.072 236.95 162.925 259.924 165.02 263.149L175.903 225.867L212.379 232.315L220.239 214.178L210.968 207.729L186.181 200.474L163.408 225.867Z" fill="#8F8F8F"/>
<path d="M335.108 221.836C335.443 232.92 335.591 255.894 333.495 259.118L322.613 221.836L286.137 228.285L271.224 221.836L277.471 202.489L312.335 196.444L335.108 221.836Z" fill="#8F8F8F"/>
<path d="M60.4282 107.974L140.636 84.9998C150.981 90.441 183.52 106.523 209.96 127.32C238.819 109.908 277.337 120.065 291.981 127.32C312.94 113.213 349.819 84.9998 358.686 84.9998C367.554 84.9998 412.897 100.316 434.46 107.974H386.699C370.711 119.797 337.647 143.805 333.294 145.256C327.853 147.07 310.925 149.085 304.073 149.085C266.186 131.149 230.718 127.32 187.994 154.728C185.874 156.088 160.184 144.651 152.526 149.085L112.019 116.236L60.4282 107.974Z" fill="#959595"/>
</svg>
