<svg width="501" height="501" viewBox="0 0 501 501" fill="none" xmlns="http://www.w3.org/2000/svg">
<mask id="path-1-outside-1_428_920" maskUnits="userSpaceOnUse" x="3.67188" y="98.4384" width="494" height="362" fill="black">
<rect fill="white" x="3.67188" y="98.4384" width="494" height="362"/>
<path d="M344.999 245.235C344.999 319.681 297.384 380.032 238.647 380.032C179.911 380.032 132.296 319.681 132.296 245.235C132.296 170.789 179.911 110.438 238.647 110.438C297.384 110.438 344.999 170.789 344.999 245.235Z"/>
<path d="M194.725 164.374C218.246 188.428 197.719 227.119 184.516 243.458L199.908 329.741C197.872 355.368 192.238 407.746 185.984 412.243C178.167 417.865 139.487 405.037 137.393 400.801C135.718 397.412 58.7843 341.946 20.5271 314.637C18.2635 272.1 14.2285 186.02 16.1974 182.001C18.6585 176.977 108.084 121.84 111.942 120.606C115.801 119.372 165.324 134.307 194.725 164.374Z"/>
<path d="M111.85 327.696C103.102 294.538 84.2728 227.533 78.9357 224.782L164.73 241.472C172.709 273.39 188.992 338.238 190.285 342.282C191.578 346.326 193.996 366.428 195.569 371.348L111.85 327.696Z"/>
<path d="M324.951 143.796C293.934 157.1 105.632 130.014 111.942 150.293L119.567 323.566C111.943 348.178 236.75 371.046 240.945 377.637C246.188 385.876 287.252 388.851 290.793 385.72C293.625 383.214 386.443 361.283 432.498 350.63C450.446 311.95 486.253 233.466 485.901 228.97C485.461 223.351 422.067 137.629 418.906 134.995C415.745 132.361 363.722 127.167 324.951 143.796Z"/>
<path d="M352.374 335.699C372.939 308.256 415.562 253.233 421.541 252.689L335.762 235.924C316.375 262.507 276.923 316.488 274.205 319.749C271.488 323.011 261.396 340.76 258.089 344.728L352.374 335.699Z"/>
<path d="M150.552 319.108L156.283 277.501L179.209 295.545L206.806 338.001L279.829 336.515L299.147 292.361L324.832 275.379C325.469 287.195 326.361 314.565 324.832 323.566C323.304 332.566 297.448 355.478 284.712 365.809C271.126 370.338 236.525 377.782 206.806 371.328C177.087 364.875 156.708 333.897 150.552 319.108Z"/>
<path d="M293.84 262.913L302.755 265.189L320.162 263.712L329.503 271.133L317.782 229.745L280.29 236.832C275.612 245.507 266.048 263.028 265.22 263.712C264.391 264.395 276.561 263.464 282.749 262.913H293.84Z"/>
<path d="M186.669 266.734L177.754 269.01L160.347 267.533L151.007 274.954L162.727 233.566L200.219 240.653C204.897 249.328 214.461 266.849 215.289 267.533C216.118 268.216 203.948 267.285 197.76 266.734H186.669Z"/>
<path d="M206.169 278.35C201.711 280.049 182.394 291.936 155.859 277.077C174.879 297.625 200.791 337.505 200.013 348.615L209.565 322.504C207.159 314.508 208.752 277.366 206.169 278.35Z"/>
<path d="M285.985 279.624C287.853 277.586 296.599 285.356 326.53 274.954C307.51 295.502 281.598 337.505 282.376 348.614L272.824 322.504C275.23 314.508 284.117 281.662 285.985 279.624Z"/>
<path d="M200.853 330.06C202.696 315.346 185.774 307.049 180.483 307.645C160.001 336.937 135.413 408.28 173.714 436.073C164.497 354.584 198.548 348.453 200.853 330.06Z"/>
<path d="M282.386 330.06C280.542 315.346 293.643 306.624 298.934 307.22C319.416 336.512 347.826 408.28 309.524 436.073C318.741 354.584 284.69 348.453 282.386 330.06Z"/>
<path d="M231.494 427.753C217.041 421.692 214.071 399.529 209.815 388.537L192.954 346.647V326.326L209.815 318.981C233.71 296.45 279.348 326.386 290.268 335.774C292.114 357.64 275.574 384.972 275.574 393.171C275.574 400.763 267.144 420.266 254.377 429.535C241.852 430.07 238.963 430.885 231.494 427.753Z"/>
<path d="M208.184 365.8C222.454 349.176 255.317 326.906 277.02 366.433C256.689 339.015 222.658 354.587 208.184 365.8Z"/>
<path d="M203.418 348.27C219.075 330.037 255.134 305.612 278.946 348.965C256.639 318.892 219.3 335.972 203.418 348.27Z"/>
<path d="M217.7 380.57C228.798 367.968 254.359 351.086 271.238 381.05C255.425 360.265 228.957 372.07 217.7 380.57Z"/>
<path d="M223.109 395.412C232.347 384.693 253.12 370.554 265.129 396.931C253.576 378.55 232.302 388.26 223.109 395.412Z"/>
<path d="M222.734 407.434C231.74 397.654 252.204 384.686 264.78 408.48C252.832 391.923 231.771 400.884 222.734 407.434Z"/>
<path d="M222.909 414.084C231.629 420.251 251.713 428.512 264.975 413.849C252.551 424.02 231.754 418.244 222.909 414.084Z"/>
<path d="M229.549 420.776C235.495 424.798 249.188 430.186 258.231 420.623C249.76 427.256 235.58 423.489 229.549 420.776Z"/>
<path d="M44.7108 278.059C44.09 276.118 38.2104 300.939 35.3482 313.592C36.6846 317.771 40.5222 324.195 45.1817 316.465C51.006 306.802 45.4867 280.485 44.7108 278.059Z"/>
<path d="M61.0881 272.821L60.1009 326.18C59.3808 328.342 60.8631 334.138 72.5529 340.027C84.2427 345.917 69.7805 297.677 61.0881 272.821Z"/>
<path d="M119.567 371.348C115.941 369.536 108.509 365.346 107.785 363.081C111.093 359.72 117.17 347.688 115.013 326.448C124.462 344.286 121.986 363.814 119.567 371.348Z"/>
<path d="M428.321 299.958C429.625 298.392 425.749 323.604 423.648 336.406C420.84 339.776 414.869 344.288 413.456 335.373C411.688 324.23 426.69 301.915 428.321 299.958Z"/>
<path d="M415.111 288.951L395.979 338.772C395.835 341.046 392.283 345.861 379.237 346.927C366.191 347.993 397.717 308.72 415.111 288.951Z"/>
<path d="M323.901 358.291C327.941 357.974 336.403 356.882 337.925 355.056C336.122 350.698 335.01 337.264 344.99 318.39C329.531 331.372 324.489 350.4 323.901 358.291Z"/>
<path d="M149.915 233.984C149.561 245.66 149.405 269.859 151.613 273.256L163.076 233.984L201.498 240.777L209.777 221.672L200.012 214.879L173.902 207.237L149.915 233.984Z"/>
<path d="M330.776 229.739C331.13 241.414 331.285 265.614 329.078 269.01L317.615 229.739L279.192 236.532L263.484 229.739L270.064 209.36L306.788 202.992L330.776 229.739Z"/>
</mask>
<path d="M344.999 245.235C344.999 319.681 297.384 380.032 238.647 380.032C179.911 380.032 132.296 319.681 132.296 245.235C132.296 170.789 179.911 110.438 238.647 110.438C297.384 110.438 344.999 170.789 344.999 245.235Z" fill="#858585"/>
<path d="M194.725 164.374C218.246 188.428 197.719 227.119 184.516 243.458L199.908 329.741C197.872 355.368 192.238 407.746 185.984 412.243C178.167 417.865 139.487 405.037 137.393 400.801C135.718 397.412 58.7843 341.946 20.5271 314.637C18.2635 272.1 14.2285 186.02 16.1974 182.001C18.6585 176.977 108.084 121.84 111.942 120.606C115.801 119.372 165.324 134.307 194.725 164.374Z" fill="#858585"/>
<path d="M111.85 327.696C103.102 294.538 84.2728 227.533 78.9357 224.782L164.73 241.472C172.709 273.39 188.992 338.238 190.285 342.282C191.578 346.326 193.996 366.428 195.569 371.348L111.85 327.696Z" fill="#7C7C7C"/>
<path d="M324.951 143.796C293.934 157.1 105.632 130.014 111.942 150.293L119.567 323.566C111.943 348.178 236.75 371.046 240.945 377.637C246.188 385.876 287.252 388.851 290.793 385.72C293.625 383.214 386.443 361.283 432.498 350.63C450.446 311.95 486.253 233.466 485.901 228.97C485.461 223.351 422.067 137.629 418.906 134.995C415.745 132.361 363.722 127.167 324.951 143.796Z" fill="#858585"/>
<path d="M352.374 335.699C372.939 308.256 415.562 253.233 421.541 252.689L335.762 235.924C316.375 262.507 276.923 316.488 274.205 319.749C271.488 323.011 261.396 340.76 258.089 344.728L352.374 335.699Z" fill="#7C7C7C"/>
<path d="M150.552 319.108L156.283 277.501L179.209 295.545L206.806 338.001L279.829 336.515L299.147 292.361L324.832 275.379C325.469 287.195 326.361 314.565 324.832 323.566C323.304 332.566 297.448 355.478 284.712 365.809C271.126 370.338 236.525 377.782 206.806 371.328C177.087 364.875 156.708 333.897 150.552 319.108Z" fill="#767676"/>
<path d="M293.84 262.913L302.755 265.189L320.162 263.712L329.503 271.133L317.782 229.745L280.29 236.832C275.612 245.507 266.048 263.028 265.22 263.712C264.391 264.395 276.561 263.464 282.749 262.913H293.84Z" fill="#6D6D6D"/>
<path d="M186.669 266.734L177.754 269.01L160.347 267.533L151.007 274.954L162.727 233.566L200.219 240.653C204.897 249.328 214.461 266.849 215.289 267.533C216.118 268.216 203.948 267.285 197.76 266.734H186.669Z" fill="#6D6D6D"/>
<path d="M206.169 278.35C201.711 280.049 182.394 291.936 155.859 277.077C174.879 297.625 200.791 337.505 200.013 348.615L209.565 322.504C207.159 314.508 208.752 277.366 206.169 278.35Z" fill="#7C7C7C"/>
<path d="M285.985 279.624C287.853 277.586 296.599 285.356 326.53 274.954C307.51 295.502 281.598 337.505 282.376 348.614L272.824 322.504C275.23 314.508 284.117 281.662 285.985 279.624Z" fill="#7C7C7C"/>
<path d="M200.853 330.06C202.696 315.346 185.774 307.049 180.483 307.645C160.001 336.937 135.413 408.28 173.714 436.073C164.497 354.584 198.548 348.453 200.853 330.06Z" fill="#B7B2B2"/>
<path d="M282.386 330.06C280.542 315.346 293.643 306.624 298.934 307.22C319.416 336.512 347.826 408.28 309.524 436.073C318.741 354.584 284.69 348.453 282.386 330.06Z" fill="#B7B2B2"/>
<path d="M231.494 427.753C217.041 421.692 214.071 399.529 209.815 388.537L192.954 346.647V326.326L209.815 318.981C233.71 296.45 279.348 326.386 290.268 335.774C292.114 357.64 275.574 384.972 275.574 393.171C275.574 400.763 267.144 420.266 254.377 429.535C241.852 430.07 238.963 430.885 231.494 427.753Z" fill="#858585"/>
<path d="M208.184 365.8C222.454 349.176 255.317 326.906 277.02 366.433C256.689 339.015 222.658 354.587 208.184 365.8Z" fill="#7E7E7E"/>
<path d="M203.418 348.27C219.075 330.037 255.134 305.612 278.946 348.965C256.639 318.892 219.3 335.972 203.418 348.27Z" fill="#7E7E7E"/>
<path d="M217.7 380.57C228.798 367.968 254.359 351.086 271.238 381.05C255.425 360.265 228.957 372.07 217.7 380.57Z" fill="#7E7E7E"/>
<path d="M223.109 395.412C232.347 384.693 253.12 370.554 265.129 396.931C253.576 378.55 232.302 388.26 223.109 395.412Z" fill="#7E7E7E"/>
<path d="M222.734 407.434C231.74 397.654 252.204 384.686 264.78 408.48C252.832 391.923 231.771 400.884 222.734 407.434Z" fill="#7E7E7E"/>
<path d="M222.909 414.084C231.629 420.251 251.713 428.512 264.975 413.849C252.551 424.02 231.754 418.244 222.909 414.084Z" fill="#7E7E7E"/>
<path d="M229.549 420.776C235.495 424.798 249.188 430.186 258.231 420.623C249.76 427.256 235.58 423.489 229.549 420.776Z" fill="#7E7E7E"/>
<path d="M44.7108 278.059C44.09 276.118 38.2104 300.939 35.3482 313.592C36.6846 317.771 40.5222 324.195 45.1817 316.465C51.006 306.802 45.4867 280.485 44.7108 278.059Z" fill="#888888"/>
<path d="M61.0881 272.821L60.1009 326.18C59.3808 328.342 60.8631 334.138 72.5529 340.027C84.2427 345.917 69.7805 297.677 61.0881 272.821Z" fill="#888888"/>
<path d="M119.567 371.348C115.941 369.536 108.509 365.346 107.785 363.081C111.093 359.72 117.17 347.688 115.013 326.448C124.462 344.286 121.986 363.814 119.567 371.348Z" fill="#888888"/>
<path d="M428.321 299.958C429.625 298.392 425.749 323.604 423.648 336.406C420.84 339.776 414.869 344.288 413.456 335.373C411.688 324.23 426.69 301.915 428.321 299.958Z" fill="#888888"/>
<path d="M415.111 288.951L395.979 338.772C395.835 341.046 392.283 345.861 379.237 346.927C366.191 347.993 397.717 308.72 415.111 288.951Z" fill="#888888"/>
<path d="M323.901 358.291C327.941 357.974 336.403 356.882 337.925 355.056C336.122 350.698 335.01 337.264 344.99 318.39C329.531 331.372 324.489 350.4 323.901 358.291Z" fill="#888888"/>
<path d="M149.915 233.984C149.561 245.66 149.405 269.859 151.613 273.256L163.076 233.984L201.498 240.777L209.777 221.672L200.012 214.879L173.902 207.237L149.915 233.984Z" fill="#8F8F8F"/>
<path d="M330.776 229.739C331.13 241.414 331.285 265.614 329.078 269.01L317.615 229.739L279.192 236.532L263.484 229.739L270.064 209.36L306.788 202.992L330.776 229.739Z" fill="#8F8F8F"/>
<path d="M211.954 370.04C212.115 369.847 212.28 369.654 212.447 369.459L203.922 362.142C203.725 362.371 203.531 362.6 203.341 362.827L211.954 370.04ZM207.136 352.572C207.314 352.359 207.495 352.145 207.68 351.93L199.157 344.611C198.942 344.861 198.731 345.11 198.523 345.358L207.136 352.572ZM221.543 384.711C221.665 384.569 221.789 384.426 221.915 384.283L213.484 376.858C213.328 377.036 213.173 377.213 213.021 377.39L221.543 384.711ZM227.059 399.437C227.159 399.319 227.261 399.199 227.364 399.08L218.854 391.745C218.722 391.899 218.591 392.052 218.463 392.204L227.059 399.437ZM226.573 411.561C226.669 411.455 226.767 411.347 226.866 411.239L218.602 403.629C218.472 403.771 218.344 403.912 218.217 404.052L226.573 411.561ZM219.284 418.397C219.41 418.488 219.537 418.579 219.666 418.67L226.153 409.498C226.059 409.432 225.968 409.366 225.878 409.301L219.284 418.397ZM226.125 425.238C226.217 425.302 226.309 425.365 226.402 425.428L232.697 416.123C232.638 416.083 232.581 416.045 232.527 416.007L226.125 425.238ZM184.516 243.458L175.778 236.397L172.556 240.384L173.456 245.431L184.516 243.458ZM194.725 164.374L202.757 156.52L202.757 156.52L194.725 164.374ZM16.1974 182.001L26.2862 186.943L26.2863 186.943L16.1974 182.001ZM20.5271 314.637L9.30868 315.234L9.5962 320.637L14 323.781L20.5271 314.637ZM137.393 400.801L127.322 405.78L127.322 405.78L137.393 400.801ZM185.984 412.243L179.425 403.123L179.425 403.123L185.984 412.243ZM199.908 329.741L211.107 330.631L211.221 329.191L210.967 327.769L199.908 329.741ZM78.9357 224.782L81.0809 213.754L73.7893 234.768L78.9357 224.782ZM111.85 327.696L100.987 330.562L102.254 335.363L106.656 337.658L111.85 327.696ZM195.569 371.348L190.375 381.31L214.588 393.934L206.27 367.926L195.569 371.348ZM164.73 241.472L175.629 238.747L173.894 231.81L166.875 230.444L164.73 241.472ZM111.942 150.293L123.166 149.799L123.102 148.345L122.669 146.956L111.942 150.293ZM324.951 143.796L329.38 154.121L329.38 154.121L324.951 143.796ZM485.901 228.97L497.101 228.093L497.101 228.093L485.901 228.97ZM432.498 350.63L435.029 361.575L440.378 360.338L442.688 355.358L432.498 350.63ZM290.793 385.72L298.235 394.135L298.236 394.135L290.793 385.72ZM240.945 377.637L250.423 371.606L250.423 371.606L240.945 377.637ZM119.567 323.566L130.298 326.89L130.876 325.024L130.79 323.072L119.567 323.566ZM421.541 252.689L422.559 263.877L423.696 241.663L421.541 252.689ZM352.374 335.699L353.445 346.882L358.388 346.409L361.365 342.436L352.374 335.699ZM258.089 344.728L249.459 337.537L231.979 358.514L259.16 355.911L258.089 344.728ZM274.205 319.749L282.836 326.941L274.205 319.749ZM335.762 235.924L337.917 224.899L330.899 223.527L326.685 229.305L335.762 235.924ZM156.283 277.501L163.231 268.673L147.829 256.551L145.154 275.968L156.283 277.501ZM150.552 319.108L139.423 317.575L139.006 320.603L140.18 323.425L150.552 319.108ZM284.712 365.809L288.264 376.467L290.202 375.821L291.789 374.534L284.712 365.809ZM324.832 323.566L335.908 325.446L335.908 325.446L324.832 323.566ZM324.832 275.379L336.05 274.774L334.995 255.192L318.637 266.007L324.832 275.379ZM179.209 295.545L188.629 289.422L187.617 287.865L186.157 286.717L179.209 295.545ZM279.829 336.515L280.058 347.747L287.242 347.6L290.122 341.018L279.829 336.515ZM206.806 338.001L197.386 344.123L200.79 349.36L207.034 349.233L206.806 338.001ZM299.147 292.361L292.951 282.99L290.184 284.819L288.854 287.858L299.147 292.361ZM302.755 265.189L299.976 276.074L301.815 276.544L303.705 276.383L302.755 265.189ZM293.84 262.913L296.619 252.028L295.251 251.678H293.84V262.913ZM282.749 262.913V251.678H282.25L281.752 251.723L282.749 262.913ZM265.22 263.712L258.07 255.046L258.07 255.046L265.22 263.712ZM280.29 236.832L278.203 225.793L272.943 226.788L270.402 231.5L280.29 236.832ZM317.782 229.745L328.591 226.684L325.791 216.798L315.695 218.706L317.782 229.745ZM329.503 271.133L322.514 279.929L349.812 301.618L340.312 268.072L329.503 271.133ZM320.162 263.712L327.151 254.916L323.658 252.141L319.212 252.518L320.162 263.712ZM177.754 269.01L176.804 280.204L178.694 280.365L180.533 279.895L177.754 269.01ZM186.669 266.734V255.5H185.258L183.89 255.849L186.669 266.734ZM197.76 266.734L198.757 255.544L198.259 255.5H197.76V266.734ZM215.289 267.533L222.439 258.867L222.439 258.867L215.289 267.533ZM200.219 240.653L210.107 235.321L207.566 230.609L202.306 229.614L200.219 240.653ZM162.727 233.566L164.814 222.527L154.718 220.619L151.918 230.505L162.727 233.566ZM151.007 274.954L140.197 271.893L130.697 305.439L157.995 283.75L151.007 274.954ZM160.347 267.533L161.297 256.339L156.851 255.962L153.358 258.737L160.347 267.533ZM155.859 277.077L161.348 267.275L147.614 284.708L155.859 277.077ZM206.169 278.35L210.168 288.849L210.168 288.849L206.169 278.35ZM209.565 322.504L220.116 326.364L221.401 322.85L220.323 319.267L209.565 322.504ZM200.013 348.615L188.806 347.829L210.563 352.474L200.013 348.615ZM326.53 274.954L334.775 282.585L322.842 264.342L326.53 274.954ZM285.985 279.624L277.704 272.033L277.704 272.033L285.985 279.624ZM272.824 322.504L262.066 319.267L260.988 322.85L262.273 326.364L272.824 322.504ZM282.376 348.614L271.826 352.474L293.583 347.829L282.376 348.614ZM180.483 307.645L179.225 296.481L174.184 297.049L171.276 301.207L180.483 307.645ZM200.853 330.06L189.706 328.664L189.706 328.664L200.853 330.06ZM173.714 436.073L167.116 445.166L187.741 460.132L184.877 434.811L173.714 436.073ZM298.934 307.22L308.141 300.783L305.234 296.625L300.192 296.057L298.934 307.22ZM282.386 330.06L293.533 328.664L293.533 328.664L282.386 330.06ZM309.524 436.073L298.361 434.811L295.497 460.132L316.122 445.166L309.524 436.073ZM209.815 388.537L220.292 384.481L220.265 384.411L220.237 384.342L209.815 388.537ZM231.494 427.753L235.838 417.392L235.838 417.392L231.494 427.753ZM254.377 429.535L254.856 440.759L258.238 440.615L260.978 438.626L254.377 429.535ZM290.268 335.774L301.462 334.828L301.075 330.25L297.592 327.255L290.268 335.774ZM209.815 318.981L214.302 329.28L216.097 328.498L217.522 327.155L209.815 318.981ZM192.954 346.647H181.719V348.824L182.532 350.842L192.954 346.647ZM192.954 326.326L188.467 316.027L181.719 318.967V326.326H192.954ZM208.184 365.8L199.66 358.483L215.065 374.681L208.184 365.8ZM277.02 366.433L267.996 373.125L286.867 361.027L277.02 366.433ZM203.418 348.27L194.895 340.952L210.297 357.153L203.418 348.27ZM278.946 348.965L269.923 355.658L288.793 343.556L278.946 348.965ZM217.7 380.57L209.269 373.146L224.469 389.536L217.7 380.57ZM271.238 381.05L262.297 387.852L281.026 375.536L271.238 381.05ZM223.109 395.412L214.599 388.078L230.008 404.279L223.109 395.412ZM265.129 396.931L255.617 402.909L275.353 392.276L265.129 396.931ZM222.734 407.434L214.47 399.825L229.327 416.531L222.734 407.434ZM264.78 408.48L255.67 415.054L274.712 403.23L264.78 408.48ZM222.909 414.084L227.69 403.918L216.422 423.256L222.909 414.084ZM264.975 413.849L273.307 421.385L257.859 405.156L264.975 413.849ZM229.549 420.776L234.158 410.53L223.255 430.081L229.549 420.776ZM258.231 420.623L266.394 428.341L251.304 411.777L258.231 420.623ZM35.3482 313.592L24.3907 311.114L23.7154 314.099L24.6478 317.015L35.3482 313.592ZM44.7108 278.059L55.4111 274.637L44.7108 278.059ZM45.1817 316.465L54.8034 322.264L54.8034 322.264L45.1817 316.465ZM60.1009 326.18L70.7595 329.73L71.3016 328.103L71.3333 326.388L60.1009 326.18ZM61.0881 272.821L71.6927 269.113L49.8557 272.613L61.0881 272.821ZM72.5529 340.027L77.6075 329.994L77.6075 329.994L72.5529 340.027ZM107.785 363.081L99.7784 355.201L95.0168 360.038L97.0846 366.504L107.785 363.081ZM119.567 371.348L114.544 381.397L126.259 387.253L130.263 374.783L119.567 371.348ZM115.013 326.448L124.94 321.189L103.836 327.583L115.013 326.448ZM423.648 336.406L432.279 343.597L434.238 341.246L434.734 338.225L423.648 336.406ZM428.321 299.958L419.69 292.766L428.321 299.958ZM413.456 335.373L402.36 337.133L402.36 337.133L413.456 335.373ZM395.979 338.772L385.492 334.745L384.877 336.346L384.768 338.058L395.979 338.772ZM415.111 288.951L425.598 292.978L406.676 281.53L415.111 288.951ZM379.237 346.927L378.322 335.73L378.322 335.73L379.237 346.927ZM337.925 355.056L346.556 362.247L350.901 357.032L348.306 350.76L337.925 355.056ZM323.901 358.291L312.697 357.456L311.724 370.516L324.78 369.491L323.901 358.291ZM344.99 318.39L354.921 323.641L337.765 309.787L344.99 318.39ZM151.613 273.256L142.194 279.378L155.537 299.906L162.397 276.404L151.613 273.256ZM149.915 233.984L141.551 226.484L138.81 229.54L138.686 233.644L149.915 233.984ZM173.902 207.237L177.058 196.455L170.265 194.467L165.539 199.737L173.902 207.237ZM200.012 214.879L206.428 205.657L204.925 204.611L203.168 204.097L200.012 214.879ZM209.777 221.672L220.085 226.139L223.742 217.701L216.193 212.45L209.777 221.672ZM201.498 240.777L199.543 251.84L208.279 253.384L211.806 245.244L201.498 240.777ZM163.076 233.984L165.032 222.922L155.114 221.168L152.292 230.836L163.076 233.984ZM329.078 269.01L318.293 272.158L325.154 295.661L338.497 275.133L329.078 269.01ZM330.776 229.739L342.005 229.398L341.881 225.295L339.139 222.238L330.776 229.739ZM306.788 202.992L315.152 195.491L310.998 190.86L304.869 191.922L306.788 202.992ZM270.064 209.36L268.145 198.291L261.459 199.45L259.374 205.908L270.064 209.36ZM263.484 229.739L252.793 226.286L249.657 235.999L259.025 240.05L263.484 229.739ZM279.192 236.532L274.733 246.843L277.828 248.181L281.148 247.594L279.192 236.532ZM317.615 229.739L328.399 226.591L325.577 216.922L315.659 218.676L317.615 229.739ZM333.764 245.235C333.764 316.104 288.843 368.797 238.647 368.797V391.266C305.924 391.266 356.233 323.258 356.233 245.235H333.764ZM238.647 368.797C188.451 368.797 143.53 316.104 143.53 245.235H121.062C121.062 323.258 171.371 391.266 238.647 391.266V368.797ZM143.53 245.235C143.53 174.366 188.451 121.673 238.647 121.673V99.2041C171.371 99.2041 121.062 167.212 121.062 245.235H143.53ZM238.647 121.673C288.843 121.673 333.764 174.366 333.764 245.235H356.233C356.233 167.212 305.924 99.2041 238.647 99.2041V121.673ZM193.254 250.519C200.56 241.478 209.913 226.313 214.262 209.646C218.633 192.897 218.358 172.474 202.757 156.52L186.692 172.229C194.613 180.329 195.834 191.278 192.522 203.973C189.187 216.75 181.675 229.099 175.778 236.397L193.254 250.519ZM202.757 156.52C186.666 140.064 165.509 128.114 148.311 120.483C139.636 116.634 131.724 113.776 125.604 111.937C122.562 111.023 119.819 110.317 117.562 109.874C116.45 109.656 115.268 109.465 114.127 109.369C113.512 109.317 111.09 109.083 108.52 109.905L115.365 131.306C114.068 131.721 113.061 131.757 112.815 131.765C112.616 131.772 112.469 131.769 112.386 131.766C112.301 131.763 112.251 131.759 112.243 131.758C112.233 131.758 112.312 131.764 112.5 131.793C112.681 131.82 112.927 131.862 113.241 131.924C114.545 132.179 116.534 132.672 119.137 133.455C124.306 135.008 131.336 137.532 139.199 141.021C155.078 148.066 173.382 158.617 186.692 172.229L202.757 156.52ZM108.52 109.905C107.027 110.383 105.377 111.309 104.882 111.579C103.887 112.122 102.628 112.837 101.184 113.675C98.2804 115.359 94.3956 117.673 89.8873 120.4C80.8596 125.859 69.1857 133.059 57.5623 140.374C45.9514 147.681 34.3174 155.148 25.396 161.131C20.9517 164.112 17.0721 166.796 14.1739 168.943C12.7407 170.004 11.4036 171.039 10.3121 171.978C9.77303 172.441 9.15667 172.998 8.57114 173.608C8.18896 174.007 6.9928 175.253 6.10858 177.059L26.2863 186.943C25.854 187.825 25.4064 188.418 25.2235 188.652C25.0056 188.93 24.8387 189.107 24.7842 189.164C24.6816 189.271 24.7076 189.232 24.9596 189.016C25.4503 188.594 26.2906 187.928 27.5458 186.999C30.0241 185.164 33.5648 182.706 37.9105 179.792C46.5692 173.985 57.9942 166.65 69.5297 159.39C81.0526 152.138 92.6124 145.009 101.514 139.626C105.97 136.931 109.724 134.696 112.459 133.11C113.834 132.312 114.895 131.711 115.635 131.308C116.874 130.632 116.376 130.983 115.365 131.306L108.52 109.905ZM6.10859 177.059C5.31219 178.684 5.04706 180.21 4.96863 180.652C4.8414 181.369 4.76233 182.074 4.70823 182.672C4.59855 183.883 4.53424 185.308 4.49487 186.816C4.4152 189.867 4.4228 193.905 4.49192 198.604C4.63066 208.038 5.02522 220.608 5.549 234.304C6.59746 261.719 8.17517 293.933 9.30868 315.234L31.7455 314.04C30.6154 292.804 29.0439 260.709 28.0012 233.445C27.4794 219.801 27.0929 207.44 26.9581 198.274C26.8904 193.673 26.8881 189.994 26.9558 187.402C26.9901 186.089 27.0388 185.211 27.0852 184.699C27.1091 184.434 27.1189 184.423 27.0917 184.577C27.0775 184.657 27.0357 184.882 26.9496 185.198C26.8785 185.46 26.6874 186.124 26.2862 186.943L6.10859 177.059ZM14 323.781C33.1093 337.422 61.8703 358.089 86.0495 375.76C98.1468 384.6 109.052 392.658 117.016 398.699C121.01 401.729 124.19 404.195 126.389 405.976C127.502 406.877 128.256 407.517 128.705 407.921C128.938 408.132 128.973 408.174 128.893 408.091C128.853 408.049 128.697 407.885 128.489 407.625C128.349 407.45 127.82 406.787 127.322 405.78L147.464 395.822C146.567 394.008 145.312 392.751 145.145 392.576C144.674 392.082 144.176 391.618 143.745 391.229C142.864 390.435 141.756 389.509 140.531 388.516C138.052 386.508 134.647 383.872 130.595 380.798C122.468 374.633 111.435 366.482 99.3068 357.619C75.0363 339.882 46.2021 319.162 27.0542 305.493L14 323.781ZM127.322 405.78C128.539 408.242 130.334 409.775 131.113 410.408C132.116 411.223 133.17 411.899 134.087 412.436C135.941 413.52 138.14 414.56 140.392 415.513C144.95 417.442 150.692 419.418 156.533 421.043C162.335 422.656 168.641 424.036 174.265 424.601C177.064 424.882 180.029 424.998 182.844 424.719C185.406 424.466 189.198 423.77 192.544 421.364L179.425 403.123C180.816 402.122 181.69 402.255 180.632 402.36C179.828 402.439 178.471 402.442 176.512 402.245C172.62 401.854 167.659 400.816 162.553 399.396C157.484 397.986 152.675 396.313 149.147 394.82C147.357 394.063 146.129 393.45 145.436 393.044C145.08 392.835 145.081 392.807 145.283 392.971C145.392 393.06 145.666 393.29 146.007 393.666C146.322 394.012 146.924 394.731 147.464 395.822L127.322 405.78ZM192.544 421.364C194.695 419.817 196.02 417.896 196.761 416.672C197.58 415.318 198.226 413.893 198.741 412.59C199.772 409.983 200.656 406.9 201.43 403.703C202.992 397.254 204.405 389.082 205.646 380.528C208.136 363.35 210.077 343.592 211.107 330.631L188.708 328.852C187.703 341.517 185.808 360.762 183.41 377.304C182.205 385.61 180.91 392.977 179.593 398.414C178.928 401.161 178.33 403.108 177.848 404.326C177.607 404.935 177.488 405.123 177.536 405.043C177.568 404.991 177.701 404.775 177.956 404.47C178.202 404.177 178.678 403.66 179.425 403.123L192.544 421.364ZM210.967 327.769L195.576 241.485L173.456 245.431L188.848 331.714L210.967 327.769ZM73.7893 234.768C72.3315 234.017 71.4837 233.131 71.2198 232.845C71.0408 232.651 70.9185 232.498 70.8513 232.41C70.7822 232.32 70.7455 232.265 70.7408 232.258C70.7362 232.251 70.7991 232.346 70.9279 232.58C71.0528 232.807 71.2123 233.116 71.4062 233.517C72.217 235.197 73.2794 237.778 74.5606 241.25C77.0996 248.129 80.1525 257.553 83.3668 268.109C89.7796 289.168 96.6345 314.063 100.987 330.562L122.713 324.831C118.318 308.172 111.384 282.985 104.861 261.563C101.607 250.879 98.4053 240.964 95.6393 233.47C94.2681 229.755 92.9155 226.391 91.6408 223.75C91.0129 222.449 90.2766 221.056 89.4367 219.796C88.9202 219.021 87.1867 216.396 84.0821 214.796L73.7893 234.768ZM106.656 337.658L190.375 381.31L200.763 361.387L117.044 317.735L106.656 337.658ZM206.27 367.926C206.272 367.933 206.263 367.905 206.242 367.832C206.223 367.762 206.197 367.663 206.165 367.535C206.099 367.274 206.021 366.935 205.931 366.511C205.749 365.657 205.545 364.591 205.323 363.338C204.878 360.827 204.405 357.836 203.921 354.748C203.446 351.717 202.958 348.571 202.508 345.942C202.11 343.619 201.596 340.769 200.985 338.86L179.585 345.704C179.55 345.597 179.631 345.852 179.811 346.735C179.97 347.516 180.154 348.521 180.362 349.733C180.778 352.165 181.235 355.111 181.723 358.225C182.202 361.283 182.709 364.493 183.2 367.261C183.65 369.799 184.21 372.71 184.869 374.771L206.27 367.926ZM200.985 338.86C200.99 338.875 200.912 338.616 200.711 337.878C200.531 337.22 200.296 336.338 200.008 335.241C199.432 333.051 198.665 330.088 197.75 326.522C195.923 319.395 193.521 309.929 190.907 299.579C185.68 278.883 179.617 254.701 175.629 238.747L153.831 244.196C161.71 275.714 178.144 341.201 179.585 345.704L200.985 338.86ZM166.875 230.444L81.0809 213.754L76.7905 235.81L162.584 252.499L166.875 230.444ZM122.669 146.956C123.062 148.218 123.229 149.996 122.621 151.919C122.04 153.754 121.013 154.895 120.392 155.444C119.442 156.284 119.096 156.074 120.901 155.594C124.17 154.723 130.021 154.08 138.54 153.823C155.248 153.319 178.686 154.356 203.874 155.648C228.82 156.928 255.344 158.449 277.516 158.805C288.608 158.983 298.851 158.875 307.426 158.27C315.606 157.692 323.614 156.594 329.38 154.121L320.523 133.472C318.534 134.325 313.873 135.29 305.843 135.857C298.208 136.396 288.7 136.513 277.876 136.339C256.215 135.992 230.242 134.503 205.025 133.209C180.048 131.928 155.656 130.828 137.862 131.365C129.13 131.628 121.064 132.299 115.121 133.881C112.321 134.627 108.546 135.928 105.516 138.605C103.854 140.073 102.125 142.214 101.2 145.138C100.247 148.148 100.428 151.102 101.215 153.631L122.669 146.956ZM329.38 154.121C346.925 146.596 368.027 143.836 385.56 143.403C394.24 143.188 401.781 143.55 407.217 144.098C409.954 144.374 412.011 144.683 413.339 144.949C413.659 145.014 413.909 145.07 414.094 145.115C414.284 145.162 414.367 145.188 414.363 145.187C414.359 145.186 414.315 145.172 414.239 145.144C414.166 145.116 414.033 145.065 413.857 144.986C413.64 144.888 412.74 144.481 411.714 143.626L426.097 126.364C424.049 124.658 421.747 123.957 421.147 123.767C420.054 123.421 418.883 123.145 417.763 122.92C415.49 122.464 412.661 122.064 409.471 121.743C403.052 121.096 394.571 120.705 385.005 120.941C366.044 121.41 341.749 124.368 320.523 133.472L329.38 154.121ZM411.714 143.626C410.917 142.962 410.603 142.474 411.506 143.569C412.053 144.232 412.827 145.203 413.821 146.475C415.799 149.006 418.49 152.533 421.67 156.756C428.021 165.193 436.216 176.277 444.331 187.461C452.454 198.656 460.447 209.882 466.414 218.621C469.408 223.007 471.819 226.66 473.466 229.327C474.299 230.678 474.844 231.627 475.152 232.217C475.31 232.52 475.324 232.573 475.272 232.444C475.244 232.375 475.156 232.154 475.057 231.819C474.975 231.539 474.778 230.826 474.701 229.848L497.101 228.093C496.944 226.093 496.293 224.492 496.087 223.983C495.768 223.2 495.401 222.453 495.07 221.819C494.399 220.534 493.534 219.063 492.586 217.527C490.669 214.42 488.03 210.434 484.97 205.952C478.827 196.955 470.692 185.532 462.516 174.265C454.333 162.987 446.059 151.796 439.621 143.243C436.405 138.972 433.623 135.325 431.526 132.642C430.484 131.307 429.571 130.161 428.842 129.276C428.469 128.824 427.289 127.358 426.097 126.364L411.714 143.626ZM474.701 229.848C474.63 228.937 474.697 228.248 474.728 227.976C474.765 227.648 474.81 227.421 474.826 227.339C474.858 227.184 474.864 227.196 474.789 227.449C474.643 227.94 474.363 228.773 473.907 230.006C473.007 232.44 471.637 235.858 469.862 240.109C466.326 248.578 461.366 259.922 455.801 272.407C444.681 297.355 431.267 326.591 422.307 345.901L442.688 355.358C451.676 335.989 465.141 306.643 476.323 281.555C481.909 269.022 486.956 257.484 490.597 248.765C492.41 244.421 493.92 240.668 494.981 237.798C495.505 236.38 495.976 235.027 496.324 233.856C496.496 233.278 496.685 232.589 496.833 231.871C496.925 231.425 497.243 229.904 497.101 228.093L474.701 229.848ZM429.966 339.685C406.915 345.016 372.153 353.173 342.783 360.314C328.107 363.882 314.722 367.21 304.803 369.811C299.858 371.108 295.683 372.247 292.61 373.159C291.091 373.61 289.706 374.045 288.583 374.444C288.034 374.639 287.393 374.88 286.765 375.158C286.547 375.255 284.885 375.946 283.35 377.305L298.236 394.135C297.382 394.89 296.628 395.308 296.43 395.418C296.135 395.581 295.924 395.675 295.87 395.699C295.763 395.747 295.81 395.721 296.107 395.615C296.677 395.413 297.622 395.109 299.002 394.7C301.727 393.891 305.628 392.823 310.502 391.545C320.223 388.996 333.452 385.706 348.091 382.146C377.351 375.032 412.025 366.896 435.029 361.575L429.966 339.685ZM283.35 377.305C284.276 376.485 285.12 376.043 285.548 375.84C286.013 375.62 286.358 375.511 286.493 375.471C286.745 375.395 286.734 375.423 286.32 375.48C285.514 375.59 284.13 375.688 282.164 375.703C278.292 375.731 273.151 375.433 267.863 374.79C262.539 374.143 257.484 373.195 253.667 372.053C251.746 371.479 250.454 370.947 249.703 370.55C248.729 370.034 249.535 370.211 250.423 371.606L231.467 383.668C233.665 387.123 236.901 389.195 239.19 390.407C241.702 391.737 244.506 392.765 247.228 393.579C252.696 395.215 259.111 396.36 265.15 397.095C271.227 397.834 277.343 398.207 282.33 398.171C284.795 398.152 287.241 398.033 289.379 397.739C290.436 397.594 291.676 397.372 292.921 397C293.881 396.714 296.154 395.976 298.235 394.135L283.35 377.305ZM250.423 371.606C249.007 369.381 247.164 368.105 246.402 367.601C245.415 366.948 244.41 366.433 243.574 366.042C241.889 365.252 239.894 364.504 237.86 363.805C233.74 362.391 228.283 360.787 222.206 359.062C209.838 355.551 194.374 351.386 179.175 346.636C163.874 341.854 149.717 336.738 140.016 331.56C135.079 328.925 132.167 326.722 130.776 325.174C129.485 323.738 130.977 324.697 130.298 326.89L108.835 320.242C106.25 328.587 109.975 335.645 114.067 340.196C118.058 344.636 123.679 348.309 129.436 351.382C141.123 357.619 157.001 363.247 172.473 368.082C188.047 372.949 204.094 377.276 216.07 380.676C222.164 382.406 227.086 383.862 230.565 385.056C232.329 385.662 233.438 386.105 234.039 386.386C234.346 386.53 234.279 386.521 234.009 386.343C233.965 386.314 232.62 385.481 231.467 383.668L250.423 371.606ZM130.79 323.072L123.166 149.799L100.719 150.787L108.343 324.06L130.79 323.072ZM420.523 241.501C417.045 241.817 414.452 243.599 413.683 244.123C412.431 244.975 411.225 245.99 410.154 246.96C407.981 248.928 405.464 251.537 402.797 254.465C397.418 260.371 390.726 268.357 383.697 277.036C369.604 294.438 353.716 315.175 343.384 328.962L361.365 342.436C371.597 328.78 387.303 308.284 401.157 291.177C408.102 282.603 414.472 275.015 419.409 269.594C421.901 266.858 423.855 264.865 425.237 263.613C425.568 263.314 425.832 263.088 426.033 262.924C426.24 262.756 426.334 262.691 426.327 262.696C426.32 262.701 426.266 262.738 426.168 262.795C426.072 262.852 425.901 262.948 425.663 263.06C425.311 263.226 424.192 263.729 422.559 263.877L420.523 241.501ZM351.303 324.516L257.018 333.545L259.16 355.911L353.445 346.882L351.303 324.516ZM266.72 351.92C269.044 349.131 272.961 342.713 275.945 337.848C277.603 335.144 279.174 332.576 280.504 330.47C281.167 329.42 281.731 328.548 282.185 327.874C282.695 327.117 282.884 326.883 282.836 326.941L265.575 312.558C264.328 314.053 262.781 316.455 261.508 318.471C260.078 320.734 258.409 323.463 256.792 326.1C255.146 328.782 253.544 331.387 252.156 333.557C251.463 334.641 250.858 335.561 250.355 336.295C250.105 336.66 249.898 336.953 249.732 337.179C249.65 337.29 249.584 337.377 249.535 337.44C249.51 337.472 249.492 337.496 249.478 337.512C249.465 337.529 249.458 337.537 249.459 337.537L266.72 351.92ZM282.836 326.941C285.863 323.309 325.696 268.793 344.839 242.544L326.685 229.305C316.995 242.592 302.291 262.725 289.672 279.941C283.361 288.55 277.579 296.421 273.208 302.339C271.021 305.3 269.197 307.758 267.84 309.571C267.161 310.479 266.611 311.209 266.198 311.751C265.734 312.359 265.564 312.57 265.575 312.558L282.836 326.941ZM333.607 246.95L419.386 263.715L423.696 241.663L337.917 224.899L333.607 246.95ZM145.154 275.968L139.423 317.575L161.681 320.641L167.413 279.034L145.154 275.968ZM140.18 323.425C143.752 332.004 151.09 344.567 161.579 355.955C172.042 367.314 186.485 378.412 204.422 382.307L209.19 360.35C197.407 357.791 186.801 350.173 178.106 340.733C169.437 331.321 163.508 321 160.924 314.79L140.18 323.425ZM204.422 382.307C236.932 389.366 273.758 381.302 288.264 376.467L281.159 355.151C268.494 359.373 236.117 366.197 209.19 360.35L204.422 382.307ZM291.789 374.534C298.351 369.211 308.291 360.653 316.869 352.182C321.143 347.962 325.272 343.573 328.509 339.495C330.126 337.458 331.66 335.325 332.9 333.194C334.057 331.208 335.388 328.507 335.908 325.446L313.757 321.685C313.894 320.874 314.084 320.858 313.484 321.888C312.968 322.774 312.131 323.988 310.911 325.526C308.472 328.598 305.055 332.271 301.081 336.195C293.165 344.012 283.809 352.076 277.635 357.084L291.789 374.534ZM335.908 325.446C336.874 319.759 336.986 309.602 336.878 300.396C336.764 290.774 336.376 280.819 336.05 274.774L313.614 275.983C313.925 281.755 314.301 291.393 314.411 300.661C314.525 310.344 314.319 318.372 313.757 321.685L335.908 325.446ZM186.157 286.717L163.231 268.673L149.335 286.329L172.261 304.373L186.157 286.717ZM279.601 325.283L206.577 326.769L207.034 349.233L280.058 347.747L279.601 325.283ZM216.225 331.878L188.629 289.422L169.79 301.668L197.386 344.123L216.225 331.878ZM318.637 266.007L292.951 282.99L305.343 301.732L331.028 284.75L318.637 266.007ZM288.854 287.858L269.537 332.012L290.122 341.018L309.439 296.864L288.854 287.858ZM305.535 254.304L296.619 252.028L291.061 273.798L299.976 276.074L305.535 254.304ZM293.84 251.678H282.749V274.147H293.84V251.678ZM281.752 251.723C278.715 251.993 274.251 252.353 270.7 252.56C268.876 252.666 267.514 252.719 266.741 252.719C266.203 252.719 266.491 252.69 267.108 252.781C267.309 252.81 267.746 252.88 268.305 253.034C268.688 253.14 270.035 253.519 271.515 254.522C272.92 255.474 276.735 258.685 276.394 264.436C276.109 269.251 272.988 271.867 272.369 272.378L258.07 255.046C257.4 255.6 254.253 258.255 253.965 263.107C253.622 268.894 257.459 272.139 258.909 273.121C260.434 274.155 261.849 274.561 262.323 274.692C262.971 274.871 263.521 274.963 263.854 275.012C265.003 275.18 266.154 275.187 266.737 275.187C268.206 275.187 270.117 275.101 272.007 274.991C275.88 274.765 280.595 274.383 283.746 274.103L281.752 251.723ZM272.369 272.378C273.352 271.567 273.99 270.75 274.114 270.594C274.365 270.278 274.568 269.993 274.701 269.802C274.972 269.412 275.232 269.005 275.447 268.659C275.893 267.944 276.423 267.048 276.986 266.076C278.126 264.11 279.585 261.512 281.135 258.719C284.243 253.116 287.827 246.525 290.178 242.164L270.402 231.5C268.075 235.814 264.537 242.321 261.488 247.819C259.958 250.575 258.579 253.028 257.546 254.811C257.023 255.713 256.634 256.366 256.379 256.774C256.245 256.99 256.21 257.038 256.248 256.983C256.263 256.961 256.365 256.813 256.531 256.605C256.57 256.556 257.139 255.814 258.07 255.046L272.369 272.378ZM282.377 247.871L319.868 240.784L315.695 218.706L278.203 225.793L282.377 247.871ZM306.973 232.806L318.693 274.194L340.312 268.072L328.591 226.684L306.973 232.806ZM336.491 262.337L327.151 254.916L313.174 272.508L322.514 279.929L336.491 262.337ZM319.212 252.518L301.806 253.995L303.705 276.383L321.112 274.906L319.212 252.518ZM180.533 279.895L189.448 277.619L183.89 255.849L174.974 258.125L180.533 279.895ZM186.669 277.968H197.76V255.5H186.669V277.968ZM196.763 277.924C199.914 278.204 204.629 278.586 208.502 278.812C210.392 278.922 212.303 279.009 213.772 279.008C214.355 279.008 215.506 279.001 216.655 278.833C216.988 278.785 217.538 278.692 218.186 278.513C218.66 278.382 220.075 277.976 221.6 276.942C223.05 275.96 226.887 272.715 226.544 266.928C226.256 262.077 223.109 259.421 222.439 258.867L208.14 276.199C207.521 275.688 204.4 273.072 204.115 268.257C203.774 262.506 207.589 259.295 208.994 258.343C210.474 257.34 211.821 256.961 212.204 256.855C212.763 256.701 213.2 256.631 213.401 256.602C214.018 256.511 214.306 256.54 213.768 256.54C212.995 256.54 211.633 256.487 209.81 256.381C206.258 256.174 201.794 255.814 198.757 255.544L196.763 277.924ZM222.439 258.867C223.37 259.635 223.939 260.377 223.978 260.426C224.144 260.635 224.246 260.782 224.261 260.804C224.299 260.859 224.264 260.811 224.13 260.595C223.875 260.187 223.486 259.534 222.963 258.632C221.93 256.849 220.551 254.396 219.021 251.64C215.972 246.142 212.434 239.636 210.107 235.321L190.331 245.985C192.682 250.346 196.266 256.937 199.374 262.54C200.924 265.333 202.383 267.931 203.523 269.898C204.086 270.869 204.616 271.765 205.062 272.48C205.277 272.826 205.537 273.233 205.808 273.623C205.941 273.814 206.144 274.099 206.395 274.415C206.519 274.571 207.157 275.388 208.14 276.199L222.439 258.867ZM202.306 229.614L164.814 222.527L160.641 244.605L198.132 251.692L202.306 229.614ZM151.918 230.505L140.197 271.893L161.816 278.015L173.536 236.627L151.918 230.505ZM157.995 283.75L167.335 276.329L153.358 258.737L144.018 266.158L157.995 283.75ZM159.397 278.727L176.804 280.204L178.704 257.816L161.297 256.339L159.397 278.727ZM150.37 286.879C165.984 295.623 180.003 296.703 190.986 295.029C196.375 294.207 200.863 292.751 204.268 291.413C205.965 290.746 207.396 290.107 208.472 289.616C209.063 289.347 209.4 289.191 209.77 289.025C210.132 288.862 210.216 288.83 210.168 288.849L202.169 267.852C198.145 269.385 194.73 271.73 187.6 272.817C181.175 273.796 172.268 273.39 161.348 267.275L150.37 286.879ZM210.168 288.849C207.109 290.014 203.671 289.75 200.821 288.119C198.513 286.8 197.362 285.031 196.951 284.34C196.465 283.522 196.228 282.857 196.142 282.601C196.04 282.297 195.997 282.102 195.991 282.076C195.982 282.036 196.021 282.212 196.08 282.704C196.135 283.165 196.191 283.767 196.246 284.523C196.473 287.651 196.587 292.143 196.702 297.309C196.813 302.321 196.923 307.87 197.163 312.654C197.377 316.942 197.74 322.193 198.807 325.741L220.323 319.267C220.334 319.304 220.18 318.7 220.004 317.067C219.845 315.59 219.713 313.725 219.603 311.533C219.383 307.135 219.279 301.961 219.165 296.811C219.054 291.815 218.932 286.706 218.656 282.897C218.525 281.095 218.323 278.994 217.924 277.198C217.767 276.493 217.348 274.68 216.261 272.853C215.719 271.942 214.43 270.019 211.977 268.616C208.981 266.903 205.39 266.625 202.169 267.852L210.168 288.849ZM199.015 318.644L189.462 344.755L210.563 352.474L220.116 326.364L199.015 318.644ZM211.219 349.4C211.461 345.956 210.671 342.552 209.862 339.907C208.987 337.049 207.741 333.99 206.302 330.899C203.417 324.702 199.395 317.6 194.87 310.405C185.84 296.045 174.196 280.349 164.103 269.445L147.614 284.708C156.542 294.353 167.364 308.872 175.85 322.366C180.083 329.098 183.582 335.333 185.932 340.381C187.11 342.911 187.908 344.951 188.376 346.481C188.909 348.223 188.759 348.496 188.806 347.829L211.219 349.4ZM322.842 264.342C309.07 269.128 300.898 269.494 296.439 269.213C294.132 269.068 292.604 268.75 290.891 268.441C290.28 268.331 288.652 268.021 286.967 268.031C285.142 268.042 281.007 268.429 277.704 272.033L294.266 287.215C291.43 290.309 287.977 290.494 287.104 290.499C286.373 290.503 285.968 290.384 286.908 290.554C288.295 290.804 291.175 291.395 295.029 291.638C302.893 292.132 314.059 291.181 330.218 285.566L322.842 264.342ZM277.704 272.033C276.326 273.535 275.571 275.191 275.407 275.535C275.066 276.253 274.759 277.009 274.497 277.691C273.964 279.075 273.383 280.776 272.794 282.59C271.605 286.251 270.205 290.932 268.82 295.689C265.962 305.505 263.274 315.253 262.066 319.267L283.582 325.741C284.78 321.76 287.738 311.087 290.392 301.97C291.764 297.261 293.086 292.85 294.164 289.529C294.709 287.852 295.147 286.59 295.467 285.757C295.632 285.329 295.709 285.163 295.704 285.172C295.702 285.177 295.626 285.338 295.479 285.589C295.383 285.753 294.984 286.433 294.266 287.215L277.704 272.033ZM262.273 326.364L271.826 352.474L292.927 344.755L283.374 318.644L262.273 326.364ZM293.583 347.829C293.628 348.475 293.487 348.155 294.036 346.312C294.517 344.697 295.332 342.555 296.519 339.914C298.886 334.648 302.402 328.136 306.638 321.145C315.146 307.099 325.938 292.132 334.775 282.585L318.286 267.323C308.102 278.324 296.428 294.633 287.42 309.503C282.897 316.969 278.892 324.326 276.026 330.701C274.596 333.882 273.365 337.004 272.504 339.894C271.711 342.553 270.93 345.976 271.17 349.4L293.583 347.829ZM181.741 318.808C180.807 318.914 180.379 318.773 180.69 318.837C180.895 318.879 181.337 318.997 181.972 319.252C183.259 319.769 184.805 320.633 186.201 321.783C189.06 324.137 189.987 326.421 189.706 328.664L212 331.457C213.562 318.986 206.95 309.764 200.485 304.439C197.22 301.75 193.658 299.732 190.342 298.401C187.422 297.229 183.299 296.022 179.225 296.481L181.741 318.808ZM189.706 328.664C189.544 329.952 188.82 331.629 185.402 336.124C182.314 340.184 177.44 346.073 173.101 354.024C164.078 370.561 157.754 394.922 162.551 437.336L184.877 434.811C180.458 395.735 186.55 376.285 192.825 364.786C196.135 358.72 199.629 354.534 203.286 349.725C206.613 345.351 211.009 339.364 212 331.457L189.706 328.664ZM180.312 426.981C166.43 416.907 162.435 397.853 166.153 374.163C169.797 350.947 180.389 327.384 189.69 314.083L171.276 301.207C160.095 317.197 148.152 343.952 143.956 370.679C139.836 396.932 142.697 427.446 167.116 445.166L180.312 426.981ZM300.192 296.057C295.823 295.565 291.729 296.984 288.866 298.404C285.696 299.976 282.544 302.282 279.796 305.207C274.219 311.144 269.831 320.218 271.239 331.457L293.533 328.664C293.097 325.188 294.338 322.544 296.173 320.591C297.131 319.571 298.131 318.889 298.848 318.533C299.201 318.358 299.359 318.325 299.293 318.341C299.285 318.343 298.692 318.498 297.677 318.384L300.192 296.057ZM271.239 331.457C272.229 339.365 276.626 345.351 279.952 349.725C283.609 354.534 287.104 358.72 290.414 364.786C296.688 376.285 302.781 395.735 298.361 434.811L320.687 437.336C325.485 394.922 319.16 370.562 310.137 354.025C305.799 346.073 300.924 340.185 297.837 336.124C294.418 331.63 293.694 329.953 293.533 328.664L271.239 331.457ZM316.122 445.166C340.835 427.233 342.392 396.255 337.301 370.065C332.092 343.269 319.174 316.562 308.141 300.783L289.728 313.658C299.176 327.171 310.704 350.993 315.245 374.353C319.904 398.318 316.515 417.12 302.926 426.981L316.122 445.166ZM199.338 392.593C200.192 394.798 201.012 397.657 202.195 401.644C203.302 405.377 204.651 409.812 206.406 414.181C209.748 422.504 215.577 433.26 227.149 438.113L235.838 417.392C232.958 416.185 230.075 412.829 227.256 405.808C225.929 402.504 224.834 398.959 223.736 395.255C222.713 391.805 221.566 387.772 220.292 384.481L199.338 392.593ZM227.149 438.113C231.939 440.122 235.856 441.067 240.618 441.246C244.435 441.389 249.351 440.994 254.856 440.759L253.898 418.311C246.878 418.611 244.087 418.891 241.461 418.793C239.78 418.73 238.518 418.516 235.838 417.392L227.149 438.113ZM260.978 438.626C269.234 432.632 275.523 423.842 279.688 415.988C281.817 411.974 283.533 407.939 284.74 404.23C285.884 400.715 286.809 396.78 286.809 393.171H264.34C264.34 393.157 264.333 393.519 264.171 394.331C264.017 395.102 263.76 396.092 263.375 397.275C262.602 399.648 261.413 402.491 259.838 405.461C256.596 411.574 252.287 417.17 247.777 420.444L260.978 438.626ZM286.809 393.171C286.809 393.74 286.716 393.625 287.086 392.326C287.409 391.193 287.921 389.703 288.648 387.764C289.781 384.745 292.399 378.246 294.154 373.483C298.085 362.821 302.613 348.458 301.462 334.828L279.073 336.719C279.769 344.956 276.951 355.191 273.073 365.712C270.924 371.54 269.522 374.779 267.611 379.873C266.816 381.992 266.051 384.154 265.477 386.17C264.95 388.021 264.34 390.553 264.34 393.171H286.809ZM297.592 327.255C291.304 321.849 276.031 311.255 258.811 304.874C242.289 298.75 219.062 294.821 202.108 310.807L217.522 327.155C224.463 320.61 236.003 320.383 251.003 325.942C265.305 331.242 278.312 340.31 282.944 344.293L297.592 327.255ZM182.532 350.842L199.393 392.732L220.237 384.342L203.375 342.452L182.532 350.842ZM205.328 308.682L188.467 316.027L197.441 336.626L214.302 329.28L205.328 308.682ZM181.719 326.326V346.647H204.188V326.326H181.719ZM216.709 373.117C223.113 365.656 232.895 358.018 242.152 356.048C246.431 355.138 250.342 355.475 254.049 357.348C257.863 359.275 262.52 363.367 267.172 371.84L286.867 361.027C280.669 349.736 273.079 341.789 264.181 337.294C255.177 332.745 245.91 332.277 237.477 334.071C221.309 337.511 207.524 349.32 199.66 358.483L216.709 373.117ZM286.044 359.742C272.88 341.988 254.763 338.193 238.791 340.512C223.472 342.737 209.573 350.513 201.304 356.919L215.065 374.681C221.269 369.874 231.623 364.257 242.02 362.747C251.765 361.332 260.829 363.46 267.996 373.125L286.044 359.742ZM211.942 355.589C219.039 347.323 229.966 338.743 240.461 336.511C245.359 335.47 249.911 335.846 254.237 338.031C258.668 340.269 263.92 344.944 269.1 354.373L288.793 343.556C282.066 331.309 273.881 322.78 264.365 317.974C254.743 313.116 244.837 312.609 235.787 314.534C218.385 318.235 203.454 330.984 194.895 340.952L211.942 355.589ZM287.969 342.271C273.816 323.191 254.378 319.111 237.158 321.611C220.59 324.016 205.513 332.439 196.54 339.388L210.297 357.153C217.205 351.803 228.738 345.537 240.386 343.846C251.384 342.25 261.769 344.665 269.923 355.658L287.969 342.271ZM226.131 387.995C230.919 382.558 238.085 377.195 244.582 375.848C247.504 375.242 250.014 375.49 252.35 376.64C254.768 377.831 258.037 380.505 261.45 386.564L281.026 375.536C276 366.613 269.744 360.161 262.275 356.483C254.724 352.765 246.985 352.403 240.02 353.847C226.742 356.601 215.579 365.98 209.269 373.146L226.131 387.995ZM280.179 374.248C269.232 359.858 254.174 356.866 241.186 358.705C228.782 360.461 217.6 366.568 210.93 371.605L224.469 389.536C229.057 386.072 236.738 382.027 244.335 380.951C251.349 379.959 257.432 381.457 262.297 387.852L280.179 374.248ZM231.619 402.747C235.595 398.133 241.05 394.127 245.294 393.275C246.985 392.935 248.099 393.155 249.115 393.75C250.306 394.449 252.531 396.373 254.904 401.586L275.353 392.276C271.722 384.3 266.847 378.101 260.478 374.367C253.932 370.53 247.024 370.009 240.866 371.246C229.412 373.549 219.862 381.972 214.599 388.078L231.619 402.747ZM274.64 390.953C270.626 384.566 265.386 380.09 259.291 377.558C253.307 375.073 247.212 374.754 241.792 375.455C231.266 376.817 221.805 382.193 216.21 386.546L230.008 404.279C233.606 401.479 239.379 398.423 244.676 397.738C247.168 397.415 249.132 397.668 250.673 398.308C252.103 398.902 253.855 400.106 255.617 402.909L274.64 390.953ZM230.999 415.044C234.738 410.983 240.085 407.248 244.523 406.402C246.413 406.041 247.8 406.256 249.015 406.884C250.307 407.552 252.48 409.249 254.847 413.729L274.712 403.23C270.792 395.813 265.69 390.209 259.327 386.922C252.887 383.595 246.236 383.201 240.313 384.331C229.123 386.465 219.736 394.105 214.47 399.825L230.999 415.044ZM273.89 401.906C264.929 389.488 252.135 386.782 241.267 388.145C230.98 389.436 221.699 394.31 216.141 398.338L229.327 416.531C232.806 414.009 238.574 411.128 244.064 410.439C248.973 409.823 252.683 410.915 255.67 415.054L273.89 401.906ZM216.422 423.256C221.868 427.108 230.772 431.625 240.8 432.92C251.232 434.267 263.606 432.111 273.307 421.385L256.644 406.313C253.082 410.251 248.783 411.296 243.678 410.636C238.168 409.925 232.67 407.227 229.396 404.912L216.422 423.256ZM257.859 405.156C254.893 407.584 250.079 408.722 243.587 408.15C237.254 407.592 231.125 405.533 227.69 403.918L218.128 424.25C223.538 426.794 232.23 429.704 241.613 430.532C250.837 431.345 262.633 430.286 272.092 422.542L257.859 405.156ZM223.255 430.081C227.319 432.83 233.889 436.021 241.351 436.943C249.137 437.905 258.769 436.405 266.394 428.341L250.068 412.904C248.65 414.404 246.914 414.991 244.106 414.644C240.975 414.257 237.726 412.743 235.844 411.471L223.255 430.081ZM251.304 411.777C250.285 412.576 248.007 413.354 243.919 413.01C240.021 412.681 236.206 411.451 234.158 410.53L224.941 431.021C228.924 432.813 235.214 434.824 242.031 435.399C248.658 435.957 257.705 435.303 265.157 429.468L251.304 411.777ZM46.3056 316.071C47.7265 309.79 49.889 300.521 51.7623 293.104C52.7082 289.358 53.5371 286.258 54.1388 284.275C54.4746 283.168 54.6056 282.862 54.5451 283.001C54.5153 283.069 54.4015 283.328 54.2023 283.683C54.0881 283.886 53.5402 284.876 52.4989 285.923C52.066 286.358 47.6923 290.763 41.1604 288.637C38.1603 287.66 36.3767 285.714 35.4866 284.447C34.6128 283.204 34.1978 282.067 34.0104 281.481L55.4111 274.637C55.2043 273.99 54.7673 272.805 53.8691 271.527C52.9545 270.226 51.1439 268.258 48.1144 267.271C41.5237 265.126 37.0814 269.562 36.5706 270.076C35.4514 271.201 34.8165 272.316 34.6063 272.69C34.3113 273.216 34.0928 273.691 33.9501 274.018C33.4381 275.192 32.9855 276.606 32.6382 277.751C31.8734 280.271 30.937 283.803 29.9777 287.602C28.0404 295.273 25.832 304.742 24.3907 311.114L46.3056 316.071ZM34.0104 281.481C33.9562 281.312 34.3386 282.756 34.876 285.725C35.3674 288.44 35.8967 291.93 36.2349 295.583C36.5772 299.283 36.6972 302.876 36.4715 305.889C36.3596 307.383 36.174 308.57 35.9553 309.461C35.7289 310.383 35.5344 310.708 35.56 310.666L54.8034 322.264C57.6295 317.575 58.5454 311.998 58.8773 307.568C59.2305 302.853 59.0142 297.904 58.6078 293.513C57.8174 284.973 56.1376 276.908 55.4111 274.637L34.0104 281.481ZM35.56 310.666C34.9094 311.745 35.3917 310.367 37.6504 309.452C38.9397 308.93 40.4785 308.707 42.0653 308.949C43.5735 309.178 44.6767 309.756 45.3362 310.205C46.4682 310.975 46.7406 311.65 46.5095 311.252C46.3697 311.011 46.1847 310.596 46.0485 310.17L24.6478 317.015C25.1798 318.678 25.9757 320.633 27.0769 322.531C28.0868 324.271 29.8605 326.852 32.7013 328.784C36.0036 331.03 40.8941 332.38 46.0844 330.278C50.4149 328.524 53.1243 325.05 54.8034 322.264L35.56 310.666ZM71.3333 326.388L72.3205 273.029L49.8557 272.613L48.8685 325.972L71.3333 326.388ZM50.4836 276.53C54.7699 288.787 60.399 306.596 63.5026 320.415C65.1149 327.595 65.782 332.595 65.689 335.088C65.6693 335.617 65.6228 335.646 65.7004 335.344C65.7562 335.127 66.0945 333.845 67.3332 332.435C68.8294 330.732 71.1009 329.481 73.6932 329.307C75.8789 329.16 77.312 329.845 77.6075 329.994L67.4983 350.06C69.2551 350.945 71.9451 351.944 75.1989 351.725C78.8595 351.479 82.0104 349.772 84.2129 347.265C86.1579 345.051 87.0294 342.618 87.4608 340.94C87.9141 339.178 88.0857 337.436 88.142 335.925C88.3536 330.252 87.0536 322.743 85.4251 315.492C82.0469 300.45 76.0987 281.712 71.6927 269.113L50.4836 276.53ZM77.6075 329.994C72.8102 327.577 71.1917 325.707 70.8362 325.206C70.6717 324.974 70.876 325.179 71.0363 325.862C71.1754 326.455 71.3802 327.867 70.7595 329.73L49.4424 322.63C47.5483 328.316 49.5647 334.053 52.5102 338.206C55.6382 342.615 60.6058 346.588 67.4983 350.06L77.6075 329.994ZM97.0846 366.504C97.8063 368.76 99.0226 370.369 99.7273 371.213C100.525 372.168 101.368 372.962 102.073 373.571C103.482 374.79 105.072 375.901 106.476 376.811C109.325 378.658 112.475 380.363 114.544 381.397L124.589 361.299C123.032 360.521 120.654 359.225 118.699 357.958C117.702 357.311 117.071 356.837 116.77 356.576C116.619 356.446 116.735 356.526 116.974 356.812C117.119 356.986 117.945 357.969 118.485 359.659L97.0846 366.504ZM130.263 374.783C133.311 365.289 136.204 342.454 124.94 321.189L105.085 331.706C112.72 346.119 110.66 362.339 108.87 367.914L130.263 374.783ZM103.836 327.583C104.785 336.931 103.884 343.853 102.612 348.507C101.26 353.45 99.645 355.336 99.7784 355.201L115.791 370.962C122.21 364.441 128.557 348.619 126.189 325.312L103.836 327.583ZM434.734 338.225C435.792 331.779 437.303 322.174 438.389 314.337C438.927 310.456 439.386 306.831 439.625 304.208C439.733 303.016 439.844 301.536 439.811 300.256C439.802 299.899 439.778 299.377 439.702 298.779C439.648 298.352 439.478 297.08 438.864 295.617C438.583 294.95 436.133 289.17 429.219 288.682C426.041 288.457 423.623 289.602 422.287 290.464C420.974 291.311 420.124 292.245 419.69 292.766L436.951 307.149C436.558 307.622 435.746 308.52 434.469 309.344C433.168 310.183 430.784 311.317 427.637 311.095C420.785 310.611 418.386 304.885 418.149 304.319C417.577 302.958 417.441 301.835 417.412 301.604C417.36 301.2 417.352 300.917 417.35 300.843C417.346 300.692 417.353 301.024 417.248 302.176C417.061 304.24 416.664 307.425 416.134 311.251C415.083 318.829 413.605 328.231 412.562 334.586L434.734 338.225ZM419.69 292.766C418.163 294.598 413.577 301.441 409.636 309.059C407.609 312.975 405.55 317.48 404.106 321.983C402.749 326.213 401.502 331.726 402.36 337.133L424.551 333.614C424.559 333.663 424.501 333.288 424.637 332.348C424.769 331.441 425.043 330.271 425.501 328.845C426.424 325.968 427.885 322.682 429.592 319.383C431.278 316.124 433.079 313.089 434.555 310.757C436.168 308.207 437.065 307.013 436.951 307.149L419.69 292.766ZM402.36 337.133C402.869 340.346 404.075 344.583 407.43 347.835C411.45 351.733 416.489 352.32 420.393 351.479C423.752 350.756 426.366 349.03 427.955 347.796C429.689 346.452 431.161 344.939 432.279 343.597L415.017 329.214C414.731 329.558 414.404 329.873 414.183 330.043C413.82 330.326 414.326 329.802 415.664 329.514C416.444 329.346 417.683 329.225 419.167 329.579C420.729 329.951 422.071 330.736 423.07 331.704C424.819 333.4 424.749 334.858 424.551 333.614L402.36 337.133ZM406.467 342.799L425.598 292.978L404.623 284.924L385.492 334.745L406.467 342.799ZM406.676 281.53C397.86 291.551 385.308 306.682 376.526 319.353C372.292 325.461 368.267 331.931 366.331 337.268C365.816 338.69 365.32 340.369 365.078 342.172C364.848 343.889 364.742 346.471 365.712 349.253C366.812 352.404 369.09 355.171 372.39 356.774C375.324 358.199 378.192 358.284 380.152 358.124L378.322 335.73C378.652 335.703 380.238 335.606 382.208 336.563C384.545 337.699 386.18 339.711 386.927 341.852C387.545 343.624 387.377 344.939 387.347 345.161C387.306 345.47 387.273 345.426 387.454 344.928C388.304 342.583 390.801 338.199 394.993 332.152C403.06 320.511 414.968 306.12 423.545 296.372L406.676 281.53ZM380.152 358.124C387.845 357.495 393.941 355.68 398.496 352.768C402.786 350.027 406.81 345.467 407.191 339.486L384.768 338.058C384.893 336.098 385.613 334.866 385.965 334.369C386.37 333.796 386.636 333.683 386.396 333.836C385.879 334.167 383.676 335.292 378.322 335.73L380.152 358.124ZM329.294 347.864C330.43 346.501 331.565 345.9 331.765 345.793C332.093 345.618 332.231 345.587 332.042 345.651C331.665 345.78 330.902 345.983 329.735 346.207C327.447 346.648 324.756 346.955 323.021 347.091L324.78 369.491C327.086 369.31 330.646 368.913 333.98 368.271C335.623 367.955 337.514 367.523 339.278 366.923C340.16 366.623 341.24 366.205 342.337 365.619C343.307 365.102 345.039 364.068 346.556 362.247L329.294 347.864ZM335.104 359.126C335.539 353.288 339.724 337.482 352.214 326.993L337.765 309.787C319.337 325.262 313.439 347.512 312.697 357.456L335.104 359.126ZM335.058 313.139C324.108 333.849 324.046 350.897 327.544 359.351L348.306 350.76C348.378 350.936 347.59 348.582 348.195 343.492C348.764 338.701 350.529 331.948 354.921 323.641L335.058 313.139ZM161.032 267.133C162.011 268.638 162.087 269.744 161.898 268.822C161.8 268.343 161.672 267.496 161.546 266.22C161.296 263.697 161.128 260.308 161.034 256.452C160.848 248.784 160.971 240.031 161.144 234.325L138.686 233.644C138.505 239.612 138.373 248.797 138.572 256.998C138.671 261.075 138.856 265.102 139.187 268.437C139.351 270.09 139.57 271.782 139.885 273.322C140.109 274.419 140.663 277.024 142.194 279.378L161.032 267.133ZM158.278 241.485L182.266 214.738L165.539 199.737L141.551 226.484L158.278 241.485ZM170.746 218.019L196.857 225.661L203.168 204.097L177.058 196.455L170.746 218.019ZM193.597 224.101L203.362 230.894L216.193 212.45L206.428 205.657L193.597 224.101ZM199.469 217.205L191.19 236.31L211.806 245.244L220.085 226.139L199.469 217.205ZM203.454 229.714L165.032 222.922L161.12 245.047L199.543 251.84L203.454 229.714ZM152.292 230.836L140.829 270.108L162.397 276.404L173.86 237.132L152.292 230.836ZM338.497 275.133C340.027 272.778 340.581 270.174 340.806 269.076C341.12 267.537 341.34 265.844 341.504 264.191C341.834 260.856 342.019 256.829 342.118 252.752C342.318 244.551 342.186 235.367 342.005 229.398L319.547 230.079C319.72 235.786 319.843 244.539 319.656 252.206C319.563 256.062 319.395 259.452 319.145 261.975C319.018 263.251 318.89 264.097 318.792 264.577C318.604 265.498 318.68 264.393 319.658 262.888L338.497 275.133ZM339.139 222.238L315.152 195.491L298.425 210.492L322.412 237.239L339.139 222.238ZM304.869 191.922L268.145 198.291L271.984 220.429L308.708 214.061L304.869 191.922ZM259.374 205.908L252.793 226.286L274.174 233.191L280.755 212.812L259.374 205.908ZM259.025 240.05L274.733 246.843L283.651 226.22L267.943 219.427L259.025 240.05ZM281.148 247.594L319.57 240.801L315.659 218.676L277.236 225.469L281.148 247.594ZM306.83 232.886L318.293 272.158L339.862 265.862L328.399 226.591L306.83 232.886Z" fill="#8D8D8D" mask="url(#path-1-outside-1_428_920)"/>
</svg>
