<svg width="400" height="400" viewBox="0 0 400 400" fill="none" xmlns="http://www.w3.org/2000/svg">
<g clip-path="url(#clip0_341_26)">
<path d="M278.518 45.9744C284.945 46.8205 290.772 50.1849 294.718 55.3275L364.681 146.505C368.627 151.648 370.369 158.147 369.523 164.574L354.522 278.518C353.676 284.945 350.311 290.772 345.169 294.718L253.991 364.681C248.848 368.627 242.349 370.369 235.922 369.523L121.978 354.522C115.551 353.676 109.724 350.311 105.778 345.169L35.8149 253.991C31.8688 248.848 30.1273 242.349 30.9734 235.922L45.9743 121.978C46.8204 115.551 50.1849 109.724 55.3275 105.778L146.505 35.8149C151.648 31.8689 158.147 30.1273 164.574 30.9734L278.518 45.9744Z" fill="#3F4550" stroke="#3A3B3D" stroke-width="18.922"/>
<path d="M263.328 77.9302C267.895 78.2724 272.058 80.6759 274.638 84.4601L335.21 173.302C337.79 177.086 338.506 181.839 337.156 186.216L305.462 288.964C304.112 293.341 300.843 296.865 296.579 298.538L196.487 337.822C192.223 339.495 187.43 339.136 183.463 336.846L90.3434 283.083C86.3769 280.793 83.6691 276.821 82.9864 272.292L66.9606 165.968C66.278 161.439 67.6948 156.845 70.8101 153.488L143.946 74.6661C147.061 71.3086 151.536 69.5525 156.103 69.8948L263.328 77.9302Z" fill="#383B40" stroke="#454546" stroke-width="34.6903"/>
<path d="M253.824 92.4011C259.201 92.4011 264.169 95.2697 266.858 99.9261L320.434 192.723C323.122 197.379 323.122 203.116 320.434 207.773L266.858 300.569C264.169 305.226 259.201 308.094 253.824 308.094L146.672 308.094C141.295 308.094 136.326 305.226 133.638 300.569L80.0617 207.773C77.3733 203.116 77.3733 197.379 80.0617 192.723L133.638 99.9261C136.326 95.2696 141.295 92.4011 146.672 92.4011L253.824 92.4011Z" fill="#383B40" stroke="#4B4B4B" stroke-width="34.6903"/>
<rect x="0.637936" y="8.35073" width="268.858" height="39.9922" rx="11.1466" transform="matrix(0.749471 0.662037 -0.640211 0.768199 136.538 71.0831)" fill="#573333" stroke="#482C2C" stroke-width="11.6774"/>
<rect x="7.40363" y="3.70555" width="263.518" height="37.9577" rx="11.1466" transform="matrix(0.94965 -0.313313 0.318376 0.947964 67.1857 254.491)" fill="#573333" stroke="#482C2C" stroke-width="11.6774"/>
<rect x="7.29935" y="-3.90695" width="263.518" height="40.6104" rx="11.1466" transform="matrix(0.292291 -0.956329 0.957876 0.287183 113.168 314.867)" fill="#573333" stroke="#482C2C" stroke-width="11.6774"/>
</g>
<defs>
<clipPath id="clip0_341_26">
<rect width="400" height="400" fill="white"/>
</clipPath>
</defs>
</svg>
