<svg width="1000" height="1000" viewBox="0 0 1000 1000" fill="none" xmlns="http://www.w3.org/2000/svg">
<mask id="path-1-outside-1_621_70775" maskUnits="userSpaceOnUse" x="175.418" y="194" width="264" height="157" fill="black">
<rect fill="white" x="175.418" y="194" width="264" height="157"/>
<path fill-rule="evenodd" clip-rule="evenodd" d="M333.807 231.041C347.684 234.906 360.531 245.457 374.936 245.457V245.457C390.653 245.457 403.394 258.198 403.394 273.915V286.523C403.394 302.239 390.653 314.98 374.936 314.98H239.876C224.159 314.98 211.418 302.239 211.418 286.523V273.915C211.418 258.198 224.159 245.457 239.876 245.457V245.457C254.281 245.457 267.127 234.906 281.003 231.041C283.438 230.363 286.005 230 288.656 230H326.155C328.806 230 331.372 230.363 333.807 231.041Z"/>
</mask>
<path fill-rule="evenodd" clip-rule="evenodd" d="M333.807 231.041C347.684 234.906 360.531 245.457 374.936 245.457V245.457C390.653 245.457 403.394 258.198 403.394 273.915V286.523C403.394 302.239 390.653 314.98 374.936 314.98H239.876C224.159 314.98 211.418 302.239 211.418 286.523V273.915C211.418 258.198 224.159 245.457 239.876 245.457V245.457C254.281 245.457 267.127 234.906 281.003 231.041C283.438 230.363 286.005 230 288.656 230H326.155C328.806 230 331.372 230.363 333.807 231.041Z" fill="#616161"/>
<path d="M281.003 231.041L271.405 196.58L281.003 231.041ZM374.936 281.23C370.896 281.23 367.621 277.955 367.621 273.915H439.166C439.166 238.442 410.409 209.685 374.936 209.685V281.23ZM367.621 273.915V286.523H439.166V273.915H367.621ZM367.621 286.523C367.621 282.483 370.896 279.208 374.936 279.208V350.753C410.409 350.753 439.166 321.996 439.166 286.523H367.621ZM374.936 279.208H239.876V350.753H374.936V279.208ZM239.876 279.208C243.915 279.208 247.19 282.483 247.19 286.523H175.646C175.646 321.996 204.403 350.753 239.876 350.753V279.208ZM247.19 286.523V273.915H175.646V286.523H247.19ZM247.19 273.915C247.19 277.955 243.915 281.23 239.876 281.23V209.685C204.402 209.685 175.646 238.442 175.646 273.915H247.19ZM290.602 265.501C289.942 265.685 289.28 265.772 288.656 265.772V194.228C282.73 194.228 276.935 195.04 271.405 196.58L290.602 265.501ZM288.656 265.772H326.155V194.228H288.656V265.772ZM326.155 265.772C325.531 265.772 324.87 265.685 324.209 265.501L343.405 196.58C337.875 195.04 332.081 194.228 326.155 194.228V265.772ZM239.876 281.23C255.425 281.23 268.325 275.557 275.656 272.165C285.264 267.721 287.368 266.402 290.602 265.501L271.405 196.58C265.384 198.257 260.081 200.484 255.978 202.343C253.904 203.284 251.912 204.236 250.228 205.043C248.443 205.899 247.028 206.58 245.619 207.232C239.457 210.082 238.731 209.685 239.876 209.685V281.23ZM374.936 209.685C376.081 209.685 375.355 210.082 369.192 207.231C367.783 206.58 366.368 205.898 364.583 205.043C362.899 204.235 360.907 203.284 358.833 202.343C354.73 200.483 349.426 198.257 343.405 196.58L324.209 265.501C327.443 266.402 329.547 267.721 339.155 272.165C346.486 275.556 359.386 281.23 374.936 281.23V209.685Z" fill="#402D2D" mask="url(#path-1-outside-1_621_70775)"/>
<mask id="path-3-outside-2_621_70775" maskUnits="userSpaceOnUse" x="578.93" y="194" width="264" height="157" fill="black">
<rect fill="white" x="578.93" y="194" width="264" height="157"/>
<path fill-rule="evenodd" clip-rule="evenodd" d="M737.319 231.041C751.196 234.906 764.043 245.457 778.448 245.457V245.457C794.164 245.457 806.905 258.198 806.905 273.915V286.523C806.905 302.239 794.164 314.98 778.448 314.98H643.388C627.671 314.98 614.93 302.239 614.93 286.523V273.915C614.93 258.198 627.671 245.457 643.387 245.457V245.457C657.792 245.457 670.639 234.906 684.515 231.041C686.95 230.363 689.517 230 692.168 230H729.667C732.318 230 734.884 230.363 737.319 231.041Z"/>
</mask>
<path fill-rule="evenodd" clip-rule="evenodd" d="M737.319 231.041C751.196 234.906 764.043 245.457 778.448 245.457V245.457C794.164 245.457 806.905 258.198 806.905 273.915V286.523C806.905 302.239 794.164 314.98 778.448 314.98H643.388C627.671 314.98 614.93 302.239 614.93 286.523V273.915C614.93 258.198 627.671 245.457 643.387 245.457V245.457C657.792 245.457 670.639 234.906 684.515 231.041C686.95 230.363 689.517 230 692.168 230H729.667C732.318 230 734.884 230.363 737.319 231.041Z" fill="#616161"/>
<path d="M778.448 281.23C774.408 281.23 771.133 277.955 771.133 273.915H842.678C842.678 238.442 813.921 209.685 778.448 209.685V281.23ZM771.133 273.915V286.523H842.678V273.915H771.133ZM771.133 286.523C771.133 282.483 774.408 279.208 778.448 279.208V350.753C813.921 350.753 842.678 321.996 842.678 286.523H771.133ZM778.448 279.208H643.388V350.753H778.448V279.208ZM643.388 279.208C647.427 279.208 650.702 282.483 650.702 286.523H579.157C579.157 321.996 607.914 350.753 643.388 350.753V279.208ZM650.702 286.523V273.915H579.157V286.523H650.702ZM650.702 273.915C650.702 277.955 647.427 281.23 643.387 281.23V209.685C607.914 209.685 579.157 238.442 579.157 273.915H650.702ZM694.114 265.501C693.453 265.685 692.792 265.772 692.168 265.772V194.228C686.242 194.228 680.447 195.04 674.917 196.58L694.114 265.501ZM692.168 265.772H729.667V194.228H692.168V265.772ZM729.667 265.772C729.043 265.772 728.381 265.685 727.721 265.501L746.917 196.58C741.387 195.04 735.593 194.228 729.667 194.228V265.772ZM643.387 281.23C658.937 281.23 671.837 275.557 679.168 272.165C688.776 267.721 690.88 266.402 694.114 265.501L674.917 196.58C668.896 198.257 663.592 200.484 659.49 202.343C657.416 203.284 655.424 204.236 653.74 205.043C651.955 205.899 650.54 206.58 649.131 207.232C642.968 210.082 642.243 209.685 643.387 209.685V281.23ZM778.448 209.685C779.592 209.685 778.867 210.082 772.704 207.231C771.295 206.58 769.88 205.898 768.095 205.043C766.411 204.235 764.419 203.284 762.344 202.343C758.242 200.483 752.938 198.257 746.917 196.58L727.721 265.501C730.955 266.402 733.059 267.721 742.667 272.165C749.998 275.556 762.898 281.23 778.448 281.23V209.685Z" fill="#402D2D" mask="url(#path-3-outside-2_621_70775)"/>
<rect x="396.715" y="658.559" width="225.978" height="129.207" rx="46.344" fill="#616161" stroke="#402D2D" stroke-width="35.7723"/>
<rect x="26.1138" y="410.669" width="948.682" height="173.57" rx="86.785" fill="#5A4848" stroke="#402D2D" stroke-width="35.7723"/>
<rect x="93.107" y="282.979" width="816.263" height="440.18" rx="91.0634" fill="#5A4848" stroke="#402D2D" stroke-width="35.7723"/>
<rect x="161.351" y="349.649" width="679.782" height="297.405" rx="73.1772" fill="#685050"/>
<rect x="255.186" y="268.82" width="105.009" height="476.372" rx="46.344" fill="#616161" stroke="#402D2D" stroke-width="35.7723"/>
<rect x="658.016" y="268.82" width="105.009" height="476.372" rx="46.344" fill="#616161" stroke="#402D2D" stroke-width="35.7723"/>
</svg>
