<svg width="1000" height="1000" viewBox="0 0 1000 1000" fill="none" xmlns="http://www.w3.org/2000/svg">
<g clip-path="url(#clip0_621_70817)">
<path d="M76.5696 461.025C111.859 411.483 144.778 285.581 160.848 209.651C163.266 198.227 173.194 189.973 184.87 189.869C411.336 187.84 826.037 185.277 819.671 190.051C812.344 195.546 878.679 405.654 920.661 480.987C927.337 492.968 926.238 509.368 918.807 520.896C883.772 575.25 844.594 702.593 824.229 779.195C821.46 789.609 812.429 797.091 801.667 797.635C567.259 809.492 136.677 824.672 156.649 796.711C180.839 762.845 117.318 603.807 73.0621 493.002L71.762 489.747C67.9505 480.203 70.6073 469.395 76.5696 461.025Z" fill="#CBBAB0" stroke="#413434" stroke-width="18.4457"/>
<path d="M913.985 507.243L903.961 509.637L907.21 518.67C907.24 518.964 907.275 519.39 907.31 519.967C907.399 521.418 907.47 523.444 907.52 525.973C907.618 531.011 907.629 537.696 907.583 545.041C907.49 559.713 907.173 576.772 906.908 588.002L906.74 595.1L913.559 597.078L928.543 601.424L931.231 602.203L933.899 601.358L947.608 597.012L954.044 594.971L954.044 588.22L954.044 516.213L954.044 509.089L947.151 507.29L933.442 503.711L931.212 503.128L928.97 503.664L913.985 507.243ZM907.156 518.245C907.157 518.243 907.163 518.274 907.172 518.344C907.16 518.282 907.156 518.247 907.156 518.245Z" fill="#564343" stroke="#413434" stroke-width="18.4457"/>
<path d="M911.17 380.157L901.145 382.552L904.395 391.584C904.425 391.879 904.459 392.304 904.495 392.881C904.584 394.332 904.654 396.358 904.704 398.888C904.803 403.925 904.814 410.61 904.767 417.955C904.675 432.627 904.357 449.686 904.092 460.917L903.925 468.015L910.743 469.992L925.728 474.338L928.416 475.118L931.084 474.272L944.793 469.926L951.229 467.886L951.229 461.134L951.229 389.128L951.229 382.004L944.336 380.204L930.627 376.625L928.396 376.043L926.154 376.578L911.17 380.157ZM904.341 391.159C904.341 391.157 904.347 391.188 904.357 391.258C904.345 391.196 904.34 391.161 904.341 391.159Z" fill="#564343" stroke="#413434" stroke-width="18.4457"/>
<path d="M93.0733 466.762L103.098 464.368L99.8485 455.335C99.8185 455.04 99.7837 454.615 99.7483 454.038C99.6591 452.587 99.5887 450.561 99.539 448.032C99.4401 442.994 99.4295 436.309 99.4759 428.964C99.5684 414.292 99.886 397.233 100.151 386.002L100.318 378.905L93.4997 376.927L78.5154 372.581L75.8273 371.802L73.1592 372.647L59.4502 376.993L53.0144 379.034L53.0144 385.785L53.0144 457.792L53.0144 464.916L59.9075 466.715L73.6166 470.294L75.8469 470.877L78.089 470.341L93.0733 466.762ZM99.9024 455.76C99.9019 455.762 99.896 455.731 99.8864 455.661C99.8981 455.723 99.9029 455.758 99.9024 455.76Z" fill="#564343" stroke="#413434" stroke-width="18.4457"/>
<path d="M87.4454 599.995L97.47 597.6L94.2206 588.568C94.1906 588.273 94.1557 587.847 94.1203 587.271C94.0312 585.82 93.9608 583.794 93.9111 581.264C93.8122 576.227 93.8016 569.542 93.8479 562.196C93.9405 547.524 94.2581 530.466 94.523 519.235L94.6905 512.137L87.8718 510.16L72.8875 505.814L70.1994 505.034L67.5313 505.88L53.8223 510.226L47.3865 512.266L47.3865 519.017L47.3865 591.024L47.3865 598.148L54.2796 599.948L67.9887 603.527L70.219 604.109L72.461 603.574L87.4454 599.995ZM94.2745 588.993C94.274 588.995 94.2681 588.963 94.2585 588.893C94.2702 588.956 94.275 588.991 94.2745 588.993Z" fill="#564343" stroke="#413434" stroke-width="18.4457"/>
<path d="M953.542 453.549L947.391 460.421L953.542 453.549C946.772 447.488 938.186 444.381 929.131 444.654C843.073 447.255 341.551 445.53 81.6736 444.235C74.327 444.199 67.4115 446.554 61.6061 450.834L43.9697 463.836C25.1573 477.706 25.7504 506.022 45.1269 519.091L62.2518 530.642C67.8385 534.411 74.4235 536.424 81.1622 536.424L930.782 536.424C938.594 536.424 946.166 533.719 952.21 528.769L966.236 517.281C982.288 504.133 982.824 479.763 967.364 465.923L953.542 453.549Z" fill="#564343" stroke="#413434" stroke-width="18.4457"/>
<path d="M154.029 179.928L157.726 188.37L154.029 179.928C133.51 188.911 133.274 218.63 154.569 227.16C157.591 228.371 160.817 228.993 164.073 228.993L805.225 228.993C809.098 228.993 812.921 228.11 816.399 226.419C835.124 217.311 835.703 190.738 817.249 180.927C813.237 178.794 808.826 177.791 804.37 177.894C750.204 179.148 361.561 178.351 164.331 177.765C160.701 177.754 157.241 178.521 154.029 179.928Z" fill="#564343" stroke="#413434" stroke-width="18.4457"/>
<path d="M153.535 818.871L157.325 810.462L153.535 818.871C157.098 820.476 160.962 821.306 164.869 821.306L804.294 821.306C808.921 821.306 813.477 820.137 817.529 817.92L813.102 809.829L817.529 817.92C836.154 807.729 836.791 781.078 818.491 770.133C813.889 767.38 808.764 766.022 803.389 766.15C745.807 767.524 361.554 766.639 165.194 765.983C160.846 765.969 156.702 766.99 152.924 768.851C132.238 779.04 132.028 809.179 153.535 818.871Z" fill="#564343" stroke="#413434" stroke-width="18.4457"/>
<path d="M640.891 712.339C519.684 721.237 155.388 596.04 145.56 589.163C147.379 614.052 232.941 714.425 261.769 729.576C290.598 744.727 623.651 776.679 640.891 712.339Z" fill="#C0ADA2"/>
<path d="M361.67 570.536C608.228 644.176 858.424 595.553 869.607 591.811C861.903 611.933 774.385 677.626 742.776 684.471C711.167 691.317 363.058 626.831 361.67 570.536Z" fill="#C0ADA2"/>
<path d="M148.3 559.132C186.015 558.275 245.896 573.629 262.639 571.325C284.409 582.463 305.245 583.15 335.329 597.576C344.842 602.138 520.853 661.433 548.78 675.989C533.985 683.694 384.553 658.353 296.405 623.064C254.435 606.261 190.197 575.663 148.3 559.132Z" fill="#D5C5BD"/>
<path d="M524.195 272.816C603.737 270.008 830.753 371.31 836.6 376.57C837.391 358.54 789.701 283.491 772.152 271.687C754.602 259.883 540.512 226.861 524.195 272.816Z" fill="#C0ADA2"/>
<path d="M590.216 416.807C393.877 315.357 178.801 334.727 168.986 337.148C178 318.084 259.485 263.03 286.747 259.886C314.009 256.742 596.287 360.824 590.216 416.807Z" fill="#C0ADA2"/>
<path d="M824.565 395.071C786.849 395.928 707.233 398.218 690.49 400.522C668.72 389.384 667.619 371.053 637.536 356.627C628.022 352.065 452.012 292.771 424.084 278.215C438.88 270.509 559.201 284.713 647.349 320.003C689.319 336.805 782.667 378.54 824.565 395.071Z" fill="#D5C5BD"/>
<path d="M221.525 365.041C256.454 357.425 442.512 379.695 463.299 385.265L477.014 397.428C413.38 397.352 285.464 397.238 282.876 397.393C280.289 397.549 196.775 398.016 155.342 398.231C165.76 389.706 193.582 371.133 221.525 365.041Z" fill="#D5C5BD"/>
</g>
<defs>
<clipPath id="clip0_621_70817">
<rect width="1000" height="1000" fill="white"/>
</clipPath>
</defs>
</svg>
