<svg width="501" height="501" viewBox="0 0 501 501" fill="none" xmlns="http://www.w3.org/2000/svg">
<mask id="path-1-outside-1_621_8" maskUnits="userSpaceOnUse" x="157.309" y="20.166" width="186" height="463" fill="black">
<rect fill="white" x="157.309" y="20.166" width="186" height="463"/>
<path d="M187.574 226.107C187.574 229.849 193.656 243.774 202.681 252.061C202.764 252.138 202.873 252.179 202.985 252.179H206.651C206.808 252.179 206.954 252.098 207.036 251.965L212.273 243.545C212.33 243.455 212.352 243.347 212.337 243.241L209.87 226.178C209.863 226.131 209.849 226.085 209.828 226.042L202.9 211.999C202.843 211.883 202.739 211.797 202.615 211.762L187.574 207.555L187.574 226.107Z"/>
<path d="M241.925 107.865C241.904 107.824 241.891 107.786 241.882 107.74C240.683 101.035 226.573 73.177 226.573 66.6063C226.573 60.0149 228.441 25.8218 235.167 28.2936C240.46 30.2387 250.044 43.2394 254.387 49.8064C254.511 49.9938 254.749 50.0579 254.953 49.9636L265.814 44.9424C266.024 44.8455 266.273 44.9217 266.392 45.1194L272.843 55.787C272.886 55.8578 272.909 55.9389 272.909 56.0217L272.909 76.4503C272.909 76.479 272.906 76.5076 272.901 76.5358L266.182 111.51L262.602 146.246C262.556 146.694 261.954 146.808 261.748 146.406L241.925 107.865Z"/>
<path d="M311.598 224.518C311.598 227.903 305.532 240.499 296.532 247.994C296.451 248.062 296.349 248.098 296.244 248.098H292.564C292.415 248.098 292.275 248.024 292.19 247.901L286.986 240.312C286.92 240.216 286.894 240.098 286.912 239.984L289.366 224.595C289.374 224.544 289.39 224.495 289.415 224.449L296.312 211.768C296.372 211.657 296.476 211.576 296.599 211.545L311.033 207.883C311.319 207.81 311.598 208.027 311.598 208.322V224.518Z"/>
<path d="M334.953 336.192C339.226 351.152 314.952 376.133 303.478 386.6C303.35 386.716 303.174 386.744 303.014 386.681L290.797 381.905C290.776 381.896 290.755 381.886 290.735 381.875L275.246 372.932C275.126 372.863 275.045 372.743 275.025 372.606L272.623 356.376C272.608 356.274 272.627 356.171 272.678 356.082L277.568 347.613C277.581 347.591 277.595 347.57 277.611 347.551C285.066 338.574 300.492 320.062 302.751 317.6C305.577 314.519 316.267 307.339 324.448 308.135C332.628 308.93 329.581 317.382 334.953 336.192Z"/>
<path d="M165.775 332.111C161.508 347.05 187.632 373.868 199.153 384.387C199.305 384.525 199.523 384.536 199.695 384.425L209.963 377.811L225.482 368.851C225.602 368.782 225.683 368.662 225.704 368.525L228.106 352.294C228.12 352.193 228.101 352.09 228.05 352.001L223.16 343.532C223.147 343.509 223.133 343.489 223.117 343.47C215.662 334.492 200.236 315.981 197.977 313.519C195.151 310.438 184.461 303.258 176.28 304.053C168.1 304.849 171.147 313.301 165.775 332.111Z"/>
<path d="M191.655 320.519C191.655 320.458 191.668 320.397 191.692 320.341L194.939 312.765C195.01 312.599 195.174 312.49 195.355 312.49H196.19C196.333 312.49 196.467 312.558 196.553 312.672L203.166 321.49C203.201 321.536 203.227 321.589 203.242 321.644L205.713 330.856L210.219 349.332C210.238 349.408 210.237 349.485 210.216 349.56C208.391 356.024 204.713 369.092 204.353 370.534C204.005 371.927 199.316 377.743 196.733 380.816C196.562 381.019 196.256 381.03 196.068 380.842L187.493 372.267C187.4 372.174 187.352 372.047 187.361 371.916L188.251 358.342C188.253 358.308 188.259 358.274 188.269 358.241L191.636 347.018C191.649 346.976 191.655 346.932 191.655 346.887L191.655 320.519Z"/>
<path d="M308.656 322.974C308.652 322.937 308.644 322.903 308.631 322.868L306.169 316.096C306.056 315.787 305.663 315.697 305.428 315.927C302.747 318.557 298.22 323.203 298.22 324.054C298.22 325.188 294.366 336.978 294.366 339.699C294.366 342.419 294.593 356.023 294.366 358.291C294.139 360.558 298.447 376.883 298.22 378.243C298.045 379.297 299.555 383.269 300.406 385.304C300.458 385.428 300.562 385.522 300.69 385.561L303.161 386.321C303.329 386.373 303.51 386.324 303.629 386.196C304.532 385.227 306.221 383.51 307.063 383.005C307.948 382.474 312.65 376.859 315.053 373.92C315.16 373.789 315.184 373.611 315.117 373.456L313.865 370.534C312.883 367.738 310.736 361.919 310.011 361.012C309.285 360.105 309.708 354.89 310.011 352.396L310.011 336.978C310.011 335.894 309.111 327.226 308.656 322.974Z"/>
<path d="M206.561 221.579C206.662 221.177 207.206 221.11 207.401 221.476L210.421 227.138C210.456 227.204 210.474 227.277 210.474 227.352L210.474 238.122C210.474 239.482 205.26 251.952 204.806 251.952H202.714C202.601 251.952 202.492 251.91 202.409 251.835L200.193 249.82C200.099 249.734 200.045 249.612 200.045 249.485V240.936C200.045 240.874 200.057 240.813 200.081 240.757L204.112 231.353C204.121 231.331 204.129 231.308 204.135 231.284L206.561 221.579Z"/>
<path d="M299.581 231.32C297.895 227.624 294.696 220.623 293.592 218.251C293.439 217.922 292.993 217.909 292.814 218.224C291.512 220.519 289.412 224.287 288.924 225.425C288.397 226.655 289.104 228.552 289.561 229.425C289.589 229.479 289.608 229.537 289.614 229.597L290.73 240.763C290.736 240.815 290.75 240.867 290.773 240.915L294.015 247.615C294.091 247.772 294.25 247.871 294.424 247.871H296.667C296.79 247.871 296.908 247.821 296.994 247.732L302.175 242.335C302.256 242.25 302.302 242.138 302.302 242.021V239.781C302.302 239.733 302.294 239.686 302.28 239.641L299.581 231.32Z"/>
<path d="M251.324 86.0821C251.299 86.017 251.29 85.9472 251.297 85.8781L254.895 49.6699C254.907 49.5479 254.87 49.4261 254.79 49.3325L244.776 37.4783C244.486 37.1351 243.927 37.3772 243.979 37.8235L247.432 67.391L248.108 86.9848C248.111 87.0711 248.138 87.1547 248.187 87.2258L253.944 95.6141C254.247 96.0556 254.93 95.6996 254.742 95.1983L251.324 86.0821Z"/>
<path d="M300.488 317.705C300.488 403.983 289.151 473.925 250.606 473.925C212.062 473.925 200.725 403.983 200.725 317.705C200.725 231.428 223.058 161.486 250.606 161.486C278.155 161.486 300.488 231.428 300.488 317.705Z"/>
<path d="M220.677 345.594C217.083 344.053 207.281 320.447 202.061 306.869C201.88 306.398 201.178 306.533 201.178 307.037L201.178 357.423C201.178 357.543 201.131 357.658 201.046 357.743L199.951 358.838C199.866 358.923 199.818 359.039 199.818 359.159L199.818 366.453C199.818 367.587 218.183 377.563 225.212 380.284C230.813 382.452 254.722 384.8 266.114 385.715C266.206 385.722 266.294 385.701 266.373 385.655L292.46 370.587C292.521 370.553 292.572 370.504 292.611 370.446L299.28 360.442C299.329 360.37 299.355 360.289 299.356 360.202C299.659 343.46 300.078 310.865 299.354 313.397C298.447 316.572 274.867 354.21 272.826 354.663C270.786 355.116 250.606 357.611 248.112 357.611C245.618 357.611 225.439 347.634 220.677 345.594Z"/>
<path d="M299.194 359.412C299.152 359.42 299.107 359.435 299.069 359.455C245.929 386.772 203.889 357.561 201.908 356.281C201.858 356.249 201.841 356.225 201.803 356.178C200.926 355.103 198.626 354.868 195.963 362.145C193.247 369.569 199.569 428.145 225.077 460.152C225.163 460.26 225.289 460.333 225.401 460.414C227.802 462.142 247.443 487.183 268.226 466.056C268.268 466.014 268.319 465.978 268.373 465.954C287.36 457.695 297.989 410.133 301.164 379.416C301.167 379.39 301.171 379.365 301.179 379.34C303.21 372.173 305.629 358.253 299.194 359.412Z"/>
<path d="M242.444 118.758C240.203 141.303 219.808 190.535 219.326 194.357C219.313 194.455 219.346 194.514 219.405 194.592C224.574 201.502 234.828 216.675 235.188 223.057C235.549 229.433 257.715 232.708 268.974 233.57C269.118 233.581 269.254 233.522 269.348 233.411L286.967 212.67C287.057 212.563 287.094 212.421 287.065 212.283L280.769 182.225C280.764 182.201 280.758 182.178 280.749 182.156L269.215 152.146C269.204 152.117 269.196 152.088 269.191 152.059L262.631 113.29C262.626 113.258 262.616 113.224 262.604 113.194C242.445 62.8708 244.257 100.511 242.444 118.758Z"/>
<path d="M222.942 413.159C222.942 422.174 215.634 429.483 206.619 429.483C197.603 429.483 190.295 422.174 190.295 413.159C190.295 404.144 197.603 396.836 206.619 396.836C215.634 396.836 222.942 404.144 222.942 413.159Z"/>
<path d="M207.707 405.541C207.707 410.35 203.809 414.247 199.001 414.247C194.193 414.247 190.295 410.35 190.295 405.541C190.295 400.733 194.193 396.836 199.001 396.836C203.809 396.836 207.707 400.733 207.707 405.541Z"/>
<path d="M306.834 413.159C306.834 422.174 299.526 429.483 290.51 429.483C281.495 429.483 274.187 422.174 274.187 413.159C274.187 404.144 281.495 396.836 290.51 396.836C299.526 396.836 306.834 404.144 306.834 413.159Z"/>
<path d="M291.598 405.541C291.598 410.35 287.701 414.247 282.893 414.247C278.084 414.247 274.187 410.35 274.187 405.541C274.187 400.733 278.084 396.836 282.893 396.836C287.701 396.836 291.598 400.733 291.598 405.541Z"/>
<path d="M235.188 308.92C235.188 312.035 240.644 329.571 244.013 339.94C244.404 341.144 245.876 341.577 246.868 340.791C250.819 337.662 256.858 332.97 259.88 330.951C264.396 327.933 263.192 308.92 263.192 303.186C263.192 297.452 266.504 275.119 263.192 269.687C259.88 264.254 258.976 247.655 257.772 243.43C257.248 241.594 255.406 228.542 253.618 220.761C253.577 220.581 253.563 220.4 253.577 220.217L255.35 196.528C255.358 196.409 255.379 196.293 255.41 196.178L259.814 180.291C259.857 180.133 259.88 179.97 259.88 179.806L259.88 169.673C259.88 168.098 258.086 167.347 257.12 168.591C245.817 183.136 240.745 217.222 239.404 221.701C237.597 227.737 235.188 268.479 235.188 276.326L235.188 308.92Z"/>
<path d="M224.287 448.242L222.854 441.541C222.427 439.542 224.988 438.333 226.26 439.932C226.44 440.159 226.567 440.421 226.63 440.703C227.732 445.573 229.654 455.322 229.234 458.57C228.818 461.792 227.366 455.896 226.616 452.189C226.561 451.915 226.451 451.656 226.293 451.426L224.603 448.973C224.45 448.752 224.343 448.504 224.287 448.242Z"/>
<path d="M277.481 446.623L279.073 439.177C279.548 436.956 276.703 435.612 275.289 437.39C275.089 437.641 274.949 437.933 274.878 438.246C273.654 443.658 271.518 454.49 271.984 458.098C272.447 461.678 274.061 455.128 274.894 451.008C274.955 450.704 275.077 450.417 275.253 450.161L277.131 447.435C277.3 447.19 277.419 446.914 277.481 446.623Z"/>
</mask>
<path d="M187.574 226.107C187.574 229.849 193.656 243.774 202.681 252.061C202.764 252.138 202.873 252.179 202.985 252.179H206.651C206.808 252.179 206.954 252.098 207.036 251.965L212.273 243.545C212.33 243.455 212.352 243.347 212.337 243.241L209.87 226.178C209.863 226.131 209.849 226.085 209.828 226.042L202.9 211.999C202.843 211.883 202.739 211.797 202.615 211.762L187.574 207.555L187.574 226.107Z" fill="#4A7D7A"/>
<path d="M241.925 107.865C241.904 107.824 241.891 107.786 241.882 107.74C240.683 101.035 226.573 73.177 226.573 66.6063C226.573 60.0149 228.441 25.8218 235.167 28.2936C240.46 30.2387 250.044 43.2394 254.387 49.8064C254.511 49.9938 254.749 50.0579 254.953 49.9636L265.814 44.9424C266.024 44.8455 266.273 44.9217 266.392 45.1194L272.843 55.787C272.886 55.8578 272.909 55.9389 272.909 56.0217L272.909 76.4503C272.909 76.479 272.906 76.5076 272.901 76.5358L266.182 111.51L262.602 146.246C262.556 146.694 261.954 146.808 261.748 146.406L241.925 107.865Z" fill="#4A7D7A"/>
<path d="M311.598 224.518C311.598 227.903 305.532 240.499 296.532 247.994C296.451 248.062 296.349 248.098 296.244 248.098H292.564C292.415 248.098 292.275 248.024 292.19 247.901L286.986 240.312C286.92 240.216 286.894 240.098 286.912 239.984L289.366 224.595C289.374 224.544 289.39 224.495 289.415 224.449L296.312 211.768C296.372 211.657 296.476 211.576 296.599 211.545L311.033 207.883C311.319 207.81 311.598 208.027 311.598 208.322V224.518Z" fill="#4A7D7A"/>
<path d="M334.953 336.192C339.226 351.152 314.952 376.133 303.478 386.6C303.35 386.716 303.174 386.744 303.014 386.681L290.797 381.905C290.776 381.896 290.755 381.886 290.735 381.875L275.246 372.932C275.126 372.863 275.045 372.743 275.025 372.606L272.623 356.376C272.608 356.274 272.627 356.171 272.678 356.082L277.568 347.613C277.581 347.591 277.595 347.57 277.611 347.551C285.066 338.574 300.492 320.062 302.751 317.6C305.577 314.519 316.267 307.339 324.448 308.135C332.628 308.93 329.581 317.382 334.953 336.192Z" fill="#4A7D7A"/>
<path d="M165.775 332.111C161.508 347.05 187.632 373.868 199.153 384.387C199.305 384.525 199.523 384.536 199.695 384.425L209.963 377.811L225.482 368.851C225.602 368.782 225.683 368.662 225.704 368.525L228.106 352.294C228.12 352.193 228.101 352.09 228.05 352.001L223.16 343.532C223.147 343.509 223.133 343.489 223.117 343.47C215.662 334.492 200.236 315.981 197.977 313.519C195.151 310.438 184.461 303.258 176.28 304.053C168.1 304.849 171.147 313.301 165.775 332.111Z" fill="#4A7D7A"/>
<path d="M191.655 320.519C191.655 320.458 191.668 320.397 191.692 320.341L194.939 312.765C195.01 312.599 195.174 312.49 195.355 312.49H196.19C196.333 312.49 196.467 312.558 196.553 312.672L203.166 321.49C203.201 321.536 203.227 321.589 203.242 321.644L205.713 330.856L210.219 349.332C210.238 349.408 210.237 349.485 210.216 349.56C208.391 356.024 204.713 369.092 204.353 370.534C204.005 371.927 199.316 377.743 196.733 380.816C196.562 381.019 196.256 381.03 196.068 380.842L187.493 372.267C187.4 372.174 187.352 372.047 187.361 371.916L188.251 358.342C188.253 358.308 188.259 358.274 188.269 358.241L191.636 347.018C191.649 346.976 191.655 346.932 191.655 346.887L191.655 320.519Z" fill="#3A6663"/>
<path d="M308.656 322.974C308.652 322.937 308.644 322.903 308.631 322.868L306.169 316.096C306.056 315.787 305.663 315.697 305.428 315.927C302.747 318.557 298.22 323.203 298.22 324.054C298.22 325.188 294.366 336.978 294.366 339.699C294.366 342.419 294.593 356.023 294.366 358.291C294.139 360.558 298.447 376.883 298.22 378.243C298.045 379.297 299.555 383.269 300.406 385.304C300.458 385.428 300.562 385.522 300.69 385.561L303.161 386.321C303.329 386.373 303.51 386.324 303.629 386.196C304.532 385.227 306.221 383.51 307.063 383.005C307.948 382.474 312.65 376.859 315.053 373.92C315.16 373.789 315.184 373.611 315.117 373.456L313.865 370.534C312.883 367.738 310.736 361.919 310.011 361.012C309.285 360.105 309.708 354.89 310.011 352.396L310.011 336.978C310.011 335.894 309.111 327.226 308.656 322.974Z" fill="#3A6663"/>
<path d="M206.561 221.579C206.662 221.177 207.206 221.11 207.401 221.476L210.421 227.138C210.456 227.204 210.474 227.277 210.474 227.352L210.474 238.122C210.474 239.482 205.26 251.952 204.806 251.952H202.714C202.601 251.952 202.492 251.91 202.409 251.835L200.193 249.82C200.099 249.734 200.045 249.612 200.045 249.485V240.936C200.045 240.874 200.057 240.813 200.081 240.757L204.112 231.353C204.121 231.331 204.129 231.308 204.135 231.284L206.561 221.579Z" fill="#3A6663"/>
<path d="M299.581 231.32C297.895 227.624 294.696 220.623 293.592 218.251C293.439 217.922 292.993 217.909 292.814 218.224C291.512 220.519 289.412 224.287 288.924 225.425C288.397 226.655 289.104 228.552 289.561 229.425C289.589 229.479 289.608 229.537 289.614 229.597L290.73 240.763C290.736 240.815 290.75 240.867 290.773 240.915L294.015 247.615C294.091 247.772 294.25 247.871 294.424 247.871H296.667C296.79 247.871 296.908 247.821 296.994 247.732L302.175 242.335C302.256 242.25 302.302 242.138 302.302 242.021V239.781C302.302 239.733 302.294 239.686 302.28 239.641L299.581 231.32Z" fill="#3A6663"/>
<path d="M251.324 86.0821C251.299 86.017 251.29 85.9472 251.297 85.8781L254.895 49.6699C254.907 49.5479 254.87 49.4261 254.79 49.3325L244.776 37.4783C244.486 37.1351 243.927 37.3772 243.979 37.8235L247.432 67.391L248.108 86.9848C248.111 87.0711 248.138 87.1547 248.187 87.2258L253.944 95.6141C254.247 96.0556 254.93 95.6996 254.742 95.1983L251.324 86.0821Z" fill="#3A6663"/>
<path d="M300.488 317.705C300.488 403.983 289.151 473.925 250.606 473.925C212.062 473.925 200.725 403.983 200.725 317.705C200.725 231.428 223.058 161.486 250.606 161.486C278.155 161.486 300.488 231.428 300.488 317.705Z" fill="#5F9E9B"/>
<path d="M220.677 345.594C217.083 344.053 207.281 320.447 202.061 306.869C201.88 306.398 201.178 306.533 201.178 307.037L201.178 357.423C201.178 357.543 201.131 357.658 201.046 357.743L199.951 358.838C199.866 358.923 199.818 359.039 199.818 359.159L199.818 366.453C199.818 367.587 218.183 377.563 225.212 380.284C230.813 382.452 254.722 384.8 266.114 385.715C266.206 385.722 266.294 385.701 266.373 385.655L292.46 370.587C292.521 370.553 292.572 370.504 292.611 370.446L299.28 360.442C299.329 360.37 299.355 360.289 299.356 360.202C299.659 343.46 300.078 310.865 299.354 313.397C298.447 316.572 274.867 354.21 272.826 354.663C270.786 355.116 250.606 357.611 248.112 357.611C245.618 357.611 225.439 347.634 220.677 345.594Z" fill="#508480"/>
<path d="M299.194 359.412C299.152 359.42 299.107 359.435 299.069 359.455C245.929 386.772 203.889 357.561 201.908 356.281C201.858 356.249 201.841 356.225 201.803 356.178C200.926 355.103 198.626 354.868 195.963 362.145C193.247 369.569 199.569 428.145 225.077 460.152C225.163 460.26 225.289 460.333 225.401 460.414C227.802 462.142 247.443 487.183 268.226 466.056C268.268 466.014 268.319 465.978 268.373 465.954C287.36 457.695 297.989 410.133 301.164 379.416C301.167 379.39 301.171 379.365 301.179 379.34C303.21 372.173 305.629 358.253 299.194 359.412Z" fill="#588F8C"/>
<path d="M242.444 118.758C240.203 141.303 219.808 190.535 219.326 194.357C219.313 194.455 219.346 194.514 219.405 194.592C224.574 201.502 234.828 216.675 235.188 223.057C235.549 229.433 257.715 232.708 268.974 233.57C269.118 233.581 269.254 233.522 269.348 233.411L286.967 212.67C287.057 212.563 287.094 212.421 287.065 212.283L280.769 182.225C280.764 182.201 280.758 182.178 280.749 182.156L269.215 152.146C269.204 152.117 269.196 152.088 269.191 152.059L262.631 113.29C262.626 113.258 262.616 113.224 262.604 113.194C242.445 62.8708 244.257 100.511 242.444 118.758Z" fill="#5F9E9A"/>
<path d="M222.942 413.159C222.942 422.174 215.634 429.483 206.619 429.483C197.603 429.483 190.295 422.174 190.295 413.159C190.295 404.144 197.603 396.836 206.619 396.836C215.634 396.836 222.942 404.144 222.942 413.159Z" fill="black"/>
<path d="M207.707 405.541C207.707 410.35 203.809 414.247 199.001 414.247C194.193 414.247 190.295 410.35 190.295 405.541C190.295 400.733 194.193 396.836 199.001 396.836C203.809 396.836 207.707 400.733 207.707 405.541Z" fill="white"/>
<path d="M306.834 413.159C306.834 422.174 299.526 429.483 290.51 429.483C281.495 429.483 274.187 422.174 274.187 413.159C274.187 404.144 281.495 396.836 290.51 396.836C299.526 396.836 306.834 404.144 306.834 413.159Z" fill="black"/>
<path d="M291.598 405.541C291.598 410.35 287.701 414.247 282.893 414.247C278.084 414.247 274.187 410.35 274.187 405.541C274.187 400.733 278.084 396.836 282.893 396.836C287.701 396.836 291.598 400.733 291.598 405.541Z" fill="white"/>
<path d="M235.188 308.92C235.188 312.035 240.644 329.571 244.013 339.94C244.404 341.144 245.876 341.577 246.868 340.791C250.819 337.662 256.858 332.97 259.88 330.951C264.396 327.933 263.192 308.92 263.192 303.186C263.192 297.452 266.504 275.119 263.192 269.687C259.88 264.254 258.976 247.655 257.772 243.43C257.248 241.594 255.406 228.542 253.618 220.761C253.577 220.581 253.563 220.4 253.577 220.217L255.35 196.528C255.358 196.409 255.379 196.293 255.41 196.178L259.814 180.291C259.857 180.133 259.88 179.97 259.88 179.806L259.88 169.673C259.88 168.098 258.086 167.347 257.12 168.591C245.817 183.136 240.745 217.222 239.404 221.701C237.597 227.737 235.188 268.479 235.188 276.326L235.188 308.92Z" fill="#70B6B1"/>
<path d="M224.287 448.242L222.854 441.541C222.427 439.542 224.988 438.333 226.26 439.932C226.44 440.159 226.567 440.421 226.63 440.703C227.732 445.573 229.654 455.322 229.234 458.57C228.818 461.792 227.366 455.896 226.616 452.189C226.561 451.915 226.451 451.656 226.293 451.426L224.603 448.973C224.45 448.752 224.343 448.504 224.287 448.242Z" fill="#4E7674"/>
<path d="M277.481 446.623L279.073 439.177C279.548 436.956 276.703 435.612 275.289 437.39C275.089 437.641 274.949 437.933 274.878 438.246C273.654 443.658 271.518 454.49 271.984 458.098C272.447 461.678 274.061 455.128 274.894 451.008C274.955 450.704 275.077 450.417 275.253 450.161L277.131 447.435C277.3 447.19 277.419 446.914 277.481 446.623Z" fill="#4E7674"/>
<path d="M191.429 226.107C191.429 224.603 191.429 221.197 191.429 217.552C191.429 213.906 191.429 210.02 191.429 207.555L183.72 207.555C183.72 210.02 183.72 213.906 183.72 217.552C183.72 221.197 183.72 224.603 183.72 226.107L191.429 226.107ZM187.574 226.107L179.865 226.107L187.574 226.107ZM187.574 207.555L189.651 200.131L179.865 197.394L179.865 207.555L187.574 207.555ZM235.167 28.2936L232.508 35.5294L235.167 28.2936ZM266.182 111.51L258.612 110.056L258.549 110.386L258.514 110.72L266.182 111.51ZM311.598 224.518L319.307 224.518V224.518H311.598ZM334.953 336.192L327.541 338.309L327.541 338.309L334.953 336.192ZM302.751 317.6L308.432 322.811L308.432 322.811L302.751 317.6ZM165.775 332.111L173.187 334.228L173.187 334.228L165.775 332.111ZM197.977 313.519L192.296 318.73L192.296 318.73L197.977 313.519ZM209.963 377.811L206.108 371.135L205.946 371.229L205.788 371.33L209.963 377.811ZM204.353 370.534L211.831 372.404L211.831 372.404L204.353 370.534ZM205.713 330.856L213.202 329.029L213.181 328.944L213.159 328.858L205.713 330.856ZM310.011 336.978L317.72 336.978L317.72 336.978L310.011 336.978ZM310.011 352.396L317.664 353.323L317.72 352.861L317.72 352.396L310.011 352.396ZM313.865 370.534L306.592 373.09L306.678 373.334L306.779 373.571L313.865 370.534ZM307.063 383.005L303.097 376.394L307.063 383.005ZM298.22 378.243L290.616 376.976L290.616 376.976L298.22 378.243ZM298.22 324.054L290.511 324.054L298.22 324.054ZM204.806 251.952L204.806 244.244H204.806V251.952ZM210.474 238.122L202.765 238.122L202.765 238.122L210.474 238.122ZM299.581 231.32L306.914 228.941L306.778 228.522L306.595 228.12L299.581 231.32ZM288.924 225.425L281.839 222.388L288.924 225.425ZM247.432 67.391L255.136 67.1253L255.126 66.8101L255.089 66.4968L247.432 67.391ZM220.677 345.594L223.714 338.508L223.714 338.508L220.677 345.594ZM299.354 313.397L291.942 311.28L291.942 311.28L299.354 313.397ZM225.212 380.284L227.995 373.095L227.995 373.095L225.212 380.284ZM199.818 366.453L192.109 366.453L192.109 366.453L199.818 366.453ZM195.963 362.145L188.724 359.497L188.724 359.497L195.963 362.145ZM242.444 118.758L250.115 119.52L242.444 118.758ZM235.188 223.057L227.492 223.492L235.188 223.057ZM244.013 339.94L251.345 337.558L251.345 337.558L244.013 339.94ZM235.188 308.92L227.479 308.92L227.479 308.92L235.188 308.92ZM235.188 276.326L242.897 276.326L242.897 276.326L235.188 276.326ZM239.404 221.701L232.019 219.49L232.019 219.49L239.404 221.701ZM257.12 168.591L251.032 163.861L251.032 163.861L257.12 168.591ZM259.88 169.673L267.588 169.673L267.588 169.673L259.88 169.673ZM259.88 179.806L252.171 179.806L252.171 179.806L259.88 179.806ZM259.814 180.291L252.385 178.232L252.385 178.232L259.814 180.291ZM255.41 196.178L262.839 198.237L262.839 198.237L255.41 196.178ZM255.35 196.528L247.662 195.952L247.662 195.952L255.35 196.528ZM253.577 220.217L261.264 220.792L261.264 220.792L253.577 220.217ZM253.618 220.761L246.105 222.487L246.105 222.487L253.618 220.761ZM257.772 243.43L250.358 245.544L250.358 245.544L257.772 243.43ZM259.88 330.951L264.162 337.361L264.162 337.361L259.88 330.951ZM246.868 340.791L242.081 334.748L242.081 334.748L246.868 340.791ZM222.854 441.541L215.316 443.153L215.316 443.153L222.854 441.541ZM224.287 448.242L231.826 446.63L231.826 446.63L224.287 448.242ZM224.603 448.973L218.255 453.347L218.255 453.347L224.603 448.973ZM226.293 451.426L232.641 447.052L232.641 447.052L226.293 451.426ZM226.616 452.189L234.172 450.66L234.172 450.66L226.616 452.189ZM229.234 458.57L236.88 459.557L236.88 459.557L229.234 458.57ZM226.63 440.703L234.15 439.003L234.15 439.003L226.63 440.703ZM226.26 439.932L220.226 444.73L220.226 444.73L226.26 439.932ZM279.073 439.177L286.612 440.789L286.612 440.789L279.073 439.177ZM277.481 446.623L285.02 448.235L285.02 448.235L277.481 446.623ZM277.131 447.435L270.783 443.061L270.783 443.061L277.131 447.435ZM275.253 450.161L281.6 454.535L281.6 454.535L275.253 450.161ZM274.894 451.008L282.45 452.537L282.45 452.537L274.894 451.008ZM271.984 458.098L264.339 459.086L264.339 459.086L271.984 458.098ZM274.878 438.246L282.397 439.946L282.397 439.946L274.878 438.246ZM275.289 437.39L269.255 432.593L269.255 432.593L275.289 437.39ZM287.065 212.283L294.61 210.703L287.065 212.283ZM286.967 212.67L281.091 207.679L281.091 207.679L286.967 212.67ZM262.604 113.194L269.76 110.328L262.604 113.194ZM262.631 113.29L255.03 114.576L262.631 113.29ZM268.373 465.954L271.448 473.023L268.373 465.954ZM268.226 466.056L273.722 471.462L268.226 466.056ZM301.179 379.34L308.595 381.442L301.179 379.34ZM301.164 379.416L293.496 378.623L301.164 379.416ZM266.373 385.655L262.518 378.979L266.373 385.655ZM266.114 385.715L265.497 393.399L266.114 385.715ZM299.356 360.202L291.649 360.063L299.356 360.202ZM299.28 360.442L292.866 356.166L299.28 360.442ZM202.061 306.869L209.256 304.102L202.061 306.869ZM201.178 307.037L193.469 307.037L201.178 307.037ZM243.979 37.8235L236.322 38.7178L243.979 37.8235ZM244.776 37.4783L238.887 42.4533L244.776 37.4783ZM248.187 87.2258L241.831 91.5878L248.187 87.2258ZM248.108 86.9848L255.812 86.7192L248.108 86.9848ZM254.742 95.1983L261.96 92.4915L254.742 95.1983ZM253.944 95.6141L247.588 99.9762L253.944 95.6141ZM251.297 85.8781L258.968 86.6404L251.297 85.8781ZM251.324 86.0821L244.106 88.7889L251.324 86.0821ZM254.895 49.6699L247.224 48.9076L254.895 49.6699ZM254.79 49.3325L248.902 54.3074L254.79 49.3325ZM289.614 229.597L297.284 228.83L289.614 229.597ZM289.561 229.425L282.731 233L289.561 229.425ZM290.773 240.915L283.834 244.273L290.773 240.915ZM290.73 240.763L298.401 239.995L290.73 240.763ZM294.015 247.615L287.076 250.973L294.015 247.615ZM296.994 247.732L302.555 253.071L296.994 247.732ZM302.175 242.335L307.736 247.673L302.175 242.335ZM302.28 239.641L309.612 237.262L302.28 239.641ZM293.592 218.251L300.581 214.998L293.592 218.251ZM292.814 218.224L299.519 222.028L292.814 218.224ZM210.421 227.138L203.619 230.766L210.421 227.138ZM210.474 227.352L218.183 227.352L210.474 227.352ZM315.117 373.456L308.032 376.493L315.117 373.456ZM315.053 373.92L309.085 369.04L315.053 373.92ZM196.553 312.672L190.386 317.297L196.553 312.672ZM203.242 321.644L210.687 319.647L203.242 321.644ZM203.166 321.49L209.334 316.864L203.166 321.49ZM210.216 349.56L217.635 351.655L210.216 349.56ZM210.219 349.332L217.709 347.506L210.219 349.332ZM196.068 380.842L190.617 386.293L196.068 380.842ZM196.733 380.816L190.832 375.856L196.733 380.816ZM187.361 371.916L179.669 371.412L187.361 371.916ZM187.493 372.267L182.042 377.718L187.493 372.267ZM188.269 358.241L180.885 356.026L188.269 358.241ZM188.251 358.342L180.559 357.838L188.251 358.342ZM191.636 347.018L184.252 344.803L191.636 347.018ZM191.655 346.887L183.946 346.887L191.655 346.887ZM191.692 320.341L198.778 323.377L191.692 320.341ZM191.655 320.519L199.364 320.519L191.655 320.519ZM194.939 312.765L202.024 315.802L194.939 312.765ZM225.482 368.851L229.336 375.527L225.482 368.851ZM228.05 352.001L221.373 355.856L228.05 352.001ZM228.106 352.294L235.731 353.423L235.731 353.423L228.106 352.294ZM223.117 343.47L229.047 338.545L223.117 343.47ZM223.16 343.532L229.836 339.677L223.16 343.532ZM199.153 384.387L204.351 378.693L199.153 384.387ZM199.695 384.425L195.521 377.944L199.695 384.425ZM202.409 251.835L207.595 246.13L202.409 251.835ZM292.19 247.901L298.548 243.541L292.19 247.901ZM200.193 249.82L195.007 255.524L200.193 249.82ZM286.912 239.984L279.299 238.77L286.912 239.984ZM286.986 240.312L293.344 235.952L286.986 240.312ZM200.081 240.757L192.996 237.72L200.081 240.757ZM289.415 224.449L282.643 220.766L289.415 224.449ZM289.366 224.595L281.753 223.381L289.366 224.595ZM204.135 231.284L196.656 229.415L204.135 231.284ZM204.112 231.353L211.197 234.39L204.112 231.353ZM296.599 211.545L294.703 204.073L296.599 211.545ZM296.312 211.768L289.54 208.085L296.312 211.768ZM207.401 221.476L200.599 225.104L207.401 221.476ZM206.561 221.579L199.082 219.71L206.561 221.579ZM269.348 233.411L275.223 238.402L275.223 238.402L269.348 233.411ZM268.974 233.57L269.563 225.884L268.974 233.57ZM311.033 207.883L309.137 200.411L311.033 207.883ZM280.749 182.156L273.553 184.921L280.749 182.156ZM280.769 182.225L288.315 180.645L280.769 182.225ZM296.532 247.994L291.599 242.07L296.532 247.994ZM272.909 76.4503L280.618 76.4503L272.909 76.4503ZM272.901 76.5358L265.33 75.0817L272.901 76.5358ZM300.69 385.561L298.423 392.929L300.69 385.561ZM300.406 385.304L293.293 388.278L300.406 385.304ZM219.326 194.357L226.974 195.322L219.326 194.357ZM219.405 194.592L213.232 199.21L219.405 194.592ZM272.843 55.787L266.247 59.7761L272.843 55.787ZM272.909 56.0217L280.618 56.0217L272.909 56.0217ZM225.401 460.414L229.904 454.157L225.401 460.414ZM225.077 460.152L219.048 464.957L225.077 460.152ZM254.387 49.8064L247.957 54.0584L254.387 49.8064ZM254.953 49.9636L258.188 56.9609L254.953 49.9636ZM290.735 381.875L294.59 375.199L290.735 381.875ZM290.797 381.905L293.604 374.725L290.797 381.905ZM299.069 359.455L302.593 366.311L299.069 359.455ZM299.194 359.412L300.561 366.999L299.194 359.412ZM241.882 107.74L234.294 109.097L241.882 107.74ZM241.925 107.865L248.781 104.339L241.925 107.865ZM275.025 372.606L267.399 373.735L275.025 372.606ZM275.246 372.932L279.101 366.256L275.246 372.932ZM201.908 356.281L206.091 349.806L201.908 356.281ZM201.803 356.178L195.827 361.049L201.803 356.178ZM207.036 251.965L200.49 247.894L207.036 251.965ZM269.191 152.059L276.792 150.772L269.191 152.059ZM269.215 152.146L262.019 154.911L269.215 152.146ZM262.602 146.246L254.934 145.455L262.602 146.246ZM261.748 146.406L254.892 149.932L261.748 146.406ZM277.611 347.551L283.542 352.476L277.611 347.551ZM277.568 347.613L270.892 343.758L277.568 347.613ZM308.631 322.868L315.876 320.234L308.631 322.868ZM308.656 322.974L300.991 323.794L308.656 322.974ZM199.818 359.159L192.109 359.159L199.818 359.159ZM199.951 358.838L194.5 353.387L199.951 358.838ZM209.828 226.042L202.914 229.453L209.828 226.042ZM209.87 226.178L202.24 227.281L209.87 226.178ZM306.169 316.096L313.414 313.462L306.169 316.096ZM305.428 315.927L310.827 321.43L305.428 315.927ZM202.615 211.762L204.692 204.338L202.615 211.762ZM202.9 211.999L195.986 215.409L202.9 211.999ZM272.678 356.082L279.355 359.937L272.678 356.082ZM272.623 356.376L264.997 357.504L272.623 356.376ZM201.046 357.743L195.594 352.292L201.046 357.743ZM201.178 357.423L193.469 357.423L201.178 357.423ZM212.337 243.241L204.707 244.344L212.337 243.241ZM303.629 386.196L309.27 391.451L303.629 386.196ZM303.161 386.321L300.894 393.69L303.161 386.321ZM265.814 44.9424L262.579 37.9451L265.814 44.9424ZM266.392 45.1194L259.796 49.1085L266.392 45.1194ZM303.478 386.6L298.283 380.904L303.478 386.6ZM303.014 386.681L300.207 393.861L303.014 386.681ZM292.611 370.446L299.025 374.722L292.611 370.446ZM292.46 370.587L296.316 377.263L296.316 377.263L292.46 370.587ZM202.681 252.061L197.467 257.739L202.681 252.061ZM207.895 246.383C204.234 243.021 200.946 238.269 198.551 233.763C197.372 231.544 196.485 229.525 195.913 227.948C195.233 226.074 195.283 225.594 195.283 226.107L179.865 226.107C179.865 228.491 180.675 231.155 181.418 233.204C182.269 235.549 183.466 238.23 184.936 240.997C187.838 246.46 192.103 252.814 197.467 257.739L207.895 246.383ZM185.498 214.979L200.538 219.186L204.692 204.338L189.651 200.131L185.498 214.979ZM195.986 215.409L202.914 229.453L216.741 222.632L209.813 208.588L195.986 215.409ZM202.24 227.281L204.707 244.344L219.967 242.138L217.499 225.075L202.24 227.281ZM205.727 239.474L200.49 247.894L213.582 256.037L218.819 247.617L205.727 239.474ZM206.651 244.47H202.985V259.888H206.651V244.47ZM195.283 226.107L195.283 207.555L179.865 207.555L179.865 226.107L195.283 226.107ZM249.471 106.382C249 103.748 247.532 99.9527 246.122 96.4969C244.6 92.7643 242.674 88.3326 240.869 84.0988C239.029 79.7849 237.297 75.6367 236.029 72.1969C235.395 70.4758 234.919 69.0448 234.611 67.9305C234.259 66.6583 234.281 66.3371 234.281 66.6063L218.864 66.6063C218.864 68.5182 219.327 70.5049 219.751 72.04C220.219 73.7331 220.855 75.6088 221.563 77.5282C222.978 81.3693 224.849 85.8366 226.687 90.1466C228.559 94.5367 230.385 98.7374 231.846 102.319C233.42 106.178 234.165 108.379 234.294 109.097L249.471 106.382ZM234.281 66.6063C234.281 63.6442 234.727 53.8179 235.977 45.1523C236.615 40.7357 237.387 37.1779 238.196 35.0398C238.639 33.8694 238.809 33.9087 238.381 34.3466C238.102 34.6321 237.394 35.2586 236.201 35.6209C234.887 36.0195 233.568 35.9191 232.508 35.5294L237.826 21.0577C235.925 20.3591 233.804 20.2362 231.724 20.8673C229.764 21.4621 228.326 22.5762 227.352 23.573C225.535 25.4335 224.455 27.79 223.777 29.5807C222.345 33.3645 221.388 38.3035 220.718 42.9502C219.352 52.411 218.864 62.977 218.864 66.6063L234.281 66.6063ZM232.508 35.5294C232.309 35.4562 232.962 35.7237 234.536 37.1906C235.923 38.4842 237.525 40.2314 239.215 42.2562C242.586 46.2954 245.897 50.9442 247.957 54.0584L260.817 45.5544C258.534 42.1015 254.882 36.9665 251.052 32.3773C249.142 30.088 247.083 27.8099 245.05 25.9136C243.201 24.1905 240.672 22.1036 237.826 21.0577L232.508 35.5294ZM258.188 56.9609L269.049 51.9398L262.579 37.9451L251.718 42.9663L258.188 56.9609ZM259.796 49.1085L266.247 59.7761L279.44 51.798L272.989 41.1304L259.796 49.1085ZM265.2 56.0217L265.2 76.4503L280.618 76.4503L280.618 56.0217L265.2 56.0217ZM265.33 75.0817L258.612 110.056L273.753 112.965L280.471 77.99L265.33 75.0817ZM258.514 110.72L254.934 145.455L270.27 147.036L273.851 112.301L258.514 110.72ZM268.603 142.881L248.781 104.339L235.07 111.391L254.892 149.932L268.603 142.881ZM301.465 253.918C306.853 249.431 311.154 243.625 314.092 238.611C315.577 236.075 316.795 233.603 317.667 231.422C318.408 229.57 319.307 226.958 319.307 224.518L303.889 224.518C303.889 223.77 304.03 224.002 303.351 225.698C302.805 227.065 301.944 228.845 300.788 230.818C298.443 234.822 295.211 239.062 291.599 242.07L301.465 253.918ZM319.307 224.518V208.322H303.889V224.518H319.307ZM309.137 200.411L294.703 204.073L298.495 219.017L312.929 215.355L309.137 200.411ZM289.54 208.085L282.643 220.766L296.187 228.132L303.084 215.451L289.54 208.085ZM281.753 223.381L279.299 238.77L294.525 241.197L296.978 225.808L281.753 223.381ZM280.628 244.671L285.832 252.261L298.548 243.541L293.344 235.952L280.628 244.671ZM292.564 255.807H296.244V240.389H292.564V255.807ZM308.673 392.295C314.586 386.902 323.929 377.658 331.319 367.664C335.007 362.678 338.411 357.235 340.603 351.784C342.75 346.448 344.108 340.176 342.366 334.075L327.541 338.309C327.935 339.688 327.861 342.148 326.299 346.031C324.784 349.799 322.203 354.061 318.922 358.497C312.375 367.352 303.844 375.831 298.283 380.904L308.673 392.295ZM342.366 334.075C339.755 324.933 339.465 319.537 338.307 313.865C337.813 311.448 336.989 308.152 334.829 305.424C332.267 302.188 328.762 300.809 325.194 300.462L323.701 315.807C324.224 315.858 323.406 315.834 322.741 314.994C322.478 314.662 322.762 314.804 323.201 316.951C323.907 320.406 324.78 328.641 327.541 338.309L342.366 334.075ZM325.194 300.462C318.882 299.848 312.546 302.255 308.068 304.557C303.512 306.898 299.294 309.964 297.07 312.389L308.432 322.811C309.034 322.154 311.574 320.09 315.115 318.27C318.734 316.41 321.833 315.625 323.701 315.807L325.194 300.462ZM297.07 312.389C294.642 315.035 279.023 333.784 271.681 342.626L283.542 352.476C291.109 343.363 306.342 325.089 308.432 322.811L297.07 312.389ZM270.892 343.758L266.002 352.228L279.355 359.937L284.244 351.467L270.892 343.758ZM264.997 357.504L267.399 373.735L282.65 371.478L280.248 355.247L264.997 357.504ZM271.392 379.609L286.881 388.551L294.59 375.199L279.101 366.256L271.392 379.609ZM287.99 389.084L300.207 393.861L305.821 379.501L293.604 374.725L287.99 389.084ZM204.351 378.693C198.772 373.6 189.742 364.628 182.704 355.272C179.175 350.581 176.353 346.063 174.666 342.09C172.907 337.946 172.835 335.463 173.187 334.228L158.362 329.994C156.582 336.228 158.175 342.7 160.474 348.115C162.845 353.7 166.474 359.345 170.383 364.541C178.22 374.959 188.013 384.654 193.956 390.08L204.351 378.693ZM173.187 334.228C175.949 324.56 176.822 316.325 177.527 312.87C177.966 310.723 178.25 310.581 177.987 310.913C177.322 311.753 176.504 311.777 177.027 311.726L175.534 296.381C171.966 296.728 168.462 298.106 165.899 301.342C163.739 304.071 162.915 307.366 162.422 309.784C161.263 315.455 160.973 320.852 158.362 329.994L173.187 334.228ZM177.027 311.726C178.895 311.544 181.994 312.329 185.613 314.189C189.154 316.009 191.694 318.073 192.296 318.73L203.658 308.308C201.435 305.883 197.216 302.817 192.661 300.476C188.182 298.174 181.846 295.767 175.534 296.381L177.027 311.726ZM192.296 318.73C194.386 321.007 209.619 339.282 217.186 348.395L229.047 338.545C221.705 329.703 206.086 310.954 203.658 308.308L192.296 318.73ZM216.484 347.386L221.373 355.856L234.726 348.147L229.836 339.677L216.484 347.386ZM220.48 351.166L218.078 367.396L233.329 369.653L235.731 353.423L220.48 351.166ZM221.627 362.175L206.108 371.135L213.817 384.487L229.336 375.527L221.627 362.175ZM205.788 371.33L195.521 377.944L203.87 390.906L214.138 384.292L205.788 371.33ZM187.853 309.729L184.606 317.304L198.778 323.377L202.024 315.802L187.853 309.729ZM184.252 344.803L180.885 356.026L195.653 360.457L199.02 349.233L184.252 344.803ZM180.559 357.838L179.669 371.412L195.053 372.421L195.944 358.847L180.559 357.838ZM182.042 377.718L190.617 386.293L201.519 375.391L192.944 366.816L182.042 377.718ZM202.635 385.776C203.971 384.185 205.87 381.865 207.505 379.727C208.315 378.667 209.124 377.569 209.782 376.588C210.108 376.102 210.455 375.558 210.762 375.008C210.981 374.616 211.526 373.626 211.831 372.404L196.874 368.665C197.092 367.79 197.414 367.288 197.3 367.491C197.274 367.538 197.178 367.701 196.975 368.004C196.575 368.601 195.985 369.41 195.257 370.362C193.815 372.249 192.078 374.373 190.832 375.856L202.635 385.776ZM211.831 372.404C212.155 371.111 215.778 358.232 217.635 351.655L202.797 347.465C201.004 353.817 197.272 367.073 196.874 368.665L211.831 372.404ZM217.709 347.506L213.202 329.029L198.224 332.683L202.73 351.159L217.709 347.506ZM213.159 328.858L210.687 319.647L195.796 323.642L198.267 332.854L213.159 328.858ZM209.334 316.864L202.72 308.046L190.386 317.297L196.999 326.115L209.334 316.864ZM196.19 304.782H195.355V320.199H196.19V304.782ZM298.924 318.731L301.387 325.503L315.876 320.234L313.414 313.462L298.924 318.731ZM300.991 323.794C301.217 325.908 301.554 329.118 301.833 331.926C301.973 333.333 302.096 334.62 302.184 335.611C302.29 336.805 302.302 337.133 302.302 336.978L317.72 336.978C317.72 335.938 317.427 332.935 317.175 330.401C316.891 327.541 316.55 324.291 316.321 322.153L300.991 323.794ZM302.302 336.978L302.302 352.396L317.72 352.396L317.72 336.978L302.302 336.978ZM302.358 351.468C302.188 352.865 301.982 355.035 301.92 357.063C301.889 358.057 301.887 359.216 301.983 360.309C302.03 360.848 302.117 361.559 302.301 362.314C302.44 362.879 302.836 364.383 303.991 365.827L316.03 356.196C316.576 356.878 316.868 357.5 317.011 357.845C317.163 358.212 317.241 358.502 317.278 358.652C317.348 358.939 317.351 359.074 317.341 358.958C317.322 358.741 317.308 358.27 317.33 357.535C317.374 356.105 317.531 354.42 317.664 353.323L302.358 351.468ZM303.991 365.827C303.574 365.306 303.398 364.916 303.497 365.109C303.531 365.173 303.61 365.335 303.736 365.62C303.987 366.183 304.305 366.96 304.662 367.873C305.37 369.683 306.121 371.748 306.592 373.09L321.138 367.979C320.627 366.524 319.813 364.282 319.021 362.256C318.628 361.251 318.212 360.228 317.825 359.358C317.633 358.926 317.418 358.462 317.191 358.024C317.031 357.714 316.628 356.944 316.03 356.196L303.991 365.827ZM306.779 373.571L308.032 376.493L322.203 370.42L320.951 367.498L306.779 373.571ZM309.085 369.04C307.909 370.478 306.18 372.56 304.654 374.327C303.885 375.218 303.212 375.977 302.707 376.519C302.45 376.795 302.289 376.958 302.212 377.032C301.958 377.277 302.361 376.836 303.097 376.394L311.029 389.615C311.987 389.041 312.73 388.308 312.912 388.133C313.271 387.787 313.642 387.4 313.987 387.03C314.687 386.278 315.506 385.35 316.324 384.403C317.97 382.496 319.793 380.301 321.021 378.8L309.085 369.04ZM303.097 376.394C301.828 377.156 300.612 378.308 300.036 378.86C299.262 379.601 298.509 380.383 297.989 380.941L309.27 391.451C309.652 391.04 310.195 390.479 310.702 389.993C310.956 389.749 311.155 389.569 311.29 389.455C311.356 389.399 311.378 389.383 311.36 389.396C311.356 389.4 311.237 389.49 311.029 389.615L303.097 376.394ZM305.428 378.953L302.957 378.193L298.423 392.929L300.894 393.69L305.428 378.953ZM307.518 382.331C307.139 381.423 306.622 380.104 306.238 378.957C306.042 378.372 305.925 377.963 305.872 377.736C305.844 377.621 305.861 377.667 305.881 377.828C305.891 377.914 305.91 378.09 305.914 378.331C305.918 378.555 305.914 378.975 305.824 379.511L290.616 376.976C290.414 378.191 290.519 379.228 290.577 379.703C290.649 380.292 290.762 380.836 290.865 381.273C291.072 382.152 291.353 383.06 291.619 383.854C292.158 385.465 292.822 387.15 293.293 388.278L307.518 382.331ZM305.824 379.511C306.024 378.314 305.902 377.253 305.884 377.07C305.842 376.636 305.778 376.204 305.717 375.836C305.594 375.087 305.418 374.198 305.227 373.289C304.843 371.46 304.315 369.139 303.814 366.915C303.302 364.637 302.814 362.438 302.468 360.684C302.294 359.802 302.175 359.121 302.106 358.647C301.998 357.889 302.115 358.276 302.037 359.058L286.695 357.524C286.56 358.873 286.763 360.265 286.845 360.839C286.968 361.697 287.146 362.675 287.341 363.663C287.732 365.65 288.265 368.043 288.772 370.299C289.292 372.61 289.784 374.767 290.137 376.453C290.315 377.3 290.436 377.928 290.504 378.341C290.539 378.554 290.544 378.614 290.54 378.57C290.537 378.547 290.525 378.424 290.521 378.235C290.519 378.109 290.509 377.62 290.616 376.976L305.824 379.511ZM302.037 359.058C302.203 357.396 302.186 352.847 302.16 349.11C302.131 344.962 302.075 341.04 302.075 339.699L286.657 339.699C286.657 341.078 286.715 345.318 286.742 349.219C286.756 351.221 286.763 353.178 286.753 354.762C286.748 355.555 286.738 356.228 286.725 356.752C286.709 357.341 286.693 357.55 286.695 357.524L302.037 359.058ZM302.075 339.699C302.075 340.09 302.061 339.745 302.464 338.065C302.789 336.711 303.237 335.066 303.715 333.366C304.166 331.76 304.688 329.952 305.048 328.648C305.234 327.976 305.412 327.313 305.548 326.751C305.615 326.473 305.69 326.147 305.752 325.819C305.785 325.645 305.929 324.911 305.929 324.054L290.511 324.054C290.511 323.612 290.553 323.285 290.566 323.189C290.583 323.056 290.599 322.97 290.602 322.954C290.608 322.924 290.6 322.971 290.561 323.129C290.487 323.439 290.363 323.905 290.188 324.54C289.826 325.85 289.384 327.373 288.872 329.196C288.386 330.925 287.87 332.809 287.472 334.467C287.153 335.798 286.657 337.947 286.657 339.699L302.075 339.699ZM305.929 324.054C305.929 325.5 305.503 326.538 305.392 326.808C305.226 327.207 305.068 327.472 305.019 327.554C304.918 327.722 304.891 327.737 305.043 327.543C305.321 327.187 305.811 326.619 306.496 325.873C307.837 324.413 309.535 322.697 310.827 321.43L300.03 310.424C298.641 311.787 296.735 313.709 295.142 315.442C294.361 316.293 293.55 317.21 292.897 318.046C292.582 318.449 292.181 318.987 291.821 319.583C291.643 319.878 291.386 320.333 291.152 320.895C290.973 321.327 290.511 322.501 290.511 324.054L305.929 324.054ZM217.223 223.511L214.203 217.848L200.599 225.104L203.619 230.766L217.223 223.511ZM199.082 219.71L196.656 229.415L211.613 233.154L214.04 223.449L199.082 219.71ZM197.026 228.316L192.996 237.72L207.167 243.794L211.197 234.39L197.026 228.316ZM192.336 240.936V249.485H207.754V240.936H192.336ZM195.007 255.524L197.223 257.539L207.595 246.13L205.379 244.116L195.007 255.524ZM202.714 259.661H204.806V244.244H202.714V259.661ZM204.806 259.661C206.92 259.661 208.409 258.806 208.987 258.436C209.666 258.001 210.133 257.552 210.368 257.313C210.846 256.825 211.165 256.372 211.294 256.183C211.592 255.75 211.826 255.33 211.959 255.083C212.259 254.531 212.578 253.87 212.875 253.229C213.489 251.908 214.228 250.2 214.933 248.495C215.64 246.788 216.349 244.994 216.895 243.497C217.165 242.758 217.423 242.013 217.624 241.352C217.723 241.026 217.834 240.638 217.927 240.234C217.984 239.988 218.183 239.138 218.183 238.122L202.765 238.122C202.765 237.612 202.821 237.234 202.842 237.096C202.869 236.923 202.895 236.806 202.904 236.769C202.921 236.697 202.919 236.716 202.875 236.861C202.789 237.142 202.636 237.595 202.41 238.216C201.964 239.44 201.341 241.018 200.687 242.6C200.032 244.182 199.383 245.677 198.891 246.736C198.636 247.286 198.473 247.61 198.4 247.745C198.348 247.842 198.423 247.691 198.595 247.441C198.661 247.344 198.925 246.961 199.357 246.521C199.568 246.305 200.014 245.874 200.675 245.451C201.234 245.093 202.706 244.244 204.806 244.244L204.806 259.661ZM218.183 238.122L218.183 227.352L202.765 227.352L202.765 238.122L218.183 238.122ZM286.603 221.503C287.691 223.842 290.876 230.811 292.567 234.519L306.595 228.12C304.914 224.436 301.7 217.404 300.581 214.998L286.603 221.503ZM292.248 233.698L294.947 242.019L309.612 237.262L306.914 228.941L292.248 233.698ZM294.593 239.781V242.021H310.011V239.781H294.593ZM296.614 236.996L291.433 242.393L302.555 253.071L307.736 247.673L296.614 236.996ZM296.667 240.162H294.424V255.58H296.667V240.162ZM300.955 244.258L297.713 237.557L283.834 244.273L287.076 250.973L300.955 244.258ZM298.401 239.995L297.284 228.83L281.943 230.364L283.06 241.53L298.401 239.995ZM296.391 225.85C296.42 225.905 296.413 225.897 296.395 225.851C296.378 225.805 296.379 225.798 296.39 225.846C296.397 225.878 296.447 226.095 296.446 226.461C296.445 226.812 296.398 227.556 296.01 228.461L281.839 222.388C280.608 225.259 281.069 228.004 281.358 229.272C281.7 230.773 282.256 232.091 282.731 233L296.391 225.85ZM296.01 228.461C296.006 228.47 296.108 228.249 296.393 227.701C296.646 227.215 296.968 226.615 297.33 225.953C298.051 224.631 298.88 223.154 299.519 222.028L286.109 214.42C284.936 216.487 282.542 220.747 281.839 222.388L296.01 228.461ZM247.224 48.9076L243.626 85.1157L258.968 86.6404L262.566 50.4323L247.224 48.9076ZM244.106 88.7889L247.524 97.9051L261.96 92.4915L258.542 83.3753L244.106 88.7889ZM260.3 91.2521L254.543 82.8637L241.831 91.5878L247.588 99.9762L260.3 91.2521ZM255.812 86.7192L255.136 67.1253L239.728 67.6567L240.403 87.2505L255.812 86.7192ZM255.089 66.4968L251.636 36.9293L236.322 38.7178L239.775 68.2852L255.089 66.4968ZM238.887 42.4533L248.902 54.3074L260.679 44.3575L250.665 32.5033L238.887 42.4533ZM292.779 317.705C292.779 360.686 289.936 398.904 282.56 426.155C278.866 439.803 274.199 450.056 268.701 456.76C263.398 463.226 257.52 466.216 250.606 466.216L250.606 481.634C262.965 481.634 272.959 475.881 280.622 466.537C288.09 457.431 293.484 444.806 297.442 430.184C305.371 400.894 308.197 361.002 308.197 317.705L292.779 317.705ZM250.606 466.216C243.693 466.216 237.815 463.226 232.512 456.76C227.013 450.056 222.347 439.803 218.652 426.155C211.276 398.904 208.434 360.686 208.434 317.705L193.016 317.705C193.016 361.002 195.842 400.894 203.77 430.184C207.728 444.806 213.123 457.431 220.59 466.537C228.254 475.881 238.248 481.634 250.606 481.634L250.606 466.216ZM208.434 317.705C208.434 275.137 213.954 236.91 222.678 209.586C227.055 195.88 232.103 185.348 237.343 178.407C242.679 171.338 247.239 169.195 250.606 169.195L250.606 153.777C240.199 153.777 231.637 160.376 225.038 169.117C218.342 177.987 212.641 190.332 207.991 204.896C198.662 234.113 193.016 273.996 193.016 317.705L208.434 317.705ZM250.606 169.195C253.974 169.195 258.534 171.338 263.87 178.407C269.11 185.348 274.158 195.88 278.534 209.586C287.259 236.91 292.779 275.137 292.779 317.705L308.197 317.705C308.197 273.996 302.55 234.113 293.222 204.896C288.571 190.332 282.871 177.987 276.175 169.117C269.576 160.376 261.014 153.777 250.606 153.777L250.606 169.195ZM194.865 309.636C197.505 316.502 201.323 325.956 204.964 333.943C206.776 337.916 208.613 341.68 210.289 344.62C211.119 346.076 212.007 347.504 212.92 348.706C213.377 349.308 213.933 349.978 214.583 350.604C215.167 351.167 216.196 352.06 217.641 352.679L223.714 338.508C224.71 338.935 225.241 339.463 225.284 339.504C225.392 339.609 225.364 339.6 225.199 339.382C224.868 338.946 224.36 338.171 223.683 336.985C222.348 334.641 220.734 331.366 218.993 327.547C215.53 319.952 211.837 310.814 209.256 304.102L194.865 309.636ZM217.641 352.679C219.905 353.65 225.791 356.492 232.012 359.366C235.006 360.749 238.018 362.109 240.473 363.134C241.691 363.642 242.871 364.11 243.892 364.463C244.398 364.638 244.961 364.819 245.525 364.964C245.942 365.071 246.943 365.319 248.112 365.319L248.112 349.902C248.622 349.902 248.99 349.96 249.119 349.982C249.203 349.996 249.265 350.009 249.302 350.017C249.34 350.025 249.362 350.031 249.366 350.032C249.372 350.034 249.338 350.025 249.257 350C249.178 349.975 249.071 349.94 248.934 349.893C248.355 349.692 247.512 349.365 246.413 348.906C244.234 347.996 241.435 346.735 238.478 345.369C232.795 342.744 226.211 339.578 223.714 338.508L217.641 352.679ZM248.112 365.319C249.244 365.319 251.466 365.101 253.551 364.88C255.877 364.633 258.739 364.303 261.567 363.96C266.922 363.311 273.003 362.521 274.499 362.188L271.154 347.138C271.217 347.124 270.961 347.174 270.149 347.294C269.447 347.399 268.52 347.528 267.429 347.674C265.251 347.967 262.493 348.317 259.712 348.654C256.928 348.991 254.15 349.312 251.927 349.548C250.813 349.666 249.865 349.759 249.139 349.823C248.3 349.895 248.038 349.902 248.112 349.902L248.112 365.319ZM274.499 362.188C276.438 361.757 277.714 360.68 277.931 360.505C278.407 360.119 278.794 359.729 279.051 359.457C279.583 358.895 280.115 358.244 280.592 357.633C281.574 356.375 282.766 354.709 284.051 352.847C286.64 349.092 289.866 344.155 293.023 339.183C296.185 334.204 299.322 329.123 301.738 325.063C302.943 323.039 303.994 321.226 304.788 319.786C305.183 319.071 305.543 318.394 305.837 317.801C306.043 317.385 306.493 316.473 306.766 315.515L291.942 311.28C292.102 310.718 292.261 310.472 292.022 310.957C291.869 311.264 291.628 311.722 291.287 312.341C290.61 313.569 289.655 315.22 288.489 317.178C286.165 321.082 283.109 326.034 280.008 330.918C276.901 335.809 273.792 340.565 271.359 344.094C270.131 345.873 269.14 347.247 268.437 348.147C268.268 348.365 268.129 348.536 268.021 348.665C267.968 348.729 267.926 348.777 267.895 348.812C267.864 348.848 267.849 348.863 267.85 348.863C267.851 348.862 267.857 348.855 267.869 348.842C267.881 348.83 267.901 348.811 267.928 348.785C267.977 348.739 268.079 348.643 268.228 348.523C268.236 348.516 269.342 347.54 271.154 347.138L274.499 362.188ZM306.766 315.515C306.723 315.666 306.598 316.091 306.349 316.614C306.281 316.759 305.47 318.637 303.348 319.894C301.979 320.705 300.032 321.262 297.848 320.803C295.844 320.381 294.541 319.29 293.874 318.592C292.701 317.364 292.273 316.074 292.208 315.888C291.852 314.882 291.844 314.064 291.892 314.639C291.927 315.049 291.966 315.958 291.995 317.438C292.051 320.298 292.057 324.578 292.031 329.531C291.979 339.41 291.8 351.708 291.649 360.063L307.064 360.341C307.216 351.954 307.397 339.583 307.449 329.612C307.475 324.641 307.47 320.2 307.41 317.137C307.381 315.656 307.336 314.304 307.256 313.35C307.247 313.244 307.174 311.969 306.746 310.755C306.662 310.517 306.215 309.191 305.023 307.943C304.347 307.235 303.034 306.138 301.019 305.714C298.825 305.253 296.869 305.812 295.489 306.629C293.347 307.898 292.515 309.804 292.425 309.994C292.155 310.563 292.007 311.05 291.942 311.28L306.766 315.515ZM292.866 356.166L286.197 366.17L299.025 374.722L305.695 364.718L292.866 356.166ZM288.605 363.912L262.518 378.979L270.229 392.33L296.316 377.263L288.605 363.912ZM266.731 378.03C261.106 377.579 252.385 376.772 244.41 375.815C240.417 375.336 236.681 374.827 233.642 374.316C230.374 373.767 228.566 373.316 227.995 373.095L222.429 387.473C224.659 388.336 227.939 388.992 231.085 389.521C234.461 390.088 238.464 390.63 242.573 391.123C250.801 392.111 259.731 392.936 265.497 393.399L266.731 378.03ZM227.995 373.095C224.978 371.927 219.001 368.96 213.563 366.002C210.893 364.549 208.52 363.189 206.864 362.161C206.011 361.631 205.49 361.277 205.244 361.092C205.094 360.98 205.229 361.067 205.473 361.31C205.584 361.421 205.919 361.762 206.276 362.295C206.489 362.613 207.527 364.153 207.527 366.453L192.109 366.453C192.109 368.824 193.183 370.452 193.466 370.875C193.893 371.512 194.331 371.973 194.579 372.221C195.095 372.736 195.631 373.156 195.998 373.43C196.783 374.019 197.752 374.651 198.731 375.259C200.738 376.505 203.395 378.022 206.195 379.545C211.698 382.539 218.418 385.92 222.429 387.473L227.995 373.095ZM207.527 366.453L207.527 359.159L192.109 359.159L192.109 366.453L207.527 366.453ZM205.402 364.289L206.497 363.194L195.594 352.292L194.5 353.387L205.402 364.289ZM197.726 362.757C197.718 362.752 197.727 362.758 197.78 362.793C197.814 362.815 197.898 362.871 197.962 362.914C198.115 363.014 198.315 363.146 198.559 363.304C199.048 363.619 199.697 364.029 200.499 364.512C202.101 365.476 204.302 366.72 207.041 368.072C212.513 370.771 220.174 373.917 229.557 376.1C248.417 380.488 274.13 380.943 302.593 366.311L295.544 352.598C246.446 377.838 207.81 350.916 206.091 349.806L197.726 362.757ZM300.561 366.999C300.042 367.092 298.914 367.136 297.655 366.481C296.44 365.85 295.858 364.96 295.653 364.561C295.401 364.072 295.676 364.344 295.653 366.155C295.611 369.408 294.698 373.935 293.762 377.237L308.595 381.442C309.691 377.578 311.003 371.562 311.07 366.353C311.101 363.933 310.902 360.493 309.357 357.497C308.505 355.844 307.072 354 304.766 352.801C302.415 351.58 299.955 351.442 297.827 351.825L300.561 366.999ZM293.496 378.623C291.947 393.612 288.58 412.622 283.364 428.732C280.753 436.797 277.765 443.859 274.476 449.257C271.102 454.796 267.919 457.745 265.298 458.885L271.448 473.023C278.32 470.034 283.586 463.94 287.644 457.278C291.787 450.476 295.216 442.179 298.032 433.481C303.671 416.066 307.206 395.937 308.832 380.208L293.496 378.623ZM262.731 460.65C258.544 464.905 254.956 466.332 252.154 466.68C249.254 467.04 246.303 466.352 243.319 464.886C240.308 463.407 237.58 461.288 235.349 459.274C234.25 458.281 233.318 457.358 232.534 456.573C232.167 456.205 231.759 455.794 231.425 455.468C231.193 455.244 230.587 454.649 229.904 454.157L220.897 466.671C220.515 466.395 220.343 466.198 220.674 466.52C220.901 466.741 221.182 467.024 221.622 467.465C222.453 468.298 223.612 469.449 225.017 470.718C227.793 473.224 231.725 476.369 236.522 478.725C241.346 481.094 247.352 482.813 254.055 481.98C260.856 481.136 267.517 477.77 273.722 471.462L262.731 460.65ZM231.106 455.347C219.415 440.678 211.783 419.355 207.455 400.228C205.314 390.766 204.037 382.094 203.46 375.425C203.17 372.083 203.064 369.335 203.096 367.296C203.134 364.915 203.357 364.373 203.203 364.794L188.724 359.497C187.891 361.774 187.717 364.686 187.68 367.054C187.638 369.765 187.779 373.061 188.099 376.755C188.74 384.157 190.129 393.521 192.417 403.631C196.948 423.65 205.231 447.619 219.048 464.957L231.106 455.347ZM203.203 364.794C203.753 363.292 204.19 362.442 204.447 362.022C204.734 361.554 204.641 361.875 203.992 362.332C203.236 362.865 201.706 363.563 199.704 363.25C197.812 362.954 196.531 361.912 195.827 361.049L207.778 351.307C206.636 349.906 204.739 348.432 202.085 348.017C199.323 347.585 196.887 348.478 195.113 349.727C192.051 351.884 190.147 355.606 188.724 359.497L203.203 364.794ZM226.974 195.322C226.91 195.833 226.817 196.018 227.011 195.383C227.147 194.938 227.357 194.304 227.65 193.459C228.233 191.777 229.055 189.514 230.065 186.752C232.071 181.272 234.761 173.988 237.505 166.116C242.887 150.676 248.889 131.861 250.115 119.52L234.773 117.995C233.759 128.2 228.442 145.274 222.946 161.041C220.251 168.774 217.611 175.923 215.587 181.453C214.583 184.197 213.715 186.584 213.081 188.413C212.765 189.325 212.486 190.162 212.269 190.869C212.111 191.386 211.802 192.404 211.677 193.393L226.974 195.322ZM250.115 119.52C250.358 117.077 250.535 114.36 250.699 111.685C250.865 108.959 251.017 106.275 251.211 103.693C251.406 101.11 251.632 98.7967 251.925 96.8701C252.236 94.8278 252.553 93.7149 252.74 93.2755C252.831 93.0608 252.711 93.4482 252.188 93.9949C251.574 94.6366 250.303 95.5732 248.427 95.7155C246.667 95.849 245.493 95.192 245.145 94.9646C244.815 94.7488 244.861 94.6926 245.259 95.1748C246.057 96.1416 247.342 98.1238 249.135 101.695C250.887 105.185 252.975 109.886 255.448 116.061L269.76 110.328C264.758 97.8389 260.71 89.6726 257.15 85.3599C256.201 84.2107 255.022 83.0006 253.576 82.056C252.112 81.0998 249.932 80.1391 247.262 80.3417C241.608 80.7705 239.252 85.5927 238.549 87.2487C237.589 89.5095 237.046 92.1683 236.683 94.5496C236.303 97.0466 236.042 99.8091 235.837 102.534C235.399 108.345 235.223 113.468 234.773 117.995L250.115 119.52ZM255.03 114.576L261.59 153.345L276.792 150.772L270.232 112.003L255.03 114.576ZM262.019 154.911L273.553 184.921L287.945 179.39L276.411 149.38L262.019 154.911ZM273.224 183.806L279.52 213.864L294.61 210.703L288.315 180.645L273.224 183.806ZM281.091 207.679L263.473 228.42L275.223 238.402L292.842 217.661L281.091 207.679ZM269.563 225.884C264.176 225.471 256.275 224.482 249.839 222.896C246.564 222.089 244.117 221.233 242.636 220.451C241.894 220.06 241.755 219.871 241.886 220.01C242.054 220.188 242.798 221.076 242.885 222.622L227.492 223.492C227.669 226.632 229.185 229.017 230.678 230.598C232.134 232.139 233.873 233.259 235.436 234.085C238.564 235.737 242.431 236.95 246.15 237.866C253.701 239.727 262.513 240.807 268.385 241.256L269.563 225.884ZM242.885 222.622C242.711 219.535 241.489 216.306 240.327 213.724C239.067 210.926 237.429 207.937 235.72 205.072C232.296 199.333 228.28 193.587 225.578 189.975L213.232 199.21C215.699 202.507 219.395 207.802 222.48 212.972C224.025 215.562 225.341 217.995 226.267 220.052C226.729 221.078 227.054 221.924 227.261 222.586C227.481 223.29 227.496 223.559 227.492 223.492L242.885 222.622ZM215.233 413.159C215.233 417.917 211.376 421.774 206.619 421.774L206.619 437.192C219.891 437.192 230.651 426.432 230.651 413.159L215.233 413.159ZM206.619 421.774C201.861 421.774 198.004 417.917 198.004 413.159L182.586 413.159C182.586 426.432 193.346 437.192 206.619 437.192L206.619 421.774ZM198.004 413.159C198.004 408.401 201.861 404.544 206.619 404.544L206.619 389.127C193.346 389.127 182.586 399.886 182.586 413.159L198.004 413.159ZM206.619 404.544C211.376 404.544 215.233 408.401 215.233 413.159L230.651 413.159C230.651 399.886 219.891 389.127 206.619 389.127L206.619 404.544ZM199.998 405.541C199.998 406.092 199.552 406.538 199.001 406.538L199.001 421.956C208.067 421.956 215.416 414.607 215.416 405.541L199.998 405.541ZM199.001 406.538C198.45 406.538 198.004 406.092 198.004 405.541L182.586 405.541C182.586 414.607 189.935 421.956 199.001 421.956L199.001 406.538ZM198.004 405.541C198.004 404.991 198.45 404.544 199.001 404.544L199.001 389.127C189.935 389.127 182.586 396.476 182.586 405.541L198.004 405.541ZM199.001 404.544C199.552 404.544 199.998 404.991 199.998 405.541L215.416 405.541C215.416 396.476 208.067 389.127 199.001 389.127L199.001 404.544ZM299.125 413.159C299.125 417.917 295.268 421.774 290.51 421.774L290.51 437.192C303.783 437.192 314.543 426.432 314.543 413.159L299.125 413.159ZM290.51 421.774C285.752 421.774 281.896 417.917 281.896 413.159L266.478 413.159C266.478 426.432 277.237 437.192 290.51 437.192L290.51 421.774ZM281.896 413.159C281.896 408.401 285.752 404.544 290.51 404.544L290.51 389.127C277.237 389.127 266.478 399.886 266.478 413.159L281.896 413.159ZM290.51 404.544C295.268 404.544 299.125 408.401 299.125 413.159L314.543 413.159C314.543 399.886 303.783 389.127 290.51 389.127L290.51 404.544ZM283.89 405.541C283.89 406.092 283.443 406.538 282.893 406.538L282.893 421.956C291.958 421.956 299.307 414.607 299.307 405.541L283.89 405.541ZM282.893 406.538C282.342 406.538 281.896 406.092 281.896 405.541L266.478 405.541C266.478 414.607 273.827 421.956 282.893 421.956L282.893 406.538ZM281.896 405.541C281.896 404.991 282.342 404.544 282.893 404.544L282.893 389.127C273.827 389.127 266.478 396.476 266.478 405.541L281.896 405.541ZM282.893 404.544C283.443 404.544 283.89 404.991 283.89 405.541L299.307 405.541C299.307 396.476 291.958 389.127 282.893 389.127L282.893 404.544ZM251.345 337.558C249.672 332.41 247.49 325.509 245.733 319.535C244.852 316.54 244.098 313.843 243.57 311.743C243.305 310.689 243.115 309.855 242.996 309.245C242.845 308.476 242.897 308.5 242.897 308.92L227.479 308.92C227.479 310.119 227.702 311.372 227.863 312.199C228.056 313.185 228.318 314.312 228.617 315.502C229.217 317.89 230.037 320.81 230.941 323.885C232.755 330.05 234.985 337.101 236.682 342.323L251.345 337.558ZM242.897 308.92L242.897 276.326L227.479 276.326L227.479 308.92L242.897 308.92ZM242.897 276.326C242.897 272.707 243.479 260.813 244.309 248.869C244.72 242.947 245.185 237.129 245.654 232.447C245.889 230.102 246.119 228.095 246.339 226.527C246.448 225.743 246.549 225.111 246.639 224.625C246.736 224.101 246.793 223.9 246.789 223.911L232.019 219.49C231.309 221.863 230.766 226.38 230.313 230.911C229.822 235.811 229.345 241.801 228.928 247.8C228.102 259.698 227.479 272.098 227.479 276.326L242.897 276.326ZM246.789 223.911C247.252 222.366 247.943 218.755 248.696 215.124C249.526 211.123 250.609 206.134 251.984 200.87C254.837 189.957 258.625 179.217 263.207 173.321L251.032 163.861C244.311 172.51 239.912 186.086 237.068 196.972C235.595 202.607 234.451 207.888 233.6 211.992C233.133 214.244 232.861 215.615 232.539 217.159C232.398 217.839 232.28 218.387 232.183 218.816C232.134 219.029 232.095 219.195 232.064 219.319C232.031 219.451 232.016 219.499 232.019 219.49L246.789 223.911ZM252.171 169.673L252.171 179.806L267.588 179.806L267.588 169.673L252.171 169.673ZM252.385 178.232L247.981 194.12L262.839 198.237L267.243 182.35L252.385 178.232ZM247.662 195.952L245.889 219.642L261.264 220.792L263.037 197.103L247.662 195.952ZM246.105 222.487C246.94 226.122 247.813 231.113 248.566 235.601C248.933 237.783 249.279 239.895 249.555 241.508C249.793 242.899 250.083 244.579 250.358 245.544L265.185 241.317C265.199 241.363 265.062 240.724 264.752 238.908C264.479 237.314 264.155 235.332 263.772 233.049C263.026 228.606 262.084 223.181 261.131 219.035L246.105 222.487ZM250.358 245.544C250.478 245.965 250.695 247.201 251.023 249.596C251.311 251.698 251.663 254.51 252.065 257.231C252.472 259.987 252.971 262.963 253.618 265.675C254.223 268.208 255.12 271.256 256.61 273.7L269.774 265.673C269.608 265.401 269.15 264.337 268.615 262.097C268.124 260.038 267.701 257.581 267.318 254.98C266.929 252.344 266.623 249.875 266.299 247.506C266.015 245.431 265.667 243.008 265.185 241.317L250.358 245.544ZM256.61 273.7C256.344 273.264 256.431 273.195 256.581 273.95C256.711 274.607 256.825 275.554 256.891 276.812C257.024 279.331 256.94 282.476 256.738 285.866C256.539 289.23 256.239 292.615 255.977 295.631C255.733 298.448 255.483 301.333 255.483 303.186L270.901 303.186C270.901 302.171 271.064 300.114 271.338 296.962C271.594 294.008 271.915 290.395 272.129 286.78C272.342 283.191 272.465 279.376 272.287 276.001C272.198 274.312 272.027 272.577 271.704 270.951C271.401 269.422 270.868 267.467 269.774 265.673L256.61 273.7ZM255.483 303.186C255.483 306.673 255.784 312.065 255.528 317.74C255.404 320.494 255.157 322.802 254.785 324.437C254.6 325.252 254.438 325.648 254.388 325.751C254.307 325.917 254.592 325.213 255.597 324.541L264.162 337.361C266.297 335.935 267.531 333.976 268.249 332.502C268.998 330.966 269.483 329.336 269.82 327.855C270.492 324.897 270.791 321.527 270.931 318.434C271.202 312.414 270.901 305.432 270.901 303.186L255.483 303.186ZM255.597 324.541C252.265 326.768 245.968 331.67 242.081 334.748L251.654 346.834C255.671 343.653 261.451 339.172 264.162 337.361L255.597 324.541ZM245.889 219.642C245.818 220.594 245.89 221.551 246.105 222.487L261.131 219.035C261.264 219.612 261.308 220.207 261.264 220.792L245.889 219.642ZM247.982 194.12C247.816 194.718 247.709 195.332 247.662 195.952L263.037 197.103C263.008 197.487 262.942 197.867 262.839 198.237L247.982 194.12ZM263.207 173.321C261.525 175.485 258.527 176.251 255.982 175.225C253.609 174.269 252.171 172.005 252.171 169.673L267.588 169.673C267.588 165.767 265.254 162.338 261.742 160.924C258.059 159.44 253.681 160.452 251.032 163.861L263.207 173.321ZM252.171 179.806C252.171 179.274 252.243 178.745 252.385 178.232L267.243 182.35C267.472 181.521 267.588 180.666 267.588 179.806L252.171 179.806ZM236.682 342.323C238.759 348.715 246.516 350.904 251.654 346.834L242.081 334.748C245.235 332.25 250.05 333.573 251.345 337.558L236.682 342.323ZM215.316 443.153L216.749 449.854L231.826 446.63L230.393 439.929L215.316 443.153ZM218.255 453.347L219.945 455.8L232.641 447.052L230.95 444.599L218.255 453.347ZM219.06 453.717C219.443 455.611 220.068 458.399 220.733 460.404C220.904 460.92 221.138 461.57 221.439 462.214C221.59 462.535 221.818 462.986 222.135 463.473C222.395 463.873 223.016 464.771 224.079 465.582C225.189 466.429 227.691 467.806 230.91 466.938C233.821 466.153 235.23 464.055 235.705 463.235C236.629 461.639 236.823 460 236.88 459.557L221.589 457.582C221.59 457.577 221.594 457.541 221.605 457.48C221.616 457.42 221.637 457.315 221.672 457.176C221.72 456.987 221.895 456.316 222.362 455.51C222.755 454.83 224.077 452.812 226.895 452.052C230.021 451.209 232.424 452.556 233.431 453.325C234.391 454.057 234.904 454.828 235.053 455.056C235.258 455.371 235.37 455.607 235.402 455.675C235.466 455.812 235.451 455.803 235.367 455.552C235.015 454.488 234.539 452.474 234.172 450.66L219.06 453.717ZM236.88 459.557C237.103 457.828 236.978 455.875 236.833 454.359C236.672 452.676 236.408 450.816 236.11 448.998C235.513 445.355 234.724 441.543 234.15 439.003L219.111 442.403C219.638 444.733 220.361 448.231 220.895 451.492C221.163 453.126 221.37 454.616 221.486 455.827C221.617 457.205 221.575 457.687 221.589 457.582L236.88 459.557ZM234.15 439.003C233.826 437.573 233.185 436.255 232.294 435.135L220.226 444.73C219.695 444.062 219.307 443.269 219.111 442.403L234.15 439.003ZM219.945 455.8C219.504 455.16 219.208 454.448 219.06 453.717L234.172 450.66C233.913 449.382 233.399 448.153 232.641 447.052L219.945 455.8ZM216.749 449.854C217.017 451.106 217.528 452.293 218.255 453.347L230.95 444.599C231.373 445.212 231.67 445.902 231.826 446.63L216.749 449.854ZM230.393 439.929C231.669 445.895 224.023 449.506 220.226 444.73L232.294 435.135C225.953 427.159 213.185 433.189 215.316 443.153L230.393 439.929ZM271.535 437.565L269.943 445.011L285.02 448.235L286.612 440.789L271.535 437.565ZM270.783 443.061L268.905 445.787L281.6 454.535L283.479 451.809L270.783 443.061ZM267.338 449.48C266.929 451.5 266.392 453.78 265.983 455.014C265.886 455.308 265.856 455.354 265.907 455.245C265.933 455.191 266.039 454.967 266.237 454.662C266.38 454.443 266.886 453.68 267.841 452.951C268.842 452.187 271.24 450.842 274.361 451.683C277.173 452.442 278.491 454.456 278.88 455.128C279.633 456.428 279.683 457.518 279.63 457.11L264.339 459.086C264.402 459.573 264.604 461.241 265.537 462.853C266.016 463.68 267.43 465.783 270.346 466.569C273.57 467.439 276.077 466.06 277.193 465.209C278.262 464.393 278.889 463.488 279.155 463.078C279.478 462.583 279.713 462.119 279.87 461.784C280.185 461.112 280.432 460.425 280.617 459.867C281.339 457.691 282.025 454.636 282.45 452.537L267.338 449.48ZM279.63 457.11C279.632 457.126 279.595 456.508 279.742 454.969C279.873 453.598 280.106 451.921 280.405 450.095C281.002 446.451 281.809 442.547 282.397 439.946L267.359 436.546C266.723 439.357 265.85 443.575 265.19 447.602C264.861 449.611 264.57 451.658 264.394 453.501C264.233 455.178 264.104 457.267 264.339 459.086L279.63 457.11ZM282.397 439.946C282.208 440.781 281.835 441.545 281.323 442.188L269.255 432.593C268.344 433.738 267.689 435.085 267.359 436.546L282.397 439.946ZM268.905 445.787C268.129 446.913 267.603 448.171 267.338 449.48L282.45 452.537C282.308 453.237 282.024 453.92 281.6 454.535L268.905 445.787ZM269.943 445.011C270.092 444.312 270.378 443.649 270.783 443.061L283.479 451.809C284.222 450.73 284.746 449.516 285.02 448.235L269.943 445.011ZM286.612 440.789C288.79 430.603 275.738 424.439 269.255 432.593L281.323 442.188C277.667 446.786 270.307 443.309 271.535 437.565L286.612 440.789ZM183.947 320.519L183.946 346.887L199.364 346.887L199.364 320.519L183.947 320.519ZM208.887 357.423L208.887 307.037L193.469 307.037L193.469 357.423L208.887 357.423ZM279.52 213.864C279.06 211.67 279.64 209.387 281.091 207.679L292.842 217.661C294.474 215.739 295.127 213.171 294.61 210.703L279.52 213.864ZM255.448 116.061C255.272 115.621 255.123 115.126 255.03 114.576L270.232 112.003C270.128 111.39 269.961 110.827 269.76 110.328L255.448 116.061ZM265.298 458.885C264.283 459.327 263.422 459.947 262.731 460.65L273.722 471.462C273.114 472.08 272.354 472.629 271.448 473.023L265.298 458.885ZM293.762 377.237C293.632 377.695 293.544 378.158 293.496 378.623L308.832 380.208C308.789 380.622 308.711 381.036 308.595 381.442L293.762 377.237ZM262.518 378.979C263.727 378.281 265.191 377.907 266.731 378.03L265.497 393.399C267.221 393.537 268.86 393.121 270.229 392.33L262.518 378.979ZM291.649 360.063C291.675 358.614 292.131 357.269 292.866 356.166L305.695 364.718C306.526 363.471 307.035 361.963 307.064 360.341L291.649 360.063ZM209.256 304.102C205.894 295.358 193.469 298.306 193.469 307.037L208.887 307.037C208.887 314.761 197.866 317.439 194.865 309.636L209.256 304.102ZM251.636 36.9293C252.47 44.0699 243.526 47.9448 238.887 42.4533L250.665 32.5033C245.445 26.3253 235.384 30.6846 236.322 38.7178L251.636 36.9293ZM254.543 82.8637C255.324 84.002 255.765 85.3395 255.812 86.7192L240.403 87.2505C240.457 88.8027 240.952 90.3073 241.831 91.5878L254.543 82.8637ZM247.524 97.9051C244.516 89.8845 255.453 84.1894 260.3 91.2521L247.588 99.9762C253.04 107.922 265.344 101.515 261.96 92.4915L247.524 97.9051ZM243.626 85.1157C243.502 86.3607 243.666 87.6175 244.106 88.7889L258.542 83.3753C258.932 84.4166 259.078 85.5337 258.968 86.6404L243.626 85.1157ZM262.566 50.4323C262.785 48.2355 262.104 46.0439 260.679 44.3575L248.902 54.3074C247.635 52.8084 247.03 50.8603 247.224 48.9076L262.566 50.4323ZM297.284 228.83C297.174 227.725 296.846 226.719 296.391 225.85L282.731 233C282.333 232.239 282.041 231.349 281.943 230.364L297.284 228.83ZM297.713 237.557C298.083 238.323 298.316 239.149 298.401 239.995L283.06 241.53C283.155 242.482 283.417 243.411 283.834 244.273L297.713 237.557ZM294.424 240.162C297.206 240.162 299.743 241.753 300.955 244.258L287.076 250.973C288.439 253.79 291.294 255.58 294.424 255.58V240.162ZM291.433 242.393C292.801 240.968 294.691 240.162 296.667 240.162V255.58C298.889 255.58 301.016 254.674 302.555 253.071L291.433 242.393ZM294.593 242.021C294.593 240.147 295.317 238.347 296.614 236.996L307.736 247.673C309.196 246.153 310.011 244.128 310.011 242.021H294.593ZM294.947 242.019C294.712 241.296 294.593 240.541 294.593 239.781H310.011C310.011 238.926 309.876 238.076 309.612 237.262L294.947 242.019ZM300.581 214.998C297.71 208.827 289.292 208.81 286.109 214.42L299.519 222.028C296.693 227.008 289.169 227.017 286.603 221.503L300.581 214.998ZM203.619 230.766C203.059 229.715 202.765 228.543 202.765 227.352L218.183 227.352C218.183 226.012 217.854 224.693 217.223 223.511L203.619 230.766ZM308.032 376.493C306.983 374.047 307.346 371.167 309.085 369.04L321.021 378.8C322.974 376.412 323.384 373.176 322.203 370.42L308.032 376.493ZM202.72 308.046C201.179 305.991 198.759 304.782 196.19 304.782V320.199C193.906 320.199 191.756 319.124 190.386 317.297L202.72 308.046ZM210.687 319.647C210.418 318.641 209.958 317.697 209.334 316.864L196.999 326.115C196.444 325.375 196.036 324.536 195.796 323.642L210.687 319.647ZM217.635 351.655C218.032 350.249 218.03 348.821 217.709 347.506L202.73 351.159C202.446 349.996 202.443 348.72 202.797 347.465L217.635 351.655ZM190.617 386.293C193.952 389.628 199.511 389.492 202.635 385.776L190.832 375.856C193.614 372.546 198.56 372.432 201.519 375.391L190.617 386.293ZM179.669 371.412C179.515 373.758 180.38 376.056 182.042 377.718L192.944 366.816C194.421 368.293 195.19 370.336 195.053 372.421L179.669 371.412ZM180.885 356.026C180.709 356.616 180.599 357.223 180.559 357.838L195.944 358.847C195.908 359.392 195.81 359.933 195.653 360.457L180.885 356.026ZM199.02 349.233C199.248 348.472 199.364 347.682 199.364 346.887L183.946 346.887C183.946 346.181 184.05 345.479 184.252 344.803L199.02 349.233ZM184.606 317.304C184.171 318.32 183.947 319.414 183.947 320.519L199.364 320.519C199.364 321.502 199.165 322.474 198.778 323.377L184.606 317.304ZM202.024 315.802C200.881 318.47 198.258 320.199 195.355 320.199V304.782C192.09 304.782 189.139 306.727 187.853 309.729L202.024 315.802ZM218.078 367.396C218.402 365.205 219.709 363.282 221.627 362.175L229.336 375.527C231.494 374.282 232.965 372.118 233.329 369.653L218.078 367.396ZM221.373 355.856C220.555 354.438 220.24 352.785 220.48 351.166L235.731 353.423C236.001 351.601 235.647 349.742 234.726 348.147L221.373 355.856ZM217.186 348.395C216.911 348.064 216.678 347.723 216.484 347.386L229.836 339.677C229.616 339.296 229.355 338.915 229.047 338.545L217.186 348.395ZM193.956 390.08C196.87 392.74 200.965 392.777 203.87 390.906L195.521 377.944C198.08 376.295 201.74 376.31 204.351 378.693L193.956 390.08ZM197.223 257.539C198.726 258.905 200.683 259.661 202.714 259.661V244.244C204.519 244.244 206.259 244.916 207.595 246.13L197.223 257.539ZM285.832 252.261C287.354 254.48 289.873 255.807 292.564 255.807V240.389C294.957 240.389 297.195 241.568 298.548 243.541L285.832 252.261ZM192.336 249.485C192.336 251.784 193.306 253.977 195.007 255.524L205.379 244.116C206.891 245.491 207.754 247.44 207.754 249.485H192.336ZM279.299 238.77C278.97 240.835 279.446 242.947 280.628 244.671L293.344 235.952C294.395 237.485 294.818 239.362 294.525 241.197L279.299 238.77ZM192.996 237.72C192.56 238.736 192.336 239.83 192.336 240.936H207.754C207.754 241.918 207.554 242.891 207.167 243.794L192.996 237.72ZM282.643 220.766C282.2 221.581 281.899 222.465 281.753 223.381L296.978 225.808C296.849 226.622 296.581 227.408 296.187 228.132L282.643 220.766ZM196.656 229.415C196.75 229.039 196.873 228.672 197.026 228.316L211.197 234.39C211.369 233.99 211.508 233.576 211.613 233.154L196.656 229.415ZM294.703 204.073C292.498 204.632 290.626 206.087 289.54 208.085L303.084 215.451C302.118 217.227 300.454 218.52 298.495 219.017L294.703 204.073ZM214.203 217.848C210.687 211.255 200.894 212.46 199.082 219.71L214.04 223.449C212.429 229.893 203.725 230.964 200.599 225.104L214.203 217.848ZM263.473 228.42C264.905 226.734 267.136 225.698 269.563 225.884L268.385 241.256C271.1 241.464 273.603 240.31 275.223 238.402L263.473 228.42ZM319.307 208.322C319.307 203 314.295 199.102 309.137 200.411L312.929 215.355C308.343 216.518 303.889 213.053 303.889 208.322H319.307ZM273.553 184.921C273.414 184.559 273.304 184.186 273.224 183.806L288.315 180.645C288.225 180.217 288.101 179.798 287.945 179.39L273.553 184.921ZM291.599 242.07C292.922 240.968 294.571 240.389 296.244 240.389V255.807C298.127 255.807 299.98 255.155 301.465 253.918L291.599 242.07ZM265.2 76.4503C265.2 75.991 265.243 75.5327 265.33 75.0817L280.471 77.99C280.569 77.4826 280.618 76.967 280.618 76.4503L265.2 76.4503ZM302.957 378.193C304.997 378.821 306.68 380.325 307.518 382.331L293.293 388.278C294.235 390.531 296.126 392.222 298.423 392.929L302.957 378.193ZM211.677 193.393C211.525 194.604 211.639 195.927 212.136 197.23C212.554 198.324 213.129 199.072 213.232 199.21L225.578 189.975C225.623 190.035 226.152 190.714 226.541 191.733C227.011 192.963 227.115 194.208 226.974 195.322L211.677 193.393ZM266.247 59.7761C265.562 58.6435 265.2 57.3452 265.2 56.0217L280.618 56.0217C280.618 54.5327 280.21 53.0721 279.44 51.798L266.247 59.7761ZM229.904 454.157C229.839 454.11 229.784 454.072 229.75 454.048C229.733 454.036 229.718 454.026 229.708 454.019C229.692 454.008 229.696 454.011 229.688 454.005C229.665 453.99 229.739 454.04 229.836 454.112C230.014 454.245 230.556 454.657 231.106 455.347L219.048 464.957C219.684 465.754 220.332 466.258 220.623 466.474C220.776 466.588 220.908 466.679 220.942 466.703C221.012 466.751 220.952 466.71 220.897 466.671L229.904 454.157ZM247.957 54.0584C250.245 57.5191 254.632 58.605 258.188 56.9609L251.718 42.9663C254.867 41.5108 258.777 42.4685 260.817 45.5544L247.957 54.0584ZM286.881 388.551C287.237 388.757 287.608 388.935 287.99 389.084L293.604 374.725C293.944 374.858 294.274 375.016 294.59 375.199L286.881 388.551ZM302.593 366.311C301.972 366.63 301.292 366.867 300.561 366.999L297.827 351.825C297.012 351.972 296.241 352.24 295.544 352.598L302.593 366.311ZM234.294 109.097C234.45 109.972 234.734 110.737 235.07 111.391L248.781 104.339C248.91 104.59 249.054 104.906 249.183 105.281C249.315 105.66 249.408 106.03 249.471 106.382L234.294 109.097ZM267.399 373.735C267.763 376.199 269.234 378.363 271.392 379.609L279.101 366.256C281.019 367.364 282.326 369.287 282.65 371.478L267.399 373.735ZM206.091 349.806C206.279 349.927 206.505 350.086 206.75 350.286C207.002 350.492 207.223 350.699 207.414 350.899C207.592 351.084 207.72 351.237 207.768 351.296C207.773 351.302 207.867 351.416 207.778 351.307L195.827 361.049C195.758 360.963 195.868 361.098 195.888 361.123C195.952 361.2 196.094 361.37 196.287 361.571C196.754 362.058 197.244 362.446 197.726 362.757L206.091 349.806ZM200.49 247.894C201.814 245.765 204.144 244.47 206.651 244.47V259.888C209.472 259.888 212.093 258.432 213.582 256.037L200.49 247.894ZM261.59 153.345C261.681 153.88 261.824 154.405 262.019 154.911L276.411 149.38C276.584 149.83 276.711 150.297 276.792 150.772L261.59 153.345ZM254.934 145.455C255.674 138.276 265.302 136.462 268.603 142.881L254.892 149.932C258.606 157.153 269.438 155.112 270.27 147.036L254.934 145.455ZM271.681 342.626C271.373 342.996 271.112 343.377 270.892 343.758L284.244 351.467C284.05 351.804 283.817 352.145 283.542 352.476L271.681 342.626ZM301.387 325.503C301.195 324.977 301.056 324.403 300.991 323.794L316.321 322.153C316.248 321.471 316.093 320.829 315.876 320.234L301.387 325.503ZM207.527 359.159C207.527 361.083 206.762 362.929 205.402 364.289L194.5 353.387C192.969 354.918 192.109 356.994 192.109 359.159L207.527 359.159ZM202.914 229.453C202.577 228.769 202.349 228.036 202.24 227.281L217.499 225.075C217.376 224.226 217.121 223.401 216.741 222.632L202.914 229.453ZM313.414 313.462C311.398 307.92 304.297 306.238 300.03 310.424L310.827 321.43C307.029 325.155 300.714 323.654 298.924 318.731L313.414 313.462ZM200.538 219.186C198.553 218.631 196.898 217.258 195.986 215.409L209.813 208.588C208.787 206.508 206.925 204.963 204.692 204.338L200.538 219.186ZM266.002 352.228C265.081 353.823 264.727 355.682 264.997 357.504L280.248 355.247C280.488 356.866 280.173 358.519 279.355 359.937L266.002 352.228ZM206.497 363.194C208.027 361.664 208.887 359.588 208.887 357.423L193.469 357.423C193.469 355.498 194.234 353.653 195.594 352.292L206.497 363.194ZM204.707 244.344C204.463 242.651 204.824 240.926 205.727 239.474L218.819 247.617C219.836 245.983 220.242 244.042 219.967 242.138L204.707 244.344ZM297.989 380.941C299.87 378.922 302.754 378.131 305.428 378.953L300.894 393.69C303.903 394.615 307.15 393.726 309.27 391.451L297.989 380.941ZM269.049 51.9398C265.694 53.491 261.709 52.2716 259.796 49.1085L272.989 41.1304C270.837 37.5718 266.354 36.2 262.579 37.9451L269.049 51.9398ZM298.283 380.904C300.451 378.926 303.414 378.56 305.821 379.501L300.207 393.861C302.935 394.927 306.25 394.505 308.673 392.295L298.283 380.904ZM286.197 366.17C286.815 365.242 287.639 364.47 288.605 363.912L296.316 377.263C297.402 376.635 298.329 375.766 299.025 374.722L286.197 366.17ZM197.467 257.739C198.994 259.142 200.972 259.888 202.985 259.888V244.47C204.773 244.47 206.534 245.133 207.895 246.383L197.467 257.739Z" fill="white" mask="url(#path-1-outside-1_621_8)"/>
</svg>
