<svg width="500" height="500" viewBox="0 0 500 500" fill="none" xmlns="http://www.w3.org/2000/svg">
<path d="M188.453 69.7224L187.66 70.2226L186.939 70.8207C177.037 79.0303 162.546 94.0076 149.815 113.193C137.103 132.349 125.509 156.658 122.744 183.392C119.477 214.972 123.779 254.81 130.553 288.704C133.965 305.779 138.081 321.734 142.378 334.813C146.478 347.296 151.289 358.916 156.697 365.881C157.968 367.518 159.014 370.283 159.926 376.528C160.108 377.773 160.291 379.251 160.494 380.892C161.131 386.054 161.967 392.824 163.608 398.993C165.99 407.949 170.355 417.498 179.205 425.977C187.909 434.315 200.002 440.709 216.36 445.159C246.12 453.255 276.544 459.496 301.337 459.094C325.199 458.706 351.186 451.704 359.113 425.401C361.131 418.704 363.967 410.913 367.235 401.931C367.755 400.503 368.286 399.045 368.826 397.557C372.68 386.933 376.886 375.087 380.37 362.936C387.156 339.272 392.14 311.509 384.081 287.473C376.947 266.194 358.701 234.392 343.005 207.181C342.354 206.051 341.705 204.927 341.061 203.811C333.725 191.098 326.918 179.302 321.642 169.444C318.775 164.088 316.478 159.522 314.845 155.848C314.03 154.017 313.438 152.534 313.035 151.377C312.609 150.152 312.517 149.633 312.519 149.648C310.946 139.483 306.353 125.009 302.403 112.559C302.12 111.668 301.841 110.787 301.566 109.919C299.4 103.078 297.433 96.7866 296.004 91.502C295.292 88.8702 294.762 86.6613 294.417 84.8849C294.246 84.0046 294.136 83.3064 294.07 82.7724C294.005 82.2396 294 81.9969 294 81.9838L294 81.9833C294 71.8792 289.165 61.203 283.661 53.5384C280.757 49.4963 277.136 45.5274 272.898 42.438C268.784 39.4395 263.008 36.5 256.125 36.5C252.707 36.5 249.454 37.4066 247.284 38.1053C244.808 38.9022 242.164 39.9647 239.537 41.1259C234.264 43.4556 228.182 46.5734 222.102 49.8847C209.898 56.5307 196.808 64.4471 188.453 69.7224Z" fill="#A2C8C5" stroke="white" stroke-width="29"/>
<path d="M163.25 351.75C158.917 337.5 150 308.65 149 307.25L144.25 285.75C150.583 291.667 163.25 303.8 163.25 305C163.25 306.5 188 345 188.75 347.25C189.5 349.5 214.5 384.25 225 389.5C235.5 394.75 266.25 399 278.5 399.25C290.75 399.5 301 390 310 389.5C319 389 336 379.5 347.25 377.5C356.25 375.9 363.667 366.167 366.25 361.5L355 394.75C352 404.333 345.7 424.55 344.5 428.75C343 434 339.25 433.25 336 437.75C332.75 442.25 298.5 446 295 446C291.5 446 224.25 434.5 208.5 428.75C195.9 424.15 186.083 414.5 182.75 410.25L170 361.5L163.25 351.75Z" fill="#8CADAB"/>
</svg>
