<svg width="1000" height="1000" viewBox="0 0 1000 1000" fill="none" xmlns="http://www.w3.org/2000/svg">
<path d="M376.905 139.445L375.321 140.445L373.878 141.641C354.073 158.061 325.092 188.015 299.63 226.385C274.206 264.698 251.019 313.317 245.488 366.784C238.954 429.943 247.559 509.62 261.105 577.408C267.929 611.557 276.162 643.468 284.755 669.627C292.956 694.592 302.578 717.831 313.395 731.763C315.936 735.035 318.028 740.565 319.853 753.055C320.217 755.545 320.582 758.502 320.987 761.783C322.262 772.108 323.933 785.647 327.215 797.985C331.98 815.898 340.709 834.997 358.41 851.954C375.817 868.63 400.004 881.419 432.719 890.318C492.239 906.509 553.087 918.992 602.673 918.187C650.398 917.413 702.372 903.409 718.226 850.801C722.262 837.409 727.934 821.825 734.471 803.862C735.51 801.006 736.571 798.09 737.651 795.113C745.36 773.865 753.772 750.173 760.74 725.872C774.312 678.544 784.279 623.018 768.162 574.945C753.894 532.388 717.401 468.783 686.011 414.362C684.707 412.102 683.41 409.855 682.122 407.622C667.45 382.197 653.836 358.605 643.283 338.888C637.55 328.176 632.957 319.044 629.689 311.697C628.061 308.034 626.876 305.069 626.07 302.754C625.218 300.303 625.033 299.266 625.038 299.295C621.892 278.966 612.707 250.018 604.806 225.118C604.241 223.336 603.682 221.574 603.132 219.838C598.8 206.156 594.866 193.573 592.008 183.004C590.584 177.74 589.523 173.323 588.833 169.77C588.492 168.009 588.271 166.613 588.14 165.545C588.01 164.479 588.001 163.994 588 163.968L588 163.967C588 143.758 578.33 122.406 567.321 107.077C561.515 98.9926 554.272 91.0548 545.795 84.876C537.568 78.879 526.015 73 512.249 73C505.413 73 498.908 74.8132 494.567 76.2107C489.616 77.8044 484.329 79.9294 479.073 82.2518C468.528 86.9113 456.364 93.1469 444.204 99.7694C419.797 113.061 393.617 128.894 376.905 139.445Z" fill="#A2C8C5" stroke="white" stroke-width="58"/>
<path d="M326.5 703.5C317.833 675 300 617.3 298 614.5L288.5 571.5C301.167 583.333 326.5 607.6 326.5 610C326.5 613 376 690 377.5 694.5C379 699 429 768.5 450 779C471 789.5 532.5 798 557 798.5C581.5 799 602 780 620 779C638 778 672 759 694.5 755C712.5 751.8 727.333 732.333 732.5 723L710 789.5C704 808.667 691.4 849.1 689 857.5C686 868 678.5 866.5 672 875.5C665.5 884.5 597 892 590 892C583 892 448.5 869 417 857.5C391.8 848.3 372.167 829 365.5 820.5L340 723L326.5 703.5Z" fill="#8CADAB"/>
</svg>
