<svg width="501" height="501" viewBox="0 0 501 501" fill="none" xmlns="http://www.w3.org/2000/svg">
<mask id="path-1-outside-1_428_1261" maskUnits="userSpaceOnUse" x="132.172" y="17.6875" width="237" height="467" fill="black">
<rect fill="white" x="132.172" y="17.6875" width="237" height="467"/>
<path d="M172.122 216.29C172.122 220.032 178.203 233.956 187.228 242.244C187.311 242.321 187.42 242.362 187.533 242.362H191.199C191.355 242.362 191.501 242.281 191.584 242.148L196.821 233.728C196.877 233.638 196.9 233.53 196.884 233.424L194.417 216.361C194.41 216.314 194.396 216.268 194.375 216.225L187.447 202.181C187.39 202.066 187.286 201.98 187.162 201.945L172.122 197.738L172.122 216.29Z"/>
<path d="M235.089 107.387C235.067 107.345 235.054 107.307 235.046 107.261C233.846 100.556 219.736 72.6984 219.736 66.1278C219.736 59.5364 221.604 25.3433 228.33 27.8151C233.624 29.7602 243.208 42.7608 247.55 49.3279C247.674 49.5153 247.913 49.5794 248.117 49.4851L258.977 44.4639C259.187 44.367 259.436 44.4432 259.556 44.6409L266.007 55.3085C266.049 55.3793 266.072 55.4604 266.072 55.5431L266.072 75.9718C266.072 76.0005 266.069 76.0291 266.064 76.0573L259.346 111.032L255.765 145.767C255.719 146.216 255.117 146.329 254.911 145.928L235.089 107.387Z"/>
<path d="M304.761 224.039C304.761 227.424 298.695 240.02 289.695 247.516C289.614 247.583 289.512 247.619 289.407 247.619H285.728C285.578 247.619 285.438 247.546 285.354 247.422L280.149 239.833C280.084 239.737 280.057 239.62 280.076 239.505L282.529 224.116C282.537 224.065 282.554 224.016 282.578 223.971L289.475 211.289C289.536 211.178 289.639 211.098 289.762 211.067L304.196 207.404C304.483 207.331 304.761 207.548 304.761 207.844V224.039Z"/>
<path d="M356.635 309.395C364.634 322.739 347.653 353.152 339.278 366.232C339.186 366.377 339.023 366.449 338.852 366.43L325.815 364.979C325.792 364.976 325.77 364.972 325.748 364.966L308.472 360.337C308.338 360.301 308.228 360.206 308.173 360.079L301.652 345.023C301.611 344.929 301.604 344.825 301.63 344.726L304.161 335.279C304.168 335.254 304.176 335.231 304.187 335.208C309.064 324.607 319.174 302.734 320.718 299.771C322.65 296.064 331.118 286.361 339.226 285.013C347.333 283.664 346.578 292.616 356.635 309.395Z"/>
<path d="M143.553 325.865C143.298 341.4 175.472 360.543 189.324 367.721C189.506 367.815 189.719 367.77 189.857 367.618L198.063 358.572L210.734 345.901C210.832 345.803 210.88 345.665 210.864 345.528L208.983 329.229C208.972 329.127 208.926 329.032 208.854 328.96L201.938 322.045C201.92 322.027 201.901 322.011 201.881 321.996C192.356 315.254 172.665 301.366 169.846 299.572C166.319 297.327 154.134 293.159 146.439 296.045C138.743 298.931 143.873 306.306 143.553 325.865Z"/>
<path d="M184.819 320.041C184.819 319.979 184.831 319.919 184.855 319.862L188.102 312.287C188.173 312.12 188.337 312.012 188.519 312.012H189.353C189.496 312.012 189.631 312.079 189.716 312.193L196.33 321.011C196.364 321.058 196.39 321.11 196.405 321.166L198.876 330.377L203.383 348.854C203.401 348.93 203.401 349.006 203.379 349.081C201.554 355.546 197.876 368.613 197.516 370.056C197.168 371.448 195.818 369.125 193.506 371.538C193.335 371.716 193.055 371.746 192.863 371.591L181.586 362.483C181.48 362.397 181.418 362.267 181.418 362.13V357.879C181.418 357.835 181.424 357.791 181.437 357.748L184.8 346.539C184.812 346.497 184.819 346.453 184.819 346.409L184.819 320.041Z"/>
<path d="M292.744 230.841C291.058 227.145 287.859 220.144 286.755 217.772C286.602 217.444 286.156 217.431 285.977 217.746C284.675 220.04 282.575 223.809 282.088 224.946C281.56 226.176 282.268 228.073 282.725 228.946C282.753 229 282.771 229.058 282.777 229.119L283.893 240.284C283.899 240.337 283.913 240.389 283.937 240.436L287.179 247.137C287.254 247.293 287.413 247.393 287.587 247.393H289.83C289.953 247.393 290.072 247.342 290.157 247.253L295.339 241.856C295.42 241.772 295.465 241.659 295.465 241.542V239.302C295.465 239.255 295.457 239.207 295.443 239.162L292.744 230.841Z"/>
<path d="M244.487 85.6036C244.462 85.5385 244.453 85.4687 244.46 85.3995L248.059 49.1914C248.071 49.0694 248.033 48.9476 247.954 48.8539L237.939 36.9998C237.649 36.6565 237.09 36.8987 237.142 37.345L240.595 66.9125L241.271 86.5063C241.274 86.5925 241.301 86.6761 241.35 86.7473L247.107 95.1356C247.41 95.5771 248.093 95.2211 247.905 94.7198L244.487 85.6036Z"/>
<path d="M293.651 317.227C293.651 403.505 282.314 473.447 243.77 473.447C205.225 473.447 193.888 403.505 193.888 317.227C193.888 230.949 216.221 161.007 243.77 161.007C271.318 161.007 293.651 230.949 293.651 317.227Z"/>
<path d="M213.841 345.115C210.246 343.574 200.445 319.968 195.224 306.391C195.043 305.92 194.342 306.055 194.342 306.559L194.342 356.944C194.342 357.064 194.294 357.18 194.209 357.265L193.114 358.36C193.029 358.445 192.981 358.56 192.981 358.68L192.981 365.975C192.981 367.108 211.347 377.085 218.375 379.805C223.976 381.973 247.885 384.321 259.278 385.236C259.369 385.243 259.457 385.222 259.536 385.176L285.624 370.109C285.684 370.074 285.735 370.026 285.774 369.968L292.444 359.963C292.492 359.891 292.518 359.81 292.52 359.723C292.822 342.982 293.241 310.386 292.517 312.919C291.61 316.093 268.03 353.731 265.99 354.184C263.949 354.638 243.77 357.132 241.276 357.132C238.781 357.132 218.602 347.156 213.841 345.115Z"/>
<path d="M292.357 358.933C292.315 358.941 292.27 358.956 292.232 358.976C239.092 386.294 197.052 357.082 195.071 355.803C195.021 355.77 195.004 355.746 194.966 355.699C194.089 354.624 191.789 354.39 189.127 361.667C186.411 369.09 192.732 427.666 218.24 459.674C218.326 459.781 218.452 459.855 218.564 459.935C220.966 461.664 240.606 486.704 261.39 465.577C261.431 465.535 261.482 465.499 261.536 465.476C280.523 457.216 291.153 409.655 294.327 378.937C294.33 378.911 294.335 378.887 294.342 378.861C296.373 371.695 298.793 357.774 292.357 358.933Z"/>
<path d="M235.607 118.279C233.367 140.825 212.971 190.057 212.489 193.879C212.477 193.976 212.51 194.035 212.568 194.114C217.737 201.023 227.991 216.196 228.352 222.578C228.712 228.954 250.878 232.229 262.137 233.092C262.282 233.103 262.417 233.043 262.511 232.933L280.13 212.191C280.221 212.085 280.257 211.942 280.228 211.805L273.933 181.747C273.928 181.723 273.921 181.7 273.912 181.677L262.378 151.667C262.367 151.639 262.359 151.61 262.354 151.58L255.795 112.811C255.789 112.779 255.779 112.746 255.767 112.716C235.608 62.3923 237.42 100.032 235.607 118.279Z"/>
<path d="M228.352 308.441C228.352 311.556 233.807 329.092 237.177 339.462C237.568 340.665 239.039 341.099 240.031 340.313C243.982 337.183 250.021 332.491 253.043 330.473C257.559 327.455 256.355 308.441 256.355 302.707C256.355 296.973 259.667 274.64 256.355 269.208C253.043 263.776 252.139 247.177 250.935 242.952C250.412 241.116 248.569 228.064 246.781 220.282C246.74 220.103 246.726 219.922 246.74 219.738L248.513 196.049C248.522 195.931 248.542 195.814 248.574 195.7L252.977 179.812C253.021 179.654 253.043 179.492 253.043 179.328V169.195C253.043 167.619 251.25 166.868 250.283 168.112C238.98 182.658 233.908 216.743 232.567 221.222C230.761 227.258 228.352 268.001 228.352 275.847V308.441Z"/>
<path d="M217.451 447.763L216.018 441.062C215.59 439.064 218.151 437.854 219.423 439.454C219.603 439.68 219.73 439.942 219.794 440.224C220.895 445.095 222.817 454.844 222.398 458.091C221.981 461.313 220.529 455.418 219.779 451.71C219.724 451.437 219.615 451.178 219.456 450.948L217.766 448.494C217.614 448.274 217.507 448.025 217.451 447.763Z"/>
<path d="M270.645 446.144L272.237 438.699C272.712 436.478 269.866 435.134 268.453 436.912C268.253 437.163 268.112 437.454 268.041 437.767C266.818 443.179 264.682 454.011 265.148 457.62C265.61 461.2 267.224 454.649 268.057 450.53C268.119 450.226 268.24 449.938 268.416 449.683L270.294 446.957C270.463 446.711 270.582 446.435 270.645 446.144Z"/>
<path d="M201.37 416.99L196.217 400.633C196.178 400.509 196.194 400.375 196.26 400.263L197.384 398.391C197.466 398.254 197.613 398.171 197.773 398.171H201.2C201.31 398.171 201.415 398.21 201.497 398.282C203.356 399.912 207.01 403.18 207.719 404.066C208.441 404.969 209.673 410.889 210.206 413.776C210.211 413.803 210.213 413.829 210.213 413.857V421.751C210.213 422.568 207.759 425.655 206.167 427.53C205.947 427.79 205.53 427.717 205.407 427.399L201.37 416.99Z"/>
<path d="M282.995 418.804L288.148 402.447C288.187 402.323 288.171 402.188 288.104 402.077L286.981 400.205C286.899 400.068 286.752 399.985 286.592 399.985H283.165C283.055 399.985 282.95 400.024 282.868 400.096C281.009 401.726 277.355 404.994 276.646 405.88C275.924 406.783 274.692 412.703 274.159 415.59C274.154 415.617 274.152 415.643 274.152 415.671V423.565C274.152 424.382 276.606 427.469 278.197 429.344C278.418 429.604 278.835 429.531 278.958 429.213L282.995 418.804Z"/>
</mask>
<path d="M172.122 216.29C172.122 220.032 178.203 233.956 187.228 242.244C187.311 242.321 187.42 242.362 187.533 242.362H191.199C191.355 242.362 191.501 242.281 191.584 242.148L196.821 233.728C196.877 233.638 196.9 233.53 196.884 233.424L194.417 216.361C194.41 216.314 194.396 216.268 194.375 216.225L187.447 202.181C187.39 202.066 187.286 201.98 187.162 201.945L172.122 197.738L172.122 216.29Z" fill="#6A6666"/>
<path d="M235.089 107.387C235.067 107.345 235.054 107.307 235.046 107.261C233.846 100.556 219.736 72.6984 219.736 66.1278C219.736 59.5364 221.604 25.3433 228.33 27.8151C233.624 29.7602 243.208 42.7608 247.55 49.3279C247.674 49.5153 247.913 49.5794 248.117 49.4851L258.977 44.4639C259.187 44.367 259.436 44.4432 259.556 44.6409L266.007 55.3085C266.049 55.3793 266.072 55.4604 266.072 55.5431L266.072 75.9718C266.072 76.0005 266.069 76.0291 266.064 76.0573L259.346 111.032L255.765 145.767C255.719 146.216 255.117 146.329 254.911 145.928L235.089 107.387Z" fill="#6A6666"/>
<path d="M304.761 224.039C304.761 227.424 298.695 240.02 289.695 247.516C289.614 247.583 289.512 247.619 289.407 247.619H285.728C285.578 247.619 285.438 247.546 285.354 247.422L280.149 239.833C280.084 239.737 280.057 239.62 280.076 239.505L282.529 224.116C282.537 224.065 282.554 224.016 282.578 223.971L289.475 211.289C289.536 211.178 289.639 211.098 289.762 211.067L304.196 207.404C304.483 207.331 304.761 207.548 304.761 207.844V224.039Z" fill="#6A6666"/>
<path d="M356.635 309.395C364.634 322.739 347.653 353.152 339.278 366.232C339.186 366.377 339.023 366.449 338.852 366.43L325.815 364.979C325.792 364.976 325.77 364.972 325.748 364.966L308.472 360.337C308.338 360.301 308.228 360.206 308.173 360.079L301.652 345.023C301.611 344.929 301.604 344.825 301.63 344.726L304.161 335.279C304.168 335.254 304.176 335.231 304.187 335.208C309.064 324.607 319.174 302.734 320.718 299.771C322.65 296.064 331.118 286.361 339.226 285.013C347.333 283.664 346.578 292.616 356.635 309.395Z" fill="#6A6666"/>
<path d="M143.553 325.865C143.298 341.4 175.472 360.543 189.324 367.721C189.506 367.815 189.719 367.77 189.857 367.618L198.063 358.572L210.734 345.901C210.832 345.803 210.88 345.665 210.864 345.528L208.983 329.229C208.972 329.127 208.926 329.032 208.854 328.96L201.938 322.045C201.92 322.027 201.901 322.011 201.881 321.996C192.356 315.254 172.665 301.366 169.846 299.572C166.319 297.327 154.134 293.159 146.439 296.045C138.743 298.931 143.873 306.306 143.553 325.865Z" fill="#6A6666"/>
<path d="M184.819 320.041C184.819 319.979 184.831 319.919 184.855 319.862L188.102 312.287C188.173 312.12 188.337 312.012 188.519 312.012H189.353C189.496 312.012 189.631 312.079 189.716 312.193L196.33 321.011C196.364 321.058 196.39 321.11 196.405 321.166L198.876 330.377L203.383 348.854C203.401 348.93 203.401 349.006 203.379 349.081C201.554 355.546 197.876 368.613 197.516 370.056C197.168 371.448 195.818 369.125 193.506 371.538C193.335 371.716 193.055 371.746 192.863 371.591L181.586 362.483C181.48 362.397 181.418 362.267 181.418 362.13V357.879C181.418 357.835 181.424 357.791 181.437 357.748L184.8 346.539C184.812 346.497 184.819 346.453 184.819 346.409L184.819 320.041Z" fill="#5E5E5E"/>
<path d="M292.744 230.841C291.058 227.145 287.859 220.144 286.755 217.772C286.602 217.444 286.156 217.431 285.977 217.746C284.675 220.04 282.575 223.809 282.088 224.946C281.56 226.176 282.268 228.073 282.725 228.946C282.753 229 282.771 229.058 282.777 229.119L283.893 240.284C283.899 240.337 283.913 240.389 283.937 240.436L287.179 247.137C287.254 247.293 287.413 247.393 287.587 247.393H289.83C289.953 247.393 290.072 247.342 290.157 247.253L295.339 241.856C295.42 241.772 295.465 241.659 295.465 241.542V239.302C295.465 239.255 295.457 239.207 295.443 239.162L292.744 230.841Z" fill="#5E5E5E"/>
<path d="M244.487 85.6036C244.462 85.5385 244.453 85.4687 244.46 85.3995L248.059 49.1914C248.071 49.0694 248.033 48.9476 247.954 48.8539L237.939 36.9998C237.649 36.6565 237.09 36.8987 237.142 37.345L240.595 66.9125L241.271 86.5063C241.274 86.5925 241.301 86.6761 241.35 86.7473L247.107 95.1356C247.41 95.5771 248.093 95.2211 247.905 94.7198L244.487 85.6036Z" fill="#5E5E5E"/>
<path d="M293.651 317.227C293.651 403.505 282.314 473.447 243.77 473.447C205.225 473.447 193.888 403.505 193.888 317.227C193.888 230.949 216.221 161.007 243.77 161.007C271.318 161.007 293.651 230.949 293.651 317.227Z" fill="#8C8888"/>
<path d="M213.841 345.115C210.246 343.574 200.445 319.968 195.224 306.391C195.043 305.92 194.342 306.055 194.342 306.559L194.342 356.944C194.342 357.064 194.294 357.18 194.209 357.265L193.114 358.36C193.029 358.445 192.981 358.56 192.981 358.68L192.981 365.975C192.981 367.108 211.347 377.085 218.375 379.805C223.976 381.973 247.885 384.321 259.278 385.236C259.369 385.243 259.457 385.222 259.536 385.176L285.624 370.109C285.684 370.074 285.735 370.026 285.774 369.968L292.444 359.963C292.492 359.891 292.518 359.81 292.52 359.723C292.822 342.982 293.241 310.386 292.517 312.919C291.61 316.093 268.03 353.731 265.99 354.184C263.949 354.638 243.77 357.132 241.276 357.132C238.781 357.132 218.602 347.156 213.841 345.115Z" fill="#7C7C7C"/>
<path d="M292.357 358.933C292.315 358.941 292.27 358.956 292.232 358.976C239.092 386.294 197.052 357.082 195.071 355.803C195.021 355.77 195.004 355.746 194.966 355.699C194.089 354.624 191.789 354.39 189.127 361.667C186.411 369.09 192.732 427.666 218.24 459.674C218.326 459.781 218.452 459.855 218.564 459.935C220.966 461.664 240.606 486.704 261.39 465.577C261.431 465.535 261.482 465.499 261.536 465.476C280.523 457.216 291.153 409.655 294.327 378.937C294.33 378.911 294.335 378.887 294.342 378.861C296.373 371.695 298.793 357.774 292.357 358.933Z" fill="#808080"/>
<path d="M235.607 118.279C233.367 140.825 212.971 190.057 212.489 193.879C212.477 193.976 212.51 194.035 212.568 194.114C217.737 201.023 227.991 216.196 228.352 222.578C228.712 228.954 250.878 232.229 262.137 233.092C262.282 233.103 262.417 233.043 262.511 232.933L280.13 212.191C280.221 212.085 280.257 211.942 280.228 211.805L273.933 181.747C273.928 181.723 273.921 181.7 273.912 181.677L262.378 151.667C262.367 151.639 262.359 151.61 262.354 151.58L255.795 112.811C255.789 112.779 255.779 112.746 255.767 112.716C235.608 62.3923 237.42 100.032 235.607 118.279Z" fill="#8C8888"/>
<path d="M228.352 308.441C228.352 311.556 233.807 329.092 237.177 339.462C237.568 340.665 239.039 341.099 240.031 340.313C243.982 337.183 250.021 332.491 253.043 330.473C257.559 327.455 256.355 308.441 256.355 302.707C256.355 296.973 259.667 274.64 256.355 269.208C253.043 263.776 252.139 247.177 250.935 242.952C250.412 241.116 248.569 228.064 246.781 220.282C246.74 220.103 246.726 219.922 246.74 219.738L248.513 196.049C248.522 195.931 248.542 195.814 248.574 195.7L252.977 179.812C253.021 179.654 253.043 179.492 253.043 179.328V169.195C253.043 167.619 251.25 166.868 250.283 168.112C238.98 182.658 233.908 216.743 232.567 221.222C230.761 227.258 228.352 268.001 228.352 275.847V308.441Z" fill="#777777"/>
<path d="M217.451 447.763L216.018 441.062C215.59 439.064 218.151 437.854 219.423 439.454C219.603 439.68 219.73 439.942 219.794 440.224C220.895 445.095 222.817 454.844 222.398 458.091C221.981 461.313 220.529 455.418 219.779 451.71C219.724 451.437 219.615 451.178 219.456 450.948L217.766 448.494C217.614 448.274 217.507 448.025 217.451 447.763Z" fill="#6F6F6F"/>
<path d="M270.645 446.144L272.237 438.699C272.712 436.478 269.866 435.134 268.453 436.912C268.253 437.163 268.112 437.454 268.041 437.767C266.818 443.179 264.682 454.011 265.148 457.62C265.61 461.2 267.224 454.649 268.057 450.53C268.119 450.226 268.24 449.938 268.416 449.683L270.294 446.957C270.463 446.711 270.582 446.435 270.645 446.144Z" fill="#6F6F6F"/>
<path d="M201.37 416.99L196.217 400.633C196.178 400.509 196.194 400.375 196.26 400.263L197.384 398.391C197.466 398.254 197.613 398.171 197.773 398.171H201.2C201.31 398.171 201.415 398.21 201.497 398.282C203.356 399.912 207.01 403.18 207.719 404.066C208.441 404.969 209.673 410.889 210.206 413.776C210.211 413.803 210.213 413.829 210.213 413.857V421.751C210.213 422.568 207.759 425.655 206.167 427.53C205.947 427.79 205.53 427.717 205.407 427.399L201.37 416.99Z" fill="#956A6A"/>
<path d="M201.37 416.99L196.217 400.633C196.178 400.509 196.194 400.375 196.26 400.263L197.384 398.391C197.466 398.254 197.613 398.171 197.773 398.171H201.2C201.31 398.171 201.415 398.21 201.497 398.282C203.356 399.912 207.01 403.18 207.719 404.066C208.441 404.969 209.673 410.889 210.206 413.776C210.211 413.803 210.213 413.829 210.213 413.857V421.751C210.213 422.568 207.759 425.655 206.167 427.53C205.947 427.79 205.53 427.717 205.407 427.399L201.37 416.99Z" fill="#626262"/>
<path d="M282.995 418.804L288.148 402.447C288.187 402.323 288.171 402.188 288.104 402.077L286.981 400.205C286.899 400.068 286.752 399.985 286.592 399.985H283.165C283.055 399.985 282.95 400.024 282.868 400.096C281.009 401.726 277.355 404.994 276.646 405.88C275.924 406.783 274.692 412.703 274.159 415.59C274.154 415.617 274.152 415.643 274.152 415.671V423.565C274.152 424.382 276.606 427.469 278.197 429.344C278.418 429.604 278.835 429.531 278.958 429.213L282.995 418.804Z" fill="#956A6A"/>
<path d="M282.995 418.804L288.148 402.447C288.187 402.323 288.171 402.188 288.104 402.077L286.981 400.205C286.899 400.068 286.752 399.985 286.592 399.985H283.165C283.055 399.985 282.95 400.024 282.868 400.096C281.009 401.726 277.355 404.994 276.646 405.88C275.924 406.783 274.692 412.703 274.159 415.59C274.154 415.617 274.152 415.643 274.152 415.671V423.565C274.152 424.382 276.606 427.469 278.197 429.344C278.418 429.604 278.835 429.531 278.958 429.213L282.995 418.804Z" fill="#626262"/>
<path d="M177.11 216.29C177.11 214.785 177.11 211.38 177.11 207.735C177.11 204.089 177.11 200.203 177.11 197.738L167.133 197.738C167.133 200.203 167.133 204.089 167.133 207.735C167.133 211.38 167.133 214.785 167.133 216.29L177.11 216.29ZM172.122 216.29L162.145 216.29L172.122 216.29ZM172.122 197.738L174.809 188.131L162.145 184.588L162.145 197.738L172.122 197.738ZM219.736 66.1278L229.712 66.1278L219.736 66.1278ZM228.33 27.8151L224.889 37.1791L228.33 27.8151ZM259.346 111.032L249.549 109.15L249.467 109.577L249.422 110.009L259.346 111.032ZM304.761 224.039L314.737 224.039V224.039H304.761ZM356.635 309.395L348.078 314.524L348.078 314.524L356.635 309.395ZM320.718 299.771L329.565 304.382L329.565 304.382L320.718 299.771ZM143.553 325.865L153.528 326.029L153.528 326.029L143.553 325.865ZM169.846 299.572L164.49 307.989L164.49 307.989L169.846 299.572ZM198.063 358.572L191.009 351.517L190.837 351.689L190.674 351.869L198.063 358.572ZM197.516 370.056L207.194 372.475L197.516 370.056ZM198.876 330.377L208.568 328.013L208.541 327.903L208.512 327.792L198.876 330.377ZM292.744 230.841L302.234 227.763L302.058 227.22L301.821 226.701L292.744 230.841ZM282.088 224.946L272.918 221.016L282.088 224.946ZM240.595 66.9125L250.566 66.5687L250.552 66.1607L250.504 65.7552L240.595 66.9125ZM213.841 345.115L217.771 335.945L217.771 335.945L213.841 345.115ZM292.517 312.919L282.925 310.178L282.925 310.178L292.517 312.919ZM218.375 379.805L221.977 370.502L221.977 370.502L218.375 379.805ZM192.981 365.975L183.005 365.975L183.005 365.975L192.981 365.975ZM189.127 361.667L179.758 358.239L189.127 361.667ZM235.607 118.279L245.535 119.266L235.607 118.279ZM228.352 222.578L218.391 223.141L228.352 222.578ZM237.177 339.462L246.664 336.378L246.664 336.378L237.177 339.462ZM228.352 308.441L238.328 308.441V308.441H228.352ZM228.352 275.847L218.375 275.847V275.847H228.352ZM232.567 221.222L223.01 218.362L223.01 218.362L232.567 221.222ZM250.283 168.112L242.405 161.991L242.405 161.991L250.283 168.112ZM253.043 169.195L243.066 169.195V169.195H253.043ZM253.043 179.328L263.019 179.328V179.328H253.043ZM252.977 179.812L243.363 177.148L243.363 177.148L252.977 179.812ZM248.574 195.7L258.188 198.364L258.188 198.364L248.574 195.7ZM248.513 196.049L238.564 195.305L238.564 195.305L248.513 196.049ZM246.74 219.738L256.689 220.483L256.689 220.483L246.74 219.738ZM246.781 220.282L237.058 222.516L237.058 222.516L246.781 220.282ZM250.935 242.952L241.341 245.687L241.341 245.687L250.935 242.952ZM253.043 330.473L258.585 338.768L258.585 338.768L253.043 330.473ZM240.031 340.313L233.837 332.493L233.837 332.493L240.031 340.313ZM216.018 441.062L206.262 443.149L206.262 443.149L216.018 441.062ZM217.451 447.763L227.206 445.677L227.206 445.677L217.451 447.763ZM217.766 448.494L209.551 454.155L209.551 454.155L217.766 448.494ZM219.456 450.948L227.671 445.287L227.671 445.287L219.456 450.948ZM219.779 451.71L229.557 449.732L229.557 449.732L219.779 451.71ZM222.398 458.091L232.292 459.369L232.292 459.369L222.398 458.091ZM219.794 440.224L229.524 438.024L229.524 438.024L219.794 440.224ZM219.423 439.454L211.615 445.663L211.615 445.663L219.423 439.454ZM272.237 438.699L281.993 440.785L281.993 440.785L272.237 438.699ZM270.645 446.144L280.4 448.23L280.4 448.23L270.645 446.144ZM270.294 446.957L262.08 441.296L262.08 441.296L270.294 446.957ZM268.416 449.683L276.631 455.343L276.631 455.343L268.416 449.683ZM268.057 450.53L277.836 452.508L277.836 452.508L268.057 450.53ZM265.148 457.62L255.254 458.898L255.254 458.898L265.148 457.62ZM268.041 437.767L277.772 439.967L277.772 439.967L268.041 437.767ZM268.453 436.912L260.644 430.703L260.644 430.703L268.453 436.912ZM201.37 416.99L191.855 419.988L191.952 420.296L192.069 420.597L201.37 416.99ZM207.719 404.066L215.509 397.834L207.719 404.066ZM282.995 418.804L292.296 422.41L292.413 422.109L292.51 421.802L282.995 418.804ZM276.646 405.88L268.856 399.648L276.646 405.88ZM282.868 400.096L276.291 392.594L282.868 400.096ZM197.384 398.391L188.829 393.258L197.384 398.391ZM205.407 427.399L196.105 431.006L205.407 427.399ZM206.167 427.53L213.773 433.986L206.167 427.53ZM262.511 232.933L270.114 239.391L262.511 232.933ZM262.137 233.092L262.899 223.144L262.137 233.092ZM280.228 211.805L270.464 213.85L280.228 211.805ZM280.13 212.191L272.527 205.733L280.13 212.191ZM273.912 181.677L283.224 178.098L273.912 181.677ZM273.933 181.747L264.168 183.792L273.933 181.747ZM262.354 151.58L252.518 153.244L262.354 151.58ZM262.378 151.667L271.69 148.088L262.378 151.667ZM255.767 112.716L265.028 109.006L255.767 112.716ZM255.795 112.811L265.631 111.147L255.795 112.811ZM212.489 193.879L202.591 192.631L212.489 193.879ZM212.568 194.114L204.58 200.09L212.568 194.114ZM218.564 459.935L224.392 451.838L218.564 459.935ZM218.24 459.674L210.438 465.891L218.24 459.674ZM261.536 465.476L257.556 456.328L261.536 465.476ZM261.39 465.577L268.501 472.574L261.39 465.577ZM294.342 378.861L284.744 376.141L294.342 378.861ZM294.327 378.937L284.404 377.912L294.327 378.937ZM292.232 358.976L287.671 350.103L292.232 358.976ZM292.357 358.933L294.126 368.752L292.357 358.933ZM195.071 355.803L200.484 347.423L195.071 355.803ZM194.966 355.699L187.233 362.003L194.966 355.699ZM194.209 357.265L187.154 350.211L194.209 357.265ZM194.342 356.944L184.365 356.944L194.342 356.944ZM192.981 358.68L183.005 358.68L192.981 358.68ZM193.114 358.36L186.06 351.305L193.114 358.36ZM259.536 385.176L264.526 393.815L259.536 385.176ZM259.278 385.236L260.076 375.292L259.278 385.236ZM285.774 369.968L294.075 375.502L285.774 369.968ZM285.624 370.109L280.634 361.47L285.624 370.109ZM292.52 359.723L282.545 359.543L292.52 359.723ZM292.444 359.963L284.143 354.43L292.444 359.963ZM195.224 306.391L204.536 302.81L195.224 306.391ZM194.342 306.559L184.365 306.559L194.342 306.559ZM237.142 37.345L227.233 38.5023L237.142 37.345ZM237.939 36.9998L245.56 30.5616L237.939 36.9998ZM247.905 94.7198L257.247 91.2169L247.905 94.7198ZM247.107 95.1356L238.881 100.781L247.107 95.1356ZM283.937 240.436L274.956 244.782L283.937 240.436ZM283.893 240.284L293.82 239.291L283.893 240.284ZM287.179 247.137L296.159 242.792L287.179 247.137ZM189.716 312.193L181.735 318.179L189.716 312.193ZM196.405 321.166L206.04 318.581L196.405 321.166ZM196.33 321.011L204.311 315.026L196.33 321.011ZM286.981 400.205L295.536 395.072L286.981 400.205ZM203.379 349.081L212.98 351.792L203.379 349.081ZM203.383 348.854L193.69 351.218L203.383 348.854ZM192.863 371.591L199.132 363.83L192.863 371.591ZM193.506 371.538L186.302 364.636L193.506 371.538ZM274.159 415.59L264.349 413.778L274.159 415.59ZM181.586 362.483L187.855 354.722L181.586 362.483ZM181.437 357.748L190.992 360.615L181.437 357.748ZM278.958 429.213L288.26 432.82L278.958 429.213ZM278.197 429.344L270.592 435.8L278.197 429.344ZM184.8 346.539L194.355 349.406L184.8 346.539ZM184.819 346.409L174.842 346.409L184.819 346.409ZM184.855 319.862L194.025 323.792L184.855 319.862ZM184.819 320.041L194.795 320.041L184.819 320.041ZM288.148 402.447L297.663 405.445L288.148 402.447ZM288.104 402.077L296.659 396.944L288.104 402.077ZM188.102 312.287L197.272 316.217L188.102 312.287ZM201.497 398.282L208.074 390.78L201.497 398.282ZM210.864 345.528L200.954 346.671L210.864 345.528ZM210.734 345.901L203.68 338.846L210.734 345.901ZM208.854 328.96L215.908 321.906L208.854 328.96ZM208.983 329.229L199.073 330.372L208.983 329.229ZM210.206 413.776L200.395 415.587L210.206 413.776ZM201.881 321.996L207.644 313.853L201.881 321.996ZM201.938 322.045L194.884 329.099L201.938 322.045ZM196.217 400.633L205.732 397.635L196.217 400.633ZM196.26 400.263L204.815 405.396L196.26 400.263ZM189.324 367.721L193.914 358.863L189.324 367.721ZM189.857 367.618L197.247 374.32L189.857 367.618ZM285.354 247.422L293.581 241.781L285.354 247.422ZM280.076 239.505L270.224 237.935L280.076 239.505ZM280.149 239.833L288.377 234.191L280.149 239.833ZM282.578 223.971L273.814 219.204L282.578 223.971ZM282.529 224.116L272.677 222.545L282.529 224.116ZM289.762 211.067L287.308 201.397L289.762 211.067ZM289.475 211.289L280.711 206.523L289.475 211.289ZM304.196 207.404L301.742 197.734L304.196 207.404ZM289.695 247.516L283.311 239.85L289.695 247.516ZM244.46 85.3995L254.388 86.3861L244.46 85.3995ZM244.487 85.6036L235.146 89.1065L244.487 85.6036ZM266.072 75.9718L276.048 75.9718L276.048 75.9718L266.072 75.9718ZM266.064 76.0573L275.861 77.9392L266.064 76.0573ZM248.059 49.1914L238.131 48.2049L248.059 49.1914ZM247.954 48.8539L255.574 42.4157L247.954 48.8539ZM266.007 55.3085L257.47 60.4708L266.007 55.3085ZM266.072 55.5431L276.048 55.5431L266.072 55.5431ZM282.777 229.119L292.704 228.126L282.777 229.119ZM282.725 228.946L291.563 224.32L282.725 228.946ZM247.55 49.3279L255.872 43.8253L247.55 49.3279ZM248.117 49.4851L243.93 40.4297L248.117 49.4851ZM325.748 364.966L323.166 374.602L325.748 364.966ZM325.815 364.979L324.711 374.894L325.815 364.979ZM290.157 247.253L282.96 240.344L290.157 247.253ZM235.046 107.261L225.225 109.018L235.046 107.261ZM235.089 107.387L226.217 111.949L235.089 107.387ZM308.173 360.079L317.328 356.114L308.173 360.079ZM308.472 360.337L311.054 350.701L308.472 360.337ZM295.339 241.856L302.535 248.765L295.339 241.856ZM191.584 242.148L183.112 236.879L191.584 242.148ZM241.35 86.7473L233.125 92.3923L241.35 86.7473ZM241.271 86.5063L231.301 86.8501L241.271 86.5063ZM255.765 145.767L265.689 146.79L255.765 145.767ZM254.911 145.928L246.039 150.491L254.911 145.928ZM304.187 335.208L295.124 331.038L304.187 335.208ZM304.161 335.279L294.525 332.697L304.161 335.279ZM194.375 216.225L185.428 220.639L194.375 216.225ZM194.417 216.361L184.543 217.789L194.417 216.361ZM286.755 217.772L295.8 213.563L286.755 217.772ZM285.977 217.746L294.654 222.669L285.977 217.746ZM187.162 201.945L189.85 192.338L187.162 201.945ZM187.447 202.181L178.5 206.595L187.447 202.181ZM301.63 344.726L291.994 342.144L301.63 344.726ZM301.652 345.023L292.498 348.988L301.652 345.023ZM295.443 239.162L304.932 236.084L295.443 239.162ZM196.884 233.424L187.011 234.852L196.884 233.424ZM258.977 44.4639L263.164 53.5193L258.977 44.4639ZM259.556 44.6409L251.019 49.8032L259.556 44.6409ZM339.278 366.232L347.68 371.611L339.278 366.232ZM338.852 366.43L339.955 356.515L338.852 366.43ZM187.228 242.244L180.481 249.592L187.228 242.244ZM193.976 234.896C190.565 231.764 187.42 227.248 185.101 222.882C183.965 220.744 183.123 218.822 182.592 217.358C181.922 215.51 182.098 215.351 182.098 216.29L162.145 216.29C162.145 219.1 163.082 222.085 163.834 224.159C164.726 226.618 165.968 229.396 167.481 232.243C170.458 237.847 174.867 244.437 180.481 249.592L193.976 234.896ZM169.434 207.346L184.475 211.553L189.85 192.338L174.809 188.131L169.434 207.346ZM178.5 206.595L185.428 220.639L203.322 211.811L196.394 197.768L178.5 206.595ZM184.543 217.789L187.011 234.852L206.758 231.996L204.291 214.933L184.543 217.789ZM188.349 228.459L183.112 236.879L200.055 247.417L205.292 238.997L188.349 228.459ZM191.199 232.386H187.533V252.338H191.199V232.386ZM182.098 216.29L182.098 197.738L162.145 197.738L162.145 216.29L182.098 216.29ZM244.866 105.504C244.344 102.588 242.77 98.5587 241.385 95.1622C239.854 91.4074 237.913 86.9417 236.118 82.7309C234.278 78.4164 232.566 74.3152 231.32 70.9343C230.697 69.2424 230.244 67.8768 229.96 66.8477C229.619 65.6141 229.712 65.5378 229.712 66.1278L209.759 66.1278C209.759 68.3605 210.294 70.5921 210.729 72.1658C211.221 73.944 211.88 75.8852 212.598 77.8337C214.036 81.7338 215.926 86.248 217.764 90.5575C219.646 94.9706 221.458 99.1373 222.91 102.697C223.63 104.463 224.213 105.961 224.637 107.163C225.106 108.487 225.226 109.021 225.225 109.018L244.866 105.504ZM229.712 66.1278C229.712 63.2638 230.151 53.5463 231.385 44.9976C232.017 40.6149 232.762 37.2602 233.48 35.3641C233.888 34.285 233.924 34.6765 233.166 35.4525C232.703 35.9265 231.68 36.809 230.022 37.312C228.21 37.862 226.385 37.7288 224.889 37.1791L231.772 18.451C229.435 17.5924 226.808 17.4366 224.229 18.2191C221.805 18.9546 220.051 20.3247 218.893 21.5101C216.746 23.7086 215.532 26.4175 214.82 28.2994C213.296 32.3252 212.312 37.4673 211.637 42.1478C210.255 51.7256 209.759 62.4004 209.759 66.1278L229.712 66.1278ZM224.889 37.1791C224.242 36.9413 224.62 36.9413 226.153 38.3704C227.445 39.5755 228.98 41.2446 230.637 43.2305C233.941 47.1888 237.202 51.7661 239.228 54.8304L255.872 43.8253C253.555 40.3226 249.854 35.1161 245.956 30.446C244.013 28.1178 241.888 25.7616 239.759 23.7767C237.87 22.0159 235.065 19.6614 231.772 18.451L224.889 37.1791ZM252.303 58.5405L263.164 53.5193L254.791 35.4086L243.93 40.4297L252.303 58.5405ZM251.019 49.8032L257.47 60.4708L274.543 50.1462L268.093 39.4786L251.019 49.8032ZM256.096 55.5431L256.096 75.9718L276.048 75.9718L276.048 55.5431L256.096 55.5431ZM256.267 74.1754L249.549 109.15L269.143 112.914L275.861 77.9392L256.267 74.1754ZM249.422 110.009L245.842 144.744L265.689 146.79L269.269 112.055L249.422 110.009ZM263.783 141.365L243.96 102.824L226.217 111.949L246.039 150.491L263.783 141.365ZM296.079 255.182C301.728 250.477 306.187 244.441 309.211 239.279C310.745 236.66 312.016 234.087 312.936 231.785C313.686 229.911 314.737 226.948 314.737 224.039L294.785 224.039C294.785 222.823 295.078 222.704 294.409 224.378C293.911 225.625 293.103 227.303 291.995 229.194C289.737 233.049 286.662 237.059 283.311 239.85L296.079 255.182ZM314.737 224.039V207.844H294.785V224.039H314.737ZM301.742 197.734L287.308 201.397L292.216 220.736L306.65 217.074L301.742 197.734ZM280.711 206.523L273.814 219.204L291.342 228.737L298.239 216.056L280.711 206.523ZM272.677 222.545L270.224 237.935L289.927 241.076L292.381 225.687L272.677 222.545ZM271.922 245.475L277.126 253.064L293.581 241.781L288.377 234.191L271.922 245.475ZM285.728 257.596H289.407V237.643H285.728V257.596ZM347.68 371.611C352.033 364.812 358.752 353.325 363.38 341.566C365.688 335.701 367.64 329.364 368.379 323.267C369.099 317.328 368.825 310.327 365.192 304.266L348.078 314.524C348.445 315.135 349.048 316.94 348.572 320.865C348.115 324.633 346.798 329.218 344.814 334.259C340.857 344.313 334.898 354.572 330.877 360.852L347.68 371.611ZM365.192 304.266C360.345 296.18 358.86 291.424 356.124 285.947C355.003 283.704 353.158 280.307 349.904 277.888C345.978 274.969 341.568 274.51 337.589 275.172L340.863 294.854C340.937 294.842 339.473 294.995 338 293.9C337.199 293.305 337.314 292.941 338.275 294.865C339.702 297.722 342.868 305.831 348.078 314.524L365.192 304.266ZM337.589 275.172C330.686 276.32 324.79 280.639 320.955 284.117C317.036 287.67 313.555 291.93 311.871 295.16L329.565 304.382C329.553 304.404 329.653 304.217 329.93 303.817C330.192 303.441 330.547 302.967 330.995 302.422C331.896 301.325 333.054 300.08 334.357 298.898C337.266 296.26 339.658 295.054 340.863 294.854L337.589 275.172ZM311.871 295.16C310.177 298.41 299.906 320.645 295.124 331.038L313.25 339.378C318.223 328.57 328.17 307.058 329.565 304.382L311.871 295.16ZM294.525 332.697L291.994 342.144L311.267 347.308L313.798 337.861L294.525 332.697ZM292.498 348.988L299.018 364.044L317.328 356.114L310.807 341.058L292.498 348.988ZM305.89 369.973L323.166 374.602L328.33 355.33L311.054 350.701L305.89 369.973ZM324.711 374.894L337.748 376.345L339.955 356.515L326.919 355.064L324.711 374.894ZM193.914 358.863C187.271 355.421 176.363 349.165 167.297 342.07C162.747 338.51 159.01 335.006 156.51 331.807C153.864 328.42 153.519 326.549 153.528 326.029L133.578 325.702C133.459 332.949 137.041 339.296 140.788 344.092C144.683 349.076 149.807 353.719 155 357.783C165.421 365.938 177.525 372.843 184.734 376.578L193.914 358.863ZM153.528 326.029C153.694 315.895 152.381 307.29 152.188 304.101C152.059 301.955 152.34 302.213 151.944 303.129C151.216 304.814 149.871 305.412 149.941 305.386L142.936 286.704C139.158 288.12 135.569 290.723 133.628 295.214C132.02 298.935 132.121 302.8 132.272 305.303C132.641 311.414 133.732 316.276 133.578 325.702L153.528 326.029ZM149.941 305.386C151.085 304.957 153.759 304.806 157.597 305.636C159.317 306.007 160.942 306.506 162.271 307.006C162.931 307.254 163.476 307.487 163.891 307.682C164.331 307.89 164.511 308.002 164.49 307.989L175.202 291.155C172.129 289.2 166.984 287.252 161.814 286.134C156.754 285.039 149.488 284.247 142.936 286.704L149.941 305.386ZM164.49 307.989C167.036 309.609 186.406 323.265 196.117 330.139L207.644 313.853C198.306 307.243 178.294 293.123 175.202 291.155L164.49 307.989ZM194.884 329.099L201.799 336.014L215.908 321.906L208.993 314.99L194.884 329.099ZM199.073 330.372L200.954 346.671L220.775 344.384L218.894 328.085L199.073 330.372ZM203.68 338.846L191.009 351.517L205.118 365.626L217.789 352.955L203.68 338.846ZM190.674 351.869L182.468 360.915L197.247 374.32L205.452 365.274L190.674 351.869ZM178.932 308.357L175.686 315.932L194.025 323.792L197.272 316.217L178.932 308.357ZM175.244 343.673L171.881 354.882L190.992 360.615L194.355 349.406L175.244 343.673ZM171.441 357.879V362.13H191.394V357.879H171.441ZM175.318 370.244L186.595 379.352L199.132 363.83L187.855 354.722L175.318 370.244ZM200.71 378.44C200.386 378.778 199.516 379.542 198.043 380.004C196.528 380.479 195.25 380.356 194.701 380.27C194.593 380.253 194.524 380.239 194.549 380.244C194.573 380.249 194.572 380.248 194.637 380.261C194.683 380.271 194.765 380.287 194.859 380.305C195.038 380.338 196.285 380.597 197.806 380.484C199.698 380.344 202.237 379.621 204.378 377.489C206.252 375.623 206.927 373.543 207.194 372.475L187.837 367.636C188.017 366.917 188.574 365.069 190.298 363.352C191.202 362.452 192.27 361.748 193.43 361.272C194.553 360.812 195.571 360.643 196.329 360.587C197.066 360.532 197.648 360.577 197.965 360.612C198.284 360.646 198.513 360.69 198.548 360.696C198.574 360.701 198.586 360.703 198.559 360.698C198.552 360.697 198.477 360.682 198.425 360.671C198.298 360.646 198.069 360.602 197.794 360.558C196.575 360.367 194.504 360.203 192.075 360.965C189.687 361.713 187.782 363.092 186.302 364.636L200.71 378.44ZM207.194 372.475C207.193 372.479 207.198 372.461 207.211 372.412C207.222 372.367 207.238 372.307 207.259 372.23C207.3 372.076 207.354 371.877 207.421 371.632C207.554 371.143 207.73 370.504 207.941 369.745C208.361 368.229 208.909 366.269 209.505 364.144C210.695 359.897 212.069 355.021 212.98 351.792L193.778 346.371C191.994 352.689 188.246 366 187.837 367.636L207.194 372.475ZM213.075 346.49L208.568 328.013L189.184 332.741L193.69 351.218L213.075 346.49ZM208.512 327.792L206.04 318.581L186.769 323.751L189.241 332.963L208.512 327.792ZM204.311 315.026L197.697 306.208L181.735 318.179L188.349 326.997L204.311 315.026ZM189.353 302.036H188.519V321.988H189.353V302.036ZM277.71 221.981C278.794 224.311 281.975 231.27 283.667 234.981L301.821 226.701C300.142 223.02 296.924 215.978 295.8 213.563L277.71 221.981ZM283.254 233.919L285.953 242.24L304.932 236.084L302.234 227.763L283.254 233.919ZM285.489 239.302V241.542H305.441V239.302H285.489ZM288.142 234.947L282.96 240.344L297.354 254.162L302.535 248.765L288.142 234.947ZM289.83 237.416H287.587V257.369H289.83V237.416ZM296.159 242.792L292.917 236.091L274.956 244.782L278.198 251.482L296.159 242.792ZM293.82 239.291L292.704 228.126L272.85 230.111L273.967 241.277L293.82 239.291ZM291.563 224.32C291.654 224.494 291.706 224.611 291.764 224.863C291.798 225.013 291.878 225.406 291.877 225.987C291.876 226.549 291.798 227.614 291.257 228.876L272.918 221.016C271.403 224.551 271.986 227.873 272.31 229.297C272.704 231.024 273.338 232.526 273.886 233.573L291.563 224.32ZM291.257 228.876C291.217 228.971 291.282 228.817 291.567 228.27C291.811 227.802 292.125 227.217 292.483 226.561C293.197 225.254 294.019 223.788 294.654 222.669L277.3 212.823C276.165 214.822 273.684 219.228 272.918 221.016L291.257 228.876ZM238.131 48.2049L234.533 84.413L254.388 86.3861L257.986 50.178L238.131 48.2049ZM235.146 89.1065L238.564 98.2227L257.247 91.2169L253.828 82.1007L235.146 89.1065ZM255.333 89.4906L249.576 81.1023L233.125 92.3923L238.881 100.781L255.333 89.4906ZM251.241 86.1625L250.566 66.5687L230.625 67.2563L231.301 86.8501L251.241 86.1625ZM250.504 65.7552L247.051 36.1878L227.233 38.5023L230.686 68.0697L250.504 65.7552ZM230.318 43.438L240.333 55.2922L255.574 42.4157L245.56 30.5616L230.318 43.438ZM283.675 317.227C283.675 360.161 280.83 398.133 273.535 425.084C269.879 438.588 265.32 448.492 260.111 454.844C255.155 460.887 249.883 463.47 243.77 463.47L243.77 483.423C256.929 483.423 267.528 477.264 275.538 467.496C283.296 458.037 288.797 445.064 292.794 430.297C300.804 400.708 303.627 360.57 303.627 317.227L283.675 317.227ZM243.77 463.47C237.656 463.47 232.384 460.887 227.428 454.844C222.219 448.492 217.66 438.588 214.004 425.084C206.709 398.133 203.864 360.161 203.864 317.227L183.912 317.227C183.912 360.57 186.735 400.708 194.745 430.297C198.742 445.064 204.243 458.037 212.001 467.496C220.011 477.264 230.61 483.423 243.77 483.423L243.77 463.47ZM203.864 317.227C203.864 274.827 209.366 236.843 218.002 209.797C222.338 196.217 227.29 185.952 232.316 179.294C237.466 172.472 241.438 170.983 243.77 170.983L243.77 151.031C232.327 151.031 223.176 158.285 216.391 167.273C209.482 176.426 203.685 189.038 198.994 203.728C189.577 233.223 183.912 273.349 183.912 317.227L203.864 317.227ZM243.77 170.983C246.102 170.983 250.073 172.472 255.224 179.294C260.249 185.952 265.201 196.217 269.538 209.797C278.173 236.843 283.675 274.827 283.675 317.227L303.627 317.227C303.627 273.349 297.962 233.223 288.545 203.728C283.854 189.038 278.058 176.426 271.148 167.273C264.363 158.285 255.212 151.031 243.77 151.031L243.77 170.983ZM185.912 309.971C188.561 316.86 192.397 326.361 196.065 334.405C197.886 338.401 199.756 342.236 201.482 345.264C202.335 346.76 203.279 348.284 204.277 349.599C204.778 350.258 205.412 351.024 206.172 351.757C206.848 352.409 208.107 353.512 209.911 354.285L217.771 335.945C219.125 336.526 219.886 337.263 220.021 337.394C220.24 337.605 220.29 337.693 220.168 337.533C219.922 337.209 219.47 336.53 218.816 335.383C217.531 333.128 215.95 329.924 214.219 326.128C210.783 318.59 207.108 309.499 204.536 302.81L185.912 309.971ZM209.911 354.285C212.141 355.241 217.925 358.035 224.225 360.946C227.224 362.331 230.268 363.706 232.763 364.748C233.999 365.263 235.228 365.752 236.313 366.127C236.851 366.313 237.477 366.515 238.123 366.681C238.579 366.798 239.808 367.108 241.276 367.108L241.276 347.156C241.958 347.156 242.462 347.234 242.662 347.268C242.899 347.308 243.053 347.347 243.094 347.358C243.168 347.377 243.101 347.362 242.839 347.272C242.324 347.094 241.531 346.786 240.449 346.335C238.311 345.442 235.544 344.196 232.592 342.832C226.988 340.244 220.302 337.03 217.771 335.945L209.911 354.285ZM241.276 367.108C242.557 367.108 244.924 366.871 246.953 366.656C249.295 366.408 252.168 366.076 255.003 365.732C260.282 365.092 266.518 364.287 268.154 363.923L263.825 344.446C263.84 344.443 262.734 344.621 260.291 344.949C258.125 345.239 255.376 345.588 252.602 345.924C249.826 346.261 247.059 346.581 244.851 346.814C242.331 347.081 241.241 347.156 241.276 347.156L241.276 367.108ZM268.154 363.923C270.645 363.37 272.271 361.991 272.521 361.788C273.107 361.314 273.57 360.844 273.862 360.536C274.466 359.897 275.049 359.182 275.543 358.549C276.565 357.239 277.788 355.53 279.08 353.656C281.693 349.868 284.936 344.903 288.1 339.92C291.271 334.927 294.42 329.827 296.849 325.744C298.06 323.711 299.126 321.873 299.937 320.402C300.339 319.673 300.717 318.964 301.032 318.329C301.233 317.923 301.772 316.841 302.11 315.66L282.925 310.178C283.149 309.394 283.398 308.977 283.153 309.471C283.021 309.737 282.798 310.163 282.465 310.767C281.805 311.964 280.864 313.591 279.704 315.54C277.394 319.421 274.35 324.354 271.257 329.224C268.158 334.104 265.066 338.832 262.655 342.328C261.436 344.095 260.474 345.426 259.813 346.274C259.466 346.719 259.331 346.862 259.366 346.826C259.372 346.819 259.587 346.587 259.964 346.282C260.005 346.249 261.461 344.971 263.825 344.446L268.154 363.923ZM302.11 315.66C302.051 315.866 301.886 316.425 301.56 317.11C301.468 317.303 300.416 319.737 297.667 321.366C295.894 322.416 293.373 323.137 290.545 322.543C287.95 321.997 286.262 320.585 285.398 319.68C283.877 318.088 283.321 316.413 283.233 316.165C282.762 314.832 282.742 313.705 282.796 314.351C282.824 314.68 282.862 315.524 282.891 317.004C282.946 319.834 282.953 324.09 282.927 329.041C282.875 338.906 282.696 351.193 282.545 359.543L302.494 359.903C302.646 351.512 302.827 339.13 302.879 329.146C302.906 324.171 302.9 319.707 302.84 316.615C302.811 315.134 302.766 313.716 302.679 312.682C302.676 312.645 302.591 311.061 302.047 309.522C301.941 309.222 301.366 307.511 299.826 305.898C298.952 304.983 297.254 303.564 294.649 303.017C291.811 302.42 289.28 303.143 287.497 304.2C284.728 305.84 283.654 308.303 283.541 308.542C283.194 309.271 283.007 309.892 282.925 310.178L302.11 315.66ZM284.143 354.43L277.473 364.434L294.075 375.502L300.744 365.497L284.143 354.43ZM280.634 361.47L254.547 376.538L264.526 393.815L290.613 378.748L280.634 361.47ZM260.076 375.292C254.471 374.842 245.781 374.038 237.843 373.085C233.868 372.608 230.17 372.104 227.181 371.602C225.686 371.35 224.441 371.111 223.469 370.892C222.986 370.783 222.611 370.688 222.333 370.61C222.039 370.527 221.939 370.487 221.977 370.502L214.774 389.109C217.247 390.066 220.745 390.752 223.873 391.278C227.298 391.854 231.34 392.401 235.466 392.896C243.731 393.888 252.692 394.716 258.479 395.18L260.076 375.292ZM221.977 370.502C219.106 369.391 213.238 366.484 207.81 363.532C205.159 362.089 202.828 360.752 201.223 359.756C200.389 359.238 199.934 358.925 199.767 358.799C199.649 358.711 199.882 358.872 200.238 359.227C200.402 359.391 200.851 359.85 201.323 360.555C201.609 360.982 202.957 362.988 202.957 365.975L183.005 365.975C183.005 369.032 184.389 371.126 184.745 371.658C185.287 372.468 185.84 373.047 186.141 373.347C186.768 373.974 187.403 374.468 187.802 374.766C188.666 375.414 189.7 376.087 190.698 376.707C192.756 377.985 195.456 379.524 198.275 381.058C203.787 384.057 210.616 387.5 214.774 389.109L221.977 370.502ZM202.957 365.975L202.957 358.68L183.005 358.68L183.005 365.975L202.957 365.975ZM200.168 365.414L201.263 364.319L187.154 350.211L186.06 351.305L200.168 365.414ZM189.659 364.183C189.64 364.171 189.64 364.171 189.693 364.206C189.722 364.225 189.813 364.285 189.876 364.327C190.032 364.43 190.24 364.567 190.492 364.73C190.998 365.056 191.668 365.48 192.494 365.976C194.143 366.968 196.399 368.244 199.202 369.627C204.797 372.387 212.623 375.601 222.206 377.83C241.496 382.318 267.772 382.767 296.793 367.849L287.671 350.103C239.762 374.732 202.127 348.484 200.484 347.423L189.659 364.183ZM294.126 368.752C293.218 368.915 291.562 368.945 289.772 368.015C288.04 367.114 287.161 365.822 286.8 365.121C286.284 364.12 286.571 363.925 286.549 365.647C286.511 368.613 285.656 372.921 284.744 376.141L303.94 381.582C305.059 377.636 306.429 371.4 306.5 365.903C306.532 363.394 306.344 359.488 304.536 355.979C303.528 354.025 301.799 351.779 298.975 350.311C296.094 348.813 293.105 348.662 290.589 349.115L294.126 368.752ZM284.404 377.912C282.866 392.791 279.524 411.637 274.37 427.555C271.789 435.526 268.866 442.407 265.703 447.599C262.43 452.973 259.553 455.459 257.556 456.328L265.516 474.624C273.013 471.362 278.585 464.806 282.743 457.979C287.013 450.971 290.506 442.492 293.352 433.701C299.053 416.094 302.614 395.801 304.251 379.963L284.404 377.912ZM254.278 458.581C250.388 462.535 247.252 463.676 245.038 463.951C242.697 464.242 240.195 463.705 237.482 462.373C234.733 461.023 232.182 459.054 230.031 457.112C228.977 456.16 228.079 455.271 227.302 454.492C226.946 454.136 226.519 453.705 226.169 453.365C225.952 453.154 225.232 452.443 224.392 451.838L212.736 468.032C212.197 467.644 211.911 467.331 212.256 467.667C212.468 467.873 212.73 468.137 213.181 468.589C214.019 469.428 215.211 470.613 216.661 471.922C219.517 474.501 223.626 477.796 228.685 480.282C233.78 482.784 240.236 484.654 247.498 483.752C254.887 482.834 262 479.183 268.501 472.574L254.278 458.581ZM226.042 453.456C214.664 439.178 207.128 418.245 202.83 399.249C200.71 389.882 199.45 381.312 198.882 374.75C198.597 371.46 198.496 368.793 198.527 366.853C198.564 364.47 198.795 364.276 198.496 365.094L179.758 358.239C178.779 360.913 178.614 364.173 178.577 366.54C178.532 369.35 178.679 372.727 179.004 376.472C179.654 383.981 181.06 393.448 183.369 403.653C187.929 423.803 196.309 448.161 210.438 465.891L226.042 453.456ZM198.496 365.094C199.011 363.685 199.388 362.982 199.543 362.728C199.737 362.413 199.451 363.01 198.461 363.707C197.333 364.502 195.22 365.434 192.517 365.011C189.956 364.611 188.209 363.199 187.233 362.003L202.699 349.396C201.285 347.662 198.921 345.818 195.599 345.298C192.135 344.757 189.117 345.884 186.971 347.395C183.307 349.976 181.208 354.275 179.758 358.239L198.496 365.094ZM222.387 195.127C222.295 195.859 222.143 196.221 222.342 195.569C222.467 195.162 222.667 194.557 222.956 193.723C223.531 192.062 224.346 189.818 225.358 187.053C227.361 181.58 230.058 174.277 232.809 166.384C238.174 150.992 244.277 131.92 245.535 119.266L225.68 117.292C224.697 127.183 219.481 144.001 213.968 159.817C211.28 167.528 208.647 174.658 206.621 180.196C205.618 182.936 204.743 185.342 204.102 187.193C203.783 188.114 203.493 188.981 203.264 189.726C203.111 190.226 202.744 191.421 202.591 192.631L222.387 195.127ZM245.535 119.266C245.782 116.775 245.962 114.019 246.125 111.345C246.292 108.604 246.442 105.946 246.635 103.385C246.829 100.823 247.05 98.5756 247.33 96.7328C247.469 95.8194 247.611 95.0886 247.747 94.5252C247.813 94.248 247.873 94.0381 247.92 93.887C247.969 93.7332 247.995 93.6718 247.99 93.6833C247.987 93.6904 247.93 93.8267 247.796 94.0466C247.666 94.2618 247.411 94.6433 246.989 95.084C246.562 95.5304 245.91 96.0923 244.998 96.5715C244.056 97.066 242.956 97.4073 241.762 97.4978C239.35 97.6808 237.683 96.7858 237.069 96.3844C236.477 95.9979 236.357 95.7555 236.674 96.1396C236.951 96.4752 237.41 97.1046 238.049 98.1566C238.678 99.1924 239.418 100.532 240.272 102.234C241.986 105.647 244.047 110.285 246.507 116.426L265.028 109.006C260.036 96.5444 255.876 88.0595 252.062 83.4381C251.032 82.1908 249.687 80.7944 247.979 79.6792C246.249 78.549 243.576 77.3503 240.253 77.6023C233.204 78.1369 230.367 84.1379 229.625 85.8838C228.551 88.4126 227.975 91.2986 227.605 93.7299C227.212 96.3107 226.946 99.1393 226.739 101.885C226.29 107.844 226.129 112.775 225.68 117.292L245.535 119.266ZM245.958 114.475L252.518 153.244L272.191 149.916L265.631 111.147L245.958 114.475ZM253.066 155.246L264.6 185.256L283.224 178.098L271.69 148.088L253.066 155.246ZM264.168 183.792L270.464 213.85L289.993 209.76L283.697 179.702L264.168 183.792ZM272.527 205.733L254.908 226.474L270.114 239.391L287.733 218.65L272.527 205.733ZM262.899 223.144C257.583 222.737 249.817 221.762 243.545 220.216C240.335 219.425 238.097 218.622 236.858 217.968C236.237 217.64 236.333 217.589 236.697 217.974C237.11 218.411 238.186 219.78 238.312 222.015L218.391 223.141C218.608 226.97 220.455 229.837 222.193 231.676C223.882 233.465 225.857 234.722 227.541 235.611C230.911 237.391 234.986 238.656 238.77 239.589C246.486 241.49 255.432 242.583 261.375 243.039L262.899 223.144ZM238.312 222.015C238.113 218.49 236.74 214.942 235.557 212.315C234.249 209.408 232.564 206.337 230.83 203.432C227.356 197.61 223.294 191.797 220.557 188.138L204.58 200.09C207.012 203.34 210.661 208.569 213.696 213.656C215.217 216.205 216.486 218.556 217.363 220.505C218.366 222.734 218.41 223.475 218.391 223.141L238.312 222.015ZM246.664 336.378C244.995 331.241 242.82 324.362 241.071 318.416C240.194 315.434 239.449 312.77 238.932 310.712C238.672 309.678 238.492 308.887 238.384 308.332C238.236 307.571 238.328 307.783 238.328 308.441L218.375 308.441C218.375 309.879 218.638 311.32 218.801 312.155C219.004 313.196 219.277 314.367 219.581 315.576C220.192 318.007 221.022 320.959 221.93 324.046C223.751 330.239 225.988 337.312 227.689 342.545L246.664 336.378ZM238.328 308.441V275.847H218.375V308.441H238.328ZM238.328 275.847C238.328 272.318 238.904 260.498 239.734 248.547C240.145 242.637 240.607 236.845 241.073 232.195C241.306 229.865 241.534 227.89 241.747 226.363C241.988 224.645 242.14 224.031 242.125 224.083L223.01 218.362C222.224 220.989 221.666 225.752 221.22 230.206C220.726 235.138 220.247 241.154 219.83 247.165C219.004 259.056 218.375 271.53 218.375 275.847L238.328 275.847ZM242.125 224.083C242.624 222.413 243.352 218.613 244.08 215.106C244.907 211.12 245.98 206.175 247.341 200.965C250.194 190.047 253.893 179.725 258.16 174.234L242.405 161.991C235.369 171.045 230.881 185.038 228.037 195.92C226.55 201.609 225.398 206.934 224.543 211.053C224.062 213.371 223.813 214.629 223.483 216.218C223.342 216.894 223.228 217.426 223.135 217.835C223.032 218.289 222.994 218.416 223.01 218.362L242.125 224.083ZM243.066 169.195V179.328H263.019V169.195H243.066ZM243.363 177.148L238.96 193.036L258.188 198.364L262.591 182.477L243.363 177.148ZM238.564 195.305L236.792 218.994L256.689 220.483L258.461 196.793L238.564 195.305ZM237.058 222.516C237.876 226.076 238.739 231.004 239.494 235.498C239.857 237.665 240.207 239.796 240.483 241.412C240.71 242.74 241.024 244.573 241.341 245.687L260.529 240.217C260.585 240.412 260.471 239.925 260.15 238.047C259.878 236.456 259.557 234.493 259.171 232.195C258.426 227.759 257.474 222.27 256.504 218.049L237.058 222.516ZM241.341 245.687C241.336 245.668 241.409 245.949 241.54 246.728C241.661 247.441 241.791 248.335 241.94 249.425C242.222 251.487 242.582 254.35 242.985 257.083C243.395 259.862 243.906 262.914 244.576 265.723C245.191 268.299 246.152 271.638 247.837 274.402L264.873 264.014C264.902 264.062 264.508 263.289 263.984 261.093C263.516 259.129 263.104 256.749 262.724 254.171C262.337 251.547 262.038 249.129 261.708 246.72C261.431 244.693 261.064 242.094 260.529 240.217L241.341 245.687ZM247.837 274.402C247.371 273.638 247.393 273.272 247.52 273.913C247.622 274.427 247.727 275.258 247.79 276.452C247.916 278.846 247.838 281.893 247.638 285.254C247.441 288.58 247.144 291.932 246.882 294.956C246.642 297.725 246.379 300.732 246.379 302.707L266.331 302.707C266.331 301.816 266.482 299.881 266.76 296.68C267.015 293.734 267.339 290.088 267.556 286.435C267.77 282.817 267.899 278.904 267.715 275.403C267.622 273.65 267.442 271.8 267.092 270.031C266.766 268.388 266.167 266.136 264.873 264.014L247.837 274.402ZM246.379 302.707C246.379 306.377 246.68 311.535 246.426 317.159C246.305 319.864 246.065 322.015 245.738 323.455C245.575 324.173 245.461 324.387 245.513 324.28C245.526 324.254 246.033 323.158 247.5 322.178L258.585 338.768C261.181 337.033 262.639 334.683 263.451 333.016C264.302 331.269 264.835 329.458 265.194 327.88C265.911 324.727 266.217 321.2 266.359 318.058C266.632 311.987 266.331 304.771 266.331 302.707L246.379 302.707ZM247.5 322.178C244.077 324.465 237.704 329.429 233.837 332.493L246.225 348.133C250.261 344.937 255.966 340.518 258.585 338.768L247.5 322.178ZM236.792 218.994C236.703 220.173 236.792 221.358 237.058 222.516L256.504 218.049C256.688 218.848 256.749 219.671 256.689 220.483L236.792 218.994ZM238.96 193.035C238.754 193.777 238.622 194.537 238.564 195.305L258.461 196.794C258.422 197.325 258.33 197.851 258.188 198.364L238.96 193.035ZM258.16 174.234C255.842 177.217 251.76 178.244 248.298 176.85C245.06 175.546 243.066 172.443 243.066 169.195L263.019 169.195C263.019 164.371 260.129 160.105 255.753 158.342C251.153 156.489 245.691 157.763 242.405 161.991L258.16 174.234ZM243.066 179.328C243.066 178.591 243.166 177.858 243.363 177.148L262.591 182.477C262.875 181.451 263.019 180.392 263.019 179.328L243.066 179.328ZM227.689 342.545C230.262 350.463 239.868 353.169 246.225 348.133L233.837 332.493C238.21 329.029 244.874 330.868 246.664 336.378L227.689 342.545ZM206.262 443.149L207.695 449.85L227.206 445.677L225.773 438.976L206.262 443.149ZM209.551 454.155L211.242 456.608L227.671 445.287L225.981 442.834L209.551 454.155ZM210.001 453.688C210.386 455.594 211.033 458.496 211.744 460.64C211.928 461.194 212.194 461.938 212.549 462.697C212.727 463.076 213.005 463.628 213.398 464.232C213.719 464.724 214.506 465.868 215.867 466.906C217.289 467.991 220.511 469.769 224.664 468.649C228.417 467.636 230.228 464.933 230.83 463.893C232.002 461.868 232.233 459.824 232.292 459.369L212.504 456.813C212.51 456.767 212.542 456.515 212.637 456.14C212.709 455.857 212.947 454.959 213.563 453.895C214.084 452.995 215.808 450.372 219.468 449.384C223.527 448.29 226.651 450.037 227.97 451.044C229.228 452.003 229.907 453.019 230.116 453.34C230.397 453.772 230.56 454.109 230.619 454.235C230.737 454.487 230.753 454.572 230.683 454.359C230.376 453.434 229.922 451.535 229.557 449.732L210.001 453.688ZM232.292 459.369C232.55 457.371 232.401 455.201 232.254 453.664C232.086 451.913 231.813 449.998 231.511 448.153C230.905 444.453 230.106 440.596 229.524 438.024L210.063 442.424C210.583 444.723 211.296 448.176 211.821 451.38C212.084 452.987 212.283 454.423 212.392 455.565C212.522 456.922 212.455 457.188 212.504 456.813L232.292 459.369ZM229.524 438.024C229.125 436.257 228.332 434.629 227.232 433.245L211.615 445.663C210.874 444.731 210.335 443.628 210.063 442.424L229.524 438.024ZM211.241 456.608C210.623 455.711 210.208 454.714 210.001 453.688L229.557 449.732C229.239 448.159 228.606 446.644 227.671 445.287L211.241 456.608ZM207.695 449.85C208.025 451.393 208.656 452.856 209.551 454.155L225.981 442.834C226.572 443.692 226.988 444.658 227.206 445.677L207.695 449.85ZM225.773 438.976C227.55 447.286 216.903 452.314 211.615 445.663L227.232 433.245C219.4 423.394 203.63 430.842 206.262 443.149L225.773 438.976ZM262.481 436.613L260.889 444.058L280.4 448.23L281.993 440.785L262.481 436.613ZM262.08 441.296L260.201 444.022L276.631 455.343L278.509 452.617L262.08 441.296ZM258.279 448.552C257.873 450.56 257.358 452.726 256.994 453.822C256.91 454.077 256.912 454.029 257.017 453.805C257.07 453.693 257.226 453.368 257.501 452.945C257.704 452.634 258.377 451.626 259.629 450.67C260.942 449.668 264.06 447.922 268.115 449.016C271.77 450.002 273.488 452.621 274.005 453.513C274.616 454.569 274.85 455.456 274.918 455.724C275.009 456.084 275.039 456.318 275.042 456.341L255.254 458.898C255.318 459.397 255.557 461.471 256.738 463.511C257.345 464.558 259.16 467.266 262.919 468.28C267.076 469.401 270.304 467.622 271.732 466.533C273.099 465.49 273.891 464.339 274.218 463.837C274.618 463.224 274.903 462.66 275.087 462.267C275.455 461.48 275.735 460.699 275.933 460.102C276.7 457.788 277.409 454.619 277.836 452.508L258.279 448.552ZM275.042 456.341C275.079 456.626 275.017 456.225 275.162 454.707C275.287 453.404 275.511 451.782 275.806 449.984C276.394 446.396 277.191 442.537 277.772 439.967L258.31 435.567C257.668 438.41 256.785 442.673 256.116 446.756C255.782 448.793 255.483 450.894 255.3 452.806C255.138 454.503 254.984 456.809 255.254 458.898L275.042 456.341ZM277.772 439.967C277.507 441.14 276.982 442.214 276.261 443.12L260.644 430.703C259.524 432.111 258.717 433.769 258.31 435.567L277.772 439.967ZM260.201 444.022C259.249 445.404 258.604 446.948 258.279 448.552L277.836 452.508C277.634 453.504 277.231 454.472 276.631 455.343L260.201 444.022ZM260.889 444.058C261.101 443.068 261.505 442.129 262.08 441.296L278.509 452.617C279.421 451.293 280.064 449.803 280.4 448.23L260.889 444.058ZM281.993 440.785C284.672 428.256 268.618 420.674 260.644 430.703L276.261 443.12C271.114 449.594 260.752 444.699 262.481 436.613L281.993 440.785ZM186.702 403.631L191.855 419.988L210.886 413.992L205.732 397.635L186.702 403.631ZM192.069 420.597L196.105 431.006L214.708 423.792L210.672 413.383L192.069 420.597ZM213.773 433.986C214.647 432.956 215.826 431.517 216.833 430.142C217.322 429.475 217.903 428.645 218.405 427.791C218.651 427.373 218.99 426.761 219.295 426.038C219.492 425.572 220.189 423.918 220.189 421.751H200.237C200.237 421.164 200.291 420.666 200.35 420.286C200.411 419.902 200.487 419.578 200.554 419.328C200.685 418.842 200.828 418.479 200.914 418.277C201.005 418.061 201.082 417.907 201.124 417.826C201.169 417.741 201.198 417.69 201.205 417.679C201.214 417.663 201.182 417.717 201.091 417.852C201.004 417.98 200.888 418.145 200.741 418.346C200.124 419.188 199.279 420.229 198.562 421.074L213.773 433.986ZM220.189 421.751V413.857H200.237V421.751H220.189ZM220.016 411.964C219.729 410.412 219.254 408.036 218.739 405.868C218.484 404.799 218.187 403.639 217.866 402.605C217.708 402.095 217.502 401.475 217.245 400.848C217.085 400.455 216.548 399.132 215.509 397.834L199.929 410.298C199.417 409.658 199.124 409.115 199.014 408.904C198.88 408.647 198.803 408.463 198.777 408.4C198.729 408.281 198.741 408.294 198.808 408.511C198.938 408.931 199.117 409.601 199.328 410.486C199.742 412.226 200.149 414.253 200.395 415.587L220.016 411.964ZM215.509 397.834C214.554 396.64 212.749 394.987 211.78 394.099C210.476 392.903 209.04 391.627 208.074 390.78L194.921 405.784C195.814 406.567 197.134 407.74 198.298 408.807C198.884 409.344 199.39 409.817 199.768 410.184C199.958 410.368 200.082 410.492 200.15 410.562C200.262 410.678 200.137 410.559 199.929 410.298L215.509 397.834ZM201.2 388.195H197.773V408.147H201.2V388.195ZM188.829 393.258L187.706 395.13L204.815 405.396L205.938 403.524L188.829 393.258ZM278.633 399.449L273.479 415.806L292.51 421.802L297.663 405.445L278.633 399.449ZM273.693 415.197L269.657 425.606L288.26 432.82L292.296 422.41L273.693 415.197ZM285.803 422.887C285.086 422.043 284.241 421.002 283.624 420.16C283.477 419.959 283.361 419.794 283.274 419.666C283.182 419.531 283.151 419.477 283.16 419.493C283.167 419.504 283.196 419.554 283.241 419.64C283.283 419.72 283.36 419.875 283.451 420.09C283.536 420.293 283.68 420.656 283.811 421.142C283.878 421.392 283.954 421.716 284.014 422.1C284.074 422.48 284.128 422.978 284.128 423.565H264.176C264.176 425.732 264.873 427.386 265.07 427.852C265.375 428.575 265.714 429.186 265.96 429.605C266.462 430.459 267.043 431.289 267.532 431.956C268.539 433.33 269.718 434.77 270.592 435.8L285.803 422.887ZM284.128 423.565V415.671H264.176V423.565H284.128ZM283.97 417.401C284.216 416.067 284.623 414.04 285.037 412.3C285.248 411.415 285.427 410.745 285.557 410.325C285.624 410.108 285.636 410.095 285.588 410.214C285.562 410.277 285.485 410.461 285.351 410.718C285.241 410.929 284.948 411.472 284.436 412.112L268.856 399.648C267.817 400.946 267.28 402.269 267.12 402.662C266.863 403.289 266.657 403.908 266.499 404.419C266.178 405.453 265.88 406.613 265.626 407.682C265.111 409.849 264.635 412.226 264.349 413.778L283.97 417.401ZM284.436 412.112C284.228 412.373 284.103 412.492 284.215 412.376C284.283 412.305 284.407 412.181 284.597 411.997C284.975 411.631 285.481 411.158 286.067 410.621C287.231 409.554 288.551 408.381 289.444 407.598L276.291 392.594C275.325 393.441 273.889 394.717 272.585 395.912C271.616 396.801 269.811 398.454 268.856 399.648L284.436 412.112ZM283.165 409.961H286.592V390.008H283.165V409.961ZM278.427 405.338L279.55 407.21L296.659 396.944L295.536 395.072L278.427 405.338ZM174.842 320.041L174.842 346.409L194.795 346.409L194.795 320.041L174.842 320.041ZM204.318 356.944L204.318 306.559L184.365 306.559L184.365 356.944L204.318 356.944ZM289.444 407.598C287.677 409.146 285.435 409.961 283.165 409.961V390.008C280.675 390.008 278.223 390.901 276.291 392.594L289.444 407.598ZM197.773 388.195C194.109 388.195 190.714 390.117 188.829 393.258L205.938 403.524C204.217 406.392 201.118 408.147 197.773 408.147V388.195ZM196.105 431.006C198.918 438.26 208.579 440.105 213.773 433.986L198.562 421.074C203.315 415.476 212.142 417.174 214.708 423.792L196.105 431.006ZM254.908 226.474C256.79 224.258 259.717 222.901 262.899 223.144L261.375 243.039C264.846 243.305 268.045 241.828 270.114 239.391L254.908 226.474ZM270.464 213.85C269.861 210.971 270.622 207.975 272.527 205.733L287.733 218.65C289.819 216.195 290.653 212.913 289.993 209.76L270.464 213.85ZM264.6 185.256C264.417 184.78 264.273 184.291 264.168 183.792L283.697 179.702C283.583 179.155 283.425 178.619 283.224 178.098L264.6 185.256ZM252.518 153.244C252.633 153.928 252.817 154.599 253.066 155.246L271.69 148.088C271.917 148.679 272.085 149.291 272.191 149.916L252.518 153.244ZM246.507 116.426C246.275 115.847 246.08 115.196 245.958 114.475L265.631 111.147C265.498 110.362 265.284 109.644 265.028 109.006L246.507 116.426ZM202.591 192.631C202.395 194.184 202.542 195.884 203.181 197.56C203.717 198.964 204.454 199.922 204.58 200.09L220.557 188.138C220.624 188.227 221.315 189.116 221.823 190.447C222.434 192.049 222.57 193.671 222.387 195.127L202.591 192.631ZM224.392 451.838C224.312 451.781 224.245 451.734 224.205 451.706C224.185 451.692 224.167 451.68 224.157 451.673C224.138 451.66 224.146 451.665 224.138 451.66C224.116 451.645 224.22 451.716 224.354 451.815C224.601 452 225.318 452.547 226.042 453.456L210.438 465.891C211.249 466.908 212.071 467.546 212.431 467.814C212.621 467.955 212.783 468.066 212.82 468.092C212.901 468.148 212.815 468.089 212.736 468.032L224.392 451.838ZM257.556 456.328C256.259 456.892 255.16 457.684 254.278 458.581L268.501 472.574C267.702 473.386 266.704 474.107 265.516 474.624L257.556 456.328ZM284.744 376.141C284.578 376.725 284.465 377.317 284.404 377.912L304.251 379.963C304.195 380.505 304.091 381.048 303.94 381.582L284.744 376.141ZM296.793 367.849C295.979 368.267 295.085 368.579 294.126 368.752L290.589 349.115C289.545 349.303 288.562 349.645 287.671 350.103L296.793 367.849ZM200.484 347.423C200.731 347.582 201.027 347.79 201.347 348.051C201.676 348.319 201.964 348.59 202.214 348.851C202.446 349.093 202.614 349.294 202.679 349.372C202.687 349.383 202.811 349.533 202.699 349.396L187.233 362.003C187.14 361.889 187.28 362.06 187.304 362.089C187.385 362.187 187.566 362.404 187.814 362.662C188.414 363.287 189.043 363.786 189.659 364.183L200.484 347.423ZM201.263 364.319C203.219 362.363 204.318 359.71 204.318 356.944L184.365 356.944C184.365 354.419 185.369 351.996 187.154 350.211L201.263 364.319ZM202.957 358.68C202.957 361.206 201.954 363.628 200.168 365.414L186.06 351.305C184.104 353.261 183.005 355.914 183.005 358.68L202.957 358.68ZM254.547 376.538C256.135 375.62 258.056 375.13 260.076 375.292L258.479 395.18C260.683 395.357 262.779 394.825 264.526 393.815L254.547 376.538ZM277.473 364.434C278.285 363.216 279.367 362.202 280.634 361.47L290.613 378.748C292.001 377.946 293.186 376.835 294.075 375.502L277.473 364.434ZM282.545 359.543C282.579 357.643 283.177 355.878 284.143 354.43L300.744 365.497C301.807 363.904 302.457 361.977 302.494 359.903L282.545 359.543ZM204.536 302.81C200.238 291.632 184.365 295.407 184.365 306.559L204.318 306.559C204.318 316.702 189.848 320.208 185.912 309.971L204.536 302.81ZM247.051 36.1878C248.146 45.5598 236.408 50.6457 230.318 43.438L245.56 30.5616C238.891 22.6674 226.034 28.2377 227.233 38.5023L247.051 36.1878ZM238.564 98.2227C234.617 87.6956 248.971 80.2208 255.333 89.4906L238.881 100.781C245.849 110.933 261.57 102.747 257.247 91.2169L238.564 98.2227ZM292.917 236.091C293.403 237.097 293.709 238.18 293.82 239.291L273.967 241.277C274.088 242.494 274.423 243.68 274.956 244.782L292.917 236.091ZM287.587 237.416C291.238 237.416 294.568 239.505 296.159 242.792L278.198 251.482C279.94 255.082 283.587 257.369 287.587 257.369V237.416ZM197.697 306.208C195.727 303.581 192.636 302.036 189.353 302.036V321.988C186.356 321.988 183.534 320.577 181.735 318.179L197.697 306.208ZM206.04 318.581C205.696 317.296 205.109 316.089 204.311 315.026L188.349 326.997C187.62 326.026 187.084 324.924 186.769 323.751L206.04 318.581ZM286.592 409.961C283.247 409.961 280.148 408.206 278.427 405.338L295.536 395.072C293.651 391.931 290.256 390.008 286.592 390.008V409.961ZM212.98 351.792C213.487 349.996 213.484 348.169 213.075 346.49L193.69 351.218C193.318 349.69 193.314 348.017 193.778 346.371L212.98 351.792ZM186.595 379.352C191.181 383.057 197.285 382.014 200.71 378.44L186.302 364.636C189.386 361.418 194.928 360.435 199.132 363.83L186.595 379.352ZM284.128 415.671C284.128 416.223 284.08 416.804 283.97 417.401L264.349 413.778C264.229 414.43 264.176 415.064 264.176 415.671H284.128ZM171.441 362.13C171.441 365.282 172.866 368.264 175.318 370.244L187.855 354.722C190.093 356.53 191.394 359.253 191.394 362.13H171.441ZM171.881 354.882C171.59 355.854 171.441 356.864 171.441 357.879H191.394C191.394 358.806 191.259 359.727 190.992 360.615L171.881 354.882ZM269.657 425.606C272.223 418.988 281.05 417.289 285.803 422.887L270.592 435.8C275.786 441.919 285.447 440.074 288.26 432.82L269.657 425.606ZM194.355 349.406C194.647 348.434 194.795 347.424 194.795 346.409L174.842 346.409C174.842 345.482 174.978 344.56 175.244 343.673L194.355 349.406ZM175.686 315.932C175.129 317.231 174.842 318.628 174.842 320.041L194.795 320.041C194.795 321.33 194.533 322.607 194.025 323.792L175.686 315.932ZM297.663 405.445C298.56 402.598 298.195 399.504 296.659 396.944L279.55 407.21C278.148 404.873 277.814 402.048 278.633 399.449L297.663 405.445ZM197.272 316.217C195.771 319.718 192.328 321.988 188.519 321.988V302.036C184.347 302.036 180.576 304.522 178.932 308.357L197.272 316.217ZM208.074 390.78C206.142 389.087 203.69 388.195 201.2 388.195V408.147C198.93 408.147 196.687 407.333 194.921 405.784L208.074 390.78ZM200.954 346.671C200.62 343.784 201.624 340.902 203.68 338.846L217.789 352.955C220.04 350.704 221.14 347.547 220.775 344.384L200.954 346.671ZM201.799 336.014C200.28 334.495 199.319 332.507 199.073 330.372L218.894 328.085C218.624 325.748 217.572 323.57 215.908 321.906L201.799 336.014ZM220.189 413.857C220.189 413.25 220.136 412.616 220.016 411.964L200.395 415.587C200.285 414.99 200.237 414.409 200.237 413.857H220.189ZM196.117 330.139C195.656 329.813 195.246 329.461 194.884 329.099L208.993 314.99C208.595 314.593 208.147 314.209 207.644 313.853L196.117 330.139ZM205.732 397.635C206.551 400.234 206.217 403.059 204.815 405.396L187.706 395.13C186.17 397.69 185.805 400.784 186.702 403.631L205.732 397.635ZM184.734 376.578C189.214 378.9 194.283 377.588 197.247 374.32L182.468 360.915C185.156 357.952 189.799 356.731 193.914 358.863L184.734 376.578ZM277.126 253.064C279.071 255.901 282.289 257.596 285.728 257.596V237.643C288.867 237.643 291.806 239.191 293.581 241.781L277.126 253.064ZM270.224 237.935C269.803 240.573 270.411 243.272 271.922 245.475L288.377 234.191C289.756 236.203 290.311 238.667 289.927 241.076L270.224 237.935ZM273.814 219.204C273.248 220.245 272.864 221.375 272.677 222.545L292.381 225.687C292.21 226.755 291.859 227.787 291.342 228.737L273.814 219.204ZM287.308 201.397C284.491 202.112 282.1 203.97 280.711 206.523L298.239 216.056C296.971 218.387 294.788 220.084 292.216 220.736L287.308 201.397ZM314.737 207.844C314.737 201.043 308.334 196.062 301.742 197.734L306.65 217.074C300.631 218.601 294.785 214.053 294.785 207.844H314.737ZM283.311 239.85C285.047 238.404 287.212 237.643 289.407 237.643V257.596C291.813 257.596 294.181 256.763 296.079 255.182L283.311 239.85ZM234.533 84.413C234.375 86.0038 234.584 87.6097 235.146 89.1065L253.828 82.1007C254.34 83.4674 254.532 84.9336 254.388 86.3861L234.533 84.413ZM256.096 75.9718C256.096 75.3689 256.153 74.7675 256.267 74.1754L275.861 77.9392C275.986 77.2908 276.048 76.632 276.048 75.9718L256.096 75.9718ZM257.986 50.178C258.265 47.371 257.395 44.5706 255.574 42.4157L240.333 55.2922C238.671 53.3247 237.876 50.7678 238.131 48.2049L257.986 50.178ZM257.47 60.4708C256.571 58.9843 256.096 57.2803 256.096 55.5431L276.048 55.5431C276.048 53.6406 275.528 51.7742 274.543 50.1462L257.47 60.4708ZM292.704 228.126C292.562 226.713 292.143 225.428 291.563 224.32L273.886 233.573C273.362 232.572 272.979 231.403 272.85 230.111L292.704 228.126ZM239.228 54.8304C242.153 59.2538 247.761 60.6403 252.303 58.5405L243.93 40.4297C248.064 38.5184 253.194 39.7767 255.872 43.8253L239.228 54.8304ZM323.166 374.602C323.673 374.738 324.189 374.836 324.711 374.894L326.919 355.064C327.395 355.117 327.867 355.206 328.33 355.33L323.166 374.602ZM282.96 240.344C284.756 238.474 287.237 237.416 289.83 237.416V257.369C292.67 257.369 295.387 256.211 297.354 254.162L282.96 240.344ZM225.225 109.018C225.425 110.137 225.788 111.116 226.217 111.949L243.96 102.824C244.13 103.154 244.319 103.569 244.489 104.061C244.661 104.557 244.783 105.042 244.866 105.504L225.225 109.018ZM299.018 364.044C300.284 366.966 302.814 369.149 305.89 369.973L311.054 350.701C313.862 351.453 316.172 353.447 317.328 356.114L299.018 364.044ZM285.489 241.542C285.489 239.084 286.439 236.721 288.142 234.947L302.535 248.765C304.4 246.823 305.441 244.234 305.441 241.542H285.489ZM183.112 236.879C184.85 234.085 187.908 232.386 191.199 232.386V252.338C194.803 252.338 198.151 250.478 200.055 247.417L183.112 236.879ZM249.576 81.1023C250.601 82.5962 251.179 84.3517 251.241 86.1625L231.301 86.8501C231.369 88.8334 232.002 90.7561 233.125 92.3923L249.576 81.1023ZM245.842 144.744C246.813 135.322 259.45 132.941 263.783 141.365L246.039 150.491C250.785 159.717 264.625 157.11 265.689 146.79L245.842 144.744ZM295.124 331.038C294.867 331.597 294.671 332.154 294.525 332.697L313.798 337.861C313.665 338.355 313.486 338.865 313.25 339.378L295.124 331.038ZM185.428 220.639C184.985 219.741 184.687 218.779 184.543 217.789L204.291 214.933C204.134 213.848 203.807 212.795 203.322 211.811L185.428 220.639ZM295.8 213.563C292.129 205.673 281.366 205.655 277.3 212.823L294.654 222.669C290.945 229.206 281.076 229.214 277.71 221.981L295.8 213.563ZM184.475 211.553C181.869 210.824 179.697 209.021 178.5 206.595L196.394 197.768C195.083 195.11 192.704 193.136 189.85 192.338L184.475 211.553ZM291.994 342.144C291.385 344.417 291.562 346.829 292.498 348.988L310.807 341.058C311.661 343.03 311.823 345.232 311.267 347.308L291.994 342.144ZM285.953 242.24C285.645 241.291 285.489 240.3 285.489 239.302H305.441C305.441 238.209 305.27 237.124 304.932 236.084L285.953 242.24ZM187.011 234.852C186.69 232.63 187.164 230.366 188.349 228.459L205.292 238.997C206.591 236.909 207.11 234.43 206.758 231.996L187.011 234.852ZM263.164 53.5193C258.76 55.5553 253.529 53.9549 251.019 49.8032L268.093 39.4786C265.343 34.9315 259.614 33.1786 254.791 35.4086L263.164 53.5193ZM330.877 360.852C332.952 357.611 336.582 356.139 339.955 356.515L337.748 376.345C341.464 376.759 345.419 375.143 347.68 371.611L330.877 360.852ZM180.481 249.592C182.433 251.385 184.96 252.338 187.533 252.338V232.386C189.88 232.386 192.19 233.256 193.976 234.896L180.481 249.592Z" fill="#8D8D8D" mask="url(#path-1-outside-1_428_1261)"/>
</svg>
