<svg width="400" height="400" viewBox="0 0 400 400" fill="none" xmlns="http://www.w3.org/2000/svg">
<g clip-path="url(#clip0_442_12)">
<path d="M332.231 265.775L308.874 243.956L281.839 251.245L261.637 263.986L273.056 298.153L289.101 329.657L281.378 334.19L254.621 317.216L241.847 269.924L218.18 266.027L197.644 259.617L195.54 254.864L207.364 228.704L214.804 232.066L242.753 244.426L256.431 246.242L278.765 225.706L303.253 216.707L329.1 230.78L355.179 242.955L332.231 265.775Z" fill="#664D3B" stroke="#61432D" stroke-width="7.47332"/>
<mask id="path-2-outside-1_442_12" maskUnits="userSpaceOnUse" x="184.913" y="251.368" width="181.79" height="177.969" fill="black">
<rect fill="white" x="184.913" y="251.368" width="181.79" height="177.969"/>
<path fill-rule="evenodd" clip-rule="evenodd" d="M221.897 369.645C226.108 373.309 232.071 373.742 236.929 371.213L236.994 371.27C241.987 375.615 248.792 376.621 254.834 374.53C255.766 377.625 257.531 380.474 260.113 382.72C266.786 388.527 276.693 388.37 283.694 382.827C284.172 383.428 284.711 383.993 285.31 384.513C290.883 389.363 299.526 388.553 304.615 382.704C308.075 378.727 309 373.444 307.485 368.945C311.126 368.718 314.738 367.039 317.386 363.995C321.936 358.766 322.103 351.28 318.104 346.287C318.774 340.942 317.774 335.521 315.142 330.874C316.106 330.048 317.022 329.14 317.882 328.152C326.966 317.712 326.264 302.23 316.314 293.573C310.334 288.371 302.376 286.817 295.004 288.672C294.443 285.959 293.047 283.434 290.836 281.51C285.262 276.66 276.619 277.47 271.53 283.319C269.4 285.767 268.231 288.71 268 291.661C261.924 290.857 255.439 293.138 250.97 298.275C248.447 301.175 246.914 304.585 246.352 308.068C237.67 306.374 228.137 309.421 221.685 316.836C213.032 326.781 212.929 341.128 220.947 350.359C215.934 356.206 216.35 364.819 221.897 369.645Z"/>
</mask>
<path fill-rule="evenodd" clip-rule="evenodd" d="M221.897 369.645C226.108 373.309 232.071 373.742 236.929 371.213L236.994 371.27C241.987 375.615 248.792 376.621 254.834 374.53C255.766 377.625 257.531 380.474 260.113 382.72C266.786 388.527 276.693 388.37 283.694 382.827C284.172 383.428 284.711 383.993 285.31 384.513C290.883 389.363 299.526 388.553 304.615 382.704C308.075 378.727 309 373.444 307.485 368.945C311.126 368.718 314.738 367.039 317.386 363.995C321.936 358.766 322.103 351.28 318.104 346.287C318.774 340.942 317.774 335.521 315.142 330.874C316.106 330.048 317.022 329.14 317.882 328.152C326.966 317.712 326.264 302.23 316.314 293.573C310.334 288.371 302.376 286.817 295.004 288.672C294.443 285.959 293.047 283.434 290.836 281.51C285.262 276.66 276.619 277.47 271.53 283.319C269.4 285.767 268.231 288.71 268 291.661C261.924 290.857 255.439 293.138 250.97 298.275C248.447 301.175 246.914 304.585 246.352 308.068C237.67 306.374 228.137 309.421 221.685 316.836C213.032 326.781 212.929 341.128 220.947 350.359C215.934 356.206 216.35 364.819 221.897 369.645Z" fill="#296C38"/>
<path d="M236.929 371.213L241.848 365.587L238.006 362.228L233.478 364.584L236.929 371.213ZM221.897 369.645L216.992 375.283L216.992 375.283L221.897 369.645ZM236.994 371.27L232.075 376.896L232.081 376.902L232.088 376.908L236.994 371.27ZM254.834 374.53L261.99 372.375L259.746 364.921L252.39 367.467L254.834 374.53ZM260.113 382.72L265.018 377.082L265.018 377.082L260.113 382.72ZM283.694 382.827L289.538 378.17L284.895 372.344L279.054 376.968L283.694 382.827ZM285.31 384.513L280.404 390.152L280.404 390.152L285.31 384.513ZM304.615 382.704L310.253 387.61L310.253 387.61L304.615 382.704ZM307.485 368.945L307.021 361.486L297.291 362.091L300.403 371.33L307.485 368.945ZM317.386 363.995L311.748 359.09L311.748 359.09L317.386 363.995ZM318.104 346.287L310.689 345.358L310.296 348.493L312.271 350.959L318.104 346.287ZM315.142 330.874L310.278 325.201L305.608 329.204L308.639 334.556L315.142 330.874ZM317.882 328.152L312.244 323.247L312.244 323.247L317.882 328.152ZM316.314 293.573L311.409 299.211L311.409 299.211L316.314 293.573ZM295.004 288.672L287.686 290.187L289.267 297.822L296.828 295.919L295.004 288.672ZM290.836 281.51L285.93 287.148L285.93 287.148L290.836 281.51ZM271.53 283.319L265.892 278.413L265.892 278.413L271.53 283.319ZM268 291.661L267.02 299.07L274.835 300.103L275.45 292.244L268 291.661ZM250.97 298.275L256.608 303.18L256.608 303.18L250.97 298.275ZM246.352 308.068L244.922 315.403L252.5 316.881L253.73 309.258L246.352 308.068ZM221.685 316.836L216.047 311.931L216.047 311.931L221.685 316.836ZM220.947 350.359L226.621 355.223L230.818 350.327L226.589 345.458L220.947 350.359ZM233.478 364.584C231.094 365.825 228.491 365.476 226.803 364.007L216.992 375.283C223.725 381.142 233.047 381.659 240.379 377.843L233.478 364.584ZM241.913 365.644L241.848 365.587L232.01 376.84L232.075 376.896L241.913 365.644ZM252.39 367.467C248.654 368.76 244.703 368.072 241.899 365.632L232.088 376.908C239.271 383.158 248.93 384.482 257.278 381.592L252.39 367.467ZM265.018 377.082C263.544 375.8 262.533 374.177 261.99 372.375L247.678 376.684C248.999 381.072 251.517 385.148 255.207 388.358L265.018 377.082ZM279.054 376.968C274.621 380.479 268.741 380.321 265.018 377.082L255.207 388.358C264.831 396.732 278.766 396.262 288.333 388.686L279.054 376.968ZM290.215 378.875C289.961 378.654 289.736 378.418 289.538 378.17L277.849 387.485C278.609 388.438 279.461 389.331 280.404 390.152L290.215 378.875ZM298.977 377.799C296.372 380.792 292.422 380.796 290.215 378.875L280.404 390.152C289.344 397.93 302.68 396.313 310.253 387.61L298.977 377.799ZM300.403 371.33C301.067 373.302 300.705 375.813 298.977 377.799L310.253 387.61C315.446 381.641 316.934 373.585 314.568 366.559L300.403 371.33ZM311.748 359.09C310.43 360.605 308.691 361.382 307.021 361.486L307.949 376.404C313.561 376.055 319.045 373.473 323.024 368.9L311.748 359.09ZM312.271 350.959C313.893 352.983 314.053 356.44 311.748 359.09L323.024 368.9C329.818 361.092 330.314 349.577 323.938 341.615L312.271 350.959ZM308.639 334.556C310.441 337.738 311.169 341.53 310.689 345.358L325.52 347.216C326.38 340.353 325.107 333.304 321.645 327.191L308.639 334.556ZM312.244 323.247C311.623 323.96 310.966 324.611 310.278 325.201L320.007 336.547C321.246 335.485 322.421 334.321 323.52 333.057L312.244 323.247ZM311.409 299.211C317.992 304.939 318.844 315.661 312.244 323.247L323.52 333.057C335.088 319.762 334.536 299.521 321.219 287.935L311.409 299.211ZM296.828 295.919C302.024 294.612 307.421 295.742 311.409 299.211L321.22 287.935C313.248 280.999 302.727 279.022 293.181 281.424L296.828 295.919ZM285.93 287.148C286.844 287.943 287.439 288.991 287.686 290.187L302.322 287.157C301.447 282.927 299.249 278.924 295.741 275.872L285.93 287.148ZM277.168 288.224C279.773 285.231 283.723 285.228 285.93 287.148L295.741 275.872C286.801 268.093 273.465 269.71 265.892 278.413L277.168 288.224ZM275.45 292.244C275.558 290.866 276.107 289.444 277.168 288.224L265.892 278.413C262.693 282.09 260.903 286.555 260.549 291.078L275.45 292.244ZM256.608 303.18C259.431 299.936 263.43 298.595 267.02 299.07L268.98 284.252C260.418 283.12 251.448 286.34 245.332 293.369L256.608 303.18ZM253.73 309.258C254.073 307.13 255.014 305.012 256.608 303.18L245.332 293.369C241.88 297.337 239.755 302.039 238.974 306.877L253.73 309.258ZM227.323 321.742C232.033 316.327 238.878 314.224 244.922 315.403L247.783 300.732C236.462 298.525 224.24 302.514 216.047 311.931L227.323 321.742ZM226.589 345.458C221.161 339.209 220.965 329.048 227.323 321.742L216.047 311.931C205.099 324.514 204.696 343.046 215.305 355.26L226.589 345.458ZM226.803 364.007C224.606 362.096 224.058 358.213 226.621 355.223L215.273 345.495C207.811 354.2 208.095 367.542 216.992 375.283L226.803 364.007Z" fill="#07573A" mask="url(#path-2-outside-1_442_12)"/>
<mask id="path-4-outside-2_442_12" maskUnits="userSpaceOnUse" x="211.572" y="279.322" width="119.87" height="115.976" fill="black">
<rect fill="white" x="211.572" y="279.322" width="119.87" height="115.976"/>
<path fill-rule="evenodd" clip-rule="evenodd" d="M290.715 310.876C294.292 309.717 298.281 310.389 301.165 313.002C305.546 316.97 305.722 323.914 301.558 328.511C301.536 328.536 301.513 328.56 301.491 328.585C301.788 332.5 300.904 336.551 298.824 340.157C299.435 344.49 298.127 349.146 294.866 352.746C291.431 356.539 286.615 358.289 282.027 357.879C283.541 360.772 283.113 364.516 280.696 367.185C277.636 370.563 272.545 370.938 269.325 368.021C267.656 366.51 266.818 364.411 266.823 362.27C264.387 362.208 261.996 361.329 260.088 359.601C259.066 358.675 258.273 357.588 257.71 356.406C252.191 361.195 244.05 361.39 238.749 356.589C234.063 352.343 233.044 345.503 235.789 339.852C235.302 339.58 234.839 339.249 234.409 338.86C231.19 335.943 231.061 330.84 234.121 327.462C237.181 324.083 242.272 323.709 245.492 326.625C245.639 326.758 245.779 326.896 245.913 327.037C246.546 325.777 247.362 324.576 248.36 323.474C249.861 321.816 251.626 320.549 253.52 319.681C253.701 317.971 254.422 316.278 255.687 314.881C258.366 311.924 262.599 311.268 265.773 313.106C266.967 312.192 268.345 311.634 269.751 311.445C270.239 309.902 271.066 308.427 272.235 307.136C276.399 302.539 283.327 302.029 287.708 305.998C289.199 307.349 290.203 309.045 290.715 310.876Z"/>
</mask>
<path fill-rule="evenodd" clip-rule="evenodd" d="M290.715 310.876C294.292 309.717 298.281 310.389 301.165 313.002C305.546 316.97 305.722 323.914 301.558 328.511C301.536 328.536 301.513 328.56 301.491 328.585C301.788 332.5 300.904 336.551 298.824 340.157C299.435 344.49 298.127 349.146 294.866 352.746C291.431 356.539 286.615 358.289 282.027 357.879C283.541 360.772 283.113 364.516 280.696 367.185C277.636 370.563 272.545 370.938 269.325 368.021C267.656 366.51 266.818 364.411 266.823 362.27C264.387 362.208 261.996 361.329 260.088 359.601C259.066 358.675 258.273 357.588 257.71 356.406C252.191 361.195 244.05 361.39 238.749 356.589C234.063 352.343 233.044 345.503 235.789 339.852C235.302 339.58 234.839 339.249 234.409 338.86C231.19 335.943 231.061 330.84 234.121 327.462C237.181 324.083 242.272 323.709 245.492 326.625C245.639 326.758 245.779 326.896 245.913 327.037C246.546 325.777 247.362 324.576 248.36 323.474C249.861 321.816 251.626 320.549 253.52 319.681C253.701 317.971 254.422 316.278 255.687 314.881C258.366 311.924 262.599 311.268 265.773 313.106C266.967 312.192 268.345 311.634 269.751 311.445C270.239 309.902 271.066 308.427 272.235 307.136C276.399 302.539 283.327 302.029 287.708 305.998C289.199 307.349 290.203 309.045 290.715 310.876Z" fill="#2E7E40"/>
<path d="M301.165 313.002L296.148 318.541L296.148 318.541L301.165 313.002ZM290.715 310.876L283.517 312.886L285.611 320.384L293.018 317.985L290.715 310.876ZM301.558 328.511L296.019 323.494L296.019 323.494L301.558 328.511ZM301.491 328.585L295.994 323.522L293.793 325.911L294.039 329.15L301.491 328.585ZM298.824 340.157L292.35 336.422L291.064 338.652L291.424 341.201L298.824 340.157ZM294.866 352.746L300.405 357.763L300.405 357.763L294.866 352.746ZM282.027 357.879L282.693 350.435L269.06 349.215L275.405 361.343L282.027 357.879ZM280.696 367.185L275.157 362.167L275.157 362.167L280.696 367.185ZM269.325 368.021L274.342 362.482L274.342 362.482L269.325 368.021ZM266.823 362.27L274.296 362.288L274.314 354.984L267.012 354.799L266.823 362.27ZM260.088 359.601L255.071 365.14L255.071 365.14L260.088 359.601ZM257.71 356.406L264.458 353.194L260.235 344.321L252.813 350.761L257.71 356.406ZM238.749 356.589L243.766 351.05L243.766 351.05L238.749 356.589ZM235.789 339.852L242.511 343.118L245.593 336.776L239.44 333.331L235.789 339.852ZM234.409 338.86L239.427 333.321L239.427 333.321L234.409 338.86ZM234.121 327.462L228.582 322.444L234.121 327.462ZM245.492 326.625L240.475 332.164L240.475 332.164L245.492 326.625ZM245.913 327.037L240.482 332.171L247.806 339.919L252.591 330.392L245.913 327.037ZM248.36 323.474L242.821 318.456L242.821 318.456L248.36 323.474ZM253.52 319.681L256.632 326.476L260.502 324.703L260.951 320.47L253.52 319.681ZM255.687 314.881L261.226 319.898L261.226 319.898L255.687 314.881ZM265.773 313.106L262.028 319.573L266.35 322.075L270.316 319.039L265.773 313.106ZM269.751 311.445L270.748 318.852L275.447 318.219L276.876 313.699L269.751 311.445ZM272.235 307.136L266.696 302.119L266.696 302.119L272.235 307.136ZM287.708 305.998L282.691 311.537L287.708 305.998ZM306.183 307.463C301.147 302.902 294.311 301.855 288.412 303.766L293.018 317.985C294.272 317.579 295.414 317.876 296.148 318.541L306.183 307.463ZM307.097 333.529C313.801 326.127 313.871 314.427 306.183 307.463L296.148 318.541C297.222 319.513 297.643 321.702 296.019 323.494L307.097 333.529ZM306.988 333.647C307.024 333.608 307.06 333.569 307.097 333.528L296.019 323.494C296.011 323.503 296.002 323.512 295.994 323.522L306.988 333.647ZM305.297 343.891C308.13 338.981 309.353 333.431 308.943 328.02L294.039 329.15C294.222 331.569 293.678 334.122 292.35 336.422L305.297 343.891ZM300.405 357.763C305.167 352.506 307.143 345.625 306.224 339.113L291.424 341.201C291.728 343.355 291.088 345.785 289.328 347.728L300.405 357.763ZM281.361 365.322C288.272 365.941 295.389 363.301 300.405 357.763L289.328 347.728C287.473 349.776 284.957 350.638 282.693 350.435L281.361 365.322ZM286.235 372.202C290.698 367.275 291.653 360.157 288.649 354.414L275.405 361.343C275.428 361.387 275.529 361.757 275.157 362.167L286.235 372.202ZM264.308 373.56C270.835 379.472 280.634 378.385 286.235 372.202L275.157 362.167C274.934 362.414 274.692 362.498 274.522 362.51C274.438 362.517 274.387 362.504 274.368 362.498C274.357 362.494 274.353 362.492 274.342 362.482L264.308 373.56ZM259.35 362.252C259.34 366.357 260.96 370.528 264.308 373.56L274.342 362.482C274.333 362.475 274.331 362.471 274.331 362.47C274.33 362.47 274.327 362.466 274.323 362.456C274.314 362.435 274.296 362.38 274.296 362.288L259.35 362.252ZM255.071 365.14C258.382 368.139 262.516 369.637 266.634 369.741L267.012 354.799C266.259 354.78 265.61 354.52 265.105 354.062L255.071 365.14ZM250.963 359.618C251.935 361.661 253.309 363.544 255.071 365.14L265.105 354.062C264.823 353.807 264.611 353.515 264.458 353.194L250.963 359.618ZM233.732 362.127C242.074 369.684 254.484 369.1 262.608 362.051L252.813 350.761C249.898 353.29 246.025 353.096 243.766 351.05L233.732 362.127ZM229.067 336.587C225.004 344.951 226.365 355.454 233.732 362.127L243.766 351.05C241.76 349.233 241.084 346.055 242.511 343.118L229.067 336.587ZM229.392 344.399C230.243 345.169 231.165 345.828 232.139 346.374L239.44 333.331C239.439 333.331 239.438 333.33 239.436 333.329C239.435 333.328 239.432 333.326 239.427 333.321L229.392 344.399ZM228.582 322.444C222.981 328.628 222.865 338.486 229.392 344.399L239.427 333.321C239.416 333.311 239.413 333.308 239.408 333.296C239.401 333.279 239.383 333.229 239.381 333.145C239.377 332.975 239.436 332.725 239.66 332.479L228.582 322.444ZM250.509 321.086C243.982 315.174 234.183 316.261 228.582 322.444L239.66 332.479C239.883 332.232 240.125 332.148 240.295 332.136C240.379 332.13 240.43 332.142 240.448 332.148C240.46 332.152 240.464 332.154 240.475 332.164L250.509 321.086ZM251.344 321.904C251.078 321.622 250.799 321.349 250.509 321.086L240.475 332.164C240.478 332.167 240.481 332.169 240.482 332.171L251.344 321.904ZM252.591 330.392C252.923 329.731 253.356 329.089 253.899 328.491L242.821 318.456C241.367 320.062 240.169 321.823 239.235 323.683L252.591 330.392ZM253.899 328.491C254.712 327.593 255.649 326.926 256.632 326.476L250.407 312.887C247.603 314.172 245.01 316.04 242.821 318.456L253.899 328.491ZM250.149 309.864C247.803 312.453 246.434 315.633 246.088 318.893L260.951 320.47C260.969 320.309 261.04 320.103 261.226 319.898L250.149 309.864ZM269.518 306.638C263.149 302.951 255.078 304.422 250.149 309.864L261.226 319.898C261.422 319.681 261.632 319.591 261.795 319.563C261.879 319.549 261.942 319.553 261.98 319.559C261.999 319.562 262.011 319.566 262.018 319.569C262.024 319.571 262.027 319.572 262.028 319.573L269.518 306.638ZM268.754 304.038C266.069 304.4 263.466 305.46 261.23 307.172L270.316 319.039C270.468 318.923 270.622 318.869 270.748 318.852L268.754 304.038ZM266.696 302.119C264.797 304.216 263.434 306.637 262.626 309.191L276.876 313.699C277.044 313.168 277.335 312.638 277.774 312.153L266.696 302.119ZM292.725 300.459C285.037 293.495 273.401 294.717 266.696 302.119L277.774 312.153C279.398 310.361 281.617 310.564 282.691 311.537L292.725 300.459ZM297.913 308.865C297.038 305.734 295.305 302.796 292.725 300.459L282.691 311.537C283.093 311.902 283.369 312.356 283.517 312.886L297.913 308.865Z" fill="#0A5F40" mask="url(#path-4-outside-2_442_12)"/>
<mask id="path-6-outside-3_442_12" maskUnits="userSpaceOnUse" x="245.564" y="114.999" width="185.564" height="190.994" fill="black">
<rect fill="white" x="245.564" y="114.999" width="185.564" height="190.994"/>
<path fill-rule="evenodd" clip-rule="evenodd" d="M325.039 238.06C324.634 238.353 324.237 238.66 323.848 238.981C323.839 238.531 323.808 238.08 323.755 237.632C324.181 237.783 324.61 237.926 325.039 238.06ZM360.273 275.861C365.265 270.125 367.015 262.629 365.722 255.483C367.89 254.779 369.882 253.511 371.466 251.69C373.159 249.745 374.162 247.425 374.502 245.014C377.948 244.816 381.261 243.328 383.648 240.585C388.497 235.012 387.687 226.368 381.839 221.28C381.417 220.913 380.981 220.575 380.533 220.265C381.893 219.391 383.15 218.315 384.259 217.04C390.857 209.456 389.755 197.695 381.797 190.771C378.701 188.078 375.024 186.513 371.298 186.053C371.389 182.581 370.759 179.072 369.432 175.763C371.73 170.47 370.317 163.93 365.533 159.768C361.324 156.105 355.651 155.282 350.995 157.187C350.207 155.822 349.179 154.556 347.914 153.455C342.066 148.367 333.394 148.76 328.544 154.334C327.813 155.174 327.211 156.084 326.735 157.041C316.498 150.391 302.984 151.792 295.112 160.839C286.455 170.789 287.901 186.219 298.341 195.302C299.058 195.926 299.799 196.504 300.559 197.035C299.397 197.843 298.319 198.803 297.352 199.914C297.258 200.022 297.166 200.13 297.076 200.239C295.224 200.979 293.529 202.147 292.146 203.738C287.296 209.311 288.106 217.954 293.955 223.043C295.699 224.56 297.694 225.59 299.765 226.141L299.813 226.183C300.362 226.661 300.929 227.103 301.512 227.51C300.791 228.048 300.117 228.669 299.504 229.373C294.655 234.947 295.465 243.59 301.313 248.678C305.568 252.381 311.318 253.181 316.003 251.196C313.577 260.29 316.524 270.619 324.401 277.472C335.236 286.9 351.297 286.179 360.273 275.861Z"/>
</mask>
<path fill-rule="evenodd" clip-rule="evenodd" d="M325.039 238.06C324.634 238.353 324.237 238.66 323.848 238.981C323.839 238.531 323.808 238.08 323.755 237.632C324.181 237.783 324.61 237.926 325.039 238.06ZM360.273 275.861C365.265 270.125 367.015 262.629 365.722 255.483C367.89 254.779 369.882 253.511 371.466 251.69C373.159 249.745 374.162 247.425 374.502 245.014C377.948 244.816 381.261 243.328 383.648 240.585C388.497 235.012 387.687 226.368 381.839 221.28C381.417 220.913 380.981 220.575 380.533 220.265C381.893 219.391 383.15 218.315 384.259 217.04C390.857 209.456 389.755 197.695 381.797 190.771C378.701 188.078 375.024 186.513 371.298 186.053C371.389 182.581 370.759 179.072 369.432 175.763C371.73 170.47 370.317 163.93 365.533 159.768C361.324 156.105 355.651 155.282 350.995 157.187C350.207 155.822 349.179 154.556 347.914 153.455C342.066 148.367 333.394 148.76 328.544 154.334C327.813 155.174 327.211 156.084 326.735 157.041C316.498 150.391 302.984 151.792 295.112 160.839C286.455 170.789 287.901 186.219 298.341 195.302C299.058 195.926 299.799 196.504 300.559 197.035C299.397 197.843 298.319 198.803 297.352 199.914C297.258 200.022 297.166 200.13 297.076 200.239C295.224 200.979 293.529 202.147 292.146 203.738C287.296 209.311 288.106 217.954 293.955 223.043C295.699 224.56 297.694 225.59 299.765 226.141L299.813 226.183C300.362 226.661 300.929 227.103 301.512 227.51C300.791 228.048 300.117 228.669 299.504 229.373C294.655 234.947 295.465 243.59 301.313 248.678C305.568 252.381 311.318 253.181 316.003 251.196C313.577 260.29 316.524 270.619 324.401 277.472C335.236 286.9 351.297 286.179 360.273 275.861Z" fill="#296C38"/>
<path d="M323.848 238.981L316.376 239.126L316.676 254.58L328.602 244.747L323.848 238.981ZM325.039 238.06L329.416 244.118L341.516 235.376L327.267 230.927L325.039 238.06ZM323.755 237.632L326.26 230.59L314.919 226.556L316.333 238.509L323.755 237.632ZM365.722 255.483L363.412 248.376L357.206 250.392L358.368 256.814L365.722 255.483ZM360.273 275.861L354.635 270.956L354.635 270.956L360.273 275.861ZM371.466 251.69L377.104 256.595L377.104 256.595L371.466 251.69ZM374.502 245.014L374.075 237.553L367.958 237.903L367.102 243.97L374.502 245.014ZM383.648 240.585L389.286 245.49L389.286 245.49L383.648 240.585ZM381.839 221.28L386.744 215.642L386.744 215.642L381.839 221.28ZM380.533 220.265L376.492 213.979L367.065 220.04L376.284 226.413L380.533 220.265ZM384.259 217.04L389.897 221.946L389.897 221.946L384.259 217.04ZM381.797 190.771L376.892 196.409L376.892 196.409L381.797 190.771ZM371.298 186.053L363.827 185.857L363.649 192.639L370.382 193.47L371.298 186.053ZM369.432 175.763L362.577 172.788L361.334 175.65L362.496 178.546L369.432 175.763ZM365.533 159.768L360.628 165.406L360.628 165.406L365.533 159.768ZM350.995 157.187L344.52 160.92L347.781 166.576L353.824 164.104L350.995 157.187ZM347.914 153.455L343.009 159.094L343.009 159.094L347.914 153.455ZM328.544 154.334L334.182 159.239L334.182 159.239L328.544 154.334ZM326.735 157.041L322.663 163.308L329.694 167.876L333.426 160.369L326.735 157.041ZM295.112 160.839L289.474 155.934L289.474 155.934L295.112 160.839ZM298.341 195.302L303.247 189.664L303.247 189.664L298.341 195.302ZM300.559 197.035L304.824 203.173L313.631 197.054L304.841 190.91L300.559 197.035ZM297.352 199.914L302.989 204.82L302.99 204.82L297.352 199.914ZM297.076 200.239L299.848 207.179L301.616 206.473L302.83 205.007L297.076 200.239ZM292.146 203.738L297.784 208.643L292.146 203.738ZM293.955 223.043L289.049 228.681L289.049 228.681L293.955 223.043ZM299.765 226.141L304.679 220.51L303.367 219.366L301.685 218.918L299.765 226.141ZM299.813 226.183L294.899 231.814L294.908 231.821L299.813 226.183ZM301.512 227.51L305.981 233.499L314.278 227.309L305.79 221.382L301.512 227.51ZM299.504 229.373L305.142 234.279L305.142 234.279L299.504 229.373ZM301.313 248.678L296.408 254.317L296.408 254.317L301.313 248.678ZM316.003 251.196L323.224 253.123L327.165 238.35L313.087 244.315L316.003 251.196ZM324.401 277.472L329.306 271.834L329.306 271.834L324.401 277.472ZM328.602 244.747C328.868 244.528 329.139 244.318 329.416 244.118L320.663 232.003C320.129 232.388 319.606 232.792 319.094 233.215L328.602 244.747ZM316.333 238.509C316.358 238.716 316.372 238.922 316.376 239.126L331.32 238.836C331.306 238.139 331.258 237.445 331.176 236.754L316.333 238.509ZM327.267 230.927C326.93 230.822 326.594 230.709 326.26 230.59L321.25 244.673C321.768 244.857 322.289 245.031 322.812 245.194L327.267 230.927ZM358.368 256.814C359.289 261.902 358.026 267.059 354.635 270.956L365.911 280.767C372.504 273.19 374.741 263.355 373.076 254.153L358.368 256.814ZM365.828 246.785C365.168 247.543 364.343 248.073 363.412 248.376L368.031 262.591C371.437 261.484 374.596 259.478 377.104 256.595L365.828 246.785ZM367.102 243.97C366.955 245.014 366.532 245.976 365.828 246.785L377.104 256.595C379.786 253.513 381.369 249.837 381.902 246.058L367.102 243.97ZM378.01 235.68C377.033 236.802 375.649 237.463 374.075 237.553L374.93 252.475C380.248 252.17 385.49 249.854 389.286 245.49L378.01 235.68ZM376.933 226.918C379.927 229.522 379.93 233.473 378.01 235.68L389.286 245.49C397.064 236.55 395.448 223.214 386.744 215.642L376.933 226.918ZM376.284 226.413C376.504 226.565 376.721 226.733 376.933 226.918L386.744 215.642C386.113 215.093 385.458 214.585 384.783 214.118L376.284 226.413ZM378.621 212.135C377.982 212.869 377.265 213.482 376.492 213.979L384.575 226.551C386.522 225.3 388.317 223.761 389.897 221.946L378.621 212.135ZM376.892 196.409C381.995 200.849 382.29 207.917 378.621 212.135L389.897 221.946C399.424 210.995 397.515 194.541 386.702 185.133L376.892 196.409ZM370.382 193.47C372.654 193.751 374.936 194.708 376.892 196.409L386.702 185.133C382.466 181.447 377.394 179.276 372.214 178.636L370.382 193.47ZM362.496 178.546C363.449 180.92 363.891 183.417 363.827 185.857L378.769 186.249C378.886 181.746 378.07 177.224 376.368 172.981L362.496 178.546ZM360.628 165.406C363.036 167.501 363.534 170.583 362.577 172.788L376.287 178.739C379.926 170.357 377.598 160.358 370.439 154.129L360.628 165.406ZM353.824 164.104C355.836 163.281 358.522 163.573 360.628 165.406L370.439 154.129C364.125 148.637 355.467 147.284 348.165 150.27L353.824 164.104ZM343.009 159.094C343.643 159.645 344.143 160.266 344.52 160.92L357.469 153.455C356.272 151.378 354.715 149.466 352.82 147.817L343.009 159.094ZM334.182 159.239C336.103 157.032 340.015 156.489 343.009 159.094L352.82 147.817C344.116 140.245 330.685 140.488 322.906 149.428L334.182 159.239ZM333.426 160.369C333.623 159.974 333.873 159.595 334.182 159.239L322.906 149.428C321.754 150.753 320.799 152.194 320.043 153.714L333.426 160.369ZM300.75 165.745C305.966 159.749 315.274 158.507 322.663 163.308L330.806 150.774C317.723 142.274 300.001 143.834 289.474 155.934L300.75 165.745ZM303.247 189.664C295.661 183.065 295.022 172.328 300.75 165.745L289.474 155.934C277.888 169.25 280.141 189.373 293.436 200.94L303.247 189.664ZM304.841 190.91C304.296 190.53 303.764 190.115 303.247 189.664L293.436 200.94C294.352 201.738 295.301 202.478 296.278 203.161L304.841 190.91ZM302.99 204.82C303.547 204.179 304.163 203.631 304.824 203.173L296.295 190.898C294.631 192.054 293.09 193.427 291.713 195.009L302.99 204.82ZM302.83 205.007C302.882 204.944 302.935 204.882 302.989 204.82L291.714 195.009C291.581 195.162 291.45 195.316 291.321 195.471L302.83 205.007ZM297.784 208.643C298.363 207.978 299.064 207.492 299.848 207.179L294.303 193.299C291.384 194.465 288.696 196.317 286.507 198.832L297.784 208.643ZM298.86 217.405C295.867 214.8 295.863 210.85 297.784 208.643L286.507 198.832C278.729 207.772 280.346 221.108 289.049 228.681L298.86 217.405ZM301.685 218.918C300.703 218.657 299.732 218.163 298.86 217.405L289.049 228.681C291.666 230.957 294.686 232.523 297.845 233.363L301.685 218.918ZM304.727 220.553L304.679 220.51L294.851 231.771L294.899 231.814L304.727 220.553ZM305.79 221.382C305.425 221.127 305.067 220.848 304.719 220.545L294.908 231.821C295.657 232.473 296.434 233.079 297.233 233.637L305.79 221.382ZM305.142 234.279C305.402 233.98 305.683 233.721 305.981 233.499L297.043 221.52C295.898 222.374 294.831 223.359 293.866 224.468L305.142 234.279ZM306.219 243.04C303.225 240.436 303.222 236.486 305.142 234.279L293.866 224.468C286.088 233.408 287.705 246.744 296.408 254.317L306.219 243.04ZM313.087 244.315C311.069 245.17 308.348 244.893 306.219 243.04L296.408 254.317C302.789 259.868 311.568 261.192 318.918 258.077L313.087 244.315ZM329.306 271.834C323.551 266.827 321.544 259.42 323.224 253.123L308.782 249.27C305.61 261.16 309.497 274.412 319.495 283.11L329.306 271.834ZM354.635 270.956C348.592 277.902 337.291 278.782 329.306 271.834L319.495 283.11C333.181 295.018 354.002 294.455 365.911 280.767L354.635 270.956Z" fill="#07573A" mask="url(#path-6-outside-3_442_12)"/>
<mask id="path-8-outside-4_442_12" maskUnits="userSpaceOnUse" x="272.521" y="146.023" width="117.177" height="120.796" fill="black">
<rect fill="white" x="272.521" y="146.023" width="117.177" height="120.796"/>
<path fill-rule="evenodd" clip-rule="evenodd" d="M362.564 217.008C362.825 217.189 363.08 217.386 363.326 217.6C366.737 220.568 367.21 225.61 364.381 228.862C362.989 230.462 361.056 231.33 359.046 231.446C358.847 232.852 358.262 234.205 357.275 235.34C354.633 238.376 350.048 238.777 346.674 236.4C346.248 237.125 345.75 237.82 345.18 238.475C341 243.28 334.185 244.517 328.39 242.022C325.564 243.519 321.897 243.15 319.233 240.833C315.822 237.865 315.349 232.822 318.178 229.571C318.408 229.307 318.652 229.063 318.909 228.839C318.765 226.799 319.042 224.747 319.755 222.826C318.231 222.371 316.766 221.584 315.474 220.46L315.446 220.436C314.238 220.115 313.074 219.514 312.057 218.628C308.645 215.66 308.172 210.618 311.001 207.366C311.808 206.439 312.797 205.757 313.877 205.325C313.93 205.262 313.984 205.199 314.038 205.136C314.764 204.302 315.598 203.614 316.504 203.073C316.803 202.002 317.201 200.955 317.698 199.944C317.683 199.705 317.673 199.467 317.67 199.228C315.355 198.648 313.119 197.516 311.173 195.823C304.852 190.323 303.973 180.986 309.209 174.967C314.446 168.948 323.815 168.528 330.136 174.027C331.365 175.096 332.389 176.311 333.201 177.618C336.114 175.282 340.483 175.379 343.535 178.034C346.648 180.742 347.314 185.177 345.258 188.403C348.157 186.414 352.247 186.627 355.146 189.15C357.549 191.24 358.494 194.358 357.855 197.155C359.794 197.516 361.684 198.395 363.301 199.803C367.944 203.842 368.586 210.703 364.737 215.127C364.09 215.87 363.357 216.498 362.564 217.008ZM343.18 190.554C343.04 190.65 342.898 190.741 342.753 190.826C342.806 190.888 342.858 190.95 342.91 191.013C342.994 190.858 343.084 190.705 343.18 190.554Z"/>
</mask>
<path fill-rule="evenodd" clip-rule="evenodd" d="M362.564 217.008C362.825 217.189 363.08 217.386 363.326 217.6C366.737 220.568 367.21 225.61 364.381 228.862C362.989 230.462 361.056 231.33 359.046 231.446C358.847 232.852 358.262 234.205 357.275 235.34C354.633 238.376 350.048 238.777 346.674 236.4C346.248 237.125 345.75 237.82 345.18 238.475C341 243.28 334.185 244.517 328.39 242.022C325.564 243.519 321.897 243.15 319.233 240.833C315.822 237.865 315.349 232.822 318.178 229.571C318.408 229.307 318.652 229.063 318.909 228.839C318.765 226.799 319.042 224.747 319.755 222.826C318.231 222.371 316.766 221.584 315.474 220.46L315.446 220.436C314.238 220.115 313.074 219.514 312.057 218.628C308.645 215.66 308.172 210.618 311.001 207.366C311.808 206.439 312.797 205.757 313.877 205.325C313.93 205.262 313.984 205.199 314.038 205.136C314.764 204.302 315.598 203.614 316.504 203.073C316.803 202.002 317.201 200.955 317.698 199.944C317.683 199.705 317.673 199.467 317.67 199.228C315.355 198.648 313.119 197.516 311.173 195.823C304.852 190.323 303.973 180.986 309.209 174.967C314.446 168.948 323.815 168.528 330.136 174.027C331.365 175.096 332.389 176.311 333.201 177.618C336.114 175.282 340.483 175.379 343.535 178.034C346.648 180.742 347.314 185.177 345.258 188.403C348.157 186.414 352.247 186.627 355.146 189.15C357.549 191.24 358.494 194.358 357.855 197.155C359.794 197.516 361.684 198.395 363.301 199.803C367.944 203.842 368.586 210.703 364.737 215.127C364.09 215.87 363.357 216.498 362.564 217.008ZM343.18 190.554C343.04 190.65 342.898 190.741 342.753 190.826C342.806 190.888 342.858 190.95 342.91 191.013C342.994 190.858 343.084 190.705 343.18 190.554Z" fill="#2E7E40"/>
<path d="M363.326 217.6L358.42 223.238L358.42 223.238L363.326 217.6ZM362.564 217.008L358.522 210.722L349.096 216.783L358.314 223.156L362.564 217.008ZM364.381 228.862L370.019 233.767L364.381 228.862ZM359.046 231.446L358.618 223.984L352.501 224.335L351.646 230.402L359.046 231.446ZM357.275 235.34L351.637 230.435L351.637 230.435L357.275 235.34ZM346.674 236.4L350.978 230.291L344.344 225.617L340.231 232.613L346.674 236.4ZM345.18 238.475L350.818 243.381L350.818 243.381L345.18 238.475ZM328.39 242.022L331.346 235.158L328.057 233.742L324.893 235.418L328.39 242.022ZM319.233 240.833L324.139 235.195L324.139 235.195L319.233 240.833ZM318.178 229.571L323.816 234.477L323.816 234.477L318.178 229.571ZM318.909 228.839L323.82 234.472L326.627 232.025L326.364 228.31L318.909 228.839ZM319.755 222.826L326.762 225.427L329.537 217.948L321.894 215.665L319.755 222.826ZM315.474 220.46L310.56 226.091L310.569 226.098L315.474 220.46ZM315.446 220.436L320.36 214.805L319.048 213.661L317.366 213.213L315.446 220.436ZM312.057 218.628L307.151 224.266L307.151 224.266L312.057 218.628ZM311.001 207.366L316.639 212.272L316.639 212.272L311.001 207.366ZM313.877 205.325L316.65 212.265L318.418 211.559L319.632 210.094L313.877 205.325ZM314.038 205.136L319.676 210.042L319.676 210.042L314.038 205.136ZM316.504 203.073L320.331 209.493L322.899 207.962L323.703 205.083L316.504 203.073ZM317.698 199.944L324.404 203.242L325.285 201.451L325.156 199.459L317.698 199.944ZM317.67 199.228L325.142 199.119L325.058 193.376L319.486 191.979L317.67 199.228ZM311.173 195.823L306.268 201.461L306.268 201.461L311.173 195.823ZM309.209 174.967L314.848 179.872L314.848 179.872L309.209 174.967ZM330.136 174.027L325.231 179.665L325.231 179.665L330.136 174.027ZM333.201 177.618L326.855 181.564L331.304 188.719L337.876 183.448L333.201 177.618ZM343.535 178.034L348.44 172.396L348.44 172.396L343.535 178.034ZM345.258 188.403L338.956 184.386L349.486 194.565L345.258 188.403ZM355.146 189.15L350.241 194.788L350.241 194.788L355.146 189.15ZM357.855 197.155L350.569 195.492L348.838 203.078L356.487 204.502L357.855 197.155ZM363.301 199.803L358.396 205.441L358.396 205.441L363.301 199.803ZM364.737 215.127L359.099 210.221L359.099 210.221L364.737 215.127ZM342.753 190.826L338.952 184.392L331.3 188.913L337.067 195.675L342.753 190.826ZM343.18 190.554L349.481 194.572L338.951 184.392L343.18 190.554ZM342.91 191.013L337.146 195.77L344.205 204.321L349.482 194.57L342.91 191.013ZM368.231 211.962C367.776 211.566 367.302 211.199 366.814 210.861L358.314 223.156C358.348 223.179 358.384 223.206 358.42 223.238L368.231 211.962ZM370.019 233.767C375.777 227.149 374.498 217.414 368.231 211.962L358.42 223.238C358.658 223.445 358.738 223.669 358.753 223.822C358.76 223.898 358.749 223.941 358.746 223.951C358.745 223.956 358.747 223.952 358.743 223.956L370.019 233.767ZM359.473 238.907C363.356 238.684 367.217 236.988 370.019 233.767L358.743 223.956C358.738 223.962 358.738 223.962 358.74 223.959C358.743 223.958 358.743 223.958 358.739 223.96C358.73 223.964 358.691 223.98 358.618 223.984L359.473 238.907ZM362.913 240.245C364.889 237.974 366.055 235.264 366.446 232.489L351.646 230.402C351.642 230.427 351.638 230.436 351.639 230.434C351.639 230.433 351.64 230.432 351.64 230.43C351.641 230.429 351.641 230.43 351.637 230.435L362.913 240.245ZM342.37 242.51C348.603 246.901 357.543 246.418 362.913 240.245L351.637 230.435C351.632 230.44 351.635 230.437 351.634 230.437C351.628 230.44 351.596 230.455 351.533 230.461C351.4 230.474 351.194 230.443 350.978 230.291L342.37 242.51ZM350.818 243.381C351.692 242.376 352.459 241.307 353.117 240.188L340.231 232.613C340.037 232.944 339.808 233.264 339.542 233.57L350.818 243.381ZM325.435 248.887C333.937 252.547 344.312 250.859 350.818 243.381L339.542 233.57C337.687 235.702 334.433 236.487 331.346 235.158L325.435 248.887ZM314.328 246.471C319.265 250.766 326.262 251.605 331.887 248.627L324.893 235.418C324.888 235.421 324.808 235.458 324.652 235.439C324.508 235.422 324.326 235.358 324.139 235.195L314.328 246.471ZM312.54 224.666C306.782 231.284 308.061 241.019 314.328 246.471L324.139 235.195C323.901 234.988 323.82 234.764 323.806 234.611C323.799 234.535 323.81 234.492 323.813 234.482C323.814 234.477 323.812 234.481 323.816 234.477L312.54 224.666ZM313.999 223.205C313.484 223.654 312.996 224.142 312.54 224.666L323.816 234.477C323.819 234.473 323.821 234.472 323.82 234.472L313.999 223.205ZM312.749 220.226C311.652 223.183 311.237 226.304 311.455 229.367L326.364 228.31C326.292 227.294 326.433 226.312 326.762 225.427L312.749 220.226ZM310.569 226.098C312.673 227.929 315.084 229.231 317.617 229.987L321.894 215.665C321.377 215.511 320.858 215.239 320.38 214.822L310.569 226.098ZM310.532 226.066L310.56 226.091L320.388 214.83L320.36 214.805L310.532 226.066ZM307.151 224.266C309.041 225.911 311.23 227.048 313.526 227.658L317.366 213.213C317.247 213.182 317.107 213.117 316.962 212.99L307.151 224.266ZM305.363 202.461C299.605 209.079 300.885 218.814 307.151 224.266L316.962 212.99C316.725 212.784 316.644 212.56 316.629 212.406C316.622 212.33 316.633 212.288 316.636 212.277C316.637 212.273 316.635 212.277 316.639 212.272L305.363 202.461ZM311.105 198.385C308.957 199.244 306.975 200.608 305.363 202.461L316.639 212.272C316.642 212.268 316.644 212.267 316.643 212.268C316.643 212.268 316.642 212.269 316.641 212.269C316.64 212.27 316.64 212.27 316.641 212.27C316.642 212.269 316.645 212.268 316.65 212.265L311.105 198.385ZM308.4 200.231C308.306 200.339 308.214 200.447 308.123 200.557L319.632 210.094C319.646 210.076 319.661 210.059 319.676 210.042L308.4 200.231ZM312.678 196.654C311.102 197.593 309.654 198.789 308.4 200.231L319.676 210.042C319.874 209.814 320.094 209.634 320.331 209.493L312.678 196.654ZM310.992 196.645C310.288 198.076 309.727 199.556 309.306 201.064L323.703 205.083C323.88 204.449 324.113 203.833 324.404 203.242L310.992 196.645ZM310.197 199.338C310.202 199.702 310.217 200.065 310.241 200.428L325.156 199.459C325.148 199.345 325.144 199.232 325.142 199.119L310.197 199.338ZM319.486 191.979C318.298 191.682 317.125 191.095 316.078 190.185L306.268 201.461C309.114 203.937 312.411 205.615 315.853 206.478L319.486 191.979ZM316.078 190.185C312.608 187.165 312.544 182.52 314.848 179.872L303.571 170.062C295.402 179.451 297.096 193.481 306.268 201.461L316.078 190.185ZM314.848 179.872C317.151 177.225 321.76 176.645 325.231 179.665L335.042 168.389C325.871 160.41 311.741 160.672 303.571 170.062L314.848 179.872ZM325.231 179.665C325.894 180.242 326.432 180.885 326.855 181.564L339.548 173.671C338.345 171.737 336.837 169.951 335.042 168.389L325.231 179.665ZM348.44 172.396C342.808 167.495 334.407 167.071 328.526 171.787L337.876 183.448C337.853 183.467 337.895 183.417 338.055 183.423C338.208 183.428 338.417 183.486 338.63 183.672L348.44 172.396ZM351.559 192.42C355.719 185.895 354.182 177.391 348.44 172.396L338.63 183.672C338.847 183.861 338.933 184.064 338.957 184.215C338.982 184.372 338.938 184.415 338.956 184.386L351.559 192.42ZM360.052 183.512C354.69 178.846 346.852 178.245 341.029 182.241L349.486 194.565C349.471 194.576 349.529 194.529 349.69 194.54C349.84 194.55 350.038 194.611 350.241 194.788L360.052 183.512ZM365.141 198.818C366.399 193.31 364.514 187.394 360.052 183.512L350.241 194.788C350.584 195.086 350.589 195.406 350.569 195.492L365.141 198.818ZM368.207 194.164C365.568 191.869 362.453 190.409 359.223 189.808L356.487 204.502C357.135 204.623 357.799 204.921 358.396 205.441L368.207 194.164ZM370.375 220.032C377.154 212.241 375.704 200.688 368.207 194.164L358.396 205.441C360.183 206.996 360.019 209.164 359.099 210.221L370.375 220.032ZM366.606 223.294C367.986 222.407 369.258 221.316 370.375 220.032L359.099 210.221C358.922 210.425 358.729 210.589 358.522 210.722L366.606 223.294ZM346.555 197.26C346.844 197.09 347.129 196.908 347.408 196.717L338.951 184.392L338.952 184.392L346.555 197.26ZM348.673 186.255C348.596 186.162 348.518 186.069 348.44 185.977L337.067 195.675C337.093 195.707 337.12 195.739 337.146 195.77L348.673 186.255ZM336.878 186.537C336.686 186.838 336.506 187.145 336.337 187.456L349.482 194.57C349.482 194.571 349.482 194.571 349.481 194.572L336.878 186.537Z" fill="#0A5F40" mask="url(#path-8-outside-4_442_12)"/>
<path d="M107.751 140.07L140.991 170.454L152.96 170.229L166.095 153.754L156.45 141.348L132.15 121.974L115.169 101.024L106.186 91.1675L90.4903 76.6326L75.8692 64.9752L64.927 89.2612L90.8753 103.44L100.063 119.97L107.751 140.07Z" fill="#664D3B" stroke="#624530" stroke-width="7.47332"/>
<mask id="path-11-outside-5_442_12" maskUnits="userSpaceOnUse" x="-8.58386" y="32.9988" width="346.329" height="344.331" fill="black">
<rect fill="white" x="-8.58386" y="32.9988" width="346.329" height="344.331"/>
<path fill-rule="evenodd" clip-rule="evenodd" d="M56.0143 215.911C45.192 206.149 39.7152 191.457 42.8963 176.708C47.7274 154.309 70.6972 140.261 94.2008 145.33C97.1891 145.975 100.042 146.897 102.736 148.063C113.859 137.359 128.367 130.158 144.232 127.699C142.598 122.818 142.211 117.503 143.359 112.178C146.91 95.7171 163.791 85.3929 181.064 89.1184C193.152 91.7256 202.228 100.523 205.371 111.211C212.697 104.576 223.278 101.467 234.011 103.782C243.362 105.798 250.911 111.52 255.305 118.955C259.061 117.917 263.154 117.749 267.277 118.638C280.352 121.459 288.773 133.846 286.085 146.307C285.449 149.26 284.245 151.952 282.605 154.304C296.857 165.369 304.376 183.419 300.467 201.543C294.998 226.899 269.212 242.901 242.621 237.615C242.56 237.922 242.497 238.229 242.431 238.536C239.271 253.184 230.199 265.11 218.074 272.565C224.656 279.661 227.801 289.494 225.673 299.362C222.123 315.823 205.242 326.147 187.969 322.422C184.235 321.616 180.788 320.22 177.714 318.36C170.513 327.285 158.283 331.882 145.851 329.201C131.722 326.154 121.707 314.65 120.472 301.554C114.183 296.409 109.067 290.096 105.43 283.065C97.4844 286.245 88.4218 287.166 79.2783 285.194C55.7747 280.125 40.6376 257.857 45.4686 235.459C47.1133 227.833 50.86 221.176 56.0143 215.911Z"/>
</mask>
<path fill-rule="evenodd" clip-rule="evenodd" d="M56.0143 215.911C45.192 206.149 39.7152 191.457 42.8963 176.708C47.7274 154.309 70.6972 140.261 94.2008 145.33C97.1891 145.975 100.042 146.897 102.736 148.063C113.859 137.359 128.367 130.158 144.232 127.699C142.598 122.818 142.211 117.503 143.359 112.178C146.91 95.7171 163.791 85.3929 181.064 89.1184C193.152 91.7256 202.228 100.523 205.371 111.211C212.697 104.576 223.278 101.467 234.011 103.782C243.362 105.798 250.911 111.52 255.305 118.955C259.061 117.917 263.154 117.749 267.277 118.638C280.352 121.459 288.773 133.846 286.085 146.307C285.449 149.26 284.245 151.952 282.605 154.304C296.857 165.369 304.376 183.419 300.467 201.543C294.998 226.899 269.212 242.901 242.621 237.615C242.56 237.922 242.497 238.229 242.431 238.536C239.271 253.184 230.199 265.11 218.074 272.565C224.656 279.661 227.801 289.494 225.673 299.362C222.123 315.823 205.242 326.147 187.969 322.422C184.235 321.616 180.788 320.22 177.714 318.36C170.513 327.285 158.283 331.882 145.851 329.201C131.722 326.154 121.707 314.65 120.472 301.554C114.183 296.409 109.067 290.096 105.43 283.065C97.4844 286.245 88.4218 287.166 79.2783 285.194C55.7747 280.125 40.6376 257.857 45.4686 235.459C47.1133 227.833 50.86 221.176 56.0143 215.911Z" fill="#296C38"/>
<path d="M42.8963 176.708L35.591 175.132L35.591 175.132L42.8963 176.708ZM56.0143 215.911L61.3545 221.139L66.8006 215.576L61.02 210.362L56.0143 215.911ZM94.2008 145.33L92.6252 152.636L92.6252 152.636L94.2008 145.33ZM102.736 148.063L99.7687 154.922L104.334 156.897L107.918 153.448L102.736 148.063ZM144.232 127.699L145.377 135.084L154.132 133.726L151.319 125.325L144.232 127.699ZM143.359 112.178L150.665 113.754L150.665 113.754L143.359 112.178ZM181.064 89.1184L182.639 81.8131L182.639 81.8131L181.064 89.1184ZM205.371 111.211L198.202 113.32L201.562 124.744L210.388 116.75L205.371 111.211ZM234.011 103.782L235.586 96.4763L235.586 96.4763L234.011 103.782ZM255.305 118.955L248.871 122.757L251.781 127.681L257.294 126.158L255.305 118.955ZM267.277 118.638L268.852 111.333L268.852 111.333L267.277 118.638ZM286.085 146.307L278.78 144.731L278.78 144.731L286.085 146.307ZM282.605 154.304L276.475 150.029L272.413 155.853L278.022 160.207L282.605 154.304ZM300.467 201.543L293.162 199.968L293.162 199.968L300.467 201.543ZM242.621 237.615L244.078 230.285L236.736 228.826L235.289 236.17L242.621 237.615ZM242.431 238.536L249.736 240.112L249.736 240.112L242.431 238.536ZM218.074 272.565L214.16 266.198L206.401 270.969L212.595 277.647L218.074 272.565ZM225.673 299.362L232.978 300.938L232.978 300.938L225.673 299.362ZM187.969 322.422L186.393 329.727L186.393 329.727L187.969 322.422ZM177.714 318.36L181.584 311.966L175.998 308.585L171.898 313.667L177.714 318.36ZM145.851 329.201L144.275 336.506L144.275 336.506L145.851 329.201ZM120.472 301.554L127.912 300.853L127.619 297.746L125.205 295.77L120.472 301.554ZM105.43 283.065L112.068 279.631L108.951 273.605L102.653 276.126L105.43 283.065ZM79.2783 285.194L77.7027 292.499L79.2783 285.194ZM45.4686 235.459L38.1633 233.883L38.1633 233.883L45.4686 235.459ZM35.591 175.132C31.798 192.718 38.3737 210.063 51.0086 221.46L61.02 210.362C52.0102 202.235 47.6324 190.196 50.2017 178.284L35.591 175.132ZM95.7765 138.025C68.5737 132.158 41.3629 148.371 35.591 175.132L50.2017 178.284C54.0919 160.247 72.8207 148.364 92.6252 152.636L95.7765 138.025ZM105.703 141.204C102.563 139.845 99.244 138.773 95.7765 138.025L92.6252 152.636C95.1342 153.177 97.5212 153.949 99.7687 154.922L105.703 141.204ZM143.088 120.313C125.729 123.004 109.804 130.89 97.5541 142.678L107.918 153.448C117.913 143.829 131.004 137.312 145.377 135.084L143.088 120.313ZM136.054 110.602C134.612 117.29 135.102 123.969 137.146 130.072L151.319 125.325C150.094 121.668 149.81 117.716 150.665 113.754L136.054 110.602ZM182.639 81.8131C161.667 77.2897 140.545 89.7793 136.054 110.602L150.665 113.754C153.274 101.655 165.914 93.4961 179.488 96.4238L182.639 81.8131ZM212.541 109.103C208.619 95.766 197.38 84.9925 182.639 81.8131L179.488 96.4238C188.923 98.4588 195.837 105.28 198.202 113.32L212.541 109.103ZM235.586 96.4763C222.492 93.6521 209.459 97.4261 200.355 105.672L210.388 116.75C215.936 111.726 224.064 109.282 232.435 111.087L235.586 96.4763ZM261.738 115.153C256.296 105.944 246.997 98.9375 235.586 96.4763L232.435 111.087C239.726 112.659 245.525 117.095 248.871 122.757L261.738 115.153ZM268.852 111.333C263.534 110.186 258.218 110.397 253.315 111.751L257.294 126.158C259.904 125.438 262.774 125.312 265.701 125.944L268.852 111.333ZM293.391 147.883C297.019 131.06 285.627 114.951 268.852 111.333L265.701 125.944C275.077 127.966 280.527 136.633 278.78 144.731L293.391 147.883ZM288.734 158.579C290.928 155.434 292.54 151.828 293.391 147.883L278.78 144.731C278.357 146.693 277.562 148.471 276.475 150.029L288.734 158.579ZM307.772 203.119C312.34 181.94 303.504 161.069 287.188 148.401L278.022 160.207C290.209 169.669 296.412 184.897 293.162 199.968L307.772 203.119ZM241.164 244.945C271.421 250.959 301.373 232.789 307.772 203.119L293.162 199.968C288.624 221.009 267.003 234.842 244.078 230.285L241.164 244.945ZM249.736 240.112C249.812 239.762 249.884 239.411 249.953 239.061L235.289 236.17C235.237 236.433 235.182 236.697 235.125 236.961L249.736 240.112ZM221.988 278.931C235.729 270.484 246.118 256.887 249.736 240.112L235.125 236.961C232.425 249.482 224.669 259.737 214.16 266.198L221.988 278.931ZM232.978 300.938C235.662 288.495 231.657 276.22 223.554 267.483L212.595 277.647C217.655 283.102 219.941 290.493 218.368 297.786L232.978 300.938ZM186.393 329.727C207.366 334.25 228.487 321.761 232.978 300.938L218.368 297.786C215.758 309.885 203.119 318.044 189.545 315.116L186.393 329.727ZM173.845 324.753C177.621 327.039 181.842 328.745 186.393 329.727L189.545 315.116C186.627 314.487 183.955 313.401 181.584 311.966L173.845 324.753ZM144.275 336.506C159.434 339.776 174.535 334.202 183.53 323.053L171.898 313.667C166.491 320.369 157.133 323.989 147.426 321.896L144.275 336.506ZM113.032 302.256C114.583 318.704 127.068 332.795 144.275 336.506L147.426 321.896C136.376 319.512 128.831 310.596 127.912 300.853L113.032 302.256ZM125.205 295.77C119.694 291.262 115.231 285.746 112.068 279.631L98.792 286.498C102.903 294.446 108.672 301.555 115.74 307.338L125.205 295.77ZM77.7027 292.499C88.3241 294.79 98.9015 293.728 108.207 290.003L102.653 276.126C96.0673 278.762 88.5194 279.542 80.854 277.889L77.7027 292.499ZM38.1633 233.883C32.3914 260.644 50.4999 286.632 77.7027 292.499L80.854 277.889C61.0495 273.617 48.8838 255.071 52.774 237.034L38.1633 233.883ZM50.6741 210.683C44.5751 216.913 40.1176 224.822 38.1633 233.883L52.774 237.034C54.1089 230.845 57.1449 225.439 61.3545 221.139L50.6741 210.683Z" fill="#07573A" mask="url(#path-11-outside-5_442_12)"/>
<mask id="path-13-outside-6_442_12" maskUnits="userSpaceOnUse" x="41.5963" y="74.3006" width="261.887" height="263.385" fill="black">
<rect fill="white" x="41.5963" y="74.3006" width="261.887" height="263.385"/>
<path fill-rule="evenodd" clip-rule="evenodd" d="M81.5619 199.049C81.007 195.625 81.0685 192.062 81.8381 188.493C85.2955 172.464 101.734 162.41 118.555 166.038C120.548 166.468 122.457 167.071 124.268 167.826C132.357 158.353 144.211 152.253 157.222 151.122C156.315 147.429 156.21 143.509 157.057 139.582C160.173 125.135 175 116.076 190.173 119.348C203.282 122.176 212.361 133.283 212.58 145.57C214.534 146.606 216.302 147.896 217.844 149.382C222.256 140.589 232.565 135.585 243.077 137.852C255.439 140.519 263.4 152.23 260.859 164.01C260.451 165.903 259.797 167.681 258.935 169.324C270.801 172.338 278.334 183.775 275.852 195.279C273.312 207.059 261.231 214.448 248.869 211.781C247.457 211.477 246.102 211.054 244.813 210.527C241.001 213.851 236.332 216.221 231.243 217.369C231.566 221.024 231.354 224.774 230.544 228.528C226.958 245.155 212.727 256.881 196.018 258.71C198.072 262.889 198.788 267.693 197.749 272.508C195.209 284.288 183.128 291.677 170.766 289.01C170.652 288.986 170.538 288.96 170.424 288.934C165.184 294.561 156.964 297.346 148.616 295.545C136.254 292.879 128.293 281.168 130.834 269.388C130.918 268.996 131.013 268.609 131.119 268.227C131.062 268.215 131.006 268.203 130.949 268.19C120.841 266.01 112.944 259.289 109.141 250.796C104.95 251.628 100.492 251.634 96.0071 250.666C79.1866 247.038 68.3536 231.103 71.811 215.073C73.2112 208.581 76.7405 203.069 81.5619 199.049Z"/>
</mask>
<path fill-rule="evenodd" clip-rule="evenodd" d="M81.5619 199.049C81.007 195.625 81.0685 192.062 81.8381 188.493C85.2955 172.464 101.734 162.41 118.555 166.038C120.548 166.468 122.457 167.071 124.268 167.826C132.357 158.353 144.211 152.253 157.222 151.122C156.315 147.429 156.21 143.509 157.057 139.582C160.173 125.135 175 116.076 190.173 119.348C203.282 122.176 212.361 133.283 212.58 145.57C214.534 146.606 216.302 147.896 217.844 149.382C222.256 140.589 232.565 135.585 243.077 137.852C255.439 140.519 263.4 152.23 260.859 164.01C260.451 165.903 259.797 167.681 258.935 169.324C270.801 172.338 278.334 183.775 275.852 195.279C273.312 207.059 261.231 214.448 248.869 211.781C247.457 211.477 246.102 211.054 244.813 210.527C241.001 213.851 236.332 216.221 231.243 217.369C231.566 221.024 231.354 224.774 230.544 228.528C226.958 245.155 212.727 256.881 196.018 258.71C198.072 262.889 198.788 267.693 197.749 272.508C195.209 284.288 183.128 291.677 170.766 289.01C170.652 288.986 170.538 288.96 170.424 288.934C165.184 294.561 156.964 297.346 148.616 295.545C136.254 292.879 128.293 281.168 130.834 269.388C130.918 268.996 131.013 268.609 131.119 268.227C131.062 268.215 131.006 268.203 130.949 268.19C120.841 266.01 112.944 259.289 109.141 250.796C104.95 251.628 100.492 251.634 96.0071 250.666C79.1866 247.038 68.3536 231.103 71.811 215.073C73.2112 208.581 76.7405 203.069 81.5619 199.049Z" fill="#2E7E40"/>
<path d="M81.8381 188.493L74.5327 186.918L74.5327 186.918L81.8381 188.493ZM81.5619 199.049L86.3475 204.79L89.6208 202.061L88.939 197.854L81.5619 199.049ZM118.555 166.038L116.979 173.343L116.979 173.343L118.555 166.038ZM124.268 167.826L121.392 174.724L126.417 176.819L129.952 172.679L124.268 167.826ZM157.222 151.122L157.869 158.568L166.56 157.812L164.48 149.34L157.222 151.122ZM157.057 139.582L164.362 141.158L164.362 141.158L157.057 139.582ZM190.173 119.348L191.749 112.043L191.749 112.043L190.173 119.348ZM212.58 145.57L205.107 145.702L205.186 150.108L209.079 152.172L212.58 145.57ZM217.844 149.382L212.657 154.763L219.969 161.811L224.524 152.734L217.844 149.382ZM243.077 137.852L244.653 130.547L244.653 130.547L243.077 137.852ZM260.859 164.01L253.554 162.435L253.554 162.435L260.859 164.01ZM258.935 169.324L252.318 165.85L247.916 174.235L257.095 176.567L258.935 169.324ZM275.852 195.279L283.158 196.854L283.158 196.854L275.852 195.279ZM248.869 211.781L250.445 204.476L250.445 204.476L248.869 211.781ZM244.813 210.527L247.644 203.61L243.377 201.863L239.901 204.894L244.813 210.527ZM231.243 217.369L229.598 210.079L223.223 211.517L223.799 218.027L231.243 217.369ZM230.544 228.528L223.239 226.952L223.239 226.952L230.544 228.528ZM196.018 258.71L195.205 251.281L184.61 252.441L189.311 262.006L196.018 258.71ZM197.749 272.508L190.444 270.932L190.444 270.932L197.749 272.508ZM170.766 289.01L172.342 281.705L172.342 281.705L170.766 289.01ZM170.424 288.934L172.104 281.652L167.898 280.682L164.955 283.841L170.424 288.934ZM148.616 295.545L147.04 302.851L147.04 302.851L148.616 295.545ZM130.834 269.388L123.529 267.812L123.529 267.812L130.834 269.388ZM131.119 268.227L138.323 270.213L140.436 262.548L132.656 260.913L131.119 268.227ZM130.949 268.19L129.373 275.496L129.373 275.496L130.949 268.19ZM109.141 250.796L115.962 247.743L113.529 242.306L107.687 243.466L109.141 250.796ZM96.0071 250.666L97.5828 243.361L97.5828 243.361L96.0071 250.666ZM71.811 215.073L64.5057 213.497L64.5057 213.497L71.811 215.073ZM74.5327 186.918C73.5624 191.417 73.484 195.921 74.1849 200.245L88.939 197.854C88.5299 195.33 88.5745 192.707 89.1434 190.069L74.5327 186.918ZM120.13 158.732C99.6104 154.307 78.931 166.526 74.5327 186.918L89.1434 190.069C91.66 178.401 103.857 170.513 116.979 173.343L120.13 158.732ZM127.145 160.928C124.915 159.998 122.57 159.259 120.13 158.732L116.979 173.343C118.526 173.677 120 174.143 121.392 174.724L127.145 160.928ZM156.575 143.677C141.66 144.974 127.98 151.971 118.585 162.973L129.952 172.679C136.735 164.735 146.763 159.533 157.869 158.568L156.575 143.677ZM149.752 138.007C148.659 143.074 148.795 148.143 149.964 152.905L164.48 149.34C163.835 146.715 163.762 143.943 164.362 141.158L149.752 138.007ZM191.749 112.043C172.882 107.974 153.81 119.191 149.752 138.007L164.362 141.158C166.536 131.078 177.117 124.177 188.597 126.653L191.749 112.043ZM220.052 145.437C219.769 129.521 208.092 115.568 191.749 112.043L188.597 126.653C198.472 128.783 204.954 137.045 205.107 145.702L220.052 145.437ZM223.03 144.002C220.989 142.034 218.655 140.332 216.08 138.967L209.079 152.172C210.414 152.88 211.614 153.757 212.657 154.763L223.03 144.002ZM244.653 130.547C230.949 127.591 217.167 134.066 211.164 146.031L224.524 152.734C227.344 147.113 234.181 143.579 241.502 145.158L244.653 130.547ZM268.165 165.586C271.646 149.443 260.714 134.011 244.653 130.547L241.502 145.158C250.164 147.026 255.154 155.016 253.554 162.435L268.165 165.586ZM265.552 172.797C266.724 170.564 267.612 168.147 268.165 165.586L253.554 162.435C253.29 163.658 252.869 164.799 252.318 165.85L265.552 172.797ZM283.158 196.854C286.557 181.095 276.208 166.001 260.775 162.08L257.095 176.567C265.393 178.675 270.11 186.455 268.547 193.703L283.158 196.854ZM247.294 219.087C263.354 222.551 279.676 212.997 283.158 196.854L268.547 193.703C266.947 201.121 259.107 206.344 250.445 204.476L247.294 219.087ZM241.982 217.443C243.675 218.136 245.45 218.689 247.294 219.087L250.445 204.476C249.463 204.264 248.528 203.972 247.644 203.61L241.982 217.443ZM232.888 224.659C239.168 223.242 244.964 220.311 249.725 216.159L239.901 204.894C237.038 207.391 233.496 209.199 229.598 210.079L232.888 224.659ZM237.85 230.104C238.82 225.606 239.076 221.102 238.687 216.711L223.799 218.027C224.057 220.946 223.888 223.942 223.239 226.952L237.85 230.104ZM196.832 266.139C216.444 263.992 233.525 250.156 237.85 230.104L223.239 226.952C220.392 240.154 209.009 249.77 195.205 251.281L196.832 266.139ZM205.055 274.083C206.467 267.535 205.481 261.021 202.725 255.414L189.311 262.006C190.663 264.758 191.109 267.85 190.444 270.932L205.055 274.083ZM169.191 296.316C185.251 299.78 201.573 290.226 205.055 274.083L190.444 270.932C188.844 278.35 181.004 283.573 172.342 281.705L169.191 296.316ZM168.745 296.216C168.893 296.25 169.041 296.284 169.191 296.316L172.342 281.705C172.262 281.688 172.183 281.67 172.104 281.652L168.745 296.216ZM147.04 302.851C157.951 305.204 168.851 301.589 175.893 294.027L164.955 283.841C161.518 287.532 155.977 289.488 150.191 288.24L147.04 302.851ZM123.529 267.812C120.047 283.954 130.979 299.387 147.04 302.851L150.191 288.24C141.529 286.372 136.539 278.382 138.139 270.963L123.529 267.812ZM123.914 266.24C123.771 266.758 123.643 267.282 123.529 267.812L138.139 270.963C138.194 270.709 138.255 270.459 138.323 270.213L123.914 266.24ZM132.656 260.913C132.612 260.904 132.568 260.895 132.525 260.885L129.373 275.496C129.443 275.511 129.512 275.526 129.582 275.54L132.656 260.913ZM132.525 260.885C124.751 259.208 118.796 254.072 115.962 247.743L102.321 253.85C107.091 264.506 116.931 272.812 129.373 275.496L132.525 260.885ZM94.4315 257.972C99.9258 259.157 105.415 259.155 110.596 258.127L107.687 243.466C104.485 244.101 101.058 244.11 97.5828 243.361L94.4315 257.972ZM64.5057 213.497C60.1074 233.889 73.9118 253.546 94.4315 257.972L97.5828 243.361C84.4614 240.531 76.5998 228.316 79.1163 216.648L64.5057 213.497ZM76.7764 193.309C70.7431 198.339 66.2761 205.289 64.5057 213.497L79.1163 216.648C80.1463 211.873 82.7378 207.799 86.3475 204.79L76.7764 193.309Z" fill="#0A5F40" mask="url(#path-13-outside-6_442_12)"/>
<mask id="path-15-outside-7_442_12" maskUnits="userSpaceOnUse" x="98.0695" y="134.401" width="146.365" height="147.364" fill="black">
<rect fill="white" x="98.0695" y="134.401" width="146.365" height="147.364"/>
<path fill-rule="evenodd" clip-rule="evenodd" d="M128.777 237.569C128.518 237.525 128.259 237.475 127.999 237.42C119.141 235.509 113.437 227.117 115.257 218.675C116.531 212.769 121.151 208.404 126.845 206.968C126.565 205.186 126.601 203.333 127.002 201.477C128.822 193.035 137.479 187.741 146.337 189.652C146.658 189.721 146.975 189.798 147.287 189.884C151.422 183.292 158.649 178.958 166.722 178.257C166.245 176.312 166.189 174.247 166.635 172.18C168.276 164.571 176.084 159.8 184.075 161.524C189.485 162.691 193.592 166.535 195.171 171.258C196.67 171.013 198.25 171.041 199.838 171.383C205.608 172.628 209.557 177.614 209.449 183.051C212.194 180.737 216.037 179.68 219.934 180.52C226.444 181.925 230.637 188.092 229.299 194.296C228.071 199.989 222.611 203.735 216.689 203.227C216.854 204.458 216.813 205.732 216.537 207.008C215.374 212.401 210.414 216.047 204.86 215.984C205.254 217.576 205.301 219.267 204.935 220.961C203.597 227.164 197.235 231.055 190.726 229.651C188.619 229.197 186.756 228.244 185.244 226.953C183.389 230.022 180.735 232.52 177.6 234.252C179.198 236.71 179.857 239.721 179.206 242.74C177.868 248.944 171.506 252.835 164.996 251.431C161.674 250.714 158.955 248.757 157.267 246.188C153.052 248.014 148.177 248.585 143.257 247.523C136.996 246.173 131.892 242.447 128.777 237.569Z"/>
</mask>
<path fill-rule="evenodd" clip-rule="evenodd" d="M128.777 237.569C128.518 237.525 128.259 237.475 127.999 237.42C119.141 235.509 113.437 227.117 115.257 218.675C116.531 212.769 121.151 208.404 126.845 206.968C126.565 205.186 126.601 203.333 127.002 201.477C128.822 193.035 137.479 187.741 146.337 189.652C146.658 189.721 146.975 189.798 147.287 189.884C151.422 183.292 158.649 178.958 166.722 178.257C166.245 176.312 166.189 174.247 166.635 172.18C168.276 164.571 176.084 159.8 184.075 161.524C189.485 162.691 193.592 166.535 195.171 171.258C196.67 171.013 198.25 171.041 199.838 171.383C205.608 172.628 209.557 177.614 209.449 183.051C212.194 180.737 216.037 179.68 219.934 180.52C226.444 181.925 230.637 188.092 229.299 194.296C228.071 199.989 222.611 203.735 216.689 203.227C216.854 204.458 216.813 205.732 216.537 207.008C215.374 212.401 210.414 216.047 204.86 215.984C205.254 217.576 205.301 219.267 204.935 220.961C203.597 227.164 197.235 231.055 190.726 229.651C188.619 229.197 186.756 228.244 185.244 226.953C183.389 230.022 180.735 232.52 177.6 234.252C179.198 236.71 179.857 239.721 179.206 242.74C177.868 248.944 171.506 252.835 164.996 251.431C161.674 250.714 158.955 248.757 157.267 246.188C153.052 248.014 148.177 248.585 143.257 247.523C136.996 246.173 131.892 242.447 128.777 237.569Z" fill="#339048"/>
<path d="M127.999 237.42L126.424 244.725L126.424 244.725L127.999 237.42ZM128.777 237.569L135.075 233.547L133.29 230.752L130.02 230.2L128.777 237.569ZM115.257 218.675L122.563 220.251L122.563 220.251L115.257 218.675ZM126.845 206.968L128.672 214.215L135.289 212.547L134.228 205.806L126.845 206.968ZM127.002 201.477L119.696 199.901L119.696 199.901L127.002 201.477ZM146.337 189.652L147.913 182.346L147.913 182.346L146.337 189.652ZM147.287 189.884L145.305 197.09L150.665 198.564L153.618 193.855L147.287 189.884ZM166.722 178.257L167.369 185.702L176.06 184.947L173.98 176.475L166.722 178.257ZM166.635 172.18L173.941 173.755L173.941 173.755L166.635 172.18ZM184.075 161.524L185.651 154.218L185.651 154.218L184.075 161.524ZM195.171 171.258L188.083 173.628L190.099 179.656L196.373 178.634L195.171 171.258ZM199.838 171.383L201.413 164.078L201.413 164.078L199.838 171.383ZM209.449 183.051L201.977 182.902L201.648 199.404L214.266 188.765L209.449 183.051ZM219.934 180.52L221.51 173.215L221.51 173.215L219.934 180.52ZM229.299 194.296L221.993 192.72L221.993 192.72L229.299 194.296ZM216.689 203.227L217.328 195.781L208.049 194.986L209.282 204.217L216.689 203.227ZM216.537 207.008L209.232 205.432L209.232 205.432L216.537 207.008ZM204.86 215.984L204.944 208.511L195.287 208.403L197.605 217.778L204.86 215.984ZM204.935 220.961L212.241 222.536L212.241 222.536L204.935 220.961ZM190.726 229.651L192.301 222.346L192.301 222.346L190.726 229.651ZM185.244 226.953L190.097 221.27L183.401 215.551L178.847 223.088L185.244 226.953ZM177.6 234.252L173.986 227.711L166.955 231.595L171.335 238.328L177.6 234.252ZM179.206 242.74L186.511 244.316L186.511 244.316L179.206 242.74ZM164.996 251.431L163.42 258.736L163.42 258.736L164.996 251.431ZM157.267 246.188L163.513 242.084L160.062 236.831L154.295 239.33L157.267 246.188ZM143.257 247.523L144.832 240.218L143.257 247.523ZM126.424 244.725C126.793 244.805 127.163 244.876 127.533 244.938L130.02 230.2C129.873 230.175 129.724 230.146 129.575 230.114L126.424 244.725ZM107.952 217.1C105.19 229.903 113.867 242.016 126.424 244.725L129.575 230.114C124.416 229.001 121.683 224.33 122.563 220.251L107.952 217.1ZM125.018 199.722C116.817 201.789 109.877 208.173 107.952 217.1L122.563 220.251C123.185 217.365 125.486 215.018 128.672 214.215L125.018 199.722ZM119.696 199.901C119.098 202.676 119.042 205.457 119.463 208.13L134.228 205.806C134.087 204.914 134.105 203.99 134.307 203.053L119.696 199.901ZM147.913 182.346C135.356 179.638 122.458 187.098 119.696 199.901L134.307 203.053C135.187 198.973 139.603 195.844 144.762 196.957L147.913 182.346ZM149.269 182.679C148.822 182.556 148.37 182.445 147.913 182.346L144.761 196.957C144.946 196.997 145.127 197.041 145.305 197.09L149.269 182.679ZM166.075 170.811C155.771 171.707 146.39 177.25 140.956 185.913L153.618 193.855C156.454 189.335 161.528 186.21 167.369 185.702L166.075 170.811ZM159.33 170.604C158.638 173.813 158.725 177.026 159.465 180.039L173.98 176.475C173.765 175.598 173.741 174.682 173.941 173.755L159.33 170.604ZM185.651 154.218C173.967 151.698 161.913 158.628 159.33 170.604L173.941 173.755C174.64 170.515 178.202 167.902 182.499 168.829L185.651 154.218ZM202.258 168.888C199.838 161.649 193.627 155.939 185.651 154.218L182.499 168.829C185.343 169.442 187.345 171.421 188.083 173.628L202.258 168.888ZM201.413 164.078C198.902 163.536 196.381 163.489 193.968 163.882L196.373 178.634C196.96 178.538 197.597 178.545 198.262 178.689L201.413 164.078ZM216.921 183.2C217.104 174.007 210.499 166.038 201.413 164.078L198.262 178.689C200.716 179.218 202.01 181.221 201.977 182.902L216.921 183.2ZM221.51 173.215C215.337 171.884 209.135 173.541 204.631 177.338L214.266 188.765C215.252 187.933 216.738 187.476 218.359 187.826L221.51 173.215ZM236.604 195.871C238.883 185.305 231.719 175.417 221.51 173.215L218.359 187.826C221.169 188.432 222.39 190.878 221.993 192.72L236.604 195.871ZM216.051 210.673C225.39 211.474 234.515 205.557 236.604 195.871L221.993 192.72C221.626 194.421 219.832 195.996 217.328 195.781L216.051 210.673ZM223.843 208.583C224.303 206.449 224.373 204.307 224.097 202.238L209.282 204.217C209.334 204.61 209.322 205.015 209.232 205.432L223.843 208.583ZM204.776 223.457C213.561 223.556 221.865 217.753 223.843 208.583L209.232 205.432C208.883 207.049 207.267 208.537 204.944 208.511L204.776 223.457ZM212.241 222.536C212.853 219.697 212.774 216.854 212.115 214.19L197.605 217.778C197.734 218.299 197.748 218.837 197.63 219.385L212.241 222.536ZM189.15 236.957C199.359 239.159 209.962 233.102 212.241 222.536L197.63 219.385C197.233 221.227 195.112 222.952 192.301 222.346L189.15 236.957ZM180.39 232.636C182.831 234.72 185.817 236.238 189.15 236.957L192.301 222.346C191.422 222.156 190.681 221.769 190.097 221.27L180.39 232.636ZM181.213 240.794C185.444 238.456 189.08 235.055 191.64 230.817L178.847 223.088C177.699 224.988 176.026 226.584 173.986 227.711L181.213 240.794ZM186.511 244.316C187.61 239.221 186.475 234.191 183.864 230.177L171.335 238.328C171.921 239.229 172.104 240.22 171.901 241.165L186.511 244.316ZM163.42 258.736C173.629 260.938 184.232 254.882 186.511 244.316L171.901 241.164C171.503 243.006 169.382 244.732 166.572 244.126L163.42 258.736ZM151.021 250.291C153.771 254.477 158.156 257.601 163.42 258.736L166.572 244.126C165.191 243.828 164.139 243.037 163.513 242.084L151.021 250.291ZM154.295 239.33C151.489 240.546 148.204 240.945 144.832 240.218L141.681 254.829C148.15 256.224 154.614 255.482 160.239 253.045L154.295 239.33ZM144.832 240.218C140.545 239.293 137.13 236.765 135.075 233.547L122.478 241.591C126.653 248.129 133.447 253.053 141.681 254.829L144.832 240.218Z" fill="#106B45" mask="url(#path-15-outside-7_442_12)"/>
<mask id="path-17-outside-8_442_12" maskUnits="userSpaceOnUse" x="-14.5115" y="-29.254" width="193.004" height="201.574" fill="black">
<rect fill="white" x="-14.5115" y="-29.254" width="193.004" height="201.574"/>
<path fill-rule="evenodd" clip-rule="evenodd" d="M48.1298 122.416C41.4567 125.738 33.5483 126.086 26.5438 122.666C14.2548 116.665 9.40129 101.338 15.7031 88.4322C17.7745 84.1898 20.7935 80.737 24.3497 78.2262C23.6597 73.1837 24.427 67.8217 26.8678 62.8229C31.8689 52.5805 42.3927 46.9407 52.666 48.048C51.8818 43.872 52.4054 39.3541 54.45 35.1667C58.8511 26.1532 68.7929 21.7555 77.6813 24.4199C77.8568 22.7815 78.3181 21.1365 79.0885 19.5587C82.4899 12.5926 90.629 9.57315 97.2676 12.8146C102.9 15.5646 105.642 21.9373 104.268 28.0601C110.991 17.5241 124.267 13.2945 135.245 18.6546C147.096 24.4413 151.781 39.2135 145.709 51.6493C142.414 58.3969 136.629 63.0702 130.133 65.0093C135.098 70.4784 136.424 78.8761 132.844 86.2082C128.216 95.6871 117.141 99.7957 108.108 95.3849C107.91 95.2886 107.716 95.189 107.524 95.0863C103.609 97.6469 99.2419 99.3583 94.7233 100.108C94.3887 101.517 93.8932 102.915 93.2288 104.276C89.5349 111.841 81.7348 115.985 74.1434 115.108C74.3493 117.604 73.8982 120.214 72.7027 122.663C69.3014 129.629 61.1623 132.648 54.5236 129.407C51.4903 127.926 49.2951 125.394 48.1298 122.416ZM101.456 33.9635C101.28 34.1863 101.099 34.4029 100.912 34.6131C101.015 34.6439 101.118 34.6754 101.221 34.7073C101.295 34.4589 101.374 34.2109 101.456 33.9635Z"/>
</mask>
<path fill-rule="evenodd" clip-rule="evenodd" d="M48.1298 122.416C41.4567 125.738 33.5483 126.086 26.5438 122.666C14.2548 116.665 9.40129 101.338 15.7031 88.4322C17.7745 84.1898 20.7935 80.737 24.3497 78.2262C23.6597 73.1837 24.427 67.8217 26.8678 62.8229C31.8689 52.5805 42.3927 46.9407 52.666 48.048C51.8818 43.872 52.4054 39.3541 54.45 35.1667C58.8511 26.1532 68.7929 21.7555 77.6813 24.4199C77.8568 22.7815 78.3181 21.1365 79.0885 19.5587C82.4899 12.5926 90.629 9.57315 97.2676 12.8146C102.9 15.5646 105.642 21.9373 104.268 28.0601C110.991 17.5241 124.267 13.2945 135.245 18.6546C147.096 24.4413 151.781 39.2135 145.709 51.6493C142.414 58.3969 136.629 63.0702 130.133 65.0093C135.098 70.4784 136.424 78.8761 132.844 86.2082C128.216 95.6871 117.141 99.7957 108.108 95.3849C107.91 95.2886 107.716 95.189 107.524 95.0863C103.609 97.6469 99.2419 99.3583 94.7233 100.108C94.3887 101.517 93.8932 102.915 93.2288 104.276C89.5349 111.841 81.7348 115.985 74.1434 115.108C74.3493 117.604 73.8982 120.214 72.7027 122.663C69.3014 129.629 61.1623 132.648 54.5236 129.407C51.4903 127.926 49.2951 125.394 48.1298 122.416ZM101.456 33.9635C101.28 34.1863 101.099 34.4029 100.912 34.6131C101.015 34.6439 101.118 34.6754 101.221 34.7073C101.295 34.4589 101.374 34.2109 101.456 33.9635Z" fill="#296C38"/>
<path d="M48.1298 122.416L55.0892 119.693L52.1124 112.085L44.7995 115.726L48.1298 122.416ZM26.5438 122.666L23.2648 129.381L23.2648 129.381L26.5438 122.666ZM15.7031 88.4322L22.4186 91.7112L22.4186 91.7112L15.7031 88.4322ZM24.3497 78.2262L28.66 84.3313L32.3697 81.7122L31.754 77.213L24.3497 78.2262ZM26.8678 62.8229L20.1523 59.5438L20.1523 59.5438L26.8678 62.8229ZM52.666 48.048L51.8651 55.4783L61.8677 56.5563L60.0109 46.6686L52.666 48.048ZM54.45 35.1667L61.1656 38.4457L61.1656 38.4457L54.45 35.1667ZM77.6813 24.4199L75.5355 31.5785L84.1537 34.1618L85.1121 25.216L77.6813 24.4199ZM79.0885 19.5587L85.8041 22.8377L85.8041 22.8377L79.0885 19.5587ZM97.2676 12.8146L100.547 6.09911L100.547 6.0991L97.2676 12.8146ZM104.268 28.0601L96.9761 26.4231L110.568 32.0803L104.268 28.0601ZM135.245 18.6546L138.524 11.9391L138.524 11.9391L135.245 18.6546ZM145.709 51.6493L138.993 48.3703L138.993 48.3703L145.709 51.6493ZM130.133 65.0093L127.996 57.8482L116.621 61.2436L124.6 70.0325L130.133 65.0093ZM132.844 86.2082L126.129 82.9292L126.129 82.9292L132.844 86.2082ZM108.108 95.3849L104.828 102.1L104.829 102.1L108.108 95.3849ZM107.524 95.0863L111.05 88.4972L107.142 86.4057L103.432 88.8323L107.524 95.0863ZM94.7233 100.108L93.4993 92.736L88.5999 93.5494L87.4522 98.3816L94.7233 100.108ZM93.2288 104.276L99.9443 107.555L99.9443 107.555L93.2288 104.276ZM74.1434 115.108L75.0012 107.684L65.9461 106.638L66.6954 115.722L74.1434 115.108ZM72.7027 122.663L65.9872 119.384L65.9872 119.384L72.7027 122.663ZM54.5236 129.407L57.8027 122.691L57.8027 122.691L54.5236 129.407ZM100.912 34.6131L95.3251 29.6493L87.5393 38.412L98.7692 41.7727L100.912 34.6131ZM101.456 33.9635L108.548 36.3206L95.5887 29.3346L101.456 33.9635ZM101.221 34.7073L99.0033 41.8441L106.213 44.0843L108.38 36.852L101.221 34.7073ZM44.7995 115.726C40.0396 118.095 34.5787 118.272 29.8228 115.95L23.2648 129.381C32.518 133.899 42.8738 133.38 51.4601 129.106L44.7995 115.726ZM29.8228 115.95C21.5491 111.91 17.7745 101.222 22.4186 91.7112L8.98754 85.1532C1.02808 101.454 6.96059 121.42 23.2648 129.381L29.8228 115.95ZM22.4186 91.7112C23.9309 88.6139 26.1159 86.1275 28.66 84.3313L20.0394 72.1212C15.4712 75.3465 11.6181 79.7656 8.98754 85.1532L22.4186 91.7112ZM20.1523 59.5438C17.0516 65.8941 16.0577 72.7523 16.9454 79.2394L31.754 77.213C31.2617 73.6151 31.8024 69.7494 33.5834 66.1019L20.1523 59.5438ZM53.4668 40.6177C39.9742 39.1635 26.4946 46.5547 20.1523 59.5438L33.5834 66.1019C37.2433 58.6063 44.8112 54.718 51.8651 55.4783L53.4668 40.6177ZM47.7345 31.8876C44.9733 37.5427 44.2448 43.6965 45.321 49.4273L60.0109 46.6686C59.5187 44.0475 59.8375 41.1656 61.1656 38.4457L47.7345 31.8876ZM79.8271 17.2612C67.24 13.4882 53.6508 19.7708 47.7345 31.8876L61.1656 38.4457C64.0513 32.5356 70.3458 30.0229 75.5355 31.5785L79.8271 17.2612ZM72.373 16.2797C71.2182 18.6447 70.5176 21.1307 70.2505 23.6238L85.1121 25.216C85.1961 24.4322 85.418 23.6283 85.8041 22.8377L72.373 16.2797ZM100.547 6.0991C89.8981 0.899665 77.4348 5.91301 72.373 16.2797L85.8041 22.8377C87.5451 19.2721 91.3599 18.2466 93.9886 19.5302L100.547 6.0991ZM111.56 29.6971C113.623 20.5043 109.564 10.502 100.547 6.09911L93.9886 19.5302C96.2354 20.6273 97.6614 23.3703 96.9761 26.4231L111.56 29.6971ZM138.524 11.9391C123.841 4.76993 106.556 10.5821 97.968 24.0399L110.568 32.0803C115.427 24.4662 124.693 21.8192 131.966 25.3701L138.524 11.9391ZM152.424 54.9283C160.157 39.092 154.385 19.6837 138.524 11.9391L131.966 25.3701C139.807 29.1988 143.405 39.335 138.993 48.3703L152.424 54.9283ZM132.271 72.1703C140.746 69.6406 148.203 63.574 152.424 54.9283L138.993 48.3703C136.625 53.2197 132.513 56.4998 127.996 57.8482L132.271 72.1703ZM139.56 89.4872C144.451 79.4706 142.735 67.7723 135.667 59.9861L124.6 70.0325C127.462 73.1846 128.398 78.2815 126.129 82.9292L139.56 89.4872ZM104.829 102.1C117.872 108.469 133.271 102.367 139.56 89.4872L126.129 82.9292C123.161 89.0076 116.41 91.1222 111.387 88.6694L104.829 102.1ZM103.997 101.675C104.271 101.822 104.548 101.964 104.828 102.1L111.387 88.6694C111.272 88.6136 111.16 88.5562 111.05 88.4972L103.997 101.675ZM95.9472 107.481C101.508 106.558 106.849 104.458 111.615 101.34L103.432 88.8323C100.37 90.8356 96.9763 92.1588 93.4993 92.736L95.9472 107.481ZM99.9443 107.555C100.852 105.696 101.533 103.778 101.994 101.835L87.4522 98.3816C87.2444 99.2566 86.9347 100.133 86.5132 100.997L99.9443 107.555ZM73.2856 122.532C84.1151 123.783 94.9003 117.885 99.9443 107.555L86.5132 100.997C84.1695 105.797 79.3545 108.187 75.0012 107.684L73.2856 122.532ZM79.4183 125.942C81.2125 122.267 81.9062 118.31 81.5915 114.494L66.6954 115.722C66.7925 116.899 66.5839 118.162 65.9872 119.384L79.4183 125.942ZM51.2446 136.122C61.8932 141.322 74.3565 136.308 79.4183 125.942L65.9872 119.384C64.2462 122.949 60.4314 123.975 57.8027 122.691L51.2446 136.122ZM41.1703 125.139C42.9754 129.752 46.4241 133.769 51.2446 136.122L57.8027 122.691C56.5565 122.083 55.6147 121.035 55.0892 119.693L41.1703 125.139ZM106.498 39.5769C106.782 39.258 107.057 38.9298 107.323 38.5924L95.5887 29.3346C95.5033 29.4428 95.4154 29.5477 95.3251 29.6493L106.498 39.5769ZM103.438 27.5706C103.311 27.531 103.183 27.492 103.054 27.4535L98.7692 41.7727C98.8469 41.7959 98.9249 41.8197 99.0033 41.8441L103.438 27.5706ZM94.364 31.6063C94.2583 31.9244 94.1576 32.2432 94.0619 32.5627L108.38 36.852C108.433 36.6746 108.489 36.4975 108.548 36.3206L94.364 31.6063Z" fill="#07573A" mask="url(#path-17-outside-8_442_12)"/>
<mask id="path-19-outside-9_442_12" maskUnits="userSpaceOnUse" x="17.1149" y="12.1911" width="117.692" height="125.24" fill="black">
<rect fill="white" x="17.1149" y="12.1911" width="117.692" height="125.24"/>
<path fill-rule="evenodd" clip-rule="evenodd" d="M97.1441 47.8859C99.7877 42.9043 105.729 40.7893 110.593 43.1654C115.564 45.5941 117.526 51.7952 114.975 57.0159C114.009 58.9928 112.535 60.5457 110.806 61.5803C111.254 64.5203 110.831 67.6629 109.402 70.5872C105.81 77.9405 97.2212 81.1285 90.2195 77.7078C90.1559 77.6767 90.0928 77.6452 90.0299 77.6133C89.7418 78.4929 89.3894 79.3643 88.9707 80.2213C87.4373 83.3598 85.2052 85.916 82.5756 87.7782C83.0923 90.2274 82.8145 92.8998 81.6076 95.3701C78.8317 101.052 72.1921 103.513 66.7776 100.868C64.9584 99.979 63.5089 98.6268 62.4914 97.0074C59.0021 100.347 54.0801 101.743 49.4935 100.54C47.5227 104.429 42.936 106.099 39.1891 104.269C35.4066 102.421 33.9124 97.7054 35.8515 93.7364C36.7302 91.9378 38.1632 90.6011 39.8198 89.8491C39.3012 86.9213 39.685 83.7657 41.1155 80.8378C43.2665 76.435 47.2781 73.5829 51.6274 72.8458C51.4489 70.8818 51.7953 68.8232 52.7377 66.8943C53.7 64.9248 55.1507 63.3623 56.8552 62.2939C59.9238 57.3186 64.8662 54.1114 70.1738 53.2317C70.3647 52.4291 70.6472 51.6328 71.026 50.8575C73.1575 46.4947 77.6859 44.1294 82.0609 44.7072C84.2025 41.3258 88.4531 39.9654 91.9656 41.6815C93.6998 42.5288 94.953 43.9789 95.6148 45.6835C96.2567 46.3215 96.7708 47.0695 97.1441 47.8859Z"/>
</mask>
<path fill-rule="evenodd" clip-rule="evenodd" d="M97.1441 47.8859C99.7877 42.9043 105.729 40.7893 110.593 43.1654C115.564 45.5941 117.526 51.7952 114.975 57.0159C114.009 58.9928 112.535 60.5457 110.806 61.5803C111.254 64.5203 110.831 67.6629 109.402 70.5872C105.81 77.9405 97.2212 81.1285 90.2195 77.7078C90.1559 77.6767 90.0928 77.6452 90.0299 77.6133C89.7418 78.4929 89.3894 79.3643 88.9707 80.2213C87.4373 83.3598 85.2052 85.916 82.5756 87.7782C83.0923 90.2274 82.8145 92.8998 81.6076 95.3701C78.8317 101.052 72.1921 103.513 66.7776 100.868C64.9584 99.979 63.5089 98.6268 62.4914 97.0074C59.0021 100.347 54.0801 101.743 49.4935 100.54C47.5227 104.429 42.936 106.099 39.1891 104.269C35.4066 102.421 33.9124 97.7054 35.8515 93.7364C36.7302 91.9378 38.1632 90.6011 39.8198 89.8491C39.3012 86.9213 39.685 83.7657 41.1155 80.8378C43.2665 76.435 47.2781 73.5829 51.6274 72.8458C51.4489 70.8818 51.7953 68.8232 52.7377 66.8943C53.7 64.9248 55.1507 63.3623 56.8552 62.2939C59.9238 57.3186 64.8662 54.1114 70.1738 53.2317C70.3647 52.4291 70.6472 51.6328 71.026 50.8575C73.1575 46.4947 77.6859 44.1294 82.0609 44.7072C84.2025 41.3258 88.4531 39.9654 91.9656 41.6815C93.6998 42.5288 94.953 43.9789 95.6148 45.6835C96.2567 46.3215 96.7708 47.0695 97.1441 47.8859Z" fill="#2E7E40"/>
<path d="M97.1441 47.8859L90.3475 50.9933L96.6455 64.7687L103.746 51.3891L97.1441 47.8859ZM110.593 43.1654L107.312 49.8802L107.312 49.8802L110.593 43.1654ZM114.975 57.0159L121.69 60.2965L121.69 60.2965L114.975 57.0159ZM110.806 61.5803L106.969 55.1672L102.661 57.7447L103.418 62.7074L110.806 61.5803ZM109.402 70.5872L116.117 73.8678L116.117 73.8678L109.402 70.5872ZM90.2195 77.7078L93.5001 70.993L93.4999 70.9929L90.2195 77.7078ZM90.0299 77.6133L93.4139 70.95L85.6416 67.0029L82.928 75.2868L90.0299 77.6133ZM88.9707 80.2213L82.2559 76.9407L82.2559 76.9407L88.9707 80.2213ZM82.5756 87.7782L78.2566 81.6793L74.2498 84.5167L75.2632 89.3207L82.5756 87.7782ZM81.6076 95.3701L74.8928 92.0895L74.8928 92.0895L81.6076 95.3701ZM66.7776 100.868L63.497 107.583L63.497 107.583L66.7776 100.868ZM62.4914 97.0074L68.8192 93.0314L63.9439 85.2724L57.324 91.6085L62.4914 97.0074ZM49.4935 100.54L51.3901 93.3109L45.5539 91.7797L42.8269 97.162L49.4935 100.54ZM39.1891 104.269L42.4697 97.5541L42.4696 97.5541L39.1891 104.269ZM35.8515 93.7364L29.1367 90.4558L29.1367 90.4558L35.8515 93.7364ZM39.8198 89.8491L42.9091 96.654L48.19 94.2565L47.1785 88.5457L39.8198 89.8491ZM41.1155 80.8378L47.8303 84.1184L47.8303 84.1184L41.1155 80.8378ZM51.6274 72.8458L52.8761 80.2141L59.6963 79.0583L59.0701 72.1692L51.6274 72.8458ZM52.7377 66.8943L59.4525 70.1749L59.4525 70.1749L52.7377 66.8943ZM56.8552 62.2939L60.8242 68.6262L62.3011 67.7006L63.2161 66.217L56.8552 62.2939ZM70.1738 53.2317L71.3959 60.6044L76.2956 59.7923L77.4445 54.9604L70.1738 53.2317ZM71.026 50.8575L64.3112 47.5769L64.3112 47.5769L71.026 50.8575ZM82.0609 44.7072L81.0825 52.1162L85.8184 52.7416L88.3744 48.7059L82.0609 44.7072ZM91.9656 41.6815L95.2462 34.9668L95.2462 34.9668L91.9656 41.6815ZM95.6148 45.6835L88.6482 48.3884L89.222 49.8663L90.3465 50.984L95.6148 45.6835ZM103.746 51.3891C104.662 49.6613 106.373 49.4215 107.312 49.8802L113.873 36.4506C105.085 32.1571 94.913 36.1474 90.5427 44.3828L103.746 51.3891ZM107.312 49.8802C108.268 50.3474 109.153 51.9091 108.261 53.7353L121.69 60.2965C125.899 51.6812 122.859 40.8408 113.873 36.4506L107.312 49.8802ZM108.261 53.7353C107.94 54.3914 107.475 54.8645 106.969 55.1672L114.643 67.9934C117.595 66.2268 120.079 63.5942 121.69 60.2965L108.261 53.7353ZM116.117 73.8678C118.224 69.5558 118.868 64.8732 118.194 60.4532L103.418 62.7074C103.641 64.1674 103.438 65.77 102.687 67.3066L116.117 73.8678ZM86.9389 84.4225C97.9553 89.8048 110.866 84.6157 116.117 73.8678L102.687 67.3066C100.753 71.2654 96.487 72.4523 93.5001 70.993L86.9389 84.4225ZM86.646 84.2766C86.743 84.3259 86.8406 84.3745 86.939 84.4226L93.4999 70.9929C93.4712 70.9789 93.4426 70.9646 93.4139 70.95L86.646 84.2766ZM95.6854 83.5019C96.2553 82.3355 96.737 81.1452 97.1319 79.9398L82.928 75.2868C82.7466 75.8406 82.5234 76.3931 82.2559 76.9407L95.6854 83.5019ZM86.8947 93.8771C90.5317 91.3014 93.5944 87.7818 95.6854 83.5019L82.2559 76.9407C81.2801 78.9379 79.8787 80.5306 78.2566 81.6793L86.8947 93.8771ZM88.3223 98.6507C90.2718 94.6606 90.7429 90.2884 89.888 86.2357L75.2632 89.3207C75.4416 90.1663 75.3572 91.139 74.8928 92.0895L88.3223 98.6507ZM63.497 107.583C72.921 112.187 83.8853 107.732 88.3223 98.6507L74.8928 92.0895C73.7781 94.371 71.4632 94.8395 70.0582 94.153L63.497 107.583ZM56.1636 100.983C57.8911 103.733 60.3757 106.058 63.497 107.583L70.0582 94.153C69.541 93.9003 69.1268 93.5208 68.8192 93.0314L56.1636 100.983ZM47.5968 107.768C54.8587 109.674 62.4176 107.423 67.6588 102.406L57.324 91.6085C55.5867 93.2714 53.3016 93.8125 51.3901 93.3109L47.5968 107.768ZM35.9084 110.984C43.6258 114.754 52.4975 111.146 56.16 103.917L42.8269 97.162C42.7119 97.389 42.5578 97.4881 42.4598 97.5237C42.4121 97.541 42.3927 97.5378 42.4057 97.5383C42.4254 97.5391 42.4531 97.546 42.4697 97.5541L35.9084 110.984ZM29.1367 90.4558C25.5364 97.8249 28.1166 107.177 35.9085 110.984L42.4696 97.5541C42.4866 97.5624 42.5092 97.5802 42.5217 97.5951C42.5297 97.6047 42.5147 97.5904 42.4989 97.5405C42.4667 97.439 42.4511 97.2526 42.5662 97.017L29.1367 90.4558ZM36.7304 83.0442C33.5173 84.5029 30.7895 87.0727 29.1367 90.4558L42.5662 97.017C42.6709 96.8028 42.8092 96.6993 42.9091 96.654L36.7304 83.0442ZM34.4007 77.5572C32.2648 81.929 31.6709 86.6919 32.461 91.1525L47.1785 88.5457C46.9314 87.1507 47.1052 85.6025 47.8303 84.1184L34.4007 77.5572ZM50.3788 65.4775C43.6634 66.6155 37.6125 70.9833 34.4007 77.5572L47.8303 84.1184C48.9206 81.8867 50.8927 80.5502 52.8761 80.2141L50.3788 65.4775ZM46.023 63.6137C44.4717 66.7889 43.8844 70.2183 44.1848 73.5224L59.0701 72.1692C59.0133 71.5452 59.119 70.8576 59.4525 70.1749L46.023 63.6137ZM52.8863 55.9616C50.0178 57.7596 47.607 60.3714 46.023 63.6137L59.4525 70.1749C59.7929 69.4781 60.2836 68.9651 60.8242 68.6262L52.8863 55.9616ZM68.9518 45.859C61.5088 47.0926 54.6945 51.5609 50.4944 58.3709L63.2161 66.217C65.153 63.0764 68.2236 61.1302 71.3959 60.6044L68.9518 45.859ZM64.3112 47.5769C63.6893 48.8498 63.2209 50.1667 62.9032 51.503L77.4445 54.9604C77.5084 54.6914 77.605 54.4158 77.7407 54.1381L64.3112 47.5769ZM83.0393 37.2982C75.3806 36.2868 67.809 40.4176 64.3112 47.5769L77.7407 54.1381C78.506 52.5717 79.9912 51.9721 81.0825 52.1162L83.0393 37.2982ZM95.2462 34.9668C88.0193 31.436 79.749 34.3904 75.7474 40.7085L88.3744 48.7059C88.4882 48.5263 88.627 48.4473 88.711 48.4213C88.7498 48.4093 88.762 48.413 88.7463 48.412C88.7253 48.4106 88.6995 48.4034 88.685 48.3963L95.2462 34.9668ZM102.582 42.9787C101.282 39.6324 98.7738 36.6902 95.2462 34.9668L88.685 48.3963C88.6808 48.3943 88.6715 48.3891 88.6601 48.3805C88.649 48.3721 88.6406 48.3639 88.6352 48.3579C88.6245 48.346 88.6342 48.3523 88.6482 48.3884L102.582 42.9787ZM103.941 44.7786C103.206 43.1719 102.183 41.6747 100.883 40.3831L90.3465 50.984C90.3391 50.9766 90.3361 50.9723 90.3366 50.9729C90.3371 50.9738 90.3415 50.9802 90.3475 50.9933L103.941 44.7786Z" fill="#0A5F40" mask="url(#path-19-outside-9_442_12)"/>
</g>
<defs>
<clipPath id="clip0_442_12">
<rect width="400" height="400" fill="white"/>
</clipPath>
</defs>
</svg>
