<svg width="400" height="400" viewBox="0 0 400 400" fill="none" xmlns="http://www.w3.org/2000/svg">
<g clip-path="url(#clip0_442_9)">
<mask id="path-1-outside-1_442_9" maskUnits="userSpaceOnUse" x="-20.0087" y="41.0041" width="212.423" height="220.764" fill="black">
<rect fill="white" x="-20.0087" y="41.0041" width="212.423" height="220.764"/>
<path fill-rule="evenodd" clip-rule="evenodd" d="M56.3484 79.9678C51.2102 84.7464 49.878 92.1435 52.3956 98.5525L52.3164 98.6257C46.2227 104.293 44.0631 112.667 45.8772 120.499C41.8837 121.253 38.0874 123.082 34.9367 126.013C26.7935 133.586 25.6757 145.993 31.6775 155.479C30.8634 155.998 30.0862 156.596 29.3561 157.275C22.5548 163.601 22.422 174.514 29.0595 181.651C33.5733 186.504 40.0559 188.361 45.881 187.063C45.6816 191.645 47.3022 196.383 50.757 200.097C56.6915 206.478 66.0288 207.68 72.8011 203.342C79.3949 204.888 86.3043 204.356 92.4635 201.681C93.3686 202.995 94.3818 204.262 95.5033 205.467C107.352 218.208 126.8 219.382 138.942 208.09C146.239 201.304 149.236 191.559 147.894 182.098C151.359 181.755 154.702 180.345 157.401 177.835C164.202 171.51 164.335 160.597 157.697 153.46C154.918 150.472 151.393 148.62 147.735 147.94C149.545 140.451 147.553 132.041 141.723 125.773C138.432 122.234 134.372 119.866 130.092 118.702C133.36 108.072 130.815 95.749 122.399 86.6998C111.112 74.564 93.1893 72.5334 80.5857 81.3349C73.9397 74.2939 63.1171 73.6726 56.3484 79.9678Z"/>
</mask>
<path fill-rule="evenodd" clip-rule="evenodd" d="M56.3484 79.9678C51.2102 84.7464 49.878 92.1435 52.3956 98.5525L52.3164 98.6257C46.2227 104.293 44.0631 112.667 45.8772 120.499C41.8837 121.253 38.0874 123.082 34.9367 126.013C26.7935 133.586 25.6757 145.993 31.6775 155.479C30.8634 155.998 30.0862 156.596 29.3561 157.275C22.5548 163.601 22.422 174.514 29.0595 181.651C33.5733 186.504 40.0559 188.361 45.881 187.063C45.6816 191.645 47.3022 196.383 50.757 200.097C56.6915 206.478 66.0288 207.68 72.8011 203.342C79.3949 204.888 86.3043 204.356 92.4635 201.681C93.3686 202.995 94.3818 204.262 95.5033 205.467C107.352 218.208 126.8 219.382 138.942 208.09C146.239 201.304 149.236 191.559 147.894 182.098C151.359 181.755 154.702 180.345 157.401 177.835C164.202 171.51 164.335 160.597 157.697 153.46C154.918 150.472 151.393 148.62 147.735 147.94C149.545 140.451 147.553 132.041 141.723 125.773C138.432 122.234 134.372 119.866 130.092 118.702C133.36 108.072 130.815 95.749 122.399 86.6998C111.112 74.564 93.1893 72.5334 80.5857 81.3349C73.9397 74.2939 63.1171 73.6726 56.3484 79.9678Z" fill="#296C38"/>
<path d="M52.3956 98.5525L57.7934 104.385L61.7765 100.698L59.7922 95.647L52.3956 98.5525ZM56.3484 79.9678L61.7604 85.7869L61.7604 85.7869L56.3484 79.9678ZM52.3164 98.6257L46.9186 92.7934L46.9115 92.8L46.9044 92.8066L52.3164 98.6257ZM45.8772 120.499L47.3528 128.307L55.4872 126.77L53.619 118.705L45.8772 120.499ZM34.9367 126.013L40.3487 131.832L40.3487 131.832L34.9367 126.013ZM31.6775 155.479L35.9477 162.181L42.6283 157.925L38.3931 151.23L31.6775 155.479ZM29.3561 157.275L34.7681 163.094L34.7681 163.094L29.3561 157.275ZM29.0595 181.651L23.2403 187.063L23.2403 187.063L29.0595 181.651ZM45.881 187.063L53.8203 187.408L54.271 177.052L44.1525 179.306L45.881 187.063ZM50.757 200.097L44.9379 205.509L44.9379 205.509L50.757 200.097ZM72.8011 203.342L74.615 195.605L71.3439 194.838L68.5147 196.65L72.8011 203.342ZM92.4635 201.681L99.008 197.173L95.2978 191.787L89.2985 194.392L92.4635 201.681ZM95.5033 205.467L89.6842 210.879L89.6842 210.879L95.5033 205.467ZM138.942 208.09L133.53 202.271L133.53 202.271L138.942 208.09ZM147.894 182.098L147.112 174.19L138.862 175.005L140.026 183.214L147.894 182.098ZM157.401 177.835L151.989 172.016L151.989 172.016L157.401 177.835ZM157.697 153.46L151.878 158.872L151.878 158.872L157.697 153.46ZM147.735 147.94L140.01 146.074L138.042 154.222L146.284 155.753L147.735 147.94ZM141.723 125.773L147.543 120.361L147.543 120.361L141.723 125.773ZM130.092 118.702L122.496 116.367L120.084 124.215L128.006 126.37L130.092 118.702ZM122.399 86.6998L116.58 92.1118L116.58 92.1118L122.399 86.6998ZM80.5857 81.3349L74.8067 86.7897L79.5136 91.7763L85.1356 87.8503L80.5857 81.3349ZM59.7922 95.647C58.3591 91.9987 59.2259 88.1441 61.7604 85.7869L50.9364 74.1486C43.1946 81.3487 41.3969 92.2882 44.9989 101.458L59.7922 95.647ZM57.7143 104.458L57.7934 104.385L46.9978 92.7202L46.9186 92.7934L57.7143 104.458ZM53.619 118.705C52.3907 113.403 53.8943 108.011 57.7285 104.445L46.9044 92.8066C38.5511 100.576 35.7355 111.932 38.1353 122.292L53.619 118.705ZM40.3487 131.832C42.3557 129.965 44.7704 128.795 47.3528 128.307L44.4016 112.69C38.997 113.711 33.8192 116.199 29.5247 120.193L40.3487 131.832ZM38.3931 151.23C34.2524 144.686 35.2509 136.573 40.3487 131.832L29.5247 120.193C18.3361 130.599 17.0989 147.3 24.9618 159.728L38.3931 151.23ZM34.7681 163.094C35.1431 162.746 35.5378 162.442 35.9477 162.181L27.4072 148.777C26.189 149.553 25.0292 150.447 23.9441 151.456L34.7681 163.094ZM34.8786 176.239C30.9816 172.049 31.4415 166.188 34.7681 163.094L23.9441 151.456C13.6682 161.013 13.8625 176.979 23.2403 187.063L34.8786 176.239ZM44.1525 179.306C41.0951 179.988 37.4809 179.037 34.8786 176.239L23.2403 187.063C29.6657 193.971 39.0166 196.734 47.6094 194.82L44.1525 179.306ZM56.5762 194.685C54.5888 192.548 53.7122 189.892 53.8203 187.408L37.9416 186.718C37.651 193.397 40.0155 200.217 44.9379 205.509L56.5762 194.685ZM68.5147 196.65C65.1476 198.807 60.0344 198.404 56.5762 194.685L44.9379 205.509C53.3486 214.553 66.91 216.553 77.0875 210.033L68.5147 196.65ZM89.2985 194.392C84.7821 196.353 79.6252 196.779 74.615 195.605L70.9872 211.079C79.1647 212.996 87.8265 212.358 95.6286 208.971L89.2985 194.392ZM101.322 200.055C100.465 199.134 99.6942 198.17 99.008 197.173L85.9191 206.189C87.0431 207.821 88.2986 209.39 89.6842 210.879L101.322 200.055ZM133.53 202.271C124.863 210.331 110.431 209.849 101.322 200.055L89.6842 210.879C104.274 226.566 128.738 228.433 144.354 213.909L133.53 202.271ZM140.026 183.214C141.033 190.314 138.771 197.397 133.53 202.271L144.354 213.909C153.707 205.211 157.439 192.805 155.762 180.982L140.026 183.214ZM151.989 172.016C150.629 173.281 148.938 174.009 147.112 174.19L148.676 190.006C153.781 189.502 158.776 187.409 162.813 183.655L151.989 172.016ZM151.878 158.872C155.775 163.062 155.315 168.922 151.989 172.016L162.813 183.655C173.089 174.098 172.894 158.131 163.516 148.048L151.878 158.872ZM146.284 155.753C148.293 156.127 150.278 157.152 151.878 158.872L163.516 148.048C159.558 143.792 154.494 141.113 149.186 140.127L146.284 155.753ZM135.904 131.185C139.917 135.5 141.194 141.176 140.01 146.074L155.46 149.807C157.895 139.726 155.189 128.583 147.543 120.361L135.904 131.185ZM128.006 126.37C130.878 127.151 133.638 128.749 135.904 131.185L147.543 120.361C143.226 115.72 137.866 112.581 132.178 111.034L128.006 126.37ZM116.58 92.1118C123.075 99.0954 124.924 108.469 122.496 116.367L137.688 121.037C141.796 107.675 138.555 92.4026 128.218 81.2877L116.58 92.1118ZM85.1356 87.8503C94.2955 81.4537 107.826 82.6989 116.58 92.1118L128.218 81.2877C114.399 66.4291 92.0832 63.6131 76.0358 74.8195L85.1356 87.8503ZM61.7604 85.7869C65.0716 82.7073 70.9075 82.6588 74.8067 86.7897L86.3647 75.88C76.9719 65.9291 61.1625 64.6379 50.9364 74.1486L61.7604 85.7869Z" fill="#07573A" mask="url(#path-1-outside-1_442_9)"/>
<mask id="path-3-outside-2_442_9" maskUnits="userSpaceOnUse" x="21.9881" y="74.4786" width="135.834" height="143.707" fill="black">
<rect fill="white" x="21.9881" y="74.4786" width="135.834" height="143.707"/>
<path fill-rule="evenodd" clip-rule="evenodd" d="M120.702 173.794C121.677 178.419 120.309 183.317 116.659 186.578C111.117 191.529 102.413 190.828 97.2169 185.013L97.1804 184.972L97.1332 184.918C92.1995 184.771 87.2529 183.129 83.0218 180.051C77.5226 180.242 71.8744 177.99 67.8053 173.436C63.5186 168.637 61.968 162.385 63.0892 156.703C59.2718 158.212 54.6474 157.181 51.6317 153.806C47.8134 149.532 48.0198 143.118 52.0928 139.479C54.2034 137.593 56.9382 136.823 59.6149 137.113C60.0148 134.076 61.4306 131.203 63.8445 129.047C65.1373 127.892 66.6023 127.044 68.1546 126.497C62.8985 118.962 63.7337 108.758 70.4388 102.767C76.3671 97.471 85.0538 97.104 91.7543 101.285C92.1598 100.712 92.6345 100.177 93.178 99.6911C97.251 96.0523 103.648 96.5671 107.466 100.841C111.285 105.115 111.078 111.529 107.005 115.168C106.819 115.334 106.629 115.491 106.434 115.64C107.926 116.599 109.32 117.777 110.566 119.172C112.439 121.268 113.789 123.643 114.623 126.126C116.738 126.579 118.758 127.704 120.338 129.472C123.68 133.212 123.938 138.592 121.22 142.316C122.205 143.93 122.719 145.727 122.769 147.509C124.633 148.324 126.368 149.553 127.827 151.186C133.022 157.001 132.741 165.73 127.199 170.681C125.312 172.367 123.059 173.397 120.702 173.794Z"/>
</mask>
<path fill-rule="evenodd" clip-rule="evenodd" d="M120.702 173.794C121.677 178.419 120.309 183.317 116.659 186.578C111.117 191.529 102.413 190.828 97.2169 185.013L97.1804 184.972L97.1332 184.918C92.1995 184.771 87.2529 183.129 83.0218 180.051C77.5226 180.242 71.8744 177.99 67.8053 173.436C63.5186 168.637 61.968 162.385 63.0892 156.703C59.2718 158.212 54.6474 157.181 51.6317 153.806C47.8134 149.532 48.0198 143.118 52.0928 139.479C54.2034 137.593 56.9382 136.823 59.6149 137.113C60.0148 134.076 61.4306 131.203 63.8445 129.047C65.1373 127.892 66.6023 127.044 68.1546 126.497C62.8985 118.962 63.7337 108.758 70.4388 102.767C76.3671 97.471 85.0538 97.104 91.7543 101.285C92.1598 100.712 92.6345 100.177 93.178 99.6911C97.251 96.0523 103.648 96.5671 107.466 100.841C111.285 105.115 111.078 111.529 107.005 115.168C106.819 115.334 106.629 115.491 106.434 115.64C107.926 116.599 109.32 117.777 110.566 119.172C112.439 121.268 113.789 123.643 114.623 126.126C116.738 126.579 118.758 127.704 120.338 129.472C123.68 133.212 123.938 138.592 121.22 142.316C122.205 143.93 122.719 145.727 122.769 147.509C124.633 148.324 126.368 149.553 127.827 151.186C133.022 157.001 132.741 165.73 127.199 170.681C125.312 172.367 123.059 173.397 120.702 173.794Z" fill="#2E7E40"/>
<path d="M116.659 186.578L121.954 192.504L121.954 192.504L116.659 186.578ZM120.702 173.794L119.383 165.957L111.22 167.331L112.926 175.432L120.702 173.794ZM97.2169 185.013L91.2809 190.296L91.2858 190.302L91.2907 190.307L97.2169 185.013ZM97.1804 184.972L91.2227 190.231L91.2335 190.243L91.2444 190.255L97.1804 184.972ZM97.1332 184.918L103.091 179.659L100.813 177.078L97.3714 176.975L97.1332 184.918ZM83.0218 180.051L87.696 173.625L85.4822 172.015L82.7465 172.109L83.0218 180.051ZM67.8053 173.436L73.7315 168.141L73.7315 168.141L67.8053 173.436ZM63.0892 156.703L70.8857 158.242L73.7034 143.964L60.1685 149.313L63.0892 156.703ZM51.6317 153.806L45.7055 159.1L45.7055 159.1L51.6317 153.806ZM52.0928 139.479L46.7983 133.553L46.7983 133.553L52.0928 139.479ZM59.6149 137.113L58.758 145.014L66.4796 145.851L67.4937 138.151L59.6149 137.113ZM63.8445 129.047L69.139 134.973L69.139 134.973L63.8445 129.047ZM68.1546 126.497L70.7945 133.993L80.6508 130.522L74.6724 121.951L68.1546 126.497ZM70.4388 102.767L75.7333 108.694L75.7333 108.694L70.4388 102.767ZM91.7543 101.285L87.5478 108.027L93.9089 111.996L98.2406 105.876L91.7543 101.285ZM93.178 99.6911L98.4725 105.617L98.4726 105.617L93.178 99.6911ZM107.466 100.841L113.393 95.5465L113.393 95.5465L107.466 100.841ZM107.005 115.168L101.711 109.242L101.711 109.242L107.005 115.168ZM106.434 115.64L101.614 109.322L92.5999 116.198L102.138 122.326L106.434 115.64ZM110.566 119.172L116.492 113.877L110.566 119.172ZM114.623 126.126L107.089 128.655L108.53 132.946L112.956 133.896L114.623 126.126ZM120.338 129.472L114.412 134.766L114.412 134.766L120.338 129.472ZM121.22 142.316L114.801 137.632L111.671 141.921L114.436 146.455L121.22 142.316ZM122.769 147.509L114.825 147.733L114.967 152.773L119.587 154.791L122.769 147.509ZM127.827 151.186L133.753 145.891L133.753 145.891L127.827 151.186ZM127.199 170.681L132.494 176.607L132.494 176.607L127.199 170.681ZM121.954 192.504C127.904 187.188 129.988 179.321 128.478 172.156L112.926 175.432C113.366 177.518 112.713 179.447 111.365 180.651L121.954 192.504ZM91.2907 190.307C99.1672 199.124 112.873 200.617 121.954 192.504L111.365 180.651C109.361 182.441 105.658 182.533 103.143 179.718L91.2907 190.307ZM91.2444 190.255L91.2809 190.296L103.153 179.729L103.116 179.688L91.2444 190.255ZM91.1756 190.178L91.2227 190.231L103.138 179.713L103.091 179.659L91.1756 190.178ZM78.3477 186.478C83.8738 190.497 90.3669 192.666 96.8951 192.862L97.3714 176.975C94.032 176.875 90.632 175.76 87.696 173.625L78.3477 186.478ZM61.8791 178.73C67.5325 185.058 75.4591 188.265 83.2972 187.994L82.7465 172.109C79.5861 172.219 76.2164 170.922 73.7315 168.141L61.8791 178.73ZM55.2927 155.165C53.6913 163.28 55.9243 172.065 61.8791 178.73L73.7315 168.141C71.1129 165.21 70.2447 161.49 70.8857 158.242L55.2927 155.165ZM45.7055 159.1C50.8798 164.892 59.0128 166.859 66.0099 164.094L60.1685 149.313C59.5308 149.565 58.415 149.471 57.5579 148.511L45.7055 159.1ZM46.7983 133.553C39.1867 140.353 39.2062 151.826 45.7055 159.1L57.5579 148.511C56.4206 147.238 56.853 145.882 57.3873 145.405L46.7983 133.553ZM60.4717 129.213C55.7198 128.697 50.7053 130.062 46.7983 133.553L57.3873 145.405C57.7016 145.124 58.1567 144.948 58.758 145.014L60.4717 129.213ZM58.55 123.12C54.635 126.618 52.3696 131.264 51.7361 136.076L67.4937 138.151C67.6599 136.888 68.2261 135.788 69.139 134.973L58.55 123.12ZM65.5147 119.002C63.0063 119.885 60.6345 121.258 58.55 123.12L69.139 134.973C69.6401 134.525 70.1982 134.203 70.7945 133.993L65.5147 119.002ZM65.1443 96.8412C55.1845 105.739 54.2825 120.501 61.6368 131.044L74.6724 121.951C71.5144 117.423 72.2829 111.776 75.7333 108.694L65.1443 96.8412ZM95.9609 94.5424C86.5389 88.6639 73.9405 88.9826 65.1443 96.8412L75.7333 108.694C78.7937 105.959 83.5687 105.544 87.5478 108.027L95.9609 94.5424ZM87.8835 93.7649C86.8898 94.6527 86.0161 95.6364 85.268 96.6933L98.2406 105.876C98.3034 105.787 98.3792 105.701 98.4725 105.617L87.8835 93.7649ZM113.393 95.5465C106.893 88.2718 95.4951 86.9646 87.8835 93.7649L98.4726 105.617C99.0069 105.14 100.403 104.862 101.54 106.135L113.393 95.5465ZM112.3 121.094C119.911 114.294 119.892 102.821 113.393 95.5465L101.54 106.135C102.677 107.409 102.245 108.764 101.711 109.242L112.3 121.094ZM111.253 121.959C111.612 121.685 111.961 121.397 112.3 121.094L101.711 109.242C101.678 109.271 101.646 109.297 101.614 109.322L111.253 121.959ZM102.138 122.326C103.031 122.899 103.875 123.611 104.639 124.466L116.492 113.877C114.765 111.944 112.822 110.299 110.73 108.954L102.138 122.326ZM104.639 124.466C105.787 125.751 106.595 127.182 107.089 128.655L122.157 123.596C120.984 120.104 119.091 116.786 116.492 113.877L104.639 124.466ZM126.264 124.177C123.545 121.134 120.024 119.157 116.29 118.356L112.956 133.896C113.451 134.002 113.972 134.274 114.412 134.766L126.264 124.177ZM127.639 147.001C132.672 140.106 131.981 130.577 126.264 124.177L114.412 134.766C115.378 135.848 115.205 137.078 114.801 137.632L127.639 147.001ZM130.713 147.285C130.624 144.131 129.715 140.983 128.005 138.178L114.436 146.455C114.694 146.877 114.814 147.323 114.825 147.733L130.713 147.285ZM133.753 145.891C131.524 143.396 128.849 141.493 125.951 140.227L119.587 154.791C120.417 155.154 121.213 155.71 121.901 156.48L133.753 145.891ZM132.494 176.607C141.575 168.494 141.63 154.708 133.753 145.891L121.901 156.48C124.415 159.295 123.908 162.965 121.905 164.755L132.494 176.607ZM122.021 181.631C125.794 180.995 129.442 179.334 132.494 176.607L121.905 164.755C121.183 165.4 120.324 165.799 119.383 165.957L122.021 181.631Z" fill="#0A5F40" mask="url(#path-3-outside-2_442_9)"/>
<path d="M335.879 152.543L280.378 189.167L312.35 220.013L346.864 248.022L340.303 257.171L300.898 251.324L270.195 214.638L229.547 214.374L206.038 214.221L201.194 209.833L201.429 173.742L211.693 173.809L258.001 166.901L289.263 145.387L305.472 130.738L342.362 114.001L378.539 114.682L363.817 152.612L335.879 152.543Z" fill="#664D3B" stroke="#61432D" stroke-width="7.94683"/>
<mask id="path-6-outside-3_442_9" maskUnits="userSpaceOnUse" x="233.712" y="202.514" width="151.458" height="184.996" fill="black">
<rect fill="white" x="233.712" y="202.514" width="151.458" height="184.996"/>
<path fill-rule="evenodd" clip-rule="evenodd" d="M342.857 276.322C343.486 276.324 344.118 276.306 344.751 276.268C344.426 276.732 344.124 277.213 343.846 277.709C343.525 277.239 343.195 276.776 342.857 276.322ZM335.013 211.83C325.695 213.968 318.37 220.293 314.397 228.513C311.671 227.624 308.708 227.439 305.751 228.118C302.591 228.843 299.856 230.458 297.726 232.658C294.076 230.308 289.608 229.37 285.152 230.393C276.1 232.47 270.528 241.855 272.708 251.354C272.865 252.038 273.058 252.705 273.284 253.351C271.255 253.234 269.182 253.398 267.112 253.873C254.794 256.699 247.212 269.469 250.178 282.395C251.332 287.424 253.913 291.735 257.36 294.96C254.699 298.421 252.742 302.453 251.643 306.799C245.391 310.479 241.988 318.172 243.771 325.942C245.34 332.78 250.497 337.813 256.64 339.322C256.429 341.292 256.538 343.341 257.01 345.394C259.189 354.894 268.295 360.91 277.348 358.833C278.713 358.52 279.998 358.041 281.19 357.42C286.675 371.753 301.448 380.329 316.143 376.956C332.304 373.248 342.25 356.495 338.359 339.537C338.092 338.372 337.766 337.237 337.387 336.134C339.165 336.173 340.973 335.995 342.778 335.581C342.952 335.541 343.126 335.499 343.298 335.455C345.728 336.073 348.315 336.14 350.898 335.547C359.951 333.47 365.522 324.085 363.343 314.586C362.693 311.753 361.427 309.23 359.73 307.139L359.712 307.059C359.507 306.167 359.258 305.298 358.966 304.454C360.098 304.44 361.242 304.307 362.386 304.045C371.439 301.967 377.01 292.583 374.831 283.083C373.245 276.172 367.993 271.104 361.762 269.656C370.956 262.208 375.603 249.528 372.668 236.734C368.629 219.135 351.77 207.985 335.013 211.83Z"/>
</mask>
<path fill-rule="evenodd" clip-rule="evenodd" d="M342.857 276.322C343.486 276.324 344.118 276.306 344.751 276.268C344.426 276.732 344.124 277.213 343.846 277.709C343.525 277.239 343.195 276.776 342.857 276.322ZM335.013 211.83C325.695 213.968 318.37 220.293 314.397 228.513C311.671 227.624 308.708 227.439 305.751 228.118C302.591 228.843 299.856 230.458 297.726 232.658C294.076 230.308 289.608 229.37 285.152 230.393C276.1 232.47 270.528 241.855 272.708 251.354C272.865 252.038 273.058 252.705 273.284 253.351C271.255 253.234 269.182 253.398 267.112 253.873C254.794 256.699 247.212 269.469 250.178 282.395C251.332 287.424 253.913 291.735 257.36 294.96C254.699 298.421 252.742 302.453 251.643 306.799C245.391 310.479 241.988 318.172 243.771 325.942C245.34 332.78 250.497 337.813 256.64 339.322C256.429 341.292 256.538 343.341 257.01 345.394C259.189 354.894 268.295 360.91 277.348 358.833C278.713 358.52 279.998 358.041 281.19 357.42C286.675 371.753 301.448 380.329 316.143 376.956C332.304 373.248 342.25 356.495 338.359 339.537C338.092 338.372 337.766 337.237 337.387 336.134C339.165 336.173 340.973 335.995 342.778 335.581C342.952 335.541 343.126 335.499 343.298 335.455C345.728 336.073 348.315 336.14 350.898 335.547C359.951 333.47 365.522 324.085 363.343 314.586C362.693 311.753 361.427 309.23 359.73 307.139L359.712 307.059C359.507 306.167 359.258 305.298 358.966 304.454C360.098 304.44 361.242 304.307 362.386 304.045C371.439 301.967 377.01 292.583 374.831 283.083C373.245 276.172 367.993 271.104 361.762 269.656C370.956 262.208 375.603 249.528 372.668 236.734C368.629 219.135 351.77 207.985 335.013 211.83Z" fill="#296C38"/>
<path d="M344.751 276.268L351.265 280.819L360.679 267.345L344.272 268.336L344.751 276.268ZM342.857 276.322L342.885 268.375L327.012 268.319L336.478 281.061L342.857 276.322ZM343.846 277.709L337.286 282.194L344.511 292.76L350.776 281.598L343.846 277.709ZM314.397 228.513L311.934 236.068L318.532 238.219L321.552 231.971L314.397 228.513ZM335.013 211.83L336.79 219.576L336.79 219.576L335.013 211.83ZM305.751 228.118L307.528 235.863L307.528 235.863L305.751 228.118ZM297.726 232.658L293.424 239.34L298.902 242.866L303.435 238.186L297.726 232.658ZM285.152 230.393L283.375 222.647L283.375 222.647L285.152 230.393ZM272.708 251.354L280.453 249.576L280.453 249.576L272.708 251.354ZM273.284 253.351L272.825 261.285L284.722 261.973L280.785 250.725L273.284 253.351ZM267.112 253.873L268.889 261.618L268.889 261.618L267.112 253.873ZM250.178 282.395L242.433 284.173L242.433 284.173L250.178 282.395ZM257.36 294.96L263.66 299.803L268.057 294.084L262.789 289.156L257.36 294.96ZM251.643 306.799L255.674 313.647L258.534 311.964L259.347 308.747L251.643 306.799ZM243.771 325.942L236.025 327.72L236.025 327.72L243.771 325.942ZM256.64 339.322L264.542 340.165L265.278 333.261L258.536 331.605L256.64 339.322ZM257.01 345.394L264.755 343.617L264.755 343.617L257.01 345.394ZM277.348 358.833L275.571 351.087L275.571 351.087L277.348 358.833ZM281.19 357.42L288.612 354.58L285.426 346.254L277.52 350.372L281.19 357.42ZM316.143 376.956L314.366 369.211L314.366 369.211L316.143 376.956ZM338.359 339.537L346.105 337.759L346.105 337.759L338.359 339.537ZM337.387 336.134L337.562 328.189L326.161 327.938L329.873 338.721L337.387 336.134ZM342.778 335.581L341.001 327.836L341.001 327.836L342.778 335.581ZM343.298 335.455L345.257 327.754L343.296 327.255L341.335 327.755L343.298 335.455ZM350.898 335.547L352.675 343.292L352.675 343.292L350.898 335.547ZM363.343 314.586L355.597 316.363L355.597 316.363L363.343 314.586ZM359.73 307.139L351.981 308.904L352.393 310.709L353.559 312.146L359.73 307.139ZM359.712 307.059L367.46 305.293L367.457 305.281L359.712 307.059ZM358.966 304.454L358.873 296.508L347.865 296.638L351.454 307.044L358.966 304.454ZM362.386 304.045L360.609 296.299L360.609 296.299L362.386 304.045ZM374.831 283.083L382.576 281.306L382.576 281.306L374.831 283.083ZM361.762 269.656L356.76 263.481L344.127 273.715L359.963 277.396L361.762 269.656ZM372.668 236.734L364.922 238.511L364.922 238.511L372.668 236.734ZM344.272 268.336C343.808 268.364 343.346 268.377 342.885 268.375L342.829 284.268C343.627 284.271 344.427 284.249 345.23 284.2L344.272 268.336ZM350.776 281.598C350.928 281.328 351.091 281.068 351.265 280.819L338.236 271.717C337.762 272.396 337.321 273.098 336.916 273.819L350.776 281.598ZM336.478 281.061C336.754 281.432 337.024 281.81 337.286 282.194L350.406 273.223C350.026 272.668 349.636 272.121 349.236 271.583L336.478 281.061ZM321.552 231.971C324.557 225.752 330 221.134 336.79 219.576L333.235 204.085C321.389 206.803 312.182 214.834 307.242 225.055L321.552 231.971ZM307.528 235.863C309.026 235.52 310.524 235.609 311.934 236.068L316.859 220.957C312.819 219.64 308.39 219.359 303.973 220.372L307.528 235.863ZM303.435 238.186C304.543 237.041 305.93 236.23 307.528 235.863L303.973 220.372C299.252 221.456 295.168 223.875 292.017 227.129L303.435 238.186ZM286.93 238.138C289.159 237.626 291.452 238.07 293.424 239.34L302.027 225.976C296.701 222.547 290.057 221.114 283.375 222.647L286.93 238.138ZM280.453 249.576C279.174 243.999 282.502 239.154 286.93 238.138L283.375 222.647C269.697 225.786 261.883 239.71 264.962 253.131L280.453 249.576ZM280.785 250.725C280.656 250.356 280.544 249.973 280.453 249.576L264.962 253.131C265.185 254.103 265.46 255.053 265.784 255.977L280.785 250.725ZM268.889 261.618C270.217 261.314 271.537 261.21 272.825 261.285L273.743 245.418C270.973 245.257 268.147 245.482 265.335 246.127L268.889 261.618ZM257.924 280.618C255.858 271.614 261.196 263.384 268.889 261.618L265.335 246.127C248.391 250.015 238.567 267.325 242.433 284.173L257.924 280.618ZM262.789 289.156C260.479 286.996 258.718 284.079 257.924 280.618L242.433 284.173C243.946 290.768 247.346 296.474 251.931 300.763L262.789 289.156ZM259.347 308.747C260.184 305.44 261.667 302.395 263.66 299.803L251.06 290.116C247.73 294.447 245.3 299.467 243.939 304.85L259.347 308.747ZM251.516 324.165C250.482 319.658 252.508 315.511 255.674 313.647L247.612 299.95C238.274 305.447 233.493 316.686 236.025 327.72L251.516 324.165ZM258.536 331.605C255.344 330.82 252.422 328.112 251.516 324.165L236.025 327.72C238.257 337.447 245.65 344.805 254.743 347.039L258.536 331.605ZM264.755 343.617C264.483 342.43 264.424 341.267 264.542 340.165L248.738 338.479C248.435 341.318 248.594 344.252 249.264 347.172L264.755 343.617ZM275.571 351.087C271.143 352.104 266.035 349.194 264.755 343.617L249.264 347.172C252.344 360.593 265.448 369.717 279.125 366.579L275.571 351.087ZM277.52 350.372C276.92 350.684 276.27 350.927 275.571 351.087L279.125 366.579C281.155 366.113 283.076 365.397 284.86 364.468L277.52 350.372ZM314.366 369.211C303.864 371.621 292.806 365.542 288.612 354.58L273.768 360.26C280.543 377.965 299.033 389.036 317.921 384.702L314.366 369.211ZM330.614 341.314C333.605 354.35 325.902 366.564 314.366 369.211L317.921 384.702C338.706 379.932 350.896 358.639 346.105 337.759L330.614 341.314ZM329.873 338.721C330.161 339.559 330.409 340.424 330.614 341.314L346.105 337.759C345.775 336.321 345.372 334.916 344.901 333.547L329.873 338.721ZM341.001 327.836C339.842 328.102 338.691 328.214 337.562 328.189L337.212 344.079C339.64 344.132 342.103 343.889 344.555 343.327L341.001 327.836ZM341.335 327.755C341.224 327.783 341.113 327.81 341.001 327.836L344.555 343.327C344.792 343.272 345.027 343.215 345.261 343.156L341.335 327.755ZM349.121 327.801C347.808 328.103 346.502 328.07 345.257 327.754L341.339 343.157C344.953 344.076 348.822 344.177 352.675 343.292L349.121 327.801ZM355.597 316.363C356.877 321.94 353.548 326.785 349.121 327.801L352.675 343.292C366.353 340.154 374.168 326.23 371.088 312.808L355.597 316.363ZM353.559 312.146C354.501 313.307 355.222 314.728 355.597 316.363L371.088 312.808C370.163 308.777 368.352 305.152 365.901 302.131L353.559 312.146ZM351.963 308.824L351.981 308.904L367.478 305.373L367.46 305.293L351.963 308.824ZM351.454 307.044C351.653 307.622 351.825 308.22 351.966 308.836L367.457 305.281C367.189 304.115 366.862 302.974 366.479 301.863L351.454 307.044ZM360.609 296.299C360.022 296.434 359.442 296.501 358.873 296.508L359.06 312.4C360.754 312.38 362.463 312.18 364.163 311.79L360.609 296.299ZM367.085 284.861C368.365 290.438 365.037 295.283 360.609 296.299L364.163 311.79C377.841 308.652 385.656 294.727 382.576 281.306L367.085 284.861ZM359.963 277.396C363.194 278.148 366.169 280.87 367.085 284.861L382.576 281.306C380.32 271.475 372.791 264.061 363.562 261.916L359.963 277.396ZM364.922 238.511C367.189 248.391 363.563 257.97 356.76 263.481L366.764 275.831C378.35 266.446 384.018 250.665 380.413 234.957L364.922 238.511ZM336.79 219.576C348.917 216.793 361.782 224.828 364.922 238.511L380.413 234.957C375.476 213.442 354.624 199.177 333.235 204.085L336.79 219.576Z" fill="#07573A" mask="url(#path-6-outside-3_442_9)"/>
<mask id="path-8-outside-4_442_9" maskUnits="userSpaceOnUse" x="266.797" y="246.339" width="93.5313" height="115.232" fill="black">
<rect fill="white" x="266.797" y="246.339" width="93.5313" height="115.232"/>
<path fill-rule="evenodd" clip-rule="evenodd" d="M289.14 269.957C289.008 269.58 288.896 269.191 288.804 268.792C287.532 263.25 290.783 257.775 296.064 256.564C298.663 255.967 301.269 256.514 303.398 257.885C304.64 256.602 306.236 255.66 308.079 255.237C313.01 254.105 317.968 257.09 319.639 262.002C320.608 261.581 321.628 261.243 322.693 260.998C330.497 259.207 338.339 262.992 342.383 269.815C346.364 270.385 349.819 273.473 350.811 277.799C352.083 283.341 348.833 288.815 343.552 290.027C343.123 290.126 342.694 290.193 342.266 290.23C340.904 292.411 339.104 294.291 336.958 295.716C338.171 297.307 339.078 299.19 339.559 301.288L339.57 301.334C340.56 302.554 341.298 304.026 341.677 305.679C342.949 311.22 339.699 316.695 334.418 317.907C332.911 318.253 331.402 318.214 329.984 317.853C329.884 317.879 329.783 317.904 329.681 317.927C328.326 318.238 326.969 318.32 325.649 318.199C324.551 319.067 323.371 319.839 322.117 320.499C321.957 320.752 321.79 321 321.618 321.244C323.542 323.547 324.977 326.352 325.703 329.514C328.059 339.781 322.044 349.922 312.268 352.165C302.492 354.409 292.657 347.904 290.301 337.637C289.843 335.641 289.702 333.65 289.843 331.72C285.154 331.939 280.784 328.608 279.646 323.651C278.486 318.595 281.09 313.595 285.567 311.837C281.148 311.714 277.149 308.472 276.068 303.762C275.173 299.86 276.519 295.991 279.238 293.62C277.534 291.819 276.264 289.527 275.661 286.9C273.931 279.36 278.354 271.91 285.54 270.261C286.747 269.984 287.956 269.888 289.14 269.957ZM289.272 311.188C289.484 311.194 289.695 311.207 289.905 311.227C289.897 311.125 289.89 311.023 289.884 310.922C289.684 311.017 289.48 311.106 289.272 311.188Z"/>
</mask>
<path fill-rule="evenodd" clip-rule="evenodd" d="M289.14 269.957C289.008 269.58 288.896 269.191 288.804 268.792C287.532 263.25 290.783 257.775 296.064 256.564C298.663 255.967 301.269 256.514 303.398 257.885C304.64 256.602 306.236 255.66 308.079 255.237C313.01 254.105 317.968 257.09 319.639 262.002C320.608 261.581 321.628 261.243 322.693 260.998C330.497 259.207 338.339 262.992 342.383 269.815C346.364 270.385 349.819 273.473 350.811 277.799C352.083 283.341 348.833 288.815 343.552 290.027C343.123 290.126 342.694 290.193 342.266 290.23C340.904 292.411 339.104 294.291 336.958 295.716C338.171 297.307 339.078 299.19 339.559 301.288L339.57 301.334C340.56 302.554 341.298 304.026 341.677 305.679C342.949 311.22 339.699 316.695 334.418 317.907C332.911 318.253 331.402 318.214 329.984 317.853C329.884 317.879 329.783 317.904 329.681 317.927C328.326 318.238 326.969 318.32 325.649 318.199C324.551 319.067 323.371 319.839 322.117 320.499C321.957 320.752 321.79 321 321.618 321.244C323.542 323.547 324.977 326.352 325.703 329.514C328.059 339.781 322.044 349.922 312.268 352.165C302.492 354.409 292.657 347.904 290.301 337.637C289.843 335.641 289.702 333.65 289.843 331.72C285.154 331.939 280.784 328.608 279.646 323.651C278.486 318.595 281.09 313.595 285.567 311.837C281.148 311.714 277.149 308.472 276.068 303.762C275.173 299.86 276.519 295.991 279.238 293.62C277.534 291.819 276.264 289.527 275.661 286.9C273.931 279.36 278.354 271.91 285.54 270.261C286.747 269.984 287.956 269.888 289.14 269.957ZM289.272 311.188C289.484 311.194 289.695 311.207 289.905 311.227C289.897 311.125 289.89 311.023 289.884 310.922C289.684 311.017 289.48 311.106 289.272 311.188Z" fill="#2E7E40"/>
<path d="M288.804 268.792L296.549 267.014L296.549 267.014L288.804 268.792ZM289.14 269.957L288.681 277.89L300.579 278.579L296.641 267.331L289.14 269.957ZM296.064 256.564L297.841 264.309L297.841 264.309L296.064 256.564ZM303.398 257.885L299.097 264.567L304.574 268.093L309.106 263.413L303.398 257.885ZM308.079 255.237L309.856 262.982L309.856 262.982L308.079 255.237ZM319.639 262.002L312.115 264.561L314.894 272.731L322.808 269.29L319.639 262.002ZM322.693 260.998L320.915 253.253L320.915 253.253L322.693 260.998ZM342.383 269.815L335.547 273.867L337.488 277.142L341.257 277.682L342.383 269.815ZM350.811 277.799L343.066 279.576L343.066 279.576L350.811 277.799ZM343.552 290.027L341.774 282.282L341.774 282.282L343.552 290.027ZM342.266 290.23L341.57 282.314L337.625 282.661L335.527 286.02L342.266 290.23ZM336.958 295.716L332.562 289.096L325.496 293.789L330.639 300.534L336.958 295.716ZM339.559 301.288L347.307 299.523L347.305 299.511L339.559 301.288ZM339.57 301.334L331.821 303.1L332.233 304.904L333.399 306.342L339.57 301.334ZM341.677 305.679L333.932 307.456L333.932 307.456L341.677 305.679ZM334.418 317.907L336.195 325.652L336.195 325.652L334.418 317.907ZM329.984 317.853L331.943 310.152L329.982 309.653L328.021 310.153L329.984 317.853ZM329.681 317.927L331.458 325.673L331.458 325.673L329.681 317.927ZM325.649 318.199L326.376 310.286L323.21 309.995L320.717 311.967L325.649 318.199ZM322.117 320.499L318.417 313.466L316.538 314.454L315.403 316.247L322.117 320.499ZM321.618 321.244L315.125 316.663L311.604 321.653L315.52 326.34L321.618 321.244ZM325.703 329.514L333.448 327.736L333.448 327.736L325.703 329.514ZM290.301 337.637L282.556 339.415L282.556 339.415L290.301 337.637ZM289.843 331.72L297.768 332.299L298.421 323.363L289.471 323.782L289.843 331.72ZM279.646 323.651L287.392 321.874L287.392 321.874L279.646 323.651ZM285.567 311.837L288.471 319.234L285.788 303.893L285.567 311.837ZM276.068 303.762L283.814 301.984L283.814 301.984L276.068 303.762ZM279.238 293.62L284.461 299.61L290.697 294.171L285.012 288.16L279.238 293.62ZM275.661 286.9L267.916 288.678L267.916 288.678L275.661 286.9ZM285.54 270.261L287.317 278.007L287.317 278.007L285.54 270.261ZM289.905 311.227L289.148 319.137L298.554 320.038L297.828 310.616L289.905 311.227ZM289.272 311.188L286.368 303.791L289.051 319.131L289.272 311.188ZM289.884 310.922L297.816 310.438L297.098 298.672L286.46 303.75L289.884 310.922ZM281.058 270.569C281.216 271.256 281.411 271.928 281.64 272.583L296.641 267.331C296.606 267.231 296.575 267.126 296.549 267.014L281.058 270.569ZM294.286 248.818C284.38 251.091 278.887 261.105 281.058 270.569L296.549 267.014C296.178 265.395 297.185 264.46 297.841 264.309L294.286 248.818ZM307.699 251.202C303.894 248.753 299.111 247.711 294.286 248.818L297.841 264.309C298.214 264.223 298.645 264.276 299.097 264.567L307.699 251.202ZM306.302 247.491C302.897 248.272 299.954 250.018 297.69 252.356L309.106 263.413C309.327 263.185 309.575 263.047 309.856 262.982L306.302 247.491ZM327.162 259.443C324.294 251.01 315.541 245.371 306.302 247.491L309.856 262.982C310.479 262.839 311.642 263.17 312.115 264.561L327.162 259.443ZM320.915 253.253C319.371 253.607 317.885 254.099 316.47 254.715L322.808 269.29C323.331 269.062 323.886 268.878 324.47 268.744L320.915 253.253ZM349.22 265.763C343.577 256.243 332.392 250.619 320.915 253.253L324.47 268.744C328.602 267.796 333.101 269.741 335.547 273.867L349.22 265.763ZM358.557 276.022C356.847 268.573 350.824 262.996 343.51 261.949L341.257 277.682C341.904 277.774 342.79 278.374 343.066 279.576L358.557 276.022ZM345.329 297.773C355.235 295.5 360.728 285.485 358.557 276.022L343.066 279.576C343.437 281.196 342.43 282.131 341.774 282.282L345.329 297.773ZM342.963 298.147C343.752 298.077 344.543 297.953 345.329 297.773L341.774 282.282C341.703 282.298 341.635 282.309 341.57 282.314L342.963 298.147ZM341.355 302.336C344.479 300.261 347.066 297.547 349.006 294.441L335.527 286.02C334.742 287.275 333.729 288.32 332.562 289.096L341.355 302.336ZM347.305 299.511C346.567 296.296 345.169 293.378 343.278 290.898L330.639 300.534C331.173 301.236 331.589 302.085 331.814 303.065L347.305 299.511ZM347.318 299.569L347.307 299.523L331.811 303.053L331.821 303.1L347.318 299.569ZM349.423 303.901C348.769 301.051 347.485 298.477 345.741 296.327L333.399 306.342C333.634 306.632 333.828 307.002 333.932 307.456L349.423 303.901ZM336.195 325.652C346.101 323.379 351.594 313.365 349.423 303.901L333.932 307.456C334.303 309.076 333.296 310.011 332.64 310.161L336.195 325.652ZM328.025 325.555C330.627 326.217 333.418 326.29 336.195 325.652L332.64 310.161C332.404 310.216 332.176 310.211 331.943 310.152L328.025 325.555ZM331.458 325.673C331.622 325.635 331.785 325.595 331.948 325.554L328.021 310.153C327.982 310.163 327.943 310.172 327.903 310.182L331.458 325.673ZM324.921 326.113C327.067 326.31 329.269 326.175 331.458 325.673L327.903 310.181C327.382 310.301 326.872 310.331 326.376 310.286L324.921 326.113ZM325.817 327.532C327.512 326.64 329.104 325.599 330.58 324.431L320.717 311.967C319.999 312.536 319.23 313.038 318.417 313.466L325.817 327.532ZM328.111 325.826C328.36 325.473 328.6 325.114 328.831 324.75L315.403 316.247C315.313 316.389 315.221 316.527 315.125 316.663L328.111 325.826ZM315.52 326.34C316.652 327.694 317.515 329.366 317.957 331.291L333.448 327.736C332.439 323.338 330.432 319.399 327.716 316.148L315.52 326.34ZM317.957 331.291C319.415 337.642 315.635 343.239 310.49 344.42L314.045 359.911C328.452 356.605 336.703 341.919 333.448 327.736L317.957 331.291ZM310.49 344.42C305.346 345.6 299.504 342.211 298.047 335.86L282.556 339.415C285.81 353.597 299.638 363.217 314.045 359.911L310.49 344.42ZM298.047 335.86C297.767 334.642 297.685 333.445 297.768 332.299L281.917 331.141C281.719 333.855 281.919 336.641 282.556 339.415L298.047 335.86ZM271.901 325.429C273.852 333.931 281.483 340.066 290.214 339.658L289.471 323.782C288.824 323.812 287.716 323.285 287.392 321.874L271.901 325.429ZM282.663 304.44C274.313 307.718 269.912 316.762 271.901 325.429L287.392 321.874C287.06 320.428 287.868 319.471 288.471 319.234L282.663 304.44ZM268.323 305.539C270.18 313.631 277.158 319.553 285.346 319.781L285.788 303.893C285.139 303.875 284.118 303.312 283.814 301.984L268.323 305.539ZM274.015 287.631C269.067 291.946 266.778 298.808 268.323 305.539L283.814 301.984C283.568 300.912 283.971 300.037 284.461 299.61L274.015 287.631ZM267.916 288.678C268.84 292.707 270.801 296.265 273.464 299.081L285.012 288.16C284.267 287.373 283.688 286.348 283.407 285.123L267.916 288.678ZM283.762 262.516C271.951 265.226 265.285 277.215 267.916 288.678L283.407 285.123C282.576 281.504 284.756 278.594 287.317 278.007L283.762 262.516ZM289.599 262.023C287.675 261.912 285.712 262.068 283.762 262.516L287.317 278.007C287.782 277.9 288.238 277.865 288.681 277.89L289.599 262.023ZM290.662 303.316C290.275 303.279 289.885 303.255 289.493 303.244L289.051 319.131C289.083 319.132 289.115 319.134 289.148 319.137L290.662 303.316ZM281.952 311.406C281.96 311.549 281.97 311.693 281.981 311.837L297.828 310.616C297.824 310.557 297.819 310.497 297.816 310.438L281.952 311.406ZM292.176 318.585C292.561 318.434 292.938 318.27 293.307 318.093L286.46 303.75C286.43 303.765 286.399 303.778 286.368 303.791L292.176 318.585Z" fill="#0A5F40" mask="url(#path-8-outside-4_442_9)"/>
<mask id="path-10-outside-5_442_9" maskUnits="userSpaceOnUse" x="-43.8082" y="60.2114" width="349.585" height="341.005" fill="black">
<rect fill="white" x="-43.8082" y="60.2114" width="349.585" height="341.005"/>
<path fill-rule="evenodd" clip-rule="evenodd" d="M223.839 289.601C224.585 290.742 225.275 291.938 225.905 293.186C234.645 310.506 228.351 331.298 211.845 339.628C203.721 343.727 194.638 344.044 186.466 341.243C183.398 346.509 178.881 350.934 173.121 353.841C157.709 361.619 138.845 355.78 129.297 340.873C126.43 343.061 123.328 345.013 120.002 346.692C95.6097 359.001 66.538 352.871 47.5654 333.571C33.9135 334.934 19.9451 327.527 13.122 314.007C4.38176 296.687 10.6766 275.895 27.182 267.565C28.5225 266.889 29.8891 266.315 31.2735 265.842C34.0054 257.504 38.4322 249.807 44.3781 243.331C39.0607 239.052 34.5184 233.553 31.2104 226.998L31.1382 226.854C26.8613 223.621 23.2112 219.348 20.6043 214.182C11.864 196.863 18.1589 176.07 34.6643 167.741C39.3742 165.364 44.4065 164.259 49.3969 164.295C49.7091 164.128 50.0242 163.964 50.342 163.804C54.5761 161.667 59.0017 160.286 63.4758 159.609C66.4011 155.836 69.6803 152.317 73.2965 149.106C78.074 134.816 88.032 122.509 102.211 115.354C116.898 107.942 133.342 107.457 148.075 112.665C149.591 102.147 155.817 92.675 165.711 87.6818C182.216 79.3524 202.682 86.6403 211.422 103.96C213.312 107.704 214.499 111.611 215.032 115.519C227.623 115.508 239.989 122.777 246.28 135.243C253.429 149.41 250.519 165.9 240.19 175.992C240.137 184.914 238.278 193.639 234.784 201.598C242.983 206.187 250.024 213.289 254.651 222.457C266.544 246.024 257.979 274.317 235.519 285.651C231.744 287.556 227.817 288.86 223.839 289.601Z"/>
</mask>
<path fill-rule="evenodd" clip-rule="evenodd" d="M223.839 289.601C224.585 290.742 225.275 291.938 225.905 293.186C234.645 310.506 228.351 331.298 211.845 339.628C203.721 343.727 194.638 344.044 186.466 341.243C183.398 346.509 178.881 350.934 173.121 353.841C157.709 361.619 138.845 355.78 129.297 340.873C126.43 343.061 123.328 345.013 120.002 346.692C95.6097 359.001 66.538 352.871 47.5654 333.571C33.9135 334.934 19.9451 327.527 13.122 314.007C4.38176 296.687 10.6766 275.895 27.182 267.565C28.5225 266.889 29.8891 266.315 31.2735 265.842C34.0054 257.504 38.4322 249.807 44.3781 243.331C39.0607 239.052 34.5184 233.553 31.2104 226.998L31.1382 226.854C26.8613 223.621 23.2112 219.348 20.6043 214.182C11.864 196.863 18.1589 176.07 34.6643 167.741C39.3742 165.364 44.4065 164.259 49.3969 164.295C49.7091 164.128 50.0242 163.964 50.342 163.804C54.5761 161.667 59.0017 160.286 63.4758 159.609C66.4011 155.836 69.6803 152.317 73.2965 149.106C78.074 134.816 88.032 122.509 102.211 115.354C116.898 107.942 133.342 107.457 148.075 112.665C149.591 102.147 155.817 92.675 165.711 87.6818C182.216 79.3524 202.682 86.6403 211.422 103.96C213.312 107.704 214.499 111.611 215.032 115.519C227.623 115.508 239.989 122.777 246.28 135.243C253.429 149.41 250.519 165.9 240.19 175.992C240.137 184.914 238.278 193.639 234.784 201.598C242.983 206.187 250.024 213.289 254.651 222.457C266.544 246.024 257.979 274.317 235.519 285.651C231.744 287.556 227.817 288.86 223.839 289.601Z" fill="#296C38"/>
<path d="M225.905 293.186L218.81 296.767L218.81 296.767L225.905 293.186ZM223.839 289.601L222.385 281.788L210.669 283.969L217.186 293.946L223.839 289.601ZM211.845 339.628L208.265 332.533L208.265 332.533L211.845 339.628ZM186.466 341.243L189.043 333.725L182.879 331.613L179.6 337.243L186.466 341.243ZM173.121 353.841L169.54 346.747L169.54 346.747L173.121 353.841ZM129.297 340.873L135.989 336.587L131.335 329.32L124.475 334.556L129.297 340.873ZM120.002 346.692L123.582 353.787L123.582 353.787L120.002 346.692ZM47.5654 333.571L53.2325 328L50.5638 325.285L46.7757 325.663L47.5654 333.571ZM13.122 314.007L6.02742 317.587L6.02742 317.587L13.122 314.007ZM27.182 267.565L23.6017 260.471L23.6017 260.471L27.182 267.565ZM31.2735 265.842L33.8451 273.361L37.5922 272.08L38.8253 268.316L31.2735 265.842ZM44.3781 243.331L50.2316 248.706L55.9684 242.458L49.3605 237.14L44.3781 243.331ZM31.2104 226.998L24.1103 230.567L24.1158 230.578L31.2104 226.998ZM31.1382 226.854L38.2383 223.285L37.4068 221.631L35.93 220.514L31.1382 226.854ZM20.6043 214.182L27.6989 210.602L27.6989 210.602L20.6043 214.182ZM34.6643 167.741L31.084 160.646L31.084 160.646L34.6643 167.741ZM49.3969 164.295L49.3384 172.242L51.3624 172.257L53.1469 171.302L49.3969 164.295ZM50.342 163.804L46.7617 156.709L46.7616 156.709L50.342 163.804ZM63.4758 159.609L64.6649 167.466L67.8079 166.99L69.7558 164.478L63.4758 159.609ZM73.2965 149.106L78.573 155.048L80.1602 153.639L80.8333 151.625L73.2965 149.106ZM102.211 115.354L98.6305 108.259L98.6305 108.259L102.211 115.354ZM148.075 112.665L145.426 120.157L154.558 123.385L155.94 113.799L148.075 112.665ZM165.711 87.6818L162.131 80.5872L162.131 80.5872L165.711 87.6818ZM211.422 103.96L218.517 100.38L218.517 100.38L211.422 103.96ZM215.032 115.519L207.158 116.593L208.096 123.472L215.039 123.466L215.032 115.519ZM246.28 135.243L253.374 131.663L253.374 131.663L246.28 135.243ZM240.19 175.992L234.636 170.309L232.263 172.627L232.243 175.945L240.19 175.992ZM234.784 201.598L227.508 198.404L224.608 205.009L230.903 208.532L234.784 201.598ZM254.651 222.457L261.746 218.877L261.746 218.877L254.651 222.457ZM235.519 285.651L231.939 278.556L231.939 278.556L235.519 285.651ZM233 289.606C232.237 288.095 231.399 286.643 230.492 285.255L217.186 293.946C217.77 294.842 218.314 295.782 218.81 296.767L233 289.606ZM215.425 346.722C236.167 336.255 243.553 310.518 233 289.606L218.81 296.767C225.738 310.494 220.534 326.342 208.265 332.533L215.425 346.722ZM183.89 348.761C193.948 352.208 205.263 351.851 215.425 346.722L208.265 332.533C202.18 335.604 195.329 335.88 189.043 333.725L183.89 348.761ZM176.701 360.936C183.892 357.307 189.525 351.778 193.333 345.243L179.6 337.243C177.271 341.24 173.87 344.562 169.54 346.747L176.701 360.936ZM122.605 345.159C134.159 363.198 157.343 370.705 176.701 360.936L169.54 346.747C158.075 352.533 143.531 348.362 135.989 336.587L122.605 345.159ZM123.582 353.787C127.348 351.886 130.865 349.673 134.119 347.19L124.475 334.556C121.995 336.449 119.308 338.141 116.421 339.597L123.582 353.787ZM41.8982 339.142C63.0684 360.678 95.8262 367.794 123.582 353.787L116.421 339.597C95.3931 350.209 70.0076 345.065 53.2325 328L41.8982 339.142ZM6.02742 317.587C14.2941 333.968 31.3525 343.176 48.3551 341.478L46.7757 325.663C36.4746 326.692 25.596 321.086 20.2166 310.427L6.02742 317.587ZM23.6017 260.471C2.86 270.938 -4.52578 296.675 6.02742 317.587L20.2167 310.427C13.2893 296.699 18.4932 280.852 30.7623 274.66L23.6017 260.471ZM28.7019 258.323C26.9732 258.914 25.2694 259.629 23.6017 260.471L30.7622 274.66C31.7756 274.149 32.8051 273.717 33.8451 273.361L28.7019 258.323ZM38.5246 237.956C31.7842 245.297 26.7933 253.993 23.7217 263.368L38.8253 268.316C41.2175 261.015 45.0802 254.316 50.2316 248.706L38.5246 237.956ZM24.1158 230.578C27.9401 238.156 33.2071 244.542 39.3957 249.522L49.3605 237.14C44.9144 233.562 41.0968 228.949 38.3051 223.417L24.1158 230.578ZM24.038 230.423L24.1103 230.567L38.3106 223.428L38.2383 223.285L24.038 230.423ZM13.5097 217.762C16.6706 224.026 21.1139 229.239 26.3464 233.194L35.93 220.514C32.6086 218.004 29.7519 214.67 27.6989 210.602L13.5097 217.762ZM31.084 160.646C10.3423 171.113 2.95649 196.85 13.5097 217.762L27.6989 210.602C20.7716 196.875 25.9755 181.027 38.2446 174.835L31.084 160.646ZM49.4554 156.349C43.2424 156.303 36.9577 157.682 31.084 160.646L38.2445 174.835C41.7906 173.046 45.5706 172.214 49.3384 172.242L49.4554 156.349ZM46.7616 156.709C46.387 156.899 46.0153 157.092 45.6468 157.289L53.1469 171.302C53.4029 171.165 53.6614 171.03 53.9224 170.899L46.7616 156.709ZM62.2867 151.751C56.9936 152.552 51.7595 154.187 46.7617 156.709L53.9223 170.899C57.3927 169.147 61.0098 168.019 64.6649 167.466L62.2867 151.751ZM68.02 143.163C64.0311 146.705 60.417 150.585 57.1958 154.739L69.7558 164.478C72.3853 161.087 75.3295 157.928 78.573 155.048L68.02 143.163ZM98.6305 108.259C82.4599 116.42 71.1571 130.443 65.7598 146.586L80.8333 151.625C84.991 139.19 93.6042 128.598 105.791 122.448L98.6305 108.259ZM150.723 105.172C134.089 99.2925 115.384 99.8046 98.6305 108.259L105.791 122.448C118.413 116.079 132.595 115.622 145.426 120.157L150.723 105.172ZM162.131 80.5872C149.736 86.8421 142.066 98.6576 140.209 111.531L155.94 113.799C157.117 105.636 161.897 98.5079 169.291 94.7764L162.131 80.5872ZM218.517 100.38C207.964 79.4676 182.872 70.1199 162.131 80.5872L169.291 94.7764C181.56 88.5848 197.4 93.8131 204.328 107.54L218.517 100.38ZM222.906 114.445C222.255 109.672 220.807 104.917 218.517 100.38L204.328 107.54C205.817 110.491 206.743 113.55 207.158 116.593L222.906 114.445ZM253.374 131.663C245.747 116.549 230.654 107.558 215.025 107.572L215.039 123.466C224.591 123.457 234.23 129.004 239.185 138.823L253.374 131.663ZM245.744 181.676C258.634 169.081 262.032 148.819 253.374 131.663L239.185 138.823C244.826 150.001 242.404 162.718 234.636 170.309L245.744 181.676ZM232.243 175.945C232.197 183.797 230.56 191.45 227.508 198.404L242.061 204.792C245.995 195.829 248.077 186.031 248.136 176.039L232.243 175.945ZM261.746 218.877C256.395 208.273 248.224 200.013 238.666 194.663L230.903 208.532C237.743 212.36 243.654 218.305 247.556 226.037L261.746 218.877ZM239.1 292.745C265.795 279.273 275.452 246.036 261.746 218.877L247.556 226.037C257.637 246.012 250.162 269.36 231.939 278.556L239.1 292.745ZM225.293 297.413C230.001 296.537 234.645 294.994 239.1 292.745L231.939 278.556C228.844 280.118 225.634 281.183 222.385 281.788L225.293 297.413Z" fill="#07573A" mask="url(#path-10-outside-5_442_9)"/>
<mask id="path-12-outside-6_442_9" maskUnits="userSpaceOnUse" x="3.0083" y="103.774" width="255.931" height="251.641" fill="black">
<rect fill="white" x="3.0083" y="103.774" width="255.931" height="251.641"/>
<path fill-rule="evenodd" clip-rule="evenodd" d="M197.523 272.855C198.057 273.672 198.551 274.528 199.002 275.421C205.257 287.816 200.752 302.697 188.94 308.658C183.126 311.591 176.626 311.818 170.778 309.814C168.582 313.582 165.35 316.749 161.227 318.83C150.198 324.396 136.698 320.217 129.865 309.549C127.813 311.115 125.593 312.512 123.212 313.713C120.636 315.013 117.986 316.026 115.298 316.764C113.652 323.226 109.447 328.881 103.194 332.037C91.3821 337.998 76.7357 332.782 70.4807 320.387C67.8728 315.219 67.1353 309.619 68.0179 304.414C59.3817 304.028 51.0469 298.891 46.7226 290.322C40.4676 277.927 44.9725 263.047 56.7847 257.086C57.7442 256.601 58.7225 256.191 59.7134 255.852C61.6686 249.885 64.8366 244.376 69.0919 239.742C65.2863 236.68 62.0354 232.744 59.668 228.053L59.6158 227.949C56.5555 225.636 53.9439 222.578 52.0785 218.881C45.8234 206.486 50.3284 191.606 62.1406 185.645C65.5109 183.944 69.1121 183.153 72.6831 183.179C72.9066 183.06 73.1321 182.943 73.3596 182.828C76.39 181.299 79.5574 180.31 82.7595 179.825C83.5331 178.828 84.3412 177.855 85.1834 176.909C85.5026 161.329 93.8125 146.705 108.168 139.46C127.515 129.697 151.121 136.729 163.509 155.045C166.645 155.581 169.729 156.453 172.705 157.644C174.796 154.804 177.543 152.418 180.87 150.739C192.682 144.778 207.329 149.993 213.584 162.388C219.839 174.783 215.334 189.663 203.522 195.624C203.129 195.823 202.734 196.008 202.335 196.182C202.871 200.285 202.864 204.386 202.347 208.38C209.491 211.5 215.71 217.145 219.575 224.803C228.086 241.669 221.956 261.917 205.883 270.028C203.181 271.392 200.371 272.326 197.523 272.855Z"/>
</mask>
<path fill-rule="evenodd" clip-rule="evenodd" d="M197.523 272.855C198.057 273.672 198.551 274.528 199.002 275.421C205.257 287.816 200.752 302.697 188.94 308.658C183.126 311.591 176.626 311.818 170.778 309.814C168.582 313.582 165.35 316.749 161.227 318.83C150.198 324.396 136.698 320.217 129.865 309.549C127.813 311.115 125.593 312.512 123.212 313.713C120.636 315.013 117.986 316.026 115.298 316.764C113.652 323.226 109.447 328.881 103.194 332.037C91.3821 337.998 76.7357 332.782 70.4807 320.387C67.8728 315.219 67.1353 309.619 68.0179 304.414C59.3817 304.028 51.0469 298.891 46.7226 290.322C40.4676 277.927 44.9725 263.047 56.7847 257.086C57.7442 256.601 58.7225 256.191 59.7134 255.852C61.6686 249.885 64.8366 244.376 69.0919 239.742C65.2863 236.68 62.0354 232.744 59.668 228.053L59.6158 227.949C56.5555 225.636 53.9439 222.578 52.0785 218.881C45.8234 206.486 50.3284 191.606 62.1406 185.645C65.5109 183.944 69.1121 183.153 72.6831 183.179C72.9066 183.06 73.1321 182.943 73.3596 182.828C76.39 181.299 79.5574 180.31 82.7595 179.825C83.5331 178.828 84.3412 177.855 85.1834 176.909C85.5026 161.329 93.8125 146.705 108.168 139.46C127.515 129.697 151.121 136.729 163.509 155.045C166.645 155.581 169.729 156.453 172.705 157.644C174.796 154.804 177.543 152.418 180.87 150.739C192.682 144.778 207.329 149.993 213.584 162.388C219.839 174.783 215.334 189.663 203.522 195.624C203.129 195.823 202.734 196.008 202.335 196.182C202.871 200.285 202.864 204.386 202.347 208.38C209.491 211.5 215.71 217.145 219.575 224.803C228.086 241.669 221.956 261.917 205.883 270.028C203.181 271.392 200.371 272.326 197.523 272.855Z" fill="#2E7E40"/>
<path d="M199.002 275.421L191.907 279.002L191.907 279.002L199.002 275.421ZM197.523 272.855L196.07 265.043L184.353 267.223L190.87 277.201L197.523 272.855ZM188.94 308.658L192.52 315.752L192.52 315.752L188.94 308.658ZM170.778 309.814L173.354 302.296L167.191 300.184L163.912 305.813L170.778 309.814ZM161.227 318.83L157.647 311.735L157.647 311.735L161.227 318.83ZM129.865 309.549L136.557 305.263L131.902 297.996L125.043 303.232L129.865 309.549ZM123.212 313.713L126.793 320.808L126.793 320.808L123.212 313.713ZM115.298 316.764L113.196 309.1L108.737 310.323L107.597 314.803L115.298 316.764ZM103.194 332.037L106.775 339.131L106.775 339.131L103.194 332.037ZM70.4807 320.387L63.3861 323.967L63.3861 323.967L70.4807 320.387ZM68.0179 304.414L75.8529 305.743L77.3564 296.877L68.3726 296.475L68.0179 304.414ZM46.7226 290.322L53.8172 286.741L53.8172 286.741L46.7226 290.322ZM56.7847 257.086L60.365 264.18L60.365 264.18L56.7847 257.086ZM59.7134 255.852L62.2848 263.371L66.032 262.09L67.2652 258.326L59.7134 255.852ZM69.0919 239.742L74.9454 245.117L80.6822 238.869L74.0742 233.551L69.0919 239.742ZM59.668 228.053L52.5679 231.622L52.5734 231.633L59.668 228.053ZM59.6158 227.949L66.7159 224.38L65.8845 222.726L64.408 221.61L59.6158 227.949ZM52.0785 218.881L59.1731 215.301L59.1731 215.301L52.0785 218.881ZM62.1406 185.645L65.7209 192.74L65.7209 192.74L62.1406 185.645ZM72.6831 183.179L72.625 191.126L74.6489 191.141L76.4334 190.186L72.6831 183.179ZM73.3596 182.828L69.7793 175.733L69.7793 175.733L73.3596 182.828ZM82.7595 179.825L83.9484 187.683L87.0915 187.207L89.0395 184.695L82.7595 179.825ZM85.1834 176.909L91.1195 182.192L93.0685 180.002L93.1285 177.071L85.1834 176.909ZM108.168 139.46L111.748 146.555L111.748 146.555L108.168 139.46ZM163.509 155.045L156.926 159.497L158.827 162.307L162.171 162.878L163.509 155.045ZM172.705 157.644L169.754 165.023L175.461 167.305L179.105 162.355L172.705 157.644ZM180.87 150.739L184.451 157.833L184.451 157.833L180.87 150.739ZM213.584 162.388L220.679 158.808L213.584 162.388ZM203.522 195.624L207.102 202.719L207.102 202.719L203.522 195.624ZM202.335 196.182L199.161 188.896L193.681 191.284L194.455 197.211L202.335 196.182ZM202.347 208.38L194.466 207.359L193.7 213.274L199.166 215.662L202.347 208.38ZM219.575 224.803L212.48 228.384L212.48 228.384L219.575 224.803ZM205.883 270.028L209.464 277.123L209.464 277.123L205.883 270.028ZM206.097 271.841C205.513 270.685 204.871 269.573 204.177 268.51L190.87 277.201C191.243 277.772 191.59 278.372 191.907 279.002L206.097 271.841ZM192.52 315.752C208.569 307.653 214.165 287.828 206.097 271.841L191.907 279.002C196.35 287.804 192.936 297.74 185.36 301.563L192.52 315.752ZM168.202 317.331C175.936 319.982 184.668 319.715 192.52 315.752L185.36 301.563C181.585 303.468 177.316 303.654 173.354 302.296L168.202 317.331ZM164.808 325.924C170.361 323.122 174.71 318.852 177.645 313.814L163.912 305.813C162.455 308.313 160.339 310.376 157.647 311.735L164.808 325.924ZM123.173 313.835C132.012 327.635 149.832 333.482 164.808 325.924L157.647 311.735C150.564 315.309 141.384 312.799 136.557 305.263L123.173 313.835ZM126.793 320.808C129.613 319.385 132.248 317.727 134.686 315.866L125.043 303.232C123.378 304.503 121.573 305.639 119.632 306.619L126.793 320.808ZM117.4 324.427C120.595 323.551 123.74 322.348 126.793 320.808L119.632 306.619C117.531 307.679 115.377 308.501 113.196 309.1L117.4 324.427ZM106.775 339.131C115.226 334.866 120.829 327.249 122.999 318.724L107.597 314.803C106.476 319.204 103.669 322.896 99.614 324.942L106.775 339.131ZM63.3861 323.967C71.4541 339.955 90.7261 347.23 106.775 339.131L99.614 324.942C92.0381 328.765 82.0174 325.609 77.5753 316.807L63.3861 323.967ZM60.183 303.086C59.0211 309.938 60.0014 317.26 63.3861 323.967L77.5753 316.807C75.7442 313.178 75.2495 309.301 75.8529 305.743L60.183 303.086ZM39.628 293.902C45.2372 305.017 56.1378 311.838 67.6633 312.353L68.3726 296.475C62.6256 296.219 56.8566 292.764 53.8172 286.741L39.628 293.902ZM53.2044 249.991C37.1559 258.09 31.56 277.915 39.628 293.902L53.8172 286.741C49.3751 277.939 52.7891 268.003 60.365 264.18L53.2044 249.991ZM57.142 248.333C55.8066 248.789 54.4912 249.342 53.2044 249.991L60.365 264.18C60.9972 263.861 61.6383 263.592 62.2848 263.371L57.142 248.333ZM63.2384 234.367C58.1887 239.867 54.4565 246.374 52.1616 253.378L67.2652 258.326C68.8806 253.396 71.4846 248.886 74.9454 245.117L63.2384 234.367ZM52.5734 231.633C55.4571 237.347 59.4327 242.169 64.1095 245.933L74.0742 233.551C71.1399 231.19 68.6138 228.141 66.7626 224.473L52.5734 231.633ZM52.5157 231.519L52.5679 231.622L66.7681 224.483L66.7159 224.38L52.5157 231.519ZM44.9839 222.462C47.4031 227.256 50.808 231.253 54.8236 234.288L64.408 221.61C62.3031 220.019 60.4846 217.9 59.1731 215.301L44.9839 222.462ZM58.5603 178.55C42.5118 186.649 36.9159 206.474 44.9839 222.462L59.1731 215.301C54.731 206.499 58.145 196.563 65.7209 192.74L58.5603 178.55ZM72.7413 175.233C67.9477 175.198 63.0944 176.262 58.5603 178.55L65.7209 192.74C67.9275 191.626 70.2764 191.109 72.625 191.126L72.7413 175.233ZM69.7793 175.733C69.4951 175.877 69.213 176.023 68.9329 176.173L76.4334 190.186C76.6003 190.096 76.7691 190.009 76.94 189.922L69.7793 175.733ZM81.5706 171.968C77.5494 172.576 73.5734 173.819 69.7793 175.733L76.9399 189.922C79.2065 188.779 81.5654 188.043 83.9484 187.683L81.5706 171.968ZM79.2473 171.625C78.2851 172.706 77.3623 173.817 76.4795 174.956L89.0395 184.695C89.7038 183.838 90.3974 183.003 91.1195 182.192L79.2473 171.625ZM104.588 132.366C87.3808 141.049 77.6124 158.488 77.2382 176.746L93.1285 177.071C93.3929 164.17 100.244 152.36 111.748 146.555L104.588 132.366ZM170.091 150.593C155.661 129.256 127.811 120.646 104.588 132.366L111.748 146.555C127.219 138.748 146.581 144.201 156.926 159.497L170.091 150.593ZM162.171 162.878C164.748 163.319 167.291 164.037 169.754 165.023L175.656 150.265C172.166 148.87 168.543 147.843 164.847 147.212L162.171 162.878ZM177.29 143.644C172.814 145.903 169.113 149.12 166.306 152.932L179.105 162.355C180.479 160.489 182.272 158.933 184.451 157.833L177.29 143.644ZM220.679 158.808C212.611 142.821 193.338 135.545 177.29 143.644L184.451 157.833C192.026 154.01 202.047 157.166 206.489 165.969L220.679 158.808ZM207.102 202.719C223.151 194.62 228.747 174.795 220.679 158.808L206.489 165.969C210.931 174.771 207.517 184.707 199.942 188.53L207.102 202.719ZM205.509 203.467C206.045 203.234 206.576 202.985 207.102 202.719L199.942 188.53C199.683 188.66 199.423 188.783 199.161 188.896L205.509 203.467ZM194.455 197.211C194.902 200.631 194.896 204.043 194.466 207.359L210.228 209.401C210.833 204.729 210.84 199.938 210.215 195.153L194.455 197.211ZM226.67 221.223C221.958 211.887 214.341 204.947 205.528 201.097L199.166 215.662C204.64 218.053 209.462 222.402 212.48 228.384L226.67 221.223ZM209.464 277.123C229.773 266.874 236.994 241.681 226.67 221.223L212.48 228.384C219.179 241.657 214.14 256.96 202.303 262.934L209.464 277.123ZM198.977 280.668C202.554 280.003 206.082 278.83 209.464 277.123L202.303 262.934C200.281 263.954 198.187 264.649 196.07 265.043L198.977 280.668Z" fill="#0A5F40" mask="url(#path-12-outside-6_442_9)"/>
<mask id="path-14-outside-7_442_9" maskUnits="userSpaceOnUse" x="64.0389" y="156.13" width="149.613" height="151.758" fill="black">
<rect fill="white" x="64.0389" y="156.13" width="149.613" height="151.758"/>
<path fill-rule="evenodd" clip-rule="evenodd" d="M131.729 252.971L131.71 252.959L131.741 252.958L131.729 252.971ZM130.544 290.042C137.244 286.661 141.206 279.938 141.579 272.692C142.808 272.553 144.028 272.2 145.188 271.614C146.279 271.064 147.236 270.349 148.046 269.512C151.664 270.672 155.65 270.489 159.225 268.685C166.319 265.105 169.24 256.433 166.116 248.859C169.414 247.132 171.786 244.292 173.037 240.982C175.017 240.67 176.974 240.052 178.847 239.106C188.997 233.984 192.865 221.19 187.485 210.53C183.765 203.159 176.599 198.739 169.175 198.406C167.004 194.625 163.091 192.438 159.11 192.442C158.933 191.144 158.539 189.846 157.911 188.602C155.008 182.849 148.209 180.427 142.726 183.195C141.408 183.86 140.285 184.764 139.382 185.834C136.456 180.138 129.695 177.753 124.237 180.507C119.32 182.988 117.131 188.799 118.825 194.122C118.495 194.368 118.174 194.623 117.863 194.888C114.463 191.345 109.185 190.202 104.764 192.433C99.2803 195.2 97.1891 202.108 100.093 207.862C101.279 210.213 103.117 212.008 105.249 213.12C103.039 218.386 102.463 224.391 103.78 230.275C99.5163 233.033 97.0818 237.785 96.9977 242.811C96.9001 242.857 96.8028 242.904 96.706 242.953C91.2228 245.72 89.1316 252.627 92.0352 258.381C93.8229 261.924 97.0871 264.203 100.612 264.786C99.4248 269.669 99.9309 275.072 102.426 280.015C107.805 290.675 120.394 295.164 130.544 290.042Z"/>
</mask>
<path fill-rule="evenodd" clip-rule="evenodd" d="M131.729 252.971L131.71 252.959L131.741 252.958L131.729 252.971ZM130.544 290.042C137.244 286.661 141.206 279.938 141.579 272.692C142.808 272.553 144.028 272.2 145.188 271.614C146.279 271.064 147.236 270.349 148.046 269.512C151.664 270.672 155.65 270.489 159.225 268.685C166.319 265.105 169.24 256.433 166.116 248.859C169.414 247.132 171.786 244.292 173.037 240.982C175.017 240.67 176.974 240.052 178.847 239.106C188.997 233.984 192.865 221.19 187.485 210.53C183.765 203.159 176.599 198.739 169.175 198.406C167.004 194.625 163.091 192.438 159.11 192.442C158.933 191.144 158.539 189.846 157.911 188.602C155.008 182.849 148.209 180.427 142.726 183.195C141.408 183.86 140.285 184.764 139.382 185.834C136.456 180.138 129.695 177.753 124.237 180.507C119.32 182.988 117.131 188.799 118.825 194.122C118.495 194.368 118.174 194.623 117.863 194.888C114.463 191.345 109.185 190.202 104.764 192.433C99.2803 195.2 97.1891 202.108 100.093 207.862C101.279 210.213 103.117 212.008 105.249 213.12C103.039 218.386 102.463 224.391 103.78 230.275C99.5163 233.033 97.0818 237.785 96.9977 242.811C96.9001 242.857 96.8028 242.904 96.706 242.953C91.2228 245.72 89.1316 252.627 92.0352 258.381C93.8229 261.924 97.0871 264.203 100.612 264.786C99.4248 269.669 99.9309 275.072 102.426 280.015C107.805 290.675 120.394 295.164 130.544 290.042Z" fill="#339048"/>
<path d="M131.71 252.959L131.58 245.013L106.298 245.428L127.272 259.551L131.71 252.959ZM131.729 252.971L127.29 259.563L132.873 263.322L137.5 258.434L131.729 252.971ZM131.741 252.958L137.512 258.421L150.498 244.703L131.611 245.013L131.741 252.958ZM141.579 272.692L140.69 264.795L133.989 265.55L133.643 272.283L141.579 272.692ZM130.544 290.042L126.964 282.947L126.964 282.947L130.544 290.042ZM145.188 271.614L141.608 264.52L141.608 264.52L145.188 271.614ZM148.046 269.512L150.473 261.945L145.77 260.436L142.335 263.986L148.046 269.512ZM159.225 268.685L155.645 261.59L155.645 261.59L159.225 268.685ZM166.116 248.859L162.429 241.82L156.004 245.185L158.77 251.89L166.116 248.859ZM173.037 240.982L171.799 233.132L167.237 233.852L165.604 238.171L173.037 240.982ZM178.847 239.106L175.267 232.012L175.267 232.012L178.847 239.106ZM187.485 210.53L194.58 206.95L194.58 206.95L187.485 210.53ZM169.175 198.406L162.283 202.362L164.457 206.149L168.819 206.345L169.175 198.406ZM159.11 192.442L151.236 193.516L152.174 200.395L159.118 200.389L159.11 192.442ZM157.911 188.602L150.817 192.183L150.817 192.183L157.911 188.602ZM142.726 183.195L139.145 176.1L139.145 176.1L142.726 183.195ZM139.382 185.834L132.313 189.465L137.761 200.069L145.453 190.962L139.382 185.834ZM124.237 180.507L120.657 173.412L120.657 173.412L124.237 180.507ZM118.825 194.122L123.573 200.494L128.115 197.109L126.397 191.711L118.825 194.122ZM117.863 194.888L112.129 200.39L117.314 205.794L123.015 200.938L117.863 194.888ZM104.764 192.433L101.183 185.339L101.183 185.339L104.764 192.433ZM100.093 207.862L92.9981 211.442L92.9981 211.442L100.093 207.862ZM105.249 213.12L112.577 216.195L115.407 209.453L108.923 206.073L105.249 213.12ZM103.78 230.275L108.096 236.948L112.745 233.941L111.535 228.539L103.78 230.275ZM96.9977 242.811L100.363 250.01L104.86 247.908L104.943 242.944L96.9977 242.811ZM96.706 242.953L93.1257 235.858L93.1257 235.858L96.706 242.953ZM92.0352 258.381L84.9405 261.961L84.9405 261.961L92.0352 258.381ZM100.612 264.786L108.334 266.662L110.356 258.342L101.908 256.945L100.612 264.786ZM102.426 280.015L109.52 276.435L109.52 276.435L102.426 280.015ZM127.272 259.551L127.29 259.563L136.167 246.379L136.149 246.367L127.272 259.551ZM131.611 245.013L131.58 245.013L131.841 260.905L131.871 260.904L131.611 245.013ZM137.5 258.434L137.512 258.421L125.97 247.495L125.957 247.508L137.5 258.434ZM133.643 272.283C133.404 276.933 130.899 280.962 126.964 282.947L134.125 297.137C143.589 292.36 149.009 282.943 149.516 273.1L133.643 272.283ZM141.608 264.52C141.306 264.672 141 264.76 140.69 264.795L142.469 280.589C144.617 280.347 146.749 279.728 148.768 278.709L141.608 264.52ZM142.335 263.986C142.132 264.196 141.892 264.376 141.608 264.52L148.768 278.709C150.666 277.751 152.34 276.502 153.757 275.038L142.335 263.986ZM155.645 261.59C154.053 262.394 152.236 262.51 150.473 261.945L145.619 277.079C151.091 278.834 157.247 278.585 162.806 275.779L155.645 261.59ZM158.77 251.89C160.446 255.954 158.718 260.039 155.645 261.59L162.806 275.779C173.92 270.171 178.034 256.912 173.462 245.828L158.77 251.89ZM165.604 238.171C164.998 239.773 163.898 241.05 162.429 241.82L169.803 255.899C174.93 253.213 178.573 248.81 180.47 243.793L165.604 238.171ZM175.267 232.012C174.142 232.58 172.976 232.947 171.799 233.132L174.275 248.832C177.057 248.393 179.806 247.524 182.428 246.201L175.267 232.012ZM180.391 214.11C183.96 221.184 181.175 229.03 175.267 232.012L182.428 246.201C196.82 238.938 201.769 221.196 194.58 206.95L180.391 214.11ZM168.819 206.345C173.352 206.548 177.954 209.283 180.391 214.11L194.58 206.95C189.576 197.035 179.846 190.929 169.53 190.467L168.819 206.345ZM159.118 200.389C160.206 200.388 161.509 201.014 162.283 202.362L176.067 194.45C172.5 188.236 165.976 184.489 159.103 184.495L159.118 200.389ZM150.817 192.183C151.044 192.633 151.177 193.083 151.236 193.516L166.984 191.368C166.689 189.205 166.034 187.059 165.006 185.022L150.817 192.183ZM146.306 190.289C147.553 189.66 149.726 190.021 150.817 192.183L165.006 185.022C160.289 175.676 148.865 171.195 139.145 176.1L146.306 190.289ZM145.453 190.962C145.684 190.688 145.965 190.461 146.306 190.289L139.145 176.1C136.85 177.258 134.887 178.84 133.311 180.706L145.453 190.962ZM127.817 187.601C129.059 186.975 131.216 187.33 132.313 189.465L146.45 182.203C141.695 172.947 130.33 168.531 120.657 173.412L127.817 187.601ZM126.397 191.711C125.781 189.776 126.686 188.172 127.817 187.601L120.657 173.412C111.954 177.804 108.48 187.822 111.252 196.532L126.397 191.711ZM123.015 200.938C123.196 200.785 123.382 200.636 123.573 200.494L114.076 187.75C113.607 188.099 113.152 188.462 112.711 188.838L123.015 200.938ZM108.344 199.528C109.371 199.01 110.924 199.135 112.129 200.39L123.597 189.386C118.001 183.554 109 181.394 101.183 185.339L108.344 199.528ZM107.187 204.281C106.097 202.12 107.097 200.157 108.344 199.528L101.183 185.339C91.4637 190.244 88.2815 202.096 92.9981 211.442L107.187 204.281ZM108.923 206.073C108.242 205.718 107.613 205.124 107.187 204.281L92.9981 211.442C94.9462 215.302 97.9921 218.298 101.576 220.167L108.923 206.073ZM111.535 228.539C110.577 224.259 111.007 219.936 112.577 216.195L97.9217 210.044C95.0717 216.836 94.3488 224.523 96.0253 232.011L111.535 228.539ZM104.943 242.944C104.987 240.36 106.224 238.159 108.096 236.948L99.4645 223.602C92.8083 227.907 89.177 235.21 89.052 242.678L104.943 242.944ZM100.286 250.048C100.312 250.034 100.338 250.022 100.363 250.01L93.6323 235.612C93.4624 235.692 93.2935 235.774 93.1257 235.858L100.286 250.048ZM99.1298 254.801C98.0391 252.64 99.0393 250.677 100.286 250.048L93.1257 235.858C83.4062 240.763 80.224 252.615 84.9405 261.961L99.1298 254.801ZM101.908 256.945C100.875 256.774 99.7703 256.07 99.1298 254.801L84.9405 261.961C87.8754 267.777 93.2994 271.631 99.3153 272.626L101.908 256.945ZM109.52 276.435C107.889 273.203 107.586 269.738 108.334 266.662L92.8898 262.909C91.2633 269.601 91.9725 276.94 95.331 283.595L109.52 276.435ZM126.964 282.947C121.056 285.929 113.09 283.508 109.52 276.435L95.331 283.595C102.521 297.842 119.733 304.399 134.125 297.137L126.964 282.947Z" fill="#0B6645" mask="url(#path-14-outside-7_442_9)"/>
<mask id="path-16-outside-8_442_9" maskUnits="userSpaceOnUse" x="193.787" y="-9.05582" width="245.248" height="244.025" fill="black">
<rect fill="white" x="193.787" y="-9.05582" width="245.248" height="244.025"/>
<path fill-rule="evenodd" clip-rule="evenodd" d="M256.949 63.927C253.68 55.1439 254.293 45.2105 259.497 36.9064C268.628 22.3378 288.433 18.3011 303.733 27.89C308.763 31.0423 312.68 35.2748 315.347 40.0541C321.743 39.8599 328.344 41.5298 334.27 45.2436C346.412 52.8532 352.068 66.7569 349.323 79.4536C354.648 79.0266 360.227 80.2799 365.191 83.3911C375.877 90.088 380.057 103.101 375.548 113.86C377.573 114.297 379.568 115.091 381.438 116.263C389.697 121.439 392.393 132.015 387.461 139.885C383.276 146.561 374.946 149.146 367.474 146.617C379.754 156.419 383.283 173.576 375.127 186.59C366.322 200.64 347.232 204.539 332.49 195.3C324.49 190.286 319.414 182.435 317.851 174.057C310.355 179.539 299.681 180.084 290.989 174.637C279.751 167.594 276.083 153.203 282.794 142.494C282.941 142.26 283.091 142.03 283.245 141.803C280.563 136.571 279.002 130.884 278.663 125.136C276.946 124.531 275.264 123.726 273.651 122.715C264.682 117.094 260.534 106.793 262.637 97.4183C259.489 97.3449 256.286 96.435 253.383 94.6159C245.125 89.4403 242.428 78.8645 247.361 70.9944C249.615 67.3982 253.071 64.9891 256.949 63.927ZM360.464 142.318C360.21 142.069 359.963 141.814 359.725 141.553C359.673 141.677 359.62 141.802 359.567 141.926C359.867 142.052 360.166 142.182 360.464 142.318Z"/>
</mask>
<path fill-rule="evenodd" clip-rule="evenodd" d="M256.949 63.927C253.68 55.1439 254.293 45.2105 259.497 36.9064C268.628 22.3378 288.433 18.3011 303.733 27.89C308.763 31.0423 312.68 35.2748 315.347 40.0541C321.743 39.8599 328.344 41.5298 334.27 45.2436C346.412 52.8532 352.068 66.7569 349.323 79.4536C354.648 79.0266 360.227 80.2799 365.191 83.3911C375.877 90.088 380.057 103.101 375.548 113.86C377.573 114.297 379.568 115.091 381.438 116.263C389.697 121.439 392.393 132.015 387.461 139.885C383.276 146.561 374.946 149.146 367.474 146.617C379.754 156.419 383.283 173.576 375.127 186.59C366.322 200.64 347.232 204.539 332.49 195.3C324.49 190.286 319.414 182.435 317.851 174.057C310.355 179.539 299.681 180.084 290.989 174.637C279.751 167.594 276.083 153.203 282.794 142.494C282.941 142.26 283.091 142.03 283.245 141.803C280.563 136.571 279.002 130.884 278.663 125.136C276.946 124.531 275.264 123.726 273.651 122.715C264.682 117.094 260.534 106.793 262.637 97.4183C259.489 97.3449 256.286 96.435 253.383 94.6159C245.125 89.4403 242.428 78.8645 247.361 70.9944C249.615 67.3982 253.071 64.9891 256.949 63.927ZM360.464 142.318C360.21 142.069 359.963 141.814 359.725 141.553C359.673 141.677 359.62 141.802 359.567 141.926C359.867 142.052 360.166 142.182 360.464 142.318Z" fill="#296C38"/>
<path d="M256.949 63.927L259.048 71.5915L267.427 69.2966L264.397 61.1552L256.949 63.927ZM259.497 36.9064L252.764 32.6863L259.497 36.9064ZM303.733 27.89L299.513 34.6237L299.513 34.6237L303.733 27.89ZM315.347 40.0541L308.408 43.9273L310.762 48.1438L315.589 47.9972L315.347 40.0541ZM334.27 45.2436L330.05 51.9773L330.05 51.9773L334.27 45.2436ZM349.323 79.4536L341.556 77.7742L339.295 88.2302L349.958 87.375L349.323 79.4536ZM365.191 83.3911L369.411 76.6574L369.411 76.6574L365.191 83.3911ZM375.548 113.86L368.219 110.788L364.521 119.612L373.873 121.628L375.548 113.86ZM381.438 116.263L385.659 109.53L385.659 109.53L381.438 116.263ZM387.461 139.885L380.727 135.665L387.461 139.885ZM367.474 146.617L370.022 139.089L362.516 152.828L367.474 146.617ZM375.127 186.59L368.393 182.37L368.393 182.37L375.127 186.59ZM332.49 195.3L336.71 188.566L332.49 195.3ZM317.851 174.057L325.663 172.599L323.347 160.191L313.16 167.643L317.851 174.057ZM290.989 174.637L295.209 167.903L295.209 167.903L290.989 174.637ZM282.794 142.494L276.06 138.274L276.06 138.274L282.794 142.494ZM283.245 141.803L289.817 146.271L292.467 142.373L290.317 138.178L283.245 141.803ZM278.663 125.136L286.596 124.668L286.285 119.395L281.304 117.64L278.663 125.136ZM273.651 122.715L269.431 129.448L269.431 129.448L273.651 122.715ZM262.637 97.4183L270.391 99.1575L272.513 89.6996L262.822 89.4736L262.637 97.4183ZM253.383 94.6159L257.603 87.8822L257.603 87.8822L253.383 94.6159ZM247.361 70.9944L240.627 66.7743L240.627 66.7743L247.361 70.9944ZM359.725 141.553L365.6 136.201L357.208 126.987L352.395 138.484L359.725 141.553ZM360.464 142.318L357.177 149.553L366.017 136.633L360.464 142.318ZM359.567 141.926L352.269 138.781L349.091 146.154L356.496 149.256L359.567 141.926ZM264.397 61.1552C261.921 54.502 262.44 47.1758 266.231 41.1265L252.764 32.6863C246.146 43.2452 245.44 55.7858 249.501 66.6988L264.397 61.1552ZM266.231 41.1265C272.838 30.584 287.617 27.1682 299.513 34.6237L307.953 21.1563C289.249 9.43393 264.417 14.0916 252.764 32.6863L266.231 41.1265ZM299.513 34.6237C303.394 37.0563 306.383 40.2984 308.408 43.9273L322.286 36.1809C318.977 30.2511 314.131 25.0283 307.953 21.1563L299.513 34.6237ZM338.49 38.5099C331.209 33.9469 323.051 31.8697 315.106 32.1109L315.589 47.9972C320.434 47.8501 325.479 49.1127 330.05 51.9773L338.49 38.5099ZM357.09 81.133C360.563 65.071 353.386 47.8455 338.49 38.5099L330.05 51.9773C339.438 57.8608 343.573 68.4427 341.556 77.7742L357.09 81.133ZM369.411 76.6574C362.975 72.624 355.69 70.9707 348.688 71.5322L349.958 87.375C353.606 87.0825 357.478 87.9359 360.971 90.1248L369.411 76.6574ZM382.877 116.932C388.974 102.385 383.209 85.3046 369.411 76.6574L360.971 90.1248C368.545 94.8715 371.141 103.816 368.219 110.788L382.877 116.932ZM385.659 109.53C382.999 107.863 380.141 106.721 377.223 106.092L373.873 121.628C375.004 121.872 376.137 122.32 377.218 122.997L385.659 109.53ZM394.194 144.105C401.647 132.214 397.327 116.842 385.659 109.53L377.218 122.997C382.067 126.036 383.139 131.815 380.727 135.665L394.194 144.105ZM364.926 154.144C375.567 157.746 387.883 154.176 394.194 144.105L380.727 135.665C378.67 138.947 374.325 140.546 370.022 139.089L364.926 154.144ZM381.861 190.81C392.345 174.082 387.592 152.507 372.431 140.406L362.516 152.828C371.916 160.331 374.221 173.071 368.393 182.37L381.861 190.81ZM328.27 202.033C346.422 213.41 370.536 208.881 381.861 190.81L368.393 182.37C362.108 192.399 348.043 195.669 336.71 188.566L328.27 202.033ZM310.039 175.515C312.005 186.051 318.367 195.827 328.27 202.033L336.71 188.566C330.614 184.745 326.824 178.819 325.663 172.599L310.039 175.515ZM286.769 181.37C298.153 188.505 312.361 187.918 322.542 180.471L313.16 167.643C308.35 171.161 301.209 171.663 295.209 167.903L286.769 181.37ZM276.06 138.274C266.829 153.004 272.122 172.191 286.769 181.37L295.209 167.903C287.381 162.997 285.336 153.403 289.528 146.714L276.06 138.274ZM276.673 137.336C276.464 137.644 276.259 137.957 276.06 138.274L289.528 146.715C289.622 146.564 289.719 146.416 289.817 146.271L276.673 137.336ZM270.73 125.604C271.135 132.473 272.997 139.233 276.173 145.429L290.317 138.178C288.128 133.909 286.869 129.295 286.596 124.668L270.73 125.604ZM269.431 129.448C271.543 130.772 273.755 131.832 276.022 132.631L281.304 117.64C280.137 117.229 278.985 116.679 277.871 115.981L269.431 129.448ZM254.883 95.6791C252.022 108.436 257.689 122.09 269.431 129.448L277.871 115.981C271.675 112.098 269.047 105.15 270.391 99.1575L254.883 95.6791ZM249.163 101.35C253.295 103.939 257.896 105.257 262.452 105.363L262.822 89.4736C261.082 89.433 259.276 88.9306 257.603 87.8822L249.163 101.35ZM240.627 66.7743C233.175 78.6652 237.495 94.037 249.163 101.35L257.603 87.8822C252.755 84.8435 251.682 79.0639 254.094 75.2145L240.627 66.7743ZM254.849 56.2625C249.171 57.8179 244.004 61.3859 240.627 66.7743L254.094 75.2145C255.225 73.4104 256.971 72.1604 259.048 71.5915L254.849 56.2625ZM353.85 146.904C354.192 147.279 354.546 147.646 354.912 148.003L366.017 136.633C365.873 136.492 365.734 136.348 365.6 136.201L353.85 146.904ZM366.865 145.071C366.929 144.921 366.993 144.771 367.056 144.621L352.395 138.484C352.353 138.583 352.311 138.682 352.269 138.781L366.865 145.071ZM363.752 135.083C363.382 134.915 363.01 134.752 362.637 134.596L356.496 149.256C356.724 149.351 356.951 149.45 357.177 149.553L363.752 135.083Z" fill="#07573A" mask="url(#path-16-outside-8_442_9)"/>
<mask id="path-18-outside-9_442_9" maskUnits="userSpaceOnUse" x="238.018" y="31.2607" width="149.005" height="147.954" fill="black">
<rect fill="white" x="238.018" y="31.2607" width="149.005" height="147.954"/>
<path fill-rule="evenodd" clip-rule="evenodd" d="M343.631 135.083C349.509 139.048 351.366 146.757 347.751 152.522C344.055 158.415 336.043 160.046 329.854 156.165C327.51 154.696 325.764 152.647 324.7 150.348C320.965 150.519 317.092 149.573 313.625 147.399C304.908 141.933 302.06 130.774 307.265 122.473C307.312 122.398 307.36 122.323 307.408 122.249C306.346 121.772 305.303 121.216 304.287 120.579C300.566 118.246 297.666 115.117 295.687 111.582C292.557 111.903 289.253 111.202 286.324 109.366C279.589 105.142 277.392 96.5154 281.416 90.0966C282.769 87.9399 284.651 86.3069 286.811 85.2494C283.098 80.4444 282.005 74.1055 284.117 68.5304C279.516 65.5509 278.036 59.5956 280.821 55.154C283.633 50.6701 289.726 49.4269 294.431 52.3772C296.563 53.714 298.044 55.6825 298.765 57.853C302.494 57.5928 306.388 58.4909 309.859 60.6672C315.078 63.9401 318.113 69.3338 318.457 74.8695C320.937 74.9066 323.464 75.6125 325.751 77.0464C328.086 78.5105 329.847 80.5315 330.957 82.8044C336.77 87.2999 340.124 93.9034 340.521 100.655C341.499 101 342.458 101.459 343.377 102.035C348.549 105.278 350.906 111.254 349.604 116.647C353.547 119.772 354.685 125.267 352.074 129.431C350.785 131.487 348.806 132.861 346.587 133.463C345.704 134.181 344.701 134.724 343.631 135.083Z"/>
</mask>
<path fill-rule="evenodd" clip-rule="evenodd" d="M343.631 135.083C349.509 139.048 351.366 146.757 347.751 152.522C344.055 158.415 336.043 160.046 329.854 156.165C327.51 154.696 325.764 152.647 324.7 150.348C320.965 150.519 317.092 149.573 313.625 147.399C304.908 141.933 302.06 130.774 307.265 122.473C307.312 122.398 307.36 122.323 307.408 122.249C306.346 121.772 305.303 121.216 304.287 120.579C300.566 118.246 297.666 115.117 295.687 111.582C292.557 111.903 289.253 111.202 286.324 109.366C279.589 105.142 277.392 96.5154 281.416 90.0966C282.769 87.9399 284.651 86.3069 286.811 85.2494C283.098 80.4444 282.005 74.1055 284.117 68.5304C279.516 65.5509 278.036 59.5956 280.821 55.154C283.633 50.6701 289.726 49.4269 294.431 52.3772C296.563 53.714 298.044 55.6825 298.765 57.853C302.494 57.5928 306.388 58.4909 309.859 60.6672C315.078 63.9401 318.113 69.3338 318.457 74.8695C320.937 74.9066 323.464 75.6125 325.751 77.0464C328.086 78.5105 329.847 80.5315 330.957 82.8044C336.77 87.2999 340.124 93.9034 340.521 100.655C341.499 101 342.458 101.459 343.377 102.035C348.549 105.278 350.906 111.254 349.604 116.647C353.547 119.772 354.685 125.267 352.074 129.431C350.785 131.487 348.806 132.861 346.587 133.463C345.704 134.181 344.701 134.724 343.631 135.083Z" fill="#2E7E40"/>
<path d="M343.631 135.083L341.107 127.547L325.834 132.663L339.187 141.671L343.631 135.083ZM347.751 152.522L354.483 156.744L354.483 156.744L347.751 152.522ZM329.854 156.165L334.075 149.433L334.075 149.433L329.854 156.165ZM324.7 150.348L331.911 147.009L329.669 142.165L324.336 142.409L324.7 150.348ZM313.625 147.399L309.403 154.132L309.403 154.132L313.625 147.399ZM307.265 122.473L300.532 118.252L300.532 118.252L307.265 122.473ZM307.408 122.249L314.075 126.574L319.12 118.798L310.664 115L307.408 122.249ZM304.287 120.579L308.509 113.846L308.509 113.846L304.287 120.579ZM295.687 111.582L302.62 107.699L300.069 103.144L294.876 103.677L295.687 111.582ZM286.324 109.366L290.546 102.633L290.546 102.633L286.324 109.366ZM281.416 90.0966L274.684 85.8749L274.684 85.8749L281.416 90.0966ZM286.811 85.2494L290.306 92.3865L299.058 88.1008L293.099 80.3901L286.811 85.2494ZM284.117 68.5304L291.548 71.3462L293.822 65.3471L288.437 61.86L284.117 68.5304ZM280.821 55.154L274.088 50.9323L274.088 50.9323L280.821 55.154ZM294.431 52.3772L290.21 59.1099L290.21 59.1099L294.431 52.3772ZM298.765 57.853L291.223 60.3574L293.167 66.2097L299.318 65.7805L298.765 57.853ZM309.859 60.6672L314.081 53.9345L314.081 53.9345L309.859 60.6672ZM318.457 74.8695L310.526 75.3635L310.983 82.7055L318.339 82.8155L318.457 74.8695ZM325.751 77.0464L329.973 70.3136L329.973 70.3136L325.751 77.0464ZM330.957 82.8044L323.816 86.2912L324.629 87.9567L326.095 89.0907L330.957 82.8044ZM340.521 100.655L332.588 101.121L332.897 106.393L337.878 108.15L340.521 100.655ZM343.377 102.035L339.155 108.768L339.155 108.768L343.377 102.035ZM349.604 116.647L341.879 114.781L340.686 119.719L344.668 122.875L349.604 116.647ZM352.074 129.431L358.806 133.652L352.074 129.431ZM346.587 133.463L344.507 125.793L342.881 126.234L341.573 127.297L346.587 133.463ZM339.187 141.671C341.817 143.445 342.166 146.47 341.018 148.3L354.483 156.744C360.566 147.043 357.2 134.65 348.075 128.495L339.187 141.671ZM341.018 148.3C339.847 150.168 336.861 151.179 334.075 149.433L325.632 162.898C335.225 168.913 348.264 166.662 354.483 156.744L341.018 148.3ZM334.075 149.433C333.056 148.794 332.339 147.933 331.911 147.009L317.488 153.687C319.19 157.361 321.964 160.598 325.632 162.898L334.075 149.433ZM309.403 154.132C314.261 157.178 319.738 158.531 325.064 158.286L324.336 142.409C322.191 142.508 319.922 141.968 317.847 140.667L309.403 154.132ZM300.532 118.252C292.803 130.577 297.282 146.532 309.403 154.132L317.847 140.667C312.533 137.335 311.317 130.97 313.998 126.695L300.532 118.252ZM300.741 117.924C300.671 118.033 300.601 118.142 300.532 118.252L313.998 126.695C314.023 126.654 314.049 126.614 314.075 126.574L300.741 117.924ZM300.065 127.312C301.392 128.143 302.758 128.872 304.152 129.498L310.664 115C309.935 114.673 309.215 114.289 308.509 113.846L300.065 127.312ZM288.754 115.466C291.375 120.145 295.2 124.261 300.065 127.312L308.509 113.846C305.933 112.231 303.958 110.088 302.62 107.699L288.754 115.466ZM282.103 116.099C286.555 118.89 291.634 119.987 296.498 119.488L294.876 103.677C293.479 103.82 291.951 103.514 290.546 102.633L282.103 116.099ZM274.684 85.8749C268.138 96.3138 271.958 109.737 282.103 116.099L290.546 102.633C287.22 100.547 286.645 96.7169 288.149 94.3183L274.684 85.8749ZM283.316 78.1124C279.882 79.794 276.855 82.4127 274.684 85.8749L288.149 94.3183C288.683 93.4672 289.421 92.8199 290.306 92.3865L283.316 78.1124ZM276.686 65.7146C273.531 74.04 275.233 83.2632 280.523 90.1088L293.099 80.3901C290.963 77.6256 290.478 74.171 291.548 71.3462L276.686 65.7146ZM274.088 50.9323C268.807 59.3547 271.856 70.058 279.798 75.2008L288.437 61.86C287.176 61.0437 287.265 59.8364 287.554 59.3757L274.088 50.9323ZM298.653 45.6444C290.539 40.5564 279.421 42.4282 274.088 50.9323L287.554 59.3757C287.845 58.912 288.914 58.2973 290.21 59.1099L298.653 45.6444ZM306.307 55.3485C305.013 51.4531 302.373 47.9774 298.653 45.6444L290.21 59.1099C290.753 59.4507 291.075 59.912 291.223 60.3574L306.307 55.3485ZM314.081 53.9345C309.162 50.8504 303.592 49.55 298.212 49.9254L299.318 65.7805C301.396 65.6356 303.614 66.1313 305.637 67.3999L314.081 53.9345ZM326.389 74.3755C325.886 66.2929 321.477 58.5725 314.081 53.9345L305.637 67.3999C308.68 69.3078 310.34 72.3748 310.526 75.3635L326.389 74.3755ZM329.973 70.3136C326.436 68.0962 322.486 66.982 318.576 66.9236L318.339 82.8155C319.387 82.8311 320.492 83.1288 321.529 83.7791L329.973 70.3136ZM338.098 79.3177C336.347 75.732 333.584 72.5781 329.973 70.3136L321.529 83.7791C322.588 84.4429 323.347 85.331 323.816 86.2912L338.098 79.3177ZM348.454 100.189C347.922 91.1399 343.445 82.4159 335.819 76.5182L326.095 89.0907C330.095 92.184 332.326 96.6669 332.588 101.121L348.454 100.189ZM347.599 95.3026C346.18 94.4132 344.692 93.6994 343.163 93.1604L337.878 108.15C338.307 108.301 338.735 108.504 339.155 108.768L347.599 95.3026ZM357.328 118.512C359.458 109.695 355.575 100.304 347.599 95.3026L339.155 108.768C341.523 110.253 342.354 112.812 341.879 114.781L357.328 118.512ZM358.806 133.652C363.753 125.764 361.38 115.84 354.54 110.419L344.668 122.875C345.714 123.704 345.617 124.769 345.341 125.209L358.806 133.652ZM348.666 141.133C352.692 140.041 356.39 137.507 358.806 133.652L345.341 125.209C345.179 125.467 344.919 125.681 344.507 125.793L348.666 141.133ZM346.155 142.618C348.101 141.966 349.953 140.968 351.601 139.628L341.573 127.297C341.455 127.393 341.301 127.482 341.107 127.547L346.155 142.618Z" fill="#0A5F40" mask="url(#path-18-outside-9_442_9)"/>
</g>
<defs>
<clipPath id="clip0_442_9">
<rect width="400" height="400" fill="white"/>
</clipPath>
</defs>
</svg>
