<svg width="400" height="400" viewBox="0 0 400 400" fill="none" xmlns="http://www.w3.org/2000/svg">
<g clip-path="url(#clip0_442_8)">
<mask id="path-1-outside-1_442_8" maskUnits="userSpaceOnUse" x="2.20038" y="24.668" width="185.742" height="185.233" fill="black">
<rect fill="white" x="2.20038" y="24.668" width="185.742" height="185.233"/>
<path fill-rule="evenodd" clip-rule="evenodd" d="M46.7933 112.018C46.2794 111.715 45.7766 111.379 45.2876 111.01C38.5013 105.901 36.9471 96.5163 41.8163 90.049C44.2128 86.8659 47.7187 84.9827 51.4706 84.5003C51.6558 81.8381 52.5727 79.2256 54.2721 76.9684C58.8186 70.9297 67.3576 69.5697 73.9939 73.5752C74.696 72.1609 75.5362 70.7935 76.5175 69.4901C83.7134 59.9325 96.3178 56.7106 107.506 60.6165C112.604 57.4375 119.524 57.6416 124.821 61.6302C131.608 66.7396 133.162 76.1243 128.293 82.5916C127.897 83.1169 127.472 83.6068 127.019 84.0609C127.561 87.8643 127.313 91.7444 126.232 95.4388C129.149 96.0898 131.998 97.3698 134.566 99.3036L134.623 99.3463C136.928 99.7878 139.189 100.759 141.213 102.283C147.999 107.392 149.553 116.777 144.684 123.244C143.295 125.09 141.533 126.498 139.566 127.45C139.476 127.576 139.384 127.702 139.29 127.826C138.041 129.485 136.57 130.885 134.944 132.017C134.526 134.065 133.919 136.082 133.121 138.044C134.012 144.58 132.484 151.342 128.301 156.898C123.968 162.653 117.604 166.027 110.81 166.835C112.251 171.259 111.64 176.185 108.722 180.062C103.852 186.529 94.4037 187.63 87.6174 182.521C86.1502 181.416 84.9276 180.112 83.9616 178.68C79.0189 181.122 72.755 180.662 67.8704 176.985C62.3195 172.805 60.2692 165.766 62.3712 159.802C60.6644 156.288 59.705 152.501 59.5358 148.699C55.4271 148.485 51.2865 147.059 47.6942 144.354C38.4599 137.402 36.3451 124.632 42.9707 115.832C44.0845 114.353 45.3743 113.08 46.7933 112.018Z"/>
</mask>
<path fill-rule="evenodd" clip-rule="evenodd" d="M46.7933 112.018C46.2794 111.715 45.7766 111.379 45.2876 111.01C38.5013 105.901 36.9471 96.5163 41.8163 90.049C44.2128 86.8659 47.7187 84.9827 51.4706 84.5003C51.6558 81.8381 52.5727 79.2256 54.2721 76.9684C58.8186 70.9297 67.3576 69.5697 73.9939 73.5752C74.696 72.1609 75.5362 70.7935 76.5175 69.4901C83.7134 59.9325 96.3178 56.7106 107.506 60.6165C112.604 57.4375 119.524 57.6416 124.821 61.6302C131.608 66.7396 133.162 76.1243 128.293 82.5916C127.897 83.1169 127.472 83.6068 127.019 84.0609C127.561 87.8643 127.313 91.7444 126.232 95.4388C129.149 96.0898 131.998 97.3698 134.566 99.3036L134.623 99.3463C136.928 99.7878 139.189 100.759 141.213 102.283C147.999 107.392 149.553 116.777 144.684 123.244C143.295 125.09 141.533 126.498 139.566 127.45C139.476 127.576 139.384 127.702 139.29 127.826C138.041 129.485 136.57 130.885 134.944 132.017C134.526 134.065 133.919 136.082 133.121 138.044C134.012 144.58 132.484 151.342 128.301 156.898C123.968 162.653 117.604 166.027 110.81 166.835C112.251 171.259 111.64 176.185 108.722 180.062C103.852 186.529 94.4037 187.63 87.6174 182.521C86.1502 181.416 84.9276 180.112 83.9616 178.68C79.0189 181.122 72.755 180.662 67.8704 176.985C62.3195 172.805 60.2692 165.766 62.3712 159.802C60.6644 156.288 59.705 152.501 59.5358 148.699C55.4271 148.485 51.2865 147.059 47.6942 144.354C38.4599 137.402 36.3451 124.632 42.9707 115.832C44.0845 114.353 45.3743 113.08 46.7933 112.018Z" fill="#296C38"/>
<path d="M45.2876 111.01L49.4537 105.477L49.4537 105.477L45.2876 111.01ZM46.7933 112.018L50.9413 117.566L59.2599 111.345L50.3196 106.057L46.7933 112.018ZM41.8163 90.049L47.3497 94.2151L47.3497 94.2151L41.8163 90.049ZM51.4706 84.5003L52.354 91.3701L57.9862 90.6458L58.3803 84.9809L51.4706 84.5003ZM54.2721 76.9684L59.8056 81.1345L59.8056 81.1345L54.2721 76.9684ZM73.9939 73.5752L70.4148 79.5052L76.8539 83.3917L80.198 76.6549L73.9939 73.5752ZM76.5175 69.4901L70.9841 65.3241L70.9841 65.3241L76.5175 69.4901ZM107.506 60.6165L105.223 67.1559L108.356 68.2495L111.172 66.4937L107.506 60.6165ZM124.821 61.6302L128.988 56.0968L128.988 56.0968L124.821 61.6302ZM128.293 82.5916L122.759 78.4256L128.293 82.5916ZM127.019 84.0609L122.111 79.174L119.676 81.6201L120.162 85.0374L127.019 84.0609ZM126.232 95.4388L119.584 93.4934L117.508 100.589L124.723 102.199L126.232 95.4388ZM134.566 99.3036L138.741 93.7767L138.732 93.7702L134.566 99.3036ZM134.623 99.3463L130.448 104.873L131.736 105.846L133.32 106.149L134.623 99.3463ZM141.213 102.283L145.379 96.7496L145.379 96.7496L141.213 102.283ZM144.684 123.244L150.218 127.411L150.218 127.411L144.684 123.244ZM139.566 127.45L136.548 121.216L134.96 121.984L133.934 123.419L139.566 127.45ZM139.29 127.826L144.823 131.992L144.823 131.992L139.29 127.826ZM134.944 132.017L130.986 126.333L128.712 127.916L128.158 130.631L134.944 132.017ZM133.121 138.044L126.706 135.432L126.008 137.146L126.258 138.979L133.121 138.044ZM128.301 156.898L122.768 152.732L122.768 152.732L128.301 156.898ZM110.81 166.835L109.992 159.957L101.61 160.954L104.224 168.98L110.81 166.835ZM108.722 180.062L114.255 184.228L114.255 184.228L108.722 180.062ZM87.6174 182.521L91.7835 176.987L91.7835 176.987L87.6174 182.521ZM83.9616 178.68L89.7031 174.806L86.3182 169.79L80.8931 172.47L83.9616 178.68ZM67.8704 176.985L72.0364 171.451L72.0364 171.451L67.8704 176.985ZM62.3712 159.802L68.9037 162.105L69.865 159.377L68.6015 156.776L62.3712 159.802ZM59.5358 148.699L66.4553 148.391L66.1758 142.11L59.8969 141.782L59.5358 148.699ZM47.6942 144.354L51.8603 138.821L51.8603 138.821L47.6942 144.354ZM42.9707 115.832L48.5042 119.998L48.5042 119.998L42.9707 115.832ZM41.1215 116.544C41.816 117.067 42.5325 117.546 43.2671 117.98L50.3196 106.057C50.0264 105.883 49.7372 105.69 49.4537 105.477L41.1215 116.544ZM36.2828 85.8829C28.926 95.6543 31.5332 109.325 41.1215 116.544L49.4537 105.477C45.4693 102.477 44.9681 97.3783 47.3497 94.2151L36.2828 85.8829ZM50.5871 77.6304C45.1114 78.3346 39.8767 81.1096 36.2828 85.8829L47.3497 94.2151C48.549 92.6222 50.326 91.6309 52.354 91.3701L50.5871 77.6304ZM48.7387 72.8023C46.1993 76.1752 44.8349 80.0805 44.5609 84.0196L58.3803 84.9809C58.4766 83.5958 58.9462 82.2759 59.8056 81.1345L48.7387 72.8023ZM77.5731 67.6453C68.1615 61.9647 55.6026 63.6855 48.7387 72.8023L59.8056 81.1345C62.0345 78.1739 66.5537 77.1748 70.4148 79.5052L77.5731 67.6453ZM70.9841 65.3241C69.7447 66.9702 68.6804 68.7016 67.7899 70.4956L80.198 76.6549C80.7116 75.6203 81.3278 74.6168 82.051 73.6562L70.9841 65.3241ZM109.789 54.0772C96.0212 49.2707 80.1552 53.1429 70.9841 65.3241L82.051 73.6562C87.2716 66.7221 96.6144 64.1505 105.223 67.1559L109.789 54.0772ZM128.988 56.0968C121.459 50.4283 111.429 50.0072 103.841 54.7394L111.172 66.4937C113.779 64.8678 117.589 64.8549 120.655 67.1636L128.988 56.0968ZM133.826 86.7577C141.183 76.9863 138.576 63.3157 128.988 56.0968L120.655 67.1636C124.64 70.1634 125.141 75.2623 122.759 78.4256L133.826 86.7577ZM131.928 88.9478C132.604 88.2689 133.239 87.5383 133.826 86.7577L122.759 78.4256C122.556 78.6956 122.339 78.9448 122.111 79.174L131.928 88.9478ZM132.88 97.3842C134.248 92.7073 134.552 87.8292 133.877 83.0844L120.162 85.0374C120.57 87.8994 120.378 90.7816 119.584 93.4934L132.88 97.3842ZM138.732 93.7702C135.366 91.2356 131.609 89.542 127.741 88.6787L124.723 102.199C126.689 102.638 128.63 103.504 130.4 104.837L138.732 93.7702ZM138.797 93.8194L138.741 93.7767L130.392 104.831L130.448 104.873L138.797 93.8194ZM145.379 96.7496C142.499 94.5813 139.256 93.1813 135.925 92.5435L133.32 106.149C134.6 106.394 135.879 106.937 137.047 107.816L145.379 96.7496ZM150.218 127.411C157.574 117.639 154.967 103.969 145.379 96.7496L137.047 107.816C141.031 110.816 141.532 115.915 139.151 119.078L150.218 127.411ZM142.583 133.685C145.509 132.269 148.145 130.164 150.218 127.411L139.151 119.078C138.445 120.016 137.556 120.728 136.548 121.216L142.583 133.685ZM144.823 131.992C144.95 131.823 145.075 131.653 145.198 131.482L133.934 123.419C133.876 123.499 133.817 123.58 133.756 123.66L144.823 131.992ZM138.902 137.701C141.121 136.156 143.126 134.247 144.823 131.992L133.756 123.66C132.956 124.724 132.019 125.613 130.986 126.333L138.902 137.701ZM139.536 140.655C140.498 138.291 141.228 135.864 141.73 133.403L128.158 130.631C127.824 132.267 127.34 133.873 126.706 135.432L139.536 140.655ZM133.835 161.064C139.187 153.955 141.105 145.333 139.984 137.108L126.258 138.979C126.919 143.828 125.781 148.73 122.768 152.732L133.835 161.064ZM111.628 173.713C120.167 172.698 128.289 168.43 133.835 161.064L122.768 152.732C119.648 156.876 115.041 159.357 109.992 159.957L111.628 173.713ZM114.255 184.228C118.642 178.401 119.479 171.086 117.396 164.69L104.224 168.98C105.023 171.433 104.639 173.969 103.188 175.896L114.255 184.228ZM83.4513 188.054C93.0396 195.273 106.898 193.999 114.255 184.228L103.188 175.896C100.807 179.059 95.7678 179.987 91.7835 176.987L83.4513 188.054ZM78.2201 182.554C79.6119 184.617 81.3652 186.483 83.4513 188.054L91.7835 176.987C90.9352 176.349 90.2434 175.606 89.7031 174.806L78.2201 182.554ZM63.7043 182.518C70.6537 187.75 79.7132 188.505 87.0301 184.89L80.8931 172.47C78.3245 173.74 74.8563 173.574 72.0364 171.451L63.7043 182.518ZM55.8387 157.5C52.6992 166.407 55.8219 176.583 63.7043 182.518L72.0364 171.451C68.8171 169.027 67.8391 165.125 68.9037 162.105L55.8387 157.5ZM68.6015 156.776C67.3023 154.101 66.582 151.238 66.4553 148.391L52.6162 149.007C52.8279 153.764 54.0265 158.475 56.1409 162.828L68.6015 156.776ZM43.5281 149.888C48.24 153.435 53.71 155.331 59.1746 155.616L59.8969 141.782C57.1442 141.639 54.3331 140.683 51.8603 138.821L43.5281 149.888ZM37.4373 111.666C28.3241 123.77 31.4919 140.826 43.5281 149.888L51.8603 138.821C45.4279 133.978 44.3662 125.494 48.5042 119.998L37.4373 111.666ZM42.6454 106.471C40.7084 107.92 38.9504 109.656 37.4373 111.666L48.5042 119.998C49.2185 119.049 50.0401 118.239 50.9413 117.566L42.6454 106.471Z" fill="#07573A" mask="url(#path-1-outside-1_442_8)"/>
<mask id="path-3-outside-2_442_8" maskUnits="userSpaceOnUse" x="36.5598" y="59.1191" width="116.523" height="116.218" fill="black">
<rect fill="white" x="36.5598" y="59.1191" width="116.523" height="116.218"/>
<path fill-rule="evenodd" clip-rule="evenodd" d="M66.6878 114.188C66.3879 114.01 66.0946 113.814 65.8093 113.6C61.8504 110.619 60.9437 105.144 63.7842 101.371C65.1823 99.5146 67.2274 98.4161 69.416 98.1346C69.524 96.5815 70.0589 95.0574 71.0503 93.7406C73.7026 90.2178 78.6842 89.4245 82.5556 91.7614C82.9652 90.9362 83.4554 90.1384 84.0279 89.378C88.2257 83.8025 95.5785 81.923 102.105 84.2014C105.079 82.3469 109.116 82.4659 112.206 84.7927C116.165 87.7733 117.072 93.2481 114.231 97.0209C114.001 97.3272 113.753 97.6129 113.489 97.8777C113.805 100.097 113.66 102.36 113.03 104.516C114.731 104.895 116.393 105.642 117.891 106.77L117.924 106.795C119.269 107.053 120.588 107.619 121.769 108.508C125.728 111.489 126.634 116.964 123.794 120.736C122.983 121.813 121.955 122.635 120.808 123.19C120.755 123.264 120.702 123.337 120.647 123.409C119.918 124.377 119.06 125.194 118.111 125.854C117.867 127.049 117.514 128.226 117.048 129.37C117.568 133.183 116.677 137.128 114.236 140.369C111.709 143.726 107.996 145.694 104.033 146.166C104.873 148.747 104.517 151.62 102.814 153.882C99.9739 157.654 94.4619 158.296 90.503 155.316C89.6471 154.671 88.9339 153.911 88.3704 153.075C85.4869 154.5 81.8327 154.232 78.9831 152.087C75.7449 149.649 74.5488 145.542 75.7751 142.063C74.7795 140.013 74.2199 137.804 74.1211 135.586C71.7244 135.461 69.309 134.629 67.2135 133.051C61.8265 128.996 60.5928 121.546 64.4579 116.412C65.1076 115.549 65.86 114.807 66.6878 114.188Z"/>
</mask>
<path fill-rule="evenodd" clip-rule="evenodd" d="M66.6878 114.188C66.3879 114.01 66.0946 113.814 65.8093 113.6C61.8504 110.619 60.9437 105.144 63.7842 101.371C65.1823 99.5146 67.2274 98.4161 69.416 98.1346C69.524 96.5815 70.0589 95.0574 71.0503 93.7406C73.7026 90.2178 78.6842 89.4245 82.5556 91.7614C82.9652 90.9362 83.4554 90.1384 84.0279 89.378C88.2257 83.8025 95.5785 81.923 102.105 84.2014C105.079 82.3469 109.116 82.4659 112.206 84.7927C116.165 87.7733 117.072 93.2481 114.231 97.0209C114.001 97.3272 113.753 97.6129 113.489 97.8777C113.805 100.097 113.66 102.36 113.03 104.516C114.731 104.895 116.393 105.642 117.891 106.77L117.924 106.795C119.269 107.053 120.588 107.619 121.769 108.508C125.728 111.489 126.634 116.964 123.794 120.736C122.983 121.813 121.955 122.635 120.808 123.19C120.755 123.264 120.702 123.337 120.647 123.409C119.918 124.377 119.06 125.194 118.111 125.854C117.867 127.049 117.514 128.226 117.048 129.37C117.568 133.183 116.677 137.128 114.236 140.369C111.709 143.726 107.996 145.694 104.033 146.166C104.873 148.747 104.517 151.62 102.814 153.882C99.9739 157.654 94.4619 158.296 90.503 155.316C89.6471 154.671 88.9339 153.911 88.3704 153.075C85.4869 154.5 81.8327 154.232 78.9831 152.087C75.7449 149.649 74.5488 145.542 75.7751 142.063C74.7795 140.013 74.2199 137.804 74.1211 135.586C71.7244 135.461 69.309 134.629 67.2135 133.051C61.8265 128.996 60.5928 121.546 64.4579 116.412C65.1076 115.549 65.86 114.807 66.6878 114.188Z" fill="#2E7E40"/>
<path d="M65.8093 113.6L61.6432 119.133L61.6432 119.133L65.8093 113.6ZM66.6878 114.188L70.8358 119.735L79.1544 113.514L70.214 108.226L66.6878 114.188ZM63.7842 101.371L69.3177 105.538L69.3177 105.538L63.7842 101.371ZM69.416 98.1346L70.2996 105.004L75.9317 104.28L76.3257 98.6151L69.416 98.1346ZM71.0503 93.7406L65.5169 89.5746L65.5169 89.5746L71.0503 93.7406ZM82.5556 91.7614L78.9763 97.6912L85.4156 101.578L88.7598 94.8409L82.5556 91.7614ZM84.0279 89.378L78.4945 85.212L78.4945 85.212L84.0279 89.378ZM102.105 84.2014L99.8225 90.7408L102.955 91.8343L105.771 90.0785L102.105 84.2014ZM112.206 84.7927L108.04 90.3262L108.04 90.3262L112.206 84.7927ZM114.231 97.0209L119.765 101.187L119.765 101.187L114.231 97.0209ZM113.489 97.8777L108.58 92.9911L106.145 95.4372L106.632 98.8543L113.489 97.8777ZM113.03 104.516L106.382 102.57L104.305 109.666L111.521 111.276L113.03 104.516ZM117.891 106.77L122.066 101.243L122.057 101.237L117.891 106.77ZM117.924 106.795L113.75 112.322L115.037 113.295L116.622 113.598L117.924 106.795ZM121.769 108.508L125.935 102.975L125.935 102.975L121.769 108.508ZM123.794 120.736L118.26 116.57L118.26 116.57L123.794 120.736ZM120.808 123.19L117.791 116.955L116.203 117.724L115.176 119.158L120.808 123.19ZM120.647 123.409L126.18 127.575L126.18 127.575L120.647 123.409ZM118.111 125.854L114.153 120.17L111.88 121.753L111.325 124.468L118.111 125.854ZM117.048 129.37L110.633 126.758L109.935 128.472L110.185 130.305L117.048 129.37ZM114.236 140.369L119.77 144.535L119.77 144.535L114.236 140.369ZM104.033 146.166L103.215 139.288L94.8325 140.284L97.4469 148.311L104.033 146.166ZM102.814 153.882L108.348 158.048L108.348 158.048L102.814 153.882ZM90.503 155.316L86.3369 160.849L86.3369 160.849L90.503 155.316ZM88.3704 153.075L94.1118 149.201L90.7269 144.185L85.3017 146.866L88.3704 153.075ZM78.9831 152.087L74.817 157.62L74.817 157.62L78.9831 152.087ZM75.7751 142.063L82.3076 144.365L83.269 141.638L82.0055 139.036L75.7751 142.063ZM74.1211 135.586L81.0407 135.278L80.7612 128.997L74.4824 128.669L74.1211 135.586ZM67.2135 133.051L71.3795 127.518L71.3795 127.518L67.2135 133.051ZM64.4579 116.412L69.9914 120.578L69.9914 120.578L64.4579 116.412ZM61.6432 119.133C62.134 119.503 62.6411 119.841 63.1616 120.149L70.214 108.226C70.1348 108.179 70.0551 108.126 69.9753 108.066L61.6432 119.133ZM58.2508 97.2054C52.9227 104.282 54.8824 114.043 61.6432 119.133L69.9753 108.066C68.8184 107.195 68.9648 106.006 69.3177 105.538L58.2508 97.2054ZM68.5323 91.2648C64.62 91.768 60.846 93.7584 58.2508 97.2054L69.3177 105.538C69.5185 105.271 69.8348 105.064 70.2996 105.004L68.5323 91.2648ZM65.5169 89.5746C63.6855 92.0071 62.7031 94.824 62.5063 97.654L76.3257 98.6151C76.3449 98.3391 76.4324 98.1078 76.5838 97.9067L65.5169 89.5746ZM86.135 85.8315C79.4883 81.8194 70.4868 82.9735 65.5169 89.5746L76.5838 97.9067C76.9185 97.4621 77.8801 97.0295 78.9763 97.6912L86.135 85.8315ZM78.4945 85.212C77.6639 86.3152 76.9496 87.4769 76.3515 88.6818L88.7598 94.8409C88.9809 94.3955 89.247 93.9617 89.5614 93.5441L78.4945 85.212ZM104.388 77.662C95.2817 74.4831 84.6675 77.013 78.4945 85.212L89.5614 93.5441C91.7839 90.5921 95.8752 89.3628 99.8225 90.7408L104.388 77.662ZM116.372 79.2593C111.051 75.2526 103.904 74.9166 98.4401 78.3242L105.771 90.0785C106.254 89.7772 107.181 89.6793 108.04 90.3262L116.372 79.2593ZM119.765 101.187C125.093 94.1101 123.133 84.3495 116.372 79.2593L108.04 90.3262C109.197 91.1972 109.051 92.3861 108.698 92.8548L119.765 101.187ZM118.398 102.764C118.885 102.275 119.342 101.748 119.765 101.187L108.698 92.8548C108.659 92.906 108.62 92.951 108.58 92.9911L118.398 102.764ZM119.677 106.461C120.595 103.323 120.796 100.061 120.346 96.901L106.632 98.8543C106.814 100.132 106.725 101.398 106.382 102.57L119.677 106.461ZM122.057 101.237C119.761 99.508 117.191 98.3476 114.538 97.7556L111.521 111.276C112.271 111.443 113.025 111.776 113.725 112.304L122.057 101.237ZM122.099 101.268L122.066 101.243L113.717 112.297L113.75 112.322L122.099 101.268ZM125.935 102.975C123.898 101.441 121.597 100.446 119.227 99.9923L116.622 113.598C116.941 113.659 117.278 113.797 117.603 114.042L125.935 102.975ZM129.327 124.903C134.655 117.826 132.696 108.065 125.935 102.975L117.603 114.042C118.76 114.913 118.613 116.102 118.26 116.57L129.327 124.903ZM123.825 129.425C125.932 128.405 127.833 126.887 129.327 124.902L118.26 116.57C118.133 116.739 117.979 116.864 117.791 116.955L123.825 129.425ZM126.18 127.575C126.268 127.458 126.355 127.34 126.44 127.222L115.176 119.158C115.155 119.187 115.135 119.215 115.113 119.243L126.18 127.575ZM122.069 131.539C123.611 130.465 125.003 129.139 126.18 127.575L115.113 119.243C114.833 119.615 114.51 119.922 114.153 120.17L122.069 131.539ZM123.463 131.981C124.093 130.435 124.569 128.847 124.898 127.241L111.325 124.468C111.165 125.25 110.935 126.017 110.633 126.758L123.463 131.981ZM119.77 144.535C123.38 139.74 124.661 133.936 123.911 128.435L110.185 130.305C110.475 132.43 109.973 134.515 108.703 136.203L119.77 144.535ZM104.85 153.044C110.559 152.365 116.029 149.503 119.77 144.535L108.703 136.203C107.388 137.949 105.433 139.024 103.215 139.288L104.85 153.044ZM108.348 158.048C111.519 153.836 112.102 148.573 110.619 144.02L97.4469 148.311C97.6452 148.92 97.5156 149.404 97.281 149.715L108.348 158.048ZM86.3369 160.849C93.0978 165.939 103.02 165.124 108.348 158.048L97.281 149.715C96.9281 150.184 95.826 150.654 94.6691 149.782L86.3369 160.849ZM82.6289 156.95C83.6182 158.416 84.8622 159.739 86.3369 160.849L94.6691 149.782C94.4321 149.604 94.2497 149.405 94.1118 149.201L82.6289 156.95ZM74.817 157.62C79.7314 161.32 86.1814 161.883 91.4391 159.285L85.3017 146.866C84.7924 147.118 83.9339 147.144 83.1492 146.553L74.817 157.62ZM69.2427 139.76C66.9788 146.183 69.2472 153.427 74.817 157.62L83.1492 146.553C82.2425 145.87 82.1188 144.901 82.3076 144.365L69.2427 139.76ZM82.0055 139.036C81.4174 137.826 81.0969 136.541 81.0407 135.278L67.2016 135.894C67.3428 139.067 68.1416 142.2 69.5448 145.089L82.0055 139.036ZM63.0474 138.585C66.2624 141.005 70.0071 142.307 73.7599 142.503L74.4824 128.669C73.4416 128.615 72.3556 128.253 71.3795 127.518L63.0474 138.585ZM58.9245 112.246C52.5718 120.684 54.8585 132.419 63.0474 138.585L71.3795 127.518C68.7945 125.572 68.6139 122.408 69.9914 120.578L58.9245 112.246ZM62.5398 108.641C61.1941 109.647 59.9735 110.853 58.9245 112.246L69.9914 120.578C70.2417 120.246 70.5259 119.966 70.8358 119.735L62.5398 108.641Z" fill="#0A5F40" mask="url(#path-3-outside-2_442_8)"/>
<path d="M230.235 145.661L182.811 163.377L178.248 175.675L189.792 195.67L206.309 190.8L235.801 173.772L263.969 164.841L277.62 159.625L298.731 149.437L316.476 139.191L296.086 118.305L267.344 134.9L250.693 141.847L230.235 145.661Z" fill="#664D3B" stroke="#624530" stroke-width="6.9264"/>
<path d="M146.995 248.788L179.207 209.734L177.01 196.801L157.015 185.257L145.146 197.733L128.119 227.225L108.19 249.044L98.976 260.387L85.7881 279.766L75.5428 297.511L103.644 305.404L120.238 276.662L131.184 262.32L146.995 248.788Z" fill="#664D3B" stroke="#624530" stroke-width="6.9264"/>
<mask id="path-7-outside-3_442_8" maskUnits="userSpaceOnUse" x="15.2742" y="15.8372" width="339.408" height="340.872" fill="black">
<rect fill="white" x="15.2742" y="15.8372" width="339.408" height="340.872"/>
<path fill-rule="evenodd" clip-rule="evenodd" d="M184.983 81.4815C195.303 72.1009 209.812 68.277 223.555 72.7026C244.426 79.4236 255.628 102.626 248.575 124.527C247.679 127.311 246.53 129.94 245.166 132.395C254.304 143.999 259.788 158.496 260.627 173.837C265.429 172.742 270.527 172.877 275.489 174.475C290.827 179.414 299.06 196.466 293.877 212.561C290.25 223.824 281.014 231.634 270.538 233.615C276.163 241.22 278.122 251.589 274.901 261.59C272.095 270.303 265.933 276.949 258.437 280.43C259.069 284.105 258.841 288.018 257.604 291.859C253.681 304.042 241.088 310.888 229.477 307.149C226.725 306.263 224.276 304.862 222.192 303.078C210.306 315.601 192.407 321.053 175.518 315.614C151.892 308.006 139.096 281.936 146.647 257.116C146.36 257.029 146.074 256.94 145.788 256.848C132.139 252.452 121.642 242.684 115.692 230.433C108.311 236.029 98.6498 238.093 89.4549 235.132C74.1166 230.192 65.884 213.141 71.067 197.046C72.1875 193.566 73.8433 190.416 75.9056 187.666C68.0885 179.963 64.8688 167.883 68.5994 156.298C72.8389 143.133 84.7408 134.686 97.3277 134.75C102.823 129.248 109.319 124.974 116.359 122.177C114.082 114.31 114.063 105.593 116.807 97.0734C123.86 75.1727 146.496 62.8672 167.367 69.5883C174.473 71.8764 180.457 76.0747 184.983 81.4815Z"/>
</mask>
<path fill-rule="evenodd" clip-rule="evenodd" d="M184.983 81.4815C195.303 72.1009 209.812 68.277 223.555 72.7026C244.426 79.4236 255.628 102.626 248.575 124.527C247.679 127.311 246.53 129.94 245.166 132.395C254.304 143.999 259.788 158.496 260.627 173.837C265.429 172.742 270.527 172.877 275.489 174.475C290.827 179.414 299.06 196.466 293.877 212.561C290.25 223.824 281.014 231.634 270.538 233.615C276.163 241.22 278.122 251.589 274.901 261.59C272.095 270.303 265.933 276.949 258.437 280.43C259.069 284.105 258.841 288.018 257.604 291.859C253.681 304.042 241.088 310.888 229.477 307.149C226.725 306.263 224.276 304.862 222.192 303.078C210.306 315.601 192.407 321.053 175.518 315.614C151.892 308.006 139.096 281.936 146.647 257.116C146.36 257.029 146.074 256.94 145.788 256.848C132.139 252.452 121.642 242.684 115.692 230.433C108.311 236.029 98.6498 238.093 89.4549 235.132C74.1166 230.192 65.884 213.141 71.067 197.046C72.1875 193.566 73.8433 190.416 75.9056 187.666C68.0885 179.963 64.8688 167.883 68.5994 156.298C72.8389 143.133 84.7408 134.686 97.3277 134.75C102.823 129.248 109.319 124.974 116.359 122.177C114.082 114.31 114.063 105.593 116.807 97.0734C123.86 75.1727 146.496 62.8672 167.367 69.5883C174.473 71.8764 180.457 76.0747 184.983 81.4815Z" fill="#296C38"/>
<path d="M223.555 72.7026L221.432 79.2956L221.432 79.2956L223.555 72.7026ZM184.983 81.4815L179.671 85.9271L184.302 91.46L189.642 86.6071L184.983 81.4815ZM248.575 124.527L241.982 122.404L241.982 122.404L248.575 124.527ZM245.166 132.395L239.112 129.029L236.872 133.058L239.724 136.68L245.166 132.395ZM260.627 173.837L253.711 174.215L254.16 182.414L262.166 180.59L260.627 173.837ZM275.489 174.475L277.612 167.882L277.612 167.882L275.489 174.475ZM293.877 212.561L287.284 210.438L287.284 210.438L293.877 212.561ZM270.538 233.615L269.251 226.81L258.406 228.861L264.97 237.734L270.538 233.615ZM274.901 261.59L268.308 259.466L268.308 259.466L274.901 261.59ZM258.437 280.43L255.52 274.147L250.712 276.38L251.61 281.604L258.437 280.43ZM257.604 291.859L264.197 293.982L264.197 293.982L257.604 291.859ZM229.477 307.149L231.6 300.556L231.6 300.556L229.477 307.149ZM222.192 303.078L226.697 297.816L221.698 293.536L217.168 298.31L222.192 303.078ZM175.518 315.614L177.641 309.021L177.641 309.021L175.518 315.614ZM146.647 257.116L153.273 259.132L155.293 252.495L148.653 250.486L146.647 257.116ZM145.788 256.848L143.665 263.441L143.665 263.441L145.788 256.848ZM115.692 230.433L121.922 227.407L118.234 219.814L111.507 224.914L115.692 230.433ZM89.4549 235.132L91.578 228.539L91.578 228.539L89.4549 235.132ZM71.067 197.046L64.474 194.923L64.474 194.923L71.067 197.046ZM75.9056 187.666L81.4472 191.821L85.0775 186.98L80.7671 182.732L75.9056 187.666ZM68.5994 156.298L62.0064 154.175L62.0064 154.175L68.5994 156.298ZM97.3277 134.75L97.2925 141.676L100.184 141.691L102.228 139.645L97.3277 134.75ZM116.359 122.177L118.917 128.613L124.76 126.291L123.012 120.252L116.359 122.177ZM116.807 97.0734L110.214 94.9503L110.214 94.9503L116.807 97.0734ZM167.367 69.5883L165.244 76.1813L165.244 76.1813L167.367 69.5883ZM225.678 66.1096C209.375 60.8596 192.319 65.4536 180.324 76.3559L189.642 86.6071C198.288 78.7481 210.249 75.6944 221.432 79.2956L225.678 66.1096ZM255.168 126.65C263.296 101.411 250.486 74.0984 225.678 66.1096L221.432 79.2956C238.366 84.7489 247.96 103.841 241.982 122.404L255.168 126.65ZM251.219 135.76C252.803 132.912 254.132 129.866 255.168 126.65L241.982 122.404C241.225 124.755 240.258 126.968 239.112 129.029L251.219 135.76ZM267.543 173.458C266.627 156.72 260.643 140.853 250.607 128.109L239.724 136.68C247.965 147.145 252.948 160.272 253.711 174.215L267.543 173.458ZM277.612 167.882C271.42 165.888 265.056 165.724 259.089 167.083L262.166 180.59C265.803 179.761 269.634 179.866 273.366 181.068L277.612 167.882ZM300.47 214.684C306.728 195.25 296.887 174.089 277.612 167.882L273.366 181.068C284.767 184.739 291.392 197.681 287.284 210.438L300.47 214.684ZM271.825 240.421C284.814 237.965 296.072 228.342 300.47 214.684L287.284 210.438C284.428 219.307 277.213 225.304 269.251 226.81L271.825 240.421ZM281.494 263.713C285.401 251.581 283.054 238.889 276.107 229.497L264.97 237.734C269.272 243.55 270.842 251.598 268.308 259.466L281.494 263.713ZM261.353 286.712C270.581 282.428 278.089 274.285 281.494 263.713L268.308 259.466C266.101 266.32 261.284 271.471 255.52 274.147L261.353 286.712ZM264.197 293.982C265.781 289.062 266.082 284.017 265.263 279.256L251.61 281.604C252.056 284.192 251.901 286.973 251.011 289.735L264.197 293.982ZM227.354 313.742C242.901 318.749 259.199 309.504 264.197 293.982L251.011 289.735C248.163 298.581 239.274 303.027 231.6 300.556L227.354 313.742ZM217.687 308.339C220.452 310.706 223.707 312.568 227.354 313.742L231.6 300.556C229.743 299.958 228.099 299.017 226.697 297.816L217.687 308.339ZM173.395 322.207C193.04 328.533 213.662 322.126 227.216 307.846L217.168 298.31C206.95 309.076 191.773 313.572 177.641 309.021L173.395 322.207ZM140.02 255.1C131.461 283.235 145.875 313.345 173.395 322.207L177.641 309.021C157.909 302.667 146.731 280.638 153.273 259.132L140.02 255.1ZM143.665 263.441C143.99 263.545 144.315 263.647 144.641 263.746L148.653 250.486C148.405 250.412 148.158 250.334 147.911 250.255L143.665 263.441ZM109.461 233.459C116.179 247.291 128.096 258.427 143.665 263.441L147.911 250.255C136.182 246.478 127.104 238.077 121.922 227.407L109.461 233.459ZM87.3318 241.725C98.8501 245.434 110.843 242.801 119.876 235.953L111.507 224.914C105.779 229.256 98.4495 230.752 91.578 228.539L87.3318 241.725ZM64.474 194.923C58.216 214.356 68.0567 235.518 87.3318 241.725L91.578 228.539C80.1764 224.867 73.5521 211.925 77.66 199.169L64.474 194.923ZM70.364 183.511C67.8451 186.87 65.832 190.706 64.474 194.923L77.66 199.169C78.5431 196.427 79.8416 193.963 81.4472 191.821L70.364 183.511ZM62.0064 154.175C57.4836 168.22 61.3407 183.038 71.0442 192.6L80.7671 182.732C74.8363 176.888 72.254 167.546 75.1924 158.421L62.0064 154.175ZM97.3628 127.824C81.655 127.744 67.1404 138.232 62.0064 154.175L75.1924 158.421C78.5373 148.034 87.8267 141.628 97.2925 141.676L97.3628 127.824ZM102.228 139.645C107.064 134.803 112.765 131.058 118.917 128.613L113.8 115.74C105.872 118.891 98.5817 123.693 92.4272 129.855L102.228 139.645ZM110.214 94.9503C107.041 104.804 107.052 114.931 109.705 124.102L123.012 120.252C121.113 113.689 121.086 106.382 123.4 99.1965L110.214 94.9503ZM169.49 62.9953C144.683 55.0065 118.342 69.7112 110.214 94.9503L123.4 99.1965C129.378 80.6343 148.31 70.728 165.244 76.1813L169.49 62.9953ZM190.294 77.0359C184.966 70.6693 177.892 65.7007 169.49 62.9953L165.244 76.1813C171.054 78.0521 175.949 81.4801 179.671 85.9271L190.294 77.0359Z" fill="#07573A" mask="url(#path-7-outside-3_442_8)"/>
<mask id="path-9-outside-4_442_8" maskUnits="userSpaceOnUse" x="54.3905" y="64.7995" width="258.045" height="256.947" fill="black">
<rect fill="white" x="54.3905" y="64.7995" width="258.045" height="256.947"/>
<path fill-rule="evenodd" clip-rule="evenodd" d="M198.62 107.405C201.933 107.2 205.32 107.596 208.645 108.667C223.582 113.477 231.599 130.082 226.551 145.755C225.953 147.613 225.199 149.374 224.308 151.027C232.562 159.626 237.248 171.491 237.093 183.988C240.696 183.474 244.439 183.745 248.097 184.923C261.559 189.258 268.782 204.234 264.229 218.373C260.295 230.588 248.86 238.181 237.139 237.226C235.967 238.989 234.572 240.55 233.01 241.878C240.965 246.912 244.754 257.202 241.599 266.997C237.89 278.516 225.985 284.988 215.008 281.453C213.245 280.885 211.613 280.094 210.131 279.118C206.137 290.131 194.533 296.221 183.814 292.769C172.837 289.234 166.946 277.031 170.655 265.513C171.079 264.196 171.609 262.946 172.234 261.769C169.429 257.824 167.615 253.154 167.003 248.2C163.492 248.161 159.941 247.604 156.443 246.478C140.95 241.489 131.132 226.826 130.972 210.743C126.799 212.303 122.157 212.53 117.671 211.085C106.694 207.55 100.802 195.347 104.511 183.828C104.545 183.722 104.58 183.616 104.616 183.511C99.7544 177.988 97.8806 169.897 100.386 162.118C104.095 150.6 116 144.128 126.977 147.663C127.342 147.78 127.702 147.908 128.056 148.044C128.072 147.991 128.089 147.938 128.106 147.885C131.139 138.467 138.287 131.583 146.734 128.767C146.339 124.697 146.756 120.451 148.102 116.272C153.149 100.599 169.349 91.7926 184.286 96.6026C190.335 98.5505 195.249 102.433 198.62 107.405Z"/>
</mask>
<path fill-rule="evenodd" clip-rule="evenodd" d="M198.62 107.405C201.933 107.2 205.32 107.596 208.645 108.667C223.582 113.477 231.599 130.082 226.551 145.755C225.953 147.613 225.199 149.374 224.308 151.027C232.562 159.626 237.248 171.491 237.093 183.988C240.696 183.474 244.439 183.745 248.097 184.923C261.559 189.258 268.782 204.234 264.229 218.373C260.295 230.588 248.86 238.181 237.139 237.226C235.967 238.989 234.572 240.55 233.01 241.878C240.965 246.912 244.754 257.202 241.599 266.997C237.89 278.516 225.985 284.988 215.008 281.453C213.245 280.885 211.613 280.094 210.131 279.118C206.137 290.131 194.533 296.221 183.814 292.769C172.837 289.234 166.946 277.031 170.655 265.513C171.079 264.196 171.609 262.946 172.234 261.769C169.429 257.824 167.615 253.154 167.003 248.2C163.492 248.161 159.941 247.604 156.443 246.478C140.95 241.489 131.132 226.826 130.972 210.743C126.799 212.303 122.157 212.53 117.671 211.085C106.694 207.55 100.802 195.347 104.511 183.828C104.545 183.722 104.58 183.616 104.616 183.511C99.7544 177.988 97.8806 169.897 100.386 162.118C104.095 150.6 116 144.128 126.977 147.663C127.342 147.78 127.702 147.908 128.056 148.044C128.072 147.991 128.089 147.938 128.106 147.885C131.139 138.467 138.287 131.583 146.734 128.767C146.339 124.697 146.756 120.451 148.102 116.272C153.149 100.599 169.349 91.7926 184.286 96.6026C190.335 98.5505 195.249 102.433 198.62 107.405Z" fill="#2E7E40"/>
<path d="M208.645 108.667L206.522 115.26L206.522 115.26L208.645 108.667ZM198.62 107.405L192.887 111.292L195.104 114.561L199.046 114.318L198.62 107.405ZM226.551 145.755L219.959 143.632L219.959 143.632L226.551 145.755ZM224.308 151.027L218.21 147.742L215.817 152.183L219.311 155.823L224.308 151.027ZM237.093 183.988L230.167 183.902L230.067 191.986L238.071 190.845L237.093 183.988ZM248.097 184.923L250.22 178.33L250.22 178.33L248.097 184.923ZM264.229 218.373L257.636 216.25L257.636 216.25L264.229 218.373ZM237.139 237.226L237.702 230.322L233.632 229.991L231.371 233.392L237.139 237.226ZM233.01 241.878L228.524 236.601L221.352 242.698L229.306 247.731L233.01 241.878ZM241.599 266.997L235.006 264.874L235.006 264.874L241.599 266.997ZM215.008 281.453L212.885 288.046L212.885 288.046L215.008 281.453ZM210.131 279.118L213.941 273.333L206.611 268.505L203.619 276.756L210.131 279.118ZM183.814 292.769L181.691 299.362L181.691 299.362L183.814 292.769ZM170.655 265.513L164.062 263.389L164.062 263.389L170.655 265.513ZM172.234 261.769L178.353 265.015L180.355 261.239L177.879 257.756L172.234 261.769ZM167.003 248.2L173.877 247.351L173.135 241.34L167.079 241.274L167.003 248.2ZM156.443 246.478L158.567 239.885L158.567 239.885L156.443 246.478ZM130.972 210.743L137.898 210.674L137.8 200.797L128.548 204.255L130.972 210.743ZM117.671 211.085L115.547 217.678L115.548 217.678L117.671 211.085ZM104.511 183.828L111.104 185.952L111.104 185.952L104.511 183.828ZM104.616 183.511L111.178 185.728L112.459 181.937L109.815 178.934L104.616 183.511ZM100.386 162.118L93.7926 159.995L93.7926 159.995L100.386 162.118ZM126.977 147.663L124.854 154.256L124.854 154.256L126.977 147.663ZM128.056 148.044L125.563 154.506L132.438 157.158L134.66 150.132L128.056 148.044ZM128.106 147.885L121.513 145.762L121.513 145.762L128.106 147.885ZM146.734 128.767L148.925 135.338L154.162 133.592L153.628 128.097L146.734 128.767ZM148.102 116.272L141.509 114.149L141.509 114.149L148.102 116.272ZM184.286 96.6026L182.163 103.196L182.163 103.196L184.286 96.6026ZM210.768 102.074C206.604 100.733 202.351 100.235 198.194 100.491L199.046 114.318C201.515 114.166 204.037 114.46 206.522 115.26L210.768 102.074ZM233.144 147.879C239.267 128.867 229.642 108.152 210.768 102.074L206.522 115.26C217.522 118.802 223.931 131.297 219.959 143.632L233.144 147.879ZM230.406 154.312C231.496 152.289 232.417 150.139 233.144 147.879L219.959 143.632C219.49 145.087 218.902 146.459 218.21 147.742L230.406 154.312ZM244.019 184.074C244.196 169.806 238.85 156.174 229.305 146.23L219.311 155.823C226.275 163.078 230.3 173.177 230.167 183.902L244.019 184.074ZM250.22 178.33C245.532 176.82 240.727 176.473 236.115 177.131L238.071 190.845C240.665 190.475 243.345 190.67 245.974 191.516L250.22 178.33ZM270.822 220.496C276.448 203.024 267.625 183.935 250.22 178.33L245.974 191.516C255.494 194.582 261.116 205.444 257.636 216.25L270.822 220.496ZM236.577 244.129C251.65 245.358 265.948 235.63 270.822 220.496L257.636 216.25C254.642 225.546 246.069 231.004 237.702 230.322L236.577 244.129ZM237.497 247.155C239.548 245.411 241.376 243.365 242.908 241.06L231.371 233.392C230.559 234.613 229.596 235.69 228.524 236.601L237.497 247.155ZM248.192 269.12C252.274 256.445 247.448 242.817 236.714 236.025L229.306 247.731C234.482 251.006 237.233 257.959 235.006 264.874L248.192 269.12ZM212.885 288.046C227.798 292.848 243.408 283.977 248.192 269.12L235.006 264.874C232.372 273.054 224.171 277.127 217.131 274.86L212.885 288.046ZM206.321 284.902C208.319 286.218 210.518 287.284 212.885 288.046L217.131 274.86C215.971 274.486 214.906 273.969 213.941 273.333L206.321 284.902ZM181.691 299.362C196.251 304.051 211.486 295.699 216.642 281.479L203.619 276.756C200.789 284.562 192.815 288.391 185.937 286.176L181.691 299.362ZM164.062 263.389C159.277 278.246 166.777 294.559 181.691 299.362L185.937 286.176C178.897 283.909 174.614 275.816 177.248 267.636L164.062 263.389ZM166.115 258.524C165.3 260.059 164.611 261.685 164.062 263.389L177.248 267.636C177.546 266.708 177.918 265.833 178.353 265.015L166.115 258.524ZM160.129 249.048C160.879 255.126 163.108 260.887 166.589 265.783L177.879 257.756C175.75 254.762 174.35 251.183 173.877 247.351L160.129 249.048ZM154.32 253.071C158.49 254.413 162.731 255.08 166.927 255.126L167.079 241.274C164.253 241.243 161.393 240.795 158.567 239.885L154.32 253.071ZM124.046 210.812C124.233 229.603 135.736 247.086 154.32 253.071L158.567 239.885C146.165 235.891 138.031 224.05 137.898 210.674L124.046 210.812ZM115.548 217.678C121.598 219.626 127.843 219.307 133.397 217.231L128.548 204.255C125.755 205.299 122.716 205.433 119.794 204.492L115.548 217.678ZM97.9182 181.705C93.1339 196.562 100.634 212.875 115.547 217.678L119.794 204.492C112.753 202.225 108.47 194.132 111.104 185.952L97.9182 181.705ZM98.054 181.294C98.0078 181.43 97.9626 181.568 97.9182 181.705L111.104 185.952C111.128 185.877 111.153 185.802 111.178 185.728L98.054 181.294ZM93.7926 159.995C90.5428 170.087 92.9359 180.725 99.4171 188.087L109.815 178.934C106.573 175.251 105.218 169.707 106.979 164.241L93.7926 159.995ZM129.1 141.07C114.187 136.267 98.5769 145.138 93.7926 159.995L106.979 164.241C109.613 156.061 117.814 151.989 124.854 154.256L129.1 141.07ZM130.548 141.581C130.073 141.398 129.59 141.227 129.1 141.07L124.854 154.256C125.095 154.333 125.331 154.417 125.563 154.506L130.548 141.581ZM134.66 150.132C134.673 150.091 134.686 150.05 134.699 150.008L121.513 145.762C121.492 145.827 121.472 145.891 121.451 145.956L134.66 150.132ZM134.699 150.009C137.054 142.696 142.562 137.459 148.925 135.338L144.544 122.196C134.013 125.707 125.224 134.237 121.513 145.762L134.699 150.009ZM141.509 114.149C139.87 119.239 139.355 124.435 139.84 129.436L153.628 128.097C153.323 124.958 153.642 121.664 154.695 118.396L141.509 114.149ZM186.409 90.0096C167.535 83.9319 147.631 95.1376 141.509 114.149L154.695 118.396C158.667 106.061 171.163 99.6533 182.163 103.196L186.409 90.0096ZM204.353 103.517C200.161 97.3356 194.007 92.4564 186.409 90.0096L182.163 103.196C186.662 104.645 190.337 107.53 192.887 111.292L204.353 103.517Z" fill="#0A5F40" mask="url(#path-9-outside-4_442_8)"/>
<mask id="path-11-outside-5_442_8" maskUnits="userSpaceOnUse" x="109.173" y="120.477" width="144.299" height="143.933" fill="black">
<rect fill="white" x="109.173" y="120.477" width="144.299" height="143.933"/>
<path fill-rule="evenodd" clip-rule="evenodd" d="M157.47 148.717C157.537 148.474 157.608 148.232 157.686 147.991C160.344 139.737 168.876 135.099 176.741 137.632C182.245 139.404 185.964 144.217 186.792 149.775C188.516 149.677 190.277 149.887 192.006 150.444C199.872 152.977 204.094 161.721 201.436 169.975C201.339 170.274 201.235 170.569 201.124 170.858C207.009 175.419 210.452 182.712 210.356 190.465C212.253 190.195 214.224 190.337 216.151 190.958C223.24 193.241 227.044 201.127 224.646 208.573C223.023 213.614 218.973 217.16 214.327 218.217C214.417 219.668 214.242 221.17 213.765 222.65C212.034 228.026 206.912 231.315 201.745 230.697C203.689 233.53 204.331 237.29 203.162 240.921C201.208 246.986 194.939 250.395 189.158 248.533C183.853 246.825 180.803 241.272 181.847 235.681C180.659 235.721 179.45 235.561 178.261 235.178C173.236 233.56 170.235 228.492 170.819 223.21C169.266 223.434 167.652 223.318 166.074 222.81C160.293 220.948 157.191 214.522 159.144 208.456C159.776 206.493 160.86 204.809 162.233 203.491C159.486 201.435 157.358 198.671 156.006 195.521C153.514 196.81 150.585 197.153 147.771 196.247C141.991 194.385 138.888 187.959 140.841 181.893C141.838 178.797 143.959 176.394 146.566 175.03C145.225 170.843 145.144 166.147 146.62 161.563C148.499 155.729 152.531 151.221 157.47 148.717Z"/>
</mask>
<path fill-rule="evenodd" clip-rule="evenodd" d="M157.47 148.717C157.537 148.474 157.608 148.232 157.686 147.991C160.344 139.737 168.876 135.099 176.741 137.632C182.245 139.404 185.964 144.217 186.792 149.775C188.516 149.677 190.277 149.887 192.006 150.444C199.872 152.977 204.094 161.721 201.436 169.975C201.339 170.274 201.235 170.569 201.124 170.858C207.009 175.419 210.452 182.712 210.356 190.465C212.253 190.195 214.224 190.337 216.151 190.958C223.24 193.241 227.044 201.127 224.646 208.573C223.023 213.614 218.973 217.16 214.327 218.217C214.417 219.668 214.242 221.17 213.765 222.65C212.034 228.026 206.912 231.315 201.745 230.697C203.689 233.53 204.331 237.29 203.162 240.921C201.208 246.986 194.939 250.395 189.158 248.533C183.853 246.825 180.803 241.272 181.847 235.681C180.659 235.721 179.45 235.561 178.261 235.178C173.236 233.56 170.235 228.492 170.819 223.21C169.266 223.434 167.652 223.318 166.074 222.81C160.293 220.948 157.191 214.522 159.144 208.456C159.776 206.493 160.86 204.809 162.233 203.491C159.486 201.435 157.358 198.671 156.006 195.521C153.514 196.81 150.585 197.153 147.771 196.247C141.991 194.385 138.888 187.959 140.841 181.893C141.838 178.797 143.959 176.394 146.566 175.03C145.225 170.843 145.144 166.147 146.62 161.563C148.499 155.729 152.531 151.221 157.47 148.717Z" fill="#339048"/>
<path d="M157.686 147.991L164.279 150.114L164.279 150.114L157.686 147.991ZM157.47 148.717L160.602 154.895L163.344 153.505L164.153 150.54L157.47 148.717ZM176.741 137.632L174.618 144.225L174.618 144.225L176.741 137.632ZM186.792 149.775L179.941 150.795L180.873 157.051L187.187 156.69L186.792 149.775ZM192.006 150.444L194.129 143.851L194.129 143.851L192.006 150.444ZM201.436 169.975L194.843 167.852L194.843 167.852L201.436 169.975ZM201.124 170.858L194.66 168.37L192.809 173.177L196.881 176.333L201.124 170.858ZM210.356 190.465L203.43 190.379L203.329 198.464L211.334 197.322L210.356 190.465ZM216.151 190.958L218.274 184.365L218.274 184.365L216.151 190.958ZM224.646 208.573L231.239 210.696L231.239 210.696L224.646 208.573ZM214.327 218.217L212.791 211.463L207.046 212.769L207.414 218.65L214.327 218.217ZM213.765 222.65L220.358 224.773L220.358 224.773L213.765 222.65ZM201.745 230.697L202.567 223.819L187.38 222.003L196.034 234.616L201.745 230.697ZM203.162 240.921L209.755 243.044L209.755 243.044L203.162 240.921ZM189.158 248.533L191.281 241.94L191.281 241.94L189.158 248.533ZM181.847 235.681L188.656 236.952L190.24 228.467L181.614 228.758L181.847 235.681ZM178.261 235.178L180.385 228.585L180.385 228.585L178.261 235.178ZM170.819 223.21L177.704 223.972L178.689 215.076L169.83 216.354L170.819 223.21ZM166.074 222.81L168.197 216.217L168.197 216.217L166.074 222.81ZM159.144 208.456L165.737 210.579L165.737 210.579L159.144 208.456ZM162.233 203.491L167.029 208.489L172.918 202.837L166.384 197.946L162.233 203.491ZM156.006 195.521L162.37 192.788L159.433 185.947L152.821 189.37L156.006 195.521ZM147.771 196.247L145.648 202.84L145.648 202.84L147.771 196.247ZM140.841 181.893L134.248 179.77L134.248 179.77L140.841 181.893ZM146.566 175.03L149.777 181.166L154.938 178.466L153.162 172.918L146.566 175.03ZM146.62 161.563L140.027 159.439L146.62 161.563ZM151.093 145.868C150.983 146.209 150.882 146.551 150.788 146.894L164.153 150.54C164.191 150.398 164.233 150.256 164.279 150.114L151.093 145.868ZM178.865 131.039C167.062 127.239 154.826 134.275 151.093 145.868L164.279 150.114C165.862 145.199 170.689 142.96 174.618 144.225L178.865 131.039ZM193.643 148.755C192.462 140.826 187.093 133.689 178.865 131.039L174.618 144.225C177.396 145.12 179.467 147.608 179.941 150.795L193.643 148.755ZM194.129 143.851C191.571 143.027 188.955 142.714 186.397 142.86L187.187 156.69C188.076 156.639 188.983 156.747 189.883 157.037L194.129 143.851ZM208.029 172.098C211.762 160.506 205.932 147.652 194.129 143.851L189.883 157.037C193.812 158.302 196.425 162.937 194.843 167.852L208.029 172.098ZM207.588 173.347C207.746 172.937 207.893 172.521 208.029 172.098L194.843 167.852C194.786 168.028 194.725 168.201 194.66 168.37L207.588 173.347ZM217.281 190.551C217.403 180.722 213.043 171.333 205.367 165.383L196.881 176.333C200.975 179.506 203.5 184.702 203.43 190.379L217.281 190.551ZM218.274 184.365C215.317 183.413 212.284 183.194 209.378 183.608L211.334 197.322C212.222 197.195 213.131 197.262 214.027 197.551L218.274 184.365ZM231.239 210.696C234.71 199.917 229.305 187.917 218.274 184.365L214.027 197.551C217.175 198.564 219.377 202.337 218.053 206.45L231.239 210.696ZM215.862 224.971C222.907 223.369 228.87 218.053 231.239 210.696L218.053 206.45C217.175 209.175 215.039 210.952 212.791 211.463L215.862 224.971ZM220.358 224.773C221.103 222.46 221.384 220.091 221.239 217.784L207.414 218.65C207.451 219.246 207.381 219.88 207.172 220.527L220.358 224.773ZM200.922 237.574C209.547 238.606 217.663 233.142 220.358 224.773L207.172 220.527C206.405 222.91 204.277 224.024 202.567 223.819L200.922 237.574ZM209.755 243.044C211.585 237.358 210.606 231.369 207.456 226.778L196.034 234.616C196.771 235.691 197.076 237.221 196.569 238.797L209.755 243.044ZM187.035 255.126C196.752 258.255 206.726 252.448 209.755 243.044L196.569 238.797C195.69 241.525 193.125 242.534 191.281 241.94L187.035 255.126ZM175.038 234.409C173.411 243.125 178.127 252.257 187.035 255.126L191.281 241.94C189.579 241.392 188.195 239.418 188.656 236.952L175.038 234.409ZM176.138 241.771C178.102 242.403 180.109 242.67 182.08 242.603L181.614 228.758C181.209 228.772 180.798 228.718 180.385 228.585L176.138 241.771ZM163.935 222.447C163.021 230.705 167.705 239.056 176.138 241.771L180.385 228.585C178.767 228.064 177.448 226.278 177.704 223.972L163.935 222.447ZM163.951 229.403C166.563 230.244 169.243 230.435 171.808 230.065L169.83 216.354C169.29 216.432 168.741 216.392 168.197 216.217L163.951 229.403ZM152.551 206.333C149.523 215.737 154.234 226.274 163.951 229.403L168.197 216.217C166.353 215.623 164.859 213.307 165.737 210.579L152.551 206.333ZM157.437 198.494C155.248 200.595 153.54 203.263 152.551 206.333L165.737 210.579C166.012 209.724 166.472 209.023 167.029 208.489L157.437 198.494ZM149.641 198.254C151.452 202.47 154.322 206.221 158.082 209.036L166.384 197.946C164.65 196.648 163.265 194.872 162.37 192.788L149.641 198.254ZM145.648 202.84C150.335 204.349 155.17 203.753 159.19 201.672L152.821 189.37C151.858 189.868 150.835 189.957 149.894 189.654L145.648 202.84ZM134.248 179.77C131.22 189.174 135.931 199.711 145.648 202.84L149.894 189.654C148.05 189.06 146.556 186.744 147.434 184.016L134.248 179.77ZM143.354 168.893C139.159 171.088 135.81 174.921 134.248 179.77L147.434 184.016C147.867 182.673 148.759 181.699 149.777 181.166L143.354 168.893ZM153.162 172.918C152.256 170.087 152.187 166.872 153.213 163.686L140.027 159.439C138.101 165.422 138.195 171.599 139.969 177.142L153.162 172.918ZM153.213 163.686C154.519 159.633 157.29 156.574 160.602 154.895L154.339 142.539C147.771 145.868 142.48 151.825 140.027 159.439L153.213 163.686Z" fill="#106B45" mask="url(#path-11-outside-5_442_8)"/>
<mask id="path-13-outside-6_442_8" maskUnits="userSpaceOnUse" x="260.916" y="47.0042" width="130.935" height="150.531" fill="black">
<rect fill="white" x="260.916" y="47.0042" width="130.935" height="150.531"/>
<path fill-rule="evenodd" clip-rule="evenodd" d="M334.193 55.4163C328.241 56.8228 324.045 61.853 323.191 67.7934L323.099 67.8149C316.04 69.4831 310.795 74.8971 308.795 81.6121C305.445 80.4633 301.781 80.2132 298.131 81.0757C288.698 83.3049 282.505 92.2231 282.965 101.996C282.125 102.039 281.278 102.157 280.432 102.357C272.554 104.219 267.751 112.43 269.705 120.697C271.033 126.319 275.145 130.519 280.117 132.046C277.992 135.431 277.179 139.719 278.196 144.022C279.942 151.413 286.499 156.347 293.499 155.978C297.828 159.991 303.292 162.565 309.111 163.192C309.23 164.578 309.452 165.974 309.783 167.371C313.27 182.129 327.499 191.398 341.563 188.075C350.016 186.077 356.485 179.986 359.545 172.239C362.318 173.473 365.459 173.845 368.584 173.106C376.463 171.244 381.266 163.033 379.312 154.766C378.494 151.305 376.622 148.383 374.143 146.292C378.741 141.397 380.856 134.168 379.14 126.907C378.171 122.808 376.115 119.264 373.374 116.538C380.431 109.892 383.812 99.4591 381.335 88.9767C378.013 74.919 365.309 65.6578 351.967 66.8954C349.966 58.6973 342.034 53.5633 334.193 55.4163Z"/>
</mask>
<path fill-rule="evenodd" clip-rule="evenodd" d="M334.193 55.4163C328.241 56.8228 324.045 61.853 323.191 67.7934L323.099 67.8149C316.04 69.4831 310.795 74.8971 308.795 81.6121C305.445 80.4633 301.781 80.2132 298.131 81.0757C288.698 83.3049 282.505 92.2231 282.965 101.996C282.125 102.039 281.278 102.157 280.432 102.357C272.554 104.219 267.751 112.43 269.705 120.697C271.033 126.319 275.145 130.519 280.117 132.046C277.992 135.431 277.179 139.719 278.196 144.022C279.942 151.413 286.499 156.347 293.499 155.978C297.828 159.991 303.292 162.565 309.111 163.192C309.23 164.578 309.452 165.974 309.783 167.371C313.27 182.129 327.499 191.398 341.563 188.075C350.016 186.077 356.485 179.986 359.545 172.239C362.318 173.473 365.459 173.845 368.584 173.106C376.463 171.244 381.266 163.033 379.312 154.766C378.494 151.305 376.622 148.383 374.143 146.292C378.741 141.397 380.856 134.168 379.14 126.907C378.171 122.808 376.115 119.264 373.374 116.538C380.431 109.892 383.812 99.4591 381.335 88.9767C378.013 74.919 365.309 65.6578 351.967 66.8954C349.966 58.6973 342.034 53.5633 334.193 55.4163Z" fill="#296C38"/>
<path d="M323.191 67.7934L324.767 74.538L329.373 73.4614L330.046 68.7792L323.191 67.7934ZM334.193 55.4163L332.6 48.6755L332.6 48.6755L334.193 55.4163ZM323.099 67.8149L321.522 61.0703L321.514 61.0723L321.506 61.0742L323.099 67.8149ZM308.795 81.6121L306.549 88.1641L313.374 90.5043L315.434 83.5892L308.795 81.6121ZM298.131 81.0757L299.724 87.8164L299.724 87.8164L298.131 81.0757ZM282.965 101.996L283.313 108.914L290.208 108.568L289.884 101.671L282.965 101.996ZM280.432 102.357L278.839 95.6163L278.839 95.6163L280.432 102.357ZM269.705 120.697L276.445 119.104L276.445 119.104L269.705 120.697ZM280.117 132.046L285.984 135.728L290.788 128.076L282.15 125.424L280.117 132.046ZM278.196 144.022L271.455 145.615L271.455 145.615L278.196 144.022ZM293.499 155.978L298.206 150.898L296.059 148.908L293.135 149.062L293.499 155.978ZM309.111 163.192L316.012 162.597L315.521 156.917L309.854 156.306L309.111 163.192ZM309.783 167.371L316.523 165.778L316.523 165.778L309.783 167.371ZM341.563 188.075L339.97 181.334L339.97 181.334L341.563 188.075ZM359.545 172.239L362.36 165.911L355.758 162.974L353.103 169.695L359.545 172.239ZM368.584 173.106L370.177 179.847L370.177 179.847L368.584 173.106ZM379.312 154.766L372.571 156.359L372.571 156.359L379.312 154.766ZM374.143 146.292L369.095 141.549L364.092 146.875L369.677 151.586L374.143 146.292ZM379.14 126.907L385.881 125.314L385.881 125.314L379.14 126.907ZM373.374 116.538L368.625 111.496L363.416 116.402L368.49 121.449L373.374 116.538ZM381.335 88.9767L374.594 90.5696L374.594 90.5696L381.335 88.9767ZM351.967 66.8954L345.238 68.5382L346.656 74.3442L352.607 73.7922L351.967 66.8954ZM330.046 68.7792C330.533 65.3977 332.85 62.8508 335.786 62.157L332.6 48.6755C323.632 50.7948 317.557 58.3083 316.335 66.8076L330.046 68.7792ZM324.675 74.5595L324.767 74.538L321.614 61.0488L321.522 61.0703L324.675 74.5595ZM315.434 83.5892C316.788 79.0424 320.25 75.6052 324.692 74.5557L321.506 61.0742C311.829 63.3609 304.803 70.7517 302.157 79.635L315.434 83.5892ZM299.724 87.8164C302.049 87.2671 304.382 87.4212 306.549 88.1641L311.042 75.0602C306.507 73.5053 301.512 73.1594 296.538 74.335L299.724 87.8164ZM289.884 101.671C289.567 94.9283 293.819 89.212 299.724 87.8164L296.538 74.335C283.577 77.3978 275.444 89.5178 276.046 102.322L289.884 101.671ZM282.025 109.098C282.46 108.995 282.889 108.935 283.313 108.914L282.618 95.0787C281.36 95.1419 280.096 95.3192 278.839 95.6163L282.025 109.098ZM276.445 119.104C275.298 114.25 278.172 110.008 282.025 109.098L278.839 95.6163C266.936 98.4293 260.204 110.61 262.964 122.29L276.445 119.104ZM282.15 125.424C279.54 124.623 277.211 122.345 276.445 119.104L262.964 122.29C264.855 130.293 270.749 136.415 278.085 138.667L282.15 125.424ZM284.936 142.429C284.351 139.954 284.832 137.563 285.984 135.728L274.251 128.363C271.153 133.299 270.006 139.484 271.455 145.615L284.936 142.429ZM293.135 149.062C289.654 149.245 285.954 146.736 284.936 142.429L271.455 145.615C273.93 156.09 283.343 163.449 293.862 162.895L293.135 149.062ZM309.854 156.306C305.587 155.846 301.496 153.947 298.206 150.898L288.791 161.059C294.16 166.035 300.997 169.284 308.368 170.079L309.854 156.306ZM316.523 165.778C316.271 164.71 316.102 163.647 316.012 162.597L302.21 163.788C302.359 165.509 302.634 167.238 303.042 168.964L316.523 165.778ZM339.97 181.334C329.931 183.706 319.204 177.123 316.523 165.778L303.042 168.964C307.336 187.135 325.067 199.09 343.156 194.815L339.97 181.334ZM353.103 169.695C350.807 175.508 346.041 179.899 339.97 181.334L343.156 194.815C353.99 192.255 362.163 184.464 365.987 174.784L353.103 169.695ZM366.991 166.365C365.416 166.737 363.822 166.561 362.36 165.911L356.73 178.568C360.815 180.385 365.501 180.952 370.177 179.847L366.991 166.365ZM372.571 156.359C373.718 161.213 370.845 165.455 366.991 166.365L370.177 179.847C382.081 177.034 388.813 164.853 386.053 153.173L372.571 156.359ZM369.677 151.586C371.038 152.735 372.1 154.367 372.571 156.359L386.053 153.173C384.888 148.244 382.205 144.032 378.609 140.998L369.677 151.586ZM372.399 128.5C373.581 133.498 372.102 138.349 369.095 141.549L379.191 151.034C385.381 144.446 388.131 134.838 385.881 125.314L372.399 128.5ZM368.49 121.449C370.329 123.278 371.732 125.677 372.399 128.5L385.881 125.314C384.61 119.938 381.902 115.25 378.259 111.627L368.49 121.449ZM374.594 90.5696C376.506 98.6593 373.868 106.558 368.625 111.496L378.123 121.58C386.993 113.226 391.118 100.259 388.076 87.3837L374.594 90.5696ZM352.607 73.7922C362.303 72.8928 372.017 79.6661 374.594 90.5696L388.076 87.3837C384.008 70.1719 368.314 58.4229 351.327 59.9986L352.607 73.7922ZM335.786 62.157C339.622 61.2505 344.064 63.7284 345.238 68.5382L358.696 65.2527C355.867 53.6663 344.446 45.8761 332.6 48.6755L335.786 62.157Z" fill="#07573A" mask="url(#path-13-outside-6_442_8)"/>
<mask id="path-15-outside-7_442_8" maskUnits="userSpaceOnUse" x="291.143" y="71.428" width="80" height="98" fill="black">
<rect fill="white" x="291.143" y="71.428" width="80" height="98"/>
<path fill-rule="evenodd" clip-rule="evenodd" d="M342.522 154.232C341.267 158.156 338.12 161.277 333.951 162.175C327.618 163.538 321.325 159.257 319.895 152.612C319.887 152.576 319.879 152.541 319.872 152.505C316.198 150.267 313.157 146.891 311.278 142.737C307.029 140.512 303.72 136.372 302.6 131.168C301.42 125.686 302.939 120.28 306.237 116.459C302.694 115.957 299.635 113.184 298.804 109.327C297.753 104.443 300.673 99.6724 305.327 98.6705C307.738 98.1513 310.142 98.746 312.045 100.119C313.656 97.9907 315.967 96.4241 318.725 95.8303C320.202 95.5122 321.677 95.5014 323.089 95.7561C322.354 87.7823 327.383 80.4111 335.045 78.7617C341.818 77.3033 348.558 80.7683 351.833 86.8229C352.387 86.5636 352.977 86.3628 353.598 86.229C358.252 85.2271 362.877 88.3736 363.928 93.2568C364.98 98.1401 362.059 102.911 357.406 103.913C357.193 103.959 356.981 103.996 356.769 104.024C357.487 105.394 358.035 106.887 358.378 108.48C358.893 110.876 358.894 113.257 358.455 115.497C359.862 116.752 360.908 118.475 361.343 120.494C362.263 124.768 360.141 128.956 356.478 130.606C356.528 132.253 356.144 133.836 355.414 135.208C356.475 136.628 357.26 138.307 357.661 140.173C359.092 146.817 355.118 153.309 348.786 154.672C346.63 155.137 344.479 154.946 342.522 154.232Z"/>
</mask>
<path fill-rule="evenodd" clip-rule="evenodd" d="M342.522 154.232C341.267 158.156 338.12 161.277 333.951 162.175C327.618 163.538 321.325 159.257 319.895 152.612C319.887 152.576 319.879 152.541 319.872 152.505C316.198 150.267 313.157 146.891 311.278 142.737C307.029 140.512 303.72 136.372 302.6 131.168C301.42 125.686 302.939 120.28 306.237 116.459C302.694 115.957 299.635 113.184 298.804 109.327C297.753 104.443 300.673 99.6724 305.327 98.6705C307.738 98.1513 310.142 98.746 312.045 100.119C313.656 97.9907 315.967 96.4241 318.725 95.8303C320.202 95.5122 321.677 95.5014 323.089 95.7561C322.354 87.7823 327.383 80.4111 335.045 78.7617C341.818 77.3033 348.558 80.7683 351.833 86.8229C352.387 86.5636 352.977 86.3628 353.598 86.229C358.252 85.2271 362.877 88.3736 363.928 93.2568C364.98 98.1401 362.059 102.911 357.406 103.913C357.193 103.959 356.981 103.996 356.769 104.024C357.487 105.394 358.035 106.887 358.378 108.48C358.893 110.876 358.894 113.257 358.455 115.497C359.862 116.752 360.908 118.475 361.343 120.494C362.263 124.768 360.141 128.956 356.478 130.606C356.528 132.253 356.144 133.836 355.414 135.208C356.475 136.628 357.26 138.307 357.661 140.173C359.092 146.817 355.118 153.309 348.786 154.672C346.63 155.137 344.479 154.946 342.522 154.232Z" fill="#2E7E40"/>
<path d="M333.951 162.175L335.409 168.946L335.409 168.946L333.951 162.175ZM342.522 154.232L344.899 147.726L338.122 145.25L335.925 152.122L342.522 154.232ZM319.895 152.612L313.123 154.07L313.123 154.07L319.895 152.612ZM319.872 152.505L326.655 151.104L326.046 148.155L323.475 146.589L319.872 152.505ZM311.278 142.737L317.588 139.882L316.605 137.708L314.491 136.601L311.278 142.737ZM302.6 131.168L309.371 129.71L309.371 129.71L302.6 131.168ZM306.237 116.459L311.481 120.984L319.768 111.38L307.208 109.601L306.237 116.459ZM298.804 109.327L305.576 107.869L305.576 107.869L298.804 109.327ZM305.327 98.6705L303.869 91.8993L303.869 91.8993L305.327 98.6705ZM312.045 100.119L307.992 105.736L313.481 109.697L317.567 104.3L312.045 100.119ZM318.725 95.8303L320.183 102.602L320.183 102.602L318.725 95.8303ZM323.089 95.7561L321.859 102.572L330.823 104.19L329.986 95.12L323.089 95.7561ZM335.045 78.7617L333.587 71.9904L333.587 71.9904L335.045 78.7617ZM351.833 86.8229L345.741 90.1184L348.85 95.8665L354.769 93.0962L351.833 86.8229ZM353.598 86.229L355.056 93.0003L355.056 93.0003L353.598 86.229ZM363.928 93.2568L370.7 91.799L363.928 93.2568ZM357.406 103.913L358.863 110.684L358.864 110.684L357.406 103.913ZM356.769 104.024L355.84 97.1605L346.048 98.4856L350.634 107.239L356.769 104.024ZM358.378 108.48L365.149 107.022L365.149 107.022L358.378 108.48ZM358.455 115.497L351.658 114.167L350.9 118.039L353.845 120.666L358.455 115.497ZM361.343 120.494L354.572 121.952L354.572 121.952L361.343 120.494ZM356.478 130.606L353.633 124.291L349.413 126.192L349.555 130.818L356.478 130.606ZM355.414 135.208L349.299 131.955L347.235 135.834L349.865 139.354L355.414 135.208ZM357.661 140.173L364.432 138.715L364.432 138.715L357.661 140.173ZM348.786 154.672L350.244 161.444L350.244 161.444L348.786 154.672ZM335.409 168.946C342.208 167.482 347.176 162.42 349.12 156.341L335.925 152.122C335.359 153.892 334.033 155.072 332.493 155.404L335.409 168.946ZM313.123 154.07C315.292 164.143 325.033 171.18 335.409 168.946L332.493 155.404C330.204 155.897 327.358 154.37 326.666 151.154L313.123 154.07ZM313.089 153.906C313.1 153.961 313.112 154.016 313.123 154.07L326.666 151.155C326.662 151.137 326.659 151.12 326.655 151.104L313.089 153.906ZM304.967 145.592C307.422 151.018 311.407 155.459 316.269 158.42L323.475 146.589C320.988 145.075 318.893 142.765 317.588 139.882L304.967 145.592ZM295.829 132.626C297.385 139.856 302.009 145.701 308.064 148.872L314.491 136.601C312.05 135.322 310.056 132.888 309.371 129.71L295.829 132.626ZM300.993 111.934C296.283 117.392 294.189 125.01 295.829 132.626L309.371 129.71C308.65 126.361 309.596 123.168 311.481 120.984L300.993 111.934ZM292.033 110.784C293.458 117.402 298.772 122.397 305.265 123.317L307.208 109.601C306.616 109.517 305.812 108.965 305.576 107.869L292.033 110.784ZM303.869 91.8993C295.172 93.7717 290.244 102.472 292.033 110.784L305.576 107.869C305.262 106.414 306.174 105.573 306.785 105.442L303.869 91.8993ZM316.098 94.5024C312.72 92.0647 308.333 90.9382 303.869 91.8993L306.785 105.442C307.144 105.364 307.564 105.427 307.992 105.736L316.098 94.5024ZM317.267 89.0591C312.794 90.0221 309.076 92.5662 306.523 95.938L317.567 104.3C318.237 103.415 319.14 102.826 320.183 102.602L317.267 89.0591ZM324.319 88.9398C322.038 88.5282 319.649 88.5462 317.267 89.0591L320.183 102.602C320.755 102.478 321.317 102.475 321.859 102.572L324.319 88.9398ZM333.587 71.9904C322.207 74.4405 315.163 85.2355 316.192 96.3922L329.986 95.12C329.544 90.3291 332.56 86.3817 336.502 85.5329L333.587 71.9904ZM357.925 83.5274C353.32 75.0137 343.637 69.8266 333.587 71.9904L336.502 85.5329C339.999 84.7801 343.796 86.5229 345.741 90.1184L357.925 83.5274ZM352.141 79.4578C351.005 79.7023 349.919 80.0712 348.897 80.5496L354.769 93.0962C354.855 93.0561 354.95 93.0232 355.056 93.0003L352.141 79.4578ZM370.7 91.799C368.91 83.487 360.838 77.5854 352.141 79.4578L355.056 93.0003C355.667 92.8688 356.844 93.2601 357.157 94.7146L370.7 91.799ZM358.864 110.684C367.56 108.812 372.489 100.111 370.7 91.799L357.157 94.7146C357.47 96.1692 356.558 97.0102 355.948 97.1416L358.864 110.684ZM357.698 110.888C358.087 110.836 358.476 110.768 358.863 110.684L355.948 97.1416C355.911 97.1496 355.875 97.1558 355.84 97.1605L357.698 110.888ZM350.634 107.239C351.063 108.058 351.396 108.96 351.606 109.938L365.149 107.022C364.673 104.814 363.91 102.73 362.905 100.81L350.634 107.239ZM351.606 109.938C351.922 111.405 351.918 112.838 351.658 114.167L365.253 116.827C365.869 113.676 365.865 110.346 365.149 107.022L351.606 109.938ZM368.114 119.037C367.366 115.559 365.551 112.545 363.066 110.328L353.845 120.666C354.174 120.959 354.451 121.39 354.572 121.952L368.114 119.037ZM359.323 136.921C366.106 133.865 369.689 126.348 368.114 119.037L354.572 121.952C354.838 123.188 354.177 124.046 353.633 124.291L359.323 136.921ZM361.528 138.461C362.821 136.032 363.489 133.256 363.401 130.394L349.555 130.818C349.568 131.25 349.467 131.639 349.299 131.955L361.528 138.461ZM364.432 138.715C363.819 135.864 362.612 133.27 360.962 131.062L349.865 139.354C350.338 139.986 350.701 140.751 350.89 141.63L364.432 138.715ZM350.244 161.444C360.619 159.21 366.601 148.788 364.432 138.715L350.89 141.63C351.582 144.846 349.617 147.408 347.328 147.901L350.244 161.444ZM340.145 160.737C343.277 161.882 346.757 162.194 350.244 161.444L347.328 147.901C346.503 148.079 345.68 148.011 344.899 147.726L340.145 160.737Z" fill="#0A5F40" mask="url(#path-15-outside-7_442_8)"/>
<mask id="path-17-outside-8_442_8" maskUnits="userSpaceOnUse" x="-19.0285" y="220.606" width="201.996" height="190.591" fill="black">
<rect fill="white" x="-19.0285" y="220.606" width="201.996" height="190.591"/>
<path fill-rule="evenodd" clip-rule="evenodd" d="M82.4323 282.699C82.7049 282.223 82.9634 281.737 83.2072 281.241C83.419 281.687 83.6533 282.123 83.909 282.547C83.4147 282.588 82.9223 282.639 82.4323 282.699ZM30.1907 260.854C27.7957 268.835 29.4312 277.11 33.9471 283.662C32.0999 285.344 30.6829 287.509 29.9228 290.042C29.1107 292.748 29.1558 295.517 29.9045 298.078C26.5523 299.831 23.916 302.812 22.7708 306.628C20.444 314.382 25.1535 322.647 33.2898 325.088C33.8759 325.264 34.4639 325.405 35.0512 325.512C34.0877 326.999 33.3188 328.64 32.7866 330.414C29.6205 340.964 36.0288 352.211 47.1 355.533C51.4069 356.825 55.785 356.728 59.7136 355.506C61.1895 359.014 63.4014 362.233 66.2199 364.938C66.3143 371.261 70.6767 377.154 77.3318 379.151C83.1881 380.909 89.2235 379.17 93.0138 375.166C94.4161 376.175 96.0149 376.975 97.774 377.502C105.91 379.944 114.392 375.638 116.719 367.884C117.07 366.715 117.261 365.534 117.304 364.364C130.527 366.385 143.389 358.887 147.166 346.3C151.32 332.458 142.913 317.703 128.388 313.345C127.391 313.045 126.391 312.803 125.391 312.615C126.187 311.285 126.831 309.839 127.295 308.293C127.34 308.143 127.383 307.994 127.424 307.844C128.939 306.27 130.104 304.338 130.768 302.126C133.095 294.372 128.385 286.107 120.249 283.665C117.823 282.937 115.365 282.809 113.05 283.194L112.982 283.173C112.218 282.944 111.453 282.759 110.688 282.615C111.165 281.753 111.557 280.828 111.851 279.849C114.178 272.095 109.468 263.83 101.332 261.388C95.4123 259.612 89.3096 261.408 85.5276 265.504C83.8464 255.329 76.2417 246.344 65.2836 243.056C50.2095 238.532 34.4979 246.501 30.1907 260.854Z"/>
</mask>
<path fill-rule="evenodd" clip-rule="evenodd" d="M82.4323 282.699C82.7049 282.223 82.9634 281.737 83.2072 281.241C83.419 281.687 83.6533 282.123 83.909 282.547C83.4147 282.588 82.9223 282.639 82.4323 282.699ZM30.1907 260.854C27.7957 268.835 29.4312 277.11 33.9471 283.662C32.0999 285.344 30.6829 287.509 29.9228 290.042C29.1107 292.748 29.1558 295.517 29.9045 298.078C26.5523 299.831 23.916 302.812 22.7708 306.628C20.444 314.382 25.1535 322.647 33.2898 325.088C33.8759 325.264 34.4639 325.405 35.0512 325.512C34.0877 326.999 33.3188 328.64 32.7866 330.414C29.6205 340.964 36.0288 352.211 47.1 355.533C51.4069 356.825 55.785 356.728 59.7136 355.506C61.1895 359.014 63.4014 362.233 66.2199 364.938C66.3143 371.261 70.6767 377.154 77.3318 379.151C83.1881 380.909 89.2235 379.17 93.0138 375.166C94.4161 376.175 96.0149 376.975 97.774 377.502C105.91 379.944 114.392 375.638 116.719 367.884C117.07 366.715 117.261 365.534 117.304 364.364C130.527 366.385 143.389 358.887 147.166 346.3C151.32 332.458 142.913 317.703 128.388 313.345C127.391 313.045 126.391 312.803 125.391 312.615C126.187 311.285 126.831 309.839 127.295 308.293C127.34 308.143 127.383 307.994 127.424 307.844C128.939 306.27 130.104 304.338 130.768 302.126C133.095 294.372 128.385 286.107 120.249 283.665C117.823 282.937 115.365 282.809 113.05 283.194L112.982 283.173C112.218 282.944 111.453 282.759 110.688 282.615C111.165 281.753 111.557 280.828 111.851 279.849C114.178 272.095 109.468 263.83 101.332 261.388C95.4123 259.612 89.3096 261.408 85.5276 265.504C83.8464 255.329 76.2417 246.344 65.2836 243.056C50.2095 238.532 34.4979 246.501 30.1907 260.854Z" fill="#296C38"/>
<path d="M83.2072 281.241L89.4624 278.267L83.3099 265.328L76.9909 278.186L83.2072 281.241ZM82.4323 282.699L76.4235 279.253L69.5418 291.255L83.2741 289.574L82.4323 282.699ZM83.909 282.547L84.481 289.45L95.5989 288.528L89.8419 278.973L83.909 282.547ZM33.9471 283.662L38.6106 288.783L43.0824 284.711L39.65 279.731L33.9471 283.662ZM30.1907 260.854L36.8248 262.845L36.8248 262.845L30.1907 260.854ZM29.9228 290.042L23.2887 288.051L29.9228 290.042ZM29.9045 298.078L33.1135 304.216L38.1458 301.585L36.5527 296.135L29.9045 298.078ZM22.7708 306.628L16.1367 304.637L16.1367 304.637L22.7708 306.628ZM33.2898 325.088L35.2806 318.454L35.2806 318.454L33.2898 325.088ZM35.0512 325.512L40.8641 329.278L46.512 320.561L36.2936 318.698L35.0512 325.512ZM32.7866 330.414L39.4208 332.404L39.4208 332.404L32.7866 330.414ZM47.1 355.533L49.0908 348.899L49.0908 348.899L47.1 355.533ZM59.7136 355.506L66.0978 352.819L63.6593 347.024L57.6557 348.892L59.7136 355.506ZM66.2199 364.938L73.1455 364.835L73.1024 361.943L71.0159 359.941L66.2199 364.938ZM77.3318 379.151L75.341 385.785L77.3318 379.151ZM93.0138 375.166L97.0574 369.543L92.1442 366.01L87.9839 370.405L93.0138 375.166ZM97.774 377.502L99.7648 370.868L99.7648 370.868L97.774 377.502ZM116.719 367.884L110.085 365.893L110.085 365.893L116.719 367.884ZM117.304 364.364L118.35 357.517L110.669 356.343L110.382 364.108L117.304 364.364ZM147.166 346.3L153.801 348.291L153.801 348.291L147.166 346.3ZM128.388 313.345L126.397 319.979L126.397 319.979L128.388 313.345ZM125.391 312.615L119.447 309.06L114.345 317.589L124.113 319.423L125.391 312.615ZM127.295 308.293L120.661 306.302L120.661 306.302L127.295 308.293ZM127.424 307.844L122.433 303.041L121.21 304.312L120.744 306.014L127.424 307.844ZM130.768 302.126L124.134 300.135L124.134 300.135L130.768 302.126ZM120.249 283.665L122.24 277.031L122.24 277.031L120.249 283.665ZM113.05 283.194L111.048 289.825L112.593 290.291L114.185 290.027L113.05 283.194ZM112.982 283.173L114.984 276.542L114.973 276.539L112.982 283.173ZM110.688 282.615L104.627 279.263L99.9826 287.658L109.413 289.424L110.688 282.615ZM111.851 279.849L105.217 277.858L105.217 277.858L111.851 279.849ZM101.332 261.388L103.323 254.754L103.323 254.754L101.332 261.388ZM85.5276 265.504L78.6939 266.633L81.0041 280.615L90.6169 270.202L85.5276 265.504ZM65.2836 243.056L67.2744 236.422L67.2744 236.422L65.2836 243.056ZM76.9909 278.186C76.8124 278.549 76.6231 278.905 76.4235 279.253L88.441 286.144C88.7867 285.541 89.1144 284.925 89.4234 284.296L76.9909 278.186ZM89.8419 278.973C89.7028 278.742 89.5762 278.506 89.4624 278.267L76.952 284.216C77.2619 284.867 77.6038 285.503 77.9761 286.121L89.8419 278.973ZM83.2741 289.574C83.6745 289.525 84.0769 289.483 84.481 289.45L83.337 275.644C82.7525 275.693 82.1701 275.752 81.5904 275.823L83.2741 289.574ZM39.65 279.731C36.2335 274.774 35.0796 268.661 36.8248 262.845L23.5566 258.863C20.5118 269.01 22.6288 279.446 28.2441 287.592L39.65 279.731ZM36.557 292.033C36.942 290.749 37.6549 289.653 38.6106 288.783L29.2835 278.54C26.5448 281.034 24.4239 284.268 23.2887 288.051L36.557 292.033ZM36.5527 296.135C36.1631 294.802 36.1463 293.401 36.557 292.033L23.2887 288.051C22.0752 292.095 22.1484 296.231 23.2563 300.021L36.5527 296.135ZM29.4049 308.619C29.978 306.709 31.3015 305.163 33.1135 304.216L26.6954 291.94C21.803 294.498 17.854 298.914 16.1367 304.637L29.4049 308.619ZM35.2806 318.454C30.5036 317.021 28.2669 312.411 29.4049 308.619L16.1367 304.637C12.6212 316.352 19.8034 328.273 31.299 331.722L35.2806 318.454ZM36.2936 318.698C35.9585 318.637 35.6204 318.556 35.2806 318.454L31.299 331.722C32.1314 331.972 32.9692 332.173 33.8087 332.326L36.2936 318.698ZM39.4208 332.404C39.7621 331.267 40.2523 330.223 40.8641 329.278L29.2382 321.746C27.9231 323.776 26.8755 326.013 26.1525 328.423L39.4208 332.404ZM49.0908 348.899C41.3789 346.585 37.4434 338.994 39.4208 332.404L26.1525 328.423C21.7977 342.935 30.6787 357.837 45.1092 362.167L49.0908 348.899ZM57.6557 348.892C55.0237 349.711 52.0555 349.788 49.0908 348.899L45.1092 362.167C50.7583 363.862 56.5463 363.745 61.7714 362.119L57.6557 348.892ZM71.0159 359.941C68.8704 357.882 67.203 355.446 66.0978 352.819L53.3293 358.192C55.1761 362.581 57.9324 366.585 61.424 369.936L71.0159 359.941ZM79.3227 372.517C75.4629 371.359 73.1933 368.037 73.1455 364.835L59.2943 365.042C59.4353 374.485 65.8906 382.95 75.341 385.785L79.3227 372.517ZM87.9839 370.405C86.0142 372.485 82.7034 373.532 79.3227 372.517L75.341 385.785C83.6728 388.286 92.4329 385.855 98.0438 379.928L87.9839 370.405ZM99.7648 370.868C98.7478 370.563 97.8416 370.107 97.0574 369.543L88.9703 380.79C90.9905 382.243 93.2821 383.386 95.7832 384.137L99.7648 370.868ZM110.085 365.893C108.947 369.686 104.542 372.302 99.7648 370.868L95.7832 384.137C107.279 387.586 119.838 381.59 123.353 369.875L110.085 365.893ZM110.382 364.108C110.36 364.697 110.265 365.294 110.085 365.893L123.353 369.875C123.875 368.136 124.161 366.372 124.226 364.62L110.382 364.108ZM140.532 344.309C137.833 353.304 128.463 359.062 118.35 357.517L116.257 371.211C132.591 373.707 148.946 364.469 153.801 348.291L140.532 344.309ZM126.397 319.979C137.563 323.329 143.497 334.428 140.532 344.309L153.801 348.291C159.143 330.487 148.263 312.077 130.379 306.711L126.397 319.979ZM124.113 319.423C124.873 319.565 125.635 319.75 126.397 319.979L130.379 306.711C129.147 306.341 127.909 306.041 126.669 305.808L124.113 319.423ZM120.661 306.302C120.363 307.294 119.953 308.215 119.447 309.06L131.335 316.171C132.422 314.354 133.299 312.384 133.93 310.283L120.661 306.302ZM120.744 306.014C120.718 306.11 120.69 306.206 120.661 306.302L133.929 310.283C133.99 310.081 134.049 309.878 134.104 309.674L120.744 306.014ZM124.134 300.135C123.797 301.259 123.209 302.235 122.433 303.041L132.415 312.647C134.669 310.305 136.412 307.417 137.402 304.116L124.134 300.135ZM118.258 290.299C123.035 291.733 125.272 296.342 124.134 300.135L137.402 304.116C140.918 292.401 133.735 280.481 122.24 277.031L118.258 290.299ZM114.185 290.027C115.471 289.813 116.858 289.879 118.258 290.299L122.24 277.031C118.787 275.995 115.26 275.805 111.915 276.361L114.185 290.027ZM110.981 289.804L111.048 289.825L115.051 276.563L114.984 276.542L110.981 289.804ZM109.413 289.424C109.937 289.522 110.463 289.649 110.991 289.807L114.973 276.539C113.974 276.239 112.969 275.996 111.962 275.807L109.413 289.424ZM105.217 277.858C105.066 278.361 104.867 278.829 104.627 279.263L116.748 285.968C117.463 284.677 118.048 283.296 118.485 281.839L105.217 277.858ZM99.3411 268.022C104.118 269.456 106.355 274.065 105.217 277.858L118.485 281.839C122.001 270.124 114.818 258.204 103.323 254.754L99.3411 268.022ZM90.6169 270.202C92.5783 268.078 95.9227 266.997 99.3411 268.022L103.323 254.754C94.9018 252.227 86.0408 254.737 80.4384 260.806L90.6169 270.202ZM63.2928 249.69C71.7547 252.229 77.4499 259.105 78.6939 266.633L92.3614 264.375C90.2428 251.553 80.7287 240.459 67.2744 236.422L63.2928 249.69ZM36.8248 262.845C39.9417 252.458 51.5725 246.173 63.2928 249.69L67.2744 236.422C48.8465 230.892 29.054 240.543 23.5566 258.863L36.8248 262.845Z" fill="#07573A" mask="url(#path-17-outside-8_442_8)"/>
<mask id="path-19-outside-9_442_8" maskUnits="userSpaceOnUse" x="27.8479" y="257.008" width="125.798" height="118.719" fill="black">
<rect fill="white" x="27.8479" y="257.008" width="125.798" height="118.719"/>
<path fill-rule="evenodd" clip-rule="evenodd" d="M54.4643 320.654C54.1217 320.592 53.7787 320.509 53.4368 320.407C48.6904 318.983 45.943 314.161 47.3004 309.638C47.9685 307.411 49.5063 305.672 51.4618 304.65C51.025 303.156 50.9988 301.541 51.4725 299.962C52.7399 295.738 57.1379 293.268 61.5791 294.119C61.6774 293.203 61.8609 292.285 62.1344 291.373C64.1404 284.689 70.3866 280.378 77.2986 280.254C79.4456 277.484 83.2737 276.197 86.9789 277.309C91.7253 278.733 94.4727 283.555 93.1153 288.078C93.0051 288.445 92.8712 288.799 92.7156 289.139C93.7808 291.111 94.4293 293.284 94.5844 295.525C96.3123 295.291 98.13 295.416 99.9264 295.955L99.9659 295.967C101.317 295.743 102.75 295.817 104.166 296.242C108.912 297.666 111.66 302.488 110.302 307.011C109.915 308.302 109.235 309.429 108.351 310.347C108.327 310.434 108.302 310.522 108.276 310.609C107.928 311.769 107.406 312.832 106.745 313.78C106.93 314.986 107.006 316.212 106.966 317.447C107.089 317.678 107.205 317.911 107.316 318.147C109.89 317.681 112.633 317.803 115.341 318.615C124.135 321.254 129.226 330.181 126.714 338.554C124.201 346.927 115.035 351.576 106.242 348.937C104.532 348.424 102.962 347.673 101.561 346.735C99.7069 350.382 95.3001 352.258 91.0547 350.984C86.7239 349.684 84.0574 345.556 84.6547 341.407C82.6576 344.702 78.4778 346.335 74.4437 345.124C71.1017 344.121 68.7508 341.434 68.126 338.353C66.0273 338.867 63.7436 338.842 61.4932 338.167C55.0347 336.229 51.2963 329.668 53.1433 323.513C53.4538 322.479 53.9023 321.522 54.4643 320.654ZM85.7592 338.32C85.8551 338.162 85.9561 338.008 86.0619 337.857C85.9813 337.819 85.9012 337.781 85.8215 337.742C85.8077 337.934 85.787 338.127 85.7592 338.32Z"/>
</mask>
<path fill-rule="evenodd" clip-rule="evenodd" d="M54.4643 320.654C54.1217 320.592 53.7787 320.509 53.4368 320.407C48.6904 318.983 45.943 314.161 47.3004 309.638C47.9685 307.411 49.5063 305.672 51.4618 304.65C51.025 303.156 50.9988 301.541 51.4725 299.962C52.7399 295.738 57.1379 293.268 61.5791 294.119C61.6774 293.203 61.8609 292.285 62.1344 291.373C64.1404 284.689 70.3866 280.378 77.2986 280.254C79.4456 277.484 83.2737 276.197 86.9789 277.309C91.7253 278.733 94.4727 283.555 93.1153 288.078C93.0051 288.445 92.8712 288.799 92.7156 289.139C93.7808 291.111 94.4293 293.284 94.5844 295.525C96.3123 295.291 98.13 295.416 99.9264 295.955L99.9659 295.967C101.317 295.743 102.75 295.817 104.166 296.242C108.912 297.666 111.66 302.488 110.302 307.011C109.915 308.302 109.235 309.429 108.351 310.347C108.327 310.434 108.302 310.522 108.276 310.609C107.928 311.769 107.406 312.832 106.745 313.78C106.93 314.986 107.006 316.212 106.966 317.447C107.089 317.678 107.205 317.911 107.316 318.147C109.89 317.681 112.633 317.803 115.341 318.615C124.135 321.254 129.226 330.181 126.714 338.554C124.201 346.927 115.035 351.576 106.242 348.937C104.532 348.424 102.962 347.673 101.561 346.735C99.7069 350.382 95.3001 352.258 91.0547 350.984C86.7239 349.684 84.0574 345.556 84.6547 341.407C82.6576 344.702 78.4778 346.335 74.4437 345.124C71.1017 344.121 68.7508 341.434 68.126 338.353C66.0273 338.867 63.7436 338.842 61.4932 338.167C55.0347 336.229 51.2963 329.668 53.1433 323.513C53.4538 322.479 53.9023 321.522 54.4643 320.654ZM85.7592 338.32C85.8551 338.162 85.9561 338.008 86.0619 337.857C85.9813 337.819 85.9012 337.781 85.8215 337.742C85.8077 337.934 85.787 338.127 85.7592 338.32Z" fill="#2E7E40"/>
<path d="M53.4368 320.407L55.4276 313.773L55.4276 313.773L53.4368 320.407ZM54.4643 320.654L60.2773 324.42L65.9251 315.703L55.7067 313.84L54.4643 320.654ZM47.3004 309.638L40.6663 307.647L40.6663 307.647L47.3004 309.638ZM51.4618 304.65L54.6709 310.788L59.7032 308.157L58.11 302.707L51.4618 304.65ZM51.4725 299.962L44.8384 297.971L44.8384 297.971L51.4725 299.962ZM61.5791 294.119L60.2762 300.922L67.6631 302.336L68.4659 294.858L61.5791 294.119ZM62.1344 291.373L68.7685 293.364L68.7685 293.364L62.1344 291.373ZM77.2986 280.254L77.4229 287.179L80.7405 287.12L82.7732 284.497L77.2986 280.254ZM86.9789 277.309L84.9881 283.943L84.9881 283.943L86.9789 277.309ZM93.1153 288.078L86.4812 286.087L86.4812 286.087L93.1153 288.078ZM92.7156 289.139L86.4179 286.256L84.981 289.394L86.6215 292.431L92.7156 289.139ZM94.5844 295.525L87.6746 296.003L88.1852 303.378L95.5115 302.389L94.5844 295.525ZM99.9264 295.955L101.928 289.324L101.917 289.321L99.9264 295.955ZM99.9659 295.967L97.9648 302.598L99.5094 303.064L101.101 302.8L99.9659 295.967ZM104.166 296.242L106.157 289.608L106.157 289.608L104.166 296.242ZM110.302 307.011L116.936 309.002L116.936 309.002L110.302 307.011ZM108.351 310.347L103.361 305.544L102.137 306.815L101.671 308.517L108.351 310.347ZM108.276 310.609L114.91 312.6L114.91 312.599L108.276 310.609ZM106.745 313.78L101.063 309.82L99.4787 312.093L99.8992 314.831L106.745 313.78ZM106.966 317.447L100.043 317.22L99.9826 319.069L100.852 320.702L106.966 317.447ZM107.316 318.147L101.047 321.092L103.311 325.91L108.549 324.962L107.316 318.147ZM115.341 318.615L113.35 325.249L113.35 325.249L115.341 318.615ZM126.714 338.554L120.08 336.563L120.08 336.563L126.714 338.554ZM106.242 348.937L104.251 355.571L104.251 355.571L106.242 348.937ZM101.561 346.735L105.415 340.98L98.9262 336.635L95.387 343.596L101.561 346.735ZM91.0547 350.984L93.0455 344.349L93.0455 344.349L91.0547 350.984ZM84.6547 341.407L91.5104 342.394L78.7315 337.817L84.6547 341.407ZM74.4437 345.124L76.4345 338.49L76.4345 338.49L74.4437 345.124ZM68.126 338.353L74.9143 336.976L73.4811 329.909L66.4768 331.626L68.126 338.353ZM61.4932 338.167L59.5024 344.801L59.5024 344.801L61.4932 338.167ZM53.1433 323.513L59.7775 325.504L59.7775 325.504L53.1433 323.513ZM86.0619 337.857L91.7286 341.84L96.4649 335.101L89.0135 331.591L86.0619 337.857ZM85.7592 338.32L78.9034 337.333L91.6823 341.911L85.7592 338.32ZM85.8215 337.742L88.8729 331.523L79.648 326.997L78.9129 337.246L85.8215 337.742ZM51.446 327.041C52.0343 327.217 52.6271 327.36 53.2219 327.468L55.7067 313.84C55.6163 313.824 55.5232 313.801 55.4276 313.773L51.446 327.041ZM40.6663 307.647C38.1202 316.132 43.3403 324.609 51.446 327.041L55.4276 313.773C54.0405 313.356 53.7659 312.19 53.9345 311.629L40.6663 307.647ZM48.2527 298.512C44.757 300.34 41.9064 303.514 40.6663 307.647L53.9345 311.629C54.0305 311.309 54.2556 311.005 54.6709 310.788L48.2527 298.512ZM44.8384 297.971C43.9632 300.888 44.0177 303.87 44.8136 306.593L58.11 302.707C58.0324 302.441 58.0343 302.194 58.1067 301.953L44.8384 297.971ZM62.882 287.316C55.257 285.856 47.2132 290.057 44.8384 297.971L58.1067 301.953C58.2666 301.42 59.0187 300.681 60.2762 300.922L62.882 287.316ZM55.5003 289.383C55.1034 290.705 54.8359 292.042 54.6923 293.38L68.4659 294.858C68.519 294.364 68.6183 293.865 68.7685 293.364L55.5003 289.383ZM77.1744 273.329C67.5305 273.502 58.4501 279.552 55.5003 289.383L68.7685 293.364C69.8306 289.825 73.2426 287.254 77.4229 287.179L77.1744 273.329ZM88.9697 270.675C82.5894 268.76 75.769 270.921 71.8241 276.011L82.7732 284.497C83.1221 284.047 83.958 283.634 84.9881 283.943L88.9697 270.675ZM99.7495 290.069C102.296 281.584 97.0754 273.107 88.9697 270.675L84.9881 283.943C86.3752 284.359 86.6498 285.525 86.4812 286.087L99.7495 290.069ZM99.0133 292.022C99.3009 291.394 99.5474 290.742 99.7495 290.069L86.4812 286.087C86.4628 286.148 86.4414 286.204 86.4179 286.256L99.0133 292.022ZM101.494 295.046C101.268 291.785 100.327 288.656 98.8097 285.847L86.6215 292.431C87.2347 293.566 87.5902 294.784 87.6746 296.003L101.494 295.046ZM101.917 289.321C99.1641 288.495 96.3511 288.297 93.6573 288.661L95.5115 302.389C96.2734 302.286 97.0958 302.337 97.9356 302.589L101.917 289.321ZM101.967 289.336L101.928 289.324L97.9252 302.586L97.9648 302.598L101.967 289.336ZM106.157 289.608C103.715 288.875 101.211 288.739 98.8309 289.134L101.101 302.8C101.422 302.746 101.786 302.759 102.175 302.876L106.157 289.608ZM116.936 309.002C119.482 300.517 114.262 292.04 106.157 289.608L102.175 302.876C103.562 303.292 103.837 304.458 103.668 305.02L116.936 309.002ZM113.342 315.15C114.965 313.464 116.222 311.381 116.936 309.002L103.668 305.02C103.607 305.223 103.506 305.394 103.361 305.544L113.342 315.15ZM114.91 312.599C114.953 312.459 114.993 312.318 115.032 312.177L101.671 308.517C101.662 308.55 101.652 308.584 101.642 308.618L114.91 312.599ZM112.428 317.741C113.501 316.2 114.348 314.474 114.91 312.6L101.642 308.618C101.508 309.064 101.311 309.464 101.063 309.82L112.428 317.741ZM113.889 317.674C113.943 316.005 113.841 314.351 113.592 312.729L99.8992 314.831C100.02 315.621 100.07 316.42 100.043 317.22L113.889 317.674ZM113.585 315.201C113.425 314.861 113.257 314.524 113.08 314.192L100.852 320.702C100.921 320.831 100.986 320.961 101.047 321.092L113.585 315.201ZM108.549 324.962C110.063 324.689 111.701 324.755 113.35 325.249L117.332 311.981C113.565 310.851 109.716 310.674 106.083 311.331L108.549 324.962ZM113.35 325.249C118.79 326.882 121.402 332.157 120.08 336.563L133.348 340.545C137.051 328.205 129.479 315.626 117.332 311.981L113.35 325.249ZM120.08 336.563C118.757 340.97 113.672 343.935 108.233 342.303L104.251 355.571C116.398 359.217 129.645 352.885 133.348 340.545L120.08 336.563ZM108.233 342.303C107.189 341.99 106.247 341.537 105.415 340.98L97.7076 352.491C99.678 353.81 101.875 354.858 104.251 355.571L108.233 342.303ZM89.0639 357.618C96.3458 359.803 104.283 356.665 107.735 349.874L95.387 343.596C95.1311 344.099 94.2544 344.712 93.0455 344.349L89.0639 357.618ZM77.799 340.42C76.6849 348.159 81.6409 355.39 89.0639 357.618L93.0455 344.349C91.8069 343.978 91.4299 342.953 91.5104 342.394L77.799 340.42ZM72.4529 351.758C79.384 353.838 86.8771 351.103 90.5778 344.998L78.7315 337.817C78.4381 338.301 77.5716 338.831 76.4345 338.49L72.4529 351.758ZM61.3378 339.729C62.4748 345.337 66.6875 350.028 72.4529 351.758L76.4345 338.49C75.516 338.214 75.0268 337.532 74.9143 336.976L61.3378 339.729ZM59.5024 344.801C62.9537 345.837 66.4946 345.884 69.7752 345.08L66.4768 331.626C65.56 331.85 64.5335 331.848 63.484 331.533L59.5024 344.801ZM46.5092 321.523C43.4735 331.639 49.6846 341.855 59.5024 344.801L63.484 331.533C60.3848 330.603 59.1192 327.698 59.7775 325.504L46.5092 321.523ZM48.6514 316.888C47.7377 318.298 47.0105 319.852 46.5092 321.523L59.7775 325.504C59.8971 325.106 60.0669 324.745 60.2773 324.42L48.6514 316.888ZM80.3951 333.874C80.2 334.152 80.0134 334.437 79.836 334.73L91.6823 341.911C91.6968 341.887 91.7122 341.863 91.7286 341.84L80.3951 333.874ZM82.7702 343.96C82.883 344.015 82.9963 344.069 83.1103 344.123L89.0135 331.591C88.9663 331.569 88.9194 331.546 88.8729 331.523L82.7702 343.96ZM92.6149 339.307C92.6663 338.95 92.7046 338.593 92.7302 338.237L78.9129 337.246C78.9108 337.275 78.9076 337.304 78.9034 337.333L92.6149 339.307Z" fill="#0A5F40" mask="url(#path-19-outside-9_442_8)"/>
</g>
<defs>
<clipPath id="clip0_442_8">
<rect width="400" height="400" fill="white"/>
</clipPath>
</defs>
</svg>
