<svg width="1000" height="1001" viewBox="0 0 1000 1001" fill="none" xmlns="http://www.w3.org/2000/svg">
<path d="M513.114 886.406L512.694 778.342L513.115 886.406C566.538 886.198 617.524 864.027 654.109 825.096L822.647 645.745C844.627 622.355 860.478 593.888 868.785 562.885L880.569 518.908C899.911 446.722 876.187 369.838 819.533 321.101L644.544 170.567C564.948 102.095 445.378 109.146 374.382 186.499L171.533 407.514C113.833 470.381 103.844 563.513 146.898 637.186L236.465 790.454C271.48 850.372 335.766 887.096 405.164 886.826L513.114 886.406Z" fill="#585858" stroke="#4E544D" stroke-width="216.13"/>
<path d="M533.222 485.519L649.377 484.549C655.272 484.499 661.135 483.669 666.812 482.08C718.288 467.67 732.785 401.615 692.074 366.974L527.714 227.118C524.199 224.127 520.062 221.956 515.604 220.761C504.503 217.786 492.666 221.174 484.819 229.571L319.376 406.611C275.652 453.399 306.65 529.941 370.61 533.12C380.627 533.618 390.642 532.108 400.066 528.679L504.388 490.725C513.633 487.362 523.385 485.601 533.222 485.519Z" fill="#4F564F"/>
</svg>
