<svg width="1000" height="1001" viewBox="0 0 1000 1001" fill="none" xmlns="http://www.w3.org/2000/svg">
<g clip-path="url(#clip0_524_1202)">
<path d="M914.538 907.373L939.175 896.381L935.841 869.61C912.786 684.492 812.53 540.095 700.861 437.468C589.798 335.399 464.738 272.089 385.269 249.503C369.306 244.556 344.538 236.161 322.056 227.07C310.692 222.475 300.48 217.93 292.496 213.776C285.621 210.199 282.464 207.95 281.556 207.303C281.384 207.181 281.293 207.115 281.272 207.11C281.012 206.78 280.02 205.484 278.182 202.474C276.017 198.925 273.628 194.602 270.474 188.875L270.177 188.335C264.233 177.543 256.29 163.121 246.125 149.042C225.121 119.951 191.404 87.9822 137.148 84.8591C115.304 83.6017 92.3288 85.7639 74.815 98.2642C65.1804 105.141 57.9154 114.707 54.2918 126.282C50.8211 137.368 51.3842 148.02 53.2962 156.724C56.9502 173.357 66.605 188.064 75.9654 199.096C85.7965 210.683 97.9832 221.362 110.745 229.644C112.881 231.03 118.464 236.157 126.97 247.713C134.899 258.487 143.556 272.318 152.406 287.99C169.585 318.411 186.237 353.521 198.28 381.523C231.647 506.287 317.645 674.1 439.149 793.234C562.046 913.734 728.646 990.31 914.538 907.373Z" fill="#5C5515" stroke="#494418" stroke-width="72.8437"/>
<path d="M738.033 656.748L826.301 791.79L741.366 784.233C691.611 756.978 588.477 699.209 573.983 686.179L573.982 686.178C555.861 669.888 447.154 572.164 415.987 537.595C391.053 509.938 349.302 462.36 331.544 442.028L289.651 335.571L361.373 354.182L738.033 656.748Z" fill="#655D19"/>
</g>
<defs>
<clipPath id="clip0_524_1202">
<rect width="1000" height="1000" fill="white" transform="translate(0 0.0273438)"/>
</clipPath>
</defs>
</svg>
