<svg width="501" height="501" viewBox="0 0 501 501" fill="none" xmlns="http://www.w3.org/2000/svg">
<g clip-path="url(#clip0_442_11)">
<path d="M174.722 134.922L109.552 60.6853L83.9563 60.8813L55.4792 95.7911L75.8053 122.546L127.297 164.55L163.103 209.746L182.074 231.036L215.284 262.487L246.267 287.76L270.242 236.097L220.059 195.161L195.852 169.6L174.722 134.922Z" fill="#664D3B" stroke="#624530" stroke-width="13.5154"/>
<mask id="path-2-outside-1_442_11" maskUnits="userSpaceOnUse" x="-14.9086" y="-51.0596" width="297.97" height="311.3" fill="black">
<rect fill="white" x="-14.9086" y="-51.0596" width="297.97" height="311.3"/>
<path fill-rule="evenodd" clip-rule="evenodd" d="M82.6114 181.937C72.4869 187.003 60.477 187.557 49.8283 182.384C31.1466 173.309 23.7283 150.047 33.2591 130.427C36.3924 123.977 40.9675 118.723 46.3615 114.899C45.2983 107.243 46.4472 99.098 50.1385 91.4991C57.7018 75.9294 73.6657 67.332 89.2705 68.9809C88.0667 62.6413 88.848 55.7785 91.9403 49.4127C98.5968 35.7099 113.683 29.0005 127.19 33.0206C127.452 30.5318 128.147 28.0321 129.313 25.6335C134.457 15.0435 146.808 10.4329 156.901 15.3354C165.462 19.4943 169.647 29.1635 167.579 38.4662C177.758 22.4449 197.906 15.9809 214.594 24.0873C232.61 32.8391 239.771 55.2593 230.587 74.1642C225.604 84.422 216.833 91.5372 206.974 94.5021C214.531 102.793 216.57 115.542 211.156 126.688C204.156 141.098 187.349 147.372 173.616 140.701C173.317 140.556 173.021 140.405 172.729 140.25C166.792 144.15 160.164 146.763 153.304 147.916C152.8 150.057 152.052 152.181 151.047 154.249C145.461 165.75 133.628 172.068 122.096 170.759C122.416 174.55 121.739 178.515 119.931 182.237C114.787 192.827 102.435 197.437 92.3433 192.535C87.7319 190.295 84.3902 186.456 82.6114 181.937ZM163.326 47.4419C163.06 47.7807 162.785 48.11 162.502 48.4297C162.658 48.4762 162.815 48.5236 162.971 48.5719C163.084 48.1945 163.202 47.8178 163.326 47.4419Z"/>
</mask>
<path fill-rule="evenodd" clip-rule="evenodd" d="M82.6114 181.937C72.4869 187.003 60.477 187.557 49.8283 182.384C31.1466 173.309 23.7283 150.047 33.2591 130.427C36.3924 123.977 40.9675 118.723 46.3615 114.899C45.2983 107.243 46.4472 99.098 50.1385 91.4991C57.7018 75.9294 73.6657 67.332 89.2705 68.9809C88.0667 62.6413 88.848 55.7785 91.9403 49.4127C98.5968 35.7099 113.683 29.0005 127.19 33.0206C127.452 30.5318 128.147 28.0321 129.313 25.6335C134.457 15.0435 146.808 10.4329 156.901 15.3354C165.462 19.4943 169.647 29.1635 167.579 38.4662C177.758 22.4449 197.906 15.9809 214.594 24.0873C232.61 32.8391 239.771 55.2593 230.587 74.1642C225.604 84.422 216.833 91.5372 206.974 94.5021C214.531 102.793 216.57 115.542 211.156 126.688C204.156 141.098 187.349 147.372 173.616 140.701C173.317 140.556 173.021 140.405 172.729 140.25C166.792 144.15 160.164 146.763 153.304 147.916C152.8 150.057 152.052 152.181 151.047 154.249C145.461 165.75 133.628 172.068 122.096 170.759C122.416 174.55 121.739 178.515 119.931 182.237C114.787 192.827 102.435 197.437 92.3433 192.535C87.7319 190.295 84.3902 186.456 82.6114 181.937ZM163.326 47.4419C163.06 47.7807 162.785 48.11 162.502 48.4297C162.658 48.4762 162.815 48.5236 162.971 48.5719C163.084 48.1945 163.202 47.8178 163.326 47.4419Z" fill="#296C38"/>
<path d="M82.6114 181.937L95.1875 176.987L89.776 163.24L76.5636 169.851L82.6114 181.937ZM49.8283 182.384L43.9228 194.541L43.9228 194.541L49.8283 182.384ZM33.2591 130.427L45.4161 136.332L45.4161 136.332L33.2591 130.427ZM46.3615 114.899L54.1783 125.925L60.8782 121.175L59.7485 113.04L46.3615 114.899ZM50.1385 91.4991L62.2955 97.4046L62.2955 97.4046L50.1385 91.4991ZM89.2705 68.9809L87.8503 82.4215L105.943 84.3332L102.549 66.4595L89.2705 68.9809ZM91.9403 49.4127L104.097 55.3182L104.097 55.3182L91.9403 49.4127ZM127.19 33.0206L123.335 45.9745L138.931 50.6164L140.632 34.433L127.19 33.0206ZM129.313 25.6335L141.47 31.539L141.47 31.539L129.313 25.6335ZM156.901 15.3354L162.806 3.17836L162.806 3.17835L156.901 15.3354ZM167.579 38.4662L154.386 35.533L178.987 45.7138L167.579 38.4662ZM214.594 24.0873L220.499 11.9303L220.499 11.9303L214.594 24.0873ZM230.587 74.1642L218.43 68.2587L218.43 68.2587L230.587 74.1642ZM206.974 94.5021L203.082 81.5592L182.524 87.7412L196.985 103.607L206.974 94.5021ZM211.156 126.688L223.313 132.594L223.313 132.594L211.156 126.688ZM173.616 140.701L179.522 128.544L179.522 128.544L173.616 140.701ZM172.729 140.25L179.082 128.32L172.006 124.552L165.307 128.954L172.729 140.25ZM153.304 147.916L151.064 134.588L142.206 136.077L140.148 144.82L153.304 147.916ZM151.047 154.249L138.89 148.344L138.89 148.344L151.047 154.249ZM122.096 170.759L123.62 157.33L107.24 155.471L108.629 171.897L122.096 170.759ZM119.931 182.237L132.088 188.142L132.088 188.142L119.931 182.237ZM92.3433 192.535L86.4378 204.692L92.3433 192.535ZM162.502 48.4297L152.38 39.4731L138.332 55.3488L158.653 61.3856L162.502 48.4297ZM163.326 47.4419L176.16 51.6784L152.698 39.0917L163.326 47.4419ZM162.971 48.5719L158.987 61.4866L172.034 65.5122L175.926 52.424L162.971 48.5719ZM76.5636 169.851C69.8957 173.187 62.3116 173.422 55.7337 170.227L43.9228 194.541C58.6425 201.691 75.078 200.82 88.6591 194.024L76.5636 169.851ZM55.7337 170.227C44.3207 164.683 38.8707 149.806 45.4161 136.332L21.1021 124.521C8.58585 150.287 17.9724 181.935 43.9228 194.541L55.7337 170.227ZM45.4161 136.332C47.5423 131.955 50.6123 128.453 54.1783 125.925L38.5447 103.873C31.3227 108.993 25.2426 115.998 21.1021 124.521L45.4161 136.332ZM37.9815 85.5937C33.1019 95.6388 31.5486 106.491 32.9745 116.758L59.7485 113.04C59.048 107.996 59.7925 102.557 62.2955 97.4046L37.9815 85.5937ZM90.6907 55.5402C69.263 53.276 47.9601 65.0517 37.9815 85.5937L62.2955 97.4046C67.4434 86.8071 78.0685 81.3879 87.8503 82.4215L90.6907 55.5402ZM79.7833 43.5072C75.4005 52.5297 74.2548 62.3518 75.9923 71.5022L102.549 66.4595C101.879 62.9308 102.296 59.0273 104.097 55.3182L79.7833 43.5072ZM131.046 20.0667C110.845 14.0544 89.1689 24.1862 79.7833 43.5072L104.097 55.3182C108.025 47.2335 116.521 43.9465 123.335 45.9745L131.046 20.0667ZM117.156 19.728C115.298 23.5517 114.173 27.5733 113.749 31.6083L140.632 34.433C140.731 33.4903 140.997 32.5125 141.47 31.539L117.156 19.728ZM162.806 3.17835C145.455 -5.2503 125.29 2.98217 117.156 19.728L141.47 31.539C143.624 27.1049 148.162 26.1161 150.995 27.4923L162.806 3.17835ZM180.772 41.3993C184.075 26.5422 177.495 10.314 162.806 3.17836L150.995 27.4923C153.429 28.6745 155.219 31.7847 154.386 35.533L180.772 41.3993ZM220.499 11.9303C197.104 0.565823 169.711 9.90647 156.171 31.2185L178.987 45.7138C185.804 34.9834 198.708 31.396 208.688 36.2443L220.499 11.9303ZM242.744 80.0697C254.918 55.0089 245.775 24.2083 220.499 11.9303L208.688 36.2443C219.446 41.4698 224.623 55.5097 218.43 68.2587L242.744 80.0697ZM210.866 107.445C224.302 103.405 236.092 93.7637 242.744 80.0697L218.43 68.2587C215.116 75.0804 209.365 79.6697 203.082 81.5592L210.866 107.445ZM223.313 132.594C231.088 116.588 228.332 97.8708 216.963 85.3974L196.985 103.607C200.73 107.715 202.053 114.496 198.999 120.783L223.313 132.594ZM167.711 152.858C188.703 163.055 213.323 153.16 223.313 132.594L198.999 120.783C194.989 129.037 185.995 131.689 179.522 128.544L167.711 152.858ZM166.376 152.179C166.816 152.413 167.261 152.639 167.711 152.858L179.522 128.544C179.373 128.472 179.226 128.397 179.082 128.32L166.376 152.179ZM155.545 161.245C164.288 159.775 172.676 156.457 180.151 151.545L165.307 128.954C160.909 131.844 156.041 133.751 151.064 134.588L155.545 161.245ZM163.204 160.155C164.647 157.185 165.729 154.119 166.46 151.013L140.148 144.82C139.872 145.995 139.458 147.176 138.89 148.344L163.204 160.155ZM120.572 184.188C137.961 186.162 155.186 176.661 163.204 160.155L138.89 148.344C135.735 154.839 129.294 157.974 123.62 157.33L120.572 184.188ZM132.088 188.142C134.975 182.2 136.085 175.798 135.563 169.621L108.629 171.897C108.747 173.301 108.504 174.829 107.774 176.331L132.088 188.142ZM86.4378 204.692C103.789 213.121 123.954 204.888 132.088 188.142L107.774 176.331C105.62 180.766 101.082 181.754 98.2488 180.378L86.4378 204.692ZM70.0352 186.888C72.9771 194.362 78.5911 200.88 86.4378 204.692L98.2488 180.378C96.8728 179.71 95.8033 178.551 95.1875 176.987L70.0352 186.888ZM172.623 57.3864C173.08 56.8699 173.524 56.3383 173.953 55.7921L152.698 39.0917C152.595 39.223 152.489 39.3502 152.38 39.4731L172.623 57.3864ZM166.956 35.6572C166.755 35.5951 166.553 35.534 166.351 35.4738L158.653 61.3856C158.764 61.4185 158.875 61.4521 158.987 61.4866L166.956 35.6572ZM150.491 43.2053C150.325 43.709 150.167 44.2139 150.016 44.7198L175.926 52.424C176 52.1751 176.078 51.9266 176.16 51.6784L150.491 43.2053Z" fill="#07573A" mask="url(#path-2-outside-1_442_11)"/>
<mask id="path-4-outside-2_442_11" maskUnits="userSpaceOnUse" x="32.9797" y="11.8297" width="183.726" height="195.325" fill="black">
<rect fill="white" x="32.9797" y="11.8297" width="183.726" height="195.325"/>
<path fill-rule="evenodd" clip-rule="evenodd" d="M156.817 68.5994C160.817 61.0256 169.834 57.7952 177.227 61.3888C184.784 65.062 187.783 74.4735 183.926 82.4101C182.465 85.4154 180.231 87.7782 177.608 89.3548C178.298 93.8184 177.664 98.5925 175.504 103.038C170.07 114.217 157.037 119.085 146.393 113.911C146.296 113.864 146.201 113.817 146.105 113.769C145.67 115.105 145.138 116.429 144.505 117.732C142.185 122.504 138.803 126.393 134.815 129.229C135.607 132.947 135.193 137.006 133.368 140.762C129.17 149.399 119.094 153.157 110.862 149.157C108.096 147.812 105.891 145.763 104.34 143.306C99.0519 148.389 91.5815 150.525 84.6121 148.712C81.6307 154.625 74.6705 157.175 68.9747 154.406C63.2247 151.611 60.9408 144.454 63.8735 138.421C65.2022 135.687 67.3736 133.653 69.8861 132.506C69.0894 128.061 69.6626 123.267 71.8262 118.816C75.0797 112.122 81.164 107.778 87.7679 106.646C87.4907 103.664 88.0105 100.536 89.4358 97.6041C90.8913 94.6094 93.0902 92.2318 95.6762 90.604C100.321 83.0396 107.816 78.154 115.872 76.8011C116.16 75.5814 116.586 74.3712 117.159 73.1924C120.383 66.5594 127.254 62.9533 133.901 63.8182C137.143 58.6763 143.594 56.5972 148.934 59.1927C151.57 60.4741 153.478 62.6726 154.488 65.2593C155.465 66.2263 156.248 67.3606 156.817 68.5994Z"/>
</mask>
<path fill-rule="evenodd" clip-rule="evenodd" d="M156.817 68.5994C160.817 61.0256 169.834 57.7952 177.227 61.3888C184.784 65.062 187.783 74.4735 183.926 82.4101C182.465 85.4154 180.231 87.7782 177.608 89.3548C178.298 93.8184 177.664 98.5925 175.504 103.038C170.07 114.217 157.037 119.085 146.393 113.911C146.296 113.864 146.201 113.817 146.105 113.769C145.67 115.105 145.138 116.429 144.505 117.732C142.185 122.504 138.803 126.393 134.815 129.229C135.607 132.947 135.193 137.006 133.368 140.762C129.17 149.399 119.094 153.157 110.862 149.157C108.096 147.812 105.891 145.763 104.34 143.306C99.0519 148.389 91.5815 150.525 84.6121 148.712C81.6307 154.625 74.6705 157.175 68.9747 154.406C63.2247 151.611 60.9408 144.454 63.8735 138.421C65.2022 135.687 67.3736 133.653 69.8861 132.506C69.0894 128.061 69.6626 123.267 71.8262 118.816C75.0797 112.122 81.164 107.778 87.7679 106.646C87.4907 103.664 88.0105 100.536 89.4358 97.6041C90.8913 94.6094 93.0902 92.2318 95.6762 90.604C100.321 83.0396 107.816 78.154 115.872 76.8011C116.16 75.5814 116.586 74.3712 117.159 73.1924C120.383 66.5594 127.254 62.9533 133.901 63.8182C137.143 58.6763 143.594 56.5972 148.934 59.1927C151.57 60.4741 153.478 62.6726 154.488 65.2593C155.465 66.2263 156.248 67.3606 156.817 68.5994Z" fill="#2E7E40"/>
<path d="M156.817 68.5994L144.537 74.2435L155.977 99.1352L168.769 74.9105L156.817 68.5994ZM177.227 61.3888L171.319 73.5444L171.319 73.5444L177.227 61.3888ZM183.926 82.4101L196.081 88.3184L196.081 88.3184L183.926 82.4101ZM177.608 89.3548L170.645 77.7709L162.864 82.4481L164.251 91.4203L177.608 89.3548ZM175.504 103.038L163.348 97.1297L163.348 97.1297L175.504 103.038ZM146.393 113.911L140.484 126.067L140.485 126.067L146.393 113.911ZM146.105 113.769L152.2 101.705L138.13 94.5964L133.253 109.587L146.105 113.769ZM144.505 117.732L132.349 111.824L132.349 111.824L144.505 117.732ZM134.815 129.229L126.982 118.215L119.746 123.361L121.596 132.045L134.815 129.229ZM133.368 140.762L121.212 134.853L121.212 134.853L133.368 140.762ZM110.862 149.157L116.771 137.001L116.771 137.001L110.862 149.157ZM104.34 143.306L115.77 136.093L106.925 122.077L94.9749 133.562L104.34 143.306ZM84.6121 148.712L88.0145 135.632L77.4558 132.885L72.5439 142.627L84.6121 148.712ZM68.9747 154.406L63.0664 166.562L63.0664 166.562L68.9747 154.406ZM63.8735 138.421L51.7179 132.512L51.7179 132.513L63.8735 138.421ZM69.8861 132.506L75.5004 144.8L85.0396 140.444L83.1896 130.122L69.8861 132.506ZM71.8262 118.816L59.6706 112.908L59.6706 112.908L71.8262 118.816ZM87.7679 106.646L90.0519 119.967L102.383 117.853L101.225 105.395L87.7679 106.646ZM89.4358 97.6041L77.2801 91.6957L77.2801 91.6957L89.4358 97.6041ZM95.6762 90.604L102.876 102.042L105.544 100.362L107.194 97.6757L95.6762 90.604ZM115.872 76.8011L118.111 90.1299L126.968 88.6425L129.028 79.9004L115.872 76.8011ZM117.159 73.1924L129.315 79.1008L129.315 79.1008L117.159 73.1924ZM133.901 63.8182L132.157 77.2206L140.725 78.3355L145.334 71.0267L133.901 63.8182ZM148.934 59.1927L143.026 71.3483L143.026 71.3483L148.934 59.1927ZM154.488 65.2593L141.899 70.1765L142.942 72.8469L144.979 74.8639L154.488 65.2593ZM168.769 74.9105C169.167 74.1569 169.749 73.7282 170.269 73.5438C170.769 73.3665 171.097 73.4366 171.319 73.5444L183.136 49.2332C168.638 42.1862 151.976 48.8236 144.866 62.2884L168.769 74.9105ZM171.319 73.5444C171.543 73.6534 171.812 73.8766 171.98 74.404C172.153 74.9467 172.162 75.6962 171.77 76.5018L196.081 88.3184C202.926 74.2367 197.961 56.439 183.136 49.2332L171.319 73.5444ZM171.77 76.5018C171.472 77.1161 171.058 77.5225 170.645 77.7709L184.57 100.939C189.403 98.034 193.459 93.7146 196.081 88.3184L171.77 76.5018ZM187.659 108.946C191.041 101.989 192.068 94.4288 190.964 87.2894L164.251 91.4203C164.527 93.2081 164.288 95.1963 163.348 97.1297L187.659 108.946ZM140.485 126.067C158.396 134.773 179.239 126.27 187.659 108.946L163.348 97.1297C160.901 102.163 155.677 103.396 152.301 101.755L140.485 126.067ZM140.01 125.832C140.168 125.911 140.326 125.989 140.484 126.067L152.301 101.756C152.267 101.739 152.234 101.722 152.2 101.705L140.01 125.832ZM156.66 123.64C157.566 121.778 158.331 119.876 158.958 117.95L133.253 109.587C133.01 110.334 132.71 111.081 132.349 111.824L156.66 123.64ZM142.647 140.244C148.455 136.113 153.337 130.478 156.66 123.64L132.349 111.824C131.034 114.529 129.151 116.673 126.982 118.215L142.647 140.244ZM145.523 146.67C148.686 140.164 149.443 133.03 148.033 126.413L121.596 132.045C121.77 132.865 121.7 133.849 121.212 134.853L145.523 146.67ZM104.954 161.312C120.443 168.841 138.333 161.462 145.523 146.67L121.212 134.853C120.006 137.335 117.744 137.474 116.771 137.001L104.954 161.312ZM92.9108 150.519C95.7493 155.017 99.8308 158.822 104.954 161.312L116.771 137.001C116.362 136.802 116.032 136.508 115.77 136.093L92.9108 150.519ZM81.2097 161.792C93.0196 164.864 105.255 161.173 113.706 153.051L94.9749 133.562C92.8484 135.606 90.1434 136.185 88.0145 135.632L81.2097 161.792ZM63.0664 166.562C75.9494 172.824 90.6514 166.754 96.6802 154.797L72.5439 142.627C72.6212 142.474 72.817 142.25 73.179 142.118C73.558 141.979 74.2149 141.926 74.883 142.251L63.0664 166.562ZM51.7179 132.513C45.7934 144.701 50.0581 160.239 63.0664 166.562L74.8831 142.251C75.5588 142.579 75.9214 143.136 76.0438 143.519C76.1614 143.888 76.1016 144.18 76.0291 144.329L51.7179 132.513ZM64.2718 120.212C58.9478 122.643 54.4403 126.912 51.7179 132.512L76.0291 144.329C75.964 144.463 75.7994 144.664 75.5004 144.8L64.2718 120.212ZM59.6706 112.908C56.2365 119.973 55.2893 127.674 56.5827 134.89L83.1896 130.122C82.8896 128.448 83.0887 126.562 83.9818 124.724L59.6706 112.908ZM85.4839 93.3249C74.6021 95.1906 64.8346 102.283 59.6706 112.908L83.9818 124.724C85.3248 121.961 87.7259 120.366 90.0519 119.967L85.4839 93.3249ZM77.2801 91.6957C74.7583 96.8842 73.808 102.491 74.3104 107.897L101.225 105.395C101.173 104.836 101.263 104.189 101.591 103.512L77.2801 91.6957ZM88.4763 79.1659C83.7874 82.1174 79.8558 86.3966 77.2801 91.6957L101.591 103.512C101.927 102.822 102.393 102.346 102.876 102.042L88.4763 79.1659ZM113.634 63.4722C101.717 65.4734 90.8424 72.6461 84.1585 83.5323L107.194 97.6757C109.799 93.433 113.914 90.8347 118.111 90.1299L113.634 63.4722ZM105.004 67.2841C103.993 69.3637 103.232 71.5164 102.717 73.7017L129.028 79.9004C129.088 79.6464 129.18 79.3786 129.315 79.1008L105.004 67.2841ZM135.645 50.4157C123.057 48.7779 110.689 55.5883 105.004 67.2841L129.315 79.1008C130.078 77.5306 131.451 77.1288 132.157 77.2206L135.645 50.4157ZM154.842 47.037C142.778 41.1734 129.063 46.1501 122.468 56.6096L145.334 71.0267C145.229 71.192 145.018 71.3932 144.657 71.5057C144.268 71.6271 143.645 71.6493 143.026 71.3483L154.842 47.037ZM167.078 60.3422C164.908 54.7887 160.725 49.8965 154.842 47.037L143.026 71.3483C142.415 71.0517 142.048 70.5565 141.899 70.1765L167.078 60.3422ZM169.098 62.9554C167.872 60.2889 166.166 57.8014 163.997 55.6547L144.979 74.8639C144.765 74.6511 144.624 74.4323 144.537 74.2435L169.098 62.9554Z" fill="#0A5F40" mask="url(#path-4-outside-2_442_11)"/>
<mask id="path-6-outside-3_442_11" maskUnits="userSpaceOnUse" x="272.085" y="292.219" width="205.536" height="198.743" fill="black">
<rect fill="white" x="272.085" y="292.219" width="205.536" height="198.743"/>
<path fill-rule="evenodd" clip-rule="evenodd" d="M423.367 441.004C423.665 441.814 423.921 442.65 424.132 443.509C427.065 455.434 420.231 467.366 408.867 470.162C403.273 471.538 397.625 470.443 392.982 467.555C390.342 470.368 386.927 472.457 382.961 473.432C372.35 476.042 361.542 469.763 357.769 459.212C355.69 460.155 353.499 460.919 351.209 461.482C334.414 465.613 317.351 457.705 308.387 443.106C299.773 442.008 292.209 435.456 289.919 426.148C286.986 414.224 293.82 402.291 305.184 399.496C306.107 399.269 307.031 399.109 307.952 399.014C310.821 394.258 314.645 390.138 319.232 386.987C316.56 383.592 314.538 379.556 313.428 375.043L313.404 374.945C311.224 372.344 309.579 369.189 308.704 365.632C305.771 353.707 312.606 341.775 323.97 338.98C327.212 338.182 330.473 338.215 333.546 338.945C333.763 338.887 333.981 338.83 334.2 338.776C337.115 338.059 340.041 337.835 342.896 338.053C345.237 336.141 347.759 334.435 350.446 332.967C355.421 324.831 363.311 318.653 373.073 316.252C383.185 313.765 393.398 315.8 401.747 321.104C404.175 314.831 409.36 309.872 416.172 308.196C427.536 305.401 439.126 312.802 442.059 324.726C442.693 327.304 442.871 329.883 442.645 332.369C450.413 334.149 457.009 340.389 459.121 348.972C461.52 358.725 457.384 368.484 449.581 373.244C448.282 378.74 445.896 383.859 442.611 388.272C447.017 392.267 450.352 397.647 451.905 403.959C455.896 420.185 446.596 436.422 431.133 440.225C428.534 440.865 425.926 441.112 423.367 441.004Z"/>
</mask>
<path fill-rule="evenodd" clip-rule="evenodd" d="M423.367 441.004C423.665 441.814 423.921 442.65 424.132 443.509C427.065 455.434 420.231 467.366 408.867 470.162C403.273 471.538 397.625 470.443 392.982 467.555C390.342 470.368 386.927 472.457 382.961 473.432C372.35 476.042 361.542 469.763 357.769 459.212C355.69 460.155 353.499 460.919 351.209 461.482C334.414 465.613 317.351 457.705 308.387 443.106C299.773 442.008 292.209 435.456 289.919 426.148C286.986 414.224 293.82 402.291 305.184 399.496C306.107 399.269 307.031 399.109 307.952 399.014C310.821 394.258 314.645 390.138 319.232 386.987C316.56 383.592 314.538 379.556 313.428 375.043L313.404 374.945C311.224 372.344 309.579 369.189 308.704 365.632C305.771 353.707 312.606 341.775 323.97 338.98C327.212 338.182 330.473 338.215 333.546 338.945C333.763 338.887 333.981 338.83 334.2 338.776C337.115 338.059 340.041 337.835 342.896 338.053C345.237 336.141 347.759 334.435 350.446 332.967C355.421 324.831 363.311 318.653 373.073 316.252C383.185 313.765 393.398 315.8 401.747 321.104C404.175 314.831 409.36 309.872 416.172 308.196C427.536 305.401 439.126 312.802 442.059 324.726C442.693 327.304 442.871 329.883 442.645 332.369C450.413 334.149 457.009 340.389 459.121 348.972C461.52 358.725 457.384 368.484 449.581 373.244C448.282 378.74 445.896 383.859 442.611 388.272C447.017 392.267 450.352 397.647 451.905 403.959C455.896 420.185 446.596 436.422 431.133 440.225C428.534 440.865 425.926 441.112 423.367 441.004Z" fill="#296C38"/>
<path d="M424.132 443.509L411.008 446.738L411.008 446.738L424.132 443.509ZM423.367 441.004L423.936 427.501L403.686 426.646L410.682 445.669L423.367 441.004ZM408.867 470.162L405.639 457.037L408.867 470.162ZM392.982 467.555L400.119 456.078L390.71 450.226L383.127 458.306L392.982 467.555ZM382.961 473.432L386.189 486.556L386.189 486.556L382.961 473.432ZM357.769 459.212L370.494 454.66L365.552 440.841L352.186 446.903L357.769 459.212ZM351.209 461.482L354.437 474.606L351.209 461.482ZM308.387 443.106L319.905 436.034L316.517 430.517L310.095 429.698L308.387 443.106ZM289.919 426.148L303.043 422.92L303.043 422.92L289.919 426.148ZM305.184 399.496L301.956 386.372L301.956 386.372L305.184 399.496ZM307.952 399.014L309.347 412.457L316.046 411.762L319.525 405.995L307.952 399.014ZM319.232 386.987L326.884 398.128L338.775 389.961L329.851 378.626L319.232 386.987ZM313.428 375.043L300.299 378.251L300.301 378.261L300.304 378.271L313.428 375.043ZM313.404 374.945L326.533 371.737L325.786 368.678L323.764 366.265L313.404 374.945ZM308.704 365.632L321.828 362.404L321.828 362.404L308.704 365.632ZM323.97 338.98L327.198 352.104L327.198 352.104L323.97 338.98ZM333.546 338.945L330.419 352.094L333.768 352.891L337.089 351.988L333.546 338.945ZM334.2 338.776L330.972 325.652L330.971 325.652L334.2 338.776ZM342.896 338.053L341.871 351.529L347.261 351.939L351.448 348.519L342.896 338.053ZM350.446 332.967L356.925 344.829L360.093 343.098L361.976 340.018L350.446 332.967ZM373.073 316.252L369.845 303.128L369.845 303.128L373.073 316.252ZM401.747 321.104L394.499 332.512L408.403 341.345L414.35 325.983L401.747 321.104ZM416.172 308.196L419.4 321.32L419.4 321.32L416.172 308.196ZM442.059 324.726L428.935 327.954L428.935 327.954L442.059 324.726ZM442.645 332.369L429.185 331.145L428.116 342.905L439.625 345.543L442.645 332.369ZM459.121 348.972L445.996 352.2L445.996 352.2L459.121 348.972ZM449.581 373.244L442.543 361.705L437.725 364.644L436.427 370.135L449.581 373.244ZM442.611 388.272L431.769 380.203L424.444 390.045L433.533 398.285L442.611 388.272ZM451.905 403.959L465.029 400.731L451.905 403.959ZM431.133 440.225L434.361 453.35L434.361 453.35L431.133 440.225ZM437.256 440.281C436.925 438.934 436.522 437.619 436.051 436.339L410.682 445.669C410.807 446.009 410.917 446.366 411.008 446.738L437.256 440.281ZM412.095 483.286C431.296 478.563 441.824 458.851 437.256 440.281L411.008 446.738C412.306 452.016 409.166 456.17 405.639 457.037L412.095 483.286ZM385.844 479.032C393.367 483.711 402.73 485.59 412.095 483.286L405.639 457.037C403.817 457.485 401.883 457.175 400.119 456.078L385.844 479.032ZM386.189 486.556C392.802 484.93 398.487 481.438 402.836 476.804L383.127 458.306C382.196 459.297 381.053 459.983 379.733 460.308L386.189 486.556ZM345.043 463.764C350.947 480.27 368.278 490.962 386.189 486.556L379.733 460.308C376.423 461.122 372.138 459.255 370.494 454.66L345.043 463.764ZM354.437 474.606C357.54 473.843 360.519 472.805 363.351 471.521L352.186 446.903C350.861 447.504 349.458 447.995 347.98 448.358L354.437 474.606ZM296.87 450.177C308.623 469.32 331.42 480.268 354.437 474.606L347.98 448.358C337.409 450.958 326.079 446.089 319.905 436.034L296.87 450.177ZM276.795 429.377C280.386 443.977 292.384 454.692 306.679 456.513L310.095 429.698C307.162 429.325 304.031 426.936 303.043 422.92L276.795 429.377ZM301.956 386.372C282.756 391.095 272.227 410.806 276.795 429.377L303.043 422.92C301.745 417.641 304.885 413.488 308.413 412.62L301.956 386.372ZM306.557 385.571C305.02 385.73 303.484 385.996 301.956 386.372L308.413 412.62C308.73 412.542 309.042 412.489 309.347 412.457L306.557 385.571ZM311.581 375.846C305.346 380.128 300.207 385.688 296.379 392.032L319.525 405.995C321.435 402.828 323.943 400.148 326.884 398.128L311.581 375.846ZM300.304 378.271C301.879 384.676 304.764 390.459 308.613 395.348L329.851 378.626C328.355 376.726 327.197 374.435 326.552 371.814L300.304 378.271ZM300.275 378.154L300.299 378.251L326.557 371.834L326.533 371.737L300.275 378.154ZM295.58 368.86C296.954 374.448 299.557 379.463 303.045 383.626L323.764 366.265C322.892 365.225 322.204 363.93 321.828 362.404L295.58 368.86ZM320.741 325.855C301.541 330.578 291.012 350.29 295.58 368.86L321.828 362.404C320.53 357.125 323.67 352.971 327.198 352.104L320.741 325.855ZM336.673 325.797C331.578 324.585 326.137 324.528 320.741 325.855L327.198 352.104C328.287 351.836 329.368 351.844 330.419 352.094L336.673 325.797ZM330.971 325.652C330.647 325.732 330.324 325.816 330.003 325.903L337.089 351.988C337.202 351.958 337.315 351.928 337.428 351.9L330.971 325.652ZM343.922 324.576C339.662 324.252 335.299 324.588 330.972 325.652L337.428 351.9C338.93 351.531 340.42 351.419 341.871 351.529L343.922 324.576ZM343.967 321.106C340.536 322.98 337.321 325.155 334.345 327.586L351.448 348.519C353.152 347.126 354.982 345.89 356.925 344.829L343.967 321.106ZM369.845 303.128C356.398 306.435 345.625 314.944 338.916 325.916L361.976 340.018C365.217 334.718 370.224 330.871 376.301 329.376L369.845 303.128ZM408.994 309.696C397.75 302.553 383.778 299.7 369.845 303.128L376.301 329.376C382.592 327.829 389.046 329.047 394.499 332.512L408.994 309.696ZM412.944 295.072C401.506 297.885 393.032 306.177 389.143 316.224L414.35 325.983C415.318 323.485 417.213 321.858 419.4 321.32L412.944 295.072ZM455.183 321.498C450.615 302.928 432.144 290.349 412.944 295.072L419.4 321.32C422.927 320.453 427.636 322.675 428.935 327.954L455.183 321.498ZM456.105 333.593C456.465 329.627 456.178 325.544 455.183 321.498L428.935 327.954C429.208 329.064 429.276 330.138 429.185 331.145L456.105 333.593ZM472.245 345.743C468.929 332.263 458.469 322.13 445.664 319.195L439.625 345.543C442.357 346.169 445.09 348.514 445.996 352.2L472.245 345.743ZM456.619 384.782C469.621 376.851 476.004 361.026 472.245 345.743L445.996 352.2C447.035 356.423 445.147 360.116 442.543 361.705L456.619 384.782ZM436.427 370.135C435.547 373.859 433.94 377.286 431.769 380.203L453.453 396.341C457.852 390.431 461.016 383.62 462.734 376.352L436.427 370.135ZM465.029 400.731C462.823 391.764 458.058 384.033 451.689 378.259L433.533 398.285C435.976 400.5 437.881 403.531 438.78 407.187L465.029 400.731ZM434.361 453.35C457.661 447.618 470.655 423.602 465.029 400.731L438.78 407.187C441.137 416.767 435.531 425.225 427.905 427.101L434.361 453.35ZM422.797 454.507C426.617 454.669 430.504 454.298 434.361 453.35L427.905 427.101C426.563 427.431 425.235 427.555 423.936 427.501L422.797 454.507Z" fill="#07573A" mask="url(#path-6-outside-3_442_11)"/>
<mask id="path-8-outside-4_442_11" maskUnits="userSpaceOnUse" x="308.157" y="327.854" width="132.556" height="127.704" fill="black">
<rect fill="white" x="308.157" y="327.854" width="132.556" height="127.704"/>
<path fill-rule="evenodd" clip-rule="evenodd" d="M403.063 420.395C403.237 420.867 403.387 421.355 403.51 421.856C405.221 428.812 401.234 435.773 394.605 437.404C391.342 438.206 388.047 437.568 385.338 435.884C383.798 437.525 381.806 438.743 379.493 439.312C373.303 440.835 366.998 437.172 364.796 431.017C363.584 431.567 362.306 432.012 360.971 432.341C351.174 434.75 341.22 430.137 335.991 421.621C330.964 420.982 326.55 417.16 325.214 411.729C323.503 404.772 327.49 397.811 334.119 396.181C334.658 396.048 335.198 395.955 335.736 395.899C337.409 393.125 339.64 390.721 342.316 388.884C340.756 386.903 339.577 384.548 338.93 381.916L338.916 381.862C337.644 380.343 336.683 378.502 336.172 376.426C334.461 369.47 338.448 362.508 345.077 360.878C346.969 360.412 348.872 360.432 350.665 360.858C350.792 360.824 350.919 360.791 351.047 360.759C352.747 360.341 354.454 360.21 356.119 360.337C357.484 359.221 358.956 358.226 360.523 357.37C363.426 352.624 368.028 349.02 373.723 347.619C379.622 346.168 385.58 347.355 390.45 350.449C391.867 346.79 394.891 343.897 398.865 342.92C405.495 341.289 412.256 345.606 413.967 352.563C414.337 354.066 414.44 355.57 414.309 357.021C418.841 358.059 422.689 361.699 423.921 366.706C425.32 372.396 422.908 378.089 418.355 380.866C417.597 384.072 416.205 387.058 414.289 389.633C416.86 391.963 418.805 395.102 419.711 398.784C422.039 408.25 416.614 417.722 407.593 419.941C406.077 420.314 404.556 420.458 403.063 420.395Z"/>
</mask>
<path fill-rule="evenodd" clip-rule="evenodd" d="M403.063 420.395C403.237 420.867 403.387 421.355 403.51 421.856C405.221 428.812 401.234 435.773 394.605 437.404C391.342 438.206 388.047 437.568 385.338 435.884C383.798 437.525 381.806 438.743 379.493 439.312C373.303 440.835 366.998 437.172 364.796 431.017C363.584 431.567 362.306 432.012 360.971 432.341C351.174 434.75 341.22 430.137 335.991 421.621C330.964 420.982 326.55 417.16 325.214 411.729C323.503 404.772 327.49 397.811 334.119 396.181C334.658 396.048 335.198 395.955 335.736 395.899C337.409 393.125 339.64 390.721 342.316 388.884C340.756 386.903 339.577 384.548 338.93 381.916L338.916 381.862C337.644 380.343 336.683 378.502 336.172 376.426C334.461 369.47 338.448 362.508 345.077 360.878C346.969 360.412 348.872 360.432 350.665 360.858C350.792 360.824 350.919 360.791 351.047 360.759C352.747 360.341 354.454 360.21 356.119 360.337C357.484 359.221 358.956 358.226 360.523 357.37C363.426 352.624 368.028 349.02 373.723 347.619C379.622 346.168 385.58 347.355 390.45 350.449C391.867 346.79 394.891 343.897 398.865 342.92C405.495 341.289 412.256 345.606 413.967 352.563C414.337 354.066 414.44 355.57 414.309 357.021C418.841 358.059 422.689 361.699 423.921 366.706C425.32 372.396 422.908 378.089 418.355 380.866C417.597 384.072 416.205 387.058 414.289 389.633C416.86 391.963 418.805 395.102 419.711 398.784C422.039 408.25 416.614 417.722 407.593 419.941C406.077 420.314 404.556 420.458 403.063 420.395Z" fill="#2E7E40"/>
<path d="M403.51 421.856L390.386 425.084L390.386 425.084L403.51 421.856ZM403.063 420.395L403.633 406.892L383.384 406.038L390.378 425.059L403.063 420.395ZM394.605 437.404L397.833 450.528L397.833 450.528L394.605 437.404ZM385.338 435.884L392.476 424.406L383.066 418.555L375.483 426.635L385.338 435.884ZM379.493 439.312L376.264 426.188L379.493 439.312ZM364.796 431.017L377.522 426.465L372.58 412.647L359.215 418.708L364.796 431.017ZM360.971 432.341L357.742 419.216L357.742 419.216L360.971 432.341ZM335.991 421.621L347.508 414.549L344.12 409.031L337.695 408.214L335.991 421.621ZM325.214 411.729L312.09 414.957L312.09 414.957L325.214 411.729ZM334.119 396.181L330.891 383.056L330.891 383.056L334.119 396.181ZM335.736 395.899L337.129 409.343L343.829 408.648L347.309 402.88L335.736 395.899ZM342.316 388.884L349.968 400.024L361.858 391.857L352.935 380.523L342.316 388.884ZM338.93 381.916L325.801 385.125L325.803 385.134L325.805 385.144L338.93 381.916ZM338.916 381.862L352.045 378.652L351.297 375.592L349.273 373.178L338.916 381.862ZM336.172 376.426L349.296 373.198L349.296 373.198L336.172 376.426ZM345.077 360.878L341.849 347.754L341.849 347.754L345.077 360.878ZM350.665 360.858L347.537 374.007L350.887 374.803L354.21 373.9L350.665 360.858ZM351.047 360.759L347.819 347.635L347.819 347.635L351.047 360.759ZM356.119 360.337L355.095 373.813L360.485 374.223L364.671 370.803L356.119 360.337ZM360.523 357.37L367.002 369.231L370.17 367.501L372.054 364.421L360.523 357.37ZM373.723 347.619L370.495 334.495L370.495 334.495L373.723 347.619ZM390.45 350.449L383.203 361.857L397.107 370.69L403.054 355.329L390.45 350.449ZM398.865 342.92L395.637 329.796L395.637 329.796L398.865 342.92ZM413.967 352.563L427.091 349.335L427.091 349.335L413.967 352.563ZM414.309 357.021L400.849 355.798L399.78 367.557L411.29 370.195L414.309 357.021ZM423.921 366.706L410.797 369.934L410.797 369.934L423.921 366.706ZM418.355 380.866L411.318 369.327L406.5 372.265L405.202 377.757L418.355 380.866ZM414.289 389.633L403.447 381.564L396.122 391.406L405.211 399.646L414.289 389.633ZM419.711 398.784L432.835 395.556L432.835 395.556L419.711 398.784ZM407.593 419.941L404.365 406.816L404.365 406.816L407.593 419.941ZM416.634 418.628C416.391 417.639 416.095 416.673 415.749 415.731L390.378 425.059C390.379 425.062 390.382 425.07 390.386 425.084L416.634 418.628ZM397.833 450.528C412.299 446.97 419.98 432.229 416.634 418.628L390.386 425.084C390.4 425.144 390.367 425.067 390.457 424.91C390.503 424.83 390.593 424.706 390.759 424.578C390.934 424.443 391.152 424.335 391.376 424.28L397.833 450.528ZM378.201 447.361C383.79 450.836 390.799 452.258 397.833 450.528L391.376 424.28C391.596 424.225 391.836 424.219 392.053 424.256C392.257 424.291 392.396 424.357 392.476 424.406L378.201 447.361ZM382.721 452.437C387.681 451.216 391.944 448.595 395.193 445.133L375.483 426.635C375.561 426.551 375.67 426.459 375.813 426.374C375.958 426.288 376.115 426.225 376.264 426.188L382.721 452.437ZM352.07 435.568C356.402 447.679 369.23 455.755 382.721 452.437L376.264 426.188C376.471 426.137 376.699 426.128 376.909 426.16C377.109 426.19 377.25 426.25 377.337 426.299C377.498 426.391 377.527 426.478 377.522 426.465L352.07 435.568ZM364.199 445.465C366.347 444.936 368.412 444.217 370.378 443.326L359.215 418.708C358.755 418.916 358.265 419.088 357.742 419.216L364.199 445.465ZM324.474 428.694C332.493 441.753 348.18 449.405 364.199 445.465L357.742 419.216C354.168 420.096 349.948 418.522 347.508 414.549L324.474 428.694ZM312.09 414.957C314.728 425.681 323.577 433.667 334.286 435.029L337.695 408.214C338.04 408.258 338.217 408.388 338.276 408.44C338.35 408.508 338.351 408.551 338.338 408.5L312.09 414.957ZM330.891 383.056C316.425 386.615 308.744 401.355 312.09 414.957L338.338 408.5C338.324 408.441 338.357 408.518 338.267 408.675C338.221 408.755 338.131 408.878 337.965 409.006C337.79 409.142 337.572 409.25 337.348 409.305L330.891 383.056ZM334.343 382.456C333.189 382.575 332.036 382.775 330.891 383.056L337.348 409.305C337.281 409.321 337.207 409.334 337.129 409.343L334.343 382.456ZM334.663 377.743C330.341 380.712 326.795 384.555 324.163 388.918L347.309 402.88C348.024 401.695 348.938 400.731 349.968 400.024L334.663 377.743ZM325.805 385.144C326.918 389.669 328.961 393.77 331.696 397.244L352.935 380.523C352.552 380.037 352.236 379.428 352.054 378.687L325.805 385.144ZM325.788 385.071L325.801 385.125L352.058 378.706L352.045 378.652L325.788 385.071ZM323.048 379.654C324.059 383.763 325.977 387.465 328.56 390.545L349.273 373.178C349.29 373.198 349.299 373.213 349.303 373.221C349.305 373.225 349.305 373.226 349.304 373.223C349.303 373.22 349.3 373.212 349.296 373.198L323.048 379.654ZM341.849 347.754C327.383 351.312 319.702 366.052 323.048 379.654L349.296 373.198C349.282 373.138 349.315 373.215 349.225 373.372C349.179 373.452 349.089 373.575 348.923 373.703C348.748 373.839 348.53 373.947 348.306 374.002L341.849 347.754ZM353.793 347.71C349.977 346.802 345.894 346.759 341.849 347.754L348.306 374.002C348.044 374.066 347.767 374.061 347.537 374.007L353.793 347.71ZM347.819 347.635C347.585 347.692 347.352 347.753 347.12 347.816L354.21 373.9C354.231 373.895 354.253 373.889 354.275 373.883L347.819 347.635ZM357.144 346.86C354.074 346.627 350.931 346.869 347.819 347.635L354.275 373.883C354.563 373.813 354.833 373.794 355.095 373.813L357.144 346.86ZM354.044 345.509C351.733 346.772 349.569 348.236 347.568 349.871L364.671 370.803C365.4 370.207 366.179 369.681 367.002 369.231L354.044 345.509ZM370.495 334.495C361.115 336.802 353.63 342.737 348.993 350.319L372.054 364.421C373.222 362.511 374.941 361.238 376.951 360.743L370.495 334.495ZM397.697 339.041C389.932 334.108 380.215 332.104 370.495 334.495L376.951 360.743C379.029 360.232 381.228 360.603 383.203 361.857L397.697 339.041ZM395.637 329.796C387.038 331.911 380.724 338.136 377.846 345.569L403.054 355.329C403.029 355.393 402.964 355.521 402.801 355.67C402.623 355.832 402.37 355.976 402.094 356.044L395.637 329.796ZM427.091 349.335C423.745 335.733 410.103 326.237 395.637 329.796L402.094 356.044C401.87 356.099 401.626 356.105 401.408 356.066C401.202 356.029 401.064 355.962 400.987 355.912C400.834 355.815 400.828 355.731 400.843 355.791L427.091 349.335ZM427.769 358.244C428.035 355.315 427.822 352.306 427.091 349.335L400.843 355.791C400.845 355.801 400.847 355.809 400.847 355.813C400.848 355.817 400.848 355.819 400.848 355.818C400.848 355.817 400.847 355.81 400.849 355.798L427.769 358.244ZM437.045 363.478C434.609 353.573 426.897 346.039 417.327 343.847L411.29 370.195C411.021 370.133 410.889 370.025 410.844 369.98C410.784 369.921 410.784 369.886 410.797 369.934L437.045 363.478ZM425.392 392.405C435.144 386.457 439.805 374.698 437.045 363.478L410.797 369.934C410.809 369.987 410.788 369.942 410.829 369.839C410.863 369.755 410.983 369.531 411.318 369.327L425.392 392.405ZM405.202 377.757C404.863 379.192 404.249 380.486 403.447 381.564L425.131 397.702C428.162 393.631 430.331 388.953 431.508 383.975L405.202 377.757ZM432.835 395.556C431.276 389.219 427.9 383.73 423.367 379.62L405.211 399.646C405.819 400.197 406.334 400.985 406.587 402.012L432.835 395.556ZM410.822 433.065C427.679 428.918 436.798 411.667 432.835 395.556L406.587 402.012C407.28 404.832 405.549 406.525 404.365 406.816L410.822 433.065ZM402.494 433.898C405.247 434.014 408.048 433.747 410.822 433.065L404.365 406.816C404.107 406.88 403.865 406.901 403.633 406.892L402.494 433.898Z" fill="#0A5F40" mask="url(#path-8-outside-4_442_11)"/>
<mask id="path-10-outside-5_442_11" maskUnits="userSpaceOnUse" x="1.40627" y="16.434" width="529.395" height="527.253" fill="black">
<rect fill="white" x="1.40627" y="16.434" width="529.395" height="527.253"/>
<path fill-rule="evenodd" clip-rule="evenodd" d="M275.32 422.822C274.693 424.483 273.967 426.128 273.139 427.749C261.649 450.246 234.953 459.607 213.513 448.657C202.961 443.268 195.648 433.962 192.312 423.219C184.419 424.04 176.296 422.693 168.813 418.871C148.794 408.646 140.435 384.329 148.769 362.836C144.266 361.504 139.831 359.743 135.51 357.537C103.826 341.354 87.9295 306.082 93.6389 271.306C81.7144 258.002 78.7667 237.626 87.7366 220.063C99.2271 197.566 125.922 188.205 147.362 199.155C149.104 200.044 150.757 201.04 152.318 202.132C163.182 198.597 174.676 197.335 186.052 198.609C186.464 189.731 188.754 180.73 193.103 172.215C193.135 172.152 193.167 172.09 193.199 172.028C193.311 165.048 194.999 157.928 198.426 151.218C209.916 128.721 236.611 119.36 258.051 130.31C264.169 133.434 269.198 137.875 272.994 143.149C273.41 143.349 273.824 143.554 274.237 143.765C279.737 146.574 284.59 150.165 288.74 154.348C294.954 154.524 301.174 155.267 307.329 156.601C326.021 150.643 346.611 151.653 365.029 161.06C384.108 170.804 397.254 187.719 403.101 207.208C415.323 200.72 430.065 199.985 442.918 206.549C464.358 217.499 472.423 244.614 460.933 267.112C458.449 271.976 455.254 276.225 451.555 279.789C461.242 293.017 463.103 311.602 454.833 327.795C445.434 346.197 425.863 355.809 407.316 352.707C397.897 359.508 387.295 364.258 376.245 366.702C377.721 378.847 375.666 391.707 369.584 403.616C353.948 434.229 317.624 446.966 288.45 432.066C283.546 429.561 279.156 426.435 275.32 422.822Z"/>
</mask>
<path fill-rule="evenodd" clip-rule="evenodd" d="M275.32 422.822C274.693 424.483 273.967 426.128 273.139 427.749C261.649 450.246 234.953 459.607 213.513 448.657C202.961 443.268 195.648 433.962 192.312 423.219C184.419 424.04 176.296 422.693 168.813 418.871C148.794 408.646 140.435 384.329 148.769 362.836C144.266 361.504 139.831 359.743 135.51 357.537C103.826 341.354 87.9295 306.082 93.6389 271.306C81.7144 258.002 78.7667 237.626 87.7366 220.063C99.2271 197.566 125.922 188.205 147.362 199.155C149.104 200.044 150.757 201.04 152.318 202.132C163.182 198.597 174.676 197.335 186.052 198.609C186.464 189.731 188.754 180.73 193.103 172.215C193.135 172.152 193.167 172.09 193.199 172.028C193.311 165.048 194.999 157.928 198.426 151.218C209.916 128.721 236.611 119.36 258.051 130.31C264.169 133.434 269.198 137.875 272.994 143.149C273.41 143.349 273.824 143.554 274.237 143.765C279.737 146.574 284.59 150.165 288.74 154.348C294.954 154.524 301.174 155.267 307.329 156.601C326.021 150.643 346.611 151.653 365.029 161.06C384.108 170.804 397.254 187.719 403.101 207.208C415.323 200.72 430.065 199.985 442.918 206.549C464.358 217.499 472.423 244.614 460.933 267.112C458.449 271.976 455.254 276.225 451.555 279.789C461.242 293.017 463.103 311.602 454.833 327.795C445.434 346.197 425.863 355.809 407.316 352.707C397.897 359.508 387.295 364.258 376.245 366.702C377.721 378.847 375.666 391.707 369.584 403.616C353.948 434.229 317.624 446.966 288.45 432.066C283.546 429.561 279.156 426.435 275.32 422.822Z" fill="#296C38"/>
<path d="M273.139 427.749L261.103 421.601L261.102 421.601L273.139 427.749ZM275.32 422.822L284.588 412.984L269.835 399.086L262.676 418.048L275.32 422.822ZM213.513 448.657L207.366 460.694L207.366 460.694L213.513 448.657ZM192.312 423.219L205.22 419.211L201.934 408.629L190.913 409.776L192.312 423.219ZM168.813 418.871L162.666 430.907L162.666 430.907L168.813 418.871ZM148.769 362.836L161.37 367.722L166.676 354.039L152.603 349.876L148.769 362.836ZM135.51 357.537L141.658 345.5L141.658 345.5L135.51 357.537ZM93.6389 271.306L106.976 273.495L108.025 267.106L103.703 262.285L93.6389 271.306ZM87.7366 220.063L75.7002 213.916L75.7002 213.916L87.7366 220.063ZM147.362 199.155L153.51 187.119L153.51 187.119L147.362 199.155ZM152.318 202.132L144.575 213.21L150.096 217.068L156.501 214.984L152.318 202.132ZM186.052 198.609L184.547 212.041L198.883 213.646L199.553 199.236L186.052 198.609ZM193.103 172.215L181.067 166.066L181.067 166.068L193.103 172.215ZM193.199 172.028L205.217 178.211L206.662 175.403L206.713 172.245L193.199 172.028ZM198.426 151.218L186.389 145.071L186.389 145.071L198.426 151.218ZM258.051 130.31L251.904 142.346L251.904 142.346L258.051 130.31ZM272.994 143.149L262.025 151.045L264.036 153.838L267.138 155.33L272.994 143.149ZM274.237 143.765L268.089 155.801L268.09 155.801L274.237 143.765ZM288.74 154.348L279.146 163.867L282.953 167.705L288.358 167.858L288.74 154.348ZM307.329 156.601L304.466 169.809L307.994 170.574L311.433 169.478L307.329 156.601ZM365.029 161.06L358.882 173.096L358.882 173.096L365.029 161.06ZM403.101 207.208L390.155 211.092L394.889 226.87L409.438 219.146L403.101 207.208ZM442.918 206.549L449.065 194.513L449.065 194.513L442.918 206.549ZM460.933 267.112L448.896 260.964L448.896 260.964L460.933 267.112ZM451.555 279.789L442.178 270.055L433.674 278.248L440.651 287.774L451.555 279.789ZM454.833 327.795L442.796 321.647L442.796 321.647L454.833 327.795ZM407.316 352.707L409.546 339.377L403.98 338.446L399.405 341.749L407.316 352.707ZM376.245 366.702L373.327 353.505L361.348 356.154L362.828 368.333L376.245 366.702ZM369.584 403.616L357.547 397.468L357.547 397.468L369.584 403.616ZM288.45 432.066L294.597 420.03L294.597 420.03L288.45 432.066ZM285.175 433.896C286.232 431.828 287.161 429.725 287.965 427.596L262.676 418.048C262.226 419.241 261.702 420.427 261.103 421.601L285.175 433.896ZM207.366 460.694C235.993 475.315 270.572 462.489 285.175 433.896L261.102 421.601C252.725 438.004 233.914 443.9 219.661 436.621L207.366 460.694ZM179.405 427.227C183.746 441.209 193.354 453.537 207.366 460.694L219.661 436.621C212.567 432.998 207.55 426.716 205.22 419.211L179.405 427.227ZM162.666 430.907C172.575 435.969 183.334 437.742 193.712 436.662L190.913 409.776C185.504 410.339 180.017 409.417 174.961 406.834L162.666 430.907ZM136.168 357.95C125.547 385.34 135.951 417.263 162.666 430.907L174.961 406.834C161.637 400.03 155.323 383.318 161.37 367.722L136.168 357.95ZM129.363 369.573C134.429 372.161 139.639 374.23 144.935 375.796L152.603 349.876C148.894 348.779 145.232 347.326 141.658 345.5L129.363 369.573ZM80.302 269.116C73.7289 309.153 91.9713 350.476 129.363 369.573L141.658 345.5C115.68 332.232 102.13 303.011 106.976 273.495L80.302 269.116ZM75.7002 213.916C64.2514 236.332 67.8275 262.758 83.5746 280.327L103.703 262.285C95.6013 253.246 93.282 238.92 99.7731 226.211L75.7002 213.916ZM153.51 187.119C124.883 172.498 90.3035 185.323 75.7002 213.916L99.7731 226.211C108.151 209.808 126.962 203.912 141.215 211.191L153.51 187.119ZM160.061 191.054C157.992 189.608 155.806 188.292 153.51 187.119L141.215 211.191C142.401 211.797 143.521 212.473 144.575 213.21L160.061 191.054ZM187.556 185.178C174.195 183.681 160.764 185.17 148.136 189.28L156.501 214.984C165.6 212.023 175.157 210.989 184.547 212.041L187.556 185.178ZM181.067 166.068C175.832 176.318 173.052 187.204 172.551 197.982L199.553 199.236C199.877 192.258 201.677 185.142 205.14 178.362L181.067 166.068ZM181.182 165.844C181.144 165.916 181.106 165.99 181.067 166.066L205.139 178.364C205.164 178.315 205.19 178.264 205.217 178.211L181.182 165.844ZM186.389 145.071C182.011 153.642 179.83 162.795 179.686 171.811L206.713 172.245C206.792 167.301 207.986 162.213 210.462 157.366L186.389 145.071ZM264.199 118.273C235.572 103.652 200.993 116.478 186.389 145.071L210.462 157.366C218.84 140.963 237.651 135.067 251.904 142.346L264.199 118.273ZM283.963 135.253C278.952 128.292 272.291 122.406 264.199 118.273L251.904 142.346C256.047 144.462 259.443 147.458 262.025 151.045L283.963 135.253ZM280.385 131.729C279.875 131.468 279.363 131.214 278.85 130.968L267.138 155.33C267.456 155.483 267.773 155.64 268.089 155.801L280.385 131.729ZM298.335 144.829C293.193 139.646 287.18 135.199 280.385 131.728L268.09 155.801C272.294 157.949 275.988 160.684 279.146 163.867L298.335 144.829ZM310.192 143.392C303.209 141.878 296.158 141.037 289.123 140.838L288.358 167.858C293.751 168.011 299.14 168.655 304.466 169.809L310.192 143.392ZM371.177 149.023C349.38 137.891 325.084 136.756 303.224 143.724L311.433 169.478C326.959 164.529 343.843 165.416 358.882 173.096L371.177 149.023ZM416.046 203.325C409.214 180.55 393.76 160.558 371.177 149.023L358.882 173.096C374.456 181.05 385.294 194.887 390.155 211.092L416.046 203.325ZM449.065 194.513C431.97 185.782 412.56 186.884 396.763 195.271L409.438 219.146C418.086 214.555 428.159 214.187 436.77 218.585L449.065 194.513ZM472.969 273.259C487.573 244.667 477.692 209.134 449.065 194.513L436.77 218.585C451.023 225.865 457.274 244.562 448.896 260.964L472.969 273.259ZM460.932 289.522C465.7 284.929 469.797 279.469 472.969 273.259L448.896 260.964C447.1 264.482 444.807 267.522 442.178 270.055L460.932 289.522ZM466.869 333.942C477.434 313.258 475.199 289.2 462.459 271.803L440.651 287.774C447.285 296.833 448.773 309.946 442.796 321.647L466.869 333.942ZM405.087 366.038C429.64 370.144 454.88 357.416 466.869 333.942L442.796 321.647C435.988 334.978 422.086 341.475 409.546 339.377L405.087 366.038ZM399.405 341.749C391.462 347.484 382.556 351.464 373.327 353.505L379.163 379.898C392.035 377.052 404.332 371.531 415.227 363.666L399.405 341.749ZM381.62 409.763C388.946 395.419 391.458 379.846 389.661 365.071L362.828 368.333C363.985 377.848 362.386 387.995 357.547 397.468L381.62 409.763ZM282.302 444.103C318.663 462.673 362.872 446.471 381.62 409.763L357.547 397.468C345.025 421.986 316.584 431.259 294.597 420.03L282.302 444.103ZM266.053 432.659C270.807 437.138 276.245 441.009 282.302 444.103L294.597 420.03C290.847 418.114 287.505 415.732 284.588 412.984L266.053 432.659Z" fill="#07573A" mask="url(#path-10-outside-5_442_11)"/>
<mask id="path-12-outside-6_442_11" maskUnits="userSpaceOnUse" x="71.1141" y="84.5936" width="391.081" height="389.796" fill="black">
<rect fill="white" x="71.1141" y="84.5936" width="391.081" height="389.796"/>
<path fill-rule="evenodd" clip-rule="evenodd" d="M272.698 382.291C272.249 383.479 271.73 384.656 271.137 385.816C262.914 401.917 243.809 408.616 228.466 400.779C220.914 396.922 215.681 390.263 213.293 382.575C207.644 383.163 201.831 382.198 196.475 379.463C182.149 372.146 176.167 354.743 182.131 339.362C178.908 338.409 175.733 337.148 172.64 335.569C169.293 333.859 166.192 331.852 163.351 329.592C155.293 332.829 146.117 332.753 137.995 328.605C122.651 320.768 116.879 301.363 125.102 285.263C128.531 278.55 133.851 273.471 140.002 270.399C133.772 261.024 132.768 248.315 138.453 237.185C146.676 221.084 165.781 214.385 181.124 222.222C182.371 222.858 183.553 223.571 184.671 224.352C192.446 221.822 200.672 220.919 208.813 221.832C209.108 215.477 210.747 209.035 213.86 202.942L213.928 202.809C214.008 197.813 215.216 192.717 217.668 187.915C225.891 171.815 244.996 165.115 260.34 172.952C264.718 175.188 268.316 178.366 271.033 182.139C271.331 182.283 271.628 182.43 271.924 182.581C275.86 184.591 279.333 187.161 282.303 190.155C283.947 190.202 285.591 190.304 287.232 190.462C303.856 178.825 325.615 176.322 344.263 185.847C369.394 198.682 380.142 228.901 370.407 255.999C372.254 259.708 373.706 263.62 374.742 267.664C379.334 267.68 383.954 268.734 388.276 270.941C403.619 278.778 409.392 298.183 401.169 314.283C392.945 330.384 373.841 337.083 358.497 329.246C357.987 328.986 357.488 328.713 356.999 328.427C353.097 332.144 348.781 335.288 344.184 337.814C346.393 347.721 345.239 358.597 340.158 368.546C328.969 390.454 302.973 399.57 282.094 388.906C278.585 387.114 275.443 384.877 272.698 382.291Z"/>
</mask>
<path fill-rule="evenodd" clip-rule="evenodd" d="M272.698 382.291C272.249 383.479 271.73 384.656 271.137 385.816C262.914 401.917 243.809 408.616 228.466 400.779C220.914 396.922 215.681 390.263 213.293 382.575C207.644 383.163 201.831 382.198 196.475 379.463C182.149 372.146 176.167 354.743 182.131 339.362C178.908 338.409 175.733 337.148 172.64 335.569C169.293 333.859 166.192 331.852 163.351 329.592C155.293 332.829 146.117 332.753 137.995 328.605C122.651 320.768 116.879 301.363 125.102 285.263C128.531 278.55 133.851 273.471 140.002 270.399C133.772 261.024 132.768 248.315 138.453 237.185C146.676 221.084 165.781 214.385 181.124 222.222C182.371 222.858 183.553 223.571 184.671 224.352C192.446 221.822 200.672 220.919 208.813 221.832C209.108 215.477 210.747 209.035 213.86 202.942L213.928 202.809C214.008 197.813 215.216 192.717 217.668 187.915C225.891 171.815 244.996 165.115 260.34 172.952C264.718 175.188 268.316 178.366 271.033 182.139C271.331 182.283 271.628 182.43 271.924 182.581C275.86 184.591 279.333 187.161 282.303 190.155C283.947 190.202 285.591 190.304 287.232 190.462C303.856 178.825 325.615 176.322 344.263 185.847C369.394 198.682 380.142 228.901 370.407 255.999C372.254 259.708 373.706 263.62 374.742 267.664C379.334 267.68 383.954 268.734 388.276 270.941C403.619 278.778 409.392 298.183 401.169 314.283C392.945 330.384 373.841 337.083 358.497 329.246C357.987 328.986 357.488 328.713 356.999 328.427C353.097 332.144 348.781 335.288 344.184 337.814C346.393 347.721 345.239 358.597 340.158 368.546C328.969 390.454 302.973 399.57 282.094 388.906C278.585 387.114 275.443 384.877 272.698 382.291Z" fill="#2E7E40"/>
<path d="M271.137 385.816L259.101 379.669L259.101 379.669L271.137 385.816ZM272.698 382.291L281.966 372.453L267.213 358.555L260.054 377.517L272.698 382.291ZM228.466 400.779L234.613 388.743L234.613 388.743L228.466 400.779ZM213.293 382.575L226.201 378.567L222.915 367.985L211.894 369.132L213.293 382.575ZM196.475 379.463L202.623 367.427L202.623 367.427L196.475 379.463ZM182.131 339.362L194.732 344.248L200.038 330.564L185.964 326.402L182.131 339.362ZM172.64 335.569L166.493 347.605L166.493 347.605L172.64 335.569ZM163.351 329.592L171.764 319.015L165.61 314.12L158.314 317.051L163.351 329.592ZM137.995 328.605L131.848 340.641L131.848 340.641L137.995 328.605ZM125.102 285.263L137.139 291.41L137.139 291.41L125.102 285.263ZM140.002 270.399L146.041 282.49L159.723 275.656L151.258 262.919L140.002 270.399ZM138.453 237.185L150.489 243.332L150.489 243.332L138.453 237.185ZM181.124 222.222L174.977 234.258L174.977 234.258L181.124 222.222ZM184.671 224.352L176.928 235.43L182.448 239.288L188.853 237.204L184.671 224.352ZM208.813 221.832L207.308 235.263L221.645 236.869L222.314 222.458L208.813 221.832ZM213.86 202.942L201.833 196.775L201.828 196.784L201.823 196.794L213.86 202.942ZM213.928 202.809L225.955 208.975L227.391 206.173L227.442 203.025L213.928 202.809ZM217.668 187.915L229.705 194.063L229.705 194.063L217.668 187.915ZM260.34 172.952L266.487 160.916L266.487 160.916L260.34 172.952ZM271.033 182.139L260.064 190.036L262.075 192.829L265.178 194.321L271.033 182.139ZM271.924 182.581L265.776 194.617L265.776 194.617L271.924 182.581ZM282.303 190.155L272.709 199.674L276.516 203.512L281.921 203.665L282.303 190.155ZM287.232 190.462L285.936 203.915L290.899 204.393L294.983 201.534L287.232 190.462ZM344.263 185.847L350.41 173.81L350.41 173.81L344.263 185.847ZM370.407 255.999L357.687 251.43L355.737 256.859L358.309 262.024L370.407 255.999ZM374.742 267.664L361.65 271.018L364.244 281.144L374.696 281.18L374.742 267.664ZM388.276 270.941L394.423 258.905L394.423 258.905L388.276 270.941ZM401.169 314.283L389.132 308.136L401.169 314.283ZM358.497 329.246L352.349 341.283L352.349 341.283L358.497 329.246ZM356.999 328.427L363.816 316.757L355.038 311.629L347.677 318.641L356.999 328.427ZM344.184 337.814L337.676 325.968L328.785 330.853L330.993 340.755L344.184 337.814ZM340.158 368.546L352.194 374.693L352.194 374.693L340.158 368.546ZM282.094 388.906L275.947 400.943L275.947 400.943L282.094 388.906ZM283.174 391.964C283.994 390.357 284.717 388.721 285.342 387.065L260.054 377.517C259.782 378.237 259.465 378.956 259.101 379.669L283.174 391.964ZM222.318 412.816C244.849 424.323 271.838 414.159 283.174 391.964L259.101 379.669C253.991 389.675 242.77 392.909 234.613 388.743L222.318 412.816ZM200.386 386.583C203.779 397.51 211.307 407.192 222.318 412.816L234.613 388.743C230.52 386.653 227.583 383.017 226.201 378.567L200.386 386.583ZM190.328 391.5C198.11 395.474 206.559 396.864 214.693 396.018L211.894 369.132C208.73 369.461 205.551 368.922 202.623 367.427L190.328 391.5ZM169.529 334.476C161.279 355.755 169.306 380.763 190.328 391.5L202.623 367.427C194.992 363.529 191.055 353.732 194.732 344.248L169.529 334.476ZM166.493 347.605C170.331 349.566 174.281 351.134 178.297 352.322L185.964 326.402C183.535 325.683 181.135 324.731 178.788 323.533L166.493 347.605ZM154.938 340.17C158.479 342.987 162.338 345.483 166.493 347.605L178.788 323.533C176.248 322.235 173.905 320.718 171.764 319.015L154.938 340.17ZM131.848 340.641C143.699 346.694 156.973 346.719 168.388 342.134L158.314 317.051C153.613 318.938 148.535 318.812 144.143 316.569L131.848 340.641ZM113.066 279.115C101.73 301.311 109.317 329.134 131.848 340.641L144.143 316.569C135.986 312.403 132.028 301.416 137.139 291.41L113.066 279.115ZM133.963 258.308C125.271 262.649 117.828 269.791 113.066 279.115L137.139 291.41C139.233 287.309 142.432 284.293 146.041 282.49L133.963 258.308ZM126.416 231.037C118.526 246.487 119.793 264.408 128.745 277.879L151.258 262.919C147.751 257.64 147.011 250.143 150.489 243.332L126.416 231.037ZM187.272 210.185C164.741 198.678 137.753 208.842 126.416 231.037L150.489 243.332C155.6 233.327 166.82 230.092 174.977 234.258L187.272 210.185ZM192.414 213.274C190.789 212.138 189.073 211.105 187.272 210.185L174.977 234.258C175.668 234.611 176.318 235.003 176.928 235.43L192.414 213.274ZM210.318 208.4C200.191 207.265 190.029 208.396 180.489 211.5L188.853 237.204C194.864 235.248 201.152 234.573 207.308 235.263L210.318 208.4ZM201.823 196.794C197.825 204.624 195.696 212.95 195.312 221.205L222.314 222.458C222.521 218.004 223.67 213.447 225.896 209.089L201.823 196.794ZM201.901 196.642L201.833 196.775L225.886 209.108L225.955 208.975L201.901 196.642ZM205.632 181.768C202.228 188.432 200.527 195.56 200.414 202.592L227.442 203.025C227.489 200.066 228.203 197.002 229.705 194.063L205.632 181.768ZM266.487 160.916C243.956 149.408 216.968 159.572 205.632 181.768L229.705 194.063C234.815 184.057 246.036 180.822 254.192 184.988L266.487 160.916ZM282.002 174.243C278.071 168.782 272.839 164.16 266.487 160.916L254.192 184.988C256.596 186.216 258.562 187.949 260.064 190.036L282.002 174.243ZM278.071 170.545C277.679 170.344 277.284 170.149 276.888 169.958L265.178 194.321C265.377 194.417 265.577 194.516 265.776 194.617L278.071 170.545ZM291.898 180.637C287.936 176.643 283.303 173.217 278.071 170.545L265.776 194.617C268.417 195.966 270.731 197.68 272.709 199.674L291.898 180.637ZM288.529 177.009C286.581 176.821 284.633 176.7 282.686 176.645L281.921 203.665C283.261 203.703 284.6 203.786 285.936 203.915L288.529 177.009ZM350.41 173.81C326.925 161.815 299.838 165.14 279.482 179.39L294.983 201.534C307.874 192.51 324.305 190.83 338.115 197.883L350.41 173.81ZM383.126 260.568C394.958 227.634 382.117 190.004 350.41 173.81L338.115 197.883C356.67 207.36 365.325 230.168 357.687 251.43L383.126 260.568ZM358.309 262.024C359.725 264.869 360.847 267.885 361.65 271.018L387.835 264.31C386.565 259.355 384.782 254.547 382.505 249.974L358.309 262.024ZM394.423 258.905C388.153 255.702 381.434 254.171 374.788 254.149L374.696 281.18C377.233 281.188 379.755 281.766 382.128 282.978L394.423 258.905ZM413.205 320.431C424.541 298.236 416.954 270.412 394.423 258.905L382.128 282.978C390.285 287.144 394.242 298.13 389.132 308.136L413.205 320.431ZM352.349 341.283C374.88 352.79 401.869 342.626 413.205 320.431L389.132 308.136C384.022 318.142 372.801 321.376 364.644 317.21L352.349 341.283ZM350.181 340.097C350.89 340.511 351.613 340.907 352.349 341.283L364.645 317.21C364.361 317.065 364.085 316.914 363.816 316.757L350.181 340.097ZM347.677 318.641C344.623 321.55 341.253 324.003 337.676 325.968L350.692 349.659C356.308 346.574 361.571 342.738 366.321 338.213L347.677 318.641ZM352.194 374.693C358.729 361.899 360.259 347.804 357.376 334.872L330.993 340.755C332.528 347.639 331.749 355.296 328.122 362.398L352.194 374.693ZM275.947 400.943C304.012 415.277 337.892 402.696 352.194 374.693L328.122 362.398C320.045 378.212 301.933 383.862 288.242 376.87L275.947 400.943ZM263.431 392.128C267.094 395.579 271.283 398.561 275.947 400.943L288.242 376.87C285.886 375.667 283.792 374.174 281.966 372.453L263.431 392.128Z" fill="#0A5F40" mask="url(#path-12-outside-6_442_11)"/>
<mask id="path-14-outside-7_442_11" maskUnits="userSpaceOnUse" x="153.31" y="172.278" width="234.681" height="235.252" fill="black">
<rect fill="white" x="153.31" y="172.278" width="234.681" height="235.252"/>
<path fill-rule="evenodd" clip-rule="evenodd" d="M243.04 297.843L243.039 297.814L243.063 297.846L243.04 297.843ZM203.16 325.085C211.862 329.53 221.975 328.529 229.879 323.353C230.968 324.538 232.277 325.548 233.784 326.318C235.202 327.042 236.689 327.499 238.192 327.707C239.752 332.402 243.008 336.452 247.652 338.824C256.867 343.53 268.228 339.937 273.789 330.832C278.139 332.971 282.948 333.282 287.389 332.054C289.238 333.895 291.392 335.478 293.827 336.721C307.011 343.455 323.433 337.689 330.505 323.842C335.395 314.267 334.534 303.335 329.178 295.275C331.484 290.089 330.776 284.296 327.714 280.114C328.943 278.93 330.005 277.518 330.83 275.902C334.647 268.428 331.968 259.421 324.845 255.783C323.133 254.908 321.319 254.424 319.499 254.296C323.238 246.843 320.551 237.902 313.461 234.281C307.075 231.019 299.284 233.183 294.99 239.054C294.478 238.896 293.963 238.755 293.446 238.632C294.558 232.334 291.704 225.909 285.96 222.975C278.838 219.337 269.969 222.447 266.152 229.921C264.592 232.976 264.117 236.287 264.587 239.383C257.353 241.106 250.596 245.115 245.423 251.022C239.247 248.659 232.381 249.751 227.033 253.525C226.91 253.457 226.785 253.391 226.659 253.327C219.537 249.689 210.668 252.799 206.851 260.272C204.501 264.874 204.613 270.057 206.709 274.21C200.663 276.715 195.372 281.398 192.092 287.82C185.02 301.667 189.975 318.351 203.16 325.085Z"/>
</mask>
<path fill-rule="evenodd" clip-rule="evenodd" d="M243.04 297.843L243.039 297.814L243.063 297.846L243.04 297.843ZM203.16 325.085C211.862 329.53 221.975 328.529 229.879 323.353C230.968 324.538 232.277 325.548 233.784 326.318C235.202 327.042 236.689 327.499 238.192 327.707C239.752 332.402 243.008 336.452 247.652 338.824C256.867 343.53 268.228 339.937 273.789 330.832C278.139 332.971 282.948 333.282 287.389 332.054C289.238 333.895 291.392 335.478 293.827 336.721C307.011 343.455 323.433 337.689 330.505 323.842C335.395 314.267 334.534 303.335 329.178 295.275C331.484 290.089 330.776 284.296 327.714 280.114C328.943 278.93 330.005 277.518 330.83 275.902C334.647 268.428 331.968 259.421 324.845 255.783C323.133 254.908 321.319 254.424 319.499 254.296C323.238 246.843 320.551 237.902 313.461 234.281C307.075 231.019 299.284 233.183 294.99 239.054C294.478 238.896 293.963 238.755 293.446 238.632C294.558 232.334 291.704 225.909 285.96 222.975C278.838 219.337 269.969 222.447 266.152 229.921C264.592 232.976 264.117 236.287 264.587 239.383C257.353 241.106 250.596 245.115 245.423 251.022C239.247 248.659 232.381 249.751 227.033 253.525C226.91 253.457 226.785 253.391 226.659 253.327C219.537 249.689 210.668 252.799 206.851 260.272C204.501 264.874 204.613 270.057 206.709 274.21C200.663 276.715 195.372 281.398 192.092 287.82C185.02 301.667 189.975 318.351 203.16 325.085Z" fill="#339048"/>
<path d="M243.039 297.814L253.818 289.66L227.872 255.362L229.534 298.337L243.039 297.814ZM243.04 297.843L229.535 298.365L229.977 309.803L241.332 311.25L243.04 297.843ZM243.063 297.846L241.355 311.253L273.224 315.313L253.842 289.692L243.063 297.846ZM229.879 323.353L239.828 314.205L232.067 305.764L222.474 312.046L229.879 323.353ZM203.16 325.085L197.013 337.121L197.013 337.121L203.16 325.085ZM233.784 326.318L239.932 314.282L239.932 314.282L233.784 326.318ZM238.192 327.707L251.018 323.445L248.368 315.473L240.047 314.32L238.192 327.707ZM247.652 338.824L241.505 350.86L241.505 350.86L247.652 338.824ZM273.789 330.832L279.753 318.704L268.684 313.261L262.255 323.787L273.789 330.832ZM287.389 332.054L296.925 322.476L291.358 316.934L283.786 319.028L287.389 332.054ZM293.827 336.721L287.679 348.758L287.679 348.758L293.827 336.721ZM330.505 323.842L342.541 329.99L342.541 329.99L330.505 323.842ZM329.178 295.275L316.829 289.784L313.812 296.57L317.922 302.755L329.178 295.275ZM327.714 280.114L318.338 270.38L309.833 278.572L316.81 288.099L327.714 280.114ZM330.83 275.902L342.867 282.05L342.867 282.05L330.83 275.902ZM324.845 255.783L318.698 267.819L318.698 267.819L324.845 255.783ZM319.499 254.296L307.419 248.235L298.326 266.36L318.554 267.778L319.499 254.296ZM313.461 234.281L307.314 246.318L307.314 246.318L313.461 234.281ZM294.99 239.054L291.008 251.969L300.213 254.808L305.9 247.032L294.99 239.054ZM293.446 238.632L280.137 236.282L277.922 248.823L290.31 251.778L293.446 238.632ZM285.96 222.975L279.813 235.012L279.813 235.012L285.96 222.975ZM266.152 229.921L278.188 236.068L278.188 236.068L266.152 229.921ZM264.587 239.383L267.719 252.531L279.817 249.649L277.949 237.353L264.587 239.383ZM245.423 251.022L240.593 263.644L249.386 267.009L255.59 259.927L245.423 251.022ZM227.033 253.525L220.526 265.371L227.926 269.436L234.825 264.568L227.033 253.525ZM226.659 253.327L232.807 241.29L232.807 241.29L226.659 253.327ZM206.851 260.272L194.815 254.125L194.815 254.125L206.851 260.272ZM206.709 274.21L211.882 286.696L225.336 281.122L218.775 268.121L206.709 274.21ZM192.092 287.82L204.129 293.968L204.129 293.968L192.092 287.82ZM229.534 298.337L229.535 298.365L256.546 297.32L256.545 297.292L229.534 298.337ZM253.842 289.692L253.818 289.66L232.261 305.968L232.284 306L253.842 289.692ZM241.332 311.25L241.355 311.253L244.771 284.439L244.749 284.436L241.332 311.25ZM222.474 312.046C218.27 314.799 213.319 315.098 209.308 313.049L197.013 337.121C210.406 343.962 225.68 342.258 237.283 334.659L222.474 312.046ZM239.932 314.282C239.902 314.267 239.883 314.254 239.87 314.244C239.857 314.234 239.843 314.222 239.828 314.205L219.929 332.5C222.083 334.843 224.673 336.841 227.637 338.355L239.932 314.282ZM240.047 314.32C240.027 314.317 240.01 314.313 239.995 314.308C239.98 314.304 239.96 314.296 239.932 314.282L227.637 338.355C230.424 339.778 233.365 340.683 236.337 341.095L240.047 314.32ZM253.8 326.787C252.52 326.134 251.533 324.996 251.018 323.445L225.366 331.97C227.971 339.807 233.496 346.769 241.505 350.86L253.8 326.787ZM262.255 323.787C260.059 327.382 256.193 328.009 253.8 326.787L241.505 350.86C257.54 359.05 276.397 352.492 285.323 337.877L262.255 323.787ZM283.786 319.028C282.338 319.428 280.952 319.294 279.753 318.704L267.825 342.961C275.326 346.649 283.558 347.136 290.992 345.081L283.786 319.028ZM299.974 324.685C298.809 324.09 297.795 323.342 296.925 322.476L277.853 341.632C280.682 344.448 283.975 346.866 287.679 348.758L299.974 324.685ZM318.468 317.695C314.504 325.457 305.962 327.743 299.974 324.685L287.679 348.758C308.06 359.167 332.361 349.921 342.541 329.99L318.468 317.695ZM317.922 302.755C320.553 306.716 321.155 312.435 318.468 317.695L342.541 329.99C349.636 316.099 348.516 299.955 340.435 287.795L317.922 302.755ZM316.81 288.099C316.966 288.313 317.197 288.956 316.829 289.784L341.528 300.766C345.772 291.221 344.586 280.278 338.618 272.129L316.81 288.099ZM318.794 269.755C318.656 270.024 318.497 270.227 318.338 270.38L337.09 289.848C339.389 287.634 341.353 285.012 342.867 282.05L318.794 269.755ZM318.698 267.819C318.743 267.842 318.883 267.913 318.986 268.257C319.093 268.617 319.101 269.153 318.794 269.755L342.867 282.05C349.797 268.481 345.302 251.055 330.993 243.746L318.698 267.819ZM318.554 267.778C318.584 267.78 318.607 267.785 318.624 267.79C318.641 267.794 318.665 267.802 318.698 267.819L330.993 243.746C327.622 242.025 324.034 241.065 320.445 240.814L318.554 267.778ZM307.314 246.318C307.36 246.341 307.498 246.411 307.6 246.751C307.708 247.107 307.718 247.639 307.419 248.235L331.58 260.357C338.371 246.82 333.851 229.519 319.609 222.245L307.314 246.318ZM305.9 247.032C306.212 246.605 306.596 246.388 306.892 246.31C307.156 246.24 307.262 246.291 307.314 246.318L319.609 222.245C306.799 215.702 291.943 220.325 284.081 231.075L305.9 247.032ZM290.31 251.778C290.543 251.834 290.776 251.898 291.008 251.969L298.973 226.138C298.18 225.894 297.383 225.676 296.583 225.485L290.31 251.778ZM279.813 235.012C279.869 235.04 279.947 235.087 280.034 235.274C280.136 235.492 280.213 235.849 280.137 236.282L306.756 240.982C308.806 229.374 303.611 216.814 292.107 210.939L279.813 235.012ZM278.188 236.068C278.496 235.466 278.935 235.159 279.289 235.035C279.628 234.916 279.767 234.988 279.813 235.012L292.108 210.939C277.798 203.63 261.046 210.205 254.115 223.773L278.188 236.068ZM277.949 237.353C277.897 237.01 277.935 236.564 278.188 236.068L254.115 223.773C251.248 229.388 250.336 235.564 251.225 241.413L277.949 237.353ZM255.59 259.927C258.921 256.123 263.222 253.602 267.719 252.531L261.455 226.235C251.485 228.61 242.272 234.106 235.256 242.116L255.59 259.927ZM234.825 264.568C236.779 263.189 238.943 263.013 240.593 263.644L250.253 238.399C239.552 234.304 227.984 236.313 219.241 242.482L234.825 264.568ZM220.512 265.363C220.517 265.366 220.522 265.368 220.526 265.371L233.541 241.679C233.298 241.546 233.054 241.416 232.807 241.29L220.512 265.363ZM218.888 266.42C219.195 265.818 219.634 265.511 219.988 265.387C220.327 265.268 220.466 265.34 220.512 265.363L232.807 241.29C218.497 233.982 201.745 240.556 194.815 254.125L218.888 266.42ZM218.775 268.121C218.614 267.802 218.507 267.165 218.888 266.42L194.815 254.125C190.495 262.583 190.613 272.311 194.643 280.298L218.775 268.121ZM204.129 293.968C205.925 290.45 208.76 287.989 211.882 286.696L201.536 261.723C192.566 265.44 184.819 272.347 180.056 281.673L204.129 293.968ZM209.308 313.049C203.319 309.99 200.164 301.73 204.129 293.968L180.056 281.673C169.876 301.604 176.631 326.712 197.013 337.121L209.308 313.049Z" fill="#0B6645" mask="url(#path-14-outside-7_442_11)"/>
</g>
<defs>
<clipPath id="clip0_442_11">
<rect width="500" height="500" fill="white" transform="translate(0.796875 0.365234)"/>
</clipPath>
</defs>
</svg>
