<svg width="500" height="501" viewBox="0 0 500 501" fill="none" xmlns="http://www.w3.org/2000/svg">
<g clip-path="url(#clip0_524_1203)">
<path d="M57.0036 396.085L46.8927 387.401L259.906 139.393L308.541 40.205C314.386 28.2854 328.786 23.3606 340.706 29.2052L370.345 43.7382C385.288 51.065 387.851 70.0702 378.142 81.759C371.502 89.7521 364.855 99.1146 360.741 107.684C358.686 111.965 357.509 115.547 357.081 118.32C356.723 120.641 356.976 121.786 357.133 122.226C357.271 122.384 357.874 123.117 359.411 124.418C361.437 126.132 364.32 128.198 368.056 130.557C375.509 135.262 385.384 140.526 396.322 145.82C418.18 156.399 443.098 166.53 458.71 171.898C472.237 176.549 480.594 192.726 473.615 206.959L462.854 228.904C457.01 240.824 442.609 245.749 430.689 239.904L327.317 189.217L118.019 447.038C113.347 452.793 106.281 456.07 98.8701 455.92L50.9818 454.95C33.4099 454.594 22.1487 436.116 29.8865 420.335L43.5449 392.48C44.4413 390.652 45.5662 388.945 46.8927 387.401L57.0036 396.085ZM57.0036 396.085L57.0109 396.091L57.0036 396.085Z" fill="#695050" stroke="#4B3838" stroke-width="26.708"/>
</g>
<defs>
<clipPath id="clip0_524_1203">
<rect width="500" height="500" fill="white" transform="translate(0 0.0205078)"/>
</clipPath>
</defs>
</svg>
