<svg width="500" height="501" viewBox="0 0 500 501" fill="none" xmlns="http://www.w3.org/2000/svg">
<g clip-path="url(#clip0_524_1201)">
<path d="M456.473 459.845L468.067 454.939L466.754 442.418C456.907 348.57 407.605 274.517 352.03 221.437C296.732 168.623 233.98 135.353 194.053 123.176C185.958 120.497 173.4 115.971 162.006 111.108C156.252 108.651 151.057 106.22 146.981 103.999C142.967 101.812 141.323 100.505 141.023 100.266C140.99 100.24 140.973 100.226 140.972 100.227C140.937 100.185 140.785 99.9977 140.513 99.6013C140.179 99.1136 139.758 98.4476 139.234 97.5502C138.148 95.6908 136.96 93.438 135.417 90.5051L135.283 90.2486C132.363 84.6977 128.504 77.3592 123.529 70.1811C113.272 55.3839 96.8069 39.2135 69.8976 37.1453C58.9058 36.3004 47.6448 37.2063 39.059 43.0868C34.3511 46.3113 30.7787 50.838 28.9336 56.3536C27.1643 61.6427 27.3278 66.7841 28.1767 71.039C29.8019 79.1856 34.397 86.5294 38.971 92.1351C43.7597 98.0039 49.7393 103.451 56.0241 107.703L65.5492 93.6246L56.0241 107.703C57.3312 108.588 60.2469 111.434 64.4808 117.424C68.4529 123.045 72.749 130.216 77.1093 138.297C85.5941 154.022 93.7533 172.128 99.6167 186.528C115.27 250.037 157.221 335.975 217.632 397.528C278.682 459.731 361.97 499.838 456.473 459.845Z" fill="#0C551C" stroke="#0D4219" stroke-width="33.9961"/>
<path d="M371.063 330.775L414.436 399.539L371.179 395.118C346.123 381.011 294.201 351.126 286.965 344.449C277.919 336.101 223.648 286.018 208.17 268.353C195.787 254.221 175.069 229.918 166.258 219.533L146.199 165.523L182.575 175.426L371.063 330.775Z" fill="#0F5B20"/>
</g>
<defs>
<clipPath id="clip0_524_1201">
<rect width="500" height="500" fill="white" transform="translate(0 0.0205078)"/>
</clipPath>
</defs>
</svg>
