<svg width="1000" height="1001" viewBox="0 0 1000 1001" fill="none" xmlns="http://www.w3.org/2000/svg">
<g clip-path="url(#clip0_524_1201)">
<path d="M912.944 919.677L936.133 909.864L933.505 884.822C913.811 697.127 815.209 549.021 704.057 442.861C593.461 337.232 467.959 270.692 388.103 246.339C371.915 240.981 346.799 231.929 324.01 222.202C312.502 217.289 302.112 212.427 293.961 207.985C285.932 203.61 282.645 200.996 282.045 200.519C281.978 200.466 281.945 200.439 281.942 200.439C281.872 200.356 281.567 199.981 281.024 199.189C280.355 198.213 279.515 196.882 278.467 195.087C276.294 191.368 273.918 186.862 270.833 180.996L270.563 180.484C264.725 169.382 257.007 154.705 247.056 140.349C226.543 110.754 193.612 78.4133 139.793 74.2768C117.81 72.5872 95.2877 74.399 78.1161 86.16C68.7002 92.609 61.5554 101.662 57.8653 112.693C54.3266 123.272 54.6537 133.555 56.3514 142.064C59.6018 158.358 68.792 173.045 77.94 184.256C87.5175 195.994 99.4767 206.889 112.046 215.393L131.096 187.236L112.046 215.393C114.66 217.161 120.492 222.854 128.96 234.835C136.904 246.075 145.496 260.418 154.217 276.579C171.186 308.029 187.505 344.241 199.231 373.043C230.537 500.061 314.44 671.936 435.263 795.042C557.361 919.449 723.939 999.663 912.944 919.677Z" fill="#0C551C" stroke="#0D4219" stroke-width="67.9922"/>
<path d="M742.123 661.536L828.871 799.064L742.356 790.223C692.243 762.008 588.4 702.239 573.927 688.884C555.837 672.189 447.295 572.022 416.338 536.693C391.573 508.429 350.137 459.822 332.514 439.052L292.396 331.032L365.148 350.839L742.123 661.536Z" fill="#0F5B20"/>
</g>
<defs>
<clipPath id="clip0_524_1201">
<rect width="1000" height="1000" fill="white" transform="translate(0 0.0273438)"/>
</clipPath>
</defs>
</svg>
