<svg width="501" height="501" viewBox="0 0 501 501" fill="none" xmlns="http://www.w3.org/2000/svg">
<g clip-path="url(#clip0_524_1333)">
<path d="M35.9434 218.78L60.5566 223.62L35.9434 218.78C32.4878 236.356 36.413 254.58 46.798 269.174L150.416 414.796C156.655 423.564 164.968 430.653 174.612 435.429L216.58 456.213C239.035 467.333 265.874 464.606 285.633 449.196L431.608 335.352C459.368 313.703 464.937 273.93 444.191 245.489L306.385 56.5639C289.524 33.4491 259.567 24.0219 232.508 33.3154L96.3705 80.0725C74.3636 87.6309 58.0505 106.341 53.5615 129.173L35.9434 218.78Z" fill="#585858" stroke="#4E544D" stroke-width="50.1688"/>
<path d="M237.803 356.73L238.55 366.677C240.956 398.73 278.185 415.092 303.424 395.188L425.222 299.139C427.671 297.208 429.659 294.757 431.043 291.963C434.489 285.005 433.818 276.714 429.299 270.4L320.609 118.546C300.726 90.7657 257.437 98.9459 249.062 132.066L242.884 156.499C241.572 161.685 241.311 167.082 242.115 172.371L254.186 251.757C254.873 256.273 254.784 260.872 253.922 265.358L238.41 346.159C237.742 349.64 237.538 353.195 237.803 356.73Z" fill="#4F564F"/>
</g>
<defs>
<clipPath id="clip0_524_1333">
<rect width="500" height="500" fill="white" transform="translate(0.5 0.520508)"/>
</clipPath>
</defs>
</svg>
