<svg width="1001" height="1001" viewBox="0 0 1001 1001" fill="none" xmlns="http://www.w3.org/2000/svg">
<g clip-path="url(#clip0_442_12)">
<path d="M831.429 665.244L773.03 610.689L705.432 628.915L654.92 660.772L683.472 746.2L723.591 824.971L704.28 836.304L637.38 793.865L605.44 675.619L546.265 665.875L494.918 649.848L489.657 637.962L519.219 572.554L537.822 580.961L607.704 611.864L641.905 616.404L697.746 565.059L758.975 542.557L823.603 577.745L888.807 608.188L831.429 665.244Z" fill="#664D3B" stroke="#61432D" stroke-width="18.6858"/>
<mask id="path-2-outside-1_442_12" maskUnits="userSpaceOnUse" x="463.61" y="629.477" width="452.575" height="443.324" fill="black">
<rect fill="white" x="463.61" y="629.477" width="452.575" height="443.324"/>
<path fill-rule="evenodd" clip-rule="evenodd" d="M555.558 924.955C566.086 934.115 580.994 935.199 593.142 928.877C593.195 928.924 593.249 928.971 593.303 929.018C605.789 939.881 622.803 942.397 637.911 937.167C640.241 944.907 644.653 952.03 651.109 957.647C667.794 972.164 692.566 971.774 710.069 957.915C711.266 959.417 712.613 960.829 714.11 962.131C728.045 974.256 749.656 972.23 762.379 957.607C771.032 947.663 773.345 934.452 769.556 923.204C778.659 922.638 787.69 918.44 794.313 910.828C805.689 897.753 806.107 879.034 796.107 866.55C797.782 853.186 795.281 839.634 788.701 828.014C791.11 825.948 793.402 823.679 795.552 821.208C818.264 795.104 816.509 756.395 791.631 734.75C776.68 721.741 756.78 717.857 738.349 722.495C736.945 715.712 733.455 709.397 727.926 704.587C713.99 692.462 692.379 694.487 679.656 709.11C674.33 715.232 671.406 722.591 670.829 729.968C655.637 727.959 639.424 733.66 628.249 746.504C621.94 753.755 618.108 762.282 616.703 770.99C594.994 766.757 571.158 774.373 555.026 792.915C533.391 817.781 533.132 853.652 553.181 876.734C540.649 891.354 541.688 912.888 555.558 924.955Z"/>
</mask>
<path fill-rule="evenodd" clip-rule="evenodd" d="M555.558 924.955C566.086 934.115 580.994 935.199 593.142 928.877C593.195 928.924 593.249 928.971 593.303 929.018C605.789 939.881 622.803 942.397 637.911 937.167C640.241 944.907 644.653 952.03 651.109 957.647C667.794 972.164 692.566 971.774 710.069 957.915C711.266 959.417 712.613 960.829 714.11 962.131C728.045 974.256 749.656 972.23 762.379 957.607C771.032 947.663 773.345 934.452 769.556 923.204C778.659 922.638 787.69 918.44 794.313 910.828C805.689 897.753 806.107 879.034 796.107 866.55C797.782 853.186 795.281 839.634 788.701 828.014C791.11 825.948 793.402 823.679 795.552 821.208C818.264 795.104 816.509 756.395 791.631 734.75C776.68 721.741 756.78 717.857 738.349 722.495C736.945 715.712 733.455 709.397 727.926 704.587C713.99 692.462 692.379 694.487 679.656 709.11C674.33 715.232 671.406 722.591 670.829 729.968C655.637 727.959 639.424 733.66 628.249 746.504C621.94 753.755 618.108 762.282 616.703 770.99C594.994 766.757 571.158 774.373 555.026 792.915C533.391 817.781 533.132 853.652 553.181 876.734C540.649 891.354 541.688 912.888 555.558 924.955Z" fill="#296C38"/>
<path d="M593.142 928.877L605.475 914.839L595.863 906.395L584.514 912.302L593.142 928.877ZM555.558 924.955L543.292 939.052L543.292 939.052L555.558 924.955ZM593.303 929.018L581.038 943.115L581.038 943.115L593.303 929.018ZM637.911 937.167L655.803 931.781L650.193 913.143L631.799 919.51L637.911 937.167ZM651.109 957.647L663.374 943.55L663.374 943.55L651.109 957.647ZM710.069 957.915L724.683 946.27L713.074 931.701L698.469 943.265L710.069 957.915ZM714.11 962.131L701.844 976.228L701.844 976.228L714.11 962.131ZM762.379 957.607L748.282 945.342L762.379 957.607ZM769.556 923.204L768.397 904.554L744.067 906.067L751.848 929.168L769.556 923.204ZM794.313 910.828L808.41 923.093L794.313 910.828ZM796.107 866.55L777.566 864.227L776.584 872.066L781.523 878.232L796.107 866.55ZM788.701 828.014L776.538 813.829L764.863 823.839L772.441 837.221L788.701 828.014ZM795.552 821.208L809.649 833.474L809.649 833.474L795.552 821.208ZM791.631 734.75L779.366 748.847L779.366 748.847L791.631 734.75ZM738.349 722.495L720.051 726.283L724.004 745.373L742.909 740.615L738.349 722.495ZM727.926 704.587L740.191 690.49L740.191 690.49L727.926 704.587ZM679.656 709.11L665.559 696.845L665.559 696.845L679.656 709.11ZM670.829 729.968L668.379 748.492L687.919 751.076L689.457 731.426L670.829 729.968ZM628.249 746.504L614.152 734.239L614.152 734.239L628.249 746.504ZM616.703 770.99L613.126 789.331L632.075 793.026L635.15 773.967L616.703 770.99ZM555.026 792.915L540.929 780.65L540.929 780.65L555.026 792.915ZM553.181 876.734L567.368 888.895L577.861 876.653L567.288 864.48L553.181 876.734ZM584.514 912.302C578.553 915.404 572.043 914.53 567.823 910.858L543.292 939.052C560.128 953.7 583.435 954.994 601.769 945.452L584.514 912.302ZM605.568 914.921C605.537 914.894 605.506 914.866 605.475 914.839L580.808 942.914C580.885 942.981 580.961 943.048 581.038 943.115L605.568 914.921ZM631.799 919.51C622.458 922.742 612.58 921.022 605.568 914.921L581.038 943.115C598.998 958.741 623.147 962.051 644.023 954.825L631.799 919.51ZM663.374 943.55C659.689 940.344 657.16 936.287 655.803 931.781L620.018 942.554C623.321 953.526 629.618 963.717 638.844 971.744L663.374 943.55ZM698.469 943.265C687.383 952.043 672.682 951.648 663.374 943.55L638.844 971.744C662.907 992.68 697.748 991.505 721.669 972.564L698.469 943.265ZM726.375 948.034C725.739 947.481 725.177 946.89 724.683 946.27L695.456 969.56C697.355 971.943 699.487 974.177 701.844 976.228L726.375 948.034ZM748.282 945.342C741.77 952.827 731.893 952.835 726.375 948.034L701.844 976.228C724.197 995.676 757.542 991.634 776.476 969.873L748.282 945.342ZM751.848 929.168C753.508 934.098 752.602 940.377 748.282 945.342L776.476 969.873C789.461 954.949 793.182 934.807 787.265 917.239L751.848 929.168ZM780.216 898.563C776.919 902.352 772.571 904.295 768.397 904.554L770.716 941.854C784.748 940.981 798.461 934.527 808.41 923.093L780.216 898.563ZM781.523 878.232C785.578 883.294 785.98 891.938 780.216 898.563L808.41 923.093C825.398 903.568 826.636 874.774 810.691 854.868L781.523 878.232ZM772.441 837.221C776.946 845.177 778.765 854.658 777.566 864.227L814.648 868.873C816.798 851.714 813.616 834.091 804.961 818.806L772.441 837.221ZM781.455 808.943C779.903 810.726 778.258 812.354 776.538 813.829L800.864 842.199C803.962 839.543 806.9 836.632 809.649 833.474L781.455 808.943ZM779.366 748.847C795.826 763.168 797.957 789.977 781.455 808.943L809.649 833.474C838.572 800.231 837.192 749.622 803.897 720.653L779.366 748.847ZM742.909 740.615C755.901 737.346 769.396 740.172 779.366 748.847L803.897 720.653C783.964 703.311 757.659 698.367 733.789 704.374L742.909 740.615ZM715.661 718.684C717.947 720.673 719.433 723.294 720.051 726.283L756.647 718.706C754.458 708.131 748.963 698.122 740.191 690.49L715.661 718.684ZM693.753 721.375C700.266 713.89 710.143 713.882 715.661 718.684L740.191 690.49C717.838 671.041 684.493 675.084 665.559 696.845L693.753 721.375ZM689.457 731.426C689.727 727.98 691.099 724.426 693.753 721.375L665.559 696.845C657.561 706.038 653.085 717.201 652.2 728.509L689.457 731.426ZM642.346 758.769C649.404 750.657 659.403 747.305 668.379 748.492L673.278 711.443C651.872 708.613 629.443 716.664 614.152 734.239L642.346 758.769ZM635.15 773.967C636.008 768.647 638.36 763.35 642.346 758.769L614.152 734.239C605.52 744.16 600.207 755.917 598.255 768.014L635.15 773.967ZM569.123 805.18C580.901 791.643 598.014 786.384 613.126 789.331L620.279 752.65C591.974 747.13 561.414 757.104 540.929 780.65L569.123 805.18ZM567.288 864.48C553.716 848.855 553.227 823.45 569.123 805.18L540.929 780.65C513.555 812.112 512.549 858.45 539.074 888.987L567.288 864.48ZM567.823 910.858C562.329 906.079 560.959 896.371 567.368 888.895L538.994 864.572C520.338 886.336 521.047 919.698 543.292 939.052L567.823 910.858Z" fill="#07573A" mask="url(#path-2-outside-1_442_12)"/>
<mask id="path-4-outside-2_442_12" maskUnits="userSpaceOnUse" x="531.568" y="700.514" width="296.478" height="286.857" fill="black">
<rect fill="white" x="531.568" y="700.514" width="296.478" height="286.857"/>
<path fill-rule="evenodd" clip-rule="evenodd" d="M727.626 778.011C736.57 775.114 746.543 776.793 753.756 783.327C764.71 793.25 765.15 810.612 754.738 822.106C754.682 822.168 754.626 822.229 754.57 822.29C755.312 832.08 753.101 842.209 747.901 851.223C749.429 862.058 746.16 873.699 738.006 882.7C729.416 892.183 717.375 896.561 705.904 895.535C709.689 902.768 708.62 912.131 702.576 918.803C694.924 927.25 682.195 928.187 674.144 920.894C669.973 917.115 667.876 911.868 667.889 906.514C661.798 906.36 655.819 904.163 651.047 899.84C648.492 897.526 646.509 894.807 645.103 891.853C631.302 903.826 610.947 904.313 597.695 892.309C585.977 881.694 583.43 864.591 590.294 850.462C589.076 849.78 587.918 848.954 586.843 847.98C578.792 840.688 578.47 827.928 586.122 819.481C593.773 811.033 606.503 810.097 614.553 817.389C614.92 817.722 615.271 818.066 615.606 818.42C617.19 815.269 619.228 812.266 621.724 809.51C625.478 805.366 629.89 802.197 634.626 800.028C635.08 795.751 636.88 791.519 640.045 788.025C646.742 780.632 657.328 778.992 665.263 783.586C668.248 781.301 671.694 779.907 675.21 779.434C676.43 775.577 678.497 771.888 681.42 768.661C691.833 757.166 709.153 755.892 720.108 765.815C723.837 769.193 726.348 773.433 727.626 778.011Z"/>
</mask>
<path fill-rule="evenodd" clip-rule="evenodd" d="M727.626 778.011C736.57 775.114 746.543 776.793 753.756 783.327C764.71 793.25 765.15 810.612 754.738 822.106C754.682 822.168 754.626 822.229 754.57 822.29C755.312 832.08 753.101 842.209 747.901 851.223C749.429 862.058 746.16 873.699 738.006 882.7C729.416 892.183 717.375 896.561 705.904 895.535C709.689 902.768 708.62 912.131 702.576 918.803C694.924 927.25 682.195 928.187 674.144 920.894C669.973 917.115 667.876 911.868 667.889 906.514C661.798 906.36 655.819 904.163 651.047 899.84C648.492 897.526 646.509 894.807 645.103 891.853C631.302 903.826 610.947 904.313 597.695 892.309C585.977 881.694 583.43 864.591 590.294 850.462C589.076 849.78 587.918 848.954 586.843 847.98C578.792 840.688 578.47 827.928 586.122 819.481C593.773 811.033 606.503 810.097 614.553 817.389C614.92 817.722 615.271 818.066 615.606 818.42C617.19 815.269 619.228 812.266 621.724 809.51C625.478 805.366 629.89 802.197 634.626 800.028C635.08 795.751 636.88 791.519 640.045 788.025C646.742 780.632 657.328 778.992 665.263 783.586C668.248 781.301 671.694 779.907 675.21 779.434C676.43 775.577 678.497 771.888 681.42 768.661C691.833 757.166 709.153 755.892 720.108 765.815C723.837 769.193 726.348 773.433 727.626 778.011Z" fill="#2E7E40"/>
<path d="M753.756 783.327L741.211 797.176L753.756 783.327ZM727.626 778.011L709.629 783.038L714.866 801.785L733.384 795.788L727.626 778.011ZM754.738 822.106L740.889 809.562L740.888 809.562L754.738 822.106ZM754.57 822.29L740.826 809.631L735.324 815.604L735.937 823.702L754.57 822.29ZM747.901 851.223L731.715 841.885L728.499 847.46L729.398 853.833L747.901 851.223ZM738.006 882.7L751.855 895.245L738.006 882.7ZM705.904 895.535L707.569 876.923L673.483 873.874L689.347 904.197L705.904 895.535ZM702.576 918.803L688.727 906.258L688.727 906.258L702.576 918.803ZM674.144 920.894L661.6 934.743L661.6 934.743L674.144 920.894ZM667.889 906.514L686.575 906.559L686.619 888.295L668.361 887.834L667.889 906.514ZM651.047 899.84L663.592 885.991L663.592 885.991L651.047 899.84ZM645.103 891.853L661.974 883.821L651.414 861.639L632.857 877.739L645.103 891.853ZM597.695 892.309L585.15 906.158L585.15 906.158L597.695 892.309ZM590.294 850.462L607.101 858.628L614.806 842.769L599.421 834.157L590.294 850.462ZM586.843 847.98L599.388 834.131L599.388 834.131L586.843 847.98ZM586.122 819.481L599.97 832.026L599.97 832.026L586.122 819.481ZM614.553 817.389L627.098 803.541L627.098 803.54L614.553 817.389ZM615.606 818.42L602.027 831.256L620.338 850.629L632.304 826.808L615.606 818.42ZM621.724 809.51L635.573 822.055L635.573 822.055L621.724 809.51ZM634.626 800.028L642.408 817.016L652.084 812.584L653.207 802L634.626 800.028ZM640.045 788.025L653.894 800.57L653.894 800.57L640.045 788.025ZM665.263 783.586L655.9 799.757L666.707 806.014L676.622 798.423L665.263 783.586ZM675.21 779.434L677.702 797.953L689.45 796.372L693.025 785.069L675.21 779.434ZM681.42 768.661L695.269 781.205L695.269 781.205L681.42 768.661ZM720.108 765.815L732.652 751.966L732.652 751.966L720.108 765.815ZM766.301 769.478C753.71 758.073 736.619 755.457 721.869 760.234L733.384 795.788C736.521 794.771 739.376 795.513 741.211 797.176L766.301 769.478ZM768.586 834.651C785.351 816.144 785.524 786.891 766.301 769.478L741.211 797.176C743.896 799.608 744.949 805.08 740.889 809.562L768.586 834.651ZM768.314 834.949C768.405 834.85 768.496 834.751 768.587 834.651L740.888 809.562C740.868 809.585 740.847 809.608 740.826 809.631L768.314 834.949ZM764.086 860.561C771.169 848.285 774.228 834.408 773.202 820.877L735.937 823.702C736.396 829.752 735.034 836.133 731.715 841.885L764.086 860.561ZM751.855 895.245C763.762 882.1 768.7 864.896 766.403 848.613L729.398 853.833C730.158 859.22 728.558 865.297 724.157 870.155L751.855 895.245ZM704.239 914.146C721.519 915.692 739.312 909.091 751.855 895.245L724.157 870.155C719.519 875.275 713.231 877.43 707.569 876.923L704.239 914.146ZM716.425 931.347C727.583 919.029 729.972 901.23 722.461 886.873L689.347 904.197C689.405 904.307 689.656 905.232 688.727 906.258L716.425 931.347ZM661.6 934.743C677.919 949.526 702.421 946.807 716.425 931.347L688.727 906.258C688.169 906.875 687.563 907.084 687.139 907.115C686.928 907.131 686.801 907.1 686.755 907.085C686.726 907.075 686.717 907.07 686.689 907.045L661.6 934.743ZM649.203 906.469C649.179 916.732 653.23 927.162 661.6 934.743L686.689 907.045C686.667 907.026 686.661 907.016 686.661 907.016C686.659 907.013 686.652 907.003 686.641 906.978C686.619 906.927 686.574 906.788 686.575 906.559L649.203 906.469ZM638.502 913.689C646.782 921.189 657.12 924.934 667.417 925.194L668.361 887.834C666.477 887.787 664.855 887.136 663.592 885.991L638.502 913.689ZM628.231 899.885C630.662 904.991 634.098 909.699 638.502 913.689L663.592 885.991C662.887 885.353 662.357 884.624 661.974 883.821L628.231 899.885ZM585.15 906.158C606.008 925.051 637.034 923.591 657.348 905.967L632.857 877.739C625.57 884.061 615.886 883.575 610.239 878.46L585.15 906.158ZM573.487 842.297C563.327 863.21 566.73 889.472 585.15 906.158L610.239 878.46C605.224 873.916 603.533 865.972 607.101 858.628L573.487 842.297ZM574.298 861.829C576.425 863.756 578.732 865.404 581.167 866.768L599.421 834.157C599.419 834.156 599.416 834.154 599.412 834.152C599.408 834.149 599.4 834.143 599.388 834.131L574.298 861.829ZM572.273 806.936C558.269 822.396 557.978 847.046 574.298 861.829L599.388 834.131C599.36 834.106 599.355 834.098 599.342 834.069C599.322 834.025 599.279 833.902 599.274 833.691C599.263 833.265 599.412 832.642 599.97 832.026L572.273 806.936ZM627.098 803.54C610.778 788.758 586.277 791.476 572.273 806.936L599.97 832.026C600.529 831.409 601.134 831.199 601.559 831.168C601.769 831.153 601.896 831.184 601.942 831.199C601.972 831.209 601.981 831.213 602.008 831.238L627.098 803.54ZM629.186 805.585C628.52 804.88 627.823 804.198 627.098 803.541L602.008 831.238C602.017 831.246 602.023 831.252 602.027 831.256L629.186 805.585ZM632.304 826.808C633.135 825.154 634.217 823.551 635.573 822.055L607.875 796.965C604.239 800.98 601.245 805.383 598.909 810.033L632.304 826.808ZM635.573 822.055C637.607 819.809 639.948 818.143 642.408 817.016L626.844 783.04C619.832 786.252 613.349 790.923 607.875 796.965L635.573 822.055ZM626.196 775.481C620.332 781.955 616.909 789.905 616.044 798.056L653.207 802C653.25 801.596 653.429 801.083 653.894 800.57L626.196 775.481ZM674.626 767.416C658.703 758.196 638.522 761.874 626.196 775.481L653.894 800.57C654.385 800.028 654.908 799.802 655.318 799.733C655.526 799.697 655.684 799.707 655.78 799.723C655.827 799.731 655.857 799.74 655.874 799.746C655.89 799.752 655.898 799.756 655.9 799.757L674.626 767.416ZM672.718 760.915C666.002 761.819 659.493 764.47 653.903 768.75L676.622 798.423C677.002 798.132 677.387 797.995 677.702 797.953L672.718 760.915ZM667.572 756.116C662.823 761.358 659.414 767.412 657.394 773.799L693.025 785.069C693.445 783.742 694.172 782.417 695.269 781.205L667.572 756.116ZM732.652 751.966C713.429 734.552 684.336 737.609 667.572 756.116L695.269 781.205C699.329 776.723 704.878 777.231 707.563 779.663L732.652 751.966ZM745.623 772.984C743.436 765.154 739.104 757.81 732.652 751.966L707.563 779.663C708.57 780.576 709.259 781.712 709.629 783.038L745.623 772.984Z" fill="#0A5F40" mask="url(#path-4-outside-2_442_12)"/>
<mask id="path-6-outside-3_442_12" maskUnits="userSpaceOnUse" x="614.392" y="288.891" width="462.91" height="476.384" fill="black">
<rect fill="white" x="614.392" y="288.891" width="462.91" height="476.384"/>
<path fill-rule="evenodd" clip-rule="evenodd" d="M813.449 595.948C812.436 596.68 811.442 597.446 810.47 598.248C810.448 597.123 810.371 595.998 810.238 594.876C811.304 595.255 812.374 595.612 813.449 595.948ZM901.544 690.463C914.025 676.119 918.4 657.377 915.168 639.511C920.589 637.749 925.57 634.579 929.53 630.027C933.762 625.163 936.27 619.364 937.121 613.334C945.738 612.84 954.021 609.119 959.988 602.26C972.113 588.325 970.088 566.714 955.465 553.991C954.411 553.075 953.321 552.229 952.201 551.455C955.602 549.268 958.743 546.579 961.517 543.391C978.015 524.428 975.259 495.022 955.362 477.71C947.621 470.975 938.427 467.063 929.109 465.912C929.337 457.232 927.763 448.459 924.445 440.186C930.191 426.95 926.659 410.596 914.697 400.19C904.172 391.032 889.989 388.975 878.346 393.738C876.378 390.324 873.805 387.158 870.644 384.407C856.021 371.685 834.338 372.668 822.213 386.603C820.385 388.705 818.878 390.98 817.688 393.374C792.093 376.745 758.301 380.247 738.619 402.869C716.974 427.747 720.589 466.326 746.694 489.039C748.486 490.599 750.338 492.043 752.24 493.372C749.334 495.391 746.637 497.791 744.219 500.571C743.985 500.839 743.756 501.109 743.53 501.381C738.9 503.231 734.662 506.153 731.202 510.13C719.077 524.065 721.102 545.676 735.725 558.399C740.086 562.193 745.075 564.769 750.252 566.145L750.374 566.252C751.746 567.446 753.165 568.551 754.622 569.569C752.819 570.914 751.135 572.468 749.603 574.228C737.479 588.163 739.504 609.774 754.127 622.497C764.765 631.753 779.14 633.755 790.853 628.793C784.788 651.529 792.156 677.357 811.851 694.492C838.943 718.063 879.1 716.26 901.544 690.463Z"/>
</mask>
<path fill-rule="evenodd" clip-rule="evenodd" d="M813.449 595.948C812.436 596.68 811.442 597.446 810.47 598.248C810.448 597.123 810.371 595.998 810.238 594.876C811.304 595.255 812.374 595.612 813.449 595.948ZM901.544 690.463C914.025 676.119 918.4 657.377 915.168 639.511C920.589 637.749 925.57 634.579 929.53 630.027C933.762 625.163 936.27 619.364 937.121 613.334C945.738 612.84 954.021 609.119 959.988 602.26C972.113 588.325 970.088 566.714 955.465 553.991C954.411 553.075 953.321 552.229 952.201 551.455C955.602 549.268 958.743 546.579 961.517 543.391C978.015 524.428 975.259 495.022 955.362 477.71C947.621 470.975 938.427 467.063 929.109 465.912C929.337 457.232 927.763 448.459 924.445 440.186C930.191 426.95 926.659 410.596 914.697 400.19C904.172 391.032 889.989 388.975 878.346 393.738C876.378 390.324 873.805 387.158 870.644 384.407C856.021 371.685 834.338 372.668 822.213 386.603C820.385 388.705 818.878 390.98 817.688 393.374C792.093 376.745 758.301 380.247 738.619 402.869C716.974 427.747 720.589 466.326 746.694 489.039C748.486 490.599 750.338 492.043 752.24 493.372C749.334 495.391 746.637 497.791 744.219 500.571C743.985 500.839 743.756 501.109 743.53 501.381C738.9 503.231 734.662 506.153 731.202 510.13C719.077 524.065 721.102 545.676 735.725 558.399C740.086 562.193 745.075 564.769 750.252 566.145L750.374 566.252C751.746 567.446 753.165 568.551 754.622 569.569C752.819 570.914 751.135 572.468 749.603 574.228C737.479 588.163 739.504 609.774 754.127 622.497C764.765 631.753 779.14 633.755 790.853 628.793C784.788 651.529 792.156 677.357 811.851 694.492C838.943 718.063 879.1 716.26 901.544 690.463Z" fill="#296C38"/>
<path d="M810.47 598.248L791.788 598.612L792.54 637.248L822.357 612.666L810.47 598.248ZM813.449 595.948L824.392 611.094L854.645 589.236L819.018 578.111L813.449 595.948ZM810.238 594.876L816.501 577.271L788.147 567.184L791.682 597.071L810.238 594.876ZM915.168 639.511L909.393 621.74L893.876 626.782L896.781 642.837L915.168 639.511ZM901.544 690.463L887.447 678.198L887.447 678.198L901.544 690.463ZM929.53 630.027L915.433 617.762L915.433 617.762L929.53 630.027ZM937.121 613.334L936.052 594.679L920.757 595.555L918.618 610.725L937.121 613.334ZM959.988 602.26L974.085 614.526L974.085 614.526L959.988 602.26ZM955.465 553.991L943.199 568.088L943.199 568.088L955.465 553.991ZM952.201 551.455L942.096 535.737L918.526 550.891L941.576 566.825L952.201 551.455ZM961.517 543.391L975.614 555.656L975.614 555.656L961.517 543.391ZM955.362 477.71L967.627 463.613L967.627 463.613L955.362 477.71ZM929.109 465.912L910.43 465.423L909.986 482.379L926.82 484.457L929.109 465.912ZM924.445 440.186L907.305 432.745L904.198 439.901L907.102 447.142L924.445 440.186ZM914.697 400.19L902.432 414.287L902.432 414.287L914.697 400.19ZM878.346 393.738L862.157 403.07L870.31 417.213L885.42 411.033L878.346 393.738ZM870.644 384.407L882.909 370.31L882.909 370.31L870.644 384.407ZM822.213 386.603L836.31 398.868L836.31 398.868L822.213 386.603ZM817.688 393.374L807.508 409.043L825.086 420.464L834.42 401.693L817.688 393.374ZM738.619 402.869L724.522 390.604L724.522 390.604L738.619 402.869ZM746.694 489.039L758.959 474.942L758.959 474.942L746.694 489.039ZM752.24 493.372L762.902 508.717L784.922 493.418L762.945 478.057L752.24 493.372ZM744.219 500.571L758.315 512.836L758.316 512.836L744.219 500.571ZM743.53 501.381L750.462 518.734L754.882 516.968L757.918 513.304L743.53 501.381ZM731.202 510.13L717.105 497.864L717.105 497.864L731.202 510.13ZM735.725 558.399L747.99 544.302L747.99 544.302L735.725 558.399ZM750.252 566.145L762.539 552.067L759.26 549.205L755.053 548.087L750.252 566.145ZM750.374 566.252L738.086 580.329L738.097 580.339L738.109 580.349L750.374 566.252ZM754.622 569.569L765.797 584.544L786.54 569.065L765.319 554.248L754.622 569.569ZM749.603 574.228L735.506 561.962L735.506 561.962L749.603 574.228ZM754.127 622.497L741.862 636.594L741.862 636.594L754.127 622.497ZM790.853 628.793L808.908 633.609L818.761 596.676L783.564 611.587L790.853 628.793ZM811.851 694.492L824.116 680.395L824.116 680.395L811.851 694.492ZM822.357 612.666C823.021 612.118 823.7 611.594 824.392 611.094L802.505 580.802C801.172 581.766 799.863 582.775 798.584 583.83L822.357 612.666ZM791.682 597.071C791.743 597.588 791.778 598.102 791.788 598.612L829.152 597.884C829.119 596.144 828.999 594.408 828.795 592.681L791.682 597.071ZM819.018 578.111C818.176 577.848 817.337 577.568 816.501 577.271L803.975 612.481C805.271 612.942 806.573 613.376 807.879 613.784L819.018 578.111ZM896.781 642.837C899.083 655.561 895.925 668.455 887.447 678.198L915.641 702.729C932.125 683.784 937.718 659.193 933.555 636.184L896.781 642.837ZM915.433 617.762C913.783 619.658 911.721 620.983 909.393 621.74L920.943 657.282C929.458 654.515 937.356 649.5 943.627 642.292L915.433 617.762ZM918.618 610.725C918.25 613.335 917.192 615.74 915.433 617.762L943.627 642.292C950.332 634.586 954.291 625.393 955.623 615.944L918.618 610.725ZM945.891 589.995C943.448 592.803 939.988 594.453 936.052 594.679L938.19 631.989C951.488 631.227 964.593 625.435 974.085 614.526L945.891 589.995ZM943.199 568.088C950.684 574.6 950.692 584.477 945.891 589.995L974.085 614.526C993.534 592.172 989.491 558.828 967.73 539.894L943.199 568.088ZM941.576 566.825C942.127 567.207 942.669 567.627 943.199 568.088L967.73 539.894C966.153 538.522 964.516 537.252 962.827 536.084L941.576 566.825ZM947.42 531.126C945.822 532.962 944.03 534.494 942.096 535.737L962.306 567.172C967.175 564.042 971.665 560.195 975.614 555.656L947.42 531.126ZM943.097 491.807C955.856 502.908 956.595 520.581 947.42 531.126L975.614 555.656C999.436 528.276 994.663 487.136 967.627 463.613L943.097 491.807ZM926.82 484.457C932.501 485.159 938.208 487.554 943.097 491.807L967.627 463.613C957.034 454.397 944.352 448.967 931.399 447.367L926.82 484.457ZM907.102 447.142C909.484 453.079 910.59 459.321 910.43 465.423L947.789 466.402C948.084 455.143 946.043 443.838 941.788 433.229L907.102 447.142ZM902.432 414.287C908.454 419.525 909.698 427.232 907.305 432.745L941.585 447.627C950.684 426.668 944.864 401.668 926.963 386.093L902.432 414.287ZM885.42 411.033C890.451 408.975 897.167 409.706 902.432 414.287L926.963 386.093C911.177 372.358 889.527 368.976 871.272 376.443L885.42 411.033ZM858.379 398.504C859.963 399.883 861.215 401.435 862.157 403.07L894.534 384.406C891.541 379.213 887.647 374.433 882.909 370.31L858.379 398.504ZM836.31 398.868C841.111 393.35 850.894 391.992 858.379 398.504L882.909 370.31C861.148 351.377 827.564 351.985 808.116 374.338L836.31 398.868ZM834.42 401.693C834.91 400.706 835.535 399.759 836.31 398.868L808.116 374.338C805.234 377.65 802.846 381.254 800.956 385.054L834.42 401.693ZM752.716 415.134C765.759 400.144 789.031 397.039 807.508 409.043L827.868 377.705C795.156 356.451 750.844 360.351 724.522 390.604L752.716 415.134ZM758.959 474.942C739.993 458.44 738.395 431.595 752.716 415.134L724.522 390.604C695.553 423.899 701.186 474.213 734.429 503.136L758.959 474.942ZM762.945 478.057C761.584 477.105 760.253 476.068 758.959 474.942L734.429 503.136C736.72 505.13 739.093 506.98 741.535 508.687L762.945 478.057ZM758.316 512.836C759.71 511.233 761.251 509.864 762.902 508.717L741.578 478.026C737.418 480.917 733.564 484.349 730.122 488.305L758.316 512.836ZM757.918 513.304C758.048 513.147 758.18 512.991 758.315 512.836L730.122 488.305C729.79 488.687 729.463 489.071 729.142 489.459L757.918 513.304ZM745.299 522.395C746.747 520.731 748.501 519.517 750.462 518.734L736.598 484.029C729.298 486.945 722.577 491.575 717.105 497.864L745.299 522.395ZM747.99 544.302C740.506 537.79 740.498 527.913 745.299 522.395L717.105 497.864C697.656 520.217 701.699 553.562 723.46 572.496L747.99 544.302ZM755.053 548.087C752.598 547.434 750.171 546.199 747.99 544.302L723.46 572.496C730.002 578.188 737.553 582.103 745.45 584.203L755.053 548.087ZM762.661 552.174L762.539 552.067L737.964 580.222L738.086 580.329L762.661 552.174ZM765.319 554.248C764.406 553.61 763.511 552.913 762.639 552.154L738.109 580.349C739.982 581.979 741.924 583.493 743.924 584.889L765.319 554.248ZM763.7 586.493C764.35 585.746 765.053 585.099 765.797 584.544L743.447 554.593C740.584 556.729 737.919 559.189 735.506 561.962L763.7 586.493ZM766.392 608.4C758.907 601.888 758.899 592.011 763.7 586.493L735.506 561.962C716.058 584.316 720.1 617.661 741.862 636.594L766.392 608.4ZM783.564 611.587C778.517 613.725 771.716 613.032 766.392 608.4L741.862 636.594C757.815 650.474 779.763 653.784 798.142 645.998L783.564 611.587ZM824.116 680.395C809.726 667.874 804.707 649.354 808.908 633.609L772.799 623.976C764.868 653.705 774.587 686.839 799.585 708.589L824.116 680.395ZM887.447 678.198C872.336 695.566 844.081 697.766 824.116 680.395L799.585 708.589C833.804 738.361 885.864 736.954 915.641 702.729L887.447 678.198Z" fill="#07573A" mask="url(#path-6-outside-3_442_12)"/>
<mask id="path-8-outside-4_442_12" maskUnits="userSpaceOnUse" x="683.369" y="368.05" width="290.343" height="298.99" fill="black">
<rect fill="white" x="683.369" y="368.05" width="290.343" height="298.99"/>
<path fill-rule="evenodd" clip-rule="evenodd" d="M907.273 543.311C907.926 543.763 908.562 544.256 909.176 544.791C917.707 552.213 918.888 564.82 911.815 572.949C908.334 576.95 903.503 579.121 898.477 579.409C897.981 582.927 896.518 586.309 894.049 589.147C887.445 596.737 875.978 597.74 867.543 591.797C866.478 593.61 865.233 595.347 863.808 596.986C853.355 609 836.316 612.093 821.827 605.855C814.76 609.596 805.591 608.675 798.932 602.881C790.401 595.459 789.22 582.852 796.293 574.722C796.867 574.062 797.479 573.452 798.121 572.892C797.76 567.79 798.454 562.662 800.237 557.858C796.425 556.719 792.763 554.752 789.535 551.943L789.464 551.881C786.444 551.078 783.534 549.576 780.989 547.362C772.459 539.94 771.277 527.333 778.35 519.204C780.369 516.884 782.841 515.179 785.542 514.1C785.674 513.941 785.808 513.784 785.944 513.627C787.759 511.541 789.844 509.821 792.11 508.47C792.857 505.793 793.85 503.174 795.093 500.647C795.055 500.05 795.031 499.453 795.022 498.856C789.234 497.405 783.645 494.574 778.778 490.34C762.973 476.589 760.775 453.242 773.869 438.194C786.962 423.145 810.388 422.093 826.193 435.844C829.266 438.517 831.825 441.554 833.856 444.822C841.139 438.981 852.065 439.223 859.695 445.861C867.479 452.634 869.144 463.722 864.003 471.788C871.251 466.815 881.476 467.348 888.726 473.656C894.733 478.881 897.096 486.678 895.499 493.671C900.347 494.574 905.072 496.772 909.116 500.291C920.724 510.39 922.332 527.545 912.707 538.607C911.089 540.467 909.257 542.036 907.273 543.311ZM858.805 477.169C858.456 477.408 858.101 477.634 857.74 477.848C857.871 478.002 858.002 478.158 858.131 478.314C858.341 477.926 858.565 477.544 858.805 477.169Z"/>
</mask>
<path fill-rule="evenodd" clip-rule="evenodd" d="M907.273 543.311C907.926 543.763 908.562 544.256 909.176 544.791C917.707 552.213 918.888 564.82 911.815 572.949C908.334 576.95 903.503 579.121 898.477 579.409C897.981 582.927 896.518 586.309 894.049 589.147C887.445 596.737 875.978 597.74 867.543 591.797C866.478 593.61 865.233 595.347 863.808 596.986C853.355 609 836.316 612.093 821.827 605.855C814.76 609.596 805.591 608.675 798.932 602.881C790.401 595.459 789.22 582.852 796.293 574.722C796.867 574.062 797.479 573.452 798.121 572.892C797.76 567.79 798.454 562.662 800.237 557.858C796.425 556.719 792.763 554.752 789.535 551.943L789.464 551.881C786.444 551.078 783.534 549.576 780.989 547.362C772.459 539.94 771.277 527.333 778.35 519.204C780.369 516.884 782.841 515.179 785.542 514.1C785.674 513.941 785.808 513.784 785.944 513.627C787.759 511.541 789.844 509.821 792.11 508.47C792.857 505.793 793.85 503.174 795.093 500.647C795.055 500.05 795.031 499.453 795.022 498.856C789.234 497.405 783.645 494.574 778.778 490.34C762.973 476.589 760.775 453.242 773.869 438.194C786.962 423.145 810.388 422.093 826.193 435.844C829.266 438.517 831.825 441.554 833.856 444.822C841.139 438.981 852.065 439.223 859.695 445.861C867.479 452.634 869.144 463.722 864.003 471.788C871.251 466.815 881.476 467.348 888.726 473.656C894.733 478.881 897.096 486.678 895.499 493.671C900.347 494.574 905.072 496.772 909.116 500.291C920.724 510.39 922.332 527.545 912.707 538.607C911.089 540.467 909.257 542.036 907.273 543.311ZM858.805 477.169C858.456 477.408 858.101 477.634 857.74 477.848C857.871 478.002 858.002 478.158 858.131 478.314C858.341 477.926 858.565 477.544 858.805 477.169Z" fill="#2E7E40"/>
<path d="M909.176 544.791L896.911 558.888L896.911 558.888L909.176 544.791ZM907.273 543.311L897.168 527.594L873.597 542.747L896.647 558.682L907.273 543.311ZM911.815 572.949L925.912 585.215L925.912 585.215L911.815 572.949ZM898.477 579.409L897.406 560.754L882.114 561.632L879.975 576.799L898.477 579.409ZM894.049 589.147L908.146 601.412L908.146 601.412L894.049 589.147ZM867.543 591.797L878.305 576.522L861.717 564.835L851.434 582.329L867.543 591.797ZM863.808 596.986L849.711 584.72L849.711 584.72L863.808 596.986ZM821.827 605.855L829.216 588.692L820.995 585.153L813.084 589.341L821.827 605.855ZM798.932 602.881L786.667 616.978L786.667 616.978L798.932 602.881ZM796.293 574.722L782.196 562.457L782.196 562.457L796.293 574.722ZM798.121 572.892L810.4 586.977L817.419 580.858L816.76 571.57L798.121 572.892ZM800.237 557.858L817.755 564.36L824.694 545.662L805.585 539.954L800.237 557.858ZM789.535 551.943L777.248 566.021L777.259 566.03L777.27 566.04L789.535 551.943ZM789.464 551.881L801.751 537.803L798.472 534.941L794.265 533.823L789.464 551.881ZM780.989 547.362L793.254 533.265L793.254 533.265L780.989 547.362ZM778.35 519.204L792.447 531.469L792.447 531.469L778.35 519.204ZM785.542 514.1L792.474 531.453L796.894 529.687L799.93 526.023L785.542 514.1ZM785.944 513.627L800.041 525.892L800.041 525.892L785.944 513.627ZM792.11 508.47L801.677 524.521L808.098 520.693L810.108 513.493L792.11 508.47ZM795.093 500.647L811.861 508.894L814.064 504.415L813.74 499.434L795.093 500.647ZM795.022 498.856L813.706 498.581L813.495 484.222L799.565 480.73L795.022 498.856ZM778.778 490.34L791.043 476.243L791.043 476.243L778.778 490.34ZM773.869 438.194L787.966 450.459L787.966 450.459L773.869 438.194ZM826.193 435.844L813.928 449.941L813.928 449.941L826.193 435.844ZM833.856 444.822L817.988 454.688L829.112 472.579L845.547 459.399L833.856 444.822ZM859.695 445.861L871.96 431.764L871.96 431.764L859.695 445.861ZM864.003 471.788L848.246 461.744L874.574 487.196L864.003 471.788ZM888.726 473.656L876.461 487.753L876.461 487.753L888.726 473.656ZM895.499 493.671L877.282 489.514L872.953 508.481L892.079 512.042L895.499 493.671ZM909.116 500.291L896.851 514.388L896.851 514.388L909.116 500.291ZM912.707 538.607L926.804 550.872L926.804 550.872L912.707 538.607ZM857.74 477.848L848.235 461.759L829.103 473.062L843.521 489.972L857.74 477.848ZM858.805 477.169L874.562 487.212L848.234 461.76L858.805 477.169ZM858.131 478.314L843.72 490.209L861.369 511.589L874.564 487.208L858.131 478.314ZM921.442 530.694C920.304 529.704 919.121 528.786 917.898 527.941L896.647 558.682C896.732 558.74 896.82 558.808 896.911 558.888L921.442 530.694ZM925.912 585.215C940.309 568.667 937.11 544.326 921.442 530.694L896.911 558.888C897.505 559.404 897.707 559.965 897.743 560.348C897.761 560.538 897.734 560.645 897.726 560.672C897.723 560.682 897.728 560.672 897.718 560.684L925.912 585.215ZM899.548 598.064C909.255 597.507 918.907 593.266 925.912 585.215L897.718 560.684C897.706 560.698 897.705 560.697 897.712 560.692C897.718 560.687 897.719 560.688 897.708 560.693C897.686 560.704 897.589 560.744 897.406 560.754L899.548 598.064ZM908.146 601.412C913.088 595.732 916.001 588.956 916.98 582.019L879.975 576.799C879.966 576.861 879.954 576.884 879.957 576.879C879.957 576.877 879.959 576.874 879.961 576.871C879.963 576.867 879.962 576.871 879.952 576.881L908.146 601.412ZM856.781 607.073C872.365 618.053 894.719 616.845 908.146 601.412L879.952 576.881C879.941 576.894 879.948 576.887 879.946 576.889C879.931 576.896 879.851 576.932 879.693 576.947C879.36 576.979 878.844 576.902 878.305 576.522L856.781 607.073ZM877.905 609.251C880.09 606.739 882.007 604.065 883.652 601.266L851.434 582.329C850.948 583.155 850.376 583.955 849.711 584.72L877.905 609.251ZM814.437 623.018C835.696 632.171 861.636 627.949 877.905 609.251L849.711 584.72C845.073 590.051 836.935 592.016 829.216 588.692L814.437 623.018ZM786.667 616.978C799.01 627.717 816.505 629.815 830.57 622.369L813.084 589.341C813.07 589.348 812.87 589.442 812.48 589.394C812.12 589.351 811.665 589.191 811.197 588.784L786.667 616.978ZM782.196 562.457C767.799 579.004 770.998 603.345 786.667 616.978L811.197 588.784C810.603 588.268 810.401 587.707 810.365 587.324C810.348 587.134 810.374 587.027 810.382 587C810.385 586.99 810.38 586.999 810.39 586.988L782.196 562.457ZM785.843 558.806C784.555 559.929 783.336 561.147 782.196 562.457L810.39 586.988C810.395 586.982 810.398 586.979 810.399 586.978C810.4 586.976 810.401 586.976 810.4 586.977L785.843 558.806ZM782.719 551.356C779.974 558.749 778.939 566.553 779.482 574.213L816.76 571.57C816.58 569.028 816.933 566.574 817.755 564.36L782.719 551.356ZM777.27 566.04C782.531 570.617 788.558 573.871 794.888 575.762L805.585 539.954C804.293 539.568 802.996 538.886 801.8 537.846L777.27 566.04ZM777.177 565.959L777.248 566.021L801.822 537.865L801.751 537.803L777.177 565.959ZM768.724 561.459C773.449 565.571 778.922 568.413 784.664 569.94L794.265 533.823C793.967 533.743 793.618 533.581 793.254 533.265L768.724 561.459ZM764.253 506.938C749.857 523.485 753.055 547.827 768.724 561.459L793.254 533.265C792.661 532.749 792.459 532.188 792.423 531.805C792.405 531.615 792.431 531.508 792.44 531.481C792.443 531.471 792.437 531.48 792.447 531.469L764.253 506.938ZM778.611 496.748C773.24 498.893 768.284 502.306 764.253 506.938L792.447 531.469C792.455 531.46 792.459 531.457 792.457 531.458C792.456 531.459 792.454 531.461 792.451 531.463C792.449 531.465 792.448 531.465 792.451 531.463C792.453 531.462 792.461 531.458 792.474 531.453L778.611 496.748ZM771.847 501.362C771.612 501.632 771.381 501.904 771.154 502.178L799.93 526.023C799.967 525.979 800.004 525.935 800.041 525.892L771.847 501.362ZM782.542 492.419C778.603 494.768 774.983 497.758 771.847 501.362L800.041 525.892C800.536 525.324 801.085 524.874 801.677 524.521L782.542 492.419ZM778.326 492.399C776.566 495.977 775.164 499.677 774.112 503.447L810.108 513.493C810.55 511.908 811.135 510.37 811.861 508.894L778.326 492.399ZM776.338 499.13C776.352 500.041 776.388 500.951 776.447 501.859L813.74 499.434C813.721 499.149 813.71 498.864 813.706 498.581L776.338 499.13ZM799.565 480.73C796.594 479.986 793.66 478.519 791.043 476.243L766.513 504.437C773.63 510.629 781.874 514.824 790.479 516.981L799.565 480.73ZM791.043 476.243C782.365 468.693 782.206 457.079 787.966 450.459L759.772 425.928C739.345 449.406 743.582 484.486 766.513 504.437L791.043 476.243ZM787.966 450.459C793.726 443.839 805.25 442.39 813.928 449.941L838.458 421.747C815.527 401.795 780.198 402.451 759.772 425.928L787.966 450.459ZM813.928 449.941C815.585 451.383 816.932 452.99 817.988 454.688L849.725 434.955C846.717 430.117 842.947 425.652 838.458 421.747L813.928 449.941ZM871.96 431.764C857.878 419.512 836.871 418.451 822.166 430.245L845.547 459.399C845.487 459.447 845.593 459.322 845.995 459.336C846.376 459.35 846.897 459.495 847.43 459.958L871.96 431.764ZM879.76 481.831C890.16 465.516 886.315 444.253 871.96 431.764L847.43 459.958C847.973 460.431 848.188 460.938 848.249 461.316C848.312 461.71 848.2 461.816 848.246 461.744L879.76 481.831ZM900.992 459.559C887.586 447.895 867.992 446.391 853.432 456.379L874.574 487.196C874.535 487.222 874.682 487.106 875.084 487.133C875.458 487.159 875.954 487.311 876.461 487.753L900.992 459.559ZM913.717 497.829C916.86 484.056 912.147 469.265 900.992 459.559L876.461 487.753C877.318 488.498 877.331 489.299 877.282 489.514L913.717 497.829ZM921.382 486.194C914.785 480.455 906.995 476.805 898.92 475.301L892.079 512.042C893.699 512.343 895.359 513.089 896.851 514.388L921.382 486.194ZM926.804 550.872C943.752 531.393 940.128 502.504 921.382 486.194L896.851 514.388C901.321 518.277 900.911 523.697 898.61 526.342L926.804 550.872ZM917.378 559.029C920.83 556.81 924.01 554.083 926.804 550.872L898.61 526.342C898.168 526.85 897.684 527.261 897.168 527.594L917.378 559.029ZM867.244 493.936C867.966 493.509 868.677 493.056 869.375 492.577L848.234 461.76C848.235 461.76 848.235 461.759 848.235 461.759L867.244 493.936ZM872.541 466.419C872.349 466.186 872.155 465.954 871.958 465.724L843.521 489.972C843.588 490.051 843.655 490.13 843.72 490.209L872.541 466.419ZM843.047 467.125C842.568 467.877 842.118 468.643 841.697 469.42L874.564 487.208C874.563 487.21 874.562 487.211 874.562 487.212L843.047 467.125Z" fill="#0A5F40" mask="url(#path-8-outside-4_442_12)"/>
<path d="M270.153 350.94L353.263 426.91L383.19 426.346L416.032 385.155L391.915 354.135L331.157 305.693L288.699 253.312L266.238 228.667L226.995 192.325L190.437 163.177L163.078 223.9L227.957 259.352L250.931 300.683L270.153 350.94Z" fill="#664D3B" stroke="#624530" stroke-width="18.6858"/>
<mask id="path-11-outside-5_442_12" maskUnits="userSpaceOnUse" x="-19.3968" y="84.1703" width="862.927" height="858.432" fill="black">
<rect fill="white" x="-19.3968" y="84.1703" width="862.927" height="858.432"/>
<path fill-rule="evenodd" clip-rule="evenodd" d="M140.793 540.568C113.734 516.158 100.04 479.423 107.994 442.546C120.073 386.542 177.506 351.416 236.273 364.092C243.744 365.703 250.878 368.01 257.614 370.924C285.425 344.161 321.7 326.156 361.37 320.006C357.284 307.804 356.316 294.514 359.188 281.2C368.065 240.042 410.272 214.228 453.461 223.543C483.685 230.062 506.379 252.057 514.239 278.781C532.556 262.192 559.011 254.418 585.845 260.206C609.226 265.249 628.101 279.554 639.088 298.144C648.48 295.55 658.714 295.13 669.022 297.353C701.715 304.404 722.77 335.378 716.05 366.534C714.458 373.918 711.448 380.649 707.347 386.529C742.982 414.195 761.784 459.325 752.009 504.643C738.335 568.04 673.861 608.051 607.374 594.835C607.222 595.602 607.064 596.37 606.898 597.138C598.999 633.763 576.315 663.582 546 682.22C562.457 699.964 570.321 724.55 564.999 749.223C556.122 790.381 513.915 816.195 470.726 806.88C461.389 804.866 452.77 801.375 445.086 796.724C427.079 819.04 396.502 830.535 365.416 823.83C330.09 816.211 305.05 787.449 301.961 754.706C286.235 741.84 273.443 726.055 264.349 708.474C244.482 716.426 221.823 718.729 198.961 713.798C140.194 701.123 102.346 645.447 114.425 589.443C118.538 570.377 127.906 553.732 140.793 540.568Z"/>
</mask>
<path fill-rule="evenodd" clip-rule="evenodd" d="M140.793 540.568C113.734 516.158 100.04 479.423 107.994 442.546C120.073 386.542 177.506 351.416 236.273 364.092C243.744 365.703 250.878 368.01 257.614 370.924C285.425 344.161 321.7 326.156 361.37 320.006C357.284 307.804 356.316 294.514 359.188 281.2C368.065 240.042 410.272 214.228 453.461 223.543C483.685 230.062 506.379 252.057 514.239 278.781C532.556 262.192 559.011 254.418 585.845 260.206C609.226 265.249 628.101 279.554 639.088 298.144C648.48 295.55 658.714 295.13 669.022 297.353C701.715 304.404 722.77 335.378 716.05 366.534C714.458 373.918 711.448 380.649 707.347 386.529C742.982 414.195 761.784 459.325 752.009 504.643C738.335 568.04 673.861 608.051 607.374 594.835C607.222 595.602 607.064 596.37 606.898 597.138C598.999 633.763 576.315 663.582 546 682.22C562.457 699.964 570.321 724.55 564.999 749.223C556.122 790.381 513.915 816.195 470.726 806.88C461.389 804.866 452.77 801.375 445.086 796.724C427.079 819.04 396.502 830.535 365.416 823.83C330.09 816.211 305.05 787.449 301.961 754.706C286.235 741.84 273.443 726.055 264.349 708.474C244.482 716.426 221.823 718.729 198.961 713.798C140.194 701.123 102.346 645.447 114.425 589.443C118.538 570.377 127.906 553.732 140.793 540.568Z" fill="#296C38"/>
<path d="M107.994 442.546L126.26 446.486L126.26 446.486L107.994 442.546ZM140.793 540.568L154.146 553.639L167.763 539.731L153.309 526.693L140.793 540.568ZM236.273 364.092L240.212 345.826L240.212 345.826L236.273 364.092ZM257.614 370.924L250.194 388.073L261.609 393.011L270.57 384.388L257.614 370.924ZM361.37 320.006L364.233 338.471L386.123 335.078L379.089 314.072L361.37 320.006ZM359.188 281.2L340.922 277.26L340.922 277.26L359.188 281.2ZM453.461 223.543L449.521 241.809L449.521 241.809L453.461 223.543ZM514.239 278.781L496.312 284.053L504.713 312.619L526.782 292.631L514.239 278.781ZM585.845 260.206L581.905 278.472L581.905 278.472L585.845 260.206ZM639.088 298.144L623.001 307.651L630.277 319.963L644.063 316.156L639.088 298.144ZM669.022 297.353L672.962 279.087L672.962 279.087L669.022 297.353ZM716.05 366.534L734.316 370.473L734.316 370.473L716.05 366.534ZM707.347 386.529L692.021 375.839L681.865 390.401L695.888 401.289L707.347 386.529ZM752.009 504.643L770.275 508.583L770.275 508.583L752.009 504.643ZM607.374 594.835L611.017 576.507L592.661 572.859L589.041 591.221L607.374 594.835ZM606.898 597.138L625.164 601.078L625.164 601.078L606.898 597.138ZM546 682.22L536.213 666.302L516.812 678.23L532.299 694.927L546 682.22ZM564.999 749.223L583.265 753.162L583.265 753.162L564.999 749.223ZM470.726 806.88L466.787 825.146L466.787 825.146L470.726 806.88ZM445.086 796.724L454.761 780.738L440.795 772.285L430.543 784.99L445.086 796.724ZM365.416 823.83L369.355 805.564L369.355 805.564L365.416 823.83ZM301.961 754.706L320.564 752.951L319.832 745.184L313.793 740.244L301.961 754.706ZM264.349 708.474L280.945 699.888L273.152 684.823L257.404 691.126L264.349 708.474ZM198.961 713.798L202.901 695.532L202.901 695.532L198.961 713.798ZM114.425 589.443L132.691 593.383L114.425 589.443ZM89.7283 438.607C80.2447 482.577 96.686 525.945 128.277 554.442L153.309 526.693C130.782 506.372 119.836 476.27 126.26 446.486L89.7283 438.607ZM240.212 345.826C172.196 331.156 104.16 371.695 89.7283 438.607L126.26 446.486C135.987 401.388 182.815 371.677 232.333 382.357L240.212 345.826ZM265.033 353.774C257.181 350.377 248.882 347.696 240.212 345.826L232.333 382.357C238.606 383.71 244.575 385.642 250.194 388.073L265.033 353.774ZM358.508 301.541C315.106 308.269 275.287 327.985 244.657 357.459L270.57 384.388C295.562 360.338 328.294 344.042 364.233 338.471L358.508 301.541ZM340.922 277.26C337.315 293.982 338.542 310.68 343.652 325.939L379.089 314.072C376.027 304.927 375.317 295.047 377.454 285.139L340.922 277.26ZM457.4 205.277C404.963 193.967 352.152 225.195 340.922 277.26L377.454 285.139C383.978 254.888 415.582 234.489 449.521 241.809L457.4 205.277ZM532.165 273.509C522.359 240.164 494.257 213.227 457.4 205.277L449.521 241.809C473.112 246.897 490.4 263.951 496.312 284.053L532.165 273.509ZM589.785 241.94C557.045 234.879 524.459 244.315 501.695 264.931L526.782 292.631C540.653 280.069 560.977 273.958 581.905 278.472L589.785 241.94ZM655.174 288.637C641.567 265.613 618.316 248.094 589.785 241.94L581.905 278.472C600.135 282.404 614.635 293.495 623.001 307.651L655.174 288.637ZM672.962 279.087C659.665 276.219 646.373 276.747 634.113 280.133L644.063 316.156C650.588 314.353 657.764 314.04 665.082 315.619L672.962 279.087ZM734.316 370.473C743.389 328.41 714.904 288.133 672.962 279.087L665.082 315.619C688.526 320.675 702.152 342.345 697.785 362.594L734.316 370.473ZM722.673 397.219C728.158 389.354 732.189 380.337 734.316 370.473L697.785 362.594C696.727 367.498 694.738 371.944 692.021 375.839L722.673 397.219ZM770.275 508.583C781.696 455.628 759.603 403.444 718.806 371.769L695.888 401.289C726.36 424.947 741.871 463.022 733.743 500.704L770.275 508.583ZM603.731 613.162C679.385 628.2 754.274 582.768 770.275 508.583L733.743 500.704C722.396 553.313 668.336 587.901 611.017 576.507L603.731 613.162ZM625.164 601.078C625.353 600.202 625.534 599.326 625.707 598.449L589.041 591.221C588.911 591.879 588.775 592.539 588.632 593.199L625.164 601.078ZM555.786 698.138C590.141 677.017 616.117 643.022 625.164 601.078L588.632 593.199C581.88 624.505 562.489 650.147 536.213 666.302L555.786 698.138ZM583.265 753.162C589.975 722.052 579.962 691.359 559.7 669.513L532.299 694.927C544.952 708.568 550.667 727.047 546.734 745.283L583.265 753.162ZM466.787 825.146C519.224 836.456 572.036 805.227 583.265 753.162L546.734 745.283C540.209 775.535 508.605 795.934 474.666 788.614L466.787 825.146ZM435.41 812.709C444.852 818.424 455.406 822.691 466.787 825.146L474.666 788.614C467.372 787.041 460.689 784.326 454.761 780.738L435.41 812.709ZM361.476 842.096C399.378 850.271 437.136 836.334 459.628 808.457L430.543 784.99C417.023 801.746 393.625 810.799 369.355 805.564L361.476 842.096ZM283.358 756.461C287.237 797.586 318.454 832.817 361.476 842.096L369.355 805.564C341.726 799.605 322.862 777.312 320.564 752.951L283.358 756.461ZM313.793 740.244C300.016 728.971 288.855 715.178 280.945 699.888L247.752 717.059C258.032 736.931 272.455 754.709 290.129 769.168L313.793 740.244ZM195.021 732.064C221.579 737.792 248.026 735.135 271.293 725.821L257.404 691.126C240.939 697.717 222.067 699.666 202.901 695.532L195.021 732.064ZM96.1596 585.503C81.7279 652.414 127.005 717.394 195.021 732.064L202.901 695.532C153.383 684.852 122.964 638.48 132.691 593.383L96.1596 585.503ZM127.441 527.496C112.191 543.072 101.046 562.848 96.1596 585.503L132.691 593.383C136.029 577.907 143.62 564.391 154.146 553.639L127.441 527.496Z" fill="#07573A" mask="url(#path-11-outside-5_442_12)"/>
<mask id="path-13-outside-6_442_12" maskUnits="userSpaceOnUse" x="106.071" y="188.788" width="651.204" height="654.7" fill="black">
<rect fill="white" x="106.071" y="188.788" width="651.204" height="654.7"/>
<path fill-rule="evenodd" clip-rule="evenodd" d="M204.672 498.407C203.284 489.846 203.438 480.936 205.362 472.014C214.007 431.934 255.109 406.797 297.166 415.868C302.15 416.943 306.924 418.45 311.453 420.339C331.677 396.654 361.317 381.403 393.848 378.575C391.58 369.34 391.317 359.538 393.435 349.72C401.226 313.596 438.298 290.945 476.236 299.128C509.014 306.197 531.715 333.969 532.26 364.69C537.147 367.281 541.566 370.505 545.422 374.222C556.454 352.237 582.23 339.726 608.514 345.395C639.422 352.061 659.328 381.343 652.975 410.798C651.954 415.53 650.319 419.978 648.163 424.083C677.832 431.619 696.667 460.217 690.463 488.98C684.11 518.435 653.904 536.909 622.996 530.243C619.464 529.481 616.076 528.424 612.854 527.105C603.322 535.417 591.649 541.342 578.925 544.213C579.733 553.351 579.202 562.728 577.177 572.114C568.211 613.687 532.627 643.006 490.851 647.58C495.986 658.029 497.776 670.039 495.18 682.078C488.827 711.533 458.621 730.007 427.713 723.34C427.427 723.279 427.142 723.215 426.858 723.15C413.756 737.218 393.203 744.182 372.329 739.68C341.421 733.014 321.515 703.732 327.868 674.277C328.08 673.297 328.317 672.329 328.581 671.374C328.439 671.345 328.297 671.314 328.155 671.284C302.882 665.833 283.135 649.027 273.629 627.792C263.148 629.872 252.003 629.885 240.79 627.467C198.733 618.396 171.646 578.551 180.291 538.471C183.792 522.239 192.616 508.458 204.672 498.407Z"/>
</mask>
<path fill-rule="evenodd" clip-rule="evenodd" d="M204.672 498.407C203.284 489.846 203.438 480.936 205.362 472.014C214.007 431.934 255.109 406.797 297.166 415.868C302.15 416.943 306.924 418.45 311.453 420.339C331.677 396.654 361.317 381.403 393.848 378.575C391.58 369.34 391.317 359.538 393.435 349.72C401.226 313.596 438.298 290.945 476.236 299.128C509.014 306.197 531.715 333.969 532.26 364.69C537.147 367.281 541.566 370.505 545.422 374.222C556.454 352.237 582.23 339.726 608.514 345.395C639.422 352.061 659.328 381.343 652.975 410.798C651.954 415.53 650.319 419.978 648.163 424.083C677.832 431.619 696.667 460.217 690.463 488.98C684.11 518.435 653.904 536.909 622.996 530.243C619.464 529.481 616.076 528.424 612.854 527.105C603.322 535.417 591.649 541.342 578.925 544.213C579.733 553.351 579.202 562.728 577.177 572.114C568.211 613.687 532.627 643.006 490.851 647.58C495.986 658.029 497.776 670.039 495.18 682.078C488.827 711.533 458.621 730.007 427.713 723.34C427.427 723.279 427.142 723.215 426.858 723.15C413.756 737.218 393.203 744.182 372.329 739.68C341.421 733.014 321.515 703.732 327.868 674.277C328.08 673.297 328.317 672.329 328.581 671.374C328.439 671.345 328.297 671.314 328.155 671.284C302.882 665.833 283.135 649.027 273.629 627.792C263.148 629.872 252.003 629.885 240.79 627.467C198.733 618.396 171.646 578.551 180.291 538.471C183.792 522.239 192.616 508.458 204.672 498.407Z" fill="#2E7E40"/>
<path d="M205.362 472.014L187.096 468.075L187.096 468.075L205.362 472.014ZM204.672 498.407L216.637 512.76L224.822 505.936L223.117 495.418L204.672 498.407ZM297.166 415.868L301.105 397.602L301.105 397.602L297.166 415.868ZM311.453 420.339L304.261 437.585L316.824 442.824L325.663 432.473L311.453 420.339ZM393.848 378.575L395.466 397.19L417.196 395.301L411.995 374.119L393.848 378.575ZM393.435 349.72L375.169 345.781L375.169 345.781L393.435 349.72ZM476.236 299.128L480.176 280.862L480.176 280.862L476.236 299.128ZM532.26 364.69L513.577 365.022L513.773 376.038L523.507 381.199L532.26 364.69ZM545.422 374.222L532.455 387.676L550.736 405.297L562.124 382.602L545.422 374.222ZM608.514 345.395L612.454 327.129L612.454 327.129L608.514 345.395ZM652.975 410.798L634.709 406.859L634.709 406.859L652.975 410.798ZM648.163 424.083L631.618 415.398L620.612 436.365L643.563 442.194L648.163 424.083ZM690.463 488.98L672.198 485.04L672.198 485.04L690.463 488.98ZM622.996 530.243L619.057 548.508L619.057 548.508L622.996 530.243ZM612.854 527.105L619.933 509.812L609.263 505.443L600.573 513.021L612.854 527.105ZM578.925 544.213L574.812 525.985L558.872 529.582L560.311 545.858L578.925 544.213ZM577.177 572.114L558.911 568.174L558.911 568.174L577.177 572.114ZM490.851 647.58L488.818 629.005L462.328 631.905L474.081 655.821L490.851 647.58ZM495.18 682.078L476.914 678.138L476.914 678.138L495.18 682.078ZM427.713 723.34L423.773 741.606L423.773 741.606L427.713 723.34ZM426.858 723.15L431.058 704.942L420.54 702.516L413.184 710.415L426.858 723.15ZM372.329 739.68L368.39 757.946L368.39 757.946L372.329 739.68ZM327.868 674.277L346.134 678.216L346.134 678.216L327.868 674.277ZM328.581 671.374L346.595 676.34L351.878 657.176L332.423 653.088L328.581 671.374ZM328.155 671.284L324.215 689.549L324.215 689.549L328.155 671.284ZM273.629 627.792L290.684 620.157L284.599 606.565L269.992 609.464L273.629 627.792ZM240.79 627.467L236.85 645.733L236.85 645.733L240.79 627.467ZM180.291 538.471L162.025 534.531L162.025 534.531L180.291 538.471ZM187.096 468.075C184.67 479.323 184.474 490.584 186.227 501.397L223.117 495.418C222.094 489.108 222.206 482.549 223.628 475.954L187.096 468.075ZM301.105 397.602C249.799 386.536 198.093 417.088 187.096 468.075L223.628 475.954C229.92 446.781 260.418 427.057 293.226 434.134L301.105 397.602ZM318.644 403.092C313.068 400.767 307.206 398.918 301.105 397.602L293.226 434.134C297.093 434.968 300.779 436.133 304.261 437.585L318.644 403.092ZM392.23 359.959C354.938 363.201 320.732 380.696 297.243 408.205L325.663 432.473C342.623 412.611 367.695 399.604 395.466 397.19L392.23 359.959ZM375.169 345.781C372.436 358.452 372.778 371.126 375.701 383.031L411.995 374.119C410.383 367.555 410.199 360.624 411.701 353.66L375.169 345.781ZM480.176 280.862C433.003 270.688 385.316 298.735 375.169 345.781L411.701 353.66C417.136 328.457 443.592 311.203 472.297 317.394L480.176 280.862ZM550.943 364.358C550.236 324.563 521.04 289.676 480.176 280.862L472.297 317.394C496.987 322.719 513.193 343.375 513.577 365.022L550.943 364.358ZM558.39 360.769C553.286 355.849 547.45 351.594 541.013 348.181L523.507 381.199C526.845 382.969 529.847 385.162 532.455 387.676L558.39 360.769ZM612.454 327.129C578.189 319.739 543.732 335.927 528.721 365.842L562.124 382.602C569.176 368.548 586.271 359.713 604.574 363.661L612.454 327.129ZM671.241 414.738C679.946 374.376 652.611 335.79 612.454 327.129L604.574 363.661C626.233 368.332 638.71 388.31 634.709 406.859L671.241 414.738ZM664.708 432.768C667.639 427.184 669.859 421.142 671.241 414.738L634.709 406.859C634.049 409.918 632.998 412.771 631.618 415.398L664.708 432.768ZM708.729 492.92C717.228 453.515 691.353 415.774 652.763 405.973L643.563 442.194C664.31 447.464 676.106 466.919 672.198 485.04L708.729 492.92ZM619.057 548.508C659.214 557.17 700.024 533.281 708.729 492.92L672.198 485.04C668.197 503.589 648.595 516.648 626.936 511.977L619.057 548.508ZM605.775 544.397C610.009 546.131 614.448 547.514 619.057 548.508L626.936 511.977C624.481 511.447 622.143 510.716 619.933 509.812L605.775 544.397ZM583.037 562.44C598.74 558.897 613.231 551.569 625.135 541.188L600.573 513.021C593.413 519.265 584.558 523.786 574.812 525.985L583.037 562.44ZM595.443 576.054C597.869 564.807 598.509 553.547 597.538 542.567L560.311 545.858C560.956 553.156 560.535 560.649 558.911 568.174L595.443 576.054ZM492.885 666.155C541.922 660.786 584.629 626.19 595.443 576.054L558.911 568.174C551.792 601.183 523.332 625.226 488.818 629.005L492.885 666.155ZM513.445 686.017C516.977 669.646 514.51 653.356 507.621 639.338L474.081 655.821C477.462 662.701 478.576 670.432 476.914 678.138L513.445 686.017ZM423.773 741.606C463.93 750.267 504.74 726.379 513.445 686.017L476.914 678.138C472.913 696.686 453.311 709.746 431.652 705.074L423.773 741.606ZM422.658 741.357C423.029 741.443 423.4 741.526 423.773 741.606L431.652 705.074C431.453 705.032 431.255 704.987 431.058 704.942L422.658 741.357ZM368.39 757.946C395.671 763.83 422.924 754.792 440.532 735.884L413.184 710.415C404.588 719.645 390.734 724.535 376.269 721.415L368.39 757.946ZM309.603 670.337C300.897 710.699 328.232 749.285 368.39 757.946L376.269 721.415C354.61 716.743 342.134 696.765 346.134 678.216L309.603 670.337ZM310.567 666.408C310.21 667.703 309.888 669.013 309.603 670.337L346.134 678.216C346.271 677.581 346.425 676.956 346.595 676.34L310.567 666.408ZM332.423 653.088C332.314 653.065 332.204 653.041 332.095 653.018L324.215 689.549C324.39 689.587 324.564 689.624 324.738 689.661L332.423 653.088ZM332.095 653.018C312.657 648.826 297.768 635.982 290.684 620.157L256.574 635.427C268.502 662.071 293.107 682.84 324.215 689.549L332.095 653.018ZM236.85 645.733C250.587 648.695 264.312 648.692 277.266 646.121L269.992 609.464C261.985 611.053 253.419 611.075 244.729 609.201L236.85 645.733ZM162.025 534.531C151.028 585.518 185.544 634.667 236.85 645.733L244.729 609.201C211.921 602.125 192.265 571.584 198.557 542.411L162.025 534.531ZM192.706 484.055C177.621 496.632 166.452 514.008 162.025 534.531L198.557 542.411C201.132 530.471 207.612 520.284 216.637 512.76L192.706 484.055Z" fill="#0A5F40" mask="url(#path-13-outside-6_442_12)"/>
<mask id="path-15-outside-7_442_12" maskUnits="userSpaceOnUse" x="247.273" y="338.121" width="364.178" height="366.176" fill="black">
<rect fill="white" x="247.273" y="338.121" width="364.178" height="366.176"/>
<path fill-rule="evenodd" clip-rule="evenodd" d="M322.724 594.719C322.077 594.61 321.43 594.486 320.782 594.346C298.634 589.569 284.369 568.586 288.922 547.479C292.107 532.712 303.659 521.797 317.895 518.208C317.194 513.751 317.285 509.118 318.286 504.478C322.839 483.371 344.484 470.133 366.632 474.91C367.434 475.083 368.226 475.277 369.007 475.492C379.346 459.01 397.418 448.173 417.603 446.419C416.409 441.556 416.27 436.394 417.385 431.224C421.489 412.201 441.011 400.272 460.99 404.581C474.517 407.499 484.785 417.111 488.733 428.919C492.483 428.308 496.431 428.377 500.401 429.233C514.828 432.345 524.703 444.813 524.432 458.407C531.295 452.62 540.906 449.978 550.649 452.08C566.926 455.59 577.409 471.011 574.063 486.522C570.993 500.758 557.343 510.123 542.537 508.854C542.948 511.933 542.845 515.118 542.157 518.307C539.249 531.792 526.846 540.907 512.96 540.751C513.945 544.731 514.062 548.959 513.148 553.194C509.803 568.705 493.896 578.434 477.619 574.923C472.352 573.787 467.692 571.405 463.911 568.175C459.275 575.85 452.638 582.096 444.798 586.427C448.796 592.571 450.443 600.1 448.815 607.65C445.469 623.162 429.562 632.89 413.285 629.38C404.978 627.588 398.18 622.694 393.96 616.269C383.42 620.837 371.232 622.263 358.929 619.609C343.275 616.233 330.512 606.916 322.724 594.719Z"/>
</mask>
<path fill-rule="evenodd" clip-rule="evenodd" d="M322.724 594.719C322.077 594.61 321.43 594.486 320.782 594.346C298.634 589.569 284.369 568.586 288.922 547.479C292.107 532.712 303.659 521.797 317.895 518.208C317.194 513.751 317.285 509.118 318.286 504.478C322.839 483.371 344.484 470.133 366.632 474.91C367.434 475.083 368.226 475.277 369.007 475.492C379.346 459.01 397.418 448.173 417.603 446.419C416.409 441.556 416.27 436.394 417.385 431.224C421.489 412.201 441.011 400.272 460.99 404.581C474.517 407.499 484.785 417.111 488.733 428.919C492.483 428.308 496.431 428.377 500.401 429.233C514.828 432.345 524.703 444.813 524.432 458.407C531.295 452.62 540.906 449.978 550.649 452.08C566.926 455.59 577.409 471.011 574.063 486.522C570.993 500.758 557.343 510.123 542.537 508.854C542.948 511.933 542.845 515.118 542.157 518.307C539.249 531.792 526.846 540.907 512.96 540.751C513.945 544.731 514.062 548.959 513.148 553.194C509.803 568.705 493.896 578.434 477.619 574.923C472.352 573.787 467.692 571.405 463.911 568.175C459.275 575.85 452.638 582.096 444.798 586.427C448.796 592.571 450.443 600.1 448.815 607.65C445.469 623.162 429.562 632.89 413.285 629.38C404.978 627.588 398.18 622.694 393.96 616.269C383.42 620.837 371.232 622.263 358.929 619.609C343.275 616.233 330.512 606.916 322.724 594.719Z" fill="#339048"/>
<path d="M320.782 594.346L316.842 612.612L316.842 612.612L320.782 594.346ZM322.724 594.719L338.472 584.663L334.01 577.675L325.834 576.294L322.724 594.719ZM288.922 547.479L307.188 551.419L288.922 547.479ZM317.895 518.208L322.463 536.327L339.007 532.156L336.354 515.302L317.895 518.208ZM318.286 504.478L300.02 500.538L300.02 500.538L318.286 504.478ZM366.632 474.91L370.572 456.644L370.571 456.644L366.632 474.91ZM369.007 475.492L364.052 493.509L377.452 497.194L384.837 485.421L369.007 475.492ZM417.603 446.419L419.22 465.035L440.951 463.147L435.75 441.963L417.603 446.419ZM417.385 431.224L399.12 427.285L399.12 427.285L417.385 431.224ZM460.99 404.581L457.051 422.847L457.051 422.847L460.99 404.581ZM488.733 428.919L471.012 434.845L476.052 449.918L491.738 447.362L488.733 428.919ZM500.401 429.233L496.462 447.499L496.462 447.499L500.401 429.233ZM524.432 458.407L505.75 458.035L504.928 499.294L536.477 472.693L524.432 458.407ZM550.649 452.08L546.709 470.345L546.709 470.345L550.649 452.08ZM574.063 486.522L592.329 490.462L592.329 490.462L574.063 486.522ZM542.537 508.854L544.132 490.236L520.933 488.249L524.016 511.328L542.537 508.854ZM542.157 518.307L560.423 522.246L560.423 522.246L542.157 518.307ZM512.96 540.751L513.17 522.066L489.025 521.796L494.821 545.236L512.96 540.751ZM513.148 553.194L531.414 557.133L531.414 557.133L513.148 553.194ZM477.619 574.923L481.559 556.658L481.559 556.658L477.619 574.923ZM463.911 568.175L476.046 553.966L459.303 539.667L447.918 558.513L463.911 568.175ZM444.798 586.427L435.762 570.072L418.184 579.783L429.136 596.617L444.798 586.427ZM448.815 607.65L430.549 603.71L430.549 603.71L448.815 607.65ZM413.285 629.38L409.346 647.645L409.346 647.645L413.285 629.38ZM393.96 616.269L409.577 606.01L400.948 592.875L386.529 599.124L393.96 616.269ZM358.929 619.609L362.868 601.344L362.868 601.344L358.929 619.609ZM316.842 612.612C317.765 612.811 318.689 612.989 319.613 613.145L325.834 576.294C325.465 576.232 325.094 576.161 324.721 576.08L316.842 612.612ZM270.656 543.54C263.751 575.553 285.445 605.84 316.842 612.612L324.721 576.08C311.822 573.298 304.988 561.619 307.188 551.419L270.656 543.54ZM313.328 500.089C292.82 505.259 275.47 521.222 270.656 543.54L307.188 551.419C308.744 544.203 314.497 538.335 322.463 536.327L313.328 500.089ZM300.02 500.538C298.524 507.475 298.385 514.43 299.437 521.113L336.354 515.302C336.003 513.072 336.047 510.76 336.552 508.418L300.02 500.538ZM370.571 456.644C339.174 449.872 306.925 468.525 300.02 500.538L336.552 508.418C338.752 498.217 349.793 490.394 362.692 493.176L370.571 456.644ZM373.962 457.475C372.845 457.168 371.715 456.891 370.572 456.644L362.692 493.176C363.154 493.275 363.607 493.387 364.052 493.509L373.962 457.475ZM415.986 427.804C390.221 430.042 366.765 443.902 353.178 465.563L384.837 485.421C391.927 474.117 404.615 466.304 419.22 465.035L415.986 427.804ZM399.12 427.285C397.389 435.308 397.606 443.342 399.456 450.875L435.75 441.963C435.211 439.771 435.152 437.48 435.651 435.164L399.12 427.285ZM464.93 386.315C435.717 380.015 405.578 397.34 399.12 427.285L435.651 435.164C437.399 427.061 446.306 420.529 457.051 422.847L464.93 386.315ZM506.455 422.994C500.402 404.893 484.872 390.617 464.93 386.315L457.051 422.847C464.161 424.381 469.167 429.329 471.012 434.845L506.455 422.994ZM504.341 410.967C498.063 409.613 491.759 409.494 485.728 410.477L491.738 447.362C493.206 447.123 494.798 447.14 496.462 447.499L504.341 410.967ZM543.114 458.78C543.572 435.793 527.058 415.867 504.341 410.967L496.462 447.499C502.597 448.822 505.834 453.832 505.75 458.035L543.114 458.78ZM554.589 433.814C539.154 430.485 523.647 434.627 512.387 444.122L536.477 472.693C538.943 470.613 542.658 469.472 546.709 470.345L554.589 433.814ZM592.329 490.462C598.027 464.044 580.115 439.319 554.589 433.814L546.709 470.345C553.737 471.861 556.79 477.978 555.797 482.583L592.329 490.462ZM540.942 527.472C564.293 529.472 587.106 514.679 592.329 490.462L555.797 482.583C554.88 486.836 550.393 490.773 544.132 490.236L540.942 527.472ZM560.423 522.246C561.574 516.911 561.75 511.555 561.058 506.38L524.016 511.328C524.147 512.31 524.116 513.324 523.891 514.367L560.423 522.246ZM512.751 559.436C534.714 559.682 555.478 545.173 560.423 522.246L523.891 514.367C523.019 518.411 518.978 522.131 513.17 522.066L512.751 559.436ZM531.414 557.133C532.945 550.035 532.747 542.925 531.1 536.266L494.821 545.236C495.143 546.538 495.178 547.883 494.883 549.254L531.414 557.133ZM473.679 593.189C499.205 598.695 525.716 583.552 531.414 557.133L494.883 549.254C493.889 553.859 488.586 558.173 481.559 556.658L473.679 593.189ZM451.776 582.384C457.878 587.595 465.345 591.391 473.679 593.189L481.559 556.658C479.36 556.183 477.507 555.214 476.046 553.966L451.776 582.384ZM453.834 602.783C464.414 596.938 473.503 588.435 479.905 577.838L447.918 558.513C445.047 563.264 440.863 567.254 435.762 570.072L453.834 602.783ZM467.081 611.589C469.828 598.85 466.99 586.273 460.461 576.237L429.136 596.617C430.601 598.87 431.058 601.349 430.549 603.71L467.081 611.589ZM409.346 647.645C434.872 653.151 461.383 638.008 467.081 611.589L430.549 603.71C429.556 608.315 424.253 612.63 417.225 611.114L409.346 647.645ZM378.342 626.529C385.218 636.996 396.182 644.806 409.346 647.645L417.225 611.114C413.774 610.37 411.142 608.392 409.577 606.01L378.342 626.529ZM386.529 599.124C379.513 602.165 371.298 603.162 362.868 601.344L354.989 637.875C371.165 641.364 387.326 639.509 401.39 633.414L386.529 599.124ZM362.868 601.344C352.149 599.031 343.611 592.709 338.472 584.663L306.975 604.776C317.413 621.123 334.401 633.435 354.989 637.875L362.868 601.344Z" fill="#106B45" mask="url(#path-15-outside-7_442_12)"/>
<mask id="path-17-outside-8_442_12" maskUnits="userSpaceOnUse" x="-33.7156" y="-70.6499" width="479.308" height="500.819" fill="black">
<rect fill="white" x="-33.7156" y="-70.6499" width="479.308" height="500.819"/>
<path fill-rule="evenodd" clip-rule="evenodd" d="M121.081 306.797C104.396 315.103 84.6221 315.974 67.1081 307.422C36.3816 292.419 24.2461 254.097 40.0027 221.827C45.182 211.22 52.7303 202.587 61.6219 196.309C59.8965 183.701 61.815 170.294 67.9179 157.795C80.4226 132.185 106.736 118.084 132.424 120.853C130.463 110.412 131.772 99.1154 136.884 88.6452C147.888 66.1093 172.745 55.1136 194.968 61.7739C195.407 57.6776 196.56 53.5649 198.487 49.6201C206.991 32.2024 227.342 24.6529 243.94 32.7577C258.023 39.6338 264.881 55.5683 261.443 70.8779C278.254 44.5334 311.448 33.9574 338.896 47.3596C368.528 61.8282 380.242 98.7638 365.06 129.857C356.822 146.728 342.359 158.413 326.118 163.261C338.533 176.936 341.848 197.933 332.896 216.267C321.324 239.967 293.633 250.24 271.047 239.211C270.553 238.971 270.066 238.722 269.586 238.465C259.799 244.867 248.878 249.146 237.58 251.022C236.743 254.544 235.505 258.038 233.843 261.441C224.607 280.356 205.105 290.719 186.124 288.526C186.639 294.767 185.511 301.293 182.522 307.415C174.017 324.833 153.667 332.382 137.068 324.278C129.483 320.574 123.995 314.243 121.081 306.797ZM254.413 85.6357C253.974 86.1931 253.52 86.7349 253.053 87.2608C253.31 87.3379 253.568 87.4165 253.825 87.4965C254.012 86.8751 254.208 86.2548 254.413 85.6357Z"/>
</mask>
<path fill-rule="evenodd" clip-rule="evenodd" d="M121.081 306.797C104.396 315.103 84.6221 315.974 67.1081 307.422C36.3816 292.419 24.2461 254.097 40.0027 221.827C45.182 211.22 52.7303 202.587 61.6219 196.309C59.8965 183.701 61.815 170.294 67.9179 157.795C80.4226 132.185 106.736 118.084 132.424 120.853C130.463 110.412 131.772 99.1154 136.884 88.6452C147.888 66.1093 172.745 55.1136 194.968 61.7739C195.407 57.6776 196.56 53.5649 198.487 49.6201C206.991 32.2024 227.342 24.6529 243.94 32.7577C258.023 39.6338 264.881 55.5683 261.443 70.8779C278.254 44.5334 311.448 33.9574 338.896 47.3596C368.528 61.8282 380.242 98.7638 365.06 129.857C356.822 146.728 342.359 158.413 326.118 163.261C338.533 176.936 341.848 197.933 332.896 216.267C321.324 239.967 293.633 250.24 271.047 239.211C270.553 238.971 270.066 238.722 269.586 238.465C259.799 244.867 248.878 249.146 237.58 251.022C236.743 254.544 235.505 258.038 233.843 261.441C224.607 280.356 205.105 290.719 186.124 288.526C186.639 294.767 185.511 301.293 182.522 307.415C174.017 324.833 153.667 332.382 137.068 324.278C129.483 320.574 123.995 314.243 121.081 306.797ZM254.413 85.6357C253.974 86.1931 253.52 86.7349 253.053 87.2608C253.31 87.3379 253.568 87.4165 253.825 87.4965C254.012 86.8751 254.208 86.2548 254.413 85.6357Z" fill="#296C38"/>
<path d="M121.081 306.797L138.482 299.988L131.039 280.967L112.754 290.07L121.081 306.797ZM67.1081 307.422L58.9094 324.213L58.9094 324.213L67.1081 307.422ZM40.0027 221.827L23.2116 213.628L23.2116 213.628L40.0027 221.827ZM61.6219 196.309L72.3992 211.574L81.6746 205.025L80.1352 193.776L61.6219 196.309ZM67.9179 157.795L84.709 165.994L84.709 165.994L67.9179 157.795ZM132.424 120.853L130.421 139.431L155.432 142.128L150.788 117.404L132.424 120.853ZM136.884 88.6452L153.675 96.8439L153.675 96.8439L136.884 88.6452ZM194.968 61.7739L189.604 79.6731L211.151 86.1308L213.548 63.7647L194.968 61.7739ZM198.487 49.6201L181.695 41.4214L181.695 41.4214L198.487 49.6201ZM243.94 32.7577L252.139 15.9666L252.139 15.9666L243.94 32.7577ZM261.443 70.8779L243.211 66.7842L277.195 80.9294L261.443 70.8779ZM338.896 47.3596L330.697 64.1507L330.697 64.1507L338.896 47.3596ZM365.06 129.857L381.851 138.056L381.851 138.056L365.06 129.857ZM326.118 163.261L320.773 145.357L292.334 153.847L312.283 175.822L326.118 163.261ZM332.896 216.267L316.105 208.068L316.105 208.068L332.896 216.267ZM271.047 239.211L262.848 256.003L262.848 256.003L271.047 239.211ZM269.586 238.465L278.403 221.99L268.631 216.76L259.357 222.827L269.586 238.465ZM237.58 251.022L234.52 232.588L222.269 234.622L219.4 246.704L237.58 251.022ZM233.843 261.441L217.052 253.242L217.052 253.242L233.843 261.441ZM186.124 288.526L188.269 269.963L165.628 267.348L167.502 290.062L186.124 288.526ZM182.522 307.415L165.731 299.216L165.731 299.217L182.522 307.415ZM137.068 324.278L128.869 341.069L128.869 341.069L137.068 324.278ZM253.053 87.2608L239.084 74.8499L219.617 96.7604L247.696 105.162L253.053 87.2608ZM254.413 85.6357L272.145 91.5297L239.743 74.0626L254.413 85.6357ZM253.825 87.4965L248.28 105.34L266.308 110.943L271.725 92.8586L253.825 87.4965ZM112.754 290.07C100.853 295.994 87.1982 296.437 75.3068 290.631L58.9094 324.213C82.046 335.51 107.939 334.213 129.408 323.525L112.754 290.07ZM75.3068 290.631C54.6197 280.53 45.1819 253.807 56.7938 230.026L23.2116 213.628C3.31024 254.387 18.1435 304.308 58.9094 324.213L75.3068 290.631ZM56.7938 230.026C60.5751 222.282 66.0381 216.065 72.3992 211.574L50.8446 181.044C39.4225 189.109 29.7889 200.158 23.2116 213.628L56.7938 230.026ZM51.1268 149.596C43.374 165.474 40.8889 182.622 43.1086 198.842L80.1352 193.776C78.9041 184.779 80.256 175.114 84.709 165.994L51.1268 149.596ZM134.427 102.275C100.69 98.6378 66.985 117.119 51.1268 149.596L84.709 165.994C93.8602 147.252 112.783 137.53 130.421 139.431L134.427 102.275ZM120.093 80.4465C113.189 94.5862 111.368 109.973 114.059 124.302L150.788 117.404C149.558 110.85 150.355 103.645 153.675 96.8439L120.093 80.4465ZM200.332 43.8746C168.861 34.4427 134.886 50.1514 120.093 80.4465L153.675 96.8439C160.891 82.0673 176.628 75.7844 189.604 79.6731L200.332 43.8746ZM181.695 41.4214C178.808 47.3344 177.057 53.5498 176.389 59.783L213.548 63.7647C213.758 61.8054 214.312 59.7954 215.278 57.8188L181.695 41.4214ZM252.139 15.9666C225.514 2.96623 194.352 15.5013 181.695 41.4214L215.278 57.8188C219.631 48.9035 229.169 46.3395 235.742 49.5488L252.139 15.9666ZM279.675 74.9716C284.836 51.9857 274.686 26.9756 252.139 15.9666L235.742 49.5488C241.36 52.292 244.925 59.1508 243.211 66.7842L279.675 74.9716ZM347.095 30.5685C310.383 12.6429 267.164 27.176 245.691 60.8263L277.195 80.9294C289.344 61.8908 312.514 55.2719 330.697 64.1507L347.095 30.5685ZM381.851 138.056C401.185 98.46 386.753 49.9326 347.095 30.5685L330.697 64.1507C350.303 73.7237 359.299 99.0675 348.269 121.659L381.851 138.056ZM331.464 181.166C352.652 174.841 371.296 159.673 381.851 138.056L348.269 121.659C342.348 133.784 332.067 141.985 320.773 145.357L331.464 181.166ZM349.688 224.465C361.917 199.42 357.627 170.17 339.953 150.701L312.283 175.822C319.438 183.703 321.78 196.447 316.105 208.068L349.688 224.465ZM262.848 256.003C295.46 271.926 333.964 256.668 349.688 224.465L316.105 208.068C308.685 223.266 291.805 228.553 279.245 222.42L262.848 256.003ZM260.769 254.939C261.454 255.306 262.147 255.66 262.848 256.003L279.245 222.42C278.96 222.281 278.679 222.137 278.403 221.99L260.769 254.939ZM240.64 269.456C254.543 267.147 267.899 261.897 279.816 254.102L259.357 222.827C251.7 227.837 243.214 231.145 234.52 232.588L240.64 269.456ZM250.634 269.64C252.903 264.993 254.607 260.196 255.76 255.34L219.4 246.704C218.88 248.892 218.106 251.084 217.052 253.242L250.634 269.64ZM183.98 307.088C211.057 310.216 238.023 295.468 250.634 269.64L217.052 253.242C211.192 265.244 199.153 271.221 188.269 269.963L183.98 307.088ZM199.313 315.614C203.799 306.426 205.534 296.532 204.747 286.99L167.502 290.062C167.744 293.003 167.223 296.161 165.731 299.217L199.313 315.614ZM128.869 341.069C155.494 354.069 186.657 341.534 199.313 315.614L165.731 299.217C161.378 308.132 151.839 310.696 145.267 307.486L128.869 341.069ZM103.68 313.606C108.193 325.141 116.816 335.183 128.869 341.069L145.267 307.486C142.151 305.965 139.796 303.346 138.482 299.988L103.68 313.606ZM267.021 99.6717C267.73 98.874 268.418 98.0529 269.084 97.2088L239.743 74.0626C239.529 74.3334 239.309 74.5958 239.084 74.8499L267.021 99.6717ZM259.371 69.6525C259.051 69.553 258.73 69.4552 258.409 69.3592L247.696 105.162C247.891 105.221 248.085 105.28 248.28 105.34L259.371 69.6525ZM236.681 79.7417C236.417 80.5373 236.165 81.3349 235.926 82.1344L271.725 92.8586C271.858 92.4153 271.998 91.9722 272.145 91.5297L236.681 79.7417Z" fill="#07573A" mask="url(#path-17-outside-8_442_12)"/>
<mask id="path-19-outside-9_442_12" maskUnits="userSpaceOnUse" x="45.2688" y="32.6076" width="291.113" height="309.898" fill="black">
<rect fill="white" x="45.2688" y="32.6076" width="291.113" height="309.898"/>
<path fill-rule="evenodd" clip-rule="evenodd" d="M243.633 120.45C250.242 107.994 265.099 102.705 277.259 108.646C289.689 114.719 294.594 130.224 288.217 143.277C285.802 148.22 282.116 152.102 277.792 154.689C278.914 162.04 277.855 169.898 274.283 177.21C265.3 195.596 243.826 203.567 226.32 195.014C226.16 194.936 226.001 194.857 225.843 194.776C225.123 196.976 224.241 199.156 223.194 201.299C219.361 209.146 213.78 215.537 207.206 220.193C208.498 226.316 207.803 232.999 204.785 239.175C197.845 253.381 181.244 259.536 167.705 252.921C163.157 250.699 159.533 247.318 156.989 243.269C148.264 251.62 135.958 255.11 124.49 252.101C119.562 261.827 108.094 266.003 98.7259 261.425C89.2686 256.805 85.5324 245.015 90.3808 235.091C92.5778 230.594 96.1605 227.252 100.302 225.372C99.0052 218.051 99.9648 210.161 103.542 202.84C108.92 191.832 118.95 184.7 129.825 182.857C129.378 177.947 130.244 172.8 132.601 167.977C135.006 163.053 138.633 159.147 142.894 156.475C150.567 144.034 162.926 136.014 176.198 133.815C176.675 131.808 177.382 129.818 178.329 127.879C183.658 116.971 194.98 111.057 205.919 112.501C211.274 104.047 221.902 100.645 230.684 104.936C235.021 107.055 238.154 110.68 239.809 114.943C241.414 116.538 242.699 118.408 243.633 120.45Z"/>
</mask>
<path fill-rule="evenodd" clip-rule="evenodd" d="M243.633 120.45C250.242 107.994 265.099 102.705 277.259 108.646C289.689 114.719 294.594 130.224 288.217 143.277C285.802 148.22 282.116 152.102 277.792 154.689C278.914 162.04 277.855 169.898 274.283 177.21C265.3 195.596 243.826 203.567 226.32 195.014C226.16 194.936 226.001 194.857 225.843 194.776C225.123 196.976 224.241 199.156 223.194 201.299C219.361 209.146 213.78 215.537 207.206 220.193C208.498 226.316 207.803 232.999 204.785 239.175C197.845 253.381 181.244 259.536 167.705 252.921C163.157 250.699 159.533 247.318 156.989 243.269C148.264 251.62 135.958 255.11 124.49 252.101C119.562 261.827 108.094 266.003 98.7259 261.425C89.2686 256.805 85.5324 245.015 90.3808 235.091C92.5778 230.594 96.1605 227.252 100.302 225.372C99.0052 218.051 99.9648 210.161 103.542 202.84C108.92 191.832 118.95 184.7 129.825 182.857C129.378 177.947 130.244 172.8 132.601 167.977C135.006 163.053 138.633 159.147 142.894 156.475C150.567 144.034 162.926 136.014 176.198 133.815C176.675 131.808 177.382 129.818 178.329 127.879C183.658 116.971 194.98 111.057 205.919 112.501C211.274 104.047 221.902 100.645 230.684 104.936C235.021 107.055 238.154 110.68 239.809 114.943C241.414 116.538 242.699 118.408 243.633 120.45Z" fill="#2E7E40"/>
<path d="M243.633 120.45L226.638 128.219L242.385 162.666L260.139 129.208L243.633 120.45ZM277.259 108.646L285.462 91.8571L285.462 91.8571L277.259 108.646ZM288.217 143.277L305.006 151.48L305.006 151.48L288.217 143.277ZM277.792 154.689L268.198 138.655L257.427 145.1L259.32 157.508L277.792 154.689ZM274.283 177.21L257.494 169.008L257.494 169.008L274.283 177.21ZM226.32 195.014L218.117 211.803L218.117 211.803L226.32 195.014ZM225.843 194.776L234.306 178.117L214.871 168.244L208.086 188.96L225.843 194.776ZM223.194 201.299L206.405 193.096L206.405 193.096L223.194 201.299ZM207.206 220.193L196.406 204.944L186.389 212.038L188.922 224.05L207.206 220.193ZM204.785 239.175L187.996 230.973L187.996 230.973L204.785 239.175ZM167.705 252.921L175.908 236.132L175.908 236.132L167.705 252.921ZM156.989 243.269L172.81 233.328L160.62 213.928L144.068 229.77L156.989 243.269ZM124.49 252.101L129.232 234.027L114.64 230.199L107.822 243.656L124.49 252.101ZM98.7259 261.425L106.929 244.636L106.928 244.636L98.7259 261.425ZM90.3808 235.091L107.17 243.293L107.17 243.293L90.3808 235.091ZM100.302 225.372L108.027 242.386L121.23 236.391L118.701 222.113L100.302 225.372ZM103.542 202.84L86.7524 194.637L86.7524 194.637L103.542 202.84ZM129.825 182.857L132.947 201.28L149.999 198.39L148.434 181.166L129.825 182.857ZM132.601 167.977L115.811 159.774L115.811 159.774L132.601 167.977ZM142.894 156.475L152.819 172.307L156.511 169.993L158.799 166.284L142.894 156.475ZM176.198 133.815L179.253 152.25L191.504 150.22L194.377 138.138L176.198 133.815ZM178.329 127.879L161.54 119.677L161.54 119.677L178.329 127.879ZM205.919 112.501L203.473 131.026L215.314 132.59L221.705 122.499L205.919 112.501ZM230.684 104.936L222.482 121.725L222.482 121.725L230.684 104.936ZM239.809 114.943L222.39 121.705L223.824 125.401L226.636 128.195L239.809 114.943ZM260.139 129.208C262.431 124.888 266.709 124.289 269.057 125.435L285.462 91.8571C263.488 81.1215 238.053 91.0992 227.127 111.692L260.139 129.208ZM269.057 125.435C271.448 126.604 273.659 130.509 271.428 135.075L305.006 151.48C315.53 129.939 307.929 102.834 285.462 91.8571L269.057 125.435ZM271.428 135.075C270.626 136.715 269.463 137.898 268.198 138.655L287.387 170.724C294.769 166.307 300.978 159.725 305.006 151.48L271.428 135.075ZM291.072 185.413C296.34 174.631 297.951 162.923 296.264 151.871L259.32 157.508C259.877 161.158 259.371 165.165 257.494 169.008L291.072 185.413ZM218.117 211.803C245.662 225.261 277.943 212.286 291.072 185.413L257.494 169.008C252.658 178.906 241.991 181.874 234.523 178.225L218.117 211.803ZM217.381 211.436C217.625 211.56 217.871 211.683 218.117 211.803L234.523 178.225C234.45 178.189 234.377 178.153 234.306 178.117L217.381 211.436ZM239.983 209.501C241.409 206.584 242.613 203.608 243.601 200.593L208.086 188.96C207.632 190.345 207.074 191.727 206.405 193.096L239.983 209.501ZM218.005 235.441C227.098 229.002 234.756 220.202 239.983 209.501L206.405 193.096C203.965 198.089 200.462 202.072 196.406 204.944L218.005 235.441ZM221.575 247.378C226.449 237.401 227.627 226.469 225.489 216.335L188.922 224.05C189.368 226.164 189.158 228.596 187.996 230.973L221.575 247.378ZM159.503 269.711C183.066 281.223 210.481 270.086 221.575 247.378L187.996 230.973C185.209 236.677 179.421 237.849 175.908 236.132L159.503 269.711ZM141.167 253.211C145.486 260.085 151.699 265.898 159.503 269.711L175.908 236.132C174.615 235.5 173.579 234.551 172.81 233.328L141.167 253.211ZM119.748 270.175C137.905 274.939 156.804 269.311 169.909 256.768L144.068 229.77C139.725 233.928 134.011 235.281 129.232 234.027L119.748 270.175ZM90.5233 278.215C109.819 287.642 132.001 278.621 141.159 260.547L107.822 243.656C107.534 244.223 107.149 244.471 106.904 244.56C106.785 244.603 106.736 244.595 106.769 244.597C106.818 244.599 106.887 244.616 106.929 244.636L90.5233 278.215ZM73.5916 226.888C64.5897 245.313 71.0409 268.696 90.5233 278.215L106.928 244.636C106.971 244.657 107.027 244.702 107.059 244.739C107.079 244.763 107.041 244.727 107.002 244.602C106.921 244.348 106.882 243.882 107.17 243.293L73.5916 226.888ZM92.5766 208.358C84.5435 212.005 77.7239 218.43 73.5916 226.888L107.17 243.293C107.432 242.758 107.777 242.499 108.027 242.386L92.5766 208.358ZM86.7524 194.637C81.4118 205.568 79.9269 217.477 81.9024 228.631L118.701 222.113C118.083 218.624 118.518 214.753 120.331 211.042L86.7524 194.637ZM126.702 164.434C109.912 167.28 94.7828 178.201 86.7524 194.637L120.331 211.042C123.057 205.463 127.988 202.121 132.947 201.28L126.702 164.434ZM115.811 159.774C111.933 167.713 110.464 176.288 111.215 184.549L148.434 181.166C148.292 179.606 148.556 177.886 149.39 176.179L115.811 159.774ZM132.969 140.643C125.798 145.138 119.772 151.668 115.811 159.774L149.39 176.179C150.241 174.437 151.468 173.155 152.819 172.307L132.969 140.643ZM173.144 115.381C154.532 118.465 137.492 129.638 126.99 146.667L158.799 166.284C163.642 158.43 171.32 153.564 179.253 152.25L173.144 115.381ZM161.54 119.677C159.985 122.859 158.814 126.152 158.019 129.493L194.377 138.138C194.537 137.465 194.779 136.776 195.118 136.082L161.54 119.677ZM208.365 93.9761C189.216 91.4477 170.285 101.776 161.54 119.677L195.118 136.082C197.031 132.165 200.745 130.666 203.473 131.026L208.365 93.9761ZM238.887 88.1468C220.817 79.3186 200.139 86.7058 190.133 102.503L221.705 122.499C221.99 122.05 222.337 121.853 222.547 121.788C222.644 121.758 222.674 121.767 222.635 121.764C222.582 121.761 222.518 121.743 222.482 121.725L238.887 88.1468ZM257.228 108.18C253.979 99.8127 247.707 92.4562 238.887 88.1468L222.482 121.725C222.471 121.72 222.448 121.707 222.42 121.686C222.392 121.665 222.371 121.644 222.357 121.629C222.33 121.599 222.355 121.615 222.39 121.705L257.228 108.18ZM260.627 112.681C258.79 108.664 256.231 104.92 252.982 101.69L226.636 128.195C226.617 128.177 226.61 128.166 226.611 128.168C226.612 128.17 226.623 128.186 226.638 128.219L260.627 112.681Z" fill="#0A5F40" mask="url(#path-19-outside-9_442_12)"/>
</g>
<defs>
<clipPath id="clip0_442_12">
<rect width="1000" height="1000" fill="white" transform="translate(0.739258 0.716919)"/>
</clipPath>
</defs>
</svg>
