<svg width="500" height="501" viewBox="0 0 500 501" fill="none" xmlns="http://www.w3.org/2000/svg">
<g clip-path="url(#clip0_524_1202)">
<path d="M457.267 453.693L469.585 448.197L467.918 434.811C456.391 342.253 406.263 270.054 350.429 218.74C294.897 167.706 232.367 136.051 192.633 124.758C184.652 122.285 172.267 118.087 161.026 113.541C155.344 111.244 150.238 108.971 146.246 106.894C142.809 105.106 141.23 103.981 140.776 103.658C140.69 103.597 140.644 103.564 140.634 103.561C140.504 103.396 140.008 102.749 139.089 101.243C138.007 99.4689 136.812 97.3073 135.235 94.4437L135.087 94.1746C132.115 88.7783 128.143 81.5671 123.061 74.5273C112.559 59.9819 95.6999 43.9975 68.5718 42.4359C57.6502 41.8072 46.1625 42.8883 37.4055 49.1384C32.5883 52.5767 28.9558 57.3598 27.1439 63.1472C25.4086 68.6903 25.6901 74.0164 26.6462 78.3682C28.4732 86.6846 33.3006 94.0385 37.9807 99.5543C42.8963 105.348 48.9897 110.688 55.3705 114.828C56.4385 115.522 59.2299 118.085 63.4828 123.863C67.4476 129.25 71.776 136.166 76.2011 144.001C84.7907 159.212 93.1165 176.767 99.1382 190.768C115.822 253.15 158.821 337.057 219.573 396.624C281.021 456.873 364.321 495.161 457.267 453.693Z" fill="#5C5515" stroke="#494418" stroke-width="36.4218"/>
<path d="M369.015 328.38L413.149 395.902L370.681 392.123C345.804 378.495 294.237 349.611 286.989 343.096L286.989 343.095C277.928 334.95 223.575 286.088 207.991 268.804C195.525 254.976 174.649 231.186 165.77 221.02L144.824 167.792L180.685 177.097L369.015 328.38Z" fill="#655D19"/>
</g>
<defs>
<clipPath id="clip0_524_1202">
<rect width="500" height="500" fill="white" transform="translate(0 0.0205078)"/>
</clipPath>
</defs>
</svg>
