<svg width="1000" height="1001" viewBox="0 0 1000 1001" fill="none" xmlns="http://www.w3.org/2000/svg">
<g clip-path="url(#clip0_524_1199)">
<mask id="path-1-outside-1_524_1199" maskUnits="userSpaceOnUse" x="0" y="11.0273" width="1001" height="978" fill="black">
<rect fill="white" y="11.0273" width="1001" height="978"/>
<path fill-rule="evenodd" clip-rule="evenodd" d="M388.119 748.041C388.119 746.402 388.134 744.768 388.164 743.141C387.039 744.308 385.9 745.468 384.746 746.622C321.163 810.205 237.711 829.84 198.35 790.48C158.989 751.119 178.625 667.667 242.208 604.084C243.355 602.936 244.509 601.803 245.669 600.685C244.057 600.714 242.438 600.728 240.814 600.728C150.909 600.728 78.0243 555.618 78 499.967L78 499.946V499.943V499.939C78 444.274 150.894 399.149 240.814 399.149C242.455 399.149 244.091 399.164 245.721 399.194C244.545 398.061 243.375 396.912 242.212 395.749C178.629 332.167 158.994 248.714 198.354 209.354C237.715 169.993 321.167 189.629 384.75 253.211C385.902 254.363 387.04 255.522 388.163 256.687C388.134 255.077 388.119 253.462 388.119 251.841C388.119 161.922 433.244 89.0273 488.909 89.0273C544.573 89.0273 589.698 161.922 589.698 251.841C589.698 253.479 589.683 255.11 589.653 256.736C590.78 255.568 591.921 254.406 593.076 253.251C656.659 189.668 740.111 170.032 779.472 209.393C818.833 248.753 799.197 332.206 735.614 395.788C734.225 397.178 732.826 398.546 731.418 399.894C740.738 398.867 750.332 398.332 760.128 398.332C850.047 398.332 922.942 443.457 922.942 499.121C922.942 554.786 850.047 599.911 760.128 599.911C749.64 599.911 739.385 599.297 729.449 598.124C731.522 600.069 733.577 602.058 735.612 604.093C799.195 667.676 818.831 751.128 779.47 790.489C740.109 829.849 656.657 810.214 593.074 746.631C591.919 745.476 590.779 744.315 589.653 743.147C589.683 744.773 589.698 746.404 589.698 748.041C589.698 837.961 544.573 910.855 488.909 910.855C433.244 910.855 388.119 837.961 388.119 748.041Z"/>
</mask>
<path fill-rule="evenodd" clip-rule="evenodd" d="M388.119 748.041C388.119 746.402 388.134 744.768 388.164 743.141C387.039 744.308 385.9 745.468 384.746 746.622C321.163 810.205 237.711 829.84 198.35 790.48C158.989 751.119 178.625 667.667 242.208 604.084C243.355 602.936 244.509 601.803 245.669 600.685C244.057 600.714 242.438 600.728 240.814 600.728C150.909 600.728 78.0243 555.618 78 499.967L78 499.946V499.943V499.939C78 444.274 150.894 399.149 240.814 399.149C242.455 399.149 244.091 399.164 245.721 399.194C244.545 398.061 243.375 396.912 242.212 395.749C178.629 332.167 158.994 248.714 198.354 209.354C237.715 169.993 321.167 189.629 384.75 253.211C385.902 254.363 387.04 255.522 388.163 256.687C388.134 255.077 388.119 253.462 388.119 251.841C388.119 161.922 433.244 89.0273 488.909 89.0273C544.573 89.0273 589.698 161.922 589.698 251.841C589.698 253.479 589.683 255.11 589.653 256.736C590.78 255.568 591.921 254.406 593.076 253.251C656.659 189.668 740.111 170.032 779.472 209.393C818.833 248.753 799.197 332.206 735.614 395.788C734.225 397.178 732.826 398.546 731.418 399.894C740.738 398.867 750.332 398.332 760.128 398.332C850.047 398.332 922.942 443.457 922.942 499.121C922.942 554.786 850.047 599.911 760.128 599.911C749.64 599.911 739.385 599.297 729.449 598.124C731.522 600.069 733.577 602.058 735.612 604.093C799.195 667.676 818.831 751.128 779.47 790.489C740.109 829.849 656.657 810.214 593.074 746.631C591.919 745.476 590.779 744.315 589.653 743.147C589.683 744.773 589.698 746.404 589.698 748.041C589.698 837.961 544.573 910.855 488.909 910.855C433.244 910.855 388.119 837.961 388.119 748.041Z" fill="#867C58"/>
<path d="M388.164 743.141L465.681 744.56L469.291 547.308L332.353 689.326L388.164 743.141ZM384.746 746.622L439.568 801.444L384.746 746.622ZM198.35 790.48L253.172 735.657H253.172L198.35 790.48ZM242.208 604.084L297.03 658.906H297.03L242.208 604.084ZM245.669 600.685L299.49 656.491L441.439 519.592L244.264 523.167L245.669 600.685ZM78 499.967L0.469566 499.994V500.001L78 499.967ZM78 499.946H0.469551V499.959L0.469559 499.972L78 499.946ZM245.721 399.194L244.3 476.712L441.605 480.329L299.527 343.375L245.721 399.194ZM242.212 395.749L187.39 450.572H187.39L242.212 395.749ZM198.354 209.354L143.532 154.531L143.532 154.531L198.354 209.354ZM384.75 253.211L329.928 308.034V308.034L384.75 253.211ZM388.163 256.687L332.353 310.503L469.248 452.468L465.681 255.284L388.163 256.687ZM589.653 256.736L512.136 255.319L508.53 452.571L645.466 310.55L589.653 256.736ZM593.076 253.251L538.254 198.428L538.254 198.429L593.076 253.251ZM779.472 209.393L834.294 154.57V154.57L779.472 209.393ZM735.614 395.788L790.436 450.611L790.436 450.611L735.614 395.788ZM731.418 399.894L677.811 343.882L512.608 501.992L739.905 476.958L731.418 399.894ZM729.449 598.124L738.537 521.128L504.54 493.508L676.416 654.679L729.449 598.124ZM779.47 790.489L834.292 845.311V845.311L779.47 790.489ZM593.074 746.631L647.896 691.809V691.808L593.074 746.631ZM589.653 743.147L645.465 689.332L508.532 547.321L512.136 744.564L589.653 743.147ZM310.646 741.722C310.608 743.823 310.589 745.929 310.589 748.041H465.649C465.649 746.874 465.66 745.714 465.681 744.56L310.646 741.722ZM439.568 801.444C441.055 799.957 442.524 798.461 443.975 796.956L332.353 689.326C331.554 690.155 330.744 690.979 329.924 691.799L439.568 801.444ZM143.528 845.302C189.187 890.961 251.698 894.041 300.222 882.624C350.11 870.886 399.242 841.77 439.568 801.444L329.924 691.799C306.667 715.056 282.281 727.55 264.707 731.685C245.769 736.141 246.874 729.359 253.172 735.657L143.528 845.302ZM187.386 549.262C147.06 589.588 117.944 638.72 106.206 688.607C94.7882 737.132 97.8687 799.643 143.528 845.302L253.172 735.657C259.471 741.956 252.689 743.06 257.145 724.123C261.28 706.548 273.773 682.163 297.03 658.906L187.386 549.262ZM191.849 544.878C190.352 546.322 188.864 547.783 187.386 549.262L297.03 658.906C297.846 658.09 298.666 657.285 299.49 656.491L191.849 544.878ZM240.814 678.259C242.906 678.259 244.993 678.24 247.075 678.202L244.264 523.167C243.12 523.188 241.97 523.198 240.814 523.198V678.259ZM0.469566 500.001C0.497704 564.554 42.5205 610.914 84.9008 637.143C128.473 664.11 183.793 678.259 240.814 678.259V523.198C207.93 523.198 181.855 514.792 166.503 505.291C149.958 495.052 155.527 491.032 155.53 499.933L0.469566 500.001ZM0.469559 499.972L0.469566 499.994L155.53 499.94L155.53 499.919L0.469559 499.972ZM0.469551 499.943V499.946H155.53V499.943H0.469551ZM0.469551 499.939V499.943H155.53V499.939H0.469551ZM240.814 321.619C183.784 321.619 128.455 335.773 84.8786 362.749C42.4935 388.987 0.469551 435.367 0.469551 499.939H155.53C155.53 508.846 149.954 504.832 166.496 494.591C181.847 485.088 207.924 476.68 240.814 476.68V321.619ZM247.142 321.677C245.038 321.638 242.928 321.619 240.814 321.619V476.68C241.983 476.68 243.145 476.691 244.3 476.712L247.142 321.677ZM187.39 450.572C188.889 452.07 190.397 453.551 191.914 455.014L299.527 343.375C298.693 342.57 297.862 341.755 297.035 340.927L187.39 450.572ZM143.532 154.531C97.8731 200.19 94.7926 262.702 106.21 311.226C117.948 361.113 147.064 410.246 187.39 450.572L297.035 340.927C273.778 317.67 261.284 293.285 257.149 275.711C252.693 256.773 259.475 257.878 253.177 264.176L143.532 154.531ZM439.573 198.389C399.247 158.063 350.114 128.948 300.227 117.209C251.702 105.792 189.191 108.872 143.532 154.531L253.177 264.176C246.878 270.474 245.774 263.692 264.712 268.148C282.286 272.283 306.671 284.777 329.928 308.034L439.573 198.389ZM443.973 202.87C442.524 201.367 441.057 199.873 439.572 198.389L329.928 308.034C330.748 308.853 331.556 309.677 332.353 310.503L443.973 202.87ZM310.589 251.841C310.589 253.93 310.607 256.013 310.645 258.089L465.681 255.284C465.66 254.142 465.649 252.994 465.649 251.841H310.589ZM488.909 11.4969C424.337 11.4969 377.957 53.5208 351.718 95.9059C324.742 139.482 310.589 194.812 310.589 251.841H465.649C465.649 218.951 474.058 192.874 483.561 177.523C493.801 160.981 497.816 166.558 488.909 166.558V11.4969ZM667.229 251.841C667.229 194.812 653.075 139.482 626.099 95.9059C599.861 53.5208 553.48 11.4969 488.909 11.4969V166.558C480.001 166.558 484.016 160.981 494.256 177.523C503.759 192.874 512.168 218.951 512.168 251.841H667.229ZM667.171 258.153C667.209 256.055 667.229 253.951 667.229 251.841H512.168C512.168 253.007 512.157 254.166 512.136 255.319L667.171 258.153ZM538.254 198.429C536.765 199.918 535.294 201.416 533.841 202.922L645.466 310.55C646.266 309.72 647.077 308.894 647.899 308.072L538.254 198.429ZM834.294 154.57C788.635 108.911 726.124 105.831 677.6 117.248C627.712 128.987 578.58 158.102 538.254 198.428L647.898 308.073C671.155 284.816 695.541 272.322 713.115 268.187C732.053 263.731 730.948 270.513 724.65 264.215L834.294 154.57ZM790.436 450.611C830.762 410.285 859.878 361.153 871.616 311.265C883.034 262.741 879.953 200.229 834.294 154.57L724.65 264.215C718.351 257.917 725.133 256.812 720.677 275.75C716.542 293.324 704.049 317.709 680.792 340.966L790.436 450.611ZM785.024 455.906C786.842 454.166 788.646 452.401 790.436 450.611L680.792 340.966C679.803 341.955 678.809 342.927 677.811 343.882L785.024 455.906ZM760.128 320.801C747.511 320.801 735.083 321.491 722.93 322.829L739.905 476.958C746.392 476.244 753.153 475.862 760.128 475.862V320.801ZM1000.47 499.121C1000.47 434.55 958.448 388.169 916.063 361.931C872.487 334.955 817.157 320.801 760.128 320.801V475.862C793.018 475.862 819.095 484.271 834.446 493.774C850.988 504.014 845.411 508.028 845.411 499.121H1000.47ZM760.128 677.441C817.157 677.441 872.487 663.287 916.063 636.312C958.448 610.073 1000.47 563.693 1000.47 499.121H845.411C845.411 490.214 850.988 494.229 834.446 504.469C819.095 513.972 793.018 522.38 760.128 522.38V677.441ZM720.36 675.12C733.33 676.651 746.621 677.441 760.128 677.441V522.38C752.66 522.38 745.439 521.943 738.537 521.128L720.36 675.12ZM790.434 549.271C787.813 546.649 785.161 544.082 782.482 541.569L676.416 654.679C677.883 656.055 679.342 657.467 680.79 658.915L790.434 549.271ZM834.292 845.311C879.951 799.652 883.032 737.141 871.614 688.617C859.876 638.729 830.76 589.597 790.434 549.271L680.79 658.915C704.047 682.172 716.54 706.557 720.675 724.132C725.131 743.069 718.349 741.965 724.648 735.666L834.292 845.311ZM538.252 801.453C578.578 841.779 627.71 870.895 677.598 882.633C726.122 894.05 788.633 890.97 834.292 845.311L724.648 735.666C730.946 729.368 732.051 736.15 713.113 731.694C695.538 727.559 671.153 715.065 647.896 691.809L538.252 801.453ZM533.842 796.963C535.293 798.467 536.763 799.964 538.252 801.453L647.896 691.808C647.076 690.988 646.265 690.162 645.465 689.332L533.842 796.963ZM667.229 748.041C667.229 745.932 667.209 743.828 667.171 741.731L512.136 744.564C512.157 745.717 512.168 746.876 512.168 748.041H667.229ZM488.909 988.385C553.48 988.385 599.861 946.361 626.099 903.976C653.075 860.4 667.229 805.07 667.229 748.041H512.168C512.168 780.931 503.759 807.008 494.256 822.359C484.016 838.901 480.001 833.324 488.909 833.324V988.385ZM310.589 748.041C310.589 805.07 324.742 860.4 351.718 903.976C377.957 946.361 424.337 988.385 488.909 988.385V833.324C497.816 833.324 493.801 838.901 483.561 822.359C474.058 807.008 465.649 780.931 465.649 748.041H310.589Z" fill="#6E5E46" mask="url(#path-1-outside-1_524_1199)"/>
<path fill-rule="evenodd" clip-rule="evenodd" d="M420.125 337.036C420.939 337.85 422.355 337.261 422.355 336.109C422.355 276.729 452.155 228.591 488.914 228.591C525.674 228.591 555.473 276.729 555.473 336.109C555.473 337.251 556.894 337.815 557.701 337.008C599.69 295.019 654.8 282.052 680.793 308.045C706.786 334.038 693.819 389.148 651.83 431.137C651.01 431.956 651.593 433.389 652.752 433.389C712.055 433.389 760.145 463.111 760.27 499.804C760.271 499.848 760.271 499.892 760.271 499.936L760.271 499.994L760.27 500.045C760.186 536.76 712.081 566.507 652.752 566.507C651.622 566.507 651.033 567.896 651.832 568.695C693.821 610.684 706.788 665.794 680.795 691.786C654.802 717.779 599.692 704.812 557.703 662.824C556.889 662.009 555.473 662.596 555.473 663.748C555.473 663.766 555.473 663.784 555.473 663.802C555.473 723.183 525.674 771.321 488.914 771.321C452.155 771.321 422.355 723.183 422.355 663.802C422.355 662.663 420.942 662.095 420.136 662.901C378.147 704.89 323.037 717.857 297.044 691.864C271.051 665.871 284.018 610.761 326.007 568.772C326.832 567.947 326.241 566.509 325.074 566.509C265.78 566.509 217.696 536.796 217.555 500.111C217.555 500.053 217.555 499.995 217.555 499.938C217.555 499.873 217.555 499.808 217.556 499.742C217.736 463.078 265.804 433.39 325.074 433.39C326.223 433.39 326.809 431.977 325.996 431.165C284.007 389.176 271.04 334.066 297.033 308.073C323.026 282.08 378.136 295.047 420.125 337.036Z" fill="#7A7563"/>
<circle cx="488.914" cy="499.937" r="162.814" fill="#9E7A71"/>
<circle cx="488.911" cy="499.922" r="131.802" fill="#AE8583"/>
</g>
<defs>
<clipPath id="clip0_524_1199">
<rect width="1000" height="1000" fill="white" transform="translate(0 0.0273438)"/>
</clipPath>
</defs>
</svg>
