<svg width="501" height="501" viewBox="0 0 501 501" fill="none" xmlns="http://www.w3.org/2000/svg">
<path d="M410.267 161.058L322.772 85.7901C282.974 51.5542 223.189 55.0801 187.691 93.7566L86.2665 204.264C57.4167 235.697 52.422 282.263 73.9488 319.1L118.732 395.734C136.24 425.693 168.383 444.055 203.082 443.92L257.057 443.71L256.847 389.678L257.057 443.71C283.769 443.606 309.262 432.52 327.554 413.055L411.823 323.379C422.814 311.684 430.739 297.451 434.893 281.949L440.784 259.961C450.455 223.868 438.594 185.426 410.267 161.058Z" fill="#585858" stroke="#4E544D" stroke-width="108.065"/>
<path d="M267.11 243.266L325.188 242.781C328.135 242.756 331.067 242.341 333.905 241.547C359.643 234.342 366.891 201.314 346.536 183.994L264.356 114.066C262.599 112.57 260.53 111.485 258.301 110.887C252.751 109.4 246.832 111.094 242.909 115.292L160.187 203.812C138.325 227.206 153.824 265.477 185.804 267.067C190.812 267.316 195.82 266.561 200.532 264.846L252.693 245.87C257.315 244.188 262.191 243.307 267.11 243.266Z" fill="#4F564F"/>
</svg>
