<svg width="400" height="400" viewBox="0 0 400 400" fill="none" xmlns="http://www.w3.org/2000/svg">
<g clip-path="url(#clip0_442_10)">
<mask id="path-1-outside-1_442_10" maskUnits="userSpaceOnUse" x="192.447" y="65.1795" width="191.499" height="183.693" fill="black">
<rect fill="white" x="192.447" y="65.1795" width="191.499" height="183.693"/>
<path fill-rule="evenodd" clip-rule="evenodd" d="M239.427 124.294C236.29 117.892 236.004 110.326 239.317 103.647C245.129 91.9291 259.817 87.3784 272.123 93.4824C276.169 95.4892 279.453 98.3976 281.833 101.814C286.66 101.185 291.784 101.951 296.55 104.315C306.316 109.159 311.647 119.257 310.527 129.075C314.526 128.35 318.843 128.878 322.836 130.858C331.431 135.121 335.577 144.657 332.976 153.142C334.542 153.319 336.112 153.77 337.617 154.517C344.259 157.811 347.098 165.614 343.959 171.944C341.295 177.313 335.185 179.899 329.337 178.548C339.373 185.042 343.339 197.763 338.147 208.23C332.542 219.53 318.385 223.923 306.528 218.042C300.094 214.85 295.659 209.29 293.843 203.066C288.583 207.782 280.543 209 273.552 205.532C264.514 201.049 260.65 190.432 264.923 181.819C265.016 181.631 265.113 181.445 265.212 181.262C262.786 177.503 261.176 173.316 260.485 168.99C259.14 168.662 257.806 168.179 256.508 167.536C249.295 163.958 245.377 156.473 246.262 149.217C243.873 149.4 241.379 148.953 239.045 147.795C232.402 144.5 229.563 136.698 232.703 130.368C234.137 127.475 236.572 125.391 239.427 124.294ZM323.705 175.822C323.494 175.653 323.288 175.479 323.089 175.299C323.059 175.398 323.028 175.496 322.997 175.594C323.234 175.666 323.47 175.742 323.705 175.822Z"/>
</mask>
<path fill-rule="evenodd" clip-rule="evenodd" d="M239.427 124.294C236.29 117.892 236.004 110.326 239.317 103.647C245.129 91.9291 259.817 87.3784 272.123 93.4824C276.169 95.4892 279.453 98.3976 281.833 101.814C286.66 101.185 291.784 101.951 296.55 104.315C306.316 109.159 311.647 119.257 310.527 129.075C314.526 128.35 318.843 128.878 322.836 130.858C331.431 135.121 335.577 144.657 332.976 153.142C334.542 153.319 336.112 153.77 337.617 154.517C344.259 157.811 347.098 165.614 343.959 171.944C341.295 177.313 335.185 179.899 329.337 178.548C339.373 185.042 343.339 197.763 338.147 208.23C332.542 219.53 318.385 223.923 306.528 218.042C300.094 214.85 295.659 209.29 293.843 203.066C288.583 207.782 280.543 209 273.552 205.532C264.514 201.049 260.65 190.432 264.923 181.819C265.016 181.631 265.113 181.445 265.212 181.262C262.786 177.503 261.176 173.316 260.485 168.99C259.14 168.662 257.806 168.179 256.508 167.536C249.295 163.958 245.377 156.473 246.262 149.217C243.873 149.4 241.379 148.953 239.045 147.795C232.402 144.5 229.563 136.698 232.703 130.368C234.137 127.475 236.572 125.391 239.427 124.294ZM323.705 175.822C323.494 175.653 323.288 175.479 323.089 175.299C323.059 175.398 323.028 175.496 322.997 175.594C323.234 175.666 323.47 175.742 323.705 175.822Z" fill="#296C38"/>
<path d="M239.427 124.294L241.911 130.76L248.979 128.045L245.647 121.246L239.427 124.294ZM239.317 103.647L233.112 100.569L233.112 100.569L239.317 103.647ZM272.123 93.4824L275.201 87.2774L275.201 87.2774L272.123 93.4824ZM281.833 101.814L276.15 105.774L278.556 109.227L282.73 108.683L281.833 101.814ZM296.55 104.315L299.628 98.1096L299.628 98.1096L296.55 104.315ZM310.527 129.075L303.645 128.29L302.589 137.554L311.763 135.89L310.527 129.075ZM322.836 130.858L325.914 124.653L325.914 124.653L322.836 130.858ZM332.976 153.142L326.354 151.111L323.909 159.084L332.195 160.024L332.976 153.142ZM337.617 154.517L334.539 160.722L334.539 160.722L337.617 154.517ZM343.959 171.944L337.754 168.866L337.754 168.866L343.959 171.944ZM329.337 178.548L330.896 171.8L325.575 184.364L329.337 178.548ZM338.147 208.23L344.352 211.308L344.352 211.308L338.147 208.23ZM306.528 218.042L309.606 211.836L309.606 211.836L306.528 218.042ZM293.843 203.066L300.492 201.126L297.411 190.566L289.22 197.909L293.843 203.066ZM273.552 205.532L276.63 199.327L276.63 199.327L273.552 205.532ZM264.923 181.819L258.718 178.741L258.718 178.741L264.923 181.819ZM265.212 181.262L271.298 184.568L273.259 180.958L271.032 177.507L265.212 181.262ZM260.485 168.99L267.325 167.898L266.599 163.353L262.127 162.261L260.485 168.99ZM256.508 167.536L253.43 173.741L253.43 173.741L256.508 167.536ZM246.262 149.217L253.137 150.055L254.159 141.669L245.735 142.311L246.262 149.217ZM239.045 147.795L235.967 154L235.967 154L239.045 147.795ZM232.703 130.368L226.498 127.29L226.498 127.29L232.703 130.368ZM323.089 175.299L327.721 170.15L319.646 162.884L316.466 173.272L323.089 175.299ZM323.705 175.822L321.48 182.382L328.03 170.412L323.705 175.822ZM322.997 175.594L316.396 173.497L314.277 180.166L320.968 182.216L322.997 175.594ZM245.647 121.246C243.381 116.622 243.24 111.326 245.522 106.724L233.112 100.569C228.768 109.326 229.198 119.161 233.208 127.342L245.647 121.246ZM245.522 106.724C249.494 98.7169 259.876 95.1394 269.045 99.6875L275.201 87.2774C259.758 79.6174 240.764 85.1413 233.112 100.569L245.522 106.724ZM269.045 99.6875C272.033 101.169 274.426 103.299 276.15 105.774L287.517 97.8553C284.48 93.4962 280.305 89.809 275.201 87.2774L269.045 99.6875ZM299.628 98.1096C293.613 95.1262 287.104 94.1416 280.937 94.9462L282.73 108.683C286.216 108.228 289.954 108.775 293.472 110.52L299.628 98.1096ZM317.409 129.86C318.869 117.06 311.931 104.212 299.628 98.1096L293.472 110.52C300.7 114.105 304.425 121.453 303.645 128.29L317.409 129.86ZM325.914 124.653C320.565 122 314.733 121.273 309.292 122.26L311.763 135.89C314.319 135.427 317.122 135.755 319.758 137.063L325.914 124.653ZM339.598 155.172C343.249 143.265 337.376 130.339 325.914 124.653L319.758 137.063C325.485 139.904 327.906 146.048 326.354 151.111L339.598 155.172ZM340.695 148.312C338.463 147.205 336.114 146.527 333.756 146.26L332.195 160.024C332.97 160.112 333.762 160.336 334.539 160.722L340.695 148.312ZM350.164 175.022C355.141 164.986 350.479 153.165 340.695 148.312L334.539 160.722C338.039 162.458 339.056 166.241 337.754 168.866L350.164 175.022ZM327.779 185.297C336.467 187.304 345.949 183.519 350.164 175.022L337.754 168.866C336.642 171.108 333.902 172.494 330.896 171.8L327.779 185.297ZM344.352 211.308C351.241 197.418 345.833 180.972 333.1 172.733L325.575 184.364C332.913 189.112 335.436 198.109 331.942 205.152L344.352 211.308ZM303.45 224.247C318.45 231.687 336.909 226.313 344.352 211.308L331.942 205.152C328.175 212.747 318.321 216.16 309.606 211.836L303.45 224.247ZM287.194 205.006C289.546 213.067 295.263 220.185 303.45 224.247L309.606 211.836C304.926 209.515 301.772 205.513 300.492 201.126L287.194 205.006ZM270.474 211.737C279.946 216.435 291.047 214.876 298.467 208.224L289.22 197.909C286.119 200.689 281.141 201.565 276.63 199.327L270.474 211.737ZM258.718 178.741C252.608 191.06 258.294 205.696 270.474 211.737L276.63 199.327C270.734 196.403 268.693 189.805 271.128 184.897L258.718 178.741ZM259.126 177.956C258.985 178.215 258.849 178.476 258.718 178.741L271.128 184.897C271.183 184.786 271.24 184.676 271.298 184.568L259.126 177.956ZM253.645 170.082C254.49 175.374 256.455 180.466 259.392 185.018L271.032 177.507C269.118 174.54 267.861 171.258 267.325 167.898L253.645 170.082ZM253.43 173.741C255.188 174.613 257.003 175.27 258.843 175.719L262.127 162.261C261.276 162.053 260.424 161.746 259.586 161.331L253.43 173.741ZM239.386 148.38C238.136 158.634 243.662 168.896 253.43 173.741L259.586 161.331C254.927 159.02 252.618 154.312 253.137 150.055L239.386 148.38ZM235.967 154C239.435 155.72 243.175 156.399 246.788 156.124L245.735 142.311C244.57 142.4 243.324 142.185 242.122 141.59L235.967 154ZM226.498 127.29C221.52 137.325 226.182 149.146 235.967 154L242.122 141.59C238.622 139.853 237.606 136.07 238.908 133.445L226.498 127.29ZM236.944 117.828C232.569 119.508 228.752 122.746 226.498 127.29L238.908 133.445C239.523 132.204 240.575 131.273 241.911 130.76L236.944 117.828ZM318.456 180.449C318.756 180.718 319.064 180.979 319.381 181.233L328.03 170.412C327.924 170.327 327.821 170.24 327.721 170.15L318.456 180.449ZM329.598 177.69C329.637 177.569 329.675 177.448 329.712 177.327L316.466 173.272C316.443 173.347 316.419 173.422 316.396 173.497L329.598 177.69ZM325.93 169.263C325.63 169.161 325.328 169.064 325.026 168.971L320.968 182.216C321.139 182.269 321.31 182.324 321.48 182.382L325.93 169.263Z" fill="#07573A" mask="url(#path-1-outside-1_442_10)"/>
<mask id="path-3-outside-2_442_10" maskUnits="userSpaceOnUse" x="225.769" y="95.6606" width="117.946" height="111.11" fill="black">
<rect fill="white" x="225.769" y="95.6606" width="117.946" height="111.11"/>
<path fill-rule="evenodd" clip-rule="evenodd" d="M310.415 171.617C315.164 174.175 317.152 179.87 314.85 184.507C312.498 189.247 306.555 191.087 301.577 188.616C299.693 187.681 298.216 186.262 297.237 184.602C294.422 185.013 291.419 184.589 288.631 183.205C281.619 179.726 278.621 171.492 281.935 164.816C281.965 164.756 281.995 164.696 282.026 164.636C281.187 164.355 280.355 164.013 279.538 163.607C276.545 162.122 274.114 159.972 272.348 157.445C270.003 157.925 267.449 157.643 265.093 156.474C259.676 153.785 257.361 147.42 259.924 142.258C260.785 140.523 262.087 139.145 263.642 138.181C260.468 134.824 259.162 130.108 260.34 125.729C256.632 123.821 255.062 119.424 256.835 115.851C258.625 112.245 263.144 110.844 266.929 112.722C268.643 113.573 269.913 114.951 270.623 116.54C273.426 116.061 276.442 116.447 279.234 117.833C283.432 119.916 286.136 123.771 286.815 127.935C288.694 127.776 290.661 128.12 292.501 129.033C294.379 129.965 295.864 131.362 296.876 132.998C301.616 135.963 304.654 140.709 305.464 145.79C306.23 145.977 306.99 146.252 307.73 146.619C311.89 148.684 314.125 153.029 313.546 157.21C316.767 159.278 318.043 163.352 316.381 166.701C315.56 168.355 314.165 169.545 312.531 170.168C311.917 170.777 311.198 171.265 310.415 171.617Z"/>
</mask>
<path fill-rule="evenodd" clip-rule="evenodd" d="M310.415 171.617C315.164 174.175 317.152 179.87 314.85 184.507C312.498 189.247 306.555 191.087 301.577 188.616C299.693 187.681 298.216 186.262 297.237 184.602C294.422 185.013 291.419 184.589 288.631 183.205C281.619 179.726 278.621 171.492 281.935 164.816C281.965 164.756 281.995 164.696 282.026 164.636C281.187 164.355 280.355 164.013 279.538 163.607C276.545 162.122 274.114 159.972 272.348 157.445C270.003 157.925 267.449 157.643 265.093 156.474C259.676 153.785 257.361 147.42 259.924 142.258C260.785 140.523 262.087 139.145 263.642 138.181C260.468 134.824 259.162 130.108 260.34 125.729C256.632 123.821 255.062 119.424 256.835 115.851C258.625 112.245 263.144 110.844 266.929 112.722C268.643 113.573 269.913 114.951 270.623 116.54C273.426 116.061 276.442 116.447 279.234 117.833C283.432 119.916 286.136 123.771 286.815 127.935C288.694 127.776 290.661 128.12 292.501 129.033C294.379 129.965 295.864 131.362 296.876 132.998C301.616 135.963 304.654 140.709 305.464 145.79C306.23 145.977 306.99 146.252 307.73 146.619C311.89 148.684 314.125 153.029 313.546 157.21C316.767 159.278 318.043 163.352 316.381 166.701C315.56 168.355 314.165 169.545 312.531 170.168C311.917 170.777 311.198 171.265 310.415 171.617Z" fill="#2E7E40"/>
<path d="M310.415 171.617L307.575 165.299L294.77 171.057L307.131 177.715L310.415 171.617ZM314.85 184.507L308.646 181.428L308.646 181.428L314.85 184.507ZM301.577 188.616L298.498 194.821L298.498 194.821L301.577 188.616ZM297.237 184.602L303.203 181.082L300.839 177.075L296.235 177.748L297.237 184.602ZM288.631 183.205L291.71 177.001L291.71 177.001L288.631 183.205ZM281.935 164.816L288.139 167.896L288.139 167.896L281.935 164.816ZM282.026 164.636L288.182 167.811L291.885 160.63L284.223 158.067L282.026 164.636ZM279.538 163.607L276.459 169.811L276.459 169.811L279.538 163.607ZM272.348 157.445L278.026 153.478L275.419 149.748L270.961 150.659L272.348 157.445ZM265.093 156.474L262.014 162.678L262.014 162.678L265.093 156.474ZM259.924 142.258L266.128 145.337L266.128 145.337L259.924 142.258ZM263.642 138.181L267.29 144.069L274.51 139.595L268.675 133.423L263.642 138.181ZM260.34 125.729L267.029 127.528L268.481 122.128L263.51 119.57L260.34 125.729ZM256.835 115.851L250.631 112.772L250.631 112.772L256.835 115.851ZM266.929 112.722L270.008 106.518L270.008 106.518L266.929 112.722ZM270.623 116.54L264.298 119.364L266.49 124.272L271.788 123.367L270.623 116.54ZM279.234 117.833L282.313 111.628L282.313 111.628L279.234 117.833ZM286.815 127.935L279.979 129.049L281.01 135.378L287.399 134.837L286.815 127.935ZM292.501 129.033L289.421 135.237L289.421 135.237L292.501 129.033ZM296.876 132.998L290.984 136.64L291.834 138.014L293.203 138.871L296.876 132.998ZM305.464 145.79L298.623 146.88L299.348 151.426L303.82 152.518L305.464 145.79ZM307.73 146.619L310.809 140.415L310.809 140.415L307.73 146.619ZM313.546 157.21L306.685 156.26L306.078 160.646L309.803 163.038L313.546 157.21ZM316.381 166.701L310.176 163.622L310.176 163.622L316.381 166.701ZM312.531 170.168L310.065 163.695L308.692 164.218L307.649 165.254L312.531 170.168ZM307.131 177.715C308.874 178.654 309.148 180.417 308.646 181.428L321.055 187.587C325.156 179.323 321.455 169.696 313.7 165.519L307.131 177.715ZM308.646 181.428C308.135 182.459 306.498 183.326 304.657 182.412L298.498 194.821C306.613 198.848 316.861 196.036 321.055 187.587L308.646 181.428ZM304.657 182.412C303.992 182.082 303.511 181.604 303.203 181.082L291.271 188.121C292.922 190.919 295.393 193.28 298.498 194.821L304.657 182.412ZM285.552 189.41C289.622 191.43 294.051 192.067 298.239 191.455L296.235 177.748C294.793 177.959 293.216 177.749 291.71 177.001L285.552 189.41ZM275.731 161.737C270.576 172.123 275.404 184.373 285.552 189.41L291.71 177.001C287.835 175.078 286.667 170.862 288.139 167.896L275.731 161.737ZM275.87 161.461C275.823 161.553 275.776 161.645 275.731 161.737L288.139 167.896C288.153 167.867 288.168 167.839 288.182 167.811L275.87 161.461ZM276.459 169.811C277.562 170.359 278.688 170.823 279.829 171.204L284.223 158.067C283.685 157.887 283.149 157.666 282.618 157.403L276.459 169.811ZM266.671 161.413C269.092 164.877 272.412 167.803 276.459 169.811L282.618 157.403C280.679 156.441 279.136 155.066 278.026 153.478L266.671 161.413ZM262.014 162.678C265.774 164.544 269.902 165.015 273.736 164.231L270.961 150.659C270.104 150.834 269.124 150.742 268.173 150.27L262.014 162.678ZM253.719 139.178C249.318 148.046 253.455 158.43 262.014 162.678L268.173 150.27C265.897 149.14 265.404 146.795 266.128 145.337L253.719 139.178ZM259.994 132.293C257.387 133.908 255.177 136.241 253.719 139.178L266.128 145.337C266.392 144.805 266.786 144.381 267.29 144.069L259.994 132.293ZM253.652 123.93C251.808 130.784 253.891 137.949 258.608 142.939L268.675 133.423C267.046 131.699 266.517 129.432 267.029 127.528L253.652 123.93ZM250.631 112.772C247.037 120.013 250.378 128.392 257.171 131.888L263.51 119.57C263.243 119.433 263.111 119.24 263.059 119.094C263.033 119.022 263.032 118.975 263.032 118.958C263.033 118.947 263.034 118.943 263.04 118.931L250.631 112.772ZM270.008 106.518C263.082 103.08 254.26 105.461 250.631 112.772L263.04 118.931C263.046 118.918 263.048 118.916 263.057 118.908C263.071 118.897 263.111 118.869 263.185 118.846C263.336 118.799 263.573 118.789 263.85 118.926L270.008 106.518ZM276.947 113.715C275.591 110.68 273.186 108.095 270.008 106.518L263.85 118.926C264.101 119.051 264.235 119.222 264.298 119.364L276.947 113.715ZM282.313 111.628C278.187 109.581 273.683 108.991 269.457 109.712L271.788 123.367C273.169 123.132 274.697 123.313 276.154 124.037L282.313 111.628ZM293.651 126.821C292.615 120.461 288.518 114.708 282.313 111.628L276.154 124.037C278.347 125.125 279.658 127.08 279.979 129.049L293.651 126.821ZM295.58 122.828C292.589 121.344 289.353 120.769 286.231 121.034L287.399 134.837C288.036 134.783 288.734 134.896 289.421 135.237L295.58 122.828ZM302.768 129.357C301.087 126.637 298.634 124.344 295.58 122.828L289.421 135.237C290.123 135.585 290.642 136.086 290.984 136.64L302.768 129.357ZM312.304 144.7C311.178 137.637 306.982 131.15 300.549 127.126L293.203 138.871C296.249 140.776 298.129 143.78 298.623 146.88L312.304 144.7ZM310.809 140.415C309.61 139.819 308.368 139.369 307.107 139.061L303.82 152.518C304.092 152.585 304.371 152.685 304.65 152.823L310.809 140.415ZM320.407 158.16C321.407 150.938 317.553 143.762 310.809 140.415L304.65 152.823C306.226 153.606 306.843 155.12 306.685 156.26L320.407 158.16ZM322.585 169.78C325.95 162.999 323.221 155.191 317.289 151.382L309.803 163.038C310.019 163.177 310.126 163.353 310.166 163.484C310.185 163.546 310.184 163.585 310.184 163.598C310.183 163.606 310.183 163.609 310.176 163.622L322.585 169.78ZM314.997 176.64C318.157 175.436 320.942 173.091 322.585 169.78L310.176 163.622C310.172 163.631 310.169 163.634 310.169 163.634C310.168 163.635 310.167 163.637 310.162 163.641C310.153 163.65 310.123 163.673 310.065 163.695L314.997 176.64ZM313.256 177.934C314.773 177.252 316.189 176.297 317.412 175.081L307.649 165.254C307.645 165.258 307.624 165.278 307.575 165.299L313.256 177.934Z" fill="#0A5F40" mask="url(#path-3-outside-2_442_10)"/>
<path d="M139.558 134.877L121.842 87.4534L109.544 82.8904L89.5491 94.4344L94.4194 110.951L111.447 140.443L120.378 168.611L125.594 182.262L135.782 203.373L146.028 221.118L166.914 200.729L150.319 171.986L143.372 155.336L139.558 134.877Z" fill="#664D3B" stroke="#624530" stroke-width="6.9264"/>
<mask id="path-6-outside-3_442_10" maskUnits="userSpaceOnUse" x="42.411" y="55.6678" width="326.542" height="319.588" fill="black">
<rect fill="white" x="42.411" y="55.6678" width="326.542" height="319.588"/>
<path fill-rule="evenodd" clip-rule="evenodd" d="M172.252 114.343C157.027 109.691 140.637 118.716 135.499 134.669C133.233 141.708 133.532 148.929 135.869 155.24C132.68 158.116 130.03 161.71 128.185 165.876C109.512 163.617 90.9907 175.494 84.734 194.923C82.5699 201.644 82.1246 208.487 83.1503 214.939C79.4346 218.456 76.5015 222.978 74.8011 228.258C69.6181 244.353 77.8506 261.405 93.1889 266.344C98.6725 268.11 104.322 268.089 109.554 266.597C112.21 280.653 121.884 292.665 135.948 297.195C149.338 301.506 163.455 297.987 173.717 289.127C179.807 297.1 188.19 303.301 198.3 306.557C204.879 308.675 211.59 309.355 218.121 308.766C218.664 319.782 225.842 329.532 236.6 332.415C250.093 336.03 264.11 327.473 267.907 313.302C269.357 307.892 269.107 302.445 267.493 297.577C275.753 295.953 283.018 289.767 285.883 280.871C286.408 279.241 286.76 277.599 286.949 275.966C301.523 273.516 314.461 262.783 319.487 247.177C326.539 225.276 315.337 202.074 294.466 195.353C290.978 194.229 287.44 193.638 283.934 193.533C283.472 190.046 282.427 186.701 280.871 183.646C285.756 180.219 289.649 175.145 291.657 168.91C296.379 154.249 288.889 138.719 274.929 134.224C268.093 132.022 260.973 132.875 254.932 136.04C249.795 120.898 238.169 108.479 222.263 103.357C204.495 97.6349 185.751 102.424 172.252 114.343Z"/>
</mask>
<path fill-rule="evenodd" clip-rule="evenodd" d="M172.252 114.343C157.027 109.691 140.637 118.716 135.499 134.669C133.233 141.708 133.532 148.929 135.869 155.24C132.68 158.116 130.03 161.71 128.185 165.876C109.512 163.617 90.9907 175.494 84.734 194.923C82.5699 201.644 82.1246 208.487 83.1503 214.939C79.4346 218.456 76.5015 222.978 74.8011 228.258C69.6181 244.353 77.8506 261.405 93.1889 266.344C98.6725 268.11 104.322 268.089 109.554 266.597C112.21 280.653 121.884 292.665 135.948 297.195C149.338 301.506 163.455 297.987 173.717 289.127C179.807 297.1 188.19 303.301 198.3 306.557C204.879 308.675 211.59 309.355 218.121 308.766C218.664 319.782 225.842 329.532 236.6 332.415C250.093 336.03 264.11 327.473 267.907 313.302C269.357 307.892 269.107 302.445 267.493 297.577C275.753 295.953 283.018 289.767 285.883 280.871C286.408 279.241 286.76 277.599 286.949 275.966C301.523 273.516 314.461 262.783 319.487 247.177C326.539 225.276 315.337 202.074 294.466 195.353C290.978 194.229 287.44 193.638 283.934 193.533C283.472 190.046 282.427 186.701 280.871 183.646C285.756 180.219 289.649 175.145 291.657 168.91C296.379 154.249 288.889 138.719 274.929 134.224C268.093 132.022 260.973 132.875 254.932 136.04C249.795 120.898 238.169 108.479 222.263 103.357C204.495 97.6349 185.751 102.424 172.252 114.343Z" fill="#296C38"/>
<path d="M135.499 134.669L142.092 136.792L142.092 136.792L135.499 134.669ZM172.252 114.343L170.227 120.967L173.932 122.099L176.836 119.535L172.252 114.343ZM135.869 155.24L140.508 160.384L143.995 157.239L142.364 152.835L135.869 155.24ZM128.185 165.876L127.354 172.752L132.443 173.368L134.519 168.68L128.185 165.876ZM84.734 194.923L91.327 197.047L91.327 197.047L84.734 194.923ZM83.1503 214.939L87.9121 219.969L90.5641 217.458L89.9908 213.851L83.1503 214.939ZM74.8011 228.258L81.394 230.381L81.394 230.381L74.8011 228.258ZM93.1889 266.344L91.0658 272.937L91.0658 272.937L93.1889 266.344ZM109.554 266.597L116.36 265.311L114.952 257.856L107.656 259.936L109.554 266.597ZM135.948 297.195L138.071 290.602L138.071 290.602L135.948 297.195ZM173.717 289.127L179.222 284.923L174.758 279.078L169.191 283.884L173.717 289.127ZM198.3 306.557L196.177 313.15L196.177 313.15L198.3 306.557ZM218.121 308.766L225.039 308.425L224.683 301.22L217.499 301.868L218.121 308.766ZM236.6 332.415L238.392 325.725L238.392 325.725L236.6 332.415ZM267.907 313.302L274.597 315.095L274.597 315.095L267.907 313.302ZM267.493 297.577L266.156 290.781L258.446 292.298L260.919 299.757L267.493 297.577ZM285.883 280.871L279.29 278.748L279.29 278.748L285.883 280.871ZM286.949 275.966L285.801 269.135L280.667 269.998L280.068 275.169L286.949 275.966ZM319.487 247.177L326.08 249.3L326.08 249.3L319.487 247.177ZM294.466 195.353L296.589 188.76L296.589 188.76L294.466 195.353ZM283.934 193.533L277.068 194.443L277.842 200.281L283.728 200.456L283.934 193.533ZM280.871 183.646L276.893 177.976L271.969 181.43L274.699 186.79L280.871 183.646ZM291.657 168.91L285.064 166.787L285.064 166.787L291.657 168.91ZM274.929 134.224L272.806 140.817L272.806 140.817L274.929 134.224ZM254.932 136.04L248.373 138.265L250.974 145.934L258.146 142.176L254.932 136.04ZM222.263 103.357L224.386 96.7638L222.263 103.357ZM142.092 136.792C146.163 124.151 158.907 117.508 170.227 120.967L174.276 107.719C155.146 101.873 135.11 113.281 128.906 132.546L142.092 136.792ZM142.364 152.835C140.558 147.957 140.309 142.33 142.092 136.792L128.906 132.546C126.157 141.085 126.506 149.901 129.373 157.645L142.364 152.835ZM134.519 168.68C135.965 165.414 138.034 162.615 140.508 160.384L131.23 150.097C127.327 153.617 124.095 158.005 121.852 163.072L134.519 168.68ZM91.327 197.047C96.6192 180.613 112.142 170.912 127.354 172.752L129.017 159C106.883 156.322 85.3622 170.376 78.1411 192.8L91.327 197.047ZM89.9908 213.851C89.1337 208.46 89.5009 202.717 91.327 197.047L78.1411 192.8C75.6388 200.571 75.1156 208.514 76.3098 216.026L89.9908 213.851ZM81.394 230.381C82.7328 226.224 85.0292 222.698 87.9121 219.969L78.3884 209.909C73.8401 214.215 70.2702 219.732 68.2081 226.135L81.394 230.381ZM95.3121 259.751C83.9105 256.08 77.2861 243.138 81.394 230.381L68.2081 226.135C61.95 245.569 71.7907 266.73 91.0658 272.937L95.3121 259.751ZM107.656 259.936C103.681 261.069 99.433 261.078 95.3121 259.751L91.0658 272.937C97.9119 275.142 104.963 275.108 111.453 273.258L107.656 259.936ZM138.071 290.602C126.629 286.917 118.587 277.094 116.36 265.311L102.748 267.883C105.834 284.211 117.139 298.414 133.825 303.788L138.071 290.602ZM169.191 283.884C160.6 291.302 148.969 294.111 138.071 290.602L133.825 303.788C149.707 308.902 166.31 304.673 178.244 294.37L169.191 283.884ZM200.423 299.964C191.72 297.161 184.495 291.827 179.222 284.923L168.212 293.331C175.119 302.374 184.66 309.441 196.177 313.15L200.423 299.964ZM217.499 301.868C211.872 302.375 206.095 301.79 200.423 299.964L196.177 313.15C203.662 315.56 211.309 316.334 218.743 315.664L217.499 301.868ZM238.392 325.725C230.802 323.691 225.448 316.716 225.039 308.425L211.203 309.107C211.881 322.849 220.881 335.374 234.807 339.105L238.392 325.725ZM261.216 311.51C258.326 322.299 247.885 328.268 238.392 325.725L234.807 339.105C252.3 343.793 269.894 332.648 274.597 315.095L261.216 311.51ZM260.919 299.757C262.113 303.36 262.311 307.426 261.216 311.51L274.597 315.095C276.403 308.358 276.101 301.53 274.068 295.398L260.919 299.757ZM279.29 278.748C277.192 285.264 271.926 289.646 266.156 290.781L268.83 304.374C279.58 302.259 288.845 294.269 292.476 282.994L279.29 278.748ZM280.068 275.169C279.931 276.353 279.675 277.551 279.29 278.748L292.476 282.994C293.14 280.931 293.588 278.844 293.829 276.762L280.068 275.169ZM312.894 245.054C308.653 258.223 297.795 267.119 285.801 269.135L288.097 282.796C305.25 279.913 320.269 267.342 326.08 249.3L312.894 245.054ZM292.343 201.946C309.277 207.399 318.871 226.492 312.894 245.054L326.08 249.3C334.207 224.061 321.397 196.748 296.589 188.76L292.343 201.946ZM283.728 200.456C286.591 200.542 289.483 201.025 292.343 201.946L296.589 188.76C292.472 187.434 288.289 186.733 284.141 186.61L283.728 200.456ZM274.699 186.79C275.897 189.142 276.708 191.731 277.068 194.443L290.801 192.623C290.236 188.361 288.957 184.261 287.043 180.502L274.699 186.79ZM285.064 166.787C283.526 171.564 280.563 175.401 276.893 177.976L284.849 189.316C290.95 185.037 295.773 178.726 298.25 171.033L285.064 166.787ZM272.806 140.817C282.824 144.043 288.712 155.459 285.064 166.787L298.25 171.033C304.045 153.039 294.954 133.396 277.052 127.631L272.806 140.817ZM258.146 142.176C262.655 139.813 267.857 139.223 272.806 140.817L277.052 127.631C268.329 124.822 259.291 125.937 251.717 129.905L258.146 142.176ZM220.14 109.95C233.797 114.348 243.883 125.032 248.373 138.265L261.491 133.815C255.707 116.764 242.542 102.61 224.386 96.7638L220.14 109.95ZM176.836 119.535C188.663 109.093 204.893 105.04 220.14 109.95L224.386 96.7638C204.096 90.2299 182.84 95.7549 167.667 109.151L176.836 119.535Z" fill="#07573A" mask="url(#path-6-outside-3_442_10)"/>
<mask id="path-8-outside-4_442_10" maskUnits="userSpaceOnUse" x="93.2459" y="96.0835" width="237.813" height="223.904" fill="black">
<rect fill="white" x="93.2459" y="96.0835" width="237.813" height="223.904"/>
<path fill-rule="evenodd" clip-rule="evenodd" d="M181.686 142.383C185.457 130.831 197.421 124.352 208.455 127.905C214.427 129.828 218.905 134.297 221.174 139.829C228.775 144.087 234.467 150.917 237.582 158.939C238.814 159.07 240.049 159.328 241.271 159.722C251.338 162.964 256.74 174.164 253.335 184.737C252.92 186.027 252.393 187.248 251.769 188.391C257.804 193.513 260.652 201.995 258.631 210.356C263.648 212.313 267.809 215.629 270.861 219.778C273.1 219.476 275.419 219.603 277.718 220.218C287.449 222.826 293.118 233.225 290.379 243.445C288.149 251.768 281.031 257.406 273.209 257.803C273.96 261.496 273.795 265.468 272.541 269.361C268.803 280.968 256.805 287.49 245.744 283.928C240.334 282.186 236.15 278.355 233.724 273.537C232.954 272.884 232.249 272.162 231.614 271.383C222.31 277.783 210.521 279.995 199.273 276.373C186.428 272.236 177.449 261.509 174.567 248.811C168.165 252.007 160.694 252.818 153.512 250.505C148.278 248.819 143.887 245.696 140.6 241.675C138.222 241.565 135.827 241.142 133.464 240.381C118.412 235.534 110.333 218.8 115.419 203.006C119.499 190.337 130.809 182.12 142.893 181.865C142.343 178.437 142.578 174.8 143.728 171.227C147.355 159.965 158.758 153.49 169.537 156.369C172.532 150.674 176.739 145.927 181.686 142.383Z"/>
</mask>
<path fill-rule="evenodd" clip-rule="evenodd" d="M181.686 142.383C185.457 130.831 197.421 124.352 208.455 127.905C214.427 129.828 218.905 134.297 221.174 139.829C228.775 144.087 234.467 150.917 237.582 158.939C238.814 159.07 240.049 159.328 241.271 159.722C251.338 162.964 256.74 174.164 253.335 184.737C252.92 186.027 252.393 187.248 251.769 188.391C257.804 193.513 260.652 201.995 258.631 210.356C263.648 212.313 267.809 215.629 270.861 219.778C273.1 219.476 275.419 219.603 277.718 220.218C287.449 222.826 293.118 233.225 290.379 243.445C288.149 251.768 281.031 257.406 273.209 257.803C273.96 261.496 273.795 265.468 272.541 269.361C268.803 280.968 256.805 287.49 245.744 283.928C240.334 282.186 236.15 278.355 233.724 273.537C232.954 272.884 232.249 272.162 231.614 271.383C222.31 277.783 210.521 279.995 199.273 276.373C186.428 272.236 177.449 261.509 174.567 248.811C168.165 252.007 160.694 252.818 153.512 250.505C148.278 248.819 143.887 245.696 140.6 241.675C138.222 241.565 135.827 241.142 133.464 240.381C118.412 235.534 110.333 218.8 115.419 203.006C119.499 190.337 130.809 182.12 142.893 181.865C142.343 178.437 142.578 174.8 143.728 171.227C147.355 159.965 158.758 153.49 169.537 156.369C172.532 150.674 176.739 145.927 181.686 142.383Z" fill="#2E7E40"/>
<path d="M208.455 127.905L206.332 134.498L208.455 127.905ZM181.686 142.383L185.72 148.014L187.566 146.691L188.271 144.532L181.686 142.383ZM221.174 139.829L214.765 142.458L215.682 144.692L217.789 145.873L221.174 139.829ZM237.582 158.939L231.125 161.446L232.653 165.38L236.85 165.827L237.582 158.939ZM241.271 159.722L243.394 153.129L243.394 153.129L241.271 159.722ZM253.335 184.737L246.742 182.614L246.742 182.614L253.335 184.737ZM251.769 188.391L245.688 185.075L242.988 190.024L247.287 193.672L251.769 188.391ZM258.631 210.356L251.898 208.729L250.477 214.61L256.114 216.809L258.631 210.356ZM270.861 219.778L265.282 223.882L267.716 227.19L271.785 226.642L270.861 219.778ZM277.718 220.218L279.511 213.528L279.511 213.528L277.718 220.218ZM290.379 243.445L297.07 245.237L297.07 245.237L290.379 243.445ZM273.209 257.803L272.857 250.886L264.816 251.295L266.421 259.185L273.209 257.803ZM272.541 269.361L265.948 267.238L265.948 267.238L272.541 269.361ZM245.744 283.928L243.62 290.521L243.62 290.521L245.744 283.928ZM233.724 273.537L239.91 270.422L239.277 269.165L238.203 268.255L233.724 273.537ZM231.614 271.383L236.987 267.011L232.954 262.055L227.689 265.676L231.614 271.383ZM199.273 276.373L201.396 269.78L201.396 269.78L199.273 276.373ZM174.567 248.811L181.322 247.278L179.369 238.673L171.474 242.614L174.567 248.811ZM153.512 250.505L151.389 257.098L151.389 257.098L153.512 250.505ZM140.6 241.675L145.962 237.291L144.007 234.9L140.922 234.757L140.6 241.675ZM133.464 240.381L131.341 246.974L131.341 246.974L133.464 240.381ZM115.419 203.006L122.012 205.129L115.419 203.006ZM142.893 181.865L143.039 188.79L150.992 188.622L149.732 180.769L142.893 181.865ZM143.728 171.227L137.135 169.104L137.135 169.104L143.728 171.227ZM169.537 156.369L167.75 163.061L173.094 164.488L175.668 159.593L169.537 156.369ZM210.578 121.312C195.618 116.495 179.958 125.358 175.102 140.233L188.271 144.532C190.956 136.305 199.224 132.209 206.332 134.498L210.578 121.312ZM227.582 137.201C224.597 129.923 218.635 123.907 210.578 121.312L206.332 134.498C210.219 135.75 213.213 138.671 214.765 142.458L227.582 137.201ZM244.039 156.432C240.376 147 233.645 138.875 224.558 133.786L217.789 145.873C223.905 149.298 228.558 154.834 231.125 161.446L244.039 156.432ZM236.85 165.827C237.613 165.908 238.381 166.068 239.148 166.315L243.394 153.129C241.716 152.589 240.016 152.232 238.315 152.052L236.85 165.827ZM239.148 166.315C245.273 168.287 249.074 175.374 246.742 182.614L259.928 186.86C264.406 172.954 257.404 157.64 243.394 153.129L239.148 166.315ZM246.742 182.614C246.46 183.489 246.105 184.31 245.688 185.075L257.85 191.708C258.68 190.185 259.379 188.564 259.928 186.86L246.742 182.614ZM265.364 211.983C267.983 201.146 264.332 189.968 256.251 183.11L247.287 193.672C251.276 197.057 253.321 202.845 251.898 208.729L265.364 211.983ZM276.441 215.673C272.647 210.517 267.444 206.359 261.148 203.903L256.114 216.809C259.851 218.267 262.971 220.74 265.282 223.882L276.441 215.673ZM279.511 213.528C276.306 212.669 273.062 212.493 269.937 212.913L271.785 226.642C273.137 226.46 274.533 226.536 275.925 226.909L279.511 213.528ZM297.07 245.237C300.715 231.635 293.242 217.207 279.511 213.528L275.925 226.909C281.656 228.444 285.521 234.814 283.689 241.652L297.07 245.237ZM273.56 264.721C284.484 264.166 294.088 256.365 297.07 245.237L283.689 241.652C282.21 247.172 277.578 250.646 272.857 250.886L273.56 264.721ZM279.134 271.484C280.758 266.442 280.981 261.264 279.996 256.422L266.421 259.185C266.939 261.729 266.832 264.493 265.948 267.238L279.134 271.484ZM243.62 290.521C258.619 295.351 274.321 286.43 279.134 271.484L265.948 267.238C263.285 275.507 254.992 279.63 247.867 277.335L243.62 290.521ZM227.537 276.653C230.741 283.014 236.329 288.173 243.62 290.521L247.867 277.335C244.339 276.199 241.559 273.696 239.91 270.422L227.537 276.653ZM226.242 275.755C227.141 276.859 228.143 277.887 229.244 278.82L238.203 268.255C237.764 267.882 237.357 267.466 236.987 267.011L226.242 275.755ZM197.15 282.966C210.599 287.297 224.606 284.611 235.54 277.089L227.689 265.676C220.014 270.956 210.443 272.693 201.396 269.78L197.15 282.966ZM167.813 250.344C171.189 265.22 181.779 278.016 197.15 282.966L201.396 269.78C191.076 266.456 183.709 257.797 181.322 247.278L167.813 250.344ZM151.389 257.098C160.406 260.001 169.746 258.959 177.661 255.008L171.474 242.614C166.585 245.054 160.982 245.634 155.636 243.912L151.389 257.098ZM135.237 246.059C139.332 251.068 144.831 254.986 151.389 257.098L155.636 243.912C151.726 242.653 148.442 240.325 145.962 237.291L135.237 246.059ZM131.341 246.974C134.294 247.925 137.295 248.455 140.277 248.594L140.922 234.757C139.149 234.674 137.36 234.359 135.587 233.788L131.341 246.974ZM108.826 200.882C102.665 220.016 112.352 240.859 131.341 246.974L135.587 233.788C124.472 230.208 118.001 217.585 122.012 205.129L108.826 200.882ZM142.747 174.941C127.623 175.26 113.784 185.486 108.826 200.882L122.012 205.129C125.213 195.187 133.995 188.981 143.039 188.79L142.747 174.941ZM137.135 169.104C135.645 173.729 135.334 178.471 136.054 182.962L149.732 180.769C149.353 178.404 149.51 175.87 150.321 173.351L137.135 169.104ZM171.325 149.677C156.72 145.776 141.808 154.593 137.135 169.104L150.321 173.351C152.901 165.337 160.796 161.203 167.75 163.061L171.325 149.677ZM177.653 136.752C171.837 140.918 166.908 146.487 163.407 153.146L175.668 159.593C178.155 154.862 181.641 150.935 185.72 148.014L177.653 136.752Z" fill="#0A5F40" mask="url(#path-8-outside-4_442_10)"/>
<mask id="path-10-outside-5_442_10" maskUnits="userSpaceOnUse" x="133.001" y="134.851" width="136.103" height="135.737" fill="black">
<rect fill="white" x="133.001" y="134.851" width="136.103" height="135.737"/>
<path fill-rule="evenodd" clip-rule="evenodd" d="M194.504 164.563C194.079 166.149 194.033 167.743 194.309 169.24C193.608 170.233 193.041 171.351 192.647 172.576C192.603 172.715 192.561 172.853 192.521 172.992C189.47 174.951 186.88 177.734 185.103 181.148C183.767 179.027 181.743 177.364 179.221 176.552C173.31 174.648 166.899 178.133 164.901 184.336C164.325 186.125 164.179 187.944 164.405 189.673C158.567 191.93 153.691 196.849 151.562 203.46C147.917 214.779 153.706 226.771 164.493 230.244C168.709 231.602 173.063 231.458 177.022 230.103C177.215 230.174 177.41 230.241 177.607 230.304C181.445 231.54 185.437 231.107 188.858 229.399C190.206 235.338 194.05 240.471 199.591 243.141C199.849 247.772 202.76 251.919 207.256 253.367C213.167 255.271 219.578 251.786 221.575 245.583C222.25 243.489 222.335 241.352 221.924 239.368C224.472 236.948 226.484 233.842 227.652 230.215C227.741 229.939 227.824 229.662 227.902 229.385C233.703 228.594 238.909 224.398 240.898 218.221C243.219 211.014 240.41 203.44 234.53 199.769C234.592 194.812 231.607 190.253 226.847 188.72C225.525 188.294 224.177 188.138 222.86 188.222C222.633 185.705 221.967 183.28 220.916 181.061C222.018 179.895 222.889 178.458 223.419 176.812C225.238 171.162 222.352 165.177 216.972 163.445C215.648 163.019 214.297 162.889 212.985 163.021C211.886 160.23 209.595 158.009 206.569 157.198C201.369 155.804 195.967 159.102 194.504 164.563Z"/>
</mask>
<path fill-rule="evenodd" clip-rule="evenodd" d="M194.504 164.563C194.079 166.149 194.033 167.743 194.309 169.24C193.608 170.233 193.041 171.351 192.647 172.576C192.603 172.715 192.561 172.853 192.521 172.992C189.47 174.951 186.88 177.734 185.103 181.148C183.767 179.027 181.743 177.364 179.221 176.552C173.31 174.648 166.899 178.133 164.901 184.336C164.325 186.125 164.179 187.944 164.405 189.673C158.567 191.93 153.691 196.849 151.562 203.46C147.917 214.779 153.706 226.771 164.493 230.244C168.709 231.602 173.063 231.458 177.022 230.103C177.215 230.174 177.41 230.241 177.607 230.304C181.445 231.54 185.437 231.107 188.858 229.399C190.206 235.338 194.05 240.471 199.591 243.141C199.849 247.772 202.76 251.919 207.256 253.367C213.167 255.271 219.578 251.786 221.575 245.583C222.25 243.489 222.335 241.352 221.924 239.368C224.472 236.948 226.484 233.842 227.652 230.215C227.741 229.939 227.824 229.662 227.902 229.385C233.703 228.594 238.909 224.398 240.898 218.221C243.219 211.014 240.41 203.44 234.53 199.769C234.592 194.812 231.607 190.253 226.847 188.72C225.525 188.294 224.177 188.138 222.86 188.222C222.633 185.705 221.967 183.28 220.916 181.061C222.018 179.895 222.889 178.458 223.419 176.812C225.238 171.162 222.352 165.177 216.972 163.445C215.648 163.019 214.297 162.889 212.985 163.021C211.886 160.23 209.595 158.009 206.569 157.198C201.369 155.804 195.967 159.102 194.504 164.563Z" fill="#339048"/>
<path d="M194.309 169.24L199.967 173.236L201.649 170.854L201.121 167.986L194.309 169.24ZM194.504 164.563L201.194 166.356L201.194 166.356L194.504 164.563ZM192.647 172.576L199.24 174.699L199.24 174.699L192.647 172.576ZM192.521 172.992L196.264 178.82L198.467 177.405L199.183 174.886L192.521 172.992ZM185.103 181.148L179.243 184.84L185.676 195.054L191.248 184.345L185.103 181.148ZM179.221 176.552L181.344 169.959L181.344 169.959L179.221 176.552ZM164.901 184.336L171.494 186.459L171.494 186.459L164.901 184.336ZM164.405 189.673L166.902 196.134L171.976 194.172L171.273 188.777L164.405 189.673ZM151.562 203.46L144.969 201.337L144.969 201.337L151.562 203.46ZM164.493 230.244L162.37 236.837L162.37 236.837L164.493 230.244ZM177.022 230.103L179.418 223.604L177.109 222.752L174.779 223.549L177.022 230.103ZM177.607 230.304L175.484 236.897L175.484 236.897L177.607 230.304ZM188.858 229.399L195.613 227.866L193.66 219.261L185.765 223.202L188.858 229.399ZM199.591 243.141L206.506 242.755L206.279 238.675L202.597 236.901L199.591 243.141ZM207.256 253.367L205.133 259.96L205.133 259.96L207.256 253.367ZM221.575 245.583L228.168 247.706L228.168 247.706L221.575 245.583ZM221.924 239.368L217.155 234.345L214.36 236.998L215.141 240.772L221.924 239.368ZM227.652 230.215L221.059 228.092L221.059 228.092L227.652 230.215ZM227.902 229.385L226.966 222.523L222.459 223.137L221.232 227.518L227.902 229.385ZM240.898 218.221L234.305 216.098L234.305 216.098L240.898 218.221ZM234.53 199.769L227.605 199.684L227.557 203.58L230.862 205.644L234.53 199.769ZM226.847 188.72L224.724 195.313L224.724 195.313L226.847 188.72ZM222.86 188.222L215.961 188.843L216.566 195.562L223.299 195.134L222.86 188.222ZM220.916 181.061L215.881 176.304L212.63 179.746L214.656 184.025L220.916 181.061ZM223.419 176.812L230.012 178.935L230.012 178.935L223.419 176.812ZM216.972 163.445L219.095 156.852L219.095 156.852L216.972 163.445ZM212.985 163.021L206.539 165.557L208.459 170.437L213.677 169.913L212.985 163.021ZM206.569 157.198L204.776 163.888L204.776 163.888L206.569 157.198ZM201.121 167.986C201.029 167.488 201.039 166.935 201.194 166.356L187.814 162.771C187.119 165.363 187.037 167.998 187.497 170.495L201.121 167.986ZM199.24 174.699C199.418 174.148 199.667 173.659 199.967 173.236L188.651 165.245C187.549 166.806 186.665 168.555 186.054 170.453L199.24 174.699ZM199.183 174.886C199.201 174.824 199.22 174.762 199.24 174.699L186.054 170.453C185.985 170.667 185.92 170.882 185.859 171.097L199.183 174.886ZM191.248 184.345C192.462 182.011 194.22 180.132 196.264 178.82L188.779 167.163C184.72 169.769 181.298 173.456 178.959 177.951L191.248 184.345ZM177.098 183.145C177.985 183.431 178.723 184.015 179.243 184.84L190.964 177.457C188.812 174.039 185.502 171.298 181.344 169.959L177.098 183.145ZM171.494 186.459C172.416 183.595 175.123 182.509 177.098 183.145L181.344 169.959C171.496 166.788 161.381 172.672 158.308 182.213L171.494 186.459ZM171.273 188.777C171.178 188.05 171.236 187.262 171.494 186.459L158.308 182.213C157.415 184.988 157.18 187.838 157.536 190.569L171.273 188.777ZM158.155 205.583C159.638 200.977 162.999 197.642 166.902 196.134L161.907 183.213C154.135 186.217 147.743 192.721 144.969 201.337L158.155 205.583ZM166.616 223.652C159.766 221.446 155.585 213.564 158.155 205.583L144.969 201.337C140.249 215.994 147.646 232.096 162.37 236.837L166.616 223.652ZM174.779 223.549C172.16 224.446 169.338 224.528 166.616 223.652L162.37 236.837C168.079 238.676 173.966 238.47 179.265 236.656L174.779 223.549ZM179.73 223.711C179.625 223.677 179.521 223.642 179.418 223.604L174.626 236.601C174.909 236.706 175.195 236.804 175.484 236.897L179.73 223.711ZM185.765 223.202C183.856 224.155 181.733 224.356 179.73 223.711L175.484 236.897C181.156 238.724 187.018 238.059 191.952 235.596L185.765 223.202ZM202.597 236.901C199.093 235.212 196.528 231.898 195.613 227.866L182.104 230.932C183.884 238.778 189.007 245.729 196.584 249.38L202.597 236.901ZM209.379 246.774C207.854 246.283 206.62 244.788 206.506 242.755L192.675 243.526C193.078 250.756 197.667 257.556 205.133 259.96L209.379 246.774ZM214.982 243.46C214.06 246.324 211.353 247.41 209.379 246.774L205.133 259.96C214.98 263.131 225.096 257.247 228.168 247.706L214.982 243.46ZM215.141 240.772C215.313 241.601 215.284 242.522 214.982 243.46L228.168 247.706C229.215 244.456 229.356 241.103 228.706 237.964L215.141 240.772ZM221.059 228.092C220.252 230.599 218.874 232.712 217.155 234.345L226.693 244.391C230.071 241.184 232.717 237.084 234.245 232.338L221.059 228.092ZM221.232 227.518C221.178 227.709 221.121 227.9 221.059 228.092L234.245 232.338C234.361 231.978 234.47 231.616 234.572 231.253L221.232 227.518ZM234.305 216.098C233.121 219.775 230.089 222.097 226.966 222.523L228.838 236.248C237.318 235.092 244.697 229.021 247.491 220.344L234.305 216.098ZM230.862 205.644C233.935 207.563 235.695 211.782 234.305 216.098L247.491 220.344C250.744 210.245 246.884 199.317 238.199 193.894L230.862 205.644ZM224.724 195.313C226.334 195.832 227.632 197.486 227.605 199.684L241.456 199.854C241.551 192.138 236.88 184.674 228.971 182.127L224.724 195.313ZM223.299 195.134C223.769 195.104 224.246 195.159 224.724 195.313L228.971 182.127C226.804 181.429 224.586 181.172 222.421 181.309L223.299 195.134ZM214.656 184.025C215.357 185.505 215.808 187.136 215.961 188.843L229.758 187.601C229.459 184.273 228.577 181.055 227.176 178.096L214.656 184.025ZM216.826 174.689C216.616 175.34 216.283 175.879 215.881 176.304L225.951 185.817C227.753 183.91 229.161 181.577 230.012 178.935L216.826 174.689ZM214.849 170.038C216.287 170.501 217.572 172.372 216.826 174.689L230.012 178.935C232.905 169.952 228.417 159.854 219.095 156.852L214.849 170.038ZM213.677 169.913C214.064 169.874 214.456 169.911 214.849 170.038L219.095 156.852C216.841 156.126 214.53 155.905 212.292 156.13L213.677 169.913ZM204.776 163.888C205.514 164.086 206.18 164.643 206.539 165.557L219.43 160.486C217.593 155.816 213.677 151.932 208.362 150.507L204.776 163.888ZM201.194 166.356C201.751 164.277 203.577 163.567 204.776 163.888L208.362 150.507C199.162 148.042 190.183 153.927 187.814 162.771L201.194 166.356Z" fill="#0B6645" mask="url(#path-10-outside-5_442_10)"/>
<mask id="path-12-outside-6_442_10" maskUnits="userSpaceOnUse" x="-23.7237" y="-8.54009" width="194.84" height="195.405" fill="black">
<rect fill="white" x="-23.7237" y="-8.54009" width="194.84" height="195.405"/>
<path fill-rule="evenodd" clip-rule="evenodd" d="M126.491 47.4128C121.288 44.1988 114.764 44.7882 109.959 48.3846L109.879 48.3348C103.708 44.5231 96.1716 44.6429 90.0091 47.977C88.4522 44.7954 86.0381 42.0278 82.8476 40.057C74.6013 34.9632 63.9162 36.8904 57.3305 44.1264C56.7064 43.5619 56.0236 43.0469 55.2841 42.5901C48.3968 38.3358 39.1945 40.7457 34.7303 47.9728C31.6943 52.8877 31.6316 58.7649 34.0685 63.3605C30.1721 64.2516 26.5647 66.7082 24.2411 70.47C20.2497 76.9317 21.3973 85.0565 26.6078 89.7457C26.8322 95.6442 28.8756 101.328 32.5461 105.886C31.6509 106.95 30.8208 108.094 30.0665 109.316C22.0971 122.217 25.6038 138.833 37.899 146.428C45.2883 150.992 54.1701 151.259 61.8115 147.946C62.9002 150.779 64.8578 153.262 67.5905 154.95C74.4778 159.205 83.6801 156.795 88.1443 149.568C90.0132 146.542 90.7554 143.152 90.4814 139.92C97.1938 139.711 103.801 136.094 107.722 129.746C109.936 126.163 110.988 122.203 110.977 118.337C120.666 118.627 130.434 113.641 136.094 104.478C143.685 92.1882 141.251 76.6566 130.942 68.0979C135.324 60.8857 133.346 51.6468 126.491 47.4128Z"/>
</mask>
<path fill-rule="evenodd" clip-rule="evenodd" d="M126.491 47.4128C121.288 44.1988 114.764 44.7882 109.959 48.3846L109.879 48.3348C103.708 44.5231 96.1716 44.6429 90.0091 47.977C88.4522 44.7954 86.0381 42.0278 82.8476 40.057C74.6013 34.9632 63.9162 36.8904 57.3305 44.1264C56.7064 43.5619 56.0236 43.0469 55.2841 42.5901C48.3968 38.3358 39.1945 40.7457 34.7303 47.9728C31.6943 52.8877 31.6316 58.7649 34.0685 63.3605C30.1721 64.2516 26.5647 66.7082 24.2411 70.47C20.2497 76.9317 21.3973 85.0565 26.6078 89.7457C26.8322 95.6442 28.8756 101.328 32.5461 105.886C31.6509 106.95 30.8208 108.094 30.0665 109.316C22.0971 122.217 25.6038 138.833 37.899 146.428C45.2883 150.992 54.1701 151.259 61.8115 147.946C62.9002 150.779 64.8578 153.262 67.5905 154.95C74.4778 159.205 83.6801 156.795 88.1443 149.568C90.0132 146.542 90.7554 143.152 90.4814 139.92C97.1938 139.711 103.801 136.094 107.722 129.746C109.936 126.163 110.988 122.203 110.977 118.337C120.666 118.627 130.434 113.641 136.094 104.478C143.685 92.1882 141.251 76.6566 130.942 68.0979C135.324 60.8857 133.346 51.6468 126.491 47.4128Z" fill="#296C38"/>
<path d="M109.959 48.3846L106.305 54.2686L110.323 56.7642L114.11 53.9296L109.959 48.3846ZM126.491 47.4128L130.131 41.52L130.131 41.52L126.491 47.4128ZM109.879 48.3348L113.533 42.4509L113.526 42.4465L113.519 42.442L109.879 48.3348ZM90.0091 47.977L83.7877 51.0215L86.9591 57.5022L93.305 54.0689L90.0091 47.977ZM82.8476 40.057L79.2076 45.9498L79.2076 45.9498L82.8476 40.057ZM57.3305 44.1264L52.6844 49.2634L57.8054 53.8949L62.4529 48.7885L57.3305 44.1264ZM55.2841 42.5901L51.6441 48.4829L51.6441 48.4829L55.2841 42.5901ZM34.7303 47.9728L40.6232 51.6128L40.6232 51.6128L34.7303 47.9728ZM34.0685 63.3605L35.6126 70.1126L44.4208 68.0983L40.1878 60.1156L34.0685 63.3605ZM24.2411 70.47L18.3482 66.83L18.3482 66.83L24.2411 70.47ZM26.6078 89.7457L33.5292 89.4823L33.4178 86.5561L31.2411 84.5973L26.6078 89.7457ZM32.5461 105.886L37.8467 110.344L41.5163 105.982L37.9409 101.542L32.5461 105.886ZM30.0665 109.316L24.1736 105.676L24.1736 105.676L30.0665 109.316ZM37.899 146.428L41.539 140.535L41.539 140.535L37.899 146.428ZM61.8115 147.946L68.2771 145.461L65.6853 138.716L59.0557 141.591L61.8115 147.946ZM67.5905 154.95L63.9504 160.843L63.9505 160.843L67.5905 154.95ZM88.1443 149.568L94.0371 153.208L94.0371 153.208L88.1443 149.568ZM90.4814 139.92L90.2652 132.997L82.9624 133.225L83.5798 140.506L90.4814 139.92ZM107.722 129.746L101.829 126.106L101.829 126.106L107.722 129.746ZM110.977 118.337L111.184 111.414L104.031 111.2L104.051 118.356L110.977 118.337ZM136.094 104.478L141.987 108.118L141.987 108.118L136.094 104.478ZM130.942 68.0979L125.023 64.5015L121.92 69.6093L126.518 73.427L130.942 68.0979ZM114.11 53.9296C116.845 51.8824 120.285 51.7203 122.851 53.3056L130.131 41.52C122.292 36.6774 112.683 37.6941 105.809 42.8397L114.11 53.9296ZM106.225 54.2188L106.305 54.2686L113.614 42.5007L113.533 42.4509L106.225 54.2188ZM93.305 54.0689C97.4777 51.8114 102.356 51.8293 106.239 54.2277L113.519 42.442C105.06 37.2168 94.8655 37.4744 86.7132 41.885L93.305 54.0689ZM79.2076 45.9498C81.2399 47.2052 82.7809 48.9641 83.7877 51.0215L96.2305 44.9325C94.1235 40.6267 90.8363 36.8503 86.4877 34.1642L79.2076 45.9498ZM62.4529 48.7885C66.9964 43.7964 74.0453 42.761 79.2076 45.9498L86.4877 34.1642C75.1574 27.1654 60.836 29.9844 52.208 39.4642L62.4529 48.7885ZM51.6441 48.4829C52.024 48.7176 52.3702 48.9793 52.6844 49.2634L61.9765 38.9893C61.0425 38.1446 60.0233 37.3762 58.9241 36.6973L51.6441 48.4829ZM40.6232 51.6128C43.2442 47.3696 48.2754 46.4021 51.6441 48.4829L58.9242 36.6973C48.5181 30.2695 35.1449 34.1217 28.8375 44.3328L40.6232 51.6128ZM40.1878 60.1156C38.9087 57.7036 38.8728 54.4464 40.6232 51.6128L28.8375 44.3328C24.5159 51.3291 24.3544 59.8263 27.9492 66.6054L40.1878 60.1156ZM30.1339 74.11C31.4705 71.9461 33.5006 70.5956 35.6126 70.1126L32.5244 56.6084C26.8435 57.9075 21.6589 61.4704 18.3482 66.83L30.1339 74.11ZM31.2411 84.5973C28.6506 82.2659 27.8079 77.8755 30.1339 74.11L18.3482 66.83C12.6914 75.9879 14.1439 87.8472 21.9744 94.8942L31.2411 84.5973ZM37.9409 101.542C35.2494 98.1994 33.6997 93.9641 33.5292 89.4823L19.6864 90.0091C19.9648 97.3243 22.5018 104.456 27.1514 110.23L37.9409 101.542ZM35.9593 112.956C36.536 112.022 37.1681 111.151 37.8467 110.344L27.2455 101.427C26.1337 102.749 25.1056 104.167 24.1736 105.676L35.9593 112.956ZM41.539 140.535C32.7625 135.114 29.8331 122.873 35.9593 112.956L24.1736 105.676C14.3611 121.561 18.4451 142.552 34.259 152.321L41.539 140.535ZM59.0557 141.591C53.3215 144.078 46.8461 143.813 41.539 140.535L34.259 152.321C43.7304 158.171 55.0188 158.441 64.5673 154.3L59.0557 141.591ZM71.2305 149.057C69.8535 148.207 68.8508 146.954 68.2771 145.461L55.346 150.43C56.9496 154.603 59.8622 158.318 63.9504 160.843L71.2305 149.057ZM82.2515 145.928C79.6304 150.171 74.5992 151.138 71.2305 149.057L63.9505 160.843C74.3565 167.271 87.7297 163.419 94.0371 153.208L82.2515 145.928ZM83.5798 140.506C83.7303 142.28 83.3273 144.186 82.2514 145.928L94.0371 153.208C96.699 148.898 97.7805 144.023 97.383 139.335L83.5798 140.506ZM101.829 126.106C99.1299 130.476 94.6549 132.86 90.2652 132.997L90.6976 146.843C99.7327 146.561 108.472 141.712 113.615 133.386L101.829 126.106ZM104.051 118.356C104.058 120.95 103.353 123.639 101.829 126.106L113.615 133.386C116.518 128.687 117.917 123.456 117.903 118.318L104.051 118.356ZM130.202 100.837C125.833 107.91 118.383 111.629 111.184 111.414L110.77 125.261C122.949 125.625 135.035 119.373 141.987 108.118L130.202 100.837ZM126.518 73.427C134.01 79.6471 136.089 91.3055 130.202 100.837L141.987 108.118C151.282 93.0708 148.492 73.666 135.367 62.7688L126.518 73.427ZM122.851 53.3056C126.204 55.3769 127.593 60.2702 125.023 64.5015L136.862 71.6942C143.054 61.5012 140.487 47.9166 130.131 41.52L122.851 53.3056Z" fill="#07573A" mask="url(#path-12-outside-6_442_10)"/>
<mask id="path-14-outside-7_442_10" maskUnits="userSpaceOnUse" x="15.4315" y="28.2935" width="125.865" height="125.865" fill="black">
<rect fill="white" x="15.4315" y="28.2935" width="125.865" height="125.865"/>
<path fill-rule="evenodd" clip-rule="evenodd" d="M62.5078 123.175C58.8456 125.063 54.4131 125.045 50.8299 122.731C45.3882 119.217 43.9658 111.74 47.6527 106.03C47.6726 105.999 47.6927 105.968 47.7128 105.938C46.6973 101.757 46.9343 97.2208 48.5429 92.9541C47.1122 88.3766 47.6998 83.1096 50.5873 78.6376C53.6292 73.9264 58.5258 71.1786 63.5595 70.8082C61.4095 67.9485 61.2072 63.8239 63.3472 60.5095C66.0568 56.3131 71.4953 55.0045 75.4944 57.5867C77.5667 58.9247 78.8459 61.045 79.2205 63.3613C81.865 62.9958 84.6066 63.5219 86.9767 65.0522C88.2461 65.8719 89.2968 66.9072 90.115 68.0855C95.2333 61.9271 104.002 60.2713 110.586 64.5223C116.407 68.2809 118.722 75.4966 116.757 82.0939C117.332 82.3023 117.891 82.5777 118.425 82.9223C122.424 85.5045 123.47 90.9997 120.76 95.1961C118.05 99.3925 112.612 100.701 108.613 98.1188C108.43 98.001 108.254 97.8771 108.084 97.7476C107.623 99.223 106.955 100.667 106.071 102.036C104.741 104.094 103.058 105.778 101.164 107.052C101.271 108.934 100.793 110.892 99.672 112.628C97.3007 116.3 92.8392 117.761 89.0816 116.338C87.953 117.538 86.5617 118.385 85.0753 118.839C84.8215 120.594 84.1891 122.336 83.1541 123.939C79.4671 129.649 72.0669 131.43 66.6252 127.916C64.7725 126.72 63.3857 125.064 62.5078 123.175Z"/>
</mask>
<path fill-rule="evenodd" clip-rule="evenodd" d="M62.5078 123.175C58.8456 125.063 54.4131 125.045 50.8299 122.731C45.3882 119.217 43.9658 111.74 47.6527 106.03C47.6726 105.999 47.6927 105.968 47.7128 105.938C46.6973 101.757 46.9343 97.2208 48.5429 92.9541C47.1122 88.3766 47.6998 83.1096 50.5873 78.6376C53.6292 73.9264 58.5258 71.1786 63.5595 70.8082C61.4095 67.9485 61.2072 63.8239 63.3472 60.5095C66.0568 56.3131 71.4953 55.0045 75.4944 57.5867C77.5667 58.9247 78.8459 61.045 79.2205 63.3613C81.865 62.9958 84.6066 63.5219 86.9767 65.0522C88.2461 65.8719 89.2968 66.9072 90.115 68.0855C95.2333 61.9271 104.002 60.2713 110.586 64.5223C116.407 68.2809 118.722 75.4966 116.757 82.0939C117.332 82.3023 117.891 82.5777 118.425 82.9223C122.424 85.5045 123.47 90.9997 120.76 95.1961C118.05 99.3925 112.612 100.701 108.613 98.1188C108.43 98.001 108.254 97.8771 108.084 97.7476C107.623 99.223 106.955 100.667 106.071 102.036C104.741 104.094 103.058 105.778 101.164 107.052C101.271 108.934 100.793 110.892 99.672 112.628C97.3007 116.3 92.8392 117.761 89.0816 116.338C87.953 117.538 86.5617 118.385 85.0753 118.839C84.8215 120.594 84.1891 122.336 83.1541 123.939C79.4671 129.649 72.0669 131.43 66.6252 127.916C64.7725 126.72 63.3857 125.064 62.5078 123.175Z" fill="#2E7E40"/>
<path d="M50.8299 122.731L47.0728 128.55L47.0728 128.55L50.8299 122.731ZM62.5078 123.175L68.789 120.256L65.748 113.712L59.3343 117.018L62.5078 123.175ZM47.6527 106.03L41.834 102.273L41.8339 102.273L47.6527 106.03ZM47.7128 105.938L53.5002 109.743L55.154 107.228L54.4435 104.303L47.7128 105.938ZM48.5429 92.9541L55.024 95.3975L55.8657 93.165L55.1539 90.8878L48.5429 92.9541ZM50.5873 78.6376L56.4061 82.3948L56.4061 82.3948L50.5873 78.6376ZM63.5595 70.8082L64.0679 77.7159L76.7189 76.7849L69.0957 66.6458L63.5595 70.8082ZM63.3472 60.5095L57.5284 56.7523L57.5284 56.7523L63.3472 60.5095ZM75.4944 57.5867L71.7373 63.4055L71.7373 63.4055L75.4944 57.5867ZM79.2205 63.3613L72.3829 64.467L73.4634 71.1493L80.1688 70.2225L79.2205 63.3613ZM86.9767 65.0522L83.2195 70.871L83.2195 70.871L86.9767 65.0522ZM90.115 68.0855L84.4256 72.0359L89.6202 79.5173L95.4418 72.5127L90.115 68.0855ZM110.586 64.5223L114.343 58.7035L114.343 58.7035L110.586 64.5223ZM116.757 82.0939L110.119 80.1163L108.253 86.3795L114.397 88.606L116.757 82.0939ZM118.425 82.9223L114.668 88.7411L114.668 88.7411L118.425 82.9223ZM120.76 95.1961L114.941 91.4389L114.941 91.4389L120.76 95.1961ZM108.613 98.1188L104.856 103.938L104.856 103.938L108.613 98.1188ZM108.084 97.7476L112.281 92.2373L104.419 86.2501L101.473 95.6821L108.084 97.7476ZM106.071 102.036L111.889 105.793L111.889 105.793L106.071 102.036ZM101.164 107.052L97.2975 101.305L94.024 103.508L94.2486 107.447L101.164 107.052ZM99.672 112.628L93.8532 108.871L93.8532 108.871L99.672 112.628ZM89.0816 116.338L91.5353 109.86L87.207 108.221L84.0361 111.592L89.0816 116.338ZM85.0753 118.839L83.0518 112.215L78.8493 113.498L78.2203 117.847L85.0753 118.839ZM83.1541 123.939L88.9729 127.696L88.9729 127.696L83.1541 123.939ZM66.6252 127.916L70.3824 122.097L70.3824 122.097L66.6252 127.916ZM47.0728 128.55C52.9155 132.323 60.0081 132.256 65.6813 129.332L59.3343 117.018C57.683 117.87 55.9107 117.767 54.5871 116.912L47.0728 128.55ZM41.8339 102.273C36.2444 110.929 38.1566 122.793 47.0728 128.55L54.5871 116.912C52.6199 115.642 51.6871 112.551 53.4715 109.787L41.8339 102.273ZM41.9254 102.132C41.8947 102.179 41.8643 102.226 41.834 102.273L53.4715 109.787C53.481 109.772 53.4906 109.758 53.5002 109.743L41.9254 102.132ZM42.0618 90.5107C39.9609 96.0833 39.6385 102.041 40.9822 107.573L54.4435 104.303C53.7562 101.473 53.9078 98.3582 55.024 95.3975L42.0618 90.5107ZM44.7684 74.8805C40.7567 81.0936 39.8927 88.496 41.9319 95.0203L55.1539 90.8878C54.3317 88.2571 54.6428 85.1256 56.4061 82.3948L44.7684 74.8805ZM63.0512 63.9004C55.8614 64.4295 48.9942 68.3359 44.7684 74.8805L56.4061 82.3948C58.2643 79.5169 61.1903 77.9276 64.0679 77.7159L63.0512 63.9004ZM57.5284 56.7523C53.8565 62.4392 54.0824 69.7289 58.0233 74.9706L69.0957 66.6458C68.7366 66.1681 68.5578 65.2086 69.1661 64.2666L57.5284 56.7523ZM79.2516 51.7679C71.778 46.9422 62.1405 49.6094 57.5284 56.7523L69.1661 64.2666C69.9732 63.0167 71.2126 63.0668 71.7373 63.4055L79.2516 51.7679ZM86.058 62.2557C85.3931 58.1434 83.0876 54.2447 79.2516 51.7678L71.7373 63.4055C72.0459 63.6048 72.2987 63.9466 72.3829 64.467L86.058 62.2557ZM90.7338 59.2334C86.89 56.7514 82.4617 55.9211 78.2722 56.5002L80.1688 70.2225C81.2683 70.0706 82.3232 70.2923 83.2195 70.871L90.7338 59.2334ZM95.8044 64.1351C94.4823 62.2311 92.7807 60.555 90.7338 59.2334L83.2195 70.871C83.7116 71.1888 84.1113 71.5834 84.4256 72.0359L95.8044 64.1351ZM114.343 58.7035C104.563 52.3891 91.9495 55.0417 84.7881 63.6584L95.4418 72.5127C98.5171 68.8125 103.441 68.1536 106.828 70.3411L114.343 58.7035ZM123.395 84.0715C126.159 74.7948 122.98 64.2803 114.343 58.7035L106.828 70.3411C109.834 72.2815 111.286 76.1985 110.119 80.1163L123.395 84.0715ZM122.182 77.1035C121.206 76.4734 120.178 75.9664 119.116 75.5819L114.397 88.606C114.486 88.6382 114.576 88.6819 114.668 88.7411L122.182 77.1035ZM126.579 98.9532C131.191 91.8104 129.656 81.9291 122.182 77.1035L114.668 88.7411C115.193 89.0799 115.748 90.1889 114.941 91.4389L126.579 98.9532ZM104.856 103.938C112.329 108.763 121.967 106.096 126.579 98.9532L114.941 91.4389C114.134 92.6889 112.895 92.6388 112.37 92.3L104.856 103.938ZM103.887 103.258C104.2 103.496 104.523 103.723 104.856 103.938L112.37 92.3C112.338 92.2794 112.308 92.2585 112.281 92.2373L103.887 103.258ZM101.473 95.6821C101.197 96.5644 100.794 97.4383 100.252 98.2784L111.889 105.793C113.115 103.895 114.049 101.882 114.695 99.813L101.473 95.6821ZM100.252 98.2784C99.4376 99.5394 98.4216 100.549 97.2975 101.305L105.03 112.799C107.694 111.007 110.045 108.649 111.889 105.793L100.252 98.2784ZM105.491 116.385C107.42 113.397 108.268 109.982 108.079 106.658L94.2486 107.447C94.2737 107.887 94.1653 108.387 93.8532 108.871L105.491 116.385ZM86.6279 122.815C93.585 125.45 101.434 122.668 105.491 116.385L93.8532 108.871C93.1675 109.932 92.0934 110.072 91.5353 109.86L86.6279 122.815ZM87.0989 125.463C89.7298 124.659 92.1655 123.169 94.1271 121.083L84.0361 111.592C83.7406 111.906 83.3937 112.11 83.0518 112.215L87.0989 125.463ZM88.9729 127.696C90.5548 125.246 91.5358 122.559 91.9304 119.83L78.2203 117.847C78.1073 118.629 77.8235 119.426 77.3353 120.182L88.9729 127.696ZM62.868 133.735C71.7842 139.492 83.3835 136.353 88.9729 127.696L77.3353 120.182C75.5508 122.945 72.3495 123.367 70.3824 122.097L62.868 133.735ZM56.2266 126.094C57.6321 129.118 59.8716 131.8 62.868 133.735L70.3824 122.097C69.6734 121.639 69.1394 121.01 68.789 120.256L56.2266 126.094Z" fill="#0A5F40" mask="url(#path-14-outside-7_442_10)"/>
</g>
<defs>
<clipPath id="clip0_442_10">
<rect width="400" height="400" fill="white"/>
</clipPath>
</defs>
</svg>
