<svg width="500" height="501" viewBox="0 0 500 501" fill="none" xmlns="http://www.w3.org/2000/svg">
<g clip-path="url(#clip0_524_1200)">
<mask id="path-1-outside-1_524_1200" maskUnits="userSpaceOnUse" x="-89.9216" y="-90.2743" width="680.858" height="680.858" fill="black">
<rect fill="white" x="-89.9216" y="-90.2743" width="680.858" height="680.858"/>
<path fill-rule="evenodd" clip-rule="evenodd" d="M143.013 145.359C143.859 145.706 144.699 146.059 145.533 146.418C145.167 145.587 144.808 144.75 144.454 143.907C124.985 97.4469 132.518 50.0132 161.279 37.961C190.041 25.9089 229.139 53.8022 248.608 100.263C248.96 101.103 249.303 101.944 249.638 102.785C249.967 101.938 250.305 101.091 250.651 100.244C269.737 53.6251 308.605 25.4109 337.464 37.226C366.323 49.041 374.246 96.4111 355.16 143.03C354.816 143.87 354.466 144.705 354.109 145.533C354.936 145.169 355.769 144.811 356.608 144.459C403.068 124.99 450.502 132.523 462.554 161.285C474.606 190.046 446.713 229.144 400.253 248.613C399.404 248.968 398.554 249.315 397.705 249.653C398.558 249.984 399.411 250.324 400.264 250.674C446.883 269.759 475.097 308.627 463.282 337.486C451.467 366.345 404.097 374.268 357.478 355.183C356.635 354.837 355.798 354.486 354.967 354.128C355.333 354.958 355.693 355.795 356.046 356.638C375.515 403.098 367.982 450.532 339.221 462.584C310.46 474.636 271.362 446.743 251.893 400.283C251.538 399.436 251.192 398.59 250.856 397.743C250.526 398.591 250.188 399.439 249.841 400.286C230.903 446.545 192.488 474.682 163.7 463.571C163.475 463.49 163.252 463.405 163.031 463.314C162.812 463.224 162.596 463.131 162.382 463.032C134.052 450.778 126.39 403.769 145.332 357.5C145.677 356.658 146.028 355.822 146.386 354.992C145.556 355.358 144.721 355.717 143.88 356.069C97.4194 375.538 49.9857 368.005 37.9335 339.244C25.8814 310.483 53.7747 271.385 100.235 251.916C101.079 251.562 101.923 251.217 102.768 250.882C101.921 250.553 101.074 250.215 100.227 249.868C53.6083 230.783 25.3941 191.915 37.2091 163.056C49.0242 134.197 96.3943 126.274 143.013 145.359Z"/>
</mask>
<path fill-rule="evenodd" clip-rule="evenodd" d="M143.013 145.359C143.859 145.706 144.699 146.059 145.533 146.418C145.167 145.587 144.808 144.75 144.454 143.907C124.985 97.4469 132.518 50.0132 161.279 37.961C190.041 25.9089 229.139 53.8022 248.608 100.263C248.96 101.103 249.303 101.944 249.638 102.785C249.967 101.938 250.305 101.091 250.651 100.244C269.737 53.6251 308.605 25.4109 337.464 37.226C366.323 49.041 374.246 96.4111 355.16 143.03C354.816 143.87 354.466 144.705 354.109 145.533C354.936 145.169 355.769 144.811 356.608 144.459C403.068 124.99 450.502 132.523 462.554 161.285C474.606 190.046 446.713 229.144 400.253 248.613C399.404 248.968 398.554 249.315 397.705 249.653C398.558 249.984 399.411 250.324 400.264 250.674C446.883 269.759 475.097 308.627 463.282 337.486C451.467 366.345 404.097 374.268 357.478 355.183C356.635 354.837 355.798 354.486 354.967 354.128C355.333 354.958 355.693 355.795 356.046 356.638C375.515 403.098 367.982 450.532 339.221 462.584C310.46 474.636 271.362 446.743 251.893 400.283C251.538 399.436 251.192 398.59 250.856 397.743C250.526 398.591 250.188 399.439 249.841 400.286C230.903 446.545 192.488 474.682 163.7 463.571C163.475 463.49 163.252 463.405 163.031 463.314C162.812 463.224 162.596 463.131 162.382 463.032C134.052 450.778 126.39 403.769 145.332 357.5C145.677 356.658 146.028 355.822 146.386 354.992C145.556 355.358 144.721 355.717 143.88 356.069C97.4194 375.538 49.9857 368.005 37.9335 339.244C25.8814 310.483 53.7747 271.385 100.235 251.916C101.079 251.562 101.923 251.217 102.768 250.882C101.921 250.553 101.074 250.215 100.227 249.868C53.6083 230.783 25.3941 191.915 37.2091 163.056C49.0242 134.197 96.3943 126.274 143.013 145.359Z" fill="#784D4D"/>
<path d="M145.533 146.418L133.531 174.277L204.413 204.815L173.293 134.187L145.533 146.418ZM161.279 37.961L149.556 9.98365L149.556 9.98365L161.279 37.961ZM248.608 100.263L220.63 111.986L220.63 111.986L248.608 100.263ZM249.638 102.785L221.452 113.999L249.982 185.709L277.916 113.765L249.638 102.785ZM354.109 145.533L326.249 133.534L295.729 204.398L366.338 173.293L354.109 145.533ZM356.608 144.459L344.884 116.482L344.884 116.482L356.608 144.459ZM462.554 161.285L490.532 149.561L490.532 149.561L462.554 161.285ZM400.253 248.613L388.529 220.635L388.529 220.635L400.253 248.613ZM397.705 249.653L386.496 221.465L314.748 249.996L386.729 277.932L397.705 249.653ZM354.967 354.128L366.968 326.268L296.092 295.738L327.208 366.359L354.967 354.128ZM356.046 356.638L384.023 344.914L384.023 344.914L356.046 356.638ZM339.221 462.584L327.497 434.607L327.497 434.607L339.221 462.584ZM251.893 400.283L223.915 412.006L223.915 412.006L251.893 400.283ZM250.856 397.743L279.043 386.533L250.516 314.803L222.578 386.764L250.856 397.743ZM163.7 463.571L174.622 435.272L174.315 435.153L174.006 435.041L163.7 463.571ZM162.382 463.032L175.027 435.459L174.727 435.322L174.425 435.191L162.382 463.032ZM146.386 354.992L174.245 366.993L204.773 296.12L134.155 327.233L146.386 354.992ZM102.768 250.882L113.979 279.068L185.7 250.54L113.747 222.604L102.768 250.882ZM157.536 118.559C156.533 118.127 155.523 117.703 154.506 117.286L131.52 173.432C132.196 173.709 132.866 173.99 133.531 174.277L157.536 118.559ZM116.477 155.631C116.901 156.644 117.334 157.65 117.774 158.649L173.293 134.187C173.001 133.525 172.714 132.857 172.432 132.184L116.477 155.631ZM149.556 9.98365C121.917 21.5652 108.799 48.2284 104.822 73.2733C100.758 98.8595 104.917 128.045 116.477 155.631L172.432 132.184C164.522 113.309 162.713 95.5476 164.74 82.7888C166.852 69.4888 171.88 66.409 173.003 65.9384L149.556 9.98365ZM276.585 88.5388C265.025 60.9532 247.135 37.5212 226.045 22.4753C205.402 7.74768 177.194 -1.59794 149.556 9.98365L173.003 65.9384C174.126 65.4679 179.848 64.0428 190.811 71.8639C201.327 79.3667 212.721 93.1115 220.63 111.986L276.585 88.5388ZM277.824 91.5716C277.421 90.5602 277.008 89.5491 276.585 88.5386L220.63 111.986C220.911 112.657 221.185 113.328 221.452 113.999L277.824 91.5716ZM222.579 88.751C222.162 89.7683 221.756 90.7867 221.36 91.8061L277.916 113.765C278.178 113.09 278.447 112.414 278.724 111.737L222.579 88.751ZM348.957 9.15303C321.224 -2.2007 293.094 7.37675 272.573 22.2738C251.607 37.4927 233.911 61.0712 222.579 88.751L278.724 111.737C286.478 92.7979 297.758 78.9598 308.213 71.3707C319.111 63.4597 324.844 64.8376 325.971 65.2989L348.957 9.15303ZM383.233 154.523C394.566 126.843 398.484 97.6243 394.211 72.0724C390.027 47.0611 376.69 20.5068 348.957 9.15303L325.971 65.2989C327.098 65.7602 332.151 68.7985 334.373 82.0807C336.504 94.8224 334.841 112.598 327.088 131.537L383.233 154.523ZM381.97 157.532C382.399 156.536 382.82 155.533 383.233 154.523L327.088 131.537C326.813 132.208 326.533 132.874 326.249 133.534L381.97 157.532ZM344.884 116.482C343.876 116.904 342.875 117.335 341.88 117.773L366.338 173.293C366.997 173.003 367.662 172.718 368.332 172.437L344.884 116.482ZM490.532 149.561C478.95 121.923 452.287 108.804 427.242 104.827C401.656 100.763 372.47 104.922 344.884 116.482L368.332 172.437C387.206 164.527 404.968 162.718 417.726 164.745C431.027 166.857 434.106 171.885 434.577 173.008L490.532 149.561ZM411.977 276.59C439.562 265.031 462.994 247.14 478.04 226.051C492.768 205.407 502.113 177.199 490.532 149.561L434.577 173.008C435.047 174.131 436.472 179.853 428.651 190.816C421.149 201.333 407.404 212.726 388.529 220.635L411.977 276.59ZM408.914 277.841C409.935 277.435 410.956 277.018 411.977 276.59L388.529 220.635C387.851 220.919 387.174 221.196 386.496 221.465L408.914 277.841ZM411.757 222.601C410.733 222.181 409.707 221.772 408.68 221.374L386.729 277.932C387.409 278.196 388.09 278.468 388.771 278.747L411.757 222.601ZM491.355 348.979C502.709 321.247 493.132 293.117 478.235 272.595C463.016 251.629 439.437 233.933 411.757 222.601L388.771 278.747C407.71 286.5 421.548 297.78 429.138 308.235C437.049 319.133 435.671 324.866 435.209 325.993L491.355 348.979ZM345.985 383.256C373.665 394.588 402.884 398.506 428.436 394.233C453.447 390.049 480.002 376.712 491.355 348.979L435.209 325.993C434.748 327.12 431.71 332.173 418.428 334.395C405.686 336.526 387.91 334.863 368.971 327.11L345.985 383.256ZM342.967 381.988C343.966 382.418 344.972 382.841 345.985 383.256L368.971 327.11C368.298 326.834 367.63 326.554 366.968 326.268L342.967 381.988ZM384.023 344.914C383.599 343.902 383.167 342.896 382.727 341.897L327.208 366.359C327.5 367.021 327.787 367.689 328.069 368.362L384.023 344.914ZM350.945 490.562C378.583 478.98 391.701 452.317 395.679 427.272C399.742 401.686 395.583 372.5 384.023 344.914L328.069 368.362C335.978 387.236 337.787 404.998 335.761 417.756C333.649 431.057 328.62 434.136 327.497 434.607L350.945 490.562ZM223.915 412.006C235.475 439.592 253.365 463.024 274.455 478.07C295.099 492.798 323.306 502.143 350.945 490.562L327.497 434.607C326.374 435.077 320.652 436.502 309.69 428.681C299.173 421.179 287.779 407.434 279.87 388.559L223.915 412.006ZM222.668 408.953C223.074 409.972 223.489 410.99 223.915 412.006L279.87 388.559C279.587 387.883 279.311 387.207 279.043 386.533L222.668 408.953ZM277.914 411.78C278.331 410.761 278.738 409.742 279.134 408.722L222.578 386.764C222.315 387.44 222.045 388.117 221.768 388.793L277.914 411.78ZM152.778 491.871C180.375 502.522 208.127 492.786 228.413 477.897C249.156 462.672 266.667 439.253 277.914 411.78L221.768 388.793C214.078 407.579 202.912 421.357 192.515 428.988C181.662 436.954 175.813 435.731 174.622 435.272L152.778 491.871ZM151.538 491.387C152.153 491.639 152.772 491.877 153.394 492.102L174.006 435.041C174.179 435.104 174.352 435.17 174.524 435.241L151.538 491.387ZM149.738 490.606C150.332 490.878 150.932 491.139 151.538 491.387L174.524 435.241C174.693 435.31 174.86 435.383 175.027 435.459L149.738 490.606ZM117.259 346.007C106.009 373.487 102.07 402.469 106.186 427.873C110.211 452.719 123.179 479.126 150.339 490.874L174.425 435.191C173.255 434.685 168.227 431.46 166.074 418.171C164.011 405.44 165.712 387.783 173.405 368.993L117.259 346.007ZM118.526 342.992C118.096 343.991 117.673 344.996 117.259 346.007L173.405 368.993C173.68 368.321 173.961 367.654 174.245 366.993L118.526 342.992ZM155.603 384.047C156.614 383.623 157.618 383.191 158.616 382.752L134.155 327.233C133.494 327.524 132.828 327.81 132.156 328.092L155.603 384.047ZM9.95615 350.968C21.5378 378.606 48.2009 391.725 73.2458 395.702C98.832 399.765 128.018 395.606 155.603 384.047L132.156 328.092C113.281 336.001 95.5201 337.81 82.7613 335.784C69.4613 333.672 66.3815 328.643 65.9109 327.52L9.95615 350.968ZM88.5113 223.939C60.9257 235.498 37.4937 253.388 22.4478 274.478C7.72018 295.122 -1.62544 323.33 9.95615 350.968L65.9109 327.52C65.4404 326.397 64.0153 320.676 71.8364 309.713C79.3392 299.196 93.084 287.803 111.959 279.893L88.5113 223.939ZM91.5562 222.695C90.5401 223.099 89.5251 223.514 88.5113 223.939L111.959 279.893C112.633 279.611 113.307 279.336 113.979 279.068L91.5562 222.695ZM88.7341 277.941C89.7512 278.358 90.7695 278.764 91.7886 279.159L113.747 222.604C113.072 222.342 112.397 222.072 111.72 221.795L88.7341 277.941ZM9.13621 151.563C-2.21753 179.295 7.35994 207.425 22.257 227.947C37.4759 248.913 61.0543 266.609 88.7341 277.941L111.72 221.795C92.7811 214.042 78.943 202.762 71.3539 192.307C63.4428 181.409 64.8207 175.676 65.282 174.549L9.13621 151.563ZM154.506 117.286C126.827 105.954 97.6075 102.036 72.0556 106.309C47.0442 110.493 20.4899 123.83 9.13621 151.563L65.282 174.549C65.7434 173.422 68.7816 168.369 82.0639 166.147C94.8056 164.016 112.581 165.679 131.52 173.432L154.506 117.286Z" fill="#6F4646" mask="url(#path-1-outside-1_524_1200)"/>
<mask id="path-3-outside-2_524_1200" maskUnits="userSpaceOnUse" x="-71.5407" y="-71.5188" width="643.467" height="643.467" fill="black">
<rect fill="white" x="-71.5407" y="-71.5188" width="643.467" height="643.467"/>
<path fill-rule="evenodd" clip-rule="evenodd" d="M200.443 132.252C200.997 132.805 201.543 133.362 202.082 133.921C202.068 133.151 202.061 132.378 202.061 131.602C202.061 88.6102 223.636 53.7588 250.25 53.7588C276.863 53.7588 298.438 88.6102 298.438 131.602C298.438 132.381 298.431 133.159 298.417 133.933C298.953 133.377 299.496 132.824 300.046 132.274C330.164 102.156 369.608 92.6619 388.636 110.79C388.815 110.952 388.989 111.118 389.16 111.289C389.324 111.453 389.484 111.621 389.64 111.793C407.82 130.806 398.334 170.283 368.195 200.423C367.645 200.972 367.093 201.515 366.537 202.051C367.308 202.037 368.082 202.03 368.859 202.03C411.85 202.03 446.702 223.604 446.702 250.218C446.702 276.832 411.85 298.406 368.859 298.406C368.078 298.406 367.3 298.399 366.525 298.385C367.084 298.924 367.64 299.47 368.192 300.022C398.592 330.422 407.98 370.321 389.161 389.14C370.342 407.958 330.443 398.57 300.043 368.171C299.495 367.622 298.952 367.07 298.417 366.515C298.431 367.284 298.438 368.055 298.438 368.829C298.438 411.82 276.863 446.672 250.25 446.672C223.636 446.672 202.061 411.82 202.061 368.829C202.061 368.047 202.068 367.267 202.083 366.49C201.544 367.049 200.998 367.605 200.446 368.157C170.385 398.218 131.034 407.733 111.965 389.744C111.746 389.55 111.533 389.35 111.325 389.142C111.122 388.939 110.925 388.73 110.735 388.516C92.7123 369.456 102.222 330.083 132.297 300.008C132.845 299.461 133.396 298.92 133.95 298.385C133.179 298.399 132.405 298.406 131.629 298.406C88.6371 298.406 53.7856 276.832 53.7856 250.218C53.7856 223.604 88.6371 202.03 131.629 202.03C132.414 202.03 133.196 202.037 133.975 202.051C133.412 201.508 132.852 200.958 132.294 200.401C101.895 170.001 92.5068 130.102 111.326 111.283C130.144 92.4645 170.044 101.853 200.443 132.252Z"/>
</mask>
<path fill-rule="evenodd" clip-rule="evenodd" d="M200.443 132.252C200.997 132.805 201.543 133.362 202.082 133.921C202.068 133.151 202.061 132.378 202.061 131.602C202.061 88.6102 223.636 53.7588 250.25 53.7588C276.863 53.7588 298.438 88.6102 298.438 131.602C298.438 132.381 298.431 133.159 298.417 133.933C298.953 133.377 299.496 132.824 300.046 132.274C330.164 102.156 369.608 92.6619 388.636 110.79C388.815 110.952 388.989 111.118 389.16 111.289C389.324 111.453 389.484 111.621 389.64 111.793C407.82 130.806 398.334 170.283 368.195 200.423C367.645 200.972 367.093 201.515 366.537 202.051C367.308 202.037 368.082 202.03 368.859 202.03C411.85 202.03 446.702 223.604 446.702 250.218C446.702 276.832 411.85 298.406 368.859 298.406C368.078 298.406 367.3 298.399 366.525 298.385C367.084 298.924 367.64 299.47 368.192 300.022C398.592 330.422 407.98 370.321 389.161 389.14C370.342 407.958 330.443 398.57 300.043 368.171C299.495 367.622 298.952 367.07 298.417 366.515C298.431 367.284 298.438 368.055 298.438 368.829C298.438 411.82 276.863 446.672 250.25 446.672C223.636 446.672 202.061 411.82 202.061 368.829C202.061 368.047 202.068 367.267 202.083 366.49C201.544 367.049 200.998 367.605 200.446 368.157C170.385 398.218 131.034 407.733 111.965 389.744C111.746 389.55 111.533 389.35 111.325 389.142C111.122 388.939 110.925 388.73 110.735 388.516C92.7123 369.456 102.222 330.083 132.297 300.008C132.845 299.461 133.396 298.92 133.95 298.385C133.179 298.399 132.405 298.406 131.629 298.406C88.6371 298.406 53.7856 276.832 53.7856 250.218C53.7856 223.604 88.6371 202.03 131.629 202.03C132.414 202.03 133.196 202.037 133.975 202.051C133.412 201.508 132.852 200.958 132.294 200.401C101.895 170.001 92.5068 130.102 111.326 111.283C130.144 92.4645 170.044 101.853 200.443 132.252Z" fill="#865858"/>
<path d="M202.082 133.921L180.244 154.976L233.809 210.533L232.412 133.372L202.082 133.921ZM202.061 131.602L232.396 131.602L232.396 131.602L202.061 131.602ZM250.25 53.7588L250.25 23.4243L250.25 23.4243L250.25 53.7588ZM298.417 133.933L268.088 133.381L266.682 210.542L320.253 154.99L298.417 133.933ZM388.636 110.79L367.712 132.753L367.99 133.018L368.275 133.276L388.636 110.79ZM389.64 111.793L367.192 132.195L367.45 132.479L367.716 132.757L389.64 111.793ZM366.537 202.051L345.48 180.215L289.938 233.779L367.087 232.38L366.537 202.051ZM368.859 202.03L368.859 232.364L368.859 232.364L368.859 202.03ZM368.859 298.406L368.859 268.072L368.859 268.072L368.859 298.406ZM366.525 298.385L367.078 268.056L289.906 266.65L345.471 320.223L366.525 298.385ZM298.417 366.515L320.252 345.458L266.693 289.92L268.088 367.063L298.417 366.515ZM298.438 368.829L268.104 368.829L268.104 368.829L298.438 368.829ZM250.25 446.672L250.25 416.337L250.25 416.337L250.25 446.672ZM202.061 368.829L171.727 368.828L171.727 368.829L202.061 368.829ZM202.083 366.49L232.412 367.044L233.822 289.867L180.245 345.436L202.083 366.49ZM111.965 389.744L132.78 367.678L132.437 367.355L132.085 367.043L111.965 389.744ZM110.735 388.516L133.411 368.367L133.099 368.016L132.776 367.674L110.735 388.516ZM133.95 298.385L155.008 320.22L210.543 266.658L133.4 268.056L133.95 298.385ZM131.629 298.406L131.629 328.741L131.629 328.741L131.629 298.406ZM131.629 202.03L131.629 171.695L131.629 171.695L131.629 202.03ZM133.975 202.051L133.419 232.38L210.62 233.795L155.027 180.21L133.975 202.051ZM223.92 112.867C223.253 112.175 222.577 111.486 221.893 110.802L178.994 153.702C179.416 154.124 179.833 154.549 180.244 154.976L223.92 112.867ZM171.727 131.601C171.727 132.561 171.736 133.517 171.753 134.471L232.412 133.372C232.401 132.784 232.396 132.194 232.396 131.602L171.727 131.601ZM250.25 23.4243C222.568 23.4243 202.233 41.4493 190.383 60.5918C178.244 80.2002 171.727 105.384 171.727 131.602L232.396 131.602C232.396 114.828 236.665 101.09 241.968 92.5251C244.582 88.3021 247.02 86.0062 248.606 84.9225C249.362 84.4059 249.854 84.2098 250.059 84.142C250.164 84.1073 250.22 84.0973 250.234 84.095C250.246 84.0929 250.248 84.0933 250.25 84.0933L250.25 23.4243ZM328.773 131.602C328.773 105.384 322.255 80.2002 310.116 60.5918C298.266 41.4493 277.931 23.4243 250.25 23.4243L250.25 84.0933C250.252 84.0933 250.253 84.0929 250.266 84.095C250.28 84.0973 250.336 84.1073 250.441 84.142C250.646 84.2098 251.138 84.4059 251.894 84.9225C253.48 86.0062 255.918 88.3021 258.532 92.5251C263.834 101.09 268.104 114.828 268.104 131.602L328.773 131.602ZM328.746 134.485C328.764 133.527 328.773 132.565 328.773 131.602L268.104 131.602C268.104 132.198 268.098 132.791 268.088 133.381L328.746 134.485ZM278.596 110.824C277.917 111.504 277.245 112.188 276.581 112.876L320.253 154.99C320.661 154.566 321.076 154.144 321.496 153.724L278.596 110.824ZM409.56 88.8278C389.831 70.0316 363.04 68.712 341.366 73.9559C319.14 79.3335 296.971 92.45 278.596 110.824L321.496 153.724C333.24 141.98 345.852 135.29 355.633 132.923C360.459 131.756 363.85 131.81 365.811 132.151C366.749 132.314 367.275 132.525 367.501 132.633C367.616 132.688 367.675 132.726 367.693 132.739C367.704 132.747 367.709 132.751 367.71 132.751C367.711 132.752 367.711 132.752 367.712 132.753L409.56 88.8278ZM410.609 89.839C410.084 89.3137 409.547 88.8023 408.998 88.305L368.275 133.276C368.082 133.102 367.894 132.922 367.71 132.738L410.609 89.839ZM412.089 91.3904C411.609 90.8623 411.115 90.345 410.609 89.839L367.71 132.738C367.533 132.561 367.36 132.38 367.192 132.195L412.089 91.3904ZM389.644 221.873C408.031 203.486 421.154 181.298 426.525 159.055C431.762 137.363 430.419 110.547 411.565 90.8285L367.716 132.757C367.716 132.758 367.717 132.758 367.717 132.759C367.718 132.76 367.722 132.764 367.729 132.775C367.742 132.793 367.779 132.85 367.834 132.964C367.941 133.188 368.152 133.71 368.316 134.646C368.658 136.602 368.716 139.989 367.55 144.816C365.188 154.599 358.498 167.22 346.745 178.973L389.644 221.873ZM387.595 223.886C388.282 223.223 388.965 222.552 389.644 221.873L346.745 178.973C346.325 179.393 345.904 179.807 345.48 180.215L387.595 223.886ZM368.859 171.695C367.899 171.695 366.942 171.704 365.987 171.721L367.087 232.38C367.675 232.369 368.266 232.364 368.859 232.364L368.859 171.695ZM477.036 250.218C477.036 222.537 459.011 202.201 439.869 190.351C420.26 178.213 395.077 171.695 368.859 171.695L368.859 232.364C385.632 232.364 399.37 236.634 407.936 241.936C412.159 244.55 414.455 246.988 415.538 248.574C416.055 249.33 416.251 249.822 416.319 250.027C416.353 250.132 416.363 250.188 416.366 250.202C416.368 250.214 416.367 250.216 416.367 250.218L477.036 250.218ZM368.859 328.741C395.077 328.741 420.26 322.223 439.869 310.085C459.011 298.235 477.036 277.899 477.036 250.218L416.367 250.218C416.367 250.22 416.368 250.222 416.366 250.234C416.363 250.248 416.353 250.304 416.319 250.409C416.251 250.614 416.055 251.106 415.538 251.862C414.455 253.448 412.159 255.886 407.936 258.5C399.37 263.802 385.632 268.072 368.859 268.072L368.859 328.741ZM365.973 328.715C366.932 328.732 367.894 328.741 368.859 328.741L368.859 268.072C368.263 268.072 367.669 268.067 367.078 268.056L365.973 328.715ZM389.642 278.572C388.959 277.889 388.272 277.215 387.58 276.548L345.471 320.223C345.896 320.633 346.32 321.05 346.743 321.472L389.642 278.572ZM410.611 410.589C430.185 391.016 431.818 363.891 426.662 341.976C421.38 319.527 408.181 297.111 389.642 278.572L346.743 321.472C358.603 333.332 365.298 346.066 367.605 355.871C368.743 360.706 368.643 364.053 368.288 365.941C368.118 366.841 367.909 367.327 367.812 367.52C367.762 367.619 367.73 367.666 367.722 367.677C367.714 367.688 367.713 367.689 367.711 367.69L410.611 410.589ZM278.594 389.621C297.133 408.16 319.549 421.358 341.997 426.64C363.912 431.797 391.037 430.163 410.611 410.589L367.711 367.69C367.71 367.691 367.709 367.693 367.699 367.7C367.687 367.708 367.641 367.741 367.542 367.791C367.349 367.888 366.862 368.097 365.962 368.266C364.075 368.621 360.728 368.722 355.893 367.584C346.087 365.277 333.354 358.582 321.493 346.721L278.594 389.621ZM276.582 387.572C277.245 388.259 277.915 388.942 278.594 389.621L321.493 346.721C321.074 346.302 320.66 345.881 320.252 345.458L276.582 387.572ZM328.773 368.829C328.773 367.872 328.764 366.918 328.747 365.967L268.088 367.063C268.098 367.649 268.104 368.237 268.104 368.829L328.773 368.829ZM250.25 477.006C277.931 477.006 298.266 458.981 310.116 439.839C322.255 420.23 328.773 395.047 328.773 368.829L268.104 368.829C268.104 385.602 263.834 399.34 258.532 407.905C255.918 412.128 253.48 414.424 251.894 415.508C251.138 416.025 250.646 416.221 250.441 416.288C250.336 416.323 250.28 416.333 250.266 416.335C250.253 416.337 250.252 416.337 250.25 416.337L250.25 477.006ZM171.727 368.829C171.727 395.047 178.244 420.23 190.383 439.839C202.233 458.981 222.568 477.006 250.25 477.006L250.25 416.337C250.248 416.337 250.246 416.337 250.234 416.335C250.22 416.333 250.164 416.323 250.059 416.288C249.854 416.221 249.362 416.025 248.606 415.508C247.02 414.424 244.582 412.128 241.968 407.905C236.665 399.34 232.396 385.602 232.396 368.829L171.727 368.829ZM171.753 365.936C171.736 366.898 171.727 367.862 171.727 368.828L232.396 368.829C232.396 368.231 232.401 367.636 232.412 367.044L171.753 365.936ZM221.895 389.607C222.578 388.924 223.253 388.237 223.92 387.545L180.245 345.436C179.835 345.861 179.418 346.285 178.996 346.708L221.895 389.607ZM91.1491 411.81C110.907 430.448 137.63 431.705 159.255 426.444C181.436 421.047 203.555 407.948 221.895 389.607L178.996 346.708C167.276 358.428 154.689 365.116 144.912 367.495C140.089 368.668 136.689 368.623 134.713 368.286C133.767 368.124 133.233 367.913 133 367.803C132.882 367.747 132.821 367.707 132.8 367.693C132.789 367.686 132.783 367.681 132.782 367.68C132.781 367.679 132.78 367.679 132.78 367.678L91.1491 411.81ZM89.8756 410.592C90.5146 411.231 91.1711 411.849 91.8442 412.446L132.085 367.043C132.321 367.252 132.551 367.469 132.775 367.693L89.8756 410.592ZM88.0585 408.665C88.6429 409.322 89.2486 409.965 89.8756 410.592L132.775 367.693C132.995 367.913 133.207 368.138 133.411 368.367L88.0585 408.665ZM110.847 278.559C92.4985 296.908 79.3947 319.039 74.0026 341.231C68.7454 362.867 70.0176 389.606 88.6938 409.357L132.776 367.674C132.775 367.674 132.775 367.673 132.774 367.672C132.773 367.671 132.769 367.666 132.761 367.654C132.747 367.634 132.708 367.574 132.653 367.457C132.543 367.225 132.331 366.693 132.17 365.749C131.831 363.776 131.784 360.379 132.956 355.555C135.332 345.777 142.021 333.184 153.747 321.458L110.847 278.559ZM112.891 276.551C112.206 277.213 111.524 277.882 110.847 278.559L153.747 321.458C154.165 321.04 154.586 320.627 155.008 320.22L112.891 276.551ZM131.629 328.741C132.588 328.741 133.545 328.732 134.499 328.715L133.4 268.056C132.812 268.067 132.221 268.072 131.629 268.072L131.629 328.741ZM23.4512 250.218C23.4512 277.899 41.4761 298.235 60.6186 310.085C80.2271 322.223 105.41 328.741 131.629 328.741L131.629 268.072C114.855 268.072 101.117 263.802 92.552 258.5C88.329 255.886 86.033 253.448 84.9494 251.862C84.4328 251.106 84.2366 250.614 84.1688 250.409C84.1341 250.304 84.1241 250.248 84.1219 250.234C84.1198 250.222 84.1201 250.22 84.1201 250.218L23.4512 250.218ZM131.629 171.695C105.41 171.695 80.2271 178.213 60.6186 190.351C41.4761 202.201 23.4512 222.537 23.4512 250.218L84.1201 250.218C84.1201 250.216 84.1198 250.214 84.1219 250.202C84.1241 250.188 84.1341 250.132 84.1688 250.027C84.2366 249.822 84.4328 249.33 84.9494 248.574C86.033 246.988 88.329 244.55 92.552 241.936C101.117 236.634 114.855 232.364 131.629 232.364L131.629 171.695ZM134.531 171.722C133.566 171.704 132.599 171.695 131.629 171.695L131.628 232.364C132.229 232.364 132.826 232.37 133.419 232.38L134.531 171.722ZM110.845 221.851C111.533 222.539 112.226 223.22 112.924 223.892L155.027 180.21C154.597 179.797 154.17 179.377 153.744 178.951L110.845 221.851ZM89.8759 89.8335C70.3021 109.407 68.6686 136.532 73.825 158.447C79.1071 180.896 92.3057 203.312 110.845 221.851L153.744 178.951C141.884 167.091 135.188 154.357 132.881 144.551C131.744 139.717 131.844 136.37 132.199 134.482C132.368 133.582 132.578 133.095 132.675 132.903C132.724 132.804 132.757 132.757 132.765 132.746C132.773 132.735 132.774 132.734 132.775 132.733L89.8759 89.8335ZM221.893 110.802C203.354 92.2634 180.938 79.0647 158.489 73.7827C136.574 68.6262 109.45 70.2598 89.8759 89.8335L132.775 132.733C132.777 132.731 132.778 132.73 132.788 132.723C132.799 132.714 132.846 132.682 132.945 132.632C133.138 132.535 133.624 132.326 134.524 132.157C136.412 131.801 139.759 131.701 144.594 132.839C154.399 135.146 167.133 141.841 178.994 153.702L221.893 110.802Z" fill="#6F4646" mask="url(#path-3-outside-2_524_1200)"/>
<path fill-rule="evenodd" clip-rule="evenodd" d="M208.478 151.36V151.36C208.97 151.852 209.826 151.488 209.826 150.792V150.792C209.826 114.756 227.91 85.5432 250.218 85.5432C272.526 85.5432 290.61 114.756 290.61 150.792V150.792C290.61 151.495 291.475 151.86 291.972 151.363V151.363C317.385 125.949 350.719 118.054 366.545 133.661C366.588 133.702 366.63 133.744 366.673 133.786C366.715 133.829 366.758 133.872 366.8 133.915C382.403 149.742 374.507 183.074 349.095 208.486V208.486C348.603 208.978 348.956 209.835 349.651 209.835V209.835C385.687 209.835 414.9 227.919 414.9 250.227C414.9 272.535 385.687 290.619 349.651 290.619V290.619C348.954 290.619 348.598 291.476 349.091 291.969V291.969C374.573 317.451 382.442 350.895 366.668 366.669C350.894 382.443 317.45 374.574 291.968 349.092V349.092C291.476 348.6 290.619 348.967 290.619 349.664V349.664C290.619 385.7 272.535 414.913 250.227 414.913C227.919 414.913 209.835 385.7 209.835 349.664V349.664C209.835 348.967 208.978 348.6 208.486 349.093V349.093C183.005 374.574 149.561 382.443 133.787 366.669C118.012 350.895 125.882 317.451 151.363 291.97V291.97C151.856 291.476 151.496 290.619 150.799 290.619V290.619C114.763 290.619 85.55 272.535 85.55 250.227C85.55 227.919 114.763 209.835 150.799 209.835V209.835C151.495 209.835 151.848 208.976 151.355 208.483V208.483C125.874 183.002 118.005 149.558 133.779 133.784C149.553 118.009 182.997 125.879 208.478 151.36Z" fill="#7A6363"/>
<circle cx="250.227" cy="250.215" r="98.8053" transform="rotate(135 250.227 250.215)" fill="#9E9A71"/>
<circle cx="250.218" cy="250.215" r="79.9853" transform="rotate(135 250.218 250.215)" fill="#AEAA83"/>
</g>
<defs>
<clipPath id="clip0_524_1200">
<rect width="500" height="500" fill="white" transform="translate(0 0.0205078)"/>
</clipPath>
</defs>
</svg>
