<svg width="501" height="501" viewBox="0 0 501 501" fill="none" xmlns="http://www.w3.org/2000/svg">
<g clip-path="url(#clip0_442_9)">
<mask id="path-1-outside-1_442_9" maskUnits="userSpaceOnUse" x="-24.3627" y="51.3846" width="265.702" height="275.781" fill="black">
<rect fill="white" x="-24.3627" y="51.3846" width="265.702" height="275.781"/>
<path fill-rule="evenodd" clip-rule="evenodd" d="M71.0945 100.339C64.671 106.313 63.0055 115.56 66.1528 123.573C66.1198 123.603 66.0868 123.634 66.0538 123.664C58.4356 130.749 55.7357 141.218 58.0036 151.009C53.011 151.952 48.2649 154.239 44.3258 157.902C34.1454 167.371 32.748 182.881 40.2515 194.741C39.234 195.389 38.2625 196.138 37.3499 196.986C28.8472 204.894 28.6812 218.537 36.9791 227.46C42.622 233.527 50.7259 235.848 58.0081 234.226C57.759 239.954 59.785 245.877 64.1041 250.521C71.5232 258.498 83.1964 260 91.6629 254.577C99.9063 256.509 108.544 255.845 116.244 252.501C117.376 254.144 118.642 255.727 120.044 257.234C134.858 273.162 159.171 274.63 174.35 260.513C183.472 252.029 187.219 239.847 185.542 228.019C189.874 227.591 194.053 225.827 197.427 222.69C205.93 214.782 206.096 201.139 197.798 192.216C194.324 188.481 189.917 186.165 185.343 185.316C187.605 175.953 185.115 165.44 177.827 157.603C173.713 153.179 168.637 150.219 163.287 148.763C167.372 135.474 164.19 120.068 153.669 108.755C139.558 93.5832 117.152 91.0445 101.395 102.048C93.0865 93.2454 79.5565 92.4687 71.0945 100.339Z"/>
</mask>
<path fill-rule="evenodd" clip-rule="evenodd" d="M71.0945 100.339C64.671 106.313 63.0055 115.56 66.1528 123.573C66.1198 123.603 66.0868 123.634 66.0538 123.664C58.4356 130.749 55.7357 141.218 58.0036 151.009C53.011 151.952 48.2649 154.239 44.3258 157.902C34.1454 167.371 32.748 182.881 40.2515 194.741C39.234 195.389 38.2625 196.138 37.3499 196.986C28.8472 204.894 28.6812 218.537 36.9791 227.46C42.622 233.527 50.7259 235.848 58.0081 234.226C57.759 239.954 59.785 245.877 64.1041 250.521C71.5232 258.498 83.1964 260 91.6629 254.577C99.9063 256.509 108.544 255.845 116.244 252.501C117.376 254.144 118.642 255.727 120.044 257.234C134.858 273.162 159.171 274.63 174.35 260.513C183.472 252.029 187.219 239.847 185.542 228.019C189.874 227.591 194.053 225.827 197.427 222.69C205.93 214.782 206.096 201.139 197.798 192.216C194.324 188.481 189.917 186.165 185.343 185.316C187.605 175.953 185.115 165.44 177.827 157.603C173.713 153.179 168.637 150.219 163.287 148.763C167.372 135.474 164.19 120.068 153.669 108.755C139.558 93.5832 117.152 91.0445 101.395 102.048C93.0865 93.2454 79.5565 92.4687 71.0945 100.339Z" fill="#296C38"/>
<path d="M66.1528 123.573L72.8834 130.88L77.8869 126.272L75.3999 119.94L66.1528 123.573ZM71.0945 100.339L64.3286 93.0637L64.3286 93.0637L71.0945 100.339ZM66.0538 123.664L72.8197 130.939L72.8198 130.939L66.0538 123.664ZM58.0036 151.009L59.8482 160.771L70.0178 158.85L67.6822 148.767L58.0036 151.009ZM44.3258 157.902L37.5599 150.627L37.5599 150.627L44.3258 157.902ZM40.2515 194.741L45.5903 203.12L53.942 197.798L48.6471 189.429L40.2515 194.741ZM37.3499 196.986L30.584 189.711L30.584 189.711L37.3499 196.986ZM36.9791 227.46L29.7042 234.225L29.7042 234.225L36.9791 227.46ZM58.0081 234.226L67.9336 234.658L68.4968 221.711L55.8476 224.529L58.0081 234.226ZM64.1041 250.521L71.379 243.755L71.379 243.755L64.1041 250.521ZM91.6629 254.577L93.9306 244.904L89.8411 243.945L86.3042 246.211L91.6629 254.577ZM116.244 252.501L124.426 246.865L119.788 240.132L112.287 243.388L116.244 252.501ZM120.044 257.234L112.77 264L112.77 264L120.044 257.234ZM174.35 260.513L167.584 253.238L167.584 253.238L174.35 260.513ZM185.542 228.019L184.564 218.132L174.25 219.152L175.705 229.414L185.542 228.019ZM197.427 222.69L190.661 215.415L190.661 215.415L197.427 222.69ZM197.798 192.216L205.073 185.451L205.073 185.451L197.798 192.216ZM185.343 185.316L175.686 182.982L173.225 193.17L183.529 195.084L185.343 185.316ZM177.827 157.603L170.552 164.369L170.552 164.369L177.827 157.603ZM163.287 148.763L153.79 145.844L150.774 155.656L160.679 158.35L163.287 148.763ZM153.669 108.755L160.943 101.989L160.943 101.989L153.669 108.755ZM101.395 102.048L94.1705 108.867L100.055 115.101L107.083 110.193L101.395 102.048ZM75.3999 119.94C73.6083 115.379 74.6919 110.56 77.8605 107.614L64.3286 93.0637C54.6502 102.065 52.4027 115.741 56.9058 127.205L75.3999 119.94ZM72.8198 130.939C72.8409 130.919 72.8621 130.9 72.8834 130.88L59.4222 116.265C59.3775 116.306 59.3327 116.348 59.2878 116.389L72.8198 130.939ZM67.6822 148.767C66.1466 142.138 68.0264 135.397 72.8197 130.939L59.2879 116.389C48.8448 126.102 45.3248 140.299 48.325 153.251L67.6822 148.767ZM51.0917 165.177C53.6008 162.844 56.6198 161.381 59.8482 160.771L56.159 141.247C49.4022 142.524 42.9289 145.634 37.5599 150.627L51.0917 165.177ZM48.6471 189.429C43.4704 181.247 44.7186 171.105 51.0917 165.177L37.5599 150.627C23.5722 163.637 22.0256 184.516 31.8559 200.053L48.6471 189.429ZM44.1158 204.261C44.5845 203.825 45.0779 203.446 45.5903 203.12L34.9128 186.362C33.39 187.333 31.9404 188.45 30.584 189.711L44.1158 204.261ZM44.254 220.694C39.3821 215.455 39.9571 208.129 44.1158 204.261L30.584 189.711C17.7374 201.659 17.9803 221.62 29.7042 234.225L44.254 220.694ZM55.8476 224.529C52.0254 225.38 47.5072 224.192 44.254 220.694L29.7042 234.225C37.7367 242.862 49.4264 246.316 60.1686 243.923L55.8476 224.529ZM71.379 243.755C68.8945 241.083 67.7986 237.762 67.9336 234.658L48.0826 233.794C47.7194 242.145 50.6755 250.67 56.8292 257.287L71.379 243.755ZM86.3042 246.211C82.0947 248.907 75.7023 248.403 71.379 243.755L56.8292 257.287C67.344 268.592 84.298 271.093 97.0217 262.943L86.3042 246.211ZM112.287 243.388C106.641 245.84 100.194 246.373 93.9306 244.904L89.3953 264.249C99.6185 266.646 110.447 265.849 120.201 261.614L112.287 243.388ZM127.319 250.469C126.247 249.316 125.284 248.111 124.426 246.865L108.062 258.137C109.468 260.177 111.037 262.138 112.77 264L127.319 250.469ZM167.584 253.238C156.749 263.315 138.707 262.712 127.319 250.469L112.77 264C131.009 283.612 161.593 285.945 181.116 267.788L167.584 253.238ZM175.705 229.414C176.964 238.29 174.136 247.145 167.584 253.238L181.116 267.788C192.808 256.913 197.474 241.404 195.378 226.624L175.705 229.414ZM190.661 215.415C188.961 216.996 186.848 217.906 184.564 218.132L186.519 237.906C192.901 237.275 199.146 234.659 204.193 229.965L190.661 215.415ZM190.523 198.982C195.395 204.221 194.82 211.547 190.661 215.415L204.193 229.965C217.04 218.017 216.797 198.056 205.073 185.451L190.523 198.982ZM183.529 195.084C186.041 195.55 188.523 196.832 190.523 198.982L205.073 185.451C200.124 180.13 193.793 176.78 187.157 175.548L183.529 195.084ZM170.552 164.369C175.57 169.764 177.165 176.859 175.686 182.982L195 187.649C198.045 175.046 194.661 161.116 185.102 150.837L170.552 164.369ZM160.679 158.35C164.268 159.326 167.719 161.323 170.552 164.369L185.102 150.837C179.706 145.035 173.005 141.111 165.894 139.177L160.679 158.35ZM146.394 115.521C154.514 124.252 156.826 135.97 153.79 145.844L172.783 151.683C177.918 134.977 173.867 115.884 160.943 101.989L146.394 115.521ZM107.083 110.193C118.535 102.196 135.449 103.753 146.394 115.521L160.943 101.989C143.667 83.4132 115.769 79.8927 95.7071 93.9022L107.083 110.193ZM77.8604 107.614C82.0001 103.764 89.2958 103.703 94.1705 108.867L108.62 95.2281C96.8772 82.7879 77.113 81.1738 64.3286 93.0637L77.8604 107.614Z" fill="#07573A" mask="url(#path-1-outside-1_442_9)"/>
<mask id="path-3-outside-2_442_9" maskUnits="userSpaceOnUse" x="29.1514" y="93.7094" width="168.8" height="178.922" fill="black">
<rect fill="white" x="29.1514" y="93.7094" width="168.8" height="178.922"/>
<path fill-rule="evenodd" clip-rule="evenodd" d="M151.547 217.637C152.765 223.42 151.054 229.543 146.492 233.619C139.564 239.809 128.681 238.933 122.186 231.663C122.151 231.624 122.116 231.584 122.081 231.545C115.913 231.36 109.729 229.307 104.44 225.46C97.5649 225.699 90.5036 222.883 85.4164 217.189C80.0573 211.191 78.1188 203.374 79.5205 196.271C74.748 198.157 68.9668 196.869 65.1967 192.649C60.4232 187.306 60.6813 179.287 65.7731 174.737C68.4117 172.38 71.8305 171.417 75.1767 171.78C75.6766 167.983 77.4466 164.392 80.4644 161.695C82.0808 160.251 83.9123 159.192 85.8532 158.508C79.2821 149.088 80.3263 136.331 88.7088 128.842C96.1203 122.221 106.98 121.762 115.357 126.988C115.864 126.272 116.457 125.603 117.137 124.996C122.229 120.447 130.226 121.091 135 126.434C139.773 131.777 139.515 139.796 134.423 144.345C134.191 144.553 133.953 144.749 133.709 144.935C135.575 146.134 137.317 147.607 138.874 149.35C141.216 151.971 142.905 154.94 143.947 158.044C146.591 158.611 149.117 160.017 151.091 162.227C155.269 166.903 155.593 173.63 152.194 178.285C153.424 180.302 154.067 182.548 154.13 184.776C156.46 185.795 158.63 187.332 160.453 189.373C166.949 196.643 166.597 207.555 159.669 213.745C157.31 215.853 154.493 217.141 151.547 217.637Z"/>
</mask>
<path fill-rule="evenodd" clip-rule="evenodd" d="M151.547 217.637C152.765 223.42 151.054 229.543 146.492 233.619C139.564 239.809 128.681 238.933 122.186 231.663C122.151 231.624 122.116 231.584 122.081 231.545C115.913 231.36 109.729 229.307 104.44 225.46C97.5649 225.699 90.5036 222.883 85.4164 217.189C80.0573 211.191 78.1188 203.374 79.5205 196.271C74.748 198.157 68.9668 196.869 65.1967 192.649C60.4232 187.306 60.6813 179.287 65.7731 174.737C68.4117 172.38 71.8305 171.417 75.1767 171.78C75.6766 167.983 77.4466 164.392 80.4644 161.695C82.0808 160.251 83.9123 159.192 85.8532 158.508C79.2821 149.088 80.3263 136.331 88.7088 128.842C96.1203 122.221 106.98 121.762 115.357 126.988C115.864 126.272 116.457 125.603 117.137 124.996C122.229 120.447 130.226 121.091 135 126.434C139.773 131.777 139.515 139.796 134.423 144.345C134.191 144.553 133.953 144.749 133.709 144.935C135.575 146.134 137.317 147.607 138.874 149.35C141.216 151.971 142.905 154.94 143.947 158.044C146.591 158.611 149.117 160.017 151.091 162.227C155.269 166.903 155.593 173.63 152.194 178.285C153.424 180.302 154.067 182.548 154.13 184.776C156.46 185.795 158.63 187.332 160.453 189.373C166.949 196.643 166.597 207.555 159.669 213.745C157.31 215.853 154.493 217.141 151.547 217.637Z" fill="#2E7E40"/>
<path d="M146.492 233.619L153.111 241.028L153.111 241.028L146.492 233.619ZM151.547 217.637L149.897 207.84L139.692 209.558L141.825 219.685L151.547 217.637ZM122.186 231.663L114.777 238.282L114.777 238.282L122.186 231.663ZM122.081 231.545L129.545 224.988L126.695 221.744L122.379 221.614L122.081 231.545ZM104.44 225.46L110.283 217.426L107.516 215.413L104.096 215.531L104.44 225.46ZM85.4164 217.189L92.8252 210.57L92.8252 210.57L85.4164 217.189ZM79.5205 196.271L89.2674 198.195L92.7899 180.345L75.8691 187.032L79.5205 196.271ZM65.1967 192.649L57.7879 199.268L57.7879 199.268L65.1967 192.649ZM65.7731 174.737L59.1541 167.329L65.7731 174.737ZM75.1767 171.78L74.1057 181.657L83.7588 182.704L85.0265 173.077L75.1767 171.78ZM80.4644 161.695L87.0835 169.104L87.0835 169.104L80.4644 161.695ZM85.8532 158.508L89.1532 167.879L101.476 163.54L94.0016 152.825L85.8532 158.508ZM88.7088 128.842L95.3279 136.251L95.3279 136.251L88.7088 128.842ZM115.357 126.988L110.098 135.417L118.051 140.379L123.466 132.728L115.357 126.988ZM117.137 124.996L110.518 117.587L110.518 117.587L117.137 124.996ZM135 126.434L127.591 133.053L127.591 133.053L135 126.434ZM134.423 144.345L141.042 151.754L141.042 151.754L134.423 144.345ZM133.709 144.935L127.684 137.036L116.414 145.632L128.339 153.293L133.709 144.935ZM138.874 149.35L146.283 142.731L146.283 142.731L138.874 149.35ZM143.947 158.044L134.529 161.206L136.33 166.571L141.863 167.758L143.947 158.044ZM151.091 162.227L158.5 155.608L158.5 155.608L151.091 162.227ZM152.194 178.285L144.17 172.428L140.255 177.791L143.713 183.459L152.194 178.285ZM154.13 184.776L144.199 185.056L144.376 191.357L150.152 193.88L154.13 184.776ZM160.453 189.373L153.044 195.992L153.044 195.992L160.453 189.373ZM159.669 213.745L166.288 221.154L166.288 221.154L159.669 213.745ZM153.111 241.028C160.55 234.381 163.155 224.547 161.268 215.589L141.825 219.685C142.374 222.292 141.558 224.704 139.873 226.21L153.111 241.028ZM114.777 238.282C124.624 249.304 141.759 251.17 153.111 241.028L139.873 226.21C137.368 228.448 132.738 228.563 129.595 225.044L114.777 238.282ZM114.618 238.102C114.671 238.162 114.724 238.222 114.777 238.282L129.595 225.044C129.578 225.025 129.561 225.006 129.545 224.988L114.618 238.102ZM98.5964 233.495C105.505 238.519 113.622 241.23 121.784 241.475L122.379 221.614C118.204 221.489 113.954 220.095 110.283 217.426L98.5964 233.495ZM78.0076 223.808C85.0754 231.719 94.9852 235.729 104.784 235.389L104.096 215.531C100.145 215.668 95.9317 214.047 92.8252 210.57L78.0076 223.808ZM69.7736 194.348C67.7716 204.493 70.5631 215.476 78.0076 223.808L92.8252 210.57C89.5515 206.906 88.4661 202.255 89.2674 198.195L69.7736 194.348ZM57.7879 199.268C64.2567 206.508 74.4242 208.968 83.1719 205.511L75.8691 187.032C75.0719 187.347 73.677 187.229 72.6054 186.03L57.7879 199.268ZM59.1541 167.329C49.6383 175.83 49.6627 190.173 57.7879 199.268L72.6054 186.03C71.1836 184.438 71.7242 182.743 72.3922 182.146L59.1541 167.329ZM76.2476 161.903C70.3071 161.259 64.0383 162.965 59.1541 167.329L72.3922 182.146C72.7851 181.795 73.354 181.576 74.1057 181.657L76.2476 161.903ZM73.8454 154.287C68.951 158.659 66.1189 164.468 65.3268 170.483L85.0265 173.077C85.2344 171.499 85.9422 170.124 87.0835 169.104L73.8454 154.287ZM82.5531 149.138C79.4169 150.242 76.4516 151.958 73.8454 154.287L87.0835 169.104C87.71 168.544 88.4078 168.142 89.1532 167.879L82.5531 149.138ZM82.0898 121.433C69.6384 132.557 68.5108 151.011 77.7047 164.192L94.0016 152.825C90.0535 147.165 91.0143 140.105 95.3279 136.251L82.0898 121.433ZM120.616 118.56C108.837 111.21 93.0867 111.609 82.0898 121.433L95.3279 136.251C99.154 132.833 105.123 132.313 110.098 135.417L120.616 118.56ZM110.518 117.587C109.276 118.697 108.183 119.927 107.248 121.249L123.466 132.728C123.544 132.617 123.639 132.509 123.756 132.405L110.518 117.587ZM142.409 119.815C134.283 110.72 120.034 109.086 110.518 117.587L123.756 132.405C124.424 131.808 126.169 131.461 127.591 133.053L142.409 119.815ZM141.042 151.754C150.558 143.252 150.534 128.909 142.409 119.815L127.591 133.053C129.013 134.644 128.472 136.339 127.804 136.936L141.042 151.754ZM139.734 152.834C140.182 152.493 140.618 152.133 141.042 151.754L127.804 136.936C127.764 136.973 127.723 137.006 127.684 137.036L139.734 152.834ZM128.339 153.293C129.454 154.01 130.51 154.9 131.466 155.969L146.283 142.731C144.124 140.315 141.695 138.257 139.079 136.577L128.339 153.293ZM131.466 155.969C132.9 157.575 133.91 159.364 134.529 161.206L153.365 154.882C151.899 150.515 149.532 146.368 146.283 142.731L131.466 155.969ZM158.5 155.608C155.101 151.803 150.7 149.331 146.031 148.33L141.863 167.758C142.482 167.89 143.132 168.23 143.682 168.846L158.5 155.608ZM160.219 184.143C166.511 175.523 165.648 163.608 158.5 155.608L143.682 168.846C144.89 170.198 144.674 171.737 144.17 172.428L160.219 184.143ZM164.061 184.497C163.95 180.553 162.814 176.618 160.676 173.112L143.713 183.459C144.035 183.987 144.184 184.544 144.199 185.056L164.061 184.497ZM167.862 182.754C165.075 179.634 161.731 177.256 158.107 175.673L150.152 193.88C151.19 194.334 152.184 195.029 153.044 195.992L167.862 182.754ZM166.288 221.154C177.64 211.012 177.709 193.776 167.862 182.754L153.044 195.992C156.188 199.511 155.555 204.099 153.05 206.336L166.288 221.154ZM153.196 227.434C157.912 226.64 162.473 224.562 166.288 221.154L153.05 206.336C152.147 207.143 151.073 207.642 149.897 207.84L153.196 227.434Z" fill="#0A5F40" mask="url(#path-3-outside-2_442_9)"/>
<path d="M420.553 191.07L351.168 236.856L391.139 275.419L434.286 310.435L426.084 321.873L376.822 314.563L338.437 268.7L287.62 268.37L258.23 268.179L252.175 262.693L252.468 217.573L265.301 217.656L323.193 209.02L362.276 182.124L382.54 163.81L428.658 142.887L473.885 143.737L455.481 191.157L420.553 191.07Z" fill="#664D3B" stroke="#61432D" stroke-width="9.93488"/>
<mask id="path-6-outside-3_442_9" maskUnits="userSpaceOnUse" x="292.83" y="253.547" width="189.062" height="230.491" fill="black">
<rect fill="white" x="292.83" y="253.547" width="189.062" height="230.491"/>
<path fill-rule="evenodd" clip-rule="evenodd" d="M429.279 345.814C430.065 345.817 430.854 345.795 431.645 345.747C431.24 346.327 430.863 346.928 430.515 347.548C430.113 346.961 429.701 346.383 429.279 345.814ZM419.472 265.189C407.823 267.862 398.665 275.769 393.699 286.045C390.291 284.935 386.587 284.703 382.889 285.551C378.939 286.458 375.519 288.477 372.856 291.227C368.294 288.29 362.708 287.117 357.138 288.395C345.82 290.992 338.855 302.725 341.58 314.6C341.776 315.456 342.017 316.289 342.3 317.097C339.763 316.95 337.172 317.155 334.584 317.749C319.184 321.283 309.706 337.248 313.414 353.407C314.857 359.694 318.082 365.084 322.392 369.115C319.065 373.442 316.619 378.483 315.245 383.915C307.429 388.516 303.175 398.134 305.404 407.848C307.365 416.396 313.813 422.688 321.492 424.575C321.229 427.038 321.366 429.599 321.955 432.167C324.68 444.043 336.064 451.564 347.381 448.967C349.087 448.576 350.694 447.977 352.184 447.201C359.041 465.12 377.51 475.84 395.882 471.625C416.085 466.988 428.52 446.044 423.655 424.844C423.321 423.388 422.914 421.969 422.439 420.59C424.663 420.639 426.922 420.417 429.18 419.899C429.397 419.849 429.614 419.796 429.829 419.741C432.867 420.514 436.102 420.597 439.331 419.856C450.648 417.259 457.614 405.526 454.889 393.651C454.076 390.109 452.493 386.955 450.372 384.34L450.349 384.241C450.093 383.126 449.782 382.04 449.418 380.984C450.832 380.968 452.263 380.801 453.693 380.473C465.01 377.876 471.976 366.143 469.251 354.268C467.268 345.628 460.702 339.292 452.913 337.481C464.407 328.17 470.217 312.317 466.547 296.323C461.498 274.321 440.422 260.382 419.472 265.189Z"/>
</mask>
<path fill-rule="evenodd" clip-rule="evenodd" d="M429.279 345.814C430.065 345.817 430.854 345.795 431.645 345.747C431.24 346.327 430.863 346.928 430.515 347.548C430.113 346.961 429.701 346.383 429.279 345.814ZM419.472 265.189C407.823 267.862 398.665 275.769 393.699 286.045C390.291 284.935 386.587 284.703 382.889 285.551C378.939 286.458 375.519 288.477 372.856 291.227C368.294 288.29 362.708 287.117 357.138 288.395C345.82 290.992 338.855 302.725 341.58 314.6C341.776 315.456 342.017 316.289 342.3 317.097C339.763 316.95 337.172 317.155 334.584 317.749C319.184 321.283 309.706 337.248 313.414 353.407C314.857 359.694 318.082 365.084 322.392 369.115C319.065 373.442 316.619 378.483 315.245 383.915C307.429 388.516 303.175 398.134 305.404 407.848C307.365 416.396 313.813 422.688 321.492 424.575C321.229 427.038 321.366 429.599 321.955 432.167C324.68 444.043 336.064 451.564 347.381 448.967C349.087 448.576 350.694 447.977 352.184 447.201C359.041 465.12 377.51 475.84 395.882 471.625C416.085 466.988 428.52 446.044 423.655 424.844C423.321 423.388 422.914 421.969 422.439 420.59C424.663 420.639 426.922 420.417 429.18 419.899C429.397 419.849 429.614 419.796 429.829 419.741C432.867 420.514 436.102 420.597 439.331 419.856C450.648 417.259 457.614 405.526 454.889 393.651C454.076 390.109 452.493 386.955 450.372 384.34L450.349 384.241C450.093 383.126 449.782 382.04 449.418 380.984C450.832 380.968 452.263 380.801 453.693 380.473C465.01 377.876 471.976 366.143 469.251 354.268C467.268 345.628 460.702 339.292 452.913 337.481C464.407 328.17 470.217 312.317 466.547 296.323C461.498 274.321 440.422 260.382 419.472 265.189Z" fill="#296C38"/>
<path d="M431.645 345.747L439.79 351.437L451.558 334.592L431.047 335.83L431.645 345.747ZM429.279 345.814L429.314 335.88L409.47 335.809L421.304 351.739L429.279 345.814ZM430.515 347.548L422.314 353.156L431.346 366.365L439.178 352.411L430.515 347.548ZM393.699 286.045L390.62 295.491L398.868 298.179L402.643 290.368L393.699 286.045ZM419.472 265.189L417.25 255.506L417.25 255.506L419.472 265.189ZM382.889 285.551L385.111 295.235L385.111 295.235L382.889 285.551ZM372.856 291.227L367.479 299.581L374.327 303.989L379.993 298.138L372.856 291.227ZM357.138 288.395L359.36 298.078L359.36 298.078L357.138 288.395ZM341.58 314.6L331.897 316.822L331.897 316.822L341.58 314.6ZM342.3 317.097L341.727 327.015L356.6 327.876L351.677 313.814L342.3 317.097ZM334.584 317.749L332.362 308.066L332.362 308.066L334.584 317.749ZM313.414 353.407L303.731 355.629L303.731 355.629L313.414 353.407ZM322.392 369.115L330.268 375.17L335.765 368.02L329.179 361.86L322.392 369.115ZM315.245 383.915L320.285 392.477L323.86 390.373L324.877 386.351L315.245 383.915ZM305.404 407.848L295.72 410.07L295.72 410.07L305.404 407.848ZM321.492 424.575L331.371 425.629L332.292 416.998L323.863 414.927L321.492 424.575ZM321.955 432.167L331.638 429.945L331.638 429.945L321.955 432.167ZM347.381 448.967L349.603 458.651L349.603 458.651L347.381 448.967ZM352.184 447.201L361.463 443.651L357.48 433.242L347.596 438.389L352.184 447.201ZM395.882 471.625L393.66 461.941L393.66 461.941L395.882 471.625ZM423.655 424.844L433.338 422.622L433.338 422.622L423.655 424.844ZM422.439 420.59L422.658 410.657L408.405 410.344L413.046 423.824L422.439 420.59ZM429.18 419.899L426.958 410.215L426.957 410.215L429.18 419.899ZM429.829 419.741L432.279 410.113L429.827 409.489L427.375 410.114L429.829 419.741ZM439.331 419.856L441.553 429.539L441.553 429.539L439.331 419.856ZM454.889 393.651L445.205 395.873L445.205 395.873L454.889 393.651ZM450.372 384.34L440.685 386.548L441.199 388.804L442.657 390.6L450.372 384.34ZM450.349 384.241L460.036 382.034L460.034 382.026L460.032 382.019L450.349 384.241ZM449.418 380.984L449.3 371.05L435.54 371.213L440.025 384.223L449.418 380.984ZM453.693 380.473L455.915 390.156L455.915 390.156L453.693 380.473ZM469.251 354.268L478.934 352.046L478.934 352.046L469.251 354.268ZM452.913 337.481L446.659 329.762L430.866 342.556L450.663 347.158L452.913 337.481ZM466.547 296.323L476.23 294.101L476.23 294.101L466.547 296.323ZM431.047 335.83C430.467 335.865 429.89 335.882 429.314 335.88L429.244 355.749C430.241 355.753 431.241 355.725 432.244 355.664L431.047 335.83ZM439.178 352.411C439.368 352.074 439.572 351.749 439.79 351.437L423.501 340.057C422.908 340.906 422.358 341.783 421.851 342.686L439.178 352.411ZM421.304 351.739C421.649 352.203 421.986 352.676 422.314 353.156L438.716 341.94C438.241 341.246 437.754 340.562 437.254 339.89L421.304 351.739ZM402.643 290.368C406.401 282.594 413.205 276.82 421.694 274.872L417.25 255.506C402.44 258.904 390.929 268.944 384.754 281.722L402.643 290.368ZM385.111 295.235C386.984 294.805 388.857 294.916 390.62 295.491L396.777 276.599C391.725 274.953 386.189 274.601 380.667 275.868L385.111 295.235ZM379.993 298.138C381.379 296.707 383.114 295.693 385.111 295.235L380.667 275.868C374.765 277.223 369.659 280.247 365.719 284.316L379.993 298.138ZM359.36 298.078C362.147 297.439 365.013 297.993 367.479 299.581L378.234 282.873C371.576 278.587 363.269 276.795 354.916 278.712L359.36 298.078ZM351.263 312.378C349.663 305.406 353.824 299.349 359.36 298.078L354.916 278.712C337.816 282.636 328.046 300.043 331.897 316.822L351.263 312.378ZM351.677 313.814C351.516 313.353 351.377 312.874 351.263 312.378L331.897 316.822C332.175 318.038 332.519 319.225 332.924 320.38L351.677 313.814ZM336.806 327.433C338.466 327.052 340.115 326.922 341.727 327.015L342.874 307.179C339.411 306.979 335.878 307.259 332.362 308.066L336.806 327.433ZM323.097 351.185C320.514 339.929 327.188 329.64 336.806 327.433L332.362 308.066C311.18 312.927 298.898 334.566 303.731 355.629L323.097 351.185ZM329.179 361.86C326.291 359.159 324.09 355.513 323.097 351.185L303.731 355.629C305.623 363.875 309.873 371.008 315.605 376.37L329.179 361.86ZM324.877 386.351C325.923 382.217 327.777 378.41 330.268 375.17L314.516 363.06C310.353 368.475 307.316 374.75 305.614 381.479L324.877 386.351ZM315.087 405.626C313.794 399.992 316.327 394.807 320.285 392.477L310.206 375.354C298.531 382.226 292.555 396.276 295.72 410.07L315.087 405.626ZM323.863 414.927C319.872 413.947 316.219 410.561 315.087 405.626L295.72 410.07C298.511 422.231 307.753 431.43 319.122 434.223L323.863 414.927ZM331.638 429.945C331.297 428.46 331.224 427.007 331.371 425.629L311.613 423.521C311.235 427.07 311.434 430.738 312.272 434.389L331.638 429.945ZM345.159 439.284C339.624 440.554 333.238 436.917 331.638 429.945L312.272 434.389C316.122 451.168 332.504 462.574 349.603 458.651L345.159 439.284ZM347.596 438.389C346.846 438.779 346.034 439.084 345.159 439.284L349.603 458.651C352.141 458.068 354.542 457.174 356.773 456.013L347.596 438.389ZM393.66 461.941C380.53 464.954 366.707 457.354 361.463 443.651L342.906 450.751C351.375 472.885 374.49 486.726 398.104 481.308L393.66 461.941ZM413.972 427.066C417.712 443.363 408.081 458.632 393.66 461.941L398.104 481.308C424.089 475.345 439.328 448.725 433.338 422.622L413.972 427.066ZM413.046 423.824C413.406 424.871 413.716 425.953 413.972 427.066L433.338 422.622C432.926 420.823 432.422 419.066 431.833 417.356L413.046 423.824ZM426.957 410.215C425.509 410.548 424.07 410.688 422.658 410.657L422.221 430.522C425.257 430.589 428.336 430.285 431.402 429.582L426.957 410.215ZM427.375 410.114C427.237 410.149 427.098 410.183 426.958 410.215L431.401 429.582C431.697 429.514 431.991 429.443 432.284 429.368L427.375 410.114ZM437.109 410.173C435.468 410.549 433.835 410.509 432.279 410.113L427.38 429.369C431.899 430.519 436.735 430.644 441.553 429.539L437.109 410.173ZM445.205 395.873C446.805 402.845 442.644 408.902 437.109 410.173L441.553 429.539C458.652 425.615 468.422 408.207 464.572 391.429L445.205 395.873ZM442.657 390.6C443.835 392.052 444.737 393.829 445.205 395.873L464.572 391.429C463.415 386.389 461.151 381.857 458.086 378.08L442.657 390.6ZM440.663 386.448L440.685 386.548L460.059 382.133L460.036 382.034L440.663 386.448ZM440.025 384.223C440.275 384.945 440.489 385.692 440.666 386.463L460.032 382.019C459.698 380.56 459.289 379.135 458.81 377.746L440.025 384.223ZM451.471 370.79C450.737 370.958 450.012 371.042 449.3 371.05L449.535 390.919C451.652 390.894 453.789 390.644 455.915 390.156L451.471 370.79ZM459.567 356.49C461.167 363.462 457.006 369.52 451.471 370.79L455.915 390.156C473.014 386.232 482.784 368.825 478.934 352.046L459.567 356.49ZM450.663 347.158C454.703 348.097 458.422 351.5 459.567 356.49L478.934 352.046C476.113 339.755 466.701 330.487 455.163 327.805L450.663 347.158ZM456.864 298.545C459.698 310.896 455.164 322.872 446.659 329.762L459.167 345.201C473.651 333.468 480.736 313.739 476.23 294.101L456.864 298.545ZM421.694 274.872C436.854 271.393 452.938 281.438 456.864 298.545L476.23 294.101C470.058 267.204 443.989 249.37 417.25 255.506L421.694 274.872Z" fill="#07573A" mask="url(#path-6-outside-3_442_9)"/>
<mask id="path-8-outside-4_442_9" maskUnits="userSpaceOnUse" x="334.192" y="308.333" width="116.907" height="143.54" fill="black">
<rect fill="white" x="334.192" y="308.333" width="116.907" height="143.54"/>
<path fill-rule="evenodd" clip-rule="evenodd" d="M362.123 337.857C361.958 337.385 361.817 336.899 361.703 336.4C360.113 329.472 364.176 322.628 370.778 321.113C374.028 320.367 377.286 321.052 379.948 322.765C381.501 321.161 383.496 319.983 385.8 319.454C391.964 318.04 398.163 321.772 400.251 327.912C401.463 327.385 402.738 326.963 404.069 326.657C413.826 324.418 423.629 329.15 428.685 337.68C433.662 338.392 437.981 342.253 439.222 347.661C440.812 354.589 436.748 361.433 430.146 362.948C429.61 363.071 429.073 363.155 428.539 363.202C426.836 365.928 424.586 368.278 421.903 370.06C423.42 372.049 424.553 374.404 425.155 377.026L425.168 377.085C426.406 378.61 427.329 380.45 427.803 382.515C429.392 389.443 425.329 396.288 418.727 397.803C416.843 398.235 414.956 398.187 413.185 397.736C413.059 397.768 412.932 397.799 412.805 397.828C411.111 398.216 409.416 398.32 407.764 398.168C406.393 399.253 404.917 400.218 403.349 401.043C403.149 401.359 402.941 401.669 402.726 401.975C405.131 404.853 406.925 408.36 407.832 412.313C410.778 425.148 403.258 437.827 391.036 440.631C378.815 443.436 366.52 435.304 363.575 422.469C363.002 419.973 362.825 417.484 363.001 415.071C357.139 415.346 351.676 411.181 350.254 404.984C348.803 398.663 352.059 392.411 357.656 390.214C352.132 390.06 347.132 386.007 345.781 380.119C344.661 375.241 346.345 370.404 349.743 367.44C347.614 365.188 346.026 362.323 345.272 359.039C343.109 349.612 348.638 340.299 357.622 338.237C359.131 337.891 360.643 337.771 362.123 337.857ZM362.288 389.402C362.553 389.41 362.816 389.426 363.079 389.451C363.069 389.324 363.06 389.197 363.052 389.07C362.803 389.189 362.548 389.3 362.288 389.402Z"/>
</mask>
<path fill-rule="evenodd" clip-rule="evenodd" d="M362.123 337.857C361.958 337.385 361.817 336.899 361.703 336.4C360.113 329.472 364.176 322.628 370.778 321.113C374.028 320.367 377.286 321.052 379.948 322.765C381.501 321.161 383.496 319.983 385.8 319.454C391.964 318.04 398.163 321.772 400.251 327.912C401.463 327.385 402.738 326.963 404.069 326.657C413.826 324.418 423.629 329.15 428.685 337.68C433.662 338.392 437.981 342.253 439.222 347.661C440.812 354.589 436.748 361.433 430.146 362.948C429.61 363.071 429.073 363.155 428.539 363.202C426.836 365.928 424.586 368.278 421.903 370.06C423.42 372.049 424.553 374.404 425.155 377.026L425.168 377.085C426.406 378.61 427.329 380.45 427.803 382.515C429.392 389.443 425.329 396.288 418.727 397.803C416.843 398.235 414.956 398.187 413.185 397.736C413.059 397.768 412.932 397.799 412.805 397.828C411.111 398.216 409.416 398.32 407.764 398.168C406.393 399.253 404.917 400.218 403.349 401.043C403.149 401.359 402.941 401.669 402.726 401.975C405.131 404.853 406.925 408.36 407.832 412.313C410.778 425.148 403.258 437.827 391.036 440.631C378.815 443.436 366.52 435.304 363.575 422.469C363.002 419.973 362.825 417.484 363.001 415.071C357.139 415.346 351.676 411.181 350.254 404.984C348.803 398.663 352.059 392.411 357.656 390.214C352.132 390.06 347.132 386.007 345.781 380.119C344.661 375.241 346.345 370.404 349.743 367.44C347.614 365.188 346.026 362.323 345.272 359.039C343.109 349.612 348.638 340.299 357.622 338.237C359.131 337.891 360.643 337.771 362.123 337.857ZM362.288 389.402C362.553 389.41 362.816 389.426 363.079 389.451C363.069 389.324 363.06 389.197 363.052 389.07C362.803 389.189 362.548 389.3 362.288 389.402Z" fill="#2E7E40"/>
<path d="M361.703 336.4L371.386 334.178L371.386 334.178L361.703 336.4ZM362.123 337.857L361.549 347.775L376.423 348.635L371.5 334.574L362.123 337.857ZM370.778 321.113L373 330.796L373 330.796L370.778 321.113ZM379.948 322.765L374.57 331.118L381.418 335.527L387.084 329.676L379.948 322.765ZM385.8 319.454L383.578 309.771L383.578 309.771L385.8 319.454ZM400.251 327.912L390.846 331.111L394.32 341.325L404.213 337.023L400.251 327.912ZM404.069 326.657L406.291 336.341L406.291 336.341L404.069 326.657ZM428.685 337.68L420.139 342.745L422.566 346.84L427.277 347.514L428.685 337.68ZM439.222 347.661L429.539 349.883L429.539 349.883L439.222 347.661ZM430.146 362.948L427.924 353.265L427.924 353.265L430.146 362.948ZM428.539 363.202L427.669 353.306L422.737 353.739L420.113 357.938L428.539 363.202ZM421.903 370.06L416.407 361.784L407.573 367.651L414.003 376.083L421.903 370.06ZM425.155 377.026L434.842 374.82L434.84 374.812L434.838 374.804L425.155 377.026ZM425.168 377.085L415.481 379.291L415.995 381.547L417.453 383.344L425.168 377.085ZM427.803 382.515L437.486 380.293L437.486 380.293L427.803 382.515ZM418.727 397.803L420.949 407.486L420.949 407.486L418.727 397.803ZM413.185 397.736L415.634 388.108L413.182 387.484L410.73 388.109L413.185 397.736ZM412.805 397.828L415.027 407.511L415.027 407.511L412.805 397.828ZM407.764 398.168L408.674 388.275L404.716 387.911L401.599 390.377L407.764 398.168ZM403.349 401.043L398.723 392.25L396.375 393.486L394.955 395.728L403.349 401.043ZM402.726 401.975L394.608 396.247L390.206 402.486L395.102 408.345L402.726 401.975ZM407.832 412.313L417.516 410.091L417.516 410.091L407.832 412.313ZM391.036 440.631L388.814 430.948L388.814 430.948L391.036 440.631ZM363.575 422.469L353.891 424.691L353.891 424.691L363.575 422.469ZM363.001 415.071L372.909 415.795L373.725 404.624L362.537 405.147L363.001 415.071ZM350.254 404.984L359.937 402.762L359.937 402.762L350.254 404.984ZM357.656 390.214L361.286 399.462L357.932 380.283L357.656 390.214ZM345.781 380.119L355.464 377.897L355.464 377.897L345.781 380.119ZM349.743 367.44L356.273 374.928L364.069 368.129L356.962 360.614L349.743 367.44ZM345.272 359.039L335.589 361.261L335.589 361.261L345.272 359.039ZM357.622 338.237L355.4 328.554L355.4 328.554L357.622 338.237ZM363.079 389.451L362.132 399.341L373.891 400.467L372.984 388.688L363.079 389.451ZM362.288 389.402L358.657 380.155L362.011 399.333L362.288 389.402ZM363.052 389.07L372.969 388.465L372.072 373.755L358.772 380.105L363.052 389.07ZM352.019 338.622C352.216 339.481 352.46 340.321 352.746 341.14L371.5 334.574C371.456 334.45 371.418 334.318 371.386 334.178L352.019 338.622ZM368.556 311.43C356.172 314.272 349.304 326.791 352.019 338.622L371.386 334.178C370.921 332.154 372.18 330.984 373 330.796L368.556 311.43ZM385.325 314.411C380.568 311.349 374.588 310.046 368.556 311.43L373 330.796C373.467 330.689 374.005 330.755 374.57 331.118L385.325 314.411ZM383.578 309.771C379.322 310.748 375.642 312.93 372.811 315.853L387.084 329.676C387.36 329.391 387.67 329.218 388.022 329.138L383.578 309.771ZM409.657 324.713C406.071 314.17 395.129 307.12 383.578 309.771L388.022 329.138C388.8 328.959 390.254 329.373 390.846 331.111L409.657 324.713ZM401.847 316.974C399.916 317.417 398.059 318.032 396.29 318.801L404.213 337.023C404.867 336.738 405.56 336.508 406.291 336.341L401.847 316.974ZM437.232 332.614C430.178 320.713 416.195 313.682 401.847 316.974L406.291 336.341C411.457 335.155 417.081 337.586 420.139 342.745L437.232 332.614ZM448.905 345.439C446.768 336.126 439.237 329.154 430.093 327.845L427.277 347.514C428.086 347.63 429.194 348.379 429.539 349.883L448.905 345.439ZM432.368 372.631C444.752 369.789 451.62 357.27 448.905 345.439L429.539 349.883C430.003 351.908 428.744 353.077 427.924 353.265L432.368 372.631ZM429.409 373.099C430.397 373.012 431.385 372.857 432.368 372.631L427.924 353.265C427.835 353.285 427.75 353.298 427.669 353.306L429.409 373.099ZM427.399 378.336C431.306 375.742 434.539 372.349 436.965 368.466L420.113 357.938C419.133 359.508 417.867 360.814 416.407 361.784L427.399 378.336ZM434.838 374.804C433.916 370.785 432.168 367.137 429.804 364.036L414.003 376.083C414.671 376.96 415.19 378.022 415.472 379.248L434.838 374.804ZM434.855 374.879L434.842 374.82L415.468 379.232L415.481 379.291L434.855 374.879ZM437.486 380.293C436.668 376.73 435.064 373.513 432.883 370.825L417.453 383.344C417.747 383.707 417.989 384.169 418.119 384.737L437.486 380.293ZM420.949 407.486C433.333 404.644 440.201 392.124 437.486 380.293L418.119 384.737C418.584 386.762 417.325 387.931 416.505 388.119L420.949 407.486ZM410.736 407.364C413.988 408.192 417.477 408.282 420.949 407.486L416.505 388.119C416.209 388.187 415.924 388.182 415.634 388.108L410.736 407.364ZM415.027 407.511C415.232 407.464 415.436 407.415 415.639 407.363L410.73 388.109C410.682 388.121 410.633 388.133 410.583 388.145L415.027 407.511ZM406.855 408.061C409.538 408.308 412.291 408.139 415.027 407.511L410.583 388.145C409.932 388.294 409.293 388.332 408.674 388.275L406.855 408.061ZM407.975 409.835C410.095 408.72 412.084 407.419 413.929 405.958L401.599 390.377C400.701 391.088 399.74 391.716 398.723 392.25L407.975 409.835ZM410.844 407.702C411.155 407.261 411.454 406.813 411.743 406.358L394.955 395.728C394.843 395.905 394.728 396.078 394.608 396.247L410.844 407.702ZM395.102 408.345C396.517 410.038 397.597 412.128 398.149 414.535L417.516 410.091C416.254 404.592 413.745 399.668 410.35 395.604L395.102 408.345ZM398.149 414.535C399.971 422.475 395.246 429.472 388.814 430.948L393.258 450.314C411.269 446.181 421.584 427.821 417.516 410.091L398.149 414.535ZM388.814 430.948C382.383 432.424 375.08 428.187 373.258 420.247L353.891 424.691C357.96 442.421 375.247 454.447 393.258 450.314L388.814 430.948ZM373.258 420.247C372.908 418.724 372.805 417.227 372.909 415.795L353.093 414.348C352.845 417.74 353.096 421.223 353.891 424.691L373.258 420.247ZM340.571 407.206C343.01 417.835 352.55 425.506 363.465 424.995L362.537 405.147C361.728 405.185 360.342 404.527 359.937 402.762L340.571 407.206ZM354.025 380.966C343.586 385.065 338.084 396.372 340.571 407.206L359.937 402.762C359.522 400.954 360.532 399.758 361.286 399.462L354.025 380.966ZM336.097 382.341C338.419 392.457 347.143 399.86 357.379 400.145L357.932 380.283C357.121 380.26 355.845 379.556 355.464 377.897L336.097 382.341ZM343.213 359.953C337.028 365.347 334.166 373.926 336.097 382.341L355.464 377.897C355.156 376.556 355.661 375.462 356.273 374.928L343.213 359.953ZM335.589 361.261C336.745 366.298 339.196 370.747 342.525 374.267L356.962 360.614C356.031 359.63 355.307 358.349 354.955 356.817L335.589 361.261ZM355.4 328.554C340.634 331.942 332.3 346.931 335.589 361.261L354.955 356.817C353.917 352.293 356.642 348.655 359.844 347.921L355.4 328.554ZM362.697 327.939C360.291 327.799 357.838 327.995 355.4 328.554L359.844 347.921C360.425 347.787 360.995 347.743 361.549 347.775L362.697 327.939ZM364.025 379.562C363.541 379.515 363.054 379.485 362.564 379.471L362.011 399.333C362.051 399.335 362.092 399.337 362.132 399.341L364.025 379.562ZM353.136 389.675C353.147 389.855 353.159 390.034 353.173 390.214L372.984 388.688C372.978 388.614 372.973 388.54 372.969 388.465L353.136 389.675ZM365.918 398.65C366.399 398.461 366.871 398.256 367.333 398.036L358.772 380.105C358.734 380.123 358.696 380.139 358.657 380.155L365.918 398.65Z" fill="#0A5F40" mask="url(#path-8-outside-4_442_9)"/>
<mask id="path-10-outside-5_442_9" maskUnits="userSpaceOnUse" x="-54.0092" y="74.9585" width="436.929" height="426.918" fill="black">
<rect fill="white" x="-54.0092" y="74.9585" width="436.929" height="426.918"/>
<path fill-rule="evenodd" clip-rule="evenodd" d="M280.485 362.415C281.417 363.843 282.281 365.338 283.068 366.898C293.995 388.55 286.125 414.544 265.491 424.958C255.335 430.083 243.979 430.478 233.763 426.977C229.927 433.56 224.28 439.093 217.078 442.727C197.811 452.45 174.228 445.151 162.291 426.515C158.708 429.25 154.83 431.691 150.672 433.789C120.177 449.178 83.8331 441.514 60.1141 417.386C43.0469 419.09 25.5838 409.83 17.0539 392.927C6.12703 371.275 13.9967 345.281 34.6312 334.868C36.3071 334.022 38.0156 333.305 39.7463 332.713C43.1616 322.289 48.6957 312.667 56.1289 304.571C49.4811 299.221 43.8023 292.346 39.6667 284.151C39.6363 284.091 39.606 284.031 39.5758 283.971C34.2295 279.929 29.6668 274.587 26.4079 268.129C15.4811 246.477 23.3507 220.483 43.9852 210.07C49.8733 207.098 56.1645 205.717 62.4032 205.762C62.7934 205.554 63.1872 205.349 63.5844 205.148C68.8776 202.477 74.4102 200.75 80.0035 199.904C83.6609 195.187 87.7607 190.787 92.282 186.772C98.2548 168.908 110.704 153.522 128.43 144.577C146.791 135.311 167.349 134.705 185.767 141.215C187.663 128.067 195.446 116.225 207.815 109.983C228.45 99.5695 254.035 108.681 264.962 130.333C267.324 135.014 268.808 139.898 269.474 144.784C285.215 144.77 300.675 153.857 308.54 169.442C317.477 187.153 313.839 207.768 300.926 220.386C300.86 231.539 298.536 242.447 294.169 252.397C304.419 258.134 313.221 267.013 319.005 278.474C333.873 307.937 323.165 343.308 295.087 357.477C290.368 359.859 285.458 361.49 280.485 362.415Z"/>
</mask>
<path fill-rule="evenodd" clip-rule="evenodd" d="M280.485 362.415C281.417 363.843 282.281 365.338 283.068 366.898C293.995 388.55 286.125 414.544 265.491 424.958C255.335 430.083 243.979 430.478 233.763 426.977C229.927 433.56 224.28 439.093 217.078 442.727C197.811 452.45 174.228 445.151 162.291 426.515C158.708 429.25 154.83 431.691 150.672 433.789C120.177 449.178 83.8331 441.514 60.1141 417.386C43.0469 419.09 25.5838 409.83 17.0539 392.927C6.12703 371.275 13.9967 345.281 34.6312 334.868C36.3071 334.022 38.0156 333.305 39.7463 332.713C43.1616 322.289 48.6957 312.667 56.1289 304.571C49.4811 299.221 43.8023 292.346 39.6667 284.151C39.6363 284.091 39.606 284.031 39.5758 283.971C34.2295 279.929 29.6668 274.587 26.4079 268.129C15.4811 246.477 23.3507 220.483 43.9852 210.07C49.8733 207.098 56.1645 205.717 62.4032 205.762C62.7934 205.554 63.1872 205.349 63.5844 205.148C68.8776 202.477 74.4102 200.75 80.0035 199.904C83.6609 195.187 87.7607 190.787 92.282 186.772C98.2548 168.908 110.704 153.522 128.43 144.577C146.791 135.311 167.349 134.705 185.767 141.215C187.663 128.067 195.446 116.225 207.815 109.983C228.45 99.5695 254.035 108.681 264.962 130.333C267.324 135.014 268.808 139.898 269.474 144.784C285.215 144.77 300.675 153.857 308.54 169.442C317.477 187.153 313.839 207.768 300.926 220.386C300.86 231.539 298.536 242.447 294.169 252.397C304.419 258.134 313.221 267.013 319.005 278.474C333.873 307.937 323.165 343.308 295.087 357.477C290.368 359.859 285.458 361.49 280.485 362.415Z" fill="#296C38"/>
<path d="M283.068 366.898L274.199 371.374L274.199 371.374L283.068 366.898ZM280.485 362.415L278.667 352.648L264.02 355.374L272.167 367.848L280.485 362.415ZM265.491 424.958L261.015 416.088L261.015 416.088L265.491 424.958ZM233.763 426.977L236.984 417.579L229.278 414.938L225.178 421.976L233.763 426.977ZM217.078 442.727L212.602 433.858L217.078 442.727ZM162.291 426.515L170.657 421.156L164.839 412.072L156.264 418.617L162.291 426.515ZM150.672 433.789L155.148 442.658L150.672 433.789ZM60.1141 417.386L67.199 410.421L63.8625 407.027L59.1267 407.5L60.1141 417.386ZM17.0539 392.927L25.9233 388.451L25.9233 388.451L17.0539 392.927ZM34.6312 334.868L30.1552 325.998L30.1552 325.998L34.6312 334.868ZM39.7463 332.713L42.9612 342.113L47.6458 340.511L49.1873 335.806L39.7463 332.713ZM56.1289 304.571L63.4469 311.29L70.6187 303.48L62.3577 296.831L56.1289 304.571ZM39.6667 284.151L30.7965 288.626L30.7972 288.627L39.6667 284.151ZM39.5758 283.971L48.4596 279.523L47.4197 277.446L45.5667 276.045L39.5758 283.971ZM26.4079 268.129L35.2774 263.653L35.2774 263.653L26.4079 268.129ZM43.9852 210.07L48.4612 218.939L48.4612 218.939L43.9852 210.07ZM62.4032 205.762L62.3301 215.697L64.8604 215.716L67.0913 214.522L62.4032 205.762ZM63.5844 205.148L59.1084 196.279L59.1082 196.279L63.5844 205.148ZM80.0035 199.904L81.4901 209.727L85.4194 209.132L87.8546 205.992L80.0035 199.904ZM92.282 186.772L98.8785 194.201L100.863 192.439L101.704 189.922L92.282 186.772ZM128.43 144.577L123.954 135.708L123.954 135.708L128.43 144.577ZM185.767 141.215L182.456 150.582L193.872 154.618L195.6 142.633L185.767 141.215ZM207.815 109.983L212.291 118.852L212.291 118.852L207.815 109.983ZM264.962 130.333L273.832 125.857L273.832 125.857L264.962 130.333ZM269.474 144.784L259.631 146.126L260.803 154.726L269.483 154.719L269.474 144.784ZM308.54 169.442L317.409 164.966L317.409 164.966L308.54 169.442ZM300.926 220.386L293.983 213.28L291.016 216.179L290.992 220.327L300.926 220.386ZM294.169 252.397L285.071 248.404L281.447 256.662L289.316 261.066L294.169 252.397ZM319.005 278.474L327.875 273.998L327.875 273.998L319.005 278.474ZM295.087 357.477L290.612 348.608L290.612 348.608L295.087 357.477ZM291.938 362.422C290.984 360.532 289.936 358.718 288.803 356.983L272.167 367.848C272.898 368.967 273.577 370.143 274.199 371.374L291.938 362.422ZM269.967 433.827C295.897 420.741 305.131 388.565 291.938 362.422L274.199 371.374C282.859 388.535 276.353 408.348 261.015 416.088L269.967 433.827ZM230.541 436.375C243.116 440.685 257.262 440.239 269.967 433.827L261.015 416.088C253.408 419.927 244.842 420.272 236.984 417.579L230.541 436.375ZM221.554 451.597C230.544 447.06 237.587 440.148 242.347 431.978L225.178 421.976C222.267 426.973 218.016 431.126 212.602 433.858L221.554 451.597ZM153.925 431.873C168.37 454.425 197.353 463.809 221.554 451.597L212.602 433.858C198.269 441.091 180.086 435.877 170.657 421.156L153.925 431.873ZM155.148 442.658C159.855 440.283 164.252 437.516 168.319 434.412L156.264 418.617C153.163 420.984 149.805 423.098 146.196 424.92L155.148 442.658ZM53.0292 424.35C79.4955 451.273 120.448 460.17 155.148 442.658L146.196 424.92C119.907 438.186 88.1707 431.755 67.199 410.421L53.0292 424.35ZM8.18441 397.403C18.5192 417.882 39.8452 429.394 61.1015 427.271L59.1267 407.5C46.2486 408.786 32.6485 401.778 25.9233 388.451L8.18441 397.403ZM30.1552 325.998C4.22463 339.084 -5.00892 371.26 8.18441 397.403L25.9233 388.451C17.263 371.29 23.7687 351.478 39.1071 343.737L30.1552 325.998ZM36.5314 323.313C34.3702 324.052 32.2402 324.946 30.1552 325.998L39.1071 343.737C40.3739 343.098 41.661 342.558 42.9612 342.113L36.5314 323.313ZM48.8109 297.852C40.3846 307.029 34.1453 317.9 30.3053 329.62L49.1873 335.806C52.178 326.679 57.0068 318.304 63.4469 311.29L48.8109 297.852ZM30.7972 288.627C35.5783 298.101 42.1631 306.084 49.9001 312.311L62.3577 296.831C56.7991 292.358 52.0264 286.591 48.5362 279.675L30.7972 288.627ZM30.692 288.418C30.7273 288.488 30.7622 288.558 30.7965 288.626L48.5369 279.677C48.5104 279.624 48.4847 279.573 48.4596 279.523L30.692 288.418ZM17.5384 272.605C21.4898 280.435 27.0442 286.952 33.585 291.896L45.5667 276.045C41.4147 272.907 37.8437 268.739 35.2774 263.653L17.5384 272.605ZM39.5092 201.2C13.5786 214.286 4.34512 246.462 17.5384 272.605L35.2774 263.653C26.617 246.492 33.1227 226.68 48.4612 218.939L39.5092 201.2ZM62.4763 195.828C54.7091 195.771 46.8523 197.494 39.5092 201.2L48.4612 218.939C52.8942 216.702 57.6198 215.662 62.3301 215.697L62.4763 195.828ZM59.1082 196.279C58.64 196.515 58.1756 196.757 57.7151 197.003L67.0913 214.522C67.4113 214.35 67.7344 214.182 68.0606 214.018L59.1082 196.279ZM78.5169 190.081C71.8997 191.082 65.3563 193.126 59.1084 196.279L68.0604 214.018C72.3989 211.828 76.9207 210.418 81.4901 209.727L78.5169 190.081ZM85.6856 179.343C80.6983 183.772 76.1797 188.622 72.1524 193.816L87.8546 205.992C91.1421 201.752 94.8232 197.802 98.8785 194.201L85.6856 179.343ZM123.954 135.708C103.738 145.91 89.6075 163.441 82.8599 183.622L101.704 189.922C106.902 174.376 117.67 161.135 132.906 153.447L123.954 135.708ZM189.078 131.848C168.283 124.498 144.898 125.138 123.954 135.708L132.906 153.447C148.685 145.484 166.415 144.912 182.456 150.582L189.078 131.848ZM203.339 101.113C187.844 108.933 178.255 123.704 175.934 139.797L195.6 142.633C197.072 132.429 203.047 123.517 212.291 118.852L203.339 101.113ZM273.832 125.857C260.638 99.7135 229.27 88.0274 203.339 101.113L212.291 118.852C227.63 111.112 247.432 117.648 256.093 134.809L273.832 125.857ZM279.318 143.441C278.504 137.474 276.694 131.53 273.832 125.857L256.093 134.809C257.954 138.498 259.112 142.322 259.631 146.126L279.318 143.441ZM317.409 164.966C307.874 146.072 289.005 134.832 269.466 134.849L269.483 154.719C281.426 154.708 293.476 161.643 299.67 173.918L317.409 164.966ZM307.87 227.492C323.984 211.746 328.233 186.414 317.409 164.966L299.67 173.918C306.722 187.892 303.694 203.791 293.983 213.28L307.87 227.492ZM290.992 220.327C290.933 230.142 288.887 239.71 285.071 248.404L303.266 256.39C308.184 245.185 310.787 232.936 310.861 220.445L290.992 220.327ZM327.875 273.998C321.185 260.742 310.97 250.416 299.021 243.728L289.316 261.066C297.867 265.852 305.257 273.283 310.136 282.95L327.875 273.998ZM299.563 366.347C332.937 349.504 345.009 307.952 327.875 273.998L310.136 282.95C322.738 307.922 313.393 337.111 290.612 348.608L299.563 366.347ZM282.303 372.182C288.188 371.087 293.994 369.157 299.563 366.347L290.612 348.608C286.742 350.56 282.729 351.892 278.667 352.648L282.303 372.182Z" fill="#07573A" mask="url(#path-10-outside-5_442_9)"/>
<mask id="path-12-outside-6_442_9" maskUnits="userSpaceOnUse" x="4.27388" y="130.375" width="320.092" height="314.372" fill="black">
<rect fill="white" x="4.27388" y="130.375" width="320.092" height="314.372"/>
<path fill-rule="evenodd" clip-rule="evenodd" d="M247.587 341.481C248.254 342.502 248.872 343.572 249.436 344.689C257.256 360.185 251.624 378.788 236.856 386.24C229.589 389.908 221.463 390.191 214.151 387.685C211.406 392.397 207.365 396.356 202.211 398.957C188.423 405.915 171.545 400.691 163.003 387.354C160.438 389.312 157.662 391.058 154.686 392.56C151.465 394.186 148.153 395.452 144.792 396.374C142.734 404.453 137.477 411.522 129.66 415.467C114.893 422.92 96.5824 416.399 88.7626 400.903C85.5023 394.443 84.5802 387.442 85.6837 380.935C74.8867 380.453 64.4666 374.03 59.0604 363.317C51.2405 347.821 56.8725 329.218 71.6397 321.766C72.8396 321.161 74.0629 320.647 75.302 320.224C77.7463 312.764 81.7068 305.878 87.0263 300.084C82.2686 296.255 78.2043 291.335 75.2445 285.47L75.1791 285.34C71.3535 282.448 68.0886 278.625 65.7567 274.004C57.9368 258.509 63.5688 239.906 78.336 232.453C82.5494 230.327 87.0513 229.338 91.5156 229.371C91.795 229.221 92.077 229.075 92.3614 228.931C96.1498 227.02 100.11 225.784 104.113 225.178C105.08 223.931 106.09 222.714 107.143 221.531C107.542 202.054 117.931 183.772 135.878 174.715C160.065 162.509 189.576 171.3 205.063 194.198C208.984 194.868 212.839 195.959 216.561 197.447C219.174 193.897 222.609 190.914 226.769 188.815C241.536 181.362 259.846 187.883 267.666 203.378C275.486 218.874 269.854 237.477 255.087 244.929C254.596 245.177 254.101 245.409 253.603 245.626C254.273 250.755 254.265 255.883 253.618 260.875C262.548 264.777 270.324 271.833 275.155 281.408C285.796 302.493 278.132 327.806 258.038 337.947C254.661 339.651 251.147 340.819 247.587 341.481Z"/>
</mask>
<path fill-rule="evenodd" clip-rule="evenodd" d="M247.587 341.481C248.254 342.502 248.872 343.572 249.436 344.689C257.256 360.185 251.624 378.788 236.856 386.24C229.589 389.908 221.463 390.191 214.151 387.685C211.406 392.397 207.365 396.356 202.211 398.957C188.423 405.915 171.545 400.691 163.003 387.354C160.438 389.312 157.662 391.058 154.686 392.56C151.465 394.186 148.153 395.452 144.792 396.374C142.734 404.453 137.477 411.522 129.66 415.467C114.893 422.92 96.5824 416.399 88.7626 400.903C85.5023 394.443 84.5802 387.442 85.6837 380.935C74.8867 380.453 64.4666 374.03 59.0604 363.317C51.2405 347.821 56.8725 329.218 71.6397 321.766C72.8396 321.161 74.0629 320.647 75.302 320.224C77.7463 312.764 81.7068 305.878 87.0263 300.084C82.2686 296.255 78.2043 291.335 75.2445 285.47L75.1791 285.34C71.3535 282.448 68.0886 278.625 65.7567 274.004C57.9368 258.509 63.5688 239.906 78.336 232.453C82.5494 230.327 87.0513 229.338 91.5156 229.371C91.795 229.221 92.077 229.075 92.3614 228.931C96.1498 227.02 100.11 225.784 104.113 225.178C105.08 223.931 106.09 222.714 107.143 221.531C107.542 202.054 117.931 183.772 135.878 174.715C160.065 162.509 189.576 171.3 205.063 194.198C208.984 194.868 212.839 195.959 216.561 197.447C219.174 193.897 222.609 190.914 226.769 188.815C241.536 181.362 259.846 187.883 267.666 203.378C275.486 218.874 269.854 237.477 255.087 244.929C254.596 245.177 254.101 245.409 253.603 245.626C254.273 250.755 254.265 255.883 253.618 260.875C262.548 264.777 270.324 271.833 275.155 281.408C285.796 302.493 278.132 327.806 258.038 337.947C254.661 339.651 251.147 340.819 247.587 341.481Z" fill="#2E7E40"/>
<path d="M249.436 344.689L258.305 340.213L258.305 340.213L249.436 344.689ZM247.587 341.481L245.77 331.714L231.122 334.44L239.269 346.914L247.587 341.481ZM236.856 386.24L241.332 395.109L236.856 386.24ZM214.151 387.685L217.372 378.287L209.667 375.647L205.567 382.684L214.151 387.685ZM202.211 398.957L206.687 407.826L206.687 407.826L202.211 398.957ZM163.003 387.354L171.369 381.996L165.55 372.911L156.975 379.457L163.003 387.354ZM154.686 392.56L159.162 401.43L159.162 401.43L154.686 392.56ZM144.792 396.374L142.164 386.793L136.59 388.322L135.164 393.922L144.792 396.374ZM129.66 415.467L134.136 424.337L129.66 415.467ZM88.7626 400.903L79.8931 405.379L79.8931 405.379L88.7626 400.903ZM85.6837 380.935L95.4787 382.596L97.3583 371.511L86.1268 371.01L85.6837 380.935ZM59.0604 363.317L50.1909 367.793L50.1909 367.793L59.0604 363.317ZM71.6397 321.766L76.1157 330.636L76.1157 330.636L71.6397 321.766ZM75.302 320.224L78.5164 329.624L83.2013 328.022L84.743 323.317L75.302 320.224ZM87.0263 300.084L94.3442 306.804L101.516 298.993L93.255 292.344L87.0263 300.084ZM75.2445 285.47L66.3679 289.932L66.3714 289.939L66.375 289.946L75.2445 285.47ZM75.1791 285.34L84.0557 280.878L83.0164 278.811L81.1703 277.415L75.1791 285.34ZM65.7567 274.004L74.6262 269.528L74.6262 269.528L65.7567 274.004ZM78.336 232.453L73.86 223.584L73.86 223.584L78.336 232.453ZM91.5156 229.371L91.443 239.306L93.9731 239.324L96.2038 238.13L91.5156 229.371ZM92.3614 228.931L96.8373 237.801L96.8373 237.801L92.3614 228.931ZM104.113 225.178L105.599 235.001L109.529 234.406L111.964 231.266L104.113 225.178ZM107.143 221.531L114.564 228.136L117.001 225.399L117.076 221.735L107.143 221.531ZM135.878 174.715L131.402 165.845L131.402 165.845L135.878 174.715ZM205.063 194.198L196.834 199.764L199.21 203.277L203.39 203.991L205.063 194.198ZM216.561 197.447L212.872 206.672L220.006 209.525L224.561 203.337L216.561 197.447ZM226.769 188.815L231.245 197.684L231.245 197.684L226.769 188.815ZM255.087 244.929L259.563 253.799L259.563 253.799L255.087 244.929ZM253.603 245.626L249.635 236.518L242.784 239.503L243.752 246.913L253.603 245.626ZM253.618 260.875L243.765 259.599L242.807 266.994L249.641 269.98L253.618 260.875ZM275.155 281.408L266.286 285.884L266.286 285.884L275.155 281.408ZM258.038 337.947L253.563 329.077L253.563 329.077L258.038 337.947ZM258.305 340.213C257.575 338.767 256.773 337.378 255.905 336.048L239.269 346.914C239.735 347.627 240.169 348.378 240.566 349.165L258.305 340.213ZM241.332 395.109C261.396 384.984 268.392 360.2 258.305 340.213L240.566 349.165C246.12 360.169 241.852 372.591 232.38 377.37L241.332 395.109ZM210.931 397.084C220.6 400.397 231.516 400.063 241.332 395.109L232.38 377.37C227.661 379.752 222.325 379.984 217.372 378.287L210.931 397.084ZM206.687 407.826C213.63 404.323 219.066 398.984 222.735 392.687L205.567 382.684C203.747 385.809 201.101 388.389 197.735 390.087L206.687 407.826ZM154.637 392.712C165.687 409.965 187.965 417.274 206.687 407.826L197.735 390.087C188.881 394.556 177.403 391.418 171.369 381.996L154.637 392.712ZM159.162 401.43C162.688 399.651 165.983 397.578 169.031 395.251L156.975 379.457C154.893 381.045 152.637 382.466 150.21 383.691L159.162 401.43ZM147.419 405.955C151.414 404.859 155.346 403.356 159.162 401.43L150.21 383.691C147.584 385.016 144.891 386.045 142.164 386.793L147.419 405.955ZM134.136 424.337C144.701 419.005 151.706 409.482 154.419 398.825L135.164 393.922C133.763 399.424 130.253 404.04 125.184 406.598L134.136 424.337ZM79.8931 405.379C89.9794 425.366 114.073 434.462 134.136 424.337L125.184 406.598C115.713 411.377 103.185 407.432 97.632 396.427L79.8931 405.379ZM75.8886 379.274C74.4361 387.84 75.6617 396.995 79.8931 405.379L97.632 396.427C95.3428 391.891 94.7244 387.045 95.4787 382.596L75.8886 379.274ZM50.1909 367.793C57.2035 381.689 70.8314 390.216 85.2405 390.86L86.1268 371.01C78.942 370.689 71.7297 366.371 67.9299 358.841L50.1909 367.793ZM67.1637 312.897C47.1005 323.022 40.1046 347.806 50.1909 367.793L67.9299 358.841C62.3765 347.837 66.6445 335.415 76.1157 330.636L67.1637 312.897ZM72.0877 310.823C70.4178 311.394 68.7729 312.085 67.1637 312.897L76.1157 330.636C76.9063 330.237 77.7079 329.901 78.5164 329.624L72.0877 310.823ZM79.7084 293.365C73.3958 300.24 68.73 308.375 65.8611 317.13L84.743 323.317C86.7626 317.154 90.0179 311.515 94.3442 306.804L79.7084 293.365ZM66.375 289.946C69.9803 297.09 74.9506 303.119 80.7976 307.824L93.255 292.344C89.5865 289.392 86.4283 285.58 84.114 280.994L66.375 289.946ZM66.3024 289.802L66.3679 289.932L84.1211 281.009L84.0557 280.878L66.3024 289.802ZM56.8872 278.48C59.9116 284.473 64.168 289.47 69.1878 293.265L81.1703 277.415C78.539 275.426 76.2657 272.777 74.6262 269.528L56.8872 278.48ZM73.86 223.584C53.7967 233.709 46.8009 258.493 56.8872 278.48L74.6262 269.528C69.0728 258.524 73.3408 246.103 82.812 241.323L73.86 223.584ZM91.5882 219.436C85.5956 219.393 79.5283 220.724 73.86 223.584L82.812 241.323C85.5706 239.931 88.507 239.284 91.443 239.306L91.5882 219.436ZM87.8855 220.062C87.5299 220.241 87.1772 220.425 86.8274 220.612L96.2038 238.13C96.4129 238.018 96.624 237.908 96.8373 237.801L87.8855 220.062ZM102.626 215.355C97.5993 216.115 92.6286 217.668 87.8854 220.062L96.8373 237.801C99.671 236.371 102.62 235.452 105.599 235.001L102.626 215.355ZM99.7219 214.926C98.5191 216.278 97.3654 217.667 96.2617 219.09L111.964 231.266C112.794 230.195 113.661 229.151 114.564 228.136L99.7219 214.926ZM131.402 165.845C109.89 176.701 97.6783 198.502 97.2103 221.328L117.076 221.735C117.407 205.606 125.972 190.842 140.354 183.584L131.402 165.845ZM213.292 188.632C195.251 161.958 160.434 151.194 131.402 165.845L140.354 183.584C159.695 173.824 183.9 180.642 196.834 199.764L213.292 188.632ZM203.39 203.991C206.612 204.541 209.792 205.44 212.872 206.672L220.25 188.223C215.887 186.478 211.356 185.194 206.736 184.405L203.39 203.991ZM222.293 179.945C216.697 182.769 212.069 186.791 208.56 191.557L224.561 203.337C226.279 201.004 228.521 199.059 231.245 197.684L222.293 179.945ZM276.536 198.902C266.449 178.916 242.356 169.82 222.293 179.945L231.245 197.684C240.716 192.904 253.243 196.85 258.797 207.854L276.536 198.902ZM259.563 253.799C279.626 243.674 286.622 218.889 276.536 198.902L258.797 207.854C264.35 218.859 260.082 231.28 250.611 236.06L259.563 253.799ZM257.571 254.734C258.24 254.443 258.905 254.131 259.563 253.799L250.611 236.06C250.287 236.223 249.962 236.376 249.635 236.518L257.571 254.734ZM243.752 246.913C244.31 251.189 244.302 255.454 243.765 259.599L263.47 262.152C264.227 256.311 264.236 250.322 263.454 244.34L243.752 246.913ZM284.025 276.932C278.135 265.26 268.612 256.584 257.595 251.771L249.641 269.98C256.484 272.969 262.512 278.406 266.286 285.884L284.025 276.932ZM262.514 346.816C287.905 334.003 296.932 302.508 284.025 276.932L266.286 285.884C274.66 302.478 268.36 321.609 253.563 329.077L262.514 346.816ZM249.405 351.248C253.876 350.416 258.286 348.95 262.514 346.816L253.563 329.077C251.035 330.353 248.417 331.221 245.77 331.714L249.405 351.248Z" fill="#0A5F40" mask="url(#path-12-outside-6_442_9)"/>
<mask id="path-14-outside-7_442_9" maskUnits="userSpaceOnUse" x="81.2782" y="195.815" width="186.469" height="189.329" fill="black">
<rect fill="white" x="81.2782" y="195.815" width="186.469" height="189.329"/>
<path fill-rule="evenodd" clip-rule="evenodd" d="M165.332 316.622L165.309 316.606L165.348 316.606L165.332 316.622ZM163.851 362.967C172.227 358.74 177.181 350.335 177.647 341.276C179.183 341.103 180.708 340.661 182.159 339.929C183.523 339.241 184.719 338.347 185.732 337.301C190.254 338.751 195.238 338.522 199.707 336.267C208.575 331.791 212.228 320.949 208.321 311.481C212.444 309.321 215.409 305.771 216.974 301.633C219.448 301.243 221.895 300.471 224.238 299.288C236.927 292.885 241.762 276.89 235.036 263.563C230.386 254.349 221.426 248.822 212.145 248.406C209.431 243.68 204.539 240.946 199.563 240.951C199.341 239.328 198.848 237.705 198.064 236.15C194.434 228.957 185.934 225.93 179.079 229.389C177.431 230.221 176.028 231.352 174.899 232.689C171.24 225.569 162.788 222.586 155.965 226.03C149.818 229.132 147.081 236.396 149.199 243.05C148.786 243.358 148.386 243.677 147.997 244.008C143.747 239.578 137.149 238.15 131.621 240.94C124.766 244.399 122.152 253.035 125.782 260.228C127.265 263.167 129.562 265.411 132.228 266.801C129.465 273.384 128.745 280.892 130.391 288.248C125.061 291.696 122.017 297.637 121.912 303.92C121.79 303.977 121.669 304.037 121.548 304.098C114.693 307.557 112.078 316.192 115.708 323.385C117.943 327.814 122.024 330.663 126.43 331.392C124.947 337.497 125.579 344.251 128.698 350.431C135.423 363.758 151.162 369.37 163.851 362.967Z"/>
</mask>
<path fill-rule="evenodd" clip-rule="evenodd" d="M165.332 316.622L165.309 316.606L165.348 316.606L165.332 316.622ZM163.851 362.967C172.227 358.74 177.181 350.335 177.647 341.276C179.183 341.103 180.708 340.661 182.159 339.929C183.523 339.241 184.719 338.347 185.732 337.301C190.254 338.751 195.238 338.522 199.707 336.267C208.575 331.791 212.228 320.949 208.321 311.481C212.444 309.321 215.409 305.771 216.974 301.633C219.448 301.243 221.895 300.471 224.238 299.288C236.927 292.885 241.762 276.89 235.036 263.563C230.386 254.349 221.426 248.822 212.145 248.406C209.431 243.68 204.539 240.946 199.563 240.951C199.341 239.328 198.848 237.705 198.064 236.15C194.434 228.957 185.934 225.93 179.079 229.389C177.431 230.221 176.028 231.352 174.899 232.689C171.24 225.569 162.788 222.586 155.965 226.03C149.818 229.132 147.081 236.396 149.199 243.05C148.786 243.358 148.386 243.677 147.997 244.008C143.747 239.578 137.149 238.15 131.621 240.94C124.766 244.399 122.152 253.035 125.782 260.228C127.265 263.167 129.562 265.411 132.228 266.801C129.465 273.384 128.745 280.892 130.391 288.248C125.061 291.696 122.017 297.637 121.912 303.92C121.79 303.977 121.669 304.037 121.548 304.098C114.693 307.557 112.078 316.192 115.708 323.385C117.943 327.814 122.024 330.663 126.43 331.392C124.947 337.497 125.579 344.251 128.698 350.431C135.423 363.758 151.162 369.37 163.851 362.967Z" fill="#339048"/>
<path d="M165.309 316.606L165.145 306.673L133.544 307.192L159.759 324.847L165.309 316.606ZM165.332 316.622L159.783 324.863L166.763 329.564L172.548 323.452L165.332 316.622ZM165.348 316.606L172.563 323.435L188.797 306.284L165.185 306.672L165.348 316.606ZM177.647 341.276L176.535 331.404L168.158 332.347L167.725 340.766L177.647 341.276ZM163.851 362.967L168.327 371.836L168.327 371.836L163.851 362.967ZM182.159 339.929L177.683 331.06L177.683 331.06L182.159 339.929ZM185.732 337.301L188.766 327.841L182.886 325.955L178.593 330.392L185.732 337.301ZM199.707 336.267L204.183 345.136L199.707 336.267ZM208.321 311.481L203.711 302.68L195.679 306.888L199.137 315.27L208.321 311.481ZM216.974 301.633L215.426 291.82L209.723 292.719L207.681 298.12L216.974 301.633ZM224.238 299.288L219.762 290.419L219.762 290.419L224.238 299.288ZM235.036 263.563L243.906 259.088L243.906 259.088L235.036 263.563ZM212.145 248.406L203.529 253.353L206.247 258.087L211.7 258.331L212.145 248.406ZM199.563 240.951L189.719 242.293L190.892 250.894L199.572 250.886L199.563 240.951ZM198.064 236.15L189.194 240.626L189.194 240.626L198.064 236.15ZM179.079 229.389L174.603 220.52L174.603 220.52L179.079 229.389ZM174.899 232.689L166.062 237.229L172.872 250.486L182.489 239.1L174.899 232.689ZM155.965 226.03L160.441 234.899L160.441 234.899L155.965 226.03ZM149.199 243.05L155.136 251.016L160.814 246.785L158.666 240.037L149.199 243.05ZM147.997 244.008L140.829 250.887L147.311 257.642L154.438 251.572L147.997 244.008ZM131.621 240.94L136.097 249.809L136.097 249.809L131.621 240.94ZM125.782 260.228L116.912 264.704L116.912 264.704L125.782 260.228ZM132.228 266.801L141.389 270.646L144.926 262.217L136.82 257.991L132.228 266.801ZM130.391 288.248L135.787 296.59L141.598 292.832L140.086 286.077L130.391 288.248ZM121.912 303.92L126.12 312.92L131.742 310.292L131.846 304.087L121.912 303.92ZM121.548 304.098L117.072 295.228L117.072 295.228L121.548 304.098ZM115.708 323.385L124.578 318.909L124.578 318.909L115.708 323.385ZM126.43 331.392L136.084 333.738L138.612 323.337L128.051 321.59L126.43 331.392ZM128.698 350.431L119.829 354.907L119.829 354.907L128.698 350.431ZM159.759 324.847L159.783 324.863L170.882 308.382L170.858 308.366L159.759 324.847ZM165.185 306.672L165.145 306.673L165.472 326.54L165.511 326.539L165.185 306.672ZM172.548 323.452L172.563 323.435L158.133 309.776L158.117 309.793L172.548 323.452ZM167.725 340.766C167.426 346.578 164.294 351.615 159.375 354.097L168.327 371.836C180.159 365.865 186.935 354.091 187.568 341.787L167.725 340.766ZM177.683 331.06C177.305 331.25 176.923 331.36 176.535 331.404L178.758 351.149C181.444 350.846 184.11 350.073 186.635 348.799L177.683 331.06ZM178.593 330.392C178.338 330.655 178.039 330.88 177.683 331.06L186.635 348.799C189.008 347.601 191.1 346.04 192.871 344.21L178.593 330.392ZM195.231 327.397C193.241 328.402 190.97 328.547 188.766 327.841L182.698 346.761C189.538 348.955 197.234 348.643 204.183 345.136L195.231 327.397ZM199.137 315.27C201.234 320.351 199.073 325.458 195.231 327.397L204.183 345.136C218.078 338.124 223.222 321.548 217.505 307.692L199.137 315.27ZM207.681 298.12C206.924 300.122 205.548 301.718 203.711 302.68L212.931 320.281C219.34 316.924 223.895 311.419 226.266 305.147L207.681 298.12ZM219.762 290.419C218.354 291.129 216.897 291.588 215.426 291.82L218.521 311.447C221.999 310.899 225.435 309.812 228.713 308.158L219.762 290.419ZM226.167 268.039C230.629 276.882 227.148 286.691 219.762 290.419L228.713 308.158C246.706 299.078 252.894 276.898 243.906 259.088L226.167 268.039ZM211.7 258.331C217.367 258.585 223.121 262.004 226.167 268.039L243.906 259.088C237.651 246.693 225.485 239.059 212.59 238.481L211.7 258.331ZM199.572 250.886C200.933 250.884 202.561 251.667 203.529 253.353L220.761 243.46C216.301 235.692 208.145 231.008 199.553 231.016L199.572 250.886ZM189.194 240.626C189.478 241.189 189.645 241.752 189.719 242.293L209.406 239.609C209.038 236.904 208.218 234.221 206.933 231.674L189.194 240.626ZM183.555 238.259C185.114 237.472 187.831 237.924 189.194 240.626L206.933 231.674C201.037 219.99 186.754 214.388 174.603 220.52L183.555 238.259ZM182.489 239.1C182.777 238.758 183.129 238.474 183.555 238.259L174.603 220.52C171.734 221.968 169.279 223.945 167.309 226.279L182.489 239.1ZM160.441 234.899C161.994 234.116 164.69 234.559 166.062 237.229L183.735 228.149C177.791 216.579 163.582 211.057 151.489 217.16L160.441 234.899ZM158.666 240.037C157.896 237.618 159.027 235.613 160.441 234.899L151.489 217.16C140.609 222.651 136.266 235.175 139.732 246.064L158.666 240.037ZM154.438 251.572C154.664 251.38 154.896 251.195 155.136 251.016L143.262 235.085C142.677 235.521 142.108 235.974 141.556 236.444L154.438 251.572ZM136.097 249.809C137.381 249.161 139.323 249.317 140.829 250.887L155.166 237.13C148.17 229.839 136.917 227.139 127.145 232.07L136.097 249.809ZM134.651 255.752C133.288 253.05 134.538 250.596 136.097 249.809L127.145 232.07C114.994 238.202 111.016 253.019 116.912 264.704L134.651 255.752ZM136.82 257.991C135.969 257.548 135.183 256.805 134.651 255.752L116.912 264.704C119.348 269.53 123.155 273.275 127.636 275.611L136.82 257.991ZM140.086 286.077C138.889 280.727 139.427 275.322 141.389 270.646L123.067 262.956C119.504 271.446 118.601 281.057 120.697 290.418L140.086 286.077ZM131.846 304.087C131.9 300.856 133.447 298.103 135.787 296.59L124.996 279.906C116.675 285.288 112.135 294.417 111.979 303.754L131.846 304.087ZM126.024 312.967C126.056 312.951 126.088 312.935 126.12 312.92L117.704 294.921C117.492 295.02 117.281 295.122 117.072 295.228L126.024 312.967ZM124.578 318.909C123.214 316.208 124.465 313.754 126.024 312.967L117.072 295.228C104.921 301.36 100.942 316.177 106.839 327.861L124.578 318.909ZM128.051 321.59C126.759 321.377 125.379 320.496 124.578 318.909L106.839 327.861C110.508 335.132 117.289 339.95 124.809 341.194L128.051 321.59ZM137.568 345.955C135.529 341.915 135.15 337.583 136.084 333.738L116.777 329.046C114.743 337.412 115.63 346.587 119.829 354.907L137.568 345.955ZM159.375 354.097C151.989 357.825 142.03 354.798 137.568 345.955L119.829 354.907C128.817 372.718 150.335 380.916 168.327 371.836L159.375 354.097Z" fill="#0B6645" mask="url(#path-14-outside-7_442_9)"/>
<mask id="path-16-outside-8_442_9" maskUnits="userSpaceOnUse" x="242.918" y="-10.7591" width="306.206" height="304.678" fill="black">
<rect fill="white" x="242.918" y="-10.7591" width="306.206" height="304.678"/>
<path fill-rule="evenodd" clip-rule="evenodd" d="M321.879 80.285C317.792 69.3046 318.558 56.8863 325.065 46.5049C336.479 28.2917 361.239 23.245 380.367 35.2329C386.655 39.1737 391.551 44.4649 394.887 50.4398C402.882 50.1971 411.135 52.2848 418.543 56.9276C433.722 66.4408 440.794 83.8228 437.362 99.6959C444.019 99.1621 450.993 100.729 457.199 104.618C470.558 112.991 475.784 129.259 470.147 142.71C472.679 143.255 475.173 144.249 477.512 145.714C487.836 152.185 491.207 165.406 485.041 175.245C479.809 183.592 469.395 186.823 460.053 183.661C475.406 195.915 479.817 217.365 469.621 233.635C458.613 251.199 434.748 256.074 416.317 244.523C406.317 238.256 399.971 228.44 398.016 217.966C388.646 224.82 375.3 225.501 364.433 218.691C350.385 209.886 345.798 191.896 354.189 178.508C354.372 178.215 354.56 177.927 354.753 177.643C351.4 171.102 349.449 163.992 349.025 156.806C346.878 156.05 344.776 155.044 342.759 153.78C331.547 146.753 326.361 133.875 328.99 122.155C325.054 122.063 321.049 120.926 317.42 118.651C307.096 112.181 303.725 98.9595 309.892 89.1205C312.709 84.6245 317.031 81.6128 321.879 80.285ZM451.291 178.287C450.972 177.976 450.664 177.656 450.367 177.33C450.301 177.486 450.235 177.641 450.168 177.797C450.544 177.954 450.918 178.118 451.291 178.287Z"/>
</mask>
<path fill-rule="evenodd" clip-rule="evenodd" d="M321.879 80.285C317.792 69.3046 318.558 56.8863 325.065 46.5049C336.479 28.2917 361.239 23.245 380.367 35.2329C386.655 39.1737 391.551 44.4649 394.887 50.4398C402.882 50.1971 411.135 52.2848 418.543 56.9276C433.722 66.4408 440.794 83.8228 437.362 99.6959C444.019 99.1621 450.993 100.729 457.199 104.618C470.558 112.991 475.784 129.259 470.147 142.71C472.679 143.255 475.173 144.249 477.512 145.714C487.836 152.185 491.207 165.406 485.041 175.245C479.809 183.592 469.395 186.823 460.053 183.661C475.406 195.915 479.817 217.365 469.621 233.635C458.613 251.199 434.748 256.074 416.317 244.523C406.317 238.256 399.971 228.44 398.016 217.966C388.646 224.82 375.3 225.501 364.433 218.691C350.385 209.886 345.798 191.896 354.189 178.508C354.372 178.215 354.56 177.927 354.753 177.643C351.4 171.102 349.449 163.992 349.025 156.806C346.878 156.05 344.776 155.044 342.759 153.78C331.547 146.753 326.361 133.875 328.99 122.155C325.054 122.063 321.049 120.926 317.42 118.651C307.096 112.181 303.725 98.9595 309.892 89.1205C312.709 84.6245 317.031 81.6128 321.879 80.285ZM451.291 178.287C450.972 177.976 450.664 177.656 450.367 177.33C450.301 177.486 450.235 177.641 450.168 177.797C450.544 177.954 450.918 178.118 451.291 178.287Z" fill="#296C38"/>
<path d="M321.879 80.285L324.503 89.867L334.978 86.9981L331.19 76.8198L321.879 80.285ZM325.065 46.5049L333.483 51.7807L333.483 51.7807L325.065 46.5049ZM380.367 35.2329L375.091 43.6511L375.091 43.6511L380.367 35.2329ZM394.887 50.4398L386.212 55.282L389.154 60.5533L395.188 60.3701L394.887 50.4398ZM418.543 56.9276L413.267 65.3459L413.267 65.3459L418.543 56.9276ZM437.362 99.6959L427.651 97.5964L424.825 110.668L438.156 109.599L437.362 99.6959ZM457.199 104.618L451.923 113.037L451.923 113.037L457.199 104.618ZM470.147 142.71L460.984 138.87L456.361 149.901L468.053 152.421L470.147 142.71ZM477.512 145.714L482.788 137.296L482.788 137.296L477.512 145.714ZM485.041 175.245L493.459 180.521L493.459 180.521L485.041 175.245ZM460.053 183.661L463.239 174.251L453.856 191.426L460.053 183.661ZM469.621 233.635L478.039 238.91L478.039 238.91L469.621 233.635ZM416.317 244.523L421.593 236.105L421.593 236.105L416.317 244.523ZM398.016 217.966L407.783 216.143L404.888 200.631L392.151 209.947L398.016 217.966ZM364.433 218.691L369.709 210.272L369.709 210.272L364.433 218.691ZM354.189 178.508L362.607 183.783L362.607 183.783L354.189 178.508ZM354.753 177.643L362.969 183.229L366.282 178.355L363.594 173.111L354.753 177.643ZM349.025 156.806L358.942 156.221L358.553 149.63L352.326 147.436L349.025 156.806ZM342.759 153.78L337.483 162.198L337.483 162.198L342.759 153.78ZM328.99 122.155L338.684 124.329L341.336 112.505L329.221 112.223L328.99 122.155ZM317.42 118.651L312.145 127.07L312.145 127.07L317.42 118.651ZM309.892 89.1205L301.473 83.8446L301.473 83.8446L309.892 89.1205ZM450.367 177.33L457.711 170.64L447.219 159.12L441.202 173.494L450.367 177.33ZM451.291 178.287L447.181 187.332L458.233 171.18L451.291 178.287ZM450.168 177.797L441.045 173.865L437.072 183.083L446.33 186.96L450.168 177.797ZM331.19 76.8198C328.094 68.5022 328.743 59.3432 333.483 51.7807L316.646 41.229C308.373 54.4293 307.49 70.1071 312.568 83.7501L331.19 76.8198ZM333.483 51.7807C341.743 38.6008 360.219 34.3304 375.091 43.6511L385.642 26.8146C362.259 12.1596 331.215 17.9825 316.646 41.229L333.483 51.7807ZM375.091 43.6511C379.943 46.6923 383.679 50.7454 386.212 55.282L403.562 45.5976C399.424 38.1845 393.366 31.6552 385.642 26.8146L375.091 43.6511ZM423.819 48.5093C414.717 42.8049 404.518 40.2079 394.585 40.5095L395.188 60.3701C401.246 60.1862 407.553 61.7646 413.267 65.3459L423.819 48.5093ZM447.072 101.795C451.414 81.7153 442.441 60.1804 423.819 48.5093L413.267 65.3459C425.003 72.7012 430.174 85.9304 427.651 97.5964L447.072 101.795ZM462.475 96.2002C454.429 91.1578 445.321 89.0909 436.568 89.7928L438.156 109.599C442.716 109.233 447.557 110.3 451.923 113.037L462.475 96.2002ZM479.31 146.55C486.931 128.364 479.724 107.011 462.475 96.2002L451.923 113.037C461.392 118.971 464.638 130.153 460.984 138.87L479.31 146.55ZM482.788 137.296C479.462 135.212 475.89 133.785 472.241 132.998L468.053 152.421C469.468 152.726 470.884 153.286 472.236 154.133L482.788 137.296ZM493.459 180.521C502.775 165.656 497.375 146.438 482.788 137.296L472.236 154.133C478.297 157.932 479.638 165.157 476.622 169.97L493.459 180.521ZM456.868 193.071C470.171 197.575 485.568 193.111 493.459 180.521L476.622 169.97C474.051 174.073 468.619 176.072 463.239 174.251L456.868 193.071ZM478.039 238.91C491.146 217.997 485.205 191.025 466.251 175.896L453.856 191.426C465.607 200.806 468.488 216.734 461.203 228.359L478.039 238.91ZM411.041 252.941C433.735 267.164 463.881 261.502 478.039 238.91L461.203 228.359C453.345 240.896 435.761 244.984 421.593 236.105L411.041 252.941ZM388.25 219.788C390.708 232.961 398.662 245.183 411.041 252.941L421.593 236.105C413.972 231.328 409.234 223.919 407.783 216.143L388.25 219.788ZM359.158 227.109C373.39 236.028 391.153 235.295 403.882 225.985L392.151 209.947C386.138 214.345 377.211 214.974 369.709 210.272L359.158 227.109ZM345.771 173.232C334.23 191.646 340.846 215.633 359.158 227.109L369.709 210.272C359.924 204.14 357.367 192.145 362.607 183.783L345.771 173.232ZM346.537 172.058C346.275 172.443 346.019 172.835 345.771 173.232L362.607 183.783C362.725 183.595 362.846 183.41 362.969 183.229L346.537 172.058ZM339.107 157.391C339.614 165.979 341.942 174.43 345.912 182.175L363.594 173.111C360.858 167.774 359.284 162.006 358.942 156.221L339.107 157.391ZM337.483 162.198C340.124 163.853 342.889 165.178 345.723 166.176L352.326 147.436C350.868 146.922 349.428 146.234 348.035 145.361L337.483 162.198ZM319.296 119.981C315.719 135.929 322.804 152.999 337.483 162.198L348.035 145.361C340.289 140.507 337.004 131.821 338.684 124.329L319.296 119.981ZM312.145 127.07C317.311 130.307 323.062 131.954 328.758 132.087L329.221 112.223C327.046 112.172 324.788 111.544 322.696 110.233L312.145 127.07ZM301.473 83.8446C292.157 98.7103 297.557 117.928 312.145 127.07L322.696 110.233C316.635 106.434 315.294 99.2087 318.31 94.3964L301.473 83.8446ZM319.254 70.703C312.155 72.6474 305.695 77.1081 301.473 83.8446L318.31 94.3964C319.723 92.1409 321.907 90.5781 324.503 89.867L319.254 70.703ZM443.022 184.02C443.449 184.489 443.892 184.947 444.349 185.394L458.233 171.18C458.052 171.004 457.879 170.824 457.711 170.64L443.022 184.02ZM459.292 181.729C459.373 181.541 459.452 181.354 459.531 181.166L441.202 173.494C441.15 173.618 441.098 173.741 441.045 173.865L459.292 181.729ZM455.401 169.242C454.938 169.032 454.473 168.829 454.007 168.633L446.33 186.96C446.614 187.079 446.898 187.203 447.181 187.332L455.401 169.242Z" fill="#07573A" mask="url(#path-16-outside-8_442_9)"/>
<mask id="path-18-outside-9_442_9" maskUnits="userSpaceOnUse" x="298.588" y="39.6373" width="185.903" height="184.589" fill="black">
<rect fill="white" x="298.588" y="39.6373" width="185.903" height="184.589"/>
<path fill-rule="evenodd" clip-rule="evenodd" d="M430.246 169.242C437.594 174.199 439.916 183.836 435.396 191.044C430.776 198.411 420.759 200.451 413.022 195.599C410.092 193.762 407.909 191.2 406.579 188.326C401.909 188.54 397.067 187.358 392.733 184.64C381.835 177.807 378.275 163.855 384.782 153.478C384.813 153.428 384.845 153.378 384.877 153.327C384.905 153.284 384.932 153.241 384.96 153.198C383.633 152.602 382.329 151.906 381.059 151.11C376.407 148.193 372.782 144.281 370.307 139.863C366.394 140.264 362.263 139.387 358.602 137.092C350.182 131.812 347.435 121.026 352.467 113.002C354.157 110.306 356.511 108.264 359.211 106.942C354.568 100.935 353.202 93.01 355.843 86.0401C350.091 82.3151 348.241 74.8702 351.723 69.3177C355.238 63.7121 362.855 62.1578 368.738 65.8461C371.403 67.5174 373.255 69.9783 374.156 72.6916C378.817 72.3664 383.685 73.4892 388.024 76.2099C394.55 80.3016 398.343 87.0447 398.774 93.9652C401.873 94.0115 405.034 94.894 407.893 96.6866C410.812 98.5172 413.014 101.044 414.401 103.886C421.668 109.506 425.861 117.761 426.357 126.201C427.58 126.633 428.778 127.206 429.928 127.927C436.394 131.982 439.34 139.451 437.712 146.194C442.642 150.101 444.064 156.97 440.8 162.176C439.189 164.746 436.715 166.464 433.941 167.216C432.838 168.114 431.584 168.794 430.246 169.242Z"/>
</mask>
<path fill-rule="evenodd" clip-rule="evenodd" d="M430.246 169.242C437.594 174.199 439.916 183.836 435.396 191.044C430.776 198.411 420.759 200.451 413.022 195.599C410.092 193.762 407.909 191.2 406.579 188.326C401.909 188.54 397.067 187.358 392.733 184.64C381.835 177.807 378.275 163.855 384.782 153.478C384.813 153.428 384.845 153.378 384.877 153.327C384.905 153.284 384.932 153.241 384.96 153.198C383.633 152.602 382.329 151.906 381.059 151.11C376.407 148.193 372.782 144.281 370.307 139.863C366.394 140.264 362.263 139.387 358.602 137.092C350.182 131.812 347.435 121.026 352.467 113.002C354.157 110.306 356.511 108.264 359.211 106.942C354.568 100.935 353.202 93.01 355.843 86.0401C350.091 82.3151 348.241 74.8702 351.723 69.3177C355.238 63.7121 362.855 62.1578 368.738 65.8461C371.403 67.5174 373.255 69.9783 374.156 72.6916C378.817 72.3664 383.685 73.4892 388.024 76.2099C394.55 80.3016 398.343 87.0447 398.774 93.9652C401.873 94.0115 405.034 94.894 407.893 96.6866C410.812 98.5172 413.014 101.044 414.401 103.886C421.668 109.506 425.861 117.761 426.357 126.201C427.58 126.633 428.778 127.206 429.928 127.927C436.394 131.982 439.34 139.451 437.712 146.194C442.642 150.101 444.064 156.97 440.8 162.176C439.189 164.746 436.715 166.464 433.941 167.216C432.838 168.114 431.584 168.794 430.246 169.242Z" fill="#2E7E40"/>
<path d="M430.246 169.242L427.09 159.821L407.995 166.216L424.69 177.478L430.246 169.242ZM435.396 191.044L426.979 185.766L426.979 185.766L435.396 191.044ZM413.022 195.599L418.3 187.182L418.3 187.182L413.022 195.599ZM406.579 188.326L415.594 184.152L412.79 178.096L406.124 178.402L406.579 188.326ZM392.733 184.64L387.455 193.057L387.455 193.057L392.733 184.64ZM384.782 153.478L376.365 148.2L376.364 148.2L384.782 153.478ZM384.877 153.327L393.25 158.675L393.25 158.675L384.877 153.327ZM384.96 153.198L393.295 158.605L399.602 148.883L389.031 144.135L384.96 153.198ZM381.059 151.11L375.781 159.527L375.781 159.527L381.059 151.11ZM370.307 139.863L378.975 135.008L375.785 129.314L369.293 129.98L370.307 139.863ZM358.602 137.092L353.325 145.509L353.325 145.509L358.602 137.092ZM352.467 113.002L344.05 107.724L344.05 107.724L352.467 113.002ZM359.211 106.942L363.58 115.865L374.521 110.506L367.072 100.867L359.211 106.942ZM355.843 86.0401L365.133 89.5604L367.975 82.0608L361.243 77.7012L355.843 86.0401ZM351.723 69.3177L343.306 64.0399L343.306 64.0399L351.723 69.3177ZM368.738 65.8461L374.015 57.4291L374.015 57.4291L368.738 65.8461ZM374.156 72.6916L364.727 75.8228L367.157 83.1388L374.847 82.6024L374.156 72.6916ZM388.024 76.2099L393.302 67.7929L393.302 67.7929L388.024 76.2099ZM398.774 93.9652L388.858 94.5828L389.43 103.762L398.626 103.899L398.774 93.9652ZM407.893 96.6866L413.17 88.2696L413.17 88.2696L407.893 96.6866ZM414.401 103.886L405.474 108.244L406.49 110.327L408.323 111.744L414.401 103.886ZM426.357 126.201L416.439 126.784L416.826 133.375L423.053 135.571L426.357 126.201ZM429.928 127.927L424.65 136.344L424.65 136.344L429.928 127.927ZM437.712 146.194L428.055 143.862L426.564 150.035L431.541 153.98L437.712 146.194ZM440.8 162.176L449.217 167.454L449.217 167.454L440.8 162.176ZM433.941 167.216L431.341 157.628L429.308 158.179L427.673 159.509L433.941 167.216ZM424.69 177.478C427.978 179.696 428.414 183.478 426.979 185.766L443.813 196.322C451.417 184.194 447.21 168.701 435.801 161.006L424.69 177.478ZM426.979 185.766C425.515 188.101 421.782 189.365 418.3 187.182L407.744 204.016C419.736 211.536 436.038 208.722 443.813 196.322L426.979 185.766ZM418.3 187.182C417.025 186.383 416.129 185.307 415.594 184.152L397.563 192.5C399.69 197.094 403.159 201.141 407.744 204.016L418.3 187.182ZM387.455 193.057C393.529 196.866 400.376 198.556 407.034 198.25L406.124 178.402C403.442 178.525 400.605 177.85 398.01 176.223L387.455 193.057ZM376.364 148.2C366.702 163.61 372.302 183.555 387.455 193.057L398.01 176.223C391.368 172.058 389.848 164.1 393.199 158.756L376.364 148.2ZM376.504 147.98C376.457 148.053 376.411 148.127 376.365 148.2L393.199 158.756C393.215 158.729 393.233 158.702 393.25 158.675L376.504 147.98ZM376.626 147.791C376.585 147.853 376.544 147.917 376.504 147.98L393.25 158.675C393.265 158.652 393.28 158.628 393.295 158.605L376.626 147.791ZM375.781 159.527C377.439 160.567 379.147 161.478 380.89 162.261L389.031 144.135C388.119 143.726 387.219 143.246 386.336 142.693L375.781 159.527ZM361.639 144.718C364.916 150.568 369.699 155.713 375.781 159.527L386.336 142.693C383.116 140.673 380.648 137.994 378.975 135.008L361.639 144.718ZM353.325 145.509C358.89 148.998 365.24 150.369 371.321 149.746L369.293 129.98C367.547 130.159 365.636 129.776 363.88 128.674L353.325 145.509ZM344.05 107.724C335.867 120.774 340.642 137.556 353.325 145.509L363.88 128.674C359.722 126.067 359.004 121.278 360.884 118.28L344.05 107.724ZM354.841 98.0196C350.548 100.122 346.764 103.396 344.05 107.724L360.884 118.28C361.551 117.216 362.474 116.406 363.58 115.865L354.841 98.0196ZM346.552 82.5198C342.608 92.9281 344.736 104.459 351.35 113.017L367.072 100.867C364.401 97.4109 363.795 93.092 365.133 89.5604L346.552 82.5198ZM343.306 64.0399C336.703 74.569 340.514 87.9494 350.442 94.379L361.243 77.7012C359.667 76.6807 359.778 75.1715 360.14 74.5955L343.306 64.0399ZM374.015 57.4291C363.871 51.0683 349.972 53.4083 343.306 64.0399L360.14 74.5955C360.503 74.0158 361.84 73.2473 363.46 74.2632L374.015 57.4291ZM383.584 69.5604C381.967 64.6906 378.667 60.3456 374.015 57.4291L363.46 74.2632C364.139 74.6892 364.542 75.266 364.727 75.8228L383.584 69.5604ZM393.302 67.7929C387.153 63.9374 380.19 62.3117 373.464 62.7808L374.847 82.6024C377.444 82.4212 380.217 83.041 382.746 84.6269L393.302 67.7929ZM408.69 93.3477C408.06 83.2429 402.549 73.5912 393.302 67.7929L382.746 84.6269C386.55 87.012 388.626 90.8464 388.858 94.5828L408.69 93.3477ZM413.17 88.2696C408.749 85.4973 403.81 84.1044 398.922 84.0314L398.626 103.899C399.936 103.919 401.318 104.291 402.615 105.104L413.17 88.2696ZM423.329 99.5269C421.14 95.0439 417.685 91.1007 413.17 88.2696L402.615 105.104C403.938 105.934 404.888 107.044 405.474 108.244L423.329 99.5269ZM436.275 125.619C435.61 114.306 430.012 103.4 420.479 96.0269L408.323 111.744C413.323 115.611 416.112 121.216 416.439 126.784L436.275 125.619ZM435.206 119.51C433.432 118.398 431.572 117.506 429.66 116.832L423.053 135.571C423.589 135.76 424.124 136.015 424.65 136.344L435.206 119.51ZM447.369 148.526C450.031 137.503 445.177 125.763 435.206 119.51L424.65 136.344C427.61 138.2 428.649 141.4 428.055 143.862L447.369 148.526ZM449.217 167.454C455.401 157.592 452.435 145.186 443.883 138.408L431.541 153.98C432.85 155.017 432.728 156.348 432.383 156.898L449.217 167.454ZM436.542 176.805C441.575 175.44 446.196 172.271 449.217 167.454L432.383 156.898C432.181 157.22 431.855 157.488 431.341 157.628L436.542 176.805ZM433.401 178.662C435.834 177.847 438.15 176.599 440.21 174.924L427.673 159.509C427.526 159.629 427.333 159.74 427.09 159.821L433.401 178.662Z" fill="#0A5F40" mask="url(#path-18-outside-9_442_9)"/>
</g>
<defs>
<clipPath id="clip0_442_9">
<rect width="500" height="500" fill="white" transform="translate(0.648438 0.365234)"/>
</clipPath>
</defs>
</svg>
