<svg width="400" height="400" viewBox="0 0 400 400" fill="none" xmlns="http://www.w3.org/2000/svg">
<path fill-rule="evenodd" clip-rule="evenodd" d="M259.663 141.261C252.35 133.948 240.493 133.948 233.18 141.261L200.462 173.979L166.968 140.485C159.655 133.172 147.798 133.172 140.485 140.485C133.172 147.798 133.172 159.655 140.485 166.968L173.979 200.462L140.488 233.953C133.175 241.267 133.175 253.124 140.488 260.437C147.801 267.75 159.658 267.75 166.971 260.437L200.462 226.946L233.177 259.66C240.49 266.973 252.347 266.973 259.66 259.66C266.973 252.347 266.973 240.49 259.66 233.177L226.946 200.462L259.663 167.745C266.976 160.432 266.976 148.575 259.663 141.261Z" fill="#5BD447"/>
<path fill-rule="evenodd" clip-rule="evenodd" d="M247.01 153.914C241.868 148.773 233.532 148.773 228.391 153.914L200.462 181.843L172.534 153.914C167.392 148.773 159.056 148.773 153.914 153.914C148.773 159.056 148.773 167.392 153.914 172.533L181.843 200.462L153.914 228.391C148.773 233.532 148.773 241.868 153.914 247.01C159.056 252.152 167.392 252.152 172.534 247.01L200.462 219.081L228.391 247.01C233.532 252.151 241.868 252.151 247.01 247.01C252.152 241.868 252.152 233.532 247.01 228.391L219.081 200.462L247.01 172.534C252.152 167.392 252.152 159.056 247.01 153.914Z" fill="#66FF6C"/>
</svg>
