<svg width="400" height="400" viewBox="0 0 400 400" fill="none" xmlns="http://www.w3.org/2000/svg">
<g clip-path="url(#clip0_102_50)">
<path d="M368.019 119.131C373.239 96.3096 359.675 73.3962 337.156 66.9959L288.365 53.1288C287.129 52.7775 285.923 52.3273 284.759 51.7828L219.152 21.0979C207.301 15.555 193.598 15.5735 181.762 21.1486L116.506 51.8856C115.44 52.3874 114.34 52.8101 113.212 53.1503L61.7147 68.6901C40.5471 75.0776 27.4072 96.1816 31.016 117.995L52.2466 246.329C54.4278 259.514 62.4832 270.993 74.1404 277.528L122.698 304.749C124.763 305.907 126.645 307.364 128.284 309.072L172.99 355.689C188.902 372.281 214.905 373.827 232.671 359.237L332.156 277.538C342.333 269.18 348.232 256.704 348.232 243.535L348.232 208.339C348.232 206.538 348.435 204.743 348.836 202.987L368.019 119.131Z" fill="#A7A22F" stroke="#70692C" stroke-width="20"/>
<path d="M339.043 100.851L315.99 200.5L315.99 248.271L200.678 342.968L148 282.5L84.5352 249.293L60.1817 102.082L131.5 82L199.378 48.3367L262.5 82L339.043 100.851Z" fill="#D6D045"/>
<path d="M201.754 343.354L315.91 248.612L315.91 203L339.013 101.474L246 197L201.754 343.354Z" fill="#BCB736"/>
<path d="M340.071 101.598L200.537 125.5L60.4145 102.3L131.5 83L200.537 48.3152L263.5 83L340.071 101.598Z" fill="#E9E46E"/>
</g>
<defs>
<clipPath id="clip0_102_50">
<rect width="400" height="400" fill="white"/>
</clipPath>
</defs>
</svg>
