<svg width="501" height="501" viewBox="0 0 501 501" fill="none" xmlns="http://www.w3.org/2000/svg">
<g clip-path="url(#clip0_135_520)">
<path d="M253.291 12.4363L300.848 71.2678C304.268 75.4977 309.859 77.3145 315.112 75.9022L388.166 56.2598C390.472 55.6399 392.762 57.3038 392.885 59.6882L396.779 135.237C397.059 140.669 400.515 145.425 405.595 147.37L476.243 174.42C478.472 175.273 479.347 177.966 478.045 179.967L436.789 243.376C433.822 247.935 433.822 253.815 436.789 258.374L478.045 321.783C479.347 323.784 478.472 326.477 476.243 327.33L405.595 354.38C400.515 356.324 397.059 361.081 396.779 366.513L392.885 442.062C392.762 444.446 390.472 446.11 388.166 445.49L315.112 425.848C309.859 424.435 304.268 426.252 300.848 430.482L253.291 489.314C251.79 491.171 248.96 491.171 247.459 489.314L199.902 430.482C196.482 426.252 190.891 424.435 185.638 425.848L112.584 445.49C110.278 446.11 107.988 444.446 107.865 442.062L103.971 366.513C103.691 361.081 100.235 356.324 95.1555 354.38L24.5075 327.33C22.2778 326.477 21.403 323.784 22.7051 321.783L63.9612 258.374C66.9276 253.815 66.9276 247.935 63.9612 243.376L22.7051 179.967C21.403 177.966 22.2778 175.273 24.5075 174.42L95.1555 147.37C100.235 145.425 103.691 140.669 103.971 135.237L107.865 59.6882C107.988 57.3038 110.278 55.6399 112.584 56.2598L185.638 75.9022C190.891 77.3145 196.482 75.4977 199.902 71.2678L247.459 12.4363C248.96 10.5795 251.79 10.5795 253.291 12.4363Z" fill="#BCB736" stroke="#4A4242" stroke-width="10"/>
</g>
<defs>
<clipPath id="clip0_135_520">
<rect width="500" height="500" fill="white" transform="translate(0.375 0.875)"/>
</clipPath>
</defs>
</svg>
