<svg width="1001" height="1001" viewBox="0 0 1001 1001" fill="none" xmlns="http://www.w3.org/2000/svg">
<path d="M431.291 468.594L828.596 900.797L863.494 924.957C877.811 929.431 893.023 946.433 901.077 946.433C913.082 946.433 930.606 945.538 944.029 941.064L976.243 895.428L973.558 852.476L530.617 382.69C503.773 353.127 486.243 319.811 493.035 299.437C498.404 283.33 509.142 286.014 530.617 272.592L586.992 245.781L643.366 167.931C602.204 116.926 521.49 18.1369 517.195 20.2845C512.9 22.432 498.404 27.443 493.035 31.0223C452.767 69.5 366.864 170.547 358.81 175.95C340.47 188.255 334.677 181.318 321.321 165.325L321.227 165.212L294.382 159.843C264.853 159.843 246.062 175.916 238.008 181.319C213.848 216.218 220.112 232.325 221.901 237.694C228.344 248.432 251.431 278.856 246.062 277.961C246.062 287.804 246.062 277.961 221.901 304.84L187.003 337.054L141.367 382.69C112.732 442.644 57.7293 574.495 50.0939 586.712C36.6715 608.188 23.249 758.519 23.249 769.257C23.249 777.847 28.618 796.997 28.618 804.155L58.1474 785.364L213.848 527.653L280.96 468.594L356.126 444.399L377.602 420.239L431.291 468.594Z" fill="#200707"/>
<rect x="217.199" y="221.626" width="105.842" height="990.939" rx="52.9209" transform="rotate(-43.347 217.199 221.626)" fill="#3D1919"/>
<path d="M630.321 168.116L520.257 28.5227C466.567 44.6296 314.444 242.39 308.182 248.651C297.444 259.389 251.808 291.603 238.386 299.656C223.646 308.5 164.575 373.128 152.482 388.244C141.744 401.667 42.4183 616.426 42.4182 659.378C42.4182 702.329 26.3117 737.228 42.4182 785.549L80.0009 723.805L128.322 635.217L200.803 519.784L273.284 449.987L353.819 420.458L407.508 337.239L509.519 264.758L582.001 232.544L630.321 168.116Z" fill="#BCB736"/>
<path d="M565.785 175.426L512.095 94.891C468.965 105.514 324.552 258.364 319.508 262.55C310.858 269.729 312.539 276.492 273.176 298.912C273.176 298.912 213.131 353.222 203.379 363.34C194.72 372.324 105.084 508.824 104.945 537.706C104.806 566.588 91.7699 589.992 104.537 622.546L134.891 581.173L173.947 521.791L232.475 444.451L290.856 397.798L355.569 378.253L398.915 322.501L480.998 274.157L536.256 231.8L565.785 175.426Z" fill="#E9E46E"/>
<path d="M373.469 406.636C356.049 361.433 356.871 326.026 375.753 308.204C394.634 290.381 430.03 291.603 474.153 311.6L539.834 482.037L373.469 406.636Z" fill="#3D1919"/>
</svg>
