<svg width="1001" height="1001" viewBox="0 0 1001 1001" fill="none" xmlns="http://www.w3.org/2000/svg">
<g clip-path="url(#clip0_147_147)">
<mask id="path-1-outside-1_147_147" maskUnits="userSpaceOnUse" x="122.089" y="124.548" width="900.147" height="900.147" fill="black">
<rect fill="white" x="122.089" y="124.548" width="900.147" height="900.147"/>
<path d="M181.146 183.577C202.047 162.676 235.934 162.676 256.835 183.577L963.261 890.003C984.161 910.904 984.161 944.791 963.261 965.691V965.691C942.36 986.592 908.473 986.592 887.572 965.691L181.146 259.265C160.245 238.364 160.245 204.478 181.146 183.577V183.577Z"/>
</mask>
<path d="M181.146 183.577C202.047 162.676 235.934 162.676 256.835 183.577L963.261 890.003C984.161 910.904 984.161 944.791 963.261 965.691V965.691C942.36 986.592 908.473 986.592 887.572 965.691L181.146 259.265C160.245 238.364 160.245 204.478 181.146 183.577V183.577Z" fill="#3D1919"/>
<path d="M181.146 259.265L170.825 269.586L181.146 259.265ZM246.513 193.898L952.939 900.324L973.582 879.682L267.156 173.256L246.513 193.898ZM897.893 955.37L191.467 248.944L170.825 269.586L877.251 976.013L897.893 955.37ZM191.467 248.944C176.267 233.744 176.267 209.099 191.467 193.898L170.825 173.256C144.224 199.857 144.224 242.985 170.825 269.586L191.467 248.944ZM952.939 955.37C937.739 970.571 913.094 970.571 897.893 955.37L877.251 976.013C903.852 1002.61 946.981 1002.61 973.582 976.013L952.939 955.37ZM952.939 900.324C968.14 915.525 968.14 940.17 952.939 955.37L973.582 976.013C1000.18 949.412 1000.18 906.283 973.582 879.682L952.939 900.324ZM267.156 173.256C240.555 146.655 197.426 146.655 170.825 173.256L191.467 193.898C206.668 178.697 231.313 178.697 246.513 193.898L267.156 173.256Z" fill="#200707" mask="url(#path-1-outside-1_147_147)"/>
<mask id="path-3-outside-2_147_147" maskUnits="userSpaceOnUse" x="-9.17707" y="-5.93445" width="738.219" height="738.219" fill="black">
<rect fill="white" x="-9.17707" y="-5.93445" width="738.219" height="738.219"/>
<path fill-rule="evenodd" clip-rule="evenodd" d="M258.286 165.008L159.779 263.515L173.893 283.701L173.971 283.779L95.85 361.9L102.128 384.205L117.122 399.199L89.5244 426.796L90.1618 448.04L100.273 458.151L99.0963 459.327C93.3961 465.027 93.3961 474.269 99.0963 479.969L102.178 483.051L94.1505 491.079C93.5171 491.713 93.5171 492.74 94.1505 493.373L214.169 613.392C214.803 614.025 215.829 614.025 216.463 613.392L224.491 605.364L227.532 608.405C233.232 614.105 242.474 614.105 248.174 608.405L249.351 607.229L258.074 615.953L280.745 618.017L308.342 590.42L321.473 603.551L345.643 611.693L423.764 533.572L437.108 546.916L459.531 563.266L558.038 464.76L542.193 441.83L528.849 428.487L605.636 351.7L598.829 326.195L585.698 313.064L615.022 283.74L614.675 259.352L605.951 250.628L605.975 250.605C611.675 244.905 611.675 235.663 605.975 229.963L602.933 226.921L610.392 219.462C611.025 218.829 611.025 217.802 610.392 217.169L490.373 97.1501C489.74 96.5167 488.713 96.5167 488.08 97.1501L480.621 104.609L477.539 101.527C471.839 95.8267 462.597 95.8267 456.897 101.527L456.873 101.55L446.762 91.4393L423.802 92.5191L394.478 121.843L379.484 106.849L355.843 101.907L279.056 178.694L278.978 178.616L258.286 165.008Z"/>
</mask>
<path fill-rule="evenodd" clip-rule="evenodd" d="M258.286 165.008L159.779 263.515L173.893 283.701L173.971 283.779L95.85 361.9L102.128 384.205L117.122 399.199L89.5244 426.796L90.1618 448.04L100.273 458.151L99.0963 459.327C93.3961 465.027 93.3961 474.269 99.0963 479.969L102.178 483.051L94.1505 491.079C93.5171 491.713 93.5171 492.74 94.1505 493.373L214.169 613.392C214.803 614.025 215.829 614.025 216.463 613.392L224.491 605.364L227.532 608.405C233.232 614.105 242.474 614.105 248.174 608.405L249.351 607.229L258.074 615.953L280.745 618.017L308.342 590.42L321.473 603.551L345.643 611.693L423.764 533.572L437.108 546.916L459.531 563.266L558.038 464.76L542.193 441.83L528.849 428.487L605.636 351.7L598.829 326.195L585.698 313.064L615.022 283.74L614.675 259.352L605.951 250.628L605.975 250.605C611.675 244.905 611.675 235.663 605.975 229.963L602.933 226.921L610.392 219.462C611.025 218.829 611.025 217.802 610.392 217.169L490.373 97.1501C489.74 96.5167 488.713 96.5167 488.08 97.1501L480.621 104.609L477.539 101.527C471.839 95.8267 462.597 95.8267 456.897 101.527L456.873 101.55L446.762 91.4393L423.802 92.5191L394.478 121.843L379.484 106.849L355.843 101.907L279.056 178.694L278.978 178.616L258.286 165.008Z" fill="#70692C"/>
<path d="M159.779 263.515L149.458 253.194L140.804 261.848L147.817 271.879L159.779 263.515ZM258.286 165.008L266.306 152.813L256.372 146.28L247.965 154.687L258.286 165.008ZM173.893 283.701L161.931 292.065L162.666 293.116L163.572 294.022L173.893 283.701ZM173.971 283.779L184.292 294.1L194.613 283.779L184.292 273.458L173.971 283.779ZM95.85 361.9L85.5288 351.579L79.4831 357.625L81.7996 365.855L95.85 361.9ZM102.128 384.205L88.0777 388.16L89.1108 391.83L91.8069 394.527L102.128 384.205ZM117.122 399.199L127.443 409.52L137.764 399.199L127.443 388.878L117.122 399.199ZM89.5244 426.796L79.2033 416.475L74.7456 420.933L74.9347 427.234L89.5244 426.796ZM90.1618 448.04L75.5721 448.478L75.7458 454.266L79.8407 458.361L90.1618 448.04ZM100.273 458.151L110.594 468.472L120.915 458.151L110.594 447.83L100.273 458.151ZM99.0963 459.327L88.7752 449.006L99.0963 459.327ZM99.0963 479.969L109.417 469.648L99.0963 479.969ZM102.178 483.051L112.5 493.373L122.821 483.051L112.5 472.73L102.178 483.051ZM224.491 605.364L234.812 595.043L224.491 584.721L214.169 595.043L224.491 605.364ZM248.174 608.405L237.853 598.084L248.174 608.405ZM249.351 607.229L259.672 596.908L249.351 586.586L239.03 596.908L249.351 607.229ZM258.074 615.953L247.753 626.274L251.489 630.01L256.751 630.489L258.074 615.953ZM280.745 618.017L279.421 632.553L286.231 633.173L291.066 628.338L280.745 618.017ZM308.342 590.42L318.664 580.099L308.342 569.777L298.021 580.099L308.342 590.42ZM321.473 603.551L311.152 613.872L313.571 616.291L316.813 617.383L321.473 603.551ZM345.643 611.693L340.983 625.525L349.562 628.416L355.964 622.014L345.643 611.693ZM423.764 533.572L434.085 523.251L423.764 512.93L413.443 523.251L423.764 533.572ZM437.108 546.916L426.786 557.237L427.59 558.04L428.508 558.709L437.108 546.916ZM459.531 563.266L450.931 575.06L461.021 582.418L469.852 573.588L459.531 563.266ZM558.038 464.76L568.359 475.081L576.965 466.475L570.046 456.462L558.038 464.76ZM542.193 441.83L554.201 433.532L553.449 432.444L552.514 431.509L542.193 441.83ZM528.849 428.487L518.528 418.165L508.207 428.487L518.528 438.808L528.849 428.487ZM605.636 351.7L615.957 362.021L621.909 356.069L619.739 347.936L605.636 351.7ZM598.829 326.195L612.932 322.431L611.922 318.645L609.151 315.874L598.829 326.195ZM585.698 313.064L575.377 302.743L565.056 313.064L575.377 323.385L585.698 313.064ZM615.022 283.74L625.343 294.061L629.705 289.699L629.617 283.532L615.022 283.74ZM614.675 259.352L629.27 259.144L629.186 253.22L624.996 249.031L614.675 259.352ZM605.951 250.628L595.63 240.307L585.309 250.628L595.63 260.949L605.951 250.628ZM602.933 226.921L592.612 216.6L582.291 226.921L592.612 237.242L602.933 226.921ZM480.621 104.609L470.3 114.93L480.621 125.251L490.942 114.93L480.621 104.609ZM456.873 101.55L446.552 111.871L456.873 122.193L467.194 111.871L456.873 101.55ZM446.762 91.4393L457.084 81.1182L452.521 76.5561L446.077 76.8591L446.762 91.4393ZM423.802 92.5191L423.116 77.9389L417.474 78.2042L413.481 82.198L423.802 92.5191ZM394.478 121.843L384.157 132.164L394.478 142.485L404.799 132.164L394.478 121.843ZM379.484 106.849L389.805 96.5282L386.729 93.4522L382.471 92.562L379.484 106.849ZM355.843 101.907L358.83 87.6194L351.104 86.0041L345.522 91.5857L355.843 101.907ZM279.056 178.694L268.735 189.015L279.056 199.336L289.377 189.015L279.056 178.694ZM278.978 178.616L289.3 168.295L288.245 167.24L286.999 166.421L278.978 178.616ZM170.101 273.836L268.607 175.33L247.965 154.687L149.458 253.194L170.101 273.836ZM185.856 275.337L171.742 255.151L147.817 271.879L161.931 292.065L185.856 275.337ZM184.292 273.458L184.214 273.38L163.572 294.022L163.65 294.1L184.292 273.458ZM106.171 372.221L184.292 294.1L163.65 273.458L85.5288 351.579L106.171 372.221ZM116.178 380.251L109.9 357.946L81.7996 365.855L88.0777 388.16L116.178 380.251ZM127.443 388.878L112.449 373.884L91.8069 394.527L106.801 409.52L127.443 388.878ZM99.8456 437.118L127.443 409.52L106.801 388.878L79.2033 416.475L99.8456 437.118ZM104.752 447.602L104.114 426.359L74.9347 427.234L75.5721 448.478L104.752 447.602ZM110.594 447.83L100.483 437.719L79.8407 458.361L89.9515 468.472L110.594 447.83ZM109.417 469.648L110.594 468.472L89.9515 447.83L88.7752 449.006L109.417 469.648ZM109.417 469.648L109.417 469.648L88.7752 449.006C77.3747 460.406 77.3747 478.89 88.7752 490.291L109.417 469.648ZM112.5 472.73L109.417 469.648L88.7752 490.291L91.8572 493.373L112.5 472.73ZM104.472 501.4L112.5 493.373L91.8572 472.73L83.8293 480.758L104.472 501.4ZM104.472 483.052C109.539 488.119 109.538 496.334 104.472 501.4L83.8293 480.758C77.4958 487.092 77.4957 497.36 83.8293 503.694L104.472 483.052ZM224.49 603.07L104.472 483.052L83.8293 503.694L203.848 623.713L224.49 603.07ZM206.142 603.07C211.208 598.004 219.423 598.004 224.49 603.07L203.848 623.713C210.182 630.046 220.45 630.046 226.784 623.713L206.142 603.07ZM214.169 595.043L206.142 603.07L226.784 623.713L234.812 615.685L214.169 595.043ZM237.853 598.084L234.812 595.043L214.169 615.685L217.211 618.726L237.853 598.084ZM237.853 598.084L237.853 598.084L217.211 618.726C228.611 630.127 247.095 630.127 258.495 618.726L237.853 598.084ZM239.03 596.908L237.853 598.084L258.495 618.726L259.672 617.55L239.03 596.908ZM268.396 605.631L259.672 596.908L239.03 617.55L247.753 626.274L268.396 605.631ZM282.069 603.481L259.398 601.416L256.751 630.489L279.421 632.553L282.069 603.481ZM298.021 580.099L270.424 607.696L291.066 628.338L318.664 600.741L298.021 580.099ZM331.795 593.23L318.664 580.099L298.021 600.741L311.152 613.872L331.795 593.23ZM350.303 597.86L326.133 589.718L316.813 617.383L340.983 625.525L350.303 597.86ZM413.443 523.251L335.321 601.372L355.964 622.014L434.085 543.893L413.443 523.251ZM447.429 536.595L434.085 523.251L413.443 543.893L426.786 557.237L447.429 536.595ZM468.131 551.473L445.708 535.122L428.508 558.709L450.931 575.06L468.131 551.473ZM547.716 454.438L449.21 552.945L469.852 573.588L568.359 475.081L547.716 454.438ZM530.185 450.128L546.029 473.058L570.046 456.462L554.201 433.532L530.185 450.128ZM518.528 438.808L531.872 452.152L552.514 431.509L539.17 418.165L518.528 438.808ZM595.315 341.378L518.528 418.165L539.17 438.808L615.957 362.021L595.315 341.378ZM584.727 329.958L591.533 355.463L619.739 347.936L612.932 322.431L584.727 329.958ZM575.377 323.385L588.508 336.516L609.151 315.874L596.02 302.743L575.377 323.385ZM604.701 273.419L575.377 302.743L596.02 323.385L625.343 294.061L604.701 273.419ZM600.08 259.56L600.427 283.948L629.617 283.532L629.27 259.144L600.08 259.56ZM595.63 260.949L604.354 269.673L624.996 249.031L616.272 240.307L595.63 260.949ZM595.653 240.284L595.63 240.307L616.272 260.949L616.296 260.926L595.653 240.284ZM595.653 240.284L595.653 240.284L616.296 260.926C627.696 249.526 627.696 231.042 616.296 219.641L595.653 240.284ZM592.612 237.242L595.653 240.284L616.296 219.641L613.254 216.6L592.612 237.242ZM600.071 209.141L592.612 216.6L613.254 237.242L620.713 229.784L600.071 209.141ZM600.071 227.49C595.004 222.423 595.004 214.208 600.071 209.141L620.713 229.784C627.047 223.45 627.047 213.181 620.713 206.848L600.071 227.49ZM480.052 107.471L600.071 227.49L620.713 206.848L500.694 86.8289L480.052 107.471ZM498.401 107.471C493.334 112.538 485.119 112.538 480.052 107.471L500.694 86.8289C494.361 80.4952 484.092 80.4955 477.759 86.8289L498.401 107.471ZM490.942 114.93L498.401 107.471L477.759 86.8289L470.3 94.2878L490.942 114.93ZM467.218 111.848L470.3 114.93L490.942 94.2878L487.86 91.2058L467.218 111.848ZM467.218 111.848L467.218 111.848L487.86 91.2058C476.46 79.8054 457.976 79.8053 446.575 91.2058L467.218 111.848ZM467.194 111.871L467.218 111.848L446.575 91.2058L446.552 91.229L467.194 111.871ZM436.441 101.761L446.552 111.871L467.194 91.229L457.084 81.1182L436.441 101.761ZM424.487 107.099L447.448 106.02L446.077 76.8591L423.116 77.9389L424.487 107.099ZM404.799 132.164L434.123 102.84L413.481 82.198L384.157 111.522L404.799 132.164ZM369.163 117.171L384.157 132.164L404.799 111.522L389.805 96.5282L369.163 117.171ZM352.856 116.194L376.497 121.137L382.471 92.562L358.83 87.6194L352.856 116.194ZM289.377 189.015L366.165 112.228L345.522 91.5857L268.735 168.373L289.377 189.015ZM268.657 188.937L268.735 189.015L289.377 168.373L289.3 168.295L268.657 188.937ZM250.266 177.204L270.958 190.812L286.999 166.421L266.306 152.813L250.266 177.204Z" fill="#200707" mask="url(#path-3-outside-2_147_147)"/>
<path fill-rule="evenodd" clip-rule="evenodd" d="M368.366 130.729L121.291 377.803L125.307 397.049L136.28 408.022L110.795 433.507L109.474 451.716L163.635 524.958L239.071 581.313L258.382 581.093L283.866 555.609L303.808 575.551L324.571 581.083L571.645 334.008L567.383 311.976L547.441 292.034L575.203 264.272L577.05 243.334L520.235 168.358L447.453 113.737L427.616 116.685L399.854 144.447L388.881 133.474L368.366 130.729Z" fill="#BCB736"/>
<path d="M459.94 462.94C480.871 442.009 514.807 442.009 535.739 462.94L962.97 890.172C983.902 911.103 983.902 945.04 962.97 965.971V965.971C942.039 986.902 908.103 986.902 887.171 965.971L459.94 538.739C439.008 517.808 439.008 483.872 459.94 462.94V462.94Z" fill="#3D1919"/>
<path d="M480.614 483.613C492.031 472.196 510.542 472.196 521.959 483.613L942.3 903.954C953.717 915.371 953.717 933.882 942.3 945.299V945.299C930.883 956.716 912.372 956.716 900.955 945.299L480.614 524.958C469.197 513.541 469.197 495.03 480.614 483.613V483.613Z" fill="#472C2C"/>
<path d="M520.235 168.357L163.635 524.958L107.837 450.999L109.91 431.857L135.545 406.222L125.303 395.981L122.164 376.931L367.905 131.189L386.956 134.328L398.904 146.277L428.075 117.106L447.415 113.697L520.235 168.357Z" fill="#E9E46E"/>
</g>
<defs>
<clipPath id="clip0_147_147">
<rect width="1000" height="1000" fill="white" transform="translate(0.25 0.75)"/>
</clipPath>
</defs>
</svg>
