<svg width="501" height="501" viewBox="0 0 501 501" fill="none" xmlns="http://www.w3.org/2000/svg">
<path d="M137.866 334.672L116.627 277.258L150.345 259.75H185.851L202.903 283.322L203.282 283.847L203.783 284.257L246.337 319.174L249.549 321.809L252.728 319.134L297.464 281.49L297.83 281.182L298.131 280.81L315.18 259.75H362.617L384.732 273.879L362.242 334.672L305.884 363.858L290.991 350.826L289.577 349.589H287.699H253.961H252.237H247.872H246.148H212.41H210.531L209.118 350.826L194.225 363.858L137.866 334.672ZM250.054 369.291L259.88 418.847L260.679 422.875H264.785H355.421H356.866L358.089 422.104L429.096 377.312L430.765 376.26L431.265 374.352L460.57 262.656L460.734 262.033V261.388V140.053V137.303L458.411 135.83L419.13 110.927L418.659 110.628L418.133 110.441C410.135 107.586 401.584 104.383 393.25 101.26C387.532 99.1181 381.916 97.0141 376.65 95.0867C370.241 92.7418 364.378 90.6698 359.642 89.1794C357.276 88.4348 355.131 87.8161 353.304 87.3789C351.578 86.9658 349.784 86.625 348.269 86.625H163.723H163.015L162.335 86.8213L83 109.735L82.3071 109.935L81.6991 110.323L41.6867 135.837L39.375 137.311V140.053V261.388V262.033L39.5387 262.656L68.8435 374.352L69.344 376.26L71.0122 377.312L142.02 422.104L143.242 422.875H144.688H235.324H239.43L240.229 418.847L250.054 369.291Z" fill="#D6D045" stroke="#595429" stroke-width="10"/>
<path d="M89.1217 126.625C91.9515 125.492 200.615 152.115 207.972 152.115H279.283C322.673 142.863 410.471 124.359 414.546 124.359C418.621 124.359 431.336 136.821 437.185 143.052L251.551 228.017L58.5601 141.352C67.804 136.821 86.8579 127.531 89.1217 126.625Z" fill="#D6D045"/>
<circle cx="250.6" cy="177.825" r="53.4657" fill="#D6D045"/>
<circle cx="250.054" cy="177.279" r="38.7354" fill="#D6D045"/>
<ellipse cx="250.6" cy="177.279" rx="26.1873" ry="25.6417" fill="#D6D045"/>
<path d="M79.2915 296.517C81.9245 288.986 87.4163 273.47 88.319 271.663L119.351 351.311L175.209 385.204L211.319 381.814C200.599 387.651 178.369 399.326 175.209 399.326C172.049 399.326 127.25 371.082 105.246 356.96L79.2915 296.517Z" fill="#D6D045"/>
<path d="M420.817 296.517C418.184 288.986 412.693 273.47 411.79 271.663L380.758 351.311L324.9 385.204L288.79 381.814C299.51 387.651 321.74 399.326 324.9 399.326C328.06 399.326 372.859 371.082 394.863 356.96L420.817 296.517Z" fill="#D6D045"/>
<path d="M146.397 247.658L95.6588 273.299L83.6562 262.388L115.845 188.736C193.861 187.281 350.658 184.372 353.713 184.372C356.768 184.372 386.265 209.468 400.632 222.016L410.452 273.299L362.987 247.658H308.976L286.608 273.299L248.964 303.851L210.774 273.299L190.588 247.658H146.397Z" fill="#BCB736"/>
<path d="M166.705 97.0807L89.6572 119.995L140.985 178.916L382.26 172.198L409.906 119.995C383.982 110.63 351.152 97.0807 344.293 97.0807H166.705Z" fill="#BCB736"/>
<path d="M175.857 105.81L90.2026 130.906L152.943 178.916L367.897 172.915L410.997 130.906C387.901 122.541 340.182 105.81 334.072 105.81H175.857Z" fill="#A7A22F"/>
<path d="M148.033 218.743L213.501 253.659L249.509 278.21V144.545H213.501L89.6572 119.995L50.9219 144.545V261.297L79.2914 368.774L148.033 411.874H229.868L240.78 360.045H213.501L193.315 376.412L128.393 343.678L100.569 270.026L113.117 253.659L148.033 218.743Z" fill="#D6D045"/>
<path d="M350.985 218.742L285.517 253.659L249.509 278.209V147.819L286.062 144.545L409.906 119.995L448.642 144.545V261.297L420.272 368.774L351.53 411.874H269.695L258.784 360.045H286.062L306.248 377.503L371.171 343.678L398.995 270.026L385.901 253.659L350.985 218.742Z" fill="#D6D045"/>
<path d="M95.113 131.452C97.8409 130.36 202.59 156.002 209.682 156.002H278.424C320.251 147.091 404.887 129.269 408.815 129.269C412.743 129.269 425 141.272 430.638 147.273L251.691 229.108L65.6523 145.636C74.5633 141.272 92.9308 132.325 95.113 131.452Z" fill="#E9E46E"/>
<circle cx="250.6" cy="180.553" r="51.829" fill="#BCB736"/>
<circle cx="250.6" cy="180.553" r="37.6442" fill="#D6D045"/>
<circle cx="250.6" cy="180.007" r="25.0962" fill="#E9E46E"/>
<path d="M84.7471 295.668C87.2931 288.393 92.6033 273.408 93.4762 271.663L123.482 348.588L177.494 381.322L212.41 378.048C202.044 383.686 180.549 394.961 177.494 394.961C174.439 394.961 131.12 367.683 109.843 354.043L84.7471 295.668Z" fill="#E9E46E"/>
<path d="M415.361 295.668C412.815 288.393 407.505 273.409 406.632 271.663L376.626 348.588L322.615 381.322L287.698 378.049C298.064 383.686 319.559 394.961 322.615 394.961C325.67 394.961 368.988 367.683 390.265 354.044L415.361 295.668Z" fill="#E9E46E"/>
<path d="M139.375 209.125L62.5 162.875L58.125 169.125L116.875 232.25L139.375 209.125Z" fill="#BCB736"/>
<path d="M104.375 241L58.125 181.625V192.25C68.75 215.792 90.125 263.375 90.625 265.375C91.125 267.375 100 249.958 104.375 241Z" fill="#BCB736"/>
<path d="M361.875 209.125L438.75 162.875L443.125 169.125L384.375 232.25L361.875 209.125Z" fill="#BCB736"/>
<path d="M396.875 241L443.125 181.625V192.25C432.5 215.792 411.125 263.375 410.625 265.375C410.125 267.375 401.25 249.958 396.875 241Z" fill="#BCB736"/>
</svg>
