<svg width="400" height="400" viewBox="0 0 400 400" fill="none" xmlns="http://www.w3.org/2000/svg">
<g clip-path="url(#clip0_135_520)">
<path d="M197.667 9.249C198.868 7.76361 201.132 7.7636 202.333 9.249L240.379 56.3142C243.114 59.6982 247.587 61.1516 251.789 60.0218L310.233 44.3079C312.078 43.8119 313.91 45.143 314.008 47.0505L317.123 107.49C317.347 111.835 320.112 115.64 324.176 117.196L380.694 138.836C382.478 139.519 383.178 141.673 382.136 143.274L349.131 194.001C346.758 197.648 346.758 202.352 349.131 205.999L382.136 256.726C383.178 258.327 382.478 260.481 380.694 261.164L324.176 282.804C320.112 284.36 317.347 288.165 317.123 292.51L314.008 352.949C313.91 354.857 312.078 356.188 310.233 355.692L251.789 339.978C247.587 338.848 243.114 340.302 240.379 343.686L202.333 390.751C201.132 392.236 198.868 392.236 197.667 390.751L159.621 343.686C156.886 340.302 152.413 338.848 148.211 339.978L89.7669 355.692C87.9224 356.188 86.0902 354.857 85.9919 352.949L82.8766 292.51C82.6526 288.165 79.888 284.36 75.8244 282.804L19.306 261.164C17.5222 260.481 16.8224 258.327 17.8641 256.726L50.869 205.999C53.242 202.352 53.242 197.648 50.869 194.001L17.8641 143.274C16.8224 141.673 17.5222 139.519 19.306 138.836L75.8244 117.196C79.888 115.64 82.6526 111.835 82.8766 107.49L85.9919 47.0505C86.0902 45.1431 87.9223 43.8119 89.7669 44.3079L148.211 60.0218C152.413 61.1516 156.886 59.6982 159.621 56.3142L197.667 9.249Z" fill="#BCB736" stroke="#4A4242" stroke-width="8"/>
</g>
<defs>
<clipPath id="clip0_135_520">
<rect width="400" height="400" fill="white"/>
</clipPath>
</defs>
</svg>
