<svg width="400" height="400" viewBox="0 0 400 400" fill="none" xmlns="http://www.w3.org/2000/svg">
<g clip-path="url(#clip0_147_60)">
<path d="M42.9416 91.9716L21.5864 35.533C20.7332 33.2778 22.9605 31.0807 25.2037 31.9648L80.9716 53.9416L91.2158 79.6223L108.477 90.9892C108.336 93.3749 108.982 96.9393 108.757 97.1638C108.533 97.3884 285.295 273.889 373.704 362.111L379.317 369.969C379.224 372.776 378.924 378.558 378.475 379.231C378.026 379.905 374.359 384.19 372.581 386.248L363.46 391.44L356.443 388.914L86.7252 119.196C84.3395 119.056 81.3645 118.55 80.6909 118.775C80.0173 118.999 69.745 101.093 69.745 101.093L42.9416 91.9716Z" fill="black" fill-opacity="0.5"/>
<rect x="75.4985" y="104.321" width="25.0059" height="405.651" rx="12.5029" transform="rotate(-45 75.4985 104.321)" fill="black" fill-opacity="0.5"/>
<path d="M81.9536 115.828L71.148 98.5672L87.7072 82.008L104.968 92.8136L103.424 103.9L93.1802 114.144L81.9536 115.828Z" fill="black" fill-opacity="0.5"/>
<path d="M45.6076 89.5861L98.3724 108.671L78.8663 56.3274L26.4952 34.7474C25.1964 34.2122 23.8935 35.5033 24.4169 36.8069L45.6076 89.5861Z" fill="black" fill-opacity="0.5"/>
<path d="M75.0772 60.397L31.1533 42.0136L59.0794 83.9728L95.0044 105.865L96.969 95.1994L85.0408 85.2358L75.0772 60.397Z" fill="black" fill-opacity="0.5"/>
<path d="M95.0045 105.865L31.0131 41.8733L50.5192 85.7972L75.0773 95.7608L85.1812 108.671L95.0045 105.865Z" fill="black" fill-opacity="0.5"/>
<path d="M187.059 202.395L187.914 209.921L168.646 189.228L155.297 171.735L144.184 160.588L134.452 148.261L123.174 128.999C126.123 131.984 133.288 139.348 138.365 144.919C144.711 151.882 139.516 143.936 139.746 143.739C139.93 143.582 147.845 150.581 151.78 154.1C157.895 161.26 170.089 175.07 172.395 177.77C186.665 194.476 206.163 214.973 208.661 216.967C210.661 218.562 202.743 204.134 206.229 206.661L220.498 223.368L241.837 242.292L249.992 251.838L260.184 263.772L274.257 276.519C280.537 282.162 293.505 293.927 295.135 295.836L311.444 314.929L313.646 325.432L306.84 318.862C310.227 324.225 321.248 341.357 318.578 337.731C311.114 327.594 300.384 316.12 294.115 309.091L281.194 295.361L274.815 292.553L258.967 273.067L243.777 257.147C241.19 256.604 235.925 255.598 235.556 255.912C235.188 256.227 220.3 238.672 212.902 229.856L187.059 202.395Z" fill="black" fill-opacity="0.5"/>
<path d="M42.6706 80.7006L21.3155 24.262C20.4622 22.0069 22.6895 19.8097 24.9328 20.6938L80.7006 42.6706L90.9448 68.3513L108.206 79.7182C108.065 82.1039 108.711 85.6683 108.486 85.8928C108.262 86.1174 285.024 262.618 373.433 350.84L379.046 358.698C378.953 361.505 378.653 367.287 378.204 367.96C377.755 368.634 374.088 372.919 372.31 374.977L363.189 380.169L356.172 377.643L86.4542 107.925C84.0685 107.785 81.0935 107.279 80.4199 107.504C79.7463 107.729 69.474 89.8221 69.474 89.8221L42.6706 80.7006Z" fill="#200707"/>
<rect x="75.2275" y="93.0499" width="25.0059" height="405.651" rx="12.5029" transform="rotate(-45 75.2275 93.0499)" fill="#3D1919"/>
<path d="M81.6826 104.557L70.8771 87.2962L87.4362 70.7371L104.697 81.5426L103.153 92.6288L92.9092 102.873L81.6826 104.557Z" fill="#70692C"/>
<path d="M45.3366 78.3151L98.1014 97.4003L78.5953 45.0564L26.2242 23.4764C24.9254 22.9412 23.6226 24.2323 24.1459 25.5359L45.3366 78.3151Z" fill="#70692C"/>
<path d="M74.8062 49.126L30.8823 30.7426L58.8084 72.7018L94.7334 94.5936L96.698 83.9284L84.7698 73.9648L74.8062 49.126Z" fill="#D6D045"/>
<path d="M94.7335 94.5937L30.7421 30.6023L50.2482 74.5262L74.8063 84.4898L84.9102 97.4003L94.7335 94.5937Z" fill="#BCB736"/>
<path d="M186.788 191.124L187.643 198.65L168.375 177.957L155.026 160.464L143.913 149.317L134.181 136.99L122.903 117.728C125.852 120.713 133.017 128.077 138.094 133.648C144.44 140.611 139.245 132.665 139.475 132.468C139.659 132.311 147.574 139.31 151.509 142.829C157.624 149.989 169.818 163.799 172.124 166.499C186.394 183.205 205.892 203.702 208.39 205.696C210.39 207.291 202.472 192.863 205.958 195.39L220.227 212.097L241.566 231.021L249.721 240.567L259.913 252.501L273.986 265.248C280.266 270.891 293.234 282.656 294.864 284.565L311.173 303.658L313.375 314.161L306.569 307.591C309.956 312.954 320.977 330.086 318.307 326.46C310.843 316.323 300.113 304.849 293.844 297.82L280.923 284.09L274.544 281.282L258.696 261.796L243.506 245.876C240.919 245.333 235.654 244.327 235.285 244.641C234.917 244.956 220.029 227.401 212.631 218.585L186.788 191.124Z" fill="#472C2C"/>
</g>
<defs>
<clipPath id="clip0_147_60">
<rect width="400" height="400" fill="white"/>
</clipPath>
</defs>
</svg>
