<svg width="501" height="501" viewBox="0 0 501 501" fill="none" xmlns="http://www.w3.org/2000/svg">
<path d="M397.103 468.431L394.874 451.715L331.352 381.507L321.323 382.621L307.95 394.88C298.291 397.851 302.532 396.471 294.577 394.88C289.005 393.765 278.975 408.652 267.831 411.596H241.085L204.309 387.079L222.14 361.447L254.458 373.706C263.002 372.591 263.373 372.591 267.831 372.591C272.288 372.591 274.517 361.447 277.86 353.646L260.03 342.502L275.632 331.358L39.375 100.673L46.0615 5.94775L127.414 33.8082L336.925 285.667L352.526 272.294L359.213 290.124L368.128 287.896L373.7 275.637V246.662L404.904 238.861L417.163 266.722L411.591 290.124C410.476 304.612 409.728 304.191 408.247 307.555C402.675 320.214 391.531 335.416 377.044 340.988L372.586 348.074L433.879 414.54L445.023 422.74L455.053 427.198L459.511 437.228L446.138 469.546L438.337 477.347L397.103 468.431Z" fill="#1C0D0D"/>
<path d="M337.572 383.105C329.244 374.282 329.645 360.378 338.468 352.049V352.049C347.292 343.721 361.196 344.122 369.525 352.945L437.316 424.765C445.644 433.589 445.243 447.493 436.419 455.822V455.822C427.596 464.15 413.692 463.749 405.363 454.925L337.572 383.105Z" fill="#3D1919"/>
<path d="M399.332 462.459V446.858L432.765 423.455L452.824 430.141V440.171C452.824 444.629 449.481 450.201 447.252 455.773C445.023 461.345 440.565 465.803 439.451 470.26C438.56 473.827 430.907 471.746 427.192 470.26L403.79 465.803L399.332 462.459Z" fill="#3D1919"/>
<path d="M364.785 391.536L349.183 393.765L344.726 383.736L349.183 375.935L344.726 370.363L346.954 364.79L361.442 356.99C362.556 358.475 365.008 362.116 365.9 364.79C367.014 368.134 371.472 364.79 372.586 364.79C373.478 364.79 378.901 368.505 381.501 370.363C381.501 373.706 382.616 380.246 382.616 381.507C382.616 389.308 388.188 399.337 390.417 400.452C392.2 401.343 404.533 395.623 408.247 397.109V404.909L422.735 414.939V419.397V424.969L431.65 431.656C435.736 434.627 443.909 440.794 443.909 441.685V450.601L424.964 453.944L421.62 450.601C418.277 452.829 408.166 459.996 409.362 458.402C412.705 453.944 410.105 448.372 409.362 445.029L406.019 438.342L394.874 436.113L397.103 427.198L392.646 419.397C386.702 418.654 374.369 417.168 372.586 417.168C370.803 417.168 371.1 408.996 371.472 404.909L364.785 391.536Z" fill="#472C2C"/>
<path d="M334.12 376.074L319.657 376.908L311.077 382.984L303.802 392.333L288.034 389.894L276.373 400.613L265.696 409.042C258.889 410.667 246.391 408.326 241.454 407.346C241.651 407.558 241.692 407.654 241.555 407.614C238.386 406.701 238.938 406.847 241.454 407.346C239.191 404.915 216.372 387.238 208.767 385.964L224.369 364.996L251.013 378.046L274.834 373.911L285.789 350.954L268.945 342.933L351.412 278.98L355.155 295.606L369.618 294.772L378.733 278.619L377.065 249.692L403.446 242.589L411.661 268.906L406.333 292.655C405.827 296.777 404.42 305.937 402.845 309.6C401.27 313.263 394.65 322.352 385.214 332.942L371.864 333.712L366.814 342.933L367.327 351.834L334.12 376.074Z" fill="#3D1919"/>
<path d="M334.12 376.074L319.657 376.908L311.077 382.984L303.802 392.333L288.034 389.894L276.373 400.613L265.696 409.042C258.889 410.667 246.391 408.326 241.454 407.346C241.651 407.558 241.692 407.654 241.555 407.614C238.386 406.701 238.938 406.847 241.454 407.346C239.191 404.915 216.372 387.238 208.767 385.964L224.369 364.996L251.013 378.046L274.834 373.911L285.789 350.954L268.945 342.933L351.412 278.98L355.155 295.606L369.618 294.772L378.733 278.619L377.065 249.692L403.446 242.589L411.661 268.906L406.333 292.655C405.827 296.777 404.42 305.937 402.845 309.6C401.27 313.263 394.65 322.352 385.214 332.942L371.864 333.712L366.814 342.933L367.327 351.834L334.12 376.074Z" fill="#3D1919"/>
<path d="M46.2194 98.8508L293.606 339.377L325.959 343.468L344.232 327.105L338.284 293.412L122.565 37.945L50.404 12.8262L46.2194 98.8508Z" fill="#70692C"/>
<path d="M329.721 327.948C325.29 326.733 302.071 328.211 298.526 327.239L58.7498 97.125L60.6248 29.6249L118.75 50.25L332.532 302.374L329.721 327.948Z" fill="#BCB736"/>
<path d="M118.75 50.2499L60.6255 29.6249L83.8342 51.8377L327.327 328.978L330.508 304.566L118.75 50.2499Z" fill="#E9E46E"/>
</svg>
