<svg width="400" height="400" viewBox="0 0 400 400" fill="none" xmlns="http://www.w3.org/2000/svg">
<g clip-path="url(#clip0_147_147)">
<mask id="path-1-outside-1_147_147" maskUnits="userSpaceOnUse" x="48.7354" y="49.3776" width="360.624" height="360.624" fill="black">
<rect fill="white" x="48.7354" y="49.3776" width="360.624" height="360.624"/>
<path d="M72.3584 73.1308C80.7187 64.7704 94.2735 64.7704 102.634 73.1308L385.204 355.701C393.565 364.062 393.565 377.616 385.204 385.977V385.977C376.844 394.337 363.289 394.337 354.929 385.977L72.3584 103.406C63.9981 95.0458 63.9981 81.4911 72.3584 73.1308V73.1308Z"/>
</mask>
<path d="M72.3584 73.1308C80.7187 64.7704 94.2735 64.7704 102.634 73.1308L385.204 355.701C393.565 364.062 393.565 377.616 385.204 385.977V385.977C376.844 394.337 363.289 394.337 354.929 385.977L72.3584 103.406C63.9981 95.0458 63.9981 81.4911 72.3584 73.1308V73.1308Z" fill="#3D1919"/>
<path d="M72.3584 103.406L76.4869 99.2777L72.3584 103.406ZM354.929 385.977L350.8 390.105L354.929 385.977ZM102.634 73.1308L98.5054 77.2592L102.634 73.1308ZM98.5054 77.2592L381.076 359.83L389.333 351.573L106.762 69.0023L98.5054 77.2592ZM359.057 381.848L76.4869 99.2777L68.23 107.535L350.8 390.105L359.057 381.848ZM76.4869 99.2777C70.4067 93.1975 70.4067 83.3394 76.4869 77.2592L68.23 69.0023C57.5895 79.6427 57.5896 96.8942 68.23 107.535L76.4869 99.2777ZM381.076 381.848C374.996 387.928 365.138 387.928 359.057 381.848L350.8 390.105C361.441 400.745 378.692 400.745 389.333 390.105L381.076 381.848ZM381.076 359.83C387.156 365.91 387.156 375.768 381.076 381.848L389.333 390.105C399.973 379.465 399.973 362.213 389.333 351.573L381.076 359.83ZM106.762 69.0023C96.1219 58.3619 78.8704 58.3619 68.23 69.0023L76.4869 77.2592C82.5671 71.179 92.4251 71.179 98.5054 77.2592L106.762 69.0023Z" fill="#200707" mask="url(#path-1-outside-1_147_147)"/>
<mask id="path-3-outside-2_147_147" maskUnits="userSpaceOnUse" x="-3.77044" y="-2.67363" width="295.571" height="295.571" fill="black">
<rect fill="white" x="-3.77044" y="-2.67363" width="295.571" height="295.571"/>
<path fill-rule="evenodd" clip-rule="evenodd" d="M103.215 65.7033L63.8124 105.106L69.4579 113.18L69.4888 113.211L38.2401 144.46L40.7513 153.382L46.749 159.38L35.7104 170.419L35.9653 178.916L40.0096 182.96L39.539 183.431C37.2589 185.711 37.2589 189.408 39.539 191.688L40.7717 192.92L37.5604 196.132C37.3071 196.385 37.3071 196.796 37.5604 197.049L85.5679 245.057C85.8212 245.31 86.232 245.31 86.4853 245.057L89.6966 241.845L90.9133 243.062C93.1934 245.342 96.8901 245.342 99.1702 243.062L99.6408 242.591L103.13 246.081L112.199 246.907L123.237 235.868L128.489 241.12L138.157 244.377L169.406 213.128L174.744 218.466L183.713 225.007L223.116 185.604L216.778 176.432L211.44 171.094L242.155 140.38L239.432 130.178L234.18 124.926L245.91 113.196L245.771 103.441L242.281 99.9512L242.29 99.942C244.57 97.6619 244.57 93.9651 242.29 91.685L241.074 90.4683L244.057 87.4849C244.31 87.2315 244.31 86.8208 244.057 86.5675L196.05 38.56C195.796 38.3066 195.385 38.3066 195.132 38.56L192.149 41.5434L190.916 40.3108C188.636 38.0307 184.939 38.0307 182.659 40.3108L182.65 40.32L178.606 36.2757L169.421 36.7076L157.691 48.4374L151.694 42.4397L142.237 40.4627L111.523 71.1773L111.492 71.1464L103.215 65.7033Z"/>
</mask>
<path fill-rule="evenodd" clip-rule="evenodd" d="M103.215 65.7033L63.8124 105.106L69.4579 113.18L69.4888 113.211L38.2401 144.46L40.7513 153.382L46.749 159.38L35.7104 170.419L35.9653 178.916L40.0096 182.96L39.539 183.431C37.2589 185.711 37.2589 189.408 39.539 191.688L40.7717 192.92L37.5604 196.132C37.3071 196.385 37.3071 196.796 37.5604 197.049L85.5679 245.057C85.8212 245.31 86.232 245.31 86.4853 245.057L89.6966 241.845L90.9133 243.062C93.1934 245.342 96.8901 245.342 99.1702 243.062L99.6408 242.591L103.13 246.081L112.199 246.907L123.237 235.868L128.489 241.12L138.157 244.377L169.406 213.128L174.744 218.466L183.713 225.007L223.116 185.604L216.778 176.432L211.44 171.094L242.155 140.38L239.432 130.178L234.18 124.926L245.91 113.196L245.771 103.441L242.281 99.9512L242.29 99.942C244.57 97.6619 244.57 93.9651 242.29 91.685L241.074 90.4683L244.057 87.4849C244.31 87.2315 244.31 86.8208 244.057 86.5675L196.05 38.56C195.796 38.3066 195.385 38.3066 195.132 38.56L192.149 41.5434L190.916 40.3108C188.636 38.0307 184.939 38.0307 182.659 40.3108L182.65 40.32L178.606 36.2757L169.421 36.7076L157.691 48.4374L151.694 42.4397L142.237 40.4627L111.523 71.1773L111.492 71.1464L103.215 65.7033Z" fill="#70692C"/>
<path d="M63.8124 105.106L59.6839 100.978L56.2221 104.439L59.0274 108.452L63.8124 105.106ZM103.215 65.7033L106.423 60.8251L102.45 58.2119L99.0866 61.5748L103.215 65.7033ZM69.4579 113.18L64.6729 116.526L64.9668 116.946L65.3294 117.309L69.4579 113.18ZM69.4888 113.211L73.6172 117.34L77.7457 113.211L73.6172 109.083L69.4888 113.211ZM38.2401 144.46L34.1116 140.332L31.6933 142.75L32.6199 146.042L38.2401 144.46ZM40.7513 153.382L35.1312 154.964L35.5444 156.432L36.6228 157.511L40.7513 153.382ZM46.749 159.38L50.8775 163.508L55.006 159.38L50.8775 155.251L46.749 159.38ZM35.7104 170.419L31.5819 166.29L29.7988 168.073L29.8745 170.594L35.7104 170.419ZM35.9653 178.916L30.1294 179.091L30.1989 181.406L31.8369 183.044L35.9653 178.916ZM40.0096 182.96L44.1381 187.089L48.2666 182.96L44.1381 178.832L40.0096 182.96ZM40.7717 192.92L44.9001 197.049L49.0286 192.92L44.9001 188.792L40.7717 192.92ZM89.6966 241.845L93.8251 237.717L89.6966 233.588L85.5681 237.717L89.6966 241.845ZM99.6408 242.591L103.769 238.463L99.6408 234.335L95.5124 238.463L99.6408 242.591ZM103.13 246.081L99.0019 250.209L100.496 251.704L102.601 251.895L103.13 246.081ZM112.199 246.907L111.669 252.721L114.393 252.969L116.327 251.035L112.199 246.907ZM123.237 235.868L127.366 231.74L123.237 227.611L119.109 231.74L123.237 235.868ZM128.489 241.12L124.361 245.249L125.329 246.216L126.625 246.653L128.489 241.12ZM138.157 244.377L136.293 249.91L139.725 251.066L142.286 248.506L138.157 244.377ZM169.406 213.128L173.534 209L169.406 204.872L165.277 209L169.406 213.128ZM174.744 218.466L170.615 222.595L170.936 222.916L171.304 223.184L174.744 218.466ZM183.713 225.007L180.273 229.724L184.309 232.667L187.841 229.135L183.713 225.007ZM223.116 185.604L227.244 189.732L230.687 186.29L227.919 182.285L223.116 185.604ZM216.778 176.432L221.581 173.113L221.28 172.678L220.906 172.304L216.778 176.432ZM211.44 171.094L207.311 166.966L203.183 171.094L207.311 175.223L211.44 171.094ZM242.155 140.38L246.283 144.508L248.664 142.127L247.796 138.874L242.155 140.38ZM239.432 130.178L245.073 128.672L244.669 127.158L243.56 126.049L239.432 130.178ZM234.18 124.926L230.051 120.797L225.923 124.926L230.051 129.054L234.18 124.926ZM245.91 113.196L250.038 117.324L251.783 115.58L251.747 113.113L245.91 113.196ZM245.771 103.441L251.609 103.358L251.575 100.988L249.899 99.3123L245.771 103.441ZM242.281 99.9512L238.153 95.8228L234.024 99.9512L238.153 104.08L242.281 99.9512ZM241.074 90.4683L236.945 86.3399L232.817 90.4683L236.945 94.5968L241.074 90.4683ZM192.149 41.5434L188.02 45.6719L192.149 49.8003L196.277 45.6719L192.149 41.5434ZM182.65 40.32L178.521 44.4485L182.65 48.5769L186.778 44.4485L182.65 40.32ZM178.606 36.2757L182.734 32.1472L180.909 30.3224L178.331 30.4436L178.606 36.2757ZM169.421 36.7076L169.147 30.8755L166.89 30.9816L165.293 32.5791L169.421 36.7076ZM157.691 48.4374L153.563 52.5659L157.691 56.6944L161.82 52.5659L157.691 48.4374ZM151.694 42.4397L155.822 38.3113L154.592 37.0809L152.889 36.7248L151.694 42.4397ZM142.237 40.4627L143.432 34.7478L140.342 34.1016L138.109 36.3343L142.237 40.4627ZM111.523 71.1773L107.394 75.3058L111.523 79.4342L115.651 75.3058L111.523 71.1773ZM111.492 71.1464L115.62 67.0179L115.199 66.596L114.7 66.2682L111.492 71.1464ZM67.9408 109.235L107.344 69.8318L99.0866 61.5748L59.6839 100.978L67.9408 109.235ZM74.2428 109.835L68.5973 101.76L59.0274 108.452L64.6729 116.526L74.2428 109.835ZM73.6172 109.083L73.5863 109.052L65.3294 117.309L65.3603 117.34L73.6172 109.083ZM42.3685 148.589L73.6172 117.34L65.3603 109.083L34.1116 140.332L42.3685 148.589ZM46.3715 151.8L43.8602 142.878L32.6199 146.042L35.1312 154.964L46.3715 151.8ZM50.8775 155.251L44.8798 149.254L36.6228 157.511L42.6206 163.508L50.8775 155.251ZM39.8388 174.547L50.8775 163.508L42.6206 155.251L31.5819 166.29L39.8388 174.547ZM41.8012 178.741L41.5463 170.243L29.8745 170.594L30.1294 179.091L41.8012 178.741ZM44.1381 178.832L40.0938 174.787L31.8369 183.044L35.8812 187.089L44.1381 178.832ZM43.6675 187.559L44.1381 187.089L35.8812 178.832L35.4106 179.302L43.6675 187.559ZM43.6675 187.559L43.6675 187.559L35.4106 179.302C30.8504 183.863 30.8504 191.256 35.4106 195.816L43.6675 187.559ZM44.9001 188.792L43.6675 187.559L35.4106 195.816L36.6432 197.049L44.9001 188.792ZM41.6889 200.26L44.9001 197.049L36.6432 188.792L33.4319 192.003L41.6889 200.26ZM41.6889 192.921C43.7156 194.947 43.7156 198.233 41.6889 200.26L33.4319 192.003C30.8985 194.537 30.8985 198.644 33.4319 201.178L41.6889 192.921ZM89.6963 240.928L41.6889 192.921L33.4319 201.178L81.4394 249.185L89.6963 240.928ZM82.3569 240.928C84.3836 238.901 87.6696 238.901 89.6963 240.928L81.4394 249.185C83.9729 251.719 88.0804 251.718 90.6138 249.185L82.3569 240.928ZM85.5681 237.717L82.3569 240.928L90.6138 249.185L93.8251 245.974L85.5681 237.717ZM95.0418 238.934L93.8251 237.717L85.5681 245.974L86.7848 247.191L95.0418 238.934ZM95.0418 238.934L95.0418 238.934L86.7848 247.191C91.345 251.751 98.7385 251.751 103.299 247.191L95.0418 238.934ZM95.5124 238.463L95.0418 238.934L103.299 247.191L103.769 246.72L95.5124 238.463ZM107.259 241.953L103.769 238.463L95.5124 246.72L99.0019 250.209L107.259 241.953ZM112.728 241.092L103.66 240.267L102.601 251.895L111.669 252.721L112.728 241.092ZM119.109 231.74L108.07 242.778L116.327 251.035L127.366 239.997L119.109 231.74ZM132.618 236.992L127.366 231.74L119.109 239.997L124.361 245.249L132.618 236.992ZM140.021 238.844L130.353 235.587L126.625 246.653L136.293 249.91L140.021 238.844ZM165.277 209L134.029 240.249L142.286 248.506L173.534 217.257L165.277 209ZM178.872 214.338L173.534 209L165.277 217.257L170.615 222.595L178.872 214.338ZM187.153 220.289L178.184 213.749L171.304 223.184L180.273 229.724L187.153 220.289ZM218.987 181.475L179.584 220.878L187.841 229.135L227.244 189.732L218.987 181.475ZM211.974 179.751L218.312 188.923L227.919 182.285L221.581 173.113L211.974 179.751ZM207.311 175.223L212.649 180.561L220.906 172.304L215.568 166.966L207.311 175.223ZM238.026 136.251L207.311 166.966L215.568 175.223L246.283 144.508L238.026 136.251ZM233.791 131.683L236.513 141.885L247.796 138.874L245.073 128.672L233.791 131.683ZM230.051 129.054L235.303 134.306L243.56 126.049L238.308 120.797L230.051 129.054ZM241.781 109.067L230.051 120.797L238.308 129.054L250.038 117.324L241.781 109.067ZM239.933 103.524L240.072 113.279L251.747 113.113L251.609 103.358L239.933 103.524ZM238.153 104.08L241.642 107.569L249.899 99.3123L246.41 95.8228L238.153 104.08ZM238.162 95.8135L238.153 95.8228L246.41 104.08L246.419 104.07L238.162 95.8135ZM238.162 95.8135V95.8135L246.419 104.07C250.979 99.5103 250.979 92.1168 246.419 87.5566L238.162 95.8135ZM236.945 94.5968L238.162 95.8135L246.419 87.5566L245.202 86.3399L236.945 94.5968ZM239.929 83.3564L236.945 86.3399L245.202 94.5968L248.186 91.6133L239.929 83.3564ZM239.929 90.6959C237.902 88.6693 237.902 85.3833 239.929 83.3564L248.186 91.6133C250.719 89.0798 250.719 84.9723 248.185 82.439L239.929 90.6959ZM191.921 42.6884L239.929 90.6959L248.185 82.439L200.178 34.4315L191.921 42.6884ZM199.261 42.6884C197.234 44.7152 193.948 44.7152 191.921 42.6884L200.178 34.4315C197.645 31.8981 193.537 31.8981 191.004 34.4315L199.261 42.6884ZM196.277 45.6719L199.261 42.6884L191.004 34.4315L188.02 37.4149L196.277 45.6719ZM186.788 44.4392L188.02 45.6719L196.277 37.4149L195.045 36.1823L186.788 44.4392ZM186.788 44.4392V44.4392L195.045 36.1823C190.484 31.6221 183.091 31.6221 178.531 36.1823L186.788 44.4392ZM186.778 44.4485L186.788 44.4392L178.531 36.1823L178.521 36.1916L186.778 44.4485ZM174.477 40.4042L178.521 44.4485L186.778 36.1916L182.734 32.1472L174.477 40.4042ZM169.696 42.5397L178.88 42.1078L178.331 30.4436L169.147 30.8755L169.696 42.5397ZM161.82 52.5659L173.55 40.8361L165.293 32.5791L153.563 44.309L161.82 52.5659ZM147.565 46.5682L153.563 52.5659L161.82 44.309L155.822 38.3113L147.565 46.5682ZM141.043 46.1777L150.499 48.1547L152.889 36.7248L143.432 34.7478L141.043 46.1777ZM115.651 75.3058L146.366 44.5912L138.109 36.3343L107.394 67.0488L115.651 75.3058ZM107.363 75.2749L107.394 75.3058L115.651 67.0488L115.62 67.0179L107.363 75.2749ZM100.007 70.5815L108.284 76.0246L114.7 66.2682L106.423 60.8251L100.007 70.5815Z" fill="#200707" mask="url(#path-3-outside-2_147_147)"/>
<path fill-rule="evenodd" clip-rule="evenodd" d="M147.247 51.9914L48.4169 150.821L50.0229 158.519L54.4121 162.909L44.2182 173.103L43.6898 180.386L65.3542 209.683L95.5287 232.225L103.253 232.137L113.447 221.943L121.424 229.92L129.729 232.133L228.559 133.303L226.853 124.49L218.877 116.514L229.981 105.409L230.72 97.0335L207.994 67.0431L178.881 45.1946L170.947 46.374L159.842 57.4789L155.453 53.0897L147.247 51.9914Z" fill="#BCB736"/>
<path d="M183.876 184.876C192.249 176.504 205.823 176.504 214.196 184.876L385.088 355.769C393.461 364.141 393.461 377.716 385.088 386.088V386.088C376.716 394.461 363.141 394.461 354.769 386.088L183.876 215.196C175.504 206.823 175.504 193.249 183.876 184.876V184.876Z" fill="#3D1919"/>
<path d="M192.145 193.145C196.712 188.578 204.117 188.578 208.683 193.145L376.82 361.281C381.387 365.848 381.387 373.253 376.82 377.819V377.819C372.253 382.386 364.849 382.386 360.282 377.819L192.145 209.683C187.579 205.116 187.579 197.712 192.145 193.145V193.145Z" fill="#472C2C"/>
<path d="M207.994 67.0428L65.3542 209.683L43.035 180.1L43.8642 172.443L54.1181 162.189L50.0216 158.092L48.7659 150.472L147.062 52.1757L154.683 53.4313L159.462 58.2107L171.13 46.5424L178.866 45.1788L207.994 67.0428Z" fill="#E9E46E"/>
</g>
<defs>
<clipPath id="clip0_147_147">
<rect width="400" height="400" fill="white"/>
</clipPath>
</defs>
</svg>
