<svg width="501" height="501" viewBox="0 0 501 501" fill="none" xmlns="http://www.w3.org/2000/svg">
<path d="M250.375 50.375L391.796 108.954L450.375 250.375L391.796 391.796L250.375 450.375L108.954 391.796L50.375 250.375L108.954 108.954L250.375 50.375Z" fill="#3A3921"/>
<path d="M250.375 62.875L382.958 117.792L437.875 250.375L382.958 382.958L250.375 437.875L117.792 382.958L62.875 250.375L117.792 117.792L250.375 62.875Z" fill="#70692C"/>
<path d="M250.375 98.5L347.998 134.032L399.943 224.002L381.903 326.312L302.319 393.091H198.431L118.847 326.312L100.807 224.002L152.752 134.032L250.375 98.5Z" fill="#BCB736"/>
<path d="M250.375 150.062L321.307 179.443L350.688 250.375L321.307 321.307L250.375 350.688L179.443 321.307L150.062 250.375L179.443 179.443L250.375 150.062Z" fill="#D6D045"/>
<path fill-rule="evenodd" clip-rule="evenodd" d="M176.01 176.01C166.857 185.163 166.857 200.003 176.01 209.156L216.958 250.104L175.039 292.024C165.886 301.176 165.886 316.016 175.039 325.169C184.191 334.322 199.031 334.322 208.184 325.169L250.104 283.249L292.02 325.166C301.173 334.319 316.013 334.319 325.166 325.166C334.319 316.013 334.319 301.173 325.166 292.02L283.249 250.104L324.194 209.159C333.347 200.007 333.347 185.167 324.194 176.014C315.041 166.861 300.201 166.861 291.048 176.014L250.104 216.958L209.156 176.01C200.003 166.857 185.163 166.857 176.01 176.01Z" fill="#70692C"/>
<path fill-rule="evenodd" clip-rule="evenodd" d="M191.847 191.846C185.412 198.281 185.412 208.714 191.847 215.149L226.801 250.104L191.846 285.058C185.412 291.493 185.412 301.926 191.846 308.361C198.281 314.796 208.715 314.796 215.149 308.361L250.104 273.407L285.059 308.361C291.493 314.796 301.927 314.796 308.362 308.361C314.796 301.926 314.796 291.493 308.362 285.058L273.407 250.104L308.361 215.149C314.796 208.714 314.796 198.281 308.361 191.846C301.926 185.411 291.493 185.411 285.058 191.846L250.104 226.801L215.15 191.846C208.715 185.411 198.282 185.411 191.847 191.846Z" fill="#D6D045"/>
</svg>
