<svg width="1001" height="1001" viewBox="0 0 1001 1001" fill="none" xmlns="http://www.w3.org/2000/svg">
<path d="M500.25 100.25L783.093 217.407L900.25 500.25L783.093 783.093L500.25 900.25L217.407 783.093L100.25 500.25L217.407 217.407L500.25 100.25Z" fill="#3A3921"/>
<path d="M500.25 125.25L765.415 235.085L875.25 500.25L765.415 765.415L500.25 875.25L235.085 765.415L125.25 500.25L235.085 235.085L500.25 125.25Z" fill="#70692C"/>
<path d="M500.25 196.5L695.497 267.564L799.385 447.504L763.305 652.125L604.139 785.682H396.361L237.195 652.125L201.115 447.504L305.003 267.564L500.25 196.5Z" fill="#BCB736"/>
<path d="M500.25 299.625L642.113 358.387L700.875 500.25L642.113 642.113L500.25 700.875L358.387 642.113L299.625 500.25L358.387 358.387L500.25 299.625Z" fill="#D6D045"/>
<path fill-rule="evenodd" clip-rule="evenodd" d="M351.52 351.521C333.215 369.826 333.215 399.506 351.52 417.812L433.416 499.708L349.577 583.547C331.271 601.853 331.271 631.532 349.577 649.838C367.883 668.144 397.562 668.144 415.868 649.838L499.707 565.999L583.54 649.831C601.846 668.137 631.525 668.137 649.831 649.831C668.137 631.525 668.137 601.846 649.831 583.54L565.999 499.708L647.888 417.819C666.193 399.513 666.193 369.833 647.888 351.528C629.582 333.222 599.902 333.222 581.596 351.528L499.707 433.416L417.812 351.521C399.506 333.215 369.826 333.215 351.52 351.521Z" fill="#70692C"/>
<path fill-rule="evenodd" clip-rule="evenodd" d="M383.193 383.192C370.323 396.062 370.323 416.929 383.193 429.798L453.102 499.707L383.193 569.616C370.323 582.486 370.323 603.353 383.193 616.222C396.063 629.092 416.929 629.092 429.799 616.222L499.708 546.313L569.617 616.222C582.487 629.092 603.353 629.092 616.223 616.222C629.093 603.352 629.093 582.486 616.223 569.616L546.314 499.707L616.223 429.799C629.093 416.929 629.093 396.062 616.223 383.193C603.353 370.323 582.487 370.323 569.617 383.193L499.708 453.101L429.799 383.192C416.929 370.323 396.063 370.323 383.193 383.192Z" fill="#D6D045"/>
</svg>
