<svg width="400" height="400" viewBox="0 0 400 400" fill="none" xmlns="http://www.w3.org/2000/svg">
<g clip-path="url(#clip0_102_50)">
<path d="M342.408 83.1769C351.947 86.7636 357.658 96.5544 356.083 106.623L333.727 249.591C332.911 254.804 330.207 259.535 326.13 262.884L214.301 354.72C206.425 361.188 195.091 361.238 187.158 354.84L74.5232 263.995C70.4159 260.682 67.6703 255.975 66.8091 250.769L43.1911 108.004C41.5278 97.95 47.1516 88.1092 56.6586 84.4384L191.65 32.316C196.573 30.4154 202.022 30.3913 206.961 32.2484L342.408 83.1769Z" fill="#BCB736" stroke="#70692C" stroke-width="35"/>
<path d="M339.042 100.851L315.989 248.271L200.678 342.968L84.5345 249.293L60.181 102.082L199.377 48.3366L339.042 100.851Z" fill="#D6D045"/>
<path d="M315.909 248.612L339.012 101.474L246 197L201.754 343.354L315.909 248.612Z" fill="#BCB736"/>
<path d="M340.071 101.598L200.536 125.5L60.414 102.3L200.536 48.3155L340.071 101.598Z" fill="#E9E46E"/>
</g>
<defs>
<clipPath id="clip0_102_50">
<rect width="400" height="400" fill="white"/>
</clipPath>
</defs>
</svg>
