<svg width="400" height="400" viewBox="0 0 400 400" fill="none" xmlns="http://www.w3.org/2000/svg">
<path d="M172.217 187.338L331.139 360.219L345.098 369.883C350.825 371.673 356.91 378.473 360.131 378.473C364.933 378.473 371.943 378.115 377.312 376.326L390.197 358.071L389.124 340.89L211.947 152.976C201.209 141.151 194.198 127.824 196.914 119.675C199.062 113.232 203.357 114.306 211.947 108.937L234.497 98.2126L257.047 67.0725C240.582 46.6704 208.296 7.15474 206.578 8.01378C204.86 8.87282 199.062 10.8772 196.914 12.3089C180.807 27.7 146.446 68.1188 143.224 70.2801C135.889 75.202 133.571 72.427 128.229 66.03L128.191 65.985L117.453 63.8374C105.642 63.8374 98.125 70.2664 94.9036 72.4277C85.2395 86.3871 87.745 92.8299 88.4609 94.9774C91.038 99.2726 100.273 111.442 98.125 111.084C98.125 115.022 98.125 111.084 88.4609 121.836L74.5015 134.722L56.247 152.976C44.7932 176.958 22.7921 229.698 19.738 234.585C14.369 243.175 9 303.308 9 307.603C9 311.039 11.1476 318.699 11.1476 321.562L22.9593 314.046L85.2395 210.961L112.084 187.338L142.151 177.66L150.741 167.996L172.217 187.338Z" fill="#200707"/>
<rect x="86.5801" y="88.5503" width="42.3368" height="396.376" rx="21.1684" transform="rotate(-43.347 86.5801 88.5503)" fill="#3D1919"/>
<path d="M251.829 67.1465L207.803 11.3091C186.327 17.7519 125.478 96.8558 122.973 99.3603C118.678 103.656 100.424 116.541 95.0546 119.762C89.1588 123.3 65.5303 149.151 60.6931 155.198C56.3979 160.567 16.6676 246.47 16.6676 263.651C16.6676 280.832 10.225 294.791 16.6676 314.119L31.7006 289.422L51.029 253.987L80.0214 207.814L109.014 179.895L141.228 168.083L162.704 134.796L203.508 105.803L232.501 92.9175L251.829 67.1465Z" fill="#BCB736"/>
<path d="M226.014 70.0702L204.539 37.8564C187.287 42.1058 129.521 103.245 127.504 104.92C124.043 107.791 124.716 110.497 108.971 119.465C108.971 119.465 84.9526 141.189 81.052 145.236C77.5884 148.83 41.7338 203.43 41.6782 214.982C41.6227 226.535 36.4083 235.897 41.515 248.918L53.6566 232.369L69.2792 208.617L92.6906 177.681L116.043 159.019L141.928 151.201L159.267 128.901L192.099 109.563L214.203 92.6199L226.014 70.0702Z" fill="#E9E46E"/>
<path d="M149.088 162.554C142.12 144.473 142.449 130.31 150.002 123.181C157.554 116.052 171.713 116.541 189.362 124.54L215.634 192.715L149.088 162.554Z" fill="#3D1919"/>
</svg>
