<svg width="400" height="400" viewBox="0 0 400 400" fill="none" xmlns="http://www.w3.org/2000/svg">
<path d="M200 44L310.309 89.6913L356 200L310.309 310.309L200 356L89.6913 310.309L44 200L89.6913 89.6913L200 44Z" fill="#3A3921"/>
<path d="M200 49.9999L306.066 93.9339L350 200L306.066 306.066L200 350L93.9341 306.066L50.0001 200L93.9341 93.9339L200 49.9999Z" fill="#70692C"/>
<path d="M200 78.5L278.099 106.926L319.654 178.902L305.222 260.75L241.555 314.173H158.445L94.778 260.75L80.3459 178.902L121.901 106.926L200 78.5Z" fill="#BCB736"/>
<path d="M200 119.75L256.745 143.255L280.25 200L256.745 256.745L200 280.25L143.255 256.745L119.75 200L143.255 143.255L200 119.75Z" fill="#D6D045"/>
</svg>
