<svg width="400" height="400" viewBox="0 0 400 400" fill="none" xmlns="http://www.w3.org/2000/svg">
<path d="M317.183 374.045L315.399 360.672L264.582 304.505L256.558 305.397L245.86 315.204C238.133 317.581 241.526 316.477 235.161 315.204C230.704 314.312 222.68 326.222 213.765 328.577H192.368L162.947 308.963L177.212 288.458L203.066 298.265C209.901 297.373 210.198 297.373 213.765 297.373C217.331 297.373 219.114 288.458 221.788 282.217L207.524 273.302L220.005 264.386L31 79.8387L36.3492 4.05823L101.431 26.3466L269.04 227.833L281.521 217.135L286.87 231.399L294.003 229.616L298.46 219.81V196.63L323.423 190.389L333.23 212.677L328.772 231.399C327.881 242.989 327.283 242.653 326.098 245.344C321.64 255.471 312.725 267.633 301.135 272.09L297.569 277.759L346.603 330.932L355.519 337.492L363.542 341.058L367.108 349.082L356.41 374.937L350.169 381.177L317.183 374.045Z" fill="#1C0D0D"/>
<path d="M269.558 305.784C262.895 298.726 263.216 287.602 270.275 280.939C277.333 274.277 288.457 274.598 295.12 281.656L349.352 339.112C356.015 346.171 355.694 357.295 348.635 363.957C341.577 370.62 330.453 370.299 323.79 363.24L269.558 305.784Z" fill="#3D1919"/>
<path d="M318.966 369.268V356.786L345.712 338.064L361.759 343.413V351.437C361.759 355.003 359.085 359.461 357.302 363.918C355.519 368.376 351.953 371.942 351.061 375.508C350.348 378.361 344.226 376.697 341.254 375.508L322.532 371.942L318.966 369.268Z" fill="#3D1919"/>
<path d="M291.328 312.529L278.846 314.312L275.28 306.288L278.846 300.048L275.28 295.59L277.063 291.132L288.653 284.892C289.545 286.08 291.506 288.993 292.219 291.132C293.111 293.807 296.677 291.132 297.569 291.132C298.282 291.132 302.621 294.104 304.701 295.59C304.701 298.265 305.592 303.497 305.592 304.505C305.592 310.746 310.05 318.77 311.833 319.661C313.26 320.375 323.126 315.798 326.098 316.987V323.228L337.688 331.251V334.818V339.275L344.82 344.624C348.089 347.002 354.627 351.935 354.627 352.648V359.78L339.471 362.455L336.796 359.78C334.122 361.564 326.032 367.297 326.989 366.021C329.664 362.455 327.584 357.997 326.989 355.323L324.315 349.974L315.399 348.191L317.182 341.058L313.616 334.818C308.861 334.223 298.995 333.034 297.569 333.034C296.142 333.034 296.38 326.497 296.677 323.228L291.328 312.529Z" fill="#472C2C"/>
<path d="M266.796 300.159L255.225 300.826L248.361 305.687L242.542 313.167L229.927 311.215L220.598 319.79L212.057 326.534C206.611 327.834 196.612 325.961 192.663 325.177C192.82 325.346 192.853 325.423 192.744 325.391C190.209 324.661 190.65 324.777 192.663 325.177C190.853 323.232 172.597 309.09 166.513 308.071L178.995 291.297L200.31 301.737L219.366 298.429L228.131 280.063L214.656 273.647L280.63 222.484L283.624 235.785L295.194 235.118L302.486 222.195L301.152 199.053L322.257 193.371L328.829 214.425L324.566 233.424C324.161 236.722 323.036 244.05 321.776 246.98C320.516 249.91 315.22 257.181 307.671 265.654L296.99 266.269L292.951 273.647L293.361 280.767L266.796 300.159Z" fill="#3D1919"/>
<path d="M266.796 300.159L255.225 300.826L248.361 305.687L242.542 313.167L229.927 311.215L220.598 319.79L212.057 326.534C206.611 327.834 196.612 325.961 192.663 325.177C192.82 325.346 192.853 325.423 192.744 325.391C190.209 324.661 190.65 324.777 192.663 325.177C190.853 323.232 172.597 309.09 166.513 308.071L178.995 291.297L200.31 301.737L219.366 298.429L228.131 280.063L214.656 273.647L280.63 222.484L283.624 235.785L295.194 235.118L302.486 222.195L301.152 199.053L322.257 193.371L328.829 214.425L324.566 233.424C324.161 236.722 323.036 244.05 321.776 246.98C320.516 249.91 315.22 257.181 307.671 265.654L296.99 266.269L292.951 273.647L293.361 280.767L266.796 300.159Z" fill="#3D1919"/>
<path d="M36.4754 78.3806L234.385 270.802L260.267 274.075L274.885 260.984L270.127 234.03L97.5516 29.656L39.8231 9.5609L36.4754 78.3806Z" fill="#70692C"/>
<path d="M263.277 261.659C259.732 260.686 241.157 261.869 238.321 261.091L46.5 77L48.0001 23L94.5 39.5L265.526 241.199L263.277 261.659Z" fill="#BCB736"/>
<path d="M94.5 39.5L48 23L66.567 40.7703L261.361 262.482L263.906 242.953L94.5 39.5Z" fill="#E9E46E"/>
</svg>
