<svg width="501" height="501" viewBox="0 0 501 501" fill="none" xmlns="http://www.w3.org/2000/svg">
<g clip-path="url(#clip0_147_147)">
<mask id="path-1-outside-1_147_147" maskUnits="userSpaceOnUse" x="60.5872" y="62.1701" width="451.134" height="451.134" fill="black">
<rect fill="white" x="60.5872" y="62.1701" width="451.134" height="451.134"/>
<path d="M90.823 92.0383C101.273 81.5879 118.217 81.5879 128.667 92.0383L481.88 445.251C492.331 455.702 492.331 472.645 481.88 483.096V483.096C471.43 493.546 454.486 493.546 444.036 483.096L90.823 129.883C80.3726 119.432 80.3726 102.489 90.823 92.0383V92.0383Z"/>
</mask>
<path d="M90.823 92.0383C101.273 81.5879 118.217 81.5879 128.667 92.0383L481.88 445.251C492.331 455.702 492.331 472.645 481.88 483.096V483.096C471.43 493.546 454.486 493.546 444.036 483.096L90.823 129.883C80.3726 119.432 80.3726 102.489 90.823 92.0383V92.0383Z" fill="#3D1919"/>
<path d="M90.823 129.883L95.9836 124.722L90.823 129.883ZM444.036 483.096L438.875 488.256L444.036 483.096ZM481.88 445.251L476.72 450.412L481.88 445.251ZM128.667 92.0383L133.828 86.8777L128.667 92.0383ZM123.507 97.1989L476.72 450.412L487.041 440.091L133.828 86.8777L123.507 97.1989ZM449.197 477.935L95.9836 124.722L85.6624 135.043L438.875 488.256L449.197 477.935ZM95.9836 124.722C88.3833 117.122 88.3833 104.799 95.9836 97.1989L85.6624 86.8778C72.362 100.178 72.3619 121.743 85.6624 135.043L95.9836 124.722ZM476.72 477.935C469.119 485.535 456.797 485.535 449.197 477.935L438.875 488.256C452.176 501.557 473.74 501.557 487.041 488.256L476.72 477.935ZM476.72 450.412C484.32 458.012 484.32 470.335 476.72 477.935L487.041 488.256C500.341 474.956 500.341 453.391 487.041 440.091L476.72 450.412ZM133.828 86.8777C120.527 73.5772 98.9629 73.5773 85.6624 86.8778L95.9836 97.1989C103.584 89.5986 115.906 89.5986 123.507 97.1989L133.828 86.8777Z" fill="#200707" mask="url(#path-1-outside-1_147_147)"/>
<mask id="path-3-outside-2_147_147" maskUnits="userSpaceOnUse" x="-5.04564" y="-3.42445" width="370.524" height="370.524" fill="black">
<rect fill="white" x="-5.04564" y="-3.42445" width="370.524" height="370.524"/>
<path fill-rule="evenodd" clip-rule="evenodd" d="M129.393 82.7541L80.1397 132.008L87.1966 142.101L87.2357 142.14L48.1752 181.2L51.3143 192.353L58.811 199.849L45.0124 213.648L45.3311 224.27L50.3865 229.325L49.7983 229.914C46.9482 232.764 46.9482 237.385 49.7983 240.235L51.3393 241.776L47.3254 245.79C47.0087 246.106 47.0087 246.62 47.3254 246.936L107.335 306.946C107.651 307.262 108.165 307.262 108.482 306.946L112.495 302.932L114.016 304.453C116.866 307.303 121.487 307.303 124.337 304.453L124.925 303.864L129.287 308.226L140.623 309.258L154.421 295.46L160.987 302.025L173.072 306.096L212.132 267.036L218.804 273.708L230.015 281.883L279.269 232.63L271.346 221.165L264.675 214.493L303.068 176.1L299.665 163.347L293.099 156.782L307.761 142.12L307.588 129.926L303.226 125.564L303.237 125.552C306.087 122.702 306.087 118.081 303.237 115.231L301.717 113.711L305.446 109.981C305.763 109.664 305.763 109.151 305.446 108.834L245.437 48.825C245.12 48.5083 244.607 48.5083 244.29 48.825L240.561 52.5544L239.02 51.0134C236.169 48.1633 231.548 48.1633 228.698 51.0134L228.687 51.025L223.631 45.9696L212.151 46.5095L197.489 61.1715L189.992 53.6747L178.172 51.2034L139.778 89.5971L139.739 89.558L129.393 82.7541Z"/>
</mask>
<path fill-rule="evenodd" clip-rule="evenodd" d="M129.393 82.7541L80.1397 132.008L87.1966 142.101L87.2357 142.14L48.1752 181.2L51.3143 192.353L58.811 199.849L45.0124 213.648L45.3311 224.27L50.3865 229.325L49.7983 229.914C46.9482 232.764 46.9482 237.385 49.7983 240.235L51.3393 241.776L47.3254 245.79C47.0087 246.106 47.0087 246.62 47.3254 246.936L107.335 306.946C107.651 307.262 108.165 307.262 108.482 306.946L112.495 302.932L114.016 304.453C116.866 307.303 121.487 307.303 124.337 304.453L124.925 303.864L129.287 308.226L140.623 309.258L154.421 295.46L160.987 302.025L173.072 306.096L212.132 267.036L218.804 273.708L230.015 281.883L279.269 232.63L271.346 221.165L264.675 214.493L303.068 176.1L299.665 163.347L293.099 156.782L307.761 142.12L307.588 129.926L303.226 125.564L303.237 125.552C306.087 122.702 306.087 118.081 303.237 115.231L301.717 113.711L305.446 109.981C305.763 109.664 305.763 109.151 305.446 108.834L245.437 48.825C245.12 48.5083 244.607 48.5083 244.29 48.825L240.561 52.5544L239.02 51.0134C236.169 48.1633 231.548 48.1633 228.698 51.0134L228.687 51.025L223.631 45.9696L212.151 46.5095L197.489 61.1715L189.992 53.6747L178.172 51.2034L139.778 89.5971L139.739 89.558L129.393 82.7541Z" fill="#70692C"/>
<path d="M80.1397 132.008L74.9791 126.847L70.6519 131.174L74.1585 136.189L80.1397 132.008ZM129.393 82.7541L133.403 76.6564L128.436 73.3899L124.232 77.5936L129.393 82.7541ZM87.1966 142.101L81.2154 146.283L81.5827 146.808L82.036 147.261L87.1966 142.101ZM87.2357 142.14L92.3962 147.3L97.5568 142.14L92.3962 136.979L87.2357 142.14ZM48.1752 181.2L43.0146 176.04L39.9918 179.062L41.15 183.178L48.1752 181.2ZM51.3143 192.353L44.2891 194.33L44.8056 196.165L46.1537 197.513L51.3143 192.353ZM58.811 199.849L63.9716 205.01L69.1322 199.849L63.9716 194.689L58.811 199.849ZM45.0124 213.648L39.8518 208.488L37.623 210.716L37.7175 213.867L45.0124 213.648ZM45.3311 224.27L38.0362 224.489L38.123 227.383L40.1705 229.431L45.3311 224.27ZM50.3865 229.325L55.5471 234.486L60.7076 229.325L55.5471 224.165L50.3865 229.325ZM51.3393 241.776L56.4999 246.936L61.6605 241.776L56.4999 236.615L51.3393 241.776ZM47.3254 245.79L42.1648 240.629L47.3254 245.79ZM112.495 302.932L117.656 297.771L112.495 292.611L107.335 297.771L112.495 302.932ZM124.925 303.864L130.086 298.704L124.925 293.543L119.765 298.704L124.925 303.864ZM129.287 308.226L124.127 313.387L125.995 315.255L128.626 315.494L129.287 308.226ZM140.623 309.258L139.961 316.527L143.366 316.837L145.783 314.419L140.623 309.258ZM154.421 295.46L159.582 290.299L154.421 285.139L149.261 290.299L154.421 295.46ZM160.987 302.025L155.826 307.186L157.036 308.396L158.657 308.942L160.987 302.025ZM173.072 306.096L170.742 313.013L175.031 314.458L178.232 311.257L173.072 306.096ZM212.132 267.036L217.293 261.875L212.132 256.715L206.971 261.875L212.132 267.036ZM218.804 273.708L213.643 278.868L214.045 279.27L214.504 279.605L218.804 273.708ZM230.015 281.883L225.715 287.78L230.761 291.459L235.176 287.044L230.015 281.883ZM279.269 232.63L284.429 237.79L288.732 233.487L285.273 228.481L279.269 232.63ZM271.346 221.165L277.35 217.016L276.975 216.472L276.507 216.005L271.346 221.165ZM264.675 214.493L259.514 209.333L254.353 214.493L259.514 219.654L264.675 214.493ZM303.068 176.1L308.229 181.26L311.205 178.284L310.12 174.218L303.068 176.1ZM299.665 163.347L306.716 161.466L306.211 159.572L304.826 158.187L299.665 163.347ZM293.099 156.782L287.939 151.621L282.778 156.782L287.939 161.942L293.099 156.782ZM307.761 142.12L312.922 147.28L315.103 145.1L315.059 142.016L307.761 142.12ZM307.588 129.926L314.885 129.822L314.843 126.86L312.748 124.765L307.588 129.926ZM303.226 125.564L298.065 120.403L292.905 125.564L298.065 130.725L303.226 125.564ZM301.717 113.711L296.556 108.55L291.396 113.711L296.556 118.871L301.717 113.711ZM240.561 52.5544L235.4 57.715L240.561 62.8756L245.721 57.715L240.561 52.5544ZM228.687 51.025L223.526 56.1856L228.687 61.3462L233.847 56.1856L228.687 51.025ZM223.631 45.9696L228.792 40.809L226.511 38.528L223.289 38.6795L223.631 45.9696ZM212.151 46.5095L211.808 39.2194L208.987 39.3521L206.99 41.3489L212.151 46.5095ZM197.489 61.1715L192.328 66.3321L197.489 71.4926L202.65 66.3321L197.489 61.1715ZM189.992 53.6747L195.153 48.5141L193.615 46.9761L191.486 46.531L189.992 53.6747ZM178.172 51.2034L179.665 44.0597L175.802 43.252L173.011 46.0429L178.172 51.2034ZM139.778 89.5971L134.618 94.7577L139.778 99.9183L144.939 94.7577L139.778 89.5971ZM139.739 89.558L144.9 84.3974L144.372 83.8701L143.749 83.4603L139.739 89.558ZM85.3002 137.168L134.554 87.9147L124.232 77.5936L74.9791 126.847L85.3002 137.168ZM93.1777 137.919L86.1209 127.826L74.1585 136.189L81.2154 146.283L93.1777 137.919ZM92.3962 136.979L92.3571 136.94L82.036 147.261L82.0751 147.3L92.3962 136.979ZM53.3358 186.361L92.3962 147.3L82.0751 136.979L43.0146 176.04L53.3358 186.361ZM58.3395 190.375L55.2004 179.223L41.15 183.178L44.2891 194.33L58.3395 190.375ZM63.9716 194.689L56.4748 187.192L46.1537 197.513L53.6505 205.01L63.9716 194.689ZM50.173 218.809L63.9716 205.01L53.6505 194.689L39.8518 208.488L50.173 218.809ZM52.626 224.051L52.3073 213.429L37.7175 213.867L38.0362 224.489L52.626 224.051ZM55.5471 224.165L50.4917 219.109L40.1705 229.431L45.2259 234.486L55.5471 224.165ZM54.9589 235.074L55.5471 234.486L45.2259 224.165L44.6377 224.753L54.9589 235.074ZM54.9589 235.074L54.9589 235.074L44.6377 224.753C38.9375 230.453 38.9375 239.695 44.6377 245.395L54.9589 235.074ZM56.4999 236.615L54.9589 235.074L44.6377 245.395L46.1787 246.936L56.4999 236.615ZM52.4859 250.95L56.4999 246.936L46.1787 236.615L42.1648 240.629L52.4859 250.95ZM52.4859 241.776C55.0194 244.309 55.0193 248.417 52.4859 250.95L42.1648 240.629C38.998 243.796 38.998 248.93 42.1648 252.097L52.4859 241.776ZM112.495 301.785L52.4859 241.776L42.1648 252.097L102.174 312.106L112.495 301.785ZM103.321 301.785C105.854 299.252 109.962 299.252 112.495 301.785L102.174 312.106C105.341 315.273 110.475 315.273 113.642 312.106L103.321 301.785ZM107.335 297.771L103.321 301.785L113.642 312.106L117.656 308.092L107.335 297.771ZM119.177 299.292L117.656 297.771L107.335 308.092L108.856 309.613L119.177 299.292ZM119.177 299.292L119.177 299.292L108.856 309.613C114.556 315.313 123.798 315.313 129.498 309.613L119.177 299.292ZM119.765 298.704L119.177 299.292L129.498 309.613L130.086 309.025L119.765 298.704ZM134.448 303.066L130.086 298.704L119.765 309.025L124.127 313.387L134.448 303.066ZM141.285 301.99L129.949 300.958L128.626 315.494L139.961 316.527L141.285 301.99ZM149.261 290.299L135.462 304.098L145.783 314.419L159.582 300.62L149.261 290.299ZM166.148 296.865L159.582 290.299L149.261 300.62L155.826 307.186L166.148 296.865ZM175.402 299.18L163.317 295.109L158.657 308.942L170.742 313.013L175.402 299.18ZM206.971 261.875L167.911 300.936L178.232 311.257L217.293 272.197L206.971 261.875ZM223.964 268.547L217.293 261.875L206.971 272.197L213.643 278.868L223.964 268.547ZM234.315 275.986L223.104 267.811L214.504 279.605L225.715 287.78L234.315 275.986ZM274.108 227.469L224.855 276.723L235.176 287.044L284.429 237.79L274.108 227.469ZM265.342 225.314L273.265 236.779L285.273 228.481L277.35 217.016L265.342 225.314ZM259.514 219.654L266.186 226.326L276.507 216.005L269.835 209.333L259.514 219.654ZM297.908 170.939L259.514 209.333L269.835 219.654L308.229 181.26L297.908 170.939ZM292.614 165.229L296.017 177.982L310.12 174.218L306.716 161.466L292.614 165.229ZM287.939 161.942L294.504 168.508L304.826 158.187L298.26 151.621L287.939 161.942ZM302.601 136.959L287.939 151.621L298.26 161.942L312.922 147.28L302.601 136.959ZM300.29 130.03L300.464 142.224L315.059 142.016L314.885 129.822L300.29 130.03ZM298.065 130.725L302.427 135.087L312.748 124.765L308.386 120.403L298.065 130.725ZM298.077 120.392L298.065 120.403L308.386 130.725L308.398 130.713L298.077 120.392ZM298.077 120.392L298.077 120.392L308.398 130.713C314.098 125.013 314.098 115.771 308.398 110.071L298.077 120.392ZM296.556 118.871L298.077 120.392L308.398 110.071L306.877 108.55L296.556 118.871ZM300.286 104.821L296.556 108.55L306.877 118.871L310.607 115.142L300.286 104.821ZM300.286 113.995C297.752 111.461 297.752 107.354 300.286 104.821L310.607 115.142C313.773 111.975 313.773 106.841 310.607 103.674L300.286 113.995ZM240.276 53.9856L300.286 113.995L310.607 103.674L250.597 43.6644L240.276 53.9856ZM249.451 53.9856C246.917 56.5189 242.81 56.5191 240.276 53.9856L250.597 43.6644C247.43 40.4976 242.296 40.4977 239.129 43.6644L249.451 53.9856ZM245.721 57.715L249.451 53.9856L239.129 43.6644L235.4 47.3938L245.721 57.715ZM233.859 56.174L235.4 57.715L245.721 47.3938L244.18 45.8528L233.859 56.174ZM233.859 56.174L233.859 56.174L244.18 45.8528C238.48 40.1526 229.238 40.1526 223.538 45.8528L233.859 56.174ZM233.847 56.1856L233.859 56.174L223.538 45.8528L223.526 45.8644L233.847 56.1856ZM218.471 51.1302L223.526 56.1856L233.847 45.8644L228.792 40.809L218.471 51.1302ZM212.494 53.7996L223.974 53.2597L223.289 38.6795L211.808 39.2194L212.494 53.7996ZM202.65 66.3321L217.312 51.6701L206.99 41.3489L192.328 56.0109L202.65 66.3321ZM184.832 58.8353L192.328 66.3321L202.65 56.0109L195.153 48.5141L184.832 58.8353ZM176.678 58.3472L188.499 60.8184L191.486 46.531L179.665 44.0597L176.678 58.3472ZM144.939 94.7577L183.333 56.364L173.011 46.0429L134.618 84.4365L144.939 94.7577ZM134.579 94.7186L134.618 94.7577L144.939 84.4365L144.9 84.3974L134.579 94.7186ZM125.383 88.8519L135.729 95.6558L143.749 83.4603L133.403 76.6564L125.383 88.8519Z" fill="#200707" mask="url(#path-3-outside-2_147_147)"/>
<path fill-rule="evenodd" clip-rule="evenodd" d="M184.433 65.6141L60.8957 189.151L62.9033 198.774L68.3898 204.261L55.6474 217.003L54.9869 226.108L82.0673 262.729L119.786 290.906L129.441 290.796L142.183 278.054L152.154 288.025L162.536 290.791L286.073 167.254L283.941 156.238L273.97 146.267L287.851 132.386L288.775 121.917L260.367 84.4287L223.976 57.1181L214.058 58.5924L200.177 72.4736L194.69 66.9871L184.433 65.6141Z" fill="#BCB736"/>
<path d="M230.22 231.72C240.685 221.254 257.654 221.254 268.119 231.72L481.735 445.336C492.201 455.802 492.201 472.77 481.735 483.235V483.235C471.27 493.701 454.301 493.701 443.836 483.235L230.22 269.62C219.754 259.154 219.754 242.186 230.22 231.72V231.72Z" fill="#3D1919"/>
<path d="M240.557 242.056C246.265 236.348 255.521 236.348 261.229 242.056L471.4 452.227C477.108 457.935 477.108 467.191 471.4 472.899V472.899C465.691 478.608 456.436 478.608 450.727 472.899L240.557 262.729C234.848 257.02 234.848 247.765 240.557 242.056V242.056Z" fill="#472C2C"/>
<path d="M260.368 84.4284L82.0673 262.729L54.1683 225.75L55.2048 216.179L68.0223 203.361L62.9016 198.24L61.332 188.715L184.203 65.8445L193.728 67.4141L199.702 73.3882L214.287 58.8029L223.957 57.0984L260.368 84.4284Z" fill="#E9E46E"/>
</g>
<defs>
<clipPath id="clip0_147_147">
<rect width="500" height="500" fill="white" transform="translate(0.375 0.625)"/>
</clipPath>
</defs>
</svg>
