<svg width="1001" height="1001" viewBox="0 0 1001 1001" fill="none" xmlns="http://www.w3.org/2000/svg">
<path d="M275.232 668.844L232.753 554.015L300.189 519H371.202L405.306 566.145L406.065 567.193L407.065 568.014L492.174 637.847L498.598 643.118L504.956 637.768L594.429 562.479L595.161 561.863L595.763 561.12L629.86 519H724.734L768.964 547.258L723.985 668.844L611.268 727.215L581.482 701.152L578.654 698.678H574.897H507.422H503.973H495.244H491.796H424.32H420.563L417.735 701.152L387.949 727.215L275.232 668.844ZM499.609 738.083L519.26 837.195L520.857 845.25H529.069H710.342H713.232L715.677 843.708L857.693 754.124L861.029 752.02L862.03 748.204L920.64 524.813L920.967 523.565V522.275V279.606V274.106L916.322 271.16L837.76 221.354L836.818 220.757L835.767 220.382C819.769 214.672 802.669 208.266 785.999 202.02C774.565 197.736 763.333 193.528 752.799 189.673C739.983 184.984 728.256 180.84 718.784 177.859C714.052 176.37 709.761 175.132 706.108 174.258C702.657 173.432 699.068 172.75 696.038 172.75H326.945H325.53L324.17 173.143L165.5 218.97L164.114 219.371L162.898 220.146L82.8735 271.174L78.25 274.123V279.606V522.275V523.565L78.5774 524.813L137.187 748.204L138.188 752.02L141.524 754.124L283.54 843.708L285.985 845.25H288.875H470.148H478.36L479.957 837.195L499.609 738.083Z" fill="#D6D045" stroke="#595429" stroke-width="20"/>
<path d="M177.743 252.75C183.403 250.484 400.73 303.729 415.445 303.729H558.066C644.846 285.226 820.443 248.218 828.593 248.218C836.743 248.218 862.173 273.142 873.869 285.603L502.602 455.534L116.62 282.204C135.108 273.142 173.216 254.562 177.743 252.75Z" fill="#D6D045"/>
<circle cx="500.7" cy="355.15" r="106.931" fill="#D6D045"/>
<circle cx="499.608" cy="354.059" r="77.4707" fill="#D6D045"/>
<ellipse cx="500.7" cy="354.059" rx="52.3746" ry="51.2834" fill="#D6D045"/>
<path d="M158.083 592.535C163.349 577.471 174.333 546.44 176.138 542.825L238.202 702.122L349.918 769.907L422.138 763.129C400.698 774.803 356.237 798.151 349.918 798.151C343.599 798.151 254 741.663 209.991 713.419L158.083 592.535Z" fill="#D6D045"/>
<path d="M841.135 592.535C835.869 577.471 824.885 546.44 823.08 542.825L761.015 702.122L649.3 769.907L577.08 763.129C598.52 774.803 642.981 798.151 649.3 798.151C655.619 798.151 745.217 741.663 789.226 713.419L841.135 592.535Z" fill="#D6D045"/>
<path d="M292.293 494.815L190.818 546.099L166.812 524.276L231.19 376.973C387.222 374.063 700.815 368.243 706.925 368.243C713.036 368.243 772.03 418.436 800.763 443.532L820.404 546.099L725.475 494.815H617.452L572.716 546.099L497.427 607.202L421.047 546.099L380.675 494.815H292.293Z" fill="#BCB736"/>
<path d="M332.91 193.661L178.814 239.489L281.47 357.332L764.02 343.896L819.312 239.489C767.464 220.761 701.803 193.661 688.086 193.661H332.91Z" fill="#BCB736"/>
<path d="M351.214 211.12L179.905 261.312L305.386 357.332L735.294 345.329L821.494 261.312C775.302 244.581 679.864 211.12 667.644 211.12H351.214Z" fill="#A7A22F"/>
<path d="M295.566 436.985L426.503 506.818L498.518 555.919V288.59H426.503L178.814 239.489L101.344 288.59V522.094L158.083 737.048L295.566 823.247H459.237L481.059 719.589H426.503L386.131 752.323L256.285 686.855L200.637 539.552L225.733 506.818L295.566 436.985Z" fill="#D6D045"/>
<path d="M701.47 436.985L570.533 506.818L498.518 555.919V295.137L571.624 288.59L819.312 239.489L896.783 288.59V522.094L840.044 737.048L702.561 823.247H538.89L517.068 719.589H571.624L611.996 754.506L741.842 686.855L797.49 539.552L771.302 506.818L701.47 436.985Z" fill="#D6D045"/>
<path d="M189.726 262.403C195.182 260.221 404.68 311.504 418.865 311.504H556.348C640.002 293.682 809.274 258.039 817.13 258.039C824.986 258.039 849.5 282.044 860.775 294.046L502.882 457.717L130.805 290.773C148.627 282.044 185.362 264.149 189.726 262.403Z" fill="#E9E46E"/>
<circle cx="500.699" cy="360.605" r="103.658" fill="#BCB736"/>
<circle cx="500.7" cy="360.605" r="75.2885" fill="#D6D045"/>
<circle cx="500.7" cy="359.514" r="50.1923" fill="#E9E46E"/>
<path d="M168.994 590.835C174.086 576.287 184.707 546.317 186.452 542.825L246.465 696.676L354.487 762.144L424.32 755.597C403.589 766.872 360.598 789.422 354.487 789.422C348.377 789.422 261.741 734.865 219.186 707.587L168.994 590.835Z" fill="#E9E46E"/>
<path d="M830.223 590.835C825.131 576.287 814.51 546.317 812.764 542.825L752.752 696.676L644.729 762.144L574.897 755.597C595.628 766.872 638.619 789.422 644.729 789.422C650.84 789.422 737.476 734.866 780.03 707.587L830.223 590.835Z" fill="#E9E46E"/>
<path d="M278.25 417.75L124.5 325.25L115.75 337.75L233.25 464L278.25 417.75Z" fill="#BCB736"/>
<path d="M208.25 481.5L115.75 362.75V384C137 431.083 179.75 526.25 180.75 530.25C181.75 534.25 199.5 499.417 208.25 481.5Z" fill="#BCB736"/>
<path d="M723.25 417.75L877 325.25L885.75 337.75L768.25 464L723.25 417.75Z" fill="#BCB736"/>
<path d="M793.25 481.5L885.75 362.75V384C864.5 431.083 821.75 526.25 820.75 530.25C819.75 534.25 802 499.417 793.25 481.5Z" fill="#BCB736"/>
</svg>
