<svg width="400" height="400" viewBox="0 0 400 400" fill="none" xmlns="http://www.w3.org/2000/svg">
<g clip-path="url(#clip0_113_151)">
<path d="M205.723 13.3328L231.566 50.0185C235.183 55.1533 241.954 56.9676 247.654 54.3293L288.378 35.4802C292.772 33.4464 297.854 36.3807 298.29 41.2028L302.327 85.895C302.893 92.1505 307.849 97.1073 314.105 97.6725L358.797 101.71C363.619 102.146 366.554 107.228 364.52 111.622L345.671 152.346C343.032 158.046 344.847 164.817 349.982 168.434L386.667 194.277C390.625 197.066 390.625 202.934 386.667 205.723L349.982 231.566C344.847 235.183 343.032 241.954 345.671 247.654L364.52 288.378C366.554 292.772 363.619 297.854 358.797 298.29L314.105 302.327C307.849 302.893 302.893 307.849 302.327 314.105L298.29 358.797C297.854 363.619 292.772 366.554 288.378 364.52L247.654 345.671C241.954 343.032 235.183 344.847 231.566 349.982L205.723 386.667C202.934 390.625 197.066 390.625 194.277 386.667L168.434 349.982C164.817 344.847 158.046 343.032 152.346 345.671L111.622 364.52C107.228 366.554 102.146 363.619 101.71 358.797L97.6725 314.105C97.1073 307.849 92.1505 302.893 85.895 302.327L41.2028 298.29C36.3807 297.854 33.4464 292.772 35.4802 288.378L54.3293 247.654C56.9676 241.954 55.1533 235.183 50.0185 231.566L13.3328 205.723C9.37457 202.934 9.37457 197.066 13.3328 194.277L50.0185 168.434C55.1533 164.817 56.9676 158.046 54.3293 152.346L35.4802 111.622C33.4464 107.228 36.3807 102.146 41.2028 101.71L85.895 97.6725C92.1505 97.1073 97.1073 92.1505 97.6725 85.895L101.71 41.2028C102.146 36.3807 107.228 33.4464 111.622 35.4802L152.346 54.3293C158.046 56.9676 164.817 55.1533 168.434 50.0185L194.277 13.3328C197.066 9.37457 202.934 9.37457 205.723 13.3328Z" fill="#978888" stroke="#4A4242" stroke-width="6"/>
<path d="M200 44.1948L310.171 89.8291L355.805 200L310.171 310.171L200 355.805L89.8291 310.171L44.1948 200L89.8291 89.8291L200 44.1948Z" fill="#3A3921"/>
<path d="M200 50.1873L305.934 94.0664L349.813 200L305.934 305.934L200 349.813L94.0664 305.934L50.1873 200L94.0664 94.0664L200 50.1873Z" fill="#70692C"/>
<path d="M200 78.6517L278.001 107.042L319.505 178.928L305.091 260.674L241.504 314.03H158.496L94.9093 260.674L80.4952 178.928L121.999 107.042L200 78.6517Z" fill="#BCB736"/>
<path d="M200 119.85L256.674 143.326L280.15 200L256.674 256.674L200 280.15L143.326 256.674L119.85 200L143.326 143.326L200 119.85Z" fill="#D6D045"/>
<path fill-rule="evenodd" clip-rule="evenodd" d="M141.093 140.316C133.78 147.63 133.78 159.487 141.093 166.8L173.81 199.517L140.316 233.011C133.003 240.324 133.003 252.181 140.316 259.495C147.63 266.808 159.487 266.808 166.8 259.495L200.294 226.001L233.785 259.492C241.098 266.805 252.955 266.805 260.268 259.492C267.581 252.179 267.581 240.322 260.268 233.008L226.777 199.517L259.492 166.803C266.805 159.489 266.805 147.632 259.492 140.319C252.178 133.006 240.321 133.006 233.008 140.319L200.294 173.034L167.576 140.316C160.263 133.003 148.406 133.003 141.093 140.316Z" fill="#70692C"/>
<path fill-rule="evenodd" clip-rule="evenodd" d="M153.746 152.969C148.604 158.111 148.604 166.447 153.746 171.589L181.675 199.517L153.746 227.446C148.604 232.587 148.604 240.924 153.746 246.065C158.887 251.207 167.223 251.207 172.365 246.065L200.294 218.136L228.222 246.065C233.364 251.207 241.7 251.207 246.841 246.065C251.983 240.923 251.983 232.587 246.841 227.446L218.913 199.517L246.841 171.589C251.983 166.447 251.983 158.111 246.841 152.969C241.7 147.828 233.364 147.828 228.222 152.969L200.294 180.898L172.365 152.969C167.223 147.828 158.887 147.828 153.746 152.969Z" fill="#D6D045"/>
</g>
<defs>
<clipPath id="clip0_113_151">
<rect width="400" height="400" fill="white"/>
</clipPath>
</defs>
</svg>
