<svg width="501" height="501" viewBox="0 0 501 501" fill="none" xmlns="http://www.w3.org/2000/svg">
<g clip-path="url(#clip0_102_50)">
<path d="M291.464 449.921L415.82 347.797C428.542 337.35 435.915 321.754 435.915 305.293L435.915 261.299C435.915 259.047 436.168 256.803 436.67 254.609L460.648 149.789C467.174 121.262 450.219 92.6199 422.07 84.6194L361.082 67.2856C359.536 66.8464 358.029 66.2838 356.573 65.6031L274.565 27.2469C259.751 20.3183 242.622 20.3415 227.827 27.3103L146.257 65.7316C144.925 66.3588 143.549 66.8872 142.14 67.3124L77.7684 86.7372C51.3089 94.7216 34.884 121.102 39.3949 148.369L65.9333 308.786C68.6598 325.267 78.729 339.616 93.3006 347.785L153.997 381.811C156.579 383.258 158.931 385.079 160.979 387.215L216.863 445.486C236.753 466.226 269.256 468.158 291.464 449.921Z" fill="#A7A22F" stroke="#70692C" stroke-width="25"/>
<path d="M424.428 126.939L395.612 251.5L395.612 311.214L251.473 429.584L185.625 354L106.294 312.491L75.8518 128.478L165 103.375L249.847 61.2955L328.75 103.375L424.428 126.939Z" fill="#D6D045"/>
<path d="M252.818 430.067L395.512 311.64L395.512 254.625L424.391 127.717L308.126 247.125L252.818 430.067Z" fill="#BCB736"/>
<path d="M425.714 127.872L251.296 157.75L76.143 128.75L165 104.625L251.296 61.269L330 104.625L425.714 127.872Z" fill="#E9E46E"/>
</g>
<defs>
<clipPath id="clip0_102_50">
<rect x="0.625" y="0.875" width="500" height="500" fill="white"/>
</clipPath>
</defs>
</svg>
