<svg width="400" height="400" viewBox="0 0 400 400" fill="none" xmlns="http://www.w3.org/2000/svg">
<path d="M172.368 201.371L331.29 374.252L345.249 383.916C350.976 385.706 357.061 392.506 360.282 392.506C365.085 392.506 372.094 392.148 377.463 390.359L390.349 372.104L389.275 354.924L212.099 167.009C201.361 155.184 183.639 140.871 190.623 135.869C198.139 130.486 194.918 132.634 203.508 127.265L234.648 112.246L257.198 81.1056C240.733 60.7035 208.448 21.1878 206.73 22.0469C205.012 22.9059 199.213 24.9103 197.065 26.342C180.959 41.7331 146.597 82.1519 143.376 84.3132C136.04 89.2351 133.722 86.4601 128.38 80.0631L128.343 80.018L117.605 77.8705C105.793 77.8705 98.2763 84.2994 95.0549 86.4608C85.3907 100.42 87.8963 106.863 88.6121 109.011C91.1892 113.306 100.424 125.475 98.2763 125.117C98.2763 129.055 98.2763 125.117 88.6121 135.869L74.6528 148.755L56.3983 167.009C44.9444 190.991 22.9434 243.731 19.8892 248.618C14.5202 257.208 9.15125 317.341 9.15125 321.636C9.15125 325.072 11.2988 332.732 11.2988 335.595L23.1106 328.079L85.3907 224.994L112.236 201.371L142.302 191.693L150.892 182.029L172.368 201.371Z" fill="black" fill-opacity="0.5"/>
<rect x="86.58" y="103.583" width="42.3368" height="396.376" rx="21.1684" transform="rotate(-43.347 86.58 103.583)" fill="black" fill-opacity="0.5"/>
<path d="M251.829 82.1795L207.803 26.3422C186.327 32.7849 125.478 111.889 122.973 114.393C118.678 118.689 100.424 131.574 95.0547 134.796C89.1589 138.333 65.5304 164.184 60.6932 170.231C56.3981 175.6 16.6677 261.503 16.6677 278.684C16.6677 295.865 10.2251 309.824 16.6677 329.152L31.7008 304.455L51.0291 269.02L80.0216 222.847L109.014 194.928L141.228 183.116L162.704 149.829L203.508 120.836L232.501 107.951L251.829 82.1795Z" fill="black" fill-opacity="0.5"/>
<path d="M226.014 85.1033L204.538 52.8895C187.287 57.1389 129.521 118.279 127.503 119.953C124.043 122.825 124.716 125.53 108.971 134.498C108.971 134.498 84.9526 156.222 81.0519 160.269C77.5884 163.863 41.7337 218.463 41.6782 230.015C41.6226 241.568 36.4083 250.93 41.515 263.951L53.6566 247.402L69.2792 223.65L92.6905 192.714L116.043 174.052L141.928 166.234L159.266 143.934L192.099 124.596L214.203 107.653L226.014 85.1033Z" fill="black" fill-opacity="0.5"/>
<path d="M141.16 169.188C133.321 150.184 133.161 135.503 140.713 128.374C148.266 121.245 162.914 122.252 181.434 131.174L210.99 202.827L141.16 169.188Z" fill="black" fill-opacity="0.5"/>
<rect x="185.254" y="176.674" width="12.2199" height="265.509" rx="6.10994" transform="rotate(-43.347 185.254 176.674)" fill="black" fill-opacity="0.5"/>
<path d="M172.368 186.338L331.29 359.219L345.249 368.883C350.976 370.673 357.061 377.473 360.282 377.473C365.085 377.473 372.094 377.115 377.463 375.326L390.349 357.071L389.275 339.89L212.099 151.976C201.361 140.151 194.349 126.824 197.065 118.675C199.213 112.232 203.508 113.306 212.099 107.937L234.648 97.2126L257.198 66.0725C240.733 45.6704 208.448 6.15474 206.73 7.01378C205.012 7.87282 199.213 9.87721 197.065 11.3089C180.959 26.7 146.597 67.1188 143.376 69.2801C136.04 74.202 133.722 71.427 128.38 65.03L128.343 64.985L117.605 62.8374C105.793 62.8374 98.2763 69.2664 95.0549 71.4277C85.3907 85.3871 87.8963 91.8299 88.6121 93.9774C91.1892 98.2726 100.424 110.442 98.2763 110.084C98.2763 114.022 98.2763 110.084 88.6121 120.836L74.6528 133.722L56.3983 151.976C44.9444 175.958 22.9434 228.698 19.8892 233.585C14.5202 242.175 9.15125 302.308 9.15125 306.603C9.15125 310.039 11.2988 317.699 11.2988 320.562L23.1106 313.046L85.3907 209.961L112.236 186.338L142.302 176.66L150.892 166.996L172.368 186.338Z" fill="#200707"/>
<rect x="86.58" y="88.5503" width="42.3368" height="396.376" rx="21.1684" transform="rotate(-43.347 86.58 88.5503)" fill="#3D1919"/>
<path d="M251.829 67.1465L207.803 11.3091C186.327 17.7519 125.478 96.8558 122.973 99.3603C118.678 103.656 100.424 116.541 95.0547 119.762C89.1589 123.3 65.5304 149.151 60.6932 155.198C56.3981 160.567 16.6677 246.47 16.6677 263.651C16.6677 280.832 10.2251 294.791 16.6677 314.119L31.7008 289.422L51.0291 253.987L80.0216 207.814L109.014 179.895L141.228 168.083L162.704 134.796L203.508 105.803L232.501 92.9175L251.829 67.1465Z" fill="#70692C"/>
<path d="M226.014 70.0702L204.538 37.8564C187.287 42.1058 129.521 103.245 127.503 104.92C124.043 107.791 124.716 110.497 108.971 119.465C108.971 119.465 84.9526 141.189 81.0519 145.236C77.5884 148.83 41.7337 203.43 41.6782 214.982C41.6226 226.535 36.4083 235.897 41.515 248.918L53.6566 232.369L69.2792 208.617L92.6905 177.681L116.043 159.019L141.928 151.201L159.266 128.901L192.099 109.563L214.203 92.6199L226.014 70.0702Z" fill="#BCB736"/>
<path d="M149.088 162.554C142.12 144.473 142.449 130.31 150.002 123.181C157.554 116.052 171.713 116.541 189.362 124.54L215.634 192.715L149.088 162.554Z" fill="#3D1919"/>
</svg>
