<svg width="1001" height="1001" viewBox="0 0 1001 1001" fill="none" xmlns="http://www.w3.org/2000/svg">
<g clip-path="url(#clip0_102_50)">
<path d="M582.426 898.343L831.14 694.095C856.582 673.201 871.329 642.009 871.329 609.086L871.329 521.098C871.329 516.596 871.836 512.107 872.84 507.718L920.796 298.078C933.847 241.024 899.937 183.74 843.638 167.74L721.662 133.072C718.571 132.194 715.556 131.068 712.646 129.707L548.629 52.9946C519.002 39.1373 484.744 39.1837 455.153 53.1213L292.013 129.964C289.35 131.218 286.598 132.275 283.78 133.126L155.036 171.975C102.117 187.944 69.2671 240.704 78.2889 295.239L131.366 616.072C136.819 649.035 156.957 677.732 186.1 694.07L307.494 762.123C312.656 765.017 317.362 768.659 321.458 772.93L433.224 889.473C473.004 930.952 538.012 934.817 582.426 898.343Z" fill="#A7A22F" stroke="#70692C" stroke-width="50"/>
<path d="M848.355 252.378L790.723 501.5L790.723 620.928L502.444 857.669L370.748 706.5L212.086 623.483L151.203 255.456L329.498 205.25L499.193 121.091L656.998 205.25L848.355 252.378Z" fill="#D6D045"/>
<path d="M505.135 858.634L790.523 621.781L790.523 507.75L848.281 253.935L615.75 492.75L505.135 858.634Z" fill="#BCB736"/>
<path d="M850.928 254.245L502.091 314L151.786 256.001L329.5 207.75L502.091 121.038L659.5 207.75L850.928 254.245Z" fill="#E9E46E"/>
</g>
<defs>
<clipPath id="clip0_102_50">
<rect x="0.75" y="0.25" width="1000" height="1000" fill="white"/>
</clipPath>
</defs>
</svg>
