<svg width="501" height="501" viewBox="0 0 501 501" fill="none" xmlns="http://www.w3.org/2000/svg">
<g clip-path="url(#clip0_147_61)">
<mask id="path-1-outside-1_147_61" maskUnits="userSpaceOnUse" x="84.9953" y="84.8711" width="410.829" height="410.829" fill="black">
<rect fill="white" x="84.9953" y="84.8711" width="410.829" height="410.829"/>
<path d="M113.059 98.4822C109.557 94.9798 103.878 94.9798 100.376 98.4822L98.408 100.45C94.9056 103.952 94.9057 109.631 98.408 113.133L467.657 482.382C471.159 485.884 476.838 485.884 480.34 482.382L482.308 480.414C485.81 476.912 485.81 471.234 482.308 467.731L113.059 98.4822Z"/>
</mask>
<path d="M113.059 98.4822C109.557 94.9798 103.878 94.9798 100.376 98.4822L98.408 100.45C94.9056 103.952 94.9057 109.631 98.408 113.133L467.657 482.382C471.159 485.884 476.838 485.884 480.34 482.382L482.308 480.414C485.81 476.912 485.81 471.234 482.308 467.731L113.059 98.4822Z" fill="#2F0A0A"/>
<path d="M482.308 467.731L479.277 470.762L482.308 467.731ZM113.059 98.4822L116.09 95.451L113.059 98.4822ZM97.3444 95.451L95.3768 97.4185L101.439 103.481L103.407 101.513L97.3444 95.451ZM95.3768 116.164L464.626 485.413L470.688 479.351L101.439 110.102L95.3768 116.164ZM483.371 485.413L485.339 483.446L479.277 477.383L477.309 479.351L483.371 485.413ZM485.339 464.7L116.09 95.451L110.028 101.513L479.277 470.762L485.339 464.7ZM485.339 483.446C490.516 478.269 490.516 469.876 485.339 464.7L479.277 470.762C481.105 472.591 481.105 475.555 479.277 477.383L485.339 483.446ZM464.626 485.413C469.802 490.59 478.195 490.59 483.371 485.413L477.309 479.351C475.481 481.179 472.516 481.179 470.688 479.351L464.626 485.413ZM95.3768 97.4185C90.2003 102.595 90.2004 110.988 95.3768 116.164L101.439 110.102C99.6109 108.274 99.6109 105.309 101.439 103.481L95.3768 97.4185ZM103.407 101.513C105.235 99.6851 108.199 99.6851 110.028 101.513L116.09 95.451C110.914 90.2745 102.521 90.2745 97.3444 95.451L103.407 101.513Z" fill="#200707" mask="url(#path-1-outside-1_147_61)"/>
<mask id="path-3-outside-2_147_61" maskUnits="userSpaceOnUse" x="-6.44656" y="-6.86661" width="158.392" height="158.392" fill="black">
<rect fill="white" x="-6.44656" y="-6.86661" width="158.392" height="158.392"/>
<path fill-rule="evenodd" clip-rule="evenodd" d="M91.9481 49.4427L23.0547 21.1718C22.1382 20.7956 21.2215 21.7095 21.5948 22.6272L49.6922 91.6985L63.1038 100.392L81.9111 115.835L90.217 116.063L95.5989 121.445L102.794 117.402L121.872 120.432L118.508 101.688L122.593 94.4509L117.211 89.069L116.77 80.9756L97.9509 59.3774L91.9481 49.4427Z"/>
</mask>
<path fill-rule="evenodd" clip-rule="evenodd" d="M91.9481 49.4427L23.0547 21.1718C22.1382 20.7956 21.2215 21.7095 21.5948 22.6272L49.6922 91.6985L63.1038 100.392L81.9111 115.835L90.217 116.063L95.5989 121.445L102.794 117.402L121.872 120.432L118.508 101.688L122.593 94.4509L117.211 89.069L116.77 80.9756L97.9509 59.3774L91.9481 49.4427Z" fill="#70692C"/>
<path d="M23.0547 21.1718L21.4273 25.1376L21.4273 25.1376L23.0547 21.1718ZM91.9481 49.4427L95.6171 47.2257L94.885 46.0142L93.5755 45.4768L91.9481 49.4427ZM21.5948 22.6272L17.624 24.2425L17.624 24.2425L21.5948 22.6272ZM49.6922 91.6985L45.7214 93.3138L46.2293 94.5625L47.3605 95.2957L49.6922 91.6985ZM63.1038 100.392L65.8241 97.0786L65.6378 96.9256L65.4354 96.7945L63.1038 100.392ZM81.9111 115.835L79.1907 119.148L80.3254 120.079L81.793 120.12L81.9111 115.835ZM90.217 116.063L93.2482 113.032L92.0412 111.825L90.335 111.778L90.217 116.063ZM95.5989 121.445L92.5677 124.476L94.8658 126.775L97.6991 125.182L95.5989 121.445ZM102.794 117.402L103.466 113.168L101.993 112.934L100.693 113.665L102.794 117.402ZM121.872 120.432L121.2 124.666L127.158 125.612L126.092 119.674L121.872 120.432ZM118.508 101.688L114.775 99.5803L114.016 100.925L114.288 102.445L118.508 101.688ZM122.593 94.4509L126.326 96.5583L127.927 93.7225L125.624 91.4197L122.593 94.4509ZM117.211 89.069L112.931 89.3024L113.02 90.9403L114.18 92.1002L117.211 89.069ZM116.77 80.9756L121.05 80.7422L120.97 79.2706L120.002 78.1595L116.77 80.9756ZM97.9509 59.3774L94.2819 61.5943L94.4744 61.9129L94.7189 62.1935L97.9509 59.3774ZM21.4273 25.1376L90.3206 53.4085L93.5755 45.4768L24.6822 17.2059L21.4273 25.1376ZM25.5657 21.0119C26.6239 23.6134 24.0255 26.2038 21.4273 25.1376L24.6822 17.2059C20.2508 15.3875 15.8192 19.8056 17.624 24.2425L25.5657 21.0119ZM53.663 90.0833L25.5657 21.0119L17.624 24.2425L45.7214 93.3138L53.663 90.0833ZM65.4354 96.7945L52.0238 88.1013L47.3605 95.2957L60.7721 103.989L65.4354 96.7945ZM84.6314 112.522L65.8241 97.0786L60.3834 103.705L79.1907 119.148L84.6314 112.522ZM90.335 111.778L82.0291 111.549L81.793 120.12L90.0989 120.349L90.335 111.778ZM98.6301 118.414L93.2482 113.032L87.1858 119.095L92.5677 124.476L98.6301 118.414ZM100.693 113.665L93.4987 117.708L97.6991 125.182L104.894 121.139L100.693 113.665ZM122.545 116.198L103.466 113.168L102.121 121.636L121.2 124.666L122.545 116.198ZM114.288 102.445L117.653 121.189L126.092 119.674L122.727 100.93L114.288 102.445ZM118.86 92.3435L114.775 99.5803L122.241 103.795L126.326 96.5583L118.86 92.3435ZM114.18 92.1002L119.562 97.4821L125.624 91.4197L120.243 86.0378L114.18 92.1002ZM112.49 81.2091L112.931 89.3024L121.492 88.8355L121.05 80.7422L112.49 81.2091ZM94.7189 62.1935L113.538 83.7918L120.002 78.1595L101.183 56.5613L94.7189 62.1935ZM88.279 51.6596L94.2819 61.5943L101.62 57.1605L95.6171 47.2257L88.279 51.6596Z" fill="#200707" mask="url(#path-3-outside-2_147_61)"/>
<mask id="path-5-outside-3_147_61" maskUnits="userSpaceOnUse" x="82.4284" y="82.3705" width="89.8026" height="89.8026" fill="black">
<rect fill="white" x="82.4284" y="82.3705" width="89.8026" height="89.8026"/>
<path d="M112.125 111.035L150.177 108.034L153.596 126.752L143.301 143.778L123.447 154.196L107.922 150.29L111.099 112.057C111.145 111.511 111.579 111.078 112.125 111.035Z"/>
</mask>
<path d="M112.125 111.035L150.177 108.034L153.596 126.752L143.301 143.778L123.447 154.196L107.922 150.29L111.099 112.057C111.145 111.511 111.579 111.078 112.125 111.035Z" fill="#BCB736"/>
<path d="M150.177 108.034L154.394 107.264L153.699 103.456L149.84 103.761L150.177 108.034ZM112.125 111.035L111.788 106.761L112.125 111.035ZM111.099 112.057L115.371 112.412L115.371 112.412L111.099 112.057ZM107.922 150.29L103.649 149.935L103.348 153.56L106.876 154.447L107.922 150.29ZM143.301 143.778L145.293 147.574L146.351 147.019L146.969 145.996L143.301 143.778ZM153.596 126.752L157.264 128.97L158.105 127.58L157.813 125.982L153.596 126.752ZM123.447 154.196L122.401 158.353L123.989 158.753L125.439 157.992L123.447 154.196ZM149.84 103.761L111.788 106.761L112.462 115.308L150.514 112.308L149.84 103.761ZM106.827 111.702L103.649 149.935L112.194 150.645L115.371 112.412L106.827 111.702ZM146.969 145.996L157.264 128.97L149.928 124.534L139.633 141.56L146.969 145.996ZM157.813 125.982L154.394 107.264L145.96 108.804L149.379 127.522L157.813 125.982ZM106.876 154.447L122.401 158.353L124.493 150.039L108.967 146.133L106.876 154.447ZM125.439 157.992L145.293 147.574L141.309 139.982L121.455 150.4L125.439 157.992ZM111.788 106.761C109.147 106.97 107.047 109.061 106.827 111.702L115.371 112.412C115.243 113.96 114.011 115.186 112.462 115.308L111.788 106.761Z" fill="#200707" mask="url(#path-5-outside-3_147_61)"/>
<mask id="path-7-outside-4_147_61" maskUnits="userSpaceOnUse" x="432.231" y="431.865" width="75.6604" height="75.6604" fill="black">
<rect fill="white" x="432.231" y="431.865" width="75.6604" height="75.6604"/>
<path d="M453.951 452.534L485.176 457.937L492.095 474.713L486.896 487.117L472.094 491.819L457.951 485.162L452.658 453.822C452.53 453.062 453.191 452.403 453.951 452.534Z"/>
</mask>
<path d="M453.951 452.534L485.176 457.937L492.095 474.713L486.896 487.117L472.094 491.819L457.951 485.162L452.658 453.822C452.53 453.062 453.191 452.403 453.951 452.534Z" fill="#70692C"/>
<path d="M485.176 457.937L489.139 456.303L488.237 454.116L485.907 453.713L485.176 457.937ZM453.951 452.534L453.22 456.758L453.22 456.758L453.951 452.534ZM452.658 453.822L448.431 454.536L448.431 454.536L452.658 453.822ZM457.951 485.162L453.724 485.876L454.097 488.087L456.125 489.041L457.951 485.162ZM486.896 487.117L488.194 491.202L490.083 490.602L490.849 488.774L486.896 487.117ZM492.095 474.713L496.048 476.37L496.738 474.726L496.058 473.079L492.095 474.713ZM472.094 491.819L470.268 495.698L471.789 496.413L473.392 495.904L472.094 491.819ZM485.907 453.713L454.682 448.31L453.22 456.758L484.445 462.161L485.907 453.713ZM448.431 454.536L453.724 485.876L462.178 484.449L456.885 453.108L448.431 454.536ZM490.849 488.774L496.048 476.37L488.141 473.056L482.942 485.46L490.849 488.774ZM496.058 473.079L489.139 456.303L481.213 459.572L488.132 476.348L496.058 473.079ZM456.125 489.041L470.268 495.698L473.919 487.94L459.776 481.284L456.125 489.041ZM473.392 495.904L488.194 491.202L485.598 483.031L470.796 487.733L473.392 495.904ZM454.682 448.31C451.009 447.675 447.811 450.86 448.431 454.536L456.885 453.108C457.249 455.263 455.374 457.131 453.22 456.758L454.682 448.31Z" fill="#200707" mask="url(#path-7-outside-4_147_61)"/>
<path fill-rule="evenodd" clip-rule="evenodd" d="M92.2306 91.4606L92.2739 91.5704L90.7838 101.546L92.3273 113.122L55.3325 87.2341L29.5343 29.1034L29.1805 28.7495L29.4278 28.8634L29.3169 28.6134L30.3629 29.2939L87.2302 55.4767L94.5715 81.0288L114.372 92.0877L102.462 90.3623L92.2306 91.4606Z" fill="#BCB736"/>
<path d="M91.9251 91.4934L29.1812 28.7495L87.2309 55.4767L114.372 92.0876L102.462 90.3622L91.9251 91.4934Z" fill="#E9E46E"/>
<rect width="20.7194" height="538.705" rx="10.3597" transform="matrix(-0.707107 0.707107 0.707107 0.707107 108.738 94.1614)" fill="#3D1919"/>
<rect width="12.1459" height="525.844" rx="6.07293" transform="matrix(-0.707107 0.707107 0.707107 0.707107 109.243 100.729)" fill="#472C2C"/>
</g>
<defs>
<clipPath id="clip0_147_61">
<rect width="500" height="500" fill="white" transform="translate(0.625 0.375)"/>
</clipPath>
</defs>
</svg>
