<svg width="400" height="400" viewBox="0 0 400 400" fill="none" xmlns="http://www.w3.org/2000/svg">
<path d="M118.799 203.5L73.4079 227.069L62.0601 209.86L88.7137 149.055C153.315 147.854 283.15 145.452 285.679 145.452C288.209 145.452 312.634 166.17 324.53 176.53L322.187 223.577L290.762 203.5H249.736L234.896 221.831L199.107 251.947L165.063 224.013L150.224 203.5H118.799Z" fill="#70692C"/>
<path d="M130.478 73L66.4248 91.8199L109.096 140.214L309.679 134.696L332.662 91.8199C311.111 84.1288 283.817 73 278.115 73H130.478Z" fill="#70692C"/>
<path d="M137.745 79.9833L66.4248 100.66L118.666 140.214L297.648 135.27L333.535 100.66C314.304 93.7674 274.571 79.9833 269.483 79.9833H137.745Z" fill="#70692C"/>
<path d="M283.837 173.43L229.736 202.46L199.98 222.871V111.742H229.736L332.077 91.3311L364.087 111.742V208.81L340.643 298.167L283.837 334H211.328L201.289 283.371H229.659L243.625 295.592L292.508 270.278L312.691 215.721L312.691 202.46L283.837 173.43Z" fill="#70692C"/>
<path d="M115.25 173.43L169.351 202.46L199.107 222.871V111.742H169.351L67.0099 91.3311L35 111.742V208.81L58.4439 298.167L115.25 334H187.759L197.798 283.371H169.428L155.462 295.592L106.579 270.278L86.3962 215.721L86.3962 202.46L115.25 173.43Z" fill="#70692C"/>
<path d="M283.179 173.43L228.939 202.46L199.107 222.871V114.464L229.391 111.742L331.995 91.3311L364.087 111.742V208.81L340.583 298.167L283.631 334H215.831L206.791 290.909H229.391L246.115 305.424L299.903 277.302L322.955 216.067L312.107 202.46L283.179 173.43Z" fill="#70692C"/>
<path d="M70.797 101C73.0608 100.094 159.992 121.392 165.878 121.392H222.926C257.638 113.99 327.877 99.1873 331.137 99.1873C334.397 99.1873 344.569 109.157 349.247 114.141L200.74 182.114L46.3477 112.782C53.7428 109.157 68.9859 101.725 70.797 101Z" fill="#70692C"/>
<circle cx="199.98" cy="141.96" r="42.7726" fill="#70692C"/>
<circle cx="199.543" cy="141.523" r="30.9883" fill="#70692C"/>
<ellipse cx="199.98" cy="141.523" rx="20.9498" ry="20.5134" fill="#70692C"/>
<path d="M62.9331 236.914C65.0395 230.889 69.4329 218.476 70.1551 217.03L94.9808 280.749L139.667 307.863L168.555 305.152C159.979 309.821 142.195 319.161 139.667 319.161C137.139 319.161 101.3 296.565 83.6964 285.268L62.9331 236.914Z" fill="#70692C"/>
<path d="M336.154 236.914C334.047 230.889 329.654 218.476 328.932 217.03L304.106 280.749L259.42 307.863L230.532 305.152C239.108 309.821 256.892 319.161 259.42 319.161C261.948 319.161 297.787 296.565 315.39 285.268L336.154 236.914Z" fill="#70692C"/>
<path d="M116.617 197.826L76.0268 218.339L66.4248 209.61L92.1756 150.689C154.589 149.525 280.026 147.197 282.47 147.197C284.914 147.197 308.512 167.274 320.005 177.313L327.861 218.339L289.89 197.826H246.681L228.786 218.339L198.671 242.781L168.119 218.339L151.97 197.826H116.617Z" fill="#BCB736"/>
<path d="M132.864 77.3645L71.2256 95.6956L112.288 142.833L305.308 137.458L327.425 95.6956C306.686 88.2042 280.421 77.3645 274.934 77.3645H132.864Z" fill="#BCB736"/>
<path d="M140.186 84.3478L71.6621 104.425L121.854 142.833L293.818 138.032L328.298 104.425C309.821 97.7324 271.646 84.3478 266.757 84.3478H140.186Z" fill="#70692C"/>
<path d="M117.926 174.694L170.301 202.627L199.107 222.268V115.336H170.301L71.2256 95.6957L40.2373 115.336V208.737L62.933 294.719L117.926 329.199H183.395L192.124 287.736H170.301L154.152 300.829L102.214 274.642L79.9547 215.721L89.9932 202.627L117.926 174.694Z" fill="#D6D045"/>
<path d="M280.288 174.694L227.913 202.627L199.107 222.268V117.955L228.35 115.336L327.425 95.6957L358.413 115.336V208.737L335.717 294.719L280.724 329.199H215.256L206.527 287.736H228.35L244.498 301.702L296.437 274.642L318.696 215.721L308.221 202.627L280.288 174.694Z" fill="#D6D045"/>
<path d="M75.5905 104.861C77.7728 103.988 161.572 124.502 167.246 124.502H222.239C255.701 117.373 323.41 103.115 326.552 103.115C329.695 103.115 339.5 112.717 344.01 117.518L200.853 182.987L52.022 116.209C59.1507 112.717 73.8447 105.56 75.5905 104.861Z" fill="#E9E46E"/>
<circle cx="199.98" cy="144.142" r="41.4632" fill="#BCB736"/>
<circle cx="199.98" cy="144.142" r="30.1154" fill="#D6D045"/>
<circle cx="199.98" cy="143.706" r="20.0769" fill="#E9E46E"/>
<path d="M67.2979 236.234C69.3346 230.415 73.5828 218.427 74.2811 217.03L98.2861 278.57L141.495 304.758L169.428 302.139C161.136 306.649 143.939 315.669 141.495 315.669C139.051 315.669 104.397 293.846 87.3748 282.935L67.2979 236.234Z" fill="#E9E46E"/>
<path d="M331.789 236.234C329.752 230.415 325.504 218.427 324.806 217.03L300.801 278.57L257.592 304.758L229.659 302.139C237.951 306.649 255.148 315.669 257.592 315.669C260.036 315.669 294.69 293.846 311.712 282.935L331.789 236.234Z" fill="#E9E46E"/>
<path d="M111 167L49.5 130L46 135L93 185.5L111 167Z" fill="#BCB736"/>
<path d="M83 192.5L46 145V153.5C54.5 172.333 71.6 210.4 72 212C72.4 213.6 79.5 199.667 83 192.5Z" fill="#BCB736"/>
<path d="M289 167L350.5 130L354 135L307 185.5L289 167Z" fill="#BCB736"/>
<path d="M317 192.5L354 145V153.5C345.5 172.333 328.4 210.4 328 212C327.6 213.6 320.5 199.667 317 192.5Z" fill="#BCB736"/>
</svg>
