<svg width="801" height="801" viewBox="0 0 801 801" fill="none" xmlns="http://www.w3.org/2000/svg">
<path d="M400.25 0.25L683.093 117.407L800.25 400.25L683.093 683.093L400.25 800.25L117.407 683.093L0.25 400.25L117.407 117.407L400.25 0.25Z" fill="#3A3921"/>
<path d="M400.25 25.2498L665.415 135.085L775.25 400.25L665.415 665.415L400.25 775.25L135.085 665.415L25.25 400.25L135.085 135.085L400.25 25.2498Z" fill="#70692C"/>
<path d="M400.25 96.4999L595.497 167.564L699.385 347.504L663.305 552.125L504.139 685.682H296.361L137.195 552.125L101.115 347.504L205.003 167.564L400.25 96.4999Z" fill="#BCB736"/>
<path d="M400.25 199.625L542.113 258.387L600.875 400.25L542.113 542.113L400.25 600.875L258.387 542.113L199.625 400.25L258.387 258.387L400.25 199.625Z" fill="#D6D045"/>
</svg>
