<svg width="401" height="401" viewBox="0 0 401 401" fill="none" xmlns="http://www.w3.org/2000/svg">
<path d="M200.375 0.375L341.796 58.9536L400.375 200.375L341.796 341.796L200.375 400.375L58.9536 341.796L0.375 200.375L58.9536 58.9536L200.375 0.375Z" fill="#3A3921"/>
<path d="M200.375 12.8749L332.958 67.7924L387.875 200.375L332.958 332.957L200.375 387.875L67.7925 332.957L12.875 200.375L67.7925 67.7924L200.375 12.8749Z" fill="#70692C"/>
<path d="M200.375 48.4999L297.998 84.0319L349.943 174.002L331.903 276.312L252.319 343.091H148.431L68.8474 276.312L50.8073 174.002L102.752 84.0319L200.375 48.4999Z" fill="#BCB736"/>
<path d="M200.375 100.062L271.307 129.443L300.688 200.375L271.307 271.307L200.375 300.687L129.443 271.307L100.062 200.375L129.443 129.443L200.375 100.062Z" fill="#D6D045"/>
</svg>
