<svg width="1001" height="1001" viewBox="0 0 1001 1001" fill="none" xmlns="http://www.w3.org/2000/svg">
<g clip-path="url(#clip0_147_108)">
<mask id="path-1-outside-1_147_108" maskUnits="userSpaceOnUse" x="266.162" y="36.8196" width="757.451" height="985.846" fill="black">
<rect fill="white" x="266.162" y="36.8196" width="757.451" height="985.846"/>
<path d="M332.369 90.5921C355.84 73.8778 388.417 79.3552 405.131 102.826L970.057 896.121C986.771 919.592 981.293 952.169 957.823 968.883V968.883C934.352 985.597 901.775 980.12 885.061 956.649L320.135 163.354C303.421 139.883 308.898 107.306 332.369 90.5921V90.5921Z"/>
</mask>
<path d="M332.369 90.5921C355.84 73.8778 388.417 79.3552 405.131 102.826L970.057 896.121C986.771 919.592 981.293 952.169 957.823 968.883V968.883C934.352 985.597 901.775 980.12 885.061 956.649L320.135 163.354C303.421 139.883 308.898 107.306 332.369 90.5921V90.5921Z" fill="#2F0A0A"/>
<path d="M320.135 163.354L306.593 172.997L320.135 163.354ZM885.061 956.649L898.603 947.006L885.061 956.649ZM970.057 896.121L956.515 905.765L970.057 896.121ZM405.131 102.826L418.673 93.1827L405.131 102.826ZM391.589 112.47L956.515 905.765L983.598 886.478L418.673 93.1827L391.589 112.47ZM898.603 947.006L333.677 153.71L306.593 172.997L871.519 966.293L898.603 947.006ZM333.677 153.71C322.288 137.718 326.02 115.522 342.013 104.134L322.726 77.0503C291.776 99.0905 284.553 142.047 306.593 172.997L333.677 153.71ZM948.179 955.341C932.187 966.73 909.991 962.998 898.603 947.006L871.519 966.293C893.559 997.242 936.516 1004.47 967.466 982.425L948.179 955.341ZM956.515 905.765C967.903 921.757 964.171 943.953 948.179 955.341L967.466 982.425C998.416 960.385 1005.64 917.428 983.598 886.478L956.515 905.765ZM418.673 93.1827C396.632 62.2328 353.675 55.01 322.726 77.0503L342.013 104.134C358.005 92.7456 380.201 96.4777 391.589 112.47L418.673 93.1827Z" fill="#200707" mask="url(#path-1-outside-1_147_108)"/>
<path d="M617.06 343.113L617.404 342.869L617.716 342.586L671.483 293.794L702.032 282.311L709.263 279.593L705.97 272.604L671.153 198.721L670.881 198.144L670.511 197.625L590.742 85.6092L590.081 84.6814L589.164 84.0059L529.262 39.875L523.96 35.9693L519.65 40.9472L499.003 64.7904L442.099 95.9861L441.732 96.1873L441.391 96.4301L331.964 174.356L234.18 243.99L110.339 278.856L40.2524 258.225L29.2901 254.998L31.2178 266.262C38.5982 309.386 66.2573 386.827 114.602 465.973C162.981 545.176 232.511 626.809 324.092 677.547L334.035 683.056L334.659 671.706L338.631 599.482L418.629 484.368C421.427 482.304 427.524 478.415 436.148 472.98C437.124 472.364 438.128 471.732 439.156 471.084C447.9 465.577 458.45 458.932 469.448 451.732C493.545 435.958 520.623 417 535.761 401.008L617.06 343.113Z" fill="#D15951" stroke="#200707" stroke-width="14.2497"/>
<path d="M331.184 597.293C172.679 466.424 117.733 335.767 110.073 286.798L40.2528 266.544C71.0467 453.08 246.373 635.822 328.18 670.864L331.184 597.293Z" fill="#9E8787"/>
<path d="M331.179 597.296C172.675 466.427 117.728 335.771 110.068 286.801L68.1278 272.933C98.9217 459.47 247.383 604.489 329.19 639.531L331.179 597.296Z" fill="#947777"/>
<rect x="557.835" y="317.806" width="762.358" height="104.498" rx="52.2488" transform="rotate(54.5444 557.835 317.806)" fill="#2F0A0A"/>
<rect x="561.91" y="364.47" width="688.735" height="56.9987" rx="28.4994" transform="rotate(54.5444 561.91 364.47)" fill="#451212"/>
<path d="M428.294 359.033L363.15 447.7L279.201 364.617L235.703 278.969L338.058 232.32L441.557 158.616L521.049 75.7673L555.666 97.7654L629.37 201.264L651.661 250.991L531.792 285.329L428.294 359.033Z" fill="#E16860"/>
</g>
<defs>
<clipPath id="clip0_147_108">
<rect width="1000" height="1000" fill="white" transform="translate(0.75 0.25)"/>
</clipPath>
</defs>
</svg>
