<svg width="400" height="400" viewBox="0 0 400 400" fill="none" xmlns="http://www.w3.org/2000/svg">
<g clip-path="url(#clip0_147_108)">
<mask id="path-1-outside-1_147_108" maskUnits="userSpaceOnUse" x="105.886" y="14.1169" width="303.748" height="394.965" fill="black">
<rect fill="white" x="105.886" y="14.1169" width="303.748" height="394.965"/>
<path d="M132.648 36.1368C142.036 29.4511 155.067 31.6421 161.752 41.0305L387.723 358.349C394.408 367.737 392.217 380.768 382.829 387.453V387.453C373.441 394.139 360.41 391.948 353.724 382.56L127.754 65.2416C121.068 55.8532 123.259 42.8225 132.648 36.1368V36.1368Z"/>
</mask>
<path d="M132.648 36.1368C142.036 29.4511 155.067 31.6421 161.752 41.0305L387.723 358.349C394.408 367.737 392.217 380.768 382.829 387.453V387.453C373.441 394.139 360.41 391.948 353.724 382.56L127.754 65.2416C121.068 55.8532 123.259 42.8225 132.648 36.1368V36.1368Z" fill="#2F0A0A"/>
<path d="M127.754 65.2416L122.337 69.099L127.754 65.2416ZM353.724 382.56L359.141 378.702L353.724 382.56ZM156.336 44.8879L382.306 362.206L393.139 354.491L167.169 37.1731L156.336 44.8879ZM359.141 378.702L133.171 61.3842L122.337 69.099L348.308 386.417L359.141 378.702ZM133.171 61.3842C128.615 54.9874 130.108 46.1089 136.505 41.5536L128.79 30.7201C116.41 39.5362 113.521 56.719 122.337 69.099L133.171 61.3842ZM378.972 382.036C372.575 386.592 363.696 385.099 359.141 378.702L348.308 386.417C357.124 398.797 374.306 401.686 386.686 392.87L378.972 382.036ZM382.306 362.206C386.861 368.603 385.368 377.481 378.972 382.036L386.686 392.87C399.066 384.054 401.955 366.871 393.139 354.491L382.306 362.206ZM167.169 37.1731C158.353 24.7931 141.17 21.904 128.79 30.7201L136.505 41.5536C142.902 36.9982 151.78 38.491 156.336 44.8879L167.169 37.1731Z" fill="#200707" mask="url(#path-1-outside-1_147_108)"/>
<path d="M246.524 137.145L246.661 137.048L246.786 136.934L268.293 117.417L280.513 112.824L283.405 111.737L282.088 108.942L268.161 79.3884L268.052 79.1578L267.904 78.9501L235.997 34.1437L235.732 33.7726L235.366 33.5024L211.405 15.85L209.284 14.2877L207.56 16.2789L199.301 25.8161L176.54 38.2945L176.393 38.3749L176.256 38.472L132.486 69.6424L93.3721 97.4961L43.8358 111.442L15.801 103.19L11.416 101.899L12.1871 106.405C15.1393 123.655 26.2029 154.631 45.5407 186.289C64.8924 217.971 92.7043 250.624 129.337 270.919L133.314 273.122L133.564 268.583L135.152 239.693L167.152 193.647C168.271 192.822 170.71 191.266 174.159 189.092C174.55 188.846 174.951 188.593 175.363 188.334C178.86 186.131 183.08 183.473 187.479 180.593C197.118 174.283 207.949 166.7 214.005 160.303L246.524 137.145Z" fill="#D15951" stroke="#200707" stroke-width="5.69987"/>
<path d="M132.174 238.817C68.7718 186.469 46.7932 134.207 43.7291 114.619L15.8011 106.517C28.1187 181.132 98.2492 254.229 130.972 268.246L132.174 238.817Z" fill="#9E8787"/>
<path d="M132.172 238.818C68.7699 186.471 46.7913 134.208 43.7272 114.62L26.9512 109.073C39.2688 183.688 98.6532 241.695 131.376 255.712L132.172 238.818Z" fill="#947777"/>
<rect x="222.834" y="127.022" width="304.943" height="41.7991" rx="20.8995" transform="rotate(54.5444 222.834 127.022)" fill="#2F0A0A"/>
<rect x="224.464" y="145.688" width="275.494" height="22.7995" rx="11.3997" transform="rotate(54.5444 224.464 145.688)" fill="#451212"/>
<path d="M171.018 143.513L144.96 178.98L111.381 145.747L93.9813 111.488L134.923 92.8281L176.323 63.3465L208.12 30.2069L221.966 39.0062L251.448 80.4055L260.365 100.296L212.417 114.032L171.018 143.513Z" fill="#E16860"/>
</g>
<defs>
<clipPath id="clip0_147_108">
<rect width="400" height="400" fill="white"/>
</clipPath>
</defs>
</svg>
