<svg width="1000" height="1000" viewBox="0 0 1000 1000" fill="none" xmlns="http://www.w3.org/2000/svg">
<g filter="url(#filter0_i_629_70653)">
<path d="M65.73 502.287C183.827 617.84 372.897 814.129 449.069 888.458C466.69 905.653 493.034 905.081 511.183 888.444L932.294 502.426C943.039 492.577 949.156 478.67 949.156 464.094V258.516C949.156 242.343 941.63 227.09 928.795 217.249L767.686 93.7325C758.608 86.7723 747.487 83 736.048 83H591.925C574.892 83 558.939 91.342 549.22 105.331L480.031 204.919L417.189 106.929C407.627 92.0175 391.131 83 373.417 83H251.057C239.018 83 227.352 87.177 218.05 94.8182L68.9935 217.258C56.969 227.135 50 241.878 50 257.439V464.945C50 479.022 55.668 492.442 65.73 502.287Z" fill="#76B559"/>
</g>
<path d="M65.73 502.287C183.827 617.84 372.897 814.129 449.069 888.458C466.69 905.653 493.034 905.081 511.183 888.444L932.294 502.426C943.039 492.577 949.156 478.67 949.156 464.094V258.516C949.156 242.343 941.63 227.09 928.795 217.249L767.686 93.7325C758.608 86.7723 747.487 83 736.048 83H591.925C574.892 83 558.939 91.342 549.22 105.331L480.031 204.919L417.189 106.929C407.627 92.0175 391.131 83 373.417 83H251.057C239.018 83 227.352 87.177 218.05 94.8182L68.9935 217.258C56.969 227.135 50 241.878 50 257.439V464.945C50 479.022 55.668 492.442 65.73 502.287Z" stroke="#5A744E" stroke-width="52.2319"/>
<path d="M235.925 526.026C323.211 611.908 467.098 754.923 472.86 766.594L731.754 526.24C745.41 513.563 753.169 495.771 753.169 477.138V385.386C753.169 364.691 743.606 345.158 727.26 332.466L654.507 275.975C642.753 266.849 628.296 261.896 613.416 261.896H562.807C538.521 261.896 516.137 275.038 504.301 296.244L472.86 352.584L444.85 298.212C433.361 275.91 410.376 261.896 385.289 261.896H349.144C333.49 261.896 318.329 267.377 306.295 277.389L240.06 332.492C224.759 345.222 215.909 364.095 215.909 383.999V478.232C215.909 496.223 223.101 513.408 235.925 526.026Z" fill="#84C865"/>
<defs>
<filter id="filter0_i_629_70653" x="23.8838" y="56.8838" width="951.389" height="968.056" filterUnits="userSpaceOnUse" color-interpolation-filters="sRGB">
<feFlood flood-opacity="0" result="BackgroundImageFix"/>
<feBlend mode="normal" in="SourceGraphic" in2="BackgroundImageFix" result="shape"/>
<feColorMatrix in="SourceAlpha" type="matrix" values="0 0 0 0 0 0 0 0 0 0 0 0 0 0 0 0 0 0 127 0" result="hardAlpha"/>
<feOffset dy="97.6836"/>
<feGaussianBlur stdDeviation="51.2839"/>
<feComposite in2="hardAlpha" operator="arithmetic" k2="-1" k3="1"/>
<feColorMatrix type="matrix" values="0 0 0 0 0 0 0 0 0 0 0 0 0 0 0 0 0 0 0.25 0"/>
<feBlend mode="normal" in2="shape" result="effect1_innerShadow_629_70653"/>
</filter>
</defs>
</svg>
