<svg width="400" height="400" viewBox="0 0 400 400" fill="none" xmlns="http://www.w3.org/2000/svg">
<rect x="33.4137" y="166.807" width="358.586" height="65.6341" rx="16.8432" fill="#2E2E2E"/>
<rect x="22.2079" y="172.41" width="362.588" height="54.4283" rx="16.8432" fill="#A2A2A2"/>
<g filter="url(#filter0_i_1_87)">
<rect x="47.8212" y="181.214" width="328.171" height="36.8191" rx="11.2288" fill="#4E4646"/>
</g>
<circle cx="52.6237" cy="199.624" r="45.6237" fill="#2E2E2E"/>
<circle cx="52.6238" cy="199.624" r="40.0208" fill="#A2A2A2"/>
<g filter="url(#filter1_i_1_87)">
<path d="M25.8098 200.824C34.3476 209.095 51.5832 225.957 52.2235 227.238L81.0385 200.824V185.216L69.0323 176.011H57.4262L52.2235 185.216L47.421 176.011H37.0156L25.8098 185.216V200.824Z" fill="#76B559"/>
</g>
<path d="M25.8098 200.824C34.3476 209.095 51.5832 225.957 52.2235 227.238L81.0385 200.824V185.216L69.0323 176.011H57.4262L52.2235 185.216L47.421 176.011H37.0156L25.8098 185.216V200.824Z" stroke="#420909" stroke-width="3.20823"/>
<defs>
<filter id="filter0_i_1_87" x="47.8212" y="181.214" width="328.171" height="40.0274" filterUnits="userSpaceOnUse" color-interpolation-filters="sRGB">
<feFlood flood-opacity="0" result="BackgroundImageFix"/>
<feBlend mode="normal" in="SourceGraphic" in2="BackgroundImageFix" result="shape"/>
<feColorMatrix in="SourceAlpha" type="matrix" values="0 0 0 0 0 0 0 0 0 0 0 0 0 0 0 0 0 0 127 0" result="hardAlpha"/>
<feOffset dy="3.20823"/>
<feGaussianBlur stdDeviation="1.60412"/>
<feComposite in2="hardAlpha" operator="arithmetic" k2="-1" k3="1"/>
<feColorMatrix type="matrix" values="0 0 0 0 0 0 0 0 0 0 0 0 0 0 0 0 0 0 0.25 0"/>
<feBlend mode="normal" in2="shape" result="effect1_innerShadow_1_87"/>
</filter>
<filter id="filter1_i_1_87" x="24.2057" y="174.407" width="58.437" height="58.6585" filterUnits="userSpaceOnUse" color-interpolation-filters="sRGB">
<feFlood flood-opacity="0" result="BackgroundImageFix"/>
<feBlend mode="normal" in="SourceGraphic" in2="BackgroundImageFix" result="shape"/>
<feColorMatrix in="SourceAlpha" type="matrix" values="0 0 0 0 0 0 0 0 0 0 0 0 0 0 0 0 0 0 127 0" result="hardAlpha"/>
<feOffset dy="3.20823"/>
<feGaussianBlur stdDeviation="1.60412"/>
<feComposite in2="hardAlpha" operator="arithmetic" k2="-1" k3="1"/>
<feColorMatrix type="matrix" values="0 0 0 0 0 0 0 0 0 0 0 0 0 0 0 0 0 0 0.25 0"/>
<feBlend mode="normal" in2="shape" result="effect1_innerShadow_1_87"/>
</filter>
</defs>
</svg>
