<svg width="400" height="400" viewBox="0 0 400 400" fill="none" xmlns="http://www.w3.org/2000/svg">
<rect x="33.4137" y="166.807" width="358.586" height="65.6341" rx="21" fill="#2E2E2E"/>
<rect x="22.2079" y="172.41" width="362.588" height="54.4283" rx="21" fill="#A2A2A2"/>
<g filter="url(#filter0_i_1_89)">
<rect x="47.8212" y="181.214" width="328.17" height="36.8191" rx="14" fill="#4E4646"/>
</g>
<circle cx="52.6237" cy="199.624" r="45.6237" fill="#2E2E2E"/>
<circle cx="52.6237" cy="199.624" r="40.0208" fill="#A2A2A2"/>
<g filter="url(#filter1_i_1_89)">
<path d="M41.4179 226.438C45.0198 228.038 47.1542 228.305 51.4231 229.639C61.8285 230.039 59.4272 229.639 64.6299 227.238C67.5369 225.896 75.4356 219.234 79.4376 212.43C82.6393 206.027 82.6393 202.025 82.6393 192.42C79.8378 196.822 76.6362 201.625 69.8326 203.626C71.4335 200.824 71.4335 200.612 74.6351 191.219C77.7954 181.948 68.2318 176.412 63.0291 174.411C65.8306 178.813 69.5925 188.098 62.2287 190.019C54.8649 191.94 56.4924 179.213 57.4262 170.008C54.6247 172.41 49.422 179.133 47.8212 190.019C48.4615 183.615 37.4158 170.809 31.8129 173.61C33.8139 175.478 41.0177 189.779 39.4168 198.423C35.4148 191.62 24.2089 184.016 19.0062 191.219C27.0104 194.021 27.6283 197.236 27.8108 198.423C28.6112 203.626 31.0125 213.097 31.8129 216.032C33.4501 222.035 37.816 224.837 41.4179 226.438Z" fill="#FE4848"/>
</g>
<path d="M41.4179 226.438C45.0198 228.038 47.1542 228.305 51.4231 229.639C61.8285 230.039 59.4272 229.639 64.6299 227.238C67.5369 225.896 75.4356 219.234 79.4376 212.43C82.6393 206.027 82.6393 202.025 82.6393 192.42C79.8378 196.822 76.6362 201.625 69.8326 203.626C71.4335 200.824 71.4335 200.612 74.6351 191.219C77.7954 181.948 68.2318 176.412 63.0291 174.411C65.8306 178.813 69.5925 188.098 62.2287 190.019C54.8649 191.94 56.4924 179.213 57.4262 170.008C54.6247 172.41 49.422 179.133 47.8212 190.019C48.4615 183.615 37.4158 170.809 31.8129 173.61C33.8139 175.478 41.0177 189.779 39.4168 198.423C35.4148 191.62 24.2089 184.016 19.0062 191.219C27.0104 194.021 27.6283 197.236 27.8108 198.423C28.6112 203.626 31.0125 213.097 31.8129 216.032C33.4501 222.035 37.816 224.837 41.4179 226.438Z" stroke="#302F2F" stroke-width="3"/>
<path d="M46.5275 225.184C48.2491 225.978 49.2693 226.11 51.3098 226.771C56.2835 226.969 55.1357 226.771 57.6225 225.581C59.012 224.916 62.7875 221.615 64.7004 218.243C66.2308 215.07 66.2308 213.087 66.2308 208.328C64.8917 210.509 63.3614 212.889 60.1094 213.881C60.8745 212.492 60.8745 212.387 62.4049 207.733C63.9154 203.139 59.3442 200.395 56.8573 199.404C58.1964 201.585 59.9946 206.186 56.4748 207.138C52.9549 208.09 53.7329 201.784 54.1792 197.222C52.8402 198.412 50.3533 201.744 49.5882 207.138C49.8942 203.965 44.6145 197.619 41.9364 199.007C42.8929 199.933 46.3362 207.019 45.571 211.303C43.658 207.931 38.3018 204.163 35.815 207.733C39.6409 209.121 39.9362 210.715 40.0234 211.303C40.406 213.881 41.5538 218.574 41.9364 220.028C42.719 223.003 44.8058 224.391 46.5275 225.184Z" fill="#FF7236"/>
<defs>
<filter id="filter0_i_1_89" x="47.8212" y="181.214" width="328.17" height="40.8192" filterUnits="userSpaceOnUse" color-interpolation-filters="sRGB">
<feFlood flood-opacity="0" result="BackgroundImageFix"/>
<feBlend mode="normal" in="SourceGraphic" in2="BackgroundImageFix" result="shape"/>
<feColorMatrix in="SourceAlpha" type="matrix" values="0 0 0 0 0 0 0 0 0 0 0 0 0 0 0 0 0 0 127 0" result="hardAlpha"/>
<feOffset dy="4"/>
<feGaussianBlur stdDeviation="2"/>
<feComposite in2="hardAlpha" operator="arithmetic" k2="-1" k3="1"/>
<feColorMatrix type="matrix" values="0 0 0 0 0 0 0 0 0 0 0 0 0 0 0 0 0 0 0.25 0"/>
<feBlend mode="normal" in2="shape" result="effect1_innerShadow_1_89"/>
</filter>
<filter id="filter1_i_1_89" x="16.6131" y="166.429" width="67.5262" height="68.8453" filterUnits="userSpaceOnUse" color-interpolation-filters="sRGB">
<feFlood flood-opacity="0" result="BackgroundImageFix"/>
<feBlend mode="normal" in="SourceGraphic" in2="BackgroundImageFix" result="shape"/>
<feColorMatrix in="SourceAlpha" type="matrix" values="0 0 0 0 0 0 0 0 0 0 0 0 0 0 0 0 0 0 127 0" result="hardAlpha"/>
<feOffset dy="4"/>
<feGaussianBlur stdDeviation="2"/>
<feComposite in2="hardAlpha" operator="arithmetic" k2="-1" k3="1"/>
<feColorMatrix type="matrix" values="0 0 0 0 0 0 0 0 0 0 0 0 0 0 0 0 0 0 0.25 0"/>
<feBlend mode="normal" in2="shape" result="effect1_innerShadow_1_89"/>
</filter>
</defs>
</svg>
