<svg width="400" height="400" viewBox="0 0 400 400" fill="none" xmlns="http://www.w3.org/2000/svg">
<path fill-rule="evenodd" clip-rule="evenodd" d="M50.2568 166C40.9545 166 33.4136 173.541 33.4136 182.843V214.791C33.4136 224.093 40.9545 231.634 50.2568 231.634H375.157C384.459 231.634 392 224.093 392 214.791V182.843C392 173.541 384.459 166 375.157 166H50.2568ZM59.0499 180.408C52.8484 180.408 47.8211 185.435 47.8211 191.636V205.998C47.8211 212.199 52.8484 217.227 59.0499 217.227H364.763C370.964 217.227 375.992 212.199 375.992 205.998V191.636C375.992 185.435 370.964 180.408 364.763 180.408H59.0499Z" fill="#B68B8B"/>
<path fill-rule="evenodd" clip-rule="evenodd" d="M22 188.037C22 178.734 29.541 171.193 38.8432 171.193H371.157C380.459 171.193 388 178.734 388 188.037V209.35C388 218.652 380.459 226.193 371.157 226.193H38.8432C29.541 226.193 22 218.652 22 209.35V206.193C22 213.925 28.268 220.193 36 220.193H367C374.732 220.193 381 213.925 381 206.193V191.193C381 183.461 374.732 177.193 367 177.193H36C28.268 177.193 22 183.461 22 191.193V188.037Z" fill="#B68B8B"/>
<g filter="url(#filter0_i_428_1666)">
<circle cx="52.6237" cy="199.624" r="45.6237" fill="#B68B8B"/>
<g filter="url(#filter1_i_428_1666)">
<circle cx="52.6238" cy="199.623" r="40.0208" fill="#B68B8B"/>
</g>
<circle cx="52.5" cy="199.5" r="30.5" fill="#DCA6A6"/>
</g>
<ellipse cx="52.5" cy="220" rx="10.5" ry="10" fill="#FF3F33"/>
<rect x="48" y="187" width="9" height="28" rx="4.5" fill="#FF3F33"/>
<g filter="url(#filter2_i_428_1666)">
<path d="M61.4998 207.856C75.5956 217.794 65.4998 234.956 54.1056 234.956C38.4869 234.956 30.3653 216.138 43.7192 207.856L43.7192 170.39C51.4348 162.44 59.0515 167.077 61.5245 170.39C61.5245 179.959 61.4998 191.957 61.4998 207.856Z" fill="white" fill-opacity="0.1"/>
</g>
<path d="M61.4998 207.856C75.5956 217.794 65.4998 234.956 54.1056 234.956C38.4869 234.956 30.3653 216.138 43.7192 207.856L43.7192 170.39C51.4348 162.44 59.0515 167.077 61.5245 170.39C61.5245 179.959 61.4998 191.957 61.4998 207.856Z" stroke="#4F1916" stroke-width="3"/>
<rect x="53" y="175" width="6" height="3" rx="1.5" fill="#302F2F"/>
<rect x="53" y="175" width="6" height="3" rx="1.5" fill="#302F2F"/>
<rect x="51" y="182" width="8" height="3" rx="1.5" fill="#302F2F"/>
<rect x="51" y="182" width="8" height="3" rx="1.5" fill="#302F2F"/>
<rect x="53" y="189" width="6" height="3" rx="1.5" fill="#302F2F"/>
<rect x="53" y="189" width="6" height="3" rx="1.5" fill="#302F2F"/>
<rect x="51" y="196" width="8" height="3" rx="1.5" fill="#302F2F"/>
<rect x="51" y="196" width="8" height="3" rx="1.5" fill="#302F2F"/>
<defs>
<filter id="filter0_i_428_1666" x="7" y="154" width="91.2476" height="95.2476" filterUnits="userSpaceOnUse" color-interpolation-filters="sRGB">
<feFlood flood-opacity="0" result="BackgroundImageFix"/>
<feBlend mode="normal" in="SourceGraphic" in2="BackgroundImageFix" result="shape"/>
<feColorMatrix in="SourceAlpha" type="matrix" values="0 0 0 0 0 0 0 0 0 0 0 0 0 0 0 0 0 0 127 0" result="hardAlpha"/>
<feOffset dy="4"/>
<feGaussianBlur stdDeviation="2"/>
<feComposite in2="hardAlpha" operator="arithmetic" k2="-1" k3="1"/>
<feColorMatrix type="matrix" values="0 0 0 0 0 0 0 0 0 0 0 0 0 0 0 0 0 0 0.25 0"/>
<feBlend mode="normal" in2="shape" result="effect1_innerShadow_428_1666"/>
</filter>
<filter id="filter1_i_428_1666" x="12.603" y="159.603" width="80.0415" height="84.0415" filterUnits="userSpaceOnUse" color-interpolation-filters="sRGB">
<feFlood flood-opacity="0" result="BackgroundImageFix"/>
<feBlend mode="normal" in="SourceGraphic" in2="BackgroundImageFix" result="shape"/>
<feColorMatrix in="SourceAlpha" type="matrix" values="0 0 0 0 0 0 0 0 0 0 0 0 0 0 0 0 0 0 127 0" result="hardAlpha"/>
<feOffset dy="4"/>
<feGaussianBlur stdDeviation="2"/>
<feComposite in2="hardAlpha" operator="arithmetic" k2="-1" k3="1"/>
<feColorMatrix type="matrix" values="0 0 0 0 0 0 0 0 0 0 0 0 0 0 0 0 0 0 0.25 0"/>
<feBlend mode="normal" in2="shape" result="effect1_innerShadow_428_1666"/>
</filter>
<filter id="filter2_i_428_1666" x="35.4922" y="164.5" width="34.3994" height="75.2561" filterUnits="userSpaceOnUse" color-interpolation-filters="sRGB">
<feFlood flood-opacity="0" result="BackgroundImageFix"/>
<feBlend mode="normal" in="SourceGraphic" in2="BackgroundImageFix" result="shape"/>
<feColorMatrix in="SourceAlpha" type="matrix" values="0 0 0 0 0 0 0 0 0 0 0 0 0 0 0 0 0 0 127 0" result="hardAlpha"/>
<feOffset dy="5"/>
<feGaussianBlur stdDeviation="1.65"/>
<feComposite in2="hardAlpha" operator="arithmetic" k2="-1" k3="1"/>
<feColorMatrix type="matrix" values="0 0 0 0 0 0 0 0 0 0 0 0 0 0 0 0 0 0 0.25 0"/>
<feBlend mode="normal" in2="shape" result="effect1_innerShadow_428_1666"/>
</filter>
</defs>
</svg>
