<svg width="400" height="400" viewBox="0 0 400 400" fill="none" xmlns="http://www.w3.org/2000/svg">
<g clip-path="url(#clip0_388_12)">
<path d="M158.719 362.539C158.719 362.538 158.72 362.537 158.72 362.536L158.719 362.539ZM197.961 346.27L197.958 346.267C197.959 346.268 197.96 346.269 197.961 346.27ZM220.14 299.426C223.682 297.005 222.2 291.476 217.922 291.15L200.865 289.853L205.927 276.907C207.396 273.152 203.606 269.489 199.903 271.083L181.806 278.876L175.898 265.796L172.794 267.198L175.898 265.796C174.466 262.625 170.145 262.178 168.093 264.988L157.438 279.578L140.916 272.27C137.734 270.862 134.216 273.41 134.561 276.872L135.984 291.153L116.415 293.454C112.411 293.924 110.961 298.992 114.11 301.509L124.967 310.189L110.844 319.842C107.302 322.263 108.783 327.792 113.061 328.118L130.119 329.415L125.056 342.361C123.588 346.116 127.377 349.779 131.08 348.185L148.808 340.551L156.549 364.647C157.891 368.823 163.789 368.857 165.179 364.696L175.737 333.078L193.064 351.003C196.331 354.383 201.95 351.181 200.708 346.648L195.61 328.043L214.568 325.814C218.573 325.344 220.023 320.276 216.874 317.759L206.016 309.079L220.14 299.426ZM151.103 339.563C151.102 339.564 151.101 339.564 151.1 339.565L151.103 339.563Z" fill="#447427" stroke="#2C522C" stroke-width="6.81061"/>
<path d="M210.785 235.403L207.074 236.22C206.2 232.248 210.125 228.917 213.902 230.425L228.38 236.209L234.959 218.717C236.509 214.596 242.217 214.277 244.216 218.2L251.134 231.773L264.568 221.167C268.165 218.328 273.383 221.341 272.722 225.875M210.785 235.403L272.722 225.875M210.785 235.403L207.074 236.22L210.893 253.568L193.96 258.935C190.083 260.163 189.161 265.229 192.355 267.745L204.603 277.392L192.744 291.835C189.95 295.239 192.528 300.341 196.925 300.111L212.139 299.315L209.671 316.252C209.01 320.786 214.228 323.799 217.824 320.96L231.259 310.354L238.176 323.927C240.176 327.85 245.883 327.532 247.433 323.41L253.868 306.303L278.416 319.092C282.901 321.429 287.666 316.475 285.156 312.084L268.137 282.315L293.448 284.05C298.819 284.418 300.982 277.262 296.306 274.594L278.186 264.252L289.648 250.292C292.443 246.889 289.865 241.786 285.468 242.016L285.666 245.811L285.468 242.016L270.254 242.812L272.722 225.875M210.785 235.403L268.962 225.327L272.722 225.875M211.083 237.483L211.186 237.224L211.083 237.483L211.086 237.485C211.085 237.484 211.084 237.484 211.083 237.483ZM196.256 266.18L196.172 265.914L196.256 266.18L196.259 266.179C196.258 266.179 196.257 266.179 196.256 266.18ZM244.948 320.476L244.946 320.472C244.947 320.473 244.947 320.474 244.948 320.476ZM269.278 227.133C269.277 227.133 269.276 227.134 269.275 227.135L269.278 227.133L268.789 226.513L269.278 227.133ZM265.201 224.782C265.201 224.781 265.201 224.78 265.201 224.779L265.982 224.893L265.201 224.779L265.201 224.782ZM212.584 296.258L212.583 296.262C212.584 296.261 212.584 296.26 212.584 296.258ZM233.683 308.44C233.682 308.441 233.681 308.442 233.679 308.443L233.683 308.44L232.114 306.451L233.683 308.44Z" fill="#447427" stroke="#2C522C" stroke-width="7.60044"/>
<path d="M183.986 121.637L183.983 121.639C183.984 121.639 183.985 121.638 183.986 121.637ZM154.551 66.8356L143.732 92.279L137.252 74.1276C135.322 68.7188 127.314 70.1204 127.334 75.8634L127.403 94.7399L116.207 92.202C112.053 91.2602 108.639 95.519 110.462 99.3693L116.894 112.953L105.092 119.396C101.545 121.332 101.545 126.426 105.092 128.362L116.894 134.805L110.462 148.389C108.639 152.239 112.053 156.498 116.207 155.556L127.894 152.907L129.415 167.334C129.894 171.876 135.637 173.554 138.486 169.985L146.375 160.103L154.264 169.985C157.113 173.554 162.856 171.876 163.335 167.334L164.856 152.907L176.543 155.556C180.697 156.498 184.111 152.239 182.288 148.389L175.856 134.805L187.658 128.362C191.205 126.426 191.205 121.332 187.658 119.396L175.856 112.953L182.288 99.3693C184.111 95.519 180.697 91.2602 176.543 92.202L165.181 94.7775L164.356 68.6731C164.184 63.2023 156.693 61.7988 154.551 66.8356ZM165.158 150.048C165.158 150.05 165.157 150.051 165.157 150.052L165.158 150.048L162.618 149.781L165.158 150.048ZM173.739 135.96L173.743 135.958C173.741 135.959 173.74 135.96 173.739 135.96L172.516 133.719L173.739 135.96ZM108.764 126.12L108.671 125.951L108.764 126.12L108.766 126.119C108.765 126.12 108.764 126.12 108.764 126.12Z" fill="#447427" stroke="#2C522C" stroke-width="7.66154"/>
<path d="M242.444 174.094L241.609 177.295C241.608 177.295 241.607 177.294 241.606 177.294L241.609 177.295L242.444 174.094ZM242.444 174.094L239.507 172.571C239.506 172.572 239.506 172.573 239.506 172.574L239.507 172.571L242.444 174.094ZM225.074 168.581L224.582 167.728L225.074 168.581L225.078 168.578C225.077 168.579 225.075 168.58 225.074 168.581ZM352.279 136.807L316.471 137.403L334.539 120.176C339.923 115.043 334.048 106.304 327.262 109.353L304.96 119.375L302.067 104.79L297.2 105.755L302.067 104.79C300.993 99.3768 294.156 97.5796 290.559 101.765L277.872 116.531L264.032 105.957L261.02 109.9L264.032 105.957C259.873 102.78 253.845 105.462 253.421 110.679L252.012 128.039L232.549 127.58C227.033 127.45 223.791 133.733 227.093 138.154L236.383 150.589L220.111 159.987C214.988 162.945 216.026 170.626 221.751 172.118L237.599 176.25L230.06 190.79C227.337 196.041 232.348 201.954 237.974 200.128L255.849 194.331L258.868 209.556C259.942 214.968 266.78 216.766 270.376 212.58L283.064 197.814L296.903 208.388C301.063 211.565 307.091 208.883 307.514 203.666L308.923 186.306L328.386 186.765C333.902 186.895 337.144 180.612 333.842 176.191L329.867 179.161L333.842 176.191L324.81 164.102L355.268 149.378C361.652 146.293 359.368 136.689 352.279 136.807ZM305.801 186.233L305.806 186.233C305.804 186.233 305.802 186.233 305.801 186.233Z" fill="#447427" stroke="#2C522C" stroke-width="9.924"/>
<path d="M43.3618 171.038L56.3553 185.203L34.4181 184.483C29.3235 184.316 27.5794 191.2 32.1389 193.479L52.642 203.726L42.6739 211.268C39.1334 213.947 40.8764 219.586 45.3109 219.8L60.2971 220.522L57.8861 231.158C57.0103 235.021 60.9706 238.196 64.5509 236.5L63.0264 233.281L64.5509 236.5L77.1823 230.519L83.1733 241.493C84.9739 244.792 89.7104 244.792 91.511 241.493L97.502 230.519L110.133 236.5C113.714 238.196 117.674 235.021 116.798 231.158L114.335 220.291L127.751 218.876C131.974 218.431 133.535 213.09 130.216 210.441L121.027 203.105L130.216 195.769C133.535 193.12 131.974 187.779 127.751 187.334L114.335 185.92L116.798 175.052C117.674 171.189 113.714 168.014 110.133 169.71L97.502 175.691L91.511 164.717C89.7104 161.419 84.9739 161.419 83.1733 164.717L77.1302 175.787L48.7529 163.47C44.0491 161.429 39.8956 167.259 43.3617 171.038L45.9869 168.63L43.3618 171.038ZM55.6926 201.418L55.6894 201.421C55.6905 201.42 55.6915 201.419 55.6926 201.418ZM64.8342 232.733L64.8352 232.729C64.8349 232.73 64.8345 232.731 64.8342 232.733Z" fill="#447427" stroke="#2C522C" stroke-width="7.12439"/>
<path d="M115.39 279.571L114.528 282.93L99.9095 279.181L95.8473 293.716M115.39 279.571L95.8473 293.716M115.39 279.571L114.528 282.93C118.213 283.875 121.399 280.215 119.955 276.696L114.637 263.739L129.247 258.435C132.983 257.078 133.379 251.95 129.895 250.036L117.8 243.391L126.651 231.602C129.096 228.345 126.441 223.746 122.398 224.235L107.762 226.006L108.055 212.209C108.14 208.234 103.501 206.013 100.458 208.571L89.0974 218.118L76.9079 194.797C74.7206 190.612 68.4056 192.011 68.191 196.729L66.9839 223.269L51.3662 218.813C47.5016 217.711 44.1672 221.723 45.9584 225.32L50.4654 234.372L30.0948 226.03C25.4036 224.109 21.4861 230.047 25.0986 233.604L49.497 257.624L27.2014 271.137C22.9889 273.69 25.1575 280.183 30.0588 279.692L59.9716 276.697L59.6768 290.576L63.1439 290.65L59.6768 290.576C59.5924 294.551 64.2311 296.772 67.2745 294.214L79.1732 284.214M115.39 279.571L79.1732 284.214M95.8473 293.716C94.8234 297.379 90.0603 298.308 87.7349 295.298L79.1732 284.214M95.8473 293.716L79.1732 284.214M89.1675 291.849C89.1677 291.848 89.168 291.847 89.1682 291.846L89.1675 291.849L89.5313 291.95L89.1675 291.849Z" fill="#447427" stroke="#2C522C" stroke-width="6.93574"/>
<path d="M233.575 212.575C232.506 206.924 234.068 201.093 237.82 196.733L270.384 158.893C274.136 154.534 279.669 152.12 285.417 152.335L335.304 154.202C341.052 154.417 346.389 157.237 349.805 161.865L379.45 202.033C382.865 206.661 383.987 212.592 382.499 218.148L369.578 266.369C368.089 271.925 364.152 276.501 358.88 278.801L313.123 298.764C307.851 301.065 301.818 300.839 296.733 298.151L252.596 274.824C247.511 272.136 243.926 267.279 242.857 261.628L233.575 212.575Z" fill="#D9C835" stroke="#A6992A" stroke-width="12.6"/>
<path d="M252.675 215.004L284.769 177.71L333.937 179.55L363.155 219.138L350.42 266.664L305.323 286.339L261.822 263.349L252.675 215.004Z" fill="#B7AC47"/>
<path d="M252.948 209.276L285.042 171.982L334.21 173.822L363.427 213.41L350.692 260.936L305.595 280.612L262.095 257.621L252.948 209.276Z" fill="#F2E35E"/>
<path d="M65.5876 156.155C64.351 151.54 65.6704 146.615 69.049 143.237L97.2695 115.016C100.648 111.638 105.572 110.318 110.187 111.555L148.737 121.884C153.353 123.121 156.957 126.726 158.194 131.341L168.524 169.891C169.76 174.506 168.441 179.43 165.062 182.809L136.842 211.029C133.463 214.408 128.539 215.727 123.924 214.491L85.3737 204.161C80.7585 202.925 77.1537 199.32 75.917 194.705L65.5876 156.155Z" fill="#D9C835" stroke="#A6992A" stroke-width="8.91579"/>
<path d="M56.6061 304.26C51.9274 300.914 49.0269 295.62 48.7255 289.876L46.1094 240.022C45.808 234.278 48.1385 228.71 52.4413 224.893L89.7878 191.764C94.0906 187.947 99.8973 186.297 105.564 187.282L154.751 195.825C160.417 196.809 165.328 200.32 168.091 205.365L192.079 249.147C194.843 254.191 195.159 260.219 192.939 265.525L173.665 311.577C171.444 316.883 166.928 320.889 161.396 322.461L113.374 336.105C107.841 337.677 101.893 336.644 97.2147 333.298L56.6061 304.26Z" fill="#D9C835" stroke="#A6992A" stroke-width="12.6"/>
<path d="M67.2444 293.45L64.6661 244.315L101.474 211.665L149.95 220.084L173.592 263.235L154.596 308.622L107.267 322.069L67.2444 293.45Z" fill="#B7AC47"/>
<path d="M68.3279 288.487L65.7496 239.352L102.557 206.701L151.034 215.121L174.676 258.271L155.68 303.659L108.351 317.106L68.3279 288.487Z" fill="#F2E35E"/>
<path d="M83.0975 240.192L118.806 219.575L154.515 240.192L154.515 281.425L118.806 302.041L83.0975 281.425L83.0975 240.192Z" fill="#D6C31C"/>
<path d="M93.3808 180.628C91.7987 172.266 94.1103 163.639 99.6612 157.189L147.841 101.204C153.392 94.7533 161.578 91.1818 170.081 91.5L243.892 94.2618C252.396 94.58 260.292 98.7532 265.346 105.6L309.207 165.03C314.26 171.877 315.92 180.652 313.718 188.872L294.601 260.218C292.398 268.438 286.573 275.207 278.773 278.61L211.073 308.147C203.274 311.55 194.349 311.216 186.825 307.24L121.522 272.726C113.998 268.75 108.695 261.564 107.113 253.202L93.3808 180.628Z" fill="#D9C835" stroke="#A6992A" stroke-width="18.6421"/>
<path d="M123.712 180.267L171.196 125.089L243.942 127.811L287.17 186.383L268.329 256.699L201.606 285.81L137.246 251.794L123.712 180.267Z" fill="#B7AC47"/>
<path d="M122.043 175.747L169.527 120.569L242.273 123.291L285.501 181.863L266.66 252.179L199.937 281.29L135.576 247.275L122.043 175.747Z" fill="#F2E35E"/>
<path d="M155.26 184.648L183.279 152.089L226.203 153.696L251.71 188.257L240.593 229.747L201.223 246.925L163.246 226.853L155.26 184.648Z" fill="#D6C31C"/>
<path d="M177.476 190.601L192.476 173.171L215.456 174.03L229.111 192.533L223.16 214.745L202.083 223.941L181.752 213.196L177.476 190.601Z" fill="#9C9128"/>
</g>
<defs>
<clipPath id="clip0_388_12">
<rect width="400" height="400" fill="white"/>
</clipPath>
</defs>
</svg>
