<svg width="501" height="501" viewBox="0 0 501 501" fill="none" xmlns="http://www.w3.org/2000/svg">
<g clip-path="url(#clip0_388_12)">
<path d="M257.937 387.106L275.593 375.039C280.022 372.013 278.169 365.1 272.821 364.693L251.496 363.071L257.825 346.886C259.661 342.192 254.924 337.612 250.294 339.606L227.669 349.348L220.283 332.996C218.493 329.032 213.092 328.472 210.526 331.985L197.206 350.226L176.55 341.089C172.572 339.33 168.174 342.515 168.605 346.843L170.385 364.697L145.92 367.572C140.914 368.161 139.101 374.496 143.038 377.644L156.612 388.495L138.955 400.562C134.527 403.589 136.379 410.502 141.727 410.909L163.052 412.531L156.723 428.715C154.887 433.409 159.625 437.989 164.254 435.996L186.417 426.453L196.095 456.576C197.772 461.798 205.146 461.84 206.883 456.637L220.082 417.11L241.745 439.519C245.828 443.744 252.853 439.741 251.3 434.074L244.927 410.815L268.628 408.029C273.634 407.441 275.447 401.106 271.51 397.958L257.937 387.106Z" fill="#447427" stroke="#2C522C" stroke-width="8.51441"/>
<path d="M356.874 390.864L335.597 353.648L367.241 355.816C373.956 356.276 376.66 347.331 370.814 343.995L348.161 331.066L362.49 313.613C365.984 309.358 362.761 302.98 357.264 303.267L338.244 304.262L341.33 283.087C342.156 277.419 335.632 273.653 331.136 277.202L314.341 290.462L305.693 273.493C303.193 268.588 296.058 268.987 294.12 274.139L285.895 296.007L267.795 288.777C263.073 286.891 258.166 291.055 259.259 296.021L264.033 317.708L242.864 324.418C238.017 325.954 236.864 332.287 240.858 335.433L256.169 347.493L241.344 365.549C237.851 369.804 241.073 376.183 246.571 375.895L265.59 374.9L262.505 396.075C261.679 401.743 268.203 405.51 272.698 401.96L289.494 388.701L298.142 405.67C300.642 410.574 307.777 410.176 309.715 405.023L317.759 383.636L348.448 399.625C354.055 402.547 360.012 396.353 356.874 390.864Z" fill="#447427" stroke="#2C522C" stroke-width="9.50183"/>
<path d="M193.597 84.2618L180.072 116.07L171.971 93.378C169.558 86.6162 159.546 88.3683 159.572 95.548L159.658 119.147L145.661 115.974C140.467 114.797 136.199 120.121 138.479 124.934L146.52 141.916L131.766 149.971C127.332 152.392 127.332 158.759 131.766 161.18L146.52 169.235L138.479 186.217C136.199 191.03 140.467 196.354 145.661 195.177L160.271 191.865L162.173 209.902C162.772 215.58 169.952 217.678 173.514 213.216L183.376 200.862L193.239 213.216C196.801 217.678 203.981 215.58 204.579 209.902L206.481 191.865L221.091 195.177C226.285 196.354 230.553 191.03 228.274 186.217L220.232 169.235L234.986 161.18C239.421 158.759 239.421 152.392 234.986 149.971L220.232 141.916L228.274 124.934C230.553 120.121 226.285 114.797 221.091 115.974L206.887 119.194L205.856 86.5589C205.64 79.7197 196.275 77.9647 193.597 84.2618Z" fill="#447427" stroke="#2C522C" stroke-width="9.57821"/>
<path d="M440.79 171.738L396.024 172.483L418.612 150.946C425.343 144.529 417.997 133.604 409.514 137.416L381.633 149.945L378.016 131.711C376.674 124.944 368.126 122.697 363.63 127.929L347.768 146.389L330.466 133.171C325.266 129.198 317.73 132.552 317.201 139.074L315.439 160.776L291.108 160.203C284.211 160.041 280.158 167.895 284.287 173.422L295.9 188.967L275.557 200.717C269.153 204.415 270.451 214.017 277.607 215.883L297.421 221.048L287.995 239.225C284.591 245.79 290.855 253.182 297.89 250.9L320.236 243.652L324.011 262.686C325.353 269.453 333.901 271.7 338.397 266.467L354.259 248.007L371.561 261.226C376.761 265.199 384.297 261.845 384.826 255.322L386.588 233.62L410.919 234.194C417.816 234.356 421.869 226.501 417.74 220.975L406.449 205.861L444.527 187.454C452.507 183.597 449.652 171.59 440.79 171.738Z" fill="#447427" stroke="#2C522C" stroke-width="12.4067"/>
<path d="M54.5916 214.532L70.8358 232.242L43.4105 231.341C37.0414 231.132 34.8609 239.738 40.5611 242.587L66.1935 255.398L53.7316 264.827C49.3054 268.175 51.4845 275.225 57.0283 275.493L75.7636 276.396L72.7495 289.692C71.6546 294.522 76.6056 298.491 81.0816 296.371L96.8729 288.894L104.363 302.613C106.614 306.737 112.535 306.737 114.786 302.613L122.276 288.894L138.067 296.371C142.543 298.491 147.494 294.522 146.4 289.692L143.32 276.107L160.092 274.338C165.372 273.781 167.323 267.105 163.174 263.793L151.686 254.622L163.174 245.451C167.323 242.138 165.372 235.462 160.092 234.905L143.32 233.137L146.4 219.551C147.494 214.721 142.543 210.752 138.067 212.872L122.276 220.35L114.786 206.63C112.535 202.506 106.614 202.506 104.363 206.63L96.8078 220.469L61.3314 205.071C55.4508 202.519 50.2584 209.808 54.5916 214.532Z" fill="#447427" stroke="#2C522C" stroke-width="8.90668"/>
<path d="M57.8377 282.395L63.4722 293.71L38.0055 283.281C32.1406 280.879 27.2433 288.304 31.7594 292.75L62.2616 322.779L34.3883 339.673C29.122 342.865 31.833 350.982 37.9605 350.368L75.3566 346.624L74.988 363.975C74.8825 368.944 80.6816 371.721 84.4864 368.523L99.3618 356.022L110.065 369.878C112.973 373.641 118.927 372.48 120.207 367.9L125.286 349.729L143.562 354.416C148.168 355.598 152.151 351.021 150.346 346.622L143.698 330.424L161.962 323.793C166.634 322.097 167.128 315.686 162.772 313.293L147.651 304.986L158.716 290.247C161.773 286.176 158.454 280.426 153.399 281.038L135.103 283.252L135.469 266.003C135.575 261.034 129.776 258.257 125.971 261.455L111.769 273.391L96.5298 244.235C93.7952 239.003 85.9004 240.752 85.6322 246.65L84.1231 279.83L64.5983 274.259C59.767 272.881 55.5984 277.897 57.8377 282.395Z" fill="#447427" stroke="#2C522C" stroke-width="8.67084"/>
<path d="M297.697 246.656L338.408 199.35C343.098 193.899 350.015 190.882 357.201 191.15L419.569 193.484C426.754 193.753 433.427 197.279 437.697 203.065L474.758 253.281C479.028 259.067 480.431 266.482 478.57 273.428L462.416 333.713C460.555 340.658 455.633 346.379 449.042 349.254L391.838 374.212C385.247 377.088 377.706 376.805 371.348 373.445L316.169 344.282C309.812 340.922 305.33 334.85 303.993 327.785L292.39 266.461C291.054 259.396 293.007 252.106 297.697 246.656Z" fill="#D9C835" stroke="#A6992A" stroke-width="15.7521"/>
<path d="M316.268 269.497L356.391 222.873L417.86 225.173L454.386 274.665L438.466 334.08L382.087 358.678L327.704 329.936L316.268 269.497Z" fill="#B7AC47"/>
<path d="M316.609 262.337L356.732 215.713L418.2 218.013L454.727 267.505L438.807 326.92L382.428 351.518L328.045 322.776L316.609 262.337Z" fill="#F2E35E"/>
<path d="M86.7054 179.776L121.986 144.496C126.21 140.272 132.366 138.623 138.135 140.169L186.329 153.082C192.099 154.628 196.606 159.135 198.152 164.904L211.065 213.098C212.611 218.868 210.962 225.024 206.738 229.248L171.458 264.529C167.234 268.752 161.078 270.402 155.308 268.856L107.114 255.942C101.344 254.396 96.8376 249.89 95.2916 244.12L82.3781 195.926C80.8321 190.156 82.4817 184 86.7054 179.776Z" fill="#D9C835" stroke="#A6992A" stroke-width="11.1462"/>
<path d="M61.2977 363.1L58.0272 300.774C57.6504 293.593 60.5639 286.632 65.9432 281.86L112.633 240.443C118.012 235.672 125.271 233.609 132.356 234.84L193.847 245.52C200.931 246.75 207.07 251.14 210.525 257.446L240.514 312.181C243.969 318.487 244.365 326.024 241.589 332.657L217.493 390.23C214.717 396.863 209.071 401.871 202.154 403.836L142.119 420.893C135.202 422.859 127.767 421.567 121.917 417.385L71.1498 381.082C65.3007 376.899 61.6745 370.281 61.2977 363.1Z" fill="#D9C835" stroke="#A6992A" stroke-width="15.7521"/>
<path d="M84.4487 367.568L81.2254 306.141L127.241 265.322L187.845 275.849L217.401 329.794L193.653 386.536L134.484 403.347L84.4487 367.568Z" fill="#B7AC47"/>
<path d="M85.8032 361.364L82.5799 299.937L128.596 259.118L189.2 269.644L218.756 323.589L195.008 380.331L135.838 397.143L85.8032 361.364Z" fill="#F2E35E"/>
<path d="M104.268 300.986L148.91 275.212L193.552 300.986L193.552 352.534L148.91 378.308L104.268 352.534L104.268 300.986Z" fill="#D6C31C"/>
<path d="M124.976 197.219L185.208 127.228C192.148 119.164 202.382 114.699 213.013 115.097L305.289 118.549C315.92 118.947 325.792 124.164 332.11 132.724L386.943 207.021C393.261 215.581 395.337 226.552 392.583 236.828L368.684 326.022C365.93 336.299 358.647 344.762 348.896 349.016L264.26 385.942C254.509 390.197 243.351 389.779 233.945 384.808L152.306 341.66C142.9 336.689 136.27 327.705 134.292 317.252L117.124 226.521C115.147 216.068 118.036 205.283 124.976 197.219Z" fill="#D9C835" stroke="#A6992A" stroke-width="23.3058"/>
<path d="M155.043 226.07L214.407 157.089L305.351 160.492L359.393 233.716L335.839 321.623L252.424 358.017L171.963 315.492L155.043 226.07Z" fill="#B7AC47"/>
<path d="M152.956 220.42L212.32 151.438L303.264 154.841L357.306 228.066L333.752 315.973L250.337 352.366L169.876 309.841L152.956 220.42Z" fill="#F2E35E"/>
<path d="M194.483 231.547L229.511 190.844L283.174 192.852L315.062 236.059L301.164 287.929L251.944 309.403L204.467 284.311L194.483 231.547Z" fill="#D6C31C"/>
<path d="M222.259 238.989L241.012 217.198L269.74 218.273L286.812 241.405L279.371 269.174L253.021 280.67L227.604 267.237L222.259 238.989Z" fill="#9C9128"/>
</g>
<defs>
<clipPath id="clip0_388_12">
<rect width="500" height="500" fill="white" transform="translate(0.381836 0.706055)"/>
</clipPath>
</defs>
</svg>
