<svg width="501" height="501" viewBox="0 0 501 501" fill="none" xmlns="http://www.w3.org/2000/svg">
<g clip-path="url(#clip0_388_10)">
<path d="M262.863 393.357L280.52 381.29C284.948 378.264 283.096 371.351 277.748 370.944L256.423 369.322L262.752 353.137C264.588 348.443 259.85 343.863 255.221 345.857L232.596 355.599L225.21 339.247C223.42 335.283 218.019 334.723 215.453 338.236L202.133 356.477L181.477 347.34C177.498 345.581 173.101 348.766 173.532 353.094L175.312 370.948L150.847 373.823C145.841 374.412 144.028 380.747 147.965 383.894L161.538 394.746L143.882 406.813C139.453 409.84 141.306 416.753 146.654 417.16L167.979 418.782L161.65 434.966C159.814 439.66 164.551 444.24 169.181 442.247L191.344 432.704L201.021 462.827C202.699 468.049 210.072 468.091 211.81 462.888L225.009 423.361L246.671 445.77C250.755 449.995 257.78 445.992 256.227 440.325L249.854 417.066L273.555 414.28C278.561 413.692 280.374 407.356 276.437 404.209L262.863 393.357Z" fill="#447427" stroke="#2C522C" stroke-width="8.51441"/>
<path d="M361.802 397.115L340.525 359.898L372.169 362.067C378.884 362.527 381.587 353.582 375.742 350.246L353.089 337.317L367.418 319.864C370.911 315.609 367.689 309.231 362.191 309.518L343.172 310.513L346.257 289.338C347.083 283.67 340.56 279.904 336.064 283.453L319.269 296.713L310.621 279.744C308.121 274.839 300.986 275.238 299.048 280.39L290.823 302.258L272.723 295.028C268.001 293.142 263.093 297.306 264.186 302.272L268.96 323.959L247.791 330.669C242.945 332.205 241.792 338.538 245.786 341.684L261.097 353.744L246.272 371.8C242.779 376.055 246.001 382.434 251.499 382.146L270.518 381.151L267.433 402.326C266.607 407.994 273.13 411.761 277.626 408.211L294.422 394.952L303.07 411.921C305.569 416.825 312.705 416.427 314.642 411.274L322.687 389.887L353.375 405.876C358.983 408.798 364.94 402.604 361.802 397.115Z" fill="#447427" stroke="#2C522C" stroke-width="9.50183"/>
<path d="M198.523 90.5127L184.998 122.321L176.897 99.629C174.483 92.8671 164.472 94.6192 164.498 101.799L164.584 125.398L150.587 122.225C145.393 121.048 141.125 126.372 143.404 131.185L151.446 148.167L136.692 156.222C132.257 158.643 132.257 165.01 136.692 167.431L151.446 175.486L143.404 192.468C141.125 197.281 145.393 202.605 150.587 201.428L165.197 198.116L167.099 216.153C167.698 221.831 174.877 223.929 178.439 219.467L188.302 207.113L198.164 219.467C201.726 223.929 208.906 221.831 209.505 216.153L211.407 198.116L226.017 201.428C231.211 202.605 235.479 197.281 233.199 192.468L225.158 175.486L239.912 167.431C244.346 165.01 244.346 158.643 239.912 156.222L225.158 148.167L233.199 131.185C235.479 126.372 231.211 121.048 226.017 122.225L211.813 125.445L210.782 92.8099C210.566 85.9707 201.201 84.2157 198.523 90.5127Z" fill="#447427" stroke="#2C522C" stroke-width="9.57821"/>
<path d="M59.5174 220.783L75.7615 238.492L48.3363 237.592C41.9672 237.383 39.7867 245.989 45.4869 248.838L71.1193 261.649L58.6574 271.078C54.2312 274.426 56.4102 281.476 61.9541 281.744L80.6893 282.647L77.6753 295.943C76.5804 300.773 81.5314 304.742 86.0074 302.622L101.799 295.145L109.289 308.864C111.54 312.988 117.461 312.988 119.712 308.864L127.202 295.145L142.993 302.622C147.469 304.742 152.42 300.773 151.325 295.943L148.246 282.358L165.018 280.589C170.297 280.032 172.249 273.356 168.1 270.044L156.612 260.873L168.1 251.702C172.249 248.389 170.297 241.713 165.018 241.156L148.246 239.388L151.325 225.802C152.42 220.972 147.469 217.003 142.993 219.123L127.202 226.601L119.712 212.881C117.461 208.757 111.54 208.757 109.289 212.881L101.734 226.72L66.2572 211.322C60.3765 208.77 55.1842 216.059 59.5174 220.783Z" fill="#447427" stroke="#2C522C" stroke-width="8.90668"/>
<path d="M62.7655 288.645L68.3999 299.961L42.9333 289.532C37.0683 287.13 32.171 294.555 36.6872 299.001L67.1893 329.03L39.316 345.924C34.0497 349.116 36.7607 357.233 42.8883 356.619L80.2843 352.875L79.9158 370.226C79.8102 375.195 85.6093 377.972 89.4141 374.774L104.29 362.273L114.993 376.129C117.9 379.892 123.855 378.731 125.135 374.151L130.213 355.98L148.49 360.667C153.096 361.849 157.079 357.272 155.273 352.873L148.625 336.675L166.89 330.044C171.561 328.347 172.056 321.937 167.7 319.544L152.579 311.237L163.644 296.498C166.701 292.427 163.382 286.677 158.327 287.289L140.031 289.503L140.397 272.254C140.503 267.285 134.704 264.508 130.899 267.706L116.696 279.642L101.458 250.486C98.7229 245.254 90.8282 247.003 90.5599 252.901L89.0508 286.081L69.526 280.51C64.6947 279.132 60.5261 284.148 62.7655 288.645Z" fill="#447427" stroke="#2C522C" stroke-width="8.67084"/>
<path d="M101.632 178.526L136.913 143.245C141.136 139.022 147.293 137.372 153.062 138.918L201.256 151.832C207.026 153.378 211.533 157.884 213.079 163.654L225.992 211.848C227.538 217.618 225.889 223.774 221.665 227.998L186.384 263.278C182.161 267.502 176.004 269.151 170.235 267.605L122.041 254.692C116.271 253.146 111.764 248.639 110.218 242.869L97.3048 194.675C95.7589 188.906 97.4084 182.75 101.632 178.526Z" fill="#D9C835" stroke="#A6992A" stroke-width="11.1462"/>
<path d="M113.2 190.28L148.667 154.813L197.116 167.795L210.098 216.244L174.63 251.711L126.182 238.729L113.2 190.28Z" fill="#F2E35E"/>
<path d="M76.2244 361.85L72.9539 299.524C72.5771 292.343 75.4907 285.382 80.8699 280.61L127.559 239.193C132.939 234.421 140.198 232.359 147.282 233.589L208.774 244.27C215.858 245.5 221.997 249.89 225.452 256.196L255.441 310.931C258.896 317.237 259.292 324.773 256.515 331.407L232.42 388.979C229.644 395.613 223.998 400.621 217.081 402.586L157.046 419.643C150.129 421.608 142.693 420.317 136.844 416.134L86.0765 379.832C80.2274 375.649 76.6012 369.031 76.2244 361.85Z" fill="#D9C835" stroke="#A6992A" stroke-width="15.7521"/>
<path d="M99.3765 367.274L96.1531 305.847L142.169 265.028L202.773 275.554L232.329 329.499L208.581 386.241L149.412 403.052L99.3765 367.274Z" fill="#B7AC47"/>
<path d="M100.731 360.113L97.5076 298.686L143.523 257.867L204.127 268.394L233.684 322.339L209.936 379.081L150.766 395.892L100.731 360.113Z" fill="#F2E35E"/>
<path d="M139.904 195.969L200.136 125.978C207.076 117.914 217.31 113.449 227.941 113.846L320.217 117.299C330.848 117.697 340.72 122.914 347.037 131.474L401.871 205.771C408.188 214.331 410.264 225.302 407.511 235.578L383.611 324.772C380.858 335.048 373.575 343.512 363.824 347.766L279.188 384.692C269.437 388.946 258.279 388.529 248.873 383.558L167.233 340.41C157.828 335.439 151.197 326.455 149.219 316.002L132.052 225.271C130.074 214.818 132.964 204.033 139.904 195.969Z" fill="#D9C835" stroke="#A6992A" stroke-width="23.3058"/>
<path d="M167.471 228.275L226.834 159.294L317.779 162.697L371.821 235.921L348.267 323.828L264.852 360.222L184.39 317.697L167.471 228.275Z" fill="#B7AC47"/>
<path d="M167.884 219.169L227.247 150.188L318.192 153.591L372.234 226.816L348.68 314.722L265.265 351.116L184.804 308.591L167.884 219.169Z" fill="#F2E35E"/>
<path d="M209.411 230.296L244.439 189.593L298.102 191.601L329.99 234.808L316.092 286.679L266.872 308.153L219.395 283.061L209.411 230.296Z" fill="#D6C31C"/>
<path d="M237.185 237.739L255.937 215.948L284.666 217.023L301.737 240.154L294.297 267.923L267.947 279.42L242.53 265.986L237.185 237.739Z" fill="#9C9128"/>
</g>
<defs>
<clipPath id="clip0_388_10">
<rect width="500" height="500" fill="white" transform="translate(0.307617 0.706055)"/>
</clipPath>
</defs>
</svg>
