<svg width="1001" height="1001" viewBox="0 0 1001 1001" fill="none" xmlns="http://www.w3.org/2000/svg">
<g clip-path="url(#clip0_388_13)">
<path d="M468.516 810.704L503.829 786.57C512.686 780.517 508.981 766.691 498.285 765.877L455.635 762.633L468.293 730.264C471.965 720.875 462.49 711.715 453.231 715.702L407.981 735.186L393.21 702.483C389.628 694.555 378.826 693.436 373.695 700.462L347.054 736.943L305.742 718.67C297.786 715.15 288.991 721.521 289.853 730.178L293.412 765.885L244.483 771.636C234.471 772.813 230.845 785.483 238.719 791.778L265.866 813.482L230.552 837.616C221.696 843.669 225.401 857.495 236.097 858.308L278.747 861.552L266.088 893.921C262.417 903.31 271.892 912.47 281.151 908.483L325.476 889.397L344.832 949.643C348.187 960.086 362.934 960.171 366.408 949.766L392.808 870.71L436.132 915.53C444.299 923.979 458.349 915.973 455.243 904.64L442.496 858.121L489.899 852.549C499.911 851.372 503.537 838.702 495.663 832.407L468.516 810.704Z" fill="#447427" stroke="#2C522C" stroke-width="17.0288"/>
<path d="M666.392 818.218L623.839 743.786L687.127 748.123C700.557 749.043 705.964 731.153 694.273 724.48L648.966 698.623L677.625 663.717C684.612 655.208 678.167 642.451 667.172 643.026L629.133 645.016L635.304 602.666C636.956 591.329 623.909 583.797 614.917 590.895L581.326 617.414L564.03 583.477C559.031 573.667 544.76 574.464 540.884 584.77L524.435 628.504L488.234 614.044C478.791 610.272 468.976 618.602 471.162 628.533L480.71 671.908L438.372 685.327C428.678 688.399 426.372 701.064 434.36 707.356L464.983 731.477L435.333 767.59C428.346 776.099 434.791 788.856 445.786 788.281L483.825 786.291L477.654 828.641C476.003 839.977 489.05 847.51 498.041 840.412L531.632 813.893L548.928 847.83C553.928 857.64 568.198 856.843 572.074 846.537L588.162 803.763L649.54 835.742C660.755 841.585 672.669 829.197 666.392 818.218Z" fill="#447427" stroke="#2C522C" stroke-width="19.0037"/>
<path d="M339.837 205.015L312.787 268.632L296.585 223.248C291.758 209.724 271.735 213.228 271.787 227.588L271.959 274.785L243.965 268.44C233.577 266.085 225.041 276.734 229.6 286.36L245.683 320.324L216.175 336.433C207.306 341.275 207.306 354.011 216.175 358.852L245.683 374.961L229.6 408.925C225.041 418.552 233.577 429.201 243.965 426.846L273.185 420.222L276.989 456.295C278.186 467.651 292.546 471.848 299.67 462.924L319.395 438.216L339.12 462.924C346.244 471.848 360.604 467.651 361.801 456.295L365.604 420.222L394.824 426.846C405.212 429.201 413.749 418.552 409.19 408.925L393.107 374.961L422.615 358.852C431.484 354.011 431.484 341.275 422.615 336.433L393.107 320.324L409.19 286.36C413.749 276.733 405.212 266.085 394.824 268.44L366.416 274.879L364.355 209.609C363.923 195.931 345.193 192.421 339.837 205.015Z" fill="#447427" stroke="#2C522C" stroke-width="19.1564"/>
<path d="M61.8228 465.555L94.3112 500.974L39.4607 499.174C26.7224 498.756 22.3615 515.968 33.7619 521.666L85.0266 547.288L60.1029 566.144C51.2504 572.842 55.6086 586.942 66.6962 587.477L104.167 589.283L98.1386 615.876C95.9489 625.535 105.851 633.473 114.803 629.234L146.386 614.279L161.365 641.718C165.867 649.965 177.71 649.965 182.212 641.718L197.192 614.279L228.774 629.234C237.726 633.473 247.628 625.535 245.439 615.876L239.279 588.704L272.823 585.168C283.383 584.054 287.285 570.701 278.987 564.077L256.012 545.735L278.987 527.392C287.285 520.768 283.383 507.415 272.823 506.302L239.279 502.765L245.439 475.593C247.628 465.934 237.726 457.996 228.774 462.235L197.192 477.191L182.212 449.751C177.71 441.504 165.867 441.504 161.365 449.751L146.255 477.429L75.3025 446.634C63.5412 441.529 53.1564 456.107 61.8228 465.555Z" fill="#447427" stroke="#2C522C" stroke-width="17.8134"/>
<path d="M68.319 601.281L79.5879 623.913L28.6546 603.055C16.9247 598.251 7.13009 613.1 16.1624 621.992L77.1667 682.05L21.4202 715.839C10.8875 722.222 16.3095 738.456 28.5646 737.229L103.357 729.739L102.62 764.443C102.409 774.38 114.007 779.934 121.616 773.539L151.367 748.535L172.774 776.248C178.589 783.775 190.498 781.453 193.058 772.292L203.215 735.95L239.767 745.325C248.98 747.688 256.946 738.535 253.335 729.736L240.039 697.341L276.568 684.078C285.911 680.685 286.9 667.864 278.188 663.078L247.946 646.464L270.077 616.987C276.19 608.843 269.552 597.345 259.442 598.568L222.85 602.995L223.582 568.497C223.793 558.56 212.195 553.006 204.586 559.401L176.181 583.273L145.703 524.962C140.234 514.498 124.444 517.997 123.908 529.792L120.89 596.152L81.8401 585.011C72.1775 582.254 63.8403 592.286 68.319 601.281Z" fill="#447427" stroke="#2C522C" stroke-width="17.3417"/>
<path d="M920.265 442.498L878.877 418.063L931.878 403.827C944.187 400.521 943.351 382.784 930.786 380.65L874.285 371.052L892.644 345.76C899.165 336.776 890.893 324.554 880.129 327.269L843.754 336.442L841.784 309.246C841.069 299.367 829.286 294.654 821.954 301.314L796.089 324.812L773.774 302.918C767.067 296.337 755.737 299.783 753.829 308.983L747.481 339.594L712.913 334.474C703.115 333.023 695.951 343.498 700.857 352.103L714.655 376.307L683.591 389.451C673.812 393.588 673.964 407.499 683.83 411.422L711.149 422.286L694.504 446.52C688.492 455.272 696.111 466.912 706.537 464.905L739.659 458.529L741.672 486.317C742.387 496.196 754.17 500.909 761.502 494.249L787.367 470.751L809.682 492.645C816.389 499.225 827.719 495.78 829.627 486.58L836.03 455.703L912.873 464.522C925.611 465.984 931.305 449.016 920.265 442.498Z" fill="#447427" stroke="#2C522C" stroke-width="17.8134"/>
<path d="M706.511 170.256L682.663 191.145L691.699 122.722C693.78 106.964 672.647 99.8264 664.747 113.618L611.389 206.767L552.62 149.95C541.517 139.216 523.561 150.973 528.961 165.442L561.918 253.75L519.599 263.933C507.48 266.85 504.448 282.687 514.632 289.874L554.45 317.97L527.677 352.776C520.405 362.229 527.023 375.93 538.949 376.111L586.263 376.827L586.561 424.145C586.637 436.072 600.278 442.811 609.796 435.623L644.836 409.158L672.581 449.222C679.677 459.469 695.541 456.576 698.564 444.484L709.058 402.506L751.868 419.934C763.695 424.749 775.519 413.028 770.809 401.159L753.76 358.197L795.828 348.074C807.947 345.158 810.979 329.32 800.795 322.134L762.779 295.308L823.763 239.735C834.706 229.763 825.423 211.732 810.949 214.847L729.512 232.369L730.558 181.459C730.817 168.861 715.989 161.953 706.511 170.256Z" fill="#447427" stroke="#2C522C" stroke-width="21.7461"/>
<path d="M308.004 211.671L389.425 117.058C398.805 106.157 412.639 100.121 427.011 100.659L551.747 105.327C566.118 105.864 579.463 112.917 588.002 124.488L662.125 224.921C670.665 236.492 673.471 251.322 669.749 265.214L637.442 385.784C633.72 399.675 623.875 411.116 610.694 416.867L496.285 466.783C483.104 472.534 468.021 471.969 455.306 465.249L344.947 406.923C332.233 400.203 323.27 388.059 320.596 373.929L297.39 251.281C294.716 237.15 298.623 222.571 308.004 211.671Z" fill="#D9C835" stroke="#A6992A" stroke-width="31.5042"/>
<path d="M345.828 243.033L426.074 149.785L549.011 154.385L622.064 253.369L590.224 372.2L477.466 421.395L368.7 363.911L345.828 243.033Z" fill="#F2E35E"/>
<path d="M218.564 375.451L289.125 304.89C297.572 296.443 309.885 293.144 321.424 296.236L417.812 322.063C429.352 325.155 438.365 334.168 441.457 345.707L467.284 442.095C470.376 453.635 467.077 465.947 458.629 474.395L388.069 544.956C379.621 553.403 367.309 556.702 355.769 553.61L259.381 527.783C247.842 524.691 238.829 515.678 235.737 504.138L209.91 407.75C206.818 396.211 210.117 383.899 218.564 375.451Z" fill="#D9C835" stroke="#A6992A" stroke-width="22.2925"/>
<path d="M241.699 398.959L312.633 328.024L409.531 353.988L435.495 450.886L364.561 521.82L267.663 495.857L241.699 398.959Z" fill="#F2E35E"/>
<path d="M625.268 602.319L660.028 472.595C663.12 461.055 672.133 452.042 683.673 448.95L813.397 414.19C824.937 411.098 837.249 414.397 845.697 422.845L940.662 517.81C949.109 526.257 952.408 538.57 949.316 550.109L914.557 679.834C911.465 691.373 902.451 700.387 890.912 703.478L761.187 738.238C749.648 741.33 737.335 738.031 728.888 729.583L633.923 634.619C625.476 626.171 622.176 613.859 625.268 602.319Z" fill="#D9C835" stroke="#A6992A" stroke-width="22.2925"/>
<path d="M662.884 625.738L694.771 506.732L813.777 474.845L900.895 561.963L869.007 680.968L750.002 712.856L662.884 625.738Z" fill="#B7AC47"/>
<path d="M667.463 609.527L699.351 490.521L818.356 458.634L905.474 545.752L873.587 664.757L754.581 696.645L667.463 609.527Z" fill="#F2E35E"/>
<path d="M167.749 742.099L161.208 617.447C160.454 603.085 166.281 589.162 177.04 579.619L270.418 496.785C281.177 487.242 295.696 483.117 309.865 485.578L432.847 506.938C447.016 509.399 459.294 518.179 466.204 530.791L526.182 640.261C533.092 652.873 533.883 667.946 528.331 681.212L480.139 796.358C474.587 809.624 463.296 819.64 449.462 823.571L329.391 857.685C315.557 861.616 300.686 859.033 288.988 850.668L187.453 778.062C175.755 769.697 168.502 756.461 167.749 742.099Z" fill="#D9C835" stroke="#A6992A" stroke-width="31.5043"/>
<path d="M216.553 751.035L210.106 628.181L302.137 546.543L423.345 567.596L482.458 675.486L434.962 788.97L316.623 822.593L216.553 751.035Z" fill="#B7AC47"/>
<path d="M216.761 738.626L210.314 615.772L302.345 534.134L423.553 555.186L482.666 663.076L435.17 776.561L316.831 810.183L216.761 738.626Z" fill="#F2E35E"/>
<path d="M253.689 617.87L342.973 566.322L432.257 617.87L432.257 720.967L342.973 772.515L253.689 720.967L253.689 617.87Z" fill="#D6C31C"/>
<path d="M302.693 407.584L450.23 260.048C467.893 242.385 493.637 235.487 517.765 241.952L719.303 295.954C743.431 302.419 762.277 321.265 768.742 345.393L822.744 546.932C829.209 571.06 822.311 596.804 804.648 614.467L657.112 762.003C639.449 779.666 613.705 786.564 589.577 780.099L388.038 726.097C363.911 719.632 345.065 700.786 338.6 676.658L284.597 475.119C278.132 450.991 285.031 425.247 302.693 407.584Z" fill="#D9C835" stroke="#A6992A" stroke-width="46.6115"/>
<path d="M350.241 473.039L498.558 324.722L701.163 379.01L755.451 581.615L607.134 729.932L404.529 675.644L350.241 473.039Z" fill="#B7AC47"/>
<path d="M351.067 456.738L499.384 308.421L701.989 362.708L756.277 565.313L607.96 713.63L405.355 659.343L351.067 456.738Z" fill="#F2E35E"/>
<path d="M434.121 478.992L521.637 391.476L641.186 423.509L673.22 543.058L585.703 630.575L466.154 598.542L434.121 478.992Z" fill="#D6C31C"/>
<path d="M489.669 493.877L536.521 447.025L600.522 464.174L617.671 528.175L570.819 575.027L506.818 557.878L489.669 493.877Z" fill="#9C9128"/>
</g>
<defs>
<clipPath id="clip0_388_13">
<rect width="1000" height="1000" fill="white" transform="translate(0.912109 0.398193)"/>
</clipPath>
</defs>
</svg>
