<svg width="400" height="400" viewBox="0 0 400 400" fill="none" xmlns="http://www.w3.org/2000/svg">
<g clip-path="url(#clip0_388_10)">
<path d="M162.719 367.539C162.719 367.538 162.72 367.537 162.72 367.536L162.719 367.539ZM201.961 351.27L201.958 351.267C201.959 351.268 201.96 351.269 201.961 351.27ZM224.14 304.426C227.682 302.005 226.2 296.476 221.922 296.15L204.865 294.853L209.927 281.907C211.396 278.152 207.606 274.489 203.903 276.083L185.806 283.876L179.898 270.796L176.794 272.198L179.898 270.796C178.466 267.625 174.145 267.178 172.093 269.988L161.438 284.578L144.916 277.27C141.734 275.862 138.216 278.41 138.561 281.872L139.984 296.153L120.415 298.454C116.411 298.924 114.961 303.992 118.11 306.509L128.967 315.189L114.844 324.842C111.302 327.263 112.783 332.792 117.061 333.118L134.119 334.415L129.056 347.361C127.588 351.116 131.377 354.779 135.08 353.185L152.808 345.551L160.549 369.647C161.891 373.823 167.789 373.857 169.179 369.696L179.737 338.078L197.064 356.003C200.331 359.383 205.95 356.181 204.708 351.648L199.61 333.043L218.568 330.814C222.573 330.344 224.023 325.276 220.874 322.759L210.016 314.079L224.14 304.426ZM155.103 344.563C155.102 344.564 155.101 344.564 155.1 344.565L155.103 344.563Z" fill="#447427" stroke="#2C522C" stroke-width="6.81061"/>
<path d="M214.785 240.403L211.074 241.22C210.2 237.248 214.125 233.917 217.902 235.425L232.38 241.209L238.959 223.717C240.509 219.596 246.217 219.277 248.216 223.2L255.134 236.773L268.568 226.167C272.165 223.328 277.383 226.341 276.722 230.875M214.785 240.403L276.722 230.875M214.785 240.403L211.074 241.22L214.893 258.568L197.96 263.935C194.083 265.163 193.161 270.229 196.355 272.745L208.603 282.392L196.744 296.835C193.95 300.239 196.528 305.341 200.925 305.111L216.139 304.315L213.671 321.252C213.01 325.786 218.228 328.799 221.824 325.96L235.259 315.354L242.176 328.927C244.176 332.85 249.883 332.532 251.433 328.41L257.868 311.303L282.416 324.092C286.901 326.429 291.666 321.475 289.156 317.084L272.137 287.315L297.448 289.05C302.819 289.418 304.982 282.262 300.306 279.594L282.186 269.252L293.648 255.292C296.443 251.889 293.865 246.786 289.468 247.016L289.666 250.811L289.468 247.016L274.254 247.812L276.722 230.875M214.785 240.403L272.962 230.327L276.722 230.875M215.083 242.483L215.186 242.224L215.083 242.483L215.086 242.485C215.085 242.484 215.084 242.484 215.083 242.483ZM200.256 271.18L200.172 270.914L200.256 271.18L200.259 271.179C200.258 271.179 200.257 271.179 200.256 271.18ZM248.948 325.476L248.946 325.472C248.947 325.473 248.947 325.474 248.948 325.476ZM273.278 232.133C273.277 232.133 273.276 232.134 273.275 232.135L273.278 232.133L272.789 231.513L273.278 232.133ZM269.201 229.782C269.201 229.781 269.201 229.78 269.201 229.779L269.982 229.893L269.201 229.779L269.201 229.782ZM216.584 301.258L216.583 301.262C216.584 301.261 216.584 301.26 216.584 301.258ZM237.683 313.44C237.682 313.441 237.681 313.442 237.679 313.443L237.683 313.44L236.114 311.451L237.683 313.44Z" fill="#447427" stroke="#2C522C" stroke-width="7.60044"/>
<path d="M187.986 126.637L187.983 126.639C187.984 126.639 187.985 126.638 187.986 126.637ZM158.551 71.8356L147.732 97.279L141.252 79.1276C139.322 73.7188 131.314 75.1204 131.334 80.8634L131.403 99.7399L120.207 97.202C116.053 96.2602 112.639 100.519 114.462 104.369L120.894 117.953L109.092 124.396C105.545 126.332 105.545 131.426 109.092 133.362L120.894 139.805L114.462 153.389C112.639 157.239 116.053 161.498 120.207 160.556L131.894 157.907L133.415 172.334C133.894 176.876 139.637 178.554 142.486 174.985L150.375 165.103L158.264 174.985C161.113 178.554 166.856 176.876 167.335 172.334L168.856 157.907L180.543 160.556C184.697 161.498 188.111 157.239 186.288 153.389L179.856 139.805L191.658 133.362C195.205 131.426 195.205 126.332 191.658 124.396L179.856 117.953L186.288 104.369C188.111 100.519 184.697 96.2602 180.543 97.202L169.181 99.7775L168.356 73.6731C168.184 68.2023 160.693 66.7988 158.551 71.8356ZM169.158 155.048C169.158 155.05 169.157 155.051 169.157 155.052L169.158 155.048L166.618 154.781L169.158 155.048ZM177.739 140.96L177.743 140.958C177.741 140.959 177.74 140.96 177.739 140.96L176.516 138.719L177.739 140.96ZM112.764 131.12L112.671 130.951L112.764 131.12L112.766 131.119C112.765 131.12 112.764 131.12 112.764 131.12Z" fill="#447427" stroke="#2C522C" stroke-width="7.66154"/>
<path d="M47.3618 176.038L60.3553 190.203L38.4181 189.483C33.3235 189.316 31.5794 196.2 36.1389 198.479L56.642 208.726L46.6739 216.268C43.1334 218.947 44.8764 224.586 49.3109 224.8L64.2971 225.522L61.8861 236.158C61.0103 240.021 64.9706 243.196 68.5509 241.5L67.0264 238.281L68.5509 241.5L81.1823 235.519L87.1733 246.493C88.9739 249.792 93.7104 249.792 95.511 246.493L101.502 235.519L114.133 241.5C117.714 243.196 121.674 240.021 120.798 236.158L118.335 225.291L131.751 223.876C135.974 223.431 137.535 218.09 134.216 215.441L125.027 208.105L134.216 200.769C137.535 198.12 135.974 192.779 131.751 192.334L118.335 190.92L120.798 180.052C121.674 176.189 117.714 173.014 114.133 174.71L101.502 180.691L95.511 169.717C93.7104 166.419 88.9739 166.419 87.1733 169.717L81.1302 180.787L52.7529 168.47C48.0491 166.429 43.8956 172.259 47.3617 176.038L49.9869 173.63L47.3618 176.038ZM59.6926 206.418L59.6894 206.421C59.6905 206.42 59.6915 206.419 59.6926 206.418ZM68.8342 237.733L68.8352 237.729C68.8349 237.73 68.8345 237.731 68.8342 237.733Z" fill="#447427" stroke="#2C522C" stroke-width="7.12439"/>
<path d="M119.391 284.571L118.529 287.93L103.91 284.181L99.8478 298.716M119.391 284.571L99.8478 298.716M119.391 284.571L118.529 287.93C122.214 288.875 125.4 285.215 123.955 281.696L118.637 268.739L133.247 263.435C136.984 262.078 137.38 256.95 133.895 255.036L121.8 248.391L130.651 236.602C133.096 233.345 130.441 228.746 126.398 229.235L111.763 231.006L112.056 217.209C112.14 213.234 107.502 211.013 104.458 213.571L93.0978 223.118L80.9084 199.797C78.721 195.612 72.4061 197.011 72.1915 201.729L70.9844 228.269L55.3667 223.813C51.5021 222.711 48.1677 226.723 49.9589 230.32L54.4659 239.372L34.0953 231.03C29.4041 229.109 25.4866 235.047 29.0991 238.604L53.4975 262.624L31.2019 276.137C26.9894 278.69 29.1579 285.183 34.0593 284.692L63.9721 281.697L63.6773 295.576L67.1444 295.65L63.6773 295.576C63.5929 299.551 68.2316 301.772 71.275 299.214L83.1737 289.214M119.391 284.571L83.1737 289.214M99.8478 298.716C98.8239 302.379 94.0608 303.308 91.7354 300.298L83.1737 289.214M99.8478 298.716L83.1737 289.214M93.168 296.849C93.1682 296.848 93.1685 296.847 93.1687 296.846L93.168 296.849L93.5318 296.95L93.168 296.849Z" fill="#447427" stroke="#2C522C" stroke-width="6.93574"/>
<path d="M77.5876 155.155C76.351 150.54 77.6704 145.615 81.049 142.237L109.27 114.016C112.648 110.638 117.572 109.318 122.187 110.555L160.737 120.884C165.353 122.121 168.957 125.726 170.194 130.341L180.524 168.891C181.76 173.506 180.441 178.43 177.062 181.809L148.842 210.029C145.463 213.408 140.539 214.727 135.924 213.491L97.3737 203.161C92.7585 201.925 89.1537 198.32 87.917 193.705L77.5876 155.155Z" fill="#D9C835" stroke="#A6992A" stroke-width="8.91579"/>
<path d="M90.3016 151.639L118.671 123.269L157.425 133.653L167.809 172.407L139.44 200.777L100.686 190.393L90.3016 151.639Z" fill="#F2E35E"/>
<path d="M68.6061 303.26C63.9274 299.914 61.0269 294.62 60.7255 288.876L58.1094 239.022C57.808 233.278 60.1385 227.71 64.4413 223.893L101.788 190.764C106.091 186.947 111.897 185.297 117.564 186.282L166.751 194.825C172.417 195.809 177.328 199.32 180.091 204.365L204.079 248.147C206.843 253.191 207.159 259.219 204.939 264.525L185.665 310.577C183.444 315.883 178.928 319.889 173.396 321.461L125.374 335.105C119.841 336.677 113.893 335.644 109.215 332.298L68.6061 303.26Z" fill="#D9C835" stroke="#A6992A" stroke-width="12.6"/>
<path d="M79.2444 293.214L76.6661 244.08L113.474 211.429L161.95 219.849L185.592 262.999L166.596 308.386L119.267 321.834L79.2444 293.214Z" fill="#B7AC47"/>
<path d="M80.3279 287.487L77.7496 238.352L114.557 205.701L163.034 214.121L186.676 257.271L167.68 302.659L120.351 316.106L80.3279 287.487Z" fill="#F2E35E"/>
<path d="M105.381 179.628C103.799 171.266 106.11 162.639 111.661 156.189L159.841 100.204C165.392 93.7533 173.578 90.1818 182.081 90.5L255.892 93.2618C264.396 93.58 272.292 97.7532 277.346 104.6L321.207 164.03C326.26 170.877 327.92 179.652 325.718 187.872L306.601 259.218C304.398 267.438 298.573 274.207 290.773 277.61L223.073 307.147C215.274 310.55 206.349 310.216 198.825 306.24L133.522 271.726C125.998 267.75 120.695 260.564 119.113 252.202L105.381 179.628Z" fill="#D9C835" stroke="#A6992A" stroke-width="18.6421"/>
<path d="M133.712 182.031L181.196 126.853L253.942 129.575L297.17 188.147L278.329 258.463L211.606 287.574L147.246 253.558L133.712 182.031Z" fill="#B7AC47"/>
<path d="M134.043 174.747L181.527 119.569L254.273 122.291L297.501 180.863L278.66 251.179L211.937 280.29L147.576 246.275L134.043 174.747Z" fill="#F2E35E"/>
<path d="M167.26 183.648L195.279 151.089L238.203 152.696L263.71 187.257L252.593 228.747L213.223 245.925L175.246 225.853L167.26 183.648Z" fill="#D6C31C"/>
<path d="M189.476 189.601L204.476 172.171L227.456 173.03L241.111 191.533L235.16 213.745L214.083 222.941L193.752 212.196L189.476 189.601Z" fill="#9C9128"/>
</g>
<defs>
<clipPath id="clip0_388_10">
<rect width="400" height="400" fill="white"/>
</clipPath>
</defs>
</svg>
