<svg width="400" height="400" viewBox="0 0 400 400" fill="none" xmlns="http://www.w3.org/2000/svg">
<g clip-path="url(#clip0_388_13)">
<path d="M139.719 377.539C139.719 377.538 139.72 377.537 139.72 377.536L139.719 377.539ZM178.961 361.27L178.958 361.267C178.959 361.268 178.96 361.269 178.961 361.27ZM201.14 314.426C204.682 312.005 203.2 306.476 198.922 306.15L181.865 304.853L186.927 291.907C188.396 288.152 184.606 284.489 180.903 286.083L162.806 293.876L156.898 280.796L153.794 282.198L156.898 280.796C155.466 277.625 151.145 277.178 149.093 279.988L138.438 294.578L121.916 287.27C118.734 285.862 115.216 288.41 115.561 291.872L116.984 306.153L97.4152 308.454C93.4109 308.924 91.9608 313.992 95.11 316.509L105.967 325.189L91.8438 334.842C88.3016 337.263 89.7833 342.792 94.0613 343.118L111.119 344.415L106.056 357.361C104.588 361.116 108.377 364.779 112.08 363.185L129.808 355.551L137.549 379.647C138.891 383.823 144.789 383.857 146.179 379.696L156.737 348.078L174.064 366.003C177.331 369.383 182.95 366.181 181.708 361.648L176.61 343.043L195.568 340.814C199.573 340.344 201.023 335.276 197.874 332.759L187.016 324.079L201.14 314.426ZM132.103 354.563C132.102 354.564 132.101 354.564 132.1 354.565L132.103 354.563Z" fill="#447427" stroke="#2C522C" stroke-width="6.81061"/>
<path d="M191.786 250.403L188.075 251.22C187.2 247.248 191.126 243.917 194.903 245.425L209.381 251.209L215.96 233.717C217.51 229.596 223.217 229.277 225.217 233.2L232.134 246.773L245.569 236.167C249.165 233.328 254.383 236.341 253.723 240.875M191.786 250.403L253.723 240.875M191.786 250.403L188.075 251.22L191.893 268.568L174.96 273.935C171.083 275.163 170.161 280.229 173.356 282.745L185.604 292.392L173.745 306.835C170.951 310.239 173.528 315.341 177.926 315.111L193.139 314.315L190.671 331.252C190.011 335.786 195.229 338.799 198.825 335.96L212.259 325.354L219.177 338.927C221.176 342.85 226.884 342.532 228.434 338.41L234.868 321.303L259.416 334.092C263.901 336.429 268.666 331.475 266.156 327.084L249.137 297.315L274.449 299.05C279.82 299.418 281.983 292.262 277.307 289.594L259.187 279.252L270.649 265.292C273.443 261.889 270.865 256.786 266.468 257.016L266.667 260.811L266.468 257.016L251.255 257.812L253.723 240.875M191.786 250.403L249.962 240.327L253.723 240.875M192.083 252.483L192.187 252.224L192.083 252.483L192.087 252.485C192.085 252.484 192.084 252.484 192.083 252.483ZM177.257 281.18L177.172 280.914L177.257 281.18L177.26 281.179C177.259 281.179 177.258 281.179 177.257 281.18ZM225.949 335.476L225.946 335.472C225.947 335.473 225.948 335.474 225.949 335.476ZM250.278 242.133C250.278 242.133 250.277 242.134 250.276 242.135L250.278 242.133L249.789 241.513L250.278 242.133ZM246.201 239.782C246.201 239.781 246.201 239.78 246.201 239.779L246.983 239.893L246.201 239.779L246.201 239.782ZM193.584 311.258L193.584 311.262C193.584 311.261 193.584 311.26 193.584 311.258ZM214.684 323.44C214.683 323.441 214.681 323.442 214.68 323.443L214.684 323.44L213.114 321.451L214.684 323.44Z" fill="#447427" stroke="#2C522C" stroke-width="7.60044"/>
<path d="M164.987 136.637L164.983 136.639C164.984 136.639 164.986 136.638 164.987 136.637ZM135.551 81.8356L124.733 107.279L118.253 89.1276C116.322 83.7188 108.314 85.1204 108.335 90.8634L108.404 109.74L97.2078 107.202C93.0531 106.26 89.6391 110.519 91.4623 114.369L97.8947 127.953L86.093 134.396C82.5459 136.332 82.546 141.426 86.093 143.362L97.8947 149.805L91.4623 163.389C89.6391 167.239 93.0531 171.498 97.2078 170.556L108.894 167.907L110.415 182.334C110.894 186.876 116.637 188.554 119.487 184.985L127.375 175.103L135.264 184.985C138.114 188.554 143.857 186.876 144.336 182.334L145.857 167.907L157.543 170.556C161.698 171.498 165.112 167.239 163.289 163.389L156.856 149.805L168.658 143.362C172.205 141.426 172.205 136.332 168.658 134.396L156.856 127.953L163.289 114.369C165.112 110.519 161.698 106.26 157.543 107.202L146.181 109.778L145.357 83.6731C145.184 78.2023 137.693 76.7988 135.551 81.8356ZM146.158 165.048C146.158 165.05 146.158 165.051 146.158 165.052L146.158 165.048L143.618 164.781L146.158 165.048ZM154.74 150.96L154.743 150.958C154.742 150.959 154.741 150.96 154.74 150.96L153.516 148.719L154.74 150.96ZM89.7641 141.12L89.6718 140.951L89.7641 141.12L89.7661 141.119C89.7654 141.12 89.7648 141.12 89.7641 141.12Z" fill="#447427" stroke="#2C522C" stroke-width="7.66154"/>
<path d="M24.3618 186.038L37.3553 200.203L15.4181 199.483C10.3235 199.316 8.57935 206.2 13.1389 208.479L33.642 218.726L23.6739 226.268C20.1334 228.947 21.8764 234.586 26.3109 234.8L41.2971 235.522L38.8861 246.158C38.0103 250.021 41.9706 253.196 45.5509 251.5L44.0264 248.281L45.5509 251.5L58.1823 245.519L64.1733 256.493C65.9739 259.792 70.7104 259.792 72.511 256.493L78.502 245.519L91.1334 251.5C94.7137 253.196 98.674 250.021 97.7982 246.158L95.3348 235.291L108.751 233.876C112.974 233.431 114.535 228.09 111.216 225.441L102.027 218.105L111.216 210.769C114.535 208.12 112.974 202.779 108.751 202.334L95.3348 200.92L97.7982 190.052C98.674 186.189 94.7137 183.014 91.1334 184.71L78.502 190.691L72.511 179.717C70.7104 176.419 65.9739 176.419 64.1733 179.717L58.1302 190.787L29.7529 178.47C25.0491 176.429 20.8956 182.259 24.3617 186.038L26.9869 183.63L24.3618 186.038ZM36.6926 216.418L36.6894 216.421C36.6905 216.42 36.6915 216.419 36.6926 216.418ZM45.8342 247.733L45.8352 247.729C45.8349 247.73 45.8345 247.731 45.8342 247.733Z" fill="#447427" stroke="#2C522C" stroke-width="7.12439"/>
<path d="M96.3905 294.571L95.529 297.93L80.91 294.181L76.8478 308.716M96.3905 294.571L76.8478 308.716M96.3905 294.571L95.529 297.93C99.2137 298.875 102.4 295.215 100.955 291.696L95.6375 278.739L110.247 273.435C113.984 272.078 114.38 266.95 110.895 265.036L98.8 258.391L107.651 246.602C110.096 243.345 107.441 238.746 103.398 239.236L88.7628 241.006L89.0559 227.209C89.1403 223.234 84.5016 221.013 81.4582 223.571L70.0978 233.119L57.9084 209.797C55.721 205.612 49.4061 207.011 49.1915 211.729L47.9844 238.269L32.3667 233.813C28.5021 232.711 25.1677 236.723 26.9589 240.321L31.4659 249.372L11.0953 241.03C6.40406 239.109 2.48659 245.047 6.09909 248.604L30.4975 272.624L8.20192 286.137C3.9894 288.691 6.15794 295.183 11.0593 294.693L40.9721 291.697L40.6773 305.577L44.1444 305.65L40.6773 305.577C40.5929 309.551 45.2316 311.772 48.275 309.214L60.1737 299.214M96.3905 294.571L60.1737 299.214M76.8478 308.716C75.8239 312.379 71.0608 313.308 68.7354 310.298L60.1737 299.214M76.8478 308.716L60.1737 299.214M70.168 306.849C70.1682 306.848 70.1685 306.847 70.1687 306.847L70.168 306.849L70.5318 306.951L70.168 306.849Z" fill="#447427" stroke="#2C522C" stroke-width="6.93574"/>
<path d="M367.692 176.816L351.139 167.043L372.337 161.35C377.259 160.027 376.925 152.934 371.9 152.08L349.302 148.241L356.645 138.126C359.253 134.533 355.945 129.645 351.64 130.73L337.092 134.4L336.304 123.523C336.018 119.571 331.305 117.686 328.373 120.35L330.768 122.987L328.373 120.35L318.028 129.748L309.104 120.991C306.421 118.36 301.89 119.738 301.127 123.417L298.588 135.66L284.763 133.612C280.844 133.032 277.979 137.222 279.941 140.663L285.459 150.343L273.035 155.6C269.124 157.255 269.185 162.818 273.131 164.387L284.057 168.732L277.4 178.424C274.995 181.925 278.042 186.58 282.212 185.777L295.459 183.227L296.264 194.341C296.551 198.292 301.263 200.177 304.195 197.513L314.54 188.116L323.465 196.872C326.147 199.504 330.679 198.126 331.442 194.446L334.003 182.097L364.736 185.624C369.83 186.209 372.108 179.423 367.692 176.816L365.881 179.883L367.692 176.816ZM347.055 151.337L347.058 151.334C347.057 151.335 347.056 151.336 347.055 151.337ZM329.198 124.037L329.198 124.041C329.198 124.04 329.198 124.039 329.198 124.037Z" fill="#447427" stroke="#2C522C" stroke-width="7.12439"/>
<path d="M283.123 72.2357L283.123 72.2399L283.123 72.2357ZM272.663 76.2885L276.277 48.9228C277.11 42.6206 268.658 39.7658 265.498 45.2817L244.158 82.5364L220.653 59.8127C216.212 55.5194 209.031 60.2215 211.191 66.0086L224.372 101.327L207.447 105.4C202.6 106.566 201.387 112.9 205.46 115.774L221.385 127.012L210.677 140.932C207.769 144.713 210.416 150.192 215.185 150.265L234.108 150.551L234.228 169.476C234.258 174.246 239.714 176.941 243.52 174.066L257.535 163.482L268.631 179.505C271.469 183.603 277.814 182.447 279.023 177.61L274.804 176.556L279.023 177.61L283.22 160.821L300.341 167.792C305.072 169.717 309.801 165.03 307.917 160.283L301.098 143.1L317.923 139.051C322.77 137.885 323.983 131.551 319.91 128.677L317.402 132.23L319.91 128.677L304.705 117.948L329.096 95.7219C333.472 91.7335 329.76 84.5222 323.971 85.7678L291.4 92.7758L291.819 72.4144C291.922 67.376 285.992 64.6132 282.201 67.9338L272.663 76.2885ZM280.125 159.561L280.129 159.563C280.128 159.563 280.126 159.562 280.125 159.561ZM259.945 161.661C259.944 161.662 259.942 161.663 259.94 161.665L259.945 161.661L258.198 159.348L259.945 161.661ZM234.09 147.714L234.09 147.717L234.09 147.714L236.989 147.695L234.09 147.714Z" fill="#447427" stroke="#2C522C" stroke-width="8.69726"/>
<path d="M118.575 100.34C117.506 94.6881 119.068 88.8572 122.82 84.4976L155.384 46.6576C159.136 42.2979 164.669 39.884 170.417 40.099L220.304 41.9657C226.052 42.1807 231.389 45.0014 234.805 49.6293L264.45 89.797C267.865 94.4248 268.987 100.356 267.499 105.912L254.578 154.134C253.089 159.689 249.152 164.265 243.88 166.565L198.123 186.529C192.851 188.829 186.818 188.603 181.733 185.915L137.596 162.588C132.511 159.9 128.926 155.043 127.857 149.392L118.575 100.34Z" fill="#D9C835" stroke="#A6992A" stroke-width="12.6"/>
<path d="M137.948 97.0406L170.042 59.7466L219.21 61.5863L248.427 101.174L235.692 148.7L190.595 168.376L147.095 145.385L137.948 97.0406Z" fill="#F2E35E"/>
<path d="M83.5876 162.919C82.351 158.304 83.6704 153.379 87.049 150.001L115.27 121.78C118.648 118.402 123.572 117.082 128.187 118.319L166.737 128.648C171.353 129.885 174.957 133.49 176.194 138.105L186.524 176.655C187.76 181.27 186.441 186.194 183.062 189.573L154.842 217.794C151.463 221.172 146.539 222.492 141.924 221.255L103.374 210.925C98.7585 209.689 95.1537 206.084 93.917 201.469L83.5876 162.919Z" fill="#D9C835" stroke="#A6992A" stroke-width="8.91579"/>
<path d="M96.3016 159.403L124.671 131.033L163.425 141.417L173.809 180.171L145.44 208.541L106.686 198.157L96.3016 159.403Z" fill="#F2E35E"/>
<path d="M253.17 253.654C249.792 250.275 248.472 245.351 249.709 240.736L263.611 188.853C264.847 184.238 268.452 180.633 273.067 179.397L324.95 165.495C329.565 164.258 334.49 165.577 337.868 168.956L375.849 206.937C379.227 210.315 380.547 215.24 379.31 219.855L365.408 271.738C364.172 276.353 360.567 279.958 355.952 281.194L304.069 295.096C299.454 296.333 294.529 295.013 291.151 291.635L253.17 253.654Z" fill="#D9C835" stroke="#A6992A" stroke-width="8.91579"/>
<path d="M264.753 250.102L277.506 202.507L325.102 189.753L359.945 224.596L347.191 272.192L299.596 284.945L264.753 250.102Z" fill="#B7AC47"/>
<path d="M266.585 243.619L279.338 196.023L326.934 183.27L361.776 218.112L349.023 265.708L301.427 278.461L266.585 243.619Z" fill="#F2E35E"/>
<path d="M74.6061 311.024C69.9274 307.678 67.0269 302.384 66.7255 296.641L64.1094 246.786C63.808 241.043 66.1385 235.474 70.4413 231.657L107.788 198.528C112.091 194.711 117.897 193.062 123.564 194.046L172.751 202.589C178.417 203.573 183.328 207.085 186.091 212.129L210.079 255.911C212.843 260.955 213.159 266.983 210.939 272.289L191.665 318.341C189.444 323.647 184.928 327.653 179.396 329.225L131.374 342.869C125.841 344.441 119.893 343.408 115.215 340.062L74.6061 311.024Z" fill="#D9C835" stroke="#A6992A" stroke-width="12.6"/>
<path d="M86.2444 300.214L83.6661 251.08L120.474 218.429L168.95 226.849L192.592 269.999L173.596 315.386L126.267 328.834L86.2444 300.214Z" fill="#B7AC47"/>
<path d="M86.3279 295.251L83.7496 246.116L120.557 213.466L169.034 221.885L192.676 265.036L173.68 310.423L126.351 323.87L86.3279 295.251Z" fill="#F2E35E"/>
<path d="M101.097 246.956L136.806 226.339L172.515 246.956L172.515 288.189L136.806 308.805L101.097 288.189L101.097 246.956Z" fill="#D6C31C"/>
<path d="M113.459 189.863C110.873 180.213 113.632 169.917 120.696 162.853L179.703 103.846C186.767 96.7817 197.063 94.0229 206.713 96.6085L287.318 118.206C296.968 120.792 304.505 128.33 307.091 137.979L328.689 218.584C331.274 228.234 328.515 238.53 321.451 245.594L262.445 304.601C255.38 311.665 245.084 314.424 235.434 311.838L154.83 290.24C145.18 287.655 137.643 280.117 135.057 270.467L113.459 189.863Z" fill="#D9C835" stroke="#A6992A" stroke-width="18.6421"/>
<path d="M139.712 189.031L199.031 129.712L280.062 151.424L301.774 232.455L242.455 291.774L161.424 270.062L139.712 189.031Z" fill="#B7AC47"/>
<path d="M140.043 182.511L199.362 123.192L280.393 144.905L302.105 225.936L242.786 285.254L161.755 263.542L140.043 182.511Z" fill="#F2E35E"/>
<path d="M173.26 191.412L208.262 156.41L256.075 169.222L268.887 217.035L233.885 252.037L186.072 239.225L173.26 191.412Z" fill="#D6C31C"/>
<path d="M195.476 197.365L214.215 178.627L239.812 185.485L246.67 211.082L227.932 229.821L202.335 222.962L195.476 197.365Z" fill="#9C9128"/>
</g>
<defs>
<clipPath id="clip0_388_13">
<rect width="400" height="400" fill="white"/>
</clipPath>
</defs>
</svg>
