<svg width="501" height="501" viewBox="0 0 501 501" fill="none" xmlns="http://www.w3.org/2000/svg">
<g clip-path="url(#clip0_388_13)">
<path d="M234.258 405.859L251.915 393.792C256.343 390.766 254.491 383.852 249.142 383.446L227.818 381.824L234.147 365.639C235.982 360.945 231.245 356.365 226.615 358.358L203.991 368.1L196.605 351.749C194.814 347.785 189.413 347.225 186.848 350.738L173.527 368.978L152.871 359.842C148.893 358.082 144.495 361.267 144.927 365.596L146.706 383.45L122.241 386.325C117.235 386.914 115.423 393.249 119.36 396.396L132.933 407.248L115.276 419.315C110.848 422.341 112.7 429.254 118.049 429.661L139.373 431.283L133.044 447.468C131.208 452.162 135.946 456.742 140.575 454.749L162.738 445.205L172.416 475.328C174.094 480.55 181.467 480.592 183.204 475.39L196.404 435.862L218.066 458.272C222.15 462.497 229.174 458.494 227.622 452.827L221.248 429.568L244.949 426.782C249.955 426.193 251.768 419.858 247.831 416.711L234.258 405.859Z" fill="#447427" stroke="#2C522C" stroke-width="8.51441"/>
<path d="M333.196 409.616L311.919 372.4L343.563 374.568C350.278 375.029 352.982 366.083 347.136 362.747L324.483 349.818L338.813 332.365C342.306 328.111 339.083 321.732 333.586 322.02L314.567 323.015L317.652 301.84C318.478 296.172 311.954 292.405 307.458 295.955L290.663 309.214L282.015 292.245C279.515 287.341 272.38 287.739 270.442 292.892L262.217 314.759L244.117 307.529C239.396 305.643 234.488 309.808 235.581 314.773L240.355 336.461L219.186 343.17C214.339 344.707 213.186 351.039 217.18 354.185L232.492 366.245L217.666 384.302C214.173 388.557 217.396 394.935 222.893 394.647L241.912 393.653L238.827 414.827C238.001 420.496 244.525 424.262 249.021 420.713L265.816 407.453L274.464 424.422C276.964 429.327 284.099 428.928 286.037 423.776L294.081 402.389L324.77 418.378C330.377 421.299 336.334 415.105 333.196 409.616Z" fill="#447427" stroke="#2C522C" stroke-width="9.50183"/>
<path d="M169.919 103.015L156.393 134.823L148.293 112.131C145.879 105.369 135.867 107.121 135.893 114.301L135.979 137.9L121.983 134.727C116.789 133.55 112.521 138.874 114.8 143.687L122.841 160.669L108.087 168.724C103.653 171.145 103.653 177.512 108.087 179.933L122.841 187.988L114.8 204.97C112.521 209.783 116.789 215.107 121.983 213.93L136.593 210.618L138.494 228.655C139.093 234.333 146.273 236.431 149.835 231.969L159.697 219.615L169.56 231.969C173.122 236.431 180.302 234.332 180.9 228.655L182.802 210.618L197.412 213.93C202.606 215.107 206.874 209.783 204.595 204.97L196.553 187.988L211.308 179.933C215.742 177.512 215.742 171.145 211.308 168.724L196.553 160.669L204.595 143.687C206.874 138.874 202.606 133.55 197.412 134.727L183.208 137.947L182.177 105.312C181.961 98.4726 172.596 96.7176 169.919 103.015Z" fill="#447427" stroke="#2C522C" stroke-width="9.57821"/>
<path d="M30.9119 233.284L47.1561 250.994L19.7308 250.094C13.3617 249.885 11.1812 258.491 16.8815 261.34L42.5138 274.151L30.0519 283.579C25.6257 286.928 27.8048 293.978 33.3486 294.245L52.0839 295.148L49.0698 308.445C47.9749 313.275 52.9259 317.243 57.4019 315.124L73.1933 307.646L80.6831 321.366C82.9341 325.489 88.8555 325.489 91.1066 321.366L98.5964 307.646L114.388 315.124C118.864 317.243 123.815 313.275 122.72 308.445L119.64 294.859L136.412 293.091C141.692 292.534 143.643 285.857 139.494 282.545L128.006 273.374L139.494 264.203C143.643 260.891 141.692 254.214 136.412 253.658L119.64 251.889L122.72 238.304C123.815 233.474 118.864 229.505 114.388 231.624L98.5964 239.102L91.1066 225.382C88.8555 221.259 82.9342 221.259 80.6831 225.382L73.1281 239.221L37.6517 223.824C31.7711 221.271 26.5787 228.56 30.9119 233.284Z" fill="#447427" stroke="#2C522C" stroke-width="8.90668"/>
<path d="M34.16 301.147L39.7944 312.463L14.3278 302.034C8.46286 299.632 3.56553 307.057 8.08169 311.503L38.5839 341.532L10.7106 358.426C5.44423 361.618 8.15525 369.735 14.2828 369.121L51.6789 365.377L51.3103 382.728C51.2047 387.697 57.0039 390.474 60.8087 387.276L75.6841 374.775L86.3876 388.631C89.2948 392.394 95.2494 391.233 96.5295 386.653L101.608 368.482L119.884 373.169C124.491 374.351 128.474 369.774 126.668 365.375L120.02 349.177L138.284 342.546C142.956 340.849 143.451 334.439 139.095 332.046L123.973 323.739L135.039 309C138.096 304.928 134.776 299.179 129.722 299.791L111.425 302.004L111.792 284.756C111.897 279.787 106.098 277.01 102.293 280.207L88.0909 292.143L72.8521 262.988C70.1175 257.756 62.2227 259.505 61.9545 265.403L60.4453 298.583L40.9206 293.012C36.0892 291.634 31.9206 296.65 34.16 301.147Z" fill="#447427" stroke="#2C522C" stroke-width="8.67084"/>
<path d="M460.132 221.756L439.438 209.538L465.939 202.42C472.093 200.767 471.676 191.899 465.393 190.832L437.142 186.033L446.322 173.387C449.582 168.895 445.446 162.784 440.065 164.141L421.877 168.728L420.892 155.13C420.534 150.19 414.643 147.834 410.977 151.164L398.045 162.913L386.887 151.966C383.534 148.676 377.868 150.398 376.915 154.998L373.74 170.304L356.457 167.744C351.558 167.018 347.976 172.256 350.428 176.559L357.327 188.66L341.796 195.232C336.906 197.301 336.982 204.256 341.915 206.218L355.574 211.65L347.252 223.767C344.246 228.143 348.055 233.963 353.269 232.959L369.83 229.771L370.836 243.665C371.194 248.605 377.085 250.961 380.751 247.631L393.683 235.882L404.841 246.829C408.194 250.12 413.86 248.397 414.813 243.797L418.015 228.358L456.437 232.768C462.806 233.499 465.653 225.015 460.132 221.756Z" fill="#447427" stroke="#2C522C" stroke-width="8.90668"/>
<path d="M353.255 85.6349L341.331 96.0798L345.849 61.8681C346.89 53.9892 336.323 50.4203 332.373 57.3161L305.694 103.891L276.31 75.4823C270.758 70.1149 261.78 75.9934 264.48 83.2282L280.959 127.382L259.799 132.474C253.74 133.932 252.224 141.851 257.316 145.444L277.224 159.492L263.838 176.895C260.202 181.622 263.511 188.472 269.474 188.562L293.131 188.921L293.28 212.58C293.318 218.543 300.139 221.912 304.897 218.318L322.418 205.086L336.29 225.118C339.838 230.242 347.77 228.795 349.281 222.749L354.528 201.76L375.933 210.474C381.847 212.882 387.759 207.021 385.404 201.087L376.879 179.606L397.914 174.544C403.973 173.086 405.489 165.167 400.397 161.574L381.389 148.161L411.881 120.375C417.353 115.389 412.711 106.373 405.474 107.93L364.756 116.692L365.278 91.2364C365.408 84.9376 357.994 81.4837 353.255 85.6349Z" fill="#447427" stroke="#2C522C" stroke-width="10.873"/>
<path d="M154.002 106.342L194.712 59.0357C199.403 53.5854 206.32 50.5676 213.505 50.8364L275.874 53.1701C283.059 53.439 289.731 56.9653 294.001 62.7509L331.063 112.967C335.333 118.753 336.736 126.168 334.875 133.114L318.721 193.399C316.86 200.345 311.937 206.065 305.347 208.94L248.142 233.898C241.552 236.774 234.01 236.491 227.653 233.132L172.474 203.968C166.116 200.608 161.635 194.536 160.298 187.471L148.695 126.147C147.358 119.082 149.311 111.792 154.002 106.342Z" fill="#D9C835" stroke="#A6992A" stroke-width="15.7521"/>
<path d="M172.915 122.023L213.038 75.3996L274.506 77.6996L311.033 127.191L295.112 186.607L238.733 211.205L184.35 182.462L172.915 122.023Z" fill="#F2E35E"/>
<path d="M109.283 188.233L144.563 152.952C148.787 148.728 154.943 147.079 160.713 148.625L208.907 161.538C214.676 163.084 219.183 167.591 220.729 173.361L233.643 221.555C235.188 227.324 233.539 233.481 229.315 237.704L194.035 272.985C189.811 277.209 183.655 278.858 177.885 277.312L129.691 264.399C123.921 262.853 119.415 258.346 117.869 252.576L104.955 204.382C103.409 198.613 105.059 192.456 109.283 188.233Z" fill="#D9C835" stroke="#A6992A" stroke-width="11.1462"/>
<path d="M120.85 199.986L156.317 164.519L204.766 177.501L217.748 225.95L182.281 261.417L133.832 248.435L120.85 199.986Z" fill="#F2E35E"/>
<path d="M312.634 301.667L330.014 236.804C331.56 231.035 336.067 226.528 341.836 224.982L406.699 207.602C412.468 206.056 418.625 207.706 422.848 211.93L470.331 259.412C474.555 263.636 476.204 269.792 474.658 275.562L457.278 340.424C455.732 346.194 451.226 350.7 445.456 352.246L380.594 369.626C374.824 371.172 368.668 369.523 364.444 365.299L316.961 317.816C312.738 313.593 311.088 307.436 312.634 301.667Z" fill="#D9C835" stroke="#A6992A" stroke-width="11.1462"/>
<path d="M331.442 313.376L347.386 253.873L406.888 237.93L450.447 281.489L434.504 340.991L375.001 356.935L331.442 313.376Z" fill="#B7AC47"/>
<path d="M333.732 305.27L349.676 245.768L409.178 229.824L452.737 273.383L436.794 332.886L377.291 348.829L333.732 305.27Z" fill="#F2E35E"/>
<path d="M83.8748 371.557L80.6043 309.23C80.2275 302.05 83.1411 295.088 88.5203 290.316L135.21 248.9C140.589 244.128 147.848 242.065 154.933 243.296L216.424 253.976C223.509 255.207 229.647 259.596 233.102 265.903L263.091 320.637C266.546 326.944 266.942 334.48 264.166 341.113L240.07 398.686C237.294 405.319 231.648 410.327 224.732 412.292L164.696 429.35C157.779 431.315 150.344 430.024 144.495 425.841L93.7269 389.538C87.8778 385.356 84.2516 378.737 83.8748 371.557Z" fill="#D9C835" stroke="#A6992A" stroke-width="15.7521"/>
<path d="M108.277 376.025L105.054 314.598L151.069 273.779L211.673 284.305L241.229 338.25L217.481 394.992L158.312 411.803L108.277 376.025Z" fill="#B7AC47"/>
<path d="M108.38 369.82L105.157 308.393L151.173 267.574L211.777 278.1L241.333 332.045L217.585 388.787L158.415 405.599L108.38 369.82Z" fill="#F2E35E"/>
<path d="M126.844 309.442L171.487 283.668L216.129 309.442L216.129 360.99L171.487 386.765L126.844 360.99L126.844 309.442Z" fill="#D6C31C"/>
<path d="M151.347 204.299L225.115 130.531C233.946 121.7 246.818 118.251 258.882 121.483L359.652 148.484C371.716 151.717 381.139 161.14 384.371 173.204L411.372 273.973C414.605 286.037 411.156 298.909 402.324 307.74L328.556 381.509C319.724 390.34 306.852 393.789 294.788 390.557L194.019 363.555C181.955 360.323 172.532 350.9 169.3 338.836L142.299 238.067C139.066 226.003 142.515 213.131 151.347 204.299Z" fill="#D9C835" stroke="#A6992A" stroke-width="23.3058"/>
<path d="M175.12 237.027L249.279 162.868L350.581 190.012L377.725 291.314L303.567 365.473L202.264 338.329L175.12 237.027Z" fill="#B7AC47"/>
<path d="M175.534 228.876L249.692 154.717L350.995 181.861L378.138 283.164L303.98 357.322L202.677 330.178L175.534 228.876Z" fill="#F2E35E"/>
<path d="M217.061 240.003L260.819 196.245L320.593 212.261L336.61 272.036L292.852 315.794L233.077 299.778L217.061 240.003Z" fill="#D6C31C"/>
<path d="M244.834 247.445L268.26 224.019L300.261 232.594L308.836 264.595L285.409 288.021L253.409 279.446L244.834 247.445Z" fill="#9C9128"/>
</g>
<defs>
<clipPath id="clip0_388_13">
<rect width="500" height="500" fill="white" transform="translate(0.456055 0.706055)"/>
</clipPath>
</defs>
</svg>
