<svg width="1001" height="1001" viewBox="0 0 1001 1001" fill="none" xmlns="http://www.w3.org/2000/svg">
<g clip-path="url(#clip0_388_6)">
<path d="M554.635 72.7021L841.032 238.053C875.319 257.849 896.44 294.433 896.44 334.024V664.727C896.44 704.318 875.319 740.902 841.032 760.698L554.635 926.049C520.348 945.845 478.104 945.845 443.817 926.049L157.42 760.698C123.133 740.902 102.011 704.318 102.011 664.727V334.024C102.011 294.433 123.133 257.849 157.42 238.053L443.817 72.7021C478.104 52.9064 520.348 52.9064 554.635 72.7021Z" fill="#D9C835" stroke="#A6992A" stroke-width="73.8784"/>
<path d="M499.226 166.923L787.139 333.15V665.603L499.226 831.829L211.314 665.603V333.15L499.226 166.923Z" fill="#F2E35E"/>
<path d="M499.226 166.923L787.139 333.15V665.602L657.537 462.437L541.442 351.619L393.685 319.957L211.313 333.15L499.226 166.923Z" fill="#FFF278"/>
</g>
<defs>
<clipPath id="clip0_388_6">
<rect width="1000" height="1000" fill="white" transform="translate(0.40918 0.558594)"/>
</clipPath>
</defs>
</svg>
