<svg width="400" height="400" viewBox="0 0 400 400" fill="none" xmlns="http://www.w3.org/2000/svg">
<g clip-path="url(#clip0_388_6)">
<path d="M177.339 28.8536C191.052 20.9364 207.948 20.9364 221.661 28.8536L336.204 94.9852C349.917 102.902 358.364 117.534 358.364 133.368V265.632C358.364 281.466 349.917 296.098 336.204 304.015L221.661 370.146C207.948 378.064 191.052 378.064 177.339 370.146L62.7961 304.015L55.4093 316.809L62.7961 304.015C49.0831 296.098 40.6356 281.466 40.6356 265.632V133.368C40.6356 117.534 49.0831 102.902 62.7961 94.9852L177.339 28.8536Z" fill="#D9C835" stroke="#A6992A" stroke-width="29.5474"/>
<path d="M199.5 66.5369L314.649 133.018V265.982L199.5 332.463L84.3503 265.982V133.018L199.5 66.5369Z" fill="#F2E35E"/>
<path d="M199.5 66.5369L314.65 133.018V265.982L262.816 184.726L216.384 140.405L157.289 127.742L84.3506 133.018L199.5 66.5369Z" fill="#FFF278"/>
</g>
<defs>
<clipPath id="clip0_388_6">
<rect width="400" height="400" fill="white"/>
</clipPath>
</defs>
</svg>
