<svg width="1000" height="1000" viewBox="0 0 1000 1000" fill="none" xmlns="http://www.w3.org/2000/svg">
<path d="M177.415 624.637C229.455 602.751 347.58 532.828 465.884 479.313L518.284 700.557L227.394 769.01C222.783 773.85 197.693 802.627 155.995 845.976C104.329 855.84 66.5341 820.586 66.5419 769.01L84.5956 731.736C73.4763 727.812 55.6249 713.771 22.186 700.63C-19.6127 684.204 58.9131 612.233 66.5415 603.217C72.6443 596.005 149.244 608.561 177.415 624.637Z" fill="#663C33"/>
<path d="M303.459 644.52C269.178 324.191 739.38 161.048 778.558 153L955.669 696.037C745.629 784.57 330.884 900.784 303.459 644.52Z" fill="#663C33"/>
<path d="M773.719 153.404C659.534 237.008 777.718 683.418 955.669 696.037C1026.85 604.546 997.641 188.108 773.719 153.404Z" fill="#663C33"/>
<path d="M932.526 412.249C942.573 457.26 931.59 497.906 907.997 503.034C884.403 508.162 857.132 475.829 847.085 430.818C837.039 385.806 848.021 345.16 871.615 340.033C895.209 334.905 922.48 367.237 932.526 412.249Z" fill="#663C33"/>
<path d="M906.289 416.166C912.087 442.143 905.749 465.6 892.132 468.559C878.516 471.519 862.777 452.859 856.979 426.882C851.181 400.905 857.52 377.448 871.136 374.488C884.752 371.529 900.491 390.189 906.289 416.166Z" fill="#663C33"/>
<path d="M168.917 668.133C212.667 650.519 351.478 587.933 450.948 544.89L471.184 655.826L196.552 741.714C192.667 745.589 178.064 763.038 150.733 801.839C107.333 809.861 102.596 775.955 105.653 757.999L137.485 716.473C128.163 713.374 102.511 704.582 74.4802 694.198C39.4417 681.217 85.2574 644.338 91.688 637.123C96.8324 631.351 145.317 655.391 168.917 668.133Z" fill="#F0C2B7"/>
<path d="M357.648 621.593C329.309 353.76 723.357 211.095 755.745 204.365L906.886 667.354C733.253 741.378 380.32 835.86 357.648 621.593Z" fill="#95594C"/>
<path d="M757.101 203.016C653.191 274.348 749.004 655.237 910.942 666.004C975.717 587.942 960.872 232.625 757.101 203.016Z" fill="#95594C"/>
<path d="M764.607 253.374C674.795 312.777 757.609 629.965 897.575 638.931C953.562 573.924 940.731 278.032 764.607 253.374Z" fill="#AB6454"/>
<ellipse cx="36.1923" cy="69.8033" rx="36.1923" ry="69.8033" transform="matrix(0.976714 -0.214545 0.215635 0.976474 794.885 374.669)" fill="#95594C"/>
<ellipse cx="21.6745" cy="41.8032" rx="21.6745" ry="41.8032" transform="matrix(0.976714 -0.214545 0.215635 0.976474 815.668 397.121)" fill="#F0C2B7"/>
<path d="M365.747 652.544C578.425 702.073 713.912 582.557 754.397 517.954C785.435 586.595 832.666 651.198 910.936 666.003C685.573 762.907 412.979 807.322 365.747 652.544Z" fill="#95594C"/>
</svg>
