<svg width="400" height="400" viewBox="0 0 400 400" fill="none" xmlns="http://www.w3.org/2000/svg">
<path fill-rule="evenodd" clip-rule="evenodd" d="M50.2568 166C40.9545 166 33.4136 173.541 33.4136 182.843V214.791C33.4136 224.093 40.9545 231.634 50.2568 231.634H375.157C384.459 231.634 392 224.093 392 214.791V182.843C392 173.541 384.459 166 375.157 166H50.2568ZM59.0499 180.408C52.8484 180.408 47.8211 185.435 47.8211 191.636V205.998C47.8211 212.199 52.8484 217.227 59.0499 217.227H364.763C370.964 217.227 375.992 212.199 375.992 205.998V191.636C375.992 185.435 370.964 180.408 364.763 180.408H59.0499Z" fill="#957868"/>
<path fill-rule="evenodd" clip-rule="evenodd" d="M22 188.037C22 178.734 29.541 171.193 38.8432 171.193H371.157C380.459 171.193 388 178.734 388 188.037V209.35C388 218.652 380.459 226.193 371.157 226.193H38.8432C29.541 226.193 22 218.652 22 209.35V206.193C22 213.925 28.268 220.193 36 220.193H367C374.732 220.193 381 213.925 381 206.193V191.193C381 183.461 374.732 177.193 367 177.193H36C28.268 177.193 22 183.461 22 191.193V188.037Z" fill="#957868"/>
<circle cx="51.6237" cy="199.624" r="45.6237" fill="#947868"/>
<g filter="url(#filter0_i_428_1701)">
<circle cx="51.6238" cy="199.623" r="40.0208" fill="#957868"/>
</g>
<circle cx="51.5" cy="199.5" r="30.5" fill="#AB8A77"/>
<path d="M26.5003 206C30.1445 204.467 38.4167 199.57 46.7014 195.823L50.3708 211.316L30.0002 216.11C29.6774 216.449 27.9203 218.464 25.0002 221.5C21.3822 222.19 18.7355 219.722 18.736 216.11L20.0003 213.5C19.2216 213.225 17.9715 212.242 15.6298 211.321C12.7027 210.171 18.2018 205.131 18.736 204.5C19.1633 203.995 24.5275 204.874 26.5003 206Z" fill="#663C33"/>
<path d="M35.3267 207.392C32.9261 184.96 65.8536 173.535 68.5972 172.972L81 211C66.2912 217.2 37.2472 225.338 35.3267 207.392Z" fill="#663C33"/>
<path d="M68.2586 173C60.2623 178.855 68.5387 210.116 81.0004 211C85.985 204.593 83.9395 175.43 68.2586 173Z" fill="#663C33"/>
<ellipse cx="3.06149" cy="5.8478" rx="3.06149" ry="5.8478" transform="matrix(0.977189 -0.212374 0.217837 0.975985 72.1226 186.72)" fill="#663C33"/>
<ellipse cx="1.76684" cy="3.37487" rx="1.76684" ry="3.37487" transform="matrix(0.977189 -0.212374 0.217837 0.975985 73.3535 188.857)" fill="#663C33"/>
<g filter="url(#filter1_i_428_1701)">
<path d="M25.9047 209.045C28.9684 207.812 38.6891 203.429 45.6549 200.415L47.072 208.183L27.8399 214.198C27.5679 214.469 26.5452 215.691 24.6313 218.408C21.592 218.97 21.2603 216.596 21.4744 215.338L23.7036 212.43C23.0508 212.213 21.2544 211.598 19.2914 210.87C16.8377 209.961 20.0461 207.379 20.4964 206.873C20.8567 206.469 24.252 208.153 25.9047 209.045Z" fill="#F0C2B7"/>
<path d="M39.1211 205.786C37.1365 187.03 64.7311 177.04 66.9992 176.568L77.5834 208.991C65.4241 214.175 40.7087 220.791 39.1211 205.786Z" fill="#95594C"/>
<path d="M67.0938 176.474C59.8171 181.469 66.5267 208.142 77.867 208.896C82.4031 203.429 81.3635 178.547 67.0938 176.474Z" fill="#95594C"/>
<path d="M67.6191 180C61.3298 184.16 67.1291 206.372 76.9307 207C80.8513 202.448 79.9529 181.727 67.6191 180Z" fill="#AB6454"/>
<ellipse cx="2.5345" cy="4.88822" rx="2.5345" ry="4.88822" transform="matrix(0.976714 -0.214545 0.215635 0.976474 69.7397 188.494)" fill="#95594C"/>
<ellipse cx="1.51784" cy="2.92742" rx="1.51784" ry="2.92742" transform="matrix(0.976714 -0.214545 0.215635 0.976474 71.1958 190.066)" fill="#F0C2B7"/>
<path d="M39.688 207.953C54.5815 211.422 64.0695 203.052 66.9046 198.528C69.0781 203.335 72.3857 207.859 77.8668 208.896C62.0849 215.682 42.9956 218.792 39.688 207.953Z" fill="#95594C"/>
</g>
<defs>
<filter id="filter0_i_428_1701" x="11.603" y="159.603" width="80.0415" height="84.0415" filterUnits="userSpaceOnUse" color-interpolation-filters="sRGB">
<feFlood flood-opacity="0" result="BackgroundImageFix"/>
<feBlend mode="normal" in="SourceGraphic" in2="BackgroundImageFix" result="shape"/>
<feColorMatrix in="SourceAlpha" type="matrix" values="0 0 0 0 0 0 0 0 0 0 0 0 0 0 0 0 0 0 127 0" result="hardAlpha"/>
<feOffset dy="4"/>
<feGaussianBlur stdDeviation="2"/>
<feComposite in2="hardAlpha" operator="arithmetic" k2="-1" k3="1"/>
<feColorMatrix type="matrix" values="0 0 0 0 0 0 0 0 0 0 0 0 0 0 0 0 0 0 0.25 0"/>
<feBlend mode="normal" in2="shape" result="effect1_innerShadow_428_1701"/>
</filter>
<filter id="filter1_i_428_1701" x="18.3765" y="176.474" width="61.8848" height="45.2471" filterUnits="userSpaceOnUse" color-interpolation-filters="sRGB">
<feFlood flood-opacity="0" result="BackgroundImageFix"/>
<feBlend mode="normal" in="SourceGraphic" in2="BackgroundImageFix" result="shape"/>
<feColorMatrix in="SourceAlpha" type="matrix" values="0 0 0 0 0 0 0 0 0 0 0 0 0 0 0 0 0 0 127 0" result="hardAlpha"/>
<feOffset dy="3.22807"/>
<feGaussianBlur stdDeviation="1.61404"/>
<feComposite in2="hardAlpha" operator="arithmetic" k2="-1" k3="1"/>
<feColorMatrix type="matrix" values="0 0 0 0 0 0 0 0 0 0 0 0 0 0 0 0 0 0 0.25 0"/>
<feBlend mode="normal" in2="shape" result="effect1_innerShadow_428_1701"/>
</filter>
</defs>
</svg>
