<svg width="400" height="400" viewBox="0 0 400 400" fill="none" xmlns="http://www.w3.org/2000/svg">
<g clip-path="url(#clip0_147_107)">
<path fill-rule="evenodd" clip-rule="evenodd" d="M296.367 247.468C255.531 200.15 143.65 58.5364 135.564 32.5998C72.5106 18.4541 20.5967 51.5874 15.6003 55.7449C47.5875 123.935 181.871 292.559 206.182 299.72C218.842 279.107 230.379 267.064 237.064 260.086C240.425 256.577 242.559 254.349 242.993 252.956L253.94 254.275C257.276 254.677 261.25 257.977 262.82 259.576C263.413 261.234 278.527 277.896 279.17 276.069C279.272 275.78 279.177 274.96 279.04 273.768C278.308 267.423 276.364 250.567 296.367 247.468ZM131.858 67.7047C128.092 72.7258 120.969 73.7432 115.947 69.9769C110.926 66.2107 109.909 59.0871 113.675 54.066C117.441 49.0448 124.565 48.0275 129.586 51.7938C134.607 55.56 135.625 62.6836 131.858 67.7047Z" fill="#989898"/>
<path d="M135.564 32.5998L136.221 29.6725L137.912 30.052L138.428 31.7069L135.564 32.5998ZM296.367 247.468L298.639 245.508L302.174 249.605L296.827 250.433L296.367 247.468ZM15.6003 55.7449L12.8843 57.019L11.9001 54.921L13.6814 53.4388L15.6003 55.7449ZM206.182 299.72L208.738 301.29L207.537 303.247L205.334 302.598L206.182 299.72ZM237.064 260.086L239.23 262.161L239.23 262.161L237.064 260.086ZM242.993 252.956L240.128 252.065L240.87 249.678L243.352 249.977L242.993 252.956ZM253.94 254.275L254.299 251.297L254.299 251.297L253.94 254.275ZM262.82 259.576L264.961 257.475L265.423 257.945L265.645 258.566L262.82 259.576ZM279.17 276.069L282 277.066L282 277.066L279.17 276.069ZM279.04 273.768L282.02 273.424L282.02 273.424L279.04 273.768ZM138.428 31.7069C139.318 34.5598 141.768 39.3277 145.685 45.7817C149.553 52.1548 154.708 59.9431 160.823 68.7498C173.049 86.3588 189.037 107.93 206.067 130.193C240.13 174.724 278.271 221.908 298.639 245.508L294.096 249.428C273.628 225.71 235.41 178.428 201.302 133.838C184.246 111.542 168.196 89.8887 155.894 72.1718C149.745 63.3156 144.513 55.4154 140.556 48.8948C136.647 42.455 133.832 37.1239 132.7 33.4926L138.428 31.7069ZM13.6814 53.4388C16.5254 51.0723 31.1071 41.5859 52.8773 34.4576C74.7177 27.3063 104.025 22.4497 136.221 29.6725L134.908 35.527C104.049 28.6042 75.8734 33.2413 54.7443 40.1597C33.545 47.101 19.6715 56.26 17.5192 58.051L13.6814 53.4388ZM205.334 302.598C203.331 302.008 201.057 300.697 198.655 298.999C196.201 297.264 193.402 294.971 190.323 292.212C184.163 286.694 176.726 279.176 168.441 270.202C151.864 252.246 131.748 228.301 111.413 202.474C70.8063 150.902 29.0395 91.4585 12.8843 57.019L18.3163 54.4708C34.1484 88.2215 75.5171 147.186 116.127 198.763C136.4 224.511 156.412 248.327 172.85 266.132C181.073 275.04 188.366 282.403 194.327 287.743C197.309 290.415 199.919 292.545 202.119 294.1C204.37 295.692 205.994 296.538 207.03 296.843L205.334 302.598ZM239.23 262.161C232.598 269.084 221.233 280.947 208.738 301.29L203.626 298.15C216.452 277.267 228.16 265.043 234.897 258.011L239.23 262.161ZM245.857 253.847C245.431 255.215 244.375 256.553 243.399 257.685C242.327 258.929 240.889 260.429 239.23 262.161L234.897 258.011C236.6 256.233 237.909 254.865 238.853 253.769C239.322 253.225 239.654 252.802 239.878 252.473C240.117 252.123 240.147 252.005 240.128 252.065L245.857 253.847ZM253.581 257.254L242.634 255.934L243.352 249.977L254.299 251.297L253.581 257.254ZM260.679 261.678C260.023 261.01 258.794 259.92 257.374 258.97C255.889 257.977 254.539 257.369 253.581 257.254L254.299 251.297C256.676 251.583 258.981 252.826 260.71 253.983C262.504 255.183 264.047 256.543 264.961 257.475L260.679 261.678ZM282 277.066C281.747 277.784 281.203 278.505 280.329 278.91C279.556 279.268 278.841 279.23 278.438 279.17C277.688 279.056 277.076 278.712 276.77 278.529C276.046 278.097 275.23 277.437 274.448 276.751C272.829 275.329 270.787 273.288 268.8 271.195C266.802 269.089 264.802 266.869 263.254 265.059C262.483 264.157 261.806 263.335 261.292 262.669C261.036 262.338 260.801 262.019 260.607 261.733C260.468 261.527 260.174 261.085 259.996 260.587L265.645 258.566C265.541 258.275 265.433 258.158 265.581 258.377C265.675 258.516 265.826 258.723 266.042 259.003C266.47 259.558 267.076 260.296 267.815 261.16C269.288 262.884 271.218 265.026 273.152 267.064C275.098 269.115 276.993 271.001 278.406 272.241C279.141 272.886 279.616 273.241 279.844 273.377C280.015 273.478 279.793 273.306 279.336 273.237C279.079 273.198 278.486 273.151 277.807 273.465C277.028 273.826 276.553 274.468 276.34 275.073L282 277.066ZM282.02 273.424C282.086 273.995 282.153 274.572 282.187 275.041C282.204 275.278 282.218 275.553 282.211 275.828C282.206 276.04 282.187 276.533 282 277.066L276.34 275.073C276.261 275.298 276.234 275.473 276.225 275.546C276.214 275.629 276.213 275.68 276.213 275.683C276.213 275.685 276.213 275.627 276.202 275.473C276.18 275.161 276.131 274.732 276.059 274.111L282.02 273.424ZM296.827 250.433C292.246 251.143 289.137 252.604 287.003 254.327C284.876 256.045 283.558 258.151 282.754 260.408C281.095 265.061 281.647 270.196 282.02 273.424L276.059 274.111C275.7 270.995 274.914 264.53 277.102 258.394C278.22 255.257 280.122 252.171 283.233 249.659C286.338 247.152 290.488 245.344 295.908 244.504L296.827 250.433ZM117.748 67.577C121.443 70.3491 126.686 69.6003 129.458 65.9046L134.258 69.5048C129.498 75.8514 120.494 77.1372 114.147 72.3768L117.748 67.577ZM116.075 55.8661C113.303 59.5618 114.052 64.8049 117.748 67.577L114.147 72.3768C107.801 67.6164 106.515 58.6124 111.275 52.2659L116.075 55.8661ZM127.786 54.1937C124.09 51.4216 118.847 52.1704 116.075 55.8661L111.275 52.2659C116.036 45.9193 125.04 44.6334 131.386 49.3938L127.786 54.1937ZM129.458 65.9046C132.231 62.2089 131.482 56.9657 127.786 54.1937L131.386 49.3938C137.733 54.1543 139.019 63.1582 134.258 69.5048L129.458 65.9046Z" fill="#333333"/>
<path d="M340.801 354.865L338.759 371.807C348.896 379.11 369.184 393.613 369.234 393.196C369.297 392.675 385.43 366.326 387.995 364.784C390.048 363.551 381.013 344.463 376.24 335.073L334.467 284.557L296.092 247.194L285.148 252.666L280.349 259.063L279.17 273.964C288.018 289.045 305.906 317.923 308.84 321.661C311.774 325.399 331.37 345.355 340.801 354.865Z" fill="#443131" stroke="#333333" stroke-width="6"/>
<path d="M216.361 280.808L216.456 280.703C221.62 274.948 220.363 266.159 214.178 261.519L206.912 256.07C205.322 254.877 204.005 253.36 203.047 251.619L192.529 232.505C191.328 230.323 189.567 228.501 187.428 227.227L167.22 215.188C164.747 213.715 162.788 211.515 161.611 208.888L152.356 188.244C151.227 185.727 149.381 183.6 147.049 182.129L128.936 170.706C125.891 168.786 123.703 165.768 122.826 162.277L118.005 143.098C117.066 139.359 114.626 136.174 111.262 134.292L95.692 125.582C93.0978 124.131 91.0329 121.892 89.7961 119.189L81.4485 100.945C80.7134 99.3388 79.6807 97.8858 78.4051 96.6632L62.3996 81.3231C60.9068 79.8924 59.7494 78.1486 59.0107 76.2173L54.5291 64.5006C52.1939 58.3954 45.9952 53.1527 39.5154 52.2927C31.9874 51.2935 22.6011 51.1337 17.7889 56.3343C46.9979 117.706 174.782 279.851 204.919 297.195C209.614 288.327 212.467 285.148 216.361 280.808Z" fill="#A8A8A8"/>
<path d="M291.716 246.014L295.925 250.224C292.642 258.109 286.024 273.946 285.822 274.216C285.569 274.552 286.074 275.984 275.973 270.511C273.549 253.539 285.459 247.108 291.716 246.014Z" fill="#443131"/>
<path d="M344.916 346.954C333.939 340.825 300.89 291.306 285.738 267.313C284.419 265.797 284.088 261.656 293.315 257.211C307.929 261.859 349.239 320.38 368.067 349.06C366.271 349.817 359.126 350.457 344.916 346.954Z" fill="#503C3C"/>
<path d="M133.544 35.2937L47.6747 55.0729C47.2539 52.828 40.9908 49.5333 19.3046 54.3139C60.994 27.9157 112.835 30.6345 133.544 35.2937Z" fill="#818181"/>
</g>
<defs>
<clipPath id="clip0_147_107">
<rect width="400" height="400" fill="white"/>
</clipPath>
</defs>
</svg>
