<svg width="501" height="501" viewBox="0 0 501 501" fill="none" xmlns="http://www.w3.org/2000/svg">
<g clip-path="url(#clip0_147_107)">
<path fill-rule="evenodd" clip-rule="evenodd" d="M371.084 310.21C320.039 251.062 180.187 74.0454 170.08 41.6247C91.2632 23.9426 26.3707 65.3592 20.1252 70.5561C60.1093 155.794 227.964 366.574 258.352 375.525C274.178 349.759 288.599 334.705 296.954 325.982C301.156 321.596 303.824 318.811 304.366 317.07L318.049 318.719C322.22 319.221 327.187 323.346 329.15 325.345C329.892 327.418 348.783 348.245 349.587 345.962C349.714 345.601 349.596 344.574 349.424 343.084C348.51 335.154 346.08 314.084 371.084 310.21ZM165.448 85.506C160.74 91.7824 151.836 93.0541 145.559 88.3463C139.283 83.6385 138.011 74.734 142.719 68.4576C147.427 62.1812 156.331 60.9095 162.608 65.6173C168.884 70.3251 170.156 79.2296 165.448 85.506Z" fill="#989898"/>
<path d="M170.08 41.6247L170.901 37.9656L173.015 38.44L173.66 40.5086L170.08 41.6247ZM371.084 310.21L373.923 307.76L378.342 312.881L371.658 313.916L371.084 310.21ZM20.1252 70.5561L16.7302 72.1487L15.5001 69.5262L17.7266 67.6735L20.1252 70.5561ZM258.352 375.525L261.548 377.488L260.046 379.933L257.293 379.123L258.352 375.525ZM296.954 325.982L294.246 323.388L294.246 323.388L296.954 325.982ZM304.366 317.07L300.785 315.956L301.713 312.973L304.814 313.346L304.366 317.07ZM318.049 318.719L318.498 314.996L318.498 314.996L318.049 318.719ZM329.15 325.345L331.826 322.719L332.403 323.306L332.681 324.082L329.15 325.345ZM349.587 345.962L346.05 344.716L346.05 344.716L349.587 345.962ZM349.424 343.084L353.15 342.655L353.15 342.655L349.424 343.084ZM173.66 40.5086C174.772 44.0747 177.835 50.0346 182.731 58.1021C187.566 66.0685 194.01 75.8039 201.653 86.8122C216.936 108.823 236.921 135.787 258.209 163.616C300.788 219.28 348.464 278.26 373.923 307.76L368.245 312.66C342.659 283.013 294.887 223.91 252.252 168.173C230.932 140.302 210.869 113.236 195.492 91.0897C187.806 80.0194 181.267 70.1442 176.32 61.9935C171.434 53.9437 167.915 47.2798 166.5 42.7408L173.66 40.5086ZM17.7266 67.6735C21.2816 64.7154 39.5087 52.8573 66.7215 43.9469C94.022 35.0079 130.657 28.9371 170.901 37.9656L169.259 45.2837C130.687 36.6302 95.4666 42.4266 69.0553 51.0746C42.5562 59.7513 25.2143 71.1999 22.5238 73.4387L17.7266 67.6735ZM257.293 379.123C254.789 378.385 251.946 376.746 248.943 374.624C245.876 372.455 242.378 369.588 238.529 366.14C230.828 359.242 221.532 349.845 211.177 338.628C190.455 316.182 165.309 286.251 139.891 253.968C89.1328 189.502 36.9242 115.198 16.7302 72.1487L23.5203 68.9635C43.3103 111.152 95.0212 184.857 145.784 249.328C171.125 281.514 196.14 311.284 216.687 333.54C226.966 344.674 236.082 353.879 243.533 360.554C247.261 363.893 250.524 366.556 253.273 368.5C256.088 370.49 258.117 371.547 259.412 371.928L257.293 379.123ZM299.662 328.576C291.372 337.23 277.166 352.059 261.548 377.488L255.157 373.563C271.19 347.459 285.825 332.179 294.246 323.388L299.662 328.576ZM307.946 318.183C307.414 319.894 306.093 321.566 304.873 322.982C303.534 324.536 301.736 326.411 299.662 328.576L294.246 323.388C296.374 321.167 298.011 319.456 299.192 318.086C299.777 317.407 300.192 316.877 300.472 316.466C300.771 316.028 300.808 315.881 300.785 315.956L307.946 318.183ZM317.601 322.442L303.917 320.793L304.814 313.346L318.498 314.996L317.601 322.442ZM326.474 327.972C325.654 327.137 324.117 325.775 322.342 324.588C320.486 323.346 318.799 322.586 317.601 322.442L318.498 314.996C321.47 315.354 324.352 316.908 326.513 318.354C328.755 319.854 330.683 321.554 331.826 322.719L326.474 327.972ZM353.124 347.207C352.808 348.105 352.129 349.006 351.036 349.512C350.07 349.96 349.176 349.913 348.673 349.837C347.735 349.695 346.969 349.265 346.587 349.036C345.683 348.497 344.663 347.671 343.685 346.813C341.661 345.037 339.109 342.485 336.625 339.868C334.127 337.236 331.627 334.461 329.693 332.199C328.729 331.071 327.882 330.044 327.239 329.211C326.92 328.797 326.626 328.399 326.384 328.041C326.21 327.783 325.842 327.231 325.619 326.609L332.681 324.082C332.551 323.719 332.417 323.572 332.602 323.847C332.719 324.02 332.907 324.279 333.177 324.629C333.712 325.323 334.47 326.245 335.393 327.325C337.235 329.48 339.648 332.158 342.065 334.705C344.498 337.269 346.866 339.626 348.633 341.176C349.551 341.982 350.145 342.426 350.43 342.596C350.643 342.723 350.367 342.508 349.794 342.421C349.474 342.373 348.732 342.314 347.884 342.706C346.91 343.158 346.316 343.96 346.05 344.716L353.124 347.207ZM353.15 342.655C353.232 343.368 353.316 344.09 353.358 344.677C353.38 344.973 353.397 345.316 353.389 345.66C353.382 345.925 353.359 346.542 353.124 347.207L346.05 344.716C345.951 344.997 345.918 345.216 345.906 345.307C345.892 345.411 345.891 345.474 345.891 345.479C345.891 345.482 345.891 345.408 345.878 345.216C345.85 344.827 345.789 344.29 345.699 343.514L353.15 342.655ZM371.658 313.916C365.932 314.803 362.046 316.629 359.378 318.784C356.719 320.931 355.073 323.563 354.067 326.385C351.994 332.201 352.684 338.62 353.15 342.655L345.699 343.514C345.25 339.619 344.268 331.538 347.002 323.867C348.4 319.946 350.777 316.089 354.666 312.949C358.547 309.815 363.734 307.554 370.51 306.505L371.658 313.916ZM147.809 85.3464C152.429 88.8115 158.983 87.8755 162.448 83.2559L168.448 87.7562C162.497 95.6894 151.242 97.2967 143.309 91.3462L147.809 85.3464ZM145.719 70.7077C142.254 75.3274 143.19 81.8813 147.809 85.3464L143.309 91.3462C135.376 85.3957 133.769 74.1407 139.719 66.2074L145.719 70.7077ZM160.358 68.6172C155.738 65.1521 149.184 66.0881 145.719 70.7077L139.719 66.2074C145.67 58.2742 156.925 56.6669 164.858 62.6174L160.358 68.6172ZM162.448 83.2559C165.913 78.6362 164.977 72.0823 160.358 68.6172L164.858 62.6174C172.791 68.5679 174.398 79.8229 168.448 87.7562L162.448 83.2559Z" fill="#333333"/>
<path d="M426.626 444.456L424.073 465.633C436.745 474.763 462.105 492.892 462.168 492.371C462.246 491.719 482.412 458.782 485.619 456.855C488.185 455.313 476.892 431.454 470.925 419.717L418.709 356.571L370.74 309.868L357.06 316.707L351.062 324.704L349.588 343.33C360.647 362.181 383.008 398.278 386.675 402.951C390.343 407.624 414.837 432.568 426.626 444.456Z" fill="#443131" stroke="#333333" stroke-width="7.5"/>
<path d="M271.077 351.885L271.195 351.753C277.65 344.56 276.079 333.574 268.347 327.774L259.265 320.962C257.278 319.472 255.631 317.575 254.434 315.399L241.286 291.506C239.785 288.779 237.584 286.502 234.91 284.909L209.65 269.86C206.559 268.018 204.111 265.268 202.638 261.985L191.07 236.18C189.659 233.034 187.352 230.375 184.436 228.537L161.794 214.258C157.989 211.858 155.254 208.085 154.157 203.721L148.132 179.747C146.957 175.074 143.908 171.092 139.703 168.74L120.24 157.852C116.997 156.038 114.416 153.24 112.87 149.861L102.436 127.057C101.517 125.049 100.226 123.232 98.6314 121.704L78.6245 102.529C76.7585 100.74 75.3117 98.5608 74.3883 96.1467L68.7864 81.5008C65.8673 73.8693 58.119 67.3159 50.0193 66.2409C40.6093 64.9919 28.8764 64.7922 22.8611 71.2929C59.3724 148.008 219.102 350.689 256.774 372.368C262.643 361.284 266.209 357.31 271.077 351.885Z" fill="#A8A8A8"/>
<path d="M365.271 308.393L370.532 313.655C366.428 323.511 358.155 343.308 357.903 343.645C357.587 344.066 358.218 345.854 345.591 339.014C342.562 317.799 357.449 309.76 365.271 308.393Z" fill="#443131"/>
<path d="M431.77 434.568C418.048 426.906 376.738 365.008 357.798 335.016C356.149 333.122 355.736 327.945 367.269 322.389C385.537 328.198 437.174 401.35 460.708 437.2C458.463 438.147 449.533 438.946 431.77 434.568Z" fill="#503C3C"/>
<path d="M167.554 44.9921L60.218 69.7161C59.692 66.91 51.8631 62.7916 24.7554 68.7674C76.8671 35.7696 141.668 39.1682 167.554 44.9921Z" fill="#818181"/>
</g>
<defs>
<clipPath id="clip0_147_107">
<rect width="500" height="500" fill="white" transform="translate(0.625 0.875)"/>
</clipPath>
</defs>
</svg>
