<svg width="501" height="501" viewBox="0 0 501 501" fill="none" xmlns="http://www.w3.org/2000/svg">
<path d="M238.848 455.482L236.52 418.36C236.491 417.899 236.654 417.447 236.97 417.11L249.69 403.561C250.177 403.042 250.938 402.888 251.587 403.175L267.315 410.136C267.968 410.425 268.367 411.091 268.305 411.803C266.926 427.814 264.516 457.647 265.168 457.692C265.739 457.731 272.705 475.35 277.602 487.98C278.223 489.58 276.318 490.953 274.989 489.867L253.328 472.165C252.812 471.743 252.095 471.668 251.502 471.973L230.169 482.968C228.766 483.691 227.234 482.249 227.872 480.805L238.709 456.262C238.817 456.017 238.865 455.749 238.848 455.482Z" fill="#FF9696" stroke="#AE2328" stroke-width="8.36686"/>
<path d="M371.999 197.701C368.592 176.776 361.196 131.347 358.241 113.106C357.425 108.063 355.33 103.34 352.144 99.3472L305.097 40.4001C302.846 37.58 300.094 35.2001 296.978 33.3804L266.892 15.8085C258.285 10.7816 247.712 10.4777 238.831 15.0019L203.509 32.9949C199.457 35.0589 195.942 38.0381 193.241 41.6965L153.363 95.7174C150.867 99.0982 149.129 102.976 148.265 107.089L129.05 198.555C127.688 205.037 128.564 211.79 131.535 217.71L137.841 230.275C139.503 233.586 141.778 236.552 144.545 239.015L165.231 257.427C169.507 261.232 172.573 266.208 174.052 271.738L197.348 358.871L203.057 392.718C204.721 402.583 211.306 410.916 220.52 414.815L241.293 423.607C248.809 426.787 257.311 426.688 264.75 423.331L281.811 415.634C291.496 411.264 298.055 401.99 298.948 391.402L301.423 362.058C301.602 359.939 302.011 357.847 302.642 355.817L329.505 269.494C330.782 265.389 332.948 261.615 335.849 258.441L355.223 237.239C356.41 235.941 357.477 234.537 358.412 233.047L367.896 217.928C371.681 211.895 373.144 204.731 371.999 197.701Z" fill="#405450" stroke="#AE2328" stroke-width="9.20354"/>
<path d="M185.933 253.728L170.873 233.229L183.423 235.739L275.04 215.241L334.863 233.229L321.895 253.728L306.834 275.064L299.723 297.654L291.356 327.356L286.754 357.059H219.819L211.871 329.448L205.177 297.654L199.739 275.064L185.933 253.728Z" fill="#3C524D"/>
<path d="M171.632 117.68L164.924 152.329C163.605 159.141 163.738 166.155 165.312 172.913L177.334 224.506C179.601 234.233 186.086 242.442 195.023 246.9C201.608 250.184 206.93 255.545 210.168 262.153L219.841 281.901C222.044 286.398 223.55 291.205 224.307 296.155L225.825 306.081C226.558 310.872 226.581 315.745 225.894 320.542L224.151 332.716C223.498 337.274 223.57 341.907 224.365 346.443L227.014 361.563C229.142 373.714 239.695 382.578 252.031 382.578C267.405 382.578 280.452 371.298 282.673 356.085L283.87 347.883C284.668 342.416 284.341 336.844 282.908 331.508L282.34 329.392C280.026 320.777 280.09 311.696 282.525 303.115L284.055 297.724C284.737 295.319 285.601 292.969 286.64 290.695L300.592 260.137C302.997 254.87 307.242 250.663 312.53 248.307C319.698 245.112 324.826 238.582 326.23 230.861L337.596 168.348C338.828 161.572 338.629 154.614 337.011 147.92L329.955 118.723C328.771 113.826 326.846 109.14 324.244 104.826L307.561 77.1631C300.189 64.9384 287.885 56.5039 273.825 54.0354L259.148 51.4586C249.074 49.6902 238.701 51.0941 229.46 55.4762L225.268 57.4642C220.549 59.7019 216.216 62.6741 212.429 66.2701L186.105 91.2651C178.647 98.3473 173.587 107.582 171.632 117.68Z" fill="#4A5C59"/>
<path d="M186.669 188.834L172.128 166.622L167.409 158.715C167.084 158.171 166.296 158.171 165.972 158.716L148.892 187.424C148.77 187.629 148.742 187.876 148.814 188.103L159.096 220.68C159.137 220.813 159.211 220.933 159.311 221.029L179.086 240.217C179.537 240.654 180.291 240.457 180.47 239.855L189.645 209.048C189.68 208.931 189.689 208.808 189.671 208.687L186.797 189.171C186.779 189.051 186.735 188.936 186.669 188.834Z" fill="#404F4C"/>
<path d="M170.076 209.264C172.917 216.284 178.6 230.653 178.6 231.974L190.535 214.219L187.125 196.877L178.6 177.47L167.944 168.386L170.076 209.264Z" fill="#364946"/>
<ellipse cx="172.964" cy="196.475" rx="12.5503" ry="12.5265" fill="#AF262A"/>
<ellipse cx="169.321" cy="192.839" rx="5.66787" ry="5.65714" fill="#D9D9D9"/>
<path d="M202.248 124.058C210.058 109.872 226.094 81.0827 227.767 79.4137C241.712 78.9965 270.104 78.4124 272.112 79.4137C274.622 80.6655 295.539 100.693 295.539 102.362C295.539 103.697 301.396 129.9 304.324 142.834V182.055L295.539 227.116L279.642 272.877L272.112 307.925L277.211 346.657C277.436 348.366 277.43 350.097 277.194 351.805L275.877 361.332L277.55 384.28L252.868 395.128L231.532 382.329V356.742L229.859 346.311L237.389 297.911L231.532 268.705C231.532 268.705 219.122 243.389 209.36 227.116L194.718 155.768L202.248 124.058Z" fill="#556965"/>
<path d="M179.379 186.103L167.046 160.774C166.737 160.139 167.305 159.43 167.993 159.594L183.361 163.265C183.522 163.304 183.668 163.389 183.78 163.511L199.953 180.976C200.048 181.079 200.116 181.205 200.15 181.341L205.525 202.801C205.57 202.984 205.553 203.177 205.475 203.349L195.928 224.491C195.89 224.576 195.837 224.655 195.773 224.722L181.181 240.114C180.62 240.705 179.631 240.228 179.745 239.421L184.849 203.275C184.867 203.149 184.856 203.021 184.817 202.9L179.379 186.103Z" fill="#4F6561"/>
<path d="M318.23 188.834L332.772 166.622L337.49 158.715C337.815 158.171 338.604 158.171 338.928 158.716L356.007 187.424C356.129 187.629 356.158 187.876 356.086 188.103L345.804 220.68C345.762 220.813 345.688 220.933 345.589 221.029L325.814 240.217C325.363 240.654 324.608 240.457 324.429 239.855L315.254 209.048C315.219 208.931 315.21 208.808 315.228 208.687L318.103 189.171C318.12 189.051 318.164 188.936 318.23 188.834Z" fill="#404F4C"/>
<path d="M334.823 209.264C331.982 216.284 326.299 230.653 326.299 231.974L314.364 214.219L317.774 196.877L326.299 177.47L336.955 168.386L334.823 209.264Z" fill="#364946"/>
<ellipse cx="12.5503" cy="12.5265" rx="12.5503" ry="12.5265" transform="matrix(-1 0 0 1 344.066 183.949)" fill="#AF262A"/>
<ellipse cx="5.66787" cy="5.65714" rx="5.66787" ry="5.65714" transform="matrix(-1 0 0 1 340.828 187.181)" fill="#D9D9D9"/>
<path d="M325.52 186.103L337.853 160.774C338.162 160.139 337.594 159.43 336.906 159.594L321.538 163.265C321.377 163.304 321.231 163.389 321.119 163.511L304.946 180.976C304.851 181.079 304.783 181.205 304.749 181.341L299.374 202.801C299.329 202.984 299.346 203.177 299.423 203.349L308.971 224.491C309.009 224.576 309.062 224.655 309.126 224.722L323.718 240.114C324.279 240.705 325.268 240.228 325.154 239.421L320.05 203.275C320.032 203.149 320.043 203.021 320.082 202.9L325.52 186.103Z" fill="#4F6561"/>
<path d="M240.735 418.613L241.572 431.557L257.862 434.174L262.489 431.139L263.744 418.613L261.705 419.467L255.042 420.874L249.605 421L244.975 419.854L240.735 418.613Z" fill="#FF9696"/>
<path d="M221.492 355.804L229.759 344.927L232.369 357.477L231.499 375.048L223.232 366.263L221.492 355.804Z" fill="#3D4A48"/>
<path d="M285.917 355.804L277.623 345.763L275.877 359.569L276.75 375.884L284.171 366.262L285.917 355.804Z" fill="#3D4A48"/>
</svg>
