<svg width="400" height="400" viewBox="0 0 400 400" fill="none" xmlns="http://www.w3.org/2000/svg">
<path d="M190.477 364.015L188.615 334.332C188.592 333.963 188.722 333.602 188.975 333.332L199.146 322.498C199.535 322.084 200.144 321.96 200.663 322.19L213.239 327.756C213.762 327.987 214.08 328.519 214.031 329.089C212.928 341.891 211.001 365.746 211.522 365.782C211.979 365.813 217.549 379.901 221.465 390C221.961 391.28 220.438 392.378 219.375 391.509L202.055 377.355C201.642 377.017 201.069 376.957 200.595 377.201L183.537 385.993C182.415 386.571 181.19 385.418 181.7 384.263L190.366 364.639C190.452 364.443 190.49 364.229 190.477 364.015Z" fill="#FF9696" stroke="#AE2328" stroke-width="6.69019"/>
<path d="M296.945 157.891C294.221 141.16 288.307 104.835 285.944 90.2491C285.291 86.2168 283.617 82.4402 281.069 79.2475L243.45 32.1131C241.65 29.8581 239.449 27.9552 236.958 26.5001L212.901 12.4495C206.019 8.43004 197.565 8.18704 190.463 11.8046L162.22 26.1919C158.98 27.8423 156.169 30.2245 154.009 33.1498L122.123 76.3451C120.127 79.0484 118.737 82.1495 118.046 85.4378L102.682 158.574C101.593 163.758 102.293 169.157 104.669 173.891L109.711 183.939C111.04 186.586 112.859 188.957 115.072 190.927L131.612 205.649C135.031 208.692 137.483 212.67 138.665 217.092L157.293 286.764L161.858 313.828C163.189 321.716 168.454 328.379 175.822 331.497L192.432 338.527C198.442 341.07 205.24 340.991 211.188 338.307L224.83 332.152C232.575 328.658 237.819 321.243 238.533 312.776L240.512 289.312C240.655 287.619 240.982 285.945 241.487 284.323L262.967 215.298C263.988 212.015 265.72 208.998 268.039 206.46L283.531 189.507C284.48 188.468 285.334 187.346 286.081 186.154L293.665 174.066C296.691 169.241 297.861 163.513 296.945 157.891Z" fill="#405450" stroke="#AE2328" stroke-width="7.3592"/>
<path d="M148.166 202.691L136.124 186.3L146.159 188.307L219.416 171.917L267.251 186.3L256.881 202.691L244.839 219.751L239.152 237.815L232.462 261.565L228.783 285.315H175.261L168.905 263.238L163.553 237.815L159.205 219.751L148.166 202.691Z" fill="#3C524D"/>
<path d="M136.731 93.9068L131.367 121.612C130.313 127.059 130.418 132.668 131.678 138.071L141.29 179.325C143.103 187.103 148.288 193.667 155.434 197.231C160.7 199.858 164.956 204.144 167.544 209.428L175.279 225.219C177.041 228.815 178.245 232.658 178.85 236.616L180.064 244.553C180.65 248.384 180.668 252.28 180.119 256.116L178.725 265.85C178.203 269.495 178.261 273.2 178.896 276.827L181.014 288.916C182.716 298.632 191.154 305.72 201.018 305.72C213.312 305.72 223.743 296.701 225.519 284.536L226.477 277.978C227.115 273.607 226.853 269.151 225.708 264.885L225.253 263.192C223.403 256.304 223.455 249.043 225.402 242.181L226.625 237.87C227.17 235.947 227.861 234.069 228.691 232.25L239.848 207.816C241.771 203.605 245.165 200.241 249.393 198.356C255.125 195.802 259.225 190.581 260.348 184.406L269.437 134.421C270.422 129.003 270.262 123.439 268.969 118.087L263.326 94.7405C262.38 90.8252 260.84 87.0778 258.76 83.6285L245.42 61.509C239.526 51.734 229.688 44.9897 218.445 43.0159L206.709 40.9555C198.654 39.5415 190.359 40.664 182.97 44.168L179.618 45.7576C175.845 47.5469 172.38 49.9235 169.352 52.7988L148.304 72.785C142.34 78.448 138.294 85.8324 136.731 93.9068Z" fill="#4A5C59"/>
<path d="M148.754 150.802L137.127 133.04L133.354 126.718C133.094 126.283 132.464 126.283 132.204 126.719L118.548 149.674C118.45 149.838 118.427 150.036 118.485 150.217L126.706 176.266C126.74 176.372 126.799 176.468 126.879 176.545L142.691 191.887C143.051 192.237 143.654 192.08 143.798 191.598L151.134 166.965C151.162 166.871 151.169 166.773 151.155 166.676L148.856 151.071C148.842 150.975 148.807 150.883 148.754 150.802Z" fill="#404F4C"/>
<path d="M135.486 167.138C137.758 172.751 142.303 184.24 142.303 185.297L151.845 171.1L149.119 157.233L142.303 141.715L133.782 134.451L135.486 167.138Z" fill="#364946"/>
<ellipse cx="137.796" cy="156.912" rx="10.0353" ry="10.0163" fill="#AF262A"/>
<ellipse cx="134.883" cy="154.004" rx="4.53206" ry="4.52348" fill="#D9D9D9"/>
<path d="M161.212 99.0066C167.456 87.6633 180.279 64.6431 181.617 63.3086C192.767 62.9749 215.469 62.5079 217.075 63.3086C219.082 64.3094 235.807 80.3235 235.807 81.658C235.807 82.7256 240.49 103.677 242.832 114.02V145.381L235.807 181.412L223.096 218.003L217.075 246.028L221.152 276.997C221.332 278.364 221.328 279.749 221.139 281.114L220.085 288.732L221.423 307.081L201.687 315.756L184.627 305.522V285.062L183.289 276.721L189.31 238.02L184.627 214.667C184.627 214.667 174.703 194.424 166.898 181.412L155.19 124.362L161.212 99.0066Z" fill="#556965"/>
<path d="M142.925 148.618L133.063 128.365C132.816 127.857 133.271 127.29 133.82 127.421L146.109 130.357C146.237 130.388 146.354 130.456 146.444 130.553L159.376 144.518C159.452 144.601 159.507 144.701 159.534 144.81L163.831 161.97C163.868 162.116 163.854 162.27 163.792 162.408L156.158 179.313C156.127 179.381 156.085 179.444 156.034 179.498L144.366 191.805C143.918 192.278 143.127 191.897 143.218 191.252L147.299 162.348C147.313 162.248 147.304 162.145 147.273 162.049L142.925 148.618Z" fill="#4F6561"/>
<path d="M253.952 150.802L265.579 133.04L269.352 126.718C269.612 126.283 270.242 126.283 270.501 126.719L284.158 149.674C284.256 149.838 284.278 150.036 284.221 150.217L275.999 176.266C275.966 176.372 275.907 176.468 275.827 176.545L260.015 191.887C259.655 192.237 259.051 192.08 258.908 191.598L251.572 166.965C251.544 166.871 251.537 166.773 251.551 166.676L253.849 151.071C253.864 150.975 253.898 150.883 253.952 150.802Z" fill="#404F4C"/>
<path d="M267.219 167.138C264.947 172.751 260.403 184.24 260.403 185.297L250.86 171.1L253.587 157.233L260.403 141.715L268.924 134.451L267.219 167.138Z" fill="#364946"/>
<ellipse cx="10.0353" cy="10.0163" rx="10.0353" ry="10.0163" transform="matrix(-1 0 0 1 274.61 146.895)" fill="#AF262A"/>
<ellipse cx="4.53206" cy="4.52348" rx="4.53206" ry="4.52348" transform="matrix(-1 0 0 1 272.02 149.48)" fill="#D9D9D9"/>
<path d="M259.78 148.618L269.642 128.365C269.889 127.857 269.434 127.29 268.885 127.421L256.597 130.357C256.468 130.388 256.351 130.456 256.261 130.553L243.329 144.518C243.253 144.601 243.199 144.701 243.171 144.81L238.874 161.97C238.838 162.116 238.851 162.27 238.913 162.408L246.548 179.313C246.578 179.381 246.62 179.444 246.672 179.498L258.339 191.805C258.788 192.278 259.578 191.897 259.487 191.252L255.406 162.348C255.392 162.248 255.401 162.145 255.432 162.049L259.78 148.618Z" fill="#4F6561"/>
<path d="M191.986 334.534L192.655 344.884L205.681 346.977L209.381 344.55L210.384 334.534L208.753 335.217L203.426 336.342L199.078 336.443L195.376 335.526L191.986 334.534Z" fill="#FF9696"/>
<path d="M176.599 284.312L183.209 275.615L185.296 285.65L184.6 299.699L177.99 292.674L176.599 284.312Z" fill="#3D4A48"/>
<path d="M228.114 284.311L221.482 276.283L220.086 287.322L220.784 300.368L226.718 292.674L228.114 284.311Z" fill="#3D4A48"/>
</svg>
