<svg width="501" height="501" viewBox="0 0 501 501" fill="none" xmlns="http://www.w3.org/2000/svg">
<g clip-path="url(#clip0_428_1199)">
<path d="M272.811 480.323C400.242 480.323 503.592 377.209 503.592 249.953C503.592 122.697 400.242 19.5818 272.811 19.5818C145.381 19.5818 42.0308 122.697 42.0308 249.953C42.0308 377.209 145.381 480.323 272.811 480.323Z" fill="#AF262A" stroke="#4D1D1F" stroke-width="28.8476"/>
<ellipse cx="272.811" cy="250.034" rx="190.394" ry="190.394" fill="#E13F44"/>
<ellipse cx="272.811" cy="249.952" rx="150.21" ry="149.925" fill="#FE555A"/>
<ellipse cx="336.812" cy="90.0697" rx="23.078" ry="30.2899" transform="rotate(-55.3881 336.812 90.0697)" fill="#FFD3D5"/>
<ellipse cx="404.727" cy="170.485" rx="15.2553" ry="32.4402" transform="rotate(-26.3384 404.727 170.485)" fill="#FFD3D5"/>
<ellipse cx="272.811" cy="249.953" rx="98.0817" ry="97.896" fill="#F57578"/>
<path d="M274.254 58.1983C233.867 124.548 177.326 291.864 274.254 430.332C320.41 263.016 330.507 309.172 274.254 58.1983Z" fill="#353434"/>
<path d="M270.893 59.018C250.634 125.367 222.272 292.683 270.893 431.151C294.045 263.836 299.11 309.992 270.893 59.018Z" fill="#121212"/>
</g>
<defs>
<clipPath id="clip0_428_1199">
<rect width="500" height="500" fill="white" transform="translate(0.176758 0.238876)"/>
</clipPath>
</defs>
</svg>
