<svg width="400" height="400" viewBox="0 0 400 400" fill="none" xmlns="http://www.w3.org/2000/svg">
<path d="M200 383.878C301.894 383.878 384.533 301.427 384.533 199.672C384.533 97.9178 301.894 15.4667 200 15.4667C98.1057 15.4667 15.4667 97.9178 15.4667 199.672C15.4667 301.427 98.1057 383.878 200 383.878Z" fill="#AF262A" stroke="#4D1D1F" stroke-width="23.0667"/>
<circle cx="200" cy="199.738" r="152.24" fill="#E13F44"/>
<ellipse cx="200" cy="199.672" rx="120.109" ry="119.881" fill="#FE555A"/>
<ellipse cx="251.175" cy="71.8292" rx="18.4533" ry="24.22" transform="rotate(-55.3881 251.175 71.8292)" fill="#FFD3D5"/>
<ellipse cx="305.48" cy="136.13" rx="12.1982" ry="25.9394" transform="rotate(-26.3384 305.48 136.13)" fill="#FFD3D5"/>
<ellipse cx="200" cy="199.672" rx="78.4267" ry="78.2782" fill="#F57578"/>
<path d="M201.153 46.3447C168.86 99.3981 123.649 233.185 201.153 343.905C238.06 210.118 246.133 247.025 201.153 46.3447Z" fill="#353434"/>
<path d="M198.466 47C182.267 100.053 159.589 233.84 198.466 344.56C216.979 210.773 221.029 247.68 198.466 47Z" fill="#121212"/>
</svg>
