<svg width="501" height="501" viewBox="0 0 501 501" fill="none" xmlns="http://www.w3.org/2000/svg">
<path d="M252.439 454.176L229.791 424.673C229.51 424.306 229.392 423.84 229.467 423.384L232.46 405.042C232.575 404.341 233.12 403.788 233.82 403.664L250.754 400.663C251.458 400.538 252.16 400.868 252.507 401.493C260.297 415.548 274.947 441.649 275.512 441.322C276.008 441.036 291.621 451.768 302.733 459.516C304.141 460.497 303.327 462.7 301.618 462.54L273.765 459.939C273.101 459.878 272.464 460.215 272.143 460.799L260.576 481.828C259.816 483.211 257.74 482.869 257.463 481.315L252.759 454.902C252.712 454.638 252.603 454.389 252.439 454.176Z" fill="#C8A6A6" stroke="#8D8D8D" stroke-width="8.36686"/>
<path d="M372.27 201.452C368.863 180.528 361.467 135.099 358.512 116.858C357.696 111.815 355.601 107.092 352.415 103.099L305.368 44.1519C303.117 41.3317 300.365 38.9519 297.249 37.1321L267.163 19.5603C258.556 14.5334 247.983 14.2295 239.102 18.7537L203.78 36.7467C199.728 38.8107 196.213 41.7899 193.512 45.4483L153.634 99.4691C151.138 102.85 149.4 106.728 148.536 110.841L129.321 202.306C127.959 208.789 128.835 215.541 131.806 221.462L138.112 234.027C139.774 237.338 142.049 240.304 144.816 242.767L165.502 261.178C169.778 264.984 172.844 269.959 174.323 275.489L197.619 362.623L203.328 396.469C204.992 406.334 211.577 414.667 220.791 418.567L241.564 427.358C249.08 430.539 257.582 430.439 265.021 427.083L282.082 419.386C291.767 415.016 298.326 405.742 299.219 395.154L301.694 365.809C301.873 363.691 302.282 361.599 302.913 359.569L329.776 273.246C331.053 269.141 333.219 265.367 336.12 262.193L355.494 240.991C356.681 239.692 357.748 238.289 358.683 236.799L368.167 221.68C371.952 215.646 373.415 208.482 372.27 201.452Z" fill="#4D5352" stroke="#8D8D8D" stroke-width="9.20354"/>
<path d="M186.204 257.48L171.144 236.982L183.694 239.492L275.311 218.993L335.134 236.982L322.165 257.48L307.105 278.816L299.993 301.406L291.626 331.109L287.025 360.811H220.09L212.141 333.201L205.448 301.406L200.009 278.816L186.204 257.48Z" fill="#535555"/>
<path d="M171.903 121.432L165.196 156.081C163.877 162.893 164.009 169.907 165.584 176.665L177.606 228.258C179.872 237.984 186.357 246.194 195.294 250.652C201.88 253.936 207.202 259.296 210.439 265.905L220.113 285.653C222.316 290.15 223.822 294.956 224.579 299.907L226.097 309.833C226.829 314.624 226.853 319.496 226.166 324.294L224.422 336.467C223.769 341.026 223.842 345.659 224.636 350.195L227.285 365.314C229.414 377.465 239.966 386.33 252.302 386.33C267.677 386.33 280.723 375.05 282.944 359.837L284.142 351.635C284.94 346.168 284.612 340.596 283.179 335.26L282.611 333.143C280.298 324.529 280.362 315.448 282.797 306.867L284.326 301.476C285.009 299.071 285.873 296.721 286.911 294.447L300.864 263.888C303.268 258.622 307.513 254.415 312.801 252.059C319.97 248.864 325.097 242.334 326.501 234.612L337.868 172.1C339.1 165.324 338.9 158.366 337.283 151.672L330.226 122.475C329.043 117.578 327.117 112.892 324.516 108.578L307.833 80.9149C300.46 68.6902 288.157 60.2557 274.096 57.7872L259.419 55.2105C249.346 53.442 238.972 54.8459 229.731 59.2281L225.539 61.216C220.821 63.4537 216.487 66.4259 212.7 70.0219L186.377 95.0169C178.918 102.099 173.858 111.334 171.903 121.432Z" fill="#515A59"/>
<path d="M186.94 192.587L172.398 170.374L167.68 162.467C167.355 161.923 166.566 161.923 166.242 162.468L149.163 191.176C149.041 191.381 149.012 191.628 149.084 191.856L159.366 224.433C159.408 224.565 159.482 224.685 159.581 224.781L179.356 243.969C179.807 244.406 180.562 244.209 180.741 243.607L189.916 212.8C189.951 212.683 189.96 212.56 189.942 212.439L187.067 192.923C187.05 192.803 187.006 192.688 186.94 192.587Z" fill="#4C5251"/>
<path d="M164.827 213.173C168.433 220.191 175.646 234.557 175.646 235.878L190.793 218.127L186.465 200.788L175.646 181.385L169.601 169.498L164.827 213.173Z" fill="#3A4543"/>
<path d="M202.519 127.811C210.328 113.624 226.365 84.8349 228.038 83.1659C241.983 82.7487 270.375 82.1646 272.383 83.1659C274.893 84.4176 295.81 104.445 295.81 106.114C295.81 107.449 301.667 133.652 304.595 146.586V185.807L295.81 230.869L279.913 276.629L272.383 311.677L277.482 350.409C277.707 352.118 277.701 353.849 277.465 355.557L276.148 365.084L277.821 388.032L253.139 398.88L231.803 386.081V360.494L230.13 350.063L237.66 301.664L231.803 272.457C231.803 272.457 219.393 247.141 209.631 230.869L194.989 159.521L202.519 127.811Z" fill="#5E6766"/>
<path d="M172.718 211.977C174.555 219.013 182.454 234.554 182.454 235.878L190.17 218.081L187.965 200.697L182.454 181.244L176.942 172.303L172.718 211.977Z" fill="#303F3C"/>
<path d="M179.65 189.855L167.317 164.526C167.008 163.891 167.576 163.182 168.263 163.346L183.632 167.018C183.793 167.056 183.939 167.141 184.051 167.263L200.224 184.728C200.319 184.831 200.387 184.957 200.421 185.093L205.796 206.554C205.841 206.736 205.824 206.929 205.746 207.101L196.199 228.243C196.161 228.329 196.108 228.407 196.044 228.475L181.452 243.866C180.891 244.458 179.902 243.98 180.016 243.174L185.12 207.027C185.138 206.901 185.127 206.773 185.088 206.652L179.65 189.855Z" fill="#5E6664"/>
<path d="M318.501 192.587L333.042 170.374L337.761 162.467C338.086 161.923 338.874 161.924 339.198 162.468L356.278 191.176C356.4 191.381 356.428 191.628 356.356 191.856L346.074 224.433C346.033 224.565 345.959 224.685 345.859 224.782L326.084 243.969C325.633 244.407 324.879 244.21 324.7 243.607L315.525 212.8C315.49 212.683 315.481 212.56 315.499 212.439L318.373 192.923C318.391 192.803 318.434 192.688 318.501 192.587Z" fill="#4C5251"/>
<path d="M341.629 211.882C338.787 218.901 326.57 234.405 326.57 235.726L314.635 217.971L318.045 200.629L326.57 181.222L335.095 172.303L341.629 211.882Z" fill="#3A4543"/>
<path d="M332.279 211.977C330.442 219.013 322.543 234.554 322.543 235.878L314.827 218.081L317.032 200.697L322.543 181.244L328.055 172.303L332.279 211.977Z" fill="#303F3C"/>
<path d="M325.791 189.855L338.124 164.526C338.433 163.891 337.865 163.182 337.177 163.346L321.809 167.018C321.648 167.056 321.502 167.141 321.39 167.263L305.217 184.728C305.122 184.831 305.054 184.957 305.02 185.093L299.645 206.554C299.6 206.736 299.617 206.929 299.694 207.101L309.242 228.243C309.28 228.329 309.333 228.407 309.397 228.475L323.989 243.866C324.55 244.458 325.539 243.98 325.425 243.174L320.321 207.027C320.303 206.901 320.314 206.773 320.353 206.652L325.791 189.855Z" fill="#5E6664"/>
<path d="M248.675 423.695L235.67 419.749L237.228 427.629L241.903 433.551L245.272 435.398L261.562 438.015L266.211 434.396L262.16 426.694L261.562 423.695L258.42 424.423L253.305 424.841L248.675 423.695Z" fill="#C8A6A6"/>
<path d="M221.763 359.556L230.03 348.679L232.64 361.229L231.77 378.799L223.503 370.014L221.763 359.556Z" fill="#454B4A"/>
<path d="M286.188 359.556L277.894 349.516L276.148 363.321L277.021 379.637L284.442 370.015L286.188 359.556Z" fill="#454B4A"/>
</svg>
