<svg width="400" height="400" viewBox="0 0 400 400" fill="none" xmlns="http://www.w3.org/2000/svg">
<path d="M201.128 362.971L183.018 339.38C182.793 339.087 182.7 338.714 182.759 338.349L185.153 323.683C185.244 323.122 185.68 322.68 186.24 322.581L199.781 320.181C200.344 320.081 200.905 320.345 201.182 320.845C207.411 332.084 219.125 352.954 219.577 352.693C219.974 352.464 232.458 361.045 241.343 367.24C242.469 368.025 241.818 369.786 240.452 369.659L218.18 367.579C217.649 367.53 217.14 367.8 216.883 368.267L207.634 385.082C207.026 386.187 205.366 385.914 205.145 384.671L201.384 363.551C201.346 363.34 201.259 363.141 201.128 362.971Z" fill="#C8A6A6" stroke="#8D8D8D" stroke-width="6.69019"/>
<path d="M296.945 160.891C294.221 144.16 288.307 107.835 285.944 93.2491C285.291 89.2168 283.617 85.4402 281.069 82.2475L243.45 35.1131C241.65 32.8581 239.449 30.9552 236.958 29.5001L212.901 15.4495C206.019 11.43 197.565 11.187 190.463 14.8046L162.22 29.1919C158.98 30.8423 156.169 33.2245 154.009 36.1498L122.123 79.3451C120.127 82.0484 118.737 85.1495 118.046 88.4378L102.682 161.574C101.593 166.758 102.293 172.157 104.669 176.891L109.711 186.939C111.04 189.586 112.859 191.957 115.072 193.927L131.612 208.649C135.031 211.692 137.483 215.67 138.665 220.092L157.293 289.764L161.858 316.828C163.189 324.716 168.454 331.379 175.822 334.497L192.432 341.527C198.442 344.07 205.24 343.991 211.188 341.307L224.83 335.152C232.575 331.658 237.819 324.243 238.533 315.776L240.512 292.312C240.655 290.619 240.982 288.945 241.487 287.323L262.967 218.298C263.988 215.015 265.72 211.998 268.039 209.46L283.531 192.507C284.48 191.468 285.334 190.346 286.081 189.154L293.665 177.066C296.691 172.241 297.861 166.513 296.945 160.891Z" fill="#4D5352" stroke="#8D8D8D" stroke-width="7.3592"/>
<path d="M148.166 205.692L136.124 189.301L146.159 191.308L219.416 174.917L267.251 189.301L256.881 205.692L244.839 222.752L239.152 240.815L232.462 264.565L228.783 288.316H175.261L168.905 266.238L163.553 240.815L159.205 222.752L148.166 205.692Z" fill="#535555"/>
<path d="M136.731 96.9068L131.367 124.612C130.313 130.059 130.419 135.668 131.678 141.071L141.29 182.325C143.103 190.103 148.288 196.667 155.434 200.231C160.7 202.858 164.956 207.144 167.544 212.428L175.279 228.219C177.041 231.815 178.245 235.658 178.85 239.616L180.064 247.553C180.65 251.384 180.669 255.28 180.119 259.116L178.725 268.85C178.203 272.495 178.261 276.2 178.896 279.827L181.014 291.916C182.717 301.632 191.154 308.72 201.018 308.72C213.312 308.72 223.744 299.701 225.52 287.536L226.477 280.978C227.115 276.607 226.854 272.151 225.708 267.885L225.253 266.192C223.404 259.304 223.455 252.043 225.402 245.181L226.625 240.87C227.171 238.947 227.861 237.069 228.692 235.25L239.848 210.816C241.771 206.605 245.165 203.241 249.394 201.356C255.125 198.802 259.225 193.581 260.348 187.406L269.437 137.421C270.422 132.003 270.263 126.439 268.969 121.087L263.327 97.7405C262.38 93.8252 260.841 90.0778 258.76 86.6285L245.421 64.509C239.526 54.734 229.688 47.9897 218.445 46.0159L206.709 43.9555C198.654 42.5415 190.359 43.664 182.97 47.168L179.618 48.7576C175.845 50.5469 172.38 52.9235 169.352 55.7988L148.304 75.785C142.34 81.448 138.294 88.8324 136.731 96.9068Z" fill="#515A59"/>
<path d="M148.754 153.802L137.127 136.041L133.354 129.719C133.094 129.284 132.463 129.284 132.204 129.72L118.548 152.674C118.45 152.838 118.427 153.036 118.485 153.218L126.706 179.267C126.74 179.372 126.799 179.468 126.878 179.545L142.69 194.888C143.051 195.238 143.654 195.08 143.797 194.599L151.134 169.965C151.162 169.872 151.169 169.773 151.155 169.677L148.856 154.071C148.842 153.975 148.807 153.884 148.754 153.802Z" fill="#4C5251"/>
<path d="M131.072 170.263C133.956 175.875 139.723 187.362 139.723 188.419L151.835 174.224L148.375 160.36L139.723 144.845L134.89 135.341L131.072 170.263Z" fill="#3A4543"/>
<path d="M161.212 102.007C167.456 90.6636 180.279 67.6433 181.617 66.3088C192.767 65.9752 215.469 65.5081 217.075 66.3088C219.082 67.3097 235.807 83.3238 235.807 84.6583C235.807 85.7259 240.49 106.678 242.832 117.02V148.381L235.807 184.413L223.096 221.003L217.075 249.028L221.152 279.998C221.332 281.364 221.328 282.749 221.139 284.114L220.085 291.732L221.423 310.081L201.687 318.756L184.627 308.522V288.062L183.289 279.721L189.31 241.021L184.627 217.667C184.627 217.667 174.703 197.424 166.898 184.413L155.19 127.363L161.212 102.007Z" fill="#5E6766"/>
<path d="M137.382 169.307C138.851 174.933 145.167 187.36 145.167 188.419L151.337 174.188L149.574 160.287L145.167 144.732L140.76 137.583L137.382 169.307Z" fill="#303F3C"/>
<path d="M142.925 151.618L133.063 131.365C132.816 130.857 133.271 130.29 133.82 130.422L146.109 133.357C146.237 133.388 146.354 133.456 146.444 133.553L159.376 147.519C159.452 147.601 159.507 147.702 159.534 147.811L163.831 164.97C163.868 165.117 163.854 165.271 163.792 165.408L156.158 182.314C156.127 182.382 156.085 182.444 156.034 182.499L144.366 194.806C143.918 195.279 143.127 194.897 143.218 194.252L147.299 165.349C147.313 165.248 147.304 165.146 147.273 165.049L142.925 151.618Z" fill="#5E6664"/>
<path d="M253.951 153.802L265.579 136.041L269.352 129.719C269.611 129.284 270.242 129.284 270.501 129.72L284.158 152.674C284.255 152.838 284.278 153.036 284.221 153.218L275.999 179.267C275.966 179.372 275.907 179.468 275.827 179.545L260.015 194.888C259.654 195.238 259.051 195.08 258.908 194.599L251.571 169.965C251.544 169.872 251.536 169.773 251.551 169.677L253.849 154.071C253.863 153.975 253.898 153.884 253.951 153.802Z" fill="#4C5251"/>
<path d="M272.445 169.231C270.172 174.844 260.403 187.241 260.403 188.297L250.86 174.1L253.587 160.233L260.403 144.715L267.22 137.583L272.445 169.231Z" fill="#3A4543"/>
<path d="M264.969 169.307C263.5 174.933 257.184 187.36 257.184 188.419L251.014 174.188L252.777 160.287L257.184 144.732L261.59 137.583L264.969 169.307Z" fill="#303F3C"/>
<path d="M259.78 151.618L269.642 131.365C269.889 130.857 269.435 130.29 268.885 130.422L256.597 133.357C256.468 133.388 256.351 133.456 256.261 133.553L243.33 147.519C243.253 147.601 243.199 147.702 243.172 147.811L238.874 164.97C238.838 165.117 238.852 165.271 238.914 165.408L246.548 182.314C246.579 182.382 246.621 182.444 246.672 182.499L258.34 194.806C258.788 195.279 259.579 194.897 259.488 194.252L255.407 165.349C255.392 165.248 255.401 165.146 255.433 165.049L259.78 151.618Z" fill="#5E6664"/>
<path d="M198.118 338.598L187.719 335.442L188.965 341.744L192.703 346.478L195.397 347.956L208.422 350.048L212.14 347.154L208.9 340.996L208.422 338.598L205.91 339.18L201.82 339.514L198.118 338.598Z" fill="#C8A6A6"/>
<path d="M176.599 287.312L183.209 278.615L185.296 288.65L184.601 302.699L177.991 295.674L176.599 287.312Z" fill="#454B4A"/>
<path d="M228.114 287.312L221.482 279.284L220.085 290.323L220.783 303.369L226.717 295.675L228.114 287.312Z" fill="#454B4A"/>
</svg>
