<svg width="400" height="400" viewBox="0 0 400 400" fill="none" xmlns="http://www.w3.org/2000/svg">
<g clip-path="url(#clip0_15_48)">
<rect x="2.5" y="153.5" width="394" height="93.7406" rx="8.82001" fill="#8F8F8F" stroke="#2E2E2E" stroke-width="7"/>
<path fill-rule="evenodd" clip-rule="evenodd" d="M15.463 166.478V231.832H49.4649L59.8422 225.098L63.2644 217.812V208.649C62.1237 207.435 59.8422 204.83 59.8422 204.123C59.8422 203.417 52.924 199.928 49.4649 198.272L58.0758 193.194L59.8422 181.934L58.0758 174.316L43.3932 166.478H15.463ZM27.6066 193.194C27.3858 188.594 27.0767 178.975 27.6066 177.297H44.9387L46.5947 186.681L41.958 190.434L35.4447 191.98L27.6066 193.194ZM27.6066 220.572L30.0353 208.649C35.2975 209.165 38.0721 208.649 39.3085 208.649C40.545 208.649 47.8458 208.465 49.4649 209.974L48.2506 219.468L43.3932 220.572H27.6066Z" fill="#605656" stroke="#302F2F" stroke-width="5"/>
<path d="M72.3169 222.89V182.706L75.408 181.382H82.0317L84.7916 182.706C85.1964 189.735 86.006 203.991 86.006 204.785V219.468L92.6297 222.89L101.682 219.468V191.207L104.442 186.239H111.728L115.482 187.564V191.207V213.838V225.319C111.287 228.263 102.654 234.151 101.682 234.151H90.4218C89.4503 234.151 83.4669 231.722 80.5966 230.508L72.3169 222.89Z" fill="#605656"/>
<path d="M137.782 232.495C137.252 233.113 129.98 231.428 126.411 230.508V196.616L127.956 184.031L139.658 187.012L138.665 196.616L142.639 193.083L149.263 191.207L165.491 195.623L167.92 203.682L169.355 206.662L171.342 218.143L172.556 232.495H155.114L154.231 229.735L156.659 217.039L155.114 205.337C152.943 205.117 147.894 204.808 145.068 205.337C142.242 205.867 140.284 208.87 139.658 210.305V222.89C139.658 224.105 138.444 231.722 137.782 232.495Z" fill="#605656"/>
<path d="M236.586 219.468C236.071 208.797 235.04 186.769 235.04 184.031L247.074 183.037V186.349V209.974C247.074 212.624 248.546 216.524 249.282 218.143L253.808 219.468L260.321 216.377L266.062 205.227V184.031H277.322V190.434C277.396 196.616 277.499 209.179 277.322 209.974C277.145 210.769 275.703 216.635 275.004 219.468L268.27 232.495H260.321H251.6C250.628 232.495 244.351 229.625 241.333 228.189L236.586 219.468Z" fill="#605656"/>
<path d="M288.803 219.468C291.71 219.027 297.988 218.143 299.843 218.143L306.246 224.436L302.934 232.495L293.329 235.586L285.16 228.189L288.803 219.468Z" fill="#605656"/>
<path d="M315.077 232.495V183.037L329.098 184.031L325.896 208.429C326.485 215.531 327.663 230.287 327.663 232.495C327.663 234.703 319.273 233.415 315.077 232.495Z" fill="#605656"/>
<path d="M309.337 168.576L317.285 165.264H323.688L330.533 168.576C329.576 170.305 327.309 174.272 325.896 176.303C324.483 178.335 315.961 177.15 311.876 176.303L309.337 168.576Z" fill="#605656"/>
<path fill-rule="evenodd" clip-rule="evenodd" d="M212.189 168.576V186.349L210.753 191.98L194.682 190.434L181.388 202.467C180.431 207.03 178.518 216.554 178.518 218.143C178.518 219.733 183.817 227.049 186.466 230.508L198.61 232.495L212.189 229.735L214.948 234.372H222.897L224.774 191.98V173.764V165.264H210.753L212.189 168.576ZM192.759 219.468L190.22 212.403L194.682 207L199.935 205.227H208.987L212.52 210.968L206.558 219.468H192.759Z" fill="#605656"/>
<path fill-rule="evenodd" clip-rule="evenodd" d="M340.689 190.434C339.718 192.377 336.899 203.24 335.611 208.429L338.04 219.468L344.553 229.735L358.242 235.586L376.458 228.189C377.525 227.417 379.792 225.584 380.321 224.436C380.851 223.288 383.265 211.152 384.406 205.227L380.321 194.739L372.483 184.031L359.677 183.037L346.982 184.031L340.689 190.434ZM349.778 200.468C350.573 198.369 351.352 196.313 351.839 194.739L363.983 192.863L369.171 196.947L372.483 209.974L363.983 224.436L351.839 221.234C350.404 218.07 347.423 211.387 346.982 209.974C346.617 208.807 348.228 204.556 349.778 200.468Z" fill="#605656"/>
<path d="M90.4218 234.151C89.4503 234.151 83.4669 231.722 80.5966 230.508L72.3169 222.89V182.706L75.408 181.382H82.0317L84.7916 182.706C85.1964 189.735 86.006 203.991 86.006 204.785M90.4218 234.151C91.6362 234.151 100.468 234.151 101.682 234.151M90.4218 234.151H101.682M101.682 234.151C102.654 234.151 111.287 228.263 115.482 225.319V213.838V191.207V187.564L111.728 186.239H104.442L101.682 191.207V219.468L92.6297 222.89L86.006 219.468M86.006 219.468C86.006 214.905 86.006 205.58 86.006 204.785M86.006 219.468V204.785M126.411 195.623V196.616M139.658 222.89C139.658 224.105 138.444 231.722 137.782 232.495C137.252 233.113 129.98 231.428 126.411 230.508V196.616M139.658 222.89C139.658 221.919 139.658 217.996 139.658 210.305M139.658 222.89V210.305M139.658 210.305C140.284 208.87 142.242 205.867 145.068 205.337C147.894 204.808 152.943 205.117 155.114 205.337L156.659 217.039L154.231 229.735L155.114 232.495H172.556L171.342 218.143L169.355 206.662L167.92 203.682L165.491 195.623L149.263 191.207L142.639 193.083L138.665 196.616L139.658 187.012L127.956 184.031L126.411 196.616M212.189 168.576C212.189 170.43 212.189 181.198 212.189 186.349M212.189 168.576L210.753 165.264H224.774V173.764V191.98L222.897 234.372H214.948L212.189 229.735L198.61 232.495L186.466 230.508C183.817 227.049 178.518 219.733 178.518 218.143C178.518 216.554 180.431 207.03 181.388 202.467L194.682 190.434L210.753 191.98L212.189 186.349M212.189 168.576V186.349M195.077 206.662L194.682 207M194.682 207L190.22 212.403L192.759 219.468H206.558L212.52 210.968L208.987 205.227H199.935L194.682 207ZM251.6 232.495C250.628 232.495 244.351 229.625 241.333 228.189L236.586 219.468C236.071 208.797 235.04 186.769 235.04 184.031L247.074 183.037V186.349M251.6 232.495C252.571 232.495 257.819 232.495 260.321 232.495M251.6 232.495H260.321M260.321 232.495H268.27L275.004 219.468C275.703 216.635 277.145 210.769 277.322 209.974C277.499 209.179 277.396 196.616 277.322 190.434V184.031H266.062V205.227L260.321 216.377L253.808 219.468L249.282 218.143C248.546 216.524 247.074 212.624 247.074 209.974M247.074 209.974C247.074 207.325 247.074 193.12 247.074 186.349M247.074 209.974V186.349M315.077 183.037C315.077 185.687 315.077 217.113 315.077 232.495M315.077 183.037L329.098 184.031L325.896 208.429C326.485 215.531 327.663 230.287 327.663 232.495C327.663 234.703 319.273 233.415 315.077 232.495M315.077 183.037V232.495M299.843 218.143C297.988 218.143 291.71 219.027 288.803 219.468L285.16 228.189L293.329 235.586L302.934 232.495L306.246 224.436L299.843 218.143ZM317.285 165.264L309.337 168.576L311.876 176.303C315.961 177.15 324.483 178.335 325.896 176.303C327.309 174.272 329.576 170.305 330.533 168.576L323.688 165.264H317.285ZM351.839 194.739L363.983 192.863L369.171 196.947L372.483 209.974L363.983 224.436L351.839 221.234C350.404 218.07 347.423 211.387 346.982 209.974C346.617 208.807 348.228 204.556 349.778 200.468C350.573 198.369 351.352 196.313 351.839 194.739ZM340.689 190.434C339.718 192.377 336.899 203.24 335.611 208.429L338.04 219.468L344.553 229.735L358.242 235.586L376.458 228.189C377.525 227.417 379.792 225.584 380.321 224.436C380.851 223.288 383.265 211.152 384.406 205.227L380.321 194.739L372.483 184.031L359.677 183.037L346.982 184.031L340.689 190.434Z" stroke="#302F2F" stroke-width="5"/>
<rect x="2.5" y="153.5" width="394" height="93.7406" rx="8.82001" fill="#8F8F8F" stroke="#2E2E2E" stroke-width="7"/>
<rect width="351" height="56" rx="12.32" transform="matrix(1 0 0 -1 24 228)" fill="#787575"/>
<path fill-rule="evenodd" clip-rule="evenodd" d="M15.463 166.478V231.832H49.4649L59.8422 225.098L63.2644 217.812V208.649C62.1237 207.435 59.8422 204.83 59.8422 204.123C59.8422 203.417 52.924 199.928 49.4649 198.272L58.0758 193.194L59.8422 181.934L58.0758 174.316L43.3932 166.478H15.463ZM27.6066 193.194C27.3858 188.594 27.0767 178.975 27.6066 177.297H44.9387L46.5947 186.681L41.958 190.434L35.4447 191.98L27.6066 193.194ZM27.6066 220.572L30.0353 208.649C35.2975 209.165 38.0721 208.649 39.3085 208.649C40.545 208.649 47.8458 208.465 49.4649 209.974L48.2506 219.468L43.3932 220.572H27.6066Z" fill="#605656" stroke="#302F2F" stroke-width="5"/>
<path d="M72.3169 222.89V182.706L75.408 181.382H82.0317L84.7916 182.706C85.1964 189.735 86.006 203.991 86.006 204.785V219.468L92.6297 222.89L101.682 219.468V191.207L104.442 186.239H111.728L115.482 187.564V191.207V213.838V225.319C111.287 228.263 102.654 234.151 101.682 234.151H90.4218C89.4503 234.151 83.4669 231.722 80.5966 230.508L72.3169 222.89Z" fill="#605656"/>
<path d="M137.782 232.495C137.252 233.113 129.98 231.428 126.411 230.508V196.616L127.956 184.031L139.658 187.012L138.665 196.616L142.639 193.083L149.263 191.207L165.491 195.623L167.92 203.682L169.355 206.662L171.342 218.143L172.556 232.495H155.114L154.231 229.735L156.659 217.039L155.114 205.337C152.943 205.117 147.894 204.808 145.068 205.337C142.242 205.867 140.284 208.87 139.658 210.305V222.89C139.658 224.105 138.444 231.722 137.782 232.495Z" fill="#605656"/>
<path d="M236.586 219.468C236.071 208.797 235.04 186.769 235.04 184.031L247.074 183.037V186.349V209.974C247.074 212.624 248.546 216.524 249.282 218.143L253.808 219.468L260.321 216.377L266.062 205.227V184.031H277.322V190.434C277.396 196.616 277.499 209.179 277.322 209.974C277.145 210.769 275.703 216.635 275.004 219.468L268.27 232.495H260.321H251.6C250.628 232.495 244.351 229.625 241.333 228.189L236.586 219.468Z" fill="#605656"/>
<path d="M288.803 219.468C291.71 219.027 297.988 218.143 299.843 218.143L306.246 224.436L302.934 232.495L293.329 235.586L285.16 228.189L288.803 219.468Z" fill="#605656"/>
<path d="M315.077 232.495V183.037L329.098 184.031L325.896 208.429C326.485 215.531 327.663 230.287 327.663 232.495C327.663 234.703 319.273 233.415 315.077 232.495Z" fill="#605656"/>
<path d="M309.337 168.576L317.285 165.264H323.688L330.533 168.576C329.576 170.305 327.309 174.272 325.896 176.303C324.483 178.335 315.961 177.15 311.876 176.303L309.337 168.576Z" fill="#605656"/>
<path fill-rule="evenodd" clip-rule="evenodd" d="M212.189 168.576V186.349L210.753 191.98L194.682 190.434L181.388 202.467C180.431 207.03 178.518 216.554 178.518 218.143C178.518 219.733 183.817 227.049 186.466 230.508L198.61 232.495L212.189 229.735L214.948 234.372H222.897L224.774 191.98V173.764V165.264H210.753L212.189 168.576ZM192.759 219.468L190.22 212.403L194.682 207L199.935 205.227H208.987L212.52 210.968L206.558 219.468H192.759Z" fill="#605656"/>
<path fill-rule="evenodd" clip-rule="evenodd" d="M340.689 190.434C339.718 192.377 336.899 203.24 335.611 208.429L338.04 219.468L344.553 229.735L358.242 235.586L376.458 228.189C377.525 227.417 379.792 225.584 380.321 224.436C380.851 223.288 383.265 211.152 384.406 205.227L380.321 194.739L372.483 184.031L359.677 183.037L346.982 184.031L340.689 190.434ZM349.778 200.468C350.573 198.369 351.352 196.313 351.839 194.739L363.983 192.863L369.171 196.947L372.483 209.974L363.983 224.436L351.839 221.234C350.404 218.07 347.423 211.387 346.982 209.974C346.617 208.807 348.228 204.556 349.778 200.468Z" fill="#605656"/>
<path d="M90.4218 234.151C89.4503 234.151 83.4669 231.722 80.5966 230.508L72.3169 222.89V182.706L75.408 181.382H82.0317L84.7916 182.706C85.1964 189.735 86.006 203.991 86.006 204.785M90.4218 234.151C91.6362 234.151 100.468 234.151 101.682 234.151M90.4218 234.151H101.682M101.682 234.151C102.654 234.151 111.287 228.263 115.482 225.319V213.838V191.207V187.564L111.728 186.239H104.442L101.682 191.207V219.468L92.6297 222.89L86.006 219.468M86.006 219.468C86.006 214.905 86.006 205.58 86.006 204.785M86.006 219.468V204.785M126.411 195.623V196.616M139.658 222.89C139.658 224.105 138.444 231.722 137.782 232.495C137.252 233.113 129.98 231.428 126.411 230.508V196.616M139.658 222.89C139.658 221.919 139.658 217.996 139.658 210.305M139.658 222.89V210.305M139.658 210.305C140.284 208.87 142.242 205.867 145.068 205.337C147.894 204.808 152.943 205.117 155.114 205.337L156.659 217.039L154.231 229.735L155.114 232.495H172.556L171.342 218.143L169.355 206.662L167.92 203.682L165.491 195.623L149.263 191.207L142.639 193.083L138.665 196.616L139.658 187.012L127.956 184.031L126.411 196.616M212.189 168.576C212.189 170.43 212.189 181.198 212.189 186.349M212.189 168.576L210.753 165.264H224.774V173.764V191.98L222.897 234.372H214.948L212.189 229.735L198.61 232.495L186.466 230.508C183.817 227.049 178.518 219.733 178.518 218.143C178.518 216.554 180.431 207.03 181.388 202.467L194.682 190.434L210.753 191.98L212.189 186.349M212.189 168.576V186.349M195.077 206.662L194.682 207M194.682 207L190.22 212.403L192.759 219.468H206.558L212.52 210.968L208.987 205.227H199.935L194.682 207ZM251.6 232.495C250.628 232.495 244.351 229.625 241.333 228.189L236.586 219.468C236.071 208.797 235.04 186.769 235.04 184.031L247.074 183.037V186.349M251.6 232.495C252.571 232.495 257.819 232.495 260.321 232.495M251.6 232.495H260.321M260.321 232.495H268.27L275.004 219.468C275.703 216.635 277.145 210.769 277.322 209.974C277.499 209.179 277.396 196.616 277.322 190.434V184.031H266.062V205.227L260.321 216.377L253.808 219.468L249.282 218.143C248.546 216.524 247.074 212.624 247.074 209.974M247.074 209.974C247.074 207.325 247.074 193.12 247.074 186.349M247.074 209.974V186.349M315.077 183.037C315.077 185.687 315.077 217.113 315.077 232.495M315.077 183.037L329.098 184.031L325.896 208.429C326.485 215.531 327.663 230.287 327.663 232.495C327.663 234.703 319.273 233.415 315.077 232.495M315.077 183.037V232.495M299.843 218.143C297.988 218.143 291.71 219.027 288.803 219.468L285.16 228.189L293.329 235.586L302.934 232.495L306.246 224.436L299.843 218.143ZM317.285 165.264L309.337 168.576L311.876 176.303C315.961 177.15 324.483 178.335 325.896 176.303C327.309 174.272 329.576 170.305 330.533 168.576L323.688 165.264H317.285ZM351.839 194.739L363.983 192.863L369.171 196.947L372.483 209.974L363.983 224.436L351.839 221.234C350.404 218.07 347.423 211.387 346.982 209.974C346.617 208.807 348.228 204.556 349.778 200.468C350.573 198.369 351.352 196.313 351.839 194.739ZM340.689 190.434C339.718 192.377 336.899 203.24 335.611 208.429L338.04 219.468L344.553 229.735L358.242 235.586L376.458 228.189C377.525 227.417 379.792 225.584 380.321 224.436C380.851 223.288 383.265 211.152 384.406 205.227L380.321 194.739L372.483 184.031L359.677 183.037L346.982 184.031L340.689 190.434Z" stroke="#302F2F" stroke-width="5"/>
</g>
<defs>
<clipPath id="clip0_15_48">
<rect width="400" height="400" fill="white"/>
</clipPath>
</defs>
</svg>
