<svg width="1001" height="1001" viewBox="0 0 1001 1001" fill="none" xmlns="http://www.w3.org/2000/svg">
<path d="M479.238 524.435C442.559 481.389 486.016 434.039 521.578 427.636C525.865 426.864 529.416 423.375 529.416 419.019V409.352C529.416 408.22 529.659 407.101 530.13 406.072L556.126 349.233C556.791 347.779 556.998 346.157 556.72 344.582L551.806 316.733C551.609 315.616 551.178 314.559 550.527 313.629C544.254 304.677 532.624 289.186 529.416 289.186C527.295 289.186 528.386 280.326 530.19 270.934C531.423 264.516 539.564 262.695 543.826 267.649C549.686 274.46 555.545 280.725 557.147 280.725H584.408C601.485 283.075 637.708 288.058 645.981 289.186C651.563 289.947 658.744 299.884 664.316 309.492C667.422 314.848 662.93 321.093 656.786 320.325L619.761 315.697C616.574 315.298 613.464 316.872 611.898 319.675L596.629 347L584.972 376.142C584.599 377.073 584.408 378.068 584.408 379.071V407.203C584.408 409.824 585.71 412.273 587.882 413.74L619.379 435.001C621.067 436.14 622.249 437.888 622.677 439.879L630 473.909L640.074 504.132C640.555 505.574 641.442 506.847 642.629 507.797L653.968 516.868C654.593 517.368 655.284 517.768 656.03 518.056C670.549 523.668 699.39 534.177 707.083 534.544C716.954 535.014 750.795 556.165 759.255 556.165C765.778 556.165 800.181 575.664 818.375 586.475C819.675 587.248 821.155 587.631 822.667 587.587C833.236 587.286 853.019 586.96 863.13 587.657C876.76 588.597 892.271 595.178 898.381 593.768C901.898 592.956 902.544 601.986 902.28 610.502C902.131 615.315 897.488 618.552 892.813 617.398C876.974 613.491 854.79 608.339 849.499 608.339C844.232 608.339 827.116 610.254 815.03 611.716C811.087 612.194 808.138 615.543 808.138 619.516V648.292C808.138 655.812 792.627 668.503 786.047 678.844C779.466 689.185 774.766 696.705 772.886 702.816C771.791 706.374 764.154 703.672 757.48 700.368C753.67 698.48 752.441 693.769 754.461 690.027C762.291 675.526 773.482 653.346 774.766 645.002C776.047 636.672 774.691 628.206 773.486 623.557C773.133 622.197 772.337 621.018 771.274 620.099C750.906 602.468 710.026 569.796 697.213 569.796C685.187 569.796 648.699 554.098 627.553 544.218C624.28 542.689 620.393 543.538 618.059 546.296C610.434 555.304 599.466 567.904 596.629 569.796C592.398 572.616 526.126 578.727 512.965 578.727C499.804 578.727 463.143 648.292 438.232 662.863C413.321 677.434 348.928 662.863 329.187 662.863H269.495C261.974 662.863 256.804 678.374 252.574 678.844C249.19 679.22 232.52 694.512 228.603 708.926C224.216 719.11 204.444 738.162 198.052 742.299C190.061 747.469 185.361 762.04 180.661 763.45C177.19 764.491 173.987 749.062 172.528 739.411C172.303 737.919 172.539 736.401 173.175 735.033L190.546 697.683C190.848 697.034 191.237 696.43 191.702 695.885L230.872 650.047C233.364 647.131 233.396 642.845 230.949 639.891L222.227 629.364C221.779 628.824 221.262 628.346 220.688 627.943L206.508 617.978C204.993 616.913 203.154 616.416 201.308 616.568C193.295 617.228 180.423 618.21 176.431 618.21H132.249C119.088 618.21 135.069 606.459 138.829 605.049C141.421 604.077 159.081 597.919 171.136 593.727C174.309 592.624 176.431 589.636 176.431 586.277V548.753C176.431 547.75 176.622 546.756 176.995 545.824L181.926 533.495C184.129 527.988 191.393 526.791 195.246 531.3L205.86 543.721C207.714 545.891 208.244 548.887 207.333 551.592C205.012 558.483 201.945 568.797 201.342 575.436C200.701 582.487 204.567 589.811 207.469 593.858C208.334 595.064 209.614 595.882 211.032 596.322L290.912 621.145C291.67 621.38 292.459 621.5 293.253 621.5H393.856C394.914 621.5 395.961 621.303 396.901 620.818C413.095 612.468 457.963 568.795 480.183 534.065C482.112 531.049 481.56 527.16 479.238 524.435Z" fill="#664D3B" stroke="#61432D" stroke-width="14.6475"/>
<path d="M164.118 448.156C175.239 441.422 189.18 441.422 200.301 448.156L212.99 455.839C216.894 458.203 221.224 459.779 225.735 460.478L240.394 462.748C253.241 464.738 263.921 473.699 268.112 486.006L272.893 500.048C274.364 504.369 276.668 508.359 279.675 511.794L289.444 522.956C298.007 532.739 300.428 546.468 295.728 558.589L290.364 572.419C288.714 576.675 287.914 581.213 288.009 585.776L288.319 600.607C288.59 613.605 281.619 625.678 270.227 631.942L257.229 639.089C253.229 641.289 249.699 644.251 246.839 647.808L237.543 659.367C229.396 669.499 216.296 674.267 203.542 671.743L188.991 668.863C184.514 667.976 179.906 667.976 175.428 668.863L160.877 671.743C148.123 674.267 135.023 669.499 126.876 659.367L117.58 647.808C114.72 644.251 111.19 641.289 107.19 639.089L94.192 631.942C82.7996 625.678 75.8292 613.605 76.1004 600.607L76.4098 585.776C76.505 581.213 75.7049 576.675 74.0546 572.419L68.6916 558.589C63.9911 546.468 66.4119 532.739 74.9747 522.956L84.7445 511.794C87.7507 508.36 90.0547 504.369 91.526 500.048L96.3075 486.006C100.498 473.699 111.178 464.738 124.025 462.748L138.684 460.478C143.195 459.779 147.525 458.203 151.429 455.839L164.118 448.156Z" fill="#7B9453" fill-opacity="0.4"/>
<path d="M196.8 453.939L209.488 461.622C214.148 464.444 219.316 466.325 224.7 467.159L239.359 469.429C249.72 471.034 258.332 478.261 261.712 488.186L266.494 502.227C268.25 507.384 270.999 512.147 274.588 516.247L284.357 527.408C291.263 535.298 293.215 546.37 289.424 556.145L284.061 569.975C282.092 575.055 281.137 580.471 281.25 585.917L281.56 600.748C281.779 611.23 276.157 620.967 266.97 626.018L253.972 633.166C249.198 635.79 244.985 639.326 241.571 643.571L232.275 655.131C225.705 663.301 215.14 667.146 204.855 665.111L190.304 662.231C184.959 661.173 179.46 661.173 174.115 662.231L159.564 665.111C149.279 667.146 138.714 663.301 132.144 655.131L122.848 643.571C119.434 639.326 115.221 635.79 110.447 633.166L97.4493 626.018C88.2619 620.967 82.6406 611.23 82.8593 600.748L83.1687 585.917C83.2824 580.471 82.3274 575.055 80.3577 569.975L74.9946 556.145C71.2039 546.37 73.1562 535.298 80.0617 527.408L89.8315 516.247C93.4196 512.147 96.1695 507.384 97.9256 502.227L102.707 488.186C106.087 478.261 114.699 471.034 125.06 469.429L139.719 467.159C145.103 466.325 150.271 464.444 154.931 461.622L167.62 453.939C176.588 448.508 187.831 448.508 196.8 453.939Z" stroke="#5B6A3A" stroke-opacity="0.4" stroke-width="13.5208"/>
<path d="M142.516 554.283C153.637 547.55 167.578 547.55 178.699 554.283L202.312 568.581C206.216 570.945 210.546 572.521 215.057 573.22L242.336 577.445C255.184 579.435 265.863 588.396 270.054 600.703L278.952 626.834C280.423 631.155 282.727 635.146 285.733 638.58L303.914 659.351C312.477 669.134 314.898 682.863 310.197 694.985L300.217 720.722C298.567 724.977 297.767 729.515 297.862 734.079L298.438 761.677C298.709 774.675 291.738 786.748 280.346 793.013L256.158 806.313C252.158 808.512 248.628 811.474 245.768 815.031L228.469 836.543C220.322 846.674 207.221 851.442 194.468 848.918L167.389 843.559C162.911 842.672 158.303 842.672 153.826 843.559L126.747 848.918C113.993 851.442 100.893 846.674 92.746 836.543L75.4473 815.031C72.5869 811.474 69.0571 808.512 65.0574 806.313L40.8687 793.012C29.4764 786.748 22.506 774.675 22.7772 761.677L23.353 734.079C23.4482 729.515 22.6481 724.977 20.9978 720.722L11.0176 694.985C6.31708 682.863 8.7379 669.134 17.3007 659.351L35.4816 638.58C38.4879 635.146 40.7918 631.155 42.2631 626.834L51.1611 600.703C55.3519 588.396 66.0313 579.435 78.8791 577.445L106.158 573.22C110.669 572.521 114.999 570.945 118.903 568.581L142.516 554.283Z" fill="#7B9453" fill-opacity="0.4"/>
<path d="M175.197 560.066L198.81 574.364C203.47 577.186 208.638 579.067 214.022 579.901L241.301 584.126C251.662 585.731 260.275 592.958 263.654 602.883L272.552 629.013C274.308 634.17 277.058 638.933 280.646 643.033L298.827 663.804C305.733 671.693 307.685 682.765 303.894 692.541L293.914 718.278C291.944 723.357 290.989 728.773 291.103 734.22L291.679 761.818C291.897 772.3 286.276 782.037 277.089 787.089L252.9 800.389C248.126 803.014 243.913 806.549 240.499 810.795L223.201 832.306C216.63 840.477 206.066 844.322 195.78 842.286L168.702 836.927C163.357 835.869 157.858 835.869 152.513 836.927L125.434 842.286C115.149 844.322 104.585 840.477 98.0142 832.306L80.7156 810.795C77.3016 806.549 73.0885 803.014 68.3147 800.389L44.1261 787.089C34.9387 782.037 29.3174 772.3 29.5361 761.818L30.1119 734.22C30.2256 728.773 29.2706 723.357 27.3009 718.278L17.3206 692.541C13.5299 682.765 15.4822 671.693 22.3877 663.804L40.5686 643.033C44.1567 638.933 46.9066 634.17 48.6627 629.013L57.5607 602.883C60.9404 592.958 69.5527 585.731 79.9138 584.126L107.193 579.901C112.576 579.067 117.744 577.186 122.405 574.364L146.017 560.066C154.986 554.636 166.229 554.636 175.197 560.066Z" stroke="#5B6A3A" stroke-opacity="0.4" stroke-width="13.5208"/>
<path d="M142.517 596.376C153.638 589.642 167.579 589.642 178.7 596.376L189.759 603.072C193.663 605.437 197.993 607.013 202.504 607.711L215.28 609.69C228.128 611.68 238.807 620.641 242.998 632.948L247.165 645.186C248.637 649.507 250.941 653.498 253.947 656.932L262.462 666.661C271.025 676.443 273.446 690.173 268.745 702.294L264.071 714.348C262.421 718.604 261.62 723.141 261.716 727.705L261.985 740.63C262.257 753.629 255.286 765.702 243.894 771.966L232.565 778.195C228.565 780.394 225.036 783.356 222.175 786.913L214.073 796.988C205.926 807.12 192.826 811.888 180.072 809.364L167.39 806.853C162.912 805.967 158.305 805.967 153.827 806.853L141.145 809.364C128.391 811.888 115.291 807.12 107.144 796.988L99.0418 786.913C96.1814 783.356 92.6515 780.394 88.6518 778.195L77.3232 771.966C65.9308 765.702 58.9604 753.629 59.2316 740.63L59.5013 727.705C59.5965 723.141 58.7963 718.604 57.146 714.348L52.4718 702.294C47.7714 690.173 50.1922 676.443 58.755 666.661L67.2699 656.932C70.2762 653.498 72.5802 649.507 74.0515 645.186L78.2188 632.948C82.4096 620.641 93.089 611.68 105.937 609.69L118.713 607.711C123.223 607.013 127.553 605.437 131.458 603.072L142.517 596.376Z" fill="#8B9453" fill-opacity="0.6"/>
<path d="M611.027 180.598C628.324 171.298 649.133 171.298 666.429 180.598V180.598C671.393 183.267 676.717 185.205 682.235 186.351V186.351C701.463 190.344 717.404 203.72 724.676 221.963V221.963C726.763 227.198 729.595 232.104 733.086 236.529V236.529C745.248 251.948 748.862 272.441 742.706 291.09V291.09C740.94 296.442 739.956 302.021 739.786 307.655V307.655C739.192 327.284 728.787 345.305 712.085 355.634V355.634C707.291 358.599 702.951 362.24 699.199 366.446V366.446C686.127 381.101 666.573 388.219 647.139 385.395V385.395C641.561 384.585 635.896 384.585 630.318 385.395V385.395C610.884 388.219 591.33 381.101 578.257 366.446V366.446C574.505 362.24 570.165 358.599 565.372 355.634V355.634C548.669 345.305 538.265 327.284 537.671 307.655V307.655C537.5 302.021 536.517 296.442 534.75 291.09V291.09C528.595 272.441 532.208 251.948 544.371 236.529V236.529C547.861 232.104 550.694 227.198 552.781 221.963V221.963C560.053 203.72 575.993 190.344 595.221 186.351V186.351C600.739 185.205 606.063 183.267 611.027 180.598V180.598Z" fill="#7B9453" fill-opacity="0.4"/>
<path d="M596.596 192.97C602.752 191.691 608.691 189.53 614.229 186.552C629.526 178.327 647.93 178.327 663.228 186.552C668.765 189.53 674.704 191.691 680.861 192.97C697.866 196.502 711.965 208.332 718.396 224.466C720.724 230.306 723.884 235.78 727.778 240.716C738.535 254.353 741.731 272.478 736.287 288.971C734.316 294.941 733.218 301.166 733.028 307.45C732.503 324.811 723.301 340.749 708.529 349.885C703.181 353.192 698.34 357.254 694.154 361.946C682.593 374.907 665.299 381.202 648.111 378.705C641.888 377.801 635.568 377.801 629.346 378.705C612.158 381.202 594.864 374.907 583.302 361.946C579.117 357.254 574.275 353.192 568.928 349.885C554.156 340.749 544.954 324.811 544.428 307.45C544.238 301.166 543.141 294.941 541.17 288.971C535.726 272.478 538.922 254.353 549.678 240.716C553.572 235.78 556.732 230.306 559.061 224.466C565.492 208.332 579.59 196.502 596.596 192.97Z" stroke="#5B6A3A" stroke-opacity="0.4" stroke-width="13.5208"/>
<path d="M529.193 157.36C548.868 146.781 572.538 146.781 592.213 157.36V157.36C597.86 160.396 603.915 162.6 610.193 163.904V163.904C632.064 168.447 650.197 183.662 658.469 204.412V204.412C660.842 210.368 664.065 215.949 668.035 220.982V220.982C681.87 238.521 685.98 261.832 678.978 283.045V283.045C676.969 289.133 675.85 295.479 675.656 301.887V301.887C674.98 324.215 663.145 344.715 644.146 356.464V356.464C638.693 359.836 633.757 363.978 629.489 368.763V368.763C614.619 385.433 592.376 393.528 570.27 390.317V390.317C563.925 389.395 557.481 389.395 551.137 390.317V390.317C529.03 393.528 506.787 385.433 491.917 368.763V368.763C487.65 363.978 482.713 359.836 477.26 356.464V356.464C458.261 344.715 446.426 324.215 445.751 301.887V301.887C445.557 295.479 444.438 289.133 442.428 283.045V283.045C435.426 261.832 439.537 238.521 453.371 220.982V220.982C457.342 215.949 460.564 210.368 462.938 204.412V204.412C471.21 183.662 489.342 168.447 511.214 163.904V163.904C517.491 162.6 523.547 160.396 529.193 157.36V157.36Z" fill="#7B9453" fill-opacity="0.4"/>
<path d="M512.589 170.523C519.504 169.087 526.175 166.659 532.395 163.314C550.071 153.81 571.336 153.81 589.012 163.314C595.232 166.659 601.903 169.087 608.818 170.523C628.467 174.604 644.757 188.273 652.189 206.916C654.804 213.476 658.353 219.624 662.727 225.169C675.156 240.926 678.849 261.868 672.559 280.926C670.345 287.632 669.112 294.623 668.899 301.683C668.292 321.742 657.659 340.159 640.59 350.714C634.584 354.429 629.145 358.992 624.444 364.262C611.085 379.239 591.102 386.512 571.242 383.626C564.253 382.611 557.154 382.611 550.165 383.626C530.304 386.512 510.321 379.239 496.962 364.262C492.261 358.992 486.823 354.429 480.816 350.714C463.748 340.159 453.115 321.742 452.508 301.683C452.294 294.623 451.061 287.632 448.848 280.926C442.557 261.868 446.25 240.926 458.679 225.169C463.053 219.624 466.603 213.476 469.218 206.916C476.649 188.273 492.939 174.604 512.589 170.523Z" stroke="#5B6A3A" stroke-opacity="0.4" stroke-width="13.5208"/>
<path d="M860.057 477.271C871.178 470.537 885.119 470.537 896.24 477.271L907.529 484.106C911.433 486.47 915.763 488.046 920.274 488.745L933.314 490.765C946.162 492.755 956.842 501.716 961.032 514.023L965.286 526.515C966.757 530.836 969.061 534.826 972.068 538.261L980.759 548.191C989.322 557.973 991.743 571.703 987.042 583.824L982.271 596.128C980.621 600.383 979.821 604.921 979.916 609.485L980.191 622.678C980.462 635.676 973.492 647.749 962.1 654.014L950.536 660.372C946.536 662.571 943.007 665.533 940.146 669.09L931.877 679.374C923.729 689.505 910.629 694.273 897.876 691.749L884.93 689.187C880.453 688.301 875.845 688.301 871.367 689.187L858.422 691.749C845.669 694.273 832.568 689.505 824.421 679.374L816.151 669.09C813.291 665.533 809.761 662.571 805.762 660.372L794.198 654.014C782.806 647.749 775.835 635.676 776.106 622.678L776.382 609.485C776.477 604.921 775.677 600.383 774.027 596.128L769.255 583.824C764.555 571.703 766.976 557.973 775.539 548.191L784.23 538.261C787.236 534.826 789.54 530.836 791.012 526.515L795.265 514.023C799.456 501.716 810.135 492.755 822.983 490.765L836.024 488.745C840.535 488.046 844.865 486.47 848.769 484.106L860.057 477.271Z" fill="#7B9453" fill-opacity="0.4"/>
<path d="M892.739 483.054L904.027 489.889C908.687 492.711 913.855 494.592 919.239 495.426L932.28 497.446C942.641 499.05 951.253 506.277 954.633 516.202L958.887 528.694C960.643 533.851 963.393 538.614 966.981 542.713L975.672 552.643C982.578 560.533 984.53 571.604 980.739 581.38L975.968 593.683C973.998 598.763 973.043 604.179 973.157 609.626L973.432 622.819C973.651 633.301 968.03 643.038 958.842 648.09L947.279 654.448C942.505 657.073 938.292 660.608 934.878 664.854L926.608 675.137C920.038 683.308 909.473 687.153 899.188 685.117L886.243 682.555C880.899 681.497 875.399 681.497 870.055 682.555L857.11 685.117C846.824 687.153 836.26 683.308 829.689 675.137L821.42 664.854C818.006 660.608 813.793 657.073 809.019 654.448L797.455 648.09C788.268 643.038 782.647 633.301 782.865 622.819L783.141 609.626C783.254 604.179 782.299 598.763 780.33 593.683L775.559 581.38C771.768 571.604 773.72 560.533 780.626 552.643L789.317 542.713C792.905 538.614 795.655 533.851 797.411 528.694L801.665 516.202C805.045 506.277 813.657 499.05 824.018 497.446L837.059 495.426C842.442 494.592 847.611 492.711 852.271 489.889L863.559 483.054C872.528 477.623 883.77 477.623 892.739 483.054Z" stroke="#5B6A3A" stroke-opacity="0.4" stroke-width="13.5208"/>
<path d="M782.104 540.196C793.225 533.462 807.166 533.462 818.287 540.196L837.698 551.95C841.603 554.314 845.933 555.89 850.443 556.589L872.868 560.062C885.716 562.052 896.395 571.013 900.586 583.32L907.901 604.802C909.372 609.122 911.676 613.113 914.682 616.547L929.628 633.623C938.191 643.406 940.612 657.135 935.911 669.256L927.707 690.414C926.057 694.669 925.257 699.207 925.352 703.771L925.825 726.458C926.096 739.456 919.126 751.529 907.734 757.794L887.849 768.727C883.849 770.927 880.32 773.889 877.459 777.446L863.239 795.129C855.091 805.261 841.991 810.029 829.237 807.505L806.977 803.099C802.499 802.213 797.891 802.213 793.414 803.099L771.153 807.505C758.4 810.029 745.3 805.261 737.152 795.129L722.932 777.446C720.071 773.889 716.541 770.927 712.542 768.727L692.657 757.794C681.265 751.529 674.294 739.456 674.566 726.458L675.039 703.771C675.134 699.207 674.334 694.669 672.684 690.414L664.479 669.256C659.779 657.135 662.2 643.406 670.762 633.623L685.708 616.548C688.715 613.113 691.019 609.122 692.49 604.802L699.805 583.32C703.995 571.013 714.675 562.052 727.522 560.062L749.947 556.589C754.458 555.89 758.788 554.314 762.693 551.95L782.104 540.196Z" fill="#7B9453" fill-opacity="0.4"/>
<path d="M814.785 545.979L834.197 557.733C838.857 560.555 844.025 562.436 849.409 563.27L871.833 566.743C882.195 568.348 890.807 575.575 894.187 585.5L901.501 606.981C903.257 612.138 906.007 616.901 909.596 621L924.541 638.075C931.447 645.965 933.399 657.037 929.608 666.812L921.404 687.969C919.434 693.049 918.479 698.465 918.593 703.912L919.066 726.599C919.285 737.081 913.664 746.818 904.476 751.87L884.592 762.803C879.818 765.428 875.605 768.964 872.191 773.209L857.97 790.893C851.4 799.063 840.835 802.909 830.55 800.873L808.29 796.467C802.945 795.409 797.446 795.409 792.101 796.467L769.841 800.873C759.556 802.909 748.991 799.063 742.421 790.893L728.2 773.209C724.786 768.964 720.573 765.428 715.799 762.803L695.914 751.87C686.727 746.818 681.106 737.081 681.324 726.599L681.798 703.912C681.911 698.465 680.956 693.049 678.987 687.969L670.782 666.812C666.992 657.037 668.944 645.965 675.849 638.075L690.795 621C694.383 616.901 697.133 612.138 698.889 606.981L706.204 585.5C709.584 575.575 718.196 568.348 728.557 566.743L750.982 563.27C756.366 562.436 761.534 560.555 766.194 557.733L785.605 545.979C794.574 540.549 805.817 540.549 814.785 545.979Z" stroke="#5B6A3A" stroke-opacity="0.4" stroke-width="13.5208"/>
<path d="M513.497 251.865C524.619 245.131 538.559 245.131 549.681 251.865L605.786 285.837C609.69 288.201 614.02 289.777 618.531 290.476L683.346 300.515C696.194 302.505 706.874 311.466 711.064 323.774L732.206 385.861C733.678 390.182 735.982 394.173 738.988 397.607L782.187 446.961C790.749 456.744 793.17 470.473 788.47 482.594L764.756 543.746C763.106 548.002 762.306 552.54 762.401 557.103L763.769 622.677C764.04 635.676 757.07 647.749 745.678 654.013L688.204 685.615C684.205 687.815 680.675 690.776 677.815 694.333L636.712 745.446C628.565 755.577 615.465 760.345 602.711 757.821L538.371 745.087C533.893 744.201 529.285 744.201 524.807 745.087L460.467 757.821C447.713 760.345 434.613 755.577 426.466 745.446L385.364 694.333C382.503 690.776 378.973 687.815 374.974 685.615L317.5 654.013C306.108 647.749 299.138 635.676 299.409 622.677L300.777 557.103C300.872 552.54 300.072 548.002 298.422 543.746L274.708 482.594C270.008 470.473 272.429 456.744 280.991 446.961L324.19 397.607C327.196 394.173 329.5 390.182 330.972 385.861L352.114 323.774C356.304 311.467 366.984 302.505 379.832 300.515L444.647 290.476C449.158 289.777 453.488 288.201 457.392 285.837L513.497 251.865Z" fill="#7B9453" fill-opacity="0.4"/>
<path d="M545.887 258.13L601.992 292.102C606.715 294.962 611.953 296.868 617.41 297.713L682.225 307.753C692.379 309.326 700.819 316.408 704.132 326.134L725.274 388.222C727.053 393.449 729.84 398.276 733.477 402.431L776.676 451.784C783.443 459.516 785.356 470.366 781.641 479.946L757.928 541.098C755.932 546.246 754.964 551.735 755.079 557.256L756.447 622.83C756.661 633.103 751.152 642.645 742.149 647.595L684.676 679.198C679.837 681.858 675.567 685.441 672.107 689.744L631.005 740.856C624.566 748.863 614.213 752.632 604.133 750.637L539.793 737.902C534.376 736.83 528.802 736.83 523.386 737.902L459.045 750.637C448.966 752.632 438.612 748.863 432.173 740.856L391.071 689.744C387.611 685.441 383.341 681.858 378.502 679.198L321.029 647.595C312.026 642.645 306.517 633.103 306.731 622.83L308.099 557.256C308.214 551.735 307.246 546.246 305.25 541.098L281.537 479.946C277.822 470.366 279.735 459.516 286.502 451.784L329.701 402.431C333.338 398.276 336.125 393.449 337.904 388.222L359.046 326.134C362.359 316.408 370.799 309.326 380.953 307.753L445.768 297.713C451.225 296.868 456.463 294.962 461.186 292.102L517.291 258.13C526.08 252.808 537.098 252.808 545.887 258.13Z" stroke="#5B6A3A" stroke-opacity="0.4" stroke-width="14.6475"/>
<path d="M513.496 303.756C524.618 297.022 538.558 297.022 549.68 303.756L590.309 328.357C594.213 330.721 598.543 332.297 603.054 332.996L649.991 340.266C662.839 342.256 673.518 351.217 677.709 363.524L693.019 408.486C694.491 412.807 696.795 416.797 699.801 420.232L731.084 455.972C739.646 465.755 742.067 479.484 737.367 491.605L720.194 535.889C718.544 540.145 717.744 544.683 717.839 549.246L718.83 596.733C719.101 609.731 712.131 621.804 700.738 628.068L659.118 650.954C655.119 653.153 651.589 656.115 648.728 659.672L618.964 696.685C610.816 706.817 597.716 711.585 584.963 709.061L538.37 699.839C533.892 698.953 529.284 698.953 524.806 699.839L478.213 709.061C465.46 711.585 452.36 706.817 444.212 696.685L414.447 659.672C411.587 656.115 408.057 653.153 404.058 650.954L362.438 628.068C351.045 621.804 344.075 609.731 344.346 596.733L345.337 549.246C345.432 544.683 344.632 540.145 342.982 535.889L325.809 491.605C321.109 479.484 323.53 465.755 332.092 455.972L363.375 420.232C366.381 416.797 368.685 412.807 370.157 408.486L385.467 363.524C389.658 351.217 400.337 342.256 413.185 340.266L460.122 332.996C464.633 332.297 468.963 330.721 472.867 328.357L513.496 303.756Z" fill="#8B9453" fill-opacity="0.6"/>
<path d="M513.546 360.944C524.667 354.21 538.608 354.21 549.729 360.944L573.442 375.302C577.346 377.666 581.676 379.242 586.187 379.941L613.581 384.184C626.429 386.174 637.108 395.135 641.299 407.442L650.234 433.683C651.706 438.004 654.01 441.994 657.016 445.429L675.274 466.288C683.836 476.071 686.257 489.8 681.557 501.921L671.534 527.767C669.884 532.023 669.084 536.56 669.179 541.124L669.757 568.838C670.029 581.837 663.058 593.91 651.666 600.174L627.375 613.531C623.375 615.73 619.846 618.692 616.985 622.249L599.614 643.851C591.466 653.983 578.366 658.751 565.613 656.226L538.419 650.844C533.942 649.958 529.334 649.958 524.856 650.844L497.663 656.226C484.91 658.751 471.809 653.983 463.662 643.851L446.29 622.249C443.43 618.692 439.9 615.73 435.9 613.531L411.61 600.174C400.217 593.91 393.247 581.837 393.518 568.838L394.096 541.124C394.192 536.56 393.392 532.023 391.741 527.767L381.719 501.921C377.018 489.8 379.439 476.071 388.002 466.288L406.26 445.429C409.266 441.994 411.57 438.004 413.041 433.683L421.977 407.442C426.168 395.135 436.847 386.174 449.695 384.184L477.089 379.941C481.599 379.242 485.929 377.666 489.834 375.302L513.546 360.944Z" fill="#8B9453" fill-opacity="0.6"/>
</svg>
