<svg width="400" height="400" viewBox="0 0 400 400" fill="none" xmlns="http://www.w3.org/2000/svg">
<path d="M191.291 209.586C176.622 192.371 194.002 173.433 208.225 170.872C209.939 170.564 211.359 169.168 211.359 167.426V163.56C211.359 163.107 211.457 162.659 211.645 162.248L222.042 139.515C222.308 138.934 222.391 138.285 222.28 137.655L220.314 126.517C220.235 126.07 220.063 125.647 219.803 125.276C217.294 121.695 212.643 115.5 211.359 115.5C210.511 115.5 210.948 111.956 211.669 108.2C212.162 105.633 215.418 104.904 217.123 106.886C219.466 109.61 221.81 112.116 222.45 112.116H233.353C240.183 113.056 254.671 115.048 257.979 115.5C260.212 115.804 263.084 119.778 265.312 123.621C266.555 125.763 264.758 128.261 262.301 127.953L247.493 126.102C246.218 125.943 244.974 126.572 244.348 127.694L238.241 138.622L233.579 150.277C233.43 150.65 233.353 151.047 233.353 151.449V162.7C233.353 163.748 233.874 164.728 234.743 165.314L247.34 173.818C248.015 174.273 248.488 174.972 248.659 175.769L251.588 189.379L255.617 201.466C255.809 202.043 256.164 202.552 256.639 202.932L261.174 206.56C261.424 206.76 261.7 206.92 261.998 207.035C267.805 209.28 279.34 213.483 282.417 213.629C286.364 213.817 299.899 222.277 303.283 222.277C305.892 222.277 319.651 230.076 326.927 234.399C327.447 234.708 328.039 234.861 328.644 234.844C332.871 234.724 340.783 234.593 344.827 234.872C350.279 235.248 356.482 237.88 358.926 237.316C360.332 236.991 360.591 240.603 360.485 244.009C360.425 245.934 358.568 247.228 356.699 246.767C350.364 245.204 341.492 243.144 339.376 243.144C337.269 243.144 330.423 243.909 325.59 244.494C324.013 244.685 322.833 246.025 322.833 247.614V259.123C322.833 262.13 316.63 267.206 313.998 271.342C311.366 275.478 309.486 278.485 308.734 280.929C308.296 282.352 305.242 281.272 302.573 279.95C301.049 279.195 300.557 277.311 301.365 275.815C304.497 270.015 308.973 261.144 309.486 257.807C309.999 254.475 309.456 251.089 308.974 249.23C308.833 248.686 308.515 248.215 308.09 247.847C299.944 240.796 283.594 227.729 278.469 227.729C273.66 227.729 259.066 221.45 250.609 217.499C249.3 216.887 247.745 217.227 246.812 218.33C243.762 221.932 239.376 226.972 238.241 227.729C236.549 228.856 210.044 231.3 204.78 231.3C199.516 231.3 184.854 259.123 174.891 264.95C164.928 270.778 139.174 264.95 131.279 264.95H107.405C104.397 264.95 102.329 271.154 100.638 271.342C99.2842 271.492 92.6171 277.608 91.0505 283.373C89.296 287.446 81.3882 295.066 78.8316 296.72C75.6359 298.788 73.7561 304.616 71.8763 305.18C70.4883 305.596 69.207 299.425 68.6237 295.565C68.5335 294.969 68.6279 294.361 68.8824 293.814L75.83 278.876C75.9507 278.617 76.1062 278.375 76.2921 278.157L91.9579 259.825C92.9546 258.658 92.9676 256.944 91.9888 255.763L88.5004 251.552C88.3215 251.336 88.1145 251.145 87.885 250.984L82.2138 246.999C81.6076 246.573 80.8725 246.374 80.1341 246.435C76.9291 246.699 71.7811 247.091 70.1844 247.091H52.5141C47.2506 247.091 53.642 242.392 55.1458 241.828C56.1823 241.439 63.2457 238.976 68.0671 237.3C69.3359 236.859 70.1844 235.663 70.1844 234.32V219.313C70.1844 218.911 70.261 218.514 70.41 218.141L72.3825 213.21C73.2634 211.008 76.1685 210.529 77.7094 212.332L81.9544 217.3C82.696 218.168 82.9079 219.366 82.5435 220.448C81.6153 223.204 80.3889 227.329 80.1475 229.984C79.8912 232.804 81.4373 235.733 82.598 237.352C82.9439 237.834 83.456 238.161 84.0229 238.337L115.971 248.265C116.274 248.359 116.59 248.407 116.907 248.407H157.143C157.566 248.407 157.985 248.329 158.361 248.135C164.838 244.795 182.782 227.328 191.669 213.438C192.441 212.232 192.22 210.676 191.291 209.586Z" fill="#664D3B" stroke="#61432D" stroke-width="5.85823"/>
<path d="M65.2603 179.079C69.7081 176.386 75.2837 176.386 79.7316 179.079L84.8064 182.152C86.3679 183.097 88.0997 183.727 89.9037 184.007L95.7664 184.915C100.905 185.711 105.176 189.295 106.852 194.217L108.764 199.833C109.353 201.561 110.274 203.157 111.477 204.531L115.384 208.995C118.809 212.907 119.777 218.398 117.897 223.246L115.752 228.777C115.092 230.48 114.772 232.294 114.81 234.12L114.934 240.051C115.042 245.249 112.255 250.078 107.698 252.583L102.5 255.442C100.9 256.322 99.4883 257.506 98.3443 258.929L94.6265 263.552C91.368 267.604 86.1286 269.511 81.0279 268.501L75.2082 267.35C73.4174 266.995 71.5745 266.995 69.7837 267.35L63.964 268.501C58.8632 269.511 53.6239 267.604 50.3654 263.552L46.6476 258.929C45.5036 257.506 44.0918 256.322 42.4922 255.442L37.2936 252.583C32.7373 250.078 29.9495 245.249 30.058 240.051L30.1817 234.12C30.2198 232.294 29.8998 230.48 29.2398 228.778L27.0949 223.246C25.2149 218.398 26.1831 212.907 29.6078 208.995L33.5152 204.531C34.7175 203.157 35.639 201.561 36.2274 199.833L38.1397 194.217C39.8158 189.295 44.087 185.711 49.2254 184.915L55.0881 184.007C56.8921 183.727 58.6239 183.097 60.1855 182.152L65.2603 179.079Z" fill="#7B9453" fill-opacity="0.4"/>
<path d="M78.3311 181.392L83.4059 184.464C85.2697 185.593 87.3367 186.345 89.4899 186.679L95.3526 187.587C99.4965 188.229 102.941 191.119 104.293 195.089L106.205 200.704C106.907 202.767 108.007 204.672 109.442 206.311L113.35 210.776C116.111 213.931 116.892 218.359 115.376 222.269L113.231 227.8C112.443 229.831 112.061 231.998 112.107 234.176L112.231 240.107C112.318 244.3 110.07 248.194 106.395 250.214L101.197 253.073C99.2876 254.123 97.6026 255.536 96.2372 257.234L92.5195 261.858C89.8916 265.125 85.6664 266.663 81.5528 265.849L75.7331 264.697C73.5957 264.274 71.3961 264.274 69.2587 264.697L63.439 265.849C59.3255 266.663 55.1002 265.125 52.4724 261.858L48.7546 257.234C47.3892 255.536 45.7042 254.123 43.7949 253.073L38.5964 250.214C34.922 248.194 32.6737 244.3 32.7612 240.107L32.8849 234.176C32.9304 231.998 32.5484 229.831 31.7607 227.8L29.6158 222.269C28.0997 218.359 28.8805 213.931 31.6423 210.776L35.5497 206.311C36.9847 204.672 38.0845 202.767 38.7869 200.704L40.6992 195.089C42.0509 191.119 45.4954 188.229 49.6393 187.587L55.502 186.679C57.6552 186.345 59.7221 185.593 61.5859 184.464L66.6607 181.392C70.2477 179.22 74.7442 179.22 78.3311 181.392Z" stroke="#5B6A3A" stroke-opacity="0.4" stroke-width="5.40759"/>
<path d="M56.6206 221.524C61.0684 218.831 66.644 218.831 71.0919 221.524L80.5357 227.243C82.0973 228.188 83.8291 228.819 85.6331 229.098L96.5432 230.788C101.682 231.584 105.953 235.168 107.629 240.09L111.188 250.541C111.776 252.269 112.697 253.865 113.9 255.238L121.171 263.546C124.596 267.458 125.564 272.949 123.684 277.797L119.693 288.091C119.033 289.793 118.713 291.608 118.751 293.433L118.981 304.471C119.089 309.669 116.302 314.498 111.745 317.003L102.071 322.322C100.471 323.202 99.0597 324.387 97.9157 325.809L90.9972 334.413C87.7387 338.465 82.4993 340.372 77.3986 339.362L66.5685 337.219C64.7777 336.864 62.9348 336.864 61.144 337.219L50.3139 339.362C45.2131 340.372 39.9738 338.465 36.7153 334.413L29.7968 325.809C28.6528 324.387 27.241 323.202 25.6414 322.322L15.9672 317.003C11.4109 314.498 8.6231 309.669 8.73157 304.471L8.96187 293.433C8.99995 291.608 8.67993 289.793 8.01991 288.091L4.02836 277.797C2.14842 272.949 3.11661 267.458 6.54127 263.546L13.8126 255.238C15.015 253.865 15.9364 252.269 16.5249 250.541L20.0836 240.09C21.7597 235.168 26.0309 231.584 31.1693 230.788L42.0794 229.098C43.8834 228.819 45.6152 228.188 47.1767 227.243L56.6206 221.524Z" fill="#7B9453" fill-opacity="0.4"/>
<path d="M69.6914 223.837L79.1353 229.556C80.9991 230.684 83.066 231.436 85.2192 231.77L96.1293 233.46C100.273 234.102 103.718 236.992 105.069 240.961L108.628 251.412C109.33 253.475 110.43 255.38 111.865 257.019L119.137 265.327C121.898 268.482 122.679 272.91 121.163 276.82L117.172 287.113C116.384 289.145 116.002 291.311 116.047 293.489L116.278 304.527C116.365 308.719 114.117 312.613 110.442 314.634L100.768 319.953C98.8591 321.003 97.1741 322.417 95.8087 324.115L88.8901 332.718C86.2623 335.986 82.037 337.524 77.9235 336.71L67.0934 334.566C64.956 334.143 62.7564 334.143 60.619 334.566L49.7889 336.71C45.6754 337.524 41.4501 335.986 38.8223 332.718L31.9038 324.115C30.5384 322.417 28.8534 321.003 26.9441 319.953L17.27 314.634C13.5955 312.613 11.3473 308.719 11.4348 304.527L11.6651 293.489C11.7105 291.311 11.3286 289.145 10.5408 287.113L6.54925 276.82C5.03317 272.91 5.81397 268.482 8.5758 265.327L15.8472 257.019C17.2822 255.38 18.382 253.475 19.0844 251.412L22.6431 240.961C23.9948 236.992 27.4393 234.102 31.5831 233.46L42.4932 231.77C44.6464 231.436 46.7134 230.684 48.5772 229.556L58.021 223.837C61.608 221.665 66.1045 221.665 69.6914 223.837Z" stroke="#5B6A3A" stroke-opacity="0.4" stroke-width="5.40759"/>
<path d="M56.6207 238.359C61.0686 235.666 66.6442 235.666 71.092 238.359L75.515 241.037C77.0766 241.983 78.8084 242.613 80.6124 242.892L85.7221 243.684C90.8605 244.48 95.1317 248.064 96.8078 252.986L98.4745 257.881C99.0629 259.609 99.9844 261.205 101.187 262.578L104.592 266.469C108.017 270.382 108.985 275.873 107.105 280.721L105.236 285.541C104.576 287.243 104.256 289.058 104.294 290.883L104.402 296.053C104.51 301.252 101.722 306.08 97.166 308.586L92.6351 311.077C91.0355 311.956 89.6237 313.141 88.4797 314.564L85.2395 318.593C81.981 322.645 76.7416 324.552 71.6409 323.543L66.5686 322.539C64.7778 322.184 62.9349 322.184 61.1441 322.539L56.0719 323.543C50.9711 324.552 45.7318 322.645 42.4733 318.593L39.233 314.564C38.089 313.141 36.6773 311.956 35.0776 311.077L30.5467 308.586C25.9904 306.08 23.2026 301.252 23.3111 296.053L23.4189 290.883C23.457 289.058 23.137 287.243 22.477 285.541L20.6076 280.721C18.7276 275.873 19.6958 270.382 23.1205 266.469L26.526 262.578C27.7284 261.205 28.6498 259.609 29.2383 257.881L30.905 252.986C32.5811 248.064 36.8522 244.48 41.9906 243.684L47.1003 242.892C48.9044 242.613 50.6361 241.983 52.1977 241.037L56.6207 238.359Z" fill="#8B9453" fill-opacity="0.6"/>
<path d="M244 72.0701C250.917 68.3505 259.24 68.3505 266.157 72.0701V72.0701C268.143 73.1376 270.272 73.9126 272.479 74.371V74.371C280.169 75.9682 286.544 81.3178 289.453 88.6137V88.6137C290.287 90.7077 291.42 92.67 292.816 94.4398V94.4398C297.681 100.606 299.126 108.802 296.664 116.261V116.261C295.958 118.401 295.564 120.633 295.496 122.886V122.886C295.258 130.737 291.097 137.944 284.417 142.075V142.075C282.5 143.261 280.764 144.717 279.264 146.399V146.399C274.035 152.261 266.215 155.107 258.442 153.978V153.978C256.211 153.654 253.945 153.654 251.715 153.978V153.978C243.942 155.107 236.122 152.261 230.893 146.399V146.399C229.393 144.717 227.657 143.261 225.74 142.075V142.075C219.06 137.944 214.899 130.737 214.661 122.886V122.886C214.593 120.633 214.199 118.401 213.493 116.261V116.261C211.031 108.802 212.476 100.606 217.34 94.4398V94.4398C218.736 92.6699 219.869 90.7077 220.704 88.6138V88.6138C223.612 81.3178 229.988 75.9682 237.678 74.371V74.371C239.885 73.9126 242.014 73.1376 244 72.0701V72.0701Z" fill="#7B9453" fill-opacity="0.4"/>
<path d="M238.228 77.0183C240.69 76.5069 243.065 75.6424 245.28 74.4515C251.398 71.1618 258.759 71.1618 264.877 74.4515C267.092 75.6424 269.467 76.5069 271.929 77.0183C278.73 78.4309 284.369 83.1622 286.941 89.6149C287.872 91.9508 289.136 94.1399 290.694 96.1143C294.996 101.568 296.274 108.817 294.097 115.413C293.308 117.801 292.869 120.291 292.793 122.804C292.583 129.748 288.903 136.122 282.995 139.776C280.856 141.098 278.92 142.723 277.246 144.6C272.622 149.783 265.705 152.301 258.831 151.302C256.342 150.941 253.815 150.941 251.326 151.302C244.452 152.301 237.535 149.783 232.911 144.6C231.237 142.723 229.301 141.098 227.162 139.776C221.254 136.122 217.574 129.748 217.363 122.804C217.287 120.291 216.849 117.801 216.06 115.413C213.883 108.817 215.161 101.568 219.463 96.1143C221.021 94.1399 222.285 91.9508 223.216 89.6149C225.788 83.1622 231.426 78.4309 238.228 77.0183Z" stroke="#5B6A3A" stroke-opacity="0.4" stroke-width="5.40759"/>
<path d="M211.27 62.7762C219.139 58.5452 228.606 58.5452 236.475 62.7762V62.7762C238.733 63.9905 241.155 64.872 243.666 65.3934V65.3934C252.413 67.2102 259.665 73.2954 262.973 81.5946V81.5946C263.923 83.9764 265.212 86.2085 266.8 88.2216V88.2216C272.333 95.2362 273.977 104.559 271.176 113.043V113.043C270.373 115.478 269.925 118.016 269.848 120.579V120.579C269.577 129.509 264.844 137.708 257.245 142.407V142.407C255.064 143.756 253.09 145.412 251.383 147.326V147.326C245.436 153.993 236.54 157.231 227.699 155.946V155.946C225.161 155.578 222.584 155.578 220.047 155.946V155.946C211.205 157.231 202.309 153.993 196.362 147.326V147.326C194.655 145.412 192.681 143.756 190.5 142.407V142.407C182.901 137.708 178.168 129.509 177.898 120.579V120.579C177.82 118.016 177.373 115.478 176.569 113.043V113.043C173.769 104.559 175.413 95.2362 180.946 88.2216V88.2216C182.534 86.2085 183.822 83.9764 184.772 81.5946V81.5946C188.08 73.2954 195.332 67.2102 204.08 65.3934V65.3934C206.59 64.872 209.012 63.9905 211.27 62.7762V62.7762Z" fill="#7B9453" fill-opacity="0.4"/>
<path d="M204.629 68.0407C207.395 67.4663 210.063 66.4952 212.551 65.1576C219.62 61.3564 228.125 61.3564 235.194 65.1576C237.682 66.4952 240.35 67.4663 243.116 68.0407C250.975 69.6729 257.49 75.1398 260.462 82.5957C261.508 85.2196 262.927 87.6785 264.677 89.8962C269.648 96.198 271.125 104.574 268.609 112.196C267.723 114.878 267.23 117.674 267.145 120.497C266.902 128.52 262.65 135.886 255.823 140.107C253.421 141.593 251.246 143.418 249.366 145.526C244.023 151.516 236.031 154.425 228.088 153.271C225.292 152.864 222.453 152.864 219.658 153.271C211.715 154.425 203.723 151.516 198.38 145.526C196.499 143.418 194.324 141.593 191.922 140.107C185.096 135.886 180.843 128.52 180.6 120.497C180.515 117.674 180.022 114.878 179.137 112.196C176.621 104.574 178.098 96.198 183.069 89.8962C184.818 87.6785 186.238 85.2196 187.283 82.5957C190.255 75.1398 196.771 69.6729 204.629 68.0407Z" stroke="#5B6A3A" stroke-opacity="0.4" stroke-width="5.40759"/>
<path d="M343.598 190.723C348.046 188.03 353.621 188.03 358.069 190.723L362.584 193.457C364.146 194.403 365.877 195.033 367.681 195.312L372.897 196.12C378.035 196.916 382.306 200.5 383.983 205.422L385.684 210.418C386.272 212.146 387.194 213.742 388.396 215.116L391.872 219.087C395.297 223 396.265 228.491 394.385 233.339L392.477 238.26C391.817 239.962 391.497 241.776 391.535 243.602L391.645 248.878C391.754 254.077 388.966 258.905 384.409 261.411L379.785 263.954C378.185 264.833 376.773 266.018 375.629 267.441L372.322 271.553C369.063 275.606 363.824 277.512 358.723 276.503L353.546 275.478C351.755 275.124 349.912 275.124 348.121 275.478L342.944 276.503C337.843 277.512 332.604 275.606 329.345 271.553L326.038 267.441C324.894 266.018 323.482 264.833 321.883 263.954L317.258 261.411C312.702 258.905 309.914 254.077 310.022 248.878L310.132 243.602C310.17 241.776 309.85 239.962 309.19 238.26L307.282 233.339C305.402 228.491 306.37 223 309.795 219.087L313.271 215.116C314.474 213.742 315.395 212.146 315.983 210.418L317.685 205.422C319.361 200.5 323.632 196.916 328.77 196.12L333.986 195.312C335.79 195.033 337.522 194.403 339.083 193.457L343.598 190.723Z" fill="#7B9453" fill-opacity="0.4"/>
<path d="M356.669 193.036L361.183 195.77C363.047 196.898 365.114 197.651 367.267 197.984L372.483 198.792C376.627 199.434 380.071 202.324 381.423 206.294L383.124 211.29C383.827 213.352 384.926 215.257 386.362 216.897L389.838 220.868C392.599 224.023 393.38 228.452 391.864 232.361L389.956 237.282C389.168 239.313 388.786 241.48 388.832 243.658L388.942 248.935C389.029 253.127 386.781 257.021 383.107 259.042L378.482 261.585C376.573 262.634 374.888 264.048 373.522 265.746L370.215 269.859C367.587 273.127 363.362 274.665 359.248 273.851L354.071 272.826C351.933 272.403 349.734 272.403 347.596 272.826L342.419 273.851C338.306 274.665 334.08 273.127 331.452 269.859L328.145 265.746C326.78 264.048 325.095 262.634 323.185 261.585L318.561 259.042C314.886 257.021 312.638 253.127 312.725 248.935L312.835 243.658C312.881 241.48 312.499 239.313 311.711 237.282L309.803 232.361C308.287 228.452 309.068 224.023 311.83 220.868L315.306 216.897C316.741 215.257 317.841 213.352 318.543 211.29L320.244 206.294C321.596 202.324 325.04 199.434 329.184 198.792L334.4 197.984C336.553 197.651 338.62 196.898 340.484 195.77L344.998 193.036C348.585 190.864 353.082 190.864 356.669 193.036Z" stroke="#5B6A3A" stroke-opacity="0.4" stroke-width="5.40759"/>
<path d="M312.421 215.89C316.869 213.197 322.444 213.197 326.892 215.89L334.656 220.591C336.217 221.536 337.949 222.167 339.753 222.446L348.722 223.835C353.86 224.631 358.131 228.215 359.807 233.137L362.733 241.729C363.321 243.457 364.243 245.053 365.445 246.426L371.423 253.256C374.847 257.168 375.815 262.659 373.936 267.507L370.654 275.969C369.994 277.671 369.674 279.486 369.712 281.311L369.902 290.385C370.01 295.583 367.222 300.412 362.666 302.917L354.713 307.29C353.114 308.17 351.702 309.354 350.558 310.777L344.87 317.85C341.612 321.902 336.372 323.809 331.272 322.799L322.369 321.037C320.578 320.682 318.735 320.682 316.944 321.037L308.041 322.799C302.94 323.809 297.701 321.902 294.443 317.85L288.755 310.777C287.611 309.354 286.199 308.17 284.6 307.29L276.647 302.917C272.091 300.412 269.303 295.583 269.411 290.385L269.601 281.311C269.639 279.486 269.319 277.671 268.659 275.969L265.377 267.507C263.497 262.659 264.466 257.168 267.89 253.256L273.868 246.426C275.07 245.053 275.992 243.457 276.58 241.729L279.506 233.137C281.182 228.215 285.453 224.631 290.591 223.835L299.56 222.446C301.364 222.167 303.096 221.536 304.657 220.591L312.421 215.89Z" fill="#7B9453" fill-opacity="0.4"/>
<path d="M325.492 218.203L333.255 222.904C335.119 224.032 337.186 224.785 339.339 225.118L348.308 226.507C352.452 227.149 355.896 230.039 357.248 234.009L360.173 242.6C360.876 244.663 361.976 246.568 363.411 248.207L369.388 255.036C372.15 258.192 372.931 262.62 371.415 266.53L368.133 274.991C367.346 277.023 366.964 279.189 367.009 281.367L367.198 290.441C367.286 294.633 365.038 298.528 361.363 300.548L353.41 304.921C351.501 305.971 349.816 307.385 348.451 309.083L342.763 316.155C340.135 319.423 335.91 320.961 331.797 320.147L322.894 318.385C320.756 317.962 318.557 317.962 316.419 318.385L307.516 320.147C303.403 320.961 299.177 319.423 296.55 316.155L290.862 309.083C289.497 307.385 287.812 305.971 285.902 304.921L277.95 300.548C274.275 298.528 272.027 294.633 272.114 290.441L272.304 281.367C272.349 279.189 271.967 277.023 271.18 274.991L267.898 266.53C266.382 262.62 267.163 258.192 269.925 255.036L275.902 248.207C277.337 246.568 278.437 244.663 279.139 242.6L282.065 234.009C283.417 230.039 286.861 227.149 291.005 226.507L299.974 225.118C302.127 224.785 304.194 224.032 306.058 222.904L313.821 218.203C317.408 216.031 321.905 216.031 325.492 218.203Z" stroke="#5B6A3A" stroke-opacity="0.4" stroke-width="5.40759"/>
<path d="M204.993 100.573C209.441 97.8799 215.016 97.8799 219.464 100.573L241.903 114.16C243.465 115.106 245.197 115.736 247.001 116.015L272.923 120.031C278.062 120.827 282.333 124.411 284.009 129.333L292.465 154.164C293.053 155.893 293.975 157.489 295.177 158.862L312.454 178.601C315.879 182.513 316.847 188.004 314.967 192.852L305.483 217.31C304.823 219.012 304.503 220.827 304.541 222.652L305.088 248.878C305.197 254.077 302.409 258.905 297.852 261.411L274.866 274.05C273.267 274.929 271.855 276.114 270.711 277.537L254.272 297.979C251.014 302.031 245.774 303.938 240.674 302.928L214.941 297.835C213.15 297.481 211.307 297.481 209.516 297.835L183.784 302.928C178.683 303.938 173.443 302.031 170.185 297.979L153.746 277.537C152.602 276.114 151.19 274.929 149.591 274.05L126.605 261.411C122.048 258.905 119.261 254.077 119.369 248.878L119.916 222.652C119.954 220.827 119.634 219.012 118.974 217.31L109.49 192.852C107.61 188.004 108.578 182.513 112.003 178.601L129.28 158.862C130.482 157.489 131.404 155.893 131.992 154.164L140.448 129.333C142.124 124.411 146.395 120.827 151.534 120.031L177.457 116.015C179.261 115.736 180.992 115.106 182.554 114.16L204.993 100.573Z" fill="#7B9453" fill-opacity="0.4"/>
<path d="M217.947 103.079L240.386 116.666C242.275 117.81 244.37 118.572 246.552 118.91L272.475 122.925C276.536 123.554 279.912 126.387 281.236 130.277L289.692 155.109C290.404 157.199 291.518 159.13 292.973 160.791L310.25 180.53C312.957 183.622 313.722 187.962 312.236 191.793L302.752 216.251C301.953 218.31 301.566 220.505 301.612 222.713L302.16 248.939C302.245 253.048 300.042 256.864 296.441 258.844L273.455 271.483C271.52 272.547 269.812 273.98 268.428 275.701L251.99 296.143C249.414 299.346 245.273 300.853 241.242 300.055L215.509 294.962C213.343 294.533 211.114 294.533 208.948 294.962L183.215 300.055C179.184 300.853 175.043 299.346 172.468 296.143L156.029 275.701C154.645 273.98 152.937 272.547 151.002 271.483L128.016 258.844C124.415 256.864 122.212 253.048 122.297 248.939L122.845 222.713C122.891 220.505 122.504 218.31 121.705 216.251L112.221 191.793C110.735 187.962 111.501 183.622 114.207 180.53L131.484 160.791C132.939 159.13 134.053 157.199 134.765 155.109L143.221 130.277C144.545 126.387 147.921 123.554 151.982 122.925L177.905 118.91C180.087 118.572 182.182 117.81 184.071 116.666L206.51 103.079C210.025 100.95 214.432 100.95 217.947 103.079Z" stroke="#5B6A3A" stroke-opacity="0.4" stroke-width="5.85823"/>
<path d="M204.993 121.327C209.44 118.633 215.016 118.633 219.464 121.327L235.713 131.166C237.275 132.111 239.007 132.742 240.811 133.021L259.583 135.929C264.721 136.725 268.993 140.309 270.669 145.231L276.792 163.213C277.38 164.941 278.302 166.537 279.504 167.911L292.016 182.205C295.44 186.117 296.409 191.608 294.529 196.456L287.661 214.167C287.001 215.869 286.681 217.684 286.719 219.51L287.115 238.502C287.223 243.7 284.436 248.529 279.879 251.034L263.233 260.187C261.634 261.067 260.222 262.251 259.078 263.674L247.174 278.477C243.915 282.529 238.676 284.436 233.575 283.427L214.94 279.739C213.15 279.384 211.307 279.384 209.516 279.739L190.881 283.427C185.78 284.436 180.541 282.529 177.283 278.477L165.378 263.674C164.234 262.251 162.823 261.067 161.223 260.187L144.577 251.034C140.021 248.529 137.233 243.7 137.341 238.502L137.738 219.51C137.776 217.684 137.456 215.869 136.796 214.167L129.928 196.456C128.048 191.608 129.016 186.117 132.441 182.205L144.952 167.911C146.154 166.537 147.076 164.941 147.664 163.213L153.788 145.231C155.464 140.309 159.735 136.725 164.873 135.929L183.646 133.021C185.45 132.742 187.181 132.111 188.743 131.166L204.993 121.327Z" fill="#8B9453" fill-opacity="0.6"/>
<path d="M205.012 144.199C209.46 141.506 215.036 141.506 219.484 144.199L228.967 149.941C230.529 150.887 232.261 151.517 234.065 151.797L245.021 153.494C250.159 154.29 254.431 157.873 256.107 162.796L259.68 173.291C260.269 175.019 261.19 176.615 262.393 177.988L269.695 186.331C273.119 190.243 274.088 195.734 272.208 200.582L268.199 210.919C267.539 212.621 267.219 214.436 267.257 216.261L267.489 227.346C267.597 232.544 264.809 237.373 260.253 239.878L250.538 245.22C248.938 246.1 247.526 247.284 246.382 248.707L239.435 257.346C236.176 261.399 230.937 263.305 225.836 262.296L214.96 260.143C213.17 259.789 211.327 259.789 209.536 260.143L198.66 262.296C193.559 263.305 188.32 261.399 185.062 257.346L178.114 248.707C176.97 247.284 175.558 246.1 173.958 245.22L164.243 239.878C159.687 237.373 156.899 232.544 157.008 227.346L157.239 216.261C157.277 214.436 156.957 212.621 156.297 210.919L152.289 200.582C150.409 195.734 151.377 190.243 154.802 186.331L162.104 177.988C163.306 176.615 164.227 175.019 164.816 173.291L168.39 162.796C170.066 157.873 174.337 154.29 179.475 153.494L190.431 151.797C192.235 151.517 193.967 150.887 195.529 149.941L205.012 144.199Z" fill="#8B9453" fill-opacity="0.6"/>
</svg>
