<svg width="1001" height="1001" viewBox="0 0 1001 1001" fill="none" xmlns="http://www.w3.org/2000/svg">
<g clip-path="url(#clip0_388_7)">
<path d="M752.299 951.006C390.951 1069.91 110.524 467.518 79.5591 259.937C73.0239 216.127 58.5127 144.979 79.3066 116.744C111.331 73.2601 144.629 70.9005 239.232 64.1967L240.258 64.1241C303.252 91.4045 449.053 156.152 528.308 196.896C627.377 247.827 763.772 330.121 815.659 378.385C867.546 426.648 1113.65 832.105 752.299 951.006Z" fill="url(#paint0_linear_388_7)" stroke="#925C34" stroke-width="72.5098"/>
<path d="M541.926 433.76C359.903 520.517 154.566 293.564 134.228 177.007C124.25 159.726 224.249 151.217 275.496 149.123C309.899 165.481 389.554 204.239 432.952 228.409C487.198 258.621 562.098 307.021 590.89 334.909C619.683 362.798 648.648 382.893 541.926 433.76Z" fill="white" fill-opacity="0.11"/>
<path d="M541.927 433.76C368.109 516.607 169.331 306.851 138.078 190.585C149.428 189.161 201.846 210.182 253.093 208.088C287.496 224.446 300.958 231.424 344.355 255.594C398.602 285.806 418.115 290.599 458.121 321.853C477.626 337.091 596.889 407.563 541.927 433.76Z" fill="#3F2D2D" fill-opacity="0.2"/>
<path d="M499.375 448.12C340.603 478.124 194.334 315.602 161.829 245.593C173.179 244.169 186.416 259.345 240.589 271.846C321.851 290.599 503.125 401.864 499.375 448.12Z" fill="#3F2D2D" fill-opacity="0.2"/>
</g>
<defs>
<linearGradient id="paint0_linear_388_7" x1="762.07" y1="-157.694" x2="780.522" y2="944.612" gradientUnits="userSpaceOnUse">
<stop offset="0.539583" stop-color="#D3963B"/>
<stop offset="1" stop-color="#D76523"/>
</linearGradient>
<clipPath id="clip0_388_7">
<rect width="1000" height="1000" fill="white" transform="translate(0.558594 0.558594)"/>
</clipPath>
</defs>
</svg>
