<svg width="500" height="500" viewBox="0 0 500 500" fill="none" xmlns="http://www.w3.org/2000/svg">
<g clip-path="url(#clip0_561_11713)">
<path d="M234.625 61.8311C240.131 46.8766 261.282 46.8766 266.788 61.8311L285.596 112.917C287.324 117.61 291.016 121.314 295.703 123.058L346.775 142.052C361.659 147.587 361.659 168.64 346.775 174.175L295.703 193.169C291.016 194.913 287.324 198.617 285.596 203.31L266.788 254.396C261.282 269.35 240.131 269.35 234.625 254.396L215.817 203.31C214.09 198.617 210.397 194.913 205.71 193.169L154.638 174.175C139.754 168.64 139.754 147.587 154.638 142.052L205.71 123.058C210.397 121.314 214.09 117.61 215.817 112.917L234.625 61.8311Z" fill="#79319B"/>
<path d="M327.973 155.572C333.538 140.759 354.491 140.759 360.056 155.572L379.237 206.625C380.996 211.307 384.712 214.986 389.41 216.699L440.506 235.321C455.531 240.797 455.531 262.046 440.506 267.522L389.41 286.144C384.712 287.856 380.996 291.536 379.237 296.218L360.056 347.271C354.491 362.084 333.538 362.084 327.973 347.271L308.792 296.218C307.033 291.536 303.317 287.856 298.618 286.144L247.523 267.522C232.498 262.046 232.498 240.797 247.523 235.321L298.618 216.699C303.317 214.986 307.033 211.307 308.792 206.625L327.973 155.572Z" fill="#79319B"/>
<path d="M139.943 155.572C145.508 140.759 166.461 140.759 172.027 155.572L191.207 206.625C192.966 211.307 196.682 214.986 201.381 216.699L252.477 235.321C267.501 240.797 267.501 262.046 252.477 267.522L201.381 286.144C196.682 287.856 192.966 291.536 191.207 296.218L172.027 347.271C166.461 362.084 145.508 362.084 139.943 347.271L120.763 296.218C119.004 291.536 115.288 287.856 110.589 286.144L59.4931 267.522C44.4684 262.046 44.4684 240.797 59.4931 235.321L110.589 216.699C115.288 214.986 119.004 211.307 120.763 206.625L139.943 155.572Z" fill="#79319B"/>
<path d="M233.928 246.786C239.449 231.867 260.55 231.867 266.071 246.786L285.068 298.123C286.803 302.814 290.501 306.512 295.192 308.248L346.529 327.244C361.448 332.765 361.448 353.866 346.529 359.387L295.192 378.383C290.501 380.119 286.803 383.817 285.068 388.508L266.071 439.845C260.55 454.764 239.449 454.764 233.928 439.845L214.932 388.508C213.196 383.817 209.498 380.119 204.807 378.383L153.47 359.387C138.551 353.866 138.551 332.765 153.47 327.244L204.807 308.248C209.498 306.512 213.196 302.814 214.932 298.123L233.928 246.786Z" fill="#79319B"/>
<path d="M226.349 25.1739C234.473 3.21835 265.527 3.21829 273.651 25.1738L323.965 161.144C326.519 168.047 331.961 173.489 338.864 176.043L474.834 226.357C496.789 234.481 496.79 265.535 474.834 273.659L338.864 323.972C331.961 326.527 326.519 331.969 323.965 338.872L273.651 474.842C265.527 496.797 234.473 496.797 226.349 474.842L176.035 338.872C173.481 331.969 168.039 326.527 161.136 323.972L25.1661 273.659C3.21054 265.535 3.21047 234.481 25.166 226.357L161.136 176.043C168.039 173.489 173.481 168.047 176.035 161.144L226.349 25.1739Z" fill="#79319B"/>
<path d="M238.204 94.4696C242.256 83.5192 257.744 83.5192 261.796 94.4696L298.95 194.876C300.224 198.319 302.938 201.033 306.381 202.307L406.787 239.461C417.738 243.513 417.738 259.001 406.787 263.053L306.381 300.207C302.938 301.48 300.224 304.195 298.95 307.638L261.796 408.044C257.744 418.994 242.256 418.994 238.204 408.044L201.05 307.638C199.776 304.195 197.062 301.48 193.619 300.207L93.2128 263.053C82.2624 259.001 82.2624 243.513 93.2128 239.461L193.619 202.307C197.062 201.033 199.776 198.319 201.05 194.876L238.204 94.4696Z" fill="#B10DFF"/>
<path d="M250 117.399L286.154 215.103L383.858 251.257L286.154 287.411L250 385.115L213.846 287.411L116.142 251.257L213.846 215.103L250 117.399Z" fill="#B10DFF"/>
</g>
<defs>
<clipPath id="clip0_561_11713">
<rect width="500" height="500" fill="white" transform="translate(0 0.00683594)"/>
</clipPath>
</defs>
</svg>
