<svg width="1000" height="1000" viewBox="0 0 1000 1000" fill="none" xmlns="http://www.w3.org/2000/svg">
<mask id="path-1-outside-1_621_70899" maskUnits="userSpaceOnUse" x="10" y="167" width="980" height="742" fill="black">
<rect fill="white" x="10" y="167" width="980" height="742"/>
<path fill-rule="evenodd" clip-rule="evenodd" d="M480.466 238.595C457.556 230.199 425.814 225 390.735 225C320.891 225 264.271 245.61 264.271 271.033C264.271 271.123 264.272 271.214 264.274 271.304C224.358 274.007 191.031 283.533 173.775 296.433C113.772 300.027 68 318.994 68 341.852C68 367.276 124.62 387.885 194.464 387.885C198.803 387.885 203.091 387.806 207.318 387.65L288.553 435.436L357.349 443.529L431.71 503.726C439.129 514.855 457.913 539.136 473.695 547.23C493.424 557.347 531.363 592.251 531.363 597.815C531.363 602.266 539.794 649.244 544.009 672.176L531.363 727.314L493.424 771.829L544.009 837.084L629.499 797.122L609.77 727.314L601.171 649.918C604.037 629.852 609.77 588.608 609.77 584.157C609.77 579.975 649.356 505.223 672.744 461.654C681.62 462.373 690.848 462.752 700.318 462.752C702.498 462.752 704.665 462.732 706.818 462.692C729.994 473.214 765.604 479.951 805.536 479.951C875.38 479.951 932 459.341 932 433.918C932 425.42 925.673 417.459 914.641 410.627C918.037 406.466 919.86 402.059 919.86 397.496C919.86 372.073 863.24 351.464 793.396 351.464C750.86 351.464 713.228 359.108 690.304 370.828C625.141 372.687 573.855 392.523 573.855 416.719C573.855 434.307 600.952 449.591 640.779 457.341C620.217 470.136 601.171 482.784 601.171 485.515C601.171 489.967 563.063 507.267 544.009 515.361L498.988 490.574L506.07 426.836L554.971 361.197C564.898 362.108 575.291 362.593 585.996 362.593C655.839 362.593 712.459 341.983 712.459 316.56C712.459 302.323 694.703 289.595 666.812 281.151C666.892 280.48 666.933 279.805 666.933 279.126C666.933 253.703 610.313 233.094 540.469 233.094C518.755 233.094 498.319 235.086 480.466 238.595ZM512.646 374.733L521.435 361.975C501.993 367.095 478.392 370.251 452.827 370.644L473.695 406.602L512.646 374.733ZM424.842 369.957C419.964 369.637 415.184 369.216 410.518 368.699C387.562 380.318 350.096 387.885 307.776 387.885C299.562 387.885 291.531 387.6 283.754 387.056L390.735 426.836L464.084 480.08L450.426 419.754L424.842 369.957Z"/>
</mask>
<path fill-rule="evenodd" clip-rule="evenodd" d="M480.466 238.595C457.556 230.199 425.814 225 390.735 225C320.891 225 264.271 245.61 264.271 271.033C264.271 271.123 264.272 271.214 264.274 271.304C224.358 274.007 191.031 283.533 173.775 296.433C113.772 300.027 68 318.994 68 341.852C68 367.276 124.62 387.885 194.464 387.885C198.803 387.885 203.091 387.806 207.318 387.65L288.553 435.436L357.349 443.529L431.71 503.726C439.129 514.855 457.913 539.136 473.695 547.23C493.424 557.347 531.363 592.251 531.363 597.815C531.363 602.266 539.794 649.244 544.009 672.176L531.363 727.314L493.424 771.829L544.009 837.084L629.499 797.122L609.77 727.314L601.171 649.918C604.037 629.852 609.77 588.608 609.77 584.157C609.77 579.975 649.356 505.223 672.744 461.654C681.62 462.373 690.848 462.752 700.318 462.752C702.498 462.752 704.665 462.732 706.818 462.692C729.994 473.214 765.604 479.951 805.536 479.951C875.38 479.951 932 459.341 932 433.918C932 425.42 925.673 417.459 914.641 410.627C918.037 406.466 919.86 402.059 919.86 397.496C919.86 372.073 863.24 351.464 793.396 351.464C750.86 351.464 713.228 359.108 690.304 370.828C625.141 372.687 573.855 392.523 573.855 416.719C573.855 434.307 600.952 449.591 640.779 457.341C620.217 470.136 601.171 482.784 601.171 485.515C601.171 489.967 563.063 507.267 544.009 515.361L498.988 490.574L506.07 426.836L554.971 361.197C564.898 362.108 575.291 362.593 585.996 362.593C655.839 362.593 712.459 341.983 712.459 316.56C712.459 302.323 694.703 289.595 666.812 281.151C666.892 280.48 666.933 279.805 666.933 279.126C666.933 253.703 610.313 233.094 540.469 233.094C518.755 233.094 498.319 235.086 480.466 238.595ZM512.646 374.733L521.435 361.975C501.993 367.095 478.392 370.251 452.827 370.644L473.695 406.602L512.646 374.733ZM424.842 369.957C419.964 369.637 415.184 369.216 410.518 368.699C387.562 380.318 350.096 387.885 307.776 387.885C299.562 387.885 291.531 387.6 283.754 387.056L390.735 426.836L464.084 480.08L450.426 419.754L424.842 369.957Z" fill="#5F6B3D"/>
<path d="M480.466 238.595L460.832 292.167L475.814 297.658L491.47 294.58L480.466 238.595ZM264.274 271.304L268.127 328.231L322.182 324.571L321.323 270.4L264.274 271.304ZM173.775 296.433L177.186 353.387L194.247 352.365L207.936 342.132L173.775 296.433ZM207.318 387.65L236.247 338.471L221.88 330.02L205.223 330.632L207.318 387.65ZM288.553 435.436L259.624 484.615L269.968 490.699L281.886 492.101L288.553 435.436ZM357.349 443.529L393.249 399.182L380.415 388.793L364.015 386.863L357.349 443.529ZM431.71 503.726L479.183 472.077L474.363 464.846L467.609 459.379L431.71 503.726ZM473.695 547.23L447.66 597.999L447.66 597.999L473.695 547.23ZM544.009 672.176L599.622 684.931L602.256 673.447L600.126 661.86L544.009 672.176ZM531.363 727.314L574.788 764.324L583.852 753.689L586.976 740.069L531.363 727.314ZM493.424 771.829L449.999 734.819L419.91 770.124L448.33 806.786L493.424 771.829ZM544.009 837.084L498.915 872.041L526.856 908.085L568.171 888.772L544.009 837.084ZM629.499 797.122L653.661 848.81L697.594 828.273L684.405 781.605L629.499 797.122ZM609.77 727.314L553.063 733.615L553.583 738.297L554.864 742.831L609.77 727.314ZM601.171 649.918L544.688 641.849L543.663 649.02L544.463 656.219L601.171 649.918ZM672.744 461.654L677.348 404.784L640.132 401.771L622.473 434.669L672.744 461.654ZM706.818 462.692L730.404 410.739L718.661 405.407L705.766 405.645L706.818 462.692ZM914.641 410.627L870.437 374.551L829.339 424.91L884.599 459.134L914.641 410.627ZM690.304 370.828L691.93 427.862L704.807 427.495L716.278 421.63L690.304 370.828ZM640.779 457.341L670.923 505.785L794.206 429.072L651.678 401.335L640.779 457.341ZM544.009 515.361L516.491 565.343L540.788 578.72L566.317 567.876L544.009 515.361ZM498.988 490.574L442.281 484.273L438.07 522.167L471.47 540.556L498.988 490.574ZM506.07 426.836L460.315 392.749L451.071 405.157L449.363 420.535L506.07 426.836ZM554.971 361.197L560.187 304.379L528.329 301.455L509.216 327.11L554.971 361.197ZM666.812 281.151L610.155 274.414L604.508 321.903L650.28 335.76L666.812 281.151ZM521.435 361.975L568.422 394.344L655.726 267.612L506.906 306.799L521.435 361.975ZM512.646 374.733L548.777 418.892L555.041 413.767L559.633 407.102L512.646 374.733ZM452.827 370.644L451.949 313.595L354.618 315.093L403.479 399.284L452.827 370.644ZM473.695 406.602L424.347 435.241L457.975 493.185L509.826 450.761L473.695 406.602ZM410.518 368.699L416.8 311.989L399.911 310.118L384.75 317.792L410.518 368.699ZM424.842 369.957L475.593 343.883L460.823 315.135L428.572 313.022L424.842 369.957ZM283.754 387.056L287.738 330.139L263.868 440.535L283.754 387.056ZM390.735 426.836L424.253 380.662L417.937 376.077L410.621 373.357L390.735 426.836ZM464.084 480.08L430.567 526.254L553.192 615.268L519.732 467.481L464.084 480.08ZM450.426 419.754L506.074 407.155L504.479 400.108L501.177 393.68L450.426 419.754ZM390.735 282.057C420.933 282.057 445.718 286.628 460.832 292.167L500.1 185.023C469.395 173.769 430.694 167.943 390.735 167.943V282.057ZM321.328 271.033C321.328 287.539 311.958 295.905 311.427 296.362C310.715 296.974 313.02 294.94 320.828 292.098C335.975 286.584 360.683 282.057 390.735 282.057V167.943C350.944 167.943 312.42 173.72 281.796 184.868C266.718 190.356 250.503 198.241 236.992 209.868C223.662 221.34 207.215 241.815 207.215 271.033H321.328ZM321.323 270.4C321.326 270.611 321.328 270.822 321.328 271.033H207.215C207.215 271.424 207.218 271.816 207.224 272.209L321.323 270.4ZM207.936 342.132C207.929 342.137 208.022 342.068 208.232 341.931C208.442 341.796 208.749 341.606 209.165 341.369C210.01 340.89 211.202 340.275 212.79 339.568C216.009 338.134 220.361 336.541 225.904 334.99C237.056 331.869 251.438 329.361 268.127 328.231L260.42 214.378C216.9 217.324 170.154 227.903 139.613 250.733L207.936 342.132ZM125.057 341.852C125.057 356.627 117.418 365.025 115.722 366.663C114.169 368.162 114.935 366.88 120.698 364.432C131.919 359.664 151.517 354.925 177.186 353.387L170.363 239.478C136.03 241.535 102.741 248.076 76.0754 259.405C62.8945 265.005 48.4672 272.975 36.4566 284.573C24.3032 296.308 10.9434 315.648 10.9434 341.852H125.057ZM194.464 330.829C164.411 330.829 139.703 326.301 124.556 320.787C116.749 317.946 114.444 315.911 115.156 316.524C115.687 316.981 125.057 325.346 125.057 341.852H10.9434C10.9434 371.071 27.3904 391.546 40.7203 403.017C54.2311 414.645 70.4464 422.529 85.5244 428.018C116.148 439.165 154.672 444.942 194.464 444.942V330.829ZM205.223 330.632C201.696 330.762 198.106 330.829 194.464 330.829V444.942C199.5 444.942 204.486 444.85 209.413 444.669L205.223 330.632ZM317.481 386.257L236.247 338.471L178.389 436.829L259.624 484.615L317.481 386.257ZM364.015 386.863L295.219 378.77L281.886 492.101L350.682 500.195L364.015 386.863ZM467.609 459.379L393.249 399.182L321.449 487.876L395.81 548.073L467.609 459.379ZM499.731 496.46C501.477 497.355 501.281 497.56 499.117 495.664C497.208 493.992 494.792 491.588 492.05 488.529C486.463 482.298 481.556 475.636 479.183 472.077L384.236 535.375C389.282 542.945 397.477 553.988 407.083 564.703C415.568 574.167 429.982 588.934 447.66 597.999L499.731 496.46ZM588.42 597.815C588.42 583.761 583.245 573.476 581.936 570.866C579.831 566.668 577.588 563.346 576.127 561.301C573.123 557.093 569.818 553.3 567.17 550.414C561.637 544.383 554.816 537.828 547.959 531.697C535.413 520.478 516.47 505.043 499.731 496.46L447.66 597.999C447.612 597.975 447.835 598.088 448.35 598.396C448.854 598.697 449.529 599.118 450.378 599.679C452.099 600.817 454.209 602.311 456.641 604.148C461.535 607.845 466.91 612.304 471.895 616.762C476.989 621.317 480.887 625.164 483.084 627.559C484.3 628.885 484.114 628.811 483.261 627.616C482.877 627.078 481.468 625.086 479.928 622.016C479.135 620.434 477.924 617.811 476.839 614.369C475.826 611.159 474.306 605.326 474.306 597.815H588.42ZM600.126 661.86C598.038 650.506 594.912 633.224 592.32 618.3C591.019 610.809 589.888 604.117 589.096 599.133C588.695 596.609 588.425 594.798 588.269 593.658C588.19 593.071 588.179 592.945 588.199 593.137C588.21 593.237 588.25 593.622 588.292 594.198C588.323 594.624 588.42 595.985 588.42 597.815H474.306C474.306 603.016 475.107 608.371 475.197 609.038C475.52 611.408 475.941 614.177 476.397 617.041C477.317 622.833 478.557 630.154 479.891 637.83C482.568 653.241 485.765 670.914 487.893 682.491L600.126 661.86ZM586.976 740.069L599.622 684.931L488.397 659.42L475.75 714.559L586.976 740.069ZM536.849 808.839L574.788 764.324L487.938 690.304L449.999 734.819L536.849 808.839ZM589.104 802.128L538.518 736.872L448.33 806.786L498.915 872.041L589.104 802.128ZM605.337 745.434L519.847 785.396L568.171 888.772L653.661 848.81L605.337 745.434ZM554.864 742.831L574.593 812.639L684.405 781.605L664.677 711.797L554.864 742.831ZM544.463 656.219L553.063 733.615L666.478 721.013L657.879 643.617L544.463 656.219ZM552.714 584.157C552.714 581.29 552.98 579.454 552.756 581.652C552.646 582.726 552.46 584.376 552.187 586.626C551.648 591.08 550.878 597.005 549.994 603.608C548.232 616.765 546.106 631.918 544.688 641.849L657.654 657.987C659.102 647.853 661.276 632.35 663.097 618.757C664.004 611.984 664.847 605.509 665.472 600.351C665.823 597.459 666.827 589.633 666.827 584.157H552.714ZM622.473 434.669C610.722 456.559 594.847 486.384 581.864 511.355C575.399 523.79 569.492 535.325 565.136 544.168C562.995 548.515 560.981 552.713 559.408 556.238C558.658 557.921 557.688 560.162 556.801 562.525C556.374 563.665 555.677 565.592 555.011 567.928C554.762 568.804 552.714 575.529 552.714 584.157H666.827C666.827 592.524 664.856 598.849 664.758 599.194C664.244 601 663.772 602.264 663.64 602.616C663.345 603.404 663.248 603.567 663.626 602.72C664.31 601.187 665.571 598.518 667.506 594.589C671.304 586.878 676.755 576.218 683.11 563.996C695.766 539.654 711.379 510.318 723.016 488.64L622.473 434.669ZM700.318 405.695C692.362 405.695 684.67 405.376 677.348 404.784L668.14 518.525C678.57 519.369 689.334 519.808 700.318 519.808V405.695ZM705.766 405.645C703.964 405.678 702.148 405.695 700.318 405.695V519.808C702.848 519.808 705.365 519.785 707.869 519.739L705.766 405.645ZM805.536 422.894C770.677 422.894 743.815 416.827 730.404 410.739L683.232 514.645C716.173 529.6 760.531 537.007 805.536 537.007V422.894ZM874.944 433.918C874.944 417.411 884.313 409.046 884.844 408.589C885.556 407.976 883.251 410.011 875.444 412.853C860.297 418.366 835.589 422.894 805.536 422.894V537.007C845.328 537.007 883.852 531.23 914.476 520.083C929.554 514.595 945.769 506.71 959.28 495.083C972.61 483.611 989.057 463.136 989.057 433.918H874.944ZM884.599 459.134C886.231 460.144 884.523 459.459 881.985 456.111C879.13 452.343 874.944 444.66 874.944 433.918H989.057C989.057 395.017 960.843 372.128 944.682 362.119L884.599 459.134ZM862.803 397.496C862.803 385.892 867.654 377.961 870.437 374.551L958.845 446.702C968.419 434.971 976.916 418.225 976.916 397.496H862.803ZM793.396 408.52C823.449 408.52 848.157 413.048 863.304 418.562C871.111 421.403 873.416 423.438 872.704 422.825C872.173 422.368 862.803 414.003 862.803 397.496H976.916C976.916 368.278 960.469 347.803 947.14 336.332C933.629 324.704 917.414 316.82 902.335 311.331C871.712 300.184 833.188 294.407 793.396 294.407V408.52ZM716.278 421.63C728.224 415.522 755.884 408.52 793.396 408.52V294.407C745.835 294.407 698.232 302.694 664.33 320.027L716.278 421.63ZM630.911 416.719C630.911 432.402 622.383 440.807 621.246 441.84C620.104 442.877 621.644 441.191 628.46 438.521C641.697 433.334 663.944 428.66 691.93 427.862L688.678 313.795C651.501 314.855 615.524 321.028 586.827 332.273C572.676 337.818 557.322 345.745 544.527 357.364C531.738 368.979 516.798 388.938 516.798 416.719H630.911ZM651.678 401.335C635.439 398.175 625.654 394.122 621.542 391.677C619.542 390.488 621.08 390.968 623.584 394.156C626.417 397.763 630.911 405.57 630.911 416.719H516.798C516.798 456.894 546.763 479.975 563.221 489.761C582.614 501.292 606.291 508.757 629.88 513.347L651.678 401.335ZM658.228 485.515C658.228 493.537 656.523 499.968 655.061 504.131C653.57 508.38 651.838 511.659 650.575 513.807C648.141 517.947 645.744 520.745 644.709 521.912C643.484 523.292 642.503 524.233 642.049 524.658C641.546 525.129 641.223 525.401 641.167 525.448C641.085 525.517 641.419 525.236 642.343 524.548C643.219 523.896 644.382 523.06 645.858 522.033C651.973 517.777 660.89 512.028 670.923 505.785L610.635 408.897C600.105 415.449 589.219 422.422 580.671 428.371C576.569 431.226 571.871 434.626 567.769 438.072C565.884 439.655 562.621 442.491 559.35 446.178C557.754 447.977 554.927 451.34 552.204 455.971C550.156 459.455 544.114 470.261 544.114 485.515H658.228ZM566.317 567.876C576.426 563.582 591.802 556.762 605.042 550.21C611.459 547.034 618.654 543.295 624.755 539.552C627.567 537.827 632.013 534.978 636.391 531.266C638.482 529.494 642.351 526.035 646.158 521.028C648.843 517.497 658.228 504.705 658.228 485.515H544.114C544.114 475.566 546.733 467.722 548.922 462.796C551.133 457.823 553.635 454.177 555.319 451.962C558.558 447.702 561.59 445.079 562.601 444.221C564.821 442.339 566.141 441.635 565.083 442.284C563.443 443.29 559.92 445.217 554.429 447.935C543.852 453.169 530.647 459.046 521.702 462.846L566.317 567.876ZM471.47 540.556L516.491 565.343L571.528 465.379L526.506 440.592L471.47 540.556ZM449.363 420.535L442.281 484.273L555.696 496.875L562.778 433.137L449.363 420.535ZM509.216 327.11L460.315 392.749L551.825 460.923L600.726 395.285L509.216 327.11ZM585.996 305.536C577 305.536 568.348 305.129 560.187 304.379L549.755 418.015C561.448 419.088 573.583 419.649 585.996 419.649V305.536ZM655.403 316.56C655.403 300.053 664.772 291.688 665.303 291.231C666.015 290.618 663.71 292.653 655.903 295.495C640.756 301.008 616.048 305.536 585.996 305.536V419.649C625.787 419.649 664.311 413.872 694.935 402.725C710.013 397.237 726.228 389.352 739.739 377.725C753.069 366.253 769.516 345.778 769.516 316.56H655.403ZM650.28 335.76C655.121 337.226 658.873 338.685 661.614 339.962C662.965 340.592 663.964 341.128 664.656 341.533C665.355 341.943 665.636 342.159 665.594 342.127C665.559 342.1 665.056 341.718 664.274 340.905C663.493 340.095 662.29 338.706 661.002 336.666C658.289 332.369 655.403 325.42 655.403 316.56H769.516C769.516 283.815 749.103 262.254 734.596 251.239C719.297 239.624 700.879 231.851 683.345 226.543L650.28 335.76ZM609.876 279.126C609.876 277.538 609.971 275.963 610.155 274.414L723.47 287.889C723.814 284.997 723.989 282.072 723.989 279.126H609.876ZM540.469 290.15C570.521 290.15 595.229 294.678 610.376 300.191C618.184 303.033 620.489 305.068 619.777 304.455C619.245 303.998 609.876 295.633 609.876 279.126H723.989C723.989 249.908 707.542 229.433 694.212 217.962C680.701 206.334 664.486 198.45 649.408 192.961C618.784 181.814 580.26 176.037 540.469 176.037V290.15ZM491.47 294.58C505.394 291.843 522.125 290.15 540.469 290.15V176.037C515.385 176.037 491.245 178.328 469.461 182.61L491.47 294.58ZM474.448 329.607L465.66 342.365L559.633 407.102L568.422 394.344L474.448 329.607ZM453.706 427.694C483.174 427.241 511.429 423.611 535.964 417.151L506.906 306.799C492.556 310.578 473.61 313.261 451.949 313.595L453.706 427.694ZM523.044 377.962L502.175 342.005L403.479 399.284L424.347 435.241L523.044 377.962ZM476.516 330.574L437.565 362.442L509.826 450.761L548.777 418.892L476.516 330.574ZM404.235 425.408C409.766 426.021 415.398 426.517 421.112 426.891L428.572 313.022C424.531 312.757 420.602 312.41 416.8 311.989L404.235 425.408ZM307.776 444.942C355.13 444.942 402.457 436.729 436.285 419.605L384.75 317.792C372.667 323.908 345.063 330.829 307.776 330.829V444.942ZM279.77 443.973C288.887 444.611 298.247 444.942 307.776 444.942V330.829C300.877 330.829 294.175 330.589 287.738 330.139L279.77 443.973ZM410.621 373.357L303.639 333.577L263.868 440.535L370.85 480.315L410.621 373.357ZM497.602 433.906L424.253 380.662L357.218 473.01L430.567 526.254L497.602 433.906ZM394.778 432.353L408.436 492.679L519.732 467.481L506.074 407.155L394.778 432.353ZM374.092 396.03L399.676 445.828L501.177 393.68L475.593 343.883L374.092 396.03Z" fill="#8C9559" mask="url(#path-1-outside-1_621_70899)"/>
</svg>
