<svg width="1000" height="1000" viewBox="0 0 1000 1000" fill="none" xmlns="http://www.w3.org/2000/svg">
<mask id="path-1-outside-1_621_70900" maskUnits="userSpaceOnUse" x="49" y="23.2764" width="903" height="954" fill="black">
<rect fill="white" x="49" y="23.2764" width="903" height="954"/>
<path fill-rule="evenodd" clip-rule="evenodd" d="M591.836 142.989C593.084 142.954 594.337 142.937 595.594 142.937C632.089 142.937 665.118 157.776 688.976 181.749C696.792 179.693 705.003 178.597 713.472 178.597C765.991 178.597 808.566 220.729 808.566 272.701C808.566 284.893 806.223 296.543 801.959 307.235C829.116 331.359 846.207 366.417 846.207 405.437C846.207 408.852 846.076 412.238 845.819 415.588C859.472 428.417 868 446.639 868 466.852C868 505.694 836.512 537.182 797.669 537.182C784.914 537.182 772.951 533.786 762.636 527.849C747.431 533.871 730.841 537.182 713.472 537.182C688.242 537.182 664.657 530.196 644.573 518.066L643.372 519.231C643.109 519.485 642.907 519.781 642.769 520.119C636.624 535.206 624.24 566.499 622.253 574.956C620.603 581.981 604.582 597.152 591.83 609.228L591.83 609.228C585.176 615.53 579.412 620.988 577.044 624.007C570.137 632.811 554.44 662.996 554.44 673.057C554.44 681.014 543.806 722.393 538.305 742.783C538.178 743.254 538.188 743.737 538.326 744.206L576.262 872.896C576.688 874.341 575.822 875.85 574.358 876.21L503.776 893.583C503.24 893.715 502.676 893.676 502.164 893.471L409.941 856.647C408.371 856.02 407.785 854.101 408.736 852.704L453.518 786.925C453.816 786.486 453.976 785.968 453.976 785.437V720.107C453.976 719.767 453.91 719.431 453.783 719.116L424.706 647.242C424.547 646.85 424.297 646.502 423.976 646.227L277.023 520.253C276.544 519.842 275.933 519.617 275.302 519.617H253.311C244.992 522.024 236.198 523.314 227.104 523.314C175.132 523.314 133 481.182 133 429.21C133 378.458 173.177 337.09 223.46 335.176C224.426 333.185 225.481 331.244 226.62 329.358C220.016 318.643 216.207 306.022 216.207 292.512C216.207 253.67 247.695 222.182 286.537 222.182C292.662 222.182 298.604 222.965 304.268 224.436C313.176 193.39 341.779 170.673 375.688 170.673C394.652 170.673 411.957 177.778 425.085 189.472C431.314 143.054 470.687 107.276 518.33 107.276C548.072 107.276 574.591 121.219 591.836 142.989ZM561.879 402.074C568.001 403.69 574.298 404.876 580.736 405.599C580.768 432.379 588.851 457.288 602.712 478.068C601.978 479.648 601.212 481.293 600.416 483L600.416 483L600.415 483.003L600.414 483.005C596.657 491.068 592.261 500.501 587.719 510.813C580.347 527.547 552.743 523.977 539.007 519.889C538.423 519.715 537.931 519.339 537.596 518.83L496.778 456.927C524.063 446.302 546.933 426.848 561.879 402.074ZM345.683 415.883C367.741 443.714 400.808 462.424 438.304 465.434C442.751 473.026 448.869 482.147 453.087 488.168C453.636 488.953 453.72 489.967 453.306 490.832L433.852 531.519C433.19 532.903 431.493 533.435 430.16 532.677L354.351 489.551C354.21 489.472 354.063 489.405 353.911 489.352L309.857 474.052C316.437 461.934 320.434 448.209 321.106 433.617C330.505 429.418 338.861 423.346 345.683 415.883Z"/>
</mask>
<path fill-rule="evenodd" clip-rule="evenodd" d="M591.836 142.989C593.084 142.954 594.337 142.937 595.594 142.937C632.089 142.937 665.118 157.776 688.976 181.749C696.792 179.693 705.003 178.597 713.472 178.597C765.991 178.597 808.566 220.729 808.566 272.701C808.566 284.893 806.223 296.543 801.959 307.235C829.116 331.359 846.207 366.417 846.207 405.437C846.207 408.852 846.076 412.238 845.819 415.588C859.472 428.417 868 446.639 868 466.852C868 505.694 836.512 537.182 797.669 537.182C784.914 537.182 772.951 533.786 762.636 527.849C747.431 533.871 730.841 537.182 713.472 537.182C688.242 537.182 664.657 530.196 644.573 518.066L643.372 519.231C643.109 519.485 642.907 519.781 642.769 520.119C636.624 535.206 624.24 566.499 622.253 574.956C620.603 581.981 604.582 597.152 591.83 609.228L591.83 609.228C585.176 615.53 579.412 620.988 577.044 624.007C570.137 632.811 554.44 662.996 554.44 673.057C554.44 681.014 543.806 722.393 538.305 742.783C538.178 743.254 538.188 743.737 538.326 744.206L576.262 872.896C576.688 874.341 575.822 875.85 574.358 876.21L503.776 893.583C503.24 893.715 502.676 893.676 502.164 893.471L409.941 856.647C408.371 856.02 407.785 854.101 408.736 852.704L453.518 786.925C453.816 786.486 453.976 785.968 453.976 785.437V720.107C453.976 719.767 453.91 719.431 453.783 719.116L424.706 647.242C424.547 646.85 424.297 646.502 423.976 646.227L277.023 520.253C276.544 519.842 275.933 519.617 275.302 519.617H253.311C244.992 522.024 236.198 523.314 227.104 523.314C175.132 523.314 133 481.182 133 429.21C133 378.458 173.177 337.09 223.46 335.176C224.426 333.185 225.481 331.244 226.62 329.358C220.016 318.643 216.207 306.022 216.207 292.512C216.207 253.67 247.695 222.182 286.537 222.182C292.662 222.182 298.604 222.965 304.268 224.436C313.176 193.39 341.779 170.673 375.688 170.673C394.652 170.673 411.957 177.778 425.085 189.472C431.314 143.054 470.687 107.276 518.33 107.276C548.072 107.276 574.591 121.219 591.836 142.989ZM561.879 402.074C568.001 403.69 574.298 404.876 580.736 405.599C580.768 432.379 588.851 457.288 602.712 478.068C601.978 479.648 601.212 481.293 600.416 483L600.416 483L600.415 483.003L600.414 483.005C596.657 491.068 592.261 500.501 587.719 510.813C580.347 527.547 552.743 523.977 539.007 519.889C538.423 519.715 537.931 519.339 537.596 518.83L496.778 456.927C524.063 446.302 546.933 426.848 561.879 402.074ZM345.683 415.883C367.741 443.714 400.808 462.424 438.304 465.434C442.751 473.026 448.869 482.147 453.087 488.168C453.636 488.953 453.72 489.967 453.306 490.832L433.852 531.519C433.19 532.903 431.493 533.435 430.16 532.677L354.351 489.551C354.21 489.472 354.063 489.405 353.911 489.352L309.857 474.052C316.437 461.934 320.434 448.209 321.106 433.617C330.505 429.418 338.861 423.346 345.683 415.883Z" fill="#1C3715"/>
<path d="M591.836 142.989L526.612 194.655L552.496 227.331L594.166 226.164L591.836 142.989ZM688.976 181.749L629.999 240.444L663.802 274.41L710.145 262.219L688.976 181.749ZM801.959 307.235L724.672 276.409L703.035 330.657L746.7 369.444L801.959 307.235ZM845.819 415.588L762.856 409.219L759.806 448.944L788.842 476.227L845.819 415.588ZM762.636 527.849L804.144 455.734L769.338 435.701L732 450.487L762.636 527.849ZM644.573 518.066L687.588 446.84L632.694 413.688L586.653 458.327L644.573 518.066ZM643.372 519.231L701.292 578.97L701.292 578.97L643.372 519.231ZM642.769 520.119L565.708 488.733L565.708 488.733L642.769 520.119ZM622.253 574.956L703.255 593.986L703.255 593.986L622.253 574.956ZM591.83 609.228L534.617 548.812L533.794 549.591L532.994 550.392L591.83 609.228ZM591.83 609.228L649.044 669.644L649.866 668.866L650.667 668.065L591.83 609.228ZM577.044 624.007L511.579 572.647L511.579 572.648L577.044 624.007ZM538.305 742.783L457.97 721.108L457.97 721.108L538.305 742.783ZM538.326 744.206L458.513 767.731L458.514 767.733L538.326 744.206ZM576.262 872.896L496.45 896.423L496.451 896.425L576.262 872.896ZM574.358 876.21L554.472 795.414L554.471 795.414L574.358 876.21ZM503.776 893.583L483.889 812.787L483.88 812.789L503.776 893.583ZM502.164 893.471L471.308 970.746L471.317 970.75L502.164 893.471ZM409.941 856.647L440.797 779.372L440.795 779.371L409.941 856.647ZM408.736 852.704L477.518 899.529L477.518 899.529L408.736 852.704ZM453.518 786.925L522.299 833.75L522.3 833.748L453.518 786.925ZM453.783 719.116L530.919 687.915L530.917 687.911L453.783 719.116ZM424.706 647.242L347.57 678.444L347.571 678.448L424.706 647.242ZM423.976 646.227L478.131 583.054L478.13 583.054L423.976 646.227ZM277.023 520.253L331.177 457.08L331.173 457.077L277.023 520.253ZM253.311 519.617V436.409H241.514L230.182 439.688L253.311 519.617ZM223.46 335.176L226.626 418.323L276.509 416.424L298.312 371.517L223.46 335.176ZM226.62 329.358L297.861 372.349L324.078 328.903L297.457 285.705L226.62 329.358ZM304.268 224.436L283.351 304.972L361.875 325.367L384.249 247.384L304.268 224.436ZM425.085 189.472L369.739 251.604L486.717 355.805L507.553 200.539L425.085 189.472ZM580.736 405.599L663.943 405.498L663.853 331.198L590.017 322.91L580.736 405.599ZM561.879 402.074L583.115 321.622L522.836 305.711L490.632 359.092L561.879 402.074ZM602.712 478.068L678.178 513.117L697.852 470.755L671.934 431.897L602.712 478.068ZM600.416 483L524.996 447.853L522.985 452.17L521.479 456.688L600.416 483ZM600.416 483L676.057 517.669L677.931 513.58L679.354 509.313L600.416 483ZM600.415 483.003L675.816 518.19L675.937 517.931L676.056 517.671L600.415 483.003ZM600.414 483.005L525.013 447.818L525.003 447.839L524.993 447.859L600.414 483.005ZM587.719 510.813L663.865 544.356L663.865 544.356L587.719 510.813ZM539.007 519.889L562.742 440.139L562.742 440.139L539.007 519.889ZM537.596 518.83L468.13 564.634L468.131 564.636L537.596 518.83ZM496.778 456.927L466.586 379.39L370.624 416.758L427.313 502.731L496.778 456.927ZM438.304 465.434L510.101 423.379L488.185 385.963L444.962 382.493L438.304 465.434ZM345.683 415.883L410.894 364.2L350.199 287.62L284.269 359.742L345.683 415.883ZM453.087 488.168L521.238 440.431L521.238 440.43L453.087 488.168ZM453.306 490.832L378.24 454.936L378.239 454.938L453.306 490.832ZM433.852 531.519L358.784 495.626L358.784 495.626L433.852 531.519ZM430.16 532.677L389.017 605.001L389.018 605.001L430.16 532.677ZM354.351 489.551L395.493 417.227L395.482 417.221L354.351 489.551ZM353.911 489.352L326.612 567.954L326.618 567.956L353.911 489.352ZM309.857 474.052L236.735 434.345L189.955 520.493L282.558 552.654L309.857 474.052ZM321.106 433.617L287.171 357.644L240.348 378.558L237.987 429.785L321.106 433.617ZM595.594 59.7292C593.56 59.7292 591.531 59.7577 589.506 59.8144L594.166 226.164C594.638 226.151 595.114 226.144 595.594 226.144V59.7292ZM747.954 123.053C709.119 84.0319 655.116 59.7292 595.594 59.7292V226.144C609.061 226.144 621.116 231.519 629.999 240.444L747.954 123.053ZM713.472 95.3896C697.8 95.3896 682.476 97.4203 667.808 101.279L710.145 262.219C711.107 261.965 712.205 261.805 713.472 261.805V95.3896ZM891.774 272.701C891.774 173.955 811.122 95.3896 713.472 95.3896V261.805C720.861 261.805 725.359 267.502 725.359 272.701H891.774ZM879.245 338.062C887.352 317.738 891.774 295.638 891.774 272.701H725.359C725.359 274.148 725.095 275.348 724.672 276.409L879.245 338.062ZM929.415 405.437C929.415 341.539 901.312 284.195 857.218 245.026L746.7 369.444C756.92 378.523 763 391.294 763 405.437H929.415ZM928.783 421.957C929.202 416.49 929.415 410.98 929.415 405.437H763C763 406.724 762.951 407.985 762.856 409.219L928.783 421.957ZM951.207 466.852C951.207 422.73 932.488 382.848 902.797 354.949L788.842 476.227C786.457 473.986 784.792 470.547 784.792 466.852H951.207ZM797.669 620.39C882.466 620.39 951.207 551.648 951.207 466.852H784.792C784.792 459.74 790.557 453.974 797.669 453.974V620.39ZM721.129 599.965C743.733 612.975 769.961 620.39 797.669 620.39V453.974C799.866 453.974 802.17 454.598 804.144 455.734L721.129 599.965ZM713.472 620.39C741.492 620.39 768.467 615.035 793.273 605.212L732 450.487C726.395 452.707 720.19 453.975 713.472 453.975V620.39ZM601.557 589.293C634.281 609.055 672.688 620.39 713.472 620.39V453.975C703.797 453.975 695.034 451.337 687.588 446.84L601.557 589.293ZM701.292 578.97L702.493 577.805L586.653 458.327L585.452 459.492L701.292 578.97ZM719.83 551.506C715.469 562.212 709.012 571.484 701.292 578.97L585.452 459.492C577.206 467.486 570.344 477.349 565.708 488.733L719.83 551.506ZM703.255 593.986C702.764 596.078 702.407 597.073 702.722 596.088C702.926 595.447 703.306 594.31 703.908 592.604C705.108 589.199 706.752 584.767 708.681 579.715C712.52 569.666 716.917 558.657 719.83 551.505L565.708 488.733C562.476 496.668 557.608 508.849 553.222 520.332C549.91 529.003 543.821 544.988 541.251 555.926L703.255 593.986ZM649.044 669.644C654.972 664.03 664.058 655.464 671.853 647.165C675.738 643.03 680.714 637.482 685.358 631.239C688.138 627.502 698.657 613.559 703.255 593.986L541.251 555.926C542.446 550.84 543.945 546.793 545.125 543.998C546.329 541.147 547.497 538.903 548.365 537.349C550.034 534.365 551.418 532.475 551.835 531.914C552.341 531.234 552.527 531.042 552.207 531.413C551.918 531.75 551.387 532.347 550.557 533.23C548.852 535.046 546.585 537.329 543.715 540.121C540.858 542.9 537.868 545.733 534.617 548.812L649.044 669.644ZM650.667 668.065L650.667 668.065L532.994 550.392L532.994 550.392L650.667 668.065ZM642.509 675.366C641.565 676.57 640.834 677.412 640.493 677.799C640.299 678.019 640.152 678.181 640.061 678.28C639.969 678.381 639.915 678.438 639.906 678.448C639.896 678.458 639.996 678.352 640.237 678.108C640.473 677.869 640.793 677.549 641.213 677.135C643.081 675.295 645.535 672.967 649.044 669.644L534.616 548.812C530.969 552.267 518.825 563.412 511.579 572.647L642.509 675.366ZM637.647 673.057C637.647 675.414 637.534 677.45 637.395 679.093C637.254 680.746 637.073 682.167 636.901 683.316C636.563 685.56 636.184 687.249 635.941 688.238C635.689 689.266 635.48 689.963 635.383 690.274C635.281 690.601 635.237 690.717 635.279 690.601C635.376 690.332 635.656 689.595 636.178 688.383C636.686 687.204 637.321 685.814 638.066 684.273C639.593 681.115 641.245 678.018 642.632 675.619C643.316 674.436 643.778 673.695 643.981 673.381C644.075 673.237 644.029 673.313 643.847 673.574C643.685 673.804 643.232 674.445 642.51 675.366L511.579 572.648C502.492 584.23 493.742 600.461 488.238 611.848C485.056 618.429 481.593 626.208 478.722 634.172C476.954 639.078 471.232 654.795 471.232 673.057H637.647ZM618.64 764.457C621.517 753.794 625.753 737.586 629.328 722.747C631.1 715.392 632.86 707.756 634.226 701.047C634.889 697.791 637.647 685.045 637.647 673.057H471.232C471.232 669.441 471.502 666.843 471.578 666.13C471.635 665.597 471.684 665.211 471.713 665.002C471.728 664.891 471.739 664.808 471.747 664.757C471.754 664.705 471.759 664.678 471.759 664.677C471.759 664.675 471.756 664.694 471.749 664.736C471.743 664.777 471.733 664.837 471.719 664.916C471.692 665.075 471.653 665.294 471.6 665.578C471.494 666.153 471.349 666.901 471.159 667.836C470.359 671.761 469.117 677.235 467.543 683.769C464.426 696.706 460.594 711.382 457.97 721.108L618.64 764.457ZM618.138 720.681C622.208 734.489 622.635 749.653 618.64 764.457L457.97 721.108C453.722 736.855 454.167 752.986 458.513 767.731L618.138 720.681ZM656.074 849.368L618.138 720.678L458.514 767.733L496.45 896.423L656.074 849.368ZM594.244 957.006C641.767 945.31 669.914 896.312 656.073 849.366L496.451 896.425C483.463 852.37 509.876 806.39 554.472 795.414L594.244 957.006ZM523.663 974.379L594.245 957.006L554.471 795.414L483.889 812.787L523.663 974.379ZM471.317 970.75C487.949 977.389 506.256 978.666 523.672 974.377L483.88 812.789C500.224 808.764 517.404 809.963 533.011 816.193L471.317 970.75ZM379.085 933.921L471.308 970.746L533.02 816.196L440.797 779.372L379.085 933.921ZM339.955 805.879C309.064 851.254 328.106 913.567 379.087 933.922L440.795 779.371C488.637 798.473 506.506 856.948 477.518 899.529L339.955 805.879ZM384.736 740.1L339.955 805.879L477.518 899.529L522.299 833.75L384.736 740.1ZM370.768 785.437C370.768 769.264 375.636 753.468 384.735 740.101L522.3 833.748C531.997 819.505 537.183 802.671 537.183 785.437H370.768ZM370.768 720.107V785.437H537.183V720.107H370.768ZM376.647 750.317C372.764 740.719 370.768 730.462 370.768 720.107H537.183C537.183 709.073 535.056 698.143 530.919 687.915L376.647 750.317ZM347.571 678.448L376.648 750.321L530.917 687.911L501.84 616.037L347.571 678.448ZM369.821 709.399C360.035 701.01 352.404 690.395 347.57 678.444L501.842 616.041C496.69 603.305 488.559 591.993 478.131 583.054L369.821 709.399ZM222.869 583.426L369.822 709.4L478.13 583.054L331.177 457.08L222.869 583.426ZM275.302 602.824C256.067 602.824 237.47 595.942 222.872 583.429L331.173 457.077C315.617 443.743 295.8 436.409 275.302 436.409V602.824ZM253.311 602.824H275.302V436.409H253.311V602.824ZM227.104 606.522C244.103 606.522 260.68 604.105 276.44 599.545L230.182 439.688C229.303 439.942 228.294 440.107 227.104 440.107V606.522ZM49.7924 429.21C49.7924 527.137 129.177 606.522 227.104 606.522V440.107C221.086 440.107 216.208 435.228 216.208 429.21H49.7924ZM220.294 252.029C125.492 255.638 49.7924 333.565 49.7924 429.21H216.208C216.208 423.352 220.861 418.543 226.626 418.323L220.294 252.029ZM155.379 286.367C152.944 290.401 150.683 294.561 148.608 298.835L298.312 371.517C298.17 371.809 298.019 372.087 297.861 372.349L155.379 286.367ZM133 292.512C133 321.876 141.324 349.549 155.782 373.011L297.457 285.705C298.709 287.736 299.415 290.169 299.415 292.512H133ZM286.537 138.974C201.741 138.974 133 207.716 133 292.512H299.415C299.415 299.624 293.649 305.39 286.537 305.39V138.974ZM325.186 143.901C312.749 140.67 299.78 138.974 286.537 138.974V305.39C285.545 305.39 284.459 305.259 283.351 304.972L325.186 143.901ZM384.249 247.384C383.194 251.061 379.878 253.88 375.688 253.88V87.4651C303.68 87.4651 243.158 135.72 224.288 201.489L384.249 247.384ZM375.688 253.88C373.467 253.88 371.261 252.96 369.739 251.604L480.43 127.34C452.653 102.597 415.838 87.4651 375.688 87.4651V253.88ZM518.33 24.0688C427.79 24.0688 354.225 91.9018 342.616 178.405L507.553 200.539C508.403 194.206 513.585 190.484 518.33 190.484V24.0688ZM657.06 91.3234C624.833 50.6402 574.752 24.0688 518.33 24.0688V190.484C521.392 190.484 524.349 191.798 526.612 194.655L657.06 91.3234ZM590.017 322.91C587.64 322.644 585.338 322.208 583.115 321.622L540.643 482.526C550.665 485.171 560.957 487.109 571.455 488.287L590.017 322.91ZM671.934 431.897C666.87 424.305 663.955 415.34 663.943 405.498L497.528 405.7C497.581 449.418 510.833 490.271 533.49 524.239L671.934 431.897ZM675.836 518.147C676.628 516.449 677.418 514.754 678.178 513.117L527.246 443.02C526.539 444.542 525.796 446.138 524.996 447.853L675.836 518.147ZM679.354 509.313L679.354 509.313L521.479 456.688L521.479 456.688L679.354 509.313ZM676.056 517.671L676.057 517.669L524.775 448.332L524.774 448.334L676.056 517.671ZM675.815 518.193L675.816 518.19L525.014 447.815L525.013 447.818L675.815 518.193ZM663.865 544.356C668.006 534.956 672.052 526.268 675.834 518.152L524.993 447.859C521.262 455.867 516.515 466.047 511.572 477.269L663.865 544.356ZM515.272 599.64C528.223 603.494 549.05 607.788 571.738 606.151C591.419 604.731 641.201 595.807 663.865 544.356L511.572 477.269C518.61 461.291 530.64 451.08 541.175 445.716C550.405 441.017 557.675 440.318 559.761 440.167C562.28 439.986 563.373 440.209 562.899 440.143C562.55 440.094 562.33 440.016 562.742 440.139L515.272 599.64ZM468.131 564.636C478.743 580.729 495.075 593.629 515.272 599.64L562.742 440.139C581.771 445.802 597.12 457.949 607.061 473.025L468.131 564.636ZM427.313 502.731L468.13 564.634L607.062 473.026L566.244 411.123L427.313 502.731ZM490.632 359.092C485.074 368.306 476.554 375.509 466.586 379.39L526.971 534.463C571.571 517.096 608.793 485.389 633.125 445.056L490.632 359.092ZM444.962 382.493C431.332 381.399 419.159 374.628 410.894 364.2L280.473 467.566C316.324 512.8 370.283 543.449 431.646 548.375L444.962 382.493ZM521.238 440.43C517.58 435.208 512.909 428.172 510.101 423.379L366.507 507.49C372.592 517.879 380.159 529.087 384.936 535.906L521.238 440.43ZM528.373 526.727C541.72 498.814 539.034 465.837 521.238 440.431L384.935 535.906C368.239 512.069 365.719 481.12 378.24 454.936L528.373 526.727ZM508.92 567.413L528.374 526.725L378.239 454.938L358.784 495.626L508.92 567.413ZM389.018 605.001C432.32 629.634 487.429 612.359 508.92 567.412L358.784 495.626C378.951 453.447 430.667 437.237 471.302 460.352L389.018 605.001ZM313.208 561.876L389.017 605.001L471.302 460.353L395.493 417.227L313.208 561.876ZM326.618 567.956C321.966 566.341 317.482 564.306 313.219 561.882L395.482 417.221C390.939 414.638 386.16 412.469 381.203 410.748L326.618 567.956ZM282.558 552.654L326.612 567.954L381.209 410.75L337.156 395.45L282.558 552.654ZM237.987 429.785C237.907 431.522 237.458 433.013 236.735 434.345L382.979 513.759C395.417 490.855 402.96 464.897 404.225 437.448L237.987 429.785ZM284.269 359.742C285.091 358.843 286.069 358.136 287.171 357.644L355.041 509.59C374.942 500.701 392.631 487.849 407.097 472.024L284.269 359.742Z" fill="#308748" mask="url(#path-1-outside-1_621_70900)"/>
</svg>
