<svg width="500" height="500" viewBox="0 0 500 500" fill="none" xmlns="http://www.w3.org/2000/svg">
<g clip-path="url(#clip0_561_11719)">
<path d="M113.111 113.117L250.626 56.1559L388.141 113.117L445.102 250.632L388.141 388.147L250.626 445.108L113.111 388.147L56.1501 250.632L113.111 113.117Z" fill="#3F4550" stroke="#373F48" stroke-width="103.75"/>
<path d="M247.241 103.045C248.218 102.697 249.284 102.697 250.261 103.045L344.437 136.614C345.429 136.968 346.266 137.659 346.801 138.566L396.856 223.472C397.402 224.4 397.598 225.493 397.407 226.553L380.03 323.067C379.841 324.117 379.284 325.066 378.46 325.744L301.726 388.801C300.921 389.462 299.912 389.824 298.871 389.824H198.631C197.59 389.824 196.581 389.462 195.776 388.801L119.042 325.744C118.217 325.066 117.661 324.117 117.472 323.067L100.095 226.553C99.9037 225.493 100.1 224.4 100.646 223.472L150.701 138.566C151.236 137.659 152.073 136.968 153.065 136.614L247.241 103.045Z" fill="#5D6678"/>
</g>
<defs>
<clipPath id="clip0_561_11719">
<rect width="500" height="500" fill="white" transform="translate(0 0.00683594)"/>
</clipPath>
</defs>
</svg>
