<svg width="500" height="500" viewBox="0 0 500 500" fill="none" xmlns="http://www.w3.org/2000/svg">
<g clip-path="url(#clip0_621_70871)">
<mask id="path-1-outside-1_621_70871" maskUnits="userSpaceOnUse" x="15.001" y="4.11865" width="470" height="506" fill="black">
<rect fill="white" x="15.001" y="4.11865" width="470" height="506"/>
<path fill-rule="evenodd" clip-rule="evenodd" d="M389.186 130.924C386.585 91.46 346.858 60.1187 298.232 60.1187C277.809 60.1187 258.956 65.6476 243.763 74.9852C234.437 72.3341 224.423 70.8943 214.001 70.8943C173.821 70.8943 139.717 92.2944 127.615 121.995C126.066 121.88 124.497 121.822 122.912 121.822C94.2423 121.822 71.001 140.897 71.001 164.428C71.001 179.936 81.0963 193.51 96.1876 200.962C95.085 205.622 94.5073 210.436 94.5073 215.361C94.5073 246.14 117.07 272.585 149.332 284.115C148.073 287.791 147.399 291.668 147.399 295.674C147.399 319.205 170.64 338.28 199.31 338.28C213.395 338.28 226.171 333.676 235.523 326.201L227.642 360.562L200.289 392.657L236.76 439.705L298.396 410.893L284.173 360.562L280.065 323.592C289.379 330.874 301.985 335.345 315.864 335.345C336.652 335.345 354.586 325.316 362.875 310.831C400.79 301.769 428.501 272.981 428.501 238.87C428.501 224.801 423.787 211.637 415.587 200.39C423.626 192.887 428.501 183.044 428.501 172.268C428.501 152.302 411.769 135.544 389.186 130.924Z"/>
</mask>
<path fill-rule="evenodd" clip-rule="evenodd" d="M389.186 130.924C386.585 91.46 346.858 60.1187 298.232 60.1187C277.809 60.1187 258.956 65.6476 243.763 74.9852C234.437 72.3341 224.423 70.8943 214.001 70.8943C173.821 70.8943 139.717 92.2944 127.615 121.995C126.066 121.88 124.497 121.822 122.912 121.822C94.2423 121.822 71.001 140.897 71.001 164.428C71.001 179.936 81.0963 193.51 96.1876 200.962C95.085 205.622 94.5073 210.436 94.5073 215.361C94.5073 246.14 117.07 272.585 149.332 284.115C148.073 287.791 147.399 291.668 147.399 295.674C147.399 319.205 170.64 338.28 199.31 338.28C213.395 338.28 226.171 333.676 235.523 326.201L227.642 360.562L200.289 392.657L236.76 439.705L298.396 410.893L284.173 360.562L280.065 323.592C289.379 330.874 301.985 335.345 315.864 335.345C336.652 335.345 354.586 325.316 362.875 310.831C400.79 301.769 428.501 272.981 428.501 238.87C428.501 224.801 423.787 211.637 415.587 200.39C423.626 192.887 428.501 183.044 428.501 172.268C428.501 152.302 411.769 135.544 389.186 130.924Z" fill="#5F6B3D"/>
<path d="M389.186 130.924L333.489 134.596L336.289 177.077L377.999 185.61L389.186 130.924ZM243.763 74.9852L228.502 128.676L252.095 135.382L272.991 122.539L243.763 74.9852ZM127.615 121.995L123.512 177.661L163.99 180.645L179.306 143.057L127.615 121.995ZM96.1876 200.962L150.505 213.815L160.735 170.584L120.902 150.914L96.1876 200.962ZM149.332 284.115L202.136 302.208L219.993 250.093L168.117 231.553L149.332 284.115ZM235.523 326.201L289.928 338.679L325.713 182.659L200.674 282.599L235.523 326.201ZM227.642 360.562L270.124 396.769L278.991 386.365L282.047 373.041L227.642 360.562ZM200.289 392.657L157.807 356.451L128.371 390.989L156.174 426.855L200.289 392.657ZM236.76 439.705L192.645 473.903L219.979 509.164L260.397 490.271L236.76 439.705ZM298.396 410.893L322.034 461.458L365.013 441.368L352.11 395.713L298.396 410.893ZM284.173 360.562L228.696 366.726L229.205 371.307L230.459 375.742L284.173 360.562ZM280.065 323.592L314.445 279.619L209.939 197.912L224.589 329.756L280.065 323.592ZM362.875 310.831L349.9 256.543L326.421 262.154L314.43 283.106L362.875 310.831ZM415.587 200.39L377.5 159.586L341.358 193.321L370.483 233.272L415.587 200.39ZM298.232 115.936C310.742 115.936 320.579 119.998 326.593 124.699C332.573 129.374 333.402 133.272 333.489 134.596L444.883 127.253C439.78 49.8354 366.764 4.3009 298.232 4.3009V115.936ZM272.991 122.539C279.114 118.776 287.797 115.936 298.232 115.936V4.3009C267.821 4.3009 238.797 12.5196 214.536 27.4315L272.991 122.539ZM214.001 126.712C219.285 126.712 224.162 127.442 228.502 128.676L259.025 21.2943C244.711 17.2258 229.561 15.0765 214.001 15.0765V126.712ZM179.306 143.057C181.208 138.389 191.84 126.712 214.001 126.712V15.0765C155.801 15.0765 98.2251 46.1998 75.9234 100.932L179.306 143.057ZM122.912 177.64C123.128 177.64 123.328 177.648 123.512 177.661L131.717 66.3277C128.803 66.113 125.866 66.0043 122.912 66.0043V177.64ZM126.819 164.428C126.819 172.078 122.895 176.399 121.618 177.447C120.456 178.4 120.731 177.64 122.912 177.64V66.0043C74.233 66.0043 15.1832 100.265 15.1832 164.428H126.819ZM120.902 150.914C120.932 150.928 121.211 151.069 121.665 151.448C122.119 151.827 122.816 152.503 123.574 153.58C125.188 155.873 126.819 159.678 126.819 164.428H15.1832C15.1832 205.976 42.0546 236.483 71.4728 251.01L120.902 150.914ZM150.325 215.361C150.325 214.824 150.385 214.322 150.505 213.815L41.8698 188.109C39.7846 196.921 38.6896 206.047 38.6896 215.361H150.325ZM168.117 231.553C160.655 228.887 155.77 224.991 153.134 221.748C150.664 218.71 150.325 216.589 150.325 215.361H38.6896C38.6896 275.676 82.2545 319.418 130.547 336.677L168.117 231.553ZM203.217 295.674C203.217 297.992 202.817 300.222 202.136 302.208L96.5279 266.023C93.3285 275.36 91.5812 285.344 91.5812 295.674H203.217ZM199.31 282.463C197.129 282.463 196.854 281.702 198.016 282.655C199.293 283.704 203.217 288.024 203.217 295.674H91.5812C91.5812 359.837 150.631 394.098 199.31 394.098V282.463ZM200.674 282.599C201.281 282.113 201.51 282.099 201.196 282.206C200.912 282.303 200.279 282.463 199.31 282.463V394.098C225.351 394.098 250.585 385.618 270.373 369.803L200.674 282.599ZM282.047 373.041L289.928 338.679L181.118 313.722L173.237 348.084L282.047 373.041ZM242.771 428.863L270.124 396.769L185.16 324.356L157.807 356.451L242.771 428.863ZM280.875 405.507L244.404 358.459L156.174 426.855L192.645 473.903L280.875 405.507ZM274.759 360.327L213.123 389.139L260.397 490.271L322.034 461.458L274.759 360.327ZM230.459 375.742L244.683 426.073L352.11 395.713L337.887 345.382L230.459 375.742ZM224.589 329.756L228.696 366.726L339.649 354.398L335.541 317.428L224.589 329.756ZM315.864 279.527C314.91 279.527 314.281 279.372 313.989 279.274C313.671 279.168 313.873 279.172 314.445 279.619L245.685 367.565C265.331 382.925 290.195 391.162 315.864 391.162V279.527ZM314.43 283.106C316.12 280.153 317.804 279.261 317.846 279.239C317.987 279.163 317.334 279.527 315.864 279.527V391.162C353.415 391.162 391.571 373.066 411.321 338.556L314.43 283.106ZM372.683 238.87C372.683 240.144 372.3 242.704 368.96 246.31C365.432 250.117 359.073 254.35 349.9 256.543L375.851 365.12C431.232 351.883 484.319 305.929 484.319 238.87H372.683ZM370.483 233.272C372.378 235.871 372.683 237.689 372.683 238.87H484.319C484.319 211.913 475.196 187.403 460.692 167.508L370.483 233.272ZM372.683 172.268C372.683 165.355 375.96 161.023 377.5 159.586L453.674 241.195C471.292 224.75 484.319 200.734 484.319 172.268H372.683ZM377.999 185.61C379.194 185.854 378.613 186.122 377.139 184.594C375.476 182.87 372.683 178.598 372.683 172.268H484.319C484.319 118.237 440.744 84.4979 400.373 76.2393L377.999 185.61Z" fill="#8C9559" mask="url(#path-1-outside-1_621_70871)"/>
</g>
<defs>
<clipPath id="clip0_621_70871">
<rect width="500" height="500" fill="white" transform="translate(0 0.00683594)"/>
</clipPath>
</defs>
</svg>
