<svg width="1000" height="1000" viewBox="0 0 1000 1000" fill="none" xmlns="http://www.w3.org/2000/svg">
<mask id="path-1-outside-1_621_70901" maskUnits="userSpaceOnUse" x="118.595" y="26.9766" width="762" height="945" fill="black">
<rect fill="white" x="118.595" y="26.9766" width="762" height="945"/>
<path d="M413.034 869.073L446.651 795.351C446.734 795.168 446.795 794.977 446.831 794.78L461.233 716.434C461.576 714.569 459.752 713.044 457.977 713.711L334.031 760.339L256.741 791.146C254.337 792.105 252.293 789.15 254.038 787.238L357.592 673.822C359.121 672.147 357.734 669.474 355.484 669.76L199.072 689.657C196.567 689.976 195.29 686.744 197.336 685.264L403.548 536.113C405.64 534.6 404.28 531.298 401.736 531.734C350.107 540.587 269.192 554.755 250.25 559.12C248.738 559.987 247.601 560.444 246.882 560.444C245.237 560.444 246.581 559.966 250.25 559.12C270.437 547.544 357.376 462.766 406.075 414.061C407.805 412.33 406.167 409.442 403.783 409.993L299.26 434.154C296.857 434.71 295.243 431.754 297.01 430.033L425.333 305.058C427.046 303.39 425.601 300.561 423.257 301.033C380.199 309.705 321.164 331.645 334.031 323.373C347.241 314.881 411.928 242.928 457.513 199.63C459.117 198.106 458.052 195.425 455.841 195.493C419.535 196.606 362.539 206.328 370.597 195.392C377.741 185.696 460.615 135.659 499.626 105.073C500.469 104.412 501.619 104.391 502.501 104.998L625.778 189.822C627.872 191.263 626.638 194.546 624.113 194.251L547.851 185.337C545.47 185.059 544.159 188.024 545.967 189.597L693.046 317.59C694.912 319.213 693.453 322.262 691.018 321.829L575.115 301.188C572.665 300.752 571.213 303.837 573.111 305.447L717.822 428.233C719.854 429.957 718.043 433.224 715.504 432.414L610.184 398.812C607.671 398.01 605.852 401.216 607.83 402.962L778.966 554.03C780.866 555.707 779.263 558.809 776.796 558.231L609.263 518.94C606.754 518.351 605.167 521.55 607.153 523.192L802.389 684.572C804.351 686.193 802.827 689.359 800.336 688.836L627.284 652.551C625.098 652.093 623.498 654.57 624.814 656.374L734.148 806.223C735.71 808.363 733.216 811.107 730.936 809.757L569.906 714.373C568.281 713.41 566.226 714.582 566.226 716.47V794.661C566.226 794.936 566.272 795.209 566.363 795.468L590.156 863.277C590.434 864.07 590.284 864.951 589.759 865.607L566.958 894.109C566.495 894.687 565.795 895.024 565.054 895.024H462.563C462.2 895.024 461.843 894.943 461.516 894.787L414.205 872.286C413.003 871.714 412.482 870.284 413.034 869.073Z"/>
</mask>
<path d="M413.034 869.073L446.651 795.351C446.734 795.168 446.795 794.977 446.831 794.78L461.233 716.434C461.576 714.569 459.752 713.044 457.977 713.711L334.031 760.339L256.741 791.146C254.337 792.105 252.293 789.15 254.038 787.238L357.592 673.822C359.121 672.147 357.734 669.474 355.484 669.76L199.072 689.657C196.567 689.976 195.29 686.744 197.336 685.264L403.548 536.113C405.64 534.6 404.28 531.298 401.736 531.734C350.107 540.587 269.192 554.755 250.25 559.12C248.738 559.987 247.601 560.444 246.882 560.444C245.237 560.444 246.581 559.966 250.25 559.12C270.437 547.544 357.376 462.766 406.075 414.061C407.805 412.33 406.167 409.442 403.783 409.993L299.26 434.154C296.857 434.71 295.243 431.754 297.01 430.033L425.333 305.058C427.046 303.39 425.601 300.561 423.257 301.033C380.199 309.705 321.164 331.645 334.031 323.373C347.241 314.881 411.928 242.928 457.513 199.63C459.117 198.106 458.052 195.425 455.841 195.493C419.535 196.606 362.539 206.328 370.597 195.392C377.741 185.696 460.615 135.659 499.626 105.073C500.469 104.412 501.619 104.391 502.501 104.998L625.778 189.822C627.872 191.263 626.638 194.546 624.113 194.251L547.851 185.337C545.47 185.059 544.159 188.024 545.967 189.597L693.046 317.59C694.912 319.213 693.453 322.262 691.018 321.829L575.115 301.188C572.665 300.752 571.213 303.837 573.111 305.447L717.822 428.233C719.854 429.957 718.043 433.224 715.504 432.414L610.184 398.812C607.671 398.01 605.852 401.216 607.83 402.962L778.966 554.03C780.866 555.707 779.263 558.809 776.796 558.231L609.263 518.94C606.754 518.351 605.167 521.55 607.153 523.192L802.389 684.572C804.351 686.193 802.827 689.359 800.336 688.836L627.284 652.551C625.098 652.093 623.498 654.57 624.814 656.374L734.148 806.223C735.71 808.363 733.216 811.107 730.936 809.757L569.906 714.373C568.281 713.41 566.226 714.582 566.226 716.47V794.661C566.226 794.936 566.272 795.209 566.363 795.468L590.156 863.277C590.434 864.07 590.284 864.951 589.759 865.607L566.958 894.109C566.495 894.687 565.795 895.024 565.054 895.024H462.563C462.2 895.024 461.843 894.943 461.516 894.787L414.205 872.286C413.003 871.714 412.482 870.284 413.034 869.073Z" fill="#1C3715"/>
<path d="M413.034 869.073L482.847 900.909L482.848 900.908L413.034 869.073ZM446.651 795.351L516.465 827.186L516.467 827.182L446.651 795.351ZM446.831 794.78L371.366 780.908L371.366 780.908L446.831 794.78ZM461.233 716.434L536.698 730.306L536.698 730.305L461.233 716.434ZM457.977 713.711L430.961 641.895L430.96 641.895L457.977 713.711ZM334.031 760.339L307.014 688.522L306.315 688.786L305.62 689.062L334.031 760.339ZM256.741 791.146L228.33 719.87L228.33 719.87L256.741 791.146ZM254.038 787.238L310.702 838.975L310.702 838.975L254.038 787.238ZM357.592 673.822L414.256 725.559L414.256 725.559L357.592 673.822ZM355.484 669.76L345.801 593.644L345.801 593.644L355.484 669.76ZM199.072 689.657L189.39 613.541L189.389 613.541L199.072 689.657ZM197.336 685.264L242.304 747.436L242.304 747.436L197.336 685.264ZM403.548 536.113L358.581 473.941L358.58 473.941L403.548 536.113ZM401.736 531.734L414.703 607.361L414.704 607.36L401.736 531.734ZM406.075 414.061L351.816 359.808L351.815 359.808L406.075 414.061ZM403.783 409.993L421.063 484.752L421.064 484.752L403.783 409.993ZM299.26 434.154L281.979 359.396L281.979 359.396L299.26 434.154ZM297.01 430.033L243.476 375.064L243.475 375.065L297.01 430.033ZM425.333 305.058L478.867 360.026L478.867 360.026L425.333 305.058ZM423.257 301.033L438.406 376.253L438.406 376.253L423.257 301.033ZM334.031 323.373L375.523 387.917L375.523 387.917L334.031 323.373ZM457.513 199.63L510.355 255.263L510.356 255.263L457.513 199.63ZM455.841 195.493L453.489 118.799L453.489 118.799L455.841 195.493ZM370.597 195.392L308.825 149.876L308.825 149.876L370.597 195.392ZM499.626 105.073L546.969 165.456L546.97 165.455L499.626 105.073ZM502.501 104.998L459.007 168.21L459.007 168.21L502.501 104.998ZM625.778 189.822L582.283 253.033L582.283 253.033L625.778 189.822ZM624.113 194.251L615.205 270.462L615.205 270.462L624.113 194.251ZM547.851 185.337L538.943 261.548L538.943 261.548L547.851 185.337ZM545.967 189.597L495.597 247.479L495.597 247.479L545.967 189.597ZM693.046 317.59L743.417 259.708L743.417 259.708L693.046 317.59ZM691.018 321.829L677.566 397.37L677.566 397.37L691.018 321.829ZM575.115 301.188L561.663 376.73L561.663 376.73L575.115 301.188ZM573.111 305.447L523.468 363.954L523.468 363.954L573.111 305.447ZM717.822 428.233L767.465 369.726L767.465 369.726L717.822 428.233ZM715.504 432.414L692.182 505.513L692.183 505.514L715.504 432.414ZM610.184 398.812L586.862 471.911L586.862 471.911L610.184 398.812ZM607.83 402.962L658.608 345.438L658.608 345.438L607.83 402.962ZM778.966 554.03L728.188 611.554L728.188 611.554L778.966 554.03ZM776.796 558.231L759.276 632.934L759.277 632.934L776.796 558.231ZM609.263 518.94L626.783 444.237L626.782 444.237L609.263 518.94ZM607.153 523.192L558.268 582.333L558.268 582.333L607.153 523.192ZM802.389 684.572L851.275 625.431L851.274 625.431L802.389 684.572ZM800.336 688.836L784.589 763.933L784.591 763.933L800.336 688.836ZM627.284 652.551L611.537 727.648L611.537 727.648L627.284 652.551ZM624.814 656.374L562.829 701.6L562.829 701.6L624.814 656.374ZM734.148 806.223L796.133 760.997L796.132 760.997L734.148 806.223ZM730.936 809.757L691.832 875.774L691.832 875.774L730.936 809.757ZM569.906 714.373L609.01 648.356L609.009 648.355L569.906 714.373ZM566.363 795.468L638.766 770.064L638.765 770.062L566.363 795.468ZM590.156 863.277L517.754 888.681L517.754 888.682L590.156 863.277ZM589.759 865.607L649.675 913.54L649.677 913.537L589.759 865.607ZM566.958 894.109L626.873 942.043L626.874 942.042L566.958 894.109ZM461.516 894.787L428.56 964.079L428.56 964.08L461.516 894.787ZM414.205 872.286L447.161 802.994L447.16 802.994L414.205 872.286ZM482.848 900.908L516.465 827.186L376.838 763.515L343.22 837.238L482.848 900.908ZM522.296 808.652L536.698 730.306L385.768 702.561L371.366 780.908L522.296 808.652ZM430.96 641.895L307.014 688.522L361.047 832.155L484.994 785.527L430.96 641.895ZM305.62 689.062L228.33 719.87L285.152 862.422L362.442 831.615L305.62 689.062ZM310.702 838.975L414.256 725.559L300.928 622.086L197.374 735.502L310.702 838.975ZM345.801 593.644L189.39 613.541L208.755 765.774L365.167 745.877L345.801 593.644ZM242.304 747.436L448.517 598.285L358.58 473.941L152.368 623.092L242.304 747.436ZM388.769 456.108C338.652 464.701 254.698 479.354 233.019 484.35L267.481 633.89C283.686 630.156 361.562 616.472 414.703 607.361L388.769 456.108ZM233.019 484.35C232.283 484.52 225.64 485.956 219.178 488.427C218.165 488.814 210.961 491.452 203.064 496.83C200.283 498.724 187.901 507.076 178.96 523.335C173.793 532.731 168.49 547.173 169.607 565.103C170.764 583.677 178.361 598.733 187.084 609.274C201.628 626.85 219.427 632.367 222.869 633.469C229.088 635.46 234.205 636.212 236.539 636.515C241.495 637.157 245.474 637.173 246.882 637.173V483.714C247.878 483.714 251.539 483.715 256.268 484.328C258.489 484.616 263.515 485.35 269.666 487.319C273.039 488.399 290.792 493.891 305.312 511.438C314.023 521.964 321.614 537.005 322.77 555.562C323.886 573.476 318.587 587.901 313.43 597.279C304.509 613.502 292.168 621.814 289.45 623.666C281.679 628.958 274.687 631.497 273.968 631.772C268.684 633.792 264.547 634.566 267.481 633.89L233.019 484.35ZM246.882 637.173C261.469 637.173 272.486 633.04 276.457 631.471C281.66 629.416 285.816 627.176 288.42 625.682L212.08 492.558C213.172 491.932 216.003 490.353 220.08 488.743C222.189 487.91 225.355 486.779 229.347 485.807C233.178 484.874 239.274 483.714 246.882 483.714V637.173ZM288.419 625.683C301.423 618.226 316.542 605.183 326.946 596.03C339.708 584.804 354.756 570.877 370.223 556.233C401.249 526.859 435.69 492.961 460.335 468.313L351.815 359.808C327.761 383.866 294.383 416.709 264.718 444.795C249.84 458.881 236.324 471.363 225.585 480.81C212.489 492.331 209.171 494.227 212.08 492.558L288.419 625.683ZM386.502 335.235L281.979 359.396L316.541 508.913L421.063 484.752L386.502 335.235ZM350.544 485.001L478.867 360.026L371.798 250.089L243.476 375.064L350.544 485.001ZM408.108 225.814C382.454 230.98 353.347 239.77 335.714 245.036C331.003 246.443 327.173 247.585 324.004 248.498C322.446 248.947 321.225 249.29 320.285 249.544C319.293 249.813 318.926 249.899 319.005 249.88C319.064 249.867 319.419 249.784 319.999 249.668C320.525 249.564 321.672 249.344 323.239 249.127C324.555 248.944 327.691 248.542 331.82 248.482C333.995 248.451 345.594 248.152 359.303 253.284C366.77 256.079 379.96 262.359 391.341 276.084C404.199 291.592 409.824 310.71 408.858 328.987C407.354 357.472 390.586 374.681 389.326 376.072C384.878 380.986 380.841 384.102 379.447 385.161C377.61 386.557 376.17 387.501 375.523 387.917L292.539 258.83C291.64 259.408 283.311 264.518 275.553 273.089C274.029 274.773 257.127 292.219 255.613 320.891C254.642 339.262 260.293 358.46 273.208 374.036C284.645 387.829 297.922 394.166 305.506 397.004C319.449 402.224 331.4 401.964 334.041 401.926C338.636 401.859 342.352 401.405 344.356 401.126C348.478 400.554 352.022 399.76 353.973 399.303C361.225 397.606 371.59 394.479 379.63 392.078C399.062 386.274 421.001 379.758 438.406 376.253L408.108 225.814ZM375.523 387.917C383.291 382.923 390.032 376.778 393.136 373.93C397.403 370.015 402.052 365.482 406.687 360.857C415.981 351.582 427.288 339.854 438.941 327.736C462.981 302.733 489.127 275.427 510.355 255.263L404.67 143.996C380.313 167.131 351.323 197.45 328.322 221.372C316.453 233.715 306.262 244.274 298.288 252.232C294.289 256.223 291.361 259.043 289.383 260.858C286.244 263.739 288.074 261.7 292.539 258.83L375.523 387.917ZM453.489 118.799C434.468 119.383 402.378 122.664 391.405 123.406C381.793 124.056 381.428 123.594 385.115 124.064C386.586 124.252 390.456 124.803 395.522 126.407C399.686 127.726 410.845 131.621 422.015 141.755C435.494 153.985 447.304 174.2 446.521 199.575C445.862 220.912 436.478 235.331 432.369 240.908L308.825 149.876C303.709 156.819 293.826 172.445 293.134 194.84C292.318 221.274 304.562 242.4 318.899 255.408C330.928 266.321 343.369 270.862 349.198 272.708C355.93 274.84 361.848 275.8 365.707 276.292C378.95 277.98 393.592 277.068 401.76 276.516C426.347 274.853 440.908 272.717 458.193 272.187L453.489 118.799ZM432.369 240.908C426 249.552 419.507 253.813 423.729 250.526C425.157 249.414 427.836 247.449 432.124 244.464C440.623 238.547 452.045 230.97 465.533 222.036C490.919 205.221 524.469 183.097 546.969 165.456L452.284 44.6896C435.772 57.6352 408.38 75.8223 380.791 94.0963C367.791 102.707 354.716 111.369 344.447 118.517C339.352 122.064 334.08 125.838 329.456 129.437C327.626 130.862 316.98 138.808 308.825 149.876L432.369 240.908ZM459.007 168.21L582.283 253.033L669.272 126.61L545.996 41.7869L459.007 168.21ZM633.021 118.04L556.758 109.126L538.943 261.548L615.205 270.462L633.021 118.04ZM495.597 247.479L642.676 375.471L743.417 259.708L596.338 131.716L495.597 247.479ZM704.471 246.287L588.568 225.647L561.663 376.73L677.566 397.37L704.471 246.287ZM523.468 363.954L668.18 486.74L767.465 369.726L622.753 246.94L523.468 363.954ZM738.826 359.314L633.506 325.712L586.862 471.911L692.182 505.513L738.826 359.314ZM557.052 460.486L728.188 611.554L829.745 496.506L658.608 345.438L557.052 460.486ZM794.316 483.528L626.783 444.237L591.743 593.642L759.276 632.934L794.316 483.528ZM558.268 582.333L753.504 743.713L851.274 625.431L656.039 464.051L558.268 582.333ZM816.082 613.74L643.03 577.455L611.537 727.648L784.589 763.933L816.082 613.74ZM562.829 701.6L672.163 851.448L796.132 760.997L686.799 611.148L562.829 701.6ZM770.041 743.739L609.01 648.356L530.802 780.39L691.832 875.774L770.041 743.739ZM489.496 716.47V794.661H642.956V716.47H489.496ZM493.961 820.872L517.754 888.681L662.558 837.873L638.766 770.064L493.961 820.872ZM529.843 817.674L507.042 846.176L626.874 942.042L649.675 913.54L529.843 817.674ZM565.054 818.294H462.563V971.753H565.054V818.294ZM494.471 825.496L447.161 802.994L381.249 941.578L428.56 964.079L494.471 825.496ZM462.563 818.294C473.597 818.294 484.498 820.752 494.471 825.495L428.56 964.08C439.188 969.134 450.804 971.753 462.563 971.753V818.294ZM507.043 846.175C521.142 828.552 542.486 818.294 565.054 818.294V971.753C589.103 971.753 611.849 960.822 626.873 942.043L507.043 846.175ZM517.754 888.682C509.272 864.509 513.843 837.676 529.841 817.677L649.677 913.537C666.725 892.226 671.597 863.631 662.558 837.872L517.754 888.682ZM489.496 794.661C489.496 803.585 491.005 812.448 493.962 820.874L638.765 770.062C641.54 777.97 642.956 786.287 642.956 794.661H489.496ZM609.009 648.355C556.237 617.097 489.496 655.133 489.496 716.47H642.956C642.956 774.031 580.325 809.724 530.803 780.391L609.009 648.355ZM672.163 851.448C624.566 786.212 700.558 702.583 770.041 743.739L691.832 875.774C765.874 919.632 846.854 830.515 796.133 760.997L672.163 851.448ZM728.188 611.554C670.289 560.446 719.132 465.896 794.316 483.528L759.277 632.934C839.395 651.723 891.442 550.968 829.744 496.505L728.188 611.554ZM633.507 325.712C551.884 299.671 492.82 403.787 557.052 460.486L658.608 345.438C718.884 398.645 663.457 496.349 586.862 471.911L633.507 325.712ZM668.18 486.74C606.26 434.201 661.46 334.632 738.826 359.314L692.183 505.514C774.625 531.816 833.449 425.712 767.465 369.726L668.18 486.74ZM588.568 225.647C508.98 211.474 461.831 311.655 523.468 363.954L622.753 246.94C680.595 296.018 636.35 390.03 561.663 376.73L588.568 225.647ZM642.676 375.471C585.819 325.993 630.271 233.074 704.471 246.287L677.566 397.37C756.636 411.451 804.004 312.434 743.417 259.708L642.676 375.471ZM556.758 109.126C479.436 100.089 436.871 196.374 495.597 247.479L596.338 131.716C651.447 179.674 611.503 270.029 538.943 261.548L556.758 109.126ZM582.283 253.033C518.449 209.11 556.059 109.045 633.02 118.04L615.205 270.462C697.217 280.048 737.296 173.415 669.272 126.61L582.283 253.033ZM546.97 165.455C520.658 186.085 484.971 186.076 459.007 168.21L545.996 41.7873C518.267 22.7069 480.281 22.7383 452.283 44.6901L546.97 165.455ZM281.979 359.396C355.218 342.466 404.393 432.556 350.545 485.001L243.475 375.065C186.093 430.951 238.495 526.954 316.541 508.913L281.979 359.396ZM460.335 468.313C518.705 409.936 461.073 317.997 386.501 335.235L421.064 484.752C351.26 500.888 296.906 414.724 351.816 359.808L460.335 468.313ZM448.516 598.285C514.148 550.815 474.221 441.456 388.769 456.108L414.704 607.36C334.339 621.14 297.132 518.386 358.581 473.941L448.516 598.285ZM189.389 613.541C265.73 603.829 304.657 702.336 242.304 747.436L152.368 623.092C85.9227 671.151 127.404 776.123 208.755 765.774L189.389 613.541ZM228.33 719.87C301.607 690.662 363.893 780.719 310.702 838.975L197.375 735.501C140.693 797.58 207.067 893.548 285.152 862.422L228.33 719.87ZM510.356 255.263C560.227 207.894 530.005 116.453 453.489 118.799L458.193 272.187C386.1 274.398 358.007 188.319 404.67 143.996L510.356 255.263ZM643.03 577.455C572.055 562.573 520.086 643.017 562.829 701.6L686.799 611.149C726.91 666.123 678.141 741.614 611.537 727.648L643.03 577.455ZM536.698 730.305C547.831 669.743 488.596 620.214 430.961 641.895L484.993 785.528C430.907 805.874 375.321 759.395 385.767 702.562L536.698 730.305ZM753.503 743.713C693.709 694.286 740.159 597.822 816.081 613.74L784.591 763.933C865.495 780.896 914.993 678.1 851.275 625.431L753.503 743.713ZM516.467 827.182C519.162 821.27 521.121 815.047 522.296 808.652L371.366 780.908C372.469 774.907 374.307 769.067 376.836 763.519L516.467 827.182ZM414.256 725.559C463.928 671.155 418.883 584.348 345.801 593.644L365.167 745.877C296.586 754.601 254.315 673.139 300.928 622.086L414.256 725.559ZM478.867 360.026C532.562 307.732 489.286 209.464 408.108 225.814L438.406 376.253C361.915 391.658 321.529 299.048 371.798 250.089L478.867 360.026ZM626.782 444.237C545.316 425.131 493.768 529.018 558.268 582.333L656.039 464.051C716.566 514.083 668.193 611.571 591.744 593.642L626.782 444.237ZM343.22 837.237C325.286 876.567 342.213 923.013 381.25 941.579L447.16 802.994C483.793 820.416 499.678 864.001 482.847 900.909L343.22 837.237Z" fill="#308748" mask="url(#path-1-outside-1_621_70901)"/>
</svg>
