<svg width="1000" height="1000" viewBox="0 0 1000 1000" fill="none" xmlns="http://www.w3.org/2000/svg">
<g clip-path="url(#clip0_561_11736)">
<mask id="path-1-outside-1_561_11736" maskUnits="userSpaceOnUse" x="-133.727" y="-81.2981" width="1225.04" height="1202.41" fill="black">
<rect fill="white" x="-133.727" y="-81.2981" width="1225.04" height="1202.41"/>
<path fill-rule="evenodd" clip-rule="evenodd" d="M441.559 182.779C431.227 174.676 422.122 167.535 417.403 163.979C416.663 163.42 416.249 162.532 416.303 161.606L418.365 126.557C418.524 123.843 415.066 122.571 413.43 124.742L379.06 170.333C378.848 170.615 378.692 170.935 378.601 171.276L371.813 196.606C371.262 198.663 368.682 199.338 367.195 197.814L338.293 168.197C337.228 167.106 335.482 167.088 334.392 168.155C325.214 177.142 309.324 192.019 306.236 192.204C303.182 192.388 279.955 181.105 265.977 174.066C264.284 173.214 262.259 174.288 262.012 176.167L255.932 222.322L248.628 249.582C248.504 250.044 248.262 250.465 247.925 250.805L227.155 271.761C226.461 272.461 225.445 272.736 224.493 272.48L204.241 267.054C203.544 266.867 202.801 266.962 202.173 267.318L142.198 301.383C140.673 302.25 140.34 304.304 141.512 305.608L186.574 355.73C187.028 356.234 187.278 356.888 187.278 357.566L187.278 393.931C187.278 394.447 187.132 394.953 186.86 395.391C127.128 491.389 124.738 608.689 198.087 735.733C286.567 888.985 483.045 929.072 668.093 822.234C853.141 715.396 922.58 492.953 834.1 339.701C746.321 187.665 608.718 156.626 465.244 199.817C464.389 200.074 463.456 199.906 462.752 199.358C455.76 193.916 448.391 188.137 441.559 182.779Z"/>
</mask>
<path fill-rule="evenodd" clip-rule="evenodd" d="M441.559 182.779C431.227 174.676 422.122 167.535 417.403 163.979C416.663 163.42 416.249 162.532 416.303 161.606L418.365 126.557C418.524 123.843 415.066 122.571 413.43 124.742L379.06 170.333C378.848 170.615 378.692 170.935 378.601 171.276L371.813 196.606C371.262 198.663 368.682 199.338 367.195 197.814L338.293 168.197C337.228 167.106 335.482 167.088 334.392 168.155C325.214 177.142 309.324 192.019 306.236 192.204C303.182 192.388 279.955 181.105 265.977 174.066C264.284 173.214 262.259 174.288 262.012 176.167L255.932 222.322L248.628 249.582C248.504 250.044 248.262 250.465 247.925 250.805L227.155 271.761C226.461 272.461 225.445 272.736 224.493 272.48L204.241 267.054C203.544 266.867 202.801 266.962 202.173 267.318L142.198 301.383C140.673 302.25 140.34 304.304 141.512 305.608L186.574 355.73C187.028 356.234 187.278 356.888 187.278 357.566L187.278 393.931C187.278 394.447 187.132 394.953 186.86 395.391C127.128 491.389 124.738 608.689 198.087 735.733C286.567 888.985 483.045 929.072 668.093 822.234C853.141 715.396 922.58 492.953 834.1 339.701C746.321 187.665 608.718 156.626 465.244 199.817C464.389 200.074 463.456 199.906 462.752 199.358C455.76 193.916 448.391 188.137 441.559 182.779Z" fill="#6A95C8"/>
<path d="M441.559 182.779L515.613 88.3543L515.613 88.3543L441.559 182.779ZM255.932 222.322L374.904 237.994L373.878 245.787L371.843 253.38L255.932 222.322ZM198.087 735.733L302.01 675.733L198.087 735.733ZM834.1 339.701L730.177 399.701L730.177 399.701L834.1 339.701ZM465.244 199.817L430.653 84.9106L465.244 199.817ZM462.752 199.358L389.048 294.056L389.048 294.056L462.752 199.358ZM187.278 393.931L67.2783 393.931L187.278 393.931ZM186.86 395.391L84.9729 331.995L186.86 395.391ZM142.198 301.383L201.464 405.727L142.198 301.383ZM141.512 305.608L230.75 225.38L141.512 305.608ZM227.155 271.761L141.925 187.287L227.155 271.761ZM224.493 272.48L193.435 388.392L224.493 272.48ZM247.925 250.805L333.155 335.279L247.925 250.805ZM265.977 174.066L212.006 281.245L265.977 174.066ZM262.012 176.167L143.04 160.495L262.012 176.167ZM367.195 197.814L453.078 114.004L367.195 197.814ZM379.06 170.333L283.238 98.0967L379.06 170.333ZM186.574 355.73L97.3362 435.958L186.574 355.73ZM187.278 357.566L307.278 357.566L187.278 357.566ZM418.365 126.557L538.158 133.603L418.365 126.557ZM413.43 124.742L509.252 196.979L413.43 124.742ZM338.293 168.197L424.176 84.3871L338.293 168.197ZM204.241 267.054L173.182 382.965L204.241 267.054ZM202.173 267.318L142.908 162.975L202.173 267.318ZM417.403 163.979L345.177 259.808L417.403 163.979ZM416.303 161.606L536.096 168.653L416.303 161.606ZM489.63 68.1488C495.528 72.5939 505.86 80.7053 515.613 88.3543L367.506 277.204C356.594 268.646 348.717 262.476 345.177 259.808L489.63 68.1488ZM538.158 133.603L536.096 168.653L296.51 154.56L298.572 119.51L538.158 133.603ZM283.238 98.0967L317.608 52.5055L509.252 196.979L474.882 242.57L283.238 98.0967ZM255.902 165.548L262.69 140.218L494.512 202.334L487.724 227.665L255.902 165.548ZM424.176 84.3871L453.078 114.004L281.312 281.624L252.41 252.008L424.176 84.3871ZM299.046 72.42C288.38 73.0602 279.803 75.0218 274.206 76.5893C268.399 78.2151 263.703 80.0132 260.406 81.4008C254.017 84.0902 249.295 86.7648 246.899 88.1809C242.084 91.0265 238.927 93.4203 238.332 93.87C236.759 95.0576 236.648 95.2563 238.564 93.5632C241.937 90.5826 246.592 86.1786 250.434 82.4166L418.35 253.893C413.014 259.118 405.136 266.646 397.497 273.397C393.907 276.57 388.671 281.085 382.964 285.394C380.301 287.405 375.324 291.062 369.013 294.792C365.869 296.65 360.48 299.672 353.514 302.604C348.116 304.876 333.355 310.793 313.426 311.989L299.046 72.42ZM319.948 66.8883C326.361 70.1178 334.378 74.0562 340.658 76.9665C342.162 77.6632 343.391 78.2199 344.343 78.6406C345.352 79.0861 345.725 79.236 345.589 79.1808C345.5 79.1451 345.086 78.9781 344.409 78.7264C343.79 78.4963 342.486 78.0214 340.689 77.4478C339.154 76.9577 335.65 75.8753 330.955 74.8533C328.545 74.329 324.859 73.6075 320.288 73.0551C316.105 72.5497 308.536 71.8503 299.046 72.42L313.426 311.989C296.408 313.01 283.133 310.064 279.914 309.363C274.535 308.193 270.206 306.88 267.716 306.085C262.632 304.462 258.269 302.75 255.656 301.694C250.082 299.441 244.354 296.855 239.747 294.721C230.156 290.276 219.57 285.054 212.006 281.245L319.948 66.8883ZM136.96 206.65L143.04 160.495L380.984 191.839L374.904 237.994L136.96 206.65ZM132.717 218.524L140.021 191.264L371.843 253.38L364.539 280.64L132.717 218.524ZM141.925 187.287L162.696 166.33L333.155 335.279L312.385 356.235L141.925 187.287ZM235.299 151.143L255.552 156.569L193.435 388.392L173.182 382.965L235.299 151.143ZM82.9327 197.04L142.908 162.975L261.439 371.662L201.464 405.727L82.9327 197.04ZM97.3362 435.958L52.2743 385.836L230.75 225.38L275.812 275.502L97.3362 435.958ZM67.2783 393.931L67.2783 357.566L307.278 357.566L307.278 393.932L67.2783 393.931ZM288.746 458.787C255.836 511.679 247.367 581.088 302.01 675.733L94.164 795.733C2.10947 636.289 -1.58073 471.099 84.9729 331.995L288.746 458.787ZM302.01 675.733C349.288 757.62 465.395 800.698 608.093 718.311L728.093 926.157C500.694 1057.45 223.847 1020.35 94.164 795.733L302.01 675.733ZM608.093 718.311C747.959 637.559 778.883 484.063 730.177 399.701L938.023 279.701C1066.28 501.844 958.323 793.234 728.093 926.157L608.093 718.311ZM730.177 399.701C698.813 345.378 664.158 321.038 632.186 310.248C598.368 298.835 554.444 298.284 499.835 314.723L430.653 84.9106C519.518 58.1591 616.133 51.5316 708.93 82.8493C803.573 114.79 881.608 181.988 938.023 279.701L730.177 399.701ZM515.613 88.3543C522.478 93.7382 529.669 99.3777 536.455 104.659L389.048 294.056C381.85 288.454 374.304 282.536 367.506 277.204L515.613 88.3543ZM499.835 314.723C462.303 326.022 420.904 318.849 389.048 294.056L536.455 104.659C506.008 80.9623 466.476 74.1266 430.653 84.9106L499.835 314.723ZM307.278 393.932C307.278 417.116 300.719 439.546 288.746 458.787L84.9729 331.995C73.545 350.361 67.2783 371.777 67.2783 393.931L307.278 393.932ZM201.464 405.727C266.567 368.75 280.808 281.058 230.75 225.38L52.2743 385.836C-0.127837 327.549 14.78 235.75 82.9327 197.04L201.464 405.727ZM312.385 356.235C281.377 387.52 235.983 399.792 193.435 388.392L255.552 156.569C214.908 145.679 171.545 157.401 141.925 187.287L312.385 356.235ZM364.539 280.64C359.01 301.274 348.193 320.107 333.155 335.279L162.696 166.33C148.331 180.823 137.998 198.814 132.717 218.524L364.539 280.64ZM212.006 281.245C284.261 317.629 370.469 271.666 380.984 191.839L143.04 160.495C154.05 76.9099 244.307 28.7983 319.948 66.8883L212.006 281.245ZM487.724 227.665C463.096 319.58 347.772 349.727 281.312 281.624L453.078 114.004C389.592 48.9477 279.429 77.7462 255.902 165.548L487.724 227.665ZM474.882 242.57C483.949 230.543 490.614 216.882 494.512 202.334L262.69 140.218C266.77 124.988 273.747 110.687 283.238 98.0967L474.882 242.57ZM275.812 275.502C296.071 298.035 307.278 327.265 307.278 357.566L67.2783 357.566C67.2783 386.511 77.9845 414.433 97.3362 435.958L275.812 275.502ZM298.572 119.51C291.757 235.37 439.388 289.654 509.252 196.979L317.608 52.5055C390.745 -44.5109 545.292 12.3158 538.158 133.603L298.572 119.51ZM252.41 252.008C297.778 298.497 372.121 299.162 418.35 253.893L250.434 82.4166C298.842 35.0133 376.678 35.7148 424.176 84.3871L252.41 252.008ZM173.182 382.965C202.944 390.939 234.648 386.879 261.439 371.662L142.908 162.975C170.954 147.045 204.144 142.795 235.299 151.143L173.182 382.965ZM345.177 259.808C312.615 235.267 294.079 195.889 296.51 154.56L536.096 168.653C538.418 129.176 520.71 91.5737 489.63 68.1488L345.177 259.808Z" fill="#374B64" mask="url(#path-1-outside-1_561_11736)"/>
<path fill-rule="evenodd" clip-rule="evenodd" d="M455.624 309.152C449.476 304.33 444.023 300.054 440.967 297.735C440.228 297.175 439.812 296.285 439.867 295.359L440.923 277.401C441.082 274.687 437.624 273.415 435.988 275.586L416.67 301.211C416.458 301.493 416.302 301.813 416.21 302.154L412.487 316.05C411.936 318.107 409.355 318.782 407.868 317.258L391.786 300.778C390.721 299.687 388.974 299.67 387.881 300.733C382.067 306.391 372.87 314.934 371.02 315.045C369.202 315.154 355.963 308.771 347.155 304.361C345.46 303.512 343.428 304.582 343.18 306.462L339.57 333.875L335.074 350.654C334.95 351.115 334.708 351.537 334.371 351.876L321.999 364.36C321.305 365.06 320.289 365.334 319.337 365.079L307.66 361.95C306.963 361.763 306.22 361.859 305.592 362.215L269.576 382.672C268.051 383.538 267.717 385.592 268.89 386.896L295.943 416.988C296.396 417.492 296.647 418.146 296.647 418.824L296.647 440.869C296.647 441.384 296.501 441.89 296.229 442.328C259.036 502.3 257.61 575.542 303.404 654.86C358.722 750.674 481.56 775.736 597.252 708.941C712.945 642.146 756.358 503.074 701.04 407.261C646.266 312.389 560.459 292.876 470.945 319.65C470.09 319.906 469.157 319.738 468.452 319.189C464.207 315.884 459.758 312.395 455.624 309.152Z" fill="#79A9E0"/>
</g>
<defs>
<clipPath id="clip0_561_11736">
<rect width="1000" height="1000" fill="white"/>
</clipPath>
</defs>
</svg>
