<svg width="1000" height="1000" viewBox="0 0 1000 1000" fill="none" xmlns="http://www.w3.org/2000/svg">
<g clip-path="url(#clip0_621_70871)">
<mask id="path-1-outside-1_621_70871" maskUnits="userSpaceOnUse" x="30.0007" y="8.22314" width="939" height="1011" fill="black">
<rect fill="white" x="30.0007" y="8.22314" width="939" height="1011"/>
<path fill-rule="evenodd" clip-rule="evenodd" d="M778.371 261.835C773.168 182.906 693.715 120.223 596.464 120.223C555.617 120.223 517.91 131.281 487.526 149.956C468.873 144.654 448.846 141.774 428.001 141.774C347.64 141.774 279.432 184.575 255.228 243.975C252.13 243.746 248.993 243.63 245.822 243.63C188.483 243.63 142.001 281.781 142.001 328.842C142.001 359.859 162.192 387.005 192.374 401.91C190.169 411.229 189.014 420.857 189.014 430.707C189.014 492.266 234.138 545.156 298.663 568.216C296.144 575.568 294.796 583.322 294.796 591.335C294.796 638.396 341.279 676.547 398.618 676.547C426.789 676.547 452.34 667.338 471.045 652.387L455.283 721.11L400.576 785.3L473.518 879.396L596.792 821.771L568.344 721.11L560.128 647.171C578.756 661.734 603.969 670.675 631.727 670.675C673.302 670.675 709.17 650.617 725.749 621.648C801.578 603.524 857 545.949 857 477.726C857 449.588 847.572 423.261 831.173 400.766C847.251 385.76 857.001 366.075 857.001 344.521C857.001 304.59 823.537 271.075 778.371 261.835Z"/>
</mask>
<path fill-rule="evenodd" clip-rule="evenodd" d="M778.371 261.835C773.168 182.906 693.715 120.223 596.464 120.223C555.617 120.223 517.91 131.281 487.526 149.956C468.873 144.654 448.846 141.774 428.001 141.774C347.64 141.774 279.432 184.575 255.228 243.975C252.13 243.746 248.993 243.63 245.822 243.63C188.483 243.63 142.001 281.781 142.001 328.842C142.001 359.859 162.192 387.005 192.374 401.91C190.169 411.229 189.014 420.857 189.014 430.707C189.014 492.266 234.138 545.156 298.663 568.216C296.144 575.568 294.796 583.322 294.796 591.335C294.796 638.396 341.279 676.547 398.618 676.547C426.789 676.547 452.34 667.338 471.045 652.387L455.283 721.11L400.576 785.3L473.518 879.396L596.792 821.771L568.344 721.11L560.128 647.171C578.756 661.734 603.969 670.675 631.727 670.675C673.302 670.675 709.17 650.617 725.749 621.648C801.578 603.524 857 545.949 857 477.726C857 449.588 847.572 423.261 831.173 400.766C847.251 385.76 857.001 366.075 857.001 344.521C857.001 304.59 823.537 271.075 778.371 261.835Z" fill="#5F6B3D"/>
<path d="M778.371 261.835L666.977 269.177L672.577 354.14L755.997 371.205L778.371 261.835ZM487.526 149.956L457.003 257.338L504.189 270.75L545.982 245.063L487.526 149.956ZM255.228 243.975L247.023 355.308L327.979 361.275L358.611 286.1L255.228 243.975ZM192.374 401.91L301.01 427.616L321.469 341.154L241.804 301.814L192.374 401.91ZM298.663 568.216L404.271 604.402L439.985 500.172L336.232 463.092L298.663 568.216ZM471.045 652.387L579.855 677.344L651.424 365.303L401.345 565.184L471.045 652.387ZM455.283 721.11L540.247 793.523L557.981 772.715L564.093 746.067L455.283 721.11ZM400.576 785.3L315.612 712.887L256.74 781.964L312.346 853.695L400.576 785.3ZM473.518 879.396L385.288 947.791L439.957 1018.31L520.793 980.527L473.518 879.396ZM596.792 821.771L644.066 922.903L730.024 882.721L704.219 791.411L596.792 821.771ZM568.344 721.11L457.391 733.438L458.409 742.6L460.916 751.47L568.344 721.11ZM560.128 647.171L628.889 559.225L419.877 395.81L449.176 659.499L560.128 647.171ZM725.749 621.648L699.797 513.071L652.84 524.295L628.859 566.197L725.749 621.648ZM831.173 400.766L755 319.157L682.714 386.628L740.965 466.53L831.173 400.766ZM596.464 231.859C621.484 231.859 641.156 239.982 653.185 249.385C665.145 258.733 666.802 266.53 666.977 269.177L889.764 254.492C879.559 99.6567 733.527 8.58765 596.464 8.58765V231.859ZM545.982 245.063C558.227 237.537 575.593 231.859 596.464 231.859V8.58765C535.641 8.58765 477.593 25.025 429.07 54.8487L545.982 245.063ZM428.001 253.41C438.57 253.41 448.323 254.871 457.003 257.338L518.049 42.5743C489.422 34.4373 459.121 30.1387 428.001 30.1387V253.41ZM358.611 286.1C362.415 276.764 383.68 253.41 428.001 253.41V30.1387C311.6 30.1387 196.449 92.3854 151.846 201.849L358.611 286.1ZM245.822 355.265C246.255 355.265 246.655 355.281 247.023 355.308L263.434 132.641C257.605 132.212 251.731 131.994 245.822 131.994V355.265ZM253.636 328.842C253.636 344.142 245.789 352.783 243.234 354.88C240.911 356.787 241.46 355.265 245.822 355.265V131.994C148.465 131.994 30.3652 200.515 30.3652 328.842H253.636ZM241.804 301.814C241.862 301.842 242.42 302.123 243.329 302.883C244.237 303.64 245.63 304.992 247.147 307.146C250.375 311.731 253.636 319.343 253.636 328.842H30.3652C30.3652 411.939 84.1084 472.951 142.945 502.006L241.804 301.814ZM300.649 430.707C300.649 429.634 300.77 428.63 301.01 427.616L83.7387 376.204C79.5684 393.828 77.3784 412.08 77.3784 430.707H300.649ZM336.232 463.092C321.31 457.759 311.54 449.968 306.267 443.482C301.327 437.405 300.649 433.164 300.649 430.707H77.3784C77.3784 551.337 164.508 638.822 261.093 673.34L336.232 463.092ZM406.432 591.335C406.432 595.971 405.632 600.43 404.271 604.402L193.055 532.03C186.656 550.705 183.161 570.673 183.161 591.335H406.432ZM398.618 564.911C394.256 564.911 393.707 563.39 396.03 565.296C398.584 567.393 406.432 576.034 406.432 591.335H183.161C183.161 719.661 301.26 788.182 398.618 788.182V564.911ZM401.345 565.184C402.56 564.213 403.018 564.185 402.391 564.398C401.822 564.592 400.556 564.911 398.618 564.911V788.182C450.7 788.182 501.169 771.222 540.744 739.591L401.345 565.184ZM564.093 746.067L579.855 677.344L362.235 627.431L346.473 696.154L564.093 746.067ZM485.54 857.712L540.247 793.523L370.319 648.698L315.612 712.887L485.54 857.712ZM561.749 811L488.806 716.904L312.346 853.695L385.288 947.791L561.749 811ZM549.517 720.64L426.244 778.264L520.793 980.527L644.066 922.903L549.517 720.64ZM460.916 751.47L489.364 852.131L704.219 791.411L675.772 690.75L460.916 751.47ZM449.176 659.499L457.391 733.438L679.297 708.782L671.081 634.843L449.176 659.499ZM631.727 559.039C629.818 559.039 628.56 558.73 627.977 558.535C627.34 558.321 627.744 558.33 628.889 559.225L491.368 735.117C530.66 765.837 580.389 782.31 631.727 782.31V559.039ZM628.859 566.197C632.239 560.292 635.607 558.507 635.69 558.463C635.972 558.313 634.667 559.039 631.727 559.039V782.31C706.827 782.31 783.139 746.118 822.639 677.099L628.859 566.197ZM745.365 477.726C745.365 480.273 744.598 485.395 737.918 492.606C730.863 500.221 718.144 508.686 699.797 513.071L751.701 730.225C862.462 703.752 968.636 611.844 968.636 477.726H745.365ZM740.965 466.53C744.755 471.729 745.365 475.364 745.365 477.726H968.636C968.636 423.812 950.39 374.793 921.381 335.002L740.965 466.53ZM745.365 344.521C745.365 330.696 751.919 322.032 755 319.157L907.347 482.376C942.582 449.487 968.636 401.454 968.636 344.521H745.365ZM755.997 371.205C758.387 371.694 757.225 372.23 754.277 369.174C750.951 365.726 745.365 357.181 745.365 344.521H968.636C968.636 236.459 881.487 168.982 800.745 152.464L755.997 371.205Z" fill="#8C9559" mask="url(#path-1-outside-1_621_70871)"/>
</g>
<defs>
<clipPath id="clip0_621_70871">
<rect width="1000" height="1000" fill="white"/>
</clipPath>
</defs>
</svg>
