<svg width="500" height="500" viewBox="0 0 500 500" fill="none" xmlns="http://www.w3.org/2000/svg">
<mask id="path-1-outside-1_621_70900" maskUnits="userSpaceOnUse" x="24.501" y="11.645" width="452" height="477" fill="black">
<rect fill="white" x="24.501" y="11.645" width="452" height="477"/>
<path fill-rule="evenodd" clip-rule="evenodd" d="M295.919 71.5016C296.543 71.4841 297.17 71.4753 297.798 71.4753C316.045 71.4753 332.56 78.8947 344.489 90.8812C348.397 89.8533 352.502 89.3054 356.737 89.3054C382.996 89.3054 404.284 110.371 404.284 136.357C404.284 142.453 403.112 148.278 400.98 153.624C414.559 165.686 423.104 183.215 423.104 202.725C423.104 204.433 423.039 206.126 422.91 207.801C429.737 214.215 434.001 223.326 434.001 233.433C434.001 252.854 418.257 268.598 398.836 268.598C392.458 268.598 386.476 266.9 381.319 263.931C373.716 266.942 365.421 268.598 356.737 268.598C344.122 268.598 332.33 265.105 322.287 259.04L321.687 259.622C321.556 259.749 321.455 259.897 321.386 260.066C318.313 267.61 312.121 283.256 311.128 287.485C310.303 290.997 302.292 298.583 295.917 304.621C292.59 307.772 289.708 310.501 288.523 312.01C285.07 316.412 277.221 331.505 277.221 336.536C277.221 340.514 271.905 361.204 269.154 371.398C269.09 371.634 269.095 371.875 269.164 372.11L288.132 436.455C288.345 437.177 287.912 437.932 287.18 438.112L251.889 446.798C251.621 446.864 251.34 446.845 251.083 446.742L204.972 428.33C204.187 428.017 203.894 427.057 204.369 426.359L226.76 393.469C226.909 393.25 226.989 392.991 226.989 392.725V360.06C226.989 359.891 226.956 359.722 226.893 359.565L212.354 323.628C212.275 323.432 212.15 323.258 211.989 323.12L138.513 260.133C138.273 259.928 137.968 259.815 137.652 259.815H126.656C122.497 261.019 118.1 261.664 113.553 261.664C87.5668 261.664 66.501 240.598 66.501 214.612C66.501 189.236 86.5893 168.552 111.731 167.595C112.214 166.599 112.742 165.629 113.311 164.686C110.009 159.328 108.104 153.018 108.104 146.263C108.104 126.842 123.848 111.098 143.27 111.098C146.332 111.098 149.303 111.489 152.135 112.225C156.589 96.7021 170.89 85.3433 187.845 85.3433C197.327 85.3433 205.979 88.8961 212.543 94.7432C215.658 71.534 235.345 53.645 259.166 53.645C274.037 53.645 287.297 60.6165 295.919 71.5016ZM280.94 201.044C284.001 201.852 287.15 202.445 290.369 202.806C290.385 216.197 294.427 228.651 301.357 239.041C300.997 239.818 300.62 240.626 300.229 241.464L300.209 241.508L300.208 241.509L300.208 241.51L300.207 241.511C298.329 245.542 296.131 250.258 293.861 255.413C290.175 263.78 276.373 261.995 269.505 259.951C269.213 259.864 268.967 259.676 268.799 259.422L248.39 228.47C262.032 223.158 273.467 213.431 280.94 201.044ZM172.843 207.948C183.872 221.864 200.405 231.219 219.153 232.724C221.377 236.52 224.436 241.081 226.545 244.091C226.82 244.483 226.861 244.99 226.655 245.423L216.927 265.766C216.596 266.458 215.748 266.724 215.081 266.345L177.177 244.783C177.106 244.743 177.033 244.709 176.957 244.683L154.93 237.033C158.22 230.974 160.218 224.111 160.554 216.815C165.254 214.716 169.431 211.68 172.843 207.948Z"/>
</mask>
<path fill-rule="evenodd" clip-rule="evenodd" d="M295.919 71.5016C296.543 71.4841 297.17 71.4753 297.798 71.4753C316.045 71.4753 332.56 78.8947 344.489 90.8812C348.397 89.8533 352.502 89.3054 356.737 89.3054C382.996 89.3054 404.284 110.371 404.284 136.357C404.284 142.453 403.112 148.278 400.98 153.624C414.559 165.686 423.104 183.215 423.104 202.725C423.104 204.433 423.039 206.126 422.91 207.801C429.737 214.215 434.001 223.326 434.001 233.433C434.001 252.854 418.257 268.598 398.836 268.598C392.458 268.598 386.476 266.9 381.319 263.931C373.716 266.942 365.421 268.598 356.737 268.598C344.122 268.598 332.33 265.105 322.287 259.04L321.687 259.622C321.556 259.749 321.455 259.897 321.386 260.066C318.313 267.61 312.121 283.256 311.128 287.485C310.303 290.997 302.292 298.583 295.917 304.621C292.59 307.772 289.708 310.501 288.523 312.01C285.07 316.412 277.221 331.505 277.221 336.536C277.221 340.514 271.905 361.204 269.154 371.398C269.09 371.634 269.095 371.875 269.164 372.11L288.132 436.455C288.345 437.177 287.912 437.932 287.18 438.112L251.889 446.798C251.621 446.864 251.34 446.845 251.083 446.742L204.972 428.33C204.187 428.017 203.894 427.057 204.369 426.359L226.76 393.469C226.909 393.25 226.989 392.991 226.989 392.725V360.06C226.989 359.891 226.956 359.722 226.893 359.565L212.354 323.628C212.275 323.432 212.15 323.258 211.989 323.12L138.513 260.133C138.273 259.928 137.968 259.815 137.652 259.815H126.656C122.497 261.019 118.1 261.664 113.553 261.664C87.5668 261.664 66.501 240.598 66.501 214.612C66.501 189.236 86.5893 168.552 111.731 167.595C112.214 166.599 112.742 165.629 113.311 164.686C110.009 159.328 108.104 153.018 108.104 146.263C108.104 126.842 123.848 111.098 143.27 111.098C146.332 111.098 149.303 111.489 152.135 112.225C156.589 96.7021 170.89 85.3433 187.845 85.3433C197.327 85.3433 205.979 88.8961 212.543 94.7432C215.658 71.534 235.345 53.645 259.166 53.645C274.037 53.645 287.297 60.6165 295.919 71.5016ZM280.94 201.044C284.001 201.852 287.15 202.445 290.369 202.806C290.385 216.197 294.427 228.651 301.357 239.041C300.997 239.818 300.62 240.626 300.229 241.464L300.209 241.508L300.208 241.509L300.208 241.51L300.207 241.511C298.329 245.542 296.131 250.258 293.861 255.413C290.175 263.78 276.373 261.995 269.505 259.951C269.213 259.864 268.967 259.676 268.799 259.422L248.39 228.47C262.032 223.158 273.467 213.431 280.94 201.044ZM172.843 207.948C183.872 221.864 200.405 231.219 219.153 232.724C221.377 236.52 224.436 241.081 226.545 244.091C226.82 244.483 226.861 244.99 226.655 245.423L216.927 265.766C216.596 266.458 215.748 266.724 215.081 266.345L177.177 244.783C177.106 244.743 177.033 244.709 176.957 244.683L154.93 237.033C158.22 230.974 160.218 224.111 160.554 216.815C165.254 214.716 169.431 211.68 172.843 207.948Z" fill="#1C3715"/>
<path d="M295.919 71.5016L263.307 97.3345L276.249 113.673L297.084 113.089L295.919 71.5016ZM344.489 90.8812L315 120.229L331.902 137.212L355.073 131.116L344.489 90.8812ZM400.98 153.624L362.337 138.211L351.518 165.335L373.351 184.729L400.98 153.624ZM422.91 207.801L381.429 204.616L379.904 224.479L394.422 238.12L422.91 207.801ZM381.319 263.931L402.073 227.874L384.67 217.857L366.001 225.25L381.319 263.931ZM322.287 259.04L343.795 223.427L316.348 206.851L293.327 229.171L322.287 259.04ZM321.687 259.622L350.647 289.492L350.648 289.491L321.687 259.622ZM321.386 260.066L282.855 244.373L282.855 244.374L321.386 260.066ZM311.128 287.485L351.629 297L351.629 297L311.128 287.485ZM295.917 304.621L324.523 334.829L324.523 334.829L295.917 304.621ZM288.523 312.01L321.256 337.69L321.256 337.69L288.523 312.01ZM269.154 371.398L228.987 360.561L228.986 360.561L269.154 371.398ZM269.164 372.11L229.258 383.872L229.258 383.874L269.164 372.11ZM288.132 436.455L248.226 448.219L248.227 448.22L288.132 436.455ZM287.18 438.112L277.239 397.713L277.237 397.714L287.18 438.112ZM251.889 446.798L241.946 406.4L241.946 406.4L251.889 446.798ZM251.083 446.742L235.655 485.38L235.656 485.38L251.083 446.742ZM204.972 428.33L189.543 466.967L189.544 466.968L204.972 428.33ZM204.369 426.359L169.979 402.946L169.978 402.947L204.369 426.359ZM226.76 393.469L192.37 370.055L192.369 370.057L226.76 393.469ZM226.893 359.565L188.326 375.167L188.326 375.168L226.893 359.565ZM212.354 323.628L250.922 308.025L250.921 308.025L212.354 323.628ZM211.989 323.12L239.067 291.534L239.066 291.534L211.989 323.12ZM138.513 260.133L111.434 291.719L111.436 291.72L138.513 260.133ZM126.656 259.815V218.211H120.758L115.092 219.851L126.656 259.815ZM111.731 167.595L113.314 209.168L138.256 208.219L149.157 185.765L111.731 167.595ZM113.311 164.686L148.931 186.181L162.04 164.459L148.729 142.859L113.311 164.686ZM152.135 112.225L141.676 152.493L180.938 162.69L192.125 123.699L152.135 112.225ZM212.543 94.7432L184.87 125.809L243.36 177.911L253.778 100.276L212.543 94.7432ZM290.369 202.806L331.972 202.756L331.927 165.606L295.009 161.462L290.369 202.806ZM280.94 201.044L291.558 160.818L261.419 152.862L245.317 179.553L280.94 201.044ZM301.357 239.041L339.09 256.565L348.927 235.384L335.968 215.956L301.357 239.041ZM300.229 241.464L337.939 259.039L337.94 259.037L300.229 241.464ZM300.209 241.508L262.5 223.933L262.37 224.211L262.245 224.49L300.209 241.508ZM300.208 241.509L337.42 260.115L337.813 259.329L338.172 258.528L300.208 241.509ZM300.208 241.51L262.997 222.904L262.788 223.322L262.588 223.745L300.208 241.51ZM300.207 241.511L262.587 223.746L262.542 223.842L262.497 223.938L300.207 241.511ZM293.861 255.413L331.934 272.185L331.934 272.185L293.861 255.413ZM269.505 259.951L281.373 220.076L281.372 220.076L269.505 259.951ZM268.799 259.422L234.066 282.324L234.068 282.326L268.799 259.422ZM248.39 228.47L233.294 189.702L185.313 208.386L213.657 251.372L248.39 228.47ZM219.153 232.724L255.052 211.696L244.094 192.988L222.482 191.253L219.153 232.724ZM172.843 207.948L205.448 182.107L175.1 143.817L142.136 179.878L172.843 207.948ZM226.545 244.091L260.62 220.222L260.62 220.222L226.545 244.091ZM226.655 245.423L189.121 227.475L189.121 227.476L226.655 245.423ZM216.927 265.766L254.461 283.713L254.461 283.713L216.927 265.766ZM215.081 266.345L235.653 230.184L235.653 230.183L215.081 266.345ZM177.177 244.783L156.603 280.943L156.605 280.945L177.177 244.783ZM176.957 244.683L190.611 205.384L190.606 205.382L176.957 244.683ZM154.93 237.033L118.368 217.179L94.9786 260.253L141.28 276.334L154.93 237.033ZM160.554 216.815L143.587 178.829L120.175 189.286L118.994 214.9L160.554 216.815ZM297.798 29.8716C296.781 29.8716 295.767 29.8858 294.754 29.9142L297.084 113.089C297.32 113.082 297.558 113.079 297.798 113.079V29.8716ZM373.977 61.5333C354.56 42.0228 327.559 29.8716 297.798 29.8716V113.079C304.531 113.079 310.559 115.767 315 120.229L373.977 61.5333ZM356.737 47.7016C348.901 47.7016 341.239 48.717 333.905 50.6463L355.073 131.116C355.554 130.99 356.103 130.909 356.737 130.909V47.7016ZM445.888 136.357C445.888 86.9845 405.562 47.7016 356.737 47.7016V130.909C360.431 130.909 362.68 133.758 362.68 136.357H445.888ZM439.623 169.037C443.677 158.876 445.888 147.826 445.888 136.357H362.68C362.68 137.081 362.548 137.681 362.337 138.211L439.623 169.037ZM464.708 202.725C464.708 170.776 450.657 142.104 428.61 122.52L373.351 184.729C378.461 189.268 381.501 195.654 381.501 202.725H464.708ZM464.392 210.985C464.602 208.252 464.708 205.497 464.708 202.725H381.501C381.501 203.369 381.476 203.999 381.429 204.616L464.392 210.985ZM475.604 233.433C475.604 211.372 466.245 191.431 451.399 177.481L394.422 238.12C393.229 237 392.397 235.28 392.397 233.433H475.604ZM398.836 310.202C441.234 310.202 475.604 275.831 475.604 233.433H392.397C392.397 229.877 395.28 226.994 398.836 226.994V310.202ZM360.565 299.989C371.867 306.494 384.981 310.202 398.836 310.202V226.994C399.934 226.994 401.086 227.306 402.073 227.874L360.565 299.989ZM356.737 310.202C370.747 310.202 384.234 307.524 396.637 302.613L366.001 225.25C363.199 226.36 360.096 226.994 356.737 226.994V310.202ZM300.78 294.653C317.142 304.535 336.345 310.202 356.737 310.202V226.994C351.899 226.994 347.518 225.675 343.795 223.427L300.78 294.653ZM350.648 289.491L351.248 288.909L293.327 229.171L292.727 229.753L350.648 289.491ZM359.916 275.76C357.736 281.113 354.508 285.749 350.647 289.492L292.727 229.753C288.604 233.75 285.174 238.681 282.855 244.373L359.916 275.76ZM351.629 297C351.383 298.046 351.205 298.543 351.362 298.051C351.464 297.731 351.654 297.162 351.955 296.309C352.555 294.606 353.377 292.39 354.342 289.864C356.261 284.84 358.46 279.335 359.916 275.759L282.855 244.374C281.239 248.341 278.806 254.431 276.612 260.173C274.956 264.509 271.912 272.501 270.627 277.97L351.629 297ZM324.523 334.829C327.487 332.022 332.03 327.739 335.928 323.59C337.87 321.522 340.358 318.748 342.68 315.626C344.07 313.758 349.33 306.786 351.629 297L270.627 277.97C271.224 275.427 271.974 273.403 272.564 272.006C273.166 270.581 273.75 269.458 274.184 268.682C275.018 267.189 275.71 266.244 275.919 265.964C276.172 265.624 276.265 265.528 276.105 265.714C275.96 265.882 275.695 266.18 275.28 266.622C274.427 267.53 273.294 268.671 271.859 270.067C270.43 271.457 268.935 272.873 267.31 274.413L324.523 334.829ZM321.256 337.69C320.784 338.292 320.419 338.713 320.248 338.906C320.151 339.016 320.077 339.097 320.032 339.147C319.986 339.197 319.959 339.226 319.954 339.23C319.949 339.236 319.999 339.183 320.12 339.061C320.238 338.941 320.398 338.781 320.608 338.574C321.542 337.654 322.769 336.49 324.523 334.829L267.31 274.413C265.486 276.14 259.413 281.713 255.791 286.331L321.256 337.69ZM318.825 336.536C318.825 337.714 318.768 338.732 318.699 339.553C318.628 340.38 318.538 341.09 318.452 341.665C318.283 342.787 318.093 343.631 317.972 344.126C317.846 344.64 317.741 344.988 317.693 345.144C317.642 345.308 317.62 345.365 317.641 345.307C317.689 345.173 317.829 344.804 318.09 344.198C318.344 343.609 318.662 342.914 319.034 342.143C319.798 340.564 320.624 339.016 321.317 337.816C321.659 337.225 321.891 336.854 321.992 336.698C322.039 336.625 322.016 336.664 321.925 336.794C321.844 336.909 321.617 337.23 321.256 337.69L255.791 286.331C251.247 292.122 246.872 300.237 244.12 305.931C242.529 309.221 240.798 313.111 239.363 317.093C238.478 319.546 235.617 327.405 235.617 336.536H318.825ZM309.321 382.236C310.76 376.904 312.878 368.8 314.666 361.38C315.552 357.703 316.431 353.885 317.114 350.53C317.446 348.902 318.825 342.529 318.825 336.536H235.617C235.617 334.727 235.752 333.428 235.79 333.072C235.819 332.806 235.844 332.612 235.858 332.508C235.865 332.452 235.871 332.411 235.875 332.385C235.879 332.359 235.881 332.346 235.881 332.345C235.881 332.344 235.879 332.354 235.876 332.375C235.873 332.395 235.868 332.425 235.861 332.465C235.847 332.544 235.828 332.654 235.801 332.796C235.748 333.083 235.676 333.457 235.581 333.925C235.181 335.887 234.56 338.625 233.773 341.891C232.214 348.36 230.299 355.698 228.987 360.561L309.321 382.236ZM309.071 360.347C311.105 367.251 311.319 374.833 309.321 382.235L228.986 360.561C226.862 368.434 227.085 376.5 229.258 383.872L309.071 360.347ZM328.038 424.691L309.07 360.346L229.258 383.874L248.226 448.219L328.038 424.691ZM297.122 478.51C320.885 472.663 334.958 448.162 328.038 424.69L248.227 448.22C241.733 426.193 254.939 403.201 277.239 397.713L297.122 478.51ZM261.833 487.196L297.124 478.51L277.237 397.714L241.946 406.4L261.833 487.196ZM235.656 485.38C243.977 488.703 253.131 489.338 261.833 487.196L241.946 406.4C250.112 404.39 258.702 404.987 266.511 408.105L235.656 485.38ZM189.544 466.968L235.655 485.38L266.511 408.105L220.4 389.693L189.544 466.968ZM169.978 402.947C154.533 425.634 164.055 456.789 189.543 466.967L220.401 389.693C244.319 399.244 253.254 428.48 238.761 449.771L169.978 402.947ZM192.369 370.057L169.979 402.946L238.76 449.771L261.151 416.882L192.369 370.057ZM185.385 392.725C185.385 384.64 187.818 376.741 192.37 370.055L261.15 416.883C266 409.759 268.593 401.341 268.593 392.725H185.385ZM185.385 360.06V392.725H268.593V360.06H185.385ZM188.326 375.168C186.383 370.366 185.385 365.237 185.385 360.06H268.593C268.593 354.544 267.53 349.078 265.46 343.962L188.326 375.168ZM173.787 339.231L188.326 375.167L265.46 343.962L250.922 308.025L173.787 339.231ZM184.912 354.706C180.019 350.512 176.204 345.206 173.787 339.231L250.921 308.025C248.346 301.658 244.28 296.003 239.067 291.534L184.912 354.706ZM111.436 291.72L184.912 354.707L239.066 291.534L165.59 228.547L111.436 291.72ZM137.652 301.419C128.036 301.419 118.736 297.979 111.434 291.719L165.591 228.548C157.81 221.877 147.9 218.211 137.652 218.211V301.419ZM126.656 301.419H137.652V218.211H126.656V301.419ZM113.553 303.268C122.053 303.268 130.341 302.059 138.22 299.779L115.092 219.851C114.653 219.978 114.148 220.06 113.553 220.06V303.268ZM24.8972 214.612C24.8972 263.575 64.5897 303.268 113.553 303.268V220.06C110.544 220.06 108.105 217.621 108.105 214.612H24.8972ZM110.148 126.021C62.7472 127.826 24.8972 166.789 24.8972 214.612H108.105C108.105 211.683 110.431 209.278 113.314 209.168L110.148 126.021ZM77.6902 143.19C76.473 145.207 75.3425 147.287 74.305 149.424L149.157 185.765C149.086 185.912 149.01 186.05 148.931 186.181L77.6902 143.19ZM66.5007 146.263C66.5007 160.945 70.663 174.781 77.8922 186.512L148.729 142.859C149.355 143.875 149.708 145.091 149.708 146.263H66.5007ZM143.27 69.4941C100.871 69.4941 66.5007 103.865 66.5007 146.263H149.708C149.708 149.819 146.826 152.702 143.27 152.702V69.4941ZM162.594 71.9572C156.375 70.3421 149.891 69.4941 143.27 69.4941V152.702C142.773 152.702 142.231 152.637 141.676 152.493L162.594 71.9572ZM192.125 123.699C191.598 125.538 189.94 126.947 187.845 126.947V43.7395C151.841 43.7395 121.58 67.8667 112.145 100.751L192.125 123.699ZM187.845 126.947C186.734 126.947 185.631 126.487 184.87 125.809L240.216 63.6775C226.328 51.3055 207.92 43.7395 187.845 43.7395V126.947ZM259.166 12.0412C213.896 12.0412 177.113 45.958 171.309 89.2101L253.778 100.276C254.202 97.1099 256.794 95.2488 259.166 95.2488V12.0412ZM328.531 45.6688C312.418 25.327 287.377 12.0412 259.166 12.0412V95.2488C260.697 95.2488 262.176 95.9059 263.307 97.3345L328.531 45.6688ZM295.009 161.462C293.821 161.329 292.67 161.111 291.558 160.818L270.322 241.27C275.333 242.592 280.479 243.561 285.728 244.151L295.009 161.462ZM335.968 215.956C333.436 212.159 331.978 207.677 331.972 202.756L248.765 202.857C248.792 224.716 255.417 245.143 266.746 262.127L335.968 215.956ZM337.94 259.037C338.328 258.204 338.716 257.371 339.09 256.565L263.624 221.518C263.277 222.265 262.912 223.048 262.519 223.891L337.94 259.037ZM337.918 259.083L337.939 259.039L262.52 223.889L262.5 223.933L337.918 259.083ZM338.172 258.528L338.173 258.526L262.245 224.49L262.244 224.491L338.172 258.528ZM337.42 260.115L337.42 260.115L262.997 222.904L262.997 222.904L337.42 260.115ZM337.828 259.276L337.828 259.275L262.588 223.745L262.587 223.746L337.828 259.276ZM331.934 272.185C334.004 267.486 336.027 263.142 337.918 259.084L262.497 223.938C260.631 227.942 258.259 233.031 255.787 238.642L331.934 272.185ZM257.637 299.827C264.113 301.754 274.527 303.901 285.87 303.082C295.711 302.372 320.602 297.91 331.934 272.185L255.787 238.642C259.306 230.652 265.321 225.547 270.589 222.865C275.204 220.515 278.839 220.166 279.882 220.091C281.141 220 281.688 220.111 281.451 220.078C281.277 220.054 281.166 220.015 281.373 220.076L257.637 299.827ZM234.068 282.326C239.373 290.372 247.539 296.821 257.637 299.827L281.372 220.076C290.887 222.908 298.561 228.981 303.531 236.518L234.068 282.326ZM213.657 251.372L234.066 282.324L303.532 236.52L283.123 205.568L213.657 251.372ZM245.317 179.553C242.538 184.16 238.278 187.761 233.294 189.702L263.487 267.238C285.787 258.555 304.397 242.701 316.563 222.535L245.317 179.553ZM222.482 191.253C215.667 190.706 209.58 187.321 205.448 182.107L140.238 233.79C158.163 256.407 185.143 271.732 215.825 274.194L222.482 191.253ZM260.62 220.222C258.791 217.611 256.456 214.093 255.052 211.696L183.255 253.752C186.298 258.946 190.081 264.55 192.469 267.96L260.62 220.222ZM264.188 263.37C270.862 249.414 269.518 232.925 260.62 220.222L192.469 267.96C184.121 256.041 182.861 240.567 189.121 227.475L264.188 263.37ZM254.461 283.713L264.188 263.369L189.121 227.476L179.393 247.82L254.461 283.713ZM194.509 302.507C216.161 314.824 243.716 306.186 254.461 283.713L179.393 247.82C189.477 226.731 215.335 218.624 235.653 230.184L194.509 302.507ZM156.605 280.945L194.51 302.507L235.653 230.183L197.748 208.62L156.605 280.945ZM163.302 283.982C160.987 283.178 158.744 282.162 156.603 280.943L197.75 208.622C195.468 207.324 193.078 206.241 190.611 205.384L163.302 283.982ZM141.28 276.334L163.307 283.984L190.606 205.382L168.579 197.732L141.28 276.334ZM118.994 214.9C118.954 215.768 118.73 216.513 118.368 217.179L191.491 256.886C197.709 245.434 201.481 232.455 202.114 218.731L118.994 214.9ZM142.136 179.878C142.546 179.429 143.035 179.075 143.587 178.829L177.522 254.802C187.472 250.357 196.316 243.931 203.55 236.019L142.136 179.878Z" fill="#308748" mask="url(#path-1-outside-1_621_70900)"/>
</svg>
