<svg width="1000" height="1000" viewBox="0 0 1000 1000" fill="none" xmlns="http://www.w3.org/2000/svg">
<path d="M731.513 379.423C731.309 384.95 761.684 367.042 731.513 379.414L706.903 6.29781L681.497 5.50098L389.392 160.639L377.098 218.009L499.696 492.949L15.4233 286.538L155.812 593.649H272.602L499.696 492.949L320.279 985.958L344.889 981.195L599.429 835.1L618.357 750.053L499.696 492.949L977.618 691.422L980 657.285L826.501 386.706L762.3 377.827L499.696 492.949C645.481 418.127 707.567 389.234 731.513 379.414L731.513 379.423Z" fill="#1F778A"/>
<path d="M499.293 492.841C558.306 348.617 700.552 13.9192 706.903 6.29781L718.407 24.4455L808.06 317.725L765.032 379.714L499.293 492.841L977.618 691.422L951.017 736.565L680.104 795.403L609.674 755.706L499.293 492.841L321.462 985.959L302.813 961.348L208.402 682.437L272.602 584.088L499.293 492.841L15.424 287.334L327.924 196.837L383.928 218.009L499.293 492.841Z" fill="#1F778A"/>
<path d="M684.961 402.58C684.797 407.007 709.125 392.665 684.961 402.573L665.251 103.749L644.904 103.11L416.494 221.81L406.472 272.874L499.301 493.502L111.453 328.19L219.517 569.622L321.909 569.622L499.301 493.502L355.608 888.348L375.318 884.533L571.786 773.9L594.336 699.414L499.301 493.502L882.064 652.457L883.971 625.117L763.168 414.346L708.486 402.582L499.301 493.502C616.059 433.578 665.783 410.437 684.961 402.573L684.961 402.58Z" fill="#51A1B3"/>
<path d="M498.979 493.415C546.241 377.908 660.164 109.852 665.251 103.749L674.464 118.283L743.133 344.634L708.486 402.582L498.979 493.415L882.064 652.457L860.759 688.611L657.297 735.026L593.08 705.142L498.979 493.415L356.556 888.348L341.62 868.638L267.865 652.458L320.637 568.909L498.979 493.415L111.453 328.827L356.556 256.255L407.108 274.147L498.979 493.415Z" fill="#51A1B3"/>
<path d="M639.576 424.153C641.75 422.968 642.6 421.955 637.612 423.776L633.419 422.969L619.361 209.827L604.685 209.366L439.944 294.979L416.669 380.444L417.413 381.434L389.324 376.033L499.669 490.938L219.932 371.706L297.873 545.839L370.8 545.839L478.039 550.373L396.03 775.721L410.246 772.97L551.949 693.176L598.38 531.931L775.738 605.584L777.113 585.865L689.983 433.846L639.576 424.153Z" fill="#89EAFF"/>
<path d="M499.437 490.875C533.525 407.566 615.692 214.229 619.361 209.827L626.007 220.31L675.534 383.566L650.545 425.362L499.437 490.875L775.739 605.586L760.372 631.661L613.625 665.138L567.308 643.584L499.437 490.875L396.714 775.722L385.941 761.506L332.745 605.586L370.808 545.326L499.437 490.875L219.933 372.166L396.714 319.823L433.175 332.728L499.437 490.875Z" fill="#89EAFF"/>
</svg>
