<svg width="500" height="500" viewBox="0 0 500 500" fill="none" xmlns="http://www.w3.org/2000/svg">
<g clip-path="url(#clip0_561_11723)">
<path d="M442.462 145.286L416.014 314.423C414.828 322.004 410.896 328.885 404.966 333.755L272.668 442.401C261.215 451.806 244.732 451.879 233.197 442.575L99.9445 335.101C93.9717 330.284 89.979 323.438 88.7265 315.868L60.7854 146.971C58.3666 132.35 66.5448 118.039 80.37 112.701L240.071 51.0382C247.229 48.2743 255.154 48.2393 262.337 50.9399L422.576 111.191C436.448 116.406 444.752 130.644 442.462 145.286Z" fill="#BCB736" stroke="#70692C" stroke-width="95.8813"/>
<path d="M419.277 135.964L391.551 313.269L252.864 427.162L113.176 314.498L83.886 137.445L251.3 72.8042L419.277 135.964Z" fill="#D6D045"/>
</g>
<defs>
<clipPath id="clip0_561_11723">
<rect y="0.00683594" width="500" height="500" fill="white"/>
</clipPath>
</defs>
</svg>
