<svg width="400" height="400" viewBox="0 0 400 400" fill="none" xmlns="http://www.w3.org/2000/svg">
<g clip-path="url(#clip0_345_15)">
<path d="M90.4878 90.4878L200.5 44.9193L310.512 90.4878L356.081 200.5L310.512 310.512L200.5 356.081L90.4878 310.512L44.9193 200.5L90.4878 90.4878ZM357.994 205.12C357.992 205.115 357.99 205.109 357.988 205.104L357.994 205.12ZM357.988 195.896C357.99 195.891 357.992 195.885 357.994 195.88L357.988 195.896ZM195.88 357.994C195.885 357.992 195.891 357.99 195.896 357.988L195.88 357.994ZM205.104 357.988C205.109 357.99 205.115 357.992 205.12 357.994L205.104 357.988Z" fill="#3F4550" stroke="#373F48" stroke-width="83"/>
<path d="M197.792 82.4305C198.573 82.1521 199.427 82.1521 200.208 82.4305L275.549 109.286C276.342 109.569 277.012 110.121 277.44 110.847L317.484 178.772C317.921 179.515 318.078 180.389 317.925 181.237L304.023 258.448C303.872 259.289 303.427 260.048 302.767 260.59L241.38 311.036C240.736 311.564 239.929 311.854 239.096 311.854H158.904C158.071 311.854 157.264 311.564 156.62 311.036L95.233 260.59C94.5732 260.048 94.1278 259.289 93.9765 258.448L80.0749 181.237C79.9222 180.389 80.0789 179.515 80.5163 178.772L120.56 110.847C120.988 110.121 121.658 109.569 122.451 109.286L197.792 82.4305Z" fill="#5D6678"/>
</g>
<defs>
<clipPath id="clip0_345_15">
<rect width="400" height="400" fill="white"/>
</clipPath>
</defs>
</svg>
