<svg width="500" height="500" viewBox="0 0 500 500" fill="none" xmlns="http://www.w3.org/2000/svg">
<path d="M302.802 391.115V395.675L313.79 426.992C316.141 433.693 314.875 441.134 310.438 446.68L302.802 391.115ZM302.802 391.115L356.715 423.049C375.98 434.461 397.05 411.273 383.853 393.185L356.476 355.664L397.646 364.296C397.646 364.296 397.646 364.296 397.646 364.296C418.698 368.711 431.574 341.962 414.997 328.259L376.089 296.099L385.315 298.262C406.162 303.152 419.702 276.935 403.65 262.765L369.547 232.661C380.547 226.097 384.623 209.3 372.496 199.01L349.322 179.348C365.923 177.429 374.252 155.565 360.171 143.312M302.802 391.115L360.171 143.312M360.171 143.312L324.026 111.857C335.192 104.565 337.779 86.6176 324.476 77.4644L313.497 93.4201L324.476 77.4644L262.242 34.6427L262.242 34.6426C255.02 29.6733 245.142 29.6865 237.862 35.3941L249.812 50.6359L237.862 35.3942C228.77 42.5221 214.165 52.2005 200.515 61.2418C193.89 65.6295 187.498 69.8654 182.538 73.3186C180.067 75.0384 177.733 76.7152 175.802 78.2185L175.724 78.2793C174.444 79.2748 171.318 81.7073 169.081 84.7432C167.662 86.6684 165.105 90.7647 164.926 96.5512C164.716 103.357 167.861 108.805 171.589 112.187C174.733 115.04 178.035 116.267 179.717 116.8C180.653 117.096 181.551 117.318 182.374 117.486C181.419 118.479 180.476 119.46 179.545 120.428C178.785 121.219 178.034 122.001 177.292 122.772C171.328 128.975 166.042 134.453 161.85 138.637C159.751 140.731 158.056 142.371 156.768 143.553C155.91 144.34 155.471 144.701 155.363 144.793C154.54 145.335 152.724 146.606 151.051 148.454C151.038 148.469 151.021 148.487 151 148.51C150.366 149.199 146.337 153.579 145.966 160.61C145.72 165.259 147.15 170.115 150.417 174.056C152.424 176.475 154.655 177.99 156.478 178.932L134.011 200.812L147.32 214.478L134.011 200.812C121.21 213.279 129.407 233.419 144.803 235.952C144.715 236.036 144.626 236.12 144.537 236.204C136.952 243.386 129.936 249.869 124.259 254.863C121.415 257.365 119.018 259.395 117.121 260.912C116.518 261.394 116.019 261.78 115.617 262.085C115.459 262.141 115.302 262.198 115.146 262.258L115.11 262.272C114.725 262.418 112.938 263.096 110.999 264.417L110.983 264.428C110.244 264.931 107.142 267.043 104.899 271.122C103.594 273.496 102.255 277.144 102.537 281.672C102.829 286.362 104.747 290.164 106.951 292.827C110.578 297.211 115.01 298.627 115.966 298.933L116.001 298.944C117.579 299.449 118.882 299.641 119.486 299.719C120.766 299.885 121.81 299.891 122.217 299.891C123.102 299.891 123.938 299.832 124.715 299.736L85.8542 327.844L85.854 327.844C68.5667 340.348 79.3579 367.661 100.525 364.968C100.526 364.968 100.526 364.968 100.526 364.968L130.524 361.152L111.527 381.958C96.7794 398.11 114.049 423.08 134.366 414.982L134.366 414.982L173.209 399.499L205.581 387.321L204.516 393.117L188.475 428.294C188.475 428.295 188.475 428.295 188.475 428.295C183.808 438.528 188.213 450.612 198.369 455.443L222.252 466.802C222.253 466.802 222.253 466.802 222.254 466.802C225.019 468.118 228.041 468.799 231.101 468.799H282.842C289.099 468.799 295.017 465.956 298.927 461.068C298.927 461.068 298.927 461.068 298.927 461.068L310.438 446.68L360.171 143.312ZM378.015 291.806C378.011 291.802 378.008 291.799 378.004 291.796L378.015 291.805L389.094 279.255L378.015 291.806ZM162.875 142.636C162.876 142.635 162.886 142.633 162.906 142.629C162.885 142.634 162.875 142.636 162.875 142.636ZM95.637 326.542C95.6371 326.542 95.6372 326.542 95.6374 326.542L95.637 326.542ZM352.561 416.017C352.555 416.009 352.55 416.002 352.544 415.994L352.561 416.017ZM314.005 328.227L314.258 327.023L314.005 328.227ZM274.014 92.3786L274.157 91.1563L274.014 92.3786Z" fill="#969696" stroke="#C8C8C8" stroke-width="38.7359"/>
</svg>
