<svg width="501" height="501" viewBox="0 0 501 501" fill="none" xmlns="http://www.w3.org/2000/svg">
<path d="M87.0769 321.239C109.806 311.679 165.776 277.826 217.449 254.452L240.336 351.086L106.446 383.348C104.432 385.462 96.4674 395.429 78.2545 414.363C55.6883 418.671 43.0232 403.512 43.0266 380.985L57.1225 363.412C52.2659 361.698 38.2584 356.857 23.6532 351.118C5.39661 343.943 37.944 312.884 41.2759 308.946C43.9414 305.796 74.7727 314.217 87.0769 321.239Z" fill="#470817"/>
<path d="M154.891 320.966C138.367 166.567 365.005 87.9328 383.889 84.0535L471.132 347.096C369.893 389.769 168.11 444.485 154.891 320.966Z" fill="#470817"/>
<path d="M381.983 84.0535C324.07 124.659 380.102 341.475 470.355 347.604C506.456 303.168 495.551 100.908 381.983 84.0535Z" fill="#470817"/>
<ellipse cx="21.072" cy="40.2498" rx="21.072" ry="40.2498" transform="matrix(0.977189 -0.212374 0.217837 0.975985 408.151 178.678)" fill="#470817"/>
<ellipse cx="12.161" cy="23.2289" rx="12.161" ry="23.2289" transform="matrix(0.977189 -0.212374 0.217837 0.975985 416.626 193.393)" fill="#470817"/>
<path d="M86.6045 335.372C109.167 326.288 180.754 294.012 232.052 271.814L242.488 329.025L100.856 373.319C98.8528 375.317 91.3218 384.316 77.2267 404.326C54.8447 408.463 52.402 390.977 53.9785 381.717L70.3948 360.301C65.5872 358.704 52.358 354.169 37.9022 348.814C19.8323 342.12 43.4601 323.101 46.7764 319.38C49.4295 316.403 74.4339 328.801 86.6045 335.372Z" fill="#D9D9D9"/>
<path d="M168.943 315.78C154.12 175.693 360.223 101.074 377.163 97.554L456.216 339.715C365.399 378.433 180.801 427.85 168.943 315.78Z" fill="#985F5F"/>
<path d="M377.868 96.8501C323.519 134.16 373.633 333.379 458.333 339.011C492.213 298.182 484.449 112.337 377.868 96.8501Z" fill="#EA7FB2"/>
<ellipse cx="18.93" cy="36.5098" rx="18.93" ry="36.5098" transform="matrix(0.976714 -0.214545 0.215635 0.976474 397.632 186.632)" fill="#D9D9D9"/>
<ellipse cx="11.3366" cy="21.8647" rx="11.3366" ry="21.8647" transform="matrix(0.976714 -0.214545 0.215635 0.976474 408.505 198.375)" fill="#AF537F"/>
<path d="M458.333 339.011C482.331 305.925 479.602 243.999 471.132 208.801C465.591 242.56 459.039 340.419 376.457 260.168C387.75 287.622 417.395 339.011 458.333 339.011Z" fill="#AF537F"/>
<path d="M173.178 331.972C284.416 357.877 355.282 295.366 376.457 261.576C392.691 297.478 417.395 331.268 458.333 339.011C340.459 389.696 197.882 412.927 173.178 331.972Z" fill="#794444"/>
<path d="M87.7724 359.426C89.4664 357.736 144.709 340.419 171.766 331.971L179.53 348.866C153.65 357.314 102.312 373.505 101.183 373.505C99.7715 373.505 92.0074 384.768 77.185 404.479C64.48 406.591 55.3042 403.071 53.8926 388.992C66.5975 405.183 85.6549 361.538 87.7724 359.426Z" fill="#B8B8B8"/>
<path d="M86.6045 335.372C109.167 326.288 180.754 294.012 232.052 271.814L242.488 329.025L100.856 373.319C98.8528 375.317 91.3218 384.316 77.2267 404.326C54.8447 408.463 52.402 390.977 53.9785 381.717L70.3948 360.301C65.5872 358.704 52.358 354.169 37.9022 348.814C19.8323 342.12 43.4601 323.101 46.7764 319.38C49.4295 316.403 74.4339 328.801 86.6045 335.372Z" fill="#D9D9D9"/>
<path d="M168.943 315.78C154.12 175.693 360.223 101.074 377.163 97.554L456.216 339.715C365.399 378.433 180.801 427.85 168.943 315.78Z" fill="#985F5F"/>
<path d="M377.868 96.8501C323.519 134.16 373.633 333.379 458.333 339.011C492.213 298.182 484.449 112.337 377.868 96.8501Z" fill="#EA7FB2"/>
<ellipse cx="18.93" cy="36.5098" rx="18.93" ry="36.5098" transform="matrix(0.976714 -0.214545 0.215635 0.976474 397.632 186.632)" fill="#D9D9D9"/>
<ellipse cx="11.3366" cy="21.8647" rx="11.3366" ry="21.8647" transform="matrix(0.976714 -0.214545 0.215635 0.976474 408.505 198.375)" fill="#AF537F"/>
<path d="M458.333 339.011C482.331 305.925 479.602 243.999 471.132 208.801C465.591 242.56 459.039 340.419 376.457 260.168C387.75 287.622 417.395 339.011 458.333 339.011Z" fill="#AF537F"/>
<path d="M173.178 331.972C284.416 357.877 355.282 295.366 376.457 261.576C392.691 297.478 417.395 331.268 458.333 339.011C340.459 389.696 197.882 412.927 173.178 331.972Z" fill="#794444"/>
<path d="M87.7724 359.426C89.4664 357.736 144.709 340.419 171.766 331.971L179.53 348.866C153.65 357.314 102.312 373.505 101.183 373.505C99.7715 373.505 92.0074 384.768 77.185 404.479C64.48 406.591 55.3042 403.071 53.8926 388.992C66.5975 405.183 85.6549 361.538 87.7724 359.426Z" fill="#B8B8B8"/>
<path d="M297.296 143.905C313.912 134.982 348.932 116.371 356.09 113.312C342.797 134.727 336.492 168.124 339.474 180.871C334.362 182.146 319.536 185.46 290.906 198.717C277.613 188.52 291.758 157.927 297.296 143.905Z" fill="#794444"/>
<path d="M225.722 193.619C239.781 175.773 270.456 159.201 275.569 155.377C265.344 179.852 264.918 198.717 269.178 205.091C254.693 208.915 216.256 238.055 215.497 233.134C212.941 216.563 210.384 206.366 225.722 193.619Z" fill="#794444"/>
<path d="M362.478 257.354C356.088 243.332 344.585 196.168 344.585 193.619C336.064 197.868 315.444 204.071 290.904 220.387C284.769 233.644 300.277 269.251 308.798 285.397C315.188 279.874 336.916 275.71 362.478 257.354Z" fill="#794444"/>
<path d="M290.904 290.496C281.702 280.299 276.845 244.607 275.567 228.036C257.674 238.658 223.677 251.235 215.497 257.354C207.317 263.473 215.07 295.595 221.887 305.793C232.964 304.518 262.275 299.674 290.904 290.496Z" fill="#794444"/>
<path d="M209.106 240.782C205.698 237.383 204.761 221.407 202.716 220.387C198.029 231.859 181.755 264.492 179.71 267.551C177.665 270.61 198.456 250.98 209.106 240.782Z" fill="#794444"/>
<path d="M211.663 305.792C206.55 303.753 201.438 280.298 200.16 268.826C166.929 287.946 175.876 303.243 177.154 308.342C178.432 313.441 182.266 308.342 211.663 305.792Z" fill="#794444"/>
</svg>
