<svg width="501" height="501" viewBox="0 0 501 501" fill="none" xmlns="http://www.w3.org/2000/svg">
<path d="M87.6284 321.875C110.357 312.319 166.323 278.475 217.993 255.108L240.894 351.744L107.007 383.986C104.993 386.1 97.0304 396.065 78.82 414.996C56.254 419.301 43.5865 404.14 43.5865 381.613L57.6799 364.043C52.823 362.328 38.8145 357.486 24.2081 351.744C5.95019 344.567 38.4935 313.513 41.8248 309.576C44.4899 306.426 75.323 314.851 87.6284 321.875Z" fill="#470817"/>
<path d="M155.433 321.592C138.909 167.192 365.547 88.5576 384.431 84.6782L471.674 347.722C370.435 390.395 168.652 445.112 155.433 321.592Z" fill="#470817"/>
<path d="M382.525 84.6782C324.612 125.284 380.644 342.101 470.897 348.23C506.998 303.794 496.093 101.533 382.525 84.6782Z" fill="#470817"/>
<ellipse cx="21.072" cy="40.25" rx="21.072" ry="40.25" transform="matrix(0.977188 -0.212375 0.217836 0.975985 408.693 179.303)" fill="#470817"/>
<ellipse cx="12.161" cy="23.229" rx="12.161" ry="23.229" transform="matrix(0.977188 -0.212375 0.217836 0.975985 417.167 194.018)" fill="#470817"/>
<path d="M87.1557 336.006C109.717 326.926 181.3 294.66 232.596 272.471L243.041 329.682L101.413 373.954C99.4102 375.952 91.8804 384.95 77.7881 404.957C55.4063 409.091 52.961 391.605 54.536 382.345L70.9495 360.933C66.1416 359.334 52.9115 354.798 38.4545 349.44C20.3834 342.744 44.0087 323.728 47.3245 320.008C49.9772 317.032 74.9839 329.433 87.1557 336.006Z" fill="#AD9F9F"/>
<path d="M169.485 316.407C154.662 176.319 360.765 101.699 377.705 98.1792L456.758 340.341C365.941 379.059 181.343 428.477 169.485 316.407Z" fill="#985F5F"/>
<path d="M378.411 97.4751C324.062 134.785 374.176 334.005 458.875 339.637C492.755 298.807 484.991 112.962 378.411 97.4751Z" fill="#9D4B5F"/>
<ellipse cx="18.93" cy="36.51" rx="18.93" ry="36.51" transform="matrix(0.976714 -0.214546 0.215635 0.976474 398.174 187.257)" fill="#D9D9D9"/>
<ellipse cx="11.3366" cy="21.8648" rx="11.3366" ry="21.8648" transform="matrix(0.976714 -0.214546 0.215635 0.976474 409.048 199.001)" fill="#823A4B"/>
<path d="M458.875 339.637C482.873 306.551 480.144 244.624 471.674 209.427C466.133 243.186 459.581 341.045 376.999 260.794C388.292 288.248 417.937 339.637 458.875 339.637Z" fill="#823A4B"/>
<path d="M173.72 332.598C284.959 358.504 355.824 295.992 376.999 262.202C393.233 298.104 417.937 331.894 458.875 339.637C341.002 390.322 198.424 413.553 173.72 332.598Z" fill="#794444"/>
<path d="M88.3149 360.052C90.0089 358.362 145.252 341.045 172.309 332.597L180.073 349.492C154.192 357.94 102.855 374.131 101.726 374.131C100.314 374.131 92.5499 385.394 77.7274 405.105C65.0225 407.217 55.8467 403.697 54.4351 389.618C67.14 405.809 86.1974 362.164 88.3149 360.052Z" fill="#867373"/>
<path d="M169.485 316.407C154.663 176.319 360.765 101.699 377.705 98.1792L456.758 340.341C365.941 379.059 181.343 428.477 169.485 316.407Z" fill="#6C4343"/>
<path d="M378.411 97.4751C324.062 134.785 374.176 334.005 458.875 339.637C492.755 298.807 484.991 112.962 378.411 97.4751Z" fill="#9D4B5F"/>
<path d="M458.875 339.637C482.873 306.551 480.145 244.624 471.675 209.427C466.134 243.186 459.581 341.045 376.999 260.794C388.292 288.248 417.937 339.637 458.875 339.637Z" fill="#823A4B"/>
<path d="M392.374 107.624C380.496 116.801 358.521 143.417 365.648 176.458C387.029 161.773 392.374 124.45 392.374 107.624Z" fill="#7D3A46"/>
<path d="M423.049 122.919C405.771 136.176 373.807 174.622 384.174 222.347C415.274 201.136 423.049 147.224 423.049 122.919Z" fill="#7D3A46"/>
<path d="M443.498 163.711C424.06 178.668 388.101 222.042 399.764 275.886C434.751 251.955 443.498 191.131 443.498 163.711Z" fill="#7D3A46"/>
<path d="M458.835 201.952C443.717 215.209 415.749 253.654 424.82 301.38C452.032 280.168 458.835 226.257 458.835 201.952Z" fill="#7D3A46"/>
<path d="M471.616 252.941C457.578 263.478 431.607 294.037 440.03 331.973C465.299 315.113 471.616 272.26 471.616 252.941Z" fill="#7D3A46"/>
<ellipse cx="18.93" cy="36.51" rx="18.93" ry="36.51" transform="matrix(0.976714 -0.214546 0.215635 0.976474 398.174 187.257)" fill="#D9D9D9"/>
<ellipse cx="11.3366" cy="21.8648" rx="11.3366" ry="21.8648" transform="matrix(0.976714 -0.214546 0.215635 0.976474 409.048 199.001)" fill="#823A4B"/>
<path d="M173.72 332.598C284.958 358.504 355.824 295.992 376.999 262.202C393.233 298.104 417.937 331.894 458.875 339.637C341.001 390.322 198.424 413.553 173.72 332.598Z" fill="#523333"/>
<path d="M294.728 148.414C311.344 139.491 346.364 120.88 353.521 117.821C340.229 139.236 333.923 172.633 336.906 185.381C331.793 186.655 316.967 189.97 288.337 203.227C275.045 193.029 289.19 162.436 294.728 148.414Z" fill="#523333"/>
<path d="M223.154 198.128C237.213 180.282 267.888 163.71 273 159.886C262.775 184.361 262.349 203.227 266.61 209.6C252.124 213.424 213.688 242.564 212.929 237.644C210.372 221.073 207.816 210.875 223.154 198.128Z" fill="#523333"/>
<path d="M359.91 261.863C353.519 247.841 342.016 200.677 342.016 198.128C333.496 202.377 312.876 208.58 288.336 224.897C282.201 238.154 297.709 273.761 306.229 289.907C312.62 284.383 334.348 280.219 359.91 261.863Z" fill="#523333"/>
<path d="M288.336 295.006C279.134 284.808 274.277 249.116 272.999 232.545C255.105 243.168 221.109 255.745 212.929 261.863C204.749 267.982 212.502 300.105 219.319 310.302C230.396 309.028 259.706 304.184 288.336 295.006Z" fill="#523333"/>
<path d="M206.538 245.292C203.13 241.893 202.192 225.916 200.147 224.897C195.461 236.369 179.187 269.002 177.142 272.061C175.097 275.12 195.887 255.49 206.538 245.292Z" fill="#523333"/>
<path d="M209.094 310.302C203.982 308.263 198.869 284.808 197.591 273.336C164.361 292.456 173.307 307.753 174.586 312.852C175.864 317.951 179.698 312.852 209.094 310.302Z" fill="#523333"/>
</svg>
