<svg width="501" height="501" viewBox="0 0 501 501" fill="none" xmlns="http://www.w3.org/2000/svg">
<path d="M87.3674 321.186C110.097 311.627 166.067 277.774 217.739 254.4L240.626 351.033L106.736 383.296C104.722 385.41 96.758 395.377 78.5451 414.311C55.9788 418.619 43.3138 403.459 43.3172 380.932L57.413 363.36C52.5564 361.645 38.5489 356.805 23.9437 351.065C5.68713 343.891 38.2345 312.832 41.5664 308.894C44.2319 305.744 75.0633 314.165 87.3674 321.186Z" fill="#470817"/>
<path d="M155.181 320.914C138.658 166.515 365.295 87.8803 384.179 84.0009L471.423 347.043C370.184 389.716 168.4 444.433 155.181 320.914Z" fill="#470817"/>
<path d="M382.273 84.001C324.361 124.606 380.392 341.422 470.645 347.551C506.746 303.116 495.841 100.856 382.273 84.001Z" fill="#470817"/>
<ellipse cx="21.072" cy="40.2498" rx="21.072" ry="40.2498" transform="matrix(0.977189 -0.212374 0.217837 0.975985 408.441 178.626)" fill="#470817"/>
<ellipse cx="12.161" cy="23.2289" rx="12.161" ry="23.2289" transform="matrix(0.977189 -0.212374 0.217837 0.975985 416.917 193.34)" fill="#470817"/>
<path d="M86.895 335.319C109.457 326.235 181.044 293.959 232.343 271.761L242.778 328.972L101.147 373.266C99.1433 375.264 91.6123 384.263 77.5172 404.273C55.1352 408.41 52.6926 390.924 54.269 381.664L70.6854 360.249C65.8777 358.651 52.6486 354.117 38.1927 348.761C20.1228 342.067 43.7506 323.048 47.0669 319.327C49.72 316.35 74.7244 328.748 86.895 335.319Z" fill="#D9D9D9"/>
<path d="M169.233 315.728C154.411 175.641 360.513 101.021 377.453 97.5015L456.506 339.663C365.689 378.38 181.091 427.798 169.233 315.728Z" fill="#985F5F"/>
<path d="M378.158 96.7974C323.809 134.107 373.923 333.327 458.623 338.958C492.503 298.129 484.739 112.284 378.158 96.7974Z" fill="#EA7FB2"/>
<ellipse cx="18.93" cy="36.5098" rx="18.93" ry="36.5098" transform="matrix(0.976714 -0.214545 0.215635 0.976474 397.922 186.579)" fill="#D9D9D9"/>
<ellipse cx="11.3366" cy="21.8647" rx="11.3366" ry="21.8647" transform="matrix(0.976714 -0.214545 0.215635 0.976474 408.795 198.323)" fill="#AF537F"/>
<path d="M458.623 338.958C482.622 305.872 479.893 243.946 471.423 208.748C465.882 242.508 459.329 340.366 376.747 260.115C388.04 287.57 417.685 338.958 458.623 338.958Z" fill="#AF537F"/>
<path d="M173.468 331.919C284.707 357.824 355.572 295.313 376.747 261.523C392.981 297.425 417.685 331.215 458.623 338.958C340.75 389.643 198.172 412.874 173.468 331.919Z" fill="#794444"/>
<path d="M88.0629 359.373C89.7569 357.684 145 340.366 172.057 331.919L179.821 348.814C153.94 357.261 102.603 373.452 101.474 373.452C100.062 373.452 92.2979 384.716 77.4755 404.427C64.7705 406.538 55.5948 403.019 54.1831 388.939C66.888 405.13 85.9454 361.485 88.0629 359.373Z" fill="#B8B8B8"/>
<path d="M86.895 335.319C109.457 326.235 181.044 293.959 232.343 271.761L242.778 328.972L101.147 373.266C99.1433 375.264 91.6123 384.263 77.5172 404.273C55.1352 408.41 52.6926 390.924 54.269 381.664L70.6854 360.249C65.8777 358.651 52.6486 354.117 38.1927 348.761C20.1228 342.067 43.7506 323.048 47.0669 319.327C49.72 316.35 74.7244 328.748 86.895 335.319Z" fill="#D9D9D9"/>
<path d="M169.233 315.728C154.411 175.641 360.513 101.021 377.453 97.5015L456.506 339.663C365.689 378.38 181.091 427.798 169.233 315.728Z" fill="#985F5F"/>
<path d="M378.158 96.7974C323.809 134.107 373.923 333.327 458.623 338.958C492.503 298.129 484.739 112.284 378.158 96.7974Z" fill="#EA7FB2"/>
<ellipse cx="18.93" cy="36.5098" rx="18.93" ry="36.5098" transform="matrix(0.976714 -0.214545 0.215635 0.976474 397.922 186.579)" fill="#D9D9D9"/>
<ellipse cx="11.3366" cy="21.8647" rx="11.3366" ry="21.8647" transform="matrix(0.976714 -0.214545 0.215635 0.976474 408.795 198.323)" fill="#AF537F"/>
<path d="M458.623 338.958C482.622 305.872 479.893 243.946 471.423 208.748C465.882 242.508 459.329 340.366 376.747 260.115C388.04 287.57 417.685 338.958 458.623 338.958Z" fill="#AF537F"/>
<path d="M173.468 331.919C284.707 357.824 355.572 295.313 376.747 261.523C392.981 297.425 417.685 331.215 458.623 338.958C340.75 389.643 198.172 412.874 173.468 331.919Z" fill="#794444"/>
<path d="M88.0629 359.373C89.7569 357.684 145 340.366 172.057 331.919L179.821 348.814C153.94 357.261 102.603 373.452 101.474 373.452C100.062 373.452 92.2979 384.716 77.4755 404.427C64.7705 406.538 55.5948 403.019 54.1831 388.939C66.888 405.13 85.9454 361.485 88.0629 359.373Z" fill="#B8B8B8"/>
<path d="M297.587 143.852C314.203 134.929 349.223 116.319 356.381 113.259C343.088 134.674 336.783 168.072 339.765 180.819C334.653 182.093 319.827 185.408 291.197 198.665C277.904 188.467 292.049 157.874 297.587 143.852Z" fill="#794444"/>
<path d="M226.013 193.566C240.072 175.72 270.747 159.149 275.86 155.325C265.635 179.799 265.209 198.665 269.469 205.038C254.984 208.862 216.547 238.002 215.788 233.082C213.232 216.511 210.675 206.313 226.013 193.566Z" fill="#794444"/>
<path d="M362.769 257.301C356.379 243.279 344.876 196.115 344.876 193.566C336.355 197.815 315.735 204.018 291.195 220.335C285.06 233.592 300.568 269.198 309.089 285.345C315.479 279.821 337.207 275.657 362.769 257.301Z" fill="#794444"/>
<path d="M291.195 290.444C281.993 280.246 277.136 244.554 275.858 227.983C257.965 238.605 223.968 251.183 215.788 257.301C207.608 263.42 215.361 295.542 222.178 305.74C233.255 304.465 262.566 299.621 291.195 290.444Z" fill="#794444"/>
<path d="M209.397 240.73C205.989 237.331 205.052 221.354 203.007 220.335C198.32 231.807 182.046 264.44 180.001 267.499C177.956 270.558 198.747 250.928 209.397 240.73Z" fill="#794444"/>
<path d="M211.954 305.74C206.841 303.701 201.729 280.246 200.451 268.774C167.22 287.894 176.167 303.191 177.445 308.289C178.723 313.388 182.557 308.289 211.954 305.74Z" fill="#794444"/>
</svg>
