<svg width="400" height="400" viewBox="0 0 400 400" fill="none" xmlns="http://www.w3.org/2000/svg">
<path d="M69.743 256.971C87.9168 249.33 132.667 222.268 173.983 203.585L192.295 280.855L85.2381 306.636C83.628 308.326 77.2608 316.295 62.6997 331.432C44.6558 334.874 34.5268 322.751 34.5268 304.739L45.796 290.689C41.9123 289.318 30.7111 285.446 19.0317 280.855C4.43259 275.116 30.4544 250.285 33.1181 247.137C35.2491 244.618 59.9035 251.355 69.743 256.971Z" fill="#470817"/>
<path d="M123.96 256.745C110.748 133.287 291.968 70.4099 307.068 67.3079L376.828 277.639C295.877 311.761 134.53 355.512 123.96 256.745Z" fill="#470817"/>
<path d="M305.544 67.3079C259.237 99.7762 304.04 273.144 376.207 278.045C405.073 242.514 396.354 80.7853 305.544 67.3079Z" fill="#470817"/>
<ellipse cx="16.8493" cy="32.1841" rx="16.8493" ry="32.1841" transform="matrix(0.977188 -0.212375 0.217836 0.975985 326.468 142.97)" fill="#470817"/>
<ellipse cx="9.72401" cy="18.574" rx="9.72401" ry="18.574" transform="matrix(0.977188 -0.212375 0.217836 0.975985 333.245 154.737)" fill="#470817"/>
<path d="M69.365 268.271C87.4053 261.01 144.644 235.21 185.66 217.467L194.011 263.214L80.7656 298.614C79.1637 300.212 73.1429 307.407 61.8746 323.405C43.978 326.71 42.0227 312.728 43.2821 305.324L56.4064 288.202C52.562 286.924 41.9831 283.297 30.4233 279.013C15.9734 273.658 34.8644 258.453 37.5158 255.478C39.6369 253.099 59.6324 263.015 69.365 268.271Z" fill="#AD9F9F"/>
<path d="M135.196 252.599C123.344 140.584 288.144 80.9175 301.69 78.103L364.901 271.737C292.283 302.696 144.677 342.211 135.196 252.599Z" fill="#985F5F"/>
<path d="M302.254 77.5402C258.796 107.373 298.868 266.671 366.594 271.174C393.685 238.527 387.476 89.9237 302.254 77.5402Z" fill="#9D4B5F"/>
<ellipse cx="15.1365" cy="29.1936" rx="15.1365" ry="29.1936" transform="matrix(0.976714 -0.214546 0.215635 0.976474 318.057 149.33)" fill="#D9D9D9"/>
<ellipse cx="9.06483" cy="17.4832" rx="9.06483" ry="17.4832" transform="matrix(0.976714 -0.214546 0.215635 0.976474 326.752 158.721)" fill="#823A4B"/>
<path d="M366.594 271.174C385.783 244.718 383.601 195.201 376.828 167.057C372.398 194.051 367.158 272.3 301.125 208.131C310.155 230.083 333.86 271.174 366.594 271.174Z" fill="#823A4B"/>
<path d="M138.582 265.545C227.529 286.26 284.194 236.275 301.125 209.256C314.106 237.964 333.86 264.982 366.594 271.174C272.342 311.702 158.336 330.278 138.582 265.545Z" fill="#794444"/>
<path d="M70.2919 287.498C71.6464 286.147 115.819 272.3 137.454 265.545L143.662 279.055C122.968 285.809 81.9182 298.756 81.0152 298.756C79.8865 298.756 73.6782 307.762 61.8261 323.523C51.6672 325.212 44.3302 322.397 43.2014 311.139C53.3604 324.086 68.5988 289.187 70.2919 287.498Z" fill="#867373"/>
<path d="M135.196 252.599C123.344 140.584 288.145 80.9175 301.69 78.103L364.901 271.737C292.283 302.696 144.678 342.211 135.196 252.599Z" fill="#6C4343"/>
<path d="M302.254 77.5402C258.796 107.373 298.868 266.671 366.594 271.174C393.685 238.527 387.476 89.9237 302.254 77.5402Z" fill="#9D4B5F"/>
<path d="M366.594 271.174C385.783 244.718 383.601 195.201 376.829 167.057C372.398 194.051 367.159 272.3 301.125 208.131C310.156 230.083 333.86 271.174 366.594 271.174Z" fill="#823A4B"/>
<path d="M313.419 85.6547C303.921 92.9934 286.35 114.276 292.049 140.695C309.145 128.953 313.419 99.109 313.419 85.6547Z" fill="#7D3A46"/>
<path d="M337.947 97.8859C324.132 108.486 298.573 139.227 306.862 177.389C331.73 160.428 337.947 117.32 337.947 97.8859Z" fill="#7D3A46"/>
<path d="M354.298 130.502C338.756 142.462 310.003 177.144 319.328 220.198C347.304 201.063 354.298 152.428 354.298 130.502Z" fill="#7D3A46"/>
<path d="M366.562 161.08C354.474 171.681 332.11 202.422 339.363 240.583C361.122 223.623 366.562 180.514 366.562 161.08Z" fill="#7D3A46"/>
<path d="M376.782 201.851C365.557 210.277 344.791 234.712 351.526 265.046C371.731 251.564 376.782 217.299 376.782 201.851Z" fill="#7D3A46"/>
<ellipse cx="15.1365" cy="29.1936" rx="15.1365" ry="29.1936" transform="matrix(0.976714 -0.214546 0.215635 0.976474 318.057 149.33)" fill="#D9D9D9"/>
<ellipse cx="9.06483" cy="17.4832" rx="9.06483" ry="17.4832" transform="matrix(0.976714 -0.214546 0.215635 0.976474 326.752 158.721)" fill="#823A4B"/>
<path d="M138.582 265.545C227.529 286.26 284.194 236.275 301.125 209.256C314.106 237.964 333.86 264.982 366.594 271.174C272.342 311.702 158.336 330.278 138.582 265.545Z" fill="#523333"/>
<path d="M235.341 118.271C248.627 111.136 276.629 96.2551 282.352 93.8088C271.724 110.933 266.682 137.637 269.066 147.83C264.978 148.849 253.123 151.499 230.231 162.1C219.602 153.946 230.912 129.483 235.341 118.271Z" fill="#523333"/>
<path d="M178.11 158.023C189.352 143.753 213.879 130.502 217.967 127.445C209.791 147.015 209.451 162.1 212.857 167.196C201.275 170.254 170.541 193.554 169.934 189.62C167.89 176.369 165.846 168.215 178.11 158.023Z" fill="#523333"/>
<path d="M287.461 208.986C282.351 197.774 273.153 160.061 273.153 158.023C266.34 161.42 249.852 166.381 230.23 179.427C225.324 190.028 237.724 218.499 244.537 231.41C249.647 226.993 267.021 223.663 287.461 208.986Z" fill="#523333"/>
<path d="M230.23 235.487C222.872 227.333 218.988 198.793 217.966 185.543C203.658 194.037 176.475 204.094 169.934 208.986C163.393 213.879 169.593 239.564 175.043 247.718C183.9 246.699 207.337 242.826 230.23 235.487Z" fill="#523333"/>
<path d="M164.824 195.736C162.098 193.018 161.349 180.243 159.714 179.427C155.966 188.601 142.953 214.694 141.318 217.14C139.683 219.586 156.307 203.89 164.824 195.736Z" fill="#523333"/>
<path d="M166.868 247.718C162.78 246.087 158.692 227.333 157.67 218.159C131.098 233.448 138.252 245.68 139.274 249.757C140.296 253.834 143.362 249.757 166.868 247.718Z" fill="#523333"/>
</svg>
