<svg width="1001" height="1001" viewBox="0 0 1001 1001" fill="none" xmlns="http://www.w3.org/2000/svg">
<path d="M174.082 642.874C219.541 623.755 331.481 556.049 434.826 509.301L480.6 702.568L212.819 767.093C208.792 771.321 192.863 791.254 156.437 829.122C111.305 837.739 85.9747 807.419 85.9815 762.365L114.173 727.22C104.46 723.792 76.445 714.111 47.2345 702.632C10.7214 688.282 75.8162 626.164 82.48 618.289C87.811 611.988 149.474 628.83 174.082 642.874Z" fill="#470817"/>
<path d="M309.71 642.328C276.663 333.531 729.937 176.262 767.705 168.503L942.193 694.588C739.714 779.934 336.147 889.367 309.71 642.328Z" fill="#470817"/>
<path d="M763.893 168.503C648.068 249.713 760.131 683.346 940.637 695.604C1012.84 606.732 991.03 202.213 763.893 168.503Z" fill="#470817"/>
<ellipse cx="42.1439" cy="80.4997" rx="42.1439" ry="80.4997" transform="matrix(0.977189 -0.212374 0.217837 0.975985 816.23 357.752)" fill="#470817"/>
<ellipse cx="24.322" cy="46.4578" rx="24.322" ry="46.4578" transform="matrix(0.977189 -0.212374 0.217837 0.975985 833.18 387.182)" fill="#470817"/>
<path d="M173.137 671.139C218.262 652.971 361.436 588.419 464.032 544.023L484.904 658.445L201.641 747.033C197.634 751.029 182.572 769.027 154.382 809.047C109.618 817.321 104.732 782.349 107.885 763.829L140.718 720.998C131.103 717.803 104.644 708.734 75.7325 698.023C39.5928 684.635 86.8484 646.597 93.481 639.155C98.7872 633.201 148.796 657.997 173.137 671.139Z" fill="#D9D9D9"/>
<path d="M337.814 631.957C308.169 351.782 720.374 202.543 754.253 195.504L912.359 679.826C730.726 757.261 361.53 856.097 337.814 631.957Z" fill="#985F5F"/>
<path d="M755.665 194.096C646.967 268.716 747.195 667.155 916.594 678.418C984.354 596.759 968.825 225.07 755.665 194.096Z" fill="#EA7FB2"/>
<ellipse cx="37.86" cy="73.0197" rx="37.86" ry="73.0197" transform="matrix(0.976714 -0.214545 0.215635 0.976474 795.192 373.659)" fill="#D9D9D9"/>
<ellipse cx="22.6733" cy="43.7294" rx="22.6733" ry="43.7294" transform="matrix(0.976714 -0.214545 0.215635 0.976474 816.939 397.146)" fill="#AF537F"/>
<path d="M916.594 678.418C964.59 612.246 959.132 488.393 942.192 417.997C931.111 485.516 918.005 681.233 752.841 520.731C775.428 575.64 834.718 678.418 916.594 678.418Z" fill="#AF537F"/>
<path d="M346.284 664.339C568.761 716.15 710.492 591.128 752.842 523.548C785.31 595.351 834.718 662.931 916.594 678.418C680.847 779.788 395.692 826.249 346.284 664.339Z" fill="#794444"/>
<path d="M175.473 719.247C178.861 715.868 289.346 681.234 343.46 664.339L358.988 698.129C307.227 715.024 204.553 747.406 202.294 747.406C199.471 747.406 183.942 769.932 154.298 809.354C128.888 813.578 110.536 806.538 107.713 778.38C133.123 810.762 171.238 723.471 175.473 719.247Z" fill="#B8B8B8"/>
<path d="M173.137 671.139C218.262 652.971 361.436 588.419 464.032 544.023L484.904 658.445L201.641 747.033C197.634 751.029 182.572 769.027 154.382 809.047C109.618 817.321 104.732 782.349 107.885 763.829L140.718 720.998C131.103 717.803 104.644 708.734 75.7325 698.023C39.5928 684.635 86.8484 646.597 93.481 639.155C98.7872 633.201 148.796 657.997 173.137 671.139Z" fill="#D9D9D9"/>
<path d="M337.814 631.957C308.169 351.782 720.374 202.543 754.253 195.504L912.359 679.826C730.726 757.261 361.53 856.097 337.814 631.957Z" fill="#985F5F"/>
<path d="M755.665 194.096C646.967 268.716 747.195 667.155 916.594 678.418C984.354 596.759 968.825 225.07 755.665 194.096Z" fill="#EA7FB2"/>
<ellipse cx="37.86" cy="73.0197" rx="37.86" ry="73.0197" transform="matrix(0.976714 -0.214545 0.215635 0.976474 795.192 373.659)" fill="#D9D9D9"/>
<ellipse cx="22.6733" cy="43.7294" rx="22.6733" ry="43.7294" transform="matrix(0.976714 -0.214545 0.215635 0.976474 816.939 397.146)" fill="#AF537F"/>
<path d="M916.594 678.418C964.59 612.246 959.132 488.393 942.192 417.997C931.111 485.516 918.005 681.233 752.841 520.731C775.428 575.64 834.718 678.418 916.594 678.418Z" fill="#AF537F"/>
<path d="M346.284 664.339C568.761 716.15 710.492 591.128 752.842 523.548C785.31 595.351 834.718 662.931 916.594 678.418C680.847 779.788 395.692 826.249 346.284 664.339Z" fill="#794444"/>
<path d="M175.473 719.247C178.861 715.868 289.346 681.234 343.46 664.339L358.988 698.129C307.227 715.024 204.553 747.406 202.294 747.406C199.471 747.406 183.942 769.932 154.298 809.354C128.888 813.578 110.536 806.538 107.713 778.38C133.123 810.762 171.238 723.471 175.473 719.247Z" fill="#B8B8B8"/>
<path d="M594.521 288.205C627.752 270.36 697.793 233.138 712.107 227.02C685.523 269.85 672.912 336.644 678.876 362.138C668.652 364.688 638.999 371.316 581.74 397.83C555.155 377.435 583.444 316.249 594.521 288.205Z" fill="#794444"/>
<path d="M451.373 387.633C479.491 351.941 540.84 318.798 551.065 311.15C530.616 360.099 529.763 397.83 538.284 410.577C509.313 418.226 432.441 476.505 430.923 466.664C425.809 433.522 420.697 413.127 451.373 387.633Z" fill="#794444"/>
<path d="M724.884 515.103C712.103 487.06 689.098 392.731 689.098 387.633C672.056 396.131 630.817 408.538 581.737 441.17C569.467 467.684 600.482 538.898 617.524 571.19C630.305 560.143 673.76 551.815 724.884 515.103Z" fill="#794444"/>
<path d="M581.737 581.388C563.332 560.993 553.619 489.609 551.063 456.467C515.276 477.712 447.283 502.866 430.923 515.103C414.563 527.341 430.069 591.586 443.702 611.981C465.856 609.432 524.478 599.744 581.737 581.388Z" fill="#794444"/>
<path d="M418.141 481.961C411.324 475.162 409.45 443.209 405.36 441.17C395.987 464.115 363.438 529.38 359.348 535.498C355.259 541.617 396.839 502.356 418.141 481.961Z" fill="#794444"/>
<path d="M423.253 611.981C413.029 607.902 402.804 560.992 400.248 538.048C333.786 576.289 351.68 606.882 354.236 617.08C356.792 627.277 364.461 617.08 423.253 611.981Z" fill="#794444"/>
</svg>
