<svg width="400" height="400" viewBox="0 0 400 400" fill="none" xmlns="http://www.w3.org/2000/svg">
<path d="M69.2648 256.631C87.4395 248.988 132.193 221.919 173.511 203.228L191.811 280.497L84.7522 306.295C83.1419 307.985 76.7736 315.954 62.2105 331.094C44.1664 334.539 34.0393 322.417 34.042 304.404L45.3132 290.353C41.4298 288.983 30.2293 285.112 18.5509 280.523C3.95286 274.786 29.9779 249.951 32.6421 246.802C34.7735 244.283 59.4264 251.017 69.2648 256.631Z" fill="#470817"/>
<path d="M123.489 256.413C110.277 132.955 291.497 70.0785 306.597 66.9765L376.358 277.307C295.406 311.428 134.059 355.18 123.489 256.413Z" fill="#470817"/>
<path d="M305.073 66.9765C258.766 99.4446 303.569 272.812 375.736 277.713C404.603 242.182 395.883 80.4538 305.073 66.9765Z" fill="#470817"/>
<ellipse cx="16.8493" cy="32.184" rx="16.8493" ry="32.184" transform="matrix(0.977189 -0.212374 0.217837 0.975985 325.997 142.639)" fill="#470817"/>
<ellipse cx="9.72401" cy="18.574" rx="9.72401" ry="18.574" transform="matrix(0.977189 -0.212374 0.217837 0.975985 332.774 154.405)" fill="#470817"/>
<path d="M68.8873 267.932C86.9283 260.669 144.17 234.86 185.188 217.111L193.532 262.857L80.2832 298.274C78.6811 299.872 72.6593 307.068 61.3888 323.068C43.492 326.376 41.5388 312.394 42.7993 304.99L55.926 287.866C52.0818 286.588 41.5036 282.963 29.9446 278.68C15.4959 273.328 34.3888 258.12 37.0405 255.145C39.162 252.764 59.1556 262.678 68.8873 267.932Z" fill="#D9D9D9"/>
<path d="M134.725 252.267C122.873 140.252 287.674 80.586 301.219 77.7716L364.43 271.405C291.813 302.364 144.207 341.878 134.725 252.267Z" fill="#985F5F"/>
<path d="M301.783 77.2087C258.326 107.042 298.397 266.339 366.123 270.842C393.214 238.194 387.006 89.5922 301.783 77.2087Z" fill="#EA7FB2"/>
<ellipse cx="15.1365" cy="29.1935" rx="15.1365" ry="29.1935" transform="matrix(0.976714 -0.214545 0.215635 0.976474 317.586 148.999)" fill="#D9D9D9"/>
<ellipse cx="9.06483" cy="17.4831" rx="9.06483" ry="17.4831" transform="matrix(0.976714 -0.214545 0.215635 0.976474 326.281 158.389)" fill="#AF537F"/>
<path d="M366.123 270.842C385.312 244.386 383.13 194.869 376.358 166.725C371.927 193.719 366.688 271.968 300.655 207.799C309.685 229.751 333.389 270.842 366.123 270.842Z" fill="#AF537F"/>
<path d="M138.112 265.213C227.059 285.927 283.723 235.943 300.655 208.924C313.635 237.632 333.389 264.65 366.123 270.842C271.871 311.37 157.865 329.945 138.112 265.213Z" fill="#794444"/>
<path d="M69.8211 287.166C71.1756 285.815 115.348 271.968 136.983 265.213L143.191 278.722C122.497 285.477 81.4474 298.423 80.5444 298.423C79.4156 298.423 73.2074 307.43 61.3553 323.19C51.1964 324.879 43.8594 322.065 42.7306 310.807C52.8895 323.753 68.1279 288.854 69.8211 287.166Z" fill="#B8B8B8"/>
<path d="M68.8873 267.932C86.9283 260.669 144.17 234.86 185.188 217.111L193.532 262.857L80.2832 298.274C78.6811 299.872 72.6593 307.068 61.3888 323.068C43.492 326.376 41.5388 312.394 42.7993 304.99L55.926 287.866C52.0818 286.588 41.5036 282.963 29.9446 278.68C15.4959 273.328 34.3888 258.12 37.0405 255.145C39.162 252.764 59.1556 262.678 68.8873 267.932Z" fill="#D9D9D9"/>
<path d="M134.725 252.267C122.873 140.252 287.674 80.586 301.219 77.7716L364.43 271.405C291.813 302.364 144.207 341.878 134.725 252.267Z" fill="#985F5F"/>
<path d="M301.783 77.2087C258.326 107.042 298.397 266.339 366.123 270.842C393.214 238.194 387.006 89.5922 301.783 77.2087Z" fill="#EA7FB2"/>
<ellipse cx="15.1365" cy="29.1935" rx="15.1365" ry="29.1935" transform="matrix(0.976714 -0.214545 0.215635 0.976474 317.586 148.999)" fill="#D9D9D9"/>
<ellipse cx="9.06483" cy="17.4831" rx="9.06483" ry="17.4831" transform="matrix(0.976714 -0.214545 0.215635 0.976474 326.281 158.389)" fill="#AF537F"/>
<path d="M366.123 270.842C385.312 244.386 383.13 194.869 376.358 166.725C371.927 193.719 366.688 271.968 300.655 207.799C309.685 229.751 333.389 270.842 366.123 270.842Z" fill="#AF537F"/>
<path d="M138.112 265.213C227.059 285.927 283.723 235.943 300.655 208.924C313.635 237.632 333.389 264.65 366.123 270.842C271.871 311.37 157.865 329.945 138.112 265.213Z" fill="#794444"/>
<path d="M69.8211 287.166C71.1756 285.815 115.348 271.968 136.983 265.213L143.191 278.722C122.497 285.477 81.4474 298.423 80.5444 298.423C79.4156 298.423 73.2074 307.43 61.3553 323.19C51.1964 324.879 43.8594 322.065 42.7306 310.807C52.8895 323.753 68.1279 288.854 69.8211 287.166Z" fill="#B8B8B8"/>
<path d="M237.358 114.834C250.644 107.699 278.646 92.8178 284.369 90.3716C273.74 107.495 268.699 134.2 271.083 144.393C266.995 145.412 255.14 148.062 232.248 158.662C221.619 150.508 232.929 126.046 237.358 114.834Z" fill="#794444"/>
<path d="M180.127 154.585C191.368 140.315 215.896 127.065 219.984 124.007C211.808 143.577 211.467 158.662 214.874 163.759C203.292 166.816 172.558 190.116 171.951 186.182C169.906 172.932 167.862 164.778 180.127 154.585Z" fill="#794444"/>
<path d="M289.477 205.548C284.368 194.336 275.17 156.624 275.17 154.585C268.356 157.983 251.869 162.943 232.247 175.99C227.341 186.59 239.741 215.061 246.554 227.972C251.664 223.555 269.038 220.226 289.477 205.548Z" fill="#794444"/>
<path d="M232.247 232.049C224.888 223.895 221.005 195.356 219.983 182.105C205.675 190.599 178.492 200.656 171.951 205.548C165.41 210.441 171.609 236.126 177.06 244.28C185.917 243.261 209.354 239.388 232.247 232.049Z" fill="#794444"/>
<path d="M166.84 192.298C164.115 189.58 163.366 176.805 161.731 175.99C157.983 185.163 144.97 211.256 143.335 213.702C141.7 216.149 158.324 200.452 166.84 192.298Z" fill="#794444"/>
<path d="M168.884 244.28C164.796 242.649 160.709 223.895 159.687 214.722C133.115 230.011 140.269 242.242 141.291 246.319C142.313 250.396 145.379 246.319 168.884 244.28Z" fill="#794444"/>
</svg>
