<svg width="501" height="501" viewBox="0 0 501 501" fill="none" xmlns="http://www.w3.org/2000/svg">
<path d="M86.8313 321.782C109.561 312.222 165.531 278.369 217.203 254.995L240.09 351.629L106.2 383.891C104.186 386.005 96.2218 395.972 78.0089 414.906C55.4427 419.214 42.7776 404.054 42.781 381.527L56.8769 363.955C52.0203 362.241 38.0128 357.4 23.4075 351.66C5.151 344.486 37.6984 313.427 41.0303 309.489C43.6958 306.339 74.5271 314.76 86.8313 321.782Z" fill="#470817"/>
<path d="M154.645 321.509C138.121 167.11 364.759 88.4753 383.643 84.5959L470.886 347.638C369.647 390.311 167.864 445.028 154.645 321.509Z" fill="#470817"/>
<path d="M381.737 84.5959C323.824 125.201 379.856 342.017 470.109 348.146C506.21 303.711 495.305 101.451 381.737 84.5959Z" fill="#470817"/>
<ellipse cx="21.072" cy="40.2498" rx="21.072" ry="40.2498" transform="matrix(0.977189 -0.212374 0.217837 0.975985 407.905 179.22)" fill="#470817"/>
<ellipse cx="12.161" cy="23.2289" rx="12.161" ry="23.2289" transform="matrix(0.977189 -0.212374 0.217837 0.975985 416.38 193.935)" fill="#470817"/>
<path d="M86.3589 335.914C108.921 326.83 180.508 294.554 231.806 272.356L242.242 329.567L100.611 373.861C98.6072 375.859 91.0762 384.858 76.9811 404.868C54.5991 409.005 52.1564 391.519 53.7329 382.259L70.1492 360.844C65.3416 359.246 52.1124 354.712 37.6566 349.356C19.5867 342.662 43.2145 323.643 46.5308 319.922C49.1839 316.945 74.1883 329.343 86.3589 335.914Z" fill="#D9D9D9"/>
<path d="M168.697 316.323C153.875 176.236 359.977 101.616 376.917 98.0967L455.97 340.258C365.153 378.975 180.555 428.393 168.697 316.323Z" fill="#985F5F"/>
<path d="M377.623 97.3926C323.274 134.702 373.388 333.922 458.087 339.554C491.967 298.724 484.203 112.88 377.623 97.3926Z" fill="#EA7FB2"/>
<ellipse cx="18.93" cy="36.5098" rx="18.93" ry="36.5098" transform="matrix(0.976714 -0.214545 0.215635 0.976474 397.386 187.174)" fill="#D9D9D9"/>
<ellipse cx="11.3366" cy="21.8647" rx="11.3366" ry="21.8647" transform="matrix(0.976714 -0.214545 0.215635 0.976474 408.26 198.918)" fill="#AF537F"/>
<path d="M458.087 339.554C482.085 306.468 479.356 244.541 470.887 209.343C465.346 243.103 458.793 340.961 376.211 260.71C387.504 288.165 417.149 339.554 458.087 339.554Z" fill="#AF537F"/>
<path d="M172.932 332.514C284.17 358.42 355.036 295.908 376.211 262.118C392.445 298.02 417.149 331.81 458.087 339.554C340.213 390.238 197.636 413.469 172.932 332.514Z" fill="#794444"/>
<path d="M87.5263 359.968C89.2203 358.279 144.463 340.962 171.52 332.514L179.284 349.409C153.404 357.857 102.066 374.048 100.937 374.048C99.5254 374.048 91.7613 385.311 76.9389 405.022C64.2339 407.134 55.0581 403.614 53.6465 389.535C66.3514 405.726 85.4088 362.08 87.5263 359.968Z" fill="#B8B8B8"/>
<path d="M86.3589 335.914C108.921 326.83 180.508 294.554 231.806 272.356L242.242 329.567L100.611 373.861C98.6072 375.859 91.0762 384.858 76.9811 404.868C54.5991 409.005 52.1564 391.519 53.7329 382.259L70.1492 360.844C65.3416 359.246 52.1124 354.712 37.6566 349.356C19.5867 342.662 43.2145 323.643 46.5308 319.922C49.1839 316.945 74.1883 329.343 86.3589 335.914Z" fill="#D9D9D9"/>
<path d="M168.697 316.323C153.875 176.236 359.977 101.616 376.917 98.0967L455.97 340.258C365.153 378.975 180.555 428.393 168.697 316.323Z" fill="#985F5F"/>
<path d="M377.623 97.3926C323.274 134.702 373.388 333.922 458.087 339.554C491.967 298.724 484.203 112.88 377.623 97.3926Z" fill="#EA7FB2"/>
<ellipse cx="18.93" cy="36.5098" rx="18.93" ry="36.5098" transform="matrix(0.976714 -0.214545 0.215635 0.976474 397.386 187.174)" fill="#D9D9D9"/>
<ellipse cx="11.3366" cy="21.8647" rx="11.3366" ry="21.8647" transform="matrix(0.976714 -0.214545 0.215635 0.976474 408.26 198.918)" fill="#AF537F"/>
<path d="M458.087 339.554C482.085 306.468 479.356 244.541 470.887 209.343C465.346 243.103 458.793 340.961 376.211 260.71C387.504 288.165 417.149 339.554 458.087 339.554Z" fill="#AF537F"/>
<path d="M172.932 332.514C284.17 358.42 355.036 295.908 376.211 262.118C392.445 298.02 417.149 331.81 458.087 339.554C340.213 390.238 197.636 413.469 172.932 332.514Z" fill="#794444"/>
<path d="M87.5263 359.968C89.2203 358.279 144.463 340.962 171.52 332.514L179.284 349.409C153.404 357.857 102.066 374.048 100.937 374.048C99.5254 374.048 91.7613 385.311 76.9389 405.022C64.2339 407.134 55.0581 403.614 53.6465 389.535C66.3514 405.726 85.4088 362.08 87.5263 359.968Z" fill="#B8B8B8"/>
<path d="M297.051 144.447C313.666 135.524 348.687 116.914 355.844 113.854C342.552 135.269 336.246 168.667 339.228 181.414C334.116 182.688 319.29 186.003 290.66 199.26C277.368 189.062 291.512 158.469 297.051 144.447Z" fill="#794444"/>
<path d="M225.477 194.161C239.536 176.315 270.21 159.744 275.323 155.92C265.098 180.394 264.672 199.26 268.932 205.633C254.447 209.457 216.011 238.597 215.252 233.677C212.695 217.106 210.139 206.908 225.477 194.161Z" fill="#794444"/>
<path d="M362.232 257.896C355.842 243.874 344.339 196.71 344.339 194.161C335.818 198.41 315.199 204.613 290.659 220.93C284.524 234.187 300.031 269.793 308.552 285.94C314.943 280.416 336.67 276.252 362.232 257.896Z" fill="#794444"/>
<path d="M290.659 291.039C281.456 280.841 276.6 245.149 275.322 228.578C257.428 239.2 223.432 251.778 215.252 257.896C207.072 264.015 214.825 296.137 221.642 306.335C232.718 305.06 262.029 300.216 290.659 291.039Z" fill="#794444"/>
<path d="M208.861 241.325C205.453 237.926 204.515 221.949 202.47 220.929C197.784 232.402 181.509 265.034 179.464 268.094C177.42 271.153 198.21 251.522 208.861 241.325Z" fill="#794444"/>
<path d="M211.417 306.335C206.305 304.295 201.192 280.841 199.914 269.368C166.683 288.489 175.63 303.785 176.908 308.884C178.186 313.983 182.021 308.884 211.417 306.335Z" fill="#794444"/>
</svg>
