<svg width="1001" height="1001" viewBox="0 0 1001 1001" fill="none" xmlns="http://www.w3.org/2000/svg">
<path d="M173.59 641.959C219.049 622.84 330.989 555.134 434.334 508.386L480.108 701.653L212.328 766.178C208.3 770.406 192.371 790.34 155.946 828.207C110.813 836.824 85.483 806.504 85.4898 761.45L113.681 726.305C103.968 722.877 75.9533 713.196 46.7428 701.717C10.2297 687.368 75.3245 625.25 81.9883 617.374C87.3193 611.073 148.982 627.915 173.59 641.959Z" fill="#470817"/>
<path d="M309.218 641.413C276.171 332.615 729.446 175.346 767.214 167.588L941.701 693.672C739.222 779.018 335.656 888.451 309.218 641.413Z" fill="#470817"/>
<path d="M763.401 167.588C647.577 248.798 759.64 682.43 940.145 694.689C1012.35 605.817 990.538 201.298 763.401 167.588Z" fill="#470817"/>
<ellipse cx="42.1439" cy="80.4997" rx="42.1439" ry="80.4997" transform="matrix(0.977189 -0.212374 0.217837 0.975985 815.738 356.837)" fill="#470817"/>
<ellipse cx="24.322" cy="46.4578" rx="24.322" ry="46.4578" transform="matrix(0.977189 -0.212374 0.217837 0.975985 832.688 386.266)" fill="#470817"/>
<path d="M172.646 670.224C217.771 652.057 360.944 587.504 463.541 543.109L484.412 657.53L201.15 746.118C197.143 750.114 182.081 768.113 153.89 808.132C109.126 816.406 104.241 781.435 107.394 762.915L140.227 720.083C130.611 716.888 104.153 707.819 75.2413 697.108C39.1016 683.72 86.3572 645.682 92.9898 638.24C98.296 632.286 148.305 657.082 172.646 670.224Z" fill="#D9D9D9"/>
<path d="M337.323 631.042C307.678 350.867 719.882 201.628 753.762 194.589L911.868 678.911C730.235 756.346 361.038 855.182 337.323 631.042Z" fill="#985F5F"/>
<path d="M755.174 193.181C646.476 267.8 746.704 666.239 916.103 677.503C983.862 595.844 968.334 224.155 755.174 193.181Z" fill="#EA7FB2"/>
<ellipse cx="37.86" cy="73.0197" rx="37.86" ry="73.0197" transform="matrix(0.976714 -0.214545 0.215635 0.976474 794.701 372.744)" fill="#D9D9D9"/>
<ellipse cx="22.6733" cy="43.7294" rx="22.6733" ry="43.7294" transform="matrix(0.976714 -0.214545 0.215635 0.976474 816.448 396.231)" fill="#AF537F"/>
<path d="M916.103 677.503C964.099 611.331 958.641 487.478 941.701 417.082C930.62 484.601 917.514 680.318 752.35 519.816C774.937 574.725 834.226 677.503 916.103 677.503Z" fill="#AF537F"/>
<path d="M345.792 663.424C568.269 715.235 710 590.212 752.35 522.633C784.818 594.436 834.226 662.016 916.102 677.503C680.355 778.873 395.2 825.334 345.792 663.424Z" fill="#794444"/>
<path d="M174.981 718.332C178.369 714.953 288.855 680.319 342.969 663.424L358.497 697.214C306.736 714.109 204.062 746.491 201.803 746.491C198.98 746.491 183.451 769.017 153.806 808.439C128.397 812.663 110.045 805.623 107.222 777.465C132.632 809.847 170.746 722.556 174.981 718.332Z" fill="#B8B8B8"/>
<path d="M172.646 670.224C217.771 652.057 360.944 587.504 463.541 543.109L484.412 657.53L201.15 746.118C197.143 750.114 182.081 768.113 153.89 808.132C109.126 816.406 104.241 781.435 107.394 762.915L140.227 720.083C130.611 716.888 104.153 707.819 75.2413 697.108C39.1016 683.72 86.3572 645.682 92.9898 638.24C98.296 632.286 148.305 657.082 172.646 670.224Z" fill="#D9D9D9"/>
<path d="M337.323 631.042C307.678 350.867 719.882 201.628 753.762 194.589L911.868 678.911C730.235 756.346 361.038 855.182 337.323 631.042Z" fill="#985F5F"/>
<path d="M755.174 193.181C646.476 267.8 746.704 666.239 916.103 677.503C983.862 595.844 968.334 224.155 755.174 193.181Z" fill="#EA7FB2"/>
<ellipse cx="37.86" cy="73.0197" rx="37.86" ry="73.0197" transform="matrix(0.976714 -0.214545 0.215635 0.976474 794.701 372.744)" fill="#D9D9D9"/>
<ellipse cx="22.6733" cy="43.7294" rx="22.6733" ry="43.7294" transform="matrix(0.976714 -0.214545 0.215635 0.976474 816.448 396.231)" fill="#AF537F"/>
<path d="M916.103 677.503C964.099 611.331 958.641 487.478 941.701 417.082C930.62 484.601 917.514 680.318 752.35 519.816C774.937 574.725 834.226 677.503 916.103 677.503Z" fill="#AF537F"/>
<path d="M345.792 663.424C568.269 715.235 710 590.212 752.35 522.633C784.818 594.436 834.226 662.016 916.102 677.503C680.355 778.873 395.2 825.334 345.792 663.424Z" fill="#794444"/>
<path d="M174.981 718.332C178.369 714.953 288.855 680.319 342.969 663.424L358.497 697.214C306.736 714.109 204.062 746.491 201.803 746.491C198.98 746.491 183.451 769.017 153.806 808.439C128.397 812.663 110.045 805.623 107.222 777.465C132.632 809.847 170.746 722.556 174.981 718.332Z" fill="#B8B8B8"/>
<path d="M594.03 287.29C627.261 269.444 697.301 232.223 711.616 226.104C685.031 268.934 672.421 335.729 678.385 361.223C668.16 363.773 638.508 370.401 581.249 396.915C554.664 376.52 582.953 315.334 594.03 287.29Z" fill="#794444"/>
<path d="M450.881 386.717C479 351.026 540.349 317.883 550.574 310.235C530.124 359.184 529.272 396.915 537.793 409.662C508.822 417.31 431.949 475.589 430.431 465.749C425.318 432.607 420.206 412.211 450.881 386.717Z" fill="#794444"/>
<path d="M724.393 514.188C711.612 486.145 688.606 391.816 688.606 386.717C671.565 395.215 630.325 407.623 581.246 440.255C568.976 466.769 599.991 537.983 617.033 570.275C629.814 559.228 673.269 550.9 724.393 514.188Z" fill="#794444"/>
<path d="M581.246 580.473C562.841 560.078 553.128 488.694 550.571 455.552C514.784 476.797 446.792 501.951 430.432 514.188C414.072 526.425 429.578 590.67 443.211 611.066C465.365 608.516 523.986 598.829 581.246 580.473Z" fill="#794444"/>
<path d="M417.65 481.046C410.833 474.247 408.959 442.294 404.869 440.255C395.496 463.2 362.947 528.465 358.857 534.583C354.767 540.702 396.348 501.441 417.65 481.046Z" fill="#794444"/>
<path d="M422.762 611.066C412.537 606.987 402.312 560.077 399.756 537.133C333.295 575.374 351.189 605.967 353.745 616.164C356.301 626.362 363.97 616.164 422.762 611.066Z" fill="#794444"/>
</svg>
