<svg width="501" height="501" viewBox="0 0 501 501" fill="none" xmlns="http://www.w3.org/2000/svg">
<path d="M87.0769 321.771C109.806 312.211 165.776 278.358 217.449 254.984L240.336 351.618L106.446 383.88C104.432 385.994 96.4674 395.961 78.2545 414.895C55.6883 419.203 43.0232 404.043 43.0266 381.516L57.1225 363.944C52.2659 362.23 38.2584 357.389 23.6532 351.649C5.39661 344.475 37.944 313.416 41.2759 309.478C43.9414 306.328 74.7727 314.749 87.0769 321.771Z" fill="#470817"/>
<path d="M154.891 321.498C138.367 167.099 365.005 88.4643 383.889 84.585L471.132 347.627C369.893 390.3 168.11 445.017 154.891 321.498Z" fill="#470817"/>
<path d="M381.983 84.585C324.07 125.19 380.102 342.006 470.355 348.135C506.456 303.7 495.551 101.44 381.983 84.585Z" fill="#470817"/>
<ellipse cx="21.072" cy="40.2498" rx="21.072" ry="40.2498" transform="matrix(0.977189 -0.212374 0.217837 0.975985 408.151 179.209)" fill="#470817"/>
<ellipse cx="12.161" cy="23.2289" rx="12.161" ry="23.2289" transform="matrix(0.977189 -0.212374 0.217837 0.975985 416.626 193.925)" fill="#470817"/>
<path d="M86.6045 335.903C109.167 326.819 180.754 294.543 232.052 272.345L242.488 329.556L100.856 373.85C98.8528 375.848 91.3218 384.847 77.2267 404.857C54.8447 408.994 52.402 391.508 53.9785 382.248L70.3948 360.833C65.5872 359.235 52.358 354.7 37.9022 349.345C19.8323 342.651 43.4601 323.632 46.7764 319.911C49.4295 316.934 74.4339 329.332 86.6045 335.903Z" fill="#D9D9D9"/>
<path d="M168.943 316.312C154.12 176.225 360.223 101.605 377.163 98.0854L456.216 340.246C365.399 378.964 180.801 428.382 168.943 316.312Z" fill="#985F5F"/>
<path d="M377.868 97.3816C323.519 134.691 373.633 333.911 458.333 339.543C492.213 298.713 484.449 112.869 377.868 97.3816Z" fill="#EA7FB2"/>
<ellipse cx="18.93" cy="36.5098" rx="18.93" ry="36.5098" transform="matrix(0.976714 -0.214545 0.215635 0.976474 397.632 187.163)" fill="#D9D9D9"/>
<ellipse cx="11.3366" cy="21.8647" rx="11.3366" ry="21.8647" transform="matrix(0.976714 -0.214545 0.215635 0.976474 408.505 198.907)" fill="#AF537F"/>
<path d="M458.333 339.542C482.331 306.456 479.602 244.53 471.132 209.332C465.591 243.092 459.039 340.95 376.457 260.699C387.75 288.153 417.395 339.542 458.333 339.542Z" fill="#AF537F"/>
<path d="M173.178 332.503C284.416 358.409 355.282 295.897 376.457 262.107C392.691 298.009 417.395 331.799 458.333 339.543C340.459 390.227 197.882 413.458 173.178 332.503Z" fill="#794444"/>
<path d="M87.7724 359.957C89.4664 358.268 144.709 340.95 171.766 332.503L179.53 349.398C153.65 357.845 102.312 374.036 101.183 374.036C99.7715 374.036 92.0074 385.3 77.185 405.01C64.48 407.122 55.3042 403.603 53.8926 389.523C66.5975 405.714 85.6549 362.069 87.7724 359.957Z" fill="#B8B8B8"/>
<path d="M86.6045 335.903C109.167 326.819 180.754 294.543 232.052 272.345L242.488 329.556L100.856 373.85C98.8528 375.848 91.3218 384.847 77.2267 404.857C54.8447 408.994 52.402 391.508 53.9785 382.248L70.3948 360.833C65.5872 359.235 52.358 354.7 37.9022 349.345C19.8323 342.651 43.4601 323.632 46.7764 319.911C49.4295 316.934 74.4339 329.332 86.6045 335.903Z" fill="#D9D9D9"/>
<path d="M168.943 316.312C154.12 176.225 360.223 101.605 377.163 98.0854L456.216 340.246C365.399 378.964 180.801 428.382 168.943 316.312Z" fill="#985F5F"/>
<path d="M377.868 97.3816C323.519 134.691 373.633 333.911 458.333 339.543C492.213 298.713 484.449 112.869 377.868 97.3816Z" fill="#EA7FB2"/>
<ellipse cx="18.93" cy="36.5098" rx="18.93" ry="36.5098" transform="matrix(0.976714 -0.214545 0.215635 0.976474 397.632 187.163)" fill="#D9D9D9"/>
<ellipse cx="11.3366" cy="21.8647" rx="11.3366" ry="21.8647" transform="matrix(0.976714 -0.214545 0.215635 0.976474 408.505 198.907)" fill="#AF537F"/>
<path d="M458.333 339.542C482.331 306.456 479.602 244.53 471.132 209.332C465.591 243.092 459.039 340.95 376.457 260.699C387.75 288.153 417.395 339.542 458.333 339.542Z" fill="#AF537F"/>
<path d="M173.178 332.503C284.416 358.409 355.282 295.897 376.457 262.107C392.691 298.009 417.395 331.799 458.333 339.543C340.459 390.227 197.882 413.458 173.178 332.503Z" fill="#794444"/>
<path d="M87.7724 359.957C89.4664 358.268 144.709 340.95 171.766 332.503L179.53 349.398C153.65 357.845 102.312 374.036 101.183 374.036C99.7715 374.036 92.0074 385.3 77.185 405.01C64.48 407.122 55.3042 403.603 53.8926 389.523C66.5975 405.714 85.6549 362.069 87.7724 359.957Z" fill="#B8B8B8"/>
<path d="M297.296 144.436C313.912 135.513 348.932 116.902 356.09 113.843C342.797 135.258 336.492 168.655 339.474 181.402C334.362 182.677 319.536 185.991 290.906 199.248C277.613 189.051 291.758 158.458 297.296 144.436Z" fill="#794444"/>
<path d="M225.722 194.15C239.781 176.304 270.456 159.732 275.569 155.908C265.344 180.383 264.918 199.248 269.178 205.622C254.693 209.446 216.256 238.586 215.497 233.665C212.941 217.094 210.384 206.897 225.722 194.15Z" fill="#794444"/>
<path d="M362.478 257.885C356.088 243.863 344.585 196.699 344.585 194.15C336.064 198.399 315.444 204.602 290.904 220.918C284.769 234.175 300.277 269.782 308.798 285.928C315.188 280.405 336.916 276.241 362.478 257.885Z" fill="#794444"/>
<path d="M290.904 291.027C281.702 280.83 276.845 245.138 275.567 228.567C257.674 239.189 223.677 251.766 215.497 257.885C207.317 264.004 215.07 296.126 221.887 306.324C232.964 305.049 262.275 300.205 290.904 291.027Z" fill="#794444"/>
<path d="M209.106 241.314C205.698 237.915 204.761 221.938 202.716 220.919C198.029 232.391 181.755 265.024 179.71 268.083C177.665 271.142 198.456 251.512 209.106 241.314Z" fill="#794444"/>
<path d="M211.663 306.324C206.55 304.285 201.438 280.83 200.16 269.358C166.929 288.478 175.876 303.775 177.154 308.873C178.432 313.972 182.266 308.873 211.663 306.324Z" fill="#794444"/>
</svg>
