<svg width="501" height="501" viewBox="0 0 501 501" fill="none" xmlns="http://www.w3.org/2000/svg">
<path d="M87.3674 321.898C110.097 312.338 166.067 278.486 217.739 255.111L240.626 351.745L106.736 384.008C104.722 386.122 96.758 396.088 78.5451 415.022C55.9788 419.33 43.3138 404.171 43.3172 381.644L57.413 364.071C52.5564 362.357 38.5489 357.516 23.9437 351.777C5.68713 344.602 38.2345 313.543 41.5664 309.605C44.2319 306.455 75.0633 314.876 87.3674 321.898Z" fill="#470817"/>
<path d="M155.181 321.625C138.658 167.226 365.295 88.5918 384.179 84.7125L471.423 347.755C370.184 390.428 168.4 445.144 155.181 321.625Z" fill="#470817"/>
<path d="M382.273 84.7124C324.361 125.318 380.392 342.134 470.645 348.263C506.746 303.827 495.841 101.567 382.273 84.7124Z" fill="#470817"/>
<ellipse cx="21.072" cy="40.2498" rx="21.072" ry="40.2498" transform="matrix(0.977189 -0.212374 0.217837 0.975985 408.441 179.337)" fill="#470817"/>
<ellipse cx="12.161" cy="23.2289" rx="12.161" ry="23.2289" transform="matrix(0.977189 -0.212374 0.217837 0.975985 416.917 194.052)" fill="#470817"/>
<path d="M86.895 336.031C109.457 326.947 181.044 294.671 232.343 272.473L242.778 329.684L101.147 373.977C99.1433 375.976 91.6123 384.975 77.5172 404.985C55.1352 409.122 52.6926 391.636 54.269 382.376L70.6854 360.96C65.8777 359.362 52.6486 354.828 38.1927 349.473C20.1228 342.778 43.7506 323.759 47.0669 320.038C49.72 317.062 74.7244 329.46 86.895 336.031Z" fill="#D9D9D9"/>
<path d="M169.233 316.44C154.411 176.352 360.513 101.733 377.453 98.2131L456.506 340.374C365.689 379.092 181.091 428.509 169.233 316.44Z" fill="#985F5F"/>
<path d="M378.158 97.509C323.809 134.819 373.923 334.038 458.623 339.67C492.503 298.84 484.739 112.996 378.158 97.509Z" fill="#EA7FB2"/>
<ellipse cx="18.93" cy="36.5098" rx="18.93" ry="36.5098" transform="matrix(0.976714 -0.214545 0.215635 0.976474 397.922 187.29)" fill="#D9D9D9"/>
<ellipse cx="11.3366" cy="21.8647" rx="11.3366" ry="21.8647" transform="matrix(0.976714 -0.214545 0.215635 0.976474 408.795 199.034)" fill="#AF537F"/>
<path d="M458.623 339.67C482.622 306.584 479.893 244.657 471.423 209.46C465.882 243.219 459.329 341.078 376.747 260.827C388.04 288.281 417.685 339.67 458.623 339.67Z" fill="#AF537F"/>
<path d="M173.468 332.63C284.707 358.536 355.572 296.025 376.747 262.235C392.981 298.136 417.685 331.926 458.623 339.67C340.75 390.355 198.172 413.585 173.468 332.63Z" fill="#794444"/>
<path d="M88.0629 360.085C89.7569 358.395 145 341.078 172.057 332.63L179.821 349.525C153.94 357.973 102.603 374.164 101.474 374.164C100.062 374.164 92.2979 385.427 77.4755 405.138C64.7705 407.25 55.5948 403.73 54.1831 389.651C66.888 405.842 85.9454 362.197 88.0629 360.085Z" fill="#B8B8B8"/>
<path d="M86.895 336.031C109.457 326.947 181.044 294.671 232.343 272.473L242.778 329.684L101.147 373.977C99.1433 375.976 91.6123 384.975 77.5172 404.985C55.1352 409.122 52.6926 391.636 54.269 382.376L70.6854 360.96C65.8777 359.362 52.6486 354.828 38.1927 349.473C20.1228 342.778 43.7506 323.759 47.0669 320.038C49.72 317.062 74.7244 329.46 86.895 336.031Z" fill="#D9D9D9"/>
<path d="M169.233 316.44C154.411 176.352 360.513 101.733 377.453 98.2131L456.506 340.374C365.689 379.092 181.091 428.509 169.233 316.44Z" fill="#985F5F"/>
<path d="M378.158 97.509C323.809 134.819 373.923 334.038 458.623 339.67C492.503 298.84 484.739 112.996 378.158 97.509Z" fill="#EA7FB2"/>
<ellipse cx="18.93" cy="36.5098" rx="18.93" ry="36.5098" transform="matrix(0.976714 -0.214545 0.215635 0.976474 397.922 187.29)" fill="#D9D9D9"/>
<ellipse cx="11.3366" cy="21.8647" rx="11.3366" ry="21.8647" transform="matrix(0.976714 -0.214545 0.215635 0.976474 408.795 199.034)" fill="#AF537F"/>
<path d="M458.623 339.67C482.622 306.584 479.893 244.657 471.423 209.46C465.882 243.219 459.329 341.078 376.747 260.827C388.04 288.281 417.685 339.67 458.623 339.67Z" fill="#AF537F"/>
<path d="M173.468 332.63C284.707 358.536 355.572 296.025 376.747 262.235C392.981 298.136 417.685 331.926 458.623 339.67C340.75 390.355 198.172 413.585 173.468 332.63Z" fill="#794444"/>
<path d="M88.0629 360.085C89.7569 358.395 145 341.078 172.057 332.63L179.821 349.525C153.94 357.973 102.603 374.164 101.474 374.164C100.062 374.164 92.2979 385.427 77.4755 405.138C64.7705 407.25 55.5948 403.73 54.1831 389.651C66.888 405.842 85.9454 362.197 88.0629 360.085Z" fill="#B8B8B8"/>
<path d="M297.587 144.564C314.203 135.641 349.223 117.03 356.381 113.971C343.088 135.386 336.783 168.783 339.765 181.53C334.653 182.805 319.827 186.119 291.197 199.376C277.904 189.178 292.049 158.585 297.587 144.564Z" fill="#794444"/>
<path d="M226.013 194.277C240.072 176.431 270.747 159.86 275.86 156.036C265.635 180.51 265.209 199.376 269.469 205.749C254.984 209.574 216.547 238.713 215.788 233.793C213.232 217.222 210.675 207.024 226.013 194.277Z" fill="#794444"/>
<path d="M362.769 258.012C356.379 243.991 344.876 196.827 344.876 194.277C336.355 198.526 315.735 204.73 291.195 221.046C285.06 234.303 300.568 269.91 309.089 286.056C315.479 280.532 337.207 276.368 362.769 258.012Z" fill="#794444"/>
<path d="M291.195 291.155C281.993 280.957 277.136 245.265 275.858 228.694C257.965 239.317 223.968 251.894 215.788 258.012C207.608 264.131 215.361 296.254 222.178 306.451C233.255 305.177 262.566 300.333 291.195 291.155Z" fill="#794444"/>
<path d="M209.397 241.441C205.989 238.042 205.052 222.066 203.007 221.046C198.32 232.519 182.046 265.151 180.001 268.21C177.956 271.27 198.747 251.639 209.397 241.441Z" fill="#794444"/>
<path d="M211.954 306.452C206.841 304.412 201.729 280.957 200.451 269.485C167.22 288.606 176.167 303.902 177.445 309.001C178.723 314.1 182.557 309.001 211.954 306.452Z" fill="#794444"/>
</svg>
