<svg width="1001" height="1001" viewBox="0 0 1001 1001" fill="none" xmlns="http://www.w3.org/2000/svg">
<path d="M173.663 642.768C219.123 623.65 331.063 555.944 434.407 509.196L480.181 702.463L212.401 766.988C208.373 771.216 192.445 791.149 156.019 829.017C110.886 837.633 85.5562 807.314 85.563 762.26L113.755 727.115C104.042 723.687 76.0265 714.006 46.8161 702.526C10.303 688.177 75.3978 626.059 82.0615 618.184C87.3925 611.883 149.055 628.725 173.663 642.768Z" fill="#470817"/>
<path d="M309.291 642.223C276.244 333.425 729.519 176.156 767.287 168.397L941.774 694.482C739.295 779.828 335.729 889.261 309.291 642.223Z" fill="#470817"/>
<path d="M763.475 168.397C647.65 249.608 759.713 683.24 940.219 695.498C1012.42 606.627 990.612 202.107 763.475 168.397Z" fill="#470817"/>
<ellipse cx="42.1439" cy="80.4997" rx="42.1439" ry="80.4997" transform="matrix(0.977189 -0.212374 0.217837 0.975985 815.811 357.647)" fill="#470817"/>
<ellipse cx="24.322" cy="46.4578" rx="24.322" ry="46.4578" transform="matrix(0.977189 -0.212374 0.217837 0.975985 832.762 387.076)" fill="#470817"/>
<path d="M172.719 671.034C217.844 652.866 361.018 588.314 463.614 543.918L484.486 658.34L201.223 746.928C197.216 750.924 182.154 768.922 153.964 808.942C109.2 817.216 104.314 782.245 107.467 763.724L140.3 720.893C130.685 717.698 104.226 708.629 75.3146 697.918C39.1749 684.53 86.4304 646.492 93.0631 639.05C98.3692 633.096 148.378 657.892 172.719 671.034Z" fill="#D9D9D9"/>
<path d="M337.396 631.852C307.751 351.677 719.956 202.438 753.835 195.399L911.941 679.721C730.308 757.156 361.112 855.991 337.396 631.852Z" fill="#985F5F"/>
<path d="M755.247 193.991C646.549 268.61 746.776 667.049 916.175 678.312C983.935 596.654 968.407 224.965 755.247 193.991Z" fill="#EA7FB2"/>
<ellipse cx="37.86" cy="73.0197" rx="37.86" ry="73.0197" transform="matrix(0.976714 -0.214545 0.215635 0.976474 794.773 373.554)" fill="#D9D9D9"/>
<ellipse cx="22.6733" cy="43.7294" rx="22.6733" ry="43.7294" transform="matrix(0.976714 -0.214545 0.215635 0.976474 816.521 397.041)" fill="#AF537F"/>
<path d="M916.176 678.312C964.172 612.14 958.714 488.287 941.775 417.892C930.693 485.411 917.587 681.128 752.423 520.626C775.01 575.535 834.3 678.312 916.176 678.312Z" fill="#AF537F"/>
<path d="M345.866 664.233C568.343 716.044 710.074 591.022 752.424 523.442C784.892 595.245 834.3 662.825 916.176 678.312C680.429 779.682 395.274 826.143 345.866 664.233Z" fill="#794444"/>
<path d="M175.055 719.142C178.443 715.763 288.929 681.128 343.043 664.234L358.571 698.023C306.81 714.918 204.135 747.3 201.877 747.3C199.053 747.3 183.525 769.827 153.88 809.249C128.47 813.472 110.119 806.433 107.295 778.274C132.705 810.656 170.82 723.366 175.055 719.142Z" fill="#B8B8B8"/>
<path d="M172.719 671.034C217.844 652.866 361.018 588.314 463.614 543.918L484.486 658.34L201.223 746.928C197.216 750.924 182.154 768.922 153.964 808.942C109.2 817.216 104.314 782.245 107.467 763.724L140.3 720.893C130.685 717.698 104.226 708.629 75.3146 697.918C39.1749 684.53 86.4304 646.492 93.0631 639.05C98.3692 633.096 148.378 657.892 172.719 671.034Z" fill="#D9D9D9"/>
<path d="M337.396 631.852C307.751 351.677 719.956 202.438 753.835 195.399L911.941 679.721C730.308 757.156 361.112 855.991 337.396 631.852Z" fill="#985F5F"/>
<path d="M755.247 193.991C646.549 268.61 746.776 667.049 916.175 678.312C983.935 596.654 968.407 224.965 755.247 193.991Z" fill="#EA7FB2"/>
<ellipse cx="37.86" cy="73.0197" rx="37.86" ry="73.0197" transform="matrix(0.976714 -0.214545 0.215635 0.976474 794.773 373.554)" fill="#D9D9D9"/>
<ellipse cx="22.6733" cy="43.7294" rx="22.6733" ry="43.7294" transform="matrix(0.976714 -0.214545 0.215635 0.976474 816.521 397.041)" fill="#AF537F"/>
<path d="M916.176 678.312C964.172 612.14 958.714 488.287 941.775 417.892C930.693 485.411 917.587 681.128 752.423 520.626C775.01 575.535 834.3 678.312 916.176 678.312Z" fill="#AF537F"/>
<path d="M345.866 664.233C568.343 716.044 710.074 591.022 752.424 523.442C784.892 595.245 834.3 662.825 916.176 678.312C680.429 779.682 395.274 826.143 345.866 664.233Z" fill="#794444"/>
<path d="M175.055 719.142C178.443 715.763 288.929 681.128 343.043 664.234L358.571 698.023C306.81 714.918 204.135 747.3 201.877 747.3C199.053 747.3 183.525 769.827 153.88 809.249C128.47 813.472 110.119 806.433 107.295 778.274C132.705 810.656 170.82 723.366 175.055 719.142Z" fill="#B8B8B8"/>
<path d="M594.103 288.1C627.334 270.254 697.375 233.033 711.689 226.914C685.105 269.744 672.494 336.539 678.458 362.033C668.234 364.582 638.581 371.211 581.322 397.725C554.737 377.329 583.026 316.144 594.103 288.1Z" fill="#794444"/>
<path d="M450.955 387.527C479.073 351.835 540.422 318.693 550.647 311.045C530.198 359.993 529.345 397.725 537.866 410.472C508.895 418.12 432.023 476.399 430.505 466.559C425.391 433.417 420.279 413.021 450.955 387.527Z" fill="#794444"/>
<path d="M724.466 514.998C711.685 486.954 688.68 392.626 688.68 387.527C671.638 396.025 630.399 408.432 581.319 441.065C569.049 467.579 600.064 538.792 617.106 571.085C629.887 560.038 673.342 551.709 724.466 514.998Z" fill="#794444"/>
<path d="M581.319 581.283C562.914 560.887 553.201 489.504 550.645 456.361C514.858 477.606 446.865 502.761 430.505 514.998C414.145 527.235 429.651 591.48 443.285 611.876C465.438 609.326 524.06 599.638 581.319 581.283Z" fill="#794444"/>
<path d="M417.723 481.856C410.906 475.057 409.032 443.104 404.942 441.065C395.569 464.01 363.02 529.275 358.93 535.393C354.841 541.512 396.421 502.251 417.723 481.856Z" fill="#794444"/>
<path d="M422.835 611.876C412.611 607.797 402.386 560.887 399.83 537.943C333.368 576.184 351.262 606.777 353.818 616.975C356.374 627.172 364.043 616.975 422.835 611.876Z" fill="#794444"/>
</svg>
