<svg width="501" height="501" viewBox="0 0 501 501" fill="none" xmlns="http://www.w3.org/2000/svg">
<path d="M86.759 321.45C109.489 311.89 165.459 278.037 217.131 254.663L240.018 351.297L106.128 383.559C104.114 385.673 96.1496 395.64 77.9367 414.574C55.3704 418.882 42.7054 403.722 42.7088 381.195L56.8046 363.623C51.948 361.909 37.9405 357.068 23.3353 351.329C5.07874 344.154 37.6261 313.095 40.958 309.157C43.6235 306.007 74.4549 314.428 86.759 321.45Z" fill="#470817"/>
<path d="M154.573 321.177C138.05 166.778 364.687 88.1435 383.571 84.2642L470.815 347.307C369.575 389.98 167.792 444.696 154.573 321.177Z" fill="#470817"/>
<path d="M381.665 84.2642C323.752 124.869 379.784 341.686 470.037 347.815C506.138 303.379 495.233 101.119 381.665 84.2642Z" fill="#470817"/>
<ellipse cx="21.072" cy="40.2498" rx="21.072" ry="40.2498" transform="matrix(0.977189 -0.212374 0.217837 0.975985 407.833 178.889)" fill="#470817"/>
<ellipse cx="12.161" cy="23.2289" rx="12.161" ry="23.2289" transform="matrix(0.977189 -0.212374 0.217837 0.975985 416.308 193.603)" fill="#470817"/>
<path d="M86.2871 335.582C108.85 326.498 180.436 294.222 231.735 272.024L242.17 329.235L100.539 373.529C98.5354 375.527 91.0044 384.526 76.9093 404.536C54.5273 408.673 52.0846 391.187 53.6611 381.927L70.0774 360.511C65.2698 358.914 52.0407 354.379 37.5848 349.024C19.5149 342.33 43.1427 323.311 46.459 319.59C49.1121 316.613 74.1165 329.011 86.2871 335.582Z" fill="#D9D9D9"/>
<path d="M168.625 315.991C153.803 175.903 359.905 101.284 376.845 97.7642L455.898 339.925C365.081 378.643 180.483 428.06 168.625 315.991Z" fill="#985F5F"/>
<path d="M377.551 97.0601C323.202 134.37 373.316 333.589 458.015 339.221C491.895 298.392 484.131 112.547 377.551 97.0601Z" fill="#EA7FB2"/>
<ellipse cx="18.93" cy="36.5098" rx="18.93" ry="36.5098" transform="matrix(0.976714 -0.214545 0.215635 0.976474 397.314 186.842)" fill="#D9D9D9"/>
<ellipse cx="11.3366" cy="21.8647" rx="11.3366" ry="21.8647" transform="matrix(0.976714 -0.214545 0.215635 0.976474 408.188 198.586)" fill="#AF537F"/>
<path d="M458.015 339.221C482.014 306.135 479.285 244.209 470.815 209.011C465.274 242.771 458.721 340.629 376.139 260.378C387.432 287.832 417.077 339.221 458.015 339.221Z" fill="#AF537F"/>
<path d="M172.86 332.182C284.099 358.087 354.964 295.576 376.139 261.786C392.373 297.688 417.077 331.478 458.015 339.221C340.141 389.906 197.564 413.137 172.86 332.182Z" fill="#794444"/>
<path d="M87.4545 359.636C89.1485 357.946 144.391 340.629 171.448 332.182L179.212 349.077C153.332 357.524 101.995 373.715 100.865 373.715C99.4536 373.715 91.6895 384.978 76.8671 404.689C64.1622 406.801 54.9864 403.281 53.5747 389.202C66.2796 405.393 85.337 361.748 87.4545 359.636Z" fill="#B8B8B8"/>
<path d="M86.2871 335.582C108.85 326.498 180.436 294.222 231.735 272.024L242.17 329.235L100.539 373.529C98.5354 375.527 91.0044 384.526 76.9093 404.536C54.5273 408.673 52.0846 391.187 53.6611 381.927L70.0774 360.511C65.2698 358.914 52.0407 354.379 37.5848 349.024C19.5149 342.33 43.1427 323.311 46.459 319.59C49.1121 316.613 74.1165 329.011 86.2871 335.582Z" fill="#D9D9D9"/>
<path d="M168.625 315.991C153.803 175.903 359.905 101.284 376.845 97.7642L455.898 339.925C365.081 378.643 180.483 428.06 168.625 315.991Z" fill="#985F5F"/>
<path d="M377.551 97.0601C323.202 134.37 373.316 333.589 458.015 339.221C491.895 298.392 484.131 112.547 377.551 97.0601Z" fill="#EA7FB2"/>
<ellipse cx="18.93" cy="36.5098" rx="18.93" ry="36.5098" transform="matrix(0.976714 -0.214545 0.215635 0.976474 397.314 186.842)" fill="#D9D9D9"/>
<ellipse cx="11.3366" cy="21.8647" rx="11.3366" ry="21.8647" transform="matrix(0.976714 -0.214545 0.215635 0.976474 408.188 198.586)" fill="#AF537F"/>
<path d="M458.015 339.221C482.014 306.135 479.285 244.209 470.815 209.011C465.274 242.771 458.721 340.629 376.139 260.378C387.432 287.832 417.077 339.221 458.015 339.221Z" fill="#AF537F"/>
<path d="M172.86 332.182C284.099 358.087 354.964 295.576 376.139 261.786C392.373 297.688 417.077 331.478 458.015 339.221C340.141 389.906 197.564 413.137 172.86 332.182Z" fill="#794444"/>
<path d="M87.4545 359.636C89.1485 357.946 144.391 340.629 171.448 332.182L179.212 349.077C153.332 357.524 101.995 373.715 100.865 373.715C99.4536 373.715 91.6895 384.978 76.8671 404.689C64.1622 406.801 54.9864 403.281 53.5747 389.202C66.2796 405.393 85.337 361.748 87.4545 359.636Z" fill="#B8B8B8"/>
<path d="M296.979 144.115C313.595 135.192 348.615 116.581 355.772 113.522C342.48 134.937 336.174 168.334 339.157 181.081C334.044 182.356 319.218 185.67 290.588 198.927C277.296 188.73 291.441 158.137 296.979 144.115Z" fill="#794444"/>
<path d="M225.405 193.829C239.464 175.983 270.139 159.411 275.251 155.587C265.026 180.062 264.6 198.927 268.861 205.301C254.375 209.125 215.939 238.264 215.18 233.344C212.623 216.773 210.067 206.576 225.405 193.829Z" fill="#794444"/>
<path d="M362.161 257.564C355.77 243.542 344.267 196.378 344.267 193.829C335.747 198.078 315.127 204.281 290.587 220.597C284.452 233.854 299.96 269.461 308.48 285.607C314.871 280.084 336.598 275.92 362.161 257.564Z" fill="#794444"/>
<path d="M290.587 290.706C281.385 280.509 276.528 244.817 275.25 228.246C257.356 238.868 223.36 251.445 215.18 257.564C207 263.682 214.753 295.805 221.57 306.003C232.647 304.728 261.957 299.884 290.587 290.706Z" fill="#794444"/>
<path d="M208.789 240.993C205.381 237.594 204.443 221.617 202.398 220.597C197.712 232.07 181.438 264.702 179.393 267.762C177.348 270.821 198.138 251.19 208.789 240.993Z" fill="#794444"/>
<path d="M211.345 306.003C206.233 303.963 201.12 280.509 199.842 269.036C166.612 288.157 175.558 303.453 176.836 308.552C178.115 313.651 181.949 308.552 211.345 306.003Z" fill="#794444"/>
</svg>
