<svg width="1001" height="1001" viewBox="0 0 1001 1001" fill="none" xmlns="http://www.w3.org/2000/svg">
<path d="M173.447 642.294C218.906 623.176 330.846 555.47 434.191 508.722L479.964 701.989L212.184 766.514C208.156 770.742 192.228 790.675 155.802 828.543C110.67 837.159 85.3394 806.84 85.3462 761.786L113.538 726.641C103.825 723.213 75.8097 713.532 46.5993 702.052C10.0862 687.703 75.181 625.585 81.8447 617.71C87.1757 611.409 148.838 628.251 173.447 642.294Z" fill="#470817"/>
<path d="M309.075 641.749C276.028 332.952 729.302 175.683 767.07 167.924L941.557 694.009C739.079 779.355 335.512 888.788 309.075 641.749Z" fill="#470817"/>
<path d="M763.258 167.924C647.434 249.134 759.497 682.767 940.002 695.025C1012.2 606.153 990.395 201.634 763.258 167.924Z" fill="#470817"/>
<ellipse cx="42.1439" cy="80.4997" rx="42.1439" ry="80.4997" transform="matrix(0.977189 -0.212374 0.217837 0.975985 815.594 357.172)" fill="#470817"/>
<ellipse cx="24.322" cy="46.4578" rx="24.322" ry="46.4578" transform="matrix(0.977189 -0.212374 0.217837 0.975985 832.545 386.602)" fill="#470817"/>
<path d="M172.502 670.56C217.627 652.392 360.801 587.839 463.397 543.444L484.269 657.866L201.006 746.453C196.999 750.45 181.937 768.448 153.747 808.467C108.983 816.742 104.097 781.77 107.25 763.25L140.083 720.418C130.468 717.223 104.009 708.154 75.0975 697.444C38.9578 684.055 86.2134 646.017 92.846 638.575C98.1522 632.622 148.161 657.418 172.502 670.56Z" fill="#D9D9D9"/>
<path d="M337.179 631.377C307.534 351.203 719.739 201.964 753.618 194.924L911.724 679.246C730.091 756.682 360.895 855.517 337.179 631.377Z" fill="#985F5F"/>
<path d="M755.03 193.516C646.332 268.135 746.56 666.575 915.959 677.838C983.719 596.179 968.19 224.49 755.03 193.516Z" fill="#EA7FB2"/>
<ellipse cx="37.86" cy="73.0197" rx="37.86" ry="73.0197" transform="matrix(0.976714 -0.214545 0.215635 0.976474 794.557 373.08)" fill="#D9D9D9"/>
<ellipse cx="22.6733" cy="43.7294" rx="22.6733" ry="43.7294" transform="matrix(0.976714 -0.214545 0.215635 0.976474 816.304 396.567)" fill="#AF537F"/>
<path d="M915.96 677.838C963.956 611.666 958.498 487.813 941.558 417.417C930.477 484.937 917.371 680.654 752.207 520.152C774.794 575.06 834.083 677.838 915.96 677.838Z" fill="#AF537F"/>
<path d="M345.648 663.759C568.126 715.57 709.856 590.548 752.206 522.968C784.674 594.771 834.082 662.351 915.959 677.838C680.212 779.208 395.057 825.669 345.648 663.759Z" fill="#794444"/>
<path d="M174.838 718.667C178.226 715.288 288.712 680.654 342.825 663.759L358.353 697.549C306.593 714.444 203.918 746.826 201.659 746.826C198.836 746.826 183.308 769.352 153.663 808.774C128.253 812.998 109.901 805.958 107.078 777.8C132.488 810.182 170.603 722.891 174.838 718.667Z" fill="#B8B8B8"/>
<path d="M172.502 670.56C217.627 652.392 360.801 587.839 463.397 543.444L484.269 657.866L201.006 746.453C196.999 750.45 181.937 768.448 153.747 808.467C108.983 816.742 104.097 781.77 107.25 763.25L140.083 720.418C130.468 717.223 104.009 708.154 75.0975 697.444C38.9578 684.055 86.2134 646.017 92.846 638.575C98.1522 632.622 148.161 657.418 172.502 670.56Z" fill="#D9D9D9"/>
<path d="M337.179 631.377C307.534 351.203 719.739 201.964 753.618 194.924L911.724 679.246C730.091 756.682 360.895 855.517 337.179 631.377Z" fill="#985F5F"/>
<path d="M755.03 193.516C646.332 268.135 746.56 666.575 915.959 677.838C983.719 596.179 968.19 224.49 755.03 193.516Z" fill="#EA7FB2"/>
<ellipse cx="37.86" cy="73.0197" rx="37.86" ry="73.0197" transform="matrix(0.976714 -0.214545 0.215635 0.976474 794.557 373.08)" fill="#D9D9D9"/>
<ellipse cx="22.6733" cy="43.7294" rx="22.6733" ry="43.7294" transform="matrix(0.976714 -0.214545 0.215635 0.976474 816.304 396.567)" fill="#AF537F"/>
<path d="M915.96 677.838C963.956 611.666 958.498 487.813 941.558 417.417C930.477 484.937 917.371 680.654 752.207 520.152C774.794 575.06 834.083 677.838 915.96 677.838Z" fill="#AF537F"/>
<path d="M345.648 663.759C568.126 715.57 709.856 590.548 752.206 522.968C784.674 594.771 834.082 662.351 915.959 677.838C680.212 779.208 395.057 825.669 345.648 663.759Z" fill="#794444"/>
<path d="M174.838 718.667C178.226 715.288 288.712 680.654 342.825 663.759L358.353 697.549C306.593 714.444 203.918 746.826 201.659 746.826C198.836 746.826 183.308 769.352 153.663 808.774C128.253 812.998 109.901 805.958 107.078 777.8C132.488 810.182 170.603 722.891 174.838 718.667Z" fill="#B8B8B8"/>
<path d="M593.886 287.626C627.117 269.78 697.158 232.559 711.473 226.44C684.888 269.27 672.277 336.065 678.242 361.559C668.017 364.108 638.365 370.737 581.105 397.251C554.52 376.855 582.809 315.669 593.886 287.626Z" fill="#794444"/>
<path d="M450.738 387.053C478.856 351.361 540.206 318.219 550.431 310.571C529.981 359.519 529.129 397.251 537.649 409.998C508.679 417.646 431.806 475.925 430.288 466.085C425.175 432.942 420.062 412.547 450.738 387.053Z" fill="#794444"/>
<path d="M724.25 514.524C711.469 486.48 688.463 392.152 688.463 387.053C671.421 395.551 630.182 407.958 581.102 440.591C568.832 467.105 599.848 538.318 616.889 570.611C629.67 559.563 673.125 551.235 724.25 514.524Z" fill="#794444"/>
<path d="M581.102 580.809C562.697 560.413 552.984 489.03 550.428 455.887C514.641 477.132 446.648 502.287 430.288 514.524C413.928 526.761 429.434 591.006 443.068 611.401C465.222 608.852 523.843 599.164 581.102 580.809Z" fill="#794444"/>
<path d="M417.506 481.381C410.689 474.583 408.815 442.63 404.725 440.59C395.352 463.535 362.803 528.8 358.713 534.919C354.624 541.037 396.204 501.776 417.506 481.381Z" fill="#794444"/>
<path d="M422.618 611.401C412.393 607.322 402.169 560.413 399.613 537.468C333.151 575.709 351.045 606.302 353.601 616.5C356.157 626.698 363.826 616.5 422.618 611.401Z" fill="#794444"/>
</svg>
