<svg width="1001" height="1001" viewBox="0 0 1001 1001" fill="none" xmlns="http://www.w3.org/2000/svg">
<path d="M173.663 642.191C219.123 623.072 331.063 555.367 434.407 508.618L480.181 701.885L212.401 766.411C208.373 770.639 192.445 790.572 156.019 828.44C110.886 837.056 85.5562 806.737 85.563 761.683L113.755 726.538C104.042 723.109 76.0265 713.428 46.8161 701.949C10.303 687.6 75.3978 625.482 82.0615 617.606C87.3925 611.306 149.055 628.148 173.663 642.191Z" fill="#470817"/>
<path d="M309.291 641.646C276.244 332.848 729.519 175.579 767.287 167.82L941.774 693.905C739.295 779.251 335.729 888.684 309.291 641.646Z" fill="#470817"/>
<path d="M763.475 167.82C647.65 249.031 759.713 682.663 940.219 694.921C1012.42 606.05 990.612 201.53 763.475 167.82Z" fill="#470817"/>
<ellipse cx="42.1439" cy="80.4997" rx="42.1439" ry="80.4997" transform="matrix(0.977189 -0.212374 0.217837 0.975985 815.811 357.07)" fill="#470817"/>
<ellipse cx="24.322" cy="46.4578" rx="24.322" ry="46.4578" transform="matrix(0.977189 -0.212374 0.217837 0.975985 832.762 386.499)" fill="#470817"/>
<path d="M172.719 670.457C217.844 652.289 361.018 587.737 463.614 543.341L484.486 657.763L201.223 746.351C197.216 750.347 182.154 768.345 153.964 808.365C109.2 816.639 104.314 781.667 107.467 763.147L140.3 720.316C130.685 717.121 104.226 708.052 75.3146 697.341C39.1749 683.953 86.4304 645.914 93.0631 638.473C98.3692 632.519 148.378 657.315 172.719 670.457Z" fill="#D9D9D9"/>
<path d="M337.396 631.275C307.751 351.1 719.956 201.861 753.835 194.822L911.941 679.144C730.308 756.579 361.112 855.414 337.396 631.275Z" fill="#985F5F"/>
<path d="M755.247 193.414C646.549 268.033 746.776 666.472 916.175 677.736C983.935 596.077 968.407 224.388 755.247 193.414Z" fill="#EA7FB2"/>
<ellipse cx="37.86" cy="73.0197" rx="37.86" ry="73.0197" transform="matrix(0.976714 -0.214545 0.215635 0.976474 794.773 372.977)" fill="#D9D9D9"/>
<ellipse cx="22.6733" cy="43.7294" rx="22.6733" ry="43.7294" transform="matrix(0.976714 -0.214545 0.215635 0.976474 816.521 396.464)" fill="#AF537F"/>
<path d="M916.176 677.735C964.172 611.563 958.714 487.71 941.775 417.315C930.693 484.834 917.587 680.551 752.423 520.049C775.01 574.958 834.3 677.735 916.176 677.735Z" fill="#AF537F"/>
<path d="M345.866 663.656C568.343 715.467 710.074 590.445 752.424 522.865C784.892 594.669 834.3 662.248 916.176 677.735C680.429 779.105 395.274 825.566 345.866 663.656Z" fill="#794444"/>
<path d="M175.055 718.565C178.443 715.186 288.929 680.551 343.043 663.656L358.571 697.446C306.81 714.341 204.135 746.723 201.877 746.723C199.053 746.723 183.525 769.25 153.88 808.671C128.47 812.895 110.119 805.856 107.295 777.697C132.705 810.079 170.82 722.789 175.055 718.565Z" fill="#B8B8B8"/>
<path d="M172.719 670.457C217.844 652.289 361.018 587.737 463.614 543.341L484.486 657.763L201.223 746.351C197.216 750.347 182.154 768.345 153.964 808.365C109.2 816.639 104.314 781.667 107.467 763.147L140.3 720.316C130.685 717.121 104.226 708.052 75.3146 697.341C39.1749 683.953 86.4304 645.914 93.0631 638.473C98.3692 632.519 148.378 657.315 172.719 670.457Z" fill="#D9D9D9"/>
<path d="M337.396 631.275C307.751 351.1 719.956 201.861 753.835 194.822L911.941 679.144C730.308 756.579 361.112 855.414 337.396 631.275Z" fill="#985F5F"/>
<path d="M755.247 193.414C646.549 268.033 746.776 666.472 916.175 677.736C983.935 596.077 968.407 224.388 755.247 193.414Z" fill="#EA7FB2"/>
<ellipse cx="37.86" cy="73.0197" rx="37.86" ry="73.0197" transform="matrix(0.976714 -0.214545 0.215635 0.976474 794.773 372.977)" fill="#D9D9D9"/>
<ellipse cx="22.6733" cy="43.7294" rx="22.6733" ry="43.7294" transform="matrix(0.976714 -0.214545 0.215635 0.976474 816.521 396.464)" fill="#AF537F"/>
<path d="M916.176 677.735C964.172 611.563 958.714 487.71 941.775 417.315C930.693 484.834 917.587 680.551 752.423 520.049C775.01 574.958 834.3 677.735 916.176 677.735Z" fill="#AF537F"/>
<path d="M345.866 663.656C568.343 715.467 710.074 590.445 752.424 522.865C784.892 594.669 834.3 662.248 916.176 677.735C680.429 779.105 395.274 825.566 345.866 663.656Z" fill="#794444"/>
<path d="M175.055 718.565C178.443 715.186 288.929 680.551 343.043 663.656L358.571 697.446C306.81 714.341 204.135 746.723 201.877 746.723C199.053 746.723 183.525 769.25 153.88 808.671C128.47 812.895 110.119 805.856 107.295 777.697C132.705 810.079 170.82 722.789 175.055 718.565Z" fill="#B8B8B8"/>
<path d="M594.103 287.523C627.334 269.677 697.375 232.456 711.689 226.337C685.105 269.167 672.494 335.962 678.458 361.456C668.234 364.005 638.581 370.634 581.322 397.148C554.737 376.752 583.026 315.566 594.103 287.523Z" fill="#794444"/>
<path d="M450.955 386.95C479.073 351.258 540.422 318.116 550.647 310.468C530.198 359.416 529.345 397.148 537.866 409.895C508.895 417.543 432.023 475.822 430.505 465.982C425.391 432.839 420.279 412.444 450.955 386.95Z" fill="#794444"/>
<path d="M724.466 514.421C711.685 486.377 688.68 392.049 688.68 386.95C671.638 395.448 630.399 407.855 581.319 440.488C569.049 467.002 600.064 538.215 617.106 570.508C629.887 559.46 673.342 551.132 724.466 514.421Z" fill="#794444"/>
<path d="M581.319 580.705C562.914 560.31 553.201 488.927 550.645 455.784C514.858 477.029 446.865 502.184 430.505 514.421C414.145 526.658 429.651 590.903 443.285 611.298C465.438 608.749 524.06 599.061 581.319 580.705Z" fill="#794444"/>
<path d="M417.723 481.279C410.906 474.48 409.032 442.527 404.942 440.488C395.569 463.433 363.02 528.698 358.93 534.816C354.841 540.935 396.421 501.674 417.723 481.279Z" fill="#794444"/>
<path d="M422.835 611.299C412.611 607.22 402.386 560.31 399.83 537.366C333.368 575.607 351.262 606.2 353.818 616.398C356.374 626.595 364.043 616.398 422.835 611.299Z" fill="#794444"/>
</svg>
