<svg width="501" height="501" viewBox="0 0 501 501" fill="none" xmlns="http://www.w3.org/2000/svg">
<path d="M87.0988 321.845C109.828 312.286 165.798 278.433 217.471 255.059L240.358 351.692L106.468 383.955C104.454 386.069 96.4894 396.036 78.2765 414.969C55.7103 419.278 43.0452 404.118 43.0486 381.591L57.1444 364.018C52.2879 362.304 38.2804 357.464 23.6751 351.724C5.41858 344.55 37.966 313.491 41.2978 309.553C43.9634 306.402 74.7947 314.823 87.0988 321.845Z" fill="#470817"/>
<path d="M154.912 321.572C138.389 167.174 365.026 88.539 383.91 84.6597L471.154 347.702C369.915 390.375 168.131 445.092 154.912 321.572Z" fill="#470817"/>
<path d="M382.005 84.6597C324.092 125.265 380.124 342.081 470.377 348.21C506.478 303.774 495.573 101.515 382.005 84.6597Z" fill="#470817"/>
<ellipse cx="21.072" cy="40.2498" rx="21.072" ry="40.2498" transform="matrix(0.977189 -0.212374 0.217837 0.975985 408.173 179.284)" fill="#470817"/>
<ellipse cx="12.161" cy="23.2289" rx="12.161" ry="23.2289" transform="matrix(0.977189 -0.212374 0.217837 0.975985 416.648 193.999)" fill="#470817"/>
<path d="M86.627 335.978C109.189 326.894 180.776 294.618 232.074 272.42L242.51 329.631L100.879 373.925C98.8752 375.923 91.3443 384.922 77.2492 404.932C54.8671 409.069 52.4245 391.583 54.0009 382.323L70.4173 360.907C65.6097 359.31 52.3805 354.775 37.9246 349.42C19.8548 342.726 43.4825 323.707 46.7989 319.986C49.4519 317.009 74.4564 329.407 86.627 335.978Z" fill="#D9D9D9"/>
<path d="M168.965 316.387C154.143 176.299 360.245 101.68 377.185 98.1603L456.238 340.321C365.421 379.039 180.823 428.457 168.965 316.387Z" fill="#985F5F"/>
<path d="M377.891 97.4562C323.542 134.766 373.656 333.985 458.355 339.617C492.235 298.788 484.471 112.943 377.891 97.4562Z" fill="#EA7FB2"/>
<ellipse cx="18.93" cy="36.5098" rx="18.93" ry="36.5098" transform="matrix(0.976714 -0.214545 0.215635 0.976474 397.654 187.238)" fill="#D9D9D9"/>
<ellipse cx="11.3366" cy="21.8647" rx="11.3366" ry="21.8647" transform="matrix(0.976714 -0.214545 0.215635 0.976474 408.528 198.981)" fill="#AF537F"/>
<path d="M458.355 339.617C482.353 306.531 479.625 244.605 471.155 209.407C465.614 243.166 459.061 341.025 376.479 260.774C387.772 288.228 417.417 339.617 458.355 339.617Z" fill="#AF537F"/>
<path d="M173.2 332.578C284.439 358.483 355.304 295.972 376.479 262.182C392.713 298.084 417.417 331.874 458.355 339.617C340.482 390.302 197.904 413.533 173.2 332.578Z" fill="#794444"/>
<path d="M87.7949 360.032C89.4889 358.342 144.732 341.025 171.789 332.578L179.553 349.473C153.672 357.92 102.335 374.111 101.206 374.111C99.794 374.111 92.0298 385.374 77.2074 405.085C64.5025 407.197 55.3267 403.677 53.915 389.598C66.62 405.789 85.6774 362.144 87.7949 360.032Z" fill="#B8B8B8"/>
<path d="M86.627 335.978C109.189 326.894 180.776 294.618 232.074 272.42L242.51 329.631L100.879 373.925C98.8752 375.923 91.3443 384.922 77.2492 404.932C54.8671 409.069 52.4245 391.583 54.0009 382.323L70.4173 360.907C65.6097 359.31 52.3805 354.775 37.9246 349.42C19.8548 342.726 43.4825 323.707 46.7989 319.986C49.4519 317.009 74.4564 329.407 86.627 335.978Z" fill="#D9D9D9"/>
<path d="M168.965 316.387C154.143 176.299 360.245 101.68 377.185 98.1603L456.238 340.321C365.421 379.039 180.823 428.457 168.965 316.387Z" fill="#985F5F"/>
<path d="M377.891 97.4562C323.542 134.766 373.656 333.985 458.355 339.617C492.235 298.788 484.471 112.943 377.891 97.4562Z" fill="#EA7FB2"/>
<ellipse cx="18.93" cy="36.5098" rx="18.93" ry="36.5098" transform="matrix(0.976714 -0.214545 0.215635 0.976474 397.654 187.238)" fill="#D9D9D9"/>
<ellipse cx="11.3366" cy="21.8647" rx="11.3366" ry="21.8647" transform="matrix(0.976714 -0.214545 0.215635 0.976474 408.528 198.981)" fill="#AF537F"/>
<path d="M458.355 339.617C482.353 306.531 479.625 244.605 471.155 209.407C465.614 243.166 459.061 341.025 376.479 260.774C387.772 288.228 417.417 339.617 458.355 339.617Z" fill="#AF537F"/>
<path d="M173.2 332.578C284.439 358.483 355.304 295.972 376.479 262.182C392.713 298.084 417.417 331.874 458.355 339.617C340.482 390.302 197.904 413.533 173.2 332.578Z" fill="#794444"/>
<path d="M87.7949 360.032C89.4889 358.342 144.732 341.025 171.789 332.578L179.553 349.473C153.672 357.92 102.335 374.111 101.206 374.111C99.794 374.111 92.0298 385.374 77.2074 405.085C64.5025 407.197 55.3267 403.677 53.915 389.598C66.62 405.789 85.6774 362.144 87.7949 360.032Z" fill="#B8B8B8"/>
<path d="M297.318 144.511C313.934 135.588 348.954 116.977 356.112 113.918C342.819 135.333 336.514 168.73 339.496 181.477C334.384 182.752 319.558 186.066 290.928 199.323C277.635 189.126 291.78 158.533 297.318 144.511Z" fill="#794444"/>
<path d="M225.744 194.224C239.803 176.378 270.478 159.807 275.591 155.983C265.366 180.458 264.94 199.323 269.2 205.697C254.715 209.521 216.278 238.66 215.519 233.74C212.963 217.169 210.406 206.971 225.744 194.224Z" fill="#794444"/>
<path d="M362.5 257.96C356.11 243.938 344.607 196.774 344.607 194.224C336.086 198.473 315.466 204.677 290.926 220.993C284.791 234.25 300.299 269.857 308.82 286.003C315.21 280.48 336.938 276.316 362.5 257.96Z" fill="#794444"/>
<path d="M290.926 291.102C281.724 280.904 276.867 245.213 275.589 228.641C257.696 239.264 223.699 251.841 215.519 257.96C207.339 264.078 215.092 296.201 221.909 306.399C232.986 305.124 262.297 300.28 290.926 291.102Z" fill="#794444"/>
<path d="M209.128 241.389C205.72 237.99 204.783 222.013 202.738 220.993C198.051 232.466 181.777 265.098 179.732 268.158C177.687 271.217 198.478 251.586 209.128 241.389Z" fill="#794444"/>
<path d="M211.685 306.399C206.572 304.359 201.46 280.905 200.182 269.432C166.951 288.553 175.898 303.849 177.176 308.948C178.454 314.047 182.288 308.948 211.685 306.399Z" fill="#794444"/>
</svg>
