<svg width="1001" height="1001" viewBox="0 0 1001 1001" fill="none" xmlns="http://www.w3.org/2000/svg">
<path d="M174.082 641.937C219.541 622.818 331.481 555.113 434.826 508.364L480.6 701.631L212.819 766.157C208.792 770.385 192.863 790.318 156.437 828.186C111.305 836.802 85.9747 806.483 85.9815 761.429L114.173 726.284C104.46 722.855 76.445 713.174 47.2345 701.695C10.7214 687.346 75.8162 625.228 82.48 617.352C87.811 611.052 149.474 627.894 174.082 641.937Z" fill="#470817"/>
<path d="M309.71 641.391C276.663 332.594 729.937 175.325 767.705 167.566L942.193 693.651C739.714 778.997 336.147 888.43 309.71 641.391Z" fill="#470817"/>
<path d="M763.893 167.566C648.068 248.776 760.131 682.409 940.637 694.667C1012.84 605.795 991.03 201.276 763.893 167.566Z" fill="#470817"/>
<ellipse cx="42.1439" cy="80.4997" rx="42.1439" ry="80.4997" transform="matrix(0.977189 -0.212374 0.217837 0.975985 816.23 356.815)" fill="#470817"/>
<ellipse cx="24.322" cy="46.4578" rx="24.322" ry="46.4578" transform="matrix(0.977189 -0.212374 0.217837 0.975985 833.18 386.245)" fill="#470817"/>
<path d="M173.137 670.203C218.262 652.035 361.436 587.482 464.032 543.087L484.904 657.509L201.641 746.096C197.634 750.093 182.572 768.091 154.382 808.111C109.618 816.385 104.732 781.413 107.885 762.893L140.718 720.062C131.103 716.866 104.644 707.797 75.7325 697.087C39.5928 683.698 86.8484 645.66 93.481 638.218C98.7872 632.265 148.796 657.061 173.137 670.203Z" fill="#D9D9D9"/>
<path d="M337.814 631.02C308.169 350.845 720.374 201.606 754.253 194.567L912.359 678.889C730.726 756.324 361.53 855.16 337.814 631.02Z" fill="#985F5F"/>
<path d="M755.665 193.159C646.967 267.779 747.195 666.218 916.594 677.481C984.354 595.822 968.825 224.133 755.665 193.159Z" fill="#EA7FB2"/>
<ellipse cx="37.86" cy="73.0197" rx="37.86" ry="73.0197" transform="matrix(0.976714 -0.214545 0.215635 0.976474 795.192 372.723)" fill="#D9D9D9"/>
<ellipse cx="22.6733" cy="43.7294" rx="22.6733" ry="43.7294" transform="matrix(0.976714 -0.214545 0.215635 0.976474 816.939 396.21)" fill="#AF537F"/>
<path d="M916.594 677.481C964.59 611.309 959.132 487.456 942.192 417.06C931.111 484.579 918.005 680.297 752.841 519.795C775.428 574.703 834.718 677.481 916.594 677.481Z" fill="#AF537F"/>
<path d="M346.284 663.402C568.761 715.213 710.492 590.191 752.842 522.611C785.31 594.414 834.718 661.994 916.594 677.481C680.847 778.851 395.692 825.312 346.284 663.402Z" fill="#794444"/>
<path d="M175.473 718.31C178.861 714.931 289.346 680.297 343.46 663.402L358.988 697.192C307.227 714.087 204.553 746.469 202.294 746.469C199.471 746.469 183.942 768.995 154.298 808.417C128.888 812.641 110.536 805.601 107.713 777.443C133.123 809.825 171.238 722.534 175.473 718.31Z" fill="#B8B8B8"/>
<path d="M173.137 670.203C218.262 652.035 361.436 587.482 464.032 543.087L484.904 657.509L201.641 746.096C197.634 750.093 182.572 768.091 154.382 808.111C109.618 816.385 104.732 781.413 107.885 762.893L140.718 720.062C131.103 716.866 104.644 707.797 75.7325 697.087C39.5928 683.698 86.8484 645.66 93.481 638.218C98.7872 632.265 148.796 657.061 173.137 670.203Z" fill="#D9D9D9"/>
<path d="M337.814 631.02C308.169 350.845 720.374 201.606 754.253 194.567L912.359 678.889C730.726 756.324 361.53 855.16 337.814 631.02Z" fill="#985F5F"/>
<path d="M755.665 193.159C646.967 267.779 747.195 666.218 916.594 677.481C984.354 595.822 968.825 224.133 755.665 193.159Z" fill="#EA7FB2"/>
<ellipse cx="37.86" cy="73.0197" rx="37.86" ry="73.0197" transform="matrix(0.976714 -0.214545 0.215635 0.976474 795.192 372.723)" fill="#D9D9D9"/>
<ellipse cx="22.6733" cy="43.7294" rx="22.6733" ry="43.7294" transform="matrix(0.976714 -0.214545 0.215635 0.976474 816.939 396.21)" fill="#AF537F"/>
<path d="M916.594 677.481C964.59 611.309 959.132 487.456 942.192 417.06C931.111 484.579 918.005 680.297 752.841 519.795C775.428 574.703 834.718 677.481 916.594 677.481Z" fill="#AF537F"/>
<path d="M346.284 663.402C568.761 715.213 710.492 590.191 752.842 522.611C785.31 594.414 834.718 661.994 916.594 677.481C680.847 778.851 395.692 825.312 346.284 663.402Z" fill="#794444"/>
<path d="M175.473 718.31C178.861 714.931 289.346 680.297 343.46 663.402L358.988 697.192C307.227 714.087 204.553 746.469 202.294 746.469C199.471 746.469 183.942 768.995 154.298 808.417C128.888 812.641 110.536 805.601 107.713 777.443C133.123 809.825 171.238 722.534 175.473 718.31Z" fill="#B8B8B8"/>
<path d="M594.521 287.268C627.752 269.423 697.793 232.201 712.107 226.083C685.523 268.913 672.912 335.707 678.876 361.201C668.652 363.751 638.999 370.379 581.74 396.893C555.155 376.498 583.444 315.312 594.521 287.268Z" fill="#794444"/>
<path d="M451.373 386.696C479.491 351.004 540.84 317.861 551.065 310.213C530.616 359.162 529.763 396.893 538.284 409.64C509.313 417.289 432.441 475.568 430.923 465.727C425.809 432.585 420.697 412.19 451.373 386.696Z" fill="#794444"/>
<path d="M724.884 514.166C712.103 486.123 689.098 391.794 689.098 386.696C672.056 395.194 630.817 407.601 581.737 440.233C569.467 466.747 600.482 537.961 617.524 570.253C630.305 559.206 673.76 550.878 724.884 514.166Z" fill="#794444"/>
<path d="M581.737 580.451C563.332 560.056 553.619 488.672 551.063 455.53C515.276 476.775 447.283 501.929 430.923 514.166C414.563 526.404 430.069 590.649 443.702 611.044C465.856 608.495 524.478 598.807 581.737 580.451Z" fill="#794444"/>
<path d="M418.141 481.024C411.324 474.226 409.45 442.273 405.36 440.233C395.987 463.178 363.438 528.443 359.348 534.562C355.259 540.68 396.839 501.419 418.141 481.024Z" fill="#794444"/>
<path d="M423.253 611.044C413.029 606.965 402.804 560.056 400.248 537.111C333.786 575.352 351.68 605.945 354.236 616.143C356.792 626.341 364.461 616.143 423.253 611.044Z" fill="#794444"/>
</svg>
