<svg width="501" height="501" viewBox="0 0 501 501" fill="none" xmlns="http://www.w3.org/2000/svg">
<path d="M87.3474 321.542C110.077 311.982 166.047 278.129 217.719 254.755L240.606 351.389L106.716 383.651C104.702 385.765 96.7379 395.732 78.5251 414.666C55.9588 418.974 43.2937 403.814 43.2971 381.287L57.393 363.715C52.5364 362.001 38.5289 357.16 23.9237 351.421C5.66712 344.246 38.2145 313.187 41.5464 309.249C44.2119 306.099 75.0432 314.52 87.3474 321.542Z" fill="#470817"/>
<path d="M155.161 321.269C138.638 166.87 365.275 88.2354 384.159 84.3561L471.403 347.398C370.164 390.072 168.38 444.788 155.161 321.269Z" fill="#470817"/>
<path d="M382.253 84.3561C324.34 124.961 380.372 341.777 470.625 347.907C506.726 303.471 495.821 101.211 382.253 84.3561Z" fill="#470817"/>
<ellipse cx="21.072" cy="40.2498" rx="21.072" ry="40.2498" transform="matrix(0.977189 -0.212374 0.217837 0.975985 408.421 178.98)" fill="#470817"/>
<ellipse cx="12.161" cy="23.2289" rx="12.161" ry="23.2289" transform="matrix(0.977189 -0.212374 0.217837 0.975985 416.896 193.695)" fill="#470817"/>
<path d="M86.875 335.675C109.437 326.591 181.024 294.314 232.322 272.117L242.758 329.328L101.127 373.621C99.1233 375.62 91.5923 384.619 77.4972 404.629C55.1152 408.766 52.6725 391.28 54.249 382.02L70.6653 360.604C65.8577 359.006 52.6285 354.472 38.1727 349.117C20.1028 342.422 43.7306 323.403 47.0469 319.682C49.7 316.706 74.7044 329.104 86.875 335.675Z" fill="#D9D9D9"/>
<path d="M169.213 316.083C154.391 175.996 360.493 101.376 377.433 97.8566L456.486 340.018C365.669 378.735 181.071 428.153 169.213 316.083Z" fill="#985F5F"/>
<path d="M378.139 97.1527C323.79 134.462 373.904 333.682 458.603 339.314C492.483 298.484 484.719 112.64 378.139 97.1527Z" fill="#EA7FB2"/>
<ellipse cx="18.93" cy="36.5098" rx="18.93" ry="36.5098" transform="matrix(0.976714 -0.214545 0.215635 0.976474 397.902 186.934)" fill="#D9D9D9"/>
<ellipse cx="11.3366" cy="21.8647" rx="11.3366" ry="21.8647" transform="matrix(0.976714 -0.214545 0.215635 0.976474 408.775 198.678)" fill="#AF537F"/>
<path d="M458.603 339.314C482.601 306.228 479.873 244.301 471.403 209.103C465.862 242.863 459.309 340.722 376.727 260.471C388.02 287.925 417.665 339.314 458.603 339.314Z" fill="#AF537F"/>
<path d="M173.448 332.274C284.687 358.18 355.552 295.668 376.727 261.879C392.961 297.78 417.665 331.57 458.603 339.314C340.729 389.999 198.152 413.229 173.448 332.274Z" fill="#794444"/>
<path d="M88.0429 359.728C89.7369 358.039 144.98 340.721 172.037 332.274L179.801 349.169C153.92 357.616 102.583 373.807 101.454 373.807C100.042 373.807 92.2779 385.071 77.4555 404.781C64.7505 406.893 55.5747 403.374 54.1631 389.294C66.868 405.485 85.9254 361.84 88.0429 359.728Z" fill="#B8B8B8"/>
<path d="M86.875 335.675C109.437 326.591 181.024 294.314 232.322 272.117L242.758 329.328L101.127 373.621C99.1233 375.62 91.5923 384.619 77.4972 404.629C55.1152 408.766 52.6725 391.28 54.249 382.02L70.6653 360.604C65.8577 359.006 52.6285 354.472 38.1727 349.117C20.1028 342.422 43.7306 323.403 47.0469 319.682C49.7 316.706 74.7044 329.104 86.875 335.675Z" fill="#D9D9D9"/>
<path d="M169.213 316.083C154.391 175.996 360.493 101.376 377.433 97.8566L456.486 340.018C365.669 378.735 181.071 428.153 169.213 316.083Z" fill="#985F5F"/>
<path d="M378.139 97.1527C323.79 134.462 373.904 333.682 458.603 339.314C492.483 298.484 484.719 112.64 378.139 97.1527Z" fill="#EA7FB2"/>
<ellipse cx="18.93" cy="36.5098" rx="18.93" ry="36.5098" transform="matrix(0.976714 -0.214545 0.215635 0.976474 397.902 186.934)" fill="#D9D9D9"/>
<ellipse cx="11.3366" cy="21.8647" rx="11.3366" ry="21.8647" transform="matrix(0.976714 -0.214545 0.215635 0.976474 408.775 198.678)" fill="#AF537F"/>
<path d="M458.603 339.314C482.601 306.228 479.873 244.301 471.403 209.103C465.862 242.863 459.309 340.722 376.727 260.471C388.02 287.925 417.665 339.314 458.603 339.314Z" fill="#AF537F"/>
<path d="M173.448 332.274C284.687 358.18 355.552 295.668 376.727 261.879C392.961 297.78 417.665 331.57 458.603 339.314C340.729 389.999 198.152 413.229 173.448 332.274Z" fill="#794444"/>
<path d="M88.0429 359.728C89.7369 358.039 144.98 340.721 172.037 332.274L179.801 349.169C153.92 357.616 102.583 373.807 101.454 373.807C100.042 373.807 92.2779 385.071 77.4555 404.781C64.7505 406.893 55.5747 403.374 54.1631 389.294C66.868 405.485 85.9254 361.84 88.0429 359.728Z" fill="#B8B8B8"/>
<path d="M297.567 144.207C314.182 135.284 349.203 116.673 356.36 113.614C343.068 135.029 336.762 168.427 339.745 181.174C334.632 182.448 319.806 185.763 291.176 199.02C277.884 188.822 292.028 158.229 297.567 144.207Z" fill="#794444"/>
<path d="M225.993 193.921C240.052 176.075 270.727 159.504 275.839 155.679C265.614 180.154 265.188 199.02 269.448 205.393C254.963 209.217 216.527 238.357 215.768 233.437C213.211 216.865 210.655 206.668 225.993 193.921Z" fill="#794444"/>
<path d="M362.749 257.656C356.358 243.634 344.855 196.47 344.855 193.921C336.334 198.17 315.715 204.373 291.175 220.69C285.04 233.946 300.548 269.553 309.068 285.7C315.459 280.176 337.186 276.012 362.749 257.656Z" fill="#794444"/>
<path d="M291.175 290.798C281.973 280.601 277.116 244.909 275.838 228.338C257.944 238.96 223.948 251.537 215.768 257.656C207.588 263.775 215.341 295.897 222.158 306.095C233.235 304.82 262.545 299.976 291.175 290.798Z" fill="#794444"/>
<path d="M209.377 241.085C205.969 237.686 205.031 221.709 202.986 220.69C198.3 232.162 182.026 264.794 179.981 267.854C177.936 270.913 198.726 251.283 209.377 241.085Z" fill="#794444"/>
<path d="M211.933 306.095C206.821 304.055 201.708 280.601 200.43 269.128C167.2 288.249 176.146 303.546 177.424 308.644C178.702 313.743 182.537 308.644 211.933 306.095Z" fill="#794444"/>
</svg>
