<svg width="1001" height="1001" viewBox="0 0 1001 1001" fill="none" xmlns="http://www.w3.org/2000/svg">
<path d="M174.126 642.086C219.585 622.967 331.525 555.261 434.87 508.513L480.643 701.78L212.863 766.305C208.836 770.533 192.907 790.467 156.481 828.334C111.349 836.951 86.0186 806.631 86.0254 761.577L114.217 726.432C104.504 723.004 76.4889 713.323 47.2785 701.844C10.7654 687.495 75.8602 625.377 82.5239 617.501C87.8549 611.2 149.518 628.043 174.126 642.086Z" fill="#470817"/>
<path d="M309.754 641.541C276.707 332.743 729.981 175.474 767.749 167.715L942.236 693.8C739.758 779.146 336.191 888.579 309.754 641.541Z" fill="#470817"/>
<path d="M763.938 167.715C648.113 248.925 760.176 682.558 940.681 694.816C1012.88 605.944 991.074 201.425 763.938 167.715Z" fill="#470817"/>
<ellipse cx="42.1439" cy="80.4997" rx="42.1439" ry="80.4997" transform="matrix(0.977189 -0.212374 0.217837 0.975985 816.274 356.964)" fill="#470817"/>
<ellipse cx="24.322" cy="46.4578" rx="24.322" ry="46.4578" transform="matrix(0.977189 -0.212374 0.217837 0.975985 833.224 386.393)" fill="#470817"/>
<path d="M173.182 670.352C218.306 652.184 361.48 587.631 464.077 543.236L484.948 657.658L201.685 746.245C197.678 750.242 182.616 768.24 154.426 808.26C109.662 816.534 104.777 781.562 107.93 763.042L140.762 720.211C131.147 717.015 104.689 707.946 75.777 697.236C39.6373 683.847 86.8928 645.809 93.5255 638.367C98.8316 632.414 148.84 657.21 173.182 670.352Z" fill="#D9D9D9"/>
<path d="M337.858 631.169C308.213 350.995 720.418 201.756 754.298 194.716L912.404 679.038C730.77 756.474 361.574 855.309 337.858 631.169Z" fill="#985F5F"/>
<path d="M755.709 193.308C647.011 267.927 747.239 666.367 916.638 677.63C984.398 595.971 968.869 224.282 755.709 193.308Z" fill="#EA7FB2"/>
<ellipse cx="37.86" cy="73.0197" rx="37.86" ry="73.0197" transform="matrix(0.976714 -0.214545 0.215635 0.976474 795.236 372.871)" fill="#D9D9D9"/>
<ellipse cx="22.6733" cy="43.7294" rx="22.6733" ry="43.7294" transform="matrix(0.976714 -0.214545 0.215635 0.976474 816.983 396.359)" fill="#AF537F"/>
<path d="M916.639 677.63C964.635 611.458 959.177 487.605 942.237 417.209C931.156 484.728 918.05 680.446 752.886 519.944C775.473 574.852 834.762 677.63 916.639 677.63Z" fill="#AF537F"/>
<path d="M346.328 663.551C568.805 715.362 710.536 590.339 752.885 522.76C785.354 594.563 834.762 662.143 916.638 677.63C680.891 779 395.736 825.461 346.328 663.551Z" fill="#794444"/>
<path d="M175.517 718.46C178.905 715.081 289.391 680.446 343.505 663.551L359.033 697.341C307.272 714.236 204.598 746.618 202.339 746.618C199.516 746.618 183.987 769.144 154.343 808.566C128.933 812.79 110.581 805.75 107.758 777.592C133.168 809.974 171.282 722.683 175.517 718.46Z" fill="#B8B8B8"/>
<path d="M173.182 670.352C218.306 652.184 361.48 587.631 464.077 543.236L484.948 657.658L201.685 746.245C197.678 750.242 182.616 768.24 154.426 808.26C109.662 816.534 104.777 781.562 107.93 763.042L140.762 720.211C131.147 717.015 104.689 707.946 75.777 697.236C39.6373 683.847 86.8928 645.809 93.5255 638.367C98.8316 632.414 148.84 657.21 173.182 670.352Z" fill="#D9D9D9"/>
<path d="M337.858 631.169C308.213 350.995 720.418 201.756 754.298 194.716L912.404 679.038C730.77 756.474 361.574 855.309 337.858 631.169Z" fill="#985F5F"/>
<path d="M755.709 193.308C647.011 267.927 747.239 666.367 916.638 677.63C984.398 595.971 968.869 224.282 755.709 193.308Z" fill="#EA7FB2"/>
<ellipse cx="37.86" cy="73.0197" rx="37.86" ry="73.0197" transform="matrix(0.976714 -0.214545 0.215635 0.976474 795.236 372.871)" fill="#D9D9D9"/>
<ellipse cx="22.6733" cy="43.7294" rx="22.6733" ry="43.7294" transform="matrix(0.976714 -0.214545 0.215635 0.976474 816.983 396.359)" fill="#AF537F"/>
<path d="M916.639 677.63C964.635 611.458 959.177 487.605 942.237 417.209C931.156 484.728 918.05 680.446 752.886 519.944C775.473 574.852 834.762 677.63 916.639 677.63Z" fill="#AF537F"/>
<path d="M346.328 663.551C568.805 715.362 710.536 590.339 752.885 522.76C785.354 594.563 834.762 662.143 916.638 677.63C680.891 779 395.736 825.461 346.328 663.551Z" fill="#794444"/>
<path d="M175.517 718.46C178.905 715.081 289.391 680.446 343.505 663.551L359.033 697.341C307.272 714.236 204.598 746.618 202.339 746.618C199.516 746.618 183.987 769.144 154.343 808.566C128.933 812.79 110.581 805.75 107.758 777.592C133.168 809.974 171.282 722.683 175.517 718.46Z" fill="#B8B8B8"/>
<path d="M594.566 287.417C627.796 269.572 697.837 232.35 712.152 226.232C685.567 269.062 672.956 335.856 678.921 361.35C668.696 363.9 639.044 370.528 581.784 397.042C555.199 376.647 583.489 315.461 594.566 287.417Z" fill="#794444"/>
<path d="M451.417 386.845C479.536 351.153 540.885 318.01 551.11 310.362C530.66 359.311 529.808 397.042 538.328 409.789C509.358 417.438 432.485 475.716 430.967 465.876C425.854 432.734 420.741 412.339 451.417 386.845Z" fill="#794444"/>
<path d="M724.929 514.315C712.148 486.272 689.142 391.943 689.142 386.845C672.1 395.343 630.861 407.75 581.781 440.382C569.512 466.896 600.527 538.11 617.568 570.402C630.349 559.355 673.804 551.027 724.929 514.315Z" fill="#794444"/>
<path d="M581.781 580.6C563.377 560.205 553.663 488.821 551.107 455.679C515.32 476.924 447.327 502.078 430.967 514.315C414.607 526.552 430.114 590.798 443.747 611.193C465.901 608.644 524.522 598.956 581.781 580.6Z" fill="#794444"/>
<path d="M418.185 481.173C411.369 474.375 409.494 442.422 405.404 440.382C396.032 463.327 363.483 528.592 359.393 534.711C355.303 540.829 396.884 501.568 418.185 481.173Z" fill="#794444"/>
<path d="M423.298 611.193C413.073 607.114 402.848 560.205 400.292 537.26C333.831 575.501 351.724 606.094 354.28 616.292C356.837 626.49 364.505 616.292 423.298 611.193Z" fill="#794444"/>
</svg>
