<svg width="1001" height="1001" viewBox="0 0 1001 1001" fill="none" xmlns="http://www.w3.org/2000/svg">
<g clip-path="url(#clip0_442_64)">
<path d="M36.6415 540.272L36.6426 540.272L108.869 528.734L88.3288 431.133C88.3288 431.132 88.3287 431.132 88.3287 431.132C86.787 423.807 88.6597 416.176 93.4202 410.396L307.638 150.302L313.921 126.154L287.501 88.0323M36.6415 540.272L287.501 88.0323M36.6415 540.272C12.7054 544.097 8.10172 576.558 30.031 586.888L30.0318 586.888L83.0494 611.858M36.6415 540.272L83.0494 611.858M287.501 88.0323C279.175 76.0176 283.081 59.4373 295.894 52.4029L295.895 52.4029L331.389 32.9175M287.501 88.0323L331.389 32.9175M331.389 32.9175C331.389 32.9174 331.389 32.9174 331.389 32.9174C336.391 30.1716 342.191 29.2471 347.799 30.3018L331.389 32.9175ZM83.0494 611.858L46.5725 665.454C33.9218 684.042 50.7402 708.477 72.6237 703.287C72.6241 703.287 72.6244 703.287 72.6247 703.287L146.925 685.668L144.356 776.507C143.714 799.221 171.544 810.617 187.019 793.985L187.02 793.985L249.029 727.335L345.6 839.907C351.617 846.92 361.055 849.978 370.044 847.823L370.045 847.823L428.13 833.891L535.779 825.395L536.93 883.461L536.93 883.464C537.392 906.632 566.686 916.414 580.969 898.149C580.969 898.149 580.969 898.148 580.969 898.148L618.679 849.925L665.453 914.108C665.456 914.112 665.459 914.116 665.461 914.119C667.133 916.413 669.181 918.391 671.51 919.976L744.583 969.709C764.587 983.324 790.18 962.956 781.403 940.407L737.967 828.796L830.831 845.189L830.84 845.191C832.099 845.413 833.385 845.538 834.685 845.561C834.689 845.561 834.692 845.561 834.695 845.561L931.475 847.243L931.893 823.176L931.475 847.243C956.309 847.674 966.104 815.246 945.181 801.858L779.272 695.704L798.347 656.19L798.348 656.187C805.697 640.959 795.872 623.019 779.078 621.016L779.077 621.016L720.453 614.027L721.196 536.449L728.789 457.184C728.789 457.182 728.789 457.179 728.789 457.177C729.252 452.343 728.276 447.484 725.988 443.207L694.295 383.95C693.515 382.492 692.588 381.111 691.525 379.832C691.524 379.831 691.523 379.83 691.522 379.828L569.677 233.071L569.674 233.067C568.793 232.006 567.822 231.019 566.773 230.118L566.771 230.116L472.454 149.135L456.775 167.397L472.454 149.135C470.726 147.651 468.8 146.414 466.73 145.459C466.73 145.458 466.729 145.458 466.729 145.458L438.775 132.555L419.431 58.1586C419.431 58.1586 419.431 58.1585 419.431 58.1585C417.03 48.9263 409.516 41.9096 400.141 40.1464C400.141 40.1464 400.141 40.1464 400.141 40.1464L347.799 30.3018L83.0494 611.858ZM136.952 548.049L135.128 536.633L135.129 536.637L136.952 548.049ZM192.477 777.868L169.736 777.225L192.477 777.868L192.478 777.828C192.478 777.841 192.477 777.855 192.477 777.868ZM441.574 143.32L441.574 143.32L441.574 143.32Z" fill="url(#paint0_linear_442_64)" stroke="#433958" stroke-width="48.1399"/>
<path d="M193.929 548.227L178.116 542.408C178.013 542.37 177.924 542.303 177.858 542.216L165.569 525.75C165.375 525.49 165.002 525.446 164.753 525.654L138.135 547.843C138.059 547.907 137.966 547.95 137.868 547.967L40.0369 564.599C39.4882 564.692 39.3891 565.438 39.8945 565.672L118.201 601.816C118.519 601.962 118.629 602.359 118.432 602.648L66.4642 679.006C66.174 679.432 66.5584 679.993 67.0607 679.876L170.766 655.756C171.126 655.672 171.469 655.952 171.46 656.322L168.41 777.208C168.397 777.727 169.032 777.989 169.388 777.61L250.255 691.686C250.304 691.635 250.362 691.592 250.427 691.562L301.794 667.44C302.034 667.328 302.164 667.064 302.107 666.806L289.927 611.29C289.917 611.246 289.902 611.203 289.882 611.162L274.56 579.964C274.469 579.78 274.287 579.659 274.083 579.648L229.474 577.161C229.234 577.148 229.029 576.985 228.962 576.754L219.149 543.064C219.065 542.776 218.771 542.603 218.479 542.671L194.252 548.248C194.145 548.272 194.033 548.265 193.929 548.227Z" fill="#E9ACFF"/>
<path d="M150.338 574.06L43.9517 564.537C43.2906 564.478 43.2531 563.526 43.9075 563.415L137.299 547.574C137.394 547.558 137.484 547.518 137.559 547.457L164.755 525.638C165.005 525.437 165.371 525.484 165.563 525.741L177.806 542.145C177.903 542.275 177.94 542.44 177.907 542.599L173.574 563.413C173.537 563.591 173.417 563.74 173.252 563.814L150.621 574.012C150.532 574.052 150.435 574.068 150.338 574.06Z" fill="#EFC1FF"/>
<path d="M68.2957 676.314L118.748 602.184C118.788 602.125 118.839 602.075 118.897 602.035L136.003 590.36C136.048 590.329 136.097 590.305 136.149 590.288L162.84 581.738C162.904 581.718 162.965 581.686 163.018 581.644L184.598 564.64C184.654 564.596 184.701 564.542 184.737 564.48L194.349 547.934C194.432 547.792 194.572 547.693 194.733 547.662L217.583 543.319C218.025 543.235 218.384 543.675 218.213 544.09L204.661 577.142C204.622 577.238 204.557 577.322 204.473 577.383L69.0998 677.089C68.5868 677.467 67.9373 676.841 68.2957 676.314Z" fill="#EFC1FF"/>
<path d="M167.318 775.344L171.657 656.708C171.66 656.607 171.691 656.51 171.744 656.425L205.09 603.738C205.109 603.708 205.131 603.679 205.155 603.653L229.466 577.723C229.581 577.6 229.746 577.535 229.915 577.546L272.052 580.188C272.516 580.217 272.749 580.761 272.451 581.117L255.284 601.613C255.253 601.649 255.227 601.689 255.207 601.732L227.317 659.978L168.388 775.622C168.113 776.163 167.296 775.951 167.318 775.344Z" fill="#EFC1FF"/>
<path d="M618.897 810.573L561.619 883.892C561.291 884.312 560.616 884.087 560.606 883.553L559.132 801.095C559.131 800.988 559.098 800.884 559.04 800.794L528.479 754.278C528.309 754.019 528.378 753.671 528.635 753.498L569.538 725.799C569.877 725.569 569.868 725.066 569.52 724.849L512.046 689.008C511.688 688.784 511.691 688.261 512.053 688.043L550.935 664.583C551.094 664.487 551.195 664.32 551.208 664.136L553.396 632.003C553.416 631.717 553.646 631.491 553.932 631.476L581.494 630.076C581.841 630.059 582.091 629.735 582.02 629.395L571.422 578.679C571.314 578.16 571.915 577.79 572.33 578.121L620.524 616.58C620.844 616.835 621.32 616.678 621.425 616.282L638.074 553.557C638.198 553.087 638.82 552.982 639.091 553.387L693.346 634.172C693.437 634.307 693.581 634.397 693.743 634.418L773.754 644.889C774.13 644.938 774.352 645.337 774.196 645.683L748.329 703.061C748.214 703.317 748.303 703.618 748.539 703.77L932.757 822.501C933.239 822.812 933.007 823.56 932.434 823.544L836.414 820.737L701.18 798.78C700.747 798.71 700.402 799.137 700.562 799.545L758.028 946.815C758.23 947.333 757.642 947.802 757.182 947.489L684.683 898.147C684.631 898.111 684.585 898.067 684.547 898.016L619.798 810.585C619.575 810.284 619.127 810.278 618.897 810.573Z" fill="#9FD1FF"/>
<path d="M688.02 863.441L756.166 944.755C756.581 945.251 755.974 945.943 755.428 945.597L685.822 901.438C685.761 901.399 685.708 901.349 685.665 901.29L619.83 809.527C619.775 809.452 619.74 809.364 619.728 809.271L612.131 751.595C612.055 751.014 612.802 750.714 613.149 751.186L634.098 779.682L688.02 863.441Z" fill="#C4E2FF"/>
<path d="M585.907 799.898L561.528 880.627C561.34 881.248 560.425 881.117 560.419 880.468L559.706 801.499C559.705 801.384 559.74 801.271 559.805 801.175L587.831 759.996C588.157 759.517 588.907 759.779 588.864 760.357L585.93 799.777C585.926 799.818 585.919 799.859 585.907 799.898Z" fill="#C4E2FF"/>
<path d="M833.52 821.287L929.487 823.686C930.143 823.702 930.297 822.777 929.672 822.579L797.872 781.059L737.175 766.616C737.138 766.607 737.103 766.595 737.069 766.579L675.771 738.286C675.744 738.274 675.716 738.263 675.688 738.255L616.759 721.576C616.182 721.413 615.78 722.139 616.225 722.541L700.654 798.901C700.734 798.974 700.833 799.022 700.94 799.04L833.52 821.287Z" fill="#C4E2FF"/>
<path d="M749.099 701.952C756.58 685.742 770.706 655.093 774.296 647.15C774.53 646.633 773.945 646.17 773.479 646.493L707.671 692.159C707.266 692.441 707.389 693.07 707.87 693.177L748.465 702.257C748.726 702.316 748.987 702.194 749.099 701.952Z" fill="#C4E2FF"/>
<path d="M574.586 691.421L513.994 686.576C513.415 686.53 513.15 687.282 513.63 687.609L568.47 724.932C568.627 725.039 568.826 725.06 569.001 724.989L593.536 715.041C593.891 714.897 594.004 714.448 593.758 714.153L574.976 691.623C574.879 691.506 574.738 691.434 574.586 691.421Z" fill="#C4E2FF"/>
<path d="M622.607 616.169L637.36 556.534C637.519 555.891 638.463 555.997 638.476 556.659L640.257 651.816C640.268 652.428 639.436 652.621 639.177 652.066L622.644 616.544C622.589 616.427 622.576 616.295 622.607 616.169Z" fill="#C4E2FF"/>
<path d="M572.066 369.361L499.887 291.707C499.859 291.676 499.826 291.648 499.791 291.624L426.951 242.049C426.64 241.838 426.213 241.983 426.094 242.34L413.704 279.82C413.656 279.963 413.665 280.113 413.733 280.247C427.136 306.786 454.871 361.233 459.415 368.349C463.961 375.467 457.036 418.615 452.98 439.441C452.961 439.537 452.968 439.631 452.999 439.724L476.315 509.996C476.346 510.09 476.401 510.173 476.474 510.239L537.211 564.852C537.521 565.13 538.015 564.99 538.133 564.591L543.543 546.233C543.61 546.005 543.813 545.843 544.05 545.828L602.916 542.027C603.206 542.008 603.435 541.774 603.446 541.484L605.467 489.651C605.469 489.618 605.467 489.585 605.462 489.552L596.293 422.924C596.285 422.87 596.27 422.817 596.248 422.768L572.167 369.513C572.142 369.457 572.108 369.406 572.066 369.361Z" fill="#808FC2"/>
<path d="M527.957 371.282L481.442 307.748C481.403 307.696 481.357 307.651 481.303 307.614L419.395 265.48C419.087 265.27 418.662 265.411 418.541 265.764L413.707 279.817C413.657 279.962 413.665 280.114 413.733 280.251C427.137 306.79 454.87 361.233 459.414 368.349C463.96 375.467 457.035 418.615 452.979 439.441C452.96 439.537 452.967 439.631 452.998 439.724L476.314 509.996C476.345 510.09 476.4 510.173 476.473 510.239L537.21 564.852C537.52 565.13 538.014 564.99 538.132 564.591L543.544 546.225C543.61 546.001 543.807 545.84 544.04 545.82L557.494 544.678C557.748 544.656 557.957 544.467 558.003 544.216L569.485 482.059C569.501 481.977 569.497 481.893 569.476 481.812L553.349 420.564C553.338 420.524 553.323 420.486 553.304 420.449L528.004 371.357C527.99 371.331 527.975 371.306 527.957 371.282Z" fill="#6874A0"/>
<path d="M478.28 370.263L455.199 330.229C455.17 330.179 455.134 330.134 455.092 330.096L426.52 303.666C426.057 303.237 425.346 303.771 425.631 304.334C438.771 330.288 455.018 361.463 459.414 368.348C463.96 375.466 457.036 418.613 452.979 439.44C452.96 439.535 452.967 439.63 452.998 439.722L476.315 509.996C476.346 510.089 476.4 510.172 476.472 510.238L527.59 556.603C527.914 556.897 528.435 556.728 528.525 556.3L530.922 544.884C530.938 544.807 530.938 544.727 530.922 544.649L517.116 479.89L508.545 411.165C508.533 411.068 508.496 410.976 508.438 410.898L478.28 370.263Z" fill="#515B7D"/>
</g>
<defs>
<linearGradient id="paint0_linear_442_64" x1="963.388" y1="620.59" x2="249.87" y2="639.191" gradientUnits="userSpaceOnUse">
<stop stop-color="#6CB9FF"/>
<stop offset="1" stop-color="#CA85C7"/>
</linearGradient>
<clipPath id="clip0_442_64">
<rect width="1000" height="1000" fill="white" transform="translate(0.207031 0.558594)"/>
</clipPath>
</defs>
</svg>
