<svg width="400" height="400" viewBox="0 0 400 400" fill="none" xmlns="http://www.w3.org/2000/svg">
<g clip-path="url(#clip0_442_64)">
<path d="M35.2445 172.206L35.2444 172.206C34.6279 169.276 35.3769 166.225 37.2808 163.913L35.2445 172.206ZM35.2445 172.206L43.4594 211.242L14.5728 215.856C4.99801 217.386 3.15908 230.369 11.9284 234.5L11.9288 234.5L33.133 244.487L18.5442 265.922C13.4853 273.356 20.2099 283.129 28.9633 281.054C28.9636 281.054 28.9638 281.054 28.964 281.054L58.6797 274.007L57.6525 310.338L57.6524 310.338C57.3961 319.421 68.5257 323.98 74.7154 317.328L74.7156 317.328L99.5158 290.672L138.139 335.694L138.139 335.694C140.547 338.5 144.321 339.722 147.915 338.86L147.916 338.86L171.146 333.288L214.2 329.89L214.661 353.114L214.661 353.114C214.845 362.382 226.562 366.292 232.274 358.988L247.356 339.701L266.065 365.373C266.066 365.374 266.066 365.375 266.066 365.375C266.734 366.291 267.553 367.083 268.485 367.718L297.711 387.608C305.71 393.053 315.947 384.908 312.437 375.889L295.065 331.25L332.205 337.807L332.211 337.808C332.716 337.897 333.229 337.946 333.743 337.955L333.747 337.955L372.457 338.628C382.389 338.801 386.308 325.831 377.939 320.477L311.585 278.021L319.213 262.217L319.214 262.216C322.153 256.125 318.223 248.951 311.507 248.15L288.06 245.354L288.357 214.327L291.394 182.623C291.579 180.691 291.189 178.748 290.275 177.037L290.274 177.037L277.599 153.337C277.599 153.337 277.598 153.336 277.598 153.336C277.286 152.752 276.915 152.2 276.49 151.689C276.49 151.688 276.489 151.687 276.488 151.686L227.758 92.9926L227.757 92.9916C227.404 92.5669 227.016 92.1719 226.596 91.8112L226.596 91.8109L188.874 59.4231C188.874 59.423 188.874 59.423 188.874 59.4229C188.182 58.829 187.412 58.3342 186.585 57.9523L175.404 52.7918L167.667 23.0371C167.667 23.037 167.667 23.037 167.667 23.037C166.707 19.3446 163.702 16.5384 159.953 15.8332L159.953 15.8332L139.018 11.8959L139.018 11.8958C136.776 11.474 134.456 11.8438 132.456 12.942L132.456 12.942L118.26 20.7351L118.26 20.7351C113.135 23.5485 111.573 30.1797 114.903 34.9849M35.2445 172.206L122.815 29.5014M114.903 34.9849L125.469 50.2316L122.956 59.8893L37.2809 163.913L114.903 34.9849ZM114.903 34.9849L122.815 29.5014M122.815 29.5014C122.738 29.3909 122.774 29.2385 122.892 29.1738M122.815 29.5014L122.892 29.1738M122.892 29.1738L124.795 28.1295L124.795 28.1294L131.131 24.6513C131.006 24.4374 130.872 24.2266 130.728 24.0194L122.892 29.1738ZM278.58 253.691L278.353 253.689M278.58 253.691L281.785 181.577C281.807 181.616 281.815 181.661 281.811 181.705L278.735 213.821L278.353 253.689M278.58 253.691L278.353 253.689M278.58 253.691L278.353 253.689M17.61 234.869L16.1704 225.857L17.6101 234.869L17.6182 234.867C17.6155 234.868 17.6127 234.868 17.61 234.869ZM167.331 59.6681L167.333 59.6643L167.331 59.6681ZM294.495 382.872C294.494 382.869 294.493 382.867 294.492 382.864L294.495 382.872L302.999 379.562L294.495 382.872ZM304.559 273.526C304.562 273.527 304.565 273.529 304.568 273.531L304.56 273.526L304.559 273.526Z" fill="url(#paint0_linear_442_64)" stroke="#433958" stroke-width="19.2534"/>
<path d="M77.4795 219.038L71.1551 216.711C71.1139 216.696 71.078 216.669 71.0518 216.634L66.137 210.048C66.0593 209.944 65.9102 209.927 65.8104 210.01L55.1648 218.884C55.1341 218.91 55.0972 218.927 55.0578 218.934L15.9307 225.586C15.7113 225.623 15.6717 225.921 15.8738 226.015L47.1923 240.47C47.3194 240.529 47.3634 240.688 47.2846 240.804L26.5002 271.342C26.3842 271.513 26.5379 271.737 26.7388 271.69L68.2152 262.044C68.3595 262.01 68.4967 262.122 68.4929 262.27L67.273 310.618C67.2678 310.826 67.5219 310.93 67.6644 310.779L100.007 276.414C100.026 276.393 100.05 276.376 100.075 276.364L120.62 266.717C120.715 266.672 120.767 266.566 120.745 266.463L115.873 244.26C115.869 244.242 115.863 244.225 115.855 244.208L109.727 231.731C109.691 231.657 109.618 231.609 109.536 231.605L91.6953 230.61C91.5994 230.605 91.5173 230.539 91.4905 230.447L87.5661 216.973C87.5325 216.858 87.4148 216.789 87.2978 216.816L77.6085 219.046C77.5656 219.056 77.5208 219.053 77.4795 219.038Z" fill="#E9ACFF"/>
<path d="M60.0449 229.37L17.4962 225.561C17.2318 225.538 17.2168 225.157 17.4786 225.112L54.8302 218.777C54.8682 218.77 54.9039 218.754 54.934 218.73L65.8109 210.004C65.9109 209.923 66.0575 209.942 66.1342 210.045L71.0309 216.606C71.0697 216.658 71.0843 216.724 71.0711 216.787L69.3382 225.112C69.3234 225.183 69.2756 225.242 69.2095 225.272L60.1582 229.351C60.1227 229.367 60.0837 229.373 60.0449 229.37Z" fill="#EFC1FF"/>
<path d="M27.2325 270.266L47.4108 240.618C47.4268 240.594 47.447 240.574 47.4704 240.558L54.3118 235.889C54.3298 235.877 54.3495 235.867 54.3704 235.86L65.0451 232.441C65.0709 232.433 65.095 232.42 65.1162 232.403L73.7472 225.602C73.7696 225.585 73.7885 225.563 73.8028 225.538L77.6471 218.921C77.6801 218.864 77.7361 218.824 77.8006 218.812L86.9395 217.075C87.1161 217.042 87.2596 217.217 87.1914 217.384L81.7713 230.603C81.7556 230.641 81.7296 230.674 81.6961 230.699L27.5541 270.576C27.349 270.727 27.0892 270.477 27.2325 270.266Z" fill="#EFC1FF"/>
<path d="M66.836 309.873L68.5713 262.424C68.5728 262.384 68.5849 262.345 68.6063 262.312L81.9429 241.239C81.9505 241.227 81.9593 241.216 81.969 241.206L91.6919 230.835C91.7381 230.786 91.8039 230.76 91.8713 230.764L108.724 231.821C108.91 231.832 109.003 232.05 108.884 232.192L102.018 240.39C102.005 240.404 101.995 240.42 101.987 240.437L90.8325 263.733L67.2642 309.984C67.1541 310.2 66.8272 310.115 66.836 309.873Z" fill="#EFC1FF"/>
<path d="M247.443 323.962L224.535 353.286C224.404 353.454 224.134 353.364 224.13 353.15L223.541 320.171C223.54 320.129 223.527 320.087 223.503 320.051L211.281 301.447C211.213 301.343 211.241 301.204 211.343 301.135L227.702 290.057C227.838 289.965 227.834 289.764 227.695 289.677L204.709 275.343C204.565 275.253 204.567 275.044 204.711 274.956L220.262 265.574C220.325 265.536 220.366 265.469 220.371 265.395L221.246 252.544C221.254 252.429 221.346 252.339 221.461 252.333L232.484 251.773C232.623 251.766 232.723 251.637 232.694 251.5L228.456 231.217C228.412 231.009 228.653 230.861 228.819 230.994L248.094 246.375C248.222 246.477 248.412 246.414 248.454 246.256L255.113 221.17C255.163 220.981 255.411 220.94 255.52 221.101L277.219 253.411C277.255 253.465 277.313 253.501 277.377 253.51L309.377 257.697C309.528 257.717 309.617 257.877 309.555 258.015L299.209 280.963C299.163 281.065 299.199 281.186 299.293 281.247L372.97 328.733C373.163 328.857 373.07 329.156 372.841 329.15L334.438 328.027L280.352 319.246C280.179 319.218 280.041 319.388 280.105 319.552L303.088 378.451C303.169 378.659 302.934 378.846 302.75 378.721L273.754 358.987C273.733 358.973 273.715 358.955 273.699 358.934L247.804 323.967C247.714 323.846 247.535 323.844 247.443 323.962Z" fill="#9FD1FF"/>
<path d="M275.088 345.107L302.343 377.627C302.509 377.826 302.267 378.103 302.048 377.964L274.209 360.303C274.185 360.288 274.164 360.268 274.147 360.244L247.816 323.544C247.794 323.514 247.78 323.478 247.775 323.441L244.737 300.374C244.706 300.142 245.005 300.022 245.144 300.21L253.522 311.608L275.088 345.107Z" fill="#C4E2FF"/>
<path d="M234.249 319.693L224.498 351.98C224.423 352.228 224.057 352.176 224.055 351.916L223.77 320.333C223.769 320.287 223.783 320.242 223.809 320.204L235.018 303.734C235.149 303.542 235.449 303.647 235.431 303.878L234.258 319.644C234.256 319.661 234.253 319.677 234.249 319.693Z" fill="#C4E2FF"/>
<path d="M333.28 328.247L371.662 329.207C371.925 329.213 371.986 328.843 371.736 328.764L319.023 312.158L294.748 306.382C294.733 306.378 294.719 306.373 294.705 306.367L270.189 295.051C270.179 295.046 270.168 295.042 270.156 295.039L246.588 288.368C246.357 288.303 246.196 288.593 246.374 288.754L280.141 319.294C280.173 319.323 280.213 319.342 280.256 319.349L333.28 328.247Z" fill="#C4E2FF"/>
<path d="M299.517 280.519C302.509 274.037 308.158 261.779 309.594 258.602C309.688 258.395 309.454 258.21 309.267 258.339L282.948 276.603C282.786 276.716 282.835 276.967 283.027 277.01L299.263 280.642C299.367 280.665 299.472 280.616 299.517 280.519Z" fill="#C4E2FF"/>
<path d="M229.721 276.308L205.487 274.37C205.256 274.351 205.15 274.652 205.342 274.783L227.275 289.71C227.337 289.753 227.417 289.762 227.487 289.733L237.3 285.754C237.442 285.697 237.487 285.517 237.389 285.399L229.877 276.389C229.838 276.342 229.782 276.313 229.721 276.308Z" fill="#C4E2FF"/>
<path d="M248.927 246.211L254.827 222.36C254.891 222.103 255.268 222.145 255.273 222.41L255.986 260.468C255.99 260.713 255.657 260.79 255.554 260.568L248.941 246.361C248.92 246.314 248.914 246.261 248.927 246.211Z" fill="#C4E2FF"/>
<path d="M228.713 147.501L199.846 116.443C199.834 116.431 199.821 116.42 199.807 116.41L170.675 96.5833C170.551 96.4986 170.38 96.5565 170.333 96.6994L165.377 111.69C165.358 111.747 165.361 111.807 165.389 111.86C170.749 122.474 181.841 144.25 183.659 147.096C185.477 149.943 182.708 167.2 181.085 175.529C181.078 175.567 181.081 175.605 181.093 175.642L190.418 203.748C190.431 203.785 190.452 203.818 190.482 203.845L214.773 225.687C214.897 225.798 215.095 225.742 215.142 225.582L217.306 218.24C217.332 218.149 217.413 218.084 217.508 218.078L241.052 216.558C241.168 216.55 241.259 216.457 241.263 216.341L242.072 195.611C242.073 195.597 242.072 195.584 242.07 195.571L238.403 168.923C238.4 168.902 238.394 168.881 238.385 168.861L228.754 147.562C228.744 147.539 228.73 147.519 228.713 147.501Z" fill="#808FC2"/>
<path d="M211.072 148.27L192.468 122.859C192.453 122.838 192.434 122.82 192.413 122.806L167.653 105.954C167.529 105.87 167.36 105.927 167.311 106.068L165.378 111.689C165.358 111.746 165.361 111.807 165.388 111.862C170.749 122.476 181.841 144.25 183.658 147.096C185.476 149.943 182.707 167.2 181.084 175.529C181.077 175.568 181.08 175.605 181.092 175.642L190.417 203.748C190.43 203.785 190.452 203.819 190.481 203.845L214.772 225.687C214.896 225.798 215.094 225.742 215.141 225.582L217.306 218.237C217.332 218.148 217.411 218.083 217.504 218.075L222.885 217.618C222.987 217.61 223.07 217.534 223.088 217.434L227.681 192.574C227.687 192.542 227.686 192.508 227.677 192.476L221.227 167.98C221.223 167.964 221.217 167.948 221.209 167.934L211.09 148.3C211.085 148.289 211.079 148.279 211.072 148.27Z" fill="#6874A0"/>
<path d="M191.203 147.862L181.972 131.851C181.961 131.831 181.947 131.813 181.93 131.797L170.503 121.227C170.317 121.055 170.033 121.269 170.147 121.494C175.402 131.874 181.9 144.343 183.658 147.096C185.476 149.943 182.707 167.2 181.085 175.529C181.077 175.567 181.08 175.605 181.092 175.642L190.418 203.748C190.43 203.785 190.452 203.818 190.48 203.844L210.925 222.388C211.055 222.506 211.263 222.438 211.299 222.267L212.258 217.701C212.264 217.67 212.264 217.638 212.257 217.607L206.736 191.707L203.308 164.221C203.303 164.182 203.289 164.145 203.265 164.114L191.203 147.862Z" fill="#515B7D"/>
</g>
<defs>
<linearGradient id="paint0_linear_442_64" x1="385.221" y1="247.979" x2="99.8521" y2="255.419" gradientUnits="userSpaceOnUse">
<stop stop-color="#6CB9FF"/>
<stop offset="1" stop-color="#CA85C7"/>
</linearGradient>
<clipPath id="clip0_442_64">
<rect width="400" height="400" fill="white"/>
</clipPath>
</defs>
</svg>
