<svg width="400" height="400" viewBox="0 0 400 400" fill="none" xmlns="http://www.w3.org/2000/svg">
<g clip-path="url(#clip0_302_10)">
<rect x="8.5" y="8.5" width="384" height="383" rx="49.5" fill="#8F8F8F" stroke="#302F2F" stroke-width="17"/>
<rect width="271" height="265" rx="78" transform="matrix(1 0 0 -1 65 331)" fill="#787575"/>
<path d="M122.996 89.837C144.76 81.0589 162.717 73.7697 166.011 72.6466C166.319 72.5417 166.636 72.6377 166.864 72.8691L203.935 110.421C204.439 110.932 204.285 111.781 203.617 112.043C189 117.782 169.937 125.237 150.569 132.765C160.934 148.841 168.646 160.695 170 162.5C173.543 167.224 132.822 189.447 111.037 200.476C110.486 200.755 109.832 200.464 109.648 199.875L95.3115 154.069C77.0332 161.025 63.949 165.855 62.5 166C58.5749 166.393 49.5145 136.968 45.2395 121.377C45.102 120.876 45.3468 120.374 45.8353 120.196C54.7523 116.939 67.1062 112.146 80.5293 106.837L69.1788 70.5713C69.0687 70.2195 69.161 69.8357 69.4191 69.5725L93.1197 45.3979C93.57 44.9386 94.3161 44.9952 94.6623 45.5373C102.409 57.6705 112.608 73.6234 122.996 89.837Z" fill="#424242"/>
<path d="M229.5 193.5L269.627 166.253C269.864 166.092 270.152 166.039 270.43 166.11C278.448 168.164 295.215 172.643 301.5 175C307.861 177.385 315.736 193.139 318.941 200.858C318.981 200.955 319.032 201.037 319.099 201.117C329.465 213.327 350 238.411 350 242V275.635C350 275.875 349.914 276.1 349.757 276.281L328.13 301.349C328.044 301.449 327.94 301.53 327.822 301.589L233.927 348.785C233.657 348.921 233.34 348.927 233.064 348.802L162.449 316.704C162.166 316.575 161.839 316.586 161.565 316.732L101.295 348.843C101.103 348.945 100.95 349.106 100.859 349.303L94.2406 363.484C94.0914 363.804 93.7869 364.022 93.4357 364.055C88.2434 364.548 78.3131 365.157 76 364C73.6 362.8 75 353.5 76 349L81.4617 333.98C81.7122 333.292 81.1612 332.576 80.4314 332.643L66.0838 333.947C65.7233 333.98 65.3732 333.815 65.1685 333.517L53.7706 316.895C53.5995 316.645 53.5505 316.332 53.6375 316.042L57.7356 302.381C57.885 301.883 58.3915 301.583 58.9003 301.69L83.6646 306.929C83.882 306.975 84.1085 306.947 84.3084 306.85L135.888 281.797C136.257 281.618 136.48 281.231 136.448 280.822L133.556 242.739C133.523 242.3 133.78 241.891 134.19 241.731L180.915 223.533C180.971 223.511 181.026 223.484 181.078 223.452L229.5 193.5Z" fill="#424242"/>
<path d="M292 55.5C296.375 54.7045 306.057 64.7196 310.426 69.9122C310.477 69.9721 310.517 70.0353 310.554 70.1039C311.254 71.3833 313.248 73.0089 316.201 70.287C316.396 70.1073 316.644 70.0034 316.909 69.9864C323.136 69.5856 337.187 60.478 345.5 59.5C354 58.5 358.5 67 361 72.5C363.5 78 361 91 358.5 98.5C356 106 358.5 111.5 358.5 118C358.5 124.5 340 138.5 337 139.5C334.684 140.272 323.184 151.345 317.139 157.363C316.775 157.725 316.198 157.753 315.799 157.429C311.882 154.255 304.509 148.505 301.5 147C297.5 145 284 120.5 280.5 118C277 115.5 263 90 263 87.5V67.6468C263 67.2523 263.228 66.8982 263.588 66.7378C271.643 63.153 287.707 56.2805 292 55.5Z" fill="#424242"/>
<path d="M62.5 166C58.5749 166.393 49.5145 136.968 45.2395 121.377C45.102 120.876 45.3468 120.374 45.8353 120.196C78.7893 108.16 158.683 75.1451 166.011 72.6466C166.319 72.5417 166.636 72.6377 166.864 72.8691L203.935 110.421C204.439 110.932 204.285 111.781 203.617 112.043C157.33 130.215 66.4602 165.604 62.5 166ZM170 162.5C173.543 167.224 132.822 189.447 111.037 200.476C110.486 200.755 109.832 200.464 109.648 199.875L69.1788 70.5713C69.0687 70.2195 69.161 69.8357 69.4191 69.5725L93.1197 45.3979C93.57 44.9386 94.3161 44.9952 94.6623 45.5373C118.721 83.2196 166.433 157.744 170 162.5ZM229.5 193.5L269.627 166.253C269.864 166.092 270.152 166.039 270.43 166.11C278.448 168.164 295.215 172.643 301.5 175C307.861 177.385 315.736 193.139 318.941 200.858C318.981 200.955 319.032 201.037 319.099 201.117C329.465 213.327 350 238.411 350 242C350 245.556 350 265.667 350 275.635C350 275.875 349.914 276.1 349.757 276.281L328.13 301.349C328.044 301.449 327.94 301.53 327.822 301.589L233.927 348.785C233.657 348.921 233.34 348.927 233.065 348.802L162.449 316.704C162.166 316.575 161.839 316.586 161.565 316.732L101.295 348.843C101.103 348.945 100.95 349.106 100.859 349.303L94.2406 363.484C94.0914 363.804 93.7869 364.022 93.4357 364.055C88.2434 364.548 78.3131 365.157 76 364C73.6 362.8 75 353.5 76 349L81.4617 333.98C81.7122 333.292 81.1612 332.576 80.4314 332.643L66.0838 333.947C65.7233 333.98 65.3732 333.815 65.1685 333.517L53.7706 316.895C53.5995 316.645 53.5505 316.332 53.6375 316.042L57.7356 302.381C57.885 301.883 58.3915 301.583 58.9003 301.69L83.6646 306.929C83.882 306.975 84.1085 306.947 84.3084 306.85L135.888 281.797C136.257 281.618 136.48 281.231 136.448 280.822L133.556 242.739C133.523 242.3 133.78 241.891 134.19 241.731L180.915 223.533C180.971 223.511 181.026 223.484 181.078 223.452L229.5 193.5ZM292 55.5C296.375 54.7045 306.057 64.7196 310.426 69.9122C310.477 69.9721 310.517 70.0353 310.554 70.1039C311.254 71.3833 313.248 73.0089 316.201 70.287C316.396 70.1073 316.644 70.0034 316.909 69.9864C323.136 69.5856 337.187 60.478 345.5 59.5C354 58.5 358.5 67 361 72.5C363.5 78 361 91 358.5 98.5C356 106 358.5 111.5 358.5 118C358.5 124.5 340 138.5 337 139.5C334.684 140.272 323.184 151.345 317.139 157.363C316.775 157.725 316.198 157.753 315.799 157.429C311.882 154.255 304.509 148.505 301.5 147C297.5 145 284 120.5 280.5 118C277 115.5 263 90 263 87.5C263 85.5693 263 73.8542 263 67.6468C263 67.2523 263.228 66.8982 263.588 66.7378C271.643 63.153 287.707 56.2805 292 55.5Z" stroke="black" stroke-width="12"/>
<path d="M88.1934 110.539C86.9911 106.757 85.1208 100.741 84.6244 98.6691C84.5284 98.2683 84.7528 97.9014 85.1368 97.7518L113.219 86.8046C113.671 86.6284 114.184 86.802 114.436 87.2164L120.53 97.2277C120.797 97.6663 121.352 97.8314 121.816 97.6099L131.745 92.8611C132.182 92.6521 132.706 92.7863 132.988 93.1796L154.74 123.443C155.124 123.977 154.897 124.729 154.283 124.962L142.186 129.55C141.582 129.779 141.35 130.514 141.715 131.048L147.819 140.002C148.173 140.52 147.974 141.229 147.399 141.479C132.893 147.793 105.449 159.72 103.5 160.5C101.669 161.232 100.257 152.52 99.6477 146.951C99.5713 146.252 98.8241 145.837 98.1926 146.146C94.2452 148.078 87.9284 151 86.5 151C84.9403 151 78.8195 128.511 75.7331 116.417C75.6014 115.9 75.8997 115.377 76.409 115.22L87.5335 111.797C88.0655 111.634 88.3621 111.069 88.1934 110.539Z" fill="#424242"/>
</g>
<defs>
<clipPath id="clip0_302_10">
<rect width="400" height="400" rx="2" fill="white"/>
</clipPath>
</defs>
</svg>
