<svg width="501" height="501" viewBox="0 0 501 501" fill="none" xmlns="http://www.w3.org/2000/svg">
<path d="M93.7109 245.701C150.907 301.11 259.115 414.358 270.661 422.651L463.698 245.701V141.139L383.266 79.4746H305.515L270.661 129.642L238.489 79.4746H168.781L93.7109 141.139V245.701Z" fill="#76B559"/>
<path d="M163.962 255.627C193.136 284.272 244.573 335.231 261.899 353.936C264.945 357.225 271.011 357.698 274.296 354.648L380.911 255.668C382.276 254.401 383.052 252.622 383.052 250.759V193.684C383.052 191.615 382.096 189.662 380.461 188.393L336.805 154.496C335.63 153.583 334.185 153.088 332.697 153.088H292.468C290.04 153.088 287.802 154.402 286.618 156.522L273.795 179.499C271.191 184.166 264.438 184.054 261.99 179.302L250.356 156.719C249.207 154.489 246.909 153.088 244.401 153.088H209.256C207.691 153.088 206.175 153.636 204.972 154.637L164.393 188.395C162.863 189.668 161.978 191.555 161.978 193.545V250.868C161.978 252.667 162.679 254.367 163.962 255.627Z" fill="#84C865"/>
<path d="M264.473 431.267L271.475 436.296L277.829 430.471L470.866 253.52L474.306 250.367V245.701V141.139V135.905L470.152 132.721L389.72 71.0565L386.865 68.8672H383.266H305.515H299.969L296.804 73.4224L271.014 110.543L247.418 73.7483L244.287 68.8672H238.489H168.781H164.983L162.048 71.278L86.978 132.943L83.1035 136.125V141.139V245.701V250.194L86.3303 253.32C113.336 279.481 151.811 318.641 186.152 353.593C188.028 355.502 189.891 357.398 191.739 359.279C209.553 377.408 225.985 394.11 238.688 406.8C245.037 413.142 250.496 418.524 254.752 422.601C258.759 426.437 262.294 429.701 264.473 431.267Z" stroke="#3B5B2C" stroke-width="21.2149"/>
<path d="M31.2485 242.518L102.654 313.924L31.2485 385.33C27.6031 388.975 27.6032 394.885 31.2485 398.531L60.0508 427.333C63.6963 430.979 69.6066 430.978 73.2518 427.333L144.657 355.927L216.063 427.333C219.708 430.978 225.619 430.978 229.264 427.333L258.066 398.531C261.712 394.885 261.712 388.975 258.066 385.33L186.661 313.924L258.066 242.519C261.712 238.873 261.712 232.963 258.066 229.317L229.264 200.515C225.619 196.87 219.708 196.87 216.063 200.515L144.657 271.921L73.2518 200.515C69.6064 196.87 63.6961 196.87 60.0508 200.515L31.2485 229.317C27.603 232.963 27.6033 238.873 31.2485 242.518Z" fill="#D23434" stroke="#6F1D1D" stroke-width="16.9719"/>
</svg>
