<svg width="1001" height="1001" viewBox="0 0 1001 1001" fill="none" xmlns="http://www.w3.org/2000/svg">
<path d="M187.422 490.691C301.814 601.508 518.23 828.004 541.322 844.592L927.396 490.691V281.567L766.532 158.238H611.03L541.322 258.573L476.977 158.238H337.561L187.422 281.567V490.691Z" fill="#76B559"/>
<path d="M327.924 510.544C386.272 567.833 489.147 669.75 523.797 707.161C529.889 713.738 542.021 714.684 548.591 708.585L761.821 510.625C764.551 508.09 766.103 504.532 766.103 500.806V386.657C766.103 382.519 764.191 378.613 760.922 376.075L673.61 308.28C671.26 306.455 668.369 305.465 665.393 305.465H584.936C580.079 305.465 575.603 308.093 573.236 312.333L547.59 358.287C542.381 367.621 528.875 367.396 523.98 357.894L500.712 312.727C498.414 308.267 493.818 305.465 488.801 305.465H418.512C415.382 305.465 412.35 306.561 409.943 308.563L328.786 376.08C325.726 378.625 323.957 382.4 323.957 386.38V501.025C323.957 504.623 325.357 508.023 327.924 510.544Z" fill="#84C865"/>
<path d="M528.946 861.822L542.949 871.88L555.658 860.23L941.732 506.329L948.611 500.023V490.691V281.567V271.1L940.304 264.731L779.44 141.402L773.729 137.023H766.532H611.03H599.937L593.608 146.134L542.028 220.375L494.835 146.786L488.574 137.023H476.977H337.561H329.965L324.095 141.845L173.956 265.174L166.207 271.539V281.567V490.691V499.676L172.66 505.928C226.671 558.251 303.621 636.57 372.303 706.474C376.054 710.292 379.781 714.085 383.477 717.847C419.106 754.105 451.97 787.509 477.376 812.889C490.073 825.573 500.992 836.338 509.505 844.49C517.517 852.163 524.588 858.692 528.946 861.822Z" stroke="#3B5B2C" stroke-width="42.4297"/>
<path d="M62.497 484.325L205.308 627.137L62.497 769.948C55.2063 777.239 55.2063 789.059 62.497 796.35L120.102 853.955C127.393 861.246 139.213 861.245 146.504 853.955L289.315 711.143L432.126 853.954C439.417 861.245 451.237 861.245 458.528 853.954L516.133 796.35C523.424 789.059 523.423 777.238 516.133 769.948L373.322 627.137L516.133 484.326C523.423 477.035 523.423 465.214 516.133 457.924L458.528 400.319C451.237 393.028 439.417 393.029 432.126 400.319L289.315 543.13L146.504 400.319C139.213 393.028 127.392 393.028 120.102 400.319L62.497 457.923C55.206 465.214 55.2066 477.035 62.497 484.325Z" fill="#D23434" stroke="#6F1D1D" stroke-width="33.9438"/>
</svg>
