<svg width="501" height="501" viewBox="0 0 501 501" fill="none" xmlns="http://www.w3.org/2000/svg">
<g clip-path="url(#clip0_158_8)">
<path d="M411.736 61.2459C364.63 64.3181 292.445 132.375 262.241 166.019C245.146 123.585 203.15 34.972 171.924 19.9878C136.893 44.6198 151.52 139.742 163.213 184.224C122.232 176.7 34.3302 172.592 10.5775 216.361C22.1308 254.074 105.221 276.962 145.323 283.692C118 322.602 68.3328 408.009 88.2461 438.353C124.932 450.595 197.018 387.919 228.475 355.051C244.658 397.905 286.729 483.957 325.55 485.339C348.487 465.131 337.418 372.086 329.017 328.089C375.435 330.577 471.445 328.615 484.143 300.866C462.714 262.759 379.521 242.266 340.604 236.783C369.024 197.443 423.04 107.26 411.736 61.2459Z" fill="#408C5E" stroke="#215134" stroke-width="8.69988"/>
<path d="M183.022 205.309L159.219 94.8321L163.874 54.8115L171.909 31.1631L229.492 188.662L253.556 193.875L292.665 147.67L347.387 100.643L379.81 83.5668L401.516 75.4611L298.818 213.968L302.057 228.082L314.091 238.949L374.998 252.39L407.403 261.938L444.061 278.524L466.1 298.425L314.37 282.893L304.421 290.959L305.606 303.218L326.887 391.17L326.325 446.076L319.784 471.074L264.248 321.285L253.115 317.092L246.754 324.136C219.945 349.301 161.556 398.948 157.178 400.963C152.801 402.978 114.738 423.912 95.6982 431.229L195.907 304.328L194.959 291.217L187.186 281.534L162.769 274.403L96.2744 260.712L40.7598 237.222L22.8657 215.735L176.313 227.49L184.529 218.392L183.022 205.309Z" fill="#4AAB71"/>
</g>
<defs>
<clipPath id="clip0_158_8">
<rect width="500" height="500" fill="white" transform="translate(0.625 0.375)"/>
</clipPath>
</defs>
</svg>
