<svg width="1001" height="1001" viewBox="0 0 1001 1001" fill="none" xmlns="http://www.w3.org/2000/svg">
<g clip-path="url(#clip0_158_8)">
<path d="M822.971 121.992C728.761 128.136 584.391 264.249 523.982 331.538C489.793 246.671 405.8 69.4439 343.348 39.4755C273.285 88.7395 302.541 278.984 325.926 367.949C243.963 352.899 68.1603 344.685 20.655 432.222C43.7616 507.649 209.943 553.424 290.145 566.883C235.5 644.704 136.166 815.518 175.992 876.206C249.365 900.69 393.536 775.339 456.45 709.602C488.816 795.309 572.958 967.414 650.6 970.178C696.474 929.762 674.337 743.671 657.534 655.678C750.37 660.654 942.391 656.731 967.785 601.231C924.928 525.018 758.542 484.032 680.707 473.065C737.549 394.386 845.58 214.02 822.971 121.992Z" fill="#408C5E" stroke="#215134" stroke-width="17.3998"/>
<path d="M365.544 410.118L317.938 189.164L327.248 109.123L343.317 61.8263L458.484 376.824L506.613 387.251L584.831 294.839L694.273 200.787L759.12 166.634L802.532 150.422L597.137 427.436L603.615 455.665L627.681 477.398L749.496 504.279L814.306 523.376L887.623 556.548L931.7 596.351L628.24 565.285L608.343 581.418L610.712 605.937L653.273 781.84L652.149 891.652L639.068 941.647L527.997 642.07L505.73 633.685L493.009 647.773C439.389 698.103 322.611 797.395 313.857 801.425C305.103 805.455 228.976 847.325 190.896 861.958L391.315 608.156L389.419 581.934L373.872 562.567L325.038 548.307L192.049 520.924L81.0197 473.944L45.2314 430.97L352.126 454.48L368.558 436.284L365.544 410.118Z" fill="#4AAB71"/>
</g>
<defs>
<clipPath id="clip0_158_8">
<rect width="1000" height="1000" fill="white" transform="translate(0.75 0.25)"/>
</clipPath>
</defs>
</svg>
