<svg width="400" height="400" viewBox="0 0 400 400" fill="none" xmlns="http://www.w3.org/2000/svg">
<g clip-path="url(#clip0_158_8)">
<path d="M328.889 48.6967C291.204 51.1545 233.456 105.6 209.293 132.515C195.617 98.5683 162.02 27.6776 137.039 15.6902C109.014 35.3958 120.716 111.494 130.071 147.079C97.2854 141.06 26.9642 137.774 7.96212 172.789C17.2047 202.959 83.6772 221.27 115.758 226.653C93.9 257.782 54.1663 326.107 70.097 350.383C99.446 360.176 157.115 310.036 182.28 283.741C195.227 318.024 228.883 386.866 259.94 387.971C278.29 371.805 269.435 297.369 262.714 262.171C299.848 264.162 376.656 262.592 386.814 240.392C369.671 209.907 303.117 193.513 271.983 189.126C294.72 157.654 337.932 85.5078 328.889 48.6967Z" fill="#408C5E" stroke="#215134" stroke-width="6.95991"/>
<path d="M145.917 163.947L126.875 75.5658L130.599 43.5493L137.027 24.6306L183.093 150.63L202.345 154.8L233.632 117.836L277.409 80.2148L303.348 66.5535L320.712 60.069L238.554 170.875L241.146 182.166L250.772 190.859L299.498 201.612L325.422 209.251L354.749 222.519L372.38 238.44L250.996 226.014L243.037 232.467L243.984 242.275L261.009 312.636L260.559 356.561L255.327 376.559L210.898 256.728L201.992 253.374L196.903 259.009C175.455 279.141 128.744 318.858 125.242 320.47C121.741 322.082 91.29 338.83 76.0583 344.683L156.226 243.163L155.467 232.674L149.249 224.927L129.715 219.223L76.5192 208.27L32.1076 189.478L17.7923 172.288L140.55 181.692L147.123 174.414L145.917 163.947Z" fill="#4AAB71"/>
</g>
<defs>
<clipPath id="clip0_158_8">
<rect width="400" height="400" fill="white"/>
</clipPath>
</defs>
</svg>
