<svg width="400" height="400" viewBox="0 0 400 400" fill="none" xmlns="http://www.w3.org/2000/svg">
<g clip-path="url(#clip0_158_10)">
<path d="M275.549 27.3237C280.072 25.2876 285.341 27.7999 286.606 32.596L299.18 80.2512C301.104 87.5431 306.983 93.1214 314.366 94.6591L362.617 104.709C367.473 105.72 370.259 110.849 368.464 115.473L350.625 161.418C347.895 168.448 349.373 176.417 354.442 182L387.571 218.492C390.905 222.164 390.144 227.951 385.973 230.637L344.536 257.321C338.195 261.404 334.707 268.72 335.526 276.217L340.879 325.211C341.417 330.142 337.4 334.377 332.448 334.098L283.239 331.33C275.71 330.906 268.588 334.775 264.844 341.321L240.376 384.105C237.913 388.41 232.174 389.475 228.331 386.339L190.148 355.175C184.306 350.407 176.27 349.35 169.393 352.445L124.451 372.676C119.928 374.712 114.659 372.2 113.393 367.404L100.82 319.749C98.8962 312.457 93.0164 306.878 85.6334 305.341L37.3828 295.291C32.5268 294.28 29.7409 289.15 31.5362 284.526L49.3752 238.582C52.1048 231.552 50.6268 223.583 45.5577 217.999L12.4291 181.508C9.09497 177.836 9.85612 172.048 14.0264 169.363L55.4639 142.679C61.8043 138.596 65.2927 131.28 64.4736 123.783L59.121 74.7885C58.5823 69.8576 62.5998 65.623 67.5522 65.9016L116.76 68.6699C124.29 69.0935 131.412 65.2252 135.156 58.6787L159.624 15.8952C162.086 11.5894 167.826 10.5249 171.668 13.6613L209.852 44.8247C215.694 49.5931 223.73 50.65 230.607 47.5544L275.549 27.3237Z" fill="#DFE9F8" stroke="#CFD1FF" stroke-width="11.8759"/>
<path d="M251.582 55.8721C257.432 52.5053 264.885 55.5787 266.661 62.0904L277.885 103.237C279.001 107.331 282.514 110.322 286.734 110.771L329.144 115.286C335.855 116.001 340.079 122.868 337.688 129.18L322.583 169.065C321.08 173.034 322.164 177.518 325.314 180.362L356.97 208.943C361.98 213.466 361.36 221.504 355.716 225.205L320.051 248.594C316.503 250.922 314.744 255.186 315.621 259.338L324.432 301.068C325.827 307.672 320.6 313.811 313.859 313.488L271.258 311.447C267.019 311.244 263.089 313.66 261.358 317.535L243.958 356.474C241.205 362.636 233.368 364.531 228.104 360.307L194.839 333.615C191.529 330.96 186.929 330.605 183.251 332.722L146.287 353.997C140.437 357.364 132.984 354.29 131.208 347.779L119.984 306.632C118.868 302.538 115.355 299.548 111.135 299.098L68.725 294.583C62.0134 293.869 57.7902 287.001 60.1807 280.689L75.2861 240.804C76.7891 236.835 75.7051 232.351 72.5554 229.508L40.8987 200.927C35.8889 196.403 36.5088 188.365 42.1529 184.664L77.8175 161.275C81.366 158.948 83.1247 154.683 82.248 150.531L73.4367 108.801C72.0423 102.197 77.2685 96.0583 84.0103 96.3813L126.611 98.4222C130.85 98.6252 134.78 96.2087 136.511 92.3343L153.911 53.3951C156.664 47.2328 164.5 45.3384 169.765 49.5624L203.03 76.2538C206.34 78.9095 210.94 79.2642 214.617 77.1474L251.582 55.8721Z" fill="#2E7E40"/>
<path d="M254.524 60.983C257.025 59.5432 260.213 60.8575 260.972 63.6422L272.196 104.789C273.951 111.226 279.474 115.928 286.109 116.635L328.52 121.15C331.39 121.455 333.196 124.392 332.174 127.091L317.068 166.977C314.705 173.217 316.409 180.267 321.362 184.738L353.019 213.32C355.161 215.254 354.896 218.691 352.482 220.274L316.818 243.663C311.238 247.322 308.473 254.028 309.851 260.557L318.663 302.286C319.259 305.111 317.024 307.736 314.141 307.598L271.54 305.557C264.875 305.237 258.696 309.037 255.974 315.129L238.574 354.068C237.397 356.703 234.046 357.514 231.795 355.707L198.529 329.016C193.325 324.84 186.093 324.282 180.31 327.611L143.345 348.886C140.844 350.326 137.656 349.012 136.897 346.227L125.673 305.08C123.918 298.643 118.394 293.941 111.76 293.234L69.3493 288.719C66.4792 288.414 64.6732 285.477 65.6954 282.778L80.8008 242.892C83.164 236.652 81.4596 229.602 76.5071 225.131L44.8504 196.55C42.7081 194.615 42.9731 191.178 45.3868 189.595L81.0513 166.206C86.6309 162.547 89.3962 155.841 88.0177 149.312L79.2064 107.583C78.6101 104.759 80.8451 102.133 83.7281 102.272L126.329 104.312C132.994 104.632 139.173 100.832 141.895 94.7401L159.294 55.8008C160.472 53.1656 163.823 52.3555 166.074 54.1618L199.34 80.8532C204.544 85.0289 211.776 85.5867 217.559 82.2582L254.524 60.983Z" stroke="#0A5339" stroke-opacity="0.5" stroke-width="11.7939"/>
<path d="M252.815 55.2879C255.334 53.8381 258.543 55.1616 259.308 57.9656L270.052 97.352C271.82 103.834 277.381 108.569 284.062 109.28L324.658 113.602C327.548 113.91 329.367 116.867 328.337 119.585L313.878 157.764C311.499 164.047 313.215 171.147 318.202 175.649L348.504 203.008C350.661 204.955 350.394 208.417 347.964 210.011L313.825 232.399L317.082 237.365L313.825 232.399C308.207 236.084 305.422 242.836 306.81 249.41L312.62 248.183L306.81 249.41L315.245 289.355C315.845 292.198 313.595 294.842 310.692 294.703L269.913 292.749C263.202 292.428 256.98 296.254 254.239 302.388L237.584 339.661C236.398 342.315 233.024 343.131 230.757 341.312L198.915 315.762C193.674 311.557 186.392 310.996 180.569 314.347L145.185 334.712C142.666 336.162 139.457 334.839 138.692 332.035L127.949 292.648C126.181 286.166 120.619 281.432 113.938 280.72L73.3424 276.398C70.4523 276.091 68.6337 273.133 69.6631 270.415L84.1223 232.236C86.5019 225.953 84.7856 218.853 79.7986 214.351L75.8194 218.758L79.7986 214.351L49.4963 186.993C47.339 185.045 47.606 181.584 50.0364 179.99L84.1752 157.601C89.7935 153.917 92.5781 147.164 91.19 140.59L82.7557 100.646C82.1552 97.8021 84.4057 95.1587 87.3088 95.2978L128.087 97.2513C134.798 97.5728 141.02 93.7467 143.761 87.6125L160.416 50.3391C161.602 47.6855 164.977 46.8698 167.244 48.6887L199.086 74.2382C204.326 78.4429 211.609 79.0045 217.432 75.653L252.815 55.2879Z" fill="#CFD1FF" stroke="#CFD1FF" stroke-width="11.8759"/>
<path d="M228.102 92.5342C232.864 90.5235 238.38 92.3254 241.037 96.7599L254.714 119.588C256.159 122.001 258.521 123.723 261.26 124.361L287.179 130.397C292.214 131.569 295.617 136.269 295.16 141.418L292.806 167.926C292.558 170.727 293.457 173.509 295.298 175.635L312.719 195.753C316.103 199.66 316.093 205.463 312.697 209.36L295.212 229.422C293.364 231.542 292.457 234.321 292.696 237.123L294.965 263.638C295.406 268.789 291.988 273.478 286.949 274.635L261.012 280.588C258.271 281.217 255.903 282.932 254.45 285.339L240.7 308.124C238.029 312.55 232.508 314.335 227.752 312.309L203.268 301.879C200.681 300.777 197.758 300.772 195.167 301.866L170.651 312.218C165.888 314.228 160.372 312.427 157.716 307.992L144.039 285.163C142.593 282.751 140.231 281.029 137.492 280.391L111.573 274.355C106.539 273.183 103.135 268.483 103.593 263.334L105.946 236.826C106.195 234.025 105.296 231.243 103.455 229.117L86.0338 208.999C82.6498 205.092 82.6591 199.289 86.0555 195.392L103.54 175.33C105.388 173.21 106.296 170.431 106.056 167.629L103.787 141.113C103.346 135.963 106.765 131.274 111.803 130.117L137.741 124.164C140.482 123.535 142.85 121.82 144.303 119.413L158.052 96.6277C160.723 92.2018 166.245 90.4174 171.001 92.4433L195.484 102.873C198.071 103.975 200.995 103.98 203.585 102.886L228.102 92.5342Z" fill="#339148"/>
<path d="M230.411 98.0046C232.448 97.1447 234.807 97.9153 235.943 99.8116L241.037 96.7599L235.943 99.8116L249.62 122.64C251.892 126.433 255.607 129.141 259.913 130.144L285.832 136.18C287.985 136.681 289.441 138.691 289.245 140.893L286.892 167.401C286.501 171.805 287.914 176.18 290.809 179.522L308.23 199.64C309.677 201.311 309.673 203.792 308.22 205.459L290.736 225.521C287.83 228.854 286.403 233.224 286.78 237.629L289.049 264.145C289.237 266.347 287.776 268.353 285.621 268.847L259.683 274.8C255.374 275.789 251.65 278.486 249.366 282.271L235.616 305.056C234.474 306.949 232.113 307.712 230.079 306.846L205.596 296.416C201.528 294.683 196.931 294.676 192.857 296.396L168.341 306.747C166.304 307.607 163.946 306.837 162.809 304.94L149.132 282.112C146.86 278.319 143.145 275.611 138.839 274.608L112.92 268.572C110.767 268.071 109.312 266.061 109.507 263.859L111.861 237.351C112.252 232.947 110.838 228.572 107.944 225.23L90.5227 205.112C89.0755 203.441 89.0795 200.96 90.5319 199.293L108.017 179.231C110.922 175.898 112.349 171.528 111.972 167.122L109.703 140.607C109.515 138.405 110.977 136.399 113.131 135.905L139.069 129.952C143.379 128.962 147.102 126.266 149.387 122.481L163.136 99.6957C164.278 97.803 166.64 97.0399 168.673 97.9063L193.157 108.336C197.225 110.069 201.822 110.076 205.895 108.356L230.411 98.0046Z" stroke="#0C5B3F" stroke-opacity="0.5" stroke-width="11.8759"/>
<path d="M228.33 95.8507C230.366 94.9908 232.725 95.7614 233.861 97.6577L238.955 94.606L233.861 97.6577L246.59 118.905C248.863 122.697 252.578 125.405 256.884 126.408L281.007 132.026C283.16 132.527 284.615 134.537 284.42 136.739L282.229 161.41C281.838 165.815 283.252 170.189 286.146 173.531L302.36 192.255C303.807 193.926 303.803 196.408 302.351 198.074L286.078 216.746C283.173 220.08 281.745 224.449 282.122 228.855L284.234 253.533C284.422 255.735 282.96 257.741 280.806 258.235L256.665 263.776C252.356 264.765 248.632 267.461 246.348 271.247L233.551 292.453C232.409 294.346 230.048 295.109 228.014 294.242L205.227 284.536C201.159 282.803 196.562 282.795 192.489 284.515L169.671 294.15C167.634 295.009 165.276 294.239 164.139 292.343L151.41 271.096C149.138 267.303 145.423 264.595 141.117 263.592L116.994 257.974C114.841 257.473 113.385 255.463 113.581 253.261L115.771 228.59C116.162 224.186 114.749 219.811 111.854 216.469L95.6403 197.745C94.1932 196.074 94.1971 193.592 95.6495 191.926L111.923 173.254C114.828 169.921 116.255 165.551 115.879 161.145L113.767 136.467C113.578 134.265 115.04 132.26 117.195 131.765L141.335 126.224C145.645 125.235 149.368 122.539 151.653 118.753L164.45 97.5472C165.592 95.6545 167.953 94.8914 169.987 95.7578L192.774 105.465C196.842 107.198 201.439 107.205 205.512 105.485L228.33 95.8507L226.07 90.4997L228.33 95.8507Z" fill="#DFE9F8" stroke="#CFD1FF" stroke-width="11.8759"/>
<path d="M228.201 136.997C228.77 136.71 229.457 137.021 229.618 137.637L235.883 161.656C235.983 162.039 236.299 162.327 236.689 162.391L261.186 166.395C261.814 166.497 262.188 167.153 261.956 167.746L252.906 190.86C252.762 191.228 252.849 191.647 253.127 191.928L270.592 209.566C271.04 210.019 270.957 210.769 270.421 211.112L249.513 224.493C249.18 224.706 249.004 225.095 249.064 225.486L252.826 250.022C252.922 250.651 252.414 251.209 251.778 251.172L226.999 249.707C226.605 249.684 226.233 249.896 226.052 250.247L214.674 272.308C214.382 272.874 213.643 273.027 213.15 272.623L193.964 256.874C193.659 256.623 193.234 256.575 192.88 256.753L170.708 267.913C170.14 268.199 169.452 267.888 169.291 267.272L163.026 243.253C162.927 242.871 162.61 242.583 162.22 242.519L137.723 238.515C137.095 238.412 136.721 237.756 136.953 237.163L146.003 214.05C146.147 213.681 146.06 213.263 145.782 212.981L128.317 195.343C127.869 194.891 127.952 194.14 128.489 193.797L149.396 180.417C149.729 180.204 149.905 179.814 149.845 179.423L146.083 154.888C145.987 154.258 146.495 153.7 147.131 153.738L171.91 155.202C172.305 155.225 172.676 155.014 172.857 154.662L184.235 132.601C184.527 132.035 185.267 131.883 185.759 132.287L204.945 148.036C205.25 148.287 205.675 148.334 206.029 148.156L228.201 136.997Z" fill="#3EAC56"/>
<path d="M246.318 219.5L249.513 224.493L246.318 219.5C244.01 220.977 242.79 223.676 243.205 226.385L249.064 225.486L243.205 226.385L246.044 244.895L227.349 243.791C224.614 243.629 222.04 245.095 220.784 247.531L212.2 264.174L197.725 252.292C195.607 250.554 192.663 250.227 190.216 251.459L192.655 256.306L190.216 251.459L173.488 259.878L168.761 241.758C168.07 239.106 165.88 237.112 163.176 236.67L144.694 233.649L151.522 216.21C152.521 213.659 151.922 210.758 149.994 208.811L136.817 195.504L152.591 185.409C154.899 183.932 156.119 181.233 155.704 178.525L152.865 160.014L171.56 161.119L171.91 155.202L171.56 161.119C174.295 161.28 176.869 159.814 178.125 157.379L186.709 140.735L201.184 152.617C203.302 154.356 206.246 154.682 208.693 153.45C208.693 153.45 208.693 153.45 208.693 153.45L225.421 145.031L230.148 163.152C230.839 165.803 233.029 167.798 235.733 168.24L254.215 171.261L247.387 188.699C246.388 191.251 246.987 194.151 248.915 196.098L253.127 191.928L248.915 196.098L262.092 209.406L246.318 219.5ZM151.788 154.013L147.072 154.736L151.788 154.013L151.788 154.013ZM132.418 191.283L132.418 191.283L129.028 194.639L132.418 191.283Z" stroke="#0B6142" stroke-opacity="0.5" stroke-width="11.8539"/>
<path d="M223.95 139.823L228.61 157.687L229.585 161.425L233.398 162.048L251.617 165.026L244.887 182.217L243.478 185.815L246.197 188.56L259.186 201.679L243.637 211.63L240.382 213.713L240.968 217.532L243.766 235.78L225.336 234.691L221.48 234.463L219.709 237.897L211.246 254.305L196.977 242.591L193.99 240.14L190.539 241.877L174.049 250.177L169.39 232.313L168.414 228.575L164.602 227.951L146.382 224.973L153.112 207.783L154.521 204.185L151.803 201.44L138.813 188.321L154.363 178.369L157.617 176.287L157.031 172.468L154.233 154.22L172.663 155.309L176.519 155.537L178.29 152.103L186.753 135.695L201.023 147.409L204.009 149.86L207.46 148.123L223.95 139.823Z" fill="#DFE9F8" stroke="#CFD1FF" stroke-width="11.8759"/>
</g>
<defs>
<clipPath id="clip0_158_10">
<rect width="400" height="400" fill="white"/>
</clipPath>
</defs>
</svg>
