<svg width="501" height="501" viewBox="0 0 501 501" fill="none" xmlns="http://www.w3.org/2000/svg">
<g clip-path="url(#clip0_158_10)">
<path d="M358.883 40.87L374.6 100.439C377.004 109.554 384.354 116.527 393.583 118.449L453.896 131.011C459.966 132.275 463.449 138.687 461.204 144.467L438.906 201.897C435.494 210.685 437.341 220.646 443.678 227.625L485.088 273.239C489.256 277.83 488.305 285.064 483.092 288.421L431.295 321.776C423.369 326.88 419.009 336.025 420.033 345.396L426.723 406.639C427.397 412.803 422.375 418.096 416.184 417.748L354.674 414.287C345.262 413.758 336.36 418.593 331.68 426.776L301.095 480.256C298.017 485.638 290.843 486.969 286.039 483.048L238.31 444.094C231.007 438.133 220.962 436.812 212.366 440.682L156.188 465.97C150.534 468.515 143.948 465.375 142.367 459.38L126.65 399.811C124.245 390.696 116.895 383.723 107.667 381.801L47.3534 369.239C41.2834 367.975 37.801 361.563 40.0452 355.783L62.3439 298.353C65.7559 289.565 63.9084 279.604 57.5719 272.624L16.1612 227.01C11.9936 222.42 12.945 215.186 18.1579 211.829L69.9547 178.473C77.8803 173.37 82.2407 164.225 81.2169 154.854L74.5262 93.6106C73.8528 87.447 78.8746 82.1537 85.0651 82.502L146.575 85.9623C155.987 86.4918 164.89 81.6565 169.57 73.4734L200.155 19.994C203.233 14.6117 210.407 13.2811 215.21 17.2016L262.939 56.1559C270.242 62.1164 280.287 63.4375 288.883 59.568L345.061 34.2796C350.715 31.7345 357.301 34.8748 358.883 40.87Z" fill="#DFE9F8" stroke="#CFD1FF" stroke-width="14.8449"/>
<path d="M315.103 69.9652C322.415 65.7566 331.731 69.5984 333.952 77.738L347.981 129.171C349.377 134.289 353.768 138.027 359.042 138.588L412.055 144.232C420.444 145.126 425.723 153.71 422.735 161.6L403.854 211.457C401.975 216.417 403.33 222.022 407.267 225.577L446.838 261.303C453.1 266.957 452.325 277.005 445.27 281.631L400.689 310.868C396.254 313.777 394.055 319.108 395.151 324.298L406.165 376.46C407.908 384.715 401.376 392.388 392.948 391.985L339.697 389.434C334.399 389.18 329.487 392.2 327.323 397.043L305.573 445.717C302.131 453.42 292.336 455.788 285.755 450.508L244.173 417.144C240.036 413.824 234.287 413.381 229.689 416.027L183.484 442.621C176.172 446.83 166.855 442.988 164.635 434.848L150.605 383.415C149.21 378.298 144.819 374.559 139.544 373.998L86.5314 368.354C78.1419 367.461 72.8629 358.876 75.851 350.986L94.7328 301.13C96.6115 296.169 95.2565 290.564 91.3193 287.009L51.7485 251.283C45.4863 245.629 46.2612 235.582 53.3162 230.955L97.897 201.718C102.333 198.809 104.531 193.478 103.435 188.288L92.421 136.126C90.678 127.871 97.2108 120.198 105.638 120.602L158.889 123.153C164.188 123.407 169.1 120.386 171.264 115.543L193.013 66.8688C196.455 59.166 206.251 56.798 212.831 62.078L254.413 95.4422C258.55 98.7618 264.3 99.2052 268.897 96.5592L315.103 69.9652Z" fill="#2E7E40"/>
<path d="M326.84 79.6777L340.87 131.111C343.064 139.158 349.968 145.035 358.262 145.918L411.275 151.562C414.862 151.944 417.12 155.615 415.842 158.989L396.96 208.846C394.006 216.646 396.137 225.459 402.327 231.048L441.898 266.774C444.576 269.192 444.245 273.489 441.228 275.468L396.647 304.704C389.673 309.278 386.216 317.66 387.939 325.821L398.953 377.983C399.699 381.513 396.905 384.795 393.301 384.622L340.05 382.071C331.719 381.672 323.995 386.421 320.593 394.036L298.843 442.71C297.371 446.004 293.182 447.017 290.368 444.759L248.787 411.395C242.281 406.175 233.241 405.478 226.012 409.638L179.807 436.233C176.68 438.032 172.696 436.389 171.746 432.909L157.717 381.475C155.522 373.429 148.618 367.551 140.325 366.668L87.3118 361.024C83.7241 360.642 81.4666 356.971 82.7444 353.597L101.626 303.74C104.58 295.941 102.45 287.127 96.259 281.538L56.6882 245.812C54.0102 243.394 54.3416 239.097 57.3586 237.119L101.939 207.882C108.914 203.308 112.37 194.926 110.647 186.766L99.6332 134.603C98.8878 131.073 101.681 127.792 105.285 127.964L158.537 130.515C166.868 130.915 174.591 126.165 177.994 118.55L199.743 69.876C201.215 66.582 205.404 65.5693 208.218 67.8273L249.8 101.191C256.305 106.411 265.345 107.108 272.574 102.948L318.78 76.3538C321.907 74.554 325.891 76.1969 326.84 79.6777Z" stroke="#0A5339" stroke-opacity="0.5" stroke-width="14.7424"/>
<path d="M324.76 72.582L338.189 121.815C340.399 129.917 347.351 135.836 355.703 136.725L406.447 142.128C410.06 142.512 412.333 146.209 411.047 149.606L392.973 197.33C389.998 205.184 392.143 214.059 398.377 219.687L436.255 253.884C438.952 256.319 438.618 260.646 435.58 262.638L392.906 290.624C385.884 295.23 382.403 303.67 384.138 311.887L394.681 361.818C395.431 365.373 392.618 368.677 388.989 368.503L338.016 366.061C329.627 365.659 321.85 370.442 318.424 378.11L297.605 424.702C296.123 428.018 291.905 429.038 289.071 426.765L249.268 394.828C242.718 389.572 233.615 388.87 226.336 393.059L182.107 418.515C178.958 420.328 174.946 418.673 173.99 415.168L160.561 365.935C158.351 357.833 151.399 351.914 143.048 351.025L92.3029 345.623C88.6902 345.238 86.417 341.542 87.7037 338.144L105.778 290.42C108.752 282.566 106.607 273.692 100.373 268.064L62.4953 233.866C59.7987 231.431 60.1324 227.105 63.1704 225.112L105.844 197.127C112.867 192.521 116.347 184.08 114.612 175.863L104.069 125.932C103.319 122.378 106.132 119.073 109.761 119.247L160.734 121.689C169.123 122.091 176.9 117.308 180.326 109.641L201.145 63.0489C202.628 59.7319 206.846 58.7122 209.679 60.9859L249.482 92.9227C256.033 98.1787 265.136 98.8807 272.415 94.6912L316.644 69.2349C319.792 67.4226 323.804 69.077 324.76 72.582Z" fill="#CFD1FF" stroke="#CFD1FF" stroke-width="14.8449"/>
<path d="M285.752 115.793C291.705 113.279 298.6 115.532 301.921 121.075L319.017 149.611C320.824 152.626 323.777 154.779 327.2 155.576L359.599 163.121C365.892 164.586 370.146 170.461 369.575 176.898L366.633 210.033C366.322 213.534 367.446 217.011 369.747 219.669L391.523 244.816C395.753 249.701 395.741 256.954 391.496 261.825L369.64 286.903C367.33 289.553 366.196 293.027 366.495 296.529L369.331 329.673C369.882 336.111 365.609 341.973 359.311 343.418L326.889 350.86C323.463 351.646 320.503 353.79 318.687 356.799L301.5 385.28C298.161 390.813 291.259 393.043 285.315 390.511L254.71 377.474C251.477 376.096 247.822 376.09 244.584 377.458L213.938 390.397C207.985 392.911 201.09 390.658 197.769 385.115L180.673 356.579C178.867 353.564 175.913 351.411 172.49 350.614L140.092 343.069C133.798 341.604 129.544 335.729 130.116 329.292L133.057 296.157C133.368 292.656 132.244 289.179 129.943 286.521L108.167 261.374C103.937 256.489 103.949 249.236 108.194 244.365L130.05 219.287C132.36 216.637 133.495 213.163 133.195 209.661L130.359 176.517C129.808 170.079 134.081 164.217 140.379 162.772L172.801 155.33C176.227 154.544 179.187 152.4 181.003 149.391L198.19 120.91C201.529 115.377 208.431 113.147 214.376 115.679L244.98 128.716C248.214 130.094 251.868 130.1 255.106 128.732L285.752 115.793Z" fill="#339148"/>
<path d="M295.554 124.89L312.65 153.425C315.49 158.166 320.134 161.551 325.517 162.805L357.915 170.35C360.606 170.976 362.426 173.489 362.181 176.241L359.24 209.376C358.751 214.882 360.518 220.349 364.136 224.528L385.912 249.675C387.721 251.764 387.716 254.865 385.9 256.949L364.044 282.026C360.413 286.193 358.629 291.655 359.1 297.162L361.936 330.306C362.172 333.059 360.344 335.566 357.651 336.184L325.229 343.625C319.842 344.862 315.188 348.232 312.332 352.964L295.145 381.445C293.717 383.811 290.766 384.765 288.223 383.682L257.619 370.645C252.535 368.479 246.788 368.47 241.697 370.62L211.051 383.559C208.505 384.634 205.557 383.671 204.137 381.3L187.04 352.765C184.2 348.023 179.556 344.638 174.173 343.385L141.775 335.84C139.084 335.213 137.265 332.701 137.509 329.949L140.451 296.814C140.939 291.308 139.172 285.841 135.554 281.662L113.778 256.515C111.969 254.426 111.974 251.325 113.79 249.241L135.646 224.164C139.277 219.997 141.062 214.535 140.59 209.028L137.754 175.884C137.519 173.131 139.346 170.624 142.039 170.006L174.461 162.564C179.848 161.328 184.502 157.958 187.358 153.226L204.545 124.745C205.973 122.379 208.924 121.425 211.467 122.508L242.071 135.545C247.156 137.711 252.902 137.72 257.994 135.57L288.639 122.631C291.185 121.556 294.133 122.519 295.554 124.89Z" stroke="#0C5B3F" stroke-opacity="0.5" stroke-width="14.8449"/>
<path d="M292.951 122.197L308.863 148.756C311.704 153.497 316.347 156.882 321.73 158.135L351.883 165.157C354.575 165.784 356.394 168.296 356.15 171.049L353.412 201.888C352.923 207.393 354.69 212.861 358.308 217.039L378.575 240.444C380.384 242.533 380.379 245.635 378.564 247.718L358.222 271.058C354.591 275.224 352.806 280.687 353.278 286.193L355.917 317.041C356.153 319.794 354.326 322.301 351.632 322.919L321.457 329.845C316.07 331.081 311.416 334.451 308.56 339.184L292.564 365.691C291.136 368.057 288.184 369.011 285.642 367.928L257.159 355.794C252.074 353.628 246.327 353.619 241.236 355.769L212.714 367.812C210.168 368.887 207.219 367.924 205.799 365.553L189.888 338.995C187.047 334.253 182.404 330.868 177.021 329.615L146.867 322.593C144.176 321.966 142.357 319.454 142.601 316.701L145.339 285.862C145.828 280.357 144.061 274.889 140.443 270.711L120.175 247.306C118.366 245.217 118.371 242.116 120.187 240.032L140.529 216.692C144.16 212.526 145.944 207.064 145.473 201.557L142.833 170.709C142.598 167.956 144.425 165.449 147.118 164.831L177.294 157.905C182.681 156.669 187.335 153.299 190.191 148.567L206.187 122.059C207.615 119.693 210.566 118.739 213.109 119.822L241.592 131.956C246.677 134.122 252.423 134.131 257.515 131.981L286.037 119.938C288.583 118.863 291.531 119.827 292.951 122.197Z" fill="#DFE9F8" stroke="#CFD1FF" stroke-width="14.8449"/>
<path d="M285.876 171.371C286.587 171.013 287.447 171.402 287.647 172.172L295.478 202.195C295.603 202.673 295.998 203.033 296.486 203.113L327.108 208.118C327.893 208.247 328.36 209.067 328.07 209.808L316.758 238.7C316.578 239.16 316.686 239.684 317.034 240.035L338.865 262.083C339.425 262.648 339.321 263.586 338.651 264.015L312.517 280.741C312.1 281.007 311.88 281.494 311.955 281.983L316.657 312.652C316.778 313.439 316.142 314.136 315.348 314.089L284.374 312.259C283.881 312.23 283.416 312.495 283.19 312.934L268.967 340.51C268.602 341.217 267.678 341.408 267.063 340.903L243.08 321.217C242.698 320.903 242.167 320.844 241.725 321.066L214.01 335.016C213.299 335.374 212.44 334.985 212.239 334.215L204.408 304.192C204.283 303.713 203.888 303.353 203.4 303.274L172.779 298.269C171.993 298.14 171.526 297.32 171.816 296.579L183.128 267.687C183.308 267.227 183.2 266.703 182.852 266.352L161.021 244.304C160.461 243.738 160.565 242.8 161.236 242.371L187.37 225.646C187.786 225.38 188.006 224.893 187.931 224.404L183.229 193.735C183.108 192.948 183.744 192.25 184.538 192.297L215.512 194.127C216.006 194.157 216.47 193.892 216.697 193.453L230.919 165.877C231.284 165.169 232.208 164.978 232.823 165.483L256.806 185.17C257.188 185.484 257.719 185.543 258.161 185.32L285.876 171.371Z" fill="#3EAC56"/>
<path d="M261.492 191.938L282.401 181.414L288.309 204.065C289.174 207.379 291.911 209.872 295.291 210.425L318.393 214.201L309.859 235.999C308.61 239.188 309.359 242.814 311.769 245.248L328.24 261.882L308.523 274.5C305.638 276.347 304.113 279.72 304.632 283.106L308.179 306.244L284.811 304.863C281.392 304.661 278.175 306.494 276.605 309.538L265.875 330.343L247.781 315.49C245.134 313.317 241.454 312.909 238.394 314.449L217.485 324.973L211.577 302.322C210.712 299.008 207.975 296.514 204.595 295.962L181.493 292.186L190.027 270.388C191.276 267.199 190.527 263.573 188.117 261.139L171.646 244.505L191.363 231.886C194.248 230.04 195.774 226.667 195.254 223.281L191.707 200.143L215.075 201.523C218.494 201.725 221.711 199.893 223.281 196.849L234.011 176.044L252.105 190.896C254.752 193.07 258.432 193.478 261.492 191.938Z" stroke="#0B6142" stroke-opacity="0.5" stroke-width="14.8174"/>
<path d="M280.563 174.904L286.388 197.234L287.606 201.907L292.373 202.686L315.147 206.408L306.734 227.897L304.973 232.394L308.371 235.825L324.608 252.224L305.171 264.663L301.104 267.266L301.835 272.04L305.333 294.85L282.296 293.489L277.475 293.204L275.262 297.496L264.683 318.006L246.846 303.364L243.114 300.3L238.8 302.471L218.187 312.846L212.362 290.516L211.144 285.843L206.378 285.064L183.603 281.342L192.016 259.853L193.777 255.356L190.379 251.925L174.142 235.526L193.579 223.087L197.647 220.484L196.915 215.71L193.417 192.9L216.454 194.261L221.275 194.546L223.489 190.254L234.067 169.744L251.904 184.386L255.637 187.45L259.95 185.279L280.563 174.904Z" fill="#DFE9F8" stroke="#CFD1FF" stroke-width="14.8449"/>
</g>
<defs>
<clipPath id="clip0_158_10">
<rect width="500" height="500" fill="white" transform="translate(0.625 0.125)"/>
</clipPath>
</defs>
</svg>
