<svg width="400" height="400" viewBox="0 0 400 400" fill="none" xmlns="http://www.w3.org/2000/svg">
<g clip-path="url(#clip0_115_23)">
<path d="M286.894 31.5606L303.195 85.5834C305.086 91.8513 309.939 96.7883 316.174 98.7871L369.908 116.014C374.416 117.46 376.701 122.472 374.836 126.822L352.598 178.684C350.017 184.702 350.561 191.603 354.053 197.141L384.142 244.878C386.666 248.883 385.195 254.191 380.969 256.325L330.598 281.759C324.754 284.71 320.734 290.346 319.848 296.833L312.214 352.743C311.573 357.433 307.034 360.554 302.425 359.472L247.49 346.578C241.116 345.082 234.414 346.816 229.566 351.216L187.779 389.138C184.274 392.319 178.791 391.792 175.956 388.001L142.161 342.811C138.24 337.568 131.991 334.588 125.449 334.843L69.0631 337.033C64.3327 337.216 60.4713 333.288 60.7363 328.561L63.8955 272.221C64.262 265.685 61.3904 259.386 56.2155 255.375L11.6135 220.808C7.87178 217.909 7.43889 212.417 10.68 208.967L49.3147 167.839C53.7973 163.067 55.6465 156.395 54.2602 149.997L42.3121 94.8477C41.3097 90.2212 44.5079 85.7363 49.2086 85.1765L105.241 78.5043C111.742 77.7302 117.447 73.8084 120.498 68.0156L146.795 18.0889C149.001 13.9004 154.333 12.5205 158.294 15.1133L205.506 46.0192C210.984 49.6051 217.875 50.2677 223.936 47.7913L276.172 26.4482C280.555 24.6577 285.527 27.0285 286.894 31.5606Z" fill="#296C38" stroke="#07573A" stroke-width="11.8759"/>
<path d="M251.58 59.5794C257.318 56.545 264.402 59.4664 266.334 65.6637L280.136 109.948C281.25 113.521 284.202 116.217 287.861 117.004L333.21 126.752C339.557 128.116 343.106 134.907 340.602 140.896L322.71 183.692C321.266 187.145 321.794 191.108 324.091 194.062L352.566 230.68C356.55 235.804 354.904 243.288 349.136 246.266L307.921 267.549C304.596 269.266 302.453 272.641 302.314 276.381L300.589 322.735C300.348 329.221 294.276 333.896 287.943 332.47L242.69 322.281C239.039 321.459 235.228 322.667 232.717 325.443L201.601 359.843C197.246 364.657 189.59 364.335 185.656 359.172L157.539 322.279C155.271 319.302 151.575 317.778 147.867 318.29L101.919 324.641C95.4886 325.53 89.8308 320.362 90.1353 313.878L92.3114 267.543C92.487 263.805 90.6354 260.261 87.4661 258.271L48.1852 233.601C42.6881 230.148 41.6759 222.552 46.0772 217.781L77.5274 183.685C80.0649 180.934 80.9241 177.03 79.7757 173.468L65.5426 129.32C63.5508 123.142 67.6579 116.673 74.0964 115.847L120.105 109.944C123.817 109.467 126.985 107.029 128.395 103.562L145.869 60.5938C148.315 54.5807 155.619 52.265 161.083 55.7708L200.121 80.8226C203.271 82.8439 207.265 83.012 210.574 81.2625L251.58 59.5794Z" fill="#2E7E40"/>
<path d="M260.665 67.4306L274.467 111.715C276.218 117.333 280.859 121.573 286.613 122.809L331.962 132.557C334.676 133.14 336.194 136.045 335.123 138.606L317.231 181.402C314.961 186.831 315.792 193.062 319.404 197.707L347.878 234.325C349.582 236.516 348.878 239.717 346.411 240.99L305.197 262.273C299.968 264.973 296.599 270.28 296.38 276.16L294.655 322.514C294.552 325.288 291.955 327.287 289.247 326.677L243.995 316.488C238.254 315.195 232.261 317.095 228.314 321.459L197.197 355.86C195.335 357.918 192.061 357.78 190.378 355.573L162.262 318.68C158.695 313.999 152.884 311.603 147.055 312.408L101.106 318.759C98.356 319.139 95.9365 316.929 96.0667 314.156L98.2429 267.822C98.5189 261.943 95.6076 256.372 90.6242 253.242L51.3433 228.572C48.9926 227.096 48.5597 223.847 50.4419 221.807L81.8921 187.711C85.882 183.386 87.2329 177.247 85.4272 171.646L71.1941 127.498C70.3423 124.856 72.0987 122.09 74.8521 121.736L120.86 115.833C126.697 115.085 131.678 111.25 133.895 105.799L151.37 62.8308C152.416 60.2594 155.539 59.269 157.876 60.7683L196.914 85.8201C201.867 88.9983 208.147 89.2626 213.35 86.5118L254.355 64.8287C256.809 63.5311 259.839 64.7803 260.665 67.4306Z" stroke="#0A5339" stroke-opacity="0.5" stroke-width="11.8759"/>
<path d="M260.547 62.1259L274.349 106.41C276.1 112.028 280.742 116.268 286.495 117.505L331.845 127.252C334.559 127.836 336.076 130.74 335.006 133.301L317.113 176.097C314.844 181.526 315.674 187.757 319.286 192.403L347.76 229.02C349.465 231.211 348.76 234.412 346.294 235.686L305.079 256.968C299.85 259.668 296.481 264.975 296.262 270.856L294.537 317.209C294.434 319.983 291.838 321.982 289.129 321.372L243.877 311.183C238.136 309.891 232.144 311.791 228.196 316.155L197.08 350.555C195.217 352.614 191.943 352.476 190.261 350.268L162.144 313.375C158.577 308.694 152.766 306.298 146.937 307.104L100.988 313.454C98.2383 313.834 95.8188 311.624 95.9491 308.851L98.1252 262.517C98.4013 256.639 95.4899 251.068 90.5065 247.938L51.2257 223.267C48.8749 221.791 48.442 218.543 50.3242 216.502L81.7744 182.407C85.7643 178.081 87.1152 171.942 85.3095 166.341L71.0764 122.193C70.2246 119.551 71.981 116.785 74.7344 116.432L120.743 110.529C126.58 109.78 131.561 105.945 133.778 100.494L151.252 57.5261C152.298 54.9547 155.422 53.9644 157.758 55.4636L196.797 80.5154C201.749 83.6936 208.03 83.9579 213.232 81.2071L254.238 59.524C256.692 58.2264 259.721 59.4757 260.547 62.1259Z" fill="#2E7E40" stroke="#0A5F40" stroke-width="11.8759"/>
<path d="M228.342 96.2567C232.945 94.4714 238.169 96.1779 240.831 100.337L257.262 126.009C258.529 127.989 260.431 129.48 262.656 130.237L291.51 140.062C296.184 141.653 299.089 146.318 298.455 151.215L294.54 181.443C294.238 183.774 294.737 186.139 295.954 188.149L311.743 214.222C314.3 218.446 313.527 223.887 309.893 227.23L287.464 247.87C285.735 249.462 284.597 251.593 284.237 253.916L279.572 284.038C278.816 288.917 274.727 292.588 269.794 292.814L239.346 294.207C236.997 294.315 234.755 295.217 232.987 296.765L210.052 316.841C206.336 320.093 200.844 320.276 196.92 317.278L172.699 298.774C170.831 297.347 168.534 296.597 166.184 296.646L135.71 297.282C130.774 297.385 126.449 293.995 125.37 289.177L118.71 259.433C118.196 257.139 116.919 255.088 115.087 253.615L91.3337 234.514C87.4859 231.42 86.3518 226.043 88.6225 221.658L102.64 194.592C103.721 192.505 104.061 190.112 103.604 187.806L97.6858 157.906C96.7271 153.062 99.3148 148.214 103.873 146.315L132.008 134.591C134.178 133.687 135.976 132.073 137.109 130.013L151.795 103.304C154.173 98.9772 159.272 96.9267 163.984 98.4015L193.073 107.506C195.317 108.208 197.732 108.127 199.923 107.278L228.342 96.2567Z" fill="#339148"/>
<path d="M235.83 103.538L252.261 129.21C254.253 132.323 257.244 134.667 260.742 135.858L289.596 145.683C291.595 146.363 292.837 148.358 292.566 150.452L288.651 180.681C288.177 184.346 288.961 188.064 290.875 191.225L306.663 217.298C307.757 219.104 307.426 221.431 305.873 222.861L283.443 243.5C280.724 246.003 278.935 249.355 278.369 253.007L273.704 283.129C273.381 285.216 271.632 286.785 269.523 286.882L239.074 288.276C235.382 288.445 231.857 289.862 229.076 292.297L206.141 312.373C204.552 313.763 202.203 313.842 200.525 312.56L176.304 294.055C173.367 291.812 169.755 290.632 166.06 290.709L135.586 291.346C133.475 291.39 131.626 289.94 131.164 287.879L124.504 258.135C123.697 254.529 121.689 251.303 118.808 248.987L95.0547 229.887C93.4092 228.563 92.9243 226.264 93.8953 224.389L107.913 197.323C109.612 194.041 110.147 190.279 109.429 186.653L103.511 156.753C103.101 154.682 104.207 152.608 106.156 151.796L134.292 140.072C137.704 138.651 140.531 136.113 142.312 132.874L156.998 106.165C158.015 104.315 160.196 103.438 162.211 104.068L191.3 113.173C194.827 114.277 198.624 114.15 202.07 112.814L230.489 101.793C232.457 101.029 234.691 101.759 235.83 103.538Z" stroke="#0C5B3F" stroke-opacity="0.5" stroke-width="11.8759"/>
<path d="M234.897 102.224L250.584 126.734C252.576 129.847 255.567 132.191 259.065 133.382L286.612 142.761C288.611 143.442 289.853 145.437 289.582 147.531L285.844 176.389C285.37 180.055 286.154 183.773 288.068 186.934L303.141 211.826C304.235 213.632 303.904 215.958 302.35 217.388L280.937 237.093C278.218 239.595 276.429 242.947 275.863 246.6L271.409 275.357C271.086 277.443 269.337 279.013 267.228 279.109L238.159 280.44C234.467 280.609 230.942 282.027 228.161 284.461L206.265 303.627C204.676 305.018 202.327 305.096 200.649 303.815L177.526 286.149C174.589 283.905 170.977 282.725 167.282 282.802L138.189 283.41C136.078 283.454 134.228 282.004 133.767 279.944L127.409 251.547C126.601 247.941 124.593 244.715 121.712 242.399L99.0351 224.164C97.3896 222.841 96.9046 220.541 97.8757 218.666L111.258 192.826C112.957 189.545 113.492 185.783 112.775 182.157L107.124 153.612C106.714 151.54 107.821 149.467 109.77 148.655L136.631 137.462C140.042 136.041 142.87 133.503 144.651 130.264L158.671 104.765C159.688 102.915 161.869 102.038 163.884 102.668L191.655 111.36C195.182 112.464 198.98 112.338 202.425 111.001L229.556 100.48C231.525 99.7163 233.759 100.446 234.897 102.224Z" fill="#339148" stroke="#0B6645" stroke-width="11.8759"/>
<path d="M228.826 141.387L236.673 167.616L263.078 174.849L252.228 199.986L267.807 222.499L243.338 234.781L240.801 262.041L214.162 255.721L194.696 274.972L178.352 253.008L151.065 255.243L152.663 227.912L130.324 212.084L149.116 192.174L142.178 165.69L169.371 162.518L181.079 137.77L203.95 152.819L228.826 141.387Z" fill="#3EAC56"/>
<path d="M225.096 149.636L230.984 169.318L231.928 172.473L235.104 173.343L254.918 178.771L246.777 197.632L245.471 200.656L247.345 203.364L259.035 220.258L240.675 229.474L237.731 230.951L237.426 234.23L235.522 254.686L215.533 249.944L212.328 249.183L209.987 251.499L195.38 265.945L183.116 249.463L181.15 246.821L177.867 247.09L157.392 248.767L158.591 228.258L158.783 224.971L156.096 223.067L139.333 211.19L153.435 196.25L155.695 193.855L154.861 190.669L149.654 170.796L170.059 168.416L173.33 168.034L174.739 165.057L183.524 146.487L200.686 157.78L203.437 159.59L206.429 158.215L225.096 149.636Z" stroke="#0B6142" stroke-opacity="0.5" stroke-width="11.8759"/>
<path d="M225.112 144.466L231 164.148L231.944 167.303L235.12 168.173L254.934 173.6L246.793 192.462L245.488 195.486L247.362 198.194L259.051 215.087L240.691 224.303L237.747 225.781L237.442 229.06L235.538 249.515L215.549 244.773L212.345 244.013L210.003 246.328L195.396 260.774L183.132 244.293L181.166 241.651L177.883 241.92L157.408 243.596L158.607 223.088L158.799 219.8L156.112 217.896L139.35 206.019L153.451 191.079L155.711 188.684L154.877 185.499L149.67 165.626L170.075 163.245L173.346 162.864L174.755 159.887L183.54 141.316L200.702 152.609L203.453 154.419L206.445 153.044L225.112 144.466Z" fill="#3EAC56" stroke="#0C6F4B" stroke-width="11.8759"/>
</g>
<defs>
<clipPath id="clip0_115_23">
<rect width="400" height="400" fill="white"/>
</clipPath>
</defs>
</svg>
