<svg width="501" height="501" viewBox="0 0 501 501" fill="none" xmlns="http://www.w3.org/2000/svg">
<g clip-path="url(#clip0_322_135)">
<path d="M343.635 28.336L377.15 91.9752C379.987 97.3633 384.699 101.526 390.396 103.678L457.68 129.095C462.351 130.859 465.026 135.778 463.969 140.658L448.736 210.951C447.446 216.903 448.38 223.121 451.36 228.431L486.565 291.151C489.01 295.505 487.897 300.992 483.95 304.051L427.097 348.107C422.284 351.837 419.003 357.2 417.872 363.184L404.526 433.86C403.599 438.766 399.22 442.255 394.23 442.061L322.36 439.266C316.275 439.029 310.314 441.028 305.602 444.886L249.948 490.447C246.084 493.61 240.487 493.467 236.79 490.112L183.53 441.773C179.021 437.68 173.169 435.38 167.08 435.306L95.1608 434.435C90.1679 434.374 85.9719 430.667 85.2966 425.72L75.5691 354.456C74.7455 348.422 71.7416 342.899 67.1245 338.928L12.591 292.032C8.8051 288.776 7.97371 283.239 10.6365 279.015L48.9924 218.171C52.2398 213.019 53.4891 206.857 52.5044 200.848L40.8738 129.87C40.0664 124.942 42.9886 120.166 47.7436 118.642L116.236 96.6874C122.035 94.8286 126.953 90.9112 130.061 85.6747L166.775 23.8263C169.324 19.5325 174.633 17.7523 179.255 19.6412L245.835 46.8489C251.472 49.1524 257.758 49.3127 263.505 47.2994L331.385 23.5203C336.098 21.8695 341.308 23.9179 343.635 28.336Z" fill="#296C38" stroke="#07573A" stroke-width="14.8469"/>
<path d="M295.16 63.3187C300.814 60.8421 307.431 62.6935 310.978 67.745L344.954 116.125C346.642 118.53 349.098 120.29 351.918 121.117L408.646 137.754C414.57 139.491 418.448 145.162 417.918 151.312L412.847 210.212C412.595 213.14 413.345 216.066 414.973 218.512L447.736 267.722C451.156 272.86 450.482 279.697 446.123 284.068L404.378 325.928C402.303 328.009 400.996 330.733 400.672 333.653L394.138 392.409C393.456 398.544 388.544 403.348 382.396 403.895L323.51 409.128C320.583 409.388 317.831 410.635 315.705 412.663L272.932 453.473C268.466 457.734 261.616 458.257 256.555 454.724L208.081 420.882C205.672 419.2 202.762 418.386 199.83 418.573L140.832 422.342C134.672 422.735 129.088 418.732 127.482 412.772L112.103 355.69C111.338 352.852 109.633 350.359 107.266 348.617L59.6486 313.581C54.6767 309.923 52.9719 303.267 55.5729 297.669L80.4833 244.056C81.7215 241.391 82.0181 238.384 81.3244 235.529L67.3683 178.082C65.911 172.084 68.8832 165.889 74.4741 163.273L128.019 138.215C130.68 136.969 132.84 134.857 134.144 132.223L160.379 79.2455C163.118 73.7139 169.377 70.8793 175.341 72.4687L232.466 87.6908C235.306 88.4474 238.318 88.2174 241.009 87.0384L295.16 63.3187Z" fill="#2E7E40"/>
<path d="M304.903 72.0113L338.879 120.391C341.534 124.172 345.395 126.94 349.829 128.24L406.557 144.877C409.09 145.62 410.749 148.045 410.522 150.675L405.451 209.575C405.055 214.179 406.233 218.78 408.794 222.626L441.556 271.836C443.019 274.033 442.731 276.957 440.867 278.826L399.122 320.686C395.859 323.958 393.804 328.241 393.294 332.833L386.76 391.589C386.468 394.212 384.368 396.267 381.739 396.5L322.853 401.734C318.25 402.143 313.923 404.103 310.58 407.292L267.808 448.102C265.898 449.924 262.968 450.148 260.804 448.637L212.331 414.795C208.542 412.15 203.968 410.87 199.357 411.165L140.359 414.933C137.725 415.102 135.337 413.39 134.65 410.841L119.27 353.759C118.068 349.297 115.387 345.376 111.665 342.638L64.0481 307.602C61.9219 306.037 61.1929 303.191 62.3052 300.797L87.2156 247.184C89.1625 242.994 89.6288 238.266 88.538 233.776L74.5819 176.329C73.9587 173.764 75.2298 171.115 77.6206 169.996L131.165 144.938C135.35 142.98 138.746 139.658 140.796 135.518L167.032 82.5399C168.203 80.1743 170.879 78.9622 173.43 79.6419L230.555 94.8639C235.019 96.0536 239.756 95.6919 243.988 93.8381L298.139 70.1185C300.557 69.0593 303.386 69.8511 304.903 72.0113Z" stroke="#0A5339" stroke-opacity="0.5" stroke-width="14.8469"/>
<path d="M302.332 69.9475L329.956 110.905C333.971 116.858 340.16 120.999 347.194 122.439L395.594 132.346C401.937 133.644 406.259 139.546 405.582 145.985L400.416 195.117C399.665 202.258 401.745 209.408 406.208 215.032L436.916 253.732C440.94 258.804 440.457 266.103 435.8 270.6L400.261 304.918C395.096 309.905 392.093 316.719 391.896 323.896L390.544 373.281C390.367 379.753 385.306 385.034 378.847 385.485L329.564 388.93C322.401 389.43 315.721 392.72 310.957 398.092L278.177 435.053C273.881 439.898 266.61 440.689 261.372 436.883L221.404 407.844C215.596 403.623 208.364 401.849 201.262 402.902L152.392 410.146C145.988 411.095 139.908 407.028 138.342 400.745L126.392 352.809C124.655 345.842 120.256 339.835 114.138 336.076L72.0461 310.213C66.5295 306.823 64.487 299.799 67.3255 293.98L88.9839 249.578C92.1316 243.124 92.6231 235.694 90.353 228.882L74.733 182.014C72.6859 175.871 75.6359 169.178 81.5509 166.545L126.684 146.452C133.243 143.532 138.396 138.156 141.035 131.479L159.196 85.5347C161.576 79.5134 168.138 76.2823 174.362 78.0672L221.851 91.686C228.753 93.6653 236.156 92.8592 242.47 89.4407L285.914 65.9194C291.608 62.8367 298.711 64.5796 302.332 69.9475Z" fill="#2E7E40" stroke="#0A5F40" stroke-width="14.8469"/>
<path d="M318.045 133.515C324.177 132.807 329.958 136.519 331.867 142.389L343.65 178.627C344.559 181.422 346.39 183.825 348.843 185.443L380.651 206.426C385.804 209.825 387.847 216.385 385.536 222.108L371.269 257.443C370.168 260.168 370.026 263.185 370.865 266.002L381.744 302.521C383.506 308.437 380.855 314.776 375.405 317.675L341.764 335.572C339.17 336.952 337.121 339.172 335.953 341.869L320.813 376.837C318.36 382.502 312.255 385.653 306.217 384.371L268.942 376.457C266.067 375.846 263.071 376.23 260.443 377.545L226.367 394.601C220.847 397.364 214.145 395.853 210.343 390.99L186.876 360.967C185.067 358.652 182.524 357.02 179.666 356.338L142.599 347.5C136.595 346.068 132.431 340.603 132.645 334.434L133.967 296.351C134.069 293.414 133.17 290.53 131.419 288.17L108.705 257.573C105.026 252.617 105.35 245.754 109.479 241.166L134.971 212.842C136.936 210.658 138.102 207.871 138.277 204.938L140.545 166.899C140.912 160.738 145.571 155.688 151.684 154.828L189.418 149.516C192.328 149.107 195.012 147.721 197.032 145.586L223.219 117.905C227.461 113.421 234.276 112.548 239.512 115.818L271.832 136.004C274.324 137.56 277.271 138.225 280.19 137.887L318.045 133.515Z" fill="#339148"/>
<path d="M324.807 144.684L336.591 180.923C338.019 185.317 340.898 189.095 344.755 191.64L376.563 212.623C378.767 214.076 379.64 216.881 378.652 219.329L364.385 254.663C362.655 258.948 362.431 263.693 363.751 268.121L374.63 304.641C375.383 307.171 374.249 309.881 371.919 311.121L338.277 329.018C334.198 331.188 330.977 334.679 329.141 338.919L314 373.888C312.951 376.31 310.341 377.658 307.758 377.11L270.483 369.195C265.964 368.235 261.252 368.839 257.12 370.907L223.044 387.962C220.684 389.144 217.818 388.498 216.192 386.418L192.725 356.395C189.88 352.755 185.882 350.189 181.388 349.117L144.321 340.279C141.753 339.666 139.973 337.329 140.064 334.691L141.386 296.608C141.546 291.991 140.134 287.455 137.379 283.745L114.666 253.149C113.093 251.029 113.231 248.094 114.997 246.132L140.488 217.808C143.579 214.374 145.412 209.992 145.687 205.38L147.955 167.341C148.112 164.706 150.105 162.547 152.719 162.179L190.452 156.867C195.028 156.223 199.249 154.045 202.424 150.688L228.612 123.007C230.426 121.089 233.34 120.716 235.579 122.114L267.899 142.3C271.818 144.748 276.452 145.792 281.042 145.262L318.896 140.89C321.519 140.587 323.991 142.174 324.807 144.684Z" stroke="#0C5B3F" stroke-opacity="0.5" stroke-width="14.8469"/>
<path d="M205.529 143.304L241.233 116.718L279.954 138.68C281.277 139.431 282.755 139.867 284.273 139.955L328.713 142.54L344.258 184.253C344.789 185.678 345.641 186.962 346.748 188.006L379.129 218.552L364.225 260.498C363.715 261.931 363.543 263.462 363.719 264.973L368.891 309.187L330.511 331.739C329.199 332.509 328.083 333.571 327.247 334.842L302.788 372.036L258.892 364.642C257.392 364.389 255.854 364.485 254.396 364.921L211.752 377.691L182.878 343.811C181.892 342.653 180.652 341.738 179.255 341.135L138.379 323.507L138.039 278.993C138.027 277.472 137.666 275.974 136.983 274.615L117.002 234.836L145.353 200.518C146.322 199.345 147.009 197.965 147.359 196.485L157.622 153.169L201.4 145.104C202.896 144.828 204.309 144.212 205.529 143.304Z" fill="#339148" stroke="#0B6645" stroke-width="14.8469"/>
<path d="M288.551 177.96L304.723 203.874L329.746 221.394L325.478 251.641L333.385 281.146L310.672 301.573L297.764 329.258L267.235 330.307L239.551 343.217L215.491 324.397L185.985 316.492L179.651 286.609L162.129 261.588L176.485 234.625L179.147 204.194L207.475 192.768L229.074 171.167L258.121 180.623L288.551 177.96Z" fill="#3EAC56"/>
<path d="M298.426 207.804L299.227 209.088L300.466 209.955L321.76 224.864L318.127 250.604L317.916 252.101L318.307 253.562L325.036 278.671L305.708 296.054L304.584 297.065L303.944 298.436L292.959 321.995L266.98 322.888L265.469 322.94L264.098 323.579L240.539 334.565L220.064 318.55L218.873 317.618L217.412 317.227L192.303 310.5L186.913 285.07L186.599 283.59L185.732 282.351L170.821 261.058L183.038 238.114L183.749 236.778L183.881 235.271L186.145 209.376L210.252 199.652L211.655 199.086L212.725 198.017L231.105 179.635L255.823 187.682L257.261 188.15L258.768 188.018L284.663 185.752L298.426 207.804Z" stroke="#0B6142" stroke-opacity="0.5" stroke-width="14.8469"/>
<path d="M295.118 200.416L296.12 202.085L297.812 203.048L320.241 215.808L316.192 241.293L315.887 243.216L316.564 245.041L325.543 269.233L306.06 286.153L304.59 287.429L303.936 289.263L295.264 313.566L269.463 314.005L267.517 314.038L265.837 315.022L243.572 328.065L223.526 311.817L222.013 310.591L220.094 310.265L194.654 305.945L189.742 280.612L189.371 278.701L188.111 277.217L171.399 257.555L183.92 234.992L184.864 233.29L184.852 231.343L184.689 205.539L208.784 196.303L210.602 195.606L211.843 194.107L228.305 174.235L252.7 182.648L254.54 183.282L256.455 182.932L281.839 178.291L295.118 200.416Z" fill="#3EAC56" stroke="#0C6F4B" stroke-width="14.8469"/>
</g>
<defs>
<clipPath id="clip0_322_135">
<rect width="500" height="500" fill="white" transform="translate(0.0625 0.365234)"/>
</clipPath>
</defs>
</svg>
