<svg width="501" height="501" viewBox="0 0 501 501" fill="none" xmlns="http://www.w3.org/2000/svg">
<g clip-path="url(#clip0_322_301)">
<path d="M358.442 36.115L374.16 95.6921C376.566 104.808 383.916 111.782 393.146 113.704L453.468 126.268C459.539 127.532 463.021 133.945 460.777 139.726L438.475 197.164C435.063 205.953 436.911 215.915 443.248 222.896L484.664 268.516C488.832 273.107 487.881 280.342 482.667 283.7L430.863 317.059C422.937 322.164 418.576 331.31 419.6 340.682L426.291 401.934C426.965 408.098 421.942 413.392 415.751 413.044L354.232 409.583C344.819 409.053 335.915 413.889 331.235 422.073L300.646 475.56C297.567 480.943 290.392 482.274 285.588 478.353L237.853 439.393C230.549 433.432 220.503 432.111 211.905 435.981L155.72 461.273C150.065 463.818 143.478 460.677 141.896 454.681L126.177 395.104C123.772 385.988 116.421 379.014 107.191 377.092L46.8701 364.528C40.7993 363.264 37.3164 356.851 39.5609 351.071L61.8626 293.633C65.2751 284.844 63.4273 274.881 57.09 267.901L15.6737 222.281C11.5055 217.689 12.4571 210.454 17.6707 207.097L69.4745 173.737C77.4011 168.632 81.7621 159.486 80.7382 150.114L74.0466 88.8628C73.3731 82.6984 78.3956 77.4044 84.5869 77.7527L146.105 81.2135C155.519 81.7431 164.423 76.9071 169.103 68.7229L199.692 15.2363C202.771 9.85328 209.946 8.52251 214.75 12.4435L262.485 51.403C269.789 57.3643 279.835 58.6856 288.432 54.8156L344.618 29.5238C350.273 26.9784 356.86 30.1191 358.442 36.115Z" fill="#296C38" stroke="#07573A" stroke-width="14.8469"/>
<path d="M313.892 70.9325C321.256 66.694 330.639 70.5631 332.874 78.7604L346.305 128C347.711 133.154 352.133 136.918 357.445 137.484L408.197 142.887C416.646 143.787 421.962 152.432 418.953 160.378L400.876 208.108C398.984 213.104 400.349 218.749 404.314 222.328L442.197 256.531C448.504 262.225 447.723 272.344 440.618 277.003L397.939 304.993C393.472 307.922 391.258 313.291 392.362 318.518L402.906 368.455C404.661 376.769 398.082 384.497 389.595 384.09L338.615 381.648C333.279 381.392 328.332 384.434 326.153 389.311L305.331 435.909C301.865 443.667 292 446.052 285.373 440.734L245.565 408.793C241.398 405.45 235.608 405.003 230.978 407.668L186.743 433.128C179.379 437.366 169.996 433.497 167.76 425.3L154.329 376.06C152.924 370.907 148.502 367.142 143.19 366.576L92.4381 361.173C83.9891 360.274 78.6726 351.629 81.6819 343.683L99.7583 295.952C101.65 290.957 100.286 285.312 96.3207 281.732L58.4377 247.53C52.131 241.836 52.9114 231.717 60.0165 227.057L102.696 199.068C107.163 196.138 109.377 190.769 108.273 185.542L97.7288 135.605C95.9735 127.292 102.553 119.564 111.04 119.97L162.02 122.413C167.355 122.668 172.302 119.626 174.482 114.749L195.304 68.151C198.77 60.3935 208.635 58.0087 215.262 63.3262L255.07 95.2673C259.237 98.6105 265.027 99.057 269.657 96.3922L313.892 70.9325Z" fill="#2E7E40"/>
<path d="M325.713 80.7139L339.144 129.953C341.354 138.057 348.307 143.976 356.659 144.866L407.411 150.269C411.024 150.654 413.298 154.351 412.011 157.749L393.934 205.479C390.959 213.334 393.105 222.21 399.339 227.838L437.222 262.041C439.919 264.476 439.586 268.803 436.547 270.796L393.868 298.785C386.844 303.392 383.363 311.833 385.098 320.052L395.643 369.989C396.393 373.544 393.58 376.849 389.951 376.675L338.97 374.233C330.581 373.831 322.802 378.614 319.376 386.283L298.554 432.881C297.071 436.198 292.853 437.218 290.019 434.944L250.21 403.003C243.659 397.746 234.555 397.044 227.275 401.234L183.04 426.694C179.891 428.507 175.878 426.852 174.922 423.347L161.491 374.107C159.281 366.003 152.328 360.084 143.976 359.195L93.224 353.791C89.6108 353.407 87.3373 349.71 88.6242 346.312L106.701 298.582C109.676 290.726 107.53 281.851 101.295 276.222L63.4124 242.02C60.7154 239.585 61.0491 235.257 64.0875 233.265L106.767 205.275C113.791 200.669 117.272 192.227 115.536 184.009L104.992 134.071C104.241 130.516 107.055 127.212 110.684 127.385L161.664 129.828C170.054 130.23 177.833 125.446 181.259 117.777L202.081 71.1795C203.564 67.862 207.782 66.8422 210.616 69.1162L250.424 101.057C256.976 106.314 266.08 107.016 273.36 102.826L317.595 77.3664C320.744 75.5538 324.756 77.2084 325.713 80.7139Z" stroke="#0A5339" stroke-opacity="0.5" stroke-width="14.8469"/>
<path d="M325.565 74.0823L338.996 123.322C341.207 131.425 348.159 137.345 356.512 138.234L407.263 143.637C410.877 144.022 413.15 147.719 411.863 151.117L393.787 198.847C390.812 206.702 392.957 215.578 399.192 221.207L437.075 255.409C439.772 257.844 439.438 262.171 436.4 264.164L393.721 292.154C386.697 296.76 383.216 305.202 384.951 313.42L395.495 363.357C396.246 366.913 393.432 370.217 389.803 370.043L338.823 367.601C330.433 367.199 322.655 371.983 319.228 379.651L298.406 426.249C296.924 429.567 292.705 430.587 289.871 428.313L250.063 396.371C243.512 391.115 234.407 390.413 227.127 394.603L182.892 420.062C179.743 421.875 175.731 420.22 174.775 416.715L161.344 367.475C159.133 359.372 152.181 353.452 143.828 352.563L93.0765 347.16C89.4634 346.775 87.1898 343.078 88.4767 339.68L106.553 291.95C109.528 284.095 107.382 275.219 101.148 269.59L63.2649 235.388C60.5679 232.953 60.9016 228.626 63.9401 226.633L106.619 198.644C113.643 194.037 117.124 185.596 115.389 177.377L104.845 127.44C104.094 123.885 106.908 120.58 110.537 120.754L161.517 123.196C169.907 123.598 177.685 118.815 181.112 111.146L201.934 64.5479C203.416 61.2305 207.635 60.2106 210.469 62.4846L250.277 94.4257C256.828 99.6824 265.933 100.385 273.213 96.1945L317.447 70.7348C320.597 68.9222 324.609 70.5768 325.565 74.0823Z" fill="#2E7E40" stroke="#0A5F40" stroke-width="14.8469"/>
<path d="M285.114 116.248C291.068 113.734 297.964 115.987 301.285 121.53L318.021 149.464C319.828 152.48 322.781 154.633 326.205 155.431L357.921 162.816C364.215 164.282 368.469 170.158 367.898 176.595L365.018 209.031C364.707 212.533 365.831 216.011 368.133 218.669L389.45 243.285C393.68 248.171 393.669 255.425 389.423 260.297L368.027 284.846C365.718 287.496 364.583 290.971 364.882 294.474L367.659 326.919C368.21 333.358 363.936 339.22 357.637 340.666L325.899 347.95C322.472 348.737 319.512 350.881 317.696 353.891L300.871 381.771C297.532 387.304 290.629 389.535 284.683 387.002L254.724 374.24C251.49 372.863 247.835 372.857 244.596 374.224L214.597 386.891C208.643 389.405 201.747 387.152 198.426 381.608L181.69 353.674C179.884 350.658 176.93 348.505 173.506 347.708L141.791 340.322C135.497 338.856 131.242 332.981 131.813 326.543L134.693 294.107C135.004 290.605 133.88 287.127 131.579 284.47L110.262 259.853C106.031 254.967 106.043 247.713 110.289 242.841L131.684 218.292C133.994 215.642 135.129 212.168 134.829 208.665L132.053 176.22C131.502 169.781 135.775 163.918 142.074 162.473L173.813 155.188C177.239 154.402 180.199 152.258 182.016 149.248L198.84 121.367C202.179 115.834 209.083 113.603 215.028 116.136L244.987 128.898C248.221 130.276 251.876 130.282 255.115 128.914L285.114 116.248Z" fill="#339148"/>
<path d="M294.917 125.346L311.653 153.28C314.494 158.021 319.138 161.407 324.522 162.661L356.237 170.046C358.928 170.673 360.748 173.186 360.504 175.939L357.624 208.375C357.135 213.881 358.902 219.35 362.521 223.528L383.838 248.145C385.647 250.234 385.642 253.337 383.826 255.42L362.431 279.969C358.799 284.136 357.015 289.599 357.486 295.107L360.262 327.552C360.498 330.305 358.67 332.812 355.977 333.43L324.238 340.715C318.851 341.952 314.196 345.322 311.34 350.055L294.515 377.936C293.087 380.302 290.135 381.256 287.593 380.173L257.634 367.411C252.548 365.244 246.801 365.235 241.709 367.385L211.709 380.052C209.163 381.127 206.215 380.164 204.794 377.793L188.058 349.859C185.217 345.117 180.573 341.732 175.19 340.478L143.475 333.092C140.783 332.465 138.963 329.953 139.208 327.2L142.087 294.764C142.576 289.258 140.809 283.789 137.19 279.61L115.874 254.993C114.064 252.904 114.069 249.802 115.885 247.718L137.28 223.17C140.912 219.002 142.697 213.539 142.226 208.032L139.449 175.587C139.214 172.833 141.041 170.326 143.735 169.708L175.473 162.423C180.861 161.187 185.516 157.816 188.372 153.083L205.196 125.203C206.624 122.837 209.576 121.883 212.119 122.966L242.078 135.728C247.163 137.894 252.91 137.903 258.003 135.753L288.002 123.086C290.548 122.011 293.497 122.975 294.917 125.346Z" stroke="#0C5B3F" stroke-opacity="0.5" stroke-width="14.8469"/>
<path d="M293.752 123.704L309.666 150.266C312.507 155.008 317.151 158.393 322.535 159.647L352.692 166.67C355.384 167.297 357.203 169.809 356.959 172.562L354.221 203.405C353.732 208.911 355.499 214.38 359.118 218.559L379.388 241.967C381.197 244.056 381.192 247.158 379.376 249.242L359.032 272.585C355.4 276.752 353.615 282.215 354.087 287.722L356.727 318.574C356.962 321.328 355.135 323.835 352.441 324.453L322.261 331.38C316.874 332.616 312.219 335.987 309.363 340.72L293.365 367.231C291.937 369.597 288.985 370.551 286.442 369.468L257.955 357.333C252.869 355.166 247.122 355.157 242.03 357.307L213.504 369.352C210.958 370.427 208.009 369.463 206.588 367.093L190.675 340.531C187.834 335.789 183.19 332.403 177.806 331.15L147.648 324.127C144.957 323.5 143.137 320.987 143.382 318.234L146.12 287.391C146.609 281.885 144.841 276.417 141.223 272.238L120.953 248.83C119.144 246.741 119.149 243.639 120.964 241.555L141.309 218.212C144.941 214.045 146.725 208.582 146.254 203.074L143.614 172.223C143.378 169.469 145.206 166.962 147.9 166.344L178.079 159.417C183.467 158.18 188.122 154.81 190.978 150.077L206.976 123.566C208.404 121.199 211.356 120.246 213.899 121.329L242.386 133.464C247.472 135.63 253.219 135.639 258.311 133.489L286.837 121.445C289.383 120.37 292.332 121.333 293.752 123.704Z" fill="#339148" stroke="#0B6645" stroke-width="14.8469"/>
<path d="M286.207 172.122L294.35 203.341L326.191 208.546L314.428 238.589L337.129 261.515L309.954 278.906L314.844 310.797L282.637 308.894L267.848 337.568L242.91 317.098L214.091 331.603L205.948 300.384L174.107 295.179L185.87 265.136L163.169 242.21L190.344 224.819L185.454 192.928L217.661 194.831L232.45 166.157L257.388 186.628L286.207 172.122Z" fill="#3EAC56"/>
<path d="M281.342 182.882L287.167 205.215L288.386 209.888L293.152 210.668L315.93 214.391L307.516 235.882L305.755 240.38L309.153 243.812L325.393 260.212L305.953 272.654L301.884 275.257L302.616 280.031L306.114 302.845L283.074 301.483L278.253 301.198L276.039 305.491L265.459 326.004L247.62 311.36L243.887 308.295L239.572 310.467L218.956 320.843L213.131 298.51L211.912 293.837L207.146 293.058L184.368 289.334L192.782 267.843L194.543 263.345L191.145 259.913L174.905 243.513L194.345 231.072L198.413 228.468L197.681 223.694L194.184 200.88L217.223 202.242L222.045 202.527L224.259 198.234L234.839 177.721L252.678 192.365L256.411 195.43L260.726 193.258L281.342 182.882Z" stroke="#0B6142" stroke-opacity="0.5" stroke-width="14.8469"/>
<path d="M281.361 176.418L287.186 198.751L288.405 203.424L293.172 204.203L315.95 207.926L307.535 229.418L305.774 233.915L309.173 237.347L325.412 253.748L305.972 266.189L301.904 268.793L302.636 273.567L306.134 296.38L283.094 295.019L278.272 294.734L276.059 299.027L265.479 319.539L247.639 304.895L243.906 301.831L239.592 304.002L218.976 314.379L213.151 292.046L211.932 287.372L207.165 286.593L184.387 282.87L192.802 261.379L194.563 256.881L191.164 253.449L174.925 237.048L194.365 224.607L198.433 222.004L197.701 217.23L194.203 194.416L217.243 195.777L222.065 196.062L224.279 191.77L234.858 171.257L252.698 185.901L256.431 188.966L260.745 186.794L281.361 176.418Z" fill="#3EAC56" stroke="#0C6F4B" stroke-width="14.8469"/>
</g>
<defs>
<clipPath id="clip0_322_301">
<rect width="500" height="500" fill="white" transform="translate(0.136719 0.365234)"/>
</clipPath>
</defs>
</svg>
