<svg width="1001" height="1001" viewBox="0 0 1001 1001" fill="none" xmlns="http://www.w3.org/2000/svg">
<mask id="path-1-outside-1_389_369" maskUnits="userSpaceOnUse" x="96.873" y="41.0586" width="806" height="933" fill="black">
<rect fill="white" x="96.873" y="41.0586" width="806" height="933"/>
<path d="M346.838 901.339C347.144 901.532 347.487 901.66 347.845 901.715L508.803 926.344C510.446 926.595 511.907 925.279 511.828 923.618L476.466 181.316C476.446 180.908 476.522 180.501 476.687 180.127L495.275 138.059L450.947 181.408C450.595 181.753 450.347 182.189 450.23 182.668L432.231 256.714L421.369 224.209C421.179 223.642 420.802 223.156 420.299 222.832L371.426 191.323C371.04 191.074 370.596 190.931 370.137 190.907L321.436 188.369C319.882 188.288 318.598 189.567 318.672 191.121L319.394 206.292C319.425 206.944 319.697 207.561 320.158 208.023L353.432 241.455C353.892 241.917 354.164 242.534 354.196 243.186L356.379 289.029C356.482 291.184 354.09 292.54 352.294 291.344L322.913 271.782C322.641 271.6 322.337 271.471 322.017 271.401L278.181 261.811C277.323 261.623 276.427 261.876 275.794 262.485L239.326 297.596C238.093 298.783 238.304 300.813 239.754 301.721L300.702 339.88C301.177 340.177 301.544 340.617 301.751 341.137L321.415 390.558C322.178 392.475 320.538 394.484 318.508 394.121L262.012 384.009C261.852 383.98 261.695 383.937 261.543 383.879L222.71 369.15C221.699 368.767 220.557 369.041 219.83 369.84L206.019 385.034C205.149 385.99 205.101 387.431 205.899 388.448C219.232 405.443 243.61 440.809 244.504 459.571L246.148 494.1C246.234 495.893 244.537 497.244 242.808 496.757L209.948 487.516C209.526 487.397 209.14 487.175 208.825 486.868L186.153 464.784C184.937 463.6 182.935 463.86 182.061 465.315L168.633 487.697C168.051 488.666 168.154 489.898 168.888 490.758L211.663 540.888C211.799 541.046 211.952 541.188 212.121 541.31L286.854 595.472C288.868 596.932 287.919 600.112 285.435 600.23L215.368 603.568C215.021 603.585 214.675 603.532 214.348 603.414L172.866 588.404C172.54 588.286 172.193 588.234 171.846 588.25L146.885 589.439C144.992 589.53 143.812 591.532 144.651 593.232L175.061 654.817C175.4 655.503 176.022 656.008 176.763 656.199L248.404 674.689C249.132 674.876 249.744 675.366 250.088 676.035L276.438 727.37C277.312 729.073 276.134 731.109 274.223 731.2L221.708 733.701C221.271 733.722 220.836 733.634 220.442 733.444L178.924 713.449C178.53 713.259 178.094 713.17 177.657 713.191L151.453 714.44C150.001 714.509 148.881 715.741 148.95 717.193L151.083 761.97C151.119 762.721 151.474 763.42 152.059 763.892L199.974 802.563L257.649 845.033L346.838 901.339Z"/>
<path d="M673.869 884.02C673.583 884.241 673.254 884.401 672.903 884.49L515.015 924.308C513.403 924.715 511.823 923.543 511.744 921.883L476.383 179.604C476.362 179.181 476.445 178.759 476.623 178.374L495.275 138.059L502.344 177.517C502.368 177.652 502.402 177.785 502.447 177.915L527.583 250.433L535.306 217.042C535.441 216.459 535.771 215.94 536.24 215.569L582.136 179.368C582.342 179.206 582.571 179.075 582.816 178.98L630.272 160.609C631.947 159.961 633.765 161.143 633.85 162.937L635.116 189.512C635.147 190.164 634.935 190.804 634.521 191.308L604.575 227.751C604.161 228.255 603.949 228.895 603.98 229.547L606.164 275.39C606.266 277.545 608.777 278.667 610.451 277.306L637.839 255.039C638.092 254.833 638.383 254.676 638.694 254.576L681.42 240.861C682.257 240.593 683.172 240.76 683.86 241.306L723.501 272.791C724.842 273.855 724.825 275.896 723.467 276.938L666.423 320.718C665.979 321.059 665.655 321.532 665.498 322.069L650.621 373.136C650.044 375.117 651.867 376.96 653.854 376.406L709.132 360.969C709.289 360.925 709.441 360.867 709.587 360.795L746.844 342.442C747.814 341.964 748.977 342.128 749.776 342.855L764.97 356.666C765.926 357.536 766.111 358.965 765.414 360.053C753.757 378.24 732.851 415.763 733.745 434.525L735.39 469.053C735.475 470.847 737.293 472.03 738.967 471.381L770.8 459.058C771.209 458.9 771.573 458.641 771.857 458.306L794.477 431.632L811.946 455.311C812.617 456.22 812.632 457.457 811.983 458.382L774.166 512.351C774.047 512.522 773.908 512.678 773.751 512.815L704.505 573.836C702.64 575.481 703.886 578.556 706.37 578.438L776.437 575.1C776.784 575.084 777.124 574.998 777.438 574.85L817.781 555.739L843.267 554.525C845.16 554.435 846.525 556.316 845.851 558.088L821.433 622.285C821.161 623 820.59 623.562 819.871 623.823L750.311 649.039C749.605 649.295 749.042 649.841 748.764 650.539L725.901 707.943L782.496 705.247C782.933 705.226 783.358 705.096 783.733 704.87L823.162 681.018C823.536 680.792 823.961 680.662 824.398 680.642L850.603 679.393C852.054 679.324 853.287 680.445 853.356 681.896L855.489 726.674C855.525 727.424 855.238 728.154 854.7 728.68L810.679 771.73L757.302 819.491L673.869 884.02Z"/>
<path d="M290.63 433.107C290.343 433.065 290.074 432.981 289.816 432.849C263.76 419.481 213.815 393.154 205.561 386.2C204.76 385.526 204.907 384.48 205.651 383.743L219.81 369.724C220.554 368.988 221.656 368.76 222.628 369.148C236.07 374.516 260.456 384.428 261.853 385.698C263.308 387.02 303.333 392.418 323.164 394.951L331.923 396.273L410.633 415.857C413.228 416.503 413.317 420.158 410.757 420.929L345.041 440.724C344.674 440.835 344.286 440.864 343.906 440.809L290.63 433.107Z"/>
<path d="M259.915 284.924C258.419 284.108 258.081 282.106 259.228 280.845L275.805 262.609C276.426 261.926 277.361 261.618 278.267 261.799L325.389 271.223C325.772 271.299 326.133 271.46 326.447 271.694L356.024 293.777C356.418 294.071 356.886 294.249 357.375 294.29L382.522 296.432C382.72 296.449 382.915 296.488 383.104 296.549L394.007 300.055C395.55 300.551 396.282 302.311 395.545 303.755L385.094 324.252C384.576 325.268 383.463 325.834 382.337 325.655L342.167 319.263L298.297 305.791C298.128 305.739 297.965 305.671 297.81 305.586L259.915 284.924Z"/>
<path d="M204.471 484.283C204.117 484.169 203.795 483.974 203.53 483.713V483.713C201.441 481.656 198.294 484.396 200.059 486.738C204.347 492.424 208.076 497.295 209.882 499.479L220.412 512.208C220.765 512.635 221.243 512.939 221.78 513.078L271.799 526.027C271.946 526.065 272.095 526.09 272.246 526.102L325.734 530.429C326.004 530.451 326.276 530.431 326.539 530.37L362.923 521.949C363.603 521.791 364.192 521.37 364.562 520.778L375.468 503.303C376.663 501.388 375.06 498.954 372.831 499.309C351.01 502.785 315.926 508.34 314.655 508.401C313.271 508.467 268.777 501.364 246.513 497.774C246.382 497.753 246.258 497.722 246.132 497.682L204.471 484.283Z"/>
<path d="M171.156 588.465C170.813 588.36 170.451 588.326 170.095 588.365L150.217 590.561C147.767 590.831 147.001 594.021 149.062 595.375L162.445 604.166C162.617 604.278 162.796 604.369 162.989 604.439C170.165 607.041 184.322 612.367 185.757 613.672C187.195 614.98 211.764 623.239 224.266 627.336C224.543 627.427 224.824 627.468 225.114 627.464L276.814 626.725L316.723 624.824C327.741 624.879 349.791 625.336 349.858 626.724C349.909 627.814 355.404 622.993 359.907 618.806C361.396 617.421 360.78 614.959 358.823 614.408L352.667 612.677L293.232 599.936C293.029 599.893 292.821 599.873 292.613 599.879L215.188 601.845C214.904 601.852 214.621 601.813 214.349 601.73L171.156 588.465Z"/>
<path d="M149.032 718.925C148.963 717.474 150.083 716.241 151.535 716.172L177.785 714.922C178.193 714.902 178.6 714.978 178.973 715.143L220.474 733.479C220.847 733.645 221.254 733.72 221.662 733.701L286.979 730.589L332.342 733.646L372.363 742.075C372.618 742.128 372.864 742.22 373.092 742.345L390.792 752.108C392.787 753.209 392.536 756.152 390.383 756.898L367.299 764.899C367.023 764.995 366.733 765.044 366.44 765.044L292.314 765.128C292.174 765.128 292.038 765.138 291.9 765.161C271.704 768.452 232.422 775.28 235.255 776.532L192.835 757.789C192.691 757.725 192.552 757.649 192.422 757.56L150.574 729.182C149.889 728.717 149.462 727.957 149.423 727.13L149.032 718.925Z"/>
<path d="M683.578 412.652C683.86 412.584 684.119 412.475 684.364 412.318C709.03 396.534 756.247 365.579 763.802 357.871C764.535 357.124 764.289 356.097 763.479 355.434L748.051 342.825C747.241 342.163 746.122 342.04 745.192 342.519C732.321 349.141 708.987 361.326 707.717 362.723C706.395 364.177 667.064 373.355 647.564 377.763L638.97 379.911L562.478 406.889C559.956 407.778 560.215 411.425 562.837 411.949L630.137 425.408C630.513 425.483 630.902 425.475 631.275 425.384L683.578 412.652Z"/>
<path d="M700.067 262.221C701.479 261.266 701.624 259.241 700.363 258.095L682.128 241.518C681.444 240.896 680.484 240.679 679.599 240.946L633.587 254.806C633.213 254.919 632.869 255.113 632.579 255.376L605.234 280.17C604.87 280.5 604.422 280.722 603.939 280.81L579.109 285.332C578.914 285.367 578.723 285.425 578.541 285.504L568.02 290.031C566.532 290.671 565.971 292.492 566.841 293.86L579.194 313.271C579.806 314.232 580.968 314.69 582.072 314.405L621.452 304.224L663.842 286.642C664.006 286.575 664.161 286.491 664.308 286.392L700.067 262.221Z"/>
<path d="M774.156 455.43C774.534 455.268 774.868 455.019 775.132 454.704L794.477 431.632C788.032 442.373 774.169 465.297 770.269 471.048L760.997 484.72C760.686 485.179 760.239 485.527 759.718 485.716L711.156 503.362C711.014 503.413 710.867 503.453 710.718 503.479L657.884 512.871C657.618 512.919 657.345 512.925 657.077 512.889L620.057 507.964C619.365 507.872 618.739 507.509 618.315 506.955L605.796 490.595C604.425 488.803 605.789 486.228 608.042 486.37C630.094 487.755 665.548 489.95 666.819 489.889C668.203 489.823 711.82 478.523 733.642 472.833C733.771 472.799 733.891 472.757 734.013 472.705L774.156 455.43Z"/>
<path d="M817.781 555.739L838.323 556.045C840.788 556.082 841.853 559.184 839.931 560.727L827.443 570.751C827.283 570.88 827.113 570.987 826.928 571.075C820.032 574.347 806.445 580.995 805.14 582.43C803.833 583.869 780.161 594.426 768.105 599.694C767.838 599.81 767.562 599.878 767.273 599.901L715.737 604.081L675.827 605.982C664.865 607.084 642.958 609.635 643.024 611.023C643.076 612.114 637.148 607.837 632.267 604.096C630.653 602.86 631.033 600.35 632.928 599.616L638.892 597.307L696.847 578.974C697.045 578.911 697.25 578.872 697.457 578.858L774.718 573.454C775.002 573.435 775.28 573.369 775.543 573.26L817.781 555.739Z"/>
<path d="M851.705 683.716C851.636 682.265 850.403 681.144 848.952 681.213L822.702 682.464C822.294 682.483 821.896 682.597 821.54 682.797L781.97 704.996C781.614 705.195 781.216 705.31 780.808 705.329L725.901 707.943L715.491 708.441L670.624 715.796L631.585 727.991C631.337 728.069 631.101 728.183 630.886 728.33L614.194 739.731C612.313 741.016 612.843 743.922 615.056 744.46L638.797 750.231C639.081 750.3 639.374 750.321 639.665 750.293L713.464 743.33C713.604 743.317 713.739 743.314 713.879 743.324C734.296 744.68 774.05 747.743 771.349 749.258L811.795 726.568C811.932 726.491 812.063 726.401 812.184 726.301L851.145 694.073C851.783 693.545 852.135 692.748 852.096 691.92L851.705 683.716Z"/>
<path d="M588.637 790.142C591.179 788.968 590.371 785.162 587.57 785.124L486.325 783.72C486.132 783.718 485.94 783.736 485.752 783.775L412.756 798.981L535.445 814.278C535.933 814.338 536.428 814.261 536.874 814.055L588.637 790.142Z"/>
<path d="M520.267 646.681C519.765 646.543 519.233 646.557 518.74 646.722L429.516 676.415C427.106 677.217 427.119 680.631 429.536 681.414L514.588 708.962C515.196 709.159 515.856 709.127 516.443 708.873L598.98 673.153C601.26 672.166 601.028 668.86 598.632 668.202L520.267 646.681Z"/>
<path d="M514.602 525.379C514.026 525.138 513.384 525.109 512.79 525.298L437.032 549.309C434.648 550.065 434.564 553.407 436.907 554.282L503.33 579.078C503.848 579.272 504.414 579.297 504.947 579.15L580.9 558.258C583.309 557.595 583.524 554.261 581.219 553.295L514.602 525.379Z"/>
<path d="M498.046 437.243C497.589 437.142 497.124 437.162 496.679 437.307C486.609 440.569 468.191 446.403 456.805 449.611C454.389 450.292 454.045 453.789 456.311 454.868L498.155 474.782C498.802 475.09 499.546 475.121 500.215 474.868L554.094 454.512C556.542 453.588 556.285 450.044 553.729 449.482L498.046 437.243Z"/>
<path d="M488.634 347.22C488.119 347.147 487.594 347.227 487.125 347.451L461.973 359.481C459.767 360.536 460.068 363.767 462.431 364.397L493.336 372.633C493.951 372.797 494.605 372.732 495.176 372.451L525.745 357.391C528.065 356.248 527.516 352.794 524.956 352.427L488.634 347.22Z"/>
</mask>
<path d="M346.838 901.339C347.144 901.532 347.487 901.66 347.845 901.715L508.803 926.344C510.446 926.595 511.907 925.279 511.828 923.618L476.466 181.316C476.446 180.908 476.522 180.501 476.687 180.127L495.275 138.059L450.947 181.408C450.595 181.753 450.347 182.189 450.23 182.668L432.231 256.714L421.369 224.209C421.179 223.642 420.802 223.156 420.299 222.832L371.426 191.323C371.04 191.074 370.596 190.931 370.137 190.907L321.436 188.369C319.882 188.288 318.598 189.567 318.672 191.121L319.394 206.292C319.425 206.944 319.697 207.561 320.158 208.023L353.432 241.455C353.892 241.917 354.164 242.534 354.196 243.186L356.379 289.029C356.482 291.184 354.09 292.54 352.294 291.344L322.913 271.782C322.641 271.6 322.337 271.471 322.017 271.401L278.181 261.811C277.323 261.623 276.427 261.876 275.794 262.485L239.326 297.596C238.093 298.783 238.304 300.813 239.754 301.721L300.702 339.88C301.177 340.177 301.544 340.617 301.751 341.137L321.415 390.558C322.178 392.475 320.538 394.484 318.508 394.121L262.012 384.009C261.852 383.98 261.695 383.937 261.543 383.879L222.71 369.15C221.699 368.767 220.557 369.041 219.83 369.84L206.019 385.034C205.149 385.99 205.101 387.431 205.899 388.448C219.232 405.443 243.61 440.809 244.504 459.571L246.148 494.1C246.234 495.893 244.537 497.244 242.808 496.757L209.948 487.516C209.526 487.397 209.14 487.175 208.825 486.868L186.153 464.784C184.937 463.6 182.935 463.86 182.061 465.315L168.633 487.697C168.051 488.666 168.154 489.898 168.888 490.758L211.663 540.888C211.799 541.046 211.952 541.188 212.121 541.31L286.854 595.472C288.868 596.932 287.919 600.112 285.435 600.23L215.368 603.568C215.021 603.585 214.675 603.532 214.348 603.414L172.866 588.404C172.54 588.286 172.193 588.234 171.846 588.25L146.885 589.439C144.992 589.53 143.812 591.532 144.651 593.232L175.061 654.817C175.4 655.503 176.022 656.008 176.763 656.199L248.404 674.689C249.132 674.876 249.744 675.366 250.088 676.035L276.438 727.37C277.312 729.073 276.134 731.109 274.223 731.2L221.708 733.701C221.271 733.722 220.836 733.634 220.442 733.444L178.924 713.449C178.53 713.259 178.094 713.17 177.657 713.191L151.453 714.44C150.001 714.509 148.881 715.741 148.95 717.193L151.083 761.97C151.119 762.721 151.474 763.42 152.059 763.892L199.974 802.563L257.649 845.033L346.838 901.339Z" fill="#563F3F"/>
<path d="M673.869 884.02C673.583 884.241 673.254 884.401 672.903 884.49L515.015 924.308C513.403 924.715 511.823 923.543 511.744 921.883L476.383 179.604C476.362 179.181 476.445 178.759 476.623 178.374L495.275 138.059L502.344 177.517C502.368 177.652 502.402 177.785 502.447 177.915L527.583 250.433L535.306 217.042C535.441 216.459 535.771 215.94 536.24 215.569L582.136 179.368C582.342 179.206 582.571 179.075 582.816 178.98L630.272 160.609C631.947 159.961 633.765 161.143 633.85 162.937L635.116 189.512C635.147 190.164 634.935 190.804 634.521 191.308L604.575 227.751C604.161 228.255 603.949 228.895 603.98 229.547L606.164 275.39C606.266 277.545 608.777 278.667 610.451 277.306L637.839 255.039C638.092 254.833 638.383 254.676 638.694 254.576L681.42 240.861C682.257 240.593 683.172 240.76 683.86 241.306L723.501 272.791C724.842 273.855 724.825 275.896 723.467 276.938L666.423 320.718C665.979 321.059 665.655 321.532 665.498 322.069L650.621 373.136C650.044 375.117 651.867 376.96 653.854 376.406L709.132 360.969C709.289 360.925 709.441 360.867 709.587 360.795L746.844 342.442C747.814 341.964 748.977 342.128 749.776 342.855L764.97 356.666C765.926 357.536 766.111 358.965 765.414 360.053C753.757 378.24 732.851 415.763 733.745 434.525L735.39 469.053C735.475 470.847 737.293 472.03 738.967 471.381L770.8 459.058C771.209 458.9 771.573 458.641 771.857 458.306L794.477 431.632L811.946 455.311C812.617 456.22 812.632 457.457 811.983 458.382L774.166 512.351C774.047 512.522 773.908 512.678 773.751 512.815L704.505 573.836C702.64 575.481 703.886 578.556 706.37 578.438L776.437 575.1C776.784 575.084 777.124 574.998 777.438 574.85L817.781 555.739L843.267 554.525C845.16 554.435 846.525 556.316 845.851 558.088L821.433 622.285C821.161 623 820.59 623.562 819.871 623.823L750.311 649.039C749.605 649.295 749.042 649.841 748.764 650.539L725.901 707.943L782.496 705.247C782.933 705.226 783.358 705.096 783.733 704.87L823.162 681.018C823.536 680.792 823.961 680.662 824.398 680.642L850.603 679.393C852.054 679.324 853.287 680.445 853.356 681.896L855.489 726.674C855.525 727.424 855.238 728.154 854.7 728.68L810.679 771.73L757.302 819.491L673.869 884.02Z" fill="#563F3F"/>
<path d="M290.63 433.107C290.343 433.065 290.074 432.981 289.816 432.849C263.76 419.481 213.815 393.154 205.561 386.2C204.76 385.526 204.907 384.48 205.651 383.743L219.81 369.724C220.554 368.988 221.656 368.76 222.628 369.148C236.07 374.516 260.456 384.428 261.853 385.698C263.308 387.02 303.333 392.418 323.164 394.951L331.923 396.273L410.633 415.857C413.228 416.503 413.317 420.158 410.757 420.929L345.041 440.724C344.674 440.835 344.286 440.864 343.906 440.809L290.63 433.107Z" fill="#705151"/>
<path d="M259.915 284.924C258.419 284.108 258.081 282.106 259.228 280.845L275.805 262.609C276.426 261.926 277.361 261.618 278.267 261.799L325.389 271.223C325.772 271.299 326.133 271.46 326.447 271.694L356.024 293.777C356.418 294.071 356.886 294.249 357.375 294.29L382.522 296.432C382.72 296.449 382.915 296.488 383.104 296.549L394.007 300.055C395.55 300.551 396.282 302.311 395.545 303.755L385.094 324.252C384.576 325.268 383.463 325.834 382.337 325.655L342.167 319.263L298.297 305.791C298.128 305.739 297.965 305.671 297.81 305.586L259.915 284.924Z" fill="#705151"/>
<path d="M204.471 484.283C204.117 484.169 203.795 483.974 203.53 483.713V483.713C201.441 481.656 198.294 484.396 200.059 486.738C204.347 492.424 208.076 497.295 209.882 499.479L220.412 512.208C220.765 512.635 221.243 512.939 221.78 513.078L271.799 526.027C271.946 526.065 272.095 526.09 272.246 526.102L325.734 530.429C326.004 530.451 326.276 530.431 326.539 530.37L362.923 521.949C363.603 521.791 364.192 521.37 364.562 520.778L375.468 503.303C376.663 501.388 375.06 498.954 372.831 499.309C351.01 502.785 315.926 508.34 314.655 508.401C313.271 508.467 268.777 501.364 246.513 497.774C246.382 497.753 246.258 497.722 246.132 497.682L204.471 484.283Z" fill="#705151"/>
<path d="M171.156 588.465C170.813 588.36 170.451 588.326 170.095 588.365L150.217 590.561C147.767 590.831 147.001 594.021 149.062 595.375L162.445 604.166C162.617 604.278 162.796 604.369 162.989 604.439C170.165 607.041 184.322 612.367 185.757 613.672C187.195 614.98 211.764 623.239 224.266 627.336C224.543 627.427 224.824 627.468 225.114 627.464L276.814 626.725L316.723 624.824C327.741 624.879 349.791 625.336 349.858 626.724C349.909 627.814 355.404 622.993 359.907 618.806C361.396 617.421 360.78 614.959 358.823 614.408L352.667 612.677L293.232 599.936C293.029 599.893 292.821 599.873 292.613 599.879L215.188 601.845C214.904 601.852 214.621 601.813 214.349 601.73L171.156 588.465Z" fill="#705151"/>
<path d="M149.032 718.925C148.963 717.474 150.083 716.241 151.535 716.172L177.785 714.922C178.193 714.902 178.6 714.978 178.973 715.143L220.474 733.479C220.847 733.645 221.254 733.72 221.662 733.701L286.979 730.589L332.342 733.646L372.363 742.075C372.618 742.128 372.864 742.22 373.092 742.345L390.792 752.108C392.787 753.209 392.536 756.152 390.383 756.898L367.299 764.899C367.023 764.995 366.733 765.044 366.44 765.044L292.314 765.128C292.174 765.128 292.038 765.138 291.9 765.161C271.704 768.452 232.422 775.28 235.255 776.532L192.835 757.789C192.691 757.725 192.552 757.649 192.422 757.56L150.574 729.182C149.889 728.717 149.462 727.957 149.423 727.13L149.032 718.925Z" fill="#705151"/>
<path d="M683.578 412.652C683.86 412.584 684.119 412.475 684.364 412.318C709.03 396.534 756.247 365.579 763.802 357.871C764.535 357.124 764.289 356.097 763.479 355.434L748.051 342.825C747.241 342.163 746.122 342.04 745.192 342.519C732.321 349.141 708.987 361.326 707.717 362.723C706.395 364.177 667.064 373.355 647.564 377.763L638.97 379.911L562.478 406.889C559.956 407.778 560.215 411.425 562.837 411.949L630.137 425.408C630.513 425.483 630.902 425.475 631.275 425.384L683.578 412.652Z" fill="#705151"/>
<path d="M700.067 262.221C701.479 261.266 701.624 259.241 700.363 258.095L682.128 241.518C681.444 240.896 680.484 240.679 679.599 240.946L633.587 254.806C633.213 254.919 632.869 255.113 632.579 255.376L605.234 280.17C604.87 280.5 604.422 280.722 603.939 280.81L579.109 285.332C578.914 285.367 578.723 285.425 578.541 285.504L568.02 290.031C566.532 290.671 565.971 292.492 566.841 293.86L579.194 313.271C579.806 314.232 580.968 314.69 582.072 314.405L621.452 304.224L663.842 286.642C664.006 286.575 664.161 286.491 664.308 286.392L700.067 262.221Z" fill="#705151"/>
<path d="M774.156 455.43C774.534 455.268 774.868 455.019 775.132 454.704L794.477 431.632C788.032 442.373 774.169 465.297 770.269 471.048L760.997 484.72C760.686 485.179 760.239 485.527 759.718 485.716L711.156 503.362C711.014 503.413 710.867 503.453 710.718 503.479L657.884 512.871C657.618 512.919 657.345 512.925 657.077 512.889L620.057 507.964C619.365 507.872 618.739 507.509 618.315 506.955L605.796 490.595C604.425 488.803 605.789 486.228 608.042 486.37C630.094 487.755 665.548 489.95 666.819 489.889C668.203 489.823 711.82 478.523 733.642 472.833C733.771 472.799 733.891 472.757 734.013 472.705L774.156 455.43Z" fill="#705151"/>
<path d="M817.781 555.739L838.323 556.045C840.788 556.082 841.853 559.184 839.931 560.727L827.443 570.751C827.283 570.88 827.113 570.987 826.928 571.075C820.032 574.347 806.445 580.995 805.14 582.43C803.833 583.869 780.161 594.426 768.105 599.694C767.838 599.81 767.562 599.878 767.273 599.901L715.737 604.081L675.827 605.982C664.865 607.084 642.958 609.635 643.024 611.023C643.076 612.114 637.148 607.837 632.267 604.096C630.653 602.86 631.033 600.35 632.928 599.616L638.892 597.307L696.847 578.974C697.045 578.911 697.25 578.872 697.457 578.858L774.718 573.454C775.002 573.435 775.28 573.369 775.543 573.26L817.781 555.739Z" fill="#705151"/>
<path d="M851.705 683.716C851.636 682.265 850.403 681.144 848.952 681.213L822.702 682.464C822.294 682.483 821.896 682.597 821.54 682.797L781.97 704.996C781.614 705.195 781.216 705.31 780.808 705.329L725.901 707.943L715.491 708.441L670.624 715.796L631.585 727.991C631.337 728.069 631.101 728.183 630.886 728.33L614.194 739.731C612.313 741.016 612.843 743.922 615.056 744.46L638.797 750.231C639.081 750.3 639.374 750.321 639.665 750.293L713.464 743.33C713.604 743.317 713.739 743.314 713.879 743.324C734.296 744.68 774.05 747.743 771.349 749.258L811.795 726.568C811.932 726.491 812.063 726.401 812.184 726.301L851.145 694.073C851.783 693.545 852.135 692.748 852.096 691.92L851.705 683.716Z" fill="#705151"/>
<path d="M588.637 790.142C591.179 788.968 590.371 785.162 587.57 785.124L486.325 783.72C486.132 783.718 485.94 783.736 485.752 783.775L412.756 798.981L535.445 814.278C535.933 814.338 536.428 814.261 536.874 814.055L588.637 790.142Z" fill="#705151"/>
<path d="M520.267 646.681C519.765 646.543 519.233 646.557 518.74 646.722L429.516 676.415C427.106 677.217 427.119 680.631 429.536 681.414L514.588 708.962C515.196 709.159 515.856 709.127 516.443 708.873L598.98 673.153C601.26 672.166 601.028 668.86 598.632 668.202L520.267 646.681Z" fill="#705151"/>
<path d="M514.602 525.379C514.026 525.138 513.384 525.109 512.79 525.298L437.032 549.309C434.648 550.065 434.564 553.407 436.907 554.282L503.33 579.078C503.848 579.272 504.414 579.297 504.947 579.15L580.9 558.258C583.309 557.595 583.524 554.261 581.219 553.295L514.602 525.379Z" fill="#705151"/>
<path d="M498.046 437.243C497.589 437.142 497.124 437.162 496.679 437.307C486.609 440.569 468.191 446.403 456.805 449.611C454.389 450.292 454.045 453.789 456.311 454.868L498.155 474.782C498.802 475.09 499.546 475.121 500.215 474.868L554.094 454.512C556.542 453.588 556.285 450.044 553.729 449.482L498.046 437.243Z" fill="#705151"/>
<path d="M488.634 347.22C488.119 347.147 487.594 347.227 487.125 347.451L461.973 359.481C459.767 360.536 460.068 363.767 462.431 364.397L493.336 372.633C493.951 372.797 494.605 372.732 495.176 372.451L525.745 357.391C528.065 356.248 527.516 352.794 524.956 352.427L488.634 347.22Z" fill="#705151"/>
<path d="M409.775 264.219L420.93 297.601L465.844 282.592L454.688 249.21L409.775 264.219ZM504.515 245.097L496.583 279.388L542.72 290.059L550.651 255.768L504.515 245.097ZM415.094 822.68L417.585 822.161L407.927 775.801L405.436 776.32L415.094 822.68ZM257.649 845.033L229.57 883.165L230.936 884.17L232.37 885.076L257.649 845.033ZM199.974 802.563L170.233 839.413L171.05 840.073L171.895 840.695L199.974 802.563ZM244.504 459.571L197.203 461.825L197.203 461.825L244.504 459.571ZM432.231 256.714L387.318 271.723L439.42 427.631L478.246 267.899L432.231 256.714ZM495.275 138.059L541.887 129.708L526.114 41.6643L462.166 104.202L495.275 138.059ZM757.302 819.491L786.273 856.949L787.614 855.911L788.878 854.781L757.302 819.491ZM810.679 771.73L842.255 807.02L843.037 806.32L843.788 805.586L810.679 771.73ZM817.781 555.739L815.527 508.438L807.271 508.832L799.636 511.999L817.781 555.739ZM794.477 431.632L832.584 403.519L797.06 355.367L758.36 401.005L794.477 431.632ZM733.745 434.525L686.444 436.778L686.444 436.778L733.745 434.525ZM527.583 250.433L482.84 265.941L536.675 421.259L573.72 261.104L527.583 250.433ZM331.923 396.273L343.356 350.32L341.193 349.782L338.989 349.449L331.923 396.273ZM323.164 394.951L330.231 348.127L329.699 348.047L329.165 347.979L323.164 394.951ZM261.853 385.698L293.707 350.658L261.853 385.698ZM342.167 319.263L328.265 364.531L331.443 365.507L334.726 366.03L342.167 319.263ZM314.655 508.401L316.909 555.702L314.655 508.401ZM209.882 499.479L173.394 529.662L173.394 529.662L209.882 499.479ZM352.667 612.677L365.487 567.091L364.051 566.687L362.592 566.374L352.667 612.677ZM349.858 626.724L302.557 628.977L349.858 626.724ZM316.723 624.824L316.959 577.47L315.714 577.464L314.47 577.523L316.723 624.824ZM276.814 626.725L277.49 674.075L278.279 674.064L279.067 674.026L276.814 626.725ZM185.757 613.672L217.611 578.632L217.61 578.632L185.757 613.672ZM235.255 776.532L216.117 819.847L254.393 733.217L235.255 776.532ZM332.342 733.646L342.102 687.308L338.846 686.622L335.526 686.398L332.342 733.646ZM286.979 730.589L290.163 683.342L287.446 683.159L284.726 683.288L286.979 730.589ZM638.97 379.911L627.484 333.971L625.322 334.511L623.22 335.253L638.97 379.911ZM647.564 377.763L637.125 331.573L636.6 331.692L636.078 331.822L647.564 377.763ZM707.717 362.723L672.677 330.87L707.717 362.723ZM621.452 304.224L633.305 350.071L636.523 349.239L639.594 347.965L621.452 304.224ZM666.819 489.889L664.565 442.588L666.819 489.889ZM770.269 471.048L809.462 497.626L809.462 497.626L770.269 471.048ZM638.892 597.307L624.61 552.157L623.188 552.607L621.797 553.146L638.892 597.307ZM643.024 611.023L595.723 613.277L643.024 611.023ZM675.827 605.982L673.574 558.681L672.33 558.74L671.091 558.865L675.827 605.982ZM715.737 604.081L717.99 651.382L718.778 651.344L719.565 651.28L715.737 604.081ZM805.14 582.43L770.1 550.577L770.1 550.577L805.14 582.43ZM771.349 749.258L748.179 707.959L794.518 790.558L771.349 749.258ZM670.624 715.796L662.964 669.065L659.68 669.603L656.504 670.595L670.624 715.796ZM715.491 708.441L713.228 661.14L710.513 661.27L707.831 661.71L715.491 708.441ZM412.756 798.981L403.099 752.622L406.897 845.972L412.756 798.981ZM495.176 372.451L474.249 329.971L495.176 372.451ZM493.336 372.633L481.141 418.39L493.336 372.633ZM461.973 359.481L441.541 316.761L461.973 359.481ZM462.431 364.397L450.236 410.154L462.431 364.397ZM500.215 474.868L483.479 430.569L500.215 474.868ZM498.155 474.782L477.805 517.541L498.155 474.782ZM553.729 449.482L563.895 403.231L553.729 449.482ZM554.094 454.512L537.358 410.214L554.094 454.512ZM496.679 437.307L482.084 392.257L496.679 437.307ZM498.046 437.243L487.88 483.493L498.046 437.243ZM456.805 449.611L443.963 404.031L456.805 449.611ZM456.311 454.868L476.662 412.109L456.311 454.868ZM504.947 579.15L517.507 624.809L504.947 579.15ZM503.33 579.078L519.891 534.714L503.33 579.078ZM581.219 553.295L599.52 509.62L581.219 553.295ZM580.9 558.258L593.459 603.916L580.9 558.258ZM512.79 525.298L498.482 480.156L512.79 525.298ZM514.602 525.379L496.3 569.054L514.602 525.379ZM437.032 549.309L451.34 594.451L437.032 549.309ZM436.907 554.282L453.469 509.918L436.907 554.282ZM516.443 708.873L497.635 665.414L516.443 708.873ZM514.588 708.962L529.179 663.911L514.588 708.962ZM598.632 668.202L611.172 622.538L598.632 668.202ZM598.98 673.153L617.788 716.612L598.98 673.153ZM518.74 646.722L503.787 601.79L518.74 646.722ZM520.267 646.681L532.807 601.017L520.267 646.681ZM429.516 676.415L444.469 721.346L429.516 676.415ZM429.536 681.414L444.128 636.363L429.536 681.414ZM536.874 814.055L517.015 771.066L536.874 814.055ZM535.445 814.278L541.304 767.287L535.445 814.278ZM587.57 785.124L586.914 832.474L587.57 785.124ZM588.637 790.142L568.778 747.153L588.637 790.142ZM486.325 783.72L486.981 736.37L486.325 783.72ZM485.752 783.775L476.095 737.416L485.752 783.775ZM780.808 705.329L783.06 752.63L780.808 705.329ZM781.97 704.996L805.139 746.295L781.97 704.996ZM630.886 728.33L604.177 689.226L630.886 728.33ZM631.585 727.991L617.465 682.79L631.585 727.991ZM615.056 744.46L626.241 698.445L615.056 744.46ZM614.194 739.731L640.903 778.834L614.194 739.731ZM639.665 750.293L644.114 797.439L639.665 750.293ZM638.797 750.231L649.982 704.216L638.797 750.231ZM713.879 743.324L710.741 790.574L713.879 743.324ZM713.464 743.33L709.015 696.185L713.464 743.33ZM812.184 726.301L782.001 689.812L812.184 726.301ZM811.795 726.568L834.964 767.867L811.795 726.568ZM852.096 691.92L899.397 689.667L852.096 691.92ZM851.145 694.073L820.961 657.584L851.145 694.073ZM848.952 681.213L846.698 633.912L848.952 681.213ZM851.705 683.716L804.404 685.969L851.705 683.716ZM822.702 682.464L824.955 729.765L822.702 682.464ZM821.54 682.797L844.709 724.097L821.54 682.797ZM826.928 571.075L806.627 528.292L826.928 571.075ZM827.443 570.751L857.087 607.68L827.443 570.751ZM767.273 599.901L763.445 552.702L767.273 599.901ZM768.105 599.694L749.145 556.3L768.105 599.694ZM632.928 599.616L650.024 643.777L632.928 599.616ZM632.267 604.096L603.464 641.684L632.267 604.096ZM697.457 578.858L700.76 626.097L697.457 578.858ZM696.847 578.974L682.565 533.824L696.847 578.974ZM775.543 573.26L757.398 529.52L775.543 573.26ZM774.718 573.454L771.414 526.215L774.718 573.454ZM838.323 556.045L839.028 508.696L838.323 556.045ZM839.931 560.727L810.287 523.799L839.931 560.727ZM759.718 485.716L743.546 441.209L759.718 485.716ZM760.997 484.72L721.805 458.142L760.997 484.72ZM710.718 503.479L719.006 550.103L710.718 503.479ZM711.156 503.362L694.984 458.854L711.156 503.362ZM657.077 512.889L650.832 559.83L657.077 512.889ZM657.884 512.871L649.596 466.248L657.884 512.871ZM618.315 506.955L580.707 535.732L618.315 506.955ZM620.057 507.964L613.813 554.905L620.057 507.964ZM608.042 486.37L611.012 439.108L608.042 486.37ZM605.796 490.595L568.189 519.372L605.796 490.595ZM734.013 472.705L715.295 429.207L734.013 472.705ZM733.642 472.833L745.591 518.655L733.642 472.833ZM775.132 454.704L738.845 424.28L775.132 454.704ZM774.156 455.43L792.875 498.928L774.156 455.43ZM632.579 255.376L600.77 220.295L632.579 255.376ZM603.939 280.81L612.424 327.398L603.939 280.81ZM605.234 280.17L637.043 315.251L605.234 280.17ZM578.541 285.504L597.259 329.002L578.541 285.504ZM579.109 285.332L587.594 331.92L579.109 285.332ZM566.841 293.86L526.89 319.284L566.841 293.86ZM568.02 290.031L586.739 333.529L568.02 290.031ZM582.072 314.405L570.218 268.558L582.072 314.405ZM579.194 313.271L619.144 287.846L579.194 313.271ZM664.308 286.392L637.789 247.159L664.308 286.392ZM663.842 286.642L645.7 242.901L663.842 286.642ZM700.363 258.095L668.51 293.135L700.363 258.095ZM700.067 262.221L726.585 301.454L700.067 262.221ZM682.128 241.518L713.981 206.478L682.128 241.518ZM679.599 240.946L665.941 195.604L665.941 195.604L679.599 240.946ZM745.192 342.519L766.856 384.627L745.192 342.519ZM748.051 342.825L718.083 379.491L748.051 342.825ZM562.837 411.949L553.551 458.385L562.837 411.949ZM562.478 406.889L546.728 362.23L562.478 406.889ZM631.275 425.384L642.476 471.395L631.275 425.384ZM630.137 425.408L639.423 378.973L630.137 425.408ZM684.364 412.318L709.888 452.206L684.364 412.318ZM683.578 412.652L672.377 366.641L683.578 412.652ZM763.802 357.871L729.988 324.72L763.802 357.871ZM763.479 355.434L793.447 318.768L763.479 355.434ZM220.474 733.479L239.612 690.164L220.474 733.479ZM221.662 733.701L219.409 686.4L221.662 733.701ZM373.092 742.345L350.221 783.811L373.092 742.345ZM372.363 742.075L362.604 788.413L372.363 742.075ZM390.383 756.898L405.892 801.641L390.383 756.898ZM390.792 752.108L367.921 793.574L390.792 752.108ZM366.44 765.044L366.387 717.69L366.44 765.044ZM367.299 764.899L351.79 720.156L367.299 764.899ZM291.9 765.161L284.284 718.423L291.9 765.161ZM292.314 765.128L292.261 717.773L292.314 765.128ZM162.989 604.439L179.13 559.92L162.989 604.439ZM162.445 604.166L188.444 564.586L162.445 604.166ZM372.831 499.309L365.382 452.544L372.831 499.309ZM375.468 503.303L415.641 528.374L375.468 503.303ZM200.059 486.738L162.247 515.245L200.059 486.738ZM326.447 271.694L298.117 309.64L326.447 271.694ZM325.389 271.223L334.675 224.788L325.389 271.223ZM357.375 294.29L353.357 341.474L357.375 294.29ZM356.024 293.777L327.694 331.723L356.024 293.777ZM383.104 296.549L368.606 341.629L383.104 296.549ZM382.522 296.432L386.54 249.248L382.522 296.432ZM395.545 303.755L353.359 282.243L395.545 303.755ZM382.337 325.655L389.778 278.889L382.337 325.655ZM385.094 324.252L342.907 302.741L385.094 324.252ZM297.81 305.586L275.141 347.162L297.81 305.586ZM298.297 305.791L312.199 260.523L298.297 305.791ZM259.228 280.845L294.268 312.698L259.228 280.845ZM259.915 284.924L282.584 243.348L259.915 284.924ZM275.805 262.609L240.765 230.756L275.805 262.609ZM278.267 261.799L268.981 308.235L278.267 261.799ZM222.628 369.148L205.065 413.125L222.628 369.148ZM219.81 369.724L186.493 336.073L219.81 369.724ZM410.757 420.929L397.099 375.587L410.757 420.929ZM410.633 415.857L422.067 369.903L410.633 415.857ZM343.906 440.809L337.13 487.676L343.906 440.809ZM345.041 440.724L331.383 395.382L345.041 440.724ZM289.816 432.849L268.199 474.982L289.816 432.849ZM290.63 433.107L297.406 386.239L290.63 433.107ZM205.561 386.2L175.05 422.416L205.561 386.2ZM205.651 383.743L172.333 350.092L205.651 383.743ZM476.623 178.374L433.645 158.491L476.623 178.374ZM476.383 179.604L523.684 177.351L476.383 179.604ZM502.447 177.915L547.19 162.406L502.447 177.915ZM502.344 177.517L548.956 169.167L502.344 177.517ZM536.24 215.569L506.914 178.389L536.24 215.569ZM535.306 217.042L581.443 227.713L535.306 217.042ZM582.816 178.98L565.72 134.819L582.816 178.98ZM582.136 179.368L552.81 142.187L582.136 179.368ZM633.85 162.937L586.549 165.19L633.85 162.937ZM630.272 160.609L613.177 116.448L613.177 116.448L630.272 160.609ZM634.521 191.308L671.108 221.372L634.521 191.308ZM635.116 189.512L587.815 191.766L635.116 189.512ZM603.98 229.547L651.281 227.293L603.98 229.547ZM604.575 227.751L567.988 197.688L604.575 227.751ZM610.451 277.306L640.324 314.049L610.451 277.306ZM606.164 275.39L558.863 277.643L606.164 275.39ZM638.694 254.576L624.221 209.487L638.694 254.576ZM637.839 255.039L607.966 218.296L637.839 255.039ZM683.86 241.306L654.408 278.387L683.86 241.306ZM681.42 240.861L695.893 285.95L681.42 240.861ZM723.467 276.938L752.298 314.504L723.467 276.938ZM723.501 272.791L752.953 235.71L723.501 272.791ZM665.498 322.069L620.034 308.824L665.498 322.069ZM666.423 320.718L637.591 283.152L666.423 320.718ZM653.854 376.406L641.118 330.796L653.854 376.406ZM650.621 373.136L605.156 359.89L650.621 373.136ZM709.587 360.795L730.514 403.275L709.587 360.795ZM709.132 360.969L721.869 406.579L709.132 360.969ZM749.776 342.855L717.923 377.895L749.776 342.855ZM746.844 342.442L767.771 384.921L746.844 342.442ZM765.414 360.053L805.281 385.608L765.414 360.053ZM764.97 356.666L733.116 391.707L764.97 356.666ZM735.39 469.053L688.089 471.307L735.39 469.053ZM771.857 458.306L807.974 488.933L771.857 458.306ZM770.8 459.058L787.896 503.219L770.8 459.058ZM819.871 623.823L803.732 579.303L819.871 623.823ZM821.433 622.285L777.172 605.45L821.433 622.285ZM748.764 650.539L792.757 668.06L748.764 650.539ZM750.311 649.039L766.45 693.558L750.311 649.039ZM824.398 680.642L826.652 727.943L824.398 680.642ZM823.162 681.018L847.672 721.537L823.162 681.018ZM853.356 681.896L900.657 679.643L853.356 681.896ZM850.603 679.393L848.349 632.092L850.603 679.393ZM854.7 728.68L887.81 762.536L854.7 728.68ZM855.489 726.674L902.79 724.42L855.489 726.674ZM672.903 884.49L661.323 838.573L672.903 884.49ZM673.869 884.02L644.898 846.562L673.869 884.02ZM515.015 924.308L503.435 878.391L515.015 924.308ZM511.744 921.883L559.045 919.629L511.744 921.883ZM476.687 180.127L520.002 199.265L476.687 180.127ZM476.466 181.316L429.165 183.569L476.466 181.316ZM450.23 182.668L404.216 171.483L450.23 182.668ZM450.947 181.408L417.838 147.552L450.947 181.408ZM420.299 222.832L445.959 183.032L420.299 222.832ZM421.369 224.209L466.282 209.2L421.369 224.209ZM370.137 190.907L367.673 238.197L370.137 190.907ZM371.426 191.323L345.767 231.123L371.426 191.323ZM318.672 191.121L365.973 188.868L318.672 191.121ZM321.436 188.369L318.972 235.659L321.436 188.369ZM320.158 208.023L353.721 174.617L320.158 208.023ZM319.394 206.292L366.695 204.039L319.394 206.292ZM354.196 243.186L306.895 245.439L354.196 243.186ZM353.432 241.455L319.869 274.861L353.432 241.455ZM352.294 291.344L326.049 330.76L352.294 291.344ZM356.379 289.029L309.078 291.282L356.379 289.029ZM322.017 271.401L311.896 317.662L322.017 271.401ZM322.913 271.782L349.158 232.365L322.913 271.782ZM275.794 262.485L308.638 296.599L275.794 262.485ZM278.181 261.811L268.06 308.071L278.181 261.811ZM239.326 297.596L206.482 263.482L239.326 297.596ZM301.751 341.137L257.751 358.645L301.751 341.137ZM300.702 339.88L275.573 380.017L300.702 339.88ZM151.535 716.172L153.788 763.473L151.535 716.172ZM149.032 718.925L196.333 716.672L149.032 718.925ZM219.83 369.84L184.79 337.987L219.83 369.84ZM222.71 369.15L239.504 324.874L222.71 369.15ZM177.785 714.922L180.038 762.222L177.785 714.922ZM178.973 715.143L198.111 671.828L178.973 715.143ZM205.899 388.448L168.641 417.676L205.899 388.448ZM206.019 385.034L241.059 416.887L206.019 385.034ZM242.808 496.757L255.628 451.171L255.628 451.171L242.808 496.757ZM246.148 494.1L293.449 491.846L246.148 494.1ZM225.114 627.464L224.438 580.114L225.114 627.464ZM224.266 627.336L239.015 582.337L224.266 627.336ZM208.825 486.868L241.867 452.947L208.825 486.868ZM209.948 487.516L197.128 533.102L209.948 487.516ZM182.061 465.315L222.668 489.678L182.061 465.315ZM186.153 464.784L153.111 498.706L186.153 464.784ZM168.888 490.758L132.865 521.496L168.888 490.758ZM168.633 487.697L128.026 463.334L168.633 487.697ZM212.121 541.31L239.91 502.967L212.121 541.31ZM211.663 540.888L247.686 510.15L211.663 540.888ZM358.823 614.408L371.643 568.822L358.823 614.408ZM359.907 618.806L392.153 653.486L392.153 653.486L359.907 618.806ZM285.435 600.23L283.182 552.929L285.435 600.23ZM286.854 595.472L314.643 557.129L286.854 595.472ZM214.348 603.414L198.235 647.943L214.348 603.414ZM215.368 603.568L217.622 650.869L215.368 603.568ZM170.095 588.365L175.294 635.433L170.095 588.365ZM171.156 588.465L185.057 543.197L171.156 588.465ZM176.763 656.199L188.596 610.347L176.763 656.199ZM175.061 654.817L132.601 675.783L175.061 654.817ZM811.983 458.382L850.765 485.557L811.983 458.382ZM811.946 455.311L850.052 427.198L811.946 455.311ZM150.217 590.561L155.417 637.629L150.217 590.561ZM149.062 595.375L123.063 634.954L149.062 595.375ZM250.088 676.035L207.959 697.659L250.088 676.035ZM248.404 674.689L260.238 628.836L248.404 674.689ZM773.751 512.815L805.06 548.343L805.06 548.343L773.751 512.815ZM774.166 512.351L812.948 539.526L774.166 512.351ZM274.223 731.2L276.476 778.501L274.223 731.2ZM276.438 727.37L234.31 748.995L276.438 727.37ZM706.37 578.438L708.623 625.739L706.37 578.438ZM704.505 573.836L735.814 609.365L704.505 573.836ZM221.78 513.078L209.912 558.921L221.78 513.078ZM220.412 512.208L256.9 482.025L220.412 512.208ZM220.442 733.444L240.989 690.779L220.442 733.444ZM221.708 733.701L223.962 781.002L221.708 733.701ZM845.851 558.088L801.59 541.253L845.851 558.088ZM843.267 554.525L845.52 601.826L843.267 554.525ZM364.562 520.778L404.735 545.85L364.562 520.778ZM362.923 521.949L352.245 475.814L362.923 521.949ZM152.059 763.892L122.318 800.742L152.059 763.892ZM151.083 761.97L198.384 759.717L151.083 761.97ZM777.438 574.85L757.165 532.054L777.438 574.85ZM776.437 575.1L778.69 622.401L776.437 575.1ZM272.246 526.102L268.428 573.303L272.246 526.102ZM271.799 526.027L283.667 480.184L271.799 526.027ZM177.657 713.191L175.404 665.89L177.657 713.191ZM178.924 713.449L158.377 756.113L178.924 713.449ZM292.613 599.879L291.411 552.539L291.411 552.539L292.613 599.879ZM293.232 599.936L303.157 553.634L293.232 599.936ZM171.846 588.25L174.099 635.551L171.846 588.25ZM172.866 588.404L188.979 543.875L172.866 588.404ZM192.422 757.56L219 718.367L192.422 757.56ZM192.835 757.789L173.697 801.104L192.835 757.789ZM318.508 394.121L310.164 440.734L318.508 394.121ZM321.415 390.558L365.415 373.051L321.415 390.558ZM246.132 497.682L231.633 542.762L246.132 497.682ZM246.513 497.774L254.052 451.023L246.513 497.774ZM524.956 352.427L518.236 399.303L524.956 352.427ZM347.845 901.715L355.007 854.905L347.845 901.715ZM346.838 901.339L321.559 941.382L346.838 901.339ZM326.539 530.37L337.218 576.505L326.539 530.37ZM325.734 530.429L321.916 577.63L325.734 530.429ZM148.95 717.193L101.649 719.446L148.95 717.193ZM151.453 714.44L153.706 761.741L151.453 714.44ZM214.349 601.73L200.448 646.998L214.349 601.73ZM215.188 601.845L213.986 554.505L215.188 601.845ZM144.651 593.232L102.191 614.198L144.651 593.232ZM146.885 589.439L144.632 542.138L146.885 589.439ZM149.423 727.13L196.724 724.876L149.423 727.13ZM150.574 729.182L123.996 768.375L150.574 729.182ZM261.543 383.879L244.749 428.156L261.543 383.879ZM262.012 384.009L270.355 337.395L262.012 384.009ZM783.733 704.87L808.243 745.388L783.733 704.87ZM782.496 705.247L784.75 752.547L782.496 705.247ZM204.471 484.283L189.972 529.364L204.471 484.283ZM487.125 347.451L466.693 304.731L487.125 347.451ZM488.634 347.22L481.914 394.096L488.634 347.22ZM508.803 926.344L515.965 879.534L508.803 926.344ZM511.828 923.618L559.129 921.365L511.828 923.618ZM515.965 879.534L355.007 854.905L340.682 948.525L501.64 973.154L515.965 879.534ZM372.117 861.296L282.928 804.99L232.37 885.076L321.559 941.382L372.117 861.296ZM285.728 806.901L228.052 764.431L171.895 840.695L229.57 883.165L285.728 806.901ZM229.714 765.713L181.8 727.042L122.318 800.742L170.233 839.413L229.714 765.713ZM198.384 759.717L196.251 714.939L101.649 719.446L103.782 764.224L198.384 759.717ZM153.706 761.741L179.91 760.492L175.404 665.89L149.199 667.139L153.706 761.741ZM158.377 756.113L199.894 776.108L240.989 690.779L199.471 670.784L158.377 756.113ZM223.962 781.002L276.476 778.501L271.97 683.899L219.455 686.401L223.962 781.002ZM318.567 705.746L292.216 654.41L207.959 697.659L234.31 748.995L318.567 705.746ZM260.238 628.836L188.596 610.347L164.929 702.052L236.571 720.541L260.238 628.836ZM217.522 633.85L187.112 572.266L102.191 614.198L132.601 675.783L217.522 633.85ZM149.138 636.74L174.099 635.551L169.592 540.949L144.632 542.138L149.138 636.74ZM156.754 632.933L198.235 647.943L230.461 558.885L188.979 543.875L156.754 632.933ZM217.622 650.869L287.689 647.531L283.182 552.929L213.115 556.267L217.622 650.869ZM314.643 557.129L239.91 502.967L184.332 579.654L259.065 633.816L314.643 557.129ZM247.686 510.15L204.91 460.02L132.865 521.496L175.641 571.626L247.686 510.15ZM209.24 512.06L222.668 489.678L141.455 440.952L128.026 463.334L209.24 512.06ZM153.111 498.706L175.783 520.79L241.867 452.947L219.195 430.862L153.111 498.706ZM197.128 533.102L229.988 542.344L255.628 451.171L222.769 441.93L197.128 533.102ZM293.449 491.846L291.804 457.318L197.203 461.825L198.848 496.353L293.449 491.846ZM291.804 457.318C291.189 444.405 287.02 432.646 283.611 424.552C279.883 415.701 275.212 406.996 270.625 399.24C261.448 383.724 250.756 368.907 243.156 359.219L168.641 417.676C174.374 424.984 182.538 436.348 189.107 447.454C192.392 453.009 194.817 457.726 196.328 461.313C198.158 465.659 197.371 465.356 197.203 461.825L291.804 457.318ZM241.059 416.887L254.871 401.694L184.79 337.987L170.979 353.18L241.059 416.887ZM205.916 413.427L244.749 428.156L278.336 339.602L239.504 324.874L205.916 413.427ZM253.669 430.623L310.164 440.734L326.851 347.507L270.355 337.395L253.669 430.623ZM365.415 373.051L345.75 323.63L257.751 358.645L277.416 408.066L365.415 373.051ZM325.832 299.743L264.884 261.584L214.625 341.858L275.573 380.017L325.832 299.743ZM272.17 331.71L308.638 296.599L242.951 228.372L206.482 263.482L272.17 331.71ZM268.06 308.071L311.896 317.662L332.139 225.141L288.302 215.55L268.06 308.071ZM296.668 311.198L326.049 330.76L378.538 251.927L349.158 232.365L296.668 311.198ZM403.68 286.775L401.496 240.932L306.895 245.439L309.078 291.282L403.68 286.775ZM386.996 208.049L353.721 174.617L286.594 241.429L319.869 274.861L386.996 208.049ZM366.695 204.039L365.973 188.868L271.371 193.375L272.093 208.546L366.695 204.039ZM318.972 235.659L367.673 238.197L372.602 143.616L323.901 141.079L318.972 235.659ZM345.767 231.123L394.64 262.632L445.959 183.032L397.086 151.523L345.767 231.123ZM376.456 239.218L387.318 271.723L477.145 241.705L466.282 209.2L376.456 239.218ZM478.246 267.899L496.245 193.853L404.216 171.483L386.217 245.529L478.246 267.899ZM484.056 215.264L528.384 171.915L462.166 104.202L417.838 147.552L484.056 215.264ZM451.96 118.92L433.372 160.989L520.002 199.265L538.59 157.197L451.96 118.92ZM526.595 970.225L684.483 930.407L661.323 838.573L503.435 878.391L526.595 970.225ZM702.84 921.478L786.273 856.949L728.33 782.032L644.898 846.562L702.84 921.478ZM788.878 854.781L842.255 807.02L779.102 736.44L725.725 784.201L788.878 854.781ZM843.788 805.586L887.81 762.536L821.591 694.824L777.57 737.874L843.788 805.586ZM902.79 724.42L900.657 679.643L806.055 684.149L808.188 728.927L902.79 724.42ZM848.349 632.092L822.145 633.341L826.652 727.943L852.856 726.694L848.349 632.092ZM798.652 640.5L759.223 664.352L808.243 745.388L847.672 721.537L798.652 640.5ZM780.243 657.946L723.647 660.642L728.154 755.244L784.75 752.547L780.243 657.946ZM769.894 725.465L792.757 668.06L704.77 633.017L681.907 690.421L769.894 725.465ZM766.45 693.558L836.009 668.342L803.732 579.303L734.172 604.519L766.45 693.558ZM865.694 639.12L890.112 574.923L801.59 541.253L777.172 605.45L865.694 639.12ZM841.013 507.224L815.527 508.438L820.034 603.04L845.52 601.826L841.013 507.224ZM797.508 512.943L757.165 532.054L797.711 617.646L838.053 598.535L797.508 512.943ZM774.183 527.799L704.116 531.137L708.623 625.739L778.69 622.401L774.183 527.799ZM735.814 609.365L805.06 548.343L742.443 477.287L673.197 538.308L735.814 609.365ZM812.948 539.526L850.765 485.557L773.202 431.208L735.385 485.177L812.948 539.526ZM850.052 427.198L832.584 403.519L756.37 459.744L773.839 483.423L850.052 427.198ZM758.36 401.005L735.74 427.68L807.974 488.933L830.594 462.259L758.36 401.005ZM753.704 414.897L721.872 427.22L756.063 515.542L787.896 503.219L753.704 414.897ZM782.691 466.8L781.046 432.271L686.444 436.778L688.089 471.307L782.691 466.8ZM781.046 432.271C781.214 435.803 780.459 436.179 781.868 431.679C783.031 427.964 784.996 423.039 787.739 417.196C793.222 405.516 800.269 393.428 805.281 385.608L725.546 334.499C718.902 344.865 709.667 360.632 702.006 376.95C698.177 385.107 694.355 394.216 691.485 403.382C688.861 411.763 685.829 423.865 686.444 436.778L781.046 432.271ZM796.823 321.626L781.63 307.815L717.923 377.895L733.116 391.707L796.823 321.626ZM725.918 299.962L688.661 318.315L730.514 403.275L767.771 384.921L725.918 299.962ZM696.396 315.359L641.118 330.796L666.591 422.015L721.869 406.579L696.396 315.359ZM696.085 386.381L710.963 335.315L620.034 308.824L605.156 359.89L696.085 386.381ZM695.254 358.284L752.298 314.504L694.636 239.372L637.591 283.152L695.254 358.284ZM752.953 235.71L713.313 204.225L654.408 278.387L694.049 309.872L752.953 235.71ZM666.947 195.772L624.221 209.487L653.167 299.664L695.893 285.95L666.947 195.772ZM607.966 218.296L580.578 240.563L640.324 314.049L667.712 291.783L607.966 218.296ZM653.464 273.137L651.281 227.293L556.679 231.8L558.863 277.643L653.464 273.137ZM641.162 257.815L671.108 221.372L597.934 161.244L567.988 197.688L641.162 257.815ZM682.417 187.259L681.151 160.684L586.549 165.19L587.815 191.766L682.417 187.259ZM613.177 116.448L565.72 134.819L599.911 223.141L647.368 204.77L613.177 116.448ZM552.81 142.187L506.914 178.389L565.567 252.75L611.463 216.549L552.81 142.187ZM489.17 206.37L481.447 239.761L573.72 261.104L581.443 227.713L489.17 206.37ZM572.326 234.924L547.19 162.406L457.704 193.423L482.84 265.941L572.326 234.924ZM548.956 169.167L541.887 129.708L448.662 146.409L455.731 185.867L548.956 169.167ZM452.297 118.175L433.645 158.491L519.601 198.258L538.253 157.942L452.297 118.175ZM175.05 422.416C180.799 427.259 189.21 432.246 194.64 435.421C201.499 439.432 209.815 444.058 218.391 448.721C235.598 458.078 254.952 468.185 268.199 474.982L311.432 390.716C298.624 384.145 279.978 374.405 263.635 365.518C255.436 361.059 248.089 356.963 242.448 353.664C235.377 349.53 234.45 348.619 236.071 349.984L175.05 422.416ZM283.854 479.974L337.13 487.676L350.682 393.942L297.406 386.239L283.854 479.974ZM358.699 486.066L424.415 466.271L397.099 375.587L331.383 395.382L358.699 486.066ZM422.067 369.903L343.356 350.32L320.489 442.227L399.2 461.811L422.067 369.903ZM338.989 349.449L330.231 348.127L316.097 441.776L324.856 443.098L338.989 349.449ZM329.165 347.979C319.398 346.731 304.712 344.784 292.393 343.003C286.178 342.105 280.906 341.297 277.26 340.672C276.376 340.52 275.662 340.392 275.108 340.288C274.835 340.237 274.623 340.195 274.466 340.164C274.306 340.131 274.234 340.116 274.237 340.116C274.241 340.117 274.274 340.125 274.334 340.138C274.393 340.152 274.492 340.175 274.625 340.208C274.849 340.264 275.38 340.399 276.106 340.615C276.692 340.79 278.213 341.255 280.152 342.055C281.137 342.461 282.757 343.168 284.684 344.223C286.336 345.127 289.876 347.176 293.707 350.658L230 420.738C236.575 426.715 243.317 429.311 244.05 429.613C246.226 430.511 248.058 431.082 249.022 431.369C251.043 431.973 252.866 432.39 253.947 432.627C256.291 433.141 258.897 433.615 261.256 434.019C266.143 434.857 272.39 435.805 278.842 436.738C291.857 438.62 307.099 440.639 317.163 441.924L329.165 347.979ZM293.707 350.658C290.744 347.965 288.078 346.243 287.231 345.7C286.016 344.92 284.976 344.327 284.326 343.966C283.018 343.239 281.834 342.65 281.07 342.277C279.467 341.496 277.731 340.71 276.19 340.028C273.009 338.621 269.025 336.935 264.946 335.238C256.707 331.81 247.022 327.899 240.191 325.171L205.065 413.125C211.676 415.765 220.905 419.494 228.569 422.682C232.442 424.293 235.656 425.659 237.86 426.634C238.391 426.869 238.81 427.058 239.126 427.203C239.458 427.355 239.588 427.419 239.567 427.408C239.55 427.4 239.445 427.349 239.27 427.259C239.109 427.177 238.778 427.005 238.335 426.758C237.944 426.541 237.121 426.076 236.081 425.409C235.409 424.977 232.876 423.353 230 420.738L293.707 350.658ZM186.493 336.073L172.333 350.092L238.969 417.394L253.128 403.375L186.493 336.073ZM240.765 230.756L224.188 248.991L294.268 312.698L310.845 294.463L240.765 230.756ZM237.246 326.5L275.141 347.162L320.479 264.01L282.584 243.348L237.246 326.5ZM284.395 351.059L328.265 364.531L356.069 273.995L312.199 260.523L284.395 351.059ZM334.726 366.03L374.895 372.421L389.778 278.889L349.608 272.497L334.726 366.03ZM427.28 345.763L437.732 325.266L353.359 282.243L342.907 302.741L427.28 345.763ZM408.506 254.975L397.603 251.468L368.606 341.629L379.509 345.136L408.506 254.975ZM386.54 249.248L361.393 247.107L353.357 341.474L378.504 343.616L386.54 249.248ZM384.355 255.832L354.777 233.749L298.117 309.64L327.694 331.723L384.355 255.832ZM334.675 224.788L287.553 215.364L268.981 308.235L316.103 317.658L334.675 224.788ZM189.972 529.364L231.633 542.762L260.63 452.601L218.97 439.203L189.972 529.364ZM238.974 544.524C250.139 546.325 266.892 549.008 281.051 551.237C288.117 552.349 294.617 553.361 299.476 554.095C301.883 554.459 304.025 554.776 305.679 555.008C306.477 555.119 307.376 555.241 308.22 555.343C308.616 555.391 309.276 555.469 310.036 555.539C310.408 555.573 311.057 555.63 311.852 555.676C312.273 555.7 314.322 555.825 316.909 555.702L312.402 461.1C314.946 460.978 316.93 461.102 317.266 461.121C317.976 461.162 318.52 461.21 318.767 461.233C319.053 461.26 319.267 461.283 319.375 461.295C319.492 461.308 319.569 461.317 319.593 461.32C319.622 461.323 319.402 461.296 318.807 461.213C317.676 461.054 315.941 460.799 313.634 460.45C309.065 459.76 302.791 458.784 295.777 457.68C281.777 455.476 265.151 452.813 254.052 451.023L238.974 544.524ZM316.909 555.702C318.154 555.642 319.137 555.545 319.428 555.516C319.865 555.472 320.23 555.43 320.458 555.403C320.92 555.348 321.335 555.293 321.617 555.255C322.206 555.176 322.859 555.082 323.484 554.99C324.765 554.803 326.449 554.548 328.385 554.252C332.282 553.654 337.539 552.835 343.383 551.917C355.09 550.079 369.355 547.815 380.281 546.074L365.382 452.544C354.487 454.28 340.299 456.532 328.69 458.355C322.878 459.267 317.761 460.065 314.041 460.635C312.168 460.922 310.731 461.139 309.766 461.28C309.267 461.353 309.015 461.388 308.939 461.398C307.715 461.564 309.934 461.217 312.402 461.1L316.909 555.702ZM335.295 478.231L324.389 495.707L404.735 545.85L415.641 528.374L335.295 478.231ZM352.245 475.814L315.861 484.235L337.218 576.505L373.602 568.083L352.245 475.814ZM329.552 483.229L276.065 478.902L268.428 573.303L321.916 577.63L329.552 483.229ZM283.667 480.184L233.647 467.235L209.912 558.921L259.931 571.87L283.667 480.184ZM256.9 482.025L246.371 469.296L173.394 529.662L183.923 542.391L256.9 482.025ZM246.371 469.296C245.386 468.104 242.35 464.17 237.872 458.23L162.247 515.245C166.343 520.678 170.766 526.485 173.394 529.662L246.371 469.296ZM155.417 637.629L175.294 635.433L164.895 541.297L145.018 543.493L155.417 637.629ZM157.254 633.733L200.448 646.998L228.251 556.461L185.057 543.197L157.254 633.733ZM216.39 649.184L293.815 647.218L291.411 552.539L213.986 554.505L216.39 649.184ZM283.306 646.239L342.741 658.98L362.592 566.374L303.157 553.634L283.306 646.239ZM339.847 658.263L346.003 659.995L371.643 568.822L365.487 567.091L339.847 658.263ZM327.662 584.126C325.599 586.044 323.968 587.486 323.196 588.118C322.432 588.745 323.698 587.618 326.033 586.184C326.036 586.182 331.722 582.407 340.062 580.594C343.578 579.83 357.274 577.11 372.212 585.076C391.459 595.341 396.65 613.797 397.158 624.471L302.557 628.977C303.072 639.787 308.311 658.334 327.647 668.645C342.673 676.658 356.497 673.942 360.177 673.143C368.845 671.259 375.004 667.253 375.6 666.887C379.121 664.725 382.051 662.336 383.23 661.37C386.345 658.817 389.712 655.755 392.153 653.486L327.662 584.126ZM397.158 624.471C396.365 607.811 387.446 597.029 382.312 592.178C377.203 587.35 372.206 584.788 369.891 583.69C365.075 581.405 360.89 580.421 359.506 580.102C356.014 579.297 352.811 578.93 351.204 578.76C347.427 578.358 343.115 578.121 339.417 577.963C331.706 577.633 322.794 577.499 316.959 577.47L316.488 672.178C321.67 672.204 329.292 672.326 335.377 672.586C338.577 672.722 340.479 672.862 341.199 672.939C341.842 673.007 340.458 672.904 338.227 672.39C337.474 672.216 333.781 671.385 329.3 669.259C327.153 668.241 322.285 665.76 317.264 661.015C312.218 656.247 303.346 645.551 302.557 628.977L397.158 624.471ZM314.47 577.523L274.561 579.424L279.067 674.026L318.977 672.125L314.47 577.523ZM276.138 579.376L224.438 580.114L225.791 674.814L277.49 674.075L276.138 579.376ZM239.015 582.337C232.916 580.338 223.935 577.344 216.409 574.728C212.597 573.403 209.479 572.286 207.384 571.494C206.277 571.074 205.912 570.918 206.037 570.971C206.056 570.979 206.746 571.272 207.765 571.791C208.272 572.049 209.284 572.576 210.546 573.343C211.421 573.875 214.344 575.663 217.611 578.632L153.903 648.712C157.26 651.763 160.318 653.646 161.371 654.286C162.812 655.161 164.045 655.81 164.814 656.201C166.357 656.986 167.734 657.594 168.587 657.962C170.379 658.733 172.268 659.468 173.861 660.071C177.169 661.323 181.244 662.772 185.316 664.188C193.56 667.053 203.114 670.237 209.518 672.336L239.015 582.337ZM217.61 578.632C214.078 575.42 210.807 573.439 209.828 572.848C208.362 571.963 207.076 571.283 206.235 570.853C204.535 569.983 202.903 569.242 201.705 568.714C199.219 567.618 196.421 566.484 193.897 565.488C188.738 563.454 182.967 561.311 179.13 559.92L146.848 648.957C150.187 650.168 155.082 651.989 159.155 653.595C161.247 654.42 162.705 655.025 163.501 655.376C163.945 655.571 163.71 655.481 163.087 655.162C162.784 655.007 161.956 654.578 160.859 653.915C160.295 653.574 159.436 653.037 158.41 652.319C157.468 651.659 155.812 650.447 153.904 648.712L217.61 578.632ZM188.444 564.586L175.061 555.795L123.063 634.954L136.446 643.745L188.444 564.586ZM175.531 667.621L149.281 668.871L153.788 763.473L180.038 762.222L175.531 667.621ZM101.731 721.178L102.122 729.383L196.724 724.876L196.333 716.672L101.731 721.178ZM123.996 768.375L165.844 796.753L219 718.367L177.152 689.989L123.996 768.375ZM173.697 801.104L216.117 819.847L254.393 733.217L211.973 714.474L173.697 801.104ZM254.393 733.217C256.634 734.207 277.666 743.228 281.843 768.749C286.108 794.804 268.394 810.119 266.337 811.914C261.768 815.901 257.532 817.987 256.351 818.566C254.593 819.427 253.195 819.965 252.536 820.21C250.499 820.966 249.473 821.134 251.165 820.726C253.573 820.146 257.894 819.25 263.768 818.136C275.194 815.968 289.618 813.512 299.516 811.899L284.284 718.423C273.986 720.101 258.671 722.704 246.115 725.086C239.998 726.247 233.768 727.498 228.976 728.653C227.068 729.113 223.28 730.045 219.558 731.428C218.478 731.829 216.726 732.515 214.685 733.515C213.221 734.232 208.773 736.447 204.067 740.554C201.874 742.468 184.097 757.893 188.378 784.048C192.572 809.668 213.698 818.778 216.116 819.847L254.393 733.217ZM292.367 812.482L366.494 812.399L366.387 717.69L292.261 717.773L292.367 812.482ZM382.807 809.642L405.892 801.641L374.875 712.155L351.79 720.156L382.807 809.642ZM413.664 710.643L395.963 700.88L350.221 783.811L367.921 793.574L413.664 710.643ZM382.123 695.737L342.102 687.308L322.583 779.984L362.604 788.413L382.123 695.737ZM335.526 686.398L290.163 683.342L283.796 777.837L329.159 780.893L335.526 686.398ZM239.612 690.164L198.111 671.828L159.835 758.458L201.336 776.794L239.612 690.164ZM729.988 324.72C731.472 323.206 730.635 324.202 723.989 328.99C718.687 332.81 711.764 337.585 704.025 342.803C688.601 353.204 670.965 364.672 658.839 372.431L709.888 452.206C722.428 444.181 740.734 432.279 756.974 421.329C765.067 415.871 772.906 410.477 779.353 405.831C784.457 402.155 792.355 396.39 797.617 391.023L729.988 324.72ZM672.377 366.641L620.075 379.374L642.476 471.395L694.778 458.663L672.377 366.641ZM639.423 378.973L572.123 365.514L553.551 458.385L620.851 471.843L639.423 378.973ZM578.228 451.547L654.721 424.57L623.22 335.253L546.728 362.23L578.228 451.547ZM650.457 425.852L659.05 423.703L636.078 331.822L627.484 333.971L650.457 425.852ZM658.003 423.952C667.899 421.716 682.88 418.257 695.658 415.146C701.991 413.605 708.12 412.067 712.905 410.768C715.215 410.141 717.764 409.422 720.049 408.687C721.102 408.349 722.877 407.76 724.832 406.967C725.764 406.59 727.533 405.847 729.615 404.747C730.316 404.376 736.78 401.152 742.757 394.577L672.677 330.87C676.159 327.039 679.489 324.663 681.047 323.606C682.865 322.373 684.41 321.515 685.352 321.017C687.206 320.037 688.677 319.429 689.244 319.199C689.946 318.914 690.461 318.73 690.679 318.653C690.808 318.608 690.904 318.575 690.962 318.556C691.02 318.537 691.053 318.526 691.056 318.525C691.059 318.524 690.989 318.546 690.833 318.594C690.68 318.64 690.473 318.701 690.205 318.779C689.664 318.935 688.966 319.13 688.1 319.365C684.53 320.334 679.359 321.639 673.257 323.125C661.164 326.069 646.729 329.402 637.125 331.573L658.003 423.952ZM742.757 394.577C740.143 397.452 737.776 399.311 737.148 399.804C736.176 400.567 735.401 401.108 735.033 401.361C734.614 401.649 734.301 401.852 734.149 401.949C733.984 402.055 733.884 402.116 733.868 402.126C733.847 402.138 733.971 402.063 734.287 401.88C734.588 401.705 734.987 401.477 735.493 401.193C737.595 400.012 740.665 398.347 744.366 396.375C751.693 392.473 760.526 387.884 766.856 384.627L723.527 300.41C716.987 303.775 707.717 308.59 699.842 312.785C695.942 314.862 692.136 316.919 689.104 318.623C687.635 319.448 685.981 320.395 684.46 321.325C683.735 321.769 682.612 322.469 681.379 323.316C680.767 323.737 679.787 324.427 678.652 325.318C677.86 325.94 675.37 327.907 672.677 330.87L742.757 394.577ZM718.083 379.491L733.511 392.1L793.447 318.768L778.019 306.159L718.083 379.491ZM650.274 276.558L668.51 293.135L732.216 223.055L713.981 206.478L650.274 276.558ZM673.548 222.988L637.789 247.159L690.827 325.625L726.585 301.454L673.548 222.988ZM645.7 242.901L603.31 260.482L639.594 347.965L681.984 330.384L645.7 242.901ZM609.599 258.377L570.218 268.558L593.925 360.252L633.305 350.071L609.599 258.377ZM619.144 287.846L606.792 268.435L526.89 319.284L539.243 338.695L619.144 287.846ZM586.739 333.529L597.259 329.002L559.822 242.006L549.302 246.533L586.739 333.529ZM587.594 331.92L612.424 327.398L595.453 234.221L570.624 238.744L587.594 331.92ZM637.043 315.251L664.388 290.456L600.77 220.295L573.425 245.09L637.043 315.251ZM647.246 300.148L693.258 286.288L665.941 195.604L619.929 209.464L647.246 300.148ZM758.189 401.207L738.845 424.28L811.42 485.128L830.765 462.056L758.189 401.207ZM755.438 411.932L715.295 429.207L752.731 516.203L792.875 498.928L755.438 411.932ZM721.694 427.01C710.814 429.847 694.517 434.079 680.789 437.603C673.912 439.369 667.76 440.937 663.277 442.059C661.014 442.626 659.311 443.045 658.2 443.31C657.615 443.449 657.399 443.497 657.427 443.491C657.451 443.486 657.527 443.469 657.642 443.445C657.749 443.423 657.96 443.38 658.242 443.326C658.485 443.28 659.022 443.18 659.725 443.072C660.058 443.021 662.021 442.71 664.565 442.588L669.072 537.19C671.659 537.067 673.686 536.748 674.103 536.684C674.89 536.563 675.531 536.445 675.898 536.375C676.648 536.233 677.298 536.093 677.687 536.008C678.518 535.826 679.401 535.619 680.185 535.432C681.809 535.044 683.912 534.525 686.273 533.934C691.04 532.741 697.415 531.116 704.343 529.337C718.226 525.772 734.648 521.509 745.591 518.655L721.694 427.01ZM664.565 442.588C667.033 442.471 669.276 442.605 668.041 442.556C667.965 442.554 667.71 442.542 667.206 442.517C666.232 442.468 664.781 442.389 662.89 442.282C659.133 442.068 653.963 441.76 648.09 441.404C636.361 440.693 622.023 439.8 611.012 439.108L605.072 533.631C616.114 534.325 630.529 535.222 642.357 535.94C648.263 536.298 653.573 536.614 657.51 536.838C659.466 536.949 661.165 537.042 662.459 537.107C663.09 537.139 663.749 537.17 664.342 537.193C664.626 537.205 665.045 537.22 665.51 537.23C665.74 537.236 666.107 537.243 666.547 537.245C666.839 537.246 667.826 537.25 669.072 537.19L664.565 442.588ZM568.189 519.372L580.707 535.732L655.923 478.178L643.404 461.819L568.189 519.372ZM613.813 554.905L650.832 559.83L663.321 465.948L626.302 461.023L613.813 554.905ZM666.172 559.495L719.006 550.103L702.43 456.856L649.596 466.248L666.172 559.495ZM727.328 547.869L775.89 530.224L743.546 441.209L694.984 458.854L727.328 547.869ZM800.19 511.298L809.462 497.626L731.076 444.47L721.805 458.142L800.19 511.298ZM809.462 497.626C814.306 490.482 829.066 466.023 835.083 455.994L753.87 407.269C746.997 418.723 734.032 440.111 731.076 444.47L809.462 497.626ZM839.028 508.696L818.485 508.39L817.076 603.089L837.618 603.394L839.028 508.696ZM799.636 511.999L757.398 529.52L793.687 617.001L835.925 599.48L799.636 511.999ZM771.414 526.215L694.153 531.619L700.76 626.097L778.022 620.694L771.414 526.215ZM682.565 533.824L624.61 552.157L653.175 642.456L711.129 624.123L682.565 533.824ZM621.797 553.146L615.833 555.455L650.024 643.777L655.988 641.468L621.797 553.146ZM603.464 641.684C606.109 643.711 609.753 646.439 613.096 648.685C614.361 649.534 617.506 651.634 621.216 653.452C621.844 653.759 628.356 657.161 637.164 658.213C640.903 658.659 654.922 660.049 669.119 650.643C687.387 638.54 690.84 619.58 690.325 608.77L595.723 613.277C595.214 602.603 598.627 583.737 616.811 571.689C630.925 562.339 644.818 563.745 648.39 564.171C656.864 565.183 662.883 568.401 662.887 568.402C665.348 569.608 666.715 570.609 665.895 570.058C665.067 569.502 663.306 568.222 661.069 566.508L603.464 641.684ZM690.325 608.77C691.114 625.343 683.3 636.834 678.73 642.06C674.182 647.261 669.573 650.193 667.532 651.412C663.274 653.953 659.676 655.132 658.943 655.377C656.771 656.101 655.403 656.335 656.036 656.206C656.746 656.061 658.626 655.741 661.799 655.3C667.831 654.463 675.407 653.618 680.564 653.099L671.091 558.865C665.286 559.449 656.427 560.429 648.781 561.49C645.115 561.999 640.846 562.645 637.124 563.404C635.541 563.727 632.386 564.396 628.987 565.53C627.64 565.979 623.567 567.356 618.99 570.088C616.79 571.402 612.059 574.427 607.432 579.719C602.783 585.036 594.929 596.617 595.723 613.277L690.325 608.77ZM678.081 653.283L717.99 651.382L713.483 556.78L673.574 558.681L678.081 653.283ZM719.565 651.28L771.101 647.101L763.445 552.702L711.909 556.881L719.565 651.28ZM787.064 643.087C793.239 640.389 802.448 636.311 810.381 632.676C814.3 630.88 818.22 629.049 821.393 627.489C822.922 626.737 824.732 625.826 826.443 624.888C827.257 624.441 828.571 623.704 830.032 622.776C830.76 622.313 831.926 621.55 833.277 620.542C834.264 619.805 837.13 617.64 840.181 614.284L770.1 550.577C773.069 547.311 775.81 545.253 776.63 544.641C777.814 543.758 778.771 543.136 779.251 542.831C780.216 542.218 780.875 541.861 780.894 541.851C781.012 541.786 780.664 541.977 779.601 542.499C777.592 543.487 774.594 544.895 770.925 546.577C763.682 549.896 755.026 553.731 749.145 556.3L787.064 643.087ZM840.181 614.284C838.446 616.192 836.912 617.556 836.037 618.303C835.084 619.116 834.28 619.732 833.751 620.125C832.722 620.889 831.939 621.395 831.652 621.577C831.062 621.954 830.837 622.067 831.26 621.83C832.019 621.404 833.413 620.664 835.417 619.644C839.319 617.658 844.018 615.38 847.228 613.857L806.627 528.292C802.941 530.041 797.399 532.724 792.457 535.239C790.039 536.47 787.361 537.865 784.991 539.192C783.849 539.831 782.294 540.724 780.684 541.752C779.888 542.26 778.672 543.059 777.298 544.08C776.379 544.762 773.312 547.044 770.1 550.577L840.181 614.284ZM857.087 607.68L869.574 597.656L810.287 523.799L797.8 533.823L857.087 607.68ZM824.955 729.765L851.205 728.514L846.698 633.912L820.448 635.163L824.955 729.765ZM804.404 685.969L804.795 694.174L899.397 689.667L899.006 681.463L804.404 685.969ZM820.961 657.584L782.001 689.812L842.368 762.789L881.328 730.562L820.961 657.584ZM788.626 685.268L748.18 707.959L794.518 790.558L834.964 767.867L788.626 685.268ZM794.518 790.557C796.824 789.264 816.989 778.187 818.728 752.284C820.503 725.841 801.341 712.175 798.975 710.479C793.9 706.838 789.261 705.055 787.736 704.48C785.61 703.679 783.8 703.163 782.687 702.866C778.851 701.844 774.991 701.276 773.048 701C768.168 700.305 761.847 699.652 755.647 699.078C742.922 697.9 727.428 696.765 717.018 696.073L710.741 790.574C720.747 791.239 735.339 792.313 746.919 793.384C752.872 793.935 757.26 794.416 759.711 794.765C761.435 795.01 760.397 794.941 758.298 794.381C757.619 794.2 756.175 793.798 754.344 793.107C753.113 792.644 748.698 790.97 743.77 787.435C741.553 785.844 722.463 772.282 724.231 745.94C725.964 720.137 746.042 709.158 748.179 707.959L794.518 790.557ZM709.015 696.185L635.217 703.148L644.114 797.439L717.912 790.475L709.015 696.185ZM649.982 704.216L626.241 698.445L603.871 790.475L627.612 796.245L649.982 704.216ZM640.903 778.834L657.595 767.433L604.177 689.226L587.484 700.628L640.903 778.834ZM645.706 773.191L684.744 760.996L656.504 670.595L617.465 682.79L645.706 773.191ZM678.284 762.526L723.151 755.172L707.831 661.71L662.964 669.065L678.284 762.526ZM717.754 755.741L728.163 755.243L723.638 660.642L713.228 661.14L717.754 755.741ZM728.152 755.244L783.06 752.63L778.557 658.028L723.649 660.642L728.152 755.244ZM805.139 746.295L844.709 724.097L798.371 641.498L758.801 663.696L805.139 746.295ZM485.669 831.07L586.914 832.474L588.227 737.774L486.981 736.37L485.669 831.07ZM568.778 747.153L517.015 771.066L556.734 857.044L608.497 833.131L568.778 747.153ZM422.413 845.341L495.409 830.135L476.095 737.416L403.099 752.622L422.413 845.341ZM541.304 767.287L418.614 751.99L406.897 845.972L529.587 861.268L541.304 767.287ZM444.469 721.346L533.692 691.654L503.787 601.79L414.563 631.483L444.469 721.346ZM507.727 692.345L586.092 713.866L611.172 622.538L532.807 601.017L507.727 692.345ZM580.172 629.694L497.635 665.414L535.251 752.332L617.788 716.612L580.172 629.694ZM529.179 663.911L444.128 636.363L414.944 726.464L499.996 754.012L529.179 663.911ZM451.34 594.451L527.098 570.439L498.482 480.156L422.725 504.168L451.34 594.451ZM496.3 569.054L562.917 596.97L599.52 509.62L532.903 481.704L496.3 569.054ZM568.34 512.599L492.388 533.491L517.507 624.809L593.459 603.916L568.34 512.599ZM519.891 534.714L453.469 509.918L420.345 598.646L486.768 623.442L519.891 534.714ZM469.647 495.191C481.995 491.712 501.179 485.627 511.274 482.356L482.084 392.257C472.04 395.511 454.386 401.094 443.963 404.031L469.647 495.191ZM487.88 483.493L543.563 495.732L563.895 403.231L508.212 390.992L487.88 483.493ZM537.358 410.214L483.479 430.569L516.951 519.166L570.83 498.811L537.358 410.214ZM518.505 432.023L476.662 412.109L435.961 497.626L477.805 517.541L518.505 432.023ZM482.405 402.201L507.557 390.171L466.693 304.731L441.541 316.761L482.405 402.201ZM481.914 394.096L518.236 399.303L531.676 305.552L495.353 300.345L481.914 394.096ZM504.819 314.912L474.249 329.971L516.102 414.931L546.672 399.871L504.819 314.912ZM505.53 326.875L474.625 318.639L450.236 410.154L481.141 418.39L505.53 326.875ZM429.165 183.569L464.527 925.872L559.129 921.365L523.767 179.062L429.165 183.569ZM429.082 181.858L464.443 924.136L559.045 919.629L523.684 177.351L429.082 181.858ZM284.726 683.288L219.409 686.4L223.916 781.002L289.233 777.89L284.726 683.288ZM474.249 329.971C483.958 325.188 495.072 324.088 505.53 326.875L481.141 418.39C492.83 421.505 505.251 420.276 516.102 414.931L474.249 329.971ZM441.541 316.761C399.63 336.806 405.345 398.19 450.236 410.154L474.625 318.639C514.791 329.343 519.904 384.266 482.405 402.201L441.541 316.761ZM483.479 430.569C494.866 426.267 507.514 426.792 518.505 432.023L477.805 517.541C490.089 523.387 504.225 523.974 516.951 519.166L483.479 430.569ZM543.563 495.732C500.109 486.181 495.738 425.938 537.358 410.214L570.83 498.811C617.346 481.237 612.461 413.906 563.895 403.231L543.563 495.732ZM511.274 482.356C503.543 484.861 495.455 485.158 487.88 483.493L508.212 390.992C499.724 389.127 490.706 389.464 482.084 392.257L511.274 482.356ZM443.963 404.031C420.863 410.539 409.304 430.422 407.663 447.58C406.01 464.852 413.753 487.057 435.961 497.626L476.662 412.109C496.603 421.599 503.385 441.517 501.941 456.6C500.509 471.569 490.331 489.363 469.647 495.191L443.963 404.031ZM492.388 533.491C501.456 530.997 511.08 531.425 519.891 534.714L486.768 623.442C496.616 627.118 507.372 627.597 517.507 624.809L492.388 533.491ZM562.917 596.97C523.729 580.548 527.372 523.868 568.34 512.599L593.459 603.916C639.247 591.322 643.318 527.973 599.52 509.62L562.917 596.97ZM527.098 570.439C516.992 573.642 506.077 573.151 496.3 569.054L532.903 481.704C521.976 477.125 509.777 476.577 498.482 480.156L527.098 570.439ZM422.725 504.168C377.431 518.524 375.832 582.028 420.345 598.646L453.469 509.918C493.296 524.786 491.865 581.606 451.34 594.451L422.725 504.168ZM497.635 665.414C507.617 661.094 518.832 660.56 529.179 663.911L499.996 754.012C511.561 757.758 524.095 757.161 535.251 752.332L497.635 665.414ZM586.092 713.866C545.361 702.68 541.409 646.47 580.172 629.694L617.788 716.612C661.112 697.863 656.695 635.039 611.172 622.538L586.092 713.866ZM533.692 691.654C525.296 694.448 516.26 694.688 507.727 692.345L532.807 601.017C523.27 598.398 513.171 598.667 503.787 601.79L533.692 691.654ZM414.563 631.483C368.767 646.723 369.028 711.592 414.944 726.464L444.128 636.363C485.211 649.67 485.444 707.71 444.469 721.346L414.563 631.483ZM517.015 771.066C524.599 767.562 533.013 766.253 541.304 767.287L529.587 861.268C538.852 862.424 548.257 860.96 556.734 857.044L517.015 771.066ZM586.914 832.474C539.311 831.814 525.559 767.119 568.778 747.153L608.497 833.131C656.8 810.817 641.431 738.511 588.227 737.774L586.914 832.474ZM486.981 736.37C483.325 736.32 479.674 736.67 476.095 737.416L495.409 830.135C492.206 830.802 488.94 831.116 485.669 831.07L486.981 736.37ZM783.06 752.63C790.812 752.261 798.371 750.092 805.139 746.295L758.801 663.696C764.857 660.299 771.621 658.358 778.557 658.028L783.06 752.63ZM657.595 767.433C653.939 769.93 649.932 771.871 645.706 773.191L617.465 682.79C612.741 684.266 608.263 686.435 604.177 689.226L657.595 767.433ZM626.241 698.445C663.872 707.592 672.882 756.992 640.903 778.834L587.484 700.628C551.744 725.04 561.813 780.251 603.871 790.475L626.241 698.445ZM635.217 703.148C640.163 702.682 645.154 703.042 649.982 704.216L627.612 796.245C633.008 797.557 638.585 797.96 644.114 797.439L635.217 703.148ZM717.018 696.073C714.25 695.889 711.575 695.943 709.015 696.185L717.912 790.475C715.632 790.69 713.229 790.739 710.741 790.574L717.018 696.073ZM782.001 689.812C784.068 688.102 786.286 686.581 788.626 685.268L834.964 767.867C837.579 766.4 840.057 764.701 842.368 762.789L782.001 689.812ZM804.795 694.174C804.125 680.113 810.114 666.557 820.961 657.584L881.328 730.562C893.451 720.533 900.145 705.383 899.397 689.667L804.795 694.174ZM851.205 728.514C826.533 729.689 805.579 710.641 804.404 685.969L899.006 681.463C897.692 653.888 874.273 632.599 846.698 633.912L851.205 728.514ZM820.448 635.163C812.697 635.532 805.138 637.701 798.371 641.498L844.709 724.097C838.653 727.494 831.89 729.434 824.955 729.765L820.448 635.163ZM847.228 613.857C850.822 612.152 854.117 610.063 857.087 607.68L797.8 533.823C800.449 531.696 803.405 529.821 806.627 528.292L847.228 613.857ZM771.101 647.101C776.442 646.668 781.847 645.366 787.064 643.087L749.145 556.3C753.829 554.253 758.682 553.088 763.445 552.702L771.101 647.101ZM615.833 555.455C580.141 569.271 571.942 617.53 603.464 641.684L661.069 566.508C689.364 588.189 681.924 631.428 650.024 643.777L615.833 555.455ZM694.153 531.619C690.217 531.894 686.327 532.634 682.565 533.824L711.129 624.123C707.763 625.188 704.282 625.851 700.76 626.097L694.153 531.619ZM757.398 529.52C761.861 527.668 766.595 526.552 771.414 526.215L778.022 620.694C783.409 620.317 788.699 619.07 793.687 617.001L757.398 529.52ZM837.618 603.394C795.716 602.771 777.607 550.032 810.287 523.799L869.574 597.656C906.099 568.336 885.86 509.393 839.028 508.696L837.618 603.394ZM775.89 530.224C785.78 526.63 794.284 520.007 800.19 511.298L721.805 458.142C727.089 450.35 734.697 444.424 743.546 441.209L775.89 530.224ZM719.006 550.103C721.839 549.599 724.624 548.852 727.328 547.869L694.984 458.854C697.404 457.975 699.895 457.306 702.43 456.856L719.006 550.103ZM650.832 559.83C655.933 560.508 661.107 560.395 666.172 559.495L649.596 466.248C654.129 465.442 658.758 465.341 663.321 465.948L650.832 559.83ZM580.707 535.732C588.763 546.26 600.672 553.157 613.813 554.905L626.302 461.023C638.059 462.587 648.714 468.758 655.923 478.178L580.707 535.732ZM611.012 439.108C567.885 436.398 542.337 485.587 568.189 519.372L643.404 461.819C666.513 492.019 643.694 536.058 605.072 533.631L611.012 439.108ZM715.295 429.207C717.275 428.355 719.415 427.605 721.694 427.01L745.591 518.655C748.127 517.994 750.507 517.16 752.731 516.203L715.295 429.207ZM738.845 424.28C743.335 418.924 749.018 414.695 755.438 411.932L792.875 498.928C800.05 495.841 806.402 491.114 811.42 485.128L738.845 424.28ZM664.388 290.456C659.465 294.92 653.609 298.231 647.246 300.148L619.929 209.464C612.817 211.606 606.272 215.306 600.77 220.295L664.388 290.456ZM612.424 327.398C621.603 325.726 630.131 321.518 637.043 315.251L573.425 245.09C579.61 239.482 587.24 235.717 595.453 234.221L612.424 327.398ZM597.259 329.002C594.158 330.336 590.916 331.315 587.594 331.92L570.624 238.744C566.912 239.42 563.288 240.514 559.822 242.006L597.259 329.002ZM606.792 268.435C621.583 291.678 612.045 322.639 586.739 333.529L549.302 246.533C521.018 258.704 510.358 293.307 526.89 319.284L606.792 268.435ZM570.218 268.558C588.984 263.706 608.738 271.494 619.144 287.846L539.243 338.695C550.873 356.97 572.952 365.675 593.925 360.252L570.218 268.558ZM637.789 247.159C640.276 245.478 642.927 244.051 645.7 242.901L681.984 330.384C685.084 329.098 688.046 327.504 690.827 325.625L637.789 247.159ZM668.51 293.135C647.067 273.642 649.539 239.216 673.548 222.988L726.585 301.454C753.418 283.317 756.182 244.841 732.216 223.055L668.51 293.135ZM713.981 206.478C700.989 194.667 682.753 190.539 665.941 195.604L693.258 286.288C678.216 290.819 661.899 287.126 650.274 276.558L713.981 206.478ZM766.856 384.627C750.874 392.85 731.734 390.648 718.083 379.491L778.019 306.159C762.748 293.678 741.37 291.231 723.527 300.41L766.856 384.627ZM572.123 365.514C616.694 374.428 621.094 436.429 578.228 451.547L546.728 362.23C498.818 379.127 503.736 448.423 553.551 458.385L572.123 365.514ZM620.075 379.374C626.417 377.829 633.022 377.693 639.423 378.973L620.851 471.843C628.005 473.274 635.386 473.121 642.476 471.395L620.075 379.374ZM658.839 372.431C663.177 369.656 667.789 367.758 672.377 366.641L694.778 458.663C699.93 457.409 705.061 455.294 709.888 452.206L658.839 372.431ZM797.617 391.023C808.472 379.951 813.482 364.372 810.948 348.945C808.654 334.981 800.939 324.892 793.447 318.768L733.511 392.1C726.829 386.639 719.643 377.395 717.491 364.297C715.099 349.736 719.865 335.045 729.988 324.72L797.617 391.023ZM201.336 776.794C208.434 779.931 216.164 781.371 223.916 781.002L219.409 686.4C226.344 686.07 233.261 687.358 239.612 690.164L201.336 776.794ZM395.963 700.88C391.63 698.49 386.965 696.757 382.123 695.737L362.604 788.413C358.271 787.5 354.098 785.949 350.221 783.811L395.963 700.88ZM405.892 801.641C446.788 787.466 451.563 731.548 413.664 710.643L367.921 793.574C334.011 774.87 338.284 724.838 374.875 712.155L405.892 801.641ZM366.494 812.399C372.047 812.393 377.56 811.461 382.807 809.642L351.79 720.156C356.485 718.529 361.418 717.695 366.387 717.69L366.494 812.399ZM299.516 811.899C297.055 812.3 294.658 812.48 292.367 812.482L292.261 717.773C289.69 717.776 287.022 717.977 284.284 718.423L299.516 811.899ZM179.13 559.92C182.484 561.136 185.605 562.721 188.444 564.586L136.446 643.745C139.629 645.835 143.108 647.602 146.848 648.957L179.13 559.92ZM380.281 546.074C342.065 552.162 315.162 510.492 335.295 478.231L415.641 528.374C438.165 492.284 408.056 445.747 365.382 452.544L380.281 546.074ZM236.758 449.974C194.614 408.468 123.698 464.115 162.247 515.245L237.872 458.23C272.89 504.678 208.267 554.844 170.301 517.452L236.758 449.974ZM354.777 233.749C348.825 229.305 341.958 226.244 334.675 224.788L316.103 317.658C309.586 316.355 303.442 313.616 298.117 309.64L354.777 233.749ZM361.393 247.107C369.711 247.815 377.665 250.837 384.355 255.832L327.694 331.723C335.171 337.305 344.06 340.683 353.357 341.474L361.393 247.107ZM397.603 251.468C394.011 250.313 390.3 249.568 386.54 249.248L378.504 343.616C375.14 343.329 371.82 342.663 368.606 341.629L397.603 251.468ZM437.732 325.266C451.719 297.835 437.818 264.402 408.506 254.975L379.509 345.136C353.281 336.7 340.844 306.787 353.359 282.243L437.732 325.266ZM374.895 372.421C396.289 375.825 417.44 365.062 427.28 345.763L342.907 302.741C351.712 285.474 370.636 275.843 389.778 278.889L374.895 372.421ZM275.141 347.162C278.087 348.768 281.187 350.074 284.395 351.059L312.199 260.523C315.069 261.404 317.843 262.573 320.479 264.01L275.141 347.162ZM224.188 248.991C202.402 272.957 208.81 310.996 237.246 326.5L282.584 243.348C308.027 257.22 313.761 291.255 294.268 312.698L224.188 248.991ZM310.845 294.463C300.278 306.087 284.386 311.315 268.981 308.235L287.553 215.364C270.336 211.921 252.575 217.764 240.765 230.756L310.845 294.463ZM240.191 325.171C221.557 317.729 200.508 322.197 186.493 336.073L253.128 403.375C240.6 415.78 221.756 419.791 205.065 413.125L240.191 325.171ZM424.415 466.271C473.057 451.619 471.365 382.169 422.067 369.903L399.2 461.811C355.091 450.836 353.577 388.697 397.099 375.587L424.415 466.271ZM337.13 487.676C344.351 488.72 351.713 488.171 358.699 486.066L331.383 395.382C337.634 393.499 344.221 393.008 350.682 393.942L337.13 487.676ZM268.199 474.982C273.297 477.597 278.606 479.215 283.854 479.974L297.406 386.239C302.079 386.915 306.851 388.365 311.432 390.716L268.199 474.982ZM236.071 349.984C247.129 359.3 253.27 373.472 252.273 388.194C251.377 401.437 245.101 411.323 238.969 417.394L172.333 350.092C165.457 356.9 158.736 367.677 157.78 381.796C156.724 397.394 163.192 412.426 175.05 422.416L236.071 349.984ZM433.645 158.491C430.264 165.799 428.699 173.815 429.082 181.858L523.684 177.351C524.026 184.547 522.626 191.719 519.601 198.258L433.645 158.491ZM547.19 162.406C547.954 164.61 548.545 166.871 548.956 169.167L455.731 185.867C456.191 188.434 456.851 190.96 457.704 193.423L547.19 162.406ZM506.914 178.389C497.99 185.427 491.731 195.297 489.17 206.37L581.443 227.713C579.151 237.621 573.551 246.452 565.567 252.75L506.914 178.389ZM565.72 134.819C561.074 136.618 556.722 139.102 552.81 142.187L611.463 216.549C607.963 219.31 604.069 221.532 599.911 223.141L565.72 134.819ZM681.151 160.684C679.527 126.604 644.994 104.131 613.177 116.448L647.368 204.77C618.9 215.79 588.002 195.682 586.549 165.19L681.151 160.684ZM671.108 221.372C678.976 211.796 683.007 199.639 682.417 187.259L587.815 191.766C587.287 180.689 590.894 169.812 597.934 161.244L671.108 221.372ZM651.281 227.293C651.808 238.37 648.202 249.248 641.162 257.815L567.988 197.688C560.119 207.263 556.089 219.42 556.679 231.8L651.281 227.293ZM580.578 240.563C609.039 217.424 651.719 236.498 653.464 273.137L558.863 277.643C560.813 318.592 608.515 339.91 640.324 314.049L580.578 240.563ZM624.221 209.487C618.302 211.387 612.789 214.374 607.966 218.296L667.712 291.783C663.396 295.291 658.463 297.964 653.167 299.664L624.221 209.487ZM713.313 204.225C700.239 193.841 682.844 190.67 666.947 195.772L695.893 285.95C681.67 290.515 666.106 287.678 654.408 278.387L713.313 204.225ZM752.298 314.504C778.095 294.706 778.418 255.935 752.953 235.71L694.049 309.872C671.266 291.776 671.554 257.087 694.636 239.372L752.298 314.504ZM710.963 335.315C708.302 344.447 702.799 352.493 695.254 358.284L637.591 283.152C629.158 289.624 623.008 298.617 620.034 308.824L710.963 335.315ZM641.118 330.796C674.897 321.363 705.895 352.71 696.085 386.381L605.156 359.89C594.192 397.523 628.837 432.558 666.591 422.015L641.118 330.796ZM688.661 318.315C691.142 317.093 693.732 316.103 696.396 315.359L721.869 406.579C724.847 405.747 727.741 404.641 730.514 403.275L688.661 318.315ZM781.63 307.815C766.435 294.002 744.338 290.887 725.918 299.962L767.771 384.921C751.289 393.041 731.518 390.254 717.923 377.895L781.63 307.815ZM805.281 385.608C818.38 365.173 814.963 338.116 796.823 321.626L733.116 391.707C716.889 376.955 713.842 352.758 725.546 334.499L805.281 385.608ZM721.872 427.22C750.339 416.2 781.238 436.308 782.691 466.8L688.089 471.307C689.712 505.386 724.246 527.859 756.063 515.542L721.872 427.22ZM735.74 427.68C740.567 421.986 746.743 417.592 753.704 414.897L787.896 503.219C795.676 500.208 802.578 495.296 807.974 488.933L735.74 427.68ZM836.009 668.342C849.685 663.385 860.523 652.716 865.694 639.12L777.172 605.45C781.799 593.285 791.496 583.739 803.732 579.303L836.009 668.342ZM792.757 668.06C788.031 679.926 778.458 689.205 766.45 693.558L734.172 604.519C720.752 609.384 710.052 619.755 704.77 633.017L792.757 668.06ZM822.145 633.341C813.84 633.736 805.765 636.197 798.652 640.5L847.672 721.537C841.307 725.387 834.082 727.589 826.652 727.943L822.145 633.341ZM900.657 679.643C899.343 652.068 875.924 630.779 848.349 632.092L852.856 726.694C828.184 727.87 807.23 708.822 806.055 684.149L900.657 679.643ZM887.81 762.536C898.018 752.553 903.469 738.682 902.79 724.42L808.188 728.927C807.58 716.167 812.458 703.755 821.591 694.824L887.81 762.536ZM684.483 930.407C691.151 928.725 697.401 925.685 702.84 921.478L644.898 846.562C649.765 842.797 655.357 840.078 661.323 838.573L684.483 930.407ZM503.435 878.391C530.837 871.481 557.7 891.401 559.045 919.629L464.443 924.136C465.946 955.685 495.97 977.949 526.595 970.225L503.435 878.391ZM433.372 160.989C430.236 168.087 428.796 175.818 429.165 183.569L523.767 179.062C524.097 185.998 522.808 192.915 520.002 199.265L433.372 160.989ZM496.245 193.853C494.267 201.99 490.044 209.409 484.056 215.264L417.838 147.552C411.146 154.096 406.426 162.388 404.216 171.483L496.245 193.853ZM394.64 262.632C386.093 257.122 379.679 248.863 376.456 239.218L466.282 209.2C462.68 198.421 455.511 189.19 445.959 183.032L394.64 262.632ZM367.673 238.197C359.879 237.791 352.326 235.352 345.767 231.123L397.086 151.523C389.754 146.796 381.313 144.07 372.602 143.616L367.673 238.197ZM365.973 188.868C367.232 215.298 345.396 237.036 318.972 235.659L323.901 141.079C294.368 139.539 269.963 163.836 271.371 193.375L365.973 188.868ZM353.721 174.617C361.544 182.477 366.168 192.963 366.695 204.039L272.093 208.546C272.683 220.926 277.851 232.645 286.594 241.429L353.721 174.617ZM401.496 240.932C400.907 228.553 395.739 216.834 386.996 208.049L319.869 274.861C312.046 267.001 307.422 256.516 306.895 245.439L401.496 240.932ZM326.049 330.76C360.172 353.481 405.631 327.725 403.68 286.775L309.078 291.282C307.333 254.643 348.007 231.599 378.538 251.927L326.049 330.76ZM311.896 317.662C306.463 316.473 301.298 314.281 296.668 311.198L349.158 232.365C343.983 228.92 338.212 226.47 332.139 225.141L311.896 317.662ZM308.638 296.599C297.877 306.96 282.653 311.264 268.06 308.071L288.302 215.55C271.992 211.982 254.978 216.792 242.951 228.372L308.638 296.599ZM264.884 261.584C289.545 277.024 293.13 311.53 272.17 331.71L206.482 263.482C183.056 286.036 187.062 324.601 214.625 341.858L264.884 261.584ZM345.75 323.63C341.82 313.752 334.842 305.385 325.832 299.743L275.573 380.017C267.511 374.969 261.268 367.483 257.751 358.645L345.75 323.63ZM149.281 668.871C121.706 670.185 100.417 693.604 101.731 721.178L196.333 716.672C197.508 741.344 178.46 762.298 153.788 763.473L149.281 668.871ZM254.871 401.694C242.512 415.289 223.095 419.943 205.916 413.427L239.504 324.874C220.304 317.591 198.603 322.792 184.79 337.987L254.871 401.694ZM180.038 762.222C173.103 762.553 166.186 761.264 159.835 758.458L198.111 671.828C191.013 668.692 183.283 667.251 175.531 667.621L180.038 762.222ZM243.156 359.219C256.543 376.283 255.81 400.66 241.059 416.887L170.979 353.18C154.489 371.32 153.659 398.579 168.641 417.676L243.156 359.219ZM229.988 542.344C262.832 551.58 295.073 525.926 293.449 491.846L198.848 496.353C197.395 465.861 226.242 442.907 255.628 451.171L229.988 542.344ZM224.438 580.114C229.215 580.046 234.157 580.745 239.015 582.337L209.518 672.336C214.928 674.109 220.432 674.89 225.791 674.814L224.438 580.114ZM175.783 520.79C181.759 526.611 189.097 530.844 197.128 533.102L222.769 441.93C229.954 443.951 236.52 447.738 241.867 452.947L175.783 520.79ZM222.668 489.678C207.823 514.421 173.78 518.839 153.111 498.706L219.195 430.862C196.094 408.36 158.046 413.298 141.455 440.952L222.668 489.678ZM204.91 460.02C217.382 474.636 219.125 495.584 209.24 512.06L128.026 463.334C116.978 481.748 118.926 505.161 132.865 521.496L204.91 460.02ZM239.91 502.967C242.777 505.045 245.387 507.456 247.686 510.15L175.641 571.626C178.21 574.636 181.127 577.331 184.332 579.654L239.91 502.967ZM346.003 659.995C313.073 650.734 301.557 608.399 327.662 584.126L392.153 653.486C421.236 626.444 408.486 579.184 371.643 568.822L346.003 659.995ZM287.689 647.531C334.885 645.283 352.902 584.857 314.643 557.129L259.065 633.816C224.833 609.007 240.954 554.941 283.182 552.929L287.689 647.531ZM198.235 647.943C204.441 650.189 211.03 651.183 217.622 650.869L213.115 556.267C219.013 555.986 224.908 556.876 230.461 558.885L198.235 647.943ZM175.294 635.433C169.228 636.103 163.088 635.525 157.254 633.733L185.057 543.197C178.537 541.194 171.675 540.548 164.895 541.297L175.294 635.433ZM188.596 610.347C201.199 613.6 211.759 622.18 217.522 633.85L132.601 675.783C139.042 688.826 150.844 698.417 164.929 702.052L188.596 610.347ZM850.765 485.557C863.087 467.97 862.801 444.478 850.052 427.198L773.839 483.423C762.432 467.962 762.176 446.943 773.202 431.208L850.765 485.557ZM145.018 543.493C98.4626 548.635 83.9148 609.238 123.063 634.954L175.061 555.795C210.088 578.804 197.072 633.028 155.417 637.629L145.018 543.493ZM292.216 654.41C285.698 641.71 274.06 632.404 260.238 628.836L236.571 720.541C224.204 717.349 213.791 709.022 207.959 697.659L292.216 654.41ZM805.06 548.343C808.029 545.727 810.677 542.767 812.948 539.526L735.385 485.177C737.417 482.277 739.786 479.628 742.443 477.287L805.06 548.343ZM276.476 778.501C312.789 776.771 335.168 738.088 318.567 705.746L234.31 748.995C219.456 720.058 239.479 685.447 271.97 683.899L276.476 778.501ZM704.116 531.137C746.345 529.125 767.532 581.414 735.814 609.365L673.197 538.308C637.747 569.548 661.427 627.987 708.623 625.739L704.116 531.137ZM233.647 467.235C242.762 469.594 250.899 474.77 256.9 482.025L183.923 542.391C190.63 550.499 199.725 556.284 209.912 558.921L233.647 467.235ZM199.894 776.108C207.385 779.716 215.657 781.398 223.962 781.002L219.455 686.401C226.886 686.047 234.287 687.552 240.989 690.779L199.894 776.108ZM890.112 574.923C902.917 541.258 876.99 505.51 841.013 507.224L845.52 601.826C813.33 603.359 790.133 571.375 801.59 541.253L890.112 574.923ZM324.389 495.707C330.669 485.644 340.689 478.488 352.245 475.814L373.602 568.083C386.517 565.094 397.716 557.096 404.735 545.85L324.389 495.707ZM181.8 727.042C191.741 735.065 197.776 746.957 198.384 759.717L103.782 764.224C104.462 778.485 111.207 791.775 122.318 800.742L181.8 727.042ZM757.165 532.054C762.501 529.526 768.285 528.08 774.183 527.799L778.69 622.401C785.282 622.087 791.747 620.471 797.711 617.646L757.165 532.054ZM276.065 478.902C278.631 479.11 281.174 479.538 283.667 480.184L259.931 571.87C262.717 572.591 265.56 573.071 268.428 573.303L276.065 478.902ZM179.91 760.492C172.48 760.846 165.079 759.341 158.377 756.113L199.471 670.784C191.981 667.177 183.708 665.495 175.404 665.89L179.91 760.492ZM293.815 647.218C290.286 647.308 286.758 646.979 283.306 646.239L303.157 553.634C299.299 552.807 295.356 552.439 291.411 552.539L293.815 647.218ZM174.099 635.551C168.201 635.832 162.306 634.942 156.754 632.933L188.979 543.875C182.773 541.63 176.184 540.635 169.592 540.949L174.099 635.551ZM165.844 796.753C168.326 798.436 170.954 799.892 173.697 801.104L211.973 714.474C214.427 715.559 216.779 716.862 219 718.367L165.844 796.753ZM310.164 440.734C348.749 447.64 379.907 409.471 365.415 373.051L277.416 408.066C264.45 375.479 292.328 341.328 326.851 347.507L310.164 440.734ZM231.633 542.762C233.938 543.504 236.387 544.107 238.974 544.524L254.052 451.023C256.377 451.398 258.578 451.941 260.63 452.601L231.633 542.762ZM518.236 399.303C474.711 393.063 465.374 334.343 504.819 314.912L546.672 399.871C590.757 378.154 580.322 312.526 531.676 305.552L518.236 399.303ZM355.007 854.905C361.09 855.836 366.914 858.012 372.117 861.296L321.559 941.382C327.374 945.053 333.884 947.484 340.682 948.525L355.007 854.905ZM315.861 484.235C320.346 483.197 324.964 482.858 329.552 483.229L321.916 577.63C327.044 578.044 332.205 577.665 337.218 576.505L315.861 484.235ZM196.251 714.939C197.426 739.612 178.378 760.565 153.706 761.741L149.199 667.139C121.624 668.452 100.335 691.871 101.649 719.446L196.251 714.939ZM200.448 646.998C205.609 648.583 210.993 649.321 216.39 649.184L213.986 554.505C218.816 554.383 223.633 555.043 228.251 556.461L200.448 646.998ZM187.112 572.266C201.38 601.162 181.329 635.207 149.138 636.74L144.632 542.138C108.655 543.852 86.2441 581.903 102.191 614.198L187.112 572.266ZM102.122 729.383C102.871 745.099 110.975 759.544 123.996 768.375L177.152 689.989C188.803 697.89 196.054 710.815 196.724 724.876L102.122 729.383ZM244.749 428.156C247.64 429.252 250.626 430.078 253.669 430.623L270.355 337.395C273.078 337.882 275.75 338.621 278.336 339.602L244.749 428.156ZM759.223 664.352C765.588 660.501 772.812 658.3 780.243 657.946L784.75 752.547C793.054 752.152 801.129 749.691 808.243 745.388L759.223 664.352ZM170.301 517.452C175.838 522.905 182.575 526.984 189.972 529.364L218.97 439.203C225.659 441.354 231.752 445.043 236.758 449.974L170.301 517.452ZM507.557 390.171C499.585 393.984 490.662 395.35 481.914 394.096L495.353 300.345C485.576 298.943 475.603 300.47 466.693 304.731L507.557 390.171ZM501.64 973.154C532.861 977.931 560.632 952.914 559.129 921.365L464.527 925.872C463.183 897.643 488.031 875.26 515.965 879.534L501.64 973.154Z" fill="#362626" mask="url(#path-1-outside-1_389_369)"/>
</svg>
