<svg width="400" height="400" viewBox="0 0 400 400" fill="none" xmlns="http://www.w3.org/2000/svg">
<mask id="path-1-outside-1_389_369" maskUnits="userSpaceOnUse" x="38" y="16" width="323" height="374" fill="black">
<rect fill="white" x="38" y="16" width="323" height="374"/>
<path d="M138.586 360.312C138.708 360.389 138.846 360.441 138.989 360.463L203.372 370.314C204.029 370.415 204.614 369.888 204.582 369.224L190.437 72.3028C190.429 72.1396 190.46 71.9769 190.526 71.8275L197.961 55L180.23 72.3399C180.089 72.4776 179.989 72.6522 179.943 72.8436L172.743 102.462L168.398 89.4602C168.323 89.2333 168.172 89.039 167.971 88.9094L148.421 76.3057C148.267 76.2062 148.089 76.1489 147.906 76.1393L128.425 75.1241C127.804 75.0917 127.29 75.6032 127.319 76.2249L127.609 82.2936C127.621 82.5542 127.73 82.8009 127.914 82.9858L141.224 96.3586C141.408 96.5435 141.517 96.7902 141.529 97.0508L142.403 115.388C142.444 116.25 141.487 116.793 140.768 116.314L129.016 108.489C128.907 108.417 128.786 108.365 128.658 108.337L111.123 104.501C110.78 104.426 110.422 104.527 110.169 104.771L95.581 118.815C95.0879 119.29 95.1722 120.102 95.7524 120.465L120.132 135.729C120.321 135.847 120.468 136.024 120.551 136.231L128.417 156C128.722 156.767 128.066 157.57 127.254 157.425L104.656 153.38C104.592 153.369 104.529 153.351 104.468 153.328L88.9347 147.437C88.5305 147.283 88.0738 147.393 87.783 147.713L82.2583 153.79C81.9105 154.173 81.891 154.749 82.2101 155.156C87.5434 161.954 97.2947 176.1 97.6522 183.605L98.3102 197.417C98.3443 198.134 97.6657 198.674 96.9743 198.48L83.8301 194.783C83.6611 194.736 83.5066 194.646 83.3808 194.524L74.3118 185.69C73.8256 185.216 73.0247 185.32 72.6754 185.902L67.3039 194.855C67.0713 195.243 67.1123 195.736 67.4057 196.08L84.5161 216.132C84.5702 216.195 84.6316 216.252 84.6991 216.301L114.593 237.966C115.398 238.549 115.019 239.821 114.025 239.869L85.9981 241.204C85.8593 241.211 85.7206 241.19 85.59 241.142L68.9972 235.138C68.8666 235.091 68.7279 235.07 68.5891 235.077L58.6046 235.552C57.8473 235.588 57.3756 236.389 57.7113 237.069L69.8754 261.703C70.0109 261.978 70.2594 262.18 70.5559 262.256L99.2126 269.652C99.5036 269.727 99.7486 269.923 99.8858 270.19L110.426 290.725C110.776 291.406 110.305 292.22 109.54 292.256L88.5341 293.257C88.3593 293.265 88.1852 293.23 88.0275 293.154L71.4203 285.156C71.2626 285.08 71.0885 285.045 70.9137 285.053L60.4317 285.552C59.8512 285.58 59.4031 286.073 59.4308 286.653L60.284 304.565C60.2983 304.865 60.4403 305.145 60.6742 305.333L79.8402 320.802L102.91 337.79L138.586 360.312Z"/>
<path d="M269.398 353.385C269.284 353.473 269.152 353.537 269.012 353.573L205.857 369.5C205.212 369.663 204.58 369.194 204.548 368.53L190.404 71.6182C190.396 71.4489 190.429 71.2802 190.5 71.1264L197.961 55L200.788 70.7834C200.798 70.8374 200.812 70.8906 200.83 70.9424L210.884 99.9496L213.973 86.5933C214.027 86.3602 214.159 86.1524 214.347 86.0043L232.705 71.5238C232.788 71.4588 232.879 71.4065 232.977 71.3687L251.96 64.02C252.63 63.7608 253.357 64.2338 253.391 64.9512L253.897 75.5816C253.91 75.8421 253.825 76.0981 253.659 76.2996L241.681 90.8772C241.515 91.0787 241.43 91.3346 241.443 91.5952L242.316 109.933C242.357 110.795 243.361 111.244 244.031 110.699L254.986 101.792C255.088 101.71 255.204 101.647 255.328 101.607L272.419 96.121C272.754 96.0136 273.12 96.0804 273.395 96.2989L289.251 108.893C289.787 109.319 289.781 110.135 289.238 110.552L266.42 128.064C266.242 128.2 266.113 128.389 266.05 128.604L260.099 149.031C259.868 149.823 260.597 150.561 261.392 150.339L283.504 144.164C283.566 144.147 283.627 144.123 283.686 144.095L298.589 136.753C298.976 136.562 299.441 136.628 299.761 136.918L305.839 142.443C306.221 142.791 306.295 143.363 306.016 143.798C301.354 151.072 292.991 166.082 293.349 173.586L294.007 187.398C294.041 188.115 294.768 188.588 295.438 188.329L308.171 183.4C308.335 183.337 308.48 183.233 308.593 183.099L317.641 172.429L324.629 181.901C324.897 182.265 324.903 182.759 324.644 183.129L309.517 204.717C309.47 204.785 309.414 204.848 309.351 204.903L281.653 229.311C280.906 229.969 281.405 231.199 282.398 231.152L310.426 229.817C310.564 229.81 310.7 229.776 310.826 229.716L326.963 222.072L337.158 221.587C337.915 221.55 338.461 222.303 338.191 223.012L328.424 248.691C328.315 248.977 328.087 249.201 327.799 249.306L299.975 259.392C299.693 259.494 299.467 259.713 299.356 259.992L290.211 282.954L312.849 281.875C313.024 281.867 313.194 281.815 313.344 281.724L329.115 272.184C329.265 272.093 329.435 272.042 329.61 272.033L340.092 271.534C340.672 271.506 341.165 271.954 341.193 272.535L342.046 290.446C342.061 290.746 341.946 291.038 341.731 291.248L324.122 308.469L302.771 327.573L269.398 353.385Z"/>
<path d="M116.103 173.019C115.988 173.003 115.88 172.969 115.777 172.916C105.355 167.569 85.3766 157.038 82.075 154.257C81.7549 153.987 81.8137 153.568 82.1111 153.274L87.775 147.666C88.0724 147.372 88.5133 147.28 88.9019 147.436C94.2787 149.583 104.033 153.548 104.592 154.056C105.174 154.585 121.184 156.744 129.116 157.757L132.62 158.286L164.105 166.119C165.142 166.378 165.178 167.84 164.154 168.148L137.867 176.066C137.72 176.111 137.565 176.122 137.413 176.1L116.103 173.019Z"/>
<path d="M103.817 113.746C103.218 113.42 103.083 112.619 103.542 112.115L110.173 104.82C110.421 104.547 110.795 104.424 111.158 104.496L130.006 108.266C130.16 108.296 130.304 108.361 130.429 108.454L142.261 117.287C142.418 117.405 142.605 117.476 142.801 117.493L152.86 118.349C152.939 118.356 153.017 118.372 153.092 118.396L157.454 119.799C158.071 119.997 158.363 120.701 158.069 121.278L153.888 129.477C153.681 129.884 153.236 130.11 152.786 130.039L136.718 127.482L119.17 122.093C119.102 122.072 119.037 122.045 118.975 122.011L103.817 113.746Z"/>
<path d="M81.6392 193.49C81.4976 193.444 81.3687 193.366 81.2627 193.262V193.262C80.4271 192.439 79.1685 193.535 79.8746 194.472C81.5894 196.746 83.081 198.694 83.8037 199.568L88.0155 204.66C88.1567 204.83 88.3481 204.952 88.5626 205.008L108.57 210.187C108.629 210.203 108.689 210.213 108.749 210.217L130.144 211.948C130.252 211.957 130.361 211.949 130.466 211.925L145.02 208.556C145.292 208.493 145.528 208.325 145.676 208.088L150.038 201.097C150.516 200.332 149.875 199.358 148.984 199.5C140.255 200.891 126.221 203.113 125.713 203.137C125.159 203.163 107.362 200.322 98.4559 198.886C98.4035 198.878 98.354 198.866 98.3034 198.849L81.6392 193.49Z"/>
<path d="M68.3131 235.163C68.1758 235.12 68.0314 235.107 67.8886 235.123L59.9374 236.001C58.9574 236.109 58.6512 237.385 59.4752 237.926L64.8288 241.443C64.8975 241.488 64.9692 241.524 65.0464 241.552C67.9168 242.593 73.5796 244.724 74.1536 245.245C74.729 245.768 84.5565 249.072 89.5574 250.711C89.6678 250.747 89.7802 250.764 89.8965 250.762L110.576 250.467L126.54 249.706C130.947 249.728 139.767 249.911 139.794 250.466C139.815 250.902 142.012 248.974 143.814 247.299C144.409 246.745 144.163 245.76 143.38 245.54L140.917 244.847L117.143 239.751C117.062 239.734 116.979 239.726 116.896 239.728L85.9261 240.514C85.8125 240.517 85.6991 240.502 85.5905 240.468L68.3131 235.163Z"/>
<path d="M59.4636 287.346C59.4359 286.766 59.884 286.273 60.4645 286.245L70.9647 285.745C71.1279 285.737 71.2906 285.768 71.44 285.834L88.0403 293.168C88.1897 293.234 88.3524 293.265 88.5156 293.257L114.643 292.012L132.788 293.235L148.796 296.606C148.898 296.628 148.996 296.664 149.088 296.715L156.168 300.62C156.966 301.06 156.865 302.237 156.004 302.536L146.77 305.736C146.66 305.775 146.544 305.794 146.427 305.794L116.776 305.828C116.72 305.828 116.666 305.832 116.611 305.841C108.533 307.157 92.8195 309.889 93.9527 310.389L76.9848 302.892C76.9271 302.867 76.8717 302.836 76.8195 302.801L60.0804 291.449C59.8063 291.263 59.6357 290.959 59.6199 290.629L59.4636 287.346Z"/>
<path d="M273.282 164.837C273.395 164.81 273.498 164.767 273.596 164.704C283.463 158.39 302.35 146.008 305.372 142.925C305.665 142.626 305.567 142.215 305.242 141.95L299.071 136.906C298.747 136.642 298.3 136.593 297.927 136.784C292.779 139.433 283.446 144.307 282.938 144.866C282.409 145.448 266.676 149.119 258.876 150.882L255.439 151.741L224.841 162.532C223.833 162.888 223.936 164.347 224.985 164.556L251.906 169.94C252.056 169.97 252.212 169.967 252.361 169.93L273.282 164.837Z"/>
<path d="M279.878 104.665C280.442 104.283 280.501 103.473 279.996 103.015L272.702 96.3837C272.428 96.1351 272.045 96.0482 271.691 96.1548L253.286 101.699C253.136 101.744 252.998 101.822 252.882 101.927L241.944 111.845C241.799 111.977 241.619 112.065 241.426 112.1L231.494 113.909C231.416 113.924 231.34 113.947 231.267 113.978L227.059 115.789C226.463 116.045 226.239 116.773 226.587 117.32L231.528 125.085C231.773 125.47 232.238 125.653 232.679 125.539L248.431 121.466L265.388 114.433C265.453 114.406 265.515 114.373 265.574 114.333L279.878 104.665Z"/>
<path d="M309.513 181.949C309.664 181.884 309.798 181.784 309.904 181.658L317.641 172.429C315.064 176.726 309.518 185.895 307.958 188.196L304.25 193.665C304.125 193.848 303.946 193.987 303.738 194.063L284.313 201.121C284.256 201.142 284.198 201.158 284.138 201.168L263.004 204.925C262.898 204.944 262.789 204.946 262.682 204.932L247.874 202.962C247.597 202.925 247.346 202.78 247.177 202.559L242.169 196.014C241.621 195.298 242.166 194.268 243.067 194.324C251.888 194.879 266.07 195.756 266.578 195.732C267.132 195.706 284.579 191.186 293.308 188.91C293.359 188.896 293.407 188.88 293.456 188.859L309.513 181.949Z"/>
<path d="M326.963 222.072L335.18 222.195C336.166 222.209 336.592 223.45 335.823 224.067L330.828 228.077C330.764 228.128 330.696 228.171 330.622 228.206C327.863 229.515 322.429 232.175 321.907 232.749C321.384 233.324 311.915 237.547 307.093 239.654C306.986 239.701 306.876 239.728 306.76 239.737L286.146 241.409L270.182 242.169C265.797 242.61 257.034 243.631 257.06 244.186C257.081 244.622 254.71 242.911 252.757 241.415C252.112 240.92 252.264 239.916 253.022 239.623L255.408 238.699L278.59 231.366C278.669 231.341 278.751 231.325 278.833 231.32L309.738 229.158C309.851 229.15 309.963 229.124 310.068 229.081L326.963 222.072Z"/>
<path d="M340.533 273.263C340.505 272.682 340.012 272.234 339.432 272.262L328.931 272.762C328.768 272.77 328.609 272.815 328.467 272.895L312.639 281.775C312.496 281.855 312.337 281.9 312.174 281.908L290.211 282.954L286.047 283.153L268.1 286.095L252.485 290.973C252.385 291.004 252.291 291.05 252.205 291.108L245.528 295.669C244.776 296.183 244.988 297.345 245.873 297.56L255.37 299.869C255.483 299.896 255.601 299.905 255.717 299.894L285.236 297.109C285.292 297.103 285.346 297.102 285.403 297.106C293.569 297.649 309.471 298.874 308.39 299.48L324.569 290.404C324.624 290.373 324.676 290.337 324.724 290.297L340.309 277.406C340.564 277.195 340.705 276.876 340.689 276.545L340.533 273.263Z"/>
<path d="M235.306 315.833C236.323 315.364 235.999 313.842 234.88 313.826L194.381 313.265C194.304 313.264 194.227 313.271 194.152 313.287L164.953 319.369L214.029 325.488C214.224 325.512 214.422 325.481 214.6 325.399L235.306 315.833Z"/>
<path d="M207.958 258.449C207.757 258.394 207.544 258.4 207.347 258.465L171.657 270.343C170.693 270.663 170.698 272.029 171.665 272.342L205.686 283.361C205.929 283.44 206.193 283.428 206.428 283.326L239.443 269.038C240.355 268.643 240.262 267.321 239.304 267.057L207.958 258.449Z"/>
<path d="M205.691 209.928C205.461 209.832 205.205 209.82 204.967 209.896L174.663 219.5C173.71 219.803 173.676 221.139 174.613 221.489L201.183 231.408C201.39 231.485 201.616 231.495 201.83 231.437L232.211 223.08C233.175 222.814 233.261 221.481 232.339 221.095L205.691 209.928Z"/>
<path d="M199.069 174.674C198.886 174.634 198.7 174.642 198.523 174.699C194.495 176.004 187.127 178.338 182.572 179.621C181.606 179.893 181.468 181.292 182.375 181.723L199.113 189.689C199.371 189.813 199.669 189.825 199.937 189.724L221.489 181.581C222.468 181.211 222.365 179.794 221.343 179.569L199.069 174.674Z"/>
<path d="M195.304 138.665C195.098 138.635 194.888 138.667 194.701 138.757L184.64 143.569C183.757 143.991 183.878 145.283 184.823 145.535L197.185 148.83C197.431 148.895 197.693 148.869 197.921 148.757L210.149 142.733C211.077 142.276 210.858 140.894 209.834 140.748L195.304 138.665Z"/>
</mask>
<path d="M138.586 360.312C138.708 360.389 138.846 360.441 138.989 360.463L203.372 370.314C204.029 370.415 204.614 369.888 204.582 369.224L190.437 72.3028C190.429 72.1396 190.46 71.9769 190.526 71.8275L197.961 55L180.23 72.3399C180.089 72.4776 179.989 72.6522 179.943 72.8436L172.743 102.462L168.398 89.4602C168.323 89.2333 168.172 89.039 167.971 88.9094L148.421 76.3057C148.267 76.2062 148.089 76.1489 147.906 76.1393L128.425 75.1241C127.804 75.0917 127.29 75.6032 127.319 76.2249L127.609 82.2936C127.621 82.5542 127.73 82.8009 127.914 82.9858L141.224 96.3586C141.408 96.5435 141.517 96.7902 141.529 97.0508L142.403 115.388C142.444 116.25 141.487 116.793 140.768 116.314L129.016 108.489C128.907 108.417 128.786 108.365 128.658 108.337L111.123 104.501C110.78 104.426 110.422 104.527 110.169 104.771L95.581 118.815C95.0879 119.29 95.1722 120.102 95.7524 120.465L120.132 135.729C120.321 135.847 120.468 136.024 120.551 136.231L128.417 156C128.722 156.767 128.066 157.57 127.254 157.425L104.656 153.38C104.592 153.369 104.529 153.351 104.468 153.328L88.9347 147.437C88.5305 147.283 88.0738 147.393 87.783 147.713L82.2583 153.79C81.9105 154.173 81.891 154.749 82.2101 155.156C87.5434 161.954 97.2947 176.1 97.6522 183.605L98.3102 197.417C98.3443 198.134 97.6657 198.674 96.9743 198.48L83.8301 194.783C83.6611 194.736 83.5066 194.646 83.3808 194.524L74.3118 185.69C73.8256 185.216 73.0247 185.32 72.6754 185.902L67.3039 194.855C67.0713 195.243 67.1123 195.736 67.4057 196.08L84.5161 216.132C84.5702 216.195 84.6316 216.252 84.6991 216.301L114.593 237.966C115.398 238.549 115.019 239.821 114.025 239.869L85.9981 241.204C85.8593 241.211 85.7206 241.19 85.59 241.142L68.9972 235.138C68.8666 235.091 68.7279 235.07 68.5891 235.077L58.6046 235.552C57.8473 235.588 57.3756 236.389 57.7113 237.069L69.8754 261.703C70.0109 261.978 70.2594 262.18 70.5559 262.256L99.2126 269.652C99.5036 269.727 99.7486 269.923 99.8858 270.19L110.426 290.725C110.776 291.406 110.305 292.22 109.54 292.256L88.5341 293.257C88.3593 293.265 88.1852 293.23 88.0275 293.154L71.4203 285.156C71.2626 285.08 71.0885 285.045 70.9137 285.053L60.4317 285.552C59.8512 285.58 59.4031 286.073 59.4308 286.653L60.284 304.565C60.2983 304.865 60.4403 305.145 60.6742 305.333L79.8402 320.802L102.91 337.79L138.586 360.312Z" fill="#563F3F"/>
<path d="M269.398 353.385C269.284 353.473 269.152 353.537 269.012 353.573L205.857 369.5C205.212 369.663 204.58 369.194 204.548 368.53L190.404 71.6182C190.396 71.4489 190.429 71.2802 190.5 71.1264L197.961 55L200.788 70.7834C200.798 70.8374 200.812 70.8906 200.83 70.9424L210.884 99.9496L213.973 86.5933C214.027 86.3602 214.159 86.1524 214.347 86.0043L232.705 71.5238C232.788 71.4588 232.879 71.4065 232.977 71.3687L251.96 64.02C252.63 63.7608 253.357 64.2338 253.391 64.9512L253.897 75.5816C253.91 75.8421 253.825 76.0981 253.659 76.2996L241.681 90.8772C241.515 91.0787 241.43 91.3346 241.443 91.5952L242.316 109.933C242.357 110.795 243.361 111.244 244.031 110.699L254.986 101.792C255.088 101.71 255.204 101.647 255.328 101.607L272.419 96.121C272.754 96.0136 273.12 96.0804 273.395 96.2989L289.251 108.893C289.787 109.319 289.781 110.135 289.238 110.552L266.42 128.064C266.242 128.2 266.113 128.389 266.05 128.604L260.099 149.031C259.868 149.823 260.597 150.561 261.392 150.339L283.504 144.164C283.566 144.147 283.627 144.123 283.686 144.095L298.589 136.753C298.976 136.562 299.441 136.628 299.761 136.918L305.839 142.443C306.221 142.791 306.295 143.363 306.016 143.798C301.354 151.072 292.991 166.082 293.349 173.586L294.007 187.398C294.041 188.115 294.768 188.588 295.438 188.329L308.171 183.4C308.335 183.337 308.48 183.233 308.593 183.099L317.641 172.429L324.629 181.901C324.897 182.265 324.903 182.759 324.644 183.129L309.517 204.717C309.47 204.785 309.414 204.848 309.351 204.903L281.653 229.311C280.906 229.969 281.405 231.199 282.398 231.152L310.426 229.817C310.564 229.81 310.7 229.776 310.826 229.716L326.963 222.072L337.158 221.587C337.915 221.55 338.461 222.303 338.191 223.012L328.424 248.691C328.315 248.977 328.087 249.201 327.799 249.306L299.975 259.392C299.693 259.494 299.467 259.713 299.356 259.992L290.211 282.954L312.849 281.875C313.024 281.867 313.194 281.815 313.344 281.724L329.115 272.184C329.265 272.093 329.435 272.042 329.61 272.033L340.092 271.534C340.672 271.506 341.165 271.954 341.193 272.535L342.046 290.446C342.061 290.746 341.946 291.038 341.731 291.248L324.122 308.469L302.771 327.573L269.398 353.385Z" fill="#563F3F"/>
<path d="M116.103 173.019C115.988 173.003 115.88 172.969 115.777 172.916C105.355 167.569 85.3766 157.038 82.075 154.257C81.7549 153.987 81.8137 153.568 82.1111 153.274L87.775 147.666C88.0724 147.372 88.5133 147.28 88.9019 147.436C94.2787 149.583 104.033 153.548 104.592 154.056C105.174 154.585 121.184 156.744 129.116 157.757L132.62 158.286L164.105 166.119C165.142 166.378 165.178 167.84 164.154 168.148L137.867 176.066C137.72 176.111 137.565 176.122 137.413 176.1L116.103 173.019Z" fill="#705151"/>
<path d="M103.817 113.746C103.218 113.42 103.083 112.619 103.542 112.115L110.173 104.82C110.421 104.547 110.795 104.424 111.158 104.496L130.006 108.266C130.16 108.296 130.304 108.361 130.429 108.454L142.261 117.287C142.418 117.405 142.605 117.476 142.801 117.493L152.86 118.349C152.939 118.356 153.017 118.372 153.092 118.396L157.454 119.799C158.071 119.997 158.363 120.701 158.069 121.278L153.888 129.477C153.681 129.884 153.236 130.11 152.786 130.039L136.718 127.482L119.17 122.093C119.102 122.072 119.037 122.045 118.975 122.011L103.817 113.746Z" fill="#705151"/>
<path d="M81.6392 193.49C81.4976 193.444 81.3687 193.366 81.2627 193.262V193.262C80.4271 192.439 79.1685 193.535 79.8746 194.472C81.5894 196.746 83.081 198.694 83.8037 199.568L88.0155 204.66C88.1567 204.83 88.3481 204.952 88.5626 205.008L108.57 210.187C108.629 210.203 108.689 210.213 108.749 210.217L130.144 211.948C130.252 211.957 130.361 211.949 130.466 211.925L145.02 208.556C145.292 208.493 145.528 208.325 145.676 208.088L150.038 201.097C150.516 200.332 149.875 199.358 148.984 199.5C140.255 200.891 126.221 203.113 125.713 203.137C125.159 203.163 107.362 200.322 98.4559 198.886C98.4035 198.878 98.354 198.866 98.3034 198.849L81.6392 193.49Z" fill="#705151"/>
<path d="M68.3131 235.163C68.1758 235.12 68.0314 235.107 67.8886 235.123L59.9374 236.001C58.9574 236.109 58.6512 237.385 59.4752 237.926L64.8288 241.443C64.8975 241.488 64.9692 241.524 65.0464 241.552C67.9168 242.593 73.5796 244.724 74.1536 245.245C74.729 245.768 84.5565 249.072 89.5574 250.711C89.6678 250.747 89.7802 250.764 89.8965 250.762L110.576 250.467L126.54 249.706C130.947 249.728 139.767 249.911 139.794 250.466C139.815 250.902 142.012 248.974 143.814 247.299C144.409 246.745 144.163 245.76 143.38 245.54L140.917 244.847L117.143 239.751C117.062 239.734 116.979 239.726 116.896 239.728L85.9261 240.514C85.8125 240.517 85.6991 240.502 85.5905 240.468L68.3131 235.163Z" fill="#705151"/>
<path d="M59.4636 287.346C59.4359 286.766 59.884 286.273 60.4645 286.245L70.9647 285.745C71.1279 285.737 71.2906 285.768 71.44 285.834L88.0403 293.168C88.1897 293.234 88.3524 293.265 88.5156 293.257L114.643 292.012L132.788 293.235L148.796 296.606C148.898 296.628 148.996 296.664 149.088 296.715L156.168 300.62C156.966 301.06 156.865 302.237 156.004 302.536L146.77 305.736C146.66 305.775 146.544 305.794 146.427 305.794L116.776 305.828C116.72 305.828 116.666 305.832 116.611 305.841C108.533 307.157 92.8195 309.889 93.9527 310.389L76.9848 302.892C76.9271 302.867 76.8717 302.836 76.8195 302.801L60.0804 291.449C59.8063 291.263 59.6357 290.959 59.6199 290.629L59.4636 287.346Z" fill="#705151"/>
<path d="M273.282 164.837C273.395 164.81 273.498 164.767 273.596 164.704C283.463 158.39 302.35 146.008 305.372 142.925C305.665 142.626 305.567 142.215 305.242 141.95L299.071 136.906C298.747 136.642 298.3 136.593 297.927 136.784C292.779 139.433 283.446 144.307 282.938 144.866C282.409 145.448 266.676 149.119 258.876 150.882L255.439 151.741L224.841 162.532C223.833 162.888 223.936 164.347 224.985 164.556L251.906 169.94C252.056 169.97 252.212 169.967 252.361 169.93L273.282 164.837Z" fill="#705151"/>
<path d="M279.878 104.665C280.442 104.283 280.501 103.473 279.996 103.015L272.702 96.3837C272.428 96.1351 272.045 96.0482 271.691 96.1548L253.286 101.699C253.136 101.744 252.998 101.822 252.882 101.927L241.944 111.845C241.799 111.977 241.619 112.065 241.426 112.1L231.494 113.909C231.416 113.924 231.34 113.947 231.267 113.978L227.059 115.789C226.463 116.045 226.239 116.773 226.587 117.32L231.528 125.085C231.773 125.47 232.238 125.653 232.679 125.539L248.431 121.466L265.388 114.433C265.453 114.406 265.515 114.373 265.574 114.333L279.878 104.665Z" fill="#705151"/>
<path d="M309.513 181.949C309.664 181.884 309.798 181.784 309.904 181.658L317.641 172.429C315.064 176.726 309.518 185.895 307.958 188.196L304.25 193.665C304.125 193.848 303.946 193.987 303.738 194.063L284.313 201.121C284.256 201.142 284.198 201.158 284.138 201.168L263.004 204.925C262.898 204.944 262.789 204.946 262.682 204.932L247.874 202.962C247.597 202.925 247.346 202.78 247.177 202.559L242.169 196.014C241.621 195.298 242.166 194.268 243.067 194.324C251.888 194.879 266.07 195.756 266.578 195.732C267.132 195.706 284.579 191.186 293.308 188.91C293.359 188.896 293.407 188.88 293.456 188.859L309.513 181.949Z" fill="#705151"/>
<path d="M326.963 222.072L335.18 222.195C336.166 222.209 336.592 223.45 335.823 224.067L330.828 228.077C330.764 228.128 330.696 228.171 330.622 228.206C327.863 229.515 322.429 232.175 321.907 232.749C321.384 233.324 311.915 237.547 307.093 239.654C306.986 239.701 306.876 239.728 306.76 239.737L286.146 241.409L270.182 242.169C265.797 242.61 257.034 243.631 257.06 244.186C257.081 244.622 254.71 242.911 252.757 241.415C252.112 240.92 252.264 239.916 253.022 239.623L255.408 238.699L278.59 231.366C278.669 231.341 278.751 231.325 278.833 231.32L309.738 229.158C309.851 229.15 309.963 229.124 310.068 229.081L326.963 222.072Z" fill="#705151"/>
<path d="M340.533 273.263C340.505 272.682 340.012 272.234 339.432 272.262L328.931 272.762C328.768 272.77 328.609 272.815 328.467 272.895L312.639 281.775C312.496 281.855 312.337 281.9 312.174 281.908L290.211 282.954L286.047 283.153L268.1 286.095L252.485 290.973C252.385 291.004 252.291 291.05 252.205 291.108L245.528 295.669C244.776 296.183 244.988 297.345 245.873 297.56L255.37 299.869C255.483 299.896 255.601 299.905 255.717 299.894L285.236 297.109C285.292 297.103 285.346 297.102 285.403 297.106C293.569 297.649 309.471 298.874 308.39 299.48L324.569 290.404C324.624 290.373 324.676 290.337 324.724 290.297L340.309 277.406C340.564 277.195 340.705 276.876 340.689 276.545L340.533 273.263Z" fill="#705151"/>
<path d="M235.306 315.833C236.323 315.364 235.999 313.842 234.88 313.826L194.381 313.265C194.304 313.264 194.227 313.271 194.152 313.287L164.953 319.369L214.029 325.488C214.224 325.512 214.422 325.481 214.6 325.399L235.306 315.833Z" fill="#705151"/>
<path d="M207.958 258.449C207.757 258.394 207.544 258.4 207.347 258.465L171.657 270.343C170.693 270.663 170.698 272.029 171.665 272.342L205.686 283.361C205.929 283.44 206.193 283.428 206.428 283.326L239.443 269.038C240.355 268.643 240.262 267.321 239.304 267.057L207.958 258.449Z" fill="#705151"/>
<path d="M205.691 209.928C205.461 209.832 205.205 209.82 204.967 209.896L174.663 219.5C173.71 219.803 173.676 221.139 174.613 221.489L201.183 231.408C201.39 231.485 201.616 231.495 201.83 231.437L232.211 223.08C233.175 222.814 233.261 221.481 232.339 221.095L205.691 209.928Z" fill="#705151"/>
<path d="M199.069 174.674C198.886 174.634 198.7 174.642 198.523 174.699C194.495 176.004 187.127 178.338 182.572 179.621C181.606 179.893 181.468 181.292 182.375 181.723L199.113 189.689C199.371 189.813 199.669 189.825 199.937 189.724L221.489 181.581C222.468 181.211 222.365 179.794 221.343 179.569L199.069 174.674Z" fill="#705151"/>
<path d="M195.304 138.665C195.098 138.635 194.888 138.667 194.701 138.757L184.64 143.569C183.757 143.991 183.878 145.283 184.823 145.535L197.185 148.83C197.431 148.895 197.693 148.869 197.921 148.757L210.149 142.733C211.077 142.276 210.858 140.894 209.834 140.748L195.304 138.665Z" fill="#705151"/>
<path d="M163.762 105.464L168.224 118.816L186.187 112.814L181.725 99.4609L163.762 105.464ZM201.658 97.8156L198.485 111.532L216.937 115.8L220.11 102.084L201.658 97.8156ZM165.888 328.847L166.884 328.64L163.022 310.098L162.026 310.306L165.888 328.847ZM102.91 337.79L91.6804 353.04L92.2266 353.443L92.8001 353.805L102.91 337.79ZM79.8402 320.802L67.9455 335.54L68.2722 335.804L68.6102 336.053L79.8402 320.802ZM97.6522 183.605L78.7344 184.506L78.7344 184.506L97.6522 183.605ZM172.743 102.462L154.781 108.465L175.618 170.82L191.147 106.936L172.743 102.462ZM197.961 55L216.603 51.6603L210.295 16.4475L184.719 41.4594L197.961 55ZM302.771 327.573L314.358 342.554L314.895 342.139L315.4 341.687L302.771 327.573ZM324.122 308.469L336.751 322.583L337.064 322.303L337.364 322.009L324.122 308.469ZM326.963 222.072L326.062 203.154L322.76 203.312L319.706 204.578L326.963 222.072ZM317.641 172.429L332.882 161.186L318.675 141.927L303.197 160.18L317.641 172.429ZM293.349 173.586L274.431 174.488L274.431 174.488L293.349 173.586ZM210.884 99.9496L192.989 106.152L214.52 168.271L229.336 104.218L210.884 99.9496ZM132.62 158.286L137.193 139.907L136.328 139.692L135.446 139.559L132.62 158.286ZM129.116 157.757L131.943 139.03L131.73 138.998L131.516 138.971L129.116 157.757ZM104.592 154.056L91.8525 168.07L104.592 154.056ZM136.718 127.482L131.158 145.587L132.429 145.977L133.741 146.186L136.718 127.482ZM125.713 203.137L126.614 222.055L125.713 203.137ZM83.8037 199.568L69.2102 211.64L69.2102 211.64L83.8037 199.568ZM140.917 244.847L146.045 226.615L145.47 226.454L144.887 226.329L140.917 244.847ZM139.794 250.466L120.876 251.367L139.794 250.466ZM126.54 249.706L126.635 230.767L126.136 230.765L125.639 230.788L126.54 249.706ZM110.576 250.467L110.847 269.404L111.162 269.4L111.478 269.385L110.576 250.467ZM74.1536 245.245L86.8934 231.231L86.8932 231.231L74.1536 245.245ZM93.9527 310.389L86.2984 327.713L101.607 293.066L93.9527 310.389ZM132.788 293.235L136.691 274.702L135.389 274.428L134.061 274.338L132.788 293.235ZM114.643 292.012L115.916 273.116L114.829 273.043L113.741 273.094L114.643 292.012ZM255.439 151.741L250.845 133.367L249.98 133.584L249.14 133.88L255.439 151.741ZM258.876 150.882L254.701 132.408L254.491 132.456L254.283 132.508L258.876 150.882ZM282.938 144.866L296.952 157.605L282.938 144.866ZM248.431 121.466L253.172 139.802L254.459 139.47L255.687 138.96L248.431 121.466ZM266.578 195.732L265.677 176.814L266.578 195.732ZM307.958 188.196L323.633 198.825L323.633 198.825L307.958 188.196ZM255.408 238.699L249.696 220.642L249.127 220.822L248.57 221.037L255.408 238.699ZM257.06 244.186L238.143 245.087L257.06 244.186ZM270.182 242.169L269.28 223.252L268.783 223.275L268.287 223.325L270.182 242.169ZM286.146 241.409L287.047 260.327L287.362 260.312L287.676 260.286L286.146 241.409ZM321.907 232.749L307.893 220.009L307.893 220.009L321.907 232.749ZM308.39 299.48L299.124 282.962L317.657 315.997L308.39 299.48ZM268.1 286.095L265.037 267.405L263.723 267.62L262.453 268.017L268.1 286.095ZM286.047 283.153L285.142 264.235L284.056 264.287L282.983 264.463L286.047 283.153ZM164.953 319.369L161.091 300.828L162.61 338.163L164.953 319.369ZM197.921 148.757L189.552 131.767L197.921 148.757ZM197.185 148.83L192.308 167.13L197.185 148.83ZM184.64 143.569L192.811 160.655L184.64 143.569ZM184.823 145.535L179.946 163.836L184.823 145.535ZM199.937 189.724L193.243 172.007L199.937 189.724ZM199.113 189.689L207.252 172.588L199.113 189.689ZM221.343 179.569L225.409 161.072L221.343 179.569ZM221.489 181.581L228.182 199.298L221.489 181.581ZM198.523 174.699L204.36 192.716L198.523 174.699ZM199.069 174.674L203.135 156.176L199.069 174.674ZM182.572 179.621L177.436 161.392L182.572 179.621ZM182.375 181.723L190.514 164.622L182.375 181.723ZM201.83 231.437L206.853 249.698L201.83 231.437ZM201.183 231.408L194.559 249.151L201.183 231.408ZM232.339 221.095L225.019 238.562L232.339 221.095ZM232.211 223.08L227.188 204.819L232.211 223.08ZM204.967 209.896L210.689 227.95L204.967 209.896ZM205.691 209.928L198.372 227.396L205.691 209.928ZM174.663 219.5L168.941 201.446L174.663 219.5ZM174.613 221.489L181.237 203.746L174.613 221.489ZM206.428 283.326L213.95 300.707L206.428 283.326ZM205.686 283.361L211.522 265.343L205.686 283.361ZM239.304 267.057L234.289 285.321L239.304 267.057ZM239.443 269.038L231.921 251.656L239.443 269.038ZM207.347 258.465L201.366 240.495L207.347 258.465ZM207.958 258.449L202.942 276.712L207.958 258.449ZM171.665 272.342L177.501 254.324L171.665 272.342ZM214.6 325.399L206.658 308.205L206.658 308.205L214.6 325.399ZM214.029 325.488L216.372 306.694L214.029 325.488ZM234.88 313.826L234.617 332.763L234.88 313.826ZM235.306 315.833L227.364 298.64L235.306 315.833ZM194.381 313.265L194.643 294.327L194.381 313.265ZM194.152 313.287L190.289 294.745L194.152 313.287ZM312.174 281.908L313.075 300.826L312.174 281.908ZM312.639 281.775L303.372 265.257L312.639 281.775ZM252.205 291.108L241.523 275.469L252.205 291.108ZM252.485 290.973L258.132 309.051L252.485 290.973ZM245.873 297.56L241.4 315.964L245.873 297.56ZM245.528 295.669L256.21 311.308L245.528 295.669ZM255.717 299.894L257.496 318.749L255.717 299.894ZM255.37 299.869L250.896 318.272L255.37 299.869ZM285.403 297.106L284.147 316.004L285.403 297.106ZM285.236 297.109L283.457 278.253L285.236 297.109ZM324.724 290.297L336.796 304.89L324.724 290.297ZM324.569 290.404L315.302 273.886L324.569 290.404ZM340.309 277.406L328.237 262.812L340.309 277.406ZM339.432 272.262L338.53 253.344L339.432 272.262ZM340.533 273.263L359.451 272.362L340.533 273.263ZM328.931 272.762L329.833 291.68L328.931 272.762ZM328.467 272.895L319.2 256.378L328.467 272.895ZM330.622 228.206L322.503 211.096L330.622 228.206ZM330.828 228.077L318.972 213.308L330.828 228.077ZM306.76 239.737L308.291 258.614L306.76 239.737ZM307.093 239.654L314.675 257.009L307.093 239.654ZM253.022 239.623L246.185 221.961L253.022 239.623ZM252.757 241.415L241.238 256.448L252.757 241.415ZM278.833 231.32L280.155 250.213L278.833 231.32ZM278.59 231.366L284.302 249.423L278.59 231.366ZM310.068 229.081L302.811 211.587L310.068 229.081ZM309.738 229.158L311.059 248.051L309.738 229.158ZM335.18 222.195L334.898 241.132L335.18 222.195ZM303.738 194.063L297.27 176.263L303.738 194.063ZM304.25 193.665L319.925 204.294L304.25 193.665ZM284.138 201.168L287.453 219.815L284.138 201.168ZM284.313 201.121L290.781 218.922L284.313 201.121ZM262.682 204.932L265.179 186.158L262.682 204.932ZM263.004 204.925L266.319 223.572L263.004 204.925ZM247.177 202.559L232.136 214.068L247.177 202.559ZM247.874 202.962L245.376 221.736L247.874 202.962ZM243.067 194.324L241.879 213.226L243.067 194.324ZM242.169 196.014L257.21 184.505L242.169 196.014ZM293.456 188.859L285.97 171.462L293.456 188.859ZM293.308 188.91L298.086 207.236L293.308 188.91ZM309.904 181.658L324.417 193.826L309.904 181.658ZM309.513 181.949L302.027 164.552L309.513 181.949ZM252.882 101.927L265.604 115.957L252.882 101.927ZM253.286 101.699L247.823 83.5645L253.286 101.699ZM241.426 112.1L238.033 93.4677L241.426 112.1ZM241.944 111.845L229.223 97.8144L241.944 111.845ZM231.267 113.978L238.753 131.375L231.267 113.978ZM231.494 113.909L228.101 95.2765L231.494 113.909ZM226.587 117.32L242.565 107.152L226.587 117.32ZM227.059 115.789L234.545 133.186L227.059 115.789ZM232.679 125.539L227.939 107.202L232.679 125.539ZM231.528 125.085L247.506 114.917L231.528 125.085ZM265.574 114.333L276.18 130.024L265.574 114.333ZM265.388 114.433L258.132 96.9392L265.388 114.433ZM279.996 103.015L267.256 117.029L279.996 103.015ZM279.878 104.665L290.484 120.356L279.878 104.665ZM272.702 96.3837L259.962 110.398L272.702 96.3837ZM271.691 96.1548L277.153 114.289L271.691 96.1548ZM297.927 136.784L306.592 153.625L297.927 136.784ZM299.071 136.906L311.057 122.242L299.071 136.906ZM224.841 162.532L218.542 144.671L218.542 144.671L224.841 162.532ZM252.361 169.93L247.881 151.528L252.361 169.93ZM251.906 169.94L248.192 188.511L251.906 169.94ZM273.596 164.704L263.388 148.751L273.596 164.704ZM273.282 164.837L277.762 183.239L273.282 164.837ZM305.372 142.925L318.896 156.184L305.372 142.925ZM305.242 141.95L317.228 127.286L317.228 127.286L305.242 141.95ZM88.0403 293.168L80.3861 310.492L88.0403 293.168ZM88.5156 293.257L89.4168 312.175L88.5156 293.257ZM149.088 296.715L139.94 313.299L149.088 296.715ZM148.796 296.606L152.699 278.074L148.796 296.606ZM156.004 302.536L149.802 284.641L156.004 302.536ZM156.168 300.62L165.315 284.036L156.168 300.62ZM146.427 305.794L146.406 286.855L146.427 305.794ZM146.77 305.736L152.973 323.631L146.77 305.736ZM116.611 305.841L113.565 287.148L116.611 305.841ZM116.776 305.828L116.755 286.888L116.776 305.828ZM65.0464 241.552L58.5907 259.357L65.0464 241.552ZM64.8288 241.443L54.4307 257.272L64.8288 241.443ZM148.984 199.5L151.963 218.204L148.984 199.5ZM79.8746 194.472L94.9974 183.07L79.8746 194.472ZM130.429 108.454L119.099 123.63L130.429 108.454ZM130.006 108.266L133.72 89.6941L130.006 108.266ZM142.801 117.493L141.194 136.364L142.801 117.493ZM142.261 117.287L153.591 102.111L142.261 117.287ZM153.092 118.396L147.294 136.426L153.092 118.396ZM152.86 118.349L151.253 137.22L152.86 118.349ZM158.069 121.278L141.197 112.675L158.069 121.278ZM157.454 119.799L151.655 137.828L157.454 119.799ZM152.786 130.039L149.809 148.743L152.786 130.039ZM153.888 129.477L170.761 138.081L153.888 129.477ZM118.975 122.011L109.908 138.639L118.975 122.011ZM119.17 122.093L124.729 103.988L119.17 122.093ZM103.542 112.115L117.556 124.854L103.542 112.115ZM103.817 113.746L94.7503 130.374L103.817 113.746ZM110.173 104.82L124.187 117.56L110.173 104.82ZM111.158 104.496L114.872 85.9247L111.158 104.496ZM88.9019 147.436L95.9262 129.847L88.9019 147.436ZM87.775 147.666L74.4498 134.208L87.775 147.666ZM164.154 168.148L158.692 150.014L164.154 168.148ZM164.105 166.119L159.532 184.498L164.105 166.119ZM137.413 176.1L140.123 157.356L137.413 176.1ZM137.867 176.066L132.405 157.932L137.867 176.066ZM115.777 172.916L124.423 156.065L115.777 172.916ZM116.103 173.019L113.393 191.764L116.103 173.019ZM82.075 154.257L69.8723 168.741L82.075 154.257ZM82.1111 153.274L68.7859 139.815L82.1111 153.274ZM190.5 71.1264L173.311 63.174L190.5 71.1264ZM190.404 71.6182L171.486 72.5194L190.404 71.6182ZM200.83 70.9424L218.725 64.7399L200.83 70.9424ZM200.788 70.7834L219.431 67.4436L200.788 70.7834ZM214.347 86.0043L226.076 100.875L214.347 86.0043ZM213.973 86.5933L195.521 82.3252L213.973 86.5933ZM232.977 71.3687L239.814 89.0307L232.977 71.3687ZM232.705 71.5238L220.976 56.6535L232.705 71.5238ZM253.391 64.9512L272.309 64.05L253.391 64.9512ZM251.96 64.02L245.123 46.358L245.123 46.358L251.96 64.02ZM253.659 76.2996L239.026 64.2757L253.659 76.2996ZM253.897 75.5816L234.979 76.4828L253.897 75.5816ZM241.443 91.5952L222.525 92.4965L241.443 91.5952ZM241.681 90.8772L256.314 102.901L241.681 90.8772ZM244.031 110.699L232.083 96.0039L244.031 110.699ZM242.316 109.933L223.398 110.834L242.316 109.933ZM255.328 101.607L261.117 119.64L255.328 101.607ZM254.986 101.792L243.039 87.097L254.986 101.792ZM273.395 96.2989L261.616 111.13L273.395 96.2989ZM272.419 96.121L266.631 78.088L272.419 96.121ZM289.238 110.552L277.707 95.5272L289.238 110.552ZM289.251 108.893L277.472 123.724L289.251 108.893ZM266.05 128.604L247.867 123.307L266.05 128.604ZM266.42 128.064L254.889 113.039L266.42 128.064ZM261.392 150.339L266.486 168.58L261.392 150.339ZM260.099 149.031L278.282 154.329L260.099 149.031ZM283.686 144.095L275.316 127.105L283.686 144.095ZM283.504 144.164L278.41 125.923L283.504 144.164ZM299.761 136.918L287.022 150.933L299.761 136.918ZM298.589 136.753L290.219 119.764L298.589 136.753ZM306.016 143.798L290.072 133.577L306.016 143.798ZM305.839 142.443L293.099 156.457L305.839 142.443ZM295.438 188.329L302.275 205.991L295.438 188.329ZM294.007 187.398L312.925 186.497L294.007 187.398ZM308.593 183.099L294.149 170.85L308.593 183.099ZM308.171 183.4L315.008 201.062L308.171 183.4ZM327.799 249.306L334.254 267.111L327.799 249.306ZM328.424 248.691L346.126 255.424L328.424 248.691ZM299.356 259.992L281.761 252.984L299.356 259.992ZM299.975 259.392L306.43 277.198L299.975 259.392ZM329.61 272.033L328.709 253.115L329.61 272.033ZM329.115 272.184L338.918 288.389L329.115 272.184ZM341.193 272.535L322.275 273.436L341.193 272.535ZM340.092 271.534L340.993 290.452L340.092 271.534ZM341.731 291.248L354.973 304.789L341.731 291.248ZM342.046 290.446L323.129 291.347L342.046 290.446ZM269.012 353.573L273.643 371.937L269.012 353.573ZM269.398 353.385L257.811 338.403L269.398 353.385ZM205.857 369.5L201.225 351.136L205.857 369.5ZM204.548 368.53L223.466 367.629L204.548 368.53ZM190.526 71.8275L207.849 79.4817L190.526 71.8275ZM190.437 72.3028L171.519 73.204L190.437 72.3028ZM179.943 72.8436L198.346 77.317L179.943 72.8436ZM180.23 72.3399L193.472 85.8805L180.23 72.3399ZM167.971 88.9094L157.708 104.827L167.971 88.9094ZM168.398 89.4602L186.361 83.4574L168.398 89.4602ZM147.906 76.1393L146.92 95.0529L147.906 76.1393ZM148.421 76.3057L138.159 92.2236L148.421 76.3057ZM127.319 76.2249L146.237 75.3237L127.319 76.2249ZM128.425 75.1241L127.44 94.0377L128.425 75.1241ZM127.914 82.9858L114.49 96.3463L127.914 82.9858ZM127.609 82.2936L146.526 81.3924L127.609 82.2936ZM141.529 97.0508L122.611 97.952L141.529 97.0508ZM141.224 96.3586L127.8 109.719L141.224 96.3586ZM140.768 116.314L151.265 100.55L140.768 116.314ZM142.403 115.388L123.485 116.29L142.403 115.388ZM128.658 108.337L132.706 89.8355L128.658 108.337ZM129.016 108.489L118.52 124.254L129.016 108.489ZM110.169 104.771L123.304 118.414L110.169 104.771ZM111.123 104.501L115.171 85.9991L111.123 104.501ZM95.7524 120.465L85.702 136.517L95.7524 120.465ZM95.581 118.815L82.4453 105.171L95.581 118.815ZM120.551 136.231L138.148 129.229L120.551 136.231ZM120.132 135.729L130.182 119.676L120.132 135.729ZM60.4645 286.245L59.5633 267.328L60.4645 286.245ZM59.4636 287.346L78.3814 286.445L59.4636 287.346ZM87.783 147.713L101.797 160.452L87.783 147.713ZM88.9347 147.437L95.6512 129.728L88.9347 147.437ZM70.9647 285.745L70.0635 266.827L70.9647 285.745ZM71.44 285.834L63.7858 303.157L71.44 285.834ZM82.2101 155.156L97.1111 143.466L82.2101 155.156ZM82.2583 153.79L96.2724 166.53L82.2583 153.79ZM96.9743 198.48L102.102 180.248L96.9743 198.48ZM89.8965 250.762L89.626 231.825L89.8965 250.762ZM89.5574 250.711L95.4558 232.714L89.5574 250.711ZM83.3808 194.524L96.5959 180.957L83.3808 194.524ZM83.8301 194.783L78.7028 213.015L83.8301 194.783ZM72.6754 185.902L56.4349 176.159L72.6754 185.902ZM74.3118 185.69L61.0968 199.257L74.3118 185.69ZM67.4057 196.08L81.8128 183.786L67.4057 196.08ZM67.3039 194.855L51.0634 185.112L51.0634 185.112L67.3039 194.855ZM84.6991 216.301L73.585 231.636L84.6991 216.301ZM84.5161 216.132L98.9232 203.838L84.5161 216.132ZM143.38 245.54L148.508 227.308L143.38 245.54ZM143.814 247.299L130.918 233.429L143.814 247.299ZM114.025 239.869L114.927 258.787L114.025 239.869ZM114.593 237.966L103.479 253.301L114.593 237.966ZM85.59 241.142L92.0342 223.333L85.59 241.142ZM85.9981 241.204L86.8993 260.122L85.9981 241.204ZM67.8886 235.123L65.8091 216.298L67.8886 235.123ZM68.3131 235.163L62.7532 253.267L68.3131 235.163ZM70.5559 262.256L75.2886 243.918L70.5559 262.256ZM69.8754 261.703L52.8936 270.089L69.8754 261.703ZM324.644 183.129L340.155 193.998L324.644 183.129ZM324.629 181.901L339.87 170.657L324.629 181.901ZM59.9374 236.001L62.0169 254.826L59.9374 236.001ZM59.4752 237.926L49.0771 253.756L59.4752 237.926ZM99.8858 270.19L116.735 261.542L99.8858 270.19ZM99.2126 269.652L103.945 251.314L99.2126 269.652ZM309.351 204.903L321.873 219.112L309.351 204.903ZM309.517 204.717L294.007 193.849L309.517 204.717ZM109.54 292.256L108.639 273.339L109.54 292.256ZM282.398 231.152L281.497 212.234L282.398 231.152ZM281.653 229.311L269.131 215.102L281.653 229.311ZM88.5626 205.008L83.8161 223.343L88.5626 205.008ZM88.0155 204.66L102.609 192.588L88.0155 204.66ZM88.0275 293.154L79.8097 310.218L88.0275 293.154ZM88.5341 293.257L89.4354 312.175L88.5341 293.257ZM338.191 223.012L355.893 229.745L338.191 223.012ZM337.158 221.587L336.256 202.669L337.158 221.587ZM145.676 208.088L129.608 198.061L145.676 208.088ZM145.02 208.556L140.749 190.105L145.02 208.556ZM60.6742 305.333L48.7795 320.072L60.6742 305.333ZM60.284 304.565L41.3662 305.466L60.284 304.565ZM310.826 229.716L302.718 212.601L310.826 229.716ZM310.426 229.817L311.327 248.734L310.426 229.817ZM108.749 210.217L107.222 229.095L108.749 210.217ZM108.57 210.187L113.317 191.852L108.57 210.187ZM70.9137 285.053L70.0125 266.135L70.9137 285.053ZM71.4203 285.156L63.2025 302.22L71.4203 285.156ZM116.896 239.728L117.377 258.661L116.896 239.728ZM117.143 239.751L113.174 258.27L117.143 239.751ZM68.5891 235.077L69.4904 253.995L68.5891 235.077ZM68.9972 235.138L62.553 252.948L68.9972 235.138ZM76.8195 302.801L66.1898 318.476L76.8195 302.801ZM76.9848 302.892L69.3306 320.216L76.9848 302.892ZM127.254 157.425L123.917 176.068L127.254 157.425ZM128.417 156L146.014 148.998L128.417 156ZM98.3034 198.849L92.5048 216.879L92.5048 216.879L98.3034 198.849ZM98.4559 198.886L95.4409 217.584L98.4559 198.886ZM209.834 140.748L212.521 122L209.834 140.748ZM210.149 142.733L218.519 159.723L210.149 142.733ZM138.989 360.463L136.124 379.184L138.989 360.463ZM138.586 360.312L148.696 344.297L138.586 360.312ZM130.466 211.925L126.196 193.473L130.466 211.925ZM130.144 211.948L128.617 230.826L130.144 211.948ZM59.4308 286.653L40.5129 287.555L59.4308 286.653ZM60.4317 285.552L59.5305 266.635L60.4317 285.552ZM85.5905 240.468L91.1504 222.364L85.5905 240.468ZM85.9261 240.514L85.4454 221.581L85.9261 240.514ZM57.7113 237.069L74.693 228.684L57.7113 237.069ZM58.6046 235.552L57.7034 216.635L57.7034 216.635L58.6046 235.552ZM59.6199 290.629L40.7021 291.53L59.6199 290.629ZM60.0804 291.449L70.7101 275.774L60.0804 291.449ZM104.468 153.328L97.7513 171.036L104.468 153.328ZM104.656 153.38L101.319 172.023L104.656 153.38ZM313.344 281.724L303.541 265.519L313.344 281.724ZM312.849 281.875L313.751 300.793L312.849 281.875ZM81.6392 193.49L87.4378 175.46L81.6392 193.49ZM194.701 138.757L186.529 121.671L194.701 138.757ZM195.304 138.665L192.617 157.412L195.304 138.665ZM203.372 370.314L206.237 351.593L203.372 370.314ZM204.582 369.224L223.5 368.323L204.582 369.224ZM206.237 351.593L141.853 341.741L136.124 379.184L200.507 389.036L206.237 351.593ZM148.696 344.297L113.021 321.775L92.8001 353.805L128.476 376.327L148.696 344.297ZM114.14 322.539L91.0702 305.551L68.6102 336.053L91.6804 353.04L114.14 322.539ZM91.7349 306.064L72.5689 290.595L48.7795 320.072L67.9455 335.54L91.7349 306.064ZM79.2019 303.663L78.3486 285.752L40.5129 287.555L41.3662 305.466L79.2019 303.663ZM61.3329 304.47L71.8149 303.971L70.0125 266.135L59.5305 266.635L61.3329 304.47ZM63.2025 302.22L79.8097 310.218L96.2453 276.091L79.6381 268.093L63.2025 302.22ZM89.4354 312.175L110.441 311.174L108.639 273.339L87.6329 274.339L89.4354 312.175ZM127.275 282.076L116.735 261.542L83.0366 278.839L93.577 299.374L127.275 282.076ZM103.945 251.314L75.2886 243.918L65.8231 280.595L94.4799 287.99L103.945 251.314ZM86.8571 253.318L74.693 228.684L40.7295 245.455L52.8936 270.089L86.8571 253.318ZM59.5058 254.47L69.4904 253.995L67.6879 216.159L57.7034 216.635L59.5058 254.47ZM62.553 252.948L79.1458 258.952L92.0342 223.333L75.4414 217.329L62.553 252.948ZM86.8993 260.122L114.927 258.787L113.124 220.951L85.0969 222.286L86.8993 260.122ZM125.707 222.63L95.8132 200.965L73.585 231.636L103.479 253.301L125.707 222.63ZM98.9232 203.838L81.8128 183.786L52.9987 208.373L70.1091 228.425L98.9232 203.838ZM83.5444 204.599L88.9159 195.646L56.4349 176.159L51.0634 185.112L83.5444 204.599ZM61.0968 199.257L70.1658 208.091L96.5959 180.957L87.5269 172.123L61.0968 199.257ZM78.7028 213.015L91.847 216.712L102.102 180.248L88.9575 176.551L78.7028 213.015ZM117.228 196.515L116.57 182.704L78.7344 184.506L79.3924 198.318L117.228 196.515ZM116.57 182.704C116.324 177.539 114.656 172.836 113.293 169.598C111.802 166.058 109.933 162.576 108.099 159.474C104.428 153.267 100.151 147.341 97.1111 143.466L67.3091 166.845C69.6023 169.769 72.868 174.314 75.4956 178.757C76.81 180.979 77.7797 182.866 78.3842 184.301C79.1163 186.039 78.8017 185.919 78.7344 184.506L116.57 182.704ZM96.2724 166.53L101.797 160.452L73.7688 134.973L68.2441 141.05L96.2724 166.53ZM82.2182 165.145L97.7513 171.036L111.184 135.62L95.6512 129.728L82.2182 165.145ZM101.319 172.023L123.917 176.068L130.591 138.782L107.992 134.737L101.319 172.023ZM146.014 148.998L138.148 129.229L102.954 143.234L110.82 163.002L146.014 148.998ZM130.182 119.676L105.803 104.412L85.702 136.517L110.081 151.781L130.182 119.676ZM108.717 132.459L123.304 118.414L97.0328 91.127L82.4453 105.171L108.717 132.459ZM107.075 123.002L124.61 126.839L132.706 89.8355L115.171 85.9991L107.075 123.002ZM118.52 124.254L130.272 132.079L151.265 100.55L139.513 92.7246L118.52 124.254ZM161.32 114.487L160.447 96.1496L122.611 97.952L123.485 116.29L161.32 114.487ZM154.647 82.9981L141.337 69.6253L114.49 96.3463L127.8 109.719L154.647 82.9981ZM146.526 81.3924L146.237 75.3237L108.402 77.1262L108.691 83.1948L146.526 81.3924ZM127.44 94.0377L146.92 95.0529L148.891 57.2257L129.411 56.2105L127.44 94.0377ZM138.159 92.2236L157.708 104.827L178.233 72.9915L158.684 60.3878L138.159 92.2236ZM150.436 95.463L154.781 108.465L190.706 96.4595L186.361 83.4574L150.436 95.463ZM191.147 106.936L198.346 77.317L161.54 68.3702L154.34 97.989L191.147 106.936ZM193.472 85.8805L211.203 68.5406L184.719 41.4594L166.988 58.7993L193.472 85.8805ZM180.637 47.3458L173.202 64.1732L207.849 79.4817L215.284 62.6542L180.637 47.3458ZM210.488 387.864L273.643 371.937L264.381 335.208L201.225 351.136L210.488 387.864ZM280.985 368.366L314.358 342.554L291.184 312.592L257.811 338.403L280.985 368.366ZM315.4 341.687L336.751 322.583L311.493 294.355L290.143 313.459L315.4 341.687ZM337.364 322.009L354.973 304.789L328.489 277.708L310.88 294.928L337.364 322.009ZM360.964 289.545L360.111 271.634L322.275 273.436L323.129 291.347L360.964 289.545ZM339.191 252.616L328.709 253.115L330.511 290.951L340.993 290.452L339.191 252.616ZM319.313 255.979L303.541 265.519L323.146 297.93L338.918 288.389L319.313 255.979ZM311.948 262.957L289.31 264.036L291.112 301.871L313.751 300.793L311.948 262.957ZM307.806 289.961L316.951 267L281.761 252.984L272.616 275.946L307.806 289.961ZM306.43 277.198L334.254 267.111L321.345 231.5L293.521 241.587L306.43 277.198ZM346.126 255.424L355.893 229.745L320.489 216.278L310.722 241.957L346.126 255.424ZM336.256 202.669L326.062 203.154L327.864 240.99L338.059 240.504L336.256 202.669ZM318.855 204.956L302.718 212.601L318.934 246.832L335.071 239.188L318.855 204.956ZM309.524 210.899L281.497 212.234L283.3 250.07L311.327 248.734L309.524 210.899ZM294.174 243.521L321.873 219.112L296.83 190.693L269.131 215.102L294.174 243.521ZM325.028 215.585L340.155 193.998L309.134 172.261L294.007 193.849L325.028 215.585ZM339.87 170.657L332.882 161.186L302.401 183.673L309.388 193.144L339.87 170.657ZM303.197 160.18L294.149 170.85L323.038 195.348L332.086 184.678L303.197 160.18ZM301.333 165.738L288.6 170.667L302.275 205.991L315.008 201.062L301.333 165.738ZM312.925 186.497L312.267 172.685L274.431 174.488L275.089 188.299L312.925 186.497ZM312.267 172.685C312.334 174.098 312.032 174.248 312.596 172.448C313.061 170.961 313.847 168.991 314.944 166.654C317.137 161.982 319.956 157.146 321.961 154.018L290.072 133.577C287.414 137.724 283.72 144.03 280.656 150.558C279.124 153.82 277.595 157.464 276.447 161.13C275.398 164.482 274.185 169.323 274.431 174.488L312.267 172.685ZM318.578 128.429L312.501 122.904L287.022 150.933L293.099 156.457L318.578 128.429ZM290.219 119.764L275.316 127.105L292.055 161.084L306.958 153.743L290.219 119.764ZM278.41 125.923L256.298 132.097L266.486 168.58L288.598 162.406L278.41 125.923ZM278.282 154.329L284.233 133.902L247.867 123.307L241.916 143.734L278.282 154.329ZM277.951 143.088L300.769 125.576L277.707 95.5272L254.889 113.039L277.951 143.088ZM301.031 94.0625L285.174 81.4684L261.616 111.13L277.472 123.724L301.031 94.0625ZM266.631 78.088L249.54 83.5738L261.117 119.64L278.207 114.154L266.631 78.088ZM243.039 87.097L232.083 96.0039L255.979 125.394L266.934 116.488L243.039 87.097ZM261.234 109.032L260.36 90.694L222.525 92.4965L223.398 110.834L261.234 109.032ZM256.314 102.901L268.292 88.3236L239.026 64.2757L227.048 78.8532L256.314 102.901ZM272.815 74.6803L272.309 64.05L234.473 65.8524L234.979 76.4828L272.815 74.6803ZM245.123 46.358L226.14 53.7066L239.814 89.0307L258.797 81.6821L245.123 46.358ZM220.976 56.6535L202.618 71.134L226.076 100.875L244.434 86.394L220.976 56.6535ZM195.521 82.3252L192.432 95.6815L229.336 104.218L232.425 90.8613L195.521 82.3252ZM228.779 93.747L218.725 64.7399L182.935 77.145L192.989 106.152L228.779 93.747ZM219.431 67.4436L216.603 51.6603L179.318 58.3397L182.146 74.1231L219.431 67.4436ZM180.772 47.0477L173.311 63.174L207.689 79.0787L215.15 62.9523L180.772 47.0477ZM69.8723 168.741C72.1715 170.678 75.5359 172.673 77.7078 173.943C80.4516 175.547 83.778 177.397 87.2082 179.263C94.0911 183.005 101.833 187.048 107.132 189.767L124.423 156.065C119.299 153.437 111.841 149.541 105.303 145.986C102.024 144.202 99.085 142.564 96.8286 141.244C94.0003 139.591 93.6293 139.226 94.2777 139.772L69.8723 168.741ZM113.393 191.764L134.703 194.845L140.123 157.356L118.813 154.275L113.393 191.764ZM143.33 194.201L169.617 186.282L158.692 150.014L132.405 157.932L143.33 194.201ZM168.677 147.741L137.193 139.907L128.047 176.665L159.532 184.498L168.677 147.741ZM135.446 139.559L131.943 139.03L126.29 176.484L129.793 177.013L135.446 139.559ZM131.516 138.971C127.609 138.471 121.735 137.693 116.808 136.98C114.322 136.621 112.213 136.298 110.754 136.048C110.401 135.987 110.115 135.936 109.894 135.894C109.784 135.874 109.699 135.857 109.637 135.845C109.573 135.832 109.544 135.825 109.545 135.826C109.546 135.826 109.56 135.829 109.584 135.834C109.607 135.84 109.647 135.849 109.7 135.862C109.79 135.885 110.002 135.938 110.292 136.025C110.527 136.095 111.135 136.281 111.911 136.601C112.305 136.763 112.952 137.046 113.723 137.468C114.384 137.829 115.8 138.649 117.332 140.042L91.8525 168.07C94.4821 170.461 97.1784 171.499 97.4716 171.619C98.3422 171.978 99.0748 172.207 99.4602 172.322C100.269 172.563 100.998 172.73 101.43 172.825C102.368 173.03 103.41 173.22 104.354 173.382C106.308 173.717 108.807 174.096 111.388 174.469C116.594 175.222 122.691 176.029 126.716 176.544L131.516 138.971ZM117.332 140.042C116.147 138.964 115.081 138.276 114.742 138.059C114.256 137.747 113.84 137.509 113.58 137.365C113.057 137.075 112.583 136.839 112.277 136.69C111.636 136.377 110.942 136.063 110.326 135.79C109.054 135.227 107.46 134.553 105.828 133.874C102.533 132.503 98.6585 130.938 95.9262 129.847L81.8776 165.024C84.522 166.08 88.2136 167.572 91.2793 168.847C92.8283 169.491 94.1141 170.038 94.9959 170.428C95.2082 170.522 95.3757 170.597 95.5024 170.656C95.635 170.716 95.6872 170.742 95.6786 170.738C95.672 170.734 95.6298 170.714 95.5601 170.678C95.4957 170.645 95.3634 170.576 95.1858 170.478C95.0295 170.391 94.7005 170.205 94.2846 169.938C94.0158 169.765 93.0026 169.116 91.8525 168.07L117.332 140.042ZM74.4498 134.208L68.7859 139.815L95.4364 166.733L101.1 161.125L74.4498 134.208ZM96.1585 92.0806L89.5277 99.3749L117.556 124.854L124.187 117.56L96.1585 92.0806ZM94.7503 130.374L109.908 138.639L128.041 105.383L112.883 97.118L94.7503 130.374ZM113.61 140.198L131.158 145.587L142.277 109.377L124.729 103.988L113.61 140.198ZM133.741 146.186L149.809 148.743L155.762 111.335L139.694 108.778L133.741 146.186ZM170.761 138.081L174.941 129.882L141.197 112.675L137.016 120.874L170.761 138.081ZM163.252 101.769L158.891 100.366L147.294 136.426L151.655 137.828L163.252 101.769ZM154.467 99.4783L144.408 98.6217L141.194 136.364L151.253 137.22L154.467 99.4783ZM153.591 102.111L141.76 93.2781L119.099 123.63L130.93 132.464L153.591 102.111ZM133.72 89.6941L114.872 85.9247L107.444 123.068L126.292 126.837L133.72 89.6941ZM75.8405 211.52L92.5048 216.879L104.102 180.82L87.4378 175.46L75.8405 211.52ZM95.4409 217.584C99.9069 218.304 106.608 219.377 112.272 220.269C115.098 220.714 117.698 221.118 119.642 221.412C120.604 221.558 121.461 221.684 122.123 221.777C122.442 221.822 122.802 221.871 123.139 221.911C123.297 221.931 123.562 221.962 123.865 221.99C124.014 222.003 124.274 222.026 124.592 222.044C124.76 222.054 125.579 222.104 126.614 222.055L124.812 184.219C125.829 184.171 126.623 184.22 126.757 184.228C127.041 184.244 127.259 184.263 127.357 184.272C127.472 184.283 127.557 184.292 127.601 184.297C127.647 184.302 127.678 184.306 127.688 184.307C127.699 184.308 127.611 184.298 127.373 184.264C126.921 184.201 126.227 184.099 125.304 183.959C123.476 183.683 120.967 183.293 118.161 182.851C112.561 181.969 105.911 180.904 101.471 180.188L95.4409 217.584ZM126.614 222.055C127.112 222.031 127.505 221.992 127.622 221.98C127.797 221.963 127.942 221.946 128.034 221.935C128.218 221.913 128.385 221.891 128.497 221.876C128.733 221.844 128.994 221.807 129.244 221.77C129.757 221.695 130.43 221.593 131.204 221.475C132.763 221.236 134.866 220.908 137.204 220.541C141.887 219.805 147.593 218.9 151.963 218.204L146.004 180.797C141.646 181.491 135.971 182.392 131.327 183.121C129.002 183.486 126.955 183.805 125.468 184.033C124.718 184.148 124.144 184.235 123.758 184.291C123.558 184.32 123.457 184.334 123.427 184.338C122.937 184.405 123.825 184.266 124.812 184.219L126.614 222.055ZM133.971 191.07L129.608 198.061L161.743 218.115L166.105 211.125L133.971 191.07ZM140.749 190.105L126.196 193.473L134.737 230.376L149.291 227.007L140.749 190.105ZM131.672 193.071L110.276 191.34L107.222 229.095L128.617 230.826L131.672 193.071ZM113.317 191.852L93.3091 186.673L83.8161 223.343L103.824 228.522L113.317 191.852ZM102.609 192.588L98.3972 187.496L69.2102 211.64L73.422 216.731L102.609 192.588ZM98.3972 187.496C98.003 187.02 96.7888 185.446 94.9974 183.07L64.7517 205.873C66.39 208.046 68.159 210.369 69.2102 211.64L98.3972 187.496ZM62.0169 254.826L69.9681 253.947L65.8091 216.298L57.8579 217.176L62.0169 254.826ZM62.7532 253.267L80.0306 258.573L91.1504 222.364L73.8729 217.058L62.7532 253.267ZM86.4068 259.448L117.377 258.661L116.415 220.795L85.4454 221.581L86.4068 259.448ZM113.174 258.27L136.948 263.366L144.887 226.329L121.113 221.233L113.174 258.27ZM135.79 263.079L138.253 263.772L148.508 227.308L146.045 226.615L135.79 263.079ZM130.918 233.429C130.092 234.196 129.44 234.773 129.131 235.026C128.825 235.276 129.331 234.826 130.265 234.252C130.266 234.252 132.54 232.742 135.876 232.017C137.282 231.711 142.759 230.623 148.734 233.809C156.432 237.914 158.508 245.296 158.712 249.565L120.876 251.367C121.082 255.691 123.178 263.109 130.911 267.233C136.921 270.437 142.45 269.351 143.922 269.031C147.388 268.278 149.851 266.676 150.089 266.529C151.498 265.664 152.67 264.709 153.141 264.322C154.387 263.301 155.734 262.076 156.71 261.169L130.918 233.429ZM158.712 249.565C158.394 242.902 154.827 238.59 152.774 236.65C150.73 234.719 148.732 233.694 147.806 233.255C145.88 232.341 144.206 231.948 143.653 231.82C142.256 231.498 140.975 231.351 140.332 231.283C138.821 231.122 137.097 231.027 135.618 230.964C132.533 230.832 128.968 230.779 126.635 230.767L126.446 268.645C128.519 268.656 131.568 268.704 134.002 268.808C135.282 268.863 136.043 268.919 136.331 268.95C136.588 268.977 136.034 268.936 135.142 268.73C134.841 268.661 133.364 268.328 131.572 267.478C130.713 267.071 128.766 266.078 126.758 264.181C124.74 262.274 121.192 257.996 120.876 251.367L158.712 249.565ZM125.639 230.788L109.675 231.549L111.478 269.385L127.441 268.624L125.639 230.788ZM110.306 231.529L89.626 231.825L90.1669 269.699L110.847 269.404L110.306 231.529ZM95.4558 232.714C93.0164 231.914 89.4241 230.716 86.4136 229.67C84.8886 229.14 83.6414 228.693 82.8037 228.376C82.3607 228.209 82.2147 228.146 82.2644 228.167C82.272 228.171 82.548 228.288 82.9555 228.495C83.1582 228.598 83.563 228.809 84.0678 229.116C84.4177 229.329 85.587 230.044 86.8934 231.231L61.4138 259.259C62.7562 260.48 63.9795 261.233 64.4007 261.489C64.9767 261.839 65.4699 262.098 65.7774 262.255C66.3945 262.569 66.9455 262.812 67.2867 262.959C68.0035 263.267 68.7588 263.561 69.3962 263.803C70.7192 264.303 72.3493 264.883 73.9782 265.449C77.2755 266.595 81.0974 267.869 83.6589 268.708L95.4558 232.714ZM86.8932 231.231C85.4803 229.947 84.1722 229.155 83.7807 228.918C83.1945 228.564 82.6802 228.292 82.3438 228.12C81.6638 227.772 81.0107 227.476 80.5319 227.264C79.5376 226.826 78.4181 226.372 77.4085 225.974C75.3452 225.161 73.0365 224.303 71.5021 223.747L58.5907 259.357C59.9266 259.842 61.8845 260.57 63.5138 261.212C64.3504 261.542 64.9337 261.784 65.2523 261.925C65.4299 262.003 65.3358 261.967 65.0866 261.839C64.9656 261.777 64.6346 261.606 64.1959 261.341C63.9701 261.204 63.6266 260.989 63.2163 260.702C62.8397 260.438 62.1772 259.953 61.414 259.26L86.8932 231.231ZM75.2269 225.613L69.8733 222.097L49.0771 253.756L54.4307 257.272L75.2269 225.613ZM70.0635 266.827L59.5633 267.328L61.3657 305.163L71.8659 304.663L70.0635 266.827ZM40.5457 288.248L40.7021 291.53L78.5377 289.727L78.3814 286.445L40.5457 288.248ZM49.4506 307.124L66.1898 318.476L87.4492 287.126L70.7101 275.774L49.4506 307.124ZM69.3306 320.216L86.2984 327.713L101.607 293.066L84.639 285.569L69.3306 320.216ZM101.607 293.066C102.503 293.462 110.915 297.07 112.586 307.277C114.291 317.697 107.206 323.823 106.384 324.54C104.557 326.135 102.862 326.969 102.39 327.201C101.687 327.545 101.128 327.76 100.864 327.858C100.05 328.161 99.6395 328.228 100.316 328.065C101.279 327.833 103.008 327.474 105.358 327.028C109.928 326.161 115.697 325.179 119.657 324.534L113.565 287.148C109.446 287.819 103.32 288.861 98.2973 289.814C95.8504 290.278 93.3585 290.778 91.4416 291.24C90.6785 291.424 89.1634 291.797 87.6749 292.35C87.243 292.51 86.542 292.785 85.7258 293.185C85.1405 293.471 83.3616 294.358 81.4793 296C80.602 296.766 73.4924 302.935 75.2045 313.395C76.8817 323.642 85.3312 327.286 86.2983 327.713L101.607 293.066ZM116.798 324.767L146.448 324.734L146.406 286.855L116.755 286.888L116.798 324.767ZM152.973 323.631L162.207 320.43L149.802 284.641L140.568 287.841L152.973 323.631ZM165.315 284.036L158.235 280.131L139.94 313.299L147.021 317.204L165.315 284.036ZM152.699 278.074L136.691 274.702L128.884 311.768L144.893 315.139L152.699 278.074ZM134.061 274.338L115.916 273.116L113.369 310.909L131.515 312.131L134.061 274.338ZM95.6945 275.845L79.0942 268.51L63.7858 303.157L80.3861 310.492L95.6945 275.845ZM291.848 129.667C292.441 129.061 292.106 129.459 289.448 131.374C287.327 132.902 284.558 134.813 281.462 136.9C275.293 141.06 268.238 145.647 263.388 148.751L283.804 180.657C288.821 177.447 296.143 172.686 302.639 168.306C305.876 166.123 309.012 163.965 311.591 162.107C313.632 160.636 316.791 158.33 318.896 156.184L291.848 129.667ZM268.802 146.436L247.881 151.528L256.84 188.332L277.762 183.239L268.802 146.436ZM255.619 151.368L228.699 145.985L221.271 183.128L248.192 188.511L255.619 151.368ZM231.141 180.393L261.738 169.602L249.14 133.88L218.542 144.671L231.141 180.393ZM260.033 170.115L263.47 169.255L254.283 132.508L250.845 133.367L260.033 170.115ZM263.051 169.355C267.01 168.46 273.002 167.077 278.113 165.833C280.647 165.216 283.098 164.601 285.012 164.081C285.936 163.831 286.956 163.543 287.87 163.249C288.291 163.114 289.001 162.878 289.783 162.561C290.155 162.41 290.863 162.113 291.696 161.673C291.976 161.525 294.561 160.235 296.952 157.605L268.923 132.126C270.316 130.594 271.648 129.644 272.271 129.221C272.998 128.728 273.616 128.385 273.993 128.186C274.734 127.794 275.323 127.55 275.549 127.459C275.83 127.345 276.036 127.271 276.123 127.24C276.175 127.222 276.213 127.209 276.236 127.201C276.26 127.194 276.273 127.189 276.274 127.189C276.275 127.189 276.247 127.198 276.185 127.216C276.124 127.235 276.041 127.26 275.934 127.29C275.717 127.353 275.438 127.431 275.091 127.525C273.663 127.913 271.595 128.435 269.154 129.029C264.317 130.206 258.543 131.54 254.701 132.408L263.051 169.355ZM296.952 157.605C295.906 158.756 294.959 159.499 294.708 159.696C294.32 160.001 294.01 160.218 293.862 160.319C293.695 160.434 293.57 160.515 293.509 160.554C293.443 160.596 293.403 160.621 293.397 160.625C293.388 160.63 293.438 160.599 293.564 160.526C293.685 160.456 293.844 160.365 294.047 160.252C294.888 159.779 296.115 159.113 297.596 158.324C300.527 156.763 304.06 154.928 306.592 153.625L289.263 119.943C286.647 121.289 282.939 123.215 279.789 124.893C278.229 125.724 276.707 126.546 275.494 127.228C274.906 127.558 274.245 127.937 273.636 128.309C273.346 128.486 272.897 128.766 272.404 129.105C272.159 129.273 271.767 129.549 271.313 129.906C270.997 130.155 270.001 130.941 268.923 132.126L296.952 157.605ZM287.086 151.571L293.257 156.615L317.228 127.286L311.057 122.242L287.086 151.571ZM259.962 110.398L267.256 117.029L292.736 89.0004L285.442 82.3695L259.962 110.398ZM269.272 88.9739L254.968 98.6423L276.18 130.024L290.484 120.356L269.272 88.9739ZM258.132 96.9392L241.176 103.972L255.687 138.96L272.644 131.928L258.132 96.9392ZM243.691 103.13L227.939 107.202L237.42 143.875L253.172 139.802L243.691 103.13ZM247.506 114.917L242.565 107.152L210.609 127.489L215.55 135.253L247.506 114.917ZM234.545 133.186L238.753 131.375L223.781 96.5811L219.572 98.392L234.545 133.186ZM234.888 132.542L244.82 130.733L238.033 93.4677L228.101 95.2765L234.888 132.542ZM254.666 125.875L265.604 115.957L240.16 87.8966L229.223 97.8144L254.666 125.875ZM258.748 119.833L277.153 114.289L266.228 78.0204L247.823 83.5645L258.748 119.833ZM303.128 160.261L295.391 169.49L324.417 193.826L332.155 184.597L303.128 160.261ZM302.027 164.552L285.97 171.462L300.942 206.255L317 199.346L302.027 164.552ZM288.529 170.583C284.177 171.718 277.658 173.411 272.167 174.82C269.416 175.527 266.955 176.154 265.162 176.603C264.257 176.829 263.576 176.997 263.131 177.103C262.897 177.159 262.811 177.178 262.822 177.175C262.832 177.173 262.862 177.167 262.908 177.157C262.951 177.148 263.035 177.131 263.148 177.11C263.245 177.091 263.46 177.051 263.741 177.008C263.874 176.988 264.66 176.863 265.677 176.814L267.479 214.65C268.514 214.601 269.325 214.473 269.492 214.448C269.806 214.399 270.063 214.352 270.209 214.324C270.509 214.267 270.769 214.211 270.925 214.177C271.257 214.104 271.611 214.022 271.924 213.947C272.574 213.792 273.415 213.584 274.359 213.348C276.266 212.87 278.816 212.22 281.587 211.509C287.141 210.083 293.709 208.378 298.086 207.236L288.529 170.583ZM265.677 176.814C266.664 176.767 267.561 176.821 267.067 176.802C267.037 176.801 266.935 176.796 266.733 176.786C266.343 176.766 265.763 176.735 265.006 176.692C263.504 176.606 261.436 176.483 259.086 176.341C254.395 176.056 248.659 175.699 244.255 175.422L241.879 213.226C246.296 213.504 252.062 213.863 256.794 214.15C259.156 214.293 261.28 214.42 262.855 214.509C263.637 214.554 264.317 214.591 264.835 214.617C265.087 214.63 265.35 214.642 265.588 214.651C265.701 214.656 265.869 214.662 266.055 214.666C266.147 214.668 266.294 214.671 266.47 214.672C266.586 214.672 266.981 214.674 267.479 214.65L265.677 176.814ZM227.128 207.524L232.136 214.068L262.218 191.05L257.21 184.505L227.128 207.524ZM245.376 221.736L260.184 223.706L265.179 186.158L250.371 184.188L245.376 221.736ZM266.319 223.572L287.453 219.815L280.823 182.521L259.69 186.278L266.319 223.572ZM290.781 218.922L310.206 211.864L297.27 176.263L277.845 183.321L290.781 218.922ZM319.925 204.294L323.633 198.825L292.283 177.566L288.575 183.035L319.925 204.294ZM323.633 198.825C325.571 195.968 331.475 186.185 333.882 182.173L301.401 162.685C298.652 167.267 293.466 175.823 292.283 177.566L323.633 198.825ZM335.462 203.257L327.245 203.135L326.681 241.009L334.898 241.132L335.462 203.257ZM319.706 204.578L302.811 211.587L317.325 246.575L334.22 239.566L319.706 204.578ZM308.417 210.265L277.512 212.427L280.155 250.213L311.059 248.051L308.417 210.265ZM272.877 213.309L249.696 220.642L261.12 256.757L284.302 249.423L272.877 213.309ZM248.57 221.037L246.185 221.961L259.859 257.285L262.245 256.361L248.57 221.037ZM241.238 256.448C242.296 257.259 243.753 258.35 245.09 259.248C245.597 259.588 246.854 260.428 248.338 261.155C248.589 261.278 251.194 262.638 254.716 263.059C256.211 263.238 261.818 263.794 267.496 260.032C274.803 255.192 276.184 247.608 275.978 243.285L238.143 245.087C237.939 240.818 239.304 233.272 246.577 228.454C252.222 224.715 257.778 225.277 259.207 225.448C262.596 225.852 265.003 227.139 265.004 227.14C265.989 227.622 266.535 228.022 266.207 227.802C265.876 227.579 265.171 227.067 264.277 226.382L241.238 256.448ZM275.978 243.285C276.294 249.913 273.168 254.509 271.341 256.599C269.522 258.679 267.678 259.852 266.862 260.339C265.159 261.356 263.72 261.827 263.427 261.925C262.559 262.214 262.012 262.308 262.265 262.256C262.549 262.198 263.301 262.07 264.57 261.894C266.983 261.559 270.013 261.221 272.076 261.014L268.287 223.325C265.965 223.559 262.422 223.951 259.364 224.375C257.897 224.579 256.19 224.837 254.701 225.141C254.068 225.27 252.806 225.538 251.446 225.991C250.908 226.171 249.279 226.721 247.448 227.814C246.568 228.339 244.676 229.549 242.826 231.666C240.966 233.793 237.825 238.424 238.143 245.087L275.978 243.285ZM271.083 261.087L287.047 260.327L285.244 222.491L269.28 223.252L271.083 261.087ZM287.676 260.286L308.291 258.614L305.229 220.86L284.615 222.532L287.676 260.286ZM314.675 257.009C317.145 255.93 320.829 254.299 324.002 252.845C325.57 252.126 327.138 251.394 328.407 250.77C329.019 250.469 329.742 250.105 330.427 249.729C330.752 249.551 331.278 249.256 331.862 248.885C332.153 248.7 332.62 248.395 333.16 247.991C333.555 247.697 334.701 246.831 335.921 245.488L307.893 220.009C309.08 218.703 310.176 217.88 310.504 217.635C310.978 217.282 311.361 217.033 311.553 216.911C311.939 216.666 312.202 216.523 312.209 216.519C312.257 216.493 312.118 216.569 311.692 216.778C310.889 217.174 309.69 217.737 308.222 218.41C305.324 219.737 301.862 221.271 299.51 222.299L314.675 257.009ZM335.921 245.488C335.227 246.252 334.614 246.797 334.264 247.096C333.883 247.421 333.561 247.667 333.35 247.824C332.938 248.13 332.625 248.332 332.51 248.405C332.274 248.556 332.184 248.601 332.354 248.506C332.657 248.336 333.215 248.04 334.016 247.632C335.577 246.838 337.457 245.926 338.741 245.317L322.503 211.096C321.028 211.795 318.811 212.868 316.835 213.874C315.868 214.367 314.796 214.925 313.848 215.456C313.392 215.711 312.77 216.068 312.126 216.48C311.807 216.683 311.321 217.002 310.771 217.411C310.404 217.683 309.177 218.596 307.893 220.009L335.921 245.488ZM342.684 242.846L347.679 238.837L323.968 209.298L318.972 213.308L342.684 242.846ZM329.833 291.68L340.333 291.18L338.53 253.344L328.03 253.844L329.833 291.68ZM321.615 274.164L321.771 277.446L359.607 275.644L359.451 272.362L321.615 274.164ZM328.237 262.812L312.653 275.703L336.796 304.89L352.38 291.999L328.237 262.812ZM315.302 273.886L299.124 282.962L317.657 315.997L333.835 306.921L315.302 273.886ZM317.657 315.997C318.579 315.48 326.644 311.05 327.339 300.69C328.049 290.114 320.385 284.649 319.439 283.97C317.409 282.514 315.554 281.801 314.944 281.571C314.094 281.251 313.37 281.044 312.925 280.926C311.391 280.517 309.847 280.289 309.07 280.179C307.118 279.901 304.589 279.64 302.109 279.41C297.019 278.939 290.822 278.485 286.658 278.208L284.147 316.004C288.15 316.27 293.987 316.699 298.619 317.128C301 317.348 302.755 317.541 303.736 317.68C304.425 317.778 304.01 317.75 303.171 317.527C302.899 317.454 302.322 317.293 301.589 317.017C301.097 316.832 299.331 316.162 297.36 314.748C296.474 314.112 288.839 308.688 289.546 298.153C290.239 287.833 298.269 283.442 299.124 282.962L317.657 315.997ZM283.457 278.253L253.938 281.038L257.496 318.749L287.015 315.964L283.457 278.253ZM259.843 281.465L250.346 279.157L241.4 315.964L250.896 318.272L259.843 281.465ZM256.21 311.308L262.887 306.748L241.523 275.469L234.846 280.03L256.21 311.308ZM258.132 309.051L273.748 304.173L262.453 268.017L246.838 272.895L258.132 309.051ZM271.164 304.785L289.111 301.843L282.983 264.463L265.037 267.405L271.164 304.785ZM286.952 302.071L291.116 301.871L289.306 264.036L285.142 264.235L286.952 302.071ZM291.112 301.872L313.075 300.826L311.274 262.99L289.311 264.036L291.112 301.872ZM321.905 298.292L337.733 289.413L319.2 256.378L303.372 265.257L321.905 298.292ZM194.118 332.202L234.617 332.763L235.142 294.889L194.643 294.327L194.118 332.202ZM227.364 298.64L206.658 308.205L222.543 342.592L243.249 333.027L227.364 298.64ZM168.815 337.91L198.014 331.828L190.289 294.745L161.091 300.828L168.815 337.91ZM216.372 306.694L167.296 300.575L162.61 338.163L211.686 344.281L216.372 306.694ZM177.637 288.313L213.327 276.436L201.366 240.495L165.676 252.372L177.637 288.313ZM202.942 276.712L234.289 285.321L244.319 248.794L212.973 240.186L202.942 276.712ZM231.921 251.656L198.906 265.945L213.95 300.707L246.966 286.419L231.921 251.656ZM211.522 265.343L177.501 254.324L165.829 290.36L199.85 301.379L211.522 265.343ZM180.386 237.555L210.689 227.95L199.245 191.842L168.941 201.446L180.386 237.555ZM198.372 227.396L225.019 238.562L239.658 203.627L213.011 192.461L198.372 227.396ZM227.188 204.819L196.807 213.176L206.853 249.698L237.234 241.341L227.188 204.819ZM207.806 213.665L181.237 203.746L167.989 239.232L194.559 249.151L207.806 213.665ZM187.708 197.851C192.648 196.459 200.321 194.025 204.36 192.716L192.685 156.682C188.668 157.983 181.606 160.217 177.436 161.392L187.708 197.851ZM195.003 193.171L217.277 198.067L225.409 161.072L203.135 156.176L195.003 193.171ZM214.795 163.864L193.243 172.007L206.63 207.441L228.182 199.298L214.795 163.864ZM207.252 172.588L190.514 164.622L174.236 198.825L190.974 206.791L207.252 172.588ZM192.811 160.655L202.873 155.843L186.529 121.671L176.468 126.484L192.811 160.655ZM192.617 157.412L207.146 159.495L212.521 122L197.992 119.917L192.617 157.412ZM201.78 125.743L189.552 131.767L206.291 165.747L218.519 159.723L201.78 125.743ZM202.062 130.529L189.7 127.235L179.946 163.836L192.308 167.13L202.062 130.529ZM171.519 73.204L185.664 370.125L223.5 368.323L209.355 71.4016L171.519 73.204ZM171.486 72.5194L185.631 369.431L223.466 367.629L209.322 70.717L171.486 72.5194ZM113.741 273.094L87.6144 274.339L89.4168 312.175L115.544 310.93L113.741 273.094ZM189.552 131.767C193.435 129.854 197.88 129.414 202.062 130.529L192.308 167.13C196.983 168.376 201.951 167.884 206.291 165.747L189.552 131.767ZM176.468 126.484C159.706 134.501 161.992 159.051 179.946 163.836L189.7 127.235C205.764 131.516 207.809 153.482 192.811 160.655L176.468 126.484ZM193.243 172.007C197.797 170.286 202.856 170.496 207.252 172.588L190.974 206.791C195.887 209.129 201.541 209.364 206.63 207.441L193.243 172.007ZM217.277 198.067C199.898 194.247 198.15 170.153 214.795 163.864L228.182 199.298C246.786 192.27 244.833 165.341 225.409 161.072L217.277 198.067ZM204.36 192.716C201.268 193.718 198.033 193.837 195.003 193.171L203.135 156.176C199.74 155.43 196.133 155.565 192.685 156.682L204.36 192.716ZM177.436 161.392C168.197 163.994 163.575 171.947 162.918 178.809C162.257 185.717 165.354 194.597 174.236 198.825L190.514 164.622C198.489 168.418 201.202 176.384 200.624 182.416C200.052 188.403 195.981 195.52 187.708 197.851L177.436 161.392ZM196.807 213.176C200.433 212.178 204.282 212.349 207.806 213.665L194.559 249.151C198.497 250.621 202.799 250.813 206.853 249.698L196.807 213.176ZM225.019 238.562C209.346 231.995 210.803 209.326 227.188 204.819L237.234 241.341C255.546 236.303 257.175 210.967 239.658 203.627L225.019 238.562ZM210.689 227.95C206.647 229.231 202.282 229.034 198.372 227.396L213.011 192.461C208.641 190.629 203.762 190.41 199.245 191.842L210.689 227.95ZM168.941 201.446C150.826 207.188 150.187 232.586 167.989 239.232L181.237 203.746C197.166 209.692 196.594 232.417 180.386 237.555L168.941 201.446ZM198.906 265.945C202.898 264.217 207.383 264.003 211.522 265.343L199.85 301.379C204.475 302.877 209.488 302.638 213.95 300.707L198.906 265.945ZM234.289 285.321C217.999 280.847 216.418 258.366 231.921 251.656L246.966 286.419C264.293 278.92 262.526 253.794 244.319 248.794L234.289 285.321ZM213.327 276.436C209.969 277.553 206.355 277.649 202.942 276.712L212.973 240.186C209.159 239.138 205.119 239.246 201.366 240.495L213.327 276.436ZM165.676 252.372C147.361 258.468 147.465 284.412 165.829 290.36L177.501 254.324C193.932 259.646 194.025 282.859 177.637 288.313L165.676 252.372ZM206.658 308.205C209.691 306.804 213.056 306.28 216.372 306.694L211.686 344.281C215.392 344.743 219.153 344.158 222.543 342.592L206.658 308.205ZM234.617 332.763C215.579 332.5 210.078 306.625 227.364 298.64L243.249 333.027C262.568 324.102 256.42 295.183 235.142 294.889L234.617 332.763ZM194.643 294.327C193.181 294.307 191.721 294.447 190.289 294.745L198.014 331.828C196.733 332.095 195.427 332.22 194.118 332.202L194.643 294.327ZM313.075 300.826C316.175 300.678 319.198 299.811 321.905 298.292L303.372 265.257C305.794 263.899 308.5 263.122 311.274 262.99L313.075 300.826ZM262.887 306.748C261.425 307.746 259.823 308.523 258.132 309.051L246.838 272.895C244.948 273.485 243.157 274.353 241.523 275.469L262.887 306.748ZM250.346 279.157C265.396 282.815 269 302.572 256.21 311.308L234.846 280.03C220.551 289.794 224.579 311.875 241.4 315.964L250.346 279.157ZM253.938 281.038C255.916 280.852 257.912 280.996 259.843 281.465L250.896 318.272C253.054 318.797 255.285 318.958 257.496 318.749L253.938 281.038ZM286.658 278.208C285.551 278.135 284.481 278.156 283.457 278.253L287.015 315.964C286.104 316.05 285.142 316.07 284.147 316.004L286.658 278.208ZM312.653 275.703C313.48 275.019 314.366 274.411 315.302 273.886L333.835 306.921C334.881 306.335 335.872 305.655 336.796 304.89L312.653 275.703ZM321.771 277.446C321.503 271.822 323.899 266.401 328.237 262.812L352.38 291.999C357.229 287.988 359.906 281.929 359.607 275.644L321.771 277.446ZM340.333 291.18C330.465 291.65 322.085 284.032 321.615 274.164L359.451 272.362C358.925 261.333 349.559 252.819 338.53 253.344L340.333 291.18ZM328.03 253.844C324.93 253.992 321.907 254.859 319.2 256.378L337.733 289.413C335.311 290.772 332.606 291.548 329.833 291.68L328.03 253.844ZM338.741 245.317C340.178 244.635 341.496 243.8 342.684 242.846L318.972 213.308C320.032 212.457 321.214 211.707 322.503 211.096L338.741 245.317ZM308.291 258.614C310.427 258.441 312.589 257.921 314.675 257.009L299.51 222.299C301.383 221.48 303.324 221.014 305.229 220.86L308.291 258.614ZM246.185 221.961C231.91 227.487 228.631 246.788 241.238 256.448L264.277 226.382C275.593 235.053 272.617 252.346 259.859 257.285L246.185 221.961ZM277.512 212.427C275.938 212.537 274.382 212.833 272.877 213.309L284.302 249.423C282.955 249.849 281.563 250.114 280.155 250.213L277.512 212.427ZM302.811 211.587C304.596 210.846 306.489 210.4 308.417 210.265L311.059 248.051C313.214 247.901 315.33 247.402 317.325 246.575L302.811 211.587ZM334.898 241.132C318.14 240.882 310.897 219.79 323.968 209.298L347.679 238.837C362.287 227.11 354.193 203.536 335.462 203.257L334.898 241.132ZM310.206 211.864C314.162 210.426 317.563 207.778 319.925 204.294L288.575 183.035C290.688 179.919 293.731 177.548 297.27 176.263L310.206 211.864ZM287.453 219.815C288.586 219.614 289.7 219.315 290.781 218.922L277.845 183.321C278.813 182.969 279.81 182.702 280.823 182.521L287.453 219.815ZM260.184 223.706C262.224 223.977 264.293 223.932 266.319 223.572L259.69 186.278C261.502 185.956 263.354 185.915 265.179 186.158L260.184 223.706ZM232.136 214.068C235.358 218.279 240.12 221.037 245.376 221.736L250.371 184.188C255.074 184.814 259.335 187.282 262.218 191.05L232.136 214.068ZM244.255 175.422C227.007 174.338 216.789 194.011 227.128 207.524L257.21 184.505C266.453 196.584 257.326 214.197 241.879 213.226L244.255 175.422ZM285.97 171.462C286.762 171.121 287.617 170.821 288.529 170.583L298.086 207.236C299.101 206.972 300.053 206.638 300.942 206.255L285.97 171.462ZM295.391 169.49C297.186 167.348 299.459 165.657 302.027 164.552L317 199.346C319.869 198.111 322.41 196.22 324.417 193.826L295.391 169.49ZM265.604 115.957C263.635 117.743 261.293 119.067 258.748 119.833L247.823 83.5645C244.979 84.4213 242.361 85.9012 240.16 87.8966L265.604 115.957ZM244.82 130.733C248.491 130.065 251.902 128.382 254.666 125.875L229.223 97.8144C231.696 95.5717 234.748 94.0659 238.033 93.4677L244.82 130.733ZM238.753 131.375C237.513 131.909 236.216 132.3 234.888 132.542L228.101 95.2765C226.616 95.5469 225.167 95.9846 223.781 96.5811L238.753 131.375ZM242.565 107.152C248.481 116.448 244.666 128.83 234.545 133.186L219.572 98.392C208.26 103.26 203.997 117.099 210.609 127.489L242.565 107.152ZM227.939 107.202C235.444 105.262 243.345 108.377 247.506 114.917L215.55 135.253C220.202 142.562 229.032 146.044 237.42 143.875L227.939 107.202ZM254.968 98.6423C255.963 97.9698 257.023 97.3992 258.132 96.9392L272.644 131.928C273.883 131.414 275.068 130.776 276.18 130.024L254.968 98.6423ZM267.256 117.029C258.681 109.233 259.669 95.4643 269.272 88.9739L290.484 120.356C301.215 113.102 302.321 97.7136 292.736 89.0004L267.256 117.029ZM285.442 82.3695C280.245 77.646 272.952 75.995 266.228 78.0204L277.153 114.289C271.137 116.101 264.611 114.624 259.962 110.398L285.442 82.3695ZM306.592 153.625C300.2 156.914 292.545 156.033 287.086 151.571L311.057 122.242C304.949 117.25 296.399 116.272 289.263 119.943L306.592 153.625ZM228.699 145.985C246.525 149.55 248.285 174.347 231.141 180.393L218.542 144.671C199.381 151.429 201.348 179.144 221.271 183.128L228.699 145.985ZM247.881 151.528C250.418 150.911 253.059 150.856 255.619 151.368L248.192 188.511C251.053 189.084 254.005 189.022 256.84 188.332L247.881 151.528ZM263.388 148.751C265.123 147.641 266.967 146.882 268.802 146.436L277.762 183.239C279.822 182.738 281.874 181.892 283.804 180.657L263.388 148.751ZM318.896 156.184C323.237 151.755 325.241 145.525 324.227 139.355C323.31 133.77 320.224 129.735 317.228 127.286L293.257 156.615C290.585 154.431 287.71 150.733 286.85 145.495C285.893 139.672 287.799 133.796 291.848 129.667L318.896 156.184ZM80.3861 310.492C83.2249 311.746 86.3168 312.322 89.4168 312.175L87.6144 274.339C90.3881 274.207 93.1545 274.722 95.6945 275.845L80.3861 310.492ZM158.235 280.131C156.502 279.175 154.636 278.482 152.699 278.074L144.893 315.139C143.16 314.774 141.491 314.154 139.94 313.299L158.235 280.131ZM162.207 320.43C178.563 314.761 180.473 292.397 165.315 284.036L147.021 317.204C133.459 309.723 135.168 289.713 149.802 284.641L162.207 320.43ZM146.448 324.734C148.669 324.731 150.874 324.358 152.973 323.631L140.568 287.841C142.445 287.191 144.418 286.857 146.406 286.855L146.448 324.734ZM119.657 324.534C118.672 324.694 117.714 324.766 116.798 324.767L116.755 286.888C115.727 286.89 114.66 286.97 113.565 287.148L119.657 324.534ZM71.5021 223.747C72.8432 224.233 74.0914 224.867 75.2269 225.613L54.4307 257.272C55.7036 258.108 57.0951 258.815 58.5907 259.357L71.5021 223.747ZM151.963 218.204C136.678 220.638 125.919 203.972 133.971 191.07L166.105 211.125C175.113 196.691 163.072 178.078 146.004 180.797L151.963 218.204ZM94.5523 179.768C77.6973 163.168 49.3338 185.423 64.7517 205.873L94.9974 183.07C109.003 201.647 83.1569 221.71 67.9731 206.756L94.5523 179.768ZM141.76 93.2781C139.38 91.501 136.633 90.2766 133.72 89.6941L126.292 126.837C123.686 126.316 121.229 125.221 119.099 123.63L141.76 93.2781ZM144.408 98.6217C147.735 98.905 150.916 100.114 153.591 102.111L130.93 132.464C133.92 134.696 137.476 136.047 141.194 136.364L144.408 98.6217ZM158.891 100.366C157.454 99.9042 155.97 99.6063 154.467 99.4783L151.253 137.22C149.907 137.106 148.579 136.839 147.294 136.426L158.891 100.366ZM174.941 129.882C180.536 118.911 174.976 105.539 163.252 101.769L151.655 137.828C141.166 134.455 136.191 122.491 141.197 112.675L174.941 129.882ZM149.809 148.743C158.366 150.104 166.825 145.799 170.761 138.081L137.016 120.874C140.537 113.968 148.106 110.116 155.762 111.335L149.809 148.743ZM109.908 138.639C111.087 139.282 112.327 139.804 113.61 140.198L124.729 103.988C125.877 104.341 126.987 104.808 128.041 105.383L109.908 138.639ZM89.5277 99.3749C80.8145 108.96 83.3776 124.173 94.7503 130.374L112.883 97.118C123.059 102.666 125.352 116.278 117.556 124.854L89.5277 99.3749ZM124.187 117.56C119.961 122.209 113.605 124.3 107.444 123.068L114.872 85.9247C107.986 84.5477 100.882 86.8845 96.1585 92.0806L124.187 117.56ZM95.9262 129.847C88.4734 126.871 80.0552 128.658 74.4498 134.208L101.1 161.125C96.0896 166.086 88.5532 167.69 81.8776 165.024L95.9262 129.847ZM169.617 186.282C189.071 180.422 188.394 152.646 168.677 147.741L159.532 184.498C141.891 180.109 141.285 155.257 158.692 150.014L169.617 186.282ZM134.703 194.845C137.591 195.262 140.536 195.042 143.33 194.201L132.405 157.932C134.905 157.179 137.539 156.982 140.123 157.356L134.703 194.845ZM107.132 189.767C109.171 190.813 111.294 191.46 113.393 191.764L118.813 154.275C120.682 154.545 122.59 155.125 124.423 156.065L107.132 189.767ZM94.2777 139.772C98.7003 143.498 101.156 149.166 100.758 155.054C100.399 160.351 97.889 164.304 95.4364 166.733L68.7859 139.815C66.0358 142.538 63.3478 146.848 62.9655 152.495C62.5431 158.733 65.1297 164.745 69.8723 168.741L94.2777 139.772ZM173.311 63.174C171.959 66.0967 171.333 69.3028 171.486 72.5194L209.322 70.717C209.459 73.5951 208.899 76.4637 207.689 79.0787L173.311 63.174ZM218.725 64.7399C219.03 65.6213 219.266 66.5253 219.431 67.4436L182.146 74.1231C182.33 75.1495 182.593 76.1598 182.935 77.145L218.725 64.7399ZM202.618 71.134C199.049 73.9491 196.546 77.8965 195.521 82.3252L232.425 90.8613C231.509 94.8239 229.269 98.3557 226.076 100.875L202.618 71.134ZM226.14 53.7066C224.281 54.4261 222.541 55.4193 220.976 56.6535L244.434 86.394C243.034 87.4983 241.477 88.387 239.814 89.0307L226.14 53.7066ZM272.309 64.05C271.659 50.4201 257.848 41.4319 245.123 46.358L258.797 81.6821C247.412 86.0897 235.054 78.0476 234.473 65.8524L272.309 64.05ZM268.292 88.3236C271.439 84.4938 273.051 79.6316 272.815 74.6803L234.979 76.4828C234.768 72.0527 236.211 67.7023 239.026 64.2757L268.292 88.3236ZM260.36 90.694C260.571 95.124 259.129 99.4745 256.314 102.901L227.048 78.8532C223.901 82.683 222.289 87.5453 222.525 92.4965L260.36 90.694ZM232.083 96.0039C243.466 86.7495 260.536 94.3781 261.234 109.032L223.398 110.834C224.179 127.211 243.257 135.738 255.979 125.394L232.083 96.0039ZM249.54 83.5738C247.173 84.3337 244.968 85.5285 243.039 87.097L266.934 116.488C265.208 117.891 263.235 118.96 261.117 119.64L249.54 83.5738ZM285.174 81.4684C279.945 77.3154 272.988 76.0472 266.631 78.088L278.207 114.154C272.519 115.98 266.294 114.845 261.616 111.13L285.174 81.4684ZM300.769 125.576C311.086 117.658 311.215 102.151 301.031 94.0625L277.472 123.724C268.36 116.486 268.475 102.612 277.707 95.5272L300.769 125.576ZM284.233 133.902C283.169 137.554 280.969 140.772 277.951 143.088L254.889 113.039C251.516 115.628 249.056 119.225 247.867 123.307L284.233 133.902ZM256.298 132.097C269.808 128.325 282.206 140.862 278.282 154.329L241.916 143.734C237.531 158.785 251.387 172.797 266.486 168.58L256.298 132.097ZM275.316 127.105C276.309 126.616 277.344 126.22 278.41 125.923L288.598 162.406C289.789 162.073 290.946 161.631 292.055 161.084L275.316 127.105ZM312.501 122.904C306.424 117.38 297.586 116.134 290.219 119.764L306.958 153.743C300.366 156.99 292.459 155.876 287.022 150.933L312.501 122.904ZM321.961 154.018C327.2 145.845 325.833 135.024 318.578 128.429L293.099 156.457C286.609 150.558 285.391 140.88 290.072 133.577L321.961 154.018ZM288.6 170.667C299.986 166.26 312.344 174.302 312.925 186.497L275.089 188.299C275.738 201.929 289.55 210.917 302.275 205.991L288.6 170.667ZM294.149 170.85C296.079 168.573 298.549 166.816 301.333 165.738L315.008 201.062C318.12 199.857 320.88 197.893 323.038 195.348L294.149 170.85ZM334.254 267.111C339.723 265.128 344.058 260.861 346.126 255.424L310.722 241.957C312.573 237.092 316.451 233.274 321.345 231.5L334.254 267.111ZM316.951 267C315.061 271.745 311.232 275.457 306.43 277.198L293.521 241.587C288.153 243.532 283.874 247.68 281.761 252.984L316.951 267ZM328.709 253.115C325.387 253.274 322.158 254.258 319.313 255.979L338.918 288.389C336.373 289.929 333.483 290.809 330.511 290.951L328.709 253.115ZM360.111 271.634C359.586 260.605 350.219 252.091 339.191 252.616L340.993 290.452C331.126 290.922 322.745 283.304 322.275 273.436L360.111 271.634ZM354.973 304.789C359.056 300.796 361.236 295.249 360.964 289.545L323.129 291.347C322.885 286.244 324.836 281.28 328.489 277.708L354.973 304.789ZM273.643 371.937C276.31 371.264 278.81 370.049 280.985 368.366L257.811 338.403C259.758 336.898 261.994 335.81 264.381 335.208L273.643 371.937ZM201.225 351.136C212.185 348.372 222.928 356.339 223.466 367.629L185.631 369.431C186.232 382.049 198.239 390.953 210.488 387.864L201.225 351.136ZM173.202 64.1732C171.948 67.0121 171.372 70.1039 171.519 73.204L209.355 71.4016C209.487 74.1753 208.972 76.9417 207.849 79.4817L173.202 64.1732ZM198.346 77.317C197.555 80.5716 195.866 83.5387 193.472 85.8805L166.988 58.7993C164.311 61.4166 162.424 64.7328 161.54 68.3702L198.346 77.317ZM157.708 104.827C154.29 102.623 151.725 99.3205 150.436 95.463L186.361 83.4574C184.92 79.1461 182.053 75.4546 178.233 72.9915L157.708 104.827ZM146.92 95.0529C143.803 94.8905 140.782 93.915 138.159 92.2236L158.684 60.3878C155.751 58.4974 152.376 57.4073 148.891 57.2257L146.92 95.0529ZM146.237 75.3237C146.741 85.8941 138.008 94.5885 127.44 94.0377L129.411 56.2105C117.599 55.595 107.839 65.3122 108.402 77.1262L146.237 75.3237ZM141.337 69.6253C144.466 72.7687 146.315 76.9623 146.526 81.3924L108.691 83.1948C108.927 88.146 110.993 92.8331 114.49 96.3463L141.337 69.6253ZM160.447 96.1496C160.211 91.1984 158.144 86.5113 154.647 82.9981L127.8 109.719C124.671 106.576 122.822 102.382 122.611 97.952L160.447 96.1496ZM130.272 132.079C143.919 141.166 162.101 130.864 161.32 114.487L123.485 116.29C122.787 101.636 139.054 92.4193 151.265 100.55L130.272 132.079ZM124.61 126.839C122.437 126.363 120.371 125.487 118.52 124.254L139.513 92.7246C137.443 91.3467 135.135 90.3669 132.706 89.8355L124.61 126.839ZM123.304 118.414C119 122.558 112.912 124.279 107.075 123.002L115.171 85.9991C108.648 84.572 101.843 86.4958 97.0328 91.127L123.304 118.414ZM105.803 104.412C115.666 110.588 117.1 124.388 108.717 132.459L82.4453 105.171C73.076 114.192 74.6784 129.616 85.702 136.517L105.803 104.412ZM138.148 129.229C136.576 125.279 133.786 121.932 130.182 119.676L110.081 151.781C106.857 149.762 104.36 146.768 102.954 143.234L138.148 129.229ZM59.5633 267.328C48.5348 267.853 40.0203 277.219 40.5457 288.248L78.3814 286.445C78.8515 296.313 71.2333 304.693 61.3657 305.163L59.5633 267.328ZM101.797 160.452C96.8543 165.89 89.0888 167.751 82.2182 165.145L95.6512 129.728C87.9723 126.816 79.2932 128.896 73.7688 134.973L101.797 160.452ZM71.8659 304.663C69.0922 304.795 66.3258 304.28 63.7858 303.157L79.0942 268.51C76.2554 267.256 73.1636 266.68 70.0635 266.827L71.8659 304.663ZM97.1111 143.466C102.465 150.29 102.172 160.04 96.2724 166.53L68.2441 141.05C61.6489 148.305 61.317 159.207 67.3091 166.845L97.1111 143.466ZM91.847 216.712C104.983 220.406 117.877 210.145 117.228 196.515L79.3924 198.318C78.8114 186.123 90.3486 176.942 102.102 180.248L91.847 216.712ZM89.626 231.825C91.5367 231.797 93.5132 232.077 95.4558 232.714L83.6589 268.708C85.8224 269.417 88.0238 269.73 90.1669 269.699L89.626 231.825ZM70.1658 208.091C72.5559 210.419 75.4908 212.112 78.7028 213.015L88.9575 176.551C91.8314 177.359 94.4573 178.874 96.5959 180.957L70.1658 208.091ZM88.9159 195.646C82.9787 205.542 69.3634 207.309 61.0968 199.257L87.5269 172.123C78.2877 163.124 63.0706 165.099 56.4349 176.159L88.9159 195.646ZM81.8128 183.786C86.8008 189.632 87.4978 198.01 83.5444 204.599L51.0634 185.112C46.6448 192.476 47.4238 201.84 52.9987 208.373L81.8128 183.786ZM95.8132 200.965C96.9599 201.796 98.0039 202.761 98.9232 203.838L70.1091 228.425C71.1365 229.629 72.3033 230.707 73.585 231.636L95.8132 200.965ZM138.253 263.772C125.083 260.068 120.477 243.137 130.918 233.429L156.71 261.169C168.342 250.354 163.243 231.452 148.508 227.308L138.253 263.772ZM114.927 258.787C133.803 257.887 141.008 233.72 125.707 222.63L103.479 253.301C89.7878 243.379 96.2349 221.755 113.124 220.951L114.927 258.787ZM79.1458 258.952C81.6278 259.85 84.2629 260.247 86.8993 260.122L85.0969 222.286C87.4557 222.174 89.8135 222.53 92.0342 223.333L79.1458 258.952ZM69.9681 253.947C67.5419 254.215 65.0866 253.984 62.7532 253.267L73.8729 217.058C71.265 216.257 68.5208 215.998 65.8091 216.298L69.9681 253.947ZM75.2886 243.918C80.3289 245.219 84.5524 248.651 86.8571 253.318L52.8936 270.089C55.4694 275.305 60.1899 279.141 65.8231 280.595L75.2886 243.918ZM340.155 193.998C345.083 186.964 344.968 177.569 339.87 170.657L309.388 193.144C304.826 186.961 304.724 178.554 309.134 172.261L340.155 193.998ZM57.8579 217.176C39.2381 219.233 33.4199 243.471 49.0771 253.756L69.8733 222.097C83.8824 231.299 78.6766 252.985 62.0169 254.826L57.8579 217.176ZM116.735 261.542C114.128 256.462 109.474 252.74 103.945 251.314L94.4799 287.99C89.5337 286.714 85.3693 283.384 83.0366 278.839L116.735 261.542ZM321.873 219.112C323.06 218.066 324.119 216.882 325.028 215.585L294.007 193.849C294.82 192.689 295.767 191.63 296.83 190.693L321.873 219.112ZM110.441 311.174C124.965 310.482 133.915 295.011 127.275 282.076L93.577 299.374C87.6363 287.8 95.6446 273.958 108.639 273.339L110.441 311.174ZM281.497 212.234C298.386 211.429 306.86 232.342 294.174 243.521L269.131 215.102C254.953 227.596 264.423 250.969 283.3 250.07L281.497 212.234ZM93.3091 186.673C96.9544 187.617 100.209 189.687 102.609 192.588L73.422 216.731C76.1044 219.974 79.7419 222.288 83.8161 223.343L93.3091 186.673ZM79.8097 310.218C82.8056 311.66 86.114 312.333 89.4354 312.175L87.6329 274.339C90.6047 274.198 93.5648 274.8 96.2453 276.091L79.8097 310.218ZM355.893 229.745C361.014 216.281 350.645 201.983 336.256 202.669L338.059 240.504C325.185 241.118 315.907 228.325 320.489 216.278L355.893 229.745ZM129.608 198.061C132.12 194.036 136.128 191.174 140.749 190.105L149.291 227.007C154.456 225.812 158.935 222.613 161.743 218.115L129.608 198.061ZM72.5689 290.595C76.5448 293.804 78.9587 298.56 79.2019 303.663L41.3662 305.466C41.6379 311.17 44.3358 316.485 48.7795 320.072L72.5689 290.595ZM302.718 212.601C304.852 211.59 307.165 211.011 309.524 210.899L311.327 248.734C313.963 248.609 316.549 247.962 318.934 246.832L302.718 212.601ZM110.276 191.34C111.303 191.423 112.32 191.594 113.317 191.852L103.824 228.522C104.938 228.811 106.075 229.002 107.222 229.095L110.276 191.34ZM71.8149 303.971C68.8431 304.112 65.883 303.511 63.2025 302.22L79.6381 268.093C76.6423 266.65 73.3338 265.977 70.0125 266.135L71.8149 303.971ZM117.377 258.661C115.965 258.697 114.554 258.566 113.174 258.27L121.113 221.233C119.57 220.902 117.993 220.755 116.415 220.795L117.377 258.661ZM69.4904 253.995C67.1315 254.107 64.7737 253.751 62.553 252.948L75.4414 217.329C72.9595 216.431 70.3243 216.033 67.6879 216.159L69.4904 253.995ZM66.1898 318.476C67.1824 319.149 68.2335 319.731 69.3306 320.216L84.639 285.569C85.6206 286.002 86.5611 286.523 87.4492 287.126L66.1898 318.476ZM123.917 176.068C139.349 178.83 151.81 163.564 146.014 148.998L110.82 163.002C105.634 149.969 116.784 136.311 130.591 138.782L123.917 176.068ZM92.5048 216.879C93.4267 217.176 94.4062 217.417 95.4409 217.584L101.471 180.188C102.401 180.338 103.281 180.556 104.102 180.82L92.5048 216.879ZM207.146 159.495C189.738 157 186.004 133.515 201.78 125.743L218.519 159.723C236.15 151.037 231.977 124.789 212.521 122L207.146 159.495ZM141.853 341.741C144.286 342.113 146.616 342.984 148.696 344.297L128.476 376.327C130.801 377.795 133.405 378.768 136.124 379.184L141.853 341.741ZM126.196 193.473C127.989 193.058 129.836 192.922 131.672 193.071L128.617 230.826C130.668 230.992 132.733 230.84 134.737 230.376L126.196 193.473ZM78.3486 285.752C78.8187 295.62 71.2005 304 61.3329 304.47L59.5305 266.635C48.502 267.16 39.9876 276.526 40.5129 287.555L78.3486 285.752ZM80.0306 258.573C82.0949 259.207 84.2481 259.502 86.4068 259.448L85.4454 221.581C87.3768 221.532 89.3034 221.796 91.1504 222.364L80.0306 258.573ZM74.693 228.684C80.3997 240.241 72.3802 253.857 59.5058 254.47L57.7034 216.635C43.3144 217.32 34.3515 232.538 40.7295 245.455L74.693 228.684ZM40.7021 291.53C41.0015 297.815 44.2427 303.593 49.4506 307.124L70.7101 275.774C75.3698 278.934 78.2698 284.104 78.5377 289.727L40.7021 291.53ZM97.7513 171.036C98.9074 171.475 100.102 171.805 101.319 172.023L107.992 134.737C109.081 134.932 110.15 135.228 111.184 135.62L97.7513 171.036ZM303.541 265.519C306.087 263.98 308.976 263.099 311.948 262.957L313.751 300.793C317.072 300.635 320.301 299.651 323.146 297.93L303.541 265.519ZM67.9731 206.756C70.1874 208.936 72.8819 210.568 75.8405 211.52L87.4378 175.46C90.1133 176.321 92.5499 177.796 94.5523 179.768L67.9731 206.756ZM202.873 155.843C199.684 157.368 196.115 157.914 192.617 157.412L197.992 119.917C194.081 119.357 190.093 119.967 186.529 121.671L202.873 155.843ZM200.507 389.036C212.994 390.946 224.101 380.94 223.5 368.323L185.664 370.125C185.126 358.836 195.064 349.883 206.237 351.593L200.507 389.036Z" fill="#362626" mask="url(#path-1-outside-1_389_369)"/>
</svg>
