<svg width="400" height="400" viewBox="0 0 400 400" fill="none" xmlns="http://www.w3.org/2000/svg">
<g clip-path="url(#clip0_205_69)">
<path d="M287.137 30.5962L308.103 92.0935C309.859 97.2456 313.649 101.454 318.59 103.738L377.566 131.001C381.658 132.893 383.391 137.783 381.402 141.829L352.742 200.139C350.34 205.024 350.045 210.679 351.923 215.788L374.348 276.768C375.904 281 373.671 285.683 369.404 287.137L307.906 308.103C302.754 309.859 298.546 313.649 296.262 318.59L268.999 377.566C267.107 381.658 262.217 383.391 258.171 381.402L199.861 352.742C194.976 350.34 189.321 350.045 184.212 351.923L123.231 374.348C119 375.904 114.317 373.671 112.862 369.404L91.897 307.906C90.1406 302.754 86.3507 298.546 81.4098 296.262L22.4338 268.999C18.3415 267.107 16.6091 262.217 18.5979 258.171L47.2583 199.861C49.6594 194.976 49.955 189.321 48.0764 184.212L25.6522 123.231C24.0961 119 26.3289 114.317 30.5963 112.862L92.0935 91.897C97.2456 90.1406 101.454 86.3507 103.738 81.4098L131.001 22.4338C132.893 18.3415 137.783 16.6091 141.829 18.5979L200.139 47.2583C205.024 49.6594 210.679 49.955 215.788 48.0764L276.769 25.6521C281 24.0961 285.683 26.3289 287.137 30.5962Z" fill="#296C38" stroke="#07573A" stroke-width="11.8759"/>
<path d="M252.181 58.7779C257.749 56.0915 264.416 58.8409 266.472 64.6714L284.11 114.684C285.158 117.656 287.499 119.99 290.474 121.028L340.542 138.508C346.379 140.546 349.149 147.205 346.48 152.782L323.588 200.618C322.228 203.46 322.233 206.766 323.602 209.604L346.645 257.368C349.331 262.936 346.582 269.603 340.751 271.659L290.739 289.297C287.767 290.345 285.433 292.686 284.394 295.661L266.914 345.729C264.876 351.566 258.218 354.336 252.641 351.667L204.805 328.775C201.963 327.415 198.657 327.42 195.819 328.789L148.055 351.832C142.487 354.518 135.82 351.769 133.763 345.938L116.126 295.926C115.078 292.954 112.736 290.62 109.762 289.581L59.6938 272.101C53.8568 270.063 51.0865 263.405 53.7554 257.828L76.648 209.992C78.0082 207.15 78.003 203.844 76.6339 201.006L53.5909 153.242C50.9045 147.674 53.6539 141.007 59.4845 138.95L109.497 121.313C112.469 120.265 114.803 117.923 115.841 114.949L133.322 64.8808C135.359 59.0438 142.018 56.2735 147.595 58.9423L195.431 81.8349C198.273 83.1951 201.579 83.1899 204.417 81.8208L252.181 58.7779Z" fill="#2E7E40"/>
<path d="M260.872 66.6463L278.51 116.659C280.158 121.331 283.839 125.001 288.517 126.634L338.585 144.115C341.081 144.986 342.266 147.834 341.124 150.218L318.232 198.054C316.093 202.523 316.101 207.722 318.254 212.184L341.297 259.948C342.446 262.329 341.27 265.18 338.776 266.059L288.764 283.697C284.092 285.345 280.421 289.026 278.788 293.704L261.308 343.772C260.437 346.268 257.589 347.453 255.204 346.311L207.369 323.419C202.9 321.28 197.701 321.288 193.239 323.441L145.475 346.484C143.094 347.633 140.243 346.457 139.363 343.963L121.726 293.951C120.078 289.279 116.396 285.608 111.719 283.975L61.6511 266.495C59.155 265.624 57.9703 262.776 59.1116 260.391L82.0042 212.555C84.1429 208.087 84.1347 202.888 81.982 198.426L58.939 150.662C57.7902 148.281 58.966 145.43 61.4594 144.55L111.472 126.913C116.144 125.265 119.814 121.583 121.447 116.906L138.928 66.838C139.799 64.3419 142.647 63.1572 145.031 64.2985L192.867 87.1911C197.336 89.3298 202.535 89.3216 206.997 87.1689L254.761 64.126C257.142 62.9772 259.993 64.1529 260.872 66.6463Z" stroke="#0A5339" stroke-opacity="0.5" stroke-width="11.8759"/>
<path d="M260.755 61.3416L278.392 111.354C280.04 116.026 283.722 119.697 288.399 121.33L338.467 138.81C340.963 139.681 342.148 142.529 341.007 144.914L318.114 192.75C315.975 197.218 315.983 202.417 318.136 206.879L341.179 254.643C342.328 257.024 341.152 259.875 338.659 260.755L288.646 278.392C283.974 280.04 280.304 283.722 278.671 288.399L261.19 338.467C260.319 340.963 257.472 342.148 255.087 341.007L207.251 318.114C202.782 315.975 197.583 315.983 193.121 318.136L145.357 341.179C142.976 342.328 140.125 341.152 139.246 338.659L121.608 288.646C119.96 283.974 116.279 280.304 111.601 278.671L61.5334 261.19C59.0373 260.319 57.8526 257.471 58.9939 255.087L81.8865 207.251C84.0252 202.782 84.017 197.583 81.8643 193.121L58.8214 145.357C57.6726 142.976 58.8483 140.125 61.3417 139.246L111.354 121.608C116.027 119.96 119.697 116.279 121.33 111.601L138.81 61.5333C139.681 59.0372 142.529 57.8525 144.914 58.9938L192.75 81.8865C197.219 84.0251 202.417 84.017 206.879 81.8642L254.643 58.8213C257.024 57.6725 259.875 58.8482 260.755 61.3416Z" fill="#2E7E40" stroke="#0A5F40" stroke-width="11.8759"/>
<path d="M228.705 95.8757C233.152 94.2924 238.108 95.9113 240.763 99.8147L260.888 129.405C261.925 130.929 263.35 132.15 265.016 132.941L297.341 148.293C301.606 150.319 303.965 154.967 303.082 159.605L296.39 194.759C296.045 196.571 296.189 198.442 296.808 200.179L308.81 233.892C310.393 238.339 308.774 243.295 304.871 245.95L275.281 266.075C273.756 267.112 272.535 268.537 271.744 270.203L256.392 302.528C254.367 306.793 249.718 309.152 245.08 308.269L209.926 301.577C208.115 301.232 206.244 301.376 204.507 301.995L170.794 313.997C166.346 315.58 161.391 313.961 158.736 310.058L138.61 280.468C137.573 278.943 136.148 277.722 134.482 276.931L102.157 261.579C97.8928 259.554 95.5334 254.905 96.4162 250.267L103.108 215.113C103.453 213.301 103.309 211.431 102.691 209.693L90.6887 175.98C89.1055 171.533 90.7243 166.578 94.6278 163.923L124.218 143.797C125.743 142.76 126.963 141.335 127.754 139.669L143.107 107.344C145.132 103.08 149.781 100.72 154.418 101.603L189.572 108.295C191.384 108.64 193.255 108.496 194.992 107.878L228.705 95.8757Z" fill="#339148"/>
<path d="M235.853 103.154L255.978 132.744C257.609 135.142 259.849 137.061 262.469 138.305L294.794 153.657C296.618 154.523 297.626 156.511 297.249 158.495L290.557 193.649C290.015 196.497 290.241 199.439 291.214 202.17L303.216 235.883C303.893 237.785 303.2 239.904 301.531 241.04L271.941 261.165C269.544 262.796 267.624 265.036 266.38 267.656L251.028 299.981C250.162 301.804 248.174 302.813 246.191 302.436L211.037 295.744C208.188 295.201 205.247 295.428 202.515 296.401L168.802 308.403C166.9 309.08 164.781 308.387 163.646 306.718L143.52 277.128C141.889 274.731 139.649 272.811 137.03 271.567L104.704 256.215C102.881 255.349 101.872 253.361 102.249 251.378L108.942 216.223C109.484 213.375 109.257 210.434 108.285 207.702L96.2828 173.989C95.6057 172.087 96.298 169.968 97.9673 168.833L127.557 148.707C129.955 147.076 131.874 144.836 133.118 142.217L148.47 109.891C149.336 108.068 151.324 107.059 153.308 107.436L188.462 114.129C191.31 114.671 194.252 114.444 196.983 113.472L230.696 101.47C232.598 100.793 234.717 101.485 235.853 103.154Z" stroke="#0C5B3F" stroke-opacity="0.5" stroke-width="11.8759"/>
<path d="M234.92 101.841L254.196 130.181C255.827 132.579 258.067 134.498 260.686 135.742L291.646 150.446C293.47 151.312 294.479 153.3 294.101 155.283L287.692 188.953C287.15 191.801 287.376 194.743 288.349 197.475L299.844 229.764C300.521 231.666 299.829 233.785 298.159 234.92L269.819 254.196C267.421 255.827 265.502 258.067 264.258 260.686L249.554 291.646C248.688 293.47 246.7 294.479 244.717 294.101L211.047 287.692C208.199 287.149 205.257 287.376 202.526 288.349L170.237 299.844C168.335 300.521 166.216 299.828 165.08 298.159L145.804 269.819C144.174 267.421 141.933 265.502 139.314 264.258L108.354 249.554C106.531 248.688 105.522 246.7 105.899 244.717L112.309 211.047C112.851 208.199 112.624 205.257 111.652 202.526L100.157 170.236C99.4796 168.335 100.172 166.215 101.841 165.08L130.182 145.804C132.579 144.174 134.499 141.933 135.743 139.314L150.446 108.354C151.312 106.53 153.3 105.521 155.284 105.899L188.953 112.309C191.802 112.851 194.743 112.624 197.475 111.652L229.764 100.157C231.666 99.4795 233.785 100.172 234.92 101.841Z" fill="#339148" stroke="#0B6645" stroke-width="11.8759"/>
<path d="M228.826 141.387L238.276 169.253L265.48 180.464L252.458 206.849L263.767 234.013L235.902 243.463L224.691 270.667L198.305 257.645L171.141 268.954L161.692 241.089L134.487 229.878L147.509 203.492L136.2 176.328L164.065 166.879L175.276 139.674L201.662 152.696L228.826 141.387Z" fill="#3EAC56"/>
<path d="M225.243 149.311L232.652 171.159L233.519 173.715L236.013 174.743L257.344 183.533L247.133 204.221L245.939 206.641L246.976 209.131L255.843 230.43L233.995 237.839L231.44 238.706L230.412 241.2L221.621 262.531L200.933 252.32L198.513 251.126L196.023 252.163L174.724 261.03L167.315 239.182L166.448 236.627L163.954 235.599L142.623 226.808L152.834 206.12L154.028 203.701L152.991 201.21L144.124 179.911L165.972 172.502L168.527 171.636L169.555 169.141L178.346 147.811L199.034 158.021L201.454 159.215L203.944 158.178L225.243 149.311Z" stroke="#0B6142" stroke-opacity="0.5" stroke-width="11.8759"/>
<path d="M225.259 144.14L232.668 165.989L233.535 168.544L236.029 169.572L257.36 178.362L247.149 199.051L245.955 201.47L246.992 203.961L255.859 225.259L234.011 232.669L231.456 233.535L230.428 236.03L221.637 257.36L200.949 247.15L198.53 245.956L196.039 246.993L174.74 255.86L167.331 234.011L166.465 231.456L163.97 230.428L142.64 221.638L152.85 200.949L154.044 198.53L153.007 196.039L144.14 174.74L165.988 167.331L168.544 166.465L169.572 163.97L178.362 142.64L199.05 152.85L201.47 154.044L203.96 153.007L225.259 144.14Z" fill="#3EAC56" stroke="#0C6F4B" stroke-width="11.8759"/>
</g>
<defs>
<clipPath id="clip0_205_69">
<rect width="400" height="400" fill="white"/>
</clipPath>
</defs>
</svg>
