<svg width="1001" height="1001" viewBox="0 0 1001 1001" fill="none" xmlns="http://www.w3.org/2000/svg">
<g clip-path="url(#clip0_322_153)">
<path d="M687.677 58.4111L742.853 171.517C749.19 184.507 760.852 194.107 774.818 197.83L896.419 230.243C906.527 232.938 912.894 242.917 911.078 253.22L889.234 377.156C886.726 391.39 890.518 406.012 899.628 417.232L978.953 514.93C985.547 523.052 984.833 534.868 977.308 542.136L886.788 629.562C876.392 639.603 870.865 653.662 871.64 668.094L878.39 793.759C878.951 804.206 871.428 813.345 861.068 814.802L736.448 832.325C722.135 834.338 709.401 842.463 701.545 854.594L633.142 960.227C627.455 969.008 615.996 971.98 606.759 967.07L495.639 907.996C482.877 901.212 467.799 900.3 454.313 905.497L336.884 950.749C327.122 954.511 316.105 950.18 311.518 940.778L256.343 827.672C250.006 814.682 238.343 805.081 224.378 801.359L102.777 768.945C92.6687 766.251 86.3014 756.271 88.1172 745.969L109.961 622.033C112.47 607.799 108.678 593.177 99.5675 581.956L20.2426 484.259C13.6485 476.137 14.363 464.321 21.8878 457.053L112.408 369.626C122.804 359.586 128.33 345.527 127.555 331.095L120.805 205.429C120.244 194.983 127.768 185.844 138.127 184.387L262.748 166.863C277.06 164.851 289.795 156.726 297.651 144.594L366.054 38.9614C371.74 30.1803 383.199 27.2085 392.436 32.1192L503.556 91.1924C516.318 97.9769 531.397 98.8887 544.883 93.6916L662.312 48.4394C672.074 44.6777 683.091 49.0087 687.677 58.4111Z" fill="#296C38" stroke="#07573A" stroke-width="29.6938"/>
<path d="M589.989 127.757C601.67 122.223 615.642 126.133 622.755 136.925L680.012 223.811C683.881 229.682 689.967 233.731 696.877 235.03L799.14 254.262C811.842 256.651 820.848 268.027 820.258 280.939L815.51 384.886C815.189 391.909 817.734 398.763 822.56 403.875L893.988 479.543C902.86 488.942 903.459 503.439 895.393 513.538L830.453 594.842C826.065 600.335 824.096 607.375 824.995 614.349L838.305 717.549C839.958 730.368 831.922 742.448 819.46 745.877L719.134 773.483C712.354 775.348 706.623 779.886 703.252 786.056L653.36 877.37C647.163 888.713 633.561 893.763 621.463 889.212L524.071 852.575C517.49 850.099 510.187 850.401 503.832 853.412L409.796 897.961C398.115 903.495 384.143 899.585 377.031 888.792L319.773 801.907C315.905 796.036 309.818 791.987 302.908 790.687L200.646 771.456C187.943 769.067 178.937 757.691 179.527 744.779L184.275 640.832C184.596 633.808 182.052 626.955 177.225 621.842L105.797 546.175C96.925 536.776 96.3258 522.279 104.392 512.18L169.332 430.876C173.72 425.382 175.69 418.343 174.79 411.369L161.48 308.169C159.827 295.35 167.863 283.269 180.325 279.84L280.652 252.235C287.431 250.369 293.162 245.832 296.534 239.662L346.425 148.347C352.622 137.005 366.224 131.955 378.322 136.506L475.714 173.143C482.295 175.618 489.599 175.316 495.953 172.306L589.989 127.757Z" fill="#2E7E40"/>
<path d="M610.357 145.095L667.615 231.981C673.698 241.212 683.268 247.578 694.133 249.621L796.396 268.853C801.828 269.875 805.679 274.74 805.427 280.261L800.679 384.208C800.174 395.252 804.175 406.028 811.764 414.067L883.191 489.734C886.986 493.754 887.242 499.953 883.792 504.272L818.853 585.576C811.953 594.214 808.856 605.283 810.27 616.248L823.58 719.448C824.287 724.93 820.851 730.096 815.521 731.562L715.195 759.168C704.536 762.101 695.523 769.236 690.223 778.937L640.331 870.252C637.681 875.102 631.864 877.262 626.691 875.316L529.299 838.679C518.951 834.786 507.467 835.261 497.476 839.994L403.44 884.544C398.444 886.91 392.469 885.238 389.428 880.623L332.171 793.737C326.087 784.506 316.517 778.14 305.652 776.096L203.39 756.864C197.958 755.843 194.106 750.978 194.359 745.456L199.107 641.51C199.611 630.466 195.611 619.69 188.022 611.651L116.594 535.983C112.8 531.964 112.543 525.765 115.993 521.446L180.933 440.142C187.832 431.504 190.93 420.435 189.515 409.47L176.205 306.27C175.498 300.788 178.935 295.622 184.264 294.155L284.591 266.549C295.25 263.617 304.262 256.482 309.563 246.78L359.454 155.466C362.104 150.615 367.921 148.456 373.094 150.402L470.487 187.039C480.834 190.931 492.318 190.457 502.309 185.724L596.346 141.174C601.341 138.808 607.316 140.48 610.357 145.095Z" stroke="#0A5339" stroke-opacity="0.5" stroke-width="29.6938"/>
<path d="M605.307 142.153L649.352 212.193C658.359 226.515 673.471 235.88 690.306 237.57L772.629 245.837C786.131 247.193 796.125 259.013 795.217 272.553L789.683 355.105C788.551 371.986 795.272 388.445 807.898 399.707L869.64 454.784C879.767 463.817 880.904 479.254 872.211 489.674L819.21 553.207C808.372 566.199 804.136 583.465 807.73 599.998L825.308 680.847C828.19 694.107 820.037 707.265 806.88 710.585L726.658 730.831C710.253 734.971 696.677 746.45 689.867 761.938L656.565 837.678C651.103 850.1 636.774 855.953 624.177 850.905L547.376 820.131C531.671 813.838 513.94 815.145 499.327 823.672L427.867 865.373C416.147 872.212 401.114 868.524 393.89 857.036L349.845 786.997C340.838 772.675 325.726 763.31 308.891 761.62L226.568 753.353C213.066 751.997 203.072 740.177 203.979 726.637L209.514 644.085C210.646 627.204 203.924 610.745 191.299 599.482L129.557 544.406C119.43 535.373 118.293 519.936 126.986 509.515L179.986 445.983C190.824 432.991 195.061 415.724 191.466 399.192L173.889 318.343C171.006 305.082 179.159 291.925 192.317 288.604L272.539 268.358C288.944 264.218 302.52 252.74 309.33 237.252L342.631 161.512C348.093 149.089 362.423 143.237 375.02 148.285L451.821 179.059C467.526 185.352 485.257 184.045 499.869 175.518L571.33 133.817C583.05 126.978 598.083 130.666 605.307 142.153Z" fill="#2E7E40" stroke="#0A5F40" stroke-width="29.6938"/>
<path d="M635.466 267.828C648.257 265.966 660.466 273.805 664.098 286.209L682.397 348.713C684.373 355.461 689.003 361.118 695.227 364.388L752.881 394.679C764.323 400.691 769.594 414.209 765.241 426.379L743.306 487.702C740.938 494.322 741.359 501.62 744.472 507.924L773.311 566.319C779.034 577.908 775.352 591.942 764.677 599.229L710.887 635.948C705.08 639.912 701.131 646.063 699.944 652.994L688.951 717.187C686.77 729.926 675.542 739.116 662.622 738.737L597.523 736.826C590.495 736.619 583.684 739.275 578.65 744.184L532.025 789.656C522.772 798.68 508.287 799.515 498.058 791.615L446.515 751.804C440.95 747.506 433.879 745.651 426.922 746.664L362.473 756.046C349.683 757.908 337.473 750.069 333.842 737.665L315.543 675.161C313.567 668.413 308.937 662.756 302.713 659.486L245.058 629.195C233.616 623.183 228.346 609.665 232.699 597.495L254.633 536.172C257.001 529.552 256.581 522.254 253.467 515.95L224.629 457.555C218.906 445.966 222.587 431.932 233.262 424.645L287.052 387.926C292.86 383.962 296.809 377.811 297.996 370.881L308.988 306.687C311.17 293.948 322.398 284.758 335.317 285.137L400.417 287.048C407.445 287.255 414.256 284.599 419.289 279.69L465.914 234.218C475.167 225.194 489.652 224.359 499.882 232.259L551.425 272.07C556.989 276.368 564.06 278.223 571.018 277.21L635.466 267.828Z" fill="#339148"/>
<path d="M649.849 290.381L668.148 352.885C671.254 363.495 678.535 372.389 688.322 377.531L745.976 407.823C750.869 410.394 753.123 416.174 751.261 421.379L729.327 482.702C725.603 493.111 726.265 504.586 731.16 514.499L759.999 572.893C762.446 577.849 760.872 583.851 756.307 586.967L702.517 623.685C693.386 629.918 687.176 639.591 685.31 650.488L674.317 714.681C673.384 720.129 668.583 724.059 663.058 723.896L597.959 721.985C586.908 721.661 576.199 725.836 568.284 733.555L521.659 779.027C517.702 782.886 511.508 783.243 507.133 779.865L455.59 740.054C446.841 733.296 435.723 730.379 424.783 731.972L360.335 741.354C354.865 742.15 349.644 738.798 348.09 733.493L329.791 670.989C326.685 660.379 319.405 651.485 309.618 646.343L251.964 616.051C247.071 613.48 244.817 607.7 246.678 602.495L268.613 541.173C272.336 530.763 271.675 519.288 266.779 509.375L237.941 450.981C235.493 446.025 237.068 440.023 241.633 436.907L295.423 400.189C304.554 393.956 310.763 384.283 312.629 373.387L323.622 309.193C324.555 303.745 329.357 299.815 334.881 299.978L399.981 301.889C411.032 302.213 421.741 298.038 429.655 290.319L476.28 244.847C480.237 240.988 486.432 240.631 490.806 244.01L542.349 283.82C551.099 290.578 562.217 293.495 573.157 291.902L637.605 282.52C643.075 281.724 648.296 285.076 649.849 290.381Z" stroke="#0C5B3F" stroke-opacity="0.5" stroke-width="29.6938"/>
<path d="M420.032 282.904L483.078 233.695L551.73 274.723C555.007 276.681 558.78 277.653 562.595 277.521L642.525 274.767L673.95 348.312C675.45 351.823 677.931 354.827 681.095 356.963L747.379 401.717L729.573 479.687C728.723 483.409 728.965 487.297 730.269 490.885L757.588 566.052L697.353 618.666C694.478 621.177 692.388 624.465 691.334 628.134L669.253 705.003L589.597 712.164C585.794 712.505 582.171 713.937 579.162 716.286L516.116 765.495L447.464 724.467C444.187 722.509 440.414 721.537 436.599 721.668L356.669 724.422L325.244 650.877C323.744 647.367 321.263 644.363 318.099 642.227L251.815 597.473L269.621 519.503C270.471 515.781 270.229 511.893 268.925 508.304L241.606 433.138L301.841 380.524C304.716 378.012 306.806 374.725 307.86 371.055L329.941 294.187L409.597 287.026C413.399 286.684 417.022 285.253 420.032 282.904Z" fill="#339148" stroke="#0B6645" stroke-width="29.6938"/>
<path d="M577.697 355.906L606.317 403.942L654.831 431.746L649.75 487.431L672.656 538.441L635.815 580.505L624.363 635.236L569.833 647.611L528.399 685.159L477.009 663.119L421.418 669.141L392.798 621.104L344.284 593.3L349.365 537.615L326.459 486.606L363.3 444.542L374.752 389.811L429.281 377.435L470.716 339.888L522.105 361.928L577.697 355.906Z" fill="#3EAC56"/>
<path d="M593.562 411.542L595.556 414.887L598.935 416.824L639.179 439.889L634.965 486.082L634.611 489.961L636.206 493.513L655.208 535.828L624.646 570.722L622.08 573.652L621.282 577.464L611.783 622.866L566.547 633.133L562.75 633.994L559.864 636.61L525.492 667.757L482.861 649.474L479.282 647.939L475.41 648.358L429.294 653.354L405.552 613.505L403.559 610.159L400.18 608.223L359.935 585.158L364.15 538.964L364.504 535.086L362.909 531.533L343.907 489.218L374.469 454.324L377.035 451.395L377.832 447.583L387.332 402.18L432.567 391.914L436.365 391.052L439.251 388.437L473.623 357.29L516.253 375.573L519.833 377.108L523.704 376.688L569.82 371.693L593.562 411.542Z" stroke="#0B6142" stroke-opacity="0.5" stroke-width="29.6938"/>
<path d="M586.87 396.938L589.265 401.161L593.693 403.153L635.711 422.057L630.542 467.842L629.998 472.666L632.409 476.881L655.291 516.872L624.198 550.874L620.921 554.457L620.395 559.284L615.4 605.088L570.259 614.32L565.503 615.293L562.24 618.888L531.276 653.008L489.33 633.944L484.91 631.936L480.157 632.926L435.052 642.33L412.322 602.252L409.927 598.029L405.499 596.036L363.48 577.132L368.649 531.348L369.194 526.523L366.783 522.309L343.901 482.317L374.994 448.315L378.27 444.732L378.797 439.905L383.791 394.102L428.932 384.87L433.689 383.897L436.952 380.301L467.915 346.181L509.861 365.245L514.282 367.254L519.035 366.263L564.14 356.859L586.87 396.938Z" fill="#3EAC56" stroke="#0C6F4B" stroke-width="29.6938"/>
</g>
<defs>
<clipPath id="clip0_322_153">
<rect width="1000" height="1000" fill="white" transform="translate(0.71875 0.716919)"/>
</clipPath>
</defs>
</svg>
