<svg width="400" height="400" viewBox="0 0 400 400" fill="none" xmlns="http://www.w3.org/2000/svg">
<g clip-path="url(#clip0_205_71)">
<path d="M274.873 21.7439L307.456 79.4115C309.36 82.7822 312.205 85.5255 315.643 87.3065L374.454 117.777C377.841 119.531 379.534 123.419 378.513 127.094L360.776 190.911C359.739 194.641 359.811 198.593 360.982 202.283L381.022 265.414C382.176 269.05 380.625 272.996 377.304 274.873L319.637 307.456C316.266 309.36 313.523 312.205 311.742 315.643L281.271 374.454C279.517 377.841 275.629 379.535 271.954 378.513L208.137 360.776C204.407 359.739 200.456 359.811 196.766 360.982L133.634 381.023C129.998 382.177 126.052 380.625 124.175 377.304L91.5921 319.637C89.6876 316.266 86.8429 313.523 83.4053 311.742L24.5938 281.271C21.2072 279.517 19.5136 275.629 20.535 271.954L38.2722 208.137C39.309 204.407 39.2373 200.456 38.0659 196.766L18.0255 133.634C16.8715 129.998 18.423 126.052 21.7438 124.176L79.4114 91.5922C82.7821 89.6877 85.5254 86.843 87.3064 83.4054L117.777 24.5939C119.531 21.2073 123.419 19.5136 127.094 20.535L190.911 38.2723C194.641 39.309 198.592 39.2374 202.283 38.066L265.414 18.0256C269.05 16.8716 272.996 18.4231 274.873 21.7439Z" fill="#296C38" stroke="#07573A" stroke-width="11.8759"/>
<path d="M236.393 49.9598C240.768 48.1873 245.789 49.5921 248.609 53.3781L280.972 96.8281C282.073 98.307 283.549 99.4656 285.247 100.185L335.138 121.307C339.485 123.147 342.042 127.69 341.359 132.361L333.519 185.969C333.252 187.794 333.477 189.657 334.169 191.366L354.512 241.58C356.284 245.955 354.879 250.976 351.093 253.795L307.643 286.158C306.165 287.26 305.006 288.736 304.287 290.434L283.165 340.325C281.324 344.672 276.781 347.229 272.11 346.546L218.502 338.706C216.678 338.439 214.815 338.663 213.106 339.356L162.892 359.699C158.516 361.471 153.496 360.066 150.676 356.28L118.313 312.83C117.212 311.351 115.736 310.193 114.038 309.474L64.1465 288.352C59.7993 286.511 57.2427 281.968 57.9258 277.297L65.7655 223.689C66.0324 221.864 65.808 220.002 65.1156 218.293L44.7729 168.079C43.0004 163.703 44.4052 158.683 48.1912 155.863L91.6412 123.5C93.1201 122.398 94.2787 120.923 94.9976 119.224L116.12 69.3334C117.96 64.9862 122.503 62.4296 127.175 63.1127L180.782 70.9525C182.607 71.2193 184.47 70.995 186.179 70.3026L236.393 49.9598Z" fill="#2E7E40"/>
<path d="M243.846 56.9251L276.209 100.375C277.941 102.7 280.262 104.522 282.932 105.653L332.823 126.775C334.682 127.562 335.775 129.505 335.483 131.502L327.644 185.11C327.224 187.979 327.577 190.908 328.666 193.596L349.008 243.809C349.766 245.681 349.165 247.827 347.546 249.033L304.096 281.396C301.771 283.128 299.949 285.449 298.819 288.119L277.697 338.01C276.91 339.869 274.967 340.962 272.969 340.67L219.361 332.831C216.492 332.411 213.563 332.764 210.876 333.852L160.662 354.195C158.791 354.953 156.644 354.352 155.438 352.733L123.075 309.283C121.343 306.958 119.023 305.136 116.353 304.006L66.4615 282.884C64.6024 282.097 63.5091 280.154 63.8013 278.156L71.641 224.548C72.0606 221.679 71.7078 218.75 70.6191 216.063L50.2764 165.849C49.5184 163.978 50.1191 161.831 51.7382 160.625L95.1882 128.262C97.5136 126.53 99.3353 124.21 100.466 121.539L121.588 71.6484C122.375 69.7894 124.318 68.6961 126.315 68.9882L179.923 76.8279C182.792 77.2475 185.721 76.8948 188.409 75.806L238.622 55.4633C240.494 54.7053 242.641 55.3061 243.846 56.9251Z" stroke="#0A5339" stroke-opacity="0.5" stroke-width="11.8759"/>
<path d="M241.743 54.8367L269.297 93.0723C271.996 96.8177 275.807 99.6161 280.189 101.069L324.923 115.905C329.612 117.46 332.479 122.191 331.687 127.068L324.134 173.588C323.394 178.145 324.11 182.819 326.181 186.945L347.322 229.066C349.539 233.482 348.221 238.854 344.212 241.743L305.976 269.297C302.231 271.996 299.433 275.807 297.979 280.189L283.144 324.922C281.589 329.612 276.858 332.479 271.981 331.687L225.461 324.134C220.904 323.394 216.23 324.11 212.104 326.181L169.983 347.322C165.566 349.539 160.194 348.221 157.306 344.212L129.752 305.976C127.053 302.231 123.241 299.433 118.86 297.979L74.1263 283.144C69.4364 281.589 66.5698 276.858 67.3617 271.981L74.915 225.461C75.6549 220.904 74.9384 216.23 72.8676 212.104L51.7266 169.982C49.5101 165.566 50.8281 160.194 54.8368 157.306L93.0724 129.752C96.8177 127.053 99.6162 123.241 101.069 118.86L115.905 74.1262C117.46 69.4363 122.191 66.5697 127.068 67.3616L173.588 74.9149C178.145 75.6548 182.819 74.9383 186.945 72.8675L229.066 51.7265C233.482 49.51 238.854 50.828 241.743 54.8367Z" fill="#2E7E40" stroke="#0A5F40" stroke-width="11.8759"/>
<path d="M254.799 106.229C259.502 105.818 263.889 108.635 265.473 113.082L277.486 146.791C278.105 148.528 279.176 150.069 280.588 151.254L307.996 174.263C311.612 177.298 312.723 182.392 310.699 186.657L295.357 218.987C294.566 220.653 294.234 222.499 294.394 224.336L297.505 259.986C297.915 264.689 295.099 269.076 290.652 270.661L256.943 282.673C255.206 283.292 253.665 284.363 252.48 285.775L229.471 313.184C226.436 316.799 221.342 317.91 217.077 315.886L184.747 300.544C183.081 299.753 181.235 299.421 179.398 299.581L143.747 302.693C139.045 303.103 134.658 300.287 133.073 295.84L121.061 262.13C120.442 260.393 119.371 258.853 117.958 257.667L90.5501 234.658C86.9344 231.623 85.8238 226.53 87.8477 222.265L103.19 189.935C103.98 188.269 104.313 186.422 104.152 184.585L101.041 148.935C100.631 144.232 103.447 139.845 107.894 138.26L141.603 126.248C143.34 125.629 144.881 124.558 146.067 123.146L169.075 95.7376C172.111 92.1219 177.204 91.0113 181.469 93.0352L213.799 108.377C215.465 109.168 217.312 109.5 219.149 109.34L254.799 106.229Z" fill="#339148"/>
<path d="M259.88 115.075L271.892 148.784C272.866 151.515 274.549 153.938 276.77 155.802L304.178 178.811C305.725 180.109 306.2 182.287 305.334 184.111L289.992 216.441C288.749 219.06 288.226 221.964 288.478 224.853L291.59 260.503C291.765 262.514 290.561 264.39 288.659 265.067L254.95 277.08C252.218 278.053 249.796 279.737 247.932 281.958L224.923 309.366C223.625 310.912 221.447 311.387 219.623 310.522L187.293 295.179C184.673 293.936 181.77 293.414 178.881 293.666L143.231 296.777C141.22 296.953 139.344 295.748 138.666 293.847L126.654 260.137C125.681 257.406 123.997 254.983 121.776 253.119L94.3679 230.111C92.8217 228.813 92.3468 226.634 93.2123 224.811L108.554 192.481C109.798 189.861 110.32 186.957 110.068 184.069L106.957 148.419C106.781 146.408 107.986 144.531 109.887 143.854L143.597 131.842C146.328 130.868 148.75 129.185 150.615 126.964L173.623 99.5554C174.921 98.0092 177.099 97.5343 178.923 98.3998L211.253 113.742C213.873 114.985 216.776 115.507 219.665 115.255L255.315 112.144C257.326 111.969 259.202 113.173 259.88 115.075Z" stroke="#0C5B3F" stroke-opacity="0.5" stroke-width="11.8759"/>
<path d="M160.28 116.28L192.906 92.9808L228.164 112.063C228.936 112.48 229.771 112.767 230.637 112.911L270.182 119.506L281.621 157.931C281.871 158.772 282.259 159.565 282.769 160.279L306.068 192.905L286.986 228.164C286.568 228.936 286.282 229.771 286.137 230.637L279.542 270.182L241.118 281.62C240.277 281.871 239.483 282.259 238.769 282.769L206.143 306.068L170.884 286.986C170.113 286.568 169.277 286.282 168.412 286.137L128.867 279.542L117.428 241.117C117.178 240.277 116.79 239.483 116.28 238.769L92.981 206.143L112.063 170.884C112.48 170.113 112.767 169.277 112.911 168.412L119.507 128.867L157.931 117.428C158.772 117.178 159.566 116.79 160.28 116.28Z" fill="#339148" stroke="#0B6645" stroke-width="11.8759"/>
<path d="M230.76 142.056L245.482 164.752L265.898 182.501L260.26 208.96L262.147 235.946L239.451 250.669L221.702 271.085L195.244 265.447L168.257 267.334L153.534 244.638L133.118 226.889L138.756 200.43L136.87 173.443L159.566 158.721L177.314 138.305L203.773 143.943L230.76 142.056Z" fill="#3EAC56"/>
<path d="M240.5 167.984L240.955 168.685L241.586 169.234L259.361 184.686L254.453 207.722L254.278 208.54L254.337 209.374L255.979 232.869L236.219 245.687L235.518 246.142L234.969 246.773L219.517 264.548L196.481 259.639L195.663 259.465L194.829 259.523L171.334 261.166L158.516 241.406L158.061 240.705L157.43 240.156L139.655 224.704L144.564 201.668L144.738 200.85L144.68 200.016L143.037 176.521L162.797 163.703L163.498 163.248L164.047 162.617L179.499 144.842L202.535 149.751L203.353 149.925L204.187 149.866L227.683 148.224L240.5 167.984Z" stroke="#0B6142" stroke-opacity="0.5" stroke-width="11.8759"/>
<path d="M237.899 161.985L238.511 162.955L239.439 163.627L258.364 177.329L253.204 200.115L252.951 201.233L253.132 202.365L256.825 225.435L237.063 237.9L236.094 238.511L235.422 239.44L221.72 258.364L198.933 253.204L197.815 252.951L196.683 253.132L173.613 256.825L161.149 237.064L160.537 236.094L159.609 235.422L140.684 221.72L145.844 198.933L146.098 197.815L145.916 196.683L142.223 173.613L161.985 161.149L162.954 160.538L163.627 159.609L177.328 140.685L200.115 145.845L201.233 146.098L202.365 145.917L225.435 142.224L237.899 161.985Z" fill="#3EAC56" stroke="#0C6F4B" stroke-width="11.8759"/>
</g>
<defs>
<clipPath id="clip0_205_71">
<rect width="400" height="400" fill="white"/>
</clipPath>
</defs>
</svg>
