<svg width="1001" height="1001" viewBox="0 0 1001 1001" fill="none" xmlns="http://www.w3.org/2000/svg">
<g clip-path="url(#clip0_322_162)">
<path d="M718.508 77.2179L770.928 230.982C775.32 243.864 784.796 254.385 797.15 260.096L944.61 328.264C954.842 332.994 959.174 345.221 954.201 355.337L882.54 501.132C876.537 513.346 875.797 527.486 880.495 540.26L936.563 692.732C940.453 703.312 934.871 715.02 924.201 718.657L770.437 771.078C757.555 775.47 747.034 784.945 741.323 797.299L673.155 944.759C668.425 954.992 656.198 959.323 646.082 954.35L500.287 882.69C488.073 876.686 473.933 875.947 461.159 880.644L308.687 936.712C298.107 940.603 286.399 935.02 282.761 924.35L230.341 770.586C225.949 757.705 216.473 747.183 204.12 741.472L56.6596 673.305C46.4273 668.575 42.0959 656.348 47.0684 646.231L118.729 500.437C124.733 488.222 125.472 474.082 120.775 461.308L64.7065 308.837C60.8159 298.257 66.3987 286.548 77.0684 282.911L230.832 230.49C243.714 226.099 254.236 216.623 259.947 204.269L328.114 56.8091C332.844 46.5768 345.071 42.2453 355.188 47.2179L500.982 118.879C513.196 124.882 527.337 125.621 540.11 120.924L692.582 64.856C703.162 60.9654 714.871 66.5482 718.508 77.2179Z" fill="#296C38" stroke="#07573A" stroke-width="29.6938"/>
<path d="M631.107 147.681C645.03 140.965 661.7 147.839 666.841 162.417L710.941 287.466C713.561 294.895 719.416 300.732 726.854 303.329L852.04 347.035C866.635 352.13 873.561 368.779 866.888 382.723L809.649 502.328C806.248 509.435 806.261 517.702 809.684 524.797L867.3 644.223C874.016 658.145 867.142 674.816 852.564 679.957L727.515 724.057C720.086 726.677 714.249 732.531 711.652 739.969L667.946 865.156C662.851 879.75 646.202 886.677 632.258 880.004L512.653 822.765C505.546 819.364 497.279 819.377 490.184 822.8L370.759 880.415C356.836 887.132 340.165 880.258 335.024 865.679L290.924 740.631C288.304 733.201 282.45 727.365 275.012 724.768L149.825 681.062C135.231 675.966 128.304 659.318 134.977 645.374L192.216 525.768C195.617 518.662 195.604 510.395 192.181 503.299L134.566 383.874C127.849 369.951 134.723 353.281 149.302 348.14L274.35 304.04C281.78 301.42 287.616 295.565 290.213 288.127L333.919 162.941C339.015 148.346 355.663 141.42 369.607 148.093L489.213 205.332C496.319 208.733 504.586 208.72 511.682 205.297L631.107 147.681Z" fill="#2E7E40"/>
<path d="M652.84 167.355L696.939 292.404C701.059 304.086 710.265 313.263 721.96 317.346L847.146 361.052C853.388 363.231 856.35 370.351 853.496 376.314L796.257 495.919C790.909 507.093 790.93 520.092 796.312 531.249L853.927 650.674C856.8 656.628 853.86 663.757 847.626 665.955L722.578 710.055C710.895 714.175 701.718 723.38 697.635 735.076L653.929 860.262C651.75 866.503 644.63 869.465 638.667 866.612L519.062 809.372C507.888 804.025 494.889 804.045 483.732 809.428L364.307 867.043C358.353 869.915 351.224 866.976 349.026 860.741L304.926 735.693C300.806 724.011 291.601 714.834 279.905 710.751L154.719 667.045C148.478 664.866 145.516 657.746 148.369 651.783L205.609 532.177C210.956 521.003 210.936 508.005 205.553 496.848L147.938 377.423C145.066 371.469 148.005 364.34 154.24 362.142L279.288 318.042C290.97 313.922 300.147 304.716 304.23 293.021L347.936 167.835C350.115 161.593 357.235 158.631 363.198 161.485L482.804 218.724C493.978 224.072 506.976 224.051 518.133 218.669L637.558 161.054C643.512 158.181 650.641 161.121 652.84 167.355Z" stroke="#0A5339" stroke-opacity="0.5" stroke-width="29.6938"/>
<path d="M652.544 154.092L696.643 279.14C700.763 290.822 709.969 299.999 721.664 304.082L846.851 347.789C853.092 349.967 856.054 357.087 853.2 363.05L795.961 482.656C790.613 493.83 790.634 506.828 796.016 517.985L853.632 637.41C856.504 643.364 853.564 650.493 847.33 652.692L722.282 696.791C710.599 700.911 701.422 710.117 697.339 721.812L653.633 846.999C651.454 853.24 644.334 856.202 638.372 853.348L518.766 796.109C507.592 790.761 494.593 790.782 483.437 796.164L364.011 853.78C358.057 856.652 350.929 853.712 348.73 847.478L304.63 722.43C300.51 710.747 291.305 701.57 279.609 697.487L154.423 653.781C148.182 651.602 145.22 644.482 148.073 638.519L205.313 518.914C210.66 507.74 210.64 494.741 205.257 483.585L147.642 364.159C144.77 358.205 147.709 351.077 153.944 348.878L278.992 304.778C290.674 300.658 299.851 291.453 303.934 279.757L347.641 154.571C349.82 148.33 356.939 145.368 362.902 148.221L482.508 205.461C493.682 210.808 506.68 210.788 517.837 205.405L637.262 147.79C643.216 144.918 650.345 147.857 652.544 154.092Z" fill="#2E7E40" stroke="#0A5F40" stroke-width="29.6938"/>
<path d="M572.409 240.438C583.529 236.48 595.919 240.527 602.558 250.287L652.879 324.272C655.472 328.085 659.034 331.137 663.199 333.115L744.023 371.501C754.686 376.564 760.585 388.188 758.377 399.783L741.645 487.681C740.782 492.21 741.143 496.888 742.689 501.232L772.698 585.525C776.657 596.645 772.609 609.036 762.849 615.674L688.864 665.995C685.052 668.588 681.999 672.151 680.021 676.316L641.636 757.14C636.572 767.802 624.949 773.701 613.353 771.494L525.456 754.761C520.926 753.899 516.249 754.259 511.905 755.806L427.611 785.814C416.491 789.773 404.101 785.725 397.463 775.965L347.141 701.981C344.548 698.168 340.986 695.116 336.821 693.138L255.997 654.752C245.335 649.688 239.436 638.065 241.643 626.47L258.376 538.572C259.238 534.043 258.877 529.365 257.331 525.021L227.322 440.727C223.364 429.608 227.411 417.217 237.171 410.579L311.156 360.258C314.969 357.665 318.021 354.102 319.999 349.937L358.384 269.113C363.448 258.451 375.072 252.552 386.667 254.759L474.565 271.492C479.094 272.354 483.771 271.994 488.115 270.447L572.409 240.438Z" fill="#339148"/>
<path d="M590.281 258.637L640.602 332.622C644.68 338.617 650.281 343.416 656.83 346.527L737.654 384.912C742.214 387.077 744.736 392.048 743.792 397.007L727.06 484.904C725.704 492.026 726.271 499.381 728.702 506.211L758.711 590.505C760.404 595.26 758.673 600.559 754.499 603.398L680.515 653.719C674.52 657.796 669.72 663.397 666.61 669.946L628.225 750.77C626.059 755.33 621.088 757.853 616.13 756.909L528.232 740.176C521.11 738.82 513.756 739.387 506.926 741.819L422.632 771.827C417.877 773.52 412.578 771.789 409.739 767.616L359.418 693.631C355.341 687.636 349.739 682.837 343.19 679.726L262.366 641.341C257.807 639.175 255.284 634.205 256.228 629.246L272.961 541.349C274.316 534.227 273.749 526.872 271.318 520.042L241.309 435.748C239.616 430.993 241.347 425.694 245.521 422.855L319.506 372.534C325.501 368.457 330.3 362.855 333.41 356.307L371.796 275.482C373.961 270.923 378.932 268.4 383.89 269.344L471.788 286.077C478.91 287.433 486.265 286.866 493.095 284.434L577.389 254.425C582.144 252.733 587.442 254.464 590.281 258.637Z" stroke="#0C5B3F" stroke-opacity="0.5" stroke-width="29.6938"/>
<path d="M587.951 255.354L636.147 326.214C640.225 332.209 645.826 337.008 652.375 340.119L729.786 376.883C734.345 379.048 736.868 384.019 735.924 388.978L719.898 473.163C718.542 480.285 719.109 487.64 721.541 494.47L750.282 575.204C751.975 579.959 750.244 585.258 746.07 588.097L675.21 636.293C669.215 640.37 664.416 645.971 661.306 652.52L624.541 729.931C622.376 734.49 617.405 737.013 612.446 736.069L528.261 720.043C521.139 718.687 513.784 719.254 506.954 721.686L426.22 750.427C421.465 752.12 416.166 750.389 413.328 746.215L365.132 675.355C361.054 669.36 355.453 664.561 348.904 661.451L271.493 624.686C266.934 622.521 264.411 617.55 265.355 612.592L281.381 528.406C282.737 521.284 282.17 513.929 279.738 507.099L250.997 426.366C249.304 421.61 251.035 416.312 255.209 413.473L326.069 365.277C332.064 361.199 336.863 355.598 339.973 349.049L376.738 271.638C378.903 267.079 383.874 264.556 388.833 265.5L473.018 281.526C480.14 282.882 487.495 282.315 494.325 279.883L575.059 251.142C579.814 249.449 585.113 251.18 587.951 255.354Z" fill="#339148" stroke="#0B6645" stroke-width="29.6938"/>
<path d="M572.713 354.232L596.34 423.905L664.36 451.937L631.801 517.91L660.077 585.829L590.404 609.456L562.373 677.476L496.4 644.917L428.481 673.193L404.854 603.52L336.833 575.489L369.393 509.516L341.116 441.596L410.789 417.97L438.821 349.949L504.794 382.509L572.713 354.232Z" fill="#3EAC56"/>
<path d="M563.754 374.044L582.279 428.673L584.446 435.062L590.683 437.632L644.016 459.611L618.487 511.339L615.501 517.388L618.094 523.616L640.265 576.87L585.636 595.395L579.247 597.562L576.677 603.799L554.698 657.132L502.97 631.603L496.921 628.617L490.693 631.21L437.44 653.381L418.914 598.752L416.748 592.363L410.511 589.793L357.177 567.814L382.707 516.086L385.692 510.037L383.099 503.809L360.928 450.555L415.557 432.03L421.946 429.864L424.516 423.627L446.495 370.293L498.223 395.823L504.272 398.808L510.5 396.215L563.754 374.044Z" stroke="#0B6142" stroke-opacity="0.5" stroke-width="29.6938"/>
<path d="M563.792 361.116L582.317 415.745L584.484 422.134L590.721 424.704L644.054 446.683L618.525 498.411L615.539 504.46L618.132 510.688L640.303 563.942L585.674 582.467L579.286 584.634L576.715 590.871L554.736 644.204L503.009 618.675L496.959 615.689L490.731 618.282L437.478 640.453L418.952 585.824L416.786 579.435L410.549 576.865L357.215 554.886L382.745 503.158L385.73 497.109L383.138 490.881L360.966 437.627L415.596 419.102L421.984 416.936L424.555 410.699L446.533 357.365L498.261 382.895L504.311 385.88L510.538 383.287L563.792 361.116Z" fill="#3EAC56" stroke="#0C6F4B" stroke-width="29.6938"/>
</g>
<defs>
<clipPath id="clip0_322_162">
<rect width="1000" height="1000" fill="white" transform="translate(0.570312 0.716919)"/>
</clipPath>
</defs>
</svg>
