<svg width="400" height="400" viewBox="0 0 400 400" fill="none" xmlns="http://www.w3.org/2000/svg">
    <g clip-path="url(#clip0_17_216)">
    <path d="M273.112 26.6878C280.98 23.1457 290.146 27.5163 292.348 35.8599L304.921 83.5152C306.271 88.6316 310.397 92.5457 315.577 93.6247L363.828 103.674C372.276 105.434 377.122 114.357 373.999 122.401L356.16 168.346C354.245 173.278 355.282 178.87 358.839 182.788L391.967 219.279C397.767 225.668 396.443 235.736 389.188 240.408L347.751 267.092C343.302 269.957 340.854 275.091 341.429 280.351L346.782 329.345C347.719 337.923 340.73 345.29 332.114 344.806L282.906 342.037C277.623 341.74 272.625 344.454 269.998 349.048L245.53 391.831C241.247 399.322 231.262 401.174 224.577 395.718L186.394 364.554C182.294 361.208 176.656 360.467 171.831 362.639L126.888 382.87C119.019 386.412 109.853 382.041 107.652 373.697L95.0786 326.042C93.7287 320.926 89.603 317.012 84.4226 315.933L36.1721 305.883C27.7241 304.124 22.8775 295.2 26.0009 287.156L43.8399 241.212C45.7551 236.279 44.718 230.687 41.1612 226.77L8.03264 190.278C2.23235 183.889 3.55649 173.821 10.8115 169.149L52.249 142.465C56.6978 139.6 59.1455 134.467 58.5708 129.207L53.2182 80.2122C52.281 71.634 59.2701 64.2671 67.8857 64.7518L117.094 67.5201C122.377 67.8173 127.375 65.1031 130.002 60.5097L154.469 17.7261C158.753 10.2354 168.738 8.38354 175.423 13.8398L213.606 45.0032C217.706 48.3491 223.344 49.0906 228.169 46.9186L273.112 26.6878Z" fill="#296C38"/>
    <path d="M286.606 37.3748L299.18 85.03C301.104 92.3219 306.983 97.9002 314.366 99.4379L362.617 109.487C367.473 110.499 370.259 115.628 368.464 120.252L350.625 166.196C347.895 173.227 349.373 181.196 354.442 186.779L387.571 223.27C390.905 226.943 390.144 232.73 385.973 235.416L344.536 262.1C338.195 266.183 334.707 273.499 335.526 280.996L340.879 329.99C341.417 334.921 337.4 339.156 332.448 338.877L283.239 336.109C275.71 335.685 268.588 339.553 264.844 346.1L240.376 388.883C237.913 393.189 232.174 394.254 228.331 391.117L190.148 359.954C184.306 355.185 176.27 354.129 169.393 357.224L124.451 377.455C119.928 379.491 114.659 376.979 113.393 372.183L100.82 324.527C98.8962 317.236 93.0164 311.657 85.6334 310.12L37.3828 300.07C32.5268 299.059 29.7409 293.929 31.5362 289.305L49.3752 243.361C52.1048 236.331 50.6268 228.362 45.5577 222.778L12.4291 186.287C9.09497 182.615 9.85612 176.827 14.0264 174.142L55.4639 147.457C61.8043 143.374 65.2927 136.059 64.4736 128.562L59.121 79.5673C58.5823 74.6364 62.5998 70.4018 67.5522 70.6804L116.76 73.4487C124.29 73.8723 131.412 70.004 135.156 63.4575L159.624 20.674C162.086 16.3682 167.826 15.3037 171.668 18.4401L209.852 49.6035C215.694 54.3719 223.73 55.4288 230.607 52.3332L275.549 32.1025C280.072 30.0664 285.341 32.5787 286.606 37.3748Z" stroke="#06452E" stroke-opacity="0.5" stroke-width="11.8759"/>
    <path d="M286.606 28.596L299.18 76.2512C301.104 83.5431 306.983 89.1214 314.366 90.6591L362.617 100.709C367.473 101.72 370.259 106.849 368.464 111.473L350.625 157.418C347.895 164.448 349.373 172.417 354.442 178L387.571 214.492C390.905 218.164 390.144 223.951 385.973 226.637L344.536 253.321C338.195 257.404 334.707 264.72 335.526 272.217L340.879 321.211C341.417 326.142 337.4 330.377 332.448 330.098L283.239 327.33C275.71 326.906 268.588 330.775 264.844 337.321L240.376 380.105C237.913 384.41 232.174 385.475 228.331 382.339L190.148 351.175C184.306 346.407 176.27 345.35 169.393 348.445L124.451 368.676C119.928 370.712 114.659 368.2 113.393 363.404L100.82 315.749C98.8962 308.457 93.0164 302.878 85.6334 301.341L37.3828 291.291C32.5268 290.28 29.7409 285.15 31.5362 280.527L49.3752 234.582C52.1048 227.552 50.6268 219.583 45.5577 213.999L12.4291 177.508C9.09497 173.836 9.85612 168.048 14.0264 165.363L55.4639 138.679C61.8043 134.596 65.2927 127.28 64.4736 119.783L59.121 70.7885C58.5823 65.8576 62.5998 61.623 67.5522 61.9016L116.76 64.6699C124.29 65.0935 131.412 61.2252 135.156 54.6787L159.624 11.8952C162.086 7.58939 167.826 6.52491 171.668 9.66125L209.852 40.8247C215.694 45.5931 223.73 46.65 230.607 43.5544L275.549 23.3237C280.072 21.2876 285.341 23.7999 286.606 28.596Z" fill="#296C38" stroke="#07573A" stroke-width="11.8759"/>
    <path d="M250.971 56.4462C256.861 53.0559 264.366 56.1508 266.155 62.7077L276.898 102.094C278.022 106.216 281.559 109.228 285.809 109.68L326.404 114.002C333.163 114.722 337.415 121.637 335.008 127.993L320.549 166.172C319.036 170.168 320.127 174.683 323.299 177.547L353.601 204.905C358.646 209.459 358.021 217.553 352.338 221.281L318.199 243.669C314.626 246.013 312.855 250.307 313.738 254.488L322.172 294.432C323.576 301.082 318.314 307.264 311.525 306.938L270.747 304.985C266.479 304.78 262.522 307.214 260.778 311.115L244.123 348.388C241.35 354.594 233.459 356.501 228.158 352.248L196.316 326.698C192.983 324.024 188.352 323.667 184.648 325.798L149.265 346.164C143.375 349.554 135.87 346.459 134.081 339.902L123.338 300.516C122.213 296.393 118.676 293.382 114.427 292.93L73.8314 288.607C67.0732 287.888 62.8206 280.973 65.2277 274.617L79.6869 236.438C81.2003 232.442 80.1088 227.927 76.9371 225.063L46.6348 197.705C41.5902 193.15 42.2144 185.056 47.8977 181.329L82.0365 158.941C85.6097 156.597 87.3806 152.303 86.4978 148.122L78.0635 108.177C76.6594 101.527 81.922 95.3461 88.7106 95.6713L129.489 97.6249C133.757 97.8293 137.714 95.396 139.458 91.4947L156.113 54.2213C158.886 48.0161 166.776 46.1086 172.077 50.362L203.92 75.9114C207.252 78.5856 211.884 78.9428 215.587 76.8113L250.971 56.4462Z" fill="#2E7E40"/>
    <path d="M260.426 64.2703L271.169 103.657C272.937 110.139 278.499 114.873 285.18 115.585L325.776 119.907C328.666 120.215 330.484 123.172 329.455 125.89L314.996 164.069C312.616 170.352 314.333 177.452 319.32 181.954L349.622 209.312C351.779 211.26 351.512 214.721 349.082 216.315L314.943 238.704C309.325 242.388 306.54 249.141 307.928 255.715L316.362 295.659C316.963 298.503 314.712 301.146 311.809 301.007L271.031 299.054C264.32 298.732 258.098 302.558 255.357 308.693L238.702 345.966C237.516 348.619 234.141 349.435 231.875 347.616L200.032 322.067C194.792 317.862 187.509 317.3 181.686 320.652L146.303 341.017C143.784 342.467 140.575 341.143 139.81 338.339L129.067 298.953C127.298 292.471 121.737 287.736 115.056 287.025L74.4601 282.703C71.57 282.395 69.7514 279.438 70.7808 276.72L85.24 238.541C87.6195 232.258 85.9033 225.158 80.9163 220.656L50.614 193.297C48.4567 191.35 48.7237 187.888 51.1541 186.294L85.2929 163.906C90.9112 160.221 93.6957 153.469 92.3077 146.895L83.8734 106.951C83.2729 104.107 85.5234 101.463 88.4265 101.602L129.205 103.556C135.916 103.878 142.138 100.051 144.879 93.9172L161.534 56.6438C162.72 53.9902 166.094 53.1745 168.361 54.9934L200.204 80.5428C205.444 84.7476 212.726 85.3092 218.549 81.9577L253.933 61.5926C256.452 60.1428 259.661 61.4663 260.426 64.2703Z" stroke="#0A5339" stroke-opacity="0.5" stroke-width="11.8759"/>
    <path d="M260.308 58.9656L271.052 98.352C272.82 104.834 278.381 109.569 285.062 110.28L325.658 114.602C328.548 114.91 330.367 117.867 329.337 120.585L314.878 158.764C312.499 165.047 314.215 172.147 319.202 176.649L349.504 204.008C351.661 205.955 351.394 209.417 348.964 211.011L314.825 233.399C309.207 237.084 306.422 243.836 307.81 250.41L316.245 290.354C316.845 293.198 314.595 295.842 311.692 295.703L270.913 293.749C264.202 293.428 257.98 297.254 255.239 303.388L238.584 340.661C237.398 343.315 234.024 344.131 231.757 342.312L199.915 316.762C194.674 312.557 187.392 311.996 181.569 315.347L146.185 335.712C143.666 337.162 140.457 335.839 139.692 333.035L128.949 293.648C127.181 287.166 121.619 282.432 114.938 281.72L74.3424 277.398C71.4523 277.091 69.6337 274.133 70.6631 271.415L85.1223 233.236C87.5019 226.953 85.7856 219.853 80.7986 215.351L50.4963 187.993C48.339 186.045 48.606 182.584 51.0364 180.99L85.1752 158.601C90.7935 154.917 93.5781 148.164 92.19 141.59L83.7557 101.646C83.1552 98.8021 85.4057 96.1587 88.3088 96.2978L129.087 98.2513C135.798 98.5728 142.02 94.7467 144.761 88.6125L161.416 51.3391C162.602 48.6855 165.977 47.8698 168.244 49.6887L200.086 75.2382C205.326 79.4429 212.609 80.0045 218.432 76.653L253.815 56.2879C256.334 54.8381 259.543 56.1616 260.308 58.9656Z" fill="#2E7E40" stroke="#0A5F40" stroke-width="11.8759"/>
    <path d="M227.952 92.6935C232.715 90.6827 238.231 92.4847 240.887 96.9191L254.274 119.263C255.719 121.676 258.082 123.398 260.821 124.036L286.189 129.943C291.224 131.116 294.627 135.816 294.17 140.965L291.867 166.91C291.618 169.711 292.517 172.493 294.358 174.619L311.409 194.31C314.793 198.218 314.784 204.021 311.388 207.918L294.274 227.554C292.426 229.674 291.518 232.453 291.758 235.255L293.979 261.208C294.42 266.358 291.001 271.047 285.963 272.204L260.575 278.031C257.835 278.66 255.467 280.374 254.014 282.782L240.556 305.084C237.885 309.51 232.363 311.294 227.607 309.268L203.644 299.06C201.057 297.958 198.133 297.953 195.542 299.047L171.546 309.179C166.784 311.19 161.268 309.388 158.611 304.953L145.224 282.609C143.779 280.197 141.416 278.474 138.678 277.837L113.309 271.929C108.274 270.756 104.871 266.056 105.328 260.907L107.632 234.962C107.88 232.161 106.981 229.379 105.14 227.253L88.0891 207.562C84.7051 203.654 84.7143 197.852 88.1107 193.955L105.225 174.318C107.072 172.198 107.98 169.419 107.74 166.617L105.52 140.665C105.079 135.514 108.497 130.825 113.535 129.668L138.923 123.842C141.664 123.212 144.032 121.498 145.485 119.09L158.943 96.7886C161.613 92.3627 167.135 90.5783 171.891 92.6042L195.855 102.813C198.442 103.915 201.365 103.919 203.956 102.825L227.952 92.6935Z" fill="#339148"/>
    <path d="M235.794 99.9709L249.18 122.315C251.453 126.108 255.168 128.816 259.474 129.819L284.843 135.727C286.996 136.228 288.451 138.238 288.256 140.44L285.952 166.385C285.561 170.79 286.975 175.164 289.869 178.506L306.92 198.197C308.368 199.868 308.364 202.35 306.911 204.016L289.797 223.653C286.892 226.986 285.465 231.356 285.842 235.761L288.062 261.714C288.251 263.917 286.789 265.922 284.635 266.416L259.247 272.243C254.938 273.232 251.214 275.928 248.93 279.714L235.472 302.016C234.33 303.908 231.968 304.671 229.935 303.805L205.971 293.597C201.903 291.864 197.306 291.857 193.233 293.577L169.236 303.708C167.2 304.568 164.841 303.798 163.705 301.901L150.318 279.557C148.046 275.764 144.331 273.056 140.024 272.053L114.656 266.146C112.503 265.644 111.047 263.634 111.243 261.432L113.546 235.487C113.937 231.083 112.524 226.708 109.629 223.366L92.5779 203.675C91.1308 202.004 91.1347 199.522 92.5872 197.856L109.701 178.22C112.606 174.886 114.034 170.516 113.657 166.111L111.436 140.158C111.247 137.956 112.709 135.95 114.864 135.456L140.251 129.629C144.561 128.64 148.284 125.944 150.569 122.158L164.027 99.8566C165.169 97.9639 167.53 97.2008 169.564 98.0672L193.528 108.275C197.595 110.008 202.192 110.016 206.266 108.296L230.262 98.1638C232.299 97.3039 234.657 98.0745 235.794 99.9709Z" stroke="#0C5B3F" stroke-opacity="0.5" stroke-width="11.8759"/>
    <path d="M234.861 98.6577L247.59 119.905C249.863 123.697 253.578 126.405 257.884 127.408L282.007 133.026C284.16 133.527 285.615 135.537 285.42 137.739L283.229 162.41C282.838 166.815 284.252 171.189 287.146 174.531L303.36 193.255C304.807 194.926 304.803 197.408 303.351 199.074L287.078 217.746C284.173 221.08 282.745 225.449 283.122 229.855L285.234 254.533C285.422 256.735 283.96 258.741 281.806 259.235L257.665 264.776C253.356 265.765 249.632 268.461 247.348 272.247L234.551 293.453C233.409 295.346 231.047 296.109 229.014 295.242L206.227 285.536C202.159 283.803 197.562 283.795 193.489 285.515L170.671 295.15C168.634 296.009 166.276 295.239 165.139 293.343L152.41 272.096C150.138 268.303 146.423 265.595 142.117 264.592L117.994 258.974C115.841 258.473 114.385 256.463 114.581 254.261L116.771 229.59C117.162 225.186 115.749 220.811 112.854 217.469L96.6403 198.745C95.1932 197.074 95.1971 194.592 96.6495 192.926L112.923 174.254C115.828 170.921 117.255 166.551 116.879 162.145L114.767 137.467C114.578 135.265 116.04 133.26 118.195 132.765L142.335 127.224C146.645 126.235 150.368 123.539 152.653 119.753L165.45 98.5472C166.592 96.6545 168.953 95.8914 170.987 96.7578L193.774 106.465C197.842 108.198 202.439 108.205 206.512 106.485L229.33 96.8507C231.366 95.9908 233.725 96.7614 234.861 98.6577Z" fill="#339148" stroke="#0B6645" stroke-width="11.8759"/>
    <path d="M228.826 137.387L235.34 162.359L260.809 166.522L251.4 190.553L269.558 208.891L247.821 222.803L251.733 248.312L225.97 246.79L214.141 269.726L194.193 253.352L171.141 264.954L164.628 239.982L139.159 235.819L148.567 211.788L130.409 193.45L152.146 179.539L148.235 154.029L173.997 155.552L185.827 132.615L205.774 148.99L228.826 137.387Z" fill="#3EAC56"/>
    <path d="M224.935 145.994L229.594 163.858L230.569 167.596L234.382 168.219L252.602 171.197L245.871 188.388L244.462 191.986L247.181 194.731L260.17 207.85L244.621 217.801L241.367 219.884L241.952 223.702L244.75 241.951L226.321 240.862L222.464 240.634L220.693 244.068L212.23 260.475L197.961 248.762L194.975 246.311L191.524 248.048L175.033 256.348L170.374 238.484L169.399 234.745L165.586 234.122L147.366 231.144L154.097 213.953L155.505 210.356L152.787 207.61L139.797 194.492L155.347 184.54L158.601 182.458L158.015 178.639L155.217 160.39L173.647 161.479L177.504 161.707L179.275 158.274L187.737 141.866L202.007 153.579L204.993 156.031L208.444 154.294L224.935 145.994Z" stroke="#0B6142" stroke-opacity="0.5" stroke-width="11.8759"/>
    <path d="M224.951 140.823L229.61 158.687L230.585 162.425L234.398 163.048L252.618 166.026L245.887 183.217L244.479 186.815L247.197 189.56L260.187 202.679L244.637 212.63L241.383 214.713L241.968 218.532L244.766 236.78L226.337 235.691L222.48 235.463L220.709 238.897L212.247 255.305L197.977 243.591L194.991 241.14L191.54 242.877L175.049 251.177L170.39 233.313L169.415 229.575L165.602 228.951L147.382 225.973L154.113 208.783L155.521 205.185L152.803 202.44L139.813 189.321L155.363 179.369L158.617 177.287L158.032 173.468L155.234 155.22L173.663 156.309L177.52 156.537L179.291 153.103L187.753 136.695L202.023 148.409L205.009 150.86L208.46 149.123L224.951 140.823Z" fill="#3EAC56" stroke="#0C6F4B" stroke-width="11.8759"/>
    </g>
    <defs>
    <clipPath id="clip0_17_216">
    <rect width="400" height="400" fill="white"/>
    </clipPath>
    </defs>
    </svg>