<svg width="400" height="400" viewBox="0 0 400 400" fill="none" xmlns="http://www.w3.org/2000/svg">
<path d="M93.9781 230.276C85.2403 256.867 79.6264 296.999 92.2695 330.735C98.6946 347.879 109.863 363.41 127.651 374.415C145.379 385.384 169.153 391.536 200.295 390.92C231.29 390.306 253.914 383.9 269.961 372.985C286.16 361.967 294.998 346.8 299.164 330.093C303.286 313.566 302.855 295.508 300.726 278.227C298.821 262.76 295.489 247.469 292.571 234.078C292.227 232.499 291.888 230.947 291.559 229.423C285.76 202.616 271.785 159.39 256.265 118.568C240.813 77.9252 223.436 38.609 210.635 20.0962C204.289 10.919 191.754 10.5432 184.71 18.9846C170.237 36.331 150.959 72.4721 133.738 112.143C116.514 151.825 100.922 196.027 93.9781 230.276Z" fill="#333333" stroke="#A2A2A2" stroke-width="13.6489"/>
<path d="M135.303 291.08C106.045 246.747 163.033 109.617 195.184 46.5933L205.765 59.6508C224.502 117.279 261.98 233.166 261.996 235.685L262.518 318.627L216.604 363.538C201.694 357.857 164.56 335.413 135.303 291.08Z" fill="#404040"/>
<path d="M241.996 310.882C277.568 290.919 225.953 125.32 195.699 45.0154C243.258 94.5877 283.321 287.523 277.785 325.356C273.356 355.621 235.5 363.069 217.126 363.01C214.287 356.728 215.285 337.508 241.996 310.882Z" fill="#525252"/>
</svg>
