<svg width="501" height="501" viewBox="0 0 501 501" fill="none" xmlns="http://www.w3.org/2000/svg">
<path d="M117.921 288.142C106.994 321.397 99.9729 371.586 115.785 413.777C123.82 435.218 137.787 454.64 160.034 468.404C182.204 482.122 211.937 489.815 250.883 489.045C289.645 488.278 317.94 480.267 338.009 466.616C358.268 452.836 369.32 433.868 374.53 412.975C379.685 392.305 379.146 369.721 376.484 348.11C374.101 328.766 369.934 309.643 366.285 292.896C365.854 290.921 365.431 288.98 365.019 287.075C357.766 253.549 340.289 199.49 320.88 148.437C301.556 97.6089 279.824 48.4394 263.814 25.287C255.878 13.8098 240.201 13.3398 231.393 23.8968C213.291 45.5904 189.183 90.7891 167.646 140.403C146.105 190.029 126.605 245.309 117.921 288.142Z" fill="#333333" stroke="#A2A2A2" stroke-width="17.0695"/>
<path d="M169.602 364.184C133.013 308.74 204.282 137.243 244.491 58.4248L257.724 74.7547C281.157 146.826 328.027 291.755 328.047 294.907L328.7 398.634L271.279 454.801C252.633 447.697 206.192 419.627 169.602 364.184Z" fill="#404040"/>
<path d="M303.035 388.948C347.522 363.982 282.971 156.881 245.135 56.4512C304.614 118.447 354.717 359.735 347.793 407.049C342.254 444.9 294.911 454.215 271.932 454.141C268.381 446.285 269.63 422.248 303.035 388.948Z" fill="#525252"/>
</svg>
