<svg width="1001" height="1001" viewBox="0 0 1001 1001" fill="none" xmlns="http://www.w3.org/2000/svg">
<path d="M235.843 576.572C213.988 643.083 199.946 743.46 231.569 827.842C247.64 870.725 275.575 909.569 320.068 937.098C364.407 964.532 423.874 979.92 501.767 978.378C579.291 976.845 635.88 960.822 676.017 933.521C716.536 905.96 738.64 868.026 749.061 826.238C759.37 784.899 758.292 739.732 752.968 696.508C748.203 657.821 739.868 619.574 732.569 586.08C731.709 582.131 730.863 578.249 730.039 574.439C715.533 507.387 680.579 399.269 641.76 297.163C603.111 195.506 559.648 97.1675 527.628 50.8626C511.755 27.9082 480.403 26.9683 462.786 48.0822C426.583 91.4695 378.365 181.867 335.293 281.094C292.209 380.347 253.21 490.907 235.843 576.572Z" fill="#333333" stroke="#A2A2A2" stroke-width="34.139"/>
<path d="M339.205 728.656C266.025 617.769 408.565 274.774 488.982 117.138L515.449 149.798C562.314 293.94 656.054 583.799 656.094 590.101L657.401 797.557L542.559 909.891C505.266 895.682 412.385 839.543 339.205 728.656Z" fill="#404040"/>
<path d="M606.07 778.185C695.044 728.254 565.943 314.051 490.271 113.191C609.228 237.183 709.434 719.759 695.586 814.387C684.508 890.09 589.822 908.719 543.864 908.57C536.762 892.858 539.261 844.785 606.07 778.185Z" fill="#525252"/>
</svg>
