<svg width="501" height="501" viewBox="0 0 501 501" fill="none" xmlns="http://www.w3.org/2000/svg">
<path d="M342.543 191.625H158.707C125.304 191.625 95.6082 214.004 92.2116 247.235C89.191 276.787 89.4766 312.023 102.15 336.808C154.012 438.231 347.238 438.231 399.1 336.808C411.773 312.023 412.059 276.787 409.038 247.235C405.642 214.004 375.946 191.625 342.543 191.625Z" fill="#F5EED5" stroke="#9A9988" stroke-width="15"/>
<path d="M100.826 240.375C97.0733 273.5 98.3256 284.125 98.3256 284.125C121.867 289.75 170.203 299.625 177.703 299.125C185.203 298.625 400.625 324.125 402.5 293.5C404.375 262.875 396.875 229.125 396.875 229.125L333.75 199.125H178.125C174.167 198.917 165.578 197.875 164.578 197.875C163.578 197.875 104.579 207.25 100.826 240.375Z" fill="#F5EED5"/>
<circle cx="181.25" cy="334.75" r="33.125" fill="black"/>
<circle cx="168.125" cy="322.875" r="13.75" fill="white"/>
<circle cx="320" cy="334.75" r="33.125" fill="black"/>
<circle cx="306.875" cy="322.875" r="13.75" fill="white"/>
</svg>
