<svg width="400" height="400" viewBox="0 0 400 400" fill="none" xmlns="http://www.w3.org/2000/svg">
<path d="M273.535 153H126.465C99.7428 153 75.9866 170.904 73.2693 197.488C70.8528 221.129 71.0813 249.319 81.2199 269.146C122.709 350.285 277.291 350.285 318.78 269.146C328.919 249.319 329.147 221.129 326.731 197.488C324.013 170.904 300.257 153 273.535 153Z" fill="#F5EED5" stroke="#9A9988" stroke-width="12"/>
<path d="M80.1609 192C77.1587 218.5 78.1605 227 78.1605 227C96.9938 231.5 135.663 239.4 141.663 239C147.663 238.6 320 259 321.5 234.5C323 210 317 183 317 183L266.5 159H142C138.833 158.833 131.963 158 131.163 158C130.363 158 83.163 165.5 80.1609 192Z" fill="#F5EED5"/>
<circle cx="144.5" cy="267.5" r="26.5" fill="black"/>
<circle cx="134" cy="258" r="11" fill="white"/>
<circle cx="255.5" cy="267.5" r="26.5" fill="black"/>
<circle cx="245" cy="258" r="11" fill="white"/>
</svg>
