<svg width="400" height="400" viewBox="0 0 400 400" fill="none" xmlns="http://www.w3.org/2000/svg">
<path d="M273.535 153H126.465C99.7428 153 75.9866 170.904 73.2693 197.488C70.8528 221.129 71.0813 249.319 81.2199 269.146C122.709 350.285 277.291 350.285 318.78 269.146C328.919 249.319 329.147 221.129 326.731 197.488C324.013 170.904 300.257 153 273.535 153Z" fill="#F5EED5" stroke="#9A9988" stroke-width="12"/>
<path d="M143.059 171.799C132.457 190.298 119.689 204.897 107.855 213.629C101.93 218 96.4741 220.727 91.8374 221.885C87.2407 223.034 83.8312 222.569 81.3495 221.146C78.8678 219.724 76.7429 217.017 75.4108 212.47C74.0672 207.884 73.6624 201.798 74.4395 194.476C75.9916 179.851 82.1362 161.456 92.7388 142.957C103.341 124.459 116.109 109.859 127.943 101.128C133.868 96.7567 139.324 94.03 143.961 92.8711C148.557 91.7222 151.967 92.1877 154.449 93.6101C156.93 95.0325 159.055 97.7392 160.387 102.286C161.731 106.873 162.136 112.959 161.359 120.28C159.806 134.905 153.662 153.301 143.059 171.799Z" fill="#F5EED5" stroke="#9A9988" stroke-width="12"/>
<path d="M256.739 171.799C267.341 190.298 280.108 204.897 291.943 213.629C297.868 218 303.324 220.727 307.96 221.885C312.557 223.034 315.967 222.569 318.448 221.146C320.93 219.724 323.055 217.017 324.387 212.47C325.731 207.884 326.135 201.798 325.358 194.476C323.806 179.851 317.662 161.456 307.059 142.957C296.456 124.459 283.689 109.859 271.854 101.128C265.93 96.7567 260.474 94.03 255.837 92.8711C251.24 91.7222 247.831 92.1877 245.349 93.6101C242.868 95.0325 240.743 97.7392 239.411 102.286C238.067 106.873 237.662 112.959 238.439 120.28C239.991 134.905 246.136 153.301 256.739 171.799Z" fill="#F5EED5" stroke="#9A9988" stroke-width="12"/>
<path d="M80.1609 192C77.1587 218.5 78.1605 227 78.1605 227C96.9938 231.5 135.663 239.4 141.663 239C147.663 238.6 320 259 321.5 234.5C323 210 317 183 317 183L266.5 159H142C138.833 158.833 131.963 158 131.163 158C130.363 158 83.163 165.5 80.1609 192Z" fill="#F5EED5"/>
<circle cx="144.5" cy="267.5" r="26.5" fill="black"/>
<circle cx="134" cy="258" r="11" fill="white"/>
<circle cx="255.5" cy="267.5" r="26.5" fill="black"/>
<circle cx="245" cy="258" r="11" fill="white"/>
</svg>
