<svg width="1001" height="1001" viewBox="0 0 1001 1001" fill="none" xmlns="http://www.w3.org/2000/svg">
<g clip-path="url(#clip0_445_25)">
<path d="M635.59 340.907H193.731C113.445 340.907 42.0711 394.697 33.9073 474.568C26.647 545.597 27.3336 630.29 57.7942 689.86C182.446 933.635 646.875 933.635 771.527 689.86C801.987 630.29 802.674 545.597 795.414 474.567C787.25 394.697 715.876 340.907 635.59 340.907Z" fill="#F5EED5" stroke="#9A9988" stroke-width="36.0531"/>
<path d="M276.287 423.68C224.525 461.42 171.606 485.811 128.439 495.25C106.829 499.975 88.5215 500.765 74.3827 498.258C60.3657 495.774 51.5847 490.317 46.5217 483.372C41.4587 476.428 38.9489 466.399 40.8704 452.294C42.8086 438.066 49.1597 420.877 60.2679 401.748C82.4567 363.536 121.865 320.613 173.627 282.874C225.389 245.135 278.308 220.744 321.475 211.305C343.085 206.58 361.392 205.79 375.531 208.296C389.548 210.781 398.329 216.238 403.392 223.182C408.455 230.127 410.965 240.156 409.044 254.261C407.105 268.489 400.754 285.677 389.646 304.807C367.457 343.018 328.049 385.941 276.287 423.68Z" fill="#F5EED5" stroke="#9A9988" stroke-width="36.0531"/>
<path d="M772.537 343.438C709.621 331.393 651.353 331.912 608.285 341.794C586.725 346.741 569.831 353.838 558.113 362.138C546.496 370.365 540.883 379.047 539.267 387.488C537.651 395.929 539.66 406.07 547.416 418.007C555.24 430.048 568.318 442.883 586.526 455.444C622.898 480.536 676.853 502.541 739.769 514.587C802.685 526.632 860.953 526.113 904.021 516.231C925.581 511.284 942.475 504.187 954.193 495.887C965.81 487.659 971.423 478.977 973.039 470.537C974.655 462.096 972.646 451.955 964.89 440.018C957.066 427.977 943.988 415.142 925.78 402.58C889.408 377.489 835.453 355.484 772.537 343.438Z" fill="#F5EED5" stroke="#9A9988" stroke-width="36.0531"/>
<path d="M54.6118 458.079C45.5919 537.697 48.6019 563.234 48.6019 563.234C105.185 576.754 221.363 600.489 239.39 599.288C257.416 598.086 775.191 659.376 779.698 585.768C784.205 512.159 766.178 431.04 766.178 431.04L614.454 358.934H240.403C230.889 358.433 210.247 355.929 207.843 355.929C205.44 355.929 63.6316 378.462 54.6118 458.079Z" fill="#F5EED5"/>
<circle cx="247.915" cy="684.914" r="91.6351" fill="#B6B19F"/>
<circle cx="247.915" cy="684.915" r="67.5996" fill="#A5A196"/>
<circle cx="247.915" cy="684.915" r="67.5996" fill="#A5A196"/>
<circle cx="581.406" cy="684.914" r="91.6351" fill="#B6B19F"/>
<circle cx="581.406" cy="684.915" r="67.5996" fill="#A5A196"/>
<circle cx="581.406" cy="684.915" r="67.5996" fill="#A5A196"/>
</g>
<defs>
<clipPath id="clip0_445_25">
<rect width="1000" height="1000" fill="white" transform="translate(0.0200195 0.0301514)"/>
</clipPath>
</defs>
</svg>
