<svg width="1001" height="1001" viewBox="0 0 1001 1001" fill="none" xmlns="http://www.w3.org/2000/svg">
<path d="M744.469 344.619H257.311C168.794 344.619 90.1027 403.924 81.1019 491.982C73.0974 570.294 73.8544 663.669 107.438 729.347C244.869 998.114 756.912 998.114 894.343 729.347C927.926 663.669 928.683 570.294 920.679 491.982C911.678 403.924 832.986 344.619 744.469 344.619Z" fill="#F5EED5" stroke="#9A9988" stroke-width="39.7493"/>
<path d="M103.929 473.804C93.9846 561.584 97.3032 589.74 97.3032 589.74C159.688 604.646 287.776 630.814 307.651 629.489C327.526 628.164 898.383 695.738 903.352 614.583C908.32 533.428 888.446 443.992 888.446 443.992L721.167 364.494H308.768C298.278 363.942 275.52 361.181 272.87 361.181C270.22 361.181 113.874 386.024 103.929 473.804Z" fill="#F5EED5"/>
<circle cx="317.05" cy="723.894" r="87.7798" fill="black"/>
<circle cx="282.269" cy="692.426" r="36.4369" fill="white"/>
<circle cx="684.731" cy="723.894" r="87.7798" fill="black"/>
<circle cx="649.95" cy="692.426" r="36.4369" fill="white"/>
<path d="M744.469 344.619H257.311C168.794 344.619 90.1027 403.924 81.1019 491.982C73.0974 570.294 73.8544 663.669 107.438 729.347C244.869 998.114 756.912 998.114 894.343 729.347C927.926 663.669 928.683 570.294 920.679 491.982C911.678 403.924 832.986 344.619 744.469 344.619Z" fill="#F5EED5" stroke="#9A9988" stroke-width="39.7493"/>
<path d="M103.929 473.804C93.9846 561.584 97.3032 589.74 97.3032 589.74C159.688 604.646 287.776 630.814 307.651 629.489C327.526 628.164 898.383 695.738 903.352 614.583C908.32 533.428 888.446 443.992 888.446 443.992L721.167 364.494H308.768C298.278 363.942 275.52 361.181 272.87 361.181C270.22 361.181 113.874 386.024 103.929 473.804Z" fill="#F5EED5"/>
<circle cx="317.05" cy="723.894" r="87.7798" fill="black"/>
<circle cx="282.269" cy="692.426" r="36.4369" fill="white"/>
<circle cx="684.731" cy="723.894" r="87.7798" fill="black"/>
<circle cx="649.95" cy="692.426" r="36.4369" fill="white"/>
</svg>
