<svg width="400" height="400" viewBox="0 0 400 400" fill="none" xmlns="http://www.w3.org/2000/svg">
<path d="M129.613 132.573L130.703 136.096H134.39H290.79C324.826 136.096 352.418 163.687 352.418 197.723V220.294C352.418 222.041 352.345 223.77 352.203 225.478L352.168 225.894L352.203 226.309C352.346 228.01 352.418 229.723 352.418 231.447C352.418 256.914 336.577 280.63 309.595 298.218C282.658 315.776 245.149 326.799 203.462 326.799C161.776 326.799 124.266 315.776 97.3298 298.218C70.3472 280.63 54.5071 256.914 54.5071 231.447C54.5071 229.723 54.5792 228.01 54.7215 226.309L54.7563 225.894L54.7218 225.478C54.5796 223.77 54.5071 222.041 54.5071 220.294V197.723C54.5071 195.997 54.5779 194.289 54.7167 192.601L54.7292 192.448L54.7324 192.295C55.1457 172.374 61.0109 147.176 71.4723 128.874C81.0351 112.144 90.3223 102.453 97.5942 99.1297C101.051 97.5499 103.636 97.5827 105.63 98.4275C107.721 99.3138 110.106 101.493 112.261 106.072L112.933 107.501L114.304 108.284C120.175 111.641 121.745 112.617 123.152 114.777C123.929 115.969 124.725 117.674 125.764 120.584C126.802 123.489 127.979 127.288 129.613 132.573Z" fill="#F1ECBC" stroke="#8E8C75" stroke-width="10"/>
<mask id="mask0_136_40" style="mask-type:alpha" maskUnits="userSpaceOnUse" x="59" y="81" width="313" height="236">
<path d="M106.077 91.1761C125.022 91.1764 121.315 76.3493 168.267 102.296C209.452 109.709 187.941 104.546 235.81 129.478C285.644 99.0011 294.705 95.2944 311.179 91.1759L351.493 116.125C378.295 168.067 360.227 238.953 357.756 248.426C353.201 265.889 304.583 307.819 257.69 311.23C189.127 316.216 67.5832 275.078 65.09 196.542C62.4799 114.324 94.6347 91.1759 106.077 91.1761Z" fill="#D9D9D9" stroke="#8E8C75" stroke-width="10"/>
</mask>
<g mask="url(#mask0_136_40)">
<path d="M55.2029 180.568L55.2476 180.264L55.2547 179.957C55.5725 166.31 61.0324 147.977 71.5778 129.528C81.1347 112.808 90.2671 103.04 97.3197 99.6221C100.675 97.9961 103.048 98.0378 104.775 98.7674C106.604 99.5402 108.795 101.54 110.765 106.018L111.785 108.335L114.257 108.885C118.097 109.738 120.547 110.297 122.382 111.005C124.024 111.638 124.776 112.248 125.335 113.016C126.006 113.938 126.723 115.543 127.419 118.763C128.111 121.96 128.69 126.269 129.373 132.301L129.876 136.738H134.341H273.632H277.789L278.548 132.652C279.806 125.879 280.768 120.942 281.717 117.242C282.68 113.485 283.514 111.502 284.29 110.358C285.366 108.773 286.488 108.201 293.854 107.321L296.21 107.04L297.482 105.038C299.701 101.544 301.932 99.8804 303.907 99.2449C305.811 98.6324 308.231 98.731 311.412 100.306C318.114 103.625 326.7 112.8 336.242 129.533C348.242 150.575 352.854 175.348 351.862 197.047L351.857 197.161V197.276V230.829C351.857 230.98 351.856 231.131 351.855 231.282L351.855 231.324L351.855 231.366C351.856 231.53 351.857 231.695 351.857 231.86C351.857 257.262 336.056 280.921 309.138 298.467C282.265 315.983 244.844 326.981 203.255 326.981C161.666 326.981 124.245 315.983 97.3723 298.467C70.4537 280.921 54.6531 257.262 54.6531 231.86C54.6531 231.695 54.6537 231.53 54.6551 231.365L54.6554 231.324L54.655 231.282C54.6537 231.131 54.6531 230.98 54.6531 230.829V188.115C54.6531 185.549 54.8409 183.029 55.2029 180.568Z" fill="#FFFCDD" stroke="#8E8C75" stroke-width="10"/>
</g>
<rect x="105.998" y="233.677" width="63.4103" height="63.4103" rx="31.7051" fill="black"/>
<ellipse cx="127.135" cy="250.116" rx="11.7426" ry="10.9598" fill="white"/>
<rect width="63.4103" height="63.4103" rx="31.7051" transform="matrix(-1 0 0 1 290.75 233.677)" fill="black"/>
<ellipse cx="11.7426" cy="10.9598" rx="11.7426" ry="10.9598" transform="matrix(-1 0 0 1 260.218 239.157)" fill="white"/>
<path d="M118.799 212.5L73.4081 236.069L62.0603 218.86L88.7139 158.055C153.315 156.854 283.15 154.452 285.68 154.452C288.21 154.452 312.634 175.17 324.531 185.53L322.187 232.577L290.763 212.5H249.736L234.896 230.831L199.107 260.947L165.064 233.013L150.224 212.5H118.799Z" fill="#70692C"/>
<path d="M130.478 82L66.4248 100.82L109.096 149.214L309.679 143.696L332.662 100.82C311.111 93.1288 283.817 82 278.115 82H130.478Z" fill="#70692C"/>
<path d="M137.745 88.9833L66.4248 109.66L118.666 149.214L297.648 144.27L333.535 109.66C314.304 102.767 274.571 88.9833 269.483 88.9833H137.745Z" fill="#70692C"/>
<path d="M283.837 182.43L229.736 211.46L199.98 231.871V120.742H229.736L332.077 100.331L364.087 120.742V217.81L340.643 307.167L283.837 343H211.328L201.289 292.371H229.659L243.625 304.592L292.508 279.278L312.691 224.721L312.691 211.46L283.837 182.43Z" fill="#70692C"/>
<path d="M115.25 182.43L169.351 211.46L199.107 231.871V120.742H169.351L67.0099 100.331L35 120.742V217.81L58.4439 307.167L115.25 343H187.759L197.798 292.371H169.428L155.462 304.592L106.579 279.278L86.3962 224.721L86.3962 211.46L115.25 182.43Z" fill="#70692C"/>
<path d="M283.179 182.43L228.939 211.46L199.107 231.871V123.464L229.391 120.742L331.995 100.331L364.087 120.742V217.81L340.583 307.167L283.631 343H215.831L206.791 299.909H229.391L246.115 314.424L299.903 286.302L322.955 225.067L312.107 211.46L283.179 182.43Z" fill="#70692C"/>
<path d="M70.7972 110C73.061 109.094 159.992 130.392 165.878 130.392H222.926C257.638 122.99 327.877 108.187 331.137 108.187C334.397 108.187 344.569 118.157 349.248 123.141L200.741 191.114L46.3479 121.782C53.7431 118.157 68.9861 110.725 70.7972 110Z" fill="#70692C"/>
<circle cx="199.98" cy="150.96" r="42.7726" fill="#70692C"/>
<circle cx="199.543" cy="150.523" r="30.9883" fill="#70692C"/>
<ellipse cx="199.98" cy="150.523" rx="20.9498" ry="20.5134" fill="#70692C"/>
<path d="M62.9331 245.914C65.0395 239.889 69.4329 227.476 70.1551 226.03L94.9808 289.749L139.667 316.863L168.555 314.152C159.979 318.821 142.195 328.161 139.667 328.161C137.139 328.161 101.3 305.565 83.6964 294.268L62.9331 245.914Z" fill="#70692C"/>
<path d="M336.154 245.914C334.047 239.889 329.654 227.476 328.932 226.03L304.106 289.749L259.42 316.863L230.532 314.152C239.108 318.821 256.892 328.161 259.42 328.161C261.948 328.161 297.787 305.565 315.39 294.268L336.154 245.914Z" fill="#70692C"/>
<path d="M116.617 206.826L76.0268 227.339L66.4248 218.61L92.1756 159.689C154.589 158.525 280.026 156.197 282.47 156.197C284.914 156.197 308.512 176.274 320.005 186.313L327.861 227.339L289.89 206.826H246.681L228.786 227.339L198.671 251.781L168.119 227.339L151.97 206.826H116.617Z" fill="#BCB736"/>
<path d="M132.864 86.3645L71.2258 104.696L112.288 151.833L305.308 146.458L327.425 104.696C306.686 97.2042 280.421 86.3645 274.934 86.3645H132.864Z" fill="#BCB736"/>
<path d="M140.186 93.3478L71.6621 113.425L121.854 151.833L293.818 147.032L328.298 113.425C309.821 106.732 271.646 93.3478 266.757 93.3478H140.186Z" fill="#70692C"/>
<path d="M117.927 183.694L170.301 211.627L199.107 231.268V124.336H170.301L71.2258 104.696L40.2375 124.336V217.737L62.9332 303.719L117.927 338.199H183.395L192.124 296.736H170.301L154.152 309.829L102.214 283.642L79.9549 224.721L89.9934 211.627L117.927 183.694Z" fill="#D6D045"/>
<path d="M280.288 183.694L227.913 211.627L199.107 231.268V126.955L228.35 124.336L327.425 104.696L358.413 124.336V217.737L335.717 303.719L280.724 338.199H215.256L206.527 296.736H228.35L244.498 310.702L296.437 283.642L318.696 224.721L308.221 211.627L280.288 183.694Z" fill="#D6D045"/>
<path d="M75.5903 113.861C77.7726 112.988 161.572 133.502 167.246 133.502H222.239C255.701 126.373 323.409 112.115 326.552 112.115C329.694 112.115 339.5 121.717 344.01 126.518L200.853 191.987L52.0217 125.209C59.1505 121.717 73.8445 114.56 75.5903 113.861Z" fill="#E9E46E"/>
<circle cx="199.98" cy="153.142" r="41.4632" fill="#BCB736"/>
<circle cx="199.98" cy="153.142" r="30.1154" fill="#D6D045"/>
<circle cx="199.98" cy="152.706" r="20.0769" fill="#E9E46E"/>
<path d="M67.2976 245.234C69.3344 239.415 73.5826 227.427 74.2809 226.03L98.2859 287.57L141.495 313.758L169.428 311.139C161.135 315.649 143.939 324.669 141.495 324.669C139.051 324.669 104.396 302.846 87.3745 291.935L67.2976 245.234Z" fill="#E9E46E"/>
<path d="M331.789 245.234C329.752 239.415 325.504 227.427 324.806 226.03L300.801 287.57L257.592 313.758L229.659 311.139C237.951 315.649 255.148 324.669 257.592 324.669C260.036 324.669 294.69 302.846 311.712 291.935L331.789 245.234Z" fill="#E9E46E"/>
<path d="M111 176L49.5 139L46 144L93 194.5L111 176Z" fill="#BCB736"/>
<path d="M83 201.5L46 154V162.5C54.5 181.333 71.6 219.4 72 221C72.4 222.6 79.5 208.667 83 201.5Z" fill="#BCB736"/>
<path d="M289 176L350.5 139L354 144L307 194.5L289 176Z" fill="#BCB736"/>
<path d="M317 201.5L354 154V162.5C345.5 181.333 328.4 219.4 328 221C327.6 222.6 320.5 208.667 317 201.5Z" fill="#BCB736"/>
</svg>
