<svg width="400" height="400" viewBox="0 0 400 400" fill="none" xmlns="http://www.w3.org/2000/svg">
<path d="M126.106 123.614L127.196 127.137H130.883H287.283C321.319 127.137 348.911 154.729 348.911 188.764V211.335C348.911 213.082 348.838 214.811 348.696 216.519L348.661 216.935L348.696 217.351C348.838 219.051 348.911 220.764 348.911 222.489C348.911 247.955 333.07 271.671 306.088 289.259C279.151 306.817 241.642 317.84 199.955 317.84C158.269 317.84 120.759 306.817 93.8228 289.259C66.8402 271.671 51 247.955 51 222.489C51 220.764 51.0721 219.051 51.2145 217.351L51.2493 216.935L51.2147 216.519C51.0726 214.811 51 213.082 51 211.335V188.764C51 187.038 51.0708 185.33 51.2096 183.642L51.2221 183.489L51.2253 183.336C51.6386 163.415 57.5039 138.218 67.9652 119.916C77.528 103.185 86.8152 93.4941 94.0871 90.171C97.5441 88.5912 100.129 88.6239 102.123 89.4688C104.214 90.355 106.599 92.5344 108.754 97.1137L109.426 98.5422L110.796 99.3256C116.668 102.682 118.238 103.658 119.645 105.818C120.422 107.01 121.218 108.716 122.257 111.625C123.295 114.53 124.472 118.329 126.106 123.614Z" fill="#F1ECBC" stroke="#8E8C75" stroke-width="10"/>
<mask id="mask0_149_2" style="mask-type:alpha" maskUnits="userSpaceOnUse" x="56" y="73" width="312" height="235">
<path d="M102.57 82.2174C121.515 82.2176 117.808 67.3906 164.759 93.337C205.944 100.751 184.434 95.5873 232.303 120.519C282.137 90.0423 291.198 86.3356 307.672 82.2171L347.986 107.167C374.788 159.108 356.72 229.994 354.249 239.467C349.693 256.93 301.075 298.861 254.183 302.271C185.62 307.257 64.0759 266.119 61.5827 187.584C58.9726 105.366 91.1273 82.2172 102.57 82.2174Z" fill="#D9D9D9" stroke="#8E8C75" stroke-width="10"/>
</mask>
<g mask="url(#mask0_149_2)">
<path d="M51.6958 171.609L51.7405 171.305L51.7477 170.998C52.0655 157.352 57.5253 139.018 68.0707 120.569C77.6276 103.849 86.76 94.0808 93.8126 90.6634C97.1683 89.0374 99.5407 89.079 101.268 89.8087C103.097 90.5814 105.288 92.5813 107.258 97.0588L108.278 99.3768L110.75 99.9261C114.59 100.779 117.04 101.339 118.875 102.046C120.517 102.679 121.269 103.289 121.828 104.057C122.499 104.979 123.216 106.584 123.912 109.804C124.603 113.001 125.182 117.31 125.866 123.343L126.369 127.78H130.834H270.125H274.282L275.041 123.693C276.299 116.921 277.261 111.983 278.209 108.284C279.173 104.526 280.007 102.543 280.783 101.4C281.859 99.8139 282.981 99.2422 290.347 98.3625L292.703 98.0812L293.975 96.0789C296.194 92.5852 298.425 90.9217 300.4 90.2861C302.304 89.6736 304.724 89.7722 307.905 91.3475C314.607 94.6661 323.193 103.841 332.735 120.575C344.735 141.616 349.347 166.389 348.355 188.089L348.35 188.203V188.317V221.87C348.35 222.022 348.349 222.173 348.348 222.323L348.347 222.365L348.348 222.407C348.348 222.493 348.349 222.578 348.349 222.664C348.35 222.743 348.35 222.822 348.35 222.901C348.35 248.303 332.549 271.962 305.63 289.508C278.758 307.024 241.337 318.022 199.748 318.022C158.159 318.022 120.738 307.024 93.8652 289.508C66.9466 271.962 51.146 248.303 51.146 222.901C51.146 222.736 51.1467 222.571 51.148 222.407L51.1483 222.365L51.148 222.323C51.1466 222.173 51.146 222.021 51.146 221.87V179.157C51.146 176.59 51.3338 174.07 51.6958 171.609Z" fill="#FFFCDD" stroke="#8E8C75" stroke-width="10"/>
</g>
<rect x="103" y="225" width="63.4103" height="63.4103" rx="31.7051" fill="black"/>
<ellipse cx="124.136" cy="241.44" rx="11.7426" ry="10.9598" fill="white"/>
<rect width="63.4103" height="63.4103" rx="31.7051" transform="matrix(-1 0 0 1 296.41 225)" fill="black"/>
<ellipse cx="11.7426" cy="10.9598" rx="11.7426" ry="10.9598" transform="matrix(-1 0 0 1 265.879 230.48)" fill="white"/>
</svg>
