<svg width="1001" height="1001" viewBox="0 0 1001 1001" fill="none" xmlns="http://www.w3.org/2000/svg">
<path d="M683.511 342.677L669.114 353.336L683.511 342.677C675.368 331.678 662.493 325.19 648.808 325.19H336.743C322.884 325.19 309.867 331.843 301.749 343.075L190.526 496.951C185.205 504.312 182.341 513.163 182.341 522.245V647.604C182.341 655.261 184.377 662.779 188.24 669.39L294.301 850.884C294.799 851.736 295.116 852.681 295.233 853.661L298.812 883.612C303.371 921.765 351.752 935.405 375.569 905.251L385.053 893.245C387.797 889.771 392.997 889.575 395.995 892.832L409.233 880.649L395.995 892.832L424.389 923.685C446.197 947.382 485.334 939.727 496.607 909.561L501.236 897.173C503.567 890.936 512.388 890.936 514.718 897.173L518.739 907.931C530.255 938.751 570.631 945.881 592.008 920.871L604.531 906.219C607.003 903.326 611.529 903.505 613.765 906.583C635.512 936.517 682.554 925.594 688.885 889.14L698.186 835.589C698.343 834.688 698.67 833.825 699.149 833.047L799.613 669.934C803.807 663.125 806.027 655.286 806.027 647.29V522.404C806.027 513.153 803.056 504.147 797.551 496.712L683.511 342.677Z" fill="#8DC684" stroke="#3C5738" stroke-width="35.9818"/>
<path d="M278.464 475.833L392.455 385.933C393.09 385.432 393.852 385.16 394.66 385.16H500.781C507.43 385.16 617.654 413.365 673.593 427.897C674.686 428.18 675.54 428.932 675.962 429.979C695.567 478.657 708.026 563.924 707.077 568.668C705.878 574.665 714.273 635.234 711.875 643.63C709.962 650.323 672.758 736.77 649.75 779.904C649.584 780.215 649.471 780.534 649.402 780.879C642.239 816.542 635.003 857.69 636.912 863.419C638.779 869.019 611.67 857.672 596.758 850.793C595.965 850.428 595.339 849.785 594.987 848.986L568.977 789.896C568.36 788.495 566.925 787.638 565.4 787.759L419.538 799.289C417.667 799.437 416.224 800.999 416.224 802.876V846.627C416.224 848.615 414.613 850.226 412.626 850.226H364.05C362.063 850.226 360.452 851.837 360.452 853.824V864.318L352.755 781.425C352.69 780.731 352.425 780.07 351.992 779.523L277.872 685.991C277.368 685.355 277.094 684.567 277.094 683.756V478.659C277.094 477.557 277.599 476.516 278.464 475.833Z" fill="#9CE092"/>
<path d="M278.865 498.511L285.238 492.988C298.54 481.46 315.552 475.114 333.154 475.114H379.962C385.02 475.114 394.554 480.459 403.894 486.722C417.205 495.648 425.783 509.854 429.539 525.434L439.059 564.917C441.398 574.617 441.573 584.713 439.573 594.488C434.415 619.7 415.467 639.842 390.616 646.528L366.421 653.037C339.985 660.15 311.79 651.909 293.346 631.678L271.634 607.862C255.515 590.182 249.06 565.739 254.346 542.406L255.426 537.635C258.871 522.43 267.083 508.722 278.865 498.511Z" fill="#67995F"/>
<path d="M300.584 520.239L301.628 519.333C312.211 510.153 325.75 505.099 339.76 505.099H368.642C370.884 505.099 374.412 506.637 378.356 508.887C392.272 516.825 400.577 531.513 404.329 547.088L409.003 566.49C410.599 573.116 410.719 580.012 409.354 586.69C405.83 603.928 392.879 617.701 375.89 622.276L366.574 624.784C344.113 630.833 320.155 623.827 304.492 606.631L296.048 597.36C284.171 584.321 279.414 566.3 283.308 549.097C285.846 537.884 291.899 527.773 300.584 520.239Z" fill="#578151"/>
<path d="M314.69 552.596L315.269 552.088C322.487 545.766 331.756 542.281 341.351 542.281H360.805C361.158 542.281 361.558 542.338 361.998 542.444C376.344 545.918 382.95 562.37 386.375 576.728L388.203 584.39C389.279 588.901 389.36 593.593 388.44 598.14C386.043 609.98 377.171 619.455 365.514 622.625L359.511 624.258C344.221 628.415 327.892 623.619 317.279 611.854L311.576 605.532C303.489 596.567 300.252 584.237 302.893 572.456C304.62 564.752 308.751 557.797 314.69 552.596Z" fill="#4F7649"/>
<path d="M314.69 552.596L315.269 552.088C322.487 545.766 331.756 542.281 341.351 542.281H360.805C361.158 542.281 361.558 542.338 361.998 542.444C376.344 545.918 382.95 562.37 386.375 576.728L388.203 584.39C389.279 588.901 389.36 593.593 388.44 598.14C386.043 609.98 377.171 619.455 365.514 622.625L359.511 624.258C344.221 628.415 327.892 623.619 317.279 611.854L311.576 605.532C303.489 596.567 300.252 584.237 302.893 572.456C304.62 564.752 308.751 557.797 314.69 552.596Z" fill="#4F7649"/>
<path d="M314.69 552.596L315.269 552.088C322.487 545.766 331.756 542.281 341.351 542.281H360.805C361.158 542.281 361.558 542.338 361.998 542.444C376.344 545.918 382.95 562.37 386.375 576.728L388.203 584.39C389.279 588.901 389.36 593.593 388.44 598.14C386.043 609.98 377.171 619.455 365.514 622.625L359.511 624.258C344.221 628.415 327.892 623.619 317.279 611.854L311.576 605.532C303.489 596.567 300.252 584.237 302.893 572.456C304.62 564.752 308.751 557.797 314.69 552.596Z" fill="#4F7649"/>
<path d="M325.701 574.054L325.842 573.927C330.464 569.769 336.462 567.468 342.679 567.468H354.71C354.84 567.468 354.981 567.481 355.131 567.505C364.629 569.047 368.701 580.522 370.879 589.895L372.032 594.861C372.7 597.737 372.75 600.722 372.179 603.62C370.655 611.352 364.906 617.566 357.315 619.686L354.084 620.588C344.343 623.309 333.904 620.207 327.229 612.607L323.671 608.556C318.517 602.688 316.458 594.72 318.123 587.089C319.221 582.058 321.872 577.498 325.701 574.054Z" fill="#4F7649"/>
<path d="M325.701 574.054L325.842 573.927C330.464 569.769 336.462 567.468 342.679 567.468H354.71C354.84 567.468 354.981 567.481 355.131 567.505C364.629 569.047 368.701 580.522 370.879 589.895L372.032 594.861C372.7 597.737 372.75 600.722 372.179 603.62C370.655 611.352 364.906 617.566 357.315 619.686L354.084 620.588C344.343 623.309 333.904 620.207 327.229 612.607L323.671 608.556C318.517 602.688 316.458 594.72 318.123 587.089C319.221 582.058 321.872 577.498 325.701 574.054Z" fill="#4F7649"/>
<path d="M325.701 574.054L325.842 573.927C330.464 569.769 336.462 567.468 342.679 567.468H354.71C354.84 567.468 354.981 567.481 355.131 567.505C364.629 569.047 368.701 580.522 370.879 589.895L372.032 594.861C372.7 597.737 372.75 600.722 372.179 603.62C370.655 611.352 364.906 617.566 357.315 619.686L354.084 620.588C344.343 623.309 333.904 620.207 327.229 612.607L323.671 608.556C318.517 602.688 316.458 594.72 318.123 587.089C319.221 582.058 321.872 577.498 325.701 574.054Z" fill="#476A41"/>
<path d="M571.857 501.369L577.397 496.571C590.697 485.053 607.7 478.713 625.293 478.713H670.761C675.657 478.713 684.824 483.81 693.868 489.842C707.206 498.737 715.783 512.956 719.543 528.54L728.775 566.804C731.072 576.324 731.245 586.233 729.28 595.828C724.217 620.557 705.629 640.31 681.252 646.864L658.232 653.053C631.808 660.157 603.628 651.923 585.186 631.709L564.911 609.485C548.777 591.801 542.315 567.343 547.608 543.998L548.401 540.499C551.849 525.289 560.067 511.579 571.857 501.369Z" fill="#67995F"/>
<path d="M481.59 754.621V628.886C481.59 625.089 476.472 623.881 474.774 627.277L443.59 689.646C443.34 690.145 443.21 690.696 443.21 691.255V745.85C443.21 747.462 444.282 748.878 445.834 749.314L477.018 758.085C479.313 758.73 481.59 757.005 481.59 754.621Z" fill="#578151"/>
<path d="M508.578 754.022V628.288C508.578 624.491 513.696 623.282 515.394 626.678L546.578 689.047C546.828 689.547 546.958 690.098 546.958 690.656V745.252C546.958 746.864 545.886 748.279 544.334 748.715L513.15 757.486C510.855 758.131 508.578 756.407 508.578 754.022Z" fill="#578151"/>
<path d="M592.037 522.638L593.082 521.732C603.665 512.552 617.204 507.498 631.213 507.498H660.096C662.337 507.498 665.865 509.036 669.809 511.286C683.725 519.224 692.03 533.912 695.782 549.487L700.456 568.889C702.052 575.515 702.172 582.411 700.807 589.089C697.284 606.327 684.332 620.1 667.343 624.675L658.028 627.183C635.567 633.232 611.609 626.226 595.945 609.03L587.502 599.759C575.624 586.72 570.867 568.699 574.761 551.496C577.299 540.283 583.352 530.172 592.037 522.638Z" fill="#578151"/>
<path d="M615.738 556.194L616.317 555.686C623.535 549.364 632.804 545.879 642.399 545.879H661.853C662.206 545.879 662.606 545.936 663.046 546.042C677.392 549.516 683.998 565.968 687.423 580.325L689.251 587.988C690.327 592.499 690.408 597.191 689.488 601.738C687.091 613.578 678.219 623.053 666.562 626.223L660.559 627.855C645.269 632.013 628.94 627.217 618.327 615.451L612.624 609.129C604.537 600.165 601.3 587.835 603.941 576.054C605.668 568.35 609.799 561.395 615.738 556.194Z" fill="#4F7649"/>
<path d="M615.738 556.194L616.317 555.686C623.535 549.364 632.804 545.879 642.399 545.879H661.853C662.206 545.879 662.606 545.936 663.046 546.042C677.392 549.516 683.998 565.968 687.423 580.325L689.251 587.988C690.327 592.499 690.408 597.191 689.488 601.738C687.091 613.578 678.219 623.053 666.562 626.223L660.559 627.855C645.269 632.013 628.94 627.217 618.327 615.451L612.624 609.129C604.537 600.165 601.3 587.835 603.941 576.054C605.668 568.35 609.799 561.395 615.738 556.194Z" fill="#4F7649"/>
<path d="M615.738 556.194L616.317 555.686C623.535 549.364 632.804 545.879 642.399 545.879H661.853C662.206 545.879 662.606 545.936 663.046 546.042C677.392 549.516 683.998 565.968 687.423 580.325L689.251 587.988C690.327 592.499 690.408 597.191 689.488 601.738C687.091 613.578 678.219 623.053 666.562 626.223L660.559 627.855C645.269 632.013 628.94 627.217 618.327 615.451L612.624 609.129C604.537 600.165 601.3 587.835 603.941 576.054C605.668 568.35 609.799 561.395 615.738 556.194Z" fill="#4F7649"/>
<circle cx="134.965" cy="475.715" r="92.9531" fill="#8DC684" stroke="#3C5738" stroke-width="35.9818"/>
<circle cx="888.932" cy="415.003" r="71.364" fill="#79AD71" stroke="#3C5738" stroke-width="35.9818"/>
<circle cx="809.064" cy="142.005" r="62.9682" fill="#79AD71" stroke="#3C5738" stroke-width="35.9818"/>
<circle cx="556.088" cy="201.27" r="72.5634" fill="#79AD71" stroke="#3C5738" stroke-width="35.9818"/>
<path d="M631.546 576.453L631.688 576.326C636.31 572.168 642.307 569.867 648.525 569.867H660.555C660.686 569.867 660.826 569.88 660.977 569.904C670.475 571.446 674.547 582.922 676.724 592.295L677.877 597.26C678.545 600.136 678.596 603.122 678.025 606.019C676.501 613.751 670.751 619.966 663.161 622.086L659.93 622.988C650.188 625.708 639.749 622.606 633.075 615.007L629.516 610.956C624.362 605.088 622.303 597.119 623.969 589.489C625.067 584.457 627.717 579.898 631.546 576.453Z" fill="#4F7649"/>
<path d="M631.546 576.453L631.688 576.326C636.31 572.168 642.307 569.867 648.525 569.867H660.555C660.686 569.867 660.826 569.88 660.977 569.904C670.475 571.446 674.547 582.922 676.724 592.295L677.877 597.26C678.545 600.136 678.596 603.122 678.025 606.019C676.501 613.751 670.751 619.966 663.161 622.086L659.93 622.988C650.188 625.708 639.749 622.606 633.075 615.007L629.516 610.956C624.362 605.088 622.303 597.119 623.969 589.489C625.067 584.457 627.717 579.898 631.546 576.453Z" fill="#4F7649"/>
<path d="M631.546 576.453L631.688 576.326C636.31 572.168 642.307 569.867 648.525 569.867H660.555C660.686 569.867 660.826 569.88 660.977 569.904C670.475 571.446 674.547 582.922 676.724 592.295L677.877 597.26C678.545 600.136 678.596 603.122 678.025 606.019C676.501 613.751 670.751 619.966 663.161 622.086L659.93 622.988C650.188 625.708 639.749 622.606 633.075 615.007L629.516 610.956C624.362 605.088 622.303 597.119 623.969 589.489C625.067 584.457 627.717 579.898 631.546 576.453Z" fill="#476A41"/>
</svg>
