<svg width="501" height="501" viewBox="0 0 501 501" fill="none" xmlns="http://www.w3.org/2000/svg">
<path d="M342.256 171.694L335.117 176.979L342.256 171.694C338.184 166.195 331.747 162.951 324.904 162.951H168.872C161.942 162.951 155.434 166.277 151.375 171.893L95.7632 248.831C93.103 252.511 91.671 256.937 91.671 261.478V324.158C91.671 327.986 92.6889 331.745 94.6204 335.05L147.651 425.798C147.9 426.224 148.058 426.696 148.117 427.186L149.906 442.161C152.186 461.238 176.376 468.058 188.285 452.981L193.027 446.978C194.399 445.241 196.999 445.143 198.498 446.772L205.117 440.68L198.498 446.772L212.695 462.198C223.599 474.047 243.167 470.219 248.804 455.136L251.118 448.942C252.284 445.824 256.694 445.824 257.859 448.942L259.87 454.321C265.628 469.731 285.816 473.296 296.504 460.791L302.766 453.465C304.002 452.019 306.265 452.108 307.383 453.647C318.256 468.614 341.777 463.153 344.943 444.926L349.593 418.15C349.672 417.7 349.835 417.268 350.075 416.879L400.307 335.323C402.404 331.918 403.514 327.999 403.514 324.001V261.558C403.514 256.932 402.028 252.429 399.276 248.712L342.256 171.694Z" fill="#8DC684" stroke="#3C5738" stroke-width="17.9909"/>
<path d="M139.732 238.272L196.728 193.322C197.045 193.072 197.426 192.936 197.83 192.936H250.89C254.215 192.936 309.327 207.038 337.296 214.304C337.843 214.446 338.27 214.821 338.481 215.345C348.283 239.684 354.513 282.317 354.038 284.689C353.439 287.688 357.637 317.972 356.437 322.17C355.481 325.517 336.879 368.74 325.375 390.308C325.292 390.463 325.236 390.623 325.201 390.795C321.62 408.627 318.001 429.2 318.956 432.065C319.889 434.865 306.335 429.192 298.879 425.752C298.483 425.569 298.17 425.248 297.994 424.848L284.988 395.303C284.68 394.603 283.963 394.174 283.2 394.235L210.269 400C209.333 400.074 208.612 400.855 208.612 401.794V423.669C208.612 424.663 207.806 425.468 206.813 425.468H182.525C181.531 425.468 180.726 426.274 180.726 427.267V432.515L176.877 391.068C176.845 390.721 176.712 390.39 176.496 390.117L139.436 343.351C139.184 343.033 139.047 342.639 139.047 342.234V239.685C139.047 239.134 139.299 238.613 139.732 238.272Z" fill="#9CE092"/>
<path d="M139.933 249.611L143.119 246.85C149.77 241.086 158.276 237.913 167.077 237.913H190.481C193.01 237.913 197.777 240.585 202.447 243.717C209.103 248.18 213.391 255.282 215.27 263.072L220.029 282.814C221.199 287.664 221.287 292.712 220.287 297.599C217.708 310.206 208.234 320.276 195.808 323.619L183.711 326.874C170.493 330.431 156.395 326.31 147.173 316.194L136.317 304.287C128.258 295.447 125.03 283.225 127.673 271.558L128.213 269.173C129.936 261.57 134.042 254.717 139.933 249.611Z" fill="#67995F"/>
<path d="M150.792 260.475L151.314 260.022C156.606 255.432 163.375 252.905 170.38 252.905H184.821C185.942 252.905 187.706 253.674 189.678 254.799C196.636 258.768 200.788 266.112 202.664 273.899L205.001 283.6C205.799 286.914 205.859 290.362 205.177 293.701C203.415 302.32 196.939 309.206 188.445 311.493L183.787 312.748C172.557 315.772 160.578 312.269 152.746 303.671L148.524 299.036C142.585 292.516 140.207 283.506 142.154 274.904C143.423 269.297 146.449 264.242 150.792 260.475Z" fill="#578151"/>
<path d="M157.845 276.653L158.135 276.4C161.744 273.239 166.378 271.496 171.176 271.496H180.903C181.079 271.496 181.279 271.524 181.499 271.578C188.672 273.315 191.975 281.541 193.688 288.719L194.602 292.55C195.14 294.806 195.18 297.152 194.72 299.425C193.522 305.346 189.086 310.083 183.257 311.668L180.256 312.484C172.611 314.563 164.446 312.165 159.14 306.282L156.288 303.121C152.245 298.639 150.627 292.474 151.947 286.583C152.81 282.732 154.876 279.254 157.845 276.653Z" fill="#4F7649"/>
<path d="M157.845 276.653L158.135 276.4C161.744 273.239 166.378 271.496 171.176 271.496H180.903C181.079 271.496 181.279 271.524 181.499 271.578C188.672 273.315 191.975 281.541 193.688 288.719L194.602 292.55C195.14 294.806 195.18 297.152 194.72 299.425C193.522 305.346 189.086 310.083 183.257 311.668L180.256 312.484C172.611 314.563 164.446 312.165 159.14 306.282L156.288 303.121C152.245 298.639 150.627 292.474 151.947 286.583C152.81 282.732 154.876 279.254 157.845 276.653Z" fill="#4F7649"/>
<path d="M157.845 276.653L158.135 276.4C161.744 273.239 166.378 271.496 171.176 271.496H180.903C181.079 271.496 181.279 271.524 181.499 271.578C188.672 273.315 191.975 281.541 193.688 288.719L194.602 292.55C195.14 294.806 195.18 297.152 194.72 299.425C193.522 305.346 189.086 310.083 183.257 311.668L180.256 312.484C172.611 314.563 164.446 312.165 159.14 306.282L156.288 303.121C152.245 298.639 150.627 292.474 151.947 286.583C152.81 282.732 154.876 279.254 157.845 276.653Z" fill="#4F7649"/>
<path d="M163.35 287.382L163.421 287.319C165.732 285.24 168.731 284.089 171.84 284.089H177.855C177.92 284.089 177.991 284.096 178.066 284.108C182.815 284.879 184.851 290.617 185.939 295.303L186.516 297.786C186.85 299.224 186.875 300.717 186.59 302.165C185.828 306.031 182.953 309.139 179.158 310.198L177.542 310.65C172.671 312.01 167.452 310.459 164.115 306.659L162.336 304.633C159.758 301.699 158.729 297.715 159.562 293.9C160.111 291.384 161.436 289.104 163.35 287.382Z" fill="#4F7649"/>
<path d="M163.35 287.382L163.421 287.319C165.732 285.24 168.731 284.089 171.84 284.089H177.855C177.92 284.089 177.991 284.096 178.066 284.108C182.815 284.879 184.851 290.617 185.939 295.303L186.516 297.786C186.85 299.224 186.875 300.717 186.59 302.165C185.828 306.031 182.953 309.139 179.158 310.198L177.542 310.65C172.671 312.01 167.452 310.459 164.115 306.659L162.336 304.633C159.758 301.699 158.729 297.715 159.562 293.9C160.111 291.384 161.436 289.104 163.35 287.382Z" fill="#4F7649"/>
<path d="M163.35 287.382L163.421 287.319C165.732 285.24 168.731 284.089 171.84 284.089H177.855C177.92 284.089 177.991 284.096 178.066 284.108C182.815 284.879 184.851 290.617 185.939 295.303L186.516 297.786C186.85 299.224 186.875 300.717 186.59 302.165C185.828 306.031 182.953 309.139 179.158 310.198L177.542 310.65C172.671 312.01 167.452 310.459 164.115 306.659L162.336 304.633C159.758 301.699 158.729 297.715 159.562 293.9C160.111 291.384 161.436 289.104 163.35 287.382Z" fill="#476A41"/>
<path d="M286.428 251.04L289.199 248.641C295.848 242.882 304.35 239.712 313.147 239.712H335.88C338.328 239.712 342.912 242.261 347.434 245.277C354.103 249.724 358.391 256.834 360.271 264.626L364.887 283.758C366.036 288.518 366.122 293.472 365.14 298.269C362.609 310.634 353.314 320.511 341.126 323.787L329.616 326.882C316.404 330.434 302.314 326.317 293.093 316.21L282.955 305.098C274.889 296.256 271.658 284.027 274.304 272.355L274.701 270.605C276.425 263 280.534 256.145 286.428 251.04Z" fill="#67995F"/>
<path d="M241.295 377.666V314.799C241.295 312.9 238.736 312.296 237.887 313.994L222.295 345.179C222.17 345.428 222.105 345.704 222.105 345.983V373.281C222.105 374.087 222.641 374.794 223.417 375.013L239.009 379.398C240.157 379.721 241.295 378.858 241.295 377.666Z" fill="#578151"/>
<path d="M254.789 377.366V314.499C254.789 312.601 257.348 311.996 258.197 313.694L273.79 344.879C273.914 345.129 273.979 345.404 273.979 345.683V372.981C273.979 373.787 273.443 374.495 272.667 374.713L257.075 379.098C255.928 379.421 254.789 378.558 254.789 377.366Z" fill="#578151"/>
<path d="M296.519 261.674L297.041 261.221C302.333 256.631 309.102 254.104 316.107 254.104H330.548C331.669 254.104 333.433 254.874 335.405 255.998C342.363 259.967 346.515 267.311 348.391 275.099L350.728 284.8C351.526 288.113 351.586 291.561 350.904 294.9C349.142 303.519 342.666 310.405 334.172 312.693L329.514 313.947C318.284 316.971 306.305 313.468 298.473 304.87L294.251 300.235C288.312 293.715 285.934 284.705 287.881 276.104C289.15 270.497 292.176 265.441 296.519 261.674Z" fill="#578151"/>
<path d="M308.369 278.452L308.659 278.199C312.268 275.038 316.902 273.295 321.7 273.295H331.427C331.603 273.295 331.803 273.323 332.023 273.377C339.196 275.113 342.499 283.339 344.212 290.518L345.126 294.349C345.664 296.605 345.704 298.951 345.244 301.224C344.046 307.145 339.61 311.882 333.781 313.467L330.78 314.283C323.135 316.362 314.97 313.964 309.664 308.081L306.812 304.92C302.769 300.438 301.15 294.273 302.471 288.382C303.334 284.531 305.4 281.053 308.369 278.452Z" fill="#4F7649"/>
<path d="M308.369 278.452L308.659 278.199C312.268 275.038 316.902 273.295 321.7 273.295H331.427C331.603 273.295 331.803 273.323 332.023 273.377C339.196 275.113 342.499 283.339 344.212 290.518L345.126 294.349C345.664 296.605 345.704 298.951 345.244 301.224C344.046 307.145 339.61 311.882 333.781 313.467L330.78 314.283C323.135 316.362 314.97 313.964 309.664 308.081L306.812 304.92C302.769 300.438 301.15 294.273 302.471 288.382C303.334 284.531 305.4 281.053 308.369 278.452Z" fill="#4F7649"/>
<path d="M308.369 278.452L308.659 278.199C312.268 275.038 316.902 273.295 321.7 273.295H331.427C331.603 273.295 331.803 273.323 332.023 273.377C339.196 275.113 342.499 283.339 344.212 290.518L345.126 294.349C345.664 296.605 345.704 298.951 345.244 301.224C344.046 307.145 339.61 311.882 333.781 313.467L330.78 314.283C323.135 316.362 314.97 313.964 309.664 308.081L306.812 304.92C302.769 300.438 301.15 294.273 302.471 288.382C303.334 284.531 305.4 281.053 308.369 278.452Z" fill="#4F7649"/>
<circle cx="67.9828" cy="238.213" r="46.4766" fill="#8DC684" stroke="#3C5738" stroke-width="17.9909"/>
<circle cx="444.966" cy="207.857" r="35.682" fill="#79AD71" stroke="#3C5738" stroke-width="17.9909"/>
<circle cx="405.032" cy="71.358" r="31.4841" fill="#79AD71" stroke="#3C5738" stroke-width="17.9909"/>
<circle cx="278.544" cy="100.99" r="36.2817" fill="#79AD71" stroke="#3C5738" stroke-width="17.9909"/>
<path d="M316.273 288.582L316.344 288.518C318.655 286.439 321.654 285.289 324.762 285.289H330.778C330.843 285.289 330.913 285.295 330.988 285.308C335.738 286.078 337.774 291.816 338.862 296.503L339.439 298.985C339.773 300.424 339.798 301.916 339.512 303.365C338.75 307.231 335.876 310.338 332.08 311.398L330.465 311.849C325.594 313.21 320.375 311.658 317.037 307.859L315.258 305.833C312.681 302.899 311.652 298.915 312.484 295.1C313.034 292.584 314.359 290.304 316.273 288.582Z" fill="#4F7649"/>
<path d="M316.273 288.582L316.344 288.518C318.655 286.439 321.654 285.289 324.762 285.289H330.778C330.843 285.289 330.913 285.295 330.988 285.308C335.738 286.078 337.774 291.816 338.862 296.503L339.439 298.985C339.773 300.424 339.798 301.916 339.512 303.365C338.75 307.231 335.876 310.338 332.08 311.398L330.465 311.849C325.594 313.21 320.375 311.658 317.037 307.859L315.258 305.833C312.681 302.899 311.652 298.915 312.484 295.1C313.034 292.584 314.359 290.304 316.273 288.582Z" fill="#4F7649"/>
<path d="M316.273 288.582L316.344 288.518C318.655 286.439 321.654 285.289 324.762 285.289H330.778C330.843 285.289 330.913 285.295 330.988 285.308C335.738 286.078 337.774 291.816 338.862 296.503L339.439 298.985C339.773 300.424 339.798 301.916 339.512 303.365C338.75 307.231 335.876 310.338 332.08 311.398L330.465 311.849C325.594 313.21 320.375 311.658 317.037 307.859L315.258 305.833C312.681 302.899 311.652 298.915 312.484 295.1C313.034 292.584 314.359 290.304 316.273 288.582Z" fill="#476A41"/>
</svg>
