<svg width="500" height="500" viewBox="0 0 500 500" fill="none" xmlns="http://www.w3.org/2000/svg">
<path d="M252.133 24.6467L246.686 19.6318L240.952 24.3157C236.608 27.865 232.185 33.4864 227.834 40.0682C223.382 46.8034 218.622 55.1431 213.708 64.6427C203.875 83.653 193.201 107.748 182.911 133.892C162.43 185.93 143.176 246.842 135.102 292.877C125.876 325.229 120 373.964 133.372 414.909C140.153 435.671 151.995 454.737 171.128 468.362C190.271 481.994 215.936 489.627 249.369 488.898C282.6 488.173 307.035 480.279 324.377 466.721C341.792 453.105 351.087 434.532 355.441 414.381C363.494 377.11 354.961 332.34 348.435 298.103C348.038 296.02 347.649 293.977 347.271 291.977C340.445 255.839 322.966 195.08 304.361 140.828C295.044 113.659 285.38 87.9333 276.544 67.5821C272.129 57.4149 267.869 48.468 263.913 41.3051C260.09 34.3815 256.125 28.3224 252.133 24.6467Z" fill="#3A8F2C" stroke="#46793E" stroke-width="17.0695"/>
<path d="M278.77 371.201C312.004 354.372 279.771 151.18 257.541 60.7013C302.411 122.437 337.428 352.882 332.677 411.868C327.926 470.855 250.922 457.538 248.359 452.109C229.359 411.868 257.541 381.951 278.77 371.201Z" fill="#4CA73D"/>
</svg>
