<svg width="500" height="501" viewBox="0 0 500 501" fill="none" xmlns="http://www.w3.org/2000/svg">
<g clip-path="url(#clip0_692_70806)">
<path d="M441.948 178.51L308.64 48.575C300.901 41.0317 289.725 38.1901 279.323 41.1208L100.142 91.6018C89.7399 94.5325 81.6913 102.79 79.0281 113.264L33.1556 293.68C30.4925 304.154 33.6195 315.253 41.3587 322.796L174.667 452.731C182.406 460.274 193.582 463.116 203.984 460.185L383.165 409.704C393.567 406.773 401.616 398.516 404.279 388.042L450.151 207.626C452.815 197.152 449.688 186.053 441.948 178.51Z" fill="#3A8F2C" stroke="#256A1A" stroke-width="20.5"/>
<path d="M246.572 127.827L341.636 220.485L308.923 349.142L181.147 385.14L86.0839 292.482L118.796 163.826L246.572 127.827Z" fill="#419B32"/>
<path d="M234.004 177.255L292.546 234.315L272.402 313.544L193.715 335.713L135.173 278.652L155.318 199.423L234.004 177.255Z" fill="#51AD42"/>
<path d="M292.49 47.6707L246.268 128.008L340.908 221.461L442.334 194.885L292.49 47.6707Z" fill="#8CD382"/>
<path d="M118.427 164.119L91.5014 104.65L292.794 47.49L246.51 128.07L118.427 164.119Z" fill="#6BBD5E"/>
<path d="M392.171 396.233L309.411 349.395L180.725 384.775L189.906 454.177L392.171 396.233Z" fill="#328125"/>
<path d="M40.0573 307.994L86.0808 292.353L180.786 384.532L190.09 453.45L40.0573 307.994Z" fill="#2B6F20"/>
<path d="M135.492 278.605L85.5962 292.229L182.178 385.144L194.684 335.959L135.492 278.605Z" fill="#6BBD5E"/>
<path d="M271.902 313.288L194.384 335.109L181.879 384.294L309.046 349.818L271.902 313.288Z" fill="#8CD381"/>
<path d="M246.272 126.977L233.089 178.827L155.703 198.102L117.943 163.996L246.272 126.977Z" fill="#3A8D2C"/>
<path d="M293.016 234.305L233.939 178.528L246.938 127.404L341.027 222.007L293.016 234.305Z" fill="#3A852E"/>
</g>
<defs>
<clipPath id="clip0_692_70806">
<rect width="500" height="500" fill="white" transform="translate(0 0.5)"/>
</clipPath>
</defs>
</svg>
