<svg width="400" height="400" viewBox="0 0 400 400" fill="none" xmlns="http://www.w3.org/2000/svg">
<path d="M195.886 36.8654C198.653 33.9051 203.347 33.9051 206.114 36.8654L245.072 78.5484C247.635 81.2905 251.257 82.7911 255.009 82.6644L312.03 80.7373C316.08 80.6004 319.4 83.9201 319.263 87.9697L317.336 144.991C317.209 148.743 318.71 152.365 321.452 154.928L363.135 193.886C366.095 196.653 366.095 201.347 363.135 204.114L321.452 243.072C318.71 245.635 317.209 249.257 317.336 253.009L319.263 310.03C319.4 314.08 316.08 317.4 312.03 317.263L255.009 315.336C251.257 315.209 247.635 316.71 245.072 319.452L206.114 361.135C203.347 364.095 198.653 364.095 195.886 361.135L156.928 319.452C154.365 316.71 150.743 315.209 146.991 315.336L89.9697 317.263C85.9201 317.4 82.6004 314.08 82.7373 310.03L84.6644 253.009C84.7911 249.258 83.2905 245.635 80.5484 243.072L38.8654 204.114C35.9051 201.347 35.9051 196.653 38.8654 193.886L80.5484 154.928C83.2905 152.365 84.7911 148.743 84.6644 144.991L82.7373 87.9697C82.6004 83.92 85.92 80.6004 89.9697 80.7373L146.991 82.6644C150.742 82.7911 154.365 81.2905 156.928 78.5484L195.886 36.8654Z" fill="#543838" stroke="#352F2F" stroke-width="6"/>
<circle cx="199.822" cy="200.178" r="154.329" fill="#312222"/>
<circle cx="199.822" cy="200.178" r="148.393" fill="#543838"/>
<path d="M324.472 200.178C324.472 168.951 312.752 138.862 291.63 115.863C270.507 92.8639 241.522 78.6304 210.408 75.9783C179.295 73.3263 148.319 82.4489 123.609 101.541C98.8988 120.634 82.2549 148.306 76.97 179.082C71.685 209.858 78.1439 241.497 95.0689 267.739C111.994 293.981 138.152 312.915 168.368 320.794C198.584 328.674 230.657 324.926 258.242 310.291C285.827 295.656 306.914 271.2 317.331 241.762L199.822 200.178H324.472Z" fill="#472F2F"/>
<path d="M286.632 200.178C286.632 215.954 282.333 231.432 274.197 244.948C266.061 258.464 254.396 269.507 240.455 276.892C226.514 284.276 210.824 287.721 195.072 286.858C179.319 285.995 164.1 280.855 151.049 271.992C137.999 263.128 127.61 250.876 121 236.552C114.39 222.228 111.808 206.373 113.532 190.692C115.256 175.01 121.22 160.095 130.785 147.549C140.349 135.003 153.151 125.3 167.816 119.484L199.822 200.178H286.632Z" fill="#543838"/>
<path d="M156.276 243.724C146.202 233.649 139.932 220.393 138.535 206.214C137.139 192.035 140.702 177.811 148.617 165.964C156.533 154.118 168.311 145.383 181.945 141.247C195.579 137.111 210.226 137.83 223.389 143.283C236.552 148.735 247.417 158.583 254.133 171.148C260.85 183.713 263.001 198.219 260.222 212.192C257.442 226.166 249.903 238.744 238.89 247.782C227.876 256.821 214.07 261.761 199.822 261.761L199.822 200.178L156.276 243.724Z" fill="#654040"/>
</svg>
