<svg width="1001" height="1001" viewBox="0 0 1001 1001" fill="none" xmlns="http://www.w3.org/2000/svg">
<path d="M515.535 92.4135L612.93 196.621C619.337 203.476 628.394 207.228 637.771 206.911L780.326 202.093C790.45 201.751 798.749 210.05 798.407 220.174L793.589 362.729C793.272 372.106 797.024 381.163 803.879 387.57L908.086 484.965C915.487 491.882 915.487 503.618 908.086 510.535L803.879 607.93C797.024 614.337 793.272 623.394 793.589 632.771L798.407 775.326C798.749 785.45 790.45 793.749 780.326 793.407L637.771 788.589C628.394 788.272 619.337 792.024 612.93 798.879L515.535 903.086C508.618 910.487 496.882 910.487 489.965 903.086L392.57 798.879C386.163 792.024 377.106 788.272 367.729 788.589L225.174 793.407C215.05 793.749 206.751 785.45 207.093 775.326L211.911 632.771C212.228 623.394 208.476 614.337 201.621 607.93L97.4135 510.535C90.0126 503.618 90.0126 491.882 97.4135 484.965L201.621 387.57C208.476 381.163 212.228 372.106 211.911 362.729L207.093 220.174C206.751 210.05 215.05 201.751 225.174 202.093L367.729 206.911C377.106 207.228 386.163 203.476 392.57 196.621L489.965 92.4135C496.882 85.0126 508.618 85.0126 515.535 92.4135Z" fill="#543838" stroke="#352F2F" stroke-width="15"/>
<circle cx="499.805" cy="500.695" r="385.822" fill="#312222"/>
<circle cx="499.806" cy="500.695" r="370.983" fill="#543838"/>
<path d="M811.43 500.695C811.43 422.628 782.129 347.405 729.324 289.907C676.519 232.41 604.056 196.826 526.271 190.196C448.487 183.565 371.047 206.372 309.272 254.103C247.497 301.835 205.888 371.014 192.675 447.954C179.463 524.894 195.61 603.992 237.922 669.597C280.235 735.202 345.63 782.537 421.17 802.236C496.711 821.935 576.893 812.564 645.855 775.976C714.817 739.389 767.535 678.25 793.578 604.656L499.805 500.695H811.43Z" fill="#472F2F"/>
<path d="M716.83 500.695C716.83 540.135 706.082 578.829 685.743 612.619C665.403 646.41 636.239 674.018 601.387 692.479C566.534 710.939 527.31 719.553 487.929 717.395C448.549 715.237 410.501 702.388 377.874 680.23C345.247 658.071 319.276 627.441 302.75 591.63C286.225 555.82 279.77 516.183 284.08 476.979C288.39 437.776 303.301 400.488 327.212 369.122C351.123 337.757 383.128 313.501 419.789 298.96L499.805 500.695H716.83Z" fill="#543838"/>
<path d="M390.94 609.56C365.754 584.373 350.08 551.233 346.589 515.786C343.097 480.338 352.005 444.777 371.794 415.161C391.583 385.545 421.028 363.706 455.113 353.367C489.199 343.027 525.814 344.826 558.722 358.457C591.63 372.088 618.793 396.707 635.584 428.12C652.374 459.533 657.753 495.796 650.805 530.731C643.856 565.665 625.009 597.11 597.475 619.706C569.941 642.303 535.424 654.653 499.805 654.653L499.805 500.695L390.94 609.56Z" fill="#654040"/>
</svg>
