<svg width="1001" height="1001" viewBox="0 0 1001 1001" fill="none" xmlns="http://www.w3.org/2000/svg">
<path d="M534.219 90.781L593.488 158.995C607.064 174.621 627.736 182.145 648.18 178.901L737.43 164.744C764.444 160.458 789.003 181.065 789.473 208.413L791.029 298.766C791.385 319.462 802.384 338.514 820.13 349.17L897.6 395.693C921.049 409.775 926.615 441.347 909.397 462.599L852.511 532.813C839.48 548.897 835.66 570.561 842.404 590.131L871.845 675.566C880.756 701.426 864.727 729.19 837.876 734.403L749.167 751.624C728.846 755.569 711.994 769.709 704.581 789.036L672.217 873.407C662.421 898.945 632.296 909.91 608.376 896.643L529.351 852.814C511.249 842.774 489.251 842.774 471.149 852.814L392.124 896.643C368.204 909.91 338.079 898.945 328.283 873.407L295.919 789.036C288.506 769.709 271.654 755.569 251.333 751.624L162.624 734.403C135.773 729.19 119.744 701.426 128.655 675.566L158.096 590.131C164.84 570.561 161.02 548.897 147.989 532.813L91.1031 462.599C73.8846 441.347 79.4515 409.775 102.9 395.693L180.37 349.17C198.116 338.514 209.115 319.462 209.471 298.766L211.027 208.413C211.497 181.065 236.056 160.458 263.07 164.744L352.32 178.901C372.764 182.145 393.436 174.621 407.012 158.995L466.281 90.781C484.221 70.1336 516.279 70.1336 534.219 90.781Z" fill="#BCB736" stroke="#70692C" stroke-width="15"/>
<path d="M500.251 102.173L756.13 195.305L892.28 431.125L844.995 699.289L636.401 874.32H364.1L155.506 699.289L108.221 431.125L244.372 195.305L500.251 102.173Z" fill="#273041"/>
<path d="M500.251 129.371L738.648 216.14L865.496 435.848L821.442 685.69L627.099 848.763H373.403L179.06 685.69L135.007 435.848L261.855 216.14L500.251 129.371Z" fill="#3F4550"/>
<path d="M543.52 285.14L709.603 345.589L797.974 498.652L767.283 672.709L631.891 786.316H455.149L319.757 672.709L289.066 498.652L377.437 345.589L543.52 285.14Z" fill="#525B6D"/>
<path d="M452.037 206.019L610.173 263.576L694.316 409.315L665.094 575.044L536.18 683.216H367.894L238.98 575.044L209.758 409.315L293.901 263.576L452.037 206.019Z" fill="#5A6273"/>
<path d="M488.755 382.831C495.382 380.418 502.648 380.418 509.276 382.831L567.425 403.995C574.053 406.408 579.619 411.078 583.145 417.186L614.086 470.777C617.613 476.885 618.875 484.041 617.65 490.987L606.904 551.928C605.679 558.874 602.047 565.166 596.644 569.7L549.24 609.477C543.837 614.01 537.009 616.495 529.956 616.495H468.074C461.021 616.495 454.194 614.01 448.791 609.477L401.387 569.7C395.984 565.166 392.351 558.874 391.126 551.928L380.38 490.987C379.156 484.041 380.417 476.885 383.944 470.777L414.885 417.186C418.411 411.078 423.977 406.408 430.605 403.995L488.755 382.831Z" fill="#5D6678"/>
</svg>
