<svg width="501" height="501" viewBox="0 0 501 501" fill="none" xmlns="http://www.w3.org/2000/svg">
<path d="M267.86 45.6405L297.494 79.7475C304.282 87.5603 314.618 91.3223 324.84 89.7007L369.465 82.6218C382.972 80.4792 395.251 90.7826 395.487 104.457L396.264 149.633C396.443 159.981 401.942 169.507 410.815 174.835L449.55 198.097C461.274 205.138 464.058 220.923 455.448 231.55L427.006 266.656C420.49 274.698 418.58 285.53 421.952 295.316L436.673 338.033C441.128 350.963 433.114 364.845 419.688 367.451L375.333 376.062C365.173 378.034 356.747 385.104 353.04 394.768L336.859 436.953C331.961 449.722 316.898 455.205 304.938 448.572L265.426 426.657C256.375 421.637 245.375 421.637 236.324 426.657L196.812 448.572C184.852 455.205 169.789 449.722 164.891 436.953L148.71 394.768C145.003 385.104 136.577 378.034 126.417 376.062L82.062 367.451C68.6365 364.845 60.6218 350.963 65.0775 338.033L79.7978 295.316C83.1698 285.53 81.2598 274.698 74.7445 266.656L46.3015 231.55C37.6923 220.923 40.4758 205.138 52.2002 198.097L90.935 174.835C99.8079 169.507 105.308 159.981 105.486 149.633L106.263 104.457C106.499 90.7826 118.778 80.4792 132.285 82.6218L176.91 89.7007C187.132 91.3223 197.468 87.5603 204.256 79.7475L233.89 45.6405C242.86 35.3168 258.89 35.3168 267.86 45.6405Z" fill="#BCB736" stroke="#70692C" stroke-width="7.5"/>
<path d="M250.875 51.3365L378.815 97.9027L446.89 215.812L423.248 349.894L318.951 437.41H182.8L78.503 349.894L54.8607 215.812L122.936 97.9027L250.875 51.3365Z" fill="#273041"/>
<path d="M250.876 64.9355L370.074 108.32L433.498 218.174L411.471 343.095L314.3 424.631H187.452L90.2802 343.095L68.2533 218.174L131.677 108.32L250.876 64.9355Z" fill="#3F4550"/>
<path d="M272.51 142.82L355.551 173.045L399.737 249.576L384.391 336.604L316.695 393.408H228.324L160.628 336.604L145.283 249.576L189.468 173.045L272.51 142.82Z" fill="#525B6D"/>
<path d="M226.768 103.26L305.837 132.038L347.908 204.908L333.297 287.772L268.84 341.858H184.697L120.24 287.772L105.629 204.908L147.7 132.038L226.768 103.26Z" fill="#5A6273"/>
<path d="M245.127 191.665C248.441 190.459 252.074 190.459 255.388 191.665L284.463 202.248C287.777 203.454 290.559 205.789 292.323 208.843L307.793 235.639C309.556 238.693 310.187 242.27 309.575 245.743L304.202 276.214C303.59 279.687 301.773 282.833 299.072 285.1L275.37 304.988C272.668 307.255 269.254 308.498 265.728 308.498H234.787C231.261 308.498 227.847 307.255 225.145 304.988L201.443 285.1C198.742 282.833 196.925 279.687 196.313 276.214L190.94 245.743C190.328 242.27 190.959 238.693 192.722 235.639L208.192 208.843C209.956 205.789 212.739 203.454 216.052 202.248L245.127 191.665Z" fill="#5D6678"/>
</svg>
