<svg width="400" height="400" viewBox="0 0 400 400" fill="none" xmlns="http://www.w3.org/2000/svg">
<path d="M208.616 44.303C209.818 41.9441 213.263 42.1851 214.125 44.6883L239.867 119.443C241.339 123.718 245.753 126.237 250.182 125.33L327.638 109.472C330.232 108.941 332.192 111.786 330.772 114.02L288.376 180.755C285.952 184.571 286.735 189.592 290.205 192.49L350.896 243.16C352.928 244.857 351.927 248.163 349.294 248.446L270.686 256.908C266.191 257.392 262.753 261.135 262.651 265.654L260.875 344.697C260.816 347.344 257.607 348.622 255.744 346.741L200.117 290.558C196.936 287.345 191.866 286.991 188.269 289.729L125.364 337.623C123.258 339.227 120.258 337.515 120.567 334.886L129.81 256.365C130.338 251.875 127.454 247.69 123.071 246.586L46.4044 227.266C43.8372 226.619 43.3054 223.206 45.554 221.809L112.707 180.078C116.546 177.692 118.02 172.828 116.151 168.712L83.4549 96.7261C82.3601 94.3156 84.6967 91.772 87.1913 92.6588L161.687 119.142C165.946 120.656 170.668 118.776 172.72 114.748L208.616 44.303Z" fill="#C0ABAB" stroke="#4A4242" stroke-width="6"/>
<path d="M202.207 103.156L200.5 102.534L198.793 103.156L139.335 124.797L137.628 125.418L136.719 126.991L105.083 181.788L104.174 183.361L104.49 185.151L115.477 247.463L115.792 249.252L117.184 250.42L165.655 291.091L167.046 292.259H168.863H232.137H233.954L235.345 291.091L283.816 250.42L285.208 249.252L285.523 247.463L296.51 185.151L296.826 183.361L295.917 181.788L264.281 126.991L263.372 125.418L261.665 124.797L202.207 103.156Z" fill="#6B6E76" stroke="#3F4550" stroke-width="9.98301"/>
<path d="M201.598 137.829L200.5 137.429L199.402 137.829L161.156 151.749L160.058 152.149L159.474 153.161L139.123 188.409L138.539 189.421L138.742 190.572L145.81 230.654L146.012 231.805L146.908 232.556L178.086 258.717L178.981 259.469H180.15H220.85H222.019L222.914 258.717L254.092 232.556L254.988 231.805L255.19 230.654L262.258 190.572L262.461 189.421L261.877 188.409L241.526 153.161L240.942 152.149L239.844 151.749L201.598 137.829Z" fill="#8790A2" stroke="#626262" stroke-width="6.42151"/>
</svg>
