<svg width="501" height="501" viewBox="0 0 501 501" fill="none" xmlns="http://www.w3.org/2000/svg">
<path d="M268.532 56.7354L300.709 150.179C302.549 155.522 308.067 158.671 313.603 157.538L410.423 137.716C413.665 137.052 416.115 140.607 414.34 143.4L361.346 226.819C358.315 231.588 359.294 237.866 363.631 241.487L439.495 304.826C442.036 306.946 440.784 311.078 437.493 311.433L339.232 322.01C333.614 322.615 329.316 327.293 329.189 332.943L326.97 431.746C326.895 435.055 322.884 436.652 320.556 434.301L251.021 364.072C247.046 360.057 240.708 359.613 236.212 363.037L157.58 422.904C154.947 424.909 151.198 422.769 151.584 419.482L163.137 321.331C163.798 315.719 160.193 310.488 154.713 309.107L58.8809 284.957C55.6718 284.149 55.0071 279.883 57.8179 278.136L141.759 225.972C146.558 222.99 148.4 216.91 146.064 211.765L105.194 121.783C103.825 118.769 106.746 115.59 109.864 116.698L202.984 149.802C208.308 151.695 214.21 149.345 216.776 144.31L261.645 56.2538C263.147 53.3052 267.454 53.6064 268.532 56.7354Z" fill="#C0ABAB" stroke="#4A4242" stroke-width="7.5"/>
<path d="M253.634 129.82L251.5 129.043L249.366 129.82L175.044 156.871L172.91 157.647L171.774 159.614L132.228 228.11L131.093 230.077L131.487 232.313L145.221 310.204L145.616 312.44L147.355 313.9L207.944 364.739L209.683 366.199H211.954H291.046H293.317L295.057 364.739L355.645 313.9L357.385 312.44L357.779 310.204L371.513 232.313L371.908 230.077L370.772 228.11L331.226 159.614L330.091 157.647L327.957 156.871L253.634 129.82Z" fill="#6B6E76" stroke="#3F4550" stroke-width="12.4788"/>
<path d="M252.873 173.161L251.5 172.662L250.128 173.161L202.32 190.562L200.948 191.061L200.217 192.326L174.779 236.386L174.049 237.651L174.303 239.09L183.137 289.192L183.391 290.631L184.51 291.57L223.483 324.272L224.602 325.211H226.062H276.938H278.399L279.518 324.272L318.491 291.57L319.61 290.631L319.863 289.192L328.698 239.09L328.951 237.651L328.221 236.386L302.783 192.326L302.053 191.061L300.68 190.562L252.873 173.161Z" fill="#8790A2" stroke="#626262" stroke-width="8.02688"/>
</svg>
