<svg width="400" height="400" viewBox="0 0 400 400" fill="none" xmlns="http://www.w3.org/2000/svg">
<path d="M208.816 47.6377C209.801 45.5986 212.771 45.8062 213.463 47.9626L231.8 105.118C233.455 110.277 239.382 112.672 244.156 110.111L297.05 81.7342C299.046 80.6636 301.326 82.5769 300.618 84.7281L281.858 141.746C280.165 146.893 283.552 152.314 288.92 153.048L348.392 161.181C350.635 161.488 351.355 164.377 349.518 165.701L300.827 200.803C296.432 203.971 295.986 210.348 299.897 214.097L343.23 255.633C344.865 257.2 343.75 259.96 341.485 259.952L281.46 259.73C276.043 259.709 271.933 264.607 272.894 269.938L283.536 329.013C283.938 331.241 281.413 332.819 279.586 331.481L231.156 296.019C226.785 292.819 220.582 294.365 218.225 299.243L192.112 353.291C191.127 355.33 188.157 355.122 187.466 352.966L169.129 295.81C167.474 290.651 161.546 288.257 156.772 290.818L103.878 319.194C101.882 320.265 99.6022 318.351 100.31 316.2L119.07 259.182C120.763 254.036 117.376 248.614 112.008 247.88L52.5366 239.747C50.2929 239.44 49.5728 236.552 51.4098 235.227L100.102 200.126C104.496 196.958 104.942 190.58 101.031 186.832L57.6985 145.295C56.0636 143.728 57.1787 140.968 59.4433 140.976L119.468 141.199C124.886 141.219 128.995 136.322 128.034 130.99L117.392 71.9157C116.99 69.6869 119.515 68.1096 121.342 69.4474L169.772 104.909C174.143 108.11 180.346 106.563 182.703 101.685L208.816 47.6377Z" fill="#C0ABAB" stroke="#4A4242" stroke-width="6.16332"/>
<path d="M202.207 103.156L200.5 102.534L198.793 103.156L139.335 124.797L137.628 125.418L136.719 126.991L105.083 181.788L104.174 183.361L104.49 185.151L115.477 247.463L115.792 249.252L117.184 250.42L165.655 291.091L167.046 292.259H168.863H232.137H233.954L235.345 291.091L283.816 250.42L285.208 249.252L285.523 247.463L296.51 185.151L296.826 183.361L295.917 181.788L264.281 126.991L263.372 125.418L261.665 124.797L202.207 103.156Z" fill="#74D8EE" stroke="#51A1B2" stroke-width="9.98301"/>
<path d="M202.21 136.148L200.5 135.525L198.79 136.148L160.544 150.068L158.834 150.691L157.924 152.267L137.574 187.514L136.664 189.09L136.98 190.882L144.047 230.964L144.363 232.757L145.758 233.926L176.936 260.088L178.33 261.258H180.15H220.85H222.67L224.064 260.088L255.242 233.926L256.637 232.757L256.953 230.964L264.02 190.882L264.336 189.09L263.426 187.514L243.076 152.267L242.166 150.691L240.456 150.068L202.21 136.148Z" fill="#89EAFF" stroke="#67C9DE" stroke-width="10"/>
</svg>
