<svg width="1001" height="1001" viewBox="0 0 1001 1001" fill="none" xmlns="http://www.w3.org/2000/svg">
<path d="M533.906 120.156L579.749 263.046C583.886 275.942 598.705 281.929 610.639 275.526L742.875 204.585C747.864 201.909 753.565 206.692 751.795 212.07L704.895 354.616C700.662 367.481 709.131 381.034 722.55 382.87L871.229 403.204C876.838 403.971 878.638 411.191 874.046 414.502L752.316 502.256C741.329 510.176 740.215 526.119 749.992 535.491L858.324 639.333C862.411 643.251 859.623 650.151 853.962 650.13L703.9 649.574C690.356 649.523 680.083 661.766 682.484 675.095L709.09 822.781C710.094 828.353 703.783 832.297 699.215 828.952L578.139 740.297C567.212 732.296 551.705 736.163 545.813 748.357L480.53 883.476C478.067 888.574 470.643 888.055 468.914 882.664L423.071 739.774C418.933 726.878 404.115 720.891 392.181 727.294L259.945 798.235C254.956 800.911 249.255 796.128 251.024 790.75L297.925 648.204C302.158 635.339 293.689 621.786 280.27 619.951L131.591 599.617C125.982 598.85 124.181 591.629 128.774 588.318L250.504 500.564C261.49 492.644 262.605 476.701 252.828 467.329L144.496 363.487C140.409 359.569 143.196 352.669 148.858 352.69L298.92 353.247C312.464 353.297 322.737 341.054 320.335 327.725L293.73 180.039C292.726 174.467 299.037 170.524 303.605 173.868L424.68 262.523C435.608 270.524 451.115 266.658 457.007 254.463L522.29 119.344C524.753 114.246 532.177 114.765 533.906 120.156Z" fill="#C0ABAB" stroke="#4A4242" stroke-width="15.4083"/>
<path d="M505.768 258.139L501.5 256.586L497.232 258.139L348.587 312.242L344.319 313.795L342.048 317.728L262.956 454.72L260.685 458.653L261.474 463.126L288.942 618.908L289.731 623.38L293.21 626.3L414.387 727.979L417.866 730.898H422.408H580.592H585.134L588.613 727.979L709.79 626.3L713.269 623.38L714.058 618.908L741.526 463.126L742.315 458.653L740.044 454.72L660.952 317.728L658.681 313.795L654.413 312.242L505.768 258.139Z" fill="#74D8EE" stroke="#51A1B2" stroke-width="24.9575"/>
<path d="M505.775 340.619L501.5 339.063L497.225 340.619L401.61 375.42L397.335 376.976L395.06 380.916L344.185 469.035L341.91 472.976L342.7 477.456L360.369 577.661L361.159 582.142L364.644 585.066L442.59 650.47L446.075 653.395H450.625H552.375H556.925L560.41 650.47L638.356 585.066L641.841 582.142L642.631 577.661L660.3 477.456L661.09 472.976L658.815 469.035L607.94 380.916L605.665 376.976L601.39 375.42L505.775 340.619Z" fill="#89EAFF" stroke="#67C9DE" stroke-width="25"/>
</svg>
