<svg width="400" height="400" viewBox="0 0 400 400" fill="none" xmlns="http://www.w3.org/2000/svg">
<path d="M186.412 36.2124C193.588 27.9534 206.412 27.9535 213.588 36.2124L237.295 63.498C242.726 69.7482 250.994 72.7578 259.172 71.4606L294.872 65.7975C305.678 64.0833 315.501 72.3261 315.689 83.2654L316.311 119.406C316.454 127.685 320.854 135.305 327.952 139.568L358.94 158.177C368.319 163.81 370.546 176.439 363.659 184.94L340.904 213.025C335.692 219.459 334.164 228.124 336.862 235.952L348.638 270.127C352.203 280.471 345.791 291.576 335.05 293.661L299.567 300.55C291.438 302.127 284.698 307.784 281.732 315.514L268.787 349.263C264.868 359.478 252.818 363.864 243.25 358.557L211.64 341.026C204.4 337.01 195.6 337.01 188.36 341.026L156.75 358.557C147.182 363.864 135.132 359.478 131.213 349.263L118.268 315.514C115.302 307.784 108.562 302.127 100.433 300.55L64.9496 293.661C54.2092 291.576 47.7975 280.471 51.362 270.127L63.1383 235.952C65.8358 228.124 64.3078 219.459 59.0956 213.025L36.3412 184.94C29.4539 176.439 31.6806 163.81 41.0602 158.177L72.048 139.568C79.1463 135.305 83.546 127.685 83.6885 119.406L84.3106 83.2654C84.499 72.3261 94.3223 64.0833 105.128 65.7975L140.828 71.4606C149.006 72.7578 157.274 69.7482 162.705 63.498L186.412 36.2124Z" fill="#BCB736" stroke="#70692C" stroke-width="6"/>
<path d="M200 40.7692L302.352 78.0221L356.812 172.35L337.898 279.615L254.46 349.628H145.54L62.1021 279.615L43.1883 172.35L97.6484 78.0221L200 40.7692Z" fill="#273041"/>
<path d="M200 51.6484L295.359 86.3561L346.098 174.239L328.476 274.176L250.739 339.405H149.261L71.5237 274.176L53.9022 174.239L104.641 86.3561L200 51.6484Z" fill="#3F4550"/>
<path d="M217.308 113.956L283.741 138.136L319.089 199.361L306.813 268.984L252.656 314.426H181.959L127.803 268.984L115.526 199.361L150.875 138.136L217.308 113.956Z" fill="#525B6D"/>
<path d="M180.714 82.3077L243.969 105.331L277.626 163.626L265.937 229.918L214.371 273.186H147.057L95.4917 229.918L83.8027 163.626L117.46 105.331L180.714 82.3077Z" fill="#5A6273"/>
<path d="M195.401 153.032C198.052 152.067 200.959 152.067 203.61 153.032L226.87 161.498C229.521 162.463 231.747 164.331 233.158 166.774L245.534 188.211C246.945 190.654 247.449 193.516 246.959 196.295L242.661 220.671C242.171 223.45 240.718 225.967 238.557 227.78L219.595 243.691C217.434 245.504 214.703 246.498 211.882 246.498H187.129C184.308 246.498 181.577 245.504 179.416 243.691L160.454 227.78C158.293 225.967 156.84 223.45 156.35 220.671L152.052 196.295C151.562 193.516 152.066 190.654 153.477 188.211L165.853 166.774C167.264 164.331 169.49 162.463 172.141 161.498L195.401 153.032Z" fill="#5D6678"/>
</svg>
