<svg width="400" height="400" viewBox="0 0 400 400" fill="none" xmlns="http://www.w3.org/2000/svg">
<mask id="path-1-outside-1_472_328" maskUnits="userSpaceOnUse" x="15.0195" y="9" width="376" height="383" fill="black">
<rect fill="white" x="15.0195" y="9" width="376" height="383"/>
<path d="M130.762 163.777L162.406 139.25H240.466L271.475 163.777L283.617 209.805L287.011 233.323L279.496 264.45L261.556 281.974L256.95 305.031L243.375 348.378L227.463 372.165L205.033 381.811L180.699 372.165L164.588 348.378L145.679 305.031L139.619 281.974L124.104 259.378L116.104 233.323L119.013 208.421L130.762 163.777Z"/>
<path d="M147.253 276.553L130.629 267.551L139.784 281.631L145.807 303.56L164.6 347.649L174.96 361.961L181.465 345.11L174.96 338.416L166.768 305.869L156.89 284.401L147.253 276.553Z"/>
<path d="M254.088 276.848L273.938 269.487L261.592 281.909L256.509 306.063L248.278 332.287L244.405 346.319L234.48 361.041L226.249 361.961L219.713 345.168L226.249 338.497L234.48 306.063L244.405 284.67L254.088 276.848Z"/>
<path d="M166.591 221.469L146.257 240.351L137.3 243.014L148.677 256.813L160.781 270.853C164.412 283.118 171.675 308.133 171.675 310.07C171.675 312.006 176.678 328.468 179.179 336.456L188.862 346.623L179.179 267.464L171.675 251.003L166.591 221.469Z"/>
<path d="M235.825 223.164L259.791 240.351L268.748 243.014L257.37 256.813L245.266 270.853C241.635 283.118 234.373 308.133 234.373 310.07C234.373 312.006 229.37 328.468 226.868 336.456L217.185 346.623L226.868 267.464L234.373 251.003L235.825 223.164Z"/>
<path d="M144.562 173.538L118.902 211.786L130.522 165.308L161.992 139.405H240.183L271.653 165.308L283.515 213.965L260.517 172.086L231.71 155.14L167.076 153.688L144.562 173.538Z"/>
<path d="M130.55 242.75L131.369 227.29L135.969 219.323L146.043 215.915C151.01 217.479 161.022 220.762 161.332 221.388C161.641 222.014 165.469 229.554 167.344 233.245L167.735 246.609L165.956 261.794L159.678 265.856L148.786 260.547C145.542 258.58 138.653 254.472 137.046 253.768C135.44 253.065 132.046 246.13 130.55 242.75Z"/>
<path d="M272.519 242.75L271.699 227.29L267.1 219.323L257.026 215.915C252.058 217.479 242.046 220.762 241.737 221.388C241.427 222.014 237.599 229.554 235.724 233.245L235.333 246.609L238.111 260.547L245.615 266.098L254.282 260.547C257.526 258.58 264.416 254.472 266.022 253.768C267.628 253.065 271.022 246.129 272.519 242.75Z"/>
<path d="M135.605 237.447L137.784 224.374L142.868 221.954L159.087 233.089L162.96 247.856L160.297 258.992C156.343 257.539 148.29 254.586 147.709 254.392C147.128 254.198 139.398 243.014 135.605 237.447Z"/>
<path d="M268.748 238.415L266.569 225.343L261.485 222.922L245.266 234.057L241.393 248.824L244.056 259.96C248.01 258.507 256.063 255.554 256.644 255.36C257.225 255.167 264.955 243.983 268.748 238.415Z"/>
<path d="M160.865 240.3C160.865 247.921 154.687 254.099 147.067 254.099C139.446 254.099 133.268 247.921 133.268 240.3C133.268 232.68 139.446 226.502 147.067 226.502C154.687 226.502 160.865 232.68 160.865 240.3Z"/>
<path d="M150.931 234.781C150.931 239.353 147.224 243.06 142.651 243.06C138.079 243.06 134.372 239.353 134.372 234.781C134.372 230.209 138.079 226.502 142.652 226.502C147.224 226.502 150.931 230.209 150.931 234.781Z"/>
<path d="M270.442 238.657C270.442 246.277 264.265 252.455 256.644 252.455C249.023 252.455 242.845 246.277 242.845 238.657C242.845 231.036 249.023 224.858 256.644 224.858C264.265 224.858 270.442 231.036 270.442 238.657Z"/>
<path d="M260.508 233.137C260.508 237.71 256.801 241.416 252.229 241.416C247.656 241.416 243.95 237.71 243.95 233.137C243.95 228.565 247.656 224.858 252.229 224.858C256.801 224.858 260.508 228.565 260.508 233.137Z"/>
<path d="M180.497 371.698L170.814 356.298L174.203 342.047L181.223 336.301L191.632 339.519L203.494 344.345L217.05 339.519L230.123 337.22L236.659 344.345L238.111 354.459L227.46 371.698L204.946 381.811L180.497 371.698Z"/>
<path d="M176.6 235.943L168.37 247.079L167.401 233.522L161.591 221.418L146.098 215.366L135.205 219.482L137.142 215.366L155.055 211.251L168.37 218.271L176.6 235.943Z"/>
<path d="M226.868 235.994L235.099 247.13L236.067 233.573L241.877 221.469L257.37 215.418L268.264 219.533L266.327 215.418L248.413 211.302L235.099 218.322L226.868 235.994Z"/>
<path d="M143.394 152.158L156.289 170.735V202.965L135.98 206.927C129.962 207.354 117.798 208.529 117.282 209.81C116.767 211.091 103.098 205.006 96.3285 201.803L54.4208 167.532L37.0129 155.041L27.0195 138.065L38.6248 131.019L49.5852 132.62C68.4975 134.329 106.709 137.809 108.256 138.065C109.803 138.322 132.326 147.567 143.394 152.158Z"/>
<path d="M127.043 193.314L144.59 186.88L142.543 175.766L127.043 154.709C101.793 149.444 51.0602 138.916 50.1243 138.916H36.086C39.6076 147.238 48.3467 156.211 49.0487 156.679C49.7506 157.147 91.2227 186.15 104.969 195.412L127.043 193.314Z"/>
<path d="M145.175 186.587V178.53L142.284 172.406L127.335 154.709L96.6715 147.588L50.709 138.916H42.52L51.3802 143.72L95.7485 162.02L103.938 160.266L110.079 170.15C113.589 170.15 116.48 167.034 124.938 170.15L129.435 177.24L122.048 180.786L117.551 186.587H145.175Z"/>
<path d="M262.625 152.158L249.731 170.735V202.965L270.04 206.927C276.057 207.354 288.221 208.529 288.737 209.81C289.253 211.091 302.921 205.006 309.691 201.803L351.599 167.532L369.007 155.041L379 138.065L367.395 131.019L356.434 132.62C337.522 134.329 299.311 137.809 297.763 138.065C296.216 138.322 273.693 147.567 262.625 152.158Z"/>
<path d="M278.977 193.314L261.429 186.88L263.476 175.766L278.977 154.709C304.227 149.444 354.959 138.916 355.895 138.916H369.934C369.934 147.965 344.168 168.829 348.256 165.394C352.62 161.728 316.733 184.053 302.988 193.314H278.977Z"/>
<path d="M260.845 186.587V178.53L263.735 172.406L278.685 154.709L309.348 147.588L355.311 138.916H363.5L354.639 143.72L310.271 162.02L302.082 160.266L295.94 170.15C292.431 170.15 289.54 167.034 281.081 170.15L276.584 177.24L283.972 180.786L288.469 186.587H260.845Z"/>
<path d="M153.277 200.409L159.087 190.242L165.381 179.348L175.548 169.181L187.894 162.403H211.134L230.016 169.181L242.362 190.242L248.898 200.409L237.278 208.881L226.627 218.322L215.007 279.326H187.894L180.148 218.322L167.802 208.881C166.446 208.107 157.554 202.91 153.277 200.409Z"/>
<path d="M176.855 363.911C175.015 361.753 175.713 355.365 176.292 352.442L177.516 348.998L180.429 349.706L183.003 356.711L191.872 351.914L200.532 356.711C203.837 356.761 206.464 357.172 207.306 356.663C208.148 356.154 215.411 353.741 218.934 351.914C221.257 352.99 226.431 353.956 228.572 354.686C230.713 355.416 230.646 349.633 230.345 346.65C231.191 347.054 233.167 347.998 234.308 348.537C235.449 349.075 232.671 358.286 231.139 362.824L208.109 378.705H201.305C195.296 376.123 178.694 366.069 176.855 363.911Z"/>
<path d="M176.6 235.943L168.37 247.079L167.401 233.522L161.591 221.418L146.098 215.366L135.205 219.482L137.142 215.366L155.055 211.251L168.37 218.271L176.6 235.943Z"/>
<path d="M226.868 235.994L235.099 247.13L236.067 233.573L241.877 221.469L257.37 215.418L268.264 219.533L266.327 215.418L248.413 211.302L235.099 218.322L226.868 235.994Z"/>
<path d="M178.304 153.532V164.757L166.456 173.383L154.822 170.809C140.07 155.227 120.655 134.166 114.652 132.23C107.147 129.809 99.8991 119.972 91.6542 119.972C88.9913 119.972 72.7725 121.578 70.8359 112.863C69.2866 105.892 84.4069 108.99 80.7611 103.027C71.9656 96.41 63.6557 80.1747 62.1064 78.819C60.5571 77.4634 52.5846 60.0177 47.5816 51.4643C45.8871 45.8158 37.4458 28.3119 47.5818 19.5101C54.3745 13.6115 57.1989 26.1189 60.1845 37.5772L66.9626 51.4643L80.7611 74.131L108.116 99.5491L112.267 87.2759C112.554 86.4262 112.701 85.5353 112.701 84.6383C112.701 80.5636 115.772 76.3696 119.391 78.241C126.039 81.6779 128.137 94.09 123.609 103.027C124.981 108.595 125.158 109.571 126.513 112.863C127.242 114.633 131.113 119.972 140.07 122.546C145.372 119.902 149.598 107.627 152.174 108.264C160.001 110.201 155.805 132.907 157.742 134.65C159.678 136.393 176.609 149.094 178.304 153.532Z"/>
<path d="M173.234 162.973L174.929 152.564L153.142 133.198V120.126C153.061 117.059 152.125 112.573 149.027 119.157C145.153 127.388 138.859 125.935 135.228 124.241C131.597 122.546 125.787 119.399 124.335 118.189C122.882 116.979 119.977 108.506 119.735 107.295C119.493 106.085 116.346 98.3386 116.104 100.275C115.862 102.212 109.084 103.906 107.631 103.422C106.179 102.938 99.1587 96.1599 98.4325 95.6758C97.8515 95.2884 86.7321 85.3471 81.245 80.4249C76.4841 74.373 66.6235 61.4944 65.2679 58.3959C63.5733 54.5226 55.8269 34.6723 55.5848 33.704C55.3427 32.7357 50.017 22.5684 49.5328 22.3264C49.0487 22.0843 48.0804 23.7788 47.3542 29.5887C46.628 35.3985 60.6684 64.2057 60.9105 66.1424C61.1526 68.079 75.6772 88.6556 79.7926 93.255C83.0848 96.9346 96.3345 104.955 102.548 108.506L109.084 118.189L129.661 128.114L165.246 163.7L173.234 162.973Z"/>
<path d="M226.976 153.743V164.968L239.564 172.656L250.457 171.019C265.209 155.438 284.624 134.377 290.627 132.441C298.132 130.02 305.38 120.183 313.625 120.183C316.288 120.183 332.507 121.789 334.443 113.074C335.993 106.103 320.872 109.201 324.518 103.238C333.314 96.621 341.624 80.3857 343.173 79.03C344.722 77.6744 352.695 60.2287 357.698 51.6753C359.392 46.0268 367.833 28.5229 357.697 19.7211C350.905 13.8225 348.08 26.3299 345.095 37.7882L338.317 51.6753L324.518 74.342L297.163 99.7601L293.013 87.4868C292.725 86.6372 292.579 85.7462 292.579 84.8493C292.579 80.7745 289.507 76.5806 285.888 78.452C279.24 81.8888 277.142 94.301 281.671 103.238C280.299 108.806 280.122 109.782 278.766 113.074C278.037 114.844 274.166 120.183 265.209 122.757C259.907 120.113 255.681 107.838 253.105 108.475C245.278 110.411 249.474 133.118 247.538 134.861C245.601 136.604 228.67 149.305 226.976 153.743Z"/>
<path d="M232.045 163.184L230.35 152.775L252.137 133.409V120.337C252.218 117.27 253.154 112.784 256.252 119.368C260.126 127.599 266.42 126.146 270.051 124.452C273.682 122.757 279.492 119.61 280.944 118.4C282.397 117.19 285.302 108.717 285.544 107.506C285.786 106.296 288.933 98.5496 289.175 100.486C289.417 102.423 296.195 104.117 297.648 103.633C299.1 103.149 306.12 96.3709 306.847 95.8868C307.428 95.4994 318.547 85.5581 324.034 80.6359C328.795 74.5839 338.656 61.7054 340.011 58.6068C341.706 54.7336 349.452 34.8833 349.694 33.9149C349.936 32.9466 355.262 22.7794 355.746 22.5373C356.23 22.2953 357.199 23.9898 357.925 29.7997C358.651 35.6095 344.611 64.4167 344.369 66.3533C344.126 68.29 329.602 88.8665 325.487 93.466C322.194 97.1456 308.945 105.166 302.731 108.717L296.195 118.4L275.619 128.325L240.033 163.911L232.045 163.184Z"/>
</mask>
<path d="M130.762 163.777L162.406 139.25H240.466L271.475 163.777L283.617 209.805L287.011 233.323L279.496 264.45L261.556 281.974L256.95 305.031L243.375 348.378L227.463 372.165L205.033 381.811L180.699 372.165L164.588 348.378L145.679 305.031L139.619 281.974L124.104 259.378L116.104 233.323L119.013 208.421L130.762 163.777Z" fill="#836453"/>
<path d="M147.253 276.553L130.629 267.551L139.784 281.631L145.807 303.56L164.6 347.649L174.96 361.961L181.465 345.11L174.96 338.416L166.768 305.869L156.89 284.401L147.253 276.553Z" fill="#8D7669"/>
<path d="M254.088 276.848L273.938 269.487L261.592 281.909L256.509 306.063L248.278 332.287L244.405 346.319L234.48 361.041L226.249 361.961L219.713 345.168L226.249 338.497L234.48 306.063L244.405 284.67L254.088 276.848Z" fill="#8D7669"/>
<path d="M166.591 221.469L146.257 240.351L137.3 243.014L148.677 256.813L160.781 270.853C164.412 283.118 171.675 308.133 171.675 310.07C171.675 312.006 176.678 328.468 179.179 336.456L188.862 346.623L179.179 267.464L171.675 251.003L166.591 221.469Z" fill="#766054"/>
<path d="M235.825 223.164L259.791 240.351L268.748 243.014L257.37 256.813L245.266 270.853C241.635 283.118 234.373 308.133 234.373 310.07C234.373 312.006 229.37 328.468 226.868 336.456L217.185 346.623L226.868 267.464L234.373 251.003L235.825 223.164Z" fill="#766054"/>
<path d="M144.562 173.538L118.902 211.786L130.522 165.308L161.992 139.405H240.183L271.653 165.308L283.515 213.965L260.517 172.086L231.71 155.14L167.076 153.688L144.562 173.538Z" fill="#957360"/>
<path d="M130.55 242.75L131.369 227.29L135.969 219.323L146.043 215.915C151.01 217.479 161.022 220.762 161.332 221.388C161.641 222.014 165.469 229.554 167.344 233.245L167.735 246.609L165.956 261.794L159.678 265.856L148.786 260.547C145.542 258.58 138.653 254.472 137.046 253.768C135.44 253.065 132.046 246.13 130.55 242.75Z" fill="#9D7C69"/>
<path d="M272.519 242.75L271.699 227.29L267.1 219.323L257.026 215.915C252.058 217.479 242.046 220.762 241.737 221.388C241.427 222.014 237.599 229.554 235.724 233.245L235.333 246.609L238.111 260.547L245.615 266.098L254.282 260.547C257.526 258.58 264.416 254.472 266.022 253.768C267.628 253.065 271.022 246.129 272.519 242.75Z" fill="#9D7C69"/>
<path d="M135.605 237.447L137.784 224.374L142.868 221.954L159.087 233.089L162.96 247.856L160.297 258.992C156.343 257.539 148.29 254.586 147.709 254.392C147.128 254.198 139.398 243.014 135.605 237.447Z" fill="#826454"/>
<path d="M268.748 238.415L266.569 225.343L261.485 222.922L245.266 234.057L241.393 248.824L244.056 259.96C248.01 258.507 256.063 255.554 256.644 255.36C257.225 255.167 264.955 243.983 268.748 238.415Z" fill="#826454"/>
<path d="M160.865 240.3C160.865 247.921 154.687 254.099 147.067 254.099C139.446 254.099 133.268 247.921 133.268 240.3C133.268 232.68 139.446 226.502 147.067 226.502C154.687 226.502 160.865 232.68 160.865 240.3Z" fill="black"/>
<path d="M150.931 234.781C150.931 239.353 147.224 243.06 142.651 243.06C138.079 243.06 134.372 239.353 134.372 234.781C134.372 230.209 138.079 226.502 142.652 226.502C147.224 226.502 150.931 230.209 150.931 234.781Z" fill="#FDFDFD"/>
<path d="M270.442 238.657C270.442 246.277 264.265 252.455 256.644 252.455C249.023 252.455 242.845 246.277 242.845 238.657C242.845 231.036 249.023 224.858 256.644 224.858C264.265 224.858 270.442 231.036 270.442 238.657Z" fill="black"/>
<path d="M260.508 233.137C260.508 237.71 256.801 241.416 252.229 241.416C247.656 241.416 243.95 237.71 243.95 233.137C243.95 228.565 247.656 224.858 252.229 224.858C256.801 224.858 260.508 228.565 260.508 233.137Z" fill="#FDFDFD"/>
<path d="M180.497 371.698L170.814 356.298L174.203 342.047L181.223 336.301L191.632 339.519L203.494 344.345L217.05 339.519L230.123 337.22L236.659 344.345L238.111 354.459L227.46 371.698L204.946 381.811L180.497 371.698Z" fill="#E4CABC"/>
<path d="M176.6 235.943L168.37 247.079L167.401 233.522L161.591 221.418L146.098 215.366L135.205 219.482L137.142 215.366L155.055 211.251L168.37 218.271L176.6 235.943Z" fill="#A0816F"/>
<path d="M226.868 235.994L235.099 247.13L236.067 233.573L241.877 221.469L257.37 215.418L268.264 219.533L266.327 215.418L248.413 211.302L235.099 218.322L226.868 235.994Z" fill="#A0816F"/>
<path d="M143.394 152.158L156.289 170.735V202.965L135.98 206.927C129.962 207.354 117.798 208.529 117.282 209.81C116.767 211.091 103.098 205.006 96.3285 201.803L54.4208 167.532L37.0129 155.041L27.0195 138.065L38.6248 131.019L49.5852 132.62C68.4975 134.329 106.709 137.809 108.256 138.065C109.803 138.322 132.326 147.567 143.394 152.158Z" fill="#836453"/>
<path d="M127.043 193.314L144.59 186.88L142.543 175.766L127.043 154.709C101.793 149.444 51.0602 138.916 50.1243 138.916H36.086C39.6076 147.238 48.3467 156.211 49.0487 156.679C49.7506 157.147 91.2227 186.15 104.969 195.412L127.043 193.314Z" fill="#B5A196"/>
<path d="M145.175 186.587V178.53L142.284 172.406L127.335 154.709L96.6715 147.588L50.709 138.916H42.52L51.3802 143.72L95.7485 162.02L103.938 160.266L110.079 170.15C113.589 170.15 116.48 167.034 124.938 170.15L129.435 177.24L122.048 180.786L117.551 186.587H145.175Z" fill="#958379"/>
<path d="M262.625 152.158L249.731 170.735V202.965L270.04 206.927C276.057 207.354 288.221 208.529 288.737 209.81C289.253 211.091 302.921 205.006 309.691 201.803L351.599 167.532L369.007 155.041L379 138.065L367.395 131.019L356.434 132.62C337.522 134.329 299.311 137.809 297.763 138.065C296.216 138.322 273.693 147.567 262.625 152.158Z" fill="#836453"/>
<path d="M278.977 193.314L261.429 186.88L263.476 175.766L278.977 154.709C304.227 149.444 354.959 138.916 355.895 138.916H369.934C369.934 147.965 344.168 168.829 348.256 165.394C352.62 161.728 316.733 184.053 302.988 193.314H278.977Z" fill="#B5A196"/>
<path d="M260.845 186.587V178.53L263.735 172.406L278.685 154.709L309.348 147.588L355.311 138.916H363.5L354.639 143.72L310.271 162.02L302.082 160.266L295.94 170.15C292.431 170.15 289.54 167.034 281.081 170.15L276.584 177.24L283.972 180.786L288.469 186.587H260.845Z" fill="#958379"/>
<path d="M153.277 200.409L159.087 190.242L165.381 179.348L175.548 169.181L187.894 162.403H211.134L230.016 169.181L242.362 190.242L248.898 200.409L237.278 208.881L226.627 218.322L215.007 279.326H187.894L180.148 218.322L167.802 208.881C166.446 208.107 157.554 202.91 153.277 200.409Z" fill="#9B7D6C"/>
<path d="M176.855 363.911C175.015 361.753 175.713 355.365 176.292 352.442L177.516 348.998L180.429 349.706L183.003 356.711L191.872 351.914L200.532 356.711C203.837 356.761 206.464 357.172 207.306 356.663C208.148 356.154 215.411 353.741 218.934 351.914C221.257 352.99 226.431 353.956 228.572 354.686C230.713 355.416 230.646 349.633 230.345 346.65C231.191 347.054 233.167 347.998 234.308 348.537C235.449 349.075 232.671 358.286 231.139 362.824L208.109 378.705H201.305C195.296 376.123 178.694 366.069 176.855 363.911Z" fill="#6D5C5C"/>
<path d="M176.6 235.943L168.37 247.079L167.401 233.522L161.591 221.418L146.098 215.366L135.205 219.482L137.142 215.366L155.055 211.251L168.37 218.271L176.6 235.943Z" fill="#655145"/>
<path d="M226.868 235.994L235.099 247.13L236.067 233.573L241.877 221.469L257.37 215.418L268.264 219.533L266.327 215.418L248.413 211.302L235.099 218.322L226.868 235.994Z" fill="#655145"/>
<path d="M178.304 153.532V164.757L166.456 173.383L154.822 170.809C140.07 155.227 120.655 134.166 114.652 132.23C107.147 129.809 99.8991 119.972 91.6542 119.972C88.9913 119.972 72.7725 121.578 70.8359 112.863C69.2866 105.892 84.4069 108.99 80.7611 103.027C71.9656 96.41 63.6557 80.1747 62.1064 78.819C60.5571 77.4634 52.5846 60.0177 47.5816 51.4643C45.8871 45.8158 37.4458 28.3119 47.5818 19.5101C54.3745 13.6115 57.1989 26.1189 60.1845 37.5772L66.9626 51.4643L80.7611 74.131L108.116 99.5491L112.267 87.2759C112.554 86.4262 112.701 85.5353 112.701 84.6383C112.701 80.5636 115.772 76.3696 119.391 78.241C126.039 81.6779 128.137 94.09 123.609 103.027C124.981 108.595 125.158 109.571 126.513 112.863C127.242 114.633 131.113 119.972 140.07 122.546C145.372 119.902 149.598 107.627 152.174 108.264C160.001 110.201 155.805 132.907 157.742 134.65C159.678 136.393 176.609 149.094 178.304 153.532Z" fill="#A38D81"/>
<path d="M173.234 162.973L174.929 152.564L153.142 133.198V120.126C153.061 117.059 152.125 112.573 149.027 119.157C145.153 127.388 138.859 125.935 135.228 124.241C131.597 122.546 125.787 119.399 124.335 118.189C122.882 116.979 119.977 108.506 119.735 107.295C119.493 106.085 116.346 98.3386 116.104 100.275C115.862 102.212 109.084 103.906 107.631 103.422C106.179 102.938 99.1587 96.1599 98.4325 95.6758C97.8515 95.2884 86.7321 85.3471 81.245 80.4249C76.4841 74.373 66.6235 61.4944 65.2679 58.3959C63.5733 54.5226 55.8269 34.6723 55.5848 33.704C55.3427 32.7357 50.017 22.5684 49.5328 22.3264C49.0487 22.0843 48.0804 23.7788 47.3542 29.5887C46.628 35.3985 60.6684 64.2057 60.9105 66.1424C61.1526 68.079 75.6772 88.6556 79.7926 93.255C83.0848 96.9346 96.3345 104.955 102.548 108.506L109.084 118.189L129.661 128.114L165.246 163.7L173.234 162.973Z" fill="#AF9B8F"/>
<path d="M226.976 153.743V164.968L239.564 172.656L250.457 171.019C265.209 155.438 284.624 134.377 290.627 132.441C298.132 130.02 305.38 120.183 313.625 120.183C316.288 120.183 332.507 121.789 334.443 113.074C335.993 106.103 320.872 109.201 324.518 103.238C333.314 96.621 341.624 80.3857 343.173 79.03C344.722 77.6744 352.695 60.2287 357.698 51.6753C359.392 46.0268 367.833 28.5229 357.697 19.7211C350.905 13.8225 348.08 26.3299 345.095 37.7882L338.317 51.6753L324.518 74.342L297.163 99.7601L293.013 87.4868C292.725 86.6372 292.579 85.7462 292.579 84.8493C292.579 80.7745 289.507 76.5806 285.888 78.452C279.24 81.8888 277.142 94.301 281.671 103.238C280.299 108.806 280.122 109.782 278.766 113.074C278.037 114.844 274.166 120.183 265.209 122.757C259.907 120.113 255.681 107.838 253.105 108.475C245.278 110.411 249.474 133.118 247.538 134.861C245.601 136.604 228.67 149.305 226.976 153.743Z" fill="#A38D81"/>
<path d="M232.045 163.184L230.35 152.775L252.137 133.409V120.337C252.218 117.27 253.154 112.784 256.252 119.368C260.126 127.599 266.42 126.146 270.051 124.452C273.682 122.757 279.492 119.61 280.944 118.4C282.397 117.19 285.302 108.717 285.544 107.506C285.786 106.296 288.933 98.5496 289.175 100.486C289.417 102.423 296.195 104.117 297.648 103.633C299.1 103.149 306.12 96.3709 306.847 95.8868C307.428 95.4994 318.547 85.5581 324.034 80.6359C328.795 74.5839 338.656 61.7054 340.011 58.6068C341.706 54.7336 349.452 34.8833 349.694 33.9149C349.936 32.9466 355.262 22.7794 355.746 22.5373C356.23 22.2953 357.199 23.9898 357.925 29.7997C358.651 35.6095 344.611 64.4167 344.369 66.3533C344.126 68.29 329.602 88.8665 325.487 93.466C322.194 97.1456 308.945 105.166 302.731 108.717L296.195 118.4L275.619 128.325L240.033 163.911L232.045 163.184Z" fill="#AF9B8F"/>
<path d="M130.762 163.777L162.406 139.25H240.466L271.475 163.777L283.617 209.805L287.011 233.323L279.496 264.45L261.556 281.974L256.95 305.031L243.375 348.378L227.463 372.165L205.033 381.811L180.699 372.165L164.588 348.378L145.679 305.031L139.619 281.974L124.104 259.378L116.104 233.323L119.013 208.421L130.762 163.777Z" stroke="white" stroke-width="17.2048" mask="url(#path-1-outside-1_472_328)"/>
<path d="M147.253 276.553L130.629 267.551L139.784 281.631L145.807 303.56L164.6 347.649L174.96 361.961L181.465 345.11L174.96 338.416L166.768 305.869L156.89 284.401L147.253 276.553Z" stroke="white" stroke-width="17.2048" mask="url(#path-1-outside-1_472_328)"/>
<path d="M254.088 276.848L273.938 269.487L261.592 281.909L256.509 306.063L248.278 332.287L244.405 346.319L234.48 361.041L226.249 361.961L219.713 345.168L226.249 338.497L234.48 306.063L244.405 284.67L254.088 276.848Z" stroke="white" stroke-width="17.2048" mask="url(#path-1-outside-1_472_328)"/>
<path d="M166.591 221.469L146.257 240.351L137.3 243.014L148.677 256.813L160.781 270.853C164.412 283.118 171.675 308.133 171.675 310.07C171.675 312.006 176.678 328.468 179.179 336.456L188.862 346.623L179.179 267.464L171.675 251.003L166.591 221.469Z" stroke="white" stroke-width="17.2048" mask="url(#path-1-outside-1_472_328)"/>
<path d="M235.825 223.164L259.791 240.351L268.748 243.014L257.37 256.813L245.266 270.853C241.635 283.118 234.373 308.133 234.373 310.07C234.373 312.006 229.37 328.468 226.868 336.456L217.185 346.623L226.868 267.464L234.373 251.003L235.825 223.164Z" stroke="white" stroke-width="17.2048" mask="url(#path-1-outside-1_472_328)"/>
<path d="M144.562 173.538L118.902 211.786L130.522 165.308L161.992 139.405H240.183L271.653 165.308L283.515 213.965L260.517 172.086L231.71 155.14L167.076 153.688L144.562 173.538Z" stroke="white" stroke-width="17.2048" mask="url(#path-1-outside-1_472_328)"/>
<path d="M130.55 242.75L131.369 227.29L135.969 219.323L146.043 215.915C151.01 217.479 161.022 220.762 161.332 221.388C161.641 222.014 165.469 229.554 167.344 233.245L167.735 246.609L165.956 261.794L159.678 265.856L148.786 260.547C145.542 258.58 138.653 254.472 137.046 253.768C135.44 253.065 132.046 246.13 130.55 242.75Z" stroke="white" stroke-width="17.2048" mask="url(#path-1-outside-1_472_328)"/>
<path d="M272.519 242.75L271.699 227.29L267.1 219.323L257.026 215.915C252.058 217.479 242.046 220.762 241.737 221.388C241.427 222.014 237.599 229.554 235.724 233.245L235.333 246.609L238.111 260.547L245.615 266.098L254.282 260.547C257.526 258.58 264.416 254.472 266.022 253.768C267.628 253.065 271.022 246.129 272.519 242.75Z" stroke="white" stroke-width="17.2048" mask="url(#path-1-outside-1_472_328)"/>
<path d="M135.605 237.447L137.784 224.374L142.868 221.954L159.087 233.089L162.96 247.856L160.297 258.992C156.343 257.539 148.29 254.586 147.709 254.392C147.128 254.198 139.398 243.014 135.605 237.447Z" stroke="white" stroke-width="17.2048" mask="url(#path-1-outside-1_472_328)"/>
<path d="M268.748 238.415L266.569 225.343L261.485 222.922L245.266 234.057L241.393 248.824L244.056 259.96C248.01 258.507 256.063 255.554 256.644 255.36C257.225 255.167 264.955 243.983 268.748 238.415Z" stroke="white" stroke-width="17.2048" mask="url(#path-1-outside-1_472_328)"/>
<path d="M160.865 240.3C160.865 247.921 154.687 254.099 147.067 254.099C139.446 254.099 133.268 247.921 133.268 240.3C133.268 232.68 139.446 226.502 147.067 226.502C154.687 226.502 160.865 232.68 160.865 240.3Z" stroke="white" stroke-width="17.2048" mask="url(#path-1-outside-1_472_328)"/>
<path d="M150.931 234.781C150.931 239.353 147.224 243.06 142.651 243.06C138.079 243.06 134.372 239.353 134.372 234.781C134.372 230.209 138.079 226.502 142.652 226.502C147.224 226.502 150.931 230.209 150.931 234.781Z" stroke="white" stroke-width="17.2048" mask="url(#path-1-outside-1_472_328)"/>
<path d="M270.442 238.657C270.442 246.277 264.265 252.455 256.644 252.455C249.023 252.455 242.845 246.277 242.845 238.657C242.845 231.036 249.023 224.858 256.644 224.858C264.265 224.858 270.442 231.036 270.442 238.657Z" stroke="white" stroke-width="17.2048" mask="url(#path-1-outside-1_472_328)"/>
<path d="M260.508 233.137C260.508 237.71 256.801 241.416 252.229 241.416C247.656 241.416 243.95 237.71 243.95 233.137C243.95 228.565 247.656 224.858 252.229 224.858C256.801 224.858 260.508 228.565 260.508 233.137Z" stroke="white" stroke-width="17.2048" mask="url(#path-1-outside-1_472_328)"/>
<path d="M180.497 371.698L170.814 356.298L174.203 342.047L181.223 336.301L191.632 339.519L203.494 344.345L217.05 339.519L230.123 337.22L236.659 344.345L238.111 354.459L227.46 371.698L204.946 381.811L180.497 371.698Z" stroke="white" stroke-width="17.2048" mask="url(#path-1-outside-1_472_328)"/>
<path d="M176.6 235.943L168.37 247.079L167.401 233.522L161.591 221.418L146.098 215.366L135.205 219.482L137.142 215.366L155.055 211.251L168.37 218.271L176.6 235.943Z" stroke="white" stroke-width="17.2048" mask="url(#path-1-outside-1_472_328)"/>
<path d="M226.868 235.994L235.099 247.13L236.067 233.573L241.877 221.469L257.37 215.418L268.264 219.533L266.327 215.418L248.413 211.302L235.099 218.322L226.868 235.994Z" stroke="white" stroke-width="17.2048" mask="url(#path-1-outside-1_472_328)"/>
<path d="M143.394 152.158L156.289 170.735V202.965L135.98 206.927C129.962 207.354 117.798 208.529 117.282 209.81C116.767 211.091 103.098 205.006 96.3285 201.803L54.4208 167.532L37.0129 155.041L27.0195 138.065L38.6248 131.019L49.5852 132.62C68.4975 134.329 106.709 137.809 108.256 138.065C109.803 138.322 132.326 147.567 143.394 152.158Z" stroke="white" stroke-width="17.2048" mask="url(#path-1-outside-1_472_328)"/>
<path d="M127.043 193.314L144.59 186.88L142.543 175.766L127.043 154.709C101.793 149.444 51.0602 138.916 50.1243 138.916H36.086C39.6076 147.238 48.3467 156.211 49.0487 156.679C49.7506 157.147 91.2227 186.15 104.969 195.412L127.043 193.314Z" stroke="white" stroke-width="17.2048" mask="url(#path-1-outside-1_472_328)"/>
<path d="M145.175 186.587V178.53L142.284 172.406L127.335 154.709L96.6715 147.588L50.709 138.916H42.52L51.3802 143.72L95.7485 162.02L103.938 160.266L110.079 170.15C113.589 170.15 116.48 167.034 124.938 170.15L129.435 177.24L122.048 180.786L117.551 186.587H145.175Z" stroke="white" stroke-width="17.2048" mask="url(#path-1-outside-1_472_328)"/>
<path d="M262.625 152.158L249.731 170.735V202.965L270.04 206.927C276.057 207.354 288.221 208.529 288.737 209.81C289.253 211.091 302.921 205.006 309.691 201.803L351.599 167.532L369.007 155.041L379 138.065L367.395 131.019L356.434 132.62C337.522 134.329 299.311 137.809 297.763 138.065C296.216 138.322 273.693 147.567 262.625 152.158Z" stroke="white" stroke-width="17.2048" mask="url(#path-1-outside-1_472_328)"/>
<path d="M278.977 193.314L261.429 186.88L263.476 175.766L278.977 154.709C304.227 149.444 354.959 138.916 355.895 138.916H369.934C369.934 147.965 344.168 168.829 348.256 165.394C352.62 161.728 316.733 184.053 302.988 193.314H278.977Z" stroke="white" stroke-width="17.2048" mask="url(#path-1-outside-1_472_328)"/>
<path d="M260.845 186.587V178.53L263.735 172.406L278.685 154.709L309.348 147.588L355.311 138.916H363.5L354.639 143.72L310.271 162.02L302.082 160.266L295.94 170.15C292.431 170.15 289.54 167.034 281.081 170.15L276.584 177.24L283.972 180.786L288.469 186.587H260.845Z" stroke="white" stroke-width="17.2048" mask="url(#path-1-outside-1_472_328)"/>
<path d="M153.277 200.409L159.087 190.242L165.381 179.348L175.548 169.181L187.894 162.403H211.134L230.016 169.181L242.362 190.242L248.898 200.409L237.278 208.881L226.627 218.322L215.007 279.326H187.894L180.148 218.322L167.802 208.881C166.446 208.107 157.554 202.91 153.277 200.409Z" stroke="white" stroke-width="17.2048" mask="url(#path-1-outside-1_472_328)"/>
<path d="M176.855 363.911C175.015 361.753 175.713 355.365 176.292 352.442L177.516 348.998L180.429 349.706L183.003 356.711L191.872 351.914L200.532 356.711C203.837 356.761 206.464 357.172 207.306 356.663C208.148 356.154 215.411 353.741 218.934 351.914C221.257 352.99 226.431 353.956 228.572 354.686C230.713 355.416 230.646 349.633 230.345 346.65C231.191 347.054 233.167 347.998 234.308 348.537C235.449 349.075 232.671 358.286 231.139 362.824L208.109 378.705H201.305C195.296 376.123 178.694 366.069 176.855 363.911Z" stroke="white" stroke-width="17.2048" mask="url(#path-1-outside-1_472_328)"/>
<path d="M176.6 235.943L168.37 247.079L167.401 233.522L161.591 221.418L146.098 215.366L135.205 219.482L137.142 215.366L155.055 211.251L168.37 218.271L176.6 235.943Z" stroke="white" stroke-width="17.2048" mask="url(#path-1-outside-1_472_328)"/>
<path d="M226.868 235.994L235.099 247.13L236.067 233.573L241.877 221.469L257.37 215.418L268.264 219.533L266.327 215.418L248.413 211.302L235.099 218.322L226.868 235.994Z" stroke="white" stroke-width="17.2048" mask="url(#path-1-outside-1_472_328)"/>
<path d="M178.304 153.532V164.757L166.456 173.383L154.822 170.809C140.07 155.227 120.655 134.166 114.652 132.23C107.147 129.809 99.8991 119.972 91.6542 119.972C88.9913 119.972 72.7725 121.578 70.8359 112.863C69.2866 105.892 84.4069 108.99 80.7611 103.027C71.9656 96.41 63.6557 80.1747 62.1064 78.819C60.5571 77.4634 52.5846 60.0177 47.5816 51.4643C45.8871 45.8158 37.4458 28.3119 47.5818 19.5101C54.3745 13.6115 57.1989 26.1189 60.1845 37.5772L66.9626 51.4643L80.7611 74.131L108.116 99.5491L112.267 87.2759C112.554 86.4262 112.701 85.5353 112.701 84.6383C112.701 80.5636 115.772 76.3696 119.391 78.241C126.039 81.6779 128.137 94.09 123.609 103.027C124.981 108.595 125.158 109.571 126.513 112.863C127.242 114.633 131.113 119.972 140.07 122.546C145.372 119.902 149.598 107.627 152.174 108.264C160.001 110.201 155.805 132.907 157.742 134.65C159.678 136.393 176.609 149.094 178.304 153.532Z" stroke="white" stroke-width="17.2048" mask="url(#path-1-outside-1_472_328)"/>
<path d="M173.234 162.973L174.929 152.564L153.142 133.198V120.126C153.061 117.059 152.125 112.573 149.027 119.157C145.153 127.388 138.859 125.935 135.228 124.241C131.597 122.546 125.787 119.399 124.335 118.189C122.882 116.979 119.977 108.506 119.735 107.295C119.493 106.085 116.346 98.3386 116.104 100.275C115.862 102.212 109.084 103.906 107.631 103.422C106.179 102.938 99.1587 96.1599 98.4325 95.6758C97.8515 95.2884 86.7321 85.3471 81.245 80.4249C76.4841 74.373 66.6235 61.4944 65.2679 58.3959C63.5733 54.5226 55.8269 34.6723 55.5848 33.704C55.3427 32.7357 50.017 22.5684 49.5328 22.3264C49.0487 22.0843 48.0804 23.7788 47.3542 29.5887C46.628 35.3985 60.6684 64.2057 60.9105 66.1424C61.1526 68.079 75.6772 88.6556 79.7926 93.255C83.0848 96.9346 96.3345 104.955 102.548 108.506L109.084 118.189L129.661 128.114L165.246 163.7L173.234 162.973Z" stroke="white" stroke-width="17.2048" mask="url(#path-1-outside-1_472_328)"/>
<path d="M226.976 153.743V164.968L239.564 172.656L250.457 171.019C265.209 155.438 284.624 134.377 290.627 132.441C298.132 130.02 305.38 120.183 313.625 120.183C316.288 120.183 332.507 121.789 334.443 113.074C335.993 106.103 320.872 109.201 324.518 103.238C333.314 96.621 341.624 80.3857 343.173 79.03C344.722 77.6744 352.695 60.2287 357.698 51.6753C359.392 46.0268 367.833 28.5229 357.697 19.7211C350.905 13.8225 348.08 26.3299 345.095 37.7882L338.317 51.6753L324.518 74.342L297.163 99.7601L293.013 87.4868C292.725 86.6372 292.579 85.7462 292.579 84.8493C292.579 80.7745 289.507 76.5806 285.888 78.452C279.24 81.8888 277.142 94.301 281.671 103.238C280.299 108.806 280.122 109.782 278.766 113.074C278.037 114.844 274.166 120.183 265.209 122.757C259.907 120.113 255.681 107.838 253.105 108.475C245.278 110.411 249.474 133.118 247.538 134.861C245.601 136.604 228.67 149.305 226.976 153.743Z" stroke="white" stroke-width="17.2048" mask="url(#path-1-outside-1_472_328)"/>
<path d="M232.045 163.184L230.35 152.775L252.137 133.409V120.337C252.218 117.27 253.154 112.784 256.252 119.368C260.126 127.599 266.42 126.146 270.051 124.452C273.682 122.757 279.492 119.61 280.944 118.4C282.397 117.19 285.302 108.717 285.544 107.506C285.786 106.296 288.933 98.5496 289.175 100.486C289.417 102.423 296.195 104.117 297.648 103.633C299.1 103.149 306.12 96.3709 306.847 95.8868C307.428 95.4994 318.547 85.5581 324.034 80.6359C328.795 74.5839 338.656 61.7054 340.011 58.6068C341.706 54.7336 349.452 34.8833 349.694 33.9149C349.936 32.9466 355.262 22.7794 355.746 22.5373C356.23 22.2953 357.199 23.9898 357.925 29.7997C358.651 35.6095 344.611 64.4167 344.369 66.3533C344.126 68.29 329.602 88.8665 325.487 93.466C322.194 97.1456 308.945 105.166 302.731 108.717L296.195 118.4L275.619 128.325L240.033 163.911L232.045 163.184Z" stroke="white" stroke-width="17.2048" mask="url(#path-1-outside-1_472_328)"/>
</svg>
