<svg width="1001" height="1001" viewBox="0 0 1001 1001" fill="none" xmlns="http://www.w3.org/2000/svg">
<mask id="path-1-outside-1_472_328" maskUnits="userSpaceOnUse" x="38.2651" y="23.0864" width="940" height="956" fill="black">
<rect fill="white" x="38.2651" y="23.0864" width="940" height="956"/>
<path d="M327.749 409.708L406.899 348.36H602.144L679.706 409.708L710.074 524.835L718.563 583.659L699.766 661.516L654.896 705.346L643.376 763.017L609.42 871.44L569.62 930.937L513.519 955.063L452.654 930.937L412.356 871.44L365.061 763.017L349.902 705.346L311.096 648.828L291.086 583.659L298.362 521.374L327.749 409.708Z"/>
<path d="M368.997 691.788L327.416 669.271L350.315 704.49L365.381 759.34L412.386 869.616L438.298 905.413L454.569 863.265L438.298 846.522L417.809 765.113L393.102 711.418L368.997 691.788Z"/>
<path d="M636.216 692.527L685.867 674.115L654.987 705.185L642.271 765.598L621.685 831.19L611.997 866.288L587.172 903.111L566.585 905.413L550.237 863.411L566.585 846.725L587.172 765.598L611.997 712.089L636.216 692.527Z"/>
<path d="M417.366 554.011L366.505 601.239L344.102 607.9L372.56 642.413L402.834 677.531C411.917 708.209 430.082 770.777 430.082 775.621C430.082 780.465 442.595 821.638 448.852 841.619L473.071 867.05L448.852 669.054L430.082 627.881L417.366 554.011Z"/>
<path d="M590.537 558.249L650.481 601.239L672.884 607.9L644.426 642.413L614.151 677.531C605.069 708.209 586.904 770.777 586.904 775.621C586.904 780.465 574.39 821.638 568.134 841.62L543.914 867.05L568.134 669.054L586.904 627.881L590.537 558.249Z"/>
<path d="M362.267 434.124L298.085 529.791L327.148 413.537L405.862 348.749H601.436L680.15 413.537L709.819 535.241L652.298 430.491L580.244 388.106L418.578 384.473L362.267 434.124Z"/>
<path d="M327.218 607.238L329.268 568.569L340.772 548.643L365.969 540.119C378.394 544.029 403.437 552.242 404.211 553.807C404.985 555.373 414.559 574.231 419.25 583.465L420.227 616.89L415.777 654.872L400.075 665.032L372.832 651.752C364.718 646.834 347.485 636.558 343.468 634.798C339.45 633.038 330.96 615.691 327.218 607.238Z"/>
<path d="M682.316 607.238L680.266 568.569L668.762 548.643L643.564 540.118C631.14 544.029 606.097 552.242 605.323 553.807C604.549 555.373 594.975 574.231 590.284 583.465L589.306 616.89L596.254 651.752L615.024 665.638L636.701 651.752C644.816 646.834 662.048 636.558 666.066 634.798C670.084 633.038 678.573 615.691 682.316 607.238Z"/>
<path d="M339.864 593.973L345.313 561.277L358.029 555.222L398.596 583.075L408.284 620.01L401.624 647.862C391.734 644.229 371.592 636.842 370.138 636.358C368.685 635.874 349.35 607.9 339.864 593.973Z"/>
<path d="M672.884 596.395L667.434 563.699L654.719 557.644L614.151 585.496L604.463 622.431L611.124 650.284C621.013 646.651 641.156 639.264 642.609 638.78C644.062 638.295 663.398 610.321 672.884 596.395Z"/>
<path d="M403.044 601.111C403.044 620.173 387.592 635.624 368.531 635.624C349.47 635.624 334.018 620.173 334.018 601.111C334.018 582.05 349.47 566.598 368.531 566.598C387.592 566.598 403.044 582.05 403.044 601.111Z"/>
<path d="M378.195 587.306C378.195 598.743 368.924 608.014 357.488 608.014C346.051 608.014 336.78 598.743 336.78 587.306C336.78 575.87 346.051 566.598 357.488 566.598C368.924 566.598 378.195 575.87 378.195 587.306Z"/>
<path d="M677.122 597.001C677.122 616.062 661.67 631.514 642.609 631.514C623.548 631.514 608.096 616.062 608.096 597.001C608.096 577.939 623.548 562.487 642.609 562.487C661.67 562.487 677.122 577.939 677.122 597.001Z"/>
<path d="M652.273 583.195C652.273 594.632 643.002 603.903 631.566 603.903C620.129 603.903 610.858 594.632 610.858 583.195C610.858 571.759 620.129 562.487 631.566 562.487C643.002 562.487 652.273 571.759 652.273 583.195Z"/>
<path d="M452.147 929.767L427.927 891.248L436.404 855.603L453.964 841.23L480 849.279L509.669 861.352L543.576 849.279L576.273 843.53L592.621 861.352L596.254 886.649L569.613 929.767L513.302 955.063L452.147 929.767Z"/>
<path d="M442.401 590.213L421.815 618.065L419.393 584.158L404.861 553.883L366.109 538.746L338.862 549.039L343.706 538.746L388.513 528.452L421.815 546.012L442.401 590.213Z"/>
<path d="M568.133 590.34L588.72 618.193L591.142 584.286L605.674 554.011L644.425 538.874L671.673 549.167L666.829 538.874L622.022 528.58L588.72 546.14L568.133 590.34Z"/>
<path d="M359.345 380.647L391.598 427.112V507.728L340.8 517.638C325.749 518.706 295.324 521.643 294.034 524.848C292.743 528.052 258.556 512.831 241.623 504.82L136.802 419.101L93.2609 387.857L68.2651 345.398L97.2925 327.773L124.707 331.779C172.011 336.052 267.586 344.757 271.457 345.398C275.327 346.039 331.662 369.164 359.345 380.647Z"/>
<path d="M318.446 483.588L362.337 467.494L357.217 439.696L318.446 387.027C255.291 373.859 128.397 347.525 126.056 347.525H90.9426C99.7509 368.342 121.609 390.785 123.365 391.956C125.121 393.126 228.852 465.67 263.234 488.834L318.446 483.588Z"/>
<path d="M363.8 466.763V446.609L356.569 431.291L319.177 387.027L242.481 369.217L127.518 347.525H107.035L129.197 359.543L240.172 405.315L260.655 400.926L276.017 425.648C284.795 425.648 292.026 417.855 313.183 425.648L324.431 443.384L305.952 452.252L294.704 466.763H363.8Z"/>
<path d="M657.57 380.647L625.318 427.112V507.728L676.116 517.638C691.167 518.706 721.592 521.643 722.882 524.848C724.172 528.052 758.36 512.831 775.292 504.82L880.114 419.101L923.655 387.857L948.65 345.398L919.623 327.773L892.208 331.779C844.904 336.052 749.329 344.757 745.459 345.398C741.588 346.039 685.254 369.164 657.57 380.647Z"/>
<path d="M698.47 483.588L654.578 467.494L659.699 439.696L698.47 387.027C761.624 373.859 888.519 347.525 890.86 347.525H925.973C925.973 370.158 861.527 422.344 871.753 413.753C882.668 404.583 792.907 460.423 758.526 483.588H698.47Z"/>
<path d="M653.116 466.763V446.609L660.347 431.291L697.739 387.027L774.435 369.217L889.398 347.525H909.88L887.719 359.543L776.743 405.315L756.261 400.926L740.899 425.648C732.12 425.648 724.889 417.855 703.732 425.648L692.484 443.384L710.963 452.252L722.211 466.763H653.116Z"/>
<path d="M384.065 501.333L398.597 475.903L414.339 448.655L439.77 423.225L470.65 406.271H528.777L576.006 423.225L606.886 475.903L623.234 501.333L594.17 522.525L567.529 546.14L538.465 698.724H470.65L451.274 546.14L420.394 522.525C417.004 520.588 394.762 507.59 384.065 501.333Z"/>
<path d="M443.038 910.29C438.436 904.892 440.182 888.916 441.63 881.603L444.693 872.989L451.977 874.761L458.417 892.283L480.599 880.284L502.259 892.283C510.526 892.407 517.097 893.434 519.203 892.161C521.309 890.888 539.476 884.853 548.287 880.284C554.098 882.974 567.04 885.391 572.395 887.217C577.751 889.043 577.584 874.577 576.83 867.116C578.945 868.128 583.888 870.488 586.742 871.836C589.596 873.183 582.646 896.221 578.815 907.572L521.212 947.294H504.193C489.163 940.836 447.639 915.688 443.038 910.29Z"/>
<path d="M442.401 590.213L421.815 618.065L419.393 584.158L404.861 553.883L366.109 538.746L338.862 549.039L343.706 538.746L388.513 528.452L421.815 546.012L442.401 590.213Z"/>
<path d="M568.133 590.34L588.72 618.193L591.142 584.286L605.674 554.011L644.425 538.874L671.673 549.167L666.829 538.874L622.022 528.58L588.72 546.14L568.133 590.34Z"/>
<path d="M446.662 384.085V412.159L417.029 433.734L387.929 427.296C351.031 388.323 302.47 335.645 287.454 330.801C268.684 324.746 250.554 300.143 229.931 300.143C223.271 300.143 182.704 304.16 177.86 282.362C173.985 264.924 211.804 272.674 202.685 257.758C180.686 241.208 159.901 200.6 156.026 197.209C152.151 193.818 132.209 150.183 119.696 128.788C115.457 114.66 94.3436 70.879 119.696 48.8636C136.686 34.1099 143.751 65.3937 151.218 94.0537L168.172 128.788L202.685 185.483L271.106 249.06L281.488 218.361C282.207 216.236 282.573 214.008 282.573 211.764C282.573 201.572 290.255 191.082 299.309 195.763C315.936 204.36 321.183 235.405 309.857 257.758C313.288 271.685 313.732 274.127 317.122 282.362C318.945 286.787 328.627 300.143 351.031 306.581C364.292 299.967 374.863 269.264 381.305 270.857C400.883 275.701 390.388 332.497 395.232 336.856C400.076 341.216 442.423 372.984 446.662 384.085Z"/>
<path d="M433.983 407.698L438.221 381.662L383.727 333.223V300.526C383.525 292.857 381.184 281.635 373.433 298.104C363.745 318.691 348.003 315.058 338.92 310.82C329.838 306.581 315.306 298.71 311.673 295.682C308.04 292.655 300.774 271.463 300.169 268.435C299.563 265.408 291.692 246.032 291.086 250.876C290.481 255.72 273.527 259.958 269.894 258.747C266.261 257.536 248.702 240.583 246.886 239.372C245.432 238.403 217.62 213.537 203.896 201.226C191.988 186.088 167.324 153.876 163.933 146.126C159.695 136.438 140.319 86.7877 139.713 84.3657C139.108 81.9437 125.787 56.5131 124.576 55.9076C123.365 55.3021 120.943 59.5406 119.127 74.0724C117.31 88.6042 152.429 160.658 153.034 165.502C153.64 170.346 189.969 221.812 200.263 233.317C208.497 242.52 241.638 262.582 257.179 271.463L273.527 295.682L324.994 320.508L414.001 409.515L433.983 407.698Z"/>
<path d="M568.402 384.612V412.686L599.887 431.918L627.135 427.824C664.033 388.851 712.594 336.173 727.61 331.329C746.38 325.274 764.51 300.67 785.132 300.67C791.793 300.67 832.36 304.687 837.204 282.89C841.079 265.451 803.26 273.202 812.379 258.286C834.378 241.736 855.163 201.128 859.038 197.737C862.913 194.346 882.855 150.71 895.368 129.316C899.607 115.188 920.72 71.4067 895.368 49.3913C878.378 34.6376 871.313 65.9214 863.845 94.5814L846.892 129.316L812.379 186.011L743.958 249.587L733.576 218.889C732.857 216.764 732.49 214.536 732.49 212.292C732.49 202.1 724.808 191.61 715.755 196.291C699.128 204.887 693.88 235.933 705.207 258.286C701.775 272.212 701.332 274.655 697.942 282.89C696.119 287.315 686.437 300.67 664.033 307.109C650.771 300.495 640.2 269.791 633.759 271.385C614.181 276.229 624.676 333.024 619.832 337.384C614.988 341.743 572.64 373.512 568.402 384.612Z"/>
<path d="M581.081 408.226L576.842 382.19L631.337 333.751V301.054C631.539 293.384 633.88 282.163 641.63 298.632C651.318 319.219 667.061 315.586 676.143 311.347C685.225 307.109 699.757 299.238 703.39 296.21C707.023 293.183 714.289 271.99 714.895 268.963C715.5 265.935 723.371 246.56 723.977 251.404C724.582 256.248 741.536 260.486 745.169 259.275C748.802 258.064 766.361 241.11 768.178 239.899C769.631 238.931 797.443 214.065 811.168 201.753C823.076 186.616 847.739 154.404 851.13 146.654C855.369 136.966 874.744 87.3154 875.35 84.8934C875.955 82.4714 889.276 57.0408 890.487 56.4354C891.698 55.8299 894.12 60.0683 895.936 74.6001C897.753 89.1319 862.634 161.185 862.029 166.029C861.423 170.873 825.094 222.34 814.801 233.844C806.566 243.048 773.425 263.11 757.884 271.99L741.536 296.21L690.069 321.035L601.062 410.043L581.081 408.226Z"/>
</mask>
<path d="M327.749 409.708L406.899 348.36H602.144L679.706 409.708L710.074 524.835L718.563 583.659L699.766 661.516L654.896 705.346L643.376 763.017L609.42 871.44L569.62 930.937L513.519 955.063L452.654 930.937L412.356 871.44L365.061 763.017L349.902 705.346L311.096 648.828L291.086 583.659L298.362 521.374L327.749 409.708Z" fill="#836453"/>
<path d="M368.997 691.788L327.416 669.271L350.315 704.49L365.381 759.34L412.386 869.616L438.298 905.413L454.569 863.265L438.298 846.522L417.809 765.113L393.102 711.418L368.997 691.788Z" fill="#8D7669"/>
<path d="M636.216 692.527L685.867 674.115L654.987 705.185L642.271 765.598L621.685 831.19L611.997 866.288L587.172 903.111L566.585 905.413L550.237 863.411L566.585 846.725L587.172 765.598L611.997 712.089L636.216 692.527Z" fill="#8D7669"/>
<path d="M417.366 554.011L366.505 601.239L344.102 607.9L372.56 642.413L402.834 677.531C411.917 708.209 430.082 770.777 430.082 775.621C430.082 780.465 442.595 821.638 448.852 841.619L473.071 867.05L448.852 669.054L430.082 627.881L417.366 554.011Z" fill="#766054"/>
<path d="M590.537 558.249L650.481 601.239L672.884 607.9L644.426 642.413L614.151 677.531C605.069 708.209 586.904 770.777 586.904 775.621C586.904 780.465 574.39 821.638 568.134 841.62L543.914 867.05L568.134 669.054L586.904 627.881L590.537 558.249Z" fill="#766054"/>
<path d="M362.267 434.124L298.085 529.791L327.148 413.537L405.862 348.749H601.436L680.15 413.537L709.819 535.241L652.298 430.491L580.244 388.106L418.578 384.473L362.267 434.124Z" fill="#957360"/>
<path d="M327.218 607.238L329.268 568.569L340.772 548.643L365.969 540.119C378.394 544.029 403.437 552.242 404.211 553.807C404.985 555.373 414.559 574.231 419.25 583.465L420.227 616.89L415.777 654.872L400.075 665.032L372.832 651.752C364.718 646.834 347.485 636.558 343.468 634.798C339.45 633.038 330.96 615.691 327.218 607.238Z" fill="#9D7C69"/>
<path d="M682.316 607.238L680.266 568.569L668.762 548.643L643.564 540.118C631.14 544.029 606.097 552.242 605.323 553.807C604.549 555.373 594.975 574.231 590.284 583.465L589.306 616.89L596.254 651.752L615.024 665.638L636.701 651.752C644.816 646.834 662.048 636.558 666.066 634.798C670.084 633.038 678.573 615.691 682.316 607.238Z" fill="#9D7C69"/>
<path d="M339.864 593.973L345.313 561.277L358.029 555.222L398.596 583.075L408.284 620.01L401.624 647.862C391.734 644.229 371.592 636.842 370.138 636.358C368.685 635.874 349.35 607.9 339.864 593.973Z" fill="#826454"/>
<path d="M672.884 596.395L667.434 563.699L654.719 557.644L614.151 585.496L604.463 622.431L611.124 650.284C621.013 646.651 641.156 639.264 642.609 638.78C644.062 638.295 663.398 610.321 672.884 596.395Z" fill="#826454"/>
<path d="M403.044 601.111C403.044 620.173 387.592 635.624 368.531 635.624C349.47 635.624 334.018 620.173 334.018 601.111C334.018 582.05 349.47 566.598 368.531 566.598C387.592 566.598 403.044 582.05 403.044 601.111Z" fill="black"/>
<path d="M378.195 587.306C378.195 598.743 368.924 608.014 357.488 608.014C346.051 608.014 336.78 598.743 336.78 587.306C336.78 575.87 346.051 566.598 357.488 566.598C368.924 566.598 378.195 575.87 378.195 587.306Z" fill="#FDFDFD"/>
<path d="M677.122 597.001C677.122 616.062 661.67 631.514 642.609 631.514C623.548 631.514 608.096 616.062 608.096 597.001C608.096 577.939 623.548 562.487 642.609 562.487C661.67 562.487 677.122 577.939 677.122 597.001Z" fill="black"/>
<path d="M652.273 583.195C652.273 594.632 643.002 603.903 631.566 603.903C620.129 603.903 610.858 594.632 610.858 583.195C610.858 571.759 620.129 562.487 631.566 562.487C643.002 562.487 652.273 571.759 652.273 583.195Z" fill="#FDFDFD"/>
<path d="M452.147 929.767L427.927 891.248L436.404 855.603L453.964 841.23L480 849.279L509.669 861.352L543.576 849.279L576.273 843.53L592.621 861.352L596.254 886.649L569.613 929.767L513.302 955.063L452.147 929.767Z" fill="#E4CABC"/>
<path d="M442.401 590.213L421.815 618.065L419.393 584.158L404.861 553.883L366.109 538.746L338.862 549.039L343.706 538.746L388.513 528.452L421.815 546.012L442.401 590.213Z" fill="#A0816F"/>
<path d="M568.133 590.34L588.72 618.193L591.142 584.286L605.674 554.011L644.425 538.874L671.673 549.167L666.829 538.874L622.022 528.58L588.72 546.14L568.133 590.34Z" fill="#A0816F"/>
<path d="M359.345 380.647L391.598 427.112V507.728L340.8 517.638C325.749 518.706 295.324 521.643 294.034 524.848C292.743 528.052 258.556 512.831 241.623 504.82L136.802 419.101L93.2609 387.857L68.2651 345.398L97.2925 327.773L124.707 331.779C172.011 336.052 267.586 344.757 271.457 345.398C275.327 346.039 331.662 369.164 359.345 380.647Z" fill="#836453"/>
<path d="M318.446 483.588L362.337 467.494L357.217 439.696L318.446 387.027C255.291 373.859 128.397 347.525 126.056 347.525H90.9426C99.7509 368.342 121.609 390.785 123.365 391.956C125.121 393.126 228.852 465.67 263.234 488.834L318.446 483.588Z" fill="#B5A196"/>
<path d="M363.8 466.763V446.609L356.569 431.291L319.177 387.027L242.481 369.217L127.518 347.525H107.035L129.197 359.543L240.172 405.315L260.655 400.926L276.017 425.648C284.795 425.648 292.026 417.855 313.183 425.648L324.431 443.384L305.952 452.252L294.704 466.763H363.8Z" fill="#958379"/>
<path d="M657.57 380.647L625.318 427.112V507.728L676.116 517.638C691.167 518.706 721.592 521.643 722.882 524.848C724.172 528.052 758.36 512.831 775.292 504.82L880.114 419.101L923.655 387.857L948.65 345.398L919.623 327.773L892.208 331.779C844.904 336.052 749.329 344.757 745.459 345.398C741.588 346.039 685.254 369.164 657.57 380.647Z" fill="#836453"/>
<path d="M698.47 483.588L654.578 467.494L659.699 439.696L698.47 387.027C761.624 373.859 888.519 347.525 890.86 347.525H925.973C925.973 370.158 861.527 422.344 871.753 413.753C882.668 404.583 792.907 460.423 758.526 483.588H698.47Z" fill="#B5A196"/>
<path d="M653.116 466.763V446.609L660.347 431.291L697.739 387.027L774.435 369.217L889.398 347.525H909.88L887.719 359.543L776.743 405.315L756.261 400.926L740.899 425.648C732.12 425.648 724.889 417.855 703.732 425.648L692.484 443.384L710.963 452.252L722.211 466.763H653.116Z" fill="#958379"/>
<path d="M384.065 501.333L398.597 475.903L414.339 448.655L439.77 423.225L470.65 406.271H528.777L576.006 423.225L606.886 475.903L623.234 501.333L594.17 522.525L567.529 546.14L538.465 698.724H470.65L451.274 546.14L420.394 522.525C417.004 520.588 394.762 507.59 384.065 501.333Z" fill="#9B7D6C"/>
<path d="M443.038 910.29C438.436 904.892 440.182 888.916 441.63 881.603L444.693 872.989L451.977 874.761L458.417 892.283L480.599 880.284L502.259 892.283C510.526 892.407 517.097 893.434 519.203 892.161C521.309 890.888 539.476 884.853 548.287 880.284C554.098 882.974 567.04 885.391 572.395 887.217C577.751 889.043 577.584 874.577 576.83 867.116C578.945 868.128 583.888 870.488 586.742 871.836C589.596 873.183 582.646 896.221 578.815 907.572L521.212 947.294H504.193C489.163 940.836 447.639 915.688 443.038 910.29Z" fill="#6D5C5C"/>
<path d="M442.401 590.213L421.815 618.065L419.393 584.158L404.861 553.883L366.109 538.746L338.862 549.039L343.706 538.746L388.513 528.452L421.815 546.012L442.401 590.213Z" fill="#655145"/>
<path d="M568.133 590.34L588.72 618.193L591.142 584.286L605.674 554.011L644.425 538.874L671.673 549.167L666.829 538.874L622.022 528.58L588.72 546.14L568.133 590.34Z" fill="#655145"/>
<path d="M446.662 384.085V412.159L417.029 433.734L387.929 427.296C351.031 388.323 302.47 335.645 287.454 330.801C268.684 324.746 250.554 300.143 229.931 300.143C223.271 300.143 182.704 304.16 177.86 282.362C173.985 264.924 211.804 272.674 202.685 257.758C180.686 241.208 159.901 200.6 156.026 197.209C152.151 193.818 132.209 150.183 119.696 128.788C115.457 114.66 94.3436 70.879 119.696 48.8636C136.686 34.1099 143.751 65.3937 151.218 94.0537L168.172 128.788L202.685 185.483L271.106 249.06L281.488 218.361C282.207 216.236 282.573 214.008 282.573 211.764C282.573 201.572 290.255 191.082 299.309 195.763C315.936 204.36 321.183 235.405 309.857 257.758C313.288 271.685 313.732 274.127 317.122 282.362C318.945 286.787 328.627 300.143 351.031 306.581C364.292 299.967 374.863 269.264 381.305 270.857C400.883 275.701 390.388 332.497 395.232 336.856C400.076 341.216 442.423 372.984 446.662 384.085Z" fill="#A38D81"/>
<path d="M433.983 407.698L438.221 381.662L383.727 333.223V300.526C383.525 292.857 381.184 281.635 373.433 298.104C363.745 318.691 348.003 315.058 338.92 310.82C329.838 306.581 315.306 298.71 311.673 295.682C308.04 292.655 300.774 271.463 300.169 268.435C299.563 265.408 291.692 246.032 291.086 250.876C290.481 255.72 273.527 259.958 269.894 258.747C266.261 257.536 248.702 240.583 246.886 239.372C245.432 238.403 217.62 213.537 203.896 201.226C191.988 186.088 167.324 153.876 163.933 146.126C159.695 136.438 140.319 86.7877 139.713 84.3657C139.108 81.9437 125.787 56.5131 124.576 55.9076C123.365 55.3021 120.943 59.5406 119.127 74.0724C117.31 88.6042 152.429 160.658 153.034 165.502C153.64 170.346 189.969 221.812 200.263 233.317C208.497 242.52 241.638 262.582 257.179 271.463L273.527 295.682L324.994 320.508L414.001 409.515L433.983 407.698Z" fill="#AF9B8F"/>
<path d="M568.402 384.612V412.686L599.887 431.918L627.135 427.824C664.033 388.851 712.594 336.173 727.61 331.329C746.38 325.274 764.51 300.67 785.132 300.67C791.793 300.67 832.36 304.687 837.204 282.89C841.079 265.451 803.26 273.202 812.379 258.286C834.378 241.736 855.163 201.128 859.038 197.737C862.913 194.346 882.855 150.71 895.368 129.316C899.607 115.188 920.72 71.4067 895.368 49.3913C878.378 34.6376 871.313 65.9214 863.845 94.5814L846.892 129.316L812.379 186.011L743.958 249.587L733.576 218.889C732.857 216.764 732.49 214.536 732.49 212.292C732.49 202.1 724.808 191.61 715.755 196.291C699.128 204.887 693.88 235.933 705.207 258.286C701.775 272.212 701.332 274.655 697.942 282.89C696.119 287.315 686.437 300.67 664.033 307.109C650.771 300.495 640.2 269.791 633.759 271.385C614.181 276.229 624.676 333.024 619.832 337.384C614.988 341.743 572.64 373.512 568.402 384.612Z" fill="#A38D81"/>
<path d="M581.081 408.226L576.842 382.19L631.337 333.751V301.054C631.539 293.384 633.88 282.163 641.63 298.632C651.318 319.219 667.061 315.586 676.143 311.347C685.225 307.109 699.757 299.238 703.39 296.21C707.023 293.183 714.289 271.99 714.895 268.963C715.5 265.935 723.371 246.56 723.977 251.404C724.582 256.248 741.536 260.486 745.169 259.275C748.802 258.064 766.361 241.11 768.178 239.899C769.631 238.931 797.443 214.065 811.168 201.753C823.076 186.616 847.739 154.404 851.13 146.654C855.369 136.966 874.744 87.3154 875.35 84.8934C875.955 82.4714 889.276 57.0408 890.487 56.4354C891.698 55.8299 894.12 60.0683 895.936 74.6001C897.753 89.1319 862.634 161.185 862.029 166.029C861.423 170.873 825.094 222.34 814.801 233.844C806.566 243.048 773.425 263.11 757.884 271.99L741.536 296.21L690.069 321.035L601.062 410.043L581.081 408.226Z" fill="#AF9B8F"/>
<path d="M327.749 409.708L406.899 348.36H602.144L679.706 409.708L710.074 524.835L718.563 583.659L699.766 661.516L654.896 705.346L643.376 763.017L609.42 871.44L569.62 930.937L513.519 955.063L452.654 930.937L412.356 871.44L365.061 763.017L349.902 705.346L311.096 648.828L291.086 583.659L298.362 521.374L327.749 409.708Z" stroke="white" stroke-width="43.0331" mask="url(#path-1-outside-1_472_328)"/>
<path d="M368.997 691.788L327.416 669.271L350.315 704.49L365.381 759.34L412.386 869.616L438.298 905.413L454.569 863.265L438.298 846.522L417.809 765.113L393.102 711.418L368.997 691.788Z" stroke="white" stroke-width="43.0331" mask="url(#path-1-outside-1_472_328)"/>
<path d="M636.216 692.527L685.867 674.115L654.987 705.185L642.271 765.598L621.685 831.19L611.997 866.288L587.172 903.111L566.585 905.413L550.237 863.411L566.585 846.725L587.172 765.598L611.997 712.089L636.216 692.527Z" stroke="white" stroke-width="43.0331" mask="url(#path-1-outside-1_472_328)"/>
<path d="M417.366 554.011L366.505 601.239L344.102 607.9L372.56 642.413L402.834 677.531C411.917 708.209 430.082 770.777 430.082 775.621C430.082 780.465 442.595 821.638 448.852 841.619L473.071 867.05L448.852 669.054L430.082 627.881L417.366 554.011Z" stroke="white" stroke-width="43.0331" mask="url(#path-1-outside-1_472_328)"/>
<path d="M590.537 558.249L650.481 601.239L672.884 607.9L644.426 642.413L614.151 677.531C605.069 708.209 586.904 770.777 586.904 775.621C586.904 780.465 574.39 821.638 568.134 841.62L543.914 867.05L568.134 669.054L586.904 627.881L590.537 558.249Z" stroke="white" stroke-width="43.0331" mask="url(#path-1-outside-1_472_328)"/>
<path d="M362.267 434.124L298.085 529.791L327.148 413.537L405.862 348.749H601.436L680.15 413.537L709.819 535.241L652.298 430.491L580.244 388.106L418.578 384.473L362.267 434.124Z" stroke="white" stroke-width="43.0331" mask="url(#path-1-outside-1_472_328)"/>
<path d="M327.218 607.238L329.268 568.569L340.772 548.643L365.969 540.119C378.394 544.029 403.437 552.242 404.211 553.807C404.985 555.373 414.559 574.231 419.25 583.465L420.227 616.89L415.777 654.872L400.075 665.032L372.832 651.752C364.718 646.834 347.485 636.558 343.468 634.798C339.45 633.038 330.96 615.691 327.218 607.238Z" stroke="white" stroke-width="43.0331" mask="url(#path-1-outside-1_472_328)"/>
<path d="M682.316 607.238L680.266 568.569L668.762 548.643L643.564 540.118C631.14 544.029 606.097 552.242 605.323 553.807C604.549 555.373 594.975 574.231 590.284 583.465L589.306 616.89L596.254 651.752L615.024 665.638L636.701 651.752C644.816 646.834 662.048 636.558 666.066 634.798C670.084 633.038 678.573 615.691 682.316 607.238Z" stroke="white" stroke-width="43.0331" mask="url(#path-1-outside-1_472_328)"/>
<path d="M339.864 593.973L345.313 561.277L358.029 555.222L398.596 583.075L408.284 620.01L401.624 647.862C391.734 644.229 371.592 636.842 370.138 636.358C368.685 635.874 349.35 607.9 339.864 593.973Z" stroke="white" stroke-width="43.0331" mask="url(#path-1-outside-1_472_328)"/>
<path d="M672.884 596.395L667.434 563.699L654.719 557.644L614.151 585.496L604.463 622.431L611.124 650.284C621.013 646.651 641.156 639.264 642.609 638.78C644.062 638.295 663.398 610.321 672.884 596.395Z" stroke="white" stroke-width="43.0331" mask="url(#path-1-outside-1_472_328)"/>
<path d="M403.044 601.111C403.044 620.173 387.592 635.624 368.531 635.624C349.47 635.624 334.018 620.173 334.018 601.111C334.018 582.05 349.47 566.598 368.531 566.598C387.592 566.598 403.044 582.05 403.044 601.111Z" stroke="white" stroke-width="43.0331" mask="url(#path-1-outside-1_472_328)"/>
<path d="M378.195 587.306C378.195 598.743 368.924 608.014 357.488 608.014C346.051 608.014 336.78 598.743 336.78 587.306C336.78 575.87 346.051 566.598 357.488 566.598C368.924 566.598 378.195 575.87 378.195 587.306Z" stroke="white" stroke-width="43.0331" mask="url(#path-1-outside-1_472_328)"/>
<path d="M677.122 597.001C677.122 616.062 661.67 631.514 642.609 631.514C623.548 631.514 608.096 616.062 608.096 597.001C608.096 577.939 623.548 562.487 642.609 562.487C661.67 562.487 677.122 577.939 677.122 597.001Z" stroke="white" stroke-width="43.0331" mask="url(#path-1-outside-1_472_328)"/>
<path d="M652.273 583.195C652.273 594.632 643.002 603.903 631.566 603.903C620.129 603.903 610.858 594.632 610.858 583.195C610.858 571.759 620.129 562.487 631.566 562.487C643.002 562.487 652.273 571.759 652.273 583.195Z" stroke="white" stroke-width="43.0331" mask="url(#path-1-outside-1_472_328)"/>
<path d="M452.147 929.767L427.927 891.248L436.404 855.603L453.964 841.23L480 849.279L509.669 861.352L543.576 849.279L576.273 843.53L592.621 861.352L596.254 886.649L569.613 929.767L513.302 955.063L452.147 929.767Z" stroke="white" stroke-width="43.0331" mask="url(#path-1-outside-1_472_328)"/>
<path d="M442.401 590.213L421.815 618.065L419.393 584.158L404.861 553.883L366.109 538.746L338.862 549.039L343.706 538.746L388.513 528.452L421.815 546.012L442.401 590.213Z" stroke="white" stroke-width="43.0331" mask="url(#path-1-outside-1_472_328)"/>
<path d="M568.133 590.34L588.72 618.193L591.142 584.286L605.674 554.011L644.425 538.874L671.673 549.167L666.829 538.874L622.022 528.58L588.72 546.14L568.133 590.34Z" stroke="white" stroke-width="43.0331" mask="url(#path-1-outside-1_472_328)"/>
<path d="M359.345 380.647L391.598 427.112V507.728L340.8 517.638C325.749 518.706 295.324 521.643 294.034 524.848C292.743 528.052 258.556 512.831 241.623 504.82L136.802 419.101L93.2609 387.857L68.2651 345.398L97.2925 327.773L124.707 331.779C172.011 336.052 267.586 344.757 271.457 345.398C275.327 346.039 331.662 369.164 359.345 380.647Z" stroke="white" stroke-width="43.0331" mask="url(#path-1-outside-1_472_328)"/>
<path d="M318.446 483.588L362.337 467.494L357.217 439.696L318.446 387.027C255.291 373.859 128.397 347.525 126.056 347.525H90.9426C99.7509 368.342 121.609 390.785 123.365 391.956C125.121 393.126 228.852 465.67 263.234 488.834L318.446 483.588Z" stroke="white" stroke-width="43.0331" mask="url(#path-1-outside-1_472_328)"/>
<path d="M363.8 466.763V446.609L356.569 431.291L319.177 387.027L242.481 369.217L127.518 347.525H107.035L129.197 359.543L240.172 405.315L260.655 400.926L276.017 425.648C284.795 425.648 292.026 417.855 313.183 425.648L324.431 443.384L305.952 452.252L294.704 466.763H363.8Z" stroke="white" stroke-width="43.0331" mask="url(#path-1-outside-1_472_328)"/>
<path d="M657.57 380.647L625.318 427.112V507.728L676.116 517.638C691.167 518.706 721.592 521.643 722.882 524.848C724.172 528.052 758.36 512.831 775.292 504.82L880.114 419.101L923.655 387.857L948.65 345.398L919.623 327.773L892.208 331.779C844.904 336.052 749.329 344.757 745.459 345.398C741.588 346.039 685.254 369.164 657.57 380.647Z" stroke="white" stroke-width="43.0331" mask="url(#path-1-outside-1_472_328)"/>
<path d="M698.47 483.588L654.578 467.494L659.699 439.696L698.47 387.027C761.624 373.859 888.519 347.525 890.86 347.525H925.973C925.973 370.158 861.527 422.344 871.753 413.753C882.668 404.583 792.907 460.423 758.526 483.588H698.47Z" stroke="white" stroke-width="43.0331" mask="url(#path-1-outside-1_472_328)"/>
<path d="M653.116 466.763V446.609L660.347 431.291L697.739 387.027L774.435 369.217L889.398 347.525H909.88L887.719 359.543L776.743 405.315L756.261 400.926L740.899 425.648C732.12 425.648 724.889 417.855 703.732 425.648L692.484 443.384L710.963 452.252L722.211 466.763H653.116Z" stroke="white" stroke-width="43.0331" mask="url(#path-1-outside-1_472_328)"/>
<path d="M384.065 501.333L398.597 475.903L414.339 448.655L439.77 423.225L470.65 406.271H528.777L576.006 423.225L606.886 475.903L623.234 501.333L594.17 522.525L567.529 546.14L538.465 698.724H470.65L451.274 546.14L420.394 522.525C417.004 520.588 394.762 507.59 384.065 501.333Z" stroke="white" stroke-width="43.0331" mask="url(#path-1-outside-1_472_328)"/>
<path d="M443.038 910.29C438.436 904.892 440.182 888.916 441.63 881.603L444.693 872.989L451.977 874.761L458.417 892.283L480.599 880.284L502.259 892.283C510.526 892.407 517.097 893.434 519.203 892.161C521.309 890.888 539.476 884.853 548.287 880.284C554.098 882.974 567.04 885.391 572.395 887.217C577.751 889.043 577.584 874.577 576.83 867.116C578.945 868.128 583.888 870.488 586.742 871.836C589.596 873.183 582.646 896.221 578.815 907.572L521.212 947.294H504.193C489.163 940.836 447.639 915.688 443.038 910.29Z" stroke="white" stroke-width="43.0331" mask="url(#path-1-outside-1_472_328)"/>
<path d="M442.401 590.213L421.815 618.065L419.393 584.158L404.861 553.883L366.109 538.746L338.862 549.039L343.706 538.746L388.513 528.452L421.815 546.012L442.401 590.213Z" stroke="white" stroke-width="43.0331" mask="url(#path-1-outside-1_472_328)"/>
<path d="M568.133 590.34L588.72 618.193L591.142 584.286L605.674 554.011L644.425 538.874L671.673 549.167L666.829 538.874L622.022 528.58L588.72 546.14L568.133 590.34Z" stroke="white" stroke-width="43.0331" mask="url(#path-1-outside-1_472_328)"/>
<path d="M446.662 384.085V412.159L417.029 433.734L387.929 427.296C351.031 388.323 302.47 335.645 287.454 330.801C268.684 324.746 250.554 300.143 229.931 300.143C223.271 300.143 182.704 304.16 177.86 282.362C173.985 264.924 211.804 272.674 202.685 257.758C180.686 241.208 159.901 200.6 156.026 197.209C152.151 193.818 132.209 150.183 119.696 128.788C115.457 114.66 94.3436 70.879 119.696 48.8636C136.686 34.1099 143.751 65.3937 151.218 94.0537L168.172 128.788L202.685 185.483L271.106 249.06L281.488 218.361C282.207 216.236 282.573 214.008 282.573 211.764C282.573 201.572 290.255 191.082 299.309 195.763C315.936 204.36 321.183 235.405 309.857 257.758C313.288 271.685 313.732 274.127 317.122 282.362C318.945 286.787 328.627 300.143 351.031 306.581C364.292 299.967 374.863 269.264 381.305 270.857C400.883 275.701 390.388 332.497 395.232 336.856C400.076 341.216 442.423 372.984 446.662 384.085Z" stroke="white" stroke-width="43.0331" mask="url(#path-1-outside-1_472_328)"/>
<path d="M433.983 407.698L438.221 381.662L383.727 333.223V300.526C383.525 292.857 381.184 281.635 373.433 298.104C363.745 318.691 348.003 315.058 338.92 310.82C329.838 306.581 315.306 298.71 311.673 295.682C308.04 292.655 300.774 271.463 300.169 268.435C299.563 265.408 291.692 246.032 291.086 250.876C290.481 255.72 273.527 259.958 269.894 258.747C266.261 257.536 248.702 240.583 246.886 239.372C245.432 238.403 217.62 213.537 203.896 201.226C191.988 186.088 167.324 153.876 163.933 146.126C159.695 136.438 140.319 86.7877 139.713 84.3657C139.108 81.9437 125.787 56.5131 124.576 55.9076C123.365 55.3021 120.943 59.5406 119.127 74.0724C117.31 88.6042 152.429 160.658 153.034 165.502C153.64 170.346 189.969 221.812 200.263 233.317C208.497 242.52 241.638 262.582 257.179 271.463L273.527 295.682L324.994 320.508L414.001 409.515L433.983 407.698Z" stroke="white" stroke-width="43.0331" mask="url(#path-1-outside-1_472_328)"/>
<path d="M568.402 384.612V412.686L599.887 431.918L627.135 427.824C664.033 388.851 712.594 336.173 727.61 331.329C746.38 325.274 764.51 300.67 785.132 300.67C791.793 300.67 832.36 304.687 837.204 282.89C841.079 265.451 803.26 273.202 812.379 258.286C834.378 241.736 855.163 201.128 859.038 197.737C862.913 194.346 882.855 150.71 895.368 129.316C899.607 115.188 920.72 71.4067 895.368 49.3913C878.378 34.6376 871.313 65.9214 863.845 94.5814L846.892 129.316L812.379 186.011L743.958 249.587L733.576 218.889C732.857 216.764 732.49 214.536 732.49 212.292C732.49 202.1 724.808 191.61 715.755 196.291C699.128 204.887 693.88 235.933 705.207 258.286C701.775 272.212 701.332 274.655 697.942 282.89C696.119 287.315 686.437 300.67 664.033 307.109C650.771 300.495 640.2 269.791 633.759 271.385C614.181 276.229 624.676 333.024 619.832 337.384C614.988 341.743 572.64 373.512 568.402 384.612Z" stroke="white" stroke-width="43.0331" mask="url(#path-1-outside-1_472_328)"/>
<path d="M581.081 408.226L576.842 382.19L631.337 333.751V301.054C631.539 293.384 633.88 282.163 641.63 298.632C651.318 319.219 667.061 315.586 676.143 311.347C685.225 307.109 699.757 299.238 703.39 296.21C707.023 293.183 714.289 271.99 714.895 268.963C715.5 265.935 723.371 246.56 723.977 251.404C724.582 256.248 741.536 260.486 745.169 259.275C748.802 258.064 766.361 241.11 768.178 239.899C769.631 238.931 797.443 214.065 811.168 201.753C823.076 186.616 847.739 154.404 851.13 146.654C855.369 136.966 874.744 87.3154 875.35 84.8934C875.955 82.4714 889.276 57.0408 890.487 56.4354C891.698 55.8299 894.12 60.0683 895.936 74.6001C897.753 89.1319 862.634 161.185 862.029 166.029C861.423 170.873 825.094 222.34 814.801 233.844C806.566 243.048 773.425 263.11 757.884 271.99L741.536 296.21L690.069 321.035L601.062 410.043L581.081 408.226Z" stroke="white" stroke-width="43.0331" mask="url(#path-1-outside-1_472_328)"/>
</svg>
