<svg width="400" height="400" viewBox="0 0 400 400" fill="none" xmlns="http://www.w3.org/2000/svg">
<g clip-path="url(#clip0_1_81)">
<path d="M162.07 162.311C180.905 165.853 209.748 120.912 209.748 120.912C208.546 102.457 165.906 66.9312 110.08 64.4584C42.3438 61.458 11.8552 120.886 10.8642 127.278C9.87321 133.67 -1.79359 190.24 42.19 224.901C86.1736 259.561 169.301 198.024 80.0176 162.311C80.0176 195.073 85.022 198.328 72.4913 189.908C56.7699 161.53 48.3886 143.237 89.3149 124.827C134.916 104.313 138.526 157.883 162.07 162.311Z" fill="#E6E6E6"/>
<path d="M238.023 164.672C219.188 168.215 190.345 123.273 190.345 123.273C191.547 104.818 234.188 69.2924 290.013 66.8196C357.749 63.8192 388.238 123.247 389.229 129.639C390.22 136.032 401.887 192.601 357.903 227.262C313.92 261.923 230.792 200.385 320.076 164.672C320.076 197.434 315.071 200.69 327.602 192.269C343.323 163.891 351.705 145.598 310.778 127.188C265.177 106.675 261.567 160.244 238.023 164.672Z" fill="#E6E6E6"/>
<path d="M135.286 285.161L127.928 238.659L116.764 196.696L123.995 187.104L134.133 170.394L142.838 143.274L260.528 145.45L266.22 164.535L282.64 197.877L272.428 238.659L265.07 285.161L227.606 330.83C209.321 331.293 171.846 331.941 168.234 330.83C164.621 329.72 144.764 299.921 135.286 285.161Z" fill="#E6E6E6"/>
<circle cx="260.375" cy="237.413" r="8.37054" fill="#E6E6E6"/>
<circle cx="257.696" cy="234.065" r="5.02232" fill="#E6E6E6"/>
<path d="M154.108 286.794L166.615 259.518L161.498 247.396L141.601 194.171L126.061 184.511L159.414 127.687L199.02 124.089L239.763 127.687L252.682 176.921L257.198 194.171L242.985 243.797L236.352 257.624L240.521 281.869L249.807 313.88L228.772 356.876L206.221 367.294H192.198L173.248 360.096L148.233 320.13L154.108 286.794Z" fill="#E6E6E6"/>
<path d="M169.787 341.626C167.795 339.171 168.551 331.907 169.178 328.582L170.503 324.665L173.656 325.471L176.443 333.438L186.044 327.982L195.419 333.438C198.997 333.494 201.842 333.961 202.753 333.383C203.665 332.804 211.528 330.06 215.341 327.982C217.856 329.206 223.458 330.304 225.776 331.134C228.094 331.965 228.021 325.387 227.695 321.995C228.611 322.455 230.75 323.528 231.985 324.141C233.221 324.753 230.213 335.229 228.554 340.39L203.623 358.451L196.257 358.451C189.751 355.515 171.779 344.08 169.787 341.626Z" fill="#E6E6E6"/>
<path d="M172.819 254.321L176.669 212.804L158.589 186.855L154.906 171.118C158.756 168.44 153.399 158.496 162.774 156.219C172.149 153.942 188.667 143.328 195.754 138.306C202.283 140.817 215.341 146.174 215.341 147.513C215.341 148.853 239.225 166.152 251.167 174.634L223.544 192.045C220.81 198.964 215.341 213.507 215.341 216.319C215.341 219.835 221.201 241.766 223.544 247.625C225.888 253.484 210.821 285.795 211.826 289.31C212.629 292.123 214.504 311.241 215.341 320.449L200.274 328.652C195.475 325.917 185.877 319.88 185.877 317.603V285.795L172.819 254.321Z" fill="#E6E6E6"/>
<path d="M178.894 174.354L162.903 160.884C157.362 154.078 143.293 138.994 131.341 133.101C116.402 125.734 71.375 120.683 71.1646 133.101C70.9963 143.035 85.2619 164.742 92.4158 174.354L133.656 189.929L150.909 203.189H165.427L176.79 189.929L178.894 174.354Z" fill="#E6E6E6"/>
<path d="M94.9051 156.689C92.358 151.049 86.3177 138.313 82.5334 132.491L109.278 138.677C118.739 146.379 138.206 162.693 140.389 166.332C142.572 169.97 139.479 173.427 137.66 174.701L115.646 167.787L94.9051 156.689Z" fill="#E6E6E6"/>
<path d="M139.661 176.52L142.754 174.155H150.214L152.397 170.334L150.214 166.695L143.664 164.512L124.743 143.953L105.639 133.037C99.6961 132.552 86.6816 131.582 82.1695 131.582C77.6575 131.582 95.9361 137.768 105.639 140.86L118.011 149.048C117.101 149.29 115.027 149.921 114.008 150.503C112.99 151.085 108.732 153.05 106.731 153.96C111.037 154.263 120.667 155.088 124.743 155.961C128.818 156.834 133.233 163.845 134.931 167.241L129.655 166.15C126.744 165.604 120.34 164.512 118.011 164.512C115.682 164.512 112.432 165.604 111.097 166.15C117.101 168.212 129.582 172.699 131.474 174.155C133.366 175.61 137.721 176.338 139.661 176.52Z" fill="#E6E6E6"/>
<path d="M143.3 161.965C144.028 162.402 144.452 152.444 145.12 150.139L132.02 137.404L114.19 127.943C107.823 126.851 96.9792 126.014 93.6315 125.578C90.2839 125.141 85.687 126.973 83.807 127.943L116.919 133.765C125.046 141.164 142.572 161.528 143.3 161.965Z" fill="#E6E6E6"/>
<path d="M221.1 170.996L235.995 158.453C241.156 152.116 254.262 138.07 265.394 132.582C279.309 125.723 321.25 121.019 321.446 132.582C321.603 141.833 308.315 162.046 301.651 170.996L263.238 185.499L247.167 197.846H233.644L223.06 185.499L221.1 170.996Z" fill="#E6E6E6"/>
<path d="M307.838 159.169C310.582 153.093 317.088 139.374 321.165 133.102L292.355 139.766C282.163 148.063 261.193 165.636 258.841 169.556C256.489 173.476 259.821 177.2 261.781 178.572L285.495 171.124L307.838 159.169Z" fill="#E6E6E6"/>
<path d="M24.3257 186.353C-4.46898 140.65 55.9663 118.217 60.9887 118.217C17.9641 140.65 39.0579 173.964 53.2878 198.574C55.1194 201.741 65.7535 206.297 69.7128 199.747C70.2676 198.371 70.7076 197.009 71.0333 195.728C70.8036 197.382 70.3426 198.705 69.7128 199.747C64.5648 212.51 49.5377 226.369 24.3257 186.353Z" fill="#E6E6E6"/>
<path d="M376.153 189.708C404.947 144.005 344.512 121.572 339.49 121.572C382.514 144.005 361.42 177.32 347.191 201.929C345.359 205.097 334.725 209.653 330.765 203.102C330.211 201.727 329.771 200.365 329.445 199.083C329.675 200.738 330.136 202.061 330.765 203.102C335.913 215.866 350.941 229.725 376.153 189.708Z" fill="#E6E6E6"/>
<path d="M146.132 125.564C188.828 110.881 233.121 115.166 250.763 121.285C248.286 161.127 264.5 188.649 276.884 197.581L263.91 238.574L257.423 279.566L224.399 319.824C208.279 320.232 175.245 320.803 172.06 319.824C168.876 318.845 151.371 292.578 143.017 279.566L136.53 238.574L126.652 197.581C134.957 187.466 158.162 162.568 146.132 125.564Z" fill="#7A6965"/>
<path d="M163.798 157.691C180.402 160.813 194.819 125.684 194.819 125.684C193.759 109.415 156.171 78.099 106.96 75.9192C47.2484 73.2743 20.3721 125.661 19.4985 131.296C18.6249 136.931 8.3404 186.798 47.1129 217.352C85.8853 247.907 151.767 199.517 81.6693 166.326C92.0781 199.964 82.0083 203.084 70.9622 195.66C57.1034 170.645 37.9065 141.886 82.5299 122.384C142.159 96.3236 143.043 153.787 163.798 157.691Z" fill="#877872"/>
<path d="M143.017 279.566L136.53 238.574L129.16 194.925L142 178.397L149.674 154.489L253.419 156.408L258.437 173.231L271.129 194.778L263.91 238.574L257.423 279.566L224.399 319.824C208.279 320.232 175.245 320.803 172.061 319.824C168.876 318.845 151.371 292.578 143.017 279.566Z" fill="#7A6965"/>
<circle cx="252.977" cy="229.163" r="9.83722" fill="black"/>
<circle cx="249.829" cy="225.228" r="5.90233" fill="#FDFDFD"/>
<circle cx="147.837" cy="228.837" r="9.83722" fill="black"/>
<circle cx="144.689" cy="224.902" r="5.90233" fill="#FDFDFD"/>
<path d="M145.837 240.231C144.508 240.231 139.638 235.804 135.064 233.59L138.605 250.709L157.2 280.962L184.944 287.603L159.266 236.984C155.232 238.067 146.899 240.231 145.837 240.231Z" fill="#6C5E5E"/>
<path d="M255.19 240.231C256.519 240.231 261.389 235.804 265.963 233.59L262.422 250.709L241.761 286.127L214.017 292.768L241.761 236.984C245.795 238.067 254.128 240.231 255.19 240.231Z" fill="#6C5E5E"/>
<path d="M164.579 296.162L174.319 274.911L170.334 265.466L154.839 223.998L142.737 216.471L168.711 172.198L199.554 169.395L231.283 172.198L260.651 213.667L244.86 223.998L233.792 262.663L228.627 273.436L231.873 292.325L239.105 317.266L222.724 350.765L205.162 358.882H194.242L179.484 353.274L160.004 322.136L164.579 296.162Z" fill="#89746F"/>
<path d="M173.122 321.028C171.366 318.865 172.032 312.461 172.585 309.53L173.753 306.077L176.532 306.788L178.99 313.811L187.453 309.001L195.717 313.811C198.871 313.86 201.378 314.272 202.182 313.762C202.985 313.252 209.917 310.833 213.279 309.001C215.496 310.08 220.434 311.048 222.477 311.78C224.52 312.512 224.457 306.714 224.169 303.723C224.976 304.129 226.862 305.075 227.951 305.615C229.04 306.155 226.388 315.389 224.926 319.939L202.949 335.86L196.455 335.86C190.72 333.272 174.877 323.192 173.122 321.028Z" fill="#6D5C5C"/>
<path d="M166.316 223.638C168.432 223.985 172.791 207.058 171.782 204.075C163.219 201.641 145.56 196.888 143.431 197.344C140.769 197.914 132.919 198.526 130.475 200.116C128.52 201.387 128.449 207.125 128.657 209.835C131.246 211.236 136.707 213.977 137.843 213.734C139.263 213.43 146.607 214.792 150.346 216.658C154.086 218.523 164.2 223.291 166.316 223.638Z" fill="#9B8580"/>
<path d="M235.364 223.638C233.249 223.985 228.889 207.058 229.899 204.075C238.461 201.641 256.12 196.888 258.249 197.344C260.911 197.914 268.761 198.526 271.205 200.116C273.16 201.387 273.231 207.125 273.023 209.835C270.434 211.236 264.973 213.977 263.837 213.734C262.417 213.43 255.074 214.792 251.334 216.658C247.594 218.523 237.48 223.291 235.364 223.638Z" fill="#9B8580"/>
<path d="M175.795 244.068L179.189 207.469L163.251 184.595L160.004 170.723C163.398 168.361 158.676 159.595 166.94 157.588C175.204 155.581 189.765 146.225 196.012 141.798C201.768 144.011 213.279 148.734 213.279 149.914C213.279 151.095 234.333 166.345 244.86 173.822L220.51 189.17C218.1 195.269 213.279 208.089 213.279 210.568C213.279 213.667 218.444 233 220.51 238.165C222.576 243.33 209.294 271.812 210.18 274.911C210.888 277.391 212.541 294.244 213.279 302.361L199.997 309.592C195.766 307.181 187.305 301.859 187.305 299.852V271.812L175.795 244.068Z" fill="#927C77"/>
<path d="M161.797 166.579L149.609 156.314C145.385 151.129 134.661 139.635 125.551 135.144C114.164 129.531 79.8429 125.682 79.6826 135.144C79.5542 142.714 90.4281 159.255 95.881 166.579L127.316 178.447L140.467 188.551H151.533L160.194 178.447L161.797 166.579Z" fill="#7A6965"/>
<path d="M99.5698 158.399C97.3244 153.428 91.9998 142.201 88.6639 137.069L112.24 142.522C120.58 149.311 137.74 163.692 139.665 166.9C141.589 170.107 138.863 173.154 137.259 174.277L117.853 168.183L99.5698 158.399Z" fill="#766460"/>
<path d="M139.023 175.881L141.75 173.796H148.325L150.25 170.428L148.325 167.22L142.552 165.296L125.872 147.173L109.032 137.55C103.793 137.122 92.3206 136.267 88.3431 136.267C84.3657 136.267 100.479 141.72 109.032 144.446L119.938 151.663C119.136 151.877 117.308 152.433 116.41 152.946C115.512 153.46 111.759 155.192 109.995 155.994C113.79 156.261 122.28 156.988 125.872 157.758C129.465 158.528 133.357 164.708 134.854 167.701L130.202 166.739C127.636 166.258 121.991 165.296 119.938 165.296C117.885 165.296 115.02 166.258 113.844 166.739C119.136 168.557 130.138 172.513 131.806 173.796C133.474 175.079 137.313 175.72 139.023 175.881Z" fill="#70615E"/>
<path d="M142.231 163.05C142.873 163.435 143.247 154.657 143.835 152.626L132.287 141.399L116.57 133.059C110.957 132.097 101.398 131.359 98.4471 130.974C95.4961 130.589 91.4438 132.204 89.7865 133.059L118.976 138.191C126.139 144.714 141.589 162.665 142.231 163.05Z" fill="#85736F"/>
<path d="M233.623 166.55L245.827 156.273C250.056 151.081 260.794 139.572 269.915 135.075C281.317 129.455 315.682 125.601 315.843 135.075C315.971 142.655 305.084 159.217 299.624 166.55L268.149 178.434L254.981 188.551H243.9L235.228 178.434L233.623 166.55Z" fill="#7A6965"/>
<path d="M295.93 158.361C298.178 153.382 303.51 142.141 306.85 137.003L283.244 142.462C274.893 149.261 257.711 163.66 255.784 166.872C253.856 170.083 256.586 173.135 258.192 174.259L277.623 168.156L295.93 158.361Z" fill="#766460"/>
<path d="M256.426 175.865L253.696 173.777H247.112L245.185 170.405L247.112 167.193L252.893 165.266L269.594 147.119L286.456 137.484C291.701 137.056 303.189 136.2 307.171 136.2C311.154 136.2 295.02 141.66 286.456 144.39L275.536 151.616C276.339 151.83 278.169 152.387 279.069 152.901C279.968 153.414 283.726 155.149 285.492 155.952C281.692 156.219 273.191 156.947 269.594 157.718C265.997 158.489 262.1 164.677 260.601 167.675L265.258 166.711C267.828 166.229 273.48 165.266 275.536 165.266C277.591 165.266 280.46 166.229 281.638 166.711C276.339 168.531 265.322 172.492 263.652 173.777C261.982 175.062 258.139 175.704 256.426 175.865Z" fill="#70615E"/>
<path d="M253.214 163.018C252.572 163.403 252.197 154.614 251.608 152.579L263.171 141.338L278.908 132.988C284.529 132.024 294.1 131.286 297.054 130.9C300.009 130.515 304.067 132.131 305.726 132.988L276.499 138.127C269.326 144.657 253.856 162.632 253.214 163.018Z" fill="#85736F"/>
<path d="M71.1631 96.9347C144.951 78.9304 172.843 148.439 174.761 154.342C179.602 154.342 190.257 135.157 194.979 125.564L190.7 114.791C137.572 54.7279 56.9958 71.1089 29.9894 113.168C33.4328 111.496 46.4884 105.907 71.1631 96.9347Z" fill="#8D827D"/>
<path d="M44.8946 184.152C19.5115 143.864 72.7865 124.089 77.2137 124.089C39.2867 143.864 57.8813 173.231 70.4252 194.925C72.0399 197.718 81.414 201.733 84.9043 195.959C85.3933 194.747 85.7812 193.546 86.0683 192.416C85.8658 193.875 85.4595 195.041 84.9043 195.959C80.3662 207.21 67.1195 219.428 44.8946 184.152Z" fill="#7E6D69"/>
<path d="M236.134 160.649C219.53 163.772 205.113 128.642 205.113 128.642C206.173 112.374 243.761 81.0572 292.972 78.8774C352.683 76.2324 379.56 128.619 380.433 134.254C381.307 139.889 391.591 189.757 352.819 220.311C314.046 250.865 248.165 202.475 318.262 169.284C307.854 202.923 317.924 206.042 328.97 198.619C342.828 173.603 362.025 144.844 317.402 125.342C257.773 99.2818 256.889 156.745 236.134 160.649Z" fill="#877872"/>
<path d="M328.769 99.8929C254.981 81.8886 227.089 151.397 225.17 157.3C220.33 157.3 209.675 138.115 204.952 128.523L209.232 117.75C262.359 57.6861 342.936 74.067 369.942 116.126C366.499 114.454 353.443 108.865 328.769 99.8929Z" fill="#8D827D"/>
<path d="M355.037 187.11C380.42 146.822 327.145 127.047 322.718 127.047C360.645 146.822 342.051 176.19 329.507 197.883C327.892 200.676 318.518 204.691 315.028 198.917C314.539 197.705 314.151 196.504 313.864 195.375C314.066 196.833 314.472 197.999 315.028 198.917C319.566 210.168 332.812 222.386 355.037 187.11Z" fill="#7E6D69"/>
</g>
<defs>
<clipPath id="clip0_1_81">
<rect width="400" height="400" fill="white"/>
</clipPath>
</defs>
</svg>
