<svg width="1001" height="1001" viewBox="0 0 1001 1001" fill="none" xmlns="http://www.w3.org/2000/svg">
<ellipse cx="509.573" cy="499.58" rx="348.345" ry="458.976" fill="#E6E6E6"/>
<ellipse cx="269.229" cy="313.509" rx="126.256" ry="164.363" fill="#E6E6E6"/>
<ellipse cx="187.086" cy="536.795" rx="126.256" ry="164.363" fill="#E6E6E6"/>
<ellipse cx="339.202" cy="774.036" rx="126.256" ry="165.914" fill="#E6E6E6"/>
<ellipse cx="731.661" cy="753.878" rx="126.256" ry="164.363" fill="#E6E6E6"/>
<ellipse cx="731.661" cy="753.878" rx="126.256" ry="164.363" fill="#E6E6E6"/>
<ellipse cx="786.423" cy="499.58" rx="156.679" ry="201.577" fill="#E6E6E6"/>
<ellipse cx="786.423" cy="499.58" rx="156.679" ry="201.577" fill="#E6E6E6"/>
<ellipse cx="701.237" cy="304.205" rx="156.679" ry="201.577" fill="#E6E6E6"/>
<ellipse cx="701.237" cy="304.205" rx="156.679" ry="201.577" fill="#E6E6E6"/>
<ellipse cx="509.572" cy="499.58" rx="314.88" ry="415.56" fill="#85736F"/>
<ellipse cx="290.525" cy="332.116" rx="114.087" ry="148.857" fill="#85736F"/>
<ellipse cx="217.509" cy="533.693" rx="114.087" ry="148.857" fill="#85736F"/>
<ellipse cx="354.413" cy="747.675" rx="114.087" ry="148.857" fill="#85736F"/>
<ellipse cx="710.365" cy="729.068" rx="114.087" ry="148.857" fill="#85736F"/>
<ellipse cx="710.365" cy="729.068" rx="114.087" ry="148.857" fill="#85736F"/>
<ellipse cx="759.042" cy="499.58" rx="141.468" ry="182.97" fill="#85736F"/>
<ellipse cx="759.042" cy="499.58" rx="141.468" ry="182.97" fill="#85736F"/>
<ellipse cx="682.984" cy="322.812" rx="141.468" ry="182.97" fill="#85736F"/>
<ellipse cx="682.984" cy="322.812" rx="141.468" ry="182.97" fill="#85736F"/>
<path d="M334.594 229.153C345.694 303.397 351.245 441.958 284.642 402.254C437.828 532.019 381.771 340.922 334.594 229.153Z" fill="#7A6965"/>
<path d="M425.74 787.351C444.77 746.679 410.856 553.683 380.329 510.508L357.624 587.459L294.156 651.616C373.842 663.721 374.599 746.194 425.74 787.351Z" fill="#7A6965"/>
<path d="M665.23 473.673C696.152 392.57 623.603 386.517 615.277 379.254C596.645 386.921 559.379 387.001 559.379 325.993C564.136 358.918 650.165 356.658 692.584 351.413L730.643 443.41C708.839 466.41 665.23 524.514 665.23 572.933C665.23 621.353 720.732 645.563 748.483 651.616C744.915 656.861 708.997 707.779 665.23 733.925C610.52 766.609 586.301 604.004 615.277 587.459C625.563 581.587 634.307 554.776 665.23 473.673Z" fill="#7A6965"/>
<path d="M559.379 248.521C578.012 222.697 615.277 166.691 615.277 149.26C596.645 142.401 551.291 132.798 518.941 149.26C486.591 165.723 532.42 222.294 559.379 248.521Z" fill="#7A6965"/>
</svg>
