<svg width="400" height="400" viewBox="0 0 400 400" fill="none" xmlns="http://www.w3.org/2000/svg">
<g clip-path="url(#clip0_119_2)">
<path d="M179.388 315.217C171.972 349.825 271.899 374.138 271.899 374.138C306.044 364.001 358.097 271.992 343.796 170.561C326.443 47.4876 204.839 18.3535 192.535 19.334C180.23 20.3145 70.3602 23.7834 20.3819 117.834C-29.5965 211.884 126.209 340.383 156.278 156.631C91.8377 176.816 90.3991 173.132 110.867 153.55C146.647 119.318 184.483 100.364 222.51 161.981C271.873 241.966 190.123 265.125 179.388 315.217Z" fill="#E6E6E6"/>
<path d="M195.69 314.916C196.371 347.014 267.334 360.098 267.334 360.098C297.175 351.769 340.724 269.629 325.547 177.261C307.131 65.1842 199.206 35.6749 188.386 36.2524C177.565 36.8299 80.8091 37.1914 39.1402 121.235C-2.52873 205.28 113.205 308.888 147.537 165.559C89.048 198.061 79.3121 180.553 88.8002 157.11C129.904 121.562 175.886 74.6236 229.591 149.987C301.357 250.694 194.839 274.794 195.69 314.916Z" fill="#877872"/>
<path d="M272.036 119.207C334.274 249.349 216.167 328.305 205.961 334.173C207.852 343.171 247.619 355.496 267.267 360.533L285.589 348.376C376.309 226.194 314.433 82.7995 225.825 49.0004C230.274 54.7491 245.745 76.8386 272.036 119.207Z" fill="#8D827D"/>
<path d="M100.397 104.528C164.871 41.7897 222.153 132.995 223.88 141.212C172.583 78.4917 125.622 124.395 90.4668 156.091C85.9417 160.171 82.1845 179.127 94.2048 183.365C96.6336 183.802 99.0023 184.056 101.199 184.151C98.4281 184.34 96.1169 184.039 94.2048 183.365C71.6654 179.306 43.9455 159.46 100.397 104.528Z" fill="#7E6D69"/>
</g>
<defs>
<clipPath id="clip0_119_2">
<rect width="400" height="400" fill="white"/>
</clipPath>
</defs>
</svg>
