<svg width="501" height="501" viewBox="0 0 501 501" fill="none" xmlns="http://www.w3.org/2000/svg">
<ellipse cx="255.322" cy="250.092" rx="174.173" ry="229.488" fill="#E6E6E6"/>
<ellipse cx="135.15" cy="157.056" rx="63.1281" ry="82.1816" fill="#E6E6E6"/>
<ellipse cx="94.0788" cy="268.699" rx="63.1281" ry="82.1816" fill="#E6E6E6"/>
<ellipse cx="170.137" cy="387.32" rx="63.1281" ry="82.9569" fill="#E6E6E6"/>
<ellipse cx="366.366" cy="377.241" rx="63.1281" ry="82.1816" fill="#E6E6E6"/>
<ellipse cx="366.366" cy="377.241" rx="63.1281" ry="82.1816" fill="#E6E6E6"/>
<ellipse cx="393.747" cy="250.092" rx="78.3397" ry="100.789" fill="#E6E6E6"/>
<ellipse cx="393.747" cy="250.092" rx="78.3397" ry="100.789" fill="#E6E6E6"/>
<ellipse cx="351.155" cy="152.405" rx="78.3397" ry="100.789" fill="#E6E6E6"/>
<ellipse cx="351.155" cy="152.405" rx="78.3397" ry="100.789" fill="#E6E6E6"/>
<ellipse cx="255.322" cy="250.092" rx="157.44" ry="207.78" fill="#85736F"/>
<ellipse cx="145.798" cy="166.36" rx="57.0435" ry="74.4286" fill="#85736F"/>
<ellipse cx="109.291" cy="267.149" rx="57.0435" ry="74.4286" fill="#85736F"/>
<ellipse cx="177.743" cy="374.14" rx="57.0435" ry="74.4286" fill="#85736F"/>
<ellipse cx="355.719" cy="364.836" rx="57.0435" ry="74.4286" fill="#85736F"/>
<ellipse cx="355.719" cy="364.836" rx="57.0435" ry="74.4286" fill="#85736F"/>
<ellipse cx="380.057" cy="250.092" rx="70.7339" ry="91.4851" fill="#85736F"/>
<ellipse cx="380.057" cy="250.092" rx="70.7339" ry="91.4851" fill="#85736F"/>
<ellipse cx="342.028" cy="161.708" rx="70.7339" ry="91.4851" fill="#85736F"/>
<ellipse cx="342.028" cy="161.708" rx="70.7339" ry="91.4851" fill="#85736F"/>
<path d="M167.833 114.879C173.383 152 176.158 221.281 142.856 201.429C219.45 266.311 191.421 170.763 167.833 114.879Z" fill="#7A6965"/>
<path d="M213.406 393.978C222.921 373.641 205.963 277.143 190.7 255.556L179.347 294.032L147.614 326.11C187.457 332.162 187.835 373.399 213.406 393.978Z" fill="#7A6965"/>
<path d="M333.15 237.139C348.612 196.587 312.337 193.561 308.174 189.929C298.858 193.763 280.225 193.803 280.225 163.298C282.604 179.761 325.618 178.631 346.828 176.009L365.857 222.007C354.955 233.507 333.15 262.559 333.15 286.769C333.15 310.979 360.902 323.084 374.777 326.11C372.993 328.733 355.034 354.192 333.15 367.265C305.796 383.607 293.686 302.304 308.174 294.032C313.317 291.096 317.689 277.69 333.15 237.139Z" fill="#7A6965"/>
<path d="M280.225 124.563C289.541 111.651 308.174 83.6479 308.174 74.9323C298.858 71.5026 276.181 66.7009 260.006 74.9323C243.831 83.1637 266.746 111.449 280.225 124.563Z" fill="#7A6965"/>
</svg>
