<svg width="501" height="501" viewBox="0 0 501 501" fill="none" xmlns="http://www.w3.org/2000/svg">
<g clip-path="url(#clip0_135_506)">
<path d="M290.07 70.8886L342.094 29.4457L349.576 95.5369L350.242 101.414L355.926 99.7798L419.85 81.4004L401.47 145.324L399.836 151.008L405.713 151.674L471.804 159.156L430.361 211.18L426.676 215.807L431.851 218.67L490.048 250.875L431.851 283.08L426.676 285.943L430.361 290.57L471.804 342.594L405.713 350.076L399.836 350.742L401.47 356.426L419.85 420.35L355.926 401.97L350.242 400.336L349.576 406.213L342.094 472.304L290.07 430.861L285.443 427.176L282.58 432.351L250.375 490.548L218.17 432.351L215.307 427.176L210.68 430.861L158.656 472.304L151.174 406.213L150.508 400.336L144.824 401.97L80.9004 420.35L99.2798 356.426L100.914 350.742L95.0369 350.076L28.9457 342.594L70.3886 290.57L74.0739 285.943L68.8987 283.08L10.7017 250.875L68.8987 218.67L74.0739 215.807L70.3886 211.18L28.9457 159.156L95.0369 151.674L100.914 151.008L99.2798 145.324L80.9004 81.4004L144.824 99.7798L150.508 101.414L151.174 95.5369L158.656 29.4457L210.68 70.8886L215.307 74.5739L218.17 69.3987L250.375 11.2017L282.58 69.3987L285.443 74.5739L290.07 70.8886Z" fill="#C52626" stroke="#4A4242" stroke-width="10"/>
</g>
<defs>
<clipPath id="clip0_135_506">
<rect width="500" height="500" fill="white" transform="translate(0.375 0.875)"/>
</clipPath>
</defs>
</svg>
