<svg width="400" height="400" viewBox="0 0 400 400" fill="none" xmlns="http://www.w3.org/2000/svg">
<g clip-path="url(#clip0_113_154)">
<path d="M220.723 13.3328L246.566 50.0185C250.183 55.1533 256.954 56.9676 262.654 54.3293L303.378 35.4802C307.772 33.4464 312.854 36.3807 313.29 41.2028L317.327 85.895C317.893 92.1505 322.849 97.1073 329.105 97.6725L373.797 101.71C378.619 102.146 381.554 107.228 379.52 111.622L360.671 152.346C358.032 158.046 359.847 164.817 364.982 168.434L401.667 194.277C405.625 197.066 405.625 202.934 401.667 205.723L364.982 231.566C359.847 235.183 358.032 241.954 360.671 247.654L379.52 288.378C381.554 292.772 378.619 297.854 373.797 298.29L329.105 302.327C322.849 302.893 317.893 307.849 317.327 314.105L313.29 358.797C312.854 363.619 307.772 366.554 303.378 364.52L262.654 345.671C256.954 343.032 250.183 344.847 246.566 349.982L220.723 386.667C217.934 390.625 212.066 390.625 209.277 386.667L183.434 349.982C179.817 344.847 173.046 343.032 167.346 345.671L126.622 364.52C122.228 366.554 117.146 363.619 116.71 358.797L112.673 314.105C112.107 307.849 107.151 302.893 100.895 302.327L56.2028 298.29C51.3807 297.854 48.4464 292.772 50.4802 288.378L69.3293 247.654C71.9676 241.954 70.1533 235.183 65.0185 231.566L28.3328 205.723C24.3746 202.934 24.3746 197.066 28.3328 194.277L65.0185 168.434C70.1533 164.817 71.9676 158.046 69.3293 152.346L50.4802 111.622C48.4464 107.228 51.3807 102.146 56.2028 101.71L100.895 97.6725C107.151 97.1073 112.107 92.1505 112.673 85.895L116.71 41.2028C117.146 36.3807 122.228 33.4464 126.622 35.4802L167.346 54.3293C173.046 56.9676 179.817 55.1533 183.434 50.0185L209.277 13.3328C212.066 9.37457 217.934 9.37457 220.723 13.3328Z" fill="#978888" stroke="#4A4242" stroke-width="6"/>
<path d="M214.646 44.3286C214.874 44.2424 215.126 44.2424 215.354 44.3286L252.812 58.498C252.874 58.5216 252.939 58.5389 253.005 58.5496L292.529 65.0077C292.77 65.047 292.988 65.1728 293.142 65.3615L318.497 96.3618C318.539 96.4133 318.587 96.4606 318.638 96.5027L349.638 121.858C349.827 122.012 349.953 122.23 349.992 122.471L356.45 161.995C356.461 162.061 356.478 162.126 356.502 162.188L370.671 199.646C370.758 199.874 370.758 200.126 370.671 200.354L356.502 237.812C356.478 237.874 356.461 237.939 356.45 238.005L349.992 277.529C349.953 277.77 349.827 277.988 349.638 278.142L318.638 303.497C318.587 303.539 318.539 303.587 318.497 303.638L293.142 334.638C292.988 334.827 292.77 334.953 292.529 334.992L253.005 341.45C252.939 341.461 252.874 341.478 252.812 341.502L215.354 355.671C215.126 355.758 214.874 355.758 214.646 355.671L177.188 341.502C177.126 341.478 177.061 341.461 176.995 341.45L137.471 334.992C137.23 334.953 137.012 334.827 136.858 334.638L111.503 303.638C111.461 303.587 111.413 303.539 111.362 303.497L80.3615 278.142C80.1728 277.988 80.047 277.77 80.0077 277.529L73.5496 238.005C73.5389 237.939 73.5216 237.874 73.498 237.812L59.3286 200.354C59.2424 200.126 59.2424 199.874 59.3286 199.646L73.498 162.188C73.5216 162.126 73.5389 162.061 73.5496 161.995L80.0077 122.471C80.047 122.23 80.1728 122.012 80.3615 121.858L111.362 96.5027C111.413 96.4606 111.461 96.4133 111.503 96.3618L136.858 65.3615C137.012 65.1728 137.23 65.047 137.471 65.0077L176.995 58.5496C177.061 58.5389 177.126 58.5216 177.188 58.498L214.646 44.3286Z" fill="#411C39"/>
<path d="M214.646 50.3211C214.874 50.2348 215.126 50.2348 215.354 50.3211L251.354 63.939C251.417 63.9626 251.481 63.9799 251.547 63.9906L289.533 70.1974C289.774 70.2367 289.992 70.3625 290.146 70.5512L314.514 100.345C314.556 100.396 314.604 100.444 314.655 100.486L344.449 124.854C344.637 125.008 344.763 125.226 344.803 125.467L351.009 163.453C351.02 163.519 351.037 163.583 351.061 163.646L364.679 199.646C364.765 199.874 364.765 200.126 364.679 200.354L351.061 236.354C351.037 236.417 351.02 236.481 351.009 236.547L344.803 274.533C344.763 274.774 344.637 274.992 344.449 275.146L314.655 299.514C314.604 299.556 314.556 299.604 314.514 299.655L290.146 329.449C289.992 329.637 289.774 329.763 289.533 329.803L251.547 336.009C251.481 336.02 251.417 336.037 251.354 336.061L215.354 349.679C215.126 349.765 214.874 349.765 214.646 349.679L178.646 336.061C178.583 336.037 178.519 336.02 178.453 336.009L140.467 329.803C140.226 329.763 140.008 329.637 139.854 329.449L115.486 299.655C115.444 299.604 115.396 299.556 115.345 299.514L85.5512 275.146C85.3625 274.992 85.2367 274.774 85.1974 274.533L78.9906 236.547C78.9799 236.481 78.9626 236.417 78.939 236.354L65.3211 200.354C65.2348 200.126 65.2348 199.874 65.3211 199.646L78.939 163.646C78.9626 163.583 78.9799 163.519 78.9906 163.453L85.1974 125.467C85.2367 125.226 85.3625 125.008 85.5512 124.854L115.345 100.486C115.396 100.444 115.444 100.396 115.486 100.345L139.854 70.5512C140.008 70.3625 140.226 70.2367 140.467 70.1974L178.453 63.9906C178.519 63.9799 178.583 63.9626 178.646 63.939L214.646 50.3211Z" fill="#A71313"/>
<path d="M214.611 76.5689C214.86 76.4638 215.14 76.4638 215.389 76.5689L244.622 88.9188C244.707 88.9546 244.796 88.9786 244.887 88.9899L276.379 92.911C276.647 92.9443 276.89 93.0847 277.053 93.3001L296.194 118.612C296.249 118.685 296.315 118.751 296.388 118.806L321.7 137.947C321.915 138.11 322.056 138.353 322.089 138.621L326.01 170.113C326.021 170.204 326.045 170.293 326.081 170.378L338.431 199.611C338.536 199.86 338.536 200.14 338.431 200.389L326.081 229.622C326.045 229.707 326.021 229.796 326.01 229.887L322.089 261.379C322.056 261.647 321.915 261.89 321.7 262.053L296.388 281.194C296.315 281.249 296.249 281.315 296.194 281.388L277.053 306.7C276.89 306.915 276.647 307.056 276.379 307.089L244.887 311.01C244.796 311.021 244.707 311.045 244.622 311.081L215.389 323.431C215.14 323.536 214.86 323.536 214.611 323.431L185.378 311.081C185.293 311.045 185.204 311.021 185.113 311.01L153.621 307.089C153.353 307.056 153.11 306.915 152.947 306.7L133.806 281.388C133.751 281.315 133.685 281.249 133.612 281.194L108.3 262.053C108.085 261.89 107.944 261.647 107.911 261.379L103.99 229.887C103.979 229.796 103.955 229.707 103.919 229.622L91.5689 200.389C91.4638 200.14 91.4638 199.86 91.5689 199.611L103.919 170.378C103.955 170.293 103.979 170.204 103.99 170.113L107.911 138.621C107.944 138.353 108.085 138.11 108.3 137.947L133.612 118.806C133.685 118.751 133.751 118.685 133.806 118.612L152.947 93.3001C153.11 93.0847 153.353 92.9443 153.621 92.911L185.113 88.9899C185.204 88.9786 185.293 88.9546 185.378 88.9188L214.611 76.5689Z" fill="#C52626"/>
<path d="M214.584 119.291C214.848 119.171 215.152 119.171 215.416 119.291L243.172 131.986L271.776 142.636C272.048 142.738 272.262 142.952 272.364 143.224L283.014 171.828L295.709 199.584C295.829 199.848 295.829 200.152 295.709 200.416L283.014 228.172L272.364 256.776C272.262 257.048 272.048 257.262 271.776 257.364L243.172 268.014L215.416 280.709C215.152 280.829 214.848 280.829 214.584 280.709L186.828 268.014L158.224 257.364C157.952 257.262 157.738 257.048 157.636 256.776L146.986 228.172L134.291 200.416C134.171 200.152 134.171 199.848 134.291 199.584L146.986 171.828L157.636 143.224C157.738 142.952 157.952 142.738 158.224 142.636L186.828 131.986L214.584 119.291Z" fill="#EF4848"/>
<path fill-rule="evenodd" clip-rule="evenodd" d="M156.065 259.492C163.379 266.805 175.236 266.805 182.549 259.492L215.279 226.762L248.008 259.492C255.321 266.805 267.178 266.805 274.492 259.492C281.805 252.179 281.805 240.322 274.492 233.008L241.762 200.279L275.241 166.8C282.554 159.487 282.554 147.63 275.241 140.316C267.928 133.003 256.071 133.003 248.757 140.316L215.279 173.795L181.8 140.316C174.487 133.003 162.63 133.003 155.316 140.316C148.003 147.63 148.003 159.487 155.316 166.8L188.795 200.279L156.065 233.008C148.752 240.322 148.752 252.179 156.065 259.492Z" fill="#A71313"/>
<path fill-rule="evenodd" clip-rule="evenodd" d="M167.969 246.065C173.111 251.207 181.447 251.207 186.588 246.065L214.517 218.136L242.446 246.065C247.587 251.207 255.923 251.207 261.065 246.065C266.206 240.923 266.206 232.587 261.065 227.446L233.136 199.517L261.065 171.589C266.206 166.447 266.206 158.111 261.065 152.969C255.923 147.828 247.587 147.828 242.446 152.969L214.517 180.898L186.588 152.969C181.447 147.828 173.111 147.828 167.969 152.969C162.828 158.111 162.828 166.447 167.969 171.589L195.898 199.517L167.969 227.446C162.828 232.587 162.828 240.924 167.969 246.065Z" fill="#C52626"/>
</g>
<defs>
<clipPath id="clip0_113_154">
<rect width="400" height="400" fill="white"/>
</clipPath>
</defs>
</svg>
