<svg width="400" height="400" viewBox="0 0 400 400" fill="none" xmlns="http://www.w3.org/2000/svg">
<g clip-path="url(#clip0_28_13)">
<path d="M194.277 13.3328C197.066 9.37457 202.934 9.37457 205.723 13.3328L231.566 50.0185C235.183 55.1533 241.954 56.9676 247.654 54.3293L288.378 35.4802C292.772 33.4464 297.854 36.3807 298.29 41.2028L302.327 85.895C302.893 92.1505 307.849 97.1073 314.105 97.6725L358.797 101.71C363.619 102.146 366.554 107.228 364.52 111.622L345.671 152.346C343.032 158.046 344.847 164.817 349.982 168.434L386.667 194.277C390.625 197.066 390.625 202.934 386.667 205.723L349.982 231.566C344.847 235.183 343.032 241.954 345.671 247.654L364.52 288.378C366.554 292.772 363.619 297.854 358.797 298.29L314.105 302.327C307.849 302.893 302.893 307.849 302.327 314.105L298.29 358.797C297.854 363.619 292.772 366.554 288.378 364.52L247.654 345.671C241.954 343.032 235.183 344.847 231.566 349.982L205.723 386.667C202.934 390.625 197.066 390.625 194.277 386.667L168.434 349.982C164.817 344.847 158.046 343.032 152.346 345.671L111.622 364.52C107.228 366.554 102.146 363.619 101.71 358.797L97.6725 314.105C97.1073 307.849 92.1505 302.893 85.895 302.327L41.2028 298.29C36.3807 297.854 33.4464 292.772 35.4802 288.378L54.3293 247.654C56.9676 241.954 55.1533 235.183 50.0185 231.566L13.3328 205.723C9.37457 202.934 9.37457 197.066 13.3328 194.277L50.0185 168.434C55.1533 164.817 56.9676 158.046 54.3293 152.346L35.4802 111.622C33.4464 107.228 36.3807 102.146 41.2028 101.71L85.895 97.6725C92.1505 97.1073 97.1073 92.1505 97.6725 85.895L101.71 41.2028C102.146 36.3807 107.228 33.4464 111.622 35.4802L152.346 54.3293C158.046 56.9676 164.817 55.1533 168.434 50.0185L194.277 13.3328Z" fill="#978888" stroke="#4A4242" stroke-width="6"/>
<path d="M199.646 44.3285C199.874 44.2423 200.126 44.2423 200.354 44.3285L237.812 58.498C237.875 58.5215 237.939 58.5388 238.005 58.5496L277.529 65.0077C277.77 65.047 277.988 65.1728 278.142 65.3615L303.497 96.3617C303.539 96.4133 303.587 96.4605 303.638 96.5027L334.639 121.858C334.827 122.012 334.953 122.23 334.992 122.471L341.45 161.995C341.461 162.061 341.478 162.125 341.502 162.188L355.671 199.646C355.758 199.874 355.758 200.126 355.671 200.354L341.502 237.812C341.478 237.874 341.461 237.939 341.45 238.005L334.992 277.529C334.953 277.77 334.827 277.988 334.639 278.142L303.638 303.497C303.587 303.539 303.539 303.587 303.497 303.638L278.142 334.638C277.988 334.827 277.77 334.953 277.529 334.992L238.005 341.45C237.939 341.461 237.875 341.478 237.812 341.502L200.354 355.671C200.126 355.758 199.874 355.758 199.646 355.671L162.188 341.502C162.126 341.478 162.061 341.461 161.995 341.45L122.471 334.992C122.23 334.953 122.012 334.827 121.858 334.638L96.5028 303.638C96.4606 303.587 96.4134 303.539 96.3618 303.497L65.3616 278.142C65.1729 277.988 65.0471 277.77 65.0078 277.529L58.5497 238.005C58.5389 237.939 58.5217 237.874 58.4981 237.812L44.3287 200.354C44.2424 200.126 44.2424 199.874 44.3287 199.646L58.4981 162.188C58.5217 162.125 58.5389 162.061 58.5497 161.995L65.0078 122.471C65.0471 122.23 65.1729 122.012 65.3616 121.858L96.3618 96.5027C96.4134 96.4605 96.4606 96.4133 96.5028 96.3617L121.858 65.3615C122.012 65.1728 122.23 65.047 122.471 65.0077L161.995 58.5496C162.061 58.5388 162.126 58.5215 162.188 58.498L199.646 44.3285Z" fill="#411C39"/>
<path d="M199.646 50.3211C199.874 50.2348 200.126 50.2348 200.354 50.3211L236.354 63.939C236.417 63.9626 236.481 63.9799 236.547 63.9906L274.533 70.1974C274.774 70.2367 274.992 70.3625 275.146 70.5512L299.514 100.345C299.556 100.396 299.604 100.444 299.655 100.486L329.449 124.854C329.637 125.008 329.763 125.226 329.803 125.467L336.009 163.453C336.02 163.519 336.037 163.583 336.061 163.646L349.679 199.646C349.765 199.874 349.765 200.126 349.679 200.354L336.061 236.354C336.037 236.417 336.02 236.481 336.009 236.547L329.803 274.533C329.763 274.774 329.637 274.992 329.449 275.146L299.655 299.514C299.604 299.556 299.556 299.604 299.514 299.655L275.146 329.449C274.992 329.637 274.774 329.763 274.533 329.803L236.547 336.009C236.481 336.02 236.417 336.037 236.354 336.061L200.354 349.679C200.126 349.765 199.874 349.765 199.646 349.679L163.646 336.061C163.583 336.037 163.519 336.02 163.453 336.009L125.467 329.803C125.226 329.763 125.008 329.637 124.854 329.449L100.486 299.655C100.444 299.604 100.396 299.556 100.345 299.514L70.5512 275.146C70.3625 274.992 70.2367 274.774 70.1974 274.533L63.9906 236.547C63.9799 236.481 63.9626 236.417 63.939 236.354L50.3211 200.354C50.2348 200.126 50.2348 199.874 50.3211 199.646L63.939 163.646C63.9626 163.583 63.9799 163.519 63.9906 163.453L70.1974 125.467C70.2367 125.226 70.3625 125.008 70.5512 124.854L100.345 100.486C100.396 100.444 100.444 100.396 100.486 100.345L124.854 70.5512C125.008 70.3625 125.226 70.2367 125.467 70.1974L163.453 63.9906C163.519 63.9799 163.583 63.9626 163.646 63.939L199.646 50.3211Z" fill="#A71313"/>
<path d="M199.611 76.569C199.86 76.4638 200.14 76.4638 200.389 76.569L229.622 88.9188C229.707 88.9547 229.796 88.9786 229.887 88.99L261.379 92.911C261.647 92.9444 261.89 93.0847 262.053 93.3002L281.194 118.612C281.249 118.685 281.315 118.751 281.388 118.806L306.7 137.947C306.915 138.11 307.056 138.354 307.089 138.622L311.01 170.113C311.021 170.204 311.045 170.293 311.081 170.378L323.431 199.611C323.536 199.86 323.536 200.14 323.431 200.389L311.081 229.622C311.045 229.707 311.021 229.796 311.01 229.887L307.089 261.379C307.056 261.647 306.915 261.89 306.7 262.053L281.388 281.194C281.315 281.249 281.249 281.315 281.194 281.388L262.053 306.7C261.89 306.915 261.647 307.056 261.379 307.089L229.887 311.01C229.796 311.021 229.707 311.045 229.622 311.081L200.389 323.431C200.14 323.536 199.86 323.536 199.611 323.431L170.378 311.081C170.293 311.045 170.204 311.021 170.113 311.01L138.622 307.089C138.354 307.056 138.11 306.915 137.947 306.7L118.806 281.388C118.751 281.315 118.685 281.249 118.612 281.194L93.3002 262.053C93.0847 261.89 92.9444 261.647 92.911 261.379L88.99 229.887C88.9786 229.796 88.9547 229.707 88.9188 229.622L76.569 200.389C76.4638 200.14 76.4638 199.86 76.569 199.611L88.9188 170.378C88.9547 170.293 88.9786 170.204 88.99 170.113L92.911 138.622C92.9444 138.354 93.0847 138.11 93.3002 137.947L118.612 118.806C118.685 118.751 118.751 118.685 118.806 118.612L137.947 93.3002C138.11 93.0847 138.354 92.9444 138.622 92.911L170.113 88.99C170.204 88.9786 170.293 88.9547 170.378 88.9188L199.611 76.569Z" fill="#C52626"/>
<path d="M199.584 119.291C199.848 119.17 200.152 119.17 200.416 119.291L228.172 131.986L256.775 142.636C257.048 142.738 257.262 142.952 257.364 143.224L268.014 171.828L280.709 199.584C280.829 199.848 280.829 200.152 280.709 200.416L268.014 228.172L257.364 256.775C257.262 257.048 257.048 257.262 256.775 257.364L228.172 268.014L200.416 280.709C200.152 280.829 199.848 280.829 199.584 280.709L171.828 268.014L143.224 257.364C142.952 257.262 142.738 257.048 142.636 256.775L131.986 228.172L119.291 200.416C119.17 200.152 119.17 199.848 119.291 199.584L131.986 171.828L142.636 143.224C142.738 142.952 142.952 142.738 143.224 142.636L171.828 131.986L199.584 119.291Z" fill="#EF4848"/>
</g>
<defs>
<clipPath id="clip0_28_13">
<rect width="400" height="400" fill="white"/>
</clipPath>
</defs>
</svg>
