<svg width="400" height="400" viewBox="0 0 400 400" fill="none" xmlns="http://www.w3.org/2000/svg">
<path d="M210.503 314.158L238.892 299.731L226.791 293.681V289.027L231.911 280.185L29 72.6202L92.2932 18.1694L277.984 244.815L287.292 238.765L297.065 240.161L295.204 259.242L317.543 235.507L335.228 238.765L352.912 254.123L356.636 281.116L352.912 295.077L343.605 292.75L340.347 285.304C339.261 280.34 337.089 272.739 336.624 271.342C336.158 269.946 327.781 266.688 325.92 266.688C324.43 266.688 315.371 279.099 311.958 285.304L309.631 299.731L355.239 348.597L367.34 352.786L370.132 358.836L365.013 378.382L360.359 387.69L355.239 393.74L330.574 387.69L324.058 384.898V372.332L278.915 323.932L262.161 320.208C257.662 321.605 248.479 324.583 247.734 325.328C246.989 326.072 247.424 333.395 247.734 336.963L265.884 348.597L270.073 363.955L245.407 360.697L227.722 355.113L212.83 333.705L210.503 314.158Z" fill="black" fill-opacity="0.5"/>
<path d="M279.092 320.923C272.755 314.21 273.061 303.631 279.774 297.294C286.487 290.958 297.066 291.263 303.402 297.976L354.979 352.619C361.315 359.332 361.01 369.91 354.297 376.247C347.584 382.583 337.005 382.278 330.669 375.565L279.092 320.923Z" fill="black" fill-opacity="0.5"/>
<path d="M230.028 291.021L231.89 285.436L284.944 244.017H292.856V265.89L318.939 238.897L334.297 242.155L349.19 255.186L353.378 277.525L351.051 291.021L344.07 288.694L341.976 278.688L337.089 266.355L323.593 262.965L308.214 286.367L305.442 300.662L294.717 297.537L284.944 299.863L279.825 309.637L278.894 320.341L263.071 317.083L244.92 323.931V339.289L263.071 351.389L265.863 360.232L248.644 357.44L229.563 351.389L217.462 333.239L215.601 315.554L248.644 297.537L237.474 293.348L230.028 291.021Z" fill="black" fill-opacity="0.5"/>
<path d="M326.08 381.297V369.427L351.516 351.621L366.778 356.709V364.339C366.778 367.731 364.234 371.97 362.539 376.21C360.843 380.449 357.451 383.841 356.604 387.232C355.925 389.945 350.103 388.363 347.277 387.232L329.472 383.841L326.08 381.297Z" fill="black" fill-opacity="0.5"/>
<path d="M290.175 323.118L288.733 303.597L308.155 309.786L344.113 348.413L343.881 366.217L327.805 362.409L290.175 323.118Z" fill="black" fill-opacity="0.5"/>
<path d="M35.9808 73.0856L245.641 287.653L270.256 290.766L284.158 278.316L279.634 252.682L90.897 24.6848L35.9808 73.0856Z" fill="black" fill-opacity="0.5"/>
<path d="M273.119 278.958C269.747 278.033 252.081 279.158 249.384 278.418L46.2195 72.1548L69.4891 51.2122L90.4313 31.6658L275.257 259.5L273.119 278.958Z" fill="black" fill-opacity="0.5"/>
<path d="M273.119 278.958C269.747 278.033 252.081 279.158 249.384 278.418L46.2195 72.1548L79.7277 62.847L90.4313 31.6658L275.257 259.5L273.119 278.958Z" fill="black" fill-opacity="0.5"/>
<path d="M90.4316 31.6658L79.2624 63.3124L271.297 279.741L273.717 261.168L90.4316 31.6658Z" fill="black" fill-opacity="0.5"/>
<path d="M212.364 302.989L240.753 288.562L228.653 282.512V277.858L233.772 269.015L30.8616 61.4508L94.1548 7L279.846 233.646L289.154 227.596L298.927 228.992L297.065 248.073L319.404 224.338L337.089 227.596L354.774 242.953L358.497 269.946L354.774 283.908L345.466 281.581L342.208 274.135C341.122 269.17 338.951 261.569 338.485 260.173C338.02 258.777 329.643 255.519 327.781 255.519C326.292 255.519 317.232 267.929 313.82 274.135L311.493 288.562L357.101 337.428L369.201 341.616L371.993 347.666L366.874 367.213L362.22 376.521L357.101 382.571L332.435 376.521L325.92 373.728V361.163L280.777 312.762L264.023 309.039C259.524 310.435 250.34 313.414 249.596 314.158C248.851 314.903 249.285 322.225 249.596 325.793L267.746 337.428L271.934 352.786L247.269 349.528L229.584 343.943L214.691 322.535L212.364 302.989Z" fill="#300303"/>
<path d="M280.953 309.753C274.617 303.04 274.922 292.461 281.635 286.125C288.348 279.788 298.927 280.094 305.264 286.807L356.84 341.449C363.177 348.162 362.872 358.741 356.159 365.077C349.446 371.414 338.867 371.109 332.53 364.396L280.953 309.753Z" fill="#460A0A"/>
<path d="M231.89 279.852L233.751 274.267L286.806 232.847H294.718V254.721L320.801 227.728L336.159 230.986L351.051 244.017L355.24 266.355L352.913 279.852L345.932 277.525L343.838 267.519L338.951 255.186L325.455 251.796L310.076 275.198L307.304 289.493L296.579 286.367L286.806 288.694L281.687 298.467L280.756 309.171L264.933 305.914L246.782 312.762V328.12L264.933 340.22L267.725 349.063L250.505 346.27L231.424 340.22L219.324 322.07L217.463 304.385L250.505 286.367L239.336 282.179L231.89 279.852Z" fill="#460A0A"/>
<path d="M327.942 370.128V358.257L353.378 340.452L368.64 345.539V353.17C368.64 356.562 366.096 360.801 364.4 365.04C362.705 369.28 359.313 372.671 358.465 376.063C357.787 378.776 351.965 377.193 349.139 376.063L331.333 372.671L327.942 370.128Z" fill="#460A0A"/>
<path d="M292.036 311.949L290.595 292.427L310.017 298.616L345.975 337.243L345.742 355.047L329.667 351.24L292.036 311.949Z" fill="#580505"/>
<path d="M37.8426 61.9161L247.503 276.484L272.118 279.597L286.02 267.147L281.495 241.512L92.7588 13.5154L37.8426 61.9161Z" fill="#761616"/>
<path d="M274.98 267.788C271.609 266.864 253.943 267.989 251.246 267.249L48.0811 60.9854L71.3506 40.0428L92.2929 20.4964L277.119 248.331L274.98 267.788Z" fill="#A71313"/>
<path d="M274.98 267.788C271.609 266.864 253.943 267.989 251.246 267.249L48.0811 60.9854L81.5893 51.6776L92.2929 20.4964L277.119 248.331L274.98 267.788Z" fill="#C52626"/>
<path d="M92.2932 20.4963L81.124 52.1429L273.158 268.572L275.578 249.999L92.2932 20.4963Z" fill="#EF4848"/>
</svg>
