<svg width="1001" height="1001" viewBox="0 0 1001 1001" fill="none" xmlns="http://www.w3.org/2000/svg">
<path d="M531.662 757.722L602.634 721.654L572.384 706.529V694.894L585.182 672.788L77.9053 153.877L236.138 17.75L700.366 584.364L723.636 569.239L748.069 572.729L743.415 620.432L799.262 561.094L843.474 569.239L887.686 607.634L896.994 675.115L887.686 710.02L864.417 704.202L856.272 685.587C853.557 673.176 848.128 654.173 846.964 650.682C845.801 647.192 824.858 639.047 820.204 639.047C816.481 639.047 793.832 670.074 785.3 685.587L779.483 721.654L893.504 843.82L923.754 854.291L930.735 869.416L917.937 918.282L906.302 941.552L893.504 956.677L831.839 941.552L815.551 934.571V903.157L702.693 782.155L660.808 772.847C649.561 776.338 626.602 783.784 624.74 785.646C622.879 787.507 623.964 805.813 624.74 814.733L670.116 843.82L680.587 882.214L618.923 874.07L574.711 860.108L537.479 806.588L531.662 757.722Z" fill="#300303"/>
<path d="M703.135 774.633C687.294 757.85 688.057 731.403 704.84 715.562V715.562C721.622 699.721 748.069 700.484 763.91 717.267L892.853 853.873C908.694 870.655 907.931 897.102 891.148 912.943V912.943C874.365 928.785 847.919 928.021 832.077 911.239L703.135 774.633Z" fill="#460A0A"/>
<path d="M580.476 699.879L585.13 685.918L717.766 582.368H737.546V637.052L802.754 569.57L841.149 577.714L878.38 610.292L888.851 666.139L883.034 699.879L865.582 694.062L860.346 669.047L848.129 638.215L814.389 629.74L775.94 688.245L769.012 723.982L742.2 716.168L717.766 721.986L704.968 746.419L702.641 773.179L663.083 765.034L617.707 782.155V820.55L663.083 850.8L670.064 872.906L627.015 865.926L579.313 850.8L549.062 805.425L544.408 761.213L627.015 716.168L599.092 705.697L580.476 699.879Z" fill="#460A0A"/>
<path d="M820.605 925.569V895.894L884.196 851.38L922.35 864.098V883.175C922.35 891.654 915.991 902.253 911.752 912.851C907.513 923.449 899.034 931.928 896.914 940.407C895.218 947.19 880.663 943.233 873.598 940.407L829.084 931.928L820.605 925.569Z" fill="#460A0A"/>
<path d="M730.842 780.122L727.239 731.318L775.794 746.791L865.688 843.358L865.107 887.868L824.918 878.35L730.842 780.122Z" fill="#580505"/>
<path d="M95.3581 155.04L619.509 691.46L681.045 699.241L715.802 668.117L704.49 604.031L232.649 34.0385L95.3581 155.04Z" fill="#761616"/>
<path d="M688.202 669.721C679.773 667.409 635.609 670.222 628.866 668.372L120.954 152.713L179.128 100.357L231.483 51.4909L693.548 621.077L688.202 669.721Z" fill="#A71313"/>
<path d="M688.202 669.721C679.773 667.409 635.609 670.222 628.866 668.372L120.954 152.713L204.724 129.444L231.483 51.4909L693.548 621.077L688.202 669.721Z" fill="#C52626"/>
<path d="M231.484 51.4908L203.561 130.607L683.647 671.68L689.696 625.247L231.484 51.4908Z" fill="#EF4848"/>
</svg>
