<svg width="501" height="501" viewBox="0 0 501 501" fill="none" xmlns="http://www.w3.org/2000/svg">
<path d="M249.921 50.5466C250.214 50.436 250.536 50.436 250.829 50.5466L298.913 68.7355C298.993 68.7657 299.075 68.7879 299.16 68.8017L349.896 77.0917C350.205 77.1421 350.484 77.3034 350.682 77.5453L383.23 117.34C383.284 117.406 383.344 117.466 383.411 117.52L423.205 150.068C423.447 150.266 423.608 150.545 423.658 150.854L431.948 201.59C431.962 201.675 431.984 201.757 432.014 201.837L450.203 249.921C450.314 250.214 450.314 250.536 450.203 250.829L432.014 298.913C431.984 298.993 431.962 299.075 431.948 299.16L423.658 349.896C423.608 350.205 423.447 350.484 423.205 350.682L383.411 383.23C383.344 383.284 383.284 383.344 383.23 383.411L350.682 423.205C350.484 423.447 350.205 423.608 349.896 423.658L299.16 431.948C299.075 431.962 298.993 431.984 298.913 432.014L250.829 450.203C250.536 450.314 250.214 450.314 249.921 450.203L201.837 432.014C201.757 431.984 201.675 431.962 201.59 431.948L150.854 423.658C150.545 423.608 150.266 423.447 150.068 423.205L117.52 383.411C117.466 383.344 117.406 383.284 117.34 383.23L77.5453 350.682C77.3034 350.484 77.1421 350.205 77.0917 349.896L68.8017 299.16C68.7879 299.075 68.7657 298.993 68.7355 298.913L50.5466 250.829C50.436 250.536 50.436 250.214 50.5466 249.921L68.7355 201.837C68.7657 201.757 68.7879 201.675 68.8017 201.59L77.0917 150.854C77.1421 150.545 77.3034 150.266 77.5453 150.068L117.34 117.52C117.406 117.466 117.466 117.406 117.52 117.34L150.068 77.5453C150.266 77.3034 150.545 77.1421 150.854 77.0917L201.59 68.8017C201.675 68.7879 201.757 68.7657 201.837 68.7355L249.921 50.5466Z" fill="#4A4242"/>
<path d="M249.933 63.0423C250.218 62.9345 250.532 62.9345 250.817 63.0423L295.875 80.0863C295.953 80.1157 296.033 80.1373 296.115 80.1508L343.658 87.919C343.959 87.9681 344.231 88.1254 344.424 88.3612L374.923 125.651C374.976 125.715 375.035 125.774 375.099 125.827L412.389 156.326C412.625 156.519 412.782 156.791 412.831 157.092L420.599 204.635C420.613 204.717 420.634 204.797 420.664 204.875L437.708 249.933C437.816 250.218 437.816 250.532 437.708 250.817L420.664 295.875C420.634 295.953 420.613 296.033 420.599 296.115L412.831 343.658C412.782 343.959 412.625 344.231 412.389 344.424L375.099 374.923C375.035 374.976 374.976 375.035 374.923 375.099L344.424 412.389C344.231 412.625 343.959 412.782 343.658 412.831L296.115 420.599C296.033 420.613 295.953 420.634 295.875 420.664L250.817 437.708C250.532 437.816 250.218 437.816 249.933 437.708L204.875 420.664C204.797 420.634 204.717 420.613 204.635 420.599L157.092 412.831C156.791 412.782 156.519 412.625 156.326 412.389L125.827 375.099C125.774 375.035 125.715 374.976 125.651 374.923L88.3612 344.424C88.1254 344.231 87.9681 343.959 87.919 343.658L80.1508 296.115C80.1373 296.033 80.1157 295.953 80.0863 295.875L63.0423 250.817C62.9345 250.532 62.9345 250.218 63.0423 249.933L80.0863 204.875C80.1157 204.797 80.1373 204.717 80.1508 204.635L87.919 157.092C87.9681 156.791 88.1254 156.519 88.3612 156.326L125.651 125.827C125.715 125.774 125.774 125.715 125.827 125.651L156.326 88.3612C156.519 88.1254 156.791 87.9681 157.092 87.919L204.635 80.1508C204.717 80.1373 204.797 80.1157 204.875 80.0863L249.933 63.0423Z" fill="#A71313"/>
<path d="M249.889 95.893C250.2 95.7616 250.55 95.7616 250.861 95.893L287.449 111.35C287.555 111.395 287.666 111.425 287.781 111.439L327.195 116.346C327.53 116.388 327.834 116.564 328.037 116.833L351.994 148.513C352.064 148.604 352.146 148.686 352.237 148.756L383.917 172.713C384.186 172.916 384.362 173.22 384.404 173.555L389.311 212.969C389.325 213.084 389.355 213.195 389.4 213.301L404.857 249.889C404.988 250.2 404.988 250.55 404.857 250.861L389.4 287.449C389.355 287.555 389.325 287.666 389.311 287.781L384.404 327.195C384.362 327.53 384.186 327.834 383.917 328.037L352.237 351.994C352.146 352.064 352.064 352.146 351.994 352.237L328.037 383.917C327.834 384.186 327.53 384.362 327.195 384.404L287.781 389.311C287.666 389.325 287.555 389.355 287.449 389.4L250.861 404.857C250.55 404.988 250.2 404.988 249.889 404.857L213.301 389.4C213.195 389.355 213.084 389.325 212.969 389.311L173.555 384.404C173.22 384.362 172.916 384.186 172.713 383.917L148.756 352.237C148.686 352.146 148.604 352.064 148.513 351.994L116.833 328.037C116.564 327.834 116.388 327.53 116.346 327.195L111.439 287.781C111.425 287.666 111.395 287.555 111.35 287.449L95.893 250.861C95.7616 250.55 95.7616 250.2 95.893 249.889L111.35 213.301C111.395 213.195 111.425 213.084 111.439 212.969L116.346 173.555C116.388 173.22 116.564 172.916 116.833 172.713L148.513 148.756C148.604 148.686 148.686 148.604 148.756 148.513L172.713 116.833C172.916 116.564 173.22 116.388 173.555 116.346L212.969 111.439C213.084 111.425 213.195 111.395 213.301 111.35L249.889 95.893Z" fill="#C52626"/>
<path d="M249.855 149.363C250.185 149.212 250.565 149.212 250.895 149.363L285.634 165.251L321.434 178.581C321.774 178.708 322.042 178.976 322.169 179.316L335.499 215.116L351.387 249.855C351.538 250.185 351.538 250.565 351.387 250.895L335.499 285.634L322.169 321.434C322.042 321.774 321.774 322.042 321.434 322.169L285.634 335.499L250.895 351.387C250.565 351.538 250.185 351.538 249.855 351.387L215.116 335.499L179.316 322.169C178.976 322.042 178.708 321.774 178.581 321.434L165.251 285.634L149.363 250.895C149.212 250.565 149.212 250.185 149.363 249.855L165.251 215.116L178.581 179.316C178.708 178.976 178.976 178.708 179.316 178.581L215.116 165.251L249.855 149.363Z" fill="#EF4848"/>
<path fill-rule="evenodd" clip-rule="evenodd" d="M176.01 183.51C166.858 192.663 166.858 207.503 176.01 216.656L217.911 258.557L176.948 299.52C167.795 308.673 167.795 323.513 176.948 332.666C186.101 341.819 200.941 341.819 210.094 332.666L251.057 291.702L292.02 332.666C301.173 341.819 316.013 341.819 325.166 332.666C334.319 323.513 334.319 308.673 325.166 299.52L284.202 258.557L326.103 216.656C335.256 207.503 335.256 192.663 326.103 183.51C316.95 174.357 302.111 174.357 292.958 183.51L251.057 225.411L209.156 183.51C200.003 174.357 185.163 174.357 176.01 183.51Z" fill="#A71313"/>
<path fill-rule="evenodd" clip-rule="evenodd" d="M191.847 199.346C185.412 205.781 185.412 216.214 191.847 222.649L226.801 257.604L191.846 292.558C185.412 298.993 185.412 309.426 191.846 315.861C198.281 322.296 208.715 322.296 215.149 315.861L250.104 280.907L285.059 315.861C291.493 322.296 301.927 322.296 308.361 315.861C314.796 309.426 314.796 298.993 308.361 292.558L273.407 257.604L308.361 222.649C314.796 216.214 314.796 205.781 308.361 199.346C301.926 192.911 291.493 192.911 285.058 199.346L250.104 234.301L215.15 199.346C208.715 192.911 198.282 192.911 191.847 199.346Z" fill="#C52626"/>
</svg>
