<svg width="501" height="501" viewBox="0 0 501 501" fill="none" xmlns="http://www.w3.org/2000/svg">
<path d="M265.581 379.611L301.067 361.577L285.942 354.015V348.197L292.341 337.144L38.7026 77.6885L117.819 9.625L349.933 292.932L361.568 285.369L373.784 287.115L371.457 310.966L399.381 281.297L421.487 285.369L443.593 304.567L448.247 338.308L443.593 355.76L431.958 352.851L427.886 343.543C426.529 337.338 423.814 327.836 423.232 326.091C422.651 324.346 412.179 320.274 409.852 320.274C407.991 320.274 396.666 335.787 392.4 343.543L389.491 361.577L446.502 422.66L461.627 427.895L465.117 435.458L458.718 459.891L452.901 471.526L446.502 479.089L415.67 471.526L407.525 468.035V452.329L351.097 391.828L330.154 387.174C324.53 388.919 313.051 392.642 312.12 393.573C311.189 394.504 311.732 403.656 312.12 408.116L334.808 422.66L340.044 441.857L309.211 437.785L287.105 430.804L268.49 404.044L265.581 379.611Z" fill="#300303"/>
<path d="M351.318 388.067C343.397 379.675 343.779 366.452 352.17 358.531V358.531C360.562 350.611 373.785 350.992 381.706 359.384L446.177 427.686C454.097 436.078 453.716 449.301 445.325 457.222V457.222C436.933 465.142 423.71 464.761 415.789 456.369L351.318 388.067Z" fill="#460A0A"/>
<path d="M289.988 350.69L292.315 343.709L358.633 291.934H368.523V319.276L401.127 285.535L420.324 289.607L438.94 305.896L444.176 333.819L441.267 350.69L432.541 347.781L429.923 335.274L423.815 319.858L406.944 315.62L387.72 344.872L384.256 362.741L370.85 358.834L358.633 361.743L352.234 373.959L351.071 387.339L331.292 383.267L308.604 391.828V411.025L331.292 426.15L334.782 437.203L313.258 433.713L289.406 426.15L274.281 403.462L271.954 381.356L313.258 358.834L299.296 353.598L289.988 350.69Z" fill="#460A0A"/>
<path d="M410.053 463.535V448.697L441.848 426.44L460.925 432.799V442.338C460.925 446.577 457.746 451.876 455.626 457.176C453.506 462.475 449.267 466.714 448.207 470.953C447.359 474.345 440.082 472.367 436.549 470.953L414.292 466.714L410.053 463.535Z" fill="#460A0A"/>
<path d="M365.171 390.811L363.369 366.409L387.647 374.145L432.594 422.429L432.303 444.684L412.209 439.925L365.171 390.811Z" fill="#580505"/>
<path d="M47.429 78.2702L309.504 346.48L340.273 350.371L357.651 334.809L351.995 302.766L116.074 17.7692L47.429 78.2702Z" fill="#761616"/>
<path d="M343.851 335.61C339.637 334.454 317.554 335.861 314.183 334.936L60.227 77.1067L89.314 50.9284L115.492 26.4954L346.524 311.288L343.851 335.61Z" fill="#A71313"/>
<path d="M343.851 335.61C339.637 334.454 317.554 335.861 314.183 334.936L60.227 77.1067L102.112 65.4719L115.492 26.4954L346.524 311.288L343.851 335.61Z" fill="#C52626"/>
<path d="M115.492 26.4955L101.531 66.0537L341.573 336.59L344.598 313.373L115.492 26.4955Z" fill="#EF4848"/>
</svg>
