<svg width="1001" height="1001" viewBox="0 0 1001 1001" fill="none" xmlns="http://www.w3.org/2000/svg">
<path d="M499.343 100.593C499.927 100.372 500.573 100.372 501.157 100.593L597.326 136.971C597.486 137.031 597.651 137.076 597.819 137.103L699.293 153.683C699.91 153.784 700.468 154.107 700.864 154.591L765.96 234.179C766.068 234.311 766.189 234.432 766.321 234.54L845.909 299.636C846.393 300.032 846.716 300.59 846.817 301.207L863.397 402.681C863.424 402.849 863.469 403.014 863.529 403.174L899.907 499.343C900.128 499.927 900.128 500.573 899.907 501.157L863.529 597.326C863.469 597.486 863.424 597.651 863.397 597.819L846.817 699.293C846.716 699.91 846.393 700.468 845.909 700.864L766.321 765.96C766.189 766.068 766.068 766.189 765.96 766.321L700.864 845.909C700.468 846.393 699.91 846.716 699.293 846.817L597.819 863.397C597.651 863.424 597.486 863.469 597.326 863.529L501.157 899.907C500.573 900.128 499.927 900.128 499.343 899.907L403.174 863.529C403.014 863.469 402.849 863.424 402.681 863.397L301.207 846.817C300.59 846.716 300.032 846.393 299.636 845.909L234.54 766.321C234.432 766.189 234.311 766.068 234.179 765.96L154.591 700.864C154.107 700.468 153.784 699.91 153.683 699.293L137.103 597.819C137.076 597.651 137.031 597.486 136.971 597.326L100.593 501.157C100.372 500.573 100.372 499.927 100.593 499.343L136.971 403.174C137.031 403.014 137.076 402.849 137.103 402.681L153.683 301.207C153.784 300.59 154.107 300.032 154.591 299.636L234.179 234.54C234.311 234.432 234.432 234.311 234.54 234.179L299.636 154.591C300.032 154.107 300.59 153.784 301.207 153.683L402.681 137.103C402.849 137.076 403.014 137.031 403.174 136.971L499.343 100.593Z" fill="#4A4242"/>
<path d="M499.365 125.585C499.935 125.369 500.565 125.369 501.135 125.585L591.249 159.673C591.405 159.731 591.566 159.775 591.731 159.802L686.817 175.338C687.418 175.436 687.963 175.751 688.349 176.222L749.347 250.801C749.452 250.93 749.57 251.048 749.699 251.153L824.278 312.151C824.749 312.537 825.064 313.082 825.162 313.683L840.699 408.769C840.725 408.934 840.769 409.095 840.827 409.251L874.915 499.365C875.131 499.935 875.131 500.565 874.915 501.135L840.827 591.249C840.769 591.405 840.725 591.566 840.699 591.731L825.162 686.817C825.064 687.418 824.749 687.963 824.278 688.349L749.699 749.347C749.57 749.452 749.452 749.57 749.347 749.699L688.349 824.278C687.963 824.749 687.418 825.064 686.817 825.162L591.731 840.699C591.566 840.725 591.405 840.769 591.249 840.827L501.135 874.915C500.565 875.131 499.935 875.131 499.365 874.915L409.251 840.827C409.095 840.769 408.934 840.725 408.769 840.699L313.683 825.162C313.082 825.064 312.537 824.749 312.151 824.278L251.153 749.699C251.048 749.57 250.93 749.452 250.801 749.347L176.222 688.349C175.751 687.963 175.436 687.418 175.338 686.817L159.802 591.731C159.775 591.566 159.731 591.405 159.673 591.249L125.585 501.135C125.369 500.565 125.369 499.935 125.585 499.365L159.673 409.251C159.731 409.095 159.775 408.934 159.802 408.769L175.338 313.683C175.436 313.082 175.751 312.537 176.222 312.151L250.801 251.153C250.93 251.048 251.048 250.93 251.153 250.801L312.151 176.222C312.537 175.751 313.082 175.436 313.683 175.338L408.769 159.802C408.934 159.775 409.095 159.731 409.251 159.673L499.365 125.585Z" fill="#A71313"/>
<path d="M499.277 191.286C499.899 191.023 500.601 191.023 501.223 191.286L574.397 222.2C574.61 222.29 574.833 222.349 575.061 222.378L653.889 232.193C654.559 232.276 655.167 232.627 655.575 233.166L703.489 296.525C703.627 296.709 703.791 296.873 703.975 297.011L767.334 344.925C767.873 345.333 768.224 345.941 768.307 346.611L778.122 425.439C778.151 425.667 778.21 425.89 778.3 426.103L809.214 499.277C809.477 499.899 809.477 500.601 809.214 501.223L778.3 574.397C778.21 574.61 778.151 574.833 778.122 575.061L768.307 653.889C768.224 654.559 767.873 655.167 767.334 655.575L703.975 703.489C703.791 703.627 703.627 703.791 703.489 703.975L655.575 767.334C655.167 767.873 654.559 768.224 653.889 768.307L575.061 778.122C574.833 778.151 574.61 778.21 574.397 778.3L501.223 809.214C500.601 809.477 499.899 809.477 499.277 809.214L426.103 778.3C425.89 778.21 425.667 778.151 425.439 778.122L346.611 768.307C345.941 768.224 345.333 767.873 344.925 767.334L297.011 703.975C296.873 703.791 296.709 703.627 296.525 703.489L233.166 655.575C232.627 655.167 232.276 654.559 232.193 653.889L222.378 575.061C222.349 574.833 222.29 574.61 222.2 574.397L191.286 501.223C191.023 500.601 191.023 499.899 191.286 499.277L222.2 426.103C222.29 425.89 222.349 425.667 222.378 425.439L232.193 346.611C232.276 345.941 232.627 345.333 233.166 344.925L296.525 297.011C296.709 296.873 296.873 296.709 297.011 296.525L344.925 233.166C345.333 232.627 345.941 232.276 346.611 232.193L425.439 222.378C425.667 222.349 425.89 222.29 426.103 222.2L499.277 191.286Z" fill="#C52626"/>
<path d="M499.21 298.226C499.871 297.924 500.629 297.924 501.29 298.226L570.769 330.002L642.368 356.662C643.048 356.915 643.585 357.452 643.838 358.132L670.498 429.731L702.274 499.21C702.576 499.871 702.576 500.629 702.274 501.29L670.498 570.769L643.838 642.368C643.585 643.048 643.048 643.585 642.368 643.838L570.769 670.498L501.29 702.274C500.629 702.576 499.871 702.576 499.21 702.274L429.731 670.498L358.132 643.838C357.452 643.585 356.915 643.048 356.662 642.368L330.002 570.769L298.226 501.29C297.924 500.629 297.924 499.871 298.226 499.21L330.002 429.731L356.662 358.132C356.915 357.452 357.452 356.915 358.132 356.662L429.731 330.002L499.21 298.226Z" fill="#EF4848"/>
<path fill-rule="evenodd" clip-rule="evenodd" d="M351.521 366.521C333.215 384.826 333.215 414.506 351.521 432.812L435.322 516.613L353.396 598.54C335.09 616.846 335.09 646.526 353.396 664.831C371.701 683.137 401.381 683.137 419.687 664.831L501.613 582.905L583.54 664.831C601.846 683.137 631.525 683.137 649.831 664.831C668.137 646.525 668.137 616.846 649.831 598.54L567.905 516.613L651.706 432.812C670.012 414.506 670.012 384.826 651.706 366.521C633.4 348.215 603.721 348.215 585.415 366.521L501.613 450.322L417.812 366.521C399.506 348.215 369.826 348.215 351.521 366.521Z" fill="#A71313"/>
<path fill-rule="evenodd" clip-rule="evenodd" d="M383.193 398.193C370.323 411.063 370.323 431.929 383.193 444.799L453.102 514.708L383.192 584.617C370.323 597.487 370.323 618.353 383.192 631.223C396.062 644.093 416.929 644.093 429.798 631.223L499.708 561.314L569.617 631.223C582.486 644.092 603.353 644.092 616.222 631.223C629.092 618.353 629.092 597.486 616.222 584.617L546.313 514.708L616.222 444.799C629.092 431.929 629.092 411.063 616.222 398.193C603.352 385.323 582.486 385.323 569.616 398.193L499.708 468.102L429.799 398.193C416.929 385.323 396.063 385.323 383.193 398.193Z" fill="#C52626"/>
</svg>
