<svg width="400" height="400" viewBox="0 0 400 400" fill="none" xmlns="http://www.w3.org/2000/svg">
<path d="M199.646 44.1338C199.874 44.0476 200.126 44.0476 200.354 44.1338L237.86 58.3212C237.922 58.3448 237.986 58.3621 238.052 58.3728L277.627 64.839C277.867 64.8783 278.085 65.0042 278.239 65.1928L303.627 96.2323C303.669 96.2839 303.716 96.3311 303.768 96.3733L334.807 121.761C334.996 121.915 335.122 122.133 335.161 122.373L341.627 161.948C341.638 162.014 341.655 162.078 341.679 162.14L355.866 199.646C355.952 199.874 355.952 200.126 355.866 200.354L341.679 237.86C341.655 237.922 341.638 237.986 341.627 238.052L335.161 277.627C335.122 277.867 334.996 278.085 334.807 278.239L303.768 303.627C303.716 303.669 303.669 303.716 303.627 303.768L278.239 334.807C278.085 334.996 277.867 335.122 277.627 335.161L238.052 341.627C237.986 341.638 237.922 341.655 237.86 341.679L200.354 355.866C200.126 355.952 199.874 355.952 199.646 355.866L162.14 341.679C162.078 341.655 162.014 341.638 161.948 341.627L122.373 335.161C122.133 335.122 121.915 334.996 121.761 334.807L96.3733 303.768C96.3311 303.716 96.2839 303.669 96.2323 303.627L65.1928 278.239C65.0042 278.085 64.8783 277.867 64.839 277.627L58.3728 238.052C58.3621 237.986 58.3448 237.922 58.3212 237.86L44.1338 200.354C44.0476 200.126 44.0476 199.874 44.1338 199.646L58.3212 162.14C58.3448 162.078 58.3621 162.014 58.3728 161.948L64.839 122.373C64.8783 122.133 65.0042 121.915 65.1928 121.761L96.2323 96.3733C96.2839 96.3311 96.3311 96.2839 96.3733 96.2323L121.761 65.1928C121.915 65.0042 122.133 64.8783 122.373 64.839L161.948 58.3728C162.014 58.3621 162.078 58.3448 162.14 58.3212L199.646 44.1338Z" fill="#411C39"/>
<path d="M199.646 50.1338C199.874 50.0476 200.126 50.0476 200.354 50.1338L236.4 63.769C236.462 63.7926 236.527 63.8099 236.592 63.8206L274.627 70.0352C274.867 70.0745 275.085 70.2003 275.239 70.389L299.639 100.22C299.681 100.272 299.728 100.319 299.78 100.361L329.611 124.761C329.8 124.915 329.926 125.133 329.965 125.373L336.179 163.408C336.19 163.473 336.207 163.538 336.231 163.6L349.866 199.646C349.952 199.874 349.952 200.126 349.866 200.354L336.231 236.4C336.207 236.462 336.19 236.527 336.179 236.592L329.965 274.627C329.926 274.867 329.8 275.085 329.611 275.239L299.78 299.639C299.728 299.681 299.681 299.728 299.639 299.78L275.239 329.611C275.085 329.8 274.867 329.926 274.627 329.965L236.592 336.179C236.527 336.19 236.462 336.207 236.4 336.231L200.354 349.866C200.126 349.952 199.874 349.952 199.646 349.866L163.6 336.231C163.538 336.207 163.473 336.19 163.408 336.179L125.373 329.965C125.133 329.926 124.915 329.8 124.761 329.611L100.361 299.78C100.319 299.728 100.272 299.681 100.22 299.639L70.389 275.239C70.2003 275.085 70.0745 274.867 70.0352 274.627L63.8206 236.592C63.8099 236.527 63.7926 236.462 63.769 236.4L50.1338 200.354C50.0476 200.126 50.0476 199.874 50.1338 199.646L63.769 163.6C63.7926 163.538 63.8099 163.473 63.8206 163.408L70.0352 125.373C70.0745 125.133 70.2003 124.915 70.389 124.761L100.22 100.361C100.272 100.319 100.319 100.272 100.361 100.22L124.761 70.389C124.915 70.2003 125.133 70.0745 125.373 70.0352L163.408 63.8206C163.473 63.8099 163.538 63.7926 163.6 63.769L199.646 50.1338Z" fill="#A71313"/>
<path d="M199.611 76.4144C199.86 76.3093 200.14 76.3093 200.389 76.4144L229.659 88.78C229.744 88.8158 229.833 88.8398 229.925 88.8512L261.456 92.7772C261.724 92.8105 261.967 92.9509 262.13 93.1663L281.295 118.51C281.351 118.584 281.416 118.649 281.49 118.705L306.834 137.87C307.049 138.033 307.189 138.276 307.223 138.544L311.149 170.075C311.16 170.167 311.184 170.256 311.22 170.341L323.586 199.611C323.691 199.86 323.691 200.14 323.586 200.389L311.22 229.659C311.184 229.744 311.16 229.833 311.149 229.925L307.223 261.456C307.189 261.724 307.049 261.967 306.834 262.13L281.49 281.295C281.416 281.351 281.351 281.416 281.295 281.49L262.13 306.834C261.967 307.049 261.724 307.189 261.456 307.223L229.925 311.149C229.833 311.16 229.744 311.184 229.659 311.22L200.389 323.586C200.14 323.691 199.86 323.691 199.611 323.586L170.341 311.22C170.256 311.184 170.167 311.16 170.075 311.149L138.544 307.223C138.276 307.189 138.033 307.049 137.87 306.834L118.705 281.49C118.649 281.416 118.584 281.351 118.51 281.295L93.1663 262.13C92.9509 261.967 92.8105 261.724 92.7772 261.456L88.8512 229.925C88.8398 229.833 88.8158 229.744 88.78 229.659L76.4144 200.389C76.3093 200.14 76.3093 199.86 76.4144 199.611L88.78 170.341C88.8158 170.256 88.8398 170.167 88.8512 170.075L92.7772 138.544C92.8105 138.276 92.9509 138.033 93.1663 137.87L118.51 118.705C118.584 118.649 118.649 118.584 118.705 118.51L137.87 93.1663C138.033 92.9509 138.276 92.8105 138.544 92.7772L170.075 88.8512C170.167 88.8398 170.256 88.8158 170.341 88.78L199.611 76.4144Z" fill="#C52626"/>
<path d="M199.584 119.19C199.848 119.069 200.152 119.069 200.416 119.19L228.208 131.901L256.847 142.565C257.119 142.666 257.334 142.881 257.435 143.153L268.099 171.792L280.81 199.584C280.931 199.848 280.931 200.152 280.81 200.416L268.099 228.208L257.435 256.847C257.334 257.119 257.119 257.334 256.847 257.435L228.208 268.099L200.416 280.81C200.152 280.931 199.848 280.931 199.584 280.81L171.792 268.099L143.153 257.435C142.881 257.334 142.666 257.119 142.565 256.847L131.901 228.208L119.19 200.416C119.069 200.152 119.069 199.848 119.19 199.584L131.901 171.792L142.565 143.153C142.666 142.881 142.881 142.666 143.153 142.565L171.792 131.901L199.584 119.19Z" fill="#EF4848"/>
<path fill-rule="evenodd" clip-rule="evenodd" d="M141.258 265.833C148.581 273.155 160.452 273.155 167.775 265.832L200.545 233.062L233.316 265.833C240.638 273.155 252.51 273.155 259.833 265.833C267.155 258.51 267.155 246.638 259.833 239.316L227.062 206.545L260.583 173.025C267.905 165.702 267.905 153.831 260.583 146.508C253.26 139.186 241.388 139.186 234.066 146.508L200.545 180.029L167.025 146.508C159.702 139.186 147.831 139.186 140.508 146.508C133.186 153.831 133.186 165.702 140.508 173.025L174.029 206.545L141.258 239.316C133.936 246.638 133.936 258.51 141.258 265.833Z" fill="#A71313"/>
<path fill-rule="evenodd" clip-rule="evenodd" d="M153.177 159.177C148.029 164.325 148.029 172.672 153.177 177.819L181.141 205.783L153.177 233.747C148.029 238.895 148.029 247.241 153.177 252.389C158.325 257.537 166.671 257.537 171.819 252.389L199.783 224.425L227.747 252.389C232.895 257.537 241.241 257.537 246.389 252.389C251.537 247.241 251.537 238.895 246.389 233.747L218.425 205.783L246.389 177.819C251.537 172.672 251.537 164.325 246.389 159.177C241.241 154.029 232.894 154.029 227.747 159.177L199.783 187.141L171.819 159.177C166.672 154.029 158.325 154.029 153.177 159.177Z" fill="#C52626"/>
</svg>
