<svg width="1001" height="1001" viewBox="0 0 1001 1001" fill="none" xmlns="http://www.w3.org/2000/svg">
<path d="M159.665 480.63C236.725 377.594 335.477 244.178 386.724 170.663C405.1 144.303 431.934 124.565 463.016 116.417L564.966 89.6911C608.758 78.211 655.289 91.2331 686.533 123.996C754.078 194.824 865.099 312.374 863.866 318.545C862.338 326.194 881.03 521.416 894.478 657.831C898.192 695.504 884.69 732.794 857.703 759.343L730.389 884.593C700.528 913.97 657.94 926.442 616.95 917.815L400.71 872.308C373.83 866.651 349.561 852.3 331.652 831.472L164.881 637.52C126.549 592.941 124.453 527.711 159.665 480.63Z" fill="#770606" stroke="#770606" stroke-width="78.7272"/>
<path d="M411.839 124.339L397.462 128.618L389.579 141.381C357.343 193.572 189.153 418.985 107.654 526.98L88.5336 552.316L109.241 576.372L343.413 848.409L351.82 858.176L364.375 861.08L656.362 928.618L677.872 933.594L693.333 917.833L888.622 718.76L901.523 705.609L899.69 687.277C893.882 629.194 885.271 541.589 878.314 467.54C874.833 430.498 871.777 396.955 869.693 372.225C868.649 359.831 867.865 349.831 867.392 342.772C867.154 339.206 867.014 336.661 866.952 335.04C866.948 334.929 866.945 334.827 866.942 334.735C867.275 329.176 866.376 324.829 865.846 322.655C865.034 319.325 863.955 316.71 863.253 315.15C861.851 312.034 860.283 309.494 859.321 308.003C857.275 304.832 854.812 301.589 852.58 298.767C847.946 292.908 841.561 285.435 834.313 277.146C825.589 267.168 814.749 255.027 802.926 241.785C795.128 233.052 786.902 223.839 778.574 214.453C735.254 165.627 689.044 111.889 667.885 78.1864L651.983 52.8557L623.317 61.3886L411.839 124.339Z" fill="#C51212" stroke="#770606" stroke-width="78.7272"/>
<path d="M373.609 822.445C362.647 820.452 140.9 550.373 140.9 550.373L347.711 602.091L487.425 468.294L654.566 431.319L861.023 690.461L664.205 889.595C664.205 889.595 382.378 824.039 373.609 822.445Z" fill="#981212"/>
<path d="M828.604 330.401L633.861 98.002L604 223.888L657.232 432.655L859.863 690.462L828.604 330.401Z" fill="#AE1313"/>
<path d="M349.047 600.755L139.744 551.53L261.308 693.933L372.452 822.444L349.047 600.755Z" fill="#850E0E"/>
</svg>
