<svg width="400" height="400" viewBox="0 0 400 400" fill="none" xmlns="http://www.w3.org/2000/svg">
<g clip-path="url(#clip0_135_506)">
<path d="M231.756 56.0108L273.375 22.8566L279.361 75.7295L279.893 80.4314L284.441 79.1238L335.58 64.4203L320.876 115.559L319.569 120.107L324.271 120.639L377.143 126.625L343.989 168.244L341.041 171.945L345.181 174.236L391.739 200L345.181 225.764L341.041 228.055L343.989 231.756L377.143 273.375L324.271 279.361L319.569 279.893L320.876 284.441L335.58 335.58L284.441 320.876L279.893 319.569L279.361 324.271L273.375 377.143L231.756 343.989L228.055 341.041L225.764 345.181L200 391.739L174.236 345.181L171.945 341.041L168.244 343.989L126.625 377.143L120.639 324.271L120.107 319.569L115.559 320.876L64.4203 335.58L79.1238 284.441L80.4314 279.893L75.7295 279.361L22.8566 273.375L56.0108 231.756L58.9592 228.055L54.8189 225.764L8.26134 200L54.8189 174.236L58.9592 171.945L56.0108 168.244L22.8566 126.625L75.7295 120.639L80.4314 120.107L79.1238 115.559L64.4203 64.4203L115.559 79.1238L120.107 80.4314L120.639 75.7295L126.625 22.8566L168.244 56.0108L171.945 58.9592L174.236 54.8189L200 8.26134L225.764 54.8189L228.055 58.9592L231.756 56.0108Z" fill="#C52626" stroke="#4A4242" stroke-width="8"/>
</g>
<defs>
<clipPath id="clip0_135_506">
<rect width="400" height="400" fill="white"/>
</clipPath>
</defs>
</svg>
