<svg width="400" height="400" viewBox="0 0 400 400" fill="none" xmlns="http://www.w3.org/2000/svg">
<path d="M199.637 40.1373C199.871 40.0488 200.129 40.0488 200.363 40.1373L238.83 54.6884C238.894 54.7126 238.96 54.7303 239.028 54.7413L279.617 61.3734C279.864 61.4137 280.087 61.5427 280.246 61.7362L306.284 93.5716C306.327 93.6245 306.376 93.6729 306.428 93.7162L338.264 119.754C338.457 119.913 338.586 120.136 338.627 120.383L345.259 160.972C345.27 161.04 345.287 161.106 345.312 161.17L359.863 199.637C359.951 199.871 359.951 200.129 359.863 200.363L345.312 238.83C345.287 238.894 345.27 238.96 345.259 239.028L338.627 279.617C338.586 279.864 338.457 280.087 338.264 280.246L306.428 306.284C306.376 306.327 306.327 306.376 306.284 306.428L280.246 338.264C280.087 338.457 279.864 338.586 279.617 338.627L239.028 345.259C238.96 345.27 238.894 345.287 238.83 345.312L200.363 359.863C200.129 359.951 199.871 359.951 199.637 359.863L161.17 345.312C161.106 345.287 161.04 345.27 160.972 345.259L120.383 338.627C120.136 338.586 119.913 338.457 119.754 338.264L93.7162 306.428C93.6729 306.376 93.6245 306.327 93.5716 306.284L61.7362 280.246C61.5427 280.087 61.4137 279.864 61.3734 279.617L54.7413 239.028C54.7303 238.96 54.7126 238.894 54.6884 238.83L40.1373 200.363C40.0488 200.129 40.0488 199.871 40.1373 199.637L54.6884 161.17C54.7126 161.106 54.7303 161.04 54.7413 160.972L61.3734 120.383C61.4137 120.136 61.5427 119.913 61.7362 119.754L93.5716 93.7162C93.6245 93.6729 93.6729 93.6245 93.7162 93.5716L119.754 61.7362C119.913 61.5427 120.136 61.4137 120.383 61.3734L160.972 54.7413C161.04 54.7303 161.106 54.7126 161.17 54.6884L199.637 40.1373Z" fill="#4A4242"/>
<path d="M199.646 50.1339C199.874 50.0477 200.126 50.0477 200.354 50.1339L236.4 63.7691C236.462 63.7926 236.527 63.8099 236.592 63.8207L274.627 70.0353C274.867 70.0746 275.085 70.2004 275.24 70.3891L299.639 100.22C299.681 100.272 299.728 100.319 299.78 100.361L329.611 124.761C329.8 124.915 329.926 125.133 329.965 125.373L336.179 163.408C336.19 163.473 336.207 163.538 336.231 163.6L349.866 199.646C349.952 199.874 349.952 200.126 349.866 200.354L336.231 236.4C336.207 236.462 336.19 236.527 336.179 236.592L329.965 274.627C329.926 274.867 329.8 275.085 329.611 275.24L299.78 299.639C299.728 299.681 299.681 299.728 299.639 299.78L275.24 329.611C275.085 329.8 274.867 329.926 274.627 329.965L236.592 336.179C236.527 336.19 236.462 336.207 236.4 336.231L200.354 349.866C200.126 349.952 199.874 349.952 199.646 349.866L163.6 336.231C163.538 336.207 163.473 336.19 163.408 336.179L125.373 329.965C125.133 329.926 124.915 329.8 124.761 329.611L100.361 299.78C100.319 299.728 100.272 299.681 100.22 299.639L70.389 275.24C70.2003 275.085 70.0745 274.867 70.0352 274.627L63.8206 236.592C63.8099 236.527 63.7926 236.462 63.769 236.4L50.1338 200.354C50.0476 200.126 50.0476 199.874 50.1338 199.646L63.769 163.6C63.7926 163.538 63.8099 163.473 63.8206 163.408L70.0352 125.373C70.0745 125.133 70.2003 124.915 70.389 124.761L100.22 100.361C100.272 100.319 100.319 100.272 100.361 100.22L124.761 70.3891C124.915 70.2004 125.133 70.0746 125.373 70.0353L163.408 63.8207C163.473 63.8099 163.538 63.7926 163.6 63.7691L199.646 50.1339Z" fill="#A71313"/>
<path d="M199.611 76.4144C199.86 76.3093 200.14 76.3093 200.389 76.4144L229.659 88.78C229.744 88.8158 229.833 88.8398 229.925 88.8512L261.456 92.7772C261.724 92.8105 261.967 92.9509 262.13 93.1663L281.295 118.51C281.351 118.584 281.416 118.649 281.49 118.705L306.834 137.87C307.049 138.033 307.189 138.276 307.223 138.544L311.149 170.075C311.16 170.167 311.184 170.256 311.22 170.341L323.586 199.611C323.691 199.86 323.691 200.14 323.586 200.389L311.22 229.659C311.184 229.744 311.16 229.833 311.149 229.925L307.223 261.456C307.189 261.724 307.049 261.967 306.834 262.13L281.49 281.295C281.416 281.351 281.351 281.416 281.295 281.49L262.13 306.834C261.967 307.049 261.724 307.189 261.456 307.223L229.925 311.149C229.833 311.16 229.744 311.184 229.659 311.22L200.389 323.586C200.14 323.691 199.86 323.691 199.611 323.586L170.341 311.22C170.256 311.184 170.167 311.16 170.075 311.149L138.544 307.223C138.276 307.189 138.033 307.049 137.87 306.834L118.705 281.49C118.649 281.416 118.584 281.351 118.51 281.295L93.1663 262.13C92.9509 261.967 92.8105 261.724 92.7772 261.456L88.8512 229.925C88.8398 229.833 88.8158 229.744 88.78 229.659L76.4144 200.389C76.3093 200.14 76.3093 199.86 76.4144 199.611L88.78 170.341C88.8158 170.256 88.8398 170.167 88.8512 170.075L92.7772 138.544C92.8105 138.276 92.9509 138.033 93.1663 137.87L118.51 118.705C118.584 118.649 118.649 118.584 118.705 118.51L137.87 93.1663C138.033 92.9509 138.276 92.8105 138.544 92.7772L170.075 88.8512C170.167 88.8398 170.256 88.8158 170.341 88.78L199.611 76.4144Z" fill="#C52626"/>
<path d="M199.584 119.19C199.848 119.069 200.152 119.069 200.416 119.19L228.208 131.901L256.847 142.565C257.119 142.666 257.334 142.881 257.435 143.153L268.099 171.792L280.81 199.584C280.931 199.848 280.931 200.152 280.81 200.416L268.099 228.208L257.435 256.847C257.334 257.119 257.119 257.334 256.847 257.435L228.208 268.099L200.416 280.81C200.152 280.931 199.848 280.931 199.584 280.81L171.792 268.099L143.153 257.435C142.881 257.334 142.666 257.119 142.565 256.847L131.901 228.208L119.19 200.416C119.069 200.152 119.069 199.848 119.19 199.584L131.901 171.792L142.565 143.153C142.666 142.881 142.881 142.666 143.153 142.565L171.792 131.901L199.584 119.19Z" fill="#EF4848"/>
</svg>
