<svg width="1001" height="1001" viewBox="0 0 1001 1001" fill="none" xmlns="http://www.w3.org/2000/svg">
<g clip-path="url(#clip0_479_29)">
<mask id="path-1-outside-1_479_29" maskUnits="userSpaceOnUse" x="92.2462" y="88.4355" width="934.088" height="934.088" fill="black">
<rect fill="white" x="92.2462" y="88.4355" width="934.088" height="934.088"/>
<path d="M155.417 151.13C175.465 131.082 207.969 131.082 228.018 151.13L964.023 887.136C984.072 907.184 984.072 939.689 964.023 959.737V959.737C943.975 979.785 911.471 979.785 891.422 959.737L155.417 223.731C135.368 203.683 135.368 171.178 155.417 151.13V151.13Z"/>
</mask>
<path d="M155.417 151.13C175.465 131.082 207.969 131.082 228.018 151.13L964.023 887.136C984.072 907.184 984.072 939.689 964.023 959.737V959.737C943.975 979.785 911.471 979.785 891.422 959.737L155.417 223.731C135.368 203.683 135.368 171.178 155.417 151.13V151.13Z" fill="#473736"/>
<path d="M155.417 223.731L168.354 210.793L155.417 223.731ZM891.422 959.737L878.485 972.674L891.422 959.737ZM215.08 164.068L951.086 900.073L976.961 874.198L240.955 138.192L215.08 164.068ZM904.36 946.799L168.354 210.793L142.479 236.668L878.485 972.674L904.36 946.799ZM168.354 210.793C155.451 197.89 155.451 176.971 168.354 164.068L142.479 138.192C115.286 165.386 115.286 209.475 142.479 236.668L168.354 210.793ZM951.086 946.799C938.183 959.702 917.263 959.702 904.36 946.799L878.485 972.674C905.678 999.868 949.768 999.868 976.961 972.674L951.086 946.799ZM951.086 900.073C963.989 912.976 963.989 933.896 951.086 946.799L976.961 972.674C1004.15 945.481 1004.15 901.392 976.961 874.198L951.086 900.073ZM240.955 138.192C213.762 110.999 169.672 110.999 142.479 138.192L168.354 164.068C181.257 151.165 202.177 151.165 215.08 164.068L240.955 138.192Z" fill="#200707" mask="url(#path-1-outside-1_479_29)"/>
<path fill-rule="evenodd" clip-rule="evenodd" d="M558.545 212.702L476.674 294.573L477.764 295.662L484.428 320.321L472.907 331.841L500.871 365.117L505.673 383.07L405.321 483.422L385.308 503.435L366.211 499.777L333.056 471.692L319.734 485.015L293.51 479.915L292.421 478.826L274.216 497.031L217.512 553.735L186.694 566.66L101.652 520.703L52.1123 432.079L178.155 207.188C180.964 201.397 184.05 195.753 187.408 190.299C187.52 190.225 187.633 190.151 187.745 190.077L190.642 184.908L433.648 50.5428L523.203 99.1522L568.229 185.124L558.545 212.702Z" fill="#515151"/>
<path d="M476.674 294.573L470.206 288.104L463.737 294.573L470.206 301.041L476.674 294.573ZM558.545 212.702L565.014 219.171L566.486 217.698L567.176 215.733L558.545 212.702ZM477.764 295.662L486.595 293.275L485.958 290.919L484.232 289.193L477.764 295.662ZM484.428 320.321L490.896 326.79L494.64 323.046L493.259 317.934L484.428 320.321ZM472.907 331.841L466.438 325.372L460.506 331.304L465.904 337.727L472.907 331.841ZM500.871 365.117L509.708 362.753L509.183 360.788L507.874 359.231L500.871 365.117ZM505.673 383.07L512.141 389.539L515.874 385.806L514.51 380.707L505.673 383.07ZM385.308 503.435L383.587 512.42L388.349 513.332L391.777 509.904L385.308 503.435ZM366.211 499.777L360.298 506.757L362.131 508.31L364.49 508.761L366.211 499.777ZM333.056 471.692L338.969 464.712L332.543 459.268L326.587 465.224L333.056 471.692ZM319.734 485.015L317.987 493.995L322.763 494.923L326.202 491.484L319.734 485.015ZM293.51 479.915L287.041 486.384L289.018 488.362L291.764 488.896L293.51 479.915ZM292.421 478.826L298.889 472.358L292.421 465.889L285.952 472.358L292.421 478.826ZM217.512 553.735L221.05 562.172L222.709 561.476L223.981 560.204L217.512 553.735ZM186.694 566.66L182.344 574.708L186.195 576.789L190.232 575.096L186.694 566.66ZM101.652 520.703L93.6669 525.166L94.9641 527.487L97.3029 528.751L101.652 520.703ZM52.1123 432.079L44.132 427.606L41.6285 432.073L44.1269 436.542L52.1123 432.079ZM178.155 207.188L186.135 211.661L186.268 211.424L186.386 211.18L178.155 207.188ZM187.408 190.299L182.363 182.668L180.678 183.782L179.618 185.502L187.408 190.299ZM187.745 190.077L192.776 197.718L194.637 196.493L195.726 194.55L187.745 190.077ZM190.642 184.908L186.216 176.902L183.936 178.163L182.662 180.435L190.642 184.908ZM433.648 50.5428L438.012 42.5026L433.607 40.1117L429.221 42.5369L433.648 50.5428ZM523.203 99.1522L531.307 94.9078L530.015 92.4406L527.567 91.112L523.203 99.1522ZM568.229 185.124L576.861 188.156L578.179 184.403L576.334 180.88L568.229 185.124ZM483.143 301.041L565.014 219.171L552.076 206.233L470.206 288.104L483.143 301.041ZM484.232 289.193L483.143 288.104L470.206 301.041L471.295 302.131L484.232 289.193ZM493.259 317.934L486.595 293.275L468.932 298.048L475.596 322.708L493.259 317.934ZM479.376 338.31L490.896 326.79L477.959 313.852L466.438 325.372L479.376 338.31ZM465.904 337.727L493.867 371.002L507.874 359.231L479.911 325.956L465.904 337.727ZM492.033 367.481L496.835 385.434L514.51 380.707L509.708 362.753L492.033 367.481ZM499.204 376.601L398.852 476.953L411.79 489.891L512.141 389.539L499.204 376.601ZM398.852 476.953L378.839 496.966L391.777 509.904L411.79 489.891L398.852 476.953ZM387.029 494.45L367.932 490.792L364.49 508.761L383.587 512.42L387.029 494.45ZM372.124 492.796L338.969 464.712L327.143 478.673L360.298 506.757L372.124 492.796ZM326.202 491.484L339.525 478.161L326.587 465.224L313.265 478.546L326.202 491.484ZM291.764 488.896L317.987 493.995L321.48 476.035L295.256 470.935L291.764 488.896ZM285.952 485.295L287.041 486.384L299.979 473.447L298.889 472.358L285.952 485.295ZM280.685 503.5L298.889 485.295L285.952 472.358L267.747 490.563L280.685 503.5ZM223.981 560.204L280.685 503.5L267.747 490.563L211.043 547.266L223.981 560.204ZM190.232 575.096L221.05 562.172L213.974 545.299L183.156 558.224L190.232 575.096ZM97.3029 528.751L182.344 574.708L191.043 558.612L106.002 512.654L97.3029 528.751ZM44.1269 436.542L93.6669 525.166L109.638 516.239L60.0977 427.615L44.1269 436.542ZM170.175 202.716L44.132 427.606L60.0926 436.551L186.135 211.661L170.175 202.716ZM179.618 185.502C176.095 191.224 172.862 197.138 169.924 203.196L186.386 211.18C189.065 205.656 192.005 200.281 195.198 195.096L179.618 185.502ZM182.715 182.436C182.598 182.513 182.48 182.59 182.363 182.668L192.453 197.931C192.56 197.86 192.668 197.789 192.776 197.718L182.715 182.436ZM182.662 180.435L179.765 185.604L195.726 194.55L198.623 189.381L182.662 180.435ZM429.221 42.5369L186.216 176.902L195.069 192.914L438.075 58.5488L429.221 42.5369ZM527.567 91.112L438.012 42.5026L429.284 58.5831L518.838 107.192L527.567 91.112ZM576.334 180.88L531.307 94.9078L515.099 103.397L560.125 189.369L576.334 180.88ZM567.176 215.733L576.861 188.156L559.598 182.093L549.913 209.671L567.176 215.733Z" fill="#200707"/>
<rect x="433.225" y="356.332" width="801.998" height="103.68" rx="51.8402" transform="rotate(45 433.225 356.332)" fill="#473736"/>
<rect x="446.161" y="403.77" width="725.763" height="54.8896" rx="27.4448" transform="rotate(45 446.161 403.77)" fill="#544645"/>
<path d="M107.627 505.113L73.1909 429.668C87.1773 402.645 127.266 338.346 172.957 244.233C195.307 198.197 208.971 196.767 248.451 168.738L432.023 70.8362L506.536 106.204C479.819 130.438 402.895 209.1 346.232 255.334C281.39 257.599 256.149 314.998 257.689 343.877L107.627 505.113Z" fill="#6D6D6D"/>
</g>
<defs>
<clipPath id="clip0_479_29">
<rect width="1000" height="1000" fill="white" transform="translate(0.75 0.75)"/>
</clipPath>
</defs>
</svg>
