<svg width="501" height="501" viewBox="0 0 501 501" fill="none" xmlns="http://www.w3.org/2000/svg">
<g clip-path="url(#clip0_479_29)">
<mask id="path-1-outside-1_479_29" maskUnits="userSpaceOnUse" x="45.666" y="43.7605" width="468.105" height="468.105" fill="black">
<rect fill="white" x="45.666" y="43.7605" width="468.105" height="468.105"/>
<path d="M77.9583 75.8149C87.9824 65.7908 104.235 65.7908 114.259 75.8149L482.262 443.818C492.286 453.842 492.286 470.094 482.262 480.118V480.118C472.238 490.142 455.985 490.142 445.961 480.118L77.9583 112.115C67.9342 102.091 67.9342 85.839 77.9583 75.8149V75.8149Z"/>
</mask>
<path d="M77.9583 75.8149C87.9824 65.7908 104.235 65.7908 114.259 75.8149L482.262 443.818C492.286 453.842 492.286 470.094 482.262 480.118V480.118C472.238 490.142 455.985 490.142 445.961 480.118L77.9583 112.115C67.9342 102.091 67.9342 85.839 77.9583 75.8149V75.8149Z" fill="#473736"/>
<path d="M77.9583 112.115L71.4895 118.584L77.9583 112.115ZM114.259 75.8149L107.79 82.2837L114.259 75.8149ZM107.79 82.2837L475.793 450.287L488.731 437.349L120.728 69.3461L107.79 82.2837ZM452.43 473.649L84.4271 105.646L71.4895 118.584L439.492 486.587L452.43 473.649ZM84.4271 105.646C77.9757 99.195 77.9757 88.7351 84.4271 82.2837L71.4895 69.3461C57.8928 82.9428 57.8928 104.987 71.4895 118.584L84.4271 105.646ZM475.793 473.649C469.341 480.101 458.882 480.101 452.43 473.649L439.492 486.587C453.089 500.184 475.134 500.184 488.73 486.587L475.793 473.649ZM475.793 450.287C482.244 456.738 482.244 467.198 475.793 473.649L488.73 486.587C502.327 472.99 502.327 450.946 488.731 437.349L475.793 450.287ZM120.728 69.3461C107.131 55.7493 85.0862 55.7494 71.4895 69.3461L84.4271 82.2837C90.8786 75.8322 101.339 75.8322 107.79 82.2837L120.728 69.3461Z" fill="#200707" mask="url(#path-1-outside-1_479_29)"/>
<path fill-rule="evenodd" clip-rule="evenodd" d="M279.522 106.601L238.587 147.536L239.132 148.081L242.464 160.41L236.704 166.171L250.685 182.808L253.086 191.785L202.911 241.961L192.904 251.967L183.356 250.138L166.778 236.096L160.117 242.757L147.005 240.208L146.46 239.663L137.358 248.766L109.006 277.118L93.5969 283.58L51.0761 260.601L26.3061 216.289L89.3293 103.841C90.7331 100.947 92.2758 98.1253 93.9543 95.3997L94.1225 95.2887L95.5712 92.704L217.074 25.5214L261.851 49.8261L284.365 92.8122L279.522 106.601Z" fill="#515151"/>
<path d="M238.587 147.536L235.353 144.302L232.119 147.536L235.353 150.771L238.587 147.536ZM279.522 106.601L282.757 109.836L283.493 109.099L283.838 108.117L279.522 106.601ZM239.132 148.081L243.548 146.887L243.229 145.709L242.366 144.846L239.132 148.081ZM242.464 160.41L245.698 163.645L247.57 161.773L246.88 159.217L242.464 160.41ZM236.704 166.171L233.469 162.936L230.503 165.902L233.202 169.114L236.704 166.171ZM250.685 182.808L255.104 181.627L254.841 180.644L254.187 179.866L250.685 182.808ZM253.086 191.785L256.321 195.02L258.187 193.153L257.505 190.603L253.086 191.785ZM192.904 251.967L192.043 256.46L194.424 256.916L196.138 255.202L192.904 251.967ZM183.356 250.138L180.399 253.629L181.315 254.405L182.495 254.631L183.356 250.138ZM166.778 236.096L169.735 232.606L166.521 229.884L163.544 232.862L166.778 236.096ZM160.117 242.757L159.244 247.247L161.632 247.712L163.351 245.992L160.117 242.757ZM147.005 240.208L143.771 243.442L144.759 244.431L146.132 244.698L147.005 240.208ZM146.46 239.663L149.695 236.429L146.46 233.194L143.226 236.429L146.46 239.663ZM137.358 248.766L140.592 252L137.358 248.766ZM109.006 277.118L110.775 281.336L111.604 280.988L112.24 280.352L109.006 277.118ZM93.5969 283.58L91.4222 287.604L93.3477 288.645L95.366 287.798L93.5969 283.58ZM51.0761 260.601L47.0835 262.833L47.732 263.993L48.9015 264.625L51.0761 260.601ZM26.3061 216.289L22.316 214.053L21.0642 216.286L22.3135 218.521L26.3061 216.289ZM89.3293 103.841L93.3195 106.077L93.3858 105.959L93.4449 105.837L89.3293 103.841ZM93.9543 95.3997L91.4355 91.5816L90.5903 92.1391L90.0594 93.0012L93.9543 95.3997ZM94.1225 95.2887L96.6413 99.1069L97.5692 98.4948L98.1127 97.5251L94.1225 95.2887ZM95.5712 92.704L93.3578 88.701L92.2179 89.3313L91.581 90.4676L95.5712 92.704ZM217.074 25.5214L219.256 21.5013L217.054 20.3059L214.861 21.5185L217.074 25.5214ZM261.851 49.8261L265.903 47.7039L265.257 46.4703L264.033 45.806L261.851 49.8261ZM284.365 92.8122L288.68 94.3278L289.339 92.4515L288.417 90.69L284.365 92.8122ZM241.822 150.771L282.757 109.836L276.288 103.367L235.353 144.302L241.822 150.771ZM242.366 144.846L241.822 144.302L235.353 150.771L235.898 151.315L242.366 144.846ZM246.88 159.217L243.548 146.887L234.716 149.274L238.048 161.604L246.88 159.217ZM239.938 169.405L245.698 163.645L239.23 157.176L233.469 162.936L239.938 169.405ZM233.202 169.114L247.184 185.751L254.187 179.866L240.206 163.228L233.202 169.114ZM246.267 183.99L248.668 192.967L257.505 190.603L255.104 181.627L246.267 183.99ZM249.852 188.551L199.676 238.726L206.145 245.195L256.321 195.02L249.852 188.551ZM199.676 238.726L189.67 248.733L196.138 255.202L206.145 245.195L199.676 238.726ZM193.765 247.475L184.216 245.646L182.495 254.631L192.043 256.46L193.765 247.475ZM186.312 246.648L169.735 232.606L163.822 239.587L180.399 253.629L186.312 246.648ZM163.351 245.992L170.013 239.331L163.544 232.862L156.883 239.523L163.351 245.992ZM146.132 244.698L159.244 247.247L160.99 238.267L147.878 235.718L146.132 244.698ZM143.226 242.897L143.771 243.442L150.24 236.973L149.695 236.429L143.226 242.897ZM140.592 252L149.695 242.897L143.226 236.429L134.123 245.531L140.592 252ZM112.24 280.352L140.592 252L134.123 245.531L105.772 273.883L112.24 280.352ZM95.366 287.798L110.775 281.336L107.237 272.899L91.8278 279.362L95.366 287.798ZM48.9015 264.625L91.4222 287.604L95.7716 279.556L53.2508 256.577L48.9015 264.625ZM22.3135 218.521L47.0835 262.833L55.0688 258.369L30.2988 214.057L22.3135 218.521ZM85.3392 101.605L22.316 214.053L30.2963 218.526L93.3195 106.077L85.3392 101.605ZM90.0594 93.0012C88.2983 95.8611 86.6823 98.8168 85.2137 101.845L93.4449 105.837C94.784 103.076 96.2533 100.39 97.8491 97.7982L90.0594 93.0012ZM91.6037 91.4706L91.4355 91.5816L96.4731 99.2179L96.6413 99.1069L91.6037 91.4706ZM91.581 90.4676L90.1323 93.0524L98.1127 97.5251L99.5614 94.9403L91.581 90.4676ZM214.861 21.5185L93.3578 88.701L97.7846 96.7069L219.287 29.5244L214.861 21.5185ZM264.033 45.806L219.256 21.5013L214.892 29.5415L259.669 53.8462L264.033 45.806ZM288.417 90.69L265.903 47.7039L257.799 51.9483L280.313 94.9344L288.417 90.69ZM283.838 108.117L288.68 94.3278L280.049 91.2966L275.207 105.086L283.838 108.117Z" fill="#200707"/>
<rect x="216.862" y="178.416" width="400.999" height="51.8402" rx="25.9201" transform="rotate(45 216.862 178.416)" fill="#473736"/>
<rect x="223.331" y="202.135" width="362.881" height="27.4448" rx="13.7224" transform="rotate(45 223.331 202.135)" fill="#544645"/>
<path d="M54.0633 252.807L36.8455 215.084C43.8386 201.573 63.8828 169.423 86.7285 122.366C97.9035 99.3484 104.736 98.6336 124.476 84.6191L216.262 35.6681L253.518 53.3519C240.16 65.4689 201.697 104.8 173.366 127.917C140.945 129.049 128.324 157.749 129.094 172.188L54.0633 252.807Z" fill="#6D6D6D"/>
</g>
<defs>
<clipPath id="clip0_479_29">
<rect width="500" height="500" fill="white" transform="translate(0.625 0.625)"/>
</clipPath>
</defs>
</svg>
