<svg width="1001" height="1001" viewBox="0 0 1001 1001" fill="none" xmlns="http://www.w3.org/2000/svg">
<mask id="path-1-outside-1_442_363" maskUnits="userSpaceOnUse" x="83.082" y="31.9641" width="843" height="906" fill="black">
<rect fill="white" x="83.082" y="31.9641" width="843" height="906"/>
<path fill-rule="evenodd" clip-rule="evenodd" d="M604.978 200.845C604.755 200.777 604.548 200.665 604.369 200.516L581.079 181.181C579.809 180.127 580.555 178.062 582.205 178.062H604.931C605.748 178.062 606.458 177.501 606.646 176.706L632.106 69.32C632.552 67.4405 635.26 67.5435 635.562 69.4514L652.324 175.504C652.518 176.732 653.889 177.378 654.96 176.747L688.283 157.1C689.666 156.285 691.33 157.592 690.865 159.129L681.19 191.131C680.869 192.192 681.596 193.282 682.698 193.394L753.528 200.596C755.358 200.782 755.715 203.295 754.009 203.984L692.89 228.651C692.432 228.835 691.918 228.82 691.472 228.607L684.169 225.124L719.2 243.922L764.66 262.784L753.937 258.269C752.387 257.616 752.545 255.369 754.173 254.94L765.906 251.853L783.125 245.826C783.391 245.733 783.677 245.705 783.956 245.745L807.974 249.176C808.127 249.198 808.277 249.24 808.419 249.301L819.474 254.039C820.122 254.316 820.542 254.953 820.542 255.658V266.616C820.542 266.761 820.524 266.904 820.489 267.044L816.576 282.699C816.364 283.545 816.804 284.419 817.61 284.754L819.362 285.481C819.5 285.538 819.645 285.577 819.793 285.598L877.089 293.615C877.92 293.731 878.554 294.418 878.604 295.256L878.66 296.204C878.684 296.603 878.872 296.971 879.02 297.342C879.044 297.403 879.065 297.466 879.083 297.531L889.893 336.576C889.977 336.879 889.979 337.199 889.897 337.502L879.541 376.153C879.509 376.273 879.464 376.39 879.407 376.501L667.118 790.509L616.215 878.272C616.078 878.508 615.888 878.709 615.66 878.86L580.539 901.988C580.117 902.266 579.598 902.349 579.111 902.218L534.053 890.087L120.257 743.681C119.172 743.297 118.74 741.992 119.382 741.037L125.184 732.398C125.636 731.726 125.331 730.808 124.567 730.539V730.539C123.697 730.234 123.21 729.31 123.448 728.42L135.179 684.642C135.416 683.755 134.933 682.834 134.069 682.526L120.282 677.604C119.19 677.214 118.765 675.893 119.426 674.94L208.006 547.184C208.062 547.103 208.111 547.018 208.153 546.929L215.622 531.007C215.784 530.663 215.83 530.275 215.753 529.902L210.817 506.044C210.762 505.782 210.649 505.535 210.484 505.323L190.407 479.389C189.921 478.762 189.914 477.887 190.39 477.253L205.186 457.525C205.357 457.297 205.47 457.031 205.516 456.75L210.539 425.772C210.657 425.05 211.207 424.475 211.924 424.328L267.247 412.937C268.662 412.646 269.807 414.087 269.204 415.399L238.788 481.628L274.985 404.471C275.037 404.36 275.1 404.255 275.174 404.157L337.63 321.469L373.102 269.47C373.396 269.039 373.484 268.499 373.342 267.997L360.621 223.05C360.569 222.866 360.487 222.692 360.379 222.534L320.403 164.236C319.553 162.996 320.546 161.329 322.041 161.486L382.902 167.893C384.064 168.015 385.021 166.994 384.824 165.843L369.42 75.8483C369.129 74.1483 371.2 73.0854 372.412 74.3134L430.745 133.457C431.404 134.125 432.471 134.16 433.172 133.535L476.836 94.6349C478.057 93.5469 479.973 94.5645 479.755 96.1855L472.47 150.424C472.462 150.481 472.436 150.534 472.397 150.576V150.576C472.23 150.752 472.359 151.071 472.585 151.157V151.157L598.472 198.979L629.63 208.392L604.978 200.845ZM653.232 215.521L680.456 223.745C680.666 223.809 680.782 223.509 680.584 223.415V223.415C680.575 223.411 680.566 223.407 680.557 223.405L653.232 215.521Z"/>
</mask>
<path fill-rule="evenodd" clip-rule="evenodd" d="M604.978 200.845C604.755 200.777 604.548 200.665 604.369 200.516L581.079 181.181C579.809 180.127 580.555 178.062 582.205 178.062H604.931C605.748 178.062 606.458 177.501 606.646 176.706L632.106 69.32C632.552 67.4405 635.26 67.5435 635.562 69.4514L652.324 175.504C652.518 176.732 653.889 177.378 654.96 176.747L688.283 157.1C689.666 156.285 691.33 157.592 690.865 159.129L681.19 191.131C680.869 192.192 681.596 193.282 682.698 193.394L753.528 200.596C755.358 200.782 755.715 203.295 754.009 203.984L692.89 228.651C692.432 228.835 691.918 228.82 691.472 228.607L684.169 225.124L719.2 243.922L764.66 262.784L753.937 258.269C752.387 257.616 752.545 255.369 754.173 254.94L765.906 251.853L783.125 245.826C783.391 245.733 783.677 245.705 783.956 245.745L807.974 249.176C808.127 249.198 808.277 249.24 808.419 249.301L819.474 254.039C820.122 254.316 820.542 254.953 820.542 255.658V266.616C820.542 266.761 820.524 266.904 820.489 267.044L816.576 282.699C816.364 283.545 816.804 284.419 817.61 284.754L819.362 285.481C819.5 285.538 819.645 285.577 819.793 285.598L877.089 293.615C877.92 293.731 878.554 294.418 878.604 295.256L878.66 296.204C878.684 296.603 878.872 296.971 879.02 297.342C879.044 297.403 879.065 297.466 879.083 297.531L889.893 336.576C889.977 336.879 889.979 337.199 889.897 337.502L879.541 376.153C879.509 376.273 879.464 376.39 879.407 376.501L667.118 790.509L616.215 878.272C616.078 878.508 615.888 878.709 615.66 878.86L580.539 901.988C580.117 902.266 579.598 902.349 579.111 902.218L534.053 890.087L120.257 743.681C119.172 743.297 118.74 741.992 119.382 741.037L125.184 732.398C125.636 731.726 125.331 730.808 124.567 730.539V730.539C123.697 730.234 123.21 729.31 123.448 728.42L135.179 684.642C135.416 683.755 134.933 682.834 134.069 682.526L120.282 677.604C119.19 677.214 118.765 675.893 119.426 674.94L208.006 547.184C208.062 547.103 208.111 547.018 208.153 546.929L215.622 531.007C215.784 530.663 215.83 530.275 215.753 529.902L210.817 506.044C210.762 505.782 210.649 505.535 210.484 505.323L190.407 479.389C189.921 478.762 189.914 477.887 190.39 477.253L205.186 457.525C205.357 457.297 205.47 457.031 205.516 456.75L210.539 425.772C210.657 425.05 211.207 424.475 211.924 424.328L267.247 412.937C268.662 412.646 269.807 414.087 269.204 415.399L238.788 481.628L274.985 404.471C275.037 404.36 275.1 404.255 275.174 404.157L337.63 321.469L373.102 269.47C373.396 269.039 373.484 268.499 373.342 267.997L360.621 223.05C360.569 222.866 360.487 222.692 360.379 222.534L320.403 164.236C319.553 162.996 320.546 161.329 322.041 161.486L382.902 167.893C384.064 168.015 385.021 166.994 384.824 165.843L369.42 75.8483C369.129 74.1483 371.2 73.0854 372.412 74.3134L430.745 133.457C431.404 134.125 432.471 134.16 433.172 133.535L476.836 94.6349C478.057 93.5469 479.973 94.5645 479.755 96.1855L472.47 150.424C472.462 150.481 472.436 150.534 472.397 150.576V150.576C472.23 150.752 472.359 151.071 472.585 151.157V151.157L598.472 198.979L629.63 208.392L604.978 200.845ZM653.232 215.521L680.456 223.745C680.666 223.809 680.782 223.509 680.584 223.415V223.415C680.575 223.411 680.566 223.407 680.557 223.405L653.232 215.521Z" fill="#D6D045"/>
<path d="M684.169 225.124L699.341 193.308L667.502 256.184L684.169 225.124ZM719.2 243.922L702.534 274.982L704.075 275.809L705.691 276.479L719.2 243.922ZM764.66 262.784L751.151 295.341L778.338 230.297L764.66 262.784ZM765.906 251.853L774.877 285.941L776.23 285.585L777.551 285.123L765.906 251.853ZM819.362 285.481L805.853 318.038L805.854 318.039L819.362 285.481ZM819.793 285.598L824.677 250.689L824.676 250.689L819.793 285.598ZM877.089 293.615L872.204 328.524L872.205 328.524L877.089 293.615ZM878.604 295.256L843.417 297.342L843.417 297.343L878.604 295.256ZM879.083 297.531L913.054 288.125L913.054 288.124L879.083 297.531ZM889.893 336.576L923.865 327.172L923.864 327.17L889.893 336.576ZM889.897 337.502L855.85 328.379L855.849 328.379L889.897 337.502ZM879.541 376.153L913.587 385.281L913.589 385.276L879.541 376.153ZM879.407 376.501L848.041 360.417L848.041 360.417L879.407 376.501ZM667.118 790.509L697.609 808.194L698.067 807.404L698.483 806.592L667.118 790.509ZM616.215 878.272L585.724 860.587L585.723 860.588L616.215 878.272ZM615.66 878.86L596.275 849.42L596.273 849.421L615.66 878.86ZM580.539 901.988L599.924 931.428L599.925 931.427L580.539 901.988ZM579.111 902.218L569.947 936.255L569.949 936.256L579.111 902.218ZM534.053 890.087L522.295 923.317L523.577 923.771L524.889 924.124L534.053 890.087ZM120.257 743.681L108.499 776.911L108.5 776.911L120.257 743.681ZM119.382 741.037L148.643 760.691L148.643 760.691L119.382 741.037ZM123.448 728.42L89.4004 719.297L89.4004 719.297L123.448 728.42ZM120.282 677.604L108.431 710.801L108.431 710.801L120.282 677.604ZM119.426 674.94L148.393 695.025L148.394 695.024L119.426 674.94ZM208.006 547.184L179.039 527.099L179.039 527.1L208.006 547.184ZM208.153 546.929L176.241 531.958L176.241 531.958L208.153 546.929ZM238.788 481.628L206.756 466.917L270.7 496.599L238.788 481.628ZM274.985 404.471L306.897 419.442L306.898 419.439L274.985 404.471ZM275.174 404.157L247.047 382.912L247.047 382.913L275.174 404.157ZM337.63 321.469L365.757 342.714L366.27 342.036L366.749 341.333L337.63 321.469ZM598.472 198.979L585.955 231.931L587.103 232.367L588.279 232.722L598.472 198.979ZM629.63 208.392L619.437 242.135L639.948 174.687L629.63 208.392ZM653.232 215.521L663.003 181.654L643.039 249.264L653.232 215.521ZM680.557 223.405L690.328 189.537L680.557 223.405ZM680.456 223.745L670.263 257.488L680.456 223.745ZM430.745 133.457L405.649 158.209L430.745 133.457ZM433.172 133.535L456.62 159.854L433.172 133.535ZM384.824 165.843L350.08 171.79L384.824 165.843ZM320.403 164.236L349.474 144.301L320.403 164.236ZM322.041 161.486L318.351 196.542L322.041 161.486ZM360.621 223.05L394.538 213.451L360.621 223.05ZM360.379 222.534L331.308 242.468L360.379 222.534ZM215.622 531.007L247.534 545.978L215.622 531.007ZM215.753 529.902L250.27 522.76L215.753 529.902ZM816.576 282.699L850.772 291.248L816.576 282.699ZM817.61 284.754L804.101 317.311L817.61 284.754ZM135.179 684.642L101.131 675.518L135.179 684.642ZM134.069 682.526L145.92 649.329L134.069 682.526ZM820.489 267.044L854.686 275.593L820.489 267.044ZM819.474 254.039L805.588 286.437L819.474 254.039ZM472.47 150.424L437.534 145.731L472.47 150.424ZM807.974 249.176L812.959 214.281L807.974 249.176ZM808.419 249.301L822.304 216.902L808.419 249.301ZM373.102 269.47L343.983 249.606L373.102 269.47ZM373.342 267.997L407.259 258.398L373.342 267.997ZM692.89 228.651L706.083 261.338L692.89 228.651ZM753.528 200.596L749.962 235.664L753.528 200.596ZM754.009 203.984L767.201 236.671L754.009 203.984ZM681.19 191.131L647.449 180.929L681.19 191.131ZM682.698 193.394L686.264 158.326L682.698 193.394ZM688.283 157.1L670.381 126.736L688.283 157.1ZM690.865 159.129L724.606 169.33L724.606 169.33L690.865 159.129ZM652.324 175.504L687.141 170.001L652.324 175.504ZM654.96 176.747L637.058 146.382L654.96 176.747ZM125.184 732.398L95.9237 712.744L125.184 732.398ZM476.836 94.6349L453.388 68.3159L476.836 94.6349ZM479.755 96.1855L514.691 100.878L479.755 96.1855ZM783.125 245.826L771.48 212.556L783.125 245.826ZM783.956 245.745L778.971 280.64L783.956 245.745ZM606.646 176.706L572.348 168.575L606.646 176.706ZM210.539 425.772L245.334 431.414L210.539 425.772ZM267.247 412.937L260.139 378.413L267.247 412.937ZM269.204 415.399L237.172 400.688L269.204 415.399ZM632.106 69.32L666.404 77.4516L632.106 69.32ZM635.562 69.4514L600.745 74.9545L635.562 69.4514ZM604.369 200.516L581.853 227.637L604.369 200.516ZM604.978 200.845L615.296 167.14L615.296 167.14L604.978 200.845ZM205.186 457.525L233.385 478.674L205.186 457.525ZM205.516 456.75L240.31 462.392L205.516 456.75ZM369.42 75.8483L404.163 69.9012L369.42 75.8483ZM372.412 74.3134L397.508 49.5611L372.412 74.3134ZM753.937 258.269L740.259 290.756L753.937 258.269ZM754.173 254.94L745.202 220.852L754.173 254.94ZM581.079 181.181L603.594 154.06L581.079 181.181ZM190.407 479.389L218.279 457.811L190.407 479.389ZM190.39 477.253L162.191 456.103L190.39 477.253ZM210.817 506.044L245.334 498.903L210.817 506.044ZM210.484 505.323L238.356 483.744L210.484 505.323ZM878.66 296.204L843.473 298.292L843.473 298.292L878.66 296.204ZM879.02 297.342L911.772 284.313L879.02 297.342ZM558.563 208.302L581.853 227.637L626.884 173.395L603.594 154.06L558.563 208.302ZM604.931 142.813H582.205V213.311H604.931V142.813ZM597.808 61.1884L572.348 168.575L640.944 184.838L666.404 77.4516L597.808 61.1884ZM687.141 170.001L670.379 63.9484L600.745 74.9545L617.507 181.007L687.141 170.001ZM670.381 126.736L637.058 146.382L672.862 207.111L706.185 187.465L670.381 126.736ZM714.93 201.332L724.606 169.33L657.125 148.927L647.449 180.929L714.93 201.332ZM757.093 165.528L686.264 158.326L679.133 228.462L749.962 235.664L757.093 165.528ZM706.083 261.338L767.201 236.671L740.817 171.297L679.698 195.963L706.083 261.338ZM668.996 256.941L676.3 260.424L706.644 196.791L699.341 193.308L668.996 256.941ZM735.866 212.862L700.835 194.064L667.502 256.184L702.534 274.982L735.866 212.862ZM778.169 230.226L732.709 211.364L705.691 276.479L751.151 295.341L778.169 230.226ZM740.259 290.756L750.981 295.27L778.338 230.297L767.616 225.782L740.259 290.756ZM756.935 217.764L745.202 220.852L763.143 289.029L774.877 285.941L756.935 217.764ZM771.48 212.556L754.262 218.583L777.551 285.123L794.769 279.096L771.48 212.556ZM812.959 214.281L788.941 210.85L778.971 280.64L802.989 284.071L812.959 214.281ZM833.359 221.64L822.304 216.902L794.534 281.7L805.588 286.437L833.359 221.64ZM855.791 266.616V255.658H785.293V266.616H855.791ZM850.772 291.248L854.686 275.593L786.293 258.495L782.379 274.15L850.772 291.248ZM832.871 252.923L831.119 252.196L804.101 317.311L805.853 318.038L832.871 252.923ZM824.676 250.689C827.492 251.083 830.245 251.834 832.869 252.922L805.854 318.039C808.754 319.242 811.797 320.072 814.91 320.507L824.676 250.689ZM881.973 258.706L824.677 250.689L814.909 320.507L872.204 328.524L881.973 258.706ZM913.791 293.17C912.747 275.568 899.433 261.148 881.972 258.706L872.205 328.524C856.408 326.314 844.361 313.267 843.417 297.342L913.791 293.17ZM913.847 294.117L913.791 293.168L843.417 297.343L843.473 298.292L913.847 294.117ZM913.054 288.124C912.697 286.836 912.27 285.564 911.772 284.313L846.267 310.371C845.818 309.242 845.433 308.095 845.112 306.937L913.054 288.124ZM923.864 327.17L913.054 288.125L845.112 306.936L855.923 345.981L923.864 327.17ZM923.945 346.626C925.654 340.248 925.625 333.531 923.865 327.172L855.922 345.98C854.329 340.226 854.303 334.149 855.85 328.379L923.945 346.626ZM913.589 385.276L923.945 346.625L855.849 328.379L845.493 367.03L913.589 385.276ZM910.772 392.585C911.969 390.251 912.912 387.802 913.587 385.281L845.495 367.024C846.106 364.744 846.958 362.529 848.041 360.417L910.772 392.585ZM698.483 806.592L910.773 392.584L848.041 360.417L635.752 774.426L698.483 806.592ZM646.706 895.957L697.609 808.194L636.626 772.824L585.724 860.587L646.706 895.957ZM635.045 908.3C639.835 905.145 643.828 900.92 646.707 895.956L585.723 860.588C588.328 856.096 591.941 852.273 596.275 849.42L635.045 908.3ZM599.925 931.427L635.046 908.299L596.273 849.421L561.152 872.549L599.925 931.427ZM569.949 936.256C580.171 939.007 591.083 937.25 599.924 931.428L561.153 872.549C569.152 867.281 579.025 865.691 588.273 868.181L569.949 936.256ZM524.889 924.124L569.947 936.255L588.275 868.181L543.217 856.05L524.889 924.124ZM108.5 776.911L522.295 923.317L545.81 856.857L132.015 710.45L108.5 776.911ZM90.1214 721.382C76.6403 741.452 85.7086 768.847 108.499 776.911L132.015 710.451C152.636 717.747 160.84 742.532 148.643 760.691L90.1214 721.382ZM95.9237 712.744L90.1214 721.382L148.643 760.691L154.445 752.053L95.9237 712.744ZM89.4004 719.297C84.3918 737.99 94.6288 757.384 112.887 763.797L136.247 697.282C152.766 703.083 162.028 720.631 157.496 737.543L89.4004 719.297ZM101.131 675.518L89.4004 719.297L157.496 737.543L169.227 693.765L101.131 675.518ZM108.431 710.801L122.218 715.722L145.92 649.329L132.133 644.407L108.431 710.801ZM90.4594 654.855C76.579 674.874 85.4892 702.61 108.431 710.801L132.134 644.407C152.89 651.817 160.952 676.912 148.393 695.025L90.4594 654.855ZM179.039 527.1L90.4592 654.855L148.394 695.024L236.973 567.269L179.039 527.1ZM176.241 531.958C177.036 530.265 177.971 528.639 179.039 527.099L236.973 567.269C238.153 565.567 239.187 563.771 240.065 561.899L176.241 531.958ZM183.711 516.036L176.241 531.958L240.065 561.899L247.534 545.978L183.711 516.036ZM176.299 513.186L181.235 537.043L250.27 522.76L245.334 498.903L176.299 513.186ZM162.535 500.968L182.612 526.901L238.356 483.744L218.279 457.811L162.535 500.968ZM176.987 436.375L162.191 456.103L218.59 498.402L233.385 478.674L176.987 436.375ZM175.745 420.129L170.722 451.107L240.31 462.392L245.334 431.414L175.745 420.129ZM260.139 378.413L204.816 389.803L219.032 458.852L274.355 447.462L260.139 378.413ZM270.82 496.339L301.236 430.11L237.172 400.688L206.756 466.917L270.82 496.339ZM243.073 389.5L206.876 466.657L270.7 496.599L306.897 419.442L243.073 389.5ZM247.047 382.913C245.497 384.965 244.165 387.173 243.072 389.503L306.898 419.439C305.909 421.547 304.704 423.546 303.302 425.402L247.047 382.913ZM309.503 300.224L247.047 382.912L303.301 425.402L365.757 342.714L309.503 300.224ZM343.983 249.606L308.511 301.605L366.749 341.333L402.221 289.334L343.983 249.606ZM326.704 232.65L339.425 277.596L407.259 258.398L394.538 213.451L326.704 232.65ZM291.332 184.17L331.308 242.468L389.45 202.599L349.474 144.301L291.332 184.17ZM386.592 132.837L325.731 126.431L318.351 196.542L379.212 202.948L386.592 132.837ZM334.676 81.7955L350.08 171.79L419.568 159.895L404.163 69.9012L334.676 81.7955ZM455.841 108.705L397.508 49.5611L347.316 99.0657L405.649 158.209L455.841 108.705ZM453.388 68.3159L409.724 107.216L456.62 159.854L500.284 120.954L453.388 68.3159ZM507.405 155.117L514.691 100.878L444.82 91.4927L437.534 145.731L507.405 155.117ZM610.99 166.028L485.103 118.206L460.068 184.109L585.955 231.931L610.99 166.028ZM639.824 174.649L608.665 165.236L588.279 232.722L619.437 242.135L639.824 174.649ZM594.661 234.55L619.312 242.097L639.948 174.687L615.296 167.14L594.661 234.55ZM690.649 190.002L663.425 181.778L643.039 249.264L670.263 257.488L690.649 190.002ZM643.461 249.389L670.786 257.272L690.328 189.537L663.003 181.654L643.461 249.389ZM695.756 191.598C694.006 190.764 692.19 190.074 690.328 189.537L670.786 257.272C668.942 256.74 667.144 256.058 665.412 255.231L695.756 191.598ZM670.263 257.488C712.177 270.15 735.276 210.444 695.756 191.598L665.412 255.231C626.288 236.575 649.156 177.468 690.649 190.002L670.263 257.488ZM405.649 158.209C419.491 172.243 441.902 172.967 456.62 159.854L409.724 107.216C423.041 95.3531 443.318 96.0076 455.841 108.705L405.649 158.209ZM379.212 202.948C403.607 205.516 423.706 184.074 419.568 159.895L350.08 171.79C346.336 149.914 364.521 130.514 386.592 132.837L379.212 202.948ZM349.474 144.301C365.629 167.862 346.761 199.532 318.351 196.542L325.731 126.431C294.33 123.126 273.476 158.13 291.332 184.17L349.474 144.301ZM394.538 213.451C393.443 209.582 391.724 205.916 389.45 202.599L331.308 242.468C329.25 239.467 327.695 236.151 326.704 232.65L394.538 213.451ZM247.534 545.978C250.931 538.738 251.891 530.592 250.27 522.76L181.235 537.043C179.769 529.958 180.637 522.587 183.711 516.036L247.534 545.978ZM782.379 274.15C777.934 291.931 787.172 310.287 804.101 317.311L831.119 252.196C846.436 258.552 854.794 275.16 850.772 291.248L782.379 274.15ZM169.227 693.765C174.216 675.143 164.076 655.81 145.92 649.329L122.218 715.722C105.791 709.858 96.6165 692.366 101.131 675.518L169.227 693.765ZM785.293 266.616C785.293 263.879 785.629 261.151 786.293 258.495L854.686 275.593C855.42 272.657 855.791 269.643 855.791 266.616H785.293ZM446.816 126.325C435.064 138.721 436.054 153.991 439.105 162.633C442.087 171.082 448.921 179.874 460.068 184.109L485.103 118.206C496.023 122.354 502.68 130.944 505.583 139.167C508.554 147.585 509.563 162.607 497.977 174.828L446.816 126.325ZM805.588 286.437C793.276 281.161 785.293 269.054 785.293 255.658H855.791C855.791 240.853 846.968 227.472 833.359 221.64L805.588 286.437ZM437.534 145.731C438.513 138.448 441.761 131.658 446.816 126.325L497.977 174.828C503.112 169.411 506.411 162.514 507.405 155.117L437.534 145.731ZM802.989 284.071C800.079 283.655 797.236 282.858 794.534 281.7L822.304 216.902C819.318 215.622 816.176 214.741 812.959 214.281L802.989 284.071ZM402.221 289.334C408.399 280.277 410.244 268.947 407.259 258.398L339.425 277.596C336.724 268.051 338.393 257.801 343.983 249.606L402.221 289.334ZM679.698 195.963C688.399 192.452 698.175 192.752 706.644 196.791L676.3 260.424C685.661 264.888 696.465 265.219 706.083 261.338L679.698 195.963ZM749.962 235.664C715.19 232.128 708.406 184.377 740.817 171.297L767.201 236.671C803.023 222.213 795.526 169.436 757.093 165.528L749.962 235.664ZM647.449 180.929C640.712 203.212 655.974 226.107 679.133 228.462L686.264 158.326C707.217 160.456 721.026 181.171 714.93 201.332L647.449 180.929ZM706.185 187.465C679.913 202.954 648.298 178.121 657.125 148.927L724.606 169.33C734.361 137.063 699.419 109.616 670.381 126.736L706.185 187.465ZM617.507 181.007C621.584 206.799 650.368 220.373 672.862 207.111L637.058 146.382C657.41 134.383 683.452 146.665 687.141 170.001L617.507 181.007ZM154.445 752.053C167.755 732.238 158.768 705.191 136.247 697.281L112.887 763.797C91.8946 756.424 83.5178 731.213 95.9237 712.744L154.445 752.053ZM500.284 120.954C477.082 141.625 440.683 122.291 444.82 91.4927L514.691 100.878C519.263 66.8383 479.033 45.469 453.388 68.3159L500.284 120.954ZM794.769 279.096C789.703 280.869 784.285 281.399 778.971 280.64L788.941 210.85C783.068 210.011 777.08 210.596 771.48 212.556L794.769 279.096ZM604.931 213.311C622.083 213.311 636.988 201.527 640.944 184.838L572.348 168.575C575.928 153.475 589.413 142.813 604.931 142.813V213.311ZM245.334 431.414C243.109 445.132 232.643 456.05 219.032 458.852L204.816 389.803C189.771 392.9 178.204 404.968 175.745 420.129L245.334 431.414ZM274.355 447.462C247.477 452.996 225.719 425.625 237.172 400.688L301.236 430.11C313.895 402.548 289.846 372.296 260.139 378.413L274.355 447.462ZM666.404 77.4516C657.938 113.163 606.475 111.206 600.745 74.9545L670.379 63.9484C664.046 23.8815 607.166 21.7181 597.808 61.1884L666.404 77.4516ZM581.853 227.637C585.622 230.766 589.976 233.116 594.661 234.55L615.296 167.14C619.535 168.437 623.474 170.564 626.884 173.395L581.853 227.637ZM233.385 478.674C236.976 473.886 239.352 468.299 240.31 462.392L170.722 451.107C171.588 445.762 173.738 440.707 176.987 436.375L233.385 478.674ZM404.163 69.9012C409.692 102.202 370.327 122.397 347.316 99.0657L397.508 49.5611C372.074 23.7737 328.565 46.0951 334.676 81.7955L404.163 69.9012ZM767.616 225.782C797.083 238.189 794.063 280.892 763.143 289.029L745.202 220.852C711.028 229.845 707.69 277.043 740.259 290.756L767.616 225.782ZM603.594 154.06C627.716 174.085 613.556 213.311 582.205 213.311V142.813C547.554 142.813 531.903 186.168 558.563 208.302L603.594 154.06ZM218.279 457.811C227.506 469.729 227.633 486.344 218.59 498.402L162.191 456.103C152.195 469.431 152.336 487.794 162.535 500.968L218.279 457.811ZM245.334 498.903C244.193 493.385 241.806 488.2 238.356 483.744L182.612 526.901C179.491 522.87 177.332 518.179 176.299 513.186L245.334 498.903ZM843.473 298.292C843.769 303.286 845.033 307.089 845.672 308.843C845.999 309.742 846.299 310.457 846.378 310.647C846.551 311.061 846.377 310.648 846.267 310.371L911.772 284.313C911.588 283.851 911.336 283.252 911.431 283.481C911.433 283.485 911.657 284.014 911.915 284.724C912.417 286.102 913.574 289.521 913.847 294.117L843.473 298.292Z" fill="#443D3D" mask="url(#path-1-outside-1_442_363)"/>
<path d="M667.119 790.509L879.408 376.501C879.465 376.39 879.51 376.273 879.542 376.153L889.899 337.502C889.98 337.199 889.979 336.879 889.895 336.576L879.084 297.531C878.727 296.241 877.119 295.804 876.158 296.736L820.381 350.873C819.887 351.352 819.159 351.5 818.517 351.252L472.801 217.341C472.033 217.044 471.161 217.318 470.702 218.002L119.383 741.037C118.742 741.992 119.173 743.297 120.259 743.681L534.054 890.087L579.112 902.218C579.599 902.349 580.119 902.266 580.54 901.988L615.661 878.86C615.889 878.71 616.079 878.508 616.216 878.272L667.119 790.509Z" fill="#4A4A4A"/>
<path d="M124.568 730.539C123.699 730.234 123.211 729.31 123.45 728.42L137.128 677.372C137.395 676.376 138.456 675.821 139.427 676.17L564.106 828.992C564.353 829.081 564.573 829.225 564.772 829.395C568.338 832.43 584.221 839.098 586.368 849.588C588.489 859.954 579.234 879.799 573.225 886.979C572.778 887.513 572.048 887.682 571.39 887.451L124.568 730.539Z" fill="#C0C0C0"/>
<path d="M540.223 827.52L586.293 849.701C587.142 850.11 588.161 849.779 588.609 848.951L879.256 310.683C879.412 310.394 879.484 310.068 879.464 309.741L878.605 295.256C878.555 294.418 877.921 293.731 877.09 293.615L819.794 285.598C819.646 285.578 819.501 285.538 819.363 285.481L719.201 243.922L683.226 224.618C683.123 224.563 683.015 224.518 682.903 224.484L598.474 198.979L472.587 151.157C471.921 150.905 471.169 151.077 470.68 151.594L409.107 216.731C409.043 216.798 408.984 216.871 408.932 216.948L337.631 321.469L275.175 404.157C275.102 404.255 275.038 404.36 274.986 404.471L208.154 546.929C208.113 547.018 208.063 547.103 208.007 547.184L119.428 674.94C118.767 675.893 119.191 677.214 120.283 677.604L540.223 827.52Z" fill="#747373"/>
<path d="M682.802 798.551L682.594 798.957L682.365 799.351L631.462 887.115C629.955 889.714 627.864 891.927 625.354 893.579L590.233 916.708C585.601 919.758 579.885 920.678 574.53 919.237L529.472 907.106L528.816 906.929L528.175 906.702L114.38 760.296C102.441 756.072 97.6918 741.722 104.753 731.209L105.778 729.684C105.698 727.765 105.904 725.804 106.426 723.859L114.371 694.207L114.358 694.202C102.341 689.912 97.6737 675.383 104.944 664.897L192.764 538.237L259.03 396.986C259.603 395.766 260.3 394.61 261.112 393.535L323.311 311.186L394.372 207.016C394.95 206.169 395.594 205.369 396.299 204.623L457.872 139.487C463.251 133.797 471.526 131.901 478.845 134.682L604.158 182.285L687.999 207.612C689.232 207.985 690.425 208.479 691.559 209.088L726.764 227.978L824.244 268.425L879.532 276.16C888.209 277.374 894.931 284.235 896.064 292.808C896.066 292.815 896.068 292.821 896.07 292.828L906.88 331.873C907.803 335.206 907.817 338.724 906.923 342.064L896.566 380.714C896.211 382.039 895.717 383.322 895.091 384.542L682.802 798.551Z" stroke="#3C3C3C" stroke-width="35.2489"/>
<path d="M545.549 791.866C548.041 796.183 708.827 471.909 800.439 303.655C694.678 262.544 481.626 179.912 475.498 178.27C469.369 176.628 270.023 499.085 171.116 660.519C302.64 707.62 543.056 787.549 545.549 791.866Z" fill="#5F5F5F"/>
<path d="M537.505 749.074C539.657 752.802 678.473 472.836 757.567 327.572C666.258 292.079 482.317 220.738 477.026 219.32C471.734 217.903 299.627 496.299 214.235 635.674C327.787 676.34 535.353 745.347 537.505 749.074Z" fill="#555555"/>
<path d="M537.505 749.074C539.657 752.802 678.473 472.836 757.567 327.572C666.258 292.079 482.317 220.738 477.026 219.32C471.734 217.903 299.627 496.299 214.235 635.674C327.787 676.34 535.353 745.347 537.505 749.074Z" fill="#555555"/>
<path d="M525.309 684.183C526.944 687.015 632.444 474.242 692.555 363.842C623.16 336.867 483.366 282.648 479.344 281.571C475.323 280.493 344.522 492.074 279.624 597.999C365.924 628.905 523.673 681.35 525.309 684.183Z" fill="#555555"/>
<path d="M525.309 684.183C526.944 687.015 632.444 474.242 692.555 363.842C623.16 336.867 483.366 282.648 479.344 281.571C475.323 280.493 344.522 492.074 279.624 597.999C365.924 628.905 523.673 681.35 525.309 684.183Z" fill="#4A4A4A"/>
<path d="M125.328 688.393L119.325 676.749L540.056 825.976L590.094 850.331L588.041 857.992L125.328 688.393Z" fill="#4A4A4A"/>
<path d="M385.218 168.136L318.245 161.086L360.543 222.772L373.762 269.477L408.129 218.366L472.459 150.512L480.39 91.4698L431.922 134.65L368.474 70.3204L385.218 168.136Z" fill="#E9ACFF"/>
<path d="M419.585 176.949C418.175 174.834 386.099 106.157 370.237 72.0829L384.336 167.255C396.673 171.367 420.995 179.063 419.585 176.949Z" fill="#EFC1FF"/>
<path d="M448.665 151.393C458.946 132.594 479.508 94.466 479.508 92.351L432.803 133.769L448.665 151.393Z" fill="#EFC1FF"/>
<path d="M397.555 209.554C372.587 193.692 322.122 161.791 320.007 161.086L359.662 221.891L397.555 209.554Z" fill="#EFC1FF"/>
<path d="M577.324 178.062L604.642 200.742L647.822 213.96L680.572 223.409L692.173 228.941L760.618 201.317L680.572 193.178L692.173 154.808L652.73 178.062L634.168 60.627L606.326 178.062H577.324Z" fill="#9FD1FF"/>
<path d="M630.198 182.877L634.793 62.3894L653.173 178.243L630.198 182.877Z" fill="#C3E2FF"/>
<path d="M661.214 190.986L692.23 155.072L680.742 193.303L661.214 190.986Z" fill="#C3E2FF"/>
<path d="M663.511 215.316L758.856 201.413L692.23 228.059L663.511 218.791V215.316Z" fill="#C3E2FF"/>
<path d="M210.735 424.572L270.658 412.235L216.022 531.2L210.735 505.645L189.585 478.327L205.447 457.178L210.735 424.572Z" fill="#D6D045"/>
<path d="M212.498 456.297L214.26 428.097L231.885 426.335L261.846 421.048C255.971 427.216 243.869 439.906 242.459 441.316C241.049 442.726 232.472 451.89 228.36 456.297L216.904 473.921L212.498 497.714L196.636 478.327L212.498 456.297Z" fill="#E9E46E"/>
<path d="M765.906 251.853L749.163 256.259L816.136 284.458L820.542 266.833V254.496L808.205 249.209L783.531 245.684L765.906 251.853Z" fill="#D6D045"/>
<path d="M810.848 265.952L772.074 258.902L801.155 253.615L816.135 258.902L810.848 265.952Z" fill="#E5E066"/>
<path d="M371.118 683.652L360.543 662.503L526.214 371.699L488.321 362.887L460.122 350.55H394.03L444.26 320.588L498.896 312.657L550.888 320.588L563.225 284.458L623.148 304.726L605.524 333.807C619.329 340.856 648.88 356.542 656.635 362.887C664.389 369.232 683.953 394.317 692.765 406.067L701.577 452.772L682.19 430.741L641.654 395.492L579.968 384.036L403.723 690.702L371.118 683.652Z" fill="#8F8F8F"/>
<path d="M441.615 695.989L401.078 688.939L579.085 384.036L636.365 393.73L659.277 406.067C665.739 413.116 679.369 428.097 682.189 431.622C685.008 435.147 695.113 444.841 699.813 449.247L665.445 463.346L588.779 414.879L441.615 695.989Z" fill="#686868"/>
<path d="M431.04 377.868L394.91 351.431H461.883C464.703 351.431 480.682 359.068 488.319 362.887L527.093 371.699L512.112 393.73L431.04 377.868Z" fill="#686868"/>
<path d="M626.671 345.262C625.203 334.1 622.089 310.895 621.384 307.37L605.522 332.925L626.671 345.262Z" fill="#686868"/>
</svg>
