<svg width="400" height="400" viewBox="0 0 400 400" fill="none" xmlns="http://www.w3.org/2000/svg">
<mask id="path-1-outside-1_442_363" maskUnits="userSpaceOnUse" x="32.5679" y="11.9333" width="338" height="363" fill="black">
<rect fill="white" x="32.5679" y="11.9333" width="338" height="363"/>
<path fill-rule="evenodd" clip-rule="evenodd" d="M241.83 80.0595C241.741 80.0322 241.658 79.9875 241.587 79.9279L232.275 72.1977C231.768 71.7763 232.066 70.9509 232.725 70.9509H241.812C242.138 70.9509 242.422 70.7266 242.497 70.4089L252.676 27.4755C252.854 26.724 253.937 26.7652 254.058 27.528L260.759 69.928C260.837 70.419 261.385 70.6774 261.813 70.4249L275.136 62.5703C275.689 62.2444 276.354 62.7669 276.168 63.3812L272.3 76.1757C272.172 76.5999 272.462 77.0358 272.903 77.0806L301.221 79.96C301.953 80.0344 302.095 81.0392 301.413 81.3144L276.978 91.1763C276.795 91.2502 276.589 91.2439 276.411 91.1589L273.493 89.7676L287.497 97.2816L305.635 104.807L301.384 103.018C300.764 102.757 300.828 101.858 301.478 101.687L306.169 100.452L313.053 98.043C313.16 98.0057 313.274 97.9946 313.386 98.0105L322.988 99.3823C323.049 99.3911 323.109 99.4078 323.166 99.4322L327.586 101.326C327.845 101.437 328.013 101.692 328.013 101.974V106.355C328.013 106.413 328.006 106.47 327.992 106.526L326.427 112.785C326.343 113.123 326.518 113.473 326.841 113.606L327.542 113.897C327.597 113.92 327.655 113.936 327.714 113.944L350.621 117.149C350.953 117.196 351.207 117.47 351.227 117.805L351.249 118.184C351.259 118.344 351.334 118.491 351.393 118.639C351.403 118.664 351.411 118.689 351.418 118.715L355.74 134.325C355.774 134.446 355.775 134.574 355.742 134.695L351.602 150.148C351.589 150.196 351.571 150.243 351.548 150.287L266.674 315.809L246.323 350.897C246.268 350.991 246.192 351.072 246.101 351.132L232.059 360.379C231.891 360.489 231.683 360.523 231.489 360.47L213.474 355.62L48.0378 297.087C47.6039 296.933 47.4312 296.412 47.6879 296.03L50.0077 292.576C50.1883 292.307 50.0663 291.94 49.7607 291.833V291.833C49.4131 291.711 49.2182 291.341 49.3135 290.985L54.0034 273.483C54.0984 273.128 53.9053 272.76 53.5597 272.637L48.0477 270.669C47.6109 270.513 47.4413 269.985 47.7056 269.604L83.1199 218.527C83.1423 218.495 83.162 218.46 83.1787 218.425L86.1648 212.06C86.2295 211.922 86.2478 211.767 86.2169 211.618L84.2435 202.079C84.2217 201.974 84.1763 201.875 84.1106 201.791L76.0836 191.422C75.8894 191.171 75.8867 190.822 76.077 190.568L81.9925 182.681C82.0608 182.59 82.1061 182.483 82.1243 182.371L84.1327 169.986C84.1795 169.697 84.3997 169.467 84.6861 169.408L106.805 164.855C107.37 164.738 107.828 165.314 107.587 165.839L95.4223 192.326L109.898 161.47C109.919 161.425 109.944 161.383 109.974 161.344L134.944 128.285L149.126 107.496C149.243 107.324 149.278 107.108 149.221 106.907L144.136 88.9374C144.115 88.8637 144.082 88.7939 144.039 88.7308L128.056 65.4231C127.716 64.9274 128.114 64.2609 128.711 64.3239L153.044 66.8852C153.508 66.9341 153.891 66.5258 153.812 66.0655L147.653 30.0856C147.537 29.4059 148.365 28.981 148.85 29.4719L172.171 53.1177C172.435 53.3849 172.862 53.3987 173.142 53.149L190.599 37.5965C191.087 37.1615 191.853 37.5684 191.766 38.2164L188.853 59.9011C188.85 59.9239 188.84 59.9453 188.824 59.962V59.962C188.757 60.0321 188.809 60.1599 188.9 60.1942V60.1942L239.229 79.3135L251.662 83.0691L241.83 80.0595ZM261.13 85.9292L272.007 89.215C272.091 89.2403 272.137 89.1208 272.058 89.083V89.083C272.054 89.0814 272.051 89.08 272.047 89.0789L261.13 85.9292Z"/>
</mask>
<path fill-rule="evenodd" clip-rule="evenodd" d="M241.83 80.0595C241.741 80.0322 241.658 79.9875 241.587 79.9279L232.275 72.1977C231.768 71.7763 232.066 70.9509 232.725 70.9509H241.812C242.138 70.9509 242.422 70.7266 242.497 70.4089L252.676 27.4755C252.854 26.724 253.937 26.7652 254.058 27.528L260.759 69.928C260.837 70.419 261.385 70.6774 261.813 70.4249L275.136 62.5703C275.689 62.2444 276.354 62.7669 276.168 63.3812L272.3 76.1757C272.172 76.5999 272.462 77.0358 272.903 77.0806L301.221 79.96C301.953 80.0344 302.095 81.0392 301.413 81.3144L276.978 91.1763C276.795 91.2502 276.589 91.2439 276.411 91.1589L273.493 89.7676L287.497 97.2816L305.635 104.807L301.384 103.018C300.764 102.757 300.828 101.858 301.478 101.687L306.169 100.452L313.053 98.043C313.16 98.0057 313.274 97.9946 313.386 98.0105L322.988 99.3823C323.049 99.3911 323.109 99.4078 323.166 99.4322L327.586 101.326C327.845 101.437 328.013 101.692 328.013 101.974V106.355C328.013 106.413 328.006 106.47 327.992 106.526L326.427 112.785C326.343 113.123 326.518 113.473 326.841 113.606L327.542 113.897C327.597 113.92 327.655 113.936 327.714 113.944L350.621 117.149C350.953 117.196 351.207 117.47 351.227 117.805L351.249 118.184C351.259 118.344 351.334 118.491 351.393 118.639C351.403 118.664 351.411 118.689 351.418 118.715L355.74 134.325C355.774 134.446 355.775 134.574 355.742 134.695L351.602 150.148C351.589 150.196 351.571 150.243 351.548 150.287L266.674 315.809L246.323 350.897C246.268 350.991 246.192 351.072 246.101 351.132L232.059 360.379C231.891 360.489 231.683 360.523 231.489 360.47L213.474 355.62L48.0378 297.087C47.6039 296.933 47.4312 296.412 47.6879 296.03L50.0077 292.576C50.1883 292.307 50.0663 291.94 49.7607 291.833V291.833C49.4131 291.711 49.2182 291.341 49.3135 290.985L54.0034 273.483C54.0984 273.128 53.9053 272.76 53.5597 272.637L48.0477 270.669C47.6109 270.513 47.4413 269.985 47.7056 269.604L83.1199 218.527C83.1423 218.495 83.162 218.46 83.1787 218.425L86.1648 212.06C86.2295 211.922 86.2478 211.767 86.2169 211.618L84.2435 202.079C84.2217 201.974 84.1763 201.875 84.1106 201.791L76.0836 191.422C75.8894 191.171 75.8867 190.822 76.077 190.568L81.9925 182.681C82.0608 182.59 82.1061 182.483 82.1243 182.371L84.1327 169.986C84.1795 169.697 84.3997 169.467 84.6861 169.408L106.805 164.855C107.37 164.738 107.828 165.314 107.587 165.839L95.4223 192.326L109.898 161.47C109.919 161.425 109.944 161.383 109.974 161.344L134.944 128.285L149.126 107.496C149.243 107.324 149.278 107.108 149.221 106.907L144.136 88.9374C144.115 88.8637 144.082 88.7939 144.039 88.7308L128.056 65.4231C127.716 64.9274 128.114 64.2609 128.711 64.3239L153.044 66.8852C153.508 66.9341 153.891 66.5258 153.812 66.0655L147.653 30.0856C147.537 29.4059 148.365 28.981 148.85 29.4719L172.171 53.1177C172.435 53.3849 172.862 53.3987 173.142 53.149L190.599 37.5965C191.087 37.1615 191.853 37.5684 191.766 38.2164L188.853 59.9011C188.85 59.9239 188.84 59.9453 188.824 59.962V59.962C188.757 60.0321 188.809 60.1599 188.9 60.1942V60.1942L239.229 79.3135L251.662 83.0691L241.83 80.0595ZM261.13 85.9292L272.007 89.215C272.091 89.2403 272.137 89.1208 272.058 89.083V89.083C272.054 89.0814 272.051 89.08 272.047 89.0789L261.13 85.9292Z" fill="#D6D045"/>
<path d="M273.493 89.7676L279.559 77.0473L266.83 102.185L273.493 89.7676ZM287.497 97.2816L280.833 109.699L281.45 110.03L282.096 110.298L287.497 97.2816ZM305.635 104.807L300.234 117.824L311.104 91.8192L305.635 104.807ZM306.169 100.452L309.756 114.081L310.297 113.939L310.825 113.754L306.169 100.452ZM327.542 113.897L332.944 100.881L332.942 100.88L327.542 113.897ZM327.714 113.944L329.667 99.9873L329.666 99.9873L327.714 113.944ZM350.621 117.149L348.668 131.106L348.668 131.106L350.621 117.149ZM351.227 117.805L365.295 116.971L365.295 116.97L351.227 117.805ZM351.418 118.715L365 114.954L365 114.954L351.418 118.715ZM355.74 134.325L369.323 130.567L369.322 130.565L355.74 134.325ZM355.742 134.695L342.13 131.047L342.13 131.048L355.742 134.695ZM351.602 150.148L365.213 153.797L365.214 153.795L351.602 150.148ZM351.548 150.287L364.088 156.717L364.089 156.716L351.548 150.287ZM266.674 315.809L278.865 322.879L279.048 322.564L279.214 322.239L266.674 315.809ZM246.323 350.897L234.132 343.826L234.132 343.827L246.323 350.897ZM246.101 351.132L238.35 339.362L238.35 339.362L246.101 351.132ZM232.059 360.379L239.81 372.149L239.81 372.148L232.059 360.379ZM231.489 360.47L227.825 374.079L227.825 374.079L231.489 360.47ZM213.474 355.62L208.774 368.906L209.286 369.087L209.811 369.228L213.474 355.62ZM48.0378 297.087L43.337 310.372L43.3372 310.372L48.0378 297.087ZM47.6879 296.03L59.3864 303.888L59.3865 303.887L47.6879 296.03ZM49.3135 290.985L62.9259 294.633L62.926 294.633L49.3135 290.985ZM48.0477 270.669L52.7858 257.397L52.7855 257.397L48.0477 270.669ZM47.7056 269.604L59.2867 277.634L59.2868 277.634L47.7056 269.604ZM83.1199 218.527L71.5397 210.496L71.5387 210.497L83.1199 218.527ZM83.1787 218.425L70.4203 212.439L70.4201 212.44L83.1787 218.425ZM95.4223 192.326L82.6157 186.445L108.181 198.312L95.4223 192.326ZM109.898 161.47L122.657 167.455L122.657 167.455L109.898 161.47ZM109.974 161.344L121.219 169.839L121.219 169.838L109.974 161.344ZM134.944 128.285L146.189 136.779L146.394 136.508L146.586 136.227L134.944 128.285ZM239.229 79.3135L234.225 92.4876L234.684 92.662L235.154 92.804L239.229 79.3135ZM251.662 83.0691L247.586 96.5596L255.787 69.5937L251.662 83.0691ZM261.13 85.9292L265.036 72.3888L257.054 99.4197L261.13 85.9292ZM272.047 89.0789L275.953 75.5385L272.047 89.0789ZM272.007 89.215L267.931 102.706L272.007 89.215ZM172.171 53.1177L182.205 43.2217L172.171 53.1177ZM173.142 53.149L182.516 63.6714L173.142 53.149ZM153.044 66.8852L154.519 52.87L153.044 66.8852ZM153.812 66.0655L167.703 63.6879L153.812 66.0655ZM128.056 65.4231L116.434 73.3929L128.056 65.4231ZM128.711 64.3239L130.187 50.3087L128.711 64.3239ZM144.136 88.9374L130.576 92.7751L144.136 88.9374ZM144.039 88.7308L155.661 80.761L144.039 88.7308ZM86.1648 212.06L98.9232 218.045L86.1648 212.06ZM86.2169 211.618L100.017 208.762L86.2169 211.618ZM326.427 112.785L312.755 109.367L326.427 112.785ZM326.841 113.606L321.44 126.623L326.841 113.606ZM54.0034 273.483L67.6158 277.13L54.0034 273.483ZM53.5597 272.637L48.8216 285.909L53.5597 272.637ZM327.992 106.526L341.664 109.944L327.992 106.526ZM327.586 101.326L322.035 114.28L327.586 101.326ZM188.853 59.9011L202.82 61.7773L188.853 59.9011ZM322.988 99.3823L320.995 113.333L322.988 99.3823ZM323.166 99.4322L317.615 112.385L323.166 99.4322ZM149.126 107.496L160.767 115.438L149.126 107.496ZM149.221 106.907L162.782 103.069L149.221 106.907ZM276.978 91.1763L282.252 104.245L276.978 91.1763ZM276.411 91.1589L282.477 78.4386L276.411 91.1589ZM301.221 79.96L299.795 93.9803L301.221 79.96ZM301.413 81.3144L306.688 94.3828L301.413 81.3144ZM272.3 76.1757L285.789 80.2542L272.3 76.1757ZM272.903 77.0806L274.329 63.0603L272.903 77.0806ZM275.136 62.5703L267.979 50.4305L275.136 62.5703ZM276.168 63.3812L262.679 59.3027L276.168 63.3812ZM260.759 69.928L246.84 72.1281L260.759 69.928ZM261.813 70.4249L254.656 58.2851L261.813 70.4249ZM50.0077 292.576L61.7062 300.434L50.0077 292.576ZM190.599 37.5965L199.973 48.1189L190.599 37.5965ZM191.766 38.2164L177.799 36.3402L191.766 38.2164ZM313.053 98.043L308.398 84.7416L313.053 98.043ZM313.386 98.0105L311.393 111.962L313.386 98.0105ZM242.497 70.4089L228.785 67.1578L242.497 70.4089ZM84.1327 169.986L70.2218 167.73L84.1327 169.986ZM84.6861 169.408L81.8443 155.605L84.6861 169.408ZM106.805 164.855L109.646 178.658L106.805 164.855ZM252.676 27.4755L238.964 24.2244L252.676 27.4755ZM254.058 27.528L240.138 29.7281L254.058 27.528ZM241.587 79.9279L232.585 90.7709L241.587 79.9279ZM241.83 80.0595L245.956 66.5842L241.83 80.0595ZM81.9925 182.681L70.7184 174.225L81.9925 182.681ZM82.1243 182.371L68.2134 180.115L82.1243 182.371ZM147.653 30.0856L133.763 32.4633L147.653 30.0856ZM148.85 29.4719L158.883 19.5759L148.85 29.4719ZM301.384 103.018L306.853 90.0295L301.384 103.018ZM301.478 101.687L305.065 115.316L301.478 101.687ZM232.275 72.1977L223.274 83.0407L232.275 72.1977ZM76.0836 191.422L87.2269 182.795L76.0836 191.422ZM76.077 190.568L64.8029 182.113L76.077 190.568ZM84.2435 202.079L70.4431 204.934L84.2435 202.079ZM84.1106 201.791L95.254 193.163L84.1106 201.791ZM351.249 118.184L337.181 119.019L351.249 118.184ZM351.393 118.639L338.298 123.847L351.393 118.639ZM223.274 83.0407L232.585 90.7709L250.588 69.085L241.277 61.3548L223.274 83.0407ZM241.812 56.8583H232.725V85.0436H241.812V56.8583ZM238.964 24.2244L228.785 67.1578L256.21 73.6599L266.389 30.7265L238.964 24.2244ZM274.679 67.7278L267.978 25.3279L240.138 29.7281L246.84 72.1281L274.679 67.7278ZM267.979 50.4305L254.656 58.2851L268.971 82.5648L282.293 74.7101L267.979 50.4305ZM285.789 80.2542L289.658 67.4597L262.679 59.3027L258.81 72.0972L285.789 80.2542ZM302.646 65.9396L274.329 63.0603L271.478 91.101L299.795 93.9803L302.646 65.9396ZM282.252 104.245L306.688 94.3828L296.139 68.246L271.704 78.1079L282.252 104.245ZM267.427 102.488L270.345 103.879L282.477 78.4386L279.559 77.0473L267.427 102.488ZM294.16 84.8638L280.157 77.3497L266.83 102.185L280.833 109.699L294.16 84.8638ZM311.036 91.7908L292.898 84.265L282.096 110.298L300.234 117.824L311.036 91.7908ZM295.915 116.006L300.166 117.796L311.104 91.8192L306.853 90.0295L295.915 116.006ZM302.583 86.8238L297.892 88.0583L305.065 115.316L309.756 114.081L302.583 86.8238ZM308.398 84.7416L301.514 87.151L310.825 113.754L317.709 111.344L308.398 84.7416ZM324.981 85.4313L315.379 84.0595L311.393 111.962L320.995 113.333L324.981 85.4313ZM333.137 88.3732L328.717 86.479L317.615 112.385L322.035 114.28L333.137 88.3732ZM342.106 106.355V101.974H313.92V106.355H342.106ZM340.099 116.202L341.664 109.944L314.32 103.108L312.755 109.367L340.099 116.202ZM332.942 100.88L332.242 100.59L321.44 126.623L322.141 126.914L332.942 100.88ZM329.666 99.9873C330.792 100.145 331.894 100.445 332.944 100.881L322.139 126.913C323.3 127.395 324.517 127.727 325.762 127.901L329.666 99.9873ZM352.574 103.192L329.667 99.9873L325.761 127.901L348.668 131.106L352.574 103.192ZM365.295 116.97C364.877 109.934 359.555 104.169 352.574 103.192L348.668 131.106C342.352 130.222 337.537 125.006 337.159 118.641L365.295 116.97ZM365.317 117.35L365.295 116.971L337.159 118.64L337.181 119.019L365.317 117.35ZM365 114.954C364.858 114.439 364.687 113.931 364.488 113.431L338.298 123.847C338.119 123.396 337.965 122.938 337.837 122.475L365 114.954ZM369.322 130.565L365 114.954L337.837 122.475L342.159 138.085L369.322 130.565ZM369.354 138.343C370.038 135.792 370.026 133.108 369.323 130.567L342.158 138.083C341.522 135.785 341.511 133.356 342.13 131.047L369.354 138.343ZM365.214 153.795L369.354 138.343L342.13 131.048L337.989 146.501L365.214 153.795ZM364.089 156.716C364.566 155.786 364.943 154.807 365.213 153.797L337.99 146.499C338.235 145.585 338.576 144.7 339.007 143.858L364.089 156.716ZM279.214 322.239L364.088 156.717L339.008 143.857L254.134 309.379L279.214 322.239ZM258.514 357.967L278.865 322.879L254.483 308.738L234.132 343.826L258.514 357.967ZM253.852 362.901C255.768 361.64 257.364 359.95 258.514 357.967L234.132 343.827C235.173 342.032 236.616 340.504 238.35 339.362L253.852 362.901ZM239.81 372.148L253.852 362.901L238.35 339.362L224.309 348.609L239.81 372.148ZM227.825 374.079C231.913 375.179 236.276 374.476 239.81 372.149L224.309 348.608C227.507 346.503 231.454 345.867 235.152 346.862L227.825 374.079ZM209.811 369.228L227.825 374.079L235.152 346.862L217.138 342.012L209.811 369.228ZM43.3372 310.372L208.774 368.906L218.175 342.335L52.7384 283.801L43.3372 310.372ZM35.9894 288.172C30.5995 296.196 34.2251 307.148 43.337 310.372L52.7386 283.801C60.9826 286.718 64.263 296.627 59.3864 303.888L35.9894 288.172ZM38.3091 284.718L35.9893 288.172L59.3865 303.887L61.7062 300.434L38.3091 284.718ZM35.7011 287.338C33.6986 294.811 37.7913 302.566 45.0914 305.129L54.43 278.536C61.0348 280.855 64.7377 287.871 62.9259 294.633L35.7011 287.338ZM40.3909 269.835L35.7011 287.338L62.926 294.633L67.6158 277.13L40.3909 269.835ZM43.3096 283.941L48.8216 285.909L58.2978 259.364L52.7858 257.397L43.3096 283.941ZM36.1244 261.574C30.5751 269.578 34.1374 280.667 43.3099 283.941L52.7855 257.397C61.0845 260.359 64.3075 270.392 59.2867 277.634L36.1244 261.574ZM71.5387 210.497L36.1244 261.574L59.2868 277.634L94.7011 226.557L71.5387 210.497ZM70.4201 212.44C70.7378 211.762 71.1122 211.112 71.5397 210.496L94.7 226.558C95.1724 225.877 95.5862 225.158 95.9374 224.41L70.4201 212.44ZM73.4064 206.074L70.4203 212.439L95.9371 224.41L98.9232 218.045L73.4064 206.074ZM70.4431 204.934L72.4166 214.473L100.017 208.762L98.0438 199.224L70.4431 204.934ZM64.9402 200.049L72.9672 210.418L95.254 193.163L87.2269 182.795L64.9402 200.049ZM70.7184 174.225L64.8029 182.113L87.3511 199.024L93.2666 191.136L70.7184 174.225ZM70.2218 167.73L68.2134 180.115L96.0352 184.627L98.0436 172.242L70.2218 167.73ZM103.963 151.052L81.8443 155.605L87.528 183.212L109.646 178.658L103.963 151.052ZM108.229 198.208L120.394 171.72L94.7804 159.957L82.6157 186.445L108.229 198.208ZM97.1399 155.484L82.6639 186.341L108.181 198.312L122.657 167.455L97.1399 155.484ZM98.7289 152.85C98.1089 153.671 97.5764 154.554 97.1398 155.485L122.657 167.455C122.262 168.297 121.78 169.096 121.219 169.839L98.7289 152.85ZM123.699 119.792L98.7286 152.851L121.219 169.838L146.189 136.779L123.699 119.792ZM137.484 99.5545L123.302 120.344L146.586 136.227L160.767 115.438L137.484 99.5545ZM130.576 92.7751L135.661 110.745L162.782 103.069L157.696 85.0997L130.576 92.7751ZM116.434 73.3929L132.416 96.7006L155.661 80.761L139.679 57.4533L116.434 73.3929ZM154.519 52.87L130.187 50.3087L127.236 78.3391L151.569 80.9004L154.519 52.87ZM133.763 32.4633L139.921 68.4432L167.703 63.6879L161.544 27.7079L133.763 32.4633ZM182.205 43.2217L158.883 19.5759L138.816 39.3679L162.138 63.0138L182.205 43.2217ZM181.224 27.0741L163.767 42.6266L182.516 63.6714L199.973 48.1189L181.224 27.0741ZM202.82 61.7773L205.733 40.0926L177.799 36.3402L174.886 58.0249L202.82 61.7773ZM244.234 66.1394L193.904 47.0201L183.895 73.3682L234.225 92.4876L244.234 66.1394ZM255.737 69.5786L243.305 65.823L235.154 92.804L247.586 96.5596L255.737 69.5786ZM237.705 93.5349L247.537 96.5445L255.787 69.5937L245.956 66.5842L237.705 93.5349ZM276.082 75.7245L265.205 72.4386L257.054 99.4197L267.931 102.706L276.082 75.7245ZM257.223 99.4695L268.14 102.619L275.953 75.5385L265.036 72.3888L257.223 99.4695ZM278.124 76.3627C277.424 76.0291 276.698 75.7534 275.953 75.5385L268.14 102.619C267.403 102.407 266.684 102.134 265.992 101.803L278.124 76.3627ZM267.931 102.706C284.689 107.768 293.924 83.8973 278.124 76.3627L265.992 101.803C250.35 94.3442 259.493 70.7131 276.082 75.7245L267.931 102.706ZM162.138 63.0138C167.672 68.6245 176.632 68.9137 182.516 63.6714L163.767 42.6266C169.091 37.8837 177.198 38.1453 182.205 43.2217L162.138 63.0138ZM151.569 80.9004C161.322 81.927 169.357 73.3542 167.703 63.6879L139.921 68.4432C138.424 59.6975 145.695 51.9411 154.519 52.87L151.569 80.9004ZM139.679 57.4533C146.138 66.8727 138.595 79.5347 127.236 78.3391L130.187 50.3087C117.632 48.9872 109.295 62.982 116.434 73.3929L139.679 57.4533ZM157.696 85.0997C157.258 83.5525 156.571 82.0871 155.661 80.761L132.416 96.7006C131.594 95.5008 130.972 94.1749 130.576 92.7751L157.696 85.0997ZM98.9232 218.045C100.281 215.15 100.665 211.893 100.017 208.762L72.4166 214.473C71.8304 211.64 72.1777 208.693 73.4064 206.074L98.9232 218.045ZM312.755 109.367C310.978 116.476 314.672 123.815 321.44 126.623L332.242 100.59C338.365 103.13 341.707 109.771 340.099 116.202L312.755 109.367ZM67.6158 277.13C69.6107 269.685 65.5566 261.956 58.2978 259.364L48.8216 285.909C42.254 283.564 38.5861 276.571 40.3909 269.835L67.6158 277.13ZM313.92 106.355C313.92 105.26 314.055 104.17 314.32 103.108L341.664 109.944C341.957 108.77 342.106 107.565 342.106 106.355H313.92ZM178.597 50.2664C173.89 55.2316 174.297 61.3452 175.518 64.7945C176.712 68.167 179.443 71.6773 183.896 73.3685L193.904 47.0199C198.266 48.6767 200.926 52.106 202.088 55.3886C203.277 58.7479 203.692 64.7626 199.051 69.6577L178.597 50.2664ZM322.035 114.28C317.112 112.17 313.92 107.33 313.92 101.974H342.106C342.106 96.0547 338.578 90.7049 333.137 88.3732L322.035 114.28ZM174.886 58.0249C175.277 55.1131 176.575 52.3985 178.597 50.2664L199.051 69.6577C201.104 67.4921 202.423 64.7348 202.82 61.7773L174.886 58.0249ZM320.995 113.333C319.832 113.167 318.695 112.848 317.615 112.385L328.717 86.479C327.523 85.9673 326.267 85.615 324.981 85.4313L320.995 113.333ZM160.767 115.438C163.238 111.817 163.975 107.287 162.782 103.069L135.661 110.745C134.582 106.929 135.249 102.831 137.484 99.5545L160.767 115.438ZM271.704 78.1079C275.182 76.7039 279.091 76.8238 282.477 78.4386L270.345 103.879C274.088 105.664 278.407 105.797 282.252 104.245L271.704 78.1079ZM299.795 93.9803C285.893 92.5667 283.181 73.4756 296.139 68.246L306.688 94.3828C321.009 88.6027 318.012 67.502 302.646 65.9396L299.795 93.9803ZM258.81 72.0972C256.117 81.0058 262.218 90.1595 271.478 91.101L274.329 63.0603C282.706 63.9121 288.226 72.194 285.789 80.2542L258.81 72.0972ZM282.293 74.7101C271.789 80.9029 259.15 70.9743 262.679 59.3027L289.658 67.4597C293.558 54.5595 279.588 43.5858 267.979 50.4305L282.293 74.7101ZM246.84 72.1281C248.469 82.4398 259.977 87.8669 268.971 82.5648L254.656 58.2851C262.793 53.488 273.205 58.3982 274.679 67.7278L246.84 72.1281ZM61.7062 300.434C67.0275 292.512 63.4342 281.698 54.4299 278.536L45.0915 305.129C36.6984 302.182 33.3491 292.102 38.3091 284.718L61.7062 300.434ZM199.973 48.1189C190.697 56.3833 176.145 48.6533 177.799 36.3402L205.733 40.0926C207.561 26.4834 191.477 17.9398 181.224 27.0741L199.973 48.1189ZM317.709 111.344C315.683 112.053 313.517 112.265 311.393 111.962L315.379 84.0595C313.031 83.7241 310.637 83.958 308.398 84.7416L317.709 111.344ZM241.812 85.0436C248.669 85.0436 254.628 80.3322 256.21 73.6599L228.785 67.1578C230.216 61.1209 235.607 56.8583 241.812 56.8583V85.0436ZM98.0436 172.242C97.1542 177.726 92.9699 182.091 87.528 183.212L81.8443 155.605C75.8296 156.844 71.2048 161.668 70.2218 167.73L98.0436 172.242ZM109.646 178.658C98.9005 180.87 90.2015 169.927 94.7804 159.957L120.394 171.72C125.454 160.701 115.84 148.606 103.963 151.052L109.646 178.658ZM266.389 30.7265C263.004 45.004 242.429 44.2214 240.138 29.7281L267.978 25.3279C265.446 9.30901 242.705 8.44408 238.964 24.2244L266.389 30.7265ZM232.585 90.7709C234.092 92.022 235.832 92.9616 237.705 93.5349L245.956 66.5842C247.65 67.1029 249.225 67.9529 250.588 69.085L232.585 90.7709ZM93.2666 191.136C94.7022 189.222 95.6522 186.989 96.0352 184.627L68.2134 180.115C68.5599 177.978 69.4195 175.957 70.7184 174.225L93.2666 191.136ZM161.544 27.7079C163.754 40.6219 148.016 48.6957 138.816 39.3679L158.883 19.5759C148.715 9.26619 131.32 18.1899 133.763 32.4633L161.544 27.7079ZM306.853 90.0295C318.634 94.9898 317.426 112.062 305.065 115.316L297.892 88.0583C284.229 91.6538 282.895 110.524 295.915 116.006L306.853 90.0295ZM241.277 61.3548C250.921 69.3609 245.26 85.0436 232.725 85.0436V56.8583C218.872 56.8583 212.615 74.1917 223.274 83.0407L241.277 61.3548ZM87.2269 182.795C90.916 187.56 90.9669 194.203 87.3511 199.024L64.8029 182.113C60.8066 187.441 60.8628 194.783 64.9402 200.049L87.2269 182.795ZM98.0438 199.224C97.5874 197.018 96.6332 194.945 95.254 193.163L72.9672 210.418C71.7194 208.806 70.8561 206.93 70.4431 204.934L98.0438 199.224ZM337.181 119.019C337.3 121.016 337.805 122.537 338.061 123.238C338.191 123.597 338.311 123.883 338.343 123.958C338.412 124.124 338.342 123.959 338.298 123.847L364.488 113.431C364.414 113.246 364.314 113.007 364.351 113.098C364.352 113.099 364.441 113.31 364.545 113.594C364.745 114.145 365.208 115.512 365.317 117.35L337.181 119.019Z" fill="#443D3D" mask="url(#path-1-outside-1_442_363)"/>
<path d="M266.674 315.809L351.548 150.287C351.571 150.243 351.589 150.196 351.602 150.148L355.742 134.695C355.775 134.574 355.774 134.446 355.741 134.325L351.419 118.715C351.276 118.199 350.633 118.024 350.249 118.397L327.949 140.041C327.752 140.233 327.46 140.292 327.204 140.192L188.986 86.6548C188.678 86.5358 188.33 86.6455 188.146 86.919L47.6882 296.03C47.4316 296.412 47.6042 296.933 48.0381 297.087L213.475 355.621L231.489 360.471C231.684 360.523 231.891 360.489 232.06 360.379L246.101 351.132C246.193 351.072 246.269 350.991 246.323 350.897L266.674 315.809Z" fill="#4A4A4A"/>
<path d="M49.761 291.833C49.4134 291.711 49.2185 291.341 49.3138 290.986L54.7824 270.577C54.8892 270.178 55.3136 269.956 55.7016 270.096L225.489 331.194C225.588 331.23 225.676 331.288 225.756 331.356C227.181 332.569 233.532 335.235 234.39 339.429C235.238 343.573 231.538 351.507 229.135 354.378C228.957 354.591 228.665 354.659 228.402 354.567L49.761 291.833Z" fill="#C0C0C0"/>
<path d="M215.941 330.606L234.36 339.474C234.699 339.637 235.107 339.505 235.286 339.174L351.487 123.973C351.55 123.858 351.578 123.727 351.571 123.596L351.227 117.805C351.207 117.47 350.954 117.196 350.621 117.149L327.714 113.944C327.655 113.936 327.597 113.92 327.542 113.897L287.497 97.2817L273.114 89.564C273.073 89.5419 273.03 89.5239 272.985 89.5104L239.23 79.3136L188.9 60.1942C188.634 60.0932 188.333 60.1621 188.138 60.3689L163.52 86.4106C163.495 86.4377 163.471 86.4668 163.45 86.4976L134.944 128.285L109.974 161.344C109.945 161.383 109.919 161.426 109.899 161.47L83.1791 218.425C83.1623 218.46 83.1426 218.495 83.1202 218.527L47.7059 269.604C47.4416 269.985 47.6113 270.513 48.048 270.669L215.941 330.606Z" fill="#747373"/>
<path d="M272.944 319.024L272.861 319.186L272.77 319.344L252.419 354.432C251.816 355.471 250.98 356.356 249.977 357.017L235.935 366.263C234.083 367.483 231.798 367.851 229.657 367.275L211.643 362.425L211.38 362.354L211.124 362.263L45.6878 303.73C40.9146 302.041 39.0158 296.304 41.8389 292.101L42.2487 291.491C42.2168 290.724 42.2992 289.94 42.5076 289.162L45.6841 277.307L45.679 277.305C40.8745 275.59 39.0085 269.781 41.9153 265.589L77.0261 214.95L103.519 158.477C103.748 157.99 104.027 157.527 104.352 157.097L129.219 124.174L157.629 82.5268C157.86 82.188 158.118 81.8681 158.4 81.5701L183.017 55.5284C185.168 53.2534 188.476 52.4955 191.402 53.6072L241.502 72.6393L275.022 82.7651C275.515 82.914 275.992 83.1117 276.446 83.3551L290.52 90.9074L329.494 107.078L351.598 110.171C355.067 110.656 357.754 113.399 358.207 116.827C358.208 116.829 358.209 116.832 358.21 116.835L362.532 132.445C362.9 133.777 362.906 135.184 362.549 136.519L358.408 151.972C358.266 152.501 358.068 153.014 357.818 153.502L272.944 319.024Z" stroke="#3C3C3C" stroke-width="14.0926"/>
<path d="M218.07 316.351C219.067 318.077 283.349 188.432 319.976 121.163C277.693 104.727 192.514 71.6906 190.064 71.034C187.613 70.3775 107.914 199.297 68.3709 263.838C120.955 282.67 217.074 314.626 218.07 316.351Z" fill="#5F5F5F"/>
<path d="M214.854 299.243C215.715 300.733 271.214 188.802 302.836 130.726C266.33 116.535 192.79 88.0129 190.675 87.4461C188.559 86.8792 119.75 198.183 85.6101 253.906C131.009 270.164 213.994 297.753 214.854 299.243Z" fill="#555555"/>
<path d="M214.854 299.243C215.715 300.733 271.214 188.802 302.836 130.726C266.33 116.535 192.79 88.0129 190.675 87.4461C188.559 86.8792 119.75 198.183 85.6101 253.906C131.009 270.164 213.994 297.753 214.854 299.243Z" fill="#555555"/>
<path d="M209.978 273.299C210.632 274.432 252.811 189.365 276.844 145.226C249.099 134.442 193.209 112.765 191.601 112.334C189.994 111.903 137.699 196.494 111.753 238.843C146.255 251.199 209.324 272.167 209.978 273.299Z" fill="#555555"/>
<path d="M209.978 273.299C210.632 274.432 252.811 189.365 276.844 145.226C249.099 134.442 193.209 112.765 191.601 112.334C189.994 111.903 137.699 196.494 111.753 238.843C146.255 251.199 209.324 272.167 209.978 273.299Z" fill="#4A4A4A"/>
<path d="M50.0649 274.983L47.6649 270.327L215.874 329.989L235.879 339.726L235.059 342.789L50.0649 274.983Z" fill="#4A4A4A"/>
<path d="M153.969 66.9825L127.193 64.164L144.105 88.8261L149.389 107.499L163.13 87.0645L188.849 59.9362L192.019 36.3311L172.642 53.5945L147.275 27.8755L153.969 66.9825Z" fill="#E9ACFF"/>
<path d="M167.71 70.5056C167.146 69.6601 154.322 42.203 147.98 28.5801L153.617 66.6302C158.549 68.2743 168.273 71.3512 167.71 70.5056Z" fill="#EFC1FF"/>
<path d="M179.336 60.2885C183.446 52.7724 191.667 37.5289 191.667 36.6833L172.994 53.2422L179.336 60.2885Z" fill="#EFC1FF"/>
<path d="M158.902 83.5413C148.919 77.1996 128.744 64.4458 127.898 64.164L143.752 88.4738L158.902 83.5413Z" fill="#EFC1FF"/>
<path d="M230.774 70.951L241.696 80.0182L258.959 85.3029L272.053 89.0805L276.691 91.2923L304.056 80.2482L272.053 76.9941L276.691 61.6537L260.921 70.951L253.501 24L242.369 70.951H230.774Z" fill="#9FD1FF"/>
<path d="M251.913 72.8758L253.75 24.7046L261.098 71.023L251.913 72.8758Z" fill="#C3E2FF"/>
<path d="M264.313 76.118L276.714 61.7593L272.121 77.0444L264.313 76.118Z" fill="#C3E2FF"/>
<path d="M265.232 85.8449L303.351 80.2867L276.714 90.9399L265.232 87.2345V85.8449Z" fill="#C3E2FF"/>
<path d="M84.2105 169.506L108.168 164.574L86.3244 212.137L84.2105 201.919L75.7549 190.998L82.0966 182.542L84.2105 169.506Z" fill="#D6D045"/>
<path d="M84.9154 182.19L85.62 170.916L92.6664 170.211L104.645 168.097C102.296 170.563 97.4579 175.637 96.8941 176.2C96.3304 176.764 92.9012 180.428 91.2571 182.19L86.677 189.236L84.9154 198.749L78.5737 190.998L84.9154 182.19Z" fill="#E9E46E"/>
<path d="M306.17 100.453L299.476 102.214L326.252 113.488L328.013 106.442V101.509L323.081 99.3956L313.216 97.9863L306.17 100.453Z" fill="#D6D045"/>
<path d="M324.138 106.089L308.636 103.271L320.262 101.157L326.252 103.271L324.138 106.089Z" fill="#E5E066"/>
<path d="M148.332 273.087L144.104 264.632L210.34 148.368L195.19 144.844L183.916 139.912H157.492L177.574 127.933L199.418 124.762L220.205 127.933L225.137 113.488L249.095 121.592L242.048 133.218C247.568 136.036 259.382 142.308 262.483 144.844C265.583 147.381 273.404 157.41 276.928 162.108L280.451 180.781L272.7 171.973L256.493 157.88L231.831 153.3L161.368 275.906L148.332 273.087Z" fill="#8F8F8F"/>
<path d="M176.517 278.02L160.31 275.201L231.478 153.3L254.379 157.175L263.539 162.108C266.123 164.926 271.572 170.916 272.699 172.325C273.827 173.734 277.866 177.61 279.745 179.371L266.005 185.008L235.354 165.631L176.517 278.02Z" fill="#686868"/>
<path d="M172.289 150.834L157.844 140.264H184.62C185.748 140.264 192.136 143.318 195.19 144.844L210.692 148.367L204.702 157.175L172.289 150.834Z" fill="#686868"/>
<path d="M250.503 137.798C249.916 133.335 248.671 124.058 248.389 122.648L242.048 132.866L250.503 137.798Z" fill="#686868"/>
</svg>
