<svg width="500" height="501" viewBox="0 0 500 501" fill="none" xmlns="http://www.w3.org/2000/svg">
<mask id="path-1-outside-1_442_363" maskUnits="userSpaceOnUse" x="41.4883" y="16.0391" width="422" height="453" fill="black">
<rect fill="white" x="41.4883" y="16.0391" width="422" height="453"/>
<path fill-rule="evenodd" clip-rule="evenodd" d="M302.436 100.48C302.325 100.445 302.221 100.389 302.131 100.315L290.487 90.6475C289.852 90.1205 290.224 89.0882 291.049 89.0882H302.413C302.821 89.0882 303.176 88.8076 303.27 88.4103L316 34.7171C316.223 33.7773 317.577 33.8288 317.728 34.7828L326.109 87.8089C326.206 88.423 326.892 88.7461 327.427 88.4304L344.089 78.6072C344.78 78.1996 345.612 78.8531 345.38 79.6214L340.542 95.6224C340.382 96.1529 340.745 96.698 341.296 96.7541L376.711 100.355C377.626 100.448 377.805 101.705 376.952 102.049L346.392 114.382C346.163 114.475 345.906 114.467 345.683 114.361L342.033 112.62L359.547 122.018L382.262 131.443L376.916 129.192C376.14 128.865 376.22 127.741 377.034 127.527L382.9 125.983L391.51 122.97C391.643 122.923 391.786 122.91 391.925 122.93L403.934 124.645C404.011 124.656 404.086 124.677 404.157 124.707L409.684 127.076C410.008 127.215 410.218 127.534 410.218 127.886V133.365C410.218 133.437 410.209 133.509 410.192 133.579L408.235 141.406C408.129 141.83 408.349 142.267 408.752 142.434L409.628 142.797C409.697 142.826 409.77 142.846 409.844 142.856L438.492 146.864C438.907 146.922 439.224 147.266 439.249 147.685L439.277 148.159C439.289 148.359 439.383 148.542 439.457 148.728C439.469 148.758 439.48 148.79 439.489 148.822L444.894 168.345C444.936 168.496 444.937 168.656 444.896 168.808L439.718 188.133C439.702 188.194 439.679 188.252 439.651 188.307L333.506 395.311L308.055 439.193C307.986 439.311 307.891 439.412 307.777 439.487L290.216 451.051C290.006 451.19 289.746 451.232 289.503 451.166L266.974 445.101L60.0759 371.897C59.5332 371.705 59.3174 371.053 59.6383 370.575L62.5395 366.256C62.7654 365.92 62.6128 365.461 62.2306 365.327V365.327C61.7959 365.174 61.5521 364.712 61.6714 364.267L67.5366 342.378C67.6554 341.934 67.414 341.474 66.9817 341.32L60.0883 338.859C59.5421 338.664 59.33 338.003 59.6604 337.527L103.95 273.649C103.978 273.609 104.003 273.566 104.024 273.521L107.758 265.561C107.839 265.388 107.862 265.194 107.823 265.008L105.355 253.079C105.328 252.948 105.271 252.824 105.189 252.718L95.1506 239.752C94.9078 239.438 94.9044 239.001 95.1424 238.683L102.54 228.82C102.626 228.706 102.682 228.572 102.705 228.432L105.217 212.943C105.275 212.582 105.551 212.295 105.909 212.221L133.571 206.526C134.278 206.38 134.851 207.1 134.549 207.757L119.343 240.867L137.44 202.293C137.466 202.237 137.497 202.185 137.534 202.136L168.762 160.792L186.498 134.792C186.645 134.576 186.689 134.307 186.618 134.055L180.258 111.582C180.232 111.49 180.191 111.403 180.137 111.324L160.149 82.1749C159.724 81.5549 160.22 80.7214 160.968 80.8001L191.398 84.0034C191.979 84.0645 192.458 83.554 192.359 82.9783L184.657 37.9812C184.512 37.1312 185.547 36.5997 186.153 37.2137L215.32 66.7856C215.649 67.1197 216.183 67.1369 216.533 66.8247L238.365 47.3744C238.976 46.8305 239.934 47.3393 239.825 48.1497L236.182 75.2689C236.178 75.2975 236.165 75.3242 236.146 75.3452V75.3452C236.062 75.4329 236.127 75.5927 236.24 75.6356V75.6356L299.183 99.5466L314.741 104.246L302.436 100.48ZM326.57 107.82L340.175 111.93C340.28 111.961 340.338 111.812 340.239 111.765V111.765C340.235 111.762 340.23 111.761 340.226 111.759L326.57 107.82Z"/>
</mask>
<path fill-rule="evenodd" clip-rule="evenodd" d="M302.436 100.48C302.325 100.445 302.221 100.389 302.131 100.315L290.487 90.6475C289.852 90.1205 290.224 89.0882 291.049 89.0882H302.413C302.821 89.0882 303.176 88.8076 303.27 88.4103L316 34.7171C316.223 33.7773 317.577 33.8288 317.728 34.7828L326.109 87.8089C326.206 88.423 326.892 88.7461 327.427 88.4304L344.089 78.6072C344.78 78.1996 345.612 78.8531 345.38 79.6214L340.542 95.6224C340.382 96.1529 340.745 96.698 341.296 96.7541L376.711 100.355C377.626 100.448 377.805 101.705 376.952 102.049L346.392 114.382C346.163 114.475 345.906 114.467 345.683 114.361L342.033 112.62L359.547 122.018L382.262 131.443L376.916 129.192C376.14 128.865 376.22 127.741 377.034 127.527L382.9 125.983L391.51 122.97C391.643 122.923 391.786 122.91 391.925 122.93L403.934 124.645C404.011 124.656 404.086 124.677 404.157 124.707L409.684 127.076C410.008 127.215 410.218 127.534 410.218 127.886V133.365C410.218 133.437 410.209 133.509 410.192 133.579L408.235 141.406C408.129 141.83 408.349 142.267 408.752 142.434L409.628 142.797C409.697 142.826 409.77 142.846 409.844 142.856L438.492 146.864C438.907 146.922 439.224 147.266 439.249 147.685L439.277 148.159C439.289 148.359 439.383 148.542 439.457 148.728C439.469 148.758 439.48 148.79 439.489 148.822L444.894 168.345C444.936 168.496 444.937 168.656 444.896 168.808L439.718 188.133C439.702 188.194 439.679 188.252 439.651 188.307L333.506 395.311L308.055 439.193C307.986 439.311 307.891 439.412 307.777 439.487L290.216 451.051C290.006 451.19 289.746 451.232 289.503 451.166L266.974 445.101L60.0759 371.897C59.5332 371.705 59.3174 371.053 59.6383 370.575L62.5395 366.256C62.7654 365.92 62.6128 365.461 62.2306 365.327V365.327C61.7959 365.174 61.5521 364.712 61.6714 364.267L67.5366 342.378C67.6554 341.934 67.414 341.474 66.9817 341.32L60.0883 338.859C59.5421 338.664 59.33 338.003 59.6604 337.527L103.95 273.649C103.978 273.609 104.003 273.566 104.024 273.521L107.758 265.561C107.839 265.388 107.862 265.194 107.823 265.008L105.355 253.079C105.328 252.948 105.271 252.824 105.189 252.718L95.1506 239.752C94.9078 239.438 94.9044 239.001 95.1424 238.683L102.54 228.82C102.626 228.706 102.682 228.572 102.705 228.432L105.217 212.943C105.275 212.582 105.551 212.295 105.909 212.221L133.571 206.526C134.278 206.38 134.851 207.1 134.549 207.757L119.343 240.867L137.44 202.293C137.466 202.237 137.497 202.185 137.534 202.136L168.762 160.792L186.498 134.792C186.645 134.576 186.689 134.307 186.618 134.055L180.258 111.582C180.232 111.49 180.191 111.403 180.137 111.324L160.149 82.1749C159.724 81.5549 160.22 80.7214 160.968 80.8001L191.398 84.0034C191.979 84.0645 192.458 83.554 192.359 82.9783L184.657 37.9812C184.512 37.1312 185.547 36.5997 186.153 37.2137L215.32 66.7856C215.649 67.1197 216.183 67.1369 216.533 66.8247L238.365 47.3744C238.976 46.8305 239.934 47.3393 239.825 48.1497L236.182 75.2689C236.178 75.2975 236.165 75.3242 236.146 75.3452V75.3452C236.062 75.4329 236.127 75.5927 236.24 75.6356V75.6356L299.183 99.5466L314.741 104.246L302.436 100.48ZM326.57 107.82L340.175 111.93C340.28 111.961 340.338 111.812 340.239 111.765V111.765C340.235 111.762 340.23 111.761 340.226 111.759L326.57 107.82Z" fill="#D6D045"/>
<path d="M342.033 112.62L349.619 96.7117L333.7 128.15L342.033 112.62ZM359.547 122.018L351.214 137.548L351.985 137.961L352.793 138.297L359.547 122.018ZM382.262 131.443L375.508 147.722L389.102 115.199L382.262 131.443ZM382.9 125.983L387.386 143.028L388.062 142.85L388.723 142.618L382.9 125.983ZM409.628 142.797L402.874 159.076L402.874 159.076L409.628 142.797ZM409.844 142.856L412.286 125.402L412.285 125.402L409.844 142.856ZM438.492 146.864L436.049 164.319L436.05 164.319L438.492 146.864ZM439.249 147.685L421.656 148.728L421.656 148.729L439.249 147.685ZM439.489 148.822L456.474 144.12L456.474 144.119L439.489 148.822ZM444.894 168.345L461.88 163.643L461.879 163.642L444.894 168.345ZM444.896 168.808L427.872 164.246L427.872 164.247L444.896 168.808ZM439.718 188.133L456.741 192.698L456.742 192.695L439.718 188.133ZM439.651 188.307L423.968 180.265L423.968 180.266L439.651 188.307ZM333.506 395.311L348.752 404.154L348.981 403.759L349.189 403.353L333.506 395.311ZM308.055 439.193L292.809 430.35L292.809 430.351L308.055 439.193ZM307.777 439.487L298.085 424.767L298.084 424.767L307.777 439.487ZM290.216 451.051L299.909 465.771L299.91 465.771L290.216 451.051ZM289.503 451.166L284.921 468.185L284.922 468.185L289.503 451.166ZM266.974 445.101L261.095 461.716L261.736 461.942L262.392 462.119L266.974 445.101ZM60.0759 371.897L54.1969 388.512L54.1973 388.513L60.0759 371.897ZM59.6383 370.575L74.2687 380.402L74.2687 380.402L59.6383 370.575ZM61.6714 364.267L44.6474 359.705L44.6474 359.706L61.6714 364.267ZM60.0883 338.859L54.1626 355.457L54.1627 355.457L60.0883 338.859ZM59.6604 337.527L74.1439 347.569L74.1441 347.569L59.6604 337.527ZM103.95 273.649L89.4666 263.607L89.4665 263.607L103.95 273.649ZM104.024 273.521L88.0679 266.036L88.0678 266.036L104.024 273.521ZM119.343 240.867L103.327 233.511L135.299 248.352L119.343 240.867ZM137.44 202.293L153.396 209.778L153.396 209.777L137.44 202.293ZM137.534 202.136L123.471 191.513L123.471 191.513L137.534 202.136ZM168.762 160.792L182.826 171.414L183.082 171.075L183.322 170.724L168.762 160.792ZM299.183 99.5466L292.925 116.022L293.499 116.24L294.087 116.418L299.183 99.5466ZM314.741 104.246L309.645 121.118L319.9 87.3938L314.741 104.246ZM326.57 107.82L331.455 90.8857L321.473 124.691L326.57 107.82ZM340.226 111.759L345.111 94.8255L340.226 111.759ZM340.175 111.93L335.079 128.801L340.175 111.93ZM215.32 66.7856L227.868 54.4094L215.32 66.7856ZM216.533 66.8247L228.257 79.9842L216.533 66.8247ZM191.398 84.0034L193.243 66.4757L191.398 84.0034ZM192.359 82.9783L209.731 80.0047L192.359 82.9783ZM160.149 82.1749L145.613 92.142L160.149 82.1749ZM160.968 80.8001L159.123 98.3278L160.968 80.8001ZM180.258 111.582L163.299 116.382L180.258 111.582ZM180.137 111.324L165.601 121.291L180.137 111.324ZM107.758 265.561L91.8025 258.075L107.758 265.561ZM107.823 265.008L90.5645 268.579L107.823 265.008ZM408.235 141.406L425.333 145.681L408.235 141.406ZM408.752 142.434L415.507 126.155L408.752 142.434ZM67.5366 342.378L84.5605 346.939L67.5366 342.378ZM66.9817 341.32L72.9073 324.721L66.9817 341.32ZM410.192 133.579L427.29 137.854L410.192 133.579ZM236.182 75.2689L253.65 77.6153L236.182 75.2689ZM403.934 124.645L406.427 107.198L403.934 124.645ZM404.157 124.707L411.099 108.508L404.157 124.707ZM186.498 134.792L201.058 144.724L186.498 134.792ZM186.618 134.055L169.66 138.855L186.618 134.055ZM346.392 114.382L339.796 98.0388L346.392 114.382ZM345.683 114.361L353.269 98.4524L345.683 114.361ZM376.711 100.355L378.494 82.821L376.711 100.355ZM376.952 102.049L383.548 118.393L383.548 118.393L376.952 102.049ZM340.542 95.6224L323.672 90.5218L340.542 95.6224ZM341.296 96.7541L343.079 79.22L341.296 96.7541ZM344.089 78.6072L335.138 63.425L344.089 78.6072ZM345.38 79.6214L362.25 84.722L345.38 79.6214ZM326.109 87.8089L308.701 90.5604L326.109 87.8089ZM327.427 88.4304L318.476 73.2481L327.427 88.4304ZM62.5395 366.256L47.9091 356.429L62.5395 366.256ZM238.365 47.3744L250.089 60.5339L238.365 47.3744ZM239.825 48.1497L257.292 50.4961L239.825 48.1497ZM391.51 122.97L397.332 139.605L391.51 122.97ZM391.925 122.93L389.433 140.377L391.925 122.93ZM303.27 88.4103L286.121 84.3445L303.27 88.4103ZM105.217 212.943L87.8197 210.122L105.217 212.943ZM105.909 212.221L102.355 194.958L105.909 212.221ZM133.571 206.526L137.125 223.788L133.571 206.526ZM134.549 207.757L118.533 200.401L134.549 207.757ZM316 34.7171L333.149 38.7829L316 34.7171ZM317.728 34.7828L300.32 37.5343L317.728 34.7828ZM302.131 100.315L290.874 113.875L302.131 100.315ZM302.436 100.48L297.277 117.332L302.436 100.48ZM102.54 228.82L88.4408 218.245L102.54 228.82ZM102.705 228.432L85.308 225.611L102.705 228.432ZM184.657 37.9812L167.285 40.9547L184.657 37.9812ZM186.153 37.2137L173.605 49.5898L186.153 37.2137ZM376.916 129.192L370.077 145.435L376.916 129.192ZM377.034 127.527L381.519 144.571L377.034 127.527ZM290.487 90.6475L279.229 104.208L290.487 90.6475ZM95.1506 239.752L109.087 228.962L95.1506 239.752ZM95.1424 238.683L81.0428 228.109L95.1424 238.683ZM105.355 253.079L88.0966 256.65L105.355 253.079ZM105.189 252.718L119.125 241.929L105.189 252.718ZM439.277 148.159L456.871 147.115L439.277 148.159ZM439.457 148.728L423.081 155.243L439.457 148.728ZM279.229 104.208L290.874 113.875L313.389 86.7546L301.744 77.0871L279.229 104.208ZM302.413 71.4637H291.049V106.713H302.413V71.4637ZM298.851 30.6513L286.121 84.3445L320.419 92.4761L333.149 38.7829L298.851 30.6513ZM343.518 85.0573L335.136 32.0313L300.32 37.5343L308.701 90.5604L343.518 85.0573ZM335.138 63.425L318.476 73.2481L336.378 103.613L353.04 93.7895L335.138 63.425ZM357.412 100.723L362.25 84.722L328.51 74.5208L323.672 90.5218L357.412 100.723ZM378.494 82.821L343.079 79.22L339.514 114.288L374.928 117.889L378.494 82.821ZM352.988 130.726L383.548 118.393L370.356 85.7053L339.796 98.0388L352.988 130.726ZM334.447 128.528L338.097 130.269L353.269 98.4524L349.619 96.7117L334.447 128.528ZM367.88 106.488L350.366 97.09L333.7 128.15L351.214 137.548L367.88 106.488ZM389.017 115.164L366.302 105.739L352.793 138.297L375.508 147.722L389.017 115.164ZM370.077 145.435L375.423 147.686L389.102 115.199L383.755 112.948L370.077 145.435ZM378.415 108.939L372.548 110.483L381.519 144.571L387.386 143.028L378.415 108.939ZM385.687 106.335L377.078 109.348L388.723 142.618L397.332 139.605L385.687 106.335ZM406.427 107.198L394.418 105.482L389.433 140.377L401.442 142.092L406.427 107.198ZM416.627 110.877L411.099 108.508L397.214 140.907L402.741 143.276L416.627 110.877ZM427.843 133.365V127.886H392.594V133.365H427.843ZM425.333 145.681L427.29 137.854L393.094 129.305L391.137 137.132L425.333 145.681ZM416.382 126.518L415.507 126.155L401.998 158.713L402.874 159.076L416.382 126.518ZM412.285 125.402C413.693 125.599 415.07 125.974 416.382 126.518L402.874 159.076C404.324 159.678 405.846 160.093 407.402 160.311L412.285 125.402ZM440.934 129.41L412.286 125.402L407.402 160.311L436.049 164.319L440.934 129.41ZM456.843 146.642C456.321 137.841 449.664 130.631 440.933 129.41L436.05 164.319C428.151 163.214 422.128 156.69 421.656 148.728L456.843 146.642ZM456.871 147.115L456.843 146.641L421.656 148.729L421.684 149.203L456.871 147.115ZM456.474 144.119C456.296 143.475 456.082 142.839 455.833 142.214L423.081 155.243C422.856 154.678 422.664 154.105 422.503 153.526L456.474 144.119ZM461.879 163.642L456.474 144.12L422.503 153.525L427.908 173.048L461.879 163.642ZM461.92 173.37C462.774 170.181 462.76 166.823 461.88 163.643L427.908 173.047C427.112 170.17 427.099 167.132 427.872 164.246L461.92 173.37ZM456.742 192.695L461.92 173.37L427.872 164.247L422.694 183.572L456.742 192.695ZM455.333 196.349C455.932 195.182 456.403 193.958 456.741 192.698L422.695 183.569C423 182.429 423.426 181.321 423.968 180.265L455.333 196.349ZM349.189 403.353L455.334 196.349L423.968 180.266L317.823 387.27L349.189 403.353ZM323.3 448.036L348.752 404.154L318.26 386.469L292.809 430.35L323.3 448.036ZM317.47 454.207C319.865 452.63 321.861 450.517 323.301 448.035L292.809 430.351C294.111 428.105 295.918 426.194 298.085 424.767L317.47 454.207ZM299.91 465.771L317.47 454.206L298.084 424.767L280.523 436.332L299.91 465.771ZM284.922 468.185C290.033 469.561 295.488 468.682 299.909 465.771L280.524 436.331C284.523 433.698 289.46 432.903 294.084 434.147L284.922 468.185ZM262.392 462.119L284.921 468.185L294.085 434.148L271.556 428.082L262.392 462.119ZM54.1973 388.513L261.095 461.716L272.852 428.485L65.9546 355.282L54.1973 388.513ZM45.0079 360.748C38.2674 370.783 42.8015 384.48 54.1969 388.512L65.9549 355.282C76.265 358.93 80.3674 371.323 74.2687 380.402L45.0079 360.748ZM47.9091 356.429L45.0079 360.748L74.2687 380.402L77.1699 376.083L47.9091 356.429ZM44.6474 359.706C42.1431 369.052 47.2616 378.749 56.3905 381.955L68.0707 348.698C76.3301 351.599 80.9611 360.372 78.6953 368.828L44.6474 359.706ZM50.5127 337.816L44.6474 359.705L78.6953 368.829L84.5605 346.939L50.5127 337.816ZM54.1627 355.457L61.0561 357.918L72.9073 324.721L66.0139 322.26L54.1627 355.457ZM45.1769 327.484C38.2367 337.494 42.6918 351.362 54.1626 355.457L66.014 322.26C76.3923 325.966 80.4232 338.513 74.1439 347.569L45.1769 327.484ZM89.4665 263.607L45.1768 327.485L74.1441 347.569L118.434 283.691L89.4665 263.607ZM88.0678 266.036C88.465 265.189 88.9327 264.377 89.4666 263.607L118.434 283.691C119.024 282.841 119.541 281.942 119.98 281.007L88.0678 266.036ZM91.8025 258.075L88.0679 266.036L119.98 281.007L123.714 273.046L91.8025 258.075ZM88.0966 256.65L90.5645 268.579L125.082 261.437L122.614 249.508L88.0966 256.65ZM81.2145 250.541L91.2533 263.508L119.125 241.929L109.087 228.962L81.2145 250.541ZM88.4408 218.245L81.0428 228.109L109.242 249.258L116.64 239.394L88.4408 218.245ZM87.8197 210.122L85.308 225.611L120.102 231.253L122.614 215.764L87.8197 210.122ZM130.017 189.263L102.355 194.958L109.463 229.483L137.125 223.788L130.017 189.263ZM135.359 248.222L150.565 215.112L118.533 200.401L103.327 233.511L135.359 248.222ZM121.484 194.807L103.387 233.381L135.299 248.352L153.396 209.778L121.484 194.807ZM123.471 191.513C122.696 192.539 122.03 193.644 121.483 194.808L153.396 209.777C152.902 210.831 152.299 211.83 151.598 212.758L123.471 191.513ZM154.699 150.169L123.471 191.513L151.598 212.758L182.826 171.414L154.699 150.169ZM171.939 124.86L154.203 150.86L183.322 170.724L201.058 144.724L171.939 124.86ZM163.299 116.382L169.66 138.855L203.576 129.256L197.216 106.783L163.299 116.382ZM145.613 92.142L165.601 121.291L194.672 101.357L174.684 72.2077L145.613 92.142ZM193.243 66.4757L162.813 63.2725L159.123 98.3278L189.553 101.531L193.243 66.4757ZM167.285 40.9547L174.987 85.9519L209.731 80.0047L202.029 35.0076L167.285 40.9547ZM227.868 54.4094L198.701 24.8375L173.605 49.5898L202.772 79.1617L227.868 54.4094ZM226.641 34.215L204.809 53.6652L228.257 79.9842L250.089 60.5339L226.641 34.215ZM253.65 77.6153L257.292 50.4961L222.357 45.8033L218.714 72.9225L253.65 77.6153ZM305.442 83.0709L242.499 59.1599L229.981 92.1113L292.925 116.022L305.442 83.0709ZM319.838 87.3749L304.28 82.6751L294.087 116.418L309.645 121.118L319.838 87.3749ZM297.277 117.332L309.582 121.099L319.9 87.3938L307.595 83.6271L297.277 117.332ZM345.272 95.0581L331.666 90.948L321.473 124.691L335.079 128.801L345.272 95.0581ZM321.684 124.753L335.34 128.693L345.111 94.8255L331.455 90.8857L321.684 124.753ZM347.825 95.8563C346.95 95.439 346.042 95.0943 345.111 94.8255L335.34 128.693C334.418 128.427 333.519 128.086 332.653 127.673L347.825 95.8563ZM335.079 128.801C356.035 135.132 367.585 105.279 347.825 95.8563L332.653 127.673C313.091 118.344 324.525 88.7908 345.272 95.0581L335.079 128.801ZM202.772 79.1617C209.693 86.1786 220.898 86.5403 228.257 79.9842L204.809 53.6652C211.467 47.7336 221.606 48.0608 227.868 54.4094L202.772 79.1617ZM189.553 101.531C201.751 102.815 211.8 92.0938 209.731 80.0047L174.987 85.9519C173.115 75.0141 182.208 65.3141 193.243 66.4757L189.553 101.531ZM174.684 72.2077C182.762 83.9878 173.328 99.823 159.123 98.3278L162.813 63.2725C147.112 61.6198 136.685 79.1219 145.613 92.142L174.684 72.2077ZM197.216 106.783C196.669 104.848 195.809 103.015 194.672 101.357L165.601 121.291C164.572 119.79 163.795 118.132 163.299 116.382L197.216 106.783ZM123.714 273.046C125.413 269.426 125.893 265.353 125.082 261.437L90.5645 268.579C89.8315 265.036 90.2658 261.351 91.8025 258.075L123.714 273.046ZM391.137 137.132C388.914 146.022 393.533 155.201 401.998 158.713L415.507 126.155C423.165 129.333 427.344 137.637 425.333 145.681L391.137 137.132ZM84.5605 346.939C87.0553 337.629 81.9853 327.962 72.9073 324.721L61.0561 357.918C52.8427 354.986 48.2555 346.24 50.5127 337.816L84.5605 346.939ZM392.594 133.365C392.594 131.996 392.762 130.633 393.094 129.305L427.29 137.854C427.657 136.386 427.843 134.878 427.843 133.365H392.594ZM223.355 63.2193C217.477 69.4193 217.975 77.0557 219.5 81.3758C220.992 85.599 224.408 89.9942 229.981 92.1111L242.499 59.1601C247.958 61.2341 251.286 65.5279 252.738 69.6386C254.224 73.8461 254.73 81.3587 248.936 87.471L223.355 63.2193ZM402.741 143.276C396.585 140.637 392.594 134.584 392.594 127.886H427.843C427.843 120.484 423.431 113.793 416.627 110.877L402.741 143.276ZM218.714 72.9225C219.204 69.2809 220.827 65.8858 223.355 63.2193L248.936 87.471C251.503 84.7626 253.153 81.3142 253.65 77.6153L218.714 72.9225ZM401.442 142.092C399.987 141.885 398.565 141.486 397.214 140.907L411.099 108.508C409.606 107.868 408.035 107.428 406.427 107.198L401.442 142.092ZM201.058 144.724C204.147 140.195 205.069 134.53 203.576 129.256L169.66 138.855C168.309 134.083 169.144 128.957 171.939 124.86L201.058 144.724ZM339.796 98.0388C344.147 96.2829 349.035 96.433 353.269 98.4524L338.097 130.269C342.778 132.501 348.18 132.667 352.988 130.726L339.796 98.0388ZM374.928 117.889C357.542 116.121 354.15 92.2457 370.356 85.7053L383.548 118.393C401.459 111.164 397.71 84.7749 378.494 82.821L374.928 117.889ZM323.672 90.5218C320.303 101.663 327.934 113.111 339.514 114.288L343.079 79.22C353.556 80.2853 360.46 90.6429 357.412 100.723L323.672 90.5218ZM353.04 93.7895C339.904 101.534 324.096 89.1175 328.51 74.5208L362.25 84.722C367.128 68.5887 349.657 54.865 335.138 63.425L353.04 93.7895ZM308.701 90.5604C310.739 103.457 325.131 110.244 336.378 103.613L318.476 73.2481C328.652 67.2488 341.673 73.3894 343.518 85.0573L308.701 90.5604ZM77.1699 376.083C83.8246 366.176 79.3311 352.652 68.0705 348.698L56.3907 381.955C45.8945 378.269 41.7061 365.664 47.9091 356.429L77.1699 376.083ZM250.089 60.5339C238.488 70.8695 220.289 61.2023 222.357 45.8033L257.292 50.4961C259.579 33.4762 239.464 22.7915 226.641 34.215L250.089 60.5339ZM397.332 139.605C394.799 140.492 392.09 140.756 389.433 140.377L394.418 105.482C391.481 105.063 388.487 105.355 385.687 106.335L397.332 139.605ZM302.413 106.713C310.989 106.713 318.441 100.821 320.419 92.4761L286.121 84.3445C287.911 76.7947 294.654 71.4637 302.413 71.4637V106.713ZM122.614 215.764C121.502 222.623 116.269 228.082 109.463 229.483L102.355 194.958C94.833 196.507 89.0491 202.541 87.8197 210.122L122.614 215.764ZM137.125 223.788C123.686 226.555 112.807 212.87 118.533 200.401L150.565 215.112C156.895 201.331 144.87 186.205 130.017 189.263L137.125 223.788ZM333.149 38.7829C328.916 56.6385 303.185 55.6597 300.32 37.5343L335.136 32.0313C331.97 11.9979 303.53 10.916 298.851 30.6513L333.149 38.7829ZM290.874 113.875C292.758 115.44 294.935 116.615 297.277 117.332L307.595 83.6271C309.715 84.2758 311.684 85.3389 313.389 86.7546L290.874 113.875ZM116.64 239.394C118.435 237 119.623 234.207 120.102 231.253L85.308 225.611C85.7414 222.938 86.8164 220.411 88.4408 218.245L116.64 239.394ZM202.029 35.0076C204.793 51.1579 185.111 61.2555 173.605 49.5898L198.701 24.8375C185.984 11.9439 164.23 23.1045 167.285 40.9547L202.029 35.0076ZM383.755 112.948C398.489 119.152 396.979 140.503 381.519 144.571L372.548 110.483C355.461 114.98 353.792 138.578 370.077 145.435L383.755 112.948ZM301.744 77.0871C313.805 87.0998 306.725 106.713 291.049 106.713V71.4637C273.724 71.4637 265.899 93.1412 279.229 104.208L301.744 77.0871ZM109.087 228.962C113.7 234.922 113.764 243.229 109.242 249.258L81.0428 228.109C76.045 234.773 76.1152 243.954 81.2145 250.541L109.087 228.962ZM122.614 249.508C122.044 246.749 120.85 244.157 119.125 241.929L91.2533 263.508C89.6927 261.492 88.613 259.146 88.0966 256.65L122.614 249.508ZM421.684 149.203C421.832 151.7 422.464 153.602 422.783 154.479C422.947 154.928 423.097 155.286 423.136 155.381C423.223 155.588 423.136 155.381 423.081 155.243L455.833 142.214C455.741 141.982 455.615 141.683 455.663 141.797C455.664 141.799 455.775 142.064 455.905 142.419C456.156 143.108 456.734 144.817 456.871 147.115L421.684 149.203Z" fill="#443D3D" mask="url(#path-1-outside-1_442_363)"/>
<path d="M333.506 395.311L439.651 188.307C439.68 188.252 439.702 188.193 439.718 188.133L444.896 168.808C444.937 168.656 444.936 168.496 444.894 168.345L439.489 148.822C439.311 148.177 438.506 147.959 438.026 148.425L410.138 175.493C409.891 175.733 409.527 175.807 409.206 175.683L236.348 108.727C235.963 108.579 235.527 108.716 235.298 109.058L59.6388 370.575C59.3178 371.053 59.5337 371.705 60.0763 371.897L266.974 445.1L289.503 451.166C289.747 451.231 290.006 451.19 290.217 451.051L307.778 439.487C307.892 439.412 307.987 439.311 308.055 439.193L333.506 395.311Z" fill="#4A4A4A"/>
<path d="M62.231 365.326C61.7963 365.174 61.5526 364.712 61.6718 364.267L68.5109 338.743C68.6444 338.245 69.1752 337.967 69.6605 338.142L282 414.553C282.123 414.597 282.233 414.669 282.333 414.754C284.116 416.272 292.058 419.606 293.131 424.851C294.191 430.034 289.564 439.956 286.56 443.546C286.336 443.813 285.971 443.898 285.642 443.782L62.231 365.326Z" fill="#C0C0C0"/>
<path d="M270.059 413.817L293.094 424.908C293.518 425.112 294.028 424.946 294.251 424.532L439.575 155.398C439.653 155.254 439.689 155.091 439.679 154.927L439.25 147.685C439.225 147.266 438.908 146.922 438.492 146.864L409.844 142.856C409.77 142.846 409.698 142.826 409.628 142.797L359.548 122.018L341.56 112.366C341.509 112.338 341.454 112.316 341.398 112.299L299.184 99.5464L236.24 75.6354C235.908 75.509 235.532 75.5952 235.287 75.8538L204.5 108.422C204.468 108.456 204.439 108.492 204.413 108.531L168.763 160.791L137.535 202.135C137.498 202.184 137.466 202.237 137.44 202.292L104.024 273.521C104.003 273.566 103.979 273.608 103.951 273.649L59.6609 337.527C59.3304 338.003 59.5425 338.664 60.0888 338.859L270.059 413.817Z" fill="#747373"/>
<path d="M341.348 399.332L341.244 399.535L341.129 399.733L315.678 443.614C314.924 444.914 313.879 446.02 312.624 446.846L295.064 458.411C292.748 459.936 289.89 460.396 287.212 459.675L264.683 453.61L264.355 453.521L264.035 453.408L57.137 380.205C51.1676 378.093 48.7929 370.918 52.3236 365.661L52.836 364.899C52.7961 363.939 52.8991 362.959 53.1598 361.986L57.1324 347.16L57.126 347.158C51.1173 345.013 48.7839 337.748 52.419 332.506L96.3292 269.175L129.462 198.55C129.748 197.94 130.097 197.362 130.503 196.824L161.603 155.65L197.133 103.565C197.422 103.141 197.744 102.741 198.096 102.368L228.883 69.8003C231.573 66.9551 235.71 66.0072 239.37 67.3976L302.026 91.1995L343.947 103.863C344.563 104.049 345.159 104.296 345.727 104.601L363.329 114.046L412.069 134.269L439.713 138.137C444.052 138.744 447.413 142.175 447.979 146.461C447.98 146.464 447.981 146.467 447.982 146.471L453.387 165.993C453.848 167.66 453.856 169.419 453.408 171.089L448.23 190.414C448.053 191.076 447.805 191.718 447.493 192.328L341.348 399.332Z" stroke="#3C3C3C" stroke-width="17.6245"/>
<path d="M272.721 395.99C273.968 398.149 354.361 236.012 400.166 151.884C347.286 131.329 240.76 90.0131 237.696 89.1921C234.632 88.371 134.959 249.6 85.5051 330.316C151.267 353.867 271.475 393.832 272.721 395.99Z" fill="#5F5F5F"/>
<path d="M268.7 374.594C269.776 376.458 339.184 236.475 378.731 163.843C333.076 146.097 241.106 110.426 238.46 109.717C235.814 109.008 149.761 248.207 107.065 317.894C163.841 338.227 267.624 372.731 268.7 374.594Z" fill="#555555"/>
<path d="M268.7 374.594C269.776 376.458 339.184 236.475 378.731 163.843C333.076 146.097 241.106 110.426 238.46 109.717C235.814 109.008 149.761 248.207 107.065 317.894C163.841 338.227 267.624 372.731 268.7 374.594Z" fill="#555555"/>
<path d="M262.601 342.149C263.419 343.565 316.169 237.178 346.224 181.978C311.527 168.491 241.63 141.381 239.619 140.843C237.609 140.304 172.208 246.094 139.759 299.057C182.909 314.51 261.784 340.732 262.601 342.149Z" fill="#555555"/>
<path d="M262.601 342.149C263.419 343.565 316.169 237.178 346.224 181.978C311.527 168.491 241.63 141.381 239.619 140.843C237.609 140.304 172.208 246.094 139.759 299.057C182.909 314.51 261.784 340.732 262.601 342.149Z" fill="#4A4A4A"/>
<path d="M62.6116 344.254L59.6101 338.432L269.976 413.045L294.994 425.223L293.968 429.053L62.6116 344.254Z" fill="#4A4A4A"/>
<path d="M192.556 84.1252L159.07 80.6003L180.219 111.443L186.828 134.796L204.012 109.24L236.177 75.313L240.142 45.792L215.909 67.382L184.185 35.2173L192.556 84.1252Z" fill="#E9ACFF"/>
<path d="M209.74 88.5314C209.035 87.474 192.997 53.1356 185.066 36.0986L192.115 83.6847C198.284 85.7409 210.445 89.5889 209.74 88.5314Z" fill="#EFC1FF"/>
<path d="M224.28 75.7537C229.42 66.354 239.701 47.2902 239.701 46.2327L216.349 66.9415L224.28 75.7537Z" fill="#EFC1FF"/>
<path d="M198.725 104.834C186.241 96.9031 161.008 80.9529 159.951 80.6004L179.778 111.003L198.725 104.834Z" fill="#EFC1FF"/>
<path d="M288.609 89.0883L302.268 100.428L323.858 107.037L340.233 111.761L346.034 114.527L380.257 100.716L340.233 96.646L346.034 77.461L326.312 89.0883L317.032 30.3706L303.111 89.0883H288.609Z" fill="#9FD1FF"/>
<path d="M315.046 91.4956L317.344 31.252L326.534 89.1785L315.046 91.4956Z" fill="#C3E2FF"/>
<path d="M330.554 95.5505L346.062 77.5932L340.319 96.709L330.554 95.5505Z" fill="#C3E2FF"/>
<path d="M331.703 107.715L379.376 100.764L346.062 114.087L331.703 109.453V107.715Z" fill="#C3E2FF"/>
<path d="M105.315 212.343L135.277 206.175L107.959 265.657L105.315 252.88L94.7402 239.221L102.671 228.646L105.315 212.343Z" fill="#D6D045"/>
<path d="M106.196 228.206L107.077 214.106L115.89 213.225L130.87 210.581C127.933 213.665 121.882 220.01 121.177 220.715C120.472 221.42 116.183 226.002 114.127 228.206L108.399 237.018L106.196 248.914L98.2651 239.221L106.196 228.206Z" fill="#E9E46E"/>
<path d="M382.9 125.984L374.529 128.187L408.015 142.286L410.218 133.474V127.306L404.05 124.662L391.713 122.899L382.9 125.984Z" fill="#D6D045"/>
<path d="M405.371 133.033L385.984 129.508L400.525 126.864L408.015 129.508L405.371 133.033Z" fill="#E5E066"/>
<path d="M185.507 341.883L180.219 331.309L263.054 185.907L244.108 181.501L230.008 175.332H196.962L222.077 160.351L249.395 156.386L275.391 160.351L281.56 142.286L311.522 152.42L302.709 166.96C309.612 170.485 324.387 178.328 328.265 181.501C332.142 184.673 341.924 197.216 346.33 203.091L350.736 226.443L341.043 215.428L320.774 197.803L289.932 192.075L201.809 345.408L185.507 341.883Z" fill="#8F8F8F"/>
<path d="M220.754 348.052L200.486 344.527L289.49 192.075L318.129 196.922L329.585 203.091C332.817 206.616 339.631 214.106 341.041 215.868C342.451 217.631 347.504 222.478 349.854 224.681L332.67 231.73L294.336 207.497L220.754 348.052Z" fill="#686868"/>
<path d="M215.467 188.991L197.402 175.773H230.888C232.298 175.773 240.288 179.591 244.107 181.501L263.494 185.907L256.003 196.922L215.467 188.991Z" fill="#686868"/>
<path d="M313.283 172.688C312.548 167.107 310.992 155.505 310.639 153.742L302.708 166.52L313.283 172.688Z" fill="#686868"/>
</svg>
