<svg width="500" height="501" viewBox="0 0 500 501" fill="none" xmlns="http://www.w3.org/2000/svg">
<g clip-path="url(#clip0_676_70753)">
<path d="M366.223 337.728C308.075 438.444 211 491.258 149.399 455.693C87.7984 420.127 84.9993 309.65 143.147 208.935C201.295 108.22 298.371 55.4059 359.971 90.9711C421.572 126.536 424.371 237.013 366.223 337.728Z" fill="#908355"/>
<path d="M344.138 324.978C284.454 428.354 223.75 500.355 130.941 451.461C72.8805 417.939 74.1965 306.962 133.881 203.585C193.565 100.209 289.016 43.5809 347.077 77.1024C405.138 110.624 403.822 221.601 344.138 324.978ZM159.241 218.227C113.954 296.666 112.955 380.873 157.01 406.308C201.065 431.743 273.491 388.775 318.778 310.336C364.065 231.897 365.063 147.69 321.008 122.255C276.953 96.8198 204.527 139.788 159.241 218.227Z" fill="#918355"/>
<path d="M367.568 131.193C341.015 177.186 296.488 201.674 274.304 188.866C252.12 176.058 266.471 133.572 293.025 87.579C319.579 41.5863 342.381 21.0723 364.565 33.8803C386.749 46.6883 394.122 85.2004 367.568 131.193ZM308.302 95.0426C290.874 125.229 276.268 151.84 290.828 160.246C305.388 168.652 316.572 141.145 334 110.959C351.428 80.7725 363.063 67.649 348.503 59.2428C333.943 50.8366 325.73 64.8565 308.302 95.0426Z" fill="#918355"/>
<path d="M126.724 458.764L126.866 458.846L127.01 458.922C151.329 471.734 174.099 476.904 195.651 475.272C196.327 475.221 197.002 475.163 197.676 475.098C219.041 474.1 241.42 467.039 263.137 455.224C303.949 433.02 343.806 393.424 373.527 341.945C403.248 290.467 417.611 236.151 416.434 189.705C415.584 156.141 406.53 125.904 388.531 104.267C392.248 91.7783 393.561 80.0318 392.753 69.45C391.301 50.4405 382.868 34.7087 368.782 26.5764C361.74 22.5103 354.247 20.9125 346.526 22.0569C338.969 23.1769 331.87 26.8189 325.219 32.0507C317.085 38.4491 308.999 47.7272 300.838 59.3785C280.026 61.1347 258.103 69.1065 236.785 81.7539C196.743 105.509 157.005 146.665 126.577 199.369C96.1487 252.072 80.3755 307.064 79.8234 353.619C79.275 399.867 93.8777 439.8 126.724 458.764Z" stroke="#62531E" stroke-width="16.8676"/>
<ellipse cx="255.873" cy="273.36" rx="128.793" ry="210.572" transform="rotate(30 255.873 273.36)" fill="#908355"/>
<path d="M345.325 325.006C285.641 428.382 225.75 499.605 132.128 451.489C74.0676 417.967 75.3836 306.99 135.068 203.614C194.752 100.238 290.203 43.6091 348.264 77.1306C406.325 110.652 405.009 221.63 345.325 325.006ZM160.428 218.255C115.141 296.694 114.142 380.901 158.197 406.336C202.252 431.771 274.678 388.803 319.965 310.364C365.252 231.925 366.25 147.718 322.195 122.283C278.14 96.848 205.714 139.816 160.428 218.255Z" fill="#918355"/>
<path d="M368.756 131.222C342.202 177.214 297.675 201.703 275.491 188.895C253.307 176.087 267.658 133.6 294.212 87.6074C320.766 41.6147 343.569 21.1007 365.753 33.9087C387.937 46.7167 395.31 85.2288 368.756 131.222ZM309.489 95.071C292.061 125.257 277.455 151.868 292.015 160.274C306.575 168.681 317.76 141.173 335.188 110.987C352.616 80.801 364.25 67.6774 349.69 59.2713C335.13 50.8651 326.917 64.8849 309.489 95.071Z" fill="#918355"/>
<ellipse cx="240.197" cy="264.31" rx="110.692" ry="197.085" transform="rotate(30 240.197 264.31)" fill="#C3B276"/>
<path d="M336.059 319.656C281.635 413.92 194.597 465.557 141.654 434.99C88.7111 404.423 89.9111 303.228 144.335 208.964C198.758 114.699 285.796 63.0625 338.739 93.6292C391.682 124.196 390.482 225.392 336.059 319.656ZM150.152 212.322C99.0309 300.866 97.9037 395.921 147.634 424.633C197.365 453.345 279.121 404.841 330.242 316.297C381.362 227.753 382.49 132.699 332.759 103.987C283.029 75.2749 201.273 123.778 150.152 212.322Z" fill="#DFCD8D"/>
<ellipse cx="240.197" cy="264.31" rx="95.6854" ry="170.366" transform="rotate(30 240.197 264.31)" fill="#D8C585"/>
<ellipse cx="240.196" cy="264.31" rx="85.6158" ry="152.437" transform="rotate(30 240.196 264.31)" fill="#F1DE9C"/>
<ellipse cx="240.196" cy="264.31" rx="73.9996" ry="131.755" transform="rotate(30 240.196 264.31)" fill="#FFEBA6"/>
<path d="M232.339 164.055C232.049 164.268 231.762 164.485 231.478 164.706C231.453 164.654 231.429 164.603 231.404 164.551C229.373 160.361 226.072 157.057 222.608 154.412C219.131 151.757 215.199 149.549 211.585 147.667C210.045 146.866 208.623 146.152 207.293 145.485C205.318 144.494 203.547 143.604 201.895 142.682L200.974 142.168L199.926 142.053C198.609 141.908 197.294 141.72 195.873 141.517C195.59 141.476 195.303 141.435 195.011 141.394C193.298 141.151 191.45 140.901 189.555 140.75C185.739 140.445 181.514 140.517 177.079 141.889C168.011 144.693 159.693 152.38 151.492 168.41C138.178 194.435 133.683 215.121 133.895 233.891C134.093 251.38 138.401 266.935 142.804 282.83C143.082 283.835 143.361 284.841 143.639 285.849C148.502 303.482 157.976 324.457 166.108 340.836C170.195 349.068 173.983 356.217 176.75 361.31C178.134 363.858 179.264 365.893 180.05 367.295C180.442 367.996 180.749 368.539 180.959 368.908C181.021 369.016 181.074 369.11 181.118 369.188C181.15 369.243 181.177 369.291 181.2 369.33L181.263 369.44L181.279 369.47L181.284 369.478L181.285 369.48C181.286 369.481 181.286 369.481 185.795 366.889L181.286 369.481L183.745 373.758L188.146 371.528C208.823 361.05 240.903 341 270.329 314.72C299.668 288.519 326.947 255.614 337.094 219.328C343.446 196.612 340.619 179.636 331.208 167.953C321.959 156.471 307.293 151.309 292.498 149.963C277.624 148.61 261.785 151.017 249.047 155.558C242.672 157.831 236.894 160.703 232.339 164.055Z" fill="#FF3939" stroke="#BE0D0D" stroke-width="10.4017"/>
<path d="M201.536 202.602L171.315 167.18L166.114 155.935L176.938 145.674H190.291L210.813 151.296L227.259 167.18C227.634 170.085 228.159 176.429 227.259 178.566C226.36 180.702 209.736 195.48 201.536 202.602Z" fill="#CA1F1F"/>
<path d="M205.191 225.795L201.536 201.055C204.301 201.055 213.119 196.557 226.275 178.565C239.432 160.573 268.772 155.981 281.798 155.935L275.613 163.103L259.167 182.079V205.272C248.906 216.236 227.962 238.473 226.275 239.71C224.589 240.947 211.516 230.949 205.191 225.795Z" fill="#D62727"/>
<path d="M189.729 189.81L166.114 155.935C132.829 195.855 137.533 242.475 144.046 260.795L150.652 239.71L166.114 229.449L178.484 201.055L189.729 189.81Z" fill="#D62727"/>
<path d="M164.146 322.362L185.09 366.639L225.292 343.024H198.022L202.099 327L193.946 309.57L185.09 318.285H172.299L164.146 322.362Z" fill="#FF6767"/>
<path d="M282.782 214.409L259.73 206.256V181.095L282.782 157.902L291.497 166.196L307.521 177.019L313.144 195.011L301.758 206.256L282.782 214.409Z" fill="#FF6767"/>
<path d="M185.09 238.164L168.223 230.855L179.468 200.634L190.291 189.81L202.099 200.634L206.175 221.718L198.022 234.509L185.09 238.164Z" fill="#FF6767"/>
<path d="M241.738 276.679L229.93 241.257L257.621 206.256L281.798 213.987L302.32 206.256L313.706 195.995L305.975 218.626V248.847C305.975 251.799 283.766 270.494 281.798 274.148C280.224 277.072 254.435 277.053 241.738 276.679Z" fill="#FF5B5B"/>
<path d="M307.943 177.019C301.289 171.35 287.139 159.899 283.766 159.449C281.892 159.449 279.268 158.324 283.766 153.826C328.971 157.537 336.899 181.049 335.212 192.341L315.252 196.979L307.943 177.019Z" fill="#FF3E3E"/>
<path d="M149.247 287.502L164.568 325.454L176.938 317.723H185.653L195.914 307.04L206.175 313.647L209.829 307.04C208.283 302.917 204.151 294.98 199.99 296.217C195.829 297.454 192.446 283.332 191.275 276.116L176.938 272.602L164.568 279.209L149.247 287.502Z" fill="#FF3E3E"/>
<path d="M199.99 273.024L186.215 239.149L199.99 235.072L205.191 224.811L225.291 239.149C230.773 250.44 241.822 273.755 242.159 276.679C242.496 279.603 231.055 284.082 225.291 285.956L199.99 273.024Z" fill="#E73A3A"/>
<path d="M219.107 314.631L205.191 311.117L192.821 307.041V311.117L205.191 327.563L199.99 344.571H225.291L274.067 304.37L247.922 301.278L219.107 314.631Z" fill="#E73A3A"/>
<path d="M199.99 272.04C200.777 274.514 194.508 275.507 191.275 275.695L177.5 272.04L151.214 286.377L143.483 260.233L151.214 240.132L166.114 229.449L186.636 236.618C190.76 247.394 199.203 269.566 199.99 272.04Z" fill="#E92E2E"/>
<path d="M252.983 302.402L242.159 275.695H282.782L307.521 248.426L316.236 254.048L274.067 305.495L252.983 302.402Z" fill="#FF5151"/>
<path d="M368.104 273.446C392.393 234.538 384.128 148.344 374.008 111.235C426.859 219.863 379.021 318.52 347.16 349.771L337.742 335.575C339.851 331.826 348.566 311.819 368.104 273.446Z" fill="#AA9D6F"/>
<path d="M376.116 103.364L362.762 89.0264L367.682 66.2551L360.513 47.4196V34.4878C364.73 39.2669 373.473 49.3313 374.71 51.3554C376.256 53.8855 380.333 62.741 380.754 68.3636C381.092 72.8616 377.802 93.5713 376.116 103.364Z" fill="#AA9D6E"/>
</g>
<defs>
<clipPath id="clip0_676_70753">
<rect width="500" height="500" fill="white" transform="translate(0 0.355469)"/>
</clipPath>
</defs>
</svg>
