<svg width="400" height="400" viewBox="0 0 400 400" fill="none" xmlns="http://www.w3.org/2000/svg">
<path d="M116.396 255.321L113.565 249.128C112.742 247.328 112.958 245.224 114.131 243.629C116.132 240.909 115.205 237.042 112.187 235.525L102.132 230.474C100.623 229.716 99.4993 228.362 99.0318 226.739L96.8162 219.049C96.3348 217.377 95.1581 215.994 93.5858 215.25L91.9113 214.459C90.879 213.97 90.0057 213.2 89.3923 212.237L86.5073 207.708C85.5172 206.153 85.2889 204.232 85.8872 202.489L88.1337 195.942C88.2508 195.601 88.3981 195.271 88.574 194.956L95.7616 182.082C95.9593 181.727 96.1922 181.394 96.4566 181.086L107.155 168.638C108.244 167.371 108.762 165.711 108.584 164.049L108.565 163.871C108.184 160.293 110.989 157.173 114.587 157.173H127.393H138.842C143.168 157.173 146.099 152.767 144.427 148.777L143.025 145.431C142.714 144.69 142.555 143.894 142.555 143.091V127.02C142.555 125.51 141.99 124.054 140.973 122.938L138.327 120.038C136.455 117.986 136.219 114.924 137.755 112.609L142.18 105.94C142.429 105.564 142.719 105.218 143.045 104.907L153.76 94.6782C155.184 93.3187 157.18 92.7279 159.098 93.1716C165.673 94.6926 176.347 97.7403 182.986 101.651C192.756 107.406 194.104 112.823 196.799 121.625C199.495 130.428 199.495 115.531 201.179 112.823C202.376 110.899 207.029 107.763 209.943 105.979C210.606 105.573 211.345 105.317 212.114 105.203L231.441 102.355C234.236 101.943 236.953 103.516 237.872 106.188C239.628 111.296 241.61 118.005 241.61 121.625C241.61 125.605 247.897 125.795 252.772 125.177C254.666 124.938 256.609 125.41 258.048 126.664L263.79 131.664C265.111 132.815 265.869 134.48 265.869 136.231V153.753C265.869 155.876 266.98 157.843 268.798 158.939L270.402 159.906C270.748 160.115 271.115 160.289 271.495 160.424L280.606 163.673C281.112 163.853 281.591 164.1 282.031 164.406L293.051 172.072C294.002 172.734 294.756 173.648 295.134 174.743C296.668 179.183 298.063 186.277 294.508 188.659C291.14 190.915 296.578 193.327 301.279 194.723C302.958 195.221 304.412 196.318 305.231 197.865L311.081 208.909C313.029 212.586 310.773 217.087 306.662 217.727L294.178 219.671C292.268 219.968 290.614 221.159 289.728 222.877L287.801 226.612C286.932 228.296 286.901 230.289 287.718 231.999L293.32 243.726C294.074 245.306 294.109 247.134 293.413 248.741L291.712 252.672C291.335 253.544 290.757 254.316 290.027 254.923L285.113 259.01C282.926 260.828 279.768 260.88 277.523 259.133L272.563 255.275C271.5 254.448 270.192 253.999 268.845 253.999H255.645C251.351 253.999 248.421 258.344 250.03 262.325L250.096 262.487C250.703 263.988 250.684 265.669 250.043 267.155L247.159 273.841C246.833 274.599 246.664 275.415 246.664 276.239V279.428C246.664 280.076 246.562 280.718 246.353 281.332C245.313 284.386 243.307 289.956 241.61 293.609C239.724 297.672 234.086 301.622 231.503 303.089L225.532 305.605C222.918 306.706 219.895 305.843 218.202 303.566C213.34 297.023 206.537 288.531 204.549 288.531H194.54C192.214 288.531 190.093 289.864 189.084 291.96L187.831 294.56C186.581 297.158 183.672 298.514 180.878 297.801L168.119 294.545C165.877 293.972 163.504 294.728 162.006 296.491L154.804 304.97C153.469 306.54 151.431 307.327 149.39 307.038C142.035 305.997 130.864 304.252 127.393 303.089C123.554 301.803 116.373 293.699 112.773 289.214C112.41 288.761 112.122 288.26 111.911 287.719C110.489 284.072 108.101 277.498 107.851 274.989C107.634 272.803 112.083 266.354 115.638 261.693C117.034 259.863 117.353 257.414 116.396 255.321Z" fill="#939453" fill-opacity="0.4"/>
<path d="M142.837 236.287L141.429 233.214C140.871 231.997 141.018 230.573 141.813 229.496C143.168 227.658 142.54 225.042 140.499 224.019L134.447 220.986C132.936 220.229 131.811 218.875 131.342 217.252L130.293 213.617C129.831 212.017 128.703 210.693 127.197 209.983C126.209 209.517 125.373 208.781 124.785 207.86L123.605 206.012C122.611 204.455 122.382 202.53 122.983 200.783L124.138 197.424C124.256 197.082 124.404 196.751 124.58 196.436L129.268 188.059C129.466 187.704 129.699 187.371 129.964 187.063L137.063 178.824C137.815 177.951 138.172 176.805 138.05 175.659C137.786 173.195 139.718 171.047 142.196 171.047H150.799H156.406C160.359 171.047 163.035 167.02 161.504 163.376C161.22 162.698 161.073 161.97 161.073 161.235V151.425C161.073 149.913 160.507 148.455 159.486 147.339L159.246 147.077C157.369 145.023 157.132 141.954 158.673 139.637L160.698 136.592C160.947 136.217 161.238 135.871 161.564 135.561L167.936 129.492C169.359 128.136 171.352 127.546 173.262 128.01C177.742 129.099 184.288 131.052 188.47 133.51C195.091 137.401 196.004 141.063 197.831 147.014C199.657 152.965 199.657 142.894 200.799 141.063C201.567 139.831 204.436 137.864 206.415 136.635C207.074 136.226 207.814 135.97 208.582 135.857L219.769 134.212C222.563 133.802 225.283 135.371 226.159 138.056C227.197 141.239 228.196 144.903 228.196 147.014C228.196 149.448 231.683 149.785 234.794 149.518C236.692 149.355 238.632 149.809 240.07 151.059L242.551 153.214C243.874 154.365 244.635 156.032 244.635 157.786V167.652C244.635 169.758 245.739 171.711 247.544 172.796C247.887 173.003 248.249 173.174 248.626 173.308L254.377 175.354C254.881 175.533 255.36 175.779 255.8 176.084L262.583 180.792C263.535 181.453 264.295 182.366 264.647 183.47C265.604 186.478 266.309 190.817 264.041 192.332C261.959 193.724 264.842 195.203 267.783 196.168C269.445 196.714 270.905 197.797 271.725 199.343L273.977 203.583C275.93 207.261 273.673 211.768 269.557 212.407L264.795 213.146C262.886 213.443 261.233 214.632 260.346 216.348L259.947 217.12C259.074 218.807 259.044 220.805 259.864 222.517L262.848 228.751C263.606 230.333 263.64 232.166 262.942 233.776L262.334 235.179C261.955 236.051 261.376 236.823 260.644 237.43L258.877 238.896C256.692 240.709 253.541 240.76 251.298 239.02L249.698 237.778C248.636 236.954 247.33 236.506 245.985 236.506H237.785C234.839 236.506 232.829 239.488 233.936 242.219C234.354 243.25 234.34 244.405 233.899 245.426L232.118 249.547C231.79 250.305 231.621 251.123 231.621 251.95V253.378C231.621 254.028 231.518 254.672 231.307 255.286C230.578 257.4 229.292 260.931 228.196 263.285C226.918 266.032 223.097 268.702 221.347 269.694L218.736 270.791C216.125 271.889 213.109 271.025 211.396 268.769C208.219 264.586 204.306 259.852 203.082 259.852H197.143C195.051 259.852 193.143 261.05 192.234 262.934C191.107 265.269 188.491 266.487 185.978 265.848L179.571 264.216C177.332 263.646 174.964 264.4 173.466 266.159L170.063 270.156C168.728 271.722 166.691 272.508 164.654 272.214C159.715 271.501 152.991 270.426 150.799 269.694C148.259 268.845 143.562 263.605 141.071 260.534C140.705 260.083 140.415 259.58 140.205 259.038C139.233 256.531 137.72 252.334 137.557 250.697C137.424 249.367 139.853 245.702 142.097 242.685C143.473 240.834 143.798 238.383 142.837 236.287Z" fill="#939453" fill-opacity="0.4"/>
<path d="M178.703 182.107L184.724 179.324C186.867 178.334 188.239 176.189 188.239 173.828V165.172V155.102C188.239 148.316 178.058 141.682 178.058 136.462C178.058 131.242 162.688 106.798 162.688 104.971C162.688 103.144 166.832 103.229 173.62 107.927C180.407 112.625 193.46 133.069 197.376 141.682C201.292 150.295 199.465 156.037 199.465 168.565C199.465 181.093 207.036 174.568 210.691 172.219C214.345 169.87 217.217 164.128 217.217 160.213C217.217 156.298 224.788 147.424 226.876 141.682C228.965 135.94 226.876 135.418 226.876 130.459C226.876 127.865 230.968 127.361 235.138 127.591C238.515 127.777 240.652 131.082 239.661 134.315C238.705 137.434 237.438 140.875 236.014 143.248C232.881 148.468 235.692 156.46 231.515 162.985C227.338 169.51 224.527 166.499 222.96 171.197C221.394 175.895 225.31 177.178 226.876 179.266C228.443 181.354 228.965 181.354 232.359 181.354C235.753 181.354 239.105 180.419 243.969 172.51C255.847 153.197 256.376 177.7 264.73 177.7C273.084 177.7 270.996 177.7 277 179.266C278.142 179.563 279.375 179.985 280.626 180.476C284.681 182.066 284.098 187.605 279.872 188.662C277.784 189.184 268.632 189.59 257.407 189.59C246.181 189.59 251.155 190.75 244.629 191.011C238.102 191.272 236.014 192.577 236.014 196.231C236.014 199.743 232.128 204.508 235.413 205.748C235.652 205.839 235.855 205.888 236.014 205.888C237.841 205.888 244.629 210.325 248.806 210.325C252.983 210.325 260.815 214.24 264.73 216.328C268.646 218.416 277.646 221.287 279.872 221.287C289.959 221.287 287.226 251.563 285.921 251.563C284.615 251.563 261.598 222.853 256.376 221.287C252.985 220.27 249.824 219.184 248.009 218.532C247.326 218.286 246.606 218.155 245.88 218.155H230.812C228.419 218.155 226.25 219.564 225.278 221.75L225.049 222.265C224.875 222.656 224.702 223.072 224.793 223.49C225.923 228.704 252.992 234.256 246.978 237.546L232.119 243.375C230.679 243.94 229.509 245.035 228.85 246.436L224.992 254.643C224.856 254.932 224.744 255.232 224.657 255.539C222.804 262.084 213.161 260.745 213.161 253.943V230.422C213.161 225.202 208.602 222.853 207.036 221.287C205.469 219.721 196.854 220.504 195.549 222.853C194.244 225.202 191.633 227.912 188.239 231.305C186.081 233.463 185.52 235.4 183.717 238.666C182.726 240.462 180.842 242.112 180.424 244.12C178.89 251.496 180.685 271.829 177.436 271.829C172.476 271.829 173.174 235.559 162.688 248.18C161.123 250.064 117.807 271.497 119.097 268.873C129.539 247.636 128.758 251 134.55 248.724C135.392 248.393 136.103 247.805 136.708 247.132C141.321 242.001 141.773 245.95 149.906 239.968C156.055 235.446 159.735 234.791 162.771 232.165C163.392 231.628 164.06 231.138 164.815 230.813L172.363 227.569C173.19 227.213 173.928 226.677 174.522 226L179.528 220.298C182.188 217.267 181.198 212.531 177.547 210.819L176.959 210.544C176.648 210.398 176.349 210.226 176.067 210.029L169.013 205.114C168.265 204.593 167.408 204.247 166.508 204.103L156.118 202.441C155.265 202.304 154.392 202.352 153.559 202.581L143.502 205.341C142.21 205.695 140.837 205.611 139.597 205.102L138.275 204.558C132.138 202.035 133.942 192.902 140.578 192.902H143.713C145.155 192.902 146.549 192.387 147.646 191.451L151.575 188.094C153.501 186.45 154.113 183.733 153.079 181.422C150.319 175.252 158.676 170.251 162.809 175.599L169.653 184.457C171.528 186.884 175.276 186.598 176.761 183.914C177.2 183.121 177.88 182.488 178.703 182.107Z" fill="#664D3B" stroke="#61432D" stroke-width="6.81275"/>
<path d="M57.1977 272.947L60.2315 268.849C62.4713 265.824 61.4371 261.509 58.0691 259.828L36.8531 249.236C35.3405 248.481 34.2125 247.128 33.7417 245.504L29.1227 229.572C28.638 227.9 27.4572 226.518 25.8817 225.778L20.4825 223.241C19.4498 222.756 18.5752 221.988 17.9595 221.028L11.5838 211.081C10.5836 209.521 10.353 207.588 10.958 205.836L15.3859 193.015C15.5042 192.673 15.653 192.342 15.8304 192.026L28.0607 170.258C28.2598 169.903 28.4942 169.57 28.7601 169.262L47.7803 147.273C48.8786 146.003 49.4005 144.334 49.2214 142.665L48.5522 136.43C48.1681 132.85 50.9732 129.728 54.5735 129.728H80.1025H104.915C109.247 129.728 112.178 125.311 110.495 121.319L105.615 109.747C105.301 109.002 105.139 108.202 105.139 107.394V78.7572C105.139 77.2405 104.57 75.779 103.544 74.6618L96.1152 66.5699C94.2273 64.5136 93.9897 61.4332 95.5397 59.1117L104.762 45.299C105.013 44.9241 105.304 44.5783 105.631 44.2681L125.128 25.7749C126.55 24.4263 128.535 23.8426 130.45 24.2607C141.019 26.5691 160.235 31.7947 171.903 38.6243C188.038 48.0679 190.264 56.9561 194.715 71.3994C199.165 85.8426 199.165 61.4002 201.947 56.9561C204.017 53.6501 212.341 48.1664 217.076 45.3293C217.74 44.9318 218.475 44.6773 219.241 44.5652L255.045 39.322C257.834 38.9135 260.54 40.4781 261.498 43.1294C264.589 51.6858 268.712 64.7324 268.712 71.3994C268.712 78.4784 280.912 78.2487 289.117 76.9472C290.993 76.6497 292.923 77.1296 294.36 78.3724L306.677 89.031C308.006 90.1812 308.77 91.8524 308.77 93.6103V126.296C308.77 128.425 309.888 130.397 311.714 131.491L316.596 134.416C316.942 134.623 317.307 134.795 317.686 134.93L333.604 140.569C334.108 140.748 334.586 140.992 335.025 141.296L354.6 154.827C355.554 155.486 356.306 156.399 356.711 157.486C359.375 164.643 362.23 177.284 356.061 181.39C350.08 185.372 360.919 189.65 368.974 191.83C370.662 192.286 372.112 193.386 372.934 194.928L385.986 219.413C387.948 223.093 385.69 227.609 381.568 228.247L353.532 232.584C351.625 232.879 349.972 234.065 349.083 235.777L344.104 245.365C343.226 247.056 343.195 249.062 344.02 250.78L354.86 273.328C355.623 274.915 355.657 276.755 354.954 278.37L351.076 287.276C350.696 288.149 350.115 288.92 349.381 289.526L338.094 298.853C335.913 300.656 332.773 300.707 330.533 298.976L318.752 289.868C317.691 289.049 316.388 288.604 315.048 288.604H286.059C281.759 288.604 278.829 292.959 280.45 296.942L283.33 304.022C283.944 305.53 283.925 307.222 283.276 308.715L277.558 321.892C277.228 322.653 277.057 323.474 277.057 324.303V330.95C277.057 331.601 276.953 332.248 276.743 332.865C275.094 337.721 271.627 347.362 268.712 353.599C265.596 360.265 256.286 366.746 252.021 369.153L239.227 374.509C236.621 375.601 233.614 374.747 231.939 372.472C223.899 361.548 211.06 345.266 207.511 345.266H188.492C186.172 345.266 184.057 346.592 183.045 348.681L178.507 358.044C177.254 360.631 174.355 361.98 171.569 361.273L144.95 354.523C142.717 353.957 140.355 354.707 138.858 356.458L123.969 373.873C122.635 375.433 120.606 376.213 118.572 375.932C106.576 374.276 86.184 371.177 80.1025 369.153C73.6363 367.001 61.4296 353.212 55.6127 345.953C55.2485 345.498 54.957 344.996 54.7429 344.454C52.4274 338.598 48.2576 327.284 47.8331 323.046C47.4431 319.152 56.1369 307.012 62.1628 299.333C63.5911 297.513 63.9107 295.048 62.9435 292.946L56.5636 279.082C55.6399 277.075 55.8829 274.723 57.1977 272.947Z" fill="#939453" fill-opacity="0.4"/>
<path d="M119.245 371.058L118.572 375.932L119.245 371.058C113.276 370.234 105.229 369.053 97.9339 367.828C90.4701 366.576 84.2614 365.351 81.6563 364.484C80.8931 364.23 79.4734 363.419 77.4322 361.793C75.4916 360.246 73.3258 358.239 71.1071 356.002C66.6739 351.534 62.2843 346.41 59.4522 342.876L55.6127 345.953L59.4522 342.876C59.3962 342.806 59.3525 342.731 59.3186 342.645C58.1818 339.77 56.591 335.557 55.2393 331.565C53.8931 327.589 52.9761 324.374 52.7586 322.802C52.77 322.755 52.7863 322.693 52.8091 322.615C52.9247 322.223 53.1448 321.649 53.5077 320.882C54.2329 319.35 55.3449 317.428 56.7321 315.268C59.4934 310.968 63.0694 306.148 66.0336 302.371C68.5694 299.139 69.173 294.713 67.4132 290.889L61.0334 277.025C60.8602 276.649 60.9058 276.208 61.1523 275.875L64.1862 271.777C68.2457 266.293 66.3713 258.473 60.2669 255.426L39.0508 244.834L36.8531 249.236L39.0508 244.834C38.7672 244.692 38.5557 244.439 38.4675 244.134L33.8484 228.202C32.9699 225.172 30.8297 222.666 27.9741 221.324L25.9253 225.685L27.9741 221.324L22.5749 218.788C22.3813 218.697 22.2173 218.553 22.1019 218.373L15.7261 208.426C15.5386 208.133 15.4954 207.771 15.6088 207.443L20.0367 194.622L15.3865 193.016L20.0367 194.621C20.0589 194.557 20.0868 194.495 20.12 194.436L15.8304 192.026L20.12 194.436L32.3503 172.668L28.0607 170.258L32.3504 172.668C32.3877 172.601 32.4316 172.539 32.4815 172.481L28.7601 169.262L32.4815 172.481L51.5016 150.492C53.4923 148.19 54.4383 145.166 54.1136 142.14L53.4445 135.905C53.3725 135.234 53.8984 134.648 54.5735 134.648H80.1025H104.915C112.768 134.648 118.08 126.643 115.029 119.407L110.149 107.835C110.09 107.695 110.059 107.545 110.059 107.394V78.7572C110.059 76.0082 109.028 73.3592 107.169 71.3342L99.7396 63.2423C99.3857 62.8567 99.3411 62.2792 99.6318 61.8439L108.854 48.0312L104.762 45.299L108.854 48.0312C108.901 47.9609 108.956 47.8961 109.017 47.8379L128.514 29.3447C128.794 29.0787 129.132 29.0093 129.4 29.0677C139.927 31.3668 158.474 36.4653 169.418 42.8707C176.938 47.272 180.856 51.3169 183.473 55.6713C186.051 59.9615 187.525 64.7584 189.591 71.4784C189.729 71.9264 189.869 72.3829 190.012 72.8484C190.59 74.7227 191.222 76.4165 191.992 77.6754C192.353 78.2655 193.029 79.2456 194.156 79.9622C195.582 80.8694 197.584 81.2214 199.506 80.2744C200.976 79.5499 201.743 78.3628 202.064 77.8068C202.448 77.1417 202.712 76.4534 202.897 75.8932C203.271 74.7611 203.559 73.4267 203.794 72.1602C204.047 70.8024 204.321 69.0255 204.582 67.3268C204.772 66.0971 204.955 64.9084 205.119 63.9492C205.342 62.65 205.56 61.5434 205.785 60.6744C205.999 59.8441 206.143 59.5397 206.138 59.5371C206.138 59.537 206.137 59.5373 206.136 59.5382C206.298 59.2952 206.787 58.7149 207.797 57.8128C208.779 56.9354 210.022 55.9561 211.412 54.9417C214.19 52.9153 217.322 50.9176 219.605 49.5502C219.685 49.5022 219.798 49.4563 219.953 49.4336L255.758 44.1904C256.309 44.1097 256.733 44.4198 256.871 44.8012C258.388 49.0015 260.147 54.273 261.519 59.2747C262.932 64.4233 263.791 68.7889 263.791 71.3994C263.791 74.848 265.391 77.5705 267.795 79.3725C269.973 81.006 272.647 81.781 275.045 82.1721C279.883 82.9612 285.588 82.4889 289.888 81.8068C290.465 81.7152 290.9 81.8851 291.14 82.0931L303.457 92.7516L306.677 89.031L303.457 92.7517C303.707 92.9673 303.85 93.2807 303.85 93.6103V126.296C303.85 130.155 305.875 133.73 309.185 135.712L311.714 131.491L309.185 135.712L314.068 138.637C314.694 139.012 315.355 139.324 316.043 139.567L317.686 134.93L316.043 139.568L331.961 145.207C332.056 145.241 332.145 145.286 332.228 145.343L351.803 158.874C352.011 159.019 352.08 159.151 352.099 159.202L356.711 157.486L352.099 159.202C353.336 162.524 354.551 166.97 354.787 170.879C355.047 175.187 354.044 176.823 353.335 177.294C352.188 178.058 350.979 179.126 350.2 180.629C349.344 182.281 349.196 184.108 349.713 185.819C350.182 187.37 351.105 188.54 351.92 189.352C352.757 190.187 353.723 190.886 354.662 191.468C358.275 193.707 363.585 195.469 367.69 196.579C368.154 196.705 368.451 196.977 368.592 197.243L381.645 221.728C382.012 222.418 381.589 223.265 380.816 223.384L352.779 227.721C349.323 228.256 346.328 230.406 344.716 233.51L339.737 243.097C338.145 246.163 338.089 249.799 339.586 252.912L350.426 275.46C350.569 275.757 350.575 276.102 350.443 276.405L346.565 285.312C346.494 285.475 346.385 285.62 346.247 285.733L334.96 295.06C334.551 295.398 333.962 295.408 333.543 295.083L321.761 285.976C319.839 284.49 317.478 283.684 315.048 283.684H286.059C278.266 283.684 272.955 291.578 275.892 298.796L278.773 305.877C278.888 306.159 278.884 306.477 278.763 306.757L273.044 319.933C272.446 321.312 272.137 322.8 272.137 324.303V330.95C272.137 331.076 272.117 331.188 272.084 331.283C270.441 336.119 267.047 345.54 264.254 351.515C263.151 353.875 260.699 356.606 257.616 359.219C254.748 361.65 251.749 363.632 249.844 364.73L237.327 369.971C236.845 370.173 236.25 370.028 235.902 369.555C231.849 364.048 226.548 357.138 221.777 351.571C219.404 348.801 217.074 346.26 215.042 344.374C214.035 343.44 212.987 342.559 211.961 341.881C211.154 341.348 209.511 340.346 207.511 340.346H188.492C184.284 340.346 180.451 342.751 178.617 346.535L174.079 355.899C173.844 356.383 173.301 356.636 172.779 356.504L146.159 349.754C142.112 348.728 137.832 350.087 135.119 353.261L120.229 370.675C119.974 370.973 119.602 371.108 119.245 371.058Z" stroke="#6A653A" stroke-opacity="0.4" stroke-width="9.84064"/>
<path d="M273.293 273.499L267.216 278.554C265.53 279.957 263.213 280.328 261.173 279.522C257.7 278.149 253.83 280.248 253.087 283.907L250.529 296.501C250.193 298.159 249.178 299.6 247.732 300.476L239.675 305.356C238.185 306.258 237.156 307.757 236.85 309.472L236.399 312.001C236.199 313.124 235.685 314.167 234.918 315.011L230.588 319.772C229.339 321.146 227.528 321.871 225.676 321.738L217.696 321.167C217.334 321.141 216.975 321.083 216.623 320.993L200.684 316.906C200.29 316.804 199.907 316.664 199.541 316.486L182.859 308.378C181.346 307.643 179.596 307.57 178.028 308.176L176.944 308.596C173.585 309.894 169.842 307.993 168.91 304.515L165.015 289.978L161.447 276.663C160.326 272.476 155.297 270.789 151.877 273.452L147.868 276.574C147.229 277.072 146.497 277.436 145.715 277.646L128.211 282.336C126.744 282.729 125.478 283.659 124.665 284.942L121.944 289.232C120.446 291.593 117.527 292.622 114.88 291.721L105.963 288.688C105.536 288.543 105.127 288.35 104.743 288.114L90.3477 279.267C88.6811 278.242 87.6045 276.481 87.5278 274.526C87.2347 267.052 87.3754 254.398 89.6746 245.986C93.001 233.814 98.397 230.812 107.02 225.39C115.642 219.968 99.7336 224.231 96.3549 223.191C93.9245 222.443 89.1468 218.236 86.4159 215.613C85.859 215.079 85.4236 214.434 85.118 213.725L76.214 193.063C75.0993 190.476 75.9091 187.457 78.2353 185.869C83.2266 182.462 90.1027 178.19 94.0864 177.123C98.4333 175.958 96.6481 168.844 94.5166 163.74C93.786 161.99 93.7413 160.006 94.5667 158.299L98.5327 150.098C99.299 148.513 100.717 147.34 102.417 146.885L121.73 141.71C123.789 141.158 125.405 139.566 125.988 137.516L126.679 135.086C126.789 134.7 126.86 134.303 126.891 133.902L127.744 122.991C127.786 122.459 127.897 121.934 128.076 121.432L133.18 107.094C133.57 106.001 134.255 105.034 135.211 104.376C139.49 101.434 146.795 97.777 150.408 100.963C153.856 104.004 154.835 97.1359 154.937 91.6125C154.969 89.8655 155.648 88.179 156.924 86.9848L167.888 76.7202C170.934 73.8678 175.886 74.8801 177.568 78.6997L183.769 92.7753C184.546 94.54 186.118 95.829 188.001 96.2463L193.167 97.3912C195.031 97.8043 196.981 97.314 198.428 96.0683L209.767 86.3068C211.104 85.1558 212.877 84.6451 214.621 84.9082L219.728 85.6785C220.67 85.8206 221.566 86.1829 222.341 86.7361L228.727 91.2897C231.027 92.9303 231.887 95.9438 230.8 98.5515L227.791 105.764C227.275 107 227.184 108.371 227.53 109.663L231.666 125.097C232.779 129.252 237.748 130.954 241.175 128.354L242.271 127.523C243.57 126.537 245.213 126.117 246.826 126.359L255.168 127.606C255.99 127.729 256.828 127.682 257.631 127.467L261.246 126.498C261.877 126.329 262.531 126.262 263.183 126.307C266.723 126.549 273.328 127.119 277.759 127.908C282.642 128.778 288.487 133.72 290.799 136.083L295.568 142.259C297.293 144.491 297.244 147.614 295.497 149.829C289.865 156.97 282.446 167.095 283.032 169.282L286.038 180.5C286.638 182.74 288.464 184.44 290.741 184.878L294.845 185.669C297.664 186.212 299.714 188.66 299.755 191.531L299.975 207.26C300.007 209.56 301.339 211.644 303.414 212.637L315.291 218.325C317.139 219.211 318.416 220.97 318.668 223.004C319.682 231.212 321.091 244.085 320.847 248.223C320.581 252.748 313.936 262.878 310.194 268.015C309.851 268.487 309.441 268.897 308.972 269.244C305.504 271.811 299.103 276.319 296.478 277.313C294.162 278.19 285.712 275.108 279.679 272.583C277.541 271.689 275.075 272.017 273.293 273.499Z" fill="#939453" fill-opacity="0.4"/>
<path d="M131.114 164.781L133.639 161.212C134.522 159.964 136.015 159.296 137.534 159.47C140.122 159.766 142.349 157.654 142.191 155.054L141.698 146.928C141.595 145.241 142.203 143.587 143.373 142.367L146.793 138.804C147.999 137.549 148.605 135.835 148.458 134.1L148.422 133.674C148.326 132.537 148.553 131.396 149.077 130.382L150.487 127.654C151.338 126.007 152.897 124.841 154.717 124.489L159.164 123.629C159.52 123.56 159.881 123.524 160.244 123.52L171.365 123.391C171.772 123.386 172.178 123.422 172.577 123.499L184.866 125.859C186.16 126.107 187.498 125.807 188.562 125.031C190.843 123.366 194.064 124.047 195.476 126.492L200.418 135.052L203.832 140.965C205.998 144.717 211.289 145.047 213.904 141.592L214.155 141.261C214.643 140.617 215.255 140.076 215.955 139.672L225.965 133.893C227.278 133.135 228.26 131.911 228.714 130.463L229.131 129.136C229.968 126.472 232.517 124.726 235.304 124.908L240.218 125.229C240.667 125.259 241.113 125.338 241.545 125.466L251.724 128.486C253.602 129.043 255.103 130.472 255.665 132.348C257.178 137.405 259.108 145.303 259.075 151.02C259.024 159.808 255.93 162.802 251.098 168.008C246.266 173.214 256.214 167.471 258.676 167.559C260.37 167.62 264.079 169.42 266.421 170.688C267.101 171.057 267.689 171.568 268.169 172.175L276.752 183.032C278.5 185.244 278.501 188.376 276.634 190.488C273.999 193.468 270.704 196.858 268.492 198.135C265.985 199.582 267.9 203.488 270.059 206.478C271.171 208.017 271.739 209.92 271.381 211.785L270.516 216.294C270.185 218.021 269.119 219.518 267.597 220.397L257.14 226.434C255.297 227.499 254.147 229.453 254.113 231.582L254.105 232.118C254.098 232.52 254.132 232.922 254.205 233.318L255.516 240.389C255.613 240.915 255.64 241.451 255.597 241.983L254.802 251.769C254.708 252.925 254.297 254.041 253.525 254.906C251.118 257.606 247.119 260.962 244.258 259.544C241.594 258.224 241.9 262.265 242.698 265.838C243.079 267.544 242.868 269.348 241.943 270.832L238.21 276.823C236.004 280.363 230.963 280.665 228.35 277.414L223.847 271.811C222.638 270.307 220.785 269.469 218.858 269.555L217.014 269.637C215.11 269.722 213.356 270.698 212.281 272.273L207.387 279.443C206.394 280.898 204.817 281.848 203.067 282.047L200.754 282.309C199.808 282.416 198.85 282.298 197.958 281.966L194.63 280.725C191.979 279.737 190.365 277.044 190.744 274.24L191.192 270.929C191.371 269.601 191.105 268.251 190.435 267.09L185.568 258.66C183.889 255.752 179.798 255.471 177.738 258.123C176.957 259.127 175.805 259.775 174.542 259.919L169.284 260.521C168.46 260.616 167.664 260.878 166.945 261.293L165.27 262.261C164.705 262.587 164.092 262.82 163.452 262.944C160.965 263.426 156.643 264.186 153.638 264.446C150.192 264.744 145.366 262.476 143.384 261.305L140.232 258.905C137.984 257.194 137.225 254.16 138.324 251.558C140.712 245.898 143.372 238.833 142.643 237.571L139.178 231.569C138.018 229.56 135.812 228.39 133.497 228.557L133.234 228.576C130.368 228.784 127.75 226.948 126.969 224.183L124.712 216.193C124.086 213.976 122.256 212.307 119.992 211.885L113.078 210.599C111.06 210.224 109.368 208.855 108.603 206.951C106.459 201.614 103.521 193.979 102.973 191.311C102.351 188.281 104.887 180.521 106.491 176.323C106.699 175.779 106.992 175.272 107.356 174.817C109.264 172.433 112.61 168.449 114.153 167.339C115.441 166.413 120.817 166.797 125.185 167.337C127.482 167.62 129.777 166.671 131.114 164.781Z" fill="#939453" fill-opacity="0.4"/>
<path d="M158.659 177.765L159.601 176.428C160.137 175.668 161.046 175.262 161.969 175.369C163.54 175.552 164.894 174.269 164.795 172.69L164.545 168.692C164.442 167.051 165.03 165.441 166.167 164.254L167.458 162.906C168.262 162.066 168.666 160.92 168.566 159.761C168.5 159.003 168.65 158.241 168.998 157.564L169.272 157.03C170.124 155.374 171.689 154.202 173.517 153.852L174.864 153.593C175.221 153.525 175.584 153.489 175.947 153.485L182.253 153.425C182.661 153.421 183.067 153.458 183.467 153.536L190.705 154.943C191.492 155.096 192.307 154.914 192.955 154.441C194.338 153.431 196.292 153.843 197.149 155.327L200.173 160.565L202.157 164.001C203.525 166.371 206.867 166.576 208.514 164.392C208.822 163.983 209.21 163.641 209.654 163.384L215.46 160.032C216.415 159.481 217.127 158.59 217.455 157.537C218.059 155.599 219.914 154.328 221.94 154.465L224.094 154.61C224.544 154.641 224.99 154.721 225.422 154.851L230.202 156.281C232.072 156.84 233.57 158.264 234.097 160.144C234.949 163.186 235.869 167.296 235.858 170.37C235.838 175.726 233.96 177.547 231.028 180.714C228.097 183.88 234.138 180.392 235.636 180.449C236.574 180.485 238.53 181.402 239.949 182.152C240.63 182.512 241.216 183.024 241.693 183.629L245.489 188.437C247.233 190.646 247.247 193.786 245.319 195.835C244.021 197.213 242.648 198.515 241.642 199.096C240.378 199.826 240.969 201.592 241.959 203.215C242.945 204.829 243.551 206.706 243.198 208.565L243.098 209.093C242.77 210.826 241.703 212.329 240.176 213.211L235.023 216.186C233.75 216.921 232.957 218.272 232.937 219.742C232.933 220.019 232.957 220.295 233.007 220.567L233.747 224.526C233.845 225.049 233.873 225.584 233.831 226.115L233.439 231.073C233.348 232.23 232.945 233.356 232.137 234.189C230.664 235.705 228.547 237.271 226.983 236.492C225.611 235.808 225.537 237.466 225.843 239.312C226.125 241.012 225.951 242.787 225.043 244.25C222.87 247.752 217.888 248.054 215.308 244.84L214.933 244.372C213.979 243.184 212.517 242.52 210.995 242.585C209.483 242.65 208.09 243.425 207.239 244.677L205.113 247.803C204.179 249.177 202.691 250.074 201.039 250.259C200.149 250.358 199.248 250.245 198.41 249.931L198.169 249.84C195.773 248.941 194.314 246.507 194.651 243.97C194.811 242.768 194.569 241.547 193.963 240.498L191.287 235.863C190.268 234.098 187.785 233.93 186.537 235.541C186.063 236.153 185.361 236.548 184.592 236.634L181.894 236.939C181.066 237.032 180.267 237.295 179.545 237.712L179.299 237.854C178.731 238.182 178.116 238.416 177.472 238.537C175.929 238.826 173.571 239.225 171.89 239.367C169.796 239.544 166.859 238.156 165.652 237.44L165.214 237.106C162.976 235.396 162.229 232.376 163.272 229.761C164.477 226.739 165.544 223.619 165.172 222.974L163.089 219.366C162.362 218.107 160.98 217.372 159.529 217.475C157.733 217.601 156.095 216.451 155.604 214.72L154.639 211.32C154.012 209.112 152.191 207.447 149.935 207.022L148.417 206.736C146.406 206.357 144.719 204.991 143.965 203.089C142.73 199.977 141.291 196.17 140.994 194.732C140.628 192.96 142.023 188.539 142.994 185.925C143.197 185.377 143.489 184.87 143.855 184.415C145.034 182.951 146.881 180.77 147.762 180.136C148.447 179.643 151.041 179.766 153.459 180.029C155.477 180.249 157.49 179.423 158.659 177.765Z" fill="#939453" fill-opacity="0.4"/>
</svg>
