<svg width="500" height="501" viewBox="0 0 500 501" fill="none" xmlns="http://www.w3.org/2000/svg">
<g clip-path="url(#clip0_524_1205)">
<path d="M373.683 156.047L375.019 88.6477C375.5 64.3733 349.035 49.0939 328.254 61.6478L270.552 96.5042L223.839 47.9013C207.014 30.3966 177.497 38.3055 171.679 61.8775L155.525 127.326L88.126 125.99C63.8516 125.509 48.5721 151.973 61.1261 172.755L95.9824 230.456L47.3796 277.17C29.8748 293.994 37.7837 323.512 61.3557 329.33L126.804 345.484L125.468 412.883C124.987 437.157 151.451 452.437 172.233 439.883L229.935 405.026L276.648 453.629C293.473 471.134 322.99 463.225 328.808 439.653L344.962 374.205L412.361 375.541C436.635 376.022 451.915 349.557 439.361 328.775L404.504 271.074L453.107 224.36C470.612 207.536 462.703 178.019 439.131 172.201L373.683 156.047Z" fill="#B69F72" stroke="#A28D6E" stroke-width="51.3835"/>
</g>
<defs>
<clipPath id="clip0_524_1205">
<rect width="500" height="500" fill="white" transform="translate(0 0.520508)"/>
</clipPath>
</defs>
</svg>
