<svg width="400" height="400" viewBox="0 0 400 400" fill="none" xmlns="http://www.w3.org/2000/svg">
<path d="M189.42 150.183C180.544 151.704 172.145 155.311 167.249 159.756C166.066 160.831 163.899 160.406 163.485 158.861L160.222 146.672C160.094 146.194 160.161 145.685 160.409 145.257L168.425 131.412C168.667 130.994 168.737 130.5 168.621 130.032L166.114 119.882C166.044 119.601 165.91 119.34 165.722 119.12L158.073 110.155C157.707 109.727 157.555 109.156 157.659 108.602L160.022 96.0426L162.783 84.7799C163.07 83.6067 162.182 82.4743 160.974 82.4743H151.775C150.746 82.4743 149.912 83.3081 149.912 84.3366V90.1945C149.912 91.3647 148.846 92.2449 147.697 92.023L139.521 90.4435C138.736 90.2918 138.135 89.6555 138.028 88.8626L136.775 79.5184C136.754 79.3613 136.753 79.2022 136.772 79.0448L138.115 68.0611C138.174 67.5793 138.042 67.0937 137.748 66.7075L133.551 61.1908L131.755 58.7422C130.783 57.4169 128.696 57.9084 128.418 59.528L124.835 80.3758C124.793 80.6195 124.8 80.8691 124.855 81.11L129.093 99.4717C129.138 99.6674 129.214 99.8545 129.319 100.026L138.125 114.4C138.179 114.488 138.241 114.572 138.309 114.65L149.454 127.442C149.75 127.781 149.912 128.216 149.912 128.665V139.34C149.912 140.103 149.45 140.792 148.731 141.05C143.857 142.806 135.036 145.047 131.023 142.6C126.764 140.003 117.509 140.153 113.111 140.574C112.903 140.594 112.695 140.58 112.492 140.532L103.917 138.501C103.176 138.326 102.402 138.619 101.964 139.242L95.307 148.713C94.4396 149.946 95.3222 151.646 96.8305 151.646H112.437C112.676 151.646 112.913 151.692 113.135 151.781L139.759 162.533C140.213 162.717 140.577 163.072 140.771 163.522L145.124 173.594L149.571 186.444C149.783 187.056 149.662 187.734 149.251 188.235L131.269 210.142C131.107 210.34 130.989 210.564 130.918 210.81C129.124 217.001 124.917 228.895 121.579 229.73C118.173 230.581 108.986 235.405 104.818 237.711L84.9788 251.845C84.6459 252.082 84.4014 252.419 84.2795 252.81C82.7346 257.753 79.5815 267.093 77.9474 269.237C76.7897 270.757 77.5344 274.372 78.5756 277.505C79.0811 279.026 81.1028 279.042 81.7562 277.578L86.7269 266.444L92.8268 255.116C93.0915 254.624 93.5628 254.277 94.1108 254.17L115.636 249.982C116.786 249.758 117.854 250.639 117.854 251.81V263.983C117.854 264.116 117.868 264.248 117.896 264.378L121.091 279.094C121.342 280.252 122.596 280.884 123.676 280.397L129.473 277.784C130.351 277.389 130.783 276.389 130.469 275.479L126.027 262.608C125.902 262.248 125.891 261.858 125.996 261.491L130.936 244.136C130.994 243.934 131.085 243.742 131.207 243.57L151.542 214.839C151.608 214.746 151.687 214.654 151.77 214.575C164.755 202.16 176.416 217.093 178.113 217.093C179.712 217.093 182.179 223.507 184.898 225.426C185.226 225.657 185.532 225.93 185.721 226.284L196.445 246.345C196.634 246.699 196.932 246.982 197.295 247.152L211.737 253.949C212.26 254.195 212.645 254.661 212.715 255.234C213.503 261.666 210.571 278.101 210.571 281.342C210.571 285.599 208.708 295.443 208.708 298.369V315.648C208.708 316.006 208.81 316.352 209.004 316.653C211.264 320.17 215.414 326.741 216.024 328.166C216.587 329.478 220.008 336.11 222.241 340.401C222.705 341.293 223.794 341.653 224.7 341.215L236.554 335.486C237.742 334.911 237.972 333.318 236.995 332.43L223.528 320.198C223.234 319.93 223.032 319.575 222.954 319.185L220.015 304.488C219.527 299.788 219.456 290.76 223.075 292.25C226.647 293.721 240.889 298.513 247.821 300.81C247.998 300.869 248.175 300.9 248.362 300.897C255.006 300.796 264.607 292.565 266.706 292.25C268.78 291.939 279.612 294.845 283.323 292.449C283.513 292.327 283.658 292.15 283.773 291.955L289.852 281.569C289.94 281.419 290.007 281.257 290.05 281.088L294.907 262.054L298.716 250.503C298.912 249.908 299.393 249.452 299.999 249.291C303.521 248.359 309.417 246.89 310.869 246.89H324.877C325.284 246.89 325.677 246.756 326.001 246.51L332.402 241.641C333.538 240.778 333.32 239.01 332.008 238.447L319.824 233.226C319.371 233.031 318.859 233.025 318.401 233.207L302.995 239.346C302.428 239.572 301.786 239.505 301.277 239.168L293.491 234.011C292.599 233.42 292.387 232.2 293.028 231.343L301.553 219.939C301.892 219.485 302.007 218.902 301.864 218.354L297.168 200.332L295.239 191.934C295.044 191.088 294.291 190.488 293.424 190.488H288.582C287.39 190.488 286.505 191.592 286.764 192.755L289.947 207.079C289.972 207.192 289.987 207.304 289.99 207.42C290.087 211.607 288.953 220.041 283.6 221.615C278.365 223.155 273.122 234.966 270.926 241.292C270.775 241.728 270.799 242.202 270.983 242.624L279.228 261.486C279.389 261.855 279.426 262.266 279.335 262.657L275.448 279.234C275.187 280.344 274.001 280.961 272.943 280.538L265.265 277.467C264.672 277.23 263.998 277.313 263.48 277.689L253.134 285.192C252.565 285.605 251.812 285.662 251.188 285.34L236.188 277.606C235.569 277.286 235.18 276.648 235.18 275.951V258.465C235.18 258.287 235.154 258.11 235.104 257.939L231.975 247.302C231.896 247.031 231.755 246.781 231.565 246.572L213.052 226.272C212.739 225.929 212.566 225.482 212.566 225.018V215.39C212.566 214.944 212.726 214.512 213.017 214.174L224.626 200.693C224.83 200.456 224.971 200.172 225.036 199.866L228.239 184.838C228.339 184.367 228.619 183.953 229.018 183.683L243.77 173.722C243.896 173.637 244.007 173.541 244.109 173.428C248.156 168.929 256.35 159.734 257.926 157.632C259.485 155.554 260.071 149.248 260.181 146.145C260.186 145.998 260.207 145.854 260.246 145.713L264.162 131.313C264.259 130.953 264.247 130.573 264.126 130.221L256.032 106.579C255.965 106.384 255.931 106.181 255.931 105.975V82.7307C255.931 82.5606 255.954 82.3912 256 82.2274L260.118 67.5567C260.164 67.3929 260.188 67.2235 260.188 67.0534V49.4848V41.1773C260.188 40.9532 260.147 40.7309 260.068 40.5212L257.181 32.8516C256.652 31.4469 254.764 31.2128 253.908 32.4458L248.415 40.3595C248.199 40.6713 248.083 41.0418 248.083 41.4214V47.2677C248.083 48.4248 247.041 49.3018 245.904 49.0849C241.203 48.1875 234.124 46.6323 231.854 45.3611C230.41 44.5523 228.848 43.5502 227.53 42.661C226.352 41.8661 224.712 42.5732 224.529 43.9827L223.222 54.0685C223.132 54.7653 223.441 55.4537 224.023 55.8485L240.084 66.7556C240.594 67.1022 240.9 67.6792 240.9 68.2962V85.9916C240.9 86.1294 240.915 86.2668 240.945 86.4012L243.862 99.3353C243.926 99.6193 243.922 99.9143 243.852 100.197L239.151 118.998C239.076 119.298 239.076 119.607 239.152 119.907C240.826 126.484 243.959 139.149 243.959 140.605C243.959 142.035 242.081 149.866 241.028 154.062C240.944 154.397 240.77 154.699 240.521 154.938C235.931 159.35 226.593 167.653 223.075 168.274C218.552 169.072 216.633 161.269 210.571 157.632C200.594 151.646 198.732 148.586 189.42 150.183Z" fill="#664D3B" stroke="#61432D" stroke-width="3.45858"/>
<path d="M210.408 27.7034C212.705 26.2053 215.67 26.2053 217.966 27.7034L219.366 28.6165C220.254 29.1958 221.264 29.5632 222.316 29.6903L223.976 29.8906C226.698 30.2193 228.969 32.125 229.766 34.7489L230.251 36.3483C230.559 37.3629 231.096 38.2931 231.821 39.0671L232.963 40.2872C234.837 42.2888 235.352 45.2086 234.276 47.7306L233.619 49.2678C233.203 50.243 233.017 51.3008 233.074 52.3595L233.165 54.0284C233.314 56.7665 231.832 59.3341 229.386 60.574L227.895 61.3298C226.95 61.8093 226.127 62.4997 225.49 63.3478L224.487 64.6847C222.841 66.878 220.055 67.892 217.385 67.2697L215.757 66.8904C214.724 66.6498 213.65 66.6498 212.618 66.8904L210.99 67.2697C208.319 67.892 205.533 66.878 203.887 64.6847L202.884 63.3478C202.248 62.4997 201.425 61.8093 200.479 61.3298L198.988 60.574C196.543 59.3341 195.06 56.7665 195.209 54.0284L195.3 52.3595C195.358 51.3008 195.171 50.243 194.755 49.2678L194.099 47.7306C193.022 45.2086 193.537 42.2888 195.411 40.2872L196.554 39.0671C197.278 38.2931 197.815 37.3629 198.123 36.3483L198.609 34.7489C199.405 32.125 201.676 30.2193 204.399 29.8906L206.058 29.6903C207.111 29.5632 208.12 29.1958 209.008 28.6165L210.408 27.7034Z" fill="#948E53" fill-opacity="0.6"/>
<path d="M284.211 162.625C286.508 161.126 289.472 161.126 291.769 162.625L298.198 166.818C299.086 167.398 300.096 167.765 301.148 167.892L308.769 168.812C311.492 169.141 313.763 171.046 314.559 173.67L316.789 181.016C317.097 182.03 317.634 182.961 318.358 183.734L323.605 189.338C325.479 191.34 325.994 194.259 324.917 196.781L321.904 203.841C321.487 204.816 321.301 205.874 321.359 206.933L321.776 214.598C321.925 217.336 320.442 219.903 317.997 221.143L311.15 224.614C310.204 225.094 309.382 225.784 308.745 226.632L304.138 232.772C302.492 234.965 299.706 235.979 297.036 235.357L289.56 233.615C288.527 233.375 287.453 233.375 286.42 233.615L278.944 235.357C276.274 235.979 273.488 234.965 271.842 232.772L267.235 226.632C266.598 225.784 265.776 225.094 264.83 224.614L257.983 221.143C255.538 219.903 254.055 217.336 254.204 214.598L254.622 206.933C254.679 205.874 254.493 204.816 254.076 203.841L251.063 196.781C249.986 194.259 250.501 191.34 252.375 189.338L257.622 183.734C258.346 182.961 258.883 182.03 259.191 181.016L261.421 173.67C262.217 171.046 264.488 169.141 267.211 168.812L274.832 167.892C275.884 167.765 276.894 167.398 277.782 166.818L284.211 162.625Z" fill="#939453" fill-opacity="0.4"/>
<path d="M290.897 163.961L297.326 168.155C298.419 168.868 299.662 169.32 300.957 169.477L308.578 170.397C310.672 170.65 312.419 172.116 313.032 174.134L315.261 181.479C315.64 182.728 316.301 183.873 317.193 184.825L322.44 190.429C323.881 191.969 324.277 194.215 323.449 196.155L320.436 203.214C319.923 204.415 319.694 205.717 319.765 207.02L320.182 214.684C320.297 216.791 319.156 218.766 317.275 219.719L310.428 223.19C309.264 223.781 308.252 224.63 307.468 225.674L302.861 231.814C301.595 233.501 299.452 234.281 297.398 233.802L289.922 232.061C288.651 231.764 287.329 231.764 286.058 232.061L278.582 233.802C276.528 234.281 274.385 233.501 273.119 231.814L268.512 225.674C267.728 224.63 266.716 223.781 265.552 223.19L258.705 219.719C256.824 218.766 255.683 216.791 255.798 214.684L256.215 207.02C256.286 205.717 256.057 204.415 255.544 203.214L252.531 196.155C251.703 194.215 252.099 191.969 253.54 190.429L258.787 184.825C259.679 183.873 260.34 182.728 260.719 181.479L262.948 174.134C263.561 172.116 265.308 170.65 267.402 170.397L275.023 169.477C276.318 169.32 277.561 168.868 278.654 168.155L285.083 163.961C286.85 162.809 289.13 162.809 290.897 163.961Z" stroke="#6A653A" stroke-opacity="0.4" stroke-width="3.19253"/>
<path d="M320.925 207.054C323.221 205.556 326.186 205.556 328.483 207.054L334.912 211.248C335.8 211.827 336.81 212.194 337.862 212.321L345.483 213.241C348.206 213.57 350.477 215.476 351.273 218.1L353.502 225.445C353.81 226.459 354.347 227.39 355.072 228.164L360.319 233.767C362.193 235.769 362.708 238.688 361.631 241.21L358.618 248.27C358.201 249.245 358.015 250.303 358.072 251.362L358.49 259.027C358.639 261.765 357.156 264.332 354.711 265.572L347.864 269.043C346.918 269.523 346.095 270.213 345.459 271.061L340.852 277.201C339.206 279.394 336.42 280.409 333.749 279.786L326.274 278.044C325.241 277.804 324.167 277.804 323.134 278.044L315.658 279.786C312.988 280.409 310.202 279.394 308.556 277.201L303.949 271.061C303.312 270.213 302.489 269.523 301.544 269.043L294.697 265.572C292.251 264.332 290.769 261.765 290.918 259.027L291.335 251.362C291.393 250.303 291.207 249.245 290.79 248.27L287.777 241.21C286.7 238.688 287.215 235.769 289.089 233.767L294.336 228.164C295.06 227.39 295.597 226.459 295.905 225.445L298.135 218.1C298.931 215.476 301.202 213.57 303.925 213.241L311.545 212.321C312.598 212.194 313.607 211.827 314.495 211.248L320.925 207.054Z" fill="#939453" fill-opacity="0.4"/>
<path d="M327.611 208.391L334.04 212.584C335.133 213.297 336.375 213.75 337.671 213.906L345.292 214.826C347.386 215.079 349.133 216.545 349.746 218.563L351.975 225.909C352.354 227.157 353.015 228.302 353.907 229.255L359.153 234.858C360.595 236.398 360.991 238.644 360.163 240.584L357.149 247.644C356.637 248.844 356.408 250.146 356.478 251.449L356.896 259.114C357.01 261.22 355.87 263.195 353.989 264.149L347.142 267.62C345.978 268.21 344.966 269.06 344.182 270.103L339.575 276.243C338.309 277.93 336.166 278.71 334.112 278.232L326.636 276.49C325.365 276.194 324.043 276.194 322.772 276.49L315.296 278.232C313.242 278.71 311.099 277.93 309.833 276.243L305.225 270.103C304.442 269.06 303.43 268.21 302.266 267.62L295.419 264.149C293.538 263.195 292.397 261.22 292.512 259.114L292.929 251.449C293 250.146 292.771 248.844 292.258 247.644L289.245 240.584C288.417 238.644 288.813 236.398 290.254 234.858L295.501 229.255C296.393 228.302 297.054 227.157 297.433 225.909L299.662 218.563C300.275 216.545 302.022 215.079 304.116 214.826L311.737 213.906C313.032 213.75 314.275 213.297 315.368 212.584L321.797 208.391C323.564 207.238 325.844 207.238 327.611 208.391Z" stroke="#6A653A" stroke-opacity="0.4" stroke-width="3.19253"/>
<path d="M222.755 244.034C225.051 242.536 228.016 242.536 230.313 244.034L244.568 253.332C245.456 253.911 246.465 254.279 247.518 254.406L264.414 256.446C267.137 256.774 269.408 258.68 270.204 261.304L275.147 277.59C275.455 278.604 275.992 279.534 276.717 280.308L288.349 292.732C290.223 294.734 290.738 297.653 289.661 300.175L282.98 315.828C282.563 316.803 282.377 317.861 282.435 318.92L283.36 335.914C283.509 338.652 282.026 341.219 279.581 342.459L264.401 350.155C263.455 350.634 262.632 351.325 261.996 352.173L251.781 365.786C250.135 367.979 247.349 368.993 244.679 368.371L228.104 364.509C227.071 364.268 225.997 364.268 224.964 364.509L208.389 368.371C205.718 368.993 202.932 367.979 201.287 365.786L191.072 352.173C190.435 351.325 189.613 350.634 188.667 350.155L173.487 342.459C171.041 341.219 169.559 338.652 169.708 335.914L170.633 318.92C170.691 317.861 170.504 316.803 170.088 315.828L163.406 300.175C162.33 297.653 162.845 294.734 164.719 292.732L176.351 280.308C177.076 279.534 177.613 278.604 177.921 277.59L182.864 261.304C183.66 258.68 185.931 256.774 188.654 256.446L205.55 254.406C206.603 254.279 207.612 253.911 208.5 253.332L222.755 244.034Z" fill="#939453" fill-opacity="0.4"/>
<path d="M229.441 245.371L243.696 254.669C244.789 255.382 246.031 255.834 247.326 255.991L264.223 258.031C266.317 258.283 268.064 259.749 268.677 261.768L273.62 278.053C273.999 279.302 274.66 280.447 275.551 281.399L287.184 293.823C288.625 295.363 289.021 297.609 288.193 299.549L281.512 315.201C280.999 316.401 280.77 317.703 280.841 319.006L281.766 336C281.881 338.107 280.74 340.082 278.859 341.036L263.679 348.731C262.515 349.321 261.502 350.171 260.719 351.215L250.504 364.828C249.238 366.515 247.095 367.295 245.041 366.816L228.466 362.954C227.195 362.658 225.873 362.658 224.602 362.954L208.027 366.816C205.973 367.295 203.829 366.515 202.563 364.828L192.349 351.215C191.565 350.171 190.553 349.321 189.389 348.731L174.209 341.036C172.328 340.082 171.187 338.107 171.302 336L172.227 319.006C172.298 317.703 172.068 316.401 171.556 315.201L164.874 299.549C164.046 297.609 164.442 295.363 165.884 293.823L177.516 281.399C178.408 280.447 179.069 279.302 179.448 278.053L184.391 261.768C185.004 259.749 186.751 258.283 188.845 258.031L205.741 255.991C207.037 255.834 208.279 255.382 209.372 254.669L223.627 245.371C225.394 244.219 227.674 244.219 229.441 245.371Z" stroke="#6A653A" stroke-opacity="0.4" stroke-width="3.19253"/>
<path d="M219.562 288.729C221.859 287.231 224.824 287.231 227.12 288.729L238.401 296.088C239.289 296.667 240.299 297.034 241.351 297.162L254.723 298.776C257.445 299.105 259.717 301.01 260.513 303.634L264.425 316.522C264.733 317.537 265.27 318.467 265.994 319.241L275.2 329.073C277.074 331.075 277.589 333.994 276.513 336.516L271.225 348.904C270.809 349.879 270.622 350.937 270.68 351.996L271.412 365.444C271.561 368.183 270.079 370.75 267.633 371.99L255.62 378.08C254.674 378.56 253.851 379.25 253.215 380.098L245.131 390.871C243.485 393.065 240.699 394.079 238.028 393.457L224.911 390.4C223.878 390.159 222.804 390.159 221.772 390.4L208.654 393.457C205.983 394.079 203.197 393.065 201.552 390.871L193.468 380.098C192.831 379.25 192.009 378.56 191.063 378.08L179.05 371.99C176.604 370.75 175.121 368.183 175.271 365.444L176.003 351.996C176.06 350.937 175.874 349.879 175.458 348.904L170.17 336.516C169.093 333.994 169.608 331.075 171.482 329.073L180.688 319.241C181.413 318.467 181.95 317.537 182.258 316.522L186.169 303.634C186.966 301.01 189.237 299.105 191.959 298.776L205.331 297.162C206.384 297.034 207.393 296.667 208.281 296.088L219.562 288.729Z" fill="#939453" fill-opacity="0.4"/>
<path d="M226.248 290.066L237.529 297.425C238.622 298.138 239.864 298.59 241.16 298.746L254.532 300.361C256.626 300.613 258.373 302.079 258.986 304.098L262.897 316.986C263.276 318.235 263.937 319.38 264.829 320.332L274.035 330.164C275.477 331.704 275.873 333.95 275.045 335.89L269.757 348.277C269.244 349.477 269.015 350.779 269.086 352.082L269.818 365.531C269.933 367.637 268.792 369.613 266.911 370.566L254.898 376.657C253.734 377.247 252.721 378.097 251.938 379.14L243.854 389.913C242.588 391.601 240.445 392.381 238.391 391.902L225.273 388.845C224.002 388.549 222.68 388.549 221.409 388.845L208.292 391.902C206.238 392.381 204.094 391.601 202.828 389.913L194.745 379.14C193.961 378.097 192.949 377.247 191.785 376.657L179.771 370.566C177.89 369.613 176.75 367.637 176.864 365.531L177.597 352.082C177.668 350.779 177.438 349.477 176.926 348.277L171.638 335.89C170.81 333.95 171.206 331.704 172.647 330.164L181.853 320.332C182.745 319.38 183.406 318.235 183.785 316.986L187.697 304.098C188.309 302.079 190.057 300.613 192.151 300.361L205.522 298.746C206.818 298.59 208.06 298.138 209.153 297.425L220.434 290.066C222.201 288.914 224.482 288.914 226.248 290.066Z" stroke="#6A653A" stroke-opacity="0.4" stroke-width="3.19253"/>
<path d="M71.0011 237.649C73.2978 236.151 76.2626 236.151 78.5593 237.649L84.9567 241.822C85.8448 242.401 86.8541 242.769 87.9068 242.896L95.4899 243.811C98.2122 244.14 100.483 246.046 101.28 248.669L103.498 255.978C103.806 256.993 104.343 257.923 105.068 258.697L110.288 264.273C112.163 266.274 112.677 269.194 111.601 271.716L108.602 278.741C108.186 279.716 107.999 280.774 108.057 281.833L108.472 289.46C108.621 292.198 107.139 294.765 104.693 296.005L97.8804 299.459C96.9347 299.938 96.1119 300.629 95.4755 301.477L90.8911 307.586C89.2453 309.78 86.4593 310.794 83.7887 310.171L76.3499 308.438C75.3172 308.198 74.2431 308.198 73.2105 308.438L65.7716 310.171C63.101 310.794 60.315 309.78 58.6692 307.586L54.0848 301.477C53.4485 300.629 52.6256 299.938 51.6799 299.459L44.8673 296.005C42.4215 294.765 40.9391 292.198 41.0882 289.46L41.5034 281.833C41.561 280.774 41.3745 279.716 40.9582 278.741L37.9595 271.716C36.883 269.194 37.3978 266.274 39.272 264.273L44.4925 258.697C45.2172 257.923 45.7543 256.993 46.0622 255.978L48.2806 248.669C49.077 246.046 51.3481 244.14 54.0705 243.811L61.6536 242.896C62.7062 242.769 63.7156 242.401 64.6036 241.822L71.0011 237.649Z" fill="#939453" fill-opacity="0.4"/>
<path d="M77.6872 238.986L84.0846 243.159C85.1776 243.872 86.4199 244.324 87.7155 244.48L95.2985 245.396C97.3927 245.649 99.1397 247.115 99.7523 249.133L101.971 256.442C102.35 257.691 103.011 258.836 103.903 259.788L109.123 265.364C110.565 266.904 110.961 269.15 110.133 271.089L107.134 278.114C106.622 279.315 106.392 280.616 106.463 281.92L106.878 289.546C106.993 291.653 105.853 293.628 103.971 294.581L97.1586 298.035C95.9947 298.625 94.982 299.475 94.1987 300.519L89.6144 306.628C88.3484 308.315 86.2053 309.095 84.151 308.617L76.7121 306.884C75.4412 306.587 74.1192 306.587 72.8483 306.884L65.4094 308.617C63.3551 309.095 61.212 308.315 59.946 306.628L55.3616 300.519C54.5784 299.475 53.5657 298.625 52.4017 298.035L45.5891 294.581C43.7077 293.628 42.5674 291.653 42.6821 289.546L43.0973 281.92C43.1682 280.616 42.9387 279.315 42.4263 278.114L39.4276 271.089C38.5995 269.15 38.9955 266.904 40.4372 265.364L45.6577 259.788C46.5497 258.836 47.2107 257.691 47.5897 256.442L49.808 249.133C50.4206 247.115 52.1677 245.649 54.2618 245.396L61.8449 244.48C63.1405 244.324 64.3827 243.872 65.4757 243.159L71.8732 238.986C73.6399 237.834 75.9205 237.834 77.6872 238.986Z" stroke="#6A653A" stroke-opacity="0.4" stroke-width="3.19253"/>
<path d="M110.218 214.237C112.515 212.739 115.48 212.739 117.776 214.237L127.649 220.677C128.537 221.256 129.546 221.623 130.599 221.75L142.301 223.163C145.023 223.492 147.294 225.397 148.091 228.021L151.514 239.3C151.822 240.315 152.359 241.245 153.084 242.019L161.14 250.623C163.014 252.625 163.529 255.545 162.453 258.067L157.825 268.907C157.409 269.883 157.222 270.94 157.28 271.999L157.921 283.769C158.07 286.507 156.587 289.074 154.142 290.314L143.628 295.644C142.683 296.124 141.86 296.814 141.223 297.662L134.149 307.09C132.503 309.284 129.717 310.298 127.047 309.675L115.567 307.001C114.534 306.76 113.46 306.76 112.428 307.001L100.948 309.675C98.2774 310.298 95.4914 309.284 93.8456 307.09L86.771 297.662C86.1346 296.814 85.3118 296.124 84.3661 295.644L73.8529 290.314C71.4072 289.074 69.9247 286.507 70.0738 283.769L70.7146 271.999C70.7722 270.94 70.5857 269.883 70.1694 268.907L65.5418 258.067C64.4653 255.545 64.9801 252.625 66.8543 250.623L74.9106 242.019C75.6352 241.245 76.1723 240.315 76.4802 239.3L79.9036 228.021C80.7 225.397 82.9712 223.492 85.6935 223.163L97.3956 221.75C98.4483 221.623 99.4576 221.256 100.346 220.677L110.218 214.237Z" fill="#939453" fill-opacity="0.4"/>
<path d="M116.904 215.574L126.777 222.014C127.87 222.726 129.112 223.179 130.408 223.335L142.11 224.748C144.204 225.001 145.951 226.467 146.563 228.485L149.987 239.764C150.366 241.013 151.027 242.158 151.919 243.11L159.975 251.714C161.417 253.254 161.813 255.5 160.985 257.44L156.357 268.281C155.845 269.481 155.615 270.783 155.686 272.086L156.327 283.856C156.441 285.962 155.301 287.937 153.42 288.891L142.907 294.221C141.743 294.811 140.73 295.66 139.947 296.704L132.872 306.132C131.606 307.819 129.463 308.599 127.409 308.121L115.929 305.446C114.658 305.15 113.336 305.15 112.065 305.446L100.586 308.121C98.5314 308.599 96.3883 307.819 95.1223 306.132L88.0478 296.704C87.2646 295.66 86.2519 294.811 85.0879 294.221L74.5747 288.891C72.6934 287.937 71.553 285.962 71.6677 283.856L72.3085 272.086C72.3794 270.783 72.1499 269.481 71.6375 268.281L67.0099 257.44C66.1818 255.5 66.5779 253.254 68.0195 251.714L76.0758 243.11C76.9677 242.158 77.6287 241.013 78.0077 239.764L81.431 228.485C82.0437 226.467 83.7907 225.001 85.8848 224.748L97.587 223.335C98.8825 223.179 100.125 222.726 101.218 222.014L111.09 215.574C112.857 214.421 115.138 214.421 116.904 215.574Z" stroke="#6A653A" stroke-opacity="0.4" stroke-width="3.19253"/>
<path d="M110.218 226.051C112.515 224.553 115.479 224.553 117.776 226.051L124.174 230.224C125.062 230.804 126.071 231.171 127.124 231.298L134.707 232.214C137.429 232.542 139.7 234.448 140.497 237.072L142.715 244.381C143.023 245.395 143.56 246.326 144.285 247.1L149.505 252.675C151.379 254.677 151.894 257.597 150.818 260.119L147.819 267.143C147.403 268.119 147.216 269.176 147.274 270.235L147.689 277.862C147.838 280.6 146.356 283.168 143.91 284.408L137.097 287.861C136.152 288.341 135.329 289.031 134.692 289.879L130.108 295.989C128.462 298.182 125.676 299.196 123.006 298.574L115.567 296.841C114.534 296.6 113.46 296.6 112.427 296.841L104.988 298.574C102.318 299.196 99.5318 298.182 97.886 295.989L93.3016 289.879C92.6653 289.031 91.8424 288.341 90.8967 287.861L84.0841 284.408C81.6383 283.168 80.1559 280.6 80.305 277.862L80.7202 270.235C80.7778 269.176 80.5913 268.119 80.175 267.143L77.1763 260.119C76.0998 257.597 76.6146 254.677 78.4888 252.675L83.7093 247.1C84.434 246.326 84.9711 245.395 85.279 244.381L87.4974 237.072C88.2938 234.448 90.5649 232.542 93.2873 232.214L100.87 231.298C101.923 231.171 102.932 230.804 103.82 230.224L110.218 226.051Z" fill="#948E53" fill-opacity="0.6"/>
<path d="M182.848 76.1599C185.145 74.6618 188.11 74.6618 190.406 76.1599L221.329 96.3306C222.217 96.9099 223.226 97.2773 224.279 97.4043L260.933 101.829C263.655 102.158 265.926 104.064 266.722 106.688L277.445 142.016C277.753 143.031 278.29 143.961 279.015 144.735L304.249 171.685C306.123 173.687 306.638 176.607 305.561 179.129L291.067 213.084C290.65 214.059 290.464 215.117 290.521 216.176L292.528 253.041C292.678 255.779 291.195 258.346 288.749 259.586L255.82 276.281C254.874 276.76 254.051 277.451 253.415 278.299L231.256 307.829C229.61 310.023 226.824 311.037 224.153 310.414L188.197 302.036C187.164 301.796 186.09 301.796 185.057 302.036L149.101 310.414C146.43 311.037 143.644 310.023 141.998 307.829L119.839 278.299C119.203 277.451 118.38 276.76 117.435 276.281L84.5049 259.586C82.0591 258.346 80.5767 255.779 80.7258 253.041L82.7328 216.176C82.7904 215.117 82.6039 214.059 82.1876 213.084L67.6931 179.129C66.6165 176.607 67.1313 173.687 69.0055 171.685L94.2394 144.735C94.9641 143.961 95.5012 143.031 95.8091 142.016L106.532 106.688C107.328 104.064 109.599 102.158 112.322 101.829L148.975 97.4043C150.028 97.2773 151.037 96.9099 151.925 96.3306L182.848 76.1599Z" fill="#939453" fill-opacity="0.4"/>
<path d="M189.534 77.4969L220.457 97.6676C221.55 98.3805 222.792 98.8327 224.088 98.9891L260.741 103.414C262.835 103.667 264.582 105.133 265.195 107.151L275.918 142.48C276.297 143.728 276.958 144.873 277.85 145.826L303.084 172.776C304.525 174.316 304.921 176.562 304.093 178.502L289.598 212.457C289.086 213.657 288.857 214.959 288.928 216.262L290.935 253.128C291.049 255.234 289.909 257.209 288.028 258.163L255.098 274.857C253.934 275.447 252.921 276.297 252.138 277.341L229.979 306.871C228.713 308.558 226.57 309.338 224.516 308.86L188.559 300.482C187.288 300.185 185.966 300.185 184.695 300.482L148.739 308.86C146.684 309.338 144.541 308.558 143.275 306.871L121.116 277.341C120.333 276.297 119.32 275.447 118.156 274.857L85.2267 258.163C83.3453 257.209 82.205 255.234 82.3197 253.128L84.3267 216.262C84.3976 214.959 84.1681 213.657 83.6558 212.457L69.1612 178.502C68.333 176.562 68.7291 174.316 70.1708 172.776L95.4047 145.826C96.2966 144.873 96.9576 143.728 97.3366 142.48L108.059 107.151C108.672 105.133 110.419 103.667 112.513 103.414L149.167 98.9891C150.462 98.8327 151.704 98.3805 152.797 97.6676L183.72 77.4969C185.487 76.3445 187.767 76.3445 189.534 77.4969Z" stroke="#6A653A" stroke-opacity="0.4" stroke-width="3.19253"/>
<path d="M182.848 99.9461C185.145 98.4479 188.109 98.4479 190.406 99.9461L214.332 115.553C215.22 116.132 216.23 116.5 217.282 116.627L245.643 120.051C248.365 120.379 250.636 122.285 251.433 124.909L259.729 152.244C260.037 153.259 260.574 154.189 261.299 154.963L280.824 175.815C282.698 177.817 283.213 180.737 282.136 183.259L270.921 209.532C270.505 210.507 270.318 211.565 270.376 212.623L271.929 241.148C272.078 243.886 270.596 246.453 268.15 247.693L242.671 260.61C241.725 261.09 240.902 261.78 240.266 262.628L223.12 285.477C221.475 287.671 218.689 288.685 216.018 288.062L188.197 281.58C187.164 281.339 186.09 281.339 185.057 281.58L157.236 288.062C154.566 288.685 151.78 287.671 150.134 285.477L132.988 262.628C132.352 261.78 131.529 261.09 130.583 260.61L105.104 247.693C102.659 246.453 101.176 243.886 101.325 241.148L102.878 212.623C102.936 211.565 102.749 210.507 102.333 209.532L91.1178 183.259C90.0413 180.737 90.5561 177.817 92.4303 175.815L111.955 154.963C112.68 154.189 113.217 153.259 113.525 152.244L121.821 124.909C122.618 122.285 124.889 120.379 127.611 120.051L155.972 116.627C157.024 116.5 158.034 116.132 158.922 115.553L182.848 99.9461Z" fill="#939453" fill-opacity="0.4"/>
<path d="M253.953 47.6352C256.692 45.849 260.227 45.849 262.965 47.6352L268.486 51.2366C269.545 51.9273 270.749 52.3653 272.004 52.5169L278.548 53.3069C281.794 53.6988 284.502 55.971 285.451 59.0996L287.366 65.4074C287.733 66.6171 288.373 67.7262 289.237 68.649L293.743 73.4609C295.978 75.8475 296.591 79.3288 295.308 82.3357L292.72 88.3984C292.224 89.5611 292.001 90.8223 292.07 92.0847L292.428 98.6669C292.606 101.931 290.838 104.993 287.922 106.471L282.043 109.452C280.915 110.024 279.934 110.847 279.175 111.858L275.219 117.131C273.257 119.746 269.935 120.955 266.751 120.213L260.331 118.717C259.1 118.43 257.819 118.43 256.588 118.717L250.168 120.213C246.983 120.955 243.662 119.746 241.699 117.131L237.743 111.858C236.984 110.847 236.003 110.024 234.876 109.452L228.996 106.471C226.08 104.993 224.312 101.931 224.49 98.6669L224.849 92.0847C224.917 90.8223 224.695 89.5611 224.199 88.3984L221.611 82.3357C220.327 79.3288 220.941 75.8475 223.175 73.4609L227.681 68.649C228.545 67.7262 229.185 66.6171 229.552 65.4074L231.467 59.0996C232.417 55.971 235.124 53.6988 238.37 53.3069L244.915 52.5169C246.17 52.3653 247.373 51.9273 248.432 51.2366L253.953 47.6352Z" fill="#939453" fill-opacity="0.4"/>
<path d="M262.093 48.9722L267.614 52.5736C268.878 53.398 270.314 53.9208 271.812 54.1016L278.357 54.8917C280.974 55.2077 283.158 57.0402 283.924 59.5632L285.838 65.871C286.277 67.3148 287.041 68.6386 288.072 69.74L292.578 74.5519C294.38 76.4766 294.875 79.2841 293.84 81.709L291.252 87.7717C290.659 89.1595 290.394 90.6648 290.476 92.1714L290.834 98.7537C290.978 101.386 289.552 103.855 287.201 105.048L281.321 108.028C279.975 108.711 278.804 109.693 277.899 110.9L273.942 116.173C272.36 118.282 269.681 119.257 267.113 118.658L260.693 117.162C259.223 116.82 257.695 116.82 256.225 117.162L249.805 118.658C247.238 119.257 244.559 118.282 242.976 116.173L239.02 110.9C238.114 109.693 236.943 108.711 235.597 108.028L229.718 105.047C227.366 103.855 225.941 101.386 226.084 98.7536L226.442 92.1714C226.524 90.6648 226.259 89.1595 225.667 87.7717L223.079 81.709C222.044 79.2841 222.539 76.4766 224.341 74.5519L228.846 69.74C229.877 68.6386 230.642 67.3148 231.08 65.871L232.994 59.5632C233.76 57.0402 235.944 55.2077 238.562 54.8917L245.106 54.1016C246.604 53.9208 248.04 53.398 249.304 52.5736L254.825 48.9722C257.034 47.5317 259.885 47.5317 262.093 48.9722Z" stroke="#6A653A" stroke-opacity="0.4" stroke-width="3.19253"/>
<path d="M134.499 39.3879C137.238 37.6017 140.773 37.6017 143.511 39.3879L149.032 42.9893C150.091 43.68 151.294 44.118 152.549 44.2695L159.094 45.0596C162.34 45.4515 165.048 47.7237 165.997 50.8523L167.912 57.1601C168.279 58.3698 168.919 59.4789 169.783 60.4017L174.289 65.2136C176.523 67.6002 177.137 71.0815 175.854 74.0884L173.266 80.1511C172.769 81.3138 172.547 82.575 172.616 83.8373L172.974 90.4196C173.152 93.6842 171.384 96.7455 168.468 98.2239L162.589 101.205C161.461 101.776 160.48 102.6 159.721 103.611L155.765 108.883C153.803 111.498 150.481 112.707 147.297 111.966L140.877 110.47C139.645 110.183 138.365 110.183 137.134 110.47L130.714 111.966C127.529 112.707 124.208 111.498 122.245 108.883L118.289 103.611C117.53 102.6 116.549 101.776 115.421 101.205L109.542 98.2239C106.626 96.7455 104.858 93.6842 105.036 90.4196L105.394 83.8373C105.463 82.575 105.241 81.3138 104.744 80.1511L102.156 74.0884C100.873 71.0815 101.487 67.6002 103.721 65.2136L108.227 60.4017C109.091 59.4789 109.731 58.3698 110.098 57.1601L112.013 50.8522C112.962 47.7237 115.67 45.4515 118.916 45.0596L125.461 44.2695C126.716 44.118 127.919 43.68 128.978 42.9893L134.499 39.3879Z" fill="#939453" fill-opacity="0.4"/>
<path d="M142.639 40.7249L148.16 44.3263C149.424 45.1507 150.86 45.6735 152.358 45.8543L158.903 46.6444C161.52 46.9604 163.704 48.7929 164.47 51.3159L166.384 57.6237C166.823 59.0675 167.587 60.3913 168.618 61.4927L173.124 66.3046C174.926 68.2293 175.421 71.0368 174.386 73.4617L171.798 79.5244C171.205 80.9122 170.94 82.4175 171.022 83.9241L171.38 90.5063C171.524 93.1391 170.098 95.6079 167.746 96.8002L161.867 99.781C160.521 100.463 159.35 101.446 158.445 102.653L154.488 107.925C152.906 110.034 150.227 111.009 147.659 110.411L141.239 108.915C139.769 108.573 138.241 108.573 136.771 108.915L130.351 110.411C127.783 111.009 125.105 110.034 123.522 107.925L119.566 102.653C118.66 101.446 117.489 100.463 116.143 99.781L110.264 96.8002C107.912 95.6079 106.487 93.1391 106.63 90.5063L106.988 83.9241C107.07 82.4175 106.805 80.9121 106.213 79.5244L103.625 73.4617C102.589 71.0368 103.084 68.2293 104.887 66.3046L109.392 61.4927C110.423 60.3913 111.188 59.0675 111.626 57.6237L113.54 51.3159C114.306 48.7929 116.49 46.9604 119.108 46.6444L125.652 45.8543C127.15 45.6735 128.586 45.1507 129.85 44.3263L135.371 40.7249C137.58 39.2844 140.43 39.2844 142.639 40.7249Z" stroke="#6A653A" stroke-opacity="0.4" stroke-width="3.19253"/>
<path d="M90.3361 110.156C93.0745 108.369 96.6095 108.369 99.3479 110.156L104.869 113.757C105.928 114.448 107.131 114.886 108.386 115.037L114.931 115.827C118.177 116.219 120.885 118.492 121.834 121.62L123.749 127.928C124.116 129.138 124.756 130.247 125.62 131.17L130.126 135.981C132.36 138.368 132.974 141.849 131.691 144.856L129.103 150.919C128.606 152.082 128.384 153.343 128.453 154.605L128.811 161.187C128.989 164.452 127.221 167.513 124.305 168.992L118.426 171.973C117.298 172.544 116.317 173.367 115.558 174.379L111.602 179.651C109.639 182.266 106.318 183.475 103.134 182.733L96.7135 181.237C95.4823 180.951 94.2017 180.951 92.9704 181.237L86.5505 182.733C83.3663 183.475 80.0445 182.266 78.0822 179.651L74.1258 174.379C73.367 173.367 72.3859 172.544 71.2584 171.973L65.3788 168.992C62.4627 167.513 60.6953 164.452 60.873 161.187L61.2313 154.605C61.3001 153.343 61.0777 152.082 60.5814 150.919L57.9934 144.856C56.7098 141.849 57.3236 138.368 59.5582 135.981L64.0637 131.17C64.9278 130.247 65.5681 129.138 65.9353 127.928L67.8498 121.62C68.7993 118.492 71.5073 116.219 74.7532 115.827L81.2976 115.037C82.5527 114.886 83.7561 114.448 84.815 113.757L90.3361 110.156Z" fill="#939453" fill-opacity="0.4"/>
<path d="M98.4758 111.493L103.997 115.094C105.261 115.918 106.697 116.441 108.195 116.622L114.74 117.412C117.357 117.728 119.541 119.561 120.307 122.084L122.221 128.391C122.66 129.835 123.424 131.159 124.455 132.261L128.961 137.072C130.763 138.997 131.258 141.805 130.223 144.23L127.635 150.292C127.042 151.68 126.777 153.185 126.859 154.692L127.217 161.274C127.36 163.907 125.935 166.376 123.583 167.568L117.704 170.549C116.358 171.231 115.187 172.214 114.281 173.42L110.325 178.693C108.743 180.802 106.064 181.777 103.496 181.179L97.0758 179.683C95.6063 179.34 94.0777 179.34 92.6082 179.683L86.1882 181.179C83.6204 181.777 80.9415 180.802 79.359 178.693L75.4025 173.42C74.4969 172.214 73.326 171.231 71.9802 170.549L66.1006 167.568C63.749 166.376 62.3236 163.907 62.4669 161.274L62.8252 154.692C62.9073 153.185 62.6418 151.68 62.0495 150.292L59.4615 144.23C58.4263 141.805 58.9214 138.997 60.7235 137.072L65.2289 132.261C66.2602 131.159 67.0245 129.835 67.4627 128.391L69.3772 122.084C70.143 119.561 72.3268 117.728 74.9445 117.412L81.4889 116.622C82.9869 116.441 84.4233 115.918 85.6871 115.094L91.2082 111.493C93.4166 110.052 96.2674 110.052 98.4758 111.493Z" stroke="#6A653A" stroke-opacity="0.4" stroke-width="3.19253"/>
<path d="M126.252 70.5151C128.99 68.7289 132.525 68.7289 135.264 70.5151L145.636 77.2813C146.695 77.972 147.899 78.41 149.154 78.5615L161.449 80.0459C164.695 80.4377 167.403 82.71 168.352 85.8385L171.949 97.6893C172.317 98.899 172.957 100.008 173.821 100.931L182.286 109.971C184.52 112.358 185.134 115.839 183.85 118.846L178.988 130.236C178.492 131.399 178.27 132.66 178.338 133.923L179.012 146.289C179.189 149.553 177.422 152.615 174.506 154.093L163.46 159.693C162.332 160.265 161.351 161.088 160.592 162.099L153.159 172.005C151.197 174.62 147.875 175.829 144.691 175.087L132.629 172.277C131.398 171.99 130.117 171.99 128.886 172.277L116.825 175.087C113.64 175.829 110.319 174.62 108.356 172.005L100.923 162.099C100.164 161.088 99.1833 160.265 98.0558 159.693L87.0096 154.093C84.0935 152.615 82.326 149.553 82.5038 146.289L83.177 133.923C83.2457 132.66 83.0233 131.399 82.527 130.236L77.6649 118.846C76.3813 115.839 76.9951 112.358 79.2297 109.971L87.6944 100.931C88.5584 100.008 89.1988 98.899 89.5659 97.6893L93.1628 85.8385C94.1123 82.71 96.8203 80.4377 100.066 80.0459L112.362 78.5615C113.617 78.41 114.82 77.972 115.879 77.2813L126.252 70.5151Z" fill="#939453" fill-opacity="0.4"/>
<path d="M134.391 71.8521L144.764 78.6182C146.028 79.4426 147.464 79.9654 148.962 80.1462L161.258 81.6306C163.875 81.9466 166.059 83.7791 166.825 86.3021L170.422 98.1529C170.86 99.5967 171.624 100.92 172.656 102.022L181.12 111.062C182.922 112.987 183.417 115.794 182.382 118.219L177.52 129.61C176.928 130.997 176.662 132.503 176.744 134.009L177.418 146.376C177.561 149.008 176.136 151.477 173.784 152.67L162.738 158.27C161.392 158.952 160.221 159.934 159.315 161.141L151.882 171.047C150.3 173.156 147.621 174.131 145.053 173.533L132.991 170.722C131.522 170.38 129.993 170.38 128.524 170.722L116.462 173.533C113.894 174.131 111.216 173.156 109.633 171.047L102.2 161.141C101.294 159.934 100.123 158.952 98.7776 158.27L87.7314 152.67C85.3797 151.477 83.9543 149.008 84.0977 146.376L84.7709 134.009C84.8529 132.503 84.5875 130.997 83.9951 129.61L79.133 118.219C78.0978 115.794 78.5929 112.987 80.395 111.062L88.8596 102.022C89.8909 100.92 90.6552 99.5967 91.0934 98.1529L94.6903 86.3021C95.456 83.7791 97.6399 81.9466 100.257 81.6306L112.553 80.1462C114.051 79.9654 115.487 79.4426 116.751 78.6182L127.124 71.8521C129.332 70.4115 132.183 70.4116 134.391 71.8521Z" stroke="#6A653A" stroke-opacity="0.4" stroke-width="3.19253"/>
<path d="M303.437 171.612C306.176 169.826 309.711 169.826 312.449 171.612L322.822 178.378C323.881 179.069 325.084 179.507 326.339 179.658L338.635 181.143C341.881 181.534 344.588 183.807 345.538 186.935L349.135 198.786C349.502 199.996 350.142 201.105 351.006 202.028L359.471 211.068C361.706 213.455 362.32 216.936 361.036 219.943L356.174 231.333C355.677 232.496 355.455 233.757 355.524 235.019L356.197 247.386C356.375 250.65 354.607 253.712 351.691 255.19L340.645 260.79C339.517 261.362 338.536 262.185 337.778 263.196L330.345 273.102C328.382 275.717 325.06 276.926 321.876 276.184L309.815 273.374C308.584 273.087 307.303 273.087 306.072 273.374L294.01 276.184C290.826 276.926 287.504 275.717 285.542 273.102L278.109 263.196C277.35 262.185 276.369 261.362 275.241 260.79L264.195 255.19C261.279 253.712 259.512 250.65 259.689 247.386L260.363 235.019C260.431 233.757 260.209 232.496 259.713 231.333L254.85 219.943C253.567 216.936 254.181 213.455 256.415 211.068L264.88 202.028C265.744 201.105 266.384 199.996 266.751 198.786L270.348 186.935C271.298 183.807 274.006 181.534 277.252 181.143L289.547 179.658C290.802 179.507 292.006 179.069 293.064 178.378L303.437 171.612Z" fill="#939453" fill-opacity="0.4"/>
<path d="M311.577 172.949L321.95 179.715C323.214 180.539 324.65 181.062 326.148 181.243L338.443 182.727C341.061 183.043 343.245 184.876 344.011 187.399L347.607 199.25C348.046 200.693 348.81 202.017 349.841 203.119L358.306 212.159C360.108 214.084 360.603 216.891 359.568 219.316L354.706 230.706C354.113 232.094 353.848 233.599 353.93 235.106L354.603 247.472C354.746 250.105 353.321 252.574 350.969 253.766L339.923 259.366C338.577 260.049 337.407 261.031 336.501 262.238L329.068 272.144C327.485 274.253 324.806 275.228 322.238 274.63L310.177 271.819C308.707 271.477 307.179 271.477 305.709 271.819L293.648 274.63C291.08 275.228 288.401 274.253 286.819 272.144L279.385 262.238C278.48 261.031 277.309 260.049 275.963 259.366L264.917 253.766C262.565 252.574 261.14 250.105 261.283 247.472L261.956 235.106C262.038 233.599 261.773 232.094 261.181 230.706L256.319 219.316C255.283 216.891 255.778 214.084 257.581 212.159L266.045 203.119C267.076 202.017 267.841 200.693 268.279 199.25L271.876 187.399C272.642 184.876 274.825 183.043 277.443 182.727L289.738 181.243C291.236 181.062 292.673 180.539 293.937 179.715L304.309 172.949C306.518 171.508 309.369 171.508 311.577 172.949Z" stroke="#6A653A" stroke-opacity="0.4" stroke-width="3.19253"/>
<path d="M209.681 15.976C212.42 14.1898 215.955 14.1898 218.693 15.976L222.696 18.5868C223.754 19.2775 224.958 19.7155 226.213 19.8671L230.957 20.4398C234.203 20.8317 236.911 23.1039 237.861 26.2324L239.249 30.8052C239.616 32.0149 240.256 33.124 241.12 34.0468L244.386 37.5352C246.621 39.9218 247.235 43.4031 245.951 46.41L244.075 50.8051C243.579 51.9678 243.356 53.229 243.425 54.4913L243.685 59.263C243.863 62.5276 242.095 65.589 239.179 67.0674L234.917 69.2282C233.789 69.7999 232.808 70.6231 232.049 71.6343L229.181 75.4566C227.219 78.0717 223.897 79.2807 220.713 78.5388L216.059 77.4543C214.828 77.1675 213.547 77.1675 212.316 77.4543L207.662 78.5388C204.477 79.2807 201.156 78.0717 199.193 75.4566L196.325 71.6343C195.566 70.6231 194.585 69.7999 193.458 69.2282L189.195 67.0674C186.279 65.589 184.512 62.5276 184.69 59.263L184.949 54.4913C185.018 53.229 184.796 51.9678 184.299 50.8051L182.423 46.41C181.14 43.4031 181.753 39.9218 183.988 37.5352L187.254 34.0468C188.118 33.124 188.759 32.0149 189.126 30.8052L190.514 26.2324C191.463 23.1039 194.171 20.8317 197.417 20.4398L202.161 19.8671C203.417 19.7155 204.62 19.2775 205.679 18.5868L209.681 15.976Z" fill="#939453" fill-opacity="0.4"/>
<path d="M217.821 17.313L221.823 19.9238C223.087 20.7482 224.524 21.271 226.022 21.4518L230.766 22.0246C233.384 22.3406 235.567 24.173 236.333 26.696L237.721 31.2688C238.159 32.7127 238.924 34.0364 239.955 35.1379L243.221 38.6262C245.023 40.5509 245.518 43.3584 244.483 45.7833L242.607 50.1784C242.015 51.5661 241.749 53.0714 241.831 54.5781L242.091 59.3498C242.234 61.9825 240.809 64.4514 238.457 65.6436L234.195 67.8045C232.849 68.4868 231.678 69.4693 230.772 70.6762L227.904 74.4985C226.322 76.6074 223.643 77.5825 221.075 76.9841L216.421 75.8997C214.951 75.5573 213.423 75.5573 211.953 75.8997L207.299 76.9841C204.731 77.5825 202.053 76.6074 200.47 74.4985L197.602 70.6762C196.696 69.4693 195.525 68.4868 194.18 67.8045L189.917 65.6436C187.566 64.4514 186.14 61.9825 186.283 59.3498L186.543 54.5781C186.625 53.0714 186.36 51.5661 185.767 50.1784L183.891 45.7833C182.856 43.3584 183.351 40.5509 185.153 38.6262L188.42 35.1379C189.451 34.0364 190.215 32.7127 190.653 31.2688L192.041 26.696C192.807 24.173 194.991 22.3406 197.608 22.0246L202.353 21.4518C203.851 21.271 205.287 20.7482 206.551 19.9238L210.553 17.313C212.762 15.8725 215.613 15.8725 217.821 17.313Z" stroke="#6A653A" stroke-opacity="0.4" stroke-width="3.19253"/>
<path d="M244.001 18.9672C246.74 17.181 250.275 17.181 253.013 18.9672L255.901 20.851C256.96 21.5417 258.163 21.9797 259.418 22.1312L262.841 22.5444C266.087 22.9363 268.795 25.2086 269.745 28.3371L270.746 31.6364C271.113 32.8461 271.754 33.9552 272.618 34.878L274.974 37.3949C277.209 39.7815 277.823 43.2628 276.539 46.2697L275.185 49.4409C274.689 50.6035 274.467 51.8648 274.535 53.1271L274.723 56.5699C274.901 59.8345 273.133 62.8959 270.217 64.3743L267.142 65.9334C266.014 66.5051 265.033 67.3283 264.274 68.3394L262.205 71.0973C260.243 73.7124 256.921 74.9214 253.737 74.1795L250.379 73.3971C249.147 73.1102 247.867 73.1102 246.635 73.3971L243.277 74.1795C240.093 74.9214 236.772 73.7124 234.809 71.0973L232.74 68.3394C231.981 67.3283 231 66.5051 229.872 65.9334L226.797 64.3743C223.881 62.8959 222.114 59.8345 222.291 56.5699L222.479 53.1271C222.547 51.8648 222.325 50.6035 221.829 49.4409L220.475 46.2697C219.191 43.2628 219.805 39.7815 222.04 37.3949L224.397 34.878C225.261 33.9552 225.901 32.8461 226.268 31.6364L227.269 28.3371C228.219 25.2086 230.927 22.9363 234.173 22.5444L237.596 22.1312C238.851 21.9797 240.054 21.5417 241.113 20.851L244.001 18.9672Z" fill="#948E53" fill-opacity="0.6"/>
<path d="M245.863 4.80219C248.602 3.01596 252.137 3.01596 254.875 4.80219L262.712 9.91419C263.771 10.6049 264.974 11.0429 266.23 11.1944L275.519 12.3159C278.765 12.7077 281.473 14.98 282.422 18.1085L285.14 27.062C285.507 28.2717 286.147 29.3808 287.011 30.3036L293.407 37.1338C295.641 39.5204 296.255 43.0017 294.971 46.0086L291.298 54.6142C290.802 55.7769 290.579 57.0381 290.648 58.3004L291.157 67.6434C291.334 70.908 289.567 73.9694 286.651 75.4478L278.305 79.6788C277.178 80.2504 276.197 81.0737 275.438 82.0848L269.822 89.5689C267.86 92.184 264.538 93.393 261.354 92.6511L252.241 90.5278C251.01 90.2409 249.729 90.2409 248.498 90.5278L239.385 92.6511C236.201 93.393 232.879 92.184 230.917 89.5689L225.301 82.0848C224.542 81.0737 223.561 80.2504 222.434 79.6788L214.088 75.4478C211.172 73.9694 209.404 70.908 209.582 67.6434L210.091 58.3004C210.159 57.0381 209.937 55.7769 209.441 54.6142L205.767 46.0086C204.484 43.0017 205.098 39.5204 207.332 37.1338L213.727 30.3036C214.591 29.3808 215.232 28.2717 215.599 27.062L218.316 18.1085C219.266 14.98 221.974 12.7077 225.22 12.3159L234.509 11.1944C235.764 11.0429 236.968 10.6049 238.027 9.91419L245.863 4.80219Z" fill="#939453" fill-opacity="0.4"/>
<path d="M254.003 6.13916L261.84 11.2512C263.104 12.0755 264.54 12.5983 266.038 12.7792L275.328 13.9006C277.945 14.2167 280.129 16.0491 280.895 18.5721L283.612 27.5256C284.051 28.9694 284.815 30.2932 285.846 31.3946L292.241 38.2248C294.043 40.1495 294.538 42.957 293.503 45.3819L289.83 53.9875C289.237 55.3752 288.972 56.8806 289.054 58.3872L289.563 67.7302C289.706 70.363 288.281 72.8318 285.929 74.0241L277.583 78.2551C276.238 78.9373 275.067 79.9199 274.161 81.1268L268.545 88.6108C266.963 90.7198 264.284 91.6948 261.716 91.0965L252.603 88.9732C251.134 88.6308 249.605 88.6308 248.136 88.9732L239.023 91.0965C236.455 91.6948 233.776 90.7198 232.194 88.6109L226.578 81.1268C225.672 79.9199 224.501 78.9373 223.155 78.2551L214.81 74.0241C212.458 72.8318 211.033 70.363 211.176 67.7302L211.685 58.3872C211.767 56.8806 211.501 55.3752 210.909 53.9875L207.235 45.3819C206.2 42.957 206.695 40.1495 208.497 38.2248L214.893 31.3946C215.924 30.2932 216.688 28.9694 217.126 27.5256L219.844 18.5721C220.61 16.0491 222.793 14.2167 225.411 13.9006L234.7 12.7792C236.198 12.5983 237.635 12.0755 238.899 11.2512L246.736 6.13916C248.944 4.69866 251.795 4.69866 254.003 6.13916Z" stroke="#6A653A" stroke-opacity="0.4" stroke-width="3.19253"/>
</svg>
