<svg width="500" height="501" viewBox="0 0 500 501" fill="none" xmlns="http://www.w3.org/2000/svg">
<g clip-path="url(#clip0_524_1210)">
<path d="M249.958 14.3789L288.537 119.085L377.6 51.8581L353.446 160.8L464.717 152.396L385.499 230.986L483.649 284.073L374.518 307.358L428.386 405.082L323.99 365.67L316.473 477.004L249.958 387.408L183.442 477.004L175.925 365.67L71.5295 405.082L125.398 307.358L16.2664 284.073L114.417 230.986L35.1987 152.396L146.469 160.8L122.315 51.8581L211.379 119.085L249.958 14.3789Z" fill="#B09F74"/>
<path d="M302.797 53.2744L294.16 177.957L401.024 113.147L326.35 213.367L451.289 216.621L334.286 260.56L437.632 330.845L315.448 304.551L364.389 419.552L275.816 331.375L254.815 454.579L227.975 332.514L143.698 424.805L187.112 307.606L66.3172 339.684L166.202 264.561L47.2407 226.24L171.883 217.044L92.5249 120.491L202.352 180.142L187.792 56.012L247.935 165.571L302.797 53.2744Z" fill="#B09F74"/>
<path d="M289.769 101.893L289.417 170.457L343.597 128.438L317.033 191.648L383.169 173.562L334.438 221.794L402.461 230.394L338.982 256.306L398.536 290.283L329.973 289.93L371.991 344.11L308.782 317.547L326.868 383.683L278.635 334.952L270.035 402.974L244.123 339.495L210.147 399.049L210.499 330.486L156.319 372.504L182.882 309.295L116.747 327.381L165.477 279.149L97.4548 270.549L160.934 244.636L101.38 210.66L169.943 211.012L127.925 156.832L191.134 183.396L173.048 117.26L221.281 165.991L229.881 97.968L255.793 161.447L289.769 101.893Z" fill="#B5A478"/>
<path d="M250.317 172.141L263.177 207.043L292.865 184.634L284.813 220.948L321.904 218.147L295.498 244.343L328.214 262.039L291.837 269.801L309.793 302.376L274.995 289.238L272.489 326.35L250.317 296.484L228.145 326.35L225.64 289.238L190.841 302.376L208.797 269.801L172.42 262.039L205.137 244.343L178.731 218.147L215.821 220.948L207.77 184.634L237.458 207.043L250.317 172.141Z" fill="#B09F74"/>
</g>
<defs>
<clipPath id="clip0_524_1210">
<rect width="500" height="500" fill="white" transform="translate(0 0.520508)"/>
</clipPath>
</defs>
</svg>
