<svg width="1001" height="1001" viewBox="0 0 1001 1001" fill="none" xmlns="http://www.w3.org/2000/svg">
<path d="M291.828 638.787L284.747 623.303C282.69 618.802 283.232 613.54 286.164 609.554C291.168 602.751 288.848 593.082 281.302 589.291L256.163 576.661C252.389 574.765 249.579 571.38 248.41 567.323L242.871 548.093C241.667 543.915 238.725 540.456 234.794 538.597L230.607 536.617C228.026 535.396 225.842 533.471 224.308 531.063L217.095 519.737C214.619 515.85 214.049 511.047 215.544 506.688L221.161 490.32C221.454 489.467 221.823 488.642 222.262 487.854L240.234 455.664C240.728 454.778 241.31 453.944 241.972 453.175L268.722 422.051C271.445 418.883 272.738 414.73 272.295 410.576L272.248 410.131C271.294 401.184 278.306 393.384 287.304 393.384H319.323H347.949C358.767 393.384 366.095 382.368 361.914 372.391L358.408 364.025C357.632 362.172 357.232 360.183 357.232 358.174V317.99C357.232 314.214 355.821 310.575 353.277 307.785L346.662 300.535C341.981 295.404 341.392 287.746 345.231 281.959L356.295 265.283C356.918 264.345 357.643 263.479 358.457 262.701L385.25 237.125C388.811 233.726 393.801 232.249 398.597 233.359C415.036 237.162 441.723 244.782 458.323 254.56C482.753 268.95 486.123 282.494 492.862 304.503C499.602 326.512 499.602 289.266 503.814 282.494C506.807 277.682 518.44 269.843 525.726 265.382C527.383 264.367 529.233 263.725 531.155 263.442L579.477 256.321C586.467 255.29 593.26 259.223 595.557 265.905C599.948 278.677 604.905 295.45 604.905 304.503C604.905 314.453 620.624 314.927 632.814 313.384C637.549 312.785 642.406 313.967 646.005 317.101L660.362 329.604C663.664 332.479 665.56 336.643 665.56 341.022V384.833C665.56 390.14 668.338 395.06 672.883 397.8L676.895 400.218C677.76 400.74 678.676 401.174 679.627 401.513L702.408 409.636C703.671 410.086 704.869 410.702 705.97 411.468L733.525 430.637C735.902 432.291 737.787 434.578 738.733 437.315C742.568 448.415 746.055 466.153 737.166 472.108C728.745 477.749 742.342 483.782 754.097 487.27C758.294 488.516 761.93 491.259 763.979 495.127L778.606 522.741C783.476 531.935 777.836 543.189 767.555 544.79L736.341 549.649C731.565 550.392 727.431 553.371 725.215 557.667L720.397 567.004C718.224 571.214 718.147 576.199 720.189 580.474L734.196 609.795C736.083 613.745 736.168 618.318 734.43 622.335L730.177 632.164C729.233 634.345 727.789 636.273 725.962 637.793L713.676 648.009C708.208 652.557 700.311 652.685 694.698 648.318L682.297 638.672C679.639 636.604 676.368 635.481 673 635.481H639.995C629.259 635.481 621.934 646.345 625.958 656.298L626.122 656.705C627.639 660.457 627.591 664.661 625.988 668.377L618.779 685.094C617.963 686.987 617.541 689.027 617.541 691.09V699.062C617.541 700.682 617.285 702.288 616.763 703.822C614.162 711.46 609.147 725.386 604.905 734.521C600.187 744.679 586.091 754.555 579.632 758.223L564.704 764.513C558.167 767.268 550.609 765.11 546.377 759.416C534.219 743.056 517.21 721.824 512.238 721.824H487.213C481.396 721.824 476.094 725.155 473.571 730.396L470.44 736.898C467.312 743.393 460.039 746.783 453.053 745L421.151 736.859C415.545 735.428 409.614 737.317 405.868 741.727L387.859 762.925C384.522 766.853 379.425 768.82 374.323 768.098C355.933 765.493 328.002 761.13 319.323 758.223C309.723 755.007 291.768 734.745 282.769 723.53C281.86 722.397 281.141 721.145 280.614 719.793C277.059 710.675 271.086 694.236 270.462 687.964C269.918 682.499 281.043 666.374 289.933 654.719C293.423 650.142 294.221 644.021 291.828 638.787Z" fill="#939453" fill-opacity="0.4"/>
<path d="M357.938 591.194L354.417 583.513C353.023 580.47 353.39 576.909 355.377 574.215C358.765 569.619 357.196 563.08 352.092 560.522L336.959 552.937C333.183 551.044 330.369 547.659 329.197 543.601L326.573 534.513C325.418 530.513 322.599 527.203 318.833 525.427C316.363 524.261 314.272 522.421 312.802 520.118L309.851 515.497C307.366 511.604 306.793 506.791 308.295 502.424L311.185 494.024C311.479 493.169 311.848 492.343 312.29 491.555L324.011 470.608C324.506 469.723 325.09 468.889 325.752 468.12L343.501 447.518C345.382 445.335 346.275 442.471 345.969 439.605C345.31 433.444 350.139 428.072 356.335 428.072H377.846H391.866C401.748 428.072 408.439 418.005 404.613 408.894C403.901 407.199 403.534 405.379 403.534 403.54V379.013C403.534 375.231 402.119 371.586 399.567 368.795L398.967 368.14C394.272 363.005 393.681 355.331 397.533 349.537L402.595 341.925C403.219 340.987 403.946 340.122 404.761 339.345L420.694 324.171C424.253 320.782 429.236 319.305 434.012 320.466C445.213 323.189 461.579 328.073 472.036 334.219C488.591 343.948 490.875 353.104 495.441 367.983C500.008 382.863 500.008 357.682 502.863 353.104C504.784 350.023 511.956 345.106 516.904 342.032C518.552 341.009 520.404 340.369 522.323 340.087L550.295 335.974C557.28 334.947 564.081 338.872 566.27 345.584C568.866 353.543 571.365 362.705 571.365 367.983C571.365 374.069 580.083 374.912 587.861 374.244C592.608 373.837 597.457 374.972 601.053 378.097L607.256 383.486C610.566 386.362 612.467 390.531 612.467 394.916V419.584C612.467 424.851 615.227 429.733 619.74 432.448C620.598 432.963 621.504 433.392 622.447 433.727L636.825 438.842C638.087 439.291 639.283 439.905 640.383 440.668L657.344 452.439C659.724 454.091 661.625 456.375 662.504 459.136C664.898 466.655 666.66 477.504 660.989 481.294C655.784 484.773 662.992 488.471 670.344 490.884C674.501 492.248 678.151 494.957 680.202 498.822L685.832 509.424C690.715 518.622 685.072 529.889 674.782 531.487L662.875 533.336C658.102 534.078 653.969 537.052 651.75 541.342L650.752 543.271C648.571 547.488 648.494 552.484 650.544 556.767L658.007 572.353C659.901 576.309 659.987 580.892 658.241 584.916L656.72 588.425C655.774 590.607 654.327 592.535 652.497 594.053L648.078 597.719C642.614 602.252 634.735 602.38 629.126 598.028L625.127 594.923C622.471 592.862 619.205 591.743 615.843 591.743H595.34C587.974 591.743 582.95 599.2 585.716 606.027C586.761 608.605 586.728 611.494 585.624 614.047L581.171 624.349C580.351 626.246 579.928 628.291 579.928 630.357V633.93C579.928 635.553 579.671 637.164 579.142 638.699C577.32 643.985 574.105 652.814 571.365 658.7C568.168 665.567 558.616 672.244 554.239 674.724L547.712 677.468C541.182 680.213 533.642 678.051 529.358 672.41C521.416 661.952 511.63 650.116 508.571 650.116H493.722C488.49 650.116 483.721 653.11 481.446 657.822C478.628 663.661 472.088 666.707 465.806 665.107L449.785 661.028C444.187 659.603 438.266 661.487 434.521 665.885L426.012 675.878C422.675 679.796 417.582 681.759 412.489 681.024C400.139 679.242 383.327 676.555 377.846 674.724C371.496 672.602 359.751 659.499 353.522 651.822C352.607 650.694 351.882 649.435 351.357 648.08C348.928 641.811 345.144 631.317 344.736 627.225C344.404 623.899 350.478 614.736 356.088 607.192C359.528 602.565 360.34 596.436 357.938 591.194Z" fill="#939453" fill-opacity="0.4"/>
<path d="M447.616 455.728L462.67 448.77C468.028 446.293 471.459 440.929 471.459 435.026V413.383V388.205C471.459 371.238 446.002 354.651 446.002 341.599C446.002 328.547 407.571 267.429 407.571 262.861C407.571 258.293 417.934 258.505 434.905 270.251C451.876 281.998 484.513 333.115 494.305 354.651C504.096 376.186 499.527 390.543 499.527 421.867C499.527 453.191 518.456 436.877 527.595 431.003C536.733 425.13 543.913 410.773 543.913 400.984C543.913 391.196 562.843 369.008 568.065 354.651C573.287 340.294 568.065 338.988 568.065 326.589C568.065 320.104 578.294 318.845 588.722 319.418C597.164 319.883 602.508 328.147 600.03 336.231C597.639 344.03 594.472 352.633 590.911 358.566C583.078 371.618 590.106 391.601 579.662 407.916C569.218 424.23 562.19 416.701 558.274 428.447C554.357 440.194 564.148 443.402 568.065 448.623C571.981 453.844 573.287 453.844 581.772 453.844C590.258 453.844 598.64 451.506 610.802 431.732C640.502 383.441 641.825 444.707 662.713 444.707C683.601 444.707 678.379 444.707 693.392 448.623C696.246 449.367 699.328 450.421 702.457 451.648C712.597 455.624 711.138 469.475 700.572 472.116C695.35 473.421 672.468 474.438 644.4 474.438C616.332 474.438 628.77 477.337 612.451 477.989C596.133 478.642 590.911 481.905 590.911 491.041C590.911 499.822 581.194 511.737 589.41 514.838C590.007 515.064 590.514 515.187 590.911 515.187C595.48 515.187 612.451 526.281 622.895 526.281C633.339 526.281 652.922 536.07 662.713 541.29C672.504 546.511 695.007 553.69 700.572 553.69C725.791 553.69 718.959 629.39 715.695 629.39C712.431 629.39 654.88 557.605 641.825 553.69C633.346 551.147 625.441 548.432 620.904 546.801C619.195 546.188 617.396 545.858 615.581 545.858H577.904C571.921 545.858 566.498 549.382 564.068 554.849L563.496 556.136C563.062 557.113 562.628 558.153 562.855 559.198C565.681 572.235 633.364 586.118 618.326 594.343L581.174 608.917C577.572 610.33 574.647 613.069 573.001 616.571L563.353 637.092C563.014 637.815 562.733 638.565 562.516 639.333C557.882 655.697 533.771 652.349 533.771 635.341V576.53C533.771 563.478 522.373 557.605 518.456 553.69C514.54 549.774 492.999 551.732 489.735 557.605C486.472 563.478 479.944 570.256 471.459 578.739C466.063 584.134 464.659 588.978 460.153 597.144C457.675 601.634 452.962 605.76 451.918 610.781C448.084 629.224 452.57 680.063 444.448 680.063C432.046 680.063 433.791 589.375 407.571 620.932C403.658 625.642 295.355 679.232 298.581 672.672C324.689 619.572 322.735 627.982 337.218 622.293C339.324 621.466 341.101 619.995 342.614 618.313C354.148 605.483 355.276 615.356 375.612 600.4C390.987 589.092 400.187 587.455 407.779 580.889C409.332 579.546 411.003 578.321 412.89 577.51L431.762 569.398C433.831 568.508 435.676 567.168 437.162 565.475L449.678 551.216C456.33 543.638 453.854 531.796 444.723 527.517L443.256 526.829C442.477 526.464 441.73 526.034 441.025 525.542L423.388 513.252C421.516 511.949 419.375 511.084 417.123 510.724L391.145 506.568C389.011 506.227 386.829 506.346 384.746 506.918L359.602 513.819C356.37 514.706 352.936 514.496 349.837 513.222L346.532 511.863C331.187 505.554 335.698 482.717 352.289 482.717H360.128C363.733 482.717 367.22 481.431 369.962 479.089L379.787 470.698C384.601 466.585 386.132 459.793 383.547 454.013C376.646 438.587 397.54 426.083 407.873 439.456L424.987 461.603C429.676 467.671 439.045 466.955 442.758 460.245C443.856 458.261 445.557 456.679 447.616 455.728Z" fill="#664D3B" stroke="#61432D" stroke-width="17.0342"/>
<path d="M143.81 682.859L151.396 672.612C156.996 665.047 154.41 654.259 145.989 650.055L92.9422 623.573C89.1602 621.685 86.3397 618.302 85.1626 614.242L73.6135 574.406C72.4015 570.226 69.4492 566.769 65.5099 564.918L52.0101 558.575C49.428 557.362 47.2412 555.444 45.7017 553.042L29.7602 528.172C27.2594 524.271 26.6829 519.439 28.1957 515.058L39.2669 483.001C39.5626 482.145 39.9346 481.317 40.3783 480.528L70.9582 426.1C71.4561 425.214 72.042 424.38 72.707 423.611L120.264 368.63C123.01 365.455 124.315 361.283 123.867 357.109L122.194 341.519C121.233 332.568 128.247 324.762 137.249 324.762H201.08H263.12C273.952 324.762 281.281 313.718 277.072 303.737L264.87 274.803C264.085 272.94 263.68 270.94 263.68 268.919V197.318C263.68 193.525 262.257 189.871 259.692 187.078L241.117 166.845C236.397 161.704 235.803 154.002 239.679 148.197L262.738 113.661C263.364 112.723 264.093 111.859 264.911 111.083L313.659 64.8439C317.214 61.4721 322.178 60.0126 326.965 61.058C353.392 66.8297 401.438 79.8955 430.613 96.9717C470.956 120.584 476.52 142.808 487.649 178.921C498.778 215.034 498.778 153.919 505.733 142.808C510.908 134.541 531.72 120.83 543.561 113.737C545.22 112.743 547.059 112.106 548.972 111.826L638.495 98.7163C645.47 97.695 652.236 101.607 654.631 108.236C662.359 129.63 672.667 162.251 672.667 178.921C672.667 196.621 703.171 196.046 723.687 192.792C728.377 192.048 733.204 193.248 736.795 196.355L767.593 223.005C770.917 225.882 772.827 230.06 772.827 234.455V316.182C772.827 321.504 775.621 326.436 780.187 329.171L792.395 336.485C793.258 337.002 794.171 337.432 795.12 337.768L834.92 351.869C836.18 352.315 837.374 352.926 838.473 353.686L887.417 387.518C889.803 389.166 891.682 391.447 892.694 394.165C899.355 412.061 906.494 443.669 891.071 453.935C876.116 463.89 903.215 474.588 923.358 480.037C927.577 481.178 931.202 483.928 933.258 487.785L965.893 549.005C970.799 558.207 965.152 569.497 954.846 571.091L884.745 581.935C879.977 582.673 875.846 585.639 873.622 589.921L861.173 613.894C858.977 618.122 858.899 623.138 860.964 627.432L888.067 683.81C889.974 687.778 890.06 692.379 888.303 696.416L878.606 718.685C877.655 720.868 876.203 722.795 874.368 724.312L846.147 747.631C840.692 752.139 832.841 752.267 827.242 747.938L797.784 725.167C795.132 723.117 791.875 722.005 788.523 722.005H716.041C705.29 722.005 697.964 732.895 702.016 742.853L709.219 760.556C710.753 764.327 710.704 768.557 709.084 772.291L694.785 805.237C693.959 807.139 693.533 809.191 693.533 811.265V827.883C693.533 829.513 693.273 831.131 692.748 832.674C688.624 844.814 679.955 868.919 672.667 884.514C664.876 901.181 641.598 917.386 630.933 923.405L598.946 936.798C592.43 939.526 584.911 937.393 580.723 931.704C560.62 904.39 528.519 863.679 519.644 863.679H472.091C466.289 863.679 461.002 866.996 458.471 872.218L447.125 895.63C443.991 902.096 436.743 905.47 429.778 903.703L363.22 886.826C357.636 885.41 351.733 887.285 347.99 891.663L310.762 935.206C307.427 939.107 302.352 941.058 297.268 940.356C267.274 936.215 216.286 928.466 201.08 923.405C184.913 918.024 154.392 883.546 139.847 865.397C138.937 864.26 138.208 863.004 137.673 861.65C131.883 847.006 121.457 818.719 120.396 808.121C119.421 798.385 141.158 768.033 156.225 748.832C159.796 744.281 160.595 738.118 158.177 732.862L142.225 698.197C139.915 693.178 140.523 687.299 143.81 682.859Z" fill="#939453" fill-opacity="0.4"/>
<path d="M149.448 857.703L139.847 865.397L149.447 857.703C149.307 857.528 149.198 857.341 149.113 857.127C146.271 849.938 142.293 839.404 138.914 829.423C135.548 819.482 133.255 811.443 132.711 807.512C132.74 807.393 132.78 807.238 132.838 807.045C133.127 806.064 133.677 804.629 134.584 802.711C136.397 798.88 139.178 794.074 142.646 788.673C149.55 777.923 158.492 765.872 165.903 756.427C172.243 748.347 173.753 737.281 169.353 727.719L153.401 693.054C152.968 692.113 153.082 691.011 153.698 690.178L143.81 682.859L153.698 690.178L161.284 679.931C171.434 666.22 166.748 646.668 151.484 639.048L98.4372 612.566C97.7281 612.212 97.1992 611.577 96.9785 610.816L85.4294 570.981C83.2327 563.404 77.8817 557.139 70.7417 553.784L65.5099 564.918L70.7417 553.784L57.2418 547.441C56.7577 547.213 56.3477 546.854 56.059 546.403L40.1176 521.533L29.7602 528.172L40.1176 521.533C39.6486 520.802 39.5406 519.896 39.8242 519.074L28.2248 515.068L39.8242 519.074L50.8954 487.017C50.9509 486.857 51.0206 486.702 51.1038 486.554L81.6837 432.126C81.7771 431.96 81.8869 431.803 82.0115 431.659L72.707 423.611L82.0116 431.659L129.568 376.678C134.546 370.924 136.911 363.361 136.099 355.796L134.426 340.206C134.246 338.528 135.561 337.064 137.249 337.064H201.08H263.12C282.754 337.064 296.036 317.047 288.407 298.956L276.206 270.022C276.058 269.673 275.983 269.298 275.983 268.919V197.318C275.983 190.444 273.403 183.821 268.755 178.758L250.18 158.525C249.295 157.561 249.183 156.117 249.91 155.029L272.97 120.492C273.087 120.316 273.224 120.154 273.377 120.009L264.911 111.083L273.377 120.009L322.125 73.7697C322.826 73.1047 323.671 72.9311 324.34 73.0771C350.661 78.8257 397.036 91.5735 424.399 107.589C443.201 118.594 452.999 128.708 459.541 139.595C465.987 150.322 469.674 162.316 474.838 179.118C475.183 180.238 475.533 181.38 475.892 182.544C477.336 187.23 478.916 191.465 480.841 194.613C481.744 196.088 483.434 198.539 486.251 200.331C489.817 202.599 494.824 203.479 499.629 201.111C503.306 199.3 505.222 196.331 506.025 194.941C506.986 193.278 507.645 191.557 508.108 190.157C509.044 187.326 509.762 183.99 510.351 180.823C510.983 177.428 511.667 172.984 512.322 168.737C512.796 165.663 513.254 162.691 513.664 160.293C514.22 157.044 514.767 154.277 515.328 152.104C515.864 150.029 516.224 149.267 516.211 149.261C516.21 149.26 516.209 149.262 516.207 149.264C516.611 148.656 517.833 147.206 520.358 144.95C522.814 142.756 525.922 140.307 529.398 137.771C536.343 132.704 544.176 127.709 549.883 124.29C550.083 124.17 550.367 124.056 550.755 123.999L640.278 110.889C641.656 110.687 642.716 111.462 643.06 112.416L654.631 108.236L643.06 112.416C646.854 122.918 651.252 136.099 654.683 148.605C658.215 161.478 660.364 172.394 660.364 178.921C660.364 187.543 664.364 194.35 670.374 198.856C675.821 202.94 682.506 204.878 688.503 205.856C700.599 207.829 714.862 206.648 725.614 204.943C727.057 204.714 728.144 205.138 728.745 205.658L759.543 232.308L767.593 223.005L759.543 232.309C760.166 232.848 760.524 233.631 760.524 234.455V316.182C760.524 325.829 765.589 334.767 773.864 339.724L786.073 347.038L792.395 336.485L786.073 347.038C787.637 347.976 789.292 348.755 791.011 349.364L830.812 363.465C831.048 363.548 831.272 363.663 831.478 363.806L880.422 397.638C880.944 397.998 881.116 398.328 881.164 398.457C884.256 406.762 887.294 417.879 887.884 427.652C888.534 438.424 886.025 442.515 884.254 443.694C881.387 445.603 878.363 448.273 876.416 452.03C874.274 456.162 873.904 460.729 875.198 465.007C876.37 468.885 878.679 471.811 880.715 473.842C882.809 475.931 885.225 477.678 887.573 479.133C896.605 484.73 909.883 489.136 920.145 491.912C921.305 492.226 922.048 492.908 922.402 493.572L955.037 554.792C955.957 556.518 954.898 558.635 952.966 558.934L882.864 569.778C874.222 571.115 866.735 576.49 862.704 584.251L850.255 608.224C846.274 615.888 846.134 624.979 849.876 632.763L876.979 689.141C877.337 689.884 877.353 690.747 877.023 691.504L867.326 713.773L878.606 718.685L867.326 713.773C867.148 714.182 866.876 714.544 866.532 714.828L838.311 738.147C837.288 738.993 835.816 739.016 834.766 738.205L805.307 715.433C800.501 711.718 794.598 709.703 788.523 709.703H716.041C696.556 709.703 683.277 729.441 690.62 747.49L697.823 765.193C698.111 765.9 698.102 766.693 697.798 767.393L683.5 800.339C682.003 803.787 681.231 807.506 681.231 811.265V827.883C681.231 828.201 681.18 828.479 681.1 828.716C676.992 840.808 668.504 864.366 661.521 879.305C658.764 885.205 652.633 892.034 644.924 898.567C637.752 904.645 630.255 909.601 625.491 912.346L594.195 925.45C592.989 925.955 591.501 925.592 590.632 924.411C580.497 910.642 567.244 893.364 555.315 879.444C549.38 872.518 543.554 866.165 538.475 861.45C535.956 859.113 533.337 856.91 530.772 855.216C528.753 853.883 524.645 851.377 519.644 851.377H472.091C461.569 851.377 451.985 857.392 447.4 866.852L436.054 890.264C435.467 891.477 434.108 892.109 432.802 891.778L366.244 874.901C356.124 872.335 345.424 875.733 338.639 883.669L301.411 927.211C300.774 927.957 299.843 928.292 298.95 928.169C284.026 926.109 263.906 923.154 245.665 920.093C227.003 916.961 211.479 913.9 204.965 911.732C203.057 911.097 199.507 909.068 194.404 905.002C189.551 901.135 184.136 896.116 178.589 890.524C167.504 879.352 156.529 866.54 149.448 857.703Z" stroke="#6A653A" stroke-opacity="0.4" stroke-width="24.6049"/>
<path d="M684.122 684.238L668.928 696.878C664.712 700.386 658.918 701.313 653.818 699.297C645.135 695.864 635.458 701.112 633.6 710.262L627.205 741.752C626.364 745.895 623.828 749.499 620.211 751.689L600.065 763.891C596.341 766.146 593.768 769.896 593.003 774.182L591.875 780.505C591.374 783.313 590.09 785.922 588.171 788.032L577.345 799.937C574.221 803.372 569.694 805.184 565.063 804.852L545.11 803.425C544.205 803.36 543.308 803.214 542.429 802.989L502.574 792.769C501.589 792.516 500.632 792.165 499.717 791.72L458.006 771.448C454.225 769.61 449.849 769.427 445.927 770.943L443.216 771.991C434.819 775.238 425.461 770.484 423.13 761.787L413.391 725.441L404.471 692.148C401.666 681.68 389.092 677.462 380.542 684.121L370.518 691.927C368.92 693.171 367.09 694.082 365.134 694.606L321.369 706.333C317.7 707.316 314.535 709.642 312.501 712.849L305.699 723.575C301.954 729.479 294.654 732.052 288.035 729.8L265.741 722.215C264.674 721.852 263.65 721.371 262.69 720.781L226.697 698.659C222.53 696.098 219.838 691.693 219.647 686.805C218.914 668.118 219.265 636.479 225.014 615.445C233.331 585.012 246.823 577.507 268.383 563.95C289.942 550.392 250.165 561.051 241.717 558.451C235.64 556.582 223.695 546.062 216.866 539.504C215.474 538.167 214.385 536.555 213.621 534.782L191.358 483.12C188.571 476.653 190.596 469.105 196.412 465.134C208.892 456.614 226.085 445.934 236.045 443.265C246.914 440.352 242.45 422.566 237.121 409.802C235.294 405.428 235.182 400.466 237.246 396.198L247.162 375.693C249.079 371.731 252.624 368.799 256.875 367.66L305.165 354.72C310.311 353.341 314.353 349.36 315.81 344.235L317.537 338.16C317.812 337.193 317.99 336.201 318.068 335.199L320.201 307.916C320.305 306.586 320.584 305.275 321.032 304.018L333.793 268.169C334.766 265.436 336.481 263.017 338.871 261.374C349.57 254.018 367.835 244.874 376.869 252.84C385.49 260.443 387.938 243.271 388.191 229.46C388.271 225.092 389.971 220.875 393.16 217.889L420.573 192.225C428.191 185.092 440.571 187.624 444.778 197.174L460.282 232.367C462.225 236.78 466.155 240.003 470.862 241.046L483.78 243.909C488.442 244.942 493.317 243.716 496.935 240.601L525.286 216.194C528.629 213.316 533.061 212.039 537.423 212.697L550.193 214.623C552.548 214.978 554.787 215.884 556.726 217.268L572.691 228.653C578.443 232.755 580.594 240.29 577.874 246.81L570.351 264.845C569.063 267.933 568.834 271.361 569.7 274.593L580.04 313.182C582.824 323.571 595.248 327.827 603.817 321.327L606.556 319.249C609.806 316.783 613.913 315.734 617.947 316.337L638.804 319.457C640.859 319.764 642.955 319.645 644.962 319.107L654.002 316.685C655.579 316.263 657.214 316.096 658.843 316.207C667.696 316.814 684.21 318.238 695.288 320.211C707.497 322.386 722.113 334.744 727.894 340.651L739.818 356.092C744.129 361.675 744.007 369.483 739.639 375.021C725.557 392.877 707.008 418.192 708.473 423.659L715.988 451.708C717.489 457.309 722.056 461.559 727.749 462.656L738.01 464.633C745.058 465.991 750.185 472.112 750.285 479.289L750.835 518.618C750.915 524.369 754.247 529.578 759.435 532.063L789.13 546.285C793.752 548.499 796.946 552.897 797.574 557.983C800.111 578.506 803.633 610.694 803.024 621.039C802.358 632.353 785.745 657.681 776.388 670.527C775.53 671.705 774.505 672.732 773.333 673.599C764.661 680.016 748.656 691.29 742.092 693.774C736.301 695.966 715.173 688.262 700.09 681.949C694.744 679.711 688.577 680.531 684.122 684.238Z" fill="#939453" fill-opacity="0.4"/>
<path d="M328.626 412.407L334.94 403.483C337.148 400.363 340.881 398.693 344.68 399.127C351.15 399.867 356.719 394.585 356.324 388.085L355.089 367.768C354.833 363.548 356.352 359.414 359.279 356.364L367.83 347.456C370.844 344.316 372.361 340.03 371.994 335.693L371.903 334.628C371.663 331.785 372.23 328.932 373.54 326.398L377.065 319.576C379.194 315.458 383.091 312.542 387.643 311.662L398.762 309.513C399.652 309.341 400.555 309.249 401.461 309.238L429.269 308.917C430.285 308.905 431.3 308.996 432.299 309.188L463.026 315.087C466.26 315.708 469.607 314.958 472.267 313.017C477.97 308.854 486.023 310.556 489.553 316.671L501.909 338.073L510.446 352.858C515.862 362.24 529.092 363.063 535.631 354.426L536.257 353.599C537.477 351.987 539.008 350.636 540.758 349.625L565.785 335.176C569.07 333.28 571.524 330.219 572.66 326.6L573.702 323.282C575.794 316.621 582.169 312.254 589.136 312.71L601.423 313.513C602.548 313.587 603.661 313.785 604.741 314.106L630.192 321.656C634.888 323.049 638.642 326.621 640.046 331.313C643.829 343.956 648.656 363.704 648.573 377.998C648.446 399.971 640.709 407.459 628.627 420.475C616.545 433.492 641.418 419.132 647.576 419.352C651.811 419.504 661.084 424.006 666.94 427.177C668.64 428.097 670.111 429.376 671.31 430.893L692.772 458.041C697.143 463.569 697.143 471.401 692.475 476.681C685.886 484.133 677.649 492.609 672.117 495.803C665.851 499.421 670.638 509.187 676.036 516.662C678.815 520.511 680.237 525.268 679.343 529.931L677.179 541.206C676.351 545.523 673.687 549.268 669.88 551.466L643.736 566.56C639.126 569.222 636.252 574.109 636.167 579.431L636.145 580.771C636.129 581.777 636.214 582.782 636.397 583.772L639.673 601.453C639.916 602.766 639.985 604.106 639.877 605.437L637.889 629.905C637.654 632.795 636.627 635.585 634.697 637.75C628.677 644.501 618.68 652.89 611.526 649.345C604.864 646.044 605.629 656.148 607.625 665.082C608.578 669.347 608.049 673.859 605.737 677.569L596.403 692.548C590.887 701.399 578.284 702.154 571.75 694.026L560.491 680.017C557.468 676.256 552.835 674.161 548.016 674.376L543.406 674.581C538.644 674.793 534.26 677.235 531.573 681.171L519.335 699.101C516.852 702.738 512.909 705.114 508.533 705.61L502.751 706.265C500.386 706.533 497.99 706.239 495.759 705.407L487.439 702.306C480.81 699.835 476.775 693.102 477.722 686.091L478.841 677.812C479.29 674.491 478.624 671.116 476.949 668.214L464.779 647.136C460.581 639.864 450.354 639.163 445.202 645.792C443.251 648.303 440.37 649.922 437.21 650.284L424.065 651.789C422.004 652.025 420.014 652.682 418.217 653.719L414.028 656.138C412.616 656.953 411.083 657.537 409.483 657.848C403.264 659.053 392.458 660.952 384.944 661.602C376.329 662.347 364.263 656.677 359.306 653.749L351.424 647.747C345.805 643.469 343.907 635.884 346.653 629.377C352.625 615.226 359.276 597.561 357.454 594.405L348.791 579.399C345.89 574.375 340.373 571.45 334.586 571.869L333.927 571.916C326.761 572.435 320.217 567.845 318.263 560.931L312.619 540.952C311.054 535.41 306.479 531.236 300.818 530.183L283.53 526.967C278.485 526.028 274.255 522.607 272.342 517.846C266.981 504.501 259.634 485.412 258.265 478.741C256.71 471.163 263.052 451.76 267.062 441.265C267.582 439.904 268.313 438.637 269.223 437.5C273.994 431.538 282.36 421.577 286.219 418.802C289.44 416.486 302.881 417.447 313.803 418.796C319.546 419.506 325.284 417.131 328.626 412.407Z" fill="#939453" fill-opacity="0.4"/>
<path d="M397.498 444.87L399.854 441.527C401.194 439.626 403.465 438.611 405.775 438.88C409.703 439.338 413.088 436.129 412.841 432.182L412.214 422.184C411.957 418.081 413.429 414.057 416.272 411.087L419.498 407.718C421.509 405.617 422.518 402.752 422.268 399.855C422.104 397.959 422.478 396.054 423.349 394.361L424.035 393.026C426.164 388.886 430.078 385.956 434.649 385.079L438.017 384.433C438.909 384.262 439.815 384.171 440.724 384.163L456.492 384.012C457.51 384.002 458.527 384.095 459.526 384.29L477.625 387.808C479.592 388.191 481.63 387.736 483.249 386.554C486.707 384.027 491.593 385.058 493.735 388.768L501.297 401.865L506.257 410.457C509.677 416.381 518.033 416.894 522.153 411.434C522.924 410.411 523.893 409.555 525.002 408.914L539.52 400.532C541.907 399.154 543.688 396.927 544.508 394.295C546.018 389.448 550.656 386.27 555.721 386.612L561.108 386.976C562.234 387.052 563.347 387.254 564.428 387.577L576.379 391.153C581.055 392.552 584.801 396.111 586.118 400.811C588.25 408.419 590.55 418.695 590.521 426.38C590.471 439.771 585.776 444.325 578.446 452.243C571.116 460.161 586.222 451.44 589.966 451.582C592.312 451.671 597.203 453.965 600.75 455.839C602.453 456.739 603.918 458.02 605.112 459.532L614.603 471.555C618.962 477.076 618.998 484.929 614.176 490.051C610.932 493.498 607.498 496.753 604.982 498.206C601.823 500.03 603.301 504.446 605.777 508.503C608.241 512.541 609.756 517.232 608.875 521.88L608.625 523.202C607.804 527.534 605.136 531.292 601.318 533.497L588.435 540.935C585.251 542.773 583.269 546.151 583.218 549.828C583.208 550.519 583.267 551.209 583.394 551.889L585.244 561.788C585.488 563.097 585.559 564.433 585.454 565.761L584.474 578.158C584.246 581.051 583.239 583.866 581.217 585.949C577.534 589.741 572.242 593.656 568.332 591.708C564.902 589.998 564.716 594.144 565.481 598.76C566.186 603.008 565.75 607.447 563.479 611.106C558.047 619.862 545.59 620.616 539.14 612.58L538.201 611.411C535.817 608.44 532.161 606.781 528.355 606.943C524.574 607.104 521.092 609.043 518.964 612.173L513.65 619.99C511.314 623.426 507.592 625.668 503.463 626.129C501.238 626.377 498.985 626.096 496.888 625.309L496.286 625.083C490.295 622.834 486.649 616.749 487.491 610.405C487.89 607.401 487.285 604.348 485.769 601.723L479.079 590.136C476.531 585.723 470.323 585.302 467.203 589.33C466.018 590.861 464.263 591.847 462.339 592.064L455.594 592.825C453.524 593.058 451.524 593.716 449.72 594.758L449.104 595.114C447.686 595.932 446.147 596.519 444.537 596.821C440.678 597.544 434.783 598.541 430.581 598.896C425.344 599.34 418 595.869 414.982 594.079L413.887 593.242C408.293 588.967 406.424 581.416 409.033 574.877C412.046 567.323 414.714 559.521 413.783 557.909L408.574 548.888C406.756 545.738 403.301 543.903 399.673 544.158C395.183 544.475 391.087 541.599 389.859 537.27L387.447 528.77C385.88 523.248 381.326 519.086 375.685 518.023L371.889 517.308C366.862 516.361 362.644 512.945 360.758 508.19C357.67 500.408 354.073 490.89 353.33 487.294C352.414 482.862 355.903 471.808 358.329 465.273C358.838 463.904 359.567 462.635 360.483 461.498C363.432 457.837 368.05 452.385 370.253 450.799C371.966 449.566 378.45 449.875 384.497 450.533C389.541 451.081 394.575 449.017 397.498 444.87Z" fill="#939453" fill-opacity="0.4"/>
</svg>
