<svg width="1000" height="1001" viewBox="0 0 1000 1001" fill="none" xmlns="http://www.w3.org/2000/svg">
<g clip-path="url(#clip0_524_1210)">
<path d="M499.916 27.7441L577.074 237.157L755.2 102.702L706.892 320.587L929.434 303.779L770.998 460.957L967.298 567.133L749.036 613.703L856.772 809.151L647.981 730.327L632.947 952.995L499.916 773.803L366.885 952.995L351.85 730.327L143.059 809.151L250.795 613.703L32.5328 567.133L228.834 460.957L70.3973 303.779L292.939 320.587L244.631 102.702L422.758 237.157L499.916 27.7441Z" fill="#B09F74"/>
<path d="M605.595 105.535L588.321 354.9L802.05 225.281L652.702 425.721L902.58 432.229L668.574 520.106L875.266 660.675L630.897 608.089L728.78 838.09L551.635 661.736L509.631 908.144L455.951 664.013L287.398 848.596L374.226 614.199L132.636 678.353L332.406 528.109L94.4833 451.466L343.768 433.075L185.052 239.968L404.706 359.271L375.587 111.01L495.872 330.128L605.595 105.535Z" fill="#B09F74"/>
<path d="M579.537 202.773L578.832 339.9L687.192 255.863L634.065 382.282L766.337 346.11L668.875 442.574L804.92 459.774L677.962 511.599L797.07 579.551L659.943 578.846L743.98 687.207L617.561 634.08L653.733 766.351L557.269 668.89L540.069 804.935L488.244 677.977L420.291 797.085L420.996 659.958L312.636 743.995L365.763 617.576L233.491 653.748L330.953 557.283L194.908 540.084L321.866 488.259L202.758 420.306L339.885 421.011L255.848 312.65L382.267 365.778L346.095 233.506L442.559 330.968L459.759 194.922L511.584 321.881L579.537 202.773Z" fill="#B5A478"/>
<path d="M500.635 343.269L526.354 413.073L585.73 368.255L569.627 440.883L643.807 435.28L590.995 487.673L656.429 523.065L583.675 538.588L619.587 603.738L549.99 577.463L544.978 651.686L500.635 591.955L456.291 651.686L451.28 577.463L381.682 603.738L417.594 538.588L344.84 523.065L410.274 487.673L357.462 435.28L431.642 440.883L415.54 368.255L474.915 413.073L500.635 343.269Z" fill="#B09F74"/>
</g>
<defs>
<clipPath id="clip0_524_1210">
<rect width="1000" height="1000" fill="white" transform="translate(0 0.0273438)"/>
</clipPath>
</defs>
</svg>
