<svg width="501" height="501" viewBox="0 0 501 501" fill="none" xmlns="http://www.w3.org/2000/svg">
<path d="M237.557 188.46C226.461 190.362 215.961 194.871 209.841 200.428C208.361 201.772 205.651 201.24 205.134 199.309L201.055 184.071C200.895 183.474 200.979 182.837 201.289 182.302L211.31 164.993C211.612 164.471 211.7 163.853 211.556 163.268L208.421 150.579C208.334 150.227 208.166 149.901 207.931 149.626L198.368 138.419C197.911 137.883 197.721 137.169 197.851 136.477L200.805 120.776L204.256 106.695C204.616 105.229 203.505 103.813 201.995 103.813H190.495C189.209 103.813 188.166 104.855 188.166 106.141V113.464C188.166 114.927 186.833 116.028 185.397 115.75L175.175 113.776C174.193 113.586 173.442 112.791 173.309 111.799L171.742 100.118C171.716 99.9211 171.715 99.7222 171.739 99.5255L173.417 85.7939C173.491 85.1917 173.326 84.5845 172.959 84.1017L167.711 77.2049L165.467 74.1438C164.252 72.487 161.643 73.1014 161.295 75.1262L156.815 101.189C156.763 101.494 156.771 101.806 156.841 102.107L162.138 125.063C162.195 125.307 162.29 125.541 162.422 125.755L173.43 143.725C173.498 143.836 173.575 143.94 173.66 144.038L187.593 160.03C187.963 160.454 188.166 160.997 188.166 161.56V174.904C188.166 175.859 187.588 176.719 186.69 177.043C180.596 179.238 169.568 182.039 164.552 178.981C159.227 175.734 147.656 175.921 142.158 176.447C141.898 176.472 141.639 176.455 141.384 176.395L130.664 173.856C129.737 173.637 128.771 174.004 128.223 174.783L119.9 186.622C118.816 188.165 119.919 190.289 121.805 190.289H141.316C141.615 190.289 141.911 190.347 142.188 190.458L175.473 203.9C176.041 204.13 176.495 204.573 176.738 205.136L182.18 217.729L187.74 233.792C188.005 234.557 187.853 235.405 187.34 236.031L164.859 263.42C164.656 263.666 164.508 263.947 164.42 264.254C162.177 271.994 156.917 286.864 152.744 287.907C148.487 288.972 137.001 295.003 131.791 297.885L106.988 315.555C106.572 315.851 106.267 316.273 106.114 316.761C104.183 322.941 100.241 334.617 98.198 337.298C96.7506 339.198 97.6815 343.717 98.9833 347.635C99.6152 349.536 102.143 349.556 102.96 347.726L109.174 333.806L116.8 319.644C117.131 319.029 117.72 318.595 118.405 318.462L145.315 313.226C146.752 312.946 148.088 314.047 148.088 315.511V330.729C148.088 330.895 148.106 331.061 148.141 331.223L152.134 349.621C152.449 351.068 154.016 351.858 155.366 351.25L162.614 347.983C163.712 347.489 164.251 346.239 163.858 345.101L158.305 329.011C158.149 328.56 158.136 328.072 158.267 327.614L164.443 305.918C164.515 305.664 164.629 305.425 164.782 305.21L190.203 269.292C190.286 269.174 190.385 269.06 190.489 268.961C206.722 253.44 221.3 272.109 223.422 272.109C225.421 272.109 228.506 280.127 231.904 282.526C232.314 282.816 232.696 283.157 232.933 283.599L246.34 308.68C246.576 309.121 246.949 309.475 247.402 309.688L265.458 318.185C266.111 318.493 266.592 319.076 266.68 319.792C267.666 327.832 263.999 348.379 263.999 352.432C263.999 357.753 261.671 370.059 261.671 373.718V395.319C261.671 395.766 261.798 396.199 262.04 396.576C264.867 400.973 270.054 409.188 270.818 410.969C271.52 412.609 275.798 420.9 278.589 426.265C279.17 427.38 280.531 427.83 281.664 427.282L296.482 420.12C297.968 419.402 298.256 417.41 297.035 416.3L280.199 401.008C279.83 400.673 279.579 400.229 279.481 399.741L275.807 381.368C275.197 375.492 275.108 364.206 279.631 366.068C284.098 367.907 301.903 373.897 310.569 376.769C310.79 376.843 311.012 376.882 311.245 376.879C319.551 376.752 331.554 366.462 334.178 366.068C336.771 365.679 350.313 369.312 354.952 366.317C355.19 366.164 355.371 365.943 355.514 365.699L363.115 352.715C363.225 352.527 363.308 352.325 363.361 352.114L369.434 328.318L374.196 313.877C374.441 313.133 375.042 312.563 375.799 312.362C380.202 311.196 387.573 309.36 389.389 309.36H406.901C407.411 309.36 407.902 309.193 408.307 308.885L416.309 302.799C417.729 301.719 417.457 299.508 415.817 298.806L400.585 292.278C400.018 292.035 399.379 292.027 398.806 292.255L379.545 299.929C378.837 300.211 378.034 300.128 377.398 299.707L367.663 293.259C366.548 292.521 366.283 290.996 367.084 289.924L377.743 275.667C378.167 275.1 378.31 274.371 378.131 273.686L372.261 251.155L369.849 240.656C369.606 239.598 368.664 238.849 367.579 238.849H361.526C360.037 238.849 358.93 240.228 359.254 241.682L363.233 259.59C363.265 259.731 363.283 259.871 363.286 260.016C363.409 265.251 361.991 275.794 355.298 277.763C348.754 279.688 342.199 294.453 339.454 302.362C339.265 302.907 339.295 303.499 339.525 304.027L349.832 327.608C350.034 328.069 350.081 328.583 349.966 329.072L345.106 349.796C344.781 351.183 343.298 351.955 341.975 351.426L332.377 347.587C331.635 347.29 330.792 347.395 330.145 347.864L317.211 357.244C316.5 357.76 315.558 357.832 314.777 357.429L296.026 347.76C295.251 347.361 294.765 346.562 294.765 345.691V323.831C294.765 323.608 294.733 323.387 294.67 323.174L290.759 309.875C290.659 309.536 290.483 309.224 290.245 308.963L267.102 283.585C266.711 283.156 266.494 282.596 266.494 282.016V269.98C266.494 269.422 266.694 268.883 267.058 268.46L281.571 251.606C281.826 251.31 282.002 250.955 282.084 250.572L286.088 231.785C286.213 231.196 286.562 230.678 287.062 230.341L305.504 217.888C305.661 217.782 305.801 217.661 305.928 217.52C310.987 211.896 321.231 200.4 323.202 197.773C325.151 195.174 325.884 187.291 326.02 183.412C326.027 183.228 326.053 183.049 326.102 182.872L330.997 164.869C331.119 164.42 331.104 163.945 330.953 163.504L320.833 133.947C320.75 133.705 320.708 133.45 320.708 133.193V104.134C320.708 103.921 320.737 103.709 320.794 103.504L325.943 85.1634C326 84.9586 326.029 84.7469 326.029 84.5342V62.5705V52.1847C326.029 51.9045 325.979 51.6267 325.88 51.3644L322.27 41.7761C321.609 40.02 319.249 39.7274 318.179 41.2689L311.311 51.1623C311.041 51.5521 310.896 52.0153 310.896 52.4898V59.7988C310.896 61.2454 309.593 62.3417 308.172 62.0705C302.295 60.9486 293.445 59.0044 290.607 57.4152C288.802 56.4041 286.849 55.1512 285.202 54.0396C283.729 53.0458 281.678 53.9298 281.45 55.6919L279.816 68.3008C279.703 69.172 280.09 70.0326 280.816 70.5262L300.895 84.1619C301.534 84.5953 301.916 85.3166 301.916 86.088V108.21C301.916 108.382 301.935 108.554 301.973 108.722L305.619 124.892C305.699 125.247 305.695 125.616 305.606 125.969L299.73 149.474C299.636 149.848 299.636 150.236 299.731 150.61C301.824 158.832 305.741 174.666 305.741 176.486C305.741 178.273 303.393 188.064 302.076 193.31C301.971 193.729 301.754 194.105 301.442 194.405C295.704 199.921 284.03 210.3 279.631 211.077C273.977 212.074 271.579 202.32 263.999 197.773C251.527 190.289 249.198 186.464 237.557 188.46Z" fill="#664D3B" stroke="#61432D" stroke-width="4.3238"/>
<path d="M263.796 35.3398C266.667 33.4669 270.374 33.4669 273.245 35.3398L274.995 36.4815C276.105 37.2056 277.367 37.6649 278.683 37.8238L280.758 38.0742C284.161 38.4851 287 40.8676 287.996 44.148L288.603 46.1475C288.988 47.4159 289.659 48.5788 290.565 49.5464L291.994 51.0717C294.337 53.5741 294.98 57.2243 293.634 60.3772L292.814 62.299C292.294 63.5181 292.06 64.8405 292.132 66.1641L292.246 68.2506C292.432 71.6736 290.579 74.8836 287.522 76.4337L285.658 77.3786C284.476 77.978 283.447 78.8411 282.651 79.9014L281.397 81.5727C279.34 84.3147 275.857 85.5824 272.518 84.8045L270.483 84.3303C269.192 84.0295 267.849 84.0295 266.558 84.3303L264.523 84.8045C261.184 85.5824 257.701 84.3147 255.644 81.5727L254.39 79.9014C253.594 78.8411 252.565 77.978 251.383 77.3786L249.519 76.4337C246.462 74.8836 244.609 71.6736 244.795 68.2506L244.909 66.1641C244.981 64.8405 244.747 63.5181 244.227 62.299L243.407 60.3772C242.061 57.2243 242.704 53.5741 245.047 51.0717L246.476 49.5464C247.382 48.5788 248.053 47.4159 248.438 46.1475L249.045 44.148C250.041 40.8676 252.88 38.4851 256.283 38.0742L258.358 37.8238C259.674 37.6649 260.936 37.2056 262.046 36.4815L263.796 35.3398Z" fill="#948E53" fill-opacity="0.6"/>
<path d="M356.062 204.014C358.933 202.141 362.64 202.141 365.511 204.014L373.549 209.257C374.659 209.981 375.921 210.441 377.237 210.599L386.764 211.75C390.167 212.161 393.007 214.543 394.002 217.823L396.79 227.006C397.174 228.275 397.846 229.438 398.752 230.405L405.311 237.41C407.654 239.913 408.298 243.563 406.952 246.716L403.184 255.542C402.664 256.761 402.431 258.083 402.503 259.407L403.024 268.989C403.211 272.412 401.357 275.622 398.3 277.172L389.74 281.512C388.558 282.111 387.529 282.974 386.734 284.035L380.974 291.71C378.917 294.452 375.434 295.72 372.095 294.942L362.749 292.764C361.458 292.464 360.115 292.464 358.824 292.764L349.478 294.942C346.139 295.72 342.656 294.452 340.599 291.71L334.839 284.035C334.043 282.974 333.015 282.111 331.832 281.512L323.273 277.172C320.215 275.622 318.362 272.412 318.548 268.989L319.07 259.407C319.142 258.083 318.909 256.761 318.389 255.542L314.621 246.716C313.275 243.563 313.919 239.913 316.262 237.41L322.821 230.405C323.727 229.438 324.398 228.275 324.783 227.006L327.57 217.823C328.566 214.543 331.405 212.161 334.809 211.75L344.336 210.599C345.652 210.441 346.914 209.981 348.024 209.257L356.062 204.014Z" fill="#939453" fill-opacity="0.4"/>
<path d="M364.421 205.686L372.458 210.929C373.825 211.82 375.378 212.385 376.997 212.581L386.525 213.731C389.143 214.047 391.327 215.88 392.093 218.403L394.88 227.586C395.354 229.147 396.18 230.578 397.295 231.769L403.854 238.774C405.657 240.699 406.152 243.507 405.116 245.932L401.349 254.758C400.708 256.259 400.421 257.886 400.51 259.515L401.032 269.098C401.175 271.731 399.749 274.2 397.397 275.392L388.838 279.732C387.383 280.47 386.117 281.532 385.138 282.837L379.378 290.513C377.795 292.622 375.116 293.597 372.548 292.999L363.202 290.821C361.613 290.451 359.96 290.451 358.371 290.821L349.025 292.999C346.457 293.597 343.778 292.622 342.195 290.513L336.435 282.837C335.456 281.532 334.19 280.47 332.735 279.732L324.175 275.392C321.823 274.2 320.398 271.731 320.541 269.098L321.063 259.515C321.151 257.886 320.864 256.259 320.224 254.758L316.456 245.932C315.421 243.507 315.916 240.699 317.719 238.774L324.278 231.769C325.393 230.578 326.219 229.147 326.693 227.586L329.48 218.403C330.246 215.88 332.43 214.047 335.048 213.731L344.575 212.581C346.195 212.385 347.748 211.82 349.114 210.929L357.152 205.686C359.361 204.245 362.212 204.245 364.421 205.686Z" stroke="#6A653A" stroke-opacity="0.4" stroke-width="3.9912"/>
<path d="M401.96 259.558C404.832 257.685 408.538 257.685 411.409 259.558L419.447 264.801C420.557 265.525 421.819 265.985 423.135 266.143L432.662 267.294C436.066 267.704 438.905 270.087 439.901 273.367L442.688 282.55C443.073 283.819 443.744 284.982 444.65 285.949L451.209 292.954C453.552 295.457 454.196 299.107 452.85 302.26L449.083 311.086C448.562 312.305 448.329 313.627 448.401 314.951L448.923 324.533C449.109 327.956 447.256 331.166 444.198 332.716L435.639 337.056C434.457 337.655 433.428 338.518 432.632 339.578L426.873 347.254C424.815 349.996 421.332 351.264 417.993 350.486L408.647 348.308C407.356 348.008 406.013 348.008 404.722 348.308L395.376 350.486C392.038 351.264 388.555 349.996 386.497 347.254L380.737 339.578C379.942 338.518 378.913 337.655 377.731 337.056L369.171 332.716C366.114 331.166 364.261 327.956 364.447 324.533L364.969 314.951C365.041 313.627 364.807 312.305 364.287 311.086L360.519 302.26C359.174 299.107 359.817 295.457 362.16 292.954L368.719 285.949C369.625 284.982 370.297 283.819 370.682 282.55L373.469 273.367C374.464 270.087 377.304 267.704 380.707 267.294L390.235 266.143C391.551 265.985 392.812 265.525 393.923 264.801L401.96 259.558Z" fill="#939453" fill-opacity="0.4"/>
<path d="M410.319 261.23L418.357 266.472C419.723 267.364 421.276 267.929 422.896 268.125L432.423 269.275C435.041 269.591 437.225 271.424 437.991 273.947L440.778 283.13C441.252 284.691 442.079 286.122 443.194 287.313L449.753 294.318C451.555 296.243 452.05 299.051 451.015 301.476L447.247 310.302C446.607 311.803 446.32 313.43 446.408 315.059L446.93 324.642C447.073 327.275 445.648 329.744 443.296 330.936L434.736 335.276C433.281 336.013 432.015 337.076 431.036 338.381L425.276 346.057C423.694 348.166 421.014 349.141 418.446 348.543L409.1 346.365C407.511 345.995 405.858 345.995 404.27 346.365L394.923 348.543C392.355 349.141 389.676 348.166 388.093 346.057L382.334 338.381C381.354 337.076 380.088 336.013 378.633 335.276L370.074 330.936C367.722 329.744 366.296 327.275 366.44 324.642L366.961 315.059C367.05 313.43 366.763 311.803 366.122 310.302L362.355 301.476C361.32 299.051 361.815 296.243 363.617 294.318L370.176 287.313C371.291 286.122 372.117 284.691 372.591 283.13L375.378 273.947C376.144 271.424 378.328 269.591 380.946 269.275L390.474 268.125C392.093 267.929 393.646 267.364 395.013 266.472L403.051 261.23C405.259 259.789 408.11 259.789 410.319 261.23Z" stroke="#6A653A" stroke-opacity="0.4" stroke-width="3.9912"/>
<path d="M279.232 305.79C282.103 303.917 285.81 303.917 288.681 305.79L306.502 317.414C307.612 318.138 308.874 318.597 310.19 318.756L331.313 321.306C334.717 321.717 337.556 324.1 338.552 327.38L344.731 347.74C345.116 349.008 345.788 350.171 346.694 351.139L361.236 366.67C363.579 369.173 364.222 372.823 362.877 375.976L354.523 395.544C354.003 396.763 353.77 398.086 353.842 399.409L354.999 420.655C355.185 424.078 353.332 427.288 350.274 428.838L331.297 438.459C330.114 439.058 329.086 439.921 328.29 440.982L315.52 458C313.462 460.742 309.979 462.01 306.641 461.232L285.919 456.403C284.628 456.103 283.285 456.103 281.994 456.403L261.272 461.232C257.934 462.01 254.451 460.742 252.393 458L239.623 440.982C238.827 439.921 237.799 439.058 236.616 438.459L217.639 428.838C214.582 427.288 212.728 424.078 212.915 420.655L214.071 399.409C214.143 398.086 213.91 396.763 213.39 395.544L205.037 375.976C203.691 372.823 204.334 369.173 206.677 366.67L221.22 351.139C222.126 350.171 222.797 349.008 223.182 347.74L229.361 327.38C230.357 324.1 233.196 321.717 236.6 321.306L257.723 318.756C259.039 318.597 260.301 318.138 261.411 317.414L279.232 305.79Z" fill="#939453" fill-opacity="0.4"/>
<path d="M287.591 307.461L305.412 319.085C306.778 319.977 308.331 320.542 309.951 320.737L331.074 323.288C333.692 323.604 335.876 325.436 336.642 327.96L342.822 348.319C343.295 349.881 344.122 351.312 345.237 352.503L359.779 368.034C361.581 369.959 362.077 372.767 361.041 375.192L352.688 394.761C352.048 396.261 351.761 397.889 351.849 399.518L353.006 420.763C353.149 423.396 351.724 425.865 349.372 427.058L330.394 436.679C328.939 437.417 327.673 438.479 326.694 439.784L313.924 456.802C312.341 458.911 309.662 459.887 307.094 459.288L286.372 454.46C284.783 454.09 283.13 454.09 281.541 454.46L260.82 459.288C258.251 459.887 255.572 458.911 253.989 456.802L241.219 439.784C240.24 438.479 238.974 437.417 237.519 436.679L218.542 427.058C216.19 425.865 214.764 423.396 214.907 420.763L216.064 399.518C216.153 397.889 215.866 396.261 215.225 394.761L206.872 375.192C205.837 372.767 206.332 369.959 208.134 368.034L222.676 352.503C223.791 351.312 224.618 349.881 225.092 348.319L231.271 327.96C232.037 325.436 234.221 323.604 236.839 323.288L257.962 320.737C259.582 320.542 261.135 319.977 262.502 319.085L280.322 307.461C282.531 306.02 285.382 306.02 287.591 307.461Z" stroke="#6A653A" stroke-opacity="0.4" stroke-width="3.9912"/>
<path d="M275.241 361.666C278.112 359.793 281.818 359.793 284.69 361.666L298.793 370.866C299.903 371.59 301.165 372.049 302.481 372.208L319.198 374.226C322.601 374.637 325.441 377.02 326.436 380.3L331.327 396.412C331.712 397.681 332.383 398.844 333.289 399.811L344.798 412.103C347.141 414.605 347.784 418.255 346.438 421.408L339.828 436.895C339.307 438.114 339.074 439.436 339.146 440.76L340.062 457.573C340.248 460.996 338.395 464.206 335.337 465.756L320.319 473.37C319.136 473.97 318.108 474.833 317.312 475.893L307.206 489.361C305.148 492.103 301.665 493.371 298.327 492.593L281.928 488.772C280.637 488.471 279.294 488.471 278.003 488.772L261.604 492.593C258.265 493.371 254.782 492.103 252.725 489.361L242.618 475.893C241.823 474.833 240.794 473.97 239.612 473.37L224.593 465.756C221.536 464.206 219.682 460.996 219.869 457.573L220.784 440.76C220.856 439.436 220.623 438.114 220.103 436.895L213.492 421.408C212.146 418.255 212.79 414.605 215.133 412.103L226.641 399.811C227.547 398.844 228.219 397.681 228.604 396.412L233.494 380.3C234.49 377.02 237.329 374.637 240.733 374.226L257.449 372.208C258.765 372.049 260.027 371.59 261.138 370.866L275.241 361.666Z" fill="#939453" fill-opacity="0.4"/>
<path d="M283.599 363.338L297.703 372.537C299.069 373.428 300.622 373.994 302.242 374.189L318.959 376.207C321.577 376.523 323.761 378.356 324.527 380.88L329.417 396.992C329.891 398.553 330.717 399.984 331.832 401.175L343.341 413.467C345.143 415.392 345.638 418.2 344.603 420.625L337.992 436.111C337.352 437.612 337.065 439.239 337.154 440.868L338.069 457.682C338.212 460.315 336.787 462.784 334.435 463.976L319.416 471.59C317.961 472.328 316.695 473.39 315.716 474.695L305.61 488.164C304.027 490.273 301.348 491.248 298.779 490.649L282.38 486.828C280.792 486.458 279.139 486.458 277.55 486.828L261.151 490.649C258.583 491.248 255.904 490.273 254.321 488.164L244.215 474.695C243.235 473.39 241.969 472.328 240.514 471.59L225.496 463.976C223.144 462.784 221.718 460.315 221.861 457.682L222.777 440.868C222.865 439.239 222.579 437.612 221.938 436.111L215.327 420.625C214.292 418.2 214.787 415.392 216.589 413.467L228.098 401.175C229.213 399.984 230.04 398.553 230.513 396.992L235.404 380.88C236.17 378.356 238.354 376.523 240.972 376.207L257.689 374.189C259.308 373.994 260.861 373.428 262.228 372.537L276.331 363.338C278.54 361.897 281.391 361.897 283.599 363.338Z" stroke="#6A653A" stroke-opacity="0.4" stroke-width="3.9912"/>
<path d="M89.5144 297.807C92.3857 295.934 96.0922 295.934 98.9634 297.807L106.961 303.024C108.072 303.748 109.333 304.208 110.649 304.366L120.13 305.511C123.533 305.922 126.372 308.304 127.368 311.585L130.141 320.722C130.526 321.99 131.198 323.153 132.104 324.121L138.63 331.091C140.973 333.594 141.617 337.244 140.271 340.397L136.522 349.179C136.002 350.398 135.768 351.721 135.841 353.044L136.36 362.579C136.546 366.002 134.693 369.212 131.635 370.762L123.118 375.08C121.936 375.68 120.907 376.543 120.112 377.603L114.38 385.241C112.323 387.983 108.84 389.25 105.501 388.473L96.2013 386.306C94.9103 386.005 93.5675 386.005 92.2765 386.306L82.9767 388.473C79.638 389.25 76.155 387.983 74.0975 385.241L68.3662 377.603C67.5707 376.543 66.542 375.68 65.3597 375.08L56.8427 370.762C53.7851 369.212 51.9319 366.002 52.1182 362.579L52.6373 353.044C52.7094 351.721 52.4762 350.398 51.9558 349.179L48.2069 340.397C46.861 337.244 47.5047 333.594 49.8477 331.091L56.3742 324.121C57.2802 323.153 57.9516 321.99 58.3366 320.722L61.1099 311.585C62.1056 308.304 64.9449 305.922 68.3483 305.511L77.8285 304.366C79.1444 304.208 80.4063 303.748 81.5165 303.024L89.5144 297.807Z" fill="#939453" fill-opacity="0.4"/>
<path d="M97.8732 299.479L105.871 304.696C107.237 305.587 108.791 306.152 110.41 306.348L119.89 307.492C122.508 307.808 124.692 309.641 125.458 312.164L128.232 321.302C128.705 322.863 129.532 324.294 130.647 325.485L137.173 332.455C138.976 334.38 139.471 337.188 138.436 339.613L134.687 348.396C134.046 349.896 133.759 351.524 133.848 353.153L134.367 362.688C134.51 365.321 133.085 367.79 130.733 368.982L122.216 373.3C120.761 374.038 119.495 375.1 118.515 376.405L112.784 384.043C111.201 386.152 108.522 387.127 105.954 386.529L96.6541 384.362C95.0653 383.992 93.4126 383.992 91.8237 384.362L82.5238 386.529C79.9556 387.127 77.2764 386.152 75.6937 384.043L69.9624 376.405C68.9833 375.1 67.7172 374.038 66.2621 373.3L57.7451 368.982C55.3931 367.79 53.9675 365.321 54.1109 362.688L54.63 353.153C54.7187 351.524 54.4317 349.896 53.7912 348.396L50.0423 339.613C49.007 337.188 49.5021 334.38 51.3044 332.455L57.831 325.485C58.946 324.294 59.7724 322.863 60.2462 321.302L63.0195 312.164C63.7854 309.641 65.9695 307.808 68.5875 307.492L78.0676 306.348C79.6873 306.152 81.2404 305.587 82.6068 304.696L90.6047 299.479C92.8133 298.038 95.6645 298.038 97.8732 299.479Z" stroke="#6A653A" stroke-opacity="0.4" stroke-width="3.9912"/>
<path d="M138.542 268.538C141.413 266.665 145.12 266.665 147.991 268.538L160.333 276.589C161.443 277.313 162.705 277.772 164.021 277.931L178.651 279.697C182.054 280.108 184.894 282.491 185.889 285.771L190.169 299.872C190.554 301.14 191.225 302.303 192.131 303.271L202.203 314.027C204.546 316.53 205.19 320.18 203.844 323.333L198.059 336.886C197.538 338.105 197.305 339.427 197.377 340.751L198.178 355.465C198.365 358.888 196.511 362.098 193.454 363.648L180.31 370.311C179.128 370.911 178.099 371.774 177.304 372.834L168.459 384.621C166.402 387.363 162.919 388.63 159.58 387.852L145.229 384.508C143.938 384.208 142.595 384.208 141.304 384.508L126.953 387.852C123.614 388.63 120.131 387.363 118.074 384.621L109.229 372.834C108.434 371.774 107.405 370.911 106.223 370.311L93.0793 363.648C90.0217 362.098 88.1684 358.888 88.3548 355.465L89.1559 340.751C89.2279 339.427 88.9947 338.105 88.4743 336.886L82.6891 323.333C81.3432 320.18 81.9869 316.53 84.3299 314.027L94.4016 303.271C95.3075 302.303 95.979 301.14 96.3639 299.872L100.644 285.771C101.639 282.491 104.479 280.108 107.882 279.697L122.512 277.931C123.828 277.772 125.09 277.313 126.2 276.589L138.542 268.538Z" fill="#939453" fill-opacity="0.4"/>
<path d="M146.901 270.21L159.243 278.26C160.609 279.152 162.162 279.717 163.782 279.912L178.412 281.679C181.03 281.995 183.214 283.827 183.98 286.351L188.259 300.451C188.733 302.012 189.56 303.444 190.675 304.635L200.746 315.391C202.549 317.316 203.044 320.124 202.009 322.549L196.223 336.102C195.583 337.603 195.296 339.23 195.384 340.859L196.186 355.573C196.329 358.206 194.903 360.676 192.551 361.868L179.408 368.531C177.953 369.269 176.687 370.331 175.708 371.636L166.863 383.423C165.281 385.532 162.601 386.507 160.033 385.909L145.682 382.565C144.093 382.195 142.44 382.195 140.851 382.565L126.5 385.909C123.932 386.507 121.252 385.532 119.67 383.423L110.825 371.636C109.846 370.331 108.58 369.269 107.125 368.531L93.9817 361.868C91.6297 360.676 90.2041 358.206 90.3475 355.573L91.1485 340.859C91.2372 339.23 90.9502 337.603 90.3097 336.102L84.5245 322.549C83.4892 320.124 83.9843 317.316 85.7866 315.391L95.8583 304.635C96.9733 303.444 97.7997 302.012 98.2735 300.451L102.553 286.351C103.319 283.827 105.503 281.995 108.121 281.679L122.751 279.912C124.371 279.717 125.924 279.152 127.29 278.26L139.632 270.21C141.841 268.769 144.692 268.769 146.901 270.21Z" stroke="#6A653A" stroke-opacity="0.4" stroke-width="3.9912"/>
<path d="M138.542 283.308C141.413 281.435 145.12 281.435 147.991 283.308L155.989 288.525C157.099 289.249 158.361 289.709 159.677 289.867L169.157 291.012C172.56 291.423 175.4 293.805 176.395 297.086L179.169 306.223C179.554 307.491 180.225 308.654 181.131 309.622L187.657 316.592C190.001 319.095 190.644 322.745 189.298 325.898L185.549 334.68C185.029 335.899 184.796 337.222 184.868 338.545L185.387 348.08C185.573 351.503 183.72 354.713 180.662 356.263L172.145 360.581C170.963 361.181 169.935 362.044 169.139 363.104L163.408 370.742C161.35 373.484 157.867 374.751 154.528 373.973L145.229 371.807C143.938 371.506 142.595 371.506 141.304 371.807L132.004 373.973C128.665 374.751 125.182 373.484 123.125 370.742L117.394 363.104C116.598 362.044 115.569 361.181 114.387 360.581L105.87 356.263C102.812 354.713 100.959 351.503 101.146 348.08L101.665 338.545C101.737 337.222 101.504 335.899 100.983 334.68L97.2342 325.898C95.8884 322.745 96.532 319.095 98.875 316.592L105.402 309.622C106.308 308.654 106.979 307.491 107.364 306.223L110.137 297.086C111.133 293.805 113.972 291.423 117.376 291.012L126.856 289.867C128.172 289.709 129.434 289.249 130.544 288.525L138.542 283.308Z" fill="#948E53" fill-opacity="0.6"/>
<path d="M229.342 95.9187C232.213 94.0458 235.919 94.0458 238.791 95.9187L277.449 121.135C278.559 121.86 279.821 122.319 281.137 122.478L326.96 128.01C330.364 128.421 333.203 130.803 334.199 134.084L347.604 178.25C347.989 179.518 348.66 180.681 349.566 181.649L381.113 215.341C383.456 217.844 384.1 221.494 382.754 224.647L364.633 267.097C364.113 268.316 363.879 269.638 363.951 270.962L366.461 317.05C366.647 320.473 364.794 323.683 361.736 325.233L320.568 346.104C319.386 346.703 318.357 347.566 317.562 348.626L289.859 385.544C287.802 388.286 284.319 389.554 280.98 388.776L236.028 378.302C234.737 378.001 233.395 378.001 232.104 378.302L187.152 388.776C183.813 389.554 180.33 388.286 178.273 385.544L150.57 348.626C149.775 347.566 148.746 346.703 147.564 346.104L106.396 325.233C103.338 323.683 101.485 320.473 101.672 317.05L104.181 270.962C104.253 269.638 104.02 268.316 103.499 267.097L85.3784 224.647C84.0325 221.494 84.6762 217.844 87.0192 215.341L118.566 181.649C119.472 180.681 120.143 179.518 120.528 178.25L133.933 134.084C134.929 130.803 137.768 128.421 141.172 128.01L186.995 122.478C188.311 122.319 189.573 121.86 190.683 121.135L229.342 95.9187Z" fill="#939453" fill-opacity="0.4"/>
<path d="M237.7 97.5901L276.359 122.807C277.725 123.698 279.278 124.263 280.898 124.459L326.721 129.991C329.339 130.307 331.523 132.14 332.289 134.663L345.694 178.83C346.168 180.391 346.994 181.822 348.109 183.013L379.656 216.705C381.458 218.63 381.954 221.438 380.918 223.863L362.798 266.313C362.157 267.814 361.87 269.441 361.959 271.07L364.468 317.158C364.611 319.791 363.186 322.26 360.834 323.453L319.666 344.324C318.211 345.061 316.945 346.124 315.966 347.429L288.263 384.347C286.681 386.456 284.001 387.431 281.433 386.833L236.481 376.359C234.892 375.988 233.24 375.988 231.651 376.359L186.699 386.833C184.131 387.431 181.452 386.456 179.869 384.347L152.166 347.429C151.187 346.124 149.921 345.061 148.466 344.324L107.298 323.453C104.946 322.26 103.521 319.791 103.664 317.158L106.173 271.07C106.262 269.441 105.975 267.814 105.334 266.313L87.2138 223.863C86.1785 221.438 86.6736 218.63 88.4759 216.705L120.023 183.013C121.138 181.822 121.964 180.391 122.438 178.83L135.843 134.663C136.609 132.14 138.793 130.307 141.411 129.991L187.234 124.459C188.854 124.263 190.407 123.698 191.773 122.807L230.432 97.5901C232.64 96.1494 235.492 96.1494 237.7 97.5901Z" stroke="#6A653A" stroke-opacity="0.4" stroke-width="3.9912"/>
<path d="M229.341 125.655C232.212 123.782 235.919 123.782 238.79 125.655L268.702 145.167C269.812 145.891 271.074 146.35 272.39 146.509L307.845 150.789C311.249 151.2 314.088 153.583 315.084 156.863L325.456 191.037C325.841 192.305 326.512 193.468 327.418 194.436L351.827 220.505C354.17 223.007 354.814 226.657 353.468 229.81L339.447 262.656C338.927 263.875 338.694 265.197 338.766 266.521L340.707 302.181C340.894 305.604 339.04 308.814 335.983 310.364L304.13 326.513C302.947 327.112 301.919 327.975 301.123 329.036L279.688 357.601C277.631 360.343 274.148 361.61 270.809 360.833L236.028 352.728C234.737 352.428 233.394 352.428 232.103 352.728L197.322 360.833C193.983 361.61 190.5 360.343 188.443 357.601L167.008 329.036C166.213 327.975 165.184 327.112 164.002 326.513L132.148 310.364C129.091 308.814 127.238 305.604 127.424 302.181L129.365 266.521C129.437 265.197 129.204 263.875 128.684 262.656L114.663 229.81C113.317 226.657 113.961 223.007 116.304 220.505L140.713 194.436C141.619 193.468 142.29 192.305 142.675 191.037L153.047 156.863C154.043 153.583 156.882 151.2 160.286 150.789L195.741 146.509C197.057 146.35 198.319 145.891 199.429 145.167L229.341 125.655Z" fill="#939453" fill-opacity="0.4"/>
<path d="M318.235 60.2579C321.658 58.0248 326.078 58.0248 329.501 60.2579L336.404 64.7603C337.727 65.6238 339.232 66.1714 340.801 66.3608L348.982 67.3486C353.04 67.8385 356.426 70.6791 357.613 74.5903L360.006 82.4762C360.465 83.9885 361.266 85.375 362.346 86.5287L367.979 92.5444C370.772 95.5281 371.54 99.8803 369.935 103.639L366.7 111.219C366.079 112.672 365.801 114.249 365.887 115.827L366.335 124.056C366.557 128.137 364.348 131.965 360.702 133.813L353.352 137.539C351.942 138.254 350.715 139.283 349.767 140.547L344.821 147.139C342.367 150.408 338.215 151.92 334.234 150.992L326.208 149.122C324.669 148.763 323.067 148.763 321.528 149.122L313.502 150.992C309.521 151.92 305.369 150.408 302.915 147.139L297.969 140.547C297.021 139.283 295.794 138.254 294.385 137.539L287.034 133.813C283.388 131.965 281.179 128.137 281.401 124.056L281.849 115.827C281.935 114.249 281.657 112.672 281.036 111.219L277.801 103.639C276.196 99.8803 276.964 95.5281 279.757 92.5444L285.39 86.5287C286.47 85.375 287.271 83.9885 287.73 82.4762L290.123 74.5903C291.31 70.6791 294.696 67.8385 298.754 67.3486L306.935 66.3608C308.504 66.1714 310.009 65.6238 311.333 64.7603L318.235 60.2579Z" fill="#939453" fill-opacity="0.4"/>
<path d="M328.411 61.9294L335.313 66.4318C336.893 67.4624 338.689 68.116 340.562 68.342L348.743 69.3298C352.016 69.7249 354.746 72.0157 355.703 75.1699L358.097 83.0557C358.645 84.8608 359.6 86.5157 360.889 87.8927L366.522 93.9084C368.775 96.3146 369.394 99.8244 368.1 102.856L364.864 110.435C364.124 112.17 363.792 114.052 363.894 115.936L364.342 124.165C364.522 127.456 362.74 130.542 359.8 132.033L352.449 135.759C350.767 136.612 349.303 137.841 348.171 139.35L343.224 145.941C341.246 148.578 337.897 149.797 334.687 149.049L326.661 147.179C324.823 146.75 322.913 146.75 321.075 147.179L313.049 149.049C309.839 149.797 306.49 148.578 304.512 145.941L299.565 139.35C298.433 137.841 296.969 136.612 295.287 135.759L287.936 132.033C284.996 130.542 283.214 127.456 283.394 124.165L283.842 115.936C283.944 114.052 283.612 112.17 282.872 110.435L279.636 102.856C278.342 99.8244 278.961 96.3146 281.214 93.9084L286.847 87.8927C288.136 86.5157 289.091 84.8608 289.639 83.0557L292.033 75.1699C292.99 72.0157 295.72 69.7249 298.993 69.3298L307.174 68.342C309.047 68.116 310.843 67.4624 312.423 66.4318L319.325 61.9294C322.086 60.1285 325.65 60.1285 328.411 61.9294Z" stroke="#6A653A" stroke-opacity="0.4" stroke-width="3.9912"/>
<path d="M168.897 49.9474C172.32 47.7143 176.74 47.7143 180.163 49.9474L187.066 54.4498C188.389 55.3133 189.894 55.8609 191.463 56.0503L199.645 57.038C203.702 57.5279 207.088 60.3686 208.275 64.2798L210.668 72.1656C211.127 73.6779 211.928 75.0645 213.008 76.2182L218.641 82.2339C221.434 85.2175 222.202 89.5697 220.597 93.3289L217.362 100.908C216.741 102.362 216.463 103.939 216.549 105.517L216.997 113.746C217.219 117.827 215.01 121.654 211.364 123.502L204.014 127.229C202.604 127.943 201.377 128.973 200.429 130.237L195.483 136.828C193.029 140.098 188.877 141.609 184.896 140.682L176.87 138.812C175.331 138.453 173.73 138.453 172.19 138.812L164.164 140.682C160.184 141.609 156.031 140.098 153.578 136.828L148.631 130.237C147.683 128.973 146.456 127.943 145.047 127.229L137.696 123.502C134.051 121.654 131.841 117.827 132.063 113.746L132.511 105.517C132.597 103.939 132.319 102.362 131.699 100.908L128.463 93.3289C126.858 89.5697 127.626 85.2175 130.419 82.2339L136.052 76.2182C137.132 75.0645 137.933 73.6779 138.392 72.1656L140.785 64.2798C141.972 60.3686 145.358 57.5279 149.416 57.038L157.597 56.0503C159.166 55.8609 160.671 55.3133 161.995 54.4498L168.897 49.9474Z" fill="#939453" fill-opacity="0.4"/>
<path d="M179.073 51.6188L185.975 56.1212C187.555 57.1518 189.351 57.8054 191.224 58.0315L199.405 59.0192C202.678 59.4143 205.408 61.7052 206.365 64.8594L208.759 72.7452C209.307 74.5502 210.262 76.2052 211.551 77.5821L217.184 83.5979C219.437 86.004 220.056 89.5138 218.762 92.5454L215.526 100.125C214.786 101.86 214.454 103.742 214.556 105.625L215.004 113.854C215.184 117.145 213.402 120.232 210.462 121.722L203.111 125.449C201.429 126.302 199.965 127.53 198.833 129.039L193.886 135.631C191.908 138.267 188.559 139.486 185.349 138.738L177.323 136.868C175.486 136.44 173.575 136.44 171.738 136.868L163.711 138.738C160.501 139.486 157.152 138.267 155.174 135.631L150.228 129.039C149.095 127.53 147.631 126.302 145.949 125.449L138.599 121.722C135.659 120.232 133.877 117.145 134.056 113.854L134.504 105.625C134.606 103.742 134.274 101.86 133.534 100.125L130.298 92.5454C129.004 89.5138 129.623 86.004 131.876 83.5979L137.509 77.5821C138.798 76.2052 139.754 74.5502 140.301 72.7452L142.695 64.8594C143.652 61.7052 146.382 59.4143 149.655 59.0192L157.837 58.0315C159.709 57.8054 161.505 57.1518 163.085 56.1212L169.987 51.6188C172.748 49.818 176.312 49.818 179.073 51.6188Z" stroke="#6A653A" stroke-opacity="0.4" stroke-width="3.9912"/>
<path d="M113.686 138.419C117.11 136.186 121.529 136.186 124.952 138.419L131.855 142.921C133.178 143.785 134.683 144.333 136.252 144.522L144.434 145.51C148.492 146 151.877 148.84 153.064 152.751L155.457 160.637C155.916 162.15 156.717 163.536 157.797 164.69L163.43 170.706C166.223 173.689 166.991 178.041 165.386 181.801L162.151 189.38C161.53 190.834 161.252 192.41 161.338 193.988L161.786 202.217C162.008 206.299 159.799 210.126 156.153 211.974L148.803 215.701C147.393 216.415 146.167 217.444 145.218 218.708L140.272 225.3C137.819 228.569 133.666 230.081 129.685 229.153L121.659 227.283C120.12 226.925 118.519 226.925 116.979 227.283L108.953 229.153C104.973 230.081 100.82 228.569 98.3666 225.3L93.4204 218.708C92.4718 217.444 91.2453 216.415 89.8357 215.701L82.4853 211.974C78.8397 210.126 76.63 206.299 76.8522 202.217L77.3002 193.988C77.3861 192.41 77.1081 190.834 76.4876 189.38L73.2522 181.801C71.6475 178.041 72.4149 173.689 75.2085 170.706L80.8411 164.69C81.9213 163.536 82.7219 162.15 83.1809 160.637L85.5743 152.751C86.7614 148.84 90.1468 146 94.2047 145.51L102.386 144.522C103.955 144.333 105.46 143.785 106.784 142.921L113.686 138.419Z" fill="#939453" fill-opacity="0.4"/>
<path d="M123.862 140.091L130.764 144.593C132.344 145.624 134.14 146.277 136.013 146.503L144.194 147.491C147.467 147.886 150.197 150.177 151.154 153.331L153.548 161.217C154.096 163.022 155.051 164.677 156.341 166.054L161.973 172.07C164.226 174.476 164.845 177.986 163.551 181.017L160.315 188.597C159.575 190.331 159.243 192.213 159.346 194.097L159.794 202.326C159.973 205.617 158.191 208.704 155.251 210.194L147.9 213.921C146.218 214.774 144.754 216.002 143.622 217.511L138.676 224.102C136.697 226.739 133.348 227.958 130.138 227.21L122.112 225.34C120.275 224.912 118.364 224.912 116.527 225.34L108.501 227.21C105.29 227.958 101.941 226.739 99.9628 224.102L95.0166 217.511C93.8844 216.002 92.4205 214.774 90.7381 213.921L83.3877 210.194C80.4476 208.704 78.6657 205.617 78.8448 202.326L79.2928 194.097C79.3954 192.213 79.0635 190.331 78.323 188.597L75.0876 181.017C73.7935 177.986 74.4123 174.476 76.6653 172.07L82.2979 166.054C83.5871 164.677 84.5426 163.022 85.0905 161.217L87.4839 153.331C88.4413 150.177 91.1714 147.886 94.4439 147.491L102.626 146.503C104.498 146.277 106.294 145.624 107.874 144.593L114.776 140.091C117.537 138.29 121.101 138.29 123.862 140.091Z" stroke="#6A653A" stroke-opacity="0.4" stroke-width="3.9912"/>
<path d="M158.587 88.8617C162.01 86.6286 166.429 86.6286 169.853 88.8617L182.821 97.3206C184.144 98.184 185.649 98.7316 187.218 98.9211L202.589 100.777C206.647 101.267 210.033 104.107 211.22 108.019L215.716 122.834C216.175 124.346 216.976 125.733 218.056 126.887L228.638 138.189C231.432 141.172 232.199 145.524 230.595 149.284L224.516 163.523C223.896 164.977 223.618 166.554 223.704 168.132L224.545 183.592C224.767 187.673 222.558 191.5 218.912 193.349L205.103 200.35C203.693 201.064 202.466 202.093 201.518 203.358L192.225 215.742C189.772 219.011 185.619 220.522 181.638 219.595L166.559 216.081C165.02 215.723 163.419 215.723 161.88 216.081L146.801 219.595C142.82 220.522 138.667 219.011 136.214 215.742L126.922 203.358C125.973 202.093 124.746 201.064 123.337 200.35L109.527 193.349C105.882 191.5 103.672 187.673 103.894 183.592L104.736 168.132C104.822 166.554 104.544 164.977 103.923 163.523L97.8448 149.284C96.2401 145.524 97.0075 141.172 99.8011 138.189L110.383 126.887C111.464 125.733 112.264 124.346 112.723 122.834L117.22 108.019C118.407 104.107 121.792 101.267 125.85 100.777L141.221 98.9211C142.79 98.7316 144.295 98.184 145.619 97.3206L158.587 88.8617Z" fill="#939453" fill-opacity="0.4"/>
<path d="M168.763 90.5331L181.73 98.992C183.31 100.023 185.106 100.676 186.979 100.902L202.35 102.758C205.623 103.153 208.353 105.444 209.31 108.598L213.807 123.414C214.355 125.219 215.31 126.874 216.599 128.251L227.182 139.553C229.434 141.959 230.053 145.469 228.759 148.5L222.681 162.74C221.94 164.475 221.608 166.357 221.711 168.24L222.553 183.7C222.732 186.992 220.95 190.078 218.01 191.569L204.2 198.57C202.518 199.423 201.054 200.651 199.922 202.16L190.629 214.544C188.651 217.18 185.302 218.399 182.091 217.651L167.012 214.138C165.175 213.71 163.264 213.71 161.427 214.138L146.348 217.651C143.138 218.399 139.789 217.18 137.81 214.544L128.518 202.16C127.386 200.651 125.922 199.423 124.239 198.57L110.43 191.569C107.49 190.078 105.708 186.992 105.887 183.7L106.729 168.24C106.831 166.357 106.499 164.475 105.759 162.74L99.6801 148.5C98.386 145.469 99.0049 141.959 101.258 139.553L111.84 128.251C113.129 126.874 114.085 125.219 114.633 123.414L119.129 108.598C120.087 105.444 122.817 103.153 126.089 102.758L141.461 100.902C143.333 100.676 145.129 100.023 146.709 98.992L159.677 90.5331C162.438 88.7323 166.002 88.7323 168.763 90.5331Z" stroke="#6A653A" stroke-opacity="0.4" stroke-width="3.9912"/>
<path d="M380.098 215.249C383.522 213.016 387.941 213.016 391.365 215.249L404.332 223.708C405.656 224.572 407.161 225.119 408.73 225.309L424.101 227.164C428.159 227.654 431.544 230.495 432.731 234.406L437.228 249.222C437.687 250.734 438.488 252.121 439.568 253.274L450.15 264.576C452.944 267.56 453.711 271.912 452.106 275.671L446.028 289.911C445.407 291.365 445.129 292.941 445.215 294.519L446.057 309.979C446.279 314.061 444.069 317.888 440.424 319.736L426.614 326.737C425.205 327.452 423.978 328.481 423.03 329.745L413.737 342.129C411.284 345.399 407.131 346.91 403.15 345.983L388.071 342.469C386.532 342.11 384.931 342.11 383.392 342.469L368.313 345.983C364.332 346.91 360.179 345.399 357.726 342.129L348.433 329.745C347.485 328.481 346.258 327.452 344.849 326.737L331.039 319.736C327.393 317.888 325.184 314.061 325.406 309.979L326.248 294.519C326.334 292.941 326.055 291.365 325.435 289.911L319.356 275.671C317.752 271.912 318.519 267.56 321.313 264.576L331.895 253.274C332.975 252.121 333.776 250.734 334.235 249.222L338.732 234.406C339.919 230.495 343.304 227.654 347.362 227.164L362.733 225.309C364.302 225.119 365.807 224.572 367.13 223.708L380.098 215.249Z" fill="#939453" fill-opacity="0.4"/>
<path d="M390.274 216.921L403.242 225.38C404.822 226.41 406.618 227.064 408.491 227.29L423.862 229.146C427.134 229.541 429.864 231.832 430.822 234.986L435.318 249.801C435.866 251.606 436.822 253.261 438.111 254.638L448.693 265.94C450.946 268.346 451.565 271.856 450.271 274.888L444.192 289.128C443.452 290.862 443.12 292.744 443.223 294.628L444.064 310.088C444.243 313.379 442.461 316.466 439.521 317.956L425.712 324.957C424.029 325.81 422.566 327.039 421.433 328.547L412.141 340.932C410.162 343.568 406.813 344.787 403.603 344.039L388.524 340.525C386.687 340.097 384.776 340.097 382.939 340.525L367.86 344.039C364.65 344.787 361.301 343.568 359.322 340.932L350.029 328.547C348.897 327.039 347.433 325.81 345.751 324.957L331.941 317.956C329.001 316.466 327.219 313.379 327.399 310.088L328.24 294.628C328.343 292.744 328.011 290.862 327.27 289.128L321.192 274.888C319.898 271.856 320.517 268.346 322.77 265.94L333.352 254.638C334.641 253.261 335.597 251.606 336.144 249.801L340.641 234.986C341.598 231.832 344.329 229.541 347.601 229.146L362.972 227.29C364.845 227.064 366.641 226.41 368.221 225.38L381.189 216.921C383.949 215.12 387.513 215.12 390.274 216.921Z" stroke="#6A653A" stroke-opacity="0.4" stroke-width="3.9912"/>
<path d="M262.888 20.6786C266.311 18.4455 270.73 18.4455 274.154 20.6786L279.158 23.9426C280.481 24.806 281.986 25.3536 283.555 25.543L289.486 26.2591C293.544 26.749 296.929 29.5897 298.116 33.5008L299.852 39.2176C300.311 40.7299 301.111 42.1165 302.191 43.2702L306.275 47.6312C309.068 50.6148 309.836 54.967 308.231 58.7262L305.885 64.2208C305.265 65.6743 304.987 67.2511 305.073 68.8292L305.398 74.7946C305.62 78.8759 303.41 82.7032 299.765 84.5514L294.436 87.2529C293.026 87.9675 291.8 88.9967 290.851 90.2608L287.266 95.0393C284.812 98.3086 280.66 99.8201 276.679 98.8926L270.86 97.5369C269.321 97.1782 267.72 97.1782 266.181 97.5369L260.363 98.8926C256.382 99.8201 252.229 98.3086 249.776 95.0393L246.19 90.2608C245.241 88.9967 244.015 87.9675 242.605 87.2529L237.277 84.5514C233.631 82.7032 231.421 78.8759 231.644 74.7946L231.968 68.8292C232.054 67.2511 231.776 65.6743 231.156 64.2208L228.81 58.7262C227.206 54.967 227.973 50.6148 230.767 47.6312L234.85 43.2702C235.93 42.1165 236.731 40.7299 237.19 39.2176L238.925 33.5008C240.112 29.5897 243.497 26.749 247.555 26.2591L253.486 25.543C255.056 25.3536 256.56 24.806 257.884 23.9426L262.888 20.6786Z" fill="#939453" fill-opacity="0.4"/>
<path d="M273.063 22.35L278.067 25.614C279.647 26.6446 281.443 27.2982 283.316 27.5243L289.247 28.2403C292.519 28.6354 295.25 30.9263 296.207 34.0804L297.942 39.7972C298.49 41.6022 299.445 43.2571 300.735 44.6341L304.818 48.9951C307.071 51.4013 307.69 54.9111 306.396 57.9427L304.05 63.4373C303.31 65.1722 302.978 67.0541 303.08 68.9377L303.405 74.9031C303.584 78.1945 301.802 81.281 298.862 82.7715L293.534 85.4729C291.851 86.3259 290.387 87.5542 289.255 89.063L285.669 93.8416C283.691 96.4781 280.342 97.6971 277.132 96.949L271.313 95.5933C269.476 95.1653 267.565 95.1653 265.728 95.5933L259.91 96.949C256.699 97.6971 253.35 96.4781 251.372 93.8416L247.786 89.063C246.654 87.5542 245.19 86.3259 243.508 85.4729L238.179 82.7715C235.239 81.281 233.457 78.1945 233.636 74.9031L233.961 68.9377C234.064 67.0541 233.732 65.1722 232.991 63.4373L230.646 57.9427C229.352 54.9111 229.971 51.4013 232.223 48.9951L236.307 44.6341C237.596 43.2571 238.551 41.6022 239.099 39.7972L240.834 34.0804C241.792 30.9263 244.522 28.6354 247.794 28.2403L253.726 27.5243C255.598 27.2982 257.394 26.6446 258.974 25.614L263.978 22.35C266.739 20.5492 270.303 20.5492 273.063 22.35Z" stroke="#6A653A" stroke-opacity="0.4" stroke-width="3.9912"/>
<path d="M305.794 24.4181C309.217 22.185 313.636 22.185 317.06 24.4181L320.67 26.7731C321.994 27.6366 323.498 28.1842 325.067 28.3736L329.347 28.8902C333.405 29.3801 336.79 32.2208 337.977 36.132L339.229 40.2567C339.688 41.769 340.489 43.1556 341.569 44.3093L344.515 47.4558C347.309 50.4395 348.076 54.7916 346.471 58.5508L344.779 62.5153C344.159 63.9688 343.881 65.5456 343.967 67.1237L344.201 71.4278C344.423 75.5091 342.213 79.3364 338.568 81.1846L334.723 83.1337C333.313 83.8484 332.087 84.8775 331.138 86.1417L328.551 89.5895C326.098 92.8588 321.945 94.3703 317.964 93.4427L313.766 92.4645C312.227 92.1059 310.626 92.1059 309.087 92.4645L304.889 93.4427C300.908 94.3703 296.755 92.8588 294.302 89.5895L291.715 86.1417C290.766 84.8775 289.54 83.8484 288.13 83.1337L284.286 81.1846C280.64 79.3364 278.43 75.5091 278.653 71.4278L278.887 67.1237C278.973 65.5456 278.695 63.9688 278.074 62.5153L276.382 58.5508C274.777 54.7916 275.545 50.4395 278.338 47.4558L281.284 44.3093C282.365 43.1556 283.165 41.769 283.624 40.2567L284.876 36.132C286.063 32.2208 289.449 29.3801 293.507 28.8902L297.786 28.3736C299.355 28.1842 300.86 27.6366 302.183 26.7731L305.794 24.4181Z" fill="#948E53" fill-opacity="0.6"/>
<path d="M308.122 6.70934C311.545 4.47626 315.964 4.47626 319.388 6.70935L329.185 13.1002C330.509 13.9637 332.013 14.5113 333.582 14.7007L345.196 16.1027C349.254 16.5926 352.639 19.4333 353.826 23.3445L357.224 34.5379C357.683 36.0502 358.483 37.4368 359.563 38.5904L367.558 47.1293C370.352 50.113 371.119 54.4652 369.515 58.2244L364.922 68.9828C364.302 70.4363 364.024 72.0131 364.11 73.5912L364.746 85.2715C364.968 89.3528 362.758 93.1801 359.112 95.0283L348.679 100.318C347.269 101.032 346.043 102.062 345.094 103.326L338.074 112.682C335.62 115.951 331.468 117.463 327.487 116.535L316.094 113.881C314.555 113.522 312.954 113.522 311.415 113.881L300.022 116.535C296.042 117.463 291.889 115.951 289.436 112.682L282.415 103.326C281.466 102.062 280.24 101.032 278.83 100.318L268.397 95.0283C264.751 93.1801 262.541 89.3528 262.764 85.2715L263.4 73.5912C263.485 72.0131 263.207 70.4363 262.587 68.9828L257.994 58.2243C256.39 54.4652 257.157 50.113 259.951 47.1293L267.946 38.5904C269.026 37.4368 269.827 36.0502 270.286 34.5379L273.683 23.3445C274.87 19.4333 278.256 16.5926 282.313 16.1027L293.927 14.7007C295.496 14.5113 297 13.9637 298.324 13.1002L308.122 6.70934Z" fill="#939453" fill-opacity="0.4"/>
<path d="M318.297 8.38079L328.095 14.7717C329.675 15.8022 331.471 16.4558 333.343 16.6819L344.957 18.0839C348.229 18.479 350.959 20.7699 351.917 23.9241L355.314 35.1175C355.862 36.9225 356.817 38.5774 358.107 39.9544L366.102 48.4933C368.355 50.8995 368.973 54.4093 367.679 57.4409L363.087 68.1993C362.346 69.9342 362.014 71.8161 362.117 73.6997L362.753 85.38C362.932 88.6714 361.15 91.7579 358.21 93.2484L347.777 98.5378C346.094 99.3908 344.63 100.619 343.498 102.128L336.477 111.484C334.499 114.121 331.15 115.34 327.94 114.592L316.547 111.937C314.71 111.509 312.799 111.509 310.962 111.937L299.57 114.592C296.359 115.34 293.01 114.121 291.032 111.484L284.011 102.128C282.879 100.619 281.415 99.3908 279.732 98.5378L269.299 93.2484C266.359 91.7578 264.577 88.6714 264.756 85.38L265.392 73.6997C265.495 71.8161 265.163 69.9342 264.422 68.1993L259.83 57.4409C258.536 54.4093 259.155 50.8995 261.408 48.4933L269.403 39.9544C270.692 38.5774 271.647 36.9225 272.195 35.1175L275.593 23.9241C276.55 20.7699 279.28 18.479 282.553 18.0839L294.166 16.6819C296.039 16.4558 297.834 15.8022 299.414 14.7717L309.212 8.38079C311.973 6.57992 315.537 6.57992 318.297 8.38079Z" stroke="#6A653A" stroke-opacity="0.4" stroke-width="3.9912"/>
</svg>
