<svg width="500" height="501" viewBox="0 0 500 501" fill="none" xmlns="http://www.w3.org/2000/svg">
<g clip-path="url(#clip0_524_1209)">
<path d="M249.956 14.3784L288.535 119.085L377.598 51.8576L353.444 160.8L464.715 152.396L385.497 230.985L483.647 284.073L374.516 307.358L428.384 405.082L323.989 365.67L316.471 477.004L249.956 387.408L183.44 477.004L175.923 365.67L71.5275 405.082L125.396 307.358L16.2644 284.073L114.415 230.985L35.1967 152.396L146.467 160.8L122.314 51.8576L211.377 119.085L249.956 14.3784Z" fill="#B09F74"/>
<path d="M302.797 53.2749L294.16 177.957L401.024 113.148L326.35 213.368L451.289 216.622L334.286 260.561L437.632 330.845L315.448 304.552L364.389 419.552L275.816 331.375L254.815 454.579L227.975 332.514L143.698 424.806L187.112 307.607L66.3172 339.684L166.202 264.562L47.2407 226.24L171.883 217.045L92.5249 120.492L202.352 180.143L187.792 56.0125L247.935 165.572L302.797 53.2749Z" fill="#B09F74"/>
<path d="M289.767 101.893L289.415 170.456L343.595 128.438L317.032 191.647L383.167 173.561L334.437 221.794L402.459 230.393L338.98 256.306L398.534 290.282L329.971 289.93L371.989 344.11L308.78 317.546L326.866 383.682L278.633 334.951L270.034 402.974L244.121 339.495L210.145 399.049L210.497 330.485L156.317 372.504L182.881 309.294L116.745 327.38L165.476 279.148L97.4528 270.548L160.932 244.636L101.378 210.66L169.941 211.012L127.923 156.832L191.132 183.395L173.046 117.259L221.279 165.99L229.879 97.9676L255.791 161.447L289.767 101.893Z" fill="#B5A478"/>
</g>
<defs>
<clipPath id="clip0_524_1209">
<rect width="500" height="500" fill="white" transform="translate(0 0.520508)"/>
</clipPath>
</defs>
</svg>
