<svg width="1000" height="1001" viewBox="0 0 1000 1001" fill="none" xmlns="http://www.w3.org/2000/svg">
<path d="M500.439 30.2891L577.266 238.803L754.628 104.926L706.527 321.874L928.113 305.139L770.357 461.642L965.815 567.362L748.49 613.732L855.764 808.341L647.868 729.855L632.899 951.568L500.439 773.145L367.979 951.568L353.01 729.855L145.115 808.341L252.388 613.732L35.0629 567.362L230.521 461.642L72.7649 305.139L294.351 321.874L246.25 104.926L423.612 238.803L500.439 30.2891Z" fill="#B09F74"/>
<path d="M580.922 81.3898L613.708 280.399L794.716 191.429L714.705 376.571L915.079 399.585L747.674 512.08L903.797 639.771L702.148 643.901L764.452 835.728L592.581 730.182L541.285 925.242L453.76 743.531L305.15 879.893L329.76 679.708L131.018 714.079L259.949 558.978L74.1749 480.444L266.493 419.67L152.668 253.166L347.313 306.015L341.576 104.405L476.75 254.097L580.922 81.3898Z" fill="#B09F74"/>
<path d="M500.44 226.685L551.01 363.934L667.754 275.812L636.093 418.614L781.947 407.598L678.108 510.613L806.764 580.201L663.714 610.723L734.325 738.82L597.482 687.159L587.629 833.096L500.44 715.653L413.252 833.096L403.398 687.159L266.556 738.82L337.166 610.723L194.117 580.201L322.773 510.613L218.933 407.598L364.787 418.614L333.126 275.812L449.871 363.934L500.44 226.685Z" fill="#B5A478"/>
<path d="M580.536 201.541L593.859 347.202L729.434 292.299L661.892 422.04L805.627 449.149L678.663 521.779L784.925 622.294L638.85 614.752L673.901 756.76L555.092 671.441L507.803 809.855L453.982 673.848L339.367 764.723L367.621 621.208L222.07 635.692L323.429 530.235L193.153 463.729L335.436 429.811L261.797 303.431L399.83 351.821L406.208 205.691L496.167 321.026L580.536 201.541Z" fill="#B5A478"/>
</svg>
