<svg width="501" height="501" viewBox="0 0 501 501" fill="none" xmlns="http://www.w3.org/2000/svg">
<g clip-path="url(#clip0_388_15)">
<path d="M246.94 274.949C249.97 268.018 251.11 263.017 243.998 242.903C243.885 242.584 243.726 242.278 243.522 242.009C241.747 239.663 232.424 227.751 223.528 224.157C216.447 221.296 211.793 216.453 210.905 215.479C210.798 215.363 210.706 215.24 210.62 215.107L202.425 202.509C202.041 201.918 201.843 201.225 201.858 200.52L202.654 163.073L202.655 162.989C202.705 160.714 202.958 149.177 203.797 142.294C203.907 141.39 204.39 140.58 205.113 140.027L214.27 133.015C214.449 132.878 214.641 132.759 214.843 132.658L231.097 124.583C231.785 124.241 232.342 123.683 232.682 122.995L240.841 106.492C241.079 106.009 241.423 105.591 241.85 105.263L258.327 92.6464C260.165 91.2385 265.389 91.7274 269.41 92.4447C271.21 92.7658 273.02 91.7699 273.596 90.0349L275.939 82.979C276.739 80.5692 274.796 78.133 272.269 78.3779L263.997 79.1795C262.79 79.2964 261.609 78.7837 260.872 77.8209L253.823 68.6158C251.829 66.0114 250.924 62.3283 250.576 59.5392C250.372 57.8976 249.241 56.4518 247.628 56.0867L243.57 55.1683C240.805 54.5426 238.477 57.2824 239.541 59.91L246 75.8652C246.374 76.7882 246.338 77.8263 245.901 78.7213L240.098 90.6247C240.001 90.8239 239.889 91.008 239.756 91.1853C234.31 98.4429 222.864 113.169 219.087 116.061C215.432 118.86 207.943 119.013 204.206 118.716C203.878 118.69 203.55 118.703 203.226 118.763L190.507 121.108C189.573 121.28 188.609 121.068 187.839 120.51C183.85 117.616 177.294 112.63 175.644 110.476C173.896 108.193 164.373 99.2718 159.216 94.5292C158.762 94.1113 158.208 93.8248 157.605 93.6917L141.204 90.0688C140.598 89.9348 139.967 89.9633 139.376 90.1558C134.385 91.7826 125.487 94.8734 123.689 96.2495C122.449 97.1992 122.778 99.8728 123.474 102.343C124.025 104.296 126.262 105.074 128.068 104.147C132.174 102.04 138.064 99.0681 142.556 96.9638C149.995 93.4786 158.439 105.332 162.556 110.708C165.515 114.573 173.311 120.978 177.929 124.547C178.823 125.238 179.342 126.302 179.319 127.432C178.955 144.638 178.496 176.073 179.321 177.149C180.13 178.207 174.328 188.437 170.865 194.197C170.51 194.786 170.335 195.462 170.36 196.149L171.48 226.474C171.487 226.647 171.48 226.819 171.461 226.991L169.649 243.304L170.194 261.26C170.228 262.39 169.703 263.452 168.92 264.267C164.014 269.367 158.921 281.21 154.031 281.479C147.363 281.847 133.09 299.093 132.425 302.762C131.759 306.43 126.55 332.213 123.673 340.417C121.813 345.721 117.478 347.956 114.428 348.677C113.259 348.953 112.158 349.585 111.555 350.624L110.263 352.851C108.731 355.493 111.069 358.696 114.052 358.042L122.082 356.28C122.7 356.144 123.344 356.178 123.944 356.378L139.086 361.422C139.676 361.618 140.203 361.968 140.613 362.434L148.889 371.848C149.462 372.499 150.254 372.915 151.115 373.017L156.932 373.703C159.357 373.989 161.327 371.773 160.757 369.398L158.799 361.23C158.592 360.363 158.062 359.608 157.319 359.118L138.675 346.813C137.514 346.047 136.915 344.668 137.147 343.297L142.313 312.8C142.461 311.924 142.935 311.138 143.64 310.598L163.51 295.383C163.992 295.014 164.562 294.776 165.164 294.693L186.745 291.717C187.169 291.659 187.6 291.678 188.017 291.775L217.617 298.632C217.94 298.707 218.251 298.827 218.541 298.99L251.62 317.525C252.134 317.813 252.712 317.967 253.301 317.973L280.093 318.239L309.338 316.05C309.946 316.005 310.555 316.118 311.106 316.379L337.481 328.896C338.465 329.363 339.177 330.261 339.407 331.326L346.247 362.97L355.655 406.209C355.888 407.283 355.606 408.404 354.891 409.239L352.182 412.401C351.193 413.556 351.06 415.218 351.853 416.516L359.006 428.219C360.575 430.786 364.435 430.319 365.347 427.452L365.977 425.473C366.55 423.674 368.443 422.65 370.263 423.156L385.462 427.382L400.256 431.672C401.623 432.068 403.094 431.6 403.98 430.486L407.958 425.49C409.203 423.926 408.867 421.667 407.058 420.814C403.026 418.91 396.146 416.684 387.107 416.33C375.22 415.865 367.829 406.418 365.39 401.344C365.249 401.051 365.161 400.737 365.115 400.415L356.827 342.55L350.929 311.858C350.774 311.052 350.345 310.326 349.704 309.814C344.025 305.28 333.724 298.018 331.172 299.972C329.1 301.559 321.958 298.891 316.323 296.271C314.09 295.233 313.747 292.27 315.613 290.662C328.34 279.697 350.243 261.048 359.851 253.691C370.055 245.877 385.678 248.736 393.118 251.426C393.759 251.657 394.445 251.722 395.113 251.587L428.278 244.881L437.497 241.982C439.821 241.251 440.712 238.433 439.231 236.498L435.4 231.495C434.653 230.52 433.452 230.006 432.232 230.139L407.649 232.816C404.294 233.181 402.523 229.193 405.149 227.073C409.059 223.917 413.566 220.586 417.48 218.406C424.615 214.431 426.471 191.858 426.524 180.492C426.526 180.091 426.456 179.701 426.321 179.323L422.766 169.371C422.217 167.836 420.683 166.88 419.063 167.064L411.109 167.967C409.686 168.129 408.492 169.136 408.228 170.544C407.406 174.927 406.942 181.962 409.491 186.936C413.328 194.422 395.911 223.236 377.243 222.369C358.576 221.502 332.843 256.368 328.86 259.418C324.878 262.467 308.116 271.512 299.194 282.135C292.46 290.151 277.944 293.484 270.403 294.302C269.574 294.392 268.751 294.155 268.076 293.667L248.088 279.221C246.743 278.248 246.275 276.47 246.94 274.949Z" fill="#664D3B" stroke="#61432D" stroke-width="6.52017"/>
<path d="M450.511 201.008C455.386 202.729 458.784 207.167 459.174 212.321L459.69 219.136C459.841 221.129 460.448 223.061 461.464 224.782L464.939 230.668C467.567 235.119 467.317 240.703 464.303 244.902L460.317 250.454C459.152 252.078 458.375 253.948 458.047 255.92L456.926 262.662C456.078 267.761 452.298 271.878 447.289 273.157L440.667 274.848C438.73 275.343 436.933 276.276 435.415 277.576L430.222 282.02C426.295 285.381 420.753 286.105 416.094 283.866L409.934 280.905C408.132 280.039 406.156 279.598 404.157 279.618L397.323 279.685C392.154 279.735 387.443 276.727 385.313 272.017L382.498 265.789C381.675 263.968 380.444 262.36 378.9 261.09L373.622 256.748C369.63 253.464 367.954 248.132 369.351 243.155L371.197 236.574C371.737 234.65 371.828 232.627 371.461 230.662L370.209 223.943C369.262 218.861 371.406 213.7 375.675 210.785L381.319 206.931C382.97 205.803 384.339 204.312 385.322 202.571L388.681 196.619C391.222 192.117 396.182 189.542 401.326 190.053L408.127 190.728C410.116 190.926 412.124 190.664 413.996 189.962L420.395 187.562C425.235 185.746 430.691 186.961 434.303 190.66L439.078 195.549C440.475 196.979 442.182 198.068 444.067 198.734L450.511 201.008Z" fill="#948E53" fill-opacity="0.6"/>
<path d="M456.068 130.424C460.943 132.144 464.341 136.582 464.731 141.737L465.743 155.113C465.894 157.106 466.501 159.038 467.517 160.759L474.337 172.31C476.965 176.762 476.716 182.346 473.701 186.545L465.878 197.442C464.713 199.066 463.936 200.936 463.608 202.908L461.408 216.141C460.56 221.24 456.779 225.357 451.771 226.636L438.773 229.956C436.837 230.45 435.04 231.384 433.521 232.683L423.33 241.406C419.402 244.767 413.86 245.491 409.201 243.252L397.111 237.44C395.309 236.574 393.333 236.134 391.334 236.153L377.92 236.284C372.751 236.334 368.04 233.327 365.91 228.616L360.384 216.393C359.561 214.571 358.33 212.964 356.786 211.694L346.427 203.172C342.434 199.888 340.759 194.555 342.155 189.578L345.779 176.662C346.319 174.738 346.41 172.715 346.043 170.75L343.585 157.563C342.638 152.481 344.782 147.319 349.051 144.404L360.129 136.839C361.78 135.712 363.15 134.22 364.132 132.48L370.726 120.798C373.267 116.296 378.227 113.72 383.371 114.231L396.72 115.557C398.709 115.755 400.717 115.492 402.589 114.79L415.149 110.08C419.989 108.264 425.445 109.479 429.057 113.178L438.43 122.774C439.827 124.204 441.533 125.294 443.418 125.959L456.068 130.424Z" fill="#939453" fill-opacity="0.4"/>
<path d="M461.73 141.964L462.742 155.34C462.928 157.793 463.675 160.171 464.925 162.289L471.746 173.84C473.767 177.265 473.576 181.56 471.257 184.79L463.434 195.687C461.999 197.686 461.043 199.988 460.64 202.414L458.439 215.647C457.787 219.57 454.879 222.737 451.026 223.721L438.029 227.04C435.645 227.649 433.433 228.797 431.564 230.397L421.373 239.12C418.352 241.705 414.088 242.262 410.505 240.539L398.414 234.728C396.197 233.662 393.765 233.12 391.304 233.144L377.891 233.275C373.914 233.314 370.29 231 368.652 227.376L363.127 215.153C362.113 212.911 360.598 210.933 358.698 209.37L348.338 200.848C345.267 198.321 343.979 194.22 345.053 190.391L348.677 177.475C349.341 175.107 349.453 172.617 349.002 170.198L346.544 157.011C345.815 153.102 347.464 149.131 350.748 146.889L361.826 139.324C363.858 137.937 365.544 136.101 366.753 133.959L373.347 122.277C375.301 118.814 379.117 116.832 383.074 117.225L396.423 118.552C398.871 118.795 401.342 118.472 403.645 117.608L416.205 112.897C419.929 111.501 424.125 112.436 426.904 115.28L436.277 124.877C437.996 126.637 440.097 127.978 442.417 128.797L455.066 133.261C458.816 134.585 461.43 137.999 461.73 141.964Z" stroke="#6A653A" stroke-opacity="0.4" stroke-width="6.01862"/>
<path d="M266.229 21.5887C271.104 23.3093 274.502 27.747 274.892 32.9018L275.266 37.8476C275.417 39.8407 276.024 41.7726 277.04 43.4938L279.562 47.7648C282.19 52.2163 281.941 57.8001 278.926 61.9995L276.034 66.0287C274.868 67.6525 274.091 69.5226 273.764 71.4944L272.95 76.3871C272.102 81.4866 268.322 85.6037 263.313 86.8828L258.507 88.1101C256.571 88.6048 254.774 89.538 253.255 90.8377L249.487 94.0628C245.559 97.4241 240.017 98.1482 235.358 95.9085L230.888 93.7597C229.086 92.8937 227.11 92.4534 225.111 92.4729L220.151 92.5213C214.982 92.5717 210.271 89.5639 208.141 84.8534L206.098 80.3338C205.275 78.5124 204.044 76.9047 202.5 75.6348L198.67 72.4839C194.677 69.1998 193.002 63.8675 194.398 58.8902L195.738 54.1147C196.278 52.1901 196.369 50.1672 196.002 48.2022L195.094 43.3263C194.146 38.2443 196.29 33.0826 200.56 30.1675L204.656 27.3705C206.306 26.2433 207.676 24.7518 208.658 23.011L211.096 18.6916C213.637 14.1897 218.598 11.6138 223.742 12.1249L228.677 12.6152C230.667 12.8128 232.674 12.5505 234.546 11.8486L239.19 10.1068C244.03 8.29143 249.486 9.50664 253.098 13.2047L256.564 16.7529C257.961 18.1828 259.667 19.2726 261.552 19.9379L266.229 21.5887Z" fill="#939453" fill-opacity="0.4"/>
<path d="M271.891 33.1288L272.266 38.0746C272.451 40.5277 273.198 42.9054 274.449 45.0238L276.971 49.2948C278.993 52.7191 278.801 57.0143 276.482 60.2446L273.589 64.2738C272.155 66.2723 271.199 68.5739 270.795 71.0007L269.981 75.8935C269.329 79.8161 266.421 82.9831 262.568 83.9671L257.763 85.1944C255.379 85.8032 253.167 86.9518 251.298 88.5514L247.53 91.7765C244.509 94.3622 240.246 94.9191 236.662 93.1963L232.191 91.0475C229.974 89.9816 227.541 89.4398 225.081 89.4637L220.122 89.5121C216.145 89.5509 212.522 87.2372 210.884 83.6137L208.84 79.0942C207.827 76.8525 206.312 74.8737 204.412 73.3108L200.581 70.1598C197.51 67.6336 196.222 63.5318 197.296 59.7032L198.636 54.9277C199.3 52.559 199.412 50.0692 198.961 47.6507L198.052 42.7748C197.323 38.8656 198.973 34.8951 202.257 32.6527L206.353 29.8557C208.384 28.4684 210.07 26.6326 211.279 24.4902L213.717 20.1708C215.672 16.7078 219.487 14.7263 223.444 15.1194L228.38 15.6098C230.828 15.853 233.299 15.5302 235.603 14.6662L240.247 12.9244C243.97 11.528 248.167 12.4628 250.945 15.3075L254.411 18.8557C256.13 20.6156 258.231 21.9568 260.551 22.7756L265.228 24.4264C268.977 25.75 271.591 29.1636 271.891 33.1288Z" stroke="#6A653A" stroke-opacity="0.4" stroke-width="6.01862"/>
<path d="M256.419 28.9126C261.294 30.6332 264.692 35.0709 265.082 40.2257L265.128 40.8327C265.279 42.8259 265.886 44.7577 266.902 46.4789L267.212 47.0031C269.84 51.4546 269.59 57.0384 266.576 61.2378L266.221 61.7323C265.055 63.3561 264.278 65.2262 263.95 67.198L263.851 67.7985C263.003 72.8979 259.222 77.0151 254.214 78.2942L253.624 78.4449C251.687 78.9395 249.89 79.8727 248.371 81.1724L247.909 81.5682C243.981 84.9296 238.439 85.6536 233.78 83.414L233.231 83.1502C231.43 82.2842 229.453 81.844 227.455 81.8635L226.846 81.8694C221.677 81.9198 216.966 78.912 214.836 74.2015L214.585 73.6468C213.762 71.8254 212.531 70.2176 210.987 68.9478L210.517 68.5611C206.525 65.277 204.849 59.9446 206.246 54.9674L206.41 54.3813C206.95 52.4567 207.041 50.4338 206.674 48.4688L206.563 47.8703C205.616 42.7884 207.76 37.6266 212.029 34.7115L212.532 34.3682C214.182 33.2411 215.552 31.7495 216.534 30.0087L216.834 29.4786C219.375 24.9767 224.335 22.4008 229.479 22.9118L230.085 22.972C232.074 23.1696 234.082 22.9073 235.953 22.2054L236.523 21.9916C241.364 20.1762 246.819 21.3915 250.431 25.0896L250.857 25.525C252.254 26.955 253.96 28.0447 255.845 28.71L256.419 28.9126Z" fill="#948E53" fill-opacity="0.6"/>
<path d="M183.907 339.275C188.781 340.995 192.179 345.433 192.569 350.588L192.86 354.428C193.011 356.421 193.618 358.353 194.634 360.074L196.592 363.39C199.22 367.842 198.971 373.426 195.956 377.625L193.71 380.754C192.545 382.377 191.768 384.247 191.44 386.219L190.808 390.018C189.96 395.118 186.18 399.235 181.171 400.514L177.44 401.467C175.503 401.962 173.706 402.895 172.188 404.195L169.262 406.699C165.334 410.06 159.792 410.784 155.133 408.545L151.662 406.876C149.86 406.01 147.884 405.57 145.885 405.589L142.034 405.627C136.865 405.677 132.154 402.669 130.024 397.959L128.438 394.45C127.614 392.628 126.383 391.02 124.84 389.751L121.865 387.304C117.873 384.02 116.198 378.688 117.594 373.71L118.635 370.002C119.175 368.078 119.265 366.055 118.899 364.09L118.193 360.304C117.246 355.222 119.39 350.06 123.659 347.145L126.839 344.973C128.49 343.846 129.86 342.354 130.842 340.614L132.735 337.26C135.276 332.758 140.237 330.182 145.381 330.693L149.213 331.074C151.202 331.271 153.21 331.009 155.082 330.307L158.688 328.955C163.528 327.139 168.983 328.355 172.596 332.053L175.287 334.808C176.683 336.238 178.39 337.327 180.275 337.993L183.907 339.275Z" fill="#948E53" fill-opacity="0.6"/>
<path d="M295.291 54.1045C300.166 55.8251 303.564 60.2628 303.954 65.4175L304.146 67.9565C304.297 69.9497 304.904 71.8815 305.92 73.6028L307.215 75.7954C309.843 80.2468 309.593 85.8306 306.579 90.0301L305.094 92.0985C303.928 93.7223 303.151 95.5923 302.824 97.5641L302.406 100.076C301.558 105.175 297.778 109.292 292.769 110.572L290.302 111.202C288.365 111.696 286.568 112.63 285.049 113.929L283.115 115.585C279.188 118.946 273.645 119.67 268.986 117.431L266.691 116.327C264.89 115.461 262.913 115.021 260.914 115.041L258.368 115.066C253.199 115.116 248.488 112.108 246.359 107.398L245.31 105.077C244.486 103.256 243.255 101.648 241.712 100.378L239.745 98.7609C235.753 95.4768 234.077 90.1445 235.474 85.1672L236.162 82.7156C236.702 80.7911 236.792 78.7681 236.426 76.8031L235.959 74.3C235.012 69.218 237.156 64.0563 241.425 61.1412L243.528 59.7053C245.179 58.5782 246.548 57.0866 247.531 55.3458L248.782 53.1284C251.323 48.6265 256.284 46.0506 261.428 46.5617L263.962 46.8134C265.951 47.011 267.959 46.7487 269.83 46.0467L272.214 45.1526C277.055 43.3372 282.51 44.5524 286.122 48.2505L287.902 50.072C289.298 51.502 291.005 52.5917 292.89 53.257L295.291 54.1045Z" fill="#948E53" fill-opacity="0.6"/>
<path d="M306.533 45.6846C311.407 47.4052 314.805 51.843 315.195 56.9977L315.763 64.5065C315.914 66.4997 316.521 68.4315 317.538 70.1527L321.366 76.6371C323.994 81.0885 323.745 86.6723 320.73 90.8718L316.339 96.989C315.173 98.6128 314.396 100.483 314.069 102.455L312.833 109.883C311.985 114.982 308.205 119.099 303.196 120.379L295.9 122.242C293.964 122.737 292.167 123.67 290.648 124.969L284.927 129.866C281 133.227 275.457 133.951 270.798 131.712L264.011 128.449C262.21 127.583 260.233 127.143 258.235 127.162L250.705 127.236C245.535 127.286 240.824 124.278 238.695 119.568L235.593 112.706C234.77 110.885 233.538 109.277 231.995 108.007L226.179 103.223C222.187 99.9393 220.512 94.607 221.908 89.6297L223.943 82.3795C224.483 80.455 224.573 78.432 224.207 76.467L222.827 69.0643C221.879 63.9824 224.024 58.8206 228.293 55.9055L234.511 51.6592C236.162 50.532 237.532 49.0404 238.514 47.2996L242.216 40.7419C244.756 36.24 249.717 33.6641 254.861 34.1751L262.354 34.9195C264.343 35.1172 266.351 34.8549 268.223 34.1529L275.274 31.5085C280.114 29.6932 285.569 30.9084 289.182 34.6065L294.443 39.9934C295.84 41.4233 297.547 42.513 299.432 43.1783L306.533 45.6846Z" fill="#939453" fill-opacity="0.4"/>
<path d="M312.195 57.2247L312.763 64.7335C312.948 67.1866 313.695 69.5643 314.946 71.6827L318.775 78.1671C320.796 81.5913 320.605 85.8865 318.286 89.1168L313.894 95.234C312.46 97.2326 311.504 99.5341 311.1 101.961L309.865 109.389C309.213 113.312 306.305 116.479 302.452 117.463L295.156 119.326C292.772 119.935 290.56 121.084 288.691 122.683L282.97 127.58C279.949 130.165 275.686 130.722 272.102 128.999L265.315 125.737C263.098 124.671 260.665 124.129 258.205 124.153L250.675 124.227C246.699 124.265 243.075 121.952 241.437 118.328L238.335 111.467C237.322 109.225 235.806 107.246 233.907 105.683L228.091 100.899C225.02 98.3732 223.731 94.2714 224.806 90.4427L226.84 83.1925C227.505 80.8238 227.616 78.3341 227.165 75.9156L225.785 68.5129C225.056 64.6037 226.706 60.6331 229.99 58.3907L236.208 54.1444C238.24 52.7571 239.926 50.9213 241.135 48.7788L244.836 42.221C246.791 38.758 250.606 36.7766 254.564 37.1697L262.057 37.9141C264.505 38.1573 266.976 37.8345 269.28 36.9706L276.33 34.3262C280.054 32.9297 284.25 33.8645 287.029 36.7092L292.291 42.0961C294.01 43.856 296.11 45.1972 298.43 46.016L305.531 48.5224C309.281 49.8459 311.895 53.2595 312.195 57.2247Z" stroke="#6A653A" stroke-opacity="0.4" stroke-width="6.01862"/>
<path d="M379.322 403.082C384.196 404.803 387.594 409.24 387.984 414.395L388.22 417.513C388.371 419.506 388.978 421.438 389.994 423.159L391.584 425.852C394.212 430.303 393.963 435.887 390.948 440.087L389.125 442.627C387.959 444.25 387.182 446.12 386.855 448.092L386.342 451.177C385.494 456.276 381.713 460.393 376.705 461.673L373.675 462.446C371.738 462.941 369.941 463.874 368.423 465.174L366.047 467.207C362.12 470.568 356.577 471.292 351.918 469.053L349.1 467.698C347.298 466.832 345.322 466.392 343.323 466.411L340.196 466.442C335.027 466.492 330.316 463.484 328.187 458.774L326.899 455.925C326.075 454.103 324.844 452.495 323.3 451.226L320.886 449.239C316.893 445.955 315.218 440.623 316.615 435.645L317.459 432.635C317.999 430.71 318.09 428.687 317.723 426.722L317.15 423.648C316.203 418.566 318.347 413.405 322.616 410.49L325.199 408.726C326.849 407.599 328.219 406.108 329.201 404.367L330.738 401.644C333.279 397.142 338.24 394.566 343.384 395.077L346.495 395.386C348.484 395.584 350.492 395.321 352.364 394.62L355.292 393.521C360.132 391.706 365.588 392.921 369.2 396.619L371.385 398.856C372.781 400.286 374.488 401.376 376.373 402.041L379.322 403.082Z" fill="#939453" fill-opacity="0.4"/>
<path d="M384.984 414.622L385.22 417.74C385.405 420.193 386.152 422.571 387.403 424.689L388.993 427.382C391.015 430.806 390.823 435.101 388.504 438.332L386.68 440.872C385.246 442.87 384.29 445.172 383.886 447.599L383.373 450.683C382.721 454.606 379.813 457.773 375.96 458.757L372.93 459.531C370.547 460.139 368.335 461.288 366.466 462.888L364.09 464.921C361.069 467.506 356.806 468.063 353.222 466.341L350.404 464.986C348.187 463.92 345.754 463.378 343.294 463.402L340.167 463.433C336.191 463.471 332.567 461.158 330.929 457.534L329.641 454.685C328.627 452.443 327.112 450.464 325.212 448.902L322.797 446.915C319.726 444.389 318.438 440.287 319.512 436.458L320.357 433.448C321.021 431.079 321.133 428.589 320.682 426.171L320.109 423.097C319.38 419.188 321.029 415.217 324.313 412.975L326.896 411.212C328.927 409.824 330.613 407.988 331.822 405.846L333.359 403.123C335.314 399.66 339.129 397.678 343.086 398.072L346.198 398.381C348.646 398.624 351.117 398.301 353.421 397.437L356.348 396.339C360.072 394.943 364.268 395.877 367.047 398.722L369.232 400.959C370.951 402.719 373.051 404.06 375.371 404.879L378.32 405.92C382.07 407.243 384.684 410.657 384.984 414.622Z" stroke="#6A653A" stroke-opacity="0.4" stroke-width="6.01862"/>
<path d="M126.402 330.174C131.276 331.895 134.674 336.332 135.064 341.487L135.3 344.605C135.451 346.598 136.058 348.53 137.074 350.251L138.664 352.944C141.292 357.395 141.043 362.979 138.028 367.179L136.205 369.719C135.039 371.342 134.262 373.213 133.935 375.184L133.422 378.269C132.574 383.368 128.794 387.485 123.785 388.765L120.755 389.538C118.818 390.033 117.021 390.966 115.503 392.266L113.127 394.299C109.2 397.66 103.657 398.384 98.9983 396.145L96.1801 394.79C94.3786 393.924 92.4021 393.484 90.4033 393.503L87.2766 393.534C82.1073 393.584 77.3963 390.576 75.2668 385.866L73.9788 383.017C73.1554 381.195 71.9242 379.588 70.3806 378.318L67.9657 376.331C63.9735 373.047 62.2981 367.715 63.6946 362.738L64.5394 359.727C65.0794 357.802 65.1697 355.779 64.8034 353.814L64.2304 350.74C63.2832 345.659 65.4273 340.497 69.6964 337.582L72.2787 335.818C73.9295 334.691 75.299 333.2 76.2815 331.459L77.8184 328.736C80.3594 324.234 85.3198 321.658 90.4639 322.169L93.5755 322.478C95.5646 322.676 97.5725 322.414 99.444 321.712L102.372 320.614C107.212 318.798 112.668 320.013 116.28 323.711L118.465 325.948C119.861 327.378 121.568 328.468 123.453 329.133L126.402 330.174Z" fill="#939453" fill-opacity="0.4"/>
<path d="M132.064 341.714L132.3 344.832C132.485 347.285 133.232 349.663 134.483 351.781L136.073 354.474C138.095 357.898 137.903 362.193 135.584 365.424L133.76 367.964C132.326 369.962 131.37 372.264 130.966 374.691L130.453 377.775C129.801 381.698 126.893 384.865 123.04 385.849L120.011 386.623C117.627 387.231 115.415 388.38 113.546 389.98L111.17 392.013C108.149 394.598 103.886 395.155 100.302 393.433L97.4839 392.078C95.2666 391.012 92.834 390.47 90.3739 390.494L87.2472 390.525C83.2709 390.563 79.647 388.25 78.0089 384.626L76.7209 381.777C75.7075 379.535 74.1923 377.557 72.2923 375.994L69.8775 374.007C66.8065 371.481 65.5178 367.379 66.592 363.551L67.4368 360.54C68.1014 358.171 68.2126 355.681 67.7618 353.263L67.1888 350.189C66.4601 346.28 68.1094 342.309 71.3934 340.067L73.9757 338.304C76.0074 336.916 77.6929 335.081 78.9022 332.938L80.4391 330.215C82.3937 326.752 86.2094 324.771 90.1664 325.164L93.278 325.473C95.7261 325.716 98.1973 325.393 100.501 324.529L103.429 323.431C107.152 322.035 111.348 322.969 114.127 325.814L116.312 328.051C118.031 329.811 120.132 331.152 122.451 331.971L125.4 333.012C129.15 334.335 131.764 337.749 132.064 341.714Z" stroke="#6A653A" stroke-opacity="0.4" stroke-width="6.01862"/>
<path d="M167.785 62.4832C172.66 64.2038 176.058 68.6415 176.448 73.7963L176.782 78.2151C176.933 80.2083 177.54 82.1402 178.556 83.8614L180.81 87.6774C183.438 92.1289 183.188 97.7127 180.174 101.912L177.589 105.512C176.424 107.136 175.647 109.006 175.319 110.978L174.592 115.349C173.744 120.449 169.964 124.566 164.955 125.845L160.662 126.941C158.725 127.436 156.928 128.369 155.409 129.669L152.042 132.551C148.115 135.912 142.573 136.636 137.914 134.396L133.92 132.476C132.118 131.61 130.141 131.17 128.143 131.19L123.711 131.233C118.542 131.283 113.831 128.275 111.702 123.565L109.876 119.527C109.053 117.705 107.822 116.098 106.278 114.828L102.856 112.013C98.8633 108.728 97.1879 103.396 98.5845 98.4189L99.7817 94.1521C100.322 92.2276 100.412 90.2047 100.046 88.2396L99.2337 83.8832C98.2864 78.8012 100.431 73.6395 104.7 70.7244L108.359 68.2254C110.01 67.0982 111.38 65.6066 112.362 63.8659L114.54 60.0067C117.081 55.5048 122.042 52.9289 127.186 53.4399L131.596 53.878C133.585 54.0756 135.593 53.8133 137.464 53.1114L141.613 51.5552C146.454 49.7398 151.909 50.955 155.522 54.6531L158.618 57.8233C160.015 59.2532 161.721 60.3429 163.606 61.0082L167.785 62.4832Z" fill="#939453" fill-opacity="0.4"/>
<path d="M173.447 74.0233L173.782 78.4422C173.967 80.8953 174.714 83.273 175.965 85.3914L178.218 89.2074C180.24 92.6316 180.048 96.9268 177.729 100.157L175.145 103.757C173.71 105.756 172.754 108.057 172.351 110.484L171.624 114.856C170.971 118.778 168.064 121.945 164.211 122.929L159.917 124.026C157.533 124.635 155.321 125.783 153.452 127.383L150.086 130.264C147.065 132.85 142.801 133.407 139.217 131.684L135.223 129.764C133.006 128.698 130.573 128.156 128.113 128.18L123.682 128.224C119.706 128.262 116.082 125.949 114.444 122.325L112.618 118.287C111.605 116.045 110.09 114.067 108.19 112.504L104.767 109.689C101.696 107.162 100.408 103.061 101.482 99.2319L102.679 94.9651C103.344 92.5964 103.455 90.1067 103.004 87.6882L102.192 83.3317C101.463 79.4225 103.113 75.452 106.397 73.2096L110.056 70.7106C112.088 69.3233 113.774 67.4875 114.983 65.3451L117.161 61.4858C119.116 58.0228 122.931 56.0414 126.888 56.4345L131.298 56.8726C133.746 57.1158 136.218 56.793 138.521 55.929L142.67 54.3728C146.394 52.9764 150.59 53.9111 153.369 56.7558L156.465 59.926C158.184 61.6859 160.285 63.0271 162.605 63.8459L166.784 65.3209C170.533 66.6445 173.147 70.0581 173.447 74.0233Z" stroke="#6A653A" stroke-opacity="0.4" stroke-width="6.01862"/>
<path d="M158.263 69.7743C163.138 71.4949 166.536 75.9326 166.926 81.0874L166.943 81.3064C167.093 83.2996 167.7 85.2314 168.717 86.9526L168.828 87.1418C171.457 91.5932 171.207 97.177 168.192 101.376L168.064 101.555C166.899 103.179 166.122 105.049 165.794 107.02L165.758 107.237C164.91 112.337 161.13 116.454 156.121 117.733L155.908 117.787C153.972 118.282 152.175 119.215 150.656 120.515L150.489 120.658C146.562 124.019 141.019 124.743 136.36 122.503L136.162 122.408C134.361 121.542 132.384 121.102 130.385 121.121L130.166 121.124C124.997 121.174 120.286 118.166 118.156 113.456L118.066 113.255C117.242 111.434 116.011 109.826 114.467 108.557L114.298 108.417C110.306 105.133 108.63 99.8006 110.027 94.8233L110.086 94.6118C110.626 92.6873 110.716 90.6644 110.35 88.6993L110.31 88.4834C109.363 83.4015 111.507 78.2397 115.776 75.3246L115.957 75.2008C117.608 74.0736 118.977 72.582 119.96 70.8413L120.068 70.65C122.609 66.1481 127.569 63.5722 132.713 64.0833L132.932 64.105C134.921 64.3026 136.929 64.0403 138.801 63.3383L139.006 63.2612C143.846 61.4458 149.302 62.6611 152.914 66.3591L153.068 66.5163C154.464 67.9462 156.171 69.0359 158.056 69.7012L158.263 69.7743Z" fill="#948E53" fill-opacity="0.6"/>
<path d="M221.143 63.6925C226.017 65.4131 229.415 69.8508 229.805 75.0056L230.679 86.554C230.83 88.5472 231.437 90.479 232.453 92.2002L238.341 102.173C240.97 106.625 240.72 112.208 237.706 116.408L230.952 125.816C229.786 127.44 229.009 129.31 228.681 131.282L226.782 142.706C225.934 147.806 222.154 151.923 217.145 153.202L205.924 156.068C203.987 156.562 202.19 157.495 200.671 158.795L191.872 166.326C187.945 169.687 182.403 170.411 177.744 168.171L167.305 163.154C165.504 162.288 163.527 161.848 161.529 161.867L149.948 161.98C144.779 162.031 140.068 159.023 137.938 154.312L133.167 143.759C132.344 141.938 131.113 140.33 129.569 139.06L120.625 131.703C116.633 128.418 114.957 123.086 116.354 118.109L119.483 106.958C120.023 105.034 120.113 103.011 119.747 101.046L117.625 89.6603C116.677 84.5784 118.821 79.4167 123.091 76.5015L132.655 69.9707C134.306 68.8435 135.675 67.3519 136.658 65.6112L142.35 55.5254C144.891 51.0235 149.852 48.4476 154.996 48.9587L166.52 50.1036C168.509 50.3012 170.517 50.0389 172.389 49.337L183.233 45.2699C188.073 43.4546 193.529 44.6698 197.141 48.3679L205.233 56.6528C206.63 58.0828 208.337 59.1725 210.222 59.8378L221.143 63.6925Z" fill="#939453" fill-opacity="0.4"/>
<path d="M226.805 75.2326L227.678 86.781C227.864 89.2341 228.611 91.6118 229.862 93.7302L235.75 103.703C237.772 107.127 237.58 111.422 235.261 114.653L228.507 124.061C227.073 126.06 226.116 128.361 225.713 130.788L223.813 142.212C223.161 146.135 220.253 149.302 216.4 150.286L205.179 153.152C202.795 153.761 200.584 154.909 198.714 156.509L189.916 164.039C186.895 166.625 182.631 167.182 179.047 165.459L168.609 160.442C166.392 159.376 163.959 158.834 161.499 158.858L149.918 158.971C145.942 159.01 142.318 156.696 140.68 153.073L135.909 142.519C134.896 140.278 133.381 138.299 131.481 136.736L122.537 129.379C119.466 126.852 118.177 122.751 119.251 118.922L122.38 107.771C123.045 105.402 123.156 102.913 122.705 100.494L120.583 89.1089C119.854 85.1997 121.504 81.2291 124.787 78.9867L134.352 72.4559C136.384 71.0686 138.069 69.2328 139.278 67.0904L144.971 57.0046C146.925 53.5416 150.741 51.5601 154.698 51.9532L166.223 53.0982C168.671 53.3414 171.142 53.0185 173.446 52.1546L184.289 48.0876C188.013 46.6911 192.209 47.6259 194.988 50.4706L203.08 58.7556C204.799 60.5155 206.9 61.8567 209.22 62.6755L220.141 66.5302C223.891 67.8538 226.505 71.2674 226.805 75.2326Z" stroke="#6A653A" stroke-opacity="0.4" stroke-width="6.01862"/>
<path d="M473.351 183.518C478.226 185.239 481.624 189.677 482.014 194.831L483.292 211.72C483.442 213.713 484.049 215.645 485.066 217.366L493.677 231.951C496.305 236.403 496.056 241.986 493.041 246.186L483.164 259.945C481.998 261.569 481.222 263.439 480.894 265.41L478.115 282.118C477.267 287.218 473.487 291.335 468.478 292.614L452.068 296.805C450.131 297.3 448.334 298.233 446.816 299.532L433.948 310.546C430.02 313.907 424.478 314.631 419.819 312.391L404.554 305.053C402.752 304.187 400.776 303.747 398.777 303.767L381.841 303.932C376.672 303.982 371.961 300.974 369.831 296.264L362.854 280.831C362.031 279.009 360.8 277.401 359.256 276.132L346.176 265.372C342.183 262.088 340.508 256.755 341.905 251.778L346.48 235.471C347.02 233.546 347.111 231.523 346.744 229.558L343.641 212.908C342.693 207.826 344.837 202.664 349.107 199.749L363.094 190.198C364.745 189.071 366.114 187.579 367.097 185.838L375.422 171.089C377.963 166.587 382.923 164.011 388.067 164.522L404.921 166.196C406.911 166.394 408.918 166.131 410.79 165.43L426.648 159.482C431.489 157.666 436.944 158.882 440.556 162.58L452.391 174.696C453.788 176.126 455.495 177.216 457.38 177.881L473.351 183.518Z" fill="#939453" fill-opacity="0.4"/>
<path d="M479.013 195.058L480.291 211.947C480.476 214.4 481.224 216.778 482.474 218.896L491.086 233.481C493.107 236.905 492.916 241.201 490.597 244.431L480.719 258.19C479.285 260.188 478.329 262.49 477.925 264.917L475.147 281.625C474.495 285.547 471.587 288.714 467.734 289.698L451.323 293.889C448.94 294.498 446.728 295.647 444.859 297.246L431.991 308.259C428.97 310.845 424.707 311.402 421.123 309.679L405.858 302.341C403.64 301.275 401.208 300.733 398.748 300.757L381.811 300.923C377.835 300.961 374.211 298.648 372.573 295.024L365.596 279.591C364.583 277.349 363.068 275.37 361.168 273.808L348.087 263.048C345.016 260.521 343.728 256.42 344.802 252.591L349.378 236.284C350.042 233.915 350.153 231.425 349.703 229.007L346.599 212.356C345.87 208.447 347.52 204.477 350.804 202.234L364.791 192.683C366.823 191.296 368.508 189.46 369.717 187.318L378.042 172.568C379.997 169.105 383.813 167.123 387.77 167.516L404.624 169.191C407.072 169.434 409.543 169.111 411.847 168.247L427.705 162.299C431.428 160.903 435.625 161.838 438.404 164.682L450.238 176.799C451.957 178.559 454.058 179.9 456.378 180.719L472.349 186.356C476.099 187.68 478.713 191.093 479.013 195.058Z" stroke="#6A653A" stroke-opacity="0.4" stroke-width="6.01862"/>
<path d="M430.183 397.618C435.057 399.338 438.456 403.776 438.846 408.931L439.083 412.073C439.234 414.066 439.841 415.998 440.857 417.719L442.459 420.432C445.088 424.884 444.838 430.468 441.824 434.667L439.986 437.227C438.82 438.851 438.044 440.721 437.716 442.692L437.199 445.801C436.351 450.9 432.571 455.017 427.562 456.297L424.509 457.076C422.572 457.571 420.775 458.504 419.256 459.804L416.863 461.853C412.935 465.214 407.393 465.938 402.734 463.698L399.894 462.333C398.092 461.467 396.116 461.027 394.117 461.046L390.966 461.077C385.797 461.128 381.086 458.12 378.956 453.409L377.658 450.538C376.835 448.717 375.604 447.109 374.06 445.839L371.627 443.837C367.634 440.553 365.959 435.221 367.356 430.244L368.207 427.21C368.747 425.285 368.837 423.262 368.471 421.297L367.893 418.2C366.946 413.118 369.09 407.956 373.359 405.041L375.962 403.264C377.612 402.137 378.982 400.645 379.964 398.904L381.513 396.16C384.054 391.658 389.015 389.083 394.159 389.594L397.294 389.905C399.283 390.103 401.291 389.84 403.163 389.138L406.113 388.032C410.953 386.217 416.409 387.432 420.021 391.13L422.223 393.384C423.62 394.814 425.326 395.904 427.211 396.569L430.183 397.618Z" fill="#948E53" fill-opacity="0.6"/>
<path d="M449.113 383.587C453.633 385.355 456.798 389.488 457.326 394.313L458.646 406.373C458.832 408.067 459.347 409.708 460.164 411.204L465.979 421.853C468.305 426.113 468.073 431.312 465.376 435.348L458.635 445.436C457.688 446.853 457.028 448.441 456.693 450.112L454.302 462.007C453.346 466.766 449.826 470.6 445.166 471.958L433.518 475.352C431.882 475.829 430.355 476.622 429.024 477.686L419.547 485.262C415.756 488.292 410.595 488.966 406.152 487.011L395.047 482.124C393.487 481.438 391.808 481.064 390.104 481.023L377.975 480.735C373.123 480.62 368.736 477.819 366.589 473.465L361.223 462.584C360.47 461.055 359.424 459.689 358.145 458.563L349.039 450.546C345.396 447.338 343.835 442.373 344.989 437.658L347.874 425.873C348.279 424.218 348.356 422.499 348.1 420.815L346.277 408.819C345.548 404.021 347.545 399.214 351.459 396.344L361.244 389.17C362.619 388.163 363.782 386.896 364.669 385.44L370.983 375.08C373.51 370.936 378.129 368.537 382.972 368.855L395.079 369.649C396.779 369.76 398.485 369.537 400.1 368.993L411.596 365.115C416.196 363.564 421.276 364.696 424.782 368.052L433.546 376.443C434.777 377.621 436.227 378.547 437.814 379.168L449.113 383.587Z" fill="#939453" fill-opacity="0.4"/>
<path d="M454.334 394.64L455.655 406.701C455.883 408.786 456.518 410.806 457.523 412.646L463.338 423.295C465.127 426.572 464.949 430.572 462.874 433.676L456.133 443.764C454.968 445.508 454.156 447.463 453.742 449.519L451.352 461.414C450.617 465.075 447.909 468.024 444.324 469.068L432.676 472.463C430.662 473.05 428.783 474.026 427.145 475.335L417.668 482.911C414.752 485.242 410.782 485.761 407.364 484.257L396.259 479.37C394.339 478.525 392.273 478.065 390.176 478.015L378.047 477.727C374.314 477.638 370.939 475.483 369.288 472.135L363.923 461.253C362.995 459.372 361.708 457.691 360.134 456.305L351.027 448.287C348.225 445.82 347.025 442 347.912 438.374L350.797 426.589C351.295 424.551 351.39 422.436 351.075 420.363L349.253 408.367C348.692 404.676 350.228 400.979 353.239 398.771L363.024 391.597C364.715 390.357 366.147 388.797 367.239 387.007L373.553 376.646C375.496 373.458 379.049 371.613 382.775 371.857L394.882 372.652C396.975 372.789 399.074 372.515 401.062 371.844L412.558 367.967C416.096 366.773 420.004 367.644 422.701 370.226L431.465 378.616C432.98 380.067 434.764 381.206 436.718 381.97L448.017 386.39C451.494 387.75 453.928 390.928 454.334 394.64Z" stroke="#6A653A" stroke-opacity="0.4" stroke-width="6.01862"/>
<path d="M203.384 324.288C208.259 326.009 211.657 330.447 212.047 335.601L212.894 346.799C213.045 348.792 213.652 350.724 214.668 352.445L220.377 362.114C223.006 366.566 222.756 372.15 219.742 376.349L213.193 385.471C212.028 387.095 211.251 388.965 210.923 390.937L209.081 402.014C208.233 407.113 204.453 411.23 199.444 412.509L188.564 415.288C186.627 415.783 184.83 416.716 183.312 418.016L174.781 425.317C170.853 428.678 165.311 429.402 160.652 427.163L150.531 422.298C148.73 421.432 146.753 420.992 144.754 421.011L133.526 421.121C128.357 421.171 123.646 418.163 121.516 413.453L116.89 403.221C116.067 401.399 114.836 399.791 113.292 398.522L104.62 391.388C100.628 388.104 98.9525 382.772 100.349 377.794L103.383 366.983C103.923 365.058 104.013 363.035 103.647 361.07L101.589 350.031C100.642 344.949 102.786 339.787 107.055 336.872L116.328 330.54C117.979 329.413 119.349 327.921 120.331 326.181L125.851 316.402C128.392 311.9 133.352 309.324 138.496 309.835L149.67 310.945C151.659 311.143 153.667 310.88 155.539 310.178L166.053 306.235C170.893 304.42 176.349 305.635 179.961 309.333L187.807 317.366C189.204 318.796 190.911 319.886 192.795 320.551L203.384 324.288Z" fill="#939453" fill-opacity="0.4"/>
<path d="M209.046 335.829L209.894 347.026C210.079 349.479 210.826 351.856 212.077 353.975L217.786 363.644C219.808 367.069 219.616 371.364 217.297 374.594L210.749 383.716C209.314 385.715 208.358 388.016 207.954 390.443L206.112 401.52C205.46 405.443 202.552 408.61 198.699 409.594L187.82 412.372C185.436 412.981 183.224 414.13 181.355 415.729L172.824 423.031C169.803 425.616 165.539 426.173 161.955 424.451L151.835 419.586C149.618 418.52 147.185 417.978 144.725 418.002L133.496 418.111C129.52 418.15 125.896 415.837 124.258 412.213L119.632 401.981C118.619 399.739 117.104 397.76 115.204 396.198L106.532 389.064C103.461 386.538 102.172 382.436 103.246 378.607L106.28 367.796C106.945 365.427 107.056 362.937 106.605 360.519L104.547 349.48C103.819 345.571 105.468 341.6 108.752 339.358L118.025 333.025C120.057 331.638 121.743 329.802 122.952 327.66L128.471 317.881C130.426 314.418 134.242 312.436 138.199 312.83L149.373 313.94C151.821 314.183 154.292 313.86 156.596 312.996L167.11 309.053C170.833 307.656 175.029 308.591 177.808 311.436L185.654 319.469C187.373 321.229 189.474 322.57 191.794 323.389L202.383 327.126C206.133 328.45 208.746 331.863 209.046 335.829Z" stroke="#6A653A" stroke-opacity="0.4" stroke-width="6.01862"/>
<path d="M280.286 188.965C285.16 190.686 288.558 195.124 288.948 200.278L290.67 223.027C290.82 225.021 291.427 226.952 292.444 228.674L304.043 248.319C306.671 252.77 306.422 258.354 303.407 262.554L290.103 281.086C288.937 282.71 288.16 284.58 287.832 286.552L284.09 309.057C283.242 314.156 279.462 318.273 274.453 319.553L252.349 325.198C250.412 325.692 248.615 326.626 247.096 327.925L229.764 342.76C225.836 346.121 220.294 346.845 215.635 344.605L195.073 334.721C193.272 333.855 191.295 333.415 189.296 333.435L166.484 333.657C161.314 333.708 156.603 330.7 154.474 325.989L145.076 305.201C144.253 303.38 143.022 301.772 141.478 300.502L123.859 286.009C119.867 282.725 118.192 277.392 119.588 272.415L125.751 250.449C126.291 248.525 126.382 246.502 126.015 244.537L121.835 222.109C120.888 217.027 123.032 211.866 127.301 208.951L146.141 196.086C147.792 194.958 149.162 193.467 150.144 191.726L161.358 171.858C163.899 167.357 168.859 164.781 174.003 165.292L196.706 167.547C198.695 167.745 200.703 167.482 202.574 166.78L223.935 158.769C228.775 156.953 234.231 158.169 237.843 161.867L253.784 178.187C255.181 179.617 256.888 180.707 258.772 181.372L280.286 188.965Z" fill="#939453" fill-opacity="0.4"/>
<path d="M322.985 156.268C327.86 157.989 331.258 162.427 331.648 167.581L334.794 209.163C334.945 211.156 335.552 213.088 336.568 214.809L357.77 250.718C360.398 255.17 360.149 260.753 357.134 264.953L332.816 298.828C331.65 300.452 330.873 302.322 330.545 304.294L323.705 345.43C322.857 350.529 319.077 354.646 314.068 355.926L273.664 366.244C271.727 366.739 269.93 367.672 268.412 368.972L236.73 396.087C232.803 399.448 227.261 400.172 222.601 397.932L185.018 379.866C183.216 379 181.24 378.56 179.241 378.579L137.542 378.986C132.373 379.036 127.662 376.029 125.532 371.318L108.354 333.32C107.531 331.499 106.3 329.891 104.756 328.621L72.5518 302.129C68.5595 298.845 66.8841 293.513 68.2807 288.536L79.5463 248.385C80.0863 246.461 80.1767 244.438 79.8104 242.473L72.1689 201.478C71.2216 196.397 73.3658 191.235 77.6349 188.32L112.073 164.804C113.724 163.677 115.093 162.186 116.076 160.445L136.573 124.129C139.114 119.628 144.074 117.052 149.218 117.563L190.714 121.685C192.704 121.883 194.711 121.621 196.583 120.919L235.628 106.275C240.468 104.459 245.924 105.674 249.536 109.372L278.674 139.204C280.071 140.634 281.777 141.724 283.662 142.389L322.985 156.268Z" fill="#939453" fill-opacity="0.4"/>
<path d="M328.647 167.808L331.793 209.39C331.979 211.843 332.726 214.221 333.977 216.339L355.178 252.248C357.2 255.672 357.008 259.968 354.689 263.198L330.371 297.074C328.936 299.072 327.98 301.374 327.577 303.8L320.736 344.936C320.084 348.859 317.176 352.026 313.323 353.01L272.92 363.329C270.536 363.937 268.324 365.086 266.455 366.686L234.774 393.801C231.752 396.386 227.489 396.943 223.905 395.22L186.321 377.154C184.104 376.088 181.671 375.546 179.211 375.57L137.513 375.977C133.536 376.016 129.913 373.702 128.275 370.078L111.097 332.08C110.083 329.839 108.568 327.86 106.668 326.297L74.4636 299.805C71.3926 297.279 70.1038 293.177 71.1781 289.349L82.4437 249.198C83.1084 246.83 83.2196 244.34 82.7687 241.922L75.1273 200.927C74.3986 197.018 76.0479 193.047 79.3319 190.805L113.77 167.29C115.802 165.902 117.487 164.066 118.696 161.924L139.193 125.609C141.148 122.146 144.964 120.164 148.921 120.557L190.417 124.68C192.865 124.923 195.336 124.6 197.64 123.736L236.685 109.092C240.408 107.696 244.604 108.631 247.383 111.475L276.521 141.307C278.24 143.067 280.341 144.408 282.661 145.227L321.984 159.106C325.734 160.43 328.347 163.843 328.647 167.808Z" stroke="#6A653A" stroke-opacity="0.4" stroke-width="6.01862"/>
</g>
<defs>
<clipPath id="clip0_388_15">
<rect width="500" height="500" fill="white" transform="translate(0.824219 0.706055)"/>
</clipPath>
</defs>
</svg>
