<svg width="1000" height="1001" viewBox="0 0 1000 1001" fill="none" xmlns="http://www.w3.org/2000/svg">
<path d="M529.972 167.932C501.961 188.572 480.694 215.314 469.888 243.253C459.242 270.778 457.42 304.14 477.272 331.082C497.124 358.023 529.528 366.166 558.971 364.152C588.858 362.108 620.699 349.717 648.71 329.077C676.722 308.437 697.988 281.696 708.794 253.756C719.44 226.231 721.262 192.869 701.41 165.928C681.558 138.986 649.155 130.843 619.712 132.857C589.825 134.902 557.983 147.292 529.972 167.932Z" fill="#B091B6" stroke="#876E8C" stroke-width="63.2347"/>
<path d="M534.463 85.261L506.926 100.44L534.463 85.2609C520.04 59.0943 482.433 59.0939 468.009 85.2611L388.594 229.331L230.567 183.613C201.865 175.309 175.273 201.901 183.577 230.603L229.295 388.631L85.2249 468.045L100.404 495.582L85.2248 468.045C59.0582 482.469 59.0577 520.076 85.2249 534.5L229.295 613.914L183.577 771.942C175.273 800.644 201.865 827.236 230.567 818.932L221.78 788.56L230.567 818.932L388.594 773.214L468.009 917.284C482.433 943.451 520.039 943.451 534.463 917.284L613.878 773.214L771.906 818.932L780.692 788.56L771.906 818.932C800.608 827.236 827.199 800.644 818.896 771.942L788.524 780.729L818.896 771.942L773.178 613.914L917.248 534.5C943.414 520.076 943.415 482.469 917.248 468.045L773.178 388.631L818.896 230.603L788.524 221.816L818.896 230.603C827.199 201.901 800.608 175.309 771.906 183.613L613.878 229.331L534.463 85.261ZM523.388 115.787C523.382 115.797 523.376 115.808 523.37 115.819L523.388 115.787L511.608 109.294L523.388 115.787ZM115.751 479.121C115.761 479.127 115.772 479.133 115.782 479.138L115.751 479.121L109.258 490.9L115.751 479.121ZM594.457 767.595L594.493 767.606C594.481 767.602 594.469 767.599 594.457 767.595L594.457 767.595Z" fill="#B69F72" stroke="#A28D6E" stroke-width="63.2347"/>
<path d="M305.62 571.979C340.415 571.979 373.399 563.065 398.672 546.982C423.57 531.138 444.827 505.361 444.827 471.896C444.827 438.43 423.57 412.653 398.672 396.809C373.399 380.726 340.415 371.812 305.62 371.812C270.826 371.812 237.842 380.726 212.569 396.809C187.671 412.653 166.414 438.43 166.414 471.896C166.414 505.361 187.671 531.138 212.569 546.982C237.842 563.065 270.826 571.979 305.62 571.979Z" fill="#B091B6" stroke="#876E8C" stroke-width="63.2347"/>
<path d="M554.956 655.704C545.95 622.095 528.804 592.542 506.728 572.293C484.979 552.344 454.579 538.483 422.254 547.144C389.928 555.806 370.531 583.01 361.671 611.161C352.677 639.735 352.605 673.902 361.61 707.511C370.615 741.12 387.762 770.673 409.838 790.922C431.586 810.871 461.987 824.732 494.312 816.071C526.638 807.409 546.035 780.205 554.895 752.055C563.889 723.48 563.961 689.313 554.956 655.704Z" fill="#B091B6" stroke="#876E8C" stroke-width="63.2347"/>
<path d="M239.97 356.281L212.958 372.599C197.509 347.024 216.312 314.456 246.185 315.048L359.749 317.298L386.967 207.022L417.003 214.435L386.967 207.022C394.127 178.014 430.452 168.28 451.157 189.822L529.867 271.715L627.09 212.984C652.665 197.535 685.234 216.338 684.642 246.212L682.391 359.775L792.667 386.993M239.97 356.281L792.667 386.993M239.97 356.281L212.958 372.599L271.689 469.822L189.796 548.532C168.254 569.237 177.987 605.563 206.996 612.722M239.97 356.281L206.996 612.722M792.667 386.993C821.676 394.153 831.409 430.479 809.867 451.183L727.974 529.893L786.705 627.117C802.154 652.691 783.351 685.26 753.478 684.668L639.914 682.417L612.696 792.694C605.536 821.702 569.211 831.436 548.506 809.893L469.796 728L372.572 786.731C346.998 802.18 314.429 783.377 315.021 753.504L317.272 639.941L206.996 612.722M792.667 386.993L206.996 612.722M336.9 644.785C336.885 644.781 336.869 644.777 336.853 644.773L336.9 644.785ZM455.786 713.424L455.815 713.454C455.805 713.444 455.796 713.434 455.786 713.424ZM713.397 543.903L713.433 543.869C713.421 543.881 713.409 543.892 713.397 543.903ZM621.419 244.959L621.419 244.995C621.419 244.983 621.419 244.971 621.419 244.959L634.867 245.225L621.419 244.959ZM244.932 378.27L245.199 364.822L244.932 378.27L244.968 378.271C244.956 378.27 244.944 378.27 244.932 378.27Z" fill="#B69F72" stroke="#A28D6E" stroke-width="63.2347"/>
</svg>
