<svg width="500" height="501" viewBox="0 0 500 501" fill="none" xmlns="http://www.w3.org/2000/svg">
<g clip-path="url(#clip0_524_1208)">
<path d="M250.221 15.6514L288.635 119.908L377.316 52.9696L353.266 161.444L464.059 153.076L385.181 231.328L482.91 284.188L374.247 307.373L427.884 404.677L323.936 365.435L316.451 476.291L250.221 387.079L183.992 476.291L176.507 365.435L72.5592 404.677L126.196 307.373L17.5334 284.188L115.262 231.328L36.3844 153.076L147.177 161.444L123.127 52.9696L211.808 119.908L250.221 15.6514Z" fill="#B09F74"/>
<path d="M290.462 41.2017L306.855 140.706L397.359 96.2213L357.353 188.793L457.541 200.299L373.838 256.547L451.9 320.392L351.075 322.457L382.227 418.371L296.291 365.598L270.643 463.128L226.881 372.272L152.576 440.453L164.881 340.361L65.51 357.546L129.976 279.996L37.0884 240.729L133.247 210.342L76.335 127.09L173.657 153.514L170.789 52.7091L238.376 127.555L290.462 41.2017Z" fill="#B09F74"/>
<path d="M250.221 113.849L275.506 182.474L333.878 138.413L318.048 209.814L390.975 204.306L339.055 255.814L403.383 290.607L331.858 305.868L367.163 369.917L298.742 344.086L293.816 417.055L250.221 358.333L206.627 417.055L201.7 344.086L133.279 369.917L168.584 305.868L97.0594 290.607L161.387 255.814L109.468 204.306L182.395 209.814L166.564 138.413L224.936 182.474L250.221 113.849Z" fill="#B5A478"/>
<path d="M290.269 101.277L296.931 174.108L364.718 146.656L330.947 211.527L402.814 225.082L339.333 261.396L392.463 311.654L319.426 307.883L336.951 378.887L277.547 336.227L253.902 405.435L226.992 337.431L169.685 382.868L183.811 311.111L111.036 318.353L161.715 265.624L96.5777 232.371L167.719 215.413L130.9 152.222L199.916 176.417L203.105 103.352L248.084 161.02L290.269 101.277Z" fill="#B5A478"/>
</g>
<defs>
<clipPath id="clip0_524_1208">
<rect width="500" height="500" fill="white" transform="translate(0 0.520508)"/>
</clipPath>
</defs>
</svg>
