<svg width="501" height="501" viewBox="0 0 501 501" fill="none" xmlns="http://www.w3.org/2000/svg">
<path d="M146.414 319.9L142.874 312.158C141.845 309.908 142.116 307.277 143.582 305.284C146.084 301.883 144.924 297.048 141.151 295.153L128.582 288.837C126.695 287.89 125.29 286.197 124.705 284.168L121.936 274.554C121.334 272.464 119.863 270.735 117.897 269.805L115.804 268.815C114.513 268.205 113.421 267.242 112.654 266.038L109.048 260.376C107.81 258.432 107.525 256.031 108.272 253.851L111.081 245.667C111.227 245.241 111.412 244.828 111.631 244.434L120.617 228.339C120.864 227.896 121.155 227.479 121.486 227.095L134.861 211.533C136.223 209.948 136.869 207.872 136.648 205.795L136.624 205.573C136.147 201.099 139.653 197.199 144.152 197.199H160.162H174.475C179.884 197.199 183.548 191.691 181.457 186.703L179.704 182.52C179.316 181.593 179.116 180.598 179.116 179.594V159.502C179.116 157.614 178.411 155.794 177.139 154.4L173.831 150.774C171.491 148.209 171.196 144.38 173.116 141.487L178.648 133.148C178.959 132.679 179.322 132.246 179.729 131.858L193.125 119.07C194.906 117.37 197.401 116.632 199.799 117.186C208.018 119.088 221.362 122.898 229.662 127.787C241.877 134.982 243.562 141.754 246.931 152.758C250.301 163.763 250.301 145.14 252.407 141.754C253.904 139.348 259.72 135.428 263.363 133.198C264.192 132.691 265.117 132.37 266.078 132.228L290.239 128.667C293.734 128.152 297.13 130.119 298.279 133.459C300.474 139.845 302.953 148.232 302.953 152.758C302.953 157.734 310.812 157.971 316.907 157.199C319.275 156.899 321.703 157.49 323.503 159.057L330.681 165.309C332.332 166.747 333.28 168.829 333.28 171.018V192.923C333.28 195.577 334.669 198.037 336.942 199.407L338.948 200.616C339.38 200.877 339.838 201.094 340.314 201.264L351.704 205.325C352.336 205.55 352.935 205.858 353.485 206.241L367.263 215.825C368.451 216.652 369.394 217.796 369.867 219.165C371.784 224.715 373.528 233.584 369.083 236.561C364.873 239.382 371.671 242.398 377.549 244.142C379.647 244.765 381.465 246.136 382.49 248.07L389.803 261.877C392.238 266.475 389.418 272.102 384.278 272.902L368.671 275.331C366.283 275.703 364.216 277.193 363.108 279.34L360.699 284.009C359.612 286.114 359.574 288.606 360.595 290.744L367.598 305.405C368.542 307.379 368.584 309.666 367.715 311.674L365.589 316.589C365.117 317.679 364.395 318.644 363.481 319.403L357.338 324.512C354.604 326.785 350.656 326.85 347.849 324.666L341.649 319.843C340.32 318.809 338.684 318.248 337 318.248H320.498C315.13 318.248 311.467 323.679 313.479 328.656L313.561 328.86C314.32 330.736 314.296 332.837 313.494 334.695L309.89 343.054C309.482 344.001 309.271 345.021 309.271 346.052V350.038C309.271 350.848 309.143 351.651 308.882 352.418C307.581 356.237 305.074 363.2 302.953 367.767C300.594 372.846 293.546 377.784 290.316 379.618L282.852 382.763C279.584 384.141 275.805 383.062 273.689 380.215C267.61 372.035 259.105 361.419 256.619 361.419H244.107C241.198 361.419 238.547 363.085 237.286 365.705L235.72 368.956C234.156 372.204 230.52 373.898 227.027 373.007L211.076 368.936C208.273 368.221 205.307 369.166 203.434 371.37L194.43 381.969C192.761 383.933 190.213 384.917 187.662 384.556C178.467 383.253 164.501 381.072 160.162 379.618C155.362 378.011 146.384 367.88 141.885 362.272C141.43 361.706 141.071 361.079 140.807 360.403C139.03 355.844 136.043 347.625 135.731 344.489C135.459 341.756 141.022 333.694 145.467 327.866C147.212 325.578 147.611 322.517 146.414 319.9Z" fill="#939453" fill-opacity="0.4"/>
<path d="M179.469 296.104L177.709 292.263C177.011 290.742 177.195 288.961 178.188 287.614C179.882 285.316 179.098 282.047 176.546 280.768L168.98 276.975C167.092 276.029 165.685 274.337 165.099 272.307L163.786 267.763C163.209 265.763 161.799 264.108 159.917 263.22C158.681 262.637 157.636 261.717 156.901 260.566L155.426 258.255C154.183 256.309 153.897 253.902 154.648 251.719L156.092 247.519C156.239 247.092 156.424 246.678 156.645 246.284L162.505 235.811C162.753 235.368 163.045 234.951 163.376 234.567L172.25 224.266C173.191 223.174 173.637 221.742 173.484 220.31C173.155 217.229 175.569 214.543 178.667 214.543H189.423H196.433C201.374 214.543 204.72 209.509 202.806 204.954C202.45 204.106 202.267 203.196 202.267 202.277V190.013C202.267 188.122 201.559 186.3 200.283 184.904L199.984 184.577C197.636 182.009 197.34 178.172 199.267 175.276L201.798 171.47C202.11 171.001 202.473 170.568 202.881 170.179L210.847 162.593C212.626 160.898 215.118 160.16 217.506 160.74C223.106 162.101 231.289 164.544 236.518 167.616C244.796 172.481 245.937 177.059 248.221 184.499C250.504 191.938 250.504 179.348 251.931 177.059C252.892 175.518 256.478 173.06 258.952 171.523C259.776 171.011 260.702 170.691 261.661 170.55L275.648 168.494C279.14 167.98 282.54 169.943 283.635 173.299C284.933 177.278 286.183 181.859 286.183 184.499C286.183 187.542 290.542 187.963 294.431 187.629C296.804 187.425 299.229 187.993 301.027 189.555L304.128 192.25C305.783 193.688 306.733 195.772 306.733 197.965V210.299C306.733 212.932 308.113 215.373 310.37 216.731C310.799 216.988 311.252 217.203 311.723 217.37L318.912 219.928C319.543 220.152 320.142 220.459 320.692 220.841L329.172 226.726C330.362 227.552 331.312 228.694 331.752 230.075C332.949 233.834 333.83 239.259 330.995 241.154C328.392 242.893 331.996 244.742 335.672 245.949C337.751 246.631 339.575 247.986 340.601 249.918L343.416 255.219C345.857 259.818 343.036 265.451 337.891 266.25L331.937 267.175C329.551 267.546 327.484 269.033 326.375 271.178L325.876 272.143C324.785 274.251 324.747 276.749 325.772 278.89L329.503 286.683C330.451 288.661 330.493 290.953 329.621 292.965L328.86 294.719C328.387 295.81 327.663 296.774 326.748 297.533L324.539 299.366C321.807 301.633 317.867 301.697 315.063 299.521L313.063 297.969C311.735 296.938 310.102 296.379 308.421 296.379H298.17C294.487 296.379 291.975 300.107 293.358 303.52C293.88 304.809 293.864 306.254 293.312 307.53L291.085 312.681C290.675 313.63 290.464 314.652 290.464 315.685V317.472C290.464 318.284 290.335 319.089 290.071 319.856C289.16 322.499 287.553 326.914 286.183 329.857C284.584 333.29 279.808 336.629 277.62 337.869L274.356 339.241C271.091 340.613 267.321 339.532 265.179 336.712C261.208 331.483 256.315 325.565 254.786 325.565H247.361C244.745 325.565 242.36 327.062 241.223 329.418C239.814 332.337 236.544 333.86 233.403 333.06L225.393 331.021C222.594 330.308 219.633 331.25 217.761 333.449L213.506 338.446C211.838 340.405 209.291 341.387 206.744 341.019C200.57 340.128 192.163 338.784 189.423 337.869C186.248 336.808 180.376 330.256 177.261 326.418C176.803 325.854 176.441 325.224 176.179 324.547C174.964 321.413 173.072 316.165 172.868 314.119C172.702 312.456 175.739 307.875 178.544 304.103C180.264 301.789 180.67 298.725 179.469 296.104Z" fill="#939453" fill-opacity="0.4"/>
<path d="M224.308 228.371L231.835 224.892C234.514 223.653 236.229 220.971 236.229 218.02V207.199V194.61C236.229 186.126 223.501 177.832 223.501 171.306C223.501 164.78 204.285 134.221 204.285 131.937C204.285 129.653 209.467 129.759 217.952 135.633C226.438 141.506 242.757 167.065 247.652 177.832C252.548 188.6 250.263 195.778 250.263 211.441C250.263 227.103 259.728 218.945 264.297 216.009C268.866 213.072 272.456 205.894 272.456 200.999C272.456 196.105 281.921 185.011 284.532 177.832C287.143 170.654 284.532 170.001 284.532 163.802C284.532 160.559 289.647 159.929 294.861 160.216C299.082 160.448 301.754 164.581 300.515 168.622C299.319 172.522 297.736 176.823 295.955 179.79C292.039 186.316 295.553 196.307 290.331 204.465C285.109 212.622 281.595 208.857 279.637 214.731C277.678 220.604 282.574 222.208 284.532 224.818C286.49 227.429 287.143 227.429 291.386 227.429C295.629 227.429 299.82 226.26 305.901 216.373C320.751 192.228 321.412 222.861 331.856 222.861C342.3 222.861 339.689 222.861 347.196 224.818C348.623 225.191 350.164 225.718 351.728 226.331C356.798 228.319 356.069 235.245 350.786 236.565C348.175 237.218 336.734 237.726 322.7 237.726C308.666 237.726 314.885 239.175 306.725 239.502C298.566 239.828 295.955 241.459 295.955 246.028C295.955 250.418 291.097 256.375 295.205 257.926C295.503 258.039 295.757 258.1 295.955 258.1C298.24 258.1 306.725 263.647 311.947 263.647C317.169 263.647 326.961 268.542 331.856 271.152C336.752 273.762 348.003 277.352 350.786 277.352C363.395 277.352 359.979 315.202 358.347 315.202C356.715 315.202 327.94 279.309 321.412 277.352C317.173 276.08 313.22 274.723 310.952 273.908C310.097 273.601 309.198 273.436 308.29 273.436H289.452C286.46 273.436 283.749 275.198 282.534 277.932L282.248 278.575C282.031 279.063 281.814 279.584 281.927 280.106C283.34 286.625 317.182 293.566 309.663 297.679L291.087 304.965C289.286 305.672 287.823 307.041 287 308.792L282.176 319.053C282.007 319.415 281.866 319.789 281.758 320.174C279.441 328.356 267.385 326.682 267.385 318.178V288.772C267.385 282.246 261.686 279.309 259.728 277.352C257.77 275.394 246.999 276.373 245.367 279.309C243.736 282.246 240.472 285.635 236.229 289.877C233.531 292.574 232.829 294.996 230.576 299.079C229.337 301.324 226.981 303.387 226.459 305.898C224.542 315.119 226.785 340.539 222.724 340.539C216.523 340.539 217.395 295.195 204.285 310.973C202.329 313.328 148.177 340.123 149.79 336.843C162.844 310.293 161.867 314.498 169.109 311.653C170.162 311.24 171.05 310.504 171.807 309.663C177.574 303.248 178.138 308.185 188.306 300.707C195.993 295.053 200.593 294.234 204.389 290.952C205.166 290.28 206.001 289.667 206.945 289.262L216.381 285.206C217.415 284.761 218.338 284.091 219.081 283.245L225.339 276.115C228.665 272.326 227.427 266.405 222.861 264.266L222.128 263.922C221.738 263.739 221.365 263.524 221.012 263.278L212.194 257.133C211.258 256.481 210.187 256.049 209.061 255.869L196.072 253.791C195.005 253.621 193.914 253.68 192.873 253.966L180.301 257.416C178.685 257.86 176.968 257.755 175.418 257.118L173.766 256.438C166.093 253.284 168.349 241.865 176.644 241.865H180.564C182.366 241.865 184.11 241.222 185.481 240.052L190.393 235.856C192.8 233.8 193.566 230.404 192.273 227.514C188.823 219.8 199.27 213.548 204.436 220.235L212.993 231.308C215.338 234.343 220.022 233.985 221.879 230.63C222.428 229.638 223.278 228.846 224.308 228.371Z" fill="#664D3B" stroke="#61432D" stroke-width="8.51709"/>
<path d="M72.4054 341.936L76.1983 336.813C78.9983 333.03 77.7055 327.637 73.4949 325.535L46.9713 312.293C45.0804 311.349 43.6701 309.658 43.0816 307.628L37.307 287.71C36.701 285.62 35.2249 283.892 33.2552 282.966L26.5053 279.795C25.2143 279.188 24.1209 278.229 23.3511 277.028L15.3803 264.593C14.1299 262.642 13.8417 260.226 14.5981 258.036L20.1337 242.008C20.2816 241.579 20.4675 241.165 20.6894 240.771L35.9793 213.557C36.2283 213.114 36.5212 212.697 36.8537 212.312L60.6321 184.822C62.0052 183.234 62.6577 181.148 62.4337 179.061L61.5972 171.266C61.117 166.791 64.6238 162.888 69.1247 162.888H101.04H132.06C137.476 162.888 141.141 157.366 139.036 152.375L132.935 137.908C132.543 136.977 132.34 135.977 132.34 134.966V99.1657C132.34 97.2695 131.629 95.4424 130.346 94.0457L121.059 83.9294C118.699 81.3587 118.402 77.5077 120.34 74.6054L131.869 57.3372C132.182 56.8685 132.547 56.4363 132.956 56.0484L157.33 32.9288C159.107 31.2429 161.589 30.5131 163.983 31.0358C177.196 33.9217 201.219 40.4546 215.807 48.9927C235.978 60.7989 238.76 71.9106 244.325 89.9671C249.889 108.024 249.889 77.4664 253.367 71.9106C255.954 67.7775 266.36 60.922 272.281 57.3751C273.11 56.8782 274.03 56.56 274.986 56.4199L319.748 49.865C323.235 49.3544 326.618 51.3103 327.816 54.6249C331.68 65.3218 336.834 81.6323 336.834 89.9671C336.834 98.8171 352.086 98.53 362.344 96.9028C364.689 96.5309 367.102 97.1308 368.898 98.6845L384.297 112.01C385.959 113.448 386.914 115.537 386.914 117.734V158.598C386.914 161.259 388.311 163.725 390.594 165.092L396.698 168.749C397.129 169.008 397.586 169.223 398.06 169.391L417.96 176.441C418.59 176.664 419.187 176.97 419.737 177.35L444.209 194.266C445.402 195.09 446.341 196.231 446.847 197.589C450.178 206.537 453.747 222.341 446.036 227.474C438.558 232.452 452.108 237.801 462.179 240.525C464.289 241.096 466.101 242.471 467.129 244.399L483.447 275.009C485.9 279.61 483.076 285.255 477.923 286.053L442.873 291.475C440.489 291.843 438.423 293.326 437.311 295.467L431.087 307.454C429.989 309.568 429.95 312.076 430.982 314.223L444.534 342.412C445.487 344.396 445.53 346.697 444.652 348.715L439.803 359.849C439.328 360.941 438.602 361.905 437.684 362.663L423.574 374.322C420.846 376.576 416.921 376.64 414.121 374.476L399.392 363.09C398.066 362.065 396.438 361.509 394.762 361.509H358.521C353.145 361.509 349.482 366.955 351.508 371.933L355.11 380.785C355.877 382.67 355.852 384.785 355.042 386.652L347.893 403.125C347.48 404.076 347.267 405.102 347.267 406.139V414.449C347.267 415.263 347.137 416.072 346.874 416.844C344.812 422.914 340.478 434.967 336.834 442.764C332.938 451.098 321.299 459.2 315.967 462.209L299.973 468.906C296.715 470.27 292.956 469.203 290.862 466.359C280.81 452.702 264.76 432.347 260.322 432.347H236.546C233.645 432.347 231.001 434.005 229.736 436.616L224.063 448.322C222.496 451.555 218.872 453.242 215.389 452.358L182.11 443.92C179.318 443.212 176.367 444.149 174.495 446.338L155.881 468.11C154.214 470.06 151.676 471.036 149.134 470.685C134.137 468.615 108.643 464.74 101.04 462.209C92.9566 459.519 77.696 442.28 70.4239 433.205C69.9686 432.637 69.6043 432.009 69.3366 431.332C66.4418 424.01 61.2288 409.866 60.6981 404.567C60.2106 399.699 71.0793 384.523 78.6127 374.923C80.3984 372.647 80.7979 369.566 79.5887 366.938L71.6128 349.605C70.458 347.096 70.7618 344.156 72.4054 341.936Z" fill="#939453" fill-opacity="0.4"/>
<path d="M75.224 429.359L70.4239 433.205L75.224 429.358C75.1539 429.271 75.0994 429.177 75.057 429.07C73.6358 425.476 71.647 420.209 69.9571 415.218C68.2742 410.248 67.1278 406.228 66.8559 404.263C66.8702 404.203 66.8905 404.126 66.919 404.029C67.0635 403.539 67.3386 402.822 67.7924 401.863C68.699 399.947 70.0892 397.544 71.8234 394.844C75.2755 389.468 79.7462 383.443 83.4519 378.72C86.622 374.68 87.3766 369.147 85.1766 364.366L77.2008 347.034C76.9842 346.563 77.0412 346.012 77.3494 345.596L72.4054 341.936L77.3494 345.596L81.1422 340.472C86.2173 333.617 83.8741 323.841 76.2425 320.031L49.7188 306.79C49.3643 306.613 49.0999 306.296 48.9895 305.915L43.2149 285.997C42.1166 282.209 39.4411 279.076 35.8711 277.399L33.2552 282.966L35.8711 277.399L29.1212 274.227C28.8791 274.113 28.6741 273.934 28.5298 273.709L20.559 261.273L15.3803 264.593L20.559 261.273C20.3246 260.908 20.2705 260.455 20.4123 260.044L14.6127 258.041L20.4124 260.044L25.948 244.016C25.9757 243.935 26.0105 243.858 26.0522 243.784L41.3421 216.57C41.3888 216.487 41.4437 216.408 41.506 216.336L36.8537 212.312L41.506 216.336L65.2844 188.846C67.7731 185.969 68.9557 182.188 68.5498 178.405L67.7133 170.61C67.6233 169.771 68.2808 169.039 69.1247 169.039H101.04H132.06C141.877 169.039 148.518 159.031 144.704 149.985L138.603 135.518C138.529 135.343 138.492 135.156 138.492 134.966V99.1657C138.492 95.7289 137.202 92.4173 134.878 89.8856L125.59 79.7694C125.148 79.2874 125.092 78.5653 125.455 78.0212L136.985 60.753C137.044 60.6651 137.112 60.584 137.189 60.5113L132.956 56.0484L137.189 60.5113L161.563 37.3917C161.913 37.0592 162.336 36.9724 162.67 37.0454C175.831 39.9197 199.018 46.2936 212.7 54.3014C222.101 59.8038 227 64.8607 230.271 70.3044C233.494 75.6678 235.337 81.6648 237.919 90.0659C238.092 90.626 238.267 91.1967 238.446 91.7787C239.168 94.1218 239.958 96.2393 240.921 97.8132C241.372 98.551 242.217 99.7762 243.626 100.672C245.409 101.806 247.912 102.246 250.315 101.062C252.153 100.157 253.111 98.6725 253.513 97.9775C253.993 97.146 254.323 96.2855 254.554 95.5852C255.022 94.1698 255.381 92.5016 255.676 90.9183C255.992 89.2206 256.334 86.999 256.661 84.8752C256.898 83.3381 257.127 81.8522 257.332 80.6532C257.61 79.029 257.884 77.6455 258.164 76.5591C258.432 75.5211 258.612 75.1405 258.606 75.1372C258.605 75.1371 258.605 75.1376 258.604 75.1387C258.806 74.835 259.417 74.1096 260.679 72.9816C261.907 71.8846 263.461 70.6604 265.199 69.3923C268.672 66.8589 272.588 64.3614 275.442 62.6519C275.542 62.592 275.684 62.5346 275.878 62.5062L320.639 55.9513C321.328 55.8505 321.858 56.2381 322.03 56.7149L327.816 54.6249L322.03 56.7149C323.927 61.966 326.126 68.5563 327.842 74.8093C329.608 81.2459 330.682 86.7036 330.682 89.9671C330.682 94.2785 332.682 97.682 335.687 99.9349C338.411 101.977 341.753 102.946 344.752 103.435C350.799 104.421 357.931 103.831 363.307 102.978C364.029 102.864 364.572 103.076 364.873 103.336L380.272 116.661L384.297 112.01L380.272 116.661C380.583 116.931 380.762 117.322 380.762 117.734V158.598C380.762 163.421 383.295 167.89 387.432 170.369L393.536 174.026L396.698 168.749L393.537 174.026C394.319 174.495 395.146 174.884 396.006 175.189L415.906 182.239C416.024 182.281 416.136 182.338 416.239 182.41L440.711 199.326C440.972 199.506 441.058 199.671 441.082 199.735C442.628 203.888 444.147 209.446 444.442 214.333C444.767 219.719 443.513 221.764 442.627 222.354C441.194 223.308 439.682 224.643 438.708 226.522C437.637 228.588 437.452 230.871 438.099 233.011C438.685 234.95 439.84 236.412 440.858 237.428C441.905 238.472 443.113 239.346 444.287 240.073C448.803 242.872 455.442 245.075 460.573 246.463C461.153 246.62 461.524 246.961 461.701 247.293L478.019 277.903C478.479 278.766 477.949 279.824 476.983 279.974L441.932 285.396C437.611 286.064 433.868 288.752 431.852 292.632L425.628 304.619C423.637 308.451 423.567 312.996 425.438 316.888L438.99 345.077C439.169 345.449 439.177 345.88 439.012 346.259L434.163 357.393L439.803 359.849L434.163 357.393C434.074 357.598 433.938 357.779 433.766 357.921L419.656 369.58C419.144 370.003 418.408 370.015 417.883 369.609L403.154 358.224C400.751 356.366 397.799 355.358 394.762 355.358H358.521C348.778 355.358 342.139 365.227 345.81 374.252L349.412 383.103C349.556 383.457 349.551 383.853 349.399 384.203L342.25 400.676C341.502 402.4 341.116 404.26 341.116 406.139V414.449C341.116 414.607 341.09 414.746 341.05 414.865C338.996 420.911 334.752 432.69 331.261 440.159C329.882 443.109 326.817 446.524 322.962 449.79C319.376 452.829 315.628 455.307 313.246 456.68L297.598 463.232C296.995 463.484 296.251 463.303 295.816 462.712C290.749 455.828 284.122 447.189 278.158 440.229C275.19 436.766 272.277 433.589 269.738 431.232C268.478 430.063 267.169 428.962 265.886 428.115C264.877 427.448 262.823 426.195 260.322 426.195H236.546C231.285 426.195 226.493 429.203 224.2 433.933L218.527 445.639C218.234 446.245 217.554 446.562 216.901 446.396L183.622 437.957C178.562 436.674 173.212 438.373 169.82 442.341L151.206 464.112C150.887 464.485 150.422 464.653 149.975 464.591C142.513 463.561 132.453 462.084 123.333 460.553C114.002 458.987 106.24 457.457 102.983 456.373C102.029 456.055 100.254 455.041 97.7021 453.008C95.2759 451.074 92.5684 448.565 89.7946 445.769C84.2523 440.183 78.7646 433.777 75.224 429.359Z" stroke="#6A653A" stroke-opacity="0.4" stroke-width="12.3025"/>
<path d="M342.561 342.626L334.964 348.946C332.856 350.7 329.959 351.163 327.409 350.155C323.068 348.439 318.229 351.063 317.3 355.638L314.103 371.383C313.682 373.455 312.414 375.256 310.606 376.352L300.533 382.452C298.671 383.58 297.384 385.455 297.002 387.598L296.438 390.759C296.187 392.163 295.545 393.468 294.586 394.523L289.173 400.475C287.611 402.193 285.347 403.099 283.032 402.933L273.055 402.219C272.603 402.187 272.154 402.114 271.715 402.001L251.787 396.891C251.295 396.765 250.816 396.589 250.359 396.367L229.503 386.231C227.613 385.312 225.425 385.22 223.464 385.978L222.108 386.502C217.91 388.126 213.231 385.749 212.065 381.401L207.196 363.227L202.736 346.581C201.333 341.347 195.046 339.238 190.771 342.567L185.759 346.47C184.96 347.092 184.045 347.548 183.067 347.81L161.185 353.673C159.35 354.165 157.768 355.328 156.751 356.931L153.35 362.294C151.477 365.246 147.827 366.533 144.518 365.407L133.371 361.615C132.837 361.433 132.325 361.192 131.845 360.897L113.849 349.836C111.765 348.556 110.419 346.353 110.324 343.91C109.957 334.566 110.133 318.746 113.007 308.229C117.166 293.013 123.912 289.26 134.692 282.482C145.471 275.703 125.583 281.032 121.359 279.733C118.32 278.798 112.348 273.538 108.933 270.259C108.237 269.59 107.693 268.784 107.311 267.898L96.1793 242.067C94.7858 238.833 95.7982 235.059 98.7064 233.074C104.946 228.814 113.543 223.474 118.523 222.139C123.957 220.683 121.725 211.79 119.061 205.408C118.147 203.221 118.091 200.74 119.123 198.606L124.081 188.353C125.04 186.372 126.812 184.906 128.938 184.337L153.083 177.867C155.656 177.178 157.677 175.187 158.405 172.624L159.269 169.587C159.406 169.103 159.495 168.607 159.534 168.106L160.601 154.465C160.653 153.8 160.792 153.144 161.016 152.516L167.397 134.591C167.883 133.225 168.741 132.016 169.936 131.194C175.285 127.516 184.418 122.944 188.934 126.927C193.245 130.728 194.469 122.142 194.596 115.237C194.636 113.053 195.486 110.944 197.08 109.452L210.787 96.6191C214.596 93.053 220.786 94.3187 222.889 99.0937L230.641 116.691C231.613 118.897 233.578 120.508 235.931 121.03L242.39 122.461C244.721 122.978 247.159 122.365 248.968 120.807L263.143 108.604C264.815 107.165 267.031 106.526 269.212 106.855L275.597 107.818C276.774 107.996 277.894 108.449 278.863 109.141L286.846 114.833C289.722 116.884 290.797 120.652 289.437 123.912L285.676 132.929C285.032 134.473 284.917 136.187 285.35 137.803L290.52 157.098C291.912 162.292 298.124 164.42 302.409 161.17L303.778 160.131C305.403 158.899 307.457 158.374 309.474 158.675L319.902 160.235C320.93 160.389 321.978 160.329 322.981 160.061L327.501 158.849C328.29 158.638 329.107 158.555 329.922 158.61C334.348 158.914 342.605 159.626 348.144 160.612C354.249 161.7 361.557 167.879 364.447 170.832L370.409 178.553C372.565 181.345 372.504 185.248 370.32 188.017C363.279 196.945 354.004 209.603 354.736 212.336L358.494 226.361C359.245 229.161 361.528 231.286 364.375 231.835L369.505 232.823C373.029 233.502 375.593 236.563 375.643 240.151L375.918 259.816C375.958 262.692 377.624 265.296 380.218 266.538L395.065 273.649C397.376 274.756 398.973 276.955 399.287 279.498C400.556 289.76 402.317 305.854 402.012 311.026C401.679 316.684 393.373 329.347 388.694 335.77C388.265 336.359 387.753 336.873 387.167 337.306C382.831 340.515 374.828 346.152 371.546 347.394C368.651 348.49 358.087 344.638 350.545 341.481C347.872 340.362 344.789 340.773 342.561 342.626Z" fill="#939453" fill-opacity="0.4"/>
<path d="M164.813 206.71L167.969 202.249C169.074 200.688 170.94 199.853 172.839 200.07C176.074 200.44 178.859 197.799 178.662 194.549L178.044 184.391C177.916 182.281 178.675 180.214 180.139 178.689L184.414 174.235C185.921 172.665 186.68 170.522 186.496 168.353L186.451 167.821C186.331 166.399 186.614 164.973 187.269 163.706L189.032 160.295C190.096 158.236 192.045 156.778 194.321 156.338L199.881 155.263C200.325 155.177 200.777 155.131 201.23 155.126L215.134 154.965C215.642 154.959 216.15 155.005 216.649 155.101L232.012 158.05C233.629 158.361 235.303 157.986 236.633 157.015C239.484 154.934 243.511 155.785 245.276 158.842L251.454 169.543L255.722 176.936C258.431 181.627 265.045 182.039 268.315 177.72L268.628 177.306C269.238 176.501 270.003 175.825 270.879 175.32L283.392 168.095C285.035 167.147 286.261 165.616 286.83 163.807L287.351 162.148C288.397 158.818 291.584 156.634 295.067 156.862L301.211 157.263C301.773 157.3 302.33 157.4 302.87 157.56L315.595 161.335C317.943 162.031 319.821 163.817 320.523 166.164C322.414 172.485 324.827 182.359 324.786 189.506C324.722 200.492 320.854 204.236 314.813 210.745C308.772 217.253 321.209 210.073 324.287 210.183C326.405 210.259 331.041 212.51 333.969 214.095C334.82 214.555 335.555 215.195 336.155 215.953L346.886 229.527C349.071 232.292 349.071 236.207 346.737 238.847C343.443 242.573 339.324 246.811 336.558 248.408C333.425 250.217 335.818 255.1 338.518 258.838C339.907 260.762 340.618 263.141 340.171 265.472L339.089 271.11C338.675 273.269 337.343 275.141 335.439 276.24L322.367 283.787C320.062 285.118 318.625 287.561 318.583 290.222L318.572 290.892C318.564 291.395 318.606 291.898 318.698 292.393L320.336 301.233C320.458 301.89 320.492 302.56 320.438 303.225L319.444 315.459C319.327 316.905 318.813 318.3 317.848 319.382C314.838 322.757 309.839 326.952 306.262 325.179C302.932 323.529 303.314 328.581 304.312 333.048C304.789 335.18 304.524 337.437 303.368 339.291L298.701 346.781C295.943 351.206 289.641 351.584 286.375 347.52L280.745 340.515C279.234 338.635 276.917 337.588 274.507 337.695L272.202 337.797C269.822 337.903 267.63 339.124 266.286 341.092L260.167 350.057C258.925 351.876 256.954 353.064 254.766 353.312L251.875 353.639C250.692 353.773 249.494 353.626 248.379 353.21L244.219 351.66C240.904 350.424 238.887 347.058 239.361 343.552L239.92 339.413C240.144 337.753 239.812 336.065 238.974 334.614L232.889 324.075C230.79 320.439 225.677 320.088 223.1 323.403C222.125 324.658 220.684 325.468 219.105 325.649L212.532 326.401C211.502 326.519 210.506 326.848 209.608 327.366L207.513 328.576C206.807 328.983 206.041 329.276 205.241 329.431C202.132 330.033 196.729 330.983 192.972 331.308C188.664 331.68 182.631 328.845 180.153 327.381L176.211 324.381C173.402 322.241 172.453 318.449 173.826 315.195C176.812 308.12 180.138 299.287 179.227 297.71L174.895 290.207C173.444 287.694 170.686 286.232 167.792 286.441L167.463 286.465C163.88 286.724 160.608 284.429 159.631 280.972L156.809 270.983C156.026 268.212 153.739 266.125 150.908 265.598L142.264 263.99C139.742 263.521 137.627 261.81 136.671 259.43C133.99 252.757 130.316 243.213 129.632 239.877C128.854 236.089 132.025 226.387 134.031 221.139C134.291 220.459 134.656 219.825 135.111 219.257C137.497 216.276 141.68 211.295 143.609 209.908C145.22 208.75 151.94 209.23 157.401 209.905C160.272 210.26 163.141 209.072 164.813 206.71Z" fill="#939453" fill-opacity="0.4"/>
<path d="M199.248 222.942L200.427 221.27C201.096 220.32 202.232 219.812 203.387 219.947C205.351 220.176 207.044 218.572 206.92 216.598L206.607 211.599C206.478 209.547 207.214 207.535 208.635 206.051L210.249 204.366C211.254 203.315 211.759 201.883 211.633 200.434C211.551 199.486 211.739 198.534 212.174 197.688L212.517 197.02C213.581 194.95 215.538 193.485 217.824 193.046L219.508 192.723C219.954 192.638 220.407 192.592 220.862 192.588L228.745 192.513C229.255 192.508 229.763 192.554 230.263 192.652L239.312 194.411C240.296 194.602 241.315 194.375 242.124 193.784C243.853 192.52 246.296 193.036 247.367 194.891L251.148 201.44L253.628 205.735C255.338 208.697 259.516 208.954 261.576 206.224C261.961 205.713 262.446 205.284 263 204.964L270.259 200.773C271.453 200.084 272.344 198.97 272.754 197.654C273.509 195.231 275.828 193.642 278.36 193.813L281.054 193.995C281.616 194.033 282.173 194.134 282.714 194.295L288.689 196.083C291.027 196.783 292.9 198.562 293.559 200.912C294.625 204.716 295.774 209.854 295.76 213.697C295.735 220.392 293.387 222.669 289.723 226.628C286.058 230.587 293.61 226.227 295.482 226.298C296.655 226.343 299.101 227.489 300.874 228.426C301.726 228.876 302.459 229.517 303.055 230.273L307.801 236.284C309.981 239.045 309.998 242.971 307.588 245.532C305.965 247.256 304.248 248.883 302.991 249.61C301.411 250.522 302.15 252.73 303.388 254.758C304.62 256.777 305.377 259.123 304.937 261.447L304.812 262.108C304.402 264.274 303.068 266.153 301.159 267.255L294.717 270.974C293.125 271.894 292.134 273.583 292.108 275.421C292.104 275.766 292.133 276.112 292.197 276.451L293.121 281.401C293.244 282.055 293.279 282.723 293.227 283.387L292.737 289.586C292.622 291.033 292.119 292.44 291.108 293.481C289.266 295.377 286.62 297.335 284.665 296.361C282.95 295.506 282.857 297.579 283.24 299.887C283.592 302.011 283.374 304.23 282.239 306.06C279.523 310.438 273.294 310.815 270.07 306.797L269.6 306.212C268.408 304.727 266.58 303.897 264.677 303.978C262.787 304.059 261.046 305.028 259.982 306.593L257.324 310.502C256.156 312.22 254.296 313.341 252.231 313.571C251.118 313.695 249.992 313.555 248.944 313.161L248.643 313.048C245.647 311.924 243.824 308.881 244.245 305.709C244.445 304.207 244.142 302.681 243.384 301.368L240.039 295.575C238.765 293.368 235.661 293.158 234.101 295.172C233.508 295.937 232.631 296.43 231.669 296.539L228.297 296.919C227.262 297.036 226.262 297.365 225.36 297.886L225.051 298.064C224.342 298.473 223.573 298.766 222.768 298.917C220.838 299.279 217.891 299.777 215.79 299.955C213.171 300.177 209.499 298.442 207.991 297.546L207.443 297.128C204.646 294.991 203.711 291.215 205.016 287.945C206.522 284.168 207.856 280.267 207.391 279.461L204.787 274.951C203.878 273.376 202.15 272.458 200.336 272.586C198.091 272.744 196.043 271.307 195.429 269.142L194.223 264.892C193.44 262.131 191.162 260.05 188.342 259.518L186.444 259.161C183.93 258.687 181.822 256.979 180.878 254.602C179.334 250.711 177.536 245.952 177.165 244.154C176.707 241.938 178.451 236.411 179.664 233.143C179.918 232.459 180.283 231.824 180.741 231.256C182.216 229.425 184.524 226.699 185.626 225.906C186.482 225.29 189.725 225.444 192.748 225.773C195.27 226.047 197.787 225.015 199.248 222.942Z" fill="#939453" fill-opacity="0.4"/>
</svg>
