<svg width="1001" height="1001" viewBox="0 0 1001 1001" fill="none" xmlns="http://www.w3.org/2000/svg">
<path d="M474.114 375.906C451.922 379.71 430.921 388.728 418.68 399.842C415.72 402.529 410.302 401.467 409.268 397.605L401.109 367.128C400.789 365.934 400.958 364.661 401.577 363.591L421.62 328.972C422.224 327.929 422.4 326.692 422.111 325.522L415.841 300.143C415.667 299.441 415.332 298.788 414.862 298.238L395.736 275.824C394.822 274.753 394.441 273.325 394.702 271.941L400.61 240.537L407.512 212.377C408.231 209.443 406.009 206.612 402.989 206.612H379.988C377.417 206.612 375.332 208.697 375.332 211.268V225.915C375.332 228.841 372.665 231.042 369.792 230.487L349.35 226.538C347.386 226.158 345.884 224.567 345.618 222.585L342.484 199.221C342.431 198.828 342.429 198.43 342.477 198.037L345.833 170.574C345.981 169.37 345.652 168.155 344.917 167.19L334.422 153.396L329.932 147.274C327.502 143.96 322.284 145.189 321.588 149.239L312.629 201.365C312.524 201.974 312.542 202.598 312.681 203.201L323.276 249.111C323.389 249.601 323.58 250.068 323.842 250.497L345.859 286.436C345.995 286.657 346.149 286.867 346.319 287.063L374.186 319.046C374.925 319.894 375.332 320.981 375.332 322.105V348.794C375.332 350.704 374.176 352.425 372.379 353.072C360.191 357.461 338.136 363.065 328.103 356.947C317.452 350.453 294.312 350.827 283.316 351.88C282.795 351.93 282.276 351.897 281.767 351.776L260.328 346.698C258.474 346.259 256.54 346.993 255.445 348.552L238.8 372.23C236.631 375.315 238.838 379.564 242.609 379.564H281.632C282.229 379.564 282.821 379.679 283.375 379.903L349.945 406.787C351.08 407.245 351.99 408.133 352.476 409.257L363.358 434.443L374.479 466.571C375.009 468.101 374.706 469.796 373.678 471.048L328.717 525.825C328.312 526.319 328.016 526.88 327.838 527.493C323.353 542.974 312.834 572.714 304.488 574.801C295.974 576.929 273.002 588.991 262.58 594.757L212.976 630.096C212.144 630.689 211.532 631.532 211.227 632.508C207.365 644.867 199.481 668.22 195.395 673.583C192.5 677.382 194.362 686.42 196.966 694.255C198.23 698.059 203.285 698.098 204.918 694.438L217.347 666.598L232.599 638.273C233.26 637.044 234.439 636.177 235.809 635.91L289.629 625.437C292.504 624.878 295.175 627.079 295.175 630.008V660.444C295.175 660.776 295.211 661.108 295.281 661.432L303.268 698.229C303.896 701.123 307.032 702.703 309.732 701.486L324.228 694.953C326.423 693.963 327.501 691.464 326.716 689.188L315.609 657.007C315.298 656.106 315.271 655.13 315.532 654.213L327.885 610.822C328.029 610.315 328.258 609.836 328.562 609.406L379.406 537.569C379.572 537.335 379.769 537.106 379.977 536.908C412.443 505.866 441.6 543.203 445.843 543.203C449.841 543.203 456.01 559.24 462.808 564.039C463.627 564.617 464.392 565.3 464.865 566.185L491.68 616.345C492.152 617.229 492.897 617.936 493.803 618.363L529.915 635.357C531.221 635.971 532.183 637.138 532.359 638.571C534.331 654.65 526.998 695.745 526.998 703.849C526.998 714.493 522.341 739.105 522.341 746.422V789.624C522.341 790.519 522.596 791.385 523.08 792.138C528.733 800.932 539.107 817.361 540.634 820.925C542.04 824.204 550.595 840.787 556.177 851.515C557.338 853.747 560.062 854.645 562.326 853.551L591.964 839.226C594.935 837.79 595.511 833.805 593.069 831.587L559.397 801.001C558.66 800.332 558.157 799.444 557.961 798.468L550.612 761.722C549.393 749.97 549.215 727.398 558.262 731.123C567.195 734.801 602.804 746.78 620.137 752.525C620.579 752.672 621.022 752.75 621.489 752.743C638.101 752.49 662.107 731.91 667.355 731.123C672.541 730.345 699.625 737.61 708.904 731.621C709.379 731.314 709.742 730.872 710.027 730.385L725.229 704.415C725.449 704.04 725.615 703.636 725.722 703.214L737.866 655.622L747.391 626.74C747.882 625.253 749.084 624.111 750.598 623.711C759.404 621.379 774.146 617.706 777.778 617.706H812.802C813.82 617.706 814.803 617.372 815.614 616.756L831.618 604.584C834.458 602.424 833.913 598.003 830.633 596.597L800.169 583.541C799.036 583.056 797.756 583.039 796.611 583.495L758.09 598.844C756.672 599.409 755.068 599.243 753.795 598.4L734.326 585.505C732.095 584.027 731.566 580.978 733.168 578.835L754.485 550.319C755.333 549.185 755.619 547.727 755.262 546.357L743.52 501.296L738.696 480.297C738.211 478.182 736.328 476.683 734.158 476.683H722.052C719.073 476.683 716.86 479.442 717.506 482.35L725.466 518.166C725.528 518.449 725.565 518.729 725.572 519.018C725.816 529.487 722.981 550.575 709.595 554.512C696.507 558.361 683.398 587.892 677.908 603.711C677.53 604.799 677.588 605.984 678.05 607.039L698.664 654.203C699.067 655.124 699.161 656.152 698.931 657.131L689.212 698.578C688.562 701.352 685.595 702.897 682.949 701.839L663.753 694.16C662.268 693.566 660.583 693.775 659.289 694.714L633.422 713.475C631.999 714.507 630.116 714.65 628.554 713.844L591.051 694.507C589.502 693.708 588.529 692.111 588.529 690.368V646.648C588.529 646.203 588.465 645.76 588.34 645.334L580.517 618.736C580.317 618.058 579.966 617.435 579.49 616.912L533.203 566.156C532.42 565.298 531.987 564.179 531.987 563.018V538.945C531.987 537.83 532.387 536.752 533.115 535.907L562.141 502.199C562.651 501.606 563.004 500.895 563.167 500.131L571.175 462.556C571.426 461.377 572.124 460.342 573.123 459.667L610.007 434.763C610.321 434.551 610.601 434.309 610.855 434.027C620.973 422.779 641.461 399.787 645.403 394.531C649.301 389.335 650.767 373.568 651.04 365.81C651.053 365.443 651.106 365.083 651.202 364.729L660.993 328.724C661.238 327.826 661.207 326.875 660.905 325.994L640.665 266.881C640.499 266.395 640.414 265.886 640.414 265.372V207.253C640.414 206.828 640.473 206.404 640.588 205.995L650.884 169.313C650.999 168.903 651.058 168.48 651.058 168.054V124.127V103.356C651.058 102.795 650.956 102.239 650.759 101.715L643.54 82.5383C642.217 79.0262 637.496 78.4409 635.357 81.5238L621.622 101.311C621.081 102.09 620.791 103.017 620.791 103.966V118.584C620.791 121.477 618.186 123.67 615.344 123.127C603.59 120.883 585.889 116.995 580.214 113.816C576.603 111.794 572.697 109.288 569.403 107.065C566.457 105.078 562.356 106.846 561.899 110.37L558.63 135.588C558.405 137.33 559.179 139.051 560.632 140.038L600.79 167.31C602.066 168.177 602.831 169.619 602.831 171.162V215.406C602.831 215.751 602.869 216.094 602.945 216.431L610.237 248.77C610.397 249.48 610.388 250.218 610.212 250.924L598.459 297.934C598.272 298.683 598.272 299.457 598.462 300.205C602.648 316.65 610.48 348.318 610.48 351.958C610.48 355.533 605.784 375.114 603.152 385.606C602.941 386.444 602.506 387.197 601.883 387.796C590.408 398.828 567.059 419.587 558.262 421.139C546.954 423.135 542.156 403.626 526.998 394.531C502.053 379.564 497.396 371.914 474.114 375.906Z" fill="#664D3B" stroke="#61432D" stroke-width="8.64761"/>
<path d="M526.591 69.666C532.334 65.9202 539.747 65.9202 545.49 69.666L548.99 71.9492C551.21 73.3976 553.734 74.3162 556.366 74.6339L560.515 75.1348C567.322 75.9566 573 80.7216 574.992 87.2823L576.205 91.2813C576.975 93.8181 578.318 96.1439 580.13 98.0791L582.987 101.13C587.673 106.135 588.96 113.435 586.268 119.741L584.628 123.584C583.587 126.023 583.12 128.667 583.264 131.315L583.492 135.488C583.864 142.334 580.158 148.753 574.043 151.854L570.315 153.743C567.951 154.942 565.893 156.669 564.302 158.789L561.794 162.132C557.679 167.616 550.713 170.151 544.035 168.595L539.965 167.647C537.383 167.045 534.698 167.045 532.116 167.647L528.046 168.595C521.368 170.151 514.402 167.616 510.287 162.132L507.779 158.789C506.188 156.669 504.13 154.942 501.766 153.743L498.038 151.854C491.923 148.753 488.217 142.334 488.589 135.488L488.817 131.315C488.961 128.667 488.494 126.023 487.454 123.584L485.813 119.741C483.121 113.435 484.408 106.135 489.094 101.13L491.951 98.0791C493.763 96.1439 495.106 93.8181 495.876 91.2813L497.089 87.2823C499.081 80.7216 504.759 75.9566 511.566 75.1348L515.715 74.6339C518.347 74.3162 520.871 73.3976 523.091 71.9492L526.591 69.666Z" fill="#948E53" fill-opacity="0.6"/>
<path d="M711.123 407.015C716.866 403.269 724.279 403.269 730.022 407.015L746.097 417.501C748.317 418.949 750.841 419.867 753.473 420.185L772.528 422.486C779.335 423.307 785.013 428.072 787.005 434.633L792.579 452.999C793.349 455.536 794.692 457.861 796.504 459.797L809.622 473.807C814.308 478.812 815.595 486.112 812.903 492.418L805.368 510.07C804.327 512.508 803.861 515.153 804.005 517.8L805.048 536.965C805.421 543.811 801.715 550.231 795.599 553.331L778.481 562.01C776.116 563.209 774.059 564.935 772.468 567.055L760.948 582.407C756.833 587.891 749.867 590.426 743.19 588.871L724.497 584.515C721.915 583.914 719.23 583.914 716.648 584.515L697.955 588.871C691.278 590.426 684.312 587.891 680.197 582.407L668.678 567.055C667.086 564.935 665.029 563.209 662.664 562.01L645.546 553.331C639.431 550.231 635.724 543.811 636.097 536.965L637.14 517.8C637.284 515.153 636.818 512.508 635.777 510.07L628.242 492.418C625.55 486.112 626.837 478.812 631.523 473.807L644.642 459.797C646.453 457.861 647.796 455.536 648.566 452.999L654.141 434.633C656.132 428.072 661.811 423.307 668.617 422.486L687.672 420.185C690.304 419.867 692.828 418.949 695.048 417.501L711.123 407.015Z" fill="#939453" fill-opacity="0.4"/>
<path d="M727.841 410.358L743.916 420.843C746.649 422.626 749.755 423.757 752.995 424.148L772.049 426.448C777.285 427.08 781.654 430.746 783.185 435.792L788.76 454.158C789.707 457.28 791.36 460.143 793.59 462.525L806.708 476.535C810.313 480.385 811.303 486 809.232 490.851L801.697 508.503C800.416 511.504 799.842 514.759 800.02 518.017L801.063 537.182C801.35 542.448 798.499 547.386 793.795 549.771L776.676 558.45C773.766 559.925 771.233 562.05 769.275 564.66L757.756 580.012C754.59 584.23 749.232 586.18 744.095 584.983L725.403 580.628C722.225 579.888 718.92 579.888 715.742 580.628L697.05 584.983C691.913 586.18 686.555 584.23 683.389 580.012L671.87 564.66C669.912 562.05 667.379 559.925 664.469 558.45L647.35 549.771C642.646 547.386 639.795 542.448 640.082 537.182L641.125 518.017C641.303 514.759 640.729 511.504 639.448 508.503L631.913 490.851C629.842 486 630.832 480.385 634.437 476.535L647.555 462.525C649.785 460.143 651.438 457.28 652.385 454.158L657.96 435.792C659.491 430.746 663.86 427.08 669.096 426.448L688.15 424.148C691.39 423.757 694.496 422.626 697.229 420.843L713.304 410.358C717.721 407.476 723.424 407.476 727.841 410.358Z" stroke="#6A653A" stroke-opacity="0.4" stroke-width="7.98241"/>
<path d="M802.921 518.103C808.663 514.357 816.076 514.357 821.819 518.103L837.894 528.588C840.115 530.037 842.638 530.955 845.27 531.273L864.325 533.574C871.132 534.395 876.811 539.16 878.802 545.721L884.376 564.087C885.146 566.624 886.489 568.949 888.301 570.885L901.419 584.895C906.105 589.9 907.392 597.2 904.701 603.506L897.165 621.158C896.125 623.596 895.658 626.241 895.802 628.888L896.846 648.053C897.218 654.899 893.512 661.319 887.397 664.419L870.278 673.098C867.913 674.297 865.856 676.023 864.265 678.143L852.745 693.495C848.63 698.979 841.664 701.514 834.987 699.958L816.295 695.603C813.713 695.001 811.027 695.001 808.445 695.603L789.753 699.958C783.076 701.514 776.109 698.979 771.994 693.495L760.475 678.143C758.884 676.023 756.826 674.297 754.462 673.098L737.343 664.419C731.228 661.319 727.521 654.899 727.894 648.053L728.937 628.888C729.082 626.241 728.615 623.596 727.574 621.158L720.039 603.506C717.347 597.2 718.635 589.9 723.321 584.895L736.439 570.885C738.251 568.949 739.594 566.623 740.364 564.087L745.938 545.721C747.929 539.16 753.608 534.395 760.415 533.574L779.469 531.273C782.101 530.955 784.625 530.037 786.845 528.588L802.921 518.103Z" fill="#939453" fill-opacity="0.4"/>
<path d="M819.638 521.445L835.714 531.931C838.447 533.714 841.553 534.844 844.792 535.236L863.847 537.536C869.083 538.168 873.451 541.833 874.983 546.88L880.557 565.246C881.505 568.368 883.157 571.231 885.387 573.612L898.505 587.623C902.11 591.473 903.1 597.088 901.03 601.939L893.495 619.591C892.214 622.592 891.64 625.847 891.817 629.105L892.86 648.27C893.147 653.536 890.296 658.474 885.592 660.859L868.473 669.538C865.563 671.013 863.031 673.138 861.073 675.748L849.553 691.099C846.388 695.318 841.029 697.268 835.893 696.071L817.2 691.716C814.023 690.976 810.717 690.976 807.539 691.716L788.847 696.071C783.711 697.268 778.352 695.318 775.187 691.099L763.667 675.748C761.709 673.138 759.177 671.013 756.267 669.538L739.148 660.859C734.444 658.474 731.593 653.536 731.879 648.27L732.923 629.105C733.1 625.847 732.526 622.592 731.245 619.591L723.71 601.939C721.639 597.088 722.63 591.473 726.234 587.623L739.352 573.612C741.582 571.231 743.235 568.368 744.183 565.246L749.757 546.88C751.289 541.833 755.657 538.168 760.893 537.536L779.948 535.236C783.187 534.844 786.293 533.714 789.026 531.931L805.101 521.445C809.519 518.564 815.221 518.564 819.638 521.445Z" stroke="#6A653A" stroke-opacity="0.4" stroke-width="7.98241"/>
<path d="M557.463 610.565C563.205 606.82 570.618 606.82 576.361 610.565L612.002 633.814C614.223 635.263 616.746 636.181 619.378 636.499L661.625 641.599C668.432 642.421 674.111 647.186 676.102 653.747L688.461 694.466C689.231 697.003 690.574 699.329 692.386 701.264L721.47 732.327C726.156 737.332 727.443 744.632 724.752 750.938L708.045 790.075C707.005 792.513 706.538 795.158 706.682 797.805L708.996 840.296C709.368 847.142 705.662 853.562 699.546 856.662L661.592 875.904C659.227 877.103 657.17 878.829 655.579 880.949L630.038 914.986C625.923 920.47 618.957 923.006 612.28 921.45L570.836 911.793C568.254 911.192 565.569 911.192 562.987 911.793L521.543 921.45C514.866 923.006 507.9 920.47 503.785 914.986L478.245 880.949C476.653 878.829 474.596 877.103 472.231 875.904L434.277 856.662C428.162 853.562 424.455 847.142 424.828 840.296L427.141 797.805C427.285 795.158 426.819 792.513 425.778 790.075L409.072 750.938C406.38 744.632 407.667 737.332 412.353 732.327L441.438 701.264C443.25 699.329 444.593 697.003 445.362 694.466L457.721 653.747C459.713 647.186 465.391 642.421 472.198 641.599L514.445 636.499C517.077 636.181 519.601 635.263 521.821 633.814L557.463 610.565Z" fill="#939453" fill-opacity="0.4"/>
<path d="M574.18 613.908L609.822 637.157C612.554 638.94 615.661 640.07 618.9 640.461L661.147 645.562C666.383 646.194 670.751 649.859 672.283 654.906L684.642 695.625C685.589 698.747 687.242 701.61 689.472 703.992L718.557 735.055C722.161 738.904 723.152 744.52 721.081 749.371L704.375 788.508C703.094 791.509 702.52 794.764 702.697 798.022L705.01 840.513C705.297 845.779 702.446 850.717 697.742 853.102L659.787 872.344C656.877 873.819 654.345 875.944 652.386 878.554L626.846 912.591C623.68 916.809 618.322 918.759 613.186 917.563L571.742 907.906C568.564 907.166 565.259 907.166 562.081 907.906L520.638 917.563C515.501 918.759 510.143 916.809 506.977 912.591L481.437 878.554C479.479 875.944 476.946 873.819 474.036 872.344L436.082 853.102C431.378 850.717 428.526 845.779 428.813 840.513L431.126 798.022C431.304 794.764 430.73 791.509 429.449 788.508L412.742 749.371C410.672 744.52 411.662 738.904 415.267 735.055L444.351 703.992C446.581 701.61 448.234 698.747 449.182 695.625L461.541 654.906C463.072 649.859 467.441 646.194 472.677 645.562L514.923 640.461C518.163 640.07 521.269 638.94 524.002 637.157L559.643 613.908C564.06 611.027 569.763 611.027 574.18 613.908Z" stroke="#6A653A" stroke-opacity="0.4" stroke-width="7.98241"/>
<path d="M549.48 722.319C555.223 718.573 562.636 718.573 568.378 722.319L596.585 740.718C598.805 742.166 601.329 743.085 603.961 743.402L637.395 747.439C644.201 748.26 649.88 753.025 651.871 759.586L661.652 791.811C662.422 794.348 663.765 796.674 665.577 798.609L688.594 823.192C693.28 828.197 694.567 835.497 691.876 841.803L678.654 872.776C677.614 875.214 677.147 877.859 677.291 880.506L679.122 914.133C679.495 920.979 675.788 927.399 669.673 930.499L639.636 945.727C637.271 946.926 635.214 948.652 633.623 950.772L613.41 977.709C609.295 983.193 602.329 985.728 595.652 984.172L562.854 976.53C560.272 975.929 557.586 975.929 555.004 976.53L522.206 984.172C515.529 985.728 508.563 983.193 504.448 977.709L484.236 950.772C482.644 948.652 480.587 946.926 478.222 945.727L448.185 930.499C442.07 927.399 438.364 920.979 438.736 914.133L440.567 880.506C440.711 877.859 440.245 875.214 439.204 872.776L425.983 841.803C423.291 835.497 424.578 828.197 429.264 823.192L452.282 798.609C454.094 796.674 455.436 794.348 456.206 791.811L465.987 759.586C467.978 753.026 473.657 748.26 480.464 747.439L513.898 743.402C516.53 743.085 519.053 742.166 521.274 740.718L549.48 722.319Z" fill="#939453" fill-opacity="0.4"/>
<path d="M566.198 725.662L594.404 744.061C597.137 745.843 600.243 746.974 603.482 747.365L636.916 751.401C642.152 752.033 646.52 755.699 648.052 760.745L657.833 792.97C658.781 796.093 660.433 798.955 662.663 801.337L685.681 825.92C689.285 829.77 690.276 835.385 688.205 840.236L674.984 871.209C673.703 874.21 673.129 877.465 673.306 880.723L675.137 914.35C675.423 919.616 672.572 924.554 667.868 926.939L637.831 942.167C634.921 943.642 632.389 945.767 630.431 948.377L610.218 975.313C607.053 979.532 601.694 981.482 596.558 980.285L563.76 972.643C560.582 971.903 557.277 971.903 554.099 972.643L521.301 980.285C516.164 981.482 510.806 979.532 507.64 975.313L487.428 948.377C485.47 945.767 482.937 943.642 480.027 942.167L449.99 926.939C445.286 924.554 442.435 919.616 442.722 914.35L444.552 880.723C444.73 877.465 444.156 874.21 442.875 871.209L429.653 840.236C427.583 835.385 428.573 829.77 432.178 825.92L455.195 801.337C457.425 798.955 459.078 796.093 460.026 792.97L469.806 760.745C471.338 755.699 475.706 752.033 480.942 751.401L514.376 747.365C517.615 746.974 520.722 745.843 523.454 744.061L551.661 725.662C556.078 722.78 561.78 722.78 566.198 725.662Z" stroke="#6A653A" stroke-opacity="0.4" stroke-width="7.98241"/>
<path d="M178.027 594.601C183.77 590.855 191.183 590.855 196.925 594.601L212.921 605.035C215.142 606.483 217.665 607.402 220.297 607.719L239.258 610.008C246.064 610.83 251.743 615.595 253.734 622.156L259.281 640.431C260.051 642.967 261.394 645.293 263.206 647.229L276.259 661.169C280.945 666.174 282.232 673.475 279.54 679.78L272.043 697.345C271.002 699.783 270.535 702.428 270.68 705.075L271.718 724.145C272.09 730.991 268.384 737.411 262.269 740.511L245.235 749.147C242.87 750.346 240.813 752.072 239.222 754.192L227.759 769.468C223.644 774.952 216.678 777.487 210.001 775.932L191.401 771.598C188.819 770.996 186.134 770.996 183.552 771.598L164.952 775.932C158.275 777.487 151.309 774.952 147.194 769.468L135.731 754.192C134.14 752.072 132.083 750.346 129.718 749.147L112.684 740.511C106.569 737.411 102.862 730.991 103.235 724.145L104.273 705.075C104.417 702.428 103.951 699.783 102.91 697.345L95.4123 679.78C92.7206 673.475 94.0078 666.174 98.6939 661.169L111.747 647.229C113.559 645.293 114.902 642.967 115.672 640.431L121.218 622.156C123.21 615.595 128.888 610.83 135.695 610.008L154.655 607.719C157.287 607.402 159.811 606.483 162.032 605.035L178.027 594.601Z" fill="#939453" fill-opacity="0.4"/>
<path d="M194.745 597.944L210.741 608.378C213.473 610.16 216.58 611.291 219.819 611.682L238.779 613.971C244.015 614.603 248.383 618.268 249.915 623.315L255.462 641.59C256.409 644.712 258.062 647.575 260.292 649.956L273.345 663.897C276.95 667.747 277.94 673.363 275.87 678.213L268.372 695.778C267.091 698.779 266.517 702.034 266.694 705.292L267.732 724.362C268.019 729.628 265.168 734.567 260.464 736.951L243.43 745.587C240.52 747.062 237.988 749.187 236.029 751.797L224.567 767.073C221.401 771.291 216.043 773.241 210.907 772.045L192.307 767.711C189.129 766.97 185.824 766.97 182.646 767.711L164.046 772.045C158.91 773.241 153.551 771.291 150.386 767.073L138.923 751.797C136.965 749.187 134.433 747.062 131.523 745.587L114.489 736.951C109.785 734.567 106.934 729.628 107.22 724.362L108.258 705.292C108.436 702.034 107.862 698.779 106.581 695.778L99.0831 678.213C97.0125 673.363 98.0027 667.747 101.607 663.897L114.66 649.956C116.891 647.575 118.543 644.712 119.491 641.59L125.038 623.315C126.569 618.268 130.938 614.603 136.174 613.971L155.134 611.682C158.373 611.291 161.479 610.16 164.212 608.378L180.208 597.944C184.625 595.062 190.328 595.062 194.745 597.944Z" stroke="#6A653A" stroke-opacity="0.4" stroke-width="7.98241"/>
<path d="M276.083 536.062C281.826 532.317 289.239 532.317 294.981 536.062L319.666 552.164C321.886 553.612 324.41 554.531 327.042 554.849L356.301 558.381C363.108 559.203 368.786 563.968 370.778 570.529L379.337 598.73C380.107 601.267 381.45 603.593 383.262 605.528L403.405 627.041C408.091 632.046 409.379 639.346 406.687 645.652L395.116 672.758C394.076 675.196 393.609 677.841 393.753 680.488L395.355 709.916C395.728 716.762 392.022 723.182 385.906 726.282L359.62 739.609C357.255 740.808 355.198 742.534 353.607 744.654L335.918 768.227C331.803 773.711 324.837 776.247 318.16 774.691L289.457 768.003C286.875 767.401 284.189 767.401 281.607 768.003L252.904 774.691C246.227 776.247 239.261 773.711 235.146 768.227L217.457 744.654C215.866 742.534 213.809 740.808 211.444 739.609L185.158 726.282C179.042 723.182 175.336 716.762 175.709 709.916L177.311 680.488C177.455 677.841 176.989 675.196 175.948 672.758L164.377 645.652C161.685 639.346 162.973 632.046 167.659 627.041L187.802 605.528C189.614 603.593 190.957 601.267 191.727 598.73L200.286 570.529C202.278 563.968 207.956 559.203 214.763 558.381L244.022 554.849C246.654 554.531 249.178 553.612 251.399 552.164L276.083 536.062Z" fill="#939453" fill-opacity="0.4"/>
<path d="M292.801 539.405L317.485 555.507C320.218 557.29 323.324 558.42 326.563 558.811L355.823 562.344C361.059 562.976 365.427 566.641 366.958 571.688L375.518 599.889C376.466 603.011 378.118 605.874 380.348 608.256L400.492 629.769C404.096 633.619 405.087 639.235 403.016 644.085L391.446 671.191C390.165 674.192 389.591 677.447 389.768 680.705L391.37 710.133C391.657 715.399 388.806 720.338 384.102 722.722L357.815 736.049C354.905 737.524 352.373 739.649 350.414 742.259L332.726 765.832C329.56 770.05 324.202 772.001 319.065 770.804L290.362 764.116C287.185 763.375 283.879 763.375 280.702 764.116L251.999 770.804C246.862 772.001 241.504 770.05 238.338 765.832L220.65 742.259C218.691 739.649 216.159 737.524 213.249 736.049L186.962 722.722C182.258 720.338 179.407 715.399 179.694 710.133L181.296 680.705C181.473 677.447 180.899 674.192 179.618 671.191L168.048 644.085C165.977 639.235 166.968 633.619 170.572 629.769L190.716 608.256C192.946 605.874 194.598 603.011 195.546 599.889L204.106 571.688C205.637 566.641 210.006 562.976 215.242 562.344L244.501 558.811C247.74 558.42 250.846 557.29 253.579 555.507L278.264 539.405C282.681 536.524 288.383 536.524 292.801 539.405Z" stroke="#6A653A" stroke-opacity="0.4" stroke-width="7.98241"/>
<path d="M276.082 565.603C281.825 561.857 289.238 561.857 294.98 565.603L310.976 576.037C313.197 577.485 315.72 578.404 318.352 578.721L337.312 581.01C344.119 581.832 349.798 586.597 351.789 593.158L357.336 611.433C358.106 613.969 359.449 616.295 361.261 618.23L374.314 632.171C379 637.176 380.287 644.477 377.595 650.782L370.098 668.347C369.057 670.785 368.59 673.43 368.734 676.077L369.773 695.147C370.145 701.993 366.439 708.413 360.324 711.513L343.29 720.149C340.925 721.348 338.868 723.074 337.277 725.194L325.814 740.47C321.699 745.954 314.733 748.489 308.056 746.934L289.456 742.6C286.874 741.998 284.188 741.998 281.607 742.6L263.007 746.934C256.329 748.489 249.363 745.954 245.248 740.47L233.786 725.194C232.195 723.074 230.137 721.348 227.773 720.149L210.739 711.513C204.624 708.413 200.917 701.993 201.29 695.147L202.328 676.077C202.472 673.43 202.006 670.785 200.965 668.347L193.467 650.782C190.776 644.477 192.063 637.176 196.749 632.171L209.802 618.23C211.614 616.295 212.957 613.969 213.727 611.433L219.273 593.158C221.265 586.597 226.943 581.832 233.75 581.01L252.71 578.721C255.342 578.404 257.866 577.485 260.086 576.037L276.082 565.603Z" fill="#948E53" fill-opacity="0.6"/>
<path d="M457.682 190.824C463.425 187.078 470.838 187.078 476.58 190.824L553.897 241.257C556.118 242.706 558.642 243.624 561.274 243.942L652.92 255.006C659.727 255.828 665.406 260.593 667.397 267.154L694.207 355.486C694.977 358.023 696.32 360.349 698.132 362.284L761.225 429.669C765.911 434.674 767.198 441.974 764.507 448.28L728.265 533.18C727.224 535.618 726.758 538.263 726.902 540.91L731.92 633.086C732.293 639.932 728.587 646.352 722.471 649.452L640.136 691.194C637.772 692.392 635.714 694.119 634.123 696.239L578.718 770.075C574.603 775.559 567.637 778.095 560.96 776.539L471.056 755.591C468.474 754.989 465.789 754.989 463.207 755.591L373.303 776.539C366.626 778.095 359.66 775.559 355.545 770.075L300.14 696.239C298.549 694.119 296.491 692.392 294.127 691.194L211.791 649.452C205.676 646.352 201.97 639.932 202.342 633.086L207.361 540.91C207.505 538.263 207.038 535.618 205.997 533.18L169.756 448.28C167.064 441.974 168.352 434.674 173.038 429.669L236.131 362.284C237.943 360.349 239.286 358.023 240.056 355.486L266.866 267.154C268.857 260.593 274.536 255.828 281.343 255.006L372.989 243.942C375.621 243.624 378.145 242.706 380.365 241.257L457.682 190.824Z" fill="#939453" fill-opacity="0.4"/>
<path d="M474.4 194.167L551.717 244.6C554.45 246.383 557.556 247.513 560.795 247.904L652.442 258.968C657.678 259.601 662.046 263.266 663.578 268.313L690.388 356.645C691.335 359.768 692.988 362.63 695.218 365.012L758.312 432.397C761.916 436.247 762.906 441.862 760.836 446.713L724.595 531.613C723.314 534.614 722.74 537.869 722.917 541.127L727.935 633.303C728.222 638.569 725.371 643.507 720.667 645.892L638.331 687.634C635.421 689.109 632.889 691.234 630.931 693.844L575.526 767.68C572.36 771.898 567.002 773.848 561.865 772.652L471.962 751.704C468.784 750.963 465.479 750.963 462.301 751.704L372.397 772.652C367.261 773.848 361.902 771.898 358.737 767.68L303.332 693.844C301.374 691.234 298.842 689.109 295.931 687.634L213.596 645.892C208.892 643.507 206.041 638.569 206.328 633.303L211.346 541.127C211.523 537.869 210.949 534.614 209.668 531.613L173.427 446.713C171.356 441.862 172.346 436.247 175.951 432.397L239.044 365.012C241.275 362.63 242.927 359.768 243.875 356.645L270.685 268.313C272.217 263.266 276.585 259.601 281.821 258.968L373.468 247.904C376.707 247.513 379.813 246.383 382.546 244.6L459.863 194.167C464.28 191.285 469.983 191.285 474.4 194.167Z" stroke="#6A653A" stroke-opacity="0.4" stroke-width="7.98241"/>
<path d="M457.681 250.297C463.424 246.551 470.837 246.551 476.58 250.297L536.403 289.32C538.624 290.768 541.147 291.687 543.779 292.004L614.69 300.565C621.497 301.387 627.176 306.152 629.167 312.713L649.911 381.06C650.681 383.597 652.024 385.922 653.836 387.858L702.654 439.996C707.34 445.001 708.627 452.302 705.936 458.607L677.894 524.298C676.853 526.736 676.387 529.381 676.531 532.028L680.414 603.349C680.787 610.195 677.08 616.615 670.965 619.715L607.258 652.012C604.894 653.211 602.837 654.937 601.245 657.058L558.376 714.188C554.261 719.672 547.295 722.208 540.618 720.652L471.055 704.443C468.473 703.842 465.788 703.842 463.206 704.443L393.643 720.652C386.966 722.208 380 719.672 375.885 714.188L333.016 657.058C331.424 654.937 329.367 653.211 327.003 652.012L263.296 619.715C257.181 616.615 253.474 610.195 253.847 603.349L257.73 532.029C257.874 529.381 257.408 526.736 256.367 524.298L228.325 458.607C225.633 452.301 226.921 445.001 231.607 439.996L280.425 387.858C282.237 385.922 283.58 383.597 284.35 381.06L305.094 312.713C307.085 306.152 312.764 301.387 319.571 300.565L390.482 292.004C393.114 291.687 395.637 290.768 397.858 289.32L457.681 250.297Z" fill="#939453" fill-opacity="0.4"/>
<path d="M635.47 119.502C642.316 115.036 651.155 115.036 658.002 119.502L671.807 128.507C674.454 130.234 677.463 131.329 680.601 131.708L696.965 133.683C705.08 134.663 711.851 140.345 714.225 148.167L719.012 163.939C719.93 166.963 721.531 169.736 723.692 172.044L734.957 184.075C740.544 190.043 742.079 198.747 738.87 206.265L732.399 221.424C731.158 224.331 730.602 227.485 730.774 230.641L731.67 247.099C732.114 255.261 727.695 262.916 720.404 266.612L705.703 274.065C702.883 275.494 700.431 277.553 698.533 280.081L688.641 293.264C683.734 299.803 675.429 302.826 667.467 300.971L651.415 297.231C648.337 296.513 645.135 296.513 642.056 297.231L626.004 300.971C618.043 302.826 609.737 299.803 604.831 293.264L594.938 280.081C593.041 277.553 590.588 275.494 587.769 274.065L573.068 266.612C565.777 262.916 561.357 255.261 561.802 247.099L562.698 230.641C562.87 227.485 562.314 224.331 561.073 221.424L554.602 206.265C551.392 198.747 552.927 190.043 558.514 184.075L569.78 172.044C571.94 169.736 573.541 166.963 574.459 163.939L579.246 148.167C581.62 140.345 588.391 134.663 596.507 133.683L612.87 131.708C616.008 131.329 619.017 130.234 621.665 128.507L635.47 119.502Z" fill="#939453" fill-opacity="0.4"/>
<path d="M655.821 122.845L669.626 131.85C672.786 133.911 676.378 135.218 680.123 135.67L696.486 137.646C703.031 138.436 708.492 143.018 710.406 149.326L715.193 165.098C716.289 168.708 718.2 172.018 720.778 174.772L732.044 186.803C736.549 191.615 737.787 198.635 735.199 204.698L728.728 219.857C727.247 223.327 726.583 227.091 726.788 230.858L727.684 247.316C728.043 253.898 724.479 260.071 718.599 263.052L703.898 270.505C700.533 272.211 697.605 274.668 695.341 277.685L685.449 290.869C681.492 296.142 674.794 298.58 668.373 297.084L652.321 293.343C648.647 292.487 644.825 292.487 641.151 293.343L625.098 297.084C618.678 298.58 611.98 296.142 608.023 290.869L598.131 277.685C595.866 274.668 592.938 272.211 589.574 270.505L574.873 263.052C568.993 260.071 565.429 253.898 565.787 247.316L566.683 230.858C566.888 227.091 566.225 223.327 564.743 219.857L558.273 204.698C555.684 198.635 556.922 191.615 561.428 186.803L572.693 174.772C575.272 172.018 577.183 168.708 578.278 165.098L583.065 149.326C584.98 143.018 590.44 138.436 596.985 137.646L613.349 135.67C617.094 135.218 620.685 133.911 623.845 131.85L637.65 122.845C643.172 119.243 650.3 119.243 655.821 122.845Z" stroke="#6A653A" stroke-opacity="0.4" stroke-width="7.98241"/>
<path d="M336.794 98.8813C343.641 94.4152 352.479 94.4152 359.326 98.8813L373.131 107.886C375.778 109.613 378.787 110.708 381.926 111.087L398.289 113.063C406.405 114.042 413.175 119.724 415.55 127.546L420.337 143.318C421.255 146.342 422.856 149.116 425.016 151.423L436.281 163.454C441.869 169.422 443.403 178.126 440.194 185.644L433.723 200.803C432.482 203.71 431.926 206.864 432.098 210.02L432.994 226.478C433.438 234.64 429.019 242.295 421.728 245.991L407.027 253.444C404.208 254.874 401.755 256.932 399.858 259.46L389.965 272.643C385.059 279.182 376.753 282.205 368.792 280.35L352.74 276.61C349.661 275.892 346.459 275.892 343.38 276.61L327.328 280.35C319.367 282.205 311.061 279.182 306.155 272.643L296.262 259.46C294.365 256.932 291.912 254.874 289.093 253.444L274.392 245.991C267.101 242.295 262.682 234.64 263.126 226.478L264.022 210.02C264.194 206.864 263.638 203.71 262.397 200.803L255.926 185.644C252.717 178.126 254.251 169.422 259.839 163.454L271.104 151.423C273.264 149.116 274.865 146.342 275.783 143.318L280.57 127.546C282.945 119.724 289.715 114.042 297.831 113.063L314.194 111.087C317.333 110.708 320.342 109.613 322.989 107.886L336.794 98.8813Z" fill="#939453" fill-opacity="0.4"/>
<path d="M357.146 102.224L370.95 111.229C374.11 113.29 377.702 114.597 381.447 115.05L397.811 117.025C404.356 117.815 409.816 122.397 411.731 128.705L416.517 144.477C417.613 148.087 419.524 151.397 422.103 154.151L433.368 166.182C437.874 170.995 439.111 178.014 436.523 184.077L430.052 199.236C428.571 202.706 427.908 206.47 428.113 210.237L429.009 226.695C429.367 233.277 425.803 239.45 419.923 242.431L405.222 249.884C401.857 251.59 398.93 254.047 396.665 257.065L386.773 270.248C382.816 275.521 376.118 277.959 369.697 276.463L353.645 272.723C349.971 271.866 346.149 271.866 342.475 272.723L326.423 276.463C320.002 277.959 313.304 275.521 309.347 270.248L299.455 257.065C297.19 254.047 294.263 251.59 290.898 249.884L276.197 242.431C270.317 239.45 266.753 233.277 267.111 226.695L268.007 210.237C268.212 206.47 267.549 202.706 266.068 199.236L259.597 184.077C257.009 178.014 258.246 170.995 262.752 166.182L274.017 154.151C276.596 151.397 278.507 148.087 279.603 144.477L284.389 128.705C286.304 122.397 291.764 117.815 298.309 117.025L314.673 115.05C318.418 114.597 322.01 113.29 325.17 111.229L338.974 102.224C344.496 98.6225 351.624 98.6225 357.146 102.224Z" stroke="#6A653A" stroke-opacity="0.4" stroke-width="7.98241"/>
<path d="M226.371 275.824C233.218 271.358 242.056 271.358 248.903 275.824L262.708 284.829C265.355 286.556 268.364 287.651 271.503 288.03L287.866 290.006C295.982 290.986 302.752 296.667 305.127 304.489L309.914 320.261C310.832 323.286 312.433 326.059 314.593 328.366L325.858 340.397C331.445 346.365 332.98 355.069 329.771 362.588L323.3 377.746C322.059 380.653 321.503 383.807 321.675 386.963L322.571 403.421C323.015 411.583 318.596 419.238 311.305 422.934L296.604 430.387C293.785 431.817 291.332 433.875 289.434 436.403L279.542 449.587C274.636 456.125 266.33 459.148 258.369 457.293L242.316 453.553C239.238 452.835 236.036 452.835 232.957 453.553L216.905 457.293C208.944 459.148 200.638 456.125 195.732 449.587L185.839 436.403C183.942 433.875 181.489 431.817 178.67 430.387L163.969 422.934C156.678 419.238 152.259 411.583 152.703 403.421L153.599 386.963C153.771 383.807 153.215 380.653 151.974 377.746L145.503 362.588C142.294 355.069 143.828 346.365 149.416 340.397L160.681 328.366C162.841 326.059 164.442 323.286 165.36 320.261L170.147 304.489C172.521 296.667 179.292 290.986 187.408 290.006L203.771 288.03C206.909 287.651 209.918 286.556 212.566 284.829L226.371 275.824Z" fill="#939453" fill-opacity="0.4"/>
<path d="M246.723 279.167L260.527 288.172C263.687 290.233 267.279 291.541 271.024 291.993L287.387 293.968C293.932 294.758 299.393 299.34 301.307 305.648L306.094 321.42C307.19 325.03 309.101 328.34 311.68 331.094L322.945 343.125C327.451 347.938 328.688 354.957 326.1 361.021L319.629 376.179C318.148 379.649 317.485 383.413 317.69 387.18L318.586 403.638C318.944 410.221 315.38 416.394 309.5 419.375L294.799 426.827C291.434 428.533 288.506 430.99 286.242 434.008L276.35 447.191C272.393 452.464 265.695 454.902 259.274 453.406L243.222 449.666C239.548 448.81 235.726 448.81 232.052 449.666L216 453.406C209.579 454.902 202.881 452.464 198.924 447.191L189.032 434.008C186.767 430.99 183.84 428.533 180.475 426.827L165.774 419.375C159.894 416.394 156.33 410.221 156.688 403.638L157.584 387.18C157.789 383.413 157.126 379.649 155.644 376.179L149.174 361.021C146.585 354.957 147.823 347.938 152.329 343.125L163.594 331.094C166.173 328.34 168.084 325.03 169.179 321.42L173.966 305.648C175.881 299.34 181.341 294.758 187.886 293.968L204.25 291.993C207.995 291.541 211.587 290.233 214.746 288.172L228.551 279.167C234.073 275.566 241.201 275.566 246.723 279.167Z" stroke="#6A653A" stroke-opacity="0.4" stroke-width="7.98241"/>
<path d="M316.172 176.71C323.019 172.244 331.858 172.244 338.705 176.71L364.64 193.627C367.288 195.354 370.297 196.45 373.435 196.828L404.177 200.54C412.293 201.52 419.064 207.201 421.438 215.023L430.432 244.654C431.35 247.679 432.951 250.452 435.111 252.76L456.276 275.364C461.863 281.331 463.398 290.035 460.188 297.554L448.031 326.033C446.79 328.94 446.234 332.094 446.406 335.25L448.089 366.17C448.534 374.332 444.114 381.987 436.823 385.683L409.204 399.686C406.385 401.115 403.932 403.173 402.035 405.701L383.449 430.469C378.543 437.008 370.237 440.031 362.276 438.176L332.118 431.149C329.04 430.432 325.837 430.432 322.759 431.149L292.601 438.176C284.64 440.031 276.334 437.008 271.428 430.469L252.842 405.701C250.945 403.173 248.492 401.115 245.673 399.686L218.054 385.683C210.762 381.987 206.343 374.332 206.787 366.17L208.471 335.25C208.643 332.094 208.087 328.94 206.846 326.033L194.689 297.554C191.479 290.035 193.014 281.331 198.601 275.364L219.766 252.76C221.926 250.452 223.527 247.679 224.445 244.654L233.439 215.023C235.813 207.201 242.584 201.52 250.699 200.54L281.442 196.828C284.58 196.45 287.589 195.354 290.236 193.627L316.172 176.71Z" fill="#939453" fill-opacity="0.4"/>
<path d="M336.524 180.053L362.46 196.97C365.62 199.032 369.211 200.339 372.957 200.791L403.699 204.502C410.244 205.292 415.704 209.874 417.619 216.183L426.613 245.814C427.708 249.424 429.619 252.733 432.198 255.487L453.362 278.091C457.868 282.904 459.106 289.923 456.518 295.987L444.361 324.466C442.879 327.936 442.216 331.7 442.421 335.467L444.104 366.387C444.462 372.97 440.899 379.143 435.019 382.124L407.399 396.126C404.034 397.832 401.107 400.288 398.842 403.306L380.257 428.074C376.3 433.347 369.602 435.785 363.182 434.289L333.024 427.262C329.349 426.406 325.527 426.406 321.853 427.262L291.695 434.289C285.275 435.785 278.577 433.347 274.62 428.074L256.035 403.306C253.77 400.288 250.842 397.832 247.477 396.126L219.858 382.124C213.978 379.143 210.414 372.97 210.773 366.387L212.456 335.467C212.661 331.7 211.997 327.936 210.516 324.466L198.359 295.987C195.771 289.923 197.009 282.904 201.515 278.091L222.679 255.487C225.258 252.733 227.169 249.424 228.264 245.814L237.258 216.183C239.172 209.874 244.633 205.292 251.178 204.502L281.92 200.791C285.666 200.339 289.257 199.032 292.417 196.97L318.353 180.053C323.874 176.451 331.002 176.451 336.524 180.053Z" stroke="#6A653A" stroke-opacity="0.4" stroke-width="7.98241"/>
<path d="M759.196 429.485C766.043 425.019 774.881 425.019 781.728 429.485L807.664 446.403C810.311 448.13 813.32 449.225 816.458 449.604L847.201 453.316C855.317 454.295 862.087 459.977 864.462 467.799L873.455 497.43C874.373 500.455 875.974 503.228 878.135 505.535L899.299 528.139C904.886 534.106 906.421 542.811 903.212 550.329L891.055 578.809C889.814 581.716 889.258 584.869 889.43 588.025L891.113 618.945C891.557 627.108 887.138 634.763 879.847 638.459L852.228 652.461C849.408 653.89 846.955 655.949 845.058 658.477L826.473 683.245C821.566 689.784 813.261 692.807 805.299 690.952L775.141 683.925C772.063 683.207 768.861 683.207 765.782 683.925L735.624 690.952C727.663 692.807 719.357 689.784 714.451 683.245L695.866 658.477C693.968 655.949 691.515 653.89 688.696 652.461L661.077 638.459C653.786 634.763 649.366 627.108 649.811 618.945L651.494 588.025C651.666 584.869 651.11 581.716 649.869 578.809L637.712 550.329C634.503 542.811 636.037 534.106 641.625 528.139L662.789 505.535C664.95 503.228 666.551 500.455 667.469 497.43L676.462 467.799C678.836 459.977 685.607 454.295 693.723 453.316L724.465 449.604C727.603 449.225 730.612 448.13 733.26 446.403L759.196 429.485Z" fill="#939453" fill-opacity="0.4"/>
<path d="M779.547 432.828L805.483 449.746C808.643 451.807 812.235 453.114 815.98 453.567L846.723 457.278C853.268 458.068 858.728 462.65 860.643 468.958L869.636 498.589C870.732 502.199 872.643 505.509 875.221 508.263L896.386 530.867C900.891 535.679 902.129 542.699 899.541 548.762L887.384 577.242C885.903 580.712 885.239 584.475 885.444 588.242L887.128 619.162C887.486 625.745 883.922 631.918 878.042 634.899L850.423 648.901C847.058 650.607 844.13 653.064 841.866 656.082L823.28 680.85C819.324 686.123 812.625 688.561 806.205 687.065L776.047 680.038C772.373 679.181 768.551 679.181 764.877 680.038L734.719 687.065C728.298 688.561 721.6 686.123 717.643 680.85L699.058 656.082C696.794 653.064 693.866 650.607 690.501 648.901L662.882 634.899C657.002 631.918 653.438 625.745 653.796 619.162L655.48 588.242C655.685 584.475 655.021 580.712 653.54 577.242L641.383 548.762C638.795 542.699 640.032 535.679 644.538 530.867L665.703 508.263C668.281 505.509 670.192 502.199 671.288 498.589L680.281 468.958C682.196 462.65 687.656 458.068 694.201 457.278L724.944 453.567C728.689 453.114 732.281 451.807 735.44 449.746L761.376 432.828C766.898 429.226 774.026 429.226 779.547 432.828Z" stroke="#6A653A" stroke-opacity="0.4" stroke-width="7.98241"/>
<path d="M524.774 40.3435C531.621 35.8773 540.46 35.8773 547.306 40.3435L557.314 46.8714C559.962 48.5984 562.971 49.6936 566.109 50.0724L577.971 51.5045C586.087 52.4843 592.858 58.1657 595.232 65.988L598.702 77.4215C599.62 80.4461 601.221 83.2193 603.382 85.5266L611.548 94.2487C617.135 100.216 618.67 108.92 615.461 116.439L610.77 127.428C609.529 130.335 608.973 133.488 609.145 136.645L609.794 148.576C610.239 156.738 605.819 164.393 598.528 168.089L587.871 173.492C585.052 174.921 582.599 176.98 580.702 179.508L573.53 189.065C568.624 195.604 560.318 198.627 552.357 196.771L540.72 194.06C537.641 193.343 534.439 193.343 531.361 194.06L519.724 196.771C511.763 198.627 503.457 195.604 498.551 189.065L491.379 179.508C489.482 176.98 487.029 174.921 484.21 173.492L473.553 168.089C466.261 164.393 461.842 156.738 462.286 148.576L462.936 136.645C463.108 133.488 462.552 130.335 461.311 127.428L456.62 116.439C453.41 108.92 454.945 100.216 460.532 94.2487L468.699 85.5266C470.859 83.2193 472.461 80.4462 473.379 77.4215L476.849 65.988C479.223 58.1657 485.994 52.4843 494.11 51.5045L505.972 50.0724C509.11 49.6936 512.119 48.5984 514.767 46.8714L524.774 40.3435Z" fill="#939453" fill-opacity="0.4"/>
<path d="M545.126 43.6864L555.134 50.2143C558.293 52.2755 561.885 53.5827 565.63 54.0348L577.493 55.4669C584.038 56.2571 589.498 60.8388 591.413 67.1472L594.883 78.5807C595.979 82.1907 597.89 85.5006 600.468 88.2546L608.635 96.9766C613.141 101.789 614.378 108.809 611.79 114.872L607.099 125.861C605.618 129.331 604.954 133.095 605.159 136.862L605.809 148.793C606.167 155.375 602.603 161.548 596.723 164.529L586.066 169.932C582.701 171.638 579.774 174.095 577.509 177.112L570.338 186.669C566.381 191.943 559.683 194.38 553.262 192.884L541.626 190.173C537.951 189.317 534.129 189.317 530.455 190.173L518.818 192.884C512.398 194.38 505.7 191.943 501.743 186.669L494.572 177.112C492.307 174.095 489.379 171.638 486.014 169.932L475.357 164.529C469.477 161.548 465.913 155.375 466.272 148.793L466.921 136.862C467.126 133.095 466.463 129.331 464.981 125.861L460.291 114.872C457.702 108.809 458.94 101.789 463.446 96.9766L471.612 88.2546C474.191 85.5006 476.102 82.1907 477.198 78.5807L480.668 67.1472C482.583 60.8388 488.043 56.2571 494.588 55.4669L506.45 54.0348C510.196 53.5827 513.787 52.2755 516.947 50.2143L526.955 43.6864C532.476 40.0846 539.604 40.0846 545.126 43.6864Z" stroke="#6A653A" stroke-opacity="0.4" stroke-width="7.98241"/>
<path d="M610.586 47.8225C617.433 43.3563 626.271 43.3563 633.118 47.8225L640.339 52.5325C642.986 54.2594 645.995 55.3546 649.133 55.7335L657.692 56.7668C665.808 57.7466 672.579 63.4279 674.953 71.2503L677.457 79.4997C678.375 82.5244 679.976 85.2975 682.136 87.6049L688.029 93.898C693.616 99.8652 695.151 108.57 691.941 116.088L688.557 124.017C687.316 126.924 686.76 130.077 686.932 133.234L687.4 141.842C687.845 150.005 683.425 157.659 676.134 161.356L668.445 165.254C665.625 166.683 663.172 168.741 661.275 171.27L656.101 178.165C651.195 184.704 642.889 187.727 634.928 185.872L626.531 183.915C623.453 183.198 620.251 183.198 617.172 183.915L608.776 185.872C600.815 187.727 592.509 184.704 587.603 178.165L582.428 171.27C580.531 168.741 578.078 166.683 575.259 165.254L567.57 161.356C560.278 157.659 555.859 150.005 556.304 141.842L556.772 133.234C556.944 130.077 556.388 126.924 555.147 124.017L551.762 116.088C548.553 108.57 550.088 99.8652 555.675 93.8979L561.567 87.6049C563.728 85.2975 565.329 82.5244 566.247 79.4997L568.751 71.2503C571.125 63.4279 577.896 57.7466 586.012 56.7668L594.57 55.7335C597.709 55.3546 600.718 54.2594 603.365 52.5325L610.586 47.8225Z" fill="#948E53" fill-opacity="0.6"/>
<path d="M615.242 12.4053C622.089 7.93909 630.928 7.9391 637.775 12.4053L657.37 25.187C660.017 26.9139 663.026 28.0091 666.164 28.388L689.391 31.192C697.507 32.1718 704.277 37.8532 706.652 45.6755L713.446 68.0623C714.364 71.087 715.965 73.8601 718.126 76.1675L734.116 93.2453C739.703 99.2125 741.238 107.917 738.029 115.435L728.844 136.952C727.603 139.859 727.047 143.013 727.219 146.169L728.49 169.53C728.935 177.692 724.515 185.347 717.224 189.043L696.357 199.622C693.538 201.051 691.085 203.11 689.188 205.638L675.146 224.351C670.24 230.889 661.934 233.912 653.973 232.057L631.188 226.748C628.11 226.031 624.907 226.031 621.829 226.748L599.044 232.057C591.083 233.912 582.777 230.889 577.871 224.351L563.829 205.638C561.932 203.11 559.479 201.051 556.659 199.622L535.793 189.043C528.501 185.347 524.082 177.692 524.527 169.53L525.798 146.169C525.97 143.013 525.414 139.859 524.173 136.952L514.988 115.435C511.779 107.917 513.314 99.2125 518.901 93.2452L534.891 76.1675C537.052 73.8601 538.653 71.087 539.571 68.0623L546.365 45.6755C548.74 37.8532 555.51 32.1718 563.626 31.192L586.853 28.388C589.991 28.0091 593 26.9139 595.647 25.187L615.242 12.4053Z" fill="#939453" fill-opacity="0.4"/>
<path d="M635.594 15.7482L655.189 28.5299C658.349 30.591 661.94 31.8982 665.686 32.3504L688.912 35.1544C695.457 35.9446 700.918 40.5263 702.832 46.8347L709.627 69.2215C710.723 72.8316 712.634 76.1414 715.212 78.8954L731.203 95.9732C735.708 100.785 736.946 107.805 734.358 113.868L725.173 135.385C723.692 138.855 723.028 142.619 723.233 146.386L724.505 169.747C724.863 176.329 721.299 182.502 715.419 185.483L694.553 196.062C691.188 197.768 688.26 200.225 685.996 203.242L671.954 221.955C667.997 227.228 661.299 229.666 654.879 228.17L632.094 222.861C628.419 222.005 624.597 222.005 620.923 222.861L598.138 228.17C591.718 229.666 585.02 227.228 581.063 221.955L567.021 203.242C564.757 200.225 561.829 197.768 558.464 196.062L537.597 185.483C531.717 182.502 528.153 176.329 528.512 169.747L529.784 146.386C529.989 142.619 529.325 138.855 527.844 135.385L518.659 113.868C516.071 107.805 517.309 100.785 521.814 95.9732L537.805 78.8954C540.383 76.1414 542.294 72.8316 543.39 69.2215L550.184 46.8347C552.099 40.5263 557.559 35.9446 564.104 35.1544L587.331 32.3504C591.077 31.8982 594.668 30.591 597.828 28.5299L617.423 15.7481C622.944 12.1464 630.072 12.1464 635.594 15.7482Z" stroke="#6A653A" stroke-opacity="0.4" stroke-width="7.98241"/>
</svg>
