<svg width="1000" height="1001" viewBox="0 0 1000 1001" fill="none" xmlns="http://www.w3.org/2000/svg">
<g clip-path="url(#clip0_524_1209)">
<path d="M499.914 27.7432L577.072 237.156L755.199 102.702L706.891 320.586L929.432 303.778L770.996 460.957L967.297 567.132L749.035 613.702L856.771 809.151L647.979 730.326L632.945 952.995L499.914 773.802L366.883 952.995L351.849 730.326L143.057 809.151L250.793 613.702L32.5308 567.132L228.832 460.957L70.3954 303.778L292.937 320.586L244.629 102.702L422.756 237.156L499.914 27.7432Z" fill="#B09F74"/>
<path d="M605.593 105.536L588.32 354.901L802.049 225.282L652.7 425.722L902.578 432.23L668.572 520.108L875.264 660.677L630.896 608.091L728.778 838.091L551.633 661.737L509.63 908.145L455.949 664.015L287.396 848.598L374.224 614.201L132.634 678.355L332.404 528.11L94.4813 451.467L343.766 433.076L185.05 239.969L404.704 359.272L375.585 111.011L495.87 330.129L605.593 105.536Z" fill="#B09F74"/>
<path d="M579.535 202.772L578.83 339.899L687.191 255.862L634.063 382.281L766.335 346.109L668.873 442.574L804.919 459.773L677.96 511.598L797.068 579.551L659.941 578.846L743.978 687.206L617.559 634.079L653.731 766.351L557.267 668.889L540.067 804.935L488.242 677.976L420.289 797.084L420.994 659.957L312.634 743.994L365.761 617.575L233.489 653.747L330.951 557.283L194.906 540.083L321.864 488.258L202.756 420.305L339.883 421.01L255.846 312.65L382.265 365.777L346.093 233.505L442.558 330.967L459.757 194.921L511.582 321.88L579.535 202.772Z" fill="#B5A478"/>
</g>
<defs>
<clipPath id="clip0_524_1209">
<rect width="1000" height="1000" fill="white" transform="translate(0 0.0273438)"/>
</clipPath>
</defs>
</svg>
