<svg width="500" height="501" viewBox="0 0 500 501" fill="none" xmlns="http://www.w3.org/2000/svg">
<path d="M264.984 84.4728C250.978 94.7928 240.345 108.164 234.942 122.134C229.619 135.896 228.708 152.577 238.634 166.048C248.56 179.519 264.762 183.59 279.483 182.583C294.427 181.561 310.348 175.365 324.353 165.045C338.359 154.725 348.992 141.355 354.395 127.385C359.718 113.622 360.629 96.9415 350.703 83.4706C340.777 69.9997 324.575 65.9285 309.854 66.9355C294.91 67.9577 278.99 74.1529 264.984 84.4728Z" fill="#B091B6" stroke="#876E8C" stroke-width="31.6173"/>
<path d="M306.937 115.172L267.23 43.1374C260.018 30.0539 241.215 30.0538 234.003 43.1373L194.295 115.172L115.282 92.3132C100.931 88.1614 87.6346 101.457 91.7864 115.808L114.645 194.822L42.6105 234.529C29.5271 241.741 29.527 260.545 42.6105 267.757L114.645 307.464L91.7864 386.478C87.6346 400.829 100.93 414.125 115.282 409.973L194.295 387.114L234.003 459.149C241.215 472.232 260.018 472.232 267.23 459.149L306.937 387.114L385.951 409.973C400.302 414.125 413.598 400.829 409.446 386.478L386.587 307.464L458.622 267.757C471.705 260.545 471.705 241.741 458.622 234.529L386.587 194.822L409.446 115.808C413.598 101.457 400.302 88.1614 385.951 92.3132L306.937 115.172Z" fill="#B69F72" stroke="#A28D6E" stroke-width="31.6173"/>
<path d="M152.808 286.496C170.205 286.496 186.697 282.04 199.334 273.998C211.783 266.076 222.411 253.187 222.411 236.455C222.411 219.722 211.783 206.833 199.334 198.911C186.697 190.87 170.205 186.413 152.808 186.413C135.411 186.413 118.919 190.87 106.282 198.911C93.8334 206.833 83.205 219.722 83.205 236.455C83.205 253.187 93.8334 266.076 106.282 273.998C118.919 282.04 135.411 286.496 152.808 286.496Z" fill="#B091B6" stroke="#876E8C" stroke-width="31.6173"/>
<path d="M277.476 328.359C272.973 311.555 264.4 296.778 253.362 286.653C242.488 276.679 227.288 269.748 211.125 274.079C194.962 278.41 185.264 292.012 180.834 306.087C176.337 320.374 176.3 337.458 180.803 354.262C185.306 371.067 193.879 385.843 204.917 395.968C215.791 405.943 230.991 412.873 247.154 408.542C263.317 404.211 273.015 390.609 277.445 376.534C281.942 362.247 281.979 345.163 277.476 328.359Z" fill="#B091B6" stroke="#876E8C" stroke-width="31.6173"/>
<path d="M341.193 180.394L342.319 123.613C342.615 108.676 326.331 99.2745 313.543 106.999L264.932 136.365L225.577 95.4181C215.224 84.6469 197.061 89.5137 193.482 104.018L179.872 159.156L123.091 158.031C108.154 157.735 98.7525 174.019 106.477 186.806L135.843 235.418L94.8961 274.773C84.125 285.125 88.9917 303.288 103.496 306.868L158.634 320.477L157.509 377.259C157.213 392.195 173.497 401.597 186.284 393.872L234.896 364.507L274.251 405.453C284.603 416.225 302.766 411.358 306.346 396.854L319.955 341.715L376.737 342.841C391.673 343.137 401.075 326.853 393.35 314.065L363.985 265.453L404.931 226.099C415.703 215.746 410.836 197.583 396.332 194.004L341.193 180.394Z" fill="#B69F72" stroke="#A28D6E" stroke-width="31.6173"/>
</svg>
