<svg width="400" height="400" viewBox="0 0 400 400" fill="none" xmlns="http://www.w3.org/2000/svg">
<path d="M174.367 85.9276C173.849 95.8898 173.487 111.158 173.487 111.158L160.354 137.043L199.19 155.943L249.235 149.5L238.425 129.311L229.217 112.13L208.352 110.411C208.352 110.411 207.924 98.7237 204.25 87.7778C202.153 81.5282 199.738 78.3437 199.738 78.3437C199.738 78.3437 208.739 72.6348 214.505 66.4486C218.108 62.5827 217.786 54.9636 217.786 54.9636L238.295 55.3738L248.959 43.0685L251.637 32.6645L257.163 0C251.158 4.29541 247.797 15.4754 230.501 10.6646C213.206 5.85371 204.755 24.9468 203.02 35.6854C203.02 35.6854 197.376 35.6566 191.535 44.2991C186.762 51.3608 185.978 64.021 185.978 64.021C185.978 64.021 174.983 74.0928 174.367 85.9276Z" fill="#A80000"/>
<path d="M271.708 168.829L281.451 159.379L284.699 149.5L276.811 143.916L249.78 146.023L239.23 159.379L246.653 168.829H271.708Z" fill="#A80000"/>
<path d="M286.285 194.013L296.13 184.367L299.411 174.283L291.442 168.583L257.573 165.711L253.471 184.367L260.972 194.013H286.285Z" fill="#A80000"/>
<path d="M289.567 223.546L299.411 212.655L302.693 201.269L294.723 194.834L278.316 198.794L256.753 212.655L264.253 223.546H289.567Z" fill="#A80000"/>
<path d="M324.842 150.535L267.417 144.792L258.288 156.104L271.112 164.843C286.21 164.625 316.889 164.302 318.818 164.746C320.746 165.19 339.581 172.956 347.402 175.556L324.842 150.535Z" fill="#A80000"/>
<path d="M338.788 181.708L290.797 168.583L285.162 174.413L282.594 188.681C297.596 190.399 328.319 194.147 330.174 194.834C332.03 195.521 350.233 206.841 357.656 210.421L338.788 181.708Z" fill="#A80000"/>
<path d="M336.737 221.905L295.31 194.424L252.241 190.322L282.184 217.804C296.229 222.977 321.594 229.42 323.201 230.519C324.809 231.619 340.377 247.878 346.582 253.079L336.737 221.905Z" fill="#A80000"/>
<path d="M128.094 171.101L118.351 161.651L115.103 151.771L122.991 146.187L154.209 148.074L160.572 161.651L153.149 171.101H128.094Z" fill="#A80000"/>
<path d="M113.516 196.285L103.672 186.639L100.391 176.554L108.36 170.854L142.229 167.983L146.33 186.639L138.83 196.285H113.516Z" fill="#A80000"/>
<path d="M110.235 225.818L100.391 214.927L97.1094 203.541L105.079 197.105L121.486 201.066L143.049 214.927L135.549 225.818H110.235Z" fill="#A80000"/>
<path d="M74.9597 152.806L132.384 147.064L141.513 158.375L128.689 167.114C113.591 166.897 82.9127 166.573 80.9841 167.017C79.0555 167.461 60.2207 175.228 52.3998 177.827L74.9597 152.806Z" fill="#A80000"/>
<path d="M61.0136 183.98L109.004 170.854L114.639 176.685L117.208 190.953C102.206 192.671 71.4832 196.418 69.6274 197.105C67.7715 197.793 49.569 209.113 42.1455 212.692L61.0136 183.98Z" fill="#A80000"/>
<path d="M63.0646 224.177L104.492 196.695L147.561 192.593L117.618 220.075C103.573 225.249 78.2085 231.691 76.6006 232.791C74.9926 233.89 59.4252 250.15 53.2204 255.35L63.0646 224.177Z" fill="#A80000"/>
<path d="M165.503 131.48C167.154 128.358 169.685 123.489 170.895 121.576L188.752 116.075C189.656 115.758 190.249 115.566 190.403 115.566C191.184 115.566 209.262 117.308 218.448 116.872L231.616 122.621L234.786 130.722L235.518 131.767L211.376 134.119C201.296 133.771 180.942 133.022 180.161 132.812C179.381 132.603 169.513 135.426 164.066 134.119L165.503 131.48Z" fill="#A80000"/>
<path d="M150.147 150.33V164.772L174.521 158.917C177.821 162.82 184.423 170.94 184.423 172.189C184.423 173.438 195.932 175.051 201.687 175.702L224.284 158.917L253.481 163.211L255.004 146.426L248.149 135.106C236.724 132.764 213.53 120.72 212.108 120.72H189.399C188.18 120.72 168.681 132.764 159.541 135.106L150.147 150.33Z" fill="#A80000"/>
<path d="M139.012 171.08V186.425L167.699 180.204C171.584 184.351 179.354 192.978 179.354 194.305C179.354 195.632 192.901 197.347 199.674 198.038L226.27 180.204L260.635 184.766L262.428 166.933L254.36 154.905C240.912 152.417 213.613 139.62 211.94 139.62H185.21C183.776 139.62 160.826 152.417 150.069 154.905L139.012 171.08Z" fill="#A80000"/>
<path d="M131.588 188.354V204.355L142.562 222.951L163.511 197.868C167.834 202.193 176.48 211.188 176.48 212.572C176.48 213.956 191.555 215.743 199.092 216.464L228.687 197.868L251.632 216.464L266.928 202.625L268.924 184.03L259.945 171.488C244.981 168.893 213.923 159.379 212.061 159.379H181.135C179.539 159.379 155.863 168.893 143.892 171.488L131.588 188.354Z" fill="#A80000"/>
<path d="M131.588 215.33V235.317L163.727 227.214C168.079 232.616 176.783 243.852 176.783 245.58C176.783 247.309 191.96 249.542 199.548 250.442L229.343 227.214L267.843 233.156L269.851 209.928L260.812 194.263C245.748 191.022 214.479 179.138 212.605 179.138H181.47C179.863 179.138 156.027 191.022 143.975 194.263L131.588 215.33Z" fill="#A80000"/>
<path d="M153.859 209.635L120.453 226.874L122.391 244.341L140.605 264.396L158.731 272.778L166.57 285.421L186.722 292.537H215.013L234.39 285.421L245.338 272.778L267.33 264.396L284.77 244.341L287.482 226.874L256.396 207.488L215.013 212.642L201.648 223.381L184.397 212.642L153.859 209.635Z" fill="#A80000"/>
<path d="M177.058 268.483C177.058 266.077 184.481 259.319 186.801 256.455C191.595 259.033 201.184 264.788 201.184 267.194C201.184 270.201 203.484 297.301 203.02 299.019C202.649 300.393 196.39 306.855 194.225 309.289L185.409 304.134C183.553 293.11 177.058 270.888 177.058 268.483Z" fill="#A80000"/>
<path d="M228.094 268.483C228.094 266.077 220.877 258.46 218.557 255.596C213.763 258.174 204.174 263.929 204.174 266.335C204.174 269.342 202.146 297.301 202.61 299.019C202.981 300.393 207.404 305.605 209.569 308.039L219.949 303.275C221.805 292.25 228.094 270.888 228.094 268.483Z" fill="#A80000"/>
<path d="M93.5025 248.157L117.669 224.669L136.571 222.316V245.286L118.933 253.079L108.679 274.408L120.984 290.405C147.08 294.856 176.439 321.685 186.202 331.012C195.966 340.34 195.636 378.183 173.897 390.488C164.881 362.261 143.134 351.521 143.134 351.521C134.52 368.749 147.236 365.467 173.897 395L117.669 393.359L91.8618 333.063L93.5025 312.144L77.5056 283.022L93.5025 248.157Z" fill="#A80000"/>
<path d="M312.537 239.953L288.664 221.085L273.817 225.381L269.762 241.701L287.399 249.495L297.654 270.824L285.349 286.821C259.253 291.271 233.996 315.23 224.232 324.557C214.469 333.884 206.415 368.339 232.436 386.904C241.452 358.677 263.199 347.937 263.199 347.937C271.813 365.164 259.097 361.883 232.436 391.416H290.798L315.291 327.731L312.537 306.402L330.995 278.51L312.537 239.953Z" fill="#A80000"/>
<path d="M139.476 231.542C139.94 229.681 135.393 225.7 135.764 224.669L143.652 220.374H167.779C171.49 220.374 179.842 223.238 183.554 224.669L197.937 229.824C202.886 227.39 212.969 222.35 213.712 221.663C214.454 220.975 227.321 217.94 233.662 216.508L267.532 220.374L265.212 227.676C259.181 228.392 246.468 229.824 243.87 229.824C240.622 229.824 226.239 237.556 224.847 238.415C223.733 239.102 219.125 245.001 216.959 247.865L203.504 255.167L192.369 250.442L186.801 240.133L167.779 229.824L139.476 231.542Z" fill="#A80000"/>
<path d="M177.261 91.0592C176.803 100.572 178.323 114.439 178.323 114.439L164.873 139.87L199.206 157.918L243.449 151.765L233.892 132.487L225.751 116.08L204.515 114.439C204.515 114.439 204.577 103.152 201.329 92.6999C199.475 86.732 197.082 76.703 197.082 76.703C197.082 76.703 204.727 71.5355 209.824 65.6283C213.009 61.9367 215.133 52.5026 215.133 52.5026L236.37 51.2721L245.572 40.1973L252.651 8.61371C247.342 12.7155 244.935 19.7705 229.645 15.1765C214.354 10.5826 207.464 29.9429 205.931 40.1973C205.931 40.1973 197.998 39.3277 192.835 47.5805C188.615 54.3239 187.526 70.1402 187.526 70.1402C187.526 70.1402 177.806 79.758 177.261 91.0592Z" fill="#958D8D"/>
<path d="M263.316 170.223L271.929 161.199L274.801 151.765L267.828 146.433L253.471 149.714L234.603 161.199L241.166 170.223H263.316Z" fill="#626262"/>
<path d="M276.031 194.013L284.645 184.99L287.516 175.556L280.543 170.223L266.187 173.505L247.319 184.99L253.882 194.013H276.031Z" fill="#626262"/>
<path d="M278.903 218.624L287.516 209.6L290.387 200.166L283.414 194.834L269.058 198.115L250.19 209.6L256.753 218.624H278.903Z" fill="#626262"/>
<path d="M323.047 154.208L266.952 146.478L261.569 152.587L273.05 160.968C286.413 160.817 313.567 160.622 315.28 161.053C316.994 161.483 331.346 166.606 338.308 169.114L323.047 154.208Z" fill="#818181"/>
<path d="M335.917 185.4L281.363 170.223L275.211 175.556L285.465 185.4C298.727 187.04 325.662 190.486 327.303 191.142C328.944 191.799 342.48 198.799 349.042 202.217L335.917 185.4Z" fill="#818181"/>
<path d="M332.916 224.045L283.972 195.569L276.671 199.173L284.104 211.29C296.52 216.23 321.709 226.373 323.131 227.423C324.552 228.473 335.878 238.668 341.364 243.634L332.916 224.045Z" fill="#818181"/>
<path d="M136.486 172.495L127.872 163.471L125.001 154.037L131.974 148.705L146.33 151.986L165.199 163.471L158.636 172.495H136.486Z" fill="#626262"/>
<path d="M123.771 196.285L115.157 187.261L112.286 177.827L119.259 172.495L133.615 175.776L152.483 187.261L145.92 196.285H123.771Z" fill="#626262"/>
<path d="M120.899 220.896L112.286 211.872L109.415 202.438L116.388 197.105L130.744 200.387L149.612 211.872L143.049 220.896H120.899Z" fill="#626262"/>
<path d="M76.755 156.479L132.85 148.75L138.233 154.859L126.752 163.24C113.389 163.089 86.2354 162.894 84.5215 163.324C82.8077 163.755 68.4559 168.878 61.4942 171.386L76.755 156.479Z" fill="#818181"/>
<path d="M63.8849 187.671L118.438 172.495L124.591 177.827L114.337 187.671C101.074 189.312 74.1393 192.758 72.4986 193.414C70.8579 194.07 57.3221 201.07 50.7593 204.489L63.8849 187.671Z" fill="#818181"/>
<path d="M66.8853 226.316L115.83 197.841L123.13 201.444L115.698 213.561C103.281 218.502 78.0925 228.645 76.671 229.695C75.2496 230.744 63.9233 240.939 58.4379 245.906L66.8853 226.316Z" fill="#818181"/>
<path d="M169.425 134.558C170.884 131.577 173.122 126.927 174.191 125.101L189.978 119.847C190.777 119.545 191.301 119.361 191.438 119.361C192.128 119.361 208.11 121.025 216.231 120.609L227.873 126.099L230.675 133.834L231.322 134.832L209.979 137.078C201.068 136.745 183.073 136.03 182.384 135.83C181.694 135.631 172.97 138.326 168.155 137.078L169.425 134.558Z" fill="#8B8181"/>
<path d="M155.849 152.558V166.349L177.397 160.758C180.315 164.486 186.151 172.239 186.151 173.431C186.151 174.624 196.326 176.165 201.414 176.786L221.39 160.758L247.203 164.858L248.549 148.83L242.489 138.021C232.389 135.784 211.884 124.283 210.627 124.283H190.55C189.472 124.283 172.235 135.784 164.154 138.021L155.849 152.558Z" fill="#958D8D"/>
<path d="M158.467 156.232C160.533 151.896 163.701 145.133 165.215 142.476L187.563 134.834C188.694 134.394 189.436 134.128 189.629 134.128C190.606 134.128 213.23 136.547 224.725 135.942L241.205 143.927L245.173 155.179L246.088 156.631L215.875 159.897C203.261 159.414 177.788 158.373 176.812 158.083C175.835 157.792 163.485 161.712 156.67 159.897L158.467 156.232Z" fill="#8B8181"/>
<path d="M146.005 172.373V187.026L171.367 181.086C174.801 185.046 181.67 193.284 181.67 194.551C181.67 195.818 193.646 197.455 199.634 198.115L223.146 181.086L253.527 185.442L255.112 168.412L247.979 156.927C236.091 154.551 211.957 142.331 210.477 142.331H186.847C185.579 142.331 165.29 154.551 155.78 156.927L146.005 172.373Z" fill="#958D8D"/>
<path d="M149.741 177.863C152.148 172.985 155.839 165.377 157.602 162.387L183.641 153.791C184.959 153.296 185.823 152.996 186.049 152.996C187.186 152.996 213.547 155.718 226.94 155.037L246.142 164.021L250.764 176.679L251.831 178.312L216.628 181.987C201.931 181.442 172.252 180.272 171.114 179.945C169.976 179.619 155.587 184.028 147.646 181.987L149.741 177.863Z" fill="#8B8181"/>
<path d="M139.442 188.868V204.148L149.144 221.905L167.664 197.953C171.486 202.083 179.129 210.673 179.129 211.994C179.129 213.316 192.456 215.023 199.12 215.711L225.283 197.953L245.568 215.711L259.091 202.496L260.855 184.738L252.917 172.762C239.688 170.285 212.231 161.199 210.585 161.199H183.245C181.834 161.199 160.903 170.285 150.32 172.762L139.442 188.868Z" fill="#958D8D"/>
<path d="M147.308 198.437C148.446 193.121 149.947 185.155 151.649 182.208L178.954 175.245C181.822 174.456 183.782 173.933 184.102 173.933C185.231 173.933 212.087 172.554 225.374 171.864L246.892 182.208L251.831 197.103L249.361 199.585L214.439 203.309C199.859 202.757 170.416 201.571 169.287 201.24C168.158 200.909 153.883 205.378 146.005 203.309L147.308 198.437Z" fill="#8B8181"/>
<path d="M139.442 214.628V233.714L167.855 225.976C171.702 231.134 179.397 241.864 179.397 243.514C179.397 245.165 192.814 247.297 199.523 248.157L225.863 225.976L259.899 231.65L261.675 209.47L253.684 194.511C240.366 191.416 212.723 180.068 211.065 180.068H183.541C182.12 180.068 161.048 191.416 150.393 194.511L139.442 214.628Z" fill="#958D8D"/>
<path d="M153.201 207.96C150.727 212.198 145.496 221.167 144.365 223.136C152.259 225.187 168.329 229.371 169.46 229.699C170.592 230.027 200.094 231.203 214.704 231.75L249.697 228.058L254.292 219.034L247.223 205.088L225.661 200.576C212.347 201.26 185.437 202.627 184.306 202.627C183.175 202.627 163.098 206.182 153.201 207.96Z" fill="#8B8181"/>
<path d="M159.131 209.19L129.598 225.652L131.311 242.331L147.414 261.482L163.438 269.486L170.368 281.559L188.184 288.354H213.194L230.325 281.559L240.004 269.486L259.446 261.482L274.863 242.331L277.262 225.652L249.78 207.139L213.194 212.061L201.379 222.316L186.128 212.061L159.131 209.19Z" fill="#8B8888"/>
<path d="M170.616 242.414C170.616 247.851 166.208 252.259 160.771 252.259C155.335 252.259 150.927 247.851 150.927 242.414C150.927 236.978 155.335 232.57 160.771 232.57C166.208 232.57 170.616 236.978 170.616 242.414Z" fill="black"/>
<ellipse cx="157.9" cy="238.313" rx="6.15265" ry="5.74247" fill="#FDFDFD"/>
<path d="M254.292 242.414C254.292 247.851 249.884 252.259 244.448 252.259C239.011 252.259 234.603 247.851 234.603 242.414C234.603 236.978 239.011 232.57 244.448 232.57C249.884 232.57 254.292 236.978 254.292 242.414Z" fill="black"/>
<ellipse cx="241.576" cy="238.313" rx="6.15265" ry="5.74247" fill="#FDFDFD"/>
<path d="M308.107 245.872L280.083 219.444L266.958 223.546V237.082L288.278 242.063L308.107 269.603L290.027 291.284C272.337 296.362 237.853 317.184 229.221 326.09C220.59 334.997 216.096 365.467 232.581 379.765C240.552 352.81 269.419 338.806 269.419 338.806C282.949 360.135 258.048 375.272 241.912 386.796L285.826 384.746L308.107 327.907L305.482 306.519L323.562 278.1L308.107 245.872Z" fill="#9D9999"/>
<path d="M179.64 265.384C179.64 263.087 186.202 256.634 188.253 253.899C192.492 256.36 200.969 261.857 200.969 264.154C200.969 267.025 201.379 294.097 200.969 295.737C200.641 297.05 196.73 302.027 194.816 304.351L187.023 299.429C185.382 288.901 179.64 267.681 179.64 265.384Z" fill="#A6A6A6"/>
<path d="M224.759 265.384C224.759 263.087 218.378 255.813 216.328 253.079C212.089 255.54 203.612 261.036 203.612 263.333C203.612 266.205 203.202 293.276 203.612 294.917C203.94 296.229 207.851 301.206 209.765 303.531L217.558 298.609C219.199 288.081 224.759 267.681 224.759 265.384Z" fill="#A6A6A6"/>
<path d="M99.1135 249.973L127.137 223.546L140.263 227.648V241.184L118.943 246.165L99.1135 273.705L117.193 295.386C134.884 300.464 169.368 321.285 177.999 330.192C186.631 339.099 191.125 369.569 174.639 383.867C166.669 356.912 137.802 342.908 137.802 342.908C124.271 364.237 149.172 379.374 165.308 390.898L121.395 388.847L99.1135 332.009L101.738 310.621L83.6584 282.201L99.1135 249.973Z" fill="#9D9999"/>
<path d="M146.416 230.109C146.826 228.332 142.806 224.531 143.134 223.546L150.107 219.444H171.437C174.718 219.444 182.101 222.179 185.383 223.546L198.098 228.468C202.473 226.144 211.388 221.331 212.044 220.675C212.7 220.019 224.076 217.12 229.682 215.753L259.625 219.444L257.574 226.417C252.241 227.101 241.003 228.468 238.706 228.468C235.834 228.468 223.119 235.852 221.888 236.672C220.904 237.328 216.829 242.961 214.915 245.696L203.02 252.669L193.176 248.157L188.254 238.313L171.437 228.468L146.416 230.109Z" fill="#979292"/>
<path d="M165.694 328.141L120.574 308.043V320.758L133.29 331.423L161.592 349.06L178.409 370.389V342.908L165.694 328.141Z" fill="#B3ACAC"/>
<path d="M165.694 328.141L120.574 308.043V320.758L133.29 331.423L161.592 349.06L178.409 370.389V342.908L165.694 328.141Z" fill="#9F9F9F"/>
<path d="M240.756 319.938L285.875 299.839V312.555L273.16 323.219L244.858 340.857L228.041 362.186V334.704L240.756 319.938Z" fill="#B3ACAC"/>
<path d="M240.756 319.938L285.875 299.839V312.555L273.16 323.219L244.858 340.857L228.041 362.186V334.704L240.756 319.938Z" fill="#9F9F9F"/>
<path d="M104.988 331.833L101.706 310.914L98.835 331.833L121.395 388.847L164.873 390.898L127.957 376.952L117.293 354.393L104.988 331.833Z" fill="#958D8D"/>
<path d="M301.872 327.321L305.564 306.402L308.025 328.141L285.875 384.746L241.986 386.796L278.902 372.44L289.567 349.881L301.872 327.321Z" fill="#958D8D"/>
<path d="M174.307 232.874C173.323 232.874 159.541 230.109 149.287 232.874L158.721 234.104L172.667 237.796L182.511 234.925L174.307 232.874Z" fill="#8B8888"/>
<path d="M231.322 232.158C232.306 232.158 246.088 229.393 256.343 232.158L246.909 233.389L232.963 237.08L226.81 235.441L231.322 232.158Z" fill="#8B8888"/>
<path d="M205.891 40.1973C205.481 37.7362 209.992 26.6615 209.992 26.6615C208.024 48.3188 232.689 44.7092 245.268 40.1973C242.396 43.7522 236.572 50.9439 236.244 51.2721C235.834 51.6822 215.735 52.0924 214.915 52.0924C214.258 52.0924 206.301 42.6584 205.891 40.1973Z" fill="#8B8181"/>
<path d="M209.17 66.4486C193.748 74.9803 190.166 61.7999 190.302 54.1433C189.072 56.6044 188.101 64.3971 187.43 70.1402C187.143 72.6012 193.721 76.9765 197.275 76.703C198.369 76.0194 202.28 73.0114 209.17 66.4486Z" fill="#8B8181"/>
</svg>
