<svg width="400" height="400" viewBox="0 0 400 400" fill="none" xmlns="http://www.w3.org/2000/svg">
<path d="M177.182 89.8673C176.719 99.7066 176.395 114.786 176.395 114.786L164.66 140.352L199.364 159.019L244.086 152.655L234.426 132.716L226.198 115.746L207.552 114.049C207.552 114.049 207.169 102.506 203.887 91.6947C202.012 85.5222 199.854 82.377 199.854 82.377C199.854 82.377 207.898 76.7385 213.05 70.6287C216.27 66.8105 215.983 59.2854 215.983 59.2854L234.31 59.6906L243.84 47.5371L246.233 37.2614L251.171 5C245.805 9.24241 242.802 20.2845 227.346 15.533C211.89 10.7815 204.337 29.639 202.787 40.245C202.787 40.245 197.743 40.2167 192.524 48.7525C188.259 55.7271 187.557 68.231 187.557 68.231C187.557 68.231 177.732 78.1786 177.182 89.8673Z" fill="#A80000"/>
<path d="M264.169 171.746L272.876 162.412L275.778 152.655L268.73 147.14L244.573 149.221L235.145 162.412L241.779 171.746H264.169Z" fill="#A80000"/>
<path d="M277.196 196.62L285.994 187.092L288.926 177.132L281.804 171.502L251.538 168.667L247.872 187.092L254.575 196.62H277.196Z" fill="#A80000"/>
<path d="M280.129 225.788L288.926 215.031L291.858 203.786L284.737 197.43L270.075 201.341L250.805 215.031L257.507 225.788H280.129Z" fill="#A80000"/>
<path d="M311.652 153.677L260.335 148.006L252.177 159.178L263.637 167.809C277.129 167.594 304.545 167.274 306.268 167.713C307.992 168.151 324.823 175.822 331.812 178.389L311.652 153.677Z" fill="#A80000"/>
<path d="M324.115 184.466L281.229 171.502L276.193 177.261L273.898 191.353C287.304 193.05 314.759 196.751 316.417 197.43C318.076 198.109 334.342 209.289 340.976 212.824L324.115 184.466Z" fill="#A80000"/>
<path d="M322.282 224.167L285.261 197.025L246.773 192.973L273.531 220.116C286.082 225.226 308.749 231.589 310.186 232.675C311.623 233.761 325.535 249.819 331.079 254.956L322.282 224.167Z" fill="#A80000"/>
<path d="M135.831 173.989L127.124 164.656L124.222 154.898L131.27 149.383L159.168 151.247L164.855 164.656L158.221 173.989H135.831Z" fill="#A80000"/>
<path d="M122.803 198.863L114.006 189.336L111.074 179.376L118.195 173.746L148.462 170.91L152.127 189.336L145.425 198.863H122.803Z" fill="#A80000"/>
<path d="M119.871 228.031L111.074 217.275L108.142 206.029L115.263 199.673L129.925 203.585L149.195 217.275L142.493 228.031H119.871Z" fill="#A80000"/>
<path d="M88.3477 155.921L139.665 150.249L147.823 161.421L136.363 170.052C122.87 169.837 95.4549 169.518 93.7314 169.956C92.0079 170.395 75.1764 178.066 68.1874 180.633L88.3477 155.921Z" fill="#A80000"/>
<path d="M75.885 186.71L118.771 173.746L123.807 179.504L126.102 193.597C112.696 195.293 85.241 198.994 83.5825 199.673C81.924 200.352 65.6576 211.532 59.0237 215.068L75.885 186.71Z" fill="#A80000"/>
<path d="M77.7177 226.411L114.739 199.268L153.227 195.217L126.469 222.36C113.918 227.47 91.2509 233.833 89.814 234.918C88.3771 236.004 74.4655 252.063 68.9206 257.2L77.7177 226.411Z" fill="#A80000"/>
<path d="M169.261 134.858C170.736 131.774 172.998 126.965 174.079 125.076L190.037 119.642C190.845 119.33 191.374 119.14 191.513 119.14C192.21 119.14 208.365 120.861 216.574 120.43L228.342 126.108L231.175 134.109L231.829 135.141L210.254 137.464C201.247 137.12 183.057 136.38 182.36 136.174C181.662 135.967 172.844 138.755 167.977 137.464L169.261 134.858Z" fill="#A80000"/>
<path d="M155.538 153.475V167.739L177.32 161.956C180.269 165.811 186.168 173.83 186.168 175.064C186.168 176.298 196.454 177.891 201.596 178.534L221.789 161.956L247.881 166.197L249.243 149.619L243.117 138.439C232.907 136.126 212.18 124.231 210.909 124.231H190.615C189.526 124.231 172.101 136.126 163.933 138.439L155.538 153.475Z" fill="#A80000"/>
<path d="M145.587 173.969V189.125L171.223 182.981C174.695 187.077 181.638 195.597 181.638 196.908C181.638 198.218 193.744 199.912 199.797 200.594L223.564 182.981L254.274 187.486L255.876 169.873L248.666 157.994C236.649 155.536 212.254 142.897 210.758 142.897H186.872C185.59 142.897 165.081 155.536 155.468 157.994L145.587 173.969Z" fill="#A80000"/>
<path d="M138.953 191.03V206.834L148.76 225.2L167.481 200.427C171.344 204.698 179.07 213.582 179.07 214.949C179.07 216.316 192.542 218.081 199.277 218.793L225.725 200.427L246.229 218.793L259.898 205.125L261.681 186.759L253.658 174.372C240.286 171.809 212.531 162.413 210.867 162.413H183.231C181.804 162.413 160.646 171.809 149.948 174.372L138.953 191.03Z" fill="#A80000"/>
<path d="M138.953 217.673V237.413L167.674 229.41C171.563 234.746 179.341 245.843 179.341 247.55C179.341 249.257 192.904 251.462 199.685 252.352L226.311 229.41L260.716 235.279L262.511 212.338L254.433 196.866C240.97 193.665 213.028 181.928 211.352 181.928H183.53C182.094 181.928 160.793 193.665 150.023 196.866L138.953 217.673Z" fill="#A80000"/>
<path d="M158.855 212.049L129.002 229.075L130.734 246.326L147.011 266.133L163.208 274.412L170.214 286.899L188.223 293.927H213.504L230.82 286.899L240.604 274.412L260.257 266.133L275.842 246.326L278.266 229.075L250.486 209.928L213.504 215.018L201.561 225.624L186.145 215.018L158.855 212.049Z" fill="#A80000"/>
<path d="M179.586 270.17C179.586 267.794 186.22 261.119 188.293 258.291C192.578 260.836 201.146 266.521 201.146 268.897C201.146 271.867 203.202 298.632 202.787 300.329C202.455 301.687 196.862 308.069 194.927 310.473L187.049 305.382C185.391 294.493 179.586 272.545 179.586 270.17Z" fill="#A80000"/>
<path d="M225.194 270.17C225.194 267.794 218.745 260.271 216.672 257.443C212.387 259.988 203.818 265.673 203.818 268.049C203.818 271.018 202.006 298.632 202.42 300.329C202.752 301.687 206.705 306.834 208.64 309.238L217.915 304.533C219.574 293.644 225.194 272.546 225.194 270.17Z" fill="#A80000"/>
<path d="M104.918 250.095L126.515 226.897L143.406 224.573V247.259L127.645 254.956L118.481 276.022L129.477 291.822C152.797 296.217 179.034 322.716 187.759 331.928C196.484 341.14 196.189 378.516 176.762 390.67C168.705 362.791 149.271 352.184 149.271 352.184C141.573 369.199 152.936 365.958 176.762 395.126L126.515 393.506L103.452 333.954L104.918 313.293L90.623 284.53L104.918 250.095Z" fill="#A80000"/>
<path d="M300.656 241.993L279.322 223.357L266.054 227.6L262.43 243.719L278.192 251.416L287.356 272.482L276.359 288.282C253.039 292.677 230.468 316.34 221.743 325.552C213.018 334.764 205.821 368.794 229.074 387.13C237.131 359.251 256.565 348.644 256.565 348.644C264.263 365.659 252.9 362.418 229.074 391.586H281.229L303.117 328.687L300.656 307.621L317.15 280.073L300.656 241.993Z" fill="#A80000"/>
<path d="M146.002 233.685C146.417 231.847 142.353 227.915 142.685 226.897L149.734 222.655H171.294C174.611 222.655 182.074 225.483 185.391 226.897L198.245 231.988C202.667 229.584 211.678 224.606 212.342 223.928C213.005 223.249 224.504 220.251 230.171 218.837L260.438 222.655L258.365 229.867C252.975 230.574 241.614 231.988 239.292 231.988C236.39 231.988 223.537 239.624 222.293 240.473C221.298 241.152 217.179 246.978 215.244 249.806L203.22 257.018L193.269 252.352L188.294 242.17L171.294 231.988L146.002 233.685Z" fill="#A80000"/>
<path d="M179.768 94.9356C179.359 104.331 180.717 118.027 180.717 118.027L168.698 143.144L199.379 160.969L238.916 154.893L230.376 135.852L223.101 119.648L204.123 118.027C204.123 118.027 204.179 106.88 201.277 96.5561C199.619 90.6619 197.481 80.7566 197.481 80.7566C197.481 80.7566 204.312 75.6529 208.868 69.8185C211.714 66.1724 213.612 56.8548 213.612 56.8548L232.59 55.6394L240.814 44.7013L247.14 13.5074C242.395 17.5586 240.244 24.5266 226.58 19.9893C212.916 15.452 206.759 34.5734 205.388 44.7013C205.388 44.7013 198.3 43.8424 193.685 51.9934C189.915 58.6536 188.941 74.2747 188.941 74.2747C188.941 74.2747 180.255 83.7739 179.768 94.9356Z" fill="#1B1B1B"/>
<path d="M256.67 173.123L264.367 164.21L266.933 154.893L260.702 149.626L247.873 152.867L231.011 164.21L236.876 173.123H256.67Z" fill="#252323"/>
<path d="M268.033 196.62L275.73 187.707L278.296 178.389L272.065 173.123L259.236 176.364L242.374 187.707L248.239 196.62H268.033Z" fill="#252323"/>
<path d="M270.599 220.927L278.296 212.014L280.862 202.696L274.631 197.43L261.801 200.671L244.94 212.014L250.805 220.927H270.599Z" fill="#252323"/>
<path d="M310.048 157.305L259.919 149.671L255.109 155.704L265.369 163.982C277.31 163.833 301.576 163.64 303.107 164.065C304.639 164.491 317.464 169.551 323.686 172.028L310.048 157.305Z" fill="#2E2C2C"/>
<path d="M321.549 188.112L272.798 173.123L267.299 178.389L276.463 188.112C288.315 189.733 312.385 193.136 313.851 193.784C315.317 194.432 327.414 201.346 333.278 204.722L321.549 188.112Z" fill="#2E2C2C"/>
<path d="M318.868 226.28L275.129 198.156L268.605 201.715L275.247 213.682C286.343 218.562 308.853 228.58 310.123 229.617C311.393 230.654 321.515 240.723 326.417 245.628L318.868 226.28Z" fill="#2E2C2C"/>
<path d="M143.33 175.366L135.632 166.454L133.067 157.136L139.298 151.87L152.127 155.111L168.988 166.454L163.124 175.366H143.33Z" fill="#252323"/>
<path d="M131.967 198.863L124.27 189.951L121.704 180.633L127.935 175.366L140.764 178.607L157.626 189.951L151.761 198.863H131.967Z" fill="#252323"/>
<path d="M129.401 223.17L121.704 214.257L119.138 204.94L125.369 199.673L138.199 202.914L155.06 214.257L149.195 223.17H129.401Z" fill="#252323"/>
<path d="M89.9524 159.548L140.081 151.915L144.891 157.948L134.631 166.226C122.69 166.076 98.4244 165.884 96.8928 166.309C95.3612 166.734 82.5359 171.794 76.3147 174.271L89.9524 159.548Z" fill="#2E2C2C"/>
<path d="M78.451 190.356L127.202 175.366L132.7 180.633L123.537 190.356C111.685 191.976 87.6148 195.379 86.1486 196.027C84.6824 196.675 72.5862 203.589 66.7214 206.965L78.451 190.356Z" fill="#2E2C2C"/>
<path d="M81.1319 228.524L124.87 200.399L131.395 203.958L124.753 215.926C113.657 220.805 91.147 230.824 89.8768 231.86C88.6065 232.897 78.4849 242.967 73.5829 247.872L81.1319 228.524Z" fill="#2E2C2C"/>
<path d="M172.765 137.898C174.069 134.953 176.069 130.361 177.025 128.557L191.133 123.368C191.847 123.07 192.315 122.889 192.437 122.889C193.054 122.889 207.336 124.532 214.593 124.121L224.996 129.543L227.501 137.183L228.079 138.169L209.006 140.387C201.043 140.058 184.962 139.352 184.346 139.154C183.729 138.957 175.933 141.619 171.63 140.387L172.765 137.898Z" fill="#353535"/>
<path d="M160.634 155.675V169.297L179.89 163.775C182.497 167.456 187.712 175.113 187.712 176.291C187.712 177.469 196.805 178.991 201.352 179.605L219.204 163.775L242.27 167.824L243.474 151.994L238.058 141.318C229.032 139.109 210.708 127.75 209.585 127.75H191.643C190.681 127.75 175.276 139.109 168.055 141.318L160.634 155.675Z" fill="#1B1B1B"/>
<path d="M162.974 159.304C164.82 155.021 167.651 148.342 169.003 145.718L188.974 138.171C189.985 137.736 190.648 137.473 190.821 137.473C191.694 137.473 211.912 139.863 222.184 139.265L236.911 147.152L240.457 158.264L241.275 159.698L214.275 162.924C203.003 162.447 180.239 161.419 179.367 161.132C178.494 160.845 167.458 164.717 161.367 162.924L162.974 159.304Z" fill="#353535"/>
<path d="M151.837 175.246V189.718L174.501 183.851C177.57 187.763 183.708 195.899 183.708 197.15C183.708 198.402 194.41 200.019 199.761 200.671L220.773 183.851L247.922 188.154L249.339 171.334L242.965 159.991C232.341 157.644 210.774 145.575 209.452 145.575H188.335C187.202 145.575 169.071 157.644 160.572 159.991L151.837 175.246Z" fill="#1B1B1B"/>
<path d="M155.175 180.669C157.326 175.85 160.624 168.336 162.2 165.384L185.469 156.893C186.647 156.404 187.419 156.108 187.621 156.108C188.638 156.108 212.194 158.797 224.163 158.124L241.322 166.997L245.453 179.499L246.407 181.112L214.948 184.741C201.814 184.204 175.292 183.047 174.275 182.725C173.258 182.402 160.4 186.758 153.303 184.741L155.175 180.669Z" fill="#353535"/>
<path d="M145.972 191.538V206.629L154.641 224.167L171.192 200.511C174.607 204.59 181.438 213.073 181.438 214.379C181.438 215.684 193.347 217.37 199.302 218.049L222.683 200.511L240.81 218.049L252.894 204.997L254.471 187.459L247.377 175.631C235.556 173.184 211.019 164.21 209.547 164.21H185.115C183.854 164.21 165.15 173.184 155.692 175.631L145.972 191.538Z" fill="#1B1B1B"/>
<path d="M153.001 200.989C154.018 195.738 155.359 187.87 156.88 184.959L181.281 178.083C183.844 177.303 185.595 176.787 185.882 176.787C186.891 176.787 210.89 175.424 222.764 174.743L241.993 184.959L246.406 199.671L244.2 202.122L212.992 205.8C199.962 205.255 173.651 204.084 172.642 203.757C171.633 203.43 158.877 207.843 151.837 205.8L153.001 200.989Z" fill="#353535"/>
<path d="M145.972 216.98V235.83L171.362 228.188C174.801 233.283 181.677 243.879 181.677 245.51C181.677 247.14 193.667 249.246 199.662 250.095L223.201 228.188L253.617 233.792L255.204 211.885L248.063 197.111C236.161 194.054 211.458 182.846 209.977 182.846H185.38C184.11 182.846 165.279 194.054 155.758 197.111L145.972 216.98Z" fill="#1B1B1B"/>
<path d="M158.267 210.394C156.056 214.58 151.381 223.438 150.37 225.383C157.425 227.408 171.786 231.541 172.797 231.865C173.808 232.189 200.172 233.35 213.228 233.89L244.499 230.244L248.606 221.332L242.288 207.558L223.02 203.101C211.122 203.777 187.074 205.127 186.064 205.127C185.053 205.127 167.111 208.638 158.267 210.394Z" fill="#353535"/>
<path d="M163.566 211.609L137.175 227.868L138.706 244.341L153.095 263.255L167.415 271.161L173.609 283.085L189.529 289.796H211.879L227.188 283.085L235.838 271.161L253.212 263.255L266.989 244.341L269.133 227.868L244.574 209.583L211.879 214.445L201.321 224.573L187.692 214.445L163.566 211.609Z" fill="#232323"/>
<path d="M173.829 244.423C173.829 249.793 169.891 254.146 165.032 254.146C160.174 254.146 156.235 249.793 156.235 244.423C156.235 239.053 160.174 234.7 165.032 234.7C169.891 234.7 173.829 239.053 173.829 244.423Z" fill="black"/>
<ellipse cx="162.466" cy="240.372" rx="5.49824" ry="5.67162" fill="#FDFDFD"/>
<path d="M248.605 244.423C248.605 249.793 244.667 254.146 239.808 254.146C234.95 254.146 231.011 249.793 231.011 244.423C231.011 239.053 234.95 234.7 239.808 234.7C244.667 234.7 248.605 239.053 248.605 244.423Z" fill="black"/>
<ellipse cx="237.242" cy="240.372" rx="5.49824" ry="5.67162" fill="#FDFDFD"/>
<path d="M296.697 247.838L271.654 221.737L259.924 225.788V239.157L278.977 244.076L296.697 271.277L280.54 292.69C264.731 297.706 233.915 318.27 226.202 327.067C218.488 335.864 214.472 365.958 229.204 380.079C236.327 353.457 262.124 339.625 262.124 339.625C274.215 360.691 251.962 375.642 237.543 387.024L276.786 384.998L296.697 328.861L294.351 307.737L310.508 279.668L296.697 247.838Z" fill="#2E2C2C"/>
<path d="M181.894 267.11C181.894 264.841 187.759 258.467 189.591 255.766C193.379 258.197 200.954 263.626 200.954 265.894C200.954 268.73 201.321 295.468 200.954 297.088C200.661 298.385 197.167 303.3 195.456 305.596L188.492 300.734C187.025 290.336 181.894 269.378 181.894 267.11Z" fill="#2C2C2C"/>
<path d="M222.214 267.11C222.214 264.841 216.512 257.657 214.679 254.956C210.892 257.387 203.316 262.815 203.316 265.084C203.316 267.92 202.95 294.658 203.316 296.278C203.609 297.574 207.104 302.49 208.814 304.785L215.779 299.924C217.245 289.526 222.214 269.378 222.214 267.11Z" fill="#2C2C2C"/>
<path d="M109.932 251.889L134.975 225.788L146.705 229.839V243.208L127.652 248.127L109.932 275.328L126.089 296.741C141.898 301.757 172.714 322.321 180.427 331.118C188.141 339.915 192.157 370.009 177.425 384.13C170.302 357.508 144.506 343.676 144.506 343.676C132.414 364.743 154.667 379.693 169.086 391.075L129.844 389.049L109.932 332.912L112.278 311.788L96.1211 283.719L109.932 251.889Z" fill="#2E2C2C"/>
<path d="M152.204 232.27C152.57 230.514 148.978 226.76 149.271 225.788L155.503 221.737H174.563C177.496 221.737 184.093 224.438 187.026 225.788L198.389 230.649C202.299 228.354 210.265 223.6 210.852 222.952C211.438 222.304 221.604 219.441 226.613 218.091L253.371 221.737L251.539 228.624C246.773 229.299 236.73 230.649 234.677 230.649C232.111 230.649 220.748 237.941 219.649 238.752C218.769 239.4 215.128 244.963 213.417 247.664L202.787 254.551L193.99 250.095L189.592 240.372L174.563 230.649L152.204 232.27Z" fill="#2B2B2B"/>
<path d="M169.431 329.092L129.111 309.242V321.8L140.474 332.333L165.766 349.753L180.794 370.819V343.676L169.431 329.092Z" fill="#5B5B5B"/>
<path d="M169.431 329.092L129.111 309.242V321.8L140.474 332.333L165.766 349.753L180.794 370.819V343.676L169.431 329.092Z" fill="#3E3737"/>
<path d="M236.51 320.99L276.83 301.139V313.698L265.467 324.231L240.175 341.651L225.147 362.717V335.574L236.51 320.99Z" fill="#5B5B5B"/>
<path d="M236.51 320.99L276.83 301.139V313.698L265.467 324.231L240.175 341.651L225.147 362.717V335.574L236.51 320.99Z" fill="#3E3737"/>
<path d="M115.182 332.738L112.249 312.077L109.684 332.738L129.844 389.049L168.698 391.075L135.709 377.301L126.178 355.02L115.182 332.738Z" fill="#1B1B1B"/>
<path d="M291.125 328.282L294.424 307.621L296.624 329.092L276.83 384.998L237.609 387.024L270.599 372.845L280.129 350.563L291.125 328.282Z" fill="#1B1B1B"/>
<path d="M177.129 235C176.249 235 163.933 232.27 154.769 235L163.2 236.216L175.662 239.862L184.46 237.026L177.129 235Z" fill="#232323"/>
<path d="M228.079 234.294C228.959 234.294 241.275 231.563 250.438 234.294L242.008 235.509L229.545 239.155L224.047 237.536L228.079 234.294Z" fill="#232323"/>
<path d="M205.353 44.7013C204.987 42.2706 209.018 31.3325 209.018 31.3325C207.259 52.7226 229.301 49.1576 240.541 44.7013C237.976 48.2123 232.771 55.3153 232.477 55.6394C232.111 56.0445 214.15 56.4497 213.417 56.4497C212.83 56.4497 205.719 47.132 205.353 44.7013Z" fill="#353535"/>
<path d="M208.283 70.6287C194.501 79.0551 191.3 66.0374 191.422 58.4753C190.322 60.9059 189.455 68.6025 188.856 74.2747C188.599 76.7054 194.477 81.0267 197.654 80.7566C198.631 80.0814 202.125 77.1106 208.283 70.6287Z" fill="#353535"/>
</svg>
