<svg width="1001" height="1001" viewBox="0 0 1001 1001" fill="none" xmlns="http://www.w3.org/2000/svg">
<path d="M865.774 518.838C899.324 586.5 903.625 690.38 903.625 690.38L930.965 824.075L922.488 905.628L880.105 862.999L819.07 754.69C819.07 754.69 749.901 690.982 737.697 605.762C730.73 557.106 689.401 472.19 689.401 472.19C689.401 472.19 622.563 456.878 570.093 428.816C537.304 411.28 493.061 349.019 493.061 349.019L349.515 401.666L253.473 348.031L105.558 139.503C153.623 153.857 192.091 198.044 277.853 120.396C363.616 42.7474 471.054 163.176 514.052 233.097C514.052 233.097 563.402 203.792 623.837 248.672C673.218 285.344 731.153 396.888 731.153 396.888C731.153 396.888 825.918 438.457 865.774 518.838Z" fill="#1B1B1B"/>
<path d="M514.315 232.981C509.11 213.944 443.904 146.708 443.904 146.708C526.366 298.063 343.691 361.439 255.476 347.147C285.761 364.603 346.668 400.016 349.878 401.444C353.891 403.23 487.79 347.788 493.182 345.41C497.496 343.507 519.519 252.018 514.315 232.981Z" fill="#353535"/>
<path d="M577.024 432.87C705.79 450.029 687.028 344.056 661.551 288.925C677.542 303.204 708.938 356.904 731.779 396.611C741.567 413.627 712.377 464.426 688.131 472.75C678.747 470.963 643.387 460.486 577.024 432.87Z" fill="#353535"/>
<path d="M754.926 389.246C750.854 387.039 747.385 385.265 744.68 383.928C733.741 364.943 720.975 343.059 708.912 323.903C702.46 313.656 696.098 304.013 690.239 295.922C687.323 291.894 684.351 287.997 681.405 284.494C666.552 264.86 650.288 246.507 634.275 234.616C600.403 209.461 568.647 204.551 544.777 206.611C535.975 207.37 528.388 209.061 522.292 210.906C520.113 207.664 517.648 204.275 515.042 200.856C509.88 194.083 503.827 186.756 497.655 179.574C486.316 165.373 473.467 150.985 459.512 137.682C459.464 137.632 459.418 137.583 459.371 137.535C458.459 136.58 457.74 135.833 457.247 135.321C457 135.065 456.81 134.867 456.679 134.733L456.529 134.577L456.489 134.536L456.478 134.524L456.474 134.521C456.474 134.52 456.474 134.52 456.316 134.673C456.315 134.672 456.315 134.672 456.315 134.672L456.472 134.519L456.292 134.651C445.38 124.505 433.827 115.066 421.819 106.919C398.857 91.341 373.039 79.6763 346.015 77.9421C318.326 76.1652 290.928 84.9396 266.102 107.416C225.518 144.16 199.289 149.402 179.638 147.064C169.003 145.799 158.867 142.164 147.513 137.365C145.203 136.389 142.786 135.336 140.284 134.246C131.186 130.285 120.952 125.827 110.568 122.726L61.8772 108.186L91.2769 149.633L239.192 358.16L241.482 361.388L244.936 363.317L340.978 416.953L347.996 420.872L354.192 418.6C355.057 418.438 355.836 418.25 356.442 418.095C358.24 417.633 360.343 416.976 362.495 416.26C366.887 414.798 372.728 412.671 379.388 410.157C389.194 406.455 401.17 401.764 413.701 396.774L486.81 369.961C491.592 376.222 498.256 384.68 505.965 393.709C521.025 411.35 542.184 433.745 561.836 444.255C564.658 445.764 567.514 447.237 570.395 448.671L570.297 449.035C572.195 449.825 574.069 450.601 575.919 451.364C599.599 462.667 624.392 471.493 644.159 477.725C645.036 478.001 645.903 478.273 646.761 478.54C660.485 483.287 670.71 486.408 677.623 488.242C678.35 489.806 679.16 491.564 680.042 493.493C683.956 502.064 689.244 513.982 694.738 527.375C705.943 554.691 717.222 586.29 720.366 608.244C727.012 654.656 749 694.517 768.671 722.3C778.577 736.293 788.083 747.485 795.148 755.215C798.685 759.086 801.625 762.105 803.716 764.188C804.225 764.695 804.684 765.148 805.089 765.543L864.851 871.595L866.016 873.661L867.689 875.344L910.072 917.972L936.088 944.139L939.903 907.438L948.379 825.885L948.658 823.206L948.118 820.567L921.049 688.192C921.006 687.362 920.941 686.19 920.85 684.707C920.659 681.608 920.35 677.144 919.873 671.593C918.92 660.5 917.293 645.008 914.588 627.333C909.235 592.359 899.449 547.338 881.46 511.06C859.725 467.224 823.492 434.714 793.681 413.463C778.647 402.747 764.926 394.667 754.926 389.246Z" stroke="#A80000" stroke-width="35.0173"/>
</svg>
