<svg width="400" height="400" viewBox="0 0 400 400" fill="none" xmlns="http://www.w3.org/2000/svg">
<g clip-path="url(#clip0_148_81)">
<path d="M362.486 209.393C374.559 236.746 376.233 249.52 376.233 249.52L378.76 293.727L391.336 344.771L381.719 403.212L343.991 369.183L320.319 323.317C320.319 323.317 273.821 276.182 273.714 241.203C273.652 221.232 269.275 201.256 269.275 201.256C269.275 201.256 235.951 190.41 211.573 179.745C196.339 173.08 184.942 153.171 184.942 153.171L124.281 176.104L70.6814 146.074L51.4495 119.988L-0.0002863 34.7457C23.1336 39.8272 45.2983 67.2975 93.8741 33.7202C142.45 0.142882 188.713 43.9077 205.374 72.0262C205.374 72.0262 222.844 65.3937 250.035 82.864C272.252 97.139 294.427 146.074 294.427 146.074C294.427 146.074 348.144 176.9 362.486 209.393Z" fill="#A80000"/>
<path d="M350.315 214.303C364.954 243.88 366.831 289.288 366.831 289.288L378.761 347.73L375.062 383.378L356.568 364.744L329.935 317.4C329.935 317.4 299.753 289.551 294.427 252.3C291.387 231.031 273.353 193.912 273.353 193.912C273.353 193.912 244.188 187.219 221.292 174.952C206.984 167.287 187.679 140.071 187.679 140.071L125.041 163.084L83.133 139.639L18.589 48.4863C39.5628 54.7608 56.3484 74.0759 93.7714 40.134C131.194 6.19211 178.076 58.8346 196.838 89.3986C196.838 89.3986 218.373 76.5888 244.744 96.207C266.291 112.237 291.572 160.996 291.572 160.996C291.572 160.996 332.923 179.167 350.315 214.303Z" fill="#1B1B1B"/>
<path d="M196.953 89.348C194.682 81.0264 166.229 51.6358 166.229 51.6358C202.212 117.797 126.407 137.614 84.007 139.253C97.222 146.883 123.799 162.363 125.2 162.987C126.951 163.768 185.379 139.533 187.732 138.493C189.614 137.662 199.224 97.6696 196.953 89.348Z" fill="#353535"/>
<path d="M224.317 176.724C280.504 184.225 272.318 137.901 261.201 113.802C268.178 120.044 281.878 143.518 291.845 160.875C296.116 168.313 283.379 190.518 272.799 194.157C268.704 193.376 253.275 188.796 224.317 176.724Z" fill="#353535"/>
</g>
<defs>
<clipPath id="clip0_148_81">
<rect width="400" height="400" fill="white"/>
</clipPath>
</defs>
</svg>
