<svg width="501" height="501" viewBox="0 0 501 501" fill="none" xmlns="http://www.w3.org/2000/svg">
<path d="M432.923 260.221C449.698 294.052 451.849 345.992 451.849 345.992L465.518 412.84L461.28 453.616L440.089 432.302L409.571 378.147C409.571 378.147 374.987 346.293 368.885 303.683C365.401 279.355 344.737 236.897 344.737 236.897C344.737 236.897 311.318 229.241 285.083 215.21C268.688 206.442 246.567 175.312 246.567 175.312L174.794 201.635L126.773 174.817L52.8149 70.5535C76.8478 77.7306 96.0815 99.8239 138.963 60.9999C181.844 22.1758 235.563 82.3903 257.062 117.351C257.062 117.351 281.737 102.698 311.954 125.138C336.645 143.474 365.612 199.246 365.612 199.246C365.612 199.246 412.995 220.031 432.923 260.221Z" fill="#1B1B1B"/>
<path d="M257.193 117.293C254.591 107.774 221.988 74.156 221.988 74.156C263.219 149.834 171.882 181.522 127.774 174.376C142.917 183.104 173.37 200.81 174.975 201.524C176.982 202.417 243.931 174.696 246.627 173.507C248.784 172.556 259.796 126.811 257.193 117.293Z" fill="#353535"/>
<path d="M288.548 217.237C352.931 225.816 343.55 172.83 330.812 145.264C338.807 152.404 354.505 179.254 365.926 199.108C370.819 207.616 356.224 233.015 344.102 237.177C339.41 236.284 321.73 231.045 288.548 217.237Z" fill="#353535"/>
<path d="M377.499 195.425C375.463 194.321 373.729 193.435 372.376 192.766C366.907 183.274 360.524 172.332 354.492 162.754C351.266 157.63 348.085 152.809 345.156 148.763C343.697 146.749 342.212 144.8 340.739 143.049C333.312 133.232 325.18 124.056 317.174 118.11C300.238 105.533 284.36 103.078 272.424 104.108C268.024 104.487 264.23 105.333 261.182 106.255C260.093 104.634 258.86 102.94 257.557 101.23C254.976 97.8435 251.95 94.1801 248.864 90.5889C243.194 83.4887 236.769 76.2946 229.792 69.643C229.768 69.6183 229.745 69.5938 229.722 69.5696C229.265 69.0922 228.906 68.7184 228.66 68.4624C228.536 68.3344 228.441 68.2358 228.376 68.1684L228.301 68.0908L228.281 68.07L228.275 68.0641L228.273 68.0624C228.273 68.0622 228.273 68.0621 228.194 68.1385C228.194 68.1383 228.194 68.1381 228.193 68.1378L228.272 68.0613L228.182 68.1276C222.726 63.0547 216.95 58.3349 210.946 54.2616C199.464 46.4726 186.555 40.6402 173.044 39.7731C159.199 38.8847 145.5 43.2719 133.087 54.5102C112.795 72.8823 99.6806 75.5033 89.8551 74.3341C84.5376 73.7014 79.4697 71.8843 73.7926 69.4846C72.6376 68.9964 71.4293 68.4702 70.1779 67.9253C65.6293 65.9444 60.512 63.7158 55.32 62.1653L30.9747 54.895L45.6746 75.6184L119.632 179.882L120.777 181.496L122.504 182.461L170.525 209.278L174.034 211.238L177.132 210.102C177.565 210.021 177.954 209.927 178.257 209.849C179.156 209.619 180.208 209.29 181.284 208.932C183.48 208.201 186.4 207.138 189.73 205.881C194.633 204.03 200.621 201.684 206.887 199.189L243.441 185.782C245.832 188.913 249.164 193.142 253.019 197.657C260.549 206.477 271.128 217.675 280.954 222.93C282.365 223.684 283.793 224.42 285.234 225.138L285.185 225.32C286.134 225.715 287.071 226.103 287.995 226.484C299.835 232.136 312.232 236.549 322.116 239.665C322.554 239.803 322.988 239.939 323.417 240.072C330.279 242.446 335.391 244.006 338.848 244.923C339.211 245.705 339.616 246.584 340.057 247.548C342.014 251.834 344.658 257.793 347.405 264.49C353.008 278.148 358.647 293.947 360.219 304.924C363.542 328.13 374.536 348.061 384.371 361.952C389.325 368.948 394.077 374.544 397.61 378.41C399.379 380.345 400.849 381.854 401.894 382.896C402.149 383.15 402.378 383.376 402.581 383.574L432.462 436.599L433.044 437.633L433.88 438.474L455.072 459.788L468.08 472.872L469.988 454.521L474.226 413.745L474.365 412.405L474.095 411.086L460.56 344.898C460.539 344.483 460.507 343.897 460.461 343.156C460.366 341.606 460.211 339.374 459.973 336.598C459.496 331.052 458.683 323.306 457.33 314.469C454.654 296.982 449.76 274.471 440.766 256.332C429.899 234.414 411.782 218.159 396.876 207.534C389.36 202.175 382.499 198.135 377.499 195.425Z" stroke="#A80000" stroke-width="17.5086"/>
</svg>
