<svg width="500" height="500" viewBox="0 0 500 500" fill="none" xmlns="http://www.w3.org/2000/svg">
<rect x="73.7861" y="283.89" width="352.674" height="142.57" rx="71.2851" fill="white" fill-opacity="0.4"/>
<mask id="path-2-outside-1_571_22182" maskUnits="userSpaceOnUse" x="12.6345" y="44.8384" width="475" height="450" fill="black">
<rect fill="white" x="12.6345" y="44.8384" width="475" height="450"/>
<path fill-rule="evenodd" clip-rule="evenodd" d="M320.607 436.573C319.721 436.475 319.01 437.301 319.247 438.16L326.288 463.614C326.367 463.9 326.342 464.205 326.217 464.474L318.581 480.921C318.395 481.321 318.012 481.593 317.574 481.638L263.39 487.18C263.299 487.189 263.209 487.188 263.119 487.178L187.914 478.477C187.703 478.452 187.501 478.374 187.328 478.25L167.799 464.214C167.656 464.111 167.492 464.039 167.319 464.004L130.689 456.554C98.7978 451.551 85.6661 444.047 63.1551 392.772C58.7448 382.727 54.9706 369.045 51.8273 353.06C51.7439 352.635 51.448 352.282 51.0441 352.128L36.4768 346.579C36.3382 346.526 36.2101 346.449 36.0985 346.351L26.5179 337.968C26.3506 337.822 26.2253 337.634 26.155 337.423L20.6988 321.054C20.6563 320.927 20.6346 320.793 20.6346 320.659V301.745C20.6346 301.568 20.6721 301.394 20.7447 301.232L25.2339 291.256C25.6572 290.316 26.9731 290.263 27.4702 291.167L32.866 300.977C33.0405 301.295 33.3441 301.521 33.6981 301.597L43.0493 303.614C43.8807 303.793 44.6456 303.117 44.5597 302.27C36.7031 224.89 39.0515 130.609 51.2744 107.006C65.3278 79.8686 73.0829 63.0588 75.4491 57.4862C75.5855 57.165 75.8423 56.9148 76.171 56.7975C84.8819 53.689 101.703 49.6241 103.175 56.9816C103.261 57.4127 103.35 57.8531 103.441 58.302C105.321 67.6205 107.947 80.6353 103.175 91.3735C99.1989 100.319 91.1906 122.35 87.6119 132.447C87.5643 132.581 87.5421 132.717 87.5421 132.859V178.794C87.5421 178.876 87.5501 178.957 87.5661 179.037L103.151 257.585C103.167 257.665 103.175 257.747 103.175 257.828V276.161C103.175 276.859 103.621 277.424 104.32 277.413C139.647 276.88 355.998 273.982 418.835 281.977C419 281.998 419.143 282.049 419.286 282.135C428.813 287.837 433.604 302.051 436.014 314.907C436.169 315.73 437.067 316.183 437.817 315.808L454.991 307.221C455.145 307.144 455.281 307.037 455.391 306.906L473.494 285.298C474.042 284.644 475.07 284.719 475.518 285.446L479.425 291.796C479.547 291.993 479.611 292.22 479.611 292.451V308.721C479.611 308.892 479.576 309.062 479.508 309.219L471.539 327.607C471.501 327.695 471.453 327.779 471.396 327.856L455.343 349.465C455.264 349.571 455.169 349.665 455.06 349.741L435.478 363.564C435.237 363.734 435.065 363.981 434.989 364.266C426.219 397.21 400.467 434.119 354.037 437.083C341.24 437.9 330.173 437.628 320.607 436.573ZM119.6 406.209C119.695 406.367 119.825 406.503 119.979 406.604C134.673 416.298 152.346 418.949 163.318 418.949C181.676 418.949 212.661 396.879 223.699 389.017L223.703 389.014C224.856 388.194 225.791 387.528 226.47 387.058C232 383.241 259.587 385.234 265.841 386.864C266.256 386.972 266.543 387.315 266.699 387.715C269.692 395.351 298.619 429.804 350.91 426.453C393.149 423.746 419.063 365.268 419.069 339.543C419.069 339.537 419.069 339.54 419.069 339.534C419.071 339.344 419.515 302.899 393.944 299.601C345.411 293.342 115.602 295.189 111.364 295.223C111.233 295.224 111.243 295.242 111.121 295.292C107.518 296.768 103.466 306.32 99.7112 322.742L95.7089 366.1C95.6844 366.366 95.7454 366.632 95.8831 366.861L119.6 406.209Z"/>
</mask>
<path fill-rule="evenodd" clip-rule="evenodd" d="M320.607 436.573C319.721 436.475 319.01 437.301 319.247 438.16L326.288 463.614C326.367 463.9 326.342 464.205 326.217 464.474L318.581 480.921C318.395 481.321 318.012 481.593 317.574 481.638L263.39 487.18C263.299 487.189 263.209 487.188 263.119 487.178L187.914 478.477C187.703 478.452 187.501 478.374 187.328 478.25L167.799 464.214C167.656 464.111 167.492 464.039 167.319 464.004L130.689 456.554C98.7978 451.551 85.6661 444.047 63.1551 392.772C58.7448 382.727 54.9706 369.045 51.8273 353.06C51.7439 352.635 51.448 352.282 51.0441 352.128L36.4768 346.579C36.3382 346.526 36.2101 346.449 36.0985 346.351L26.5179 337.968C26.3506 337.822 26.2253 337.634 26.155 337.423L20.6988 321.054C20.6563 320.927 20.6346 320.793 20.6346 320.659V301.745C20.6346 301.568 20.6721 301.394 20.7447 301.232L25.2339 291.256C25.6572 290.316 26.9731 290.263 27.4702 291.167L32.866 300.977C33.0405 301.295 33.3441 301.521 33.6981 301.597L43.0493 303.614C43.8807 303.793 44.6456 303.117 44.5597 302.27C36.7031 224.89 39.0515 130.609 51.2744 107.006C65.3278 79.8686 73.0829 63.0588 75.4491 57.4862C75.5855 57.165 75.8423 56.9148 76.171 56.7975C84.8819 53.689 101.703 49.6241 103.175 56.9816C103.261 57.4127 103.35 57.8531 103.441 58.302C105.321 67.6205 107.947 80.6353 103.175 91.3735C99.1989 100.319 91.1906 122.35 87.6119 132.447C87.5643 132.581 87.5421 132.717 87.5421 132.859V178.794C87.5421 178.876 87.5501 178.957 87.5661 179.037L103.151 257.585C103.167 257.665 103.175 257.747 103.175 257.828V276.161C103.175 276.859 103.621 277.424 104.32 277.413C139.647 276.88 355.998 273.982 418.835 281.977C419 281.998 419.143 282.049 419.286 282.135C428.813 287.837 433.604 302.051 436.014 314.907C436.169 315.73 437.067 316.183 437.817 315.808L454.991 307.221C455.145 307.144 455.281 307.037 455.391 306.906L473.494 285.298C474.042 284.644 475.07 284.719 475.518 285.446L479.425 291.796C479.547 291.993 479.611 292.22 479.611 292.451V308.721C479.611 308.892 479.576 309.062 479.508 309.219L471.539 327.607C471.501 327.695 471.453 327.779 471.396 327.856L455.343 349.465C455.264 349.571 455.169 349.665 455.06 349.741L435.478 363.564C435.237 363.734 435.065 363.981 434.989 364.266C426.219 397.21 400.467 434.119 354.037 437.083C341.24 437.9 330.173 437.628 320.607 436.573ZM119.6 406.209C119.695 406.367 119.825 406.503 119.979 406.604C134.673 416.298 152.346 418.949 163.318 418.949C181.676 418.949 212.661 396.879 223.699 389.017L223.703 389.014C224.856 388.194 225.791 387.528 226.47 387.058C232 383.241 259.587 385.234 265.841 386.864C266.256 386.972 266.543 387.315 266.699 387.715C269.692 395.351 298.619 429.804 350.91 426.453C393.149 423.746 419.063 365.268 419.069 339.543C419.069 339.537 419.069 339.54 419.069 339.534C419.071 339.344 419.515 302.899 393.944 299.601C345.411 293.342 115.602 295.189 111.364 295.223C111.233 295.224 111.243 295.242 111.121 295.292C107.518 296.768 103.466 306.32 99.7112 322.742L95.7089 366.1C95.6844 366.366 95.7454 366.632 95.8831 366.861L119.6 406.209Z" fill="#98B6AF"/>
<path d="M130.689 456.554L132.184 449.2L132.018 449.167L131.851 449.14L130.689 456.554ZM63.1551 392.772L70.0258 389.756L70.0258 389.756L63.1551 392.772ZM51.2744 107.006L57.9377 110.457L57.9377 110.457L51.2744 107.006ZM103.175 56.9816L110.533 55.51L110.533 55.51L103.175 56.9816ZM103.441 58.302L96.0851 59.7863L96.0851 59.7863L103.441 58.302ZM103.175 91.3735L110.032 94.4211L110.032 94.4211L103.175 91.3735ZM354.037 437.083L353.559 429.594L353.559 429.594L354.037 437.083ZM223.699 389.017L219.356 382.898L219.346 382.906L223.699 389.017ZM223.703 389.014L228.046 395.134L228.057 395.126L223.703 389.014ZM226.47 387.058L222.208 380.883L222.208 380.883L226.47 387.058ZM350.91 426.453L350.43 418.964L350.43 418.964L350.91 426.453ZM393.944 299.601L392.984 307.043L392.984 307.043L393.944 299.601ZM99.7112 322.742L92.3962 321.069L92.2851 321.555L92.2393 322.052L99.7112 322.742ZM95.7089 366.1L88.237 365.411L95.7089 366.1ZM95.8831 366.861L89.4565 370.734L95.8831 366.861ZM111.364 295.223L111.303 287.72L111.364 295.223ZM111.121 295.292L108.277 288.348L111.121 295.292ZM419.069 339.543L411.565 339.542L419.069 339.543ZM419.069 339.534L411.566 339.436L411.566 339.436L419.069 339.534ZM265.841 386.864L267.733 379.602L265.841 386.864ZM266.699 387.715L259.713 390.453L266.699 387.715ZM119.979 406.604L124.111 400.341L119.979 406.604ZM119.6 406.209L126.027 402.336L119.6 406.209ZM435.478 363.564L431.151 357.434L435.478 363.564ZM434.989 364.266L442.24 366.196L434.989 364.266ZM455.343 349.465L449.32 344.99L455.343 349.465ZM455.06 349.741L459.388 355.871L455.06 349.741ZM471.539 327.607L478.424 330.591L471.539 327.607ZM471.396 327.856L465.372 323.381L471.396 327.856ZM479.508 309.219L486.393 312.202L479.508 309.219ZM479.425 291.796L485.816 287.863L479.425 291.796ZM87.5661 179.037L80.2058 180.498L87.5661 179.037ZM87.6119 132.447L94.6845 134.954L87.6119 132.447ZM75.4491 57.4862L82.3559 60.4189L75.4491 57.4862ZM76.171 56.7975L78.6929 63.8647L76.171 56.7975ZM43.0493 303.614L41.4672 310.949L41.4672 310.949L43.0493 303.614ZM44.5597 302.27L37.0944 303.028L44.5597 302.27ZM32.866 300.977L26.2911 304.594L32.866 300.977ZM33.6981 301.597L32.116 308.932L33.6981 301.597ZM25.2339 291.256L32.0767 294.336L25.2339 291.256ZM27.4702 291.167L20.8953 294.783L27.4702 291.167ZM26.5179 337.968L21.5767 343.616L26.5179 337.968ZM26.155 337.423L33.2736 335.05L26.155 337.423ZM36.4768 346.579L39.1481 339.567L36.4768 346.579ZM36.0985 346.351L41.0397 340.704L36.0985 346.351ZM51.8273 353.06L44.4646 354.507L51.8273 353.06ZM51.0441 352.128L53.7153 345.116L51.0441 352.128ZM473.494 285.298L479.246 290.117L473.494 285.298ZM475.518 285.446L469.127 289.379L475.518 285.446ZM167.799 464.214L163.42 470.307L167.799 464.214ZM167.319 464.004L165.823 471.357L167.319 464.004ZM454.991 307.221L451.636 300.509L454.991 307.221ZM455.391 306.906L449.639 302.087L455.391 306.906ZM187.914 478.477L187.052 485.931L187.914 478.477ZM187.328 478.25L182.949 484.343L187.328 478.25ZM436.014 314.907L443.39 313.524L436.014 314.907ZM437.817 315.808L441.172 322.52L437.817 315.808ZM263.39 487.18L264.153 494.644L263.39 487.18ZM263.119 487.178L263.981 479.724L263.119 487.178ZM418.835 281.977L417.888 289.42L418.835 281.977ZM419.286 282.135L415.432 288.573L419.286 282.135ZM318.581 480.921L325.387 484.081L318.581 480.921ZM317.574 481.638L318.337 489.103L317.574 481.638ZM20.7447 301.232L13.902 298.153L20.7447 301.232ZM104.32 277.413L104.206 269.911L104.32 277.413ZM319.247 438.16L326.479 436.159L319.247 438.16ZM320.607 436.573L321.429 429.115L320.607 436.573ZM20.6988 321.054L13.5801 323.427L20.6988 321.054ZM103.151 257.585L95.7907 259.045L103.151 257.585ZM326.288 463.614L333.52 461.614L326.288 463.614ZM326.217 464.474L333.023 467.634L326.217 464.474ZM333.52 461.614L326.479 436.159L312.015 440.16L319.056 465.615L333.52 461.614ZM325.387 484.081L333.023 467.634L319.411 461.314L311.775 477.761L325.387 484.081ZM264.153 494.644L318.337 489.103L316.81 474.173L262.626 479.715L264.153 494.644ZM187.052 485.931L262.256 494.632L263.981 479.724L188.777 471.023L187.052 485.931ZM163.42 470.307L182.949 484.343L191.707 472.157L172.179 458.121L163.42 470.307ZM129.193 463.907L165.823 471.357L168.814 456.651L132.184 449.2L129.193 463.907ZM56.2843 395.788C67.5837 421.526 77.031 437.559 88.4355 447.638C100.188 458.024 113.244 461.413 129.526 463.967L131.851 449.14C116.243 446.692 106.787 443.828 98.3733 436.392C89.6116 428.649 81.2374 415.293 70.0258 389.756L56.2843 395.788ZM44.4646 354.507C47.652 370.717 51.5534 385.013 56.2843 395.788L70.0258 389.756C65.9363 380.441 62.2892 367.373 59.19 351.612L44.4646 354.507ZM33.8056 353.591L48.3728 359.141L53.7153 345.116L39.1481 339.567L33.8056 353.591ZM21.5767 343.616L31.1573 351.999L41.0397 340.704L31.4591 332.321L21.5767 343.616ZM13.5801 323.427L19.0364 339.796L33.2736 335.05L27.8174 318.681L13.5801 323.427ZM13.1309 301.745V320.659H28.1383V301.745H13.1309ZM18.3911 288.177L13.902 298.153L27.5875 304.311L32.0767 294.336L18.3911 288.177ZM39.4408 297.361L34.045 287.551L20.8953 294.783L26.2911 304.594L39.4408 297.361ZM44.6314 296.279L35.2802 294.262L32.116 308.932L41.4672 310.949L44.6314 296.279ZM44.6112 103.556C40.9087 110.705 38.3516 122.165 36.5285 135.582C34.6661 149.289 33.4587 165.98 32.8872 184.237C31.7441 220.757 33.1322 264.004 37.0944 303.028L52.025 301.512C48.1306 263.156 46.7646 220.573 47.8873 184.706C48.4487 166.77 49.6291 150.63 51.3992 137.602C53.2087 124.286 55.5287 115.109 57.9377 110.457L44.6112 103.556ZM68.5422 54.5535C66.2816 59.8776 58.6229 76.4986 44.6112 103.556L57.9377 110.457C72.0328 83.2387 79.8842 66.24 82.3559 60.4189L68.5422 54.5535ZM110.533 55.51C109.459 50.1418 105.405 47.3862 101.815 46.255C98.5013 45.2109 94.8305 45.2154 91.7258 45.4904C85.3589 46.0542 78.3045 48.069 73.649 49.7303L78.6929 63.8647C82.7483 62.4175 88.4601 60.8457 93.0496 60.4393C95.4231 60.2291 96.778 60.4027 97.3046 60.5686C97.5545 60.6473 96.1547 60.1427 95.8169 58.4532L110.533 55.51ZM110.796 56.8177C110.705 56.3676 110.618 55.9337 110.533 55.51L95.8169 58.4532C95.9046 58.8918 95.9947 59.3385 96.0851 59.7863L110.796 56.8177ZM110.032 94.4211C115.947 81.1126 112.568 65.5985 110.796 56.8177L96.0851 59.7863C98.0741 69.6426 99.9481 80.158 96.3179 88.326L110.032 94.4211ZM94.6845 134.954C98.2924 124.774 106.199 103.046 110.032 94.4211L96.3179 88.326C92.1991 97.5933 84.0887 119.926 80.5393 129.94L94.6845 134.954ZM95.0458 178.794V132.859H80.0384V178.794H95.0458ZM110.511 256.125L94.9263 177.577L80.2058 180.498L95.7907 259.045L110.511 256.125ZM110.679 276.161V257.828H95.6711V276.161H110.679ZM419.782 274.533C387.802 270.464 317.479 269.201 251.285 268.993C184.859 268.785 121.888 269.643 104.206 269.911L104.433 284.916C122.079 284.65 184.946 283.793 251.238 284.001C317.759 284.209 387.031 285.494 417.888 289.42L419.782 274.533ZM443.39 313.524C442.123 306.769 440.18 299.349 437.141 292.714C434.141 286.164 429.74 279.647 423.14 275.696L415.432 288.573C418.359 290.325 421.116 293.766 423.497 298.963C425.838 304.074 427.496 310.19 428.639 316.29L443.39 313.524ZM451.636 300.509L434.461 309.097L441.172 322.52L458.347 313.932L451.636 300.509ZM467.742 280.479L449.639 302.087L461.142 311.725L479.246 290.117L467.742 280.479ZM485.816 287.863L481.908 281.513L469.127 289.379L473.035 295.729L485.816 287.863ZM487.115 308.721V292.451H472.107V308.721H487.115ZM478.424 330.591L486.393 312.202L472.623 306.235L464.654 324.624L478.424 330.591ZM461.367 353.94L477.419 332.33L465.372 323.381L449.32 344.99L461.367 353.94ZM439.805 369.694L459.388 355.871L450.733 343.611L431.151 357.434L439.805 369.694ZM354.515 444.571C405.432 441.321 433.023 400.819 442.24 366.196L427.738 362.335C419.414 393.602 395.503 426.917 353.559 429.594L354.515 444.571ZM319.785 444.032C329.835 445.14 341.341 445.412 354.515 444.571L353.559 429.594C341.139 430.387 330.511 430.116 321.429 429.115L319.785 444.032ZM115.847 412.868C132.171 423.637 151.449 426.453 163.318 426.453V411.445C153.242 411.445 137.175 408.959 124.111 400.341L115.847 412.868ZM163.318 426.453C169.25 426.453 175.63 424.709 181.655 422.375C187.779 420.003 194.069 416.809 199.965 413.453C211.755 406.743 222.54 399.055 228.052 395.129L219.346 382.906C213.82 386.841 203.594 394.12 192.542 400.41C187.017 403.554 181.428 406.369 176.235 408.381C170.942 410.431 166.565 411.445 163.318 411.445V426.453ZM228.042 395.137L228.046 395.134L219.361 382.895L219.356 382.898L228.042 395.137ZM228.057 395.126C229.229 394.291 230.11 393.664 230.733 393.234L222.208 380.883C221.471 381.392 220.482 382.096 219.35 382.903L228.057 395.126ZM230.733 393.234C230.282 393.545 230.247 393.421 231.227 393.188C232.065 392.989 233.248 392.803 234.776 392.659C237.824 392.374 241.657 392.311 245.683 392.42C253.967 392.642 261.702 393.539 263.949 394.125L267.733 379.602C263.726 378.558 254.541 377.645 246.085 377.418C241.741 377.301 237.25 377.354 233.375 377.718C231.442 377.899 229.513 378.17 227.76 378.587C226.148 378.969 224.041 379.617 222.208 380.883L230.733 393.234ZM259.713 390.453C260.979 393.683 264.114 398.096 268.269 402.568C272.617 407.248 278.62 412.574 286.242 417.505C301.533 427.397 323.412 435.734 351.39 433.941L350.43 418.964C326.116 420.523 307.386 413.309 294.393 404.904C287.872 400.686 282.815 396.176 279.264 392.353C277.488 390.442 276.123 388.739 275.157 387.374C274.674 386.692 274.312 386.124 274.055 385.682C273.928 385.462 273.835 385.288 273.771 385.16C273.706 385.028 273.683 384.969 273.686 384.977L259.713 390.453ZM351.39 433.941C375.993 432.364 394.835 414.702 407.127 395.706C419.438 376.68 426.569 354.23 426.572 339.545L411.565 339.542C411.563 350.581 405.734 370.232 394.527 387.553C383.3 404.904 368.066 417.834 350.43 418.964L351.39 433.941ZM426.572 339.632C426.576 339.276 426.7 329.144 423.237 318.426C419.807 307.813 411.995 294.363 394.904 292.159L392.984 307.043C401.464 308.137 406.216 314.559 408.956 323.04C411.663 331.417 411.563 339.603 411.566 339.436L426.572 339.632ZM394.904 292.159C370.057 288.955 299.878 287.864 236.08 287.549C171.983 287.232 113.433 287.703 111.303 287.72L111.425 302.727C113.533 302.71 172.007 302.24 236.006 302.556C300.306 302.873 369.299 303.989 392.984 307.043L394.904 292.159ZM108.277 288.348C105.387 289.532 103.434 291.815 102.185 293.611C100.826 295.566 99.6281 297.937 98.5493 300.519C96.383 305.703 94.3188 312.66 92.3962 321.069L107.026 324.414C108.858 316.401 110.697 310.372 112.396 306.305C113.25 304.262 113.975 302.943 114.507 302.178C115.149 301.255 115.054 301.79 113.965 302.236L108.277 288.348ZM103.181 366.79L107.183 323.431L92.2393 322.052L88.237 365.411L103.181 366.79ZM126.027 402.336L102.31 362.987L89.4565 370.734L113.174 410.083L126.027 402.336ZM88.237 365.411C88.0653 367.27 88.4927 369.135 89.4565 370.734L102.31 362.987C102.998 364.129 103.303 365.462 103.181 366.79L88.237 365.411ZM111.303 287.72C111.135 287.721 110.757 287.728 110.289 287.791C109.731 287.866 109.172 288.002 108.619 288.208C108.216 288.358 107.847 288.542 107.956 288.491C107.987 288.476 108.113 288.416 108.277 288.348L113.965 302.236C114.19 302.144 114.36 302.063 114.428 302.031C114.573 301.961 114.233 302.132 113.859 302.271C113.335 302.466 112.805 302.595 112.286 302.665C111.858 302.722 111.527 302.726 111.425 302.727L111.303 287.72ZM426.572 339.545C426.572 339.529 426.572 339.509 426.572 339.486C426.572 339.475 426.572 339.466 426.572 339.461C426.572 339.46 426.572 339.46 426.572 339.46C426.572 339.46 426.572 339.46 426.572 339.46C426.572 339.46 426.572 339.46 426.572 339.46C426.572 339.461 426.572 339.461 426.572 339.462C426.572 339.464 426.572 339.469 426.572 339.476C426.572 339.491 426.572 339.51 426.572 339.533C426.572 339.554 426.572 339.573 426.572 339.587C426.572 339.601 426.572 339.611 426.572 339.618C426.572 339.625 426.572 339.63 426.572 339.632L411.566 339.436C411.566 339.441 411.565 339.462 411.565 339.487C411.565 339.502 411.565 339.521 411.565 339.543C411.565 339.566 411.565 339.586 411.565 339.602C411.565 339.608 411.565 339.614 411.565 339.616C411.565 339.617 411.565 339.618 411.565 339.618C411.565 339.619 411.565 339.618 411.565 339.617C411.565 339.613 411.565 339.605 411.565 339.594C411.565 339.573 411.565 339.555 411.565 339.542L426.572 339.545ZM263.949 394.125C261.235 393.418 260.077 391.381 259.713 390.453L273.686 384.977C273.009 383.249 271.278 380.526 267.733 379.602L263.949 394.125ZM124.111 400.341C124.902 400.863 125.552 401.548 126.027 402.336L113.174 410.083C113.839 411.187 114.748 412.143 115.847 412.868L124.111 400.341ZM431.151 357.434C429.475 358.617 428.267 360.349 427.738 362.335L442.24 366.196C441.863 367.613 440.999 368.852 439.805 369.694L431.151 357.434ZM449.32 344.99C449.715 344.459 450.192 343.993 450.733 343.611L459.388 355.871C460.146 355.336 460.814 354.684 461.367 353.94L449.32 344.99ZM464.654 324.624C464.845 324.183 465.086 323.767 465.372 323.381L477.419 332.33C477.82 331.791 478.157 331.207 478.424 330.591L464.654 324.624ZM472.107 308.721C472.107 307.866 472.283 307.02 472.623 306.235L486.393 312.202C486.869 311.103 487.115 309.919 487.115 308.721H472.107ZM473.035 295.729C472.428 294.743 472.107 293.609 472.107 292.451H487.115C487.115 290.831 486.665 289.243 485.816 287.863L473.035 295.729ZM80.0384 178.794C80.0384 179.366 80.0945 179.936 80.2058 180.498L94.9263 177.577C95.0058 177.978 95.0458 178.385 95.0458 178.794H80.0384ZM80.5393 129.94C80.1936 130.916 80.0384 131.902 80.0384 132.859H95.0458C95.0458 133.531 94.9351 134.247 94.6845 134.954L80.5393 129.94ZM82.3559 60.4189C81.7098 61.9407 80.4271 63.2459 78.6929 63.8647L73.649 49.7303C71.2575 50.5838 69.4612 52.3893 68.5422 54.5535L82.3559 60.4189ZM41.4672 310.949C47.2204 312.19 52.6318 307.489 52.025 301.512L37.0944 303.028C36.6593 298.744 40.541 295.397 44.6314 296.279L41.4672 310.949ZM26.2911 304.594C27.5129 306.815 29.6378 308.398 32.116 308.932L35.2802 294.262C37.0504 294.644 38.5681 295.774 39.4408 297.361L26.2911 304.594ZM32.0767 294.336C29.9602 299.039 23.3808 299.302 20.8953 294.783L34.045 287.551C30.5654 281.224 21.3541 281.593 18.3911 288.177L32.0767 294.336ZM31.4591 332.321C32.2957 333.053 32.9221 333.995 33.2736 335.05L19.0364 339.796C19.5285 341.272 20.4054 342.591 21.5767 343.616L31.4591 332.321ZM39.1481 339.567C39.8411 339.831 40.4816 340.216 41.0397 340.704L31.1573 351.999C31.9386 352.682 32.8354 353.221 33.8056 353.591L39.1481 339.567ZM59.19 351.612C58.6108 348.666 56.5552 346.198 53.7153 345.116L48.3728 359.141C46.3408 358.366 44.8771 356.605 44.4646 354.507L59.19 351.612ZM479.246 290.117C476.505 293.389 471.364 293.014 469.127 289.379L481.908 281.513C478.777 276.424 471.58 275.899 467.742 280.479L479.246 290.117ZM172.179 458.121C171.174 457.398 170.027 456.897 168.814 456.651L165.823 471.357C164.957 471.181 164.138 470.823 163.42 470.307L172.179 458.121ZM458.347 313.932C459.42 313.396 460.372 312.644 461.142 311.725L449.639 302.087C450.189 301.43 450.869 300.893 451.636 300.509L458.347 313.932ZM188.777 471.023C189.834 471.145 190.843 471.535 191.707 472.157L182.949 484.343C184.159 485.213 185.571 485.759 187.052 485.931L188.777 471.023ZM428.639 316.29C429.7 321.95 435.907 325.153 441.172 322.52L434.461 309.097C438.228 307.213 442.637 309.511 443.39 313.524L428.639 316.29ZM262.626 479.715C263.077 479.669 263.531 479.672 263.981 479.724L262.256 494.632C262.886 494.705 263.522 494.709 264.153 494.644L262.626 479.715ZM417.888 289.42C417.468 289.367 417.024 289.267 416.574 289.108C416.126 288.95 415.744 288.76 415.432 288.573L423.14 275.696C422.161 275.11 421.035 274.692 419.782 274.533L417.888 289.42ZM311.775 477.761C312.703 475.761 314.617 474.398 316.81 474.173L318.337 489.103C321.408 488.789 324.087 486.881 325.387 484.081L311.775 477.761ZM28.1383 301.745C28.1383 302.63 27.9506 303.505 27.5875 304.311L13.902 298.153C13.3937 299.282 13.1309 300.507 13.1309 301.745H28.1383ZM95.6711 276.161C95.6711 279.959 98.5344 285.005 104.433 284.916L104.206 269.911C106.068 269.882 107.885 270.687 109.131 272.11C110.289 273.432 110.679 274.948 110.679 276.161H95.6711ZM326.479 436.159C327.676 440.485 324.099 444.507 319.785 444.032L321.429 429.115C315.343 428.444 310.343 434.116 312.015 440.16L326.479 436.159ZM27.8174 318.681C28.0299 319.319 28.1383 319.986 28.1383 320.659H13.1309C13.1309 321.599 13.2826 322.534 13.5801 323.427L27.8174 318.681ZM95.7907 259.045C95.7112 258.645 95.6711 258.237 95.6711 257.828H110.679C110.679 257.256 110.622 256.686 110.511 256.125L95.7907 259.045ZM319.056 465.615C318.66 464.184 318.786 462.66 319.411 461.314L333.023 467.634C333.897 465.75 334.074 463.616 333.52 461.614L319.056 465.615Z" fill="#45504D" mask="url(#path-2-outside-1_571_22182)"/>
<path d="M434.589 364.242L436.465 316.093L455.224 306.714L474.609 283.577L480.236 291.081V307.964L471.482 327.974L455.849 349.86L434.589 364.242Z" fill="#779FA5"/>
<path d="M33.7663 301.086L25.6373 287.954L20.0095 301.086V321.096L25.6373 337.979L36.2675 346.733L52.5256 352.986L45.0219 304.212L33.7663 301.086Z" fill="#779FA5"/>
<path d="M102.549 93.2495L106.926 81.3686L105.051 65.3446L102.549 53.4638C93.3781 52.0047 83.1653 51.5879 75.6616 57.2157C45.0215 115.369 47.5227 112.868 43.1449 143.899C42.728 154.53 40.019 174.774 40.019 213.543C40.019 266.069 41.5595 296.317 53.1504 359.24C61.6743 405.512 85.0413 439.279 101.299 448.033L111.304 453.036L125.061 456.162L167.582 464.291L187.592 478.673L264.504 487.819L318.906 482.191L327.035 464.683L318.906 436.778L276.385 419.035L259.502 402.777H237.616L186.341 431.541L132.564 427.164C131.105 427.372 126.311 427.664 118.807 427.164C111.304 426.664 89.8347 389.437 80.0382 370.886C80.0382 359.005 80.9137 330.116 84.4154 309.606C87.9171 289.096 99.84 277.741 104.426 274.823L102.55 254.813L87.5419 181.652V133.503L102.549 93.2495Z" fill="#517A70"/>
<path d="M215.105 415.283C206.143 419.661 187.842 428.54 186.341 429.04H175.086L131.939 425.914L169.458 446.549L220.733 465.933L265.755 462.182L326.41 465.933L318.281 437.169L277.636 419.661L258.877 403.403L238.867 401.527L215.105 415.283Z" fill="#66A293"/>
<path d="M72.6386 114.672L99.7116 53.9084C99.9168 53.4478 100.374 53.1511 100.878 53.1511C101.487 53.1511 102.011 53.5808 102.13 54.1777L106.769 77.3717C107.281 79.931 107.054 82.5831 106.115 85.0184L88.4638 130.802C87.855 132.381 87.5428 134.058 87.5428 135.751V178.037C87.5428 178.985 87.641 179.931 87.8356 180.86L103.389 255.037L103.41 255.138C103.679 256.419 103.991 257.898 103.109 258.85C102.39 259.625 101.229 259.672 100.106 259.624C97.6376 259.518 95.8398 261.662 94.2524 263.555L94.2506 263.558C90.3296 268.234 87.5792 274.237 85.674 280.779C83.5503 288.071 67.9503 290.457 65.4689 283.279C65.1805 282.444 65.0667 281.56 65.1344 280.68L68.1583 241.369L65.0835 160.195C65.0491 159.286 65.1049 158.376 65.2502 157.478L71.6243 118.074C71.8141 116.901 72.155 115.758 72.6386 114.672Z" fill="#66A193"/>
<ellipse cx="303.274" cy="475.859" rx="11.8809" ry="4.37716" fill="#436B61"/>
<ellipse cx="267.006" cy="477.11" rx="11.8809" ry="4.37716" fill="#436B61"/>
<ellipse cx="235.741" cy="475.859" rx="11.8809" ry="4.37716" fill="#436B61"/>
<ellipse cx="198.222" cy="472.108" rx="11.8809" ry="4.37716" fill="#436B61"/>
<path d="M272.634 423.959L257.627 412.703C251.217 413.223 237.345 412.397 232.614 412.703L221.359 427.085L191.344 438.966L157.577 441.467L116.307 427.085H130.689L188.218 428.961L236.992 401.448H260.128L276.386 418.956L319.532 437.09V438.966L272.634 423.959Z" fill="#517A70"/>
<rect x="111.305" y="323.284" width="23.7617" height="92.5456" rx="11.8809" transform="rotate(-30 111.305 323.284)" fill="#D9D9D9" fill-opacity="0.3"/>
<rect x="142.57" y="311.107" width="19.4167" height="75.623" rx="9.70836" transform="rotate(-30 142.57 311.107)" fill="#D9D9D9" fill-opacity="0.3"/>
</svg>
