<svg width="1000" height="1001" viewBox="0 0 1000 1001" fill="none" xmlns="http://www.w3.org/2000/svg">
<rect x="147.573" y="568.069" width="705.348" height="285.141" rx="142.57" fill="white" fill-opacity="0.4"/>
<mask id="path-2-outside-1_571_22182" maskUnits="userSpaceOnUse" x="25.27" y="89.9666" width="949" height="900" fill="black">
<rect fill="white" x="25.27" y="89.9666" width="949" height="900"/>
<path fill-rule="evenodd" clip-rule="evenodd" d="M641.215 873.436C639.444 873.241 638.021 874.891 638.496 876.609L652.577 927.518C652.735 928.09 652.685 928.7 652.435 929.238L637.163 962.131C636.792 962.931 636.026 963.476 635.149 963.566L526.781 974.649C526.6 974.668 526.419 974.666 526.239 974.646L375.83 957.243C375.407 957.194 375.003 957.038 374.658 956.789L335.6 928.717C335.313 928.511 334.986 928.368 334.639 928.297L261.379 913.397C197.597 903.392 171.334 888.384 126.312 785.834C117.491 765.743 109.943 738.381 103.656 706.409C103.49 705.561 102.898 704.855 102.09 704.547L72.9545 693.448C72.6773 693.342 72.4211 693.188 72.1979 692.993L53.0366 676.227C52.702 675.934 52.4514 675.557 52.3108 675.135L41.3984 642.398C41.3134 642.143 41.27 641.876 41.27 641.607V603.781C41.27 603.427 41.3451 603.077 41.4903 602.754L50.4686 582.803C51.3152 580.921 53.947 580.816 54.9412 582.624L65.7328 602.245C66.0819 602.879 66.689 603.332 67.3971 603.484L86.1002 607.518C87.763 607.877 89.2928 606.523 89.121 604.831C73.4079 450.069 78.1046 261.508 102.55 214.302C130.657 160.027 146.167 126.407 150.9 115.262C151.173 114.62 151.686 114.119 152.344 113.885C169.765 107.668 203.408 99.5379 206.351 114.253C206.524 115.115 206.701 115.996 206.883 116.894C210.644 135.531 215.896 161.56 206.351 183.037C198.399 200.928 182.383 244.989 175.225 265.184C175.13 265.452 175.086 265.723 175.086 266.007V357.877C175.086 358.041 175.102 358.204 175.134 358.364L206.303 515.46C206.335 515.62 206.351 515.783 206.351 515.946V552.611C206.351 554.008 207.245 555.138 208.641 555.117C279.299 554.049 711.997 548.254 837.671 564.243C838.001 564.285 838.287 564.388 838.573 564.559C857.626 575.965 867.21 604.392 872.03 630.104C872.338 631.751 874.135 632.656 875.634 631.907L909.984 614.732C910.29 614.579 910.562 614.364 910.782 614.101L946.989 570.887C948.085 569.578 950.142 569.728 951.036 571.182L958.852 583.882C959.094 584.276 959.223 584.73 959.223 585.193V617.733C959.223 618.075 959.152 618.413 959.016 618.727L943.079 655.505C943.003 655.681 942.907 655.848 942.792 656.002L910.687 699.22C910.529 699.433 910.338 699.619 910.122 699.772L870.957 727.418C870.475 727.758 870.131 728.252 869.979 728.822C852.438 794.711 800.935 868.528 708.074 874.455C682.482 876.089 660.347 875.545 641.215 873.436ZM239.203 812.71C239.393 813.026 239.652 813.297 239.96 813.5C269.347 832.886 304.692 838.188 326.636 838.188C363.352 838.188 425.323 794.049 447.399 778.325C449.708 776.68 451.58 775.347 452.942 774.407C464.001 766.773 519.175 770.758 531.683 774.017C532.514 774.234 533.086 774.92 533.4 775.72C539.384 790.992 597.238 859.898 701.821 853.195C786.299 847.781 838.127 730.825 838.138 679.376C838.138 679.365 838.138 679.37 838.138 679.358C838.143 678.979 839.031 606.087 787.889 599.492C690.823 586.974 231.204 590.667 222.729 590.737C222.466 590.739 222.486 590.775 222.243 590.874C215.037 593.826 206.933 612.927 199.425 645.768L191.419 732.49C191.37 733.021 191.492 733.554 191.768 734.011L239.203 812.71Z"/>
</mask>
<path fill-rule="evenodd" clip-rule="evenodd" d="M641.215 873.436C639.444 873.241 638.021 874.891 638.496 876.609L652.577 927.518C652.735 928.09 652.685 928.7 652.435 929.238L637.163 962.131C636.792 962.931 636.026 963.476 635.149 963.566L526.781 974.649C526.6 974.668 526.419 974.666 526.239 974.646L375.83 957.243C375.407 957.194 375.003 957.038 374.658 956.789L335.6 928.717C335.313 928.511 334.986 928.368 334.639 928.297L261.379 913.397C197.597 903.392 171.334 888.384 126.312 785.834C117.491 765.743 109.943 738.381 103.656 706.409C103.49 705.561 102.898 704.855 102.09 704.547L72.9545 693.448C72.6773 693.342 72.4211 693.188 72.1979 692.993L53.0366 676.227C52.702 675.934 52.4514 675.557 52.3108 675.135L41.3984 642.398C41.3134 642.143 41.27 641.876 41.27 641.607V603.781C41.27 603.427 41.3451 603.077 41.4903 602.754L50.4686 582.803C51.3152 580.921 53.947 580.816 54.9412 582.624L65.7328 602.245C66.0819 602.879 66.689 603.332 67.3971 603.484L86.1002 607.518C87.763 607.877 89.2928 606.523 89.121 604.831C73.4079 450.069 78.1046 261.508 102.55 214.302C130.657 160.027 146.167 126.407 150.9 115.262C151.173 114.62 151.686 114.119 152.344 113.885C169.765 107.668 203.408 99.5379 206.351 114.253C206.524 115.115 206.701 115.996 206.883 116.894C210.644 135.531 215.896 161.56 206.351 183.037C198.399 200.928 182.383 244.989 175.225 265.184C175.13 265.452 175.086 265.723 175.086 266.007V357.877C175.086 358.041 175.102 358.204 175.134 358.364L206.303 515.46C206.335 515.62 206.351 515.783 206.351 515.946V552.611C206.351 554.008 207.245 555.138 208.641 555.117C279.299 554.049 711.997 548.254 837.671 564.243C838.001 564.285 838.287 564.388 838.573 564.559C857.626 575.965 867.21 604.392 872.03 630.104C872.338 631.751 874.135 632.656 875.634 631.907L909.984 614.732C910.29 614.579 910.562 614.364 910.782 614.101L946.989 570.887C948.085 569.578 950.142 569.728 951.036 571.182L958.852 583.882C959.094 584.276 959.223 584.73 959.223 585.193V617.733C959.223 618.075 959.152 618.413 959.016 618.727L943.079 655.505C943.003 655.681 942.907 655.848 942.792 656.002L910.687 699.22C910.529 699.433 910.338 699.619 910.122 699.772L870.957 727.418C870.475 727.758 870.131 728.252 869.979 728.822C852.438 794.711 800.935 868.528 708.074 874.455C682.482 876.089 660.347 875.545 641.215 873.436ZM239.203 812.71C239.393 813.026 239.652 813.297 239.96 813.5C269.347 832.886 304.692 838.188 326.636 838.188C363.352 838.188 425.323 794.049 447.399 778.325C449.708 776.68 451.58 775.347 452.942 774.407C464.001 766.773 519.175 770.758 531.683 774.017C532.514 774.234 533.086 774.92 533.4 775.72C539.384 790.992 597.238 859.898 701.821 853.195C786.299 847.781 838.127 730.825 838.138 679.376C838.138 679.365 838.138 679.37 838.138 679.358C838.143 678.979 839.031 606.087 787.889 599.492C690.823 586.974 231.204 590.667 222.729 590.737C222.466 590.739 222.486 590.775 222.243 590.874C215.037 593.826 206.933 612.927 199.425 645.768L191.419 732.49C191.37 733.021 191.492 733.554 191.768 734.011L239.203 812.71Z" fill="#98B6AF"/>
<path d="M261.379 913.397L264.37 898.69L264.038 898.623L263.704 898.571L261.379 913.397ZM126.312 785.834L140.053 779.801L140.053 779.801L126.312 785.834ZM102.55 214.302L115.877 221.203L115.877 221.203L102.55 214.302ZM206.351 114.253L221.067 111.31L221.067 111.31L206.351 114.253ZM206.883 116.894L221.594 113.925L221.594 113.925L206.883 116.894ZM206.351 183.037L220.065 189.132L220.065 189.132L206.351 183.037ZM708.074 874.455L709.03 889.432L709.03 889.432L708.074 874.455ZM447.399 778.325L438.693 766.101L438.693 766.101L447.399 778.325ZM452.942 774.407L444.416 762.056L444.416 762.056L452.942 774.407ZM701.821 853.195L702.78 868.172L702.78 868.172L701.821 853.195ZM787.889 599.492L785.969 614.376L785.969 614.376L787.889 599.492ZM199.425 645.768L184.795 642.423L184.572 643.395L184.481 644.388L199.425 645.768ZM191.419 732.49L206.363 733.87L191.419 732.49ZM191.768 734.011L178.915 741.758L191.768 734.011ZM222.729 590.737L222.852 605.744L222.729 590.737ZM222.243 590.874L216.555 576.987L222.243 590.874ZM838.138 679.376L853.146 679.38L838.138 679.376ZM838.138 679.358L853.144 679.554L838.138 679.358ZM531.683 774.017L535.467 759.495L531.683 774.017ZM533.4 775.72L547.373 770.245L533.4 775.72ZM239.96 813.5L231.696 826.027L239.96 813.5ZM239.203 812.71L252.056 804.963L239.203 812.71ZM870.957 727.418L879.611 739.679L870.957 727.418ZM869.979 728.822L855.477 724.961L869.979 728.822ZM910.687 699.22L922.734 708.169L910.687 699.22ZM910.122 699.772L901.467 687.512L910.122 699.772ZM943.079 655.505L956.85 661.472L943.079 655.505ZM942.792 656.002L930.745 647.052L942.792 656.002ZM958.852 583.882L946.07 591.747L958.852 583.882ZM175.134 358.364L189.854 355.443L175.134 358.364ZM175.225 265.184L189.371 270.197L175.225 265.184ZM150.9 115.262L137.086 109.397L137.086 109.397L150.9 115.262ZM152.344 113.885L157.387 128.019L157.387 128.019L152.344 113.885ZM86.1002 607.518L89.2643 592.848L86.1002 607.518ZM89.121 604.831L104.052 603.315L89.121 604.831ZM65.7328 602.245L52.5831 609.477L52.5831 609.477L65.7328 602.245ZM67.3971 603.484L64.2329 618.154L67.3971 603.484ZM50.4686 582.803L64.1542 588.961L50.4686 582.803ZM54.9412 582.624L68.0909 575.391L54.9412 582.624ZM53.0366 676.227L43.1542 687.521L53.0366 676.227ZM52.3108 675.135L38.0736 679.881L52.3108 675.135ZM72.9545 693.448L67.612 707.472L72.9545 693.448ZM72.1979 692.993L82.0803 681.699L72.1979 692.993ZM103.656 706.409L88.931 709.305L103.656 706.409ZM102.09 704.547L107.432 690.523L102.09 704.547ZM946.989 570.887L958.492 580.525L946.989 570.887ZM951.036 571.182L938.255 579.047L951.036 571.182ZM335.6 928.717L344.359 916.531L335.6 928.717ZM334.639 928.297L331.648 943.004L334.639 928.297ZM909.984 614.732L903.272 601.309L909.984 614.732ZM910.782 614.101L899.279 604.463L910.782 614.101ZM375.83 957.243L374.105 972.151L375.83 957.243ZM374.658 956.789L383.416 944.603L374.658 956.789ZM872.03 630.104L857.279 632.869L872.03 630.104ZM875.634 631.907L868.923 618.484L868.923 618.484L875.634 631.907ZM526.781 974.649L528.307 989.579L526.781 974.649ZM526.239 974.646L527.964 959.738L526.239 974.646ZM837.671 564.243L839.565 549.356L837.671 564.243ZM838.573 564.559L846.281 551.682L838.573 564.559ZM637.163 962.131L650.775 968.451L637.163 962.131ZM635.149 963.566L636.676 978.496L635.149 963.566ZM41.4903 602.754L55.1759 608.913L41.4903 602.754ZM208.641 555.117L208.414 540.111L208.641 555.117ZM638.496 876.609L624.032 880.61L638.496 876.609ZM641.215 873.436L639.571 888.353L639.571 888.353L641.215 873.436ZM41.3984 642.398L27.1611 647.144L41.3984 642.398ZM206.303 515.46L191.583 518.38L206.303 515.46ZM652.577 927.518L667.041 923.517L652.577 927.518ZM652.435 929.238L638.823 922.918L652.435 929.238ZM667.041 923.517L652.96 872.609L624.032 880.61L638.113 931.519L667.041 923.517ZM650.775 968.451L666.047 935.558L638.823 922.918L623.551 955.811L650.775 968.451ZM528.307 989.579L636.676 978.496L633.622 948.637L525.254 959.72L528.307 989.579ZM374.105 972.151L524.514 989.553L527.964 959.738L377.555 942.335L374.105 972.151ZM326.842 940.904L365.899 968.976L383.416 944.603L344.359 916.531L326.842 940.904ZM258.388 928.103L331.648 943.004L337.63 913.591L264.37 898.69L258.388 928.103ZM112.57 791.867C135.169 843.342 154.064 875.409 176.873 895.565C200.377 916.337 226.489 923.115 259.053 928.223L263.704 898.571C232.487 893.674 213.576 887.945 196.748 873.074C179.225 857.588 162.476 830.876 140.053 779.801L112.57 791.867ZM88.931 709.305C95.3057 741.725 103.109 770.315 112.57 791.867L140.053 779.801C131.874 761.171 124.58 735.037 118.382 703.514L88.931 709.305ZM67.612 707.472L96.7473 718.571L107.432 690.523L78.2971 679.424L67.612 707.472ZM43.1542 687.521L62.3155 704.287L82.0803 681.699L62.9191 664.933L43.1542 687.521ZM27.1611 647.144L38.0736 679.881L66.5481 670.39L55.6356 637.652L27.1611 647.144ZM26.2626 603.781V641.607H56.2774V603.781H26.2626ZM36.7831 576.644L27.8048 596.596L55.1759 608.913L64.1542 588.961L36.7831 576.644ZM78.8825 595.012L68.0909 575.391L41.7915 589.856L52.5831 609.477L78.8825 595.012ZM89.2643 592.848L70.5612 588.814L64.2329 618.154L82.9361 622.188L89.2643 592.848ZM89.224 207.401C81.8189 221.7 76.7047 244.619 73.0586 271.453C69.3338 298.867 66.919 332.25 65.776 368.764C63.4898 441.804 66.266 528.298 74.1904 606.347L104.052 603.315C96.2629 526.602 93.5308 441.435 95.7761 369.703C96.899 333.83 99.2599 301.549 102.8 275.495C106.419 248.861 111.059 230.507 115.877 221.203L89.224 207.401ZM137.086 109.397C132.565 120.045 117.247 153.287 89.224 207.401L115.877 221.203C144.067 166.767 159.77 132.77 164.713 121.128L137.086 109.397ZM221.067 111.31C218.92 100.573 210.812 95.0621 203.631 92.7996C197.004 90.7115 189.663 90.7206 183.453 91.2704C170.719 92.398 156.611 96.4277 147.3 99.7504L157.387 128.019C165.498 125.125 176.922 121.981 186.101 121.168C190.848 120.748 193.558 121.095 194.611 121.427C195.111 121.584 192.311 120.575 191.635 117.196L221.067 111.31ZM221.594 113.925C221.412 113.025 221.237 112.157 221.067 111.31L191.635 117.196C191.811 118.073 191.991 118.967 192.172 119.862L221.594 113.925ZM220.065 189.132C231.895 162.515 225.137 131.487 221.594 113.925L192.172 119.862C196.15 139.575 199.898 160.606 192.637 176.942L220.065 189.132ZM189.371 270.197C196.587 249.838 212.399 206.381 220.065 189.132L192.637 176.942C184.4 195.476 168.179 240.141 161.08 260.17L189.371 270.197ZM190.093 357.877V266.007H160.078V357.877H190.093ZM221.024 512.539L189.854 355.443L160.413 361.285L191.583 518.38L221.024 512.539ZM221.359 552.611V515.946H191.344V552.611H221.359ZM839.565 549.356C775.605 541.218 634.961 538.692 502.572 538.276C369.722 537.86 243.778 539.577 208.414 540.111L208.867 570.122C244.161 569.589 369.896 567.875 502.478 568.291C635.52 568.708 774.063 571.279 835.777 579.13L839.565 549.356ZM886.78 627.339C884.247 613.827 880.361 598.988 874.283 585.717C868.284 572.619 859.48 559.584 846.281 551.682L830.865 577.435C836.719 580.94 842.234 587.822 846.994 598.216C851.676 608.439 854.992 620.669 857.279 632.869L886.78 627.339ZM903.272 601.309L868.923 618.484L882.346 645.33L916.695 628.155L903.272 601.309ZM935.486 561.249L899.279 604.463L922.286 623.739L958.492 580.525L935.486 561.249ZM971.633 576.016L963.818 563.317L938.255 579.047L946.07 591.747L971.633 576.016ZM974.23 617.733V585.193H944.215V617.733H974.23ZM956.85 661.472L972.787 624.694L945.246 612.76L929.309 649.538L956.85 661.472ZM922.734 708.169L954.839 664.951L930.745 647.052L898.64 690.271L922.734 708.169ZM879.611 739.679L918.776 712.033L901.467 687.512L862.302 715.157L879.611 739.679ZM709.03 889.432C810.864 882.932 866.047 801.928 884.481 732.683L855.477 724.961C838.829 787.494 791.006 854.124 707.118 859.479L709.03 889.432ZM639.571 888.353C659.672 890.569 682.684 891.114 709.03 889.432L707.118 859.479C682.28 861.064 661.022 860.521 642.86 858.519L639.571 888.353ZM231.696 826.027C264.343 847.564 302.899 853.195 326.636 853.195V823.181C306.485 823.181 274.352 818.208 248.223 800.972L231.696 826.027ZM326.636 853.195C338.5 853.195 351.261 849.707 363.311 845.04C375.559 840.296 388.138 833.908 399.931 827.196C423.51 813.776 445.081 798.401 456.106 790.548L438.693 766.101C427.641 773.973 407.189 788.529 385.084 801.11C374.036 807.398 362.858 813.028 352.47 817.051C341.885 821.151 333.13 823.181 326.636 823.181V853.195ZM456.106 790.548C458.455 788.875 460.219 787.619 461.467 786.757L444.416 762.056C442.942 763.074 440.961 764.485 438.693 766.101L456.106 790.548ZM461.467 786.757C460.565 787.38 460.496 787.131 462.454 786.666C464.131 786.268 466.496 785.895 469.552 785.609C475.648 785.037 483.315 784.913 491.366 785.129C507.934 785.574 523.404 787.368 527.898 788.539L535.467 759.495C527.453 757.406 509.083 755.579 492.172 755.125C483.484 754.892 474.502 754.998 466.751 755.725C462.884 756.088 459.027 756.631 455.521 757.463C452.296 758.229 448.084 759.525 444.416 762.056L461.467 786.757ZM519.427 781.195C521.958 787.656 528.229 796.481 536.538 805.426C545.235 814.787 557.242 825.438 572.484 835.299C603.067 855.083 646.825 871.758 702.78 868.172L700.861 838.219C652.234 841.335 614.774 826.909 588.787 810.098C575.746 801.661 565.63 792.641 558.528 784.996C554.976 781.173 552.247 777.768 550.315 775.038C549.349 773.675 548.625 772.538 548.112 771.654C547.857 771.214 547.672 770.867 547.544 770.61C547.412 770.346 547.366 770.228 547.373 770.245L519.427 781.195ZM702.78 868.172C751.987 865.019 789.672 829.694 814.254 791.702C838.876 753.649 853.139 708.75 853.146 679.38L823.131 679.373C823.126 701.451 811.469 740.755 789.055 775.396C766.601 810.098 736.133 835.958 700.861 838.219L702.78 868.172ZM853.144 679.554C853.154 678.841 853.401 658.577 846.474 637.141C839.615 615.915 823.99 589.016 789.808 584.608L785.969 614.376C802.93 616.563 812.432 629.407 817.913 646.37C823.327 663.124 823.128 679.495 823.132 679.161L853.144 679.554ZM789.808 584.608C740.114 578.199 599.756 576.017 472.162 575.387C343.966 574.754 226.866 575.695 222.606 575.73L222.852 605.744C227.067 605.709 344.014 604.769 472.013 605.401C600.614 606.037 738.598 608.267 785.969 614.376L789.808 584.608ZM216.555 576.987C210.774 579.354 206.869 583.92 204.372 587.511C201.654 591.42 199.258 596.163 197.1 601.326C192.768 611.693 188.64 625.606 184.795 642.423L214.054 649.113C217.718 633.089 221.396 621.031 224.794 612.899C226.502 608.813 227.952 606.175 229.015 604.646C230.299 602.799 230.109 603.87 227.932 604.762L216.555 576.987ZM206.363 733.87L214.368 647.147L184.481 644.388L176.476 731.111L206.363 733.87ZM252.056 804.963L204.621 726.264L178.915 741.758L226.349 820.457L252.056 804.963ZM176.476 731.111C176.132 734.829 176.987 738.56 178.915 741.758L204.621 726.264C205.998 728.549 206.608 731.213 206.363 733.87L176.476 731.111ZM222.606 575.73C222.271 575.732 221.515 575.746 220.579 575.871C219.463 576.021 218.344 576.294 217.239 576.706C216.433 577.006 215.696 577.375 215.913 577.271C215.975 577.241 216.227 577.121 216.555 576.987L227.932 604.762C228.381 604.578 228.722 604.416 228.857 604.351C229.147 604.213 228.466 604.553 227.718 604.832C226.672 605.222 225.612 605.48 224.574 605.619C223.716 605.734 223.055 605.742 222.852 605.744L222.606 575.73ZM853.146 679.38C853.146 679.348 853.146 679.308 853.145 679.262C853.145 679.239 853.145 679.221 853.145 679.212C853.145 679.211 853.145 679.209 853.145 679.209C853.145 679.21 853.145 679.21 853.145 679.21C853.145 679.21 853.145 679.21 853.145 679.21C853.145 679.211 853.145 679.212 853.145 679.213C853.145 679.217 853.145 679.228 853.145 679.241C853.145 679.272 853.146 679.311 853.146 679.356C853.146 679.399 853.146 679.435 853.145 679.464C853.145 679.491 853.145 679.513 853.145 679.526C853.145 679.539 853.145 679.549 853.144 679.554L823.132 679.161C823.132 679.172 823.132 679.213 823.131 679.264C823.131 679.294 823.131 679.332 823.131 679.376C823.131 679.422 823.131 679.461 823.131 679.493C823.132 679.507 823.132 679.518 823.132 679.522C823.132 679.525 823.132 679.526 823.132 679.527C823.132 679.527 823.132 679.526 823.132 679.525C823.132 679.517 823.131 679.5 823.131 679.478C823.131 679.435 823.131 679.399 823.131 679.373L853.146 679.38ZM527.898 788.539C522.47 787.125 520.154 783.052 519.427 781.195L547.373 770.245C546.018 766.789 542.557 761.342 535.467 759.495L527.898 788.539ZM248.223 800.972C249.805 802.016 251.106 803.387 252.056 804.963L226.349 820.457C227.68 822.665 229.498 824.577 231.696 826.027L248.223 800.972ZM862.302 715.157C858.951 717.523 856.534 720.988 855.477 724.961L884.481 732.683C883.727 735.516 881.999 737.993 879.611 739.679L862.302 715.157ZM898.64 690.271C899.43 689.207 900.385 688.276 901.467 687.512L918.776 712.033C920.292 710.963 921.628 709.659 922.734 708.169L898.64 690.271ZM929.309 649.538C929.691 648.657 930.173 647.823 930.745 647.052L954.839 664.951C955.641 663.872 956.315 662.705 956.85 661.472L929.309 649.538ZM944.215 617.733C944.215 616.022 944.566 614.33 945.246 612.76L972.787 624.694C973.739 622.497 974.23 620.127 974.23 617.733H944.215ZM946.07 591.747C944.857 589.776 944.215 587.507 944.215 585.193H974.23C974.23 581.952 973.331 578.776 971.633 576.016L946.07 591.747ZM160.078 357.877C160.078 359.021 160.191 360.163 160.413 361.285L189.854 355.443C190.013 356.245 190.093 357.06 190.093 357.877H160.078ZM161.08 260.17C160.389 262.121 160.078 264.094 160.078 266.007H190.093C190.093 267.352 189.872 268.783 189.371 270.197L161.08 260.17ZM164.713 121.128C163.421 124.171 160.856 126.781 157.387 128.019L147.3 99.7504C142.517 101.457 138.924 105.068 137.086 109.397L164.713 121.128ZM82.9361 622.188C94.4424 624.67 105.265 615.269 104.052 603.315L74.1904 606.347C73.3203 597.778 81.0837 591.084 89.2643 592.848L82.9361 622.188ZM52.5831 609.477C55.0267 613.92 59.2764 617.085 64.2329 618.154L70.5612 588.814C74.1016 589.578 77.1371 591.839 78.8825 595.012L52.5831 609.477ZM64.1542 588.961C59.9213 598.367 46.7624 598.894 41.7915 589.856L68.0909 575.391C61.1316 562.738 42.7091 563.475 36.7831 576.644L64.1542 588.961ZM62.9191 664.933C64.5923 666.397 65.845 668.28 66.5481 670.39L38.0736 679.881C39.0579 682.834 40.8116 685.471 43.1542 687.521L62.9191 664.933ZM78.2971 679.424C79.6831 679.952 80.9641 680.722 82.0803 681.699L62.3155 704.287C63.8781 705.654 65.6716 706.733 67.612 707.472L78.2971 679.424ZM118.382 703.514C117.223 697.622 113.112 692.686 107.432 690.523L96.7473 718.571C92.6833 717.023 89.7559 713.5 88.931 709.305L118.382 703.514ZM958.492 580.525C953.01 587.068 942.729 586.317 938.255 579.047L963.818 563.317C957.554 553.139 943.16 552.088 935.486 561.249L958.492 580.525ZM344.359 916.531C342.349 915.086 340.056 914.084 337.63 913.591L331.648 943.004C329.915 942.651 328.277 941.935 326.842 940.904L344.359 916.531ZM916.695 628.155C918.842 627.082 920.745 625.579 922.286 623.739L899.279 604.463C900.38 603.149 901.739 602.075 903.272 601.309L916.695 628.155ZM377.555 942.335C379.67 942.58 381.687 943.36 383.416 944.603L365.899 968.976C368.319 970.715 371.144 971.808 374.105 972.151L377.555 942.335ZM857.279 632.869C859.402 644.19 871.814 650.595 882.346 645.33L868.923 618.484C876.456 614.717 885.275 619.311 886.78 627.339L857.279 632.869ZM525.254 959.72C526.155 959.627 527.064 959.633 527.964 959.738L524.514 989.553C525.774 989.699 527.046 989.708 528.307 989.579L525.254 959.72ZM835.777 579.13C834.937 579.023 834.049 578.824 833.148 578.506C832.253 578.19 831.489 577.809 830.865 577.435L846.281 551.682C844.324 550.511 842.072 549.674 839.565 549.356L835.777 579.13ZM623.551 955.811C625.408 951.811 629.235 949.085 633.622 948.637L636.676 978.496C642.818 977.868 648.175 974.051 650.775 968.451L623.551 955.811ZM56.2774 603.781C56.2774 605.55 55.902 607.299 55.1759 608.913L27.8048 596.596C26.7882 598.855 26.2626 601.304 26.2626 603.781H56.2774ZM191.344 552.611C191.344 560.207 197.071 570.3 208.867 570.122L208.414 540.111C212.138 540.055 215.771 541.663 218.263 544.509C220.579 547.154 221.359 550.186 221.359 552.611H191.344ZM652.96 872.609C655.353 881.26 648.2 889.304 639.571 888.353L642.86 858.519C630.687 857.177 620.688 868.523 624.032 880.61L652.96 872.609ZM55.6356 637.652C56.0607 638.928 56.2774 640.263 56.2774 641.607H26.2626C26.2626 643.489 26.566 645.358 27.1611 647.144L55.6356 637.652ZM191.583 518.38C191.424 517.579 191.344 516.764 191.344 515.946H221.359C221.359 514.802 221.247 513.661 221.024 512.539L191.583 518.38ZM638.113 931.519C637.321 928.658 637.573 925.61 638.823 922.918L666.047 935.558C667.796 931.789 668.149 927.522 667.041 923.517L638.113 931.519Z" fill="#45504D" mask="url(#path-2-outside-1_571_22182)"/>
<path d="M869.179 728.773L872.931 632.476L910.449 613.717L949.218 567.444L960.474 582.451V616.218L942.965 656.238L911.7 700.009L869.179 728.773Z" fill="#779FA5"/>
<path d="M67.5336 602.461L51.2756 576.198L40.02 602.461V642.481L51.2756 676.247L72.536 693.756L105.052 706.262L90.0447 608.714L67.5336 602.461Z" fill="#779FA5"/>
<path d="M205.1 186.788L213.854 163.027L210.103 130.979L205.1 107.217C186.757 104.299 166.332 103.465 151.324 114.721C90.044 231.028 95.0465 226.026 86.2907 288.088C85.4571 309.349 80.0391 349.837 80.0391 427.375C80.0391 532.427 83.1199 592.924 106.302 718.769C123.35 811.314 170.084 878.848 202.599 896.356L222.609 906.361L250.122 912.614L335.164 928.872L375.184 957.636L529.009 975.927L637.813 964.672L654.071 929.655L637.813 873.845L552.771 838.36L519.004 805.844H475.233L372.682 863.372L265.129 854.618C262.211 855.035 252.623 855.618 237.616 854.618C222.608 853.617 179.67 779.164 160.077 742.062C160.077 718.301 161.828 660.522 168.832 619.502C175.835 578.482 199.681 555.772 208.852 549.935L205.1 509.916L175.085 363.594V267.296L205.1 186.788Z" fill="#517A70"/>
<path d="M430.212 830.856C412.286 839.61 375.685 857.369 372.684 858.37H350.172L263.88 852.117L338.917 893.387L441.467 932.156L531.512 924.652L652.822 932.156L636.564 874.628L555.274 839.61L517.755 807.094L477.735 803.343L430.212 830.856Z" fill="#66A293"/>
<path d="M145.278 229.634L199.424 108.106C199.835 107.185 200.749 106.592 201.757 106.592C202.975 106.592 204.023 107.451 204.261 108.645L213.539 155.033C214.563 160.151 214.109 165.456 212.231 170.326L176.929 261.893C175.711 265.051 175.087 268.406 175.087 271.791V356.363C175.087 358.26 175.283 360.152 175.672 362.009L206.779 510.363L206.821 510.566C207.36 513.127 207.982 516.086 206.219 517.989C204.781 519.54 202.459 519.634 200.212 519.537C195.276 519.325 191.68 523.613 188.506 527.4L188.502 527.404C180.66 536.758 175.159 548.763 171.349 561.847C167.102 576.432 135.902 581.203 130.939 566.846C130.362 565.178 130.134 563.409 130.27 561.649L136.318 483.027L130.168 320.68C130.099 318.862 130.211 317.041 130.501 315.245L143.25 236.438C143.629 234.092 144.311 231.805 145.278 229.634Z" fill="#66A193"/>
<ellipse cx="606.549" cy="952.008" rx="23.7617" ry="8.75432" fill="#436B61"/>
<ellipse cx="534.013" cy="954.51" rx="23.7617" ry="8.75432" fill="#436B61"/>
<ellipse cx="471.482" cy="952.008" rx="23.7617" ry="8.75432" fill="#436B61"/>
<ellipse cx="396.445" cy="944.505" rx="23.7617" ry="8.75432" fill="#436B61"/>
<path d="M545.269 848.207L515.255 825.696C502.435 826.735 474.691 825.083 465.23 825.696L442.719 854.46L382.689 878.222L315.156 883.224L232.615 854.46H261.379L376.436 858.212L473.984 803.185H520.257L552.773 838.202L639.066 874.47V878.222L545.269 848.207Z" fill="#517A70"/>
<rect x="222.61" y="646.858" width="47.5234" height="185.091" rx="23.7617" transform="rotate(-30 222.61 646.858)" fill="#D9D9D9" fill-opacity="0.3"/>
<rect x="285.141" y="622.503" width="38.8334" height="151.246" rx="19.4167" transform="rotate(-30 285.141 622.503)" fill="#D9D9D9" fill-opacity="0.3"/>
</svg>
