<svg width="400" height="400" viewBox="0 0 400 400" fill="none" xmlns="http://www.w3.org/2000/svg">
<g clip-path="url(#clip0_15_52)">
<rect x="8.5" y="8.5" width="384" height="383" rx="49.5" fill="#8F8F8F" stroke="#302F2F" stroke-width="17"/>
<rect width="271" height="265" rx="78" transform="matrix(1 0 0 -1 65 331)" fill="#787575"/>
<path fill-rule="evenodd" clip-rule="evenodd" d="M138.5 118L174.5 93V49H204H228.5L235 93L270 114L326 98L340 144.5L300.5 179.5V218L344 252C336.167 264.333 319.6 288.4 316 286C312.4 283.6 287.833 268 276 260.5L239 290V341C224.167 344 194.2 349.1 193 345.5C191.8 341.9 180.167 304.333 174.5 286L147 274L77 290L66.5 244.5L103.5 218V172.5L52.5 140L82 99.5L138.5 118ZM169.5 156.5L204 140H235L252 179.5L255 214.5L226.5 244.5L174.5 240L152 193.5L169.5 156.5Z" fill="#4E7E65" stroke="black" stroke-width="12"/>
</g>
<defs>
<clipPath id="clip0_15_52">
<rect width="400" height="400" rx="2" fill="white"/>
</clipPath>
</defs>
</svg>
