<svg width="501" height="501" viewBox="0 0 501 501" fill="none" xmlns="http://www.w3.org/2000/svg">
<g clip-path="url(#clip0_147_109)">
<mask id="path-1-outside-1_147_109" maskUnits="userSpaceOnUse" x="49.7312" y="48.7477" width="463.155" height="463.155" fill="black">
<rect fill="white" x="49.7312" y="48.7477" width="463.155" height="463.155"/>
<path d="M80.462 79.5352C91.1857 68.8115 108.572 68.8115 119.296 79.5352L481.748 441.987C492.471 452.711 492.471 470.097 481.748 480.821V480.821C471.024 491.545 453.637 491.545 442.914 480.821L80.462 118.369C69.7382 107.646 69.7383 90.2589 80.462 79.5352V79.5352Z"/>
</mask>
<path d="M80.462 79.5352C91.1857 68.8115 108.572 68.8115 119.296 79.5352L481.748 441.987C492.471 452.711 492.471 470.097 481.748 480.821V480.821C471.024 491.545 453.637 491.545 442.914 480.821L80.462 118.369C69.7382 107.646 69.7383 90.2589 80.462 79.5352V79.5352Z" fill="#2F0A0A"/>
<path d="M80.462 118.369L75.1587 123.673L80.462 118.369ZM442.914 480.821L448.217 475.518L442.914 480.821ZM119.296 79.5352L113.993 84.8385L119.296 79.5352ZM113.993 84.8385L476.444 447.29L487.051 436.684L124.599 74.2319L113.993 84.8385ZM448.217 475.518L85.7653 113.066L75.1587 123.673L437.61 486.124L448.217 475.518ZM85.7653 113.066C77.9705 105.271 77.9705 92.6333 85.7653 84.8385L75.1587 74.2319C61.506 87.8846 61.506 110.02 75.1587 123.673L85.7653 113.066ZM476.444 475.518C468.65 483.312 456.012 483.312 448.217 475.518L437.61 486.124C451.263 499.777 473.398 499.777 487.051 486.124L476.444 475.518ZM476.444 447.29C484.239 455.085 484.239 467.723 476.444 475.518L487.051 486.124C500.704 472.472 500.704 450.336 487.051 436.684L476.444 447.29ZM124.599 74.2319C110.947 60.5792 88.8114 60.5792 75.1587 74.2319L85.7653 84.8385C93.5601 77.0437 106.198 77.0437 113.993 84.8385L124.599 74.2319Z" fill="#200707" mask="url(#path-1-outside-1_147_109)"/>
<path fill-rule="evenodd" clip-rule="evenodd" d="M290.939 151.616L285.23 157.324L288.668 170.082L263.279 195.47L267.13 199.322L274.982 213.82L224.262 264.539L214.147 274.654L199.071 267.381L195.22 263.529L190.523 268.227L170.95 287.8L157.382 285.173L152.679 289.875L143.812 298.742L132.647 287.576L43.6483 198.578C31.0594 162.782 9.16558 83.3072 36.4233 42.2563C82.663 9.67838 161.875 30.6526 198.328 43.8984L287.326 132.897L298.492 144.062L290.939 151.616Z" fill="#515151"/>
<path d="M285.23 157.324L282.579 154.672L281.045 156.206L281.61 158.3L285.23 157.324ZM288.668 170.082L291.319 172.733L292.853 171.2L292.289 169.106L288.668 170.082ZM263.279 195.47L260.628 192.819L257.976 195.47L260.628 198.122L263.279 195.47ZM267.13 199.322L270.428 197.536L270.168 197.056L269.782 196.67L267.13 199.322ZM274.982 213.82L277.633 216.471L279.611 214.494L278.279 212.034L274.982 213.82ZM214.147 274.654L212.518 278.031L214.916 279.188L216.799 277.306L214.147 274.654ZM199.071 267.381L196.42 270.032L196.869 270.482L197.442 270.758L199.071 267.381ZM195.22 263.529L197.872 260.878L195.22 258.226L192.568 260.878L195.22 263.529ZM170.95 287.8L170.237 291.481L172.193 291.86L173.602 290.451L170.95 287.8ZM157.382 285.173L158.094 281.491L156.139 281.113L154.73 282.521L157.382 285.173ZM152.679 289.875L150.028 287.223L152.679 289.875ZM143.812 298.742L141.161 301.394L143.812 304.045L146.464 301.394L143.812 298.742ZM43.6483 198.578L40.1107 199.822L40.3936 200.627L40.9967 201.23L43.6483 198.578ZM36.4233 42.2563L34.2635 39.1908L33.6884 39.5959L33.2993 40.182L36.4233 42.2563ZM198.328 43.8984L200.98 41.2467L200.391 40.6581L199.609 40.3738L198.328 43.8984ZM298.492 144.062L301.144 146.714L303.795 144.062L301.144 141.411L298.492 144.062ZM287.882 159.976L293.59 154.267L288.287 148.964L282.579 154.672L287.882 159.976ZM292.289 169.106L288.851 156.348L281.61 158.3L285.047 171.057L292.289 169.106ZM265.931 198.122L291.319 172.733L286.016 167.43L260.628 192.819L265.931 198.122ZM260.628 198.122L264.479 201.973L269.782 196.67L265.931 192.819L260.628 198.122ZM263.833 201.107L271.684 215.605L278.279 212.034L270.428 197.536L263.833 201.107ZM272.33 211.168L221.611 261.887L226.914 267.191L277.633 216.471L272.33 211.168ZM221.611 261.887L211.496 272.002L216.799 277.306L226.914 267.191L221.611 261.887ZM215.777 271.276L200.701 264.003L197.442 270.758L212.518 278.031L215.777 271.276ZM201.723 264.729L197.872 260.878L192.568 266.181L196.42 270.032L201.723 264.729ZM193.175 270.878L197.872 266.181L192.568 260.878L187.871 265.575L193.175 270.878ZM173.602 290.451L193.175 270.878L187.871 265.575L168.298 285.148L173.602 290.451ZM156.669 288.854L170.237 291.481L171.663 284.118L158.094 281.491L156.669 288.854ZM155.331 292.527L160.033 287.825L154.73 282.521L150.028 287.223L155.331 292.527ZM146.464 301.394L155.331 292.527L150.028 287.223L141.161 296.09L146.464 301.394ZM129.995 290.228L141.161 301.394L146.464 296.09L135.298 284.925L129.995 290.228ZM40.9967 201.23L129.995 290.228L135.298 284.925L46.3 195.926L40.9967 201.23ZM33.2993 40.182C18.8847 61.8907 17.7105 93.2007 21.3716 122.847C25.057 152.691 33.7687 181.789 40.1107 199.822L47.1859 197.334C40.9389 179.571 32.4093 151.034 28.815 121.928C25.1964 92.6254 26.7042 63.6728 39.5474 44.3307L33.2993 40.182ZM199.609 40.3738C181.207 33.6872 151.962 25.027 121.396 22.1599C90.9384 19.303 58.4755 22.1323 34.2635 39.1908L38.5832 45.3219C60.6108 29.8024 90.8736 26.8299 120.695 29.6271C150.408 32.4141 178.996 40.8638 197.047 47.4229L199.609 40.3738ZM289.978 130.245L200.98 41.2467L195.676 46.55L284.675 135.548L289.978 130.245ZM301.144 141.411L289.978 130.245L284.675 135.548L295.84 146.714L301.144 141.411ZM293.59 154.267L301.144 146.714L295.84 141.411L288.287 148.964L293.59 154.267Z" fill="#200707"/>
<path d="M257.756 136.914L260.902 151.886L245.446 167.342L225.193 169.476L187.438 195.828L175.355 215.291L170.661 242.127L152.664 260.123L136.664 258.006L64.4582 185.8C53.9144 157.088 35.3323 93.4288 56.475 61.0956C92.8684 35.7861 156.305 53.6315 185.55 64.7082L257.756 136.914Z" fill="#494949"/>
<path d="M205.217 126.802L207.289 136.556L197.248 146.597L184.063 147.956L159.519 165.057L151.681 177.712L148.665 195.179L136.974 206.871L126.552 205.467L79.4234 158.339C72.5137 139.627 60.3163 98.1456 74.0343 77.1237C97.6937 60.6987 139.029 72.4161 158.089 79.6735L205.217 126.802Z" fill="#434343"/>
<rect x="217.317" y="177.792" width="401.25" height="55" rx="27.5" transform="rotate(45 217.317 177.792)" fill="#481313"/>
<rect x="223.504" y="201.657" width="362.5" height="30" rx="15" transform="rotate(45 223.504 201.657)" fill="#5E2020"/>
</g>
<defs>
<clipPath id="clip0_147_109">
<rect width="500" height="500" fill="white" transform="translate(0.625 0.875)"/>
</clipPath>
</defs>
</svg>
