<svg width="1001" height="1001" viewBox="0 0 1001 1001" fill="none" xmlns="http://www.w3.org/2000/svg">
<g clip-path="url(#clip0_147_109)">
<mask id="path-1-outside-1_147_109" maskUnits="userSpaceOnUse" x="100.376" y="97.4101" width="923.481" height="923.481" fill="black">
<rect fill="white" x="100.376" y="97.4101" width="923.481" height="923.481"/>
<path d="M160.423 157.571C181.87 136.123 216.644 136.123 238.091 157.571L962.994 882.474C984.442 903.922 984.442 938.695 962.994 960.142V960.142C941.547 981.59 906.774 981.59 885.326 960.142L160.423 235.239C138.976 213.792 138.976 179.018 160.423 157.571V157.571Z"/>
</mask>
<path d="M160.423 157.571C181.87 136.123 216.644 136.123 238.091 157.571L962.994 882.474C984.442 903.922 984.442 938.695 962.994 960.142V960.142C941.547 981.59 906.774 981.59 885.326 960.142L160.423 235.239C138.976 213.792 138.976 179.018 160.423 157.571V157.571Z" fill="#2F0A0A"/>
<path d="M885.326 960.142L874.72 970.749L885.326 960.142ZM238.091 157.571L227.485 168.177L238.091 157.571ZM227.485 168.177L952.388 893.081L973.601 871.868L248.698 146.964L227.485 168.177ZM895.933 949.536L171.03 224.632L149.816 245.846L874.72 970.749L895.933 949.536ZM171.03 224.632C155.44 209.043 155.44 183.767 171.03 168.177L149.816 146.964C122.511 174.27 122.511 218.54 149.816 245.846L171.03 224.632ZM952.388 949.536C936.798 965.125 911.522 965.125 895.933 949.536L874.72 970.749C902.025 998.054 946.296 998.054 973.601 970.749L952.388 949.536ZM952.388 893.081C967.977 908.67 967.977 933.946 952.388 949.536L973.601 970.749C1000.91 943.444 1000.91 899.173 973.601 871.868L952.388 893.081ZM248.698 146.964C221.392 119.659 177.122 119.659 149.816 146.964L171.03 168.177C186.619 152.588 211.895 152.588 227.485 168.177L248.698 146.964Z" fill="#200707" mask="url(#path-1-outside-1_147_109)"/>
<path fill-rule="evenodd" clip-rule="evenodd" d="M581.377 301.732L569.961 313.148L576.836 338.663L526.059 389.441L533.761 397.143L549.464 426.139L448.025 527.578L427.795 547.808L397.643 533.261L389.94 525.559L380.546 534.953L341.4 574.099L314.264 568.845L304.859 578.25L287.125 595.984L264.793 573.652L86.7966 395.656C61.6187 324.063 17.8312 165.114 72.3467 83.0127C164.826 17.8568 323.249 59.8053 396.156 86.2968L574.152 264.293L596.484 286.625L581.377 301.732Z" fill="#515151"/>
<path d="M569.961 313.148L564.658 307.844L561.591 310.911L562.72 315.099L569.961 313.148ZM576.836 338.663L582.139 343.967L585.206 340.9L584.078 336.712L576.836 338.663ZM526.059 389.441L520.755 384.137L515.452 389.441L520.755 394.744L526.059 389.441ZM533.761 397.143L540.356 393.572L539.837 392.612L539.065 391.84L533.761 397.143ZM549.464 426.139L554.767 431.443L558.722 427.487L556.059 422.568L549.464 426.139ZM427.795 547.808L424.537 554.563L429.333 556.877L433.099 553.111L427.795 547.808ZM397.643 533.261L392.34 538.565L393.239 539.464L394.384 540.016L397.643 533.261ZM389.94 525.559L395.244 520.255L389.94 514.952L384.637 520.255L389.94 525.559ZM380.546 534.953L385.85 540.256L380.546 534.953ZM341.4 574.099L339.975 581.462L343.886 582.22L346.703 579.402L341.4 574.099ZM314.264 568.845L315.689 561.482L311.777 560.725L308.96 563.542L314.264 568.845ZM304.859 578.25L299.555 572.947L304.859 578.25ZM287.125 595.984L281.821 601.287L287.125 606.591L292.428 601.287L287.125 595.984ZM86.7966 395.656L79.7214 398.144L80.2872 399.753L81.4933 400.959L86.7966 395.656ZM72.3467 83.0127L68.027 76.8816L66.8769 77.6919L66.0986 78.864L72.3467 83.0127ZM396.156 86.2968L401.459 80.9935L400.282 79.8163L398.717 79.2477L396.156 86.2968ZM596.484 286.625L601.787 291.928L607.091 286.625L601.787 281.322L596.484 286.625ZM575.265 318.451L586.681 307.035L576.074 296.428L564.658 307.844L575.265 318.451ZM584.078 336.712L577.203 311.196L562.72 315.099L569.594 340.614L584.078 336.712ZM531.362 394.744L582.139 343.967L571.533 333.36L520.755 384.137L531.362 394.744ZM520.755 394.744L528.458 402.447L539.065 391.84L531.362 384.137L520.755 394.744ZM527.166 400.715L542.868 429.711L556.059 422.568L540.356 393.572L527.166 400.715ZM544.16 420.836L442.722 522.274L453.329 532.881L554.767 431.443L544.16 420.836ZM442.722 522.274L422.492 542.504L433.099 553.111L453.329 532.881L442.722 522.274ZM431.054 541.053L400.902 526.506L394.384 540.016L424.537 554.563L431.054 541.053ZM402.947 527.958L395.244 520.255L384.637 530.862L392.34 538.565L402.947 527.958ZM385.85 540.256L395.244 530.862L384.637 520.255L375.243 529.65L385.85 540.256ZM346.703 579.402L385.85 540.256L375.243 529.65L336.097 568.796L346.703 579.402ZM312.838 576.209L339.975 581.462L342.826 566.736L315.689 561.482L312.838 576.209ZM310.162 583.553L319.567 574.149L308.96 563.542L299.555 572.947L310.162 583.553ZM292.428 601.287L310.162 583.553L299.555 572.947L281.821 590.681L292.428 601.287ZM259.49 578.956L281.821 601.287L292.428 590.681L270.096 568.349L259.49 578.956ZM81.4933 400.959L259.49 578.956L270.096 568.349L92.0999 390.353L81.4933 400.959ZM66.0986 78.864C37.2695 122.281 34.921 184.901 42.2432 244.194C49.6139 303.881 67.0375 362.078 79.7214 398.144L93.8718 393.168C81.3779 357.641 64.3187 300.567 57.1301 242.356C49.8929 183.751 52.9084 125.846 78.5947 87.1614L66.0986 78.864ZM398.717 79.2477C361.913 65.8745 303.425 48.5539 242.292 42.8197C181.377 37.106 116.451 42.7646 68.027 76.8816L76.6663 89.1438C120.722 58.1048 181.247 52.1597 240.891 57.7542C300.316 63.3281 357.492 80.2276 393.594 93.3458L398.717 79.2477ZM579.456 258.99L401.459 80.9935L390.853 91.6001L568.849 269.597L579.456 258.99ZM601.787 281.322L579.456 258.99L568.849 269.597L591.181 291.928L601.787 281.322ZM586.681 307.035L601.787 291.928L591.181 281.322L576.074 296.428L586.681 307.035Z" fill="#200707"/>
<path d="M515.012 272.328L521.303 302.272L490.391 333.184L449.887 337.453L374.375 390.157L350.211 429.082L340.822 482.753L304.829 518.747L272.828 514.512L128.416 370.1C107.329 312.677 70.1646 185.358 112.45 120.691C185.237 70.0722 312.111 105.763 370.6 127.916L515.012 272.328Z" fill="#494949"/>
<path d="M409.935 252.104L414.077 271.612L393.996 291.693L367.627 294.411L318.537 328.614L302.862 353.924L296.83 388.859L273.448 412.241L252.603 409.435L158.347 315.178C144.527 277.754 120.133 194.791 147.569 152.747C194.887 119.897 277.558 143.332 315.678 157.847L409.935 252.104Z" fill="#434343"/>
<rect x="434.134" y="354.085" width="802.5" height="110" rx="55" transform="rotate(45 434.134 354.085)" fill="#481313"/>
<rect x="446.508" y="401.815" width="725" height="60" rx="30" transform="rotate(45 446.508 401.815)" fill="#5E2020"/>
</g>
<defs>
<clipPath id="clip0_147_109">
<rect width="1000" height="1000" fill="white" transform="translate(0.75 0.25)"/>
</clipPath>
</defs>
</svg>
