<svg width="501" height="501" viewBox="0 0 501 501" fill="none" xmlns="http://www.w3.org/2000/svg">
<path d="M232.301 26.4562C243.633 21.7621 256.367 21.7621 267.699 26.4562L396.261 79.7084C407.594 84.4025 416.598 93.4062 421.292 104.739L474.544 233.301C479.238 244.633 479.238 257.367 474.544 268.699L421.292 397.261C416.598 408.594 407.594 417.598 396.261 422.292L267.699 475.544C256.367 480.238 243.633 480.238 232.301 475.544L103.739 422.292C92.4062 417.598 83.4025 408.594 78.7084 397.261L25.4562 268.699C20.7621 257.367 20.7621 244.633 25.4562 233.301L78.7084 104.739C83.4025 93.4062 92.4062 84.4025 103.739 79.7084L232.301 26.4562Z" fill="#3F4550"/>
<path d="M240.433 106.838C246.559 104.3 253.441 104.3 259.567 106.838L345.173 142.297C351.299 144.834 356.166 149.701 358.703 155.827L394.162 241.433C396.7 247.559 396.7 254.441 394.162 260.567L358.703 346.173C356.166 352.299 351.299 357.166 345.173 359.703L259.567 395.162C253.441 397.7 246.559 397.7 240.433 395.162L154.827 359.703C148.701 357.166 143.834 352.299 141.297 346.173L105.838 260.567C103.3 254.441 103.3 247.559 105.838 241.433L141.297 155.827C143.834 149.701 148.701 144.834 154.827 142.297L240.433 106.838Z" fill="#49505D"/>
<path d="M232.301 26.4562C243.633 21.7621 256.367 21.7621 267.699 26.4562L396.261 79.7084C407.594 84.4025 416.598 93.4062 421.292 104.739L474.544 233.301C479.238 244.633 479.238 257.367 474.544 268.699L421.292 397.261C416.598 408.594 407.594 417.598 396.261 422.292L267.699 475.544C256.367 480.238 243.633 480.238 232.301 475.544L103.739 422.292C92.4062 417.598 83.4025 408.594 78.7084 397.261L25.4562 268.699C20.7621 257.367 20.7621 244.633 25.4562 233.301L78.7084 104.739C83.4025 93.4062 92.4062 84.4025 103.739 79.7084L232.301 26.4562Z" fill="#3F4550"/>
<path d="M240.433 106.838C246.559 104.3 253.441 104.3 259.567 106.838L345.173 142.297C351.299 144.834 356.166 149.701 358.703 155.827L394.162 241.433C396.7 247.559 396.7 254.441 394.162 260.567L358.703 346.173C356.166 352.299 351.299 357.166 345.173 359.703L259.567 395.162C253.441 397.7 246.559 397.7 240.433 395.162L154.827 359.703C148.701 357.166 143.834 352.299 141.297 346.173L105.838 260.567C103.3 254.441 103.3 247.559 105.838 241.433L141.297 155.827C143.834 149.701 148.701 144.834 154.827 142.297L240.433 106.838Z" fill="#49505D"/>
</svg>
