<svg width="1001" height="1001" viewBox="0 0 1001 1001" fill="none" xmlns="http://www.w3.org/2000/svg">
<mask id="path-1-outside-1_131_15" maskUnits="userSpaceOnUse" x="12.8486" y="153.538" width="976" height="700" fill="black">
<rect fill="white" x="12.8486" y="153.538" width="976" height="700"/>
<path fill-rule="evenodd" clip-rule="evenodd" d="M903.591 294.283L960.751 315.999L957.718 328.807L958.209 328.702L918.833 491.289L896.106 632.746L849.39 726.208L776.159 783.043V726.208L810.249 676.951L820.981 592.961L787.522 519.707L714.291 491.289L540.683 559.491L513.537 592.961L494.583 676.951L513.537 783.043L466.638 824.084L415.926 783.043L432.342 676.951L425.155 592.961L395.483 559.491L247.759 491.289L178.315 519.707C172.423 540.546 160.639 584.372 160.639 592.961C160.639 601.549 167.794 652.533 171.371 676.951L198.517 726.208V783.043L136.65 726.208L75.4132 632.746V491.289L42.3878 328.702L42.7566 328.784L39.8486 314.729L79.2248 296.595L79.2253 214.382C79.2253 211.783 121.697 228.697 152.325 241.35L186.944 178.538L472.035 227.064L793.521 178.538L826.043 242.189C856.817 229.413 903.592 210.652 903.592 213.38L903.591 294.283Z"/>
</mask>
<path fill-rule="evenodd" clip-rule="evenodd" d="M903.591 294.283L960.751 315.999L957.718 328.807L958.209 328.702L918.833 491.289L896.106 632.746L849.39 726.208L776.159 783.043V726.208L810.249 676.951L820.981 592.961L787.522 519.707L714.291 491.289L540.683 559.491L513.537 592.961L494.583 676.951L513.537 783.043L466.638 824.084L415.926 783.043L432.342 676.951L425.155 592.961L395.483 559.491L247.759 491.289L178.315 519.707C172.423 540.546 160.639 584.372 160.639 592.961C160.639 601.549 167.794 652.533 171.371 676.951L198.517 726.208V783.043L136.65 726.208L75.4132 632.746V491.289L42.3878 328.702L42.7566 328.784L39.8486 314.729L79.2248 296.595L79.2253 214.382C79.2253 211.783 121.697 228.697 152.325 241.35L186.944 178.538L472.035 227.064L793.521 178.538L826.043 242.189C856.817 229.413 903.592 210.652 903.592 213.38L903.591 294.283Z" fill="#525B6D"/>
<path d="M960.751 315.999L982.645 321.185L987.195 301.977L968.742 294.966L960.751 315.999ZM903.591 294.283L881.091 294.283L881.091 309.804L895.6 315.316L903.591 294.283ZM957.718 328.807L935.823 323.621L927.624 358.24L962.416 350.811L957.718 328.807ZM958.209 328.702L980.077 333.998L988.498 299.227L953.511 306.698L958.209 328.702ZM918.833 491.289L896.965 485.993L896.757 486.849L896.618 487.72L918.833 491.289ZM896.106 632.746L916.232 642.805L917.774 639.72L918.321 636.315L896.106 632.746ZM849.39 726.208L863.185 743.983L867.227 740.845L869.515 736.268L849.39 726.208ZM776.159 783.043H753.659V828.987L789.954 800.818L776.159 783.043ZM776.159 726.208L757.657 713.404L753.659 719.182V726.208H776.159ZM810.249 676.951L828.75 689.755L831.872 685.244L832.567 679.803L810.249 676.951ZM820.981 592.961L843.3 595.813L844.113 589.449L841.447 583.613L820.981 592.961ZM787.522 519.707L807.988 510.359L804.188 502.039L795.662 498.731L787.522 519.707ZM714.291 491.289L722.431 470.313L714.241 467.135L706.064 470.347L714.291 491.289ZM540.683 559.491L532.456 538.549L526.941 540.716L523.208 545.318L540.683 559.491ZM513.537 592.961L496.062 578.788L492.747 582.875L491.589 588.008L513.537 592.961ZM494.583 676.951L472.635 671.998L471.634 676.433L472.433 680.908L494.583 676.951ZM513.537 783.043L528.354 799.976L537.922 791.603L535.686 779.086L513.537 783.043ZM466.638 824.084L452.484 841.574L467.204 853.487L481.455 841.016L466.638 824.084ZM415.926 783.043L393.69 779.603L391.711 792.392L401.771 800.533L415.926 783.043ZM432.342 676.951L454.578 680.392L454.991 677.723L454.76 675.032L432.342 676.951ZM425.155 592.961L447.573 591.042L446.937 583.614L441.991 578.035L425.155 592.961ZM395.483 559.491L412.32 544.565L409.194 541.039L404.915 539.063L395.483 559.491ZM247.759 491.289L257.19 470.861L248.3 466.756L239.237 470.465L247.759 491.289ZM178.315 519.707L169.794 498.883L159.647 503.035L156.664 513.585L178.315 519.707ZM171.371 676.951L149.109 680.212L149.699 684.243L151.665 687.811L171.371 676.951ZM198.517 726.208H221.017V720.419L218.223 715.348L198.517 726.208ZM198.517 783.043L183.295 799.613L221.017 834.266V783.043H198.517ZM136.65 726.208L117.829 738.539L119.365 740.882L121.428 742.778L136.65 726.208ZM75.4132 632.746H52.9132V639.46L56.593 645.077L75.4132 632.746ZM75.4132 491.289H97.9132V489.027L97.4629 486.81L75.4132 491.289ZM42.3878 328.702L47.3036 306.745L13.4278 299.161L20.338 333.181L42.3878 328.702ZM42.7566 328.784L37.8408 350.741L71.8513 358.355L64.79 324.226L42.7566 328.784ZM39.8486 314.729L30.4369 294.292L14.1916 301.774L17.8153 319.288L39.8486 314.729ZM79.2248 296.595L88.6365 317.032L101.725 311.005L101.725 296.596L79.2248 296.595ZM79.2253 214.382L101.725 214.383V214.382H79.2253ZM152.325 241.35L143.734 262.145L162.323 269.824L172.03 252.21L152.325 241.35ZM186.944 178.538L190.719 156.357L174.956 153.674L167.238 167.677L186.944 178.538ZM472.035 227.064L468.259 249.245L471.821 249.851L475.393 249.312L472.035 227.064ZM793.521 178.538L813.557 168.3L806.184 153.871L790.162 156.29L793.521 178.538ZM826.043 242.189L806.007 252.426L815.467 270.941L834.67 262.969L826.043 242.189ZM903.592 213.38L926.092 213.38V213.38H903.592ZM968.742 294.966L911.582 273.25L895.6 315.316L952.76 337.033L968.742 294.966ZM979.612 333.992L982.645 321.185L938.857 310.814L935.823 323.621L979.612 333.992ZM953.511 306.698L953.019 306.803L962.416 350.811L962.908 350.706L953.511 306.698ZM940.701 496.585L980.077 333.998L936.341 323.406L896.965 485.993L940.701 496.585ZM918.321 636.315L941.048 494.858L896.618 487.72L873.891 629.176L918.321 636.315ZM869.515 736.268L916.232 642.805L875.98 622.686L829.264 716.148L869.515 736.268ZM789.954 800.818L863.185 743.983L835.594 708.433L762.363 765.269L789.954 800.818ZM753.659 726.208V783.043H798.659V726.208H753.659ZM791.748 664.146L757.657 713.404L794.66 739.013L828.75 689.755L791.748 664.146ZM798.663 590.109L787.93 674.099L832.567 679.803L843.3 595.813L798.663 590.109ZM767.056 529.054L800.515 602.309L841.447 583.613L807.988 510.359L767.056 529.054ZM706.151 512.265L779.382 540.683L795.662 498.731L722.431 470.313L706.151 512.265ZM548.91 580.433L722.518 512.231L706.064 470.347L532.456 538.549L548.91 580.433ZM531.012 607.134L558.158 573.664L523.208 545.318L496.062 578.788L531.012 607.134ZM516.531 681.904L535.485 597.914L491.589 588.008L472.635 671.998L516.531 681.904ZM535.686 779.086L516.732 672.994L472.433 680.908L491.388 787.001L535.686 779.086ZM481.455 841.016L528.354 799.976L498.72 766.111L451.821 807.152L481.455 841.016ZM401.771 800.533L452.484 841.574L480.792 806.594L430.08 765.553L401.771 800.533ZM410.107 673.51L393.69 779.603L438.161 786.484L454.578 680.392L410.107 673.51ZM402.737 594.879L409.924 678.869L454.76 675.032L447.573 591.042L402.737 594.879ZM378.647 574.417L408.318 607.887L441.991 578.035L412.32 544.565L378.647 574.417ZM238.327 511.717L386.052 579.919L404.915 539.063L257.19 470.861L238.327 511.717ZM186.837 540.53L256.28 512.113L239.237 470.465L169.794 498.883L186.837 540.53ZM183.139 592.961C183.139 593.621 183.267 591.692 184.583 585.491C185.695 580.245 187.276 573.618 189.088 566.418C192.702 552.054 197.06 536.108 199.967 525.828L156.664 513.585C153.679 524.145 149.199 540.531 145.448 555.437C143.577 562.873 141.843 570.115 140.562 576.153C139.484 581.237 138.139 588.007 138.139 592.961H183.139ZM193.633 673.689C191.855 661.547 189.187 642.804 186.969 626.064C185.858 617.684 184.872 609.896 184.168 603.723C183.815 600.631 183.544 598.039 183.364 596.028C183.163 593.79 183.139 592.935 183.139 592.961H138.139C138.139 596.657 138.777 602.855 139.458 608.824C140.207 615.39 141.233 623.484 142.359 631.976C144.612 648.979 147.31 667.936 149.109 680.212L193.633 673.689ZM218.223 715.348L191.077 666.091L151.665 687.811L178.811 737.068L218.223 715.348ZM221.017 783.043V726.208H176.017V783.043H221.017ZM121.428 742.778L183.295 799.613L213.739 766.474L151.871 709.639L121.428 742.778ZM56.593 645.077L117.829 738.539L155.47 713.877L94.2334 620.415L56.593 645.077ZM52.9132 491.289V632.746H97.9132V491.289H52.9132ZM20.338 333.181L53.3635 495.768L97.4629 486.81L64.4375 324.223L20.338 333.181ZM47.6724 306.828L47.3036 306.745L37.472 350.658L37.8408 350.741L47.6724 306.828ZM17.8153 319.288L20.7232 333.343L64.79 324.226L61.882 310.171L17.8153 319.288ZM69.813 276.159L30.4369 294.292L49.2604 335.166L88.6365 317.032L69.813 276.159ZM56.7253 214.382L56.7248 296.595L101.725 296.596L101.725 214.383L56.7253 214.382ZM160.916 220.554C145.532 214.199 127.024 206.711 112.276 201.112C104.972 198.338 98.2315 195.891 93.1563 194.278C90.7721 193.52 87.9746 192.691 85.422 192.193C84.4653 192.006 81.7703 191.488 78.5947 191.646C77.2668 191.712 73.1543 191.972 68.669 194.391C62.7175 197.6 56.7253 204.54 56.7253 214.382H101.725C101.725 224.062 95.816 230.878 90.0271 233.999C85.7043 236.33 81.8341 236.54 80.8247 236.59C79.3186 236.665 78.196 236.552 77.7603 236.503C77.2364 236.443 76.8917 236.377 76.798 236.359C76.6878 236.337 77.4477 236.503 79.5239 237.163C83.3693 238.385 89.1613 240.47 96.3032 243.181C110.448 248.552 128.491 255.848 143.734 262.145L160.916 220.554ZM167.238 167.677L132.62 230.489L172.03 252.21L206.649 189.398L167.238 167.677ZM475.81 204.883L190.719 156.357L183.168 200.719L468.259 249.245L475.81 204.883ZM790.162 156.29L468.677 204.816L475.393 249.312L796.879 200.786L790.162 156.29ZM846.079 231.951L813.557 168.3L773.484 188.775L806.007 252.426L846.079 231.951ZM926.092 213.38C926.092 209.062 924.849 204.442 921.98 200.35C919.263 196.476 915.914 194.242 913.407 193.006C908.934 190.8 904.899 190.654 903.656 190.621C900.586 190.54 897.958 191.071 896.965 191.277C894.366 191.814 891.454 192.692 888.874 193.527C883.424 195.291 876.165 197.953 868.317 200.956C852.488 207.013 832.879 214.989 817.416 221.408L834.67 262.969C849.981 256.613 869.146 248.821 884.398 242.985C892.09 240.042 898.448 237.727 902.731 236.341C903.773 236.003 904.602 235.751 905.232 235.571C905.905 235.38 906.149 235.33 906.078 235.344C906.035 235.353 905.75 235.412 905.289 235.472C904.913 235.52 903.875 235.643 902.462 235.606C901.569 235.582 897.8 235.484 893.506 233.366C891.088 232.174 887.807 229.995 885.135 226.185C882.311 222.158 881.092 217.612 881.092 213.38H926.092ZM926.091 294.283L926.092 213.38L881.092 213.38L881.091 294.283L926.091 294.283Z" fill="#383333" mask="url(#path-1-outside-1_131_15)"/>
<path d="M246.084 472.728L133.868 525.803L165.713 472.728L205.14 395.389L293.094 404.488L361.334 442.399L541.791 449.981L673.721 395.389L770.773 410.554L869.342 492.441L843.563 525.803L770.773 492.441L713.149 472.728L529.659 544.001L475.067 621.339V669.865L493.265 776.016L464.452 801.796L437.156 757.819L456.87 669.865V621.339L414.41 544.001L246.084 472.728Z" fill="#626B7E"/>
<path d="M472.034 283.172L214.239 237.679L139.877 314.917L84.2471 339.513L96.7055 376.057C125.825 391.649 145.414 389.097 158.032 392.216C170.65 395.334 270.868 418.202 319.4 429.247L566.801 441.776L741.429 412.019L881.587 372.865L887.962 339.513L825.09 314.917L763.191 248.294L472.034 283.172Z" fill="#383F4E"/>
<path d="M77.0073 367.091L77.0082 215.252C77.0082 212.216 135.438 235.919 164.653 248.151L215.462 306.355L262.46 320.274L305.647 367.091L243.406 426.561L164.653 493.623L143.059 526.522L130.357 583.461L121.465 663.177L90.9798 569.543V493.623L77.0073 367.091Z" fill="#5D6678"/>
<path d="M910.364 367.091L910.366 215.252C910.366 212.215 851.934 235.919 822.719 248.151L771.911 306.355L724.913 320.274L681.726 367.091L743.966 426.561L822.719 493.623L844.313 526.521L857.015 583.461L865.907 663.176L896.392 569.542V493.623L910.364 367.091Z" fill="#5D6678"/>
<path d="M131.402 281.856L78.1812 214.309L164.348 244.896L213.768 302.247L263.187 318.815L208.699 453.907L182.089 399.106L154.211 327.736L131.402 281.856Z" fill="#656E7D"/>
<path d="M854.028 283.307L903.126 211.276L815.001 249.187L772.197 303.527L725.616 319.955L702.956 347.756L777.233 453.907L803.67 399.568L831.367 328.801L854.028 283.307Z" fill="#656E7D"/>
<path d="M388.36 466.22C331.679 443.428 220.092 417.196 217.047 417.196L214.239 362.027L238.619 294.636L318.566 259.803L321.906 331.699L472.113 345.347L644.908 327.149L649.772 259.803L739.87 294.636L760.158 360.431L752.56 417.196L574.902 466.22L502.569 516.534L472.113 605.552L440.389 516.534L388.36 466.22Z" fill="#6D788C"/>
<path d="M539.37 392.477H413.74L299.531 352.686L284.303 319.313L318.566 262.835L238.62 297.492L212.723 361.671L209.69 451.497L299.531 434.817L388.361 466.925L442.927 518.268L472.114 605.551L502.57 518.268L574.902 466.925L752.561 419.432L758.642 361.671L739.871 297.492L651.041 262.835C663.731 280.806 689.111 317.259 689.111 319.313V344.985L649.772 375.791L539.37 392.477Z" fill="#818B9E"/>
<path d="M469.423 602.519V392.82H541.173L650.357 374.041L687.791 344.308V317.705L650.357 259.803L739.263 292.666L761.675 362.027L775.323 453.014L696.468 431.784L572.368 464.806L500.619 518.013L469.423 602.519Z" fill="#939CAC"/>
</svg>
