<svg width="501" height="501" viewBox="0 0 501 501" fill="none" xmlns="http://www.w3.org/2000/svg">
<path d="M259.012 36.973L396.925 94.0983C401.895 96.1569 405.843 100.105 407.902 105.075L465.027 242.988C467.086 247.958 467.086 253.542 465.027 258.512L407.902 396.425C405.843 401.395 401.895 405.343 396.925 407.402L259.012 464.527C254.042 466.586 248.458 466.586 243.488 464.527L105.575 407.402C100.605 405.343 96.6569 401.395 94.5983 396.425L37.473 258.512C35.4144 253.542 35.4144 247.958 37.473 242.988L94.5983 105.075C96.6569 100.105 100.605 96.1569 105.575 94.0983L243.488 36.973C248.458 34.9144 254.042 34.9144 259.012 36.973Z" fill="#3F4550" stroke="#373F48" stroke-width="27.5"/>
<path d="M247.965 85.1867C248.97 84.8271 250.069 84.8271 251.074 85.1867L356.576 122.931C357.595 123.296 358.453 124.006 359.001 124.939L415.091 220.432C415.649 221.382 415.849 222.5 415.654 223.584L396.18 332.142C395.987 333.219 395.418 334.192 394.574 334.888L308.601 405.797C307.774 406.478 306.736 406.851 305.665 406.851H193.374C192.303 406.851 191.265 406.478 190.438 405.797L104.465 334.888C103.621 334.192 103.052 333.219 102.859 332.142L83.385 223.584C83.1905 222.5 83.3903 221.382 83.9481 220.432L140.038 124.939C140.586 124.006 141.444 123.296 142.463 122.931L247.965 85.1867Z" fill="#5D6678"/>
<path d="M205.682 222.487L248.943 84.6306L140.504 123.853L82.8232 222.487L103.588 334.387L205.682 222.487Z" fill="#5A6273"/>
<path d="M396.028 333.233L251.827 294.01C251.827 294.01 108.664 333.233 105.896 333.233C103.127 333.233 161.653 381.3 191.263 405.333H308.354L396.028 333.233Z" fill="#525B6D"/>
<path d="M68.125 90.125L108.125 71.375L148.75 43.875L232.5 19.5L293.125 28.875L310 52.625V71.375L284.375 116.375L310 128.875L327.5 165.125L293.125 185.125V222.625L310 245.75L252.5 266.375L232.5 315.125L200.625 325.125L163.125 344.5H108.125L68.125 363.875L45 315.125L15 245.75L45 173.875L68.125 90.125Z" fill="#DFE9F8" stroke="#CFD1FF" stroke-width="18.75"/>
</svg>
