<svg width="400" height="400" viewBox="0 0 400 400" fill="none" xmlns="http://www.w3.org/2000/svg">
<path d="M172.346 186.327L331.394 359.345L345.365 369.017C351.096 370.808 357.186 377.614 360.41 377.614C365.216 377.614 372.231 377.256 377.604 375.465L390.5 357.196L389.425 340.002L212.108 151.938C201.362 140.103 190.074 125.765 197.063 120.76C204.586 115.373 202.437 117.536 211.034 112.162L234.676 97.1312L257.244 65.9664C240.766 45.5481 208.455 6.00106 206.735 6.86078C205.016 7.72049 199.213 9.72648 197.063 11.1593C180.944 26.5626 146.555 67.0135 143.331 69.1766C135.989 74.1024 133.67 71.3251 128.324 64.9231L128.286 64.878L117.539 62.7287C105.718 62.7287 98.1958 69.1628 94.9718 71.3259C85.3 85.2963 87.8075 91.7442 88.5239 93.8935C91.1031 98.1921 100.345 110.371 98.1958 110.013C98.1958 113.954 98.1958 110.013 88.5239 120.773L74.5535 133.669L56.2845 151.938C44.8216 175.939 22.8031 228.721 19.7465 233.611C14.3732 242.209 9 302.389 9 306.688C9 310.126 11.1493 317.792 11.1493 320.658L22.9704 313.135L85.3 209.969L112.166 186.327L142.256 176.641L150.854 166.97L172.346 186.327Z" fill="#200707"/>
<rect x="86.4902" y="88.4619" width="42.3704" height="396.69" rx="21.1852" transform="rotate(-43.347 86.4902 88.4619)" fill="#332525"/>
<path d="M251.87 67.0411L207.81 11.1594C186.317 17.6073 125.419 96.7741 122.912 99.2805C118.614 103.579 100.345 116.475 94.9716 119.699C89.0711 123.239 65.4239 149.111 60.5829 155.162C56.2843 160.535 16.5224 246.507 16.5224 263.702C16.5224 280.896 10.0747 294.866 16.5224 314.21L31.5674 289.493L50.911 254.03L79.9265 207.82L108.942 179.879L141.181 168.058L162.674 134.744L203.511 105.728L232.527 92.8327L251.87 67.0411Z" fill="#3F4550"/>
<path d="M226.035 69.9672L204.542 37.7278C187.277 41.9806 129.466 103.169 127.446 104.844C123.983 107.718 124.657 110.426 108.899 119.401C108.899 119.401 84.8617 141.142 80.9579 145.193C77.4916 148.789 41.6085 203.432 41.5529 214.994C41.4973 226.556 36.2788 235.925 41.3896 248.957L53.5408 232.395L69.1758 208.623L92.6057 177.663L115.977 158.987L141.882 151.162L159.235 128.844L192.094 109.491L214.214 92.5348L226.035 69.9672Z" fill="#5A6273"/>
<path d="M149.462 162.964C142.534 144.917 142.889 130.77 150.447 123.635C158.006 116.5 172.15 116.962 189.768 124.92L215.889 192.966L149.462 162.964Z" fill="#332525"/>
</svg>
