<svg width="400" height="400" viewBox="0 0 400 400" fill="none" xmlns="http://www.w3.org/2000/svg">
<g clip-path="url(#clip0_147_103)">
<path d="M17.3241 179.948L8.83883 153.785L146.371 17.6673L173.241 24.0312L225.214 74.5894L228.395 96.8632L191.979 133.279L188.444 158.735L377.241 347.533L385.373 355.664C387.023 358.964 390.252 366.2 389.969 368.746C389.616 371.928 391.384 377.231 388.909 379.706C386.434 382.181 379.009 390.313 376.888 391.727C375.191 392.858 366.517 395.262 362.392 396.323L352.493 394.909L152.382 194.798L125.865 199.394L90.1561 235.103L66.468 229.092L17.3241 179.948Z" fill="black" fill-opacity="0.5" stroke="black" stroke-opacity="0.5"/>
<rect x="82.3779" y="119.844" width="42.3704" height="396.69" rx="21.1852" transform="rotate(-45 82.3779 119.844)" fill="black" fill-opacity="0.5"/>
<path d="M152.028 189.494L92.2773 199.04L190.919 100.399L182.433 159.089L152.028 189.494Z" fill="black" fill-opacity="0.5"/>
<path d="M21.9205 178.18L14.4959 156.614L147.432 23.6777L170.766 29.3345L217.789 76.3571L220.264 96.5097L87.3279 229.446L68.9431 225.203L21.9205 178.18Z" fill="black" fill-opacity="0.5"/>
<path d="M37.5 173.989L49.1665 138.717L131.309 56.5743L168.5 48.9606L193.539 74L187.367 112.633L105.225 194.775L68.5113 205L37.5 173.989Z" fill="black" fill-opacity="0.5"/>
<path d="M20.3241 165.948L11.8388 139.785L149.371 3.66726L176.241 10.0312L228.214 60.5894L231.395 82.8632L194.979 119.279L191.444 144.735L380.241 333.533L388.373 341.664C390.023 344.964 393.252 352.2 392.969 354.746C392.616 357.928 394.384 363.231 391.909 365.706C389.434 368.181 382.009 376.313 379.888 377.727C378.191 378.858 369.517 381.262 365.392 382.323L355.493 380.909L155.382 180.798L128.865 185.394L93.1561 221.103L69.468 215.092L20.3241 165.948Z" fill="#200707" stroke="black"/>
<rect x="85.3779" y="105.844" width="42.3704" height="396.69" rx="21.1852" transform="rotate(-45 85.3779 105.844)" fill="#332525"/>
<path d="M155.028 175.494L95.2773 185.04L193.919 86.3988L185.433 145.089L155.028 175.494Z" fill="#3F4550"/>
<path d="M24.9205 164.18L17.4959 142.614L150.432 9.67766L173.766 15.3345L220.789 62.3571L223.264 82.5097L90.3279 215.446L71.9431 211.203L24.9205 164.18Z" fill="#3F4550"/>
<path d="M40.5 159.989L52.1665 124.717L134.309 42.5743L171.5 34.9606L196.539 60L190.367 98.6328L108.225 180.775L71.5113 191L40.5 159.989Z" fill="#5A6273"/>
</g>
<defs>
<clipPath id="clip0_147_103">
<rect width="400" height="400" fill="white"/>
</clipPath>
</defs>
</svg>
