<svg width="400" height="400" viewBox="0 0 400 400" fill="none" xmlns="http://www.w3.org/2000/svg">
<g clip-path="url(#clip0_102_53)">
<path d="M369.809 147.371L362.26 327.865L319.322 279.152L269.778 250.437L204.663 272.999H178.712L140.02 259.667H109.787L75.3777 265.308L35.2708 304.278L25.3621 133.526L75.3777 97.6321L188.621 128.911L319.322 102.76L369.809 147.371Z" fill="#383333"/>
<path d="M33.7108 106.002C33.7108 106.002 17.1672 150.031 15.998 153.932L33.7107 170.664L189.092 153.932L189.092 130.344L75.5126 128.278L63.4097 122.124L79.9529 111.793L133.136 58.1551L66.7888 74.7842L33.7108 106.002Z" fill="#383333"/>
<path d="M354.489 102.88C354.489 102.88 378.338 167.44 379.507 171.34L359.652 183.348L192.949 156.769L192.949 133.182L312.687 125.156L324.79 119.002L309.505 113.157L254.503 56.7917L324.79 78.1561L354.489 102.88Z" fill="#383333"/>
<path d="M20.4353 241.593L7.22363 158.525L192.659 107.248L379.981 171.344V181.599V199.546V218.519V241.593L381.78 257.252L375.416 275.889L368.143 303.617L362.688 332.254L352.688 359.53L324.96 334.405V281.589L336.572 289.281L328.078 250.823L312.979 218.519C301.183 215.613 276.175 211.545 270.513 218.519C264.851 225.492 257.144 221.424 253.999 218.519L225.688 225.185L216.775 285.889V303.617V312.708L223.593 335.436L201.624 359.53L176.774 331.345L182.229 318.163V301.344L173.785 281.589L164.348 264.668L145.474 241.593L129.903 218.519H94.515L74.6975 241.593C72.9957 246.573 69.4197 256.407 66.7447 261.93C66.7359 263.771 66.3473 267.446 65.2606 274.071L60.8615 305.89C59.7606 311.359 58.1342 359.53 58.1342 359.53L24.4969 324.981L20.4353 281.589V241.593Z" fill="#383333"/>
<path d="M33.8553 259.154C30.8669 230.439 24.4184 172.291 22.531 169.42C73.0184 155.404 174.937 127.373 178.712 127.373H205.135C257.825 147.029 363.958 186.751 366.978 188.392C370.753 190.443 368.865 208.39 366.978 213.518C365.468 217.62 363.832 240.524 363.203 251.463L358.013 269.41L342.442 243.259C334.106 228.046 316.491 197.314 312.716 196.084C307.997 194.545 225.424 203.263 217.875 203.263C211.835 203.263 206.865 220.697 205.135 229.414L194.283 269.41C192.553 260.693 188.149 243.259 184.374 243.259C179.655 243.259 168.803 203.263 163.141 203.263H99.4418L74.434 218.646C66.0981 225.995 48.1994 241.207 43.2922 243.259C38.385 245.31 34.9563 254.71 33.8553 259.154Z" fill="#383333"/>
<path d="M172.578 164.805L186.733 124.809L191.452 118.656L219.29 164.805L195.698 253.002L179.655 217.108L172.578 164.805Z" fill="#383333"/>
<path d="M135.774 173.522L143.795 135.578L156.535 124.809L153.232 144.295C156.221 170.959 161.631 210.237 165.028 223.774C165.028 223.774 148.671 200.87 135.774 173.522Z" fill="#383333"/>
<path d="M99.9136 189.931C101.172 177.112 103.972 150.038 105.104 144.295L115.956 135.578V170.446L122.562 207.878L99.9136 189.931Z" fill="#383333"/>
<path d="M63.5815 189.931C67.0417 178.65 74.3396 155.268 75.8495 151.986L72.0748 201.212L63.5815 189.931Z" fill="#383333"/>
<path d="M233.918 176.086L230.143 135.578L224.481 124.809L237.221 135.578L255.151 176.086L244.298 196.084L216.459 223.774L233.918 176.086Z" fill="#383333"/>
<path d="M268.834 176.086L258.454 144.295L260.813 138.654C266.003 145.833 276.761 161.113 278.271 164.805C280.159 169.42 282.046 183.778 282.046 189.931L264.116 207.878C264.116 207.878 265.689 186.684 268.834 176.086Z" fill="#383333"/>
<path d="M301.863 182.752L290.067 151.986L285.349 144.295L307.054 157.627L315.075 182.752L299.032 204.801L301.863 182.752Z" fill="#383333"/>
<path d="M363.597 154.805L356.324 310.89L314.96 268.765L267.231 243.933L204.502 263.443H179.501L142.227 251.915H113.101L79.953 256.792L41.3155 290.492L31.7698 142.833L79.953 111.793L189.047 138.842L314.96 116.227L363.597 154.805Z" fill="#3F4550"/>
<path d="M39.7135 109.764C39.7135 109.764 23.7761 148.796 22.6498 152.253L39.7135 167.086L189.403 152.253L189.403 131.343L79.9838 129.512L68.3244 124.056L68.7335 112.994L117.615 66.3943L71.5797 82.0905L39.7135 109.764Z" fill="#78808F"/>
<path d="M348.66 109.769C348.66 109.769 369.572 162.811 370.698 166.268L353.634 181.101L193.039 157.54L193.039 136.631L308.39 129.516L320.049 124.06L319.64 112.998L270.759 66.3984L316.794 82.0946L348.66 109.769Z" fill="#78808F"/>
<path d="M26.6705 234.361L13.9429 160.722L192.584 115.266L373.044 172.086V181.177V197.087V213.906V234.361V254.816L367.135 269.816L358.044 316.636L350.316 345.727L331.225 328.454V298.908V276.635L323.043 242.543L308.497 213.906C297.133 211.33 273.041 207.724 267.586 213.906C262.132 220.088 254.707 216.481 251.677 213.906L224.403 219.815L211.676 276.635V294.59V312.545L217.585 334.364L201.221 352.546L182.129 331.182L186.675 316.636V298.908L174.402 269.816L165.311 254.816L147.128 234.361L132.128 213.906H98.0362L78.9447 234.361C76.975 239.664 72.3991 251.179 69.8536 254.816C67.308 258.452 60.3078 262.392 57.1259 263.907V290.726C56.0653 295.575 52.1258 344.818 52.1258 344.818L29.8524 320.272L26.6705 269.816V234.361Z" fill="#525B6D"/>
<path d="M39.8528 250.27C36.9739 224.815 30.7616 173.268 28.9434 170.723C77.5811 158.298 175.766 133.449 179.402 133.449H204.857C255.617 150.873 357.862 186.087 360.771 187.541C364.407 189.359 362.589 205.269 360.771 209.815C359.316 213.451 357.741 233.755 357.135 243.452L352.134 259.361L337.134 236.179C329.103 222.694 312.133 195.451 308.497 194.36C303.951 192.996 224.403 200.723 217.131 200.723C211.312 200.723 206.524 216.178 204.857 223.906L194.403 259.361C192.736 251.634 188.493 236.179 184.857 236.179C180.311 236.179 169.856 200.723 164.402 200.723H103.036L78.9448 214.36C70.9143 220.875 53.6713 234.361 48.9439 236.179C44.2165 237.997 40.9134 246.331 39.8528 250.27Z" fill="#5D6678"/>
<path d="M173.493 166.632L187.13 131.176L191.675 125.721L218.494 166.632L195.766 244.816L180.311 212.997L173.493 166.632Z" fill="#7A869E"/>
<path d="M138.037 174.359L145.765 140.722L158.038 131.176L154.856 148.449C157.735 172.086 162.947 206.905 166.22 218.906C166.22 218.906 150.462 198.602 138.037 174.359Z" fill="#7A869E"/>
<path d="M103.491 188.905C104.703 177.541 107.4 153.54 108.491 148.449L118.946 140.722V171.632L125.31 204.814L103.491 188.905Z" fill="#7A869E"/>
<path d="M68.49 188.905C71.8234 178.905 78.8539 158.177 80.3085 155.268L76.672 198.905L68.49 188.905Z" fill="#7A869E"/>
<path d="M232.586 176.632L228.949 140.722L223.494 131.176L235.767 140.722L253.041 176.632L242.586 194.36L215.767 218.906L232.586 176.632Z" fill="#7A869E"/>
<path d="M266.223 176.632L256.223 148.449L258.495 143.449C263.496 149.813 273.859 163.359 275.314 166.632C277.132 170.723 278.951 183.45 278.951 188.905L261.677 204.814C261.677 204.814 263.193 186.026 266.223 176.632Z" fill="#7A869E"/>
<path d="M298.042 182.541L286.678 155.268L282.132 148.449L303.042 160.268L310.77 182.541L295.315 202.087L298.042 182.541Z" fill="#7A869E"/>
</g>
<defs>
<clipPath id="clip0_102_53">
<rect width="400" height="400" fill="white"/>
</clipPath>
</defs>
</svg>
