<svg width="1001" height="1001" viewBox="0 0 1001 1001" fill="none" xmlns="http://www.w3.org/2000/svg">
<g clip-path="url(#clip0_135_527)">
<path d="M511.573 28.5287L611.865 143.957C619.784 153.072 631.843 157.461 643.769 155.569L794.793 131.612C803.797 130.184 811.984 137.053 812.141 146.169L814.772 299.059C814.98 311.132 821.396 322.245 831.748 328.461L962.839 407.185C970.655 411.879 972.51 422.403 966.771 429.487L870.511 548.299C862.91 557.682 860.682 570.319 864.616 581.735L914.434 726.305C917.405 734.925 912.061 744.179 903.111 745.917L753.001 775.058C741.148 777.359 731.317 785.607 726.993 796.881L672.228 939.65C668.963 948.163 658.921 951.818 650.948 947.396L517.226 873.23C506.666 867.374 493.834 867.374 483.274 873.23L349.552 947.396C341.579 951.818 331.537 948.163 328.272 939.65L273.507 796.881C269.183 785.607 259.352 777.359 247.499 775.058L97.3889 745.917C88.4386 744.179 83.0955 734.925 86.0659 726.305L135.884 581.735C139.818 570.319 137.59 557.682 129.989 548.299L33.729 429.487C27.9895 422.403 29.8452 411.879 37.6615 407.185L168.752 328.461C179.104 322.245 185.52 311.132 185.728 299.059L188.359 146.169C188.516 137.053 196.702 130.184 205.707 131.612L356.731 155.569C368.657 157.461 380.716 153.072 388.635 143.957L488.927 28.5287C494.907 21.6463 505.593 21.6463 511.573 28.5287Z" fill="#525B6D" stroke="#4A4242" stroke-width="20"/>
</g>
<defs>
<clipPath id="clip0_135_527">
<rect width="1000" height="1000" fill="white" transform="translate(0.25 0.25)"/>
</clipPath>
</defs>
</svg>
