<svg width="501" height="501" viewBox="0 0 501 501" fill="none" xmlns="http://www.w3.org/2000/svg">
<path d="M216.058 233.284L414.868 449.557L432.331 461.646C439.495 463.885 447.107 472.393 451.137 472.393C457.145 472.393 465.914 471.945 472.63 469.706L488.75 446.87L487.407 425.377L265.761 190.298C252.327 175.504 238.217 157.581 246.954 151.325C256.357 144.591 253.671 147.295 264.417 140.578L293.97 121.789L322.18 82.833C301.582 57.3101 261.193 7.87637 259.044 8.95102C256.895 10.0257 249.641 12.5331 246.954 14.3242C226.805 33.5783 183.819 84.1419 179.789 86.8457C170.612 93.003 167.712 89.5315 161.029 81.5289L160.982 81.4725L147.549 78.7859C132.773 78.7859 123.37 86.8285 119.34 89.5324C107.25 106.995 110.384 115.055 111.28 117.742C114.504 123.115 126.056 138.339 123.37 137.892C123.37 142.817 123.37 137.892 111.28 151.342L93.8169 167.462L70.9806 190.298C56.652 220.298 29.1288 286.276 25.3081 292.389C18.5915 303.136 11.875 378.361 11.875 383.734C11.875 388.033 14.5616 397.615 14.5616 401.198L29.338 391.794L107.25 262.837L140.833 233.284L178.445 221.177L189.192 209.087L216.058 233.284Z" fill="#200707"/>
<rect x="108.738" y="110.952" width="52.9629" height="495.863" rx="26.4815" transform="rotate(-43.347 108.738 110.952)" fill="#332525"/>
<path d="M315.463 84.1764L260.387 14.3243C233.521 22.3842 157.399 121.343 154.265 124.476C148.892 129.849 126.056 145.969 119.339 149.999C111.964 154.424 82.4047 186.764 76.3535 194.328C70.9802 201.044 21.2779 308.509 21.2779 330.002C21.2779 351.495 13.2182 368.958 21.2779 393.138L40.0841 362.242L64.2637 317.912L100.533 260.15L136.802 225.224L177.102 210.448L203.968 168.805L255.014 132.536L291.283 116.416L315.463 84.1764Z" fill="#3F4550"/>
<path d="M283.169 87.8341L256.303 47.5348C234.721 52.8508 162.457 129.336 159.933 131.431C155.604 135.023 156.446 138.407 136.748 149.626C136.748 149.626 106.702 176.803 101.822 181.866C97.4894 186.361 52.6355 254.666 52.566 269.118C52.4965 283.57 45.9734 295.282 52.3619 311.572L67.5509 290.869L87.0947 261.154L116.382 222.454L145.596 199.109L177.977 189.328L199.668 161.43L240.742 137.239L268.393 116.044L283.169 87.8341Z" fill="#5A6273"/>
<path d="M187.453 204.08C178.793 181.521 179.236 163.837 188.685 154.919C198.133 146.001 215.813 146.578 237.835 156.524L270.487 241.583L187.453 204.08Z" fill="#332525"/>
</svg>
