<svg width="1001" height="1001" viewBox="0 0 1001 1001" fill="none" xmlns="http://www.w3.org/2000/svg">
<path d="M517.524 73.9461L793.349 188.197C803.289 192.314 811.186 200.211 815.303 210.151L929.554 485.976C933.671 495.916 933.671 507.084 929.554 517.024L815.303 792.849C811.186 802.789 803.289 810.686 793.349 814.803L517.524 929.054C507.584 933.171 496.416 933.171 486.476 929.054L210.651 814.803C200.711 810.686 192.814 802.789 188.697 792.849L74.4461 517.024C70.3288 507.084 70.3288 495.916 74.4461 485.976L188.697 210.151C192.814 200.211 200.711 192.314 210.651 188.197L486.476 73.9461C496.416 69.8288 507.584 69.8288 517.524 73.9461Z" fill="#3F4550" stroke="#373F48" stroke-width="55"/>
<path d="M495.43 170.373C497.44 169.654 499.638 169.654 501.648 170.373L712.653 245.862C714.69 246.591 716.406 248.012 717.502 249.877L829.682 440.864C830.798 442.763 831.197 444.999 830.808 447.167L791.86 664.285C791.474 666.437 790.335 668.383 788.648 669.775L616.702 811.593C615.048 812.956 612.972 813.702 610.829 813.702H386.249C384.106 813.702 382.03 812.956 380.377 811.593L208.43 669.775C206.743 668.383 205.605 666.437 205.218 664.285L166.27 447.167C165.881 444.999 166.281 442.763 167.396 440.864L279.576 249.877C280.672 248.012 282.388 246.591 284.425 245.862L495.43 170.373Z" fill="#5D6678"/>
<path d="M410.865 444.973L497.385 169.261L280.507 247.706L165.146 444.973L206.676 668.773L410.865 444.973Z" fill="#5A6273"/>
<path d="M791.556 666.466L503.153 588.021C503.153 588.021 216.829 666.466 211.291 666.466C205.754 666.466 322.807 762.6 382.025 810.667H616.207L791.556 666.466Z" fill="#525B6D"/>
<path d="M517.524 73.9461L793.349 188.197C803.289 192.314 811.186 200.211 815.303 210.151L929.554 485.976C933.671 495.916 933.671 507.084 929.554 517.024L815.303 792.849C811.186 802.789 803.289 810.686 793.349 814.803L517.524 929.054C507.584 933.171 496.416 933.171 486.476 929.054L210.651 814.803C200.711 810.686 192.814 802.789 188.697 792.849L74.4461 517.024C70.3288 507.084 70.3288 495.916 74.4461 485.976L188.697 210.151C192.814 200.211 200.711 192.314 210.651 188.197L486.476 73.9461C496.416 69.8288 507.584 69.8288 517.524 73.9461Z" fill="#3F4550" stroke="#373F48" stroke-width="55"/>
<path d="M495.43 170.373C497.44 169.654 499.638 169.654 501.648 170.373L712.653 245.862C714.69 246.591 716.406 248.012 717.502 249.877L829.682 440.864C830.798 442.763 831.197 444.999 830.808 447.167L791.86 664.285C791.474 666.437 790.335 668.383 788.648 669.775L616.702 811.593C615.048 812.956 612.972 813.702 610.829 813.702H386.249C384.106 813.702 382.03 812.956 380.377 811.593L208.43 669.775C206.743 668.383 205.605 666.437 205.218 664.285L166.27 447.167C165.881 444.999 166.281 442.763 167.396 440.864L279.576 249.877C280.672 248.012 282.388 246.591 284.425 245.862L495.43 170.373Z" fill="#5D6678"/>
<path d="M410.865 444.973L497.385 169.261L280.507 247.706L165.146 444.973L206.676 668.773L410.865 444.973Z" fill="#5A6273"/>
<path d="M791.556 666.466L503.153 588.021C503.153 588.021 216.829 666.466 211.291 666.466C205.754 666.466 322.807 762.6 382.025 810.667H616.207L791.556 666.466Z" fill="#525B6D"/>
</svg>
