<svg width="400" height="400" viewBox="0 0 400 400" fill="none" xmlns="http://www.w3.org/2000/svg">
<path d="M200 44L300.275 80.4971L353.63 172.911L335.1 278L253.355 346.592H146.645L64.9 278L46.37 172.911L99.7251 80.4971L200 44Z" fill="#273041"/>
<path d="M200 50L296.418 85.0933L347.721 173.953L329.904 275L251.303 340.954H148.697L70.0962 275L52.2788 173.953L103.582 85.0933L200 50Z" fill="#3F4550"/>
<path d="M200 78.5L278.099 106.926L319.654 178.902L305.222 260.75L241.555 314.173H158.445L94.7779 260.75L80.3459 178.902L121.901 106.926L200 78.5Z" fill="#525B6D"/>
<path d="M200 119.75L251.584 138.525L279.031 186.065L269.499 240.125L227.447 275.41H172.553L130.501 240.125L120.969 186.065L148.416 138.525L200 119.75Z" fill="#5A6273"/>
<path d="M200 149.75L232.3 161.506L249.487 191.274L243.518 225.125L217.187 247.22H182.813L156.482 225.125L150.513 191.274L167.7 161.506L200 149.75Z" fill="#5D6678"/>
</svg>
