<svg width="400" height="400" viewBox="0 0 400 400" fill="none" xmlns="http://www.w3.org/2000/svg">
<g clip-path="url(#clip0_28_9)">
<path d="M194.277 13.3328C197.066 9.37457 202.934 9.37457 205.723 13.3328L231.566 50.0185C235.183 55.1533 241.954 56.9676 247.654 54.3293L288.378 35.4802C292.772 33.4464 297.854 36.3807 298.29 41.2028L302.327 85.895C302.893 92.1505 307.849 97.1073 314.105 97.6725L358.797 101.71C363.619 102.146 366.554 107.228 364.52 111.622L345.671 152.346C343.032 158.046 344.847 164.817 349.982 168.434L386.667 194.277C390.625 197.066 390.625 202.934 386.667 205.723L349.982 231.566C344.847 235.183 343.032 241.954 345.671 247.654L364.52 288.378C366.554 292.772 363.619 297.854 358.797 298.29L314.105 302.327C307.849 302.893 302.893 307.849 302.327 314.105L298.29 358.797C297.854 363.619 292.772 366.554 288.378 364.52L247.654 345.671C241.954 343.032 235.183 344.847 231.566 349.982L205.723 386.667C202.934 390.625 197.066 390.625 194.277 386.667L168.434 349.982C164.817 344.847 158.046 343.032 152.346 345.671L111.622 364.52C107.228 366.554 102.146 363.619 101.71 358.797L97.6725 314.105C97.1073 307.849 92.1505 302.893 85.895 302.327L41.2028 298.29C36.3807 297.854 33.4464 292.772 35.4802 288.378L54.3293 247.654C56.9676 241.954 55.1533 235.183 50.0185 231.566L13.3328 205.723C9.37457 202.934 9.37457 197.066 13.3328 194.277L50.0185 168.434C55.1533 164.817 56.9676 158.046 54.3293 152.346L35.4802 111.622C33.4464 107.228 36.3807 102.146 41.2028 101.71L85.895 97.6725C92.1505 97.1073 97.1073 92.1505 97.6725 85.895L101.71 41.2028C102.146 36.3807 107.228 33.4464 111.622 35.4802L152.346 54.3293C158.046 56.9676 164.817 55.1533 168.434 50.0185L194.277 13.3328Z" fill="#978888" stroke="#4A4242" stroke-width="6"/>
<path d="M200 44.1947L300.15 80.6462L353.438 172.945L334.931 277.903L253.288 346.409H146.711L65.0686 277.903L46.5617 172.945L99.8503 80.6462L200 44.1947Z" fill="#273041"/>
<path d="M200 50.1873L296.298 85.2368L347.537 173.985L329.742 274.906L251.239 340.778H148.761L70.2584 274.906L52.4632 173.985L103.702 85.2368L200 50.1873Z" fill="#3F4550"/>
<path d="M200 78.6517L278.001 107.042L319.505 178.928L305.091 260.674L241.504 314.03H158.496L94.9093 260.674L80.4953 178.928L121.999 107.042L200 78.6517Z" fill="#525B6D"/>
<path d="M200 119.85L251.519 138.602L278.932 186.082L269.412 240.075L227.413 275.316H172.587L130.588 240.075L121.068 186.082L148.481 138.602L200 119.85Z" fill="#5A6273"/>
<path d="M200 149.813L232.26 161.554L249.425 191.285L243.463 225.094L217.165 247.161H182.835L156.537 225.094L150.575 191.285L167.74 161.554L200 149.813Z" fill="#5D6678"/>
</g>
<defs>
<clipPath id="clip0_28_9">
<rect width="400" height="400" fill="white"/>
</clipPath>
</defs>
</svg>
