<svg width="400" height="400" viewBox="0 0 400 400" fill="none" xmlns="http://www.w3.org/2000/svg">
<path d="M185.341 20.865C194.407 17.1097 204.593 17.1097 213.659 20.865L316.509 63.4667C325.575 67.222 332.778 74.4249 336.533 83.491L379.135 186.341C382.89 195.407 382.89 205.593 379.135 214.659L336.533 317.509C332.778 326.575 325.575 333.778 316.509 337.533L213.659 380.135C204.593 383.89 194.407 383.89 185.341 380.135L82.491 337.533C73.4249 333.778 66.222 326.575 62.4667 317.509L19.865 214.659C16.1097 205.593 16.1097 195.407 19.865 186.341L62.4667 83.491C66.222 74.4249 73.4249 67.222 82.491 63.4667L185.341 20.865Z" fill="#3F4550"/>
<path d="M191.846 85.1703C196.747 83.1404 202.253 83.1404 207.154 85.1703L275.638 113.538C280.539 115.567 284.433 119.461 286.462 124.362L314.83 192.846C316.86 197.747 316.86 203.253 314.83 208.154L286.462 276.638C284.433 281.539 280.539 285.433 275.638 287.462L207.154 315.83C202.253 317.86 196.747 317.86 191.846 315.83L123.362 287.462C118.461 285.433 114.567 281.539 112.538 276.638L84.1703 208.154C82.1404 203.253 82.1404 197.747 84.1703 192.846L112.538 124.362C114.567 119.461 118.461 115.567 123.362 113.538L191.846 85.1703Z" fill="#49505D"/>
</svg>
