<svg width="501" height="501" viewBox="0 0 501 501" fill="none" xmlns="http://www.w3.org/2000/svg">
<path d="M250.375 50.375L378.933 97.1661L447.337 215.645L423.58 350.375L318.779 438.314H181.971L77.1699 350.375L53.4135 215.645L121.817 97.1661L250.375 50.375Z" fill="#273041"/>
<path d="M250.375 64.0396L370.149 107.634L433.88 218.018L411.746 343.543L314.105 425.473H186.645L89.0038 343.543L66.8704 218.018L130.601 107.634L250.375 64.0396Z" fill="#3F4550"/>
<path d="M250.375 99.4434L347.392 134.755L399.014 224.166L381.086 325.841L301.997 392.204H198.753L119.664 325.841L101.736 224.166L153.358 134.755L250.375 99.4434Z" fill="#525B6D"/>
<path d="M250.375 150.686L314.454 174.008L348.55 233.064L336.709 300.22L284.471 344.052H216.279L164.041 300.22L152.2 233.064L186.296 174.008L250.375 150.686Z" fill="#5A6273"/>
<path d="M250.375 187.953L290.499 202.557L311.849 239.535L304.434 281.586L271.725 309.033H229.025L196.316 281.586L188.901 239.535L210.251 202.557L250.375 187.953Z" fill="#5D6678"/>
</svg>
