<svg width="1001" height="1001" viewBox="0 0 1001 1001" fill="none" xmlns="http://www.w3.org/2000/svg">
<path d="M500.25 100.25L757.365 193.832L894.173 430.791L846.66 700.25L637.058 876.127H363.442L153.84 700.25L106.327 430.791L243.135 193.832L500.25 100.25Z" fill="#273041"/>
<path d="M500.25 125.25L741.295 212.983L869.553 435.132L825.01 687.75L628.508 852.635H371.992L175.49 687.75L130.947 435.132L259.205 212.983L500.25 125.25Z" fill="#3F4550"/>
<path d="M500.25 196.5L695.497 267.564L799.385 447.504L763.305 652.125L604.139 785.682H396.361L237.195 652.125L201.115 447.504L305.003 267.564L500.25 196.5Z" fill="#525B6D"/>
<path d="M500.25 299.625L629.209 346.562L697.827 465.412L673.996 600.562L568.868 688.776H431.632L326.504 600.562L302.673 465.412L371.291 346.562L500.25 299.625Z" fill="#5A6273"/>
<path d="M500.25 374.625L581 404.016L623.966 478.435L609.044 563.062L543.216 618.299H457.284L391.456 563.062L376.534 478.435L419.5 404.016L500.25 374.625Z" fill="#5D6678"/>
<path fill-rule="evenodd" clip-rule="evenodd" d="M351.521 649.831C369.826 668.137 399.506 668.137 417.812 649.831L500.676 566.967L583.54 649.831C601.846 668.137 631.526 668.137 649.832 649.831C668.137 631.526 668.137 601.846 649.832 583.54L566.967 500.676L649.831 417.812C668.137 399.506 668.137 369.826 649.831 351.521C631.525 333.215 601.846 333.215 583.54 351.521L500.676 434.384L417.812 351.521C399.506 333.215 369.827 333.215 351.521 351.521C333.215 369.826 333.215 399.506 351.521 417.812L434.385 500.676L351.521 583.54C333.215 601.846 333.215 631.526 351.521 649.831Z" fill="#3F4550"/>
<path fill-rule="evenodd" clip-rule="evenodd" d="M383.193 383.193C370.323 396.063 370.323 416.929 383.193 429.799L453.101 499.708L383.192 569.617C370.323 582.487 370.323 603.353 383.192 616.223C396.062 629.092 416.929 629.092 429.798 616.223L499.707 546.314L569.616 616.223C582.486 629.092 603.353 629.092 616.222 616.223C629.092 603.353 629.092 582.486 616.222 569.617L546.313 499.708L616.222 429.799C629.092 416.929 629.092 396.063 616.222 383.193C603.352 370.323 582.486 370.323 569.616 383.193L499.707 453.102L429.799 383.193C416.929 370.323 396.062 370.323 383.193 383.193Z" fill="#5D6678"/>
</svg>
