<svg width="400" height="400" viewBox="0 0 400 400" fill="none" xmlns="http://www.w3.org/2000/svg">
<g clip-path="url(#clip0_135_527)">
<path d="M195.471 11.3115C197.863 8.55852 202.137 8.55851 204.529 11.3115L244.646 57.4829C247.814 61.1289 252.637 62.8845 257.407 62.1278L317.817 52.5449C321.419 51.9735 324.693 54.7211 324.756 58.3675L325.809 119.523C325.892 124.353 328.459 128.798 332.599 131.285L385.035 162.774C388.162 164.652 388.904 168.861 386.608 171.695L348.105 219.22C345.064 222.973 344.173 228.028 345.746 232.594L365.674 290.422C366.862 293.87 364.725 297.572 361.144 298.267L301.1 309.923C296.359 310.843 292.427 314.143 290.697 318.652L268.791 375.76C267.485 379.165 263.469 380.627 260.279 378.858L206.79 349.192C202.566 346.849 197.434 346.849 193.21 349.192L139.721 378.858C136.532 380.627 132.515 379.165 131.209 375.76L109.303 318.652C107.573 314.143 103.641 310.843 98.8996 309.923L38.8556 298.267C35.2754 297.572 33.1382 293.87 34.3264 290.422L54.2537 232.594C55.8272 228.028 54.9359 222.973 51.8954 219.22L13.3916 171.695C11.0958 168.861 11.8381 164.652 14.9646 162.774L67.4008 131.285C71.5414 128.798 74.1079 124.353 74.1911 119.523L75.2438 58.3675C75.3066 54.7211 78.581 51.9735 82.1829 52.5449L142.593 62.1278C147.363 62.8845 152.186 61.1289 155.354 57.4829L195.471 11.3115Z" fill="#525B6D" stroke="#4A4242" stroke-width="8"/>
</g>
<defs>
<clipPath id="clip0_135_527">
<rect width="400" height="400" fill="white"/>
</clipPath>
</defs>
</svg>
