<svg width="1001" height="1001" viewBox="0 0 1001 1001" fill="none" xmlns="http://www.w3.org/2000/svg">
<path d="M517.524 74.4461L793.349 188.697C803.289 192.814 811.186 200.711 815.303 210.651L929.554 486.476C933.671 496.416 933.671 507.584 929.554 517.524L815.303 793.349C811.186 803.289 803.289 811.186 793.349 815.303L517.524 929.554C507.584 933.671 496.416 933.671 486.476 929.554L210.651 815.303C200.711 811.186 192.814 803.289 188.697 793.349L74.4461 517.524C70.3288 507.584 70.3288 496.416 74.4461 486.476L188.697 210.651C192.814 200.711 200.711 192.814 210.651 188.697L486.476 74.4461C496.416 70.3288 507.584 70.3288 517.524 74.4461Z" fill="#3F4550" stroke="#373F48" stroke-width="55"/>
<path d="M495.43 170.873C497.44 170.154 499.638 170.154 501.648 170.873L712.653 246.362C714.69 247.091 716.406 248.512 717.502 250.378L829.682 441.364C830.798 443.263 831.197 445.499 830.808 447.667L791.86 664.785C791.474 666.938 790.335 668.883 788.648 670.275L616.702 812.093C615.048 813.457 612.972 814.202 610.829 814.202H386.249C384.106 814.202 382.03 813.457 380.377 812.093L208.43 670.275C206.743 668.883 205.605 666.938 205.218 664.785L166.27 447.667C165.881 445.499 166.281 443.263 167.396 441.364L279.576 250.378C280.672 248.512 282.388 247.091 284.425 246.362L495.43 170.873Z" fill="#5D6678"/>
<path d="M410.865 445.473L497.385 169.761L280.507 248.207L165.146 445.473L206.676 669.273L410.865 445.473Z" fill="#5A6273"/>
<path d="M791.556 666.966L503.153 588.521C503.153 588.521 216.829 666.966 211.291 666.966C205.754 666.966 322.807 763.1 382.025 811.167H616.207L791.556 666.966Z" fill="#525B6D"/>
<path d="M135.75 180.75L215.75 143.25L297 88.25L464.5 39.5L585.75 58.25L619.5 105.75V143.25L568.25 233.25L619.5 258.25L654.5 330.75L585.75 370.75V445.75L619.5 492L504.5 533.25L464.5 630.75L400.75 650.75L325.75 689.5H215.75L135.75 728.25L89.5 630.75L29.5 492L89.5 348.25L135.75 180.75Z" fill="#DFE9F8" stroke="#CFD1FF" stroke-width="37.5"/>
</svg>
