<svg width="400" height="400" viewBox="0 0 400 400" fill="none" xmlns="http://www.w3.org/2000/svg">
<path d="M301.726 350.562L253.054 298.217C245.096 300.666 227.525 305.748 220.913 306.482C214.301 307.217 202.24 316.584 197.036 321.176L165.812 317.502L160.302 292.707C167.343 291.789 182.342 289.952 186.016 289.952C189.689 289.952 197.954 278.32 201.628 272.504L208.056 261.484L71.2235 136.59L40 27.3075L146.527 72.3061V77L149.282 75.0611L266.83 210.975L276.931 199.037L332.032 188.017L338.46 228.423C332.644 230.566 320.277 234.668 317.338 233.933C314.399 233.199 300.808 259.341 294.38 272.504L338.46 322.094L348.562 327.604L360.5 335.869L348.562 370.766L344.888 379.031L305.4 367.092L301.726 350.562Z" fill="#1C0D0D"/>
<rect x="246.671" y="283.025" width="36.2075" height="117.592" rx="18.1037" transform="rotate(-43.347 246.671 283.025)" fill="#332525"/>
<path d="M77.3851 131.582C77.6092 134.512 107.801 159.956 122.868 172.311C157.252 202.825 218.335 265.564 235.606 281.815L284.278 239.443L149.553 83.9808L139.181 96.1826L140.497 76.0975L44.5918 33.3717C45.9979 39.7113 77.1048 127.919 77.3851 131.582Z" fill="#3F4550"/>
<path d="M89.1805 136.699C89.3748 139.238 116.313 161.226 129.758 171.903C160.434 198.278 218.363 252.506 233.769 266.554L265.911 233.933L153.801 95.291L136.426 103.529L132.752 98.0194L127.575 76.7045L60.0688 51.6488C61.3126 57.1404 88.9377 133.525 89.1805 136.699Z" fill="#5A6273"/>
<path d="M149.282 149.446L156.629 126.488C163.976 129.855 179.22 136.773 181.424 137.508C183.628 138.243 195.812 164.752 201.628 177.915V189.853L175.914 154.038L149.282 149.446Z" fill="#5D6678"/>
<path d="M309.991 361.582V348.726L337.541 329.44L354.071 334.95V343.216C354.071 346.889 351.316 351.481 349.48 356.072C347.643 360.664 343.97 364.337 343.051 368.011C342.317 370.949 336.011 369.235 332.95 368.011L313.665 364.337L309.991 361.582Z" fill="#332525"/>
<path d="M243.871 294.544L267.748 292.707L288.87 273.422C292.543 266.687 300.074 252.851 300.808 251.382C301.543 249.912 310.298 236.688 314.583 230.26L331.113 225.668L326.522 193.526L277.85 206.383L259.483 225.668V236.688L250.3 248.627L239.28 256.892H219.076C216.015 261.789 209.525 271.952 208.056 273.422C206.587 274.891 193.363 286.891 186.934 292.707L169.486 294.544V315.665C175.608 315.971 188.771 316.4 192.444 315.665C196.118 314.931 208.056 307.4 213.566 303.727L243.871 294.544Z" fill="#332525"/>
<path d="M282.557 314.625C279.957 314.169 278.219 311.692 278.675 309.092L283.623 280.884C284.079 278.284 286.556 276.547 289.156 277.002C291.756 277.458 293.494 279.936 293.038 282.536L288.09 310.744C287.634 313.343 285.157 315.081 282.557 314.625Z" fill="#472E2E"/>
<path d="M297.251 332.992C294.651 332.536 292.913 330.059 293.369 327.459L298.316 299.251C298.772 296.651 301.249 294.913 303.849 295.369C306.449 295.825 308.187 298.302 307.731 300.902L302.784 329.11C302.328 331.71 299.85 333.448 297.251 332.992Z" fill="#472E2E"/>
<path d="M315.617 349.522C313.017 349.066 311.279 346.589 311.735 343.989L316.683 315.781C317.139 313.181 319.616 311.443 322.216 311.899C324.816 312.355 326.554 314.833 326.098 317.433L321.15 345.64C320.694 348.24 318.217 349.978 315.617 349.522Z" fill="#472E2E"/>
<rect x="260.757" y="287.197" width="48.012" height="9.55883" rx="4.77941" transform="rotate(7.65996 260.757 287.197)" fill="#472E2E"/>
<rect x="279.124" y="307.4" width="48.012" height="9.55883" rx="4.77941" transform="rotate(7.65996 279.124 307.4)" fill="#472E2E"/>
<rect x="293.817" y="323.93" width="42.311" height="9.55883" rx="4.77941" transform="rotate(7.65996 293.817 323.93)" fill="#472E2E"/>
<path d="M211.729 210.975L182.342 198.118L200.709 222.913H211.729V210.975Z" fill="#5D6678"/>
<path d="M112.549 133.834L79.4888 114.549L84.0805 130.161L95.1005 133.834L125.406 158.63L127.242 169.65L170.404 210.056L177.751 193.526L166.731 173.323H151.119L142.854 157.711L112.549 133.834Z" fill="#5D6678"/>
<path d="M83.1619 86.0809L62.9585 51.184H72.1419C74.3459 51.184 82.8558 58.5307 86.8353 62.2041L110.712 71.3875V75.0608L104.284 77.8158L83.1619 86.0809Z" fill="#5D6678"/>
<path d="M207.137 191.69L217.239 173.323L254.891 215.567L249.381 221.077H235.606C236.218 225.056 237.443 233.566 237.443 235.77C237.443 238.525 231.933 244.953 229.178 244.953H208.974L203.464 235.77L217.239 239.443L223.668 222.913V208.22L208.974 202.71L197.954 195.363H205.301L207.137 191.69Z" fill="#5D6678"/>
</svg>
