<svg width="400" height="400" viewBox="0 0 400 400" fill="none" xmlns="http://www.w3.org/2000/svg">
<mask id="path-1-outside-1_147_60" maskUnits="userSpaceOnUse" x="66.767" y="67.0149" width="317.491" height="317.491" fill="black">
<rect fill="white" x="66.767" y="67.0149" width="317.491" height="317.491"/>
<path d="M88.6313 77.5702C85.9272 74.8661 81.5431 74.8661 78.839 77.5702L77.32 79.0893C74.6159 81.7933 74.6159 86.1775 77.32 88.8815L362.403 373.964C365.107 376.668 369.491 376.668 372.195 373.964L373.714 372.445C376.418 369.741 376.418 365.357 373.714 362.653L88.6313 77.5702Z"/>
</mask>
<path d="M88.6313 77.5702C85.9272 74.8661 81.5431 74.8661 78.839 77.5702L77.32 79.0893C74.6159 81.7933 74.6159 86.1775 77.32 88.8815L362.403 373.964C365.107 376.668 369.491 376.668 372.195 373.964L373.714 372.445C376.418 369.741 376.418 365.357 373.714 362.653L88.6313 77.5702Z" fill="#2F0A0A"/>
<path d="M373.714 362.653L376.054 360.313L373.714 362.653ZM362.403 373.964L360.063 376.305L362.403 373.964ZM77.32 79.0893L74.9797 76.749L77.32 79.0893ZM78.839 77.5702L81.1793 79.9105L78.839 77.5702ZM88.6313 77.5702L86.291 79.9105L88.6313 77.5702ZM76.4988 75.2299L74.9797 76.749L79.6602 81.4296L81.1793 79.9105L76.4988 75.2299ZM74.9797 91.2218L360.063 376.305L364.743 371.624L79.6602 86.5413L74.9797 91.2218ZM374.535 376.305L376.054 374.786L371.374 370.105L369.855 371.624L374.535 376.305ZM376.054 360.313L90.9716 75.2299L86.291 79.9105L371.374 364.993L376.054 360.313ZM376.054 374.786C380.051 370.789 380.051 364.309 376.054 360.313L371.374 364.993C372.785 366.405 372.785 368.693 371.374 370.105L376.054 374.786ZM360.063 376.305C364.059 380.301 370.539 380.301 374.535 376.305L369.855 371.624C368.443 373.036 366.155 373.036 364.743 371.624L360.063 376.305ZM74.9797 76.749C70.9831 80.7456 70.9831 87.2253 74.9797 91.2218L79.6602 86.5413C78.2487 85.1297 78.2487 82.8411 79.6602 81.4296L74.9797 76.749ZM81.1793 79.9105C82.5909 78.4989 84.8795 78.4989 86.291 79.9105L90.9716 75.2299C86.975 71.2334 80.4953 71.2334 76.4988 75.2299L81.1793 79.9105Z" fill="#200707" mask="url(#path-1-outside-1_147_60)"/>
<mask id="path-3-outside-2_147_60" maskUnits="userSpaceOnUse" x="-5.65685" y="-5.69525" width="125.865" height="125.865" fill="black">
<rect fill="white" x="-5.65685" y="-5.69525" width="125.865" height="125.865"/>
<path fill-rule="evenodd" clip-rule="evenodd" d="M74.0328 38.0088L18.9955 17.7376C18.3058 17.4836 17.6346 18.1527 17.8863 18.8431L38.0088 74.0328L60.6841 88.0577L64.7167 90.8347L95.4846 94.4688L90.9891 64.5623L81.5618 51.1756L74.0328 38.0088Z"/>
</mask>
<path fill-rule="evenodd" clip-rule="evenodd" d="M74.0328 38.0088L18.9955 17.7376C18.3058 17.4836 17.6346 18.1527 17.8863 18.8431L38.0088 74.0328L60.6841 88.0577L64.7167 90.8347L95.4846 94.4688L90.9891 64.5623L81.5618 51.1756L74.0328 38.0088Z" fill="#3F4550"/>
<path d="M18.9955 17.7376L17.8516 20.8433L17.8516 20.8433L18.9955 17.7376ZM74.0328 38.0088L76.906 36.3659L76.3077 35.3196L75.1767 34.9031L74.0328 38.0088ZM17.8863 18.8431L20.9957 17.7094L20.9957 17.7094L17.8863 18.8431ZM38.0088 74.0328L34.8994 75.1665L35.2923 76.2442L36.2678 76.8476L38.0088 74.0328ZM60.6841 88.0577L62.5612 85.3319L62.4942 85.2857L62.4251 85.243L60.6841 88.0577ZM64.7167 90.8347L62.8397 93.5606L63.5146 94.0254L64.3285 94.1215L64.7167 90.8347ZM95.4846 94.4688L95.0964 97.7556L99.402 98.2642L98.7575 93.9768L95.4846 94.4688ZM90.9891 64.5623L94.262 64.0703L94.1457 63.2965L93.6951 62.6567L90.9891 64.5623ZM81.5618 51.1756L78.6887 52.8185L78.7661 52.9538L78.8558 53.0812L81.5618 51.1756ZM17.8516 20.8433L72.889 41.1145L75.1767 34.9031L20.1393 14.6319L17.8516 20.8433ZM20.9957 17.7094C21.7093 19.6666 19.8064 21.5633 17.8516 20.8433L20.1394 14.6319C16.8053 13.4039 13.5598 16.6388 14.7769 19.9769L20.9957 17.7094ZM41.1182 72.8991L20.9957 17.7094L14.7769 19.9769L34.8994 75.1665L41.1182 72.8991ZM62.4251 85.243L39.7498 71.218L36.2678 76.8476L58.9432 90.8725L62.4251 85.243ZM66.5938 88.1088L62.5612 85.3319L58.807 90.7836L62.8397 93.5606L66.5938 88.1088ZM95.8728 91.182L65.105 87.5479L64.3285 94.1215L95.0964 97.7556L95.8728 91.182ZM87.7162 65.0543L92.2117 94.9608L98.7575 93.9768L94.262 64.0703L87.7162 65.0543ZM78.8558 53.0812L88.2831 66.4679L93.6951 62.6567L84.2678 49.27L78.8558 53.0812ZM71.1597 39.6516L78.6887 52.8185L84.4349 49.5327L76.906 36.3659L71.1597 39.6516Z" fill="#200707" mask="url(#path-3-outside-2_147_60)"/>
<path fill-rule="evenodd" clip-rule="evenodd" d="M24.1523 23.9978L42.7694 70.1794L68.4979 85.5713L70.9905 80.3785L72.6022 72.2156L72.5714 72.1282L80.9263 70.8244L87.3875 67.8518L74.8928 63.5603L69.9575 43.0999L24.8173 24.1193L23.9955 23.6089L24.0755 23.8074L23.8794 23.725L24.1523 23.9978Z" fill="#525B6D"/>
<path d="M72.3216 72.1672L23.8794 23.725L69.9574 43.1L88.2082 67.8112L80.9263 70.8245L72.3216 72.1672Z" fill="#5A6273"/>
<path d="M86.608 101.824L86.5791 101.891L86.5575 101.962L85.166 106.503L85.1568 106.533L85.149 106.564L83.1504 114.337L83.1039 114.518L83.1072 114.704L83.261 123.419L83.2657 123.683L83.3679 123.927L89.275 138.025L89.3798 138.276L89.5717 138.468L92.984 141.88L93.0212 141.917L93.061 141.951L98.5635 146.674L99.915 147.834L100.7 146.235C101.22 145.174 101.352 143.768 101.349 142.449C101.346 141.078 101.192 139.583 100.997 138.208C100.801 136.828 100.558 135.539 100.366 134.575C100.303 134.257 100.243 133.967 100.194 133.726C100.169 133.606 100.147 133.497 100.128 133.404C100.098 133.258 100.077 133.15 100.064 133.075C100.06 133.057 100.058 133.042 100.056 133.031C100.04 132.826 99.9862 132.659 99.9689 132.606L99.9669 132.6C99.9335 132.495 99.8921 132.387 99.8519 132.288C99.7703 132.087 99.6599 131.84 99.5369 131.573C99.3924 131.259 99.2131 130.881 99.0196 130.472C98.8867 130.192 98.7471 129.897 98.6075 129.6C97.9544 128.208 97.279 126.707 96.9267 125.62L99.6442 130.15L99.7316 130.295L99.8516 130.415L104.142 134.706L107.848 138.411L107.978 138.541L108.137 138.633L114.243 142.131L114.361 142.199L114.413 142.216C114.421 142.221 114.43 142.227 114.441 142.234C114.516 142.283 114.617 142.355 114.749 142.451C114.813 142.498 114.885 142.552 114.962 142.61C115.173 142.766 115.422 142.951 115.643 143.103C115.799 143.21 115.976 143.325 116.154 143.421C116.295 143.498 116.583 143.646 116.927 143.691C117.109 143.714 117.44 143.727 117.797 143.556C118.205 143.36 118.456 143.015 118.567 142.667C118.663 142.366 118.646 142.098 118.626 141.941C118.603 141.77 118.56 141.613 118.516 141.484C118.38 141.075 117.942 140.111 117.402 138.953C116.84 137.749 116.113 136.225 115.344 134.623C114.882 133.661 114.406 132.672 113.94 131.705C112.85 129.441 111.819 127.3 111.177 125.927C110.665 124.833 109.827 123.659 109.18 122.753C109.13 122.681 109.08 122.612 109.032 122.544C108.678 122.047 108.406 121.657 108.233 121.361C108.207 121.316 108.185 121.277 108.167 121.243C108.174 121.105 108.165 120.991 108.157 120.916C108.139 120.733 108.1 120.552 108.059 120.391C107.976 120.065 107.847 119.692 107.698 119.308C107.398 118.532 106.967 117.589 106.495 116.647C106.022 115.703 105.495 114.736 104.997 113.912C104.521 113.125 104.003 112.354 103.544 111.896C102.577 110.928 97.6697 105.034 95.1317 101.956L94.4231 99.8386L94.2272 99.253L93.6598 99.0092L89.988 97.4313L88.7185 96.8858L88.1755 98.1563L86.608 101.824ZM100.052 133.004C100.052 133.004 100.052 133.006 100.053 133.01C100.052 133.006 100.052 133.004 100.052 133.004ZM115.905 142.371C115.904 142.371 115.904 142.369 115.904 142.367C115.904 142.37 115.905 142.371 115.905 142.371ZM117.504 141.014C117.504 141.014 117.498 141.012 117.487 141.007C117.498 141.011 117.504 141.014 117.504 141.014ZM114.378 142.196C114.378 142.196 114.379 142.196 114.381 142.197C114.379 142.196 114.378 142.196 114.378 142.196Z" fill="#929292" stroke="#200707" stroke-width="2.75805"/>
<path d="M92.7131 80.8973L92.7807 80.8684L92.851 80.8469L97.3923 79.4553L97.4225 79.4461L97.453 79.4383L105.226 77.4397L105.407 77.3932L105.594 77.3965L114.308 77.5503L114.573 77.555L114.817 77.6572L128.915 83.5643L129.165 83.6692L129.357 83.8611L132.769 87.2733L132.806 87.3105L132.841 87.3503L137.563 92.8528L138.723 94.2044L137.124 94.9889C136.063 95.5095 134.658 95.6413 133.338 95.6381C131.968 95.6348 130.472 95.4815 129.098 95.2864C127.718 95.0905 126.428 94.8475 125.464 94.6553C125.146 94.5919 124.857 94.5325 124.615 94.4831C124.495 94.4585 124.387 94.4363 124.293 94.4173C124.147 94.3878 124.039 94.3665 123.964 94.3529C123.946 94.3496 123.932 94.3471 123.921 94.3453C123.716 94.3293 123.549 94.2755 123.495 94.2582L123.489 94.2562C123.384 94.2228 123.276 94.1814 123.177 94.1412C122.976 94.0596 122.729 93.9493 122.462 93.8262C122.149 93.6817 121.77 93.5024 121.362 93.3089C121.081 93.176 120.787 93.0364 120.489 92.8968C119.098 92.2437 117.597 91.5683 116.51 91.216L121.039 93.9336L121.185 94.0209L121.305 94.1409L125.595 98.4315L129.301 102.137L129.431 102.267L129.522 102.426L133.02 108.532L133.088 108.65L133.106 108.702C133.111 108.71 133.117 108.72 133.124 108.731C133.173 108.806 133.244 108.907 133.341 109.038C133.388 109.102 133.441 109.174 133.499 109.252C133.656 109.462 133.841 109.711 133.992 109.932C134.1 110.088 134.215 110.266 134.311 110.443C134.387 110.584 134.536 110.873 134.58 111.216C134.604 111.398 134.616 111.73 134.445 112.086C134.249 112.494 133.904 112.745 133.556 112.856C133.256 112.952 132.988 112.936 132.83 112.915C132.659 112.893 132.503 112.849 132.373 112.806C131.965 112.669 131 112.232 129.842 111.691C128.638 111.129 127.115 110.402 125.512 109.633C124.551 109.171 123.561 108.695 122.595 108.229C120.33 107.139 118.189 106.108 116.816 105.466C115.722 104.954 114.548 104.116 113.642 103.47C113.571 103.419 113.501 103.369 113.434 103.321C112.936 102.967 112.547 102.695 112.251 102.522C112.205 102.496 112.166 102.474 112.132 102.456C111.995 102.463 111.88 102.454 111.805 102.446C111.623 102.428 111.442 102.39 111.28 102.348C110.954 102.265 110.581 102.136 110.197 101.988C109.422 101.687 108.478 101.256 107.537 100.784C106.593 100.311 105.625 99.7845 104.801 99.2859C104.014 98.8099 103.244 98.2921 102.785 97.8336C101.818 96.866 95.9234 91.959 92.8457 89.421L90.728 88.7124L90.1424 88.5165L89.8986 87.9491L88.3207 84.2773L87.7752 83.0078L89.0457 82.4648L92.7131 80.8973ZM123.894 94.3411C123.894 94.3411 123.896 94.3414 123.899 94.3419C123.895 94.3413 123.894 94.341 123.894 94.3411ZM133.26 110.194C133.26 110.194 133.259 110.193 133.257 110.193C133.259 110.194 133.26 110.194 133.26 110.194ZM131.903 111.793C131.904 111.793 131.902 111.788 131.896 111.777C131.9 111.787 131.903 111.793 131.903 111.793ZM133.085 108.668C133.085 108.668 133.085 108.669 133.086 108.67C133.085 108.669 133.085 108.668 133.085 108.668Z" fill="#929292" stroke="#200707" stroke-width="2.75805"/>
<rect width="15.9967" height="415.362" rx="7.99833" transform="matrix(-0.707107 0.707107 0.707107 0.707107 85.2949 74.2343)" fill="#332525"/>
<rect width="9.37735" height="405.984" rx="4.68868" transform="matrix(-0.707107 0.707107 0.707107 0.707107 85.6855 79.3049)" fill="#472E2E"/>
</svg>
