<svg width="501" height="501" viewBox="0 0 501 501" fill="none" xmlns="http://www.w3.org/2000/svg">
<g clip-path="url(#clip0_135_527)">
<path d="M256.037 15.0144L306.182 72.7287C310.142 77.2861 316.171 79.4806 322.134 78.5347L397.646 66.5561C402.149 65.8419 406.242 69.2764 406.32 73.8344L407.636 150.279C407.74 156.316 410.948 161.872 416.124 164.981L481.669 204.343C485.577 206.69 486.505 211.952 483.635 215.494L435.506 274.9C431.705 279.591 430.591 285.91 432.558 291.618L457.467 363.902C458.952 368.212 456.281 372.84 451.806 373.708L376.751 388.279C370.824 389.429 365.909 393.554 363.746 399.191L336.364 470.575C334.731 474.831 329.711 476.659 325.724 474.448L258.863 437.365C253.583 434.437 247.167 434.437 241.887 437.365L175.026 474.448C171.039 476.659 166.019 474.831 164.386 470.575L137.004 399.191C134.841 393.554 129.926 389.429 123.999 388.279L48.9445 373.708C44.4693 372.84 41.7977 368.212 43.2829 363.902L68.1921 291.618C70.159 285.91 69.0449 279.591 65.2443 274.9L17.1145 215.494C14.2448 211.952 15.1726 206.69 19.0807 204.343L84.626 164.981C89.8018 161.872 93.0099 156.316 93.1138 150.279L94.4297 73.8344C94.5082 69.2764 98.6012 65.8419 103.104 66.5561L178.616 78.5347C184.579 79.4806 190.608 77.2861 194.568 72.7287L244.714 15.0144C247.703 11.5731 253.047 11.5731 256.037 15.0144Z" fill="#525B6D" stroke="#4A4242" stroke-width="10"/>
</g>
<defs>
<clipPath id="clip0_135_527">
<rect width="500" height="500" fill="white" transform="translate(0.375 0.875)"/>
</clipPath>
</defs>
</svg>
