<svg width="501" height="501" viewBox="0 0 501 501" fill="none" xmlns="http://www.w3.org/2000/svg">
<mask id="path-1-outside-1_131_15" maskUnits="userSpaceOnUse" x="6.17432" y="76.5188" width="489" height="351" fill="black">
<rect fill="white" x="6.17432" y="76.5188" width="489" height="351"/>
<path fill-rule="evenodd" clip-rule="evenodd" d="M452.046 147.391L480.625 158.25L479.109 164.653L479.355 164.601L459.666 245.894L448.303 316.623L424.945 363.354L388.329 391.772V363.354L405.374 338.725L410.741 296.73L394.011 260.103L357.395 245.894L270.591 279.996L257.018 296.73L247.541 338.725L257.018 391.772L233.569 412.292L208.213 391.772L216.421 338.725L212.827 296.73L197.992 279.996L124.129 245.894L89.4077 260.103C86.4616 270.523 80.5695 292.436 80.5695 296.73C80.5695 301.025 84.1469 326.516 85.9355 338.725L99.5085 363.354V391.772L68.5747 363.354L37.9566 316.623V245.894L21.4438 164.601L21.6283 164.642L20.1743 157.615L39.8624 148.548L39.8626 107.441C39.8626 106.142 61.0986 114.598 76.4125 120.925L93.7218 89.5188L236.267 113.782L397.01 89.5188L413.272 121.344C428.659 114.957 452.046 105.576 452.046 106.94L452.046 147.391Z"/>
</mask>
<path fill-rule="evenodd" clip-rule="evenodd" d="M452.046 147.391L480.625 158.25L479.109 164.653L479.355 164.601L459.666 245.894L448.303 316.623L424.945 363.354L388.329 391.772V363.354L405.374 338.725L410.741 296.73L394.011 260.103L357.395 245.894L270.591 279.996L257.018 296.73L247.541 338.725L257.018 391.772L233.569 412.292L208.213 391.772L216.421 338.725L212.827 296.73L197.992 279.996L124.129 245.894L89.4077 260.103C86.4616 270.523 80.5695 292.436 80.5695 296.73C80.5695 301.025 84.1469 326.516 85.9355 338.725L99.5085 363.354V391.772L68.5747 363.354L37.9566 316.623V245.894L21.4438 164.601L21.6283 164.642L20.1743 157.615L39.8624 148.548L39.8626 107.441C39.8626 106.142 61.0986 114.598 76.4125 120.925L93.7218 89.5188L236.267 113.782L397.01 89.5188L413.272 121.344C428.659 114.957 452.046 105.576 452.046 106.94L452.046 147.391Z" fill="#525B6D"/>
<path d="M480.625 158.25L491.573 160.842L493.847 151.238L484.621 147.733L480.625 158.25ZM452.046 147.391L440.796 147.391L440.796 155.152L448.05 157.908L452.046 147.391ZM479.109 164.653L468.162 162.061L464.062 179.37L481.458 175.655L479.109 164.653ZM479.355 164.601L490.289 167.249L494.499 149.864L477.005 153.599L479.355 164.601ZM459.666 245.894L448.732 243.246L448.629 243.675L448.559 244.11L459.666 245.894ZM448.303 316.623L458.366 321.653L459.137 320.11L459.411 318.407L448.303 316.623ZM424.945 363.354L431.842 372.241L433.864 370.673L435.008 368.384L424.945 363.354ZM388.329 391.772H377.079V414.744L395.227 400.659L388.329 391.772ZM388.329 363.354L379.079 356.952L377.079 359.841V363.354H388.329ZM405.374 338.725L414.625 345.128L416.186 342.872L416.534 340.151L405.374 338.725ZM410.741 296.73L421.9 298.156L422.306 294.974L420.974 292.056L410.741 296.73ZM394.011 260.103L404.244 255.429L402.344 251.27L398.081 249.615L394.011 260.103ZM357.395 245.894L361.465 235.406L357.37 233.817L353.282 235.423L357.395 245.894ZM270.591 279.996L266.478 269.525L263.72 270.608L261.854 272.909L270.591 279.996ZM257.018 296.73L248.281 289.644L246.624 291.687L246.044 294.254L257.018 296.73ZM247.541 338.725L236.567 336.249L236.067 338.466L236.467 340.704L247.541 338.725ZM257.018 391.772L264.427 400.238L269.211 396.051L268.093 389.793L257.018 391.772ZM233.569 412.292L226.492 421.037L233.852 426.994L240.978 420.758L233.569 412.292ZM208.213 391.772L197.095 390.051L196.106 396.446L201.136 400.517L208.213 391.772ZM216.421 338.725L227.539 340.446L227.745 339.111L227.63 337.766L216.421 338.725ZM212.827 296.73L224.036 295.771L223.718 292.057L221.246 289.268L212.827 296.73ZM197.992 279.996L206.41 272.533L204.847 270.769L202.707 269.782L197.992 279.996ZM124.129 245.894L128.845 235.68L124.4 233.628L119.869 235.482L124.129 245.894ZM89.4077 260.103L85.1469 249.691L80.0735 251.767L78.5821 257.042L89.4077 260.103ZM85.9355 338.725L74.8044 340.356L75.0996 342.371L76.0827 344.155L85.9355 338.725ZM99.5085 363.354H110.759V360.459L109.361 357.924L99.5085 363.354ZM99.5085 391.772L91.8977 400.056L110.759 417.383V391.772H99.5085ZM68.5747 363.354L59.1646 369.52L59.9323 370.691L60.9639 371.639L68.5747 363.354ZM37.9566 316.623H26.7066V319.98L28.5465 322.788L37.9566 316.623ZM37.9566 245.894H49.2066V244.763L48.9814 243.655L37.9566 245.894ZM21.4438 164.601L23.9018 153.623L6.96384 149.83L10.419 166.84L21.4438 164.601ZM21.6283 164.642L19.1703 175.62L36.1757 179.428L32.645 162.363L21.6283 164.642ZM20.1743 157.615L15.4684 147.396L7.34582 151.137L9.15764 159.894L20.1743 157.615ZM39.8624 148.548L44.5682 158.766L51.1123 155.753L51.1124 148.548L39.8624 148.548ZM39.8626 107.441L51.1126 107.441V107.441H39.8626ZM76.4125 120.925L72.1171 131.323L81.4113 135.162L86.2652 126.355L76.4125 120.925ZM93.7218 89.5188L95.6095 78.4283L87.7281 77.0868L83.8691 84.0886L93.7218 89.5188ZM236.267 113.782L234.38 124.872L236.16 125.175L237.946 124.906L236.267 113.782ZM397.01 89.5188L407.028 84.4001L403.342 77.1856L395.331 78.3948L397.01 89.5188ZM413.272 121.344L403.253 126.463L407.984 135.72L417.585 131.735L413.272 121.344ZM452.046 106.94L463.296 106.94V106.94H452.046ZM484.621 147.733L456.041 136.875L448.05 157.908L476.63 168.766L484.621 147.733ZM490.056 167.246L491.573 160.842L469.678 155.657L468.162 162.061L490.056 167.246ZM477.005 153.599L476.76 153.651L481.458 175.655L481.704 175.603L477.005 153.599ZM470.6 248.542L490.289 167.249L468.421 161.953L448.732 243.246L470.6 248.542ZM459.411 318.407L470.774 247.679L448.559 244.11L437.195 314.838L459.411 318.407ZM435.008 368.384L458.366 321.653L438.24 311.593L414.882 358.324L435.008 368.384ZM395.227 400.659L431.842 372.241L418.047 354.467L381.432 382.884L395.227 400.659ZM377.079 363.354V391.772H399.579V363.354H377.079ZM396.124 332.323L379.079 356.952L397.58 369.756L414.625 345.128L396.124 332.323ZM399.581 295.305L394.215 337.299L416.534 340.151L421.9 298.156L399.581 295.305ZM383.778 264.777L400.507 301.404L420.974 292.056L404.244 255.429L383.778 264.777ZM353.326 256.382L389.941 270.591L398.081 249.615L361.465 235.406L353.326 256.382ZM274.705 290.467L361.509 256.365L353.282 235.423L266.478 269.525L274.705 290.467ZM265.756 303.817L279.329 287.082L261.854 272.909L248.281 289.644L265.756 303.817ZM258.515 341.202L267.992 299.207L246.044 294.254L236.567 336.249L258.515 341.202ZM268.093 389.793L258.616 336.747L236.467 340.704L245.944 393.75L268.093 389.793ZM240.978 420.758L264.427 400.238L249.61 383.306L226.16 403.826L240.978 420.758ZM201.136 400.517L226.492 421.037L240.646 403.547L215.29 383.027L201.136 400.517ZM205.303 337.005L197.095 390.051L219.331 393.492L227.539 340.446L205.303 337.005ZM201.618 297.69L205.212 339.685L227.63 337.766L224.036 295.771L201.618 297.69ZM189.573 287.458L204.409 304.193L221.246 289.268L206.41 272.533L189.573 287.458ZM119.414 256.108L193.276 290.21L202.707 269.782L128.845 235.68L119.414 256.108ZM93.6685 270.515L128.39 256.306L119.869 235.482L85.1469 249.691L93.6685 270.515ZM91.8195 296.73C91.8195 297.06 91.8836 296.096 92.5413 292.996C93.0977 290.373 93.8879 287.059 94.7937 283.459C96.6009 276.277 98.7801 268.304 100.233 263.164L78.5821 257.042C77.0892 262.322 74.8493 270.516 72.9739 277.969C72.0384 281.686 71.1715 285.307 70.531 288.327C69.9918 290.868 69.3195 294.253 69.3195 296.73H91.8195ZM97.0667 337.095C96.1773 331.024 94.8434 321.652 93.7342 313.282C93.179 309.092 92.686 305.198 92.3339 302.112C92.1575 300.565 92.0219 299.269 91.9319 298.264C91.8317 297.145 91.8195 296.718 91.8195 296.73H69.3195C69.3195 298.579 69.6384 301.677 69.9789 304.662C70.3534 307.945 70.8666 311.992 71.4293 316.238C72.5559 324.74 73.9051 334.218 74.8044 340.356L97.0667 337.095ZM109.361 357.924L95.7884 333.295L76.0827 344.155L89.6557 368.784L109.361 357.924ZM110.759 391.772V363.354H88.2585V391.772H110.759ZM60.9639 371.639L91.8977 400.056L107.119 383.487L76.1856 355.069L60.9639 371.639ZM28.5465 322.788L59.1646 369.52L77.9848 357.189L47.3667 310.457L28.5465 322.788ZM26.7066 245.894V316.623H49.2066V245.894H26.7066ZM10.419 166.84L26.9317 248.134L48.9814 243.655L32.4687 162.361L10.419 166.84ZM24.0863 153.664L23.9018 153.623L18.9859 175.579L19.1703 175.62L24.0863 153.664ZM9.15764 159.894L10.6116 166.922L32.645 162.363L31.191 155.335L9.15764 159.894ZM35.1565 138.329L15.4684 147.396L24.8802 167.833L44.5682 158.766L35.1565 138.329ZM28.6126 107.441L28.6124 148.548L51.1124 148.548L51.1126 107.441L28.6126 107.441ZM80.708 110.527C73.0159 107.349 63.7621 103.606 56.3881 100.806C52.7359 99.4192 49.3657 98.1955 46.8281 97.3888C45.636 97.0099 44.2373 96.5958 42.961 96.3466C42.4826 96.2531 41.1351 95.9941 39.5473 96.0728C38.8833 96.1058 36.8271 96.2362 34.5845 97.4455C31.6087 99.0501 28.6126 102.52 28.6126 107.441H51.1126C51.1126 112.281 48.158 115.689 45.2635 117.25C43.1021 118.415 41.167 118.52 40.6623 118.545C39.9093 118.583 39.348 118.526 39.1301 118.501C38.8682 118.472 38.6958 118.439 38.649 118.43C38.5939 118.419 38.9738 118.502 40.0119 118.832C41.9346 119.443 44.8306 120.485 48.4016 121.841C55.4741 124.526 64.4952 128.174 72.1171 131.323L80.708 110.527ZM83.8691 84.0886L66.5599 115.495L86.2652 126.355L103.574 94.949L83.8691 84.0886ZM238.155 102.691L95.6095 78.4283L91.834 100.609L234.38 124.872L238.155 102.691ZM395.331 78.3948L234.588 102.658L237.946 124.906L398.689 100.643L395.331 78.3948ZM423.29 116.226L407.028 84.4001L386.992 94.6375L403.253 126.463L423.29 116.226ZM463.296 106.94C463.296 104.781 462.675 102.471 461.24 100.425C459.882 98.4879 458.207 97.3711 456.954 96.7531C454.717 95.6502 452.7 95.5772 452.078 95.5607C450.543 95.52 449.229 95.7857 448.733 95.8884C447.433 96.1572 445.977 96.5962 444.687 97.0137C441.962 97.8956 438.333 99.2267 434.409 100.728C426.494 103.757 416.689 107.745 408.958 110.954L417.585 131.735C425.241 128.557 434.823 124.661 442.449 121.743C446.295 120.271 449.474 119.113 451.616 118.42C452.137 118.252 452.551 118.125 452.866 118.036C453.203 117.94 453.325 117.915 453.289 117.922C453.268 117.927 453.125 117.956 452.894 117.986C452.707 118.01 452.188 118.072 451.481 118.053C451.035 118.041 449.15 117.992 447.003 116.933C445.794 116.337 444.154 115.247 442.818 113.343C441.406 111.329 440.796 109.056 440.796 106.94H463.296ZM463.296 147.392L463.296 106.94L440.796 106.94L440.796 147.391L463.296 147.392Z" fill="#383333" mask="url(#path-1-outside-1_131_15)"/>
<path d="M123.292 236.614L67.1836 263.152L83.1062 236.614L102.82 197.945L146.797 202.494L180.917 221.449L271.145 225.241L337.11 197.945L385.637 205.527L434.921 246.471L422.031 263.152L385.637 246.471L356.824 236.614L265.079 272.25L237.783 310.92V335.183L246.882 388.258L232.476 401.148L218.828 379.159L228.685 335.183V310.92L207.455 272.25L123.292 236.614Z" fill="#626B7E"/>
<path d="M236.267 141.836L107.37 119.09L70.1883 157.708L42.3735 170.007L48.6028 188.278C63.1623 196.074 72.9569 194.799 79.266 196.358C85.5751 197.917 135.684 209.351 159.95 214.873L283.65 221.138L370.965 206.259L441.043 186.682L444.231 170.007L412.795 157.708L381.846 124.397L236.267 141.836Z" fill="#383F4E"/>
<path d="M38.7537 183.795L38.7541 107.876C38.7541 106.358 67.9688 118.21 82.5763 124.325L107.981 153.428L131.48 160.387L153.074 183.795L121.953 213.531L82.5763 247.062L71.7794 263.511L65.4283 291.981L60.9826 331.838L45.7399 285.021V247.062L38.7537 183.795Z" fill="#5D6678"/>
<path d="M455.432 183.795L455.433 107.876C455.433 106.358 426.217 118.21 411.61 124.325L386.205 153.428L362.706 160.387L341.113 183.795L372.233 213.53L411.61 247.062L422.407 263.511L428.758 291.98L433.203 331.838L448.446 285.021V247.062L455.432 183.795Z" fill="#5D6678"/>
<path d="M65.9508 141.178L39.3403 107.405L82.4239 122.698L107.134 151.374L131.843 159.658L104.599 227.204L91.2941 199.803L77.3553 164.118L65.9508 141.178Z" fill="#656E7D"/>
<path d="M427.264 141.904L451.813 105.888L407.75 124.844L386.348 152.013L363.058 160.227L351.728 174.128L388.866 227.204L402.085 200.034L415.933 164.65L427.264 141.904Z" fill="#656E7D"/>
<path d="M194.43 233.36C166.089 221.964 110.296 208.848 108.773 208.848L107.369 181.264L119.559 147.568L159.533 130.151L161.203 166.099L236.306 172.923L322.704 163.825L325.136 130.151L370.185 147.568L380.329 180.466L376.53 208.848L287.701 233.36L251.534 258.517L236.306 303.026L220.444 258.517L194.43 233.36Z" fill="#6D788C"/>
<path d="M269.935 196.489H207.12L150.015 176.593L142.401 159.906L159.533 131.668L119.56 148.996L106.611 181.086L105.095 225.999L150.015 217.658L194.43 233.712L221.713 259.384L236.307 303.026L251.535 259.384L287.701 233.712L376.53 209.966L379.571 181.086L370.185 148.996L325.77 131.668C332.115 140.653 344.805 158.88 344.805 159.906V172.742L325.136 188.145L269.935 196.489Z" fill="#818B9E"/>
<path d="M234.962 301.509V196.66H270.837L325.429 187.271L344.146 172.404V159.102L325.429 130.151L369.882 146.583L381.088 181.264L387.912 226.757L348.484 216.142L286.434 232.653L250.56 259.257L234.962 301.509Z" fill="#939CAC"/>
</svg>
