<svg width="1001" height="1001" viewBox="0 0 1001 1001" fill="none" xmlns="http://www.w3.org/2000/svg">
<path d="M755.066 876.656L633.386 745.793C613.489 751.915 569.562 764.619 553.032 766.455C536.501 768.292 506.349 791.71 493.34 803.189L415.281 794.006L401.506 732.018C419.107 729.722 456.606 725.13 465.789 725.13C474.973 725.13 495.635 696.049 504.819 681.509L520.89 653.959L178.809 341.724L100.75 68.5187L367.068 181.015V192.75L373.956 187.903L667.824 527.687L693.078 497.842L830.829 470.291L846.9 571.309C832.359 576.666 801.442 586.92 794.095 585.084C786.749 583.247 752.77 648.602 736.699 681.509L846.9 805.485L872.154 819.26L902 839.922L872.154 927.165L862.971 947.827L764.249 917.981L755.066 876.656Z" fill="#1C0D0D"/>
<rect x="617.429" y="707.812" width="90.5187" height="293.979" rx="45.2594" transform="rotate(-43.347 617.429 707.812)" fill="#332525"/>
<path d="M194.212 329.205C194.773 336.53 270.251 400.139 307.92 431.028C393.88 507.314 546.588 664.161 589.765 704.786L711.445 598.858L374.632 210.202L348.701 240.707L351.991 190.494L112.229 83.6793C115.744 99.5283 193.512 320.048 194.212 329.205Z" fill="#3F4550"/>
<path d="M223.701 341.997C224.187 348.345 291.533 403.316 325.146 430.008C401.836 495.944 546.657 631.516 585.173 666.635L665.528 585.084L385.252 238.478L341.814 259.074L332.63 245.299L319.688 192.011L150.922 129.372C154.031 143.101 223.094 334.062 223.701 341.997Z" fill="#5A6273"/>
<path d="M373.956 373.866L392.322 316.469C410.689 324.888 448.8 342.183 454.31 344.02C459.82 345.856 490.279 412.13 504.819 445.037V474.883L440.535 385.345L373.956 373.866Z" fill="#5D6678"/>
<path d="M775.729 904.206V872.064L844.604 823.851L885.929 837.626V858.289C885.929 867.472 879.042 878.951 874.45 890.431C869.858 901.91 860.675 911.093 858.379 920.277C856.542 927.623 840.777 923.338 833.125 920.277L784.912 911.093L775.729 904.206Z" fill="#332525"/>
<path d="M610.428 736.609L670.12 732.017L722.924 683.805C732.108 666.968 750.934 632.378 752.77 628.704C754.607 625.031 776.494 591.971 787.208 575.9L828.533 564.421L817.054 484.066L695.374 516.208L649.457 564.421V591.971L626.499 621.817L598.949 642.479H548.44C540.787 654.724 524.563 680.131 520.89 683.805C517.217 687.478 484.156 717.477 468.085 732.017L424.464 736.609V789.414C439.77 790.179 472.677 791.25 481.86 789.414C491.044 787.577 520.89 768.751 534.665 759.568L610.428 736.609Z" fill="#332525"/>
<path d="M707.143 786.814C700.643 785.674 696.298 779.48 697.438 772.981L709.806 702.461C710.946 695.961 717.14 691.616 723.639 692.756V692.756C730.139 693.896 734.484 700.089 733.344 706.589L720.976 777.109C719.836 783.609 713.643 787.954 707.143 786.814V786.814Z" fill="#472E2E"/>
<path d="M743.876 832.73C737.377 831.591 733.032 825.397 734.172 818.897L746.54 748.378C747.68 741.878 753.873 737.533 760.373 738.673V738.673C766.873 739.813 771.218 746.006 770.078 752.506L757.709 823.026C756.569 829.526 750.376 833.87 743.876 832.73V832.73Z" fill="#472E2E"/>
<path d="M789.793 874.056C783.294 872.916 778.949 866.723 780.089 860.223L792.457 789.703C793.597 783.203 799.79 778.858 806.29 779.998V779.998C812.79 781.138 817.135 787.332 815.995 793.831L803.626 864.351C802.486 870.851 796.293 875.196 789.793 874.056V874.056Z" fill="#472E2E"/>
<rect x="652.643" y="718.242" width="120.03" height="23.8971" rx="11.9485" transform="rotate(7.65996 652.643 718.242)" fill="#472E2E"/>
<rect x="698.56" y="768.751" width="120.03" height="23.8971" rx="11.9485" transform="rotate(7.65996 698.56 768.751)" fill="#472E2E"/>
<rect x="735.293" y="810.076" width="105.778" height="23.8971" rx="11.9485" transform="rotate(7.65996 735.293 810.076)" fill="#472E2E"/>
<path d="M530.073 527.687L456.606 495.545L502.523 557.533H530.073V527.687Z" fill="#5D6678"/>
<path d="M282.122 334.836L199.471 286.623L210.95 325.653L238.501 334.836L314.263 396.824L318.855 424.374L426.76 525.391L445.127 484.066L417.576 433.558H378.547L357.885 394.528L282.122 334.836Z" fill="#5D6678"/>
<path d="M208.655 215.452L158.146 128.21H181.105C186.615 128.21 207.89 146.577 217.838 155.76L277.53 178.719V187.902L261.46 194.79L208.655 215.452Z" fill="#5D6678"/>
<path d="M518.594 479.474L543.848 433.557L637.978 539.166L624.203 552.941H589.765C591.295 562.89 594.357 584.165 594.357 589.675C594.357 596.563 580.582 612.633 573.694 612.633H523.185L509.41 589.675L543.848 598.858L559.919 557.533V520.8L523.185 507.025L495.635 488.658H514.002L518.594 479.474Z" fill="#5D6678"/>
</svg>
