<svg width="1001" height="1001" viewBox="0 0 1001 1001" fill="none" xmlns="http://www.w3.org/2000/svg">
<mask id="path-1-outside-1_147_60" maskUnits="userSpaceOnUse" x="169.082" y="169.201" width="790.545" height="790.545" fill="black">
<rect fill="white" x="169.082" y="169.201" width="790.545" height="790.545"/>
<path d="M222.328 194.175C215.568 187.415 204.608 187.415 197.848 194.175L194.05 197.973C187.29 204.733 187.29 215.694 194.05 222.454L906.757 935.161C913.517 941.921 924.478 941.921 931.238 935.161L935.035 931.363C941.796 924.603 941.796 913.643 935.035 906.883L222.328 194.175Z"/>
</mask>
<path d="M222.328 194.175C215.568 187.415 204.608 187.415 197.848 194.175L194.05 197.973C187.29 204.733 187.29 215.694 194.05 222.454L906.757 935.161C913.517 941.921 924.478 941.921 931.238 935.161L935.035 931.363C941.796 924.603 941.796 913.643 935.035 906.883L222.328 194.175Z" fill="#2F0A0A"/>
<path d="M935.035 906.883L929.185 912.733L935.035 906.883ZM194.05 197.973L199.901 203.824L194.05 197.973ZM197.848 194.175L191.997 188.325L197.848 194.175ZM222.328 194.175L228.179 188.325L222.328 194.175ZM191.997 188.325L188.199 192.122L199.901 203.824L203.698 200.026L191.997 188.325ZM188.199 228.304L900.906 941.012L912.608 929.31L199.901 216.603L188.199 228.304ZM937.088 941.012L940.886 937.214L929.185 925.513L925.387 929.31L937.088 941.012ZM940.886 901.032L228.179 188.325L216.478 200.026L929.185 912.733L940.886 901.032ZM940.886 937.214C950.878 927.222 950.878 911.023 940.886 901.032L929.185 912.733C932.714 916.262 932.714 921.984 929.185 925.513L940.886 937.214ZM900.906 941.012C910.898 951.003 927.097 951.003 937.088 941.012L925.387 929.31C921.858 932.839 916.137 932.839 912.608 929.31L900.906 941.012ZM188.199 192.122C178.208 202.114 178.208 218.313 188.199 228.304L199.901 216.603C196.372 213.074 196.372 207.353 199.901 203.824L188.199 192.122ZM203.698 200.026C207.227 196.497 212.949 196.497 216.478 200.026L228.179 188.325C218.188 178.333 201.988 178.333 191.997 188.325L203.698 200.026Z" fill="#200707" mask="url(#path-1-outside-1_147_60)"/>
<mask id="path-3-outside-2_147_60" maskUnits="userSpaceOnUse" x="-11.9779" y="-12.9275" width="311.834" height="311.834" fill="black">
<rect fill="white" x="-11.9779" y="-12.9275" width="311.834" height="311.834"/>
<path fill-rule="evenodd" clip-rule="evenodd" d="M185.832 95.2719L48.2386 44.594C46.5145 43.959 44.8363 45.6318 45.4657 47.3579L95.7719 185.332L152.461 220.395L162.542 227.337L239.462 236.422L228.223 161.656L204.654 128.189L185.832 95.2719Z"/>
</mask>
<path fill-rule="evenodd" clip-rule="evenodd" d="M185.832 95.2719L48.2386 44.594C46.5145 43.959 44.8363 45.6318 45.4657 47.3579L95.7719 185.332L152.461 220.395L162.542 227.337L239.462 236.422L228.223 161.656L204.654 128.189L185.832 95.2719Z" fill="#3F4550"/>
<path d="M48.2386 44.594L51.0983 36.8298L51.0983 36.8298L48.2386 44.594ZM185.832 95.2719L193.015 91.1647L191.519 88.5491L188.692 87.5077L185.832 95.2719ZM45.4657 47.3579L53.2392 44.5236L53.2392 44.5236L45.4657 47.3579ZM95.7719 185.332L87.9984 188.166L88.9807 190.86L91.4195 192.369L95.7719 185.332ZM152.461 220.395L157.153 213.58L156.986 213.465L156.813 213.358L152.461 220.395ZM162.542 227.337L157.849 234.151L159.537 235.313L161.571 235.554L162.542 227.337ZM239.462 236.422L238.491 244.639L249.255 245.91L247.644 235.192L239.462 236.422ZM228.223 161.656L236.405 160.426L236.114 158.491L234.988 156.892L228.223 161.656ZM204.654 128.189L197.471 132.296L197.665 132.634L197.889 132.953L204.654 128.189ZM45.3789 52.3582L182.972 103.036L188.692 87.5077L51.0983 36.8298L45.3789 52.3582ZM53.2392 44.5236C55.0232 49.4165 50.266 54.1582 45.3789 52.3582L51.0983 36.8298C42.7631 33.7598 34.6494 41.847 37.6921 50.1922L53.2392 44.5236ZM103.545 182.498L53.2392 44.5236L37.6921 50.1922L87.9984 188.166L103.545 182.498ZM156.813 213.358L100.124 178.295L91.4195 192.369L148.108 227.432L156.813 213.358ZM167.235 220.522L157.153 213.58L147.768 227.209L157.849 234.151L167.235 220.522ZM240.432 228.205L163.512 219.12L161.571 235.554L238.491 244.639L240.432 228.205ZM220.041 162.886L231.279 237.652L247.644 235.192L236.405 160.426L220.041 162.886ZM197.889 132.953L221.458 166.42L234.988 156.892L211.419 123.425L197.889 132.953ZM178.649 99.3791L197.471 132.296L211.837 124.082L193.015 91.1647L178.649 99.3791Z" fill="#200707" mask="url(#path-3-outside-2_147_60)"/>
<path fill-rule="evenodd" clip-rule="evenodd" d="M61.1298 60.2443L107.673 175.699L171.994 214.178L178.225 201.196L182.255 180.789L182.178 180.57L203.065 177.311L219.218 169.88L187.982 159.151L175.643 108L62.7919 60.548L60.738 59.2723L60.938 59.7685L60.448 59.5625L61.1298 60.2443Z" fill="#525B6D"/>
<path d="M181.554 180.668L60.4482 59.5626L175.643 108L221.27 169.778L203.065 177.311L181.554 180.668Z" fill="#5A6273"/>
<path d="M225.72 243.828L222.546 242.465L221.188 245.641L217.27 254.809L217.198 254.978L217.144 255.154L213.665 266.507L213.642 266.583L213.622 266.659L208.626 286.092L208.51 286.544L208.518 287.011L208.902 308.797L208.914 309.458L209.17 310.068L223.937 345.313L224.199 345.939L224.679 346.419L233.21 354.95L233.303 355.043L233.402 355.128L247.158 366.934L250.537 369.834L252.499 365.836C253.8 363.184 254.13 359.671 254.122 356.371C254.114 352.946 253.73 349.206 253.242 345.771C252.753 342.321 252.145 339.096 251.665 336.688C251.506 335.893 251.358 335.168 251.234 334.565C251.173 334.264 251.117 333.993 251.07 333.759C250.996 333.395 250.943 333.125 250.909 332.938C250.9 332.892 250.894 332.856 250.89 332.829C250.85 332.316 250.715 331.898 250.672 331.764L250.667 331.749C250.583 331.488 250.48 331.218 250.379 330.969C250.176 330.466 249.9 329.85 249.592 329.182C249.231 328.398 248.783 327.452 248.299 326.431C247.967 325.73 247.618 324.993 247.268 324.249C245.636 320.77 243.947 317.018 243.066 314.301L249.86 325.624L250.079 325.988L250.379 326.288L261.105 337.014L270.369 346.278L270.694 346.603L271.093 346.832L286.356 355.577L286.652 355.747L286.782 355.79C286.802 355.803 286.825 355.818 286.853 355.836C287.041 355.958 287.293 356.137 287.622 356.379C287.782 356.495 287.962 356.63 288.156 356.774C288.682 357.165 289.305 357.629 289.857 358.008C290.248 358.275 290.69 358.563 291.134 358.803C291.487 358.994 292.208 359.366 293.066 359.477C293.521 359.536 294.351 359.568 295.241 359.14C296.262 358.65 296.89 357.787 297.167 356.917C297.407 356.166 297.365 355.496 297.314 355.102C297.258 354.675 297.149 354.283 297.041 353.96C296.699 352.938 295.606 350.527 294.254 347.632C292.849 344.623 291.031 340.813 289.109 336.808C287.955 334.403 286.764 331.93 285.6 329.513C282.874 323.852 280.297 318.499 278.692 315.067C277.412 312.332 275.317 309.397 273.7 307.132C273.573 306.954 273.449 306.78 273.329 306.611C272.444 305.368 271.765 304.393 271.333 303.653C271.267 303.54 271.212 303.442 271.167 303.357C271.184 303.014 271.161 302.727 271.142 302.54C271.096 302.084 271.001 301.631 270.897 301.227C270.689 300.412 270.367 299.479 269.995 298.519C269.244 296.581 268.166 294.222 266.987 291.868C265.805 289.508 264.488 287.09 263.241 285.029C262.051 283.062 260.757 281.136 259.611 279.99C257.191 277.571 244.924 262.835 238.579 255.141L236.808 249.847L236.318 248.383L234.899 247.773L225.72 243.828ZM250.879 332.761C250.879 332.761 250.88 332.766 250.881 332.775C250.88 332.765 250.879 332.761 250.879 332.761ZM290.511 356.176C290.511 356.176 290.51 356.174 290.509 356.17C290.511 356.175 290.511 356.177 290.511 356.176ZM294.509 352.785C294.509 352.786 294.496 352.781 294.468 352.767C294.495 352.777 294.509 352.784 294.509 352.785ZM286.696 355.739C286.696 355.739 286.698 355.74 286.703 355.743C286.698 355.74 286.696 355.739 286.696 355.739Z" fill="#929292" stroke="#200707" stroke-width="6.89511"/>
<path d="M221.552 210.943L220.188 207.77L223.365 206.412L232.533 202.493L232.702 202.421L232.878 202.367L244.231 198.888L244.306 198.865L244.383 198.846L263.816 193.849L264.268 193.733L264.735 193.741L286.521 194.126L287.182 194.137L287.792 194.393L323.037 209.161L323.663 209.423L324.143 209.903L332.673 218.433L332.766 218.526L332.852 218.626L344.658 232.382L347.557 235.761L343.56 237.722C340.908 239.024 337.395 239.353 334.095 239.345C330.67 239.337 326.93 238.954 323.495 238.466C320.045 237.976 316.82 237.369 314.411 236.888C313.616 236.73 312.892 236.581 312.288 236.458C311.988 236.396 311.717 236.341 311.483 236.293C311.118 236.219 310.848 236.166 310.661 236.132C310.616 236.124 310.58 236.118 310.552 236.113C310.04 236.073 309.622 235.939 309.488 235.896L309.473 235.891C309.211 235.807 308.941 235.704 308.693 235.603C308.19 235.399 307.573 235.123 306.906 234.816C306.122 234.454 305.176 234.006 304.155 233.522C303.453 233.19 302.717 232.841 301.973 232.492C298.494 230.859 294.742 229.171 292.025 228.29L303.348 235.084L303.712 235.302L304.012 235.602L314.738 246.329L324.002 255.592L324.327 255.917L324.555 256.316L333.301 271.58L333.471 271.876L333.514 272.006C333.527 272.025 333.542 272.049 333.559 272.076C333.682 272.264 333.861 272.517 334.102 272.846C334.219 273.005 334.353 273.186 334.497 273.379C334.889 273.906 335.352 274.528 335.731 275.081C335.999 275.471 336.287 275.914 336.527 276.358C336.718 276.71 337.089 277.432 337.2 278.29C337.259 278.745 337.291 279.574 336.864 280.465C336.374 281.485 335.511 282.113 334.641 282.391C333.89 282.63 333.22 282.589 332.826 282.537C332.398 282.481 332.007 282.373 331.684 282.264C330.662 281.922 328.25 280.829 325.355 279.478C322.346 278.073 318.537 276.255 314.531 274.332C312.127 273.178 309.654 271.987 307.237 270.824C301.575 268.098 296.223 265.52 292.791 263.915C290.056 262.636 287.121 260.541 284.855 258.924C284.677 258.797 284.504 258.673 284.334 258.553C283.091 257.668 282.117 256.989 281.377 256.556C281.264 256.49 281.165 256.435 281.081 256.39C280.737 256.407 280.451 256.385 280.264 256.366C279.807 256.32 279.355 256.224 278.95 256.121C278.136 255.913 277.203 255.591 276.243 255.219C274.304 254.468 271.946 253.39 269.592 252.211C267.232 251.028 264.813 249.711 262.753 248.465C260.786 247.275 258.859 245.98 257.713 244.834C255.294 242.415 240.559 230.147 232.865 223.802L227.57 222.031L226.106 221.541L225.497 220.123L221.552 210.943ZM310.484 236.103C310.485 236.103 310.49 236.103 310.499 236.105C310.489 236.103 310.484 236.103 310.484 236.103ZM333.9 275.735C333.9 275.734 333.897 275.734 333.893 275.733C333.898 275.734 333.901 275.735 333.9 275.735ZM330.509 279.732C330.51 279.732 330.504 279.719 330.49 279.692C330.501 279.718 330.508 279.732 330.509 279.732ZM333.463 271.919C333.463 271.919 333.464 271.922 333.466 271.926C333.464 271.922 333.463 271.919 333.463 271.919Z" fill="#929292" stroke="#200707" stroke-width="6.89511"/>
<rect width="39.9917" height="1038.4" rx="19.9958" transform="matrix(-0.707107 0.707107 0.707107 0.707107 213.987 185.836)" fill="#332525"/>
<rect width="23.4434" height="1014.96" rx="11.7217" transform="matrix(-0.707107 0.707107 0.707107 0.707107 214.963 198.512)" fill="#472E2E"/>
</svg>
