<svg width="400" height="400" viewBox="0 0 400 400" fill="none" xmlns="http://www.w3.org/2000/svg">
<path d="M200 44L300.275 80.4971L353.63 172.911L335.1 278L253.355 346.592H146.645L64.9 278L46.37 172.911L99.7251 80.4971L200 44Z" fill="#273041"/>
<path d="M200 50L296.418 85.0933L347.721 173.953L329.904 275L251.303 340.954H148.697L70.0962 275L52.2788 173.953L103.582 85.0933L200 50Z" fill="#3F4550"/>
<path d="M200 78.5L278.099 106.926L319.654 178.902L305.222 260.75L241.555 314.173H158.445L94.7779 260.75L80.3459 178.902L121.901 106.926L200 78.5Z" fill="#525B6D"/>
<path d="M200 119.75L251.584 138.525L279.031 186.065L269.499 240.125L227.447 275.41H172.553L130.501 240.125L120.969 186.065L148.416 138.525L200 119.75Z" fill="#5A6273"/>
<path d="M200 149.75L232.3 161.506L249.487 191.274L243.518 225.125L217.187 247.22H182.813L156.482 225.125L150.513 191.274L167.7 161.506L200 149.75Z" fill="#5D6678"/>
<path fill-rule="evenodd" clip-rule="evenodd" d="M140.508 140.508C133.186 147.831 133.186 159.702 140.508 167.025L173.654 200.17L140.508 233.316C133.186 240.638 133.186 252.51 140.508 259.833C147.831 267.155 159.702 267.155 167.025 259.833L200.17 226.687L233.316 259.832C240.638 267.155 252.51 267.155 259.832 259.832C267.155 252.51 267.155 240.638 259.832 233.316L226.687 200.17L259.832 167.025C267.155 159.702 267.155 147.831 259.832 140.508C252.51 133.186 240.638 133.186 233.316 140.508L200.17 173.654L167.025 140.508C159.702 133.186 147.831 133.186 140.508 140.508Z" fill="#3F4550"/>
<path fill-rule="evenodd" clip-rule="evenodd" d="M153.177 153.177C148.029 158.325 148.029 166.672 153.177 171.819L181.141 199.783L153.177 227.747C148.029 232.895 148.029 241.241 153.177 246.389C158.325 251.537 166.671 251.537 171.819 246.389L199.783 218.425L227.747 246.389C232.895 251.537 241.241 251.537 246.389 246.389C251.537 241.241 251.537 232.895 246.389 227.747L218.425 199.783L246.389 171.819C251.537 166.672 251.537 158.325 246.389 153.177C241.241 148.029 232.895 148.029 227.747 153.177L199.783 181.141L171.819 153.177C166.671 148.029 158.325 148.029 153.177 153.177Z" fill="#5D6678"/>
</svg>
