<svg width="400" height="400" viewBox="0 0 400 400" fill="none" xmlns="http://www.w3.org/2000/svg">
<path d="M172.346 201.372L331.394 374.39L345.365 384.062C351.096 385.853 357.186 392.659 360.41 392.659C365.216 392.659 372.231 392.301 377.604 390.51L390.5 372.241L389.425 355.047L212.108 166.983C201.362 155.148 183.626 140.824 190.615 135.819C198.138 130.432 194.914 132.581 203.511 127.208L234.676 112.176L257.244 81.0115C240.766 60.5932 208.455 21.0462 206.735 21.9059C205.016 22.7656 199.213 24.7716 197.063 26.2044C180.944 41.6077 146.555 82.0586 143.331 84.2217C135.989 89.1475 133.67 86.3702 128.324 79.9682L128.286 79.9231L117.539 77.7738C105.718 77.7738 98.1958 84.2079 94.9718 86.371C85.3 100.341 87.8075 106.789 88.5239 108.939C91.1031 113.237 100.345 125.417 98.1958 125.058C98.1958 128.999 98.1958 125.058 88.5239 135.819L74.5535 148.714L56.2845 166.983C44.8216 190.984 22.8031 243.766 19.7465 248.657C14.3732 257.254 9 317.434 9 321.733C9 325.172 11.1493 332.837 11.1493 335.703L22.9704 328.181L85.3 225.014L112.166 201.372L142.256 191.686L150.854 182.015L172.346 201.372Z" fill="black" fill-opacity="0.5"/>
<rect x="86.4904" y="103.507" width="42.3704" height="396.69" rx="21.1852" transform="rotate(-43.347 86.4904 103.507)" fill="black" fill-opacity="0.5"/>
<path d="M251.87 82.0863L207.81 26.2046C186.317 32.6525 125.419 111.819 122.912 114.326C118.614 118.624 100.345 131.52 94.9716 134.744C89.0711 138.284 65.4239 164.156 60.5829 170.207C56.2843 175.581 16.5224 261.552 16.5224 278.747C16.5224 295.941 10.0747 309.912 16.5224 329.255L31.5674 304.538L50.911 269.075L79.9265 222.865L108.942 194.924L141.181 183.103L162.674 149.789L203.511 120.774L232.527 107.878L251.87 82.0863Z" fill="black" fill-opacity="0.5"/>
<path d="M226.035 85.0123L204.542 52.7729C187.277 57.0257 129.465 118.214 127.446 119.89C123.983 122.763 124.656 125.471 108.899 134.446C108.899 134.446 84.8615 156.187 80.9578 160.238C77.4915 163.834 41.6084 218.478 41.5528 230.039C41.4972 241.601 36.2787 250.97 41.3895 264.002L53.5407 247.44L69.1757 223.669L92.6056 192.708L115.976 174.032L141.882 166.208L159.234 143.889L192.093 124.536L214.214 107.58L226.035 85.0123Z" fill="black" fill-opacity="0.5"/>
<path d="M141.114 169.164C133.269 150.145 133.108 135.452 140.666 128.317C148.225 121.183 162.884 122.191 181.419 131.119L210.999 202.83L141.114 169.164Z" fill="black" fill-opacity="0.5"/>
<rect x="185.242" y="176.655" width="12.2296" height="265.72" rx="6.11479" transform="rotate(-43.347 185.242 176.655)" fill="black" fill-opacity="0.5"/>
<path d="M172.346 186.327L331.394 359.345L345.365 369.017C351.096 370.808 357.186 377.614 360.41 377.614C365.216 377.614 372.231 377.256 377.604 375.465L390.5 357.196L389.425 340.002L212.108 151.938C201.362 140.103 190.074 125.765 197.063 120.76C204.586 115.373 202.437 117.536 211.034 112.163L234.676 97.1312L257.244 65.9664C240.766 45.5481 208.455 6.00112 206.735 6.86084C205.016 7.72056 199.213 9.72654 197.063 11.1594C180.944 26.5627 146.555 67.0136 143.331 69.1766C135.989 74.1024 133.67 71.3252 128.324 64.9231L128.286 64.878L117.539 62.7287C105.718 62.7287 98.1958 69.1628 94.9718 71.3259C85.3 85.2963 87.8075 91.7443 88.5239 93.8935C91.1031 98.1921 100.345 110.371 98.1958 110.013C98.1958 113.954 98.1958 110.013 88.5239 120.774L74.5535 133.669L56.2845 151.938C44.8216 175.939 22.8031 228.721 19.7465 233.612C14.3732 242.209 9 302.389 9 306.688C9 310.126 11.1493 317.792 11.1493 320.658L22.9704 313.135L85.3 209.969L112.166 186.327L142.256 176.641L150.854 166.97L172.346 186.327Z" fill="#200707"/>
<rect x="86.4904" y="88.462" width="42.3704" height="396.69" rx="21.1852" transform="rotate(-43.347 86.4904 88.462)" fill="#332525"/>
<path d="M251.87 67.0412L207.81 11.1595C186.317 17.6074 125.419 96.7742 122.912 99.2807C118.614 103.579 100.345 116.475 94.9716 119.699C89.0711 123.239 65.4239 149.111 60.5829 155.162C56.2843 160.536 16.5224 246.507 16.5224 263.702C16.5224 280.896 10.0747 294.867 16.5224 314.21L31.5674 289.493L50.911 254.03L79.9265 207.82L108.942 179.879L141.181 168.058L162.674 134.744L203.511 105.729L232.527 92.8328L251.87 67.0412Z" fill="#3F4550"/>
<path d="M226.035 69.9673L204.542 37.7279C187.277 41.9806 129.465 103.169 127.446 104.845C123.983 107.718 124.656 110.426 108.899 119.401C108.899 119.401 84.8615 141.142 80.9578 145.193C77.4915 148.789 41.6084 203.433 41.5528 214.994C41.4972 226.556 36.2787 235.925 41.3895 248.957L53.5407 232.395L69.1757 208.624L92.6056 177.663L115.976 158.987L141.882 151.163L159.234 128.844L192.093 109.491L214.214 92.5349L226.035 69.9673Z" fill="#5A6273"/>
<path d="M149.462 162.964C142.534 144.917 142.889 130.77 150.448 123.635C158.006 116.501 172.15 116.963 189.768 124.92L215.889 192.966L149.462 162.964Z" fill="#332525"/>
</svg>
