<svg width="501" height="501" viewBox="0 0 501 501" fill="none" xmlns="http://www.w3.org/2000/svg">
<g clip-path="url(#clip0_147_103)">
<mask id="path-1-outside-1_147_103" maskUnits="userSpaceOnUse" x="56.4148" y="56.6708" width="461.741" height="461.741" fill="black">
<rect fill="white" x="56.4148" y="56.6708" width="461.741" height="461.741"/>
<path fill-rule="evenodd" clip-rule="evenodd" d="M130.491 93.0841C120.092 82.6852 103.232 82.6852 92.8335 93.0841C82.4347 103.483 82.4347 120.343 92.8335 130.742L168.977 206.885C169.497 215.217 172.94 223.4 179.307 229.767L199.428 249.889C205.795 256.256 213.978 259.699 222.31 260.218L444.305 482.213C454.704 492.612 471.564 492.612 481.963 482.213C492.361 471.814 492.361 454.954 481.963 444.556L259.968 222.561C259.448 214.229 256.005 206.045 249.638 199.678L229.517 179.557C223.15 173.19 214.966 169.747 206.635 169.227L130.491 93.0841Z"/>
</mask>
<path fill-rule="evenodd" clip-rule="evenodd" d="M130.491 93.0841C120.092 82.6852 103.232 82.6852 92.8335 93.0841C82.4347 103.483 82.4347 120.343 92.8335 130.742L168.977 206.885C169.497 215.217 172.94 223.4 179.307 229.767L199.428 249.889C205.795 256.256 213.978 259.699 222.31 260.218L444.305 482.213C454.704 492.612 471.564 492.612 481.963 482.213C492.361 471.814 492.361 454.954 481.963 444.556L259.968 222.561C259.448 214.229 256.005 206.045 249.638 199.678L229.517 179.557C223.15 173.19 214.966 169.747 206.635 169.227L130.491 93.0841Z" fill="#332525"/>
<path d="M92.8335 93.0841L87.6984 87.9489L87.6984 87.9489L92.8335 93.0841ZM130.491 93.0841L125.356 98.2192L125.356 98.2192L130.491 93.0841ZM92.8335 130.742L97.9687 125.607L97.9687 125.607L92.8335 130.742ZM168.977 206.885L176.225 206.433L176.054 203.692L174.112 201.75L168.977 206.885ZM179.307 229.767L174.172 234.902L179.307 229.767ZM199.428 249.889L204.563 244.753L204.563 244.753L199.428 249.889ZM222.31 260.218L227.445 255.083L225.503 253.141L222.762 252.97L222.31 260.218ZM444.305 482.213L449.44 477.078L449.44 477.078L444.305 482.213ZM481.963 444.556L476.827 449.691L476.827 449.691L481.963 444.556ZM259.968 222.561L252.72 223.013L252.891 225.754L254.833 227.696L259.968 222.561ZM249.638 199.678L244.503 204.814L244.503 204.814L249.638 199.678ZM229.517 179.557L234.652 174.422L234.652 174.422L229.517 179.557ZM206.635 169.227L201.499 174.363L203.441 176.305L206.183 176.476L206.635 169.227ZM97.9687 98.2192C105.531 90.6564 117.793 90.6564 125.356 98.2192L135.626 87.9489C122.391 74.714 100.933 74.714 87.6984 87.9489L97.9687 98.2192ZM97.9687 125.607C90.4058 118.044 90.4059 105.782 97.9687 98.2192L87.6984 87.9489C74.4635 101.184 74.4635 122.642 87.6984 135.877L97.9687 125.607ZM174.112 201.75L97.9687 125.607L87.6984 135.877L163.842 212.02L174.112 201.75ZM184.442 224.632C179.374 219.564 176.639 213.067 176.225 206.433L161.729 207.337C162.354 217.367 166.506 227.237 174.172 234.902L184.442 224.632ZM204.563 244.753L184.442 224.632L174.172 234.902L194.293 255.024L204.563 244.753ZM222.762 252.97C216.129 252.557 209.631 249.822 204.563 244.753L194.293 255.024C201.959 262.689 211.828 266.841 221.858 267.466L222.762 252.97ZM449.44 477.078L227.445 255.083L217.175 265.353L439.17 487.348L449.44 477.078ZM476.827 477.078C469.265 484.641 457.003 484.641 449.44 477.078L439.17 487.348C452.405 500.583 473.863 500.583 487.098 487.348L476.827 477.078ZM476.827 449.691C484.39 457.253 484.39 469.515 476.827 477.078L487.098 487.348C500.333 474.113 500.333 452.655 487.098 439.42L476.827 449.691ZM254.833 227.696L476.827 449.691L487.098 439.42L265.103 217.426L254.833 227.696ZM244.503 204.814C249.571 209.882 252.306 216.379 252.72 223.013L267.216 222.109C266.591 212.079 262.439 202.209 254.773 194.543L244.503 204.814ZM224.382 184.692L244.503 204.814L254.773 194.543L234.652 174.422L224.382 184.692ZM206.183 176.476C212.816 176.889 219.314 179.624 224.382 184.692L234.652 174.422C226.986 166.756 217.117 162.605 207.086 161.979L206.183 176.476ZM125.356 98.2192L201.499 174.363L211.77 164.092L135.626 87.9489L125.356 98.2192Z" fill="#200707" mask="url(#path-1-outside-1_147_103)"/>
<mask id="path-3-outside-2_147_103" maskUnits="userSpaceOnUse" x="-0.0715208" y="0.312805" width="347.897" height="347.897" fill="black">
<rect fill="white" x="-0.0715208" y="0.312805" width="347.897" height="347.897"/>
<path fill-rule="evenodd" clip-rule="evenodd" d="M82.5635 137.588C79.7275 140.424 79.7275 145.022 82.5635 147.858L82.5637 147.858L31.7827 198.639L31.7831 198.64L33.2094 210.336L36.918 214.045L36.3472 214.615L36.3117 214.651L27.2185 223.744C26.9033 224.06 26.9033 224.57 27.2185 224.886L120.221 317.889C120.537 318.204 121.047 318.204 121.363 317.889L131.062 308.189L133.915 311.042L146.467 313.324L146.468 313.324L197.249 262.543L200.672 265.966C203.508 268.802 208.106 268.802 210.942 265.966L265.717 211.192C268.553 208.355 268.553 203.757 265.717 200.921L262.294 197.498L313.074 146.718L311.648 133.309L308.795 130.456L317.639 121.612C317.954 121.297 317.954 120.786 317.639 120.471L224.636 27.4682C224.321 27.1531 223.81 27.1531 223.495 27.4682L214.651 36.3121L210.942 32.6034L198.39 32.0328L198.389 32.0327L147.609 82.8133L147.609 82.8132C144.773 79.9771 140.174 79.9771 137.338 82.8132L82.5635 137.588Z"/>
</mask>
<path fill-rule="evenodd" clip-rule="evenodd" d="M82.5635 137.588C79.7275 140.424 79.7275 145.022 82.5635 147.858L82.5637 147.858L31.7827 198.639L31.7831 198.64L33.2094 210.336L36.918 214.045L36.3472 214.615L36.3117 214.651L27.2185 223.744C26.9033 224.06 26.9033 224.57 27.2185 224.886L120.221 317.889C120.537 318.204 121.047 318.204 121.363 317.889L131.062 308.189L133.915 311.042L146.467 313.324L146.468 313.324L197.249 262.543L200.672 265.966C203.508 268.802 208.106 268.802 210.942 265.966L265.717 211.192C268.553 208.355 268.553 203.757 265.717 200.921L262.294 197.498L313.074 146.718L311.648 133.309L308.795 130.456L317.639 121.612C317.954 121.297 317.954 120.786 317.639 120.471L224.636 27.4682C224.321 27.1531 223.81 27.1531 223.495 27.4682L214.651 36.3121L210.942 32.6034L198.39 32.0328L198.389 32.0327L147.609 82.8133L147.609 82.8132C144.773 79.9771 140.174 79.9771 137.338 82.8132L82.5635 137.588Z" fill="#3F4550"/>
<path d="M82.5637 147.858L87.6988 152.993L92.8339 147.858L87.6988 142.723L82.5637 147.858ZM31.7827 198.639L26.6475 193.504L21.5124 198.639L26.6475 203.774L31.7827 198.639ZM31.7831 198.64L38.9918 197.761L38.6887 195.275L36.9182 193.505L31.7831 198.64ZM33.2094 210.336L26.0007 211.215L26.3038 213.701L28.0743 215.471L33.2094 210.336ZM36.918 214.045L42.0531 219.18L47.1882 214.045L42.0531 208.91L36.918 214.045ZM36.3472 214.615L31.2121 209.48L31.2034 209.489L31.1947 209.498L36.3472 214.615ZM36.3117 214.651L41.4468 219.786L41.4555 219.778L41.4642 219.769L36.3117 214.651ZM131.062 308.189L136.197 303.054L131.062 297.919L125.927 303.054L131.062 308.189ZM133.915 311.042L128.78 316.177L130.384 317.781L132.616 318.187L133.915 311.042ZM146.467 313.324L148.734 306.425L148.259 306.268L147.766 306.179L146.467 313.324ZM146.468 313.324L144.201 320.224L148.445 321.618L151.603 318.459L146.468 313.324ZM197.249 262.543L202.384 257.408L197.249 252.273L192.113 257.408L197.249 262.543ZM262.294 197.498L257.158 192.363L252.023 197.498L257.158 202.633L262.294 197.498ZM313.074 146.718L318.209 151.853L320.663 149.399L320.296 145.949L313.074 146.718ZM311.648 133.309L318.869 132.541L318.598 129.989L316.783 128.174L311.648 133.309ZM308.795 130.456L303.66 125.321L298.525 130.456L303.66 135.591L308.795 130.456ZM317.639 121.612L322.774 126.747L322.774 126.747L317.639 121.612ZM317.639 120.471L312.504 125.606L317.639 120.471ZM224.636 27.4682L229.771 22.333L224.636 27.4682ZM214.651 36.3121L209.516 41.4472L214.651 46.5823L219.786 41.4472L214.651 36.3121ZM210.942 32.6034L216.077 27.4683L214.086 25.4766L211.272 25.3487L210.942 32.6034ZM198.39 32.0328L196.725 39.1017L197.384 39.2568L198.06 39.2875L198.39 32.0328ZM198.389 32.0327L200.054 24.9639L196.115 24.0364L193.254 26.8976L198.389 32.0327ZM147.609 82.8133L142.474 87.9484L147.609 93.0836L152.744 87.9484L147.609 82.8133ZM147.609 82.8132L142.473 87.9483L147.609 82.8132ZM87.6987 142.723L87.6987 142.723L77.4284 132.453C71.7563 138.125 71.7563 147.321 77.4284 152.993L87.6987 142.723ZM87.6988 142.723L87.6987 142.723L77.4284 152.993L77.4285 152.993L87.6988 142.723ZM77.4285 142.723L26.6475 193.504L36.9178 203.774L87.6988 152.993L77.4285 142.723ZM26.6475 203.774L26.6479 203.775L36.9182 193.505L36.9178 193.504L26.6475 203.774ZM24.5743 199.519L26.0007 211.215L40.4182 209.457L38.9918 197.761L24.5743 199.519ZM28.0743 215.471L31.7828 219.18L42.0531 208.91L38.3446 205.201L28.0743 215.471ZM31.7828 208.91L31.2121 209.48L41.4824 219.751L42.0531 219.18L31.7828 208.91ZM31.1947 209.498L31.1591 209.534L41.4642 219.769L41.4998 219.733L31.1947 209.498ZM31.1765 209.516L22.0833 218.609L32.3536 228.88L41.4468 219.786L31.1765 209.516ZM22.0833 218.609C18.9321 221.761 18.9322 226.87 22.0833 230.021L32.3536 219.75C34.8745 222.271 34.8746 226.359 32.3536 228.88L22.0833 218.609ZM22.0833 230.021L115.086 323.024L125.357 312.753L32.3536 219.75L22.0833 230.021ZM115.086 323.024C118.237 326.175 123.347 326.175 126.498 323.024L116.227 312.753C118.748 310.232 122.836 310.233 125.357 312.753L115.086 323.024ZM126.498 323.024L136.197 313.324L125.927 303.054L116.227 312.753L126.498 323.024ZM125.927 313.324L128.78 316.177L139.05 305.907L136.197 303.054L125.927 313.324ZM132.616 318.187L145.168 320.469L147.766 306.179L135.214 303.897L132.616 318.187ZM144.201 320.223L144.201 320.224L148.734 306.425L148.734 306.425L144.201 320.223ZM151.603 318.459L202.384 267.678L192.113 257.408L141.333 308.189L151.603 318.459ZM205.807 260.831L202.384 257.408L192.113 267.678L195.536 271.101L205.807 260.831ZM205.807 260.831H205.807L195.536 271.101C201.209 276.774 210.405 276.774 216.077 271.101L205.807 260.831ZM260.582 206.056L205.807 260.831L216.077 271.101L270.852 216.327L260.582 206.056ZM260.582 206.056V206.056L270.852 216.327C276.524 210.655 276.524 201.458 270.852 195.786L260.582 206.056ZM257.158 202.633L260.582 206.056L270.852 195.786L267.429 192.363L257.158 202.633ZM267.429 202.633L318.209 151.853L307.939 141.582L257.158 192.363L267.429 202.633ZM320.296 145.949L318.869 132.541L304.426 134.077L305.853 147.486L320.296 145.949ZM316.783 128.174L313.93 125.321L303.66 135.591L306.513 138.444L316.783 128.174ZM313.93 135.591L322.774 126.747L312.504 116.477L303.66 125.321L313.93 135.591ZM322.774 126.747C325.925 123.596 325.925 118.487 322.774 115.336L312.504 125.606C309.983 123.085 309.983 118.998 312.504 116.477L322.774 126.747ZM322.774 115.336L229.771 22.333L219.501 32.6033L312.504 125.606L322.774 115.336ZM229.771 22.333C226.62 19.1818 221.511 19.1819 218.36 22.333L228.63 32.6033C226.109 35.1242 222.022 35.1243 219.501 32.6033L229.771 22.333ZM218.36 22.333L209.516 31.1769L219.786 41.4472L228.63 32.6033L218.36 22.333ZM219.786 31.1769L216.077 27.4683L205.807 37.7386L209.516 41.4472L219.786 31.1769ZM211.272 25.3487L198.719 24.7782L198.06 39.2875L210.612 39.8581L211.272 25.3487ZM200.054 24.964L200.054 24.9639L196.725 39.1016L196.725 39.1017L200.054 24.964ZM193.254 26.8976L142.474 77.6782L152.744 87.9484L203.524 37.1679L193.254 26.8976ZM142.473 87.9483L142.474 87.9484L152.744 77.6782L152.744 77.678L142.473 87.9483ZM142.473 87.9483L142.473 87.9483L152.744 77.678C147.072 72.0059 137.875 72.0059 132.203 77.678L142.473 87.9483ZM87.6987 142.723L142.473 87.9483L132.203 77.678L77.4284 132.453L87.6987 142.723Z" fill="#200707" mask="url(#path-3-outside-2_147_103)"/>
<rect x="88.8394" y="131.312" width="59.7112" height="187.203" transform="rotate(-45 88.8394 131.312)" fill="#3F4550"/>
<rect x="241.83" y="204.649" width="338.185" height="53.3338" rx="26.6669" transform="rotate(45 241.83 204.649)" fill="#332525"/>
<rect x="240.972" y="222.648" width="338.185" height="26.6669" rx="13.3334" transform="rotate(45 240.972 222.648)" fill="#472E2E"/>
<path d="M58.0722 214.644L54.3557 193.274L178.219 69.4101L208.702 64.0148L228.928 59.7531L252.114 82.9397L237.593 97.4616L214.801 99.7274L112.293 202.235L93.3202 237.933L80.5067 250.746L59.2207 229.46L58.0722 214.644Z" fill="#5A6273"/>
</g>
<defs>
<clipPath id="clip0_147_103">
<rect width="500" height="500" fill="white" transform="translate(0.375 0.625)"/>
</clipPath>
</defs>
</svg>
