<svg width="501" height="501" viewBox="0 0 501 501" fill="none" xmlns="http://www.w3.org/2000/svg">
<path d="M377.783 439.078L316.943 373.646C306.994 376.707 285.031 383.059 276.766 383.978C268.501 384.896 253.425 396.605 246.92 402.344L207.89 397.753L201.003 366.759C209.804 365.611 228.553 363.315 233.145 363.315C237.736 363.315 248.068 348.775 252.659 341.504L260.695 327.729L89.6544 171.612L50.625 35.0093L183.784 91.2575V97.1249L187.228 94.7013L334.162 264.594L346.789 249.671L415.664 235.896L423.7 286.404C416.43 289.083 400.971 294.21 397.298 293.292C393.624 292.373 376.635 325.051 368.6 341.504L423.7 403.492L436.327 410.38L451.25 420.711L436.327 464.332L431.735 474.664L382.375 459.741L377.783 439.078Z" fill="#1C0D0D"/>
<rect x="308.964" y="354.656" width="45.2594" height="146.99" rx="22.6297" transform="rotate(-43.347 308.964 354.656)" fill="#332525"/>
<path d="M97.3563 165.352C97.6365 169.015 135.376 200.82 154.21 216.264C197.19 254.407 273.544 332.83 295.133 353.143L355.973 300.179L187.566 105.851L174.601 121.103L176.246 95.9968L56.3647 42.5896C58.1223 50.5141 97.006 160.774 97.3563 165.352Z" fill="#3F4550"/>
<path d="M112.101 171.748C112.343 174.922 146.017 202.408 162.823 215.754C201.168 248.722 273.579 316.508 292.837 334.067L333.014 293.292L192.876 119.989L171.157 130.287L166.565 123.399L160.094 96.7555L75.7109 65.4359C77.2656 72.3004 111.797 167.781 112.101 171.748Z" fill="#5A6273"/>
<path d="M187.228 187.683L196.411 158.985C205.594 163.194 224.65 171.841 227.405 172.76C230.16 173.678 245.389 206.815 252.659 223.268V238.191L220.517 193.422L187.228 187.683Z" fill="#5D6678"/>
<path d="M388.114 452.853V436.782L422.552 412.676L443.215 419.563V429.894C443.215 434.486 439.771 440.226 437.475 445.965C435.179 451.705 430.587 456.297 429.439 460.888C428.521 464.562 420.639 462.419 416.812 460.888L392.706 456.297L388.114 452.853Z" fill="#332525"/>
<path d="M305.464 369.055L335.31 366.759L361.712 342.652C366.304 334.234 375.717 316.939 376.635 315.102C377.553 313.266 388.497 296.735 393.854 288.7L414.516 282.96L408.777 242.783L347.937 258.854L324.978 282.96V296.735L313.499 311.658L299.724 321.99H274.47C270.643 328.112 262.531 340.816 260.695 342.652C258.858 344.489 242.328 359.489 234.292 366.759L212.482 369.055V395.457C220.135 395.839 236.588 396.375 241.18 395.457C245.772 394.538 260.695 385.125 267.582 380.534L305.464 369.055Z" fill="#332525"/>
<path d="M353.821 394.157C350.572 393.587 348.399 390.49 348.969 387.24L355.153 351.981C355.723 348.731 358.82 346.558 362.07 347.128V347.128C365.32 347.698 367.492 350.795 366.922 354.045L360.738 389.304C360.168 392.554 357.071 394.727 353.821 394.157V394.157Z" fill="#472E2E"/>
<path d="M372.188 417.115C368.938 416.545 366.766 413.449 367.336 410.199L373.52 374.939C374.09 371.689 377.187 369.517 380.436 370.086V370.086C383.686 370.656 385.859 373.753 385.289 377.003L379.105 412.263C378.535 415.513 375.438 417.685 372.188 417.115V417.115Z" fill="#472E2E"/>
<path d="M395.147 437.778C391.897 437.208 389.724 434.111 390.294 430.861L396.478 395.601C397.048 392.352 400.145 390.179 403.395 390.749V390.749C406.645 391.319 408.817 394.416 408.247 397.666L402.063 432.925C401.493 436.175 398.397 438.348 395.147 437.778V437.778Z" fill="#472E2E"/>
<rect x="326.571" y="359.871" width="60.015" height="11.9485" rx="5.97427" transform="rotate(7.65996 326.571 359.871)" fill="#472E2E"/>
<rect x="349.53" y="385.125" width="60.015" height="11.9485" rx="5.97427" transform="rotate(7.65996 349.53 385.125)" fill="#472E2E"/>
<rect x="367.896" y="405.788" width="52.8888" height="11.9485" rx="5.97427" transform="rotate(7.65996 367.896 405.788)" fill="#472E2E"/>
<path d="M265.286 264.594L228.553 248.523L251.511 279.516H265.286V264.594Z" fill="#5D6678"/>
<path d="M141.311 168.168L99.9854 144.062L105.725 163.576L119.5 168.168L157.381 199.162L159.677 212.937L213.63 263.446L222.813 242.783L209.038 217.529H189.523L179.192 198.014L141.311 168.168Z" fill="#5D6678"/>
<path d="M104.578 108.476L79.3232 64.8549H90.8025C93.5575 64.8549 104.195 74.0383 109.169 78.63L139.015 90.1092V94.7009L130.98 98.1447L104.578 108.476Z" fill="#5D6678"/>
<path d="M259.547 240.487L272.174 217.529L319.239 270.333L312.351 277.221H295.132C295.897 282.195 297.428 292.832 297.428 295.587C297.428 299.031 290.541 307.067 287.097 307.067H261.842L254.955 295.587L272.174 300.179L280.209 279.517V261.15L261.842 254.262L248.067 245.079H257.251L259.547 240.487Z" fill="#5D6678"/>
</svg>
