<svg width="501" height="501" viewBox="0 0 501 501" fill="none" xmlns="http://www.w3.org/2000/svg">
<path d="M259.012 37.723L396.925 94.8483C401.895 96.9069 405.843 100.855 407.902 105.825L465.027 243.738C467.086 248.708 467.086 254.292 465.027 259.262L407.902 397.175C405.843 402.145 401.895 406.093 396.925 408.152L259.012 465.277C254.042 467.336 248.458 467.336 243.488 465.277L105.575 408.152C100.605 406.093 96.6569 402.145 94.5983 397.175L37.473 259.262C35.4144 254.292 35.4144 248.708 37.473 243.738L94.5983 105.825C96.6569 100.855 100.605 96.9069 105.575 94.8483L243.488 37.723C248.458 35.6644 254.042 35.6644 259.012 37.723Z" fill="#3F4550" stroke="#373F48" stroke-width="27.5"/>
<path d="M247.965 85.9365C248.97 85.5769 250.069 85.5769 251.074 85.9365L356.576 123.681C357.595 124.045 358.453 124.756 359.001 125.689L415.091 221.182C415.649 222.131 415.849 223.249 415.654 224.334L396.18 332.892C395.987 333.969 395.418 334.941 394.574 335.637L308.601 406.546C307.774 407.228 306.736 407.601 305.665 407.601H193.374C192.303 407.601 191.265 407.228 190.438 406.546L104.465 335.637C103.621 334.941 103.052 333.969 102.859 332.892L83.385 224.334C83.1905 223.249 83.3903 222.131 83.9481 221.182L140.038 125.689C140.586 124.756 141.444 124.045 142.463 123.681L247.965 85.9365Z" fill="#5D6678"/>
<path d="M205.682 223.236L248.943 85.3804L140.504 124.603L82.8232 223.236L103.588 335.136L205.682 223.236Z" fill="#5A6273"/>
<path d="M396.028 333.983L251.827 294.76C251.827 294.76 108.664 333.983 105.896 333.983C103.127 333.983 161.653 382.05 191.263 406.083H308.354L396.028 333.983Z" fill="#525B6D"/>
<path d="M259.012 37.723L396.925 94.8483C401.895 96.9069 405.843 100.855 407.902 105.825L465.027 243.738C467.086 248.708 467.086 254.292 465.027 259.262L407.902 397.175C405.843 402.145 401.895 406.093 396.925 408.152L259.012 465.277C254.042 467.336 248.458 467.336 243.488 465.277L105.575 408.152C100.605 406.093 96.6569 402.145 94.5983 397.175L37.473 259.262C35.4144 254.292 35.4144 248.708 37.473 243.738L94.5983 105.825C96.6569 100.855 100.605 96.9069 105.575 94.8483L243.488 37.723C248.458 35.6644 254.042 35.6644 259.012 37.723Z" fill="#3F4550" stroke="#373F48" stroke-width="27.5"/>
<path d="M247.965 85.9365C248.97 85.5769 250.069 85.5769 251.074 85.9365L356.576 123.681C357.595 124.045 358.453 124.756 359.001 125.689L415.091 221.182C415.649 222.131 415.849 223.249 415.654 224.334L396.18 332.892C395.987 333.969 395.418 334.941 394.574 335.637L308.601 406.546C307.774 407.228 306.736 407.601 305.665 407.601H193.374C192.303 407.601 191.265 407.228 190.438 406.546L104.465 335.637C103.621 334.941 103.052 333.969 102.859 332.892L83.385 224.334C83.1905 223.249 83.3903 222.131 83.9481 221.182L140.038 125.689C140.586 124.756 141.444 124.045 142.463 123.681L247.965 85.9365Z" fill="#5D6678"/>
<path d="M205.682 223.236L248.943 85.3804L140.504 124.603L82.8232 223.236L103.588 335.136L205.682 223.236Z" fill="#5A6273"/>
<path d="M396.028 333.983L251.827 294.76C251.827 294.76 108.664 333.983 105.896 333.983C103.127 333.983 161.653 382.05 191.263 406.083H308.354L396.028 333.983Z" fill="#525B6D"/>
</svg>
