<svg width="1001" height="1001" viewBox="0 0 1001 1001" fill="none" xmlns="http://www.w3.org/2000/svg">
<path d="M464.102 52.4124C486.767 43.0242 512.233 43.0242 534.898 52.4124L792.023 158.917C814.688 168.305 832.695 186.312 842.083 208.977L948.588 466.102C957.976 488.767 957.976 514.233 948.588 536.898L842.083 794.023C832.695 816.688 814.688 834.695 792.023 844.083L534.898 950.588C512.233 959.976 486.767 959.976 464.102 950.588L206.977 844.083C184.312 834.695 166.305 816.688 156.917 794.023L50.4124 536.898C41.0242 514.233 41.0242 488.767 50.4124 466.102L156.917 208.977C166.305 186.312 184.312 168.305 206.977 158.917L464.102 52.4124Z" fill="#3F4550"/>
<path d="M480.366 213.176C492.617 208.101 506.383 208.101 518.634 213.176L689.846 284.094C702.098 289.169 711.831 298.902 716.906 311.154L787.824 482.366C792.899 494.617 792.899 508.383 787.824 520.634L716.906 691.846C711.831 704.098 702.098 713.831 689.846 718.906L518.634 789.824C506.383 794.899 492.617 794.899 480.366 789.824L309.154 718.906C296.902 713.831 287.169 704.098 282.094 691.846L211.176 520.634C206.101 508.383 206.101 494.617 211.176 482.366L282.094 311.154C287.169 298.902 296.902 289.169 309.154 284.094L480.366 213.176Z" fill="#49505D"/>
<path d="M464.102 52.4124C486.767 43.0242 512.233 43.0242 534.898 52.4124L792.023 158.917C814.688 168.305 832.695 186.312 842.083 208.977L948.588 466.102C957.976 488.767 957.976 514.233 948.588 536.898L842.083 794.023C832.695 816.688 814.688 834.695 792.023 844.083L534.898 950.588C512.233 959.976 486.767 959.976 464.102 950.588L206.977 844.083C184.312 834.695 166.305 816.688 156.917 794.023L50.4124 536.898C41.0242 514.233 41.0242 488.767 50.4124 466.102L156.917 208.977C166.305 186.312 184.312 168.305 206.977 158.917L464.102 52.4124Z" fill="#3F4550"/>
<path d="M480.366 213.176C492.617 208.101 506.383 208.101 518.634 213.176L689.846 284.094C702.098 289.169 711.831 298.902 716.906 311.154L787.824 482.366C792.899 494.617 792.899 508.383 787.824 520.634L716.906 691.846C711.831 704.098 702.098 713.831 689.846 718.906L518.634 789.824C506.383 794.899 492.617 794.899 480.366 789.824L309.154 718.906C296.902 713.831 287.169 704.098 282.094 691.846L211.176 520.634C206.101 508.383 206.101 494.617 211.176 482.366L282.094 311.154C287.169 298.902 296.902 289.169 309.154 284.094L480.366 213.176Z" fill="#49505D"/>
</svg>
