<svg width="400" height="400" viewBox="0 0 400 400" fill="none" xmlns="http://www.w3.org/2000/svg">
<path d="M209.506 22.7263L319.836 68.4265C325.603 70.8151 330.185 75.3968 332.574 81.1635L378.274 191.494C380.662 197.26 380.662 203.74 378.274 209.506L332.574 319.836C330.185 325.603 325.603 330.185 319.836 332.574L209.506 378.274C203.74 380.662 197.26 380.662 191.494 378.274L81.1635 332.574C75.3968 330.185 70.8151 325.603 68.4265 319.836L22.7263 209.506C20.3376 203.74 20.3376 197.26 22.7263 191.494L68.4265 81.1635C70.8151 75.3968 75.3968 70.8151 81.1635 68.4265L191.494 22.7263C197.26 20.3376 203.74 20.3376 209.506 22.7263Z" fill="#3F4550" stroke="#272727" stroke-width="7.38308"/>
<path d="M197.872 68.0494C198.676 67.7617 199.555 67.7617 200.359 68.0494L284.761 98.2449C285.576 98.5364 286.262 99.1049 286.701 99.8511L331.573 176.246C332.019 177.005 332.179 177.9 332.023 178.767L316.444 265.614C316.289 266.475 315.834 267.253 315.159 267.81L246.381 324.537C245.719 325.083 244.889 325.381 244.032 325.381H154.199C153.342 325.381 152.512 325.083 151.851 324.537L83.072 267.81C82.3971 267.253 81.9418 266.475 81.7873 265.614L66.208 178.767C66.0524 177.9 66.2122 177.005 66.6585 176.246L111.531 99.8511C111.969 99.1049 112.655 98.5364 113.47 98.2449L197.872 68.0494Z" fill="#5D6678"/>
<path d="M164.046 177.889L198.654 67.6045L111.903 98.9826L65.7588 177.889L82.3707 267.409L164.046 177.889Z" fill="#5A6273"/>
<path d="M316.322 266.486L200.961 235.108C200.961 235.108 86.4314 266.486 84.2165 266.486C82.0016 266.486 128.823 304.94 152.51 324.167H246.183L316.322 266.486Z" fill="#525B6D"/>
</svg>
