<svg width="1001" height="1001" viewBox="0 0 1001 1001" fill="none" xmlns="http://www.w3.org/2000/svg">
<g clip-path="url(#clip0_147_103)">
<mask id="path-1-outside-1_147_103" maskUnits="userSpaceOnUse" x="113.744" y="114.256" width="921.36" height="921.36" fill="black">
<rect fill="white" x="113.744" y="114.256" width="921.36" height="921.36"/>
<path fill-rule="evenodd" clip-rule="evenodd" d="M260.482 185.668C239.685 164.87 205.965 164.87 185.167 185.668C164.369 206.466 164.369 240.186 185.167 260.983L337.454 413.271C338.493 429.934 345.38 446.301 358.114 459.035L398.356 499.277C411.09 512.011 427.457 518.898 444.12 519.937L888.11 963.926C908.908 984.724 942.628 984.724 963.425 963.926C984.223 943.129 984.223 909.409 963.425 888.611L519.436 444.622C518.397 427.958 511.51 411.591 498.776 398.857L458.534 358.614C445.8 345.88 429.433 338.994 412.769 337.955L260.482 185.668Z"/>
</mask>
<path fill-rule="evenodd" clip-rule="evenodd" d="M260.482 185.668C239.685 164.87 205.965 164.87 185.167 185.668C164.369 206.466 164.369 240.186 185.167 260.983L337.454 413.271C338.493 429.934 345.38 446.301 358.114 459.035L398.356 499.277C411.09 512.011 427.457 518.898 444.12 519.937L888.11 963.926C908.908 984.724 942.628 984.724 963.425 963.926C984.223 943.129 984.223 909.409 963.425 888.611L519.436 444.622C518.397 427.958 511.51 411.591 498.776 398.857L458.534 358.614C445.8 345.88 429.433 338.994 412.769 337.955L260.482 185.668Z" fill="#332525"/>
<path d="M185.167 185.668L195.437 195.938L185.167 185.668ZM260.482 185.668L250.212 195.938L250.212 195.938L260.482 185.668ZM185.167 260.983L195.437 250.713L195.437 250.713L185.167 260.983ZM337.454 413.271L351.95 412.367L351.609 406.884L347.725 403L337.454 413.271ZM358.114 459.035L347.843 469.305L358.114 459.035ZM398.356 499.277L408.626 489.007L398.356 499.277ZM444.12 519.937L454.391 509.666L450.507 505.782L445.024 505.44L444.12 519.937ZM888.11 963.926L898.38 953.656L898.38 953.656L888.11 963.926ZM963.425 888.611L953.155 898.881L953.155 898.881L963.425 888.611ZM519.436 444.622L504.94 445.525L505.281 451.008L509.166 454.892L519.436 444.622ZM498.776 398.857L488.506 409.127L488.506 409.127L498.776 398.857ZM458.534 358.614L468.804 348.344L468.804 348.344L458.534 358.614ZM412.769 337.955L402.499 348.225L406.383 352.11L411.866 352.451L412.769 337.955ZM195.437 195.938C210.563 180.813 235.087 180.813 250.212 195.938L270.753 175.398C244.283 148.928 201.367 148.928 174.897 175.398L195.437 195.938ZM195.437 250.713C180.312 235.588 180.312 211.064 195.437 195.938L174.897 175.398C148.427 201.868 148.427 244.784 174.897 271.254L195.437 250.713ZM347.725 403L195.437 250.713L174.897 271.254L327.184 423.541L347.725 403ZM368.384 448.765C358.248 438.628 352.778 425.633 351.95 412.367L322.958 414.174C324.209 434.235 332.512 453.974 347.843 469.305L368.384 448.765ZM408.626 489.007L368.384 448.765L347.843 469.305L388.086 509.548L408.626 489.007ZM445.024 505.44C431.758 504.613 418.763 499.143 408.626 489.007L388.086 509.548C403.417 524.879 423.156 533.182 443.216 534.433L445.024 505.44ZM898.38 953.656L454.391 509.666L433.85 530.207L877.84 974.197L898.38 953.656ZM953.155 953.656C938.029 968.782 913.506 968.782 898.38 953.656L877.84 974.197C904.31 1000.67 947.226 1000.67 973.696 974.197L953.155 953.656ZM953.155 898.881C968.281 914.007 968.281 938.53 953.155 953.656L973.696 974.197C1000.17 947.727 1000.17 904.811 973.696 878.341L953.155 898.881ZM509.166 454.892L953.155 898.881L973.696 878.341L529.706 434.351L509.166 454.892ZM488.506 409.127C498.642 419.263 504.112 432.259 504.94 445.525L533.932 443.718C532.681 423.657 524.378 403.918 509.047 388.587L488.506 409.127ZM448.264 368.885L488.506 409.127L509.047 388.587L468.804 348.344L448.264 368.885ZM411.866 352.451C425.132 353.278 438.127 358.748 448.264 368.885L468.804 348.344C453.473 333.013 433.733 324.71 413.673 323.459L411.866 352.451ZM250.212 195.938L402.499 348.225L423.04 327.685L270.753 175.398L250.212 195.938Z" fill="#200707" mask="url(#path-1-outside-1_147_103)"/>
<mask id="path-3-outside-2_147_103" maskUnits="userSpaceOnUse" x="0.772148" y="1.53982" width="693.672" height="693.672" fill="black">
<rect fill="white" x="0.772148" y="1.53982" width="693.672" height="693.672"/>
<path fill-rule="evenodd" clip-rule="evenodd" d="M164.628 274.676C158.956 280.348 158.956 289.544 164.628 295.216L164.628 295.217L63.0664 396.779L63.067 396.779L65.9198 420.172L73.337 427.589L72.1957 428.731L72.139 428.788L53.9378 446.989C53.3076 447.619 53.3076 448.641 53.9378 449.271L239.944 635.277C240.574 635.907 241.596 635.907 242.226 635.277L261.625 615.878L267.331 621.584L292.436 626.148L292.436 626.148L393.998 524.586L400.844 531.432C406.517 537.105 415.713 537.105 421.385 531.432L530.934 421.883C536.607 416.211 536.607 407.015 530.934 401.342L524.088 394.496L625.649 292.935L622.797 266.118L617.091 260.412L634.779 242.725C635.409 242.094 635.409 241.072 634.779 240.442L448.773 54.4363C448.142 53.806 447.121 53.806 446.49 54.4362L428.803 72.124L421.385 64.7066L396.28 63.5655L396.28 63.5654L294.719 165.126L294.718 165.126C289.046 159.454 279.85 159.454 274.178 165.126L164.628 274.676Z"/>
</mask>
<path fill-rule="evenodd" clip-rule="evenodd" d="M164.628 274.676C158.956 280.348 158.956 289.544 164.628 295.216L164.628 295.217L63.0664 396.779L63.067 396.779L65.9198 420.172L73.337 427.589L72.1957 428.731L72.139 428.788L53.9378 446.989C53.3076 447.619 53.3076 448.641 53.9378 449.271L239.944 635.277C240.574 635.907 241.596 635.907 242.226 635.277L261.625 615.878L267.331 621.584L292.436 626.148L292.436 626.148L393.998 524.586L400.844 531.432C406.517 537.105 415.713 537.105 421.385 531.432L530.934 421.883C536.607 416.211 536.607 407.015 530.934 401.342L524.088 394.496L625.649 292.935L622.797 266.118L617.091 260.412L634.779 242.725C635.409 242.094 635.409 241.072 634.779 240.442L448.773 54.4363C448.142 53.806 447.121 53.806 446.49 54.4362L428.803 72.124L421.385 64.7066L396.28 63.5655L396.28 63.5654L294.719 165.126L294.718 165.126C289.046 159.454 279.85 159.454 274.178 165.126L164.628 274.676Z" fill="#3F4550"/>
<path d="M164.628 295.216L174.898 284.946L164.628 295.216ZM164.628 295.217L174.899 305.487L185.169 295.217L174.899 284.946L164.628 295.217ZM63.0664 396.779L52.7962 386.508L42.5259 396.779L52.7962 407.049L63.0664 396.779ZM63.067 396.779L77.4845 395.021L76.8783 390.05L73.3373 386.509L63.067 396.779ZM65.9198 420.172L51.5022 421.93L52.1085 426.901L55.6495 430.442L65.9198 420.172ZM73.337 427.589L83.6072 437.86L93.8775 427.589L83.6072 417.319L73.337 427.589ZM72.1957 428.731L61.9254 418.46L61.9115 418.474L61.8976 418.488L72.1957 428.731ZM72.139 428.788L82.4093 439.058L82.4232 439.044L82.437 439.03L72.139 428.788ZM53.9378 446.989L43.6675 436.719L53.9378 446.989ZM242.226 635.277L252.496 645.547L252.496 645.547L242.226 635.277ZM261.625 615.878L271.896 605.607L261.625 595.337L251.355 605.607L261.625 615.878ZM267.331 621.584L257.061 631.854L260.269 635.062L264.733 635.874L267.331 621.584ZM292.436 626.148L295.702 611.996L295.369 611.919L295.034 611.858L292.436 626.148ZM292.436 626.148L289.17 640.3L297.014 642.111L302.707 636.418L292.436 626.148ZM393.998 524.586L404.268 514.316L393.998 504.046L383.728 514.316L393.998 524.586ZM524.088 394.496L513.818 384.226L503.548 394.496L513.818 404.766L524.088 394.496ZM625.649 292.935L635.92 303.205L640.826 298.299L640.092 291.398L625.649 292.935ZM622.797 266.118L637.24 264.582L636.697 259.477L633.067 255.848L622.797 266.118ZM617.091 260.412L606.821 250.142L596.55 260.412L606.821 270.682L617.091 260.412ZM634.779 242.725L645.049 252.995L645.049 252.995L634.779 242.725ZM634.779 240.442L624.508 250.713L634.779 240.442ZM448.773 54.4363L459.043 44.166L448.773 54.4363ZM428.803 72.124L418.532 82.3942L428.803 92.6645L439.073 82.3942L428.803 72.124ZM421.385 64.7066L431.656 54.4363L427.672 50.453L422.045 50.1972L421.385 64.7066ZM396.28 63.5655L393.832 77.8821L394.72 78.034L395.621 78.0749L396.28 63.5655ZM396.28 63.5654L398.728 49.2488L391.322 47.9826L386.009 53.2952L396.28 63.5654ZM294.719 165.126L284.448 175.397L294.719 185.667L304.989 175.397L294.719 165.126ZM294.718 165.126L304.989 154.856L294.718 165.126ZM174.898 284.946L174.898 284.946L154.358 264.405C143.014 275.75 143.014 294.142 154.358 305.487L174.898 284.946ZM174.899 284.946L174.898 284.946L154.358 305.487L154.358 305.487L174.899 284.946ZM154.358 284.946L52.7962 386.508L73.3367 407.049L174.899 305.487L154.358 284.946ZM52.7962 407.049L52.7967 407.049L73.3373 386.509L73.3367 386.508L52.7962 407.049ZM48.6494 398.537L51.5022 421.93L80.3373 418.414L77.4845 395.021L48.6494 398.537ZM55.6495 430.442L63.0667 437.86L83.6072 417.319L76.1901 409.902L55.6495 430.442ZM63.0667 417.319L61.9254 418.46L82.4659 439.001L83.6072 437.86L63.0667 417.319ZM61.8976 418.488L61.841 418.545L82.437 439.03L82.4937 438.973L61.8976 418.488ZM61.8687 418.517L43.6675 436.719L64.2081 457.259L82.4093 439.058L61.8687 418.517ZM43.6675 436.719C37.3651 443.021 37.3653 453.239 43.6675 459.541L64.2081 439.001C69.2498 444.043 69.2501 452.217 64.2081 457.259L43.6675 436.719ZM43.6675 459.541L229.674 645.547L250.214 625.007L64.2081 439.001L43.6675 459.541ZM229.674 645.547C235.976 651.85 246.194 651.85 252.496 645.547L231.956 625.007C236.998 619.965 245.172 619.965 250.214 625.007L229.674 645.547ZM252.496 645.547L271.896 626.148L251.355 605.607L231.956 625.007L252.496 645.547ZM251.355 626.148L257.061 631.854L277.601 611.313L271.896 605.607L251.355 626.148ZM264.733 635.874L289.838 640.438L295.034 611.858L269.929 607.293L264.733 635.874ZM289.17 640.3L289.17 640.3L295.702 611.996L295.702 611.996L289.17 640.3ZM302.707 636.418L404.268 534.856L383.728 514.316L282.166 615.878L302.707 636.418ZM411.115 521.162L404.268 514.316L383.728 534.856L390.574 541.703L411.115 521.162ZM411.115 521.162H411.115L390.574 541.703C401.918 553.047 420.311 553.047 431.655 541.703L411.115 521.162ZM520.664 411.613L411.115 521.162L431.655 541.703L541.205 432.153L520.664 411.613ZM520.664 411.613V411.613L541.205 432.153C552.549 420.809 552.549 402.416 541.205 391.072L520.664 411.613ZM513.818 404.766L520.664 411.613L541.205 391.072L534.358 384.226L513.818 404.766ZM534.358 404.766L635.92 303.205L615.379 282.665L513.818 384.226L534.358 404.766ZM640.092 291.398L637.24 264.582L608.354 267.654L611.207 294.471L640.092 291.398ZM633.067 255.848L627.361 250.142L606.821 270.682L612.526 276.388L633.067 255.848ZM627.361 270.682L645.049 252.995L624.508 232.454L606.821 250.142L627.361 270.682ZM645.049 252.995C651.352 246.692 651.351 236.474 645.049 230.172L624.508 250.713C619.467 245.671 619.466 237.497 624.508 232.454L645.049 252.995ZM645.049 230.172L459.043 44.166L438.502 64.7065L624.508 250.713L645.049 230.172ZM459.043 44.166C452.741 37.8638 442.523 37.8635 436.22 44.166L456.761 64.7065C451.719 69.7486 443.544 69.7482 438.502 64.7065L459.043 44.166ZM436.22 44.166L418.532 61.8537L439.073 82.3942L456.761 64.7065L436.22 44.166ZM439.073 61.8537L431.656 54.4363L411.115 74.9769L418.532 82.3942L439.073 61.8537ZM422.045 50.1972L396.94 49.0561L395.621 78.0749L420.726 79.216L422.045 50.1972ZM398.728 49.2489L398.728 49.2488L393.832 77.882L393.832 77.8821L398.728 49.2489ZM386.009 53.2952L284.448 154.856L304.989 175.397L406.55 73.8357L386.009 53.2952ZM284.448 175.396L284.448 175.397L304.989 154.856L304.989 154.856L284.448 175.396ZM284.448 175.396L284.448 175.396L304.989 154.856C293.644 143.512 275.252 143.512 263.907 154.856L284.448 175.396ZM174.898 284.946L284.448 175.396L263.907 154.856L154.358 264.405L174.898 284.946Z" fill="#200707" mask="url(#path-3-outside-2_147_103)"/>
<rect x="177.179" y="262.124" width="119.422" height="374.406" transform="rotate(-45 177.179 262.124)" fill="#3F4550"/>
<rect x="483.159" y="408.798" width="676.37" height="106.668" rx="53.3338" transform="rotate(45 483.159 408.798)" fill="#332525"/>
<rect x="481.444" y="444.796" width="676.37" height="53.3338" rx="26.6669" transform="rotate(45 481.444 444.796)" fill="#472E2E"/>
<path d="M115.644 428.789L108.211 386.047L355.938 138.32L416.903 127.53L457.356 119.006L503.729 165.38L474.685 194.424L429.102 198.955L224.086 403.971L186.14 475.366L160.513 500.993L117.941 458.421L115.644 428.789Z" fill="#5A6273"/>
</g>
<defs>
<clipPath id="clip0_147_103">
<rect width="1000" height="1000" fill="white" transform="translate(0.25 0.75)"/>
</clipPath>
</defs>
</svg>
