<svg width="400" height="400" viewBox="0 0 400 400" fill="none" xmlns="http://www.w3.org/2000/svg">
<path d="M200 40L302.846 77.4329L357.569 172.216L338.564 280L254.723 350.351H145.277L61.4359 280L42.4308 172.216L97.154 77.4329L200 40Z" fill="#273041"/>
<path d="M200 50.9317L295.819 85.8071L346.804 174.115L329.097 274.534L250.984 340.078H149.016L70.903 274.534L53.1963 174.115L104.181 85.8071L200 50.9317Z" fill="#3F4550"/>
<path d="M200 79.2546L277.614 107.504L318.911 179.033L304.569 260.373L241.297 313.464H158.703L95.4314 260.373L81.089 179.033L122.386 107.504L200 79.2546Z" fill="#525B6D"/>
<path d="M200 120.248L251.263 138.907L278.54 186.151L269.067 239.876L227.277 274.942H172.723L130.933 239.876L121.46 186.151L148.737 138.907L200 120.248Z" fill="#5A6273"/>
<path d="M200 150.062L232.099 161.745L249.179 191.328L243.248 224.969L217.08 246.926H182.92L156.753 224.969L150.821 191.328L167.901 161.745L200 150.062Z" fill="#5D6678"/>
</svg>
