<svg width="400" height="400" viewBox="0 0 400 400" fill="none" xmlns="http://www.w3.org/2000/svg">
<g clip-path="url(#clip0_17_181)">
<circle cx="227.535" cy="193.565" r="144.904" transform="rotate(-90.6746 227.535 193.565)" fill="#442424"/>
<path d="M345.64 364.258L286.927 342.719L249.619 320.927L203.139 359.349L164.688 380.386L115.554 403.196L115.128 366.973L143.419 322.177L139.161 300.666L36.4234 255.92L1.78841 251.388L1.19714 201.169L35.774 200.762C53.3369 200.555 101.615 156.348 106.884 156.286C112.153 156.224 135.895 172.687 153.025 159.036C145.17 121.254 112.627 154.572 112.356 131.521C112.084 108.469 100.781 34.2244 94.6499 26.3373L126.517 -0.385827L151.542 33.0778L218.488 54.5207L218.556 60.2835L258.004 54.0554L304.93 53.5029L327.109 49.1249L360.485 16.6204L380.969 8.1455L396.224 45.0176L381.9 87.1783L371.189 156.468L354.085 242.3L362.763 280.073L354.909 312.277L367.665 346.708L345.64 364.258Z" fill="#442424"/>
<ellipse cx="217.685" cy="196.151" rx="93.858" ry="94.6813" transform="rotate(-90.6746 217.685 196.151)" fill="#543838"/>
<path d="M312.841 306.179L274.593 292.202L250.289 278.061L220.009 302.997L194.959 316.651L162.95 331.455L162.673 307.947L181.105 278.875L178.332 264.915L111.404 235.879L88.8414 232.938L88.4577 200.348L110.983 200.082C122.424 199.948 153.876 171.257 157.309 171.216C160.741 171.176 176.208 181.859 187.368 173C182.251 148.48 161.05 170.103 160.874 155.144C160.698 140.184 153.337 92.0007 149.343 86.8823L170.104 69.5386L186.405 91.2551L230.016 105.169L230.06 108.909L255.759 104.866L286.329 104.506L300.778 101.664L322.522 80.5685L335.867 75.0679L345.803 98.9967L336.471 126.359L329.491 171.326L318.346 227.03L323.998 251.544L318.881 272.444L327.19 294.789L312.841 306.179Z" fill="#543838"/>
</g>
<defs>
<clipPath id="clip0_17_181">
<rect width="400" height="400" fill="white"/>
</clipPath>
</defs>
</svg>
