<svg width="400" height="400" viewBox="0 0 400 400" fill="none" xmlns="http://www.w3.org/2000/svg">
<g clip-path="url(#clip0_17_182)">
<circle cx="205.198" cy="185.505" r="132.956" transform="rotate(-90.6746 205.198 185.505)" fill="#442424"/>
<path d="M327.186 259.061L276.212 277.912L254.798 303.513L243.492 349.49L226.631 394.041L196.959 383.664L162.738 356.484L128.018 303.513L124.111 283.775L29.8443 242.719L-1.93505 238.56L-2.47757 192.482L29.2484 192.109C45.3631 191.919 89.6606 151.357 94.495 151.3C99.3295 151.243 121.114 166.348 136.832 153.823C129.624 119.156 99.7649 149.727 99.5159 128.576C99.2669 107.425 88.8953 39.3021 83.2699 32.0653L112.51 7.54557L135.471 38.2501L196.897 57.9249L196.959 63.2126L233.155 57.498L276.212 56.9911L296.563 52.9741L327.186 23.1496L345.982 15.3735L359.979 49.2055L346.836 87.8899L327.186 128.576L352.643 155.853L363.567 192.109L402.554 203.293L392.177 236.621L327.186 259.061Z" fill="#442424"/>
<path d="M286.608 240.347L251.905 253.18L237.327 270.609L229.63 301.909L218.151 332.239L197.951 325.174L174.654 306.671L151.017 270.609L148.357 257.172L84.1821 229.221L62.5473 226.39L62.1779 195.021L83.7764 194.766C94.7471 194.637 124.904 167.023 128.195 166.984C131.486 166.946 146.317 177.229 157.017 168.702C152.111 145.101 131.783 165.914 131.613 151.515C131.444 137.116 124.383 90.7384 120.553 85.8117L140.459 69.1191L156.091 90.0222L197.909 103.417L197.951 107.016L222.593 103.126L251.905 102.781L265.759 100.046L286.608 79.742L299.403 74.4482L308.932 97.4804L299.984 123.816L286.608 151.515L303.938 170.084L311.375 194.766L337.917 202.381L330.852 225.07L286.608 240.347Z" fill="#543838"/>
<ellipse cx="196.16" cy="187.877" rx="86.1192" ry="86.8747" transform="rotate(-90.6746 196.16 187.877)" fill="#543838"/>
</g>
<defs>
<clipPath id="clip0_17_182">
<rect width="400" height="400" fill="white"/>
</clipPath>
</defs>
</svg>
