<svg width="1001" height="1001" viewBox="0 0 1001 1001" fill="none" xmlns="http://www.w3.org/2000/svg">
<path d="M757.1 869.809L661.078 751.67C658.742 748.796 654.659 748.056 651.463 749.928L542.479 813.762C541.853 814.129 541.282 814.585 540.786 815.116L484.541 875.375C481.782 878.331 477.177 878.569 474.127 875.914L427.926 835.675C425.497 833.558 424.689 830.127 425.92 827.149L450.361 768.032C450.77 767.042 451.386 766.152 452.168 765.42L545.519 678.037C548.566 675.184 548.7 670.393 545.817 667.375L159.465 262.951C158.461 261.9 157.784 260.58 157.516 259.151L123.454 77.6721C122.322 71.6451 128.506 66.8797 134.046 69.509L333.292 164.075C334.383 164.593 335.334 165.367 336.062 166.332L650.676 582.935C653.112 586.16 657.665 586.877 660.974 584.555L771.753 506.819C772.8 506.084 774.019 505.629 775.292 505.497L831.163 499.731C833.68 499.471 836.159 500.498 837.756 502.462L875.702 549.148C878.565 552.671 877.669 557.91 873.797 560.28L799.566 605.725C798.939 606.109 798.372 606.583 797.882 607.132L720.389 694.07C717.939 696.818 717.846 700.938 720.168 703.796L816.185 821.929C816.637 822.485 817.167 822.974 817.758 823.38L871.126 860.057C873.138 861.44 874.352 863.715 874.379 866.157L875.075 928.367C875.122 932.608 871.648 936.046 867.408 935.953L790.264 934.271C787.34 934.207 784.719 932.45 783.55 929.769L758.155 871.542C757.884 870.919 757.529 870.336 757.1 869.809Z" fill="#DFDFDF"/>
</svg>
