<svg width="400" height="400" viewBox="0 0 400 400" fill="none" xmlns="http://www.w3.org/2000/svg">
<path d="M302.42 347.488L264.031 300.255C263.097 299.106 261.464 298.811 260.186 299.559L216.614 325.08C216.364 325.227 216.136 325.409 215.937 325.622L193.45 349.713C192.347 350.895 190.506 350.99 189.287 349.928L170.816 333.841C169.844 332.995 169.521 331.623 170.014 330.432L179.785 306.797C179.949 306.401 180.195 306.045 180.507 305.753L217.829 270.817C219.048 269.676 219.101 267.761 217.949 266.554L63.4839 104.864C63.0826 104.444 62.8118 103.916 62.7047 103.345L49.0866 30.7893C48.6343 28.3797 51.1065 26.4744 53.3214 27.5256L132.98 65.3333C133.417 65.5404 133.797 65.85 134.088 66.2356L259.872 232.795C260.846 234.084 262.666 234.371 263.989 233.442L308.278 202.363C308.697 202.07 309.184 201.888 309.694 201.835L332.031 199.529C333.037 199.426 334.028 199.836 334.667 200.621L349.837 219.287C350.982 220.695 350.624 222.79 349.076 223.737L319.398 241.906C319.147 242.06 318.921 242.249 318.725 242.469L287.743 277.227C286.764 278.326 286.726 279.973 287.655 281.115L326.042 328.345C326.223 328.568 326.435 328.763 326.671 328.925L348.008 343.589C348.813 344.142 349.298 345.052 349.309 346.028L349.587 370.9C349.606 372.595 348.217 373.969 346.522 373.932L315.679 373.26C314.51 373.234 313.462 372.532 312.995 371.46L302.842 348.181C302.733 347.932 302.592 347.698 302.42 347.488Z" fill="#DFDFDF"/>
</svg>