<svg width="500" height="501" viewBox="0 0 500 501" fill="none" xmlns="http://www.w3.org/2000/svg">
<path d="M318.376 377.986C318.338 377.786 318.371 377.578 318.47 377.399L382.946 260.289C383.038 260.122 383.181 259.99 383.354 259.911L423.283 241.828C423.67 241.653 423.877 241.228 423.776 240.816L413.563 199.087C413.515 198.893 413.535 198.689 413.619 198.507L424.221 175.628C424.242 175.584 424.258 175.539 424.271 175.492L429.596 156.185C429.638 156.033 429.639 155.873 429.598 155.722L424.336 136.16C424.162 135.514 423.359 135.289 422.876 135.752L394.79 162.615C394.541 162.853 394.176 162.925 393.856 162.798L221.493 94.5788C221.11 94.4272 220.673 94.5612 220.441 94.9015L42.8716 355.125C42.5472 355.601 42.7583 356.255 43.2995 356.451L249.579 431.139C249.63 431.158 249.679 431.181 249.726 431.208L272.676 444.683C273.036 444.895 273.497 444.824 273.777 444.513L290.586 425.837C290.644 425.772 290.711 425.717 290.786 425.672L323.081 406.191C323.396 406.001 323.56 405.635 323.492 405.274L318.376 377.986Z" fill="#8F7D62"/>
<path d="M45.5023 349.896C45.0687 349.74 44.8283 349.276 44.9508 348.832L51.9766 323.359C52.1138 322.862 52.6466 322.588 53.1306 322.766L264.905 400.73C265.028 400.775 265.137 400.848 265.237 400.934C267.008 402.464 274.925 405.857 275.96 411.11C276.983 416.3 272.283 426.189 269.252 429.756C269.026 430.022 268.661 430.104 268.333 429.986L45.5023 349.896Z" fill="#AEAEAE"/>
<path d="M252.969 399.907L275.922 411.166C276.345 411.373 276.856 411.212 277.083 410.799L424.373 142.736C424.452 142.593 424.49 142.43 424.481 142.266L424.104 135.021C424.083 134.602 423.768 134.256 423.353 134.195L394.727 129.976C394.658 129.966 394.591 129.947 394.527 129.922L310.606 96.2126C310.462 96.1549 310.336 96.0604 310.241 95.9385L298.029 80.3586C297.782 80.0426 297.352 79.9339 296.984 80.0944L280.778 87.1585C280.553 87.2567 280.297 87.2564 280.072 87.1576L221.701 61.5466C221.335 61.386 220.907 61.4918 220.658 61.8044L181.783 110.596C181.746 110.642 181.705 110.684 181.66 110.722L165.625 124.157C165.494 124.266 165.399 124.41 165.348 124.573L154.606 159.399C154.571 159.514 154.513 159.62 154.435 159.711L109.467 212.446L86.4506 234.294C86.3249 234.413 86.2372 234.567 86.1984 234.736L80.4185 259.895C80.3977 259.986 80.3626 260.073 80.3147 260.153L43.0245 322.103C42.7388 322.578 42.9568 323.195 43.4772 323.385L252.969 399.907Z" fill="#B3AB83"/>
<path d="M424.638 125.477C428.972 126.115 432.308 129.571 432.843 133.861C432.844 133.864 432.845 133.868 432.845 133.871L438.108 153.433C438.557 155.102 438.551 156.861 438.091 158.528L432.766 177.835C432.625 178.349 432.441 178.85 432.217 179.333L422.783 199.691L432.335 238.721C433.444 243.253 431.168 247.931 426.919 249.856L389.393 266.85L327.561 379.158L332.153 403.65C332.899 407.626 331.097 411.647 327.633 413.737L296.347 432.608L280.327 450.408C277.247 453.83 272.184 454.614 268.214 452.282L245.893 439.177L40.2994 364.737C34.3457 362.581 32.0236 355.389 35.5926 350.158L36.1106 349.399C36.0778 348.44 36.188 347.46 36.4558 346.489L40.5368 331.693L40.4537 331.662C34.7293 329.572 32.3317 322.78 35.4745 317.558L72.1129 256.691L77.6099 232.763C78.0367 230.905 79.0015 229.215 80.3839 227.903L103.064 206.375L146.668 155.238L156.928 121.975C157.478 120.19 158.533 118.602 159.965 117.402L175.388 104.48L213.766 56.3131C216.505 52.8746 221.216 51.7105 225.242 53.4769L280.436 77.6944L293.462 72.0163C297.511 70.2514 302.24 71.4464 304.965 74.9224L315.864 88.8282L396.94 121.394L424.638 125.477Z" stroke="#473434" stroke-width="17.6245"/>
<path d="M255.763 382.101C256.993 384.269 338.571 222.725 384.992 138.935C332.264 117.993 226.043 75.8984 222.985 75.0549C219.926 74.2114 119.075 234.706 69.0322 315.058C134.62 339.09 254.532 379.934 255.763 382.101Z" fill="#A09B7A"/>
<path d="M249.663 348.285C250.628 349.985 314.612 223.281 351.022 157.562C309.665 141.136 226.352 108.119 223.954 107.458C221.555 106.796 142.454 232.678 103.203 295.701C154.646 314.55 248.698 346.585 249.663 348.285Z" fill="#989375"/>
<path d="M245.381 324.549C246.16 325.921 297.794 223.672 327.176 170.637C293.802 157.382 226.57 130.738 224.634 130.204C222.698 129.67 158.865 231.255 127.19 282.114C168.704 297.325 244.602 323.177 245.381 324.549Z" fill="#878265"/>
<path d="M240.99 300.206C241.578 301.242 280.548 224.071 302.724 184.045C277.535 174.04 226.793 153.931 225.332 153.528C223.871 153.126 175.694 229.795 151.788 268.18C183.12 279.66 240.402 299.171 240.99 300.206Z" fill="#6C6851"/>
<path d="M46.4616 329.812L43.5318 323.014L258.252 401.802L282.014 414.308L282.014 420.562L46.4616 329.812Z" fill="#8F7D62"/>
<path d="M174.678 237.12L155.731 242.407C142.337 249.457 135.463 266.788 133.701 274.572L174.678 269.285C190.98 285 226.405 316.342 237.685 315.99C251.785 315.549 250.022 274.132 250.022 272.81C250.022 271.752 244.147 270.019 241.21 269.285L232.398 261.794L221.382 258.71L210.367 255.185C208.311 250.926 203.934 242.231 202.877 241.526C201.819 240.821 198.911 239.47 197.589 238.883H185.252L174.678 237.12Z" fill="#AEAF68"/>
<path d="M335.501 180.722L210.368 136.22V116.393L284.39 92.1592L332.417 154.285L335.501 180.722Z" fill="#504235"/>
<path d="M223.145 106.7L210.368 116.393L284.831 92.6L331.977 153.845L335.501 181.163L347.398 161.776V142.83L298.049 79.8223L223.145 106.7Z" fill="#7A614A"/>
<path d="M225.789 158.691C224.379 157.986 219.326 150.76 216.977 147.235C219.18 178.519 221.383 177.197 225.789 185.569C229.314 192.266 229.02 199.228 228.432 201.871L225.789 215.09V219.496L237.685 213.327C238.567 209.508 243.237 200.726 254.869 196.143C271.436 202.488 294.671 194.675 304.218 189.975L301.574 183.366L294.524 178.519L271.612 167.063L263.241 165.3L250.463 162.216C247.526 161.041 241.122 158.691 239.007 158.691C236.363 158.691 227.551 159.572 225.789 158.691Z" fill="#AEAF68"/>
<path d="M156.172 241.527C139.819 253.477 135.757 267.817 130.176 279.42C159.991 296.163 223.585 334.32 237.685 321.278C255.31 304.975 252.225 259.151 242.091 237.121C233.008 217.375 237.244 204.075 254.428 196.144C261.184 197.612 298.93 205.485 323.604 172.351C320.52 121.24 256.631 86.872 216.976 132.255C216.976 132.255 216.025 167.655 223.585 182.044C237.244 208.04 220.501 212.006 206.842 218.174C185.693 227.726 179.084 224.784 156.172 241.527Z" fill="#D9D9D9" fill-opacity="0.4"/>
<path d="M236.363 349.917L109.467 305.415L111.23 289.112L176.44 258.71L233.279 327.886L236.363 349.917Z" fill="#504235"/>
<path d="M125.329 276.775L111.229 289.112L176.44 259.151L233.279 327.886L236.363 349.917L245.175 331.411L242.532 311.143L187.896 241.526L125.329 276.775Z" fill="#7A614A"/>
<circle cx="224.467" cy="223.902" r="2.20319" fill="#BFC095"/>
<circle cx="224.467" cy="223.902" r="2.20319" fill="#BFC095"/>
<circle cx="218.299" cy="227.427" r="2.20319" fill="#BFC095"/>
<circle cx="218.299" cy="227.427" r="2.20319" fill="#BFC095"/>
<circle cx="219.18" cy="233.596" r="2.20319" fill="#BFC095"/>
<circle cx="219.18" cy="233.596" r="2.20319" fill="#BFC095"/>
<circle cx="222.705" cy="222.14" r="1.32191" fill="#BFC095"/>
<circle cx="222.705" cy="222.14" r="1.32191" fill="#BFC095"/>
<circle cx="223.586" cy="218.615" r="1.32191" fill="#BFC095"/>
<circle cx="223.586" cy="218.615" r="1.32191" fill="#BFC095"/>
<circle cx="221.823" cy="231.834" r="1.32191" fill="#BFC095"/>
<circle cx="221.823" cy="231.834" r="1.32191" fill="#BFC095"/>
<circle cx="231.517" cy="216.852" r="1.32191" fill="#BFC095"/>
<circle cx="231.517" cy="216.852" r="1.32191" fill="#BFC095"/>
<circle cx="225.349" cy="213.328" r="1.32191" fill="#BFC095"/>
<circle cx="225.349" cy="213.328" r="1.32191" fill="#BFC095"/>
<circle cx="210.367" cy="241.527" r="1.32191" fill="#BFC095"/>
<circle cx="210.367" cy="241.527" r="1.32191" fill="#BFC095"/>
<ellipse cx="206.402" cy="247.255" rx="2.64382" ry="3.5251" fill="#BFC095"/>
<ellipse cx="206.402" cy="247.255" rx="2.64382" ry="3.5251" fill="#BFC095"/>
<ellipse cx="206.402" cy="247.255" rx="2.64382" ry="3.5251" fill="#BFC095"/>
<ellipse cx="206.402" cy="247.255" rx="2.64382" ry="3.5251" fill="#BFC095"/>
<ellipse cx="209.927" cy="251.661" rx="2.64382" ry="3.5251" fill="#BFC095"/>
<ellipse cx="209.927" cy="251.661" rx="2.64382" ry="3.5251" fill="#BFC095"/>
<ellipse cx="209.046" cy="247.255" rx="2.64382" ry="3.5251" fill="#BFC095"/>
<ellipse cx="209.046" cy="247.255" rx="2.64382" ry="3.5251" fill="#BFC095"/>
<ellipse cx="209.046" cy="242.848" rx="2.64382" ry="3.5251" fill="#BFC095"/>
<ellipse cx="209.046" cy="242.848" rx="2.64382" ry="3.5251" fill="#BFC095"/>
<circle cx="251.344" cy="180.281" r="6.16857" fill="#BABB91"/>
<circle cx="251.344" cy="180.281" r="6.16857" fill="#BABB91"/>
<circle cx="267.207" cy="186.45" r="4.40612" fill="#BABB91"/>
<circle cx="267.207" cy="186.45" r="4.40612" fill="#BABB91"/>
<circle cx="238.126" cy="189.974" r="4.40612" fill="#BABB91"/>
<circle cx="238.126" cy="189.974" r="4.40612" fill="#BABB91"/>
<circle cx="231.957" cy="175.875" r="4.40612" fill="#BABB91"/>
<circle cx="231.957" cy="175.875" r="4.40612" fill="#BABB91"/>
<circle cx="236.364" cy="286.028" r="4.40612" fill="#BABB91"/>
<circle cx="236.364" cy="286.028" r="4.40612" fill="#BABB91"/>
<circle cx="227.552" cy="271.929" r="4.40612" fill="#BABB91"/>
<circle cx="227.552" cy="271.929" r="4.40612" fill="#BABB91"/>
<circle cx="155.291" cy="249.898" r="4.40612" fill="#BABB91"/>
<circle cx="155.291" cy="249.898" r="4.40612" fill="#BABB91"/>
<ellipse cx="209.046" cy="242.848" rx="2.64382" ry="3.5251" fill="#BFC095"/>
<ellipse cx="209.046" cy="242.848" rx="2.64382" ry="3.5251" fill="#BFC095"/>
<ellipse cx="211.689" cy="242.848" rx="2.64382" ry="3.5251" fill="#BFC095"/>
<ellipse cx="211.689" cy="242.848" rx="2.64382" ry="3.5251" fill="#BFC095"/>
<ellipse cx="211.249" cy="253.863" rx="3.08446" ry="3.96574" fill="#BFC095"/>
<ellipse cx="211.249" cy="253.863" rx="3.08446" ry="3.96574" fill="#BFC095"/>
<ellipse cx="214.773" cy="255.627" rx="3.08446" ry="3.96574" fill="#BFC095"/>
<ellipse cx="214.773" cy="255.627" rx="3.08446" ry="3.96574" fill="#BFC095"/>
<ellipse cx="213.011" cy="250.339" rx="2.09873" ry="2.69837" transform="rotate(15 213.011 250.339)" fill="#BFC095"/>
<ellipse cx="213.011" cy="250.339" rx="2.09873" ry="2.69837" transform="rotate(15 213.011 250.339)" fill="#BFC095"/>
<ellipse cx="212.653" cy="246.879" rx="2.09873" ry="2.69837" transform="rotate(15 212.653 246.879)" fill="#BFC095"/>
<ellipse cx="212.653" cy="246.879" rx="2.09873" ry="2.69837" transform="rotate(15 212.653 246.879)" fill="#BFC095"/>
<ellipse cx="205.603" cy="243.355" rx="2.09873" ry="2.69837" transform="rotate(15 205.603 243.355)" fill="#BFC095"/>
<ellipse cx="205.603" cy="243.355" rx="2.09873" ry="2.69837" transform="rotate(15 205.603 243.355)" fill="#BFC095"/>
<ellipse cx="214.414" cy="242.473" rx="2.09873" ry="2.69837" transform="rotate(15 214.414 242.473)" fill="#BFC095"/>
<ellipse cx="214.414" cy="242.473" rx="2.09873" ry="2.69837" transform="rotate(15 214.414 242.473)" fill="#BFC095"/>
<ellipse cx="211.249" cy="253.863" rx="3.08446" ry="3.96574" fill="#BFC095"/>
<ellipse cx="211.249" cy="253.863" rx="3.08446" ry="3.96574" fill="#BFC095"/>
</svg>
