<svg width="1001" height="1001" viewBox="0 0 1001 1001" fill="none" xmlns="http://www.w3.org/2000/svg">
<path d="M637.398 755.861C637.323 755.459 637.39 755.044 637.587 754.686L766.539 520.467C766.723 520.133 767.009 519.868 767.356 519.711L847.214 483.545C847.986 483.195 848.4 482.345 848.199 481.521L827.773 398.063C827.678 397.674 827.718 397.265 827.886 396.903L849.09 351.144C849.13 351.057 849.164 350.965 849.19 350.872L859.84 312.258C859.923 311.955 859.924 311.635 859.843 311.332L849.318 272.208C848.971 270.916 847.366 270.467 846.398 271.393L790.226 325.119C789.729 325.595 789 325.738 788.36 325.484L443.633 189.046C442.867 188.743 441.993 189.011 441.529 189.691L86.3902 710.139C85.7413 711.09 86.1635 712.398 87.246 712.79L499.806 862.167C499.907 862.204 500.005 862.25 500.098 862.304L545.998 889.255C546.72 889.679 547.64 889.536 548.2 888.914L581.818 851.562C581.935 851.433 582.069 851.321 582.218 851.232L646.809 812.27C647.439 811.89 647.767 811.159 647.631 810.436L637.398 755.861Z" fill="#8F7D62"/>
<path d="M91.6515 699.68C90.7843 699.368 90.3036 698.441 90.5486 697.553L104.6 646.607C104.874 645.612 105.94 645.065 106.908 645.421L530.457 801.349C530.703 801.439 530.922 801.585 531.12 801.757C534.663 804.817 550.497 811.602 552.567 822.107C554.612 832.489 545.213 852.266 539.151 859.401C538.7 859.932 537.968 860.096 537.313 859.86L91.6515 699.68Z" fill="#AEAEAE"/>
<path d="M506.585 799.702L552.492 822.22C553.337 822.635 554.359 822.312 554.813 821.487L849.394 285.361C849.552 285.074 849.626 284.748 849.609 284.421L848.856 269.93C848.812 269.092 848.183 268.4 847.353 268.278L790.101 259.84C789.964 259.819 789.829 259.783 789.701 259.731L621.858 192.314C621.571 192.198 621.319 192.009 621.128 191.765L596.705 160.605C596.21 159.973 595.35 159.756 594.614 160.077L562.203 174.205C561.753 174.402 561.241 174.401 560.791 174.204L444.049 122.981C443.317 122.66 442.461 122.872 441.963 123.497L364.213 221.079C364.14 221.172 364.057 221.256 363.967 221.332L331.896 248.202C331.636 248.42 331.444 248.709 331.344 249.033L309.86 318.687C309.789 318.916 309.672 319.128 309.517 319.311L219.582 424.781L173.548 468.476C173.297 468.715 173.121 469.022 173.044 469.36L161.484 519.679C161.442 519.861 161.372 520.034 161.276 520.194L86.696 644.094C86.1246 645.044 86.5605 646.278 87.6013 646.659L506.585 799.702Z" fill="#B3AB83"/>
<path d="M849.923 250.842C858.591 252.119 865.262 259.03 866.333 267.611C866.334 267.617 866.336 267.624 866.338 267.63L876.862 306.753C877.76 310.092 877.749 313.611 876.83 316.944L866.18 355.558C865.896 356.585 865.529 357.588 865.081 358.555L846.213 399.271L865.318 477.331C867.536 486.394 862.984 495.751 854.485 499.6L779.433 533.589L655.769 758.204L664.954 807.188C666.445 815.14 662.841 823.182 655.912 827.361L593.341 865.105L561.3 900.704C555.14 907.549 545.015 909.116 537.074 904.453L492.433 878.242L81.2458 729.361C69.3383 725.05 64.6941 710.666 71.8322 700.205L72.8682 698.687C72.8025 696.768 73.0229 694.809 73.5585 692.867L81.7206 663.274L81.5544 663.213C70.1056 659.031 65.3104 645.447 71.596 635.005L144.873 513.27L155.867 465.414C156.72 461.699 158.65 458.318 161.415 455.693L206.774 412.638L293.983 310.365L314.502 243.839C315.604 240.268 317.713 237.092 320.577 234.692L351.424 208.848L428.179 112.514C433.658 105.638 443.079 103.309 451.131 106.842L561.52 155.277L587.571 143.921C595.668 140.391 605.128 142.781 610.577 149.733L632.375 177.545L794.528 242.677L849.923 250.842Z" stroke="#473434" stroke-width="35.2489"/>
<path d="M512.172 764.09C514.633 768.425 677.789 445.337 770.63 277.758C665.174 235.874 452.733 151.684 446.616 149.997C440.5 148.31 238.798 469.299 138.711 630.004C269.887 678.067 509.711 759.754 512.172 764.09Z" fill="#A09B7A"/>
<path d="M499.972 696.458C501.902 699.859 629.871 446.449 702.69 315.011C619.977 282.16 453.351 216.127 448.554 214.803C443.757 213.48 285.555 465.243 207.053 591.29C309.939 628.988 498.042 693.058 499.972 696.458Z" fill="#989375"/>
<path d="M491.409 648.984C492.966 651.728 596.236 447.23 654.999 341.162C588.251 314.651 453.787 261.364 449.915 260.296C446.044 259.228 318.377 462.397 255.028 564.115C338.055 594.537 489.851 646.24 491.409 648.984Z" fill="#878265"/>
<path d="M482.627 600.301C483.803 602.372 561.743 448.031 606.094 367.978C555.717 347.969 454.232 307.751 451.311 306.945C448.389 306.14 352.034 459.478 304.222 536.248C366.886 559.208 481.451 598.23 482.627 600.301Z" fill="#6C6851"/>
<path d="M93.5699 659.512L87.7103 645.915L517.151 803.493L564.675 828.505L564.674 841.011L93.5699 659.512Z" fill="#8F7D62"/>
<path d="M350.002 474.129L312.11 484.704C285.32 498.803 271.573 533.465 268.048 549.033L350.002 538.458C382.607 569.889 453.458 632.573 476.017 631.868C504.216 630.987 500.691 548.152 500.691 545.508C500.691 543.393 488.942 539.927 483.067 538.458L465.442 523.478L443.412 517.309L421.381 510.259C417.269 501.741 408.515 484.351 406.4 482.941C404.286 481.531 398.469 478.829 395.826 477.654H371.152L350.002 474.129Z" fill="#AEAF68"/>
<path d="M671.649 361.332L421.382 272.328V232.673L569.427 184.206L665.481 308.458L671.649 361.332Z" fill="#504235"/>
<path d="M446.937 213.287L421.382 232.674L570.309 185.088L664.6 307.578L671.649 362.214L695.442 323.44V285.548L596.745 159.533L446.937 213.287Z" fill="#7A614A"/>
<path d="M452.225 317.271C449.405 315.861 439.3 301.409 434.6 294.359C439.006 356.926 443.412 354.282 452.225 371.026C459.274 384.42 458.687 398.344 457.512 403.631L452.225 430.068V438.88L476.018 426.543C477.78 418.905 487.121 401.34 510.385 392.175C543.519 404.865 589.989 389.238 609.082 379.838L603.795 366.619L589.695 356.926L543.872 334.014L527.129 330.489L501.573 324.321C495.698 321.971 482.891 317.271 478.661 317.271C473.374 317.271 455.749 319.033 452.225 317.271Z" fill="#AEAF68"/>
<path d="M312.991 482.941C280.285 506.842 272.161 535.522 260.999 558.727C320.628 592.214 447.818 668.527 476.017 642.443C511.266 609.838 505.097 518.19 484.829 474.129C466.663 434.638 475.136 408.037 509.504 392.175C523.016 395.113 598.507 410.858 647.856 344.59C641.687 242.367 513.91 173.632 434.6 264.398C434.6 264.398 432.697 335.197 447.818 363.976C475.136 415.968 441.649 423.899 414.331 436.237C372.033 455.339 358.814 449.455 312.991 482.941Z" fill="#D9D9D9" fill-opacity="0.4"/>
<path d="M473.373 699.722L219.581 610.718L223.106 578.113L353.527 517.308L467.205 655.66L473.373 699.722Z" fill="#504235"/>
<path d="M251.305 553.439L223.106 578.113L353.527 518.19L467.205 655.661L473.374 699.722L490.998 662.71L485.711 622.174L376.439 482.941L251.305 553.439Z" fill="#7A614A"/>
<circle cx="449.58" cy="447.693" r="4.40637" fill="#BFC095"/>
<circle cx="449.58" cy="447.693" r="4.40637" fill="#BFC095"/>
<circle cx="437.244" cy="454.742" r="4.40637" fill="#BFC095"/>
<circle cx="437.244" cy="454.742" r="4.40637" fill="#BFC095"/>
<circle cx="439.006" cy="467.08" r="4.40637" fill="#BFC095"/>
<circle cx="439.006" cy="467.08" r="4.40637" fill="#BFC095"/>
<circle cx="446.057" cy="444.168" r="2.64382" fill="#BFC095"/>
<circle cx="446.057" cy="444.168" r="2.64382" fill="#BFC095"/>
<circle cx="447.818" cy="437.117" r="2.64382" fill="#BFC095"/>
<circle cx="447.818" cy="437.117" r="2.64382" fill="#BFC095"/>
<circle cx="444.293" cy="463.555" r="2.64382" fill="#BFC095"/>
<circle cx="444.293" cy="463.555" r="2.64382" fill="#BFC095"/>
<circle cx="463.68" cy="433.592" r="2.64382" fill="#BFC095"/>
<circle cx="463.68" cy="433.592" r="2.64382" fill="#BFC095"/>
<circle cx="451.344" cy="426.543" r="2.64382" fill="#BFC095"/>
<circle cx="451.344" cy="426.543" r="2.64382" fill="#BFC095"/>
<circle cx="421.382" cy="482.942" r="2.64382" fill="#BFC095"/>
<circle cx="421.382" cy="482.942" r="2.64382" fill="#BFC095"/>
<ellipse cx="413.45" cy="494.397" rx="5.28765" ry="7.0502" fill="#BFC095"/>
<ellipse cx="413.45" cy="494.397" rx="5.28765" ry="7.0502" fill="#BFC095"/>
<ellipse cx="413.45" cy="494.397" rx="5.28765" ry="7.0502" fill="#BFC095"/>
<ellipse cx="413.45" cy="494.397" rx="5.28765" ry="7.0502" fill="#BFC095"/>
<ellipse cx="420.501" cy="503.209" rx="5.28765" ry="7.0502" fill="#BFC095"/>
<ellipse cx="420.501" cy="503.209" rx="5.28765" ry="7.0502" fill="#BFC095"/>
<ellipse cx="418.738" cy="494.397" rx="5.28765" ry="7.0502" fill="#BFC095"/>
<ellipse cx="418.738" cy="494.397" rx="5.28765" ry="7.0502" fill="#BFC095"/>
<ellipse cx="418.738" cy="485.585" rx="5.28765" ry="7.0502" fill="#BFC095"/>
<ellipse cx="418.738" cy="485.585" rx="5.28765" ry="7.0502" fill="#BFC095"/>
<circle cx="503.336" cy="360.451" r="12.3371" fill="#BABB91"/>
<circle cx="503.336" cy="360.451" r="12.3371" fill="#BABB91"/>
<circle cx="535.06" cy="372.788" r="8.81224" fill="#BABB91"/>
<circle cx="535.06" cy="372.788" r="8.81224" fill="#BABB91"/>
<circle cx="476.899" cy="379.837" r="8.81224" fill="#BABB91"/>
<circle cx="476.899" cy="379.837" r="8.81224" fill="#BABB91"/>
<circle cx="464.562" cy="351.639" r="8.81224" fill="#BABB91"/>
<circle cx="464.562" cy="351.639" r="8.81224" fill="#BABB91"/>
<circle cx="473.374" cy="571.945" r="8.81224" fill="#BABB91"/>
<circle cx="473.374" cy="571.945" r="8.81224" fill="#BABB91"/>
<circle cx="455.75" cy="543.745" r="8.81224" fill="#BABB91"/>
<circle cx="455.75" cy="543.745" r="8.81224" fill="#BABB91"/>
<circle cx="311.229" cy="499.684" r="8.81224" fill="#BABB91"/>
<circle cx="311.229" cy="499.684" r="8.81224" fill="#BABB91"/>
<ellipse cx="418.738" cy="485.585" rx="5.28765" ry="7.0502" fill="#BFC095"/>
<ellipse cx="418.738" cy="485.585" rx="5.28765" ry="7.0502" fill="#BFC095"/>
<ellipse cx="424.025" cy="485.585" rx="5.28765" ry="7.0502" fill="#BFC095"/>
<ellipse cx="424.025" cy="485.585" rx="5.28765" ry="7.0502" fill="#BFC095"/>
<ellipse cx="423.145" cy="507.615" rx="6.16892" ry="7.93147" fill="#BFC095"/>
<ellipse cx="423.145" cy="507.615" rx="6.16892" ry="7.93147" fill="#BFC095"/>
<ellipse cx="430.194" cy="511.141" rx="6.16892" ry="7.93147" fill="#BFC095"/>
<ellipse cx="430.194" cy="511.141" rx="6.16892" ry="7.93147" fill="#BFC095"/>
<ellipse cx="426.669" cy="500.566" rx="4.19746" ry="5.39673" transform="rotate(15 426.669 500.566)" fill="#BFC095"/>
<ellipse cx="426.669" cy="500.566" rx="4.19746" ry="5.39673" transform="rotate(15 426.669 500.566)" fill="#BFC095"/>
<ellipse cx="425.952" cy="493.647" rx="4.19746" ry="5.39673" transform="rotate(15 425.952 493.647)" fill="#BFC095"/>
<ellipse cx="425.952" cy="493.647" rx="4.19746" ry="5.39673" transform="rotate(15 425.952 493.647)" fill="#BFC095"/>
<ellipse cx="411.852" cy="486.597" rx="4.19746" ry="5.39673" transform="rotate(15 411.852 486.597)" fill="#BFC095"/>
<ellipse cx="411.852" cy="486.597" rx="4.19746" ry="5.39673" transform="rotate(15 411.852 486.597)" fill="#BFC095"/>
<ellipse cx="429.476" cy="484.834" rx="4.19746" ry="5.39673" transform="rotate(15 429.476 484.834)" fill="#BFC095"/>
<ellipse cx="429.476" cy="484.834" rx="4.19746" ry="5.39673" transform="rotate(15 429.476 484.834)" fill="#BFC095"/>
<ellipse cx="423.145" cy="507.615" rx="6.16892" ry="7.93147" fill="#BFC095"/>
<ellipse cx="423.145" cy="507.615" rx="6.16892" ry="7.93147" fill="#BFC095"/>
</svg>
