<svg width="400" height="400" viewBox="0 0 400 400" fill="none" xmlns="http://www.w3.org/2000/svg">
<g clip-path="url(#clip0_406_200)">
<path d="M61.9021 177.964L64.3562 181.707L68.6795 180.548L101.731 171.692L124.168 178.67L125.878 179.202L127.608 178.738L138.138 175.917L189.236 186.617L237.455 218.248L271.103 255.076L271.172 255.15L271.242 255.223C276.523 260.636 289.495 279.356 294.247 307.078C297.3 324.888 298.399 339.123 298.569 349.224C298.654 354.28 298.505 358.256 298.263 361.096C298.142 362.52 298.001 363.604 297.869 364.365C297.776 364.896 297.709 365.144 297.696 365.195C297.515 365.629 297.065 366.867 297.269 368.427C297.418 369.566 297.956 371.108 299.368 372.33C300.72 373.5 302.198 373.789 303.104 373.839C304.609 373.922 305.745 373.426 305.991 373.318L306.009 373.31C306.43 373.128 306.762 372.932 306.957 372.811C307.665 372.373 308.381 371.776 308.939 371.287C310.197 370.184 311.912 368.503 313.91 366.328C317.928 361.955 323.322 355.334 328.742 346.837C339.554 329.885 350.708 305.08 350.788 275.553L350.79 274.67L350.546 273.821C342.362 245.444 329.497 200.987 319.789 175.311C313.421 158.468 302.875 144.118 292.902 132.391C288.654 127.395 284.44 122.797 280.682 118.697C280.028 117.983 279.388 117.285 278.764 116.602C274.467 111.9 271.049 108.063 268.744 104.864C266.864 102.255 264.029 99.8778 261.033 97.7649C257.945 95.5861 254.25 93.3886 250.265 91.2284C242.295 86.9077 232.74 82.5086 223.671 78.4811C220.258 76.9654 216.933 75.5108 213.774 74.1281C208.423 71.7868 203.545 69.6519 199.507 67.7771C196.296 66.2863 193.848 65.0647 192.252 64.1292C191.983 63.9721 191.764 63.837 191.586 63.7235C191.203 62.9758 190.77 62.4328 190.504 62.1214C189.818 61.3189 189.03 60.674 188.373 60.1896C187.031 59.2012 185.321 58.2229 183.525 57.2949C179.874 55.4087 174.972 53.2755 169.71 51.1461C159.139 46.868 146.522 42.3681 138.13 39.5291L138.045 39.5006L137.961 39.4746L97.5443 27.0828L85.9926 23.541L89.8681 34.985L100.152 65.353L100.225 65.5697L100.315 65.7805L107.972 83.8689L92.938 95.4132L63.1508 103.395L62.6304 103.534L62.1419 103.761L32.6207 117.496L27.908 119.689L29.2533 124.71L30.5639 129.601L30.8212 130.561L31.3663 131.393L61.9021 177.964ZM309.098 370.016C309.133 369.934 309.168 369.851 309.202 369.768C309.156 369.886 309.121 369.965 309.104 370.001L309.098 370.016ZM190.969 63.2944C190.957 63.2844 190.96 63.2861 190.975 63.2996C190.973 63.2977 190.971 63.296 190.969 63.2944Z" fill="url(#paint0_linear_406_200)" stroke="#5E5552" stroke-width="12.378"/>
<path d="M128.518 151.7L101.714 164.707L66.9322 174.027L35.4551 128.29L33.7077 121.769L68.4113 107.81L97.7584 99.9466C99.4974 99.4806 109.416 89.833 114.158 85.0675L104.636 62.5723L108.672 42.8515L119.328 43.4911L142.998 47.0508L185.896 65.8456L185.877 80.995L194.778 98.9968L250.353 141.189L266.009 171.36L277.513 214.294L242.437 189.909L177.081 150.337C170.016 152.231 157.147 149.854 154.973 150.436C152.799 151.019 136.43 151.522 128.518 151.7Z" fill="#C7BCB9"/>
<path d="M96 160L84.5 170.5L67 175L42.5 139.5L34.5 128.5L33.5 121.5L55 113L68 107.5L97.5 99.5L113.5 85.5L103 61.5L96 32L139 45.5L155.5 52L146.5 65L132 71L133.5 85.5L128 92L129.5 104L106.5 116L89 124L84 131.5L87 146L96 160Z" fill="#7D6F6A"/>
</g>
<defs>
<linearGradient id="paint0_linear_406_200" x1="357" y1="360" x2="134" y2="63" gradientUnits="userSpaceOnUse">
<stop stop-color="white"/>
<stop offset="0.773784" stop-color="#B7A099"/>
</linearGradient>
<clipPath id="clip0_406_200">
<rect width="400" height="400" fill="white"/>
</clipPath>
</defs>
</svg>
