<svg width="1001" height="1001" viewBox="0 0 1001 1001" fill="none" xmlns="http://www.w3.org/2000/svg">
<g clip-path="url(#clip0_428_1297)">
<path d="M77.2865 324.458L77.9301 326.86L79.2936 328.94L155.671 445.426L161.809 454.788L172.623 451.89L255.293 429.739L311.412 447.191L315.689 448.522L320.016 447.362L346.355 440.305L474.161 467.07L594.77 546.186L678.932 638.3L679.102 638.487L679.279 638.668C692.489 652.209 724.934 699.03 736.819 768.371C744.455 812.917 747.204 848.521 747.629 873.787C747.842 886.433 747.47 896.377 746.865 903.481C746.561 907.043 746.21 909.755 745.878 911.659C745.647 912.987 745.477 913.608 745.447 913.735C744.993 914.821 743.869 917.916 744.378 921.818C744.75 924.668 746.096 928.525 749.628 931.582C753.009 934.507 756.706 935.231 758.973 935.356C762.737 935.563 765.579 934.321 766.195 934.052L766.239 934.033C767.292 933.575 768.123 933.086 768.609 932.784C770.381 931.687 772.172 930.195 773.569 928.97C776.714 926.213 781.003 922.008 786.001 916.569C796.051 905.63 809.543 889.069 823.099 867.816C850.143 825.414 878.043 763.371 878.241 689.518L878.247 687.309L877.635 685.186C857.165 614.209 824.987 503.013 800.706 438.791C784.778 396.663 758.4 360.77 733.456 331.437C722.83 318.941 712.292 307.442 702.893 297.187C701.256 295.401 699.654 293.653 698.092 291.944C687.344 280.184 678.795 270.587 673.032 262.587C668.329 256.06 661.236 250.114 653.745 244.829C646.02 239.38 636.777 233.883 626.81 228.48C606.876 217.673 582.975 206.67 560.292 196.596C551.755 192.805 543.439 189.166 535.536 185.708C522.153 179.852 509.951 174.512 499.851 169.823C491.82 166.094 485.698 163.038 481.705 160.698C481.034 160.306 480.484 159.968 480.04 159.684C479.082 157.814 477.998 156.455 477.333 155.677C475.619 153.669 473.648 152.056 472.003 150.845C468.647 148.372 464.369 145.925 459.877 143.604C450.746 138.886 438.485 133.551 425.324 128.225C398.882 117.524 367.324 106.269 346.333 99.168L346.123 99.0968L345.911 99.0317L244.82 68.0368L215.927 59.178L225.62 87.8022L251.343 163.76L251.526 164.302L251.749 164.829L270.901 210.072L233.299 238.947L158.794 258.911L157.492 259.259L156.27 259.828L82.431 294.182L70.6436 299.667L74.0084 312.224L77.2865 324.458ZM478.497 158.61C478.468 158.586 478.475 158.59 478.513 158.624C478.507 158.619 478.502 158.615 478.497 158.61ZM773.964 925.792C774.054 925.587 774.142 925.379 774.226 925.169C774.112 925.466 774.022 925.665 773.981 925.755L773.964 925.792Z" fill="url(#paint0_linear_428_1297)" stroke="#5E5552" stroke-width="30.9602"/>
<path d="M322.292 379.734L255.249 412.268L168.252 435.578L89.5204 321.181L85.1497 304.869L171.952 269.955L245.355 250.286C249.705 249.121 274.515 224.99 286.376 213.07L262.558 156.804L272.652 107.478L299.305 109.078L358.511 117.982L465.807 164.992L465.762 202.884L488.025 247.911L627.029 353.443L666.19 428.909L694.964 536.296L607.232 475.302L443.76 376.326C426.089 381.061 393.9 375.116 388.463 376.573C383.026 378.03 342.083 379.288 322.292 379.734Z" fill="#C7BCB9"/>
<path d="M240.958 400.494L212.194 426.757L168.422 438.012L107.142 349.219L87.1321 321.705L84.6309 304.196L138.407 282.936L170.923 269.179L244.71 249.169L284.729 214.152L258.467 154.122L240.958 80.336L348.511 114.103L389.781 130.361L367.27 162.877L331.002 177.884L334.754 214.152L320.997 230.41L324.749 260.425L267.221 290.44L223.449 310.449L210.943 329.209L218.447 365.477L240.958 400.494Z" fill="#7D6F6A"/>
</g>
<defs>
<linearGradient id="paint0_linear_428_1297" x1="893.779" y1="900.74" x2="336.004" y2="157.874" gradientUnits="userSpaceOnUse">
<stop stop-color="white"/>
<stop offset="0.773784" stop-color="#B7A099"/>
</linearGradient>
<clipPath id="clip0_428_1297">
<rect width="1000" height="1000" fill="white" transform="translate(0.838867 0.296509)"/>
</clipPath>
</defs>
</svg>
