<svg width="1001" height="1001" viewBox="0 0 1001 1001" fill="none" xmlns="http://www.w3.org/2000/svg">
<g clip-path="url(#clip0_406_200)">
<path d="M77.2719 325.035L77.9155 327.437L79.279 329.517L155.656 446.002L161.794 455.365L172.608 452.467L255.278 430.316L311.397 447.768L315.675 449.099L320.001 447.939L346.34 440.882L474.147 467.647L594.755 546.763L678.917 638.877L679.088 639.064L679.265 639.245C692.474 652.786 724.92 699.607 736.805 768.948C744.44 813.493 747.189 849.098 747.614 874.364C747.827 887.01 747.455 896.954 746.85 904.058C746.546 907.62 746.195 910.332 745.864 912.236C745.632 913.564 745.463 914.185 745.432 914.312C744.978 915.398 743.854 918.493 744.363 922.395C744.735 925.245 746.081 929.102 749.613 932.159C752.995 935.084 756.691 935.808 758.958 935.933C762.722 936.14 765.565 934.898 766.18 934.629L766.224 934.61C767.277 934.152 768.108 933.663 768.595 933.361C770.367 932.264 772.158 930.772 773.554 929.547C776.699 926.79 780.989 922.585 785.986 917.146C796.036 906.207 809.528 889.646 823.084 868.393C850.128 825.991 878.028 763.948 878.227 690.095L878.232 687.886L877.62 685.763C857.15 614.786 824.972 503.59 800.691 439.367C784.764 397.24 758.385 361.347 733.442 332.014C722.815 319.518 712.277 308.019 702.878 297.764C701.242 295.978 699.639 294.23 698.077 292.521C687.329 280.761 678.781 271.163 673.017 263.164C668.314 256.637 661.221 250.691 653.73 245.406C646.005 239.957 636.763 234.46 626.796 229.057C606.861 218.25 582.96 207.247 560.277 197.173C551.74 193.382 543.425 189.743 535.521 186.285C522.139 180.429 509.937 175.089 499.837 170.4C491.806 166.671 485.683 163.615 481.69 161.275C481.02 160.882 480.47 160.544 480.025 160.261C479.068 158.391 477.984 157.032 477.319 156.254C475.604 154.246 473.633 152.633 471.988 151.422C468.633 148.949 464.354 146.502 459.862 144.181C450.732 139.463 438.47 134.128 425.309 128.802C398.867 118.101 367.309 106.846 346.319 99.7449L346.108 99.6737L345.896 99.6086L244.805 68.6138L215.912 59.7549L225.605 88.3791L251.328 164.336L251.512 164.879L251.735 165.406L270.887 210.649L233.284 239.524L158.779 259.488L157.478 259.836L156.256 260.405L82.4163 294.759L70.6289 300.243L73.9938 312.801L77.2719 325.035ZM478.483 159.187C478.453 159.162 478.461 159.167 478.498 159.201C478.493 159.196 478.488 159.192 478.483 159.187ZM773.95 926.369C774.04 926.164 774.127 925.956 774.211 925.746C774.097 926.043 774.007 926.242 773.966 926.332L773.95 926.369Z" fill="url(#paint0_linear_406_200)" stroke="#5E5552" stroke-width="30.9602"/>
<path d="M322.277 380.312L255.234 412.845L168.237 436.156L89.5058 321.758L85.135 305.446L171.937 270.532L245.341 250.863C249.691 249.698 274.5 225.567 286.361 213.647L262.543 157.382L272.637 108.055L299.29 109.655L358.496 118.559L465.792 165.569L465.747 203.461L488.011 248.488L627.014 354.021L666.175 429.486L694.949 536.873L607.217 475.879L443.745 376.903C426.074 381.638 393.886 375.693 388.449 377.15C383.011 378.607 342.069 379.865 322.277 380.312Z" fill="#C7BCB9"/>
<path d="M240.943 401.071L212.179 427.334L168.407 438.589L107.127 349.796L87.117 322.282L84.6157 304.773L138.392 283.513L170.908 269.756L244.695 249.746L284.714 214.729L258.451 154.699L240.943 80.913L348.496 114.68L389.766 130.938L367.255 163.454L330.987 178.461L334.739 214.729L320.982 230.987L324.734 261.002L267.206 291.017L223.434 311.026L210.928 329.786L218.432 366.054L240.943 401.071Z" fill="#7D6F6A"/>
</g>
<defs>
<linearGradient id="paint0_linear_406_200" x1="893.765" y1="901.317" x2="335.99" y2="158.451" gradientUnits="userSpaceOnUse">
<stop stop-color="white"/>
<stop offset="0.773784" stop-color="#B7A099"/>
</linearGradient>
<clipPath id="clip0_406_200">
<rect width="1000" height="1000" fill="white" transform="translate(0.824219 0.873535)"/>
</clipPath>
</defs>
</svg>
