<svg width="501" height="501" viewBox="0 0 501 501" fill="none" xmlns="http://www.w3.org/2000/svg">
<g clip-path="url(#clip0_428_1297)">
<path d="M38.6791 163.031L39.0009 164.232L39.6827 165.272L77.8712 223.515L80.9404 228.196L86.3472 226.747L127.682 215.672L155.742 224.398L157.88 225.063L160.044 224.483L173.213 220.955L237.117 234.337L297.421 273.896L339.502 319.952L339.587 320.046L339.675 320.136C346.28 326.907 362.503 350.317 368.446 384.988C372.263 407.261 373.638 425.063 373.85 437.696C373.957 444.019 373.771 448.991 373.468 452.543C373.316 454.324 373.141 455.68 372.975 456.632C372.859 457.295 372.775 457.606 372.759 457.67C372.532 458.213 371.97 459.76 372.225 461.711C372.411 463.136 373.084 465.065 374.85 466.593C376.54 468.056 378.389 468.418 379.522 468.48C381.404 468.584 382.825 467.963 383.133 467.828L383.155 467.819C383.682 467.59 384.097 467.345 384.341 467.194C385.226 466.646 386.122 465.9 386.82 465.287C388.393 463.909 390.537 461.806 393.036 459.087C398.061 453.617 404.807 445.337 411.585 434.71C425.107 413.509 439.057 382.488 439.156 345.561L439.159 344.457L438.853 343.395C428.618 307.907 412.529 252.309 400.389 220.197C392.425 199.134 379.236 181.187 366.764 166.521C361.451 160.273 356.182 154.524 351.483 149.396C350.664 148.503 349.863 147.629 349.082 146.774C343.708 140.894 339.434 136.095 336.552 132.096C334.2 128.832 330.654 125.859 326.908 123.217C323.046 120.492 318.425 117.744 313.441 115.042C303.474 109.639 291.523 104.137 280.182 99.1002C275.913 97.2046 271.756 95.3853 267.804 93.6561C261.113 90.728 255.012 88.0582 249.962 85.7136C245.946 83.8492 242.885 82.3214 240.888 81.1515C240.553 80.955 240.278 80.786 240.056 80.6441C239.577 79.709 239.035 79.0299 238.703 78.6406C237.845 77.6368 236.86 76.8303 236.037 76.2245C234.359 74.9884 232.22 73.7649 229.974 72.6044C225.409 70.2455 219.278 67.5776 212.698 64.9145C199.477 59.5643 183.698 53.9366 173.203 50.3862L173.097 50.3506L172.991 50.318L122.446 34.8206L107.999 30.3912L112.846 44.7033L125.707 82.682L125.799 82.953L125.911 83.2166L135.487 105.838L116.685 120.276L79.4329 130.258L78.782 130.432L78.1711 130.716L41.2514 147.893L35.3577 150.635L37.0401 156.914L38.6791 163.031ZM239.285 80.1074C239.27 80.095 239.274 80.0972 239.292 80.1141C239.29 80.1117 239.287 80.1095 239.285 80.1074ZM387.018 463.699C387.063 463.596 387.107 463.492 387.149 463.386C387.092 463.535 387.047 463.635 387.026 463.68L387.018 463.699Z" fill="url(#paint0_linear_428_1297)" stroke="#5E5552" stroke-width="15.4801"/>
<path d="M161.182 190.669L127.661 206.936L84.162 218.591L44.7963 161.392L42.611 153.236L86.0119 135.779L122.714 125.945C124.889 125.362 137.293 113.297 143.224 107.337L131.315 79.2043L136.362 54.5412L149.689 55.3411L179.291 59.7929L232.94 83.2979L232.917 102.244L244.049 124.757L313.551 177.524L333.131 215.257L347.518 268.95L303.652 238.453L221.916 188.965C213.08 191.332 196.986 188.36 194.268 189.089C191.549 189.817 171.078 190.446 161.182 190.669Z" fill="#C7BCB9"/>
<path d="M120.515 201.049L106.133 214.181L84.2472 219.808L53.6071 175.411L43.6022 161.655L42.3516 152.9L69.2398 142.27L85.4978 135.392L122.391 125.387L142.401 107.878L129.269 77.8633L120.515 40.9702L174.292 57.8535L194.927 65.9825L183.671 82.2405L165.537 89.7442L167.413 107.878L160.535 116.007L162.411 131.015L133.647 146.022L111.761 156.027L105.508 165.407L109.26 183.54L120.515 201.049Z" fill="#7D6F6A"/>
</g>
<defs>
<linearGradient id="paint0_linear_428_1297" x1="446.926" y1="451.172" x2="168.038" y2="79.7393" gradientUnits="userSpaceOnUse">
<stop stop-color="white"/>
<stop offset="0.773784" stop-color="#B7A099"/>
</linearGradient>
<clipPath id="clip0_428_1297">
<rect width="500" height="500" fill="white" transform="translate(0.455566 0.950439)"/>
</clipPath>
</defs>
</svg>
