<svg width="1001" height="1001" viewBox="0 0 1001 1001" fill="none" xmlns="http://www.w3.org/2000/svg">
<path d="M499.633 197.75L678.173 255.761L788.517 407.636V595.364L678.173 747.239L499.633 805.25L321.094 747.239L210.75 595.364V407.636L321.094 255.761L499.633 197.75Z" fill="#FF0000"/>
<path d="M513.25 262.75L665.912 318.314L747.142 459.009L718.931 619L594.48 723.427H432.02L307.569 619L279.358 459.009L360.588 318.314L513.25 262.75Z" fill="#FF7272"/>
<path d="M501.375 300.25L643.238 359.012L702 500.875L643.238 642.738L501.375 701.5L359.512 642.738L300.75 500.875L359.512 359.012L501.375 300.25Z" fill="black"/>
<path fill-rule="evenodd" clip-rule="evenodd" d="M351.979 351.479C333.674 369.785 333.674 399.465 351.979 417.771L434.843 500.635L351.979 583.499C333.674 601.805 333.674 631.484 351.979 649.79C370.285 668.096 399.965 668.096 418.271 649.79L501.135 566.926L583.999 649.79C602.305 668.096 631.984 668.096 650.29 649.79C668.596 631.484 668.596 601.805 650.29 583.499L567.426 500.635L650.29 417.771C668.596 399.465 668.596 369.785 650.29 351.479C631.984 333.174 602.305 333.174 583.999 351.479L501.135 434.343L418.271 351.479C399.965 333.174 370.285 333.174 351.979 351.479Z" fill="#FF0000"/>
<path d="M260.977 702.568H268.023V741.091C268.023 745.068 267.085 748.619 265.21 751.744C263.354 754.85 260.731 757.303 257.341 759.102C253.951 760.883 249.973 761.773 245.409 761.773C240.845 761.773 236.867 760.883 233.477 759.102C230.087 757.303 227.455 754.85 225.58 751.744C223.723 748.619 222.795 745.068 222.795 741.091V702.568H229.841V740.523C229.841 743.364 230.466 745.892 231.716 748.108C232.966 750.305 234.746 752.038 237.057 753.307C239.386 754.557 242.17 755.182 245.409 755.182C248.648 755.182 251.432 754.557 253.761 753.307C256.091 752.038 257.871 750.305 259.102 748.108C260.352 745.892 260.977 743.364 260.977 740.523V702.568ZM287.888 734.5V760.75H281.183V717.114H287.661V723.932H288.229C289.251 721.716 290.804 719.936 292.888 718.591C294.971 717.227 297.661 716.545 300.956 716.545C303.911 716.545 306.496 717.152 308.712 718.364C310.928 719.557 312.651 721.375 313.882 723.818C315.113 726.242 315.729 729.311 315.729 733.023V760.75H309.024V733.477C309.024 730.049 308.134 727.379 306.354 725.466C304.573 723.534 302.13 722.568 299.024 722.568C296.884 722.568 294.971 723.032 293.286 723.96C291.619 724.888 290.303 726.242 289.337 728.023C288.371 729.803 287.888 731.962 287.888 734.5ZM334.23 744.841L334.116 736.545H335.48L354.571 717.114H362.866L342.526 737.682H341.957L334.23 744.841ZM327.98 760.75V702.568H334.685V760.75H327.98ZM355.707 760.75L338.662 739.159L343.435 734.5L364.23 760.75H355.707ZM378.2 734.5V760.75H371.496V717.114H377.973V723.932H378.541C379.564 721.716 381.117 719.936 383.2 718.591C385.284 717.227 387.973 716.545 391.268 716.545C394.223 716.545 396.808 717.152 399.024 718.364C401.24 719.557 402.964 721.375 404.195 723.818C405.426 726.242 406.041 729.311 406.041 733.023V760.75H399.337V733.477C399.337 730.049 398.446 727.379 396.666 725.466C394.886 723.534 392.443 722.568 389.337 722.568C387.196 722.568 385.284 723.032 383.598 723.96C381.931 724.888 380.615 726.242 379.649 728.023C378.683 729.803 378.2 731.962 378.2 734.5ZM436.02 761.659C432.08 761.659 428.624 760.722 425.651 758.847C422.696 756.972 420.385 754.348 418.719 750.977C417.071 747.606 416.247 743.667 416.247 739.159C416.247 734.614 417.071 730.646 418.719 727.256C420.385 723.866 422.696 721.233 425.651 719.358C428.624 717.483 432.08 716.545 436.02 716.545C439.959 716.545 443.406 717.483 446.361 719.358C449.334 721.233 451.645 723.866 453.293 727.256C454.959 730.646 455.793 734.614 455.793 739.159C455.793 743.667 454.959 747.606 453.293 750.977C451.645 754.348 449.334 756.972 446.361 758.847C443.406 760.722 439.959 761.659 436.02 761.659ZM436.02 755.636C439.012 755.636 441.474 754.869 443.406 753.335C445.338 751.801 446.768 749.784 447.696 747.284C448.624 744.784 449.088 742.076 449.088 739.159C449.088 736.242 448.624 733.525 447.696 731.006C446.768 728.487 445.338 726.451 443.406 724.898C441.474 723.345 439.012 722.568 436.02 722.568C433.027 722.568 430.565 723.345 428.634 724.898C426.702 726.451 425.272 728.487 424.344 731.006C423.416 733.525 422.952 736.242 422.952 739.159C422.952 742.076 423.416 744.784 424.344 747.284C425.272 749.784 426.702 751.801 428.634 753.335C430.565 754.869 433.027 755.636 436.02 755.636ZM474.429 760.75L461.134 717.114H468.179L477.611 750.523H478.065L487.384 717.114H494.543L503.747 750.409H504.202L513.634 717.114H520.679L507.384 760.75H500.793L491.247 727.227H490.565L481.02 760.75H474.429ZM536.247 734.5V760.75H529.543V717.114H536.02V723.932H536.588C537.611 721.716 539.164 719.936 541.247 718.591C543.33 717.227 546.02 716.545 549.315 716.545C552.27 716.545 554.855 717.152 557.071 718.364C559.287 719.557 561.01 721.375 562.241 723.818C563.473 726.242 564.088 729.311 564.088 733.023V760.75H557.384V733.477C557.384 730.049 556.493 727.379 554.713 725.466C552.933 723.534 550.49 722.568 547.384 722.568C545.243 722.568 543.33 723.032 541.645 723.96C539.978 724.888 538.662 726.242 537.696 728.023C536.73 729.803 536.247 731.962 536.247 734.5ZM602.135 760.75H594.749L616.112 702.568H623.385L644.749 760.75H637.362L619.976 711.773H619.521L602.135 760.75ZM604.862 738.023H634.635V744.273H604.862V738.023ZM683.811 726.886L677.788 728.591C677.41 727.587 676.851 726.612 676.112 725.665C675.393 724.699 674.408 723.903 673.158 723.278C671.908 722.653 670.307 722.341 668.357 722.341C665.686 722.341 663.461 722.956 661.68 724.188C659.919 725.4 659.038 726.943 659.038 728.818C659.038 730.485 659.644 731.801 660.857 732.767C662.069 733.733 663.963 734.538 666.538 735.182L673.016 736.773C676.917 737.72 679.824 739.169 681.737 741.119C683.65 743.051 684.607 745.542 684.607 748.591C684.607 751.091 683.887 753.326 682.447 755.295C681.027 757.265 679.038 758.818 676.482 759.955C673.925 761.091 670.951 761.659 667.561 761.659C663.11 761.659 659.427 760.693 656.51 758.761C653.593 756.83 651.747 754.008 650.97 750.295L657.334 748.705C657.94 751.053 659.086 752.814 660.771 753.989C662.476 755.163 664.701 755.75 667.447 755.75C670.572 755.75 673.054 755.087 674.891 753.761C676.747 752.417 677.675 750.807 677.675 748.932C677.675 747.417 677.144 746.148 676.084 745.125C675.023 744.083 673.394 743.307 671.197 742.795L663.925 741.091C659.929 740.144 656.993 738.676 655.118 736.688C653.262 734.68 652.334 732.17 652.334 729.159C652.334 726.697 653.025 724.519 654.408 722.625C655.809 720.731 657.713 719.244 660.118 718.165C662.542 717.085 665.288 716.545 668.357 716.545C672.675 716.545 676.065 717.492 678.527 719.386C681.008 721.28 682.769 723.78 683.811 726.886ZM725.608 726.886L719.585 728.591C719.206 727.587 718.648 726.612 717.909 725.665C717.189 724.699 716.205 723.903 714.955 723.278C713.705 722.653 712.104 722.341 710.153 722.341C707.483 722.341 705.258 722.956 703.477 724.188C701.716 725.4 700.835 726.943 700.835 728.818C700.835 730.485 701.441 731.801 702.653 732.767C703.866 733.733 705.759 734.538 708.335 735.182L714.812 736.773C718.714 737.72 721.621 739.169 723.534 741.119C725.447 743.051 726.403 745.542 726.403 748.591C726.403 751.091 725.684 753.326 724.244 755.295C722.824 757.265 720.835 758.818 718.278 759.955C715.722 761.091 712.748 761.659 709.358 761.659C704.907 761.659 701.223 760.693 698.307 758.761C695.39 756.83 693.544 754.008 692.767 750.295L699.131 748.705C699.737 751.053 700.883 752.814 702.568 753.989C704.273 755.163 706.498 755.75 709.244 755.75C712.369 755.75 714.85 755.087 716.688 753.761C718.544 752.417 719.472 750.807 719.472 748.932C719.472 747.417 718.941 746.148 717.881 745.125C716.82 744.083 715.191 743.307 712.994 742.795L705.722 741.091C701.725 740.144 698.79 738.676 696.915 736.688C695.059 734.68 694.131 732.17 694.131 729.159C694.131 726.697 694.822 724.519 696.205 722.625C697.606 720.731 699.509 719.244 701.915 718.165C704.339 717.085 707.085 716.545 710.153 716.545C714.472 716.545 717.862 717.492 720.324 719.386C722.805 721.28 724.566 723.78 725.608 726.886ZM754.791 761.659C750.587 761.659 746.96 760.731 743.911 758.875C740.88 757 738.541 754.386 736.893 751.034C735.265 747.663 734.45 743.742 734.45 739.273C734.45 734.803 735.265 730.864 736.893 727.455C738.541 724.027 740.833 721.356 743.768 719.443C746.723 717.511 750.17 716.545 754.109 716.545C756.382 716.545 758.626 716.924 760.842 717.682C763.058 718.439 765.075 719.67 766.893 721.375C768.712 723.061 770.161 725.295 771.24 728.08C772.32 730.864 772.859 734.292 772.859 738.364V741.205H739.223V735.409H766.041C766.041 732.947 765.549 730.75 764.564 728.818C763.598 726.886 762.215 725.362 760.416 724.244C758.636 723.127 756.534 722.568 754.109 722.568C751.439 722.568 749.128 723.231 747.178 724.557C745.246 725.864 743.759 727.568 742.717 729.67C741.676 731.773 741.155 734.027 741.155 736.432V740.295C741.155 743.591 741.723 746.384 742.859 748.676C744.015 750.949 745.615 752.682 747.661 753.875C749.706 755.049 752.083 755.636 754.791 755.636C756.553 755.636 758.143 755.39 759.564 754.898C761.003 754.386 762.244 753.629 763.286 752.625C764.327 751.602 765.132 750.333 765.7 748.818L772.178 750.636C771.496 752.833 770.35 754.765 768.74 756.432C767.13 758.08 765.142 759.367 762.774 760.295C760.407 761.205 757.746 761.659 754.791 761.659ZM802.036 717.114V722.795H779.422V717.114H802.036ZM786.013 706.659H792.717V748.25C792.717 750.144 792.992 751.564 793.541 752.511C794.109 753.439 794.829 754.064 795.7 754.386C796.59 754.689 797.528 754.841 798.513 754.841C799.251 754.841 799.857 754.803 800.331 754.727C800.804 754.633 801.183 754.557 801.467 754.5L802.831 760.523C802.376 760.693 801.742 760.864 800.928 761.034C800.113 761.223 799.081 761.318 797.831 761.318C795.937 761.318 794.081 760.911 792.263 760.097C790.464 759.282 788.967 758.042 787.774 756.375C786.6 754.708 786.013 752.606 786.013 750.068V706.659Z" fill="black"/>
</svg>
