<svg width="400" height="400" viewBox="0 0 400 400" fill="none" xmlns="http://www.w3.org/2000/svg">
<path d="M199.553 79L270.969 102.204L315.107 162.954V238.046L270.969 298.796L199.553 322L128.137 298.796L84 238.046V162.954L128.137 102.204L199.553 79Z" fill="#FF0000"/>
<path d="M205 105L266.065 127.226L298.557 183.503L287.272 247.5L237.492 289.271H172.508L122.728 247.5L111.443 183.503L143.935 127.226L205 105Z" fill="#FF7272"/>
<path d="M200.25 120L256.995 143.505L280.5 200.25L256.995 256.995L200.25 280.5L143.505 256.995L120 200.25L143.505 143.505L200.25 120Z" fill="black"/>
<path fill-rule="evenodd" clip-rule="evenodd" d="M140.492 140.492C133.169 147.814 133.169 159.686 140.492 167.008L173.637 200.154L140.492 233.3C133.169 240.622 133.169 252.494 140.492 259.816C147.814 267.138 159.686 267.138 167.008 259.816L200.154 226.67L233.3 259.816C240.622 267.138 252.494 267.138 259.816 259.816C267.138 252.494 267.138 240.622 259.816 233.3L226.67 200.154L259.816 167.008C267.138 159.686 267.138 147.814 259.816 140.492C252.494 133.169 240.622 133.169 233.3 140.492L200.154 173.637L167.008 140.492C159.686 133.169 147.814 133.169 140.492 140.492Z" fill="#FF0000"/>
<path d="M104.091 280.727H106.909V296.136C106.909 297.727 106.534 299.148 105.784 300.398C105.042 301.64 103.992 302.621 102.636 303.341C101.28 304.053 99.6894 304.409 97.8636 304.409C96.0379 304.409 94.447 304.053 93.0909 303.341C91.7348 302.621 90.6818 301.64 89.9318 300.398C89.1894 299.148 88.8182 297.727 88.8182 296.136V280.727H91.6364V295.909C91.6364 297.045 91.8864 298.057 92.3864 298.943C92.8864 299.822 93.5985 300.515 94.5227 301.023C95.4545 301.523 96.5682 301.773 97.8636 301.773C99.1591 301.773 100.273 301.523 101.205 301.023C102.136 300.515 102.848 299.822 103.341 298.943C103.841 298.057 104.091 297.045 104.091 295.909V280.727ZM114.855 293.5V304H112.173V286.545H114.764V289.273H114.991C115.401 288.386 116.022 287.674 116.855 287.136C117.688 286.591 118.764 286.318 120.082 286.318C121.264 286.318 122.298 286.561 123.185 287.045C124.071 287.523 124.76 288.25 125.253 289.227C125.745 290.197 125.991 291.424 125.991 292.909V304H123.31V293.091C123.31 291.72 122.954 290.652 122.241 289.886C121.529 289.114 120.552 288.727 119.31 288.727C118.454 288.727 117.688 288.913 117.014 289.284C116.348 289.655 115.821 290.197 115.435 290.909C115.048 291.621 114.855 292.485 114.855 293.5ZM133.392 297.636L133.347 294.318H133.892L141.528 286.545H144.847L136.71 294.773H136.483L133.392 297.636ZM130.892 304V280.727H133.574V304H130.892ZM141.983 304L135.165 295.364L137.074 293.5L145.392 304H141.983ZM150.98 293.5V304H148.298V286.545H150.889V289.273H151.116C151.526 288.386 152.147 287.674 152.98 287.136C153.813 286.591 154.889 286.318 156.207 286.318C157.389 286.318 158.423 286.561 159.31 287.045C160.196 287.523 160.885 288.25 161.378 289.227C161.87 290.197 162.116 291.424 162.116 292.909V304H159.435V293.091C159.435 291.72 159.079 290.652 158.366 289.886C157.654 289.114 156.677 288.727 155.435 288.727C154.579 288.727 153.813 288.913 153.139 289.284C152.473 289.655 151.946 290.197 151.56 290.909C151.173 291.621 150.98 292.485 150.98 293.5ZM174.108 304.364C172.532 304.364 171.15 303.989 169.96 303.239C168.778 302.489 167.854 301.439 167.188 300.091C166.528 298.742 166.199 297.167 166.199 295.364C166.199 293.545 166.528 291.958 167.188 290.602C167.854 289.246 168.778 288.193 169.96 287.443C171.15 286.693 172.532 286.318 174.108 286.318C175.684 286.318 177.063 286.693 178.244 287.443C179.434 288.193 180.358 289.246 181.017 290.602C181.684 291.958 182.017 293.545 182.017 295.364C182.017 297.167 181.684 298.742 181.017 300.091C180.358 301.439 179.434 302.489 178.244 303.239C177.063 303.989 175.684 304.364 174.108 304.364ZM174.108 301.955C175.305 301.955 176.29 301.648 177.062 301.034C177.835 300.42 178.407 299.614 178.778 298.614C179.15 297.614 179.335 296.53 179.335 295.364C179.335 294.197 179.15 293.11 178.778 292.102C178.407 291.095 177.835 290.28 177.062 289.659C176.29 289.038 175.305 288.727 174.108 288.727C172.911 288.727 171.926 289.038 171.153 289.659C170.381 290.28 169.809 291.095 169.438 292.102C169.066 293.11 168.881 294.197 168.881 295.364C168.881 296.53 169.066 297.614 169.438 298.614C169.809 299.614 170.381 300.42 171.153 301.034C171.926 301.648 172.911 301.955 174.108 301.955ZM189.472 304L184.153 286.545H186.972L190.744 299.909H190.926L194.653 286.545H197.517L201.199 299.864H201.381L205.153 286.545H207.972L202.653 304H200.017L196.199 290.591H195.926L192.108 304H189.472ZM214.199 293.5V304H211.517V286.545H214.108V289.273H214.335C214.744 288.386 215.366 287.674 216.199 287.136C217.032 286.591 218.108 286.318 219.426 286.318C220.608 286.318 221.642 286.561 222.528 287.045C223.415 287.523 224.104 288.25 224.597 289.227C225.089 290.197 225.335 291.424 225.335 292.909V304H222.653V293.091C222.653 291.72 222.297 290.652 221.585 289.886C220.873 289.114 219.896 288.727 218.653 288.727C217.797 288.727 217.032 288.913 216.358 289.284C215.691 289.655 215.165 290.197 214.778 290.909C214.392 291.621 214.199 292.485 214.199 293.5ZM240.554 304H237.599L246.145 280.727H249.054L257.599 304H254.645L247.69 284.409H247.509L240.554 304ZM241.645 294.909H253.554V297.409H241.645V294.909ZM273.224 290.455L270.815 291.136C270.664 290.735 270.44 290.345 270.145 289.966C269.857 289.58 269.463 289.261 268.963 289.011C268.463 288.761 267.823 288.636 267.043 288.636C265.974 288.636 265.084 288.883 264.372 289.375C263.668 289.86 263.315 290.477 263.315 291.227C263.315 291.894 263.558 292.42 264.043 292.807C264.527 293.193 265.285 293.515 266.315 293.773L268.906 294.409C270.467 294.788 271.63 295.367 272.395 296.148C273.16 296.92 273.543 297.917 273.543 299.136C273.543 300.136 273.255 301.03 272.679 301.818C272.111 302.606 271.315 303.227 270.293 303.682C269.27 304.136 268.08 304.364 266.724 304.364C264.944 304.364 263.471 303.977 262.304 303.205C261.137 302.432 260.399 301.303 260.088 299.818L262.634 299.182C262.876 300.121 263.334 300.826 264.009 301.295C264.69 301.765 265.58 302 266.679 302C267.929 302 268.921 301.735 269.656 301.205C270.399 300.667 270.77 300.023 270.77 299.273C270.77 298.667 270.558 298.159 270.134 297.75C269.709 297.333 269.058 297.023 268.179 296.818L265.27 296.136C263.671 295.758 262.497 295.17 261.747 294.375C261.005 293.572 260.634 292.568 260.634 291.364C260.634 290.379 260.91 289.508 261.463 288.75C262.024 287.992 262.785 287.398 263.747 286.966C264.717 286.534 265.815 286.318 267.043 286.318C268.77 286.318 270.126 286.697 271.111 287.455C272.103 288.212 272.808 289.212 273.224 290.455ZM289.943 290.455L287.534 291.136C287.383 290.735 287.159 290.345 286.864 289.966C286.576 289.58 286.182 289.261 285.682 289.011C285.182 288.761 284.542 288.636 283.761 288.636C282.693 288.636 281.803 288.883 281.091 289.375C280.386 289.86 280.034 290.477 280.034 291.227C280.034 291.894 280.277 292.42 280.761 292.807C281.246 293.193 282.004 293.515 283.034 293.773L285.625 294.409C287.186 294.788 288.348 295.367 289.114 296.148C289.879 296.92 290.261 297.917 290.261 299.136C290.261 300.136 289.973 301.03 289.398 301.818C288.83 302.606 288.034 303.227 287.011 303.682C285.989 304.136 284.799 304.364 283.443 304.364C281.663 304.364 280.189 303.977 279.023 303.205C277.856 302.432 277.117 301.303 276.807 299.818L279.352 299.182C279.595 300.121 280.053 300.826 280.727 301.295C281.409 301.765 282.299 302 283.398 302C284.648 302 285.64 301.735 286.375 301.205C287.117 300.667 287.489 300.023 287.489 299.273C287.489 298.667 287.277 298.159 286.852 297.75C286.428 297.333 285.777 297.023 284.898 296.818L281.989 296.136C280.39 295.758 279.216 295.17 278.466 294.375C277.723 293.572 277.352 292.568 277.352 291.364C277.352 290.379 277.629 289.508 278.182 288.75C278.742 287.992 279.504 287.398 280.466 286.966C281.436 286.534 282.534 286.318 283.761 286.318C285.489 286.318 286.845 286.697 287.83 287.455C288.822 288.212 289.527 289.212 289.943 290.455ZM301.616 304.364C299.935 304.364 298.484 303.992 297.264 303.25C296.052 302.5 295.116 301.455 294.457 300.114C293.806 298.765 293.48 297.197 293.48 295.409C293.48 293.621 293.806 292.045 294.457 290.682C295.116 289.311 296.033 288.242 297.207 287.477C298.389 286.705 299.768 286.318 301.344 286.318C302.253 286.318 303.151 286.47 304.037 286.773C304.923 287.076 305.73 287.568 306.457 288.25C307.185 288.924 307.764 289.818 308.196 290.932C308.628 292.045 308.844 293.417 308.844 295.045V296.182H295.389V293.864H306.116C306.116 292.879 305.92 292 305.526 291.227C305.139 290.455 304.586 289.845 303.866 289.398C303.154 288.951 302.313 288.727 301.344 288.727C300.276 288.727 299.351 288.992 298.571 289.523C297.798 290.045 297.204 290.727 296.787 291.568C296.37 292.409 296.162 293.311 296.162 294.273V295.818C296.162 297.136 296.389 298.254 296.844 299.17C297.306 300.08 297.946 300.773 298.764 301.25C299.582 301.72 300.533 301.955 301.616 301.955C302.321 301.955 302.957 301.856 303.526 301.659C304.101 301.455 304.598 301.152 305.014 300.75C305.431 300.341 305.753 299.833 305.98 299.227L308.571 299.955C308.298 300.833 307.84 301.606 307.196 302.273C306.552 302.932 305.757 303.447 304.81 303.818C303.863 304.182 302.798 304.364 301.616 304.364ZM320.514 286.545V288.818H311.469V286.545H320.514ZM314.105 282.364H316.787V299C316.787 299.758 316.897 300.326 317.116 300.705C317.344 301.076 317.632 301.326 317.98 301.455C318.336 301.576 318.711 301.636 319.105 301.636C319.401 301.636 319.643 301.621 319.832 301.591C320.022 301.553 320.173 301.523 320.287 301.5L320.832 303.909C320.651 303.977 320.397 304.045 320.071 304.114C319.745 304.189 319.332 304.227 318.832 304.227C318.075 304.227 317.332 304.064 316.605 303.739C315.885 303.413 315.287 302.917 314.81 302.25C314.34 301.583 314.105 300.742 314.105 299.727V282.364Z" fill="black"/>
</svg>
