<svg width="1000" height="1001" viewBox="0 0 1000 1001" fill="none" xmlns="http://www.w3.org/2000/svg">
<mask id="path-1-outside-1_524_1217" maskUnits="userSpaceOnUse" x="28.2754" y="28.3027" width="942" height="942" fill="black">
<rect fill="white" x="28.2754" y="28.3027" width="942" height="942"/>
<path d="M876.11 499.665C890.961 499.665 903.094 511.719 902.105 526.538C896.822 605.678 868.296 681.728 819.812 745.002C765.862 815.409 690.207 866.07 604.56 889.143C518.912 912.216 428.047 906.413 346.03 872.634C264.013 838.855 195.416 778.983 150.859 702.285C106.303 625.588 88.2694 536.341 99.5514 448.361C110.833 360.38 150.802 278.572 213.269 215.598C275.737 152.624 357.22 111.997 445.107 100.006C524.088 89.2292 604.283 102.119 675.649 136.731C689.012 143.211 693.473 159.722 686.117 172.623L522.566 459.454C512.344 477.381 525.29 499.665 545.926 499.665H876.11Z"/>
</mask>
<path d="M876.11 499.665C890.961 499.665 903.094 511.719 902.105 526.538C896.822 605.678 868.296 681.728 819.812 745.002C765.862 815.409 690.207 866.07 604.56 889.143C518.912 912.216 428.047 906.413 346.03 872.634C264.013 838.855 195.416 778.983 150.859 702.285C106.303 625.588 88.2694 536.341 99.5514 448.361C110.833 360.38 150.802 278.572 213.269 215.598C275.737 152.624 357.22 111.997 445.107 100.006C524.088 89.2292 604.283 102.119 675.649 136.731C689.012 143.211 693.473 159.722 686.117 172.623L522.566 459.454C512.344 477.381 525.29 499.665 545.926 499.665H876.11Z" fill="#527244"/>
<path d="M876.11 499.665C890.961 499.665 903.094 511.719 902.105 526.538C896.822 605.678 868.296 681.728 819.812 745.002C765.862 815.409 690.207 866.07 604.56 889.143C518.912 912.216 428.047 906.413 346.03 872.634C264.013 838.855 195.416 778.983 150.859 702.285C106.303 625.588 88.2694 536.341 99.5514 448.361C110.833 360.38 150.802 278.572 213.269 215.598C275.737 152.624 357.22 111.997 445.107 100.006C524.088 89.2292 604.283 102.119 675.649 136.731C689.012 143.211 693.473 159.722 686.117 172.623L522.566 459.454C512.344 477.381 525.29 499.665 545.926 499.665H876.11Z" stroke="#3C4F34" stroke-width="134.454" mask="url(#path-1-outside-1_524_1217)"/>
<path d="M129.19 432.591C114.576 429.945 104.785 415.923 108.398 401.518C121.86 347.855 146.244 297.436 180.131 253.461C219.499 202.371 270.545 161.468 328.986 134.18C387.427 106.893 451.559 94.018 516.004 96.6349C571.475 98.8874 625.786 112.562 675.572 136.693C688.936 143.171 693.401 159.68 686.047 172.583L509.062 483.128C503.415 493.037 492.131 498.306 480.909 496.274L129.19 432.591Z" fill="#618251"/>
</svg>
