<svg width="400" height="400" viewBox="0 0 400 400" fill="none" xmlns="http://www.w3.org/2000/svg">
<g clip-path="url(#clip0_17_185)">
<rect width="400" height="400" fill="#3A1E1E"/>
<rect x="42" width="358" height="400" fill="#27556F"/>
<rect x="70" width="330" height="400" fill="#608DA6"/>
<rect x="70" width="330" height="400" fill="#608DA6"/>
<path d="M330 400C330 390.807 331.811 381.705 335.328 373.212C338.846 364.719 344.002 357.003 350.503 350.503C357.003 344.002 364.719 338.846 373.212 335.328C381.705 331.811 390.807 330 400 330V400H330Z" fill="#27556F"/>
<path d="M358 400C358 394.484 359.086 389.023 361.197 383.927C363.308 378.832 366.401 374.202 370.302 370.302C374.202 366.401 378.832 363.308 383.927 361.197C389.023 359.086 394.484 358 400 358V400H358Z" fill="#3A1E1E"/>
</g>
<defs>
<clipPath id="clip0_17_185">
<rect width="400" height="400" fill="white"/>
</clipPath>
</defs>
</svg>
