<svg width="400" height="400" viewBox="0 0 400 400" fill="none" xmlns="http://www.w3.org/2000/svg">
<g clip-path="url(#clip0_17_188)">
<g clip-path="url(#clip1_17_188)">
<rect width="400" height="400" fill="white"/>
<rect width="400" height="400" fill="#608DA6"/>
<path d="M-4.45011e-06 330C9.19252 330 18.295 331.811 26.7878 335.328C35.2806 338.846 42.9974 344.002 49.4975 350.503C55.9976 357.003 61.1537 364.719 64.6716 373.212C68.1894 381.705 70 390.807 70 400L-2.22506e-06 400L-4.45011e-06 330Z" fill="#27556F"/>
<path d="M-2.67007e-06 358C5.51552 358 10.977 359.086 16.0727 361.197C21.1684 363.308 25.7984 366.401 29.6985 370.302C33.5985 374.202 36.6922 378.832 38.8029 383.927C40.9136 389.023 42 394.484 42 400L-1.33503e-06 400L-2.67007e-06 358Z" fill="#3A1E1E"/>
<path d="M330 400C330 390.807 331.811 381.705 335.328 373.212C338.846 364.719 344.002 357.003 350.503 350.503C357.003 344.002 364.719 338.846 373.212 335.328C381.705 331.811 390.807 330 400 330V400H330Z" fill="#27556F"/>
<path d="M358 400C358 394.484 359.086 389.023 361.197 383.927C363.308 378.832 366.401 374.202 370.302 370.302C374.202 366.401 378.832 363.308 383.927 361.197C389.023 359.086 394.484 358 400 358V400H358Z" fill="#3A1E1E"/>
</g>
<path d="M400 70C390.807 70 381.705 68.1894 373.212 64.6716C364.719 61.1537 357.003 55.9976 350.503 49.4975C344.002 42.9974 338.846 35.2806 335.328 26.7878C331.811 18.295 330 9.19253 330 6.11959e-06L400 3.0598e-06L400 70Z" fill="#27556F"/>
<path d="M400 42C394.484 42 389.023 40.9136 383.927 38.8029C378.832 36.6922 374.202 33.5985 370.302 29.6985C366.401 25.7984 363.308 21.1684 361.197 16.0727C359.086 10.977 358 5.51552 358 3.67176e-06L400 1.83588e-06L400 42Z" fill="#3A1E1E"/>
<path d="M70 -6.11959e-06C70 9.19252 68.1894 18.295 64.6716 26.7878C61.1537 35.2806 55.9976 42.9974 49.4975 49.4975C42.9974 55.9976 35.2806 61.1537 26.7878 64.6716C18.295 68.1894 9.19253 70 6.11959e-06 70L3.0598e-06 -3.0598e-06L70 -6.11959e-06Z" fill="#27556F"/>
<path d="M42 -3.67176e-06C42 5.51551 40.9136 10.977 38.8029 16.0727C36.6922 21.1684 33.5985 25.7984 29.6985 29.6985C25.7984 33.5985 21.1684 36.6922 16.0727 38.8029C10.977 40.9136 5.51552 42 3.67176e-06 42L1.83588e-06 -1.83588e-06L42 -3.67176e-06Z" fill="#3A1E1E"/>
</g>
<defs>
<clipPath id="clip0_17_188">
<rect width="400" height="400" fill="white"/>
</clipPath>
<clipPath id="clip1_17_188">
<rect width="400" height="400" fill="white"/>
</clipPath>
</defs>
</svg>
