<svg width="400" height="400" viewBox="0 0 400 400" fill="none" xmlns="http://www.w3.org/2000/svg">
<g clip-path="url(#clip0_302_2)">
<rect x="8.5" y="8.5" width="384" height="383" rx="49.5" fill="#8F8F8F" stroke="#302F2F" stroke-width="17"/>
<rect width="271" height="265" rx="78" transform="matrix(1 0 0 -1 65 331)" fill="#787575"/>
<path d="M301.659 344.53L322.435 348.395C322.785 348.46 323.143 348.334 323.375 348.065L335.172 334.38C335.379 334.141 335.46 333.818 335.391 333.51L331.552 316.235C331.518 316.081 331.447 315.936 331.346 315.814L319.65 301.681C319.551 301.562 319.427 301.467 319.285 301.405L301.819 293.642C301.612 293.55 301.443 293.391 301.339 293.191L278.249 248.976C278.093 248.679 278.098 248.323 278.26 248.03L301.295 206.37C301.426 206.134 301.456 205.854 301.377 205.595L291.475 173.061C291.258 172.347 290.363 172.114 289.825 172.632L264 197.5L244.288 220.096C243.878 220.567 243.142 220.55 242.753 220.062L108.3 51.3767C108.111 51.1387 107.823 51 107.518 51H51C50.4477 51 50 51.4477 50 52V130.502C50 130.816 50.147 131.111 50.3971 131.3L204.332 247.618C204.894 248.042 204.865 248.89 204.264 249.256C194.403 255.261 168.092 270.704 163.5 273C159.099 275.2 165.71 297.743 161.445 308.799C161.097 309.702 162.01 310.862 162.933 310.569L243.002 285.158C243.314 285.059 243.655 285.119 243.914 285.318L277.609 311.2C277.856 311.389 278 311.682 278 311.993V330.91C278 331.274 278.198 331.609 278.516 331.785L301.358 344.422C301.452 344.474 301.554 344.51 301.659 344.53Z" fill="#424242" stroke="black" stroke-width="12"/>
</g>
<defs>
<clipPath id="clip0_302_2">
<rect width="400" height="400" rx="2" fill="white"/>
</clipPath>
</defs>
</svg>
