<svg width="501" height="501" viewBox="0 0 501 501" fill="none" xmlns="http://www.w3.org/2000/svg">
<path d="M407.274 436.973L205.054 221.954L187.5 230.914L171.777 219.395L146.18 230.914L114.183 259.071L39.9508 381.938L25.8722 390.897C25.8722 387.484 23.3125 378.355 23.3125 374.259C23.3125 369.14 29.7119 297.467 36.1112 287.228C39.7515 281.403 65.9749 218.542 79.6268 189.958L101.385 168.2L118.023 152.842C114.183 136.203 119.303 134.497 119.303 129.804C121.863 130.23 113.415 119.565 110.344 114.445C109.49 111.886 105.224 108.046 110.344 86.2882C137.221 67.0902 129.542 70.9298 133.381 70.9298C141.061 70.9298 144.9 68.3701 148.74 70.9298C151.812 72.9776 158.126 75.196 158.979 77.3291L166.658 81.1688C169.644 81.1688 176.897 74.7694 187.136 77.3291C189.123 77.8258 228.092 40.6395 247.29 22.2947C249.85 20.5882 256.761 18.1991 258.809 17.1752C260.857 16.1513 299.338 63.2505 318.963 87.5681L292.085 124.684L253.923 141.919C254.191 142.787 254.534 143.857 254.969 145.162C259.065 157.449 255.822 168.2 252.409 172.04L476.387 413.935L477.667 434.413L462.308 456.171C455.909 458.304 447.554 458.731 441.83 458.731C437.991 458.731 430.738 450.625 423.912 448.492L407.274 436.973Z" fill="#200707"/>
<rect x="102.178" y="100.732" width="51.1948" height="495.509" rx="25.5974" transform="rotate(-43.347 102.178 100.732)" fill="#543838"/>
<rect x="104.64" y="102.747" width="50.4617" height="488.413" rx="25.2309" transform="rotate(-43.347 104.64 102.747)" fill="#543838"/>
<rect x="104.64" y="102.747" width="50.4617" height="488.413" rx="25.2309" transform="rotate(-43.347 104.64 102.747)" fill="#543838"/>
<path d="M312.563 88.8482L260.088 22.2949C234.491 29.9741 161.964 124.259 158.978 127.244C153.859 132.364 132.101 147.722 125.702 151.562C118.674 155.778 90.5114 186.591 84.7459 193.798C79.6264 200.197 32.2713 302.587 32.2713 323.065C32.2713 343.542 24.5923 360.181 32.2713 383.218L50.1894 353.781L73.2271 311.546L107.784 256.511L142.34 223.235L180.736 209.156L206.334 169.48L254.969 134.924L289.525 119.565L312.563 88.8482Z" fill="#543838"/>
<path d="M284.406 87.5681L258.809 49.172C238.246 54.2369 169.394 127.11 166.99 129.106C162.865 132.529 163.667 135.753 144.9 146.442C144.9 146.442 116.273 172.335 111.623 177.159C107.495 181.442 64.7595 246.521 64.6932 260.291C64.627 274.06 58.412 285.219 64.4987 300.739L78.9704 281.015L97.5912 252.703L125.495 215.83L153.329 193.588L184.182 184.269L204.848 157.689L243.982 134.64L270.327 114.445L284.406 87.5681Z" fill="#472F2F"/>
<rect x="108.24" y="144.446" width="104.949" height="116.553" rx="15" transform="rotate(-43.347 108.24 144.446)" fill="#755050"/>
<path d="M164.26 173.19C160.636 172.555 158.214 169.102 158.849 165.479L170.538 98.8348C171.173 95.2113 174.626 92.7891 178.249 93.4246V93.4246C181.873 94.0601 184.295 97.5127 183.66 101.136L171.971 167.78C171.336 171.404 167.883 173.826 164.26 173.19V173.19Z" fill="#6F4B4B"/>
<rect x="130.821" y="132.604" width="80.9833" height="13.322" rx="6.66098" transform="rotate(-12.9574 130.821 132.604)" fill="#6F4B4B"/>
<rect x="233.211" y="201.477" width="14.565" height="316.463" rx="7.28252" transform="rotate(-43.347 233.211 201.477)" fill="#654040"/>
<path d="M189.136 208.304C182.278 187.052 183.973 169.877 193.847 160.557C203.72 151.237 220.965 150.536 241.786 158.608L267.642 238.739L189.136 208.304Z" fill="#543838"/>
</svg>
