<svg width="501" height="501" viewBox="0 0 501 501" fill="none" xmlns="http://www.w3.org/2000/svg">
<g clip-path="url(#clip0_113_148)">
<path d="M448.964 477.118L410.525 456.277L335.99 405.985L281.875 348.826L238.125 343.375L130 310.875L163.75 284.625L228.679 293.404L244.673 270.693L180.282 141.653L15.5029 54.0019L18.1031 28.2771L76.1528 48.2916L217.409 120.37L210.57 47.731L243.94 54.5499L263.249 116.054L254.83 170.208L292.193 242.107L314.375 293.404L388.125 360.875L474.748 397.125L474.748 462.768L448.964 477.118Z" fill="#543838" stroke="#3A3016" stroke-width="17.5"/>
<path d="M448.964 477.118L410.525 456.277L335.99 405.985L281.875 348.826L238.125 343.375L130 310.875L163.75 284.625L228.679 293.404L244.673 270.693L180.282 141.653L15.5029 54.0019L18.1031 28.2771L76.1528 48.2916L217.409 120.37L210.57 47.731L243.94 54.5499L263.249 116.054L254.83 170.208L292.193 242.107L314.375 293.404L388.125 360.875L474.748 397.125L474.748 462.768L448.964 477.118Z" fill="#543838" stroke="#3A3016" stroke-width="17.5"/>
</g>
<defs>
<clipPath id="clip0_113_148">
<rect width="500" height="500" fill="white" transform="translate(0.625 0.875)"/>
</clipPath>
</defs>
</svg>
