<svg width="1001" height="1001" viewBox="0 0 1001 1001" fill="none" xmlns="http://www.w3.org/2000/svg">
<path d="M262.837 673.496L244.232 665.877L260.904 658.053L266.656 655.353V649V609.141L268.77 534H404.332L416.889 609.165L402.888 713.925L402.389 717.658L404.477 720.792L427.782 755.792L436.321 768.616L444.557 755.596L464.32 724.353L525.319 713.876L565.113 724.888L580.272 729.083L577.638 713.576L569.706 666.869L577.492 635.132L577.78 633.959V632.75V534H754.647V565.25V568.115L756.164 570.545L767.144 588.136L755.829 609.282L754.647 611.493V614L754.647 727.392L754.647 735.153L762.165 737.079L815.828 750.829L824.057 752.938L827.469 745.159L834.551 729.009L848.693 736.284L862.356 743.314L863.251 727.975L878.399 468.332L878.515 466.352L877.866 464.478L863.903 424.153L877.768 387.542L878.416 385.83V384V346.981V344.047L876.83 341.578L850.029 299.846L849.321 298.744L848.353 297.861L825.812 277.308L802.052 244.397L799.058 240.25H793.944H237.416H233.998L231.295 242.342L195.767 269.842L194.498 270.825L193.6 272.155L169.757 307.476L123.964 350.459L120.808 353.421V357.75V417.75V419.554L121.438 421.244L132.1 449.836L120.999 505.805L120.634 507.646L120.961 509.495L159.353 726.103L161.589 738.713L173.281 733.487L209.487 717.304L226.827 731.989L231.372 735.838L236.921 733.675L260.288 724.567L266.166 722.276L266.629 715.984L269.02 683.484L269.553 676.246L262.837 673.496Z" fill="#614040" stroke="#3E2B2B" stroke-width="20"/>
<path d="M868.416 346.5L130.916 357.75L175.259 312.75L202.099 277.75L234.773 250.25H794.899L868.416 346.5Z" fill="#503232"/>
<path d="M763.416 332.663L235.916 340.25L267.633 309.901L304.5 286.5L323.25 267.75H688.25L705.75 286.5L763.416 332.663Z" fill="#3F2626"/>
<path d="M164.535 322.75C157.543 322.75 185.511 300.25 187.842 297.75L827.609 291.5L850.916 322.75H164.535Z" fill="#533636"/>
<path d="M202.991 275.25L222.801 262.75L803.137 260.25L814.791 275.25H202.991Z" fill="#533636"/>
<path d="M868.41 385.793C870.278 382.813 377.415 392.828 130.75 398.208V423.038L142.422 450.351L134.252 490.079L868.41 465.249L853.237 423.038C857.517 411.864 866.543 388.772 868.41 385.793Z" fill="#714A4A"/>
<path d="M253.304 540.981C216.343 536.842 143.589 529.993 134.252 529L149.666 611.5L256.806 596.848V540.981H253.304Z" fill="#714A4A"/>
<path d="M567.277 554.637L420.75 557.75L425.75 609V624L567.277 632.852V554.637Z" fill="#714A4A"/>
<path d="M862.166 576.5L769.2 570.777L778.537 586.916L764.531 615.471V641.542L857.166 651.5L862.166 576.5Z" fill="#714A4A"/>
</svg>
