<svg width="400" height="400" viewBox="0 0 400 400" fill="none" xmlns="http://www.w3.org/2000/svg">
<path d="M325.319 349.278L163.544 177.264L149.5 184.431L136.922 175.216L116.444 184.431L90.847 206.957L31.461 305.251L20.1982 312.418C20.1982 309.688 18.1504 302.384 18.1504 299.107C18.1504 295.012 23.2699 237.674 28.3894 229.482C31.3016 224.823 52.2803 174.533 63.2018 151.666L80.6081 134.26L93.9187 121.973C90.847 108.663 94.9426 107.297 94.9426 103.543C96.9904 103.884 90.2327 95.3519 87.7754 91.2563C87.0928 89.2086 83.6798 86.1369 87.7754 68.7306C109.277 53.3722 103.134 56.4439 106.205 56.4439C112.349 56.4439 115.421 54.3961 118.492 56.4439C120.95 58.0821 126.001 59.8568 126.683 61.5633L132.827 64.635C135.216 64.635 141.018 59.5155 149.209 61.5633C150.798 61.9606 181.974 32.2116 197.332 17.5358C199.38 16.1706 204.909 14.2593 206.547 13.4402C208.186 12.6211 238.971 50.3004 254.671 69.7545L233.169 99.4475L202.639 113.235C202.854 113.93 203.128 114.786 203.476 115.83C206.752 125.659 204.158 134.26 201.428 137.332L380.61 330.848L381.634 347.23L369.347 364.637C364.227 366.343 357.544 366.685 352.965 366.685C349.893 366.685 344.091 360.2 338.63 358.493L325.319 349.278Z" fill="#200707"/>
<rect x="81.2432" y="80.2853" width="40.9559" height="396.407" rx="20.4779" transform="rotate(-43.347 81.2432 80.2853)" fill="#543838"/>
<rect x="83.2129" y="81.8978" width="40.3694" height="390.731" rx="20.1847" transform="rotate(-43.347 83.2129 81.8978)" fill="#543838"/>
<rect x="83.2129" y="81.8978" width="40.3694" height="390.731" rx="20.1847" transform="rotate(-43.347 83.2129 81.8978)" fill="#543838"/>
<path d="M249.551 70.7786L207.571 17.5359C187.093 23.6793 129.072 99.1074 126.683 101.495C122.588 105.591 105.182 117.878 100.062 120.95C94.4403 124.323 71.9098 148.973 67.2974 154.738C63.2018 159.858 25.3177 241.769 25.3177 258.152C25.3177 274.534 19.1745 287.845 25.3177 306.275L39.6522 282.725L58.0823 248.937L85.7275 204.909L113.373 178.288L144.09 167.025L164.568 135.284L203.476 107.639L231.121 95.3521L249.551 70.7786Z" fill="#543838"/>
<path d="M227.025 69.7545L206.548 39.0376C190.097 43.0896 135.016 101.388 133.092 102.985C129.793 105.723 130.434 108.302 115.421 116.854C115.421 116.854 92.5187 137.568 88.7993 141.427C85.4967 144.854 51.3083 196.917 51.2553 207.933C51.2023 218.948 46.2303 227.875 51.0997 240.292L62.677 224.512L77.5737 201.863L99.8971 172.364L122.164 154.57L146.846 147.115L163.379 125.851L194.686 107.412L215.763 91.2563L227.025 69.7545Z" fill="#472F2F"/>
<rect x="86.0928" y="115.257" width="83.9595" height="93.2423" rx="12" transform="rotate(-43.347 86.0928 115.257)" fill="#755050"/>
<path d="M130.908 138.252C128.01 137.744 126.072 134.982 126.58 132.083L135.931 78.7678C136.439 75.8691 139.201 73.9313 142.1 74.4397C144.999 74.9481 146.937 77.7102 146.428 80.6089L137.078 133.924C136.569 136.823 133.807 138.761 130.908 138.252Z" fill="#6F4B4B"/>
<rect x="104.158" y="105.784" width="64.7867" height="10.6576" rx="5.32878" transform="rotate(-12.9574 104.158 105.784)" fill="#6F4B4B"/>
<rect x="186.069" y="160.881" width="11.652" height="253.171" rx="5.82602" transform="rotate(-43.347 186.069 160.881)" fill="#654040"/>
<path d="M150.809 166.343C145.323 149.342 146.679 135.602 154.578 128.146C162.477 120.69 176.273 120.129 192.93 126.586L213.615 190.691L150.809 166.343Z" fill="#543838"/>
</svg>
