<svg width="400" height="400" viewBox="0 0 400 400" fill="none" xmlns="http://www.w3.org/2000/svg">
<g clip-path="url(#clip0_135_585)">
<path d="M195.616 10.5482C197.988 8.01078 202.012 8.01078 204.384 10.5482L251.378 60.8298C254.138 63.7828 258.039 65.3988 262.079 65.2623L330.863 62.9377C334.334 62.8204 337.18 65.6658 337.062 69.137L334.738 137.921C334.601 141.961 336.217 145.862 339.17 148.622L389.452 195.616C391.989 197.988 391.989 202.012 389.452 204.384L339.17 251.378C336.217 254.138 334.601 258.039 334.738 262.079L337.062 330.863C337.18 334.334 334.334 337.18 330.863 337.062L262.079 334.738C258.039 334.601 254.138 336.217 251.378 339.17L204.384 389.452C202.012 391.989 197.988 391.989 195.616 389.452L148.622 339.17C145.862 336.217 141.961 334.601 137.921 334.738L69.137 337.062C65.6658 337.18 62.8204 334.334 62.9377 330.863L65.2623 262.079C65.3988 258.039 63.7828 254.138 60.8298 251.378L10.5482 204.384C8.01078 202.012 8.01078 197.988 10.5482 195.616L60.8298 148.622C63.7828 145.862 65.3988 141.961 65.2623 137.921L62.9377 69.137C62.8204 65.6658 65.6658 62.8204 69.137 62.9377L137.921 65.2623C141.961 65.3988 145.862 63.7828 148.622 60.8298L195.616 10.5482Z" fill="#543838" stroke="#352F2F" stroke-width="8"/>
</g>
<defs>
<clipPath id="clip0_135_585">
<rect width="400" height="400" fill="white"/>
</clipPath>
</defs>
</svg>
