<svg width="400" height="400" viewBox="0 0 400 400" fill="none" xmlns="http://www.w3.org/2000/svg">
<path d="M193.403 237.007C172.517 217.705 129.325 178.462 123.644 175.909H271.516L193.403 237.007Z" fill="#2C0101"/>
<path d="M72.0905 216.945C54.5087 197.643 18.1494 158.4 13.3672 155.847L138.867 162L72.0905 216.945Z" fill="#2C0101"/>
<path d="M320.043 236.889C303.508 216.427 269.314 174.827 264.816 172.12H381.885L320.043 236.889Z" fill="#2C0101"/>
<path d="M381.452 160.982L382.349 210.287L370.062 209.565L362.808 257.916L311.922 249.367L317.92 206.504L219.123 200.704L216.256 257.916L176.41 255.881V198.196L86.6621 192.927L98.6075 233.084L35.1016 249.367L17.5441 176.742L0 129.409H18.7972H23.5361L37.5945 56C37.5945 56 119.988 87.9204 134.023 87.9204C148.058 87.9204 278.803 77.201 343.131 70.5137C347.199 81.4215 353.506 97.3753 355.598 107.379L381.375 106.155L387.641 159.502L381.452 160.982Z" fill="#2C0101"/>
<path d="M148.289 128.497C110.277 127.737 32.0806 126.674 23.3921 128.497L30.0756 97.9482L148.289 128.497Z" fill="#2C0101"/>
<path d="M340.439 112.995C340.401 113.01 340.352 113.027 340.293 113.046C321.175 119.784 257.208 139.721 248.541 142.632C239.853 145.55 325.123 155.855 351.3 159.958C315.654 155.855 206.101 146.28 193.403 146.28C177.661 146.28 333.229 115.339 340.293 113.046C340.342 113.029 340.391 113.012 340.439 112.995Z" fill="#2C0101"/>
<path d="M79.366 192.331L32.9995 186.404L84.7963 215.129L79.366 192.331Z" fill="#2C0101"/>
<path d="M179.2 164.518C139.378 156.918 59.232 141.72 57.227 141.72L18.3794 135.336C20.6072 139.744 25.3135 149.289 26.316 152.207C27.5692 155.854 58.8979 172.269 61.4042 174.093C63.9105 175.916 150.378 180.02 158.314 180.02C164.664 180.02 235.035 186.099 269.427 189.139L332.502 194.155H373.856L367.172 181.388L326.654 169.989H252.301L179.2 164.518Z" fill="#2C0101"/>
<path d="M42.1895 83.8133C43.1641 80.3176 45.0299 71.4113 44.6958 63.7512L219.301 132.145C213.592 133.665 200.504 136.978 193.82 138.072C187.137 139.166 89.9483 102.356 42.1895 83.8133Z" fill="#2C0101"/>
<path d="M232.25 122.57C226.569 123.299 204.263 100.38 193.82 88.8288C239.073 84.2693 331.082 74.7854 337.097 73.3263C343.112 71.8672 339.603 90.6526 337.097 100.228C304.515 107.371 237.931 121.84 232.25 122.57Z" fill="#2C0101"/>
<path d="M185.466 234.279C186.719 224.856 189.225 204.277 189.225 197.347H207.605V234.279C207.605 239.021 192.845 236.255 185.466 234.279Z" fill="#2C0101"/>
<path d="M192.645 228.139C172.29 210.906 130.197 175.869 124.661 173.589H268.77L192.645 228.139Z" fill="#3F2B2B"/>
<path d="M74.4188 210.227C57.2843 192.994 21.85 157.957 17.1895 155.677H138.502L74.4188 210.227Z" fill="#3F2B2B"/>
<path d="M319.471 224.882C304.291 207.649 272.9 172.612 268.771 170.332H376.243L319.471 224.882Z" fill="#3F2B2B"/>
<path d="M376.02 160.238L378.277 205.756L366.121 205.055L359.958 252.979L316.4 246.058L318.289 202.293L213.406 196.237V252.979H178.804V194.24L83.4229 188.733L92.0938 229.775L38.3581 244.023L21.2603 174.334L4.1626 132.073H22.4816H26.9508L39.9864 62.0468C39.9864 62.0468 120.753 93.3999 134.431 93.3999C148.109 93.3999 276.912 81.4586 339.604 75.488C343.727 85.6173 349.758 102.367 351.217 112.382L375.835 111.312L381.941 158.941L376.02 160.238Z" fill="#543838"/>
<path d="M148.68 131.259C111.634 130.581 35.4274 129.631 26.96 131.259L33.4734 103.984L148.68 131.259Z" fill="#472E2E"/>
<path d="M335.94 117.418C335.903 117.432 335.856 117.447 335.798 117.464C317.166 123.48 254.826 141.28 246.381 143.879C237.913 146.484 321.014 155.684 346.525 159.348C311.786 155.684 205.02 147.136 192.645 147.136C177.304 147.136 328.914 119.511 335.798 117.464C335.846 117.449 335.893 117.433 335.94 117.418Z" fill="#472E2E"/>
<path d="M81.5096 188.252L36.3228 182.959L86.8018 208.606L81.5096 188.252Z" fill="#472E2E"/>
<path d="M320.484 202.291L363.622 224.483L366.065 205.756L320.484 202.291Z" fill="#472E2E"/>
<path d="M194.273 118.639C174.055 110.362 132.966 93.6442 130.36 92.9928C141.216 92.9928 166.998 90.5503 166.998 90.5503C166.998 90.5503 186.539 108.462 194.273 118.639Z" fill="#472E2E"/>
<path d="M178.804 163.419C139.995 156.634 61.888 143.065 59.934 143.065L22.0747 137.365C24.2458 141.301 28.8324 149.822 29.8094 152.428C31.0307 155.684 61.5623 170.34 64.0049 171.968C66.4474 173.596 150.715 177.26 158.45 177.26C164.637 177.26 233.218 182.688 266.735 185.402L328.206 189.88H368.507L361.994 178.481L322.506 168.304H250.045L178.804 163.419Z" fill="#644141"/>
<path d="M45.2788 91.3646C46.2287 88.2435 48.047 80.2917 47.7213 73.4526L217.885 134.516C212.321 135.873 199.566 138.831 193.052 139.808C186.539 140.785 91.8227 107.92 45.2788 91.3646Z" fill="#644141"/>
<path d="M230.504 125.967C224.968 126.618 203.229 106.155 193.052 95.8425C237.153 91.7716 326.822 83.3042 332.684 82.0015C338.546 80.6988 335.126 97.4709 332.684 106.02C300.931 112.397 236.041 125.316 230.504 125.967Z" fill="#644141"/>
<path d="M184.91 225.704C186.131 217.291 188.574 198.917 188.574 192.729H206.486V225.704C206.486 229.937 192.102 227.468 184.91 225.704Z" fill="#644141"/>
<path d="M179.211 252.572V242.802L213.406 252.572H179.211Z" fill="#472E2E"/>
</svg>
