<svg width="400" height="400" viewBox="0 0 400 400" fill="none" xmlns="http://www.w3.org/2000/svg">
<circle cx="200" cy="200" r="156" fill="#312222"/>
<circle cx="200" cy="200" r="150" fill="#543838"/>
<circle cx="200" cy="200" r="126" fill="#472F2F"/>
<circle cx="200" cy="200" r="87.75" fill="#543838"/>
<circle cx="200" cy="200" r="62.25" fill="#654040"/>
<path fill-rule="evenodd" clip-rule="evenodd" d="M140.508 259.832C147.83 267.155 159.702 267.155 167.025 259.832L200.17 226.687L233.316 259.833C240.638 267.155 252.51 267.155 259.833 259.833C267.155 252.51 267.155 240.638 259.833 233.316L226.687 200.17L259.832 167.025C267.155 159.702 267.155 147.831 259.832 140.508C252.51 133.186 240.638 133.186 233.316 140.508L200.17 173.654L167.025 140.508C159.702 133.186 147.831 133.186 140.508 140.508C133.186 147.831 133.186 159.702 140.508 167.025L173.654 200.17L140.508 233.316C133.186 240.638 133.186 252.51 140.508 259.832Z" fill="#472E2E"/>
<path fill-rule="evenodd" clip-rule="evenodd" d="M153.611 153.611C148.463 158.759 148.463 167.105 153.611 172.253L181.575 200.217L153.611 228.181C148.463 233.328 148.463 241.675 153.611 246.823C158.759 251.971 167.105 251.971 172.253 246.823L200.217 218.859L228.181 246.823C233.329 251.971 241.675 251.971 246.823 246.823C251.971 241.675 251.971 233.328 246.823 228.181L218.859 200.217L246.823 172.253C251.971 167.105 251.971 158.759 246.823 153.611C241.675 148.463 233.328 148.463 228.181 153.611L200.217 181.574L172.254 153.611C167.106 148.463 158.759 148.463 153.611 153.611Z" fill="#543838"/>
</svg>
