<svg width="400" height="400" viewBox="0 0 400 400" fill="none" xmlns="http://www.w3.org/2000/svg">
<path d="M323.272 367.722L161.496 195.707L144.09 197.755L134.875 193.659L114.397 202.874L88.7993 225.4L29.4133 323.694L18.1505 330.861C18.1505 328.131 16.1027 320.827 16.1027 317.551C16.1027 313.455 21.2221 256.117 26.3416 247.926C29.2539 243.266 50.2325 192.977 61.1541 170.11L78.5604 152.703L91.871 140.417C88.7993 127.106 92.8949 125.741 92.8949 121.987C94.9427 122.328 88.185 113.795 85.7276 109.7C85.045 107.652 81.632 104.58 85.7276 87.174C107.229 71.8156 101.086 74.8873 104.158 74.8873C110.301 74.8873 113.373 72.8395 116.445 74.8873C118.902 76.5255 123.953 78.3002 124.636 80.0067L130.779 83.0784C133.168 83.0784 138.97 77.959 147.161 80.0067C148.751 80.4041 179.926 50.655 195.285 35.9792C197.332 34.614 202.861 32.7027 204.5 31.8836C206.138 31.0645 236.923 68.7439 252.623 88.1979L231.121 117.891L200.591 131.678C200.806 132.373 201.08 133.229 201.428 134.273C204.704 144.103 202.111 152.703 199.38 155.775L378.562 349.292L379.586 365.674L367.299 383.08C362.18 384.787 355.496 385.128 350.917 385.128C347.845 385.128 342.043 378.643 336.582 376.937L323.272 367.722Z" fill="black" fill-opacity="0.5"/>
<rect x="79.1951" y="98.7284" width="40.9559" height="396.407" rx="20.4779" transform="rotate(-43.347 79.1951 98.7284)" fill="black" fill-opacity="0.5"/>
<rect x="81.1649" y="100.341" width="40.3694" height="390.731" rx="20.1847" transform="rotate(-43.347 81.1649 100.341)" fill="black" fill-opacity="0.5"/>
<path d="M247.503 89.2216L205.523 35.979C185.045 42.1224 127.024 117.55 124.636 119.939C120.54 124.034 103.134 136.321 98.0142 139.393C92.3924 142.766 69.8619 167.416 65.2495 173.181C61.154 178.301 23.2699 260.212 23.2699 276.595C23.2699 292.977 17.1267 306.288 23.2699 324.718L37.6043 301.168L56.0345 267.38L83.6797 223.352L111.325 196.731L142.042 185.468L162.52 153.727L201.428 126.082L229.073 113.795L247.503 89.2216Z" fill="black" fill-opacity="0.5"/>
<path d="M224.977 88.1977L204.5 57.4808C188.049 61.5327 132.968 119.831 131.044 121.428C127.745 124.166 128.386 126.746 113.373 135.297C113.373 135.297 90.4708 156.011 86.7514 159.87C83.4487 163.297 49.2603 215.36 49.2073 226.376C49.1543 237.392 44.1823 246.318 49.0517 258.735L60.6291 242.955L75.5257 220.306L97.8491 190.807L120.116 173.013L144.798 165.558L161.331 144.294L192.638 125.855L213.715 109.7L224.977 88.1977Z" fill="black" fill-opacity="0.5"/>
<rect x="84.0448" y="133.7" width="83.9595" height="93.2423" rx="12" transform="rotate(-43.347 84.0448 133.7)" fill="black" fill-opacity="0.5"/>
<rect x="184.022" y="179.325" width="11.652" height="253.171" rx="5.82602" transform="rotate(-43.347 184.022 179.325)" fill="black" fill-opacity="0.5"/>
<path d="M148.761 184.787C143.275 167.785 144.631 154.045 152.53 146.589C160.429 139.133 174.225 138.572 190.882 145.029L211.567 209.134L148.761 184.787Z" fill="black" fill-opacity="0.5"/>
<path d="M325.319 349.278L163.544 177.264L146.138 179.311L136.923 175.216L116.445 184.431L90.8472 206.957L31.4612 305.251L20.1983 312.418C20.1983 309.688 18.1505 302.384 18.1505 299.107C18.1505 295.012 23.27 237.674 28.3895 229.482C31.3017 224.823 52.2804 174.533 63.202 151.666L80.6082 134.26L93.9189 121.973C90.8472 108.663 94.9428 107.297 94.9428 103.543C96.9905 103.884 90.2328 95.352 87.7755 91.2564C87.0929 89.2086 83.6799 86.1369 87.7755 68.7307C109.277 53.3722 103.134 56.4439 106.206 56.4439C112.349 56.4439 115.421 54.3961 118.492 56.4439C120.95 58.0821 126.001 59.8569 126.684 61.5634L132.827 64.6351C135.216 64.6351 141.018 59.5156 149.209 61.5634C150.799 61.9607 181.974 32.2117 197.332 17.5358C199.38 16.1706 204.909 14.2594 206.547 13.4403C208.186 12.6211 238.971 50.3005 254.671 69.7545L233.169 99.4475L202.639 113.235C202.854 113.93 203.128 114.786 203.476 115.83C206.752 125.659 204.158 134.26 201.428 137.332L380.61 330.848L381.634 347.231L369.347 364.637C364.228 366.343 357.544 366.685 352.965 366.685C349.893 366.685 344.091 360.2 338.63 358.493L325.319 349.278Z" fill="#200707"/>
<rect x="81.2428" y="80.2854" width="40.9559" height="396.407" rx="20.4779" transform="rotate(-43.347 81.2428 80.2854)" fill="#543838"/>
<rect x="83.2126" y="81.8978" width="40.3694" height="390.731" rx="20.1847" transform="rotate(-43.347 83.2126 81.8978)" fill="#543838"/>
<rect x="83.2126" y="81.8978" width="40.3694" height="390.731" rx="20.1847" transform="rotate(-43.347 83.2126 81.8978)" fill="#543838"/>
<path d="M249.551 70.7786L207.571 17.536C187.093 23.6794 129.071 99.1074 126.683 101.496C122.588 105.591 105.181 117.878 100.062 120.95C94.4401 124.323 71.9097 148.973 67.2973 154.738C63.2017 159.858 25.3176 241.769 25.3176 258.152C25.3176 274.534 19.1744 287.845 25.3176 306.275L39.6521 282.725L58.0822 248.937L85.7274 204.909L113.373 178.288L144.09 167.025L164.567 135.284L203.475 107.639L231.121 95.3521L249.551 70.7786Z" fill="#543838"/>
<path d="M227.025 69.7546L206.547 39.0377C190.097 43.0896 135.016 101.388 133.092 102.985C129.793 105.723 130.434 108.302 115.421 116.854C115.421 116.854 92.5186 137.568 88.7992 141.427C85.4966 144.854 51.3081 196.917 51.2552 207.933C51.2022 218.948 46.2301 227.875 51.0995 240.292L62.6769 224.512L77.5735 201.863L99.897 172.364L122.164 154.57L146.846 147.115L163.379 125.851L194.686 107.412L215.762 91.2564L227.025 69.7546Z" fill="#472F2F"/>
<rect x="86.0925" y="115.257" width="83.9595" height="93.2423" rx="12" transform="rotate(-43.347 86.0925 115.257)" fill="#755050"/>
<path d="M130.908 138.252C128.009 137.744 126.072 134.982 126.58 132.083L135.931 78.7678C136.439 75.8691 139.201 73.9313 142.1 74.4397C144.999 74.9481 146.937 77.7102 146.428 80.6089L137.077 133.924C136.569 136.823 133.807 138.761 130.908 138.252Z" fill="#6F4B4B"/>
<rect x="104.158" y="105.784" width="64.7867" height="10.6576" rx="5.32878" transform="rotate(-12.9574 104.158 105.784)" fill="#6F4B4B"/>
<rect x="186.069" y="160.881" width="11.652" height="253.171" rx="5.82602" transform="rotate(-43.347 186.069 160.881)" fill="#654040"/>
<path d="M150.809 166.344C145.323 149.342 146.679 135.602 154.578 128.146C162.477 120.69 176.272 120.129 192.929 126.586L213.614 190.691L150.809 166.344Z" fill="#543838"/>
</svg>
