<svg width="400" height="400" viewBox="0 0 400 400" fill="none" xmlns="http://www.w3.org/2000/svg">
<rect x="22" y="23" width="355" height="355" rx="8" fill="#543838" stroke="#312222" stroke-width="12"/>
<path fill-rule="evenodd" clip-rule="evenodd" d="M47 351.5L49 76L47 61H360L363.5 355L47 351.5ZM79.5 276L155.5 201L79.5 126V276ZM196.5 156.5L122 80H279L196.5 156.5ZM243.5 201L319.5 278.5V125.5L243.5 201ZM118.5 321C117.3 321 171.667 268.667 199 242.5L276.5 321H118.5Z" fill="#332525"/>
<rect x="372.216" y="341.397" width="45" height="443.21" transform="rotate(135 372.216 341.397)" fill="#472E2E"/>
<rect width="45" height="443.21" transform="matrix(-0.707107 -0.707107 -0.707107 0.707107 372.217 58.8198)" fill="#472E2E"/>
<rect width="45" height="345" transform="matrix(-1 0 0 1 72 28)" fill="#472F2F"/>
<rect width="45" height="345" transform="matrix(-1 0 0 1 372 28)" fill="#472F2F"/>
<rect x="372" y="28" width="45" height="345" transform="rotate(90 372 28)" fill="#472F2F"/>
<rect x="371" y="329" width="43" height="343" transform="rotate(90 371 329)" fill="#472F2F" stroke="#472E2E" stroke-width="2"/>
</svg>
