<svg width="400" height="400" viewBox="0 0 400 400" fill="none" xmlns="http://www.w3.org/2000/svg">
<path d="M304.949 357.424L254.383 303.041C246.114 305.585 227.859 310.864 220.99 311.628C214.12 312.391 201.59 322.123 196.184 326.893L163.745 323.077L158.02 297.316C165.335 296.362 180.918 294.454 184.735 294.454C188.551 294.454 197.138 282.369 200.954 276.327L208.587 263.924L56.8877 144.663L45.4388 68.3368L81.6939 99.8215V94.097C74.3792 88.3725 60.1316 77.1143 61.6581 77.8776C63.1847 78.6409 43.8486 59.75 33.9898 50.2092L129.398 63.5664L119.857 94.097L124.628 105.546L141.801 68.3368L263.923 215.265L279.189 200L336.434 188.551L343.112 230.531C337.07 232.757 324.221 237.018 321.168 236.255C318.115 235.492 303.995 262.651 297.316 276.327L343.112 327.847L353.607 333.571L366.01 342.158L353.607 378.413L349.791 387L308.765 374.597L304.949 357.424Z" fill="black" fill-opacity="0.5"/>
<rect x="247.751" y="287.257" width="37.6168" height="122.169" rx="18.8084" transform="rotate(-43.347 247.751 287.257)" fill="black" fill-opacity="0.5"/>
<rect x="245.796" y="284.974" width="37.6168" height="39.6029" rx="6" transform="rotate(-43.347 245.796 284.974)" fill="black" fill-opacity="0.5"/>
<path d="M313.536 368.872V355.515L342.158 335.48L359.332 341.204V349.791C359.332 353.607 356.469 358.378 354.561 363.148C352.653 367.918 348.837 371.735 347.883 375.551C347.119 378.604 340.568 376.823 337.388 375.551L317.352 371.735L313.536 368.872Z" fill="black" fill-opacity="0.5"/>
<path d="M60.6722 138.2C61.0846 141.225 93.9583 165.759 110.344 177.648C147.877 207.183 219.966 264.153 238.875 279.946L283.122 251.348L143.09 78.8188L125.858 114.87L115.589 96.0485L122.251 67.2161L43.5306 54.8378L86.3269 93.2973L89.4198 115.985C79.6804 105.758 47.9816 71.9485 49.4595 77.1393C51.307 83.6278 60.1567 134.418 60.6722 138.2Z" fill="black" fill-opacity="0.5"/>
<path d="M116.8 168.495C117.083 170.573 138.628 187.568 149.365 195.806C173.971 216.256 221.233 255.7 233.634 266.629L262.338 247.214L145.926 99.6162L139.393 122.654L141.584 138.724L127.877 136.741L104.288 112.033L103.9 130.381L113.654 145.421C99.9206 143.567 77.0868 135.146 78.075 138.716C79.3103 143.178 116.445 165.897 116.8 168.495Z" fill="black" fill-opacity="0.5"/>
<rect x="286.433" y="296.076" width="6.82943" height="69.8752" rx="3.41472" transform="rotate(-43.347 286.433 296.076)" fill="black" fill-opacity="0.5"/>
<path d="M244.842 299.225L269.648 297.316L291.592 277.281C295.408 270.284 303.232 255.909 303.995 254.383C304.758 252.856 313.854 239.117 318.306 232.439L335.48 227.668L330.709 194.276L280.143 207.633L261.061 227.668V239.117L251.52 251.52L240.071 260.107H219.082C215.901 265.196 209.159 275.754 207.633 277.281C206.106 278.807 192.367 291.274 185.689 297.316L167.561 299.225V321.168C173.922 321.486 187.597 321.932 191.413 321.168C195.23 320.405 207.633 312.582 213.357 308.765L244.842 299.225Z" fill="black" fill-opacity="0.5"/>
<path d="M304.949 344.066L254.383 289.684C246.114 292.228 227.859 297.507 220.99 298.27C214.12 299.034 201.59 308.765 196.184 313.536L163.745 309.719L158.02 283.959C165.335 283.005 180.918 281.097 184.735 281.097C188.551 281.097 197.138 269.012 200.954 262.969L208.587 250.566L56.8877 131.306L45.4388 54.9796L81.6939 86.4643V80.7398C74.3792 75.0153 60.1316 63.7572 61.6581 64.5204C63.1847 65.2837 43.8486 46.3929 33.9898 36.8521L129.398 50.2092L119.857 80.7398L124.628 92.1888L141.801 54.9796L263.923 201.908L279.189 186.643L336.434 175.194L343.112 217.174C337.07 219.4 324.221 223.661 321.168 222.898C318.115 222.135 303.995 249.294 297.316 262.969L343.112 314.49L353.607 320.214L366.01 328.801L353.607 365.056L349.791 373.643L308.765 361.24L304.949 344.066Z" fill="#200707"/>
<rect x="247.751" y="273.9" width="37.6168" height="122.169" rx="18.8084" transform="rotate(-43.347 247.751 273.9)" fill="#543838"/>
<path d="M60.6722 124.842C61.0846 127.868 93.9583 152.402 110.344 164.291C147.877 193.826 219.966 250.796 238.875 266.589L283.122 237.99L143.09 65.4616L125.858 101.512L115.589 82.6913L122.251 53.8589L43.5306 41.4806L86.3269 79.9401L89.4198 102.628C79.6804 92.4011 47.9816 58.5913 49.4595 63.7821C51.307 70.2706 60.1567 121.061 60.6722 124.842Z" fill="#543838"/>
<path d="M116.8 155.138C117.083 157.216 138.628 174.211 149.365 182.449C173.971 202.899 221.233 242.343 233.634 253.272L262.338 233.857L145.926 86.259L145.926 112.224L171.232 162.856L127.877 123.384L103.638 90.2805L100.775 115.087L68.3367 103.638C74.0612 119.857 77.0868 121.789 78.075 125.359C79.3103 129.821 116.445 152.54 116.8 155.138Z" fill="#472F2F"/>
<path d="M313.536 355.515V342.158L342.158 322.122L359.332 327.847V336.434C359.332 340.25 356.469 345.02 354.561 349.791C352.653 354.561 348.837 358.378 347.883 362.194C347.119 365.247 340.568 363.466 337.388 362.194L317.352 358.378L313.536 355.515Z" fill="#543838"/>
<path d="M244.842 285.867L269.648 283.959L291.592 263.923C295.408 256.927 303.232 242.552 303.995 241.025C304.758 239.499 313.854 225.76 318.306 219.082L335.48 214.311L330.709 180.918L280.143 194.275L261.061 214.311V225.76L251.52 238.163L240.071 246.75H219.082C215.901 251.838 209.159 262.397 207.633 263.923C206.106 265.45 192.367 277.917 185.689 283.959L167.561 285.867V307.811C173.922 308.129 187.597 308.574 191.413 307.811C195.23 307.048 207.633 299.224 213.357 295.408L244.842 285.867Z" fill="#472F2F"/>
<path d="M244.842 285.867L269.648 283.959L291.592 263.923C295.408 256.927 303.232 242.552 303.995 241.025C304.758 239.499 313.854 225.76 318.306 219.082L335.48 214.311L330.709 180.918L280.143 194.275L261.061 214.311V225.76L251.52 238.163L240.071 246.75H219.082C215.901 251.838 209.159 262.397 207.633 263.923C206.106 265.45 192.367 277.917 185.689 283.959L167.561 285.867V307.811C173.922 308.129 187.597 308.574 191.413 307.811C195.23 307.048 207.633 299.224 213.357 295.408L244.842 285.867Z" fill="#543838"/>
<path d="M291.592 280.143L282.051 268.694L273.464 277.281L271.892 282.785C279.842 293.916 296.125 316.369 297.652 317.132L324.985 344.066L344.066 341.204L338.342 325.939L324.985 321.168L321.168 302.087L310.673 294.454L291.592 290.638V280.143Z" fill="#472E2E"/>
</svg>
