<svg width="400" height="400" viewBox="0 0 400 400" fill="none" xmlns="http://www.w3.org/2000/svg">
<path d="M230.812 253V213.5H301.559V226V227.146L302.165 228.118L306.557 235.154L302.032 243.613L301.559 244.497V245.5L301.559 290.857L301.559 293.961L304.566 294.732L326.031 300.232L329.323 301.075L330.687 297.963L333.52 291.504L339.177 294.414L344.642 297.225L345 291.09L351.06 187.233L351.106 186.441L350.846 185.691L345.261 169.561L350.807 154.917L351.066 154.232V153.5V138.693V137.519L350.432 136.531L339.712 119.838L339.428 119.397L339.041 119.044L330.025 110.823L320.521 97.6586L319.323 96H317.277H94.6663H93.2991L92.2179 96.8369L78.0069 107.837L77.4991 108.23L77.1399 108.762L67.6026 122.89L49.2854 140.083L48.0229 141.269V143V167V167.722L48.275 168.398L52.5397 179.835L48.0995 202.222L47.9534 202.959L48.0845 203.698L63.4413 290.341L64.3353 295.385L69.0121 293.295L83.4948 286.822L90.4306 292.696L92.2486 294.235L94.4684 293.37L103.815 289.727L106.166 288.81L106.351 286.294L107.308 273.294L107.521 270.398L104.835 269.298L97.3929 266.251L104.062 263.121L106.362 262.041V259.5V243.556L107.208 213.5H161.433L166.456 243.566L160.855 285.47L160.656 286.963L161.491 288.217L170.813 302.217L174.228 307.346L177.523 302.138L185.428 289.641L209.827 285.451L225.745 289.855L231.809 291.533L230.755 285.33L227.582 266.648L230.697 253.953L230.812 253.483V253Z" fill="#614040" stroke="#3E2B2B" stroke-width="8"/>
<path d="M347.066 138.5L52.0664 143L69.8037 125L80.5395 111L93.6091 100H317.66L347.066 138.5Z" fill="#503232"/>
<path d="M305.066 132.965L94.0664 136L106.753 123.86L121.5 114.5L129 107H275L282 114.5L305.066 132.965Z" fill="#3F2626"/>
<path d="M65.514 129C62.7172 129 73.9044 120 74.8367 119L330.744 116.5L340.066 129H65.514Z" fill="#533636"/>
<path d="M80.8963 110L88.8205 105L320.955 104L325.616 110H80.8963Z" fill="#533636"/>
<path d="M347.064 154.217C347.811 153.025 150.666 157.031 52 159.183V169.115L56.6687 180.04L53.4006 195.932L347.064 186L340.995 169.115C342.707 164.646 346.317 155.409 347.064 154.217Z" fill="#714A4A"/>
<path d="M101.022 216.292C86.2374 214.637 57.1357 211.897 53.4007 211.5L59.5664 244.5L102.422 238.639V216.292H101.022Z" fill="#714A4A"/>
<path d="M226.611 221.755L168 223L170 243.5V249.5L226.611 253.041V221.755Z" fill="#714A4A"/>
<path d="M344.566 230.5L307.38 228.211L311.115 234.667L305.512 246.088V256.517L342.566 260.5L344.566 230.5Z" fill="#714A4A"/>
</svg>
