<svg width="501" height="501" viewBox="0 0 501 501" fill="none" xmlns="http://www.w3.org/2000/svg">
<path d="M131.669 336.998L122.366 333.188L130.702 329.276L133.578 327.927V324.75V304.82L134.635 267.25H202.416L208.695 304.833L201.694 357.213L201.445 359.079L202.488 360.646L214.141 378.146L218.41 384.558L222.528 378.048L232.41 362.427L262.909 357.188L282.806 362.694L290.386 364.791L289.069 357.038L285.103 333.685L288.996 317.816L289.14 317.229V316.625V267.25H377.573V282.875V284.307L378.332 285.523L383.822 294.318L378.165 304.891L377.573 305.997V307.25L377.574 363.946L377.574 367.826L381.333 368.79L408.164 375.665L412.278 376.719L413.984 372.829L417.526 364.755L424.597 368.392L431.428 371.907L431.875 364.237L439.45 234.416L439.507 233.426L439.183 232.489L432.202 212.326L439.134 194.021L439.458 193.165V192.25V173.741V172.273L438.665 171.039L425.265 150.173L424.911 149.622L424.426 149.18L413.156 138.904L401.276 122.448L399.779 120.375H397.222H118.958H117.249L115.898 121.421L98.1337 135.171L97.4991 135.662L97.05 136.328L85.1284 153.988L62.2319 175.479L60.6538 176.961V179.125V209.125V210.027L60.9689 210.872L66.2998 225.168L60.7495 253.152L60.5668 254.073L60.7307 254.998L79.9267 363.301L81.0443 369.607L86.8903 366.994L104.994 358.902L113.663 366.244L115.936 368.169L118.711 367.088L130.394 362.534L133.333 361.388L133.564 358.242L134.76 341.992L135.026 338.373L131.669 336.998Z" fill="#614040" stroke="#3E2B2B" stroke-width="10"/>
<path d="M434.458 173.5L65.708 179.125L87.8797 156.625L101.299 139.125L117.636 125.375H397.7L434.458 173.5Z" fill="#503232"/>
<path d="M381.958 166.581L118.208 170.375L134.066 155.201L152.5 143.5L161.875 134.125H344.375L353.125 143.5L381.958 166.581Z" fill="#3F2626"/>
<path d="M82.5175 161.625C79.0215 161.625 93.0055 150.375 94.1708 149.125L414.055 146L425.708 161.625H82.5175Z" fill="#533636"/>
<path d="M101.745 137.875L111.651 131.625L401.819 130.375L407.645 137.875H101.745Z" fill="#533636"/>
<path d="M434.455 193.146C435.389 191.657 188.957 196.664 65.625 199.354V211.769L71.4609 225.425L67.3758 245.289L434.455 232.874L426.868 211.769C429.008 206.182 433.521 194.636 434.455 193.146Z" fill="#714A4A"/>
<path d="M126.902 270.74C108.422 268.671 72.0446 265.247 67.3759 264.75L75.083 306L128.653 298.674V270.74H126.902Z" fill="#714A4A"/>
<path d="M283.888 277.569L210.625 279.125L213.125 304.75V312.25L283.888 316.676V277.569Z" fill="#714A4A"/>
<path d="M431.333 288.5L384.85 285.638L389.519 293.708L382.516 307.985V321.021L428.833 326L431.333 288.5Z" fill="#714A4A"/>
</svg>
