<svg width="1001" height="1001" viewBox="0 0 1001 1001" fill="none" xmlns="http://www.w3.org/2000/svg">
<rect x="55.75" y="57.75" width="887.5" height="887.5" rx="20" fill="#543838" stroke="#312222" stroke-width="30"/>
<path fill-rule="evenodd" clip-rule="evenodd" d="M118.25 879L123.25 190.25L118.25 152.75H900.75L909.5 887.75L118.25 879ZM199.5 690.25L389.5 502.75L199.5 315.25V690.25ZM492 391.5L305.75 200.25H698.25L492 391.5ZM609.5 502.75L799.5 696.5V314L609.5 502.75ZM297 802.75C294 802.75 429.917 671.917 498.25 606.5L692 802.75H297Z" fill="#332525"/>
<rect x="931.291" y="853.742" width="112.5" height="1108.03" transform="rotate(135 931.291 853.742)" fill="#472E2E"/>
<rect width="112.5" height="1108.03" transform="matrix(-0.707107 -0.707107 -0.707107 0.707107 931.292 147.3)" fill="#472E2E"/>
<rect width="112.5" height="862.5" transform="matrix(-1 0 0 1 180.75 70.25)" fill="#472F2F"/>
<rect width="112.5" height="862.5" transform="matrix(-1 0 0 1 930.75 70.25)" fill="#472F2F"/>
<rect x="930.75" y="70.25" width="112.5" height="862.5" transform="rotate(90 930.75 70.25)" fill="#472F2F"/>
<rect x="928.25" y="822.75" width="107.5" height="857.5" transform="rotate(90 928.25 822.75)" fill="#472F2F" stroke="#472E2E" stroke-width="5"/>
</svg>
