<svg width="1001" height="1001" viewBox="0 0 1001 1001" fill="none" xmlns="http://www.w3.org/2000/svg">
<path d="M814.049 873.446L409.61 443.409L374.5 461.327L343.056 438.29L291.862 461.327L227.868 517.642L79.4031 763.377L51.2459 781.295C51.2459 774.469 46.1265 756.209 46.1265 748.018C46.1265 737.779 58.9252 594.434 71.7239 573.956C79.0045 562.307 131.451 436.583 158.755 379.416L202.271 335.9L235.547 305.183C227.868 271.906 238.107 268.493 238.107 259.108C243.227 259.961 226.332 238.63 220.189 228.391C218.482 223.271 209.95 215.592 220.189 172.076C273.943 133.68 258.585 141.36 266.264 141.36C281.623 141.36 289.302 136.24 296.981 141.36C303.125 145.455 315.753 149.892 317.459 154.158L332.818 161.838C338.79 161.838 353.295 149.039 373.773 154.158C377.747 155.152 455.685 80.779 494.081 44.0894C499.201 40.6764 513.023 35.8983 517.119 33.8505C521.214 31.8027 598.177 126.001 637.427 174.636L583.672 248.869L507.348 283.338C507.884 285.074 508.57 287.214 509.44 289.825C517.631 314.398 511.146 335.9 504.32 343.579L952.275 827.37L954.835 868.326L924.118 911.842C911.319 916.108 894.609 916.961 883.162 916.961C875.483 916.961 860.977 900.75 847.326 896.483L814.049 873.446Z" fill="#200707"/>
<rect x="203.858" y="200.963" width="102.39" height="991.018" rx="51.1948" transform="rotate(-43.347 203.858 200.963)" fill="#543838"/>
<rect x="208.782" y="204.995" width="100.923" height="976.826" rx="50.4617" transform="rotate(-43.347 208.782 204.995)" fill="#543838"/>
<rect x="208.782" y="204.995" width="100.923" height="976.826" rx="50.4617" transform="rotate(-43.347 208.782 204.995)" fill="#543838"/>
<path d="M624.628 177.196L519.678 44.0898C468.483 59.4483 323.429 248.018 317.459 253.989C307.22 264.228 263.704 294.944 250.905 302.624C236.851 311.056 180.525 372.681 168.994 387.095C158.755 399.894 64.0446 604.673 64.0446 645.629C64.0445 686.585 48.6865 719.862 64.0446 765.937L99.8807 707.063L145.956 622.591L215.069 512.522L284.182 445.969L360.974 417.812L412.169 338.46L509.439 269.347L578.553 238.63L624.628 177.196Z" fill="#543838"/>
<path d="M568.314 174.636L517.119 97.8441C475.993 107.974 338.291 253.72 333.481 257.712C325.233 264.557 326.836 271.006 289.302 292.384C289.302 292.384 232.047 344.171 222.749 353.818C214.492 362.385 129.021 492.542 128.888 520.081C128.756 547.621 116.326 569.938 128.499 600.979L157.443 561.529L194.684 504.906L250.493 431.16L306.161 386.675L367.866 368.038L409.198 314.878L487.466 268.78L540.157 228.391L568.314 174.636Z" fill="#472F2F"/>
<rect x="215.982" y="288.392" width="209.899" height="233.106" rx="30" transform="rotate(-43.347 215.982 288.392)" fill="#755050"/>
<path d="M328.021 345.881C320.774 344.61 315.93 337.705 317.201 330.458L340.578 197.17C341.849 189.923 348.754 185.078 356.001 186.349V186.349C363.248 187.62 368.092 194.525 366.821 201.772L343.444 335.061C342.173 342.307 335.268 347.152 328.021 345.881V345.881Z" fill="#6F4B4B"/>
<rect x="261.145" y="264.709" width="161.967" height="26.6439" rx="13.322" transform="rotate(-12.9574 261.145 264.709)" fill="#6F4B4B"/>
<rect x="465.924" y="402.453" width="29.1301" height="632.927" rx="14.565" transform="rotate(-43.347 465.924 402.453)" fill="#654040"/>
<path d="M377.773 416.109C364.058 373.604 367.447 339.254 387.195 320.614C406.943 301.974 441.432 300.572 483.074 316.715L534.787 476.978L377.773 416.109Z" fill="#543838"/>
</svg>
