<svg width="100" height="100" viewBox="0 0 100 100" fill="none" xmlns="http://www.w3.org/2000/svg">
<g clip-path="url(#clip0_1122_25)">
<path d="M39.9199 0.5H60.0801C68.2872 0.500003 74.8484 0.940283 80.0781 2.10254C85.302 3.26354 89.1672 5.13793 92.0146 7.98535C94.8621 10.8328 96.7365 14.698 97.8975 19.9219C99.0597 25.1516 99.5 31.7128 99.5 39.9199V60.0801C99.5 68.2872 99.0597 74.8484 97.8975 80.0781C96.7365 85.302 94.8621 89.1672 92.0146 92.0146C89.1672 94.8621 85.302 96.7365 80.0781 97.8975C74.8484 99.0597 68.2872 99.5 60.0801 99.5H39.9199C31.7128 99.5 25.1516 99.0597 19.9219 97.8975C14.698 96.7365 10.8328 94.8621 7.98535 92.0146C5.13793 89.1672 3.26354 85.302 2.10254 80.0781C0.940283 74.8484 0.500003 68.2872 0.5 60.0801V39.9199C0.500003 31.7128 0.940283 25.1516 2.10254 19.9219C3.26354 14.698 5.13793 10.8328 7.98535 7.98535C10.8328 5.13793 14.698 3.26354 19.9219 2.10254C25.1516 0.940283 31.7128 0.500003 39.9199 0.5Z" fill="#472F2F" stroke="#312222"/>
<path d="M14 42.3432C14 19.0026 19.0026 14 42.3432 14H56.6568C79.9974 14 85 19.0026 85 42.3432V56.6568C85 79.9974 79.9974 85 56.6568 85H42.3432C19.0026 85 14 79.9974 14 56.6568V42.3432Z" fill="#654040" stroke="#543838" stroke-width="10"/>
</g>
<defs>
<clipPath id="clip0_1122_25">
<rect width="100" height="100" fill="white"/>
</clipPath>
</defs>
</svg>
