<svg width="1001" height="1001" viewBox="0 0 1001 1001" fill="none" xmlns="http://www.w3.org/2000/svg">
<circle cx="500.25" cy="500.25" r="400" fill="#312222"/>
<circle cx="500.25" cy="500.25" r="375" fill="#543838"/>
<circle cx="500.25" cy="500.25" r="315" fill="#472F2F"/>
<circle cx="500.25" cy="500.25" r="219.375" fill="#543838"/>
<circle cx="500.25" cy="500.25" r="155.625" fill="#654040"/>
<path fill-rule="evenodd" clip-rule="evenodd" d="M351.521 649.831C369.826 668.137 399.506 668.137 417.812 649.831L500.676 566.967L583.54 649.831C601.845 668.137 631.525 668.137 649.831 649.831C668.137 631.525 668.137 601.846 649.831 583.54L566.967 500.676L649.831 417.812C668.137 399.506 668.137 369.826 649.831 351.52C631.525 333.215 601.846 333.215 583.54 351.52L500.676 434.385L417.812 351.521C399.506 333.215 369.826 333.215 351.52 351.521C333.214 369.826 333.214 399.506 351.52 417.812L434.384 500.676L351.521 583.54C333.215 601.846 333.215 631.525 351.521 649.831Z" fill="#472E2E"/>
<path fill-rule="evenodd" clip-rule="evenodd" d="M384.277 617.307C397.147 630.177 418.013 630.177 430.883 617.307L500.793 547.398L570.702 617.307C583.572 630.177 604.438 630.177 617.308 617.307C630.178 604.437 630.178 583.571 617.308 570.701L547.399 500.792L617.307 430.883C630.177 418.013 630.177 397.147 617.307 384.277C604.437 371.408 583.571 371.408 570.701 384.277L500.793 454.186L430.884 384.277C418.014 371.408 397.148 371.408 384.278 384.277C371.408 397.147 371.408 418.014 384.278 430.883L454.187 500.792L384.277 570.701C371.407 583.571 371.407 604.437 384.277 617.307Z" fill="#543838"/>
</svg>
