<svg width="1000" height="1000" viewBox="0 0 1000 1000" fill="none" xmlns="http://www.w3.org/2000/svg">
<rect x="20.0747" y="382.624" width="960.46" height="335.924" rx="33.1193" fill="#593733" stroke="#392522" stroke-width="37.8506"/>
<rect x="232.983" y="231.222" width="534.64" height="487.327" rx="33.1193" fill="#55322E" stroke="#392522" stroke-width="37.8506"/>
<path d="M914.294 751.668V330.58C914.294 299.223 888.875 273.804 857.519 273.804H777.324C765.549 273.804 754.067 277.464 744.465 284.278L690.809 322.357C687.608 324.628 683.781 325.848 679.856 325.848H523.96H310.324C305.969 325.848 301.746 324.346 298.37 321.595L255.379 286.565C245.249 278.311 232.582 273.804 219.515 273.804H143.088C111.731 273.804 86.312 299.223 86.312 330.58L86.312 751.668C86.312 783.024 111.731 808.444 143.088 808.444H857.519C888.875 808.444 914.294 783.024 914.294 751.668Z" fill="#623C37" stroke="#392522" stroke-width="37.8506"/>
<rect x="162.013" y="368.43" width="681.311" height="345.387" rx="36.0594" fill="#7C4D46"/>
<rect x="124.164" y="420.476" width="279.148" height="160.865" rx="18.2252" fill="#5A6A82"/>
<rect x="188.7" y="515.868" width="281.286" height="158.328" rx="18.2252" transform="rotate(24.2966 188.7 515.868)" fill="#526075"/>
<rect x="212.829" y="569.636" width="281.286" height="158.328" rx="18.2252" transform="rotate(-35.4763 212.829 569.636)" fill="#6B7E99"/>
<rect x="657.019" y="406.041" width="152.634" height="259.931" rx="18.2252" transform="rotate(19.5978 657.019 406.041)" fill="#647894"/>
<rect x="732.633" y="433.228" width="73.896" height="259.167" rx="18.2252" transform="rotate(19.5978 732.633 433.228)" fill="#4F617C"/>
<rect x="758.745" y="427.914" width="81.5061" height="281.778" rx="18.2252" transform="rotate(19.5978 758.745 427.914)" fill="#576881"/>
<path fill-rule="evenodd" clip-rule="evenodd" d="M585.577 537.084C590.548 543.018 600.201 540.246 601.265 532.577L627.323 344.81C628.024 339.752 624.35 335.137 619.264 334.688L421.261 317.206C413.337 316.506 408.523 325.736 413.631 331.833L585.577 537.084ZM574.951 365.339C579.504 366.034 582.781 370.08 582.516 374.678L578.739 440.236C578.28 448.207 568.389 451.614 563.119 445.616L495.987 369.225C490.485 362.964 495.802 353.246 504.042 354.505L574.951 365.339Z" fill="#5C5B5B" stroke="#494848" stroke-width="11.2155"/>
<mask id="path-12-inside-1_621_70766" fill="white">
<rect x="241.396" y="587.08" width="59.0644" height="353.649" rx="7.59863" transform="rotate(-65.2895 241.396 587.08)"/>
</mask>
<rect x="241.396" y="587.08" width="59.0644" height="353.649" rx="7.59863" transform="rotate(-65.2895 241.396 587.08)" fill="#7C7A4E" stroke="#7D621E" stroke-width="21.2762" mask="url(#path-12-inside-1_621_70766)"/>
<rect x="265.383" y="566.536" width="17.8599" height="327.709" transform="rotate(-65.2895 265.383 566.536)" fill="#847D3B"/>
<path d="M472.515 338.67H448.042C447.73 338.67 447.421 338.625 447.123 338.535L446.732 338.417C443.696 337.502 441.303 341.065 443.353 343.485C495.149 404.637 587.398 513.078 590.674 515.005C593.851 516.873 592.365 491.463 590.993 475.704C590.829 473.818 589.056 472.511 587.2 472.89L571.982 475.996C570.829 476.232 569.64 475.812 568.89 474.905L472.624 358.425C471.961 357.622 471.732 356.545 472.011 355.542L475.583 342.708C476.148 340.679 474.622 338.67 472.515 338.67Z" fill="#676767"/>
<path d="M914.294 751.668V330.58C914.294 299.223 888.875 273.804 857.519 273.804H777.324C765.549 273.804 754.067 277.464 744.465 284.278L690.809 322.357C687.608 324.628 683.781 325.848 679.856 325.848H523.96H310.324C305.969 325.848 301.746 324.346 298.37 321.595L255.379 286.565C245.249 278.311 232.582 273.804 219.515 273.804H143.088C111.731 273.804 86.312 299.223 86.312 330.58L86.312 751.668C86.312 783.024 111.731 808.444 143.088 808.444H857.519C888.875 808.444 914.294 783.024 914.294 751.668Z" fill="#623C37" stroke="#392522" stroke-width="37.8506"/>
<rect x="162.013" y="368.43" width="681.311" height="345.387" rx="36.0594" fill="#7C4D46"/>
<rect x="124.164" y="420.476" width="279.148" height="160.865" rx="18.2252" fill="#5A6A82"/>
<rect x="188.7" y="515.868" width="281.286" height="158.328" rx="18.2252" transform="rotate(24.2966 188.7 515.868)" fill="#526075"/>
<rect x="212.829" y="569.636" width="281.286" height="158.328" rx="18.2252" transform="rotate(-35.4763 212.829 569.636)" fill="#6B7E99"/>
<rect x="657.019" y="406.041" width="152.634" height="259.931" rx="18.2252" transform="rotate(19.5978 657.019 406.041)" fill="#647894"/>
<rect x="732.633" y="433.228" width="73.896" height="259.167" rx="18.2252" transform="rotate(19.5978 732.633 433.228)" fill="#4F617C"/>
<rect x="758.745" y="427.914" width="81.5061" height="281.778" rx="18.2252" transform="rotate(19.5978 758.745 427.914)" fill="#576881"/>
<path fill-rule="evenodd" clip-rule="evenodd" d="M585.577 537.084C590.548 543.018 600.201 540.246 601.265 532.577L627.323 344.81C628.024 339.752 624.35 335.137 619.264 334.688L421.261 317.206C413.337 316.506 408.523 325.736 413.631 331.833L585.577 537.084ZM574.951 365.339C579.504 366.034 582.781 370.08 582.516 374.678L578.739 440.236C578.28 448.207 568.389 451.614 563.119 445.616L495.987 369.225C490.485 362.964 495.802 353.246 504.042 354.505L574.951 365.339Z" fill="#5C5B5B" stroke="#494848" stroke-width="11.2155"/>
<mask id="path-24-inside-2_621_70766" fill="white">
<rect x="241.396" y="587.08" width="59.0644" height="353.649" rx="7.59863" transform="rotate(-65.2895 241.396 587.08)"/>
</mask>
<rect x="241.396" y="587.08" width="59.0644" height="353.649" rx="7.59863" transform="rotate(-65.2895 241.396 587.08)" fill="#7C7A4E" stroke="#7D621E" stroke-width="21.2762" mask="url(#path-24-inside-2_621_70766)"/>
<rect x="265.383" y="566.536" width="17.8599" height="327.709" transform="rotate(-65.2895 265.383 566.536)" fill="#847D3B"/>
<path d="M472.515 338.67H448.042C447.73 338.67 447.421 338.625 447.123 338.535L446.732 338.417C443.696 337.502 441.303 341.065 443.353 343.485C495.149 404.637 587.398 513.078 590.674 515.005C593.851 516.873 592.365 491.463 590.993 475.704C590.829 473.818 589.056 472.511 587.2 472.89L571.982 475.996C570.829 476.232 569.64 475.812 568.89 474.905L472.624 358.425C471.961 357.622 471.732 356.545 472.011 355.542L475.583 342.708C476.148 340.679 474.622 338.67 472.515 338.67Z" fill="#676767"/>
</svg>
