<svg width="501" height="500" viewBox="0 0 501 500" fill="none" xmlns="http://www.w3.org/2000/svg">
<g clip-path="url(#clip0_621_70766)">
<rect x="10.5373" y="191.319" width="480.23" height="167.962" rx="16.5597" fill="#593733" stroke="#392522" stroke-width="18.9253"/>
<rect x="116.991" y="115.617" width="267.32" height="243.663" rx="16.5597" fill="#55322E" stroke="#392522" stroke-width="18.9253"/>
<path d="M457.648 375.841V165.296C457.648 149.618 444.938 136.908 429.26 136.908H389.162C383.275 136.908 377.534 138.739 372.733 142.146L345.905 161.185C344.305 162.321 342.391 162.931 340.428 162.931H262.48H155.663C153.485 162.931 151.374 162.18 149.685 160.804L128.19 143.289C123.125 139.162 116.791 136.908 110.258 136.908H72.0445C56.3662 136.908 43.6565 149.618 43.6565 165.296L43.6565 375.841C43.6565 391.519 56.3662 404.229 72.0444 404.229H429.26C444.938 404.229 457.648 391.519 457.648 375.841Z" fill="#623C37" stroke="#392522" stroke-width="18.9253"/>
<rect x="81.5059" y="184.222" width="340.656" height="172.693" rx="18.0297" fill="#7C4D46"/>
<rect x="62.582" y="210.245" width="139.574" height="80.4326" rx="9.11261" fill="#5A6A82"/>
<rect x="94.8496" y="257.94" width="140.643" height="79.1642" rx="9.11261" transform="rotate(24.2966 94.8496 257.94)" fill="#526075"/>
<rect x="106.914" y="284.825" width="140.643" height="79.1642" rx="9.11261" transform="rotate(-35.4763 106.914 284.825)" fill="#6B7E99"/>
<rect x="329.01" y="203.027" width="76.3171" height="129.965" rx="9.11261" transform="rotate(19.5978 329.01 203.027)" fill="#647894"/>
<rect x="366.816" y="216.621" width="36.948" height="129.584" rx="9.11261" transform="rotate(19.5978 366.816 216.621)" fill="#4F617C"/>
<rect x="379.873" y="213.964" width="40.7531" height="140.889" rx="9.11261" transform="rotate(19.5978 379.873 213.964)" fill="#576881"/>
<path fill-rule="evenodd" clip-rule="evenodd" d="M293.289 268.549C295.775 271.516 300.601 270.13 301.133 266.295L314.162 172.412C314.513 169.883 312.675 167.576 310.132 167.351L211.131 158.61C207.169 158.26 204.762 162.875 207.316 165.924L293.289 268.549ZM287.976 182.676C290.253 183.024 291.891 185.047 291.759 187.346L289.87 220.125C289.641 224.11 284.695 225.814 282.06 222.815L248.494 184.619C245.743 181.489 248.402 176.63 252.522 177.259L287.976 182.676Z" fill="#5C5B5B" stroke="#494848" stroke-width="5.60776"/>
<mask id="path-12-inside-1_621_70766" fill="white">
<rect x="121.198" y="293.547" width="29.5322" height="176.824" rx="3.79932" transform="rotate(-65.2895 121.198 293.547)"/>
</mask>
<rect x="121.198" y="293.547" width="29.5322" height="176.824" rx="3.79932" transform="rotate(-65.2895 121.198 293.547)" fill="#7C7A4E" stroke="#7D621E" stroke-width="10.6381" mask="url(#path-12-inside-1_621_70766)"/>
<rect x="133.191" y="283.275" width="8.92995" height="163.854" transform="rotate(-65.2895 133.191 283.275)" fill="#847D3B"/>
<path d="M236.758 169.342H224.521C224.366 169.342 224.211 169.319 224.062 169.274L223.867 169.215C222.349 168.758 221.152 170.539 222.177 171.749C248.075 202.326 294.199 256.546 295.837 257.509C297.426 258.443 296.683 245.738 295.997 237.859C295.915 236.916 295.028 236.262 294.101 236.452L286.491 238.005C285.915 238.123 285.321 237.913 284.946 237.459L236.813 179.219C236.481 178.818 236.366 178.28 236.506 177.778L238.292 171.361C238.574 170.346 237.811 169.342 236.758 169.342Z" fill="#676767"/>
<path d="M457.648 375.841V165.296C457.648 149.618 444.938 136.908 429.26 136.908H389.162C383.275 136.908 377.534 138.739 372.733 142.146L345.905 161.185C344.305 162.321 342.391 162.931 340.428 162.931H262.48H155.663C153.485 162.931 151.374 162.18 149.685 160.804L128.19 143.289C123.125 139.162 116.791 136.908 110.258 136.908H72.0445C56.3662 136.908 43.6565 149.618 43.6565 165.296L43.6565 375.841C43.6565 391.519 56.3662 404.229 72.0444 404.229H429.26C444.938 404.229 457.648 391.519 457.648 375.841Z" fill="#623C37" stroke="#392522" stroke-width="18.9253"/>
<rect x="81.5059" y="184.222" width="340.656" height="172.693" rx="18.0297" fill="#7C4D46"/>
<rect x="62.582" y="210.245" width="139.574" height="80.4326" rx="9.11261" fill="#5A6A82"/>
<rect x="94.8496" y="257.94" width="140.643" height="79.1642" rx="9.11261" transform="rotate(24.2966 94.8496 257.94)" fill="#526075"/>
<rect x="106.914" y="284.825" width="140.643" height="79.1642" rx="9.11261" transform="rotate(-35.4763 106.914 284.825)" fill="#6B7E99"/>
<rect x="329.01" y="203.027" width="76.3171" height="129.965" rx="9.11261" transform="rotate(19.5978 329.01 203.027)" fill="#647894"/>
<rect x="366.816" y="216.621" width="36.948" height="129.584" rx="9.11261" transform="rotate(19.5978 366.816 216.621)" fill="#4F617C"/>
<rect x="379.873" y="213.964" width="40.7531" height="140.889" rx="9.11261" transform="rotate(19.5978 379.873 213.964)" fill="#576881"/>
<path fill-rule="evenodd" clip-rule="evenodd" d="M293.289 268.549C295.775 271.516 300.601 270.13 301.133 266.295L314.162 172.412C314.513 169.883 312.675 167.576 310.132 167.351L211.131 158.61C207.169 158.26 204.762 162.875 207.316 165.924L293.289 268.549ZM287.976 182.676C290.253 183.024 291.891 185.047 291.759 187.346L289.87 220.125C289.641 224.11 284.695 225.814 282.06 222.815L248.494 184.619C245.743 181.489 248.402 176.63 252.522 177.259L287.976 182.676Z" fill="#5C5B5B" stroke="#494848" stroke-width="5.60776"/>
<mask id="path-24-inside-2_621_70766" fill="white">
<rect x="121.198" y="293.547" width="29.5322" height="176.824" rx="3.79932" transform="rotate(-65.2895 121.198 293.547)"/>
</mask>
<rect x="121.198" y="293.547" width="29.5322" height="176.824" rx="3.79932" transform="rotate(-65.2895 121.198 293.547)" fill="#7C7A4E" stroke="#7D621E" stroke-width="10.6381" mask="url(#path-24-inside-2_621_70766)"/>
<rect x="133.191" y="283.275" width="8.92995" height="163.854" transform="rotate(-65.2895 133.191 283.275)" fill="#847D3B"/>
<path d="M236.758 169.342H224.521C224.366 169.342 224.211 169.319 224.062 169.274L223.867 169.215C222.349 168.758 221.152 170.539 222.177 171.749C248.075 202.326 294.199 256.546 295.837 257.509C297.426 258.443 296.683 245.738 295.997 237.859C295.915 236.916 295.028 236.262 294.101 236.452L286.491 238.005C285.915 238.123 285.321 237.913 284.946 237.459L236.813 179.219C236.481 178.818 236.366 178.28 236.506 177.778L238.292 171.361C238.574 170.346 237.811 169.342 236.758 169.342Z" fill="#676767"/>
</g>
<defs>
<clipPath id="clip0_621_70766">
<rect width="500" height="500" fill="white" transform="translate(0.5 0.00683594)"/>
</clipPath>
</defs>
</svg>
