<svg width="250" height="250" viewBox="0 0 250 250" fill="none" xmlns="http://www.w3.org/2000/svg">
<mask id="path-1-inside-1_1275_71897" fill="white">
<path d="M90.0918 20.0415C105.334 20.0415 117.69 32.3981 117.69 47.6401C117.69 50.031 117.385 52.3507 116.813 54.563C118.657 58.0973 120.042 61.9075 120.892 65.9165C122.48 65.7707 124.089 65.6948 125.715 65.6948C127.217 65.6948 128.704 65.7596 130.174 65.8843C135.592 56.0284 144.834 48.5736 155.903 45.5161C160.226 33.1102 172.026 24.2075 185.905 24.2075C203.448 24.2078 217.669 38.4295 217.669 55.9722C217.669 58.2554 217.426 60.4818 216.968 62.6284C222.517 67.6766 226 74.9563 226 83.0493C226 97.1934 215.36 108.85 201.647 110.457C199.833 113.028 197.739 115.387 195.409 117.491C196.4 120.78 196.935 124.267 196.935 127.879C196.935 127.918 196.933 127.957 196.933 127.996C208.076 134.364 215.586 146.363 215.586 160.117C215.586 178.389 202.329 193.563 184.909 196.551C181.164 203.68 173.688 208.543 165.076 208.543C156.254 208.543 148.624 203.441 144.975 196.026C144.56 196.038 144.144 196.046 143.727 196.046C137.664 196.046 131.904 194.75 126.708 192.421C119.887 205.704 106.051 214.792 90.0918 214.792C85.3754 214.792 80.8453 213.996 76.626 212.535C72.5854 216.507 67.0452 218.958 60.9316 218.958C49.5982 218.958 40.2316 210.538 38.7461 199.612C30.5272 194.832 25.001 185.93 25.001 175.738C25.0011 160.496 37.3576 148.14 52.5996 148.14C54.2675 148.14 55.901 148.287 57.4873 148.571C58.5818 147.15 59.7659 145.802 61.0332 144.538C60.2163 142.576 59.6773 140.464 59.4678 138.252C47.0308 131.758 38.54 118.74 38.54 103.738C38.5401 102.005 38.6545 100.299 38.874 98.6265C34.6997 91.8204 32.292 83.814 32.292 75.2446C32.292 53.707 47.4944 35.7222 67.7539 31.4312C72.7706 24.5295 80.9068 20.0415 90.0918 20.0415Z"/>
</mask>
<path d="M90.0918 20.0415C105.334 20.0415 117.69 32.3981 117.69 47.6401C117.69 50.031 117.385 52.3507 116.813 54.563C118.657 58.0973 120.042 61.9075 120.892 65.9165C122.48 65.7707 124.089 65.6948 125.715 65.6948C127.217 65.6948 128.704 65.7596 130.174 65.8843C135.592 56.0284 144.834 48.5736 155.903 45.5161C160.226 33.1102 172.026 24.2075 185.905 24.2075C203.448 24.2078 217.669 38.4295 217.669 55.9722C217.669 58.2554 217.426 60.4818 216.968 62.6284C222.517 67.6766 226 74.9563 226 83.0493C226 97.1934 215.36 108.85 201.647 110.457C199.833 113.028 197.739 115.387 195.409 117.491C196.4 120.78 196.935 124.267 196.935 127.879C196.935 127.918 196.933 127.957 196.933 127.996C208.076 134.364 215.586 146.363 215.586 160.117C215.586 178.389 202.329 193.563 184.909 196.551C181.164 203.68 173.688 208.543 165.076 208.543C156.254 208.543 148.624 203.441 144.975 196.026C144.56 196.038 144.144 196.046 143.727 196.046C137.664 196.046 131.904 194.75 126.708 192.421C119.887 205.704 106.051 214.792 90.0918 214.792C85.3754 214.792 80.8453 213.996 76.626 212.535C72.5854 216.507 67.0452 218.958 60.9316 218.958C49.5982 218.958 40.2316 210.538 38.7461 199.612C30.5272 194.832 25.001 185.93 25.001 175.738C25.0011 160.496 37.3576 148.14 52.5996 148.14C54.2675 148.14 55.901 148.287 57.4873 148.571C58.5818 147.15 59.7659 145.802 61.0332 144.538C60.2163 142.576 59.6773 140.464 59.4678 138.252C47.0308 131.758 38.54 118.74 38.54 103.738C38.5401 102.005 38.6545 100.299 38.874 98.6265C34.6997 91.8204 32.292 83.814 32.292 75.2446C32.292 53.707 47.4944 35.7222 67.7539 31.4312C72.7706 24.5295 80.9068 20.0415 90.0918 20.0415Z" fill="#1B4054"/>
<path d="M90.0918 20.0415V14.0415V14.0415V20.0415ZM117.69 47.6401H123.69V47.6401L117.69 47.6401ZM116.813 54.563L111.004 53.0623L110.428 55.294L111.494 57.3376L116.813 54.563ZM120.892 65.9165L115.022 67.1601L116.128 72.3793L121.44 71.8914L120.892 65.9165ZM125.715 65.6948L125.715 59.6948H125.715V65.6948ZM130.174 65.8843L129.667 71.8628L133.553 72.1924L135.432 68.7748L130.174 65.8843ZM155.903 45.5161L157.501 51.2995L160.534 50.4618L161.569 47.4905L155.903 45.5161ZM185.905 24.2075L185.905 18.2075H185.905V24.2075ZM217.669 55.9722L223.669 55.9722V55.9722H217.669ZM216.968 62.6284L211.1 61.377L210.381 64.7476L212.93 67.0668L216.968 62.6284ZM226 83.0493H232V83.0493L226 83.0493ZM201.647 110.457L200.949 104.497L198.289 104.809L196.744 106.998L201.647 110.457ZM195.409 117.491L191.389 113.037L188.569 115.583L189.664 119.221L195.409 117.491ZM196.935 127.879L202.935 127.879V127.879H196.935ZM196.933 127.996L190.933 127.977L190.922 131.471L193.955 133.205L196.933 127.996ZM215.586 160.117L221.586 160.117V160.117H215.586ZM184.909 196.551L183.895 190.638L180.975 191.138L179.598 193.761L184.909 196.551ZM165.076 208.543V214.543H165.076L165.076 208.543ZM144.975 196.026L150.358 193.377L148.655 189.915L144.798 190.028L144.975 196.026ZM143.727 196.046V202.046H143.727L143.727 196.046ZM126.708 192.421L129.162 186.946L123.97 184.619L121.371 189.68L126.708 192.421ZM90.0918 214.792V220.792V220.792V214.792ZM76.626 212.535L78.5894 206.865L75.0733 205.647L72.4198 208.256L76.626 212.535ZM60.9316 218.958V224.958H60.9317L60.9316 218.958ZM38.7461 199.612L44.6914 198.803L44.2965 195.899L41.7624 194.425L38.7461 199.612ZM25.001 175.738L19.001 175.738V175.738H25.001ZM52.5996 148.14V142.14H52.5996L52.5996 148.14ZM57.4873 148.571L56.4318 154.477L60.0172 155.118L62.2401 152.233L57.4873 148.571ZM61.0332 144.538L65.2716 148.785L68.1182 145.944L66.5721 142.231L61.0332 144.538ZM59.4678 138.252L65.441 137.686L65.1336 134.442L62.2451 132.934L59.4678 138.252ZM38.54 103.738L32.54 103.738V103.738H38.54ZM38.874 98.6265L44.823 99.4071L45.0994 97.3006L43.9887 95.4896L38.874 98.6265ZM32.292 75.2446H26.292V75.2447L32.292 75.2446ZM67.7539 31.4312L68.9971 37.3009L71.252 36.8233L72.6072 34.959L67.7539 31.4312ZM90.0918 20.0415V26.0415C102.02 26.0415 111.69 35.7118 111.69 47.6402L117.69 47.6401L123.69 47.6401C123.69 29.0844 108.648 14.0415 90.0918 14.0415V20.0415ZM117.69 47.6401H111.69C111.69 49.518 111.451 51.3336 111.004 53.0623L116.813 54.563L122.623 56.0637C123.319 53.3678 123.69 50.544 123.69 47.6401H117.69ZM116.813 54.563L111.494 57.3376C113.089 60.3966 114.287 63.6924 115.022 67.1601L120.892 65.9165L126.761 64.6729C125.797 60.1226 124.225 55.798 122.133 51.7883L116.813 54.563ZM120.892 65.9165L121.44 71.8914C122.849 71.7619 124.275 71.6948 125.715 71.6948V65.6948V59.6948C123.902 59.6948 122.11 59.7794 120.343 59.9417L120.892 65.9165ZM125.715 65.6948L125.715 71.6948C127.044 71.6948 128.362 71.7522 129.667 71.8628L130.174 65.8843L130.681 59.9057C129.046 59.7671 127.39 59.6948 125.715 59.6948L125.715 65.6948ZM130.174 65.8843L135.432 68.7748C140.084 60.3129 148.019 53.9186 157.501 51.2995L155.903 45.5161L154.306 39.7327C141.65 43.2286 131.101 51.7439 124.916 62.9938L130.174 65.8843ZM155.903 45.5161L161.569 47.4905C165.079 37.4198 174.657 30.2075 185.905 30.2075V24.2075V18.2075C169.394 18.2075 155.374 28.8006 150.237 43.5417L155.903 45.5161ZM185.905 24.2075L185.905 30.2075C200.134 30.2077 211.669 41.743 211.669 55.9722H217.669H223.669C223.669 35.1159 206.762 18.2078 185.905 18.2075L185.905 24.2075ZM217.669 55.9722L211.669 55.9721C211.669 57.8277 211.471 59.6348 211.1 61.377L216.968 62.6284L222.836 63.8798C223.38 61.3288 223.669 58.683 223.669 55.9722L217.669 55.9722ZM216.968 62.6284L212.93 67.0668C217.282 71.0255 220 76.7156 220 83.0493L226 83.0493L232 83.0493C232 73.197 227.752 64.3277 221.005 58.1901L216.968 62.6284ZM226 83.0493H220C220 94.1136 211.675 103.241 200.949 104.497L201.647 110.457L202.346 116.416C219.045 114.46 232 100.273 232 83.0493H226ZM201.647 110.457L196.744 106.998C195.188 109.205 193.39 111.23 191.389 113.037L195.409 117.491L199.429 121.945C202.089 119.544 204.479 116.851 206.55 113.915L201.647 110.457ZM195.409 117.491L189.664 119.221C190.488 121.958 190.935 124.863 190.935 127.879H196.935H202.935C202.935 123.672 202.311 119.602 201.154 115.761L195.409 117.491ZM196.935 127.879L190.935 127.879C190.935 127.843 190.935 127.815 190.935 127.801C190.935 127.789 190.936 127.78 190.935 127.791C190.935 127.796 190.935 127.822 190.934 127.85C190.934 127.879 190.933 127.924 190.933 127.977L196.933 127.996L202.933 128.015C202.932 128.048 202.932 128.073 202.932 128.084C202.932 128.092 202.932 128.099 202.932 128.084C202.932 128.075 202.933 128.048 202.933 128.016C202.934 127.983 202.935 127.935 202.935 127.879L196.935 127.879ZM196.933 127.996L193.955 133.205C203.306 138.549 209.586 148.603 209.586 160.117H215.586H221.586C221.586 144.123 212.845 130.179 199.91 122.786L196.933 127.996ZM215.586 160.117L209.586 160.117C209.586 175.417 198.484 188.135 183.895 190.638L184.909 196.551L185.924 202.465C206.174 198.991 221.586 181.361 221.586 160.117L215.586 160.117ZM184.909 196.551L179.598 193.761C176.847 198.995 171.371 202.543 165.076 202.543L165.076 208.543L165.076 214.543C176.005 214.543 185.48 208.366 190.221 199.342L184.909 196.551ZM165.076 208.543V202.543C158.627 202.543 153.036 198.819 150.358 193.377L144.975 196.026L139.591 198.675C144.211 208.062 153.881 214.543 165.076 214.543V208.543ZM144.975 196.026L144.798 190.028C144.42 190.04 144.066 190.046 143.727 190.046L143.727 196.046L143.727 202.046C144.222 202.046 144.7 202.037 145.151 202.023L144.975 196.026ZM143.727 196.046V190.046C138.527 190.046 133.602 188.936 129.162 186.946L126.708 192.421L124.254 197.897C130.206 200.564 136.801 202.046 143.727 202.046V196.046ZM126.708 192.421L121.371 189.68C115.537 201.041 103.714 208.792 90.0918 208.792V214.792V220.792C108.387 220.792 124.237 210.367 132.045 195.162L126.708 192.421ZM90.0918 214.792V208.792C86.0554 208.792 82.1883 208.111 78.5894 206.865L76.626 212.535L74.6626 218.204C79.5023 219.88 84.6954 220.792 90.0918 220.792V214.792ZM76.626 212.535L72.4198 208.256C69.4547 211.171 65.4075 212.958 60.9316 212.958L60.9316 218.958L60.9317 224.958C68.6829 224.958 75.716 221.843 80.8321 216.814L76.626 212.535ZM60.9316 218.958V212.958C52.6403 212.958 45.7781 206.796 44.6914 198.803L38.7461 199.612L32.8008 200.42C34.6851 214.279 46.556 224.958 60.9316 224.958V218.958ZM38.7461 199.612L41.7624 194.425C35.3143 190.675 31.001 183.707 31.001 175.738H25.001H19.001C19.001 188.154 25.7401 198.989 35.7298 204.799L38.7461 199.612ZM25.001 175.738L31.001 175.738C31.0011 163.81 40.6711 154.14 52.5996 154.14L52.5996 148.14L52.5996 142.14C34.0442 142.14 19.0012 157.182 19.001 175.738L25.001 175.738ZM52.5996 148.14V154.14C53.9139 154.14 55.1942 154.256 56.4318 154.477L57.4873 148.571L58.5428 142.664C56.6078 142.319 54.621 142.14 52.5996 142.14V148.14ZM57.4873 148.571L62.2401 152.233C63.1778 151.016 64.1902 149.864 65.2716 148.785L61.0332 144.538L56.7948 140.291C55.3415 141.741 53.9859 143.285 52.7345 144.909L57.4873 148.571ZM61.0332 144.538L66.5721 142.231C65.9832 140.817 65.5931 139.291 65.441 137.686L59.4678 138.252L53.4945 138.818C53.7616 141.636 54.4493 144.335 55.4943 146.844L61.0332 144.538ZM59.4678 138.252L62.2451 132.934C51.7101 127.433 44.54 116.418 44.54 103.738H38.54H32.54C32.54 121.062 42.3515 136.083 56.6904 143.571L59.4678 138.252ZM38.54 103.738L44.54 103.738C44.5401 102.27 44.637 100.825 44.823 99.4071L38.874 98.6265L32.925 97.8459C32.672 99.7738 32.5401 101.741 32.54 103.738L38.54 103.738ZM38.874 98.6265L43.9887 95.4896C40.3764 89.5998 38.292 82.6748 38.292 75.2446L32.292 75.2446L26.292 75.2447C26.292 84.9531 29.023 94.0409 33.7594 101.763L38.874 98.6265ZM32.292 75.2446H38.292C38.292 56.5998 51.4533 41.0168 68.9971 37.3009L67.7539 31.4312L66.5107 25.5614C43.5355 30.4276 26.292 50.8141 26.292 75.2446H32.292ZM67.7539 31.4312L72.6072 34.959C76.5439 29.5431 82.9088 26.0415 90.0918 26.0415V20.0415V14.0415C78.9048 14.0415 68.9973 19.516 62.9006 27.9033L67.7539 31.4312Z" fill="#1A2A33" mask="url(#path-1-inside-1_1275_71897)"/>
<circle cx="132.651" cy="125.608" r="44.9102" transform="rotate(-4.48805 132.651 125.608)" fill="#1F5C7C"/>
<circle cx="120.705" cy="113.663" r="24.1138" transform="rotate(-4.48805 120.705 113.663)" fill="#1F5C7C"/>
<path d="M188.508 152.826C188.508 168.644 175.919 181.466 160.389 181.466C144.86 181.466 132.27 168.644 132.27 152.826C132.27 137.009 144.86 124.187 160.389 124.187C175.919 124.187 188.508 137.009 188.508 152.826Z" fill="#1F5C7C"/>
<circle cx="171.58" cy="79.1394" r="24.9378" transform="rotate(-4.48805 171.58 79.1394)" fill="#1F5C7C"/>
<circle cx="188.23" cy="52.0487" r="15.2391" transform="rotate(-4.48805 188.23 52.0487)" fill="#1F5C7C"/>
<circle cx="191.308" cy="78.0384" r="17.1334" transform="rotate(-4.48805 191.308 78.0384)" fill="#1F5C7C"/>
<circle cx="79.6902" cy="176.792" r="22.7745" transform="rotate(-4.48805 79.6902 176.792)" fill="#1F5C7C"/>
<circle cx="59.6401" cy="177.571" r="13.8127" transform="rotate(-4.48805 59.6401 177.571)" fill="#1F5C7C"/>
<circle cx="68.7113" cy="92.912" r="20.3123" transform="rotate(-4.48805 68.7113 92.912)" fill="#1F5C7C"/>
<circle cx="77.0737" cy="67.9487" r="27.0776" fill="#1F5C7C"/>
<ellipse cx="136.501" cy="125" rx="27.5" ry="27" fill="#4D8DBA"/>
<circle cx="160.501" cy="152.5" r="15.5" fill="#4D8DBA"/>
<circle cx="72.501" cy="61.5" r="13.5" fill="#4D8DBA"/>
<circle cx="188.501" cy="52.5" r="9.5" fill="#4D8DBA"/>
<circle cx="80.501" cy="177.5" r="14.5" fill="#4D8DBA"/>
<ellipse cx="73.001" cy="80.5" rx="7" ry="7.5" fill="#4D8DBA"/>
</svg>
