<svg width="150" height="150" viewBox="0 0 150 150" fill="none" xmlns="http://www.w3.org/2000/svg">
<mask id="path-1-inside-1_1274_71654" fill="white">
<path d="M37.8774 22.9092C47.6832 22.9093 56.1305 28.7213 59.9653 37.0879C60.8192 37.5506 61.6479 38.0538 62.4497 38.5938C66.5342 35.7007 71.5235 34 76.9097 34C82.7646 34.0001 88.1499 36.0096 92.4146 39.376C95.2943 38.3864 98.3845 37.8486 101.6 37.8486C115.713 37.8488 127.409 48.1976 129.513 61.7207C135.803 64.788 140.136 71.2436 140.136 78.7119C140.136 89.1468 131.677 97.6064 121.242 97.6064C116.684 97.6064 112.504 95.9918 109.241 93.3047C107.503 93.7916 105.699 94.1169 103.843 94.2627C99.6597 100.844 93.3756 105.957 85.9331 108.659C83.2674 121.417 71.9581 131 58.4087 131C42.8778 131 30.2877 118.41 30.2876 102.879C30.2876 98.6808 31.2086 94.6979 32.8579 91.1201C31.4919 90.4854 30.1812 89.7523 28.9351 88.9287C28.4174 88.9748 27.8934 89 27.3638 89C17.6988 89 9.86279 81.165 9.86279 71.5C9.86279 66.2588 12.1674 61.5559 15.8179 58.3486C15.8595 58.1152 15.9047 57.8829 15.9517 57.6514C14.4388 54.4846 13.5903 50.939 13.5903 47.1953C13.5905 33.7824 24.4645 22.9092 37.8774 22.9092Z"/>
</mask>
<path d="M37.8774 22.9092C47.6832 22.9093 56.1305 28.7213 59.9653 37.0879C60.8192 37.5506 61.6479 38.0538 62.4497 38.5938C66.5342 35.7007 71.5235 34 76.9097 34C82.7646 34.0001 88.1499 36.0096 92.4146 39.376C95.2943 38.3864 98.3845 37.8486 101.6 37.8486C115.713 37.8488 127.409 48.1976 129.513 61.7207C135.803 64.788 140.136 71.2436 140.136 78.7119C140.136 89.1468 131.677 97.6064 121.242 97.6064C116.684 97.6064 112.504 95.9918 109.241 93.3047C107.503 93.7916 105.699 94.1169 103.843 94.2627C99.6597 100.844 93.3756 105.957 85.9331 108.659C83.2674 121.417 71.9581 131 58.4087 131C42.8778 131 30.2877 118.41 30.2876 102.879C30.2876 98.6808 31.2086 94.6979 32.8579 91.1201C31.4919 90.4854 30.1812 89.7523 28.9351 88.9287C28.4174 88.9748 27.8934 89 27.3638 89C17.6988 89 9.86279 81.165 9.86279 71.5C9.86279 66.2588 12.1674 61.5559 15.8179 58.3486C15.8595 58.1152 15.9047 57.8829 15.9517 57.6514C14.4388 54.4846 13.5903 50.939 13.5903 47.1953C13.5905 33.7824 24.4645 22.9092 37.8774 22.9092Z" fill="#1B4054"/>
<path d="M37.8774 22.9092L37.8775 17.9092H37.8774V22.9092ZM59.9653 37.0879L55.42 39.1712L56.1156 40.6888L57.5833 41.484L59.9653 37.0879ZM62.4497 38.5938L59.6567 42.7409L62.5213 44.6702L65.3397 42.6739L62.4497 38.5938ZM76.9097 34L76.9098 29H76.9097V34ZM92.4146 39.376L89.3166 43.3006L91.4586 44.9914L94.0394 44.1046L92.4146 39.376ZM101.6 37.8486L101.6 32.8486H101.6V37.8486ZM129.513 61.7207L124.573 62.4896L124.974 65.07L127.321 66.2147L129.513 61.7207ZM140.136 78.7119H145.136V78.7119L140.136 78.7119ZM121.242 97.6064L121.242 102.606H121.242V97.6064ZM109.241 93.3047L112.419 89.4448L110.404 87.7859L107.891 88.4902L109.241 93.3047ZM103.843 94.2627L103.452 89.2781L100.963 89.4736L99.6236 91.5804L103.843 94.2627ZM85.9331 108.659L84.2269 103.959L81.6085 104.91L81.0388 107.637L85.9331 108.659ZM58.4087 131L58.4087 136H58.4087V131ZM30.2876 102.879H25.2876V102.879L30.2876 102.879ZM32.8579 91.1201L37.3987 93.2133L39.4855 88.6862L34.9648 86.5857L32.8579 91.1201ZM28.9351 88.9287L31.6919 84.7574L30.2332 83.7934L28.4917 83.9484L28.9351 88.9287ZM27.3638 89V94H27.3639L27.3638 89ZM15.8179 58.3486L19.118 62.1048L20.4332 60.9494L20.7403 59.2259L15.8179 58.3486ZM15.9517 57.6514L20.852 58.6445L21.1843 57.0052L20.4633 55.496L15.9517 57.6514ZM13.5903 47.1953L8.59033 47.1953V47.1953H13.5903ZM37.8774 22.9092L37.8774 27.9092C45.6563 27.9093 52.3694 32.5155 55.42 39.1712L59.9653 37.0879L64.5106 35.0045C59.8916 24.927 49.7102 17.9094 37.8775 17.9092L37.8774 22.9092ZM59.9653 37.0879L57.5833 41.484C58.2934 41.8688 58.9851 42.2886 59.6567 42.7409L62.4497 38.5938L65.2427 34.4466C64.3107 33.8189 63.345 33.2323 62.3473 32.6917L59.9653 37.0879ZM62.4497 38.5938L65.3397 42.6739C68.6073 40.3595 72.5925 39 76.9097 39V34V29C70.4544 29 64.4612 31.0419 59.5597 34.5136L62.4497 38.5938ZM76.9097 34L76.9096 39C81.6004 39.0001 85.9025 40.6056 89.3166 43.3006L92.4146 39.376L95.5125 35.4514C90.3974 31.4136 83.9287 29.0001 76.9098 29L76.9097 34ZM92.4146 39.376L94.0394 44.1046C96.4038 43.2921 98.9453 42.8486 101.6 42.8486V37.8486V32.8486C97.8237 32.8486 94.1848 33.4807 90.7897 34.6474L92.4146 39.376ZM101.6 37.8486L101.6 42.8486C113.211 42.8488 122.841 51.3639 124.573 62.4896L129.513 61.7207L134.454 60.9518C131.976 45.0313 118.216 32.8488 101.6 32.8486L101.6 37.8486ZM129.513 61.7207L127.321 66.2147C131.959 68.4763 135.136 73.2279 135.136 78.712L140.136 78.7119L145.136 78.7119C145.136 69.2594 139.646 61.0996 131.705 57.2267L129.513 61.7207ZM140.136 78.7119H135.136C135.136 86.3853 128.915 92.6064 121.242 92.6064V97.6064V102.606C134.438 102.606 145.136 91.9082 145.136 78.7119H140.136ZM121.242 97.6064L121.242 92.6064C117.887 92.6064 114.821 91.4225 112.419 89.4448L109.241 93.3047L106.063 97.1646C110.187 100.561 115.482 102.606 121.242 102.606L121.242 97.6064ZM109.241 93.3047L107.891 88.4902C106.464 88.8904 104.98 89.158 103.452 89.2781L103.843 94.2627L104.235 99.2473C106.418 99.0758 108.543 98.6929 110.59 98.1191L109.241 93.3047ZM103.843 94.2627L99.6236 91.5804C96.0238 97.2433 90.6172 101.639 84.2269 103.959L85.9331 108.659L87.6394 113.359C96.134 110.275 103.296 104.445 108.063 96.945L103.843 94.2627ZM85.9331 108.659L81.0388 107.637C78.8473 118.125 69.5425 126 58.4087 126V131V136C74.3737 136 87.6875 124.709 90.8274 109.682L85.9331 108.659ZM58.4087 131L58.4087 126C45.6393 126 35.2877 115.648 35.2876 102.879L30.2876 102.879L25.2876 102.879C25.2877 121.171 40.1164 136 58.4087 136L58.4087 131ZM30.2876 102.879H35.2876C35.2876 99.419 36.0454 96.149 37.3987 93.2133L32.8579 91.1201L28.3171 89.027C26.3719 93.2468 25.2876 97.9425 25.2876 102.879H30.2876ZM32.8579 91.1201L34.9648 86.5857C33.8247 86.056 32.7312 85.4443 31.6919 84.7574L28.9351 88.9287L26.1783 93.1C27.6312 94.0603 29.159 94.9148 30.751 95.6545L32.8579 91.1201ZM28.9351 88.9287L28.4917 83.9484C28.1105 83.9823 27.7348 84 27.3636 84L27.3638 89L27.3639 94C28.052 94 28.7243 93.9673 29.3784 93.909L28.9351 88.9287ZM27.3638 89V84C20.4598 84 14.8628 78.4032 14.8628 71.5H9.86279H4.86279C4.86279 83.9268 14.9377 94 27.3638 94V89ZM9.86279 71.5H14.8628C14.8628 67.7575 16.5018 64.4034 19.118 62.1048L15.8179 58.3486L12.5177 54.5924C7.83294 58.7084 4.86279 64.7602 4.86279 71.5H9.86279ZM15.8179 58.3486L20.7403 59.2259C20.7727 59.0439 20.8098 58.8527 20.852 58.6445L15.9517 57.6514L11.0513 56.6583C10.9996 56.9131 10.9462 57.1865 10.8954 57.4714L15.8179 58.3486ZM15.9517 57.6514L20.4633 55.496C19.2644 52.9867 18.5903 50.1761 18.5903 47.1953H13.5903H8.59033C8.59033 51.7019 9.61307 55.9824 11.4401 59.8067L15.9517 57.6514ZM13.5903 47.1953L18.5903 47.1954C18.5905 36.544 27.2257 27.9092 37.8774 27.9092V22.9092V17.9092C21.7033 17.9092 8.59052 31.0207 8.59033 47.1953L13.5903 47.1953Z" fill="#1A2A33" mask="url(#path-1-inside-1_1274_71654)"/>
<circle cx="71.8633" cy="76" r="22" fill="#1F5C7C"/>
<circle cx="101.362" cy="64.9834" r="14.612" transform="rotate(-4.48805 101.362 64.9834)" fill="#1F5C7C"/>
<circle cx="115.54" cy="73.0095" r="8.1822" transform="rotate(-4.48805 115.54 73.0095)" fill="#1F5C7C"/>
<circle cx="45.0262" cy="60.1627" r="16.8928" transform="rotate(-4.48805 45.0262 60.1627)" fill="#1F5C7C"/>
<circle cx="40.2532" cy="48.3897" r="10.5934" transform="rotate(-4.48805 40.2532 48.3897)" fill="#1F5C7C"/>
<circle cx="75.9927" cy="56.1287" r="9.42066" transform="rotate(-4.48805 75.9927 56.1287)" fill="#1F5C7C"/>
<path d="M75.1997 105.483C74.8098 108.131 73.8082 110.652 72.2735 112.849C70.7387 115.045 68.7126 116.857 66.354 118.143C63.9954 119.428 61.3684 120.153 58.6792 120.259C55.9899 120.365 53.3115 119.85 50.854 118.754C48.3965 117.658 46.2268 116.011 44.515 113.943C42.8031 111.874 41.5958 109.44 40.9876 106.832C40.3795 104.223 40.387 101.511 41.0097 98.908C41.6324 96.3049 42.8533 93.8816 44.5766 91.8283L44.7713 92.1555C51.0177 102.651 63.25 108.009 75.1997 105.483Z" fill="#1F5C7C"/>
<circle cx="74.8633" cy="75" r="13" fill="#4D8DBA"/>
<circle cx="97.8633" cy="66" r="7" fill="#4D8DBA"/>
<circle cx="100.863" cy="60" r="5" fill="#4D8DBA"/>
<circle cx="42.8633" cy="56" r="9" fill="#4D8DBA"/>
<circle cx="42.8633" cy="62" r="7" fill="#4D8DBA"/>
</svg>
