<svg width="200" height="200" viewBox="0 0 200 200" fill="none" xmlns="http://www.w3.org/2000/svg">
<mask id="path-1-inside-1_1274_71307" fill="white">
<path d="M143.429 17C154.043 17.0001 163.454 22.1446 169.309 30.0752C179.991 38.4374 186.857 51.4507 186.857 66.0684C186.857 68.6649 186.636 71.2102 186.22 73.6885C186.636 75.5946 186.857 77.5737 186.857 79.6045C186.857 94.2275 175.5 106.196 161.125 107.175C155.096 110.107 148.327 111.753 141.172 111.753C140.891 111.753 140.61 111.747 140.33 111.742C139.393 113.871 138.292 115.911 137.039 117.845C149.343 120.14 158.656 130.932 158.656 143.901C158.656 155.296 151.467 165.01 141.376 168.758C139.802 176.147 133.239 181.69 125.38 181.69C121.927 181.69 118.724 180.619 116.084 178.792C110.703 181.372 104.674 182.818 98.3079 182.818C75.569 182.818 57.135 164.384 57.135 141.646C57.1351 134.769 58.8233 128.288 61.804 122.59C57.9146 118.851 55.036 114.071 53.6155 108.696C50.3263 109.941 46.7608 110.625 43.0354 110.625C26.5263 110.625 13.1428 97.2415 13.1428 80.7324C13.1429 71.9666 16.9152 64.081 22.926 58.6133C22.4303 56.2884 22.1672 53.877 22.1672 51.4043C22.1673 32.4033 37.5705 17 56.5715 17C73.0411 17 86.8051 28.5732 90.1809 44.0303C92.0033 43.3292 93.9827 42.9443 96.052 42.9443C97.8796 42.9443 99.6374 43.2438 101.279 43.7969C106.234 34.9395 114.051 27.9 123.481 23.9355C128.962 19.593 135.893 17 143.429 17Z"/>
</mask>
<path d="M143.429 17C154.043 17.0001 163.454 22.1446 169.309 30.0752C179.991 38.4374 186.857 51.4507 186.857 66.0684C186.857 68.6649 186.636 71.2102 186.22 73.6885C186.636 75.5946 186.857 77.5737 186.857 79.6045C186.857 94.2275 175.5 106.196 161.125 107.175C155.096 110.107 148.327 111.753 141.172 111.753C140.891 111.753 140.61 111.747 140.33 111.742C139.393 113.871 138.292 115.911 137.039 117.845C149.343 120.14 158.656 130.932 158.656 143.901C158.656 155.296 151.467 165.01 141.376 168.758C139.802 176.147 133.239 181.69 125.38 181.69C121.927 181.69 118.724 180.619 116.084 178.792C110.703 181.372 104.674 182.818 98.3079 182.818C75.569 182.818 57.135 164.384 57.135 141.646C57.1351 134.769 58.8233 128.288 61.804 122.59C57.9146 118.851 55.036 114.071 53.6155 108.696C50.3263 109.941 46.7608 110.625 43.0354 110.625C26.5263 110.625 13.1428 97.2415 13.1428 80.7324C13.1429 71.9666 16.9152 64.081 22.926 58.6133C22.4303 56.2884 22.1672 53.877 22.1672 51.4043C22.1673 32.4033 37.5705 17 56.5715 17C73.0411 17 86.8051 28.5732 90.1809 44.0303C92.0033 43.3292 93.9827 42.9443 96.052 42.9443C97.8796 42.9443 99.6374 43.2438 101.279 43.7969C106.234 34.9395 114.051 27.9 123.481 23.9355C128.962 19.593 135.893 17 143.429 17Z" fill="#1B4054"/>
<path d="M143.429 17L143.429 11H143.429V17ZM169.309 30.0752L164.482 33.6387L164.967 34.2961L165.61 34.7998L169.309 30.0752ZM186.857 66.0684H192.857V66.0683L186.857 66.0684ZM186.22 73.6885L180.303 72.6949L180.111 73.8363L180.358 74.9672L186.22 73.6885ZM186.857 79.6045H192.857V79.6044L186.857 79.6045ZM161.125 107.175L160.718 101.189L159.552 101.268L158.501 101.779L161.125 107.175ZM141.172 111.753L141.172 117.753H141.172V111.753ZM140.33 111.742L140.439 105.743L136.447 105.671L134.838 109.326L140.33 111.742ZM137.039 117.845L132.003 114.583L127.134 122.101L135.939 123.743L137.039 117.845ZM158.656 143.901H164.656V143.901L158.656 143.901ZM141.376 168.758L139.287 163.133L136.195 164.282L135.508 167.508L141.376 168.758ZM125.38 181.69L125.38 187.69H125.38V181.69ZM116.084 178.792L119.499 173.858L116.633 171.875L113.49 173.382L116.084 178.792ZM98.3079 182.818L98.3078 188.818H98.3079V182.818ZM57.135 141.646L51.135 141.645V141.646H57.135ZM61.804 122.59L67.1205 125.371L69.2066 121.383L65.9619 118.264L61.804 122.59ZM53.6155 108.696L59.4163 107.163L57.7155 100.729L51.4912 103.085L53.6155 108.696ZM43.0354 110.625V116.625H43.0354L43.0354 110.625ZM13.1428 80.7324L7.14282 80.7323V80.7324H13.1428ZM22.926 58.6133L26.9634 63.0517L29.5128 60.7327L28.7941 57.3621L22.926 58.6133ZM22.1672 51.4043L16.1672 51.4043V51.4043H22.1672ZM56.5715 17L56.5715 11H56.5715V17ZM90.1809 44.0303L84.3191 45.3105L85.8107 52.1403L92.3353 49.6302L90.1809 44.0303ZM96.052 42.9443L96.052 36.9443H96.052V42.9443ZM101.279 43.7969L99.3625 49.4827L104.083 51.0734L106.515 46.7264L101.279 43.7969ZM123.481 23.9355L125.806 29.4666L126.563 29.1484L127.207 28.6385L123.481 23.9355ZM143.429 17L143.429 23C152.057 23.0001 159.709 27.1739 164.482 33.6387L169.309 30.0752L174.136 26.5117C167.199 17.1152 156.029 11.0001 143.429 11L143.429 17ZM169.309 30.0752L165.61 34.7998C174.903 42.0738 180.857 53.3738 180.857 66.0684L186.857 66.0684L192.857 66.0683C192.857 49.5275 185.08 34.801 173.007 25.3506L169.309 30.0752ZM186.857 66.0684H180.857C180.857 68.3244 180.665 70.5374 180.303 72.6949L186.22 73.6885L192.137 74.6821C192.607 71.8831 192.857 69.0054 192.857 66.0684H186.857ZM186.22 73.6885L180.358 74.9672C180.683 76.4597 180.857 78.0102 180.857 79.6046L186.857 79.6045L192.857 79.6044C192.857 77.1372 192.588 74.7295 192.082 72.4098L186.22 73.6885ZM186.857 79.6045H180.857C180.857 91.05 171.966 100.423 160.718 101.189L161.125 107.175L161.533 113.161C179.034 111.97 192.857 97.4049 192.857 79.6045H186.857ZM161.125 107.175L158.501 101.779C153.271 104.322 147.397 105.753 141.172 105.753V111.753V117.753C149.256 117.753 156.922 115.891 163.749 112.571L161.125 107.175ZM141.172 111.753L141.172 105.753C140.958 105.753 140.741 105.749 140.439 105.743L140.33 111.742L140.222 117.741C140.48 117.746 140.824 117.753 141.172 117.753L141.172 111.753ZM140.33 111.742L134.838 109.326C134.031 111.161 133.082 112.918 132.003 114.583L137.039 117.845L142.075 121.106C143.502 118.904 144.756 116.582 145.822 114.159L140.33 111.742ZM137.039 117.845L135.939 123.743C145.455 125.518 152.656 133.875 152.656 143.901L158.656 143.901L164.656 143.901C164.656 127.99 153.231 114.762 138.14 111.946L137.039 117.845ZM158.656 143.901H152.656C152.656 152.707 147.103 160.23 139.287 163.133L141.376 168.758L143.465 174.382C155.83 169.79 164.656 157.885 164.656 143.901H158.656ZM141.376 168.758L135.508 167.508C134.512 172.186 130.348 175.69 125.38 175.69V181.69V187.69C136.13 187.69 145.093 180.109 147.245 170.008L141.376 168.758ZM125.38 181.69L125.38 175.69C123.187 175.69 121.169 175.014 119.499 173.858L116.084 178.792L112.67 183.726C116.279 186.224 120.666 187.69 125.38 187.69L125.38 181.69ZM116.084 178.792L113.49 173.382C108.9 175.582 103.756 176.818 98.3079 176.818V182.818V188.818C105.592 188.818 112.505 187.162 118.678 184.202L116.084 178.792ZM98.3079 182.818L98.3079 176.818C78.8827 176.818 63.135 161.071 63.135 141.646H57.135H51.135C51.135 167.698 72.2553 188.818 98.3078 188.818L98.3079 182.818ZM57.135 141.646L63.135 141.646C63.135 135.763 64.5773 130.233 67.1205 125.371L61.804 122.59L56.4874 119.809C53.0694 126.343 51.1351 133.776 51.135 141.645L57.135 141.646ZM61.804 122.59L65.9619 118.264C62.8466 115.27 60.5488 111.448 59.4163 107.163L53.6155 108.696L47.8147 110.23C49.5231 116.693 52.9827 122.433 57.646 126.916L61.804 122.59ZM53.6155 108.696L51.4912 103.085C48.868 104.078 46.0216 104.625 43.0354 104.625L43.0354 110.625L43.0354 116.625C47.5001 116.625 51.7845 115.805 55.7397 114.308L53.6155 108.696ZM43.0354 110.625V104.625C29.84 104.625 19.1428 93.9278 19.1428 80.7324H13.1428H7.14282C7.14282 100.555 23.2126 116.625 43.0354 116.625V110.625ZM13.1428 80.7324L19.1428 80.7325C19.1429 73.7257 22.1505 67.4298 26.9634 63.0517L22.926 58.6133L18.8886 54.1749C11.6799 60.7323 7.14297 70.2075 7.14282 80.7323L13.1428 80.7324ZM22.926 58.6133L28.7941 57.3621C28.3848 55.4423 28.1672 53.4502 28.1672 51.4043H22.1672H16.1672C16.1672 54.3038 16.4759 57.1345 17.0579 59.8645L22.926 58.6133ZM22.1672 51.4043L28.1672 51.4043C28.1673 35.717 40.8843 23 56.5715 23V17V11C34.2568 11 16.1673 29.0896 16.1672 51.4043L22.1672 51.4043ZM56.5715 17L56.5715 23C70.1608 23 81.5322 32.5498 84.3191 45.3105L90.1809 44.0303L96.0427 42.7501C92.078 24.5965 75.9215 11 56.5715 11L56.5715 17ZM90.1809 44.0303L92.3353 49.6302C93.4821 49.1889 94.732 48.9443 96.052 48.9443V42.9443V36.9443C93.2334 36.9443 90.5244 37.4694 88.0265 38.4304L90.1809 44.0303ZM96.052 42.9443L96.052 48.9443C97.2204 48.9443 98.3314 49.1352 99.3625 49.4827L101.279 43.7969L103.195 38.111C100.943 37.3524 98.5389 36.9443 96.052 36.9443L96.052 42.9443ZM101.279 43.7969L106.515 46.7264C110.823 39.0266 117.62 32.9083 125.806 29.4666L123.481 23.9355L121.155 18.4045C110.482 22.8917 101.645 30.8523 96.0423 40.8674L101.279 43.7969ZM123.481 23.9355L127.207 28.6385C131.666 25.1058 137.293 23 143.429 23V17V11C134.492 11 126.258 14.0802 119.755 19.2326L123.481 23.9355Z" fill="#1A2A33" mask="url(#path-1-inside-1_1274_71307)"/>
<circle cx="97.7439" cy="91.4492" r="32.7124" fill="#1F5C7C"/>
<circle cx="130.412" cy="74.4843" r="26.187" transform="rotate(-4.48805 130.412 74.4843)" fill="#1F5C7C"/>
<circle cx="118.267" cy="151.452" r="11.7435" transform="rotate(-4.48805 118.267 151.452)" fill="#1F5C7C"/>
<circle cx="138.473" cy="58.8577" r="15.8496" transform="rotate(-4.48805 138.473 58.8577)" fill="#1F5C7C"/>
<circle cx="152.067" cy="80.347" r="11.7061" transform="rotate(-4.48805 152.067 80.347)" fill="#1F5C7C"/>
<circle cx="62.9535" cy="79.2191" r="15.6031" transform="rotate(-4.48805 62.9535 79.2191)" fill="#1F5C7C"/>
<circle cx="56.3492" cy="47.7982" r="17.4842" fill="#1F5C7C"/>
<path d="M120.152 135.779C120.601 139.549 120.165 143.372 118.879 146.949C117.593 150.526 115.492 153.759 112.739 156.395C109.987 159.03 106.659 160.997 103.017 162.14C99.374 163.283 95.5157 163.572 91.7443 162.984C87.973 162.396 84.3911 160.946 81.2797 158.749C78.1683 156.553 75.6119 153.668 73.8111 150.323C72.0104 146.977 71.0141 143.261 70.9006 139.465C70.787 135.67 71.5592 131.899 73.1566 128.448L73.5447 128.824C85.9922 140.876 104.729 143.672 120.152 135.779Z" fill="#1F5C7C"/>
<circle cx="54.8794" cy="42.9446" r="10.1521" fill="#4D8DBA"/>
<circle cx="149.633" cy="79.0411" r="7.8961" fill="#4D8DBA"/>
<circle cx="92.1039" cy="91.4486" r="18.0482" fill="#4D8DBA"/>
<circle cx="104.512" cy="101.601" r="10.1521" fill="#4D8DBA"/>
</svg>
