<svg width="200" height="200" viewBox="0 0 200 200" fill="none" xmlns="http://www.w3.org/2000/svg">
<mask id="path-1-inside-1_1274_71349" fill="white">
<path d="M106.119 20.6558L110.582 21.2456L116.081 22.355L126.675 25.0728L137.209 28.0161L142.525 29.8052L146.686 31.5259L150.149 33.3052L153.096 35.1929L155.612 37.2144L157.75 39.3892L159.537 41.729L160.992 44.2495L162.125 46.9673L162.939 49.9058L163.433 53.0962L163.438 53.2368L165.809 56.312L167.946 59.9419L169.745 64.0239L171.21 68.6323L172.347 73.8921L173.156 80.0601L173.643 87.7964L173.804 102.909L173.76 106.976L175.191 108.559L176.667 110.684L177.871 113.007L178.81 115.55L179.481 118.339L179.882 121.423L180 124.882L179.808 128.879L179.231 133.832L177.606 143.417L175.777 152.963L174.586 157.805L173.368 161.617L172.048 164.816L170.594 167.566L168.989 169.944L167.222 171.998L165.28 173.753L163.155 175.229L160.832 176.433L158.289 177.372L155.5 178.043L152.416 178.444L148.957 178.562L144.96 178.37L140.008 177.793L130.423 176.169L120.876 174.339L116.034 173.148L112.223 171.931L109.023 170.61L106.273 169.157L103.896 167.551L102.046 165.959L95.5479 165.89L87.8115 165.404L81.6436 164.594L76.3838 163.458L71.7764 161.993L67.6943 160.195L65.0127 158.615L63.8555 158.849L59.3926 159.439L55.5029 159.629L52.0078 159.468L48.8174 158.976L45.8789 158.162L43.1611 157.029L40.6406 155.574L38.3008 153.786L36.126 151.649L34.1045 149.132L32.2178 146.185L30.4375 142.721L28.7168 138.562L26.9277 133.245L23.9844 122.711L21.2666 112.117L20.1572 106.619L19.5684 102.155L19.377 98.2651L19.5381 94.77L20.0303 91.5806L20.8447 88.6421L21.9775 85.9233L23.4336 83.4028L25.2207 81.063L27.3584 78.8882L29.875 76.8667L32.8213 74.98L36.2852 73.1997L40.4453 71.479L45.7617 69.6899L50.166 68.4585L51.5762 64.0239L53.375 59.9419L55.5127 56.312L57.9971 53.0884L60.8408 50.2446L64.0635 47.7612L67.6943 45.6226L71.7764 43.8247L75.0176 42.7935L75.4424 41.5337L77.1641 37.3735L78.9434 33.9097L80.8311 30.9624L82.8525 28.4468L85.0264 26.3091L87.3672 24.522L89.8877 23.0659L92.6055 21.9331L95.5439 21.1187L98.7334 20.6265L102.229 20.4653L106.119 20.6558Z"/>
</mask>
<path d="M106.119 20.6558L110.582 21.2456L116.081 22.355L126.675 25.0728L137.209 28.0161L142.525 29.8052L146.686 31.5259L150.149 33.3052L153.096 35.1929L155.612 37.2144L157.75 39.3892L159.537 41.729L160.992 44.2495L162.125 46.9673L162.939 49.9058L163.433 53.0962L163.438 53.2368L165.809 56.312L167.946 59.9419L169.745 64.0239L171.21 68.6323L172.347 73.8921L173.156 80.0601L173.643 87.7964L173.804 102.909L173.76 106.976L175.191 108.559L176.667 110.684L177.871 113.007L178.81 115.55L179.481 118.339L179.882 121.423L180 124.882L179.808 128.879L179.231 133.832L177.606 143.417L175.777 152.963L174.586 157.805L173.368 161.617L172.048 164.816L170.594 167.566L168.989 169.944L167.222 171.998L165.28 173.753L163.155 175.229L160.832 176.433L158.289 177.372L155.5 178.043L152.416 178.444L148.957 178.562L144.96 178.37L140.008 177.793L130.423 176.169L120.876 174.339L116.034 173.148L112.223 171.931L109.023 170.61L106.273 169.157L103.896 167.551L102.046 165.959L95.5479 165.89L87.8115 165.404L81.6436 164.594L76.3838 163.458L71.7764 161.993L67.6943 160.195L65.0127 158.615L63.8555 158.849L59.3926 159.439L55.5029 159.629L52.0078 159.468L48.8174 158.976L45.8789 158.162L43.1611 157.029L40.6406 155.574L38.3008 153.786L36.126 151.649L34.1045 149.132L32.2178 146.185L30.4375 142.721L28.7168 138.562L26.9277 133.245L23.9844 122.711L21.2666 112.117L20.1572 106.619L19.5684 102.155L19.377 98.2651L19.5381 94.77L20.0303 91.5806L20.8447 88.6421L21.9775 85.9233L23.4336 83.4028L25.2207 81.063L27.3584 78.8882L29.875 76.8667L32.8213 74.98L36.2852 73.1997L40.4453 71.479L45.7617 69.6899L50.166 68.4585L51.5762 64.0239L53.375 59.9419L55.5127 56.312L57.9971 53.0884L60.8408 50.2446L64.0635 47.7612L67.6943 45.6226L71.7764 43.8247L75.0176 42.7935L75.4424 41.5337L77.1641 37.3735L78.9434 33.9097L80.8311 30.9624L82.8525 28.4468L85.0264 26.3091L87.3672 24.522L89.8877 23.0659L92.6055 21.9331L95.5439 21.1187L98.7334 20.6265L102.229 20.4653L106.119 20.6558Z" fill="#81361E"/>
<path d="M106.119 20.6558L106.905 14.7075L106.66 14.675L106.413 14.6629L106.119 20.6558ZM110.582 21.2456L111.769 15.3641L111.57 15.3239L111.368 15.2973L110.582 21.2456ZM116.081 22.355L117.572 16.5432L117.421 16.5044L117.268 16.4735L116.081 22.355ZM126.675 25.0728L128.289 19.2941L128.228 19.2769L128.166 19.261L126.675 25.0728ZM137.209 28.0161L139.123 22.3295L138.974 22.2796L138.824 22.2374L137.209 28.0161ZM142.525 29.8052L144.819 24.2607L144.631 24.1832L144.439 24.1185L142.525 29.8052ZM146.686 31.5259L149.427 26.1888L149.207 26.0759L148.979 25.9814L146.686 31.5259ZM150.149 33.3052L153.386 28.2532L153.145 28.0988L152.891 27.9681L150.149 33.3052ZM153.096 35.1929L156.853 30.5151L156.603 30.3141L156.333 30.1409L153.096 35.1929ZM155.612 37.2144L159.891 33.0084L159.644 32.7572L159.37 32.5366L155.612 37.2144ZM157.75 39.3892L162.518 35.7473L162.291 35.45L162.029 35.1832L157.75 39.3892ZM159.537 41.729L164.733 38.7292L164.54 38.3944L164.305 38.0871L159.537 41.729ZM160.992 44.2495L166.53 41.9411L166.382 41.5844L166.188 41.2497L160.992 44.2495ZM162.125 46.9673L167.907 45.3647L167.807 45.0042L167.663 44.6589L162.125 46.9673ZM162.939 49.9058L168.869 48.9892L168.815 48.6419L168.721 48.3032L162.939 49.9058ZM163.433 53.0962L169.427 52.8464L169.413 52.5112L169.362 52.1796L163.433 53.0962ZM163.438 53.2368L157.444 53.4866L157.523 55.3904L158.686 56.8995L163.438 53.2368ZM165.809 56.312L170.979 53.2673L170.789 52.9453L170.561 52.6493L165.809 56.312ZM167.946 59.9419L173.437 57.5224L173.295 57.2004L173.116 56.8972L167.946 59.9419ZM169.745 64.0239L175.463 62.2064L175.366 61.8993L175.236 61.6044L169.745 64.0239ZM171.21 68.6323L177.075 67.3649L177.014 67.0863L176.928 66.8148L171.21 68.6323ZM172.347 73.8921L178.296 73.1113L178.263 72.8662L178.211 72.6247L172.347 73.8921ZM173.156 80.0601L179.144 79.6836L179.132 79.4808L179.105 79.2792L173.156 80.0601ZM173.643 87.7964L179.642 87.7324L179.641 87.576L179.631 87.42L173.643 87.7964ZM173.804 102.909L179.803 102.974L179.804 102.909L179.803 102.845L173.804 102.909ZM173.76 106.976L167.76 106.911L167.735 109.259L169.31 111.001L173.76 106.976ZM175.191 108.559L180.12 105.137L179.9 104.82L179.641 104.535L175.191 108.559ZM176.667 110.684L181.994 107.923L181.816 107.58L181.595 107.262L176.667 110.684ZM177.871 113.007L183.5 110.93L183.37 110.579L183.198 110.246L177.871 113.007ZM178.81 115.55L184.643 114.145L184.56 113.803L184.438 113.473L178.81 115.55ZM179.481 118.339L185.432 117.567L185.39 117.247L185.315 116.934L179.481 118.339ZM179.882 121.423L185.878 121.218L185.869 120.934L185.832 120.651L179.882 121.423ZM180 124.882L185.993 125.171L186.005 124.924L185.997 124.677L180 124.882ZM179.808 128.879L185.767 129.573L185.791 129.371L185.801 129.168L179.808 128.879ZM179.231 133.832L185.147 134.834L185.173 134.68L185.191 134.525L179.231 133.832ZM177.606 143.417L183.499 144.546L183.511 144.483L183.522 144.419L177.606 143.417ZM175.777 152.963L181.604 154.397L181.641 154.246L181.67 154.092L175.777 152.963ZM174.586 157.805L180.301 159.631L180.363 159.437L180.412 159.239L174.586 157.805ZM173.368 161.617L178.914 163.906L179.008 163.678L179.084 163.443L173.368 161.617ZM172.048 164.816L177.352 167.621L177.485 167.368L177.594 167.105L172.048 164.816ZM170.594 167.566L175.567 170.922L175.747 170.655L175.898 170.371L170.594 167.566ZM168.989 169.944L173.537 173.858L173.766 173.591L173.963 173.3L168.989 169.944ZM167.222 171.998L171.246 176.448L171.525 176.196L171.769 175.912L167.222 171.998ZM165.28 173.753L168.702 178.682L169.019 178.462L169.305 178.203L165.28 173.753ZM163.155 175.229L165.916 180.556L166.26 180.378L166.577 180.157L163.155 175.229ZM160.832 176.433L162.909 182.062L163.261 181.932L163.593 181.76L160.832 176.433ZM158.289 177.372L159.694 183.205L160.036 183.122L160.366 183L158.289 177.372ZM155.5 178.043L156.272 183.994L156.592 183.952L156.905 183.877L155.5 178.043ZM152.416 178.444L152.621 184.44L152.906 184.431L153.189 184.394L152.416 178.444ZM148.957 178.562L148.669 184.555L148.915 184.567L149.162 184.559L148.957 178.562ZM144.96 178.37L144.267 184.329L144.468 184.353L144.672 184.363L144.96 178.37ZM140.008 177.793L139.005 183.709L139.159 183.735L139.314 183.753L140.008 177.793ZM130.423 176.169L129.293 182.062L129.357 182.074L129.421 182.085L130.423 176.169ZM120.876 174.339L119.442 180.166L119.593 180.203L119.746 180.232L120.876 174.339ZM116.034 173.148L114.209 178.864L114.403 178.926L114.601 178.974L116.034 173.148ZM112.223 171.931L109.932 177.477L110.162 177.572L110.398 177.647L112.223 171.931ZM109.023 170.61L106.22 175.915L106.471 176.047L106.733 176.156L109.023 170.61ZM106.273 169.157L102.916 174.129L103.184 174.311L103.47 174.462L106.273 169.157ZM103.896 167.551L99.9817 172.099L100.247 172.328L100.538 172.524L103.896 167.551ZM102.046 165.959L105.96 161.412L104.3 159.983L102.11 159.96L102.046 165.959ZM95.5479 165.89L95.1714 171.878L95.3275 171.888L95.4838 171.89L95.5479 165.89ZM87.8115 165.404L87.0307 171.353L87.2322 171.379L87.4351 171.392L87.8115 165.404ZM81.6436 164.594L80.3761 170.459L80.6177 170.511L80.8627 170.543L81.6436 164.594ZM76.3838 163.458L74.5659 169.175L74.8376 169.262L75.1164 169.322L76.3838 163.458ZM71.7764 161.993L69.358 167.484L69.6521 167.613L69.9584 167.711L71.7764 161.993ZM67.6943 160.195L64.6484 165.364L64.9527 165.543L65.2759 165.686L67.6943 160.195ZM65.0127 158.615L68.0586 153.445L66.0765 152.277L63.8217 152.734L65.0127 158.615ZM63.8555 158.849L64.6416 164.797L64.8452 164.77L65.0465 164.73L63.8555 158.849ZM59.3926 159.439L59.686 165.432L59.9333 165.42L60.1787 165.387L59.3926 159.439ZM55.5029 159.629L55.2266 165.623L55.5115 165.636L55.7963 165.622L55.5029 159.629ZM52.0078 159.468L51.093 165.398L51.4105 165.447L51.7315 165.462L52.0078 159.468ZM48.8174 158.976L47.2148 164.758L47.5543 164.852L47.9026 164.906L48.8174 158.976ZM45.8789 158.162L43.5705 163.7L43.9158 163.844L44.2763 163.944L45.8789 158.162ZM43.1611 157.029L40.1613 162.225L40.496 162.418L40.8527 162.567L43.1611 157.029ZM40.6406 155.574L36.9975 160.341L37.3053 160.576L37.6408 160.77L40.6406 155.574ZM38.3008 153.786L34.0958 158.066L34.3616 158.327L34.6576 158.553L38.3008 153.786ZM36.126 151.649L31.4482 155.406L31.6692 155.682L31.921 155.929L36.126 151.649ZM34.1045 149.132L29.0512 152.367L29.2249 152.639L29.4267 152.89L34.1045 149.132ZM32.2178 146.185L26.8813 148.928L27.0113 149.181L27.1645 149.42L32.2178 146.185ZM30.4375 142.721L24.8932 145.015L24.9879 145.244L25.1011 145.464L30.4375 142.721ZM28.7168 138.562L23.03 140.475L23.0948 140.668L23.1725 140.856L28.7168 138.562ZM26.9277 133.245L21.1491 134.859L21.1912 135.01L21.241 135.158L26.9277 133.245ZM23.9844 122.711L18.1725 124.202L18.1885 124.264L18.2057 124.326L23.9844 122.711ZM21.2666 112.117L15.3851 113.303L15.416 113.456L15.4548 113.608L21.2666 112.117ZM20.1572 106.619L14.2088 107.403L14.2354 107.606L14.2758 107.805L20.1572 106.619ZM19.5684 102.155L13.5756 102.45L13.5877 102.695L13.6199 102.939L19.5684 102.155ZM19.377 98.2651L13.3833 97.9888L13.3702 98.2744L13.3842 98.56L19.377 98.2651ZM19.5381 94.77L13.6083 93.8549L13.5593 94.1726L13.5445 94.4937L19.5381 94.77ZM20.0303 91.5806L14.2483 89.978L14.1542 90.3174L14.1005 90.6655L20.0303 91.5806ZM20.8447 88.6421L15.3063 86.3344L15.1625 86.6794L15.0627 87.0395L20.8447 88.6421ZM21.9775 85.9233L16.7821 82.922L16.5882 83.2578L16.4391 83.6156L21.9775 85.9233ZM23.4336 83.4028L18.6653 79.7609L18.4312 80.0675L18.2382 80.4015L23.4336 83.4028ZM25.2207 81.063L20.9417 76.857L20.6795 77.1238L20.4524 77.4211L25.2207 81.063ZM27.3584 78.8882L23.6009 74.2104L23.3263 74.431L23.0794 74.6822L27.3584 78.8882ZM29.875 76.8667L26.6393 71.8139L26.3684 71.9874L26.1175 72.1889L29.875 76.8667ZM32.8213 74.98L30.0786 69.6435L29.8254 69.7737L29.5856 69.9272L32.8213 74.98ZM36.2852 73.1997L33.9919 67.6553L33.7629 67.75L33.5425 67.8633L36.2852 73.1997ZM40.4453 71.479L38.5317 65.7924L38.3394 65.857L38.152 65.9346L40.4453 71.479ZM45.7617 69.6899L44.1461 63.9116L43.9959 63.9536L43.8481 64.0033L45.7617 69.6899ZM50.166 68.4585L51.7817 74.2369L54.902 73.3644L55.8839 70.2767L50.166 68.4585ZM51.5762 64.0239L46.0856 61.6044L45.9558 61.899L45.8583 62.2057L51.5762 64.0239ZM53.375 59.9419L48.2049 56.8972L48.0264 57.2004L47.8845 57.5224L53.375 59.9419ZM55.5127 56.312L50.7603 52.6494L50.5322 52.9454L50.3426 53.2673L55.5127 56.312ZM57.9971 53.0884L53.7544 48.8457L53.4808 49.1193L53.2446 49.4258L57.9971 53.0884ZM60.8408 50.2446L57.1785 45.492L56.8719 45.7283L56.5982 46.002L60.8408 50.2446ZM64.0635 47.7612L61.0183 42.5914L60.6967 42.7808L60.4011 43.0086L64.0635 47.7612ZM67.6943 45.6226L65.2759 40.1315L64.9531 40.2737L64.6492 40.4527L67.6943 45.6226ZM71.7764 43.8247L69.9572 38.1071L69.6515 38.2044L69.358 38.3337L71.7764 43.8247ZM75.0176 42.7935L76.8367 48.511L79.7322 47.5898L80.703 44.7106L75.0176 42.7935ZM75.4424 41.5337L69.8984 39.2393L69.8213 39.4255L69.7569 39.6165L75.4424 41.5337ZM77.1641 37.3735L71.827 34.632L71.7144 34.8513L71.6201 35.0792L77.1641 37.3735ZM78.9434 33.9097L73.8909 30.6736L73.7368 30.9141L73.6063 31.1682L78.9434 33.9097ZM80.8311 30.9624L76.154 27.2041L75.9523 27.4551L75.7786 27.7263L80.8311 30.9624ZM82.8525 28.4468L78.6456 24.1687L78.3953 24.4148L78.1755 24.6884L82.8525 28.4468ZM85.0264 26.3091L81.3854 21.5401L81.0871 21.7678L80.8194 22.031L85.0264 26.3091ZM87.3672 24.522L84.3659 19.3266L84.0324 19.5192L83.7263 19.7529L87.3672 24.522ZM89.8877 23.0659L87.5793 17.5278L87.2218 17.6768L86.8864 17.8705L89.8877 23.0659ZM92.6055 21.9331L91.0029 16.1511L90.6424 16.251L90.2971 16.3949L92.6055 21.9331ZM95.5439 21.1187L94.6289 15.1888L94.2808 15.2426L93.9414 15.3366L95.5439 21.1187ZM98.7334 20.6265L98.4572 14.6328L98.136 14.6476L97.8183 14.6967L98.7334 20.6265ZM102.229 20.4653L102.523 14.4725L102.238 14.4586L101.953 14.4717L102.229 20.4653ZM106.119 20.6558L105.333 26.604L109.796 27.1939L110.582 21.2456L111.368 15.2973L106.905 14.7075L106.119 20.6558ZM110.582 21.2456L109.395 27.1271L114.895 28.2365L116.081 22.355L117.268 16.4735L111.769 15.3641L110.582 21.2456ZM116.081 22.355L114.59 28.1668L125.184 30.8845L126.675 25.0728L128.166 19.261L117.572 16.5432L116.081 22.355ZM126.675 25.0728L125.06 30.8514L135.594 33.7948L137.209 28.0161L138.824 22.2374L128.289 19.2941L126.675 25.0728ZM137.209 28.0161L135.295 33.7028L140.612 35.4918L142.525 29.8052L144.439 24.1185L139.123 22.3295L137.209 28.0161ZM142.525 29.8052L140.232 35.3496L144.392 37.0703L146.686 31.5259L148.979 25.9814L144.819 24.2607L142.525 29.8052ZM146.686 31.5259L143.944 36.8629L147.408 38.6422L150.149 33.3052L152.891 27.9681L149.427 26.1888L146.686 31.5259ZM150.149 33.3052L146.913 38.3572L149.859 40.2449L153.096 35.1929L156.333 30.1409L153.386 28.2532L150.149 33.3052ZM153.096 35.1929L149.338 39.8706L151.855 41.8921L155.612 37.2144L159.37 32.5366L156.853 30.5151L153.096 35.1929ZM155.612 37.2144L151.333 41.4203L153.471 43.5951L157.75 39.3892L162.029 35.1832L159.891 33.0084L155.612 37.2144ZM157.75 39.3892L152.982 43.0311L154.769 45.3709L159.537 41.729L164.305 38.0871L162.518 35.7473L157.75 39.3892ZM159.537 41.729L154.341 44.7288L155.796 47.2493L160.992 44.2495L166.188 41.2497L164.733 38.7292L159.537 41.729ZM160.992 44.2495L155.454 46.5579L156.587 49.2757L162.125 46.9673L167.663 44.6589L166.53 41.9411L160.992 44.2495ZM162.125 46.9673L156.343 48.5699L157.157 51.5084L162.939 49.9058L168.721 48.3032L167.907 45.3647L162.125 46.9673ZM162.939 49.9058L157.01 50.8223L157.503 54.0128L163.433 53.0962L169.362 52.1796L168.869 48.9892L162.939 49.9058ZM163.433 53.0962L157.438 53.346L157.444 53.4866L163.438 53.2368L169.433 52.987L169.427 52.8464L163.433 53.0962ZM163.438 53.2368L158.686 56.8995L161.056 59.9747L165.809 56.312L170.561 52.6493L168.191 49.5741L163.438 53.2368ZM165.809 56.312L160.639 59.3567L162.776 62.9866L167.946 59.9419L173.116 56.8972L170.979 53.2673L165.809 56.312ZM167.946 59.9419L162.456 62.3614L164.255 66.4434L169.745 64.0239L175.236 61.6044L173.437 57.5224L167.946 59.9419ZM169.745 64.0239L164.027 65.8415L165.492 70.4499L171.21 68.6323L176.928 66.8148L175.463 62.2064L169.745 64.0239ZM171.21 68.6323L165.345 69.8998L166.482 75.1595L172.347 73.8921L178.211 72.6247L177.075 67.3649L171.21 68.6323ZM172.347 73.8921L166.398 74.6729L167.207 80.8409L173.156 80.0601L179.105 79.2792L178.296 73.1113L172.347 73.8921ZM173.156 80.0601L167.168 80.4365L167.654 88.1728L173.643 87.7964L179.631 87.42L179.144 79.6836L173.156 80.0601ZM173.643 87.7964L167.643 87.8604L167.804 102.973L173.804 102.909L179.803 102.845L179.642 87.7324L173.643 87.7964ZM173.804 102.909L167.804 102.844L167.76 106.911L173.76 106.976L179.759 107.041L179.803 102.974L173.804 102.909ZM173.76 106.976L169.31 111.001L170.741 112.584L175.191 108.559L179.641 104.535L178.21 102.952L173.76 106.976ZM175.191 108.559L170.263 111.981L171.739 114.106L176.667 110.684L181.595 107.262L180.12 105.137L175.191 108.559ZM176.667 110.684L171.34 113.445L172.544 115.768L177.871 113.007L183.198 110.246L181.994 107.923L176.667 110.684ZM177.871 113.007L172.242 115.085L173.181 117.628L178.81 115.55L184.438 113.473L183.5 110.93L177.871 113.007ZM178.81 115.55L172.976 116.955L173.648 119.745L179.481 118.339L185.315 116.934L184.643 114.145L178.81 115.55ZM179.481 118.339L173.531 119.112L173.932 122.196L179.882 121.423L185.832 120.651L185.432 117.567L179.481 118.339ZM179.882 121.423L173.885 121.628L174.003 125.087L180 124.882L185.997 124.677L185.878 121.218L179.882 121.423ZM180 124.882L174.007 124.594L173.815 128.591L179.808 128.879L185.801 129.168L185.993 125.171L180 124.882ZM179.808 128.879L173.848 128.186L173.272 133.138L179.231 133.832L185.191 134.525L185.767 129.573L179.808 128.879ZM179.231 133.832L173.316 132.829L171.691 142.414L177.606 143.417L183.522 144.419L185.147 134.834L179.231 133.832ZM177.606 143.417L171.714 142.287L169.885 151.834L175.777 152.963L181.67 154.092L183.499 144.546L177.606 143.417ZM175.777 152.963L169.951 151.53L168.76 156.372L174.586 157.805L180.412 159.239L181.604 154.397L175.777 152.963ZM174.586 157.805L168.871 155.979L167.653 159.791L173.368 161.617L179.084 163.443L180.301 159.631L174.586 157.805ZM173.368 161.617L167.822 159.328L166.502 162.527L172.048 164.816L177.594 167.105L178.914 163.906L173.368 161.617ZM172.048 164.816L166.744 162.011L165.29 164.761L170.594 167.566L175.898 170.371L177.352 167.621L172.048 164.816ZM170.594 167.566L165.62 164.21L164.016 166.588L168.989 169.944L173.963 173.3L175.567 170.922L170.594 167.566ZM168.989 169.944L164.442 166.03L162.674 168.084L167.222 171.998L171.769 175.912L173.537 173.858L168.989 169.944ZM167.222 171.998L163.197 167.548L161.256 169.303L165.28 173.753L169.305 178.203L171.246 176.448L167.222 171.998ZM165.28 173.753L161.858 168.825L159.733 170.301L163.155 175.229L166.577 180.157L168.702 178.682L165.28 173.753ZM163.155 175.229L160.394 169.902L158.071 171.106L160.832 176.433L163.593 181.76L165.916 180.556L163.155 175.229ZM160.832 176.433L158.755 170.804L156.212 171.743L158.289 177.372L160.366 183L162.909 182.062L160.832 176.433ZM158.289 177.372L156.884 171.538L154.095 172.21L155.5 178.043L156.905 183.877L159.694 183.205L158.289 177.372ZM155.5 178.043L154.728 172.093L151.644 172.494L152.416 178.444L153.189 184.394L156.272 183.994L155.5 178.043ZM152.416 178.444L152.211 172.447L148.752 172.566L148.957 178.562L149.162 184.559L152.621 184.44L152.416 178.444ZM148.957 178.562L149.245 172.569L145.248 172.377L144.96 178.37L144.672 184.363L148.669 184.555L148.957 178.562ZM144.96 178.37L145.653 172.41L140.701 171.834L140.008 177.793L139.314 183.753L144.267 184.329L144.96 178.37ZM140.008 177.793L141.01 171.878L131.425 170.254L130.423 176.169L129.421 182.085L139.005 183.709L140.008 177.793ZM130.423 176.169L131.552 170.277L122.006 168.447L120.876 174.339L119.746 180.232L129.293 182.062L130.423 176.169ZM120.876 174.339L122.31 168.513L117.468 167.322L116.034 173.148L114.601 178.974L119.442 180.166L120.876 174.339ZM116.034 173.148L117.859 167.432L114.047 166.215L112.223 171.931L110.398 177.647L114.209 178.864L116.034 173.148ZM112.223 171.931L114.513 166.386L111.314 165.064L109.023 170.61L106.733 176.156L109.932 177.477L112.223 171.931ZM109.023 170.61L111.827 165.305L109.077 163.852L106.273 169.157L103.47 174.462L106.22 175.915L109.023 170.61ZM106.273 169.157L109.631 164.184L107.253 162.579L103.896 167.551L100.538 172.524L102.916 174.129L106.273 169.157ZM103.896 167.551L107.809 163.004L105.96 161.412L102.046 165.959L98.1321 170.507L99.9817 172.099L103.896 167.551ZM102.046 165.959L102.11 159.96L95.6119 159.89L95.5479 165.89L95.4838 171.89L101.982 171.959L102.046 165.959ZM95.5479 165.89L95.9243 159.902L88.188 159.416L87.8115 165.404L87.4351 171.392L95.1714 171.878L95.5479 165.89ZM87.8115 165.404L88.5924 159.455L82.4244 158.645L81.6436 164.594L80.8627 170.543L87.0307 171.353L87.8115 165.404ZM81.6436 164.594L82.911 158.73L77.6512 157.593L76.3838 163.458L75.1164 169.322L80.3761 170.459L81.6436 164.594ZM76.3838 163.458L78.2017 157.74L73.5943 156.275L71.7764 161.993L69.9584 167.711L74.5659 169.175L76.3838 163.458ZM71.7764 161.993L74.1948 156.502L70.1127 154.704L67.6943 160.195L65.2759 165.686L69.358 167.484L71.7764 161.993ZM67.6943 160.195L70.7402 155.025L68.0586 153.445L65.0127 158.615L61.9668 163.784L64.6484 165.364L67.6943 160.195ZM65.0127 158.615L63.8217 152.734L62.6645 152.969L63.8555 158.849L65.0465 164.73L66.2037 164.495L65.0127 158.615ZM63.8555 158.849L63.0693 152.901L58.6064 153.491L59.3926 159.439L60.1787 165.387L64.6416 164.797L63.8555 158.849ZM59.3926 159.439L59.0992 153.446L55.2095 153.637L55.5029 159.629L55.7963 165.622L59.686 165.432L59.3926 159.439ZM55.5029 159.629L55.7793 153.636L52.2841 153.475L52.0078 159.468L51.7315 165.462L55.2266 165.623L55.5029 159.629ZM52.0078 159.468L52.9226 153.538L49.7322 153.046L48.8174 158.976L47.9026 164.906L51.093 165.398L52.0078 159.468ZM48.8174 158.976L50.42 153.194L47.4815 152.38L45.8789 158.162L44.2763 163.944L47.2148 164.758L48.8174 158.976ZM45.8789 158.162L48.1873 152.623L45.4695 151.491L43.1611 157.029L40.8527 162.567L43.5705 163.7L45.8789 158.162ZM43.1611 157.029L46.1609 151.833L43.6404 150.377L40.6406 155.574L37.6408 160.77L40.1613 162.225L43.1611 157.029ZM40.6406 155.574L44.2838 150.806L41.9439 149.018L38.3008 153.786L34.6576 158.553L36.9975 160.341L40.6406 155.574ZM38.3008 153.786L42.5058 149.506L40.331 147.369L36.126 151.649L31.921 155.929L34.0958 158.066L38.3008 153.786ZM36.126 151.649L40.8037 147.891L38.7823 145.375L34.1045 149.132L29.4267 152.89L31.4482 155.406L36.126 151.649ZM34.1045 149.132L39.1578 145.897L37.271 142.95L32.2178 146.185L27.1645 149.42L29.0512 152.367L34.1045 149.132ZM32.2178 146.185L37.5542 143.442L35.7739 139.979L30.4375 142.721L25.1011 145.464L26.8813 148.928L32.2178 146.185ZM30.4375 142.721L35.9818 140.427L34.2611 136.268L28.7168 138.562L23.1725 140.856L24.8932 145.015L30.4375 142.721ZM28.7168 138.562L34.4035 136.649L32.6145 131.331L26.9277 133.245L21.241 135.158L23.03 140.475L28.7168 138.562ZM26.9277 133.245L32.7064 131.63L29.763 121.097L23.9844 122.711L18.2057 124.326L21.1491 134.859L26.9277 133.245ZM23.9844 122.711L29.7962 121.221L27.0784 110.626L21.2666 112.117L15.4548 113.608L18.1725 124.202L23.9844 122.711ZM21.2666 112.117L27.1481 110.93L26.0387 105.432L20.1572 106.619L14.2758 107.805L15.3851 113.303L21.2666 112.117ZM20.1572 106.619L26.1057 105.834L25.5168 101.37L19.5684 102.155L13.6199 102.939L14.2088 107.403L20.1572 106.619ZM19.5684 102.155L25.5611 101.86L25.3697 97.9702L19.377 98.2651L13.3842 98.56L13.5756 102.45L19.5684 102.155ZM19.377 98.2651L25.3706 98.5415L25.5317 95.0463L19.5381 94.77L13.5445 94.4937L13.3833 97.9888L19.377 98.2651ZM19.5381 94.77L25.4679 95.6851L25.9601 92.4956L20.0303 91.5806L14.1005 90.6655L13.6083 93.8549L19.5381 94.77ZM20.0303 91.5806L25.8123 93.1832L26.6267 90.2447L20.8447 88.6421L15.0627 87.0395L14.2483 89.978L20.0303 91.5806ZM20.8447 88.6421L26.3832 90.9498L27.516 88.231L21.9775 85.9233L16.4391 83.6156L15.3063 86.3344L20.8447 88.6421ZM21.9775 85.9233L27.1729 88.9246L28.629 86.4041L23.4336 83.4028L18.2382 80.4015L16.7821 82.922L21.9775 85.9233ZM23.4336 83.4028L28.2019 87.0447L29.989 84.7049L25.2207 81.063L20.4524 77.4211L18.6653 79.7609L23.4336 83.4028ZM25.2207 81.063L29.4997 85.269L31.6374 83.0942L27.3584 78.8882L23.0794 74.6822L20.9417 76.857L25.2207 81.063ZM27.3584 78.8882L31.1159 83.5659L33.6325 81.5445L29.875 76.8667L26.1175 72.1889L23.6009 74.2104L27.3584 78.8882ZM29.875 76.8667L33.1107 81.9195L36.0569 80.0328L32.8213 74.98L29.5856 69.9272L26.6393 71.8139L29.875 76.8667ZM32.8213 74.98L35.564 80.3164L39.0279 78.5362L36.2852 73.1997L33.5425 67.8633L30.0786 69.6435L32.8213 74.98ZM36.2852 73.1997L38.5784 78.7442L42.7386 77.0235L40.4453 71.479L38.152 65.9346L33.9919 67.6553L36.2852 73.1997ZM40.4453 71.479L42.359 77.1656L47.6754 75.3766L45.7617 69.6899L43.8481 64.0033L38.5317 65.7924L40.4453 71.479ZM45.7617 69.6899L47.3774 75.4683L51.7817 74.2369L50.166 68.4585L48.5504 62.6801L44.1461 63.9116L45.7617 69.6899ZM50.166 68.4585L55.8839 70.2767L57.294 65.8422L51.5762 64.0239L45.8583 62.2057L44.4481 66.6403L50.166 68.4585ZM51.5762 64.0239L57.0667 66.4434L58.8655 62.3614L53.375 59.9419L47.8845 57.5224L46.0856 61.6044L51.5762 64.0239ZM53.375 59.9419L58.5451 62.9866L60.6828 59.3567L55.5127 56.312L50.3426 53.2673L48.2049 56.8972L53.375 59.9419ZM55.5127 56.312L60.2651 59.9746L62.7495 56.751L57.9971 53.0884L53.2446 49.4258L50.7603 52.6494L55.5127 56.312ZM57.9971 53.0884L62.2397 57.331L65.0835 54.4873L60.8408 50.2446L56.5982 46.002L53.7544 48.8457L57.9971 53.0884ZM60.8408 50.2446L64.5032 54.9972L67.7258 52.5138L64.0635 47.7612L60.4011 43.0086L57.1785 45.492L60.8408 50.2446ZM64.0635 47.7612L67.1086 52.931L70.7395 50.7924L67.6943 45.6226L64.6492 40.4527L61.0183 42.5914L64.0635 47.7612ZM67.6943 45.6226L70.1127 51.1136L74.1948 49.3157L71.7764 43.8247L69.358 38.3337L65.2759 40.1315L67.6943 45.6226ZM71.7764 43.8247L73.5955 49.5423L76.8367 48.511L75.0176 42.7935L73.1984 37.0759L69.9572 38.1071L71.7764 43.8247ZM75.0176 42.7935L80.703 44.7106L81.1278 43.4509L75.4424 41.5337L69.7569 39.6165L69.3321 40.8763L75.0176 42.7935ZM75.4424 41.5337L80.9864 43.8281L82.7081 39.6679L77.1641 37.3735L71.6201 35.0792L69.8984 39.2393L75.4424 41.5337ZM77.1641 37.3735L82.5011 40.115L84.2804 36.6512L78.9434 33.9097L73.6063 31.1682L71.827 34.632L77.1641 37.3735ZM78.9434 33.9097L83.9959 37.1457L85.8836 34.1985L80.8311 30.9624L75.7786 27.7263L73.8909 30.6736L78.9434 33.9097ZM80.8311 30.9624L85.5081 34.7207L87.5296 32.2051L82.8525 28.4468L78.1755 24.6884L76.154 27.2041L80.8311 30.9624ZM82.8525 28.4468L87.0595 32.7248L89.2333 30.5871L85.0264 26.3091L80.8194 22.031L78.6456 24.1687L82.8525 28.4468ZM85.0264 26.3091L88.6673 31.0781L91.0081 29.291L87.3672 24.522L83.7263 19.7529L81.3854 21.5401L85.0264 26.3091ZM87.3672 24.522L90.3685 29.7174L92.889 28.2613L89.8877 23.0659L86.8864 17.8705L84.3659 19.3266L87.3672 24.522ZM89.8877 23.0659L92.1961 28.6041L94.9139 27.4713L92.6055 21.9331L90.2971 16.3949L87.5793 17.5278L89.8877 23.0659ZM92.6055 21.9331L94.2081 27.7151L97.1465 26.9007L95.5439 21.1187L93.9414 15.3366L91.0029 16.1511L92.6055 21.9331ZM95.5439 21.1187L96.459 27.0485L99.6485 26.5563L98.7334 20.6265L97.8183 14.6967L94.6289 15.1888L95.5439 21.1187ZM98.7334 20.6265L99.0096 26.6201L102.506 26.459L102.229 20.4653L101.953 14.4717L98.4572 14.6328L98.7334 20.6265ZM102.229 20.4653L101.936 26.4582L105.826 26.6486L106.119 20.6558L106.413 14.6629L102.523 14.4725L102.229 20.4653Z" fill="#4C2416" mask="url(#path-1-inside-1_1274_71349)"/>
<path d="M50.5286 135.102L44.1429 131.282L41.0365 129.086L38.7402 127.088L36.9803 125.128L35.655 123.142L34.7175 121.096L34.1464 118.964L33.9353 116.724L34.0902 114.341L34.6339 111.763L35.6237 108.885L37.216 105.43L40.836 98.9289L44.6564 92.5432L46.8522 89.4369L48.8498 87.1406L50.8106 85.3807L52.7964 84.0553L54.8424 83.1179L56.9738 82.5468L59.2143 82.3356L61.5968 82.4905L64.1749 83.0343L67.053 84.0241L70.5078 85.6164L77.0092 89.2364L83.3949 93.0567L86.5013 95.2525L88.7975 97.2502L90.5574 99.2109L91.8828 101.197L92.8203 103.243L93.3914 105.374L93.6025 107.615L93.4476 109.997L92.9039 112.575L91.9141 115.453L90.3217 118.908L86.7018 125.41L82.8814 131.795L80.6856 134.902L78.688 137.198L76.7272 138.958L74.7413 140.283L72.6954 141.221L70.564 141.792L68.3234 142.003L65.9409 141.848L63.3629 141.304L60.4848 140.314L57.03 138.722L50.5286 135.102Z" fill="#AB4B2B"/>
<path d="M90.8194 61.0103L101.167 55.3356L106.663 52.8456L111.238 51.3052L115.332 50.4692L119.112 50.248L122.664 50.6057L126.038 51.5333L129.273 53.041L132.409 55.1633L135.501 57.9746L138.646 61.6368L142.096 66.586L148.09 76.7527L153.765 87.1007L156.255 92.5963L157.795 97.1711L158.631 101.265L158.852 105.046L158.495 108.597L157.567 111.971L156.059 115.207L153.937 118.343L151.126 121.434L147.464 124.579L142.514 128.03L132.348 134.023L122 139.698L116.504 142.188L111.929 143.729L107.835 144.565L104.055 144.786L100.504 144.428L97.1291 143.5L93.8938 141.993L90.7578 139.87L87.6661 137.059L84.5214 133.397L81.0707 128.448L75.077 118.281L69.4023 107.933L66.9123 102.437L65.3719 97.8626L64.5359 93.7684L64.3147 89.9882L64.6724 86.4368L65.6 83.0624L67.1077 79.8271L69.23 76.6911L72.0413 73.5994L75.7035 70.4547L80.6527 67.004L90.8194 61.0103Z" fill="#AB4B2B"/>
<path d="M110.697 44.0559L118.05 42.2627L121.867 41.6347L124.957 41.4416L127.631 41.6049L130.009 42.0966L132.149 42.9089L134.085 44.0446L135.838 45.5165L137.427 47.3525L138.874 49.6077L140.212 52.3989L141.526 56.0379L143.547 63.3311L145.34 70.6836L145.968 74.5013L146.161 77.5907L145.998 80.2653L145.506 82.6433L144.694 84.7831L143.558 86.7187L142.087 88.4715L140.251 90.0607L137.995 91.5078L135.204 92.8462L131.565 94.1601L124.272 96.181L116.919 97.9742L113.102 98.6022L110.012 98.7953L107.338 98.632L104.96 98.1403L102.82 97.328L100.884 96.1923L99.1315 94.7205L97.5424 92.8845L96.0952 90.6292L94.7568 87.8381L93.4429 84.1991L91.422 76.9058L89.6288 69.5533L89.0008 65.7357L88.8078 62.6462L88.971 59.9716L89.4628 57.5937L90.275 55.4538L91.4107 53.5182L92.8826 51.7654L94.7186 50.1763L96.9738 48.7291L99.765 47.3907L103.404 46.0768L110.697 44.0559Z" fill="#AB4B2B"/>
<path d="M120.529 101.814L126.906 98.3166L130.293 96.7821L133.112 95.8328L135.635 95.3176L137.965 95.1813L140.153 95.4018L142.233 95.9734L144.227 96.9025L146.159 98.2104L148.065 99.9428L150.003 102.2L152.129 105.25L155.823 111.515L159.32 117.892L160.854 121.279L161.803 124.098L162.319 126.621L162.455 128.951L162.235 131.139L161.663 133.219L160.734 135.212L159.426 137.145L157.693 139.05L155.437 140.988L152.387 143.115L146.121 146.808L139.744 150.305L136.358 151.84L133.538 152.789L131.015 153.304L128.686 153.441L126.497 153.22L124.418 152.649L122.424 151.719L120.491 150.412L118.586 148.679L116.648 146.422L114.522 143.372L110.828 137.107L107.331 130.73L105.796 127.343L104.847 124.524L104.332 122.001L104.196 119.671L104.416 117.483L104.988 115.403L105.917 113.41L107.225 111.477L108.957 109.572L111.214 107.634L114.264 105.507L120.529 101.814Z" fill="#AB4B2B"/>
<path d="M80.4654 107.541L78.2719 98.6569L77.5957 94.0407L77.5352 90.3132L77.996 87.1039L78.9512 84.2772L80.4029 81.7627L82.3734 79.5221L84.9222 77.5185L88.1806 75.7071L92.5164 73.9846L101.307 71.4423L110.191 69.2487L114.807 68.5725L118.535 68.512L121.744 68.9728L124.571 69.928L127.085 71.3797L129.326 73.3502L131.329 75.899L133.141 79.1574L134.863 83.4932L137.406 92.2838L139.599 101.168L140.275 105.784L140.336 109.512L139.875 112.721L138.92 115.547L137.468 118.062L135.498 120.303L132.949 122.306L129.69 124.118L125.355 125.84L116.564 128.382L107.68 130.576L103.064 131.252L99.3363 131.313L96.1271 130.852L93.3004 129.897L90.7859 128.445L88.5453 126.475L86.5416 123.926L84.7303 120.667L83.0078 116.331L80.4654 107.541Z" fill="#D66440"/>
<path d="M110.393 112.64L110.498 107.274L110.816 104.556L111.348 102.434L112.096 100.686L113.066 99.2296L114.271 98.0254L115.727 97.055L117.475 96.3068L119.597 95.7751L122.315 95.4575L127.681 95.3516L133.048 95.4575L135.766 95.7751L137.887 96.3068L139.635 97.055L141.092 98.0254L142.296 99.2296L143.266 100.686L144.015 102.434L144.546 104.556L144.864 107.274L144.97 112.64L144.864 118.007L144.546 120.725L144.015 122.846L143.266 124.594L142.296 126.051L141.092 127.255L139.635 128.225L137.887 128.974L135.766 129.505L133.048 129.823L127.681 129.929L122.315 129.823L119.597 129.505L117.475 128.974L115.727 128.225L114.271 127.255L113.066 126.051L112.096 124.594L111.348 122.846L110.816 120.725L110.498 118.007L110.393 112.64Z" fill="#D66440"/>
<path d="M107.983 59.1103L108.971 55.6919L109.641 54.0058L110.346 52.7387L111.125 51.7475L111.996 50.9813L112.974 50.4167L114.073 50.0453L115.321 49.8661L116.771 49.8896L118.566 50.1526L122.02 51.0056L125.439 51.9942L127.125 52.6641L128.392 53.3684L129.383 54.1476L130.149 55.0189L130.714 55.9967L131.085 57.096L131.265 58.3439L131.241 59.7935L130.978 61.5886L130.125 65.0433L129.136 68.4617L128.467 70.1478L127.762 71.4149L126.983 72.4061L126.112 73.1723L125.134 73.7369L124.035 74.1083L122.787 74.2875L121.337 74.264L119.542 74.001L116.087 73.148L112.669 72.1594L110.983 71.4896L109.716 70.7852L108.725 70.006L107.958 69.1347L107.394 68.1569L107.022 67.0576L106.843 65.8097L106.867 64.3601L107.13 62.565L107.983 59.1103Z" fill="#D66440"/>
<path d="M53.246 124.98L49.3343 122.617L47.4655 121.226L46.1279 119.931L45.1574 118.635L44.4965 117.3L44.1212 115.899L44.0259 114.412L44.2184 112.804L44.7293 111.014L45.6521 108.875L47.8585 104.873L50.221 100.961L51.6123 99.0927L52.9071 97.7551L54.2031 96.7846L55.5385 96.1237L56.9391 95.7484L58.426 95.653L60.0336 95.8455L61.8238 96.3565L63.9631 97.2793L67.9649 99.4857L71.8766 101.848L73.7454 103.239L75.083 104.534L76.0535 105.83L76.7144 107.166L77.0897 108.566L77.185 110.053L76.9925 111.661L76.4816 113.451L75.5588 115.59L73.3524 119.592L70.9899 123.504L69.5986 125.373L68.3038 126.71L67.0078 127.681L65.6724 128.342L64.2718 128.717L62.7848 128.812L61.1773 128.62L59.3871 128.109L57.2478 127.186L53.246 124.98Z" fill="#D66440"/>
</svg>
