<svg width="150" height="150" viewBox="0 0 150 150" fill="none" xmlns="http://www.w3.org/2000/svg">
<mask id="path-1-inside-1_1274_71685" fill="white">
<path d="M132.511 82.7202L132.321 85.7573L132.002 88.1782L131.557 90.2427L130.982 92.0522L130.276 93.6548L129.654 94.7104L130.012 95.2007L130.626 96.2866L131.084 97.3999L131.393 98.5493L131.552 99.7427L131.563 100.99L131.42 102.302L131.114 103.7L130.626 105.215L129.921 106.917L128.902 108.97L126.708 112.868L124.429 116.716L123.161 118.627L122.041 120.088L120.97 121.268L119.914 122.232L118.848 123.012L117.763 123.626L116.65 124.084L115.5 124.393L114.307 124.552L113.06 124.563L111.748 124.42L110.35 124.114L109.19 123.74L108.943 124.06L108.06 124.943L107.06 125.713L105.933 126.377L104.666 126.935L103.236 127.39L101.603 127.743L99.689 127.994L97.2886 128.145L92.5972 128.195L87.9067 128.145L85.5063 127.994L83.5913 127.743L81.9595 127.39L80.5288 126.935L79.2622 126.377L78.1352 125.713L77.1352 124.943L76.8726 124.679L72.2212 124.729L62.2007 124.623L57.0718 124.299L52.9819 123.763L49.4946 123.009L47.271 122.302L44.8667 123.725L41.5288 125.605L39.769 126.478L38.312 127.083L37.0132 127.5L35.8159 127.762L34.6919 127.884L33.6245 127.875L32.602 127.739L31.6177 127.474L30.6636 127.082L29.7339 126.556L28.8218 125.888L27.9165 125.062L27.0005 124.051L26.0405 122.8L24.9536 121.164L23.0024 117.867L21.1226 114.529L20.2495 112.768L19.645 111.312L19.228 110.013L18.9653 108.816L18.8433 107.692L18.852 106.625L18.9888 105.602L19.2524 104.617L19.646 103.664L20.1714 102.734L20.8394 101.822L21.6655 100.916L22.3208 100.323L21.1235 98.1977L20.3921 96.7251L19.8872 95.5063L19.5376 94.4194L19.3179 93.4185L19.2153 92.478L19.2231 91.5835L19.3374 90.729L19.5581 89.9048L19.8716 89.147L19.6958 88.9692L18.7798 87.769L18.0337 86.477L17.4526 85.0845L17.0356 83.5786L16.7827 81.9438L16.7007 80.1519L16.7983 78.1587L17.1001 75.8706L17.6685 73.0522L19.062 67.6226L20.5708 62.2231L21.4868 59.4985L22.3696 57.3667L23.2817 55.5913L24.2485 54.0806L25.2847 52.7915L26.3989 51.6958L27.5991 50.7798L28.8911 50.0337L30.2837 49.4526L31.7895 49.0356L33.4243 48.7827L35.2163 48.7007L36.9302 48.7837L36.8804 48.5395L36.521 45.8169L36.4048 43.4438L36.5024 41.311L36.8032 39.3657L37.3003 37.5727L37.9917 35.9145L38.8794 34.3765L39.9692 32.9487L41.2739 31.6226L42.8091 30.3892L44.606 29.2378L46.7192 28.1519L49.2573 27.102L52.5005 26.0112L58.9272 24.2153L65.3901 22.5571L68.7446 21.8804L71.4683 21.521L73.8403 21.4048L75.9731 21.5024L77.9194 21.8032L79.7124 22.3003L81.3706 22.9917L82.9077 23.8794L84.3354 24.9692L85.6626 26.2739L86.895 27.8091L88.0464 29.606L89.1323 31.7192L90.1821 34.2573L91.2739 37.5005L92.5903 42.2104L94.9468 42.7202L98.0015 43.6909L100.708 44.8833L103.115 46.3013L105.252 47.9478L107.137 49.8335L108.785 51.9702L108.809 52.0103L113.72 52.063L116.757 52.2544L119.178 52.5718L121.243 53.0181L123.052 53.5933L124.655 54.2993L126.08 55.1382L127.345 56.1138L128.461 57.23L129.436 58.4956L130.276 59.9204L130.982 61.5229L131.557 63.3315L132.002 65.397L132.321 67.8179L132.511 70.855L132.575 76.7876L132.511 82.7202Z"/>
</mask>
<path d="M132.511 82.7202L132.321 85.7573L132.002 88.1782L131.557 90.2427L130.982 92.0522L130.276 93.6548L129.654 94.7104L130.012 95.2007L130.626 96.2866L131.084 97.3999L131.393 98.5493L131.552 99.7427L131.563 100.99L131.42 102.302L131.114 103.7L130.626 105.215L129.921 106.917L128.902 108.97L126.708 112.868L124.429 116.716L123.161 118.627L122.041 120.088L120.97 121.268L119.914 122.232L118.848 123.012L117.763 123.626L116.65 124.084L115.5 124.393L114.307 124.552L113.06 124.563L111.748 124.42L110.35 124.114L109.19 123.74L108.943 124.06L108.06 124.943L107.06 125.713L105.933 126.377L104.666 126.935L103.236 127.39L101.603 127.743L99.689 127.994L97.2886 128.145L92.5972 128.195L87.9067 128.145L85.5063 127.994L83.5913 127.743L81.9595 127.39L80.5288 126.935L79.2622 126.377L78.1352 125.713L77.1352 124.943L76.8726 124.679L72.2212 124.729L62.2007 124.623L57.0718 124.299L52.9819 123.763L49.4946 123.009L47.271 122.302L44.8667 123.725L41.5288 125.605L39.769 126.478L38.312 127.083L37.0132 127.5L35.8159 127.762L34.6919 127.884L33.6245 127.875L32.602 127.739L31.6177 127.474L30.6636 127.082L29.7339 126.556L28.8218 125.888L27.9165 125.062L27.0005 124.051L26.0405 122.8L24.9536 121.164L23.0024 117.867L21.1226 114.529L20.2495 112.768L19.645 111.312L19.228 110.013L18.9653 108.816L18.8433 107.692L18.852 106.625L18.9888 105.602L19.2524 104.617L19.646 103.664L20.1714 102.734L20.8394 101.822L21.6655 100.916L22.3208 100.323L21.1235 98.1977L20.3921 96.7251L19.8872 95.5063L19.5376 94.4194L19.3179 93.4185L19.2153 92.478L19.2231 91.5835L19.3374 90.729L19.5581 89.9048L19.8716 89.147L19.6958 88.9692L18.7798 87.769L18.0337 86.477L17.4526 85.0845L17.0356 83.5786L16.7827 81.9438L16.7007 80.1519L16.7983 78.1587L17.1001 75.8706L17.6685 73.0522L19.062 67.6226L20.5708 62.2231L21.4868 59.4985L22.3696 57.3667L23.2817 55.5913L24.2485 54.0806L25.2847 52.7915L26.3989 51.6958L27.5991 50.7798L28.8911 50.0337L30.2837 49.4526L31.7895 49.0356L33.4243 48.7827L35.2163 48.7007L36.9302 48.7837L36.8804 48.5395L36.521 45.8169L36.4048 43.4438L36.5024 41.311L36.8032 39.3657L37.3003 37.5727L37.9917 35.9145L38.8794 34.3765L39.9692 32.9487L41.2739 31.6226L42.8091 30.3892L44.606 29.2378L46.7192 28.1519L49.2573 27.102L52.5005 26.0112L58.9272 24.2153L65.3901 22.5571L68.7446 21.8804L71.4683 21.521L73.8403 21.4048L75.9731 21.5024L77.9194 21.8032L79.7124 22.3003L81.3706 22.9917L82.9077 23.8794L84.3354 24.9692L85.6626 26.2739L86.895 27.8091L88.0464 29.606L89.1323 31.7192L90.1821 34.2573L91.2739 37.5005L92.5903 42.2104L94.9468 42.7202L98.0015 43.6909L100.708 44.8833L103.115 46.3013L105.252 47.9478L107.137 49.8335L108.785 51.9702L108.809 52.0103L113.72 52.063L116.757 52.2544L119.178 52.5718L121.243 53.0181L123.052 53.5933L124.655 54.2993L126.08 55.1382L127.345 56.1138L128.461 57.23L129.436 58.4956L130.276 59.9204L130.982 61.5229L131.557 63.3315L132.002 65.397L132.321 67.8179L132.511 70.855L132.575 76.7876L132.511 82.7202Z" fill="#81361E"/>
<path d="M132.511 82.7202L137.501 83.0331L137.51 82.9035L137.511 82.7737L132.511 82.7202ZM132.321 85.7573L137.278 86.4092L137.3 86.2403L137.311 86.0702L132.321 85.7573ZM132.002 88.1782L136.89 89.2325L136.933 89.0327L136.96 88.8301L132.002 88.1782ZM131.557 90.2427L136.322 91.7573L136.394 91.5301L136.445 91.297L131.557 90.2427ZM130.982 92.0522L135.558 94.0682L135.666 93.8226L135.747 93.5669L130.982 92.0522ZM130.276 93.6548L134.584 96.1932L134.733 95.9398L134.851 95.6707L130.276 93.6548ZM129.654 94.7104L125.346 92.172L123.676 95.006L125.617 97.6613L129.654 94.7104ZM130.012 95.2007L134.364 92.739L134.221 92.4852L134.049 92.2498L130.012 95.2007ZM130.626 96.2866L135.25 94.3843L135.132 94.0961L134.978 93.8249L130.626 96.2866ZM131.084 97.3999L135.913 96.1034L135.83 95.7939L135.708 95.4976L131.084 97.3999ZM131.393 98.5493L136.349 97.8882L136.306 97.5664L136.222 97.2528L131.393 98.5493ZM131.552 99.7427L136.552 99.6996L136.549 99.3892L136.508 99.0816L131.552 99.7427ZM131.563 100.99L136.534 101.53L136.565 101.239L136.563 100.947L131.563 100.99ZM131.42 102.302L136.304 103.374L136.362 103.11L136.391 102.842L131.42 102.302ZM131.114 103.7L135.874 105.23L135.947 105.004L135.998 104.771L131.114 103.7ZM130.626 105.215L135.245 107.13L135.324 106.941L135.386 106.746L130.626 105.215ZM129.921 106.917L134.4 109.14L134.475 108.988L134.54 108.831L129.921 106.917ZM128.902 108.97L133.259 111.423L133.323 111.31L133.38 111.193L128.902 108.97ZM126.708 112.868L131.01 115.415L131.038 115.368L131.064 115.321L126.708 112.868ZM124.429 116.716L128.595 119.481L128.666 119.374L128.732 119.263L124.429 116.716ZM123.161 118.627L127.129 121.67L127.232 121.535L127.326 121.393L123.161 118.627ZM122.041 120.088L125.744 123.448L125.883 123.295L126.008 123.131L122.041 120.088ZM120.97 121.268L124.34 124.962L124.514 124.803L124.673 124.628L120.97 121.268ZM119.914 122.232L122.868 126.266L123.085 126.107L123.283 125.926L119.914 122.232ZM118.848 123.012L121.312 127.363L121.566 127.219L121.802 127.046L118.848 123.012ZM117.763 123.626L119.665 128.25L119.955 128.132L120.227 127.978L117.763 123.626ZM116.65 124.084L117.946 128.913L118.256 128.83L118.552 128.708L116.65 124.084ZM115.5 124.393L116.162 129.349L116.483 129.306L116.797 129.222L115.5 124.393ZM114.307 124.552L114.35 129.552L114.661 129.549L114.968 129.508L114.307 124.552ZM113.06 124.563L112.52 129.534L112.811 129.565L113.103 129.563L113.06 124.563ZM111.748 124.42L110.676 129.304L110.939 129.362L111.208 129.391L111.748 124.42ZM110.35 124.114L108.816 128.873L109.044 128.946L109.278 128.998L110.35 124.114ZM109.19 123.74L110.724 118.981L107.378 117.902L105.231 120.686L109.19 123.74ZM108.943 124.06L112.478 127.596L112.706 127.368L112.902 127.114L108.943 124.06ZM108.06 124.943L111.112 128.904L111.367 128.707L111.596 128.478L108.06 124.943ZM107.06 125.713L109.598 130.021L109.866 129.864L110.112 129.674L107.06 125.713ZM105.933 126.377L107.948 130.954L108.218 130.835L108.471 130.685L105.933 126.377ZM104.666 126.935L106.182 131.7L106.437 131.619L106.681 131.511L104.666 126.935ZM103.236 127.39L104.291 132.278L104.524 132.227L104.751 132.155L103.236 127.39ZM101.603 127.743L102.253 132.7L102.457 132.673L102.658 132.63L101.603 127.743ZM99.689 127.994L100.004 132.984L100.172 132.973L100.339 132.951L99.689 127.994ZM97.2886 128.145L97.3416 133.145L97.4726 133.143L97.6032 133.135L97.2886 128.145ZM92.5972 128.195L92.5441 133.195L92.5972 133.195L92.6502 133.195L92.5972 128.195ZM87.9067 128.145L87.5921 133.135L87.7227 133.143L87.8536 133.145L87.9067 128.145ZM85.5063 127.994L84.8566 132.951L85.0236 132.973L85.1917 132.984L85.5063 127.994ZM83.5913 127.743L82.5355 132.63L82.7371 132.673L82.9416 132.7L83.5913 127.743ZM81.9595 127.39L80.4439 132.155L80.6708 132.227L80.9036 132.277L81.9595 127.39ZM80.5288 126.935L78.5142 131.511L78.7586 131.619L79.0132 131.7L80.5288 126.935ZM79.2622 126.377L76.7238 130.685L76.9778 130.835L77.2476 130.954L79.2622 126.377ZM78.1352 125.713L75.0835 129.674L75.3294 129.864L75.5969 130.021L78.1352 125.713ZM77.1352 124.943L73.5932 128.472L73.8242 128.704L74.0835 128.904L77.1352 124.943ZM76.8726 124.679L80.4146 121.15L78.9269 119.657L76.819 119.679L76.8726 124.679ZM72.2212 124.729L72.1681 129.729L72.2214 129.729L72.2747 129.729L72.2212 124.729ZM62.2007 124.623L61.8862 129.613L62.0167 129.621L62.1476 129.622L62.2007 124.623ZM57.0718 124.299L56.4219 129.257L56.589 129.279L56.7573 129.289L57.0718 124.299ZM52.9819 123.763L51.9254 128.65L52.1273 128.694L52.332 128.721L52.9819 123.763ZM49.4946 123.009L47.9796 127.774L48.2059 127.846L48.4381 127.896L49.4946 123.009ZM47.271 122.302L48.7861 117.537L46.6518 116.859L44.7245 117.999L47.271 122.302ZM44.8667 123.725L47.3203 128.082L47.367 128.055L47.4132 128.028L44.8667 123.725ZM41.5288 125.605L43.7509 130.084L43.8683 130.026L43.9824 129.962L41.5288 125.605ZM39.769 126.478L41.6851 131.096L41.8405 131.032L41.9912 130.957L39.769 126.478ZM38.312 127.083L39.8404 131.843L40.0372 131.78L40.228 131.701L38.312 127.083ZM37.0132 127.5L38.0848 132.383L38.3161 132.333L38.5416 132.26L37.0132 127.5ZM35.8159 127.762L36.3557 132.733L36.624 132.704L36.8875 132.646L35.8159 127.762ZM34.6919 127.884L34.6507 132.884L34.9421 132.887L35.2317 132.855L34.6919 127.884ZM33.6245 127.875L32.9618 132.831L33.2712 132.873L33.5833 132.875L33.6245 127.875ZM32.602 127.739L31.3039 132.567L31.6175 132.652L31.9394 132.695L32.602 127.739ZM31.6177 127.474L29.7151 132.098L30.0108 132.22L30.3195 132.303L31.6177 127.474ZM30.6636 127.082L28.2036 131.435L28.4739 131.587L28.761 131.705L30.6636 127.082ZM29.7339 126.556L26.7797 130.59L27.0174 130.764L27.2739 130.909L29.7339 126.556ZM28.8218 125.888L25.4513 129.581L25.6502 129.763L25.8676 129.922L28.8218 125.888ZM27.9165 125.062L24.2116 128.42L24.3709 128.595L24.546 128.755L27.9165 125.062ZM27.0005 124.051L23.0338 127.095L23.1583 127.257L23.2956 127.409L27.0005 124.051ZM26.0405 122.8L21.8753 125.566L21.9698 125.709L22.0738 125.844L26.0405 122.8ZM24.9536 121.164L20.6507 123.71L20.7167 123.822L20.7884 123.93L24.9536 121.164ZM23.0024 117.867L18.6459 120.32L18.6722 120.367L18.6995 120.413L23.0024 117.867ZM21.1226 114.529L16.643 116.75L16.7014 116.868L16.766 116.982L21.1226 114.529ZM20.2495 112.768L15.6317 114.685L15.6957 114.84L15.7699 114.989L20.2495 112.768ZM19.645 111.312L14.8843 112.84L14.9477 113.038L15.0272 113.229L19.645 111.312ZM19.228 110.013L14.3442 111.085L14.395 111.316L14.4674 111.542L19.228 110.013ZM18.9653 108.816L13.9946 109.356L14.0237 109.624L14.0815 109.887L18.9653 108.816ZM18.8433 107.692L13.8434 107.651L13.841 107.942L13.8725 108.232L18.8433 107.692ZM18.852 106.625L13.8962 105.962L13.8548 106.271L13.8522 106.583L18.852 106.625ZM18.9888 105.602L14.1587 104.31L14.0755 104.62L14.0329 104.939L18.9888 105.602ZM19.2524 104.617L14.6309 102.708L14.5066 103.01L14.4224 103.324L19.2524 104.617ZM19.646 103.664L15.293 101.204L15.1418 101.471L15.0245 101.755L19.646 103.664ZM20.1714 102.734L16.1374 99.7797L15.9634 100.017L15.8184 100.274L20.1714 102.734ZM20.8394 101.822L17.1461 98.4513L16.9646 98.6502L16.8054 98.8676L20.8394 101.822ZM21.6655 100.916L18.3082 97.2113L18.1323 97.3707L17.9723 97.546L21.6655 100.916ZM22.3208 100.323L25.6781 104.028L28.6369 101.347L26.677 97.8684L22.3208 100.323ZM21.1235 98.1977L16.6455 100.422L16.7034 100.539L16.7674 100.652L21.1235 98.1977ZM20.3921 96.7251L15.7728 98.6387L15.8381 98.7964L15.914 98.9493L20.3921 96.7251ZM19.8872 95.5063L15.1274 97.0374L15.1898 97.2315L15.2679 97.42L19.8872 95.5063ZM19.5376 94.4194L14.6539 95.4915L14.7049 95.7239L14.7778 95.9504L19.5376 94.4194ZM19.3179 93.4185L14.3473 93.9604L14.3765 94.2278L14.4341 94.4905L19.3179 93.4185ZM19.2153 92.478L14.2155 92.4344L14.213 92.728L14.2448 93.02L19.2153 92.478ZM19.2231 91.5835L14.2672 90.9208L14.226 91.229L14.2233 91.5398L19.2231 91.5835ZM19.3374 90.729L14.5076 89.4357L14.4242 89.747L14.3815 90.0663L19.3374 90.729ZM19.5581 89.9048L14.9378 87.9935L14.8128 88.2957L14.7283 88.6115L19.5581 89.9048ZM19.8716 89.147L24.4919 91.0582L25.7607 87.991L23.4266 85.631L19.8716 89.147ZM19.6958 88.9692L15.7212 92.0028L15.9155 92.2574L16.1408 92.4852L19.6958 88.9692ZM18.7798 87.769L14.4499 90.2694L14.6104 90.5474L14.8051 90.8026L18.7798 87.769ZM18.0337 86.477L13.4193 88.4024L13.543 88.6991L13.7038 88.9774L18.0337 86.477ZM17.4526 85.0845L12.634 86.4188L12.7176 86.7207L12.8382 87.0098L17.4526 85.0845ZM17.0356 83.5786L12.0944 84.3431L12.1391 84.6316L12.217 84.913L17.0356 83.5786ZM16.7827 81.9438L11.7879 82.1725L11.8003 82.4419L11.8415 82.7083L16.7827 81.9438ZM16.7007 80.1519L11.7067 79.9072L11.6951 80.1438L11.7059 80.3805L16.7007 80.1519ZM16.7983 78.1587L11.8413 77.5049L11.8144 77.7087L11.8043 77.914L16.7983 78.1587ZM17.1001 75.8706L12.1988 74.8822L12.1652 75.0486L12.143 75.2168L17.1001 75.8706ZM17.6685 73.0522L12.8254 71.8093L12.793 71.9358L12.7671 72.0638L17.6685 73.0522ZM19.062 67.6226L14.2465 66.2769L14.2322 66.3281L14.219 66.3796L19.062 67.6226ZM20.5708 62.2231L15.8315 60.6298L15.7902 60.7527L15.7553 60.8775L20.5708 62.2231ZM21.4868 59.4985L16.8672 57.5855L16.8019 57.7433L16.7475 57.9052L21.4868 59.4985ZM22.3696 57.3667L17.9222 55.0818L17.8285 55.2642L17.7501 55.4537L22.3696 57.3667ZM23.2817 55.5913L19.0703 52.8962L18.9426 53.0957L18.8343 53.3064L23.2817 55.5913ZM24.2485 54.0806L20.3514 50.9481L20.1824 51.1583L20.0371 51.3854L24.2485 54.0806ZM25.2847 52.7915L21.7789 49.2264L21.5706 49.4313L21.3875 49.659L25.2847 52.7915ZM26.3989 51.6958L23.3654 47.7212L23.1165 47.9111L22.8932 48.1307L26.3989 51.6958ZM27.5991 50.7798L25.0987 46.4499L24.8207 46.6104L24.5656 46.8051L27.5991 50.7798ZM28.8911 50.0337L26.9657 45.4193L26.6691 45.543L26.3907 45.7038L28.8911 50.0337ZM30.2837 49.4526L28.9493 44.634L28.6474 44.7176L28.3583 44.8382L30.2837 49.4526ZM31.7895 49.0356L31.025 44.0944L30.7365 44.1391L30.4552 44.217L31.7895 49.0356ZM33.4243 48.7827L33.1957 43.7879L32.9263 43.8003L32.6598 43.8415L33.4243 48.7827ZM35.2163 48.7007L35.4582 43.7065L35.2229 43.6951L34.9877 43.7059L35.2163 48.7007ZM36.9302 48.7837L36.6883 53.7778L43.1155 54.0891L41.8293 47.7843L36.9302 48.7837ZM36.8804 48.5395L31.9234 49.1938L31.9463 49.3674L31.9813 49.539L36.8804 48.5395ZM36.521 45.8169L31.527 46.0615L31.537 46.2671L31.564 46.4712L36.521 45.8169ZM36.4048 43.4438L31.41 43.2151L31.3992 43.4518L31.4108 43.6884L36.4048 43.4438ZM36.5024 41.311L31.5612 40.547L31.52 40.8132L31.5077 41.0823L36.5024 41.311ZM36.8032 39.3657L31.985 38.0299L31.9067 38.3122L31.8619 38.6017L36.8032 39.3657ZM37.3003 37.5727L32.6854 35.6485L32.5654 35.9364L32.482 36.237L37.3003 37.5727ZM37.9917 35.9145L33.6612 33.4152L33.5005 33.6936L33.3768 33.9903L37.9917 35.9145ZM38.8794 34.3765L34.905 31.3426L34.7097 31.5984L34.5489 31.8771L38.8794 34.3765ZM39.9692 32.9487L36.405 29.4422L36.1851 29.6657L35.9948 29.9149L39.9692 32.9487ZM41.2739 31.6226L38.1423 27.7248L37.9145 27.9077L37.7096 28.116L41.2739 31.6226ZM42.8091 30.3892L40.1115 26.1793L39.8861 26.3237L39.6775 26.4914L42.8091 30.3892ZM44.606 29.2378L42.3207 24.7906L42.1089 24.8994L41.9084 25.0279L44.606 29.2378ZM46.7192 28.1519L44.8082 23.5315L44.6175 23.6103L44.434 23.7046L46.7192 28.1519ZM49.2573 27.102L47.6633 22.3629L47.5028 22.4169L47.3462 22.4817L49.2573 27.102ZM52.5005 26.0112L51.1548 21.1957L51.0297 21.2307L50.9065 21.2721L52.5005 26.0112ZM58.9272 24.2153L57.6846 19.3722L57.633 19.3855L57.5816 19.3998L58.9272 24.2153ZM65.3901 22.5571L64.4013 17.6559L64.2737 17.6816L64.1475 17.714L65.3901 22.5571ZM68.7446 21.8804L68.0906 16.9233L67.9222 16.9455L67.7558 16.9791L68.7446 21.8804ZM71.4683 21.521L71.2236 16.527L71.0181 16.537L70.8142 16.564L71.4683 21.521ZM73.8403 21.4048L74.069 16.41L73.8323 16.3992L73.5957 16.4108L73.8403 21.4048ZM75.9731 21.5024L76.7368 16.5611L76.4708 16.52L76.2018 16.5077L75.9731 21.5024ZM77.9194 21.8032L79.2552 16.985L78.9728 16.9066L78.6831 16.8619L77.9194 21.8032ZM79.7124 22.3003L81.6366 17.6854L81.3488 17.5654L81.0482 17.482L79.7124 22.3003ZM81.3706 22.9917L83.8711 18.6619L83.5922 18.5008L83.2948 18.3768L81.3706 22.9917ZM82.9077 23.8794L85.9415 19.905L85.6863 19.7101L85.4082 19.5496L82.9077 23.8794ZM84.3354 24.9692L87.8407 21.4037L87.6178 21.1845L87.3693 20.9948L84.3354 24.9692ZM85.6626 26.2739L89.5616 23.1438L89.3775 22.9145L89.1678 22.7083L85.6626 26.2739ZM86.895 27.8091L91.1049 25.1115L90.961 24.887L90.794 24.679L86.895 27.8091ZM88.0464 29.606L92.4936 27.3207L92.3848 27.1089L92.2563 26.9084L88.0464 29.606ZM89.1323 31.7192L93.7527 29.8082L93.6738 29.6175L93.5795 29.434L89.1323 31.7192ZM90.1821 34.2573L94.9208 32.6621L94.867 32.5022L94.8025 32.3462L90.1821 34.2573ZM91.2739 37.5005L96.0894 36.1546L96.0542 36.0289L96.0126 35.9052L91.2739 37.5005ZM92.5903 42.2104L87.7749 43.5563L88.5864 46.4599L91.5331 47.0974L92.5903 42.2104ZM94.9468 42.7202L96.461 37.955L96.2354 37.8833L96.004 37.8333L94.9468 42.7202ZM98.0015 43.6909L100.017 39.1151L99.7714 39.007L99.5157 38.9257L98.0015 43.6909ZM100.708 44.8833L103.247 40.5756L102.993 40.4262L102.724 40.3075L100.708 44.8833ZM103.115 46.3013L106.166 42.34L105.92 42.1509L105.653 41.9936L103.115 46.3013ZM105.252 47.9478L108.789 44.4131L108.56 44.1841L108.303 43.9865L105.252 47.9478ZM107.137 49.8335L111.097 46.7805L110.901 46.5261L110.674 46.2989L107.137 49.8335ZM108.785 51.9702L113.054 49.3672L112.911 49.1337L112.744 48.9172L108.785 51.9702ZM108.809 52.0103L104.54 54.6133L105.983 56.9802L108.755 57.01L108.809 52.0103ZM113.72 52.063L114.035 47.0729L113.904 47.0647L113.774 47.0633L113.72 52.063ZM116.757 52.2544L117.407 47.2968L117.24 47.2749L117.072 47.2643L116.757 52.2544ZM119.178 52.5718L120.235 47.6847L120.033 47.641L119.828 47.6142L119.178 52.5718ZM121.243 53.0181L122.757 48.253L122.531 48.1811L122.299 48.131L121.243 53.0181ZM123.052 53.5933L125.068 49.0177L124.823 48.9095L124.567 48.8282L123.052 53.5933ZM124.655 54.2993L127.192 49.9906L126.939 49.8419L126.671 49.7237L124.655 54.2993ZM126.08 55.1382L129.132 51.1781L128.885 50.9877L128.616 50.8295L126.08 55.1382ZM127.345 56.1138L130.881 52.5782L130.653 52.3504L130.398 52.1537L127.345 56.1138ZM128.461 57.23L132.423 54.1794L132.226 53.9231L131.997 53.6944L128.461 57.23ZM129.436 58.4956L133.743 55.9566L133.586 55.6901L133.398 55.445L129.436 58.4956ZM130.276 59.9204L134.851 57.9045L134.733 57.6351L134.583 57.3814L130.276 59.9204ZM130.982 61.5229L135.747 60.0076L135.666 59.7522L135.558 59.507L130.982 61.5229ZM131.557 63.3315L136.445 62.2777L136.394 62.044L136.322 61.8162L131.557 63.3315ZM132.002 65.397L136.96 64.7451L136.933 64.5427L136.89 64.3432L132.002 65.397ZM132.321 67.8179L137.311 67.505L137.3 67.3349L137.278 67.166L132.321 67.8179ZM132.511 70.855L137.511 70.8015L137.51 70.6717L137.501 70.5421L132.511 70.855ZM132.575 76.7876L137.574 76.8411L137.575 76.7876L137.574 76.7341L132.575 76.7876ZM132.511 82.7202L127.521 82.4073L127.331 85.4444L132.321 85.7573L137.311 86.0702L137.501 83.0331L132.511 82.7202ZM132.321 85.7573L127.363 85.1054L127.045 87.5263L132.002 88.1782L136.96 88.8301L137.278 86.4092L132.321 85.7573ZM132.002 88.1782L127.115 87.1239L126.67 89.1884L131.557 90.2427L136.445 91.297L136.89 89.2325L132.002 88.1782ZM131.557 90.2427L126.792 88.728L126.217 90.5376L130.982 92.0522L135.747 93.5669L136.322 91.7573L131.557 90.2427ZM130.982 92.0522L126.406 90.0363L125.7 91.6388L130.276 93.6548L134.851 95.6707L135.558 94.0682L130.982 92.0522ZM130.276 93.6548L125.968 91.1164L125.346 92.172L129.654 94.7104L133.962 97.2489L134.584 96.1932L130.276 93.6548ZM129.654 94.7104L125.617 97.6613L125.976 98.1516L130.012 95.2007L134.049 92.2498L133.69 91.7596L129.654 94.7104ZM130.012 95.2007L125.66 97.6624L126.274 98.7483L130.626 96.2866L134.978 93.8249L134.364 92.739L130.012 95.2007ZM130.626 96.2866L126.002 98.1889L126.46 99.3022L131.084 97.3999L135.708 95.4976L135.25 94.3843L130.626 96.2866ZM131.084 97.3999L126.255 98.6964L126.564 99.8458L131.393 98.5493L136.222 97.2528L135.913 96.1034L131.084 97.3999ZM131.393 98.5493L126.437 99.2104L126.596 100.404L131.552 99.7427L136.508 99.0816L136.349 97.8882L131.393 98.5493ZM131.552 99.7427L126.552 99.7857L126.563 101.033L131.563 100.99L136.563 100.947L136.552 99.6996L131.552 99.7427ZM131.563 100.99L126.592 100.45L126.45 101.762L131.42 102.302L136.391 102.842L136.534 101.53L131.563 100.99ZM131.42 102.302L126.537 101.231L126.23 102.628L131.114 103.7L135.998 104.771L136.304 103.374L131.42 102.302ZM131.114 103.7L126.354 102.169L125.866 103.685L130.626 105.215L135.386 106.746L135.874 105.23L131.114 103.7ZM130.626 105.215L126.007 103.301L125.302 105.002L129.921 106.917L134.54 108.831L135.245 107.13L130.626 105.215ZM129.921 106.917L125.443 104.693L124.423 106.747L128.902 108.97L133.38 111.193L134.4 109.14L129.921 106.917ZM128.902 108.97L124.545 106.517L122.351 110.415L126.708 112.868L131.064 115.321L133.259 111.423L128.902 108.97ZM126.708 112.868L122.405 110.321L120.127 114.169L124.429 116.716L128.732 119.263L131.01 115.415L126.708 112.868ZM124.429 116.716L120.263 113.951L118.995 115.862L123.161 118.627L127.326 121.393L128.595 119.481L124.429 116.716ZM123.161 118.627L119.193 115.585L118.073 117.046L122.041 120.088L126.008 123.131L127.129 121.67L123.161 118.627ZM122.041 120.088L118.337 116.729L117.267 117.908L120.97 121.268L124.673 124.628L125.744 123.448L122.041 120.088ZM120.97 121.268L117.601 117.574L116.544 118.538L119.914 122.232L123.283 125.926L124.34 124.962L120.97 121.268ZM119.914 122.232L116.959 118.198L115.894 118.978L118.848 123.012L121.802 127.046L122.868 126.266L119.914 122.232ZM118.848 123.012L116.385 118.661L115.3 119.275L117.763 123.626L120.227 127.978L121.312 127.363L118.848 123.012ZM117.763 123.626L115.861 119.002L114.748 119.46L116.65 124.084L118.552 128.708L119.665 128.25L117.763 123.626ZM116.65 124.084L115.353 119.255L114.204 119.564L115.5 124.393L116.797 129.222L117.946 128.913L116.65 124.084ZM115.5 124.393L114.839 119.437L113.646 119.596L114.307 124.552L114.968 129.508L116.162 129.349L115.5 124.393ZM114.307 124.552L114.264 119.552L113.017 119.563L113.06 124.563L113.103 129.563L114.35 129.552L114.307 124.552ZM113.06 124.563L113.6 119.592L112.288 119.45L111.748 124.42L111.208 129.391L112.52 129.534L113.06 124.563ZM111.748 124.42L112.819 119.537L111.422 119.23L110.35 124.114L109.278 128.998L110.676 129.304L111.748 124.42ZM110.35 124.114L111.884 119.355L110.724 118.981L109.19 123.74L107.656 128.499L108.816 128.873L110.35 124.114ZM109.19 123.74L105.231 120.686L104.984 121.006L108.943 124.06L112.902 127.114L113.149 126.794L109.19 123.74ZM108.943 124.06L105.407 120.525L104.525 121.407L108.06 124.943L111.596 128.478L112.478 127.596L108.943 124.06ZM108.06 124.943L105.008 120.982L104.008 121.753L107.06 125.713L110.112 129.674L111.112 128.904L108.06 124.943ZM107.06 125.713L104.522 121.406L103.395 122.07L105.933 126.377L108.471 130.685L109.598 130.021L107.06 125.713ZM105.933 126.377L103.918 121.801L102.652 122.359L104.666 126.935L106.681 131.511L107.948 130.954L105.933 126.377ZM104.666 126.935L103.151 122.17L101.72 122.625L103.236 127.39L104.751 132.155L106.182 131.7L104.666 126.935ZM103.236 127.39L102.181 122.503L100.548 122.855L101.603 127.743L102.658 132.63L104.291 132.278L103.236 127.39ZM101.603 127.743L100.953 122.785L99.0389 123.036L99.689 127.994L100.339 132.951L102.253 132.7L101.603 127.743ZM99.689 127.994L99.3743 123.004L96.9739 123.155L97.2886 128.145L97.6032 133.135L100.004 132.984L99.689 127.994ZM97.2886 128.145L97.2355 123.145L92.5441 123.195L92.5972 128.195L92.6502 133.195L97.3416 133.145L97.2886 128.145ZM92.5972 128.195L92.6503 123.195L87.9598 123.145L87.9067 128.145L87.8536 133.145L92.5441 133.195L92.5972 128.195ZM87.9067 128.145L88.2214 123.155L85.821 123.004L85.5063 127.994L85.1917 132.984L87.5921 133.135L87.9067 128.145ZM85.5063 127.994L86.1561 123.036L84.241 122.785L83.5913 127.743L82.9416 132.7L84.8566 132.951L85.5063 127.994ZM83.5913 127.743L84.6471 122.855L83.0153 122.503L81.9595 127.39L80.9036 132.277L82.5355 132.63L83.5913 127.743ZM81.9595 127.39L83.4751 122.625L82.0444 122.17L80.5288 126.935L79.0132 131.7L80.4439 132.155L81.9595 127.39ZM80.5288 126.935L82.5434 122.359L81.2768 121.801L79.2622 126.377L77.2476 130.954L78.5142 131.511L80.5288 126.935ZM79.2622 126.377L81.8006 122.07L80.6736 121.406L78.1352 125.713L75.5969 130.021L76.7238 130.685L79.2622 126.377ZM78.1352 125.713L81.187 121.753L80.187 120.982L77.1352 124.943L74.0835 128.904L75.0835 129.674L78.1352 125.713ZM77.1352 124.943L80.6773 121.414L80.4146 121.15L76.8726 124.679L73.3305 128.208L73.5932 128.472L77.1352 124.943ZM76.8726 124.679L76.819 119.679L72.1677 119.729L72.2212 124.729L72.2747 129.729L76.9261 129.679L76.8726 124.679ZM72.2212 124.729L72.2743 119.729L62.2538 119.623L62.2007 124.623L62.1476 129.622L72.1681 129.729L72.2212 124.729ZM62.2007 124.623L62.5152 119.632L57.3863 119.309L57.0718 124.299L56.7573 129.289L61.8862 129.613L62.2007 124.623ZM57.0718 124.299L57.7217 119.342L53.6318 118.806L52.9819 123.763L52.332 128.721L56.4219 129.257L57.0718 124.299ZM52.9819 123.763L54.0385 118.876L50.5512 118.122L49.4946 123.009L48.4381 127.896L51.9254 128.65L52.9819 123.763ZM49.4946 123.009L51.0097 118.244L48.7861 117.537L47.271 122.302L45.7559 127.067L47.9796 127.774L49.4946 123.009ZM47.271 122.302L44.7245 117.999L42.3202 119.422L44.8667 123.725L47.4132 128.028L49.8175 126.605L47.271 122.302ZM44.8667 123.725L42.4131 119.369L39.0752 121.248L41.5288 125.605L43.9824 129.962L47.3203 128.082L44.8667 123.725ZM41.5288 125.605L39.3067 121.126L37.5469 121.999L39.769 126.478L41.9912 130.957L43.7509 130.084L41.5288 125.605ZM39.769 126.478L37.853 121.86L36.396 122.464L38.312 127.083L40.228 131.701L41.6851 131.096L39.769 126.478ZM38.312 127.083L36.7836 122.322L35.4848 122.739L37.0132 127.5L38.5416 132.26L39.8404 131.843L38.312 127.083ZM37.0132 127.5L35.9416 122.616L34.7443 122.878L35.8159 127.762L36.8875 132.646L38.0848 132.383L37.0132 127.5ZM35.8159 127.762L35.2761 122.791L34.1521 122.914L34.6919 127.884L35.2317 132.855L36.3557 132.733L35.8159 127.762ZM34.6919 127.884L34.7331 122.884L33.6657 122.876L33.6245 127.875L33.5833 132.875L34.6507 132.884L34.6919 127.884ZM33.6245 127.875L34.2872 122.92L33.2647 122.783L32.602 127.739L31.9394 132.695L32.9618 132.831L33.6245 127.875ZM32.602 127.739L33.9002 122.91L32.9158 122.646L31.6177 127.474L30.3195 132.303L31.3039 132.567L32.602 127.739ZM31.6177 127.474L33.5202 122.85L32.5661 122.458L30.6636 127.082L28.761 131.705L29.7151 132.098L31.6177 127.474ZM30.6636 127.082L33.1236 122.729L32.1939 122.203L29.7339 126.556L27.2739 130.909L28.2036 131.435L30.6636 127.082ZM29.7339 126.556L32.6881 122.522L31.776 121.854L28.8218 125.888L25.8676 129.922L26.7797 130.59L29.7339 126.556ZM28.8218 125.888L32.1923 122.195L31.287 121.369L27.9165 125.062L24.546 128.755L25.4513 129.581L28.8218 125.888ZM27.9165 125.062L31.6214 121.704L30.7054 120.694L27.0005 124.051L23.2956 127.409L24.2116 128.42L27.9165 125.062ZM27.0005 124.051L30.9672 121.007L30.0072 119.756L26.0405 122.8L22.0738 125.844L23.0338 127.095L27.0005 124.051ZM26.0405 122.8L30.2057 120.034L29.1188 118.398L24.9536 121.164L20.7884 123.93L21.8753 125.566L26.0405 122.8ZM24.9536 121.164L29.2565 118.617L27.3053 115.32L23.0024 117.867L18.6995 120.413L20.6507 123.71L24.9536 121.164ZM23.0024 117.867L27.359 115.413L25.4791 112.075L21.1226 114.529L16.766 116.982L18.6459 120.32L23.0024 117.867ZM21.1226 114.529L25.6021 112.308L24.7291 110.547L20.2495 112.768L15.7699 114.989L16.643 116.75L21.1226 114.529ZM20.2495 112.768L24.8674 110.851L24.2629 109.395L19.645 111.312L15.0272 113.229L15.6317 114.685L20.2495 112.768ZM19.645 111.312L24.4057 109.784L23.9887 108.485L19.228 110.013L14.4674 111.542L14.8843 112.84L19.645 111.312ZM19.228 110.013L24.1119 108.942L23.8492 107.744L18.9653 108.816L14.0815 109.887L14.3442 111.085L19.228 110.013ZM18.9653 108.816L23.9361 108.276L23.814 107.152L18.8433 107.692L13.8725 108.232L13.9946 109.356L18.9653 108.816ZM18.8433 107.692L23.8431 107.733L23.8519 106.666L18.852 106.625L13.8522 106.583L13.8434 107.651L18.8433 107.692ZM18.852 106.625L23.8079 107.287L23.9447 106.265L18.9888 105.602L14.0329 104.939L13.8962 105.962L18.852 106.625ZM18.9888 105.602L23.8188 106.895L24.0825 105.909L19.2524 104.617L14.4224 103.324L14.1587 104.31L18.9888 105.602ZM19.2524 104.617L23.874 106.525L24.2675 105.572L19.646 103.664L15.0245 101.755L14.6309 102.708L19.2524 104.617ZM19.646 103.664L23.999 106.124L24.5244 105.194L20.1714 102.734L15.8184 100.274L15.293 101.204L19.646 103.664ZM20.1714 102.734L24.2053 105.688L24.8733 104.776L20.8394 101.822L16.8054 98.8676L16.1374 99.7797L20.1714 102.734ZM20.8394 101.822L24.5326 105.192L25.3587 104.287L21.6655 100.916L17.9723 97.546L17.1461 98.4513L20.8394 101.822ZM21.6655 100.916L25.0228 104.622L25.6781 104.028L22.3208 100.323L18.9635 96.6176L18.3082 97.2113L21.6655 100.916ZM22.3208 100.323L26.677 97.8684L25.4797 95.7434L21.1235 98.1977L16.7674 100.652L17.9646 102.777L22.3208 100.323ZM21.1235 98.1977L25.6016 95.9736L24.8701 94.5009L20.3921 96.7251L15.914 98.9493L16.6455 100.422L21.1235 98.1977ZM20.3921 96.7251L25.0114 94.8115L24.5065 93.5927L19.8872 95.5063L15.2679 97.42L15.7728 98.6387L20.3921 96.7251ZM19.8872 95.5063L24.647 93.9753L24.2974 92.8884L19.5376 94.4194L14.7778 95.9504L15.1274 97.0374L19.8872 95.5063ZM19.5376 94.4194L24.4213 93.3474L24.2016 92.3464L19.3179 93.4185L14.4341 94.4905L14.6539 95.4915L19.5376 94.4194ZM19.3179 93.4185L24.2884 92.8765L24.1859 91.9361L19.2153 92.478L14.2448 93.02L14.3473 93.9604L19.3179 93.4185ZM19.2153 92.478L24.2151 92.5217L24.223 91.6272L19.2231 91.5835L14.2233 91.5398L14.2155 92.4344L19.2153 92.478ZM19.2231 91.5835L24.179 92.2462L24.2933 91.3917L19.3374 90.729L14.3815 90.0663L14.2672 90.9208L19.2231 91.5835ZM19.3374 90.729L24.1672 92.0223L24.3879 91.1981L19.5581 89.9048L14.7283 88.6115L14.5076 89.4357L19.3374 90.729ZM19.5581 89.9048L24.1784 91.816L24.4919 91.0582L19.8716 89.147L15.2513 87.2357L14.9378 87.9935L19.5581 89.9048ZM19.8716 89.147L23.4266 85.631L23.2508 85.4533L19.6958 88.9692L16.1408 92.4852L16.3166 92.6629L19.8716 89.147ZM19.6958 88.9692L23.6704 85.9357L22.7544 84.7355L18.7798 87.769L14.8051 90.8026L15.7212 92.0028L19.6958 88.9692ZM18.7798 87.769L23.1097 85.2686L22.3636 83.9766L18.0337 86.477L13.7038 88.9774L14.4499 90.2694L18.7798 87.769ZM18.0337 86.477L22.6481 84.5517L22.0671 83.1591L17.4526 85.0845L12.8382 87.0098L13.4193 88.4024L18.0337 86.477ZM17.4526 85.0845L22.2713 83.7501L21.8543 82.2443L17.0356 83.5786L12.217 84.913L12.634 86.4188L17.4526 85.0845ZM17.0356 83.5786L21.9768 82.8141L21.7239 81.1793L16.7827 81.9438L11.8415 82.7083L12.0944 84.3431L17.0356 83.5786ZM16.7827 81.9438L21.7775 81.7152L21.6954 79.9232L16.7007 80.1519L11.7059 80.3805L11.7879 82.1725L16.7827 81.9438ZM16.7007 80.1519L21.6947 80.3965L21.7923 78.4034L16.7983 78.1587L11.8043 77.914L11.7067 79.9072L16.7007 80.1519ZM16.7983 78.1587L21.7554 78.8124L22.0572 76.5244L17.1001 75.8706L12.143 75.2168L11.8413 77.5049L16.7983 78.1587ZM17.1001 75.8706L22.0014 76.859L22.5698 74.0407L17.6685 73.0522L12.7671 72.0638L12.1988 74.8822L17.1001 75.8706ZM17.6685 73.0522L22.5115 74.2952L23.905 68.8655L19.062 67.6226L14.219 66.3796L12.8254 71.8093L17.6685 73.0522ZM19.062 67.6226L23.8775 68.9682L25.3863 63.5688L20.5708 62.2231L15.7553 60.8775L14.2465 66.2769L19.062 67.6226ZM20.5708 62.2231L25.3101 63.8165L26.2261 61.0919L21.4868 59.4985L16.7475 57.9052L15.8315 60.6298L20.5708 62.2231ZM21.4868 59.4985L26.1064 61.4115L26.9892 59.2797L22.3696 57.3667L17.7501 55.4537L16.8672 57.5855L21.4868 59.4985ZM22.3696 57.3667L26.817 59.6516L27.7291 57.8762L23.2817 55.5913L18.8343 53.3064L17.9222 55.0818L22.3696 57.3667ZM23.2817 55.5913L27.4932 58.2864L28.46 56.7757L24.2485 54.0806L20.0371 51.3854L19.0703 52.8962L23.2817 55.5913ZM24.2485 54.0806L28.1457 57.213L29.1818 55.924L25.2847 52.7915L21.3875 49.659L20.3514 50.9481L24.2485 54.0806ZM25.2847 52.7915L28.7904 56.3566L29.9047 55.2609L26.3989 51.6958L22.8932 48.1307L21.7789 49.2264L25.2847 52.7915ZM26.3989 51.6958L29.4325 55.6704L30.6327 54.7544L27.5991 50.7798L24.5656 46.8051L23.3654 47.7212L26.3989 51.6958ZM27.5991 50.7798L30.0995 55.1097L31.3915 54.3636L28.8911 50.0337L26.3907 45.7038L25.0987 46.4499L27.5991 50.7798ZM28.8911 50.0337L30.8165 54.6481L32.2091 54.0671L30.2837 49.4526L28.3583 44.8382L26.9657 45.4193L28.8911 50.0337ZM30.2837 49.4526L31.618 54.2713L33.1239 53.8543L31.7895 49.0356L30.4552 44.217L28.9493 44.634L30.2837 49.4526ZM31.7895 49.0356L32.5541 53.9768L34.1888 53.7239L33.4243 48.7827L32.6598 43.8415L31.025 44.0944L31.7895 49.0356ZM33.4243 48.7827L33.653 53.7775L35.445 53.6954L35.2163 48.7007L34.9877 43.7059L33.1957 43.7879L33.4243 48.7827ZM35.2163 48.7007L34.9744 53.6948L36.6883 53.7778L36.9302 48.7837L37.1721 43.7895L35.4582 43.7065L35.2163 48.7007ZM36.9302 48.7837L41.8293 47.7843L41.7795 47.5401L36.8804 48.5395L31.9813 49.539L32.0311 49.7831L36.9302 48.7837ZM36.8804 48.5395L41.8374 47.8852L41.478 45.1626L36.521 45.8169L31.564 46.4712L31.9234 49.1938L36.8804 48.5395ZM36.521 45.8169L41.515 45.5723L41.3988 43.1993L36.4048 43.4438L31.4108 43.6884L31.527 46.0615L36.521 45.8169ZM36.4048 43.4438L41.3996 43.6725L41.4972 41.5397L36.5024 41.311L31.5077 41.0823L31.41 43.2151L36.4048 43.4438ZM36.5024 41.311L41.4437 42.075L41.7445 40.1297L36.8032 39.3657L31.8619 38.6017L31.5612 40.547L36.5024 41.311ZM36.8032 39.3657L41.6215 40.7015L42.1186 38.9085L37.3003 37.5727L32.482 36.237L31.985 38.0299L36.8032 39.3657ZM37.3003 37.5727L41.9152 39.497L42.6066 37.8388L37.9917 35.9145L33.3768 33.9903L32.6854 35.6485L37.3003 37.5727ZM37.9917 35.9145L42.3222 38.4139L43.2099 36.8758L38.8794 34.3765L34.5489 31.8771L33.6612 33.4152L37.9917 35.9145ZM38.8794 34.3765L42.8538 37.4103L43.9436 35.9825L39.9692 32.9487L35.9948 29.9149L34.905 31.3426L38.8794 34.3765ZM39.9692 32.9487L43.5335 36.4553L44.8382 35.1291L41.2739 31.6226L37.7096 28.116L36.405 29.4422L39.9692 32.9487ZM41.2739 31.6226L44.4056 35.5204L45.9407 34.287L42.8091 30.3892L39.6775 26.4914L38.1423 27.7248L41.2739 31.6226ZM42.8091 30.3892L45.5066 34.5991L47.3035 33.4477L44.606 29.2378L41.9084 25.0279L40.1115 26.1793L42.8091 30.3892ZM44.606 29.2378L46.8912 33.685L49.0045 32.5991L46.7192 28.1519L44.434 23.7046L42.3207 24.7906L44.606 29.2378ZM46.7192 28.1519L48.6303 32.7722L51.1684 31.7224L49.2573 27.102L47.3462 22.4817L44.8082 23.5315L46.7192 28.1519ZM49.2573 27.102L50.8513 31.8412L54.0945 30.7503L52.5005 26.0112L50.9065 21.2721L47.6633 22.3629L49.2573 27.102ZM52.5005 26.0112L53.8461 30.8267L60.2729 29.0308L58.9272 24.2153L57.5816 19.3998L51.1548 21.1957L52.5005 26.0112ZM58.9272 24.2153L60.1699 29.0585L66.6328 27.4003L65.3901 22.5571L64.1475 17.714L57.6846 19.3722L58.9272 24.2153ZM65.3901 22.5571L66.3789 27.4584L69.7334 26.7816L68.7446 21.8804L67.7558 16.9791L64.4013 17.6559L65.3901 22.5571ZM68.7446 21.8804L69.3987 26.8374L72.1223 26.478L71.4683 21.521L70.8142 16.564L68.0906 16.9233L68.7446 21.8804ZM71.4683 21.521L71.7129 26.515L74.085 26.3988L73.8403 21.4048L73.5957 16.4108L71.2236 16.527L71.4683 21.521ZM73.8403 21.4048L73.6116 26.3995L75.7444 26.4972L75.9731 21.5024L76.2018 16.5077L74.069 16.41L73.8403 21.4048ZM75.9731 21.5024L75.2095 26.4438L77.1558 26.7446L77.9194 21.8032L78.6831 16.8619L76.7368 16.5611L75.9731 21.5024ZM77.9194 21.8032L76.5837 26.6215L78.3766 27.1186L79.7124 22.3003L81.0482 17.482L79.2552 16.985L77.9194 21.8032ZM79.7124 22.3003L77.7882 26.9152L79.4464 27.6066L81.3706 22.9917L83.2948 18.3768L81.6366 17.6854L79.7124 22.3003ZM81.3706 22.9917L78.8701 27.3215L80.4072 28.2092L82.9077 23.8794L85.4082 19.5496L83.8711 18.6619L81.3706 22.9917ZM82.9077 23.8794L79.8739 27.8538L81.3016 28.9436L84.3354 24.9692L87.3693 20.9948L85.9415 19.905L82.9077 23.8794ZM84.3354 24.9692L80.8302 28.5348L82.1574 29.8395L85.6626 26.2739L89.1678 22.7083L87.8407 21.4037L84.3354 24.9692ZM85.6626 26.2739L81.7636 29.404L82.996 30.9392L86.895 27.8091L90.794 24.679L89.5616 23.1438L85.6626 26.2739ZM86.895 27.8091L82.6851 30.5066L83.8365 32.3035L88.0464 29.606L92.2563 26.9084L91.1049 25.1115L86.895 27.8091ZM88.0464 29.606L83.5992 31.8912L84.6851 34.0045L89.1323 31.7192L93.5795 29.434L92.4936 27.3207L88.0464 29.606ZM89.1323 31.7192L84.512 33.6303L85.5618 36.1684L90.1821 34.2573L94.8025 32.3462L93.7527 29.8082L89.1323 31.7192ZM90.1821 34.2573L85.4434 35.8526L86.5352 39.0957L91.2739 37.5005L96.0126 35.9052L94.9208 32.6621L90.1821 34.2573ZM91.2739 37.5005L86.4585 38.8464L87.7749 43.5563L92.5903 42.2104L97.4058 40.8646L96.0894 36.1546L91.2739 37.5005ZM92.5903 42.2104L91.5331 47.0974L93.8896 47.6072L94.9468 42.7202L96.004 37.8333L93.6475 37.3235L92.5903 42.2104ZM94.9468 42.7202L93.4325 47.4854L96.4872 48.4561L98.0015 43.6909L99.5157 38.9257L96.461 37.955L94.9468 42.7202ZM98.0015 43.6909L95.9859 48.2667L98.693 49.4591L100.708 44.8833L102.724 40.3075L100.017 39.1151L98.0015 43.6909ZM100.708 44.8833L98.17 49.191L100.576 50.609L103.115 46.3013L105.653 41.9936L103.247 40.5756L100.708 44.8833ZM103.115 46.3013L100.064 50.2625L102.201 51.909L105.252 47.9478L108.303 43.9865L106.166 42.34L103.115 46.3013ZM105.252 47.9478L101.716 51.4824L103.601 53.3681L107.137 49.8335L110.674 46.2989L108.789 44.4131L105.252 47.9478ZM107.137 49.8335L103.178 52.8865L104.825 55.0232L108.785 51.9702L112.744 48.9172L111.097 46.7805L107.137 49.8335ZM108.785 51.9702L104.516 54.5733L104.54 54.6133L108.809 52.0103L113.078 49.4072L113.054 49.3672L108.785 51.9702ZM108.809 52.0103L108.755 57.01L113.667 57.0627L113.72 52.063L113.774 47.0633L108.863 47.0105L108.809 52.0103ZM113.72 52.063L113.406 57.0531L116.443 57.2445L116.757 52.2544L117.072 47.2643L114.035 47.0729L113.72 52.063ZM116.757 52.2544L116.107 57.212L118.528 57.5294L119.178 52.5718L119.828 47.6142L117.407 47.2968L116.757 52.2544ZM119.178 52.5718L118.122 57.4589L120.186 57.9052L121.243 53.0181L122.299 48.131L120.235 47.6847L119.178 52.5718ZM121.243 53.0181L119.728 57.7831L121.538 58.3583L123.052 53.5933L124.567 48.8282L122.757 48.253L121.243 53.0181ZM123.052 53.5933L121.036 58.1688L122.639 58.8749L124.655 54.2993L126.671 49.7237L125.068 49.0177L123.052 53.5933ZM124.655 54.2993L122.118 58.608L123.543 59.4469L126.08 55.1382L128.616 50.8295L127.192 49.9906L124.655 54.2993ZM126.08 55.1382L123.027 59.0982L124.293 60.0738L127.345 56.1138L130.398 52.1537L129.132 51.1781L126.08 55.1382ZM127.345 56.1138L123.81 59.6493L124.926 60.7655L128.461 57.23L131.997 53.6944L130.881 52.5782L127.345 56.1138ZM128.461 57.23L124.5 60.2806L125.475 61.5462L129.436 58.4956L133.398 55.445L132.423 54.1794L128.461 57.23ZM129.436 58.4956L125.129 61.0346L125.968 62.4594L130.276 59.9204L134.583 57.3814L133.743 55.9566L129.436 58.4956ZM130.276 59.9204L125.7 61.9363L126.406 63.5389L130.982 61.5229L135.558 59.507L134.851 57.9045L130.276 59.9204ZM130.982 61.5229L126.217 63.0383L126.792 64.8469L131.557 63.3315L136.322 61.8162L135.747 60.0076L130.982 61.5229ZM131.557 63.3315L126.669 64.3853L127.115 66.4508L132.002 65.397L136.89 64.3432L136.445 62.2777L131.557 63.3315ZM132.002 65.397L127.045 66.0489L127.363 68.4698L132.321 67.8179L137.278 67.166L136.96 64.7451L132.002 65.397ZM132.321 67.8179L127.331 68.1308L127.521 71.1679L132.511 70.855L137.501 70.5421L137.311 67.505L132.321 67.8179ZM132.511 70.855L127.512 70.9085L127.575 76.8411L132.575 76.7876L137.574 76.7341L137.511 70.8015L132.511 70.855ZM132.575 76.7876L127.575 76.7341L127.512 82.6667L132.511 82.7202L137.511 82.7737L137.574 76.8411L132.575 76.7876Z" fill="#4C2416" mask="url(#path-1-inside-1_1274_71685)"/>
<path d="M48.9655 56.1622L47.6413 51.58L47.1445 49.1928L46.941 47.2526L46.9728 45.564L47.2193 44.0537L47.674 42.6847L48.3378 41.4357L49.2181 40.2929L50.332 39.2435L51.7137 38.2725L53.4357 37.3556L55.6923 36.4317L60.2311 34.9656L64.8133 33.6413L67.2005 33.1446L69.1407 32.941L70.8293 32.9729L72.3397 33.2194L73.7087 33.6741L74.9576 34.3378L76.1004 35.2181L77.1498 36.3321L78.1209 37.7138L79.0377 39.4358L79.9616 41.6923L81.4277 46.2312L82.752 50.8133L83.2487 53.2006L83.4523 55.1408L83.4205 56.8293L83.1739 58.3397L82.7192 59.7087L82.0555 60.9577L81.1752 62.1005L80.0612 63.1498L78.6795 64.1209L76.9575 65.0378L74.701 65.9617L70.1622 67.4278L65.58 68.7521L63.1927 69.2488L61.2525 69.4523L59.564 69.4205L58.0536 69.174L56.6846 68.7193L55.4357 68.0555L54.2929 67.1753L53.2435 66.0613L52.2724 64.6796L51.3555 62.9576L50.4316 60.701L48.9655 56.1622Z" fill="#AB4B2B"/>
<path d="M31 74.9736L31.0741 70.2045L31.2975 67.7764L31.6705 65.8615L32.1949 64.2561L32.8725 62.8839L33.7077 61.7078L34.7078 60.7077L35.8839 59.8725L37.2561 59.1949L38.8615 58.6705L40.7764 58.2975L43.2045 58.0741L47.9736 58L52.7428 58.0741L55.1709 58.2975L57.0858 58.6705L58.6912 59.1949L60.0633 59.8725L61.2394 60.7077L62.2395 61.7078L63.0748 62.8839L63.7524 64.2561L64.2768 65.8615L64.6498 67.7764L64.8731 70.2045L64.9473 74.9736L64.8731 79.7428L64.6498 82.1709L64.2768 84.0858L63.7524 85.6912L63.0748 87.0633L62.2395 88.2394L61.2394 89.2395L60.0633 90.0748L58.6912 90.7524L57.0858 91.2768L55.1709 91.6498L52.7428 91.8731L47.9736 91.9473L43.2045 91.8731L40.7764 91.6498L38.8615 91.2768L37.2561 90.7524L35.8839 90.0748L34.7078 89.2395L33.7077 88.2394L32.8725 87.0633L32.1949 85.6912L31.6705 84.0858L31.2975 82.1709L31.0741 79.7428L31 74.9736Z" fill="#AB4B2B"/>
<path d="M86.3931 83.1814L85.2304 78.5556L84.8177 76.1524L84.6823 74.2062L84.7733 72.5198L85.0727 71.019L85.5751 69.6668L86.2823 68.4419L87.2022 67.3307L88.3522 66.3211L89.7671 65.399L91.5202 64.5432L93.8078 63.699L98.3953 62.393L103.021 61.2303L105.424 60.8176L107.37 60.6822L109.057 60.7733L110.558 61.0726L111.91 61.5751L113.135 62.2822L114.246 63.2021L115.256 64.3521L116.178 65.7671L117.034 67.5202L117.878 69.8078L119.184 74.3952L120.346 79.021L120.759 81.4242L120.894 83.3704L120.803 85.0568L120.504 86.5576L120.002 87.9098L119.294 89.1347L118.375 90.2459L117.225 91.2555L115.81 92.1776L114.057 93.0334L111.769 93.8776L107.181 95.1836L102.556 96.3463L100.152 96.759L98.2063 96.8944L96.5199 96.8033L95.0191 96.504L93.6669 96.0015L92.442 95.2944L91.3308 94.3745L90.3211 93.2245L89.3991 91.8096L88.5432 90.0564L87.6991 87.7689L86.3931 83.1814Z" fill="#AB4B2B"/>
<path d="M72.4989 51L81.3492 51.1376L85.8552 51.5521L89.4088 52.2442L92.388 53.2174L94.9344 54.4748L97.1169 56.0249L98.9729 57.8809L100.523 60.0634L101.78 62.6098L102.754 65.589L103.446 69.1426L103.86 73.6486L103.998 82.4989L103.86 91.3493L103.446 95.8553L102.754 99.4089L101.78 102.388L100.523 104.934L98.9729 107.117L97.1169 108.973L94.9344 110.523L92.388 111.781L89.4088 112.754L85.8552 113.446L81.3492 113.86L72.4989 113.998L63.6485 113.86L59.1425 113.446L55.5889 112.754L52.6098 111.781L50.0633 110.523L47.8808 108.973L46.0248 107.117L44.4747 104.934L43.2173 102.388L42.2441 99.4089L41.552 95.8553L41.1375 91.3493L40.9999 82.4989L41.1375 73.6486L41.552 69.1426L42.2441 65.589L43.2173 62.6098L44.4748 60.0634L46.0248 57.8809L47.8808 56.0249L50.0633 54.4748L52.6098 53.2174L55.5889 52.2442L59.1425 51.5521L63.6485 51.1376L72.4989 51Z" fill="#AB4B2B"/>
<path d="M111.184 79.5468L112.529 85.0612L113 87.9245L113.145 90.2415L113.023 92.2475L112.654 94.0309L112.045 95.6359L111.193 97.0875L110.089 98.4021L108.712 99.594L107.021 100.679L104.927 101.683L102.198 102.669L96.728 104.184L91.2136 105.529L88.3504 106L86.0333 106.145L84.0273 106.023L82.2439 105.654L80.639 105.045L79.1873 104.193L77.8727 103.089L76.6808 101.712L75.5955 100.02L74.5917 97.9271L73.6063 95.1978L72.0906 89.7279L70.7457 84.2135L70.2746 81.3503L70.1299 79.0332L70.2523 77.0272L70.6211 75.2438L71.2303 73.6389L72.0821 72.1872L73.186 70.8726L74.563 69.6807L76.2544 68.5954L78.3478 67.5915L81.077 66.6061L86.547 65.0904L92.0614 63.7455L94.9246 63.2745L97.2416 63.1297L99.2476 63.2522L101.031 63.621L102.636 64.2302L104.088 65.082L105.402 66.1859L106.594 67.5629L107.679 69.2543L108.683 71.3477L109.669 74.0769L111.184 79.5468Z" fill="#AB4B2B"/>
<path d="M111.048 101.985L111.598 104.237L111.79 105.407L111.849 106.353L111.799 107.173L111.649 107.901L111.4 108.557L111.052 109.15L110.601 109.687L110.038 110.174L109.347 110.617L108.492 111.027L107.378 111.429L105.143 112.049L102.891 112.598L101.721 112.79L100.775 112.85L99.9552 112.8L99.2267 112.649L98.5711 112.4L97.9782 112.052L97.4412 111.601L96.9543 111.039L96.511 110.348L96.1009 109.493L95.6984 108.378L95.0793 106.143L94.5299 103.891L94.3375 102.721L94.2784 101.775L94.3284 100.956L94.479 100.227L94.7279 99.5714L95.0758 98.9785L95.5267 98.4415L96.0892 97.9546L96.7801 97.5113L97.6352 97.1012L98.7501 96.6987L100.984 96.0796L103.237 95.5302L104.407 95.3378L105.353 95.2787L106.172 95.3287L106.901 95.4793L107.556 95.7282L108.149 96.0761L108.686 96.527L109.173 97.0895L109.617 97.7804L110.027 98.6355L110.429 99.7504L111.048 101.985Z" fill="#AB4B2B"/>
<path d="M62.4938 59.2951L69.825 57.485L73.6343 56.927L76.7103 56.8771L79.3585 57.2573L81.6912 58.0455L83.7662 59.2435L85.6151 60.8696L87.2686 62.9729L88.7633 65.6617L90.1847 69.2397L92.2827 76.4937L94.0928 83.8249L94.6508 87.6342L94.7007 90.7102L94.3205 93.3585L93.5323 95.6911L92.3343 97.7661L90.7083 99.6151L88.6049 101.269L85.9161 102.763L82.3381 104.185L75.0841 106.283L67.7529 108.093L63.9436 108.651L60.8676 108.701L58.2193 108.32L55.8867 107.532L53.8117 106.334L51.9627 104.708L50.3093 102.605L48.8145 99.916L47.3931 96.3381L45.2952 89.084L43.485 81.7528L42.927 77.9435L42.8771 74.8675L43.2574 72.2193L44.0456 69.8866L45.2436 67.8116L46.8696 65.9627L48.973 64.3093L51.6618 62.8145L55.2398 61.3931L62.4938 59.2951Z" fill="#D66440"/>
<path d="M105.753 66.2248L108.317 66.9663L109.582 67.4687L110.532 67.997L111.275 68.5813L111.85 69.2348L112.273 69.9682L112.552 70.7926L112.686 71.7286L112.669 72.8157L112.472 74.1621L111.832 76.7531L111.09 79.3169L110.588 80.5815L110.06 81.5318L109.475 82.2752L108.822 82.8499L108.088 83.2733L107.264 83.5519L106.328 83.6863L105.241 83.6686L103.895 83.4714L101.303 82.8316L98.7396 82.0902L97.4751 81.5878L96.5248 81.0595L95.7814 80.4751L95.2067 79.8216L94.7833 79.0883L94.5047 78.2638L94.3703 77.3279L94.3879 76.2407L94.5852 74.8944L95.2249 72.3033L95.9664 69.7395L96.4688 68.475L96.9971 67.5247L97.5814 66.7813L98.2349 66.2066L98.9683 65.7832L99.7927 65.5046L100.729 65.3702L101.816 65.3878L103.162 65.5851L105.753 66.2248Z" fill="#D66440"/>
<path d="M55.5197 45.5602L57.2916 42.6265L58.335 41.2249L59.3062 40.2217L60.2781 39.4938L61.2797 38.9981L62.3301 38.7167L63.4454 38.6451L64.6511 38.7895L65.9937 39.1727L67.5982 39.8648L70.5995 41.5196L73.5333 43.2915L74.9349 44.3349L75.9381 45.3061L76.666 46.278L77.1616 47.2796L77.4431 48.33L77.5146 49.4453L77.3702 50.6509L76.987 51.9936L76.2949 53.5981L74.6402 56.5994L72.8683 59.5332L71.8248 60.9348L70.8537 61.938L69.8817 62.6659L68.8801 63.1615L67.8297 63.443L66.7145 63.5145L65.5088 63.3701L64.1662 62.9869L62.5617 62.2948L59.5603 60.64L56.6266 58.8682L55.225 57.8247L54.2218 56.8535L53.4939 55.8816L52.9982 54.88L52.7168 53.8296L52.6452 52.7144L52.7896 51.5087L53.1728 50.166L53.8649 48.5616L55.5197 45.5602Z" fill="#D66440"/>
</svg>
