<svg width="201" height="200" viewBox="0 0 201 200" fill="none" xmlns="http://www.w3.org/2000/svg">
<mask id="path-1-inside-1_1274_71573" fill="white">
<path d="M108.386 35.9668L105.999 42.4453L115.013 47.6494L116.132 35.7744L156.996 31.9258L153.426 69.8271L169.303 78.9941L158.585 97.5566L167.836 99.1689L200.118 137.797L150.524 129.154L144.502 121.948L140.76 128.43L152.343 129.878L157.143 168.264L118.757 163.465L118.29 159.731L104.292 151.65L106 157.521L70.6709 175.504L66.8076 162.221L13.6162 186.896L34.6855 141.475L5.91309 131.369L44.0039 116.842L38.9473 113.923L41.2725 109.894L38.7832 108.902L0 105.432L36.4893 79.7725L37.6455 71.835L33.6074 68.4609L24.9648 18.8672L63.5928 51.1494L65.6289 62.8379L67.915 63.748L74.8037 51.8164L68.5791 46.6338L80.9268 13.1045L108.386 35.9668Z"/>
</mask>
<path d="M108.386 35.9668L105.999 42.4453L115.013 47.6494L116.132 35.7744L156.996 31.9258L153.426 69.8271L169.303 78.9941L158.585 97.5566L167.836 99.1689L200.118 137.797L150.524 129.154L144.502 121.948L140.76 128.43L152.343 129.878L157.143 168.264L118.757 163.465L118.29 159.731L104.292 151.65L106 157.521L70.6709 175.504L66.8076 162.221L13.6162 186.896L34.6855 141.475L5.91309 131.369L44.0039 116.842L38.9473 113.923L41.2725 109.894L38.7832 108.902L0 105.432L36.4893 79.7725L37.6455 71.835L33.6074 68.4609L24.9648 18.8672L63.5928 51.1494L65.6289 62.8379L67.915 63.748L74.8037 51.8164L68.5791 46.6338L80.9268 13.1045L108.386 35.9668Z" fill="#632727"/>
<path d="M108.386 35.9668L113.684 37.9189L115.063 34.178L111.999 31.6272L108.386 35.9668ZM105.999 42.4453L100.7 40.4932L99.0558 44.9571L103.176 47.3356L105.999 42.4453ZM115.013 47.6494L112.189 52.5397L119.809 56.9391L120.635 48.1792L115.013 47.6494ZM116.132 35.7744L115.602 30.1524L110.948 30.5907L110.51 35.2446L116.132 35.7744ZM156.996 31.9258L162.618 32.4554L163.258 25.6642L156.467 26.3038L156.996 31.9258ZM153.426 69.8271L147.804 69.2976L147.464 72.9054L150.602 74.7174L153.426 69.8271ZM169.303 78.9941L174.193 81.8177L177.017 76.9274L172.126 74.1038L169.303 78.9941ZM158.585 97.5566L153.695 94.7331L149.654 101.732L157.615 103.12L158.585 97.5566ZM167.836 99.1689L172.169 95.5478L170.843 93.961L168.805 93.6059L167.836 99.1689ZM200.118 137.797L199.149 143.36L214.339 146.007L204.451 134.176L200.118 137.797ZM150.524 129.154L146.192 132.776L147.518 134.362L149.555 134.717L150.524 129.154ZM144.502 121.948L148.835 118.327L143.652 112.126L139.612 119.125L144.502 121.948ZM140.76 128.43L135.869 125.606L131.614 132.977L140.059 134.033L140.76 128.43ZM152.343 129.878L157.946 129.177L157.401 124.82L153.043 124.275L152.343 129.878ZM157.143 168.264L156.442 173.867L163.647 174.768L162.746 167.563L157.143 168.264ZM118.757 163.465L113.154 164.165L113.698 168.523L118.056 169.068L118.757 163.465ZM118.29 159.731L123.893 159.031L123.545 156.245L121.113 154.841L118.29 159.731ZM104.292 151.65L107.115 146.76L94.9442 139.734L98.8699 153.228L104.292 151.65ZM106 157.521L108.562 162.554L112.728 160.433L111.422 155.944L106 157.521ZM70.6709 175.504L65.2487 177.081L67.1536 183.631L73.2324 180.536L70.6709 175.504ZM66.8076 162.221L72.2298 160.644L70.3941 154.332L64.4313 157.098L66.8076 162.221ZM13.6162 186.896L8.4936 184.52L2.00541 198.508L15.9926 192.019L13.6162 186.896ZM34.6855 141.475L39.8082 143.851L42.4256 138.208L36.5568 136.147L34.6855 141.475ZM5.91309 131.369L3.90082 126.093L-10.5059 131.588L4.04184 136.697L5.91309 131.369ZM44.0039 116.842L46.0162 122.118L57.1098 117.887L46.827 111.951L44.0039 116.842ZM38.9473 113.923L34.0563 111.1L31.2343 115.991L36.1242 118.813L38.9473 113.923ZM41.2725 109.894L46.1634 112.716L49.4261 107.062L43.3615 104.647L41.2725 109.894ZM38.7832 108.902L40.8722 103.656L40.107 103.351L39.2865 103.278L38.7832 108.902ZM0 105.432L-3.24819 100.812L-15.8609 109.682L-0.503328 111.056L0 105.432ZM36.4893 79.7725L39.7374 84.3916L41.7266 82.9928L42.0772 80.5864L36.4893 79.7725ZM37.6455 71.835L43.2334 72.6489L43.6884 69.5255L41.2662 67.5016L37.6455 71.835ZM33.6074 68.4609L28.0444 69.4304L28.3995 71.4681L29.9867 72.7943L33.6074 68.4609ZM24.9648 18.8672L28.586 14.5342L16.7546 4.64649L19.4018 19.8366L24.9648 18.8672ZM63.5928 51.1494L69.1559 50.1803L68.8009 48.1427L67.2139 46.8164L63.5928 51.1494ZM65.6289 62.8379L60.0658 63.807L60.6075 66.9167L63.5402 68.0843L65.6289 62.8379ZM67.915 63.748L65.8263 68.9944L70.3636 70.8008L72.8054 66.5715L67.915 63.748ZM74.8037 51.8164L79.6941 54.6398L82.0724 50.5204L78.4169 47.4768L74.8037 51.8164ZM68.5791 46.6338L63.2801 44.6824L61.9026 48.4229L64.9659 50.9734L68.5791 46.6338ZM80.9268 13.1045L84.5399 8.76486L78.3922 3.64631L75.6278 11.1531L80.9268 13.1045ZM108.386 35.9668L103.087 34.0147L100.7 40.4932L105.999 42.4453L111.298 44.3974L113.684 37.9189L108.386 35.9668ZM105.999 42.4453L103.176 47.3356L112.189 52.5397L115.013 47.6494L117.836 42.7591L108.822 37.555L105.999 42.4453ZM115.013 47.6494L120.635 48.1792L121.754 36.3042L116.132 35.7744L110.51 35.2446L109.391 47.1196L115.013 47.6494ZM116.132 35.7744L116.661 41.3964L157.526 37.5478L156.996 31.9258L156.467 26.3038L115.602 30.1524L116.132 35.7744ZM156.996 31.9258L151.374 31.3962L147.804 69.2976L153.426 69.8271L159.048 70.3567L162.618 32.4554L156.996 31.9258ZM153.426 69.8271L150.602 74.7174L166.479 83.8844L169.303 78.9941L172.126 74.1038L156.249 64.9369L153.426 69.8271ZM169.303 78.9941L164.412 76.1706L153.695 94.7331L158.585 97.5566L163.475 100.38L174.193 81.8177L169.303 78.9941ZM158.585 97.5566L157.615 103.12L166.866 104.732L167.836 99.1689L168.805 93.6059L159.555 91.9936L158.585 97.5566ZM167.836 99.1689L163.503 102.79L195.785 141.418L200.118 137.797L204.451 134.176L172.169 95.5478L167.836 99.1689ZM200.118 137.797L201.088 132.234L151.494 123.591L150.524 129.154L149.555 134.717L199.149 143.36L200.118 137.797ZM150.524 129.154L154.857 125.533L148.835 118.327L144.502 121.948L140.169 125.569L146.192 132.776L150.524 129.154ZM144.502 121.948L139.612 119.125L135.869 125.606L140.76 128.43L145.65 131.253L149.392 124.772L144.502 121.948ZM140.76 128.43L140.059 134.033L151.642 135.481L152.343 129.878L153.043 124.275L141.46 122.826L140.76 128.43ZM152.343 129.878L146.74 130.579L151.539 168.964L157.143 168.264L162.746 167.563L157.946 129.177L152.343 129.878ZM157.143 168.264L157.843 162.66L119.457 157.862L118.757 163.465L118.056 169.068L156.442 173.867L157.143 168.264ZM118.757 163.465L124.36 162.764L123.893 159.031L118.29 159.731L112.687 160.432L113.154 164.165L118.757 163.465ZM118.29 159.731L121.113 154.841L107.115 146.76L104.292 151.65L101.469 156.541L115.467 164.622L118.29 159.731ZM104.292 151.65L98.8699 153.228L100.578 159.099L106 157.521L111.422 155.944L109.714 150.073L104.292 151.65ZM106 157.521L103.438 152.489L68.1094 170.471L70.6709 175.504L73.2324 180.536L108.562 162.554L106 157.521ZM70.6709 175.504L76.0931 173.927L72.2298 160.644L66.8076 162.221L61.3854 163.798L65.2487 177.081L70.6709 175.504ZM66.8076 162.221L64.4313 157.098L11.2398 181.774L13.6162 186.896L15.9926 192.019L69.184 167.343L66.8076 162.221ZM13.6162 186.896L18.7388 189.273L39.8082 143.851L34.6855 141.475L29.5629 139.098L8.4936 184.52L13.6162 186.896ZM34.6855 141.475L36.5568 136.147L7.78433 126.041L5.91309 131.369L4.04184 136.697L32.8143 146.802L34.6855 141.475ZM5.91309 131.369L7.92535 136.645L46.0162 122.118L44.0039 116.842L41.9916 111.566L3.90082 126.093L5.91309 131.369ZM44.0039 116.842L46.827 111.951L41.7703 109.032L38.9473 113.923L36.1242 118.813L41.1808 121.732L44.0039 116.842ZM38.9473 113.923L43.8382 116.745L46.1634 112.716L41.2725 109.894L36.3815 107.071L34.0563 111.1L38.9473 113.923ZM41.2725 109.894L43.3615 104.647L40.8722 103.656L38.7832 108.902L36.6942 114.149L39.1834 115.14L41.2725 109.894ZM38.7832 108.902L39.2865 103.278L0.503328 99.8072L0 105.432L-0.503328 111.056L38.2799 114.527L38.7832 108.902ZM0 105.432L3.24819 110.051L39.7374 84.3916L36.4893 79.7725L33.2411 75.1533L-3.24819 100.812L0 105.432ZM36.4893 79.7725L42.0772 80.5864L43.2334 72.6489L37.6455 71.835L32.0576 71.021L30.9013 78.9585L36.4893 79.7725ZM37.6455 71.835L41.2662 67.5016L37.2281 64.1276L33.6074 68.4609L29.9867 72.7943L34.0248 76.1683L37.6455 71.835ZM33.6074 68.4609L39.1705 67.4915L30.5279 17.8977L24.9648 18.8672L19.4018 19.8366L28.0444 69.4304L33.6074 68.4609ZM24.9648 18.8672L21.3437 23.2002L59.9716 55.4824L63.5928 51.1494L67.2139 46.8164L28.586 14.5342L24.9648 18.8672ZM63.5928 51.1494L58.0297 52.1185L60.0658 63.807L65.6289 62.8379L71.192 61.8688L69.1559 50.1803L63.5928 51.1494ZM65.6289 62.8379L63.5402 68.0843L65.8263 68.9944L67.915 63.748L70.0037 58.5016L67.7176 57.5915L65.6289 62.8379ZM67.915 63.748L72.8054 66.5715L79.6941 54.6398L74.8037 51.8164L69.9134 48.993L63.0247 60.9246L67.915 63.748ZM74.8037 51.8164L78.4169 47.4768L72.1923 42.2942L68.5791 46.6338L64.9659 50.9734L71.1905 56.156L74.8037 51.8164ZM68.5791 46.6338L73.8781 48.5852L86.2257 15.0559L80.9268 13.1045L75.6278 11.1531L63.2801 44.6824L68.5791 46.6338ZM80.9268 13.1045L77.3136 17.4441L104.773 40.3064L108.386 35.9668L111.999 31.6272L84.5399 8.76486L80.9268 13.1045Z" fill="#471E1E" mask="url(#path-1-inside-1_1274_71573)"/>
<path d="M176.213 123.995L155.8 120.017L142.148 104.328L162.561 108.306L176.213 123.995Z" fill="#7D3131"/>
<path d="M97.5695 48.2697L145.251 82.7153L110.805 130.397L63.1239 95.9513L97.5695 48.2697Z" fill="#7D3131"/>
<path d="M84.8157 109.489L57.2368 99.4686L47.2159 71.8897L74.7948 81.9105L84.8157 109.489Z" fill="#7D3131"/>
<path d="M74.6501 124.97L64.6293 152.549L37.0503 162.57L47.0712 134.991L74.6501 124.97Z" fill="#7D3131"/>
<path d="M91.6096 130.865L65.0225 143.28L38.4355 130.865L65.0225 118.449L91.6096 130.865Z" fill="#7D3131"/>
<path d="M64.8465 88.0432L50.3364 100.498L31.5428 96.9669L46.053 84.5121L64.8465 88.0432Z" fill="#7D3131"/>
<path d="M63.7169 88.0432L49.2067 100.498L30.4132 96.9669L44.9233 84.5121L63.7169 88.0432Z" fill="#7D3131"/>
<path d="M91.472 51.6519L80.1566 41.3939L84.8269 26.8524L96.1423 37.1105L91.472 51.6519Z" fill="#7D3131"/>
<path d="M51.9483 68.881L40.5456 57.6758L38.8527 41.7789L50.2554 52.9841L51.9483 68.881Z" fill="#7D3131"/>
<path d="M123.799 66.197L124.679 44.7105L146.166 43.83L145.285 65.3165L123.799 66.197Z" fill="#7D3131"/>
<path d="M97.1638 126.244L112.98 111.673L128.796 126.244L112.98 140.814L97.1638 126.244Z" fill="#7D3131"/>
<path d="M123.649 89.2814L141.217 82.5998L144.214 101.155L126.646 107.837L123.649 89.2814Z" fill="#7D3131"/>
<path d="M144.415 138.365L146.237 156.229L128.373 154.407L126.551 136.543L144.415 138.365Z" fill="#7D3131"/>
<path d="M106.144 63.4357L128.829 91.2895L100.975 113.974L78.2902 86.1203L106.144 63.4357Z" fill="#B24646"/>
<path d="M106.679 58.2079L117.713 90.1526L100.44 119.202L89.4066 87.2574L106.679 58.2079Z" fill="#B24646"/>
<path d="M46.3413 130.873L64.976 124.096L83.6108 130.873L64.976 137.649L46.3413 130.873Z" fill="#B24646"/>
<path d="M131.044 139.908L141.164 140.992L142.248 151.112L132.129 150.027L131.044 139.908Z" fill="#B24646"/>
<path d="M86.2016 31.6572L93.1013 38.0102L90.3025 46.9619L83.4027 40.6089L86.2016 31.6572Z" fill="#B24646"/>
<path d="M44.7647 153.943L51.8881 138.679L67.1526 131.555L60.0291 146.82L44.7647 153.943Z" fill="#B24646"/>
</svg>
