<svg width="251" height="250" viewBox="0 0 251 250" fill="none" xmlns="http://www.w3.org/2000/svg">
<mask id="path-1-inside-1_1274_71791" fill="white">
<path d="M128.339 48.2563L126.12 51.4097L133.474 56.9614L152.787 30.77L159.824 52.7231L193.026 37.2915L175.811 74.3257L205.078 69.2261L183.659 94.854L193.798 102.509L181.345 119.001L209.795 123.96L250.147 172.246L188.155 161.442L167.742 137.016L162.531 143.917L181.484 161.228L190.429 162.347L195.76 204.993L203.536 240.329L166.612 206.601L148.445 204.331L145.56 181.254L141.893 185.437L143.339 201.589L119.081 236.085L115.322 194.083L122.739 183.533L104.906 192.612L100.704 178.166L90.873 199.361L17.0195 233.62L43.3564 176.843L7.3916 164.211L64.4023 142.469L48.4795 136.127L0 131.789L45.6123 99.7153L47.0566 89.7954L42.0088 85.5767L31.2051 23.5845L79.4902 63.936L82.0361 78.5483L93.8916 83.269L97.2227 78.8589L85.3506 66.0249L94.4668 25.8062L103.763 35.855L124.579 6.25342L128.339 48.2563Z"/>
</mask>
<path d="M128.339 48.2563L126.12 51.4097L133.474 56.9614L152.787 30.77L159.824 52.7231L193.026 37.2915L175.811 74.3257L205.078 69.2261L183.659 94.854L193.798 102.509L181.345 119.001L209.795 123.96L250.147 172.246L188.155 161.442L167.742 137.016L162.531 143.917L181.484 161.228L190.429 162.347L195.76 204.993L203.536 240.329L166.612 206.601L148.445 204.331L145.56 181.254L141.893 185.437L143.339 201.589L119.081 236.085L115.322 194.083L122.739 183.533L104.906 192.612L100.704 178.166L90.873 199.361L17.0195 233.62L43.3564 176.843L7.3916 164.211L64.4023 142.469L48.4795 136.127L0 131.789L45.6123 99.7153L47.0566 89.7954L42.0088 85.5767L31.2051 23.5845L79.4902 63.936L82.0361 78.5483L93.8916 83.269L97.2227 78.8589L85.3506 66.0249L94.4668 25.8062L103.763 35.855L124.579 6.25342L128.339 48.2563Z" fill="#632727"/>
<path d="M128.339 48.2563L133.246 51.709L134.511 49.9111L134.315 47.7214L128.339 48.2563ZM126.12 51.4097L121.213 47.957L117.874 52.7022L122.505 56.1982L126.12 51.4097ZM133.474 56.9614L129.858 61.75L134.701 65.4063L138.303 60.5224L133.474 56.9614ZM152.787 30.77L158.501 28.9385L154.92 17.7679L147.958 27.2091L152.787 30.77ZM159.824 52.7231L154.111 54.5547L156.186 61.0303L162.353 58.1642L159.824 52.7231ZM193.026 37.2915L198.467 39.8208L205.39 24.9288L190.497 31.8505L193.026 37.2915ZM175.811 74.3257L170.37 71.7964L165.53 82.2074L176.84 80.2366L175.811 74.3257ZM205.078 69.2261L209.682 73.0738L220.188 60.5029L204.048 63.3151L205.078 69.2261ZM183.659 94.854L179.055 91.0063L175.013 95.8436L180.044 99.6424L183.659 94.854ZM193.798 102.509L198.586 106.125L202.202 101.336L197.413 97.7209L193.798 102.509ZM181.345 119.001L176.556 115.386L170.637 123.225L180.314 124.912L181.345 119.001ZM209.795 123.96L214.399 120.113L212.99 118.427L210.825 118.05L209.795 123.96ZM250.147 172.246L249.117 178.157L265.257 180.969L254.751 168.398L250.147 172.246ZM188.155 161.442L183.551 165.289L184.96 166.976L187.125 167.353L188.155 161.442ZM167.742 137.016L172.346 133.169L167.504 127.375L162.954 133.4L167.742 137.016ZM162.531 143.917L157.743 140.301L154.45 144.661L158.485 148.347L162.531 143.917ZM181.484 161.228L177.438 165.658L178.846 166.945L180.739 167.182L181.484 161.228ZM190.429 162.347L196.382 161.603L195.804 156.973L191.174 156.394L190.429 162.347ZM195.76 204.993L189.806 205.737L189.84 206.012L189.9 206.282L195.76 204.993ZM203.536 240.329L199.49 244.759L213.464 257.523L209.396 239.039L203.536 240.329ZM166.612 206.601L170.659 202.171L169.25 200.884L167.356 200.647L166.612 206.601ZM148.445 204.331L142.492 205.075L143.071 209.706L147.701 210.284L148.445 204.331ZM145.56 181.254L151.513 180.51L149.855 167.253L141.048 177.299L145.56 181.254ZM141.893 185.437L137.381 181.482L135.687 183.413L135.916 185.972L141.893 185.437ZM143.339 201.589L148.247 205.041L149.511 203.243L149.315 201.054L143.339 201.589ZM119.081 236.085L113.105 236.62L114.565 252.938L123.989 239.537L119.081 236.085ZM115.322 194.083L110.414 190.632L109.15 192.429L109.346 194.617L115.322 194.083ZM122.739 183.533L127.648 186.984L120.017 178.186L122.739 183.533ZM104.906 192.612L99.145 194.288L101.169 201.247L107.628 197.959L104.906 192.612ZM100.704 178.166L106.465 176.49L101.995 161.122L95.2611 175.641L100.704 178.166ZM90.873 199.361L93.3979 204.804L95.3914 203.879L96.316 201.885L90.873 199.361ZM17.0195 233.62L11.5766 231.095L4.68272 245.956L19.5444 239.063L17.0195 233.62ZM43.3564 176.843L48.7994 179.368L51.5805 173.372L45.3447 171.182L43.3564 176.843ZM7.3916 164.211L5.25359 158.605L-10.0543 164.443L5.40331 169.872L7.3916 164.211ZM64.4023 142.469L66.5404 148.075L80.9224 142.591L66.6224 136.895L64.4023 142.469ZM48.4795 136.127L50.6996 130.553L49.8863 130.229L49.0143 130.151L48.4795 136.127ZM0 131.789L-3.45121 126.881L-16.853 136.304L-0.534856 137.765L0 131.789ZM45.6123 99.7153L49.0635 104.623L51.1774 103.137L51.5497 100.58L45.6123 99.7153ZM47.0566 89.7954L52.994 90.6599L53.4771 87.3418L50.9043 85.1916L47.0566 89.7954ZM42.0088 85.5767L36.0979 86.6068L36.4751 88.7714L38.1611 90.1805L42.0088 85.5767ZM31.2051 23.5845L35.0526 18.9805L22.4814 8.47484L25.2942 24.6146L31.2051 23.5845ZM79.4902 63.936L85.4012 62.9062L85.024 60.7412L83.3377 59.3321L79.4902 63.936ZM82.0361 78.5483L76.1252 79.5782L76.7008 82.882L79.8165 84.1227L82.0361 78.5483ZM93.8916 83.269L91.672 88.8434L95.9221 90.5357L98.6794 86.8853L93.8916 83.269ZM97.2227 78.8589L102.01 82.4752L105.036 78.4695L101.627 74.7845L97.2227 78.8589ZM85.3506 66.0249L79.499 64.6986L78.8006 67.7799L80.9461 70.0993L85.3506 66.0249ZM94.4668 25.8062L98.8712 21.7317L91.1339 13.3678L88.6152 24.4798L94.4668 25.8062ZM103.763 35.855L99.3583 39.9294L104.4 45.3794L108.671 39.3064L103.763 35.855ZM124.579 6.25342L130.555 5.71848L129.095 -10.5985L119.671 2.80205L124.579 6.25342ZM128.339 48.2563L123.432 44.8036L121.213 47.957L126.12 51.4097L131.027 54.8624L133.246 51.709L128.339 48.2563ZM126.12 51.4097L122.505 56.1982L129.858 61.75L133.474 56.9614L137.089 52.1729L129.735 46.6211L126.12 51.4097ZM133.474 56.9614L138.303 60.5224L157.616 34.331L152.787 30.77L147.958 27.2091L128.645 53.4005L133.474 56.9614ZM152.787 30.77L147.073 32.6015L154.111 54.5547L159.824 52.7231L165.538 50.8916L158.501 28.9385L152.787 30.77ZM159.824 52.7231L162.353 58.1642L195.555 42.7325L193.026 37.2915L190.497 31.8505L157.295 47.2821L159.824 52.7231ZM193.026 37.2915L187.586 34.7623L170.37 71.7964L175.811 74.3257L181.251 76.8549L198.467 39.8208L193.026 37.2915ZM175.811 74.3257L176.84 80.2366L206.108 75.137L205.078 69.2261L204.048 63.3151L174.781 68.4147L175.811 74.3257ZM205.078 69.2261L200.474 65.3784L179.055 91.0063L183.659 94.854L188.263 98.7017L209.682 73.0738L205.078 69.2261ZM183.659 94.854L180.044 99.6424L190.182 107.298L193.798 102.509L197.413 97.7209L187.275 90.0657L183.659 94.854ZM193.798 102.509L189.01 98.8937L176.556 115.386L181.345 119.001L186.133 122.617L198.586 106.125L193.798 102.509ZM181.345 119.001L180.314 124.912L208.765 129.871L209.795 123.96L210.825 118.05L182.375 113.091L181.345 119.001ZM209.795 123.96L205.191 127.808L245.544 176.093L250.147 172.246L254.751 168.398L214.399 120.113L209.795 123.96ZM250.147 172.246L251.178 166.335L189.185 155.531L188.155 161.442L187.125 167.353L249.117 178.157L250.147 172.246ZM188.155 161.442L192.759 157.594L172.346 133.169L167.742 137.016L163.138 140.864L183.551 165.289L188.155 161.442ZM167.742 137.016L162.954 133.4L157.743 140.301L162.531 143.917L167.319 147.532L172.53 140.632L167.742 137.016ZM162.531 143.917L158.485 148.347L177.438 165.658L181.484 161.228L185.531 156.798L166.578 139.486L162.531 143.917ZM181.484 161.228L180.739 167.182L189.684 168.301L190.429 162.347L191.174 156.394L182.229 155.274L181.484 161.228ZM190.429 162.347L184.475 163.091L189.806 205.737L195.76 204.993L201.713 204.248L196.382 161.603L190.429 162.347ZM195.76 204.993L189.9 206.282L197.676 241.618L203.536 240.329L209.396 239.039L201.62 203.703L195.76 204.993ZM203.536 240.329L207.583 235.899L170.659 202.171L166.612 206.601L162.566 211.031L199.49 244.759L203.536 240.329ZM166.612 206.601L167.356 200.647L149.189 198.377L148.445 204.331L147.701 210.284L165.868 212.555L166.612 206.601ZM148.445 204.331L154.399 203.586L151.513 180.51L145.56 181.254L139.606 181.999L142.492 205.075L148.445 204.331ZM145.56 181.254L141.048 177.299L137.381 181.482L141.893 185.437L146.404 189.392L150.071 185.21L145.56 181.254ZM141.893 185.437L135.916 185.972L137.363 202.124L143.339 201.589L149.315 201.054L147.869 184.902L141.893 185.437ZM143.339 201.589L138.431 198.138L114.173 232.634L119.081 236.085L123.989 239.537L148.247 205.041L143.339 201.589ZM119.081 236.085L125.057 235.551L121.298 193.548L115.322 194.083L109.346 194.617L113.105 236.62L119.081 236.085ZM115.322 194.083L120.231 197.533L127.648 186.984L122.739 183.533L117.831 180.082L110.414 190.632L115.322 194.083ZM122.739 183.533L120.017 178.186L102.184 187.265L104.906 192.612L107.628 197.959L125.461 188.88L122.739 183.533ZM104.906 192.612L110.667 190.936L106.465 176.49L100.704 178.166L94.9429 179.841L99.145 194.288L104.906 192.612ZM100.704 178.166L95.2611 175.641L85.43 196.836L90.873 199.361L96.316 201.885L106.147 180.69L100.704 178.166ZM90.873 199.361L88.3482 193.918L14.4947 228.177L17.0195 233.62L19.5444 239.063L93.3979 204.804L90.873 199.361ZM17.0195 233.62L22.4624 236.144L48.7994 179.368L43.3564 176.843L37.9135 174.318L11.5766 231.095L17.0195 233.62ZM43.3564 176.843L45.3447 171.182L9.37989 158.55L7.3916 164.211L5.40331 169.872L41.3682 182.504L43.3564 176.843ZM7.3916 164.211L9.52962 169.818L66.5404 148.075L64.4023 142.469L62.2643 136.863L5.25359 158.605L7.3916 164.211ZM64.4023 142.469L66.6224 136.895L50.6996 130.553L48.4795 136.127L46.2594 141.702L62.1823 148.043L64.4023 142.469ZM48.4795 136.127L49.0143 130.151L0.534856 125.812L0 131.789L-0.534856 137.765L47.9446 142.104L48.4795 136.127ZM0 131.789L3.45121 136.697L49.0635 104.623L45.6123 99.7153L42.1611 94.8073L-3.45121 126.881L0 131.789ZM45.6123 99.7153L51.5497 100.58L52.994 90.6599L47.0566 89.7954L41.1192 88.9309L39.6749 98.8509L45.6123 99.7153ZM47.0566 89.7954L50.9043 85.1916L45.8565 80.9728L42.0088 85.5767L38.1611 90.1805L43.209 94.3993L47.0566 89.7954ZM42.0088 85.5767L47.9197 84.5465L37.116 22.5543L31.2051 23.5845L25.2942 24.6146L36.0979 86.6068L42.0088 85.5767ZM31.2051 23.5845L27.3576 28.1885L75.6427 68.54L79.4902 63.936L83.3377 59.3321L35.0526 18.9805L31.2051 23.5845ZM79.4902 63.936L73.5793 64.9659L76.1252 79.5782L82.0361 78.5483L87.9471 77.5185L85.4012 62.9062L79.4902 63.936ZM82.0361 78.5483L79.8165 84.1227L91.672 88.8434L93.8916 83.269L96.1112 77.6947L84.2558 72.974L82.0361 78.5483ZM93.8916 83.269L98.6794 86.8853L102.01 82.4752L97.2227 78.8589L92.4349 75.2426L89.1038 79.6528L93.8916 83.269ZM97.2227 78.8589L101.627 74.7845L89.7551 61.9505L85.3506 66.0249L80.9461 70.0993L92.8182 82.9333L97.2227 78.8589ZM85.3506 66.0249L91.2021 67.3512L100.318 27.1325L94.4668 25.8062L88.6152 24.4798L79.499 64.6986L85.3506 66.0249ZM94.4668 25.8062L90.0624 29.8806L99.3583 39.9294L103.763 35.855L108.167 31.7806L98.8712 21.7317L94.4668 25.8062ZM103.763 35.855L108.671 39.3064L129.487 9.70479L124.579 6.25342L119.671 2.80205L98.8547 32.4036L103.763 35.855ZM124.579 6.25342L118.603 6.78835L122.363 48.7913L128.339 48.2563L134.315 47.7214L130.555 5.71848L124.579 6.25342Z" fill="#471E1E" mask="url(#path-1-inside-1_1274_71791)"/>
<path d="M119.904 69.5908L170.992 106.497L134.085 157.585L82.9973 120.679L119.904 69.5908Z" fill="#7D3131"/>
<path d="M133.421 122.471L151.728 154.18L120.019 172.488L101.712 140.779L133.421 122.471Z" fill="#7D3131"/>
<path d="M106.02 136.861L71.5459 124.335L59.0199 89.8617L93.4935 102.388L106.02 136.861Z" fill="#7D3131"/>
<path d="M93.3127 156.213L80.7866 190.687L46.3129 203.213L58.839 168.739L93.3127 156.213Z" fill="#7D3131"/>
<path d="M114.512 163.581L81.2786 179.1L48.0447 163.581L81.2786 148.062L114.512 163.581Z" fill="#7D3131"/>
<path d="M81.0585 110.054L62.9208 125.623L39.4288 121.209L57.5665 105.64L81.0585 110.054Z" fill="#7D3131"/>
<path d="M79.6461 110.054L61.5084 125.623L38.0165 121.209L56.1542 105.64L79.6461 110.054Z" fill="#7D3131"/>
<path d="M119.162 78.0844L99.9728 68.2252L101.029 46.6775L120.218 56.5367L119.162 78.0844Z" fill="#7D3131"/>
<path d="M64.9353 86.1013L50.6819 72.0948L48.5657 52.2236L62.8191 66.2301L64.9353 86.1013Z" fill="#7D3131"/>
<path d="M139.956 89.5087L148.219 69.8128L167.915 61.5498L159.652 81.2457L139.956 89.5087Z" fill="#7D3131"/>
<path d="M132.78 119.852L128.112 83.112L150.525 53.6277L155.193 90.3681L132.78 119.852Z" fill="#7D3131"/>
<path d="M109.895 113.414L137.261 88.4589L174.272 89.8286L146.906 114.784L109.895 113.414Z" fill="#7D3131"/>
<path d="M204.414 133.884L220.652 154.629L194.568 150.938L178.33 130.194L204.414 133.884Z" fill="#7D3131"/>
<path d="M180.518 172.956L182.796 195.286L160.466 193.009L158.189 170.679L180.518 172.956Z" fill="#7D3131"/>
<path d="M127.562 81.3811L158.327 119.156L120.552 149.92L89.7876 112.146L127.562 81.3811Z" fill="#B24646"/>
<path d="M128.176 109.551L137.389 137.022L122.805 162.06L113.592 134.588L128.176 109.551Z" fill="#B24646"/>
<path d="M109.398 126.402L86.0664 124.106L72.4122 105.048L95.7441 107.344L109.398 126.402Z" fill="#B24646"/>
<path d="M161.242 108.091L143.56 113.814L127.601 104.29L145.283 98.5673L161.242 108.091Z" fill="#B24646"/>
<path d="M57.9268 163.591L81.2202 155.12L104.514 163.591L81.2202 172.061L57.9268 163.591Z" fill="#B24646"/>
<path d="M163.805 174.885L176.455 176.24L177.81 188.89L165.161 187.534L163.805 174.885Z" fill="#B24646"/>
<path d="M104.661 52.7307L116.398 58.8763L115.852 72.1132L104.115 65.9676L104.661 52.7307Z" fill="#B24646"/>
<path d="M55.9563 192.429L64.8606 173.348L83.9411 164.444L75.0369 183.525L55.9563 192.429Z" fill="#B24646"/>
</svg>
