<svg width="151" height="150" viewBox="0 0 151 150" fill="none" xmlns="http://www.w3.org/2000/svg">
<mask id="path-1-inside-1_1274_71743" fill="white">
<path d="M81.2449 26.9751L79.4539 31.8345L95.3835 41.0317L99.5359 29.856L129.886 35.0005L121.947 56.3687L126.932 59.2466L124.093 64.1646L150.906 73.9839L117.153 86.3452L119.983 108.984L99.6814 106.445L99.3562 107.007L102 113L86.9998 147L71.9998 113L72.9929 110.747L72.1287 110.248L58.283 123.054L58.1277 102.164L56.24 101.074L51.7566 106.439L16.2048 112.634L35.7517 89.2446L29.1658 85.4429L30.7068 82.772L12.9998 69.0005L31.1863 54.854L26.2439 26.4917L51.1726 47.3247L56.0583 38.8618L51.3894 34.9741L60.6511 9.82764L81.2449 26.9751Z"/>
</mask>
<path d="M81.2449 26.9751L79.4539 31.8345L95.3835 41.0317L99.5359 29.856L129.886 35.0005L121.947 56.3687L126.932 59.2466L124.093 64.1646L150.906 73.9839L117.153 86.3452L119.983 108.984L99.6814 106.445L99.3562 107.007L102 113L86.9998 147L71.9998 113L72.9929 110.747L72.1287 110.248L58.283 123.054L58.1277 102.164L56.24 101.074L51.7566 106.439L16.2048 112.634L35.7517 89.2446L29.1658 85.4429L30.7068 82.772L12.9998 69.0005L31.1863 54.854L26.2439 26.4917L51.1726 47.3247L56.0583 38.8618L51.3894 34.9741L60.6511 9.82764L81.2449 26.9751Z" fill="#632727"/>
<path d="M81.2449 26.9751L85.9364 28.7042L87.1573 25.3917L84.4443 23.1327L81.2449 26.9751ZM79.4539 31.8345L74.7624 30.1053L73.3055 34.0581L76.9538 36.1646L79.4539 31.8345ZM95.3835 41.0317L92.8835 45.3618L98.0091 48.3212L100.07 42.7732L95.3835 41.0317ZM99.5359 29.856L100.371 24.9263L96.2906 24.2345L94.8489 28.1145L99.5359 29.856ZM129.886 35.0005L134.573 36.7419L136.677 31.0802L130.722 30.0708L129.886 35.0005ZM121.947 56.3687L117.26 54.6272L115.789 58.587L119.447 60.6989L121.947 56.3687ZM126.932 59.2466L131.262 61.7469L133.763 57.4164L129.432 54.9163L126.932 59.2466ZM124.093 64.1646L119.763 61.6643L116.789 66.8145L122.373 68.8596L124.093 64.1646ZM150.906 73.9839L152.625 78.6789L165.446 73.9838L152.625 69.2888L150.906 73.9839ZM117.153 86.3452L115.434 81.6502L111.698 83.0182L112.192 86.9654L117.153 86.3452ZM119.983 108.984L119.363 113.945L125.742 114.743L124.945 108.364L119.983 108.984ZM99.6814 106.445L100.302 101.483L97.0121 101.072L95.3527 103.942L99.6814 106.445ZM99.3562 107.007L95.0275 104.505L93.7569 106.703L94.7816 109.025L99.3562 107.007ZM102 113L106.574 115.018L107.465 113L106.574 110.981L102 113ZM86.9998 147L82.4252 149.018L86.9998 159.387L91.5743 149.018L86.9998 147ZM71.9998 113L67.4246 110.983L66.5351 113L67.4252 115.018L71.9998 113ZM72.9929 110.747L77.5681 112.763L79.3773 108.659L75.4931 106.417L72.9929 110.747ZM72.1287 110.248L74.6288 105.918L71.4382 104.075L68.7335 106.577L72.1287 110.248ZM58.283 123.054L53.2831 123.091L53.3672 134.412L61.6781 126.725L58.283 123.054ZM58.1277 102.164L63.1275 102.126L63.1063 99.2644L60.6277 97.8334L58.1277 102.164ZM56.24 101.074L58.74 96.7436L55.0991 94.6415L52.4032 97.8676L56.24 101.074ZM51.7566 106.439L52.615 111.365L54.4191 111.05L55.5933 109.645L51.7566 106.439ZM16.2048 112.634L12.3682 109.428L3.61349 119.904L17.0632 117.56L16.2048 112.634ZM35.7517 89.2446L39.5883 92.4509L43.402 87.8875L38.2514 84.9143L35.7517 89.2446ZM29.1658 85.4429L24.8349 82.9441L22.3367 87.274L26.6661 89.7732L29.1658 85.4429ZM30.7068 82.772L35.0376 85.2707L37.214 81.4987L33.7764 78.8251L30.7068 82.772ZM12.9998 69.0005L9.92986 65.0539L4.85578 69.0008L9.93014 72.9473L12.9998 69.0005ZM31.1863 54.854L34.2562 58.8006L36.6279 56.9558L36.1121 53.9956L31.1863 54.854ZM26.2439 26.4917L29.4502 22.6551L18.9744 13.9004L21.3181 27.3501L26.2439 26.4917ZM51.1726 47.3247L47.9663 51.1613L52.5295 54.9748L55.5028 49.8246L51.1726 47.3247ZM56.0583 38.8618L60.3885 41.3617L62.4942 37.7143L59.2578 35.0195L56.0583 38.8618ZM51.3894 34.9741L46.6975 33.246L45.4777 36.558L48.19 38.8165L51.3894 34.9741ZM60.6511 9.82764L63.8505 5.98525L58.4073 1.45292L55.9592 8.09957L60.6511 9.82764ZM81.2449 26.9751L76.5534 25.246L74.7624 30.1053L79.4539 31.8345L84.1453 33.5636L85.9364 28.7042L81.2449 26.9751ZM79.4539 31.8345L76.9538 36.1646L92.8835 45.3618L95.3835 41.0317L97.8836 36.7016L81.9539 27.5044L79.4539 31.8345ZM95.3835 41.0317L100.07 42.7732L104.223 31.5974L99.5359 29.856L94.8489 28.1145L90.6966 39.2903L95.3835 41.0317ZM99.5359 29.856L98.7003 34.7856L129.051 39.9302L129.886 35.0005L130.722 30.0708L100.371 24.9263L99.5359 29.856ZM129.886 35.0005L125.2 33.259L117.26 54.6272L121.947 56.3687L126.634 58.1101L134.573 36.7419L129.886 35.0005ZM121.947 56.3687L119.447 60.6989L124.433 63.5768L126.932 59.2466L129.432 54.9163L124.447 52.0384L121.947 56.3687ZM126.932 59.2466L122.602 56.7463L119.763 61.6643L124.093 64.1646L128.422 66.6648L131.262 61.7469L126.932 59.2466ZM124.093 64.1646L122.373 68.8596L149.187 78.679L150.906 73.9839L152.625 69.2888L125.812 59.4695L124.093 64.1646ZM150.906 73.9839L149.187 69.2888L115.434 81.6502L117.153 86.3452L118.873 91.0403L152.625 78.6789L150.906 73.9839ZM117.153 86.3452L112.192 86.9654L115.022 109.604L119.983 108.984L124.945 108.364L122.114 85.725L117.153 86.3452ZM119.983 108.984L120.604 104.023L100.302 101.483L99.6814 106.445L99.0609 111.406L119.363 113.945L119.983 108.984ZM99.6814 106.445L95.3527 103.942L95.0275 104.505L99.3562 107.007L103.685 109.51L104.01 108.947L99.6814 106.445ZM99.3562 107.007L94.7816 109.025L97.4251 115.018L102 113L106.574 110.981L103.931 104.989L99.3562 107.007ZM102 113L97.4252 110.981L82.4252 144.981L86.9998 147L91.5743 149.018L106.574 115.018L102 113ZM86.9998 147L91.5743 144.981L76.5743 110.981L71.9998 113L67.4252 115.018L82.4252 149.018L86.9998 147ZM71.9998 113L76.5749 115.016L77.5681 112.763L72.9929 110.747L68.4178 108.73L67.4246 110.983L71.9998 113ZM72.9929 110.747L75.4931 106.417L74.6288 105.918L72.1287 110.248L69.6285 114.578L70.4928 115.077L72.9929 110.747ZM72.1287 110.248L68.7335 106.577L54.8878 119.384L58.283 123.054L61.6781 126.725L75.5238 113.918L72.1287 110.248ZM58.283 123.054L63.2828 123.017L63.1275 102.126L58.1277 102.164L53.1278 102.201L53.2831 123.091L58.283 123.054ZM58.1277 102.164L60.6277 97.8334L58.74 96.7436L56.24 101.074L53.74 105.404L55.6277 106.494L58.1277 102.164ZM56.24 101.074L52.4032 97.8676L47.9198 103.233L51.7566 106.439L55.5933 109.645L60.0767 104.28L56.24 101.074ZM51.7566 106.439L50.8982 101.513L15.3465 107.709L16.2048 112.634L17.0632 117.56L52.615 111.365L51.7566 106.439ZM16.2048 112.634L20.0415 115.841L39.5883 92.4509L35.7517 89.2446L31.9151 86.0383L12.3682 109.428L16.2048 112.634ZM35.7517 89.2446L38.2514 84.9143L31.6655 81.1126L29.1658 85.4429L26.6661 89.7732L33.252 93.5749L35.7517 89.2446ZM29.1658 85.4429L33.4966 87.9416L35.0376 85.2707L30.7068 82.772L26.3759 80.2732L24.8349 82.9441L29.1658 85.4429ZM30.7068 82.772L33.7764 78.8251L16.0694 65.0537L12.9998 69.0005L9.93014 72.9473L27.6372 86.7188L30.7068 82.772ZM12.9998 69.0005L16.0696 72.9471L34.2562 58.8006L31.1863 54.854L28.1164 50.9074L9.92986 65.0539L12.9998 69.0005ZM31.1863 54.854L36.1121 53.9956L31.1697 25.6333L26.2439 26.4917L21.3181 27.3501L26.2605 55.7124L31.1863 54.854ZM26.2439 26.4917L23.0376 30.3283L47.9663 51.1613L51.1726 47.3247L54.3789 43.4881L29.4502 22.6551L26.2439 26.4917ZM51.1726 47.3247L55.5028 49.8246L60.3885 41.3617L56.0583 38.8618L51.7282 36.3619L46.8424 44.8248L51.1726 47.3247ZM56.0583 38.8618L59.2578 35.0195L54.5888 31.1318L51.3894 34.9741L48.19 38.8165L52.8589 42.7042L56.0583 38.8618ZM51.3894 34.9741L56.0813 36.7022L65.343 11.5557L60.6511 9.82764L55.9592 8.09957L46.6975 33.246L51.3894 34.9741ZM60.6511 9.82764L57.4517 13.67L78.0455 30.8175L81.2449 26.9751L84.4443 23.1327L63.8505 5.98525L60.6511 9.82764Z" fill="#471E1E" mask="url(#path-1-inside-1_1274_71743)"/>
<path d="M129.501 74.0709L114.75 79.1418L99.9998 74.0709L114.75 69L129.501 74.0709Z" fill="#7D3131"/>
<path d="M66.2739 42.3773L102.719 55.1775L89.9186 91.6224L53.4737 78.8222L66.2739 42.3773Z" fill="#7D3131"/>
<path d="M67.7332 76.3793L45.7117 83.7169L30.3093 66.3516L52.3308 59.014L67.7332 76.3793Z" fill="#7D3131"/>
<path d="M68.5598 38.7391L60.0732 31.0455L63.576 20.1394L72.0626 27.833L68.5598 38.7391Z" fill="#7D3131"/>
<path d="M49.4626 69.0861L40.9105 60.6821L39.6408 48.7594L48.1929 57.1633L49.4626 69.0861Z" fill="#7D3131"/>
<path d="M101.458 52.1741L105.333 39.7679L118.015 42.615L114.14 55.0212L101.458 52.1741Z" fill="#7D3131"/>
<path d="M72.8281 94.6829L84.6901 83.755L96.552 94.6829L84.6901 105.611L72.8281 94.6829Z" fill="#7D3131"/>
<path d="M80.9998 112L86.4998 97L91.9998 112L86.4998 127L80.9998 112Z" fill="#7D3131"/>
<path d="M49.4998 79.9906L61.7629 69.7502L59.026 85.4906L46.7629 95.731L49.4998 79.9906Z" fill="#7D3131"/>
<path d="M69.4998 86.9906L81.7629 76.7502L79.026 92.4906L66.7629 102.731L69.4998 86.9906Z" fill="#7D3131"/>
<path d="M81.6236 63.937L102.42 56.0277L105.968 77.9924L85.1721 85.9017L81.6236 63.937Z" fill="#7D3131"/>
<path d="M109.413 85.3821L110.78 98.7801L97.3818 97.4137L96.0155 84.0158L109.413 85.3821Z" fill="#7D3131"/>
<path d="M72.9898 49.2299L94.9242 61.8938L82.2604 83.8282L60.326 71.1644L72.9898 49.2299Z" fill="#B24646"/>
<path d="M47.125 62.445L58.6953 69.1252L52.0152 80.6955L40.4449 74.0154L47.125 62.445Z" fill="#B24646"/>
<path d="M86.7912 103L90.5827 112.447L86.7912 121.894L82.9998 112.447L86.7912 103Z" fill="#B24646"/>
<path d="M72.1523 46.1026L87.1049 63.9888L83.0987 86.9551L68.1461 69.0689L72.1523 46.1026Z" fill="#B24646"/>
<path d="M99.3857 86.5391L106.975 87.3524L107.789 94.942L100.199 94.1287L99.3857 86.5391Z" fill="#B24646"/>
<path d="M64.6067 23.7433L69.7815 28.508L67.6823 35.2218L62.5076 30.4571L64.6067 23.7433Z" fill="#B24646"/>
</svg>
