<svg width="250" height="250" viewBox="0 0 250 250" fill="none" xmlns="http://www.w3.org/2000/svg">
<g clip-path="url(#clip0_1275_71965)">
<mask id="path-1-inside-1_1275_71965" fill="white">
<path d="M231.506 98.0794C235.229 101.16 235.749 106.675 232.669 110.399L221.725 123.624C225.975 125.663 227.86 130.726 225.933 135.063L207.97 175.494C206.008 179.91 200.837 181.899 196.421 179.937L173.548 169.775L183.252 182.408C186.196 186.24 185.476 191.734 181.643 194.677L137.881 228.295C134.049 231.239 128.555 230.519 125.611 226.687L91.9941 182.925C89.5598 179.756 89.6326 175.453 91.8967 172.393L91.0888 171.585L88.3177 174.065C84.7161 177.287 79.184 176.98 75.9619 173.378L68.2597 164.767L60.0099 172.148C56.4084 175.37 50.8769 175.063 47.6549 171.462L8.80129 128.031C5.57959 124.43 5.88759 118.898 9.48906 115.676L52.9188 76.8234C56.5204 73.6013 62.0525 73.9089 65.2745 77.5105L67.9628 80.515L75.0131 74.2076L73.8164 73.0662C70.3204 69.7302 70.1912 64.1915 73.5271 60.6953L120.111 11.8718C123.446 8.37563 128.985 8.24542 132.481 11.581L181.305 58.1658C184.801 61.5018 184.931 67.0398 181.595 70.5361L174 78.4959L178.521 83.0168L187.078 72.6753C190.158 68.9523 195.674 68.4314 199.398 71.5118L231.506 98.0794Z"/>
</mask>
<path d="M231.506 98.0794C235.229 101.16 235.749 106.675 232.669 110.399L221.725 123.624C225.975 125.663 227.86 130.726 225.933 135.063L207.97 175.494C206.008 179.91 200.837 181.899 196.421 179.937L173.548 169.775L183.252 182.408C186.196 186.24 185.476 191.734 181.643 194.677L137.881 228.295C134.049 231.239 128.555 230.519 125.611 226.687L91.9941 182.925C89.5598 179.756 89.6326 175.453 91.8967 172.393L91.0888 171.585L88.3177 174.065C84.7161 177.287 79.184 176.98 75.9619 173.378L68.2597 164.767L60.0099 172.148C56.4084 175.37 50.8769 175.063 47.6549 171.462L8.80129 128.031C5.57959 124.43 5.88759 118.898 9.48906 115.676L52.9188 76.8234C56.5204 73.6013 62.0525 73.9089 65.2745 77.5105L67.9628 80.515L75.0131 74.2076L73.8164 73.0662C70.3204 69.7302 70.1912 64.1915 73.5271 60.6953L120.111 11.8718C123.446 8.37563 128.985 8.24542 132.481 11.581L181.305 58.1658C184.801 61.5018 184.931 67.0398 181.595 70.5361L174 78.4959L178.521 83.0168L187.078 72.6753C190.158 68.9523 195.674 68.4314 199.398 71.5118L231.506 98.0794Z" fill="#818B91"/>
<path d="M231.506 98.0794L235.331 93.4569L235.331 93.4567L231.506 98.0794ZM232.669 110.399L237.292 114.224L237.292 114.223L232.669 110.399ZM221.725 123.624L217.102 119.799L212.208 125.714L219.13 129.034L221.725 123.624ZM225.933 135.063L231.417 137.499V137.499L225.933 135.063ZM207.97 175.494L213.453 177.93L213.453 177.93L207.97 175.494ZM196.421 179.937L193.985 185.42L193.985 185.421L196.421 179.937ZM173.548 169.775L175.984 164.292L168.79 173.43L173.548 169.775ZM183.252 182.408L178.494 186.063L178.494 186.063L183.252 182.408ZM181.643 194.677L177.988 189.919L177.988 189.919L181.643 194.677ZM137.881 228.295L141.537 233.054L141.537 233.054L137.881 228.295ZM125.611 226.687L120.853 230.342L120.853 230.342L125.611 226.687ZM91.9941 182.925L96.7522 179.27L96.7522 179.269L91.9941 182.925ZM91.8967 172.393L96.7199 175.962L99.795 171.806L96.1393 168.151L91.8967 172.393ZM91.0888 171.585L95.3314 167.343L91.3177 163.329L87.0877 167.114L91.0888 171.585ZM88.3177 174.065L92.3181 178.537L92.3187 178.536L88.3177 174.065ZM75.9619 173.378L71.4899 177.378L71.4902 177.378L75.9619 173.378ZM68.2597 164.767L72.7318 160.767L68.7311 156.294L64.259 160.295L68.2597 164.767ZM60.0099 172.148L64.0104 176.62L64.0106 176.62L60.0099 172.148ZM47.6549 171.462L43.1832 175.462L43.1833 175.462L47.6549 171.462ZM8.80129 128.031L4.32935 132.032L4.32957 132.032L8.80129 128.031ZM9.48906 115.676L13.4895 120.148V120.148L9.48906 115.676ZM52.9188 76.8234L48.9183 72.3517L48.9183 72.3517L52.9188 76.8234ZM65.2745 77.5105L60.8028 81.5109L60.8031 81.5112L65.2745 77.5105ZM67.9628 80.515L63.4913 84.5157L67.4918 88.9869L71.9632 84.9867L67.9628 80.515ZM75.0131 74.2076L79.0136 78.6794L83.8542 74.3489L79.1544 69.866L75.0131 74.2076ZM73.8164 73.0662L69.6743 77.407L69.6752 77.4079L73.8164 73.0662ZM73.5271 60.6953L77.8681 64.8372L77.8682 64.8372L73.5271 60.6953ZM120.111 11.8718L115.77 7.72976L115.769 7.72987L120.111 11.8718ZM132.481 11.581L136.623 7.24004L136.623 7.23981L132.481 11.581ZM181.305 58.1658L185.447 53.825L185.447 53.8248L181.305 58.1658ZM181.595 70.5361L185.936 74.6781L185.936 74.6779L181.595 70.5361ZM174 78.4959L169.659 74.3538L165.613 78.5941L169.757 82.7385L174 78.4959ZM178.521 83.0168L174.278 87.2594L178.94 91.9215L183.143 86.8418L178.521 83.0168ZM187.078 72.6753L191.7 76.5004L191.701 76.5004L187.078 72.6753ZM199.398 71.5118L203.223 66.8891L203.222 66.8889L199.398 71.5118ZM231.506 98.0794L227.681 102.702C228.85 103.67 229.015 105.403 228.046 106.574L232.669 110.399L237.292 114.223C242.484 107.948 241.607 98.6504 235.331 93.4569L231.506 98.0794ZM232.669 110.399L228.046 106.573L217.102 119.799L221.725 123.624L226.347 127.449L237.292 114.224L232.669 110.399ZM221.725 123.624L219.13 129.034C220.464 129.674 221.055 131.267 220.45 132.627L225.933 135.063L231.417 137.499C234.666 130.186 231.486 121.652 224.32 118.214L221.725 123.624ZM225.933 135.063L220.45 132.627L202.487 173.058L207.97 175.494L213.453 177.93L231.417 137.499L225.933 135.063ZM207.97 175.494L202.487 173.057C201.87 174.445 200.245 175.071 198.857 174.454L196.421 179.937L193.985 185.421C201.429 188.728 210.145 185.374 213.453 177.93L207.97 175.494ZM196.421 179.937L198.857 174.454L175.984 164.292L173.548 169.775L171.112 175.258L193.985 185.42L196.421 179.937ZM173.548 169.775L168.79 173.43L178.494 186.063L183.252 182.408L188.011 178.753L178.306 166.12L173.548 169.775ZM183.252 182.408L178.494 186.063C179.419 187.267 179.193 188.994 177.988 189.919L181.643 194.677L185.298 199.436C191.758 194.473 192.973 185.213 188.01 178.753L183.252 182.408ZM181.643 194.677L177.988 189.919L134.226 223.537L137.881 228.295L141.537 233.054L185.299 199.436L181.643 194.677ZM137.881 228.295L134.226 223.537C133.021 224.463 131.294 224.236 130.369 223.032L125.611 226.687L120.853 230.342C125.816 236.803 135.077 238.016 141.537 233.054L137.881 228.295ZM125.611 226.687L130.369 223.032L96.7522 179.27L91.9941 182.925L87.2359 186.58L120.853 230.342L125.611 226.687ZM91.9941 182.925L96.7522 179.269C95.994 178.282 96.0047 176.929 96.7199 175.962L91.8967 172.393L87.0735 168.824C83.2606 173.977 83.1257 181.229 87.2359 186.58L91.9941 182.925ZM91.8967 172.393L96.1393 168.151L95.3314 167.343L91.0888 171.585L86.8461 175.828L87.6541 176.636L91.8967 172.393ZM91.0888 171.585L87.0877 167.114L84.3166 169.594L88.3177 174.065L92.3187 178.536L95.0898 176.057L91.0888 171.585ZM88.3177 174.065L84.3172 169.593C83.1851 170.606 81.4461 170.509 80.4337 169.378L75.9619 173.378L71.4902 177.378C76.9218 183.45 86.247 183.968 92.3181 178.537L88.3177 174.065ZM75.9619 173.378L80.434 169.378L72.7318 160.767L68.2597 164.767L63.7877 168.767L71.4899 177.378L75.9619 173.378ZM68.2597 164.767L64.259 160.295L56.0092 167.677L60.0099 172.148L64.0106 176.62L72.2604 169.239L68.2597 164.767ZM60.0099 172.148L56.0094 167.676C54.8769 168.69 53.1386 168.592 52.1265 167.461L47.6549 171.462L43.1833 175.462C48.6153 181.534 57.9398 182.051 64.0104 176.62L60.0099 172.148ZM47.6549 171.462L52.1266 167.461L13.273 124.031L8.80129 128.031L4.32957 132.032L43.1832 175.462L47.6549 171.462ZM8.80129 128.031L13.2732 124.031C12.2609 122.899 12.3574 121.161 13.4895 120.148L9.48906 115.676L5.48859 111.205C-0.582273 116.636 -1.10168 125.96 4.32935 132.032L8.80129 128.031ZM9.48906 115.676L13.4895 120.148L56.9193 81.2951L52.9188 76.8234L48.9183 72.3517L5.48859 111.205L9.48906 115.676ZM52.9188 76.8234L56.9193 81.2951C58.0514 80.2823 59.7903 80.3792 60.8028 81.5109L65.2745 77.5105L69.7463 73.51C64.3147 67.4386 54.9894 66.9204 48.9183 72.3517L52.9188 76.8234ZM65.2745 77.5105L60.8031 81.5112L63.4913 84.5157L67.9628 80.515L72.4342 76.5142L69.746 73.5097L65.2745 77.5105ZM67.9628 80.515L71.9632 84.9867L79.0136 78.6794L75.0131 74.2076L71.0127 69.7359L63.9623 76.0433L67.9628 80.515ZM75.0131 74.2076L79.1544 69.866L77.9577 68.7245L73.8164 73.0662L69.6752 77.4079L70.8719 78.5493L75.0131 74.2076ZM73.8164 73.0662L77.9586 68.7253C76.8605 67.6775 76.8191 65.9367 77.8681 64.8372L73.5271 60.6953L69.1861 56.5533C63.5634 62.4463 63.7803 71.7828 69.6743 77.407L73.8164 73.0662ZM73.5271 60.6953L77.8682 64.8372L124.452 16.0136L120.111 11.8718L115.769 7.72987L69.186 56.5534L73.5271 60.6953ZM120.111 11.8718L124.451 16.0137C125.5 14.9148 127.241 14.8741 128.34 15.9223L132.481 11.581L136.623 7.23981C130.729 1.61677 121.393 1.83644 115.77 7.72976L120.111 11.8718ZM132.481 11.581L128.339 15.922L177.163 62.5068L181.305 58.1658L185.447 53.8248L136.623 7.24004L132.481 11.581ZM181.305 58.1658L177.163 62.5067C178.261 63.555 178.302 65.2953 177.254 66.3942L181.595 70.5361L185.936 74.6779C191.559 68.7844 191.341 59.4486 185.447 53.825L181.305 58.1658ZM181.595 70.5361L177.254 66.394L169.659 74.3538L174 78.4959L178.341 82.6379L185.936 74.6781L181.595 70.5361ZM174 78.4959L169.757 82.7385L174.278 87.2594L178.521 83.0168L182.763 78.7741L178.242 74.2532L174 78.4959ZM178.521 83.0168L183.143 86.8418L191.7 76.5004L187.078 72.6753L182.455 68.8503L173.898 79.1917L178.521 83.0168ZM187.078 72.6753L191.701 76.5004C192.669 75.3303 194.403 75.1665 195.573 76.1347L199.398 71.5118L203.222 66.8889C196.946 61.6963 187.648 62.5743 182.455 68.8503L187.078 72.6753ZM199.398 71.5118L195.573 76.1345L227.681 102.702L231.506 98.0794L235.331 93.4567L203.223 66.8891L199.398 71.5118Z" fill="#474E52" mask="url(#path-1-inside-1_1275_71965)"/>
<path d="M123.152 28.4483C125.058 26.4504 128.223 26.3761 130.221 28.2824L164.728 61.2067C166.726 63.113 166.8 66.2779 164.894 68.2759L131.97 102.783C130.063 104.781 126.898 104.855 124.9 102.949L90.3934 70.0245C88.3955 68.1182 88.3212 64.9533 90.2275 62.9554L123.152 28.4483Z" fill="#A1AEB6"/>
<path d="M124.452 51.5724C126.408 49.6034 129.592 49.6034 131.548 51.5724L196.501 116.977C198.437 118.927 198.437 122.073 196.501 124.023L131.548 189.428C129.592 191.397 126.408 191.397 124.452 189.428L59.499 124.023C57.5626 122.073 57.5626 118.927 59.499 116.977L124.452 51.5724Z" fill="#818B91"/>
<path d="M124.451 60.5776C126.406 58.6064 129.594 58.6064 131.549 60.5777L187.506 116.978C189.44 118.928 189.44 122.072 187.506 124.022L131.549 180.422C129.594 182.394 126.406 182.394 124.451 180.422L68.4938 124.022C66.5598 122.072 66.5598 118.928 68.4938 116.978L124.451 60.5776Z" fill="#A1AEB6"/>
<path d="M168.433 96.6304C170.393 94.6358 173.607 94.6359 175.567 96.6304L196.557 117.996C198.468 119.941 198.468 123.059 196.557 125.004L175.567 146.37C173.607 148.364 170.393 148.364 168.433 146.37L147.443 125.004C145.532 123.059 145.532 119.941 147.443 117.996L168.433 96.6304Z" fill="#A1AEB6"/>
<path d="M55.9645 92.5355C57.9171 90.5829 61.0829 90.5829 63.0355 92.5355L91.4645 120.964C93.4171 122.917 93.4171 126.083 91.4645 128.036L63.0355 156.464C61.0829 158.417 57.9171 158.417 55.9645 156.464L27.5355 128.036C25.5829 126.083 25.5829 122.917 27.5355 120.964L55.9645 92.5355Z" fill="#A1AEB6"/>
<path d="M139.179 157.298C141.357 155.6 144.499 155.989 146.197 158.166L165.702 183.179C167.4 185.357 167.012 188.499 164.834 190.197L139.821 209.702C137.643 211.4 134.501 211.012 132.803 208.834L113.298 183.821C111.6 181.643 111.989 178.501 114.166 176.803L139.179 157.298Z" fill="#A1AEB6"/>
<path d="M175.536 113.106C173.583 111.154 173.583 107.988 175.536 106.035L191.035 90.5354C192.988 88.5828 196.154 88.5828 198.106 90.5354L213.606 106.035C215.559 107.988 215.559 111.154 213.606 113.106L198.106 128.606C196.154 130.559 192.988 130.559 191.035 128.606L175.536 113.106Z" fill="#A1AEB6"/>
<path d="M163.509 149.161C161.118 147.781 160.298 144.723 161.679 142.331L177.165 115.509C178.546 113.117 181.603 112.298 183.995 113.679L210.817 129.164C213.209 130.545 214.028 133.603 212.647 135.995L197.162 162.817C195.781 165.208 192.723 166.028 190.331 164.647L163.509 149.161Z" fill="#A1AEB6"/>
<path d="M130.793 75.7226C132.886 73.8874 136.074 74.1137 137.886 76.226L175.689 120.295C177.472 122.375 177.25 125.503 175.191 127.31L131.542 165.597C129.45 167.433 126.261 167.206 124.45 165.094L86.6465 121.024C84.8626 118.945 85.0846 115.817 87.1444 114.01L130.793 75.7226Z" fill="#C3CFD9"/>
<path d="M53.7818 105.736C55.874 103.9 59.062 104.127 60.874 106.239L72.6932 120.017C74.477 122.097 74.255 125.225 72.1953 127.032L58.5484 139.002C56.4562 140.837 53.2682 140.611 51.4562 138.499L39.637 124.72C37.8531 122.641 38.0752 119.513 40.1349 117.706L53.7818 105.736Z" fill="#C3CFD9"/>
<path d="M136.624 166.953C138.716 165.118 141.904 165.344 143.716 167.457L153.5 178.862C155.283 180.941 155.061 184.069 153.002 185.876L141.706 195.785C139.613 197.62 136.425 197.394 134.613 195.281L124.83 183.876C123.046 181.797 123.268 178.669 125.328 176.862L136.624 166.953Z" fill="#C3CFD9"/>
<path d="M168.671 106.595C170.628 104.616 173.824 104.616 175.781 106.595L190.974 121.957C192.901 123.905 192.901 127.04 190.974 128.989L175.781 144.351C173.824 146.329 170.628 146.329 168.671 144.351L153.477 128.989C151.551 127.04 151.551 123.905 153.477 121.957L168.671 106.595Z" fill="#C3CFD9"/>
</g>
<defs>
<clipPath id="clip0_1275_71965">
<rect width="250" height="250" fill="white"/>
</clipPath>
</defs>
</svg>
