<svg width="200" height="200" viewBox="0 0 200 200" fill="none" xmlns="http://www.w3.org/2000/svg">
<mask id="path-1-inside-1_1274_71333" fill="white">
<path d="M186.891 91.3805C189.87 93.8451 190.286 98.2586 187.822 101.237L159.677 135.25C157.212 138.228 152.8 138.645 149.822 136.181L142.801 130.371L134.816 138.356L139.279 144.167C141.634 147.233 141.058 151.627 137.992 153.982L102.983 180.876C99.917 183.232 95.522 182.656 93.1669 179.59L66.2726 144.579C64.1396 141.802 64.4113 137.935 66.7602 135.481L60.0123 128.733L50.7722 136.999C47.891 139.577 43.4662 139.33 40.8886 136.449L11.4532 103.547C8.87565 100.666 9.12179 96.2403 12.0029 93.6627L44.9061 64.2273C47.7874 61.65 52.2122 61.8965 54.7898 64.7777L56.7108 66.9238L67.7746 55.8601L64.1334 51.4414C61.6749 48.4579 62.1009 44.0467 65.0842 41.5881L99.1538 13.5124C102.137 11.054 106.549 11.4794 109.008 14.4626L137.083 48.5335C139.065 50.9382 139.171 54.2695 137.576 56.7592L144.007 63.1901C146.544 61.13 150.264 61.0739 152.878 63.2371L186.891 91.3805Z"/>
</mask>
<path d="M186.891 91.3805C189.87 93.8451 190.286 98.2586 187.822 101.237L159.677 135.25C157.212 138.228 152.8 138.645 149.822 136.181L142.801 130.371L134.816 138.356L139.279 144.167C141.634 147.233 141.058 151.627 137.992 153.982L102.983 180.876C99.917 183.232 95.522 182.656 93.1669 179.59L66.2726 144.579C64.1396 141.802 64.4113 137.935 66.7602 135.481L60.0123 128.733L50.7722 136.999C47.891 139.577 43.4662 139.33 40.8886 136.449L11.4532 103.547C8.87565 100.666 9.12179 96.2403 12.0029 93.6627L44.9061 64.2273C47.7874 61.65 52.2122 61.8965 54.7898 64.7777L56.7108 66.9238L67.7746 55.8601L64.1334 51.4414C61.6749 48.4579 62.1009 44.0467 65.0842 41.5881L99.1538 13.5124C102.137 11.054 106.549 11.4794 109.008 14.4626L137.083 48.5335C139.065 50.9382 139.171 54.2695 137.576 56.7592L144.007 63.1901C146.544 61.13 150.264 61.0739 152.878 63.2371L186.891 91.3805Z" fill="#818B91"/>
<path d="M186.891 91.3805L190.716 86.7578L190.716 86.7578L186.891 91.3805ZM187.822 101.237L192.444 105.062L192.444 105.062L187.822 101.237ZM159.677 135.25L164.3 139.075L164.3 139.075L159.677 135.25ZM149.822 136.181L145.997 140.804L145.997 140.804L149.822 136.181ZM142.801 130.371L146.626 125.749L142.419 122.268L138.558 126.129L142.801 130.371ZM134.816 138.356L130.574 134.113L126.851 137.836L130.058 142.011L134.816 138.356ZM139.279 144.167L134.521 147.822L134.521 147.822L139.279 144.167ZM137.992 153.982L134.337 149.224L134.337 149.224L137.992 153.982ZM102.983 180.876L106.638 185.635L106.638 185.635L102.983 180.876ZM93.1669 179.59L88.4087 183.245L88.4088 183.245L93.1669 179.59ZM66.2726 144.579L61.5143 148.234L61.5145 148.234L66.2726 144.579ZM66.7602 135.481L71.0948 139.629L75.1535 135.389L71.0028 131.238L66.7602 135.481ZM60.0123 128.733L64.2549 124.49L60.2417 120.477L56.0118 124.261L60.0123 128.733ZM50.7722 136.999L54.7725 141.471L54.7727 141.471L50.7722 136.999ZM40.8886 136.449L45.3603 132.448L45.3603 132.448L40.8886 136.449ZM11.4532 103.547L6.9815 107.547L6.98157 107.548L11.4532 103.547ZM12.0029 93.6627L8.00245 89.191L8.00227 89.1911L12.0029 93.6627ZM44.9061 64.2273L40.906 59.7553L40.9057 59.7556L44.9061 64.2273ZM54.7898 64.7777L50.318 68.7781L50.3191 68.7794L54.7898 64.7777ZM56.7108 66.9238L52.2402 70.9255L56.4695 75.6504L60.9535 71.1665L56.7108 66.9238ZM67.7746 55.8601L72.0172 60.1027L75.8702 56.2497L72.405 52.0445L67.7746 55.8601ZM64.1334 51.4414L59.5029 55.257L59.5029 55.257L64.1334 51.4414ZM65.0842 41.5881L61.2685 36.9578L61.2685 36.9578L65.0842 41.5881ZM99.1538 13.5124L95.3381 8.882L95.3381 8.88207L99.1538 13.5124ZM109.008 14.4626L113.638 10.6469L113.638 10.6466L109.008 14.4626ZM137.083 48.5335L141.714 44.7181L141.714 44.7179L137.083 48.5335ZM137.576 56.7592L132.524 53.5229L129.92 57.5881L133.334 61.0018L137.576 56.7592ZM144.007 63.1901L139.765 67.4328L143.59 71.2581L147.79 67.8479L144.007 63.1901ZM152.878 63.2371L149.053 67.8598L149.053 67.8598L152.878 63.2371ZM186.891 91.3805L183.066 96.0032C183.492 96.3554 183.551 96.9868 183.199 97.4121L187.822 101.237L192.444 105.062C197.022 99.5304 196.247 91.3347 190.716 86.7578L186.891 91.3805ZM187.822 101.237L183.199 97.4121L155.054 131.425L159.677 135.25L164.3 139.075L192.444 105.062L187.822 101.237ZM159.677 135.25L155.055 131.425C154.702 131.851 154.072 131.91 153.647 131.558L149.822 136.181L145.997 140.804C151.529 145.381 159.723 144.606 164.3 139.075L159.677 135.25ZM149.822 136.181L153.647 131.558L146.626 125.749L142.801 130.371L138.976 134.994L145.997 140.804L149.822 136.181ZM142.801 130.371L138.558 126.129L130.574 134.113L134.816 138.356L139.059 142.599L147.044 134.614L142.801 130.371ZM134.816 138.356L130.058 142.011L134.521 147.822L139.279 144.167L144.038 140.512L139.575 134.701L134.816 138.356ZM139.279 144.167L134.521 147.822C134.857 148.26 134.775 148.887 134.337 149.224L137.992 153.982L141.647 158.74C147.341 154.367 148.411 146.206 144.038 140.512L139.279 144.167ZM137.992 153.982L134.337 149.224L99.3276 176.118L102.983 180.876L106.638 185.635L141.647 158.74L137.992 153.982ZM102.983 180.876L99.3277 176.118C98.8893 176.455 98.2611 176.372 97.9249 175.935L93.1669 179.59L88.4088 183.245C92.7829 188.939 100.945 190.008 106.638 185.635L102.983 180.876ZM93.1669 179.59L97.925 175.935L71.0308 140.924L66.2726 144.579L61.5145 148.234L88.4087 183.245L93.1669 179.59ZM66.2726 144.579L71.031 140.924C70.7295 140.532 70.7631 139.976 71.0948 139.629L66.7602 135.481L62.4256 131.332C58.0596 135.894 57.5497 143.072 61.5143 148.234L66.2726 144.579ZM66.7602 135.481L71.0028 131.238L64.2549 124.49L60.0123 128.733L55.7696 132.975L62.5175 139.723L66.7602 135.481ZM60.0123 128.733L56.0118 124.261L46.7717 132.528L50.7722 136.999L54.7727 141.471L64.0128 133.205L60.0123 128.733ZM50.7722 136.999L46.772 132.527C46.3608 132.895 45.7289 132.86 45.3603 132.448L40.8886 136.449L36.4169 140.449C41.2034 145.8 49.4211 146.258 54.7725 141.471L50.7722 136.999ZM40.8886 136.449L45.3603 132.448L15.9249 99.5465L11.4532 103.547L6.98157 107.548L36.417 140.449L40.8886 136.449ZM11.4532 103.547L15.9249 99.5465C15.5568 99.135 15.5919 98.5025 16.0035 98.1343L12.0029 93.6627L8.00227 89.1911C2.65169 93.9781 2.19455 102.197 6.9815 107.547L11.4532 103.547ZM12.0029 93.6627L16.0033 98.1344L48.9066 68.699L44.9061 64.2273L40.9057 59.7556L8.00245 89.191L12.0029 93.6627ZM44.9061 64.2273L48.9063 68.6993C49.3176 68.3314 49.9496 68.3662 50.318 68.7781L54.7898 64.7777L59.2615 60.7772C54.4749 55.4268 46.2572 54.9687 40.906 59.7553L44.9061 64.2273ZM54.7898 64.7777L50.3191 68.7794L52.2402 70.9255L56.7108 66.9238L61.1814 62.9221L59.2604 60.776L54.7898 64.7777ZM56.7108 66.9238L60.9535 71.1665L72.0172 60.1027L67.7746 55.8601L63.5319 51.6175L52.4682 62.6812L56.7108 66.9238ZM67.7746 55.8601L72.405 52.0445L68.7638 47.6257L64.1334 51.4414L59.5029 55.257L63.1441 59.6757L67.7746 55.8601ZM64.1334 51.4414L68.7638 47.6258C68.4131 47.2001 68.4733 46.5701 68.9 46.2185L65.0842 41.5881L61.2685 36.9578C55.7284 41.5233 54.9368 49.7157 59.5029 55.257L64.1334 51.4414ZM65.0842 41.5881L68.9 46.2185L102.97 18.1428L99.1538 13.5124L95.3381 8.88207L61.2685 36.9578L65.0842 41.5881ZM99.1538 13.5124L102.969 18.1428C103.396 17.7916 104.026 17.8525 104.378 18.2785L109.008 14.4626L113.638 10.6466C109.072 5.10629 100.879 4.31637 95.3381 8.882L99.1538 13.5124ZM109.008 14.4626L104.377 18.2782L132.453 52.3492L137.083 48.5335L141.714 44.7179L113.638 10.6469L109.008 14.4626ZM137.083 48.5335L132.453 52.3489C132.729 52.6836 132.757 53.1599 132.524 53.5229L137.576 56.7592L142.629 59.9955C145.586 55.379 145.401 49.1928 141.714 44.7181L137.083 48.5335ZM137.576 56.7592L133.334 61.0018L139.765 67.4328L144.007 63.1901L148.25 58.9475L141.819 52.5165L137.576 56.7592ZM144.007 63.1901L147.79 67.8479C148.15 67.5556 148.684 67.5548 149.053 67.8598L152.878 63.2371L156.703 58.6144C151.843 54.593 144.939 54.7044 140.225 58.5324L144.007 63.1901ZM152.878 63.2371L149.053 67.8598L183.066 96.0032L186.891 91.3805L190.716 86.7578L156.703 58.6144L152.878 63.2371Z" fill="#474E52" mask="url(#path-1-inside-1_1274_71333)"/>
<rect x="54.9966" y="95.3535" width="68.9296" height="68.9296" rx="6" transform="rotate(-45 54.9966 95.3535)" fill="#A1AEB6"/>
<rect x="24.5613" y="99.0796" width="34.2501" height="34.2501" rx="6" transform="rotate(-45 24.5613 99.0796)" fill="#A1AEB6"/>
<rect x="77.6558" y="48.4829" width="34.2501" height="34.2501" rx="6" transform="rotate(-40.0945 77.6558 48.4829)" fill="#A1AEB6"/>
<rect x="118.641" y="95.0571" width="34.2501" height="34.2501" rx="6" transform="rotate(-40.0945 118.641 95.0571)" fill="#A1AEB6"/>
<rect x="77.6558" y="131.385" width="34.2501" height="34.2501" rx="6" transform="rotate(-40.0945 77.6558 131.385)" fill="#A1AEB6"/>
<rect x="69.2722" y="93.4907" width="48.7406" height="48.7406" rx="6" transform="rotate(-45 69.2722 93.4907)" fill="#C3CFD9"/>
<rect x="89.7649" y="119.572" width="19.7597" height="19.7597" rx="6" transform="rotate(-45 89.7649 119.572)" fill="#C3CFD9"/>
<rect x="89.7649" y="48.7793" width="19.7597" height="19.7597" rx="6" transform="rotate(-45 89.7649 48.7793)" fill="#C3CFD9"/>
</svg>
