<svg width="150" height="150" viewBox="0 0 150 150" fill="none" xmlns="http://www.w3.org/2000/svg">
<g clip-path="url(#clip0_1274_71655)">
<mask id="path-1-inside-1_1274_71655" fill="white">
<path d="M136.02 53.8893C138.507 55.3788 139.316 58.6029 137.827 61.0904L117.393 95.2163C115.903 97.7039 112.679 98.5132 110.191 97.0237L103.392 92.9513L102.476 94.1824L110.492 101.863C112.586 103.869 112.657 107.192 110.651 109.286L87.7438 133.194C85.7379 135.288 82.415 135.358 80.3214 133.352L56.4131 110.445C54.3196 108.439 54.2488 105.117 56.2548 103.023L56.8311 102.42L49.5183 97.1051L46.2643 102.034C44.6663 104.453 41.4093 105.119 38.9899 103.521L13.1611 86.4606C10.742 84.8626 10.0755 81.6063 11.6731 79.1869L28.7336 53.3582C30.3316 50.9388 33.5886 50.2727 36.008 51.8707L41.6282 55.5821L47.1723 48.119L40.4407 45.4948C37.7396 44.4411 36.4041 41.3969 37.4576 38.6957L47.9097 11.8977C48.9632 9.19635 52.0073 7.85973 54.7086 8.91328L81.5074 19.3659C84.2087 20.4194 85.5445 23.4629 84.491 26.1642L82.313 31.7476L92.4047 39.0825L94.6925 35.263C96.182 32.7753 99.4066 31.966 101.894 33.4555L136.02 53.8893Z"/>
</mask>
<path d="M136.02 53.8893C138.507 55.3788 139.316 58.6029 137.827 61.0904L117.393 95.2163C115.903 97.7039 112.679 98.5132 110.191 97.0237L103.392 92.9513L102.476 94.1824L110.492 101.863C112.586 103.869 112.657 107.192 110.651 109.286L87.7438 133.194C85.7379 135.288 82.415 135.358 80.3214 133.352L56.4131 110.445C54.3196 108.439 54.2488 105.117 56.2548 103.023L56.8311 102.42L49.5183 97.1051L46.2643 102.034C44.6663 104.453 41.4093 105.119 38.9899 103.521L13.1611 86.4606C10.742 84.8626 10.0755 81.6063 11.6731 79.1869L28.7336 53.3582C30.3316 50.9388 33.5886 50.2727 36.008 51.8707L41.6282 55.5821L47.1723 48.119L40.4407 45.4948C37.7396 44.4411 36.4041 41.3969 37.4576 38.6957L47.9097 11.8977C48.9632 9.19635 52.0073 7.85973 54.7086 8.91328L81.5074 19.3659C84.2087 20.4194 85.5445 23.4629 84.491 26.1642L82.313 31.7476L92.4047 39.0825L94.6925 35.263C96.182 32.7753 99.4066 31.966 101.894 33.4555L136.02 53.8893Z" fill="#818B91"/>
<path d="M136.02 53.8893L138.589 49.5996L138.589 49.5995L136.02 53.8893ZM137.827 61.0904L142.116 63.6591L142.117 63.6588L137.827 61.0904ZM117.393 95.2163L121.683 97.7849L121.683 97.7849L117.393 95.2163ZM110.191 97.0237L107.622 101.313L107.623 101.313L110.191 97.0237ZM103.392 92.9513L105.961 88.6618L102.079 86.337L99.3795 89.9677L103.392 92.9513ZM102.476 94.1824L98.4641 91.1989L95.831 94.7398L99.0171 97.7927L102.476 94.1824ZM110.492 101.863L113.952 98.2533L113.952 98.2531L110.492 101.863ZM110.651 109.286L114.261 112.745L114.261 112.745L110.651 109.286ZM87.7438 133.194L91.3541 136.653L91.3541 136.653L87.7438 133.194ZM80.3214 133.352L76.8623 136.963L76.8624 136.963L80.3214 133.352ZM56.4131 110.445L52.9539 114.056L52.954 114.056L56.4131 110.445ZM56.2548 103.023L59.8651 106.482L59.8693 106.478L56.2548 103.023ZM56.8311 102.42L60.4456 105.875L64.3987 101.739L59.7707 98.3754L56.8311 102.42ZM49.5183 97.1051L52.4579 93.0605L48.2274 89.9857L45.3458 94.3502L49.5183 97.1051ZM46.2643 102.034L50.4363 104.789L50.4369 104.789L46.2643 102.034ZM38.9899 103.521L36.2342 107.693L36.2344 107.693L38.9899 103.521ZM13.1611 86.4606L10.4054 90.6326L10.4054 90.6326L13.1611 86.4606ZM11.6731 79.1869L7.50108 76.4312L7.50078 76.4317L11.6731 79.1869ZM28.7336 53.3582L32.9057 56.1139L32.9057 56.1138L28.7336 53.3582ZM36.008 51.8707L33.2524 56.0428L33.2528 56.0431L36.008 51.8707ZM41.6282 55.5821L38.8729 59.7544L42.8207 62.3614L45.6419 58.5637L41.6282 55.5821ZM47.1723 48.119L51.186 51.1006L55.0936 45.8404L48.9883 43.4604L47.1723 48.119ZM40.4407 45.4948L38.6235 50.1529L38.6246 50.1534L40.4407 45.4948ZM37.4576 38.6957L32.7994 36.8788L32.7994 36.8789L37.4576 38.6957ZM47.9097 11.8977L52.5679 13.7145L52.5679 13.7144L47.9097 11.8977ZM54.7086 8.91328L56.5255 4.25507L56.5253 4.25503L54.7086 8.91328ZM81.5074 19.3659L79.6905 24.0241L79.6906 24.0241L81.5074 19.3659ZM84.491 26.1642L89.1491 27.9813L89.1492 27.9809L84.491 26.1642ZM82.313 31.7476L77.6548 29.9305L76.253 33.5242L79.3733 35.7922L82.313 31.7476ZM92.4047 39.0825L89.4651 43.1271L93.8859 46.3403L96.6942 41.6517L92.4047 39.0825ZM94.6925 35.263L98.9819 37.8321L98.9822 37.8316L94.6925 35.263ZM101.894 33.4555L99.3255 37.7453L99.3256 37.7453L101.894 33.4555ZM136.02 53.8893L133.451 58.179C133.569 58.2494 133.608 58.4027 133.537 58.522L137.827 61.0904L142.117 63.6588C145.024 58.8031 143.446 52.5083 138.589 49.5996L136.02 53.8893ZM137.827 61.0904L133.537 58.5218L113.103 92.6476L117.393 95.2163L121.683 97.7849L142.116 63.6591L137.827 61.0904ZM117.393 95.2163L113.103 92.6476C113.032 92.7663 112.878 92.8047 112.76 92.7339L110.191 97.0237L107.623 101.313C112.48 104.222 118.775 102.641 121.683 97.7849L117.393 95.2163ZM110.191 97.0237L112.76 92.7342L105.961 88.6618L103.392 92.9513L100.823 97.2408L107.622 101.313L110.191 97.0237ZM103.392 92.9513L99.3795 89.9677L98.4641 91.1989L102.476 94.1824L106.489 97.166L107.404 95.9349L103.392 92.9513ZM102.476 94.1824L99.0171 97.7927L107.033 105.474L110.492 101.863L113.952 98.2531L105.936 90.5722L102.476 94.1824ZM110.492 101.863L107.033 105.473C107.132 105.569 107.136 105.727 107.04 105.827L110.651 109.286L114.261 112.745C118.177 108.658 118.039 102.17 113.952 98.2533L110.492 101.863ZM110.651 109.286L107.041 105.827L84.1335 129.735L87.7438 133.194L91.3541 136.653L114.261 112.745L110.651 109.286ZM87.7438 133.194L84.1336 129.735C84.0386 129.834 83.8806 129.838 83.7804 129.742L80.3214 133.352L76.8624 136.963C80.9493 140.878 87.4372 140.741 91.3541 136.653L87.7438 133.194ZM80.3214 133.352L83.7805 129.742L59.8723 106.835L56.4131 110.445L52.954 114.056L76.8623 136.963L80.3214 133.352ZM56.4131 110.445L59.8724 106.835C59.773 106.74 59.7693 106.582 59.8651 106.482L56.2548 103.023L52.6445 99.5638C48.7284 103.651 48.8662 110.139 52.9539 114.056L56.4131 110.445ZM56.2548 103.023L59.8693 106.478L60.4456 105.875L56.8311 102.42L53.2166 98.9652L52.6403 99.5681L56.2548 103.023ZM56.8311 102.42L59.7707 98.3754L52.4579 93.0605L49.5183 97.1051L46.5788 101.15L53.8915 106.465L56.8311 102.42ZM49.5183 97.1051L45.3458 94.3502L42.0917 99.2787L46.2643 102.034L50.4369 104.789L53.6909 99.86L49.5183 97.1051ZM46.2643 102.034L42.0923 99.2779C42.0161 99.3932 41.8605 99.4249 41.7455 99.3489L38.9899 103.521L36.2344 107.693C40.958 110.813 47.3165 109.513 50.4363 104.789L46.2643 102.034ZM38.9899 103.521L41.7456 99.349L15.9169 82.2885L13.1611 86.4606L10.4054 90.6326L36.2342 107.693L38.9899 103.521ZM13.1611 86.4606L15.9169 82.2885C15.8009 82.2119 15.77 82.0566 15.8455 81.9422L11.6731 79.1869L7.50078 76.4317C4.38103 81.156 5.68307 87.5134 10.4054 90.6326L13.1611 86.4606ZM11.6731 79.1869L15.8452 81.9427L32.9057 56.1139L28.7336 53.3582L24.5616 50.6024L7.50108 76.4312L11.6731 79.1869ZM28.7336 53.3582L32.9057 56.1138C32.9819 55.9985 33.1373 55.9668 33.2524 56.0428L36.008 51.8707L38.7637 47.6986C34.04 44.5787 27.6813 45.879 24.5615 50.6025L28.7336 53.3582ZM36.008 51.8707L33.2528 56.0431L38.8729 59.7544L41.6282 55.5821L44.3834 51.4097L38.7633 47.6984L36.008 51.8707ZM41.6282 55.5821L45.6419 58.5637L51.186 51.1006L47.1723 48.119L43.1586 45.1373L37.6145 52.6004L41.6282 55.5821ZM47.1723 48.119L48.9883 43.4604L42.2567 40.8363L40.4407 45.4948L38.6246 50.1534L45.3562 52.7775L47.1723 48.119ZM40.4407 45.4948L42.2578 40.8367C42.1297 40.7867 42.0655 40.6416 42.1159 40.5125L37.4576 38.6957L32.7994 36.8789C30.7428 42.1521 33.3495 48.0955 38.6235 50.1529L40.4407 45.4948ZM37.4576 38.6957L42.1159 40.5125L52.5679 13.7145L47.9097 11.8977L43.2514 10.0808L32.7994 36.8788L37.4576 38.6957ZM47.9097 11.8977L52.5679 13.7144C52.6185 13.5846 52.7643 13.5218 52.8918 13.5715L54.7086 8.91328L56.5253 4.25503C51.2502 2.19764 45.3079 4.80806 43.2514 10.0809L47.9097 11.8977ZM54.7086 8.91328L52.8917 13.5715L79.6905 24.0241L81.5074 19.3659L83.3243 14.7077L56.5255 4.25507L54.7086 8.91328ZM81.5074 19.3659L79.6906 24.0241C79.8195 24.0744 79.8827 24.2192 79.8327 24.3475L84.491 26.1642L89.1492 27.9809C91.2062 22.7067 88.5978 16.7644 83.3242 14.7076L81.5074 19.3659ZM84.491 26.1642L79.8328 24.3471L77.6548 29.9305L82.313 31.7476L86.9711 33.5647L89.1491 27.9813L84.491 26.1642ZM82.313 31.7476L79.3733 35.7922L89.4651 43.1271L92.4047 39.0825L95.3444 35.038L85.2526 27.7031L82.313 31.7476ZM92.4047 39.0825L96.6942 41.6517L98.9819 37.8321L94.6925 35.263L90.403 32.6938L88.1153 36.5133L92.4047 39.0825ZM94.6925 35.263L98.9822 37.8316C99.0533 37.7129 99.2073 37.6745 99.3255 37.7453L101.894 33.4555L104.463 29.1658C99.6058 26.2575 93.3107 27.8377 90.4027 32.6943L94.6925 35.263ZM101.894 33.4555L99.3256 37.7453L133.451 58.1791L136.02 53.8893L138.589 49.5995L104.463 29.1658L101.894 33.4555Z" fill="#474E52" mask="url(#path-1-inside-1_1274_71655)"/>
<rect x="42.4729" y="75.2285" width="51.6972" height="51.6972" rx="4.5" transform="rotate(-53.6935 42.4729 75.2285)" fill="#A1AEB6"/>
<rect x="22.8" y="78.8716" width="20.9401" height="20.9401" rx="4.5" transform="rotate(-53.6935 22.8 78.8716)" fill="#A1AEB6"/>
<rect x="51.1233" y="40.8125" width="19.4649" height="19.4649" rx="4.5" transform="rotate(-83.6935 51.1233 40.8125)" fill="#A1AEB6"/>
<rect x="84.9084" y="69.5156" width="30.6967" height="30.6967" rx="4.5" transform="rotate(-59.3574 84.9084 69.5156)" fill="#A1AEB6"/>
<rect x="65.9001" y="108.219" width="24.0899" height="24.0899" rx="4.5" transform="rotate(-48.788 65.9001 108.219)" fill="#A1AEB6"/>
<rect x="62" y="69.4932" width="30.394" height="30.394" rx="4.5" transform="rotate(-53.6935 62 69.4932)" fill="#C3CFD9"/>
<rect x="54" y="71.2104" width="22.5978" height="22.5978" rx="4.5" transform="rotate(-53.6935 54 71.2104)" fill="#C3CFD9"/>
<rect x="91.9084" y="65.4185" width="17.7613" height="17.7613" rx="4.5" transform="rotate(-53.6935 91.9084 65.4185)" fill="#C3CFD9"/>
<rect x="72.79" y="106.673" width="14.8197" height="14.8197" rx="4.5" transform="rotate(-46.1438 72.79 106.673)" fill="#C3CFD9"/>
<rect x="54.6826" y="39.6812" width="14.8197" height="14.8197" rx="4.5" transform="rotate(-87.3723 54.6826 39.6812)" fill="#C3CFD9"/>
</g>
<defs>
<clipPath id="clip0_1274_71655">
<rect width="150" height="150" fill="white"/>
</clipPath>
</defs>
</svg>
