<svg width="150" height="150" viewBox="0 0 150 150" fill="none" xmlns="http://www.w3.org/2000/svg">
<g clip-path="url(#clip0_1274_71725)">
<mask id="path-1-inside-1_1274_71725" fill="white">
<path d="M35.8769 105.923C33.8254 104.349 32.483 102.023 32.1454 99.4597L29.7999 81.6451L27.5349 78.6927C25.9609 76.6412 25.2662 74.0481 25.6037 71.4845L28.7737 47.4049C29.1113 44.8412 30.4536 42.5161 32.5051 40.9419L51.774 26.1566C53.8255 24.5826 56.4186 23.888 58.9822 24.2255L83.0618 27.3955C84.4474 27.5779 85.7616 28.0566 86.9268 28.7793C89.2951 28.6128 91.6511 29.313 93.5454 30.7665L95.5015 32.2679L104.155 31.1281C106.719 30.7906 109.312 31.4854 111.363 33.0593L126.031 44.3144C128.082 45.8885 129.424 48.213 129.762 50.7766L132.175 69.1068C132.513 71.6704 131.818 74.263 130.244 76.3145L125.467 82.5409L126.066 87.0945C126.404 89.6582 125.709 92.252 124.135 94.3035L105.165 119.025C103.591 121.077 101.266 122.419 98.702 122.757L86.3926 124.378C84.9461 125.661 83.1396 126.497 81.1944 126.753L65.065 128.877C62.5014 129.214 59.9088 128.519 57.8574 126.945L44.9512 117.042C42.8997 115.468 41.5573 113.143 41.2198 110.579L41.138 109.961L35.8769 105.923Z"/>
</mask>
<path d="M35.8769 105.923C33.8254 104.349 32.483 102.023 32.1454 99.4597L29.7999 81.6451L27.5349 78.6927C25.9609 76.6412 25.2662 74.0481 25.6037 71.4845L28.7737 47.4049C29.1113 44.8412 30.4536 42.5161 32.5051 40.9419L51.774 26.1566C53.8255 24.5826 56.4186 23.888 58.9822 24.2255L83.0618 27.3955C84.4474 27.5779 85.7616 28.0566 86.9268 28.7793C89.2951 28.6128 91.6511 29.313 93.5454 30.7665L95.5015 32.2679L104.155 31.1281C106.719 30.7906 109.312 31.4854 111.363 33.0593L126.031 44.3144C128.082 45.8885 129.424 48.213 129.762 50.7766L132.175 69.1068C132.513 71.6704 131.818 74.263 130.244 76.3145L125.467 82.5409L126.066 87.0945C126.404 89.6582 125.709 92.252 124.135 94.3035L105.165 119.025C103.591 121.077 101.266 122.419 98.702 122.757L86.3926 124.378C84.9461 125.661 83.1396 126.497 81.1944 126.753L65.065 128.877C62.5014 129.214 59.9088 128.519 57.8574 126.945L44.9512 117.042C42.8997 115.468 41.5573 113.143 41.2198 110.579L41.138 109.961L35.8769 105.923Z" fill="#464A4A"/>
<path d="M35.8769 105.923L38.9213 101.956L38.9207 101.956L35.8769 105.923ZM32.1454 99.4597L37.1027 98.807L37.1027 98.807L32.1454 99.4597ZM29.7999 81.6451L34.7571 80.9925L34.5823 79.6645L33.767 78.6017L29.7999 81.6451ZM27.5349 78.6927L31.5019 75.6492L31.5018 75.649L27.5349 78.6927ZM25.6037 71.4845L30.5609 72.1371L30.5609 72.1371L25.6037 71.4845ZM28.7737 47.4049L23.8165 46.7522L23.8165 46.7523L28.7737 47.4049ZM32.5051 40.9419L29.4613 36.9751L29.4612 36.9751L32.5051 40.9419ZM51.774 26.1566L48.7304 22.1898L48.7303 22.1898L51.774 26.1566ZM58.9822 24.2255L58.3296 29.1827L58.3296 29.1827L58.9822 24.2255ZM83.0618 27.3955L83.7145 22.4383L83.7144 22.4383L83.0618 27.3955ZM86.9268 28.7793L84.2914 33.0284L85.665 33.8803L87.2774 33.767L86.9268 28.7793ZM93.5454 30.7665L96.5897 26.8001L96.5891 26.7997L93.5454 30.7665ZM95.5015 32.2679L92.4572 36.2343L94.1006 37.4956L96.1545 37.2251L95.5015 32.2679ZM104.155 31.1281L103.503 26.1708L103.503 26.1709L104.155 31.1281ZM111.363 33.0593L114.407 29.0926L114.407 29.0925L111.363 33.0593ZM126.031 44.3144L129.075 40.3477L129.075 40.3476L126.031 44.3144ZM129.762 50.7766L134.719 50.1239L134.719 50.1238L129.762 50.7766ZM132.175 69.1068L137.132 68.4543L137.132 68.4542L132.175 69.1068ZM130.244 76.3145L126.277 73.2708L126.277 73.2711L130.244 76.3145ZM125.467 82.5409L121.5 79.4975L120.24 81.1404L120.51 83.1933L125.467 82.5409ZM126.066 87.0945L121.109 87.7469L121.109 87.7471L126.066 87.0945ZM124.135 94.3035L128.102 97.3473L128.102 97.3473L124.135 94.3035ZM105.165 119.025L101.198 115.981L101.198 115.981L105.165 119.025ZM98.702 122.757L98.0494 117.799L98.0493 117.799L98.702 122.757ZM86.3926 124.378L85.7399 119.42L84.2201 119.62L83.0736 120.638L86.3926 124.378ZM81.1944 126.753L81.8471 131.71L81.8472 131.71L81.1944 126.753ZM65.065 128.877L65.7176 133.834L65.7177 133.834L65.065 128.877ZM57.8574 126.945L60.9012 122.978L60.9011 122.978L57.8574 126.945ZM44.9512 117.042L41.9074 121.009L41.9075 121.009L44.9512 117.042ZM41.2198 110.579L46.177 109.927L46.1766 109.924L41.2198 110.579ZM41.138 109.961L46.0949 109.306L45.8237 107.255L44.1825 105.995L41.138 109.961ZM35.8769 105.923L38.9207 101.956C37.9212 101.189 37.2671 100.056 37.1027 98.807L32.1454 99.4597L27.1882 100.112C27.6988 103.991 29.7295 107.508 32.8331 109.889L35.8769 105.923ZM32.1454 99.4597L37.1027 98.807L34.7571 80.9925L29.7999 81.6451L24.8427 82.2978L27.1882 100.112L32.1454 99.4597ZM29.7999 81.6451L33.767 78.6017L31.5019 75.6492L27.5349 78.6927L23.5678 81.7361L25.8328 84.6886L29.7999 81.6451ZM27.5349 78.6927L31.5018 75.649C30.735 74.6497 30.3965 73.3862 30.5609 72.1371L25.6037 71.4845L20.6465 70.8319C20.1359 74.71 21.1867 78.6327 23.5679 81.7363L27.5349 78.6927ZM25.6037 71.4845L30.5609 72.1371L33.731 48.0575L28.7737 47.4049L23.8165 46.7523L20.6465 70.8319L25.6037 71.4845ZM28.7737 47.4049L33.731 48.0576C33.8954 46.8084 34.5496 45.6755 35.5489 44.9087L32.5051 40.9419L29.4612 36.9751C26.3576 39.3567 24.3271 42.8739 23.8165 46.7522L28.7737 47.4049ZM32.5051 40.9419L35.5488 44.9087L54.8178 30.1234L51.774 26.1566L48.7303 22.1898L29.4613 36.9751L32.5051 40.9419ZM51.774 26.1566L54.8177 30.1235C55.817 29.3568 57.0804 29.0183 58.3296 29.1827L58.9822 24.2255L59.6348 19.2683C55.7567 18.7577 51.834 19.8084 48.7304 22.1898L51.774 26.1566ZM58.9822 24.2255L58.3296 29.1827L82.4092 32.3528L83.0618 27.3955L83.7144 22.4383L59.6348 19.2683L58.9822 24.2255ZM83.0618 27.3955L82.4092 32.3527C83.0764 32.4406 83.7167 32.6719 84.2914 33.0284L86.9268 28.7793L89.5622 24.5302C87.8065 23.4413 85.8183 22.7153 83.7145 22.4383L83.0618 27.3955ZM86.9268 28.7793L87.2774 33.767C88.4361 33.6855 89.583 34.0284 90.5017 34.7333L93.5454 30.7665L96.5891 26.7997C93.7192 24.5976 90.1541 23.5401 86.5762 23.7916L86.9268 28.7793ZM93.5454 30.7665L90.5011 34.7329L92.4572 36.2343L95.5015 32.2679L98.5459 28.3015L96.5897 26.8001L93.5454 30.7665ZM95.5015 32.2679L96.1545 37.2251L104.808 36.0852L104.155 31.1281L103.503 26.1709L94.8486 27.3107L95.5015 32.2679ZM104.155 31.1281L104.808 36.0853C106.057 35.9209 107.32 36.2594 108.319 37.0262L111.363 33.0593L114.407 29.0925C111.303 26.7113 107.381 25.6604 103.503 26.1708L104.155 31.1281ZM111.363 33.0593L108.319 37.0261L122.987 48.2811L126.031 44.3144L129.075 40.3476L114.407 29.0926L111.363 33.0593ZM126.031 44.3144L122.987 48.2811C123.986 49.0479 124.64 50.1804 124.805 51.4294L129.762 50.7766L134.719 50.1238C134.208 46.2457 132.178 42.729 129.075 40.3477L126.031 44.3144ZM129.762 50.7766L124.805 51.4292L127.218 69.7594L132.175 69.1068L137.132 68.4542L134.719 50.1239L129.762 50.7766ZM132.175 69.1068L127.218 69.7593C127.382 71.0082 127.044 72.2713 126.277 73.2708L130.244 76.3145L134.211 79.3581C136.592 76.2548 137.643 72.3326 137.132 68.4543L132.175 69.1068ZM130.244 76.3145L126.277 73.2711L121.5 79.4975L125.467 82.5409L129.434 85.5843L134.211 79.3579L130.244 76.3145ZM125.467 82.5409L120.51 83.1933L121.109 87.7469L126.066 87.0945L131.024 86.4421L130.424 81.8885L125.467 82.5409ZM126.066 87.0945L121.109 87.7471C121.274 88.9961 120.935 90.2602 120.168 91.2597L124.135 94.3035L128.102 97.3473C130.483 94.2437 131.534 90.3204 131.024 86.4419L126.066 87.0945ZM124.135 94.3035L120.168 91.2597L101.198 115.981L105.165 119.025L109.132 122.069L128.102 97.3473L124.135 94.3035ZM105.165 119.025L101.198 115.981C100.431 116.981 99.2984 117.635 98.0494 117.799L98.702 122.757L99.3547 127.714C103.233 127.203 106.75 125.173 109.132 122.069L105.165 119.025ZM98.702 122.757L98.0493 117.799L85.7399 119.42L86.3926 124.378L87.0454 129.335L99.3548 127.714L98.702 122.757ZM86.3926 124.378L83.0736 120.638C82.367 121.265 81.4869 121.671 80.5417 121.796L81.1944 126.753L81.8472 131.71C84.7924 131.322 87.5252 130.058 89.7116 128.117L86.3926 124.378ZM81.1944 126.753L80.5418 121.796L64.4124 123.919L65.065 128.877L65.7177 133.834L81.8471 131.71L81.1944 126.753ZM65.065 128.877L64.4125 123.919C63.1634 124.084 61.9005 123.745 60.9012 122.978L57.8574 126.945L54.8136 130.912C57.9171 133.293 61.8393 134.344 65.7176 133.834L65.065 128.877ZM57.8574 126.945L60.9011 122.978L47.995 113.075L44.9512 117.042L41.9075 121.009L54.8136 130.912L57.8574 126.945ZM44.9512 117.042L47.995 113.076C46.9956 112.309 46.3414 111.176 46.177 109.927L41.2198 110.579L36.2626 111.232C36.7732 115.11 38.8039 118.628 41.9074 121.009L44.9512 117.042ZM41.2198 110.579L46.1766 109.924L46.0949 109.306L41.138 109.961L36.1812 110.616L36.2629 111.235L41.2198 110.579ZM41.138 109.961L44.1825 105.995L38.9213 101.956L35.8769 105.923L32.8324 109.889L38.0936 113.927L41.138 109.961Z" fill="#2B3333" mask="url(#path-1-inside-1_1274_71725)"/>
<path d="M76.4436 79.8095C76.1786 79.5848 75.9998 79.2751 75.9377 78.9332L73.2042 63.8739C73.1413 63.5279 73.2021 63.1707 73.3759 62.865L80.8493 49.7136C81.0259 49.4027 81.3079 49.1651 81.6442 49.0438L95.8136 43.93C96.1478 43.8094 96.5139 43.8113 96.8467 43.9354L111.11 49.2522C111.437 49.374 111.711 49.6058 111.885 49.9077L119.554 63.191C119.728 63.4929 119.792 63.8462 119.734 64.19L117.207 79.2006C117.148 79.5509 116.967 79.869 116.695 80.098L105.182 89.8122C104.909 90.0428 104.562 90.1682 104.204 90.1657L89.0782 90.0622C88.7265 90.0598 88.3868 89.9339 88.1186 89.7064L76.4436 79.8095Z" fill="#515656"/>
<path d="M44.2853 100.109C44.0199 99.8837 43.8409 99.5736 43.7789 99.2314L39.7725 77.1142C39.7098 76.7681 39.7708 76.4109 39.9447 76.1051L50.9449 56.7699C51.1216 56.4594 51.4032 56.2222 51.7392 56.1008L72.5859 48.5726C72.9198 48.452 73.2857 48.4538 73.6185 48.5776L94.5829 56.3789C94.91 56.5006 95.1843 56.7325 95.3588 57.0347L106.619 76.5373C106.793 76.8395 106.857 77.1931 106.799 77.5372L103.073 99.5936C103.013 99.9437 102.832 100.261 102.561 100.49L85.6176 114.78C85.3445 115.01 84.9982 115.136 84.641 115.133L62.3962 114.992C62.0444 114.99 61.7046 114.864 61.4361 114.637L44.2853 100.109Z" fill="#515656"/>
<path d="M42.7646 65.4773C42.5005 65.253 42.3222 64.9442 42.26 64.6033L39.9726 52.0682C39.9094 51.7224 39.9698 51.3654 40.1431 51.0595L46.3345 40.1314C46.5112 39.8195 46.7938 39.5812 47.1311 39.4597L58.8877 35.2235C59.2223 35.1029 59.589 35.1052 59.9221 35.2299L71.7757 39.6681C72.1016 39.79 72.3749 40.0215 72.5488 40.3228L78.9366 51.3867C79.1105 51.688 79.1743 52.0404 79.1171 52.3836L77.0338 64.8682C76.9752 65.2191 76.7939 65.5377 76.5221 65.7673L66.9752 73.8307C66.7013 74.062 66.3537 74.1876 65.9952 74.1847L53.4354 74.0825C53.0839 74.0797 52.7445 73.9534 52.4766 73.7259L42.7646 65.4773Z" fill="#515656"/>
<path d="M56.2487 104.474L48.7269 88.4828C48.2517 87.4721 48.2518 86.3022 48.727 85.2915L56.2481 69.3007C56.736 68.2634 57.672 67.5064 58.7883 67.2455L75.5482 63.3292C76.6808 63.0645 77.8723 63.3398 78.7733 64.0754L80.3399 65.3551L81.0398 61.4621C81.2427 60.3337 81.9512 59.3597 82.962 58.8187L91.3608 54.3249C92.3864 53.7761 93.6084 53.7338 94.6691 54.2112L103.486 58.1792C104.513 58.6414 105.278 59.5408 105.57 60.6285L108.137 70.2149C108.429 71.3026 108.216 72.4638 107.558 73.3774L101.907 81.2218C101.227 82.1656 100.147 82.7405 98.9848 82.778L93.6417 82.9513L93.6425 95.7788C93.6425 96.9049 93.136 97.9714 92.2637 98.6836L78.7733 109.698C77.8724 110.434 76.6811 110.71 75.5485 110.445L58.7884 106.529C57.6722 106.268 56.7367 105.511 56.2487 104.474Z" fill="#5D6262"/>
<path d="M46.1555 58.3643C45.4345 57.5108 45.1316 56.3803 45.3292 55.2807L46.7324 47.4752C46.9353 46.3469 47.6431 45.3733 48.6539 44.8324L55.3942 41.2254C56.4198 40.6766 57.6419 40.6348 58.7026 41.1121L65.7901 44.3019C66.817 44.764 67.5819 45.6632 67.8733 46.7509L69.9441 54.4792C70.2356 55.567 70.0228 56.7281 69.3645 57.6418L64.8214 63.948C64.1415 64.8917 63.0622 65.4665 61.8997 65.504L54.2589 65.7505C53.113 65.7874 52.0132 65.2982 51.2734 64.4224L46.1555 58.3643Z" fill="#5D6262"/>
</g>
<defs>
<clipPath id="clip0_1274_71725">
<rect width="150" height="150" fill="white"/>
</clipPath>
</defs>
</svg>
