<svg width="200" height="200" viewBox="0 0 200 200" fill="none" xmlns="http://www.w3.org/2000/svg">
<mask id="path-1-inside-1_1274_71364" fill="white">
<path d="M96.2176 23.99C99.4028 22.6706 102.982 22.6707 106.167 23.99L128.302 33.1579L133.221 32.5114C136.639 32.0615 140.096 32.9878 142.831 35.0866L168.522 54.8005C171.258 56.8993 173.048 59.9985 173.498 63.4167L177.724 95.5241C178.174 98.9424 177.248 102.399 175.149 105.134L155.435 130.826C155.384 130.893 155.331 130.96 155.278 131.026C155.456 133.085 155.143 135.176 154.338 137.121L144.905 159.895C143.586 163.081 141.054 165.611 137.869 166.93L115.095 176.364C111.909 177.683 108.33 177.683 105.145 176.364L82.3709 166.93C81.1664 166.431 80.0554 165.759 79.0682 164.944L73.1824 167.383C69.9971 168.702 66.4176 168.702 63.2322 167.383L40.4578 157.95C37.2725 156.63 34.7421 154.099 33.4227 150.914L23.9891 128.14C22.6697 124.955 22.6697 121.376 23.9891 118.19L33.4227 95.4157C33.6826 94.7883 33.99 94.1864 34.3397 93.614C33.6146 90.8759 33.7993 87.9583 34.8953 85.3122L41.2283 70.0212C40.7094 67.494 40.9504 64.8493 41.952 62.4314L50.2527 42.3913C51.5721 39.2062 54.1028 36.6756 57.2879 35.3562L77.3279 27.0554C80.5133 25.736 84.0928 25.736 87.2781 27.0554L88.0467 27.3738L96.2176 23.99Z"/>
</mask>
<path d="M96.2176 23.99C99.4028 22.6706 102.982 22.6707 106.167 23.99L128.302 33.1579L133.221 32.5114C136.639 32.0615 140.096 32.9878 142.831 35.0866L168.522 54.8005C171.258 56.8993 173.048 59.9985 173.498 63.4167L177.724 95.5241C178.174 98.9424 177.248 102.399 175.149 105.134L155.435 130.826C155.384 130.893 155.331 130.96 155.278 131.026C155.456 133.085 155.143 135.176 154.338 137.121L144.905 159.895C143.586 163.081 141.054 165.611 137.869 166.93L115.095 176.364C111.909 177.683 108.33 177.683 105.145 176.364L82.3709 166.93C81.1664 166.431 80.0554 165.759 79.0682 164.944L73.1824 167.383C69.9971 168.702 66.4176 168.702 63.2322 167.383L40.4578 157.95C37.2725 156.63 34.7421 154.099 33.4227 150.914L23.9891 128.14C22.6697 124.955 22.6697 121.376 23.9891 118.19L33.4227 95.4157C33.6826 94.7883 33.99 94.1864 34.3397 93.614C33.6146 90.8759 33.7993 87.9583 34.8953 85.3122L41.2283 70.0212C40.7094 67.494 40.9504 64.8493 41.952 62.4314L50.2527 42.3913C51.5721 39.2062 54.1028 36.6756 57.2879 35.3562L77.3279 27.0554C80.5133 25.736 84.0928 25.736 87.2781 27.0554L88.0467 27.3738L96.2176 23.99Z" fill="#464A4A"/>
<path d="M96.2176 23.99L98.5133 29.5334L98.5137 29.5333L96.2176 23.99ZM106.167 23.99L108.463 18.4466L108.463 18.4466L106.167 23.99ZM128.302 33.1579L126.006 38.7013L127.49 39.3162L129.083 39.1068L128.302 33.1579ZM133.221 32.5114L134.002 38.4603L134.004 38.4601L133.221 32.5114ZM142.831 35.0866L146.483 30.3265L146.483 30.3265L142.831 35.0866ZM168.522 54.8005L164.87 59.5606L164.87 59.5606L168.522 54.8005ZM173.498 63.4167L179.447 62.6336L179.447 62.6334L173.498 63.4167ZM177.724 95.5241L183.673 94.7411L183.673 94.7411L177.724 95.5241ZM175.149 105.134L179.909 108.787L179.909 108.787L175.149 105.134ZM155.435 130.826L150.675 127.173L150.675 127.173L155.435 130.826ZM155.278 131.026L150.59 127.281L149.094 129.154L149.3 131.543L155.278 131.026ZM154.338 137.121L148.794 134.825L148.794 134.825L154.338 137.121ZM144.905 159.895L150.448 162.191L150.448 162.191L144.905 159.895ZM137.869 166.93L135.573 161.387L135.573 161.387L137.869 166.93ZM115.095 176.364L117.39 181.907L117.391 181.907L115.095 176.364ZM105.145 176.364L102.849 181.907L102.849 181.907L105.145 176.364ZM82.3709 166.93L80.0747 172.474L80.0748 172.474L82.3709 166.93ZM79.0682 164.944L82.8888 160.318L80.1059 158.02L76.7716 159.401L79.0682 164.944ZM73.1824 167.383L75.4785 172.926L75.479 172.926L73.1824 167.383ZM63.2322 167.383L65.5283 161.839L65.5282 161.839L63.2322 167.383ZM40.4578 157.95L38.1616 163.493L38.1619 163.493L40.4578 157.95ZM33.4227 150.914L38.9659 148.618L38.9659 148.618L33.4227 150.914ZM23.9891 128.14L18.4458 130.436L18.4458 130.437L23.9891 128.14ZM23.9891 118.19L18.4458 115.894L18.4458 115.894L23.9891 118.19ZM33.4227 95.4157L27.8794 93.1195L27.8794 93.1196L33.4227 95.4157ZM34.3397 93.614L39.4598 96.7419L40.7957 94.5552L40.1398 92.0782L34.3397 93.614ZM34.8953 85.3122L40.4387 87.6082L40.4387 87.6081L34.8953 85.3122ZM41.2283 70.0212L46.7717 72.3171L47.4758 70.6169L47.1057 68.8144L41.2283 70.0212ZM41.952 62.4314L47.4952 64.7275L47.4952 64.7275L41.952 62.4314ZM50.2527 42.3913L44.7095 40.0951L44.7095 40.0952L50.2527 42.3913ZM57.2879 35.3562L54.9918 29.8129L54.9916 29.813L57.2879 35.3562ZM77.3279 27.0554L79.624 32.5987L79.624 32.5987L77.3279 27.0554ZM87.2781 27.0554L89.5743 21.5121L89.5742 21.5121L87.2781 27.0554ZM88.0467 27.3738L85.7505 32.917L88.0464 33.868L90.3424 32.9172L88.0467 27.3738ZM96.2176 23.99L98.5137 29.5333C100.229 28.8229 102.156 28.8229 103.871 29.5333L106.167 23.99L108.463 18.4466C103.808 16.5185 98.577 16.5183 93.9215 18.4467L96.2176 23.99ZM106.167 23.99L103.871 29.5333L126.006 38.7013L128.302 33.1579L130.598 27.6146L108.463 18.4466L106.167 23.99ZM128.302 33.1579L129.083 39.1068L134.002 38.4603L133.221 32.5114L132.439 26.5626L127.52 27.2091L128.302 33.1579ZM133.221 32.5114L134.004 38.4601C135.844 38.2178 137.705 38.7166 139.178 39.8468L142.831 35.0866L146.483 30.3265C142.486 27.259 137.433 25.9051 132.437 26.5628L133.221 32.5114ZM142.831 35.0866L139.178 39.8467L164.87 59.5606L168.522 54.8005L172.175 50.0404L146.483 30.3265L142.831 35.0866ZM168.522 54.8005L164.87 59.5606C166.343 60.6913 167.307 62.3604 167.549 64.2L173.498 63.4167L179.447 62.6334C178.789 57.6367 176.172 53.1073 172.175 50.0404L168.522 54.8005ZM173.498 63.4167L167.549 64.1998L171.776 96.3072L177.724 95.5241L183.673 94.7411L179.447 62.6336L173.498 63.4167ZM177.724 95.5241L171.776 96.3072C172.018 98.1478 171.519 100.009 170.389 101.482L175.149 105.134L179.909 108.787C182.977 104.789 184.331 99.737 183.673 94.7411L177.724 95.5241ZM175.149 105.134L170.389 101.482L150.675 127.173L155.435 130.826L160.195 134.478L179.909 108.787L175.149 105.134ZM155.435 130.826L150.675 127.173C150.657 127.197 150.631 127.23 150.59 127.281L155.278 131.026L159.966 134.771C160.031 134.69 160.11 134.589 160.195 134.478L155.435 130.826ZM155.278 131.026L149.3 131.543C149.396 132.654 149.227 133.779 148.794 134.825L154.338 137.121L159.881 139.417C161.059 136.573 161.516 133.516 161.256 130.509L155.278 131.026ZM154.338 137.121L148.794 134.825L139.362 157.599L144.905 159.895L150.448 162.191L159.881 139.417L154.338 137.121ZM144.905 159.895L139.362 157.599C138.652 159.313 137.289 160.676 135.573 161.387L137.869 166.93L140.165 172.474C144.82 170.546 148.52 166.848 150.448 162.191L144.905 159.895ZM137.869 166.93L135.573 161.387L112.798 170.821L115.095 176.364L117.391 181.907L140.165 172.474L137.869 166.93ZM115.095 176.364L112.799 170.821C111.083 171.531 109.156 171.531 107.441 170.821L105.145 176.364L102.849 181.907C107.505 183.836 112.735 183.835 117.39 181.907L115.095 176.364ZM105.145 176.364L107.441 170.821L84.667 161.387L82.3709 166.93L80.0748 172.474L102.849 181.907L105.145 176.364ZM82.3709 166.93L84.6671 161.387C84.018 161.118 83.42 160.756 82.8888 160.318L79.0682 164.944L75.2476 169.57C76.6907 170.762 78.3148 171.745 80.0747 172.474L82.3709 166.93ZM79.0682 164.944L76.7716 159.401L70.8859 161.839L73.1824 167.383L75.479 172.926L81.3647 170.487L79.0682 164.944ZM73.1824 167.383L70.8863 161.839C69.1711 162.55 67.2435 162.55 65.5283 161.839L63.2322 167.383L60.9361 172.926C65.5917 174.854 70.823 174.854 75.4785 172.926L73.1824 167.383ZM63.2322 167.383L65.5282 161.839L42.7537 152.407L40.4578 157.95L38.1619 163.493L60.9363 172.926L63.2322 167.383ZM40.4578 157.95L42.754 152.407C41.0396 151.697 39.6767 150.334 38.9659 148.618L33.4227 150.914L27.8794 153.21C29.8074 157.865 33.5055 161.564 38.1616 163.493L40.4578 157.95ZM33.4227 150.914L38.9659 148.618L29.5323 125.844L23.9891 128.14L18.4458 130.437L27.8794 153.21L33.4227 150.914ZM23.9891 128.14L29.5323 125.844C28.8219 124.129 28.8219 122.201 29.5324 120.486L23.9891 118.19L18.4458 115.894C16.5174 120.55 16.5174 125.781 18.4458 130.436L23.9891 128.14ZM23.9891 118.19L29.5323 120.486L38.9659 97.7119L33.4227 95.4157L27.8794 93.1196L18.4458 115.894L23.9891 118.19ZM33.4227 95.4157L38.9659 97.712C39.1049 97.3765 39.2701 97.0524 39.4598 96.7419L34.3397 93.614L29.2195 90.4861C28.7098 91.3204 28.2603 92.2 27.8794 93.1195L33.4227 95.4157ZM34.3397 93.614L40.1398 92.0782C39.7491 90.6027 39.849 89.0317 40.4387 87.6082L34.8953 85.3122L29.352 83.0163C27.7496 86.8849 27.4802 91.1492 28.5395 95.1498L34.3397 93.614ZM34.8953 85.3122L40.4387 87.6081L46.7717 72.3171L41.2283 70.0212L35.685 67.7253L29.3519 83.0164L34.8953 85.3122ZM41.2283 70.0212L47.1057 68.8144C46.8261 67.4529 46.9562 66.0288 47.4952 64.7275L41.952 62.4314L36.4087 60.1353C34.9447 63.6698 34.5927 67.5352 35.351 71.2281L41.2283 70.0212ZM41.952 62.4314L47.4952 64.7275L55.796 44.6874L50.2527 42.3913L44.7095 40.0952L36.4087 60.1353L41.952 62.4314ZM50.2527 42.3913L55.796 44.6875C56.5064 42.9726 57.869 41.6099 59.5842 40.8994L57.2879 35.3562L54.9916 29.813C50.3366 31.7414 46.6379 35.4398 44.7095 40.0951L50.2527 42.3913ZM57.2879 35.3562L59.584 40.8995L79.624 32.5987L77.3279 27.0554L75.0319 21.5121L54.9918 29.8129L57.2879 35.3562ZM77.3279 27.0554L79.624 32.5987C81.3392 31.8882 83.2668 31.8882 84.982 32.5987L87.2781 27.0554L89.5742 21.5121C84.9187 19.5837 79.6874 19.5837 75.0318 21.5121L77.3279 27.0554ZM87.2781 27.0554L84.9819 32.5986L85.7505 32.917L88.0467 27.3738L90.3429 21.8305L89.5743 21.5121L87.2781 27.0554ZM88.0467 27.3738L90.3424 32.9172L98.5133 29.5334L96.2176 23.99L93.9219 18.4465L85.751 21.8303L88.0467 27.3738Z" fill="#2B3333" mask="url(#path-1-inside-1_1274_71364)"/>
<path d="M73.1626 88.0791C73.5987 87.9228 74.0756 87.9228 74.5117 88.0791L93.723 94.9622C94.1645 95.1203 94.5364 95.4286 94.7736 95.8331L104.977 113.23C105.218 113.641 105.305 114.125 105.221 114.595L101.679 134.365C101.596 134.831 101.35 135.253 100.984 135.555L85.3363 148.48C84.9779 148.776 84.5275 148.938 84.0626 148.938H63.6117C63.1468 148.938 62.6964 148.776 62.338 148.48L46.69 135.555C46.3248 135.253 46.0785 134.831 45.995 134.365L42.4536 114.595C42.3695 114.125 42.4559 113.641 42.6971 113.23L52.9007 95.8331C53.138 95.4286 53.5098 95.1203 53.9513 94.9622L73.1626 88.0791Z" fill="#515656"/>
<path d="M100.159 34.0819C100.597 33.9239 101.077 33.9239 101.515 34.0819L133.578 45.6397C134.02 45.7989 134.392 46.1084 134.628 46.5139L151.677 75.7599C151.916 76.1696 152.002 76.6508 151.918 77.1177L145.999 110.367C145.916 110.832 145.671 111.253 145.308 111.555L119.178 133.27C118.819 133.568 118.367 133.732 117.9 133.732H83.7747C83.3077 133.732 82.8555 133.568 82.4964 133.27L56.3664 111.555C56.0031 111.253 55.7584 110.832 55.6756 110.367L49.7559 77.1177C49.6728 76.6508 49.7583 76.1696 49.9971 75.7599L67.0462 46.5139C67.2826 46.1084 67.6542 45.7989 68.0958 45.6397L100.159 34.0819Z" fill="#515656"/>
<path d="M144.327 55.2404C144.762 55.0849 145.238 55.0849 145.673 55.2404L161.672 60.9558C162.113 61.1134 162.485 61.4211 162.723 61.8251L171.214 76.2598C171.457 76.6718 171.543 77.157 171.459 77.6275L168.513 94.0269C168.429 94.4937 168.182 94.9155 167.816 95.2171L154.788 105.946C154.43 106.241 153.981 106.402 153.517 106.402H136.483C136.019 106.402 135.57 106.241 135.212 105.946L122.184 95.2171C121.818 94.9155 121.571 94.4937 121.487 94.0269L118.541 77.6275C118.457 77.157 118.543 76.6718 118.786 76.2598L127.277 61.8251C127.515 61.4211 127.887 61.1134 128.328 60.9558L144.327 55.2404Z" fill="#515656"/>
<path d="M85.505 48.2691L110.265 50.3521C111.749 50.477 113.101 51.257 113.951 52.48L128.136 72.8814C129.008 74.1365 129.259 75.7222 128.816 77.1851L121.798 100.358C121.349 101.842 120.236 103.034 118.786 103.584L95.882 112.27C95.7686 112.313 95.6535 112.35 95.5382 112.384L95.3664 117.713C95.3164 119.263 94.5502 120.702 93.2922 121.609L82.3234 129.511C81.1052 130.389 79.5569 130.672 78.1066 130.284L64.7101 126.695C63.2598 126.306 62.0607 125.286 61.4445 123.917L55.8966 111.589C55.2602 110.175 55.3163 108.546 56.048 107.178L62.3341 95.4312C63.0554 94.0835 64.3532 93.1392 65.8576 92.8687L66.9943 92.6636L63.591 71.7164C63.3423 70.1857 63.8174 68.626 64.8781 67.4947L81.4377 49.8316C82.4831 48.7164 83.9818 48.1409 85.505 48.2691Z" fill="#5D6262"/>
</svg>
