<svg width="250" height="250" viewBox="0 0 250 250" fill="none" xmlns="http://www.w3.org/2000/svg">
<mask id="path-1-inside-1_1275_72074" fill="white">
<path d="M93.0327 12.2368C97.0142 10.5877 101.488 10.5877 105.469 12.2368L127.68 21.437C131.662 23.0863 134.826 26.2502 136.475 30.2319L139.163 36.7212L144.65 38.9946L146.274 36.8794C148.897 33.4603 152.772 31.2232 157.044 30.6606L181.516 27.439C185.789 26.8764 190.111 28.0341 193.53 30.6577L213.112 45.6841C216.531 48.3077 218.768 52.1818 219.331 56.4546L222.552 80.9263C222.641 81.5968 222.685 82.2688 222.69 82.938C224.736 85.3165 226.067 88.2558 226.483 91.4136L231.767 131.546C232.33 135.819 231.172 140.141 228.548 143.56L203.906 175.675C201.282 179.094 197.407 181.331 193.134 181.893L189.27 182.401L175.792 214.941C174.143 218.922 170.98 222.086 166.999 223.735L133.12 237.768C129.138 239.417 124.664 239.417 120.682 237.768L86.8042 223.735C84.302 222.698 82.1231 221.064 80.4399 219.004C76.5313 220.537 72.1766 220.499 68.2905 218.889L39.8227 207.098C35.8412 205.449 32.678 202.285 31.0288 198.303L19.2368 169.835C17.5877 165.854 17.5877 161.38 19.2368 157.399L26.9624 138.747L22.8169 128.739C21.1676 124.757 21.1676 120.283 22.8169 116.301L27.5005 104.992L20.8266 88.8804C19.1774 84.8987 19.1774 80.4245 20.8266 76.4429L32.3706 48.5747C34.0199 44.5932 37.183 41.43 41.1645 39.7808L61.5727 31.3267L62.0268 30.2319C63.6761 26.2502 66.84 23.0863 70.8218 21.437L93.0327 12.2368Z"/>
</mask>
<path d="M93.0327 12.2368C97.0142 10.5877 101.488 10.5877 105.469 12.2368L127.68 21.437C131.662 23.0863 134.826 26.2502 136.475 30.2319L139.163 36.7212L144.65 38.9946L146.274 36.8794C148.897 33.4603 152.772 31.2232 157.044 30.6606L181.516 27.439C185.789 26.8764 190.111 28.0341 193.53 30.6577L213.112 45.6841C216.531 48.3077 218.768 52.1818 219.331 56.4546L222.552 80.9263C222.641 81.5968 222.685 82.2688 222.69 82.938C224.736 85.3165 226.067 88.2558 226.483 91.4136L231.767 131.546C232.33 135.819 231.172 140.141 228.548 143.56L203.906 175.675C201.282 179.094 197.407 181.331 193.134 181.893L189.27 182.401L175.792 214.941C174.143 218.922 170.98 222.086 166.999 223.735L133.12 237.768C129.138 239.417 124.664 239.417 120.682 237.768L86.8042 223.735C84.302 222.698 82.1231 221.064 80.4399 219.004C76.5313 220.537 72.1766 220.499 68.2905 218.889L39.8227 207.098C35.8412 205.449 32.678 202.285 31.0288 198.303L19.2368 169.835C17.5877 165.854 17.5877 161.38 19.2368 157.399L26.9624 138.747L22.8169 128.739C21.1676 124.757 21.1676 120.283 22.8169 116.301L27.5005 104.992L20.8266 88.8804C19.1774 84.8987 19.1774 80.4245 20.8266 76.4429L32.3706 48.5747C34.0199 44.5932 37.183 41.43 41.1645 39.7808L61.5727 31.3267L62.0268 30.2319C63.6761 26.2502 66.84 23.0863 70.8218 21.437L93.0327 12.2368Z" fill="#464A4A"/>
<path d="M93.0327 12.2368L90.7367 6.69348L90.7366 6.69355L93.0327 12.2368ZM105.469 12.2368L107.765 6.69355L107.765 6.69348L105.469 12.2368ZM127.68 21.437L125.384 26.9803L125.384 26.9803L127.68 21.437ZM136.475 30.2319L142.018 27.9361L142.018 27.9358L136.475 30.2319ZM139.163 36.7212L133.619 39.017L134.57 41.313L136.866 42.2643L139.163 36.7212ZM144.65 38.9946L142.353 44.5377L146.606 46.2996L149.409 42.6485L144.65 38.9946ZM146.274 36.8794L151.033 40.5333L151.034 40.532L146.274 36.8794ZM157.044 30.6606L156.261 24.712L156.261 24.712L157.044 30.6606ZM181.516 27.439L182.299 33.3876L182.299 33.3876L181.516 27.439ZM193.53 30.6577L197.182 25.8977L197.182 25.8976L193.53 30.6577ZM213.112 45.6841L209.459 50.4441L209.459 50.4442L213.112 45.6841ZM219.331 56.4546L225.279 55.6714L225.279 55.6713L219.331 56.4546ZM222.552 80.9263L216.604 81.7094L216.604 81.7094L222.552 80.9263ZM222.69 82.938L216.69 82.9786L216.705 85.1811L218.141 86.8508L222.69 82.938ZM226.483 91.4136L220.534 92.1967V92.1968L226.483 91.4136ZM231.767 131.546L237.716 130.763L237.716 130.763L231.767 131.546ZM228.548 143.56L233.308 147.213L233.309 147.213L228.548 143.56ZM203.906 175.675L208.666 179.328L208.666 179.328L203.906 175.675ZM193.134 181.893L193.916 187.842L193.917 187.842L193.134 181.893ZM189.27 182.401L188.488 176.452L185.053 176.904L183.727 180.105L189.27 182.401ZM175.792 214.941L181.336 217.237L181.336 217.237L175.792 214.941ZM166.999 223.735L169.295 229.278L169.295 229.278L166.999 223.735ZM133.12 237.768L135.416 243.311L135.416 243.311L133.12 237.768ZM120.682 237.768L118.386 243.311L118.386 243.311L120.682 237.768ZM86.8042 223.735L89.1003 218.192L89.1003 218.192L86.8042 223.735ZM80.4399 219.004L85.0858 215.208L82.3197 211.823L78.2499 213.418L80.4399 219.004ZM68.2905 218.889L70.5866 213.346L70.5865 213.346L68.2905 218.889ZM39.8227 207.098L37.5265 212.641L37.5268 212.641L39.8227 207.098ZM31.0288 198.303L36.5721 196.007L36.572 196.007L31.0288 198.303ZM19.2368 169.835L13.6935 172.131L13.6935 172.132L19.2368 169.835ZM19.2368 157.399L13.6935 155.103L13.6935 155.103L19.2368 157.399ZM26.9624 138.747L32.5057 141.043L33.4567 138.746L32.5056 136.45L26.9624 138.747ZM22.8169 128.739L17.2736 131.035L17.2736 131.035L22.8169 128.739ZM22.8169 116.301L28.3601 118.597L28.3603 118.597L22.8169 116.301ZM27.5005 104.992L33.0439 107.287L33.9947 104.991L33.0437 102.696L27.5005 104.992ZM20.8266 88.8804L15.2834 91.1765L15.2834 91.1766L20.8266 88.8804ZM20.8266 76.4429L15.2834 74.1467L15.2833 74.1468L20.8266 76.4429ZM32.3706 48.5747L26.8274 46.2785L26.8273 46.2785L32.3706 48.5747ZM41.1645 39.7808L43.4607 45.324L43.4608 45.324L41.1645 39.7808ZM61.5727 31.3267L63.869 36.8699L66.1633 35.9194L67.1148 33.6256L61.5727 31.3267ZM62.0268 30.2319L67.5689 32.5308L67.5701 32.528L62.0268 30.2319ZM70.8218 21.437L73.1179 26.9803L73.1179 26.9803L70.8218 21.437ZM93.0327 12.2368L95.3287 17.7801C97.8401 16.74 100.662 16.74 103.173 17.7801L105.469 12.2368L107.765 6.69348C102.314 4.4355 96.1883 4.43551 90.7367 6.69348L93.0327 12.2368ZM105.469 12.2368L103.173 17.7801L125.384 26.9803L127.68 21.437L129.976 15.8937L107.765 6.69355L105.469 12.2368ZM127.68 21.437L125.384 26.9803C127.896 28.0206 129.891 30.0165 130.932 32.528L136.475 30.2319L142.018 27.9358C139.76 22.484 135.428 18.152 129.976 15.8937L127.68 21.437ZM136.475 30.2319L130.932 32.5277L133.619 39.017L139.163 36.7212L144.706 34.4254L142.018 27.9361L136.475 30.2319ZM139.163 36.7212L136.866 42.2643L142.353 44.5377L144.65 38.9946L146.946 33.4515L141.459 31.1781L139.163 36.7212ZM144.65 38.9946L149.409 42.6485L151.033 40.5333L146.274 36.8794L141.515 33.2255L139.891 35.3407L144.65 38.9946ZM146.274 36.8794L151.034 40.532C152.689 38.3751 155.133 36.9641 157.828 36.6093L157.044 30.6606L156.261 24.712C150.41 25.4823 145.106 28.5455 141.514 33.2268L146.274 36.8794ZM157.044 30.6606L157.828 36.6093L182.299 33.3876L181.516 27.439L180.733 21.4903L156.261 24.712L157.044 30.6606ZM181.516 27.439L182.299 33.3876C184.995 33.0328 187.721 33.7631 189.877 35.4178L193.53 30.6577L197.182 25.8976C192.5 22.3051 186.583 20.7201 180.733 21.4903L181.516 27.439ZM193.53 30.6577L189.877 35.4178L209.459 50.4441L213.112 45.6841L216.764 40.924L197.182 25.8977L193.53 30.6577ZM213.112 45.6841L209.459 50.4442C211.616 52.0992 213.027 54.5429 213.382 57.2378L219.331 56.4546L225.279 55.6713C224.509 49.8206 221.446 44.5161 216.764 40.924L213.112 45.6841ZM219.331 56.4546L213.382 57.2377L216.604 81.7094L222.552 80.9263L228.501 80.1431L225.279 55.6714L219.331 56.4546ZM222.552 80.9263L216.604 81.7094C216.658 82.1266 216.687 82.5504 216.69 82.9786L222.69 82.938L228.69 82.8974C228.684 81.9871 228.623 81.067 228.501 80.1431L222.552 80.9263ZM222.69 82.938L218.141 86.8508C219.433 88.3527 220.272 90.2067 220.534 92.1967L226.483 91.4136L232.432 90.6304C231.862 86.3048 230.039 82.2803 227.238 79.0251L222.69 82.938ZM226.483 91.4136L220.534 92.1968L225.818 132.33L231.767 131.546L237.716 130.763L232.432 90.6303L226.483 91.4136ZM231.767 131.546L225.818 132.33C226.173 135.025 225.443 137.751 223.788 139.908L228.548 143.56L233.309 147.213C236.901 142.531 238.486 136.613 237.716 130.763L231.767 131.546ZM228.548 143.56L223.788 139.908L199.146 172.023L203.906 175.675L208.666 179.328L233.308 147.213L228.548 143.56ZM203.906 175.675L199.146 172.023C197.491 174.179 195.047 175.589 192.351 175.944L193.134 181.893L193.917 187.842C199.767 187.072 205.073 184.01 208.666 179.328L203.906 175.675ZM193.134 181.893L192.352 175.944L188.488 176.452L189.27 182.401L190.052 188.35L193.916 187.842L193.134 181.893ZM189.27 182.401L183.727 180.105L170.249 212.645L175.792 214.941L181.336 217.237L194.813 184.697L189.27 182.401ZM175.792 214.941L170.249 212.645C169.209 215.156 167.214 217.151 164.702 218.192L166.999 223.735L169.295 229.278C174.746 227.02 179.077 222.689 181.336 217.237L175.792 214.941ZM166.999 223.735L164.702 218.192L130.823 232.225L133.12 237.768L135.416 243.311L169.295 229.278L166.999 223.735ZM133.12 237.768L130.824 232.225C128.312 233.265 125.49 233.265 122.978 232.225L120.682 237.768L118.386 243.311C123.838 245.57 129.964 245.569 135.416 243.311L133.12 237.768ZM120.682 237.768L122.978 232.225L89.1003 218.192L86.8042 223.735L84.508 229.278L118.386 243.311L120.682 237.768ZM86.8042 223.735L89.1003 218.192C87.5223 217.538 86.1479 216.507 85.0858 215.208L80.4399 219.004L75.794 222.801C78.0983 225.621 81.0818 227.859 84.508 229.278L86.8042 223.735ZM80.4399 219.004L78.2499 213.418C75.7839 214.385 73.0371 214.361 70.5866 213.346L68.2905 218.889L65.9944 224.432C71.3161 226.637 77.2787 226.688 82.6299 224.59L80.4399 219.004ZM68.2905 218.889L70.5865 213.346L42.1187 201.555L39.8227 207.098L37.5268 212.641L65.9945 224.432L68.2905 218.889ZM39.8227 207.098L42.119 201.555C39.608 200.515 37.6126 198.519 36.5721 196.007L31.0288 198.303L25.4855 200.599C27.7435 206.051 32.0743 210.383 37.5265 212.641L39.8227 207.098ZM31.0288 198.303L36.572 196.007L24.7801 167.539L19.2368 169.835L13.6935 172.132L25.4855 200.599L31.0288 198.303ZM19.2368 169.835L24.7801 167.54C23.74 165.028 23.74 162.206 24.7801 159.695L19.2368 157.399L13.6935 155.103C11.4355 160.555 11.4355 166.68 13.6935 172.131L19.2368 169.835ZM19.2368 157.399L24.7801 159.695L32.5057 141.043L26.9624 138.747L21.4191 136.451L13.6935 155.103L19.2368 157.399ZM26.9624 138.747L32.5056 136.45L28.3601 126.443L22.8169 128.739L17.2736 131.035L21.4191 141.043L26.9624 138.747ZM22.8169 128.739L28.3601 126.443C27.3198 123.931 27.3198 121.109 28.3601 118.597L22.8169 116.301L17.2736 114.005C15.0154 119.457 15.0154 125.583 17.2736 131.035L22.8169 128.739ZM22.8169 116.301L28.3603 118.597L33.0439 107.287L27.5005 104.992L21.957 102.696L17.2734 114.006L22.8169 116.301ZM27.5005 104.992L33.0437 102.696L26.3699 86.5842L20.8266 88.8804L15.2834 91.1766L21.9572 107.288L27.5005 104.992ZM20.8266 88.8804L26.3699 86.5843C25.3297 84.0728 25.3297 81.2505 26.3699 78.7389L20.8266 76.4429L15.2833 74.1468C13.0252 79.5986 13.0251 85.7246 15.2834 91.1765L20.8266 88.8804ZM20.8266 76.4429L26.3699 78.7391L37.9138 50.8709L32.3706 48.5747L26.8273 46.2785L15.2834 74.1467L20.8266 76.4429ZM32.3706 48.5747L37.9138 50.8709C38.9541 48.3595 40.9493 46.3643 43.4607 45.324L41.1645 39.7808L38.8684 34.2375C33.4167 36.4957 29.0856 40.8269 26.8274 46.2785L32.3706 48.5747ZM41.1645 39.7808L43.4608 45.324L63.869 36.8699L61.5727 31.3267L59.2765 25.7835L38.8683 34.2376L41.1645 39.7808ZM61.5727 31.3267L67.1148 33.6256L67.5689 32.5308L62.0268 30.2319L56.4847 27.933L56.0306 29.0277L61.5727 31.3267ZM62.0268 30.2319L67.5701 32.528C68.6104 30.0165 70.6063 28.0206 73.1179 26.9803L70.8218 21.437L68.5257 15.8937C63.0738 18.152 58.7418 22.484 56.4836 27.9358L62.0268 30.2319ZM70.8218 21.437L73.1179 26.9803L95.3288 17.7801L93.0327 12.2368L90.7366 6.69355L68.5256 15.8937L70.8218 21.437Z" fill="#2B3333" mask="url(#path-1-inside-1_1275_72074)"/>
<path d="M80.7041 119.76C81.2493 119.565 81.8454 119.565 82.3906 119.76L106.405 128.364C106.957 128.562 107.421 128.947 107.718 129.453L120.472 151.199C120.774 151.713 120.882 152.318 120.777 152.905L116.35 177.618C116.246 178.201 115.938 178.727 115.481 179.105L95.9213 195.261C95.4733 195.631 94.9103 195.833 94.3292 195.833H68.7655C68.1844 195.833 67.6215 195.631 67.1734 195.261L47.6134 179.105C47.1569 178.727 46.849 178.201 46.7447 177.618L42.3179 152.905C42.2128 152.318 42.3207 151.713 42.6223 151.199L55.3768 129.453C55.6734 128.947 56.1382 128.562 56.69 128.364L80.7041 119.76Z" fill="#515656"/>
<path d="M132.666 153.295C133.205 153.104 133.794 153.104 134.333 153.295L155.465 160.77C156.017 160.965 156.482 161.347 156.781 161.85L167.983 180.706C168.291 181.224 168.401 181.836 168.294 182.429L164.408 203.842C164.302 204.428 163.99 204.957 163.528 205.333L146.331 219.357C145.885 219.721 145.327 219.919 144.751 219.919H122.248C121.672 219.919 121.114 219.721 120.668 219.357L103.471 205.333C103.009 204.957 102.697 204.428 102.591 203.842L98.7059 182.429C98.5983 181.836 98.7086 181.224 99.0165 180.706L110.218 161.85C110.517 161.347 110.983 160.965 111.534 160.77L132.666 153.295Z" fill="#515656"/>
<path d="M180.154 78.3043C180.701 78.1076 181.299 78.1076 181.846 78.3043L207.142 87.4019C207.694 87.6004 208.159 87.9867 208.455 88.4931L221.897 111.499C222.197 112.012 222.304 112.615 222.2 113.2L217.534 139.349C217.43 139.931 217.123 140.457 216.668 140.834L196.059 157.922C195.61 158.294 195.046 158.497 194.463 158.497H167.537C166.954 158.497 166.389 158.294 165.941 157.922L145.331 140.834C144.876 140.457 144.57 139.931 144.466 139.349L139.799 113.2C139.695 112.615 139.802 112.012 140.102 111.499L153.545 88.4931C153.841 87.9867 154.305 87.6004 154.857 87.4019L180.154 78.3043Z" fill="#515656"/>
<path d="M184.158 89.3008C184.702 89.1063 185.297 89.1063 185.841 89.3008L202.144 95.1285C202.696 95.3257 203.16 95.7105 203.457 96.2157L212.105 110.927C212.408 111.442 212.516 112.048 212.411 112.636L209.411 129.346C209.306 129.93 208.997 130.457 208.54 130.834L195.269 141.771C194.821 142.14 194.259 142.342 193.679 142.342H176.321C175.74 142.342 175.178 142.14 174.731 141.771L161.46 130.834C161.002 130.457 160.694 129.93 160.589 129.346L157.589 112.636C157.483 112.048 157.592 111.442 157.894 110.927L166.542 96.2157C166.839 95.7105 167.304 95.3257 167.856 95.1285L184.158 89.3008Z" fill="#5D6262"/>
<path d="M130.172 184.291C130.708 184.102 131.292 184.102 131.828 184.291L139.146 186.859C139.697 187.053 140.163 187.433 140.463 187.934L144.303 194.348C144.615 194.869 144.727 195.485 144.618 196.082L143.291 203.339C143.183 203.927 142.869 204.457 142.404 204.833L136.476 209.629C136.031 209.989 135.476 210.186 134.903 210.186H127.096C126.524 210.186 125.969 209.989 125.524 209.629L119.595 204.833C119.131 204.457 118.816 203.927 118.709 203.339L117.382 196.082C117.273 195.485 117.384 194.869 117.696 194.348L121.536 187.934C121.836 187.433 122.302 187.053 122.853 186.859L130.172 184.291Z" fill="#5D6262"/>
<path d="M186.163 51.2974C186.704 51.105 187.295 51.105 187.837 51.2974L199.645 55.4928C200.196 55.6888 200.661 56.072 200.959 56.5759L207.207 67.1391C207.513 67.6558 207.622 68.2653 207.515 68.8561L205.35 80.8439C205.244 81.4287 204.934 81.9569 204.474 82.3335L194.873 90.1977C194.426 90.5637 193.867 90.7637 193.289 90.7637H180.711C180.133 90.7637 179.573 90.5637 179.126 90.1977L169.526 82.3335C169.066 81.9569 168.755 81.4287 168.65 80.8439L166.484 68.8561C166.378 68.2653 166.487 67.6558 166.793 67.1391L173.04 56.5759C173.338 56.072 173.803 55.6888 174.355 55.4928L186.163 51.2974Z" fill="#515656"/>
<path d="M114.151 53.3066C114.699 53.1085 115.3 53.1085 115.849 53.3066L155.284 67.5475C155.836 67.7469 156.3 68.1342 156.595 68.6416L177.566 104.681C177.864 105.193 177.971 105.793 177.867 106.376L170.585 147.351C170.482 147.931 170.177 148.457 169.723 148.834L137.584 175.592C137.135 175.966 136.569 176.17 135.985 176.17H94.0149C93.4305 176.17 92.8645 175.966 92.4154 175.592L60.2762 148.834C59.8228 148.457 59.5175 147.931 59.4143 147.351L52.1325 106.376C52.0289 105.793 52.1354 105.193 52.4331 104.681L73.4043 68.6416C73.6996 68.1342 74.1639 67.7469 74.716 67.5475L114.151 53.3066Z" fill="#464A4A"/>
<path d="M114.151 60.3061C114.7 60.1083 115.3 60.1083 115.848 60.3061L150.784 72.9102C151.336 73.1093 151.801 73.4964 152.096 74.0035L170.672 105.896C170.97 106.408 171.077 107.009 170.973 107.592L164.523 143.85C164.42 144.431 164.114 144.957 163.661 145.334L135.19 169.015C134.741 169.388 134.175 169.593 133.591 169.593H96.4084C95.8244 169.593 95.2588 169.388 94.8097 169.015L66.339 145.334C65.8852 144.957 65.5796 144.431 65.4762 143.85L59.0264 107.592C58.9227 107.009 59.0294 106.408 59.3275 105.896L77.9036 74.0035C78.199 73.4964 78.6634 73.1093 79.2155 72.9102L114.151 60.3061Z" fill="#515656"/>
<path d="M99.1587 27.3004C99.7026 27.1062 100.297 27.1062 100.841 27.3004L116.501 32.8947C117.053 33.0918 117.518 33.4765 117.815 33.9815L126.12 48.1001C126.423 48.6152 126.531 49.2217 126.426 49.8098L123.545 65.8461C123.44 66.4296 123.131 66.9569 122.674 67.3338L109.927 77.8316C109.479 78.2003 108.917 78.4019 108.337 78.4019H91.6622C91.0823 78.4019 90.5205 78.2003 90.0728 77.8316L77.326 67.3338C76.8683 66.9569 76.5595 66.4296 76.4547 65.8461L73.5737 49.8098C73.468 49.2217 73.5765 48.6152 73.8795 48.1001L82.1847 33.9815C82.4818 33.4765 82.9467 33.0918 83.4985 32.8947L99.1587 27.3004Z" fill="#515656"/>
<path d="M68.1569 51.3018C68.7019 51.1067 69.2976 51.1067 69.8426 51.3018L88.072 57.8298C88.6238 58.0274 89.0887 58.4126 89.3853 58.9181L99.0612 75.4069C99.363 75.9211 99.471 76.5263 99.3658 77.1132L96.0084 95.8471C95.9039 96.43 95.5959 96.957 95.1392 97.334L80.2954 109.589C79.8474 109.958 79.2846 110.161 78.7038 110.161H59.2958C58.7149 110.161 58.1521 109.958 57.7041 109.589L42.8603 97.334C42.4036 96.9569 42.0956 96.43 41.9912 95.8471L38.6337 77.1132C38.5285 76.5263 38.6366 75.9211 38.9383 75.4069L48.6142 58.9181C48.9108 58.4126 49.3757 58.0274 49.9275 57.8298L68.1569 51.3018Z" fill="#515656"/>
<path d="M114.154 75.3043C114.701 75.1076 115.299 75.1076 115.846 75.3043L141.142 84.4019C141.694 84.6004 142.159 84.9867 142.455 85.4931L155.897 108.499C156.197 109.012 156.304 109.615 156.2 110.2L151.534 136.349C151.43 136.931 151.123 137.457 150.668 137.834L130.059 154.922C129.61 155.294 129.046 155.497 128.463 155.497H101.537C100.954 155.497 100.389 155.294 99.9408 154.922L79.3313 137.834C78.8763 137.457 78.5697 136.931 78.4659 136.349L73.7995 110.2C73.6951 109.615 73.8024 109.012 74.1021 108.499L87.5446 85.4931C87.8405 84.9867 88.3051 84.6004 88.8571 84.4019L114.154 75.3043Z" fill="#5D6262"/>
<path d="M76.1612 63.2986C76.7036 63.1055 77.296 63.1055 77.8383 63.2986L90.9301 67.96C91.4817 68.1564 91.9469 68.5402 92.2445 69.0445L99.1782 80.793C99.4828 81.309 99.5919 81.9173 99.4856 82.5071L97.0815 95.8447C96.9762 96.4291 96.6663 96.9569 96.2073 97.3336L85.5577 106.075C85.1106 106.442 84.55 106.643 83.9716 106.643H70.028C69.4495 106.643 68.8889 106.442 68.4418 106.075L57.7922 97.3336C57.3332 96.9569 57.0233 96.4291 56.918 95.8447L54.514 82.5071C54.4077 81.9173 54.5167 81.309 54.8213 80.793L61.755 69.0445C62.0526 68.5402 62.5178 68.1564 63.0694 67.96L76.1612 63.2986Z" fill="#5D6262"/>
<path d="M99.17 37.2919C99.707 37.103 100.292 37.103 100.829 37.2919L108.789 40.0923C109.34 40.2862 109.806 40.667 110.105 41.1686L114.29 48.1757C114.601 48.6955 114.712 49.3105 114.603 49.9062L113.156 57.8398C113.049 58.4272 112.735 58.9567 112.272 59.3328L105.818 64.5671C105.373 64.9284 104.817 65.1255 104.244 65.1255H95.7559C95.1824 65.1255 94.6264 64.9284 94.181 64.5671L87.7279 59.3328C87.2642 58.9567 86.9505 58.4272 86.8434 57.8398L85.3962 49.9062C85.2875 49.3105 85.3988 48.6955 85.7093 48.1757L89.8943 41.1686C90.1939 40.667 90.6597 40.2862 91.2109 40.0923L99.17 37.2919Z" fill="#5D6262"/>
</svg>
