<svg width="100" height="100" viewBox="0 0 100 100" fill="none" xmlns="http://www.w3.org/2000/svg">
<path d="M62.4531 16L72.8809 16.1621L77.9775 16.6309L81.876 17.3906L85.042 18.4248L87.6709 19.7227L89.8633 21.2812L91.7178 23.1357L93.2764 25.3281L94.5742 27.957L95.6084 31.123L96.3682 35.0215L96.8369 40.1182L96.999 50.5L96.8369 60.8809L96.3682 65.9775L95.6084 69.876L94.5742 73.042L93.2764 75.6709L91.7178 77.8633L89.8633 79.7178L87.6709 81.2764L85.042 82.5742L81.876 83.6084L77.9775 84.3682L72.8809 84.8369L62.4531 85H37.5469L27.1182 84.8369L22.0215 84.3682L18.123 83.6084L14.957 82.5742L12.3281 81.2764L10.1357 79.7178L8.28125 77.8633L6.72266 75.6709L5.4248 73.042L4.39062 69.876L3.63086 65.9775L3.16211 60.8809L3 50.5L3.16211 40.1182L3.63086 35.0215L4.39062 31.123L5.4248 27.957L6.72266 25.3281L8.28125 23.1357L10.1357 21.2812L12.3281 19.7227L14.957 18.4248L18.123 17.3906L22.0215 16.6309L27.1182 16.1621L37.5469 16H62.4531Z" fill="#F5EED5" stroke="#9A9988" stroke-width="6"/>
<circle cx="70" cy="64" r="11" fill="#4D3B3B"/>
<ellipse cx="65.7901" cy="59.7901" rx="4.52671" ry="4.52671" fill="white"/>
<circle cx="30" cy="64" r="11" fill="#4D3B3B"/>
<ellipse cx="25.7901" cy="59.7901" rx="4.52671" ry="4.52671" fill="white"/>
</svg>
