<svg width="100" height="100" viewBox="0 0 100 100" fill="none" xmlns="http://www.w3.org/2000/svg">
<path d="M61.8594 3.12695L67.8008 3.5L72.4736 4.11328L76.3672 4.95508L79.7324 6.02539L82.6582 7.31543L85.2129 8.81934L87.4688 10.5586L89.4404 12.5303L91.1797 14.7861L92.6836 17.3408L93.9736 20.2666L95.0439 23.6318L95.8857 27.5254L96.499 32.1982L96.8721 38.1396L96.999 50L96.8721 61.8594L96.499 67.8008L95.8857 72.4736L95.0439 76.3672L93.9736 79.7324L92.6836 82.6582L91.1797 85.2129L89.4404 87.4688L87.4688 89.4404L85.2129 91.1797L82.6582 92.6836L79.7324 93.9736L76.3672 95.0439L72.4736 95.8857L67.8008 96.499L61.8594 96.8721L50 96.999L38.1396 96.8721L32.1982 96.499L27.5254 95.8857L23.6318 95.0439L20.2666 93.9736L17.3408 92.6836L14.7861 91.1797L12.5303 89.4404L10.5586 87.4688L8.81934 85.2129L7.31543 82.6582L6.02539 79.7324L4.95508 76.3672L4.11328 72.4736L3.5 67.8008L3.12695 61.8594L3 50L3.12695 38.1396L3.5 32.1982L4.11328 27.5254L4.95508 23.6318L6.02539 20.2666L7.31543 17.3408L8.81934 14.7861L10.5586 12.5303L12.5303 10.5586L14.7861 8.81934L17.3408 7.31543L20.2666 6.02539L23.6318 4.95508L27.5254 4.11328L32.1982 3.5L38.1396 3.12695L50 3L61.8594 3.12695Z" fill="#1B4054" stroke="#1A2A33" stroke-width="6"/>
<path d="M12 50L12.166 39.323L12.666 33.887L13.501 29.6L14.675 26.006L16.192 22.934L18.062 20.301L20.301 18.062L22.934 16.192L26.006 14.675L29.6 13.501L33.887 12.666L39.323 12.166L50 12L60.677 12.166L66.113 12.666L70.4 13.501L73.994 14.675L77.066 16.192L79.699 18.062L81.938 20.301L83.808 22.934L85.325 26.006L86.499 29.6L87.334 33.887L87.834 39.323L88 50L87.834 60.677L87.334 66.113L86.499 70.4L85.325 73.994L83.808 77.066L81.938 79.699L79.699 81.938L77.066 83.808L73.994 85.325L70.4 86.499L66.113 87.334L60.677 87.834L50 88L39.323 87.834L33.887 87.334L29.6 86.499L26.006 85.325L22.934 83.808L20.301 81.938L18.062 79.699L16.192 77.066L14.675 73.994L13.501 70.4L12.666 66.113L12.166 60.677L12 50Z" fill="#1F5C7C"/>
<path d="M18 50L18.196 40.067L18.784 35.036L19.768 31.11L21.153 27.874L22.949 25.178L25.178 22.949L27.874 21.153L31.11 19.768L35.036 18.784L40.067 18.196L50 18L59.933 18.196L64.964 18.784L68.89 19.768L72.126 21.153L74.822 22.949L77.051 25.178L78.847 27.874L80.232 31.11L81.216 35.036L81.804 40.067L82 50L81.804 59.933L81.216 64.964L80.232 68.89L78.847 72.126L77.051 74.822L74.822 77.051L72.126 78.847L68.89 80.232L64.964 81.216L59.933 81.804L50 82L40.067 81.804L35.036 81.216L31.11 80.232L27.874 78.847L25.178 77.051L22.949 74.822L21.153 72.126L19.768 68.89L18.784 64.964L18.196 59.933L18 50Z" fill="#4D8DBA"/>
<path d="M25 50L25.229 41.255L25.916 36.867L27.067 33.506L28.694 30.823L30.823 28.694L33.506 27.067L36.867 25.916L41.255 25.229L50 25L58.745 25.229L63.133 25.916L66.494 27.067L69.177 28.694L71.306 30.823L72.933 33.506L74.084 36.867L74.771 41.255L75 50L74.771 58.745L74.084 63.133L72.933 66.494L71.306 69.177L69.177 71.306L66.494 72.933L63.133 74.084L58.745 74.771L50 75L41.255 74.771L36.867 74.084L33.506 72.933L30.823 71.306L28.694 69.177L27.067 66.494L25.916 63.133L25.229 58.745L25 50Z" fill="#1F5C7C"/>
<path d="M30 50L30.302 41.882L31.213 37.881L32.746 34.936L34.936 32.746L37.881 31.213L41.882 30.302L50 30L58.118 30.302L62.119 31.213L65.064 32.746L67.254 34.936L68.787 37.881L69.698 41.882L70 50L69.698 58.118L68.787 62.119L67.254 65.064L65.064 67.254L62.119 68.787L58.118 69.698L50 70L41.882 69.698L37.881 68.787L34.936 67.254L32.746 65.064L31.213 62.119L30.302 58.118L30 50Z" fill="#1B4054"/>
<path d="M40 75L40.206 70.556L40.827 68.402L41.877 66.877L43.402 65.827L45.556 65.206L50 65L54.444 65.206L56.598 65.827L58.123 66.877L59.173 68.402L59.794 70.556L60 75V78L59.794 82.444L59.173 84.598L58.123 86.123L56.598 87.173L54.444 87.794L50 88L45.556 87.794L43.402 87.173L41.877 86.123L40.827 84.598L40.206 82.444L40 78V75Z" fill="#1F5C7C"/>
<path d="M40 22L40.206 17.556L40.827 15.402L41.877 13.877L43.402 12.827L45.556 12.206L50 12L54.444 12.206L56.598 12.827L58.123 13.877L59.173 15.402L59.794 17.556L60 22V25L59.794 29.444L59.173 31.598L58.123 33.123L56.598 34.173L54.444 34.794L50 35L45.556 34.794L43.402 34.173L41.877 33.123L40.827 31.598L40.206 29.444L40 25V22Z" fill="#1F5C7C"/>
<path d="M44 13L44.124 10.333L44.496 9.041L45.126 8.126L46.041 7.496L47.333 7.124L50 7L52.667 7.124L53.959 7.496L54.874 8.126L55.504 9.041L55.876 10.333L56 13V25L55.876 27.667L55.504 28.959L54.874 29.874L53.959 30.504L52.667 30.876L50 31L47.333 30.876L46.041 30.504L45.126 29.874L44.496 28.959L44.124 27.667L44 25V13Z" fill="#1B4054"/>
<path d="M44 76L44.124 73.333L44.496 72.041L45.126 71.126L46.041 70.496L47.333 70.124L50 70L52.667 70.124L53.959 70.496L54.874 71.126L55.504 72.041L55.876 73.333L56 76V88L55.876 90.667L55.504 91.959L54.874 92.874L53.959 93.504L52.667 93.876L50 94L47.333 93.876L46.041 93.504L45.126 92.874L44.496 91.959L44.124 90.667L44 88V76Z" fill="#1B4054"/>
<path d="M40 50L40.206 45.556L40.827 43.402L41.877 41.877L43.402 40.827L45.556 40.206L50 40L54.444 40.206L56.598 40.827L58.123 41.877L59.173 43.402L59.794 45.556L60 50L59.794 54.444L59.173 56.598L58.123 58.123L56.598 59.173L54.444 59.794L50 60L45.556 59.794L43.402 59.173L41.877 58.123L40.827 56.598L40.206 54.444L40 50Z" fill="#1F5C7C"/>
<path d="M12 50L12.206 45.556L12.827 43.402L13.877 41.877L15.402 40.827L17.556 40.206L22 40H25L29.444 40.206L31.598 40.827L33.123 41.877L34.173 43.402L34.794 45.556L35 50L34.794 54.444L34.173 56.598L33.123 58.123L31.598 59.173L29.444 59.794L25 60H22L17.556 59.794L15.402 59.173L13.877 58.123L12.827 56.598L12.206 54.444L12 50Z" fill="#1F5C7C"/>
<path d="M6 50L6.124 47.333L6.496 46.041L7.126 45.126L8.041 44.496L9.333 44.124L12 44H25L27.667 44.124L28.959 44.496L29.874 45.126L30.504 46.041L30.876 47.333L31 50L30.876 52.667L30.504 53.959L29.874 54.874L28.959 55.504L27.667 55.876L25 56H12L9.333 55.876L8.041 55.504L7.126 54.874L6.496 53.959L6.124 52.667L6 50Z" fill="#1B4054"/>
<path d="M65 50L65.206 45.556L65.827 43.402L66.877 41.877L68.402 40.827L70.556 40.206L75 40H78L82.444 40.206L84.598 40.827L86.123 41.877L87.173 43.402L87.794 45.556L88 50L87.794 54.444L87.173 56.598L86.123 58.123L84.598 59.173L82.444 59.794L78 60H75L70.556 59.794L68.402 59.173L66.877 58.123L65.827 56.598L65.206 54.444L65 50Z" fill="#1F5C7C"/>
<rect x="94" y="56" width="25" height="12" transform="rotate(-180 94 56)" fill="#1B4054"/>
</svg>
