<svg width="100" height="100" viewBox="0 0 100 100" fill="none" xmlns="http://www.w3.org/2000/svg">
<path d="M61.8594 3.12695L67.8008 3.5L72.4736 4.11328L76.3672 4.95508L79.7324 6.02539L82.6582 7.31543L85.2129 8.81934L87.4688 10.5586L89.4404 12.5303L91.1797 14.7861L92.6836 17.3408L93.9736 20.2666L95.0439 23.6318L95.8857 27.5254L96.499 32.1982L96.8721 38.1396L96.999 50L96.8721 61.8594L96.499 67.8008L95.8857 72.4736L95.0439 76.3672L93.9736 79.7324L92.6836 82.6582L91.1797 85.2129L89.4404 87.4688L87.4688 89.4404L85.2129 91.1797L82.6582 92.6836L79.7324 93.9736L76.3672 95.0439L72.4736 95.8857L67.8008 96.499L61.8594 96.8721L50 96.999L38.1396 96.8721L32.1982 96.499L27.5254 95.8857L23.6318 95.0439L20.2666 93.9736L17.3408 92.6836L14.7861 91.1797L12.5303 89.4404L10.5586 87.4688L8.81934 85.2129L7.31543 82.6582L6.02539 79.7324L4.95508 76.3672L4.11328 72.4736L3.5 67.8008L3.12695 61.8594L3 50L3.12695 38.1396L3.5 32.1982L4.11328 27.5254L4.95508 23.6318L6.02539 20.2666L7.31543 17.3408L8.81934 14.7861L10.5586 12.5303L12.5303 10.5586L14.7861 8.81934L17.3408 7.31543L20.2666 6.02539L23.6318 4.95508L27.5254 4.11328L32.1982 3.5L38.1396 3.12695L50 3L61.8594 3.12695Z" fill="#81361E" stroke="#4C2416" stroke-width="6"/>
<path d="M12 50L12.166 39.323L12.666 33.887L13.501 29.6L14.675 26.006L16.192 22.934L18.062 20.301L20.301 18.062L22.934 16.192L26.006 14.675L29.6 13.501L33.887 12.666L39.323 12.166L50 12L60.677 12.166L66.113 12.666L70.4 13.501L73.994 14.675L77.066 16.192L79.699 18.062L81.938 20.301L83.808 22.934L85.325 26.006L86.499 29.6L87.334 33.887L87.834 39.323L88 50L87.834 60.677L87.334 66.113L86.499 70.4L85.325 73.994L83.808 77.066L81.938 79.699L79.699 81.938L77.066 83.808L73.994 85.325L70.4 86.499L66.113 87.334L60.677 87.834L50 88L39.323 87.834L33.887 87.334L29.6 86.499L26.006 85.325L22.934 83.808L20.301 81.938L18.062 79.699L16.192 77.066L14.675 73.994L13.501 70.4L12.666 66.113L12.166 60.677L12 50Z" fill="#AB4B2B"/>
<path d="M18 50L18.196 40.067L18.784 35.036L19.768 31.11L21.153 27.874L22.949 25.178L25.178 22.949L27.874 21.153L31.11 19.768L35.036 18.784L40.067 18.196L50 18L59.933 18.196L64.964 18.784L68.89 19.768L72.126 21.153L74.822 22.949L77.051 25.178L78.847 27.874L80.232 31.11L81.216 35.036L81.804 40.067L82 50L81.804 59.933L81.216 64.964L80.232 68.89L78.847 72.126L77.051 74.822L74.822 77.051L72.126 78.847L68.89 80.232L64.964 81.216L59.933 81.804L50 82L40.067 81.804L35.036 81.216L31.11 80.232L27.874 78.847L25.178 77.051L22.949 74.822L21.153 72.126L19.768 68.89L18.784 64.964L18.196 59.933L18 50Z" fill="#D66440"/>
<path d="M24 50L24.238 40.906L24.952 36.341L26.15 32.846L27.842 30.056L30.056 27.842L32.846 26.15L36.341 24.952L40.906 24.238L50 24L59.094 24.238L63.659 24.952L67.154 26.15L69.944 27.842L72.158 30.056L73.85 32.846L75.048 36.341L75.762 40.906L76 50L75.762 59.094L75.048 63.659L73.85 67.154L72.158 69.944L69.944 72.158L67.154 73.85L63.659 75.048L59.094 75.762L50 76L40.906 75.762L36.341 75.048L32.846 73.85L30.056 72.158L27.842 69.944L26.15 67.154L24.952 63.659L24.238 59.094L24 50Z" fill="#AB4B2B"/>
<path d="M31 50L31.287 42.288L32.152 38.487L33.608 35.69L35.69 33.608L38.487 32.152L42.288 31.287L50 31L57.712 31.287L61.513 32.152L64.31 33.608L66.392 35.69L67.848 38.487L68.713 42.288L69 50L68.713 57.712L67.848 61.513L66.392 64.31L64.31 66.392L61.513 67.848L57.712 68.713L50 69L42.288 68.713L38.487 67.848L35.69 66.392L33.608 64.31L32.152 61.513L31.287 57.712L31 50Z" fill="#81361E"/>
<path d="M15 46L15.124 43.333L15.496 42.041L16.126 41.126L17.041 40.496L18.333 40.124L21 40L23.667 40.124L24.959 40.496L25.874 41.126L26.504 42.041L26.876 43.333L27 46V54L26.876 56.667L26.504 57.959L25.874 58.874L24.959 59.504L23.667 59.876L21 60L18.333 59.876L17.041 59.504L16.126 58.874L15.496 57.959L15.124 56.667L15 54V46Z" fill="#D66440"/>
<path d="M40 21L40.124 18.333L40.496 17.041L41.126 16.126L42.041 15.496L43.333 15.124L46 15H54L56.667 15.124L57.959 15.496L58.874 16.126L59.504 17.041L59.876 18.333L60 21L59.876 23.667L59.504 24.959L58.874 25.874L57.959 26.504L56.667 26.876L54 27H46L43.333 26.876L42.041 26.504L41.126 25.874L40.496 24.959L40.124 23.667L40 21Z" fill="#D66440"/>
<path d="M73 46L73.124 43.333L73.496 42.041L74.126 41.126L75.041 40.496L76.333 40.124L79 40L81.667 40.124L82.959 40.496L83.874 41.126L84.504 42.041L84.876 43.333L85 46V54L84.876 56.667L84.504 57.959L83.874 58.874L82.959 59.504L81.667 59.876L79 60L76.333 59.876L75.041 59.504L74.126 58.874L73.496 57.959L73.124 56.667L73 54V46Z" fill="#D66440"/>
<path d="M40 79L40.124 76.333L40.496 75.041L41.126 74.126L42.041 73.496L43.333 73.124L46 73H54L56.667 73.124L57.959 73.496L58.874 74.126L59.504 75.041L59.876 76.333L60 79L59.876 81.667L59.504 82.959L58.874 83.874L57.959 84.504L56.667 84.876L54 85H46L43.333 84.876L42.041 84.504L41.126 83.874L40.496 82.959L40.124 81.667L40 79Z" fill="#D66440"/>
<path d="M37 50L37.268 44.222L38.075 41.423L39.441 39.441L41.423 38.075L44.222 37.268L50 37L55.778 37.268L58.577 38.075L60.559 39.441L61.925 41.423L62.732 44.222L63 50L62.732 55.778L61.925 58.577L60.559 60.559L58.577 61.925L55.778 62.732L50 63L44.222 62.732L41.423 61.925L39.441 60.559L38.075 58.577L37.268 55.778L37 50Z" fill="#AB4B2B"/>
<path d="M44 50L44.124 47.333L44.496 46.041L45.126 45.126L46.041 44.496L47.333 44.124L50 44L52.667 44.124L53.959 44.496L54.874 45.126L55.504 46.041L55.876 47.333L56 50L55.876 52.667L55.504 53.959L54.874 54.874L53.959 55.504L52.667 55.876L50 56L47.333 55.876L46.041 55.504L45.126 54.874L44.496 53.959L44.124 52.667L44 50Z" fill="#D66440"/>
</svg>
