<svg width="100" height="100" viewBox="0 0 100 100" fill="none" xmlns="http://www.w3.org/2000/svg">
<path d="M61.8594 3.12695L67.8008 3.5L72.4736 4.11328L76.3672 4.95508L79.7324 6.02539L82.6582 7.31543L85.2129 8.81934L87.4688 10.5586L89.4404 12.5303L91.1797 14.7861L92.6836 17.3408L93.9736 20.2666L95.0439 23.6318L95.8857 27.5254L96.499 32.1982L96.8721 38.1396L96.999 50L96.8721 61.8594L96.499 67.8008L95.8857 72.4736L95.0439 76.3672L93.9736 79.7324L92.6836 82.6582L91.1797 85.2129L89.4404 87.4688L87.4688 89.4404L85.2129 91.1797L82.6582 92.6836L79.7324 93.9736L76.3672 95.0439L72.4736 95.8857L67.8008 96.499L61.8594 96.8721L50 96.999L38.1396 96.8721L32.1982 96.499L27.5254 95.8857L23.6318 95.0439L20.2666 93.9736L17.3408 92.6836L14.7861 91.1797L12.5303 89.4404L10.5586 87.4688L8.81934 85.2129L7.31543 82.6582L6.02539 79.7324L4.95508 76.3672L4.11328 72.4736L3.5 67.8008L3.12695 61.8594L3 50L3.12695 38.1396L3.5 32.1982L4.11328 27.5254L4.95508 23.6318L6.02539 20.2666L7.31543 17.3408L8.81934 14.7861L10.5586 12.5303L12.5303 10.5586L14.7861 8.81934L17.3408 7.31543L20.2666 6.02539L23.6318 4.95508L27.5254 4.11328L32.1982 3.5L38.1396 3.12695L50 3L61.8594 3.12695Z" fill="#632727" stroke="#471E1E" stroke-width="6"/>
<path d="M12 27L12.309 20.334L13.24 17.104L14.816 14.816L17.104 13.24L20.334 12.309L27 12L33.666 12.309L36.896 13.24L39.184 14.816L40.76 17.104L41.691 20.334L42 27L41.691 33.666L40.76 36.896L39.184 39.184L36.896 40.76L33.666 41.691L27 42L20.334 41.691L17.104 40.76L14.816 39.184L13.24 36.896L12.309 33.666L12 27Z" fill="#7D3131"/>
<path d="M58 27L58.309 20.334L59.24 17.104L60.816 14.816L63.104 13.24L66.334 12.309L73 12L79.666 12.309L82.896 13.24L85.184 14.816L86.76 17.104L87.691 20.334L88 27L87.691 33.666L86.76 36.896L85.184 39.184L82.896 40.76L79.666 41.691L73 42L66.334 41.691L63.104 40.76L60.816 39.184L59.24 36.896L58.309 33.666L58 27Z" fill="#7D3131"/>
<path d="M58 73L58.309 66.334L59.24 63.104L60.816 60.816L63.104 59.24L66.334 58.309L73 58L79.666 58.309L82.896 59.24L85.184 60.816L86.76 63.104L87.691 66.334L88 73L87.691 79.666L86.76 82.896L85.184 85.184L82.896 86.76L79.666 87.691L73 88L66.334 87.691L63.104 86.76L60.816 85.184L59.24 82.896L58.309 79.666L58 73Z" fill="#7D3131"/>
<path d="M12 73L12.309 66.334L13.24 63.104L14.816 60.816L17.104 59.24L20.334 58.309L27 58L33.666 58.309L36.896 59.24L39.184 60.816L40.76 63.104L41.691 66.334L42 73L41.691 79.666L40.76 82.896L39.184 85.184L36.896 86.76L33.666 87.691L27 88L20.334 87.691L17.104 86.76L14.816 85.184L13.24 82.896L12.309 79.666L12 73Z" fill="#7D3131"/>
<path d="M18 30L18.247 24.667L18.992 22.083L20.253 20.253L22.083 18.992L24.667 18.247L30 18L35.333 18.247L37.917 18.992L39.747 20.253L41.008 22.083L41.753 24.667L42 30L41.753 35.333L41.008 37.917L39.747 39.747L37.917 41.008L35.333 41.753L30 42L24.667 41.753L22.083 41.008L20.253 39.747L18.992 37.917L18.247 35.333L18 30Z" fill="#B24646"/>
<path d="M18 70L18.247 64.667L18.992 62.083L20.253 60.253L22.083 58.992L24.667 58.247L30 58L35.333 58.247L37.917 58.992L39.747 60.253L41.008 62.083L41.753 64.667L42 70L41.753 75.333L41.008 77.917L39.747 79.747L37.917 81.008L35.333 81.753L30 82L24.667 81.753L22.083 81.008L20.253 79.747L18.992 77.917L18.247 75.333L18 70Z" fill="#B24646"/>
<path d="M58 70L58.247 64.667L58.992 62.083L60.253 60.253L62.083 58.992L64.667 58.247L70 58L75.333 58.247L77.917 58.992L79.747 60.253L81.008 62.083L81.753 64.667L82 70L81.753 75.333L81.008 77.917L79.747 79.747L77.917 81.008L75.333 81.753L70 82L64.667 81.753L62.083 81.008L60.253 79.747L58.992 77.917L58.247 75.333L58 70Z" fill="#B24646"/>
<path d="M58 30L58.247 24.667L58.992 22.083L60.253 20.253L62.083 18.992L64.667 18.247L70 18L75.333 18.247L77.917 18.992L79.747 20.253L81.008 22.083L81.753 24.667L82 30L81.753 35.333L81.008 37.917L79.747 39.747L77.917 41.008L75.333 41.753L70 42L64.667 41.753L62.083 41.008L60.253 39.747L58.992 37.917L58.247 35.333L58 30Z" fill="#B24646"/>
<path d="M24 33L24.185 29L24.744 27.062L25.69 25.69L27.062 24.744L29 24.185L33 24L37 24.185L38.938 24.744L40.31 25.69L41.256 27.062L41.815 29L42 33L41.815 37L41.256 38.938L40.31 40.31L38.938 41.256L37 41.815L33 42L29 41.815L27.062 41.256L25.69 40.31L24.744 38.938L24.185 37L24 33Z" fill="#7D3131"/>
<path d="M58 33L58.185 29L58.744 27.062L59.69 25.69L61.062 24.744L63 24.185L67 24L71 24.185L72.938 24.744L74.31 25.69L75.256 27.062L75.815 29L76 33L75.815 37L75.256 38.938L74.31 40.31L72.938 41.256L71 41.815L67 42L63 41.815L61.062 41.256L59.69 40.31L58.744 38.938L58.185 37L58 33Z" fill="#7D3131"/>
<path d="M24 67L24.185 63L24.744 61.062L25.69 59.69L27.062 58.744L29 58.185L33 58L37 58.185L38.938 58.744L40.31 59.69L41.256 61.062L41.815 63L42 67L41.815 71L41.256 72.938L40.31 74.31L38.938 75.256L37 75.815L33 76L29 75.815L27.062 75.256L25.69 74.31L24.744 72.938L24.185 71L24 67Z" fill="#7D3131"/>
<path d="M58 67L58.185 63L58.744 61.062L59.69 59.69L61.062 58.744L63 58.185L67 58L71 58.185L72.938 58.744L74.31 59.69L75.256 61.062L75.815 63L76 67L75.815 71L75.256 72.938L74.31 74.31L72.938 75.256L71 75.815L67 76L63 75.815L61.062 75.256L59.69 74.31L58.744 72.938L58.185 71L58 67Z" fill="#7D3131"/>
<path d="M42 14L42.165 10.445L42.661 8.722L43.502 7.502L44.722 6.661L46.445 6.165L50 6L53.555 6.165L55.278 6.661L56.498 7.502L57.339 8.722L57.835 10.445L58 14V24L58.124 26.667L58.496 27.959L59.126 28.874L60.041 29.504L61.333 29.876L64 30L66.667 30.124L67.959 30.496L68.874 31.126L69.504 32.041L69.876 33.333L70 36L70.124 38.667L70.496 39.959L71.126 40.874L72.041 41.504L73.333 41.876L76 42H86L89.555 42.165L91.278 42.661L92.498 43.502L93.339 44.722L93.835 46.445L94 50L93.835 53.555L93.339 55.278L92.498 56.498L91.278 57.339L89.555 57.835L86 58H76L73.333 58.124L72.041 58.496L71.126 59.126L70.496 60.041L70.124 61.333L70 64L69.876 66.667L69.504 67.959L68.874 68.874L67.959 69.504L66.667 69.876L64 70L61.333 70.124L60.041 70.496L59.126 71.126L58.496 72.041L58.124 73.333L58 76V86L57.835 89.555L57.339 91.278L56.498 92.498L55.278 93.339L53.555 93.835L50 94L46.445 93.835L44.722 93.339L43.502 92.498L42.661 91.278L42.165 89.555L42 86V76L41.876 73.333L41.504 72.041L40.874 71.126L39.959 70.496L38.667 70.124L36 70L33.333 69.876L32.041 69.504L31.126 68.874L30.496 67.959L30.124 66.667L30 64L29.876 61.333L29.504 60.041L28.874 59.126L27.959 58.496L26.667 58.124L24 58H14L10.445 57.835L8.722 57.339L7.502 56.498L6.661 55.278L6.165 53.555L6 50L6.165 46.445L6.661 44.722L7.502 43.502L8.722 42.661L10.445 42.165L14 42H24L26.667 41.876L27.959 41.504L28.874 40.874L29.504 39.959L29.876 38.667L30 36L30.124 33.333L30.496 32.041L31.126 31.126L32.041 30.496L33.333 30.124L36 30L38.667 29.876L39.959 29.504L40.874 28.874L41.504 27.959L41.876 26.667L42 24V14Z" fill="#632727"/>
<path d="M47 15L47.062 13.667L47.248 13.021L47.563 12.563L48.021 12.248L48.667 12.062L50 12L51.333 12.062L51.979 12.248L52.437 12.563L52.752 13.021L52.938 13.667L53 15V30.5L53.113 32.944L53.455 34.129L54.033 34.967L54.871 35.545L56.056 35.887L58.5 36L60.944 36.113L62.129 36.455L62.967 37.033L63.545 37.871L63.887 39.056L64 41.5L64.113 43.944L64.455 45.129L65.033 45.967L65.871 46.545L67.056 46.887L69.5 47H85L86.333 47.062L86.979 47.248L87.437 47.563L87.752 48.021L87.938 48.667L88 50L87.938 51.333L87.752 51.979L87.437 52.437L86.979 52.752L86.333 52.938L85 53H69.5L67.056 53.113L65.871 53.455L65.033 54.033L64.455 54.871L64.113 56.056L64 58.5L63.887 60.944L63.545 62.129L62.967 62.967L62.129 63.545L60.944 63.887L58.5 64L56.056 64.113L54.871 64.455L54.033 65.033L53.455 65.871L53.113 67.056L53 69.5V85L52.938 86.333L52.752 86.979L52.437 87.437L51.979 87.752L51.333 87.938L50 88L48.667 87.938L48.021 87.752L47.563 87.437L47.248 86.979L47.062 86.333L47 85V69.5L46.887 67.056L46.545 65.871L45.967 65.033L45.129 64.455L43.944 64.113L41.5 64L39.056 63.887L37.871 63.545L37.033 62.967L36.455 62.129L36.113 60.944L36 58.5L35.887 56.056L35.545 54.871L34.967 54.033L34.129 53.455L32.944 53.113L30.5 53H15L13.667 52.938L13.021 52.752L12.563 52.437L12.248 51.979L12.062 51.333L12 50L12.062 48.667L12.248 48.021L12.563 47.563L13.021 47.248L13.667 47.062L15 47H30.5L32.944 46.887L34.129 46.545L34.967 45.967L35.545 45.129L35.887 43.944L36 41.5L36.113 39.056L36.455 37.871L37.033 37.033L37.871 36.455L39.056 36.113L41.5 36L43.944 35.887L45.129 35.545L45.967 34.967L46.545 34.129L46.887 32.944L47 30.5V15Z" fill="#7D3131"/>
<path d="M42 50L42.165 46.445L42.661 44.722L43.502 43.502L44.722 42.661L46.445 42.165L50 42L53.555 42.165L55.278 42.661L56.498 43.502L57.339 44.722L57.835 46.445L58 50L57.835 53.555L57.339 55.278L56.498 56.498L55.278 57.339L53.555 57.835L50 58L46.445 57.835L44.722 57.339L43.502 56.498L42.661 55.278L42.165 53.555L42 50Z" fill="#B24646"/>
</svg>
