<svg width="100" height="100" viewBox="0 0 100 100" fill="none" xmlns="http://www.w3.org/2000/svg">
<path d="M61.8594 3.12695L67.8008 3.5L72.4736 4.11328L76.3672 4.95508L79.7324 6.02539L82.6582 7.31543L85.2129 8.81934L87.4688 10.5586L89.4404 12.5303L91.1797 14.7861L92.6836 17.3408L93.9736 20.2666L95.0439 23.6318L95.8857 27.5254L96.499 32.1982L96.8721 38.1396L96.999 50L96.8721 61.8594L96.499 67.8008L95.8857 72.4736L95.0439 76.3672L93.9736 79.7324L92.6836 82.6582L91.1797 85.2129L89.4404 87.4688L87.4688 89.4404L85.2129 91.1797L82.6582 92.6836L79.7324 93.9736L76.3672 95.0439L72.4736 95.8857L67.8008 96.499L61.8594 96.8721L50 96.999L38.1396 96.8721L32.1982 96.499L27.5254 95.8857L23.6318 95.0439L20.2666 93.9736L17.3408 92.6836L14.7861 91.1797L12.5303 89.4404L10.5586 87.4688L8.81934 85.2129L7.31543 82.6582L6.02539 79.7324L4.95508 76.3672L4.11328 72.4736L3.5 67.8008L3.12695 61.8594L3 50L3.12695 38.1396L3.5 32.1982L4.11328 27.5254L4.95508 23.6318L6.02539 20.2666L7.31543 17.3408L8.81934 14.7861L10.5586 12.5303L12.5303 10.5586L14.7861 8.81934L17.3408 7.31543L20.2666 6.02539L23.6318 4.95508L27.5254 4.11328L32.1982 3.5L38.1396 3.12695L50 3L61.8594 3.12695Z" fill="#818B91" stroke="#474E52" stroke-width="6"/>
<path d="M12 50L12.166 39.323L12.666 33.887L13.501 29.6L14.675 26.006L16.192 22.934L18.062 20.301L20.301 18.062L22.934 16.192L26.006 14.675L29.6 13.501L33.887 12.666L39.323 12.166L50 12L60.677 12.166L66.113 12.666L70.4 13.501L73.994 14.675L77.066 16.192L79.699 18.062L81.938 20.301L83.808 22.934L85.325 26.006L86.499 29.6L87.334 33.887L87.834 39.323L88 50L87.834 60.677L87.334 66.113L86.499 70.4L85.325 73.994L83.808 77.066L81.938 79.699L79.699 81.938L77.066 83.808L73.994 85.325L70.4 86.499L66.113 87.334L60.677 87.834L50 88L39.323 87.834L33.887 87.334L29.6 86.499L26.006 85.325L22.934 83.808L20.301 81.938L18.062 79.699L16.192 77.066L14.675 73.994L13.501 70.4L12.666 66.113L12.166 60.677L12 50Z" fill="#A1AEB6"/>
<path d="M18 50L18.196 40.067L18.784 35.036L19.768 31.11L21.153 27.874L22.949 25.178L25.178 22.949L27.874 21.153L31.11 19.768L35.036 18.784L40.067 18.196L50 18L59.933 18.196L64.964 18.784L68.89 19.768L72.126 21.153L74.822 22.949L77.051 25.178L78.847 27.874L80.232 31.11L81.216 35.036L81.804 40.067L82 50L81.804 59.933L81.216 64.964L80.232 68.89L78.847 72.126L77.051 74.822L74.822 77.051L72.126 78.847L68.89 80.232L64.964 81.216L59.933 81.804L50 82L40.067 81.804L35.036 81.216L31.11 80.232L27.874 78.847L25.178 77.051L22.949 74.822L21.153 72.126L19.768 68.89L18.784 64.964L18.196 59.933L18 50Z" fill="#C3CFD9"/>
<rect x="40" y="40" width="20" height="48" fill="#A1AEB6"/>
<rect x="40" y="12" width="20" height="48" fill="#A1AEB6"/>
<path d="M12 50L12.206 45.556L12.827 43.402L13.877 41.877L15.402 40.827L17.556 40.206L22 40H78L82.444 40.206L84.598 40.827L86.123 41.877L87.173 43.402L87.794 45.556L88 50L87.794 54.444L87.173 56.598L86.123 58.123L84.598 59.173L82.444 59.794L78 60H22L17.556 59.794L15.402 59.173L13.877 58.123L12.827 56.598L12.206 54.444L12 50Z" fill="#A1AEB6"/>
<path d="M31 50L31.287 42.288L32.152 38.487L33.608 35.69L35.69 33.608L38.487 32.152L42.288 31.287L50 31L57.712 31.287L61.513 32.152L64.31 33.608L66.392 35.69L67.848 38.487L68.713 42.288L69 50L68.713 57.712L67.848 61.513L66.392 64.31L64.31 66.392L61.513 67.848L57.712 68.713L50 69L42.288 68.713L38.487 67.848L35.69 66.392L33.608 64.31L32.152 61.513L31.287 57.712L31 50Z" fill="#A1AEB6"/>
<path d="M40 50L40.206 45.556L40.827 43.402L41.877 41.877L43.402 40.827L45.556 40.206L50 40L54.444 40.206L56.598 40.827L58.123 41.877L59.173 43.402L59.794 45.556L60 50L59.794 54.444L59.173 56.598L58.123 58.123L56.598 59.173L54.444 59.794L50 60L45.556 59.794L43.402 59.173L41.877 58.123L40.827 56.598L40.206 54.444L40 50Z" fill="#818B91"/>
<path d="M45 23L45.103 20.778L45.413 19.701L45.939 18.939L46.701 18.413L47.778 18.103L50 18L52.222 18.103L53.299 18.413L54.061 18.939L54.587 19.701L54.897 20.778L55 23V30L54.897 32.222L54.587 33.299L54.061 34.061L53.299 34.587L52.222 34.897L50 35L47.778 34.897L46.701 34.587L45.939 34.061L45.413 33.299L45.103 32.222L45 30V23Z" fill="#C3CFD9"/>
<path d="M45 70L45.103 67.778L45.413 66.701L45.939 65.939L46.701 65.413L47.778 65.103L50 65L52.222 65.103L53.299 65.413L54.061 65.939L54.587 66.701L54.897 67.778L55 70V77L54.897 79.222L54.587 80.299L54.061 81.061L53.299 81.587L52.222 81.897L50 82L47.778 81.897L46.701 81.587L45.939 81.061L45.413 80.299L45.103 79.222L45 77V70Z" fill="#C3CFD9"/>
<path d="M18 50L18.103 47.778L18.413 46.701L18.939 45.939L19.701 45.413L20.778 45.103L23 45H30L32.222 45.103L33.299 45.413L34.061 45.939L34.587 46.701L34.897 47.778L35 50L34.897 52.222L34.587 53.299L34.061 54.061L33.299 54.587L32.222 54.897L30 55H23L20.778 54.897L19.701 54.587L18.939 54.061L18.413 53.299L18.103 52.222L18 50Z" fill="#C3CFD9"/>
<path d="M65 50L65.103 47.778L65.413 46.701L65.939 45.939L66.701 45.413L67.778 45.103L70 45H77L79.222 45.103L80.299 45.413L81.061 45.939L81.587 46.701L81.897 47.778L82 50L81.897 52.222L81.587 53.299L81.061 54.061L80.299 54.587L79.222 54.897L77 55H70L67.778 54.897L66.701 54.587L65.939 54.061L65.413 53.299L65.103 52.222L65 50Z" fill="#C3CFD9"/>
</svg>
