<svg width="100" height="100" viewBox="0 0 100 100" fill="none" xmlns="http://www.w3.org/2000/svg">
<path d="M61.8594 3.12695L67.8008 3.5L72.4736 4.11328L76.3672 4.95508L79.7324 6.02539L82.6582 7.31543L85.2129 8.81934L87.4688 10.5586L89.4404 12.5303L91.1797 14.7861L92.6836 17.3408L93.9736 20.2666L95.0439 23.6318L95.8857 27.5254L96.499 32.1982L96.8721 38.1396L96.999 50L96.8721 61.8594L96.499 67.8008L95.8857 72.4736L95.0439 76.3672L93.9736 79.7324L92.6836 82.6582L91.1797 85.2129L89.4404 87.4688L87.4688 89.4404L85.2129 91.1797L82.6582 92.6836L79.7324 93.9736L76.3672 95.0439L72.4736 95.8857L67.8008 96.499L61.8594 96.8721L50 96.999L38.1396 96.8721L32.1982 96.499L27.5254 95.8857L23.6318 95.0439L20.2666 93.9736L17.3408 92.6836L14.7861 91.1797L12.5303 89.4404L10.5586 87.4688L8.81934 85.2129L7.31543 82.6582L6.02539 79.7324L4.95508 76.3672L4.11328 72.4736L3.5 67.8008L3.12695 61.8594L3 50L3.12695 38.1396L3.5 32.1982L4.11328 27.5254L4.95508 23.6318L6.02539 20.2666L7.31543 17.3408L8.81934 14.7861L10.5586 12.5303L12.5303 10.5586L14.7861 8.81934L17.3408 7.31543L20.2666 6.02539L23.6318 4.95508L27.5254 4.11328L32.1982 3.5L38.1396 3.12695L50 3L61.8594 3.12695Z" fill="#464A4A" stroke="#2B3333" stroke-width="6"/>
<path d="M12 50L12.166 39.323L12.666 33.887L13.501 29.6L14.675 26.006L16.192 22.934L18.062 20.301L20.301 18.062L22.934 16.192L26.006 14.675L29.6 13.501L33.887 12.666L39.323 12.166L50 12L60.677 12.166L66.113 12.666L70.4 13.501L73.994 14.675L77.066 16.192L79.699 18.062L81.938 20.301L83.808 22.934L85.325 26.006L86.499 29.6L87.334 33.887L87.834 39.323L88 50L87.834 60.677L87.334 66.113L86.499 70.4L85.325 73.994L83.808 77.066L81.938 79.699L79.699 81.938L77.066 83.808L73.994 85.325L70.4 86.499L66.113 87.334L60.677 87.834L50 88L39.323 87.834L33.887 87.334L29.6 86.499L26.006 85.325L22.934 83.808L20.301 81.938L18.062 79.699L16.192 77.066L14.675 73.994L13.501 70.4L12.666 66.113L12.166 60.677L12 50Z" fill="#515656"/>
<path d="M18 32L18.288 25.778L19.158 22.763L20.628 20.628L22.763 19.158L25.778 18.288L32 18L38.222 18.288L41.237 19.158L43.372 20.628L44.842 22.763L45.712 25.778L46 32L45.712 38.222L44.842 41.237L43.372 43.372L41.237 44.842L38.222 45.712L32 46L25.778 45.712L22.763 44.842L20.628 43.372L19.158 41.237L18.288 38.222L18 32Z" fill="#5D6262"/>
<path d="M54 32L54.288 25.778L55.158 22.763L56.628 20.628L58.763 19.158L61.778 18.288L68 18L74.222 18.288L77.237 19.158L79.372 20.628L80.842 22.763L81.712 25.778L82 32L81.712 38.222L80.842 41.237L79.372 43.372L77.237 44.842L74.222 45.712L68 46L61.778 45.712L58.763 44.842L56.628 43.372L55.158 41.237L54.288 38.222L54 32Z" fill="#5D6262"/>
<path d="M18 68L18.288 61.778L19.158 58.763L20.628 56.628L22.763 55.158L25.778 54.288L32 54L38.222 54.288L41.237 55.158L43.372 56.628L44.842 58.763L45.712 61.778L46 68L45.712 74.222L44.842 77.237L43.372 79.372L41.237 80.842L38.222 81.712L32 82L25.778 81.712L22.763 80.842L20.628 79.372L19.158 77.237L18.288 74.222L18 68Z" fill="#5D6262"/>
<path d="M54 68L54.288 61.778L55.158 58.763L56.628 56.628L58.763 55.158L61.778 54.288L68 54L74.222 54.288L77.237 55.158L79.372 56.628L80.842 58.763L81.712 61.778L82 68L81.712 74.222L80.842 77.237L79.372 79.372L77.237 80.842L74.222 81.712L68 82L61.778 81.712L58.763 80.842L56.628 79.372L55.158 77.237L54.288 74.222L54 68Z" fill="#5D6262"/>
<path d="M24 50L24.238 40.906L24.952 36.341L26.15 32.846L27.842 30.056L30.056 27.842L32.846 26.15L36.341 24.952L40.906 24.238L50 24L59.094 24.238L63.659 24.952L67.154 26.15L69.944 27.842L72.158 30.056L73.85 32.846L75.048 36.341L75.762 40.906L76 50L75.762 59.094L75.048 63.659L73.85 67.154L72.158 69.944L69.944 72.158L67.154 73.85L63.659 75.048L59.094 75.762L50 76L40.906 75.762L36.341 75.048L32.846 73.85L30.056 72.158L27.842 69.944L26.15 67.154L24.952 63.659L24.238 59.094L24 50Z" fill="#515656"/>
<path d="M30 50L30.302 41.882L31.213 37.881L32.746 34.936L34.936 32.746L37.881 31.213L41.882 30.302L50 30L58.118 30.302L62.119 31.213L65.064 32.746L67.254 34.936L68.787 37.881L69.698 41.882L70 50L69.698 58.118L68.787 62.119L67.254 65.064L65.064 67.254L62.119 68.787L58.118 69.698L50 70L41.882 69.698L37.881 68.787L34.936 67.254L32.746 65.064L31.213 62.119L30.302 58.118L30 50Z" fill="#464A4A"/>
<path d="M36 50L36.288 43.778L37.158 40.763L38.628 38.628L40.763 37.158L43.778 36.288L50 36L56.222 36.288L59.237 37.158L61.372 38.628L62.842 40.763L63.712 43.778L64 50L63.712 56.222L62.842 59.237L61.372 61.372L59.237 62.842L56.222 63.712L50 64L43.778 63.712L40.763 62.842L38.628 61.372L37.158 59.237L36.288 56.222L36 50Z" fill="#515656"/>
<path d="M42 50L42.165 46.445L42.661 44.722L43.502 43.502L44.722 42.661L46.445 42.165L50 42L53.555 42.165L55.278 42.661L56.498 43.502L57.339 44.722L57.835 46.445L58 50L57.835 53.555L57.339 55.278L56.498 56.498L55.278 57.339L53.555 57.835L50 58L46.445 57.835L44.722 57.339L43.502 56.498L42.661 55.278L42.165 53.555L42 50Z" fill="#5D6262"/>
</svg>
