<svg width="100" height="100" viewBox="0 0 100 100" fill="none" xmlns="http://www.w3.org/2000/svg">
<path d="M61.8594 3.12695L67.8008 3.5L72.4736 4.11328L76.3672 4.95508L79.7324 6.02539L82.6582 7.31543L85.2129 8.81934L87.4688 10.5586L89.4404 12.5303L91.1797 14.7861L92.6836 17.3408L93.9736 20.2666L95.0439 23.6318L95.8857 27.5254L96.499 32.1982L96.8721 38.1396L96.999 50L96.8721 61.8594L96.499 67.8008L95.8857 72.4736L95.0439 76.3672L93.9736 79.7324L92.6836 82.6582L91.1797 85.2129L89.4404 87.4688L87.4688 89.4404L85.2129 91.1797L82.6582 92.6836L79.7324 93.9736L76.3672 95.0439L72.4736 95.8857L67.8008 96.499L61.8594 96.8721L50 96.999L38.1396 96.8721L32.1982 96.499L27.5254 95.8857L23.6318 95.0439L20.2666 93.9736L17.3408 92.6836L14.7861 91.1797L12.5303 89.4404L10.5586 87.4688L8.81934 85.2129L7.31543 82.6582L6.02539 79.7324L4.95508 76.3672L4.11328 72.4736L3.5 67.8008L3.12695 61.8594L3 50L3.12695 38.1396L3.5 32.1982L4.11328 27.5254L4.95508 23.6318L6.02539 20.2666L7.31543 17.3408L8.81934 14.7861L10.5586 12.5303L12.5303 10.5586L14.7861 8.81934L17.3408 7.31543L20.2666 6.02539L23.6318 4.95508L27.5254 4.11328L32.1982 3.5L38.1396 3.12695L50 3L61.8594 3.12695Z" fill="#4A301F" stroke="#322116" stroke-width="6"/>
<path d="M12 50L12.166 39.323L12.666 33.887L13.501 29.6L14.675 26.006L16.192 22.934L18.062 20.301L20.301 18.062L22.934 16.192L26.006 14.675L29.6 13.501L33.887 12.666L39.323 12.166L50 12L60.677 12.166L66.113 12.666L70.4 13.501L73.994 14.675L77.066 16.192L79.699 18.062L81.938 20.301L83.808 22.934L85.325 26.006L86.499 29.6L87.334 33.887L87.834 39.323L88 50L87.834 60.677L87.334 66.113L86.499 70.4L85.325 73.994L83.808 77.066L81.938 79.699L79.699 81.938L77.066 83.808L73.994 85.325L70.4 86.499L66.113 87.334L60.677 87.834L50 88L39.323 87.834L33.887 87.334L29.6 86.499L26.006 85.325L22.934 83.808L20.301 81.938L18.062 79.699L16.192 77.066L14.675 73.994L13.501 70.4L12.666 66.113L12.166 60.677L12 50Z" fill="#5C3D2A"/>
<path d="M18 50L18.196 40.067L18.784 35.036L19.768 31.11L21.153 27.874L22.949 25.178L25.178 22.949L27.874 21.153L31.11 19.768L35.036 18.784L40.067 18.196L50 18L59.933 18.196L64.964 18.784L68.89 19.768L72.126 21.153L74.822 22.949L77.051 25.178L78.847 27.874L80.232 31.11L81.216 35.036L81.804 40.067L82 50L81.804 59.933L81.216 64.964L80.232 68.89L78.847 72.126L77.051 74.822L74.822 77.051L72.126 78.847L68.89 80.232L64.964 81.216L59.933 81.804L50 82L40.067 81.804L35.036 81.216L31.11 80.232L27.874 78.847L25.178 77.051L22.949 74.822L21.153 72.126L19.768 68.89L18.784 64.964L18.196 59.933L18 50Z" fill="#72503B"/>
<path d="M25 50L25.1092 42.9757L25.4382 39.3993L25.9875 36.5789L26.7599 34.2145L27.7579 32.1934L28.9882 30.4612L30.4612 28.9882L32.1934 27.7579L34.2145 26.7599L36.5789 25.9875L39.3993 25.4382L42.9757 25.1092L50 25L57.0243 25.1092L60.6007 25.4382L63.4211 25.9875L65.7855 26.7599L67.8066 27.7579L69.5388 28.9882L71.0118 30.4612L72.2421 32.1934L73.2401 34.2145L74.0125 36.5789L74.5618 39.3993L74.8908 42.9757L75 50L74.8908 57.0243L74.5618 60.6007L74.0125 63.4211L73.2401 65.7855L72.2421 67.8066L71.0118 69.5388L69.5388 71.0118L67.8066 72.2421L65.7855 73.2401L63.4211 74.0125L60.6007 74.5618L57.0243 74.8908L50 75L42.9757 74.8908L39.3993 74.5618L36.5789 74.0125L34.2145 73.2401L32.1934 72.2421L30.4612 71.0118L28.9882 69.5388L27.7579 67.8066L26.7599 65.7855L25.9875 63.4211L25.4382 60.6007L25.1092 57.0243L25 50Z" fill="#5C3D2A"/>
</svg>
