<svg width="150" height="150" viewBox="0 0 150 150" fill="none" xmlns="http://www.w3.org/2000/svg">
<mask id="path-1-outside-1_1228_70694" maskUnits="userSpaceOnUse" x="67.9302" y="90.3008" width="26" height="59" fill="black">
<rect fill="white" x="67.9302" y="90.3008" width="26" height="59"/>
<path d="M83.2642 97.4365C83.9062 95.6912 86.4725 96.0455 86.6177 97.8994L88.0513 116.214V132.219C88.0513 133.688 87.5115 135.106 86.5356 136.204C85.1874 137.721 83.1707 139.991 81.4663 141.907C79.7316 143.857 76.8039 143.852 75.0718 141.899C73.5909 140.23 73.5456 137.731 74.9644 136.009L76.897 133.661C77.7818 132.587 78.2661 131.238 78.2661 129.847V120L78.4565 99.2871C78.4679 98.0595 80.1174 97.671 80.6753 98.7646C81.1405 99.6767 82.4691 99.5974 82.8228 98.6367L83.2642 97.4365Z"/>
</mask>
<path d="M83.2642 97.4365C83.9062 95.6912 86.4725 96.0455 86.6177 97.8994L88.0513 116.214V132.219C88.0513 133.688 87.5115 135.106 86.5356 136.204C85.1874 137.721 83.1707 139.991 81.4663 141.907C79.7316 143.857 76.8039 143.852 75.0718 141.899C73.5909 140.23 73.5456 137.731 74.9644 136.009L76.897 133.661C77.7818 132.587 78.2661 131.238 78.2661 129.847V120L78.4565 99.2871C78.4679 98.0595 80.1174 97.671 80.6753 98.7646C81.1405 99.6767 82.4691 99.5974 82.8228 98.6367L83.2642 97.4365Z" fill="#4A301F"/>
<path d="M83.2642 97.4365L78.5716 95.7102L78.5715 95.7107L83.2642 97.4365ZM86.6177 97.8994L91.6024 97.5092L91.6024 97.5091L86.6177 97.8994ZM88.0513 116.214H93.0513V116.018L93.036 115.824L88.0513 116.214ZM88.0513 132.219L93.0513 132.219V132.219H88.0513ZM86.5356 136.204L90.273 139.526L90.2731 139.526L86.5356 136.204ZM81.4663 141.907L85.2022 145.23L85.2025 145.23L81.4663 141.907ZM75.0718 141.899L71.3313 145.217L71.3314 145.217L75.0718 141.899ZM74.9644 136.009L78.8238 139.188L78.8246 139.187L74.9644 136.009ZM76.897 133.661L73.0375 130.482L73.0367 130.483L76.897 133.661ZM78.2661 129.847H73.2661V129.847L78.2661 129.847ZM78.2661 120L73.2663 119.954L73.2661 119.977V120H78.2661ZM78.4565 99.2871L73.4568 99.2409L73.4568 99.2411L78.4565 99.2871ZM80.6753 98.7646L76.2214 101.037L76.2214 101.037L80.6753 98.7646ZM82.8228 98.6367L87.5148 100.364L87.5154 100.363L82.8228 98.6367ZM83.2642 97.4365L87.9567 99.1628C86.7462 102.453 81.9067 101.786 81.6329 98.2897L86.6177 97.8994L91.6024 97.5091C91.0383 90.3049 81.0663 88.9292 78.5716 95.7102L83.2642 97.4365ZM86.6177 97.8994L81.6329 98.2896L83.0665 116.604L88.0513 116.214L93.036 115.824L91.6024 97.5092L86.6177 97.8994ZM88.0513 116.214H83.0513V132.219H88.0513H93.0513V116.214H88.0513ZM88.0513 132.219L83.0513 132.219C83.0513 132.462 82.9618 132.699 82.7982 132.883L86.5356 136.204L90.2731 139.526C92.0613 137.513 93.0513 134.914 93.0513 132.219L88.0513 132.219ZM86.5356 136.204L82.7983 132.883C81.4496 134.4 79.4338 136.669 77.7301 138.584L81.4663 141.907L85.2025 145.23C86.9077 143.313 88.9253 141.042 90.273 139.526L86.5356 136.204ZM81.4663 141.907L77.7304 138.584C77.8221 138.481 78.0233 138.366 78.2752 138.367C78.5263 138.367 78.7236 138.482 78.8122 138.581L75.0718 141.899L71.3314 145.217C75.0462 149.405 81.4719 149.424 85.2022 145.23L81.4663 141.907ZM75.0718 141.899L78.8122 138.581C78.9652 138.754 78.9692 139.011 78.8238 139.188L74.9644 136.009L71.1049 132.83C68.1221 136.451 68.2167 141.706 71.3313 145.217L75.0718 141.899ZM74.9644 136.009L78.8246 139.187L80.7572 136.839L76.897 133.661L73.0367 130.483L71.1041 132.831L74.9644 136.009ZM76.897 133.661L80.7565 136.84C82.3778 134.871 83.2661 132.4 83.2661 129.847L78.2661 129.847L73.2661 129.847C73.2661 130.077 73.1858 130.302 73.0375 130.482L76.897 133.661ZM78.2661 129.847H83.2661V120H78.2661H73.2661V129.847H78.2661ZM78.2661 120L83.2659 120.046L83.4563 99.3331L78.4565 99.2871L73.4568 99.2411L73.2663 119.954L78.2661 120ZM78.4565 99.2871L83.4563 99.3333C83.4194 103.334 78.0402 104.602 76.2214 101.037L80.6753 98.7646L85.1292 96.4925C82.1946 90.7399 73.5164 92.785 73.4568 99.2409L78.4565 99.2871ZM80.6753 98.7646L76.2214 101.037C78.6688 105.834 85.6548 105.416 87.5148 100.364L82.8228 98.6367L78.1307 96.9092C79.2833 93.7785 83.6123 93.5191 85.1292 96.4925L80.6753 98.7646ZM82.8228 98.6367L87.5154 100.363L87.9569 99.1624L83.2642 97.4365L78.5715 95.7107L78.1301 96.9108L82.8228 98.6367Z" fill="#322116" mask="url(#path-1-outside-1_1228_70694)"/>
<circle cx="80.5" cy="29.5" r="4.5" fill="#474E52"/>
<mask id="path-4-outside-2_1228_70694" maskUnits="userSpaceOnUse" x="49.7661" y="4.60352" width="44" height="106" fill="black">
<rect fill="white" x="49.7661" y="4.60352" width="44" height="106"/>
<path d="M58.037 10.334C58.1329 9.88925 58.5085 9.60041 58.9623 9.6336C62.8033 9.91448 77.8388 12.3462 88.3491 24.847C88.5792 25.1206 88.6465 25.4771 88.5476 25.8207C86.0201 34.6018 86.1882 83.3531 86.9842 100.579C86.9867 100.633 86.9844 100.686 86.9775 100.74C86.1139 107.581 79.0732 105.231 78.228 103.994C77.9844 103.637 77.6959 100.147 77.5532 98.417C77.5165 97.9718 77.4894 97.6432 77.4751 97.5146C77.4056 96.889 77.0995 95.4702 76.4321 94.8027L74.5015 92.8721C74.3344 92.705 74.1138 92.6001 73.8775 92.5941C71.8905 92.5438 67.248 93.1972 58.7203 96.2971C58.2958 96.4514 57.8169 96.3072 57.6372 95.8928C53.894 87.263 53.5917 30.9616 58.037 10.334ZM85.2563 28.1816C84.5955 25.7155 82.1485 24.2287 79.7905 24.8604C77.4324 25.4922 76.0565 28.0035 76.7173 30.4697C77.3782 32.9359 79.825 34.4228 82.1831 33.791C84.5412 33.1592 85.9171 30.6479 85.2563 28.1816Z"/>
</mask>
<path d="M58.037 10.334C58.1329 9.88925 58.5085 9.60041 58.9623 9.6336C62.8033 9.91448 77.8388 12.3462 88.3491 24.847C88.5792 25.1206 88.6465 25.4771 88.5476 25.8207C86.0201 34.6018 86.1882 83.3531 86.9842 100.579C86.9867 100.633 86.9844 100.686 86.9775 100.74C86.1139 107.581 79.0732 105.231 78.228 103.994C77.9844 103.637 77.6959 100.147 77.5532 98.417C77.5165 97.9718 77.4894 97.6432 77.4751 97.5146C77.4056 96.889 77.0995 95.4702 76.4321 94.8027L74.5015 92.8721C74.3344 92.705 74.1138 92.6001 73.8775 92.5941C71.8905 92.5438 67.248 93.1972 58.7203 96.2971C58.2958 96.4514 57.8169 96.3072 57.6372 95.8928C53.894 87.263 53.5917 30.9616 58.037 10.334ZM85.2563 28.1816C84.5955 25.7155 82.1485 24.2287 79.7905 24.8604C77.4324 25.4922 76.0565 28.0035 76.7173 30.4697C77.3782 32.9359 79.825 34.4228 82.1831 33.791C84.5412 33.1592 85.9171 30.6479 85.2563 28.1816Z" fill="#818181"/>
<path d="M78.228 103.994L74.0972 106.811L74.0994 106.815L78.228 103.994ZM77.5532 98.417L72.5701 98.8281L72.5702 98.8281L77.5532 98.417ZM77.4751 97.5146L82.4446 96.9634L82.4445 96.9625L77.4751 97.5146ZM76.4321 94.8027L79.9677 91.2672L79.9677 91.2672L76.4321 94.8027ZM85.2563 28.1816L90.086 26.8876L90.086 26.8875L85.2563 28.1816ZM79.7905 24.8604L78.4968 20.0306L78.4964 20.0307L79.7905 24.8604ZM76.7173 30.4697L71.8877 31.7638L71.8877 31.7639L76.7173 30.4697ZM82.1831 33.791L83.4772 38.6207L83.4772 38.6206L82.1831 33.791ZM58.7203 96.2971L57.0122 91.5979L58.7203 96.2971ZM57.6372 95.8928L62.2243 93.9032L57.6372 95.8928ZM74.5015 92.8721L78.037 89.3366L74.5015 92.8721ZM73.8775 92.5941L74.0042 87.5957L73.8775 92.5941ZM86.9842 100.579L81.9895 100.809L86.9842 100.579ZM86.9775 100.74L82.0169 100.114L86.9775 100.74ZM88.3491 24.847L84.522 28.0647L88.3491 24.847ZM88.5476 25.8207L83.7426 24.4377L88.5476 25.8207ZM58.9623 9.6336L58.5976 14.6203C61.8481 14.858 75.2692 17.0595 84.522 28.0647L88.3491 24.847L92.1762 21.6293C80.4085 7.63293 63.7585 4.97098 59.3269 4.64691L58.9623 9.6336ZM88.5476 25.8207L83.7426 24.4377C82.9238 27.2825 82.4522 32.5774 82.1323 38.5148C81.7997 44.6884 81.6075 52.222 81.5199 59.9765C81.3448 75.4741 81.5857 92.0701 81.9895 100.809L86.9842 100.579L91.9789 100.348C91.5867 91.8615 91.3455 75.4691 91.5192 60.0895C91.6061 52.4053 91.7959 45.028 92.1178 39.0527C92.4524 32.8413 92.9076 28.7494 93.3525 27.2037L88.5476 25.8207ZM86.9775 100.74L82.0169 100.114C81.9636 100.536 81.8828 100.726 81.8645 100.765C81.8516 100.793 81.8858 100.714 82.0019 100.609C82.259 100.375 82.4635 100.396 82.31 100.405C82.2343 100.409 82.1142 100.405 81.9588 100.379C81.8041 100.354 81.6556 100.313 81.5349 100.269C81.4044 100.222 81.3724 100.195 81.4317 100.232C81.4629 100.251 81.5597 100.312 81.6949 100.427C81.812 100.527 82.0805 100.77 82.3566 101.174L78.228 103.994L74.0994 106.815C74.7907 107.827 75.6919 108.441 76.1907 108.748C76.8002 109.123 77.4637 109.43 78.1256 109.67C79.4269 110.142 81.0946 110.491 82.8817 110.388C84.702 110.284 86.8814 109.687 88.728 108.009C90.6002 106.307 91.6099 103.967 91.9382 101.367L86.9775 100.74ZM78.228 103.994L82.3589 101.177C82.7304 101.722 82.888 102.201 82.915 102.28C82.9693 102.439 82.9955 102.55 83.0005 102.571C83.0114 102.617 83.0025 102.587 82.9793 102.439C82.9352 102.159 82.8822 101.732 82.8248 101.192C82.7116 100.127 82.6085 98.8808 82.5363 98.0059L77.5532 98.417L72.5702 98.8281C72.6407 99.6829 72.7531 101.047 72.8808 102.248C72.9438 102.842 73.0175 103.463 73.1004 103.991C73.1408 104.248 73.1955 104.562 73.2694 104.875C73.3059 105.029 73.3634 105.253 73.4488 105.503C73.5068 105.674 73.6952 106.222 74.0972 106.811L78.228 103.994ZM77.5532 98.417L82.5363 98.0059C82.5042 97.6165 82.469 97.1831 82.4446 96.9634L77.4751 97.5146L72.5056 98.0659C72.5038 98.05 72.5047 98.0569 72.5091 98.1041C72.5129 98.1454 72.5178 98.201 72.5239 98.2731C72.5363 98.4179 72.5516 98.6029 72.5701 98.8281L77.5532 98.417ZM77.4751 97.5146L82.4445 96.9625C82.3757 96.3435 82.2156 95.4943 81.9308 94.6221C81.6861 93.873 81.1438 92.4434 79.9677 91.2672L76.4321 94.8027L72.8966 98.3383C72.7376 98.1793 72.6297 98.0389 72.5631 97.9433C72.4958 97.8467 72.4552 97.7735 72.4352 97.7353C72.3993 97.6666 72.4023 97.6574 72.4249 97.7266C72.4452 97.7888 72.4667 97.8696 72.4847 97.9544C72.5034 98.0429 72.508 98.0877 72.5057 98.0668L77.4751 97.5146ZM76.4321 94.8027L79.9677 91.2672L78.037 89.3366L74.5015 92.8721L70.966 96.4076L72.8966 98.3383L76.4321 94.8027ZM73.8775 92.5941L74.0042 87.5957C71.074 87.5215 65.7266 88.4302 57.0122 91.5979L58.7203 96.2971L60.4285 100.996C68.7695 97.9643 72.7071 97.5661 73.7508 97.5925L73.8775 92.5941ZM57.6372 95.8928L62.2243 93.9032C62.0394 93.4768 61.6961 92.2238 61.3429 89.8492C61.0107 87.6151 60.7203 84.7648 60.4828 81.4291C60.0083 74.7667 59.7604 66.4002 59.7664 57.616C59.7786 39.901 60.8239 21.1361 62.9248 11.3874L58.037 10.334L53.1493 9.28069C50.8048 20.1595 49.7786 39.8591 49.7664 57.6091C49.7603 66.5575 50.012 75.1736 50.508 82.1395C50.7557 85.6179 51.0684 88.7431 51.4518 91.3204C51.8142 93.7572 52.2992 96.1513 53.0501 97.8825L57.6372 95.8928ZM85.2563 28.1816L90.086 26.8875C88.7657 21.9602 83.7235 18.6306 78.4968 20.0306L79.7905 24.8604L81.0842 29.6901C80.8583 29.7506 80.6618 29.6921 80.5635 29.6324C80.4698 29.5754 80.4347 29.5055 80.4267 29.4757L85.2563 28.1816ZM79.7905 24.8604L78.4964 20.0307C73.2695 21.4313 70.5673 26.8363 71.8877 31.7638L76.7173 30.4697L81.5469 29.1756C81.5549 29.2054 81.5595 29.2835 81.5068 29.3796C81.4515 29.4805 81.3106 29.6294 81.0846 29.69L79.7905 24.8604ZM76.7173 30.4697L71.8877 31.7639C73.2079 36.6907 78.2498 40.0213 83.4772 38.6207L82.1831 33.791L80.889 28.9614C81.1151 28.9008 81.3118 28.9593 81.4102 29.0192C81.504 29.0762 81.539 29.146 81.5469 29.1755L76.7173 30.4697ZM82.1831 33.791L83.4772 38.6206C88.7042 37.2201 91.4062 31.815 90.086 26.8876L85.2563 28.1816L80.4267 29.4757C80.4187 29.4459 80.4142 29.3679 80.4668 29.2718C80.5221 29.1709 80.663 29.022 80.889 28.9614L82.1831 33.791ZM58.7203 96.2971L57.0122 91.5979C58.4598 91.0717 61.1109 91.3363 62.2243 93.9032L57.6372 95.8928L53.0501 97.8825C54.523 101.278 58.1317 101.831 60.4285 100.996L58.7203 96.2971ZM74.5015 92.8721L78.037 89.3366C77.0686 88.3682 75.6639 87.6378 74.0042 87.5957L73.8775 92.5941L73.7508 97.5925C72.5636 97.5624 71.6001 97.0418 70.966 96.4076L74.5015 92.8721ZM86.9842 100.579L81.9895 100.809C81.9782 100.564 81.9896 100.33 82.0169 100.114L86.9775 100.74L91.9382 101.367C91.9791 101.042 91.9952 100.702 91.9789 100.348L86.9842 100.579ZM88.3491 24.847L84.522 28.0647C83.6213 26.9934 83.4067 25.6049 83.7426 24.4377L88.5476 25.8207L93.3525 27.2037C93.8862 25.3494 93.5371 23.2479 92.1762 21.6293L88.3491 24.847ZM58.9623 9.6336L59.3269 4.64691C56.3215 4.42713 53.7565 6.46293 53.1493 9.28069L58.037 10.334L62.9248 11.3874C62.5093 13.3156 60.6955 14.7737 58.5976 14.6203L58.9623 9.6336Z" fill="#474E52" mask="url(#path-4-outside-2_1228_70694)"/>
<path fill-rule="evenodd" clip-rule="evenodd" d="M86.975 100.631C86.1581 83.0942 85.9961 32.402 88.7075 25.2691C77.2287 11.2088 60.0123 9.52685 58.1873 9.57899C53.4295 30.193 53.8572 90.7382 57.9868 96.5364C67.5632 92.9912 72.4392 92.4371 74.2301 92.5873L76.42 94.7772C77.0874 95.4446 77.3933 96.8629 77.4628 97.4886C77.4771 97.6168 77.5042 97.9459 77.541 98.3918C77.6837 100.122 77.9716 103.611 78.2152 103.968C79.0623 105.21 86.1585 107.576 86.975 100.631ZM81.0354 33.5549C78.7418 33.5878 76.8551 31.7093 76.8214 29.3591C76.7877 27.009 78.6197 25.0771 80.9133 25.0442C83.2069 25.0113 85.0936 26.8898 85.1273 29.2399C85.1611 31.5901 83.3291 33.522 81.0354 33.5549Z" fill="#A1AEB6"/>
<path d="M58.1457 95.7595C60.9611 94.5076 62.1107 94.3761 63.9795 94.041C65.8822 93.6998 66.9903 91.7673 66.49 89.9001L65.6938 86.9285C65.5652 86.4486 65.5402 85.9469 65.6206 85.4567L66.6454 79.2015C66.7461 78.5871 66.681 77.9571 66.457 77.3762L63.9884 70.9748C63.7295 70.3033 63.6838 69.5683 63.8577 68.87L65.4573 62.4443C65.6239 61.7753 65.5891 61.072 65.3575 60.4227L63.2342 54.4715C62.9318 53.624 62.9675 52.6926 63.3338 51.8707L65.7412 46.4685C66.1334 45.5883 66.1454 44.5853 65.7743 43.696L63.7182 38.7688C63.432 38.083 63.3716 37.324 63.5455 36.6015L64.9173 30.9054C65.0207 30.4759 65.0419 30.0308 64.9797 29.5934L64.0783 23.2506C64.0055 22.7388 64.0471 22.2172 64.1999 21.7234L65.3723 17.9351C65.8554 16.374 65.4339 14.3983 64.3094 13.2126C62.8041 11.6253 60.6412 9.75716 58.5686 10.0889C54.3794 28.7145 54.4945 86.7011 58.1457 95.7595Z" fill="#C3CFD9"/>
<path d="M87.7937 25.514L65.3907 14.9929C65.687 14.4239 64.8745 12.6098 59.2539 9.90529C73.0432 11.3023 84.026 20.8932 87.7937 25.514Z" fill="#818B91"/>
</svg>
