<svg width="150" height="150" viewBox="0 0 150 150" fill="none" xmlns="http://www.w3.org/2000/svg">
<mask id="path-1-inside-1_1205_466" fill="white">
<path d="M77.0588 0.362305L79.3625 1.6084L83.2004 5.0957L86.6868 8.93262L87.0627 9.62793L88.0569 10.7949L88.9524 13.3018L89.2483 18.4766V88.9688C90.1565 89.9978 90.9559 91.1248 91.6292 92.332H96.5569L97.8577 91.0312C99.7329 89.1562 102.773 89.1562 104.649 91.0312L114.637 101.02C115.575 101.958 116.043 103.187 116.042 104.417C116.06 104.481 116.076 104.545 116.089 104.611L118.911 119.289C119.232 120.956 117.768 122.42 116.101 122.1L101.423 119.277C101.359 119.265 101.297 119.25 101.235 119.232C100.003 119.235 98.7702 118.766 97.8303 117.826L95.1458 115.142H88.5354C87.325 116.372 85.9503 117.44 84.4465 118.31V127.424C86.6792 129.789 88.0481 132.978 88.0481 136.487C88.0479 143.78 82.136 149.692 74.843 149.692C67.55 149.692 61.6372 143.78 61.637 136.487C61.637 132.978 63.006 129.789 65.2385 127.424V118.31C63.735 117.44 62.3608 116.372 61.1506 115.142H54.4827L51.7981 117.826C50.8464 118.778 49.5951 119.246 48.3479 119.231C48.2851 119.249 48.2213 119.265 48.1565 119.277L33.4797 122.101C31.8123 122.421 30.3476 120.957 30.6682 119.289L33.4905 104.611C33.5198 104.459 33.5641 104.312 33.6204 104.172C33.6843 103.035 34.1511 101.917 35.0198 101.048L45.0354 91.0312C46.9107 89.1563 49.9512 89.1561 51.8264 91.0312L53.1272 92.332H58.0569C58.73 91.1249 59.5287 89.9977 60.4368 88.9688V18.4766L60.7336 13.3018L61.6282 10.7949L62.7415 9.48828L62.8401 9.31445L66.4514 5.36328L70.4026 1.75195L72.7473 0.431641L74.9094 0L77.0588 0.362305Z"/>
</mask>
<path d="M77.0588 0.362305L79.3625 1.6084L83.2004 5.0957L86.6868 8.93262L87.0627 9.62793L88.0569 10.7949L88.9524 13.3018L89.2483 18.4766V88.9688C90.1565 89.9978 90.9559 91.1248 91.6292 92.332H96.5569L97.8577 91.0312C99.7329 89.1562 102.773 89.1562 104.649 91.0312L114.637 101.02C115.575 101.958 116.043 103.187 116.042 104.417C116.06 104.481 116.076 104.545 116.089 104.611L118.911 119.289C119.232 120.956 117.768 122.42 116.101 122.1L101.423 119.277C101.359 119.265 101.297 119.25 101.235 119.232C100.003 119.235 98.7702 118.766 97.8303 117.826L95.1458 115.142H88.5354C87.325 116.372 85.9503 117.44 84.4465 118.31V127.424C86.6792 129.789 88.0481 132.978 88.0481 136.487C88.0479 143.78 82.136 149.692 74.843 149.692C67.55 149.692 61.6372 143.78 61.637 136.487C61.637 132.978 63.006 129.789 65.2385 127.424V118.31C63.735 117.44 62.3608 116.372 61.1506 115.142H54.4827L51.7981 117.826C50.8464 118.778 49.5951 119.246 48.3479 119.231C48.2851 119.249 48.2213 119.265 48.1565 119.277L33.4797 122.101C31.8123 122.421 30.3476 120.957 30.6682 119.289L33.4905 104.611C33.5198 104.459 33.5641 104.312 33.6204 104.172C33.6843 103.035 34.1511 101.917 35.0198 101.048L45.0354 91.0312C46.9107 89.1563 49.9512 89.1561 51.8264 91.0312L53.1272 92.332H58.0569C58.73 91.1249 59.5287 89.9977 60.4368 88.9688V18.4766L60.7336 13.3018L61.6282 10.7949L62.7415 9.48828L62.8401 9.31445L66.4514 5.36328L70.4026 1.75195L72.7473 0.431641L74.9094 0L77.0588 0.362305Z" fill="#1B4054"/>
<path d="M77.0588 0.362305L79.4377 -4.03555L78.708 -4.43025L77.8899 -4.56814L77.0588 0.362305ZM79.3625 1.6084L82.725 -2.09211L82.2756 -2.50052L81.7414 -2.78946L79.3625 1.6084ZM83.2004 5.0957L86.901 1.73328L86.74 1.55614L86.5629 1.39519L83.2004 5.0957ZM86.6868 8.93262L91.0849 6.55439L90.7959 6.0199L90.3873 5.57019L86.6868 8.93262ZM87.0627 9.62793L82.6646 12.0062L82.9151 12.4694L83.2566 12.8703L87.0627 9.62793ZM88.0569 10.7949L92.7655 9.11289L92.4572 8.25002L91.863 7.55252L88.0569 10.7949ZM88.9524 13.3018L93.9442 13.0163L93.9031 12.2976L93.661 11.6197L88.9524 13.3018ZM89.2483 18.4766H94.2483V18.3337L94.2401 18.1911L89.2483 18.4766ZM89.2483 88.9688H84.2483V90.8596L85.4995 92.2773L89.2483 88.9688ZM91.6292 92.332L87.2622 94.7672L88.6925 97.332H91.6292V92.332ZM96.5569 92.332V97.332H98.628L100.092 95.8676L96.5569 92.332ZM97.8577 91.0312L94.3223 87.4956L94.3221 87.4957L97.8577 91.0312ZM104.649 91.0312L108.184 87.4957L108.184 87.4955L104.649 91.0312ZM116.042 104.417L111.042 104.415L111.042 105.103L111.228 105.765L116.042 104.417ZM116.089 104.611L120.999 103.667L120.999 103.667L116.089 104.611ZM118.911 119.289L123.821 118.345L123.821 118.345L118.911 119.289ZM116.101 122.1L115.157 127.01L115.157 127.01L116.101 122.1ZM101.423 119.277L100.478 124.187L100.479 124.187L101.423 119.277ZM101.235 119.232L102.571 114.414L101.91 114.231L101.225 114.232L101.235 119.232ZM95.1458 115.142L98.6813 111.606L97.2168 110.142H95.1458V115.142ZM88.5354 115.142V110.142H86.4403L84.9711 111.635L88.5354 115.142ZM84.4465 118.31L81.9428 113.982L79.4465 115.426V118.31H84.4465ZM84.4465 127.424H79.4465V129.411L80.8107 130.856L84.4465 127.424ZM88.0481 136.487L93.0481 136.487V136.487H88.0481ZM74.843 149.692V154.692H74.8431L74.843 149.692ZM61.637 136.487H56.637V136.487L61.637 136.487ZM65.2385 127.424L68.8744 130.856L70.2385 129.411V127.424H65.2385ZM65.2385 118.31H70.2385V115.426L67.7424 113.982L65.2385 118.31ZM61.1506 115.142L64.7149 111.635L63.2457 110.142H61.1506V115.142ZM54.4827 115.142V110.142H52.4116L50.9471 111.606L54.4827 115.142ZM51.7981 117.826L55.3336 121.362L55.3336 121.362L51.7981 117.826ZM48.3479 119.231L48.405 114.232L47.6926 114.224L47.0063 114.415L48.3479 119.231ZM48.1565 119.277L47.2123 114.367L47.212 114.367L48.1565 119.277ZM33.4797 122.101L34.424 127.011L34.4242 127.011L33.4797 122.101ZM30.6682 119.289L25.7582 118.345L25.7581 118.345L30.6682 119.289ZM33.4905 104.611L28.5806 103.666L28.5804 103.667L33.4905 104.611ZM33.6204 104.172L38.2616 106.032L38.5665 105.271L38.6125 104.452L33.6204 104.172ZM35.0198 101.048L38.5553 104.583L38.5555 104.583L35.0198 101.048ZM45.0354 91.0312L41.5002 87.4954L41.4997 87.4959L45.0354 91.0312ZM51.8264 91.0312L55.3619 87.4957L55.3619 87.4956L51.8264 91.0312ZM53.1272 92.332L49.5917 95.8676L51.0561 97.332H53.1272V92.332ZM58.0569 92.332V97.332H60.9935L62.4238 94.7672L58.0569 92.332ZM60.4368 88.9688L64.1856 92.2772L65.4368 90.8595V88.9688H60.4368ZM60.4368 18.4766L55.445 18.1902L55.4368 18.3333V18.4766H60.4368ZM60.7336 13.3018L56.0245 11.6214L55.783 12.2981L55.7418 13.0154L60.7336 13.3018ZM61.6282 10.7949L57.8223 7.55222L57.2273 8.25051L56.919 9.11452L61.6282 10.7949ZM62.7415 9.48828L66.5474 12.731L66.8556 12.3692L67.0902 11.9558L62.7415 9.48828ZM62.8401 9.31445L59.1494 5.9412L58.7694 6.357L58.4914 6.84692L62.8401 9.31445ZM66.4514 5.36328L63.0782 1.67259L62.9123 1.82418L62.7607 1.99003L66.4514 5.36328ZM70.4026 1.75195L67.9493 -2.60481L67.4512 -2.32436L67.0293 -1.93874L70.4026 1.75195ZM72.7473 0.431641L71.7684 -4.4716L70.9877 -4.31574L70.294 -3.92512L72.7473 0.431641ZM74.9094 0L75.7405 -4.93045L74.833 -5.08341L73.9305 -4.90324L74.9094 0ZM77.0588 0.362305L74.68 4.76016L76.9837 6.00626L79.3625 1.6084L81.7414 -2.78946L79.4377 -4.03555L77.0588 0.362305ZM79.3625 1.6084L76.0001 5.30891L79.838 8.79621L83.2004 5.0957L86.5629 1.39519L82.725 -2.09211L79.3625 1.6084ZM83.2004 5.0957L79.4999 8.45813L82.9862 12.295L86.6868 8.93262L90.3873 5.57019L86.901 1.73328L83.2004 5.0957ZM86.6868 8.93262L82.2886 11.3108L82.6646 12.0062L87.0627 9.62793L91.4609 7.2497L91.0849 6.55439L86.6868 8.93262ZM87.0627 9.62793L83.2566 12.8703L84.2507 14.0373L88.0569 10.7949L91.863 7.55252L90.8689 6.38553L87.0627 9.62793ZM88.0569 10.7949L83.3483 12.477L84.2438 14.9838L88.9524 13.3018L93.661 11.6197L92.7655 9.11289L88.0569 10.7949ZM88.9524 13.3018L83.9605 13.5872L84.2564 18.762L89.2483 18.4766L94.2401 18.1911L93.9442 13.0163L88.9524 13.3018ZM89.2483 18.4766H84.2483V88.9688H89.2483H94.2483V18.4766H89.2483ZM89.2483 88.9688L85.4995 92.2773C86.1726 93.04 86.7644 93.8745 87.2622 94.7672L91.6292 92.332L95.9961 89.8969C95.1475 88.3751 94.1404 86.9556 92.9971 85.6602L89.2483 88.9688ZM91.6292 92.332V97.332H96.5569V92.332V87.332H91.6292V92.332ZM96.5569 92.332L100.092 95.8676L101.393 94.5668L97.8577 91.0312L94.3221 87.4957L93.0214 88.7965L96.5569 92.332ZM97.8577 91.0312L101.393 94.5669C101.316 94.6444 101.191 94.6442 101.113 94.567L104.649 91.0312L108.184 87.4955C104.356 83.6683 98.1502 83.6679 94.3223 87.4956L97.8577 91.0312ZM104.649 91.0312L101.113 94.5668L111.101 104.555L114.637 101.02L118.173 97.484L108.184 87.4957L104.649 91.0312ZM114.637 101.02L111.101 104.555C111.088 104.541 111.069 104.516 111.057 104.485C111.046 104.457 111.042 104.434 111.042 104.415L116.042 104.417L121.042 104.419C121.043 101.92 120.089 99.4003 118.173 97.484L114.637 101.02ZM116.042 104.417L111.228 105.765C111.223 105.751 111.202 105.672 111.179 105.556L116.089 104.611L120.999 103.667C120.951 103.419 120.897 103.211 120.857 103.069L116.042 104.417ZM116.089 104.611L111.179 105.555L114.001 120.233L118.911 119.289L123.821 118.345L120.999 103.667L116.089 104.611ZM118.911 119.289L114.001 120.233C113.654 118.428 115.24 116.843 117.045 117.189L116.101 122.1L115.157 127.01C120.297 127.998 124.809 123.485 123.821 118.345L118.911 119.289ZM116.101 122.1L117.045 117.19L102.367 114.367L101.423 119.277L100.479 124.187L115.157 127.01L116.101 122.1ZM101.423 119.277L102.368 114.367C102.47 114.387 102.542 114.406 102.571 114.414L101.235 119.232L99.8985 124.051C100.051 124.093 100.249 124.143 100.478 124.187L101.423 119.277ZM101.235 119.232L101.225 114.232C101.245 114.232 101.27 114.236 101.297 114.247C101.328 114.26 101.353 114.278 101.366 114.291L97.8303 117.826L94.2948 121.362C96.2127 123.28 98.7375 124.237 101.244 124.232L101.235 119.232ZM97.8303 117.826L101.366 114.291L98.6813 111.606L95.1458 115.142L91.6102 118.677L94.2948 121.362L97.8303 117.826ZM95.1458 115.142V110.142H88.5354V115.142V120.142H95.1458V115.142ZM88.5354 115.142L84.9711 111.635C84.0736 112.547 83.0552 113.338 81.9428 113.982L84.4465 118.31L86.9503 122.638C88.8455 121.541 90.5765 120.196 92.0997 118.648L88.5354 115.142ZM84.4465 118.31H79.4465V127.424H84.4465H89.4465V118.31H84.4465ZM84.4465 127.424L80.8107 130.856C82.2023 132.33 83.0481 134.305 83.0481 136.487H88.0481H93.0481C93.0481 131.652 91.156 127.247 88.0823 123.991L84.4465 127.424ZM88.0481 136.487L83.0481 136.487C83.048 141.019 79.3745 144.692 74.8429 144.692L74.843 149.692L74.8431 154.692C84.8975 154.692 93.0478 146.542 93.0481 136.487L88.0481 136.487ZM74.843 149.692V144.692C70.3111 144.692 66.6371 141.018 66.637 136.487L61.637 136.487L56.637 136.487C56.6372 146.542 64.7889 154.692 74.843 154.692V149.692ZM61.637 136.487H66.637C66.637 134.305 67.4828 132.33 68.8744 130.856L65.2385 127.424L61.6026 123.992C58.5292 127.247 56.637 131.652 56.637 136.487H61.637ZM65.2385 127.424H70.2385V118.31H65.2385H60.2385V127.424H65.2385ZM65.2385 118.31L67.7424 113.982C66.6312 113.339 65.613 112.548 64.7149 111.635L61.1506 115.142L57.5863 118.648C59.1086 120.195 60.8388 121.541 62.7347 122.637L65.2385 118.31ZM61.1506 115.142V110.142H54.4827V115.142V120.142H61.1506V115.142ZM54.4827 115.142L50.9471 111.606L48.2626 114.291L51.7981 117.826L55.3336 121.362L58.0182 118.677L54.4827 115.142ZM51.7981 117.826L48.2626 114.291C48.276 114.277 48.3015 114.259 48.3332 114.246C48.3614 114.235 48.3857 114.232 48.405 114.232L48.3479 119.231L48.2908 124.231C50.8265 124.26 53.3905 123.305 55.3336 121.362L51.7981 117.826ZM48.3479 119.231L47.0063 114.415C47.0264 114.409 47.1019 114.389 47.2123 114.367L48.1565 119.277L49.1007 124.187C49.3407 124.141 49.5438 124.089 49.6896 124.048L48.3479 119.231ZM48.1565 119.277L47.212 114.367L32.5352 117.191L33.4797 122.101L34.4242 127.011L49.101 124.187L48.1565 119.277ZM33.4797 122.101L32.5355 117.191C34.341 116.843 35.9252 118.428 35.5783 120.233L30.6682 119.289L25.7581 118.345C24.7701 123.485 29.2836 127.999 34.424 127.011L33.4797 122.101ZM30.6682 119.289L35.5783 120.233L38.4005 105.555L33.4905 104.611L28.5804 103.667L25.7582 118.345L30.6682 119.289ZM33.4905 104.611L38.4004 105.556C38.3655 105.738 38.3156 105.897 38.2616 106.032L33.6204 104.172L28.9791 102.312C28.8126 102.728 28.6741 103.18 28.5806 103.666L33.4905 104.611ZM33.6204 104.172L38.6125 104.452C38.6114 104.473 38.6065 104.497 38.595 104.523C38.5824 104.551 38.5661 104.573 38.5553 104.583L35.0198 101.048L31.4842 97.5123C29.7148 99.2817 28.7585 101.573 28.6282 103.891L33.6204 104.172ZM35.0198 101.048L38.5555 104.583L48.5711 94.5666L45.0354 91.0312L41.4997 87.4959L31.4841 97.5125L35.0198 101.048ZM45.0354 91.0312L48.5706 94.5671C48.4936 94.6441 48.3686 94.6445 48.291 94.5669L51.8264 91.0312L55.3619 87.4956C51.5339 83.6678 45.3278 83.6684 41.5002 87.4954L45.0354 91.0312ZM51.8264 91.0312L48.2909 94.5668L49.5917 95.8676L53.1272 92.332L56.6627 88.7965L55.3619 87.4957L51.8264 91.0312ZM53.1272 92.332V97.332H58.0569V92.332V87.332H53.1272V92.332ZM58.0569 92.332L62.4238 94.7672C62.9225 93.873 63.5139 93.0384 64.1856 92.2772L60.4368 88.9688L56.6879 85.6603C55.5436 86.957 54.5376 88.3769 53.69 89.8968L58.0569 92.332ZM60.4368 88.9688H65.4368V18.4766H60.4368H55.4368V88.9688H60.4368ZM60.4368 18.4766L65.4286 18.7629L65.7254 13.5881L60.7336 13.3018L55.7418 13.0154L55.445 18.1902L60.4368 18.4766ZM60.7336 13.3018L65.4428 14.9822L66.3373 12.4753L61.6282 10.7949L56.919 9.11452L56.0245 11.6214L60.7336 13.3018ZM61.6282 10.7949L65.4341 14.0376L66.5474 12.731L62.7415 9.48828L58.9356 6.24558L57.8223 7.55222L61.6282 10.7949ZM62.7415 9.48828L67.0902 11.9558L67.1888 11.782L62.8401 9.31445L58.4914 6.84692L58.3927 7.02075L62.7415 9.48828ZM62.8401 9.31445L66.5308 12.6877L70.1421 8.73653L66.4514 5.36328L62.7607 1.99003L59.1494 5.9412L62.8401 9.31445ZM66.4514 5.36328L69.8247 9.05397L73.7758 5.44264L70.4026 1.75195L67.0293 -1.93874L63.0782 1.67259L66.4514 5.36328ZM70.4026 1.75195L72.8559 6.10872L75.2006 4.7884L72.7473 0.431641L70.294 -3.92512L67.9493 -2.60481L70.4026 1.75195ZM72.7473 0.431641L73.7262 5.33488L75.8883 4.90324L74.9094 0L73.9305 -4.90324L71.7684 -4.4716L72.7473 0.431641ZM74.9094 0L74.0784 4.93045L76.2278 5.29275L77.0588 0.362305L77.8899 -4.56814L75.7405 -4.93045L74.9094 0Z" fill="#1A2A33" mask="url(#path-1-inside-1_1205_466)"/>
<path d="M42.0374 107.314L47.3274 100.918L51.2966 104.229L46.1645 110.626L42.0374 107.314Z" fill="#1F5C7C"/>
<path d="M49.1996 103.894L41.8242 105.393L40.4204 112.787L47.7957 111.288L49.1996 103.894Z" fill="#1F5C7C"/>
<path d="M107.8 107.314L102.51 100.918L98.5405 104.229L103.673 110.626L107.8 107.314Z" fill="#1F5C7C"/>
<path d="M100.638 103.894L108.013 105.393L109.417 112.787L102.041 111.288L100.638 103.894Z" fill="#1F5C7C"/>
<rect x="47.2312" y="100.841" width="55.2227" height="6.00247" fill="#1F5C7C"/>
<path d="M68.8403 20.2701L68.9639 16.4324L69.3368 14.5734L69.9674 13.257L70.8826 12.3499L72.1749 11.8135L74.8428 11.6357L77.5107 11.8135L78.803 12.3499L79.7182 13.257L80.3488 14.5734L80.7217 16.4324L80.8453 20.2701V82.234L80.7217 86.0717L80.3488 87.9306L79.7182 89.2471L78.803 90.1542L77.5107 90.6905L74.8428 90.8683L72.1749 90.6905L70.8826 90.1542L69.9674 89.2471L69.3368 87.9306L68.9639 86.0717L68.8403 82.234V20.2701Z" fill="#1F5C7C"/>
<path d="M71.2412 23.0867L71.3154 19.5979L71.5391 17.9079L71.9174 16.7111L72.4666 15.8865L73.2419 15.3989L74.8427 15.2373L76.4434 15.3989L77.2188 15.8865L77.7679 16.7111L78.1463 17.9079L78.37 19.5979L78.4442 23.0867V79.4175L78.37 82.9063L78.1463 84.5963L77.7679 85.7931L77.2188 86.6177L76.4434 87.1053L74.8427 87.2669L73.2419 87.1053L72.4666 86.6177L71.9174 85.7931L71.5391 84.5963L71.3154 82.9063L71.2412 79.4175V23.0867Z" fill="#4D8DBA"/>
<circle cx="74.8429" cy="102.873" r="8.40345" fill="#1F5C7C"/>
<circle cx="74.8427" cy="136.487" r="4.80197" fill="#1F5C7C"/>
<circle cx="74.8427" cy="102.873" r="4.80197" fill="#4D8DBA"/>
<mask id="path-13-inside-2_1205_466" fill="white">
<path d="M77.0588 0.362305L79.3625 1.6084L83.2004 5.0957L86.6867 8.93262L87.0627 9.62793L88.0568 10.7949L88.9524 13.3018L89.2482 18.4766V88.9688C90.1565 89.9978 90.9559 91.1248 91.6291 92.332H96.5568L97.8576 91.0312C99.7328 89.1562 102.773 89.1562 104.649 91.0312L114.637 101.02C115.575 101.958 116.043 103.187 116.042 104.417C116.06 104.481 116.076 104.545 116.089 104.611L118.911 119.289C119.232 120.956 117.768 122.42 116.101 122.1L101.423 119.277C101.359 119.265 101.296 119.25 101.235 119.232C100.003 119.235 98.7702 118.766 97.8303 117.826L95.1457 115.142H88.5354C87.325 116.372 85.9503 117.44 84.4465 118.31V127.424C86.6792 129.789 88.0481 132.978 88.0481 136.487C88.0479 143.78 82.1359 149.692 74.843 149.692C67.5499 149.692 61.6371 143.78 61.6369 136.487C61.6369 132.978 63.006 129.789 65.2385 127.424V118.31C63.7349 117.44 62.3608 116.372 61.1506 115.142H54.4826L51.7981 117.826C50.8464 118.778 49.5951 119.246 48.3479 119.231C48.285 119.249 48.2213 119.265 48.1565 119.277L33.4797 122.101C31.8122 122.421 30.3476 120.957 30.6682 119.289L33.4904 104.611C33.5197 104.459 33.5641 104.312 33.6203 104.172C33.6842 103.035 34.1511 101.917 35.0197 101.048L45.0354 91.0312C46.9106 89.1563 49.9512 89.1561 51.8264 91.0312L53.1272 92.332H58.0568C58.73 91.1249 59.5287 89.9977 60.4367 88.9688V18.4766L60.7336 13.3018L61.6281 10.7949L62.7414 9.48828L62.84 9.31445L66.4514 5.36328L70.4025 1.75195L72.7473 0.431641L74.9094 0L77.0588 0.362305Z"/>
</mask>
<path d="M77.0588 0.362305L79.3625 1.6084L83.2004 5.0957L86.6867 8.93262L87.0627 9.62793L88.0568 10.7949L88.9524 13.3018L89.2482 18.4766V88.9688C90.1565 89.9978 90.9559 91.1248 91.6291 92.332H96.5568L97.8576 91.0312C99.7328 89.1562 102.773 89.1562 104.649 91.0312L114.637 101.02C115.575 101.958 116.043 103.187 116.042 104.417C116.06 104.481 116.076 104.545 116.089 104.611L118.911 119.289C119.232 120.956 117.768 122.42 116.101 122.1L101.423 119.277C101.359 119.265 101.296 119.25 101.235 119.232C100.003 119.235 98.7702 118.766 97.8303 117.826L95.1457 115.142H88.5354C87.325 116.372 85.9503 117.44 84.4465 118.31V127.424C86.6792 129.789 88.0481 132.978 88.0481 136.487C88.0479 143.78 82.1359 149.692 74.843 149.692C67.5499 149.692 61.6371 143.78 61.6369 136.487C61.6369 132.978 63.006 129.789 65.2385 127.424V118.31C63.7349 117.44 62.3608 116.372 61.1506 115.142H54.4826L51.7981 117.826C50.8464 118.778 49.5951 119.246 48.3479 119.231C48.285 119.249 48.2213 119.265 48.1565 119.277L33.4797 122.101C31.8122 122.421 30.3476 120.957 30.6682 119.289L33.4904 104.611C33.5197 104.459 33.5641 104.312 33.6203 104.172C33.6842 103.035 34.1511 101.917 35.0197 101.048L45.0354 91.0312C46.9106 89.1563 49.9512 89.1561 51.8264 91.0312L53.1272 92.332H58.0568C58.73 91.1249 59.5287 89.9977 60.4367 88.9688V18.4766L60.7336 13.3018L61.6281 10.7949L62.7414 9.48828L62.84 9.31445L66.4514 5.36328L70.4025 1.75195L72.7473 0.431641L74.9094 0L77.0588 0.362305Z" fill="#1B4054"/>
<path d="M77.0588 0.362305L79.4376 -4.03555L78.7079 -4.43025L77.8899 -4.56814L77.0588 0.362305ZM79.3625 1.6084L82.725 -2.09211L82.2755 -2.50052L81.7413 -2.78946L79.3625 1.6084ZM83.2004 5.0957L86.901 1.73328L86.74 1.55614L86.5629 1.39519L83.2004 5.0957ZM86.6867 8.93262L91.0849 6.55439L90.7959 6.0199L90.3873 5.57019L86.6867 8.93262ZM87.0627 9.62793L82.6645 12.0062L82.915 12.4694L83.2565 12.8703L87.0627 9.62793ZM88.0568 10.7949L92.7654 9.11289L92.4572 8.25002L91.863 7.55252L88.0568 10.7949ZM88.9524 13.3018L93.9442 13.0163L93.9031 12.2976L93.6609 11.6197L88.9524 13.3018ZM89.2482 18.4766H94.2482V18.3337L94.2401 18.1911L89.2482 18.4766ZM89.2482 88.9688H84.2482V90.8596L85.4994 92.2773L89.2482 88.9688ZM91.6291 92.332L87.2622 94.7672L88.6924 97.332H91.6291V92.332ZM96.5568 92.332V97.332H98.6279L100.092 95.8676L96.5568 92.332ZM97.8576 91.0312L94.3222 87.4956L94.3221 87.4957L97.8576 91.0312ZM104.649 91.0312L108.184 87.4957L108.184 87.4955L104.649 91.0312ZM116.042 104.417L111.042 104.415L111.042 105.103L111.227 105.765L116.042 104.417ZM116.089 104.611L120.999 103.667L120.999 103.667L116.089 104.611ZM118.911 119.289L123.821 118.345L123.821 118.345L118.911 119.289ZM116.101 122.1L115.157 127.01L115.157 127.01L116.101 122.1ZM101.423 119.277L100.478 124.187L100.479 124.187L101.423 119.277ZM101.235 119.232L102.571 114.414L101.91 114.231L101.225 114.232L101.235 119.232ZM95.1457 115.142L98.6812 111.606L97.2168 110.142H95.1457V115.142ZM88.5354 115.142V110.142H86.4403L84.971 111.635L88.5354 115.142ZM84.4465 118.31L81.9428 113.982L79.4465 115.426V118.31H84.4465ZM84.4465 127.424H79.4465V129.411L80.8107 130.856L84.4465 127.424ZM88.0481 136.487L93.0481 136.487V136.487H88.0481ZM74.843 149.692V154.692H74.8431L74.843 149.692ZM61.6369 136.487H56.6369V136.487L61.6369 136.487ZM65.2385 127.424L68.8744 130.856L70.2385 129.411V127.424H65.2385ZM65.2385 118.31H70.2385V115.426L67.7423 113.982L65.2385 118.31ZM61.1506 115.142L64.7149 111.635L63.2456 110.142H61.1506V115.142ZM54.4826 115.142V110.142H52.4116L50.9471 111.606L54.4826 115.142ZM51.7981 117.826L55.3336 121.362L55.3336 121.362L51.7981 117.826ZM48.3479 119.231L48.4049 114.232L47.6925 114.224L47.0062 114.415L48.3479 119.231ZM48.1565 119.277L47.2122 114.367L47.212 114.367L48.1565 119.277ZM33.4797 122.101L34.4239 127.011L34.4242 127.011L33.4797 122.101ZM30.6682 119.289L25.7581 118.345L25.7581 118.345L30.6682 119.289ZM33.4904 104.611L28.5805 103.666L28.5804 103.667L33.4904 104.611ZM33.6203 104.172L38.2616 106.032L38.5665 105.271L38.6124 104.452L33.6203 104.172ZM35.0197 101.048L38.5553 104.583L38.5554 104.583L35.0197 101.048ZM45.0354 91.0312L41.5001 87.4954L41.4997 87.4959L45.0354 91.0312ZM51.8264 91.0312L55.3619 87.4957L55.3618 87.4956L51.8264 91.0312ZM53.1272 92.332L49.5916 95.8676L51.0561 97.332H53.1272V92.332ZM58.0568 92.332V97.332H60.9935L62.4237 94.7672L58.0568 92.332ZM60.4367 88.9688L64.1856 92.2772L65.4367 90.8595V88.9688H60.4367ZM60.4367 18.4766L55.4449 18.1902L55.4367 18.3333V18.4766H60.4367ZM60.7336 13.3018L56.0244 11.6214L55.783 12.2981L55.7418 13.0154L60.7336 13.3018ZM61.6281 10.7949L57.8222 7.55222L57.2273 8.25051L56.919 9.11452L61.6281 10.7949ZM62.7414 9.48828L66.5473 12.731L66.8556 12.3692L67.0901 11.9558L62.7414 9.48828ZM62.84 9.31445L59.1494 5.9412L58.7693 6.357L58.4913 6.84692L62.84 9.31445ZM66.4514 5.36328L63.0781 1.67259L62.9123 1.82418L62.7607 1.99003L66.4514 5.36328ZM70.4025 1.75195L67.9493 -2.60481L67.4512 -2.32436L67.0293 -1.93874L70.4025 1.75195ZM72.7473 0.431641L71.7684 -4.4716L70.9877 -4.31574L70.294 -3.92512L72.7473 0.431641ZM74.9094 0L75.7405 -4.93045L74.833 -5.08341L73.9305 -4.90324L74.9094 0ZM77.0588 0.362305L74.68 4.76016L76.9837 6.00626L79.3625 1.6084L81.7413 -2.78946L79.4376 -4.03555L77.0588 0.362305ZM79.3625 1.6084L76 5.30891L79.8379 8.79621L83.2004 5.0957L86.5629 1.39519L82.725 -2.09211L79.3625 1.6084ZM83.2004 5.0957L79.4998 8.45813L82.9862 12.295L86.6867 8.93262L90.3873 5.57019L86.901 1.73328L83.2004 5.0957ZM86.6867 8.93262L82.2885 11.3108L82.6645 12.0062L87.0627 9.62793L91.4609 7.2497L91.0849 6.55439L86.6867 8.93262ZM87.0627 9.62793L83.2565 12.8703L84.2507 14.0373L88.0568 10.7949L91.863 7.55252L90.8689 6.38553L87.0627 9.62793ZM88.0568 10.7949L83.3483 12.477L84.2438 14.9838L88.9524 13.3018L93.6609 11.6197L92.7654 9.11289L88.0568 10.7949ZM88.9524 13.3018L83.9605 13.5872L84.2564 18.762L89.2482 18.4766L94.2401 18.1911L93.9442 13.0163L88.9524 13.3018ZM89.2482 18.4766H84.2482V88.9688H89.2482H94.2482V18.4766H89.2482ZM89.2482 88.9688L85.4994 92.2773C86.1726 93.04 86.7644 93.8745 87.2622 94.7672L91.6291 92.332L95.996 89.8969C95.1474 88.3751 94.1403 86.9556 92.9971 85.6602L89.2482 88.9688ZM91.6291 92.332V97.332H96.5568V92.332V87.332H91.6291V92.332ZM96.5568 92.332L100.092 95.8676L101.393 94.5668L97.8576 91.0312L94.3221 87.4957L93.0213 88.7965L96.5568 92.332ZM97.8576 91.0312L101.393 94.5669C101.316 94.6444 101.191 94.6442 101.113 94.567L104.649 91.0312L108.184 87.4955C104.356 83.6683 98.1501 83.6679 94.3222 87.4956L97.8576 91.0312ZM104.649 91.0312L101.113 94.5668L111.101 104.555L114.637 101.02L118.172 97.484L108.184 87.4957L104.649 91.0312ZM114.637 101.02L111.101 104.555C111.088 104.541 111.069 104.516 111.057 104.485C111.046 104.457 111.042 104.434 111.042 104.415L116.042 104.417L121.042 104.419C121.043 101.92 120.089 99.4003 118.172 97.484L114.637 101.02ZM116.042 104.417L111.227 105.765C111.223 105.751 111.201 105.672 111.179 105.556L116.089 104.611L120.999 103.667C120.951 103.419 120.897 103.211 120.857 103.069L116.042 104.417ZM116.089 104.611L111.179 105.555L114.001 120.233L118.911 119.289L123.821 118.345L120.999 103.667L116.089 104.611ZM118.911 119.289L114.001 120.233C113.654 118.428 115.24 116.843 117.045 117.189L116.101 122.1L115.157 127.01C120.297 127.998 124.809 123.485 123.821 118.345L118.911 119.289ZM116.101 122.1L117.045 117.19L102.367 114.367L101.423 119.277L100.479 124.187L115.157 127.01L116.101 122.1ZM101.423 119.277L102.368 114.367C102.47 114.387 102.542 114.406 102.571 114.414L101.235 119.232L99.8985 124.051C100.051 124.093 100.248 124.143 100.478 124.187L101.423 119.277ZM101.235 119.232L101.225 114.232C101.245 114.232 101.27 114.236 101.297 114.247C101.328 114.26 101.353 114.278 101.366 114.291L97.8303 117.826L94.2947 121.362C96.2127 123.28 98.7374 124.237 101.244 124.232L101.235 119.232ZM97.8303 117.826L101.366 114.291L98.6812 111.606L95.1457 115.142L91.6102 118.677L94.2947 121.362L97.8303 117.826ZM95.1457 115.142V110.142H88.5354V115.142V120.142H95.1457V115.142ZM88.5354 115.142L84.971 111.635C84.0736 112.547 83.0551 113.338 81.9428 113.982L84.4465 118.31L86.9502 122.638C88.8455 121.541 90.5764 120.196 92.0997 118.648L88.5354 115.142ZM84.4465 118.31H79.4465V127.424H84.4465H89.4465V118.31H84.4465ZM84.4465 127.424L80.8107 130.856C82.2023 132.33 83.0481 134.305 83.0481 136.487H88.0481H93.0481C93.0481 131.652 91.156 127.247 88.0823 123.991L84.4465 127.424ZM88.0481 136.487L83.0481 136.487C83.0479 141.019 79.3744 144.692 74.8429 144.692L74.843 149.692L74.8431 154.692C84.8974 154.692 93.0478 146.542 93.0481 136.487L88.0481 136.487ZM74.843 149.692V144.692C70.311 144.692 66.637 141.018 66.6369 136.487L61.6369 136.487L56.6369 136.487C56.6372 146.542 64.7889 154.692 74.843 154.692V149.692ZM61.6369 136.487H66.6369C66.6369 134.305 67.4828 132.33 68.8744 130.856L65.2385 127.424L61.6026 123.992C58.5292 127.247 56.6369 131.652 56.6369 136.487H61.6369ZM65.2385 127.424H70.2385V118.31H65.2385H60.2385V127.424H65.2385ZM65.2385 118.31L67.7423 113.982C66.6311 113.339 65.613 112.548 64.7149 111.635L61.1506 115.142L57.5863 118.648C59.1086 120.195 60.8388 121.541 62.7346 122.637L65.2385 118.31ZM61.1506 115.142V110.142H54.4826V115.142V120.142H61.1506V115.142ZM54.4826 115.142L50.9471 111.606L48.2625 114.291L51.7981 117.826L55.3336 121.362L58.0182 118.677L54.4826 115.142ZM51.7981 117.826L48.2625 114.291C48.276 114.277 48.3014 114.259 48.3332 114.246C48.3614 114.235 48.3856 114.232 48.4049 114.232L48.3479 119.231L48.2908 124.231C50.8265 124.26 53.3904 123.305 55.3336 121.362L51.7981 117.826ZM48.3479 119.231L47.0062 114.415C47.0263 114.409 47.1019 114.389 47.2122 114.367L48.1565 119.277L49.1007 124.187C49.3407 124.141 49.5437 124.089 49.6895 124.048L48.3479 119.231ZM48.1565 119.277L47.212 114.367L32.5352 117.191L33.4797 122.101L34.4242 127.011L49.1009 124.187L48.1565 119.277ZM33.4797 122.101L32.5355 117.191C34.3409 116.843 35.9252 118.428 35.5783 120.233L30.6682 119.289L25.7581 118.345C24.77 123.485 29.2835 127.999 34.4239 127.011L33.4797 122.101ZM30.6682 119.289L35.5782 120.233L38.4005 105.555L33.4904 104.611L28.5804 103.667L25.7581 118.345L30.6682 119.289ZM33.4904 104.611L38.4003 105.556C38.3654 105.738 38.3156 105.897 38.2616 106.032L33.6203 104.172L28.979 102.312C28.8125 102.728 28.6741 103.18 28.5805 103.666L33.4904 104.611ZM33.6203 104.172L38.6124 104.452C38.6113 104.473 38.6064 104.497 38.5949 104.523C38.5824 104.551 38.566 104.573 38.5553 104.583L35.0197 101.048L31.4842 97.5123C29.7148 99.2817 28.7585 101.573 28.6282 103.891L33.6203 104.172ZM35.0197 101.048L38.5554 104.583L48.5711 94.5666L45.0354 91.0312L41.4997 87.4959L31.484 97.5125L35.0197 101.048ZM45.0354 91.0312L48.5706 94.5671C48.4935 94.6441 48.3685 94.6445 48.2909 94.5669L51.8264 91.0312L55.3618 87.4956C51.5338 83.6678 45.3277 83.6684 41.5001 87.4954L45.0354 91.0312ZM51.8264 91.0312L48.2908 94.5668L49.5916 95.8676L53.1272 92.332L56.6627 88.7965L55.3619 87.4957L51.8264 91.0312ZM53.1272 92.332V97.332H58.0568V92.332V87.332H53.1272V92.332ZM58.0568 92.332L62.4237 94.7672C62.9224 93.873 63.5138 93.0384 64.1856 92.2772L60.4367 88.9688L56.6879 85.6603C55.5435 86.957 54.5375 88.3769 53.6899 89.8968L58.0568 92.332ZM60.4367 88.9688H65.4367V18.4766H60.4367H55.4367V88.9688H60.4367ZM60.4367 18.4766L65.4285 18.7629L65.7254 13.5881L60.7336 13.3018L55.7418 13.0154L55.4449 18.1902L60.4367 18.4766ZM60.7336 13.3018L65.4428 14.9822L66.3373 12.4753L61.6281 10.7949L56.919 9.11452L56.0244 11.6214L60.7336 13.3018ZM61.6281 10.7949L65.434 14.0376L66.5473 12.731L62.7414 9.48828L58.9355 6.24558L57.8222 7.55222L61.6281 10.7949ZM62.7414 9.48828L67.0901 11.9558L67.1888 11.782L62.84 9.31445L58.4913 6.84692L58.3927 7.02075L62.7414 9.48828ZM62.84 9.31445L66.5307 12.6877L70.1421 8.73653L66.4514 5.36328L62.7607 1.99003L59.1494 5.9412L62.84 9.31445ZM66.4514 5.36328L69.8246 9.05397L73.7758 5.44264L70.4025 1.75195L67.0293 -1.93874L63.0781 1.67259L66.4514 5.36328ZM70.4025 1.75195L72.8558 6.10872L75.2006 4.7884L72.7473 0.431641L70.294 -3.92512L67.9493 -2.60481L70.4025 1.75195ZM72.7473 0.431641L73.7262 5.33488L75.8883 4.90324L74.9094 0L73.9305 -4.90324L71.7684 -4.4716L72.7473 0.431641ZM74.9094 0L74.0783 4.93045L76.2277 5.29275L77.0588 0.362305L77.8899 -4.56814L75.7405 -4.93045L74.9094 0Z" fill="#1A2A33" mask="url(#path-13-inside-2_1205_466)"/>
<path d="M42.0374 107.314L47.3274 100.918L51.2966 104.229L46.1645 110.626L42.0374 107.314Z" fill="#1F5C7C"/>
<path d="M49.1996 103.894L41.8242 105.393L40.4204 112.787L47.7957 111.288L49.1996 103.894Z" fill="#1F5C7C"/>
<path d="M107.8 107.314L102.51 100.918L98.5405 104.229L103.673 110.626L107.8 107.314Z" fill="#1F5C7C"/>
<path d="M100.638 103.894L108.013 105.393L109.417 112.787L102.041 111.288L100.638 103.894Z" fill="#1F5C7C"/>
<rect x="47.2312" y="100.841" width="55.2227" height="6.00247" fill="#1F5C7C"/>
<path d="M68.8403 20.2701L68.9639 16.4324L69.3368 14.5734L69.9674 13.257L70.8826 12.3499L72.1749 11.8135L74.8428 11.6357L77.5107 11.8135L78.803 12.3499L79.7182 13.257L80.3488 14.5734L80.7217 16.4324L80.8453 20.2701V82.234L80.7217 86.0717L80.3488 87.9306L79.7182 89.2471L78.803 90.1542L77.5107 90.6905L74.8428 90.8683L72.1749 90.6905L70.8826 90.1542L69.9674 89.2471L69.3368 87.9306L68.9639 86.0717L68.8403 82.234V20.2701Z" fill="#1F5C7C"/>
<path d="M71.2412 23.0867L71.3154 19.5979L71.5391 17.9079L71.9174 16.7111L72.4666 15.8865L73.2419 15.3989L74.8427 15.2373L76.4434 15.3989L77.2188 15.8865L77.7679 16.7111L78.1463 17.9079L78.37 19.5979L78.4442 23.0867V79.4175L78.37 82.9063L78.1463 84.5963L77.7679 85.7931L77.2188 86.6177L76.4434 87.1053L74.8427 87.2669L73.2419 87.1053L72.4666 86.6177L71.9174 85.7931L71.5391 84.5963L71.3154 82.9063L71.2412 79.4175V23.0867Z" fill="#4D8DBA"/>
<circle cx="74.8429" cy="102.873" r="8.40345" fill="#1F5C7C"/>
<circle cx="74.8427" cy="136.487" r="4.80197" fill="#1F5C7C"/>
<circle cx="74.8427" cy="102.873" r="4.80197" fill="#4D8DBA"/>
</svg>
