<svg width="250" height="250" viewBox="0 0 250 250" fill="none" xmlns="http://www.w3.org/2000/svg">
<g clip-path="url(#clip0_1230_70793)">
<path d="M181.654 138.695C182.878 136.575 186.174 136.205 187.575 138.61L187.705 138.852L187.957 139.384C190.483 144.92 190.389 151.564 187.11 157.244C183.657 163.225 177.515 166.678 171.1 166.973L141.532 218.188C144.483 223.89 144.563 230.937 141.11 236.918C135.725 246.245 123.799 249.44 114.472 244.056C105.146 238.671 101.95 226.745 107.335 217.418C110.788 211.437 116.931 207.983 123.345 207.688L152.914 156.473C149.962 150.771 149.882 143.725 153.335 137.744C156.72 131.881 162.691 128.443 168.965 128.032C171.934 127.838 173.391 131.006 172.127 133.195L165.929 143.93L165.928 145.67L165.928 147.18L166.553 148.262L171.392 151.056L172.641 151.055L173.949 150.301L175.455 149.43L181.654 138.695ZM121.167 221.873L118.11 227.167L121.166 232.462L127.279 232.461L130.336 227.167L127.279 221.874L121.167 221.873Z" fill="#1F5C7C" stroke="#1A2A33" stroke-width="5"/>
<path d="M177.5 38.668C177.5 36.2199 180.17 34.2523 182.586 35.6338L182.819 35.7783L183.304 36.1133C188.26 39.6446 191.5 45.4453 191.5 52.0039C191.5 58.9102 187.907 64.9721 182.5 68.4346L182.5 127.572C187.908 131.035 191.5 137.097 191.5 144.004C191.5 154.773 182.769 163.504 172 163.504C161.23 163.504 152.5 154.773 152.5 144.004C152.5 137.097 156.092 131.035 161.5 127.572L161.5 68.4346C156.093 64.9721 152.5 58.9102 152.5 52.0039C152.5 45.2338 155.952 39.2708 161.181 35.7783C163.655 34.1259 166.5 36.1409 166.5 38.668L166.5 51.0645L167.369 52.5713L168.124 53.8789L169.206 54.5039L174.794 54.5039L175.875 53.8789L176.631 52.5713L177.5 51.0645L177.5 38.668ZM166.706 140.946L166.706 147.06L172 150.116L177.294 147.06L177.294 140.946L172 137.891L166.706 140.946Z" fill="#1F5C7C" stroke="#1A2A33" stroke-width="5"/>
<rect x="155.394" y="163.177" width="9" height="47" rx="4.5" transform="rotate(30 155.394 163.177)" fill="#4D8DBA"/>
<rect x="167" y="72" width="9" height="47" rx="4.5" fill="#4D8DBA"/>
</g>
<defs>
<clipPath id="clip0_1230_70793">
<rect width="250" height="250" fill="white"/>
</clipPath>
</defs>
</svg>
