<svg width="350" height="350" viewBox="0 0 350 350" fill="none" xmlns="http://www.w3.org/2000/svg">
<g clip-path="url(#clip0_1236_17)">
<path d="M174.75 85.9746C178.892 85.9746 182.25 89.3325 182.25 93.4746V340.475C182.25 344.617 178.892 347.975 174.75 347.975C170.608 347.975 167.25 344.617 167.25 340.475V93.4746C167.25 89.3325 170.608 85.9746 174.75 85.9746Z" fill="#464A4A" stroke="#2B3333" stroke-width="5"/>
<mask id="path-2-inside-1_1236_17" fill="white">
<path d="M181.751 111.475C185.616 111.475 188.751 114.609 188.751 118.475C188.75 122.341 185.616 125.475 181.751 125.475H166.751C162.885 125.475 159.751 122.341 159.751 118.475C159.751 114.609 162.885 111.475 166.751 111.475H181.751ZM171.855 26.2192C172.653 23.2603 176.852 23.2603 177.649 26.2192L191.418 77.3198C191.631 78.1131 191.51 78.9599 191.083 79.6616L186.284 87.5385C187.839 89.7942 188.751 92.528 188.751 95.475C188.751 103.207 182.483 109.475 174.751 109.475C167.019 109.475 160.751 103.207 160.751 95.475C160.751 92.5269 161.662 89.7917 163.218 87.5356L158.422 79.6616C157.994 78.9599 157.873 78.1131 158.087 77.3198L171.855 26.2192ZM138.114 72.9663C137.312 70.0098 140.935 67.8932 143.116 70.0444L160.325 87.02C160.572 87.2641 160.614 87.6485 160.426 87.9409C157.802 92.0218 157.286 97.1111 159.037 101.636L160.634 105.766C161.065 106.88 159.732 107.837 158.815 107.072L144.744 95.3217C144.272 94.9277 143.932 94.3984 143.771 93.8051L138.114 72.9663ZM206.501 70.0444C208.682 67.8932 212.305 70.0097 211.503 72.9663L205.845 93.8051C205.684 94.3983 205.345 94.9277 204.873 95.3217L190.801 107.071C189.885 107.836 188.55 106.88 188.981 105.766L190.58 101.636C192.331 97.1111 191.814 92.0219 189.189 87.9409C189.001 87.6485 189.044 87.2641 189.292 87.02L206.501 70.0444Z"/>
</mask>
<path d="M181.751 111.475C185.616 111.475 188.751 114.609 188.751 118.475C188.75 122.341 185.616 125.475 181.751 125.475H166.751C162.885 125.475 159.751 122.341 159.751 118.475C159.751 114.609 162.885 111.475 166.751 111.475H181.751ZM171.855 26.2192C172.653 23.2603 176.852 23.2603 177.649 26.2192L191.418 77.3198C191.631 78.1131 191.51 78.9599 191.083 79.6616L186.284 87.5385C187.839 89.7942 188.751 92.528 188.751 95.475C188.751 103.207 182.483 109.475 174.751 109.475C167.019 109.475 160.751 103.207 160.751 95.475C160.751 92.5269 161.662 89.7917 163.218 87.5356L158.422 79.6616C157.994 78.9599 157.873 78.1131 158.087 77.3198L171.855 26.2192ZM138.114 72.9663C137.312 70.0098 140.935 67.8932 143.116 70.0444L160.325 87.02C160.572 87.2641 160.614 87.6485 160.426 87.9409C157.802 92.0218 157.286 97.1111 159.037 101.636L160.634 105.766C161.065 106.88 159.732 107.837 158.815 107.072L144.744 95.3217C144.272 94.9277 143.932 94.3984 143.771 93.8051L138.114 72.9663ZM206.501 70.0444C208.682 67.8932 212.305 70.0097 211.503 72.9663L205.845 93.8051C205.684 94.3983 205.345 94.9277 204.873 95.3217L190.801 107.071C189.885 107.836 188.55 106.88 188.981 105.766L190.58 101.636C192.331 97.1111 191.814 92.0219 189.189 87.9409C189.001 87.6485 189.044 87.2641 189.292 87.02L206.501 70.0444Z" fill="#1B4054"/>
<path d="M181.751 111.475L181.751 106.475H181.751V111.475ZM188.751 118.475L193.751 118.475V118.475H188.751ZM181.751 125.475V130.475H181.751L181.751 125.475ZM159.751 118.475H154.751V118.475L159.751 118.475ZM171.855 26.2192L167.027 24.9179L167.027 24.9184L171.855 26.2192ZM177.649 26.2192L182.477 24.9184L182.477 24.9179L177.649 26.2192ZM191.418 77.3198L186.59 78.6206L186.59 78.6206L191.418 77.3198ZM191.083 79.6616L195.353 82.2629L195.353 82.2628L191.083 79.6616ZM186.284 87.5385L182.014 84.9371L180.327 87.7066L182.167 90.3766L186.284 87.5385ZM188.751 95.475L193.751 95.4751V95.475H188.751ZM174.751 109.475V114.475H174.751L174.751 109.475ZM160.751 95.475H155.751V95.4751L160.751 95.475ZM163.218 87.5356L167.334 90.3745L169.176 87.7044L167.488 84.9343L163.218 87.5356ZM158.422 79.6616L154.151 82.2628L154.152 82.2629L158.422 79.6616ZM158.087 77.3198L162.914 78.6206L162.914 78.6206L158.087 77.3198ZM138.114 72.9663L133.289 74.276L133.289 74.2762L138.114 72.9663ZM143.116 70.0444L146.627 66.4848L146.627 66.4845L143.116 70.0444ZM160.325 87.02L163.836 83.4604L163.836 83.4604L160.325 87.02ZM160.426 87.9409L156.221 85.2364L156.221 85.2364L160.426 87.9409ZM159.037 101.636L163.7 99.8322L163.7 99.8319L159.037 101.636ZM160.634 105.766L155.971 107.57L155.971 107.57L160.634 105.766ZM158.815 107.072L155.61 110.91L155.611 110.91L158.815 107.072ZM144.744 95.3217L147.949 91.4838L147.949 91.4838L144.744 95.3217ZM143.771 93.8051L138.946 95.1151L138.946 95.1151L143.771 93.8051ZM206.501 70.0444L202.99 66.4845L202.989 66.4848L206.501 70.0444ZM211.503 72.9663L206.677 71.6563L206.677 71.6563L211.503 72.9663ZM205.845 93.8051L210.671 95.1154L210.671 95.1151L205.845 93.8051ZM204.873 95.3217L208.077 99.1598L208.077 99.1597L204.873 95.3217ZM190.801 107.071L187.597 103.233L187.597 103.233L190.801 107.071ZM188.981 105.766L184.318 103.961L184.318 103.962L188.981 105.766ZM190.58 101.636L195.243 103.441L195.243 103.44L190.58 101.636ZM189.189 87.9409L184.983 90.6449L184.984 90.6453L189.189 87.9409ZM189.292 87.02L185.78 83.4604L185.78 83.4604L189.292 87.02ZM181.751 111.475L181.75 116.475C182.855 116.475 183.751 117.371 183.751 118.475H188.751H193.751C193.751 111.847 188.378 106.475 181.751 106.475L181.751 111.475ZM188.751 118.475L183.751 118.475C183.751 119.579 182.855 120.475 181.75 120.475L181.751 125.475L181.751 130.475C188.378 130.475 193.75 125.102 193.751 118.475L188.751 118.475ZM181.751 125.475V120.475H166.751V125.475V130.475H181.751V125.475ZM166.751 125.475V120.475C165.647 120.475 164.751 119.58 164.751 118.475L159.751 118.475L154.751 118.475C154.751 125.102 160.123 130.475 166.751 130.475V125.475ZM159.751 118.475H164.751C164.751 117.37 165.646 116.475 166.751 116.475V111.475V106.475C160.123 106.475 154.751 111.848 154.751 118.475H159.751ZM166.751 111.475V116.475H181.751V111.475V106.475H166.751V111.475ZM171.855 26.2192L176.683 27.5205C176.151 29.4932 173.353 29.4932 172.821 27.5205L177.649 26.2192L182.477 24.9179C180.35 17.0274 169.154 17.0274 167.027 24.9179L171.855 26.2192ZM177.649 26.2192L172.821 27.52L186.59 78.6206L191.418 77.3198L196.245 76.019L182.477 24.9184L177.649 26.2192ZM191.418 77.3198L186.59 78.6206C186.447 78.0907 186.528 77.5272 186.813 77.0603L191.083 79.6616L195.353 82.2628C196.492 80.3926 196.816 78.1355 196.245 76.019L191.418 77.3198ZM191.083 79.6616L186.813 77.0602L182.014 84.9371L186.284 87.5385L190.554 90.1399L195.353 82.2629L191.083 79.6616ZM186.284 87.5385L182.167 90.3766C183.166 91.8257 183.751 93.5753 183.751 95.475H188.751H193.751C193.751 91.4808 192.512 87.7627 190.4 84.7005L186.284 87.5385ZM188.751 95.475L183.751 95.475C183.751 100.445 179.721 104.475 174.751 104.475L174.751 109.475L174.751 114.475C185.244 114.475 193.75 105.968 193.751 95.4751L188.751 95.475ZM174.751 109.475V104.475C169.78 104.475 165.751 100.446 165.751 95.475L160.751 95.475L155.751 95.4751C155.751 105.968 164.257 114.475 174.751 114.475V109.475ZM160.751 95.475H165.751C165.751 93.5735 166.335 91.8231 167.334 90.3745L163.218 87.5356L159.103 84.6966C156.989 87.7604 155.751 91.4804 155.751 95.475H160.751ZM163.218 87.5356L167.488 84.9343L162.692 77.0603L158.422 79.6616L154.152 82.2629L158.948 90.1369L163.218 87.5356ZM158.422 79.6616L162.692 77.0603C162.976 77.5272 163.057 78.0907 162.914 78.6206L158.087 77.3198L153.259 76.019C152.688 78.1355 153.012 80.3926 154.151 82.2628L158.422 79.6616ZM158.087 77.3198L162.914 78.6206L176.683 27.52L171.855 26.2192L167.027 24.9184L153.259 76.019L158.087 77.3198ZM138.114 72.9663L142.939 71.6566C143.474 73.6273 141.059 75.0386 139.605 73.6043L143.116 70.0444L146.627 66.4845C140.81 60.7479 131.149 66.3922 133.289 74.276L138.114 72.9663ZM143.116 70.0444L139.605 73.604L156.814 90.5796L160.325 87.02L163.836 83.4604L146.627 66.4848L143.116 70.0444ZM160.325 87.02L156.814 90.5795C155.373 89.1582 155.133 86.9281 156.221 85.2364L160.426 87.9409L164.632 90.6453C166.096 88.3689 165.772 85.37 163.836 83.4604L160.325 87.02ZM160.426 87.9409L156.221 85.2364C152.732 90.6612 152.047 97.426 154.374 103.44L159.037 101.636L163.7 99.8319C162.525 96.7962 162.872 93.3825 164.632 90.6453L160.426 87.9409ZM159.037 101.636L154.374 103.44L155.971 107.57L160.634 105.766L165.298 103.962L163.7 99.8322L159.037 101.636ZM160.634 105.766L155.971 107.57C154.542 103.876 158.967 100.686 162.019 103.233L158.815 107.072L155.611 110.91C160.496 114.988 167.589 109.883 165.298 103.962L160.634 105.766ZM158.815 107.072L162.02 103.234L147.949 91.4838L144.744 95.3217L141.539 99.1596L155.61 110.91L158.815 107.072ZM144.744 95.3217L147.949 91.4838C148.262 91.7453 148.489 92.0978 148.597 92.4951L143.771 93.8051L138.946 95.1151C139.376 96.699 140.282 98.1102 141.539 99.1597L144.744 95.3217ZM143.771 93.8051L148.597 92.4952L142.939 71.6563L138.114 72.9663L133.289 74.2762L138.946 95.1151L143.771 93.8051ZM206.501 70.0444L210.012 73.6042C208.558 75.038 206.142 73.628 206.677 71.6563L211.503 72.9663L216.328 74.2762C218.469 66.3914 208.806 60.7483 202.99 66.4845L206.501 70.0444ZM211.503 72.9663L206.677 71.6563L201.02 92.4952L205.845 93.8051L210.671 95.1151L216.328 74.2762L211.503 72.9663ZM205.845 93.8051L201.02 92.4948C201.128 92.0978 201.355 91.7454 201.668 91.4838L204.873 95.3217L208.077 99.1597C209.334 98.1101 210.241 96.6988 210.671 95.1154L205.845 93.8051ZM204.873 95.3217L201.668 91.4837L187.597 103.233L190.801 107.071L194.006 110.909L208.077 99.1598L204.873 95.3217ZM190.801 107.071L187.597 103.233C190.638 100.694 195.079 103.862 193.644 107.57L188.981 105.766L184.318 103.962C182.022 109.897 189.132 114.978 194.006 110.909L190.801 107.071ZM188.981 105.766L193.644 107.571L195.243 103.441L190.58 101.636L185.917 99.8312L184.318 103.961L188.981 105.766ZM190.58 101.636L195.243 103.44C197.57 97.4252 196.883 90.6606 193.395 85.2364L189.189 87.9409L184.984 90.6453C186.744 93.3832 187.091 96.7969 185.917 99.8319L190.58 101.636ZM189.189 87.9409L193.395 85.2368C194.489 86.9386 194.235 89.1668 192.803 90.5795L189.292 87.02L185.78 83.4604C183.853 85.3613 183.513 88.3583 184.983 90.6449L189.189 87.9409ZM189.292 87.02L192.803 90.5796L210.012 73.604L206.501 70.0444L202.989 66.4848L185.78 83.4604L189.292 87.02Z" fill="#1A2A33" mask="url(#path-2-inside-1_1236_17)"/>
<path d="M173.783 48.1632C174.044 47.1681 175.456 47.1681 175.717 48.1632L182.644 74.5771C182.712 74.8357 182.673 75.1107 182.537 75.3407L175.61 87.0238C175.223 87.6771 174.277 87.6771 173.89 87.0238L166.963 75.3407C166.827 75.1107 166.788 74.8357 166.856 74.5771L173.783 48.1632Z" fill="#1F5C7C"/>
<path d="M173.782 59.2346C174.039 58.2338 175.461 58.2338 175.718 59.2346L179.648 74.4902C179.713 74.745 179.676 75.0155 179.543 75.2428L175.614 81.9905C175.228 82.6529 174.272 82.6529 173.886 81.9905L169.957 75.2428C169.824 75.0155 169.787 74.745 169.852 74.4902L173.782 59.2346Z" fill="#4D8DBA"/>
<circle cx="174.612" cy="95.4062" r="7" fill="#1F5C7C"/>
<circle cx="174.612" cy="95.4062" r="5" fill="#4D8DBA"/>
</g>
<defs>
<clipPath id="clip0_1236_17">
<rect width="350" height="350" fill="white"/>
</clipPath>
</defs>
</svg>
