<svg width="150" height="150" viewBox="0 0 150 150" fill="none" xmlns="http://www.w3.org/2000/svg">
<mask id="path-1-inside-1_1239_730" fill="white">
<path d="M78.4434 15.2246L80.5977 15.9014L82.1221 17.0479L83.1738 18.7119L83.7939 21.0615L84 25.9092V139.091L83.7939 143.938L83.1738 146.288L82.1221 147.952L80.5977 149.099L78.4434 149.775L74 150L69.5557 149.775L67.4023 149.099L65.877 147.952L64.8262 146.288L64.2061 143.938L64 139.091V25.9092L64.2061 21.0615L64.8262 18.7119L65.877 17.0479L67.4023 15.9014L69.5557 15.2246L74 15L78.4434 15.2246Z"/>
</mask>
<path d="M78.4434 15.2246L80.5977 15.9014L82.1221 17.0479L83.1738 18.7119L83.7939 21.0615L84 25.9092V139.091L83.7939 143.938L83.1738 146.288L82.1221 147.952L80.5977 149.099L78.4434 149.775L74 150L69.5557 149.775L67.4023 149.099L65.877 147.952L64.8262 146.288L64.2061 143.938L64 139.091V25.9092L64.2061 21.0615L64.8262 18.7119L65.877 17.0479L67.4023 15.9014L69.5557 15.2246L74 15L78.4434 15.2246Z" fill="#464A4A"/>
<path d="M78.4434 15.2246L79.9419 10.4544L79.3331 10.2632L78.6958 10.231L78.4434 15.2246ZM80.5977 15.9014L83.603 11.9054L82.9161 11.3888L82.0962 11.1312L80.5977 15.9014ZM82.1221 17.0479L86.3486 14.3765L85.8593 13.6023L85.1274 13.0518L82.1221 17.0479ZM83.1738 18.7119L88.0083 17.436L87.8118 16.6915L87.4004 16.0405L83.1738 18.7119ZM83.7939 21.0615L88.7894 20.8492L88.7665 20.3087L88.6284 19.7856L83.7939 21.0615ZM84 25.9092H89V25.803L88.9955 25.6968L84 25.9092ZM84 139.091L88.9955 139.303L89 139.197V139.091H84ZM83.7939 143.938L88.6284 145.214L88.7665 144.691L88.7894 144.151L83.7939 143.938ZM83.1738 146.288L87.4004 148.959L87.8118 148.309L88.0083 147.564L83.1738 146.288ZM82.1221 147.952L85.1274 151.948L85.8593 151.398L86.3486 150.624L82.1221 147.952ZM80.5977 149.099L82.0962 153.869L82.9161 153.611L83.603 153.095L80.5977 149.099ZM78.4434 149.775L78.6958 154.769L79.3331 154.737L79.9419 154.546L78.4434 149.775ZM74 150L73.7476 154.994L74 155.006L74.2524 154.994L74 150ZM69.5557 149.775L68.0565 154.545L68.6656 154.737L69.3033 154.769L69.5557 149.775ZM67.4023 149.099L64.3983 153.096L65.0844 153.611L65.9032 153.869L67.4023 149.099ZM65.877 147.952L61.6493 150.622L62.1393 151.398L62.8729 151.949L65.877 147.952ZM64.8262 146.288L59.9917 147.564L60.1879 148.308L60.5985 148.958L64.8262 146.288ZM64.2061 143.938L59.2106 144.151L59.2335 144.691L59.3716 145.214L64.2061 143.938ZM64 139.091H59V139.197L59.0045 139.303L64 139.091ZM64 25.9092L59.0045 25.6968L59 25.803V25.9092H64ZM64.2061 21.0615L59.3716 19.7856L59.2335 20.3087L59.2106 20.8492L64.2061 21.0615ZM64.8262 18.7119L60.5985 16.0423L60.1879 16.6925L59.9917 17.436L64.8262 18.7119ZM65.877 17.0479L62.8729 13.0509L62.1393 13.6023L61.6493 14.3783L65.877 17.0479ZM67.4023 15.9014L65.9032 11.1314L65.0844 11.3887L64.3983 11.9044L67.4023 15.9014ZM69.5557 15.2246L69.3033 10.231L68.6656 10.2632L68.0565 10.4546L69.5557 15.2246ZM74 15L74.2524 10.0064L74 9.99362L73.7476 10.0064L74 15ZM78.4434 15.2246L76.9448 19.9948L79.0991 20.6715L80.5977 15.9014L82.0962 11.1312L79.9419 10.4544L78.4434 15.2246ZM80.5977 15.9014L77.5923 19.8974L79.1167 21.0439L82.1221 17.0479L85.1274 13.0518L83.603 11.9054L80.5977 15.9014ZM82.1221 17.0479L77.8955 19.7192L78.9473 21.3833L83.1738 18.7119L87.4004 16.0405L86.3486 14.3765L82.1221 17.0479ZM83.1738 18.7119L78.3394 19.9878L78.9595 22.3375L83.7939 21.0615L88.6284 19.7856L88.0083 17.436L83.1738 18.7119ZM83.7939 21.0615L78.7985 21.2739L79.0045 26.1215L84 25.9092L88.9955 25.6968L88.7894 20.8492L83.7939 21.0615ZM84 25.9092H79V139.091H84H89V25.9092H84ZM84 139.091L79.0045 138.878L78.7985 143.726L83.7939 143.938L88.7894 144.151L88.9955 139.303L84 139.091ZM83.7939 143.938L78.9595 142.663L78.3394 145.012L83.1738 146.288L88.0083 147.564L88.6284 145.214L83.7939 143.938ZM83.1738 146.288L78.9473 143.617L77.8955 145.281L82.1221 147.952L86.3486 150.624L87.4004 148.959L83.1738 146.288ZM82.1221 147.952L79.1167 143.956L77.5923 145.103L80.5977 149.099L83.603 153.095L85.1274 151.948L82.1221 147.952ZM80.5977 149.099L79.0991 144.328L76.9448 145.005L78.4434 149.775L79.9419 154.546L82.0962 153.869L80.5977 149.099ZM78.4434 149.775L78.1909 144.782L73.7476 145.006L74 150L74.2524 154.994L78.6958 154.769L78.4434 149.775ZM74 150L74.2524 145.006L69.808 144.782L69.5557 149.775L69.3033 154.769L73.7476 154.994L74 150ZM69.5557 149.775L71.0548 145.005L68.9015 144.329L67.4023 149.099L65.9032 153.869L68.0565 154.545L69.5557 149.775ZM67.4023 149.099L70.4064 145.102L68.881 143.955L65.877 147.952L62.8729 151.949L64.3983 153.096L67.4023 149.099ZM65.877 147.952L70.1046 145.283L69.0539 143.618L64.8262 146.288L60.5985 148.958L61.6493 150.622L65.877 147.952ZM64.8262 146.288L69.6606 145.012L69.0405 142.663L64.2061 143.938L59.3716 145.214L59.9917 147.564L64.8262 146.288ZM64.2061 143.938L69.2015 143.726L68.9955 138.878L64 139.091L59.0045 139.303L59.2106 144.151L64.2061 143.938ZM64 139.091H69V25.9092H64H59V139.091H64ZM64 25.9092L68.9955 26.1215L69.2015 21.2739L64.2061 21.0615L59.2106 20.8492L59.0045 25.6968L64 25.9092ZM64.2061 21.0615L69.0405 22.3375L69.6606 19.9878L64.8262 18.7119L59.9917 17.436L59.3716 19.7856L64.2061 21.0615ZM64.8262 18.7119L69.0539 21.3815L70.1046 19.7174L65.877 17.0479L61.6493 14.3783L60.5985 16.0423L64.8262 18.7119ZM65.877 17.0479L68.881 21.0448L70.4064 19.8983L67.4023 15.9014L64.3983 11.9044L62.8729 13.0509L65.877 17.0479ZM67.4023 15.9014L68.9015 20.6713L71.0548 19.9946L69.5557 15.2246L68.0565 10.4546L65.9032 11.1314L67.4023 15.9014ZM69.5557 15.2246L69.808 20.2182L74.2524 19.9936L74 15L73.7476 10.0064L69.3033 10.231L69.5557 15.2246ZM74 15L73.7476 19.9936L78.1909 20.2182L78.4434 15.2246L78.6958 10.231L74.2524 10.0064L74 15Z" fill="#2B3333" mask="url(#path-1-inside-1_1239_730)"/>
<mask id="path-3-inside-2_1239_730" fill="white">
<path d="M84.1426 77C87.9297 77 91 80.0703 91 83.8574C90.9999 87.6444 87.9296 90.7139 84.1426 90.7139H63.8574C60.0704 90.7139 57.0002 87.6444 57 83.8574C57 80.0703 60.0703 77 63.8574 77H84.1426ZM105.135 23C109.553 23 113.135 26.5817 113.135 31V31.2188C118.927 33.6254 123 39.3369 123 46C123 52.663 118.927 58.3735 113.135 60.7803V61C113.135 65.4183 109.553 69 105.135 69H89.4922C85.4046 72.7272 79.9677 75 74 75C68.0323 75 62.5954 72.7272 58.5078 69H42.8203C38.402 69 34.8203 65.4183 34.8203 61V59.752C30.1377 56.9607 27 51.8474 27 46C27 40.1524 30.1374 35.0383 34.8203 32.2471V31C34.8203 26.5817 38.402 23 42.8203 23H105.135Z"/>
</mask>
<path d="M84.1426 77C87.9297 77 91 80.0703 91 83.8574C90.9999 87.6444 87.9296 90.7139 84.1426 90.7139H63.8574C60.0704 90.7139 57.0002 87.6444 57 83.8574C57 80.0703 60.0703 77 63.8574 77H84.1426ZM105.135 23C109.553 23 113.135 26.5817 113.135 31V31.2188C118.927 33.6254 123 39.3369 123 46C123 52.663 118.927 58.3735 113.135 60.7803V61C113.135 65.4183 109.553 69 105.135 69H89.4922C85.4046 72.7272 79.9677 75 74 75C68.0323 75 62.5954 72.7272 58.5078 69H42.8203C38.402 69 34.8203 65.4183 34.8203 61V59.752C30.1377 56.9607 27 51.8474 27 46C27 40.1524 30.1374 35.0383 34.8203 32.2471V31C34.8203 26.5817 38.402 23 42.8203 23H105.135Z" fill="#1B4054"/>
<path d="M91 83.8574L96 83.8576V83.8574H91ZM57 83.8574H52V83.8576L57 83.8574ZM113.135 31H118.135H113.135ZM113.135 31.2188H108.135V34.5557L111.216 35.836L113.135 31.2188ZM113.135 60.7803L111.216 56.163L108.135 57.4435V60.7803H113.135ZM113.135 61H118.135V61H113.135ZM89.4922 69V64H87.5549L86.1233 65.3053L89.4922 69ZM58.5078 69L61.8767 65.3053L60.4451 64H58.5078V69ZM34.8203 61H29.8203H34.8203ZM34.8203 59.752H39.8203V56.9115L37.3804 55.4571L34.8203 59.752ZM34.8203 32.2471L37.3803 36.542L39.8203 35.0877V32.2471H34.8203ZM34.8203 31L29.8203 31V31H34.8203ZM84.1426 77V82C85.1683 82 86 82.8317 86 83.8574H91H96C96 77.3089 90.6911 72 84.1426 72V77ZM91 83.8574L86 83.8572C86 84.8822 85.1689 85.7139 84.1426 85.7139V90.7139V95.7139C90.6903 95.7139 95.9997 90.4066 96 83.8576L91 83.8574ZM84.1426 90.7139V85.7139H63.8574V90.7139V95.7139H84.1426V90.7139ZM63.8574 90.7139V85.7139C62.8311 85.7139 62 84.8822 62 83.8572L57 83.8574L52 83.8576C52.0003 90.4066 57.3097 95.7139 63.8574 95.7139V90.7139ZM57 83.8574H62C62 82.8317 62.8317 82 63.8574 82V77V72C57.3089 72 52 77.3089 52 83.8574H57ZM63.8574 77V82H84.1426V77V72H63.8574V77ZM105.135 23V28C106.792 28 108.135 29.3431 108.135 31H113.135H118.135C118.135 23.8203 112.314 18 105.135 18V23ZM113.135 31H108.135V31.2188H113.135H118.135V31H113.135ZM113.135 31.2188L111.216 35.836C115.208 37.4947 118 41.4272 118 46H123H128C128 37.2466 122.646 29.7561 115.053 26.6015L113.135 31.2188ZM123 46H118C118 50.5723 115.208 54.5041 111.216 56.163L113.135 60.7803L115.053 65.3975C122.645 62.243 128 54.7537 128 46H123ZM113.135 60.7803H108.135V61H113.135H118.135V60.7803H113.135ZM113.135 61H108.135C108.135 62.6569 106.792 64 105.135 64V69V74C112.314 74 118.135 68.1797 118.135 61H113.135ZM105.135 69V64H89.4922V69V74H105.135V69ZM89.4922 69L86.1233 65.3053C82.9206 68.2257 78.6733 70 74 70V75V80C81.2621 80 87.8885 77.2288 92.8611 72.6947L89.4922 69ZM74 75V70C69.3267 70 65.0794 68.2257 61.8767 65.3053L58.5078 69L55.1389 72.6947C60.1115 77.2288 66.7379 80 74 80V75ZM58.5078 69V64H42.8203V69V74H58.5078V69ZM42.8203 69V64C41.1635 64 39.8203 62.6569 39.8203 61H34.8203H29.8203C29.8203 68.1797 35.6406 74 42.8203 74V69ZM34.8203 61H39.8203V59.752H34.8203H29.8203V61H34.8203ZM34.8203 59.752L37.3804 55.4571C34.1471 53.5298 32 50.013 32 46H27H22C22 53.6818 26.1282 60.3916 32.2602 64.0468L34.8203 59.752ZM27 46H32C32 41.9863 34.1472 38.469 37.3803 36.542L34.8203 32.2471L32.2603 27.9521C26.1276 31.6075 22 38.3185 22 46H27ZM34.8203 32.2471H39.8203V31H34.8203H29.8203V32.2471H34.8203ZM34.8203 31L39.8203 31C39.8203 29.3431 41.1635 28 42.8203 28V23V18C35.6406 18 29.8203 23.8203 29.8203 31L34.8203 31ZM42.8203 23V28H105.135V23V18H42.8203V23Z" fill="#1A2A33" mask="url(#path-3-inside-2_1239_730)"/>
<rect x="40" y="37" width="67" height="18" rx="3" fill="#1F5C7C"/>
<rect x="43" y="42" width="61" height="8" rx="3" fill="#4D8DBA"/>
<circle cx="74" cy="46" r="15.5" fill="#1B4054" stroke="#1B4054" stroke-width="5"/>
<circle cx="74" cy="46" r="13.5" fill="#1B4054" stroke="#1B4054" stroke-width="5"/>
<circle cx="74" cy="46" r="14" fill="#1F5C7C"/>
<circle cx="74" cy="46" r="9" fill="#4D8DBA"/>
</svg>
