<svg width="150" height="150" viewBox="0 0 150 150" fill="none" xmlns="http://www.w3.org/2000/svg">
<mask id="path-1-inside-1_1239_777" fill="white">
<path d="M79.4434 15.2246L81.5977 15.9014L83.1221 17.0479L84.1738 18.7119L84.7939 21.0615L85 25.9092V139.091L84.7939 143.938L84.1738 146.288L83.1221 147.952L81.5977 149.099L79.4434 149.775L75 150L70.5557 149.775L68.4023 149.099L66.877 147.952L65.8262 146.288L65.2061 143.938L65 139.091V25.9092L65.2061 21.0615L65.8262 18.7119L66.877 17.0479L68.4023 15.9014L70.5557 15.2246L75 15L79.4434 15.2246Z"/>
</mask>
<path d="M79.4434 15.2246L81.5977 15.9014L83.1221 17.0479L84.1738 18.7119L84.7939 21.0615L85 25.9092V139.091L84.7939 143.938L84.1738 146.288L83.1221 147.952L81.5977 149.099L79.4434 149.775L75 150L70.5557 149.775L68.4023 149.099L66.877 147.952L65.8262 146.288L65.2061 143.938L65 139.091V25.9092L65.2061 21.0615L65.8262 18.7119L66.877 17.0479L68.4023 15.9014L70.5557 15.2246L75 15L79.4434 15.2246Z" fill="#4A301F"/>
<path d="M79.4434 15.2246L80.9419 10.4544L80.3331 10.2632L79.6958 10.231L79.4434 15.2246ZM81.5977 15.9014L84.603 11.9054L83.9161 11.3888L83.0962 11.1312L81.5977 15.9014ZM83.1221 17.0479L87.3486 14.3765L86.8593 13.6023L86.1274 13.0518L83.1221 17.0479ZM84.1738 18.7119L89.0083 17.436L88.8118 16.6915L88.4004 16.0405L84.1738 18.7119ZM84.7939 21.0615L89.7894 20.8492L89.7665 20.3087L89.6284 19.7856L84.7939 21.0615ZM85 25.9092H90V25.803L89.9955 25.6968L85 25.9092ZM85 139.091L89.9955 139.303L90 139.197V139.091H85ZM84.7939 143.938L89.6284 145.214L89.7665 144.691L89.7894 144.151L84.7939 143.938ZM84.1738 146.288L88.4004 148.959L88.8118 148.309L89.0083 147.564L84.1738 146.288ZM83.1221 147.952L86.1274 151.948L86.8593 151.398L87.3486 150.624L83.1221 147.952ZM81.5977 149.099L83.0962 153.869L83.9161 153.611L84.603 153.095L81.5977 149.099ZM79.4434 149.775L79.6958 154.769L80.3331 154.737L80.9419 154.546L79.4434 149.775ZM75 150L74.7476 154.994L75 155.006L75.2524 154.994L75 150ZM70.5557 149.775L69.0565 154.545L69.6656 154.737L70.3033 154.769L70.5557 149.775ZM68.4023 149.099L65.3983 153.096L66.0844 153.611L66.9032 153.869L68.4023 149.099ZM66.877 147.952L62.6493 150.622L63.1393 151.398L63.8729 151.949L66.877 147.952ZM65.8262 146.288L60.9917 147.564L61.1879 148.308L61.5985 148.958L65.8262 146.288ZM65.2061 143.938L60.2106 144.151L60.2335 144.691L60.3716 145.214L65.2061 143.938ZM65 139.091H60V139.197L60.0045 139.303L65 139.091ZM65 25.9092L60.0045 25.6968L60 25.803V25.9092H65ZM65.2061 21.0615L60.3716 19.7856L60.2335 20.3087L60.2106 20.8492L65.2061 21.0615ZM65.8262 18.7119L61.5985 16.0423L61.1879 16.6925L60.9917 17.436L65.8262 18.7119ZM66.877 17.0479L63.8729 13.0509L63.1393 13.6023L62.6493 14.3783L66.877 17.0479ZM68.4023 15.9014L66.9032 11.1314L66.0844 11.3887L65.3983 11.9044L68.4023 15.9014ZM70.5557 15.2246L70.3033 10.231L69.6656 10.2632L69.0565 10.4546L70.5557 15.2246ZM75 15L75.2524 10.0064L75 9.99362L74.7476 10.0064L75 15ZM79.4434 15.2246L77.9448 19.9948L80.0991 20.6715L81.5977 15.9014L83.0962 11.1312L80.9419 10.4544L79.4434 15.2246ZM81.5977 15.9014L78.5923 19.8974L80.1167 21.0439L83.1221 17.0479L86.1274 13.0518L84.603 11.9054L81.5977 15.9014ZM83.1221 17.0479L78.8955 19.7192L79.9473 21.3833L84.1738 18.7119L88.4004 16.0405L87.3486 14.3765L83.1221 17.0479ZM84.1738 18.7119L79.3394 19.9878L79.9595 22.3375L84.7939 21.0615L89.6284 19.7856L89.0083 17.436L84.1738 18.7119ZM84.7939 21.0615L79.7985 21.2739L80.0045 26.1215L85 25.9092L89.9955 25.6968L89.7894 20.8492L84.7939 21.0615ZM85 25.9092H80V139.091H85H90V25.9092H85ZM85 139.091L80.0045 138.878L79.7985 143.726L84.7939 143.938L89.7894 144.151L89.9955 139.303L85 139.091ZM84.7939 143.938L79.9595 142.663L79.3394 145.012L84.1738 146.288L89.0083 147.564L89.6284 145.214L84.7939 143.938ZM84.1738 146.288L79.9473 143.617L78.8955 145.281L83.1221 147.952L87.3486 150.624L88.4004 148.959L84.1738 146.288ZM83.1221 147.952L80.1167 143.956L78.5923 145.103L81.5977 149.099L84.603 153.095L86.1274 151.948L83.1221 147.952ZM81.5977 149.099L80.0991 144.328L77.9448 145.005L79.4434 149.775L80.9419 154.546L83.0962 153.869L81.5977 149.099ZM79.4434 149.775L79.1909 144.782L74.7476 145.006L75 150L75.2524 154.994L79.6958 154.769L79.4434 149.775ZM75 150L75.2524 145.006L70.808 144.782L70.5557 149.775L70.3033 154.769L74.7476 154.994L75 150ZM70.5557 149.775L72.0548 145.005L69.9015 144.329L68.4023 149.099L66.9032 153.869L69.0565 154.545L70.5557 149.775ZM68.4023 149.099L71.4064 145.102L69.881 143.955L66.877 147.952L63.8729 151.949L65.3983 153.096L68.4023 149.099ZM66.877 147.952L71.1046 145.283L70.0539 143.618L65.8262 146.288L61.5985 148.958L62.6493 150.622L66.877 147.952ZM65.8262 146.288L70.6606 145.012L70.0405 142.663L65.2061 143.938L60.3716 145.214L60.9917 147.564L65.8262 146.288ZM65.2061 143.938L70.2015 143.726L69.9955 138.878L65 139.091L60.0045 139.303L60.2106 144.151L65.2061 143.938ZM65 139.091H70V25.9092H65H60V139.091H65ZM65 25.9092L69.9955 26.1215L70.2015 21.2739L65.2061 21.0615L60.2106 20.8492L60.0045 25.6968L65 25.9092ZM65.2061 21.0615L70.0405 22.3375L70.6606 19.9878L65.8262 18.7119L60.9917 17.436L60.3716 19.7856L65.2061 21.0615ZM65.8262 18.7119L70.0539 21.3815L71.1046 19.7174L66.877 17.0479L62.6493 14.3783L61.5985 16.0423L65.8262 18.7119ZM66.877 17.0479L69.881 21.0448L71.4064 19.8983L68.4023 15.9014L65.3983 11.9044L63.8729 13.0509L66.877 17.0479ZM68.4023 15.9014L69.9015 20.6713L72.0548 19.9946L70.5557 15.2246L69.0565 10.4546L66.9032 11.1314L68.4023 15.9014ZM70.5557 15.2246L70.808 20.2182L75.2524 19.9936L75 15L74.7476 10.0064L70.3033 10.231L70.5557 15.2246ZM75 15L74.7476 19.9936L79.1909 20.2182L79.4434 15.2246L79.6958 10.231L75.2524 10.0064L75 15Z" fill="#322116" mask="url(#path-1-inside-1_1239_777)"/>
<mask id="path-3-inside-2_1239_777" fill="white">
<path d="M108 23C112.418 23 116 26.5817 116 31V61C116 65.4183 112.418 69 108 69H89.9971C89.9325 72.5632 87.5163 75.6627 84.0615 76.584L77.0615 78.4502C75.7109 78.8104 74.2891 78.8104 72.9385 78.4502L65.9385 76.584C62.4837 75.6627 60.0675 72.5632 60.0029 69H42C37.5817 69 34 65.4183 34 61V31C34 26.5817 37.5817 23 42 23H108Z"/>
</mask>
<path d="M108 23C112.418 23 116 26.5817 116 31V61C116 65.4183 112.418 69 108 69H89.9971C89.9325 72.5632 87.5163 75.6627 84.0615 76.584L77.0615 78.4502C75.7109 78.8104 74.2891 78.8104 72.9385 78.4502L65.9385 76.584C62.4837 75.6627 60.0675 72.5632 60.0029 69H42C37.5817 69 34 65.4183 34 61V31C34 26.5817 37.5817 23 42 23H108Z" fill="#81361E"/>
<path d="M108 23V18V18V23ZM116 31H121H116ZM116 61H121V61H116ZM89.9971 69V64H85.0868L84.9979 68.9095L89.9971 69ZM84.0615 76.584L85.3495 81.4152L85.3499 81.4151L84.0615 76.584ZM77.0615 78.4502L75.7735 73.6189L75.7732 73.619L77.0615 78.4502ZM72.9385 78.4502L74.2268 73.619L74.2265 73.6189L72.9385 78.4502ZM65.9385 76.584L64.6501 81.4151L64.6505 81.4152L65.9385 76.584ZM60.0029 69L65.0021 68.9095L64.9132 64H60.0029V69ZM42 69L42 74H42V69ZM34 61H29H34ZM34 31L29 31V31H34ZM108 23V28C109.657 28 111 29.3431 111 31H116H121C121 23.8203 115.18 18 108 18V23ZM116 31H111V61H116H121V31H116ZM116 61H111C111 62.6569 109.657 64 108 64V69V74C115.18 74 121 68.1797 121 61H116ZM108 69V64H89.9971V69V74H108V69ZM89.9971 69L84.9979 68.9095C84.9737 70.2467 84.0666 71.4079 82.7731 71.7528L84.0615 76.584L85.3499 81.4151C90.966 79.9174 94.8914 74.8797 94.9963 69.0905L89.9971 69ZM84.0615 76.584L82.7735 71.7527L75.7735 73.6189L77.0615 78.4502L78.3495 83.2814L85.3495 81.4152L84.0615 76.584ZM77.0615 78.4502L75.7732 73.619C75.2667 73.7541 74.7333 73.7541 74.2268 73.619L72.9385 78.4502L71.6502 83.2814C73.8449 83.8666 76.1551 83.8666 78.3498 83.2814L77.0615 78.4502ZM72.9385 78.4502L74.2265 73.6189L67.2265 71.7527L65.9385 76.584L64.6505 81.4152L71.6505 83.2814L72.9385 78.4502ZM65.9385 76.584L67.2269 71.7528C65.9334 71.4079 65.0263 70.2467 65.0021 68.9095L60.0029 69L55.0037 69.0905C55.1086 74.8797 59.034 79.9174 64.6501 81.4151L65.9385 76.584ZM60.0029 69V64H42V69V74H60.0029V69ZM42 69L42 64C40.3431 64 39 62.6569 39 61H34H29C29 68.1797 34.8203 74 42 74L42 69ZM34 61H39V31H34H29V61H34ZM34 31L39 31C39 29.3431 40.3431 28 42 28V23V18C34.8203 18 29 23.8203 29 31L34 31ZM42 23V28H108V23V18H42V23Z" fill="#4C2416" mask="url(#path-3-inside-2_1239_777)"/>
<rect x="42" y="31" width="66" height="22" rx="1" fill="#AB4B2B"/>
<rect x="45" y="34" width="60" height="10" rx="1" fill="#D66440"/>
</svg>
