<svg width="350" height="350" viewBox="0 0 350 350" fill="none" xmlns="http://www.w3.org/2000/svg">
<g clip-path="url(#clip0_1236_9)">
<path d="M174.667 85.6157C178.809 85.6157 182.167 88.9736 182.167 93.1157V340.116C182.167 344.258 178.809 347.616 174.667 347.616C170.525 347.616 167.167 344.258 167.167 340.116V93.1157C167.167 88.9736 170.525 85.6157 174.667 85.6157Z" fill="#4A301F" stroke="#322116" stroke-width="5"/>
<mask id="path-2-inside-1_1236_9" fill="white">
<path d="M171.967 23.6924C173.06 21.4356 176.274 21.4356 177.367 23.6924L197.034 64.3086C197.434 65.1343 197.434 66.0981 197.034 66.9238L186.216 89.2637L194.613 106.821C195.566 108.812 194.113 111.116 191.906 111.116H186.397L191.287 119.191C192.17 120.65 191.661 122.552 190.167 123.374L175.733 131.319C174.833 131.815 173.741 131.815 172.84 131.319L158.405 123.374C156.911 122.552 156.403 120.65 157.286 119.191L162.176 111.116H157.427C155.22 111.116 153.768 108.812 154.721 106.821L163.117 89.2637L152.3 66.9238C151.9 66.0981 151.9 65.1343 152.3 64.3086L171.967 23.6924Z"/>
</mask>
<path d="M171.967 23.6924C173.06 21.4356 176.274 21.4356 177.367 23.6924L197.034 64.3086C197.434 65.1343 197.434 66.0981 197.034 66.9238L186.216 89.2637L194.613 106.821C195.566 108.812 194.113 111.116 191.906 111.116H186.397L191.287 119.191C192.17 120.65 191.661 122.552 190.167 123.374L175.733 131.319C174.833 131.815 173.741 131.815 172.84 131.319L158.405 123.374C156.911 122.552 156.403 120.65 157.286 119.191L162.176 111.116H157.427C155.22 111.116 153.768 108.812 154.721 106.821L163.117 89.2637L152.3 66.9238C151.9 66.0981 151.9 65.1343 152.3 64.3086L171.967 23.6924Z" fill="#81361E"/>
<path d="M171.967 23.6924L176.467 25.8714L176.467 25.8714L171.967 23.6924ZM177.367 23.6924L172.867 25.8714L172.867 25.8714L177.367 23.6924ZM197.034 64.3086L201.535 62.1299L201.534 62.1295L197.034 64.3086ZM197.034 66.9238L201.534 69.1031L201.534 69.1029L197.034 66.9238ZM186.216 89.2637L181.716 87.0844L180.667 89.2502L181.705 91.421L186.216 89.2637ZM194.613 106.821L199.124 104.664L199.124 104.664L194.613 106.821ZM186.397 111.116V106.116H177.525L182.12 113.706L186.397 111.116ZM191.287 119.191L195.564 116.602L195.564 116.602L191.287 119.191ZM190.167 123.374L192.578 127.754L192.578 127.754L190.167 123.374ZM175.733 131.319L173.322 126.939L173.322 126.939L175.733 131.319ZM172.84 131.319L175.251 126.939L175.251 126.939L172.84 131.319ZM158.405 123.374L155.994 127.754L155.994 127.754L158.405 123.374ZM157.286 119.191L153.009 116.602H153.009L157.286 119.191ZM162.176 111.116L166.453 113.706L171.049 106.116H162.176V111.116ZM157.427 111.116L157.426 116.116H157.427V111.116ZM154.721 106.821L159.231 108.979L159.231 108.978L154.721 106.821ZM163.117 89.2637L167.628 91.4208L168.666 89.2502L167.617 87.0846L163.117 89.2637ZM152.3 66.9238L147.8 69.1029L147.8 69.1029L152.3 66.9238ZM152.3 64.3086L147.8 62.1295L147.799 62.1298L152.3 64.3086ZM171.967 23.6924L176.467 25.8714C175.738 27.3759 173.595 27.3759 172.867 25.8714L177.367 23.6924L181.867 21.5133C178.953 15.4953 170.381 15.4953 167.467 21.5133L171.967 23.6924ZM177.367 23.6924L172.867 25.8714L192.534 66.4877L197.034 64.3086L201.534 62.1295L181.867 21.5133L177.367 23.6924ZM197.034 64.3086L192.534 66.4873C192.268 65.9372 192.267 65.2956 192.534 64.7448L197.034 66.9238L201.534 69.1029C202.601 66.9006 202.6 64.3314 201.535 62.1299L197.034 64.3086ZM197.034 66.9238L192.534 64.7446L181.716 87.0844L186.216 89.2637L190.716 91.4429L201.534 69.1031L197.034 66.9238ZM186.216 89.2637L181.705 91.421L190.103 108.979L194.613 106.821L199.124 104.664L190.726 87.1063L186.216 89.2637ZM194.613 106.821L190.103 108.979C189.467 107.65 190.436 106.116 191.906 106.116V111.116V116.116C197.791 116.116 201.664 109.975 199.124 104.664L194.613 106.821ZM191.906 111.116V106.116H186.397V111.116V116.116H191.906V111.116ZM186.397 111.116L182.12 113.706L187.01 121.781L191.287 119.191L195.564 116.602L190.674 108.526L186.397 111.116ZM191.287 119.191L187.01 121.781C186.42 120.807 186.761 119.541 187.756 118.994L190.167 123.374L192.578 127.754C196.561 125.562 197.92 120.493 195.564 116.602L191.287 119.191ZM190.167 123.374L187.756 118.994L173.322 126.939L175.733 131.319L178.145 135.7L192.578 127.754L190.167 123.374ZM175.733 131.319L173.322 126.939C173.923 126.609 174.651 126.609 175.251 126.939L172.84 131.319L170.429 135.7C172.831 137.022 175.743 137.022 178.145 135.699L175.733 131.319ZM172.84 131.319L175.251 126.939L160.816 118.994L158.405 123.374L155.994 127.754L170.429 135.7L172.84 131.319ZM158.405 123.374L160.817 118.994C161.814 119.543 162.151 120.81 161.563 121.781L157.286 119.191L153.009 116.602C150.654 120.491 152.009 125.56 155.994 127.754L158.405 123.374ZM157.286 119.191L161.563 121.781L166.453 113.706L162.176 111.116L157.899 108.526L153.009 116.602L157.286 119.191ZM162.176 111.116V106.116H157.427V111.116V116.116H162.176V111.116ZM157.427 111.116L157.427 106.116C158.9 106.116 159.866 107.652 159.231 108.979L154.721 106.821L150.21 104.664C147.671 109.973 151.54 116.116 157.426 116.116L157.427 111.116ZM154.721 106.821L159.231 108.978L167.628 91.4208L163.117 89.2637L158.606 87.1065L150.21 104.664L154.721 106.821ZM163.117 89.2637L167.617 87.0846L156.8 64.7448L152.3 66.9238L147.8 69.1029L158.617 91.4427L163.117 89.2637ZM152.3 66.9238L156.8 64.7448C157.067 65.2955 157.067 65.9372 156.8 66.4874L152.3 64.3086L147.799 62.1298C146.734 64.3315 146.733 66.9007 147.8 69.1029L152.3 66.9238ZM152.3 64.3086L156.8 66.4877L176.467 25.8714L171.967 23.6924L167.467 21.5133L147.8 62.1295L152.3 64.3086Z" fill="#4C2416" mask="url(#path-2-inside-1_1236_9)"/>
<path d="M174.667 85.1157L181.667 101.116H167.667L174.667 85.1157Z" fill="#813B24"/>
<path d="M173.756 41.1274C174.111 40.3441 175.223 40.3441 175.578 41.1274L186.48 65.2032C186.599 65.4654 186.599 65.766 186.48 66.0282L175.578 90.104C175.223 90.8874 174.111 90.8874 173.756 90.104L162.854 66.0282C162.735 65.766 162.735 65.4654 162.854 65.2032L173.756 41.1274Z" fill="#AB4B2B"/>
<path d="M173.767 50.9716C174.132 50.22 175.202 50.22 175.567 50.9716L182.455 65.1794C182.589 65.455 182.589 65.7765 182.455 66.052L175.567 80.2599C175.202 81.0115 174.132 81.0115 173.767 80.2599L166.879 66.052C166.745 65.7765 166.745 65.455 166.879 65.1794L173.767 50.9716Z" fill="#D66440"/>
</g>
<defs>
<clipPath id="clip0_1236_9">
<rect width="350" height="350" fill="white"/>
</clipPath>
</defs>
</svg>
