<svg width="150" height="150" viewBox="0 0 150 150" fill="none" xmlns="http://www.w3.org/2000/svg">
<mask id="path-1-inside-1_1212_70717" fill="white">
<path d="M78.9956 15.2246L81.2134 15.9014L82.7837 17.0479L83.8657 18.7119L84.5044 21.0615L84.7163 25.9092V139.091L84.5044 143.938L83.8657 146.288L82.7837 147.952L81.2134 149.099L78.9956 149.775L74.4194 150L69.8442 149.775L67.6265 149.099L66.0562 147.952L64.9741 146.288L64.3354 143.938L64.1235 139.091V25.9092L64.3354 21.0615L64.9741 18.7119L66.0562 17.0479L67.6265 15.9014L69.8442 15.2246L74.4194 15L78.9956 15.2246Z"/>
</mask>
<path d="M78.9956 15.2246L81.2134 15.9014L82.7837 17.0479L83.8657 18.7119L84.5044 21.0615L84.7163 25.9092V139.091L84.5044 143.938L83.8657 146.288L82.7837 147.952L81.2134 149.099L78.9956 149.775L74.4194 150L69.8442 149.775L67.6265 149.099L66.0562 147.952L64.9741 146.288L64.3354 143.938L64.1235 139.091V25.9092L64.3354 21.0615L64.9741 18.7119L66.0562 17.0479L67.6265 15.9014L69.8442 15.2246L74.4194 15L78.9956 15.2246Z" fill="#4A301F"/>
<path d="M78.9956 15.2246L80.4549 10.4423L79.861 10.2611L79.2407 10.2306L78.9956 15.2246ZM81.2134 15.9014L84.1617 11.8631L83.48 11.3654L82.6727 11.1191L81.2134 15.9014ZM82.7837 17.0479L86.9755 14.3222L86.4744 13.5516L85.732 13.0096L82.7837 17.0479ZM83.8657 18.7119L88.6907 17.4004L88.485 16.6437L88.0575 15.9863L83.8657 18.7119ZM84.5044 21.0615L89.4996 20.8432L89.4753 20.2871L89.3293 19.75L84.5044 21.0615ZM84.7163 25.9092H89.7163V25.7999L89.7115 25.6908L84.7163 25.9092ZM84.7163 139.091L89.7115 139.309L89.7163 139.2V139.091H84.7163ZM84.5044 143.938L89.3293 145.25L89.4753 144.713L89.4996 144.157L84.5044 143.938ZM83.8657 146.288L88.0575 149.014L88.485 148.356L88.6907 147.6L83.8657 146.288ZM82.7837 147.952L85.732 151.99L86.4744 151.448L86.9755 150.678L82.7837 147.952ZM81.2134 149.099L82.6727 153.881L83.48 153.635L84.1617 153.137L81.2134 149.099ZM78.9956 149.775L79.2407 154.769L79.861 154.739L80.4549 154.558L78.9956 149.775ZM74.4194 150L74.1743 154.994L74.4194 155.006L74.6646 154.994L74.4194 150ZM69.8442 149.775L68.3849 154.558L68.9788 154.739L69.5991 154.769L69.8442 149.775ZM67.6265 149.099L64.6781 153.137L65.3598 153.635L66.1671 153.881L67.6265 149.099ZM66.0562 147.952L61.8644 150.678L62.3655 151.448L63.1078 151.99L66.0562 147.952ZM64.9741 146.288L60.1492 147.6L60.3549 148.356L60.7824 149.014L64.9741 146.288ZM64.3354 143.938L59.3402 144.157L59.3645 144.713L59.5105 145.25L64.3354 143.938ZM64.1235 139.091H59.1235V139.2L59.1283 139.309L64.1235 139.091ZM64.1235 25.9092L59.1283 25.6908L59.1235 25.7999V25.9092H64.1235ZM64.3354 21.0615L59.5105 19.75L59.3645 20.2871L59.3402 20.8432L64.3354 21.0615ZM64.9741 18.7119L60.7824 15.9863L60.3549 16.6437L60.1492 17.4004L64.9741 18.7119ZM66.0562 17.0479L63.1078 13.0096L62.3655 13.5516L61.8644 14.3222L66.0562 17.0479ZM67.6265 15.9014L66.1671 11.1191L65.3598 11.3654L64.6781 11.8631L67.6265 15.9014ZM69.8442 15.2246L69.5991 10.2306L68.9788 10.2611L68.3849 10.4423L69.8442 15.2246ZM74.4194 15L74.6646 10.006L74.4194 9.99398L74.1743 10.006L74.4194 15ZM78.9956 15.2246L77.5363 20.0069L79.7541 20.6837L81.2134 15.9014L82.6727 11.1191L80.4549 10.4423L78.9956 15.2246ZM81.2134 15.9014L78.2651 19.9396L79.8354 21.0861L82.7837 17.0479L85.732 13.0096L84.1617 11.8631L81.2134 15.9014ZM82.7837 17.0479L78.5919 19.7735L79.674 21.4375L83.8657 18.7119L88.0575 15.9863L86.9755 14.3222L82.7837 17.0479ZM83.8657 18.7119L79.0408 20.0234L79.6795 22.373L84.5044 21.0615L89.3293 19.75L88.6907 17.4004L83.8657 18.7119ZM84.5044 21.0615L79.5092 21.2799L79.7211 26.1275L84.7163 25.9092L89.7115 25.6908L89.4996 20.8432L84.5044 21.0615ZM84.7163 25.9092H79.7163V139.091H84.7163H89.7163V25.9092H84.7163ZM84.7163 139.091L79.7211 138.872L79.5092 143.72L84.5044 143.938L89.4996 144.157L89.7115 139.309L84.7163 139.091ZM84.5044 143.938L79.6795 142.627L79.0408 144.977L83.8657 146.288L88.6907 147.6L89.3293 145.25L84.5044 143.938ZM83.8657 146.288L79.674 143.562L78.5919 145.227L82.7837 147.952L86.9755 150.678L88.0575 149.014L83.8657 146.288ZM82.7837 147.952L79.8354 143.914L78.2651 145.06L81.2134 149.099L84.1617 153.137L85.732 151.99L82.7837 147.952ZM81.2134 149.099L79.7541 144.316L77.5363 144.993L78.9956 149.775L80.4549 154.558L82.6727 153.881L81.2134 149.099ZM78.9956 149.775L78.7505 144.781L74.1743 145.006L74.4194 150L74.6646 154.994L79.2407 154.769L78.9956 149.775ZM74.4194 150L74.6646 145.006L70.0894 144.781L69.8442 149.775L69.5991 154.769L74.1743 154.994L74.4194 150ZM69.8442 149.775L71.3036 144.993L69.0858 144.316L67.6265 149.099L66.1671 153.881L68.3849 154.558L69.8442 149.775ZM67.6265 149.099L70.5748 145.06L69.0045 143.914L66.0562 147.952L63.1078 151.99L64.6781 153.137L67.6265 149.099ZM66.0562 147.952L70.2479 145.227L69.1659 143.562L64.9741 146.288L60.7824 149.014L61.8644 150.678L66.0562 147.952ZM64.9741 146.288L69.799 144.977L69.1604 142.627L64.3354 143.938L59.5105 145.25L60.1492 147.6L64.9741 146.288ZM64.3354 143.938L69.3307 143.72L69.1188 138.872L64.1235 139.091L59.1283 139.309L59.3402 144.157L64.3354 143.938ZM64.1235 139.091H69.1235V25.9092H64.1235H59.1235V139.091H64.1235ZM64.1235 25.9092L69.1188 26.1275L69.3307 21.2799L64.3354 21.0615L59.3402 20.8432L59.1283 25.6908L64.1235 25.9092ZM64.3354 21.0615L69.1604 22.373L69.799 20.0234L64.9741 18.7119L60.1492 17.4004L59.5105 19.75L64.3354 21.0615ZM64.9741 18.7119L69.1659 21.4375L70.2479 19.7735L66.0562 17.0479L61.8644 14.3222L60.7824 15.9863L64.9741 18.7119ZM66.0562 17.0479L69.0045 21.0861L70.5748 19.9396L67.6265 15.9014L64.6781 11.8631L63.1078 13.0096L66.0562 17.0479ZM67.6265 15.9014L69.0858 20.6837L71.3036 20.0069L69.8442 15.2246L68.3849 10.4423L66.1671 11.1191L67.6265 15.9014ZM69.8442 15.2246L70.0894 20.2186L74.6646 19.994L74.4194 15L74.1743 10.006L69.5991 10.2306L69.8442 15.2246ZM74.4194 15L74.1743 19.994L78.7505 20.2186L78.9956 15.2246L79.2407 10.2306L74.6646 10.006L74.4194 15Z" fill="#322116" mask="url(#path-1-inside-1_1212_70717)"/>
<mask id="path-3-inside-2_1212_70717" fill="white">
<path d="M83.2041 24.1494C86.7277 24.1494 89.7838 26.1421 91.3135 29.0605L98.3799 27.251L112.121 25.4189C113.604 25.2212 114.882 26.4803 114.707 27.9678L113.959 34.3154C113.165 41.0534 113.132 47.8638 113.861 54.6172L114.663 62.0469C114.844 63.719 113.221 65.0098 111.623 64.4834C107.222 63.033 99.7636 60.7306 96.4912 60.6328C96.3758 60.6294 96.2674 60.6123 96.1572 60.5771L90.8467 58.8848C89.3183 61.1999 86.7678 62.7775 83.8369 62.9775C82.6606 65.0689 80.4219 66.4824 77.8516 66.4824H70.9873C68.4274 66.4823 66.1967 65.0803 65.0166 63.0029H64.8994C60.2006 63.0029 56.3306 59.4614 55.8086 54.9023C42.0301 47.7194 31.1377 50.8328 5.42188 57.2998C1.59163 58.263 -1.48353 54.2523 0.758789 51.0039C6.23108 43.0764 11.6401 38.7722 18.3584 33.8584C30.7827 24.7712 43.7077 24.0703 58.3799 26.8799C60.0398 25.1949 62.3472 24.1494 64.8994 24.1494H83.2041Z"/>
</mask>
<path d="M83.2041 24.1494C86.7277 24.1494 89.7838 26.1421 91.3135 29.0605L98.3799 27.251L112.121 25.4189C113.604 25.2212 114.882 26.4803 114.707 27.9678L113.959 34.3154C113.165 41.0534 113.132 47.8638 113.861 54.6172L114.663 62.0469C114.844 63.719 113.221 65.0098 111.623 64.4834C107.222 63.033 99.7636 60.7306 96.4912 60.6328C96.3758 60.6294 96.2674 60.6123 96.1572 60.5771L90.8467 58.8848C89.3183 61.1999 86.7678 62.7775 83.8369 62.9775C82.6606 65.0689 80.4219 66.4824 77.8516 66.4824H70.9873C68.4274 66.4823 66.1967 65.0803 65.0166 63.0029H64.8994C60.2006 63.0029 56.3306 59.4614 55.8086 54.9023C42.0301 47.7194 31.1377 50.8328 5.42188 57.2998C1.59163 58.263 -1.48353 54.2523 0.758789 51.0039C6.23108 43.0764 11.6401 38.7722 18.3584 33.8584C30.7827 24.7712 43.7077 24.0703 58.3799 26.8799C60.0398 25.1949 62.3472 24.1494 64.8994 24.1494H83.2041Z" fill="#81361E"/>
<path d="M91.3135 29.0605L86.8849 31.3817L88.7214 34.8857L92.5539 33.9043L91.3135 29.0605ZM98.3799 27.251L97.7191 22.2948L97.426 22.3339L97.1395 22.4073L98.3799 27.251ZM112.121 25.4189L112.782 30.3751L112.782 30.3751L112.121 25.4189ZM114.707 27.9678L119.673 28.553L119.673 28.5524L114.707 27.9678ZM113.959 34.3154L108.993 33.7302L108.993 33.7305L113.959 34.3154ZM113.861 54.6172L118.832 54.0807L118.832 54.0806L113.861 54.6172ZM114.663 62.0469L109.692 62.5833L109.692 62.5835L114.663 62.0469ZM111.623 64.4834L113.188 59.7346H113.188L111.623 64.4834ZM96.4912 60.6328L96.3414 65.6306L96.3418 65.6306L96.4912 60.6328ZM96.1572 60.5771L94.639 65.3411L94.6392 65.3411L96.1572 60.5771ZM90.8467 58.8848L92.3649 54.1208L88.7589 52.9717L86.6739 56.1301L90.8467 58.8848ZM83.8369 62.9775L83.4964 57.9892L80.8026 58.173L79.479 60.5263L83.8369 62.9775ZM70.9873 66.4824L70.9871 71.4824H70.9873V66.4824ZM65.0166 63.0029L69.3642 60.5334L67.9268 58.0029H65.0166V63.0029ZM64.8994 63.0029L64.8994 68.0029H64.8994V63.0029ZM55.8086 54.9023L60.7761 54.3336L60.4741 51.6959L58.12 50.4687L55.8086 54.9023ZM5.42188 57.2998L4.20244 52.4508H4.20244L5.42188 57.2998ZM0.758789 51.0039L-3.35606 48.1635L-3.35606 48.1635L0.758789 51.0039ZM18.3584 33.8584L15.4067 29.8227L15.4066 29.8227L18.3584 33.8584ZM58.3799 26.8799L57.4395 31.7907L60.0654 32.2935L61.9418 30.3888L58.3799 26.8799ZM64.8994 24.1494V19.1494H64.8994L64.8994 24.1494ZM83.2041 24.1494V29.1494C84.7928 29.1494 86.1829 30.0423 86.8849 31.3817L91.3135 29.0605L95.7421 26.7394C93.3847 22.2418 88.6626 19.1494 83.2041 19.1494V24.1494ZM91.3135 29.0605L92.5539 33.9043L99.6203 32.0947L98.3799 27.251L97.1395 22.4073L90.0731 24.2168L91.3135 29.0605ZM98.3799 27.251L99.0407 32.2071L112.782 30.3751L112.121 25.4189L111.46 20.4628L97.7191 22.2948L98.3799 27.251ZM112.121 25.4189L112.782 30.3751C111.027 30.6091 109.535 29.1319 109.741 27.3832L114.707 27.9678L119.673 28.5524C120.229 23.8287 116.181 19.8333 111.46 20.4628L112.121 25.4189ZM114.707 27.9678L109.741 27.3826L108.993 33.7302L113.959 34.3154L118.925 34.9006L119.673 28.553L114.707 27.9678ZM113.959 34.3154L108.993 33.7305C108.156 40.8413 108.121 48.0278 108.89 55.1538L113.861 54.6172L118.832 54.0806C118.144 47.6997 118.175 41.2656 118.925 34.9004L113.959 34.3154ZM113.861 54.6172L108.89 55.1536L109.692 62.5833L114.663 62.0469L119.634 61.5104L118.832 54.0807L113.861 54.6172ZM114.663 62.0469L109.692 62.5835C109.475 60.5726 111.4 59.1453 113.188 59.7346L111.623 64.4834L110.058 69.2322C115.041 70.8743 120.212 66.8653 119.634 61.5103L114.663 62.0469ZM111.623 64.4834L113.188 59.7346C110.95 58.997 107.892 58.0286 104.948 57.2267C102.18 56.4727 98.9526 55.7042 96.6406 55.635L96.4912 60.6328L96.3418 65.6306C97.3021 65.6593 99.4403 66.0909 102.32 66.8752C105.023 67.6115 107.895 68.5194 110.058 69.2322L111.623 64.4834ZM96.4912 60.6328L96.641 55.6351C96.9477 55.6442 97.3035 55.6947 97.6753 55.8132L96.1572 60.5771L94.6392 65.3411C95.2313 65.5298 95.804 65.6145 96.3414 65.6306L96.4912 60.6328ZM96.1572 60.5771L97.6754 55.8132L92.3649 54.1208L90.8467 58.8848L89.3285 63.6487L94.639 65.3411L96.1572 60.5771ZM90.8467 58.8848L86.6739 56.1301C85.9734 57.1913 84.8155 57.8991 83.4964 57.9892L83.8369 62.9775L84.1775 67.9659C88.7202 67.6558 92.6633 65.2085 95.0194 61.6394L90.8467 58.8848ZM83.8369 62.9775L79.479 60.5263C79.1509 61.1096 78.5407 61.4824 77.8516 61.4824V66.4824V71.4824C82.3032 71.4824 86.1703 69.0282 88.1949 65.4287L83.8369 62.9775ZM77.8516 66.4824V61.4824H70.9873V66.4824V71.4824H77.8516V66.4824ZM70.9873 66.4824L70.9875 61.4824C70.301 61.4824 69.6932 61.1126 69.3642 60.5334L65.0166 63.0029L60.6691 65.4725C62.7001 69.048 66.5538 71.4822 70.9871 71.4824L70.9873 66.4824ZM65.0166 63.0029V58.0029H64.8994V63.0029V68.0029H65.0166V63.0029ZM64.8994 63.0029L64.8994 58.0029C62.7727 58.0029 61.0126 56.3984 60.7761 54.3336L55.8086 54.9023L50.841 55.4711C51.6486 62.5244 57.6285 68.0029 64.8994 68.0029L64.8994 63.0029ZM55.8086 54.9023L58.12 50.4687C42.3109 42.2271 29.2987 46.1396 4.20244 52.4508L5.42188 57.2998L6.64131 62.1488C32.9766 55.526 41.7494 53.2117 53.4972 59.336L55.8086 54.9023ZM5.42188 57.2998L4.20244 52.4508C4.20214 52.4509 4.23592 52.4429 4.29643 52.4462C4.35565 52.4493 4.42173 52.4622 4.48829 52.4867C4.61617 52.5337 4.72641 52.6157 4.81158 52.7292C4.8979 52.8441 4.98839 53.0344 4.99877 53.293C5.01044 53.584 4.91323 53.787 4.87364 53.8443L0.758789 51.0039L-3.35606 48.1635C-5.79184 51.6921 -5.34287 55.8596 -3.18534 58.7333C-1.06888 61.5522 2.6791 63.1452 6.64131 62.1488L5.42188 57.2998ZM0.758789 51.0039L4.87364 53.8443C9.8678 46.6094 14.7398 42.6997 21.3102 37.8941L18.3584 33.8584L15.4066 29.8227C8.54047 34.8446 2.59437 39.5433 -3.35606 48.1635L0.758789 51.0039ZM18.3584 33.8584L21.3101 37.8941C32.2027 29.9273 43.5311 29.1273 57.4395 31.7907L58.3799 26.8799L59.3203 21.9691C43.8843 19.0132 29.3627 19.6152 15.4067 29.8227L18.3584 33.8584ZM58.3799 26.8799L61.9418 30.3888C62.7018 29.6174 63.7419 29.1494 64.8994 29.1494L64.8994 24.1494L64.8994 19.1494C60.9525 19.1494 57.3779 20.7724 54.818 23.3709L58.3799 26.8799ZM64.8994 24.1494V29.1494H83.2041V24.1494V19.1494H64.8994V24.1494Z" fill="#4C2416" mask="url(#path-3-inside-2_1212_70717)"/>
<path d="M41.2419 35.0202C50.3945 33.8761 54.9714 36.1656 65.2675 37.3088L86.8068 39.5765C86.938 39.5903 87.0706 39.5813 87.1985 39.5499L96.3226 37.3088L102.773 35.8979C103.487 35.7416 104.166 36.2893 104.166 37.0222L104.166 44.0922C104.166 44.1464 104.17 44.2006 104.178 44.2544L105.099 50.7018C105.205 51.4482 104.576 52.0886 103.828 51.9935L96.4776 51.0578C96.3748 51.0447 96.2741 51.0177 96.1784 50.9775L88.5459 47.7726C88.29 47.6651 88.0043 47.6541 87.7419 47.7415L83.2304 49.2454C83.0789 49.2959 82.9187 49.3082 82.7598 49.3251C81.2296 49.4872 77.8912 52.1027 66.7226 51.0676C66.5224 51.0491 66.3228 50.9745 66.1585 50.8576C54.8598 42.8184 47.0032 39.4012 24.7321 43.9842C23.6422 44.2085 22.9044 42.9441 23.7277 42.1973C27.8085 38.4956 32.8662 36.0671 41.2419 35.0202Z" fill="#AB4B2B"/>
<rect x="83.5728" y="34.4492" width="18.3051" height="18.3051" rx="2.28814" transform="rotate(90 83.5728 34.4492)" fill="#AB4B2B"/>
<rect x="77.8525" y="34.4492" width="19.4492" height="6.86441" rx="2.28814" transform="rotate(90 77.8525 34.4492)" fill="#AB4B2B"/>
<rect x="80.1406" y="37.8813" width="11.4407" height="11.4407" rx="2.28814" transform="rotate(90 80.1406 37.8813)" fill="#D66440"/>
</svg>
