<svg width="150" height="150" viewBox="0 0 150 150" fill="none" xmlns="http://www.w3.org/2000/svg">
<mask id="path-1-inside-1_1228_70689" fill="white">
<path d="M78.9297 15.2246L81.1475 15.9014L82.7178 17.0479L83.7998 18.7119L84.4385 21.0615L84.6504 25.9092V139.091L84.4385 143.938L83.7998 146.288L82.7178 147.952L81.1475 149.099L78.9297 149.775L74.3535 150L69.7783 149.775L67.5605 149.099L65.9902 147.952L64.9082 146.288L64.2695 143.938L64.0576 139.091V25.9092L64.2695 21.0615L64.9082 18.7119L65.9902 17.0479L67.5605 15.9014L69.7783 15.2246L74.3535 15L78.9297 15.2246Z"/>
</mask>
<path d="M78.9297 15.2246L81.1475 15.9014L82.7178 17.0479L83.7998 18.7119L84.4385 21.0615L84.6504 25.9092V139.091L84.4385 143.938L83.7998 146.288L82.7178 147.952L81.1475 149.099L78.9297 149.775L74.3535 150L69.7783 149.775L67.5605 149.099L65.9902 147.952L64.9082 146.288L64.2695 143.938L64.0576 139.091V25.9092L64.2695 21.0615L64.9082 18.7119L65.9902 17.0479L67.5605 15.9014L69.7783 15.2246L74.3535 15L78.9297 15.2246Z" fill="#464A4A"/>
<path d="M78.9297 15.2246L80.389 10.4423L79.7951 10.2611L79.1748 10.2306L78.9297 15.2246ZM81.1475 15.9014L84.0958 11.8631L83.4141 11.3654L82.6068 11.1191L81.1475 15.9014ZM82.7178 17.0479L86.9095 14.3222L86.4085 13.5516L85.6661 13.0096L82.7178 17.0479ZM83.7998 18.7119L88.6247 17.4004L88.419 16.6437L87.9916 15.9863L83.7998 18.7119ZM84.4385 21.0615L89.4337 20.8432L89.4094 20.2871L89.2634 19.75L84.4385 21.0615ZM84.6504 25.9092H89.6504V25.7999L89.6456 25.6908L84.6504 25.9092ZM84.6504 139.091L89.6456 139.309L89.6504 139.2V139.091H84.6504ZM84.4385 143.938L89.2634 145.25L89.4094 144.713L89.4337 144.157L84.4385 143.938ZM83.7998 146.288L87.9916 149.014L88.419 148.356L88.6247 147.6L83.7998 146.288ZM82.7178 147.952L85.6661 151.99L86.4085 151.448L86.9095 150.678L82.7178 147.952ZM81.1475 149.099L82.6068 153.881L83.4141 153.635L84.0958 153.137L81.1475 149.099ZM78.9297 149.775L79.1748 154.769L79.7951 154.739L80.389 154.558L78.9297 149.775ZM74.3535 150L74.1083 154.994L74.3535 155.006L74.5986 154.994L74.3535 150ZM69.7783 149.775L68.319 154.558L68.9129 154.739L69.5332 154.769L69.7783 149.775ZM67.5605 149.099L64.6122 153.137L65.2939 153.635L66.1012 153.881L67.5605 149.099ZM65.9902 147.952L61.7985 150.678L62.2995 151.448L63.0419 151.99L65.9902 147.952ZM64.9082 146.288L60.0833 147.6L60.289 148.356L60.7164 149.014L64.9082 146.288ZM64.2695 143.938L59.2743 144.157L59.2986 144.713L59.4446 145.25L64.2695 143.938ZM64.0576 139.091H59.0576V139.2L59.0624 139.309L64.0576 139.091ZM64.0576 25.9092L59.0624 25.6908L59.0576 25.7999V25.9092H64.0576ZM64.2695 21.0615L59.4446 19.75L59.2986 20.2871L59.2743 20.8432L64.2695 21.0615ZM64.9082 18.7119L60.7164 15.9863L60.289 16.6437L60.0833 17.4004L64.9082 18.7119ZM65.9902 17.0479L63.0419 13.0096L62.2995 13.5516L61.7985 14.3222L65.9902 17.0479ZM67.5605 15.9014L66.1012 11.1191L65.2939 11.3654L64.6122 11.8631L67.5605 15.9014ZM69.7783 15.2246L69.5332 10.2306L68.9129 10.2611L68.319 10.4423L69.7783 15.2246ZM74.3535 15L74.5986 10.006L74.3535 9.99398L74.1083 10.006L74.3535 15ZM78.9297 15.2246L77.4704 20.0069L79.6881 20.6837L81.1475 15.9014L82.6068 11.1191L80.389 10.4423L78.9297 15.2246ZM81.1475 15.9014L78.1991 19.9396L79.7695 21.0861L82.7178 17.0479L85.6661 13.0096L84.0958 11.8631L81.1475 15.9014ZM82.7178 17.0479L78.526 19.7735L79.608 21.4375L83.7998 18.7119L87.9916 15.9863L86.9095 14.3222L82.7178 17.0479ZM83.7998 18.7119L78.9749 20.0234L79.6135 22.373L84.4385 21.0615L89.2634 19.75L88.6247 17.4004L83.7998 18.7119ZM84.4385 21.0615L79.4432 21.2799L79.6552 26.1275L84.6504 25.9092L89.6456 25.6908L89.4337 20.8432L84.4385 21.0615ZM84.6504 25.9092H79.6504V139.091H84.6504H89.6504V25.9092H84.6504ZM84.6504 139.091L79.6552 138.872L79.4432 143.72L84.4385 143.938L89.4337 144.157L89.6456 139.309L84.6504 139.091ZM84.4385 143.938L79.6135 142.627L78.9749 144.977L83.7998 146.288L88.6247 147.6L89.2634 145.25L84.4385 143.938ZM83.7998 146.288L79.608 143.562L78.526 145.227L82.7178 147.952L86.9095 150.678L87.9916 149.014L83.7998 146.288ZM82.7178 147.952L79.7695 143.914L78.1991 145.06L81.1475 149.099L84.0958 153.137L85.6661 151.99L82.7178 147.952ZM81.1475 149.099L79.6881 144.316L77.4704 144.993L78.9297 149.775L80.389 154.558L82.6068 153.881L81.1475 149.099ZM78.9297 149.775L78.6846 144.781L74.1084 145.006L74.3535 150L74.5986 154.994L79.1748 154.769L78.9297 149.775ZM74.3535 150L74.5987 145.006L70.0235 144.781L69.7783 149.775L69.5332 154.769L74.1083 154.994L74.3535 150ZM69.7783 149.775L71.2376 144.993L69.0199 144.316L67.5605 149.099L66.1012 153.881L68.319 154.558L69.7783 149.775ZM67.5605 149.099L70.5089 145.06L68.9386 143.914L65.9902 147.952L63.0419 151.99L64.6122 153.137L67.5605 149.099ZM65.9902 147.952L70.182 145.227L69.1 143.562L64.9082 146.288L60.7164 149.014L61.7985 150.678L65.9902 147.952ZM64.9082 146.288L69.7331 144.977L69.0945 142.627L64.2695 143.938L59.4446 145.25L60.0833 147.6L64.9082 146.288ZM64.2695 143.938L69.2648 143.72L69.0528 138.872L64.0576 139.091L59.0624 139.309L59.2743 144.157L64.2695 143.938ZM64.0576 139.091H69.0576V25.9092H64.0576H59.0576V139.091H64.0576ZM64.0576 25.9092L69.0528 26.1275L69.2648 21.2799L64.2695 21.0615L59.2743 20.8432L59.0624 25.6908L64.0576 25.9092ZM64.2695 21.0615L69.0945 22.373L69.7331 20.0234L64.9082 18.7119L60.0833 17.4004L59.4446 19.75L64.2695 21.0615ZM64.9082 18.7119L69.1 21.4375L70.182 19.7735L65.9902 17.0479L61.7985 14.3222L60.7164 15.9863L64.9082 18.7119ZM65.9902 17.0479L68.9386 21.0861L70.5089 19.9396L67.5605 15.9014L64.6122 11.8631L63.0419 13.0096L65.9902 17.0479ZM67.5605 15.9014L69.0199 20.6837L71.2376 20.0069L69.7783 15.2246L68.319 10.4423L66.1012 11.1191L67.5605 15.9014ZM69.7783 15.2246L70.0235 20.2186L74.5987 19.994L74.3535 15L74.1083 10.006L69.5332 10.2306L69.7783 15.2246ZM74.3535 15L74.1084 19.994L78.6846 20.2186L78.9297 15.2246L79.1748 10.2306L74.5986 10.006L74.3535 15Z" fill="#2B3333" mask="url(#path-1-inside-1_1228_70689)"/>
<path d="M38.767 15.9C40.0079 13.5617 43.1586 13.5829 44.59 15.5276L48.0356 20.2095L60.2624 25.0294L87.6544 25.8835L87.8002 25.9056L94.4464 26.8984L96.5814 26.451L96.7495 26.4201C98.4232 26.1516 100.052 27.1255 100.607 28.727L100.66 28.8889L102.627 35.5824C102.732 35.938 102.779 36.3086 102.768 36.6791L102.311 51.3214C102.305 51.5296 102.279 51.7368 102.236 51.9404L100.639 59.447C100.214 61.4467 98.1721 62.6575 96.2133 62.0721L94.1805 61.4645L86.673 62.1195L86.5251 62.1325L75.7188 61.7956C73.1972 62.1753 69.6281 62.0325 66.6548 61.8276C65.0954 61.7201 63.6188 61.5892 62.4349 61.4849C61.4333 61.3967 60.7171 61.3363 60.2899 61.3125L46.6069 65.7486L42.8797 70.1297C41.2257 72.0739 38.0018 71.677 37.003 69.1834C32.9899 59.1645 32.367 48.259 33.2342 38.767C34.101 29.2812 36.4751 21.0025 38.6532 16.1329L38.767 15.9Z" fill="#D15951" stroke="#514040" stroke-width="5"/>
<path d="M44.9961 63.0914C40.2472 42.4194 43.6132 28.0194 46.1289 22.8261C46.2879 22.498 46.2738 22.1116 46.0761 21.8052L42.7577 16.6604C42.3433 16.018 41.3943 16.0605 41.0639 16.7499C32.7688 34.0577 34.5896 58.8959 39.3573 68.5108C39.662 69.1252 40.4809 69.1784 40.9178 68.6498L44.7932 63.9619C44.9925 63.7209 45.0662 63.3961 44.9961 63.0914Z" fill="#9E8787"/>
<path d="M66.4436 51.5834L55.0114 54.9596L53.2183 42.2896L55.0821 32.0506L66.9688 34.7381L80.728 35.1671L93.0162 33.2333L94.5596 37.4004L94.1306 51.1595L92.7928 56.91L80.2027 52.0124L66.4436 51.5834Z" fill="#E16860"/>
</svg>
