<svg width="150" height="150" viewBox="0 0 150 150" fill="none" xmlns="http://www.w3.org/2000/svg">
<mask id="path-1-inside-1_1212_70755" fill="white">
<path d="M78.9297 15.2246L81.1475 15.9014L82.7178 17.0479L83.7998 18.7119L84.4385 21.0615L84.6504 25.9092V139.091L84.4385 143.938L83.7998 146.288L82.7178 147.952L81.1475 149.099L78.9297 149.775L74.3535 150L69.7783 149.775L67.5605 149.099L65.9902 147.952L64.9082 146.288L64.2695 143.938L64.0576 139.091V25.9092L64.2695 21.0615L64.9082 18.7119L65.9902 17.0479L67.5605 15.9014L69.7783 15.2246L74.3535 15L78.9297 15.2246Z"/>
</mask>
<path d="M78.9297 15.2246L81.1475 15.9014L82.7178 17.0479L83.7998 18.7119L84.4385 21.0615L84.6504 25.9092V139.091L84.4385 143.938L83.7998 146.288L82.7178 147.952L81.1475 149.099L78.9297 149.775L74.3535 150L69.7783 149.775L67.5605 149.099L65.9902 147.952L64.9082 146.288L64.2695 143.938L64.0576 139.091V25.9092L64.2695 21.0615L64.9082 18.7119L65.9902 17.0479L67.5605 15.9014L69.7783 15.2246L74.3535 15L78.9297 15.2246Z" fill="#464A4A"/>
<path d="M78.9297 15.2246L80.389 10.4423L79.7951 10.2611L79.1748 10.2306L78.9297 15.2246ZM81.1475 15.9014L84.0958 11.8631L83.4141 11.3654L82.6068 11.1191L81.1475 15.9014ZM82.7178 17.0479L86.9095 14.3222L86.4085 13.5516L85.6661 13.0096L82.7178 17.0479ZM83.7998 18.7119L88.6247 17.4004L88.419 16.6437L87.9916 15.9863L83.7998 18.7119ZM84.4385 21.0615L89.4337 20.8432L89.4094 20.2871L89.2634 19.75L84.4385 21.0615ZM84.6504 25.9092H89.6504V25.7999L89.6456 25.6908L84.6504 25.9092ZM84.6504 139.091L89.6456 139.309L89.6504 139.2V139.091H84.6504ZM84.4385 143.938L89.2634 145.25L89.4094 144.713L89.4337 144.157L84.4385 143.938ZM83.7998 146.288L87.9916 149.014L88.419 148.356L88.6247 147.6L83.7998 146.288ZM82.7178 147.952L85.6661 151.99L86.4085 151.448L86.9095 150.678L82.7178 147.952ZM81.1475 149.099L82.6068 153.881L83.4141 153.635L84.0958 153.137L81.1475 149.099ZM78.9297 149.775L79.1748 154.769L79.7951 154.739L80.389 154.558L78.9297 149.775ZM74.3535 150L74.1083 154.994L74.3535 155.006L74.5986 154.994L74.3535 150ZM69.7783 149.775L68.319 154.558L68.9129 154.739L69.5332 154.769L69.7783 149.775ZM67.5605 149.099L64.6122 153.137L65.2939 153.635L66.1012 153.881L67.5605 149.099ZM65.9902 147.952L61.7985 150.678L62.2995 151.448L63.0419 151.99L65.9902 147.952ZM64.9082 146.288L60.0833 147.6L60.289 148.356L60.7164 149.014L64.9082 146.288ZM64.2695 143.938L59.2743 144.157L59.2986 144.713L59.4446 145.25L64.2695 143.938ZM64.0576 139.091H59.0576V139.2L59.0624 139.309L64.0576 139.091ZM64.0576 25.9092L59.0624 25.6908L59.0576 25.7999V25.9092H64.0576ZM64.2695 21.0615L59.4446 19.75L59.2986 20.2871L59.2743 20.8432L64.2695 21.0615ZM64.9082 18.7119L60.7164 15.9863L60.289 16.6437L60.0833 17.4004L64.9082 18.7119ZM65.9902 17.0479L63.0419 13.0096L62.2995 13.5516L61.7985 14.3222L65.9902 17.0479ZM67.5605 15.9014L66.1012 11.1191L65.2939 11.3654L64.6122 11.8631L67.5605 15.9014ZM69.7783 15.2246L69.5332 10.2306L68.9129 10.2611L68.319 10.4423L69.7783 15.2246ZM74.3535 15L74.5986 10.006L74.3535 9.99398L74.1083 10.006L74.3535 15ZM78.9297 15.2246L77.4704 20.0069L79.6881 20.6837L81.1475 15.9014L82.6068 11.1191L80.389 10.4423L78.9297 15.2246ZM81.1475 15.9014L78.1991 19.9396L79.7695 21.0861L82.7178 17.0479L85.6661 13.0096L84.0958 11.8631L81.1475 15.9014ZM82.7178 17.0479L78.526 19.7735L79.608 21.4375L83.7998 18.7119L87.9916 15.9863L86.9095 14.3222L82.7178 17.0479ZM83.7998 18.7119L78.9749 20.0234L79.6135 22.373L84.4385 21.0615L89.2634 19.75L88.6247 17.4004L83.7998 18.7119ZM84.4385 21.0615L79.4432 21.2799L79.6552 26.1275L84.6504 25.9092L89.6456 25.6908L89.4337 20.8432L84.4385 21.0615ZM84.6504 25.9092H79.6504V139.091H84.6504H89.6504V25.9092H84.6504ZM84.6504 139.091L79.6552 138.872L79.4432 143.72L84.4385 143.938L89.4337 144.157L89.6456 139.309L84.6504 139.091ZM84.4385 143.938L79.6135 142.627L78.9749 144.977L83.7998 146.288L88.6247 147.6L89.2634 145.25L84.4385 143.938ZM83.7998 146.288L79.608 143.562L78.526 145.227L82.7178 147.952L86.9095 150.678L87.9916 149.014L83.7998 146.288ZM82.7178 147.952L79.7695 143.914L78.1991 145.06L81.1475 149.099L84.0958 153.137L85.6661 151.99L82.7178 147.952ZM81.1475 149.099L79.6881 144.316L77.4704 144.993L78.9297 149.775L80.389 154.558L82.6068 153.881L81.1475 149.099ZM78.9297 149.775L78.6846 144.781L74.1084 145.006L74.3535 150L74.5986 154.994L79.1748 154.769L78.9297 149.775ZM74.3535 150L74.5987 145.006L70.0235 144.781L69.7783 149.775L69.5332 154.769L74.1083 154.994L74.3535 150ZM69.7783 149.775L71.2376 144.993L69.0199 144.316L67.5605 149.099L66.1012 153.881L68.319 154.558L69.7783 149.775ZM67.5605 149.099L70.5089 145.06L68.9386 143.914L65.9902 147.952L63.0419 151.99L64.6122 153.137L67.5605 149.099ZM65.9902 147.952L70.182 145.227L69.1 143.562L64.9082 146.288L60.7164 149.014L61.7985 150.678L65.9902 147.952ZM64.9082 146.288L69.7331 144.977L69.0945 142.627L64.2695 143.938L59.4446 145.25L60.0833 147.6L64.9082 146.288ZM64.2695 143.938L69.2648 143.72L69.0528 138.872L64.0576 139.091L59.0624 139.309L59.2743 144.157L64.2695 143.938ZM64.0576 139.091H69.0576V25.9092H64.0576H59.0576V139.091H64.0576ZM64.0576 25.9092L69.0528 26.1275L69.2648 21.2799L64.2695 21.0615L59.2743 20.8432L59.0624 25.6908L64.0576 25.9092ZM64.2695 21.0615L69.0945 22.373L69.7331 20.0234L64.9082 18.7119L60.0833 17.4004L59.4446 19.75L64.2695 21.0615ZM64.9082 18.7119L69.1 21.4375L70.182 19.7735L65.9902 17.0479L61.7985 14.3222L60.7164 15.9863L64.9082 18.7119ZM65.9902 17.0479L68.9386 21.0861L70.5089 19.9396L67.5605 15.9014L64.6122 11.8631L63.0419 13.0096L65.9902 17.0479ZM67.5605 15.9014L69.0199 20.6837L71.2376 20.0069L69.7783 15.2246L68.319 10.4423L66.1012 11.1191L67.5605 15.9014ZM69.7783 15.2246L70.0235 20.2186L74.5987 19.994L74.3535 15L74.1083 10.006L69.5332 10.2306L69.7783 15.2246ZM74.3535 15L74.1084 19.994L78.6846 20.2186L78.9297 15.2246L79.1748 10.2306L74.5986 10.006L74.3535 15Z" fill="#2B3333" mask="url(#path-1-inside-1_1212_70755)"/>
<mask id="path-3-inside-2_1212_70755" fill="white">
<path d="M71.9329 19.7329C73.2732 18.3926 75.447 18.3926 76.7874 19.7329L86.679 29.6245L93.2356 27.5913L98.6409 25.9692C98.8375 25.9102 99.0538 25.9572 99.2112 26.0903C100.757 27.3986 102.094 28.8569 103.223 30.4224L103.942 29.9497C105.087 29.1954 106.572 29.1954 107.717 29.9497L124.93 41.2847C126.989 42.6408 126.989 45.6619 124.93 47.0181L107.717 58.353C106.572 59.1073 105.087 59.1073 103.942 58.353L103.588 58.1196C102.392 59.8388 100.941 61.4297 99.2297 62.8335C99.0609 62.9718 98.8298 63.0067 98.6262 62.9253L93.2356 60.77L87.8733 58.7075L83.2112 63.3696L90.6555 67.4839C93.0182 68.7897 93.0183 72.186 90.6555 73.4917L76.0139 81.5825C74.9808 82.1534 73.7267 82.1534 72.6936 81.5825L58.053 73.4917C55.6902 72.1859 55.6902 68.7896 58.053 67.4839L65.5032 63.3647L58.6409 56.5024C43.4325 47.3195 32.8715 50.4032 5.42212 57.3062C1.59187 58.2694 -1.48329 54.2586 0.759033 51.0103C6.23133 43.0827 11.6404 38.7785 18.3586 33.8647C32.2485 23.7056 46.7647 24.0252 63.6477 28.0171L71.9329 19.7329Z"/>
</mask>
<path d="M71.9329 19.7329C73.2732 18.3926 75.447 18.3926 76.7874 19.7329L86.679 29.6245L93.2356 27.5913L98.6409 25.9692C98.8375 25.9102 99.0538 25.9572 99.2112 26.0903C100.757 27.3986 102.094 28.8569 103.223 30.4224L103.942 29.9497C105.087 29.1954 106.572 29.1954 107.717 29.9497L124.93 41.2847C126.989 42.6408 126.989 45.6619 124.93 47.0181L107.717 58.353C106.572 59.1073 105.087 59.1073 103.942 58.353L103.588 58.1196C102.392 59.8388 100.941 61.4297 99.2297 62.8335C99.0609 62.9718 98.8298 63.0067 98.6262 62.9253L93.2356 60.77L87.8733 58.7075L83.2112 63.3696L90.6555 67.4839C93.0182 68.7897 93.0183 72.186 90.6555 73.4917L76.0139 81.5825C74.9808 82.1534 73.7267 82.1534 72.6936 81.5825L58.053 73.4917C55.6902 72.1859 55.6902 68.7896 58.053 67.4839L65.5032 63.3647L58.6409 56.5024C43.4325 47.3195 32.8715 50.4032 5.42212 57.3062C1.59187 58.2694 -1.48329 54.2586 0.759033 51.0103C6.23133 43.0827 11.6404 38.7785 18.3586 33.8647C32.2485 23.7056 46.7647 24.0252 63.6477 28.0171L71.9329 19.7329Z" fill="#632727"/>
<path d="M71.9329 19.7329L75.4682 23.2687L75.4684 23.2684L71.9329 19.7329ZM76.7874 19.7329L80.3229 16.1974L76.7874 19.7329ZM86.679 29.6245L83.1434 33.16L85.2774 35.294L88.1599 34.4002L86.679 29.6245ZM93.2356 27.5913L91.7985 22.8023L91.7765 22.8089L91.7547 22.8157L93.2356 27.5913ZM98.6409 25.9692L97.2039 21.1802L97.2037 21.1802L98.6409 25.9692ZM99.2112 26.0903L102.441 22.2734L102.441 22.2734L99.2112 26.0903ZM103.223 30.4224L99.1676 33.3472L101.969 37.2313L105.97 34.6L103.223 30.4224ZM103.942 29.9497L106.689 34.1273L106.692 34.1256L103.942 29.9497ZM107.717 29.9497L104.967 34.1256L104.967 34.1256L107.717 29.9497ZM124.93 41.2847L127.68 37.1088L127.68 37.1088L124.93 41.2847ZM124.93 47.0181L127.68 51.194L127.68 51.1939L124.93 47.0181ZM107.717 58.353L104.967 54.1771L104.967 54.1772L107.717 58.353ZM103.942 58.353L101.187 62.5257L101.192 62.5289L103.942 58.353ZM103.588 58.1196L106.343 53.947L102.271 51.2589L99.4843 55.2633L103.588 58.1196ZM99.2297 62.8335L102.398 66.7013L102.401 66.6989L99.2297 62.8335ZM98.6262 62.9253L96.77 67.568L96.7703 67.5681L98.6262 62.9253ZM93.2356 60.77L95.0918 56.1273L95.0613 56.1151L95.0305 56.1033L93.2356 60.77ZM87.8733 58.7075L89.6682 54.0408L86.6354 52.8743L84.3378 55.172L87.8733 58.7075ZM83.2112 63.3696L79.6756 59.8341L74.9777 64.532L80.7926 67.7458L83.2112 63.3696ZM90.6555 67.4839L93.0741 63.1078L93.0741 63.1077L90.6555 67.4839ZM90.6555 73.4917L93.0738 77.868L93.074 77.8679L90.6555 73.4917ZM76.0139 81.5825L73.5956 77.2062L73.5956 77.2063L76.0139 81.5825ZM72.6936 81.5825L75.112 77.2063L75.112 77.2063L72.6936 81.5825ZM58.053 73.4917L55.6345 77.8679L55.6346 77.8679L58.053 73.4917ZM58.053 67.4839L60.4714 71.8601L60.4723 71.8596L58.053 67.4839ZM65.5032 63.3647L67.9225 67.7405L73.7358 64.5263L69.0387 59.8292L65.5032 63.3647ZM58.6409 56.5024L62.1764 52.9669L61.7462 52.5367L61.2253 52.2222L58.6409 56.5024ZM5.42212 57.3062L6.64155 62.1552H6.64155L5.42212 57.3062ZM0.759033 51.0103L-3.35581 48.1698L-3.35581 48.1698L0.759033 51.0103ZM18.3586 33.8647L15.4069 29.829L15.4069 29.829L18.3586 33.8647ZM63.6477 28.0171L62.4972 32.8829L65.211 33.5246L67.183 31.5528L63.6477 28.0171ZM71.9329 19.7329L75.4684 23.2684C74.8561 23.8807 73.8641 23.8807 73.2518 23.2684L76.7874 19.7329L80.3229 16.1974C77.0299 12.9044 71.6903 12.9044 68.3973 16.1974L71.9329 19.7329ZM76.7874 19.7329L73.2518 23.2684L83.1434 33.16L86.679 29.6245L90.2145 26.089L80.3229 16.1974L76.7874 19.7329ZM86.679 29.6245L88.1599 34.4002L94.7165 32.367L93.2356 27.5913L91.7547 22.8157L85.198 24.8489L86.679 29.6245ZM93.2356 27.5913L94.6727 32.3803L100.078 30.7583L98.6409 25.9692L97.2037 21.1802L91.7985 22.8023L93.2356 27.5913ZM98.6409 25.9692L100.078 30.7583C98.6182 31.1963 97.0858 30.8417 95.9815 29.9073L99.2112 26.0903L102.441 22.2734C101.022 21.0726 99.0568 20.6242 97.2039 21.1802L98.6409 25.9692ZM99.2112 26.0903L95.9815 29.9073C97.2122 30.9487 98.2727 32.1064 99.1676 33.3472L103.223 30.4224L107.278 27.4976C105.915 25.6075 104.302 23.8484 102.441 22.2734L99.2112 26.0903ZM103.223 30.4224L105.97 34.6L106.689 34.1273L103.942 29.9497L101.194 25.7721L100.476 26.2447L103.223 30.4224ZM103.942 29.9497L106.692 34.1256C106.168 34.4701 105.49 34.4701 104.967 34.1256L107.717 29.9497L110.467 25.7739C107.653 23.9207 104.006 23.9207 101.192 25.7739L103.942 29.9497ZM107.717 29.9497L104.967 34.1256L122.18 45.4606L124.93 41.2847L127.68 37.1088L110.467 25.7738L107.717 29.9497ZM124.93 41.2847L122.18 45.4605C121.239 44.841 121.239 43.4617 122.18 42.8422L124.93 47.0181L127.68 51.1939C132.739 47.8621 132.739 40.4406 127.68 37.1088L124.93 41.2847ZM124.93 47.0181L122.18 42.8422L104.967 54.1771L107.717 58.353L110.467 62.5289L127.68 51.194L124.93 47.0181ZM107.717 58.353L104.967 54.1772C105.49 53.8326 106.168 53.8326 106.692 54.1771L103.942 58.353L101.192 62.5289C104.006 64.382 107.653 64.382 110.467 62.5289L107.717 58.353ZM103.942 58.353L106.697 54.1804L106.343 53.947L103.588 58.1196L100.833 62.2923L101.187 62.5257L103.942 58.353ZM103.588 58.1196L99.4843 55.2633C98.5454 56.6122 97.4064 57.8618 96.0581 58.9681L99.2297 62.8335L102.401 66.6989C104.475 64.9976 106.238 63.0654 107.692 60.9759L103.588 58.1196ZM99.2297 62.8335L96.0611 58.9657C97.3157 57.9379 99.0125 57.695 100.482 58.2825L98.6262 62.9253L96.7703 67.5681C98.6471 68.3183 100.806 68.0058 102.398 66.7013L99.2297 62.8335ZM98.6262 62.9253L100.482 58.2826L95.0918 56.1273L93.2356 60.77L91.3794 65.4127L96.77 67.568L98.6262 62.9253ZM93.2356 60.77L95.0305 56.1033L89.6682 54.0408L87.8733 58.7075L86.0783 63.3742L91.4406 65.4367L93.2356 60.77ZM87.8733 58.7075L84.3378 55.172L79.6756 59.8341L83.2112 63.3696L86.7467 66.9052L91.4088 62.2431L87.8733 58.7075ZM83.2112 63.3696L80.7926 67.7458L88.237 71.86L90.6555 67.4839L93.0741 63.1077L85.6297 58.9935L83.2112 63.3696ZM90.6555 67.4839L88.2369 71.86C87.158 71.2637 87.1575 69.7121 88.2371 69.1155L90.6555 73.4917L93.074 77.8679C98.879 74.6598 98.8784 66.3157 93.0741 63.1078L90.6555 67.4839ZM90.6555 73.4917L88.2372 69.1154L73.5956 77.2062L76.0139 81.5825L78.4322 85.9588L93.0738 77.868L90.6555 73.4917ZM76.0139 81.5825L73.5956 77.2063C74.0674 76.9455 74.6401 76.9455 75.112 77.2063L72.6936 81.5825L70.2752 85.9587C72.8133 87.3614 75.8942 87.3613 78.4323 85.9588L76.0139 81.5825ZM72.6936 81.5825L75.112 77.2063L60.4714 69.1155L58.053 73.4917L55.6346 77.8679L70.2752 85.9587L72.6936 81.5825ZM58.053 73.4917L60.4714 69.1155C61.5507 69.7119 61.5507 71.2636 60.4714 71.8601L58.053 67.4839L55.6345 63.1077C49.8297 66.3156 49.8297 74.6599 55.6345 77.8679L58.053 73.4917ZM58.053 67.4839L60.4723 71.8596L67.9225 67.7405L65.5032 63.3647L63.0839 58.989L55.6337 63.1082L58.053 67.4839ZM65.5032 63.3647L69.0387 59.8292L62.1764 52.9669L58.6409 56.5024L55.1053 60.038L61.9676 66.9003L65.5032 63.3647ZM58.6409 56.5024L61.2253 52.2222C52.7835 47.125 45.3382 45.3315 36.3177 45.8813C27.7595 46.403 17.687 49.0661 4.20269 52.4571L5.42212 57.3062L6.64155 62.1552C20.6067 58.6432 29.5392 56.313 36.926 55.8628C43.8504 55.4408 49.2898 56.697 56.0564 60.7827L58.6409 56.5024ZM5.42212 57.3062L4.20269 52.4571C4.20238 52.4572 4.23617 52.4493 4.29668 52.4525C4.3559 52.4557 4.42198 52.4685 4.48853 52.493C4.61641 52.5401 4.72665 52.6221 4.81182 52.7355C4.89814 52.8505 4.98863 53.0407 4.99901 53.2994C5.01069 53.5903 4.91347 53.7933 4.87388 53.8507L0.759033 51.0103L-3.35581 48.1698C-5.79159 51.6985 -5.34263 55.866 -3.1851 58.7396C-1.06864 61.5585 2.67934 63.1516 6.64155 62.1552L5.42212 57.3062ZM0.759033 51.0103L4.87388 53.8507C9.86804 46.6158 14.74 42.7061 21.3104 37.9005L18.3586 33.8647L15.4069 29.829C8.54071 34.851 2.59461 39.5496 -3.35581 48.1698L0.759033 51.0103ZM18.3586 33.8647L21.3104 37.9005C33.4586 29.0152 46.1814 29.0252 62.4972 32.8829L63.6477 28.0171L64.7982 23.1513C47.3479 19.0253 31.0385 18.3961 15.4069 29.829L18.3586 33.8647ZM63.6477 28.0171L67.183 31.5528L75.4682 23.2687L71.9329 19.7329L68.3975 16.1972L60.1124 24.4813L63.6477 28.0171Z" fill="#471E1E" mask="url(#path-3-inside-2_1212_70755)"/>
<path d="M103.132 40.3151C103.388 40.2211 103.668 40.2211 103.923 40.3151L111.483 43.1001C112.481 43.4679 112.481 44.8795 111.483 45.2472L103.923 48.0322C103.668 48.1262 103.388 48.1262 103.132 48.0322L95.573 45.2472C94.575 44.8795 94.575 43.4679 95.573 43.1001L103.132 40.3151Z" fill="#7D3131"/>
<path d="M73.5417 31.8227C73.9884 31.3759 74.7128 31.3759 75.1596 31.8226L87.2705 43.9335C87.7173 44.3803 87.7173 45.1047 87.2705 45.5515L75.1596 57.6623C74.7128 58.1091 73.9884 58.1091 73.5417 57.6623L61.4308 45.5515C60.984 45.1047 60.984 44.3803 61.4308 43.9335L73.5417 31.8227Z" fill="#7D3131"/>
<path d="M40.7765 34.943C49.929 33.7989 54.506 36.0884 64.8021 37.2315L86.2918 39.494C86.4552 39.5112 86.6201 39.493 86.7754 39.4407L91.6318 37.8041L95.2341 36.9425C95.7392 36.8217 96.264 37.0577 96.5113 37.5169L99.824 43.6691C99.9952 43.987 100.007 44.3662 99.8566 44.6927L97.1169 50.6283C96.8626 51.1791 96.2215 51.4326 95.6569 51.2055L92.2032 49.8166L88.1099 47.7445C87.837 47.6064 87.5208 47.5829 87.2317 47.6792L82.7649 49.1682C82.6134 49.2187 82.4515 49.2282 82.2933 49.2509C80.9653 49.4418 79.4572 52.0965 68.3742 51.0678C68.1739 51.0492 67.9738 50.975 67.8094 50.8583C56.4799 42.8159 46.7311 39.3295 24.2661 43.9105C23.1757 44.1328 22.439 42.8669 23.2623 42.1201C27.3431 38.4184 32.4008 35.9899 40.7765 34.943Z" fill="#7D3131"/>
<path d="M73.5416 36.3988C73.9883 35.952 74.7127 35.952 75.1595 36.3988L82.6941 43.9334C83.1409 44.3802 83.1409 45.1046 82.6941 45.5514L75.1595 53.0859C74.7127 53.5327 73.9883 53.5327 73.5416 53.086L66.007 45.5514C65.5602 45.1046 65.5602 44.3802 66.007 43.9334L73.5416 36.3988Z" fill="#B24646"/>
</svg>
