<svg width="150" height="150" viewBox="0 0 150 150" fill="none" xmlns="http://www.w3.org/2000/svg">
<g clip-path="url(#clip0_1205_468)">
<mask id="path-1-inside-1_1205_468" fill="white">
<path d="M74.2066 0.760613C75.1205 -0.479374 76.9745 -0.479524 77.8883 0.760613L89.0474 15.9061C89.3997 16.3843 89.5415 16.9652 89.4762 17.5272L89.7115 18.1747L89.9996 23.1151V91.6376L91.9449 93.287H97.0924L100.844 88.6346C101.76 87.5 103.489 87.4998 104.404 88.6346L104.628 88.912L106.162 84.1063C106.839 81.985 109.841 81.9851 110.518 84.1063L116.693 103.453C116.837 103.905 116.837 104.391 116.693 104.844L110.518 124.189C109.841 126.311 106.839 126.311 106.162 124.189L104.628 119.384L104.404 119.662C103.489 120.797 101.76 120.796 100.844 119.662L97.0914 115.009H86.5572L84.9996 116.329V124.807L88.0758 129.185C88.63 129.974 88.63 131.026 88.0758 131.814L85.6441 135.273L87.2857 136.851C88.2213 137.751 88.2213 139.249 87.2857 140.148L77.5845 149.476C76.6994 150.327 75.2997 150.327 74.4146 149.476L64.7144 140.148C63.7788 139.249 63.7788 137.751 64.7144 136.851L66.3541 135.273L63.9234 131.814C63.3694 131.026 63.3693 129.974 63.9234 129.185L66.9996 124.807V116.724L64.9752 115.009H56.7095L52.9566 119.662C52.0414 120.797 50.3122 120.797 49.397 119.662L49.1724 119.383L47.6392 124.189C46.9621 126.311 43.9599 126.311 43.2828 124.189L37.108 104.844C36.9637 104.391 36.9637 103.905 37.108 103.453L43.2828 84.1063C43.9602 81.9851 46.9619 81.985 47.6392 84.1063L49.1724 88.912L49.397 88.6346C50.3122 87.4998 52.0414 87.4999 52.9566 88.6346L56.7086 93.287H59.5885L61.9996 91.2421V23.1151L62.2877 18.1747L62.6021 17.3075C62.5925 16.8161 62.74 16.3221 63.0465 15.9061L74.2066 0.760613Z"/>
</mask>
<path d="M74.2066 0.760613C75.1205 -0.479374 76.9745 -0.479524 77.8883 0.760613L89.0474 15.9061C89.3997 16.3843 89.5415 16.9652 89.4762 17.5272L89.7115 18.1747L89.9996 23.1151V91.6376L91.9449 93.287H97.0924L100.844 88.6346C101.76 87.5 103.489 87.4998 104.404 88.6346L104.628 88.912L106.162 84.1063C106.839 81.985 109.841 81.9851 110.518 84.1063L116.693 103.453C116.837 103.905 116.837 104.391 116.693 104.844L110.518 124.189C109.841 126.311 106.839 126.311 106.162 124.189L104.628 119.384L104.404 119.662C103.489 120.797 101.76 120.796 100.844 119.662L97.0914 115.009H86.5572L84.9996 116.329V124.807L88.0758 129.185C88.63 129.974 88.63 131.026 88.0758 131.814L85.6441 135.273L87.2857 136.851C88.2213 137.751 88.2213 139.249 87.2857 140.148L77.5845 149.476C76.6994 150.327 75.2997 150.327 74.4146 149.476L64.7144 140.148C63.7788 139.249 63.7788 137.751 64.7144 136.851L66.3541 135.273L63.9234 131.814C63.3694 131.026 63.3693 129.974 63.9234 129.185L66.9996 124.807V116.724L64.9752 115.009H56.7095L52.9566 119.662C52.0414 120.797 50.3122 120.797 49.397 119.662L49.1724 119.383L47.6392 124.189C46.9621 126.311 43.9599 126.311 43.2828 124.189L37.108 104.844C36.9637 104.391 36.9637 103.905 37.108 103.453L43.2828 84.1063C43.9602 81.9851 46.9619 81.985 47.6392 84.1063L49.1724 88.912L49.397 88.6346C50.3122 87.4998 52.0414 87.4999 52.9566 88.6346L56.7086 93.287H59.5885L61.9996 91.2421V23.1151L62.2877 18.1747L62.6021 17.3075C62.5925 16.8161 62.74 16.3221 63.0465 15.9061L74.2066 0.760613Z" fill="#632727"/>
<path d="M74.2066 0.760613L70.1817 -2.20585L70.1814 -2.20544L74.2066 0.760613ZM77.8883 0.760613L81.9136 -2.20527L81.9135 -2.20538L77.8883 0.760613ZM89.0474 15.9061L85.0221 18.872L85.0222 18.8721L89.0474 15.9061ZM89.4762 17.5272L84.5097 16.9494L84.373 18.124L84.777 19.2354L89.4762 17.5272ZM89.7115 18.1747L94.703 17.8836L94.6605 17.1537L94.4107 16.4665L89.7115 18.1747ZM89.9996 23.1151H94.9996V22.9694L94.9911 22.824L89.9996 23.1151ZM89.9996 91.6376H84.9996V93.9535L86.766 95.4512L89.9996 91.6376ZM91.9449 93.287L88.7113 97.1006L90.1105 98.287H91.9449V93.287ZM97.0924 93.287V98.287H99.4834L100.984 96.4258L97.0924 93.287ZM100.844 88.6346L96.9526 85.4954L96.9523 85.4958L100.844 88.6346ZM104.404 88.6346L108.296 85.4961L108.296 85.4959L104.404 88.6346ZM104.628 88.912L100.735 92.0505L106.566 99.2813L109.391 90.4326L104.628 88.912ZM106.162 84.1063L101.399 82.5855L101.399 82.5857L106.162 84.1063ZM110.518 84.1063L115.281 82.586L115.281 82.5853L110.518 84.1063ZM116.693 103.453L121.456 101.933L121.456 101.933L116.693 103.453ZM116.693 104.844L121.456 106.364L121.456 106.364L116.693 104.844ZM110.518 124.189L105.755 122.669L105.755 122.669L110.518 124.189ZM106.162 124.189L110.925 122.669L110.925 122.669L106.162 124.189ZM104.628 119.384L109.391 117.863L106.56 108.996L100.73 116.252L104.628 119.384ZM104.404 119.662L108.296 122.801L108.302 122.794L104.404 119.662ZM100.844 119.662L96.9524 122.801L96.9528 122.801L100.844 119.662ZM97.0914 115.009L100.983 111.87L99.4823 110.009H97.0914V115.009ZM86.5572 115.009V110.009H84.7232L83.3242 111.195L86.5572 115.009ZM84.9996 116.329L81.7666 112.515L79.9996 114.013V116.329H84.9996ZM84.9996 124.807H79.9996V126.388L80.9085 127.682L84.9996 124.807ZM88.0758 129.185L83.9847 132.06L83.9848 132.06L88.0758 129.185ZM88.0758 131.814L92.1662 134.69L92.1669 134.689L88.0758 131.814ZM85.6441 135.273L81.5537 132.398L79.0875 135.906L82.179 138.878L85.6441 135.273ZM87.2857 136.851L90.7513 133.247L90.7509 133.247L87.2857 136.851ZM87.2857 140.148L83.8202 136.544L83.8202 136.544L87.2857 140.148ZM77.5845 149.476L81.0497 153.081L81.0501 153.081L77.5845 149.476ZM74.4146 149.476L70.9489 153.08L70.9491 153.081L74.4146 149.476ZM64.7144 140.148L68.1802 136.544L68.18 136.544L64.7144 140.148ZM64.7144 136.851L68.18 140.456L68.1817 140.454L64.7144 136.851ZM66.3541 135.273L69.8214 138.876L72.9086 135.904L70.445 132.399L66.3541 135.273ZM63.9234 131.814L59.8319 134.688L59.8325 134.689L63.9234 131.814ZM63.9234 129.185L59.8324 126.311L59.8323 126.311L63.9234 129.185ZM66.9996 124.807L71.0906 127.682L71.9996 126.388V124.807H66.9996ZM66.9996 116.724H71.9996V114.408L70.2324 112.91L66.9996 116.724ZM64.9752 115.009L68.208 111.194L66.809 110.009H64.9752V115.009ZM56.7095 115.009V110.009H54.3186L52.8176 111.87L56.7095 115.009ZM52.9566 119.662L56.8482 122.801L56.8486 122.801L52.9566 119.662ZM49.397 119.662L45.5007 122.795L45.5052 122.801L49.397 119.662ZM49.1724 119.383L53.0688 116.249L47.2369 108.997L44.4089 117.863L49.1724 119.383ZM47.6392 124.189L52.4025 125.71L52.4028 125.709L47.6392 124.189ZM43.2828 124.189L48.0461 122.669L48.046 122.669L43.2828 124.189ZM37.108 104.844L32.3447 106.364L32.3447 106.364L37.108 104.844ZM37.108 103.453L32.3447 101.933L32.3446 101.933L37.108 103.453ZM43.2828 84.1063L38.5198 82.5852L38.5195 82.586L43.2828 84.1063ZM47.6392 84.1063L52.4027 82.5866L52.4024 82.5856L47.6392 84.1063ZM49.1724 88.912L44.409 90.4317L47.2257 99.2604L53.058 92.0588L49.1724 88.912ZM49.397 88.6346L53.2826 91.7814L53.2891 91.7734L49.397 88.6346ZM52.9566 88.6346L56.8487 85.4958L56.8484 85.4956L52.9566 88.6346ZM56.7086 93.287L52.8165 96.4258L54.3175 98.287H56.7086V93.287ZM59.5885 93.287V98.287H61.4232L62.8225 97.1002L59.5885 93.287ZM61.9996 91.2421L65.2337 95.0553L66.9996 93.5576V91.2421H61.9996ZM61.9996 23.1151L57.0081 22.824L56.9996 22.9694V23.1151H61.9996ZM62.2877 18.1747L57.5872 16.4702L57.3386 17.1557L57.2962 17.8836L62.2877 18.1747ZM62.6021 17.3075L67.3026 19.012L67.6194 18.1385L67.6012 17.2095L62.6021 17.3075ZM63.0465 15.9061L59.0212 12.9401L59.0212 12.9401L63.0465 15.9061ZM74.2066 0.760613L78.2315 3.72708C77.1475 5.19789 74.9479 5.19906 73.863 3.72661L77.8883 0.760613L81.9135 -2.20538C79.001 -6.1581 73.0935 -6.15664 70.1817 -2.20585L74.2066 0.760613ZM77.8883 0.760613L73.8629 3.72649L85.0221 18.872L89.0474 15.9061L93.0728 12.9402L81.9136 -2.20527L77.8883 0.760613ZM89.0474 15.9061L85.0222 18.8721C84.5975 18.2959 84.4338 17.6015 84.5097 16.9494L89.4762 17.5272L94.4426 18.105C94.6493 16.329 94.202 14.4727 93.0727 12.9401L89.0474 15.9061ZM89.4762 17.5272L84.777 19.2354L85.0123 19.8828L89.7115 18.1747L94.4107 16.4665L94.1753 15.8191L89.4762 17.5272ZM89.7115 18.1747L84.72 18.4657L85.0081 23.4062L89.9996 23.1151L94.9911 22.824L94.703 17.8836L89.7115 18.1747ZM89.9996 23.1151H84.9996V91.6376H89.9996H94.9996V23.1151H89.9996ZM89.9996 91.6376L86.766 95.4512L88.7113 97.1006L91.9449 93.287L95.1785 89.4733L93.2332 87.8239L89.9996 91.6376ZM91.9449 93.287V98.287H97.0924V93.287V88.287H91.9449V93.287ZM97.0924 93.287L100.984 96.4258L104.736 91.7734L100.844 88.6346L96.9523 85.4958L93.2003 90.1482L97.0924 93.287ZM100.844 88.6346L104.736 91.7739C103.65 93.1197 101.598 93.1208 100.512 91.7734L104.404 88.6346L108.296 85.4959C105.379 81.8789 99.8688 81.8803 96.9526 85.4954L100.844 88.6346ZM104.404 88.6346L100.512 91.7731L100.735 92.0505L104.628 88.912L108.52 85.7735L108.296 85.4961L104.404 88.6346ZM104.628 88.912L109.391 90.4326L110.925 85.6269L106.162 84.1063L101.399 82.5857L99.8644 87.3914L104.628 88.912ZM106.162 84.1063L110.925 85.6272C110.121 88.1453 106.559 88.1442 105.755 85.6274L110.518 84.1063L115.281 82.5853C113.123 75.826 103.557 75.8248 101.399 82.5855L106.162 84.1063ZM110.518 84.1063L105.755 85.6266L111.93 104.973L116.693 103.453L121.456 101.933L115.281 82.586L110.518 84.1063ZM116.693 103.453L111.93 104.973C111.758 104.437 111.758 103.86 111.93 103.323L116.693 104.844L121.456 106.364C121.916 104.923 121.916 103.374 121.456 101.933L116.693 103.453ZM116.693 104.844L111.93 103.323L105.755 122.669L110.518 124.189L115.281 125.71L121.456 106.364L116.693 104.844ZM110.518 124.189L105.755 122.669C106.558 120.151 110.121 120.151 110.925 122.669L106.162 124.189L101.398 125.71C103.556 132.471 113.124 132.471 115.281 125.71L110.518 124.189ZM106.162 124.189L110.925 122.669L109.391 117.863L104.628 119.384L99.8644 120.904L101.399 125.71L106.162 124.189ZM104.628 119.384L100.73 116.252L100.506 116.53L104.404 119.662L108.302 122.794L108.525 122.515L104.628 119.384ZM104.404 119.662L100.512 116.523C101.599 115.176 103.65 115.177 104.736 116.522L100.844 119.662L96.9528 122.801C99.8688 126.416 105.379 126.418 108.296 122.801L104.404 119.662ZM100.844 119.662L104.736 116.523L100.983 111.87L97.0914 115.009L93.1994 118.148L96.9524 122.801L100.844 119.662ZM97.0914 115.009V110.009H86.5572V115.009V120.009H97.0914V115.009ZM86.5572 115.009L83.3242 111.195L81.7666 112.515L84.9996 116.329L88.2326 120.143L89.7902 118.823L86.5572 115.009ZM84.9996 116.329H79.9996V124.807H84.9996H89.9996V116.329H84.9996ZM84.9996 124.807L80.9085 127.682L83.9847 132.06L88.0758 129.185L92.1668 126.311L89.0906 121.933L84.9996 124.807ZM88.0758 129.185L83.9848 132.06C83.3269 131.124 83.3271 129.876 83.9847 128.94L88.0758 131.814L92.1669 134.689C93.9328 132.175 93.9331 128.824 92.1667 126.311L88.0758 129.185ZM88.0758 131.814L83.9854 128.939L81.5537 132.398L85.6441 135.273L89.7345 138.149L92.1662 134.69L88.0758 131.814ZM85.6441 135.273L82.179 138.878L83.8206 140.456L87.2857 136.851L90.7509 133.247L89.1093 131.669L85.6441 135.273ZM87.2857 136.851L83.8202 140.456C82.7099 139.388 82.7099 137.612 83.8202 136.544L87.2857 140.148L90.7513 143.752C93.7328 140.886 93.7328 136.114 90.7513 133.247L87.2857 136.851ZM87.2857 140.148L83.8202 136.544L74.119 145.872L77.5845 149.476L81.0501 153.081L90.7513 143.752L87.2857 140.148ZM77.5845 149.476L74.1194 145.872C75.1693 144.863 76.8293 144.862 77.8802 145.872L74.4146 149.476L70.9491 153.081C73.7701 155.793 78.2295 155.792 81.0497 153.081L77.5845 149.476ZM74.4146 149.476L77.8804 145.872L68.1802 136.544L64.7144 140.148L61.2487 143.752L70.9489 153.08L74.4146 149.476ZM64.7144 140.148L68.18 136.544C69.2903 137.612 69.2903 139.388 68.18 140.456L64.7144 136.851L61.2489 133.247C58.2673 136.114 58.2673 140.886 61.2489 143.752L64.7144 140.148ZM64.7144 136.851L68.1817 140.454L69.8214 138.876L66.3541 135.273L62.8868 131.671L61.2471 133.249L64.7144 136.851ZM66.3541 135.273L70.445 132.399L68.0144 128.94L63.9234 131.814L59.8325 134.689L62.2631 138.148L66.3541 135.273ZM63.9234 131.814L68.015 128.94C68.6719 129.876 68.6726 131.123 68.0145 132.06L63.9234 129.185L59.8323 126.311C58.066 128.825 58.067 132.176 59.8319 134.688L63.9234 131.814ZM63.9234 129.185L68.0145 132.06L71.0906 127.682L66.9996 124.807L62.9085 121.933L59.8324 126.311L63.9234 129.185ZM66.9996 124.807H71.9996V116.724H66.9996H61.9996V124.807H66.9996ZM66.9996 116.724L70.2324 112.91L68.208 111.194L64.9752 115.009L61.7423 118.823L63.7667 120.539L66.9996 116.724ZM64.9752 115.009V110.009H56.7095V115.009V120.009H64.9752V115.009ZM56.7095 115.009L52.8176 111.87L49.0647 116.523L52.9566 119.662L56.8486 122.801L60.6015 118.148L56.7095 115.009ZM52.9566 119.662L49.065 116.523C50.1508 115.177 52.2025 115.176 53.2889 116.523L49.397 119.662L45.5052 122.801C48.4219 126.417 53.932 126.416 56.8482 122.801L52.9566 119.662ZM49.397 119.662L53.2934 116.529L53.0688 116.249L49.1724 119.383L45.2761 122.516L45.5007 122.795L49.397 119.662ZM49.1724 119.383L44.4089 117.863L42.8757 122.67L47.6392 124.189L52.4028 125.709L53.936 120.902L49.1724 119.383ZM47.6392 124.189L42.8759 122.669C43.6795 120.151 47.2425 120.151 48.0461 122.669L43.2828 124.189L38.5195 125.71C40.6774 132.471 50.2446 132.471 52.4025 125.71L47.6392 124.189ZM43.2828 124.189L48.046 122.669L41.8712 103.323L37.108 104.844L32.3447 106.364L38.5195 125.71L43.2828 124.189ZM37.108 104.844L41.8713 103.323C42.0426 103.86 42.0425 104.437 41.8714 104.973L37.108 103.453L32.3446 101.933C31.8849 103.374 31.8847 104.923 32.3447 106.364L37.108 104.844ZM37.108 103.453L41.8713 104.973L48.0461 85.6266L43.2828 84.1063L38.5195 82.586L32.3447 101.933L37.108 103.453ZM43.2828 84.1063L48.0458 85.6275C47.2422 88.1436 43.6803 88.1459 42.8761 85.6271L47.6392 84.1063L52.4024 82.5856C50.2436 75.8241 40.6783 75.8266 38.5198 82.5852L43.2828 84.1063ZM47.6392 84.1063L42.8758 85.6261L44.409 90.4317L49.1724 88.912L53.9359 87.3923L52.4027 82.5866L47.6392 84.1063ZM49.1724 88.912L53.058 92.0588L53.2826 91.7814L49.397 88.6346L45.5115 85.4879L45.2869 85.7652L49.1724 88.912ZM49.397 88.6346L53.2891 91.7734C52.2027 93.1206 50.1506 93.1199 49.0648 91.7737L52.9566 88.6346L56.8484 85.4956C53.9321 81.8799 48.4218 81.8791 45.505 85.4959L49.397 88.6346ZM52.9566 88.6346L49.0646 91.7734L52.8165 96.4258L56.7086 93.287L60.6006 90.1482L56.8487 85.4958L52.9566 88.6346ZM56.7086 93.287V98.287H59.5885V93.287V88.287H56.7086V93.287ZM59.5885 93.287L62.8225 97.1002L65.2337 95.0553L61.9996 91.2421L58.7655 87.4288L56.3544 89.4737L59.5885 93.287ZM61.9996 91.2421H66.9996V23.1151H61.9996H56.9996V91.2421H61.9996ZM61.9996 23.1151L66.9911 23.4062L67.2792 18.4657L62.2877 18.1747L57.2962 17.8836L57.0081 22.824L61.9996 23.1151ZM62.2877 18.1747L66.9882 19.8791L67.3026 19.012L62.6021 17.3075L57.9016 15.603L57.5872 16.4702L62.2877 18.1747ZM62.6021 17.3075L67.6012 17.2095C67.6124 17.7828 67.4393 18.3733 67.0717 18.8721L63.0465 15.9061L59.0212 12.9401C58.0406 14.2709 57.5726 15.8493 57.6031 17.4054L62.6021 17.3075ZM63.0465 15.9061L67.0717 18.8722L78.2319 3.72666L74.2066 0.760613L70.1814 -2.20544L59.0212 12.9401L63.0465 15.9061Z" fill="#471E1E" mask="url(#path-1-inside-1_1205_468)"/>
<path d="M77.6686 13.8284C76.7636 12.4708 74.7687 12.4708 73.8636 13.8284L70.8954 18.2807C70.3833 19.0488 70.3833 20.0494 70.8954 20.8174L73.8636 25.2698C74.7687 26.6274 76.7636 26.6274 77.6686 25.2698L80.6369 20.8174C81.1489 20.0494 81.1489 19.0488 80.6369 18.2807L77.6686 13.8284Z" fill="#7D3131"/>
<path d="M77.6168 95.6168C76.7239 94.7239 75.2761 94.7239 74.3832 95.6168L68.6168 101.383C67.7239 102.276 67.7239 103.724 68.6168 104.617L74.3832 110.383C75.2761 111.276 76.7239 111.276 77.6168 110.383L83.3832 104.617C84.2761 103.724 84.2761 102.276 83.3832 101.383L77.6168 95.6168Z" fill="#7D3131"/>
<path d="M52.709 100.433C52.2564 99.7539 51.259 99.7539 50.8065 100.433L48.7507 103.516C48.4947 103.9 48.4947 104.401 48.7507 104.785L50.8065 107.868C51.259 108.547 52.2564 108.547 52.709 107.868L54.7647 104.785C55.0207 104.401 55.0207 103.9 54.7647 103.516L52.709 100.433Z" fill="#7D3131"/>
<path d="M103.012 100.433C102.56 99.7539 101.562 99.7539 101.11 100.433L99.0542 103.516C98.7982 103.9 98.7982 104.401 99.0542 104.785L101.11 107.868C101.562 108.547 102.56 108.547 103.012 107.868L105.068 104.785C105.324 104.401 105.324 103.9 105.068 103.516L103.012 100.433Z" fill="#7D3131"/>
<rect x="51.5681" y="101.292" width="50.3035" height="5.7163" fill="#7D3131"/>
<path d="M70 25.2821L70.1235 21.6009L70.4962 19.8178L71.1266 18.5551L72.0414 17.685L73.3332 17.1705L76 17L78.6668 17.1705L79.9586 17.685L80.8734 18.5551L81.5038 19.8178L81.8765 21.6009L82 25.2821V84.7179L81.8765 88.3991L81.5038 90.1822L80.8734 91.4449L79.9586 92.315L78.6668 92.8295L76 93L73.3332 92.8295L72.0414 92.315L71.1266 91.4449L70.4962 90.1822L70.1235 88.3991L70 84.7179V25.2821Z" fill="#7D3131"/>
<path d="M73 27.6282L73.0618 24.2377L73.2481 22.5954L73.5633 21.4323L74.0207 20.6309L74.6666 20.1571L76 20L77.3334 20.1571L77.9793 20.6309L78.4367 21.4323L78.7519 22.5954L78.9382 24.2377L79 27.6282V82.3718L78.9382 85.7623L78.7519 87.4046L78.4367 88.5677L77.9793 89.3691L77.3334 89.8429L76 90L74.6666 89.8429L74.0207 89.3691L73.5633 88.5677L73.2481 87.4046L73.0618 85.7623L73 82.3718V27.6282Z" fill="#B24646"/>
<path d="M77.0705 17.8546C76.6996 16.8655 75.3004 16.8655 74.9295 17.8546L73.1505 22.5986C73.0535 22.8574 73.0535 23.1426 73.1505 23.4014L74.9295 28.1454C75.3004 29.1345 76.6996 29.1345 77.0705 28.1454L78.8495 23.4014C78.9465 23.1426 78.9465 22.8574 78.8495 22.5986L77.0705 17.8546Z" fill="#B24646"/>
<path d="M77.6168 98.6168C76.7239 97.7239 75.2761 97.7239 74.3832 98.6168L71.6168 101.383C70.7239 102.276 70.7239 103.724 71.6168 104.617L74.3832 107.383C75.2761 108.276 76.7239 108.276 77.6168 107.383L80.3832 104.617C81.2761 103.724 81.2761 102.276 80.3832 101.383L77.6168 98.6168Z" fill="#B24646"/>
</g>
<defs>
<clipPath id="clip0_1205_468">
<rect width="150" height="150" fill="white"/>
</clipPath>
</defs>
</svg>
