<svg width="350" height="350" viewBox="0 0 350 350" fill="none" xmlns="http://www.w3.org/2000/svg">
<path d="M176 85.2769C180.142 85.2769 183.5 88.6347 183.5 92.7769V339.777C183.5 343.919 180.142 347.277 176 347.277C171.858 347.277 168.5 343.919 168.5 339.777V92.7769C168.5 88.6347 171.858 85.2769 176 85.2769Z" fill="#464A4A" stroke="#2B3333" stroke-width="5"/>
<mask id="path-2-inside-1_1236_18" fill="white">
<path d="M174.585 115.191C175.366 114.41 176.632 114.411 177.413 115.191L188.585 126.363C189.366 127.144 189.366 128.41 188.585 129.191L177.413 140.363C176.632 141.144 175.366 141.144 174.585 140.363L163.413 129.191C162.633 128.41 162.633 127.144 163.413 126.363L174.585 115.191ZM172.933 27.4833C173.511 24.1789 178.25 24.1695 178.841 27.4716L188.848 83.4189C188.947 83.9749 188.888 84.5475 188.676 85.0712L186.592 90.2235L192.584 96.2157C192.975 96.6063 192.975 97.2393 192.584 97.6298L190.35 99.8632L197.928 113.825C199.353 116.45 196.485 119.318 193.86 117.893L179.899 110.314L176.853 113.361C176.462 113.752 175.829 113.752 175.439 113.361L172.054 109.976L157.474 117.893C154.849 119.318 151.98 116.45 153.405 113.825L161.32 99.2431L159.707 97.6298C159.317 97.2393 159.317 96.6063 159.707 96.2157L165.452 90.4696L163.312 85.0566C163.108 84.5421 163.051 83.9814 163.147 83.4364L172.933 27.4833ZM148.403 59.5126C148.934 56.1401 153.787 56.1322 154.329 59.5028L158.794 87.2607C158.875 87.765 158.826 88.2815 158.652 88.7616L154.185 101.044C153.223 103.687 149.481 103.673 148.539 101.023L144.174 88.748C144.006 88.2766 143.959 87.7705 144.036 87.2763L148.403 59.5126ZM196.403 59.5126C196.934 56.1401 201.787 56.1322 202.329 59.5028L206.794 87.2607C206.875 87.765 206.826 88.2815 206.652 88.7616L202.185 101.044C201.223 103.687 197.481 103.673 196.539 101.023L192.174 88.748C192.006 88.2766 191.959 87.7705 192.036 87.2763L196.403 59.5126Z"/>
</mask>
<path d="M174.585 115.191C175.366 114.41 176.632 114.411 177.413 115.191L188.585 126.363C189.366 127.144 189.366 128.41 188.585 129.191L177.413 140.363C176.632 141.144 175.366 141.144 174.585 140.363L163.413 129.191C162.633 128.41 162.633 127.144 163.413 126.363L174.585 115.191ZM172.933 27.4833C173.511 24.1789 178.25 24.1695 178.841 27.4716L188.848 83.4189C188.947 83.9749 188.888 84.5475 188.676 85.0712L186.592 90.2235L192.584 96.2157C192.975 96.6063 192.975 97.2393 192.584 97.6298L190.35 99.8632L197.928 113.825C199.353 116.45 196.485 119.318 193.86 117.893L179.899 110.314L176.853 113.361C176.462 113.752 175.829 113.752 175.439 113.361L172.054 109.976L157.474 117.893C154.849 119.318 151.98 116.45 153.405 113.825L161.32 99.2431L159.707 97.6298C159.317 97.2393 159.317 96.6063 159.707 96.2157L165.452 90.4696L163.312 85.0566C163.108 84.5421 163.051 83.9814 163.147 83.4364L172.933 27.4833ZM148.403 59.5126C148.934 56.1401 153.787 56.1322 154.329 59.5028L158.794 87.2607C158.875 87.765 158.826 88.2815 158.652 88.7616L154.185 101.044C153.223 103.687 149.481 103.673 148.539 101.023L144.174 88.748C144.006 88.2766 143.959 87.7705 144.036 87.2763L148.403 59.5126ZM196.403 59.5126C196.934 56.1401 201.787 56.1322 202.329 59.5028L206.794 87.2607C206.875 87.765 206.826 88.2815 206.652 88.7616L202.185 101.044C201.223 103.687 197.481 103.673 196.539 101.023L192.174 88.748C192.006 88.2766 191.959 87.7705 192.036 87.2763L196.403 59.5126Z" fill="#632727"/>
<path d="M174.585 115.191L171.05 111.656L171.05 111.656L174.585 115.191ZM177.413 115.191L180.949 111.656L180.948 111.655L177.413 115.191ZM188.585 126.363L192.121 122.828L192.121 122.828L188.585 126.363ZM188.585 129.191L192.121 132.727L192.121 132.727L188.585 129.191ZM177.413 140.363L180.948 143.899L180.949 143.899L177.413 140.363ZM174.585 140.363L171.05 143.899L171.05 143.899L174.585 140.363ZM163.413 129.191L159.877 132.726L159.878 132.727L163.413 129.191ZM163.413 126.363L159.878 122.828L159.877 122.828L163.413 126.363ZM172.933 27.4833L168.008 26.6218L168.008 26.6219L172.933 27.4833ZM178.841 27.4716L183.763 26.5913L183.763 26.5912L178.841 27.4716ZM188.848 83.4189L193.77 82.5389L193.77 82.5385L188.848 83.4189ZM188.676 85.0712L193.311 86.946L193.311 86.9455L188.676 85.0712ZM186.592 90.2235L181.957 88.3487L180.715 91.418L183.056 93.7591L186.592 90.2235ZM192.584 96.2157L196.12 92.6803L196.12 92.6802L192.584 96.2157ZM192.584 97.6298L196.119 101.166L196.12 101.165L192.584 97.6298ZM190.35 99.8632L186.815 96.3269L184.174 98.9666L185.955 102.248L190.35 99.8632ZM197.928 113.825L193.533 116.21L193.534 116.211L197.928 113.825ZM193.86 117.893L191.475 122.288L191.475 122.288L193.86 117.893ZM179.899 110.314L182.284 105.92L179.002 104.139L176.362 106.779L179.899 110.314ZM176.853 113.361L180.388 116.897L180.389 116.896L176.853 113.361ZM175.439 113.361L171.903 116.897L171.903 116.897L175.439 113.361ZM172.054 109.976L175.589 106.441L172.949 103.801L169.668 105.582L172.054 109.976ZM157.474 117.893L159.859 122.288L159.86 122.287L157.474 117.893ZM153.405 113.825L157.8 116.211L157.8 116.21L153.405 113.825ZM161.32 99.2431L165.715 101.628L167.496 98.3473L164.856 95.7075L161.32 99.2431ZM159.707 97.6298L156.172 101.165L159.707 97.6298ZM159.707 96.2157L163.243 99.7511L163.243 99.751L159.707 96.2157ZM165.452 90.4696L168.988 94.0049L171.309 91.6835L170.102 88.6309L165.452 90.4696ZM163.312 85.0566L158.662 86.8952L158.662 86.8953L163.312 85.0566ZM163.147 83.4364L168.072 84.2979L168.072 84.2979L163.147 83.4364ZM148.403 59.5126L143.464 58.7356L143.464 58.7357L148.403 59.5126ZM154.329 59.5028L159.266 58.7088L159.266 58.7088L154.329 59.5028ZM158.794 87.2607L163.731 86.4671L163.731 86.4666L158.794 87.2607ZM158.652 88.7616L163.35 90.4705L163.351 90.4701L158.652 88.7616ZM154.185 101.044L158.884 102.753L158.884 102.753L154.185 101.044ZM148.539 101.023L143.828 102.699L143.828 102.699L148.539 101.023ZM144.174 88.748L148.885 87.0727L148.885 87.0726L144.174 88.748ZM144.036 87.2763L139.097 86.4993V86.4993L144.036 87.2763ZM196.403 59.5126L191.464 58.7356L191.464 58.7357L196.403 59.5126ZM202.329 59.5028L207.266 58.7088L207.266 58.7088L202.329 59.5028ZM206.794 87.2607L211.731 86.4671L211.731 86.4666L206.794 87.2607ZM206.652 88.7616L211.35 90.4705L211.351 90.4701L206.652 88.7616ZM202.185 101.044L206.884 102.753L206.884 102.753L202.185 101.044ZM196.539 101.023L191.828 102.699L191.828 102.699L196.539 101.023ZM192.174 88.748L196.885 87.0727L196.885 87.0726L192.174 88.748ZM192.036 87.2763L187.097 86.4993V86.4993L192.036 87.2763ZM174.585 115.191L178.121 118.727C176.948 119.899 175.049 119.898 173.878 118.728L177.413 115.191L180.948 111.655C178.215 108.923 173.784 108.922 171.05 111.656L174.585 115.191ZM177.413 115.191L173.878 118.727L185.05 129.899L188.585 126.363L192.121 122.828L180.949 111.656L177.413 115.191ZM188.585 126.363L185.05 129.899C183.878 128.727 183.878 126.827 185.049 125.656L188.585 129.191L192.121 132.727C194.854 129.993 194.854 125.561 192.121 122.828L188.585 126.363ZM188.585 129.191L185.05 125.656L173.878 136.828L177.413 140.363L180.949 143.899L192.121 132.727L188.585 129.191ZM177.413 140.363L173.878 136.827C175.049 135.657 176.948 135.655 178.121 136.828L174.585 140.363L171.05 143.899C173.784 146.633 178.215 146.631 180.948 143.899L177.413 140.363ZM174.585 140.363L178.121 136.828L166.949 125.656L163.413 129.191L159.878 132.727L171.05 143.899L174.585 140.363ZM163.413 129.191L166.949 125.656C168.12 126.828 168.12 128.727 166.949 129.898L163.413 126.363L159.877 122.828C157.145 125.562 157.145 129.993 159.877 132.726L163.413 129.191ZM163.413 126.363L166.949 129.899L178.121 118.727L174.585 115.191L171.05 111.656L159.878 122.828L163.413 126.363ZM172.933 27.4833L177.858 28.3448C177.79 28.7308 177.539 29.2192 177.077 29.5771C176.667 29.8945 176.237 29.9993 175.892 30C175.547 30.0007 175.117 29.8975 174.705 29.5816C174.241 29.2254 173.988 28.7378 173.919 28.352L178.841 27.4716L183.763 26.5912C182.187 17.7829 169.548 17.8128 168.008 26.6218L172.933 27.4833ZM178.841 27.4716L173.919 28.3519L183.926 84.2992L188.848 83.4189L193.77 82.5385L183.763 26.5913L178.841 27.4716ZM188.848 83.4189L183.926 84.2988C183.86 83.9283 183.899 83.5462 184.041 83.1969L188.676 85.0712L193.311 86.9455C193.876 85.5488 194.035 84.0215 193.77 82.5389L188.848 83.4189ZM188.676 85.0712L184.041 83.1964L181.957 88.3487L186.592 90.2235L191.227 92.0984L193.311 86.946L188.676 85.0712ZM186.592 90.2235L183.056 93.7591L189.049 99.7513L192.584 96.2157L196.12 92.6802L190.127 86.688L186.592 90.2235ZM192.584 96.2157L189.049 99.7512C187.487 98.1892 187.486 95.6564 189.049 94.0943L192.584 97.6298L196.12 101.165C198.463 98.8221 198.463 95.0233 196.12 92.6803L192.584 96.2157ZM192.584 97.6298L189.049 94.0935L186.815 96.3269L190.35 99.8632L193.885 103.399L196.119 101.166L192.584 97.6298ZM190.35 99.8632L185.955 102.248L193.533 116.21L197.928 113.825L202.322 111.44L194.744 97.478L190.35 99.8632ZM197.928 113.825L193.534 116.211C192.585 114.462 194.494 112.548 196.246 113.499L193.86 117.893L191.475 122.288C198.477 126.088 206.121 118.437 202.322 111.44L197.928 113.825ZM193.86 117.893L196.246 113.499L182.284 105.92L179.899 110.314L177.513 114.709L191.475 122.288L193.86 117.893ZM179.899 110.314L176.362 106.779L173.317 109.826L176.853 113.361L180.389 116.896L183.435 113.849L179.899 110.314ZM176.853 113.361L173.317 109.826C174.879 108.264 177.412 108.264 178.974 109.826L175.439 113.361L171.903 116.897C174.246 119.24 178.045 119.24 180.388 116.897L176.853 113.361ZM175.439 113.361L178.974 109.826L175.589 106.441L172.054 109.976L168.518 113.512L171.903 116.897L175.439 113.361ZM172.054 109.976L169.668 105.582L155.088 113.499L157.474 117.893L159.86 122.287L174.44 114.37L172.054 109.976ZM157.474 117.893L155.088 113.499C156.838 112.549 158.75 114.461 157.8 116.211L153.405 113.825L149.011 111.44C145.211 118.439 152.86 126.088 159.859 122.288L157.474 117.893ZM153.405 113.825L157.8 116.21L165.715 101.628L161.32 99.2431L156.926 96.8578L149.011 111.44L153.405 113.825ZM161.32 99.2431L164.856 95.7075L163.243 94.0943L159.707 97.6298L156.172 101.165L157.785 102.779L161.32 99.2431ZM159.707 97.6298L163.243 94.0943C164.805 95.6566 164.805 98.1892 163.243 99.7511L159.707 96.2157L156.171 92.6804C153.829 95.0233 153.828 98.822 156.172 101.165L159.707 97.6298ZM159.707 96.2157L163.243 99.751L168.988 94.0049L165.452 90.4696L161.916 86.9344L156.171 92.6805L159.707 96.2157ZM165.452 90.4696L170.102 88.6309L167.961 83.2178L163.312 85.0566L158.662 86.8953L160.803 92.3084L165.452 90.4696ZM163.312 85.0566L167.961 83.2179C168.098 83.5627 168.135 83.9365 168.072 84.2979L163.147 83.4364L158.221 82.575C157.968 84.0262 158.119 85.5215 158.662 86.8952L163.312 85.0566ZM163.147 83.4364L168.072 84.2979L177.858 28.3447L172.933 27.4833L168.008 26.6219L158.221 82.575L163.147 83.4364ZM148.403 59.5126L153.343 60.2896C153.282 60.6758 153.035 61.1778 152.564 61.5474C152.149 61.8735 151.714 61.9785 151.37 61.979C151.027 61.9796 150.592 61.8761 150.175 61.5515C149.703 61.1837 149.455 60.6829 149.393 60.2969L154.329 59.5028L159.266 58.7088C157.821 49.7242 144.88 49.7384 143.464 58.7356L148.403 59.5126ZM154.329 59.5028L149.393 60.2969L153.858 88.0547L158.794 87.2607L163.731 86.4666L159.266 58.7088L154.329 59.5028ZM158.794 87.2607L153.857 88.0542C153.803 87.7175 153.836 87.3729 153.952 87.0532L158.652 88.7616L163.351 90.4701C163.816 89.1902 163.947 87.8125 163.731 86.4671L158.794 87.2607ZM158.652 88.7616L153.953 87.0527L149.486 99.335L154.185 101.044L158.884 102.753L163.35 90.4705L158.652 88.7616ZM154.185 101.044L149.486 99.3348C150.127 97.5719 152.622 97.5826 153.25 99.348L148.539 101.023L143.828 102.699C146.341 109.763 156.32 109.801 158.884 102.753L154.185 101.044ZM148.539 101.023L153.25 99.3481L148.885 87.0727L144.174 88.748L139.463 90.4232L143.828 102.699L148.539 101.023ZM144.174 88.748L148.885 87.0726C148.995 87.3824 149.028 87.7191 148.976 88.0532L144.036 87.2763L139.097 86.4993C138.889 87.8219 139.018 89.1708 139.463 90.4233L144.174 88.748ZM144.036 87.2763L148.976 88.0532L153.343 60.2895L148.403 59.5126L143.464 58.7357L139.097 86.4993L144.036 87.2763ZM196.403 59.5126L201.343 60.2896C201.282 60.6758 201.035 61.1778 200.564 61.5474C200.149 61.8735 199.714 61.9785 199.37 61.979C199.027 61.9796 198.592 61.8761 198.175 61.5515C197.703 61.1837 197.455 60.6829 197.393 60.2969L202.329 59.5028L207.266 58.7088C205.821 49.7242 192.879 49.7384 191.464 58.7356L196.403 59.5126ZM202.329 59.5028L197.393 60.2969L201.858 88.0547L206.794 87.2607L211.731 86.4666L207.266 58.7088L202.329 59.5028ZM206.794 87.2607L201.857 88.0542C201.803 87.7175 201.836 87.3729 201.952 87.0532L206.652 88.7616L211.351 90.4701C211.816 89.1902 211.947 87.8125 211.731 86.4671L206.794 87.2607ZM206.652 88.7616L201.953 87.0527L197.486 99.335L202.185 101.044L206.884 102.753L211.35 90.4705L206.652 88.7616ZM202.185 101.044L197.486 99.3348C198.127 97.5719 200.622 97.5826 201.25 99.348L196.539 101.023L191.828 102.699C194.341 109.763 204.32 109.801 206.884 102.753L202.185 101.044ZM196.539 101.023L201.25 99.3481L196.885 87.0727L192.174 88.748L187.463 90.4232L191.828 102.699L196.539 101.023ZM192.174 88.748L196.885 87.0726C196.995 87.3824 197.028 87.7191 196.976 88.0532L192.036 87.2763L187.097 86.4993C186.889 87.8219 187.018 89.1708 187.463 90.4233L192.174 88.748ZM192.036 87.2763L196.976 88.0532L201.343 60.2895L196.403 59.5126L191.464 58.7357L187.097 86.4993L192.036 87.2763Z" fill="#471E1E" mask="url(#path-2-inside-1_1236_18)"/>
<path d="M171.707 128.707C171.317 128.317 171.317 127.683 171.707 127.293L175.293 123.707C175.683 123.317 176.317 123.317 176.707 123.707L180.293 127.293C180.683 127.683 180.683 128.317 180.293 128.707L176.707 132.293C176.317 132.683 175.683 132.683 175.293 132.293L171.707 128.707Z" fill="#7D3131"/>
<path d="M174.965 58.5325C175.182 57.4678 176.702 57.4644 176.924 58.5282L181.933 82.5694C181.977 82.7819 181.951 83.0031 181.858 83.1995L176.849 93.8348C176.487 94.6036 175.391 94.5989 175.036 93.827L170.138 83.1941C170.049 83.001 170.024 82.7845 170.066 82.5761L174.965 58.5325Z" fill="#7D3131"/>
<rect x="169" y="97.0303" width="10.2574" height="10.2574" rx="1" transform="rotate(-45 169 97.0303)" fill="#7D3131"/>
<rect x="172" y="97.0195" width="6" height="6" rx="1" transform="rotate(-45 172 97.0195)" fill="#B24646"/>
<path d="M174.994 69.8241C175.237 68.8018 176.691 68.7981 176.939 69.8192L179.909 82.0394C179.968 82.2822 179.934 82.5383 179.814 82.7573L176.842 88.1643C176.461 88.8591 175.461 88.8545 175.085 88.156L172.181 82.7517C172.065 82.536 172.032 82.2853 172.089 82.0471L174.994 69.8241Z" fill="#B24646"/>
</svg>
