<svg width="150" height="150" viewBox="0 0 150 150" fill="none" xmlns="http://www.w3.org/2000/svg">
<mask id="path-1-inside-1_1239_707" fill="white">
<path d="M79.4297 15.2246L81.584 15.9014L83.1084 17.0479L84.1602 18.7119L84.7803 21.0615L84.9863 25.9092V139.091L84.7803 143.938L84.1602 146.288L83.1084 147.952L81.584 149.099L79.4297 149.775L74.9863 150L70.542 149.775L68.3887 149.099L66.8633 147.952L65.8125 146.288L65.1924 143.938L64.9863 139.091V25.9092L65.1924 21.0615L65.8125 18.7119L66.8633 17.0479L68.3887 15.9014L70.542 15.2246L74.9863 15L79.4297 15.2246Z"/>
</mask>
<path d="M79.4297 15.2246L81.584 15.9014L83.1084 17.0479L84.1602 18.7119L84.7803 21.0615L84.9863 25.9092V139.091L84.7803 143.938L84.1602 146.288L83.1084 147.952L81.584 149.099L79.4297 149.775L74.9863 150L70.542 149.775L68.3887 149.099L66.8633 147.952L65.8125 146.288L65.1924 143.938L64.9863 139.091V25.9092L65.1924 21.0615L65.8125 18.7119L66.8633 17.0479L68.3887 15.9014L70.542 15.2246L74.9863 15L79.4297 15.2246Z" fill="#464A4A"/>
<path d="M79.4297 15.2246L80.9282 10.4544L80.3194 10.2632L79.6821 10.231L79.4297 15.2246ZM81.584 15.9014L84.5893 11.9054L83.9024 11.3888L83.0825 11.1312L81.584 15.9014ZM83.1084 17.0479L87.335 14.3765L86.8457 13.6023L86.1137 13.0518L83.1084 17.0479ZM84.1602 18.7119L88.9946 17.436L88.7981 16.6915L88.3867 16.0405L84.1602 18.7119ZM84.7803 21.0615L89.7758 20.8492L89.7528 20.3087L89.6147 19.7856L84.7803 21.0615ZM84.9863 25.9092H89.9863V25.803L89.9818 25.6968L84.9863 25.9092ZM84.9863 139.091L89.9818 139.303L89.9863 139.197V139.091H84.9863ZM84.7803 143.938L89.6147 145.214L89.7528 144.691L89.7758 144.151L84.7803 143.938ZM84.1602 146.288L88.3867 148.959L88.7981 148.309L88.9946 147.564L84.1602 146.288ZM83.1084 147.952L86.1137 151.948L86.8457 151.398L87.335 150.624L83.1084 147.952ZM81.584 149.099L83.0825 153.869L83.9024 153.611L84.5893 153.095L81.584 149.099ZM79.4297 149.775L79.6821 154.769L80.3194 154.737L80.9282 154.546L79.4297 149.775ZM74.9863 150L74.734 154.994L74.9864 155.006L75.2388 154.994L74.9863 150ZM70.542 149.775L69.0429 154.545L69.652 154.737L70.2896 154.769L70.542 149.775ZM68.3887 149.099L65.3846 153.096L66.0707 153.611L66.8895 153.869L68.3887 149.099ZM66.8633 147.952L62.6356 150.622L63.1256 151.398L63.8592 151.949L66.8633 147.952ZM65.8125 146.288L60.978 147.564L61.1743 148.308L61.5848 148.958L65.8125 146.288ZM65.1924 143.938L60.1969 144.151L60.2199 144.691L60.3579 145.214L65.1924 143.938ZM64.9863 139.091H59.9863V139.197L59.9908 139.303L64.9863 139.091ZM64.9863 25.9092L59.9908 25.6968L59.9863 25.803V25.9092H64.9863ZM65.1924 21.0615L60.3579 19.7856L60.2199 20.3087L60.1969 20.8492L65.1924 21.0615ZM65.8125 18.7119L61.5848 16.0423L61.1743 16.6925L60.978 17.436L65.8125 18.7119ZM66.8633 17.0479L63.8592 13.0509L63.1256 13.6023L62.6356 14.3783L66.8633 17.0479ZM68.3887 15.9014L66.8895 11.1314L66.0707 11.3887L65.3846 11.9044L68.3887 15.9014ZM70.542 15.2246L70.2896 10.231L69.652 10.2632L69.0429 10.4546L70.542 15.2246ZM74.9863 15L75.2388 10.0064L74.9864 9.99362L74.734 10.0064L74.9863 15ZM79.4297 15.2246L77.9312 19.9948L80.0855 20.6715L81.584 15.9014L83.0825 11.1312L80.9282 10.4544L79.4297 15.2246ZM81.584 15.9014L78.5787 19.8974L80.1031 21.0439L83.1084 17.0479L86.1137 13.0518L84.5893 11.9054L81.584 15.9014ZM83.1084 17.0479L78.8818 19.7192L79.9336 21.3833L84.1602 18.7119L88.3867 16.0405L87.335 14.3765L83.1084 17.0479ZM84.1602 18.7119L79.3257 19.9878L79.9458 22.3375L84.7803 21.0615L89.6147 19.7856L88.9946 17.436L84.1602 18.7119ZM84.7803 21.0615L79.7848 21.2739L79.9908 26.1215L84.9863 25.9092L89.9818 25.6968L89.7758 20.8492L84.7803 21.0615ZM84.9863 25.9092H79.9863V139.091H84.9863H89.9863V25.9092H84.9863ZM84.9863 139.091L79.9908 138.878L79.7848 143.726L84.7803 143.938L89.7758 144.151L89.9818 139.303L84.9863 139.091ZM84.7803 143.938L79.9458 142.663L79.3257 145.012L84.1602 146.288L88.9946 147.564L89.6147 145.214L84.7803 143.938ZM84.1602 146.288L79.9336 143.617L78.8818 145.281L83.1084 147.952L87.335 150.624L88.3867 148.959L84.1602 146.288ZM83.1084 147.952L80.1031 143.956L78.5787 145.103L81.584 149.099L84.5893 153.095L86.1137 151.948L83.1084 147.952ZM81.584 149.099L80.0855 144.328L77.9312 145.005L79.4297 149.775L80.9282 154.546L83.0825 153.869L81.584 149.099ZM79.4297 149.775L79.1773 144.782L74.7339 145.006L74.9863 150L75.2388 154.994L79.6821 154.769L79.4297 149.775ZM74.9863 150L75.2387 145.006L70.7944 144.782L70.542 149.775L70.2896 154.769L74.734 154.994L74.9863 150ZM70.542 149.775L72.0411 145.005L69.8878 144.329L68.3887 149.099L66.8895 153.869L69.0429 154.545L70.542 149.775ZM68.3887 149.099L71.3928 145.102L69.8674 143.955L66.8633 147.952L63.8592 151.949L65.3846 153.096L68.3887 149.099ZM66.8633 147.952L71.091 145.283L70.0402 143.618L65.8125 146.288L61.5848 148.958L62.6356 150.622L66.8633 147.952ZM65.8125 146.288L70.647 145.012L70.0268 142.663L65.1924 143.938L60.3579 145.214L60.978 147.564L65.8125 146.288ZM65.1924 143.938L70.1879 143.726L69.9818 138.878L64.9863 139.091L59.9908 139.303L60.1969 144.151L65.1924 143.938ZM64.9863 139.091H69.9863V25.9092H64.9863H59.9863V139.091H64.9863ZM64.9863 25.9092L69.9818 26.1215L70.1879 21.2739L65.1924 21.0615L60.1969 20.8492L59.9908 25.6968L64.9863 25.9092ZM65.1924 21.0615L70.0268 22.3375L70.647 19.9878L65.8125 18.7119L60.978 17.436L60.3579 19.7856L65.1924 21.0615ZM65.8125 18.7119L70.0402 21.3815L71.091 19.7174L66.8633 17.0479L62.6356 14.3783L61.5848 16.0423L65.8125 18.7119ZM66.8633 17.0479L69.8674 21.0448L71.3928 19.8983L68.3887 15.9014L65.3846 11.9044L63.8592 13.0509L66.8633 17.0479ZM68.3887 15.9014L69.8878 20.6713L72.0411 19.9946L70.542 15.2246L69.0429 10.4546L66.8895 11.1314L68.3887 15.9014ZM70.542 15.2246L70.7944 20.2182L75.2387 19.9936L74.9863 15L74.734 10.0064L70.2896 10.231L70.542 15.2246ZM74.9863 15L74.7339 19.9936L79.1773 20.2182L79.4297 15.2246L79.6821 10.231L75.2388 10.0064L74.9863 15Z" fill="#2B3333" mask="url(#path-1-inside-1_1239_707)"/>
<mask id="path-3-inside-2_1239_707" fill="white">
<path d="M103.168 23H110.121C112.33 23 114.121 24.7909 114.121 27V30.4072C114.158 30.4444 114.193 30.483 114.228 30.5225L126.215 44.0068C127.225 45.1435 127.225 46.8565 126.215 47.9932L114.228 61.4775C114.194 61.5169 114.158 61.5548 114.121 61.5918V65C114.121 67.2091 112.33 69 110.121 69H83.875L83.6259 69.2793L92.9863 75L74.9863 86L56.9863 75L66.3457 69.2793L66.0976 69H39.8066C37.5975 69 35.8066 67.2091 35.8066 65V61.5439C35.7858 61.5219 35.7644 61.5003 35.7441 61.4775L23.7578 47.9932C22.7474 46.8565 22.7474 45.1435 23.7578 44.0068L35.7441 30.5225C35.7645 30.4995 35.7856 30.4773 35.8066 30.4551V27C35.8066 24.7909 37.5975 23 39.8066 23H46.8046L54.9863 14L63.1679 23H86.8046L94.9863 14L103.168 23Z"/>
</mask>
<path d="M103.168 23H110.121C112.33 23 114.121 24.7909 114.121 27V30.4072C114.158 30.4444 114.193 30.483 114.228 30.5225L126.215 44.0068C127.225 45.1435 127.225 46.8565 126.215 47.9932L114.228 61.4775C114.194 61.5169 114.158 61.5548 114.121 61.5918V65C114.121 67.2091 112.33 69 110.121 69H83.875L83.6259 69.2793L92.9863 75L74.9863 86L56.9863 75L66.3457 69.2793L66.0976 69H39.8066C37.5975 69 35.8066 67.2091 35.8066 65V61.5439C35.7858 61.5219 35.7644 61.5003 35.7441 61.4775L23.7578 47.9932C22.7474 46.8565 22.7474 45.1435 23.7578 44.0068L35.7441 30.5225C35.7645 30.4995 35.7856 30.4773 35.8066 30.4551V27C35.8066 24.7909 37.5975 23 39.8066 23H46.8046L54.9863 14L63.1679 23H86.8046L94.9863 14L103.168 23Z" fill="#632727"/>
<path d="M103.168 23L99.4682 26.3633L100.956 28H103.168V23ZM110.121 23V18V18V23ZM114.121 27H119.121H114.121ZM114.121 30.4072H109.121V32.4567L110.56 33.9166L114.121 30.4072ZM114.228 30.5225L110.491 33.8443L110.491 33.8443L114.228 30.5225ZM126.215 44.0068L129.952 40.6851L129.952 40.685L126.215 44.0068ZM126.215 47.9932L129.952 51.315L129.952 51.3149L126.215 47.9932ZM114.228 61.4775L110.491 58.1557L110.491 58.1557L114.228 61.4775ZM114.121 61.5918L110.559 58.0833L109.121 59.543V61.5918H114.121ZM110.121 69V74H110.121L110.121 69ZM83.875 69V64H81.6342L80.143 65.6725L83.875 69ZM83.6259 69.2793L79.8939 65.9518L75.908 70.4223L81.0185 73.5456L83.6259 69.2793ZM92.9863 75L95.5935 79.2664L102.575 75.0002L95.5937 70.7337L92.9863 75ZM74.9863 86L72.379 90.2664L74.9863 91.8597L77.5935 90.2664L74.9863 86ZM56.9863 75L54.3787 70.7338L47.3983 75.0004L54.379 79.2664L56.9863 75ZM66.3457 69.2793L68.9533 73.5455L74.0532 70.4282L70.0842 65.9591L66.3457 69.2793ZM66.0976 69L69.8361 65.6798L68.3442 64H66.0976V69ZM35.8066 65H30.8066H35.8066ZM35.8066 61.5439H40.8066V59.5575L39.4434 58.1126L35.8066 61.5439ZM35.7441 61.4775L32.0071 64.7994L32.0072 64.7995L35.7441 61.4775ZM23.7578 47.9932L20.0207 51.315L20.0208 51.315L23.7578 47.9932ZM23.7578 44.0068L20.0208 40.685L20.0207 40.685L23.7578 44.0068ZM35.7441 30.5225L32.0072 27.2005L32.0071 27.2006L35.7441 30.5225ZM35.8066 30.4551L39.4426 33.8872L40.8066 32.4422V30.4551H35.8066ZM46.8046 23V28H49.0165L50.5044 26.3633L46.8046 23ZM54.9863 14L58.686 10.6367L54.9863 6.56688L51.2866 10.6367L54.9863 14ZM63.1679 23L59.4682 26.3633L60.956 28H63.1679V23ZM86.8046 23V28H89.0165L90.5044 26.3633L86.8046 23ZM94.9863 14L98.686 10.6367L94.9863 6.56688L91.2866 10.6367L94.9863 14ZM103.168 23V28H110.121V23V18H103.168V23ZM110.121 23L110.121 28C109.569 28 109.121 27.5523 109.121 27H114.121H119.121C119.121 22.0294 115.092 18 110.121 18V23ZM114.121 27H109.121V30.4072H114.121H119.121V27H114.121ZM114.121 30.4072L110.56 33.9166C110.523 33.8796 110.499 33.8533 110.491 33.8443L114.228 30.5225L117.966 27.2006C117.887 27.1126 117.792 27.0092 117.683 26.8979L114.121 30.4072ZM114.228 30.5225L110.491 33.8443L122.478 47.3287L126.215 44.0068L129.952 40.685L117.965 27.2006L114.228 30.5225ZM126.215 44.0068L122.478 47.3285C121.804 46.5708 121.804 45.4292 122.478 44.6715L126.215 47.9932L129.952 51.3149C132.646 48.2838 132.646 43.7162 129.952 40.6851L126.215 44.0068ZM126.215 47.9932L122.478 44.6713L110.491 58.1557L114.228 61.4775L117.965 64.7994L129.952 51.315L126.215 47.9932ZM114.228 61.4775L110.491 58.1557C110.528 58.1146 110.553 58.0886 110.559 58.0833L114.121 61.5918L117.683 65.1003C117.762 65.0209 117.859 64.9191 117.966 64.7994L114.228 61.4775ZM114.121 61.5918H109.121V65H114.121H119.121V61.5918H114.121ZM114.121 65H109.121C109.121 64.4477 109.569 64 110.121 64L110.121 69L110.121 74C115.092 74 119.121 69.9706 119.121 65H114.121ZM110.121 69V64H83.875V69V74H110.121V69ZM83.875 69L80.143 65.6725L79.8939 65.9518L83.6259 69.2793L87.3579 72.6068L87.607 72.3275L83.875 69ZM83.6259 69.2793L81.0185 73.5456L90.3789 79.2663L92.9863 75L95.5937 70.7337L86.2333 65.013L83.6259 69.2793ZM92.9863 75L90.379 70.7336L72.379 81.7336L74.9863 86L77.5935 90.2664L95.5935 79.2664L92.9863 75ZM74.9863 86L77.5935 81.7336L59.5935 70.7336L56.9863 75L54.379 79.2664L72.379 90.2664L74.9863 86ZM56.9863 75L59.5939 79.2662L68.9533 73.5455L66.3457 69.2793L63.7381 65.0131L54.3787 70.7338L56.9863 75ZM66.3457 69.2793L70.0842 65.9591L69.8361 65.6798L66.0976 69L62.3591 72.3202L62.6072 72.5995L66.3457 69.2793ZM66.0976 69V64H39.8066V69V74H66.0976V69ZM39.8066 69V64C40.3589 64 40.8066 64.4477 40.8066 65H35.8066H30.8066C30.8066 69.9706 34.836 74 39.8066 74V69ZM35.8066 65H40.8066V61.5439H35.8066H30.8066V65H35.8066ZM35.8066 61.5439L39.4434 58.1126C39.4242 58.0923 39.4079 58.0753 39.4004 58.0674C39.3983 58.0653 39.3964 58.0633 39.3951 58.062C39.3936 58.0604 39.3928 58.0596 39.3921 58.0588C39.3906 58.0573 39.3912 58.0579 39.3927 58.0594C39.3954 58.0623 39.4058 58.0732 39.4201 58.0885C39.4346 58.1041 39.4557 58.1271 39.481 58.1556L35.7441 61.4775L32.0072 64.7995C32.0756 64.8765 32.1333 64.9371 32.1576 64.9626C32.1644 64.9697 32.1702 64.9758 32.174 64.9797C32.1822 64.9883 32.1762 64.982 32.1815 64.9875C32.1845 64.9907 32.1786 64.9846 32.1698 64.9753L35.8066 61.5439ZM35.7441 61.4775L39.4811 58.1557L27.4948 44.6713L23.7578 47.9932L20.0208 51.315L32.0071 64.7994L35.7441 61.4775ZM23.7578 47.9932L27.4948 44.6713C28.1684 45.4291 28.1684 46.5709 27.4948 47.3287L23.7578 44.0068L20.0207 40.685C17.3264 43.7161 17.3264 48.2839 20.0207 51.315L23.7578 47.9932ZM23.7578 44.0068L27.4948 47.3287L39.4811 33.8443L35.7441 30.5225L32.0071 27.2006L20.0208 40.685L23.7578 44.0068ZM35.7441 30.5225L39.481 33.8444C39.4551 33.8736 39.436 33.8941 39.4304 33.9001C39.4274 33.9033 39.4261 33.9047 39.4284 33.9022C39.4296 33.901 39.431 33.8995 39.4335 33.8969C39.4356 33.8947 39.4391 33.8909 39.4426 33.8872L35.8066 30.4551L32.1706 27.0229C32.1689 27.0247 32.143 27.0521 32.1199 27.0768C32.0934 27.1052 32.0535 27.1483 32.0072 27.2005L35.7441 30.5225ZM35.8066 30.4551H40.8066V27H35.8066H30.8066V30.4551H35.8066ZM35.8066 27H40.8066C40.8066 27.5523 40.3589 28 39.8066 28V23V18C34.836 18 30.8066 22.0294 30.8066 27H35.8066ZM39.8066 23V28H46.8046V23V18H39.8066V23ZM46.8046 23L50.5044 26.3633L58.686 17.3633L54.9863 14L51.2866 10.6367L43.1049 19.6367L46.8046 23ZM54.9863 14L51.2866 17.3633L59.4682 26.3633L63.1679 23L66.8677 19.6367L58.686 10.6367L54.9863 14ZM63.1679 23V28H86.8046V23V18H63.1679V23ZM86.8046 23L90.5044 26.3633L98.686 17.3633L94.9863 14L91.2866 10.6367L83.1049 19.6367L86.8046 23ZM94.9863 14L91.2866 17.3633L99.4682 26.3633L103.168 23L106.868 19.6367L98.686 10.6367L94.9863 14Z" fill="#471E1E" mask="url(#path-3-inside-2_1239_707)"/>
<rect x="41.9863" y="37" width="65" height="18" fill="#7D3131"/>
<rect x="45.9863" y="42" width="57" height="8" fill="#B24646"/>
<path d="M74.9863 28L92.9863 46L74.9863 64L56.9863 46L74.9863 28Z" fill="#7D3131"/>
<path d="M41.9863 37L50.9863 46L41.9863 55L32.9863 46L41.9863 37Z" fill="#7D3131"/>
<path d="M46.9863 42L50.9863 46L46.9863 50L42.9863 46L46.9863 42Z" fill="#B24646"/>
<path d="M106.986 37L115.986 46L106.986 55L97.9863 46L106.986 37Z" fill="#7D3131"/>
<path d="M74.9863 35L85.9863 46L74.9863 57L63.9863 46L74.9863 35Z" fill="#B24646"/>
<path d="M101.986 42L105.986 46L101.986 50L97.9863 46L101.986 42Z" fill="#B24646"/>
</svg>
