<svg width="150" height="150" viewBox="0 0 150 150" fill="none" xmlns="http://www.w3.org/2000/svg">
<mask id="path-1-inside-1_1239_754" fill="white">
<path d="M79.4434 15.2246L81.5977 15.9014L83.1221 17.0479L84.1738 18.7119L84.7939 21.0615L85 25.9092V139.091L84.7939 143.938L84.1738 146.288L83.1221 147.952L81.5977 149.099L79.4434 149.775L75 150L70.5557 149.775L68.4023 149.099L66.877 147.952L65.8262 146.288L65.2061 143.938L65 139.091V25.9092L65.2061 21.0615L65.8262 18.7119L66.877 17.0479L68.4023 15.9014L70.5557 15.2246L75 15L79.4434 15.2246Z"/>
</mask>
<path d="M79.4434 15.2246L81.5977 15.9014L83.1221 17.0479L84.1738 18.7119L84.7939 21.0615L85 25.9092V139.091L84.7939 143.938L84.1738 146.288L83.1221 147.952L81.5977 149.099L79.4434 149.775L75 150L70.5557 149.775L68.4023 149.099L66.877 147.952L65.8262 146.288L65.2061 143.938L65 139.091V25.9092L65.2061 21.0615L65.8262 18.7119L66.877 17.0479L68.4023 15.9014L70.5557 15.2246L75 15L79.4434 15.2246Z" fill="#4A301F"/>
<path d="M79.4434 15.2246L80.9419 10.4544L80.3331 10.2632L79.6958 10.231L79.4434 15.2246ZM81.5977 15.9014L84.603 11.9054L83.9161 11.3888L83.0962 11.1312L81.5977 15.9014ZM83.1221 17.0479L87.3486 14.3765L86.8593 13.6023L86.1274 13.0518L83.1221 17.0479ZM84.1738 18.7119L89.0083 17.436L88.8118 16.6915L88.4004 16.0405L84.1738 18.7119ZM84.7939 21.0615L89.7894 20.8492L89.7665 20.3087L89.6284 19.7856L84.7939 21.0615ZM85 25.9092H90V25.803L89.9955 25.6968L85 25.9092ZM85 139.091L89.9955 139.303L90 139.197V139.091H85ZM84.7939 143.938L89.6284 145.214L89.7665 144.691L89.7894 144.151L84.7939 143.938ZM84.1738 146.288L88.4004 148.959L88.8118 148.309L89.0083 147.564L84.1738 146.288ZM83.1221 147.952L86.1274 151.948L86.8593 151.398L87.3486 150.624L83.1221 147.952ZM81.5977 149.099L83.0962 153.869L83.9161 153.611L84.603 153.095L81.5977 149.099ZM79.4434 149.775L79.6958 154.769L80.3331 154.737L80.9419 154.546L79.4434 149.775ZM75 150L74.7476 154.994L75 155.006L75.2524 154.994L75 150ZM70.5557 149.775L69.0565 154.545L69.6656 154.737L70.3033 154.769L70.5557 149.775ZM68.4023 149.099L65.3983 153.096L66.0844 153.611L66.9032 153.869L68.4023 149.099ZM66.877 147.952L62.6493 150.622L63.1393 151.398L63.8729 151.949L66.877 147.952ZM65.8262 146.288L60.9917 147.564L61.1879 148.308L61.5985 148.958L65.8262 146.288ZM65.2061 143.938L60.2106 144.151L60.2335 144.691L60.3716 145.214L65.2061 143.938ZM65 139.091H60V139.197L60.0045 139.303L65 139.091ZM65 25.9092L60.0045 25.6968L60 25.803V25.9092H65ZM65.2061 21.0615L60.3716 19.7856L60.2335 20.3087L60.2106 20.8492L65.2061 21.0615ZM65.8262 18.7119L61.5985 16.0423L61.1879 16.6925L60.9917 17.436L65.8262 18.7119ZM66.877 17.0479L63.8729 13.0509L63.1393 13.6023L62.6493 14.3783L66.877 17.0479ZM68.4023 15.9014L66.9032 11.1314L66.0844 11.3887L65.3983 11.9044L68.4023 15.9014ZM70.5557 15.2246L70.3033 10.231L69.6656 10.2632L69.0565 10.4546L70.5557 15.2246ZM75 15L75.2524 10.0064L75 9.99362L74.7476 10.0064L75 15ZM79.4434 15.2246L77.9448 19.9948L80.0991 20.6715L81.5977 15.9014L83.0962 11.1312L80.9419 10.4544L79.4434 15.2246ZM81.5977 15.9014L78.5923 19.8974L80.1167 21.0439L83.1221 17.0479L86.1274 13.0518L84.603 11.9054L81.5977 15.9014ZM83.1221 17.0479L78.8955 19.7192L79.9473 21.3833L84.1738 18.7119L88.4004 16.0405L87.3486 14.3765L83.1221 17.0479ZM84.1738 18.7119L79.3394 19.9878L79.9595 22.3375L84.7939 21.0615L89.6284 19.7856L89.0083 17.436L84.1738 18.7119ZM84.7939 21.0615L79.7985 21.2739L80.0045 26.1215L85 25.9092L89.9955 25.6968L89.7894 20.8492L84.7939 21.0615ZM85 25.9092H80V139.091H85H90V25.9092H85ZM85 139.091L80.0045 138.878L79.7985 143.726L84.7939 143.938L89.7894 144.151L89.9955 139.303L85 139.091ZM84.7939 143.938L79.9595 142.663L79.3394 145.012L84.1738 146.288L89.0083 147.564L89.6284 145.214L84.7939 143.938ZM84.1738 146.288L79.9473 143.617L78.8955 145.281L83.1221 147.952L87.3486 150.624L88.4004 148.959L84.1738 146.288ZM83.1221 147.952L80.1167 143.956L78.5923 145.103L81.5977 149.099L84.603 153.095L86.1274 151.948L83.1221 147.952ZM81.5977 149.099L80.0991 144.328L77.9448 145.005L79.4434 149.775L80.9419 154.546L83.0962 153.869L81.5977 149.099ZM79.4434 149.775L79.1909 144.782L74.7476 145.006L75 150L75.2524 154.994L79.6958 154.769L79.4434 149.775ZM75 150L75.2524 145.006L70.808 144.782L70.5557 149.775L70.3033 154.769L74.7476 154.994L75 150ZM70.5557 149.775L72.0548 145.005L69.9015 144.329L68.4023 149.099L66.9032 153.869L69.0565 154.545L70.5557 149.775ZM68.4023 149.099L71.4064 145.102L69.881 143.955L66.877 147.952L63.8729 151.949L65.3983 153.096L68.4023 149.099ZM66.877 147.952L71.1046 145.283L70.0539 143.618L65.8262 146.288L61.5985 148.958L62.6493 150.622L66.877 147.952ZM65.8262 146.288L70.6606 145.012L70.0405 142.663L65.2061 143.938L60.3716 145.214L60.9917 147.564L65.8262 146.288ZM65.2061 143.938L70.2015 143.726L69.9955 138.878L65 139.091L60.0045 139.303L60.2106 144.151L65.2061 143.938ZM65 139.091H70V25.9092H65H60V139.091H65ZM65 25.9092L69.9955 26.1215L70.2015 21.2739L65.2061 21.0615L60.2106 20.8492L60.0045 25.6968L65 25.9092ZM65.2061 21.0615L70.0405 22.3375L70.6606 19.9878L65.8262 18.7119L60.9917 17.436L60.3716 19.7856L65.2061 21.0615ZM65.8262 18.7119L70.0539 21.3815L71.1046 19.7174L66.877 17.0479L62.6493 14.3783L61.5985 16.0423L65.8262 18.7119ZM66.877 17.0479L69.881 21.0448L71.4064 19.8983L68.4023 15.9014L65.3983 11.9044L63.8729 13.0509L66.877 17.0479ZM68.4023 15.9014L69.9015 20.6713L72.0548 19.9946L70.5557 15.2246L69.0565 10.4546L66.9032 11.1314L68.4023 15.9014ZM70.5557 15.2246L70.808 20.2182L75.2524 19.9936L75 15L74.7476 10.0064L70.3033 10.231L70.5557 15.2246ZM75 15L74.7476 19.9936L79.1909 20.2182L79.4434 15.2246L79.6958 10.231L75.2524 10.0064L75 15Z" fill="#322116" mask="url(#path-1-inside-1_1239_754)"/>
<mask id="path-3-inside-2_1239_754" fill="white">
<path d="M106.135 23C110.215 23 113.578 26.0544 114.07 30.001C115.695 30.0383 117 31.3666 117 33V59C117 60.6333 115.695 61.9607 114.07 61.998C113.579 65.9451 110.215 69 106.135 69H89.9268C90.6079 70.177 91 71.5423 91 73V77.2705C91 79.8824 88.8824 82 86.2705 82H63.7295C61.1176 82 59 79.8824 59 77.2705V73C59 71.5423 59.3921 70.177 60.0732 69H43.8203C39.7408 69 36.377 65.9462 35.8848 62H35C33.3431 62 32 60.6569 32 59V33C32 31.3431 33.3431 30 35 30H35.8848C36.377 26.0538 39.7408 23 43.8203 23H106.135Z"/>
</mask>
<path d="M106.135 23C110.215 23 113.578 26.0544 114.07 30.001C115.695 30.0383 117 31.3666 117 33V59C117 60.6333 115.695 61.9607 114.07 61.998C113.579 65.9451 110.215 69 106.135 69H89.9268C90.6079 70.177 91 71.5423 91 73V77.2705C91 79.8824 88.8824 82 86.2705 82H63.7295C61.1176 82 59 79.8824 59 77.2705V73C59 71.5423 59.3921 70.177 60.0732 69H43.8203C39.7408 69 36.377 65.9462 35.8848 62H35C33.3431 62 32 60.6569 32 59V33C32 31.3431 33.3431 30 35 30H35.8848C36.377 26.0538 39.7408 23 43.8203 23H106.135Z" fill="#818B91"/>
<path d="M114.07 30.001L109.109 30.6193L109.642 34.9005L113.955 34.9997L114.07 30.001ZM114.07 61.998L113.955 56.9994L109.642 57.0986L109.109 61.3803L114.07 61.998ZM89.9268 69V64H81.2562L85.5992 71.5044L89.9268 69ZM91 73H96V73H91ZM60.0732 69L64.4008 71.5044L68.7438 64H60.0732V69ZM35.8848 62L40.8463 61.3811L40.2998 57H35.8848V62ZM35 30V25H35L35 30ZM35.8848 30V35H40.2998L40.8463 30.6189L35.8848 30ZM106.135 23V28C107.659 28 108.925 29.1421 109.109 30.6193L114.07 30.001L119.032 29.3827C118.232 22.9666 112.771 18 106.135 18V23ZM114.07 30.001L113.955 34.9997C112.87 34.9747 112 34.0899 112 33H117H122C122 28.6434 118.519 25.102 114.185 25.0023L114.07 30.001ZM117 33H112V59H117H122V33H117ZM117 59H112C112 57.9079 112.873 57.0243 113.955 56.9994L114.07 61.998L114.185 66.9967C118.517 66.8971 122 63.3588 122 59H117ZM114.07 61.998L109.109 61.3803C108.925 62.8578 107.659 64 106.135 64V69V74C112.771 74 118.233 69.0324 119.032 62.6157L114.07 61.998ZM106.135 69V64H89.9268V69V74H106.135V69ZM89.9268 69L85.5992 71.5044C85.8548 71.9462 86 72.4512 86 73H91H96C96 70.6335 95.361 68.4078 94.2543 66.4956L89.9268 69ZM91 73H86V77.2705H91H96V73H91ZM91 77.2705H86C86 77.121 86.121 77 86.2705 77V82V87C91.6439 87 96 82.6439 96 77.2705H91ZM86.2705 82V77H63.7295V82V87H86.2705V82ZM63.7295 82V77C63.879 77 64 77.121 64 77.2705H59H54C54 82.6439 58.3561 87 63.7295 87V82ZM59 77.2705H64V73H59H54V77.2705H59ZM59 73H64C64 72.4512 64.1452 71.9462 64.4008 71.5044L60.0732 69L55.7457 66.4956C54.639 68.4078 54 70.6335 54 73H59ZM60.0732 69V64H43.8203V69V74H60.0732V69ZM43.8203 69V64C42.2965 64 41.0305 62.858 40.8463 61.3811L35.8848 62L30.9232 62.6189C31.7235 69.0343 37.1851 74 43.8203 74V69ZM35.8848 62V57H35V62V67H35.8848V62ZM35 62V57C36.1046 57 37 57.8954 37 59H32H27C27 63.4183 30.5817 67 35 67V62ZM32 59H37V33H32H27V59H32ZM32 33H37C37 34.1046 36.1046 35 35 35L35 30L35 25C30.5817 25 27 28.5817 27 33H32ZM35 30V35H35.8848V30V25H35V30ZM35.8848 30L40.8463 30.6189C41.0305 29.142 42.2965 28 43.8203 28V23V18C37.1851 18 31.7235 22.9657 30.9232 29.3811L35.8848 30ZM43.8203 23V28H106.135V23V18H43.8203V23Z" fill="#474E52" mask="url(#path-3-inside-2_1239_754)"/>
<rect x="46" y="37" width="57" height="18" rx="2" fill="#A1AEB6"/>
<path d="M61 35C61 33.3431 62.3432 32 64 32L86 32C87.6569 32 89 33.3431 89 35L89 57C89 58.6569 87.6569 60 86 60L64 60C62.3432 60 61 58.6569 61 57L61 35Z" fill="#A1AEB6"/>
<path d="M65.3462 39.3464C65.3462 37.6895 66.6894 36.3464 68.3462 36.3464L81.6535 36.3464C83.3103 36.3464 84.6535 37.6895 84.6535 39.3464L84.6535 52.6536C84.6535 54.3105 83.3103 55.6536 81.6535 55.6536L68.3462 55.6536C66.6894 55.6536 65.3462 54.3105 65.3462 52.6536L65.3462 39.3464Z" fill="#C3CFD9"/>
</svg>
