<svg width="150" height="150" viewBox="0 0 150 150" fill="none" xmlns="http://www.w3.org/2000/svg">
<g clip-path="url(#clip0_1205_464)">
<mask id="path-1-inside-1_1205_464" fill="white">
<path d="M77.2803 0.400391L79.6045 1.6875L83.5029 5.24121L86.6064 8.64551L86.6826 8.68848L88.1826 10.4482L89.0703 12.9336L89.3643 18.0645V92.21H92.9492L95.04 90.1191C95.0414 90.1178 95.0426 90.1156 95.0439 90.1143C95.8671 88.6916 97.4051 87.7344 99.167 87.7344H109.878C112.507 87.7344 114.638 89.8652 114.639 92.4941V103.206C114.639 104.968 113.68 106.505 112.257 107.328C112.256 107.329 112.255 107.331 112.254 107.332L106.855 112.73C105.283 114.303 103.16 114.988 101.107 114.787L100.659 114.823H88.8994L88.1729 116.043L86.6729 117.097L84.6045 117.785V129.114L87.1689 131.927L88.4844 134.293L88.8984 136.485L88.5059 138.673L87.2148 141.026L83.6299 144.963L79.6924 148.548L77.3398 149.84L75.1514 150.231L72.96 149.817L70.5938 148.502L66.6201 144.878L62.9961 140.904L61.6807 138.538L61.2666 136.347L61.6582 134.158L62.9502 131.805L65.5615 128.936V117.792L63.4707 117.097L61.9697 116.043L61.2441 114.823H49.4834L46.5752 114.591L46.2725 114.439C44.8512 114.205 43.4869 113.542 42.3906 112.446L36.9883 107.044C35.5655 106.221 34.6075 104.684 34.6074 102.922V92.21C34.6077 89.581 36.7392 87.4502 39.3682 87.4502H50.0791C51.8404 87.4502 53.3768 88.4072 54.2002 89.8291L56.5811 92.21H60.8008V18.0645L61.0947 12.9336L61.9824 10.4482L63.4824 8.68848L63.7168 8.55762L66.7695 5.20605L70.6533 1.66895L72.9717 0.391602L75.125 0L77.2803 0.400391Z"/>
</mask>
<path d="M77.2803 0.400391L79.6045 1.6875L83.5029 5.24121L86.6064 8.64551L86.6826 8.68848L88.1826 10.4482L89.0703 12.9336L89.3643 18.0645V92.21H92.9492L95.04 90.1191C95.0414 90.1178 95.0426 90.1156 95.0439 90.1143C95.8671 88.6916 97.4051 87.7344 99.167 87.7344H109.878C112.507 87.7344 114.638 89.8652 114.639 92.4941V103.206C114.639 104.968 113.68 106.505 112.257 107.328C112.256 107.329 112.255 107.331 112.254 107.332L106.855 112.73C105.283 114.303 103.16 114.988 101.107 114.787L100.659 114.823H88.8994L88.1729 116.043L86.6729 117.097L84.6045 117.785V129.114L87.1689 131.927L88.4844 134.293L88.8984 136.485L88.5059 138.673L87.2148 141.026L83.6299 144.963L79.6924 148.548L77.3398 149.84L75.1514 150.231L72.96 149.817L70.5938 148.502L66.6201 144.878L62.9961 140.904L61.6807 138.538L61.2666 136.347L61.6582 134.158L62.9502 131.805L65.5615 128.936V117.792L63.4707 117.097L61.9697 116.043L61.2441 114.823H49.4834L46.5752 114.591L46.2725 114.439C44.8512 114.205 43.4869 113.542 42.3906 112.446L36.9883 107.044C35.5655 106.221 34.6075 104.684 34.6074 102.922V92.21C34.6077 89.581 36.7392 87.4502 39.3682 87.4502H50.0791C51.8404 87.4502 53.3768 88.4072 54.2002 89.8291L56.5811 92.21H60.8008V18.0645L61.0947 12.9336L61.9824 10.4482L63.4824 8.68848L63.7168 8.55762L66.7695 5.20605L70.6533 1.66895L72.9717 0.391602L75.125 0L77.2803 0.400391Z" fill="#818B91"/>
<path d="M77.2803 0.400391L79.7026 -3.97369L78.992 -4.36716L78.1935 -4.5155L77.2803 0.400391ZM79.6045 1.6875L82.9729 -2.00763L82.5396 -2.40257L82.0268 -2.68658L79.6045 1.6875ZM83.5029 5.24121L87.1979 1.87268L87.0422 1.70183L86.8713 1.54608L83.5029 5.24121ZM86.6064 8.64551L82.9114 12.014L83.4516 12.6065L84.1498 13.0004L86.6064 8.64551ZM86.6826 8.68848L90.4878 5.44497L89.9122 4.7696L89.1392 4.33358L86.6826 8.68848ZM88.1826 10.4482L92.8913 8.76644L92.5828 7.90273L91.9878 7.20473L88.1826 10.4482ZM89.0703 12.9336L94.0621 12.6476L94.021 11.9293L93.779 11.2518L89.0703 12.9336ZM89.3643 18.0645H94.3643V17.9213L94.3561 17.7785L89.3643 18.0645ZM89.3643 92.21H84.3643V97.21H89.3643V92.21ZM92.9492 92.21V97.21H95.0203L96.4848 95.7455L92.9492 92.21ZM95.04 90.1191L98.5756 93.6547L95.04 90.1191ZM95.0439 90.1143L98.5766 93.6526L99.0422 93.1878L99.3717 92.6183L95.0439 90.1143ZM114.639 92.4941H119.639V92.4937L114.639 92.4941ZM114.639 103.206L119.639 103.206V103.206H114.639ZM112.257 107.328L109.754 103L109.184 103.329L108.719 103.795L112.257 107.328ZM112.254 107.332L115.789 110.868L115.79 110.867L112.254 107.332ZM101.107 114.787L101.594 109.811L101.15 109.767L100.706 109.803L101.107 114.787ZM100.659 114.823V119.823H100.86L101.061 119.807L100.659 114.823ZM88.8994 114.823V109.823H86.0579L84.6038 112.264L88.8994 114.823ZM88.1729 116.043L91.047 120.134L91.9215 119.52L92.4685 118.602L88.1729 116.043ZM86.6729 117.097L88.252 121.841L88.9473 121.609L89.547 121.188L86.6729 117.097ZM84.6045 117.785L83.0254 113.041L79.6045 114.18V117.785H84.6045ZM84.6045 129.114H79.6045V131.052L80.9098 132.483L84.6045 129.114ZM87.1689 131.927L91.5391 129.497L91.2561 128.988L90.8637 128.558L87.1689 131.927ZM88.4844 134.293L93.3975 133.365L93.2474 132.57L92.8545 131.864L88.4844 134.293ZM88.8984 136.485L93.8198 137.369L93.9825 136.462L93.8116 135.557L88.8984 136.485ZM88.5059 138.673L92.8896 141.078L93.2828 140.361L93.4272 139.556L88.5059 138.673ZM87.2148 141.026L90.9116 144.393L91.3124 143.953L91.5986 143.431L87.2148 141.026ZM83.6299 144.963L86.996 148.66L87.1691 148.503L87.3266 148.329L83.6299 144.963ZM79.6924 148.548L82.0993 152.93L82.6196 152.645L83.0585 152.245L79.6924 148.548ZM77.3398 149.84L78.2205 154.762L79.0279 154.617L79.7467 154.222L77.3398 149.84ZM75.1514 150.231L74.2231 155.145L75.1268 155.315L76.0321 155.153L75.1514 150.231ZM72.96 149.817L70.5305 154.187L71.2372 154.58L72.0316 154.73L72.96 149.817ZM70.5938 148.502L67.2245 152.196L67.655 152.589L68.1643 152.872L70.5938 148.502ZM66.6201 144.878L62.9258 148.247L63.0808 148.417L63.2508 148.572L66.6201 144.878ZM62.9961 140.904L58.626 143.334L58.9091 143.843L59.3018 144.274L62.9961 140.904ZM61.6807 138.538L56.7676 139.466L56.9177 140.261L57.3106 140.968L61.6807 138.538ZM61.2666 136.347L56.3448 135.466L56.1828 136.371L56.3535 137.275L61.2666 136.347ZM61.6582 134.158L57.2752 131.752L56.8808 132.471L56.7364 133.277L61.6582 134.158ZM62.9502 131.805L59.2524 128.439L58.8529 128.878L58.5672 129.399L62.9502 131.805ZM65.5615 128.936L69.2593 132.301L70.5615 130.87V128.936H65.5615ZM65.5615 117.792H70.5615V114.186L67.1393 113.047L65.5615 117.792ZM63.4707 117.097L60.5979 121.189L61.1976 121.61L61.8929 121.841L63.4707 117.097ZM61.9697 116.043L57.6726 118.599L58.2202 119.52L59.0969 120.135L61.9697 116.043ZM61.2441 114.823L65.5413 112.267L64.0876 109.823H61.2441V114.823ZM49.4834 114.823L49.0851 119.807L49.2839 119.823H49.4834V114.823ZM46.5752 114.591L44.3391 119.063L45.2082 119.498L46.1769 119.575L46.5752 114.591ZM46.2725 114.439L48.5085 109.967L47.8321 109.629L47.0859 109.506L46.2725 114.439ZM42.3906 112.446L38.8551 115.982L38.8552 115.982L42.3906 112.446ZM36.9883 107.044L40.5238 103.508L40.0599 103.044L39.492 102.716L36.9883 107.044ZM34.6074 102.922H29.6074V102.922L34.6074 102.922ZM34.6074 92.21L29.6074 92.2095V92.21H34.6074ZM50.0791 87.4502L50.0792 82.4502H50.0791V87.4502ZM54.2002 89.8291L49.8733 92.3347L50.2015 92.9015L50.6647 93.3646L54.2002 89.8291ZM56.5811 92.21L53.0455 95.7455L54.51 97.21H56.5811V92.21ZM60.8008 92.21V97.21H65.8008V92.21H60.8008ZM60.8008 18.0645L55.809 17.7785L55.8008 17.9213V18.0645H60.8008ZM61.0947 12.9336L56.3861 11.2518L56.1441 11.9293L56.1029 12.6476L61.0947 12.9336ZM61.9824 10.4482L58.1772 7.20473L57.5822 7.90273L57.2738 8.76644L61.9824 10.4482ZM63.4824 8.68848L61.0449 4.32285L60.2602 4.76098L59.6772 5.44497L63.4824 8.68848ZM63.7168 8.55762L66.1543 12.9232L66.8651 12.5264L67.4133 11.9245L63.7168 8.55762ZM66.7695 5.20605L63.4028 1.50938L63.2302 1.66657L63.073 1.83915L66.7695 5.20605ZM70.6533 1.66895L68.2405 -2.71034L67.7232 -2.42536L67.2866 -2.02773L70.6533 1.66895ZM72.9717 0.391602L72.0771 -4.52771L71.2739 -4.38164L70.5588 -3.98769L72.9717 0.391602ZM75.125 0L76.0382 -4.91589L75.1346 -5.08376L74.2304 -4.91931L75.125 0ZM77.2803 0.400391L74.858 4.77447L77.1822 6.06158L79.6045 1.6875L82.0268 -2.68658L79.7026 -3.97369L77.2803 0.400391ZM79.6045 1.6875L76.2361 5.38263L80.1345 8.93634L83.5029 5.24121L86.8713 1.54608L82.9729 -2.00763L79.6045 1.6875ZM83.5029 5.24121L79.8079 8.60974L82.9114 12.014L86.6064 8.64551L90.3014 5.27698L87.1979 1.87268L83.5029 5.24121ZM86.6064 8.64551L84.1498 13.0004L84.226 13.0434L86.6826 8.68848L89.1392 4.33358L89.0631 4.29062L86.6064 8.64551ZM86.6826 8.68848L82.8774 11.932L84.3774 13.6918L88.1826 10.4482L91.9878 7.20473L90.4878 5.44497L86.6826 8.68848ZM88.1826 10.4482L83.4739 12.13L84.3616 14.6154L89.0703 12.9336L93.779 11.2518L92.8913 8.76644L88.1826 10.4482ZM89.0703 12.9336L84.0785 13.2196L84.3724 18.3504L89.3643 18.0645L94.3561 17.7785L94.0621 12.6476L89.0703 12.9336ZM89.3643 18.0645H84.3643V92.21H89.3643H94.3643V18.0645H89.3643ZM89.3643 92.21V97.21H92.9492V92.21V87.21H89.3643V92.21ZM92.9492 92.21L96.4848 95.7455L98.5756 93.6547L95.04 90.1191L91.5045 86.5836L89.4137 88.6744L92.9492 92.21ZM95.04 90.1191L98.5756 93.6547C98.6276 93.6027 98.6745 93.5535 98.7163 93.5081C98.7581 93.4628 98.7957 93.4203 98.8289 93.3818C98.8621 93.3433 98.8917 93.3077 98.9176 93.2759C98.9435 93.2441 98.9664 93.2152 98.9859 93.1901C99.0055 93.165 99.0225 93.1426 99.0365 93.124C99.0505 93.1054 99.0623 93.0894 99.0714 93.0771C99.0803 93.065 99.0875 93.0551 99.0918 93.0491C99.094 93.0461 99.0958 93.0436 99.0969 93.0421C99.0974 93.0413 99.0979 93.0407 99.0981 93.0403C99.0983 93.0401 99.0984 93.04 99.0985 93.0399C99.0985 93.0398 99.0985 93.0398 99.0985 93.0398C99.0986 93.0398 99.0986 93.0397 99.0986 93.0397C99.0986 93.0397 99.0986 93.0397 99.0986 93.0397C99.0987 93.0395 99.0979 93.0406 99.097 93.042C99.0959 93.0434 99.0942 93.0458 99.092 93.0488C99.0878 93.0547 99.0807 93.0645 99.0718 93.0765C99.0628 93.0887 99.0511 93.1046 99.0371 93.1231C99.0232 93.1417 99.0062 93.1639 98.9867 93.1889C98.9672 93.214 98.9444 93.2428 98.9185 93.2745C98.8927 93.3062 98.8631 93.3417 98.8299 93.3802C98.7967 93.4186 98.7592 93.461 98.7174 93.5063C98.6756 93.5516 98.6286 93.6007 98.5766 93.6526L95.0439 90.1143L91.5113 86.5759C91.4591 86.628 91.412 86.6773 91.37 86.7228C91.328 86.7682 91.2903 86.8108 91.257 86.8494C91.2236 86.8881 91.1938 86.9238 91.1678 86.9557C91.1418 86.9876 91.1188 87.0166 91.0992 87.0419C91.0795 87.0671 91.0624 87.0896 91.0483 87.1083C91.0342 87.1271 91.0222 87.1432 91.0131 87.1555C91.0041 87.1678 90.9968 87.1778 90.9925 87.1839C90.9902 87.187 90.9884 87.1895 90.9873 87.1911C90.9867 87.1919 90.9862 87.1926 90.9859 87.193C90.9858 87.1932 90.9856 87.1934 90.9855 87.1935C90.9855 87.1936 90.9854 87.1937 90.9854 87.1937C90.9852 87.194 90.986 87.1929 90.9869 87.1916C90.9879 87.1902 90.9896 87.1879 90.9917 87.1849C90.9959 87.1792 91.0029 87.1695 91.0117 87.1576C91.0205 87.1455 91.0322 87.1297 91.046 87.1113C91.0599 87.0929 91.0767 87.0708 91.0961 87.0459C91.1156 87.021 91.1383 86.9923 91.164 86.9607C91.1897 86.9291 91.2192 86.8937 91.2522 86.8554C91.2853 86.817 91.3227 86.7748 91.3643 86.7296C91.4059 86.6845 91.4527 86.6354 91.5045 86.5836L95.04 90.1191ZM95.0439 90.1143L99.3717 92.6183C99.3522 92.6521 99.3263 92.6782 99.2925 92.6981C99.2519 92.7221 99.2032 92.7344 99.167 92.7344V87.7344V82.7344C95.5478 82.7344 92.3961 84.7067 90.7162 87.6102L95.0439 90.1143ZM99.167 87.7344V92.7344H109.878V87.7344V82.7344H99.167V87.7344ZM109.878 87.7344V92.7344C109.746 92.7344 109.639 92.6276 109.639 92.4946L114.639 92.4941L119.639 92.4937C119.638 87.1028 115.267 82.7344 109.878 82.7344V87.7344ZM114.639 92.4941H109.639V103.206H114.639H119.639V92.4941H114.639ZM114.639 103.206L109.639 103.206C109.639 103.168 109.651 103.119 109.676 103.078C109.696 103.044 109.721 103.019 109.754 103L112.257 107.328L114.76 111.656C117.661 109.979 119.638 106.83 119.639 103.206L114.639 103.206ZM112.257 107.328L108.719 103.795C108.593 103.921 108.489 104.038 108.405 104.14C108.363 104.191 108.325 104.238 108.292 104.282C108.259 104.325 108.229 104.365 108.204 104.4C108.179 104.435 108.157 104.466 108.138 104.493C108.12 104.519 108.105 104.542 108.093 104.559C108.082 104.577 108.072 104.591 108.067 104.6C108.064 104.604 108.062 104.608 108.06 104.61C108.059 104.611 108.059 104.612 108.059 104.612C108.058 104.613 108.058 104.613 108.058 104.613C108.058 104.613 108.058 104.613 108.058 104.613C108.058 104.613 108.058 104.613 108.058 104.613C108.058 104.613 108.058 104.613 108.058 104.613C108.058 104.613 108.059 104.612 108.06 104.61C108.062 104.608 108.064 104.604 108.067 104.6C108.072 104.591 108.081 104.577 108.093 104.56C108.105 104.542 108.12 104.519 108.138 104.493C108.156 104.467 108.178 104.435 108.204 104.401C108.229 104.366 108.258 104.326 108.291 104.283C108.325 104.239 108.362 104.192 108.405 104.141C108.489 104.04 108.593 103.922 108.718 103.797L112.254 107.332L115.79 110.867C115.915 110.742 116.02 110.624 116.104 110.522C116.146 110.471 116.184 110.423 116.218 110.38C116.251 110.337 116.28 110.297 116.306 110.262C116.331 110.227 116.353 110.195 116.372 110.169C116.39 110.142 116.405 110.119 116.417 110.101C116.429 110.084 116.438 110.07 116.444 110.061C116.447 110.056 116.449 110.053 116.45 110.051C116.451 110.049 116.452 110.049 116.452 110.048C116.452 110.048 116.452 110.047 116.453 110.047C116.453 110.047 116.453 110.047 116.453 110.047C116.453 110.047 116.452 110.048 116.451 110.05C116.449 110.052 116.447 110.056 116.444 110.06C116.439 110.068 116.43 110.082 116.418 110.1C116.407 110.117 116.391 110.14 116.373 110.166C116.355 110.192 116.333 110.223 116.308 110.258C116.283 110.293 116.254 110.333 116.221 110.376C116.187 110.419 116.15 110.466 116.108 110.517C116.024 110.618 115.92 110.736 115.795 110.861L112.257 107.328ZM112.254 107.332L108.718 103.796L103.32 109.195L106.855 112.73L110.391 116.266L115.789 110.868L112.254 107.332ZM106.855 112.73L103.32 109.195C102.851 109.664 102.223 109.872 101.594 109.811L101.107 114.787L100.621 119.763C104.097 120.103 107.716 118.941 110.391 116.266L106.855 112.73ZM101.107 114.787L100.706 109.803L100.257 109.839L100.659 114.823L101.061 119.807L101.509 119.771L101.107 114.787ZM100.659 114.823V109.823H88.8994V114.823V119.823H100.659V114.823ZM88.8994 114.823L84.6038 112.264L83.8772 113.484L88.1729 116.043L92.4685 118.602L93.195 117.382L88.8994 114.823ZM88.1729 116.043L85.2988 111.952L83.7988 113.005L86.6729 117.097L89.547 121.188L91.047 120.134L88.1729 116.043ZM86.6729 117.097L85.0937 112.353L83.0254 113.041L84.6045 117.785L86.1836 122.529L88.252 121.841L86.6729 117.097ZM84.6045 117.785H79.6045V129.114H84.6045H89.6045V117.785H84.6045ZM84.6045 129.114L80.9098 132.483L83.4742 135.296L87.1689 131.927L90.8637 128.558L88.2992 125.745L84.6045 129.114ZM87.1689 131.927L82.7988 134.356L84.1143 136.722L88.4844 134.293L92.8545 131.864L91.5391 129.497L87.1689 131.927ZM88.4844 134.293L83.5712 135.221L83.9853 137.413L88.8984 136.485L93.8116 135.557L93.3975 133.365L88.4844 134.293ZM88.8984 136.485L83.9771 135.602L83.5845 137.79L88.5059 138.673L93.4272 139.556L93.8198 137.369L88.8984 136.485ZM88.5059 138.673L84.1221 136.268L82.8311 138.622L87.2148 141.026L91.5986 143.431L92.8896 141.078L88.5059 138.673ZM87.2148 141.026L83.5181 137.66L79.9331 141.596L83.6299 144.963L87.3266 148.329L90.9116 144.393L87.2148 141.026ZM83.6299 144.963L80.2637 141.266L76.3262 144.851L79.6924 148.548L83.0585 152.245L86.996 148.66L83.6299 144.963ZM79.6924 148.548L77.2855 144.165L74.933 145.457L77.3398 149.84L79.7467 154.222L82.0993 152.93L79.6924 148.548ZM77.3398 149.84L76.4591 144.918L74.2707 145.31L75.1514 150.231L76.0321 155.153L78.2205 154.762L77.3398 149.84ZM75.1514 150.231L76.0797 145.318L73.8883 144.904L72.96 149.817L72.0316 154.73L74.2231 155.145L75.1514 150.231ZM72.96 149.817L75.3894 145.447L73.0232 144.132L70.5938 148.502L68.1643 152.872L70.5305 154.187L72.96 149.817ZM70.5938 148.502L73.963 144.808L69.9894 141.184L66.6201 144.878L63.2508 148.572L67.2245 152.196L70.5938 148.502ZM66.6201 144.878L70.3144 141.509L66.6904 137.535L62.9961 140.904L59.3018 144.274L62.9258 148.247L66.6201 144.878ZM62.9961 140.904L67.3662 138.475L66.0508 136.109L61.6807 138.538L57.3106 140.968L58.626 143.334L62.9961 140.904ZM61.6807 138.538L66.5937 137.61L66.1797 135.418L61.2666 136.347L56.3535 137.275L56.7676 139.466L61.6807 138.538ZM61.2666 136.347L66.1884 137.227L66.58 135.039L61.6582 134.158L56.7364 133.277L56.3448 135.466L61.2666 136.347ZM61.6582 134.158L66.0412 136.564L67.3332 134.211L62.9502 131.805L58.5672 129.399L57.2752 131.752L61.6582 134.158ZM62.9502 131.805L66.648 135.17L69.2593 132.301L65.5615 128.936L61.8638 125.57L59.2524 128.439L62.9502 131.805ZM65.5615 128.936H70.5615V117.792H65.5615H60.5615V128.936H65.5615ZM65.5615 117.792L67.1393 113.047L65.0485 112.352L63.4707 117.097L61.8929 121.841L63.9837 122.537L65.5615 117.792ZM63.4707 117.097L66.3436 113.004L64.8426 111.951L61.9697 116.043L59.0969 120.135L60.5979 121.189L63.4707 117.097ZM61.9697 116.043L66.2669 113.487L65.5413 112.267L61.2441 114.823L56.947 117.38L57.6726 118.599L61.9697 116.043ZM61.2441 114.823V109.823H49.4834V114.823V119.823H61.2441V114.823ZM49.4834 114.823L49.8817 109.839L46.9735 109.607L46.5752 114.591L46.1769 119.575L49.0851 119.807L49.4834 114.823ZM46.5752 114.591L48.8113 110.119L48.5085 109.967L46.2725 114.439L44.0364 118.912L44.3391 119.063L46.5752 114.591ZM46.2725 114.439L47.0859 109.506C46.6555 109.435 46.255 109.24 45.9261 108.911L42.3906 112.446L38.8552 115.982C40.7187 117.845 43.0469 118.975 45.459 119.373L46.2725 114.439ZM42.3906 112.446L45.9262 108.911L40.5238 103.508L36.9883 107.044L33.4527 110.579L38.8551 115.982L42.3906 112.446ZM36.9883 107.044L39.492 102.716C39.5248 102.735 39.5507 102.76 39.5707 102.794C39.5949 102.835 39.6074 102.885 39.6074 102.922L34.6074 102.922L29.6074 102.922C29.6076 106.544 31.5829 109.693 34.4846 111.372L36.9883 107.044ZM34.6074 102.922H39.6074V92.21H34.6074H29.6074V102.922H34.6074ZM34.6074 92.21L39.6074 92.2104C39.6074 92.3434 39.4997 92.4502 39.3682 92.4502V87.4502V82.4502C33.9786 82.4502 29.6079 86.8186 29.6074 92.2095L34.6074 92.21ZM39.3682 87.4502V92.4502H50.0791V87.4502V82.4502H39.3682V87.4502ZM50.0791 87.4502L50.079 92.4502C50.0422 92.4502 49.9928 92.4377 49.9518 92.4135C49.9177 92.3934 49.8923 92.3675 49.8733 92.3347L54.2002 89.8291L58.5271 87.3235C56.8479 84.4236 53.6992 82.4503 50.0792 82.4502L50.0791 87.4502ZM54.2002 89.8291L50.6647 93.3646L53.0455 95.7455L56.5811 92.21L60.1166 88.6744L57.7357 86.2936L54.2002 89.8291ZM56.5811 92.21V97.21H60.8008V92.21V87.21H56.5811V92.21ZM60.8008 92.21H65.8008V18.0645H60.8008H55.8008V92.21H60.8008ZM60.8008 18.0645L65.7926 18.3504L66.0865 13.2196L61.0947 12.9336L56.1029 12.6476L55.809 17.7785L60.8008 18.0645ZM61.0947 12.9336L65.8034 14.6154L66.6911 12.13L61.9824 10.4482L57.2738 8.76644L56.3861 11.2518L61.0947 12.9336ZM61.9824 10.4482L65.7876 13.6918L67.2876 11.932L63.4824 8.68848L59.6772 5.44497L58.1772 7.20473L61.9824 10.4482ZM63.4824 8.68848L65.9199 13.0541L66.1543 12.9232L63.7168 8.55762L61.2793 4.19199L61.0449 4.32285L63.4824 8.68848ZM63.7168 8.55762L67.4133 11.9245L70.466 8.57296L66.7695 5.20605L63.073 1.83915L60.0203 5.19072L63.7168 8.55762ZM66.7695 5.20605L70.1362 8.90273L74.02 5.36562L70.6533 1.66895L67.2866 -2.02773L63.4028 1.50938L66.7695 5.20605ZM70.6533 1.66895L73.0662 6.04823L75.3845 4.77089L72.9717 0.391602L70.5588 -3.98769L68.2405 -2.71034L70.6533 1.66895ZM72.9717 0.391602L73.8663 5.31092L76.0196 4.91931L75.125 0L74.2304 -4.91931L72.0771 -4.52771L72.9717 0.391602ZM75.125 0L74.2118 4.91589L76.367 5.31628L77.2803 0.400391L78.1935 -4.5155L76.0382 -4.91589L75.125 0Z" fill="#474E52" mask="url(#path-1-inside-1_1205_464)"/>
<path d="M71.7097 11.3763L73.2883 9.93825L74.2308 9.4189L75.1059 9.2595L75.9817 9.42222L76.9262 9.94515L78.5102 11.3891L79.9542 12.9732L80.4772 13.9177L80.6399 14.7935L80.4805 15.6686L79.9611 16.6111L78.5231 18.1897L76.9446 19.6277L76.0021 20.1471L75.1269 20.3065L74.2511 20.1437L73.3066 19.6208L71.7226 18.1768L70.2786 16.5928L69.7556 15.6483L69.5929 14.7725L69.7523 13.8973L70.2717 12.9548L71.7097 11.3763Z" fill="#A1AEB6"/>
<path d="M54.8396 103.517L54.9243 102.195L55.1805 101.554L55.6137 101.1L56.2416 100.788L57.1296 100.603L58.961 100.542H91.1826L93.0139 100.603L93.9019 100.788L94.5299 101.1L94.963 101.554L95.2192 102.195L95.3039 103.517L95.2192 104.839L94.963 105.48L94.5299 105.933L93.9019 106.246L93.0139 106.431L91.1826 106.492H58.961L57.1296 106.431L56.2416 106.246L55.6137 105.933L55.1805 105.48L54.9243 104.839L54.8396 103.517Z" fill="#A1AEB6"/>
<path d="M100.064 96.9709C100.064 96.3136 100.597 95.7808 101.255 95.7808H106.015C106.672 95.7808 107.205 96.3136 107.205 96.9709V101.731C107.205 102.389 106.672 102.922 106.015 102.922H101.255C100.597 102.922 100.064 102.389 100.064 101.731V96.9709Z" fill="#A1AEB6"/>
<path d="M72.3171 133.743L73.6229 132.556L74.4039 132.129L75.1304 132L75.8587 132.139L76.6455 132.578L77.9674 133.785L79.1735 135.108L79.6117 135.895L79.7504 136.623L79.6215 137.35L79.1938 138.13L78.0053 139.435L76.6995 140.623L75.9185 141.05L75.192 141.179L74.4637 141.039L73.6768 140.601L72.355 139.394L71.1489 138.071L70.7106 137.284L70.5719 136.556L70.7009 135.829L71.1286 135.048L72.3171 133.743Z" fill="#A1AEB6"/>
<path d="M69.1211 20.2306L69.2436 16.2531L69.6132 14.3264L70.2384 12.962L71.1457 12.0219L72.4268 11.466L75.0717 11.2817L77.7166 11.466L78.9977 12.0219L79.905 12.962L80.5302 14.3264L80.8999 16.2531L81.0224 20.2306V84.4517L80.8999 88.4292L80.5302 90.3558L79.905 91.7202L78.9977 92.6604L77.7166 93.2163L75.0717 93.4005L72.4268 93.2163L71.1457 92.6604L70.2384 91.7202L69.6132 90.3558L69.2436 88.4292L69.1211 84.4517V20.2306Z" fill="#A1AEB6"/>
<path d="M71.5012 23.0227L71.5747 19.3911L71.7965 17.632L72.1716 16.3862L72.716 15.5278L73.4847 15.0203L75.0716 14.8521L76.6585 15.0203L77.4272 15.5278L77.9716 16.3862L78.3467 17.632L78.5685 19.3911L78.642 23.0227V81.6594L78.5685 85.291L78.3467 87.0501L77.9716 88.2959L77.4272 89.1543L76.6585 89.6618L75.0716 89.83L73.4847 89.6618L72.716 89.1543L72.1716 88.2959L71.7965 87.0501L71.5747 85.291L71.5012 81.6594V23.0227Z" fill="#C3CFD9"/>
<path d="M70.2632 99.3034L72.4777 97.2866L73.8006 96.559L75.0296 96.3368L76.26 96.567L77.5876 97.3034L79.8154 99.3347L81.8467 101.562L82.5831 102.89L82.8133 104.121L82.5911 105.35L81.8635 106.672L79.8467 108.887L77.6322 110.904L76.3094 111.631L75.0804 111.853L73.8499 111.623L72.5223 110.887L70.2945 108.856L68.2632 106.628L67.5269 105.3L67.2966 104.07L67.5188 102.841L68.2465 101.518L70.2632 99.3034Z" fill="#A1AEB6"/>
<path d="M72.06 101.1L73.4441 99.8399L74.2709 99.3851L75.0391 99.2462L75.8081 99.3901L76.6379 99.8503L78.0303 101.12L79.3 102.512L79.7602 103.342L79.9041 104.111L79.7652 104.879L79.3104 105.706L78.0499 107.09L76.6658 108.351L75.839 108.806L75.0708 108.945L74.3018 108.801L73.472 108.34L72.0796 107.071L70.8099 105.678L70.3497 104.849L70.2058 104.079L70.3447 103.311L70.7995 102.485L72.06 101.1Z" fill="#C3CFD9"/>
<path d="M42.9382 99.3511L43.0119 97.7644L43.2336 96.9954L43.6087 96.4512L44.1529 96.0762L44.9219 95.8544L46.5086 95.7808L48.0954 95.8544L48.8643 96.0762L49.4085 96.4512L49.7836 96.9954L50.0053 97.7644L50.079 99.3511L50.0053 100.938L49.7836 101.707L49.4085 102.251L48.8643 102.626L48.0954 102.848L46.5086 102.922L44.9219 102.848L44.1529 102.626L43.6087 102.251L43.2336 101.707L43.0119 100.938L42.9382 99.3511Z" fill="#A1AEB6"/>
<path d="M73.2167 14.9542L74.0694 14.1775L74.5787 13.8973L75.0519 13.8116L75.5255 13.9001L76.0364 14.1834L76.8938 14.965L77.6754 15.8224L77.9587 16.3333L78.0472 16.807L77.9615 17.2801L77.6813 17.7894L76.9047 18.6421L76.052 19.4187L75.5427 19.6989L75.0696 19.7846L74.5959 19.6961L74.085 19.4128L73.2276 18.6312L72.446 17.7739L72.1627 17.2629L72.0742 16.7893L72.1599 16.3161L72.4401 15.8068L73.2167 14.9542Z" fill="#C3CFD9"/>
</g>
<defs>
<clipPath id="clip0_1205_464">
<rect width="150" height="150" fill="white"/>
</clipPath>
</defs>
</svg>
