<svg width="350" height="350" viewBox="0 0 350 350" fill="none" xmlns="http://www.w3.org/2000/svg">
<g clip-path="url(#clip0_1236_16)">
<path d="M175.404 85.8853C179.546 85.8853 182.904 89.2431 182.904 93.3853V340.385C182.904 344.527 179.546 347.885 175.404 347.885C171.262 347.885 167.904 344.527 167.904 340.385V93.3853C167.904 89.2431 171.262 85.8853 175.404 85.8853Z" fill="#4A301F" stroke="#322116" stroke-width="5"/>
<mask id="path-2-inside-1_1236_16" fill="white">
<path d="M186 124.269C188.209 124.27 190 126.06 190 128.269V134.269C190 136.478 188.209 138.269 186 138.269H165C162.791 138.269 161 136.478 161 134.269V128.269C161 126.06 162.791 124.269 165 124.269H186ZM172.235 24.8358C173.266 22.3881 176.734 22.3881 177.765 24.8358L194.51 64.6044C194.823 65.3489 194.823 66.189 194.51 66.9335L187.482 83.622L199.969 78.8944C205.269 76.8879 209.291 83.8555 204.903 87.4423L192.004 97.9852L195.404 101.386L175.404 121.386L155.404 101.386L158.788 97.9999L145.871 87.4423C141.483 83.8555 145.505 76.8877 150.806 78.8944L162.37 83.2724L155.49 66.9335C155.177 66.189 155.177 65.3489 155.49 64.6044L172.235 24.8358Z"/>
</mask>
<path d="M186 124.269C188.209 124.27 190 126.06 190 128.269V134.269C190 136.478 188.209 138.269 186 138.269H165C162.791 138.269 161 136.478 161 134.269V128.269C161 126.06 162.791 124.269 165 124.269H186ZM172.235 24.8358C173.266 22.3881 176.734 22.3881 177.765 24.8358L194.51 64.6044C194.823 65.3489 194.823 66.189 194.51 66.9335L187.482 83.622L199.969 78.8944C205.269 76.8879 209.291 83.8555 204.903 87.4423L192.004 97.9852L195.404 101.386L175.404 121.386L155.404 101.386L158.788 97.9999L145.871 87.4423C141.483 83.8555 145.505 76.8877 150.806 78.8944L162.37 83.2724L155.49 66.9335C155.177 66.189 155.177 65.3489 155.49 64.6044L172.235 24.8358Z" fill="#818B91"/>
<path d="M186 124.269L186 119.269H186V124.269ZM190 134.269L195 134.27V134.269H190ZM186 138.269V143.269H186L186 138.269ZM161 134.269H156V134.27L161 134.269ZM172.235 24.8358L176.844 26.7762L176.844 26.7761L172.235 24.8358ZM177.765 24.8358L173.156 26.7761L173.156 26.7762L177.765 24.8358ZM194.51 64.6044L199.118 62.6641L199.118 62.6641L194.51 64.6044ZM194.51 66.9335L199.118 68.8739L199.118 68.8738L194.51 66.9335ZM187.482 83.622L182.874 81.6815L178.35 92.4261L189.253 88.298L187.482 83.622ZM199.969 78.8944L198.198 74.2183L198.198 74.2184L199.969 78.8944ZM204.903 87.4423L208.068 91.3137L208.068 91.3136L204.903 87.4423ZM192.004 97.9852L188.84 94.1138L184.56 97.612L188.468 101.521L192.004 97.9852ZM195.404 101.386L198.94 104.921L202.475 101.386L198.94 97.8501L195.404 101.386ZM175.404 121.386L171.869 124.921L175.404 128.457L178.94 124.921L175.404 121.386ZM155.404 101.386L151.868 97.8511L148.334 101.387L151.869 104.921L155.404 101.386ZM158.788 97.9999L162.325 101.534L166.231 97.6257L161.952 94.1285L158.788 97.9999ZM145.871 87.4423L142.707 91.3136L142.707 91.3137L145.871 87.4423ZM150.806 78.8944L149.035 83.5705L149.035 83.5706L150.806 78.8944ZM162.37 83.2724L160.6 87.9485L171.502 92.0758L166.978 81.332L162.37 83.2724ZM155.49 66.9335L150.882 68.8738L150.882 68.8739L155.49 66.9335ZM155.49 64.6044L150.882 62.6641L150.882 62.6641L155.49 64.6044ZM186 124.269L186 129.269C185.448 129.269 185 128.822 185 128.269H190H195C195 123.299 190.97 119.27 186 119.269L186 124.269ZM190 128.269H185V134.269H190H195V128.269H190ZM190 134.269L185 134.269C185 133.717 185.447 133.269 186 133.269L186 138.269L186 143.269C190.97 143.269 195 139.24 195 134.27L190 134.269ZM186 138.269V133.269H165V138.269V143.269H186V138.269ZM165 138.269V133.269C165.553 133.269 166 133.717 166 134.269L161 134.269L156 134.27C156 139.24 160.029 143.269 165 143.269V138.269ZM161 134.269H166V128.269H161H156V134.269H161ZM161 128.269H166C166 128.822 165.552 129.269 165 129.269V124.269V119.269C160.029 119.269 156 123.299 156 128.269H161ZM165 124.269V129.269H186V124.269V119.269H165V124.269ZM172.235 24.8358L176.844 26.7761C176.156 28.408 173.844 28.408 173.156 26.7761L177.765 24.8358L182.373 22.8955C179.624 16.3682 170.376 16.3682 167.627 22.8955L172.235 24.8358ZM177.765 24.8358L173.156 26.7762L189.902 66.5447L194.51 64.6044L199.118 62.6641L182.373 22.8955L177.765 24.8358ZM194.51 64.6044L189.902 66.5447C189.693 66.0484 189.693 65.4895 189.902 64.9932L194.51 66.9335L199.118 68.8738C199.954 66.8885 199.954 64.6493 199.118 62.6641L194.51 64.6044ZM194.51 66.9335L189.902 64.9931L182.874 81.6815L187.482 83.622L192.091 85.5624L199.118 68.8739L194.51 66.9335ZM187.482 83.622L189.253 88.298L201.739 83.5705L199.969 78.8944L198.198 74.2184L185.712 78.9459L187.482 83.622ZM199.969 78.8944L201.739 83.5705C201.768 83.5596 201.791 83.5523 201.808 83.5475C201.825 83.5428 201.837 83.5403 201.843 83.5391C201.85 83.5379 201.852 83.5378 201.851 83.5379C201.849 83.538 201.845 83.5384 201.837 83.5383C201.83 83.5382 201.821 83.5378 201.81 83.5367C201.8 83.5356 201.789 83.5339 201.777 83.5315C201.754 83.5268 201.732 83.5201 201.715 83.5131C201.68 83.4989 201.672 83.4882 201.683 83.4981C201.688 83.503 201.697 83.5116 201.707 83.5246C201.718 83.5377 201.729 83.5532 201.739 83.5707C201.749 83.5881 201.757 83.6053 201.763 83.6209C201.769 83.6366 201.772 83.6485 201.774 83.6556C201.777 83.6702 201.772 83.6576 201.777 83.6203C201.779 83.6017 201.784 83.5801 201.792 83.5574C201.796 83.5462 201.8 83.5357 201.804 83.526C201.808 83.5163 201.813 83.5082 201.816 83.5018C201.82 83.4955 201.822 83.4916 201.823 83.4903C201.824 83.489 201.823 83.4911 201.818 83.4962C201.814 83.5014 201.806 83.5103 201.793 83.5227C201.781 83.535 201.763 83.5513 201.739 83.571L204.903 87.4423L208.068 91.3136C216.843 84.1407 208.8 70.2048 198.198 74.2183L199.969 78.8944ZM204.903 87.4423L201.739 83.5709L188.84 94.1138L192.004 97.9852L195.168 101.857L208.068 91.3137L204.903 87.4423ZM192.004 97.9852L188.468 101.521L191.869 104.921L195.404 101.386L198.94 97.8501L195.539 94.4497L192.004 97.9852ZM195.404 101.386L191.869 97.8501L171.869 117.85L175.404 121.386L178.94 124.921L198.94 104.921L195.404 101.386ZM175.404 121.386L178.94 117.85L158.94 97.8501L155.404 101.386L151.869 104.921L171.869 124.921L175.404 121.386ZM155.404 101.386L158.941 104.92L162.325 101.534L158.788 97.9999L155.252 94.4654L151.868 97.8511L155.404 101.386ZM158.788 97.9999L161.952 94.1285L149.035 83.5709L145.871 87.4423L142.707 91.3137L155.624 101.871L158.788 97.9999ZM145.871 87.4423L149.035 83.571C149.011 83.5513 148.994 83.535 148.981 83.5227C148.968 83.5103 148.96 83.5013 148.956 83.4962C148.952 83.4911 148.95 83.489 148.951 83.4903C148.952 83.4916 148.955 83.4954 148.958 83.5018C148.962 83.5082 148.966 83.5163 148.97 83.526C148.975 83.5357 148.979 83.5462 148.982 83.5573C148.99 83.5801 148.995 83.6017 148.998 83.6203C149.003 83.6575 148.998 83.6701 149.001 83.6555C149.002 83.6484 149.005 83.6364 149.011 83.6208C149.017 83.6052 149.025 83.588 149.035 83.5705C149.046 83.5531 149.056 83.5375 149.067 83.5245C149.077 83.5115 149.086 83.5028 149.092 83.498C149.103 83.4881 149.094 83.4989 149.059 83.513C149.042 83.5201 149.021 83.5267 148.997 83.5315C148.986 83.5338 148.974 83.5355 148.964 83.5366C148.953 83.5377 148.944 83.5382 148.937 83.5382C148.93 83.5383 148.925 83.538 148.923 83.5378C148.922 83.5377 148.924 83.5378 148.931 83.539C148.937 83.5403 148.949 83.5427 148.966 83.5475C148.983 83.5522 149.006 83.5595 149.035 83.5705L150.806 78.8944L152.576 74.2184C141.974 70.2041 133.932 84.1411 142.707 91.3136L145.871 87.4423ZM150.806 78.8944L149.035 83.5706L160.6 87.9485L162.37 83.2724L164.14 78.5962L152.576 74.2183L150.806 78.8944ZM162.37 83.2724L166.978 81.332L160.098 64.9931L155.49 66.9335L150.882 68.8739L157.762 85.2127L162.37 83.2724ZM155.49 66.9335L160.098 64.9932C160.307 65.4895 160.307 66.0484 160.098 66.5447L155.49 64.6044L150.882 62.6641C150.046 64.6493 150.046 66.8885 150.882 68.8738L155.49 66.9335ZM155.49 64.6044L160.098 66.5447L176.844 26.7762L172.235 24.8358L167.627 22.8955L150.882 62.6641L155.49 64.6044Z" fill="#474E52" mask="url(#path-2-inside-1_1236_16)"/>
<rect x="175.404" y="92.8452" width="12.0771" height="12.0771" transform="rotate(45 175.404 92.8452)" fill="#A1AEB6"/>
<path d="M174.064 41.7484C174.39 40.8858 175.61 40.8858 175.936 41.7484L184.867 65.416C184.953 65.6435 184.953 65.8946 184.867 66.1221L175.936 89.7897C175.61 90.6523 174.39 90.6523 174.064 89.7897L165.133 66.1221C165.047 65.8946 165.047 65.6435 165.133 65.416L174.064 41.7484Z" fill="#A1AEB6"/>
<path d="M174.06 51.8535C174.379 50.9758 175.621 50.9758 175.94 51.8535L180.876 65.4273C180.956 65.6481 180.956 65.89 180.876 66.1108L175.94 79.6846C175.621 80.5623 174.379 80.5623 174.06 79.6846L169.124 66.1108C169.044 65.89 169.044 65.6481 169.124 65.4273L174.06 51.8535Z" fill="#C3CFD9"/>
<rect x="175.404" y="96.3853" width="7.07076" height="7.07076" transform="rotate(45 175.404 96.3853)" fill="#C3CFD9"/>
</g>
<defs>
<clipPath id="clip0_1236_16">
<rect width="350" height="350" fill="white"/>
</clipPath>
</defs>
</svg>
