<svg width="350" height="350" viewBox="0 0 350 350" fill="none" xmlns="http://www.w3.org/2000/svg">
<g clip-path="url(#clip0_1236_16)">
<path d="M175.404 85.8853C179.546 85.8853 182.904 89.2431 182.904 93.3853V340.385C182.904 344.527 179.546 347.885 175.404 347.885C171.262 347.885 167.904 344.527 167.904 340.385V93.3853C167.904 89.2431 171.262 85.8853 175.404 85.8853Z" fill="#4A301F" stroke="#322116" stroke-width="5"/>
<mask id="path-2-inside-1_1236_16" fill="white">
<path d="M186 124.27C188.209 124.27 190 126.06 190 128.27V134.27C190 136.478 188.209 138.269 186 138.27H165C162.791 138.27 161 136.479 161 134.27V128.27C161 126.06 162.791 124.27 165 124.27H186ZM172.235 24.8359C173.266 22.3882 176.734 22.3882 177.765 24.8359L194.51 64.6045C194.823 65.349 194.823 66.1891 194.51 66.9336L187.482 83.6221L199.969 78.8945C205.269 76.888 209.291 83.8556 204.903 87.4424L192.004 97.9854L195.404 101.386L175.404 121.386L155.404 101.386L158.788 98L145.871 87.4424C141.483 83.8556 145.505 76.8878 150.806 78.8945L162.37 83.2725L155.49 66.9336C155.177 66.1891 155.177 65.349 155.49 64.6045L172.235 24.8359Z"/>
</mask>
<path d="M186 124.27C188.209 124.27 190 126.06 190 128.27V134.27C190 136.478 188.209 138.269 186 138.27H165C162.791 138.27 161 136.479 161 134.27V128.27C161 126.06 162.791 124.27 165 124.27H186ZM172.235 24.8359C173.266 22.3882 176.734 22.3882 177.765 24.8359L194.51 64.6045C194.823 65.349 194.823 66.1891 194.51 66.9336L187.482 83.6221L199.969 78.8945C205.269 76.888 209.291 83.8556 204.903 87.4424L192.004 97.9854L195.404 101.386L175.404 121.386L155.404 101.386L158.788 98L145.871 87.4424C141.483 83.8556 145.505 76.8878 150.806 78.8945L162.37 83.2725L155.49 66.9336C155.177 66.1891 155.177 65.349 155.49 64.6045L172.235 24.8359Z" fill="#818B91"/>
<path d="M186 124.27L186 119.27H186V124.27ZM190 134.27L195 134.27V134.27H190ZM186 138.27V143.27H186L186 138.27ZM161 134.27H156V134.27L161 134.27ZM172.235 24.8359L176.844 26.7763L176.844 26.7762L172.235 24.8359ZM177.765 24.8359L173.156 26.7762L173.156 26.7763L177.765 24.8359ZM194.51 64.6045L199.118 62.6642L199.118 62.6642L194.51 64.6045ZM194.51 66.9336L199.118 68.874L199.118 68.8739L194.51 66.9336ZM187.482 83.6221L182.874 81.6816L178.35 92.4262L189.253 88.2981L187.482 83.6221ZM199.969 78.8945L198.198 74.2184L198.198 74.2185L199.969 78.8945ZM204.903 87.4424L208.068 91.3138L208.068 91.3137L204.903 87.4424ZM192.004 97.9854L188.84 94.1139L184.56 97.6121L188.468 101.521L192.004 97.9854ZM195.404 101.386L198.94 104.921L202.475 101.386L198.94 97.8502L195.404 101.386ZM175.404 121.386L171.869 124.921L175.404 128.457L178.94 124.921L175.404 121.386ZM155.404 101.386L151.868 97.8512L148.334 101.387L151.869 104.921L155.404 101.386ZM158.788 98L162.325 101.535L166.231 97.6258L161.952 94.1286L158.788 98ZM145.871 87.4424L142.707 91.3137L142.707 91.3138L145.871 87.4424ZM150.806 78.8945L149.035 83.5706L149.035 83.5707L150.806 78.8945ZM162.37 83.2725L160.6 87.9486L171.502 92.0759L166.978 81.3321L162.37 83.2725ZM155.49 66.9336L150.882 68.8739L150.882 68.874L155.49 66.9336ZM155.49 64.6045L150.882 62.6642L150.882 62.6642L155.49 64.6045ZM186 124.27L186 129.27C185.448 129.27 185 128.822 185 128.27H190H195C195 123.299 190.97 119.27 186 119.27L186 124.27ZM190 128.27H185V134.27H190H195V128.27H190ZM190 134.27L185 134.269C185 133.717 185.447 133.27 186 133.27L186 138.27L186 143.27C190.97 143.269 195 139.24 195 134.27L190 134.27ZM186 138.27V133.27H165V138.27V143.27H186V138.27ZM165 138.27V133.27C165.553 133.27 166 133.717 166 134.269L161 134.27L156 134.27C156 139.24 160.029 143.27 165 143.27V138.27ZM161 134.27H166V128.27H161H156V134.27H161ZM161 128.27H166C166 128.822 165.552 129.27 165 129.27V124.27V119.27C160.029 119.27 156 123.299 156 128.27H161ZM165 124.27V129.27H186V124.27V119.27H165V124.27ZM172.235 24.8359L176.844 26.7762C176.156 28.4081 173.844 28.4081 173.156 26.7762L177.765 24.8359L182.373 22.8957C179.624 16.3683 170.376 16.3683 167.627 22.8957L172.235 24.8359ZM177.765 24.8359L173.156 26.7763L189.902 66.5448L194.51 64.6045L199.118 62.6642L182.373 22.8956L177.765 24.8359ZM194.51 64.6045L189.902 66.5448C189.693 66.0485 189.693 65.4896 189.902 64.9933L194.51 66.9336L199.118 68.8739C199.954 66.8886 199.954 64.6494 199.118 62.6642L194.51 64.6045ZM194.51 66.9336L189.902 64.9932L182.874 81.6816L187.482 83.6221L192.091 85.5625L199.118 68.874L194.51 66.9336ZM187.482 83.6221L189.253 88.2981L201.739 83.5706L199.969 78.8945L198.198 74.2185L185.712 78.946L187.482 83.6221ZM199.969 78.8945L201.739 83.5707C201.768 83.5597 201.791 83.5524 201.808 83.5476C201.825 83.5429 201.837 83.5404 201.843 83.5392C201.85 83.538 201.853 83.5379 201.851 83.538C201.849 83.5382 201.845 83.5385 201.837 83.5384C201.83 83.5383 201.821 83.5379 201.81 83.5368C201.8 83.5357 201.789 83.534 201.777 83.5317C201.754 83.5269 201.732 83.5202 201.715 83.5132C201.68 83.499 201.672 83.4883 201.683 83.4982C201.688 83.5031 201.697 83.5117 201.707 83.5247C201.718 83.5378 201.729 83.5533 201.739 83.5708C201.749 83.5882 201.757 83.6054 201.763 83.6211C201.769 83.6367 201.772 83.6486 201.774 83.6557C201.777 83.6703 201.772 83.6577 201.777 83.6204C201.779 83.6018 201.784 83.5802 201.792 83.5575C201.796 83.5463 201.8 83.5358 201.804 83.5261C201.808 83.5164 201.813 83.5083 201.816 83.5019C201.82 83.4956 201.822 83.4917 201.823 83.4904C201.824 83.4892 201.823 83.4912 201.818 83.4963C201.814 83.5015 201.806 83.5104 201.793 83.5228C201.781 83.5351 201.763 83.5514 201.739 83.5711L204.903 87.4424L208.068 91.3137C216.843 84.1408 208.8 70.2049 198.198 74.2184L199.969 78.8945ZM204.903 87.4424L201.739 83.571L188.84 94.1139L192.004 97.9854L195.168 101.857L208.068 91.3138L204.903 87.4424ZM192.004 97.9854L188.468 101.521L191.869 104.921L195.404 101.386L198.94 97.8502L195.539 94.4498L192.004 97.9854ZM195.404 101.386L191.869 97.8502L171.869 117.85L175.404 121.386L178.94 124.921L198.94 104.921L195.404 101.386ZM175.404 121.386L178.94 117.85L158.94 97.8502L155.404 101.386L151.869 104.921L171.869 124.921L175.404 121.386ZM155.404 101.386L158.941 104.92L162.325 101.535L158.788 98L155.252 94.4655L151.868 97.8512L155.404 101.386ZM158.788 98L161.952 94.1286L149.035 83.571L145.871 87.4424L142.707 91.3138L155.624 101.871L158.788 98ZM145.871 87.4424L149.035 83.5711C149.011 83.5514 148.994 83.5351 148.981 83.5228C148.968 83.5104 148.96 83.5015 148.956 83.4963C148.952 83.4912 148.95 83.4891 148.951 83.4904C148.952 83.4917 148.955 83.4956 148.958 83.5019C148.962 83.5083 148.966 83.5164 148.97 83.5261C148.975 83.5358 148.979 83.5463 148.983 83.5574C148.99 83.5802 148.995 83.6018 148.998 83.6204C149.003 83.6576 148.998 83.6702 149.001 83.6556C149.002 83.6485 149.005 83.6366 149.011 83.6209C149.017 83.6053 149.025 83.5881 149.035 83.5707C149.046 83.5532 149.056 83.5376 149.067 83.5246C149.077 83.5116 149.086 83.503 149.092 83.4981C149.103 83.4882 149.094 83.499 149.059 83.5131C149.042 83.5202 149.021 83.5268 148.997 83.5316C148.986 83.5339 148.974 83.5356 148.964 83.5367C148.953 83.5378 148.944 83.5383 148.937 83.5383C148.93 83.5384 148.925 83.5381 148.923 83.538C148.922 83.5378 148.924 83.5379 148.931 83.5392C148.937 83.5404 148.949 83.5428 148.966 83.5476C148.983 83.5523 149.006 83.5596 149.035 83.5706L150.806 78.8945L152.576 74.2185C141.974 70.2043 133.932 84.1412 142.707 91.3137L145.871 87.4424ZM150.806 78.8945L149.035 83.5707L160.6 87.9486L162.37 83.2725L164.14 78.5963L152.576 74.2184L150.806 78.8945ZM162.37 83.2725L166.978 81.3321L160.098 64.9932L155.49 66.9336L150.882 68.874L157.762 85.2128L162.37 83.2725ZM155.49 66.9336L160.098 64.9933C160.307 65.4896 160.307 66.0485 160.098 66.5448L155.49 64.6045L150.882 62.6642C150.046 64.6494 150.046 66.8886 150.882 68.8739L155.49 66.9336ZM155.49 64.6045L160.098 66.5448L176.844 26.7763L172.235 24.8359L167.627 22.8956L150.882 62.6642L155.49 64.6045Z" fill="#474E52" mask="url(#path-2-inside-1_1236_16)"/>
<rect x="175.404" y="92.8452" width="12.0771" height="12.0771" transform="rotate(45 175.404 92.8452)" fill="#A1AEB6"/>
<path d="M174.064 41.7484C174.39 40.8858 175.61 40.8858 175.936 41.7484L184.867 65.416C184.953 65.6435 184.953 65.8946 184.867 66.1221L175.936 89.7897C175.61 90.6523 174.39 90.6523 174.064 89.7897L165.133 66.1221C165.047 65.8946 165.047 65.6435 165.133 65.416L174.064 41.7484Z" fill="#A1AEB6"/>
<path d="M174.06 51.8535C174.379 50.9758 175.621 50.9758 175.94 51.8535L180.876 65.4273C180.956 65.6481 180.956 65.89 180.876 66.1108L175.94 79.6846C175.621 80.5623 174.379 80.5623 174.06 79.6846L169.124 66.1108C169.044 65.89 169.044 65.6481 169.124 65.4273L174.06 51.8535Z" fill="#C3CFD9"/>
<rect x="175.404" y="96.3853" width="7.07076" height="7.07076" transform="rotate(45 175.404 96.3853)" fill="#C3CFD9"/>
</g>
<defs>
<clipPath id="clip0_1236_16">
<rect width="350" height="350" fill="white"/>
</clipPath>
</defs>
</svg>
