<svg width="150" height="150" viewBox="0 0 150 150" fill="none" xmlns="http://www.w3.org/2000/svg">
<mask id="path-1-inside-1_1212_70707" fill="white">
<path d="M78.7959 15.2246L81.0137 15.9014L82.584 17.0479L83.667 18.7119L84.3047 21.0615L84.5176 25.9092V139.091L84.3047 143.938L83.667 146.288L82.584 147.952L81.0137 149.099L78.7959 149.775L74.2207 150L69.6455 149.775L67.4277 149.099L65.8574 147.952L64.7744 146.288L64.1367 143.938L63.9238 139.091V25.9092L64.1367 21.0615L64.7744 18.7119L65.8574 17.0479L67.4277 15.9014L69.6455 15.2246L74.2207 15L78.7959 15.2246Z"/>
</mask>
<path d="M78.7959 15.2246L81.0137 15.9014L82.584 17.0479L83.667 18.7119L84.3047 21.0615L84.5176 25.9092V139.091L84.3047 143.938L83.667 146.288L82.584 147.952L81.0137 149.099L78.7959 149.775L74.2207 150L69.6455 149.775L67.4277 149.099L65.8574 147.952L64.7744 146.288L64.1367 143.938L63.9238 139.091V25.9092L64.1367 21.0615L64.7744 18.7119L65.8574 17.0479L67.4277 15.9014L69.6455 15.2246L74.2207 15L78.7959 15.2246Z" fill="#4A301F"/>
<path d="M78.7959 15.2246L80.2552 10.4423L79.6613 10.2611L79.0411 10.2306L78.7959 15.2246ZM81.0137 15.9014L83.962 11.8631L83.2803 11.3654L82.473 11.1191L81.0137 15.9014ZM82.584 17.0479L86.7746 14.3205L86.2738 13.551L85.5323 13.0096L82.584 17.0479ZM83.667 18.7119L88.4924 17.4023L88.2865 16.6435L87.8576 15.9846L83.667 18.7119ZM84.3047 21.0615L89.2999 20.8422L89.2755 20.2876L89.1301 19.7519L84.3047 21.0615ZM84.5176 25.9092H89.5176V25.7994L89.5128 25.6898L84.5176 25.9092ZM84.5176 139.091L89.5128 139.31L89.5176 139.201V139.091H84.5176ZM84.3047 143.938L89.1301 145.248L89.2755 144.712L89.2999 144.158L84.3047 143.938ZM83.667 146.288L87.8576 149.015L88.2865 148.356L88.4924 147.598L83.667 146.288ZM82.584 147.952L85.5323 151.99L86.2738 151.449L86.7746 150.68L82.584 147.952ZM81.0137 149.099L82.473 153.881L83.2803 153.635L83.962 153.137L81.0137 149.099ZM78.7959 149.775L79.0411 154.769L79.6613 154.739L80.2552 154.558L78.7959 149.775ZM74.2207 150L73.9755 154.994L74.2207 155.006L74.4659 154.994L74.2207 150ZM69.6455 149.775L68.1862 154.558L68.7801 154.739L69.4003 154.769L69.6455 149.775ZM67.4277 149.099L64.4794 153.137L65.1611 153.635L65.9684 153.881L67.4277 149.099ZM65.8574 147.952L61.6668 150.68L62.1676 151.449L62.9091 151.99L65.8574 147.952ZM64.7744 146.288L59.949 147.598L60.1549 148.356L60.5838 149.015L64.7744 146.288ZM64.1367 143.938L59.1415 144.158L59.1659 144.712L59.3113 145.248L64.1367 143.938ZM63.9238 139.091H58.9238V139.201L58.9286 139.31L63.9238 139.091ZM63.9238 25.9092L58.9286 25.6898L58.9238 25.7994V25.9092H63.9238ZM64.1367 21.0615L59.3113 19.7519L59.1659 20.2876L59.1415 20.8422L64.1367 21.0615ZM64.7744 18.7119L60.5838 15.9846L60.1549 16.6435L59.949 17.4023L64.7744 18.7119ZM65.8574 17.0479L62.9091 13.0096L62.1676 13.551L61.6668 14.3205L65.8574 17.0479ZM67.4277 15.9014L65.9684 11.1191L65.1611 11.3654L64.4794 11.8631L67.4277 15.9014ZM69.6455 15.2246L69.4003 10.2306L68.7801 10.2611L68.1862 10.4423L69.6455 15.2246ZM74.2207 15L74.4659 10.006L74.2207 9.99398L73.9755 10.006L74.2207 15ZM78.7959 15.2246L77.3366 20.0069L79.5543 20.6837L81.0137 15.9014L82.473 11.1191L80.2552 10.4423L78.7959 15.2246ZM81.0137 15.9014L78.0654 19.9396L79.6357 21.0861L82.584 17.0479L85.5323 13.0096L83.962 11.8631L81.0137 15.9014ZM82.584 17.0479L78.3933 19.7752L79.4763 21.4393L83.667 18.7119L87.8576 15.9846L86.7746 14.3205L82.584 17.0479ZM83.667 18.7119L78.8416 20.0216L79.4793 22.3712L84.3047 21.0615L89.1301 19.7519L88.4924 17.4023L83.667 18.7119ZM84.3047 21.0615L79.3095 21.2809L79.5224 26.1285L84.5176 25.9092L89.5128 25.6898L89.2999 20.8422L84.3047 21.0615ZM84.5176 25.9092H79.5176V139.091H84.5176H89.5176V25.9092H84.5176ZM84.5176 139.091L79.5224 138.871L79.3095 143.719L84.3047 143.938L89.2999 144.158L89.5128 139.31L84.5176 139.091ZM84.3047 143.938L79.4793 142.629L78.8416 144.978L83.667 146.288L88.4924 147.598L89.1301 145.248L84.3047 143.938ZM83.667 146.288L79.4763 143.561L78.3933 145.225L82.584 147.952L86.7746 150.68L87.8576 149.015L83.667 146.288ZM82.584 147.952L79.6357 143.914L78.0654 145.06L81.0137 149.099L83.962 153.137L85.5323 151.99L82.584 147.952ZM81.0137 149.099L79.5543 144.316L77.3366 144.993L78.7959 149.775L80.2552 154.558L82.473 153.881L81.0137 149.099ZM78.7959 149.775L78.5507 144.781L73.9755 145.006L74.2207 150L74.4659 154.994L79.0411 154.769L78.7959 149.775ZM74.2207 150L74.4659 145.006L69.8907 144.781L69.6455 149.775L69.4003 154.769L73.9755 154.994L74.2207 150ZM69.6455 149.775L71.1048 144.993L68.8871 144.316L67.4277 149.099L65.9684 153.881L68.1862 154.558L69.6455 149.775ZM67.4277 149.099L70.3761 145.06L68.8057 143.914L65.8574 147.952L62.9091 151.99L64.4794 153.137L67.4277 149.099ZM65.8574 147.952L70.0481 145.225L68.9651 143.561L64.7744 146.288L60.5838 149.015L61.6668 150.68L65.8574 147.952ZM64.7744 146.288L69.5998 144.978L68.9622 142.629L64.1367 143.938L59.3113 145.248L59.949 147.598L64.7744 146.288ZM64.1367 143.938L69.1319 143.719L68.919 138.871L63.9238 139.091L58.9286 139.31L59.1415 144.158L64.1367 143.938ZM63.9238 139.091H68.9238V25.9092H63.9238H58.9238V139.091H63.9238ZM63.9238 25.9092L68.919 26.1285L69.1319 21.2809L64.1367 21.0615L59.1415 20.8422L58.9286 25.6898L63.9238 25.9092ZM64.1367 21.0615L68.9622 22.3712L69.5998 20.0216L64.7744 18.7119L59.949 17.4023L59.3113 19.7519L64.1367 21.0615ZM64.7744 18.7119L68.9651 21.4393L70.0481 19.7752L65.8574 17.0479L61.6668 14.3205L60.5838 15.9846L64.7744 18.7119ZM65.8574 17.0479L68.8057 21.0861L70.3761 19.9396L67.4277 15.9014L64.4794 11.8631L62.9091 13.0096L65.8574 17.0479ZM67.4277 15.9014L68.8871 20.6837L71.1048 20.0069L69.6455 15.2246L68.1862 10.4423L65.9684 11.1191L67.4277 15.9014ZM69.6455 15.2246L69.8907 20.2186L74.4659 19.994L74.2207 15L73.9755 10.006L69.4003 10.2306L69.6455 15.2246ZM74.2207 15L73.9755 19.994L78.5507 20.2186L78.7959 15.2246L79.0411 10.2306L74.4659 10.006L74.2207 15Z" fill="#322116" mask="url(#path-1-inside-1_1212_70707)"/>
<mask id="path-3-inside-2_1212_70707" fill="white">
<path d="M82.415 24.1528C85.889 24.1529 88.9106 26.0885 90.4609 28.9399L97.5898 27.1665L111.145 25.7026C111.821 25.6296 112.411 26.1599 112.411 26.8403V59.7603C112.411 60.444 111.82 60.9769 111.141 60.9019C107.934 60.5472 99.501 59.6508 95.6982 59.603C95.5859 59.6016 95.4794 59.5845 95.3721 59.5513L89.9932 57.8853C88.3472 60.3117 85.5679 61.9067 82.415 61.9067H64.1094C59.4324 61.9066 55.5776 58.3981 55.0273 53.8696C41.6159 46.5121 31.7584 48.0611 6.38672 54.0044C2.53164 54.9074 -0.520139 50.8486 1.81348 47.6499C6.6556 41.0129 11.0294 38.2344 17.5693 33.5864C30.0113 24.7439 42.9553 24.074 57.6533 26.8179C59.3083 25.1708 61.59 24.1529 64.1094 24.1528H82.415Z"/>
</mask>
<path d="M82.415 24.1528C85.889 24.1529 88.9106 26.0885 90.4609 28.9399L97.5898 27.1665L111.145 25.7026C111.821 25.6296 112.411 26.1599 112.411 26.8403V59.7603C112.411 60.444 111.82 60.9769 111.141 60.9019C107.934 60.5472 99.501 59.6508 95.6982 59.603C95.5859 59.6016 95.4794 59.5845 95.3721 59.5513L89.9932 57.8853C88.3472 60.3117 85.5679 61.9067 82.415 61.9067H64.1094C59.4324 61.9066 55.5776 58.3981 55.0273 53.8696C41.6159 46.5121 31.7584 48.0611 6.38672 54.0044C2.53164 54.9074 -0.520139 50.8486 1.81348 47.6499C6.6556 41.0129 11.0294 38.2344 17.5693 33.5864C30.0113 24.7439 42.9553 24.074 57.6533 26.8179C59.3083 25.1708 61.59 24.1529 64.1094 24.1528H82.415Z" fill="#464A4A"/>
<path d="M82.415 24.1528L82.4152 19.1528H82.415V24.1528ZM90.4609 28.9399L86.0682 31.3282L87.9153 34.7256L91.668 33.7921L90.4609 28.9399ZM97.5898 27.1665L97.053 22.1954L96.7138 22.232L96.3828 22.3144L97.5898 27.1665ZM111.145 25.7026L110.608 20.7315L110.608 20.7315L111.145 25.7026ZM112.411 26.8403L107.411 26.8403V26.8403H112.411ZM112.411 59.7603L117.411 59.7603V59.7603H112.411ZM111.141 60.9019L110.591 65.8715L110.592 65.8717L111.141 60.9019ZM95.6982 59.603L95.6354 64.6026L95.6355 64.6026L95.6982 59.603ZM95.3721 59.5513L93.8927 64.3274L93.8933 64.3276L95.3721 59.5513ZM89.9932 57.8853L91.4725 53.1091L87.9346 52.0133L85.8554 55.0783L89.9932 57.8853ZM82.415 61.9067V66.9067H82.4152L82.415 61.9067ZM64.1094 61.9067L64.1092 66.9067H64.1094V61.9067ZM55.0273 53.8696L59.9908 53.2665L59.6814 50.7199L57.4322 49.486L55.0273 53.8696ZM6.38672 54.0044L5.24634 49.1362L5.24634 49.1362L6.38672 54.0044ZM1.81348 47.6499L-2.22579 44.703L-2.2258 44.703L1.81348 47.6499ZM17.5693 33.5864L14.6728 29.5109L14.6728 29.5109L17.5693 33.5864ZM57.6533 26.8179L56.7358 31.733L59.3183 32.2151L61.1804 30.3618L57.6533 26.8179ZM64.1094 24.1528V19.1528H64.1092L64.1094 24.1528ZM82.415 24.1528L82.4149 29.1528C83.9841 29.1529 85.3578 30.0215 86.0682 31.3282L90.4609 28.9399L94.8537 26.5517C92.4635 22.1554 87.7939 19.153 82.4152 19.1528L82.415 24.1528ZM90.4609 28.9399L91.668 33.7921L98.7969 32.0186L97.5898 27.1665L96.3828 22.3144L89.2539 24.0878L90.4609 28.9399ZM97.5898 27.1665L98.1267 32.1376L111.681 30.6737L111.145 25.7026L110.608 20.7315L97.053 22.1954L97.5898 27.1665ZM111.145 25.7026L111.681 30.6738C109.399 30.92 107.411 29.1313 107.411 26.8403L112.411 26.8403L117.411 26.8404C117.411 23.1885 114.243 20.3393 110.608 20.7315L111.145 25.7026ZM112.411 26.8403H107.411V59.7603H112.411H117.411V26.8403H112.411ZM112.411 59.7603L107.411 59.7602C107.411 57.4867 109.387 55.6779 111.689 55.932L111.141 60.9019L110.592 65.8717C114.253 66.2758 117.411 63.4013 117.411 59.7603L112.411 59.7603ZM111.141 60.9019L111.69 55.9322C108.586 55.5888 99.8661 54.655 95.761 54.6034L95.6982 59.603L95.6355 64.6026C99.136 64.6466 107.283 65.5056 110.591 65.8715L111.141 60.9019ZM95.6982 59.603L95.7611 54.6034C96.1387 54.6082 96.5087 54.669 96.8508 54.775L95.3721 59.5513L93.8933 64.3276C94.4501 64.5 95.0331 64.5951 95.6354 64.6026L95.6982 59.603ZM95.3721 59.5513L96.8514 54.7751L91.4725 53.1091L89.9932 57.8853L88.5138 62.6614L93.8927 64.3274L95.3721 59.5513ZM89.9932 57.8853L85.8554 55.0783C85.0992 56.193 83.8393 56.9067 82.4149 56.9067L82.415 61.9067L82.4152 66.9067C87.2966 66.9066 91.5951 64.4303 94.1309 60.6922L89.9932 57.8853ZM82.415 61.9067V56.9067H64.1094V61.9067V66.9067H82.415V61.9067ZM64.1094 61.9067L64.1096 56.9067C61.9933 56.9067 60.2401 55.318 59.9908 53.2665L55.0273 53.8696L50.0639 54.4728C50.9152 61.4783 56.8714 66.9065 64.1092 66.9067L64.1094 61.9067ZM55.0273 53.8696L57.4322 49.486C49.9896 45.4029 43.2973 43.7138 35.0483 43.9513C27.1395 44.1789 17.8256 46.1895 5.24634 49.1362L6.38672 54.0044L7.5271 58.8726C20.3195 55.876 28.6202 54.1404 35.336 53.9471C41.7115 53.7636 46.6537 54.9788 52.6225 58.2533L55.0273 53.8696ZM6.38672 54.0044L5.24634 49.1362C5.24442 49.1366 5.27503 49.1298 5.33082 49.1336C5.38526 49.1374 5.44605 49.1501 5.5073 49.1736C5.62379 49.2182 5.72914 49.2962 5.81348 49.4114C5.89921 49.5284 5.994 49.73 6.00019 50.0079C6.00714 50.3201 5.89738 50.5356 5.85275 50.5968L1.81348 47.6499L-2.2258 44.703C-4.77805 48.2013 -4.38796 52.406 -2.2548 55.3192C-0.172702 58.1627 3.55646 59.8027 7.5271 58.8726L6.38672 54.0044ZM1.81348 47.6499L5.85275 50.5968C10.1325 44.7307 13.7966 42.402 20.4659 37.662L17.5693 33.5864L14.6728 29.5109C8.26228 34.0669 3.17875 37.2951 -2.22579 44.703L1.81348 47.6499ZM17.5693 33.5864L20.4658 37.662C31.3886 29.8992 42.7705 29.1259 56.7358 31.733L57.6533 26.8179L58.5709 21.9028C43.14 19.0222 28.6341 19.5886 14.6728 29.5109L17.5693 33.5864ZM57.6533 26.8179L61.1804 30.3618C61.9364 29.6094 62.9647 29.1529 64.1096 29.1528L64.1094 24.1528L64.1092 19.1528C60.2153 19.153 56.6801 20.7321 54.1262 23.2739L57.6533 26.8179ZM64.1094 24.1528V29.1528H82.415V24.1528V19.1528H64.1094V24.1528Z" fill="#2B3333" mask="url(#path-3-inside-2_1212_70707)"/>
<rect x="64.8506" y="34.2319" width="18.3051" height="18.3051" rx="3.4322" fill="#515656"/>
<path d="M39.4981 33.8006C48.6507 32.6565 53.2276 34.946 63.5237 36.0892L86.5548 39.5595C86.7196 39.5843 86.8876 39.5729 87.047 39.5259L94.5788 37.3095L101.922 35.8795C102.663 35.7353 103.341 36.3372 103.287 37.0908L102.822 43.6017L102.822 49.7188C102.822 50.4152 102.206 50.947 101.517 50.8451L94.744 49.8429C94.6345 49.8267 94.5277 49.7946 94.4272 49.7478L87.755 46.6378C87.5108 46.524 87.2348 46.4997 86.9755 46.5692L81.4566 48.0488C81.3245 48.0842 81.1879 48.0909 81.0514 48.1021C79.5372 48.2267 76.2343 50.8911 64.9788 49.848C64.7785 49.8295 64.5791 49.755 64.4149 49.6381C53.262 41.6968 45.314 37.7666 23.6866 42.0224C22.5256 42.2508 21.8105 40.8206 22.7568 40.1126C27.2208 36.7727 31.8737 34.7536 39.4981 33.8006Z" fill="#515656"/>
</svg>
