<svg width="150" height="150" viewBox="0 0 150 150" fill="none" xmlns="http://www.w3.org/2000/svg">
<mask id="path-1-inside-1_1228_70664" fill="white">
<path d="M78.9297 15.2246L81.1475 15.9014L82.7178 17.0479L83.7998 18.7119L84.4385 21.0615L84.6504 25.9092V139.091L84.4385 143.938L83.7998 146.288L82.7178 147.952L81.1475 149.099L78.9297 149.775L74.3535 150L69.7783 149.775L67.5605 149.099L65.9902 147.952L64.9082 146.288L64.2695 143.938L64.0576 139.091V25.9092L64.2695 21.0615L64.9082 18.7119L65.9902 17.0479L67.5605 15.9014L69.7783 15.2246L74.3535 15L78.9297 15.2246Z"/>
</mask>
<path d="M78.9297 15.2246L81.1475 15.9014L82.7178 17.0479L83.7998 18.7119L84.4385 21.0615L84.6504 25.9092V139.091L84.4385 143.938L83.7998 146.288L82.7178 147.952L81.1475 149.099L78.9297 149.775L74.3535 150L69.7783 149.775L67.5605 149.099L65.9902 147.952L64.9082 146.288L64.2695 143.938L64.0576 139.091V25.9092L64.2695 21.0615L64.9082 18.7119L65.9902 17.0479L67.5605 15.9014L69.7783 15.2246L74.3535 15L78.9297 15.2246Z" fill="#4A301F"/>
<path d="M78.9297 15.2246L80.389 10.4423L79.7951 10.2611L79.1748 10.2306L78.9297 15.2246ZM81.1475 15.9014L84.0958 11.8631L83.4141 11.3654L82.6068 11.1191L81.1475 15.9014ZM82.7178 17.0479L86.9095 14.3222L86.4085 13.5516L85.6661 13.0096L82.7178 17.0479ZM83.7998 18.7119L88.6247 17.4004L88.419 16.6437L87.9916 15.9863L83.7998 18.7119ZM84.4385 21.0615L89.4337 20.8432L89.4094 20.2871L89.2634 19.75L84.4385 21.0615ZM84.6504 25.9092H89.6504V25.7999L89.6456 25.6908L84.6504 25.9092ZM84.6504 139.091L89.6456 139.309L89.6504 139.2V139.091H84.6504ZM84.4385 143.938L89.2634 145.25L89.4094 144.713L89.4337 144.157L84.4385 143.938ZM83.7998 146.288L87.9916 149.014L88.419 148.356L88.6247 147.6L83.7998 146.288ZM82.7178 147.952L85.6661 151.99L86.4085 151.448L86.9095 150.678L82.7178 147.952ZM81.1475 149.099L82.6068 153.881L83.4141 153.635L84.0958 153.137L81.1475 149.099ZM78.9297 149.775L79.1748 154.769L79.7951 154.739L80.389 154.558L78.9297 149.775ZM74.3535 150L74.1083 154.994L74.3535 155.006L74.5986 154.994L74.3535 150ZM69.7783 149.775L68.319 154.558L68.9129 154.739L69.5332 154.769L69.7783 149.775ZM67.5605 149.099L64.6122 153.137L65.2939 153.635L66.1012 153.881L67.5605 149.099ZM65.9902 147.952L61.7985 150.678L62.2995 151.448L63.0419 151.99L65.9902 147.952ZM64.9082 146.288L60.0833 147.6L60.289 148.356L60.7164 149.014L64.9082 146.288ZM64.2695 143.938L59.2743 144.157L59.2986 144.713L59.4446 145.25L64.2695 143.938ZM64.0576 139.091H59.0576V139.2L59.0624 139.309L64.0576 139.091ZM64.0576 25.9092L59.0624 25.6908L59.0576 25.7999V25.9092H64.0576ZM64.2695 21.0615L59.4446 19.75L59.2986 20.2871L59.2743 20.8432L64.2695 21.0615ZM64.9082 18.7119L60.7164 15.9863L60.289 16.6437L60.0833 17.4004L64.9082 18.7119ZM65.9902 17.0479L63.0419 13.0096L62.2995 13.5516L61.7985 14.3222L65.9902 17.0479ZM67.5605 15.9014L66.1012 11.1191L65.2939 11.3654L64.6122 11.8631L67.5605 15.9014ZM69.7783 15.2246L69.5332 10.2306L68.9129 10.2611L68.319 10.4423L69.7783 15.2246ZM74.3535 15L74.5986 10.006L74.3535 9.99398L74.1083 10.006L74.3535 15ZM78.9297 15.2246L77.4704 20.0069L79.6881 20.6837L81.1475 15.9014L82.6068 11.1191L80.389 10.4423L78.9297 15.2246ZM81.1475 15.9014L78.1991 19.9396L79.7695 21.0861L82.7178 17.0479L85.6661 13.0096L84.0958 11.8631L81.1475 15.9014ZM82.7178 17.0479L78.526 19.7735L79.608 21.4375L83.7998 18.7119L87.9916 15.9863L86.9095 14.3222L82.7178 17.0479ZM83.7998 18.7119L78.9749 20.0234L79.6135 22.373L84.4385 21.0615L89.2634 19.75L88.6247 17.4004L83.7998 18.7119ZM84.4385 21.0615L79.4432 21.2799L79.6552 26.1275L84.6504 25.9092L89.6456 25.6908L89.4337 20.8432L84.4385 21.0615ZM84.6504 25.9092H79.6504V139.091H84.6504H89.6504V25.9092H84.6504ZM84.6504 139.091L79.6552 138.872L79.4432 143.72L84.4385 143.938L89.4337 144.157L89.6456 139.309L84.6504 139.091ZM84.4385 143.938L79.6135 142.627L78.9749 144.977L83.7998 146.288L88.6247 147.6L89.2634 145.25L84.4385 143.938ZM83.7998 146.288L79.608 143.562L78.526 145.227L82.7178 147.952L86.9095 150.678L87.9916 149.014L83.7998 146.288ZM82.7178 147.952L79.7695 143.914L78.1991 145.06L81.1475 149.099L84.0958 153.137L85.6661 151.99L82.7178 147.952ZM81.1475 149.099L79.6881 144.316L77.4704 144.993L78.9297 149.775L80.389 154.558L82.6068 153.881L81.1475 149.099ZM78.9297 149.775L78.6846 144.781L74.1084 145.006L74.3535 150L74.5986 154.994L79.1748 154.769L78.9297 149.775ZM74.3535 150L74.5987 145.006L70.0235 144.781L69.7783 149.775L69.5332 154.769L74.1083 154.994L74.3535 150ZM69.7783 149.775L71.2376 144.993L69.0199 144.316L67.5605 149.099L66.1012 153.881L68.319 154.558L69.7783 149.775ZM67.5605 149.099L70.5089 145.06L68.9386 143.914L65.9902 147.952L63.0419 151.99L64.6122 153.137L67.5605 149.099ZM65.9902 147.952L70.182 145.227L69.1 143.562L64.9082 146.288L60.7164 149.014L61.7985 150.678L65.9902 147.952ZM64.9082 146.288L69.7331 144.977L69.0945 142.627L64.2695 143.938L59.4446 145.25L60.0833 147.6L64.9082 146.288ZM64.2695 143.938L69.2648 143.72L69.0528 138.872L64.0576 139.091L59.0624 139.309L59.2743 144.157L64.2695 143.938ZM64.0576 139.091H69.0576V25.9092H64.0576H59.0576V139.091H64.0576ZM64.0576 25.9092L69.0528 26.1275L69.2648 21.2799L64.2695 21.0615L59.2743 20.8432L59.0624 25.6908L64.0576 25.9092ZM64.2695 21.0615L69.0945 22.373L69.7331 20.0234L64.9082 18.7119L60.0833 17.4004L59.4446 19.75L64.2695 21.0615ZM64.9082 18.7119L69.1 21.4375L70.182 19.7735L65.9902 17.0479L61.7985 14.3222L60.7164 15.9863L64.9082 18.7119ZM65.9902 17.0479L68.9386 21.0861L70.5089 19.9396L67.5605 15.9014L64.6122 11.8631L63.0419 13.0096L65.9902 17.0479ZM67.5605 15.9014L69.0199 20.6837L71.2376 20.0069L69.7783 15.2246L68.319 10.4423L66.1012 11.1191L67.5605 15.9014ZM69.7783 15.2246L70.0235 20.2186L74.5987 19.994L74.3535 15L74.1083 10.006L69.5332 10.2306L69.7783 15.2246ZM74.3535 15L74.1084 19.994L78.6846 20.2186L78.9297 15.2246L79.1748 10.2306L74.5986 10.006L74.3535 15Z" fill="#322116" mask="url(#path-1-inside-1_1228_70664)"/>
<mask id="path-3-outside-2_1228_70664" maskUnits="userSpaceOnUse" x="48" y="2" width="53" height="67" fill="black">
<rect fill="white" x="48" y="2" width="53" height="67"/>
<path fill-rule="evenodd" clip-rule="evenodd" d="M93.1868 57.595L92.9032 57.595C92.1139 57.595 91.3847 58.0167 90.991 58.7008C90.5972 59.3849 89.868 59.8066 89.0787 59.8066L84.3383 59.8066C83.831 59.8066 83.4198 60.2178 83.4198 60.7251C83.4198 60.8138 83.407 60.9019 83.3817 60.9869L83.2716 61.3572C82.821 62.8723 81.4282 63.9111 79.8475 63.9111L68.6583 63.9111L68.5053 63.9111C66.9424 63.9111 65.5504 62.9227 65.0352 61.4471L64.8801 61.0028C64.8468 60.9075 64.8298 60.8072 64.8298 60.7062C64.8298 60.2094 64.427 59.8066 63.9302 59.8066L63.5468 59.8066L59.535 59.8066C58.7005 59.8066 57.9205 59.3923 57.4534 58.7008L57.4253 58.6593C56.9757 57.9938 56.2251 57.595 55.422 57.595C54.0844 57.595 53 56.5107 53 55.1731L53 54.5452L53 31.5354C53 30.6798 53.1874 29.8372 53.5704 29.0722C56.9092 22.4028 63.9638 10.655 72.3235 8.15986C73.0024 7.95721 73.7238 7.95018 74.4116 8.12054C84.0799 10.5154 91.3461 22.2697 94.7035 29.0959C95.0722 29.8457 95.25 30.6687 95.25 31.5043L95.25 54.5452L95.25 55.5319C95.25 56.6713 94.3263 57.595 93.1868 57.595Z"/>
</mask>
<path fill-rule="evenodd" clip-rule="evenodd" d="M93.1868 57.595L92.9032 57.595C92.1139 57.595 91.3847 58.0167 90.991 58.7008C90.5972 59.3849 89.868 59.8066 89.0787 59.8066L84.3383 59.8066C83.831 59.8066 83.4198 60.2178 83.4198 60.7251C83.4198 60.8138 83.407 60.9019 83.3817 60.9869L83.2716 61.3572C82.821 62.8723 81.4282 63.9111 79.8475 63.9111L68.6583 63.9111L68.5053 63.9111C66.9424 63.9111 65.5504 62.9227 65.0352 61.4471L64.8801 61.0028C64.8468 60.9075 64.8298 60.8072 64.8298 60.7062C64.8298 60.2094 64.427 59.8066 63.9302 59.8066L63.5468 59.8066L59.535 59.8066C58.7005 59.8066 57.9205 59.3923 57.4534 58.7008L57.4253 58.6593C56.9757 57.9938 56.2251 57.595 55.422 57.595C54.0844 57.595 53 56.5107 53 55.1731L53 54.5452L53 31.5354C53 30.6798 53.1874 29.8372 53.5704 29.0722C56.9092 22.4028 63.9638 10.655 72.3235 8.15986C73.0024 7.95721 73.7238 7.95018 74.4116 8.12054C84.0799 10.5154 91.3461 22.2697 94.7035 29.0959C95.0722 29.8457 95.25 30.6687 95.25 31.5043L95.25 54.5452L95.25 55.5319C95.25 56.6713 94.3263 57.595 93.1868 57.595Z" fill="#5D6262"/>
<path d="M68.6583 63.9111L68.6583 58.9111L68.6583 63.9111ZM63.5468 59.8066L63.5468 64.8066L63.5468 59.8066ZM53 54.5452L48 54.5452L53 54.5452ZM95.25 54.5452L90.25 54.5452L95.25 54.5452ZM95.25 55.5319L100.25 55.5319L95.25 55.5319ZM94.7035 29.0959L90.2167 31.3026L94.7035 29.0959ZM57.4253 58.6593L53.2822 61.4584L57.4253 58.6593ZM63.9302 59.8066L63.9302 64.8066L63.9302 59.8066ZM64.8801 61.0028L69.6006 59.3547L64.8801 61.0028ZM68.5053 63.9111L68.5053 68.9111L68.5053 63.9111ZM83.3817 60.9869L78.5892 59.5616L83.3817 60.9869ZM84.3383 59.8066L84.3383 64.8066L84.3383 59.8066ZM89.0787 59.8066L89.0787 54.8066L89.0787 59.8066ZM83.2716 61.3572L78.479 59.9318L83.2716 61.3572ZM79.8475 63.9111L79.8475 58.9111L79.8475 63.9111ZM57.4534 58.7008L53.3103 61.4999L57.4534 58.7008ZM92.9032 57.595L92.9032 62.595L93.1868 62.595L93.1868 57.595L93.1868 52.595L92.9032 52.595L92.9032 57.595ZM84.3383 59.8066L84.3383 64.8066L89.0787 64.8066L89.0787 59.8066L89.0787 54.8066L84.3383 54.8066L84.3383 59.8066ZM83.3817 60.9869L78.5892 59.5616L78.479 59.9318L83.2716 61.3572L88.0641 62.7825L88.1742 62.4123L83.3817 60.9869ZM79.8475 63.9111L79.8475 58.9111L68.6583 58.9111L68.6583 63.9111L68.6583 68.9111L79.8475 68.9111L79.8475 63.9111ZM68.6583 63.9111L68.6583 58.9111L68.5053 58.9111L68.5053 63.9111L68.5053 68.9111L68.6583 68.9111L68.6583 63.9111ZM65.0352 61.4471L69.7558 59.799L69.6006 59.3547L64.8801 61.0028L60.1595 62.6509L60.3146 63.0953L65.0352 61.4471ZM63.5468 59.8066L63.5468 64.8066L63.9302 64.8066L63.9302 59.8066L63.9302 54.8066L63.5468 54.8066L63.5468 59.8066ZM59.535 59.8066L59.535 64.8066L63.5468 64.8066L63.5468 59.8066L63.5468 54.8066L59.535 54.8066L59.535 59.8066ZM57.4253 58.6593L53.2822 61.4584L53.3103 61.4999L57.4534 58.7008L61.5965 55.9017L61.5684 55.8602L57.4253 58.6593ZM53 54.5452L48 54.5452L48 55.1731L53 55.1731L58 55.1731L58 54.5452L53 54.5452ZM53 31.5354L48 31.5354L48 54.5452L53 54.5452L58 54.5452L58 31.5354L53 31.5354ZM72.3235 8.15986L70.8934 3.36871C65.1976 5.06876 60.5421 9.64663 57.1411 13.9507C53.6256 18.3996 50.8525 23.3319 49.0993 26.834L53.5704 29.0722L58.0414 31.3105C59.627 28.1431 62.0507 23.8668 64.9872 20.1506C68.038 16.2897 71.0897 13.7461 73.7535 12.951L72.3235 8.15986ZM94.7035 29.0959L99.1902 26.8893C97.4055 23.2607 94.5429 18.232 90.7489 13.726C87.0242 9.30235 81.9445 4.83532 75.6137 3.26721L74.4116 8.12054L73.2094 12.9739C76.547 13.8006 79.9345 16.4081 83.0993 20.1669C86.1949 23.8433 88.644 28.1049 90.2167 31.3026L94.7035 29.0959ZM95.25 54.5452L100.25 54.5452L100.25 31.5043L95.25 31.5043L90.25 31.5043L90.25 54.5452L95.25 54.5452ZM95.25 55.5319L100.25 55.5319L100.25 54.5452L95.25 54.5452L90.25 54.5452L90.25 55.5319L95.25 55.5319ZM95.25 55.5319L90.25 55.5319C90.25 53.9099 91.5649 52.595 93.1868 52.595L93.1868 57.595L93.1868 62.595C97.0877 62.595 100.25 59.4328 100.25 55.5319L95.25 55.5319ZM94.7035 29.0959L90.2167 31.3026C90.224 31.3173 90.25 31.3779 90.25 31.5043L95.25 31.5043L100.25 31.5043C100.25 29.9595 99.9205 28.3741 99.1902 26.8893L94.7035 29.0959ZM72.3235 8.15986L73.7535 12.951C73.5298 13.0178 73.3404 13.0063 73.2094 12.9739L74.4116 8.12054L75.6137 3.26721C74.1072 2.89405 72.475 2.89665 70.8934 3.36871L72.3235 8.15986ZM53 31.5354L58 31.5354C58 31.4101 58.0266 31.34 58.0414 31.3105L53.5704 29.0722L49.0993 26.834C48.3481 28.3345 48 29.9496 48 31.5354L53 31.5354ZM57.4253 58.6593L61.5684 55.8602C60.189 53.8185 57.8859 52.595 55.422 52.595L55.422 57.595L55.422 62.595C54.5642 62.595 53.7624 62.1691 53.2822 61.4584L57.4253 58.6593ZM64.8298 60.7062L69.8298 60.7062C69.8298 57.448 67.1884 54.8066 63.9302 54.8066L63.9302 59.8066L63.9302 64.8066C61.6656 64.8066 59.8298 62.9708 59.8298 60.7062L64.8298 60.7062ZM64.8801 61.0028L69.6006 59.3547C69.7523 59.7891 69.8298 60.2461 69.8298 60.7062L64.8298 60.7062L59.8298 60.7062C59.8298 61.3684 59.9413 62.0258 60.1595 62.6509L64.8801 61.0028ZM68.5053 63.9111L68.5053 58.9111C69.0685 58.9111 69.5701 59.2673 69.7558 59.799L65.0352 61.4471L60.3146 63.0953C61.5306 66.5781 64.8162 68.9111 68.5053 68.9111L68.5053 63.9111ZM83.4198 60.7251L78.4198 60.7251C78.4198 60.3311 78.4768 59.9392 78.5892 59.5616L83.3817 60.9869L88.1742 62.4123C88.3371 61.8647 88.4198 61.2964 88.4198 60.7251L83.4198 60.7251ZM55.422 57.595L55.422 52.595C56.8458 52.595 58 53.7493 58 55.1731L53 55.1731L48 55.1731C48 59.2721 51.3229 62.595 55.422 62.595L55.422 57.595ZM84.3383 59.8066L84.3383 54.8066C81.0696 54.8066 78.4198 57.4564 78.4198 60.7251L83.4198 60.7251L88.4198 60.7251C88.4198 62.9793 86.5924 64.8066 84.3383 64.8066L84.3383 59.8066ZM90.991 58.7008L86.6574 56.2068C87.1559 55.3405 88.0792 54.8066 89.0787 54.8066L89.0787 59.8066L89.0787 64.8066C91.6568 64.8066 94.0385 63.4294 95.3245 61.1949L90.991 58.7008ZM83.2716 61.3572L78.479 59.9318C78.6591 59.3263 79.2158 58.9111 79.8475 58.9111L79.8475 63.9111L79.8475 68.9111C83.6407 68.9111 86.9828 66.4182 88.0641 62.7825L83.2716 61.3572ZM59.535 59.8066L59.535 54.8066C60.3614 54.8066 61.1338 55.217 61.5965 55.9017L57.4534 58.7008L53.3103 61.4999C54.7072 63.5676 57.0397 64.8066 59.535 64.8066L59.535 59.8066ZM92.9032 57.595L92.9032 52.595C90.3251 52.595 87.9434 53.9723 86.6574 56.2068L90.991 58.7008L95.3245 61.1949C94.826 62.0611 93.9026 62.595 92.9032 62.595L92.9032 57.595Z" fill="#2B3333" mask="url(#path-3-outside-2_1228_70664)"/>
<path d="M90.907 51.9073L89.3123 54.4126L85.144 54.4126L82.1253 51.9073L73.4808 50.3304L69.2271 51.351L64.9755 54.4126L60.1221 54.4126L58.25 51.9073L58.25 31.9388C60.6999 26.5107 66.7783 15.1387 73.9892 13.5913C82.3094 15.1239 88.4572 26.3633 90.907 31.9388L90.907 51.9073Z" fill="#515656"/>
<path d="M85.2271 45.5222L84.1905 47.1256L81.4811 47.1256L79.5189 45.5222L73.9 44.513L71.1351 45.1662L68.3716 47.1256L65.2168 47.1256L64 45.5222L64 32.7424C65.5924 29.2684 69.5434 21.9903 74.2304 21C79.6386 21.9809 83.6346 29.1741 85.2271 32.7424L85.2271 45.5222Z" fill="#464A4A"/>
</svg>
