<svg width="350" height="350" viewBox="0 0 350 350" fill="none" xmlns="http://www.w3.org/2000/svg">
<path d="M174.553 85.3203C178.695 85.3203 182.053 88.6782 182.053 92.8203V339.82C182.053 343.962 178.695 347.32 174.553 347.32C170.411 347.32 167.053 343.962 167.053 339.82V92.8203C167.053 88.6782 170.411 85.3203 174.553 85.3203Z" fill="#4A301F" stroke="#322116" stroke-width="5"/>
<mask id="path-2-inside-1_1236_8" fill="white">
<path d="M196.712 63.5784C197.245 64.6794 197.245 65.9639 196.712 67.0649L185.388 90.448C184.889 91.4787 184.856 92.6738 185.297 93.7308L192.188 110.258C192.94 112.062 192.279 114.145 190.624 115.184L176.619 123.983C175.318 124.8 173.664 124.8 172.363 123.983L158.362 115.184C156.707 114.145 156.046 112.062 156.798 110.258L163.747 93.592C164.187 92.5351 164.154 91.3401 163.655 90.3095L152.4 67.0649C151.867 65.9639 151.867 64.6794 152.4 63.5784L170.956 25.2568C172.413 22.2477 176.699 22.2477 178.156 25.2568L196.712 63.5784Z"/>
</mask>
<path d="M196.712 63.5784C197.245 64.6794 197.245 65.9639 196.712 67.0649L185.388 90.448C184.889 91.4787 184.856 92.6738 185.297 93.7308L192.188 110.258C192.94 112.062 192.279 114.145 190.624 115.184L176.619 123.983C175.318 124.8 173.664 124.8 172.363 123.983L158.362 115.184C156.707 114.145 156.046 112.062 156.798 110.258L163.747 93.592C164.187 92.5351 164.154 91.3401 163.655 90.3095L152.4 67.0649C151.867 65.9639 151.867 64.6794 152.4 63.5784L170.956 25.2568C172.413 22.2477 176.699 22.2477 178.156 25.2568L196.712 63.5784Z" fill="#464A4A"/>
<path d="M170.956 25.2568L166.455 23.0777L170.956 25.2568ZM152.4 67.0649L156.9 64.8859L152.4 67.0649ZM152.4 63.5784L147.9 61.3994L152.4 63.5784ZM163.655 90.3095L168.155 88.1305L163.655 90.3095ZM158.362 115.184L161.022 110.951L158.362 115.184ZM156.798 110.258L152.183 108.334L156.798 110.258ZM176.619 123.983L173.96 119.749L176.619 123.983ZM172.363 123.983L169.703 128.216L172.363 123.983ZM192.188 110.258L196.803 108.334L192.188 110.258ZM190.624 115.184L187.964 110.951L190.624 115.184ZM185.388 90.448L180.888 88.2688L185.388 90.448ZM185.297 93.7308L189.912 91.8065L185.297 93.7308ZM196.712 67.0649L192.211 64.8858L196.712 67.0649ZM196.712 63.5784L192.211 65.7574L196.712 63.5784ZM196.712 67.0649L192.211 64.8858L180.888 88.2688L185.388 90.448L189.889 92.6272L201.212 69.2441L196.712 67.0649ZM185.297 93.7308L180.682 95.6551L187.573 112.182L192.188 110.258L196.803 108.334L189.912 91.8065L185.297 93.7308ZM190.624 115.184L187.964 110.951L173.96 119.749L176.619 123.983L179.279 128.217L193.284 119.418L190.624 115.184ZM172.363 123.983L175.024 119.749L161.022 110.951L158.362 115.184L155.702 119.418L169.703 128.216L172.363 123.983ZM156.798 110.258L161.413 112.182L168.362 95.516L163.747 93.592L159.132 91.6679L152.183 108.334L156.798 110.258ZM163.655 90.3095L168.155 88.1305L156.9 64.8859L152.4 67.0649L147.9 69.2439L159.155 92.4885L163.655 90.3095ZM152.4 63.5784L156.9 65.7575L175.456 27.4358L170.956 25.2568L166.455 23.0777L147.9 61.3994L152.4 63.5784ZM178.156 25.2568L173.656 27.4358L192.211 65.7574L196.712 63.5784L201.212 61.3993L182.656 23.0777L178.156 25.2568ZM170.956 25.2568L175.456 27.4358C175.092 28.1881 174.02 28.1881 173.656 27.4358L178.156 25.2568L182.656 23.0777C179.378 16.3074 169.734 16.3074 166.455 23.0777L170.956 25.2568ZM152.4 67.0649L156.9 64.8859C157.033 65.1611 157.033 65.4822 156.9 65.7575L152.4 63.5784L147.9 61.3994C146.7 63.8767 146.7 66.7666 147.9 69.2439L152.4 67.0649ZM163.747 93.592L168.362 95.516C169.353 93.1381 169.278 90.4493 168.155 88.1305L163.655 90.3095L159.155 92.4885C159.03 92.2308 159.022 91.9321 159.132 91.6679L163.747 93.592ZM158.362 115.184L161.022 110.951C161.436 111.211 161.601 111.732 161.413 112.182L156.798 110.258L152.183 108.334C150.491 112.392 151.979 117.079 155.702 119.418L158.362 115.184ZM176.619 123.983L173.96 119.749C174.285 119.545 174.698 119.545 175.024 119.749L172.363 123.983L169.703 128.216C172.63 130.055 176.352 130.056 179.279 128.217L176.619 123.983ZM192.188 110.258L187.573 112.182C187.385 111.731 187.551 111.211 187.964 110.951L190.624 115.184L193.284 119.418C197.007 117.079 198.495 112.392 196.803 108.334L192.188 110.258ZM185.388 90.448L180.888 88.2688C179.765 90.5878 179.69 93.277 180.682 95.6551L185.297 93.7308L189.912 91.8065C190.022 92.0707 190.013 92.3695 189.889 92.6272L185.388 90.448ZM196.712 67.0649L201.212 69.2441C202.411 66.7668 202.411 63.8767 201.212 61.3993L196.712 63.5784L192.211 65.7574C192.078 65.4821 192.078 65.161 192.211 64.8858L196.712 67.0649Z" fill="#2B3333" mask="url(#path-2-inside-1_1236_8)"/>
<path d="M173.642 40.832C173.997 40.0487 175.109 40.0487 175.464 40.832L186.366 64.9078C186.485 65.17 186.485 65.4706 186.366 65.7328L175.464 89.8086C175.109 90.5919 173.997 90.5919 173.642 89.8086L162.74 65.7328C162.621 65.4706 162.621 65.17 162.74 64.9078L173.642 40.832Z" fill="#515656"/>
<path d="M173.653 50.6762C174.018 49.9245 175.088 49.9245 175.453 50.6762L182.341 64.884C182.475 65.1595 182.475 65.4811 182.341 65.7566L175.453 79.9644C175.088 80.7161 174.018 80.7161 173.653 79.9644L166.765 65.7566C166.631 65.4811 166.631 65.1595 166.765 64.884L173.653 50.6762Z" fill="#5D6262"/>
</svg>
