<svg width="150" height="150" viewBox="0 0 150 150" fill="none" xmlns="http://www.w3.org/2000/svg">
<g clip-path="url(#clip0_1229_70774)">
<path d="M80.5 22.668C80.5001 20.2199 83.17 18.2523 85.5859 19.6338L85.8193 19.7783L86.3037 20.1133C91.2598 23.6446 94.5 29.4453 94.5 36.0039C94.5 42.9102 90.9074 48.9721 85.5 52.4346V111.572C90.9076 115.035 94.5 121.097 94.5 128.004C94.4999 138.773 85.7695 147.504 75 147.504C64.2305 147.504 55.5001 138.773 55.5 128.004C55.5 121.097 59.0924 115.035 64.5 111.572V52.4346C59.0926 48.9721 55.5 42.9102 55.5 36.0039C55.5 29.2338 58.9522 23.2708 64.1807 19.7783C66.6546 18.1259 69.4999 20.1409 69.5 22.668V35.0645L70.3691 36.5713L71.124 37.8789L72.2061 38.5039H77.7939L78.875 37.8789L79.6309 36.5713L80.5 35.0645V22.668ZM69.7061 124.946V131.06L75 134.116L80.2939 131.06V124.946L75 121.891L69.7061 124.946Z" fill="#515656" stroke="#2B3333" stroke-width="5"/>
<rect x="70" y="56" width="9" height="47" rx="4.5" fill="#5D6262"/>
</g>
<defs>
<clipPath id="clip0_1229_70774">
<rect width="150" height="150" fill="white"/>
</clipPath>
</defs>
</svg>
