<svg width="150" height="150" viewBox="0 0 150 150" fill="none" xmlns="http://www.w3.org/2000/svg">
<mask id="path-1-inside-1_1205_460" fill="white">
<path d="M76.9431 0.407227L79.2527 1.69238L83.1326 5.23242L86.0144 8.39062L86.4412 8.62891L87.9353 10.3809L88.8181 12.8555L89.1111 17.9629V92.9707H98.4802L101.162 93.2021L102.462 93.9014L102.77 94.2988C103.177 94.5147 103.56 94.7938 103.903 95.1367L109.723 100.958C111.574 102.809 111.574 105.809 109.723 107.66L103.764 113.62C103.378 114.007 102.94 114.31 102.474 114.535L102.462 114.553L101.162 115.253L98.4802 115.484H84.3708V129.104L86.9753 131.961L88.2712 134.292L88.6794 136.452L88.2927 138.608L87.0193 140.928L83.4861 144.808L79.6062 148.341L77.2869 149.614L75.1306 150L72.9714 149.593L70.6394 148.297L66.7244 144.727L63.1541 140.812L61.8582 138.479L61.45 136.32L61.8367 134.164L63.1101 131.845L65.4167 129.31L65.4119 129.195V115.484H51.3025L48.6208 115.253L47.321 114.553L46.8904 114C46.5838 113.81 46.294 113.583 46.0281 113.317L40.2888 107.579C38.4379 105.728 38.4379 102.727 40.2888 100.876L46.0281 95.1367C46.294 94.8709 46.5838 94.6436 46.8904 94.4541L47.321 93.9014L48.6208 93.2021L51.3025 92.9707H60.6726V17.9629L60.9656 12.8555L61.8494 10.3809L63.0437 8.97852L63.0535 8.96191L63.1355 8.87109L63.3425 8.62891L63.3708 8.6123L66.5437 5.12695L70.3787 1.63574L72.6716 0.379883L74.8054 0L76.9431 0.407227Z"/>
</mask>
<path d="M76.9431 0.407227L79.2527 1.69238L83.1326 5.23242L86.0144 8.39062L86.4412 8.62891L87.9353 10.3809L88.8181 12.8555L89.1111 17.9629V92.9707H98.4802L101.162 93.2021L102.462 93.9014L102.77 94.2988C103.177 94.5147 103.56 94.7938 103.903 95.1367L109.723 100.958C111.574 102.809 111.574 105.809 109.723 107.66L103.764 113.62C103.378 114.007 102.94 114.31 102.474 114.535L102.462 114.553L101.162 115.253L98.4802 115.484H84.3708V129.104L86.9753 131.961L88.2712 134.292L88.6794 136.452L88.2927 138.608L87.0193 140.928L83.4861 144.808L79.6062 148.341L77.2869 149.614L75.1306 150L72.9714 149.593L70.6394 148.297L66.7244 144.727L63.1541 140.812L61.8582 138.479L61.45 136.32L61.8367 134.164L63.1101 131.845L65.4167 129.31L65.4119 129.195V115.484H51.3025L48.6208 115.253L47.321 114.553L46.8904 114C46.5838 113.81 46.294 113.583 46.0281 113.317L40.2888 107.579C38.4379 105.728 38.4379 102.727 40.2888 100.876L46.0281 95.1367C46.294 94.8709 46.5838 94.6436 46.8904 94.4541L47.321 93.9014L48.6208 93.2021L51.3025 92.9707H60.6726V17.9629L60.9656 12.8555L61.8494 10.3809L63.0437 8.97852L63.0535 8.96191L63.1355 8.87109L63.3425 8.62891L63.3708 8.6123L66.5437 5.12695L70.3787 1.63574L72.6716 0.379883L74.8054 0L76.9431 0.407227Z" fill="#464A4A"/>
<path d="M76.9431 0.407227L79.3743 -3.9619L78.6703 -4.35367L77.8788 -4.50445L76.9431 0.407227ZM79.2527 1.69238L82.6228 -2.00121L82.1926 -2.39364L81.6839 -2.67675L79.2527 1.69238ZM83.1326 5.23242L86.826 1.86219L86.6717 1.6931L86.5026 1.53883L83.1326 5.23242ZM86.0144 8.39062L82.321 11.7609L82.8681 12.3605L83.5769 12.7562L86.0144 8.39062ZM86.4412 8.62891L90.2455 5.38439L89.6628 4.70111L88.8787 4.26331L86.4412 8.62891ZM87.9353 10.3809L92.6446 8.70083L92.3359 7.83544L91.7397 7.13634L87.9353 10.3809ZM88.8181 12.8555L93.8099 12.5691L93.7688 11.852L93.5274 11.1754L88.8181 12.8555ZM89.1111 17.9629H94.1111V17.8196L94.1029 17.6766L89.1111 17.9629ZM89.1111 92.9707H84.1111V97.9707H89.1111V92.9707ZM98.4802 92.9707L98.9102 87.9892L98.6956 87.9707H98.4802V92.9707ZM101.162 93.2021L103.531 88.7988L102.621 88.3095L101.592 88.2207L101.162 93.2021ZM102.462 93.9014L106.411 90.835L105.762 89.9993L104.83 89.4981L102.462 93.9014ZM102.77 94.2988L98.8209 97.3652L99.4796 98.2136L100.429 98.7166L102.77 94.2988ZM103.903 95.1367L107.439 91.6015L107.439 91.6011L103.903 95.1367ZM109.723 100.958L106.188 104.493L106.188 104.493L109.723 100.958ZM109.723 107.66L106.188 104.125L106.188 104.125L109.723 107.66ZM103.764 113.62L107.3 117.156L107.3 117.155L103.764 113.62ZM102.474 114.535L100.299 110.033L99.161 110.583L98.421 111.608L102.474 114.535ZM102.462 114.553L104.833 118.955L105.843 118.41L106.515 117.48L102.462 114.553ZM101.162 115.253L101.592 120.234L102.622 120.145L103.533 119.655L101.162 115.253ZM98.4802 115.484V120.484H98.6956L98.9102 120.466L98.4802 115.484ZM84.3708 115.484V110.484H79.3708V115.484H84.3708ZM84.3708 129.104H79.3708V131.042L80.6761 132.473L84.3708 129.104ZM86.9753 131.961L91.3454 129.531L91.0625 129.022L90.6701 128.592L86.9753 131.961ZM88.2712 134.292L93.1843 133.364L93.0342 132.569L92.6413 131.863L88.2712 134.292ZM88.6794 136.452L93.6009 137.335L93.7635 136.428L93.5925 135.524L88.6794 136.452ZM88.2927 138.608L92.6756 141.015L93.0696 140.297L93.2142 139.491L88.2927 138.608ZM87.0193 140.928L90.7161 144.294L91.1162 143.855L91.4021 143.334L87.0193 140.928ZM83.4861 144.808L86.8526 148.504L87.0255 148.347L87.1829 148.174L83.4861 144.808ZM79.6062 148.341L82.0126 152.724L82.5334 152.438L82.9727 152.038L79.6062 148.341ZM77.2869 149.614L78.1674 154.536L78.9745 154.392L79.6933 153.997L77.2869 149.614ZM75.1306 150L74.2039 154.913L75.1067 155.084L76.0111 154.922L75.1306 150ZM72.9714 149.593L70.5428 153.963L71.2498 154.356L72.0448 154.506L72.9714 149.593ZM70.6394 148.297L67.2703 151.991L67.7011 152.384L68.2107 152.667L70.6394 148.297ZM66.7244 144.727L63.0299 148.096L63.1851 148.266L63.3552 148.421L66.7244 144.727ZM63.1541 140.812L58.7835 143.24L59.0667 143.75L59.4596 144.181L63.1541 140.812ZM61.8582 138.479L56.9452 139.408L57.0952 140.202L57.4876 140.908L61.8582 138.479ZM61.45 136.32L56.5285 135.438L56.3659 136.344L56.537 137.249L61.45 136.32ZM61.8367 134.164L57.4538 131.758L57.0597 132.475L56.9152 133.281L61.8367 134.164ZM63.1101 131.845L59.4118 128.48L59.0127 128.918L58.7273 129.438L63.1101 131.845ZM65.4167 129.31L69.115 132.674L70.5001 131.152L70.4122 129.096L65.4167 129.31ZM65.4119 129.195H60.4119V129.302L60.4164 129.409L65.4119 129.195ZM65.4119 115.484H70.4119V110.484H65.4119V115.484ZM51.3025 115.484L50.8726 120.466L51.0871 120.484H51.3025V115.484ZM48.6208 115.253L46.2496 119.655L47.1603 120.145L48.1909 120.234L48.6208 115.253ZM47.321 114.553L43.3769 117.626L44.0235 118.456L44.9498 118.955L47.321 114.553ZM46.8904 114L50.8345 110.927L50.2829 110.219L49.5194 109.747L46.8904 114ZM46.0281 113.317L49.5636 109.782L49.5633 109.782L46.0281 113.317ZM40.2888 107.579L36.7533 111.115L36.7536 111.115L40.2888 107.579ZM40.2888 100.876L36.7533 97.3404L36.7532 97.3405L40.2888 100.876ZM46.0281 95.1367L42.4929 91.6009L42.4925 91.6012L46.0281 95.1367ZM46.8904 94.4541L49.5192 98.7073L50.2828 98.2353L50.8345 97.5272L46.8904 94.4541ZM47.321 93.9014L44.9523 89.4981L44.0245 89.9972L43.3769 90.8283L47.321 93.9014ZM48.6208 93.2021L48.1909 88.2207L47.1618 88.3095L46.2521 88.7988L48.6208 93.2021ZM51.3025 92.9707V87.9707H51.0871L50.8726 87.9892L51.3025 92.9707ZM60.6726 92.9707V97.9707H65.6726V92.9707H60.6726ZM60.6726 17.9629L55.6808 17.6766L55.6726 17.8196V17.9629H60.6726ZM60.9656 12.8555L56.2569 11.1738L56.015 11.8511L55.9738 12.5691L60.9656 12.8555ZM61.8494 10.3809L58.0428 7.13893L57.4488 7.8364L57.1407 8.69918L61.8494 10.3809ZM63.0437 8.97852L66.8503 12.2204L67.1326 11.8889L67.3534 11.5136L63.0437 8.97852ZM63.0535 8.96191L59.343 5.61048L59.0018 5.98816L58.7438 6.42681L63.0535 8.96191ZM63.1355 8.87109L66.846 12.2225L66.8918 12.1719L66.9361 12.12L63.1355 8.87109ZM63.3425 8.62891L60.8139 4.31542L60.0884 4.74073L59.5419 5.38L63.3425 8.62891ZM63.3708 8.6123L65.8994 12.9258L66.556 12.5409L67.0683 11.9782L63.3708 8.6123ZM66.5437 5.12695L63.1778 1.4296L63.0043 1.58755L62.8463 1.76106L66.5437 5.12695ZM70.3787 1.63574L67.9768 -2.74959L67.4537 -2.4631L67.0127 -2.06161L70.3787 1.63574ZM72.6716 0.379883L71.7952 -4.54271L70.9885 -4.39909L70.2698 -4.00545L72.6716 0.379883ZM74.8054 0L75.7411 -4.91167L74.8361 -5.08408L73.929 -4.9226L74.8054 0ZM76.9431 0.407227L74.5119 4.77636L76.8215 6.06151L79.2527 1.69238L81.6839 -2.67675L79.3743 -3.9619L76.9431 0.407227ZM79.2527 1.69238L75.8826 5.38598L79.7625 8.92602L83.1326 5.23242L86.5026 1.53883L82.6228 -2.00121L79.2527 1.69238ZM83.1326 5.23242L79.4391 8.60266L82.321 11.7609L86.0144 8.39062L89.7078 5.02039L86.826 1.86219L83.1326 5.23242ZM86.0144 8.39062L83.5769 12.7562L84.0036 12.9945L86.4412 8.62891L88.8787 4.26331L88.4519 4.02503L86.0144 8.39062ZM86.4412 8.62891L82.6368 11.8734L84.1309 13.6254L87.9353 10.3809L91.7397 7.13634L90.2455 5.38439L86.4412 8.62891ZM87.9353 10.3809L83.226 12.0609L84.1088 14.5355L88.8181 12.8555L93.5274 11.1754L92.6446 8.70083L87.9353 10.3809ZM88.8181 12.8555L83.8263 13.1418L84.1193 18.2492L89.1111 17.9629L94.1029 17.6766L93.8099 12.5691L88.8181 12.8555ZM89.1111 17.9629H84.1111V92.9707H89.1111H94.1111V17.9629H89.1111ZM89.1111 92.9707V97.9707H98.4802V92.9707V87.9707H89.1111V92.9707ZM98.4802 92.9707L98.0503 97.9522L100.732 98.1836L101.162 93.2021L101.592 88.2207L98.9102 87.9892L98.4802 92.9707ZM101.162 93.2021L98.7931 97.6055L100.093 98.3047L102.462 93.9014L104.83 89.4981L103.531 88.7988L101.162 93.2021ZM102.462 93.9014L98.5123 96.9677L98.8209 97.3652L102.77 94.2988L106.72 91.2325L106.411 90.835L102.462 93.9014ZM102.77 94.2988L100.429 98.7166C100.403 98.7032 100.382 98.6869 100.368 98.6723L103.903 95.1367L107.439 91.6011C106.738 90.9007 105.952 90.3261 105.112 89.881L102.77 94.2988ZM103.903 95.1367L100.367 98.672L106.188 104.493L109.723 100.958L113.259 97.4228L107.439 91.6015L103.903 95.1367ZM109.723 100.958L106.188 104.493C106.086 104.392 106.086 104.226 106.188 104.125L109.723 107.66L113.259 111.195C117.062 107.392 117.062 101.226 113.259 97.4227L109.723 100.958ZM109.723 107.66L106.188 104.125L100.229 110.085L103.764 113.62L107.3 117.155L113.259 111.195L109.723 107.66ZM103.764 113.62L100.229 110.084C100.241 110.073 100.254 110.061 100.267 110.052C100.28 110.043 100.291 110.037 100.299 110.033L102.474 114.535L104.65 119.037C105.598 118.579 106.501 117.955 107.3 117.156L103.764 113.62ZM102.474 114.535L98.421 111.608L98.4083 111.625L102.462 114.553L106.515 117.48L106.528 117.463L102.474 114.535ZM102.462 114.553L100.09 110.151L98.7906 110.851L101.162 115.253L103.533 119.655L104.833 118.955L102.462 114.553ZM101.162 115.253L100.732 110.271L98.0503 110.503L98.4802 115.484L98.9102 120.466L101.592 120.234L101.162 115.253ZM98.4802 115.484V110.484H84.3708V115.484V120.484H98.4802V115.484ZM84.3708 115.484H79.3708V129.104H84.3708H89.3708V115.484H84.3708ZM84.3708 129.104L80.6761 132.473L83.2806 135.33L86.9753 131.961L90.6701 128.592L88.0656 125.736L84.3708 129.104ZM86.9753 131.961L82.6052 134.39L83.9011 136.721L88.2712 134.292L92.6413 131.863L91.3454 129.531L86.9753 131.961ZM88.2712 134.292L83.3582 135.22L83.7664 137.381L88.6794 136.452L93.5925 135.524L93.1843 133.364L88.2712 134.292ZM88.6794 136.452L83.758 135.569L83.3713 137.726L88.2927 138.608L93.2142 139.491L93.6009 137.335L88.6794 136.452ZM88.2927 138.608L83.9099 136.202L82.6365 138.521L87.0193 140.928L91.4021 143.334L92.6756 141.015L88.2927 138.608ZM87.0193 140.928L83.3225 137.561L79.7892 141.441L83.4861 144.808L87.1829 148.174L90.7161 144.294L87.0193 140.928ZM83.4861 144.808L80.1196 141.111L76.2397 144.644L79.6062 148.341L82.9727 152.038L86.8526 148.504L83.4861 144.808ZM79.6062 148.341L77.1998 143.958L74.8805 145.231L77.2869 149.614L79.6933 153.997L82.0126 152.724L79.6062 148.341ZM77.2869 149.614L76.4064 144.692L74.2501 145.078L75.1306 150L76.0111 154.922L78.1674 154.536L77.2869 149.614ZM75.1306 150L76.0573 145.087L73.8981 144.679L72.9714 149.593L72.0448 154.506L74.2039 154.913L75.1306 150ZM72.9714 149.593L75.4001 145.222L73.0681 143.926L70.6394 148.297L68.2107 152.667L70.5428 153.963L72.9714 149.593ZM70.6394 148.297L74.0085 144.602L70.0935 141.032L66.7244 144.727L63.3552 148.421L67.2703 151.991L70.6394 148.297ZM66.7244 144.727L70.4188 141.357L66.8485 137.442L63.1541 140.812L59.4596 144.181L63.0299 148.096L66.7244 144.727ZM63.1541 140.812L67.5246 138.383L66.2287 136.051L61.8582 138.479L57.4876 140.908L58.7835 143.24L63.1541 140.812ZM61.8582 138.479L66.7711 137.551L66.3629 135.391L61.45 136.32L56.537 137.249L56.9452 139.408L61.8582 138.479ZM61.45 136.32L66.3714 137.203L66.7581 135.047L61.8367 134.164L56.9152 133.281L56.5285 135.438L61.45 136.32ZM61.8367 134.164L66.2195 136.57L67.4929 134.251L63.1101 131.845L58.7273 129.438L57.4538 131.758L61.8367 134.164ZM63.1101 131.845L66.8084 135.21L69.115 132.674L65.4167 129.31L61.7185 125.945L59.4118 128.48L63.1101 131.845ZM65.4167 129.31L70.4122 129.096L70.4073 128.982L65.4119 129.195L60.4164 129.409L60.4213 129.523L65.4167 129.31ZM65.4119 129.195H70.4119V115.484H65.4119H60.4119V129.195H65.4119ZM65.4119 115.484V110.484H51.3025V115.484V120.484H65.4119V115.484ZM51.3025 115.484L51.7324 110.503L49.0508 110.271L48.6208 115.253L48.1909 120.234L50.8726 120.466L51.3025 115.484ZM48.6208 115.253L50.9921 110.851L49.6923 110.151L47.321 114.553L44.9498 118.955L46.2496 119.655L48.6208 115.253ZM47.321 114.553L51.2652 111.48L50.8345 110.927L46.8904 114L42.9462 117.073L43.3769 117.626L47.321 114.553ZM46.8904 114L49.5194 109.747C49.5354 109.757 49.5509 109.769 49.5636 109.782L46.0281 113.317L42.4926 116.853C43.0371 117.397 43.6323 117.864 44.2613 118.253L46.8904 114ZM46.0281 113.317L49.5633 109.782L43.8241 104.043L40.2888 107.579L36.7536 111.115L42.4928 116.853L46.0281 113.317ZM40.2888 107.579L43.8244 104.044C43.9261 104.145 43.926 104.31 43.8245 104.411L40.2888 100.876L36.7532 97.3405C32.9499 101.144 32.9496 107.311 36.7533 111.115L40.2888 107.579ZM40.2888 100.876L43.8244 104.412L49.5636 98.6723L46.0281 95.1367L42.4925 91.6012L36.7533 97.3404L40.2888 100.876ZM46.0281 95.1367L49.5633 98.6726C49.5511 98.6848 49.5357 98.697 49.5192 98.7073L46.8904 94.4541L44.2616 90.2009C43.6319 90.5901 43.0369 91.0569 42.4929 91.6009L46.0281 95.1367ZM46.8904 94.4541L50.8345 97.5272L51.2652 96.9744L47.321 93.9014L43.3769 90.8283L42.9462 91.381L46.8904 94.4541ZM47.321 93.9014L49.6898 98.3047L50.9896 97.6055L48.6208 93.2021L46.2521 88.7988L44.9523 89.4981L47.321 93.9014ZM48.6208 93.2021L49.0508 98.1836L51.7324 97.9522L51.3025 92.9707L50.8726 87.9892L48.1909 88.2207L48.6208 93.2021ZM51.3025 92.9707V97.9707H60.6726V92.9707V87.9707H51.3025V92.9707ZM60.6726 92.9707H65.6726V17.9629H60.6726H55.6726V92.9707H60.6726ZM60.6726 17.9629L65.6644 18.2492L65.9574 13.1418L60.9656 12.8555L55.9738 12.5691L55.6808 17.6766L60.6726 17.9629ZM60.9656 12.8555L65.6743 14.5372L66.5581 12.0625L61.8494 10.3809L57.1407 8.69918L56.2569 11.1738L60.9656 12.8555ZM61.8494 10.3809L65.6559 13.6228L66.8503 12.2204L63.0437 8.97852L59.2371 5.73658L58.0428 7.13893L61.8494 10.3809ZM63.0437 8.97852L67.3534 11.5136L67.3631 11.497L63.0535 8.96191L58.7438 6.42681L58.734 6.44342L63.0437 8.97852ZM63.0535 8.96191L66.764 12.3133L66.846 12.2225L63.1355 8.87109L59.425 5.51966L59.343 5.61048L63.0535 8.96191ZM63.1355 8.87109L66.9361 12.12L67.1431 11.8778L63.3425 8.62891L59.5419 5.38L59.3349 5.62219L63.1355 8.87109ZM63.3425 8.62891L65.8711 12.9424L65.8994 12.9258L63.3708 8.6123L60.8423 4.29881L60.8139 4.31542L63.3425 8.62891ZM63.3708 8.6123L67.0683 11.9782L70.2411 8.49284L66.5437 5.12695L62.8463 1.76106L59.6734 5.24641L63.3708 8.6123ZM66.5437 5.12695L69.9096 8.82431L73.7446 5.3331L70.3787 1.63574L67.0127 -2.06161L63.1778 1.4296L66.5437 5.12695ZM70.3787 1.63574L72.7805 6.02107L75.0735 4.76521L72.6716 0.379883L70.2698 -4.00545L67.9768 -2.74959L70.3787 1.63574ZM72.6716 0.379883L73.548 5.30248L75.6818 4.9226L74.8054 0L73.929 -4.9226L71.7952 -4.54271L72.6716 0.379883ZM74.8054 0L73.8698 4.91167L76.0075 5.3189L76.9431 0.407227L77.8788 -4.50445L75.7411 -4.91167L74.8054 0Z" fill="#2B3333" mask="url(#path-1-inside-1_1205_460)"/>
<path d="M72.3288 133.694L73.5692 132.565L74.3106 132.158L74.9998 132.034L75.6902 132.164L76.4355 132.579L77.687 133.72L78.8284 134.971L79.2426 135.717L79.3729 136.407L79.2493 137.096L78.8423 137.838L77.713 139.078L76.4726 140.207L75.7312 140.614L75.042 140.738L74.3516 140.608L73.6062 140.194L72.3548 139.052L71.2134 137.801L70.7992 137.055L70.6689 136.365L70.7925 135.676L71.1995 134.934L72.3288 133.694Z" fill="#515656"/>
<path d="M68.9307 21.6926L69.0526 17.5603L69.4207 15.5587L70.0431 14.1412L70.9464 13.1644L72.222 12.5869L74.8553 12.3955L77.4886 12.5869L78.7642 13.1644L79.6675 14.1412L80.29 15.5587L80.658 17.5603L80.78 21.6926V88.4133L80.658 92.5456L80.29 94.5472L79.6675 95.9647L78.7642 96.9415L77.4886 97.519L74.8553 97.7104L72.222 97.519L70.9464 96.9415L70.0431 95.9647L69.4207 94.5472L69.0526 92.5456L68.9307 88.4133V21.6926Z" fill="#515656"/>
<path d="M71.3003 24.6017L71.3735 20.7564L71.5943 18.8937L71.9678 17.5746L72.5098 16.6657L73.2751 16.1283L74.8551 15.9502L76.4351 16.1283L77.2004 16.6657L77.7424 17.5746L78.1159 18.8937L78.3367 20.7564L78.4099 24.6017V86.6889L78.3367 90.5343L78.1159 92.3969L77.7424 93.716L77.2004 94.6249L76.4351 95.1623L74.8551 95.3404L73.2751 95.1623L72.5098 94.6249L71.9678 93.716L71.5943 92.3969L71.3735 90.5343L71.3003 86.6889V24.6017Z" fill="#5D6262"/>
<path d="M51.1567 104.227L51.2559 102.911L51.5561 102.273L52.0634 101.822L52.799 101.51L53.8391 101.326L55.9842 101.265H93.7264L95.8716 101.326L96.9117 101.51L97.6472 101.822L98.1545 102.273L98.4547 102.911L98.5539 104.227L98.4547 105.544L98.1545 106.182L97.6472 106.633L96.9117 106.945L95.8716 107.129L93.7264 107.19H55.9842L53.8391 107.129L52.799 106.945L52.0634 106.633L51.5561 106.182L51.2559 105.544L51.1567 104.227Z" fill="#515656"/>
</svg>
