<svg width="150" height="150" viewBox="0 0 150 150" fill="none" xmlns="http://www.w3.org/2000/svg">
<g clip-path="url(#clip0_1212_70692)">
<mask id="path-1-inside-1_1212_70692" fill="white">
<path d="M79.4434 16.2246L81.5977 16.9014L83.1221 18.0479L84.1738 19.7119L84.7939 22.0615L85 26.9092V140.091L84.7939 144.938L84.1738 147.288L83.1221 148.952L81.5977 150.099L79.4434 150.775L75 151L70.5557 150.775L68.4023 150.099L66.877 148.952L65.8262 147.288L65.2061 144.938L65 140.091V26.9092L65.2061 22.0615L65.8262 19.7119L66.877 18.0479L68.4023 16.9014L70.5557 16.2246L75 16L79.4434 16.2246Z"/>
</mask>
<path d="M79.4434 16.2246L81.5977 16.9014L83.1221 18.0479L84.1738 19.7119L84.7939 22.0615L85 26.9092V140.091L84.7939 144.938L84.1738 147.288L83.1221 148.952L81.5977 150.099L79.4434 150.775L75 151L70.5557 150.775L68.4023 150.099L66.877 148.952L65.8262 147.288L65.2061 144.938L65 140.091V26.9092L65.2061 22.0615L65.8262 19.7119L66.877 18.0479L68.4023 16.9014L70.5557 16.2246L75 16L79.4434 16.2246Z" fill="#4A301F"/>
<path d="M79.4434 16.2246L80.9419 11.4544L80.3331 11.2632L79.6958 11.231L79.4434 16.2246ZM81.5977 16.9014L84.603 12.9054L83.9161 12.3888L83.0962 12.1312L81.5977 16.9014ZM83.1221 18.0479L87.3486 15.3765L86.8593 14.6023L86.1274 14.0518L83.1221 18.0479ZM84.1738 19.7119L89.0083 18.436L88.8118 17.6915L88.4004 17.0405L84.1738 19.7119ZM84.7939 22.0615L89.7894 21.8492L89.7665 21.3087L89.6284 20.7856L84.7939 22.0615ZM85 26.9092H90V26.803L89.9955 26.6968L85 26.9092ZM85 140.091L89.9955 140.303L90 140.197V140.091H85ZM84.7939 144.938L89.6284 146.214L89.7665 145.691L89.7894 145.151L84.7939 144.938ZM84.1738 147.288L88.4004 149.959L88.8118 149.309L89.0083 148.564L84.1738 147.288ZM83.1221 148.952L86.1274 152.948L86.8593 152.398L87.3486 151.624L83.1221 148.952ZM81.5977 150.099L83.0962 154.869L83.9161 154.611L84.603 154.095L81.5977 150.099ZM79.4434 150.775L79.6958 155.769L80.3331 155.737L80.9419 155.546L79.4434 150.775ZM75 151L74.7476 155.994L75 156.006L75.2524 155.994L75 151ZM70.5557 150.775L69.0565 155.545L69.6656 155.737L70.3033 155.769L70.5557 150.775ZM68.4023 150.099L65.3983 154.096L66.0844 154.611L66.9032 154.869L68.4023 150.099ZM66.877 148.952L62.6493 151.622L63.1393 152.398L63.8729 152.949L66.877 148.952ZM65.8262 147.288L60.9917 148.564L61.1879 149.308L61.5985 149.958L65.8262 147.288ZM65.2061 144.938L60.2106 145.151L60.2335 145.691L60.3716 146.214L65.2061 144.938ZM65 140.091H60V140.197L60.0045 140.303L65 140.091ZM65 26.9092L60.0045 26.6968L60 26.803V26.9092H65ZM65.2061 22.0615L60.3716 20.7856L60.2335 21.3087L60.2106 21.8492L65.2061 22.0615ZM65.8262 19.7119L61.5985 17.0423L61.1879 17.6925L60.9917 18.436L65.8262 19.7119ZM66.877 18.0479L63.8729 14.0509L63.1393 14.6023L62.6493 15.3783L66.877 18.0479ZM68.4023 16.9014L66.9032 12.1314L66.0844 12.3887L65.3983 12.9044L68.4023 16.9014ZM70.5557 16.2246L70.3033 11.231L69.6656 11.2632L69.0565 11.4546L70.5557 16.2246ZM75 16L75.2524 11.0064L75 10.9936L74.7476 11.0064L75 16ZM79.4434 16.2246L77.9448 20.9948L80.0991 21.6715L81.5977 16.9014L83.0962 12.1312L80.9419 11.4544L79.4434 16.2246ZM81.5977 16.9014L78.5923 20.8974L80.1167 22.0439L83.1221 18.0479L86.1274 14.0518L84.603 12.9054L81.5977 16.9014ZM83.1221 18.0479L78.8955 20.7192L79.9473 22.3833L84.1738 19.7119L88.4004 17.0405L87.3486 15.3765L83.1221 18.0479ZM84.1738 19.7119L79.3394 20.9878L79.9595 23.3375L84.7939 22.0615L89.6284 20.7856L89.0083 18.436L84.1738 19.7119ZM84.7939 22.0615L79.7985 22.2739L80.0045 27.1215L85 26.9092L89.9955 26.6968L89.7894 21.8492L84.7939 22.0615ZM85 26.9092H80V140.091H85H90V26.9092H85ZM85 140.091L80.0045 139.878L79.7985 144.726L84.7939 144.938L89.7894 145.151L89.9955 140.303L85 140.091ZM84.7939 144.938L79.9595 143.663L79.3394 146.012L84.1738 147.288L89.0083 148.564L89.6284 146.214L84.7939 144.938ZM84.1738 147.288L79.9473 144.617L78.8955 146.281L83.1221 148.952L87.3486 151.624L88.4004 149.959L84.1738 147.288ZM83.1221 148.952L80.1167 144.956L78.5923 146.103L81.5977 150.099L84.603 154.095L86.1274 152.948L83.1221 148.952ZM81.5977 150.099L80.0991 145.328L77.9448 146.005L79.4434 150.775L80.9419 155.546L83.0962 154.869L81.5977 150.099ZM79.4434 150.775L79.1909 145.782L74.7476 146.006L75 151L75.2524 155.994L79.6958 155.769L79.4434 150.775ZM75 151L75.2524 146.006L70.808 145.782L70.5557 150.775L70.3033 155.769L74.7476 155.994L75 151ZM70.5557 150.775L72.0548 146.005L69.9015 145.329L68.4023 150.099L66.9032 154.869L69.0565 155.545L70.5557 150.775ZM68.4023 150.099L71.4064 146.102L69.881 144.955L66.877 148.952L63.8729 152.949L65.3983 154.096L68.4023 150.099ZM66.877 148.952L71.1046 146.283L70.0539 144.618L65.8262 147.288L61.5985 149.958L62.6493 151.622L66.877 148.952ZM65.8262 147.288L70.6606 146.012L70.0405 143.663L65.2061 144.938L60.3716 146.214L60.9917 148.564L65.8262 147.288ZM65.2061 144.938L70.2015 144.726L69.9955 139.878L65 140.091L60.0045 140.303L60.2106 145.151L65.2061 144.938ZM65 140.091H70V26.9092H65H60V140.091H65ZM65 26.9092L69.9955 27.1215L70.2015 22.2739L65.2061 22.0615L60.2106 21.8492L60.0045 26.6968L65 26.9092ZM65.2061 22.0615L70.0405 23.3375L70.6606 20.9878L65.8262 19.7119L60.9917 18.436L60.3716 20.7856L65.2061 22.0615ZM65.8262 19.7119L70.0539 22.3815L71.1046 20.7174L66.877 18.0479L62.6493 15.3783L61.5985 17.0423L65.8262 19.7119ZM66.877 18.0479L69.881 22.0448L71.4064 20.8983L68.4023 16.9014L65.3983 12.9044L63.8729 14.0509L66.877 18.0479ZM68.4023 16.9014L69.9015 21.6713L72.0548 20.9946L70.5557 16.2246L69.0565 11.4546L66.9032 12.1314L68.4023 16.9014ZM70.5557 16.2246L70.808 21.2182L75.2524 20.9936L75 16L74.7476 11.0064L70.3033 11.231L70.5557 16.2246ZM75 16L74.7476 20.9936L79.1909 21.2182L79.4434 16.2246L79.6958 11.231L75.2524 11.0064L75 16Z" fill="#322116" mask="url(#path-1-inside-1_1212_70692)"/>
<mask id="path-3-inside-2_1212_70692" fill="white">
<path d="M84.415 25.1528C87.889 25.1529 90.9106 27.0885 92.4609 29.9399L99.5898 28.1665L113.145 26.7026C113.821 26.6296 114.411 27.1599 114.411 27.8403V60.7603C114.411 61.444 113.82 61.9769 113.141 61.9019C109.934 61.5472 101.501 60.6508 97.6982 60.603C97.5859 60.6016 97.4794 60.5845 97.3721 60.5513L91.9932 58.8853C90.3472 61.3117 87.5679 62.9067 84.415 62.9067H66.1094C61.4324 62.9066 57.5776 59.3981 57.0273 54.8696C43.6159 47.5121 33.7584 49.0611 8.38672 55.0044C4.53164 55.9074 1.47986 51.8486 3.81348 48.6499C8.6556 42.0129 13.0294 39.2344 19.5693 34.5864C32.0113 25.7439 44.9553 25.074 59.6533 27.8179C61.3083 26.1708 63.59 25.1529 66.1094 25.1528H84.415Z"/>
</mask>
<path d="M84.415 25.1528C87.889 25.1529 90.9106 27.0885 92.4609 29.9399L99.5898 28.1665L113.145 26.7026C113.821 26.6296 114.411 27.1599 114.411 27.8403V60.7603C114.411 61.444 113.82 61.9769 113.141 61.9019C109.934 61.5472 101.501 60.6508 97.6982 60.603C97.5859 60.6016 97.4794 60.5845 97.3721 60.5513L91.9932 58.8853C90.3472 61.3117 87.5679 62.9067 84.415 62.9067H66.1094C61.4324 62.9066 57.5776 59.3981 57.0273 54.8696C43.6159 47.5121 33.7584 49.0611 8.38672 55.0044C4.53164 55.9074 1.47986 51.8486 3.81348 48.6499C8.6556 42.0129 13.0294 39.2344 19.5693 34.5864C32.0113 25.7439 44.9553 25.074 59.6533 27.8179C61.3083 26.1708 63.59 25.1529 66.1094 25.1528H84.415Z" fill="#4A301F"/>
<path d="M84.415 25.1528L84.4152 20.1528H84.415V25.1528ZM92.4609 29.9399L88.0682 32.3282L89.9153 35.7256L93.668 34.7921L92.4609 29.9399ZM99.5898 28.1665L99.053 23.1954L98.7138 23.232L98.3828 23.3144L99.5898 28.1665ZM113.145 26.7026L112.608 21.7315L112.608 21.7315L113.145 26.7026ZM114.411 27.8403L109.411 27.8403V27.8403H114.411ZM114.411 60.7603L119.411 60.7603V60.7603H114.411ZM113.141 61.9019L112.591 66.8715L112.592 66.8717L113.141 61.9019ZM97.6982 60.603L97.6354 65.6026L97.6355 65.6026L97.6982 60.603ZM97.3721 60.5513L95.8927 65.3274L95.8933 65.3276L97.3721 60.5513ZM91.9932 58.8853L93.4725 54.1091L89.9346 53.0133L87.8554 56.0783L91.9932 58.8853ZM84.415 62.9067V67.9067H84.4152L84.415 62.9067ZM66.1094 62.9067L66.1092 67.9067H66.1094V62.9067ZM57.0273 54.8696L61.9908 54.2665L61.6814 51.7199L59.4322 50.486L57.0273 54.8696ZM8.38672 55.0044L7.24634 50.1362L7.24634 50.1362L8.38672 55.0044ZM3.81348 48.6499L-0.225793 45.703L-0.2258 45.703L3.81348 48.6499ZM19.5693 34.5864L16.6728 30.5109L16.6728 30.5109L19.5693 34.5864ZM59.6533 27.8179L58.7358 32.733L61.3183 33.2151L63.1804 31.3618L59.6533 27.8179ZM66.1094 25.1528V20.1528H66.1092L66.1094 25.1528ZM84.415 25.1528L84.4149 30.1528C85.9841 30.1529 87.3578 31.0215 88.0682 32.3282L92.4609 29.9399L96.8537 27.5517C94.4635 23.1554 89.7939 20.153 84.4152 20.1528L84.415 25.1528ZM92.4609 29.9399L93.668 34.7921L100.797 33.0186L99.5898 28.1665L98.3828 23.3144L91.2539 25.0878L92.4609 29.9399ZM99.5898 28.1665L100.127 33.1376L113.681 31.6737L113.145 26.7026L112.608 21.7315L99.053 23.1954L99.5898 28.1665ZM113.145 26.7026L113.681 31.6738C111.399 31.92 109.411 30.1313 109.411 27.8403L114.411 27.8403L119.411 27.8404C119.411 24.1885 116.243 21.3393 112.608 21.7315L113.145 26.7026ZM114.411 27.8403H109.411V60.7603H114.411H119.411V27.8403H114.411ZM114.411 60.7603L109.411 60.7602C109.411 58.4867 111.387 56.6779 113.689 56.932L113.141 61.9019L112.592 66.8717C116.253 67.2758 119.411 64.4013 119.411 60.7603L114.411 60.7603ZM113.141 61.9019L113.69 56.9322C110.586 56.5888 101.866 55.655 97.761 55.6034L97.6982 60.603L97.6355 65.6026C101.136 65.6466 109.283 66.5056 112.591 66.8715L113.141 61.9019ZM97.6982 60.603L97.7611 55.6034C98.1387 55.6082 98.5087 55.669 98.8508 55.7749L97.3721 60.5513L95.8933 65.3276C96.4501 65.5 97.0331 65.5951 97.6354 65.6026L97.6982 60.603ZM97.3721 60.5513L98.8514 55.7751L93.4725 54.1091L91.9932 58.8853L90.5138 63.6614L95.8927 65.3274L97.3721 60.5513ZM91.9932 58.8853L87.8554 56.0783C87.0992 57.193 85.8393 57.9067 84.4149 57.9067L84.415 62.9067L84.4152 67.9067C89.2966 67.9066 93.5951 65.4303 96.1309 61.6922L91.9932 58.8853ZM84.415 62.9067V57.9067H66.1094V62.9067V67.9067H84.415V62.9067ZM66.1094 62.9067L66.1096 57.9067C63.9933 57.9067 62.2401 56.318 61.9908 54.2665L57.0273 54.8696L52.0639 55.4728C52.9152 62.4783 58.8714 67.9065 66.1092 67.9067L66.1094 62.9067ZM57.0273 54.8696L59.4322 50.486C51.9896 46.4029 45.2973 44.7138 37.0483 44.9513C29.1395 45.1789 19.8256 47.1895 7.24634 50.1362L8.38672 55.0044L9.5271 59.8726C22.3195 56.876 30.6202 55.1404 37.336 54.9471C43.7115 54.7636 48.6537 55.9788 54.6225 59.2533L57.0273 54.8696ZM8.38672 55.0044L7.24634 50.1362C7.24442 50.1366 7.27503 50.1298 7.33082 50.1336C7.38526 50.1374 7.44605 50.1501 7.5073 50.1736C7.62379 50.2182 7.72914 50.2962 7.81348 50.4114C7.89921 50.5284 7.994 50.73 8.00019 51.0079C8.00714 51.3201 7.89738 51.5356 7.85275 51.5968L3.81348 48.6499L-0.2258 45.703C-2.77805 49.2013 -2.38796 53.406 -0.254804 56.3192C1.8273 59.1627 5.55646 60.8027 9.5271 59.8726L8.38672 55.0044ZM3.81348 48.6499L7.85275 51.5968C12.1325 45.7307 15.7966 43.402 22.4659 38.662L19.5693 34.5864L16.6728 30.5109C10.2623 35.0669 5.17875 38.2951 -0.225793 45.703L3.81348 48.6499ZM19.5693 34.5864L22.4658 38.662C33.3886 30.8992 44.7705 30.1259 58.7358 32.733L59.6533 27.8179L60.5709 22.9028C45.14 20.0222 30.6341 20.5886 16.6728 30.5109L19.5693 34.5864ZM59.6533 27.8179L63.1804 31.3618C63.9364 30.6094 64.9647 30.1529 66.1096 30.1528L66.1094 25.1528L66.1092 20.1528C62.2153 20.153 58.6801 21.7321 56.1262 24.2739L59.6533 27.8179ZM66.1094 25.1528V30.1528H84.415V25.1528V20.1528H66.1094V25.1528Z" fill="#322116" mask="url(#path-3-inside-2_1212_70692)"/>
<rect x="65.9238" y="35.4492" width="18.3051" height="16.017" rx="2.28814" fill="#5C3D2A"/>
</g>
<defs>
<clipPath id="clip0_1212_70692">
<rect width="150" height="150" fill="white"/>
</clipPath>
</defs>
</svg>
