<svg width="150" height="150" viewBox="0 0 150 150" fill="none" xmlns="http://www.w3.org/2000/svg">
<g clip-path="url(#clip0_1205_454)">
<mask id="path-1-inside-1_1205_454" fill="white">
<path d="M77.3574 0.391602L79.667 1.66504L83.5361 5.18945L87.0615 9.05859L87.4414 9.74805L88.0605 10.4746L88.9404 12.9404L89.2324 18.0312V94.4658H101.391L104.383 94.6963L105.834 95.3936L106.86 96.5723L107.568 98.2822L107.987 100.698L108.125 105.684L107.987 110.668L107.568 113.085L106.86 114.794L105.834 115.973L104.383 116.671L101.391 116.901H84.5088V128.877L84.4844 129.356L87.1045 132.229L88.3965 134.554L88.8018 136.706L88.417 138.854L87.1484 141.165L83.6279 145.032L79.7607 148.553L77.4492 149.821L75.3008 150.207L73.1484 149.801L70.8252 148.51L66.9238 144.951L63.3652 141.05L62.0742 138.727L61.668 136.574L62.0537 134.426L63.3223 132.114L65.6494 129.557L65.6162 128.877V116.901H48.7354L45.7422 116.671L44.291 115.973L43.2646 114.794L42.5576 113.085L42.1387 110.668L42 105.684L42.1387 100.698L42.5576 98.2822L43.2646 96.5723L44.291 95.3936L45.7422 94.6963L48.7354 94.4658H60.8926V18.0312L61.1846 12.9404L62.0654 10.4746L63.5537 8.72852L63.793 8.59473L66.875 5.21484L70.7539 1.67871L73.0674 0.398438L75.2129 0L77.3574 0.391602Z"/>
</mask>
<path d="M77.3574 0.391602L79.667 1.66504L83.5361 5.18945L87.0615 9.05859L87.4414 9.74805L88.0605 10.4746L88.9404 12.9404L89.2324 18.0312V94.4658H101.391L104.383 94.6963L105.834 95.3936L106.86 96.5723L107.568 98.2822L107.987 100.698L108.125 105.684L107.987 110.668L107.568 113.085L106.86 114.794L105.834 115.973L104.383 116.671L101.391 116.901H84.5088V128.877L84.4844 129.356L87.1045 132.229L88.3965 134.554L88.8018 136.706L88.417 138.854L87.1484 141.165L83.6279 145.032L79.7607 148.553L77.4492 149.821L75.3008 150.207L73.1484 149.801L70.8252 148.51L66.9238 144.951L63.3652 141.05L62.0742 138.727L61.668 136.574L62.0537 134.426L63.3223 132.114L65.6494 129.557L65.6162 128.877V116.901H48.7354L45.7422 116.671L44.291 115.973L43.2646 114.794L42.5576 113.085L42.1387 110.668L42 105.684L42.1387 100.698L42.5576 98.2822L43.2646 96.5723L44.291 95.3936L45.7422 94.6963L48.7354 94.4658H60.8926V18.0312L61.1846 12.9404L62.0654 10.4746L63.5537 8.72852L63.793 8.59473L66.875 5.21484L70.7539 1.67871L73.0674 0.398438L75.2129 0L77.3574 0.391602Z" fill="#4A301F"/>
<path d="M77.3574 0.391602L79.7716 -3.98693L79.0577 -4.38061L78.2556 -4.52707L77.3574 0.391602ZM79.667 1.66504L83.034 -2.03132L82.5979 -2.42863L82.0812 -2.7135L79.667 1.66504ZM83.5361 5.18945L87.232 1.82191L87.0753 1.64985L86.9032 1.49309L83.5361 5.18945ZM87.0615 9.05859L91.4408 6.64567L91.1555 6.12797L90.7574 5.69105L87.0615 9.05859ZM87.4414 9.74805L83.0622 12.161L83.3069 12.6051L83.6357 12.991L87.4414 9.74805ZM88.0605 10.4746L92.7697 8.79423L92.4613 7.93002L91.8662 7.23162L88.0605 10.4746ZM88.9404 12.9404L93.9322 12.6541L93.8911 11.9368L93.6496 11.26L88.9404 12.9404ZM89.2324 18.0312H94.2324V17.888L94.2242 17.7449L89.2324 18.0312ZM89.2324 94.4658H84.2324V99.4658H89.2324V94.4658ZM101.391 94.4658L101.775 89.4806L101.583 89.4658H101.391V94.4658ZM104.383 94.6963L106.548 90.1895L105.702 89.7831L104.767 89.7111L104.383 94.6963ZM105.834 95.3936L109.605 92.1101L108.928 91.333L107.999 90.8868L105.834 95.3936ZM106.86 96.5723L111.48 94.6595L111.168 93.9048L110.631 93.2888L106.86 96.5723ZM107.568 98.2822L112.495 97.428L112.4 96.8817L112.188 96.3695L107.568 98.2822ZM107.987 100.698L112.985 100.56L112.975 100.2L112.914 99.844L107.987 100.698ZM108.125 105.684L113.123 105.822L113.127 105.684L113.123 105.546L108.125 105.684ZM107.987 110.668L112.914 111.522L112.975 111.167L112.985 110.806L107.987 110.668ZM107.568 113.085L112.188 114.999L112.4 114.486L112.495 113.939L107.568 113.085ZM106.86 114.794L110.631 118.077L111.167 117.462L111.48 116.708L106.86 114.794ZM105.834 115.973L108.002 120.478L108.929 120.032L109.605 119.256L105.834 115.973ZM104.383 116.671L104.767 121.656L105.704 121.584L106.551 121.176L104.383 116.671ZM101.391 116.901V121.901H101.583L101.775 121.887L101.391 116.901ZM84.5088 116.901V111.901H79.5088V116.901H84.5088ZM84.5088 128.877L89.5023 129.131L89.5088 129.004V128.877H84.5088ZM84.4844 129.356L79.4908 129.102L79.3848 131.185L80.79 132.726L84.4844 129.356ZM87.1045 132.229L91.4747 129.8L91.1916 129.291L90.7989 128.86L87.1045 132.229ZM88.3965 134.554L93.3101 133.628L93.1602 132.832L92.7667 132.124L88.3965 134.554ZM88.8018 136.706L93.7235 137.587L93.8854 136.683L93.7154 135.781L88.8018 136.706ZM88.417 138.854L92.7999 141.261L93.1942 140.543L93.3387 139.736L88.417 138.854ZM87.1484 141.165L90.8458 144.531L91.2455 144.092L91.5313 143.571L87.1484 141.165ZM83.6279 145.032L86.9939 148.73L87.1674 148.572L87.3253 148.398L83.6279 145.032ZM79.7607 148.553L82.1663 152.936L82.6872 152.65L83.1267 152.25L79.7607 148.553ZM77.4492 149.821L78.3328 154.743L79.1378 154.598L79.8548 154.205L77.4492 149.821ZM75.3008 150.207L74.3734 155.12L75.2782 155.291L76.1844 155.128L75.3008 150.207ZM73.1484 149.801L70.7198 154.171L71.4265 154.564L72.2211 154.714L73.1484 149.801ZM70.8252 148.51L67.4557 152.204L67.8866 152.597L68.3965 152.88L70.8252 148.51ZM66.9238 144.951L63.2297 148.321L63.3846 148.49L63.5543 148.645L66.9238 144.951ZM63.3652 141.05L58.9947 143.478L59.278 143.988L59.6711 144.419L63.3652 141.05ZM62.0742 138.727L57.161 139.654L57.3109 140.448L57.7037 141.155L62.0742 138.727ZM61.668 136.574L56.7467 135.691L56.584 136.597L56.7547 137.502L61.668 136.574ZM62.0537 134.426L57.6704 132.02L57.2769 132.737L57.1324 133.542L62.0537 134.426ZM63.3223 132.114L59.624 128.749L59.2245 129.188L58.939 129.709L63.3223 132.114ZM65.6494 129.557L69.3476 132.922L70.7447 131.386L70.6435 129.313L65.6494 129.557ZM65.6162 128.877H60.6162V128.999L60.6222 129.121L65.6162 128.877ZM65.6162 116.901H70.6162V111.901H65.6162V116.901ZM48.7354 116.901L48.3515 121.887L48.5431 121.901H48.7354V116.901ZM45.7422 116.671L43.5743 121.176L44.4212 121.584L45.3583 121.656L45.7422 116.671ZM44.291 115.973L40.5202 119.256L41.1959 120.032L42.1231 120.478L44.291 115.973ZM43.2646 114.794L38.6444 116.705L38.957 117.461L39.4938 118.077L43.2646 114.794ZM42.5576 113.085L37.6311 113.939L37.7257 114.485L37.9374 114.996L42.5576 113.085ZM42.1387 110.668L37.1406 110.807L37.1506 111.167L37.2121 111.522L42.1387 110.668ZM42 105.684L37.0019 105.545L36.9981 105.684L37.0019 105.823L42 105.684ZM42.1387 100.698L37.2122 99.844L37.1506 100.199L37.1406 100.559L42.1387 100.698ZM42.5576 98.2822L37.937 96.3717L37.7256 96.8829L37.6311 97.428L42.5576 98.2822ZM43.2646 96.5723L39.4938 93.2888L38.9566 93.9058L38.6441 94.6618L43.2646 96.5723ZM44.291 95.3936L42.1256 90.8868L41.1968 91.333L40.5202 92.1101L44.291 95.3936ZM45.7422 94.6963L45.3583 89.711L44.4226 89.7831L43.5768 90.1895L45.7422 94.6963ZM48.7354 94.4658V89.4658H48.5431L48.3515 89.4806L48.7354 94.4658ZM60.8926 94.4658V99.4658H65.8926V94.4658H60.8926ZM60.8926 18.0312L55.9008 17.7449L55.8926 17.888V18.0312H60.8926ZM61.1846 12.9404L56.476 11.2584L56.234 11.9359L56.1928 12.6541L61.1846 12.9404ZM62.0654 10.4746L58.2601 7.23118L57.6653 7.92905L57.3568 8.79257L62.0654 10.4746ZM63.5537 8.72852L61.1134 4.36447L60.3304 4.80232L59.7484 5.48509L63.5537 8.72852ZM63.793 8.59473L66.2333 12.9588L66.9411 12.563L67.4875 11.9637L63.793 8.59473ZM66.875 5.21484L63.5065 1.51982L63.3359 1.67531L63.1804 1.84585L66.875 5.21484ZM70.7539 1.67871L68.3329 -2.69608L67.8193 -2.41182L67.3854 -2.01631L70.7539 1.67871ZM73.0674 0.398438L72.1545 -4.51751L71.3565 -4.36933L70.6464 -3.97635L73.0674 0.398438ZM75.2129 0L76.1111 -4.91867L75.2053 -5.08407L74.3 -4.91595L75.2129 0ZM77.3574 0.391602L74.9432 4.77014L77.2528 6.04358L79.667 1.66504L82.0812 -2.7135L79.7716 -3.98693L77.3574 0.391602ZM79.667 1.66504L76.3 5.3614L80.1691 8.88582L83.5361 5.18945L86.9032 1.49309L83.034 -2.03132L79.667 1.66504ZM83.5361 5.18945L79.8402 8.55699L83.3656 12.4261L87.0615 9.05859L90.7574 5.69105L87.232 1.82191L83.5361 5.18945ZM87.0615 9.05859L82.6823 11.4715L83.0622 12.161L87.4414 9.74805L91.8207 7.33512L91.4408 6.64567L87.0615 9.05859ZM87.4414 9.74805L83.6357 12.991L84.2549 13.7176L88.0605 10.4746L91.8662 7.23162L91.2471 6.50506L87.4414 9.74805ZM88.0605 10.4746L83.3514 12.155L84.2313 14.6208L88.9404 12.9404L93.6496 11.26L92.7697 8.79423L88.0605 10.4746ZM88.9404 12.9404L83.9486 13.2267L84.2406 18.3176L89.2324 18.0312L94.2242 17.7449L93.9322 12.6541L88.9404 12.9404ZM89.2324 18.0312H84.2324V94.4658H89.2324H94.2324V18.0312H89.2324ZM89.2324 94.4658V99.4658H101.391V94.4658V89.4658H89.2324V94.4658ZM101.391 94.4658L101.007 99.4511L103.999 99.6815L104.383 94.6963L104.767 89.7111L101.775 89.4806L101.391 94.4658ZM104.383 94.6963L102.217 99.203L103.669 99.9003L105.834 95.3936L107.999 90.8868L106.548 90.1895L104.383 94.6963ZM105.834 95.3936L102.063 98.677L103.09 99.8557L106.86 96.5723L110.631 93.2888L109.605 92.1101L105.834 95.3936ZM106.86 96.5723L102.241 98.485L102.949 100.195L107.568 98.2822L112.188 96.3695L111.48 94.6595L106.86 96.5723ZM107.568 98.2822L102.642 99.1365L103.061 101.553L107.987 100.698L112.914 99.844L112.495 97.428L107.568 98.2822ZM107.987 100.698L102.989 100.836L103.127 105.822L108.125 105.684L113.123 105.546L112.985 100.56L107.987 100.698ZM108.125 105.684L103.127 105.546L102.989 110.53L107.987 110.668L112.985 110.806L113.123 105.822L108.125 105.684ZM107.987 110.668L103.061 109.814L102.642 112.231L107.568 113.085L112.495 113.939L112.914 111.522L107.987 110.668ZM107.568 113.085L102.949 111.171L102.241 112.88L106.86 114.794L111.48 116.708L112.188 114.999L107.568 113.085ZM106.86 114.794L103.09 111.51L102.063 112.689L105.834 115.973L109.605 119.256L110.631 118.077L106.86 114.794ZM105.834 115.973L103.666 111.467L102.215 112.165L104.383 116.671L106.551 121.176L108.002 120.478L105.834 115.973ZM104.383 116.671L103.999 111.686L101.007 111.916L101.391 116.901L101.775 121.887L104.767 121.656L104.383 116.671ZM101.391 116.901V111.901H84.5088V116.901V121.901H101.391V116.901ZM84.5088 116.901H79.5088V128.877H84.5088H89.5088V116.901H84.5088ZM84.5088 128.877L79.5153 128.623L79.4908 129.102L84.4844 129.356L89.4779 129.611L89.5023 129.131L84.5088 128.877ZM84.4844 129.356L80.79 132.726L83.4101 135.599L87.1045 132.229L90.7989 128.86L88.1788 125.987L84.4844 129.356ZM87.1045 132.229L82.7343 134.659L84.0263 136.983L88.3965 134.554L92.7667 132.124L91.4747 129.8L87.1045 132.229ZM88.3965 134.554L83.4828 135.479L83.8881 137.631L88.8018 136.706L93.7154 135.781L93.3101 133.628L88.3965 134.554ZM88.8018 136.706L83.8801 135.825L83.4953 137.973L88.417 138.854L93.3387 139.736L93.7235 137.587L88.8018 136.706ZM88.417 138.854L84.0341 136.448L82.7656 138.759L87.1484 141.165L91.5313 143.571L92.7999 141.261L88.417 138.854ZM87.1484 141.165L83.4511 137.799L79.9306 141.666L83.6279 145.032L87.3253 148.398L90.8458 144.531L87.1484 141.165ZM83.6279 145.032L80.262 141.335L76.3948 144.855L79.7607 148.553L83.1267 152.25L86.9939 148.73L83.6279 145.032ZM79.7607 148.553L77.3552 144.169L75.0437 145.438L77.4492 149.821L79.8548 154.205L82.1663 152.936L79.7607 148.553ZM77.4492 149.821L76.5656 144.9L74.4172 145.286L75.3008 150.207L76.1844 155.128L78.3328 154.743L77.4492 149.821ZM75.3008 150.207L76.2281 145.294L74.0758 144.888L73.1484 149.801L72.2211 154.714L74.3734 155.12L75.3008 150.207ZM73.1484 149.801L75.5771 145.43L73.2539 144.139L70.8252 148.51L68.3965 152.88L70.7198 154.171L73.1484 149.801ZM70.8252 148.51L74.1947 144.816L70.2934 141.257L66.9238 144.951L63.5543 148.645L67.4557 152.204L70.8252 148.51ZM66.9238 144.951L70.6179 141.582L67.0593 137.68L63.3652 141.05L59.6711 144.419L63.2297 148.321L66.9238 144.951ZM63.3652 141.05L67.7358 138.621L66.4447 136.298L62.0742 138.727L57.7037 141.155L58.9947 143.478L63.3652 141.05ZM62.0742 138.727L66.9875 137.799L66.5812 135.647L61.668 136.574L56.7547 137.502L57.161 139.654L62.0742 138.727ZM61.668 136.574L66.5893 137.458L66.975 135.309L62.0537 134.426L57.1324 133.542L56.7467 135.691L61.668 136.574ZM62.0537 134.426L66.437 136.831L67.7056 134.52L63.3223 132.114L58.939 129.709L57.6704 132.02L62.0537 134.426ZM63.3223 132.114L67.0205 135.479L69.3476 132.922L65.6494 129.557L61.9512 126.192L59.624 128.749L63.3223 132.114ZM65.6494 129.557L70.6435 129.313L70.6103 128.633L65.6162 128.877L60.6222 129.121L60.6554 129.801L65.6494 129.557ZM65.6162 128.877H70.6162V116.901H65.6162H60.6162V128.877H65.6162ZM65.6162 116.901V111.901H48.7354V116.901V121.901H65.6162V116.901ZM48.7354 116.901L49.1192 111.916L46.126 111.686L45.7422 116.671L45.3583 121.656L48.3515 121.887L48.7354 116.901ZM45.7422 116.671L47.9101 112.165L46.4589 111.467L44.291 115.973L42.1231 120.478L43.5743 121.176L45.7422 116.671ZM44.291 115.973L48.0618 112.689L47.0355 111.51L43.2646 114.794L39.4938 118.077L40.5202 119.256L44.291 115.973ZM43.2646 114.794L47.8849 112.882L47.1778 111.174L42.5576 113.085L37.9374 114.996L38.6444 116.705L43.2646 114.794ZM42.5576 113.085L47.4842 112.231L47.0652 109.814L42.1387 110.668L37.2121 111.522L37.6311 113.939L42.5576 113.085ZM42.1387 110.668L47.1367 110.529L46.9981 105.545L42 105.684L37.0019 105.823L37.1406 110.807L42.1387 110.668ZM42 105.684L46.9981 105.823L47.1367 100.837L42.1387 100.698L37.1406 100.559L37.0019 105.545L42 105.684ZM42.1387 100.698L47.0652 101.553L47.4841 99.1365L42.5576 98.2822L37.6311 97.428L37.2122 99.844L42.1387 100.698ZM42.5576 98.2822L47.1782 100.193L47.8852 98.4828L43.2646 96.5723L38.6441 94.6618L37.937 96.3717L42.5576 98.2822ZM43.2646 96.5723L47.0355 99.8557L48.0618 98.677L44.291 95.3936L40.5202 92.1101L39.4938 93.2888L43.2646 96.5723ZM44.291 95.3936L46.4564 99.9003L47.9076 99.203L45.7422 94.6963L43.5768 90.1895L42.1256 90.8868L44.291 95.3936ZM45.7422 94.6963L46.126 99.6815L49.1192 99.4511L48.7354 94.4658L48.3515 89.4806L45.3583 89.711L45.7422 94.6963ZM48.7354 94.4658V99.4658H60.8926V94.4658V89.4658H48.7354V94.4658ZM60.8926 94.4658H65.8926V18.0312H60.8926H55.8926V94.4658H60.8926ZM60.8926 18.0312L65.8844 18.3176L66.1764 13.2267L61.1846 12.9404L56.1928 12.6541L55.9008 17.7449L60.8926 18.0312ZM61.1846 12.9404L65.8932 14.6225L66.774 12.1566L62.0654 10.4746L57.3568 8.79257L56.476 11.2584L61.1846 12.9404ZM62.0654 10.4746L65.8707 13.718L67.359 11.9719L63.5537 8.72852L59.7484 5.48509L58.2601 7.23118L62.0654 10.4746ZM63.5537 8.72852L65.994 13.0926L66.2333 12.9588L63.793 8.59473L61.3527 4.23068L61.1134 4.36447L63.5537 8.72852ZM63.793 8.59473L67.4875 11.9637L70.5696 8.58384L66.875 5.21484L63.1804 1.84585L60.0984 5.22573L63.793 8.59473ZM66.875 5.21484L70.2435 8.90987L74.1224 5.37374L70.7539 1.67871L67.3854 -2.01631L63.5065 1.51982L66.875 5.21484ZM70.7539 1.67871L73.1749 6.0535L75.4884 4.77322L73.0674 0.398438L70.6464 -3.97635L68.3329 -2.69608L70.7539 1.67871ZM73.0674 0.398438L73.9803 5.31439L76.1258 4.91595L75.2129 0L74.3 -4.91595L72.1545 -4.51751L73.0674 0.398438ZM75.2129 0L74.3147 4.91867L76.4593 5.31027L77.3574 0.391602L78.2556 -4.52707L76.1111 -4.91867L75.2129 0Z" fill="#322116" mask="url(#path-1-inside-1_1205_454)"/>
<path d="M72.3435 133.79L73.6093 132.639L74.3676 132.226L75.0741 132.103L75.7835 132.242L76.5511 132.671L77.8427 133.851L79.022 135.142L79.4518 135.91L79.5899 136.619L79.4675 137.326L79.0545 138.084L77.9033 139.35L76.6375 140.501L75.8792 140.914L75.1727 141.036L74.4633 140.898L73.6957 140.469L72.4042 139.289L71.2248 137.998L70.795 137.23L70.657 136.521L70.7794 135.814L71.1924 135.056L72.3435 133.79Z" fill="#5C3D2A"/>
<path d="M69.1587 24.109L69.2802 19.9911L69.647 17.9965L70.2673 16.5838L71.1675 15.6105L72.4386 15.035L75.0627 14.8442L77.6869 15.035L78.958 15.6105L79.8582 16.5838L80.4785 17.9965L80.8452 19.9911L80.9668 24.109V90.5977L80.8452 94.7156L80.4785 96.7103L79.8582 98.1229L78.958 99.0962L77.6869 99.6717L75.0627 99.8625L72.4386 99.6717L71.1675 99.0962L70.2673 98.1229L69.647 96.7103L69.2802 94.7156L69.1587 90.5977V24.109Z" fill="#5C3D2A"/>
<path d="M71.5203 27.0081L71.5932 23.1762L71.8132 21.32L72.1854 20.0055L72.7255 19.0998L73.4882 18.5642L75.0627 18.3867L76.6372 18.5642L77.3999 19.0998L77.94 20.0055L78.3121 21.32L78.5322 23.1762L78.6051 27.0081V88.8795L78.5322 92.7115L78.3121 94.5676L77.94 95.8821L77.3999 96.7879L76.6372 97.3234L75.0627 97.5009L73.4882 97.3234L72.7255 96.7879L72.1854 95.8821L71.8132 94.5676L71.5932 92.7115L71.5203 88.8795V27.0081Z" fill="#72503B"/>
<path d="M50.2659 105.683L50.3672 104.372L50.6738 103.736L51.192 103.286L51.9433 102.976L53.0057 102.792L55.1968 102.731H93.7481L95.9392 102.792L97.0016 102.976L97.7529 103.286L98.2711 103.736L98.5777 104.372L98.679 105.683L98.5777 106.995L98.2711 107.631L97.7529 108.081L97.0016 108.391L95.9392 108.575L93.7481 108.635H55.1968L53.0057 108.575L51.9433 108.391L51.192 108.081L50.6738 107.631L50.3672 106.995L50.2659 105.683Z" fill="#5C3D2A"/>
</g>
<defs>
<clipPath id="clip0_1205_454">
<rect width="150" height="150" fill="white"/>
</clipPath>
</defs>
</svg>
