<svg width="100" height="100" viewBox="0 0 100 100" fill="none" xmlns="http://www.w3.org/2000/svg">
<path d="M59.1719 26.2402L63.459 26.9121L66.5342 27.9658L68.8477 29.3691L70.6299 31.1514L72.0332 33.4648L73.0869 36.54L73.7588 40.8271L73.998 50L73.7588 59.1719L73.0869 63.459L72.0332 66.5342L70.6299 68.8477L68.8477 70.6299L66.5342 72.0332L63.459 73.0869L59.1719 73.7588L50 73.998L40.8271 73.7588L36.54 73.0869L33.4648 72.0332L31.1514 70.6299L29.3691 68.8477L27.9658 66.5342L26.9121 63.459L26.2402 59.1719L26.001 50L26.2402 40.8271L26.9121 36.54L27.9658 33.4648L29.3691 31.1514L31.1514 29.3691L33.4648 27.9658L36.54 26.9121L40.8271 26.2402L50 26.001L59.1719 26.2402Z" stroke="#4C2416" stroke-width="6"/>
<path d="M47 26L47.062 24.667L47.248 24.021L47.563 23.563L48.021 23.248L48.667 23.062L50 23L51.333 23.062L51.979 23.248L52.437 23.563L52.752 24.021L52.938 24.667L53 26V38L53.062 39.333L53.248 39.979L53.563 40.437L54.021 40.752L54.667 40.938L56 41L57.333 41.062L57.979 41.248L58.437 41.563L58.752 42.021L58.938 42.667L59 44L59.062 45.333L59.248 45.979L59.563 46.437L60.021 46.752L60.667 46.938L62 47H74L75.333 47.062L75.979 47.248L76.437 47.563L76.752 48.021L76.938 48.667L77 50L76.938 51.333L76.752 51.979L76.437 52.437L75.979 52.752L75.333 52.938L74 53H62L60.667 53.062L60.021 53.248L59.563 53.563L59.248 54.021L59.062 54.667L59 56L58.938 57.333L58.752 57.979L58.437 58.437L57.979 58.752L57.333 58.938L56 59L54.667 59.062L54.021 59.248L53.563 59.563L53.248 60.021L53.062 60.667L53 62V74L52.938 75.333L52.752 75.979L52.437 76.437L51.979 76.752L51.333 76.938L50 77L48.667 76.938L48.021 76.752L47.563 76.437L47.248 75.979L47.062 75.333L47 74V62L46.938 60.667L46.752 60.021L46.437 59.563L45.979 59.248L45.333 59.062L44 59L42.667 58.938L42.021 58.752L41.563 58.437L41.248 57.979L41.062 57.333L41 56L40.938 54.667L40.752 54.021L40.437 53.563L39.979 53.248L39.333 53.062L38 53H26L24.667 52.938L24.021 52.752L23.563 52.437L23.248 51.979L23.062 51.333L23 50L23.062 48.667L23.248 48.021L23.563 47.563L24.021 47.248L24.667 47.062L26 47H38L39.333 46.938L39.979 46.752L40.437 46.437L40.752 45.979L40.938 45.333L41 44L41.062 42.667L41.248 42.021L41.563 41.563L42.021 41.248L42.667 41.062L44 41L45.333 40.938L45.979 40.752L46.437 40.437L46.752 39.979L46.938 39.333L47 38V26Z" fill="#4C2416"/>
<path d="M47 50L47.062 48.667L47.248 48.021L47.563 47.563L48.021 47.248L48.667 47.062L50 47L51.333 47.062L51.979 47.248L52.437 47.563L52.752 48.021L52.938 48.667L53 50L52.938 51.333L52.752 51.979L52.437 52.437L51.979 52.752L51.333 52.938L50 53L48.667 52.938L48.021 52.752L47.563 52.437L47.248 51.979L47.062 51.333L47 50Z" fill="#81361E"/>
</svg>
