<svg width="100" height="100" viewBox="0 0 100 100" fill="none" xmlns="http://www.w3.org/2000/svg">
<g clip-path="url(#clip0_692_70806)">
<path d="M55.7266 7.68818C57.9612 7.05878 60.3617 7.66908 62.0243 9.28942L88.6787 35.2691C90.3411 36.8896 91.0127 39.274 90.4407 41.5241L81.2688 77.597C80.6966 79.847 78.9677 81.6211 76.7331 82.2508L40.9068 92.3441C38.6722 92.9735 36.2717 92.3631 34.6091 90.7428L7.95468 64.7632C6.29213 63.1426 5.62066 60.7583 6.19268 58.5082L15.3646 22.4352C15.9367 20.1851 17.6656 18.4111 19.9003 17.7815L55.7266 7.68818Z" fill="#3A8F2C" stroke="#256A1A" stroke-width="5"/>
<path d="M49.3 25.4581L68.3071 43.9843L61.7666 69.7081L36.2189 76.9057L17.2117 58.3795L23.7522 32.6558L49.3 25.4581Z" fill="#419B32"/>
<path d="M46.7872 35.3407L58.4922 46.7495L54.4644 62.5907L38.7317 67.0231L27.0267 55.6144L31.0545 39.7732L46.7872 35.3407Z" fill="#51AD42"/>
<path d="M58.4809 9.43145L49.2392 25.4942L68.1616 44.1794L88.441 38.8657L58.4809 9.43145Z" fill="#8CD382"/>
<path d="M23.6786 32.7144L18.295 20.824L58.5417 9.39534L49.2877 25.5066L23.6786 32.7144Z" fill="#6BBD5E"/>
<path d="M78.4115 79.1235L61.8643 69.7586L36.1344 76.8326L37.9701 90.709L78.4115 79.1235Z" fill="#328125"/>
<path d="M8.00905 61.4809L17.2111 58.3536L36.1467 76.7842L38.0069 90.5637L8.00905 61.4809Z" fill="#2B6F20"/>
<path d="M27.0905 55.6048L17.1142 58.3289L36.425 76.9065L38.9255 67.0724L27.0905 55.6048Z" fill="#6BBD5E"/>
<path d="M54.3645 62.5394L38.8655 66.9023L36.3651 76.7365L61.7911 69.8432L54.3645 62.5394Z" fill="#8CD381"/>
<path d="M49.2402 25.2882L46.6042 35.6552L31.1315 39.5091L23.5818 32.6898L49.2402 25.2882Z" fill="#3A8D2C"/>
<path d="M58.586 46.7476L46.7741 35.5953L49.373 25.3736L68.1854 44.2886L58.586 46.7476Z" fill="#3A852E"/>
</g>
<defs>
<clipPath id="clip0_692_70806">
<rect width="100" height="100" fill="white"/>
</clipPath>
</defs>
</svg>
