<svg width="100" height="100" viewBox="0 0 100 100" fill="none" xmlns="http://www.w3.org/2000/svg">
<path d="M50.863 8.27798C51.7117 9.05949 52.4963 10.2818 53.1991 11.5543C53.9407 12.8972 54.7306 14.5598 55.5424 16.4293C57.168 20.1733 58.9404 24.8918 60.6447 29.8613C64.0448 39.7761 67.2501 50.9103 68.5078 57.5682C69.6964 63.8606 71.6015 72.832 69.9936 80.2741C69.1654 84.1075 67.3778 87.7141 63.9848 90.3669C60.6135 93.0026 55.937 94.4777 49.7408 94.6129C43.485 94.7494 38.5907 93.321 34.8984 90.6917C31.2088 88.0643 28.946 84.3993 27.661 80.4646C25.1467 72.7658 26.251 63.6928 27.9531 57.6967C29.4462 49.217 32.9766 38.0631 36.718 28.5569C38.603 23.7676 40.5632 19.3406 42.3763 15.8355C43.282 14.0845 44.1679 12.5312 45.0048 11.2651C45.8119 10.044 46.6819 8.92059 47.5879 8.18044L49.2678 6.80851L50.863 8.27798Z" fill="#3A8F2C" stroke="#256A1A" stroke-width="5"/>
<path d="M55.1438 72.3671C60.9851 69.312 55.3197 32.4252 51.4125 16C59.299 27.2072 65.4536 69.0415 64.6186 79.7497C63.7836 90.4578 50.2492 88.0404 49.7986 87.0548C46.4591 79.7497 51.4125 74.3186 55.1438 72.3671Z" fill="#4CA73D"/>
</svg>
