<svg width="100" height="100" viewBox="0 0 100 100" fill="none" xmlns="http://www.w3.org/2000/svg">
<path d="M86.5014 51.8506C89.691 58.2831 90.2362 67.99 90.282 68.9265C90.2846 68.9799 90.2908 69.0261 90.3015 69.0785L92.9878 82.2147C93.0082 82.3146 93.0132 82.417 93.0027 82.5184L92.389 88.4221C92.3019 89.2607 91.2797 89.6217 90.6852 89.0238L88.0296 86.3528C87.9662 86.289 87.9117 86.217 87.8676 86.1386L81.91 75.5665C81.8586 75.4753 81.7975 75.3969 81.7221 75.3242C80.832 74.4663 74.8265 68.4242 73.6975 60.5405C73.0942 56.3278 69.9145 49.3963 69.0735 47.615C68.9443 47.3414 68.6983 47.1479 68.4047 47.0745C66.8024 46.674 61.3622 45.2151 56.942 42.8511C54.2941 41.4349 50.8992 37.1015 49.6917 35.4877C49.4216 35.1266 48.9472 34.9814 48.5239 35.1366L35.3216 39.9788C35.0479 40.0791 34.7441 40.0551 34.4897 39.913L25.4865 34.885C25.3566 34.8125 25.2445 34.7119 25.1584 34.5905L12.1811 16.2954C11.6309 15.5198 12.3338 14.5987 13.2057 14.978C16.9594 16.611 20.8 18.2891 27.7265 12.018C35.9699 4.55445 46.2166 15.3966 50.8145 22.4559C51.1126 22.9137 51.7233 23.0716 52.2368 22.8855C53.9251 22.2735 57.8122 21.4982 62.3147 24.8419C66.7639 28.146 71.9077 37.5299 72.8802 39.3509C72.9877 39.5523 73.1514 39.7065 73.3574 39.8049C75.0303 40.6045 82.9484 44.6849 86.5014 51.8506Z" fill="#1B1B1B"/>
<path d="M51.3657 23.2732C51.1879 22.6228 50.3093 21.4094 49.2298 20.0939C48.4915 19.1943 46.3842 20.4487 46.4096 21.6122C46.5826 29.5311 38.1201 33.7994 30.9301 34.7011C29.8274 34.8394 29.2548 36.8635 30.2168 37.4198C32.5819 38.7875 34.7393 40.0312 34.9268 40.1147C35.328 40.2932 48.714 34.7506 49.2531 34.5128C49.6843 34.3226 51.886 25.1764 51.3657 23.2732Z" fill="#353535"/>
<path d="M64.7145 46.0055C63.6118 45.6166 64.0382 42.9399 65.0416 42.3396C68.0282 40.5531 68.3089 36.8773 67.6003 33.433C67.3816 32.3701 68.3838 31.802 68.9699 32.7153C70.3422 34.8537 71.8528 37.4532 73.1058 39.6315C74.0514 41.2753 71.3581 46.0732 68.9884 47.145C68.83 47.2167 68.6542 47.2274 68.4849 47.1874C67.8478 47.037 66.6093 46.6738 64.7145 46.0055Z" fill="#353535"/>
<path d="M34.2265 7.75781C36.8361 7.84973 39.338 8.88483 41.5791 10.3154C44.9423 12.4625 47.9714 15.664 50.2724 18.666C50.3378 18.7224 50.402 18.7829 50.4638 18.8486L50.583 18.9834L50.9921 19.4893C51.3933 19.993 51.7664 20.4868 52.0791 20.9424C52.1071 20.9832 52.1336 21.0261 52.1621 21.0684C54.4207 20.3864 58.6527 19.942 63.3584 23.4365C65.7792 25.2343 68.241 28.4964 70.1796 31.417C70.2286 31.4737 70.2753 31.5316 70.3193 31.5908L70.4433 31.7695L70.9726 32.6064C71.2348 33.0257 71.4975 33.4579 71.7626 33.8945C72.0039 34.2879 72.2324 34.6701 72.4492 35.0352C73.1253 36.1707 73.7883 37.3123 74.3945 38.3643C75.4704 38.8961 77.7768 40.1281 80.288 42.0508C83.0369 44.1554 86.1295 47.1612 88.0693 51.0732C89.7808 54.525 90.7487 58.7649 91.2988 62.1709C91.8325 65.4754 91.9919 68.1284 92.0253 68.7744L94.7031 81.8643C94.7592 82.1389 94.773 82.4205 94.7441 82.6992L94.1298 88.6035C93.8898 90.9097 91.0792 91.9021 89.4443 90.2578L86.788 87.5869C86.6138 87.4116 86.4641 87.2134 86.3427 86.998L80.4326 76.5107C79.2834 75.3887 73.1545 69.0955 71.9648 60.7891C71.6943 58.9 70.8163 56.2766 69.8457 53.8066C69.02 51.7057 68.1689 49.8233 67.6875 48.7871C67.0126 48.6078 66.0183 48.3046 64.6904 47.8467C62.2463 47.0904 58.9885 45.9307 56.1162 44.3945C54.5065 43.5336 52.8246 41.8967 51.4824 40.4219C50.3124 39.1363 49.2835 37.838 48.6181 36.9668L41.2148 39.6816C39.9954 40.1668 38.8334 40.6243 37.8769 40.9854C37.2112 41.2367 36.6275 41.4496 36.1884 41.5957C35.9733 41.6673 35.7628 41.7332 35.583 41.7793C35.4975 41.8012 35.377 41.8292 35.247 41.8477C35.1835 41.8567 35.0775 41.8695 34.9501 41.8691C34.8666 41.8689 34.5608 41.8673 34.2158 41.7139C34.1706 41.6938 34.114 41.6626 34.0498 41.6289C33.9082 41.5782 33.7699 41.5158 33.6367 41.4414L24.6328 36.4131C24.2756 36.2136 23.9671 35.9372 23.7304 35.6035L10.7539 17.3076C10.0484 16.313 10.0727 15.043 10.7744 14.1338C11.446 13.2637 12.5937 12.9142 13.6865 13.2881L13.9043 13.373L14.6074 13.6758C16.2103 14.3552 17.5725 14.8262 19.1543 14.7158C20.9183 14.5927 23.2548 13.7056 26.5517 10.7207C28.9346 8.5633 31.5591 7.66391 34.2265 7.75781Z" stroke="#A80000" stroke-width="3.50071"/>
</svg>
