<svg width="200" height="200" viewBox="0 0 200 200" fill="none" xmlns="http://www.w3.org/2000/svg">
<path d="M61 85H141L139.5 119L123.5 109.5L98.5 123L79 109.5L61 115V85Z" fill="black" fill-opacity="0.25"/>
<mask id="path-2-outside-1_1291_2" maskUnits="userSpaceOnUse" x="44" y="55" width="113" height="89" fill="black">
<rect fill="white" x="44" y="55" width="113" height="89"/>
<path d="M82.3471 102.467C82.4214 102.453 82.4981 102.475 82.5528 102.528L96.9183 116.323C97.0487 116.449 97.2658 116.384 97.3069 116.208L99.7542 105.731C99.7697 105.665 99.7554 105.595 99.715 105.54L88.1368 89.7953C88.0982 89.7429 88.0422 89.7093 87.9776 89.702C80.8892 88.9033 66.5895 87.391 65.313 87.6444C64.0407 87.897 56.1417 95.793 52.26 99.8026C52.2018 99.8629 52.1825 99.9475 52.206 100.028L61.1261 130.546C61.1385 130.589 61.1625 130.626 61.1955 130.656L70.8916 139.228C71.0584 139.376 71.3172 139.228 71.2751 139.009L69.3308 128.913C69.3241 128.879 69.3096 128.846 69.2884 128.818L64.2459 122.091C64.2105 122.044 64.1944 121.985 64.2007 121.926L65.9358 105.798C65.9467 105.696 66.0229 105.613 66.1235 105.594L82.3471 102.467Z"/>
<path d="M118.012 102.495C117.937 102.481 117.861 102.503 117.806 102.556L103.441 116.352C103.31 116.477 103.093 116.412 103.052 116.236L100.605 105.76C100.589 105.693 100.603 105.623 100.644 105.568L112.222 89.8236C112.261 89.7712 112.317 89.7376 112.381 89.7303C119.47 88.9316 133.769 87.4192 135.046 87.6727C136.318 87.9253 144.217 95.8213 148.099 99.8309C148.157 99.8911 148.176 99.9758 148.153 100.056L139.231 130.58C139.22 130.619 139.199 130.654 139.17 130.682L130.226 139.383C130.069 139.536 129.807 139.407 129.832 139.189L131.031 128.951C131.036 128.91 131.051 128.871 131.076 128.838L136.113 122.119C136.148 122.072 136.164 122.013 136.158 121.955L134.423 105.826C134.412 105.725 134.336 105.642 134.235 105.622L118.012 102.495Z"/>
<path d="M116.792 127.731C116.597 127.644 116.394 127.835 116.49 128.025C119.146 133.291 127.073 136.647 130.901 137.716C130.956 137.731 131.015 137.723 131.066 137.698C138.243 134.114 132.073 129.945 130.01 129.782C127.978 129.62 126.301 131.987 116.792 127.731Z"/>
<path d="M83.6633 66.3202C83.6142 66.3202 83.568 66.3345 83.5283 66.3633C79.1309 69.54 70.5588 75.4777 67.4694 76.7418C67.2456 76.8334 67.1886 77.3049 67.401 77.4204L84.9784 86.9795C85.0126 86.9981 85.0509 87.0079 85.0899 87.0079H123.758C123.801 87.0079 123.844 86.9956 123.881 86.9724L139.505 77.2012C139.659 77.105 139.649 76.8776 139.487 76.7955L118.905 66.3455C118.872 66.3289 118.836 66.3202 118.799 66.3202H83.6633Z"/>
<path d="M126.532 90.478C126.449 90.4035 126.325 90.3984 126.236 90.4658L110.902 102.078C110.862 102.109 110.812 102.126 110.761 102.126H100.335C100.205 102.126 100.1 102.02 100.102 101.89L100.42 71.0943L109.138 72.3532C109.201 72.3623 109.265 72.3453 109.315 72.3063L126.278 59.0864C126.347 59.0333 126.439 59.0222 126.518 59.0577L143.607 66.7546C143.668 66.782 143.714 66.8341 143.734 66.8977L152.987 96.5133C152.995 96.5415 152.999 96.5711 152.997 96.6006L150.605 128.099C150.599 128.177 150.555 128.247 150.486 128.285L130.154 139.687C129.964 139.793 129.745 139.605 129.822 139.401L132.939 131.148C132.954 131.109 132.979 131.075 133.012 131.048L139.459 125.897C139.507 125.858 139.538 125.803 139.546 125.742L141.134 112.183C141.136 112.162 141.136 112.141 141.132 112.119L139.547 102.207C139.539 102.155 139.513 102.106 139.473 102.071L126.532 90.478Z"/>
<path d="M74.4675 90.478C74.5507 90.4035 74.6749 90.3984 74.7639 90.4658L90.0978 102.078C90.1384 102.109 90.1878 102.126 90.2387 102.126H100.187C100.315 102.126 100.42 102.021 100.42 101.893V71.0943L93.4564 72.0369C93.3985 72.0448 93.3398 72.0306 93.2919 71.9973L74.7192 59.0755C74.6519 59.0287 74.5649 59.0206 74.4902 59.0543L57.3933 66.7546C57.3325 66.782 57.2863 66.8341 57.2665 66.8977L48.0133 96.5133C48.0045 96.5415 48.0011 96.5711 48.0034 96.6006L50.3951 128.099C50.401 128.177 50.4455 128.247 50.5136 128.285L70.846 139.687C71.0359 139.793 71.2552 139.605 71.1783 139.401L68.0608 131.148C68.046 131.109 68.0209 131.075 67.9882 131.048L61.5406 125.897C61.4926 125.858 61.4616 125.803 61.4545 125.742L59.8664 112.183C59.8639 112.162 59.8643 112.141 59.8677 112.119L61.4526 102.207C61.461 102.155 61.4874 102.106 61.5273 102.071L74.4675 90.478Z"/>
<path d="M58.981 75.461C58.9836 75.4384 58.9893 75.4171 58.9983 75.3962L62.4952 67.2501C62.5506 67.121 62.7068 67.0699 62.8279 67.1412L72.0514 72.5747C72.138 72.6258 72.1822 72.7266 72.161 72.8248L68.4615 89.9798C68.4243 90.1524 68.2163 90.2228 68.082 90.1081C64.9623 87.4453 59.1638 82.5378 58.7532 82.3589C58.3314 82.1751 58.727 77.7056 58.981 75.461Z"/>
<path d="M70.5066 78.6388C70.4137 81.4196 68.0676 83.5991 65.2663 83.5069C62.4651 83.4147 60.2695 81.0856 60.3624 78.3048C60.4553 75.524 62.8015 73.3445 65.6027 73.4367C68.404 73.5289 70.5995 75.858 70.5066 78.6388Z"/>
<path d="M64.7402 76.0892C64.7027 77.214 63.7537 78.0956 62.6206 78.0583C61.4876 78.021 60.5995 77.0789 60.6371 75.9542C60.6747 74.8294 61.6237 73.9478 62.7567 73.9851C63.8898 74.0224 64.7778 74.9645 64.7402 76.0892Z"/>
<path d="M69.4586 76.3042C69.469 76.238 69.4505 76.1706 69.4077 76.119L64.0995 69.7249L61.5941 66.7807C61.4558 66.6182 61.5873 66.3708 61.7988 66.3994C66.3622 67.0152 74.6887 68.3709 75.7219 69.467C76.7872 70.597 78.4071 74.5352 79.1136 76.44C79.1327 76.4916 79.1323 76.5467 79.1135 76.5985L75.7317 85.944C75.7155 85.9888 75.686 86.0275 75.6471 86.0551L68.1604 91.3517C68.003 91.4631 67.7861 91.3462 67.7926 91.1535L67.9728 85.7582L69.4586 76.3042Z"/>
<path d="M69.5686 76.3607C69.5846 76.2394 69.6916 76.1511 69.8137 76.1584L79.2345 76.7208C79.3907 76.7302 79.4936 76.8877 79.4394 77.0345L76.1406 85.9629C76.1235 86.0091 76.0923 86.0487 76.0513 86.0761L67.9643 91.4715C67.7976 91.5828 67.5774 91.4458 67.6037 91.247L69.5686 76.3607Z"/>
<path d="M63.5117 71.5359C63.5051 71.5253 63.4995 71.5142 63.4947 71.5026L61.9852 67.8262C61.884 67.5797 62.2087 67.3836 62.3798 67.5879L69.62 76.2347C69.6622 76.2851 69.6812 76.3509 69.6723 76.416L68.0272 88.4404C67.9889 88.7206 67.5784 88.7037 67.5633 88.4213L67.231 82.211L67.3748 77.9091C67.3763 77.8634 67.3644 77.8183 67.3405 77.7793L63.5117 71.5359Z"/>
<path d="M141.264 75.461C141.261 75.4384 141.256 75.4171 141.247 75.3962L137.75 67.2501C137.694 67.121 137.538 67.0699 137.417 67.1412L128.194 72.5747C128.107 72.6258 128.063 72.7266 128.084 72.8248L131.784 89.9798C131.821 90.1524 132.029 90.2228 132.163 90.1081C135.283 87.4453 141.081 82.5378 141.492 82.3589C141.914 82.1751 141.518 77.7056 141.264 75.461Z"/>
<path d="M129.738 78.6388C129.831 81.4196 132.178 83.5991 134.979 83.5069C137.78 83.4147 139.976 81.0856 139.883 78.3048C139.79 75.524 137.444 73.3445 134.642 73.4367C131.841 73.5289 129.646 75.858 129.738 78.6388Z"/>
<path d="M135.505 76.0892C135.542 77.214 136.491 78.0956 137.624 78.0583C138.757 78.021 139.646 77.0789 139.608 75.9542C139.57 74.8294 138.621 73.9478 137.488 73.9851C136.355 74.0224 135.467 74.9645 135.505 76.0892Z"/>
<path d="M130.786 76.3042C130.776 76.238 130.795 76.1706 130.837 76.119L136.146 69.7249L138.651 66.7807C138.789 66.6182 138.658 66.3708 138.446 66.3994C133.883 67.0152 125.556 68.3709 124.523 69.467C123.458 70.597 121.838 74.5352 121.131 76.44C121.112 76.4916 121.113 76.5467 121.131 76.5985L124.513 85.944C124.53 85.9888 124.559 86.0275 124.598 86.055L132.085 91.3517C132.242 91.4631 132.459 91.3462 132.452 91.1535L132.272 85.7582L130.786 76.3042Z"/>
<path d="M130.676 76.3607C130.66 76.2394 130.553 76.1511 130.431 76.1584L121.011 76.7208C120.854 76.7302 120.751 76.8877 120.806 77.0345L124.104 85.9629C124.121 86.0091 124.153 86.0487 124.194 86.0761L132.281 91.4715C132.447 91.5828 132.668 91.4458 132.641 91.247L130.676 76.3607Z"/>
<path d="M136.733 71.5359C136.74 71.5253 136.746 71.5142 136.75 71.5026L138.26 67.8262C138.361 67.5797 138.036 67.3836 137.865 67.5879L130.625 76.2347C130.583 76.2851 130.564 76.3509 130.573 76.416L132.218 88.4404C132.256 88.7206 132.667 88.7037 132.682 88.4213L133.014 82.211L132.87 77.9091C132.869 77.8634 132.881 77.8183 132.905 77.7793L136.733 71.5359Z"/>
<path d="M100.206 90.8832C100.139 90.848 100.059 90.8477 99.9917 90.8822L85.4064 98.3552C85.2887 98.4155 85.2446 98.5615 85.3094 98.6769L92.2197 110.994C92.2359 111.022 92.2458 111.054 92.2486 111.087L92.8804 118.321C92.8837 118.359 92.8966 118.396 92.9179 118.429L99.9168 129.061C100.006 129.196 100.201 129.202 100.298 129.072L107.917 118.908C107.941 118.875 107.957 118.837 107.962 118.797L109.072 110.12C109.075 110.095 109.082 110.071 109.093 110.048L114.589 98.6689C114.644 98.5556 114.599 98.4193 114.487 98.3609L100.206 90.8832Z"/>
<path d="M95.7882 102.835C95.777 102.788 95.7514 102.745 95.7148 102.713L84.9181 93.2561C84.8867 93.2286 84.8633 93.1933 84.8503 93.1538L81.6641 83.5069L79.1521 76.805C79.1199 76.7192 79.0405 76.6602 78.9491 76.6541L69.5824 76.0342C69.5177 76.0299 69.4577 75.9989 69.4168 75.9486L61.8405 66.6226C61.7068 66.458 61.8443 66.2148 62.0543 66.2446L81.6048 69.0171C81.6437 69.0226 81.6806 69.0379 81.712 69.0615L94.7469 78.8453C94.7873 78.8756 94.8365 78.8919 94.8869 78.8919H106.278C106.326 78.8919 106.372 78.8775 106.411 78.8505L120.572 69.0576C120.602 69.0365 120.637 69.023 120.674 69.0182L138.131 66.7179C138.342 66.69 138.477 66.938 138.338 67.1005L130.783 75.951C130.741 75.9998 130.683 76.0292 130.619 76.0324C127.38 76.1931 120.999 76.5049 120.618 76.5049C120.234 76.5049 118.214 81.1729 117.252 83.5069L114.065 93.1564C114.052 93.1943 114.03 93.2283 114.001 93.2552L103.689 102.704C103.648 102.742 103.622 102.792 103.615 102.847L102.032 115.576C102.026 115.626 102.036 115.676 102.06 115.719L103.551 118.383C103.597 118.464 103.589 118.565 103.533 118.638L100.283 122.891C100.19 123.013 100.007 123.014 99.9135 122.893L97.4532 119.732C97.4039 119.669 97.3906 119.585 97.418 119.51L98.7931 115.718C98.8085 115.675 98.8112 115.629 98.8008 115.585L95.7882 102.835Z"/>
<path d="M83.5868 127.413C83.7813 127.326 83.9844 127.517 83.8884 127.707C81.2321 132.972 73.3056 136.328 69.4776 137.397C69.4226 137.413 69.3631 137.405 69.3121 137.379C62.1356 133.796 68.3053 129.627 70.3682 129.463C72.4 129.302 74.0776 131.669 83.5868 127.413Z"/>
<path d="M77.1746 118.82C77.3691 118.733 77.5721 118.924 77.4762 119.114C74.8198 124.379 66.8933 127.735 63.0653 128.804C63.0104 128.819 62.9509 128.812 62.8999 128.786C55.7234 125.203 61.8931 121.034 63.9559 120.87C65.9877 120.709 67.6653 123.076 77.1746 118.82Z"/>
<path d="M122.37 118.82C122.176 118.733 121.973 118.924 122.069 119.114C124.725 124.379 132.652 127.735 136.48 128.804C136.534 128.819 136.594 128.812 136.645 128.786C143.821 125.203 137.652 121.034 135.589 120.87C133.557 120.709 131.88 123.076 122.37 118.82Z"/>
</mask>
<path d="M82.3471 102.467C82.4214 102.453 82.4981 102.475 82.5528 102.528L96.9183 116.323C97.0487 116.449 97.2658 116.384 97.3069 116.208L99.7542 105.731C99.7697 105.665 99.7554 105.595 99.715 105.54L88.1368 89.7953C88.0982 89.7429 88.0422 89.7093 87.9776 89.702C80.8892 88.9033 66.5895 87.391 65.313 87.6444C64.0407 87.897 56.1417 95.793 52.26 99.8026C52.2018 99.8629 52.1825 99.9475 52.206 100.028L61.1261 130.546C61.1385 130.589 61.1625 130.626 61.1955 130.656L70.8916 139.228C71.0584 139.376 71.3172 139.228 71.2751 139.009L69.3308 128.913C69.3241 128.879 69.3096 128.846 69.2884 128.818L64.2459 122.091C64.2105 122.044 64.1944 121.985 64.2007 121.926L65.9358 105.798C65.9467 105.696 66.0229 105.613 66.1235 105.594L82.3471 102.467Z" fill="#3B4717"/>
<path d="M118.012 102.495C117.937 102.481 117.861 102.503 117.806 102.556L103.441 116.352C103.31 116.477 103.093 116.412 103.052 116.236L100.605 105.76C100.589 105.693 100.603 105.623 100.644 105.568L112.222 89.8236C112.261 89.7712 112.317 89.7376 112.381 89.7303C119.47 88.9316 133.769 87.4192 135.046 87.6727C136.318 87.9253 144.217 95.8213 148.099 99.8309C148.157 99.8911 148.176 99.9758 148.153 100.056L139.231 130.58C139.22 130.619 139.199 130.654 139.17 130.682L130.226 139.383C130.069 139.536 129.807 139.407 129.832 139.189L131.031 128.951C131.036 128.91 131.051 128.871 131.076 128.838L136.113 122.119C136.148 122.072 136.164 122.013 136.158 121.955L134.423 105.826C134.412 105.725 134.336 105.642 134.235 105.622L118.012 102.495Z" fill="#3B4717"/>
<path d="M116.792 127.731C116.597 127.644 116.394 127.835 116.49 128.025C119.146 133.291 127.073 136.647 130.901 137.716C130.956 137.731 131.015 137.723 131.066 137.698C138.243 134.114 132.073 129.945 130.01 129.782C127.978 129.62 126.301 131.987 116.792 127.731Z" fill="#D9D9D9"/>
<path d="M83.6633 66.3202C83.6142 66.3202 83.568 66.3345 83.5283 66.3633C79.1309 69.54 70.5588 75.4777 67.4694 76.7418C67.2456 76.8334 67.1886 77.3049 67.401 77.4204L84.9784 86.9795C85.0126 86.9981 85.0509 87.0079 85.0899 87.0079H123.758C123.801 87.0079 123.844 86.9956 123.881 86.9724L139.505 77.2012C139.659 77.105 139.649 76.8776 139.487 76.7955L118.905 66.3455C118.872 66.3289 118.836 66.3202 118.799 66.3202H83.6633Z" fill="#27310B"/>
<path d="M126.532 90.478C126.449 90.4035 126.325 90.3984 126.236 90.4658L110.902 102.078C110.862 102.109 110.812 102.126 110.761 102.126H100.335C100.205 102.126 100.1 102.02 100.102 101.89L100.42 71.0943L109.138 72.3532C109.201 72.3623 109.265 72.3453 109.315 72.3063L126.278 59.0864C126.347 59.0333 126.439 59.0222 126.518 59.0577L143.607 66.7546C143.668 66.782 143.714 66.8341 143.734 66.8977L152.987 96.5133C152.995 96.5415 152.999 96.5711 152.997 96.6006L150.605 128.099C150.599 128.177 150.555 128.247 150.486 128.285L130.154 139.687C129.964 139.793 129.745 139.605 129.822 139.401L132.939 131.148C132.954 131.109 132.979 131.075 133.012 131.048L139.459 125.897C139.507 125.858 139.538 125.803 139.546 125.742L141.134 112.183C141.136 112.162 141.136 112.141 141.132 112.119L139.547 102.207C139.539 102.155 139.513 102.106 139.473 102.071L126.532 90.478Z" fill="#404E18"/>
<path d="M74.4675 90.478C74.5507 90.4035 74.6749 90.3984 74.7639 90.4658L90.0978 102.078C90.1384 102.109 90.1878 102.126 90.2387 102.126H100.187C100.315 102.126 100.42 102.021 100.42 101.893V71.0943L93.4564 72.0369C93.3985 72.0448 93.3398 72.0306 93.2919 71.9973L74.7192 59.0755C74.6519 59.0287 74.5649 59.0206 74.4902 59.0543L57.3933 66.7546C57.3325 66.782 57.2863 66.8341 57.2665 66.8977L48.0133 96.5133C48.0045 96.5415 48.0011 96.5711 48.0034 96.6006L50.3951 128.099C50.401 128.177 50.4455 128.247 50.5136 128.285L70.846 139.687C71.0359 139.793 71.2552 139.605 71.1783 139.401L68.0608 131.148C68.046 131.109 68.0209 131.075 67.9882 131.048L61.5406 125.897C61.4926 125.858 61.4616 125.803 61.4545 125.742L59.8664 112.183C59.8639 112.162 59.8643 112.141 59.8677 112.119L61.4526 102.207C61.461 102.155 61.4874 102.106 61.5273 102.071L74.4675 90.478Z" fill="#404E18"/>
<path d="M58.981 75.461C58.9836 75.4384 58.9893 75.4171 58.9983 75.3962L62.4952 67.2501C62.5506 67.121 62.7068 67.0699 62.8279 67.1412L72.0514 72.5747C72.138 72.6258 72.1822 72.7266 72.161 72.8248L68.4615 89.9798C68.4243 90.1524 68.2163 90.2228 68.082 90.1081C64.9623 87.4453 59.1638 82.5378 58.7532 82.3589C58.3314 82.1751 58.727 77.7056 58.981 75.461Z" fill="#394711"/>
<path d="M70.5066 78.6388C70.4137 81.4196 68.0676 83.5991 65.2663 83.5069C62.4651 83.4147 60.2695 81.0856 60.3624 78.3048C60.4553 75.524 62.8015 73.3445 65.6027 73.4367C68.404 73.5289 70.5995 75.858 70.5066 78.6388Z" fill="black"/>
<path d="M64.7402 76.0892C64.7027 77.214 63.7537 78.0956 62.6206 78.0583C61.4876 78.021 60.5995 77.0789 60.6371 75.9542C60.6747 74.8294 61.6237 73.9478 62.7567 73.9851C63.8898 74.0224 64.7778 74.9645 64.7402 76.0892Z" fill="#FDFDFD"/>
<path d="M69.4586 76.3042C69.469 76.238 69.4505 76.1706 69.4077 76.119L64.0995 69.7249L61.5941 66.7807C61.4558 66.6182 61.5873 66.3708 61.7988 66.3994C66.3622 67.0152 74.6887 68.3709 75.7219 69.467C76.7872 70.597 78.4071 74.5352 79.1136 76.44C79.1327 76.4916 79.1323 76.5467 79.1135 76.5985L75.7317 85.944C75.7155 85.9888 75.686 86.0275 75.6471 86.0551L68.1604 91.3517C68.003 91.4631 67.7861 91.3462 67.7926 91.1535L67.9728 85.7582L69.4586 76.3042Z" fill="#4F621B"/>
<path d="M69.5686 76.3607C69.5846 76.2394 69.6916 76.1511 69.8137 76.1584L79.2345 76.7208C79.3907 76.7302 79.4936 76.8877 79.4394 77.0345L76.1406 85.9629C76.1235 86.0091 76.0923 86.0487 76.0513 86.0761L67.9643 91.4715C67.7976 91.5828 67.5774 91.4458 67.6037 91.247L69.5686 76.3607Z" fill="#3B4717"/>
<path d="M63.5117 71.5359C63.5051 71.5253 63.4995 71.5142 63.4947 71.5026L61.9852 67.8262C61.884 67.5797 62.2087 67.3836 62.3798 67.5879L69.62 76.2347C69.6622 76.2851 69.6812 76.3509 69.6723 76.416L68.0272 88.4404C67.9889 88.7206 67.5784 88.7037 67.5633 88.4213L67.231 82.211L67.3748 77.9091C67.3763 77.8634 67.3644 77.8183 67.3405 77.7793L63.5117 71.5359Z" fill="#3B4717"/>
<path d="M141.264 75.461C141.261 75.4384 141.256 75.4171 141.247 75.3962L137.75 67.2501C137.694 67.121 137.538 67.0699 137.417 67.1412L128.194 72.5747C128.107 72.6258 128.063 72.7266 128.084 72.8248L131.784 89.9798C131.821 90.1524 132.029 90.2228 132.163 90.1081C135.283 87.4453 141.081 82.5378 141.492 82.3589C141.914 82.1751 141.518 77.7056 141.264 75.461Z" fill="#394711"/>
<path d="M129.738 78.6388C129.831 81.4196 132.178 83.5991 134.979 83.5069C137.78 83.4147 139.976 81.0856 139.883 78.3048C139.79 75.524 137.444 73.3445 134.642 73.4367C131.841 73.5289 129.646 75.858 129.738 78.6388Z" fill="black"/>
<path d="M135.505 76.0892C135.542 77.214 136.491 78.0956 137.624 78.0583C138.757 78.021 139.646 77.0789 139.608 75.9542C139.57 74.8294 138.621 73.9478 137.488 73.9851C136.355 74.0224 135.467 74.9645 135.505 76.0892Z" fill="#FDFDFD"/>
<path d="M130.786 76.3042C130.776 76.238 130.795 76.1706 130.837 76.119L136.146 69.7249L138.651 66.7807C138.789 66.6182 138.658 66.3708 138.446 66.3994C133.883 67.0152 125.556 68.3709 124.523 69.467C123.458 70.597 121.838 74.5352 121.131 76.44C121.112 76.4916 121.113 76.5467 121.131 76.5985L124.513 85.944C124.53 85.9888 124.559 86.0275 124.598 86.055L132.085 91.3517C132.242 91.4631 132.459 91.3462 132.452 91.1535L132.272 85.7582L130.786 76.3042Z" fill="#4F621B"/>
<path d="M130.676 76.3607C130.66 76.2394 130.553 76.1511 130.431 76.1584L121.011 76.7208C120.854 76.7302 120.751 76.8877 120.806 77.0345L124.104 85.9629C124.121 86.0091 124.153 86.0487 124.194 86.0761L132.281 91.4715C132.447 91.5828 132.668 91.4458 132.641 91.247L130.676 76.3607Z" fill="#3B4717"/>
<path d="M136.733 71.5359C136.74 71.5253 136.746 71.5142 136.75 71.5026L138.26 67.8262C138.361 67.5797 138.036 67.3836 137.865 67.5879L130.625 76.2347C130.583 76.2851 130.564 76.3509 130.573 76.416L132.218 88.4404C132.256 88.7206 132.667 88.7037 132.682 88.4213L133.014 82.211L132.87 77.9091C132.869 77.8634 132.881 77.8183 132.905 77.7793L136.733 71.5359Z" fill="#3B4717"/>
<path d="M100.206 90.8832C100.139 90.848 100.059 90.8477 99.9917 90.8822L85.4064 98.3552C85.2887 98.4155 85.2446 98.5615 85.3094 98.6769L92.2197 110.994C92.2359 111.022 92.2458 111.054 92.2486 111.087L92.8804 118.321C92.8837 118.359 92.8966 118.396 92.9179 118.429L99.9168 129.061C100.006 129.196 100.201 129.202 100.298 129.072L107.917 118.908C107.941 118.875 107.957 118.837 107.962 118.797L109.072 110.12C109.075 110.095 109.082 110.071 109.093 110.048L114.589 98.6689C114.644 98.5556 114.599 98.4193 114.487 98.3609L100.206 90.8832Z" fill="#404E18"/>
<path d="M95.7882 102.835C95.777 102.788 95.7514 102.745 95.7148 102.713L84.9181 93.2561C84.8867 93.2286 84.8633 93.1933 84.8503 93.1538L81.6641 83.5069L79.1521 76.805C79.1199 76.7192 79.0405 76.6602 78.9491 76.6541L69.5824 76.0342C69.5177 76.0299 69.4577 75.9989 69.4168 75.9486L61.8405 66.6226C61.7068 66.458 61.8443 66.2148 62.0543 66.2446L81.6048 69.0171C81.6437 69.0226 81.6806 69.0379 81.712 69.0615L94.7469 78.8453C94.7873 78.8756 94.8365 78.8919 94.8869 78.8919H106.278C106.326 78.8919 106.372 78.8775 106.411 78.8505L120.572 69.0576C120.602 69.0365 120.637 69.023 120.674 69.0182L138.131 66.7179C138.342 66.69 138.477 66.938 138.338 67.1005L130.783 75.951C130.741 75.9998 130.683 76.0292 130.619 76.0324C127.38 76.1931 120.999 76.5049 120.618 76.5049C120.234 76.5049 118.214 81.1729 117.252 83.5069L114.065 93.1564C114.052 93.1943 114.03 93.2283 114.001 93.2552L103.689 102.704C103.648 102.742 103.622 102.792 103.615 102.847L102.032 115.576C102.026 115.626 102.036 115.676 102.06 115.719L103.551 118.383C103.597 118.464 103.589 118.565 103.533 118.638L100.283 122.891C100.19 123.013 100.007 123.014 99.9135 122.893L97.4532 119.732C97.4039 119.669 97.3906 119.585 97.418 119.51L98.7931 115.718C98.8085 115.675 98.8112 115.629 98.8008 115.585L95.7882 102.835Z" fill="#4F621B"/>
<path d="M83.5868 127.413C83.7813 127.326 83.9844 127.517 83.8884 127.707C81.2321 132.972 73.3056 136.328 69.4776 137.397C69.4226 137.413 69.3631 137.405 69.3121 137.379C62.1356 133.796 68.3053 129.627 70.3682 129.463C72.4 129.302 74.0776 131.669 83.5868 127.413Z" fill="#D9D9D9"/>
<path d="M77.1746 118.82C77.3691 118.733 77.5721 118.924 77.4762 119.114C74.8198 124.379 66.8933 127.735 63.0653 128.804C63.0104 128.819 62.9509 128.812 62.8999 128.786C55.7234 125.203 61.8931 121.034 63.9559 120.87C65.9877 120.709 67.6653 123.076 77.1746 118.82Z" fill="#D9D9D9"/>
<path d="M122.37 118.82C122.176 118.733 121.973 118.924 122.069 119.114C124.725 124.379 132.652 127.735 136.48 128.804C136.534 128.819 136.594 128.812 136.645 128.786C143.821 125.203 137.652 121.034 135.589 120.87C133.557 120.709 131.88 123.076 122.37 118.82Z" fill="#D9D9D9"/>
<path d="M65.313 87.6444L64.534 83.721H64.534L65.313 87.6444ZM135.046 87.6727L135.825 83.7493V83.7493L135.046 87.6727ZM130.01 129.782L129.694 133.769V133.769L130.01 129.782ZM100.42 71.0943L100.991 67.1354L100.438 67.0554L99.8833 67.1305L100.42 71.0943ZM58.7532 82.3589L57.1552 86.0259L57.1552 86.0259L58.7532 82.3589ZM64.0995 69.7249L67.1772 67.1699L67.1616 67.1511L67.1458 67.1326L64.0995 69.7249ZM67.9728 85.7582L64.0213 85.1372L63.9832 85.3795L63.975 85.6246L67.9728 85.7582ZM75.7219 69.467L72.8113 72.2108V72.2108L75.7219 69.467ZM67.231 82.211L63.2333 82.0775L63.2275 82.2511L63.2367 82.4247L67.231 82.211ZM141.492 82.3589L143.09 86.0259L143.09 86.0259L141.492 82.3589ZM136.146 69.7249L133.099 67.1326L133.083 67.1511L133.068 67.1699L136.146 69.7249ZM132.272 85.7582L136.27 85.6246L136.262 85.3795L136.224 85.1372L132.272 85.7582ZM124.523 69.467L127.434 72.2108V72.2108L124.523 69.467ZM133.014 82.211L137.008 82.4247L137.018 82.2511L137.012 82.0775L133.014 82.211ZM117.252 83.5069L113.554 81.9828L113.499 82.1158L113.454 82.2524L117.252 83.5069ZM81.6641 83.5069L85.4623 82.2524L85.4375 82.1772L85.4096 82.1029L81.6641 83.5069ZM70.3682 129.463L70.6848 133.451H70.6848L70.3682 129.463ZM63.9559 120.87L63.6394 116.883L63.9559 120.87ZM135.589 120.87L135.272 124.858V124.858L135.589 120.87ZM122.069 119.114L118.497 120.916L122.069 119.114ZM122.37 118.82L124.004 115.169L122.37 118.82ZM136.48 128.804L135.404 132.657L136.48 128.804ZM136.645 128.786L138.432 132.365L136.645 128.786ZM77.4762 119.114L81.0474 120.916L77.4762 119.114ZM77.1746 118.82L78.8087 122.471L77.1746 118.82ZM63.0653 128.804L64.1412 132.657L63.0653 128.804ZM62.8999 128.786L61.113 132.365L62.8999 128.786ZM83.8884 127.707L87.4597 129.509L83.8884 127.707ZM83.5868 127.413L81.9528 123.762L83.5868 127.413ZM69.4776 137.397L70.5534 141.25L69.4776 137.397ZM69.3121 137.379L67.5252 140.958L69.3121 137.379ZM78.9491 76.6541L78.6849 80.6454L78.9491 76.6541ZM79.1521 76.805L75.4065 78.2089L79.1521 76.805ZM69.4168 75.9486L72.5214 73.4264L69.4168 75.9486ZM69.5824 76.0342L69.3183 80.0255L69.5824 76.0342ZM62.0543 66.2446L62.6159 62.2842L62.0543 66.2446ZM61.8405 66.6226L64.9452 64.1004L61.8405 66.6226ZM81.712 69.0615L84.1132 65.8624L81.712 69.0615ZM94.7469 78.8453L92.3458 82.0444L94.7469 78.8453ZM106.411 78.8505L104.136 75.5606L106.411 78.8505ZM120.674 69.0182L121.197 72.9839L120.674 69.0182ZM120.572 69.0576L118.297 65.7676L120.572 69.0576ZM138.338 67.1005L141.381 69.6976L138.338 67.1005ZM138.131 66.7179L137.608 62.7522L138.131 66.7179ZM130.619 76.0324L130.817 80.0275L130.619 76.0324ZM130.783 75.951L133.825 78.5481L130.783 75.951ZM114.001 93.2552L116.703 96.2043L114.001 93.2552ZM114.065 93.1564L117.863 94.4109L114.065 93.1564ZM103.615 102.847L99.6459 102.354L103.615 102.847ZM103.689 102.704L100.987 99.7552L103.689 102.704ZM102.06 115.719L105.551 113.766L102.06 115.719ZM102.032 115.576L106.002 116.07L102.032 115.576ZM103.533 118.638L106.711 121.067L103.533 118.638ZM103.551 118.383L100.061 120.336L103.551 118.383ZM99.9135 122.893L96.757 125.35L99.9135 122.893ZM100.283 122.891L103.461 125.32L100.283 122.891ZM97.418 119.51L101.178 120.873L97.418 119.51ZM97.4532 119.732L100.61 117.275L97.4532 119.732ZM98.8008 115.585L94.908 116.504L98.8008 115.585ZM98.7931 115.718L102.553 117.081L98.7931 115.718ZM95.7148 102.713L98.3504 99.7042L95.7148 102.713ZM95.7882 102.835L99.681 101.915L95.7882 102.835ZM84.9181 93.2561L87.5536 90.2471L84.9181 93.2561ZM84.8503 93.1538L81.0521 94.4082L84.8503 93.1538ZM109.072 110.12L113.039 110.628L109.072 110.12ZM109.093 110.048L105.491 108.309L109.093 110.048ZM99.9917 90.8822L98.1678 87.3223L99.9917 90.8822ZM100.206 90.8832L98.3508 94.4268L100.206 90.8832ZM124.194 86.0761L126.414 82.7487L124.194 86.0761ZM124.104 85.9629L127.857 84.5766L124.104 85.9629ZM128.084 72.8248L131.994 71.9816L128.084 72.8248ZM128.194 72.5747L126.163 69.1283L128.194 72.5747ZM132.163 90.1081L134.76 93.1506L132.163 90.1081ZM131.784 89.9798L127.873 90.823L131.784 89.9798ZM141.247 75.3962L137.571 76.9741L141.247 75.3962ZM141.264 75.461L145.239 75.0112L141.264 75.461ZM137.75 67.2501L134.074 68.828L137.75 67.2501ZM137.417 67.1412L139.447 70.5876L137.417 67.1412ZM69.6723 76.416L65.7092 75.8739L69.6723 76.416ZM69.62 76.2347L72.6869 73.6667L69.62 76.2347ZM67.5633 88.4213L63.569 88.6349L67.5633 88.4213ZM68.0272 88.4404L64.0641 87.8982L68.0272 88.4404ZM67.3405 77.7793L70.7503 75.6882L67.3405 77.7793ZM67.3748 77.9091L63.377 77.7755L67.3748 77.9091ZM63.4947 71.5026L67.195 69.9833L63.4947 71.5026ZM63.5117 71.5359L60.1018 73.6271L63.5117 71.5359ZM61.9852 67.8262L65.6854 66.3069L61.9852 67.8262ZM62.3798 67.5879L65.4466 65.0199L62.3798 67.5879ZM76.0513 86.0761L78.2713 89.4035L76.0513 86.0761ZM76.1406 85.9629L72.3885 84.5766L76.1406 85.9629ZM67.6037 91.247L63.6381 90.7236L67.6037 91.247ZM67.9643 91.4715L65.7443 88.1441L67.9643 91.4715ZM69.8137 76.1584L69.5753 80.1512L69.8137 76.1584ZM69.5686 76.3607L73.5342 76.8841L69.5686 76.3607ZM79.2345 76.7208L79.4729 72.728L79.2345 76.7208ZM79.4394 77.0345L83.1915 78.4208L79.4394 77.0345ZM61.7988 66.3994L61.2638 70.3634L61.7988 66.3994ZM61.5941 66.7807L64.6404 64.1884L61.5941 66.7807ZM79.1135 76.5985L75.3522 75.2374L79.1135 76.5985ZM79.1136 76.44L82.864 75.0492L79.1136 76.44ZM75.6471 86.0551L73.3369 82.7896L75.6471 86.0551ZM75.7317 85.944L79.493 87.3051L75.7317 85.944ZM67.7926 91.1535L71.7903 91.2871L67.7926 91.1535ZM68.1604 91.3517L65.8502 88.0863L68.1604 91.3517ZM69.4077 76.119L72.4854 73.5641L69.4077 76.119ZM69.4586 76.3042L65.5071 75.6832L69.4586 76.3042ZM72.161 72.8248L76.0711 73.6681L72.161 72.8248ZM72.0514 72.5747L70.0211 76.0212L72.0514 72.5747ZM68.082 90.1081L65.4852 93.1506L68.082 90.1081ZM68.4615 89.9798L64.5514 89.1366L68.4615 89.9798ZM58.9983 75.3962L55.3227 73.8184L58.9983 75.3962ZM58.981 75.461L55.0064 75.0112L58.981 75.461ZM62.4952 67.2501L58.8195 65.6723L62.4952 67.2501ZM62.8279 67.1412L60.7976 70.5876L62.8279 67.1412ZM93.2919 71.9973L95.5764 68.7138L93.2919 71.9973ZM93.4564 72.0369L93.993 76.0008L93.4564 72.0369ZM74.4902 59.0543L72.8475 55.4071L74.4902 59.0543ZM74.7192 59.0755L72.4347 62.359L74.7192 59.0755ZM57.2665 66.8977L53.4485 65.7048L57.2665 66.8977ZM57.3933 66.7546L59.0359 70.4017L57.3933 66.7546ZM48.0034 96.6006L51.9919 96.2977L48.0034 96.6006ZM48.0133 96.5133L44.1953 95.3204L48.0133 96.5133ZM50.5136 128.285L48.5572 131.774L50.5136 128.285ZM50.3951 128.099L46.4066 128.402L50.3951 128.099ZM70.846 139.687L72.8025 136.198L70.846 139.687ZM74.7639 90.4658L72.349 93.6545L74.7639 90.4658ZM74.4675 90.478L71.7985 87.4987L74.4675 90.478ZM90.0978 102.078L92.5128 98.8897L90.0978 102.078ZM109.315 72.3063L106.856 69.1513L109.315 72.3063ZM109.138 72.3532L108.567 76.3121L109.138 72.3532ZM126.518 59.0577L128.16 55.4106L126.518 59.0577ZM126.278 59.0864L123.82 55.9314L126.278 59.0864ZM143.734 66.8977L139.916 68.0906L143.734 66.8977ZM143.607 66.7546L145.249 63.1074L143.607 66.7546ZM152.997 96.6006L149.008 96.2977L152.997 96.6006ZM152.987 96.5133L149.169 97.7062L152.987 96.5133ZM150.486 128.285L152.443 131.774L150.486 128.285ZM150.605 128.099L146.616 127.796L150.605 128.099ZM129.822 139.401L133.564 140.814L129.822 139.401ZM130.154 139.687L128.198 136.198L130.154 139.687ZM133.012 131.048L135.509 134.173L133.012 131.048ZM132.939 131.148L136.681 132.562L132.939 131.148ZM139.546 125.742L143.518 126.207L139.546 125.742ZM139.459 125.897L136.963 122.772L139.459 125.897ZM141.132 112.119L145.082 111.488L141.132 112.119ZM141.134 112.183L137.161 111.718L141.134 112.183ZM139.473 102.071L142.142 99.0912L139.473 102.071ZM139.547 102.207L143.497 101.576L139.547 102.207ZM126.236 90.4658L123.821 87.277L126.236 90.4658ZM126.532 90.478L129.202 87.4987L126.532 90.478ZM110.902 102.078L108.487 98.8897L110.902 102.078ZM84.9784 86.9795L83.0674 90.4935L84.9784 86.9795ZM92.2197 110.994L95.7082 109.036L92.2197 110.994ZM92.2486 111.087L96.2335 110.739L92.2486 111.087ZM123.881 86.9724L121.76 83.581L123.881 86.9724ZM107.917 118.908L111.118 121.307L107.917 118.908ZM107.962 118.797L111.93 119.305L107.962 118.797ZM139.487 76.7955L137.676 80.3621L139.487 76.7955ZM139.505 77.2012L141.626 80.5926L139.505 77.2012ZM99.9168 129.061L96.5757 131.26L99.9168 129.061ZM100.298 129.072L103.499 131.472L100.298 129.072ZM118.905 66.3455L120.716 62.7789L118.905 66.3455ZM92.9179 118.429L96.259 116.229L92.9179 118.429ZM92.8804 118.321L96.8652 117.973L92.8804 118.321ZM83.5283 66.3633L85.8707 69.6057V69.6057L83.5283 66.3633ZM130.573 76.416L134.536 75.8739L130.573 76.416ZM130.625 76.2347L127.558 73.6667L130.625 76.2347ZM130.901 137.716L129.825 141.568L130.901 137.716ZM131.066 137.698L132.853 141.276L131.066 137.698ZM132.218 88.4404L128.255 88.9826L132.218 88.4404ZM136.158 121.955L132.181 122.382L136.158 121.955ZM136.113 122.119L139.313 124.519L136.113 122.119ZM131.031 128.951L127.058 128.486L131.031 128.951ZM131.076 128.838L127.875 126.439L131.076 128.838ZM132.905 77.7793L129.495 75.6882L132.905 77.7793ZM132.87 77.9091L136.868 77.7755L132.87 77.9091ZM130.226 139.383L133.016 142.25L130.226 139.383ZM129.832 139.189L133.805 139.654L129.832 139.189ZM136.75 71.5026L140.451 73.0219L136.75 71.5026ZM136.733 71.5359L133.324 69.4448L136.733 71.5359ZM100.644 105.568L103.866 107.938L100.644 105.568ZM100.605 105.76L104.5 104.85L100.605 105.76ZM138.26 67.8262L141.96 69.3455L138.26 67.8262ZM137.865 67.5879L140.932 70.1558L137.865 67.5879ZM112.381 89.7303L111.933 85.7555L112.381 89.7303ZM112.222 89.8236L115.445 92.1933L112.222 89.8236ZM132.641 91.247L128.676 91.7705L132.641 91.247ZM132.281 91.4715L134.501 88.1441L132.281 91.4715ZM148.153 100.056L151.992 101.178L148.153 100.056ZM148.099 99.8309L150.973 97.0487L148.099 99.8309ZM130.431 76.1584L130.67 80.1512L130.431 76.1584ZM130.676 76.3607L134.642 75.8372L130.676 76.3607ZM139.231 130.58L135.392 129.458L139.231 130.58ZM139.17 130.682L136.38 127.815L139.17 130.682ZM121.011 76.7208L120.772 72.728L121.011 76.7208ZM120.806 77.0345L117.054 78.4208L120.806 77.0345ZM134.235 105.622L134.992 101.695L134.235 105.622ZM134.423 105.826L130.446 106.254L134.423 105.826ZM138.446 66.3994L137.911 62.4353L138.446 66.3994ZM138.651 66.7807L141.697 69.373L138.651 66.7807ZM117.806 102.556L115.035 99.6709L117.806 102.556ZM118.012 102.495L117.255 106.423L118.012 102.495ZM121.131 76.5985L117.37 77.9595L121.131 76.5985ZM121.131 76.44L124.882 77.8309L121.131 76.44ZM64.2007 121.926L68.1777 122.354L64.2007 121.926ZM64.2459 122.091L61.0454 124.49L64.2459 122.091ZM124.598 86.055L126.908 82.7896L124.598 86.055ZM124.513 85.944L128.275 84.5829L124.513 85.944ZM69.3308 128.913L73.2586 128.157L69.3308 128.913ZM69.2884 128.818L72.4889 126.418L69.2884 128.818ZM132.452 91.1535L136.45 91.02L132.452 91.1535ZM132.085 91.3517L134.395 88.0863L132.085 91.3517ZM70.8916 139.228L73.5411 136.231L70.8916 139.228ZM71.2751 139.009L67.3473 139.766L71.2751 139.009ZM99.715 105.54L102.937 103.17L99.715 105.54ZM99.7542 105.731L103.649 106.641L99.7542 105.731ZM130.837 76.119L133.915 78.674L130.837 76.119ZM130.786 76.3042L126.835 76.9253L130.786 76.3042ZM87.9776 89.702L87.5298 93.6769L87.9776 89.702ZM88.1368 89.7953L84.9143 92.165L88.1368 89.7953ZM52.206 100.028L48.3666 101.15L52.206 100.028ZM52.26 99.8026L49.3861 97.0205L52.26 99.8026ZM67.9882 131.048L70.4851 127.923L67.9882 131.048ZM68.0608 131.148L71.8027 129.735L68.0608 131.148ZM61.1261 130.546L64.9655 129.424L61.1261 130.546ZM61.1955 130.656L58.546 133.652V133.652L61.1955 130.656ZM114.487 98.3609L112.632 101.904L114.487 98.3609ZM114.589 98.6689L118.191 100.409L114.589 98.6689ZM67.4694 76.7418L65.9545 73.0398L67.4694 76.7418ZM67.401 77.4204L65.49 80.9344L67.401 77.4204ZM61.4545 125.742L65.4273 125.276L61.4545 125.742ZM61.5406 125.897L64.0374 122.772L61.5406 125.897ZM66.1235 105.594L66.8806 109.522L66.1235 105.594ZM65.9358 105.798L69.9128 106.226L65.9358 105.798ZM59.8677 112.119L55.9179 111.488L59.8677 112.119ZM59.8664 112.183L63.8392 111.718L59.8664 112.183ZM82.5528 102.528L85.3234 99.6426L82.5528 102.528ZM82.3471 102.467L81.59 98.5392L82.3471 102.467ZM103.441 116.352L106.211 119.237L103.441 116.352ZM103.052 116.236L106.947 115.327L103.052 116.236ZM85.4064 98.3552L87.2304 101.915L85.4064 98.3552ZM85.3094 98.6769L88.7978 96.7196L85.3094 98.6769ZM116.792 127.731L115.157 131.382L116.792 127.731ZM61.5273 102.071L58.8582 99.0912L61.5273 102.071ZM61.4526 102.207L57.5028 101.576L61.4526 102.207ZM96.9183 116.323L94.1476 119.208L96.9183 116.323ZM97.3069 116.208L93.4118 115.298L97.3069 116.208ZM96.9183 116.323L99.6889 113.438L85.3234 99.6426L82.5528 102.528L79.7821 105.413L94.1476 119.208L96.9183 116.323ZM82.3471 102.467L81.59 98.5392L65.3664 101.666L66.1235 105.594L66.8806 109.522L83.1042 106.395L82.3471 102.467ZM61.1261 130.546L64.9655 129.424L56.0453 98.9058L52.206 100.028L48.3666 101.15L57.2868 131.669L61.1261 130.546ZM52.26 99.8026L55.134 102.585C57.0537 100.602 59.9609 97.6642 62.5309 95.2043C63.8215 93.969 64.9869 92.8928 65.8828 92.1264C66.3364 91.7384 66.6666 91.4766 66.8787 91.3243C66.9867 91.2468 67.01 91.2368 66.9665 91.2614C66.9427 91.2748 66.8678 91.3163 66.7517 91.3661C66.649 91.4102 66.4167 91.5034 66.0919 91.5678L65.313 87.6444L64.534 83.721C63.8133 83.8641 63.2581 84.1681 63.0322 84.2957C62.7314 84.4656 62.4507 84.6551 62.2133 84.8255C61.7348 85.1691 61.2088 85.5969 60.6824 86.0473C59.6181 86.9577 58.3275 88.1535 56.9992 89.425C54.3312 91.9787 51.348 94.9939 49.3861 97.0205L52.26 99.8026ZM65.313 87.6444L66.0919 91.5678C65.7854 91.6287 65.5988 91.6189 65.76 91.6165C65.8429 91.6153 65.9917 91.6167 66.2211 91.6248C66.6756 91.6409 67.3101 91.6782 68.1059 91.7361C69.6897 91.8513 71.7817 92.038 74.0813 92.2601C78.6736 92.7037 83.9981 93.279 87.5298 93.6769L87.9776 89.702L88.4255 85.7272C84.8688 85.3264 79.4992 84.7462 74.8504 84.2972C72.5295 84.073 70.3642 83.8793 68.6862 83.7572C67.8511 83.6965 67.1036 83.651 66.5041 83.6298C66.2065 83.6193 65.9102 83.6134 65.64 83.6174C65.4481 83.6203 65.0001 83.6284 64.534 83.721L65.313 87.6444ZM88.1368 89.7953L84.9143 92.165L96.4925 107.91L99.715 105.54L102.937 103.17L91.3592 87.4256L88.1368 89.7953ZM99.7542 105.731L95.859 104.822L93.4118 115.298L97.3069 116.208L101.202 117.118L103.649 106.641L99.7542 105.731ZM70.8916 139.228L73.5411 136.231L63.845 127.659L61.1955 130.656L58.546 133.652L68.2421 142.225L70.8916 139.228ZM69.3308 128.913L65.403 129.67L67.3473 139.766L71.2751 139.009L75.2029 138.253L73.2586 128.157L69.3308 128.913ZM65.9358 105.798L61.9587 105.37L60.2236 121.498L64.2007 121.926L68.1777 122.354L69.9128 106.226L65.9358 105.798ZM64.2459 122.091L61.0454 124.49L66.0878 131.217L69.2884 128.818L72.4889 126.418L67.4465 119.692L64.2459 122.091ZM103.441 116.352L106.211 119.237L120.577 105.441L117.806 102.556L115.035 99.6709L100.67 113.467L103.441 116.352ZM118.012 102.495L117.255 106.423L133.478 109.55L134.235 105.622L134.992 101.695L118.769 98.5674L118.012 102.495ZM139.231 130.58L143.07 131.703L151.992 101.178L148.153 100.056L144.313 98.934L135.392 129.458L139.231 130.58ZM148.099 99.8309L150.973 97.0487C149.011 95.0221 146.028 92.007 143.36 89.4533C142.031 88.1818 140.741 86.986 139.676 86.0755C139.15 85.6252 138.624 85.1973 138.145 84.8538C137.908 84.6834 137.627 84.4939 137.327 84.324C137.101 84.1963 136.545 83.8924 135.825 83.7493L135.046 87.6727L134.267 91.5961C133.942 91.5316 133.71 91.4384 133.607 91.3944C133.491 91.3446 133.416 91.3031 133.392 91.2896C133.349 91.2651 133.372 91.275 133.48 91.3525C133.692 91.5048 134.022 91.7666 134.476 92.1547C135.372 92.9211 136.537 93.9972 137.828 95.2326C140.398 97.6924 143.305 100.63 145.225 102.613L148.099 99.8309ZM135.046 87.6727L135.825 83.7493C135.359 83.6567 134.911 83.6486 134.719 83.6457C134.449 83.6416 134.152 83.6475 133.855 83.6581C133.255 83.6793 132.508 83.7247 131.673 83.7855C129.995 83.9075 127.829 84.1013 125.508 84.3255C120.86 84.7745 115.49 85.3547 111.933 85.7555L112.381 89.7303L112.829 93.7052C116.361 93.3072 121.685 92.7319 126.277 92.2884C128.577 92.0663 130.669 91.8796 132.253 91.7644C133.049 91.7065 133.683 91.6692 134.138 91.6531C134.367 91.6449 134.516 91.6436 134.599 91.6448C134.76 91.6472 134.573 91.657 134.267 91.5961L135.046 87.6727ZM112.222 89.8236L109 87.4539L97.4213 103.199L100.644 105.568L103.866 107.938L115.445 92.1933L112.222 89.8236ZM100.605 105.76L96.7094 106.67L99.1567 117.146L103.052 116.236L106.947 115.327L104.5 104.85L100.605 105.76ZM130.226 139.383L133.016 142.25L141.959 133.549L139.17 130.682L136.38 127.815L127.437 136.516L130.226 139.383ZM131.031 128.951L127.058 128.486L125.859 138.723L129.832 139.189L133.805 139.654L135.004 129.416L131.031 128.951ZM134.423 105.826L130.446 106.254L132.181 122.382L136.158 121.955L140.135 121.527L138.4 105.399L134.423 105.826ZM136.113 122.119L132.912 119.72L127.875 126.439L131.076 128.838L134.276 131.238L139.313 124.519L136.113 122.119ZM130.901 137.716L131.977 133.863C130.348 133.408 127.733 132.427 125.273 130.99C122.729 129.504 120.874 127.834 120.061 126.224L116.49 128.025L112.919 129.827C114.763 133.482 118.199 136.123 121.239 137.898C124.363 139.723 127.626 140.954 129.825 141.568L130.901 137.716ZM116.792 127.731L115.157 131.382C120.213 133.645 123.621 134.348 126.29 134.291C127.629 134.263 128.639 134.043 129.3 133.895C130.084 133.719 129.916 133.787 129.694 133.769L130.01 129.782L130.327 125.794C129.089 125.696 127.949 125.999 127.549 126.089C127.027 126.206 126.643 126.282 126.12 126.293C125.065 126.315 122.879 126.073 118.426 124.08L116.792 127.731ZM130.01 129.782L129.694 133.769C129.541 133.757 129.453 133.734 129.442 133.732C129.426 133.727 129.444 133.731 129.495 133.751C129.601 133.792 129.762 133.868 129.944 133.981C130.125 134.094 130.285 134.216 130.407 134.331C130.532 134.449 130.573 134.516 130.57 134.51C130.564 134.5 130.483 134.362 130.455 134.107C130.44 133.979 130.442 133.84 130.464 133.698C130.485 133.555 130.524 133.437 130.563 133.348C130.642 133.172 130.69 133.184 130.507 133.347C130.32 133.513 129.948 133.785 129.279 134.119L131.066 137.698L132.853 141.276C135.022 140.194 136.934 138.714 137.875 136.596C138.92 134.242 138.389 131.999 137.436 130.405C136.553 128.927 135.259 127.865 134.165 127.186C133.139 126.548 131.736 125.906 130.327 125.794L130.01 129.782ZM67.4694 76.7418L68.9843 80.4439C70.9655 79.6331 74.2247 77.5869 77.2173 75.6045C80.3522 73.5279 83.6402 71.217 85.8707 69.6057L83.5283 66.3633L81.1859 63.1208C79.019 64.6862 75.8223 66.9326 72.7993 68.935C69.6343 71.0317 67.0627 72.5863 65.9545 73.0398L67.4694 76.7418ZM83.6633 66.3202V70.3202H118.799V66.3202V62.3202H83.6633V66.3202ZM118.905 66.3455L117.094 69.9121L137.676 80.3621L139.487 76.7955L141.298 73.2288L120.716 62.7789L118.905 66.3455ZM139.505 77.2012L137.384 73.8098L121.76 83.581L123.881 86.9724L126.002 90.3638L141.626 80.5926L139.505 77.2012ZM123.758 87.0079V83.0079H85.0899V87.0079V91.0079H123.758V87.0079ZM84.9784 86.9795L86.8894 83.4655L69.312 73.9065L67.401 77.4204L65.49 80.9344L83.0674 90.4935L84.9784 86.9795ZM110.902 102.078L113.317 105.267L128.651 93.6545L126.236 90.4658L123.821 87.277L108.487 98.8897L110.902 102.078ZM126.532 90.478L123.863 93.4573L136.804 105.05L139.473 102.071L142.142 99.0912L129.202 87.4987L126.532 90.478ZM139.547 102.207L135.598 102.839L137.182 112.751L141.132 112.119L145.082 111.488L143.497 101.576L139.547 102.207ZM141.134 112.183L137.161 111.718L135.573 125.276L139.546 125.742L143.518 126.207L145.106 112.649L141.134 112.183ZM139.459 125.897L136.963 122.772L130.515 127.923L133.012 131.048L135.509 134.173L141.956 129.022L139.459 125.897ZM132.939 131.148L129.197 129.735L126.08 137.987L129.822 139.401L133.564 140.814L136.681 132.562L132.939 131.148ZM130.154 139.687L132.11 143.176L152.443 131.774L150.486 128.285L148.53 124.796L128.198 136.198L130.154 139.687ZM150.605 128.099L154.593 128.402L156.985 96.9034L152.997 96.6006L149.008 96.2977L146.616 127.796L150.605 128.099ZM152.987 96.5133L156.805 95.3204L147.552 65.7048L143.734 66.8977L139.916 68.0906L149.169 97.7062L152.987 96.5133ZM143.607 66.7546L145.249 63.1074L128.16 55.4106L126.518 59.0577L124.875 62.7049L141.964 70.4017L143.607 66.7546ZM126.278 59.0864L123.82 55.9314L106.856 69.1513L109.315 72.3063L111.774 75.4614L128.737 62.2415L126.278 59.0864ZM109.138 72.3532L109.71 68.3942L100.991 67.1354L100.42 71.0943L99.8482 75.0532L108.567 76.3121L109.138 72.3532ZM100.335 102.126V106.126H110.761V102.126V98.1257H100.335V102.126ZM100.42 71.0943L96.4201 71.053L96.1019 101.849L100.102 101.89L104.101 101.931L104.42 71.1356L100.42 71.0943ZM90.0978 102.078L92.5128 98.8897L77.1789 87.277L74.7639 90.4658L72.349 93.6545L87.6829 105.267L90.0978 102.078ZM74.4675 90.478L71.7985 87.4987L58.8582 99.0912L61.5273 102.071L64.1963 105.05L77.1365 93.4573L74.4675 90.478ZM61.4526 102.207L57.5028 101.576L55.9179 111.488L59.8677 112.119L63.8175 112.751L65.4024 102.839L61.4526 102.207ZM59.8664 112.183L55.8935 112.649L57.4817 126.207L61.4545 125.742L65.4273 125.276L63.8392 111.718L59.8664 112.183ZM61.5406 125.897L59.0437 129.022L65.4913 134.173L67.9882 131.048L70.4851 127.923L64.0374 122.772L61.5406 125.897ZM68.0608 131.148L64.3189 132.562L67.4364 140.814L71.1783 139.401L74.9202 137.987L71.8027 129.735L68.0608 131.148ZM70.846 139.687L72.8025 136.198L52.47 124.796L50.5136 128.285L48.5572 131.774L68.8896 143.176L70.846 139.687ZM50.3951 128.099L54.3836 127.796L51.9919 96.2977L48.0034 96.6006L44.0149 96.9034L46.4066 128.402L50.3951 128.099ZM48.0133 96.5133L51.8313 97.7062L61.0844 68.0906L57.2665 66.8977L53.4485 65.7048L44.1953 95.3204L48.0133 96.5133ZM57.3933 66.7546L59.0359 70.4017L76.1328 62.7014L74.4902 59.0543L72.8475 55.4071L55.7506 63.1074L57.3933 66.7546ZM74.7192 59.0755L72.4347 62.359L91.0074 75.2808L93.2919 71.9973L95.5764 68.7138L77.0036 55.792L74.7192 59.0755ZM93.4564 72.0369L93.993 76.0008L100.956 75.0581L100.42 71.0943L99.8833 67.1305L92.9198 68.0731L93.4564 72.0369ZM100.187 102.126V98.1257H90.2387V102.126V106.126H100.187V102.126ZM100.42 71.0943H96.4199V101.893H100.42H104.42V71.0943H100.42ZM62.4952 67.2501L58.8195 65.6723L55.3227 73.8184L58.9983 75.3962L62.674 76.9741L66.1708 68.828L62.4952 67.2501ZM58.981 75.461L55.0064 75.0112C54.8745 76.1764 54.7033 77.9379 54.6197 79.4637C54.5788 80.2096 54.5526 81.003 54.578 81.6713C54.5899 81.9828 54.6178 82.4329 54.7103 82.8921C54.7542 83.1097 54.8478 83.5146 55.0578 83.9653C55.2105 84.2931 55.7723 85.4232 57.1552 86.0259L58.7532 82.3589L60.3512 78.692C61.0492 78.9961 61.512 79.4368 61.7869 79.7661C62.0596 80.0928 62.2207 80.3964 62.3092 80.5864C62.4788 80.9503 62.5378 81.2381 62.5526 81.3115C62.5871 81.4824 62.5786 81.5355 62.5722 81.3671C62.5611 81.0755 62.5706 80.5769 62.6077 79.9018C62.6798 78.5858 62.8335 76.9903 62.9556 75.9108L58.981 75.461ZM58.7532 82.3589L57.1552 86.0259C56.8767 85.9045 56.684 85.7793 56.6692 85.77C56.6392 85.751 56.6174 85.7364 56.6058 85.7286C56.5936 85.7204 56.5864 85.7153 56.5851 85.7144C56.5833 85.7131 56.5929 85.7199 56.6166 85.7375C56.6394 85.7544 56.6698 85.7774 56.7087 85.8073C56.8709 85.9317 57.1113 86.1226 57.4269 86.3784C58.0524 86.8853 58.8943 87.5829 59.8349 88.3699C61.7119 89.9404 63.9306 91.8237 65.4852 93.1506L68.082 90.1081L70.6789 87.0657C69.1137 85.7298 66.8733 83.8279 64.9685 82.2342C64.0181 81.4391 63.1384 80.7098 62.4638 80.1631C62.1293 79.892 61.825 79.6494 61.5793 79.4608C61.459 79.3685 61.3263 79.2688 61.1976 79.178C61.1902 79.1727 60.8143 78.8938 60.3512 78.692L58.7532 82.3589ZM68.4615 89.9798L72.3716 90.823L76.0711 73.6681L72.161 72.8248L68.2509 71.9816L64.5514 89.1366L68.4615 89.9798ZM72.0514 72.5747L74.0817 69.1283L64.8582 63.6948L62.8279 67.1412L60.7976 70.5876L70.0211 76.0212L72.0514 72.5747ZM70.5066 78.6388L66.5088 78.5052C66.4906 79.0514 66.0196 79.5295 65.3979 79.5091L65.2663 83.5069L65.1347 87.5047C70.1156 87.6687 74.3368 83.7878 74.5044 78.7723L70.5066 78.6388ZM65.2663 83.5069L65.3979 79.5091C64.7778 79.4886 64.342 78.983 64.3602 78.4384L60.3624 78.3048L56.3647 78.1713C56.1971 83.1883 60.1524 87.3407 65.1347 87.5047L65.2663 83.5069ZM60.3624 78.3048L64.3602 78.4384C64.3784 77.8922 64.8495 77.4141 65.4711 77.4346L65.6027 73.4367L65.7343 69.4389C60.7535 69.2749 56.5322 73.1559 56.3647 78.1713L60.3624 78.3048ZM65.6027 73.4367L65.4711 77.4346C66.0913 77.455 66.527 77.9606 66.5088 78.5052L70.5066 78.6388L74.5044 78.7723C74.672 73.7554 70.7167 69.6029 65.7343 69.4389L65.6027 73.4367ZM64.7402 76.0892L60.7425 75.9557C60.7795 74.8458 61.7057 74.026 62.7523 74.0605L62.6206 78.0583L62.489 82.0561C65.8017 82.1652 68.6258 79.5822 68.738 76.2228L64.7402 76.0892ZM62.6206 78.0583L62.7523 74.0605C63.8003 74.095 64.672 74.9763 64.6349 76.0877L60.6371 75.9542L56.6393 75.8206C56.5271 79.1816 59.1749 81.947 62.489 82.0561L62.6206 78.0583ZM60.6371 75.9542L64.6349 76.0877C64.5978 77.1976 63.6717 78.0174 62.6251 77.983L62.7567 73.9851L62.8883 69.9873C59.5757 69.8782 56.7516 72.4612 56.6393 75.8206L60.6371 75.9542ZM62.7567 73.9851L62.6251 77.983C61.5771 77.9485 60.7053 77.0671 60.7425 75.9557L64.7402 76.0892L68.738 76.2228C68.8503 72.8618 66.2024 70.0964 62.8883 69.9873L62.7567 73.9851ZM64.0995 69.7249L61.0218 72.2799L66.33 78.674L69.4077 76.119L72.4854 73.5641L67.1772 67.1699L64.0995 69.7249ZM69.4586 76.3042L65.5071 75.6832L64.0213 85.1372L67.9728 85.7582L71.9243 86.3792L73.4101 76.9253L69.4586 76.3042ZM67.9728 85.7582L63.975 85.6246L63.7948 91.02L67.7926 91.1535L71.7903 91.2871L71.9706 85.8917L67.9728 85.7582ZM68.1604 91.3517L70.4706 94.6171L77.9573 89.3205L75.6471 86.0551L73.3369 82.7896L65.8502 88.0863L68.1604 91.3517ZM75.7317 85.944L79.493 87.3051L82.8748 77.9595L79.1135 76.5985L75.3522 75.2374L71.9704 84.5829L75.7317 85.944ZM79.1136 76.44L82.864 75.0492C82.4847 74.0264 81.8651 72.4693 81.1872 70.9934C80.8488 70.2566 80.475 69.4943 80.0911 68.8095C79.7457 68.1933 79.2502 67.3785 78.6325 66.7232L75.7219 69.467L72.8113 72.2108C72.7262 72.1206 72.8327 72.2218 73.1127 72.7213C73.3543 73.1523 73.6293 73.7054 73.9174 74.3325C74.4924 75.5844 75.036 76.9488 75.3631 77.8309L79.1136 76.44ZM75.7219 69.467L78.6325 66.7232C77.8958 65.9417 76.9826 65.5368 76.5842 65.3668C76.0436 65.1361 75.4476 64.9397 74.8722 64.7719C73.7113 64.4333 72.3003 64.1154 70.8641 63.8299C67.973 63.2551 64.6622 62.7495 62.3338 62.4353L61.7988 66.3994L61.2638 70.3634C63.4988 70.6651 66.6329 71.1453 69.3042 71.6763C70.6493 71.9437 71.7988 72.2088 72.6322 72.4519C73.0541 72.5749 73.3137 72.6691 73.4441 72.7247C73.7166 72.841 73.2897 72.7183 72.8113 72.2108L75.7219 69.467ZM61.5941 66.7807L58.5478 69.373L61.0532 72.3172L64.0995 69.7249L67.1458 67.1326L64.6404 64.1884L61.5941 66.7807ZM79.2345 76.7208L79.4729 72.728L70.0521 72.1655L69.8137 76.1584L69.5753 80.1512L78.9961 80.7137L79.2345 76.7208ZM69.5686 76.3607L65.603 75.8372L63.6381 90.7236L67.6037 91.247L71.5693 91.7705L73.5342 76.8841L69.5686 76.3607ZM67.9643 91.4715L70.1843 94.799L78.2713 89.4035L76.0513 86.0761L73.8313 82.7487L65.7443 88.1441L67.9643 91.4715ZM76.1406 85.9629L79.8927 87.3492L83.1915 78.4208L79.4394 77.0345L75.6873 75.6482L72.3885 84.5766L76.1406 85.9629ZM61.9852 67.8262L58.285 69.3455L59.7945 73.0219L63.4947 71.5026L67.195 69.9833L65.6854 66.3069L61.9852 67.8262ZM63.5117 71.5359L60.1018 73.6271L63.9306 79.8705L67.3405 77.7793L70.7503 75.6882L66.9215 69.4448L63.5117 71.5359ZM67.3748 77.9091L63.377 77.7755L63.2333 82.0775L67.231 82.211L71.2288 82.3446L71.3725 78.0426L67.3748 77.9091ZM67.231 82.211L63.2367 82.4247L63.569 88.6349L67.5633 88.4213L71.5575 88.2076L71.2253 81.9973L67.231 82.211ZM68.0272 88.4404L71.9903 88.9826L73.6354 76.9582L69.6723 76.416L65.7092 75.8739L64.0641 87.8982L68.0272 88.4404ZM69.62 76.2347L72.6869 73.6667L65.4466 65.0199L62.3798 67.5879L59.3129 70.1558L66.5532 78.8027L69.62 76.2347ZM137.75 67.2501L134.074 68.828L137.571 76.9741L141.247 75.3962L144.922 73.8184L141.425 65.6723L137.75 67.2501ZM141.264 75.461L137.289 75.9108C137.412 76.9903 137.565 78.5858 137.637 79.9018C137.674 80.5769 137.684 81.0755 137.673 81.3671C137.666 81.5355 137.658 81.4824 137.692 81.3115C137.707 81.2381 137.766 80.9503 137.936 80.5864C138.024 80.3964 138.185 80.0928 138.458 79.7661C138.733 79.4368 139.196 78.9961 139.894 78.692L141.492 82.3589L143.09 86.0259C144.473 85.4232 145.034 84.2931 145.187 83.9653C145.397 83.5146 145.491 83.1097 145.535 82.8921C145.627 82.4329 145.655 81.9828 145.667 81.6713C145.692 81.003 145.666 80.2096 145.625 79.4637C145.542 77.9379 145.371 76.1764 145.239 75.0112L141.264 75.461ZM141.492 82.3589L139.894 78.692C139.431 78.8938 139.055 79.1727 139.047 79.178C138.919 79.2688 138.786 79.3685 138.666 79.4608C138.42 79.6494 138.116 79.892 137.781 80.1631C137.107 80.7098 136.227 81.4391 135.277 82.2342C133.372 83.8279 131.131 85.7298 129.566 87.0657L132.163 90.1081L134.76 93.1506C136.314 91.8237 138.533 89.9404 140.41 88.3699C141.351 87.5829 142.193 86.8853 142.818 86.3784C143.134 86.1226 143.374 85.9317 143.536 85.8073C143.575 85.7774 143.606 85.7544 143.628 85.7375C143.652 85.7199 143.662 85.7131 143.66 85.7144C143.659 85.7153 143.651 85.7204 143.639 85.7286C143.628 85.7364 143.606 85.751 143.576 85.77C143.561 85.7793 143.368 85.9045 143.09 86.0259L141.492 82.3589ZM131.784 89.9798L135.694 89.1366L131.994 71.9816L128.084 72.8248L124.174 73.6681L127.873 90.823L131.784 89.9798ZM128.194 72.5747L130.224 76.0212L139.447 70.5876L137.417 67.1412L135.387 63.6948L126.163 69.1283L128.194 72.5747ZM129.738 78.6388L125.741 78.7723C125.908 83.7878 130.13 87.6687 135.11 87.5047L134.979 83.5069L134.847 79.5091C134.226 79.5295 133.754 79.0514 133.736 78.5052L129.738 78.6388ZM134.979 83.5069L135.11 87.5047C140.093 87.3407 144.048 83.1883 143.88 78.1713L139.883 78.3048L135.885 78.4384C135.903 78.983 135.467 79.4886 134.847 79.5091L134.979 83.5069ZM139.883 78.3048L143.88 78.1713C143.713 73.1559 139.492 69.2749 134.511 69.4389L134.642 73.4367L134.774 77.4346C135.396 77.4141 135.867 77.8922 135.885 78.4384L139.883 78.3048ZM134.642 73.4367L134.511 69.4389C129.528 69.6029 125.573 73.7554 125.741 78.7723L129.738 78.6388L133.736 78.5052C133.718 77.9606 134.154 77.455 134.774 77.4346L134.642 73.4367ZM135.505 76.0892L131.507 76.2228C131.619 79.5822 134.443 82.1652 137.756 82.0561L137.624 78.0583L137.493 74.0605C138.539 74.026 139.466 74.8459 139.503 75.9557L135.505 76.0892ZM137.624 78.0583L137.756 82.0561C141.07 81.947 143.718 79.1816 143.606 75.8206L139.608 75.9542L135.61 76.0877C135.573 74.9763 136.445 74.095 137.493 74.0605L137.624 78.0583ZM139.608 75.9542L143.606 75.8206C143.493 72.4612 140.669 69.8782 137.357 69.9873L137.488 73.9851L137.62 77.983C136.573 78.0174 135.647 77.1976 135.61 76.0877L139.608 75.9542ZM137.488 73.9851L137.357 69.9873C134.043 70.0964 131.395 72.8618 131.507 76.2228L135.505 76.0892L139.503 75.9557C139.54 77.0671 138.668 77.9485 137.62 77.983L137.488 73.9851ZM136.146 69.7249L133.068 67.1699L127.76 73.5641L130.837 76.119L133.915 78.674L139.223 72.2799L136.146 69.7249ZM130.786 76.3042L126.835 76.9253L128.321 86.3792L132.272 85.7582L136.224 85.1372L134.738 75.6832L130.786 76.3042ZM132.272 85.7582L128.274 85.8917L128.455 91.2871L132.452 91.1535L136.45 91.02L136.27 85.6246L132.272 85.7582ZM132.085 91.3517L134.395 88.0863L126.908 82.7896L124.598 86.055L122.288 89.3205L129.774 94.6171L132.085 91.3517ZM124.513 85.944L128.275 84.5829L124.893 75.2374L121.131 76.5985L117.37 77.9595L120.752 87.3051L124.513 85.944ZM121.131 76.44L124.882 77.8309C125.209 76.9488 125.753 75.5844 126.328 74.3325C126.616 73.7054 126.891 73.1522 127.132 72.7213C127.412 72.2218 127.519 72.1206 127.434 72.2108L124.523 69.467L121.613 66.7232C120.995 67.3785 120.499 68.1933 120.154 68.8095C119.77 69.4943 119.396 70.2566 119.058 70.9934C118.38 72.4693 117.76 74.0264 117.381 75.0492L121.131 76.44ZM124.523 69.467L127.434 72.2108C126.955 72.7183 126.528 72.841 126.801 72.7247C126.931 72.6691 127.191 72.5749 127.613 72.4519C128.446 72.2088 129.596 71.9437 130.941 71.6763C133.612 71.1453 136.746 70.6651 138.981 70.3634L138.446 66.3994L137.911 62.4353C135.583 62.7495 132.272 63.2551 129.381 63.8299C127.945 64.1154 126.534 64.4333 125.373 64.7719C124.797 64.9397 124.201 65.1361 123.661 65.3668C123.262 65.5368 122.349 65.9417 121.613 66.7232L124.523 69.467ZM138.651 66.7807L135.605 64.1884L133.099 67.1326L136.146 69.7249L139.192 72.3172L141.697 69.373L138.651 66.7807ZM121.011 76.7208L121.249 80.7137L130.67 80.1512L130.431 76.1584L130.193 72.1655L120.772 72.728L121.011 76.7208ZM130.676 76.3607L126.711 76.8841L128.676 91.7705L132.641 91.247L136.607 90.7236L134.642 75.8372L130.676 76.3607ZM132.281 91.4715L134.501 88.1441L126.414 82.7487L124.194 86.0761L121.974 89.4035L130.061 94.799L132.281 91.4715ZM124.104 85.9629L127.857 84.5766L124.558 75.6482L120.806 77.0345L117.054 78.4208L120.352 87.3492L124.104 85.9629ZM138.26 67.8262L134.56 66.3069L133.05 69.9833L136.75 71.5026L140.451 73.0219L141.96 69.3455L138.26 67.8262ZM136.733 71.5359L133.324 69.4448L129.495 75.6882L132.905 77.7793L136.314 79.8705L140.143 73.6271L136.733 71.5359ZM132.87 77.9091L128.873 78.0426L129.016 82.3446L133.014 82.211L137.012 82.0775L136.868 77.7755L132.87 77.9091ZM133.014 82.211L129.02 81.9973L128.688 88.2076L132.682 88.4213L136.676 88.6349L137.008 82.4247L133.014 82.211ZM132.218 88.4404L136.181 87.8982L134.536 75.8739L130.573 76.416L126.61 76.9582L128.255 88.9826L132.218 88.4404ZM130.625 76.2347L133.692 78.8027L140.932 70.1558L137.865 67.5879L134.798 65.0199L127.558 73.6667L130.625 76.2347ZM85.4064 98.3552L87.2304 101.915L101.816 94.4421L99.9917 90.8822L98.1678 87.3223L83.5824 94.7952L85.4064 98.3552ZM100.206 90.8832L98.3508 94.4268L112.632 101.904L114.487 98.3609L116.343 94.8173L102.062 87.3396L100.206 90.8832ZM92.9179 118.429L89.5768 120.628L96.5757 131.26L99.9168 129.061L103.258 126.861L96.259 116.229L92.9179 118.429ZM100.298 129.072L103.499 131.472L111.118 121.307L107.917 118.908L104.717 116.509L97.0976 126.673L100.298 129.072ZM85.3094 98.6769L81.8209 100.634L88.7313 112.951L92.2197 110.994L95.7082 109.036L88.7978 96.7196L85.3094 98.6769ZM92.2486 111.087L88.2638 111.435L88.8955 118.669L92.8804 118.321L96.8652 117.973L96.2335 110.739L92.2486 111.087ZM107.962 118.797L111.93 119.305L113.039 110.628L109.072 110.12L105.104 109.613L103.994 118.29L107.962 118.797ZM109.093 110.048L112.695 111.788L118.191 100.409L114.589 98.6689L110.987 96.9293L105.491 108.309L109.093 110.048ZM84.9181 93.2561L82.2825 96.265L93.0793 105.722L95.7148 102.713L98.3504 99.7042L87.5536 90.2471L84.9181 93.2561ZM95.7882 102.835L91.8954 103.755L94.908 116.504L98.8008 115.585L102.694 114.665L99.681 101.915L95.7882 102.835ZM98.7931 115.718L95.0327 114.354L93.6576 118.146L97.418 119.51L101.178 120.873L102.553 117.081L98.7931 115.718ZM97.4532 119.732L94.2967 122.189L96.757 125.35L99.9135 122.893L103.07 120.436L100.61 117.275L97.4532 119.732ZM100.283 122.891L103.461 125.32L106.711 121.067L103.533 118.638L100.355 116.21L97.1046 120.463L100.283 122.891ZM103.551 118.383L107.042 116.43L105.551 113.766L102.06 115.719L98.5697 117.672L100.061 120.336L103.551 118.383ZM102.032 115.576L106.002 116.07L107.585 103.341L103.615 102.847L99.6459 102.354L98.0629 115.083L102.032 115.576ZM103.689 102.704L106.392 105.653L116.703 96.2043L114.001 93.2552L111.299 90.3061L100.987 99.7552L103.689 102.704ZM114.065 93.1564L117.863 94.4109L121.05 84.7613L117.252 83.5069L113.454 82.2524L110.267 91.902L114.065 93.1564ZM117.252 83.5069L120.95 85.0309C121.419 83.8929 122.142 82.1975 122.783 80.8069C123.11 80.1002 123.384 79.5404 123.577 79.1856C123.683 78.9917 123.708 78.9644 123.663 79.0269C123.651 79.0446 123.526 79.2245 123.3 79.4418C123.186 79.5508 122.952 79.7622 122.606 79.966C122.289 80.1524 121.588 80.5049 120.618 80.5049V76.5049V72.5049C119.624 72.5049 118.896 72.8665 118.549 73.0707C118.173 73.2924 117.905 73.5303 117.756 73.6741C117.457 73.9608 117.248 74.2434 117.142 74.3932C116.91 74.7201 116.706 75.0757 116.553 75.3559C116.23 75.9493 115.867 76.7024 115.52 77.4544C114.815 78.9813 114.046 80.7869 113.554 81.9828L117.252 83.5069ZM120.618 76.5049V80.5049C121.131 80.5049 127.692 80.1825 130.817 80.0275L130.619 76.0324L130.421 72.0373C128.803 72.1176 126.4 72.2356 124.356 72.3335C123.333 72.3825 122.403 72.4263 121.706 72.4578C120.928 72.4929 120.595 72.5049 120.618 72.5049V76.5049ZM130.783 75.951L133.825 78.5481L141.381 69.6976L138.338 67.1005L135.296 64.5034L127.741 73.3539L130.783 75.951ZM138.131 66.7179L137.608 62.7522L120.152 65.0525L120.674 69.0182L121.197 72.9839L138.653 70.6836L138.131 66.7179ZM120.572 69.0576L118.297 65.7676L104.136 75.5606L106.411 78.8505L108.686 82.1405L122.847 72.3475L120.572 69.0576ZM106.278 78.8919V74.8919H94.8869V78.8919V82.8919H106.278V78.8919ZM94.7469 78.8453L97.1481 75.6461L84.1132 65.8624L81.712 69.0615L79.3109 72.2606L92.3458 82.0444L94.7469 78.8453ZM81.6048 69.0171L82.1664 65.0568L62.6159 62.2842L62.0543 66.2446L61.4926 70.205L81.0431 72.9775L81.6048 69.0171ZM61.8405 66.6226L58.7359 69.1447L66.3121 78.4707L69.4168 75.9486L72.5214 73.4264L64.9452 64.1004L61.8405 66.6226ZM69.5824 76.0342L69.3183 80.0255L78.6849 80.6454L78.9491 76.6541L79.2132 72.6628L69.8465 72.043L69.5824 76.0342ZM79.1521 76.805L75.4065 78.2089L77.9186 84.9108L81.6641 83.5069L85.4096 82.1029L82.8976 75.401L79.1521 76.805ZM81.6641 83.5069L77.8659 84.7613L81.0521 94.4082L84.8503 93.1538L88.6485 91.8993L85.4623 82.2524L81.6641 83.5069ZM69.4776 137.397L70.5534 141.25C72.7529 140.636 76.0149 139.405 79.1397 137.58C82.1795 135.805 85.6158 133.164 87.4597 129.509L83.8884 127.707L80.3171 125.905C79.5047 127.516 77.6496 129.186 75.105 130.672C72.6454 132.108 70.0302 133.09 68.4017 133.545L69.4776 137.397ZM83.5868 127.413L81.9528 123.762C77.4993 125.755 75.3133 125.997 74.2584 125.975C73.7353 125.963 73.3509 125.888 72.8291 125.77C72.4292 125.681 71.2897 125.378 70.0516 125.476L70.3682 129.463L70.6848 133.451C70.4625 133.468 70.2947 133.401 71.078 133.576C71.7392 133.725 72.7496 133.944 74.0885 133.973C76.7577 134.029 80.1651 133.327 85.2209 131.064L83.5868 127.413ZM70.3682 129.463L70.0516 125.476C68.6424 125.588 67.2396 126.23 66.213 126.868C65.1192 127.547 63.8256 128.609 62.9423 130.086C61.9889 131.681 61.4585 133.924 62.5038 136.278C63.4445 138.395 65.3565 139.875 67.5252 140.958L69.3121 137.379L71.0991 133.801C70.4307 133.467 70.0581 133.195 69.8709 133.028C69.6883 132.866 69.7367 132.854 69.8151 133.03C69.8545 133.119 69.893 133.237 69.9149 133.379C69.9368 133.521 69.9381 133.661 69.9237 133.789C69.8951 134.043 69.8145 134.182 69.8085 134.192C69.8049 134.198 69.8461 134.13 69.9719 134.013C70.0938 133.898 70.2532 133.776 70.4344 133.663C70.6169 133.55 70.7779 133.474 70.8835 133.433C70.9344 133.413 70.9524 133.409 70.9359 133.413C70.9257 133.416 70.8377 133.439 70.6848 133.451L70.3682 129.463ZM63.0653 128.804L64.1412 132.657C66.3407 132.042 69.6027 130.812 72.7275 128.987C75.7673 127.211 79.2036 124.57 81.0474 120.916L77.4762 119.114L73.9049 117.312C73.0925 118.923 71.2373 120.592 68.6928 122.079C66.2332 123.515 63.618 124.497 61.9895 124.951L63.0653 128.804ZM77.1746 118.82L75.5405 115.169C71.087 117.162 68.901 117.404 67.8461 117.381C67.3231 117.37 66.9387 117.294 66.4168 117.177C66.017 117.087 64.8775 116.784 63.6394 116.883L63.9559 120.87L64.2725 124.858C64.0503 124.875 63.8825 124.807 64.6657 124.983C65.327 125.131 66.3373 125.351 67.6763 125.379C70.3455 125.436 73.7529 124.733 78.8087 122.471L77.1746 118.82ZM63.9559 120.87L63.6394 116.883C62.2302 116.994 60.8274 117.637 59.8008 118.274C58.7069 118.954 57.4133 120.016 56.53 121.493C55.5767 123.087 55.0463 125.331 56.0916 127.684C57.0323 129.802 58.9443 131.282 61.113 132.365L62.8999 128.786L64.6869 125.208C64.0185 124.874 63.6459 124.602 63.4587 124.435C63.2761 124.273 63.3245 124.26 63.4029 124.437C63.4423 124.526 63.4807 124.644 63.5027 124.786C63.5246 124.928 63.5258 125.068 63.5115 125.196C63.4829 125.45 63.4023 125.588 63.3963 125.598C63.3927 125.604 63.4339 125.537 63.5596 125.419C63.6816 125.305 63.841 125.182 64.0222 125.07C64.2046 124.957 64.3657 124.88 64.4713 124.839C64.5222 124.819 64.5401 124.816 64.5237 124.82C64.5135 124.823 64.4255 124.845 64.2725 124.858L63.9559 120.87ZM136.48 128.804L137.555 124.951C135.927 124.497 133.312 123.515 130.852 122.079C128.308 120.592 126.452 118.923 125.64 117.312L122.069 119.114L118.497 120.916C120.341 124.57 123.778 127.211 126.817 128.987C129.942 130.812 133.204 132.042 135.404 132.657L136.48 128.804ZM122.37 118.82L120.736 122.471C125.792 124.733 129.199 125.436 131.869 125.379C133.207 125.351 134.218 125.131 134.879 124.983C135.662 124.807 135.495 124.875 135.272 124.858L135.589 120.87L135.905 116.883C134.667 116.784 133.528 117.087 133.128 117.177C132.606 117.294 132.222 117.37 131.699 117.381C130.644 117.404 128.458 117.162 124.004 115.169L122.37 118.82ZM135.589 120.87L135.272 124.858C135.119 124.845 135.031 124.823 135.021 124.82C135.005 124.816 135.023 124.819 135.074 124.839C135.179 124.88 135.34 124.957 135.523 125.07C135.704 125.182 135.863 125.305 135.985 125.419C136.111 125.537 136.152 125.604 136.149 125.598C136.143 125.588 136.062 125.45 136.033 125.196C136.019 125.068 136.02 124.928 136.042 124.786C136.064 124.644 136.103 124.526 136.142 124.437C136.22 124.26 136.269 124.273 136.086 124.435C135.899 124.602 135.526 124.874 134.858 125.208L136.645 128.786L138.432 132.365C140.601 131.282 142.513 129.802 143.453 127.684C144.499 125.331 143.968 123.087 143.015 121.493C142.132 120.016 140.838 118.954 139.744 118.274C138.717 117.637 137.315 116.994 135.905 116.883L135.589 120.87ZM122.069 119.114L125.64 117.312C126.462 118.941 125.955 120.715 124.884 121.745C123.856 122.734 122.231 123.139 120.736 122.471L122.37 118.82L124.004 115.169C122.315 114.413 120.492 114.87 119.337 115.98C118.14 117.132 117.58 119.097 118.497 120.916L122.069 119.114ZM136.48 128.804L135.404 132.657C136.513 132.967 137.591 132.785 138.432 132.365L136.645 128.786L134.858 125.208C135.597 124.838 136.556 124.672 137.555 124.951L136.48 128.804ZM77.4762 119.114L81.0474 120.916C81.965 119.097 81.4049 117.132 80.2074 115.98C79.0531 114.87 77.2296 114.413 75.5405 115.169L77.1746 118.82L78.8087 122.471C77.3141 123.139 75.6893 122.734 74.6612 121.745C73.5898 120.715 73.0833 118.941 73.9049 117.312L77.4762 119.114ZM63.0653 128.804L61.9895 124.951C62.9893 124.672 63.9475 124.838 64.6869 125.208L62.8999 128.786L61.113 132.365C61.9543 132.785 63.0316 132.967 64.1412 132.657L63.0653 128.804ZM83.8884 127.707L87.4597 129.509C88.3772 127.69 87.8172 125.725 86.6197 124.573C85.4653 123.463 83.6418 123.006 81.9528 123.762L83.5868 127.413L85.2209 131.064C83.7263 131.733 82.1015 131.328 81.0734 130.339C80.002 129.308 79.4956 127.534 80.3171 125.905L83.8884 127.707ZM69.4776 137.397L68.4017 133.545C69.4015 133.266 70.3597 133.432 71.0991 133.801L69.3121 137.379L67.5252 140.958C68.3666 141.378 69.4438 141.56 70.5534 141.25L69.4776 137.397ZM78.9491 76.6541L78.6849 80.6454C77.2084 80.5477 75.9259 79.5945 75.4065 78.2089L79.1521 76.805L82.8976 75.401C82.3139 73.8439 80.8726 72.7727 79.2132 72.6628L78.9491 76.6541ZM69.4168 75.9486L66.3121 78.4707C67.0544 79.3844 68.1436 79.9478 69.3183 80.0255L69.5824 76.0342L69.8465 72.043C70.8917 72.1121 71.8609 72.6134 72.5214 73.4264L69.4168 75.9486ZM62.0543 66.2446L62.6159 62.2842C58.8052 61.7438 56.309 66.1574 58.7359 69.1447L61.8405 66.6226L64.9452 64.1004C67.1046 66.7586 64.8835 70.6858 61.4926 70.205L62.0543 66.2446ZM81.712 69.0615L84.1132 65.8624C83.5426 65.4341 82.8729 65.1569 82.1664 65.0568L81.6048 69.0171L81.0431 72.9775C80.4145 72.8884 79.8186 72.6418 79.3109 72.2606L81.712 69.0615ZM94.8869 78.8919V74.8919C95.7024 74.8919 96.4959 75.1566 97.1481 75.6461L94.7469 78.8453L92.3458 82.0444C93.0787 82.5945 93.9705 82.8919 94.8869 82.8919V78.8919ZM106.411 78.8505L104.136 75.5606C104.765 75.1252 105.513 74.8919 106.278 74.8919V78.8919V82.8919C107.139 82.8919 107.979 82.6298 108.686 82.1405L106.411 78.8505ZM120.674 69.0182L120.152 65.0525C119.485 65.1403 118.85 65.3854 118.297 65.7676L120.572 69.0576L122.847 72.3475C122.355 72.6876 121.79 72.9058 121.197 72.9839L120.674 69.0182ZM138.338 67.1005L141.381 69.6976C143.899 66.7475 141.454 62.2454 137.608 62.7522L138.131 66.7179L138.653 70.6836C135.231 71.1345 133.055 67.1285 135.296 64.5034L138.338 67.1005ZM130.619 76.0324L130.817 80.0275C132.019 79.9679 133.093 79.4056 133.825 78.5481L130.783 75.951L127.741 73.3539C128.389 72.5941 129.347 72.0906 130.421 72.0373L130.619 76.0324ZM114.001 93.2552L116.703 96.2043C117.237 95.7155 117.636 95.098 117.863 94.4109L114.065 93.1564L110.267 91.902C110.469 91.2906 110.824 90.7411 111.299 90.3061L114.001 93.2552ZM103.615 102.847L107.585 103.341C107.474 104.229 107.051 105.049 106.392 105.653L103.689 102.704L100.987 99.7552C100.245 100.435 99.77 101.356 99.6459 102.354L103.615 102.847ZM102.06 115.719L105.551 113.766C105.943 114.466 106.101 115.273 106.002 116.07L102.032 115.576L98.0629 115.083C97.9516 115.978 98.1291 116.885 98.5697 117.672L102.06 115.719ZM103.533 118.638L106.711 121.067C107.736 119.726 107.866 117.903 107.042 116.43L103.551 118.383L100.061 120.336C99.3268 119.025 99.4424 117.403 100.355 116.21L103.533 118.638ZM99.9135 122.893L96.757 125.35C98.4614 127.54 101.776 127.525 103.461 125.32L100.283 122.891L97.1046 120.463C98.6038 118.501 101.553 118.488 103.07 120.436L99.9135 122.893ZM97.418 119.51L93.6576 118.146C93.1615 119.514 93.4028 121.041 94.2967 122.189L97.4532 119.732L100.61 117.275C101.405 118.297 101.62 119.656 101.178 120.873L97.418 119.51ZM98.8008 115.585L94.908 116.504C94.7394 115.791 94.7827 115.043 95.0327 114.354L98.7931 115.718L102.553 117.081C102.834 116.307 102.883 115.467 102.694 114.665L98.8008 115.585ZM95.7148 102.713L93.0793 105.722C92.4895 105.205 92.0756 104.518 91.8954 103.755L95.7882 102.835L99.681 101.915C99.4783 101.058 99.0132 100.285 98.3504 99.7042L95.7148 102.713ZM84.9181 93.2561L87.5536 90.2471C88.0595 90.6902 88.4376 91.2607 88.6485 91.8993L84.8503 93.1538L81.0521 94.4082C81.2891 95.1259 81.714 95.767 82.2825 96.265L84.9181 93.2561ZM109.072 110.12L113.039 110.628C112.988 111.03 112.871 111.422 112.695 111.788L109.093 110.048L105.491 108.309C105.292 108.72 105.162 109.16 105.104 109.613L109.072 110.12ZM99.9917 90.8822L101.816 94.4421C100.727 95.0001 99.4347 94.9943 98.3508 94.4268L100.206 90.8832L102.062 87.3396C100.844 86.7017 99.3915 86.6953 98.1678 87.3223L99.9917 90.8822ZM124.194 86.0761L126.414 82.7487C127.076 83.1903 127.581 83.8302 127.857 84.5766L124.104 85.9629L120.352 87.3492C120.662 88.188 121.23 88.9072 121.974 89.4035L124.194 86.0761ZM128.084 72.8248L131.994 71.9816C132.336 73.5689 131.623 75.197 130.224 76.0212L128.194 72.5747L126.163 69.1283C124.591 70.0545 123.789 71.8842 124.174 73.6681L128.084 72.8248ZM132.163 90.1081L129.566 87.0657C131.736 85.2137 135.093 86.3522 135.694 89.1366L131.784 89.9798L127.873 90.823C128.548 93.9526 132.322 95.2318 134.76 93.1506L132.163 90.1081ZM141.247 75.3962L137.571 76.9741C137.432 76.6506 137.333 76.2927 137.289 75.9108L141.264 75.461L145.239 75.0112C145.19 74.5842 145.079 74.1837 144.922 73.8184L141.247 75.3962ZM137.75 67.2501L141.425 65.6723C140.419 63.3285 137.584 62.4002 135.387 63.6948L137.417 67.1412L139.447 70.5876C137.492 71.7396 134.969 70.9135 134.074 68.828L137.75 67.2501ZM69.6723 76.416L73.6354 76.9582C73.7971 75.7764 73.4527 74.5813 72.6869 73.6667L69.62 76.2347L66.5532 78.8027C65.8718 77.9889 65.5653 76.9254 65.7092 75.8739L69.6723 76.416ZM67.5633 88.4213L63.569 88.6349C63.8432 93.7612 71.2945 94.0687 71.9903 88.9826L68.0272 88.4404L64.0641 87.8982C64.6833 83.3725 71.3135 83.6462 71.5575 88.2076L67.5633 88.4213ZM67.3405 77.7793L63.9306 79.8705C63.5449 79.2414 63.3523 78.513 63.377 77.7755L67.3748 77.9091L71.3725 78.0426C71.4002 77.2138 71.1839 76.3951 70.7503 75.6882L67.3405 77.7793ZM63.4947 71.5026L59.7945 73.0219C59.8806 73.2315 59.9833 73.4339 60.1018 73.6271L63.5117 71.5359L66.9215 69.4448C67.0269 69.6167 67.1184 69.7968 67.195 69.9833L63.4947 71.5026ZM61.9852 67.8262L65.6854 66.3069C67.3202 70.2884 62.076 73.4557 59.3129 70.1558L62.3798 67.5879L65.4466 65.0199C62.3413 61.3114 56.4477 64.8709 58.285 69.3455L61.9852 67.8262ZM76.0513 86.0761L78.2713 89.4035C79.0152 88.9072 79.5828 88.188 79.8927 87.3492L76.1406 85.9629L72.3885 84.5766C72.6643 83.8302 73.1694 83.1903 73.8313 82.7487L76.0513 86.0761ZM67.6037 91.247L63.6381 90.7236C63.1619 94.3308 67.1576 96.8183 70.1843 94.799L67.9643 91.4715L65.7443 88.1441C68.4376 86.3473 71.9929 88.5607 71.5693 91.7705L67.6037 91.247ZM69.8137 76.1584L70.0521 72.1655C67.8356 72.0331 65.8935 73.6359 65.603 75.8372L69.5686 76.3607L73.5342 76.8841C73.2756 78.8429 71.5476 80.269 69.5753 80.1512L69.8137 76.1584ZM79.2345 76.7208L78.9961 80.7137C76.4729 80.5631 74.8113 78.0192 75.6873 75.6482L79.4394 77.0345L83.1915 78.4208C84.176 75.7562 82.3085 72.8973 79.4729 72.728L79.2345 76.7208ZM61.7988 66.3994L62.3338 62.4353C58.3549 61.8983 56.1188 66.5187 58.5478 69.373L61.5941 66.7807L64.6404 64.1884C66.7928 66.7178 64.8198 70.8433 61.2638 70.3634L61.7988 66.3994ZM79.1135 76.5985L82.8748 77.9595C83.2037 77.0507 83.2239 76.0199 82.864 75.0492L79.1136 76.44L75.3631 77.8309C75.0414 76.9633 75.0608 76.0428 75.3522 75.2374L79.1135 76.5985ZM75.6471 86.0551L77.9573 89.3205C78.663 88.8212 79.1989 88.1179 79.493 87.3051L75.7317 85.944L71.9704 84.5829C72.2321 83.8597 72.709 83.2339 73.3369 82.7896L75.6471 86.0551ZM67.7926 91.1535L63.7948 91.02C63.678 94.5173 67.6139 96.6382 70.4706 94.6171L68.1604 91.3517L65.8502 88.0863C68.3921 86.2879 71.8943 88.1751 71.7903 91.2871L67.7926 91.1535ZM69.4077 76.119L66.33 78.674C65.6389 77.8415 65.3392 76.752 65.5071 75.6832L69.4586 76.3042L73.4101 76.9253C73.5989 75.724 73.2621 74.4996 72.4854 73.5641L69.4077 76.119ZM72.161 72.8248L76.0711 73.6681C76.4558 71.8842 75.654 70.0545 74.0817 69.1283L72.0514 72.5747L70.0211 76.0212C68.622 75.197 67.9086 73.5689 68.2509 71.9816L72.161 72.8248ZM68.082 90.1081L65.4852 93.1506C67.9235 95.2318 71.6967 93.9526 72.3716 90.823L68.4615 89.9798L64.5514 89.1366C65.1518 86.3522 68.5091 85.2137 70.6789 87.0657L68.082 90.1081ZM58.9983 75.3962L55.3227 73.8184C55.1658 74.1837 55.0547 74.5842 55.0064 75.0112L58.981 75.461L62.9556 75.9108C62.9124 76.2927 62.8128 76.6506 62.674 76.9741L58.9983 75.3962ZM62.4952 67.2501L66.1708 68.828C65.2756 70.9135 62.753 71.7396 60.7976 70.5876L62.8279 67.1412L64.8582 63.6948C62.6606 62.4002 59.8257 63.3285 58.8195 65.6723L62.4952 67.2501ZM100.187 102.126V106.126C102.525 106.126 104.42 104.23 104.42 101.893H100.42H96.4199C96.4199 99.8122 98.1063 98.1257 100.187 98.1257V102.126ZM93.2919 71.9973L91.0074 75.2808C91.8774 75.886 92.9427 76.143 93.993 76.0008L93.4564 72.0369L92.9198 68.0731C93.8543 67.9466 94.8023 68.1752 95.5764 68.7138L93.2919 71.9973ZM74.4902 59.0543L76.1328 62.7014C74.9256 63.2452 73.5216 63.1151 72.4347 62.359L74.7192 59.0755L77.0036 55.792C75.7822 54.9422 74.2043 54.7961 72.8475 55.4071L74.4902 59.0543ZM57.2665 66.8977L61.0844 68.0906C60.7633 69.1184 60.0177 69.9596 59.0359 70.4017L57.3933 66.7546L55.7506 63.1074C54.6473 63.6044 53.8093 64.5498 53.4485 65.7048L57.2665 66.8977ZM48.0034 96.6006L51.9919 96.2977C52.028 96.7731 51.9735 97.2511 51.8313 97.7062L48.0133 96.5133L44.1953 95.3204C44.0355 95.8319 43.9743 96.3691 44.0149 96.9034L48.0034 96.6006ZM50.5136 128.285L52.47 124.796C53.5699 125.413 54.2882 126.539 54.3836 127.796L50.3951 128.099L46.4066 128.402C46.5139 129.815 47.3211 131.081 48.5572 131.774L50.5136 128.285ZM71.1783 139.401L67.4364 140.814C66.1939 137.525 69.7358 134.478 72.8025 136.198L70.846 139.687L68.8896 143.176C72.336 145.108 76.3165 141.684 74.9202 137.987L71.1783 139.401ZM74.7639 90.4658L77.1789 87.277C75.5635 86.0537 73.3078 86.1466 71.7985 87.4987L74.4675 90.478L77.1365 93.4573C75.7936 94.6604 73.7864 94.7431 72.349 93.6545L74.7639 90.4658ZM90.0978 102.078L87.6829 105.267C88.4185 105.824 89.3159 106.126 90.2387 106.126V102.126V98.1257C91.0597 98.1257 91.8582 98.394 92.5128 98.8897L90.0978 102.078ZM100.335 102.126V98.1257C102.43 98.1257 104.123 99.836 104.101 101.931L100.102 101.89L96.1019 101.849C96.0776 104.204 97.9799 106.126 100.335 106.126V102.126ZM109.315 72.3063L106.856 69.1513C107.665 68.5211 108.695 68.2477 109.71 68.3942L109.138 72.3532L108.567 76.3121C109.707 76.4768 110.865 76.1696 111.774 75.4614L109.315 72.3063ZM126.518 59.0577L128.16 55.4106C126.729 54.7659 125.058 54.9663 123.82 55.9314L126.278 59.0864L128.737 62.2415C127.635 63.1002 126.149 63.2786 124.875 62.7049L126.518 59.0577ZM143.734 66.8977L147.552 65.7048C147.191 64.5498 146.353 63.6044 145.249 63.1074L143.607 66.7546L141.964 70.4017C140.982 69.9596 140.237 69.1184 139.916 68.0906L143.734 66.8977ZM152.997 96.6006L156.985 96.9034C157.026 96.3691 156.964 95.8319 156.805 95.3204L152.987 96.5133L149.169 97.7062C149.026 97.2511 148.972 96.7731 149.008 96.2977L152.997 96.6006ZM150.486 128.285L152.443 131.774C153.679 131.081 154.486 129.815 154.593 128.402L150.605 128.099L146.616 127.796C146.712 126.539 147.43 125.413 148.53 124.796L150.486 128.285ZM129.822 139.401L126.08 137.987C124.683 141.684 128.664 145.108 132.11 143.176L130.154 139.687L128.198 136.198C131.264 134.478 134.806 137.525 133.564 140.814L129.822 139.401ZM133.012 131.048L130.515 127.923C129.921 128.398 129.466 129.024 129.197 129.735L132.939 131.148L136.681 132.562C136.442 133.195 136.037 133.751 135.509 134.173L133.012 131.048ZM139.546 125.742L135.573 125.276C135.688 124.291 136.188 123.391 136.963 122.772L139.459 125.897L141.956 129.022C142.827 128.326 143.389 127.314 143.518 126.207L139.546 125.742ZM141.132 112.119L137.182 112.751C137.128 112.409 137.121 112.062 137.161 111.718L141.134 112.183L145.106 112.649C145.152 112.262 145.144 111.872 145.082 111.488L141.132 112.119ZM139.473 102.071L136.804 105.05C136.16 104.473 135.734 103.693 135.598 102.839L139.547 102.207L143.497 101.576C143.344 100.617 142.865 99.7394 142.142 99.0912L139.473 102.071ZM126.236 90.4658L128.651 93.6545C127.214 94.7431 125.206 94.6604 123.863 93.4573L126.532 90.478L129.202 87.4987C127.692 86.1466 125.437 86.0537 123.821 87.277L126.236 90.4658ZM110.902 102.078L108.487 98.8897C109.142 98.394 109.94 98.1257 110.761 98.1257V102.126V106.126C111.684 106.126 112.581 105.824 113.317 105.267L110.902 102.078ZM85.0899 87.0079V83.0079C85.7185 83.0079 86.3372 83.1652 86.8894 83.4655L84.9784 86.9795L83.0674 90.4935C83.6881 90.831 84.3833 91.0079 85.0899 91.0079V87.0079ZM92.2197 110.994L88.7313 112.951C88.4697 112.485 88.3103 111.968 88.2638 111.435L92.2486 111.087L96.2335 110.739C96.1812 110.141 96.0021 109.56 95.7082 109.036L92.2197 110.994ZM123.881 86.9724L121.76 83.581C122.359 83.2065 123.051 83.0079 123.758 83.0079V87.0079V91.0079C124.551 91.0079 125.329 90.7847 126.002 90.3638L123.881 86.9724ZM107.917 118.908L111.118 121.307C111.557 120.721 111.837 120.031 111.93 119.305L107.962 118.797L103.994 118.29C104.077 117.644 104.326 117.03 104.717 116.509L107.917 118.908ZM139.487 76.7955L137.676 80.3621C135.063 79.0353 134.899 75.3638 137.384 73.8098L139.505 77.2012L141.626 80.5926C144.419 78.8461 144.235 74.7199 141.298 73.2288L139.487 76.7955ZM99.9168 129.061L96.5757 131.26C98.1877 133.709 101.741 133.817 103.499 131.472L100.298 129.072L97.0976 126.673C98.6622 124.586 101.824 124.683 103.258 126.861L99.9168 129.061ZM118.799 66.3202V70.3202C118.207 70.3202 117.622 70.1804 117.094 69.9121L118.905 66.3455L120.716 62.7789C120.122 62.4774 119.465 62.3202 118.799 62.3202V66.3202ZM92.9179 118.429L96.259 116.229C96.6025 116.751 96.8108 117.35 96.8652 117.973L92.8804 118.321L88.8955 118.669C88.9566 119.368 89.1908 120.041 89.5768 120.628L92.9179 118.429ZM83.5283 66.3633L85.8707 69.6057C85.1995 70.0905 84.4185 70.3202 83.6633 70.3202V66.3202V62.3202C82.8099 62.3202 81.9366 62.5785 81.1859 63.1208L83.5283 66.3633ZM130.573 76.416L134.536 75.8739C134.68 76.9254 134.373 77.9889 133.692 78.8027L130.625 76.2347L127.558 73.6667C126.792 74.5813 126.448 75.7764 126.61 76.9582L130.573 76.416ZM130.901 137.716L129.825 141.568C130.935 141.878 132.012 141.697 132.853 141.276L131.066 137.698L129.279 134.119C130.019 133.75 130.977 133.584 131.977 133.863L130.901 137.716ZM132.682 88.4213L128.688 88.2076C128.932 83.6461 135.562 83.3725 136.181 87.8982L132.218 88.4404L128.255 88.9826C128.951 94.0687 136.402 93.7612 136.676 88.6349L132.682 88.4213ZM136.158 121.955L132.181 122.382C132.079 121.434 132.34 120.483 132.912 119.72L136.113 122.119L139.313 124.519C139.956 123.661 140.25 122.592 140.135 121.527L136.158 121.955ZM131.031 128.951L135.004 129.416C134.926 130.077 134.675 130.706 134.276 131.238L131.076 128.838L127.875 126.439C127.427 127.037 127.145 127.744 127.058 128.486L131.031 128.951ZM132.905 77.7793L129.495 75.6882C129.061 76.3951 128.845 77.2138 128.873 78.0426L132.87 77.9091L136.868 77.7755C136.893 78.513 136.7 79.2414 136.314 79.8705L132.905 77.7793ZM130.226 139.383L127.437 136.516C129.979 134.043 134.217 136.132 133.805 139.654L129.832 139.189L125.859 138.723C125.396 142.681 130.159 145.029 133.016 142.25L130.226 139.383ZM136.75 71.5026L133.05 69.9833C133.127 69.7968 133.218 69.6167 133.324 69.4448L136.733 71.5359L140.143 73.6271C140.262 73.4339 140.364 73.2315 140.451 73.0219L136.75 71.5026ZM100.644 105.568L97.4213 103.199C96.688 104.196 96.4279 105.464 96.7094 106.67L100.605 105.76L104.5 104.85C104.75 105.922 104.519 107.051 103.866 107.938L100.644 105.568ZM138.26 67.8262L141.96 69.3455C143.797 64.8709 137.904 61.3114 134.798 65.0199L137.865 67.5879L140.932 70.1558C138.169 73.4557 132.925 70.2884 134.56 66.3069L138.26 67.8262ZM112.381 89.7303L111.933 85.7555C110.711 85.8931 109.669 86.5436 109 87.4539L112.222 89.8236L115.445 92.1933C114.852 92.9988 113.922 93.5821 112.829 93.7052L112.381 89.7303ZM132.641 91.247L128.676 91.7705C128.252 88.5607 131.807 86.3473 134.501 88.1441L132.281 91.4715L130.061 94.799C133.087 96.8183 137.083 94.3308 136.607 90.7236L132.641 91.247ZM148.153 100.056L151.992 101.178C152.402 99.7772 152.074 98.1861 150.973 97.0487L148.099 99.8309L145.225 102.613C144.24 101.596 143.951 100.174 144.313 98.934L148.153 100.056ZM130.431 76.1584L130.67 80.1512C128.697 80.269 126.969 78.8429 126.711 76.8841L130.676 76.3607L134.642 75.8372C134.351 73.6359 132.409 72.0331 130.193 72.1655L130.431 76.1584ZM139.231 130.58L135.392 129.458C135.574 128.834 135.915 128.268 136.38 127.815L139.17 130.682L141.959 133.549C142.483 133.04 142.865 132.404 143.07 131.703L139.231 130.58ZM121.011 76.7208L120.772 72.728C117.937 72.8973 116.069 75.7562 117.054 78.4208L120.806 77.0345L124.558 75.6482C125.434 78.0192 123.772 80.5631 121.249 80.7137L121.011 76.7208ZM134.235 105.622L133.478 109.55C131.853 109.237 130.623 107.9 130.446 106.254L134.423 105.826L138.4 105.399C138.201 103.549 136.819 102.047 134.992 101.695L134.235 105.622ZM138.446 66.3994L138.981 70.3634C135.425 70.8433 133.452 66.7178 135.605 64.1884L138.651 66.7807L141.697 69.373C144.126 66.5187 141.89 61.8983 137.911 62.4353L138.446 66.3994ZM117.806 102.556L120.577 105.441C119.694 106.288 118.456 106.654 117.255 106.423L118.012 102.495L118.769 98.5674C117.419 98.3073 116.027 98.7187 115.035 99.6709L117.806 102.556ZM121.131 76.5985L124.893 75.2374C125.184 76.0428 125.204 76.9633 124.882 77.8309L121.131 76.44L117.381 75.0492C117.021 76.0199 117.041 77.0507 117.37 77.9595L121.131 76.5985ZM64.2007 121.926L60.2236 121.498C60.109 122.564 60.4027 123.633 61.0454 124.49L64.2459 122.091L67.4465 119.692C68.0184 120.455 68.2797 121.406 68.1777 122.354L64.2007 121.926ZM124.598 86.055L126.908 82.7896C127.536 83.2339 128.013 83.8597 128.275 84.5829L124.513 85.944L120.752 87.3051C121.046 88.1179 121.582 88.8212 122.288 89.3205L124.598 86.055ZM69.3308 128.913L73.2586 128.157C73.1372 127.526 72.874 126.932 72.4889 126.418L69.2884 128.818L66.0878 131.217C65.7452 130.76 65.511 130.231 65.403 129.67L69.3308 128.913ZM132.452 91.1535L128.455 91.2871C128.351 88.1751 131.853 86.2879 134.395 88.0863L132.085 91.3517L129.774 94.6171C132.631 96.6382 136.567 94.5173 136.45 91.02L132.452 91.1535ZM70.8916 139.228L68.2421 142.225C71.269 144.901 75.967 142.22 75.2029 138.253L71.2751 139.009L67.3473 139.766C66.6674 136.236 70.8477 133.85 73.5411 136.231L70.8916 139.228ZM99.715 105.54L96.4925 107.91C95.84 107.023 95.6085 105.894 95.859 104.822L99.7542 105.731L103.649 106.641C103.931 105.436 103.671 104.168 102.937 103.17L99.715 105.54ZM130.837 76.119L127.76 73.5641C126.983 74.4996 126.646 75.724 126.835 76.9253L130.786 76.3042L134.738 75.6832C134.906 76.752 134.606 77.8415 133.915 78.674L130.837 76.119ZM87.9776 89.702L87.5298 93.6769C86.4371 93.5538 85.5066 92.9706 84.9143 92.165L88.1368 89.7953L91.3592 87.4256C90.6899 86.5153 89.6473 85.8649 88.4255 85.7272L87.9776 89.702ZM52.206 100.028L56.0453 98.9058C56.4079 100.146 56.1184 101.568 55.134 102.585L52.26 99.8026L49.3861 97.0205C48.2851 98.1578 47.957 99.7489 48.3666 101.15L52.206 100.028ZM67.9882 131.048L65.4913 134.173C64.9629 133.751 64.5579 133.195 64.3189 132.562L68.0608 131.148L71.8027 129.735C71.5341 129.024 71.0789 128.398 70.4851 127.923L67.9882 131.048ZM61.1261 130.546L57.2868 131.669C57.5109 132.435 57.9475 133.123 58.546 133.652L61.1955 130.656L63.845 127.659C64.3776 128.13 64.7661 128.742 64.9655 129.424L61.1261 130.546ZM114.487 98.3609L112.632 101.904C110.831 100.962 110.103 98.7598 110.987 96.9293L114.589 98.6689L118.191 100.409C119.184 98.3514 118.366 95.877 116.343 94.8173L114.487 98.3609ZM67.4694 76.7418L65.9545 73.0398C64.8318 73.4992 64.1868 74.3136 63.8575 74.8927C63.5185 75.4887 63.3541 76.099 63.2952 76.6386C63.2371 77.172 63.2594 77.8477 63.5033 78.5655C63.7489 79.2883 64.3168 80.2964 65.49 80.9344L67.401 77.4204L69.312 73.9065C70.3791 74.4868 70.8744 75.3925 71.078 75.9916C71.2798 76.5856 71.2906 77.1161 71.2481 77.5057C71.2049 77.9015 71.0834 78.3696 70.8114 78.8478C70.5491 79.3091 69.9952 80.0302 68.9843 80.4439L67.4694 76.7418ZM61.4545 125.742L57.4817 126.207C57.6114 127.314 58.1727 128.326 59.0437 129.022L61.5406 125.897L64.0374 122.772C64.8125 123.391 65.3119 124.291 65.4273 125.276L61.4545 125.742ZM66.1235 105.594L65.3664 101.666C63.5402 102.018 62.1576 103.521 61.9587 105.37L65.9358 105.798L69.9128 106.226C69.7358 107.871 68.5056 109.209 66.8806 109.522L66.1235 105.594ZM59.8677 112.119L55.9179 111.488C55.8565 111.872 55.8483 112.262 55.8935 112.649L59.8664 112.183L63.8392 111.718C63.8794 112.062 63.8722 112.409 63.8175 112.751L59.8677 112.119ZM82.5528 102.528L85.3234 99.6426C84.3319 98.6904 82.9398 98.279 81.59 98.5392L82.3471 102.467L83.1042 106.395C81.9031 106.626 80.6644 106.26 79.7821 105.413L82.5528 102.528ZM103.441 116.352L100.67 113.467C102.776 111.444 106.283 112.483 106.947 115.327L103.052 116.236L99.1567 117.146C99.9031 120.342 103.844 121.51 106.211 119.237L103.441 116.352ZM85.4064 98.3552L83.5824 94.7952C81.4459 95.8899 80.6462 98.5404 81.8209 100.634L85.3094 98.6769L88.7978 96.7196C89.843 98.5826 89.1315 100.941 87.2304 101.915L85.4064 98.3552ZM116.49 128.025L120.061 126.224C120.883 127.852 120.376 129.626 119.305 130.657C118.277 131.646 116.652 132.051 115.157 131.382L116.792 127.731L118.426 124.08C116.737 123.324 114.913 123.781 113.759 124.892C112.561 126.044 112.001 128.008 112.919 129.827L116.49 128.025ZM61.5273 102.071L58.8582 99.0912C58.1347 99.7394 57.6561 100.617 57.5028 101.576L61.4526 102.207L65.4024 102.839C65.2659 103.693 64.8401 104.473 64.1963 105.05L61.5273 102.071ZM96.9183 116.323L94.1476 119.208C96.5145 121.481 100.456 120.314 101.202 117.118L97.3069 116.208L93.4118 115.298C94.076 112.455 97.5828 111.416 99.6889 113.438L96.9183 116.323Z" fill="#222711" mask="url(#path-2-outside-1_1291_2)"/>
</svg>
