<svg width="200" height="200" viewBox="0 0 200 200" fill="none" xmlns="http://www.w3.org/2000/svg">
<rect x="61" y="93" width="84" height="23" fill="black" fill-opacity="0.25"/>
<mask id="path-2-inside-1_1277_72596" fill="white">
<path d="M113.5 57C119.081 57 124.085 58.937 127.477 62H128C139.455 62 148.862 70.7546 149.902 81.9375C154.237 83.1713 157.833 86.2758 159.396 90.5537C162.198 92.7504 164 96.1638 164 100V124C164 130.627 158.627 136 152 136C148.991 136 146.243 134.89 144.137 133.061C140.119 137.396 134.377 140.11 128 140.11H72.9365C67.0827 140.11 61.7639 137.823 57.8223 134.095C55.7213 135.903 52.9897 137 50 137C43.3726 137 38 131.627 38 125V101C38 97.2723 39.6995 93.9412 42.3662 91.7402C42.4802 91.1187 42.6206 90.4941 42.7881 89.8691C44.329 84.1189 47.8289 79.5739 52.0117 77.1914C54.6391 69.1114 61.8148 63.0837 70.5176 62.1318C72.3586 60.2543 75.6928 59 79.5 59C83.2161 59 86.4795 60.1969 88.3457 62H99.5234C102.915 58.937 107.919 57 113.5 57ZM68.2588 106.826V117.68L102.035 124.741L134.955 117.68V106.826L102.035 102L68.2588 106.826Z"/>
</mask>
<path d="M113.5 57C119.081 57 124.085 58.937 127.477 62H128C139.455 62 148.862 70.7546 149.902 81.9375C154.237 83.1713 157.833 86.2758 159.396 90.5537C162.198 92.7504 164 96.1638 164 100V124C164 130.627 158.627 136 152 136C148.991 136 146.243 134.89 144.137 133.061C140.119 137.396 134.377 140.11 128 140.11H72.9365C67.0827 140.11 61.7639 137.823 57.8223 134.095C55.7213 135.903 52.9897 137 50 137C43.3726 137 38 131.627 38 125V101C38 97.2723 39.6995 93.9412 42.3662 91.7402C42.4802 91.1187 42.6206 90.4941 42.7881 89.8691C44.329 84.1189 47.8289 79.5739 52.0117 77.1914C54.6391 69.1114 61.8148 63.0837 70.5176 62.1318C72.3586 60.2543 75.6928 59 79.5 59C83.2161 59 86.4795 60.1969 88.3457 62H99.5234C102.915 58.937 107.919 57 113.5 57ZM68.2588 106.826V117.68L102.035 124.741L134.955 117.68V106.826L102.035 102L68.2588 106.826Z" fill="#1F5C7C"/>
<path d="M113.5 57V52V52V57ZM127.477 62L124.126 65.7109L125.553 67H127.477V62ZM128 62L128 57H128V62ZM149.902 81.9375L144.924 82.4005L145.241 85.8093L148.534 86.7465L149.902 81.9375ZM159.396 90.5537L154.7 92.2697L155.189 93.6087L156.311 94.4884L159.396 90.5537ZM152 136V141H152L152 136ZM144.137 133.061L147.416 129.286L143.761 126.111L140.47 129.662L144.137 133.061ZM128 140.11V145.11V145.11V140.11ZM57.8223 134.095L61.2582 130.462L57.9799 127.361L54.5602 130.305L57.8223 134.095ZM50 137V142H50L50 137ZM42.3662 91.7402L45.5489 95.5964L46.9554 94.4356L47.2842 92.6419L42.3662 91.7402ZM42.7881 89.8691L37.9585 88.575L37.9585 88.575L42.7881 89.8691ZM52.0117 77.1914L54.4864 81.5361L56.1681 80.5782L56.7667 78.7376L52.0117 77.1914ZM70.5176 62.1318L71.0612 67.1022L72.837 66.908L74.0877 65.6325L70.5176 62.1318ZM79.5 59V54V54V59ZM88.3457 62L84.8714 65.5958L86.3248 67H88.3457V62ZM99.5234 62V67H101.447L102.874 65.7109L99.5234 62ZM68.2588 106.826L67.5515 101.876L63.2588 102.49V106.826H68.2588ZM68.2588 117.68H63.2588V121.742L67.2356 122.574L68.2588 117.68ZM102.035 124.741L101.012 129.635L102.048 129.852L103.084 129.63L102.035 124.741ZM134.955 117.68L136.004 122.568L139.955 121.721V117.68H134.955ZM134.955 106.826H139.955V102.506L135.68 101.879L134.955 106.826ZM102.035 102L102.76 97.0529L102.044 96.9479L101.328 97.0503L102.035 102ZM113.5 57V62C117.966 62 121.74 63.5565 124.126 65.7109L127.477 62L130.828 58.2891C126.429 54.3175 120.196 52 113.5 52V57ZM127.477 62V67H128V62V57H127.477V62ZM128 62L128 67C136.848 67 144.121 73.7637 144.924 82.4005L149.902 81.9375L154.881 81.4745C153.604 67.7454 142.061 57 128 57L128 62ZM149.902 81.9375L148.534 86.7465C151.465 87.5807 153.734 89.6248 154.7 92.2697L159.396 90.5537L164.093 88.8377C161.933 82.9269 157.01 78.762 151.271 77.1285L149.902 81.9375ZM159.396 90.5537L156.311 94.4884C157.958 95.7799 159 97.7676 159 100H164H169C169 94.5601 166.438 89.721 162.482 86.619L159.396 90.5537ZM164 100H159V124H164H169V100H164ZM164 124H159C159 127.866 155.866 131 152 131L152 136L152 141C161.389 141 169 133.389 169 124H164ZM152 136V131C150.245 131 148.65 130.358 147.416 129.286L144.137 133.061L140.858 136.835C143.836 139.422 147.737 141 152 141V136ZM144.137 133.061L140.47 129.662C137.357 133.02 132.927 135.11 128 135.11V140.11V145.11C135.827 145.11 142.88 141.772 147.804 136.46L144.137 133.061ZM128 140.11V135.11H72.9365V140.11V145.11H128V140.11ZM72.9365 140.11V135.11C68.4117 135.11 64.309 133.348 61.2582 130.462L57.8223 134.095L54.3864 137.727C59.2187 142.298 65.7538 145.11 72.9365 145.11V140.11ZM57.8223 134.095L54.5602 130.305C53.3282 131.366 51.7428 132 50 132L50 137L50 142C54.2366 142 58.1144 140.441 61.0844 137.884L57.8223 134.095ZM50 137V132C46.134 132 43 128.866 43 125H38H33C33 134.389 40.6112 142 50 142V137ZM38 125H43V101H38H33V125H38ZM38 101H43C43 98.8269 43.984 96.8881 45.5489 95.5964L42.3662 91.7402L39.1835 87.884C35.415 90.9944 33 95.7176 33 101H38ZM42.3662 91.7402L47.2842 92.6419C47.3739 92.1527 47.4849 91.659 47.6177 91.1632L42.7881 89.8691L37.9585 88.575C37.7564 89.3291 37.5864 90.0847 37.4482 90.8386L42.3662 91.7402ZM42.7881 89.8691L47.6177 91.1633C48.8533 86.5524 51.5941 83.1835 54.4864 81.5361L52.0117 77.1914L49.5371 72.8467C44.0638 75.9642 39.8046 81.6855 37.9585 88.575L42.7881 89.8691ZM52.0117 77.1914L56.7667 78.7376C58.7977 72.4915 64.3512 67.8361 71.0612 67.1022L70.5176 62.1318L69.974 57.1615C59.2783 58.3313 50.4805 65.7314 47.2568 75.6452L52.0117 77.1914ZM70.5176 62.1318L74.0877 65.6325C74.7261 64.9814 76.6083 64 79.5 64V59V54C74.7772 54 69.9912 55.5272 66.9475 58.6312L70.5176 62.1318ZM79.5 59V64C82.3052 64 84.1821 64.9297 84.8714 65.5958L88.3457 62L91.82 58.4042C88.7769 55.464 84.127 54 79.5 54V59ZM88.3457 62V67H99.5234V62V57H88.3457V62ZM99.5234 62L102.874 65.7109C105.26 63.5565 109.034 62 113.5 62V57V52C106.804 52 100.571 54.3175 96.1725 58.2891L99.5234 62ZM68.2588 106.826H63.2588V117.68H68.2588H73.2588V106.826H68.2588ZM68.2588 117.68L67.2356 122.574L101.012 129.635L102.035 124.741L103.058 119.847L69.282 112.786L68.2588 117.68ZM102.035 124.741L103.084 129.63L136.004 122.568L134.955 117.68L133.906 112.791L100.986 119.852L102.035 124.741ZM134.955 117.68H139.955V106.826H134.955H129.955V117.68H134.955ZM134.955 106.826L135.68 101.879L102.76 97.0529L102.035 102L101.31 106.947L134.23 111.773L134.955 106.826ZM102.035 102L101.328 97.0503L67.5515 101.876L68.2588 106.826L68.966 111.776L102.742 106.95L102.035 102Z" fill="#1A2A33" mask="url(#path-2-inside-1_1277_72596)"/>
<path d="M61 85C61 76.7157 67.7157 70 76 70H125C133.284 70 140 76.7157 140 85C140 93.2843 133.284 100 125 100H76C67.7157 100 61 93.2843 61 85Z" fill="#1B4054"/>
<path d="M100.16 94.3294C100.386 94.3124 100.615 94.3115 100.841 94.3266L113.456 95.1714C115.902 95.3352 116.234 96.9861 113.9 97.3769L101.246 99.4954C100.762 99.5764 100.237 99.5784 99.7503 99.501L87.12 97.4923C84.7752 97.1193 85.0525 95.4676 87.4907 95.2839L100.16 94.3294Z" fill="#1B4054"/>
<mask id="path-5-inside-2_1277_72596" fill="white">
<path d="M85.4118 68.2022C86.5061 67.253 88.1633 67.5608 88.6344 68.8009L90.9889 75.0001H112.334L113.261 72.2042C113.678 70.9482 115.335 70.5894 116.473 71.5089L120.796 75.0001H130.999C135.147 75.0001 139.026 76.149 142.338 78.1446L150.212 76.4405C151.848 76.0864 153.345 77.2958 152.907 78.6173L150.307 86.4503C152.022 89.5826 152.999 93.1771 152.999 97.0001V98.504L159.337 103.624C160.586 104.633 159.908 106.678 158.201 107.047L152.999 108.173V121.068C152.999 125.282 151.813 129.218 149.758 132.564L153.645 138.001C154.513 139.216 153.317 140.889 151.581 140.889H140.558C137.668 142.286 134.424 143.068 130.999 143.068H86.0963L79.9586 151.656C79.161 152.772 77.5014 152.772 76.7038 151.656L70.5661 143.068H69.9987C66.5999 143.068 63.3818 142.296 60.5084 140.92L48.8278 143.449L52.0368 133.773C49.4944 130.184 47.9997 125.801 47.9997 121.068V108.943L39.1207 101.773C37.8714 100.763 38.5489 98.7192 40.2555 98.3497L48.0036 96.672C48.0552 93.1471 48.9344 89.823 50.4577 86.8858L50.5954 73.0206C50.6084 71.6973 52.0762 70.8492 53.4411 71.377L64.5612 75.6768C66.3005 75.2345 68.1227 75.0001 69.9997 75.0001H77.5788L85.4118 68.2022ZM66.6793 108.028V117.486L102.478 123.64L137.372 117.486V108.028L102.478 103.822L66.6793 108.028Z"/>
</mask>
<path d="M85.4118 68.2022C86.5061 67.253 88.1633 67.5608 88.6344 68.8009L90.9889 75.0001H112.334L113.261 72.2042C113.678 70.9482 115.335 70.5894 116.473 71.5089L120.796 75.0001H130.999C135.147 75.0001 139.026 76.149 142.338 78.1446L150.212 76.4405C151.848 76.0864 153.345 77.2958 152.907 78.6173L150.307 86.4503C152.022 89.5826 152.999 93.1771 152.999 97.0001V98.504L159.337 103.624C160.586 104.633 159.908 106.678 158.201 107.047L152.999 108.173V121.068C152.999 125.282 151.813 129.218 149.758 132.564L153.645 138.001C154.513 139.216 153.317 140.889 151.581 140.889H140.558C137.668 142.286 134.424 143.068 130.999 143.068H86.0963L79.9586 151.656C79.161 152.772 77.5014 152.772 76.7038 151.656L70.5661 143.068H69.9987C66.5999 143.068 63.3818 142.296 60.5084 140.92L48.8278 143.449L52.0368 133.773C49.4944 130.184 47.9997 125.801 47.9997 121.068V108.943L39.1207 101.773C37.8714 100.763 38.5489 98.7192 40.2555 98.3497L48.0036 96.672C48.0552 93.1471 48.9344 89.823 50.4577 86.8858L50.5954 73.0206C50.6084 71.6973 52.0762 70.8492 53.4411 71.377L64.5612 75.6768C66.3005 75.2345 68.1227 75.0001 69.9997 75.0001H77.5788L85.4118 68.2022ZM66.6793 108.028V117.486L102.478 123.64L137.372 117.486V108.028L102.478 103.822L66.6793 108.028Z" fill="#D9D9D9"/>
<path d="M85.4118 68.2022L82.1356 64.4251L82.1346 64.426L85.4118 68.2022ZM88.6344 68.8009L93.3086 67.0256L93.3085 67.0251L88.6344 68.8009ZM90.9889 75.0001L86.3147 76.7754L87.5395 80.0001H90.9889V75.0001ZM112.334 75.0001V80.0001H115.943L117.079 76.5748L112.334 75.0001ZM113.261 72.2042L118.007 73.7789L118.007 73.7787L113.261 72.2042ZM116.473 71.5089L113.331 75.3985L113.332 75.3985L116.473 71.5089ZM120.796 75.0001L117.654 78.8897L119.028 80.0001H120.796V75.0001ZM142.338 78.1446L139.757 82.4271L141.456 83.4511L143.395 83.0315L142.338 78.1446ZM150.212 76.4405L151.269 81.3274L151.269 81.3274L150.212 76.4405ZM152.907 78.6173L157.652 80.1922L157.653 80.1908L152.907 78.6173ZM150.307 86.4503L145.562 84.8754L144.876 86.9419L145.922 88.8516L150.307 86.4503ZM152.999 97.0001H157.999V97L152.999 97.0001ZM152.999 98.504H147.999V100.892L149.857 102.393L152.999 98.504ZM159.337 103.624L156.194 107.514L156.195 107.514L159.337 103.624ZM158.201 107.047L157.143 102.16L157.143 102.16L158.201 107.047ZM152.999 108.173L151.941 103.286L147.999 104.139V108.173H152.999ZM152.999 121.068L157.999 121.069V121.068H152.999ZM149.758 132.564L145.498 129.947L143.762 132.773L145.691 135.471L149.758 132.564ZM153.645 138.001L157.713 135.094L157.713 135.093L153.645 138.001ZM151.581 140.889V135.889V135.889V140.889ZM140.558 140.889V135.889H139.414L138.383 136.387L140.558 140.889ZM86.0963 143.068V138.068H83.5241L82.0284 140.161L86.0963 143.068ZM79.9586 151.656L84.0264 154.564L84.0265 154.564L79.9586 151.656ZM76.7038 151.656L72.6359 154.564L72.636 154.564L76.7038 151.656ZM70.5661 143.068L74.6339 140.161L73.1383 138.068H70.5661V143.068ZM69.9987 143.068L69.9985 148.068H69.9987V143.068ZM60.5084 140.92L62.6684 136.411L61.124 135.671L59.4503 136.033L60.5084 140.92ZM48.8278 143.449L44.0819 141.875L41.3247 150.19L49.8859 148.336L48.8278 143.449ZM52.0368 133.773L56.7826 135.346L57.5787 132.946L56.1166 130.882L52.0368 133.773ZM47.9997 121.068H42.9997V121.069L47.9997 121.068ZM47.9997 108.943H52.9997V106.555L51.1412 105.054L47.9997 108.943ZM39.1207 101.773L35.979 105.662L35.9792 105.662L39.1207 101.773ZM40.2555 98.3497L41.3136 103.236L41.3137 103.236L40.2555 98.3497ZM48.0036 96.672L49.0617 101.559L52.9449 100.718L53.003 96.7451L48.0036 96.672ZM50.4577 86.8858L54.8962 89.1878L55.4456 88.1286L55.4574 86.9355L50.4577 86.8858ZM50.5954 73.0206L55.5951 73.0702L55.5951 73.0698L50.5954 73.0206ZM53.4411 71.377L51.6377 76.0405L51.6378 76.0405L53.4411 71.377ZM64.5612 75.6768L62.7579 80.3404L64.2466 80.916L65.7934 80.5226L64.5612 75.6768ZM69.9997 75.0001V70.0001H69.9996L69.9997 75.0001ZM77.5788 75.0001V80.0001H79.4458L80.856 78.7763L77.5788 75.0001ZM66.6793 108.028L66.0959 103.063L61.6793 103.581V108.028H66.6793ZM66.6793 117.486H61.6793V121.7L65.8323 122.414L66.6793 117.486ZM102.478 123.64L101.631 128.567L102.489 128.715L103.346 128.564L102.478 123.64ZM137.372 117.486L138.24 122.41L142.372 121.682V117.486H137.372ZM137.372 108.028H142.372V103.595L137.97 103.064L137.372 108.028ZM102.478 103.822L103.077 98.8583L102.486 98.7871L101.895 98.8565L102.478 103.822ZM85.4118 68.2022L88.6879 71.9794C88.0715 72.514 87.2132 72.758 86.3437 72.5965C85.45 72.4305 84.4175 71.7799 83.9604 70.5766L88.6344 68.8009L93.3085 67.0251C91.3486 61.8665 85.2899 61.6892 82.1356 64.4251L85.4118 68.2022ZM88.6344 68.8009L83.9602 70.5762L86.3147 76.7754L90.9889 75.0001L95.6631 73.2248L93.3086 67.0256L88.6344 68.8009ZM90.9889 75.0001V80.0001H112.334V75.0001V70.0001H90.9889V75.0001ZM112.334 75.0001L117.079 76.5748L118.007 73.7789L113.261 72.2042L108.516 70.6295L107.588 73.4254L112.334 75.0001ZM113.261 72.2042L118.007 73.7787C117.588 75.0421 116.544 75.7351 115.655 75.9275C114.793 76.1141 113.946 75.8948 113.331 75.3985L116.473 71.5089L119.615 67.6193C116.435 65.0503 110.292 65.2772 108.516 70.6297L113.261 72.2042ZM116.473 71.5089L113.332 75.3985L117.654 78.8897L120.796 75.0001L123.937 71.1104L119.615 67.6192L116.473 71.5089ZM120.796 75.0001V80.0001H130.999V75.0001V70.0001H120.796V75.0001ZM130.999 75.0001V80.0001C134.211 80.0001 137.202 80.8873 139.757 82.4271L142.338 78.1446L144.918 73.8622C140.851 71.4108 136.082 70.0001 130.999 70.0001V75.0001ZM142.338 78.1446L143.395 83.0315L151.269 81.3274L150.212 76.4405L149.154 71.5537L141.28 73.2578L142.338 78.1446ZM150.212 76.4405L151.269 81.3274C150.648 81.4617 149.879 81.3428 149.195 80.7904C148.464 80.1999 147.588 78.7721 148.161 77.0438L152.907 78.6173L157.653 80.1908C158.664 77.141 157.258 74.4477 155.479 73.0107C153.746 71.6118 151.411 71.0652 149.154 71.5537L150.212 76.4405ZM152.907 78.6173L148.161 77.0423L145.562 84.8754L150.307 86.4503L155.053 88.0252L157.652 80.1922L152.907 78.6173ZM150.307 86.4503L145.922 88.8516C147.244 91.2674 147.999 94.0385 147.999 97.0002L152.999 97.0001L157.999 97C157.999 92.3157 156.8 87.8979 154.693 84.0489L150.307 86.4503ZM152.999 97.0001H147.999V98.504H152.999H157.999V97.0001H152.999ZM152.999 98.504L149.857 102.393L156.194 107.514L159.337 103.624L162.479 99.7347L156.141 94.6146L152.999 98.504ZM159.337 103.624L156.195 107.514C154.96 106.517 154.804 104.988 155.132 104.001C155.442 103.065 156.207 102.363 157.143 102.16L158.201 107.047L159.258 111.934C161.901 111.362 163.859 109.452 164.623 107.15C165.404 104.797 164.962 101.741 162.478 99.7345L159.337 103.624ZM158.201 107.047L157.143 102.16L151.941 103.286L152.999 108.173L154.056 113.06L159.259 111.934L158.201 107.047ZM152.999 108.173H147.999V121.068H152.999H157.999V108.173H152.999ZM152.999 121.068L147.999 121.068C147.999 124.331 147.083 127.365 145.498 129.947L149.758 132.564L154.019 135.18C156.542 131.071 157.999 126.233 157.999 121.069L152.999 121.068ZM149.758 132.564L145.691 135.471L149.577 140.909L153.645 138.001L157.713 135.093L153.826 129.656L149.758 132.564ZM153.645 138.001L149.577 140.908C149.129 140.281 148.899 139.494 148.94 138.703C148.979 137.959 149.246 137.379 149.522 136.993C150.059 136.243 150.844 135.889 151.581 135.889V140.889V145.889C154.054 145.889 156.306 144.699 157.657 142.808C159.05 140.86 159.63 137.776 157.713 135.094L153.645 138.001ZM151.581 140.889V135.889H140.558V140.889V145.889H151.581V140.889ZM140.558 140.889L138.383 136.387C136.156 137.463 133.655 138.068 130.999 138.068V143.068V148.068C135.194 148.068 139.179 147.108 142.734 145.391L140.558 140.889ZM130.999 143.068V138.068H86.0963V143.068V148.068H130.999V143.068ZM86.0963 143.068L82.0284 140.161L75.8908 148.749L79.9586 151.656L84.0265 154.564L90.1642 145.976L86.0963 143.068ZM79.9586 151.656L75.8909 148.749C77.0874 147.075 79.575 147.075 80.7715 148.749L76.7038 151.656L72.636 154.564C75.4279 158.47 81.2345 158.47 84.0264 154.564L79.9586 151.656ZM76.7038 151.656L80.7716 148.749L74.6339 140.161L70.5661 143.068L66.4982 145.976L72.6359 154.564L76.7038 151.656ZM70.5661 143.068V138.068H69.9987V143.068V148.068H70.5661V143.068ZM69.9987 143.068L69.9988 138.068C67.3648 138.068 64.8832 137.471 62.6684 136.411L60.5084 140.92L58.3485 145.429C61.8805 147.121 65.8351 148.068 69.9985 148.068L69.9987 143.068ZM60.5084 140.92L59.4503 136.033L47.7696 138.563L48.8278 143.449L49.8859 148.336L61.5666 145.807L60.5084 140.92ZM48.8278 143.449L53.5736 145.023L56.7826 135.346L52.0368 133.773L47.2909 132.199L44.0819 141.875L48.8278 143.449ZM52.0368 133.773L56.1166 130.882C54.153 128.111 52.9997 124.731 52.9997 121.068L47.9997 121.068L42.9997 121.069C42.9997 126.87 44.8358 132.258 47.957 136.663L52.0368 133.773ZM47.9997 121.068H52.9997V108.943H47.9997H42.9997V121.068H47.9997ZM47.9997 108.943L51.1412 105.054L42.2623 97.8827L39.1207 101.773L35.9792 105.662L44.8581 112.833L47.9997 108.943ZM39.1207 101.773L42.2625 97.8829C43.4962 98.8794 43.6529 100.407 43.3257 101.395C43.0155 102.33 42.2501 103.034 41.3136 103.236L40.2555 98.3497L39.1974 93.4629C36.5544 94.0352 34.5969 95.9454 33.8336 98.2479C33.0533 100.602 33.496 103.657 35.979 105.662L39.1207 101.773ZM40.2555 98.3497L41.3137 103.236L49.0617 101.559L48.0036 96.672L46.9454 91.7852L39.1974 93.4629L40.2555 98.3497ZM48.0036 96.672L53.003 96.7451C53.043 94.0134 53.7227 91.4505 54.8962 89.1878L50.4577 86.8858L46.0191 84.5839C44.1461 88.1954 43.0673 92.2809 43.0041 96.5988L48.0036 96.672ZM50.4577 86.8858L55.4574 86.9355L55.5951 73.0702L50.5954 73.0206L45.5956 72.9709L45.4579 86.8362L50.4577 86.8858ZM50.5954 73.0206L55.5951 73.0698C55.582 74.4004 54.7999 75.3793 54.0122 75.8343C53.2484 76.2754 52.3746 76.3255 51.6377 76.0405L53.4411 71.377L55.2444 66.7136C51.4299 65.2385 45.6511 67.3333 45.5956 72.9713L50.5954 73.0206ZM53.4411 71.377L51.6378 76.0405L62.7579 80.3404L64.5612 75.6768L66.3644 71.0133L55.2443 66.7135L53.4411 71.377ZM64.5612 75.6768L65.7934 80.5226C67.1322 80.1822 68.5405 80.0001 69.9997 80.0001L69.9997 75.0001L69.9996 70.0001C67.7049 70.0001 65.4688 70.2869 63.3289 70.8311L64.5612 75.6768ZM69.9997 75.0001V80.0001H77.5788V75.0001V70.0001H69.9997V75.0001ZM77.5788 75.0001L80.856 78.7763L88.689 71.9785L85.4118 68.2022L82.1346 64.426L74.3016 71.2238L77.5788 75.0001ZM66.6793 108.028H61.6793V117.486H66.6793H71.6793V108.028H66.6793ZM66.6793 117.486L65.8323 122.414L101.631 128.567L102.478 123.64L103.325 118.712L67.5264 112.559L66.6793 117.486ZM102.478 123.64L103.346 128.564L138.24 122.41L137.372 117.486L136.503 112.562L101.61 118.716L102.478 123.64ZM137.372 117.486H142.372V108.028H137.372H132.372V117.486H137.372ZM137.372 108.028L137.97 103.064L103.077 98.8583L102.478 103.822L101.88 108.786L136.773 112.992L137.372 108.028ZM102.478 103.822L101.895 98.8565L66.0959 103.063L66.6793 108.028L67.2628 112.994L103.062 108.788L102.478 103.822Z" fill="#717171" mask="url(#path-5-inside-2_1277_72596)"/>
<path d="M129.999 84C138.283 84 144.999 90.7159 144.999 99V121.068C144.999 129.353 138.283 136.068 129.999 136.068H71C62.7158 136.068 56.0001 129.353 56 121.068V99C56.0002 90.7159 62.7158 84 71 84H129.999ZM65.793 108.328V117.116L102.255 122.834L137.793 117.116V108.328L102.255 104.42L65.793 108.328Z" fill="#C0C0C0"/>
<path d="M54.8456 100.17C54.2209 99.6656 54.5598 98.6437 55.4132 98.459L66.5108 96.0571C67.26 95.895 67.8593 96.5169 67.6274 97.2158L64.6538 106.18C64.422 106.879 63.518 107.175 62.9695 106.732L54.8456 100.17Z" fill="#C0C0C0"/>
<path d="M66.4553 82.8775C66.6082 82.2337 67.4178 81.983 68.0248 82.3915L76.5521 88.1296C77.2546 88.6023 77.1607 89.5755 76.3896 89.8142L65.7145 93.1197C64.9434 93.3584 64.1307 92.666 64.3076 91.921L66.4553 82.8775Z" fill="#C0C0C0"/>
<path d="M85.8448 82.6789C85.8864 81.9556 86.5748 81.4692 87.1835 81.7331L93.8637 84.6303C94.5724 84.9376 94.6384 86.0005 93.9779 86.4672L86.8415 91.5089C86.1809 91.9756 85.3403 91.4599 85.3887 90.6178L85.8448 82.6789Z" fill="#C0C0C0"/>
<path d="M109.433 81.9833C109.642 81.3553 110.47 81.176 111.039 81.6358L119.163 88.1974C119.821 88.7295 119.643 89.6908 118.854 89.8616L107.757 92.2633C106.968 92.4341 106.219 91.6735 106.46 90.9467L109.433 81.9833Z" fill="#C0C0C0"/>
<path d="M141.155 86.782C141.973 86.6049 142.721 87.2096 142.502 87.8703L139.263 97.6347C139.044 98.2954 138.021 98.5167 137.422 98.033L128.573 90.885C127.974 90.4013 128.248 89.5754 129.066 89.3983L141.155 86.782Z" fill="#C0C0C0"/>
<path d="M142.814 105.511C143.439 106.016 143.1 107.038 142.246 107.223L131.149 109.625C130.4 109.787 129.8 109.165 130.032 108.466L133.006 99.5019C133.238 98.8029 134.142 98.5064 134.69 98.9494L142.814 105.511Z" fill="#C0C0C0"/>
<path d="M141.757 132.92C142.192 133.527 141.594 134.363 140.725 134.363L129.198 134.363C128.394 134.363 127.954 133.634 128.39 133.024L134.154 124.961C134.59 124.35 135.592 124.293 135.994 124.856L141.757 132.92Z" fill="#C0C0C0"/>
<path d="M78.803 138.918C78.4031 139.457 77.5969 139.457 77.197 138.918L71.3905 131.096C70.9007 130.436 71.3717 129.5 72.1935 129.5L83.8065 129.5C84.6283 129.5 85.0993 130.436 84.6095 131.096L78.803 138.918Z" fill="#C0C0C0"/>
<path d="M65.0792 133.014C64.2611 133.191 63.5126 132.587 63.7317 131.926L66.7199 122.918C66.9391 122.257 67.9617 122.036 68.5605 122.52L76.7244 129.114C77.3232 129.598 77.0492 130.424 76.2312 130.601L65.0792 133.014Z" fill="#C0C0C0"/>
<path d="M125 89C133.284 89 140 95.7158 140 104V107.741L102.142 103.937L63.1475 107.757V116.348L102.142 121.937L139.996 116.369C139.836 124.514 133.184 131.068 125 131.068H75.999C67.7148 131.068 60.9991 124.353 60.999 116.068V104C60.9991 95.7158 67.7148 89 75.999 89H125Z" fill="#A2A2A2"/>
<path d="M61.1959 101.502C60.5712 100.997 60.9102 99.9756 61.7635 99.7909L70.8585 97.8225C71.6077 97.6603 72.207 98.2822 71.9751 98.9812L69.5381 106.327C69.3063 107.026 68.4023 107.323 67.8538 106.88L61.1959 101.502Z" fill="#A2A2A2"/>
<path d="M63.473 92.1115C63.4796 91.4499 64.2135 91.0261 64.8959 91.29L72.7452 94.3254C73.5349 94.6307 73.6589 95.6006 72.9598 96.0042L65.0356 100.579C64.3365 100.983 63.3905 100.488 63.3981 99.7219L63.473 92.1115Z" fill="#A2A2A2"/>
<path d="M83.2688 87.1247C83.7201 86.5579 84.5631 86.5579 84.9079 87.1247L87.9568 92.1366C88.3582 92.7965 87.7989 93.7027 86.9901 93.7027H79.9504C79.1416 93.7027 78.7525 92.7965 79.278 92.1366L83.2688 87.1247Z" fill="#A2A2A2"/>
<path d="M123.287 85.9184C123.76 85.4551 124.578 85.6745 124.874 86.3436L128.336 94.1703C128.678 94.9446 128.08 95.7181 127.3 95.5091L118.313 93.1009C117.533 92.892 117.214 91.8729 117.761 91.3368L123.287 85.9184Z" fill="#A2A2A2"/>
<path d="M133.455 89.0551C134.273 88.8781 135.021 89.4827 134.802 90.1435L132.134 98.1881C131.914 98.8488 130.892 99.0701 130.293 98.5864L123.002 92.6974C122.403 92.2137 122.677 91.3877 123.495 91.2107L133.455 89.0551Z" fill="#A2A2A2"/>
<path d="M141.999 99.3967C142.765 99.7353 143.014 100.665 142.448 101.07L135.554 106.001C134.988 106.406 134.031 105.983 133.832 105.239L131.406 96.1864C131.207 95.4429 131.915 94.9366 132.68 95.2751L141.999 99.3967Z" fill="#A2A2A2"/>
<path d="M136.869 105.784C137.494 106.289 137.155 107.311 136.301 107.495L127.206 109.464C126.457 109.626 125.858 109.004 126.09 108.305L128.527 100.959C128.758 100.26 129.662 99.9632 130.211 100.406L136.869 105.784Z" fill="#A2A2A2"/>
<path d="M118.623 134.473C118.313 134.956 117.563 134.956 117.072 134.473L108.684 126.206C108.032 125.564 108.318 124.602 109.16 124.602L122.857 124.602C123.7 124.602 124.344 125.564 123.931 126.206L118.623 134.473Z" fill="#A2A2A2"/>
<path d="M125.623 132.473C125.313 132.956 124.563 132.956 124.072 132.473L115.684 124.206C115.032 123.564 115.318 122.602 116.16 122.602L129.857 122.602C130.7 122.602 131.344 123.564 130.931 124.206L125.623 132.473Z" fill="#A2A2A2"/>
<path d="M66.1292 131.897C65.5225 132.147 64.8433 131.755 64.7567 131.105L63.6966 123.148C63.587 122.325 64.4692 121.735 65.1878 122.15L73.6687 127.046C74.3873 127.461 74.3171 128.52 73.5499 128.837L66.1292 131.897Z" fill="#A2A2A2"/>
<path d="M74.7593 132.872C74.238 133.271 73.4805 133.068 73.2284 132.462L70.1451 125.051C69.8264 124.285 70.5257 123.486 71.3272 123.701L80.7864 126.236C81.5879 126.45 81.7942 127.492 81.1351 127.996L74.7593 132.872Z" fill="#A2A2A2"/>
<path d="M70.087 129.689C69.2689 129.866 68.5204 129.261 68.7396 128.601L71.1911 121.21C71.4103 120.55 72.4329 120.328 73.0317 120.812L79.7295 126.222C80.3283 126.706 80.0544 127.532 79.2363 127.709L70.087 129.689Z" fill="#A2A2A2"/>
<mask id="path-30-inside-3_1277_72596" fill="white">
<path d="M99.9998 86.9998C105.351 86.9998 109.946 90.2337 111.94 94.8533L135.61 99.1589C139.889 99.9372 143 103.664 143 108.013V116.595C143 120.682 140.247 124.255 136.296 125.298L103.311 134.001C101.825 134.393 100.263 134.397 98.7742 134.014L64.7585 125.266C60.7811 124.243 57.9999 120.657 57.9998 116.551V108.048C58 103.683 61.1313 99.9473 65.4285 99.1853L87.9158 95.198C89.8259 90.3952 94.5163 86.9999 99.9998 86.9998ZM109.49 108.88C107.118 111.414 103.745 113 99.9998 113C96.3115 113 92.9849 111.461 90.6189 108.994L75.6658 110.249C74.1588 110.375 72.9998 111.635 72.9998 113.147C72.9999 114.617 74.096 115.855 75.5544 116.034L100.482 119.092C100.728 119.122 100.977 119.121 101.222 119.091L125.448 116.042C126.906 115.858 128 114.618 128 113.148C128 111.634 126.842 110.373 125.334 110.243L109.49 108.88Z"/>
</mask>
<path d="M99.9998 86.9998C105.351 86.9998 109.946 90.2337 111.94 94.8533L135.61 99.1589C139.889 99.9372 143 103.664 143 108.013V116.595C143 120.682 140.247 124.255 136.296 125.298L103.311 134.001C101.825 134.393 100.263 134.397 98.7742 134.014L64.7585 125.266C60.7811 124.243 57.9999 120.657 57.9998 116.551V108.048C58 103.683 61.1313 99.9473 65.4285 99.1853L87.9158 95.198C89.8259 90.3952 94.5163 86.9999 99.9998 86.9998ZM109.49 108.88C107.118 111.414 103.745 113 99.9998 113C96.3115 113 92.9849 111.461 90.6189 108.994L75.6658 110.249C74.1588 110.375 72.9998 111.635 72.9998 113.147C72.9999 114.617 74.096 115.855 75.5544 116.034L100.482 119.092C100.728 119.122 100.977 119.121 101.222 119.091L125.448 116.042C126.906 115.858 128 114.618 128 113.148C128 111.634 126.842 110.373 125.334 110.243L109.49 108.88Z" fill="#1B4054"/>
<path d="M99.9998 86.9998V81.9998H99.9997L99.9998 86.9998ZM111.94 94.8533L107.35 96.8347L108.411 99.2933L111.045 99.7725L111.94 94.8533ZM135.61 99.1589L134.715 104.078L134.715 104.078L135.61 99.1589ZM143 108.013H148V108.013L143 108.013ZM143 116.595L148 116.596V116.595H143ZM136.296 125.298L137.571 130.132L137.571 130.132L136.296 125.298ZM103.311 134.001L104.587 138.835L104.587 138.835L103.311 134.001ZM98.7742 134.014L97.5288 138.857L97.5289 138.857L98.7742 134.014ZM64.7585 125.266L63.513 130.109L63.5132 130.109L64.7585 125.266ZM57.9998 116.551H52.9998V116.551L57.9998 116.551ZM57.9998 108.048L52.9998 108.047V108.048H57.9998ZM65.4285 99.1853L64.5555 94.2621L64.5555 94.2621L65.4285 99.1853ZM87.9158 95.198L88.7887 100.121L91.5321 99.6348L92.5618 97.0458L87.9158 95.198ZM109.49 108.88L109.919 103.898L107.499 103.69L105.84 105.463L109.49 108.88ZM99.9998 113L99.9997 118H99.9998V113ZM90.6189 108.994L94.2277 105.533L92.5771 103.812L90.2008 104.011L90.6189 108.994ZM75.6658 110.249L76.0836 115.231L76.0839 115.231L75.6658 110.249ZM72.9998 113.147H67.9998V113.148L72.9998 113.147ZM75.5544 116.034L74.9453 120.997L74.9457 120.997L75.5544 116.034ZM100.482 119.092L99.8734 124.054L99.8735 124.054L100.482 119.092ZM101.222 119.091L101.847 124.051L101.847 124.051L101.222 119.091ZM125.448 116.042L126.072 121.003L126.073 121.003L125.448 116.042ZM128 113.148H133V113.148L128 113.148ZM125.334 110.243L125.763 105.261L125.762 105.261L125.334 110.243ZM99.9998 86.9998V91.9998C103.284 91.9998 106.118 93.9809 107.35 96.8347L111.94 94.8533L116.531 92.8719C113.775 86.4866 107.418 81.9998 99.9998 81.9998V86.9998ZM111.94 94.8533L111.045 99.7725L134.715 104.078L135.61 99.1589L136.505 94.2397L112.835 89.934L111.94 94.8533ZM135.61 99.1589L134.715 104.078C136.617 104.424 138 106.081 138 108.014L143 108.013L148 108.013C147.999 101.248 143.161 95.4503 136.505 94.2396L135.61 99.1589ZM143 108.013H138V116.595H143H148V108.013H143ZM143 116.595L138 116.595C138 118.411 136.776 120 135.02 120.463L136.296 125.298L137.571 130.132C143.717 128.511 147.999 122.952 148 116.596L143 116.595ZM136.296 125.298L135.02 120.463L102.036 129.166L103.311 134.001L104.587 138.835L137.571 130.132L136.296 125.298ZM103.311 134.001L102.036 129.166C101.376 129.34 100.682 129.342 100.019 129.172L98.7742 134.014L97.5289 138.857C99.8438 139.452 102.274 139.445 104.587 138.835L103.311 134.001ZM98.7742 134.014L100.02 129.172L66.0039 120.424L64.7585 125.266L63.5132 130.109L97.5288 138.857L98.7742 134.014ZM64.7585 125.266L66.0041 120.424C64.2357 119.969 62.9998 118.375 62.9998 116.55L57.9998 116.551L52.9998 116.551C53 122.94 57.3265 128.517 63.513 130.109L64.7585 125.266ZM57.9998 116.551H62.9998V108.048H57.9998H52.9998V116.551H57.9998ZM57.9998 108.048L62.9998 108.048C62.9998 106.108 64.3922 104.447 66.3015 104.109L65.4285 99.1853L64.5555 94.2621C57.8704 95.4475 53.0001 101.259 52.9998 108.047L57.9998 108.048ZM65.4285 99.1853L66.3014 104.109L88.7887 100.121L87.9158 95.198L87.0428 90.2748L64.5555 94.2621L65.4285 99.1853ZM87.9158 95.198L92.5618 97.0458C93.7409 94.0812 96.6335 91.9998 99.9998 91.9998L99.9998 86.9998L99.9997 81.9998C92.3991 81.9999 85.911 86.7093 83.2697 93.3502L87.9158 95.198ZM109.49 108.88L105.84 105.463C104.371 107.032 102.302 108 99.9998 108V113V118C105.188 118 109.864 115.796 113.14 112.297L109.49 108.88ZM99.9998 113L99.9998 108C97.7331 108 95.6924 107.061 94.2277 105.533L90.6189 108.994L87.0101 112.455C90.2774 115.862 94.8899 118 99.9997 118L99.9998 113ZM90.6189 108.994L90.2008 104.011L75.2476 105.266L75.6658 110.249L76.0839 115.231L91.037 113.976L90.6189 108.994ZM75.6658 110.249L75.248 105.266C71.1517 105.61 67.9998 109.034 67.9998 113.147H72.9998H77.9998C77.9998 114.235 77.1659 115.141 76.0836 115.231L75.6658 110.249ZM72.9998 113.147L67.9998 113.148C68 117.144 70.9811 120.51 74.9453 120.997L75.5544 116.034L76.1636 111.071C77.211 111.2 77.9997 112.089 77.9998 113.147L72.9998 113.147ZM75.5544 116.034L74.9457 120.997L99.8734 124.054L100.482 119.092L101.091 114.129L76.1632 111.071L75.5544 116.034ZM100.482 119.092L99.8735 124.054C100.526 124.134 101.189 124.134 101.847 124.051L101.222 119.091L100.598 114.13C100.764 114.109 100.93 114.109 101.091 114.129L100.482 119.092ZM101.222 119.091L101.847 124.051L126.072 121.003L125.448 116.042L124.824 111.081L100.598 114.13L101.222 119.091ZM125.448 116.042L126.073 121.003C130.031 120.504 133 117.138 133 113.148H128H123C123 112.098 123.781 111.212 124.823 111.081L125.448 116.042ZM128 113.148L133 113.148C133 109.039 129.856 105.614 125.763 105.261L125.334 110.243L124.905 115.224C123.828 115.132 123 114.23 123 113.148L128 113.148ZM125.334 110.243L125.762 105.261L109.919 103.898L109.49 108.88L109.061 113.861L124.905 115.225L125.334 110.243Z" fill="#1A2A33" mask="url(#path-30-inside-3_1277_72596)"/>
<path d="M99.804 100.046C100.585 99.9441 101.377 99.9454 102.157 100.05L130.343 103.814C134.727 104.4 138 108.141 138 112.563C138 116.634 135.215 120.177 131.259 121.139L103.08 127.99C101.7 128.326 100.26 128.329 98.8782 128.002L69.76 121.102C65.7981 120.164 63.0004 116.625 63.0002 112.554C63.0002 108.14 66.2743 104.412 70.6506 103.842L99.804 100.046ZM83.4797 103.87L75.7196 104.483C75.5736 104.494 75.4286 104.516 75.2858 104.549L69.3303 105.913C67.9669 106.226 67.0002 107.439 67.0002 108.838V116.485C67.0002 117.642 67.6653 118.696 68.7096 119.193L72.1382 120.827C72.3785 120.942 72.633 121.024 72.8949 121.071L100.372 126.041C100.741 126.107 101.119 126.104 101.486 126.032L126.759 121.047C126.92 121.016 127.077 120.971 127.231 120.914L132.052 119.108C133.224 118.669 134 117.55 134 116.299V108.89C134 107.468 133.001 106.241 131.608 105.952L127 105L121.956 104.516L101.399 101.217C101.088 101.167 100.771 101.166 100.46 101.215L83.4797 103.87Z" fill="#1F5C7C"/>
<circle cx="100" cy="100" r="6" fill="#1F5C7C"/>
<circle cx="100" cy="100" r="3" fill="#4D8DBA"/>
</svg>
