<svg width="200" height="200" viewBox="0 0 200 200" fill="none" xmlns="http://www.w3.org/2000/svg">
<path d="M57 93H141L149 104.5L99 113.5L50.5 104.5L57 93Z" fill="black" fill-opacity="0.25"/>
<mask id="path-2-outside-1_1277_72562" maskUnits="userSpaceOnUse" x="44" y="79" width="111" height="30" fill="black">
<rect fill="white" x="44" y="79" width="111" height="30"/>
<path d="M142 84C146.418 84 150 87.5817 150 92V93.1396C150 97.3881 146.679 100.896 142.437 101.128L99.0605 103.5L56.5557 101.135C52.3167 100.899 49 97.3921 49 93.1465V92C49 87.5817 52.5817 84 57 84H142Z"/>
</mask>
<path d="M142 84C146.418 84 150 87.5817 150 92V93.1396C150 97.3881 146.679 100.896 142.437 101.128L99.0605 103.5L56.5557 101.135C52.3167 100.899 49 97.3921 49 93.1465V92C49 87.5817 52.5817 84 57 84H142Z" fill="#D9D9D9"/>
<path d="M142 84L142 79H142V84ZM150 92H155V92L150 92ZM150 93.1396L155 93.1397V93.1396H150ZM142.437 101.128L142.71 106.12L142.71 106.12L142.437 101.128ZM99.0605 103.5L98.7827 108.492L99.0582 108.508L99.3336 108.493L99.0605 103.5ZM56.5557 101.135L56.2778 106.127L56.2779 106.127L56.5557 101.135ZM57 84V79V84ZM142 84L142 89C143.657 89 145 90.3432 145 92L150 92L155 92C155 84.8203 149.18 79 142 79L142 84ZM150 92H145V93.1396H150H155V92H150ZM150 93.1396L145 93.1396C145 94.7327 143.754 96.0484 142.163 96.1354L142.437 101.128L142.71 106.12C149.603 105.743 155 100.044 155 93.1397L150 93.1396ZM142.437 101.128L142.163 96.1354L98.7875 98.5075L99.0605 103.5L99.3336 108.493L142.71 106.12L142.437 101.128ZM99.0605 103.5L99.3383 98.5077L56.8335 96.1425L56.5557 101.135L56.2779 106.127L98.7827 108.492L99.0605 103.5ZM56.5557 101.135L56.8335 96.1425C55.2442 96.054 54 94.7389 54 93.1465H49H44C44 100.045 49.3891 105.744 56.2778 106.127L56.5557 101.135ZM49 93.1465H54V92H49H44V93.1465H49ZM49 92H54C54 90.3431 55.3431 89 57 89V84V79C49.8203 79 44 84.8203 44 92H49ZM57 84V89H142V84V79H57V84Z" fill="#717171" mask="url(#path-2-outside-1_1277_72562)"/>
<path d="M53.3999 91.4131C53.3999 87.8712 56.2711 85 59.813 85H98.9999H138.992C142.531 85 145.4 87.869 145.4 91.4082C145.4 94.7212 142.875 97.4881 139.575 97.7898L99.7348 101.433C99.2459 101.478 98.7539 101.477 98.2651 101.432L59.2188 97.7986C55.9214 97.4918 53.3999 94.7247 53.3999 91.4131Z" fill="#C0C0C0"/>
<path d="M92.7822 54.6697C97.238 54.0331 101.762 54.0331 106.218 54.6697L127.379 57.6921C140.072 59.5054 149.5 70.3763 149.5 83.198C149.5 88.5115 145.368 92.9087 140.065 93.24L100.999 95.6794L58.9561 93.2009C53.646 92.8876 49.5001 88.49 49.5 83.1707C49.5 70.3648 58.9166 59.5071 71.5938 57.696L92.7822 54.6697Z" fill="#6C4C3B" stroke="#52382A" stroke-width="5"/>
<path d="M57 77.4783C57 69.4264 63.0852 62.6767 71.0941 61.8453L93.7924 59.4887C96.9224 59.1638 100.078 59.1638 103.208 59.4887L125.895 61.8441C133.91 62.6762 140 69.4313 140 77.4898C140 81.2276 137.06 84.3042 133.326 84.4736L99.6857 86L63.6863 84.4573C59.9481 84.2971 57 81.2199 57 77.4783Z" fill="#815E4B"/>
<circle cx="95.5" cy="55.5" r="11" fill="#C0C0C0" stroke="#717171" stroke-width="5"/>
</svg>
