<svg width="200" height="200" viewBox="0 0 200 200" fill="none" xmlns="http://www.w3.org/2000/svg">
<path d="M58 91H142V114L100 113L58 114V91Z" fill="black" fill-opacity="0.25"/>
<path d="M71 55.5H128C137.665 55.5 145.5 63.335 145.5 73C145.5 82.665 137.665 90.5 128 90.5H71C61.335 90.5 53.5 82.665 53.5 73C53.5 63.335 61.335 55.5 71 55.5Z" fill="#6C4C3B" stroke="#52382A" stroke-width="5"/>
<path d="M62 75C62 70.0294 66.0294 66 71 66H99.1739H128C132.971 66 137 70.0294 137 75C137 79.9706 132.971 84 128 84H71C66.0294 84 62 79.9706 62 75Z" fill="#4C3F3F"/>
<mask id="path-4-outside-1_1205_71431" maskUnits="userSpaceOnUse" x="41.999" y="63" width="116" height="65" fill="black">
<rect fill="white" x="41.999" y="63" width="116" height="65"/>
<path d="M136.224 68C140.643 68 144.224 71.5817 144.224 76V87.8848C146.286 88.3263 147.965 89.9896 148.32 92.1963L152.197 116.314C152.662 119.21 150.693 121.934 147.798 122.399C144.903 122.865 142.178 120.895 141.713 118L139.122 101.889C138.061 102.302 136.894 102.496 135.677 102.413L100.5 100L63.7536 102.435C62.8313 102.496 61.9378 102.396 61.0973 102.164L58.5524 118C58.0868 120.895 55.3616 122.865 52.4665 122.399C49.5716 121.934 47.6019 119.209 48.067 116.314L51.945 92.1963C52.2517 90.2892 53.5474 88.7876 55.2243 88.1299V76C55.2243 71.5818 58.8061 68.0001 63.2243 68H136.224Z"/>
</mask>
<path d="M136.224 68C140.643 68 144.224 71.5817 144.224 76V87.8848C146.286 88.3263 147.965 89.9896 148.32 92.1963L152.197 116.314C152.662 119.21 150.693 121.934 147.798 122.399C144.903 122.865 142.178 120.895 141.713 118L139.122 101.889C138.061 102.302 136.894 102.496 135.677 102.413L100.5 100L63.7536 102.435C62.8313 102.496 61.9378 102.396 61.0973 102.164L58.5524 118C58.0868 120.895 55.3616 122.865 52.4665 122.399C49.5716 121.934 47.6019 119.209 48.067 116.314L51.945 92.1963C52.2517 90.2892 53.5474 88.7876 55.2243 88.1299V76C55.2243 71.5818 58.8061 68.0001 63.2243 68H136.224Z" fill="#D9D9D9"/>
<path d="M144.224 76H149.224H144.224ZM144.224 87.8848H139.224V91.9273L143.177 92.7739L144.224 87.8848ZM148.32 92.1963L153.257 91.4027L153.257 91.4023L148.32 92.1963ZM152.197 116.314L157.134 115.521L157.134 115.521L152.197 116.314ZM147.798 122.399L148.591 127.336L148.591 127.336L147.798 122.399ZM141.713 118L136.776 118.794L136.776 118.794L141.713 118ZM139.122 101.889L144.058 101.095L143.076 94.9835L137.308 97.2294L139.122 101.889ZM135.677 102.413L135.335 107.401L135.335 107.401L135.677 102.413ZM100.5 100L100.842 95.0117L100.506 94.9887L100.169 95.0109L100.5 100ZM63.7536 102.435L63.423 97.4455L63.423 97.4455L63.7536 102.435ZM61.0973 102.164L62.426 97.3438L57.0461 95.8609L56.1607 101.371L61.0973 102.164ZM58.5524 118L63.489 118.794L63.4891 118.793L58.5524 118ZM52.4665 122.399L51.6725 127.336L51.6728 127.336L52.4665 122.399ZM48.067 116.314L43.1305 115.521L43.1304 115.521L48.067 116.314ZM51.945 92.1963L47.0084 91.4023L47.0084 91.4025L51.945 92.1963ZM55.2243 88.1299L57.0499 92.7847L60.2243 91.5396V88.1299H55.2243ZM63.2243 68V63H63.2241L63.2243 68ZM136.224 68V73C137.881 73 139.224 74.3431 139.224 76H144.224H149.224C149.224 68.8203 143.404 63 136.224 63V68ZM144.224 76H139.224V87.8848H144.224H149.224V76H144.224ZM144.224 87.8848L143.177 92.7739C143.224 92.7839 143.276 92.8109 143.317 92.8535C143.351 92.8888 143.374 92.9291 143.383 92.9903L148.32 92.1963L153.257 91.4023C152.563 87.0896 149.281 83.8543 145.271 82.9956L144.224 87.8848ZM148.32 92.1963L143.383 92.9898L147.26 117.108L152.197 116.314L157.134 115.521L153.257 91.4027L148.32 92.1963ZM152.197 116.314L147.26 117.108C147.287 117.277 147.172 117.436 147.004 117.463L147.798 122.399L148.591 127.336C154.213 126.432 158.037 121.142 157.134 115.521L152.197 116.314ZM147.798 122.399L147.004 117.463C146.835 117.49 146.676 117.375 146.649 117.206L141.713 118L136.776 118.794C137.68 124.415 142.97 128.239 148.591 127.336L147.798 122.399ZM141.713 118L146.649 117.206L144.058 101.095L139.122 101.889L134.185 102.683L136.776 118.794L141.713 118ZM139.122 101.889L137.308 97.2294C136.911 97.3837 136.479 97.4563 136.019 97.4248L135.677 102.413L135.335 107.401C137.308 107.537 139.21 107.22 140.936 106.548L139.122 101.889ZM135.677 102.413L136.02 97.4248L100.842 95.0117L100.5 100L100.157 104.988L135.335 107.401L135.677 102.413ZM100.5 100L100.169 95.0109L63.423 97.4455L63.7536 102.435L64.0841 107.424L100.83 104.989L100.5 100ZM63.7536 102.435L63.423 97.4455C63.0766 97.4685 62.7437 97.4314 62.426 97.3438L61.0973 102.164L59.7686 106.984C61.1319 107.36 62.586 107.523 64.0842 107.424L63.7536 102.435ZM61.0973 102.164L56.1607 101.371L53.6157 117.207L58.5524 118L63.4891 118.793L66.034 102.957L61.0973 102.164ZM58.5524 118L53.6158 117.206C53.5888 117.374 53.4295 117.49 53.2602 117.463L52.4665 122.399L51.6728 127.336C57.2937 128.24 62.5848 124.416 63.489 118.794L58.5524 118ZM52.4665 122.399L53.2605 117.463C53.0918 117.436 52.9766 117.277 53.0037 117.108L48.067 116.314L43.1304 115.521C42.2272 121.142 46.0514 126.432 51.6725 127.336L52.4665 122.399ZM48.067 116.314L53.0036 117.108L56.8816 92.99L51.945 92.1963L47.0084 91.4025L43.1305 115.521L48.067 116.314ZM51.945 92.1963L56.8815 92.9903C56.8905 92.9347 56.9091 92.8991 56.934 92.8688C56.9639 92.8324 57.0055 92.8021 57.0499 92.7847L55.2243 88.1299L53.3986 83.4751C50.1437 84.7517 47.6077 87.6767 47.0084 91.4023L51.945 92.1963ZM55.2243 88.1299H60.2243V76H55.2243H50.2243V88.1299H55.2243ZM55.2243 76H60.2243C60.2243 74.3434 61.5674 73.0001 63.2244 73L63.2243 68L63.2241 63C56.0448 63.0002 50.2243 68.8202 50.2243 76H55.2243ZM63.2243 68V73H136.224V68V63H63.2243V68Z" fill="#717171" mask="url(#path-4-outside-1_1205_71431)"/>
<path d="M59 80C59 75.5817 62.5817 72 67 72H99.1478H132C136.418 72 140 75.5817 140 80V90.5212C140 95.1221 136.129 98.7749 131.536 98.5077L100.206 96.6857L67.4486 98.5255C62.8612 98.7831 59 95.1327 59 90.5381V80Z" fill="#C0C0C0"/>
<path d="M65 84C65 79.5817 68.5817 76 73 76H99.2H126C130.418 76 134 79.5817 134 84V86.6064C134 91.1754 130.18 94.8165 125.616 94.5972L100.101 93.3714L73.3708 94.6116C68.8118 94.8231 65 91.1841 65 86.6202V84Z" fill="#B9B9B9"/>
</svg>
