<svg width="200" height="200" viewBox="0 0 200 200" fill="none" xmlns="http://www.w3.org/2000/svg">
<mask id="path-1-inside-1_1243_71873" fill="white">
<path d="M71.1309 36.9995C77.684 36.9995 83.5402 39.9832 87.416 44.6655C88.0358 45.4144 87.1849 46.5182 86.2188 46.4116C85.8318 46.3688 85.4384 46.3462 85.04 46.3462C80.6106 46.3462 76.8162 49.0589 75.2227 52.9126L99.8418 49.0249C99.8523 49.0233 99.8635 49.0223 99.874 49.021C99.894 49.019 99.9146 49.0181 99.9346 49.0171C99.9792 49.0142 100.024 49.014 100.068 49.0171C100.086 49.0181 100.104 49.0202 100.121 49.022C100.133 49.0235 100.146 49.023 100.158 49.0249L123.227 52.7427C122.128 49.9316 119.901 47.5722 116.864 46.397C115.82 45.9927 114.751 45.7576 113.688 45.6772C112.719 45.6036 112.105 44.36 112.858 43.7456C118.839 38.868 127.199 37.2523 134.911 40.2368C142.403 43.1364 147.424 49.6573 148.75 57.0249C148.906 57.1668 149 57.3511 149 57.5513V58.855C149.131 60.2312 149.134 61.628 149 63.0288V70.2007C149 70.6422 148.552 70.9995 148 70.9995H146.682C141.588 81.0375 129.615 85.7787 118.893 81.6294C113.585 79.5751 109.518 75.7025 107.126 70.9995H87.8906C84.0278 76.0232 77.9579 79.2612 71.1309 79.2612C64.3038 79.2612 58.2341 76.0231 54.3711 70.9995H51C50.4479 70.9993 50.001 70.6414 50.001 70.1997L50 70.0083V57.5532C50 57.5115 50.0039 57.4704 50.0117 57.4302C50.3813 46.0842 59.695 36.9995 71.1309 36.9995Z"/>
</mask>
<path d="M71.1309 36.9995C77.684 36.9995 83.5402 39.9832 87.416 44.6655C88.0358 45.4144 87.1849 46.5182 86.2188 46.4116C85.8318 46.3688 85.4384 46.3462 85.04 46.3462C80.6106 46.3462 76.8162 49.0589 75.2227 52.9126L99.8418 49.0249C99.8523 49.0233 99.8635 49.0223 99.874 49.021C99.894 49.019 99.9146 49.0181 99.9346 49.0171C99.9792 49.0142 100.024 49.014 100.068 49.0171C100.086 49.0181 100.104 49.0202 100.121 49.022C100.133 49.0235 100.146 49.023 100.158 49.0249L123.227 52.7427C122.128 49.9316 119.901 47.5722 116.864 46.397C115.82 45.9927 114.751 45.7576 113.688 45.6772C112.719 45.6036 112.105 44.36 112.858 43.7456C118.839 38.868 127.199 37.2523 134.911 40.2368C142.403 43.1364 147.424 49.6573 148.75 57.0249C148.906 57.1668 149 57.3511 149 57.5513V58.855C149.131 60.2312 149.134 61.628 149 63.0288V70.2007C149 70.6422 148.552 70.9995 148 70.9995H146.682C141.588 81.0375 129.615 85.7787 118.893 81.6294C113.585 79.5751 109.518 75.7025 107.126 70.9995H87.8906C84.0278 76.0232 77.9579 79.2612 71.1309 79.2612C64.3038 79.2612 58.2341 76.0231 54.3711 70.9995H51C50.4479 70.9993 50.001 70.6414 50.001 70.1997L50 70.0083V57.5532C50 57.5115 50.0039 57.4704 50.0117 57.4302C50.3813 46.0842 59.695 36.9995 71.1309 36.9995Z" fill="#1B4054"/>
<path d="M71.1309 36.9995L71.1309 31.9995H71.1309V36.9995ZM87.416 44.6655L91.2679 41.4776L91.2677 41.4773L87.416 44.6655ZM86.2188 46.4116L85.6691 51.3813L85.6704 51.3815L86.2188 46.4116ZM85.04 46.3462L85.0402 41.3462H85.04V46.3462ZM75.2227 52.9126L70.6021 51.002L67.1947 59.2423L76.0026 57.8514L75.2227 52.9126ZM99.8418 49.0249L100.622 53.9637L100.622 53.9637L99.8418 49.0249ZM99.874 49.021L99.3777 44.0457L99.3186 44.0516L99.2596 44.0589L99.874 49.021ZM99.9346 49.0171L100.19 54.0106L100.223 54.0089L100.255 54.0068L99.9346 49.0171ZM100.068 49.0171L99.7184 54.0048L99.7528 54.0072L99.7872 54.0092L100.068 49.0171ZM100.121 49.022L100.733 44.0596L100.674 44.0523L100.614 44.0464L100.121 49.022ZM100.158 49.0249L100.954 44.0886L100.954 44.0886L100.158 49.0249ZM123.227 52.7427L122.431 57.679L131.068 59.0709L127.884 50.9227L123.227 52.7427ZM116.864 46.397L118.669 41.734L118.669 41.734L116.864 46.397ZM113.688 45.6772L113.309 50.6629L113.311 50.663L113.688 45.6772ZM112.858 43.7456L109.698 39.8708L109.698 39.8711L112.858 43.7456ZM134.911 40.2368L136.716 35.5739L136.716 35.5738L134.911 40.2368ZM148.75 57.0249L143.829 57.9103L144.129 59.5791L145.383 60.721L148.75 57.0249ZM149 57.5513H154V57.5506L149 57.5513ZM149 58.855H144V59.0917L144.022 59.3273L149 58.855ZM149 63.0288L144.023 62.5544L144 62.791V63.0288H149ZM149 70.2007L154 70.206V70.2007H149ZM148 70.9995V75.9995H148L148 70.9995ZM146.682 70.9995V65.9995H143.612L142.223 68.7369L146.682 70.9995ZM118.893 81.6294L117.088 86.2924L117.088 86.2924L118.893 81.6294ZM107.126 70.9995L111.583 68.7327L110.192 65.9995H107.126V70.9995ZM87.8906 70.9995V65.9995H85.428L83.9269 67.9517L87.8906 70.9995ZM71.1309 79.2612V84.2612H71.1309L71.1309 79.2612ZM54.3711 70.9995L58.3347 67.9516L56.8336 65.9995H54.3711V70.9995ZM51 70.9995L50.9985 75.9995H51V70.9995ZM50.001 70.1997H55.001V70.187L55.0009 70.1742L50.001 70.1997ZM50 70.0083H45V70.0211L45.0001 70.0338L50 70.0083ZM50 57.5532L45 57.5488V57.5532H50ZM50.0117 57.4302L54.9195 58.386L54.996 57.9931L55.0091 57.593L50.0117 57.4302ZM71.1309 36.9995L71.1308 41.9995C76.1313 41.9995 80.5975 44.2695 83.5644 47.8537L87.416 44.6655L91.2677 41.4773C86.4829 35.6969 79.2368 31.9995 71.1309 31.9995L71.1309 36.9995ZM87.416 44.6655L83.5642 47.8535C82.0597 46.0357 82.6476 43.9213 83.3519 42.9414C83.9919 42.0508 85.2036 41.2693 86.7671 41.4418L86.2188 46.4116L85.6704 51.3815C88.2001 51.6606 90.3203 50.3804 91.4724 48.7773C92.6886 47.0849 93.3921 44.0442 91.2679 41.4776L87.416 44.6655ZM86.2188 46.4116L86.7684 41.4419C86.2047 41.3796 85.6278 41.3462 85.0402 41.3462L85.04 46.3462L85.0399 51.3462C85.2489 51.3462 85.4589 51.3581 85.6691 51.3813L86.2188 46.4116ZM85.04 46.3462V41.3462C78.5156 41.3462 72.9411 45.3454 70.6021 51.002L75.2227 52.9126L79.8432 54.8232C80.6913 52.7723 82.7055 51.3462 85.04 51.3462V46.3462ZM75.2227 52.9126L76.0026 57.8514L100.622 53.9637L99.8418 49.0249L99.0619 44.0861L74.4428 47.9738L75.2227 52.9126ZM99.8418 49.0249L100.622 53.9637C100.562 53.9731 100.513 53.9797 100.48 53.9839C100.447 53.988 100.422 53.9909 100.413 53.9919C100.408 53.9924 100.405 53.9928 100.406 53.9927C100.406 53.9927 100.406 53.9927 100.407 53.9926C100.407 53.9926 100.408 53.9925 100.408 53.9924C100.41 53.9922 100.412 53.992 100.415 53.9916C100.426 53.9905 100.454 53.9874 100.488 53.9831L99.874 49.021L99.2596 44.0589C99.2892 44.0552 99.3116 44.0527 99.3166 44.0522C99.3189 44.0519 99.3217 44.0516 99.3182 44.052C99.3164 44.0522 99.3101 44.0529 99.3026 44.0537C99.288 44.0554 99.2574 44.0588 99.2193 44.0637C99.1808 44.0686 99.1265 44.0759 99.0618 44.0861L99.8418 49.0249ZM99.874 49.021L100.37 53.9963C100.288 54.0045 100.225 54.0084 100.2 54.01C100.186 54.0108 100.176 54.0113 100.175 54.0113C100.175 54.0113 100.175 54.0113 100.178 54.0112C100.18 54.0111 100.185 54.0108 100.19 54.0106L99.9346 49.0171L99.6791 44.0236C99.6795 44.0236 99.6794 44.0236 99.6765 44.0238C99.6743 44.0239 99.6693 44.0241 99.6639 44.0244C99.653 44.0249 99.6331 44.026 99.609 44.0274C99.5628 44.0301 99.4796 44.0355 99.3777 44.0457L99.874 49.021ZM99.9346 49.0171L100.255 54.0068C100.107 54.0163 99.9255 54.0194 99.7184 54.0048L100.068 49.0171L100.418 44.0293C100.122 44.0086 99.8515 44.0121 99.614 44.0274L99.9346 49.0171ZM100.068 49.0171L99.7872 54.0092C99.6914 54.0038 99.6186 53.9966 99.597 53.9944C99.5863 53.9933 99.5772 53.9924 99.5849 53.9932C99.5879 53.9935 99.6065 53.9955 99.628 53.9976L100.121 49.022L100.614 44.0464C100.627 44.0476 100.637 44.0487 100.631 44.048C100.63 44.0479 100.612 44.046 100.593 44.0441C100.553 44.0402 100.463 44.0314 100.349 44.025L100.068 49.0171ZM100.121 49.022L99.5087 53.9843C99.6486 54.0016 99.7609 54.0095 99.8204 54.0132C99.8513 54.0151 99.876 54.0163 99.8878 54.0169C99.8938 54.0172 99.8988 54.0175 99.9001 54.0175C99.9028 54.0177 99.9002 54.0175 99.8982 54.0174C99.8937 54.0172 99.8756 54.0163 99.8521 54.015C99.8279 54.0135 99.792 54.0113 99.7484 54.0078C99.6637 54.001 99.5283 53.9879 99.3627 53.9612L100.158 49.0249L100.954 44.0886C100.782 44.0609 100.641 44.0472 100.55 44.0399C100.462 44.0329 100.392 44.0296 100.381 44.0291C100.378 44.0289 100.373 44.0287 100.375 44.0288C100.375 44.0288 100.375 44.0288 100.377 44.0289C100.378 44.0289 100.38 44.029 100.382 44.0292C100.391 44.0296 100.412 44.0307 100.44 44.0324C100.494 44.0357 100.6 44.0431 100.733 44.0596L100.121 49.022ZM100.158 49.0249L99.3627 53.9612L122.431 57.679L123.227 52.7427L124.022 47.8064L100.954 44.0886L100.158 49.0249ZM123.227 52.7427L127.884 50.9227C126.297 46.8629 123.069 43.4368 118.669 41.734L116.864 46.397L115.06 51.0599C116.733 51.7075 117.959 53.0002 118.57 54.5626L123.227 52.7427ZM116.864 46.397L118.669 41.734C117.16 41.1499 115.609 40.8083 114.066 40.6915L113.688 45.6772L113.311 50.663C113.892 50.7069 114.479 50.8354 115.06 51.06L116.864 46.397ZM113.688 45.6772L114.067 40.6916C115.652 40.8121 116.715 41.8237 117.179 42.8441C117.689 43.9664 117.829 46.1434 116.019 47.6201L112.858 43.7456L109.698 39.8711C107.134 41.9623 107.205 45.0682 108.076 46.9843C108.901 48.7985 110.755 50.4687 113.309 50.6629L113.688 45.6772ZM112.858 43.7456L116.018 47.6204C120.664 43.8322 127.138 42.5902 133.107 44.8998L134.911 40.2368L136.716 35.5738C127.259 31.9144 117.015 33.9038 109.698 39.8708L112.858 43.7456ZM134.911 40.2368L133.106 44.8998C138.905 47.1439 142.799 52.1873 143.829 57.9103L148.75 57.0249L153.671 56.1395C152.049 47.1273 145.901 39.1289 136.716 35.5739L134.911 40.2368ZM148.75 57.0249L145.383 60.721C144.695 60.0945 144 59.0038 144 57.552L149 57.5513L154 57.5506C154 55.6984 153.116 54.239 152.117 53.3288L148.75 57.0249ZM149 57.5513H144V58.855H149H154V57.5513H149ZM149 58.855L144.022 59.3273C144.124 60.3936 144.126 61.4733 144.023 62.5544L149 63.0288L153.977 63.5033C154.141 61.7827 154.138 60.0688 153.978 58.3826L149 58.855ZM149 63.0288H144V70.2007H149H154V63.0288H149ZM149 70.2007L144 70.1954C144.002 68.6257 144.811 67.4781 145.586 66.8588C146.352 66.2471 147.222 65.9995 148 65.9995L148 70.9995L148 75.9995C150.21 75.9995 153.996 74.3921 154 70.206L149 70.2007ZM148 70.9995V65.9995H146.682V70.9995V75.9995H148V70.9995ZM146.682 70.9995L142.223 68.7369C138.279 76.5086 129 80.1797 120.697 76.9664L118.893 81.6294L117.088 86.2924C130.229 91.3777 144.897 85.5664 151.14 73.2621L146.682 70.9995ZM118.893 81.6294L120.697 76.9664C116.583 75.3742 113.438 72.3811 111.583 68.7327L107.126 70.9995L102.669 73.2663C105.598 79.0238 110.586 83.7761 117.088 86.2924L118.893 81.6294ZM107.126 70.9995V65.9995H87.8906V70.9995V75.9995H107.126V70.9995ZM87.8906 70.9995L83.9269 67.9517C80.9695 71.7979 76.3392 74.2612 71.1308 74.2612L71.1309 79.2612L71.1309 84.2612C79.5767 84.2612 87.086 80.2486 91.8543 74.0473L87.8906 70.9995ZM71.1309 79.2612V74.2612C65.9227 74.2612 61.2924 71.7979 58.3347 67.9516L54.3711 70.9995L50.4075 74.0475C55.1759 80.2483 62.6849 84.2612 71.1309 84.2612V79.2612ZM54.3711 70.9995V65.9995H51V70.9995V75.9995H54.3711V70.9995ZM51 70.9995L51.0015 65.9995C51.7805 65.9997 52.652 66.2484 53.4185 66.8621C54.1946 67.4835 55.001 68.6322 55.001 70.1997H50.001H45.001C45.001 74.3834 48.7815 75.9988 50.9985 75.9995L51 70.9995ZM50.001 70.1997L55.0009 70.1742L54.9999 69.9828L50 70.0083L45.0001 70.0338L45.001 70.2252L50.001 70.1997ZM50 70.0083H55V57.5532H50H45V70.0083H50ZM50 57.5532L55 57.5577C54.9998 57.8214 54.9753 58.0994 54.9195 58.386L50.0117 57.4302L45.1039 56.4743C45.0325 56.8413 45.0003 57.2016 45 57.5488L50 57.5532ZM50.0117 57.4302L55.0091 57.593C55.2911 48.9345 62.4022 41.9995 71.1309 41.9995V36.9995V31.9995C56.9879 31.9995 45.4715 43.2339 45.0144 57.2674L50.0117 57.4302Z" fill="#1A2A33" mask="url(#path-1-inside-1_1243_71873)"/>
<rect x="49.5" y="60.5" width="101" height="34" rx="16.5" fill="#515656" stroke="#2B3333" stroke-width="5"/>
<rect x="58" y="70" width="88" height="28" rx="14" fill="#464A4A"/>
<mask id="path-5-outside-2_1243_71873" maskUnits="userSpaceOnUse" x="32.4373" y="41.6792" width="134" height="100" fill="black">
<rect fill="white" x="32.4373" y="41.6792" width="134" height="100"/>
<path d="M58.756 79.7068C58.7648 79.738 58.7881 79.763 58.8186 79.7739L78.8832 86.9484C78.9503 86.9724 79.0202 86.9206 79.0173 86.8495C79.0055 86.5608 78.9995 86.2707 78.9995 85.9792C78.9995 78.593 82.7949 72.0937 88.5414 68.3238C88.6359 68.2618 88.7445 68.3832 88.6762 68.4733C86.8538 70.8767 85.7719 73.873 85.7719 77.1217C85.772 85.0346 92.1872 91.4497 100.1 91.4499C108.013 91.4498 114.428 85.0346 114.428 77.1217C114.428 73.8727 113.346 70.8767 111.523 68.4732C111.455 68.3831 111.563 68.2618 111.658 68.3238C117.405 72.0936 121.201 78.5926 121.201 85.9792C121.201 86.2889 121.194 86.5971 121.18 86.9036C121.177 86.9746 121.247 87.0266 121.314 87.003L140.766 80.1624C140.797 80.1516 140.82 80.1265 140.829 80.0952L149.234 50.2219C149.265 50.1116 149.427 50.1317 149.43 50.2462L150.168 76.7171C150.169 76.7849 150.237 76.8312 150.301 76.8087L154.167 75.4491C154.178 75.4451 154.189 75.439 154.198 75.4313L160.398 70.2132C160.476 70.1469 160.592 70.2287 160.556 70.325L158.94 74.6089C158.929 74.6368 158.932 74.6678 158.946 74.6944C159.078 74.9514 159.103 75.2666 158.956 75.5739L157.155 79.3483L149.671 99.2057C149.662 99.2301 149.663 99.2572 149.673 99.2811L152.678 106.146C152.69 106.173 152.689 106.205 152.675 106.231L137.528 135.915C137.511 135.948 137.477 135.969 137.439 135.969H118.301C118.205 135.969 118.164 135.847 118.241 135.789L134.682 123.499C134.707 123.48 134.722 123.451 134.722 123.42L134.834 101.417C134.834 101.408 134.836 101.399 134.838 101.39L135.855 97.7716C135.874 97.7046 135.82 97.6393 135.751 97.6449L116.605 99.173C116.578 99.1752 116.552 99.1886 116.535 99.2101C113.729 102.691 109.841 105.264 105.38 106.413C105.347 106.421 105.321 106.446 105.31 106.478L100.094 121.723C100.063 121.813 99.9357 121.813 99.9048 121.723L94.6681 106.418C94.6573 106.387 94.6314 106.363 94.5992 106.354C90.2016 105.17 86.3724 102.6 83.6084 99.1418C83.5912 99.1203 83.566 99.1067 83.5385 99.1044L63.8854 97.4386C63.8159 97.4327 63.7618 97.4981 63.7807 97.5653L64.1618 98.9202C64.1642 98.9289 64.1655 98.9378 64.1655 98.9468L64.2775 120.95C64.2777 120.981 64.2925 121.011 64.3177 121.029L80.7595 133.32C80.8365 133.377 80.7958 133.5 80.6996 133.5H61.5617C61.5241 133.5 61.4897 133.479 61.4726 133.445L46.3247 103.762C46.3111 103.735 46.3101 103.703 46.3222 103.676L49.3269 96.8114C49.3374 96.7875 49.3381 96.7604 49.3289 96.736L38.4441 67.8552C38.4078 67.7588 38.5233 67.6771 38.6021 67.7435L48.5052 76.0799C48.5143 76.0875 48.5247 76.0935 48.5359 76.0975L48.6479 76.1377C48.712 76.1606 48.7797 76.1143 48.7816 76.0463L49.57 47.7765C49.5732 47.6619 49.7352 47.6419 49.7662 47.7522L58.756 79.7068Z"/>
</mask>
<path d="M58.756 79.7068C58.7648 79.738 58.7881 79.763 58.8186 79.7739L78.8832 86.9484C78.9503 86.9724 79.0202 86.9206 79.0173 86.8495C79.0055 86.5608 78.9995 86.2707 78.9995 85.9792C78.9995 78.593 82.7949 72.0937 88.5414 68.3238C88.6359 68.2618 88.7445 68.3832 88.6762 68.4733C86.8538 70.8767 85.7719 73.873 85.7719 77.1217C85.772 85.0346 92.1872 91.4497 100.1 91.4499C108.013 91.4498 114.428 85.0346 114.428 77.1217C114.428 73.8727 113.346 70.8767 111.523 68.4732C111.455 68.3831 111.563 68.2618 111.658 68.3238C117.405 72.0936 121.201 78.5926 121.201 85.9792C121.201 86.2889 121.194 86.5971 121.18 86.9036C121.177 86.9746 121.247 87.0266 121.314 87.003L140.766 80.1624C140.797 80.1516 140.82 80.1265 140.829 80.0952L149.234 50.2219C149.265 50.1116 149.427 50.1317 149.43 50.2462L150.168 76.7171C150.169 76.7849 150.237 76.8312 150.301 76.8087L154.167 75.4491C154.178 75.4451 154.189 75.439 154.198 75.4313L160.398 70.2132C160.476 70.1469 160.592 70.2287 160.556 70.325L158.94 74.6089C158.929 74.6368 158.932 74.6678 158.946 74.6944C159.078 74.9514 159.103 75.2666 158.956 75.5739L157.155 79.3483L149.671 99.2057C149.662 99.2301 149.663 99.2572 149.673 99.2811L152.678 106.146C152.69 106.173 152.689 106.205 152.675 106.231L137.528 135.915C137.511 135.948 137.477 135.969 137.439 135.969H118.301C118.205 135.969 118.164 135.847 118.241 135.789L134.682 123.499C134.707 123.48 134.722 123.451 134.722 123.42L134.834 101.417C134.834 101.408 134.836 101.399 134.838 101.39L135.855 97.7716C135.874 97.7046 135.82 97.6393 135.751 97.6449L116.605 99.173C116.578 99.1752 116.552 99.1886 116.535 99.2101C113.729 102.691 109.841 105.264 105.38 106.413C105.347 106.421 105.321 106.446 105.31 106.478L100.094 121.723C100.063 121.813 99.9357 121.813 99.9048 121.723L94.6681 106.418C94.6573 106.387 94.6314 106.363 94.5992 106.354C90.2016 105.17 86.3724 102.6 83.6084 99.1418C83.5912 99.1203 83.566 99.1067 83.5385 99.1044L63.8854 97.4386C63.8159 97.4327 63.7618 97.4981 63.7807 97.5653L64.1618 98.9202C64.1642 98.9289 64.1655 98.9378 64.1655 98.9468L64.2775 120.95C64.2777 120.981 64.2925 121.011 64.3177 121.029L80.7595 133.32C80.8365 133.377 80.7958 133.5 80.6996 133.5H61.5617C61.5241 133.5 61.4897 133.479 61.4726 133.445L46.3247 103.762C46.3111 103.735 46.3101 103.703 46.3222 103.676L49.3269 96.8114C49.3374 96.7875 49.3381 96.7604 49.3289 96.736L38.4441 67.8552C38.4078 67.7588 38.5233 67.6771 38.6021 67.7435L48.5052 76.0799C48.5143 76.0875 48.5247 76.0935 48.5359 76.0975L48.6479 76.1377C48.712 76.1606 48.7797 76.1143 48.7816 76.0463L49.57 47.7765C49.5732 47.6619 49.7352 47.6419 49.7662 47.7522L58.756 79.7068Z" fill="#1B4054"/>
<path d="M78.9995 85.9792H73.9995V85.9793L78.9995 85.9792ZM85.7719 77.1217L80.7719 77.1217V77.1218L85.7719 77.1217ZM100.1 91.4499L100.1 96.4499H100.1L100.1 91.4499ZM114.428 77.1217L119.428 77.1218V77.1217L114.428 77.1217ZM121.201 85.9792L126.201 85.9793V85.9792H121.201ZM158.956 75.5739L163.469 77.7279L163.469 77.7276L158.956 75.5739ZM157.155 79.3483L152.642 77.1943L152.551 77.3861L152.476 77.585L157.155 79.3483ZM49.57 47.7765L54.5681 47.9159L49.57 47.7765ZM48.6479 76.1377L50.3352 71.431L48.6479 76.1377ZM48.7816 76.0463L43.7836 75.9069L48.7816 76.0463ZM48.5052 76.0799L45.2853 79.905L48.5052 76.0799ZM48.5359 76.0975L50.2232 71.3908L48.5359 76.0975ZM38.4441 67.8552L43.1229 66.0919L38.4441 67.8552ZM49.3269 96.8114L53.9073 98.8163L49.3269 96.8114ZM49.3289 96.736L54.0076 94.9726L49.3289 96.736ZM46.3247 103.762L50.7783 101.489L46.3247 103.762ZM46.3222 103.676L50.9026 105.681L46.3222 103.676ZM61.4726 133.445L65.9262 131.172L61.4726 133.445ZM80.7595 133.32L83.7531 129.315L80.7595 133.32ZM64.2775 120.95L69.2775 120.924L64.2775 120.95ZM64.3177 121.029L67.3112 117.025V117.025L64.3177 121.029ZM64.1618 98.9202L68.975 97.5664L64.1618 98.9202ZM64.1655 98.9468L69.1655 98.9213L64.1655 98.9468ZM63.8854 97.4386L63.4631 102.421L63.8854 97.4386ZM63.7807 97.5653L68.5939 96.2115L63.7807 97.5653ZM83.6084 99.1418L79.7025 102.263L83.6084 99.1418ZM83.5385 99.1044L83.9608 94.1223V94.1223L83.5385 99.1044ZM94.6681 106.418L99.3988 104.8L94.6681 106.418ZM94.5992 106.354L95.8995 101.526L94.5992 106.354ZM100.094 121.723L104.825 123.342L100.094 121.723ZM99.9048 121.723L104.636 120.104L99.9048 121.723ZM116.605 99.173L117.003 104.157L116.605 99.173ZM116.535 99.2101L120.428 102.348L116.535 99.2101ZM134.682 123.499L137.676 127.504L134.682 123.499ZM134.722 123.42L129.722 123.394L134.722 123.42ZM118.241 135.789L115.248 131.785L118.241 135.789ZM137.528 135.915L133.075 133.642L137.528 135.915ZM152.678 106.146L148.097 108.151L152.678 106.146ZM152.675 106.231L157.129 108.504L152.675 106.231ZM149.671 99.2057L144.992 97.4424L149.671 99.2057ZM149.673 99.2811L154.253 97.2762L149.673 99.2811ZM158.94 74.6089L163.618 76.3734L158.94 74.6089ZM158.946 74.6944L154.497 76.9774L158.946 74.6944ZM154.167 75.4491L152.508 70.7323L154.167 75.4491ZM154.198 75.4313L157.418 79.2566L154.198 75.4313ZM140.766 80.1624L139.107 75.4456L140.766 80.1624ZM140.829 80.0952L145.642 81.4493L140.829 80.0952ZM121.18 86.9036L126.176 87.1208L121.18 86.9036ZM121.314 87.003L119.655 82.2861L121.314 87.003ZM111.523 68.4732L107.539 71.4946L111.523 68.4732ZM111.658 68.3238L114.4 64.143L111.658 68.3238ZM160.398 70.2132L163.617 74.0386L160.398 70.2132ZM160.556 70.325L155.877 68.5606L160.556 70.325ZM105.38 106.413L106.627 111.255L105.38 106.413ZM105.31 106.478L110.041 108.096L105.31 106.478ZM88.5414 68.3238L91.284 72.5045L88.5414 68.3238ZM88.6762 68.4733L92.6604 71.4942L88.6762 68.4733ZM150.168 76.7171L155.166 76.5779L150.168 76.7171ZM150.301 76.8087L148.642 72.0918L150.301 76.8087ZM135.855 97.7716L140.669 99.1246L135.855 97.7716ZM135.751 97.6449L136.149 102.629L135.751 97.6449ZM78.8832 86.9484L77.1998 91.6565L78.8832 86.9484ZM79.0173 86.8495L74.0214 87.053L79.0173 86.8495ZM149.234 50.2219L154.047 51.5761L149.234 50.2219ZM149.43 50.2462L154.428 50.1069L149.43 50.2462ZM134.834 101.417L139.834 101.442L134.834 101.417ZM134.838 101.39L139.652 102.743L134.838 101.39ZM58.8186 79.7739L57.1351 84.482L58.8186 79.7739ZM58.756 79.7068L63.5691 78.3527L58.756 79.7068ZM58.8186 79.7739L57.1351 84.482L77.1998 91.6565L78.8832 86.9484L80.5667 82.2403L60.502 75.0658L58.8186 79.7739ZM79.0173 86.8495L84.0131 86.646C84.0041 86.4237 83.9995 86.2013 83.9995 85.9791L78.9995 85.9792L73.9995 85.9793C73.9995 86.34 74.007 86.698 74.0214 87.053L79.0173 86.8495ZM78.9995 85.9792H83.9995C83.9995 80.3485 86.8862 75.3896 91.284 72.5045L88.5414 68.3238L85.7987 64.1432C78.7036 68.7978 73.9995 76.8375 73.9995 85.9792H78.9995ZM88.6762 68.4733L84.692 65.4523C82.2338 68.6942 80.7719 72.7442 80.7719 77.1217L85.7719 77.1217L90.7719 77.1218C90.7719 75.0017 91.4738 73.0591 92.6604 71.4942L88.6762 68.4733ZM85.7719 77.1217L80.7719 77.1218C80.7721 87.796 89.4258 96.4497 100.1 96.4499L100.1 91.4499L100.1 86.4499C94.9486 86.4498 90.772 82.2732 90.7719 77.1217L85.7719 77.1217ZM100.1 91.4499L100.1 96.4499C110.774 96.4498 119.428 87.796 119.428 77.1218L114.428 77.1217L109.428 77.1217C109.428 82.2733 105.251 86.4498 100.1 86.4499L100.1 91.4499ZM114.428 77.1217L119.428 77.1217C119.428 72.7432 117.965 68.6935 115.507 65.4519L111.523 68.4732L107.539 71.4946C108.726 73.0599 109.428 75.0021 109.428 77.1218L114.428 77.1217ZM111.658 68.3238L108.915 72.5046C113.314 75.3897 116.201 80.3484 116.201 85.9792H121.201H126.201C126.201 76.8368 121.496 68.7974 114.4 64.143L111.658 68.3238ZM121.201 85.9792L116.201 85.9791C116.201 86.213 116.195 86.4488 116.185 86.6865L121.18 86.9036L126.176 87.1208C126.192 86.7455 126.201 86.3648 126.201 85.9793L121.201 85.9792ZM121.314 87.003L122.973 91.7198L142.425 84.8792L140.766 80.1624L139.107 75.4456L119.655 82.2861L121.314 87.003ZM140.829 80.0952L145.642 81.4493L154.047 51.5761L149.234 50.2219L144.421 48.8678L136.016 78.741L140.829 80.0952ZM149.43 50.2462L144.432 50.3855L145.169 76.8564L150.168 76.7171L155.166 76.5779L154.428 50.1069L149.43 50.2462ZM150.301 76.8087L151.959 81.5255L155.826 80.1659L154.167 75.4491L152.508 70.7323L148.642 72.0918L150.301 76.8087ZM154.198 75.4313L157.418 79.2566L163.617 74.0386L160.398 70.2132L157.178 66.3878L150.978 71.6059L154.198 75.4313ZM160.556 70.325L155.877 68.5606L154.262 72.8444L158.94 74.6089L163.618 76.3734L165.234 72.0895L160.556 70.325ZM158.946 74.6944L154.497 76.9774C153.972 75.9534 153.869 74.6259 154.444 73.4202L158.956 75.5739L163.469 77.7276C164.338 75.9074 164.183 73.9494 163.394 72.4114L158.946 74.6944ZM158.956 75.5739L154.444 73.4199L152.642 77.1943L157.155 79.3483L161.667 81.5023L163.469 77.7279L158.956 75.5739ZM157.155 79.3483L152.476 77.585L144.992 97.4424L149.671 99.2057L154.35 100.969L161.833 81.1116L157.155 79.3483ZM149.673 99.2811L145.093 101.286L148.097 108.151L152.678 106.146L157.258 104.141L154.253 97.2762L149.673 99.2811ZM152.675 106.231L148.222 103.959L133.075 133.642L137.528 135.915L141.982 138.187L157.129 108.504L152.675 106.231ZM137.439 135.969V130.969H118.301V135.969V140.969H137.439V135.969ZM118.241 135.789L121.235 139.794L137.676 127.504L134.682 123.499L131.689 119.494L115.248 131.785L118.241 135.789ZM134.722 123.42L139.722 123.445L139.834 101.442L134.834 101.417L129.834 101.391L129.722 123.394L134.722 123.42ZM134.838 101.39L139.652 102.743L140.669 99.1246L135.855 97.7716L131.042 96.4186L130.025 100.037L134.838 101.39ZM135.751 97.6449L135.353 92.6607L116.207 94.1888L116.605 99.173L117.003 104.157L136.149 102.629L135.751 97.6449ZM116.535 99.2101L112.642 96.0722C110.494 98.7376 107.524 100.697 104.133 101.571L105.38 106.413L106.627 111.255C112.158 109.83 116.964 106.645 120.428 102.348L116.535 99.2101ZM105.31 106.478L100.579 104.859L95.3633 120.105L100.094 121.723L104.825 123.342L110.041 108.096L105.31 106.478ZM99.9048 121.723L104.636 120.104L99.3988 104.8L94.6681 106.418L89.9374 108.037L95.1741 123.342L99.9048 121.723ZM94.5992 106.354L95.8995 101.526C92.554 100.625 89.6293 98.6668 87.5143 96.0203L83.6084 99.1418L79.7025 102.263C83.1155 106.534 87.8492 109.714 93.2989 111.182L94.5992 106.354ZM83.5385 99.1044L83.9608 94.1223L64.3077 92.4565L63.8854 97.4386L63.4631 102.421L83.1162 104.087L83.5385 99.1044ZM63.7807 97.5653L58.9675 98.9191L59.3486 100.274L64.1618 98.9202L68.975 97.5664L68.5939 96.2115L63.7807 97.5653ZM64.1655 98.9468L59.1656 98.9722L59.2776 120.975L64.2775 120.95L69.2775 120.924L69.1655 98.9213L64.1655 98.9468ZM64.3177 121.029L61.3241 125.034L77.7659 137.324L80.7595 133.32L83.7531 129.315L67.3112 117.025L64.3177 121.029ZM80.6996 133.5V128.5H61.5617V133.5V138.5H80.6996V133.5ZM61.4726 133.445L65.9262 131.172L50.7783 101.489L46.3247 103.762L41.8711 106.034L57.019 135.718L61.4726 133.445ZM46.3222 103.676L50.9026 105.681L53.9073 98.8163L49.3269 96.8114L44.7465 94.8065L41.7417 101.671L46.3222 103.676ZM49.3289 96.736L54.0076 94.9726L43.1229 66.0919L38.4441 67.8552L33.7654 69.6186L44.6501 98.4993L49.3289 96.736ZM38.6021 67.7435L35.3821 71.5686L45.2853 79.905L48.5052 76.0799L51.7252 72.2548L41.8221 63.9183L38.6021 67.7435ZM48.5359 76.0975L46.8486 80.8042L46.9606 80.8444L48.6479 76.1377L50.3352 71.431L50.2232 71.3908L48.5359 76.0975ZM48.7816 76.0463L53.7797 76.1857L54.5681 47.9159L49.57 47.7765L44.572 47.6371L43.7836 75.9069L48.7816 76.0463ZM49.7662 47.7522L44.9531 49.1063L53.9428 81.0609L58.756 79.7068L63.5691 78.3527L54.5794 46.3981L49.7662 47.7522ZM49.57 47.7765L54.5681 47.9159C54.4116 53.5277 46.4735 54.5106 44.9531 49.1063L49.7662 47.7522L54.5794 46.3981C52.9969 40.7732 44.7348 41.7962 44.572 47.6371L49.57 47.7765ZM48.6479 76.1377L46.9606 80.8444C50.2265 82.0152 53.683 79.6538 53.7797 76.1857L48.7816 76.0463L43.7836 75.9069C43.8765 72.5749 47.1974 70.3061 50.3352 71.431L48.6479 76.1377ZM48.5052 76.0799L45.2853 79.905C45.7488 80.2952 46.2782 80.5997 46.8486 80.8042L48.5359 76.0975L50.2232 71.3908C50.7712 71.5873 51.2799 71.8798 51.7252 72.2548L48.5052 76.0799ZM38.4441 67.8552L43.1229 66.0919C44.9028 70.8145 39.243 74.8187 35.3821 71.5686L38.6021 67.7435L41.8221 63.9183C37.8036 60.5355 31.9128 64.7031 33.7654 69.6186L38.4441 67.8552ZM49.3269 96.8114L53.9073 98.8163C54.4409 97.5972 54.4769 96.2179 54.0076 94.9726L49.3289 96.736L44.6501 98.4993C44.1992 97.303 44.2338 95.9777 44.7465 94.8065L49.3269 96.8114ZM46.3247 103.762L50.7783 101.489C51.4458 102.797 51.4915 104.335 50.9026 105.681L46.3222 103.676L41.7417 101.671C41.1288 103.071 41.1763 104.673 41.8711 106.034L46.3247 103.762ZM61.5617 133.5V128.5C63.4031 128.5 65.0892 129.532 65.9262 131.172L61.4726 133.445L57.019 135.718C57.8902 137.425 59.6451 138.5 61.5617 138.5V133.5ZM80.7595 133.32L77.7659 137.324C73.991 134.503 75.9867 128.5 80.6996 128.5V133.5V138.5C85.6049 138.5 87.6821 132.252 83.7531 129.315L80.7595 133.32ZM64.2775 120.95L59.2776 120.975C59.2857 122.574 60.0434 124.077 61.3241 125.034L64.3177 121.029L67.3112 117.025C68.5417 117.944 69.2696 119.388 69.2775 120.924L64.2775 120.95ZM64.1618 98.9202L59.3486 100.274C59.2294 99.8503 59.1679 99.4124 59.1656 98.9722L64.1655 98.9468L69.1655 98.9213C69.1631 98.4632 69.0991 98.0075 68.975 97.5664L64.1618 98.9202ZM63.8854 97.4386L64.3077 92.4565C60.7597 92.1557 58.0033 95.4913 58.9675 98.9191L63.7807 97.5653L68.5939 96.2115C69.5203 99.5049 66.872 102.71 63.4631 102.421L63.8854 97.4386ZM83.6084 99.1418L87.5143 96.0203C86.6441 94.9314 85.3614 94.241 83.9608 94.1223L83.5385 99.1044L83.1162 104.087C81.7705 103.972 80.5383 103.309 79.7025 102.263L83.6084 99.1418ZM94.6681 106.418L99.3988 104.8C98.8462 103.185 97.5278 101.965 95.8995 101.526L94.5992 106.354L93.2989 111.182C91.735 110.761 90.4684 109.589 89.9374 108.037L94.6681 106.418ZM100.094 121.723L95.3633 120.105C96.875 115.686 103.124 115.686 104.636 120.104L99.9048 121.723L95.1741 123.342C96.7476 127.94 103.251 127.94 104.825 123.342L100.094 121.723ZM116.605 99.173L116.207 94.1888C114.805 94.3008 113.518 94.986 112.642 96.0722L116.535 99.2101L120.428 102.348C119.587 103.391 118.35 104.05 117.003 104.157L116.605 99.173ZM134.682 123.499L137.676 127.504C138.957 126.547 139.714 125.044 139.722 123.445L134.722 123.42L129.722 123.394C129.73 121.858 130.458 120.414 131.689 119.494L134.682 123.499ZM118.301 135.969V130.969C123.014 130.969 125.01 136.972 121.235 139.794L118.241 135.789L115.248 131.785C111.319 134.722 113.396 140.969 118.301 140.969V135.969ZM137.528 135.915L133.075 133.642C133.912 132.002 135.598 130.969 137.439 130.969V135.969V140.969C139.356 140.969 141.111 139.895 141.982 138.187L137.528 135.915ZM152.678 106.146L148.097 108.151C147.508 106.805 147.554 105.267 148.222 103.959L152.675 106.231L157.129 108.504C157.824 107.142 157.871 105.541 157.258 104.141L152.678 106.146ZM149.671 99.2057L144.992 97.4424C144.523 98.6876 144.559 100.067 145.093 101.286L149.673 99.2811L154.253 97.2762C154.766 98.4475 154.801 99.7727 154.35 100.969L149.671 99.2057ZM158.94 74.6089L154.262 72.8444C153.711 74.3049 153.896 75.8047 154.497 76.9774L158.946 74.6944L163.394 72.4114C163.969 73.531 164.148 74.9688 163.618 76.3734L158.94 74.6089ZM154.167 75.4491L155.826 80.1659C156.407 79.9615 156.946 79.6534 157.418 79.2566L154.198 75.4313L150.978 71.6059C151.431 71.2246 151.95 70.9286 152.508 70.7323L154.167 75.4491ZM140.766 80.1624L142.425 84.8792C143.992 84.3282 145.192 83.0484 145.642 81.4493L140.829 80.0952L136.016 78.741C136.448 77.2046 137.602 75.975 139.107 75.4456L140.766 80.1624ZM121.18 86.9036L116.185 86.6865C116.029 90.2679 119.542 92.9263 122.973 91.7198L121.314 87.003L119.655 82.2861C122.952 81.1269 126.325 83.6813 126.176 87.1208L121.18 86.9036ZM111.523 68.4732L115.507 65.4519C117.16 67.6314 116.541 70.2448 115.248 71.6839C113.932 73.1479 111.293 74.064 108.915 72.5046L111.658 68.3238L114.4 64.143C111.928 62.5216 109.187 63.4673 107.811 64.9991C106.456 66.5058 105.818 69.225 107.539 71.4946L111.523 68.4732ZM160.398 70.2132L163.617 74.0386C159.756 77.2887 154.096 73.2832 155.877 68.5606L160.556 70.325L165.234 72.0895C167.088 67.1741 161.197 63.0051 157.178 66.3878L160.398 70.2132ZM105.38 106.413L104.133 101.571C102.481 101.997 101.138 103.225 100.579 104.859L105.31 106.478L110.041 108.096C109.504 109.666 108.214 110.846 106.627 111.255L105.38 106.413ZM88.5414 68.3238L91.284 72.5045C88.9068 74.064 86.2673 73.148 84.9514 71.6841C83.658 70.2452 83.0393 67.6319 84.692 65.4523L88.6762 68.4733L92.6604 71.4942C94.3814 69.2245 93.7426 66.5055 92.3883 64.9989C91.0115 63.4673 88.2705 62.5216 85.7987 64.1432L88.5414 68.3238ZM150.168 76.7171L145.169 76.8564C145.266 80.3115 148.699 82.6722 151.959 81.5255L150.301 76.8087L148.642 72.0918C151.775 70.9901 155.073 73.2582 155.166 76.5779L150.168 76.7171ZM135.855 97.7716L140.669 99.1246C141.629 95.7073 138.892 92.3783 135.353 92.6607L135.751 97.6449L136.149 102.629C132.749 102.9 130.119 99.702 131.042 96.4186L135.855 97.7716ZM78.8832 86.9484L77.1998 91.6565C80.63 92.883 84.1592 90.2325 84.0131 86.646L79.0173 86.8495L74.0214 87.053C73.8811 83.6087 77.2705 81.0617 80.5667 82.2403L78.8832 86.9484ZM149.234 50.2219L154.047 51.5761C152.526 56.9804 144.588 55.9973 144.432 50.3855L149.43 50.2462L154.428 50.1069C154.265 44.266 146.003 43.2428 144.421 48.8678L149.234 50.2219ZM134.834 101.417L139.834 101.442C139.832 101.882 139.771 102.319 139.652 102.743L134.838 101.39L130.025 100.037C129.901 100.478 129.837 100.933 129.834 101.391L134.834 101.417ZM58.8186 79.7739L60.502 75.0658C61.9964 75.6002 63.1394 76.8251 63.5691 78.3527L58.756 79.7068L53.9428 81.0609C54.3901 82.6508 55.5798 83.9258 57.1351 84.482L58.8186 79.7739Z" fill="#1A2A33" mask="url(#path-5-outside-2_1243_71873)"/>
<path d="M100 115L105.196 99.25H94.8038L100 115Z" fill="#1F5C7C"/>
<path d="M50.1148 83.5415C49.4818 82.7807 50.2203 81.661 51.1689 81.9434L99.781 96.4158C99.9657 96.4707 100.162 96.4712 100.347 96.417L150.227 81.8119C151.138 81.5451 151.874 82.5793 151.322 83.3523L143.5 94.3191C143.33 94.5571 143.065 94.7089 142.774 94.7346L100.155 98.492C100.094 98.4973 100.034 98.4972 99.9735 98.4915L59.8066 94.7326C59.5432 94.708 59.3003 94.58 59.1311 94.3766L50.1148 83.5415Z" fill="#1F5C7C"/>
<path d="M116.004 77.9277C117.342 80.4442 118.101 83.3156 118.101 86.3643C118.1 96.3052 110.042 104.364 100.101 104.364C90.1597 104.364 82.1008 96.3051 82.1006 86.3643C82.1006 83.3157 82.8597 80.4442 84.1973 77.9277C84.1339 78.5064 84.1006 79.0948 84.1006 79.6904C84.1008 88.5267 91.2643 95.6903 100.101 95.6904C108.937 95.6904 116.1 88.5268 116.101 79.6904C116.101 79.0948 116.067 78.5065 116.004 77.9277Z" fill="#1F5C7C"/>
<path d="M116.004 88.127C115.126 96.1338 108.341 102.364 100.101 102.364C91.8601 102.364 85.076 96.1337 84.1982 88.127C87.2226 93.8157 93.2086 97.6903 100.101 97.6904C106.993 97.6904 112.98 93.8158 116.004 88.127Z" fill="#4D8DBA"/>
<circle cx="100" cy="77" r="5" fill="#4D8DBA" stroke="#1A2A33" stroke-width="4"/>
<path d="M54.5 94L57.5 98.5H61.5V127.5L50 105.5L54.5 94Z" fill="#1F5C7C"/>
<path d="M146.5 95.5L142 99.5H138V128.5L149.5 106.5L146.5 95.5Z" fill="#1F5C7C"/>
</svg>
