<svg width="200" height="200" viewBox="0 0 200 200" fill="none" xmlns="http://www.w3.org/2000/svg">
<path d="M127.549 52.1221C128.596 51.5644 129.89 51.819 130.647 52.7314L140.063 64.0703C140.801 64.9583 140.834 66.2357 140.145 67.1611L129.464 81.4941C128.992 82.1272 128.249 82.5 127.459 82.5H67.1035C66.0821 82.5 65.1634 81.8786 64.7832 80.9307L59.0234 66.5703C58.6573 65.6573 58.8607 64.6139 59.543 63.9053L70.4346 52.5957C71.2414 51.7582 72.5193 51.588 73.5176 52.1846L95.2939 65.1973C97.5503 66.5456 100.348 66.6149 102.668 65.3789L127.549 52.1221Z" fill="#81361E" stroke="#4C2416" stroke-width="5"/>
<rect x="49.5" y="60.5" width="101" height="34" rx="16.5" fill="#73311C" stroke="#4C2416" stroke-width="5"/>
<rect x="58" y="66" width="86" height="33" rx="8" fill="#5D2A19"/>
<path d="M152.952 87.6777C153.693 87.6428 154.212 88.3987 153.915 89.0781L144.711 110.087C144.528 110.504 144.087 110.745 143.637 110.674L130.231 108.537C130.079 108.513 129.923 108.524 129.776 108.569L99.7926 117.905C99.5958 117.967 99.3843 117.966 99.1881 117.902L70.2369 108.576C70.0812 108.526 69.9156 108.515 69.7545 108.544L57.9098 110.664C57.4767 110.742 57.0438 110.527 56.8434 110.136L46.111 89.1387C45.7612 88.4545 46.2819 87.6478 47.0494 87.6846L99.4899 90.2002L152.952 87.6777Z" fill="black" fill-opacity="0.25"/>
<mask id="path-5-outside-1_1239_1093" maskUnits="userSpaceOnUse" x="35.291" y="45.9048" width="129" height="82" fill="black">
<rect fill="white" x="35.291" y="45.9048" width="129" height="82"/>
<path d="M152.209 51.5529C152.575 50.6286 153.91 50.7139 154.117 51.675L158.567 72.3117C158.597 72.4532 158.596 72.601 158.564 72.7434L158.28 73.9875C158.644 74.2569 158.811 74.7631 158.591 75.2238L157.465 77.5812L153.428 95.3742L147.141 120.172C146.894 121.144 145.535 121.22 145.221 120.279L138.321 99.6281C138.288 99.5275 138.271 99.4214 138.271 99.3146V97.7092L115.838 99.5002V102.639C115.838 103.054 115.58 103.426 115.192 103.573L100.692 109.066C100.463 109.152 100.212 109.152 99.9835 109.066L85.4835 103.573C85.0949 103.426 84.8381 103.054 84.838 102.639V99.593L60.6095 97.5393V100.315C60.6095 100.421 60.5923 100.527 60.5587 100.628L53.6593 121.279C53.3447 122.22 51.9859 122.144 51.7394 121.172L45.4522 96.3742L40.3155 73.7424C40.2833 73.6001 40.2831 73.4531 40.3136 73.3117L44.7628 52.675C44.97 51.714 46.3047 51.6278 46.671 52.5519L52.4874 67.2355C52.55 67.3934 52.6518 67.5331 52.7823 67.6428L60.8761 74.4426C60.9433 74.4991 61.002 74.564 61.0519 74.634L84.838 75.6818V72.5949C84.838 72.3411 84.9341 72.0966 85.1075 71.9113L99.2853 56.7639C99.6744 56.348 100.332 56.3402 100.731 56.7473L115.553 71.9084C115.735 72.0952 115.838 72.3463 115.838 72.6076V75.6037L137.65 74.6584L137.639 74.2531C137.629 73.944 137.764 73.6449 138.003 73.4435L146.098 66.6437C146.228 66.5341 146.329 66.3934 146.392 66.2355L152.209 51.5529Z"/>
</mask>
<path d="M152.209 51.5529C152.575 50.6286 153.91 50.7139 154.117 51.675L158.567 72.3117C158.597 72.4532 158.596 72.601 158.564 72.7434L158.28 73.9875C158.644 74.2569 158.811 74.7631 158.591 75.2238L157.465 77.5812L153.428 95.3742L147.141 120.172C146.894 121.144 145.535 121.22 145.221 120.279L138.321 99.6281C138.288 99.5275 138.271 99.4214 138.271 99.3146V97.7092L115.838 99.5002V102.639C115.838 103.054 115.58 103.426 115.192 103.573L100.692 109.066C100.463 109.152 100.212 109.152 99.9835 109.066L85.4835 103.573C85.0949 103.426 84.8381 103.054 84.838 102.639V99.593L60.6095 97.5393V100.315C60.6095 100.421 60.5923 100.527 60.5587 100.628L53.6593 121.279C53.3447 122.22 51.9859 122.144 51.7394 121.172L45.4522 96.3742L40.3155 73.7424C40.2833 73.6001 40.2831 73.4531 40.3136 73.3117L44.7628 52.675C44.97 51.714 46.3047 51.6278 46.671 52.5519L52.4874 67.2355C52.55 67.3934 52.6518 67.5331 52.7823 67.6428L60.8761 74.4426C60.9433 74.4991 61.002 74.564 61.0519 74.634L84.838 75.6818V72.5949C84.838 72.3411 84.9341 72.0966 85.1075 71.9113L99.2853 56.7639C99.6744 56.348 100.332 56.3402 100.731 56.7473L115.553 71.9084C115.735 72.0952 115.838 72.3463 115.838 72.6076V75.6037L137.65 74.6584L137.639 74.2531C137.629 73.944 137.764 73.6449 138.003 73.4435L146.098 66.6437C146.228 66.5341 146.329 66.3934 146.392 66.2355L152.209 51.5529Z" fill="#81361E"/>
<path d="M152.209 51.5529L156.858 53.3947L156.858 53.3945L152.209 51.5529ZM154.117 51.675L149.23 52.7288V52.7288L154.117 51.675ZM158.567 72.3117L163.454 71.2579L163.454 71.2579L158.567 72.3117ZM158.564 72.7434L163.439 73.8531L163.44 73.85L158.564 72.7434ZM158.28 73.9875L153.405 72.8777L152.68 76.0617L155.304 78.0054L158.28 73.9875ZM158.591 75.2238L163.103 77.3788L163.103 77.3775L158.591 75.2238ZM157.465 77.5812L152.953 75.4263L152.712 75.9302L152.589 76.4749L157.465 77.5812ZM153.428 95.3742L158.274 96.603L158.29 96.542L158.304 96.4806L153.428 95.3742ZM147.141 120.172L151.987 121.401V121.401L147.141 120.172ZM145.221 120.279L149.963 118.694L149.963 118.694L145.221 120.279ZM138.321 99.6281L133.579 101.212L133.579 101.213L138.321 99.6281ZM138.271 99.3146H133.271V99.3148L138.271 99.3146ZM138.271 97.7092H143.271V92.2941L137.873 92.725L138.271 97.7092ZM115.838 99.5002L115.44 94.516L110.838 94.8835V99.5002H115.838ZM115.838 102.639L120.838 102.64V102.639H115.838ZM115.192 103.573L113.421 98.8976L113.42 98.8976L115.192 103.573ZM100.692 109.066L102.461 113.742L102.463 113.741L100.692 109.066ZM99.9835 109.066L98.2124 113.741L98.2125 113.741L99.9835 109.066ZM85.4835 103.573L83.7119 108.249L83.7124 108.249L85.4835 103.573ZM84.838 102.639H79.838V102.64L84.838 102.639ZM84.838 99.593H89.838V94.9989L85.2603 94.6108L84.838 99.593ZM60.6095 97.5393L61.0318 92.5571L55.6095 92.0975V97.5393H60.6095ZM60.6095 100.315L65.6095 100.315V100.315H60.6095ZM60.5587 100.628L65.301 102.213L65.301 102.212L60.5587 100.628ZM53.6593 121.279L58.4015 122.863L58.4016 122.863L53.6593 121.279ZM51.7394 121.172L46.8927 122.401L46.8927 122.401L51.7394 121.172ZM45.4522 96.3742L40.5763 97.4809L40.5902 97.5421L40.6056 97.603L45.4522 96.3742ZM40.3155 73.7424L35.4392 74.8475L35.4395 74.8491L40.3155 73.7424ZM40.3136 73.3117L35.4259 72.2579L35.4259 72.2579L40.3136 73.3117ZM44.7628 52.675L49.6505 53.7288V53.7288L44.7628 52.675ZM46.671 52.5519L51.3196 50.7106L51.3191 50.7095L46.671 52.5519ZM52.4874 67.2355L47.8388 69.0769L47.8393 69.0781L52.4874 67.2355ZM52.7823 67.6428L55.9986 63.8145L55.9985 63.8144L52.7823 67.6428ZM60.8761 74.4426L57.6598 78.2709L57.6599 78.271L60.8761 74.4426ZM61.0519 74.634L56.9807 77.5366L58.3961 79.5218L60.8318 79.6291L61.0519 74.634ZM84.838 75.6818L84.6179 80.677L89.838 80.9069V75.6818H84.838ZM84.838 72.5949H79.838V72.5949H84.838ZM85.1075 71.9113L81.4571 68.4946L81.457 68.4946L85.1075 71.9113ZM99.2853 56.7639L102.936 60.1806L102.936 60.1806L99.2853 56.7639ZM100.731 56.7473L104.306 53.2519L104.304 53.2503L100.731 56.7473ZM115.553 71.9084L119.128 68.4133L119.128 68.413L115.553 71.9084ZM115.838 72.6076H110.838V72.6076H115.838ZM115.838 75.6037H110.838V80.8251L116.054 80.599L115.838 75.6037ZM137.65 74.6584L137.867 79.6537L142.791 79.4403L142.648 74.5139L137.65 74.6584ZM137.639 74.2531L142.637 74.1086L142.636 74.1L137.639 74.2531ZM138.003 73.4435L134.787 69.6151L134.785 69.6167L138.003 73.4435ZM146.098 66.6437L149.314 70.4722L149.314 70.4721L146.098 66.6437ZM146.392 66.2355L151.04 68.078L151.04 68.0773L146.392 66.2355ZM152.209 51.5529L156.858 53.3945C156.158 55.1606 154.424 55.9939 152.904 55.8967C151.365 55.7983 149.655 54.7035 149.23 52.7288L154.117 51.675L159.005 50.6212C157.666 44.4129 149.59 44.5886 147.561 49.7114L152.209 51.5529ZM154.117 51.675L149.23 52.7288L153.679 73.3655L158.567 72.3117L163.454 71.2579L159.005 50.6212L154.117 51.675ZM158.567 72.3117L153.679 73.3655C153.553 72.784 153.561 72.1944 153.688 71.6368L158.564 72.7434L163.44 73.85C163.631 73.0076 163.641 72.1224 163.454 71.2579L158.567 72.3117ZM158.564 72.7434L153.688 71.6336L153.405 72.8777L158.28 73.9875L163.156 75.0973L163.439 73.8531L158.564 72.7434ZM158.28 73.9875L155.304 78.0054C153.909 76.9721 153.182 74.9486 154.079 73.0701L158.591 75.2238L163.103 77.3775C164.44 74.5776 163.379 71.5418 161.256 69.9696L158.28 73.9875ZM158.591 75.2238L154.079 73.0689L152.953 75.4263L157.465 77.5812L161.977 79.7362L163.103 77.3788L158.591 75.2238ZM157.465 77.5812L152.589 76.4749L148.552 94.2679L153.428 95.3742L158.304 96.4806L162.341 78.6876L157.465 77.5812ZM153.428 95.3742L148.581 94.1454L142.294 118.943L147.141 120.172L151.987 121.401L158.274 96.603L153.428 95.3742ZM147.141 120.172L142.294 118.943C142.769 117.069 144.417 116.034 145.929 115.951C147.46 115.866 149.313 116.747 149.963 118.694L145.221 120.279L140.478 121.863C142.512 127.949 150.621 126.79 151.987 121.401L147.141 120.172ZM145.221 120.279L149.963 118.694L143.064 98.0437L138.321 99.6281L133.579 101.213L140.478 121.863L145.221 120.279ZM138.321 99.6281L143.064 98.0438C143.202 98.4584 143.271 98.8875 143.271 99.3144L138.271 99.3146L133.271 99.3148C133.271 99.9552 133.373 100.597 133.579 101.212L138.321 99.6281ZM138.271 99.3146H143.271V97.7092H138.271H133.271V99.3146H138.271ZM138.271 97.7092L137.873 92.725L115.44 94.516L115.838 99.5002L116.236 104.484L138.669 102.693L138.271 97.7092ZM115.838 99.5002H110.838V102.639H115.838H120.838V99.5002H115.838ZM115.838 102.639L110.838 102.638C110.838 100.968 111.873 99.4835 113.421 98.8976L115.192 103.573L116.962 108.249C119.287 107.369 120.837 105.141 120.838 102.64L115.838 102.639ZM115.192 103.573L113.42 98.8976L98.9204 104.39L100.692 109.066L102.463 113.741L116.963 108.249L115.192 103.573ZM100.692 109.066L98.922 104.389C99.833 104.044 100.84 104.044 101.754 104.39L99.9835 109.066L98.2125 113.741C99.5828 114.26 101.094 114.259 102.461 113.742L100.692 109.066ZM99.9835 109.066L101.755 104.39L87.2546 98.8976L85.4835 103.573L83.7124 108.249L98.2124 113.741L99.9835 109.066ZM85.4835 103.573L87.2551 98.8978C88.8088 99.4865 89.8376 100.975 89.838 102.638L84.838 102.639L79.838 102.64C79.8385 105.134 81.381 107.366 83.7119 108.249L85.4835 103.573ZM84.838 102.639H89.838V99.593H84.838H79.838V102.639H84.838ZM84.838 99.593L85.2603 94.6108L61.0318 92.5571L60.6095 97.5393L60.1872 102.521L84.4157 104.575L84.838 99.593ZM60.6095 97.5393H55.6095V100.315H60.6095H65.6095V97.5393H60.6095ZM60.6095 100.315L55.6095 100.314C55.6095 99.8875 55.6778 99.4584 55.8164 99.0438L60.5587 100.628L65.301 102.212C65.5068 101.597 65.6094 100.955 65.6095 100.315L60.6095 100.315ZM60.5587 100.628L55.8164 99.0437L48.917 119.694L53.6593 121.279L58.4016 122.863L65.301 102.213L60.5587 100.628ZM53.6593 121.279L48.9171 119.694C49.5675 117.747 51.4199 116.866 52.9506 116.951C54.4631 117.034 56.1109 118.069 56.586 119.943L51.7394 121.172L46.8927 122.401C48.2593 127.791 56.3681 128.948 58.4015 122.863L53.6593 121.279ZM51.7394 121.172L56.586 119.943L50.2989 95.1454L45.4522 96.3742L40.6056 97.603L46.8927 122.401L51.7394 121.172ZM45.4522 96.3742L50.3282 95.2675L45.1915 72.6357L40.3155 73.7424L35.4395 74.8491L40.5763 97.4809L45.4522 96.3742ZM40.3155 73.7424L45.1919 72.6372C45.3229 73.2154 45.322 73.8054 45.2013 74.3655L40.3136 73.3117L35.4259 72.2579C35.2441 73.1009 35.2437 73.9848 35.4392 74.8475L40.3155 73.7424ZM40.3136 73.3117L45.2013 74.3655L49.6505 53.7288L44.7628 52.675L39.8751 51.6212L35.4259 72.2579L40.3136 73.3117ZM44.7628 52.675L49.6505 53.7288C49.225 55.7023 47.5172 56.797 45.9791 56.8962C44.4591 56.9942 42.7234 56.1618 42.0228 54.3944L46.671 52.5519L51.3191 50.7095C49.285 45.5778 41.2113 45.4237 39.8751 51.6212L44.7628 52.675ZM46.671 52.5519L42.0224 54.3933L47.8388 69.0769L52.4874 67.2355L57.136 65.3942L51.3196 50.7106L46.671 52.5519ZM52.4874 67.2355L47.8393 69.0781C48.2143 70.0242 48.8161 70.841 49.5662 71.4711L52.7823 67.6428L55.9985 63.8144C56.4876 64.2253 56.8856 64.7625 57.1355 65.393L52.4874 67.2355ZM52.7823 67.6428L49.5661 71.471L57.6598 78.2709L60.8761 74.4426L64.0923 70.6143L55.9986 63.8145L52.7823 67.6428ZM60.8761 74.4426L57.6599 78.271C57.3791 78.035 57.1558 77.7823 56.9807 77.5366L61.0519 74.634L65.123 71.7313C64.8482 71.3458 64.5075 70.9631 64.0922 70.6142L60.8761 74.4426ZM61.0519 74.634L60.8318 79.6291L84.6179 80.677L84.838 75.6818L85.058 70.6867L61.2719 69.6388L61.0519 74.634ZM84.838 75.6818H89.838V72.5949H84.838H79.838V75.6818H84.838ZM84.838 72.5949H89.838C89.838 73.6037 89.456 74.5823 88.758 75.328L85.1075 71.9113L81.457 68.4946C80.4122 69.6109 79.838 71.0786 79.838 72.5949H84.838ZM85.1075 71.9113L88.758 75.3281L102.936 60.1806L99.2853 56.7639L95.6348 53.3471L81.4571 68.4946L85.1075 71.9113ZM99.2853 56.7639L102.936 60.1806C101.382 61.8403 98.7535 61.8759 97.1569 60.2442L100.731 56.7473L104.304 53.2503C101.911 50.8046 97.9666 50.8558 95.6348 53.3471L99.2853 56.7639ZM100.731 56.7473L97.1553 60.2426L111.978 75.4037L115.553 71.9084L119.128 68.413L104.306 53.2519L100.731 56.7473ZM115.553 71.9084L111.977 75.4035C111.248 74.6578 110.838 73.6551 110.838 72.6076H115.838H120.838C120.838 71.0376 120.223 69.5327 119.128 68.4133L115.553 71.9084ZM115.838 72.6076H110.838V75.6037H115.838H120.838V72.6076H115.838ZM115.838 75.6037L116.054 80.599L137.867 79.6537L137.65 74.6584L137.434 69.6631L115.621 70.6084L115.838 75.6037ZM137.65 74.6584L142.648 74.5139L142.637 74.1086L137.639 74.2531L132.641 74.3976L132.653 74.8029L137.65 74.6584ZM137.639 74.2531L142.636 74.1C142.674 75.3354 142.141 76.4972 141.221 77.2704L138.003 73.4435L134.785 69.6167C133.387 70.7926 132.584 72.5526 132.641 74.4063L137.639 74.2531ZM138.003 73.4435L141.219 77.272L149.314 70.4722L146.098 66.6437L142.882 62.8153L134.787 69.6151L138.003 73.4435ZM146.098 66.6437L149.314 70.4721C150.085 69.8241 150.675 68.9985 151.04 68.078L146.392 66.2355L141.744 64.3931C141.983 63.7882 142.371 63.2441 142.882 62.8154L146.098 66.6437ZM146.392 66.2355L151.04 68.0773L156.858 53.3947L152.209 51.5529L147.561 49.7112L141.743 64.3938L146.392 66.2355Z" fill="#4C2416" mask="url(#path-5-outside-1_1239_1093)"/>
<path d="M42.8838 75.5507C42.8515 75.4084 42.8505 75.2613 42.881 75.1198L46.1052 60.1652C46.3124 59.2041 47.6474 59.1185 48.0136 60.0429L52.1632 70.5174C52.2145 70.6468 52.2918 70.7647 52.3905 70.8637L59.8475 78.3467C59.948 78.4476 60.0265 78.5681 60.0777 78.7004L65.5962 92.9566C65.812 93.514 65.4999 94.1254 64.9261 94.2696L58.7959 95.8099C58.525 95.878 58.2975 96.057 58.1689 96.3035L54.2687 103.774C53.8973 104.485 52.869 104.468 52.4927 103.744L46.8555 92.9007C46.8152 92.8234 46.7852 92.7414 46.7659 92.6567L42.8838 75.5507Z" fill="#AB4B2B"/>
<path d="M45.6073 78.1411L47.8142 87.8653C47.8334 87.95 47.8635 88.032 47.9037 88.1094L51.6463 95.3083C52.1577 96.219 53.5387 95.7903 53.4106 94.7606L51.0006 75.3818C50.9905 75.3002 50.9699 75.2199 50.9395 75.1431L49.0619 70.4036C48.6957 69.4792 47.3607 69.5648 47.1535 70.5259L45.6046 77.7102C45.574 77.8517 45.575 77.9988 45.6073 78.1411Z" fill="#D66440"/>
<path d="M158.702 75.1513C158.735 75.0089 158.736 74.8619 158.705 74.7204L155.481 59.7658C155.274 58.8047 153.939 58.7191 153.573 59.6434L149.423 70.118C149.372 70.2474 149.294 70.3653 149.196 70.4643L141.73 77.9561C141.635 78.0513 141.56 78.164 141.509 78.2877L135.468 92.8711C135.225 93.456 135.573 94.1057 136.19 94.2196L142.746 95.4307C143.043 95.4855 143.296 95.6718 143.435 95.9376L147.317 103.374C147.689 104.085 148.717 104.068 149.093 103.345L154.731 92.5013C154.771 92.424 154.801 92.342 154.82 92.2573L158.702 75.1513Z" fill="#AB4B2B"/>
<path d="M56 78L99.6346 79.8219L144 78L135.814 94.2618L99.6346 97L65.5504 94.2618L56 78Z" fill="#AB4B2B"/>
<path d="M113.694 73.705C113.89 73.8935 114 74.1534 114 74.4249L114 100.253C114 100.696 113.709 101.086 113.284 101.212L100.784 104.916C100.599 104.971 100.401 104.971 100.216 104.916L87.7159 101.212C87.2913 101.086 87 100.696 87 100.253L87 74.4032C87 74.1445 87.1002 73.8959 87.2797 73.7095L99.3059 61.2208C99.6892 60.8228 100.323 60.8111 100.72 61.1946L113.694 73.705Z" fill="#AB4B2B"/>
<path d="M109.755 76.7178C109.913 76.8998 110 77.1328 110 77.374L110 96.0247C110 96.4518 109.729 96.8318 109.325 96.9705L100.825 99.8885C100.614 99.9608 100.386 99.9608 100.175 99.8885L91.6753 96.9705C91.2713 96.8318 91 96.4518 91 96.0247L91 77.3448C91 77.1214 91.0748 76.9044 91.2125 76.7285L99.2531 66.4544C99.6404 65.9595 100.383 65.9403 100.795 66.4145L109.755 76.7178Z" fill="#D66440"/>
<path d="M63 81L100.5 83.5L138.5 81L131 91L100.5 94L70 91L63 81Z" fill="#D66440"/>
<path d="M156.393 77.9605L154.186 87.6847C154.167 87.7693 154.137 87.8514 154.096 87.9287L150.354 95.1276C149.842 96.0384 148.461 95.6097 148.589 94.5799L150.999 75.2011C151.01 75.1195 151.03 75.0393 151.061 74.9624L152.938 70.2229C153.304 69.2986 154.639 69.3842 154.847 70.3453L156.395 77.5295C156.426 77.671 156.425 77.8181 156.393 77.9605Z" fill="#D66440"/>
</svg>
