<svg width="200" height="200" viewBox="0 0 200 200" fill="none" xmlns="http://www.w3.org/2000/svg">
<mask id="path-1-inside-1_1246_193" fill="white">
<path d="M45.5293 40.3516C45.9147 39.0139 47.6701 38.6291 48.8213 39.6299L63.9102 52.748L74.8418 51.335L77.4688 42.2188C77.8543 40.8813 79.6096 40.4963 80.7607 41.4971L89.8467 49.3965L99.9814 48.0879C100.095 48.0732 100.212 48.0729 100.326 48.0879L110.791 49.4668L118.503 41.3232C119.46 40.3124 121.195 40.7774 121.758 42.1953L125.405 51.3945L136.671 52.8799L151.38 40.0918C152.531 39.0911 154.287 39.4758 154.672 40.8135L158.995 55.8242L159.062 55.833C159.063 55.8332 159.064 55.8338 159.065 55.834L159.121 55.8408C159.285 55.8625 159.437 55.9133 159.566 55.9863C159.857 56.134 160.041 56.363 160.041 56.6172V56.7158C160.041 56.7189 160.042 56.7225 160.042 56.7256V59.457L160.252 60.1855C160.395 60.6811 160.311 61.2172 160.042 61.6777L160.043 68.7646L160.042 69.2656C160.042 69.4865 159.905 69.6873 159.684 69.832C159.489 69.9771 159.231 70.0664 158.947 70.0664L150.57 70.0654L142.91 76.7266C141.759 77.7272 140.003 77.3425 139.618 76.0049L137.907 70.0654H129.21L114.744 85.3438C113.787 86.3547 112.052 85.8897 111.489 84.4717L105.776 70.0654H98.1035L94.3652 83.041C93.9799 84.3788 92.2244 84.7636 91.0732 83.7627L75.3184 70.0654H62.1592L60.582 75.543C60.1966 76.8806 58.4412 77.2655 57.29 76.2646L50.1611 70.0654L40.2656 70.0664C40.2611 70.0664 40.2565 70.0655 40.252 70.0654H40.1377C39.8539 70.0653 39.5957 69.9763 39.4014 69.8311C39.1805 69.6863 39.043 69.4864 39.043 69.2656L39.0439 64.0098L39.043 56.7285C39.043 56.7231 39.0438 56.7173 39.0439 56.7119V56.6201C39.044 56.368 39.2249 56.14 39.5117 55.9922C39.6439 55.9166 39.7986 55.8645 39.9668 55.8428L41.1094 55.6943L45.5293 40.3516Z"/>
</mask>
<path d="M45.5293 40.3516C45.9147 39.0139 47.6701 38.6291 48.8213 39.6299L63.9102 52.748L74.8418 51.335L77.4688 42.2188C77.8543 40.8813 79.6096 40.4963 80.7607 41.4971L89.8467 49.3965L99.9814 48.0879C100.095 48.0732 100.212 48.0729 100.326 48.0879L110.791 49.4668L118.503 41.3232C119.46 40.3124 121.195 40.7774 121.758 42.1953L125.405 51.3945L136.671 52.8799L151.38 40.0918C152.531 39.0911 154.287 39.4758 154.672 40.8135L158.995 55.8242L159.062 55.833C159.063 55.8332 159.064 55.8338 159.065 55.834L159.121 55.8408C159.285 55.8625 159.437 55.9133 159.566 55.9863C159.857 56.134 160.041 56.363 160.041 56.6172V56.7158C160.041 56.7189 160.042 56.7225 160.042 56.7256V59.457L160.252 60.1855C160.395 60.6811 160.311 61.2172 160.042 61.6777L160.043 68.7646L160.042 69.2656C160.042 69.4865 159.905 69.6873 159.684 69.832C159.489 69.9771 159.231 70.0664 158.947 70.0664L150.57 70.0654L142.91 76.7266C141.759 77.7272 140.003 77.3425 139.618 76.0049L137.907 70.0654H129.21L114.744 85.3438C113.787 86.3547 112.052 85.8897 111.489 84.4717L105.776 70.0654H98.1035L94.3652 83.041C93.9799 84.3788 92.2244 84.7636 91.0732 83.7627L75.3184 70.0654H62.1592L60.582 75.543C60.1966 76.8806 58.4412 77.2655 57.29 76.2646L50.1611 70.0654L40.2656 70.0664C40.2611 70.0664 40.2565 70.0655 40.252 70.0654H40.1377C39.8539 70.0653 39.5957 69.9763 39.4014 69.8311C39.1805 69.6863 39.043 69.4864 39.043 69.2656L39.0439 64.0098L39.043 56.7285C39.043 56.7231 39.0438 56.7173 39.0439 56.7119V56.6201C39.044 56.368 39.2249 56.14 39.5117 55.9922C39.6439 55.9166 39.7986 55.8645 39.9668 55.8428L41.1094 55.6943L45.5293 40.3516Z" fill="#632727"/>
<path d="M45.5293 40.3516L40.7247 38.9673L40.7247 38.9675L45.5293 40.3516ZM48.8213 39.6299L52.1018 35.8565L52.1017 35.8564L48.8213 39.6299ZM63.9102 52.748L60.6296 56.5214L62.3242 57.9947L64.5512 57.7068L63.9102 52.748ZM74.8418 51.335L75.4828 56.2937L78.7376 55.873L79.6463 52.7194L74.8418 51.335ZM77.4688 42.2188L72.6644 40.8337L72.6642 40.8343L77.4688 42.2188ZM80.7607 41.4971L77.4802 45.2704V45.2704L80.7607 41.4971ZM89.8467 49.3965L86.5661 53.1698L88.2604 54.6428L90.487 54.3553L89.8467 49.3965ZM99.9814 48.0879L99.3412 43.129L99.3412 43.1291L99.9814 48.0879ZM100.326 48.0879L100.979 43.1307L100.979 43.1307L100.326 48.0879ZM110.791 49.4668L110.138 54.4239L112.667 54.7572L114.421 52.9048L110.791 49.4668ZM118.503 41.3232L122.133 44.7613L122.134 44.7609L118.503 41.3232ZM121.758 42.1953L126.406 40.3524L126.406 40.3518L121.758 42.1953ZM125.405 51.3945L120.757 53.2374L121.84 55.9677L124.752 56.3516L125.405 51.3945ZM136.671 52.8799L136.017 57.837L138.251 58.1315L139.951 56.6532L136.671 52.8799ZM151.38 40.0918L148.1 36.3182L148.099 36.3185L151.38 40.0918ZM154.672 40.8135L159.477 39.4297L159.477 39.4295L154.672 40.8135ZM158.995 55.8242L154.19 57.208L155.096 60.3517L158.339 60.781L158.995 55.8242ZM159.062 55.833L158.405 60.7898L158.416 60.7911L158.426 60.7924L159.062 55.833ZM159.065 55.834L158.401 60.7896L158.428 60.7933L158.456 60.7967L159.065 55.834ZM159.121 55.8408L159.775 50.8837L159.753 50.8808L159.731 50.8781L159.121 55.8408ZM159.566 55.9863L157.116 60.3447L157.209 60.3969L157.304 60.4452L159.566 55.9863ZM160.041 56.6172H165.041V56.6163L160.041 56.6172ZM160.041 56.7158H155.041V56.7478L155.041 56.7797L160.041 56.7158ZM160.042 56.7256L155.042 56.7248V56.7256H160.042ZM160.042 59.457H155.042V60.1632L155.238 60.8417L160.042 59.457ZM160.252 60.1855L165.057 58.8021L165.056 58.8009L160.252 60.1855ZM160.042 61.6777L155.726 59.154L155.042 60.3236L155.042 61.6784L160.042 61.6777ZM160.043 68.7646L165.043 68.7744V68.764L160.043 68.7646ZM160.042 69.2656L155.042 69.2559V69.2656L160.042 69.2656ZM159.684 69.832L156.944 65.6492L156.816 65.7331L156.693 65.8248L159.684 69.832ZM158.947 70.0664L158.947 75.0664H158.947L158.947 70.0664ZM150.57 70.0654L150.571 65.0654L148.701 65.0652L147.289 66.2924L150.57 70.0654ZM142.91 76.7266L146.19 80.5003L146.191 80.4996L142.91 76.7266ZM139.618 76.0049L134.814 77.3889L134.814 77.3889L139.618 76.0049ZM137.907 70.0654L142.712 68.6814L141.67 65.0654H137.907V70.0654ZM129.21 70.0654V65.0654H127.058L125.579 66.6278L129.21 70.0654ZM114.744 85.3438L111.113 81.9061L111.113 81.9061L114.744 85.3438ZM111.489 84.4717L116.137 82.6286L116.137 82.6285L111.489 84.4717ZM105.776 70.0654L110.424 68.2223L109.172 65.0654H105.776V70.0654ZM98.1035 70.0654V65.0654H94.3407L93.2989 68.6812L98.1035 70.0654ZM94.3652 83.041L89.5607 81.6568L89.5606 81.657L94.3652 83.041ZM91.0732 83.7627L94.3538 79.9894L94.3538 79.9894L91.0732 83.7627ZM75.3184 70.0654L78.5989 66.2921L77.188 65.0654H75.3184V70.0654ZM62.1592 70.0654V65.0654H58.3957L57.3544 68.682L62.1592 70.0654ZM60.582 75.543L65.3866 76.9274L65.3868 76.9264L60.582 75.543ZM57.29 76.2646L54.0091 80.0376L54.0095 80.038L57.29 76.2646ZM50.1611 70.0654L53.4421 66.2924L52.0308 65.0652L50.1606 65.0654L50.1611 70.0654ZM40.2656 70.0664L40.2143 75.0661L40.2402 75.0664L40.2661 75.0664L40.2656 70.0664ZM40.252 70.0654L40.3721 65.0669L40.3121 65.0654H40.252V70.0654ZM40.1377 70.0654L40.1362 75.0654H40.1377V70.0654ZM39.4014 69.8311L42.3946 65.826L42.2709 65.7335L42.1417 65.6489L39.4014 69.8311ZM39.043 69.2656L34.043 69.2647V69.2663L39.043 69.2656ZM39.0439 64.0098L44.0439 64.0107V64.0091L39.0439 64.0098ZM39.043 56.7285L34.043 56.7268L34.043 56.7292L39.043 56.7285ZM39.0439 56.7119L44.0428 56.8208L44.0439 56.7664V56.7119H39.0439ZM39.0439 56.6201L34.0439 56.6196V56.6201H39.0439ZM39.5117 55.9922L41.8021 60.4368L41.8984 60.3871L41.9925 60.3334L39.5117 55.9922ZM39.9668 55.8428L40.6086 60.8014L40.611 60.8011L39.9668 55.8428ZM41.1094 55.6943L41.7535 60.6527L45.0061 60.2301L45.914 57.0784L41.1094 55.6943ZM45.5293 40.3516L50.3339 41.7358C49.9538 43.0549 48.8801 43.7959 47.9588 43.9979C47.0682 44.1931 46.1761 43.9555 45.5409 43.4034L48.8213 39.6299L52.1017 35.8564C48.8761 33.0524 42.3616 33.2859 40.7247 38.9673L45.5293 40.3516ZM48.8213 39.6299L45.5408 43.4032L60.6296 56.5214L63.9102 52.748L67.1907 48.9747L52.1018 35.8565L48.8213 39.6299ZM63.9102 52.748L64.5512 57.7068L75.4828 56.2937L74.8418 51.335L74.2008 46.3762L63.2692 47.7893L63.9102 52.748ZM74.8418 51.335L79.6463 52.7194L82.2733 43.6032L77.4688 42.2188L72.6642 40.8343L70.0373 49.9505L74.8418 51.335ZM77.4688 42.2188L82.2731 43.6038C81.8929 44.9224 80.8196 45.6631 79.8986 45.8651C79.008 46.0603 78.1156 45.8228 77.4802 45.2704L80.7607 41.4971L84.0413 37.7238C80.8146 34.9184 74.3016 35.1547 72.6644 40.8337L77.4688 42.2188ZM80.7607 41.4971L77.4802 45.2704L86.5661 53.1698L89.8467 49.3965L93.1272 45.6232L84.0413 37.7238L80.7607 41.4971ZM89.8467 49.3965L90.487 54.3553L100.622 53.0467L99.9814 48.0879L99.3412 43.1291L89.2064 44.4376L89.8467 49.3965ZM99.9814 48.0879L100.622 53.0467C100.319 53.0858 100.001 53.0883 99.6732 53.0451L100.326 48.0879L100.979 43.1307C100.423 43.0575 99.8716 43.0606 99.3412 43.129L99.9814 48.0879ZM100.326 48.0879L99.673 53.045L110.138 54.4239L110.791 49.4668L111.444 44.5096L100.979 43.1307L100.326 48.0879ZM110.791 49.4668L114.421 52.9048L122.133 44.7613L118.503 41.3232L114.872 37.8852L107.161 46.0288L110.791 49.4668ZM118.503 41.3232L122.134 44.7609C121.19 45.7574 119.896 45.9224 118.984 45.6781C118.103 45.442 117.42 44.8207 117.11 44.0388L121.758 42.1953L126.406 40.3518C124.83 36.3793 118.937 33.5919 114.872 37.8856L118.503 41.3232ZM121.758 42.1953L117.11 44.0382L120.757 53.2374L125.405 51.3945L130.053 49.5516L126.406 40.3524L121.758 42.1953ZM125.405 51.3945L124.752 56.3516L136.017 57.837L136.671 52.8799L137.324 47.9228L126.059 46.4374L125.405 51.3945ZM136.671 52.8799L139.951 56.6532L154.66 43.8651L151.38 40.0918L148.099 36.3185L133.39 49.1066L136.671 52.8799ZM151.38 40.0918L154.66 43.8654C154.025 44.4174 153.133 44.655 152.243 44.4598C151.321 44.2578 150.247 43.5168 149.867 42.1975L154.672 40.8135L159.477 39.4295C157.84 33.7471 151.325 33.5149 148.1 36.3182L151.38 40.0918ZM154.672 40.8135L149.867 42.1973L154.19 57.208L158.995 55.8242L163.8 54.4404L159.477 39.4297L154.672 40.8135ZM158.995 55.8242L158.339 60.781L158.405 60.7898L159.062 55.833L159.718 50.8762L159.651 50.8674L158.995 55.8242ZM159.062 55.833L158.426 60.7924C158.345 60.782 158.271 60.7706 158.207 60.7595C158.143 60.7484 158.085 60.737 158.035 60.7264C157.984 60.7158 157.939 60.7055 157.9 60.6961C157.861 60.6868 157.826 60.678 157.796 60.6702C157.767 60.6625 157.741 60.6554 157.72 60.6495C157.698 60.6436 157.68 60.6384 157.667 60.6344C157.653 60.6304 157.642 60.6272 157.635 60.6251C157.632 60.6241 157.629 60.6233 157.627 60.6227C157.625 60.6222 157.624 60.6218 157.624 60.6218C157.624 60.6217 157.625 60.622 157.626 60.6224C157.627 60.6228 157.63 60.6235 157.633 60.6244C157.639 60.6262 157.649 60.6292 157.662 60.633C157.675 60.6367 157.692 60.6417 157.712 60.6474C157.732 60.6531 157.757 60.66 157.786 60.6675C157.814 60.6751 157.848 60.6838 157.886 60.693C157.924 60.7022 157.969 60.7125 158.018 60.723C158.067 60.7336 158.124 60.7449 158.187 60.7562C158.249 60.7674 158.321 60.7789 158.401 60.7896L159.065 55.834L159.73 50.8784C159.809 50.889 159.881 50.9006 159.944 50.9117C160.006 50.9229 160.063 50.9342 160.112 50.9448C160.161 50.9553 160.205 50.9655 160.243 50.9747C160.281 50.9839 160.315 50.9925 160.343 51C160.372 51.0076 160.396 51.0144 160.416 51.02C160.437 51.0257 160.454 51.0306 160.466 51.0343C160.479 51.038 160.489 51.041 160.495 51.0427C160.5 51.0442 160.505 51.0456 160.503 51.0452C160.503 51.0451 160.501 51.0447 160.5 51.0442C160.498 51.0436 160.495 51.0427 160.491 51.0417C160.484 51.0396 160.473 51.0363 160.459 51.0323C160.445 51.0282 160.427 51.023 160.406 51.017C160.384 51.0111 160.358 51.004 160.329 50.9962C160.299 50.9884 160.264 50.9795 160.225 50.9701C160.185 50.9607 160.14 50.9504 160.089 50.9397C160.039 50.9291 159.981 50.9178 159.916 50.9066C159.852 50.8954 159.779 50.884 159.697 50.8736L159.062 55.833ZM159.065 55.834L158.456 60.7967L158.512 60.8035L159.121 55.8408L159.731 50.8781L159.675 50.8713L159.065 55.834ZM159.121 55.8408L158.468 60.7979C158.025 60.7396 157.563 60.596 157.116 60.3447L159.566 55.9863L162.017 51.628C161.31 51.2306 160.546 50.9854 159.775 50.8837L159.121 55.8408ZM159.566 55.9863L157.304 60.4452C156.69 60.1335 155.041 58.9807 155.041 56.618L160.041 56.6172L165.041 56.6163C165.041 53.7454 163.025 52.1345 161.829 51.5275L159.566 55.9863ZM160.041 56.6172H155.041V56.7158H160.041H165.041V56.6172H160.041ZM160.041 56.7158L155.041 56.7797C155.043 56.8991 155.049 57.0023 155.055 57.0842C155.061 57.1661 155.068 57.2349 155.073 57.2852C155.079 57.3352 155.084 57.3752 155.088 57.3976C155.089 57.4091 155.09 57.4184 155.091 57.4235C155.092 57.4276 155.092 57.4323 155.092 57.43C155.092 57.4296 155.091 57.4242 155.09 57.4173C155.089 57.4101 155.088 57.3989 155.086 57.3852C155.082 57.3585 155.077 57.3145 155.071 57.2598C155.065 57.205 155.058 57.1316 155.052 57.0447C155.047 56.9578 155.042 56.8496 155.042 56.7248L160.042 56.7256L165.042 56.7264C165.042 56.6008 165.037 56.4918 165.032 56.4041C165.026 56.3164 165.019 56.2422 165.013 56.1866C165.007 56.1311 165.001 56.0862 164.998 56.0587C164.994 56.0327 164.991 56.0115 164.991 56.0114C164.991 56.0086 164.991 56.013 164.992 56.0167C164.992 56.0213 164.994 56.0302 164.995 56.0413C164.998 56.0629 165.003 56.102 165.009 56.1513C165.015 56.2007 165.022 56.2687 165.028 56.3498C165.034 56.4309 165.039 56.5333 165.041 56.6519L160.041 56.7158ZM160.042 56.7256H155.042V59.457H160.042H165.042V56.7256H160.042ZM160.042 59.457L155.238 60.8417L155.448 61.5702L160.252 60.1855L165.056 58.8009L164.846 58.0724L160.042 59.457ZM160.252 60.1855L155.447 61.569C155.174 60.6189 155.377 59.7509 155.726 59.154L160.042 61.6777L164.358 64.2014C165.246 62.6836 165.616 60.7434 165.057 58.8021L160.252 60.1855ZM160.042 61.6777L155.042 61.6784L155.043 68.7653L160.043 68.7646L165.043 68.764L165.042 61.677L160.042 61.6777ZM160.043 68.7646L155.043 68.7549L155.042 69.2559L160.042 69.2656L165.042 69.2754L165.043 68.7744L160.043 68.7646ZM160.042 69.2656L155.042 69.2656C155.042 67.2511 156.286 66.0805 156.944 65.6492L159.684 69.832L162.423 74.0148C163.524 73.294 165.042 71.7218 165.042 69.2656L160.042 69.2656ZM159.684 69.832L156.693 65.8248C157.396 65.3007 158.195 65.0664 158.947 65.0664L158.947 70.0664L158.947 75.0664C160.267 75.0664 161.583 74.6534 162.674 73.8393L159.684 69.832ZM158.947 70.0664L158.948 65.0664L150.571 65.0654L150.57 70.0654L150.57 75.0654L158.947 75.0664L158.947 70.0664ZM150.57 70.0654L147.289 66.2924L139.629 72.9536L142.91 76.7266L146.191 80.4996L153.851 73.8384L150.57 70.0654ZM142.91 76.7266L139.63 72.9528C140.265 72.4008 141.157 72.1633 142.047 72.3585C142.969 72.5604 144.043 73.3014 144.423 74.6208L139.618 76.0049L134.814 77.3889C136.45 83.0714 142.965 83.3032 146.19 80.5003L142.91 76.7266ZM139.618 76.0049L144.423 74.6208L142.712 68.6814L137.907 70.0654L133.103 71.4495L134.814 77.3889L139.618 76.0049ZM137.907 70.0654V65.0654H129.21V70.0654V75.0654H137.907V70.0654ZM129.21 70.0654L125.579 66.6278L111.113 81.9061L114.744 85.3438L118.375 88.7814L132.841 73.5031L129.21 70.0654ZM114.744 85.3438L111.113 81.9061C112.057 80.9098 113.351 80.7446 114.263 80.9889C115.144 81.2251 115.827 81.8466 116.137 82.6286L111.489 84.4717L106.841 86.3148C108.417 90.2885 114.31 93.0748 118.375 88.7814L114.744 85.3438ZM111.489 84.4717L116.137 82.6285L110.424 68.2223L105.776 70.0654L101.128 71.9086L106.841 86.3148L111.489 84.4717ZM105.776 70.0654V65.0654H98.1035V70.0654V75.0654H105.776V70.0654ZM98.1035 70.0654L93.2989 68.6812L89.5607 81.6568L94.3652 83.041L99.1698 84.4252L102.908 71.4496L98.1035 70.0654ZM94.3652 83.041L89.5606 81.657C89.9405 80.338 91.0143 79.5968 91.9358 79.3948C92.8265 79.1995 93.7187 79.4372 94.3538 79.9894L91.0732 83.7627L87.7927 87.536C91.0182 90.3404 97.5332 90.1069 99.1699 84.425L94.3652 83.041ZM91.0732 83.7627L94.3538 79.9894L78.5989 66.2921L75.3184 70.0654L72.0378 73.8388L87.7927 87.536L91.0732 83.7627ZM75.3184 70.0654V65.0654H62.1592V70.0654V75.0654H75.3184V70.0654ZM62.1592 70.0654L57.3544 68.682L55.7772 74.1595L60.582 75.543L65.3868 76.9264L66.964 71.4489L62.1592 70.0654ZM60.582 75.543L55.7775 74.1586C56.1575 72.8397 57.2311 72.0987 58.1524 71.8967C59.0431 71.7015 59.9354 71.9391 60.5706 72.4913L57.29 76.2646L54.0095 80.038C57.2355 82.8427 63.7497 82.6082 65.3866 76.9274L60.582 75.543ZM57.29 76.2646L60.571 72.4917L53.4421 66.2924L50.1611 70.0654L46.8802 73.8384L54.0091 80.0376L57.29 76.2646ZM50.1611 70.0654L50.1606 65.0654L40.2651 65.0664L40.2656 70.0664L40.2661 75.0664L50.1616 75.0654L50.1611 70.0654ZM40.2656 70.0664L40.317 65.0667C40.3869 65.0674 40.449 65.0695 40.5017 65.072C40.5542 65.0745 40.5994 65.0775 40.6348 65.0802C40.67 65.0828 40.6987 65.0853 40.717 65.087C40.7345 65.0886 40.7482 65.09 40.7489 65.09C40.7517 65.0903 40.7475 65.0899 40.7461 65.0897C40.7433 65.0895 40.7378 65.0889 40.7308 65.0883C40.7172 65.087 40.6928 65.0847 40.6624 65.0822C40.6316 65.0797 40.591 65.0767 40.5431 65.0739C40.4951 65.0711 40.4375 65.0684 40.3721 65.0669L40.252 70.0654L40.1318 75.064C40.0059 75.061 39.9053 75.0537 39.8483 75.049C39.819 75.0466 39.7958 75.0445 39.7833 75.0433C39.7733 75.0423 39.762 75.0412 39.7686 75.0419C39.7705 75.042 39.7854 75.0435 39.804 75.0452C39.8234 75.047 39.8533 75.0496 39.8896 75.0523C39.9608 75.0577 40.0744 75.0647 40.2143 75.0661L40.2656 70.0664ZM40.252 70.0654V65.0654H40.1377V70.0654V75.0654H40.252V70.0654ZM40.1377 70.0654L40.1392 65.0654C40.8867 65.0656 41.688 65.2979 42.3946 65.826L39.4014 69.8311L36.4081 73.8361C37.5033 74.6547 38.8212 75.065 40.1362 75.0654L40.1377 70.0654ZM39.4014 69.8311L42.1417 65.6489C42.7908 66.0742 44.0427 67.243 44.043 69.2649L39.043 69.2656L34.043 69.2663C34.0433 71.7297 35.5702 73.2985 36.661 74.0132L39.4014 69.8311ZM39.043 69.2656L44.043 69.2666L44.0439 64.0107L39.0439 64.0098L34.0439 64.0088L34.043 69.2647L39.043 69.2656ZM39.0439 64.0098L44.0439 64.0091L44.043 56.7278L39.043 56.7285L34.043 56.7292L34.0439 64.0104L39.0439 64.0098ZM39.043 56.7285L44.043 56.7303C44.0429 56.7953 44.0416 56.8526 44.04 56.9003C44.0383 56.948 44.0362 56.9889 44.0343 57.0207C44.0324 57.0525 44.0306 57.0785 44.0293 57.0956C44.0281 57.1121 44.027 57.1249 44.0268 57.1274C44.0268 57.1278 44.0267 57.1282 44.0267 57.1284C44.0267 57.1285 44.0267 57.1286 44.0267 57.1286C44.0267 57.1287 44.0267 57.1287 44.0267 57.1287C44.0267 57.129 44.0267 57.1282 44.0268 57.1275C44.0269 57.1261 44.0272 57.1221 44.0276 57.1172C44.0284 57.1076 44.0299 57.0884 44.0316 57.0644C44.0333 57.0401 44.0355 57.0067 44.0375 56.9669C44.0395 56.9271 44.0415 56.8776 44.0428 56.8208L39.0439 56.7119L34.0451 56.603C34.0475 56.4954 34.0529 56.4104 34.0559 56.3676C34.0575 56.345 34.0589 56.3272 34.0595 56.319C34.0599 56.3146 34.0608 56.3035 34.06 56.3131C34.0597 56.3169 34.0585 56.3311 34.0572 56.3491C34.0558 56.3675 34.0539 56.3949 34.0519 56.4281C34.0481 56.4918 34.043 56.5969 34.043 56.7268L39.043 56.7285ZM39.0439 56.7119H44.0439V56.6201H39.0439H34.0439V56.7119H39.0439ZM39.0439 56.6201L44.0439 56.6206C44.0437 58.9622 42.4214 60.1176 41.8021 60.4368L39.5117 55.9922L37.2214 51.5476C36.0284 52.1623 34.0442 53.7738 34.0439 56.6196L39.0439 56.6201ZM39.5117 55.9922L41.9925 60.3334C41.5302 60.5975 41.0554 60.7436 40.6086 60.8014L39.9668 55.8428L39.325 50.8841C38.5417 50.9855 37.7576 51.2357 37.031 51.651L39.5117 55.9922ZM39.9668 55.8428L40.611 60.8011L41.7535 60.6527L41.1094 55.6943L40.4652 50.736L39.3226 50.8844L39.9668 55.8428ZM41.1094 55.6943L45.914 57.0784L50.3339 41.7357L45.5293 40.3516L40.7247 38.9675L36.3048 54.3102L41.1094 55.6943Z" fill="#471E1E" mask="url(#path-1-inside-1_1246_193)"/>
<rect x="49.5" y="60.5" width="101" height="34" rx="16.5" fill="#515656" stroke="#2B3333" stroke-width="5"/>
<rect x="58" y="70" width="88" height="28" rx="14" fill="#464A4A"/>
<mask id="path-5-outside-2_1246_193" maskUnits="userSpaceOnUse" x="25.2563" y="46.9851" width="148" height="95" fill="black">
<rect fill="white" x="25.2563" y="46.9851" width="148" height="95"/>
<path d="M31.3696 54.74C30.874 53.7486 32.1172 52.8346 32.9419 53.5837L56.2993 74.8162C56.4315 74.9364 56.5294 75.0888 56.5835 75.2576L58.5093 81.2732L85.5708 92.4275L93.7446 84.2537L99.0249 61.2468C99.2625 60.2117 100.737 60.2117 100.974 61.2468L106.255 84.2556L114.555 92.5554L140.845 81.8972L142.917 75.4304C142.972 75.2615 143.07 75.1093 143.203 74.989L166.559 53.7566C167.384 53.007 168.627 53.9205 168.131 54.9119L155.603 79.9685C155.303 80.569 155.667 81.2762 156.33 81.3796L161.467 82.1824C162.292 82.3113 162.589 83.3267 161.967 83.8923L149.212 95.4802C149.074 95.6055 148.974 95.766 148.921 95.9431L145.042 109.034C145.014 109.125 145.001 109.22 145 109.315V120.901C145 121.078 145.048 121.252 145.139 121.403L150.129 129.718C150.601 130.504 149.822 131.465 148.94 131.183L139.838 128.28C139.62 128.21 139.383 128.217 139.167 128.3L118.534 136.177C117.445 136.593 116.655 135.164 117.586 134.463L134.821 121.475C135.074 121.284 135.223 120.988 135.225 120.676L135.324 101.192L111.534 106.465L105.72 112.278L100.946 126.235C100.637 127.137 99.3617 127.137 99.0532 126.235L94.2788 112.279L88.1987 106.199L64.1743 100.548L64.2759 120.503C64.2775 120.815 64.4277 121.112 64.6812 121.302L81.9155 134.29C82.8463 134.991 82.0563 136.42 80.9673 136.005L60.3003 128.115C60.1049 128.04 59.892 128.027 59.6909 128.077L50.4995 130.375C49.614 130.596 48.8971 129.62 49.3892 128.862L54.3433 121.241C54.4458 121.083 54.5005 120.899 54.5005 120.71V109.143C54.5005 109.048 54.4867 108.953 54.4595 108.861L50.5864 95.7908C50.5303 95.6014 50.4185 95.431 50.2661 95.3025L36.2896 83.5105C35.6132 82.9396 35.9406 81.8562 36.8159 81.7683L43.0806 81.1423C43.7716 81.0731 44.1725 80.3448 43.8618 79.7234L31.3696 54.74ZM130.514 53.0085C130.585 52.9512 130.69 53.0119 130.675 53.1023L128.253 68.4587C128.25 68.4832 128.237 68.5057 128.217 68.5212L116.129 78.2966C116.058 78.3541 115.953 78.2941 115.967 78.2039L118.39 62.8464C118.394 62.8223 118.406 62.8004 118.425 62.7849L130.514 53.0085ZM68.9663 53.1003C68.9524 53.0101 69.0573 52.9501 69.1284 53.0076L81.2163 62.783C81.2356 62.7985 81.2486 62.821 81.2524 62.8455L83.6743 78.2019C83.6886 78.2924 83.5834 78.3532 83.5122 78.2957L71.4243 68.5193C71.4052 68.5038 71.3921 68.4821 71.3882 68.4578L68.9663 53.1003Z"/>
</mask>
<path d="M31.3696 54.74C30.874 53.7486 32.1172 52.8346 32.9419 53.5837L56.2993 74.8162C56.4315 74.9364 56.5294 75.0888 56.5835 75.2576L58.5093 81.2732L85.5708 92.4275L93.7446 84.2537L99.0249 61.2468C99.2625 60.2117 100.737 60.2117 100.974 61.2468L106.255 84.2556L114.555 92.5554L140.845 81.8972L142.917 75.4304C142.972 75.2615 143.07 75.1093 143.203 74.989L166.559 53.7566C167.384 53.007 168.627 53.9205 168.131 54.9119L155.603 79.9685C155.303 80.569 155.667 81.2762 156.33 81.3796L161.467 82.1824C162.292 82.3113 162.589 83.3267 161.967 83.8923L149.212 95.4802C149.074 95.6055 148.974 95.766 148.921 95.9431L145.042 109.034C145.014 109.125 145.001 109.22 145 109.315V120.901C145 121.078 145.048 121.252 145.139 121.403L150.129 129.718C150.601 130.504 149.822 131.465 148.94 131.183L139.838 128.28C139.62 128.21 139.383 128.217 139.167 128.3L118.534 136.177C117.445 136.593 116.655 135.164 117.586 134.463L134.821 121.475C135.074 121.284 135.223 120.988 135.225 120.676L135.324 101.192L111.534 106.465L105.72 112.278L100.946 126.235C100.637 127.137 99.3617 127.137 99.0532 126.235L94.2788 112.279L88.1987 106.199L64.1743 100.548L64.2759 120.503C64.2775 120.815 64.4277 121.112 64.6812 121.302L81.9155 134.29C82.8463 134.991 82.0563 136.42 80.9673 136.005L60.3003 128.115C60.1049 128.04 59.892 128.027 59.6909 128.077L50.4995 130.375C49.614 130.596 48.8971 129.62 49.3892 128.862L54.3433 121.241C54.4458 121.083 54.5005 120.899 54.5005 120.71V109.143C54.5005 109.048 54.4867 108.953 54.4595 108.861L50.5864 95.7908C50.5303 95.6014 50.4185 95.431 50.2661 95.3025L36.2896 83.5105C35.6132 82.9396 35.9406 81.8562 36.8159 81.7683L43.0806 81.1423C43.7716 81.0731 44.1725 80.3448 43.8618 79.7234L31.3696 54.74ZM130.514 53.0085C130.585 52.9512 130.69 53.0119 130.675 53.1023L128.253 68.4587C128.25 68.4832 128.237 68.5057 128.217 68.5212L116.129 78.2966C116.058 78.3541 115.953 78.2941 115.967 78.2039L118.39 62.8464C118.394 62.8223 118.406 62.8004 118.425 62.7849L130.514 53.0085ZM68.9663 53.1003C68.9524 53.0101 69.0573 52.9501 69.1284 53.0076L81.2163 62.783C81.2356 62.7985 81.2486 62.821 81.2524 62.8455L83.6743 78.2019C83.6886 78.2924 83.5834 78.3532 83.5122 78.2957L71.4243 68.5193C71.4052 68.5038 71.3921 68.4821 71.3882 68.4578L68.9663 53.1003Z" fill="#632727"/>
<path d="M31.3696 54.74L26.8975 56.976L26.8975 56.9761L31.3696 54.74ZM32.9419 53.5837L36.3051 49.8839L36.304 49.8829L32.9419 53.5837ZM56.2993 74.8162L59.6633 71.1171L59.6625 71.1163L56.2993 74.8162ZM56.5835 75.2576L61.3454 73.7331L61.3448 73.731L56.5835 75.2576ZM58.5093 81.2732L53.7473 82.7976L54.4557 85.0105L56.6039 85.8959L58.5093 81.2732ZM85.5708 92.4275L83.6654 97.0502L86.7484 98.321L89.1063 95.963L85.5708 92.4275ZM93.7446 84.2537L97.2802 87.7892L98.2964 86.7729L98.6179 85.3721L93.7446 84.2537ZM99.0249 61.2468L103.898 62.3653V62.3653L99.0249 61.2468ZM100.974 61.2468L96.1008 62.3653L96.1008 62.3654L100.974 61.2468ZM106.255 84.2556L101.382 85.3742L101.704 86.7749L102.72 87.7911L106.255 84.2556ZM114.555 92.5554L111.02 96.091L113.363 98.4341L116.434 97.1891L114.555 92.5554ZM140.845 81.8972L142.724 86.5309L144.893 85.6517L145.607 83.423L140.845 81.8972ZM142.917 75.4304L147.679 76.9562L147.679 76.9555L142.917 75.4304ZM143.203 74.989L146.566 78.6888L146.566 78.6888L143.203 74.989ZM166.559 53.7566L163.196 50.0568L163.196 50.0568L166.559 53.7566ZM168.131 54.9119L172.603 57.1479L172.604 57.1467L168.131 54.9119ZM155.603 79.9685L151.131 77.7324L151.13 77.7337L155.603 79.9685ZM156.33 81.3796L157.101 76.4396L157.101 76.4396L156.33 81.3796ZM161.467 82.1824L160.695 87.1224L160.696 87.1225L161.467 82.1824ZM161.967 83.8923L165.329 87.5931L165.331 87.5918L161.967 83.8923ZM149.212 95.4802L145.85 91.7794L145.85 91.7795L149.212 95.4802ZM148.921 95.9431L144.128 94.5213L144.128 94.5223L148.921 95.9431ZM145.042 109.034L140.248 107.613L140.247 107.615L145.042 109.034ZM145 109.315L140 109.313V109.315H145ZM145 120.901H140V120.901L145 120.901ZM145.139 121.403L149.426 118.83L149.426 118.83L145.139 121.403ZM150.129 129.718L154.417 127.145L154.417 127.144L150.129 129.718ZM148.94 131.183L147.42 135.947L147.421 135.947L148.94 131.183ZM139.838 128.28L138.319 133.044L138.319 133.044L139.838 128.28ZM139.167 128.3L137.385 123.628L137.384 123.628L139.167 128.3ZM118.534 136.177L120.316 140.849L120.317 140.849L118.534 136.177ZM117.586 134.463L114.577 130.469L114.577 130.47L117.586 134.463ZM134.821 121.475L137.83 125.468L137.831 125.468L134.821 121.475ZM135.225 120.676L140.225 120.702L140.225 120.701L135.225 120.676ZM135.324 101.192L140.324 101.217L140.355 94.9557L134.242 96.3106L135.324 101.192ZM111.534 106.465L110.452 101.583L109.029 101.898L107.998 102.929L111.534 106.465ZM105.72 112.278L102.185 108.743L101.365 109.563L100.989 110.66L105.72 112.278ZM100.946 126.235L105.676 127.854L105.677 127.853L100.946 126.235ZM99.0532 126.235L94.3224 127.854L94.3225 127.854L99.0532 126.235ZM94.2788 112.279L99.0096 110.661L98.6343 109.563L97.8143 108.744L94.2788 112.279ZM88.1987 106.199L91.7343 102.663L90.7284 101.658L89.3437 101.332L88.1987 106.199ZM64.1743 100.548L65.3192 95.6805L59.1421 94.2274L59.1744 100.573L64.1743 100.548ZM64.2759 120.503L69.2758 120.477V120.477L64.2759 120.503ZM64.6812 121.302L61.672 125.296L61.672 125.296L64.6812 121.302ZM81.9155 134.29L84.9254 130.297L84.9246 130.297L81.9155 134.29ZM80.9673 136.005L82.7507 131.334L82.7505 131.333L80.9673 136.005ZM60.3003 128.115L58.5169 132.786L58.5171 132.786L60.3003 128.115ZM59.6909 128.077L58.4792 123.226L58.4782 123.226L59.6909 128.077ZM50.4995 130.375L51.7117 135.226L51.7122 135.225L50.4995 130.375ZM49.3892 128.862L45.197 126.137L45.1961 126.138L49.3892 128.862ZM54.3433 121.241L58.5354 123.966L58.5357 123.966L54.3433 121.241ZM54.5005 120.71L59.5005 120.71V120.71H54.5005ZM54.5005 109.143H59.5005V109.143L54.5005 109.143ZM54.4595 108.861L49.6655 110.282L49.6655 110.282L54.4595 108.861ZM50.5864 95.7908L55.3804 94.3702L55.3804 94.3702L50.5864 95.7908ZM50.2661 95.3025L53.4904 91.481L53.4904 91.4809L50.2661 95.3025ZM36.2896 83.5105L33.0644 87.3312L33.0653 87.3321L36.2896 83.5105ZM36.8159 81.7683L36.3188 76.7931L36.3164 76.7933L36.8159 81.7683ZM43.0806 81.1423L43.5777 86.1176L43.5791 86.1174L43.0806 81.1423ZM43.8618 79.7234L48.3342 77.4878L48.3339 77.4873L43.8618 79.7234ZM130.514 53.0085L127.378 49.1147L127.37 49.1208L130.514 53.0085ZM130.675 53.1023L135.614 53.8812V53.8812L130.675 53.1023ZM128.253 68.4587L133.192 69.238L133.192 69.2377L128.253 68.4587ZM128.217 68.5212L131.361 72.409L131.361 72.409L128.217 68.5212ZM116.129 78.2966L112.985 74.4088L112.985 74.4089L116.129 78.2966ZM115.967 78.2039L111.028 77.4247L111.027 77.4341L111.025 77.4436L115.967 78.2039ZM118.39 62.8464L113.454 62.0506L113.453 62.0589L113.451 62.0673L118.39 62.8464ZM118.425 62.7849L115.281 58.8971L115.272 58.9044L115.263 58.9118L118.425 62.7849ZM68.9663 53.1003L64.0249 53.8633L64.0261 53.8713L64.0273 53.8792L68.9663 53.1003ZM69.1284 53.0076L65.9844 56.8954L65.9844 56.8954L69.1284 53.0076ZM81.2163 62.783L84.3604 58.8952L84.3603 58.8952L81.2163 62.783ZM81.2524 62.8455L86.1914 62.0665L86.1914 62.0665L81.2524 62.8455ZM83.6743 78.2019L78.7354 78.9808L78.7354 78.9809L83.6743 78.2019ZM83.5122 78.2957L80.368 82.1833L80.3681 82.1834L83.5122 78.2957ZM71.4243 68.5193L68.2736 72.4017L68.2801 72.4069L71.4243 68.5193ZM71.3882 68.4578L66.4492 69.2366L66.4512 69.2491L71.3882 68.4578ZM31.3696 54.74L35.8418 52.5039C36.8214 54.4632 35.9707 56.5461 34.6227 57.5374C33.2922 58.5157 31.1362 58.6985 29.5798 57.2846L32.9419 53.5837L36.304 49.8829C33.9229 47.7198 30.733 47.9851 28.6986 49.481C26.6467 50.9898 25.4222 54.0254 26.8975 56.976L31.3696 54.74ZM32.9419 53.5837L29.5787 57.2836L52.9361 78.516L56.2993 74.8162L59.6625 71.1163L36.3051 49.8839L32.9419 53.5837ZM56.2993 74.8162L52.9353 78.5153C52.4203 78.0469 52.0359 77.4505 51.8222 76.7841L56.5835 75.2576L61.3448 73.731C61.0229 72.7272 60.4427 71.8258 59.6633 71.1171L56.2993 74.8162ZM56.5835 75.2576L51.8216 76.782L53.7473 82.7976L58.5093 81.2732L63.2712 79.7488L61.3454 73.7331L56.5835 75.2576ZM58.5093 81.2732L56.6039 85.8959L83.6654 97.0502L85.5708 92.4275L87.4762 87.8048L60.4147 76.6505L58.5093 81.2732ZM85.5708 92.4275L89.1063 95.963L97.2802 87.7892L93.7446 84.2537L90.2091 80.7181L82.0353 88.892L85.5708 92.4275ZM93.7446 84.2537L98.6179 85.3721L103.898 62.3653L99.0249 61.2468L94.1516 60.1284L88.8713 83.1352L93.7446 84.2537ZM99.0249 61.2468L103.898 62.3653C102.948 66.5056 97.0511 66.5056 96.1008 62.3653L100.974 61.2468L105.847 60.1284C104.422 53.9179 95.577 53.9179 94.1516 60.1284L99.0249 61.2468ZM100.974 61.2468L96.1008 62.3654L101.382 85.3742L106.255 84.2556L111.129 83.137L105.847 60.1283L100.974 61.2468ZM106.255 84.2556L102.72 87.7911L111.02 96.091L114.555 92.5554L118.091 89.0199L109.791 80.7201L106.255 84.2556ZM114.555 92.5554L116.434 97.1891L142.724 86.5309L140.845 81.8972L138.967 77.2635L112.677 87.9217L114.555 92.5554ZM140.845 81.8972L145.607 83.423L147.679 76.9562L142.917 75.4304L138.156 73.9046L136.084 80.3714L140.845 81.8972ZM142.917 75.4304L147.679 76.9555C147.461 77.6383 147.069 78.2313 146.566 78.6888L143.203 74.989L139.839 71.2893C139.071 71.9874 138.483 72.8847 138.156 73.9053L142.917 75.4304ZM143.203 74.989L146.566 78.6888L169.922 57.4563L166.559 53.7566L163.196 50.0568L139.839 71.2893L143.203 74.989ZM166.559 53.7566L169.922 57.4564C168.368 58.8697 166.212 58.6895 164.879 57.7105C163.53 56.7189 162.68 54.6358 163.659 52.6771L168.131 54.9119L172.604 57.1467C174.078 54.1966 172.854 51.1611 170.801 49.6522C168.765 48.1561 165.575 47.8939 163.196 50.0568L166.559 53.7566ZM168.131 54.9119L163.659 52.6758L151.131 77.7324L155.603 79.9685L160.075 82.2046L172.603 57.1479L168.131 54.9119ZM155.603 79.9685L151.13 77.7337C149.321 81.355 151.544 85.6926 155.558 86.3197L156.33 81.3796L157.101 76.4396C159.791 76.8597 161.285 79.783 160.076 82.2033L155.603 79.9685ZM156.33 81.3796L155.558 86.3197L160.695 87.1224L161.467 82.1824L162.239 77.2423L157.101 76.4396L156.33 81.3796ZM161.467 82.1824L160.696 87.1225C157.265 86.5865 156.198 82.3799 158.604 80.1929L161.967 83.8923L165.331 87.5918C168.98 84.2735 167.32 78.0361 162.239 77.2423L161.467 82.1824ZM161.967 83.8923L158.605 80.1916L145.85 91.7794L149.212 95.4802L152.575 99.181L165.329 87.5931L161.967 83.8923ZM149.212 95.4802L145.85 91.7795C145.036 92.5191 144.44 93.4677 144.128 94.5213L148.921 95.9431L153.715 97.3649C153.508 98.0643 153.113 98.6919 152.575 99.181L149.212 95.4802ZM148.921 95.9431L144.128 94.5223L140.248 107.613L145.042 109.034L149.835 110.455L153.715 97.3639L148.921 95.9431ZM145.042 109.034L140.247 107.615C140.085 108.161 140.001 108.733 140 109.313L145 109.315L150 109.317C150 109.708 149.943 110.09 149.836 110.453L145.042 109.034ZM145 109.315H140V120.901H145H150V109.315H145ZM145 120.901L140 120.901C140 121.979 140.292 123.043 140.852 123.976L145.139 121.403L149.426 118.83C149.805 119.461 150 120.177 150 120.901L145 120.901ZM145.139 121.403L140.852 123.976L145.842 132.291L150.129 129.718L154.417 127.144L149.426 118.83L145.139 121.403ZM150.129 129.718L145.842 132.29C143.825 128.928 147.167 125.37 150.459 126.42L148.94 131.183L147.421 135.947C152.477 137.56 157.377 132.08 154.417 127.145L150.129 129.718ZM148.94 131.183L150.459 126.42L141.358 123.517L139.838 128.28L138.319 133.044L147.42 135.947L148.94 131.183ZM139.838 128.28L141.358 123.517C140.054 123.101 138.653 123.144 137.385 123.628L139.167 128.3L140.95 132.971C140.114 133.29 139.187 133.32 138.319 133.044L139.838 128.28ZM139.167 128.3L137.384 123.628L116.75 131.506L118.534 136.177L120.317 140.849L140.951 132.971L139.167 128.3ZM118.534 136.177L116.752 131.506C121.089 129.851 124.273 135.685 120.596 138.456L117.586 134.463L114.577 130.47C109.038 134.644 113.8 143.335 120.316 140.849L118.534 136.177ZM117.586 134.463L120.596 138.456L137.83 125.468L134.821 121.475L131.812 117.482L114.577 130.469L117.586 134.463ZM134.821 121.475L137.831 125.468C139.314 124.35 140.215 122.595 140.225 120.702L135.225 120.676L130.225 120.649C130.232 119.381 130.834 118.219 131.811 117.483L134.821 121.475ZM135.225 120.676L140.225 120.701L140.324 101.217L135.324 101.192L130.324 101.167L130.225 120.65L135.225 120.676ZM135.324 101.192L134.242 96.3106L110.452 101.583L111.534 106.465L112.616 111.346L136.406 106.074L135.324 101.192ZM111.534 106.465L107.998 102.929L102.185 108.743L105.72 112.278L109.256 115.814L115.069 110L111.534 106.465ZM105.72 112.278L100.989 110.66L96.2149 124.617L100.946 126.235L105.677 127.853L110.451 113.896L105.72 112.278ZM100.946 126.235L96.2153 124.616C97.4492 121.011 102.549 121.008 103.784 124.616L99.0532 126.235L94.3225 127.854C96.1742 133.265 103.825 133.262 105.676 127.854L100.946 126.235ZM99.0532 126.235L103.784 124.617L99.0096 110.661L94.2788 112.279L89.548 113.897L94.3224 127.854L99.0532 126.235ZM94.2788 112.279L97.8143 108.744L91.7343 102.663L88.1987 106.199L84.6632 109.735L90.7433 115.815L94.2788 112.279ZM88.1987 106.199L89.3437 101.332L65.3192 95.6805L64.1743 100.548L63.0294 105.415L87.0538 111.066L88.1987 106.199ZM64.1743 100.548L59.1744 100.573L59.2759 120.528L64.2759 120.503L69.2758 120.477L69.1743 100.522L64.1743 100.548ZM64.2759 120.503L59.2759 120.528C59.2856 122.432 60.1965 124.184 61.672 125.296L64.6812 121.302L67.6903 117.309C68.659 118.039 69.2693 119.199 69.2758 120.477L64.2759 120.503ZM64.6812 121.302L61.672 125.296L78.9064 138.283L81.9155 134.29L84.9246 130.297L67.6903 117.309L64.6812 121.302ZM81.9155 134.29L78.9057 138.282C75.2228 135.506 78.4203 129.68 82.7507 131.334L80.9673 136.005L79.1839 140.676C85.6923 143.161 90.4699 134.477 84.9254 130.297L81.9155 134.29ZM80.9673 136.005L82.7505 131.333L62.0835 123.444L60.3003 128.115L58.5171 132.786L79.1841 140.676L80.9673 136.005ZM60.3003 128.115L62.0837 123.444C60.9512 123.011 59.6933 122.923 58.4792 123.226L59.6909 128.077L60.9027 132.928C60.0906 133.131 59.2586 133.069 58.5169 132.786L60.3003 128.115ZM59.6909 128.077L58.4782 123.226L49.2868 125.524L50.4995 130.375L51.7122 135.225L60.9036 132.928L59.6909 128.077ZM50.4995 130.375L49.2873 125.524C52.5697 124.704 55.6963 128.331 53.5822 131.586L49.3892 128.862L45.1961 126.138C42.098 130.908 46.6582 136.488 51.7117 135.226L50.4995 130.375ZM49.3892 128.862L53.5813 131.587L58.5354 123.966L54.3433 121.241L50.1511 118.516L45.197 126.137L49.3892 128.862ZM54.3433 121.241L58.5357 123.966C59.1663 122.995 59.5005 121.864 59.5005 120.71L54.5005 120.71L49.5005 120.71C49.5005 119.933 49.7253 119.171 50.1508 118.516L54.3433 121.241ZM54.5005 120.71H59.5005V109.143H54.5005H49.5005V120.71H54.5005ZM54.5005 109.143L59.5005 109.143C59.5005 108.566 59.4169 107.992 59.2534 107.44L54.4595 108.861L49.6655 110.282C49.5565 109.914 49.5005 109.531 49.5005 109.143L54.5005 109.143ZM54.4595 108.861L59.2534 107.441L55.3804 94.3702L50.5864 95.7908L45.7925 97.2113L49.6655 110.282L54.4595 108.861ZM50.5864 95.7908L55.3804 94.3702C55.0435 93.2333 54.3804 92.2319 53.4904 91.481L50.2661 95.3025L47.0418 99.124C46.4565 98.6301 46.0171 97.9694 45.7925 97.2114L50.5864 95.7908ZM50.2661 95.3025L53.4904 91.4809L39.5138 79.6889L36.2896 83.5105L33.0653 87.3321L47.0419 99.124L50.2661 95.3025ZM36.2896 83.5105L39.5148 79.6898C42.121 81.8898 40.9545 86.3779 37.3155 86.7433L36.8159 81.7683L36.3164 76.7933C30.9266 77.3345 29.1053 83.9893 33.0644 87.3312L36.2896 83.5105ZM36.8159 81.7683L37.3131 86.7435L43.5777 86.1176L43.0806 81.1423L42.5834 76.1671L36.3188 76.7931L36.8159 81.7683ZM43.0806 81.1423L43.5791 86.1174C47.7592 85.6986 50.2081 81.2366 48.3342 77.4878L43.8618 79.7234L39.3895 81.959C38.1368 79.453 39.784 76.4476 42.582 76.1672L43.0806 81.1423ZM43.8618 79.7234L48.3339 77.4873L35.8417 52.5039L31.3696 54.74L26.8975 56.9761L39.3897 81.9595L43.8618 79.7234ZM130.514 53.0085L133.651 56.9024C130.122 59.7451 125.046 56.7024 125.736 52.3234L130.675 53.1023L135.614 53.8812C136.333 49.3214 131.049 46.1573 127.378 49.1147L130.514 53.0085ZM130.675 53.1023L125.736 52.3234L123.314 67.6798L128.253 68.4587L133.192 69.2377L135.614 53.8812L130.675 53.1023ZM128.253 68.4587L123.315 67.6795C123.504 66.4756 124.135 65.3926 125.073 64.6335L128.217 68.5212L131.361 72.409C132.338 71.6188 132.995 70.4908 133.192 69.238L128.253 68.4587ZM128.217 68.5212L125.073 64.6334L112.985 74.4088L116.129 78.2966L119.273 82.1844L131.361 72.409L128.217 68.5212ZM116.129 78.2966L112.985 74.4089C116.44 71.6149 121.595 74.5037 120.909 78.9642L115.967 78.2039L111.025 77.4436C110.311 82.0844 115.676 85.0934 119.273 82.1844L116.129 78.2966ZM115.967 78.2039L120.906 78.983L123.329 63.6256L118.39 62.8464L113.451 62.0673L111.028 77.4247L115.967 78.2039ZM118.39 62.8464L123.326 63.6423C123.142 64.7863 122.548 65.8741 121.587 66.658L118.425 62.7849L115.263 58.9118C114.265 59.7267 113.646 60.8582 113.454 62.0506L118.39 62.8464ZM118.425 62.7849L121.569 66.6727L133.658 56.8963L130.514 53.0085L127.37 49.1208L115.281 58.8971L118.425 62.7849ZM68.9663 53.1003L73.9078 52.3374C74.5977 56.8059 69.4346 59.6855 65.9844 56.8954L69.1284 53.0076L72.2725 49.1198C68.6801 46.2146 63.3071 49.2143 64.0249 53.8633L68.9663 53.1003ZM69.1284 53.0076L65.9844 56.8954L78.0723 66.6708L81.2163 62.783L84.3603 58.8952L72.2725 49.1198L69.1284 53.0076ZM81.2163 62.783L78.0722 66.6707C77.1337 65.9118 76.5034 64.8287 76.3135 63.6244L81.2524 62.8455L86.1914 62.0665C85.9937 60.8133 85.3374 59.6853 84.3604 58.8952L81.2163 62.783ZM81.2524 62.8455L76.3135 63.6244L78.7354 78.9808L83.6743 78.2019L88.6133 77.423L86.1914 62.0665L81.2524 62.8455ZM83.6743 78.2019L78.7354 78.9809C78.0388 74.5646 83.1547 71.5761 86.6563 74.4079L83.5122 78.2957L80.3681 82.1834C84.0121 85.1303 89.3383 82.0201 88.6133 77.4229L83.6743 78.2019ZM83.5122 78.2957L86.6564 74.408L74.5685 64.6316L71.4243 68.5193L68.2801 72.4069L80.368 82.1833L83.5122 78.2957ZM71.4243 68.5193L74.5751 64.6369C75.4532 65.3495 76.1228 66.4036 76.3252 67.6665L71.3882 68.4578L66.4512 69.2491C66.6614 70.5606 67.3573 71.658 68.2736 72.4017L71.4243 68.5193ZM71.3882 68.4578L76.3271 67.6789L73.9053 52.3215L68.9663 53.1003L64.0273 53.8792L66.4492 69.2366L71.3882 68.4578Z" fill="#471E1E" mask="url(#path-5-outside-2_1246_193)"/>
<path d="M48.7673 83.2673C48.0067 82.5067 48.8189 81.246 49.8259 81.624L99.7615 100.371C99.9837 100.454 100.228 100.456 100.452 100.375L148.357 83.1313C149.291 82.7951 150.091 83.8781 149.496 84.6722L141.203 95.729C141.071 95.9048 140.885 96.0322 140.674 96.0917L100.375 107.424C100.199 107.474 100.012 107.474 99.8358 107.425L62.7527 97.0706C62.587 97.0243 62.4361 96.9361 62.3145 96.8145L48.7673 83.2673Z" fill="#7D3131"/>
<path d="M130.715 52.844L128.246 68.4956L115.926 78.4592L118.394 62.8076L130.715 52.844Z" fill="#7D3131"/>
<path d="M128.121 57.3374L126.518 67.4979L118.52 73.9658L120.123 63.8054L128.121 57.3374Z" fill="#B24646"/>
<path d="M68.926 52.844L81.2464 62.8075L83.7149 78.4591L71.3945 68.4956L68.926 52.844Z" fill="#7D3131"/>
<path d="M71.561 57.408L79.4911 63.821L81.0799 73.8952L73.1498 67.4822L71.561 57.408Z" fill="#B24646"/>
<path d="M100 82L116 98L100 114L84 98L100 82Z" fill="#7D3131"/>
<path d="M100 77L109 98L100 119L91 98L100 77Z" fill="#7D3131"/>
<path d="M100 87L111 98L100 109L89 98L100 87Z" fill="#B24646"/>
<path d="M100 83L107 98L100 113L93 98L100 83Z" fill="#B24646"/>
<path d="M39.0921 63.4192L54.531 78.1704L63.7022 97.4537L48.2633 82.7025L39.0921 63.4192Z" fill="#7D3131"/>
<path d="M48.5 83L62.5 96.5L63 127L59.5 126L56 127L56.5 108.5L48.5 83Z" fill="#7D3131"/>
<path d="M151.5 83L137.5 96.5L137 127L140.5 126L144 127L143.5 108.5L151.5 83Z" fill="#7D3131"/>
<path d="M161.744 63.2662L146.305 78.0173L137.134 97.3006L152.573 82.5495L161.744 63.2662Z" fill="#7D3131"/>
</svg>
