<svg width="200" height="200" viewBox="0 0 200 200" fill="none" xmlns="http://www.w3.org/2000/svg">
<mask id="path-1-inside-1_1246_193" fill="white">
<path d="M45.5293 40.3516C45.9147 39.0139 47.6701 38.6291 48.8213 39.6299L63.9102 52.748L74.8418 51.335L77.4688 42.2188C77.8543 40.8813 79.6096 40.4963 80.7607 41.4971L89.8467 49.3965L99.9814 48.0879C100.095 48.0732 100.212 48.0729 100.326 48.0879L110.791 49.4668L118.503 41.3232C119.46 40.3124 121.195 40.7774 121.758 42.1953L125.405 51.3945L136.671 52.8799L151.38 40.0918C152.531 39.0911 154.287 39.4758 154.672 40.8135L158.995 55.8242L159.062 55.833C159.063 55.8332 159.064 55.8338 159.065 55.834L159.121 55.8408C159.285 55.8625 159.437 55.9133 159.566 55.9863C159.857 56.134 160.041 56.363 160.041 56.6172V56.7158C160.041 56.7189 160.042 56.7225 160.042 56.7256V59.457L160.252 60.1855C160.395 60.6811 160.311 61.2172 160.042 61.6777L160.043 68.7646L160.042 69.2656C160.042 69.4865 159.905 69.6873 159.684 69.832C159.489 69.9771 159.231 70.0664 158.947 70.0664L150.57 70.0654L142.91 76.7266C141.759 77.7272 140.003 77.3425 139.618 76.0049L137.907 70.0654H129.21L114.744 85.3438C113.787 86.3547 112.052 85.8897 111.489 84.4717L105.776 70.0654H98.1035L94.3652 83.041C93.9799 84.3788 92.2244 84.7636 91.0732 83.7627L75.3184 70.0654H62.1592L60.582 75.543C60.1966 76.8806 58.4412 77.2655 57.29 76.2646L50.1611 70.0654L40.2656 70.0664C40.2611 70.0664 40.2565 70.0655 40.252 70.0654H40.1377C39.8539 70.0653 39.5957 69.9763 39.4014 69.8311C39.1805 69.6863 39.043 69.4864 39.043 69.2656L39.0439 64.0098L39.043 56.7285C39.043 56.7231 39.0438 56.7173 39.0439 56.7119V56.6201C39.044 56.368 39.2249 56.14 39.5117 55.9922C39.6439 55.9166 39.7986 55.8645 39.9668 55.8428L41.1094 55.6943L45.5293 40.3516Z"/>
</mask>
<path d="M45.5293 40.3516C45.9147 39.0139 47.6701 38.6291 48.8213 39.6299L63.9102 52.748L74.8418 51.335L77.4688 42.2188C77.8543 40.8813 79.6096 40.4963 80.7607 41.4971L89.8467 49.3965L99.9814 48.0879C100.095 48.0732 100.212 48.0729 100.326 48.0879L110.791 49.4668L118.503 41.3232C119.46 40.3124 121.195 40.7774 121.758 42.1953L125.405 51.3945L136.671 52.8799L151.38 40.0918C152.531 39.0911 154.287 39.4758 154.672 40.8135L158.995 55.8242L159.062 55.833C159.063 55.8332 159.064 55.8338 159.065 55.834L159.121 55.8408C159.285 55.8625 159.437 55.9133 159.566 55.9863C159.857 56.134 160.041 56.363 160.041 56.6172V56.7158C160.041 56.7189 160.042 56.7225 160.042 56.7256V59.457L160.252 60.1855C160.395 60.6811 160.311 61.2172 160.042 61.6777L160.043 68.7646L160.042 69.2656C160.042 69.4865 159.905 69.6873 159.684 69.832C159.489 69.9771 159.231 70.0664 158.947 70.0664L150.57 70.0654L142.91 76.7266C141.759 77.7272 140.003 77.3425 139.618 76.0049L137.907 70.0654H129.21L114.744 85.3438C113.787 86.3547 112.052 85.8897 111.489 84.4717L105.776 70.0654H98.1035L94.3652 83.041C93.9799 84.3788 92.2244 84.7636 91.0732 83.7627L75.3184 70.0654H62.1592L60.582 75.543C60.1966 76.8806 58.4412 77.2655 57.29 76.2646L50.1611 70.0654L40.2656 70.0664C40.2611 70.0664 40.2565 70.0655 40.252 70.0654H40.1377C39.8539 70.0653 39.5957 69.9763 39.4014 69.8311C39.1805 69.6863 39.043 69.4864 39.043 69.2656L39.0439 64.0098L39.043 56.7285C39.043 56.7231 39.0438 56.7173 39.0439 56.7119V56.6201C39.044 56.368 39.2249 56.14 39.5117 55.9922C39.6439 55.9166 39.7986 55.8645 39.9668 55.8428L41.1094 55.6943L45.5293 40.3516Z" fill="#632727"/>
<path d="M45.5293 40.3516L40.7247 38.9673L40.7247 38.9675L45.5293 40.3516ZM48.8213 39.6299L52.1018 35.8565L52.1017 35.8564L48.8213 39.6299ZM63.9102 52.748L60.6296 56.5214L62.3242 57.9947L64.5512 57.7068L63.9102 52.748ZM74.8418 51.335L75.4828 56.2937L78.7376 55.873L79.6463 52.7194L74.8418 51.335ZM77.4688 42.2188L72.6644 40.8337L72.6642 40.8343L77.4688 42.2188ZM80.7607 41.4971L77.4802 45.2704V45.2704L80.7607 41.4971ZM89.8467 49.3965L86.5661 53.1698L88.2604 54.6428L90.487 54.3553L89.8467 49.3965ZM99.9814 48.0879L99.3412 43.129L99.3412 43.1291L99.9814 48.0879ZM100.326 48.0879L100.979 43.1307L100.979 43.1307L100.326 48.0879ZM110.791 49.4668L110.138 54.4239L112.667 54.7572L114.421 52.9048L110.791 49.4668ZM118.503 41.3232L122.133 44.7613L122.134 44.7609L118.503 41.3232ZM121.758 42.1953L126.406 40.3524L126.406 40.3518L121.758 42.1953ZM125.405 51.3945L120.757 53.2374L121.84 55.9677L124.752 56.3516L125.405 51.3945ZM136.671 52.8799L136.017 57.837L138.251 58.1315L139.951 56.6532L136.671 52.8799ZM151.38 40.0918L148.1 36.3182L148.099 36.3185L151.38 40.0918ZM154.672 40.8135L159.477 39.4297L159.477 39.4295L154.672 40.8135ZM158.995 55.8242L154.19 57.208L155.096 60.3517L158.339 60.781L158.995 55.8242ZM159.062 55.833L158.405 60.7898L158.416 60.7911L158.426 60.7924L159.062 55.833ZM159.065 55.834L158.401 60.7896L158.428 60.7933L158.456 60.7967L159.065 55.834ZM159.121 55.8408L159.775 50.8837L159.753 50.8808L159.731 50.8781L159.121 55.8408ZM159.566 55.9863L157.116 60.3447L157.209 60.3969L157.304 60.4452L159.566 55.9863ZM160.041 56.6172H165.041V56.6163L160.041 56.6172ZM160.041 56.7158H155.041V56.7478L155.041 56.7797L160.041 56.7158ZM160.042 56.7256L155.042 56.7248V56.7256H160.042ZM160.042 59.457H155.042V60.1632L155.238 60.8417L160.042 59.457ZM160.252 60.1855L165.057 58.8021L165.056 58.8009L160.252 60.1855ZM160.042 61.6777L155.726 59.154L155.042 60.3236L155.042 61.6784L160.042 61.6777ZM160.043 68.7646L165.043 68.7744V68.764L160.043 68.7646ZM160.042 69.2656L155.042 69.2559V69.2656L160.042 69.2656ZM159.684 69.832L156.944 65.6492L156.816 65.7331L156.693 65.8248L159.684 69.832ZM158.947 70.0664L158.947 75.0664H158.947L158.947 70.0664ZM150.57 70.0654L150.571 65.0654L148.701 65.0652L147.289 66.2924L150.57 70.0654ZM142.91 76.7266L146.19 80.5003L146.191 80.4996L142.91 76.7266ZM139.618 76.0049L134.814 77.3889L134.814 77.3889L139.618 76.0049ZM137.907 70.0654L142.712 68.6814L141.67 65.0654H137.907V70.0654ZM129.21 70.0654V65.0654H127.058L125.579 66.6278L129.21 70.0654ZM114.744 85.3438L111.113 81.9061L111.113 81.9061L114.744 85.3438ZM111.489 84.4717L116.137 82.6286L116.137 82.6285L111.489 84.4717ZM105.776 70.0654L110.424 68.2223L109.172 65.0654H105.776V70.0654ZM98.1035 70.0654V65.0654H94.3407L93.2989 68.6812L98.1035 70.0654ZM94.3652 83.041L89.5607 81.6568L89.5606 81.657L94.3652 83.041ZM91.0732 83.7627L94.3538 79.9894L94.3538 79.9894L91.0732 83.7627ZM75.3184 70.0654L78.5989 66.2921L77.188 65.0654H75.3184V70.0654ZM62.1592 70.0654V65.0654H58.3957L57.3544 68.682L62.1592 70.0654ZM60.582 75.543L65.3866 76.9274L65.3868 76.9264L60.582 75.543ZM57.29 76.2646L54.0091 80.0376L54.0095 80.038L57.29 76.2646ZM50.1611 70.0654L53.4421 66.2924L52.0308 65.0652L50.1606 65.0654L50.1611 70.0654ZM40.2656 70.0664L40.2143 75.0661L40.2402 75.0664L40.2661 75.0664L40.2656 70.0664ZM40.252 70.0654L40.3721 65.0669L40.3121 65.0654H40.252V70.0654ZM40.1377 70.0654L40.1362 75.0654H40.1377V70.0654ZM39.4014 69.8311L42.3946 65.826L42.2709 65.7335L42.1417 65.6489L39.4014 69.8311ZM39.043 69.2656L34.043 69.2647V69.2663L39.043 69.2656ZM39.0439 64.0098L44.0439 64.0107V64.0091L39.0439 64.0098ZM39.043 56.7285L34.043 56.7268L34.043 56.7292L39.043 56.7285ZM39.0439 56.7119L44.0428 56.8208L44.0439 56.7664V56.7119H39.0439ZM39.0439 56.6201L34.0439 56.6196V56.6201H39.0439ZM39.5117 55.9922L41.8021 60.4368L41.8984 60.3871L41.9925 60.3334L39.5117 55.9922ZM39.9668 55.8428L40.6086 60.8014L40.611 60.8011L39.9668 55.8428ZM41.1094 55.6943L41.7535 60.6527L45.0061 60.2301L45.914 57.0784L41.1094 55.6943ZM45.5293 40.3516L50.3339 41.7358C49.9538 43.0549 48.8801 43.7959 47.9588 43.9979C47.0682 44.1931 46.1761 43.9555 45.5409 43.4034L48.8213 39.6299L52.1017 35.8564C48.8761 33.0524 42.3616 33.2859 40.7247 38.9673L45.5293 40.3516ZM48.8213 39.6299L45.5408 43.4032L60.6296 56.5214L63.9102 52.748L67.1907 48.9747L52.1018 35.8565L48.8213 39.6299ZM63.9102 52.748L64.5512 57.7068L75.4828 56.2937L74.8418 51.335L74.2008 46.3762L63.2692 47.7893L63.9102 52.748ZM74.8418 51.335L79.6463 52.7194L82.2733 43.6032L77.4688 42.2188L72.6642 40.8343L70.0373 49.9505L74.8418 51.335ZM77.4688 42.2188L82.2731 43.6038C81.8929 44.9224 80.8196 45.6631 79.8986 45.8651C79.008 46.0603 78.1156 45.8228 77.4802 45.2704L80.7607 41.4971L84.0413 37.7238C80.8146 34.9184 74.3016 35.1547 72.6644 40.8337L77.4688 42.2188ZM80.7607 41.4971L77.4802 45.2704L86.5661 53.1698L89.8467 49.3965L93.1272 45.6232L84.0413 37.7238L80.7607 41.4971ZM89.8467 49.3965L90.487 54.3553L100.622 53.0467L99.9814 48.0879L99.3412 43.1291L89.2064 44.4376L89.8467 49.3965ZM99.9814 48.0879L100.622 53.0467C100.319 53.0858 100.001 53.0883 99.6732 53.0451L100.326 48.0879L100.979 43.1307C100.423 43.0575 99.8716 43.0606 99.3412 43.129L99.9814 48.0879ZM100.326 48.0879L99.673 53.045L110.138 54.4239L110.791 49.4668L111.444 44.5096L100.979 43.1307L100.326 48.0879ZM110.791 49.4668L114.421 52.9048L122.133 44.7613L118.503 41.3232L114.872 37.8852L107.161 46.0288L110.791 49.4668ZM118.503 41.3232L122.134 44.7609C121.19 45.7574 119.896 45.9224 118.984 45.6781C118.103 45.442 117.42 44.8207 117.11 44.0388L121.758 42.1953L126.406 40.3518C124.83 36.3793 118.937 33.5919 114.872 37.8856L118.503 41.3232ZM121.758 42.1953L117.11 44.0382L120.757 53.2374L125.405 51.3945L130.053 49.5516L126.406 40.3524L121.758 42.1953ZM125.405 51.3945L124.752 56.3516L136.017 57.837L136.671 52.8799L137.324 47.9228L126.059 46.4374L125.405 51.3945ZM136.671 52.8799L139.951 56.6532L154.66 43.8651L151.38 40.0918L148.099 36.3185L133.39 49.1066L136.671 52.8799ZM151.38 40.0918L154.66 43.8654C154.025 44.4174 153.133 44.655 152.243 44.4598C151.321 44.2578 150.247 43.5168 149.867 42.1975L154.672 40.8135L159.477 39.4295C157.84 33.7471 151.325 33.5149 148.1 36.3182L151.38 40.0918ZM154.672 40.8135L149.867 42.1973L154.19 57.208L158.995 55.8242L163.8 54.4404L159.477 39.4297L154.672 40.8135ZM158.995 55.8242L158.339 60.781L158.405 60.7898L159.062 55.833L159.718 50.8762L159.651 50.8674L158.995 55.8242ZM159.062 55.833L158.426 60.7924C158.345 60.782 158.271 60.7706 158.207 60.7595C158.143 60.7484 158.085 60.737 158.035 60.7264C157.984 60.7158 157.939 60.7055 157.9 60.6961C157.861 60.6868 157.826 60.678 157.796 60.6702C157.767 60.6625 157.741 60.6554 157.72 60.6495C157.698 60.6436 157.68 60.6384 157.667 60.6344C157.653 60.6304 157.642 60.6272 157.635 60.6251C157.632 60.6241 157.629 60.6233 157.627 60.6227C157.625 60.6222 157.624 60.6218 157.624 60.6218C157.624 60.6217 157.625 60.622 157.626 60.6224C157.627 60.6228 157.63 60.6235 157.633 60.6244C157.639 60.6262 157.649 60.6292 157.662 60.633C157.675 60.6367 157.692 60.6417 157.712 60.6474C157.732 60.6531 157.757 60.66 157.786 60.6675C157.814 60.6751 157.848 60.6838 157.886 60.693C157.924 60.7022 157.969 60.7125 158.018 60.723C158.067 60.7336 158.124 60.7449 158.187 60.7562C158.249 60.7674 158.321 60.7789 158.401 60.7896L159.065 55.834L159.73 50.8784C159.809 50.889 159.881 50.9006 159.944 50.9117C160.006 50.9229 160.063 50.9342 160.112 50.9448C160.161 50.9553 160.205 50.9655 160.243 50.9747C160.281 50.9839 160.315 50.9925 160.343 51C160.372 51.0076 160.396 51.0144 160.416 51.02C160.437 51.0257 160.454 51.0306 160.466 51.0343C160.479 51.038 160.489 51.041 160.495 51.0427C160.5 51.0442 160.505 51.0456 160.503 51.0452C160.503 51.0451 160.501 51.0447 160.5 51.0442C160.498 51.0436 160.495 51.0427 160.491 51.0417C160.484 51.0396 160.473 51.0363 160.459 51.0323C160.445 51.0282 160.427 51.023 160.406 51.017C160.384 51.0111 160.358 51.004 160.329 50.9962C160.299 50.9884 160.264 50.9795 160.225 50.9701C160.185 50.9607 160.14 50.9504 160.089 50.9397C160.039 50.9291 159.981 50.9178 159.916 50.9066C159.852 50.8954 159.779 50.884 159.697 50.8736L159.062 55.833ZM159.065 55.834L158.456 60.7967L158.512 60.8035L159.121 55.8408L159.731 50.8781L159.675 50.8713L159.065 55.834ZM159.121 55.8408L158.468 60.7979C158.025 60.7396 157.563 60.596 157.116 60.3447L159.566 55.9863L162.017 51.628C161.31 51.2306 160.546 50.9854 159.775 50.8837L159.121 55.8408ZM159.566 55.9863L157.304 60.4452C156.69 60.1335 155.041 58.9807 155.041 56.618L160.041 56.6172L165.041 56.6163C165.041 53.7454 163.025 52.1345 161.829 51.5275L159.566 55.9863ZM160.041 56.6172H155.041V56.7158H160.041H165.041V56.6172H160.041ZM160.041 56.7158L155.041 56.7797C155.043 56.8991 155.049 57.0023 155.055 57.0842C155.061 57.1661 155.068 57.2349 155.073 57.2852C155.079 57.3352 155.084 57.3752 155.088 57.3976C155.089 57.4091 155.09 57.4184 155.091 57.4235C155.092 57.4276 155.092 57.4323 155.092 57.43C155.092 57.4296 155.091 57.4242 155.09 57.4173C155.089 57.4101 155.088 57.3989 155.086 57.3852C155.082 57.3585 155.077 57.3145 155.071 57.2598C155.065 57.205 155.058 57.1316 155.052 57.0447C155.047 56.9578 155.042 56.8496 155.042 56.7248L160.042 56.7256L165.042 56.7264C165.042 56.6008 165.037 56.4918 165.032 56.4041C165.026 56.3164 165.019 56.2422 165.013 56.1866C165.007 56.1311 165.001 56.0862 164.998 56.0587C164.994 56.0327 164.991 56.0115 164.991 56.0114C164.991 56.0086 164.991 56.013 164.992 56.0167C164.992 56.0213 164.994 56.0302 164.995 56.0413C164.998 56.0629 165.003 56.102 165.009 56.1513C165.015 56.2007 165.022 56.2687 165.028 56.3498C165.034 56.4309 165.039 56.5333 165.041 56.6519L160.041 56.7158ZM160.042 56.7256H155.042V59.457H160.042H165.042V56.7256H160.042ZM160.042 59.457L155.238 60.8417L155.448 61.5702L160.252 60.1855L165.056 58.8009L164.846 58.0724L160.042 59.457ZM160.252 60.1855L155.447 61.569C155.174 60.6189 155.377 59.7509 155.726 59.154L160.042 61.6777L164.358 64.2014C165.246 62.6836 165.616 60.7434 165.057 58.8021L160.252 60.1855ZM160.042 61.6777L155.042 61.6784L155.043 68.7653L160.043 68.7646L165.043 68.764L165.042 61.677L160.042 61.6777ZM160.043 68.7646L155.043 68.7549L155.042 69.2559L160.042 69.2656L165.042 69.2754L165.043 68.7744L160.043 68.7646ZM160.042 69.2656L155.042 69.2656C155.042 67.2511 156.286 66.0805 156.944 65.6492L159.684 69.832L162.423 74.0148C163.524 73.294 165.042 71.7218 165.042 69.2656L160.042 69.2656ZM159.684 69.832L156.693 65.8248C157.396 65.3007 158.195 65.0664 158.947 65.0664L158.947 70.0664L158.947 75.0664C160.267 75.0664 161.583 74.6534 162.674 73.8393L159.684 69.832ZM158.947 70.0664L158.948 65.0664L150.571 65.0654L150.57 70.0654L150.57 75.0654L158.947 75.0664L158.947 70.0664ZM150.57 70.0654L147.289 66.2924L139.629 72.9536L142.91 76.7266L146.191 80.4996L153.851 73.8384L150.57 70.0654ZM142.91 76.7266L139.63 72.9528C140.265 72.4008 141.157 72.1633 142.047 72.3585C142.969 72.5604 144.043 73.3014 144.423 74.6208L139.618 76.0049L134.814 77.3889C136.45 83.0714 142.965 83.3032 146.19 80.5003L142.91 76.7266ZM139.618 76.0049L144.423 74.6208L142.712 68.6814L137.907 70.0654L133.103 71.4495L134.814 77.3889L139.618 76.0049ZM137.907 70.0654V65.0654H129.21V70.0654V75.0654H137.907V70.0654ZM129.21 70.0654L125.579 66.6278L111.113 81.9061L114.744 85.3438L118.375 88.7814L132.841 73.5031L129.21 70.0654ZM114.744 85.3438L111.113 81.9061C112.057 80.9098 113.351 80.7446 114.263 80.9889C115.144 81.2251 115.827 81.8466 116.137 82.6286L111.489 84.4717L106.841 86.3148C108.417 90.2885 114.31 93.0748 118.375 88.7814L114.744 85.3438ZM111.489 84.4717L116.137 82.6285L110.424 68.2223L105.776 70.0654L101.128 71.9086L106.841 86.3148L111.489 84.4717ZM105.776 70.0654V65.0654H98.1035V70.0654V75.0654H105.776V70.0654ZM98.1035 70.0654L93.2989 68.6812L89.5607 81.6568L94.3652 83.041L99.1698 84.4252L102.908 71.4496L98.1035 70.0654ZM94.3652 83.041L89.5606 81.657C89.9405 80.338 91.0143 79.5968 91.9358 79.3948C92.8265 79.1995 93.7187 79.4372 94.3538 79.9894L91.0732 83.7627L87.7927 87.536C91.0182 90.3404 97.5332 90.1069 99.1699 84.425L94.3652 83.041ZM91.0732 83.7627L94.3538 79.9894L78.5989 66.2921L75.3184 70.0654L72.0378 73.8388L87.7927 87.536L91.0732 83.7627ZM75.3184 70.0654V65.0654H62.1592V70.0654V75.0654H75.3184V70.0654ZM62.1592 70.0654L57.3544 68.682L55.7772 74.1595L60.582 75.543L65.3868 76.9264L66.964 71.4489L62.1592 70.0654ZM60.582 75.543L55.7775 74.1586C56.1575 72.8397 57.2311 72.0987 58.1524 71.8967C59.0431 71.7015 59.9354 71.9391 60.5706 72.4913L57.29 76.2646L54.0095 80.038C57.2355 82.8427 63.7497 82.6082 65.3866 76.9274L60.582 75.543ZM57.29 76.2646L60.571 72.4917L53.4421 66.2924L50.1611 70.0654L46.8802 73.8384L54.0091 80.0376L57.29 76.2646ZM50.1611 70.0654L50.1606 65.0654L40.2651 65.0664L40.2656 70.0664L40.2661 75.0664L50.1616 75.0654L50.1611 70.0654ZM40.2656 70.0664L40.317 65.0667C40.3869 65.0674 40.449 65.0695 40.5017 65.072C40.5542 65.0745 40.5994 65.0775 40.6348 65.0802C40.67 65.0828 40.6987 65.0853 40.717 65.087C40.7345 65.0886 40.7482 65.09 40.7489 65.09C40.7517 65.0903 40.7475 65.0899 40.7461 65.0897C40.7433 65.0895 40.7378 65.0889 40.7308 65.0883C40.7172 65.087 40.6928 65.0847 40.6624 65.0822C40.6316 65.0797 40.591 65.0767 40.5431 65.0739C40.4951 65.0711 40.4375 65.0684 40.3721 65.0669L40.252 70.0654L40.1318 75.064C40.0059 75.061 39.9053 75.0537 39.8483 75.049C39.819 75.0466 39.7958 75.0445 39.7833 75.0433C39.7733 75.0423 39.762 75.0412 39.7686 75.0419C39.7705 75.042 39.7854 75.0435 39.804 75.0452C39.8234 75.047 39.8533 75.0496 39.8896 75.0523C39.9608 75.0577 40.0744 75.0647 40.2143 75.0661L40.2656 70.0664ZM40.252 70.0654V65.0654H40.1377V70.0654V75.0654H40.252V70.0654ZM40.1377 70.0654L40.1392 65.0654C40.8867 65.0656 41.688 65.2979 42.3946 65.826L39.4014 69.8311L36.4081 73.8361C37.5033 74.6547 38.8212 75.065 40.1362 75.0654L40.1377 70.0654ZM39.4014 69.8311L42.1417 65.6489C42.7908 66.0742 44.0427 67.243 44.043 69.2649L39.043 69.2656L34.043 69.2663C34.0433 71.7297 35.5702 73.2985 36.661 74.0132L39.4014 69.8311ZM39.043 69.2656L44.043 69.2666L44.0439 64.0107L39.0439 64.0098L34.0439 64.0088L34.043 69.2647L39.043 69.2656ZM39.0439 64.0098L44.0439 64.0091L44.043 56.7278L39.043 56.7285L34.043 56.7292L34.0439 64.0104L39.0439 64.0098ZM39.043 56.7285L44.043 56.7303C44.0429 56.7953 44.0416 56.8526 44.04 56.9003C44.0383 56.948 44.0362 56.9889 44.0343 57.0207C44.0324 57.0525 44.0306 57.0785 44.0293 57.0956C44.0281 57.1121 44.027 57.1249 44.0268 57.1274C44.0268 57.1278 44.0267 57.1282 44.0267 57.1284C44.0267 57.1285 44.0267 57.1286 44.0267 57.1286C44.0267 57.1287 44.0267 57.1287 44.0267 57.1287C44.0267 57.129 44.0267 57.1282 44.0268 57.1275C44.0269 57.1261 44.0272 57.1221 44.0276 57.1172C44.0284 57.1076 44.0299 57.0884 44.0316 57.0644C44.0333 57.0401 44.0355 57.0067 44.0375 56.9669C44.0395 56.9271 44.0415 56.8776 44.0428 56.8208L39.0439 56.7119L34.0451 56.603C34.0475 56.4954 34.0529 56.4104 34.0559 56.3676C34.0575 56.345 34.0589 56.3272 34.0595 56.319C34.0599 56.3146 34.0608 56.3035 34.06 56.3131C34.0597 56.3169 34.0585 56.3311 34.0572 56.3491C34.0558 56.3675 34.0539 56.3949 34.0519 56.4281C34.0481 56.4918 34.043 56.5969 34.043 56.7268L39.043 56.7285ZM39.0439 56.7119H44.0439V56.6201H39.0439H34.0439V56.7119H39.0439ZM39.0439 56.6201L44.0439 56.6206C44.0437 58.9622 42.4214 60.1176 41.8021 60.4368L39.5117 55.9922L37.2214 51.5476C36.0284 52.1623 34.0442 53.7738 34.0439 56.6196L39.0439 56.6201ZM39.5117 55.9922L41.9925 60.3334C41.5302 60.5975 41.0554 60.7436 40.6086 60.8014L39.9668 55.8428L39.325 50.8841C38.5417 50.9855 37.7576 51.2357 37.031 51.651L39.5117 55.9922ZM39.9668 55.8428L40.611 60.8011L41.7535 60.6527L41.1094 55.6943L40.4652 50.736L39.3226 50.8844L39.9668 55.8428ZM41.1094 55.6943L45.914 57.0784L50.3339 41.7357L45.5293 40.3516L40.7247 38.9675L36.3048 54.3102L41.1094 55.6943Z" fill="#471E1E" mask="url(#path-1-inside-1_1246_193)"/>
<path d="M114.258 103.259L144.75 90.8975C145.573 90.5642 146.389 91.3864 146.05 92.2061L138.326 110.862C138.201 111.164 137.937 111.385 137.619 111.456L111.827 117.172L99.9995 129L88.5161 117.517L62.7378 111.453C62.4446 111.384 62.1981 111.186 62.0669 110.915L53.103 92.3574C52.7038 91.5309 53.5356 90.6474 54.3843 90.9971L85.27 103.729L99.9995 89L114.258 103.259Z" fill="black" fill-opacity="0.25"/>
<rect x="49.5" y="60.5" width="101" height="34" rx="16.5" fill="#515656" stroke="#2B3333" stroke-width="5"/>
<rect x="58" y="70" width="88" height="28" rx="14" fill="#464A4A"/>
<mask id="path-6-outside-2_1246_193" maskUnits="userSpaceOnUse" x="25.3971" y="46.9849" width="148" height="96" fill="black">
<rect fill="white" x="25.3971" y="46.9849" width="148" height="96"/>
<path d="M166.559 54.7564C167.384 54.0069 168.627 54.9212 168.131 55.9126L155.603 80.9683C155.303 81.5688 155.667 82.2759 156.33 82.3794L161.467 83.1822C162.293 83.3111 162.59 84.3275 161.967 84.8931L149.212 96.481C149.075 96.6063 148.973 96.7658 148.92 96.9429L145.042 110.034C145.014 110.125 145.001 110.221 145.001 110.316V121.901C145.001 122.078 145.048 122.252 145.139 122.403L150.129 130.717C150.601 131.504 149.822 132.464 148.94 132.183L139.838 129.28C139.621 129.21 139.384 129.217 139.168 129.299L118.534 137.177C117.445 137.593 116.655 136.164 117.587 135.462L134.82 122.475C135.073 122.284 135.224 121.988 135.225 121.675L135.33 101.191L111.534 106.464L105.72 112.278L100.946 126.235C100.637 127.137 99.3618 127.137 99.0533 126.235L94.2779 112.278L88.1988 106.199L64.3082 100.58L64.4166 121.675C64.4182 121.988 64.5685 122.284 64.8219 122.475L82.0553 135.462C82.9863 136.164 82.197 137.593 81.108 137.177L60.441 129.287C60.2456 129.212 60.0326 129.199 59.8316 129.25L50.6402 131.547C49.7547 131.769 49.0379 130.792 49.5299 130.035L54.484 122.414C54.5865 122.256 54.6412 122.071 54.6412 121.882V110.316C54.6412 110.221 54.6274 110.125 54.6002 110.034L50.7262 96.9624C50.67 96.7732 50.5591 96.6036 50.4068 96.4751L36.4303 84.6831C35.7536 84.1122 36.0811 83.0287 36.9566 82.9409L43.2213 82.314C43.9121 82.2446 44.3129 81.5173 44.0025 80.896L31.5103 55.9126C31.0146 54.9212 32.2579 54.0069 33.0826 54.7564L56.44 75.9888C56.5722 76.109 56.6701 76.2614 56.7242 76.4302L58.2388 81.1607L85.5709 92.4273L93.7447 84.2534L99.025 61.2466C99.2625 60.2116 100.737 60.2116 100.974 61.2466L106.255 84.2554L114.555 92.5552L141.213 81.7476L142.918 76.4302C142.972 76.2614 143.07 76.109 143.202 75.9888L166.559 54.7564ZM130.514 53.0083C130.585 52.9511 130.69 53.0117 130.675 53.1021L128.253 68.4585C128.25 68.483 128.237 68.5055 128.217 68.521L116.129 78.2964C116.058 78.3539 115.953 78.2939 115.967 78.2036L118.389 62.8462C118.393 62.822 118.406 62.8002 118.425 62.7847L130.514 53.0083ZM68.9664 53.1011C68.9521 53.0106 69.0573 52.9498 69.1285 53.0073L81.2164 62.7827C81.2356 62.7983 81.2486 62.8208 81.2525 62.8452L83.6744 78.2017C83.6887 78.2921 83.5835 78.353 83.5123 78.2954L71.4244 68.52C71.4052 68.5045 71.3921 68.4819 71.3883 68.4575L68.9664 53.1011Z"/>
</mask>
<path d="M166.559 54.7564C167.384 54.0069 168.627 54.9212 168.131 55.9126L155.603 80.9683C155.303 81.5688 155.667 82.2759 156.33 82.3794L161.467 83.1822C162.293 83.3111 162.59 84.3275 161.967 84.8931L149.212 96.481C149.075 96.6063 148.973 96.7658 148.92 96.9429L145.042 110.034C145.014 110.125 145.001 110.221 145.001 110.316V121.901C145.001 122.078 145.048 122.252 145.139 122.403L150.129 130.717C150.601 131.504 149.822 132.464 148.94 132.183L139.838 129.28C139.621 129.21 139.384 129.217 139.168 129.299L118.534 137.177C117.445 137.593 116.655 136.164 117.587 135.462L134.82 122.475C135.073 122.284 135.224 121.988 135.225 121.675L135.33 101.191L111.534 106.464L105.72 112.278L100.946 126.235C100.637 127.137 99.3618 127.137 99.0533 126.235L94.2779 112.278L88.1988 106.199L64.3082 100.58L64.4166 121.675C64.4182 121.988 64.5685 122.284 64.8219 122.475L82.0553 135.462C82.9863 136.164 82.197 137.593 81.108 137.177L60.441 129.287C60.2456 129.212 60.0326 129.199 59.8316 129.25L50.6402 131.547C49.7547 131.769 49.0379 130.792 49.5299 130.035L54.484 122.414C54.5865 122.256 54.6412 122.071 54.6412 121.882V110.316C54.6412 110.221 54.6274 110.125 54.6002 110.034L50.7262 96.9624C50.67 96.7732 50.5591 96.6036 50.4068 96.4751L36.4303 84.6831C35.7536 84.1122 36.0811 83.0287 36.9566 82.9409L43.2213 82.314C43.9121 82.2446 44.3129 81.5173 44.0025 80.896L31.5103 55.9126C31.0146 54.9212 32.2579 54.0069 33.0826 54.7564L56.44 75.9888C56.5722 76.109 56.6701 76.2614 56.7242 76.4302L58.2388 81.1607L85.5709 92.4273L93.7447 84.2534L99.025 61.2466C99.2625 60.2116 100.737 60.2116 100.974 61.2466L106.255 84.2554L114.555 92.5552L141.213 81.7476L142.918 76.4302C142.972 76.2614 143.07 76.109 143.202 75.9888L166.559 54.7564ZM130.514 53.0083C130.585 52.9511 130.69 53.0117 130.675 53.1021L128.253 68.4585C128.25 68.483 128.237 68.5055 128.217 68.521L116.129 78.2964C116.058 78.3539 115.953 78.2939 115.967 78.2036L118.389 62.8462C118.393 62.822 118.406 62.8002 118.425 62.7847L130.514 53.0083ZM68.9664 53.1011C68.9521 53.0106 69.0573 52.9498 69.1285 53.0073L81.2164 62.7827C81.2356 62.7983 81.2486 62.8208 81.2525 62.8452L83.6744 78.2017C83.6887 78.2921 83.5835 78.353 83.5123 78.2954L71.4244 68.52C71.4052 68.5045 71.3921 68.4819 71.3883 68.4575L68.9664 53.1011Z" fill="#632727"/>
<path d="M166.559 54.7564L163.196 51.0562L163.196 51.0565L166.559 54.7564ZM168.131 55.9126L172.604 58.1488L172.604 58.1487L168.131 55.9126ZM155.603 80.9683L151.131 78.7321L151.131 78.7323L155.603 80.9683ZM156.33 82.3794L157.102 77.4394L157.101 77.4393L156.33 82.3794ZM161.467 83.1822L160.696 88.1222L160.696 88.1222L161.467 83.1822ZM161.967 84.8931L165.33 88.5939L165.33 88.5937L161.967 84.8931ZM149.212 96.481L145.85 92.7802L145.85 92.7808L149.212 96.481ZM148.92 96.9429L144.127 95.5211L144.127 95.5224L148.92 96.9429ZM145.042 110.034L149.836 111.454L149.836 111.454L145.042 110.034ZM145.001 110.316L140.001 110.316V110.316H145.001ZM145.001 121.901H140.001V121.901L145.001 121.901ZM145.139 122.403L140.852 124.975L140.852 124.976L145.139 122.403ZM150.129 130.717L154.417 128.145L154.417 128.144L150.129 130.717ZM148.94 132.183L147.421 136.947L147.421 136.947L148.94 132.183ZM139.838 129.28L138.319 134.043L138.319 134.043L139.838 129.28ZM139.168 129.299L137.386 124.628L137.384 124.628L139.168 129.299ZM118.534 137.177L120.317 141.849L120.317 141.848L118.534 137.177ZM117.587 135.462L120.596 139.456L120.596 139.455L117.587 135.462ZM134.82 122.475L131.811 118.482L131.811 118.482L134.82 122.475ZM135.225 121.675L130.225 121.65V121.65L135.225 121.675ZM135.33 101.191L140.33 101.216L140.362 94.9545L134.248 96.3094L135.33 101.191ZM111.534 106.464L110.452 101.583L109.029 101.898L107.998 102.929L111.534 106.464ZM105.72 112.278L102.185 108.742L101.365 109.562L100.989 110.66L105.72 112.278ZM100.946 126.235L105.677 127.854L105.677 127.853L100.946 126.235ZM99.0533 126.235L103.784 124.616L103.784 124.616L99.0533 126.235ZM94.2779 112.278L99.0087 110.659L98.6333 109.562L97.8134 108.742L94.2779 112.278ZM88.1988 106.199L91.7343 102.663L90.7284 101.657L89.3436 101.332L88.1988 106.199ZM64.3082 100.58L65.453 95.7124L59.2756 94.2595L59.3083 100.605L64.3082 100.58ZM64.4166 121.675L69.4165 121.65V121.65L64.4166 121.675ZM64.8219 122.475L67.8311 118.482L67.831 118.482L64.8219 122.475ZM82.0553 135.462L79.046 139.455L79.0461 139.456L82.0553 135.462ZM81.108 137.177L79.3246 141.848L79.3252 141.849L81.108 137.177ZM60.441 129.287L62.2244 124.616L62.2242 124.615L60.441 129.287ZM59.8316 129.25L58.6203 124.398L58.6189 124.399L59.8316 129.25ZM50.6402 131.547L51.8528 136.398L51.8529 136.398L50.6402 131.547ZM49.5299 130.035L45.3377 127.31L45.3366 127.311L49.5299 130.035ZM54.484 122.414L58.6761 125.139L58.6762 125.138L54.484 122.414ZM54.6412 121.882L59.6412 121.882V121.882H54.6412ZM54.6412 110.316H59.6412V110.316L54.6412 110.316ZM54.6002 110.034L59.3941 108.613L59.3941 108.613L54.6002 110.034ZM50.7262 96.9624L55.52 95.5416L55.5195 95.5399L50.7262 96.9624ZM50.4068 96.4751L53.6311 92.6536L53.6311 92.6536L50.4068 96.4751ZM36.4303 84.6831L33.2059 88.5046L33.206 88.5047L36.4303 84.6831ZM36.9566 82.9409L36.4587 77.9658L36.4577 77.9659L36.9566 82.9409ZM43.2213 82.314L43.7192 87.2891L43.7209 87.289L43.2213 82.314ZM44.0025 80.896L48.4755 78.6616L48.4746 78.6599L44.0025 80.896ZM31.5103 55.9126L27.0382 58.1487L27.0382 58.1488L31.5103 55.9126ZM33.0826 54.7564L36.4458 51.0565L36.4455 51.0562L33.0826 54.7564ZM56.44 75.9888L59.805 72.2906L59.8032 72.289L56.44 75.9888ZM56.7242 76.4302L61.4861 74.9055L61.4859 74.9049L56.7242 76.4302ZM58.2388 81.1607L53.477 82.6854L54.1854 84.8979L56.3333 85.7833L58.2388 81.1607ZM85.5709 92.4273L83.6654 97.0499L86.7484 98.3208L89.1064 95.9628L85.5709 92.4273ZM93.7447 84.2534L97.2802 87.789L98.2965 86.7727L98.618 85.3719L93.7447 84.2534ZM99.025 61.2466L103.898 62.3651L103.898 62.3651L99.025 61.2466ZM100.974 61.2466L105.847 60.128L105.847 60.1278L100.974 61.2466ZM106.255 84.2554L101.382 85.374L101.704 86.7747L102.72 87.7909L106.255 84.2554ZM114.555 92.5552L111.02 96.0907L113.363 98.4339L116.434 97.1889L114.555 92.5552ZM141.213 81.7476L143.092 86.3813L145.261 85.502L145.975 83.2735L141.213 81.7476ZM142.918 76.4302L147.679 77.9561L147.679 77.9555L142.918 76.4302ZM143.202 75.9888L139.839 72.289L139.837 72.2905L143.202 75.9888ZM130.514 53.0083L127.382 49.1112L127.376 49.1159L127.37 49.1205L130.514 53.0083ZM130.675 53.1021L135.614 53.881V53.881L130.675 53.1021ZM128.253 68.4585L133.192 69.2375L133.192 69.2374L128.253 68.4585ZM128.217 68.521L131.361 72.4088L131.361 72.4088L128.217 68.521ZM116.129 78.2964L112.985 74.4086L112.985 74.4086L116.129 78.2964ZM115.967 78.2036L111.028 77.4248L111.026 77.4372L115.967 78.2036ZM118.389 62.8462L113.453 62.0511L113.452 62.0592L113.45 62.0673L118.389 62.8462ZM118.425 62.7847L115.281 58.8969L115.274 58.9024L115.268 58.9079L118.425 62.7847ZM68.9664 53.1011L73.9053 52.3222L73.9053 52.3221L68.9664 53.1011ZM69.1285 53.0073L65.9845 56.8951L65.9845 56.8952L69.1285 53.0073ZM81.2164 62.7827L84.3605 58.895L84.3604 58.8949L81.2164 62.7827ZM81.2525 62.8452L86.1915 62.0663L86.1909 62.0627L81.2525 62.8452ZM83.6744 78.2017L78.7354 78.9806L78.7354 78.9806L83.6744 78.2017ZM83.5123 78.2954L86.6563 74.4076L86.6563 74.4076L83.5123 78.2954ZM71.4244 68.52L68.2803 72.4078L68.2804 72.4078L71.4244 68.52ZM71.3883 68.4575L66.4493 69.2365L66.4503 69.2426L71.3883 68.4575ZM166.559 54.7564L169.922 58.4565C168.366 59.871 166.209 59.6884 164.878 58.7097C163.53 57.7184 162.68 55.6356 163.659 53.6765L168.131 55.9126L172.604 58.1487C174.079 55.1982 172.855 52.1626 170.803 50.6536C168.768 49.1572 165.577 48.8923 163.196 51.0562L166.559 54.7564ZM168.131 55.9126L163.659 53.6765L151.131 78.7321L155.603 80.9683L160.075 83.2044L172.604 58.1488L168.131 55.9126ZM155.603 80.9683L151.131 78.7323C149.319 82.3557 151.545 86.6926 155.558 87.3195L156.33 82.3794L157.101 77.4393C159.789 77.8592 161.286 80.782 160.075 83.2042L155.603 80.9683ZM156.33 82.3794L155.558 87.3195L160.696 88.1222L161.467 83.1822L162.239 78.2421L157.102 77.4394L156.33 82.3794ZM161.467 83.1822L160.696 88.1222C157.265 87.5863 156.198 83.3797 158.605 81.1925L161.967 84.8931L165.33 88.5937C168.982 85.2753 167.32 79.0359 162.239 78.2421L161.467 83.1822ZM161.967 84.8931L158.605 81.1923L145.85 92.7802L149.212 96.481L152.575 100.182L165.33 88.5939L161.967 84.8931ZM149.212 96.481L145.85 92.7808C145.055 93.5026 144.447 94.4429 144.127 95.5211L148.92 96.9429L153.714 98.3647C153.499 99.0888 153.094 99.71 152.575 100.181L149.212 96.481ZM148.92 96.9429L144.127 95.5224L140.248 108.613L145.042 110.034L149.836 111.454L153.714 98.3634L148.92 96.9429ZM145.042 110.034L140.248 108.613C140.084 109.165 140.001 109.738 140.001 110.316L145.001 110.316L150.001 110.316C150.001 110.703 149.945 111.086 149.836 111.454L145.042 110.034ZM145.001 110.316H140.001V121.901H145.001H150.001V110.316H145.001ZM145.001 121.901L140.001 121.901C140.001 122.98 140.292 124.043 140.852 124.975L145.139 122.403L149.427 119.83C149.805 120.46 150.001 121.177 150.001 121.901L145.001 121.901ZM145.139 122.403L140.852 124.976L145.842 133.29L150.129 130.717L154.417 128.144L149.426 119.83L145.139 122.403ZM150.129 130.717L145.842 133.29C143.824 129.927 147.169 126.37 150.459 127.419L148.94 132.183L147.421 136.947C152.475 138.559 157.379 133.081 154.417 128.145L150.129 130.717ZM148.94 132.183L150.46 127.42L141.358 124.516L139.838 129.28L138.319 134.043L147.421 136.947L148.94 132.183ZM139.838 129.28L141.358 124.516C140.054 124.1 138.653 124.144 137.386 124.628L139.168 129.299L140.949 133.971C140.114 134.29 139.187 134.32 138.319 134.043L139.838 129.28ZM139.168 129.299L137.384 124.628L116.75 132.506L118.534 137.177L120.317 141.848L140.951 133.97L139.168 129.299ZM118.534 137.177L116.751 132.506C121.094 130.848 124.269 136.688 120.596 139.456L117.587 135.462L114.577 131.469C109.042 135.641 113.796 144.337 120.317 141.849L118.534 137.177ZM117.587 135.462L120.596 139.455L137.829 126.468L134.82 122.475L131.811 118.482L114.577 131.469L117.587 135.462ZM134.82 122.475L137.829 126.468C139.305 125.356 140.215 123.604 140.225 121.701L135.225 121.675L130.225 121.65C130.232 120.371 130.842 119.212 131.811 118.482L134.82 122.475ZM135.225 121.675L140.225 121.701L140.33 101.216L135.33 101.191L130.33 101.165L130.225 121.65L135.225 121.675ZM135.33 101.191L134.248 96.3094L110.452 101.583L111.534 106.464L112.616 111.346L136.411 106.073L135.33 101.191ZM111.534 106.464L107.998 102.929L102.185 108.742L105.72 112.278L109.256 115.813L115.069 110L111.534 106.464ZM105.72 112.278L100.989 110.66L96.215 124.617L100.946 126.235L105.677 127.853L110.451 113.896L105.72 112.278ZM100.946 126.235L96.2152 124.616C97.4491 121.01 102.55 121.009 103.784 124.616L99.0533 126.235L94.3225 127.853C96.1738 133.264 103.826 133.263 105.677 127.854L100.946 126.235ZM99.0533 126.235L103.784 124.616L99.0087 110.659L94.2779 112.278L89.5472 113.896L94.3225 127.854L99.0533 126.235ZM94.2779 112.278L97.8134 108.742L91.7343 102.663L88.1988 106.199L84.6633 109.734L90.7424 115.813L94.2779 112.278ZM88.1988 106.199L89.3436 101.332L65.453 95.7124L64.3082 100.58L63.1634 105.447L87.054 111.066L88.1988 106.199ZM64.3082 100.58L59.3083 100.605L59.4166 121.701L64.4166 121.675L69.4165 121.65L69.3081 100.554L64.3082 100.58ZM64.4166 121.675L59.4166 121.701C59.4263 123.604 60.3372 125.356 61.8127 126.468L64.8219 122.475L67.831 118.482C68.7997 119.212 69.41 120.371 69.4165 121.65L64.4166 121.675ZM64.8219 122.475L61.8126 126.468L79.046 139.455L82.0553 135.462L85.0645 131.469L67.8311 118.482L64.8219 122.475ZM82.0553 135.462L79.0461 139.456C75.3724 136.687 78.5486 130.849 82.8908 132.506L81.108 137.177L79.3252 141.849C85.8453 144.337 90.6001 135.641 85.0644 131.469L82.0553 135.462ZM81.108 137.177L82.8914 132.506L62.2244 124.616L60.441 129.287L58.6576 133.958L79.3246 141.848L81.108 137.177ZM60.441 129.287L62.2242 124.615C61.0761 124.177 59.818 124.099 58.6203 124.398L59.8316 129.25L61.0429 134.101C60.2472 134.299 59.4152 134.247 58.6578 133.958L60.441 129.287ZM59.8316 129.25L58.6189 124.399L49.4275 126.697L50.6402 131.547L51.8529 136.398L61.0443 134.1L59.8316 129.25ZM50.6402 131.547L49.4276 126.697C52.7122 125.876 55.8356 129.505 53.7232 132.758L49.5299 130.035L45.3366 127.311C42.2403 132.079 46.7971 137.662 51.8528 136.398L50.6402 131.547ZM49.5299 130.035L53.722 132.76L58.6761 125.139L54.484 122.414L50.2918 119.689L45.3377 127.31L49.5299 130.035ZM54.484 122.414L58.6762 125.138C59.3072 124.168 59.6412 123.037 59.6412 121.882L54.6412 121.882L49.6412 121.882C49.6412 121.106 49.8659 120.344 50.2917 119.689L54.484 122.414ZM54.6412 121.882H59.6412V110.316H54.6412H49.6412V121.882H54.6412ZM54.6412 110.316L59.6412 110.316C59.6412 109.738 59.5576 109.165 59.3941 108.613L54.6002 110.034L49.8062 111.454C49.6972 111.086 49.6412 110.703 49.6412 110.316L54.6412 110.316ZM54.6002 110.034L59.3941 108.613L55.52 95.5416L50.7262 96.9624L45.9323 98.3832L49.8063 111.455L54.6002 110.034ZM50.7262 96.9624L55.5195 95.5399C55.1844 94.4107 54.5259 93.4086 53.6311 92.6536L50.4068 96.4751L47.1825 100.297C46.5922 99.7986 46.1556 99.1357 45.9328 98.3849L50.7262 96.9624ZM50.4068 96.4751L53.6311 92.6536L39.6545 80.8616L36.4303 84.6831L33.206 88.5047L47.1826 100.297L50.4068 96.4751ZM36.4303 84.6831L39.6546 80.8617C42.2628 83.0623 41.094 87.5511 37.4556 87.916L36.9566 82.9409L36.4577 77.9659C31.0682 78.5064 29.2443 85.1621 33.2059 88.5046L36.4303 84.6831ZM36.9566 82.9409L37.4545 87.9161L43.7192 87.2891L43.2213 82.314L42.7234 77.3388L36.4587 77.9658L36.9566 82.9409ZM43.2213 82.314L43.7209 87.289C47.8955 86.8697 50.3498 82.4135 48.4755 78.6616L44.0025 80.896L39.5296 83.1305C38.2761 80.6212 39.9286 77.6195 42.7217 77.339L43.2213 82.314ZM44.0025 80.896L48.4746 78.6599L35.9824 53.6765L31.5103 55.9126L27.0382 58.1488L39.5304 83.1322L44.0025 80.896ZM31.5103 55.9126L35.9825 53.6765C36.962 55.6356 36.1116 57.7183 34.7635 58.7097C33.4327 59.6884 31.276 59.871 29.7197 58.4565L33.0826 54.7564L36.4455 51.0562C34.0645 48.8923 30.8739 49.1572 28.8391 50.6536C26.7871 52.1626 25.563 55.1983 27.0382 58.1487L31.5103 55.9126ZM33.0826 54.7564L29.7194 58.4562L53.0768 79.6886L56.44 75.9888L59.8032 72.289L36.4458 51.0565L33.0826 54.7564ZM56.44 75.9888L53.075 79.687C52.5622 79.2204 52.1768 78.6245 51.9625 77.9555L56.7242 76.4302L61.4859 74.9049C61.1635 73.8984 60.5822 72.9977 59.805 72.2906L56.44 75.9888ZM56.7242 76.4302L51.9623 77.9549L53.477 82.6854L58.2388 81.1607L63.0007 79.636L61.4861 74.9055L56.7242 76.4302ZM58.2388 81.1607L56.3333 85.7833L83.6654 97.0499L85.5709 92.4273L87.4764 87.8046L60.1444 76.538L58.2388 81.1607ZM85.5709 92.4273L89.1064 95.9628L97.2802 87.789L93.7447 84.2534L90.2092 80.7179L82.0353 88.8917L85.5709 92.4273ZM93.7447 84.2534L98.618 85.3719L103.898 62.3651L99.025 61.2466L94.1517 60.1281L88.8714 83.135L93.7447 84.2534ZM99.025 61.2466L103.898 62.3651C102.948 66.5068 97.0511 66.5039 96.101 62.3654L100.974 61.2466L105.847 60.1278C104.422 53.9193 95.5773 53.9163 94.1517 60.1281L99.025 61.2466ZM100.974 61.2466L96.1009 62.3652L101.382 85.374L106.255 84.2554L111.129 83.1368L105.847 60.128L100.974 61.2466ZM106.255 84.2554L102.72 87.7909L111.02 96.0907L114.555 92.5552L118.091 89.0197L109.791 80.7199L106.255 84.2554ZM114.555 92.5552L116.434 97.1889L143.092 86.3813L141.213 81.7476L139.335 77.1139L112.677 87.9215L114.555 92.5552ZM141.213 81.7476L145.975 83.2735L147.679 77.9561L142.918 76.4302L138.156 74.9043L136.452 80.2216L141.213 81.7476ZM142.918 76.4302L147.679 77.9555C147.465 78.6244 147.08 79.2203 146.567 79.6871L143.202 75.9888L139.837 72.2905C139.06 72.9978 138.478 73.8985 138.156 74.9049L142.918 76.4302ZM143.202 75.9888L146.565 79.6886L169.922 58.4562L166.559 54.7564L163.196 51.0565L139.839 72.289L143.202 75.9888ZM130.514 53.0083L133.647 56.9054C130.127 59.7343 125.044 56.7135 125.736 52.3231L130.675 53.1021L135.614 53.881C136.335 49.31 131.043 46.1679 127.382 49.1112L130.514 53.0083ZM130.675 53.1021L125.736 52.3231L123.315 67.6796L128.253 68.4585L133.192 69.2374L135.614 53.881L130.675 53.1021ZM128.253 68.4585L123.315 67.6795C123.504 66.4753 124.135 65.3922 125.073 64.6333L128.217 68.521L131.361 72.4088C132.338 71.6187 132.995 70.4907 133.192 69.2375L128.253 68.4585ZM128.217 68.521L125.073 64.6332L112.985 74.4086L116.129 78.2964L119.274 82.1842L131.361 72.4088L128.217 68.521ZM116.129 78.2964L112.985 74.4086C116.43 71.6234 121.603 74.491 120.908 78.9701L115.967 78.2036L111.026 77.4372C110.304 82.0968 115.687 85.0845 119.274 82.1842L116.129 78.2964ZM115.967 78.2036L120.906 78.9825L123.328 63.6251L118.389 62.8462L113.45 62.0673L111.028 77.4248L115.967 78.2036ZM118.389 62.8462L123.326 63.6413C123.122 64.9048 122.452 65.9534 121.583 66.6614L118.425 62.7847L115.268 58.9079C114.36 59.647 113.664 60.7392 113.453 62.0511L118.389 62.8462ZM118.425 62.7847L121.569 66.6725L133.658 56.8961L130.514 53.0083L127.37 49.1205L115.281 58.8969L118.425 62.7847ZM68.9664 53.1011L73.9053 52.3221C74.6019 56.7384 69.486 59.7269 65.9845 56.8951L69.1285 53.0073L72.2725 49.1195C68.6286 46.1727 63.3024 49.2829 64.0274 53.88L68.9664 53.1011ZM69.1285 53.0073L65.9845 56.8952L78.0723 66.6705L81.2164 62.7827L84.3604 58.8949L72.2725 49.1195L69.1285 53.0073ZM81.2164 62.7827L78.0723 66.6705C77.1318 65.9099 76.5042 64.8269 76.3141 63.6277L81.2525 62.8452L86.1909 62.0627C85.9931 60.8147 85.3394 59.6867 84.3605 58.895L81.2164 62.7827ZM81.2525 62.8452L76.3136 63.6242L78.7354 78.9806L83.6744 78.2017L88.6133 77.4228L86.1915 62.0663L81.2525 62.8452ZM83.6744 78.2017L78.7354 78.9806C78.0389 74.5644 83.1548 71.5759 86.6563 74.4076L83.5123 78.2954L80.3682 82.1832C84.0122 85.1301 89.3384 82.0199 88.6133 77.4227L83.6744 78.2017ZM83.5123 78.2954L86.6563 74.4076L74.5684 64.6322L71.4244 68.52L68.2804 72.4078L80.3682 82.1832L83.5123 78.2954ZM71.4244 68.52L74.5685 64.6323C75.5104 65.394 76.1362 66.4769 76.3263 67.6725L71.3883 68.4575L66.4503 69.2426C66.6481 70.487 67.2999 71.615 68.2803 72.4078L71.4244 68.52ZM71.3883 68.4575L76.3272 67.6786L73.9053 52.3222L68.9664 53.1011L64.0274 53.88L66.4493 69.2365L71.3883 68.4575Z" fill="#471E1E" mask="url(#path-6-outside-2_1246_193)"/>
<path d="M48.7673 83.2673C48.0067 82.5067 48.8189 81.246 49.8259 81.624L99.7615 100.371C99.9837 100.454 100.228 100.456 100.452 100.375L148.357 83.1313C149.291 82.7951 150.091 83.8781 149.496 84.6722L141.203 95.729C141.071 95.9048 140.885 96.0322 140.674 96.0917L100.375 107.424C100.199 107.474 100.012 107.474 99.8358 107.425L62.7527 97.0706C62.587 97.0243 62.4361 96.9361 62.3145 96.8145L48.7673 83.2673Z" fill="#7D3131"/>
<path d="M130.715 52.844L128.246 68.4956L115.926 78.4592L118.394 62.8076L130.715 52.844Z" fill="#7D3131"/>
<path d="M128.121 57.3374L126.518 67.4979L118.52 73.9658L120.123 63.8054L128.121 57.3374Z" fill="#B24646"/>
<path d="M68.926 52.844L81.2464 62.8075L83.7149 78.4591L71.3945 68.4956L68.926 52.844Z" fill="#7D3131"/>
<path d="M71.561 57.4077L79.4911 63.8208L81.0799 73.895L73.1498 67.4819L71.561 57.4077Z" fill="#B24646"/>
<path d="M100 82L116 98L100 114L84 98L100 82Z" fill="#7D3131"/>
<path d="M100 77L109 98L100 119L91 98L100 77Z" fill="#7D3131"/>
<path d="M100 87L111 98L100 109L89 98L100 87Z" fill="#B24646"/>
<path d="M100 83L107 98L100 113L93 98L100 83Z" fill="#B24646"/>
<path d="M39.0921 63.419L54.531 78.1702L63.7022 97.4535L48.2633 82.7023L39.0921 63.419Z" fill="#7D3131"/>
<path d="M48.5 83L62.5 96.5L63 127L59.5 126L56 127L56.5 108.5L48.5 83Z" fill="#7D3131"/>
<path d="M151.5 83L137.5 96.5L137 127L140.5 126L144 127L143.5 108.5L151.5 83Z" fill="#7D3131"/>
<path d="M161.744 63.2662L146.305 78.0173L137.134 97.3006L152.573 82.5495L161.744 63.2662Z" fill="#7D3131"/>
</svg>
