<svg width="200" height="200" viewBox="0 0 200 200" fill="none" xmlns="http://www.w3.org/2000/svg">
<path d="M59 90H143V106.5L99.5 117L60 108L59 90Z" fill="black" fill-opacity="0.25"/>
<path d="M136.359 52.7832C136.794 52.6591 137.254 52.6551 137.69 52.7715L152.929 56.835C154.459 57.2429 155.228 58.952 154.521 60.3682L147.146 75.1182C146.722 75.9649 145.857 76.4999 144.91 76.5H45.5732C44.0856 76.5 42.9271 75.2084 43.0879 73.7295L44.6455 59.3975C44.7495 58.4418 45.3923 57.6305 46.2988 57.3105L58.8369 52.8848C59.3233 52.7132 59.8512 52.6969 60.3477 52.8369L96.4551 63.0205C97.7947 63.3984 99.2134 63.3961 100.552 63.0137L136.359 52.7832Z" fill="#4C3F3F" stroke="#352B2B" stroke-width="5"/>
<rect x="49.5" y="60.5" width="101" height="34" rx="16.5" fill="#4C3F3F" stroke="#332118" stroke-width="5"/>
<rect x="55" y="66" width="92" height="33" rx="16.5" fill="#352B2B"/>
<mask id="path-5-outside-1_1243_1176" maskUnits="userSpaceOnUse" x="39.8445" y="54.019" width="122" height="86" fill="black">
<rect fill="white" x="39.8445" y="54.019" width="122" height="86"/>
<path d="M63.3827 74.5419C63.4001 74.5584 63.4228 74.5681 63.4467 74.5693L99.4165 76.3194L137.464 74.4989C137.488 74.4978 137.51 74.4884 137.527 74.4726L152.708 60.4908C152.764 60.439 152.855 60.4669 152.873 60.5413L155.982 73.6711C155.985 73.6852 155.985 73.6998 155.982 73.7139L151.267 97.0987C151.266 97.1052 151.265 97.1118 151.265 97.1184L151.243 116.454C151.243 116.482 151.231 116.509 151.209 116.528L150.713 116.973C150.679 117.003 150.67 117.051 150.689 117.091C151.105 118.002 151.189 119.083 150.781 120.158L146.941 130.268C146.371 131.769 144.957 132.783 143.352 132.844L99.4995 134.5L56.8237 132.854C55.1313 132.788 53.6628 131.664 53.1587 130.047L50.1255 120.316C49.8965 119.582 49.8871 118.856 50.0484 118.19C50.0571 118.154 50.0461 118.116 50.0191 118.091L49.6809 117.779C49.6605 117.76 49.6489 117.733 49.6488 117.706L49.5981 97.7822C49.5981 97.7758 49.5975 97.7694 49.5963 97.7631L44.8464 73.6635C44.8437 73.6498 44.8439 73.6356 44.847 73.6219L47.9379 60.0968C47.9552 60.0213 48.0481 59.9933 48.1043 60.0466L63.3827 74.5419ZM59.4589 116.293C59.4483 116.346 59.4806 116.397 59.5324 116.41L98.5258 126.254C99.1654 126.415 99.8352 126.416 100.475 126.256L141.525 115.993C141.577 115.98 141.61 115.928 141.599 115.876L137.906 98.3398C137.895 98.2851 137.841 98.2505 137.786 98.2629L99.646 106.948C99.4956 106.983 99.3389 106.982 99.1889 106.945L63.2283 98.2539C63.1732 98.2406 63.118 98.2757 63.1068 98.3312L59.4589 116.293Z"/>
</mask>
<path d="M63.3827 74.5419C63.4001 74.5584 63.4228 74.5681 63.4467 74.5693L99.4165 76.3194L137.464 74.4989C137.488 74.4978 137.51 74.4884 137.527 74.4726L152.708 60.4908C152.764 60.439 152.855 60.4669 152.873 60.5413L155.982 73.6711C155.985 73.6852 155.985 73.6998 155.982 73.7139L151.267 97.0987C151.266 97.1052 151.265 97.1118 151.265 97.1184L151.243 116.454C151.243 116.482 151.231 116.509 151.209 116.528L150.713 116.973C150.679 117.003 150.67 117.051 150.689 117.091C151.105 118.002 151.189 119.083 150.781 120.158L146.941 130.268C146.371 131.769 144.957 132.783 143.352 132.844L99.4995 134.5L56.8237 132.854C55.1313 132.788 53.6628 131.664 53.1587 130.047L50.1255 120.316C49.8965 119.582 49.8871 118.856 50.0484 118.19C50.0571 118.154 50.0461 118.116 50.0191 118.091L49.6809 117.779C49.6605 117.76 49.6489 117.733 49.6488 117.706L49.5981 97.7822C49.5981 97.7758 49.5975 97.7694 49.5963 97.7631L44.8464 73.6635C44.8437 73.6498 44.8439 73.6356 44.847 73.6219L47.9379 60.0968C47.9552 60.0213 48.0481 59.9933 48.1043 60.0466L63.3827 74.5419ZM59.4589 116.293C59.4483 116.346 59.4806 116.397 59.5324 116.41L98.5258 126.254C99.1654 126.415 99.8352 126.416 100.475 126.256L141.525 115.993C141.577 115.98 141.61 115.928 141.599 115.876L137.906 98.3398C137.895 98.2851 137.841 98.2505 137.786 98.2629L99.646 106.948C99.4956 106.983 99.3389 106.982 99.1889 106.945L63.2283 98.2539C63.1732 98.2406 63.118 98.2757 63.1068 98.3312L59.4589 116.293Z" fill="#4C3F3F"/>
<path d="M99.4165 76.3194L99.1735 81.3135L99.4145 81.3252L99.6554 81.3137L99.4165 76.3194ZM150.781 120.158L146.107 118.383L146.107 118.383L150.781 120.158ZM146.941 130.268L151.615 132.043L151.615 132.043L146.941 130.268ZM143.352 132.844L143.163 127.847H143.163L143.352 132.844ZM99.4995 134.5L99.3067 139.496L99.4975 139.504L99.6882 139.497L99.4995 134.5ZM56.8237 132.854L56.6309 137.85H56.6309L56.8237 132.854ZM53.1587 130.047L48.3852 131.535L48.3853 131.535L53.1587 130.047ZM50.1255 120.316L54.8989 118.828L54.8988 118.828L50.1255 120.316ZM98.5258 126.254L97.302 131.102L97.3023 131.102L98.5258 126.254ZM100.475 126.256L101.688 131.107L101.688 131.107L100.475 126.256ZM99.646 106.948L100.756 111.824L100.756 111.824L99.646 106.948ZM99.1889 106.945L98.0143 111.805L98.016 111.806L99.1889 106.945ZM137.906 98.3398L133.013 99.3701L137.906 98.3398ZM137.786 98.2629L136.676 93.3877L137.786 98.2629ZM59.5324 116.41L58.3086 121.258L59.5324 116.41ZM59.4589 116.293L64.3589 117.288L59.4589 116.293ZM47.9379 60.0968L52.8123 61.2108L47.9379 60.0968ZM44.8464 73.6635L39.9407 74.6304L44.8464 73.6635ZM44.847 73.6219L39.9727 72.508V72.508L44.847 73.6219ZM150.713 116.973L147.375 113.251L150.713 116.973ZM150.689 117.091L155.235 115.011L150.689 117.091ZM49.5981 97.7822L44.5982 97.7949L49.5981 97.7822ZM49.5963 97.7631L54.5019 96.7962L49.5963 97.7631ZM151.243 116.454L156.243 116.459L151.243 116.454ZM151.209 116.528L154.547 120.251L151.209 116.528ZM50.0484 118.19L45.189 117.013L50.0484 118.19ZM50.0191 118.091L46.6248 121.763L50.0191 118.091ZM63.2283 98.2539L62.0536 103.114L63.2283 98.2539ZM63.1068 98.3312L68.0067 99.3264L63.1068 98.3312ZM155.982 73.6711L151.116 74.8232L155.982 73.6711ZM155.982 73.7139L151.081 72.7256V72.7256L155.982 73.7139ZM152.708 60.4908L156.095 64.1686L152.708 60.4908ZM152.873 60.5413L157.738 59.3893L152.873 60.5413ZM137.464 74.4989L137.703 79.4932L137.464 74.4989ZM137.527 74.4726L134.14 70.7948L137.527 74.4726ZM49.6809 117.779L53.0752 114.107L49.6809 117.779ZM49.6488 117.706L44.6488 117.718L49.6488 117.706ZM151.267 97.0987L146.366 96.1104L151.267 97.0987ZM151.265 97.1184L146.265 97.1126V97.1126L151.265 97.1184ZM141.525 115.993L142.738 120.844L141.525 115.993ZM141.599 115.876L146.491 114.845L141.599 115.876ZM63.4467 74.5693L63.6897 69.5752L63.4467 74.5693ZM63.3827 74.5419L59.9414 78.1692L63.3827 74.5419ZM63.4467 74.5693L63.2037 79.5634L99.1735 81.3135L99.4165 76.3194L99.6595 71.3253L63.6897 69.5752L63.4467 74.5693ZM99.4165 76.3194L99.6554 81.3137L137.703 79.4932L137.464 74.4989L137.225 69.5046L99.1775 71.3251L99.4165 76.3194ZM137.527 74.4726L140.914 78.1503L156.095 64.1686L152.708 60.4908L149.32 56.8131L134.14 70.7948L137.527 74.4726ZM152.873 60.5413L148.007 61.6934L151.116 74.8232L155.982 73.6711L160.847 72.5191L157.738 59.3893L152.873 60.5413ZM155.982 73.7139L151.081 72.7256L146.366 96.1104L151.267 97.0987L156.168 98.0871L160.884 74.7023L155.982 73.7139ZM151.265 97.1184L146.265 97.1126L146.243 116.448L151.243 116.454L156.243 116.459L156.265 97.1242L151.265 97.1184ZM151.209 116.528L147.871 112.805L147.375 113.251L150.713 116.973L154.051 120.696L154.547 120.251L151.209 116.528ZM150.689 117.091L146.142 119.172C146.092 119.062 146.055 118.927 146.049 118.775C146.042 118.618 146.07 118.48 146.107 118.383L150.781 120.158L155.455 121.934C156.362 119.545 156.18 117.076 155.235 115.011L150.689 117.091ZM150.781 120.158L146.107 118.383L142.267 128.492L146.941 130.268L151.615 132.043L155.455 121.934L150.781 120.158ZM146.941 130.268L142.267 128.492C142.41 128.115 142.764 127.862 143.163 127.847L143.352 132.844L143.541 137.84C147.15 137.704 150.331 135.423 151.615 132.043L146.941 130.268ZM143.352 132.844L143.163 127.847L99.3108 129.504L99.4995 134.5L99.6882 139.497L143.541 137.84L143.352 132.844ZM99.4995 134.5L99.6922 129.504L57.0165 127.857L56.8237 132.854L56.6309 137.85L99.3067 139.496L99.4995 134.5ZM56.8237 132.854L57.0165 127.857C57.4393 127.874 57.8059 128.154 57.932 128.559L53.1587 130.047L48.3853 131.535C49.5198 135.174 52.8233 137.703 56.6309 137.85L56.8237 132.854ZM53.1587 130.047L57.9321 128.559L54.8989 118.828L50.1255 120.316L45.352 121.804L48.3852 131.535L53.1587 130.047ZM50.1255 120.316L54.8988 118.828C54.9435 118.971 54.9564 119.167 54.9079 119.367L50.0484 118.19L45.189 117.013C44.8178 118.545 44.8496 120.193 45.3521 121.805L50.1255 120.316ZM50.0191 118.091L53.4133 114.42L53.0752 114.107L49.6809 117.779L46.2866 121.45L46.6248 121.763L50.0191 118.091ZM49.6488 117.706L54.6488 117.693L54.5981 97.7695L49.5981 97.7822L44.5982 97.7949L44.6488 117.718L49.6488 117.706ZM49.5963 97.7631L54.5019 96.7962L49.752 72.6967L44.8464 73.6635L39.9407 74.6304L44.6906 98.73L49.5963 97.7631ZM44.847 73.6219L49.7213 74.7359L52.8123 61.2108L47.9379 60.0968L43.0636 58.9829L39.9727 72.508L44.847 73.6219ZM48.1043 60.0466L44.6629 63.6738L59.9414 78.1692L63.3827 74.5419L66.8241 70.9147L51.5456 56.4193L48.1043 60.0466ZM59.5324 116.41L58.3086 121.258L97.302 131.102L98.5258 126.254L99.7497 121.406L60.7563 111.562L59.5324 116.41ZM98.5258 126.254L97.3023 131.102C98.7425 131.465 100.249 131.466 101.688 131.107L100.475 126.256L99.2624 121.405C99.4212 121.366 99.5883 121.365 99.7494 121.406L98.5258 126.254ZM100.475 126.256L101.688 131.107L142.738 120.844L141.525 115.993L140.312 111.142L99.2624 121.405L100.475 126.256ZM141.599 115.876L146.491 114.845L142.799 97.3095L137.906 98.3398L133.013 99.3701L136.706 116.906L141.599 115.876ZM137.786 98.2629L136.676 93.3877L98.5358 102.073L99.646 106.948L100.756 111.824L138.896 103.138L137.786 98.2629ZM99.646 106.948L98.5359 102.073C99.137 101.936 99.7617 101.94 100.362 102.085L99.1889 106.945L98.016 111.806C98.9161 112.023 99.8541 112.029 100.756 111.824L99.646 106.948ZM99.1889 106.945L100.364 102.085L64.4029 93.3939L63.2283 98.2539L62.0536 103.114L98.0143 111.805L99.1889 106.945ZM63.1068 98.3312L58.2068 97.3361L54.5589 115.298L59.4589 116.293L64.3589 117.288L68.0067 99.3264L63.1068 98.3312ZM137.906 98.3398L142.799 97.3095C142.212 94.5214 139.454 92.755 136.676 93.3877L137.786 98.2629L138.896 103.138C136.227 103.746 133.578 102.049 133.013 99.3701L137.906 98.3398ZM59.5324 116.41L60.7563 111.562C63.2935 112.203 64.8797 114.724 64.3589 117.288L59.4589 116.293L54.5589 115.298C54.0169 117.967 55.6678 120.591 58.3086 121.258L59.5324 116.41ZM47.9379 60.0968L52.8123 61.2108C51.9667 64.911 47.4165 66.2863 44.6629 63.6738L48.1043 60.0466L51.5456 56.4193C48.6796 53.7002 43.9438 55.1316 43.0636 58.9829L47.9379 60.0968ZM44.8464 73.6635L49.752 72.6967C49.8849 73.371 49.8745 74.0658 49.7213 74.7359L44.847 73.6219L39.9727 72.508C39.8133 73.2054 39.8024 73.9285 39.9407 74.6304L44.8464 73.6635ZM150.713 116.973L147.375 113.251C145.672 114.778 145.235 117.191 146.142 119.172L150.689 117.091L155.235 115.011C156.105 116.911 155.687 119.228 154.051 120.696L150.713 116.973ZM49.5981 97.7822L54.5981 97.7695C54.5973 97.4427 54.5651 97.1168 54.5019 96.7962L49.5963 97.7631L44.6906 98.73C44.6299 98.422 44.599 98.1089 44.5982 97.7949L49.5981 97.7822ZM151.243 116.454L146.243 116.448C146.244 115.057 146.836 113.733 147.871 112.805L151.209 116.528L154.547 120.251C155.625 119.285 156.241 117.906 156.243 116.459L151.243 116.454ZM50.0484 118.19L54.9079 119.367C55.3334 117.61 54.8028 115.705 53.4133 114.42L50.0191 118.091L46.6248 121.763C45.2894 120.528 44.7808 118.698 45.189 117.013L50.0484 118.19ZM63.2283 98.2539L64.4029 93.3939C61.5937 92.7149 58.782 94.5037 58.2068 97.3361L63.1068 98.3312L68.0067 99.3264C67.4541 102.048 64.7527 103.766 62.0536 103.114L63.2283 98.2539ZM155.982 73.6711L151.116 74.8232C150.953 74.1347 150.941 73.4191 151.081 72.7256L155.982 73.7139L160.884 74.7023C161.029 73.9804 161.017 73.2356 160.847 72.5191L155.982 73.6711ZM152.708 60.4908L156.095 64.1686C153.339 66.7066 148.871 65.3391 148.007 61.6934L152.873 60.5413L157.738 59.3893C156.84 55.5948 152.189 54.1715 149.32 56.8131L152.708 60.4908ZM137.464 74.4989L137.703 79.4932C138.898 79.436 140.035 78.9607 140.914 78.1503L137.527 74.4726L134.14 70.7948C134.985 70.0162 136.077 69.5595 137.225 69.5046L137.464 74.4989ZM49.6809 117.779L53.0752 114.107C54.0752 115.032 54.6453 116.331 54.6488 117.693L49.6488 117.706L44.6488 117.718C44.6524 119.136 45.2458 120.488 46.2866 121.45L49.6809 117.779ZM151.267 97.0987L146.366 96.1104C146.299 96.4403 146.265 96.776 146.265 97.1126L151.265 97.1184L156.265 97.1242C156.265 97.4476 156.232 97.7701 156.168 98.0871L151.267 97.0987ZM141.525 115.993L142.738 120.844C145.398 120.179 147.057 117.529 146.491 114.845L141.599 115.876L136.706 116.906C136.163 114.327 137.756 111.781 140.312 111.142L141.525 115.993ZM63.4467 74.5693L63.6897 69.5752C64.8611 69.6322 65.9733 70.1074 66.8241 70.9147L63.3827 74.5419L59.9414 78.1692C60.8269 79.0093 61.9844 79.504 63.2037 79.5634L63.4467 74.5693Z" fill="#352B2B" mask="url(#path-5-outside-1_1243_1176)"/>
<path d="M47.5014 76.8469L49.0012 67.3469L57.5012 75.8469L61.0013 94.847L56.5013 115.847L51.0013 110.847L52.0013 95.847L47.5014 76.8469Z" fill="#655555"/>
<path d="M153.606 74.8469L152.106 65.3469L143.606 73.8469L140.106 92.847L144.606 113.847L150.106 108.847L149.106 93.847L153.606 74.8469Z" fill="#655555"/>
<path d="M59.8529 79.5586C59.4787 78.8747 59.9961 78.0446 60.7749 78.0795L99.6595 79.8219L139.349 78.0728C140.1 78.0397 140.617 78.8159 140.298 79.4965L133.618 93.7367C133.466 94.0614 133.152 94.2797 132.794 94.3087L99.7429 96.9932C99.6874 96.9977 99.6316 96.9976 99.5761 96.9928L68.4332 94.3078C68.0997 94.2791 67.8026 94.0853 67.6419 93.7916L59.8529 79.5586Z" fill="#655555"/>
</svg>
