<svg width="200" height="200" viewBox="0 0 200 200" fill="none" xmlns="http://www.w3.org/2000/svg">
<mask id="path-1-inside-1_1239_903" fill="white">
<path d="M60.6074 47.0378C60.6531 47.0127 60.7005 47.0132 60.7461 47.0387L61.1572 47.2682C61.1582 47.2688 61.1591 47.2696 61.1602 47.2702L72.2559 53.4762L99.8047 48.0387C99.8367 48.0324 99.869 48.0272 99.9014 48.0241C99.9667 48.0178 100.032 48.0185 100.098 48.0251C100.13 48.0283 100.163 48.0332 100.195 48.0397L148.197 57.7087C148.664 57.8027 149 58.213 149 58.6891V74.4997C149 75.052 148.552 75.4997 148 75.4997H51C50.4477 75.4997 50 75.052 50 74.4997V73.9997H43.3535C43.1583 73.9996 43 73.5604 43 73.0182V57.2829C43 57.1596 43.024 57.04 43.0664 56.9284C43.1173 56.7298 43.1939 56.5849 43.2852 56.5348L43.5146 56.4079C43.5161 56.4071 43.5181 56.4067 43.5195 56.4059L51.6221 51.9635L60.6074 47.0378Z"/>
</mask>
<path d="M60.6074 47.0378C60.6531 47.0127 60.7005 47.0132 60.7461 47.0387L61.1572 47.2682C61.1582 47.2688 61.1591 47.2696 61.1602 47.2702L72.2559 53.4762L99.8047 48.0387C99.8367 48.0324 99.869 48.0272 99.9014 48.0241C99.9667 48.0178 100.032 48.0185 100.098 48.0251C100.13 48.0283 100.163 48.0332 100.195 48.0397L148.197 57.7087C148.664 57.8027 149 58.213 149 58.6891V74.4997C149 75.052 148.552 75.4997 148 75.4997H51C50.4477 75.4997 50 75.052 50 74.4997V73.9997H43.3535C43.1583 73.9996 43 73.5604 43 73.0182V57.2829C43 57.1596 43.024 57.04 43.0664 56.9284C43.1173 56.7298 43.1939 56.5849 43.2852 56.5348L43.5146 56.4079C43.5161 56.4071 43.5181 56.4067 43.5195 56.4059L51.6221 51.9635L60.6074 47.0378Z" fill="#818B91"/>
<path d="M60.6074 47.0378L63.011 51.4222L63.0111 51.4221L60.6074 47.0378ZM60.7461 47.0387L58.305 51.4024L58.3091 51.4046L60.7461 47.0387ZM61.1572 47.2682L58.7202 51.6341L58.7312 51.6402L61.1572 47.2682ZM61.1602 47.2702L58.7191 51.6338L58.7194 51.634L61.1602 47.2702ZM72.2559 53.4762L69.8151 57.84L71.42 58.7377L73.2241 58.3816L72.2559 53.4762ZM99.8047 48.0387L98.8378 43.1331L98.8365 43.1334L99.8047 48.0387ZM99.9014 48.0241L100.385 53.0007L100.385 53.0007L99.9014 48.0241ZM100.098 48.0251L100.596 43.05L100.596 43.05L100.098 48.0251ZM100.195 48.0397L101.183 43.1382L101.182 43.1381L100.195 48.0397ZM148.197 57.7087L149.185 52.8071L149.185 52.8071L148.197 57.7087ZM51 75.4997L51 80.4997H51V75.4997ZM50 73.9997H55V68.9997H50V73.9997ZM43.3535 73.9997L43.3527 78.9997H43.3535V73.9997ZM43 73.0182H38V73.0186L43 73.0182ZM43 57.2829L38 57.2826V57.2829H43ZM43.0664 56.9284L47.7404 58.7042L47.8399 58.4423L47.9096 58.1709L43.0664 56.9284ZM43.2852 56.5348L45.6912 60.9179L45.6983 60.914L45.7055 60.91L43.2852 56.5348ZM43.5146 56.4079L45.935 60.7831L45.9397 60.7804L43.5146 56.4079ZM43.5195 56.4059L45.9232 60.7903L45.9233 60.7902L43.5195 56.4059ZM51.6221 51.9635L49.2185 47.5791L49.2183 47.5793L51.6221 51.9635ZM60.6074 47.0378L63.0111 51.4221C62.3653 51.7761 61.5544 52.0263 60.6375 52.0191C59.7234 52.012 58.9279 51.7508 58.305 51.4024L60.7461 47.0387L63.1872 42.6751C61.6619 41.8219 59.7839 41.7871 58.2038 42.6534L60.6074 47.0378ZM60.7461 47.0387L58.3091 51.4046L58.7202 51.6341L61.1572 47.2682L63.5942 42.9023L63.1831 42.6729L60.7461 47.0387ZM61.1572 47.2682L58.7312 51.6402C58.6428 51.5912 58.5663 51.5452 58.5033 51.5057C58.4404 51.4663 58.3876 51.4313 58.3474 51.404C58.3271 51.3902 58.3092 51.3778 58.2942 51.3673C58.2792 51.3568 58.2664 51.3478 58.2565 51.3407C58.2467 51.3337 58.2387 51.328 58.2338 51.3245C58.2313 51.3227 58.2293 51.3212 58.228 51.3203C58.2274 51.3198 58.2268 51.3194 58.2265 51.3192C58.2262 51.3189 58.2259 51.3187 58.2259 51.3187C58.2256 51.3185 58.2265 51.3192 58.2274 51.3198C58.2284 51.3206 58.2303 51.3219 58.2325 51.3235C58.237 51.3267 58.2445 51.3322 58.2539 51.3388C58.2633 51.3456 58.2757 51.3544 58.2902 51.3645C58.3047 51.3747 58.3221 51.3868 58.3419 51.4003C58.3811 51.427 58.4329 51.4616 58.4947 51.5005C58.5566 51.5395 58.6319 51.585 58.7191 51.6338L61.1602 47.2702L63.6012 42.9066C63.6881 42.9552 63.7632 43.0006 63.8249 43.0395C63.8864 43.0782 63.938 43.1126 63.9769 43.1391C63.9966 43.1525 64.0139 43.1646 64.0283 43.1747C64.0427 43.1847 64.0549 43.1934 64.0642 43.2001C64.0735 43.2067 64.0809 43.212 64.0852 43.2151C64.0874 43.2167 64.0892 43.218 64.0902 43.2187C64.091 43.2193 64.0919 43.22 64.0915 43.2197C64.0915 43.2197 64.0904 43.2189 64.0892 43.218C64.0878 43.217 64.0857 43.2155 64.0832 43.2137C64.0782 43.2101 64.0701 43.2043 64.0602 43.1972C64.0501 43.19 64.0372 43.1809 64.0221 43.1703C64.007 43.1597 63.989 43.1473 63.9685 43.1334C63.9281 43.1059 63.8751 43.0707 63.8119 43.0312C63.7487 42.9915 63.6719 42.9454 63.5832 42.8962L61.1572 47.2682ZM61.1602 47.2702L58.7194 51.634L69.8151 57.84L72.2559 53.4762L74.6966 49.1124L63.6009 42.9064L61.1602 47.2702ZM72.2559 53.4762L73.2241 58.3816L100.773 52.9441L99.8047 48.0387L98.8365 43.1334L71.2877 48.5709L72.2559 53.4762ZM99.8047 48.0387L100.772 52.9444C100.693 52.9599 100.557 52.9839 100.385 53.0007L99.9014 48.0241L99.4182 43.0475C99.1805 43.0706 98.981 43.1049 98.8378 43.1331L99.8047 48.0387ZM99.9014 48.0241L100.385 53.0007C100.09 53.0293 99.825 53.0228 99.5993 53.0002L100.098 48.0251L100.596 43.05C100.24 43.0143 99.8435 43.0062 99.4182 43.0475L99.9014 48.0241ZM100.098 48.0251L99.5993 53.0002C99.4721 52.9874 99.3415 52.9681 99.2084 52.9414L100.195 48.0397L101.182 43.1381C100.984 43.0982 100.789 43.0693 100.596 43.05L100.098 48.0251ZM100.195 48.0397L99.208 52.9413L147.21 62.6102L148.197 57.7087L149.185 52.8071L101.183 43.1382L100.195 48.0397ZM148.197 57.7087L147.21 62.6102C145.343 62.2342 144 60.5943 144 58.6891H149H154C154 55.8316 151.985 53.3712 149.185 52.8071L148.197 57.7087ZM149 58.6891H144V74.4997H149H154V58.6891H149ZM149 74.4997H144C144 72.2905 145.791 70.4997 148 70.4997V75.4997V80.4997C151.314 80.4997 154 77.8134 154 74.4997H149ZM148 75.4997V70.4997H51V75.4997V80.4997H148V75.4997ZM51 75.4997L51 70.4997C53.2091 70.4997 55 72.2905 55 74.4997H50H45C45 77.8134 47.6863 80.4997 51 80.4997L51 75.4997ZM50 74.4997H55V73.9997H50H45V74.4997H50ZM50 73.9997V68.9997H43.3535V73.9997V78.9997H50V73.9997ZM43.3535 73.9997L43.3543 68.9997C45.33 69 46.5504 70.1263 47.0226 70.6807C47.5116 71.255 47.7261 71.7913 47.8077 72.0177C47.9861 72.5131 48 72.8673 48 73.0179L43 73.0182L38 73.0186C38.0001 73.7113 38.0931 74.5562 38.3995 75.4067C38.545 75.8108 38.8357 76.4908 39.4093 77.1644C39.966 77.8181 41.2795 78.9994 43.3527 78.9997L43.3535 73.9997ZM43 73.0182H48V57.2829H43H38V73.0182H43ZM43 57.2829L48 57.2832C48 57.8122 47.8967 58.2929 47.7404 58.7042L43.0664 56.9284L38.3924 55.1526C38.1513 55.7871 38 56.5069 38 57.2826L43 57.2829ZM43.0664 56.9284L47.9096 58.1709C47.8663 58.3395 47.767 58.6748 47.5447 59.0802C47.3667 59.4047 46.8329 60.2912 45.6912 60.9179L43.2852 56.5348L40.8791 52.1518C39.6462 52.8286 39.0285 53.8125 38.7766 54.2717C38.4805 54.8117 38.3175 55.3187 38.2233 55.6859L43.0664 56.9284ZM43.2852 56.5348L45.7055 60.91L45.935 60.783L43.5146 56.4079L41.0943 52.0327L40.8648 52.1597L43.2852 56.5348ZM43.5146 56.4079L45.9397 60.7804C45.8676 60.8204 45.8 60.8555 45.7382 60.8863C45.6763 60.917 45.6189 60.9439 45.567 60.9672C45.5151 60.9906 45.4675 61.0109 45.4252 61.0284C45.3829 61.0459 45.3446 61.061 45.3114 61.0738C45.2782 61.0866 45.2488 61.0975 45.2244 61.1064C45.1999 61.1153 45.1789 61.1227 45.1628 61.1283C45.1468 61.1339 45.1338 61.1383 45.1259 61.141C45.1218 61.1424 45.1186 61.1435 45.1165 61.1442C45.1154 61.1445 45.1146 61.1448 45.114 61.145C45.1135 61.1452 45.1131 61.1453 45.113 61.1454C45.1126 61.1455 45.114 61.145 45.1156 61.1445C45.1173 61.1439 45.1203 61.1429 45.124 61.1416C45.1313 61.1392 45.1437 61.1349 45.159 61.1296C45.1745 61.1242 45.1948 61.1171 45.2186 61.1085C45.2425 61.0999 45.2712 61.0893 45.3037 61.0769C45.3361 61.0644 45.3737 61.0497 45.4153 61.0327C45.4569 61.0156 45.5038 60.9957 45.5549 60.9729C45.606 60.9501 45.6627 60.9238 45.7238 60.8938C45.7849 60.8638 45.8518 60.8294 45.9232 60.7903L43.5195 56.4059L41.1159 52.0216C41.1871 51.9825 41.2538 51.9483 41.3147 51.9183C41.3756 51.8884 41.4321 51.8622 41.483 51.8395C41.534 51.8168 41.5807 51.797 41.622 51.78C41.6634 51.763 41.7008 51.7484 41.7331 51.736C41.7653 51.7237 41.7939 51.7132 41.8175 51.7047C41.841 51.6961 41.8612 51.6891 41.8764 51.6838C41.8916 51.6785 41.9037 51.6743 41.9108 51.6719C41.9144 51.6707 41.9173 51.6697 41.9189 51.6692C41.9204 51.6687 41.9217 51.6683 41.9211 51.6684C41.9211 51.6685 41.9194 51.669 41.9174 51.6697C41.9152 51.6705 41.9118 51.6716 41.9076 51.673C41.8995 51.6758 41.8863 51.6803 41.8701 51.686C41.8537 51.6916 41.8326 51.6991 41.8079 51.7081C41.7832 51.7171 41.7536 51.728 41.7202 51.7409C41.6868 51.7537 41.6484 51.769 41.6058 51.7865C41.5633 51.8041 41.5155 51.8245 41.4634 51.848C41.4114 51.8714 41.3537 51.8984 41.2917 51.9292C41.2296 51.96 41.1618 51.9953 41.0896 52.0354L43.5146 56.4079ZM43.5195 56.4059L45.9233 60.7902L54.0258 56.3478L51.6221 51.9635L49.2183 47.5793L41.1158 52.0216L43.5195 56.4059ZM51.6221 51.9635L54.0256 56.3479L63.011 51.4222L60.6074 47.0378L58.2039 42.6534L49.2185 47.5791L51.6221 51.9635Z" fill="#474E52" mask="url(#path-1-inside-1_1239_903)"/>
<path d="M157.5 57.1562V70.5H127.5V57.1709L142.664 48.8574L157.5 57.1562Z" fill="#818B91" stroke="#474E52" stroke-width="5"/>
<rect x="49.5" y="60.5" width="101" height="34" rx="16.5" fill="#5D6262" stroke="#464A4A" stroke-width="5"/>
<rect x="58" y="70" width="88" height="28" rx="14" fill="#515656"/>
<mask id="path-6-outside-2_1239_903" maskUnits="userSpaceOnUse" x="35.9963" y="50.635" width="129" height="89" fill="black">
<rect fill="white" x="35.9963" y="50.635" width="129" height="89"/>
<path d="M159.502 72.6089C159.504 72.6203 159.505 72.6319 159.503 72.6433L156.326 93.6124L147.032 125.786C147.026 125.808 147.012 125.828 146.993 125.841L136.248 133.36C136.169 133.416 136.065 133.338 136.096 133.247L140.517 120.049C140.521 120.039 140.522 120.029 140.523 120.019L141.066 97.3317C141.068 97.2724 141.018 97.2249 140.958 97.2296L113.221 99.4434C113.197 99.4453 113.175 99.4556 113.158 99.4724L100.059 112.573C100.02 112.612 99.9564 112.612 99.9173 112.573L86.7434 99.399C86.7267 99.3823 86.7046 99.372 86.6811 99.37L59.5132 97.0691C59.4539 97.064 59.4033 97.1116 59.4048 97.1711L59.9779 120.985C59.9781 120.995 59.9799 121.005 59.983 121.014L64.4034 134.213C64.434 134.304 64.3303 134.381 64.2513 134.326L53.5062 126.806C53.4875 126.793 53.4738 126.774 53.4675 126.752L44.1736 94.5772L40.9975 73.6081C40.9957 73.5967 40.996 73.5851 40.9982 73.5738L44.1377 57.6815C44.1531 57.6036 44.249 57.5738 44.3058 57.6294L59.9469 72.9342C59.9669 72.9538 59.9778 72.9808 59.9769 73.0088L59.7608 80.0377C59.7594 80.0811 59.7862 80.1203 59.827 80.1349L80.6246 87.5711C80.6922 87.5953 80.7624 87.5425 80.758 87.4708L80.6117 85.0808C80.6113 85.0739 80.6116 85.0669 80.6126 85.0601L81.861 76.6097C81.875 76.5152 82.0008 76.4922 82.0473 76.5756L86.2579 84.1346C86.2609 84.14 86.2634 84.1456 86.2654 84.1514L88.0161 89.3687C88.0214 89.3844 88.0227 89.4012 88.0198 89.4176L87.9038 90.0861C87.8955 90.134 87.9228 90.181 87.9686 90.1974L90.2311 91.0061C90.2675 91.0191 90.3082 91.01 90.3355 90.9827L99.9173 81.4018C99.9564 81.3628 100.02 81.3628 100.059 81.4018L109.689 91.0317C109.716 91.0589 109.756 91.0681 109.793 91.0554L112.731 90.0222C112.777 90.0061 112.804 89.9591 112.796 89.911L112.758 89.689C112.755 89.6727 112.756 89.6559 112.762 89.6402L114.513 84.4229C114.515 84.4171 114.518 84.4114 114.521 84.4061L118.731 76.8472C118.778 76.7637 118.904 76.7867 118.918 76.8812L120.165 85.3316C120.166 85.3384 120.167 85.3454 120.166 85.3523L120.046 87.3027C120.042 87.3741 120.112 87.4269 120.179 87.4032L140.702 80.1855C140.743 80.171 140.77 80.1316 140.769 80.0881L140.524 72.0439C140.523 72.016 140.534 71.989 140.554 71.9694L156.194 56.6636C156.251 56.608 156.346 56.6377 156.362 56.7157L159.502 72.6089Z"/>
</mask>
<path d="M159.502 72.6089C159.504 72.6203 159.505 72.6319 159.503 72.6433L156.326 93.6124L147.032 125.786C147.026 125.808 147.012 125.828 146.993 125.841L136.248 133.36C136.169 133.416 136.065 133.338 136.096 133.247L140.517 120.049C140.521 120.039 140.522 120.029 140.523 120.019L141.066 97.3317C141.068 97.2724 141.018 97.2249 140.958 97.2296L113.221 99.4434C113.197 99.4453 113.175 99.4556 113.158 99.4724L100.059 112.573C100.02 112.612 99.9564 112.612 99.9173 112.573L86.7434 99.399C86.7267 99.3823 86.7046 99.372 86.6811 99.37L59.5132 97.0691C59.4539 97.064 59.4033 97.1116 59.4048 97.1711L59.9779 120.985C59.9781 120.995 59.9799 121.005 59.983 121.014L64.4034 134.213C64.434 134.304 64.3303 134.381 64.2513 134.326L53.5062 126.806C53.4875 126.793 53.4738 126.774 53.4675 126.752L44.1736 94.5772L40.9975 73.6081C40.9957 73.5967 40.996 73.5851 40.9982 73.5738L44.1377 57.6815C44.1531 57.6036 44.249 57.5738 44.3058 57.6294L59.9469 72.9342C59.9669 72.9538 59.9778 72.9808 59.9769 73.0088L59.7608 80.0377C59.7594 80.0811 59.7862 80.1203 59.827 80.1349L80.6246 87.5711C80.6922 87.5953 80.7624 87.5425 80.758 87.4708L80.6117 85.0808C80.6113 85.0739 80.6116 85.0669 80.6126 85.0601L81.861 76.6097C81.875 76.5152 82.0008 76.4922 82.0473 76.5756L86.2579 84.1346C86.2609 84.14 86.2634 84.1456 86.2654 84.1514L88.0161 89.3687C88.0214 89.3844 88.0227 89.4012 88.0198 89.4176L87.9038 90.0861C87.8955 90.134 87.9228 90.181 87.9686 90.1974L90.2311 91.0061C90.2675 91.0191 90.3082 91.01 90.3355 90.9827L99.9173 81.4018C99.9564 81.3628 100.02 81.3628 100.059 81.4018L109.689 91.0317C109.716 91.0589 109.756 91.0681 109.793 91.0554L112.731 90.0222C112.777 90.0061 112.804 89.9591 112.796 89.911L112.758 89.689C112.755 89.6727 112.756 89.6559 112.762 89.6402L114.513 84.4229C114.515 84.4171 114.518 84.4114 114.521 84.4061L118.731 76.8472C118.778 76.7637 118.904 76.7867 118.918 76.8812L120.165 85.3316C120.166 85.3384 120.167 85.3454 120.166 85.3523L120.046 87.3027C120.042 87.3741 120.112 87.4269 120.179 87.4032L140.702 80.1855C140.743 80.171 140.77 80.1316 140.769 80.0881L140.524 72.0439C140.523 72.016 140.534 71.989 140.554 71.9694L156.194 56.6636C156.251 56.608 156.346 56.6377 156.362 56.7157L159.502 72.6089Z" fill="#818B91"/>
<path d="M156.326 93.6124L161.13 95L161.22 94.6853L161.269 94.3614L156.326 93.6124ZM44.1736 94.5772L39.23 95.326L39.279 95.65L39.3699 95.9648L44.1736 94.5772ZM156.194 56.6636L159.691 60.2372L156.194 56.6636ZM156.362 56.7157L151.457 57.685L156.362 56.7157ZM140.524 72.0439L145.521 71.8914L140.524 72.0439ZM140.554 71.9694L137.056 68.3959L140.554 71.9694ZM140.702 80.1855L139.043 75.4687L140.702 80.1855ZM140.769 80.0881L135.771 80.2406L140.769 80.0881ZM120.046 87.3027L115.056 86.9957L120.046 87.3027ZM120.179 87.4032L118.52 82.6864L120.179 87.4032ZM120.165 85.3316L125.112 84.6013L120.165 85.3316ZM120.166 85.3523L115.176 85.0453L120.166 85.3523ZM118.731 76.8472L114.363 74.414L118.731 76.8472ZM118.918 76.8812L123.864 76.151L118.918 76.8812ZM114.513 84.4229L119.253 86.0144L114.513 84.4229ZM114.521 84.4061L110.153 81.9729L114.521 84.4061ZM112.758 89.689L107.83 90.5346L112.758 89.689ZM112.762 89.6402L117.502 91.2317L112.762 89.6402ZM112.731 90.0222L111.072 85.3054L112.731 90.0222ZM112.796 89.911L107.868 90.7566V90.7566L112.796 89.911ZM109.689 91.0317L113.224 87.4962L109.689 91.0317ZM109.793 91.0554L108.134 86.3385L109.793 91.0554ZM99.9173 81.4018L96.382 77.8661L99.9173 81.4018ZM100.059 81.4018L96.5232 84.9374L100.059 81.4018ZM90.2311 91.0061L88.5481 95.7144L90.2311 91.0061ZM90.3355 90.9827L93.8709 94.5184L90.3355 90.9827ZM88.0161 89.3687L92.7563 87.778L88.0161 89.3687ZM88.0198 89.4176L92.9462 90.2727L88.0198 89.4176ZM86.2579 84.1346L81.8899 86.5677L86.2579 84.1346ZM86.2654 84.1514L91.0056 82.5608L86.2654 84.1514ZM81.861 76.6097L86.8073 77.3404L81.861 76.6097ZM82.0473 76.5756L86.4153 74.1425L82.0473 76.5756ZM80.6117 85.0808L85.6024 84.7752L80.6117 85.0808ZM80.6126 85.0601L85.5589 85.7908L80.6126 85.0601ZM80.6246 87.5711L82.308 82.863L80.6246 87.5711ZM80.758 87.4708L75.7674 87.7764L80.758 87.4708ZM59.7608 80.0377L64.7584 80.1914L59.7608 80.0377ZM59.827 80.1349L61.5104 75.4268L59.827 80.1349ZM59.9469 72.9342L56.45 76.508L59.9469 72.9342ZM59.9769 73.0088L64.9745 73.1625L59.9769 73.0088ZM44.1377 57.6815L39.2325 56.7125L44.1377 57.6815ZM44.3058 57.6294L40.8089 61.2032L44.3058 57.6294ZM40.9975 73.6081L45.9411 72.8594L40.9975 73.6081ZM40.9982 73.5738L36.093 72.6048L40.9982 73.5738ZM53.5062 126.806L50.6394 130.903L53.5062 126.806ZM53.4675 126.752L48.6639 128.14L53.4675 126.752ZM59.9779 120.985L64.9764 120.865L59.9779 120.985ZM59.983 121.014L55.2419 122.602L59.983 121.014ZM59.5132 97.0691L59.0912 102.051L59.5132 97.0691ZM59.4048 97.1711L64.4033 97.0508L59.4048 97.1711ZM86.6811 99.37L86.2591 104.352L86.6811 99.37ZM100.059 112.573L103.594 116.108L100.059 112.573ZM113.221 99.4434L113.619 104.428V104.428L113.221 99.4434ZM113.158 99.4724L109.623 95.937L113.158 99.4724ZM140.517 120.049L135.776 118.46L140.517 120.049ZM140.523 120.019L135.524 119.899V119.899L140.523 120.019ZM136.248 133.36L133.381 129.264L136.248 133.36ZM136.096 133.247L131.355 131.658L136.096 133.247ZM147.032 125.786L142.228 124.399L147.032 125.786ZM146.993 125.841L149.86 129.937L146.993 125.841ZM141.066 97.3317L146.065 97.4515L141.066 97.3317ZM140.958 97.2296L140.561 92.2455L140.958 97.2296ZM64.4034 134.213L69.1446 132.625L64.4034 134.213ZM64.2513 134.326L61.3844 138.423L64.2513 134.326ZM87.9038 90.0861L82.9775 89.231L87.9038 90.0861ZM87.9686 90.1974L89.6517 85.4891V85.4891L87.9686 90.1974ZM159.503 72.6433L164.447 73.3923L159.503 72.6433ZM159.502 72.6089L164.407 71.6397L159.502 72.6089ZM159.503 72.6433L154.559 71.8943L151.382 92.8634L156.326 93.6124L161.269 94.3614L164.447 73.3923L159.503 72.6433ZM156.326 93.6124L151.522 92.2248L142.228 124.399L147.032 125.786L151.836 127.174L161.13 95L156.326 93.6124ZM146.993 125.841L144.126 121.744L133.381 129.264L136.248 133.36L139.115 137.457L149.86 129.937L146.993 125.841ZM136.096 133.247L140.837 134.835L145.258 121.637L140.517 120.049L135.776 118.46L131.355 131.658L136.096 133.247ZM140.523 120.019L145.521 120.139L146.065 97.4515L141.066 97.3317L136.068 97.2119L135.524 119.899L140.523 120.019ZM140.958 97.2296L140.561 92.2455L112.823 94.4593L113.221 99.4434L113.619 104.428L141.356 102.214L140.958 97.2296ZM113.158 99.4724L109.623 95.937L96.5231 109.038L100.059 112.573L103.594 116.108L116.694 103.008L113.158 99.4724ZM99.9173 112.573L103.453 109.037L90.2789 95.8634L86.7434 99.399L83.2078 102.935L96.3818 116.108L99.9173 112.573ZM86.6811 99.37L87.1031 94.3879L59.9351 92.0869L59.5132 97.0691L59.0912 102.051L86.2591 104.352L86.6811 99.37ZM59.4048 97.1711L54.4062 97.2914L54.9793 121.105L59.9779 120.985L64.9764 120.865L64.4033 97.0508L59.4048 97.1711ZM59.983 121.014L55.2419 122.602L59.6623 135.8L64.4034 134.213L69.1446 132.625L64.7242 119.426L59.983 121.014ZM64.2513 134.326L67.1181 130.23L56.3731 122.71L53.5062 126.806L50.6394 130.903L61.3844 138.423L64.2513 134.326ZM53.4675 126.752L58.2711 125.365L48.9772 93.1897L44.1736 94.5772L39.3699 95.9648L48.6639 128.14L53.4675 126.752ZM44.1736 94.5772L49.1172 93.8284L45.9411 72.8594L40.9975 73.6081L36.0539 74.3569L39.23 95.326L44.1736 94.5772ZM40.9982 73.5738L45.9034 74.5428L49.0429 58.6505L44.1377 57.6815L39.2325 56.7125L36.093 72.6048L40.9982 73.5738ZM44.3058 57.6294L40.8089 61.2032L56.45 76.508L59.9469 72.9342L63.4438 69.3605L47.8027 54.0557L44.3058 57.6294ZM59.9769 73.0088L54.9793 72.8551L54.7631 79.884L59.7608 80.0377L64.7584 80.1914L64.9745 73.1625L59.9769 73.0088ZM59.827 80.1349L58.1437 84.843L78.9412 92.2792L80.6246 87.5711L82.308 82.863L61.5104 75.4268L59.827 80.1349ZM80.758 87.4708L85.7487 87.1652L85.6024 84.7752L80.6117 85.0808L75.621 85.3864L75.7674 87.7764L80.758 87.4708ZM80.6126 85.0601L85.5589 85.7908L86.8073 77.3404L81.861 76.6097L76.9147 75.8789L75.6663 84.3293L80.6126 85.0601ZM82.0473 76.5756L77.6793 79.0088L81.8899 86.5677L86.2579 84.1346L90.626 81.7014L86.4153 74.1425L82.0473 76.5756ZM86.2654 84.1514L81.5251 85.7421L83.2759 90.9593L88.0161 89.3687L92.7563 87.778L91.0056 82.5608L86.2654 84.1514ZM88.0198 89.4176L83.0935 88.5625L82.9775 89.231L87.9038 90.0861L92.8301 90.9412L92.9462 90.2727L88.0198 89.4176ZM87.9686 90.1974L86.2856 94.9056L88.5481 95.7144L90.2311 91.0061L91.9142 86.2979L89.6517 85.4891L87.9686 90.1974ZM90.3355 90.9827L93.8709 94.5184L103.453 84.9376L99.9173 81.4018L96.382 77.8661L86.8002 87.447L90.3355 90.9827ZM100.059 81.4018L96.5232 84.9374L106.153 94.5673L109.689 91.0317L113.224 87.4962L103.594 77.8663L100.059 81.4018ZM109.793 91.0554L111.451 95.7723L114.389 94.7391L112.731 90.0222L111.072 85.3054L108.134 86.3385L109.793 91.0554ZM112.796 89.911L117.724 89.0654L117.686 88.8434L112.758 89.689L107.83 90.5346L107.868 90.7566L112.796 89.911ZM112.762 89.6402L117.502 91.2317L119.253 86.0144L114.513 84.4229L109.773 82.8315L108.022 88.0488L112.762 89.6402ZM114.521 84.4061L118.889 86.8392L123.099 79.2803L118.731 76.8472L114.363 74.414L110.153 81.9729L114.521 84.4061ZM118.918 76.8812L113.971 77.6114L115.219 86.0618L120.165 85.3316L125.112 84.6013L123.864 76.151L118.918 76.8812ZM120.166 85.3523L115.176 85.0453L115.056 86.9957L120.046 87.3027L125.037 87.6097L125.157 85.6593L120.166 85.3523ZM120.179 87.4032L121.838 92.12L142.361 84.9023L140.702 80.1855L139.043 75.4687L118.52 82.6864L120.179 87.4032ZM140.769 80.0881L145.767 79.9356L145.521 71.8914L140.524 72.0439L135.526 72.1964L135.771 80.2406L140.769 80.0881ZM140.554 71.9694L144.051 75.5429L159.691 60.2372L156.194 56.6636L152.697 53.0901L137.056 68.3959L140.554 71.9694ZM156.362 56.7157L151.457 57.685L154.597 73.5782L159.502 72.6089L164.407 71.6397L161.267 55.7465L156.362 56.7157ZM156.194 56.6636L159.691 60.2372C156.907 62.9612 152.212 61.5059 151.457 57.685L156.362 56.7157L161.267 55.7465C160.481 51.7696 155.594 50.2548 152.697 53.0901L156.194 56.6636ZM140.524 72.0439L145.521 71.8914C145.563 73.2606 145.03 74.5848 144.051 75.5429L140.554 71.9694L137.056 68.3959C136.037 69.3931 135.482 70.7713 135.526 72.1964L140.524 72.0439ZM140.702 80.1855L142.361 84.9023C144.457 84.1652 145.834 82.1562 145.767 79.9356L140.769 80.0881L135.771 80.2406C135.706 78.1071 137.03 76.1769 139.043 75.4687L140.702 80.1855ZM120.046 87.3027L115.056 86.9957C114.831 90.6386 118.395 93.3309 121.838 92.12L120.179 87.4032L118.52 82.6864C121.828 81.523 125.252 84.1097 125.037 87.6097L120.046 87.3027ZM120.165 85.3316L115.219 86.0618C115.169 85.7254 115.155 85.3847 115.176 85.0453L120.166 85.3523L125.157 85.6593C125.178 85.306 125.163 84.9515 125.112 84.6013L120.165 85.3316ZM118.731 76.8472L123.099 79.2803C120.822 83.3697 114.655 82.2421 113.971 77.6114L118.918 76.8812L123.864 76.151C123.153 71.3313 116.734 70.1577 114.363 74.414L118.731 76.8472ZM114.513 84.4229L119.253 86.0144C119.157 86.2999 119.035 86.5761 118.889 86.8392L114.521 84.4061L110.153 81.9729C110 82.2468 109.873 82.5342 109.773 82.8315L114.513 84.4229ZM112.758 89.689L117.686 88.8434C117.823 89.6425 117.76 90.4631 117.502 91.2317L112.762 89.6402L108.022 88.0488C107.753 88.8488 107.687 89.7029 107.83 90.5346L112.758 89.689ZM112.731 90.0222L114.389 94.7391C116.736 93.9141 118.145 91.5168 117.724 89.0654L112.796 89.911L107.868 90.7566C107.464 88.4014 108.818 86.0981 111.072 85.3054L112.731 90.0222ZM109.689 91.0317L106.153 94.5673C107.54 95.9546 109.6 96.423 111.451 95.7723L109.793 91.0554L108.134 86.3385C109.912 85.7132 111.891 86.1633 113.224 87.4962L109.689 91.0317ZM99.9173 81.4018L103.453 84.9376C101.539 86.851 98.4367 86.8509 96.5232 84.9374L100.059 81.4018L103.594 77.8663C101.603 75.8747 98.3737 75.8746 96.382 77.8661L99.9173 81.4018ZM90.2311 91.0061L88.5481 95.7144C90.4044 96.3779 92.4769 95.9122 93.8709 94.5184L90.3355 90.9827L86.8002 87.447C88.1395 86.1078 90.1307 85.6604 91.9142 86.2979L90.2311 91.0061ZM88.0161 89.3687L83.2759 90.9593C83.017 90.1879 82.9543 89.3642 83.0935 88.5625L88.0198 89.4176L92.9462 90.2727C93.091 89.4383 93.0258 88.5809 92.7563 87.778L88.0161 89.3687ZM86.2579 84.1346L81.8899 86.5677C81.7432 86.3043 81.6211 86.0279 81.5251 85.7421L86.2654 84.1514L91.0056 82.5608C90.9058 82.2633 90.7787 81.9756 90.626 81.7014L86.2579 84.1346ZM81.861 76.6097L86.8073 77.3404C86.1232 81.9709 79.957 83.0979 77.6793 79.0088L82.0473 76.5756L86.4153 74.1425C84.0446 69.8865 77.6267 71.0594 76.9147 75.8789L81.861 76.6097ZM80.6117 85.0808L85.6024 84.7752C85.6231 85.1143 85.6086 85.4547 85.5589 85.7908L80.6126 85.0601L75.6663 84.3293C75.6146 84.6792 75.5994 85.0334 75.621 85.3864L80.6117 85.0808ZM80.6246 87.5711L78.9412 92.2792C82.3881 93.5117 85.9724 90.819 85.7487 87.1652L80.758 87.4708L75.7674 87.7764C75.5524 84.266 78.9962 81.6789 82.308 82.863L80.6246 87.5711ZM59.7608 80.0377L54.7631 79.884C54.6951 82.0953 56.0605 84.0982 58.1437 84.843L59.827 80.1349L61.5104 75.4268C63.5119 76.1425 64.8237 78.0668 64.7584 80.1914L59.7608 80.0377ZM59.9469 72.9342L56.45 76.508C55.4706 75.5496 54.9371 74.2249 54.9793 72.8551L59.9769 73.0088L64.9745 73.1625C65.0184 71.7368 64.4632 70.358 63.4438 69.3605L59.9469 72.9342ZM44.1377 57.6815L49.0429 58.6505C48.2881 62.4715 43.5926 63.9271 40.8089 61.2032L44.3058 57.6294L47.8027 54.0557C44.9053 51.2206 40.0181 52.7356 39.2325 56.7125L44.1377 57.6815ZM40.9975 73.6081L45.9411 72.8594C46.0258 73.4185 46.013 73.988 45.9034 74.5428L40.9982 73.5738L36.093 72.6048C35.979 73.1822 35.9657 73.775 36.0539 74.3569L40.9975 73.6081ZM53.5062 126.806L56.3731 122.71C57.2905 123.352 57.9603 124.289 58.2711 125.365L53.4675 126.752L48.6639 128.14C48.9873 129.26 49.6845 130.235 50.6394 130.903L53.5062 126.806ZM59.9779 120.985L54.9793 121.105C54.9916 121.615 55.0801 122.119 55.2419 122.602L59.983 121.014L64.7242 119.426C64.8796 119.891 64.9647 120.375 64.9764 120.865L59.9779 120.985ZM59.5132 97.0691L59.9351 92.0869C56.9105 91.8307 54.3332 94.257 54.4062 97.2914L59.4048 97.1711L64.4033 97.0508C64.4735 99.9662 61.9972 102.297 59.0912 102.051L59.5132 97.0691ZM86.7434 99.399L90.2789 95.8634C89.4276 95.0122 88.3026 94.4895 87.1031 94.3879L86.6811 99.37L86.2591 104.352C85.1066 104.255 84.0257 103.752 83.2078 102.935L86.7434 99.399ZM100.059 112.573L96.5231 109.038C98.4366 107.124 101.539 107.124 103.453 109.037L99.9173 112.573L96.3818 116.108C98.3735 118.1 101.603 118.1 103.594 116.108L100.059 112.573ZM113.221 99.4434L112.823 94.4593C111.615 94.5558 110.48 95.0796 109.623 95.937L113.158 99.4724L116.694 103.008C115.87 103.832 114.78 104.335 113.619 104.428L113.221 99.4434ZM140.517 120.049L145.258 121.637C145.42 121.153 145.509 120.649 145.521 120.139L140.523 120.019L135.524 119.899C135.536 119.41 135.621 118.925 135.776 118.46L140.517 120.049ZM136.248 133.36L133.381 129.264C137.253 126.555 142.338 130.354 140.837 134.835L136.096 133.247L131.355 131.658C129.793 136.322 135.086 140.277 139.115 137.457L136.248 133.36ZM147.032 125.786L142.228 124.399C142.539 123.323 143.209 122.386 144.126 121.744L146.993 125.841L149.86 129.937C150.815 129.269 151.512 128.294 151.836 127.174L147.032 125.786ZM141.066 97.3317L146.065 97.4515C146.137 94.4271 143.576 92.0048 140.561 92.2455L140.958 97.2296L141.356 102.214C138.459 102.445 135.998 100.118 136.068 97.2119L141.066 97.3317ZM64.4034 134.213L59.6623 135.8C58.1616 131.32 63.2469 127.52 67.1181 130.23L64.2513 134.326L61.3844 138.423C65.4137 141.242 70.7064 137.288 69.1446 132.625L64.4034 134.213ZM87.9038 90.0861L82.9775 89.231C82.5531 91.6754 83.9494 94.0705 86.2856 94.9056L87.9686 90.1974L89.6517 85.4891C91.8962 86.2915 93.2378 88.5927 92.8301 90.9412L87.9038 90.0861ZM159.503 72.6433L164.447 73.3923C164.535 72.8102 164.521 72.2172 164.407 71.6397L159.502 72.6089L154.597 73.5782C154.487 73.0233 154.475 72.4536 154.559 71.8943L159.503 72.6433Z" fill="#474E52" mask="url(#path-6-outside-2_1239_903)"/>
<path d="M44.0227 75.2746L45.7246 63.3315L55.0169 74.9121L54.8262 90.6012L55.0169 115L46.0479 90.8906L44.0227 75.2746Z" fill="#A1AEB6"/>
<path d="M157.121 71.2287L155.419 59.2856L146.127 70.8663L146.317 86.5553L146.127 110.954L155.096 86.8447L157.121 71.2287Z" fill="#A1AEB6"/>
<rect x="99.9878" y="84.9634" width="17.0051" height="17.0051" transform="rotate(45 99.9878 84.9634)" fill="#A1AEB6"/>
<rect x="99.9878" y="89.9634" width="9.93401" height="9.93401" transform="rotate(45 99.9878 89.9634)" fill="#C3CFD9"/>
</svg>
