<svg width="200" height="200" viewBox="0 0 200 200" fill="none" xmlns="http://www.w3.org/2000/svg">
<path d="M155.13 87.1182C156.809 86.5277 158.365 88.2599 157.599 89.8662L149.1 107.673C148.792 108.317 148.165 108.749 147.453 108.806L114.203 111.459C113.976 111.887 113.684 112.289 113.323 112.649L102.801 123.171C100.848 125.123 97.6823 125.124 95.7297 123.171L85.2082 112.649C84.8069 112.248 84.4895 111.794 84.2532 111.312L54.6477 108.804C53.9848 108.747 53.3932 108.365 53.0696 107.783L43.26 90.168C42.3618 88.555 43.9425 86.6901 45.6809 87.3116L88.2522 102.533L95.7297 95.0557C97.6823 93.1032 100.848 93.1034 102.801 95.0557L110.543 102.798L155.13 87.1182Z" fill="#0F0F0F" fill-opacity="0.25"/>
<mask id="path-2-inside-1_1239_903" fill="white">
<path d="M60.6074 47.0381C60.6531 47.0131 60.7005 47.0135 60.7461 47.0391L61.1572 47.2686C61.1582 47.2691 61.1591 47.2699 61.1602 47.2705L72.2559 53.4766L99.8047 48.0391C99.9337 48.0136 100.066 48.0141 100.195 48.04L148.197 57.709C148.664 57.803 149 58.2133 149 58.6895V74.5C149 75.0523 148.552 75.5 148 75.5H51C50.4477 75.5 50 75.0523 50 74.5V74H43.3535C43.1583 74 43 73.5607 43 73.0186V57.2832C43 57.1599 43.024 57.0403 43.0664 56.9287C43.1173 56.7302 43.1939 56.5853 43.2852 56.5352L43.5146 56.4082C43.5161 56.4074 43.5181 56.407 43.5195 56.4062L51.6221 51.9639L60.6074 47.0381Z"/>
</mask>
<path d="M60.6074 47.0381C60.6531 47.0131 60.7005 47.0135 60.7461 47.0391L61.1572 47.2686C61.1582 47.2691 61.1591 47.2699 61.1602 47.2705L72.2559 53.4766L99.8047 48.0391C99.9337 48.0136 100.066 48.0141 100.195 48.04L148.197 57.709C148.664 57.803 149 58.2133 149 58.6895V74.5C149 75.0523 148.552 75.5 148 75.5H51C50.4477 75.5 50 75.0523 50 74.5V74H43.3535C43.1583 74 43 73.5607 43 73.0186V57.2832C43 57.1599 43.024 57.0403 43.0664 56.9287C43.1173 56.7302 43.1939 56.5853 43.2852 56.5352L43.5146 56.4082C43.5161 56.4074 43.5181 56.407 43.5195 56.4062L51.6221 51.9639L60.6074 47.0381Z" fill="#818B91"/>
<path d="M60.6074 47.0381L63.011 51.4225L63.0111 51.4224L60.6074 47.0381ZM60.7461 47.0391L58.305 51.4027L58.3091 51.4049L60.7461 47.0391ZM61.1572 47.2686L58.7202 51.6345L58.7312 51.6406L61.1572 47.2686ZM61.1602 47.2705L58.7191 51.6341L58.7194 51.6343L61.1602 47.2705ZM72.2559 53.4766L69.8151 57.8404L71.42 58.738L73.2241 58.3819L72.2559 53.4766ZM99.8047 48.0391L98.8377 43.1335L98.8365 43.1337L99.8047 48.0391ZM100.195 48.04L101.183 43.1385L101.182 43.1384L100.195 48.04ZM148.197 57.709L149.185 52.8074L149.185 52.8074L148.197 57.709ZM51 75.5L51 80.5H51V75.5ZM50 74H55V69H50V74ZM43.3535 74L43.3527 79H43.3535V74ZM43 73.0186H38V73.0189L43 73.0186ZM43 57.2832L38 57.2829V57.2832H43ZM43.0664 56.9287L47.7404 58.7045L47.8399 58.4426L47.9096 58.1712L43.0664 56.9287ZM43.2852 56.5352L45.6912 60.9182L45.6983 60.9143L45.7055 60.9103L43.2852 56.5352ZM43.5146 56.4082L45.935 60.7834L45.9397 60.7807L43.5146 56.4082ZM43.5195 56.4062L45.9232 60.7906L45.9233 60.7905L43.5195 56.4062ZM51.6221 51.9639L49.2185 47.5795L49.2183 47.5796L51.6221 51.9639ZM60.6074 47.0381L63.0111 51.4224C62.3653 51.7765 61.5544 52.0267 60.6375 52.0195C59.7234 52.0123 58.9279 51.7512 58.305 51.4027L60.7461 47.0391L63.1872 42.6755C61.6619 41.8222 59.7839 41.7875 58.2038 42.6537L60.6074 47.0381ZM60.7461 47.0391L58.3091 51.4049L58.7202 51.6344L61.1572 47.2686L63.5942 42.9027L63.1831 42.6732L60.7461 47.0391ZM61.1572 47.2686L58.7312 51.6406C58.6428 51.5915 58.5663 51.5455 58.5033 51.506C58.4404 51.4666 58.3876 51.4316 58.3474 51.4043C58.3271 51.3905 58.3092 51.3781 58.2942 51.3676C58.2792 51.3572 58.2664 51.3481 58.2565 51.3411C58.2467 51.3341 58.2387 51.3283 58.2339 51.3248C58.2314 51.323 58.2293 51.3215 58.2281 51.3206C58.2274 51.3202 58.2269 51.3198 58.2265 51.3195C58.2262 51.3193 58.2259 51.3191 58.2259 51.3191C58.2256 51.3188 58.2265 51.3195 58.2274 51.3202C58.2285 51.3209 58.2303 51.3222 58.2325 51.3239C58.237 51.3271 58.2445 51.3325 58.2539 51.3392C58.2633 51.3459 58.2757 51.3547 58.2902 51.3649C58.3047 51.3751 58.3222 51.3871 58.3419 51.4006C58.3811 51.4274 58.4329 51.4619 58.4947 51.5008C58.5566 51.5398 58.6319 51.5854 58.7191 51.6341L61.1602 47.2705L63.6012 42.9069C63.6881 42.9555 63.7632 43.0009 63.8249 43.0398C63.8864 43.0785 63.938 43.1129 63.9769 43.1394C63.9966 43.1529 64.0139 43.1649 64.0283 43.175C64.0427 43.1851 64.0549 43.1937 64.0642 43.2004C64.0735 43.207 64.0809 43.2123 64.0852 43.2154C64.0874 43.217 64.0892 43.2183 64.0902 43.219C64.091 43.2197 64.0918 43.2203 64.0915 43.22C64.0914 43.22 64.0904 43.2192 64.0891 43.2183C64.0878 43.2173 64.0857 43.2158 64.0832 43.214C64.0782 43.2104 64.0701 43.2046 64.0601 43.1975C64.0501 43.1903 64.0372 43.1812 64.0221 43.1706C64.007 43.1601 63.989 43.1476 63.9685 43.1337C63.9281 43.1063 63.8751 43.0711 63.8119 43.0315C63.7487 42.9919 63.6719 42.9457 63.5832 42.8965L61.1572 47.2686ZM61.1602 47.2705L58.7194 51.6343L69.8151 57.8404L72.2559 53.4766L74.6966 49.1128L63.6009 42.9067L61.1602 47.2705ZM72.2559 53.4766L73.2241 58.3819L100.773 52.9444L99.8047 48.0391L98.8365 43.1337L71.2877 48.5712L72.2559 53.4766ZM99.8047 48.0391L100.772 52.9447C100.251 53.0473 99.7195 53.0446 99.2084 52.9417L100.195 48.04L101.182 43.1384C100.413 42.9836 99.6166 42.9799 98.8377 43.1335L99.8047 48.0391ZM100.195 48.04L99.208 52.9416L147.21 62.6105L148.197 57.709L149.185 52.8074L101.183 43.1385L100.195 48.04ZM148.197 57.709L147.21 62.6105C145.343 62.2345 144 60.5947 144 58.6895H149H154C154 55.8319 151.985 53.3715 149.185 52.8074L148.197 57.709ZM149 58.6895H144V74.5H149H154V58.6895H149ZM149 74.5H144C144 72.2909 145.791 70.5 148 70.5V75.5V80.5C151.314 80.5 154 77.8137 154 74.5H149ZM148 75.5V70.5H51V75.5V80.5H148V75.5ZM51 75.5L51 70.5C53.2091 70.5 55 72.2909 55 74.5H50H45C45 77.8137 47.6863 80.5 51 80.5L51 75.5ZM50 74.5H55V74H50H45V74.5H50ZM50 74V69H43.3535V74V79H50V74ZM43.3535 74L43.3543 69C45.33 69.0003 46.5504 70.1266 47.0226 70.6811C47.5116 71.2553 47.7261 71.7916 47.8077 72.0181C47.9861 72.5134 48 72.8676 48 73.0182L43 73.0186L38 73.0189C38.0001 73.7116 38.0931 74.5566 38.3995 75.4071C38.545 75.8111 38.8357 76.4911 39.4093 77.1647C39.966 77.8184 41.2795 78.9997 43.3527 79L43.3535 74ZM43 73.0186H48V57.2832H43H38V73.0186H43ZM43 57.2832L48 57.2835C48 57.8125 47.8967 58.2933 47.7404 58.7045L43.0664 56.9287L38.3924 55.1529C38.1513 55.7874 38 56.5072 38 57.2829L43 57.2832ZM43.0664 56.9287L47.9096 58.1712C47.8663 58.3399 47.767 58.6751 47.5447 59.0805C47.3667 59.4051 46.8329 60.2915 45.6912 60.9182L43.2852 56.5352L40.8791 52.1521C39.6462 52.8289 39.0285 53.8128 38.7766 54.272C38.4805 54.812 38.3175 55.319 38.2233 55.6862L43.0664 56.9287ZM43.2852 56.5352L45.7055 60.9103L45.935 60.7834L43.5146 56.4082L41.0943 52.033L40.8648 52.16L43.2852 56.5352ZM43.5146 56.4082L45.9397 60.7807C45.8676 60.8207 45.8 60.8559 45.7382 60.8866C45.6763 60.9173 45.6189 60.9442 45.567 60.9676C45.5151 60.9909 45.4675 61.0113 45.4252 61.0287C45.3829 61.0462 45.3446 61.0614 45.3114 61.0741C45.2782 61.0869 45.2489 61.0978 45.2244 61.1067C45.1999 61.1156 45.1789 61.123 45.1628 61.1286C45.1468 61.1342 45.1338 61.1386 45.1259 61.1413C45.1219 61.1427 45.1186 61.1438 45.1165 61.1445C45.1154 61.1449 45.1146 61.1452 45.114 61.1453C45.1135 61.1455 45.1131 61.1457 45.1131 61.1457C45.1126 61.1458 45.114 61.1453 45.1156 61.1448C45.1173 61.1442 45.1203 61.1432 45.124 61.142C45.1313 61.1395 45.1437 61.1353 45.1591 61.1299C45.1745 61.1246 45.1949 61.1174 45.2186 61.1088C45.2425 61.1002 45.2712 61.0896 45.3037 61.0772C45.3361 61.0648 45.3737 61.05 45.4153 61.033C45.4569 61.0159 45.5038 60.9961 45.5549 60.9733C45.606 60.9505 45.6627 60.9242 45.7238 60.8941C45.7849 60.8641 45.8518 60.8297 45.9232 60.7906L43.5195 56.4062L41.1159 52.0219C41.1871 51.9829 41.2538 51.9486 41.3147 51.9186C41.3756 51.8887 41.4321 51.8625 41.483 51.8398C41.534 51.8171 41.5807 51.7973 41.6221 51.7803C41.6634 51.7634 41.7008 51.7487 41.7331 51.7364C41.7653 51.724 41.7939 51.7135 41.8175 51.705C41.841 51.6965 41.8612 51.6894 41.8764 51.6841C41.8915 51.6788 41.9037 51.6747 41.9108 51.6723C41.9144 51.671 41.9173 51.6701 41.9189 51.6695C41.9203 51.669 41.9217 51.6686 41.9211 51.6688C41.9211 51.6688 41.9194 51.6694 41.9174 51.67C41.9152 51.6708 41.9118 51.6719 41.9076 51.6733C41.8995 51.6761 41.8863 51.6806 41.8701 51.6863C41.8537 51.692 41.8326 51.6994 41.8079 51.7084C41.7832 51.7174 41.7536 51.7284 41.7202 51.7412C41.6868 51.7541 41.6484 51.7693 41.6058 51.7868C41.5633 51.8044 41.5155 51.8249 41.4634 51.8483C41.4114 51.8717 41.3537 51.8987 41.2917 51.9295C41.2296 51.9603 41.1618 51.9956 41.0896 52.0357L43.5146 56.4082ZM43.5195 56.4062L45.9233 60.7905L54.0258 56.3481L51.6221 51.9639L49.2183 47.5796L41.1158 52.022L43.5195 56.4062ZM51.6221 51.9639L54.0256 56.3483L63.011 51.4225L60.6074 47.0381L58.2039 42.6537L49.2185 47.5795L51.6221 51.9639Z" fill="#474E52" mask="url(#path-2-inside-1_1239_903)"/>
<path d="M157.5 57.1562V70.5H127.5V57.1709L142.664 48.8574L157.5 57.1562Z" fill="#818B91" stroke="#474E52" stroke-width="5"/>
<rect x="49.5" y="60.5" width="101" height="34" rx="16.5" fill="#5D6262" stroke="#464A4A" stroke-width="5"/>
<rect x="58" y="70" width="88" height="28" rx="14" fill="#515656"/>
<mask id="path-7-outside-2_1239_903" maskUnits="userSpaceOnUse" x="35.9958" y="50.6353" width="129" height="89" fill="black">
<rect fill="white" x="35.9958" y="50.6353" width="129" height="89"/>
<path d="M159.502 72.6082C159.504 72.6195 159.504 72.6312 159.502 72.6426L156.326 93.6117L147.032 125.787C147.026 125.809 147.012 125.828 146.994 125.841L136.249 133.361C136.17 133.416 136.066 133.338 136.097 133.247L140.517 120.049C140.52 120.039 140.522 120.029 140.522 120.019L141.067 97.3319C141.068 97.2726 141.018 97.2251 140.959 97.2299L113.221 99.4437C113.197 99.4456 113.175 99.4559 113.158 99.4727L100.058 112.573C100.019 112.612 99.9559 112.612 99.9168 112.573L86.7429 99.3992C86.7262 99.3825 86.7041 99.3723 86.6806 99.3703L59.5137 97.0683C59.4544 97.0633 59.4038 97.1109 59.4052 97.1704L59.9774 120.985C59.9776 120.995 59.9794 121.005 59.9825 121.015L64.4039 134.213C64.4345 134.304 64.3307 134.382 64.2517 134.326L53.5057 126.807C53.487 126.794 53.4733 126.774 53.467 126.753L44.1741 94.5775L40.997 73.6084C40.9952 73.597 40.9955 73.5854 40.9977 73.574L44.1382 57.6818C44.1536 57.6038 44.2494 57.5741 44.3062 57.6297L59.9464 72.9345C59.9664 72.954 59.9773 72.9811 59.9764 73.009L59.7603 80.0379C59.7589 80.0813 59.7857 80.1206 59.8266 80.1352L80.6251 87.5714C80.6926 87.5955 80.7629 87.5427 80.7585 87.4711L80.6122 85.081C80.6118 85.0741 80.6121 85.0672 80.6131 85.0603L81.8605 76.61C81.8745 76.5155 82.0003 76.4925 82.0468 76.5759L86.2574 84.1348C86.2604 84.1402 86.2629 84.1458 86.2649 84.1517L88.0166 89.3689C88.0219 89.3847 88.0232 89.4015 88.0203 89.4178L87.9043 90.0864C87.896 90.1343 87.9233 90.1812 87.9691 90.1976L90.2307 91.0064C90.2671 91.0194 90.3077 91.0102 90.335 90.9829L99.9168 81.4021C99.9559 81.363 100.019 81.363 100.058 81.4021L109.688 91.032C109.715 91.0592 109.756 91.0684 109.792 91.0556L112.731 90.0225C112.777 90.0063 112.805 89.9593 112.796 89.9112L112.758 89.6892C112.756 89.6729 112.757 89.6562 112.762 89.6405L114.513 84.4232C114.515 84.4173 114.517 84.4117 114.52 84.4063L118.731 76.8474C118.777 76.7639 118.903 76.7869 118.917 76.8814L120.166 85.3318C120.167 85.3387 120.167 85.3456 120.167 85.3526L120.047 87.302C120.042 87.3734 120.112 87.4262 120.18 87.4025L140.703 80.1848C140.744 80.1703 140.771 80.1309 140.769 80.0874L140.523 72.0432C140.522 72.0153 140.533 71.9882 140.553 71.9687L156.194 56.6639C156.251 56.6083 156.347 56.638 156.362 56.716L159.502 72.6082Z"/>
</mask>
<path d="M159.502 72.6082C159.504 72.6195 159.504 72.6312 159.502 72.6426L156.326 93.6117L147.032 125.787C147.026 125.809 147.012 125.828 146.994 125.841L136.249 133.361C136.17 133.416 136.066 133.338 136.097 133.247L140.517 120.049C140.52 120.039 140.522 120.029 140.522 120.019L141.067 97.3319C141.068 97.2726 141.018 97.2251 140.959 97.2299L113.221 99.4437C113.197 99.4456 113.175 99.4559 113.158 99.4727L100.058 112.573C100.019 112.612 99.9559 112.612 99.9168 112.573L86.7429 99.3992C86.7262 99.3825 86.7041 99.3723 86.6806 99.3703L59.5137 97.0683C59.4544 97.0633 59.4038 97.1109 59.4052 97.1704L59.9774 120.985C59.9776 120.995 59.9794 121.005 59.9825 121.015L64.4039 134.213C64.4345 134.304 64.3307 134.382 64.2517 134.326L53.5057 126.807C53.487 126.794 53.4733 126.774 53.467 126.753L44.1741 94.5775L40.997 73.6084C40.9952 73.597 40.9955 73.5854 40.9977 73.574L44.1382 57.6818C44.1536 57.6038 44.2494 57.5741 44.3062 57.6297L59.9464 72.9345C59.9664 72.954 59.9773 72.9811 59.9764 73.009L59.7603 80.0379C59.7589 80.0813 59.7857 80.1206 59.8266 80.1352L80.6251 87.5714C80.6926 87.5955 80.7629 87.5427 80.7585 87.4711L80.6122 85.081C80.6118 85.0741 80.6121 85.0672 80.6131 85.0603L81.8605 76.61C81.8745 76.5155 82.0003 76.4925 82.0468 76.5759L86.2574 84.1348C86.2604 84.1402 86.2629 84.1458 86.2649 84.1517L88.0166 89.3689C88.0219 89.3847 88.0232 89.4015 88.0203 89.4178L87.9043 90.0864C87.896 90.1343 87.9233 90.1812 87.9691 90.1976L90.2307 91.0064C90.2671 91.0194 90.3077 91.0102 90.335 90.9829L99.9168 81.4021C99.9559 81.363 100.019 81.363 100.058 81.4021L109.688 91.032C109.715 91.0592 109.756 91.0684 109.792 91.0556L112.731 90.0225C112.777 90.0063 112.805 89.9593 112.796 89.9112L112.758 89.6892C112.756 89.6729 112.757 89.6562 112.762 89.6405L114.513 84.4232C114.515 84.4173 114.517 84.4117 114.52 84.4063L118.731 76.8474C118.777 76.7639 118.903 76.7869 118.917 76.8814L120.166 85.3318C120.167 85.3387 120.167 85.3456 120.167 85.3526L120.047 87.302C120.042 87.3734 120.112 87.4262 120.18 87.4025L140.703 80.1848C140.744 80.1703 140.771 80.1309 140.769 80.0874L140.523 72.0432C140.522 72.0153 140.533 71.9882 140.553 71.9687L156.194 56.6639C156.251 56.6083 156.347 56.638 156.362 56.716L159.502 72.6082Z" fill="#818B91"/>
<path d="M156.326 93.6117L161.13 94.9992L161.221 94.6844L161.27 94.3604L156.326 93.6117ZM44.1741 94.5775L39.2305 95.3265L39.2795 95.6503L39.3704 95.9649L44.1741 94.5775ZM156.194 56.6639L152.697 53.0901L156.194 56.6639ZM156.362 56.716L161.267 55.7469L156.362 56.716ZM140.523 72.0432L145.521 71.8901L140.523 72.0432ZM140.553 71.9687L137.056 68.3949L140.553 71.9687ZM140.703 80.1848L139.044 75.468L140.703 80.1848ZM140.769 80.0874L135.772 80.2405L140.769 80.0874ZM120.047 87.302L115.056 86.9948L120.047 87.302ZM120.18 87.4025L121.838 92.1193L120.18 87.4025ZM120.166 85.3318L115.219 86.0625L120.166 85.3318ZM120.167 85.3526L125.157 85.6597L120.167 85.3526ZM118.731 76.8474L114.363 74.4142L118.731 76.8474ZM118.917 76.8814L123.864 76.1507L118.917 76.8814ZM114.513 84.4232L119.253 86.0138L114.513 84.4232ZM114.52 84.4063L110.152 81.9731L114.52 84.4063ZM112.758 89.6892L107.83 90.5349L112.758 89.6892ZM112.762 89.6405L108.022 88.0498L112.762 89.6405ZM112.731 90.0225L111.073 85.3054L112.731 90.0225ZM112.796 89.9112L107.869 90.7569L112.796 89.9112ZM109.688 91.032L113.224 87.4965L109.688 91.032ZM109.792 91.0556L108.134 86.3386L109.792 91.0556ZM99.9168 81.4021L96.3815 77.8664L99.9168 81.4021ZM100.058 81.4021L96.5227 84.9376L100.058 81.4021ZM90.2307 91.0064L88.547 95.7144L90.2307 91.0064ZM90.335 90.9829L93.8704 94.5186L90.335 90.9829ZM88.0166 89.3689L92.7565 87.7775L88.0166 89.3689ZM88.0203 89.4178L83.094 88.5627V88.5627L88.0203 89.4178ZM86.2574 84.1348L90.6255 81.7017L86.2574 84.1348ZM86.2649 84.1517L81.5249 85.7431L86.2649 84.1517ZM81.8605 76.61L86.8069 77.3402L81.8605 76.61ZM82.0468 76.5759L86.4149 74.1428L82.0468 76.5759ZM80.6122 85.081L85.6028 84.7755L80.6122 85.081ZM80.6131 85.0603L75.6667 84.3301L80.6131 85.0603ZM80.6251 87.5714L82.3084 82.8632L80.6251 87.5714ZM80.7585 87.4711L75.7679 87.7767L80.7585 87.4711ZM59.7603 80.0379L54.7626 79.8843L59.7603 80.0379ZM59.8266 80.1352L58.1432 84.8433L59.8266 80.1352ZM59.9464 72.9345L56.4494 76.5081L59.9464 72.9345ZM59.9764 73.009L64.9741 73.1627L59.9764 73.009ZM44.1382 57.6818L39.2331 56.7125L44.1382 57.6818ZM44.3062 57.6297L40.8092 61.2033L44.3062 57.6297ZM40.997 73.6084L36.0534 74.3574L40.997 73.6084ZM40.9977 73.574L36.0926 72.6047L40.9977 73.574ZM53.5057 126.807L50.639 130.903L53.5057 126.807ZM53.467 126.753L48.6633 128.14L53.467 126.753ZM59.9774 120.985L54.9788 121.105L59.9774 120.985ZM59.9825 121.015L64.7236 119.426L59.9825 121.015ZM59.5137 97.0683L59.9358 92.0862L59.5137 97.0683ZM59.4052 97.1704L64.4038 97.0503L59.4052 97.1704ZM86.6806 99.3703L86.2584 104.352L86.6806 99.3703ZM100.058 112.573L103.594 116.109L100.058 112.573ZM113.221 99.4437L113.618 104.428L113.221 99.4437ZM113.158 99.4727L116.693 103.008L113.158 99.4727ZM140.517 120.049L145.258 121.637L140.517 120.049ZM140.522 120.019L145.521 120.139V120.139L140.522 120.019ZM136.249 133.361L139.116 137.457L136.249 133.361ZM136.097 133.247L140.838 134.835L136.097 133.247ZM147.032 125.787L151.836 127.174L147.032 125.787ZM146.994 125.841L149.861 129.937L146.994 125.841ZM141.067 97.3319L136.068 97.2119L141.067 97.3319ZM140.959 97.2299L140.561 92.2457L140.959 97.2299ZM64.4039 134.213L69.1449 132.625L64.4039 134.213ZM64.2517 134.326L61.385 138.423L64.2517 134.326ZM87.9043 90.0864L82.9779 89.2312V89.2312L87.9043 90.0864ZM159.502 72.6426L164.446 73.3914L159.502 72.6426ZM159.502 72.6082L164.407 71.6392L159.502 72.6082ZM159.502 72.6426L154.559 71.8938L151.383 92.8629L156.326 93.6117L161.27 94.3604L164.446 73.3914L159.502 72.6426ZM156.326 93.6117L151.523 92.2241L142.229 124.399L147.032 125.787L151.836 127.174L161.13 94.9992L156.326 93.6117ZM146.994 125.841L144.127 121.744L133.382 129.264L136.249 133.361L139.116 137.457L149.861 129.937L146.994 125.841ZM136.097 133.247L140.838 134.835L145.258 121.637L140.517 120.049L135.776 118.461L131.355 131.659L136.097 133.247ZM140.522 120.019L145.521 120.139L146.065 97.452L141.067 97.3319L136.068 97.2119L135.524 119.899L140.522 120.019ZM140.959 97.2299L140.561 92.2457L112.823 94.4595L113.221 99.4437L113.618 104.428L141.357 102.214L140.959 97.2299ZM113.158 99.4727L109.622 95.9373L96.5226 109.038L100.058 112.573L103.594 116.109L116.693 103.008L113.158 99.4727ZM99.9168 112.573L103.452 109.038L90.2784 95.8637L86.7429 99.3992L83.2073 102.935L96.3813 116.109L99.9168 112.573ZM86.6806 99.3703L87.1028 94.3881L59.9358 92.0862L59.5137 97.0683L59.0915 102.05L86.2584 104.352L86.6806 99.3703ZM59.4052 97.1704L54.4067 97.2905L54.9788 121.105L59.9774 120.985L64.976 120.865L64.4038 97.0503L59.4052 97.1704ZM59.9825 121.015L55.2415 122.603L59.6628 135.801L64.4039 134.213L69.1449 132.625L64.7236 119.426L59.9825 121.015ZM64.2517 134.326L67.1184 130.23L56.3724 122.71L53.5057 126.807L50.639 130.903L61.385 138.423L64.2517 134.326ZM53.467 126.753L58.2706 125.365L48.9777 93.1901L44.1741 94.5775L39.3704 95.9649L48.6633 128.14L53.467 126.753ZM44.1741 94.5775L49.1176 93.8285L45.9406 72.8594L40.997 73.6084L36.0534 74.3574L39.2305 95.3265L44.1741 94.5775ZM40.9977 73.574L45.9029 74.5433L49.0433 58.6511L44.1382 57.6818L39.2331 56.7125L36.0926 72.6047L40.9977 73.574ZM44.3062 57.6297L40.8092 61.2033L56.4494 76.5081L59.9464 72.9345L63.4434 69.3608L47.8033 54.056L44.3062 57.6297ZM59.9764 73.009L54.9788 72.8554L54.7626 79.8843L59.7603 80.0379L64.7579 80.1916L64.9741 73.1627L59.9764 73.009ZM59.8266 80.1352L58.1432 84.8433L78.9417 92.2795L80.6251 87.5714L82.3084 82.8632L61.5099 75.4271L59.8266 80.1352ZM80.7585 87.4711L85.7492 87.1655L85.6028 84.7755L80.6122 85.081L75.6215 85.3866L75.7679 87.7767L80.7585 87.4711ZM80.6131 85.0603L85.5595 85.7905L86.8069 77.3402L81.8605 76.61L76.9142 75.8798L75.6667 84.3301L80.6131 85.0603ZM82.0468 76.5759L77.6788 79.0091L81.8894 86.568L86.2574 84.1348L90.6255 81.7017L86.4149 74.1428L82.0468 76.5759ZM86.2649 84.1517L81.5249 85.7431L83.2766 90.9604L88.0166 89.3689L92.7565 87.7775L91.0049 82.5602L86.2649 84.1517ZM88.0203 89.4178L83.094 88.5627L82.9779 89.2312L87.9043 90.0864L92.8306 90.9415L92.9466 90.273L88.0203 89.4178ZM87.9691 90.1976L86.2855 94.9056L88.547 95.7144L90.2307 91.0064L91.9143 86.2983L89.6527 85.4896L87.9691 90.1976ZM90.335 90.9829L93.8704 94.5186L103.452 84.9378L99.9168 81.4021L96.3815 77.8664L86.7997 87.4472L90.335 90.9829ZM100.058 81.4021L96.5227 84.9376L106.153 94.5675L109.688 91.032L113.224 87.4965L103.594 77.8666L100.058 81.4021ZM109.792 91.0556L111.45 95.7727L114.389 94.7395L112.731 90.0225L111.073 85.3054L108.134 86.3386L109.792 91.0556ZM112.796 89.9112L117.724 89.0656L117.686 88.8436L112.758 89.6892L107.83 90.5349L107.869 90.7569L112.796 89.9112ZM112.762 89.6405L117.502 91.2312L119.253 86.0138L114.513 84.4232L109.773 82.8325L108.022 88.0498L112.762 89.6405ZM114.52 84.4063L118.888 86.8395L123.099 79.2805L118.731 76.8474L114.363 74.4142L110.152 81.9731L114.52 84.4063ZM118.917 76.8814L113.971 77.6122L115.219 86.0625L120.166 85.3318L125.112 84.6011L123.864 76.1507L118.917 76.8814ZM120.167 85.3526L115.176 85.0454L115.056 86.9948L120.047 87.302L125.037 87.6091L125.157 85.6597L120.167 85.3526ZM120.18 87.4025L121.838 92.1193L142.362 84.9016L140.703 80.1848L139.044 75.468L118.521 82.6856L120.18 87.4025ZM140.769 80.0874L145.767 79.9343L145.521 71.8901L140.523 72.0432L135.525 72.1963L135.772 80.2405L140.769 80.0874ZM140.553 71.9687L144.05 75.5424L159.691 60.2376L156.194 56.6639L152.697 53.0901L137.056 68.3949L140.553 71.9687ZM156.362 56.716L151.457 57.685L154.597 73.5772L159.502 72.6082L164.407 71.6392L161.267 55.7469L156.362 56.716ZM156.194 56.6639L159.691 60.2376C156.907 62.9615 152.212 61.5059 151.457 57.685L156.362 56.716L161.267 55.7469C160.482 51.7701 155.595 50.255 152.697 53.0901L156.194 56.6639ZM140.523 72.0432L145.521 71.8901C145.563 73.2597 145.029 74.5842 144.05 75.5424L140.553 71.9687L137.056 68.3949C136.037 69.3923 135.482 70.7709 135.525 72.1963L140.523 72.0432ZM140.703 80.1848L142.362 84.9016C144.458 84.1644 145.835 82.1551 145.767 79.9343L140.769 80.0874L135.772 80.2405C135.706 78.1067 137.03 76.1762 139.044 75.468L140.703 80.1848ZM120.047 87.302L115.056 86.9948C114.832 90.6378 118.395 93.3302 121.838 92.1193L120.18 87.4025L118.521 82.6856C121.829 81.5222 125.253 84.109 125.037 87.6091L120.047 87.302ZM120.166 85.3318L115.219 86.0625C115.17 85.7259 115.155 85.385 115.176 85.0454L120.167 85.3526L125.157 85.6597C125.179 85.3062 125.164 84.9514 125.112 84.6011L120.166 85.3318ZM118.731 76.8474L123.099 79.2805C120.821 83.3697 114.655 82.2426 113.971 77.6122L118.917 76.8814L123.864 76.1507C123.152 71.3312 116.734 70.1582 114.363 74.4142L118.731 76.8474ZM114.513 84.4232L119.253 86.0138C119.157 86.2997 119.035 86.5761 118.888 86.8395L114.52 84.4063L110.152 81.9731C110 82.2473 109.873 82.535 109.773 82.8325L114.513 84.4232ZM112.758 89.6892L117.686 88.8436C117.823 89.6424 117.76 90.4628 117.502 91.2312L112.762 89.6405L108.022 88.0498C107.754 88.8496 107.688 89.7034 107.83 90.5349L112.758 89.6892ZM112.731 90.0225L114.389 94.7395C116.736 93.9146 118.145 91.5172 117.724 89.0656L112.796 89.9112L107.869 90.7569C107.464 88.4014 108.818 86.098 111.073 85.3054L112.731 90.0225ZM109.688 91.032L106.153 94.5675C107.54 95.9547 109.6 96.4232 111.45 95.7727L109.792 91.0556L108.134 86.3386C109.912 85.7135 111.891 86.1637 113.224 87.4965L109.688 91.032ZM99.9168 81.4021L103.452 84.9378C101.539 86.8512 98.4362 86.8511 96.5227 84.9376L100.058 81.4021L103.594 77.8666C101.602 75.875 98.3732 75.8749 96.3815 77.8664L99.9168 81.4021ZM90.2307 91.0064L88.547 95.7144C90.4035 96.3782 92.4762 95.9126 93.8704 94.5186L90.335 90.9829L86.7997 87.4472C88.1392 86.1078 90.1307 85.6605 91.9143 86.2983L90.2307 91.0064ZM88.0166 89.3689L83.2766 90.9604C83.0175 90.1887 82.9548 89.3647 83.094 88.5627L88.0203 89.4178L92.9466 90.273C93.0915 89.4383 93.0262 88.5806 92.7565 87.7775L88.0166 89.3689ZM86.2574 84.1348L81.8894 86.568C81.7428 86.3048 81.6208 86.0287 81.5249 85.7431L86.2649 84.1517L91.0049 82.5602C90.9051 82.263 90.7781 81.9756 90.6255 81.7017L86.2574 84.1348ZM81.8605 76.61L86.8069 77.3402C86.1233 81.971 79.9567 83.0984 77.6788 79.0091L82.0468 76.5759L86.4149 74.1428C84.044 69.8865 77.6257 71.0599 76.9142 75.8798L81.8605 76.61ZM80.6122 85.081L85.6028 84.7755C85.6236 85.1144 85.6091 85.4546 85.5595 85.7905L80.6131 85.0603L75.6667 84.3301C75.6151 84.6798 75.5999 85.0339 75.6215 85.3866L80.6122 85.081ZM80.6251 87.5714L78.9417 92.2795C82.3886 93.5119 85.9729 90.8193 85.7492 87.1655L80.7585 87.4711L75.7679 87.7767C75.5529 84.2662 78.9967 81.6792 82.3084 82.8632L80.6251 87.5714ZM59.7603 80.0379L54.7626 79.8843C54.6946 82.0956 56.0601 84.0985 58.1432 84.8433L59.8266 80.1352L61.5099 75.4271C63.5114 76.1427 64.8232 78.0671 64.7579 80.1916L59.7603 80.0379ZM59.9464 72.9345L56.4494 76.5081C55.47 75.5497 54.9367 74.225 54.9788 72.8554L59.9764 73.009L64.9741 73.1627C65.0179 71.7371 64.4628 70.3584 63.4434 69.3608L59.9464 72.9345ZM44.1382 57.6818L49.0433 58.6511C48.2883 62.4719 43.5929 63.9273 40.8092 61.2033L44.3062 57.6297L47.8033 54.056C44.906 51.2209 40.0189 52.7357 39.2331 56.7125L44.1382 57.6818ZM40.997 73.6084L45.9406 72.8594C46.0253 73.4187 46.0125 73.9884 45.9029 74.5433L40.9977 73.574L36.0926 72.6047C35.9785 73.1823 35.9652 73.7753 36.0534 74.3574L40.997 73.6084ZM53.5057 126.807L56.3724 122.71C57.29 123.352 57.9599 124.289 58.2706 125.365L53.467 126.753L48.6633 128.14C48.9868 129.26 49.684 130.235 50.639 130.903L53.5057 126.807ZM59.9774 120.985L54.9788 121.105C54.9911 121.615 55.0796 122.12 55.2415 122.603L59.9825 121.015L64.7236 119.426C64.8791 119.891 64.9642 120.376 64.976 120.865L59.9774 120.985ZM59.5137 97.0683L59.9358 92.0862C56.9113 91.8299 54.3338 94.2559 54.4067 97.2905L59.4052 97.1704L64.4038 97.0503C64.4738 99.9658 61.9974 102.297 59.0915 102.05L59.5137 97.0683ZM86.7429 99.3992L90.2784 95.8637C89.4272 95.0125 88.3023 94.4898 87.1028 94.3881L86.6806 99.3703L86.2584 104.352C85.106 104.255 84.0252 103.753 83.2073 102.935L86.7429 99.3992ZM100.058 112.573L96.5226 109.038C98.4361 107.124 101.539 107.124 103.452 109.038L99.9168 112.573L96.3813 116.109C98.373 118.1 101.602 118.1 103.594 116.109L100.058 112.573ZM113.221 99.4437L112.823 94.4595C111.614 94.556 110.479 95.0799 109.622 95.9373L113.158 99.4727L116.693 103.008C115.87 103.832 114.78 104.335 113.618 104.428L113.221 99.4437ZM140.517 120.049L145.258 121.637C145.42 121.154 145.508 120.649 145.521 120.139L140.522 120.019L135.524 119.899C135.535 119.41 135.62 118.925 135.776 118.461L140.517 120.049ZM136.249 133.361L133.382 129.264C137.253 126.555 142.338 130.354 140.838 134.835L136.097 133.247L131.355 131.659C129.794 136.322 135.086 140.277 139.116 137.457L136.249 133.361ZM147.032 125.787L142.229 124.399C142.54 123.323 143.209 122.386 144.127 121.744L146.994 125.841L149.861 129.937C150.815 129.269 151.513 128.294 151.836 127.174L147.032 125.787ZM141.067 97.3319L146.065 97.452C146.138 94.4276 143.577 92.005 140.561 92.2457L140.959 97.2299L141.357 102.214C138.459 102.445 135.999 100.118 136.068 97.2119L141.067 97.3319ZM64.4039 134.213L59.6628 135.801C58.1619 131.321 63.2469 127.521 67.1184 130.23L64.2517 134.326L61.385 138.423C65.4145 141.243 70.7071 137.288 69.1449 132.625L64.4039 134.213ZM87.9043 90.0864L82.9779 89.2312C82.5537 91.6754 83.9496 94.0703 86.2855 94.9056L87.9691 90.1976L89.6527 85.4896C91.897 86.2922 93.2382 88.5932 92.8306 90.9415L87.9043 90.0864ZM159.502 72.6426L164.446 73.3914C164.534 72.8095 164.521 72.2167 164.407 71.6392L159.502 72.6082L154.597 73.5772C154.487 73.0224 154.474 72.4529 154.559 71.8938L159.502 72.6426Z" fill="#474E52" mask="url(#path-7-outside-2_1239_903)"/>
<path d="M44.0227 75.2744L45.7246 63.3313L55.0169 74.9119L54.8262 90.6009L55.0169 115L46.0479 90.8903L44.0227 75.2744Z" fill="#A1AEB6"/>
<path d="M157.121 71.2285L155.419 59.2854L146.127 70.866L146.317 86.555L146.127 110.954L155.096 86.8444L157.121 71.2285Z" fill="#A1AEB6"/>
<rect x="99.9878" y="84.9634" width="17.0051" height="17.0051" transform="rotate(45 99.9878 84.9634)" fill="#A1AEB6"/>
<rect x="99.9878" y="89.9634" width="9.93401" height="9.93401" transform="rotate(45 99.9878 89.9634)" fill="#C3CFD9"/>
</svg>
