<svg width="200" height="200" viewBox="0 0 200 200" fill="none" xmlns="http://www.w3.org/2000/svg">
<rect opacity="0.19" x="65" y="102.804" width="71" height="25" fill="white"/>
<rect opacity="0.19" width="10.1674" height="25" transform="matrix(-0.866025 0.5 0.5 0.866025 77.8052 102.804)" fill="white"/>
<rect opacity="0.19" width="4.65609" height="25" transform="matrix(-0.866025 0.5 0.5 0.866025 87.0322 102.804)" fill="white"/>
<rect x="40.5355" y="106.999" width="10.5554" height="17.5438" rx="5.27771" transform="rotate(-45 40.5355 106.999)" fill="#66A193" stroke="#45504D" stroke-width="5"/>
<mask id="path-5-inside-1_1280_70752" fill="white">
<path d="M68.2194 37.5195C70.2141 39.5861 70.9897 42.5419 70.2666 45.3216L64.0739 69.1291C64.0698 69.1451 64.0534 69.1546 64.0375 69.1504C64.0185 69.1454 64 69.1597 64 69.1792V109.78C64 111.52 64.2281 113.253 64.6784 114.934C66.0455 120.037 69.384 124.388 73.9594 127.03L77.0229 128.799C81.353 131.299 86.2653 132.614 91.2653 132.612L98.8564 132.608C99.4086 132.608 99.8569 133.055 99.8574 133.607L99.8643 148.949C99.8645 149.501 99.4174 149.95 98.8652 149.95L76.3867 149.96C76.3583 149.96 76.3321 149.975 76.3181 150C76.2991 150.033 76.2588 150.048 76.2226 150.035L76.0197 149.962C76.0164 149.96 76.0128 149.96 76.0093 149.961C76.0083 149.961 76.0073 149.961 76.0063 149.961C75.9393 149.961 75.8739 149.954 75.8107 149.941C75.4898 149.877 75.2115 149.673 74.9033 149.563L73.4717 149.051C66.8347 146.678 60.6946 143.096 55.3643 138.484L54.0521 137.349C54.0217 137.322 54.0139 137.278 54.0333 137.243L54.0777 137.163C54.0952 137.131 54.0676 137.094 54.0321 137.101C54.0132 137.105 53.9941 137.095 53.9856 137.078L52.8262 134.713C50.4596 129.884 48.7885 124.744 47.8623 119.446L47.2065 115.693C47.1978 115.644 47.1545 115.607 47.104 115.607C47.0466 115.607 47 115.561 47 115.503V64.6238C47 64.6147 47.0074 64.6073 47.0165 64.6073C47.024 64.6073 47.0306 64.6022 47.0325 64.5949L52.8906 42.0736C53.7917 38.6094 56.5956 35.9665 60.1069 35.2716L60.6856 35.157C63.4352 34.6129 66.2729 35.5027 68.2194 37.5195ZM154.44 99.4991C157.478 102.537 157.478 107.461 154.44 110.499L149.499 115.44C146.461 118.478 141.537 118.478 138.499 115.44C135.462 112.403 135.462 107.478 138.5 104.441L143.441 99.4994C146.478 96.4621 151.403 96.4619 154.44 99.4991Z"/>
</mask>
<path d="M68.2194 37.5195C70.2141 39.5861 70.9897 42.5419 70.2666 45.3216L64.0739 69.1291C64.0698 69.1451 64.0534 69.1546 64.0375 69.1504C64.0185 69.1454 64 69.1597 64 69.1792V109.78C64 111.52 64.2281 113.253 64.6784 114.934C66.0455 120.037 69.384 124.388 73.9594 127.03L77.0229 128.799C81.353 131.299 86.2653 132.614 91.2653 132.612L98.8564 132.608C99.4086 132.608 99.8569 133.055 99.8574 133.607L99.8643 148.949C99.8645 149.501 99.4174 149.95 98.8652 149.95L76.3867 149.96C76.3583 149.96 76.3321 149.975 76.3181 150C76.2991 150.033 76.2588 150.048 76.2226 150.035L76.0197 149.962C76.0164 149.96 76.0128 149.96 76.0093 149.961C76.0083 149.961 76.0073 149.961 76.0063 149.961C75.9393 149.961 75.8739 149.954 75.8107 149.941C75.4898 149.877 75.2115 149.673 74.9033 149.563L73.4717 149.051C66.8347 146.678 60.6946 143.096 55.3643 138.484L54.0521 137.349C54.0217 137.322 54.0139 137.278 54.0333 137.243L54.0777 137.163C54.0952 137.131 54.0676 137.094 54.0321 137.101C54.0132 137.105 53.9941 137.095 53.9856 137.078L52.8262 134.713C50.4596 129.884 48.7885 124.744 47.8623 119.446L47.2065 115.693C47.1978 115.644 47.1545 115.607 47.104 115.607C47.0466 115.607 47 115.561 47 115.503V64.6238C47 64.6147 47.0074 64.6073 47.0165 64.6073C47.024 64.6073 47.0306 64.6022 47.0325 64.5949L52.8906 42.0736C53.7917 38.6094 56.5956 35.9665 60.1069 35.2716L60.6856 35.157C63.4352 34.6129 66.2729 35.5027 68.2194 37.5195ZM154.44 99.4991C157.478 102.537 157.478 107.461 154.44 110.499L149.499 115.44C146.461 118.478 141.537 118.478 138.499 115.44C135.462 112.403 135.462 107.478 138.5 104.441L143.441 99.4994C146.478 96.4621 151.403 96.4619 154.44 99.4991Z" fill="#66A193"/>
<path d="M98.8564 132.608L98.8587 137.608H98.8589L98.8564 132.608ZM99.8574 133.607L104.857 133.605L104.857 133.603L99.8574 133.607ZM99.8643 148.949L94.8643 148.951V148.952L99.8643 148.949ZM98.8652 149.95L98.8674 154.95H98.8684L98.8652 149.95ZM73.4717 149.051L75.1557 144.343L75.1547 144.342L73.4717 149.051ZM55.3643 138.484L52.0923 142.265L52.0929 142.266L55.3643 138.484ZM52.8262 134.713L48.3363 136.913L48.3366 136.914L52.8262 134.713ZM47.8623 119.446L42.937 120.307L42.937 120.307L47.8623 119.446ZM143.441 99.4994L146.976 103.035L143.441 99.4994ZM47.2065 115.693L42.2811 116.554L47.2065 115.693ZM54.0321 137.101L53.0515 132.198L54.0321 137.101ZM53.9856 137.078L58.4752 134.877L53.9856 137.078ZM54.0777 137.163L49.7023 134.743L54.0777 137.163ZM54.0521 137.349L50.7801 141.129L54.0521 137.349ZM54.0333 137.243L58.4087 139.663L54.0333 137.243ZM76.3867 149.96L76.3846 144.96L76.3867 149.96ZM76.3181 150L71.9742 147.524L76.3181 150ZM77.0229 128.799L74.5228 133.129L77.0229 128.799ZM91.2653 132.612L91.2631 127.612V127.612L91.2653 132.612ZM60.6856 35.157L59.7149 30.2522L60.6856 35.157ZM68.2194 37.5195L64.6218 40.9918L68.2194 37.5195ZM64.6784 114.934L69.5081 113.64L64.6784 114.934ZM73.9594 127.03L76.4595 122.7L73.9594 127.03ZM75.8107 149.941L76.7971 145.04L75.8107 149.941ZM74.9033 149.563L76.5873 144.855L74.9033 149.563ZM60.1069 35.2716L59.1362 30.3667L60.1069 35.2716ZM76.0093 149.961L76.7164 154.91L76.0093 149.961ZM76.0063 149.961L76.0126 144.961L76.0063 149.961ZM47.0325 64.5949L42.1935 63.3363L47.0325 64.5949ZM64.0375 69.1504L65.3169 64.3169L64.0375 69.1504ZM76.0197 149.962L77.7175 145.259L76.0197 149.962ZM64.0739 69.1291L68.9129 70.3878L64.0739 69.1291ZM76.2226 150.035L77.9204 145.332L76.2226 150.035ZM70.2666 45.3216L65.4276 44.0629L70.2666 45.3216ZM70.2666 45.3216L65.4276 44.0629L59.235 67.8704L64.0739 69.1291L68.9129 70.3878L75.1056 46.5803L70.2666 45.3216ZM64 69.1792H59V109.78H64H69V69.1792H64ZM73.9594 127.03L71.4594 131.36L74.5228 133.129L77.0229 128.799L79.523 124.469L76.4595 122.7L73.9594 127.03ZM91.2653 132.612L91.2676 137.612L98.8587 137.608L98.8564 132.608L98.8542 127.608L91.2631 127.612L91.2653 132.612ZM98.8564 132.608L98.8589 137.608C96.6538 137.609 94.8595 135.824 94.8574 133.612L99.8574 133.607L104.857 133.603C104.854 130.287 102.163 127.607 98.854 127.608L98.8564 132.608ZM99.8574 133.607L94.8574 133.61L94.8643 148.951L99.8643 148.949L104.864 148.947L104.857 133.605L99.8574 133.607ZM99.8643 148.949L94.8643 148.952C94.8632 146.748 96.6478 144.951 98.8621 144.95L98.8652 149.95L98.8684 154.95C102.187 154.948 104.866 152.255 104.864 148.947L99.8643 148.949ZM98.8652 149.95L98.8631 144.95L76.3846 144.96L76.3867 149.96L76.3889 154.96L98.8674 154.95L98.8652 149.95ZM76.2226 150.035L77.9204 145.332L77.7175 145.259L76.0197 149.962L74.3219 154.665L74.5248 154.738L76.2226 150.035ZM76.0063 149.961L76.0126 144.961C76.2771 144.961 76.5399 144.988 76.7971 145.04L75.8107 149.941L74.8242 154.843C75.2078 154.92 75.6015 154.96 76 154.961L76.0063 149.961ZM74.9033 149.563L76.5873 144.855L75.1557 144.343L73.4717 149.051L71.7877 153.759L73.2193 154.271L74.9033 149.563ZM73.4717 149.051L75.1547 144.342C69.0996 142.178 63.4981 138.91 58.6356 134.703L55.3643 138.484L52.0929 142.266C57.8911 147.282 64.5698 151.178 71.7887 153.759L73.4717 149.051ZM55.3643 138.484L58.6362 134.703L57.3241 133.568L54.0521 137.349L50.7801 141.129L52.0923 142.265L55.3643 138.484ZM54.0333 137.243L58.4087 139.663L58.453 139.583L54.0777 137.163L49.7023 134.743L49.658 134.823L54.0333 137.243ZM53.9856 137.078L58.4752 134.877L57.3157 132.512L52.8262 134.713L48.3366 136.914L49.496 139.279L53.9856 137.078ZM52.8262 134.713L57.316 132.512C55.1571 128.107 53.6326 123.418 52.7876 118.585L47.8623 119.446L42.937 120.307C43.9445 126.069 45.7621 131.66 48.3363 136.913L52.8262 134.713ZM47.8623 119.446L52.7877 118.585L52.1318 114.833L47.2065 115.693L42.2811 116.554L42.937 120.307L47.8623 119.446ZM47 115.503H52V64.6238H47H42V115.503H47ZM47.0325 64.5949L51.8715 65.8536L57.7296 43.3322L52.8906 42.0736L48.0516 40.8149L42.1935 63.3363L47.0325 64.5949ZM60.1069 35.2716L61.0776 40.1764L61.6563 40.0619L60.6856 35.157L59.7149 30.2522L59.1362 30.3667L60.1069 35.2716ZM154.44 110.499L150.905 106.963L145.963 111.905L149.499 115.44L153.035 118.976L157.976 114.034L154.44 110.499ZM138.5 104.441L142.035 107.976L146.976 103.035L143.441 99.4994L139.905 95.9639L134.964 100.905L138.5 104.441ZM143.441 99.4994L146.976 103.035C148.061 101.95 149.82 101.95 150.905 103.035L154.44 99.4991L157.976 95.9634C152.985 90.9738 144.895 90.974 139.905 95.9639L143.441 99.4994ZM138.499 115.44L142.035 111.905C140.95 110.82 140.95 109.061 142.035 107.976L138.5 104.441L134.964 100.905C129.974 105.895 129.974 113.985 134.964 118.975L138.499 115.44ZM149.499 115.44L145.963 111.905C144.879 112.99 143.12 112.99 142.035 111.905L138.499 115.44L134.964 118.975C139.954 123.966 148.044 123.966 153.035 118.976L149.499 115.44ZM47.2065 115.693L52.1318 114.833C51.7049 112.39 49.5839 110.607 47.104 110.607V115.607V120.607C44.7252 120.607 42.6906 118.897 42.2811 116.554L47.2065 115.693ZM54.0321 137.101L53.0515 132.198C55.2579 131.757 57.4848 132.857 58.4752 134.877L53.9856 137.078L49.496 139.279C50.5034 141.334 52.7685 142.453 55.0127 142.004L54.0321 137.101ZM54.0777 137.163L58.453 139.583C60.5312 135.826 57.262 131.356 53.0515 132.198L54.0321 137.101L55.0127 142.004C50.8732 142.832 47.6592 138.437 49.7023 134.743L54.0777 137.163ZM54.0521 137.349L57.3241 133.568C59.0806 135.088 59.533 137.63 58.4087 139.663L54.0333 137.243L49.658 134.823C48.4948 136.926 48.9628 139.557 50.7801 141.129L54.0521 137.349ZM76.3867 149.96L76.3846 144.96C74.5608 144.961 72.8774 145.939 71.9742 147.524L76.3181 150L80.662 152.476C79.7869 154.011 78.1559 154.959 76.3889 154.96L76.3867 149.96ZM154.44 110.499L157.976 114.034C162.966 109.044 162.966 100.953 157.976 95.9634L154.44 99.4991L150.905 103.035C151.99 104.12 151.99 105.879 150.905 106.963L154.44 110.499ZM77.0229 128.799L74.5228 133.129C79.6137 136.068 85.3891 137.614 91.2676 137.612L91.2653 132.612L91.2631 127.612C87.1416 127.614 83.0923 126.529 79.523 124.469L77.0229 128.799ZM60.6856 35.157L61.6563 40.0619C62.7386 39.8477 63.8556 40.198 64.6218 40.9918L68.2194 37.5195L71.8171 34.0471C68.6902 30.8075 64.1318 29.378 59.7149 30.2522L60.6856 35.157ZM64.6784 114.934L59.8487 116.227C61.5589 122.612 65.7354 128.055 71.4594 131.36L73.9594 127.03L76.4595 122.7C73.0325 120.721 70.532 117.462 69.5081 113.64L64.6784 114.934ZM75.8107 149.941L76.7971 145.04C77.0761 145.096 77.2867 145.17 77.4069 145.217C77.4679 145.241 77.5126 145.261 77.536 145.272C77.5587 145.282 77.5687 145.287 77.5562 145.281C77.5377 145.272 77.5255 145.266 77.4731 145.24C77.4314 145.219 77.3638 145.185 77.2876 145.149C77.1376 145.077 76.8909 144.963 76.5873 144.855L74.9033 149.563L73.2193 154.271C73.0698 154.217 72.9734 154.17 72.9723 154.17C72.9705 154.169 72.977 154.172 73.0093 154.188C73.0309 154.199 73.0926 154.23 73.1482 154.257C73.3464 154.354 73.9875 154.675 74.8242 154.843L75.8107 149.941ZM52.8906 42.0736L57.7296 43.3322C58.1476 41.725 59.4485 40.4988 61.0776 40.1764L60.1069 35.2716L59.1362 30.3667C53.7427 31.4341 49.4357 35.4938 48.0516 40.8149L52.8906 42.0736ZM64 109.78H59C59 111.957 59.2853 114.124 59.8487 116.227L64.6784 114.934L69.5081 113.64C69.1708 112.381 69 111.083 69 109.78H64ZM76.0093 149.961L75.3022 145.011C75.5346 144.978 75.772 144.961 76.0126 144.961L76.0063 149.961L76 154.961C76.2426 154.961 76.482 154.944 76.7164 154.91L76.0093 149.961ZM47.0165 64.6073V69.6073C49.3007 69.6073 51.2965 68.0642 51.8715 65.8536L47.0325 64.5949L42.1935 63.3363C42.7648 61.1402 44.7474 59.6073 47.0165 59.6073V64.6073ZM64.0375 69.1504L65.3169 64.3169C62.1259 63.4722 59 65.8783 59 69.1792H64H69C69 72.441 65.9112 74.8186 62.758 73.9839L64.0375 69.1504ZM76.0197 149.962L77.7175 145.259C76.9448 144.98 76.1155 144.895 75.3022 145.011L76.0093 149.961L76.7164 154.91C75.9102 155.026 75.088 154.941 74.3219 154.665L76.0197 149.962ZM47 64.6238H52C52 67.3765 49.7685 69.6073 47.0165 69.6073V64.6073V59.6073C44.2463 59.6073 42 61.8529 42 64.6238H47ZM64.0739 69.1291L59.235 67.8704C59.9281 65.2059 62.6552 63.6123 65.3169 64.3169L64.0375 69.1504L62.758 73.9839C65.4516 74.697 68.2115 73.0843 68.9129 70.3878L64.0739 69.1291ZM76.3181 150L71.9742 147.524C73.1595 145.444 75.6691 144.519 77.9204 145.332L76.2226 150.035L74.5248 154.738C76.8484 155.577 79.4386 154.622 80.662 152.476L76.3181 150ZM47.104 115.607V110.607C49.808 110.607 52 112.799 52 115.503H47H42C42 118.322 44.2851 120.607 47.104 120.607V115.607ZM70.2666 45.3216L75.1056 46.5803C76.2671 42.115 75.0213 37.367 71.8171 34.0471L68.2194 37.5195L64.6218 40.9918C65.407 41.8053 65.7123 42.9688 65.4276 44.0629L70.2666 45.3216Z" fill="#45504D" mask="url(#path-5-inside-1_1280_70752)"/>
<path d="M59.0683 45.2391C59.1609 44.8827 59.3472 44.5576 59.6077 44.2975L59.6819 44.2234C60.8287 43.0781 62.7899 43.6909 63.0807 45.2854C63.1332 45.5733 63.1222 45.8691 63.0486 46.1523L57.6709 66.8276C57.3871 67.9185 56.2727 68.5729 55.1818 68.2891C54.0909 68.0054 53.4366 66.891 53.7203 65.8001L59.0683 45.2391Z" fill="#90CABC"/>
<path d="M53.5 66.7347C53.5 66.4512 53.5641 66.1714 53.6875 65.9162C54.4185 64.4045 56.6136 64.5362 57.1586 66.1244L57.3827 66.7775C57.4603 67.0036 57.4999 67.241 57.4999 67.48L57.5 97.804C57.5 98.9085 56.6046 99.804 55.5 99.804C54.3954 99.804 53.5 98.9085 53.5 97.804V66.7347Z" fill="#90CABC"/>
<mask id="path-9-inside-2_1280_70752" fill="white">
<path d="M124.5 93.0002C136.926 93.0002 147 103.074 147 115.5C147 127.927 136.926 138 124.5 138H121.467C121.811 139.039 122 140.149 122 141.304C122 147.103 117.299 151.804 111.5 151.804H88.5C82.701 151.804 78 147.103 78 141.304C78 140.149 78.189 139.039 78.5332 138H75.5C63.0737 138 53.0001 127.927 53 115.5C53 103.074 63.0736 93.0002 75.5 93.0002H124.5ZM76.5 107C71.8056 107 68 110.806 68 115.5C68.0001 120.195 71.8056 124 76.5 124H123.5C128.194 124 132 120.195 132 115.5C132 110.806 128.194 107 123.5 107H76.5ZM60 71.0002C63.3137 71.0002 66 73.6865 66 77.0002V90.0002C65.9999 93.3139 63.3137 96.0002 60 96.0002H51C47.6863 96.0002 45.0001 93.3139 45 90.0002V77.0002C45 73.6865 47.6863 71.0002 51 71.0002H60Z"/>
</mask>
<path d="M124.5 93.0002C136.926 93.0002 147 103.074 147 115.5C147 127.927 136.926 138 124.5 138H121.467C121.811 139.039 122 140.149 122 141.304C122 147.103 117.299 151.804 111.5 151.804H88.5C82.701 151.804 78 147.103 78 141.304C78 140.149 78.189 139.039 78.5332 138H75.5C63.0737 138 53.0001 127.927 53 115.5C53 103.074 63.0736 93.0002 75.5 93.0002H124.5ZM76.5 107C71.8056 107 68 110.806 68 115.5C68.0001 120.195 71.8056 124 76.5 124H123.5C128.194 124 132 120.195 132 115.5C132 110.806 128.194 107 123.5 107H76.5ZM60 71.0002C63.3137 71.0002 66 73.6865 66 77.0002V90.0002C65.9999 93.3139 63.3137 96.0002 60 96.0002H51C47.6863 96.0002 45.0001 93.3139 45 90.0002V77.0002C45 73.6865 47.6863 71.0002 51 71.0002H60Z" fill="#98B6AF"/>
<path d="M124.5 93.0002V88.0002V93.0002ZM147 115.5L152 115.5V115.5H147ZM124.5 138V143V138ZM121.467 138V133H114.543L116.72 139.573L121.467 138ZM88.5 151.804V156.804V156.804V151.804ZM78.5332 138L83.2795 139.573L85.457 133H78.5332V138ZM75.5 138V143V138ZM53 115.5H48V115.5L53 115.5ZM75.5 93.0002V88.0002V93.0002ZM68 115.5H63V115.5L68 115.5ZM132 115.5L137 115.5V115.5H132ZM66 90.0002L71 90.0004V90.0002H66ZM60 96.0002V101V101V96.0002ZM45 90.0002H40V90.0004L45 90.0002ZM51 71.0002V66.0002V66.0002V71.0002ZM124.5 93.0002V98.0002C134.165 98.0002 142 105.835 142 115.5H147H152C152 100.312 139.688 88.0002 124.5 88.0002V93.0002ZM147 115.5L142 115.5C142 125.165 134.165 133 124.5 133V138V143C139.688 143 152 130.688 152 115.5L147 115.5ZM124.5 138V133H121.467V138V143H124.5V138ZM121.467 138L116.72 139.573C116.901 140.119 117 140.699 117 141.304H122H127C127 139.6 126.721 137.96 126.213 136.428L121.467 138ZM122 141.304H117C117 144.342 114.538 146.804 111.5 146.804V151.804V156.804C120.06 156.804 127 149.864 127 141.304H122ZM111.5 151.804V146.804H88.5V151.804V156.804H111.5V151.804ZM88.5 151.804V146.804C85.4624 146.804 83 144.342 83 141.304H78H73C73 149.864 79.9396 156.804 88.5 156.804V151.804ZM78 141.304H83C83 140.699 83.0986 140.119 83.2795 139.573L78.5332 138L73.7869 136.428C73.2794 137.96 73 139.6 73 141.304H78ZM78.5332 138V133H75.5V138V143H78.5332V138ZM75.5 138V133C65.8351 133 58.0001 125.165 58 115.5L53 115.5L48 115.5C48.0001 130.688 60.3122 143 75.5 143V138ZM53 115.5H58C58 105.835 65.835 98.0002 75.5 98.0002V93.0002V88.0002C60.3122 88.0002 48 100.312 48 115.5H53ZM75.5 93.0002V98.0002H124.5V93.0002V88.0002H75.5V93.0002ZM76.5 107V102C69.0442 102 63 108.044 63 115.5H68H73C73 113.567 74.567 112 76.5 112V107ZM68 115.5L63 115.5C63.0001 122.956 69.0441 129 76.5 129V124V119C74.5672 119 73 117.433 73 115.5L68 115.5ZM76.5 124V129H123.5V124V119H76.5V124ZM123.5 124V129C130.956 129 137 122.956 137 115.5L132 115.5L127 115.5C127 117.433 125.433 119 123.5 119V124ZM132 115.5H137C137 108.044 130.956 102 123.5 102V107V112C125.433 112 127 113.567 127 115.5H132ZM123.5 107V102H76.5V107V112H123.5V107ZM60 71.0002V76.0002C60.5523 76.0002 61 76.448 61 77.0002H66H71C71 70.9251 66.0751 66.0002 60 66.0002V71.0002ZM66 77.0002H61V90.0002H66H71V77.0002H66ZM66 90.0002L61 90.0001C61 90.5526 60.5521 91.0002 60 91.0002V96.0002V101C66.0752 101 70.9998 96.0752 71 90.0004L66 90.0002ZM60 96.0002V91.0002H51V96.0002V101H60V96.0002ZM51 96.0002V91.0002C50.4479 91.0002 50 90.5526 50 90.0001L45 90.0002L40 90.0004C40.0002 96.0752 44.9248 101 51 101V96.0002ZM45 90.0002H50V77.0002H45H40V90.0002H45ZM45 77.0002H50C50 76.448 50.4477 76.0002 51 76.0002V71.0002V66.0002C44.9249 66.0002 40 70.9251 40 77.0002H45ZM51 71.0002V76.0002H60V71.0002V66.0002H51V71.0002Z" fill="#45504D" mask="url(#path-9-inside-2_1280_70752)"/>
<rect x="86" y="134.804" width="28" height="11" rx="5.5" fill="#658B82"/>
<rect x="89" y="136.804" width="22" height="7" rx="3.5" fill="#507169"/>
</svg>
