<svg width="200" height="200" viewBox="0 0 200 200" fill="none" xmlns="http://www.w3.org/2000/svg">
<path d="M151.805 84.9668C152.524 84.8119 153.158 85.4594 152.989 86.1748L149.154 102.354C149.061 102.746 148.742 103.044 148.346 103.11L119.093 108.019C119.01 108.032 118.929 108.057 118.853 108.091L105.427 114.051L101.27 119.07C100.87 119.553 100.13 119.553 99.7297 119.07L96.0715 114.654L82.4104 108.089C82.3411 108.056 82.2677 108.03 82.1926 108.014L55.4133 102.092C55.1494 102.033 54.9196 101.871 54.7776 101.641L45.5032 86.6074C45.0426 85.8608 45.6978 84.9256 46.5569 85.1035L99.7053 96.1133C99.8417 96.1415 99.9823 96.1416 100.118 96.1123L151.805 84.9668Z" fill="black" fill-opacity="0.25"/>
<path d="M60.6758 55.9072C61.4945 53.9922 64.1588 53.8595 65.1641 55.6836L68.3223 61.4141C69.2721 63.1374 70.8614 64.418 72.7471 64.9805L97.8262 72.46C99.2535 72.8856 100.775 72.877 102.197 72.4346L122.896 65.9951C123.011 65.9592 123.13 65.9319 123.249 65.9131L129.471 64.9307C132.172 64.5042 134.427 62.6412 135.355 60.0693L136.337 57.3525C137.121 55.1822 140.175 55.1414 141.016 57.29L143.967 64.8311C144.332 65.7648 144.104 66.8267 143.388 67.5283L129.851 80.7861C129.383 81.2437 128.755 81.4999 128.102 81.5H65.6504C64.6638 81.4999 63.7692 80.9195 63.3672 80.0186L57.1729 66.1377C56.8893 65.502 56.8837 64.7768 57.1572 64.1367L60.6758 55.9072Z" fill="#464A4A" stroke="#2B3333" stroke-width="5"/>
<rect x="54.5" y="62.5" width="91" height="32" rx="12.5" fill="#444C4C" stroke="#2B3333" stroke-width="5"/>
<rect x="62" y="69" width="78" height="29" rx="8" fill="#353E3E"/>
<mask id="path-5-outside-1_1246_2" maskUnits="userSpaceOnUse" x="39.6189" y="55.2183" width="123" height="65" fill="black">
<rect fill="white" x="39.6189" y="55.2183" width="123" height="65"/>
<path d="M152.026 60.8899C152.363 59.9276 153.754 60.0236 153.951 61.0227L156.98 76.3918C157.017 76.58 156.999 76.7748 156.929 76.9533L151.069 91.7326C151.004 91.897 150.983 92.0756 151.01 92.2502L153.034 105.653C153.176 106.594 152.045 107.185 151.355 106.53L143.111 98.6946C142.909 99.0164 142.538 99.202 142.149 99.1565L119.029 96.4475C118.803 96.421 118.574 96.4726 118.381 96.594L104.923 105.061L101.167 114.446C100.832 115.283 99.645 115.283 99.3096 114.446L95.8633 105.836L82.3213 96.6135C82.1248 96.4797 81.8867 96.4209 81.6504 96.4465L58.8311 98.9211C58.8003 98.9609 58.7684 99.0003 58.7315 99.0354L50.2637 107.083C49.5739 107.739 48.4421 107.148 48.584 106.206L50.6084 92.8039C50.6348 92.6291 50.6141 92.4499 50.5488 92.2854L44.6895 77.5071C44.6186 77.3284 44.6006 77.1329 44.6377 76.9446L44.9834 75.1906L44.8018 74.7883C44.5554 74.242 44.8404 73.6613 45.3252 73.4553L47.668 61.5754C47.8653 60.5768 49.2557 60.4807 49.5928 61.4426L53.334 72.1262C53.3872 72.2782 53.4764 72.4153 53.5938 72.5256L56.9551 75.6838L70.0957 78.4065L71.4561 71.7727C71.5044 71.537 71.6278 71.3311 71.8057 71.1916L78.7071 65.7795C79.3311 65.2902 80.237 65.8137 80.249 66.6701L80.3506 73.8215C80.3533 74.0153 80.4056 74.2071 80.502 74.3752L83.542 79.6799C83.7558 80.0528 83.7432 80.5194 83.5098 80.8537L83.3067 81.1428L99.416 84.4807C99.5525 84.509 99.6938 84.5091 99.8301 84.4797L119.091 80.3254C119.076 80.1066 119.123 79.8798 119.237 79.6799L122.278 74.3752C122.375 74.2071 122.427 74.0153 122.43 73.8215L122.53 66.6701C122.542 65.8139 123.448 65.2907 124.072 65.7795L130.974 71.1916C131.152 71.3311 131.276 71.537 131.324 71.7727L132.485 77.4377L145.103 74.717L148.024 71.9719C148.142 71.8617 148.231 71.7252 148.284 71.5735L152.026 60.8899Z"/>
</mask>
<path d="M152.026 60.8899C152.363 59.9276 153.754 60.0236 153.951 61.0227L156.98 76.3918C157.017 76.58 156.999 76.7748 156.929 76.9533L151.069 91.7326C151.004 91.897 150.983 92.0756 151.01 92.2502L153.034 105.653C153.176 106.594 152.045 107.185 151.355 106.53L143.111 98.6946C142.909 99.0164 142.538 99.202 142.149 99.1565L119.029 96.4475C118.803 96.421 118.574 96.4726 118.381 96.594L104.923 105.061L101.167 114.446C100.832 115.283 99.645 115.283 99.3096 114.446L95.8633 105.836L82.3213 96.6135C82.1248 96.4797 81.8867 96.4209 81.6504 96.4465L58.8311 98.9211C58.8003 98.9609 58.7684 99.0003 58.7315 99.0354L50.2637 107.083C49.5739 107.739 48.4421 107.148 48.584 106.206L50.6084 92.8039C50.6348 92.6291 50.6141 92.4499 50.5488 92.2854L44.6895 77.5071C44.6186 77.3284 44.6006 77.1329 44.6377 76.9446L44.9834 75.1906L44.8018 74.7883C44.5554 74.242 44.8404 73.6613 45.3252 73.4553L47.668 61.5754C47.8653 60.5768 49.2557 60.4807 49.5928 61.4426L53.334 72.1262C53.3872 72.2782 53.4764 72.4153 53.5938 72.5256L56.9551 75.6838L70.0957 78.4065L71.4561 71.7727C71.5044 71.537 71.6278 71.3311 71.8057 71.1916L78.7071 65.7795C79.3311 65.2902 80.237 65.8137 80.249 66.6701L80.3506 73.8215C80.3533 74.0153 80.4056 74.2071 80.502 74.3752L83.542 79.6799C83.7558 80.0528 83.7432 80.5194 83.5098 80.8537L83.3067 81.1428L99.416 84.4807C99.5525 84.509 99.6938 84.5091 99.8301 84.4797L119.091 80.3254C119.076 80.1066 119.123 79.8798 119.237 79.6799L122.278 74.3752C122.375 74.2071 122.427 74.0153 122.43 73.8215L122.53 66.6701C122.542 65.8139 123.448 65.2907 124.072 65.7795L130.974 71.1916C131.152 71.3311 131.276 71.537 131.324 71.7727L132.485 77.4377L145.103 74.717L148.024 71.9719C148.142 71.8617 148.231 71.7252 148.284 71.5735L152.026 60.8899Z" fill="#464A4A"/>
<path d="M152.026 60.8899L156.745 62.5428L156.745 62.5426L152.026 60.8899ZM153.951 61.0227L158.857 60.0558L158.857 60.0557L153.951 61.0227ZM156.98 76.3918L161.887 75.4269L161.886 75.4249L156.98 76.3918ZM156.929 76.9533L161.577 78.7961L161.577 78.7957L156.929 76.9533ZM151.069 91.7326L146.421 89.8899L146.421 89.8911L151.069 91.7326ZM151.01 92.2502L146.066 92.9952L146.066 92.997L151.01 92.2502ZM153.034 105.653L157.978 104.906L157.978 104.906L153.034 105.653ZM151.355 106.53L154.8 102.905L154.8 102.905L151.355 106.53ZM143.111 98.6946L146.556 95.0702L142.126 90.8603L138.877 96.0361L143.111 98.6946ZM142.149 99.1565L142.731 94.1904L142.731 94.1904L142.149 99.1565ZM119.029 96.4475L119.611 91.4815L119.61 91.4814L119.029 96.4475ZM118.381 96.594L115.72 92.3608L115.718 92.3618L118.381 96.594ZM104.923 105.061L102.26 100.829L100.885 101.694L100.281 103.203L104.923 105.061ZM101.167 114.446L105.809 116.304L105.809 116.303L101.167 114.446ZM99.3096 114.446L103.952 112.587L103.952 112.587L99.3096 114.446ZM95.8633 105.836L100.505 103.978L99.9384 102.562L98.6778 101.704L95.8633 105.836ZM82.3213 96.6135L85.1358 92.4809L85.1348 92.4802L82.3213 96.6135ZM81.6504 96.4465L82.1895 101.417L82.1896 101.417L81.6504 96.4465ZM58.8311 98.9211L58.292 93.9503L56.1784 94.1795L54.8771 95.8607L58.8311 98.9211ZM58.7315 99.0354L55.287 95.4111L55.2869 95.4111L58.7315 99.0354ZM50.2637 107.083L53.7082 110.708L53.7082 110.707L50.2637 107.083ZM48.584 106.206L43.6401 105.459L43.6398 105.461L48.584 106.206ZM50.6084 92.8039L55.5523 93.5507L55.5524 93.5506L50.6084 92.8039ZM50.5488 92.2854L55.1969 90.4426L55.1968 90.4425L50.5488 92.2854ZM44.6895 77.5071L40.0415 79.3499L40.0415 79.3499L44.6895 77.5071ZM44.6377 76.9446L39.7321 75.9776L39.7321 75.9778L44.6377 76.9446ZM44.9834 75.1906L49.889 76.1576L50.1981 74.5897L49.5405 73.1333L44.9834 75.1906ZM44.8018 74.7883L40.2439 76.8439L40.2447 76.8456L44.8018 74.7883ZM45.3252 73.4553L47.2807 78.057L49.7183 77.0212L50.2307 74.4227L45.3252 73.4553ZM47.668 61.5754L42.7628 60.6064L42.7625 60.608L47.668 61.5754ZM49.5928 61.4426L54.3118 59.7901L54.3114 59.789L49.5928 61.4426ZM53.334 72.1262L48.615 73.7787L48.615 73.7789L53.334 72.1262ZM53.5938 72.5256L50.1693 76.1688L50.1701 76.1695L53.5938 72.5256ZM56.9551 75.6838L53.5314 79.3277L54.5594 80.2936L55.9407 80.5798L56.9551 75.6838ZM70.0957 78.4065L69.0813 83.3025L73.9873 84.319L74.9938 79.4109L70.0957 78.4065ZM71.4561 71.7727L76.3542 72.7771L76.3542 72.7769L71.4561 71.7727ZM71.8057 71.1916L68.7202 67.2572L68.7199 67.2574L71.8057 71.1916ZM78.7071 65.7795L75.6217 61.8449L75.6216 61.845L78.7071 65.7795ZM80.249 66.6701L75.2495 66.7406L75.2495 66.7411L80.249 66.6701ZM80.3506 73.8215L85.3501 73.7511L85.3501 73.7505L80.3506 73.8215ZM80.502 74.3752L76.1634 76.8606L76.1639 76.8613L80.502 74.3752ZM83.542 79.6799L79.2039 82.166L79.204 82.1663L83.542 79.6799ZM83.5098 80.8537L87.6007 83.7285L87.6051 83.7223L87.6093 83.7162L83.5098 80.8537ZM83.3067 81.1428L79.2157 78.2681L74.8402 84.4947L82.2922 86.0388L83.3067 81.1428ZM99.416 84.4807L98.4016 89.3767L98.4018 89.3767L99.416 84.4807ZM99.8301 84.4797L100.884 89.3674L100.884 89.3673L99.8301 84.4797ZM119.091 80.3254L120.145 85.213L124.37 84.3017L124.08 79.9891L119.091 80.3254ZM119.237 79.6799L114.9 77.1932L114.899 77.1938L119.237 79.6799ZM122.278 74.3752L126.616 76.8619L126.617 76.8601L122.278 74.3752ZM122.43 73.8215L127.429 73.892V73.8918L122.43 73.8215ZM122.53 66.6701L117.531 66.5997L117.531 66.5998L122.53 66.6701ZM124.072 65.7795L127.158 61.845L127.156 61.8433L124.072 65.7795ZM130.974 71.1916L127.888 75.1261L127.888 75.1262L130.974 71.1916ZM131.324 71.7727L136.222 70.7687L136.222 70.7685L131.324 71.7727ZM132.485 77.4377L127.587 78.4417L128.601 83.3901L133.539 82.3254L132.485 77.4377ZM145.103 74.717L146.157 79.6047L147.514 79.3119L148.526 78.3611L145.103 74.717ZM148.024 71.9719L151.448 75.6159L151.449 75.6152L148.024 71.9719ZM148.284 71.5735L153.002 73.2287L153.003 73.2264L148.284 71.5735ZM152.026 60.8899L156.745 62.5426C155.417 66.3348 149.845 66.0449 149.046 61.9897L153.951 61.0227L158.857 60.0557C157.664 54.0022 149.31 53.5205 147.307 59.2372L152.026 60.8899ZM153.951 61.0227L149.046 61.9896L152.075 77.3587L156.98 76.3918L161.886 75.4249L158.857 60.0558L153.951 61.0227ZM156.98 76.3918L152.074 77.3567C151.926 76.6011 151.999 75.8216 152.281 75.111L156.929 76.9533L161.577 78.7957C162 77.7281 162.109 76.5589 161.887 75.4269L156.98 76.3918ZM156.929 76.9533L152.281 75.1106L146.421 89.8899L151.069 91.7326L155.717 93.5754L161.577 78.7961L156.929 76.9533ZM151.069 91.7326L146.421 89.8911C146.033 90.8695 145.907 91.9401 146.066 92.9952L151.01 92.2502L155.954 91.5052C156.06 92.2111 155.975 92.9245 155.718 93.5742L151.069 91.7326ZM151.01 92.2502L146.066 92.997L148.09 106.399L153.034 105.653L157.978 104.906L155.954 91.5034L151.01 92.2502ZM153.034 105.653L148.09 106.399C147.525 102.654 152.023 100.266 154.8 102.905L151.355 106.53L147.911 110.154C152.067 114.104 158.828 110.534 157.978 104.906L153.034 105.653ZM151.355 106.53L154.8 102.905L146.556 95.0702L143.111 98.6946L139.667 102.319L147.911 110.154L151.355 106.53ZM143.111 98.6946L138.877 96.0361C139.678 94.7595 141.162 94.0066 142.731 94.1904L142.149 99.1565L141.568 104.122C143.914 104.397 146.141 103.273 147.346 101.353L143.111 98.6946ZM142.149 99.1565L142.731 94.1904L119.611 91.4815L119.029 96.4475L118.447 101.414L141.568 104.122L142.149 99.1565ZM119.029 96.4475L119.61 91.4814C118.253 91.3225 116.88 91.6316 115.72 92.3608L118.381 96.594L121.042 100.827C120.268 101.314 119.353 101.519 118.448 101.414L119.029 96.4475ZM118.381 96.594L115.718 92.3618L102.26 100.829L104.923 105.061L107.585 109.293L121.043 100.826L118.381 96.594ZM104.923 105.061L100.281 103.203L96.525 112.588L101.167 114.446L105.809 116.303L109.565 106.919L104.923 105.061ZM101.167 114.446L96.5251 112.587C97.8666 109.236 102.61 109.236 103.952 112.587L99.3096 114.446L94.6677 116.304C96.6799 121.331 103.797 121.331 105.809 116.304L101.167 114.446ZM99.3096 114.446L103.952 112.587L100.505 103.978L95.8633 105.836L91.2214 107.694L94.6677 116.304L99.3096 114.446ZM95.8633 105.836L98.6778 101.704L85.1358 92.4809L82.3213 96.6135L79.5068 100.746L93.0488 109.969L95.8633 105.836ZM82.3213 96.6135L85.1348 92.4802C83.9485 91.6727 82.5203 91.3228 81.1112 91.4757L81.6504 96.4465L82.1896 101.417C81.2532 101.519 80.3011 101.287 79.5078 100.747L82.3213 96.6135ZM81.6504 96.4465L81.1114 91.4756L58.292 93.9503L58.8311 98.9211L59.3701 103.892L82.1895 101.417L81.6504 96.4465ZM58.8311 98.9211L54.8771 95.8607C54.8808 95.8559 54.9229 95.8012 54.985 95.7287C55.0492 95.6536 55.1509 95.5404 55.287 95.4111L58.7315 99.0354L62.176 102.66C62.5039 102.348 62.7281 102.055 62.785 101.982L58.8311 98.9211ZM58.7315 99.0354L55.2869 95.4111L46.8192 103.459L50.2637 107.083L53.7082 110.707L62.176 102.66L58.7315 99.0354ZM50.2637 107.083L46.8192 103.459C49.5946 100.821 54.0926 103.206 53.5282 106.951L48.584 106.206L43.6398 105.461C42.7916 111.09 49.5532 114.656 53.7082 110.708L50.2637 107.083ZM48.584 106.206L53.5279 106.953L55.5523 93.5507L50.6084 92.8039L45.6645 92.0572L43.6401 105.459L48.584 106.206ZM50.6084 92.8039L55.5524 93.5506C55.7116 92.4962 55.5859 91.4237 55.1969 90.4426L50.5488 92.2854L45.9008 94.1282C45.6423 93.4761 45.558 92.7621 45.6645 92.0573L50.6084 92.8039ZM50.5488 92.2854L55.1968 90.4425L49.3375 75.6642L44.6895 77.5071L40.0415 79.3499L45.9009 94.1282L50.5488 92.2854ZM44.6895 77.5071L49.3375 75.6642C49.6195 76.3755 49.6924 77.1552 49.5434 77.9113L44.6377 76.9446L39.7321 75.9778C39.5088 77.1105 39.6178 78.2813 40.0415 79.3499L44.6895 77.5071ZM44.6377 76.9446L49.5433 77.9115L49.889 76.1576L44.9834 75.1906L40.0778 74.2237L39.7321 75.9776L44.6377 76.9446ZM44.9834 75.1906L49.5405 73.1333L49.3589 72.731L44.8018 74.7883L40.2447 76.8456L40.4263 77.248L44.9834 75.1906ZM44.8018 74.7883L49.3597 72.7327C50.3708 74.9748 49.1362 77.2685 47.2807 78.057L45.3252 73.4553L43.3697 68.8536C40.5447 70.0541 38.74 73.5093 40.2439 76.8439L44.8018 74.7883ZM45.3252 73.4553L50.2307 74.4227L52.5735 62.5428L47.668 61.5754L42.7625 60.608L40.4197 72.4879L45.3252 73.4553ZM47.668 61.5754L52.5732 62.5444C51.7732 66.5941 46.204 66.8909 44.8741 63.0962L49.5928 61.4426L54.3114 59.789C52.3075 54.0705 43.9574 54.5595 42.7628 60.6064L47.668 61.5754ZM49.5928 61.4426L44.8738 63.0951L48.615 73.7787L53.334 72.1262L58.053 70.4737L54.3118 59.7901L49.5928 61.4426ZM53.334 72.1262L48.615 73.7789C48.9337 74.6888 49.4669 75.5086 50.1693 76.1688L53.5938 72.5256L57.0183 68.8824C57.4859 69.3219 57.8407 69.8675 58.053 70.4735L53.334 72.1262ZM53.5938 72.5256L50.1701 76.1695L53.5314 79.3277L56.9551 75.6838L60.3788 72.0399L57.0175 68.8817L53.5938 72.5256ZM56.9551 75.6838L55.9407 80.5798L69.0813 83.3025L70.0957 78.4065L71.1101 73.5105L57.9695 70.7878L56.9551 75.6838ZM70.0957 78.4065L74.9938 79.4109L76.3542 72.7771L71.4561 71.7727L66.558 70.7683L65.1976 77.402L70.0957 78.4065ZM71.4561 71.7727L76.3542 72.7769C76.183 73.6118 75.7155 74.4795 74.8914 75.1259L71.8057 71.1916L68.7199 67.2574C67.5401 68.1828 66.8258 69.4622 66.558 70.7685L71.4561 71.7727ZM71.8057 71.1916L74.8911 75.1261L81.7925 69.714L78.7071 65.7795L75.6216 61.845L68.7202 67.2572L71.8057 71.1916ZM78.7071 65.7795L81.7924 69.7141C80.2886 70.8933 78.4267 70.7546 77.2064 70.0496C76.0312 69.3707 75.269 68.1225 75.2495 66.7406L80.249 66.6701L85.2485 66.5997C85.217 64.3613 83.9958 62.4231 82.2087 61.3907C80.3764 60.3322 77.7496 60.1764 75.6217 61.8449L78.7071 65.7795ZM80.249 66.6701L75.2495 66.7411L75.3511 73.8925L80.3506 73.8215L85.3501 73.7505L85.2485 66.5991L80.249 66.6701ZM80.3506 73.8215L75.3511 73.892C75.3657 74.9307 75.644 75.9539 76.1634 76.8606L80.502 74.3752L84.8405 71.8899C85.1673 72.4603 85.3409 73.0999 85.3501 73.7511L80.3506 73.8215ZM80.502 74.3752L76.1639 76.8613L79.2039 82.166L83.542 79.6799L87.8801 77.1938L84.8401 71.8891L80.502 74.3752ZM83.542 79.6799L79.204 82.1663C78.5242 80.9801 78.4589 79.3537 79.4102 77.9913L83.5098 80.8537L87.6093 83.7162C89.0275 81.6852 88.9873 79.1255 87.88 77.1935L83.542 79.6799ZM83.5098 80.8537L79.4188 77.979L79.2157 78.2681L83.3067 81.1428L87.3976 84.0175L87.6007 83.7285L83.5098 80.8537ZM83.3067 81.1428L82.2922 86.0388L98.4016 89.3767L99.416 84.4807L100.43 79.5847L84.3211 76.2468L83.3067 81.1428ZM99.416 84.4807L98.4018 89.3767C99.2037 89.5429 100.05 89.5473 100.884 89.3674L99.8301 84.4797L98.7762 79.592C99.3379 79.4709 99.9013 79.4751 100.43 79.5846L99.416 84.4807ZM99.8301 84.4797L100.884 89.3673L120.145 85.213L119.091 80.3254L118.037 75.4378L98.7759 79.5921L99.8301 84.4797ZM119.091 80.3254L124.08 79.9891C124.127 80.694 123.981 81.4586 123.575 82.166L119.237 79.6799L114.899 77.1938C114.265 78.301 114.025 79.5192 114.102 80.6617L119.091 80.3254ZM119.237 79.6799L123.575 82.1666L126.616 76.8619L122.278 74.3752L117.941 71.8885L114.9 77.1932L119.237 79.6799ZM122.278 74.3752L126.617 76.8601C127.136 75.954 127.415 74.931 127.429 73.892L122.43 73.8215L117.43 73.7511C117.439 73.0995 117.613 72.4601 117.939 71.8904L122.278 74.3752ZM122.43 73.8215L127.429 73.8918L127.53 66.7405L122.53 66.6701L117.531 66.5998L117.43 73.7512L122.43 73.8215ZM122.53 66.6701L127.53 66.7406C127.51 68.1235 126.747 69.3717 125.572 70.0502C124.353 70.7544 122.493 70.8936 120.989 69.7157L124.072 65.7795L127.156 61.8433C125.028 60.1767 122.402 60.333 120.571 61.3907C118.784 62.4227 117.562 64.3606 117.531 66.5997L122.53 66.6701ZM124.072 65.7795L120.987 69.714L127.888 75.1261L130.974 71.1916L134.059 67.2572L127.158 61.845L124.072 65.7795ZM130.974 71.1916L127.888 75.1262C127.073 74.4872 126.6 73.6244 126.426 72.7769L131.324 71.7727L136.222 70.7685C135.952 69.4495 135.23 68.1751 134.059 67.257L130.974 71.1916ZM131.324 71.7727L126.426 72.7766L127.587 78.4417L132.485 77.4377L137.384 76.4338L136.222 70.7687L131.324 71.7727ZM132.485 77.4377L133.539 82.3254L146.157 79.6047L145.103 74.717L144.049 69.8294L131.431 72.5501L132.485 77.4377ZM145.103 74.717L148.526 78.3611L151.448 75.6159L148.024 71.9719L144.601 68.3279L141.679 71.073L145.103 74.717ZM148.024 71.9719L151.449 75.6152C152.144 74.9616 152.681 74.1454 153.002 73.2287L148.284 71.5735L143.566 69.9182C143.781 69.305 144.139 68.7618 144.6 68.3286L148.024 71.9719ZM148.284 71.5735L153.003 73.2264L156.745 62.5428L152.026 60.8899L147.308 59.237L143.565 69.9206L148.284 71.5735Z" fill="#2B3333" mask="url(#path-5-outside-1_1246_2)"/>
<path d="M48.4731 79.235C48.4247 79.1134 48.4006 78.9837 48.4022 78.8534L48.4846 72.2365C48.4973 71.2204 49.85 70.8845 50.3569 71.7717L52.4611 75.4541C52.5412 75.5944 52.654 75.7136 52.7898 75.8017L56.2952 78.0747C56.3679 78.1219 56.4342 78.1781 56.4926 78.242L64.7665 87.3028L67.7688 91.235C68.2221 91.8287 67.8932 92.6837 67.1608 92.8156L57.233 94.6042C56.8469 94.6738 56.4534 94.5119 56.2266 94.1901L52.1556 88.4138C52.11 88.349 52.0721 88.2792 52.0429 88.2057L48.4731 79.235Z" fill="#515656"/>
<path d="M152.874 76.8719C152.913 76.7468 152.927 76.6156 152.915 76.4858L152.311 69.896C152.218 68.8841 150.843 68.6559 150.408 69.5802L148.601 73.4171C148.532 73.5632 148.429 73.691 148.3 73.7895L144.985 76.3318C144.916 76.3845 144.855 76.4458 144.802 76.5141L137.268 86.199L134.585 90.3557C134.18 90.9833 134.575 91.8096 135.316 91.8835L145.353 92.8838C145.744 92.9227 146.123 92.7303 146.324 92.3916L149.927 86.3124C149.967 86.2442 150 86.1716 150.023 86.0961L152.874 76.8719Z" fill="#515656"/>
<path d="M57.1116 82.8333C56.6713 82.1071 57.2796 81.1972 58.119 81.3265L100.216 87.8129C100.319 87.8287 100.424 87.8284 100.527 87.8119L141.038 81.3147C141.849 81.1846 142.463 82.0342 142.084 82.7632L135.215 95.9784C135.029 96.3374 134.644 96.5486 134.241 96.5135L115.839 94.9097C115.664 94.8944 115.488 94.9256 115.329 95.0002L100.813 101.794C100.534 101.924 100.211 101.919 99.937 101.78L86.5794 95.0137C86.415 94.9304 86.2308 94.8942 86.0471 94.909L66.0573 96.5218C65.68 96.5523 65.318 96.3672 65.1217 96.0436L57.1116 82.8333Z" fill="#515656"/>
<path d="M65.27 85.9105C64.7866 85.1833 65.4022 84.2292 66.2641 84.37L100.562 89.9756C100.661 89.9918 100.762 89.9929 100.861 89.979L134.391 85.2947C135.23 85.1775 135.825 86.0909 135.379 86.8112L132.319 91.7586C132.123 92.0753 131.767 92.2569 131.396 92.2298L114.713 91.0155C114.573 91.0053 114.432 91.0248 114.299 91.0728L101.074 95.8685C100.841 95.9531 100.584 95.9479 100.354 95.8538L88.7145 91.0878C88.5734 91.03 88.4209 91.0053 88.2687 91.0155L70.0786 92.235C69.7208 92.259 69.3775 92.0895 69.179 91.7908L65.27 85.9105Z" fill="#5D6262"/>
</svg>
