<svg width="200" height="200" viewBox="0 0 200 200" fill="none" xmlns="http://www.w3.org/2000/svg">
<rect x="58" y="90" width="84" height="23" fill="black" fill-opacity="0.25"/>
<mask id="path-2-inside-1_1260_70859" fill="white">
<path d="M84.5003 57C90.0301 57.0001 95.0219 59.3022 98.5706 63H109.614C112.512 61.7296 115.892 61 119.5 61C123.108 61 126.487 61.7297 129.386 63H130.5C140.165 63.0002 148 70.8351 148 80.5C148 81.8997 147.834 83.2607 147.524 84.5654C153.574 86.3095 158 91.888 158 98.5C158 106.508 151.508 113 143.5 113C135.492 113 129 106.508 129 98.5C129 98.3326 129.003 98.166 129.009 98H69.7269C69.5806 99.1038 69.359 100.221 69.0589 101.341C66.2716 111.743 57.7414 118.496 50.0062 116.424C42.271 114.351 38.26 104.238 41.0472 93.8359C42.7386 87.5236 46.5444 82.555 51.0042 80.0869C51.2237 70.6127 58.9734 63 68.5003 63H70.429C73.9778 59.3021 78.9703 57 84.5003 57Z"/>
</mask>
<path d="M84.5003 57C90.0301 57.0001 95.0219 59.3022 98.5706 63H109.614C112.512 61.7296 115.892 61 119.5 61C123.108 61 126.487 61.7297 129.386 63H130.5C140.165 63.0002 148 70.8351 148 80.5C148 81.8997 147.834 83.2607 147.524 84.5654C153.574 86.3095 158 91.888 158 98.5C158 106.508 151.508 113 143.5 113C135.492 113 129 106.508 129 98.5C129 98.3326 129.003 98.166 129.009 98H69.7269C69.5806 99.1038 69.359 100.221 69.0589 101.341C66.2716 111.743 57.7414 118.496 50.0062 116.424C42.271 114.351 38.26 104.238 41.0472 93.8359C42.7386 87.5236 46.5444 82.555 51.0042 80.0869C51.2237 70.6127 58.9734 63 68.5003 63H70.429C73.9778 59.3021 78.9703 57 84.5003 57Z" fill="#645454"/>
<path d="M84.5003 57L84.5004 52H84.5003V57ZM98.5706 63L94.9631 66.4621L96.4391 68H98.5706V63ZM109.614 63V68H110.661L111.621 67.5795L109.614 63ZM119.5 61L119.5 56H119.5V61ZM129.386 63L127.379 67.5796L128.339 68H129.386V63ZM130.5 63L130.5 58H130.5V63ZM148 80.5H153V80.5H148ZM147.524 84.5654L142.66 83.4081L141.555 88.0486L146.139 89.3698L147.524 84.5654ZM143.5 113V118H143.5L143.5 113ZM129.009 98L134.006 98.1693L134.181 93H129.009V98ZM69.7269 98V93H65.3459L64.7702 97.343L69.7269 98ZM69.0589 101.341L73.8885 102.635L73.8886 102.635L69.0589 101.341ZM50.0062 116.424L48.7121 121.253L48.7122 121.253L50.0062 116.424ZM41.0472 93.8359L36.2176 92.5418L36.2175 92.5419L41.0472 93.8359ZM51.0042 80.0869L53.4253 84.4617L55.9364 83.072L56.0029 80.2027L51.0042 80.0869ZM70.429 63V68H72.5606L74.0365 66.462L70.429 63ZM84.5003 57L84.5002 62C88.6125 62.0001 92.318 63.7058 94.9631 66.4621L98.5706 63L102.178 59.5379C97.7259 54.8987 91.4477 52.0001 84.5004 52L84.5003 57ZM98.5706 63V68H109.614V63V58H98.5706V63ZM109.614 63L111.621 67.5795C113.864 66.5962 116.558 66 119.5 66V61V56C115.226 56 111.16 56.863 107.607 58.4205L109.614 63ZM119.5 61L119.5 66C122.442 66 125.135 66.5962 127.379 67.5796L129.386 63L131.393 58.4204C127.839 56.8632 123.775 56.0001 119.5 56L119.5 61ZM129.386 63V68H130.5V63V58H129.386V63ZM130.5 63L130.5 68C137.404 68.0001 143 73.5967 143 80.5H148H153C153 68.0736 142.926 58.0003 130.5 58L130.5 63ZM148 80.5H143C143 81.5026 142.881 82.4753 142.66 83.4081L147.524 84.5654L152.388 85.7227C152.787 84.0461 153 82.2968 153 80.5H148ZM147.524 84.5654L146.139 89.3698C150.106 90.5134 153 94.1754 153 98.5H158H163C163 89.6006 157.043 82.1056 148.909 79.761L147.524 84.5654ZM158 98.5H153C153 103.746 148.747 108 143.5 108L143.5 113L143.5 118C154.27 118 163 109.27 163 98.5H158ZM143.5 113V108C138.254 108 134 103.747 134 98.5H129H124C124 109.27 132.731 118 143.5 118V113ZM129 98.5H134C134 98.3955 134.002 98.2857 134.006 98.1693L129.009 98L124.012 97.8307C124.005 98.0463 124 98.2698 124 98.5H129ZM129.009 98V93H69.7269V98V103H129.009V98ZM69.7269 98L64.7702 97.343C64.6526 98.2308 64.4736 99.1348 64.2292 100.047L69.0589 101.341L73.8886 102.635C74.2445 101.306 74.5086 99.9768 74.6835 98.657L69.7269 98ZM69.0589 101.341L64.2293 100.047C63.086 104.314 60.8091 107.642 58.2845 109.64C55.7598 111.639 53.2888 112.127 51.3002 111.594L50.0062 116.424L48.7122 121.253C54.4588 122.793 60.1204 120.941 64.4915 117.481C68.8626 114.02 72.2445 108.77 73.8885 102.635L69.0589 101.341ZM50.0062 116.424L51.3003 111.594C49.3115 111.061 47.4156 109.403 46.2285 106.41C45.0415 103.417 44.7336 99.3969 45.8768 95.13L41.0472 93.8359L36.2175 92.5419C34.5736 98.6774 34.8776 104.915 36.933 110.097C38.9884 115.279 42.9656 119.714 48.7121 121.253L50.0062 116.424ZM41.0472 93.8359L45.8768 95.13C47.2742 89.9151 50.334 86.1724 53.4253 84.4617L51.0042 80.0869L48.5832 75.7122C42.7549 78.9376 38.203 85.1321 36.2176 92.5418L41.0472 93.8359ZM51.0042 80.0869L56.0029 80.2027C56.1596 73.4381 61.6957 68 68.5003 68V63V58C56.2511 58 46.2878 67.7874 46.0056 79.9711L51.0042 80.0869ZM68.5003 63V68H70.429V63V58H68.5003V63ZM70.429 63L74.0365 66.462C76.6816 63.7059 80.3876 62 84.5003 62V57V52C77.553 52 71.274 54.8983 66.8215 59.538L70.429 63Z" fill="#352B2B" mask="url(#path-2-inside-1_1260_70859)"/>
<path d="M62 81.5C62 75.701 66.701 71 72.5 71H99.1739H126.5C132.299 71 137 75.701 137 81.5C137 87.299 132.299 92 126.5 92H72.5C66.701 92 62 87.299 62 81.5Z" fill="#4C3F3F"/>
<mask id="path-5-outside-2_1260_70859" maskUnits="userSpaceOnUse" x="44.0005" y="68.0002" width="114" height="82" fill="black">
<rect fill="white" x="44.0005" y="68.0002" width="114" height="82"/>
<path d="M105.634 73.5002C106.019 72.8336 106.981 72.8336 107.366 73.5002L108.81 76.0002H112.404C115.136 76.0003 117.596 77.1546 119.329 79.0002H136.662C141.766 79.0002 145.903 83.1375 145.903 88.2415C145.903 90.9647 144.727 93.3985 142.867 95.0852C146.376 99.1219 148.506 103.705 148.853 108.583L152.404 110.634C153.071 111.019 153.071 111.982 152.404 112.366L148.654 114.531C148.558 114.587 148.457 114.623 148.357 114.644C147.69 117.45 146.428 120.133 144.656 122.64C145.754 123.124 146.713 123.948 147.358 125.066C148.974 127.863 148.015 131.442 145.217 133.057L130.819 141.369C128.022 142.985 124.443 142.026 122.828 139.228C122.53 138.711 122.32 138.167 122.192 137.614C115.506 139.778 107.93 141 99.9034 141C97.8445 141 95.8154 140.918 93.8233 140.762C93.8533 141.045 93.7665 141.342 93.5372 141.572L90.4757 144.633C89.9313 145.177 89.0011 144.928 88.8018 144.185L87.6885 140.028C84.6821 139.54 81.7877 138.875 79.0333 138.053C78.9572 138.898 78.6964 139.739 78.2335 140.517C76.5807 143.293 72.9907 144.203 70.2149 142.55L55.9298 134.045C53.1539 132.392 52.2438 128.801 53.8965 126.026C54.4479 125.1 55.2154 124.383 56.0958 123.898C52.7755 119.717 50.9034 114.998 50.9034 110C50.9034 108.247 51.1342 106.528 51.5762 104.854L50.294 103.572C49.7497 103.027 49.9987 102.098 50.7423 101.899L52.8458 101.334C53.853 99.1414 55.2325 97.0492 56.9385 95.0862C55.0795 93.3993 53.9034 90.9652 53.9034 88.2424C53.9035 83.138 58.0421 79.0002 63.1465 79.0002H82.4796C84.2126 77.1547 86.6729 76.0002 89.4044 76.0002H104.19L105.634 73.5002ZM100.454 101.081C100.119 101.675 99.3009 101.766 98.8428 101.261L94.4913 96.4602C94.3169 96.2677 94.2355 96.0383 94.2315 95.8118L84.296 96.3508C84.5669 96.7581 84.524 97.3475 84.084 97.6946L80.8965 100.207C80.3609 100.629 79.5689 100.403 79.337 99.762L78.2217 96.6809L69.8702 97.134C64.8771 100.688 61.9034 105.152 61.9034 110C61.9036 121.598 78.9169 131 99.9034 131C102.135 131 104.321 130.893 106.447 130.689L107.666 128.011C107.985 127.311 108.942 127.218 109.39 127.844L110.994 130.09C126.571 127.467 137.903 119.466 137.903 110C137.903 105.446 135.28 101.23 130.822 97.7893L129.533 100.124C129.204 100.721 128.387 100.82 127.924 100.32L124.716 96.845L103.497 95.6897L100.454 101.081Z"/>
</mask>
<path d="M105.634 73.5002C106.019 72.8336 106.981 72.8336 107.366 73.5002L108.81 76.0002H112.404C115.136 76.0003 117.596 77.1546 119.329 79.0002H136.662C141.766 79.0002 145.903 83.1375 145.903 88.2415C145.903 90.9647 144.727 93.3985 142.867 95.0852C146.376 99.1219 148.506 103.705 148.853 108.583L152.404 110.634C153.071 111.019 153.071 111.982 152.404 112.366L148.654 114.531C148.558 114.587 148.457 114.623 148.357 114.644C147.69 117.45 146.428 120.133 144.656 122.64C145.754 123.124 146.713 123.948 147.358 125.066C148.974 127.863 148.015 131.442 145.217 133.057L130.819 141.369C128.022 142.985 124.443 142.026 122.828 139.228C122.53 138.711 122.32 138.167 122.192 137.614C115.506 139.778 107.93 141 99.9034 141C97.8445 141 95.8154 140.918 93.8233 140.762C93.8533 141.045 93.7665 141.342 93.5372 141.572L90.4757 144.633C89.9313 145.177 89.0011 144.928 88.8018 144.185L87.6885 140.028C84.6821 139.54 81.7877 138.875 79.0333 138.053C78.9572 138.898 78.6964 139.739 78.2335 140.517C76.5807 143.293 72.9907 144.203 70.2149 142.55L55.9298 134.045C53.1539 132.392 52.2438 128.801 53.8965 126.026C54.4479 125.1 55.2154 124.383 56.0958 123.898C52.7755 119.717 50.9034 114.998 50.9034 110C50.9034 108.247 51.1342 106.528 51.5762 104.854L50.294 103.572C49.7497 103.027 49.9987 102.098 50.7423 101.899L52.8458 101.334C53.853 99.1414 55.2325 97.0492 56.9385 95.0862C55.0795 93.3993 53.9034 90.9652 53.9034 88.2424C53.9035 83.138 58.0421 79.0002 63.1465 79.0002H82.4796C84.2126 77.1547 86.6729 76.0002 89.4044 76.0002H104.19L105.634 73.5002ZM100.454 101.081C100.119 101.675 99.3009 101.766 98.8428 101.261L94.4913 96.4602C94.3169 96.2677 94.2355 96.0383 94.2315 95.8118L84.296 96.3508C84.5669 96.7581 84.524 97.3475 84.084 97.6946L80.8965 100.207C80.3609 100.629 79.5689 100.403 79.337 99.762L78.2217 96.6809L69.8702 97.134C64.8771 100.688 61.9034 105.152 61.9034 110C61.9036 121.598 78.9169 131 99.9034 131C102.135 131 104.321 130.893 106.447 130.689L107.666 128.011C107.985 127.311 108.942 127.218 109.39 127.844L110.994 130.09C126.571 127.467 137.903 119.466 137.903 110C137.903 105.446 135.28 101.23 130.822 97.7893L129.533 100.124C129.204 100.721 128.387 100.82 127.924 100.32L124.716 96.845L103.497 95.6897L100.454 101.081Z" fill="#D9D9D9"/>
<path d="M105.634 73.5002L101.304 71.0002L101.304 71.0003L105.634 73.5002ZM107.366 73.5002L111.696 71.0003L111.696 71.0002L107.366 73.5002ZM108.81 76.0002L104.479 78.5002L105.923 81.0002H108.81V76.0002ZM112.404 76.0002L112.404 71.0002H112.404V76.0002ZM119.329 79.0002L115.684 82.4228L117.165 84.0002H119.329V79.0002ZM145.903 88.2415H150.903V88.2414L145.903 88.2415ZM142.867 95.0852L139.508 91.3815L135.882 94.6705L139.094 98.3654L142.867 95.0852ZM148.853 108.583L143.865 108.938L144.053 111.586L146.352 112.913L148.853 108.583ZM152.404 110.634L154.905 106.304L154.905 106.304L152.404 110.634ZM152.404 112.366L154.904 116.697L154.904 116.697L152.404 112.366ZM148.654 114.531L151.154 118.862L151.154 118.862L148.654 114.531ZM148.357 114.644L147.327 109.751L144.224 110.403L143.492 113.489L148.357 114.644ZM144.656 122.64L140.573 119.754L137.044 124.748L142.639 127.215L144.656 122.64ZM147.358 125.066L151.689 122.566L151.689 122.566L147.358 125.066ZM145.217 133.057L142.717 128.727L142.717 128.727L145.217 133.057ZM130.819 141.369L133.319 145.7L133.319 145.699L130.819 141.369ZM122.828 139.228L118.498 141.728L118.498 141.728L122.828 139.228ZM122.192 137.614L127.065 136.492L125.842 131.177L120.653 132.857L122.192 137.614ZM99.9034 141L99.9034 146H99.9034V141ZM93.8233 140.762L94.2136 135.777L88.2172 135.308L88.8512 141.289L93.8233 140.762ZM93.5372 141.572L90.0016 138.036V138.036L93.5372 141.572ZM90.4757 144.633L94.0112 148.169V148.169L90.4757 144.633ZM88.8018 144.185L83.972 145.478L83.9722 145.479L88.8018 144.185ZM87.6885 140.028L92.5184 138.734L91.6818 135.61L88.4897 135.092L87.6885 140.028ZM79.0333 138.053L80.4624 133.262L74.6021 131.514L74.0534 137.604L79.0333 138.053ZM78.2335 140.517L82.5296 143.075L82.5296 143.075L78.2335 140.517ZM70.2149 142.55L67.6571 146.846L67.6572 146.846L70.2149 142.55ZM55.9298 134.045L53.3718 138.341L53.3719 138.341L55.9298 134.045ZM53.8965 126.026L49.6006 123.467L49.6004 123.468L53.8965 126.026ZM56.0958 123.898L58.5078 128.277L63.6918 125.422L60.0111 120.788L56.0958 123.898ZM50.9034 110H45.9034V110L50.9034 110ZM51.5762 104.854L56.4105 106.13L57.1445 103.351L55.1118 101.318L51.5762 104.854ZM50.294 103.572L46.7585 107.107H46.7585L50.294 103.572ZM50.7423 101.899L52.0363 106.728L52.0381 106.728L50.7423 101.899ZM52.8458 101.334L54.1416 106.163L56.4094 105.555L57.3894 103.421L52.8458 101.334ZM56.9385 95.0862L60.7124 98.3661L63.9229 94.6721L60.2984 91.3833L56.9385 95.0862ZM53.9034 88.2424L48.9034 88.2424V88.2424H53.9034ZM82.4796 79.0002V84.0002H84.6433L86.1245 82.4229L82.4796 79.0002ZM104.19 76.0002V81.0002H107.077L108.521 78.5002L104.19 76.0002ZM100.454 101.081L104.808 103.54L104.809 103.539L100.454 101.081ZM98.8428 101.261L95.1382 104.619L95.1385 104.619L98.8428 101.261ZM94.4913 96.4602L90.786 99.8174L90.7867 99.8182L94.4913 96.4602ZM94.2315 95.8118L99.2307 95.7231L99.1387 90.5382L93.9606 90.8191L94.2315 95.8118ZM84.296 96.3508L84.0251 91.3582L75.2845 91.8324L80.1331 99.1204L84.296 96.3508ZM84.084 97.6946L87.1794 101.621L87.1811 101.62L84.084 97.6946ZM80.8965 100.207L83.9918 104.134L83.9919 104.134L80.8965 100.207ZM79.337 99.762L84.039 98.0616L84.0385 98.0602L79.337 99.762ZM78.2217 96.6809L82.9232 94.9791L81.6592 91.487L77.9509 91.6883L78.2217 96.6809ZM69.8702 97.134L69.5993 92.1414L68.1517 92.2199L66.9706 93.0607L69.8702 97.134ZM61.9034 110H56.9034V110L61.9034 110ZM99.9034 131L99.9034 136H99.9034V131ZM106.447 130.689L106.925 135.666L109.801 135.39L110.998 132.76L106.447 130.689ZM107.666 128.011L103.116 125.939L103.115 125.94L107.666 128.011ZM109.39 127.844L113.458 124.938L113.458 124.937L109.39 127.844ZM110.994 130.09L106.926 132.996L108.742 135.54L111.824 135.021L110.994 130.09ZM137.903 110L142.903 110V110H137.903ZM130.822 97.7893L133.878 93.8313L129.263 90.2691L126.445 95.3728L130.822 97.7893ZM129.533 100.124L133.91 102.542L133.911 102.541L129.533 100.124ZM127.924 100.32L124.25 103.711L124.252 103.713L127.924 100.32ZM124.716 96.845L128.39 93.4532L127.013 91.9627L124.988 91.8524L124.716 96.845ZM103.497 95.6897L103.769 90.6971L100.669 90.5283L99.1428 93.2321L103.497 95.6897ZM105.634 73.5002L109.964 76.0002C108.424 78.6669 104.576 78.6669 103.036 76.0002L107.366 73.5002L111.696 71.0002C109.387 67.0002 103.613 67.0002 101.304 71.0002L105.634 73.5002ZM107.366 73.5002L103.036 76.0002L104.479 78.5002L108.81 76.0002L113.14 73.5003L111.696 71.0003L107.366 73.5002ZM108.81 76.0002V81.0002H112.404V76.0002V71.0002H108.81V76.0002ZM112.404 76.0002L112.404 81.0002C113.696 81.0003 114.855 81.5394 115.684 82.4228L119.329 79.0002L122.974 75.5777C120.338 72.7698 116.576 71.0003 112.404 71.0002L112.404 76.0002ZM119.329 79.0002V84.0002H136.662V79.0002V74.0002H119.329V79.0002ZM136.662 79.0002V84.0002C139.005 84.0002 140.903 85.8989 140.903 88.2415L145.903 88.2415L150.903 88.2414C150.903 80.3761 144.528 74.0002 136.662 74.0002V79.0002ZM145.903 88.2415H140.903C140.903 89.488 140.373 90.5974 139.508 91.3815L142.867 95.0852L146.226 98.7889C149.081 96.1997 150.903 92.4415 150.903 88.2415H145.903ZM142.867 95.0852L139.094 98.3654C142.029 101.742 143.609 105.333 143.865 108.938L148.853 108.583L153.84 108.229C153.403 102.078 150.723 96.5015 146.641 91.805L142.867 95.0852ZM148.853 108.583L146.352 112.913L149.904 114.964L152.404 110.634L154.905 106.304L151.353 104.253L148.853 108.583ZM152.404 110.634L149.904 114.964C147.238 113.425 147.237 109.576 149.904 108.036L152.404 112.366L154.904 116.697C158.905 114.387 158.903 108.613 154.905 106.304L152.404 110.634ZM152.404 112.366L149.904 108.036L146.154 110.201L148.654 114.531L151.154 118.862L154.904 116.697L152.404 112.366ZM148.654 114.531L146.155 110.201C146.575 109.959 146.983 109.823 147.327 109.751L148.357 114.644L149.386 119.537C149.931 119.422 150.541 119.216 151.154 118.862L148.654 114.531ZM148.357 114.644L143.492 113.489C142.989 115.604 142.02 117.707 140.573 119.754L144.656 122.64L148.739 125.526C150.837 122.558 152.391 119.296 153.221 115.799L148.357 114.644ZM144.656 122.64L142.639 127.215C142.799 127.285 142.932 127.4 143.028 127.566L147.358 125.066L151.689 122.566C150.493 120.496 148.708 118.962 146.673 118.065L144.656 122.64ZM147.358 125.066L143.028 127.566C143.263 127.972 143.124 128.492 142.717 128.727L145.217 133.057L147.717 137.387C152.906 134.391 154.685 127.755 151.689 122.566L147.358 125.066ZM145.217 133.057L142.717 128.727L128.319 137.039L130.819 141.369L133.319 145.699L147.717 137.387L145.217 133.057ZM130.819 141.369L128.319 137.039C127.914 137.274 127.393 137.135 127.158 136.728L122.828 139.228L118.498 141.728C121.494 146.917 128.13 148.696 133.319 145.7L130.819 141.369ZM122.828 139.228L127.158 136.728C127.113 136.649 127.083 136.571 127.065 136.492L122.192 137.614L117.32 138.735C117.556 139.762 117.946 140.772 118.498 141.728L122.828 139.228ZM122.192 137.614L120.653 132.857C114.485 134.853 107.43 136 99.9034 136V141V146C108.43 146 116.527 144.703 123.732 142.37L122.192 137.614ZM99.9034 141L99.9034 136C97.9777 136 96.0788 135.923 94.2136 135.777L93.8233 140.762L93.433 145.747C95.5521 145.913 97.7114 146 99.9034 146L99.9034 141ZM93.8233 140.762L88.8512 141.289C88.7338 140.182 89.0859 138.952 90.0016 138.036L93.5372 141.572L97.0727 145.107C98.4471 143.733 98.9727 141.907 98.7955 140.235L93.8233 140.762ZM93.5372 141.572L90.0016 138.036L86.9401 141.098L90.4757 144.633L94.0112 148.169L97.0727 145.107L93.5372 141.572ZM90.4757 144.633L86.9401 141.098C89.1157 138.922 92.8339 139.914 93.6315 142.891L88.8018 144.185L83.9722 145.479C85.1683 149.943 90.7469 151.433 94.0112 148.169L90.4757 144.633ZM88.8018 144.185L93.6316 142.891L92.5184 138.734L87.6885 140.028L82.8587 141.321L83.972 145.478L88.8018 144.185ZM87.6885 140.028L88.4897 135.092C85.6907 134.638 83.0062 134.02 80.4624 133.262L79.0333 138.053L77.6041 142.844C80.5691 143.729 83.6735 144.441 86.8873 144.963L87.6885 140.028ZM79.0333 138.053L74.0534 137.604C74.0427 137.724 74.007 137.842 73.9373 137.959L78.2335 140.517L82.5296 143.075C83.3857 141.637 83.8717 140.071 84.0131 138.502L79.0333 138.053ZM78.2335 140.517L73.9374 137.959C73.6977 138.361 73.1764 138.494 72.7726 138.254L70.2149 142.55L67.6572 146.846C72.805 149.911 79.4638 148.224 82.5296 143.075L78.2335 140.517ZM70.2149 142.55L72.7727 138.254L58.4876 129.749L55.9298 134.045L53.3719 138.341L67.6571 146.846L70.2149 142.55ZM55.9298 134.045L58.4877 129.749C58.0852 129.509 57.9523 128.987 58.1927 128.584L53.8965 126.026L49.6004 123.468C46.5353 128.616 48.2226 135.275 53.3718 138.341L55.9298 134.045ZM53.8965 126.026L58.1925 128.584C58.2748 128.446 58.3815 128.347 58.5078 128.277L56.0958 123.898L53.6837 119.518C52.0494 120.418 50.6211 121.754 49.6006 123.467L53.8965 126.026ZM56.0958 123.898L60.0111 120.788C57.2697 117.336 55.9034 113.685 55.9034 110L50.9034 110L45.9034 110C45.9035 116.311 48.2813 122.098 52.1804 127.007L56.0958 123.898ZM50.9034 110H55.9034C55.9034 108.69 56.0754 107.399 56.4105 106.13L51.5762 104.854L46.742 103.577C46.1929 105.656 45.9034 107.804 45.9034 110H50.9034ZM51.5762 104.854L55.1118 101.318L53.8295 100.036L50.294 103.572L46.7585 107.107L48.0407 108.389L51.5762 104.854ZM50.294 103.572L53.8295 100.036C56.0069 102.213 55.0106 105.931 52.0363 106.728L50.7423 101.899L49.4482 97.0691C44.9868 98.2645 43.4925 103.841 46.7585 107.107L50.294 103.572ZM50.7423 101.899L52.0381 106.728L54.1416 106.163L52.8458 101.334L51.5499 96.5051L49.4464 97.0695L50.7423 101.899ZM52.8458 101.334L57.3894 103.421C58.1772 101.706 59.2837 100.01 60.7124 98.3661L56.9385 95.0862L53.1647 91.8062C51.1812 94.0884 49.5288 96.5767 48.3021 99.2472L52.8458 101.334ZM56.9385 95.0862L60.2984 91.3833C59.434 90.599 58.9034 89.4889 58.9034 88.2424H53.9034H48.9034C48.9034 92.4415 50.725 96.1997 53.5786 98.789L56.9385 95.0862ZM53.9034 88.2424L58.9034 88.2425C58.9034 85.9 60.8029 84.0002 63.1465 84.0002V79.0002V74.0002C55.2813 74.0002 48.9035 80.3759 48.9034 88.2424L53.9034 88.2424ZM63.1465 79.0002V84.0002H82.4796V79.0002V74.0002H63.1465V79.0002ZM82.4796 79.0002L86.1245 82.4229C86.9541 81.5393 88.1134 81.0002 89.4044 81.0002V76.0002V71.0002C85.2325 71.0002 81.471 72.77 78.8346 75.5776L82.4796 79.0002ZM89.4044 76.0002V81.0002H104.19V76.0002V71.0002H89.4044V76.0002ZM104.19 76.0002L108.521 78.5002L109.964 76.0002L105.634 73.5002L101.304 71.0003L99.8604 73.5003L104.19 76.0002ZM100.454 101.081L96.1004 98.6227C97.4426 96.2459 100.716 95.8831 102.547 97.9028L98.8428 101.261L95.1385 104.619C97.8855 107.649 102.795 107.104 104.808 103.54L100.454 101.081ZM98.8428 101.261L102.547 97.903L98.1959 93.1022L94.4913 96.4602L90.7867 99.8182L95.1382 104.619L98.8428 101.261ZM94.4913 96.4602L98.1966 93.103C98.8649 93.8406 99.2141 94.7849 99.2307 95.7231L94.2315 95.8118L89.2323 95.9005C89.257 97.2917 89.7688 98.6948 90.786 99.8174L94.4913 96.4602ZM94.2315 95.8118L93.9606 90.8191L84.0251 91.3582L84.296 96.3508L84.5668 101.343L94.5024 100.804L94.2315 95.8118ZM84.296 96.3508L80.1331 99.1204C79.0979 97.5644 79.1941 95.1838 80.987 93.7692L84.084 97.6946L87.1811 101.62C89.854 99.5111 90.036 95.9519 88.4589 93.5813L84.296 96.3508ZM84.084 97.6946L80.9887 93.7679L77.8012 96.2806L80.8965 100.207L83.9919 104.134L87.1794 101.621L84.084 97.6946ZM80.8965 100.207L77.8013 96.2805C79.9439 94.5916 83.1112 95.496 84.039 98.0616L79.337 99.762L74.635 101.462C76.0267 105.311 80.7779 106.667 83.9918 104.134L80.8965 100.207ZM79.337 99.762L84.0385 98.0602L82.9232 94.9791L78.2217 96.6809L73.5203 98.3827L74.6355 101.464L79.337 99.762ZM78.2217 96.6809L77.9509 91.6883L69.5993 92.1414L69.8702 97.134L70.1411 102.127L78.4926 101.674L78.2217 96.6809ZM69.8702 97.134L66.9706 93.0607C61.2357 97.143 56.9034 102.938 56.9034 110H61.9034H66.9034C66.9034 107.367 68.5185 104.234 72.7698 101.207L69.8702 97.134ZM61.9034 110L56.9034 110C56.9036 118.453 63.0417 125.04 70.6151 129.226C78.3635 133.508 88.7281 136 99.9034 136L99.9034 131L99.9034 126C90.0922 126 81.4569 123.792 75.452 120.473C69.2721 117.058 66.9035 113.145 66.9034 110L61.9034 110ZM99.9034 131V136C102.295 136 104.641 135.885 106.925 135.666L106.447 130.689L105.97 125.712C104.002 125.9 101.974 126 99.9034 126V131ZM106.447 130.689L110.998 132.76L112.217 130.082L107.666 128.011L103.115 125.94L101.897 128.617L106.447 130.689ZM107.666 128.011L112.216 130.083C110.941 132.883 107.112 133.257 105.321 130.751L109.39 127.844L113.458 124.937C110.773 121.179 105.029 121.738 103.116 125.939L107.666 128.011ZM109.39 127.844L105.321 130.75L106.926 132.996L110.994 130.09L115.063 127.184L113.458 124.938L109.39 127.844ZM110.994 130.09L111.824 135.021C120.177 133.614 127.691 130.725 133.25 126.641C138.773 122.584 142.903 116.893 142.903 110L137.903 110L132.903 110C132.903 112.573 131.368 115.616 127.33 118.582C123.329 121.521 117.388 123.943 110.164 125.159L110.994 130.09ZM137.903 110H142.903C142.903 103.37 139.074 97.8429 133.878 93.8313L130.822 97.7893L127.767 101.747C131.485 104.617 132.903 107.521 132.903 110H137.903ZM130.822 97.7893L126.445 95.3728L125.156 97.7077L129.533 100.124L133.911 102.541L135.2 100.206L130.822 97.7893ZM129.533 100.124L125.157 97.7067C126.475 95.3203 129.744 94.9221 131.596 96.926L127.924 100.32L124.252 103.713C127.029 106.719 131.932 106.122 133.91 102.542L129.533 100.124ZM127.924 100.32L131.598 96.9278L128.39 93.4532L124.716 96.845L121.042 100.237L124.25 103.711L127.924 100.32ZM124.716 96.845L124.988 91.8524L103.769 90.6971L103.497 95.6897L103.225 100.682L124.444 101.838L124.716 96.845ZM103.497 95.6897L99.1428 93.2321L96.0998 98.6237L100.454 101.081L104.809 103.539L107.851 98.1473L103.497 95.6897Z" fill="#717171" mask="url(#path-5-outside-2_1260_70859)"/>
<path d="M101 81C126.405 81.0002 147 93.9838 147 110C147 126.016 126.405 139 101 139C75.5949 139 55 126.016 55 110C55 93.9837 75.5949 81 101 81ZM101 87C78.3563 87 60 97.2975 60 110C60 122.703 78.3563 133 101 133C123.643 133 142 122.702 142 110C142 97.2975 123.643 87.0001 101 87Z" fill="#C0C0C0"/>
<rect x="63" y="83" width="76" height="11" rx="5.5" fill="#C0C0C0"/>
<rect x="87" y="79" width="28" height="11" rx="5.5" fill="#F2F2F2"/>
<rect x="87" y="79" width="28" height="11" rx="5.5" fill="#C0C0C0"/>
<rect x="59.6523" y="123" width="20.591" height="7.30426" rx="3.65213" transform="rotate(30 59.6523 123)" fill="#C0C0C0"/>
<rect x="123.274" y="133.739" width="20.8871" height="8.20567" rx="4.10283" transform="rotate(-36.7645 123.274 133.739)" fill="#C0C0C0"/>
<path d="M90.9641 140.062C90.2975 140.447 89.4641 139.966 89.4641 139.196L89.4641 135.732C89.4641 134.962 90.2975 134.481 90.9641 134.866L93.9641 136.598C94.6308 136.983 94.6308 137.945 93.9641 138.33L90.9641 140.062Z" fill="#C0C0C0"/>
<path d="M61.5013 135.037C60.7578 135.236 60.0774 134.556 60.2766 133.812L61.1732 130.466C61.3724 129.723 62.3019 129.474 62.8462 130.018L65.2957 132.467C65.84 133.012 65.591 133.941 64.8474 134.14L61.5013 135.037Z" fill="#C0C0C0"/>
<path d="M60.366 84.83C59.9811 84.1634 60.4623 83.33 61.2321 83.33L66.4282 83.33C67.198 83.33 67.6791 84.1634 67.2942 84.83L64.6962 89.33C64.3113 89.9967 63.349 89.9967 62.9641 89.33L60.366 84.83Z" fill="#C0C0C0"/>
<path d="M100.866 96.5C100.481 97.1667 99.5189 97.1667 99.134 96.5L96.5359 92C96.151 91.3333 96.6321 90.5 97.4019 90.5L102.598 90.5C103.368 90.5 103.849 91.3333 103.464 92L100.866 96.5Z" fill="#C0C0C0"/>
<path d="M114.934 78.9838C115.677 78.7846 116.358 79.465 116.159 80.2086L114.814 85.2277C114.614 85.9712 113.685 86.2203 113.141 85.676L109.466 82.0017C108.922 81.4574 109.171 80.5279 109.915 80.3287L114.934 78.9838Z" fill="#C0C0C0"/>
<path d="M128.866 95.5C128.481 96.1667 127.519 96.1667 127.134 95.5L124.536 91C124.151 90.3333 124.632 89.5 125.402 89.5L130.598 89.5C131.368 89.5 131.849 90.3333 131.464 91L128.866 95.5Z" fill="#C0C0C0"/>
</svg>
